g 0.0000
v -0.007683376 -1.0432954 4.118154
v 0.00076555903 -1.0641146 4.4295263
v 0.5025966 -0.9011723 4.2875876
v 1.0330588 0.18640256 2.0797434
v 1.111396 1.130687 2.8453023
v 0.5375658 0.8802937 2.2586946
v 1.2006751 -0.38508642 3.0811298
v 0.8199575 -0.5605842 3.1485128
v 1.2757249 0.22279727 3.3057332
v 0.0027434342 -1.5131799 4.9509287
v 0.0046068663 -1.8743625 5.2165117
v 0.38927093 -1.8174189 5.260342
v 0.514869 -0.66470504 6.2301545
v 0.007982243 -0.68199515 6.2310705
v 0.014296766 -0.5038836 6.3805914
v 2.232418 1.943976 3.2771134
v 2.4948065 1.9126279 3.1769574
v 2.5779688 1.8629001 3.494908
v -0.007683376 -1.0432954 4.118154
v -0.50572896 -1.1228098 4.3032784
v 0.00076555903 -1.0641146 4.4295263
v -1.0330608 0.6691712 2.6707537
v -0.5375754 0.99070126 2.8936617
v -1.1164314 0.7546232 3.403051
v -1.2006686 -0.47953928 2.6174765
v -1.2817143 -0.38570654 3.2409184
v -0.81994915 -0.6567687 2.5943823
v 0.0027434342 -1.5131799 4.9509287
v -0.38025478 -1.8203384 5.258474
v 0.0046068663 -1.8743625 5.2165117
v -0.5102614 -0.4780768 6.2223597
v 0.014296766 -0.5038836 6.3805914
v 0.007982243 -0.68199515 6.2310705
v -2.3812916 -2.9031126 4.6666064
v -2.7137487 -2.713441 4.502564
v -2.6470518 -2.9096022 4.7624755
v 2.0384305 1.1663973 3.3745284
v 2.0540662 1.3883339 3.1803596
v 2.1656888 1.6567798 3.0999787
v 2.0238976 1.2848582 3.194902
v 2.0631778 1.1968851 3.1421046
v 2.3195531 0.802371 3.6212714
v 2.1461496 0.9954264 3.673977
v 2.1860821 1.3221734 4.0255527
v 1.1448629 0.4947319 5.502642
v 0.8091118 0.8309362 5.30686
v 1.111834 0.51996374 5.119813
v 0.88936996 0.08615434 5.9788632
v 1.6710733 0.021371126 5.9931555
v 1.5137477 -0.28954005 6.040453
v 1.6058629 0.54326487 5.689865
v 1.6015701 1.0439968 4.8621035
v 0.36435658 0.5612817 5.8412094
v 0.030639797 0.493774 5.9804807
v 0.02823674 0.18049759 6.3276696
v 0.028209582 0.69255006 5.615561
v -0.0001449883 1.1280243 4.719802
v 0.7211595 1.1594198 4.019946
v 1.0221727 1.00906 4.063775
v -0.0136815235 1.0807574 4.1296463
v 2.0689702 1.1596277 4.8771324
v 2.576804 1.3145812 4.175148
v 2.1860821 1.3221734 4.0255527
v 2.4069262 0.88541603 5.214492
v 2.1217556 0.34569812 5.495187
v 1.9709277 -0.370394 5.758177
v 2.4355445 1.9410344 3.745972
v 2.2972188 2.0556889 3.573542
v 2.5779688 1.8629001 3.494908
v 1.9181263 1.7834234 3.7447863
v 1.9113307 1.4691793 3.910746
v 1.1788862 -0.839345 4.90216
v 1.1364362 -0.0948894 4.724323
v 0.96425295 -0.73967934 4.38564
v 0.9197152 -0.4504937 4.2960043
v 1.1168976 0.29041463 3.9866986
v 0.767417 -0.62440014 3.5832639
v 1.111834 0.51996374 5.119813
v 1.0221727 1.00906 4.063775
v 0.8091118 0.8309362 5.30686
v 0.6099039 -1.4127281 0.5826294
v 0.7400653 -0.88275677 0.2374745
v 0.5906572 -0.76019967 0.8951533
v 0.45170233 -1.8417158 0.94069797
v 0.819872 -1.1147561 1.4111705
v 0.26627317 -0.6157015 1.5335474
v 0.67871195 0.06782663 1.4967647
v 0.4408996 -0.8064723 2.0703204
v 0.2872072 -0.24755108 1.871338
v 0.30039573 -0.010864854 2.096526
v 0.2814272 -0.50653076 2.4872744
v 0.2170502 -0.48510906 2.4675863
v 0.2514808 0.06537795 2.1833036
v -2.618744E-06 0.26303148 2.477968
v -0.0018338372 1.0466969 2.6275887
v 0.18536888 -0.52412224 2.4700801
v 0.5025966 -0.9011723 4.2875876
v 0.00076555903 -1.0641146 4.4295263
v 0.6045824 -1.2120137 4.538013
v 0.96425295 -0.73967934 4.38564
v 1.1788862 -0.839345 4.90216
v 0.9197152 -0.4504937 4.2960043
v 0.767417 -0.62440014 3.5832639
v -0.007683376 -1.0432954 4.118154
v 8.455056E-06 -1.103085 3.370768
v 1.079112 -0.8914846 0.2961084
v 1.6065109 -1.7881947 0.8501744
v 1.1966212 -0.97755253 1.0098547
v 1.0085064 -0.5737856 0.93552095
v 1.3280607 -0.21232462 1.5064175
v 1.3458622 -0.7800881 2.1487074
v 1.3312107 -0.057400227 2.4650953
v 1.0330588 0.18640256 2.0797434
v 1.111396 1.130687 2.8453023
v 1.2757249 0.22279727 3.3057332
v 1.3259342 -0.32855868 2.6435523
v 1.2529018 -0.51544 2.749082
v 1.2006751 -0.38508642 3.0811298
v 1.0330588 0.18640256 2.0797434
v 0.30039573 -0.010864854 2.096526
v 0.67871195 0.06782663 1.4967647
v 1.3280607 -0.21232462 1.5064175
v 1.0085064 -0.5737856 0.93552095
v 0.5906572 -0.76019967 0.8951533
v 0.7400653 -0.88275677 0.2374745
v 1.079112 -0.8914846 0.2961084
v 1.5137477 -0.28954005 6.040453
v 1.6710733 0.021371126 5.9931555
v 1.9709277 -0.370394 5.758177
v 1.6058629 0.54326487 5.689865
v 0.22591819 -1.6255002 5.6764054
v 0.0037282007 -1.6951439 5.5326376
v 0.0040333085 -1.8118587 5.656015
v 0.22857356 -1.5654879 5.964177
v 0.0021409746 -1.6747836 6.248089
v 0.37518167 -1.5638729 6.1835976
v 0.4378054 -1.5244023 5.945368
v 0.4803938 -1.3764684 5.7106442
v 1.0274316 -0.567019 5.9378867
v 0.514869 -0.66470504 6.2301545
v 0.014296766 -0.5038836 6.3805914
v 0.88936996 0.08615434 5.9788632
v 0.02823674 0.18049759 6.3276696
v 1.0274316 -0.567019 5.9378867
v 0.88936996 0.08615434 5.9788632
v 1.5137477 -0.28954005 6.040453
v 1.9709277 -0.370394 5.758177
v 1.7953401 -0.8121731 5.1215324
v 0.8883141 -0.81471467 5.7208805
v 0.514869 -0.66470504 6.2301545
v 0.5516416 -0.8657508 5.4548035
v 1.1788862 -0.839345 4.90216
v 0.56424415 -0.9198253 5.2251673
v 0.6045824 -1.2120137 4.538013
v 0.362234 -0.9829998 4.9402637
v 0.28157902 -0.9938165 5.092934
v 0.00076555903 -1.0641146 4.4295263
v 0.0012535863 -1.0773277 4.961044
v 2.3195531 0.802371 3.6212714
v 2.7892373 0.8664143 3.7558646
v 2.4641716 1.3431941 3.131404
v 2.0631778 1.1968851 3.1421046
v 2.0540662 1.3883339 3.1803596
v 2.1656888 1.6567798 3.0999787
v 2.232418 1.943976 3.2771134
v 2.4948065 1.9126279 3.1769574
v 2.4641716 1.3431941 3.131404
v 2.5779688 1.8629001 3.494908
v 2.4948065 1.9126279 3.1769574
v 2.7892373 0.8664143 3.7558646
v 2.576804 1.3145812 4.175148
v 2.4355445 1.9410344 3.745972
v 2.6716986 0.6952002 4.742273
v 2.4916308 0.18861675 4.5678053
v 2.4069262 0.88541603 5.214492
v 2.4543686 0.55655265 5.04109
v 2.3697612 0.1370225 4.7145896
v 2.1217556 0.34569812 5.495187
v 2.0068648 -0.013141394 5.1654334
v 1.9709277 -0.370394 5.758177
v 1.7953401 -0.8121731 5.1215324
v 1.6612251 -0.4363358 4.7176175
v 1.8911827 0.16618204 4.3862133
v 2.1461496 0.9954264 3.673977
v 1.6288617 0.9452667 4.2448597
v 1.6198819 0.41664886 4.2323847
v 1.6015701 1.0439968 4.8621035
v 1.1364362 -0.0948894 4.724323
v 1.111834 0.51996374 5.119813
v 1.1448629 0.4947319 5.502642
v 2.3195531 0.802371 3.6212714
v 1.6198819 0.41664886 4.2323847
v 2.0604258 0.20765042 4.2231464
v 2.1461496 0.9954264 3.673977
v 2.232418 1.943976 3.2771134
v 1.8106582 1.597307 3.2559063
v 2.1656888 1.6567798 3.0999787
v 1.8659873 1.835438 3.402779
v 2.2972188 2.0556889 3.573542
v 2.5779688 1.8629001 3.494908
v 1.9181263 1.7834234 3.7447863
v 0.5059684 -2.049827 1.0020566
v 0.8233658 -2.0416718 1.1408477
v 0.910336 -2.1376362 1.04245
v 1.2018955 -2.024679 1.1524005
v 1.4182429 -2.0275428 0.96544945
v 2.1656888 1.6567798 3.0999787
v 1.8106582 1.597307 3.2559063
v 1.7051408 1.1907027 3.4835513
v 2.0384305 1.1663973 3.3745284
v 0.910336 -2.1376362 1.04245
v 0.45170233 -1.8417158 0.94069797
v 0.5059684 -2.049827 1.0020566
v 1.1995147 -1.5823634 0.6754305
v 1.4182429 -2.0275428 0.96544945
v 0.6099039 -1.4127281 0.5826294
v 1.6065109 -1.7881947 0.8501744
v 0.7400653 -0.88275677 0.2374745
v 1.079112 -0.8914846 0.2961084
v 0.819872 -1.1147561 1.4111705
v 0.976978 -1.2321228 1.2246308
v 0.45170233 -1.8417158 0.94069797
v 1.3458622 -0.7800881 2.1487074
v 1.1966212 -0.97755253 1.0098547
v 0.844672 -0.95079994 2.1066504
v 0.4408996 -0.8064723 2.0703204
v 0.2814272 -0.50653076 2.4872744
v 1.0297161 -0.6203102 2.7720253
v 1.2529018 -0.51544 2.749082
v 1.2006751 -0.38508642 3.0811298
v 0.8199575 -0.5605842 3.1485128
v 0.82925457 -0.67338145 2.7551427
v 0.5059684 -2.049827 1.0020566
v 0.45170233 -1.8417158 0.94069797
v 0.8233658 -2.0416718 1.1408477
v 0.976978 -1.2321228 1.2246308
v 1.2018955 -2.024679 1.1524005
v 1.6065109 -1.7881947 0.8501744
v 1.1966212 -0.97755253 1.0098547
v 1.4182429 -2.0275428 0.96544945
v 1.0330588 0.18640256 2.0797434
v 0.5375658 0.8802937 2.2586946
v 0.30039573 -0.010864854 2.096526
v 0.2514808 0.06537795 2.1833036
v 0.52623945 0.9260652 2.219234
v -0.0018338372 1.0466969 2.6275887
v 1.111396 1.130687 2.8453023
v 1.1548971 1.1836551 2.8517172
v 0.52623945 0.9260652 2.219234
v 0.5375658 0.8802937 2.2586946
v -0.0136815235 1.0807574 4.1296463
v -0.011801764 1.1415468 4.1332054
v 0.74730873 1.2336707 3.9825258
v 0.7211595 1.1594198 4.019946
v 1.0879586 1.0511707 4.017352
v 1.0221727 1.00906 4.063775
v 1.1884466 0.3083297 3.9785788
v 1.1168976 0.29041463 3.9866986
v 0.8239302 -0.6715514 3.5919445
v 0.767417 -0.62440014 3.5832639
v 8.879672E-06 -1.1673386 3.3586302
v 8.455056E-06 -1.103085 3.370768
v 1.6612251 -0.4363358 4.7176175
v 1.1788862 -0.839345 4.90216
v 1.7953401 -0.8121731 5.1215324
v 1.1364362 -0.0948894 4.724323
v 1.5061606 0.024890423 4.3837104
v 1.6198819 0.41664886 4.2323847
v 1.8911827 0.16618204 4.3862133
v 1.6198819 0.41664886 4.2323847
v 1.8911827 0.16618204 4.3862133
v 2.0604258 0.20765042 4.2231464
v 2.4916308 0.18861675 4.5678053
v 2.3697612 0.1370225 4.7145896
v 2.0068648 -0.013141394 5.1654334
v 2.7892373 0.8664143 3.7558646
v 2.3195531 0.802371 3.6212714
v 2.1860821 1.3221734 4.0255527
v 1.6288617 0.9452667 4.2448597
v 2.1461496 0.9954264 3.673977
v 1.6015701 1.0439968 4.8621035
v 1.2757249 0.22279727 3.3057332
v 1.1548971 1.1836551 2.8517172
v 1.111396 1.130687 2.8453023
v 1.3396784 0.22083938 3.3202662
v 0.8199575 -0.5605842 3.1485128
v 0.87381744 -0.70583344 3.0473096
v 0.2814272 -0.50653076 2.4872744
v 0.28288677 -0.9343729 2.4879372
v 0.2170502 -0.48510906 2.4675863
v 0.18536888 -0.52412224 2.4700801
v 3.6032234E-06 -0.56602275 2.4625084
v 6.633884E-06 -0.8906002 2.4696968
v -2.618744E-06 0.26303148 2.477968
v 0.5516416 -0.8657508 5.4548035
v 0.42226607 -1.0504704 6.1772046
v 0.514869 -0.66470504 6.2301545
v 0.5336064 -1.0055742 5.374983
v 0.56424415 -0.9198253 5.2251673
v 0.6687737 -1.50379 5.2437873
v 0.49512982 -1.2404741 6.2437544
v 0.59829646 -1.4101977 5.3613443
v 0.4803938 -1.3764684 5.7106442
v 0.4378054 -1.5244023 5.945368
v 0.37518167 -1.5638729 6.1835976
v 0.51050514 -1.3957788 5.51162
v 0.22591819 -1.6255002 5.6764054
v 0.3438147 -1.655738 5.496112
v 0.38783264 -1.7408333 5.3483925
v 0.38783264 -1.7408333 5.3483925
v 0.59829646 -1.4101977 5.3613443
v 0.6687737 -1.50379 5.2437873
v 0.38927093 -1.8174189 5.260342
v 0.0043405313 -1.7856407 5.3321705
v 0.0046068663 -1.8743625 5.2165117
v 0.0037282007 -1.6951439 5.5326376
v 0.3438147 -1.655738 5.496112
v 0.22591819 -1.6255002 5.6764054
v 0.6687737 -1.50379 5.2437873
v 0.0027434342 -1.5131799 4.9509287
v 0.38927093 -1.8174189 5.260342
v 0.2809211 -1.1987408 5.0653973
v 0.56424415 -0.9198253 5.2251673
v 0.0012535863 -1.0773277 4.961044
v 0.28157902 -0.9938165 5.092934
v 1.0879586 1.0511707 4.017352
v 1.1548971 1.1836551 2.8517172
v 1.3396784 0.22083938 3.3202662
v 1.1884466 0.3083297 3.9785788
v 0.8239302 -0.6715514 3.5919445
v 0.87381744 -0.70583344 3.0473096
v 0.7926451 -0.94403666 3.083806
v 0.7606285 -1.0064986 2.5127568
v 0.74730873 1.2336707 3.9825258
v 1.1548971 1.1836551 2.8517172
v 1.0879586 1.0511707 4.017352
v 0.46774715 1.4086666 2.8327923
v 0.52623945 0.9260652 2.219234
v -0.0018338372 1.0466969 2.6275887
v -0.014139451 1.3667992 3.5079055
v -0.011801764 1.1415468 4.1332054
v 0.8239302 -0.6715514 3.5919445
v 8.39398E-06 -1.2017528 2.674441
v 8.879672E-06 -1.1673386 3.3586302
v 0.7926451 -0.94403666 3.083806
v 0.63411516 -1.1501608 2.5647998
v 0.7606285 -1.0064986 2.5127568
v 8.616958E-06 -1.1329544 2.2917995
v 0.05219678 -0.9820988 1.9351449
v 7.133796E-06 -0.9840207 1.9169394
v 6.633884E-06 -0.8906002 2.4696968
v 7.133796E-06 -0.9840207 1.9169394
v 0.05219678 -0.9820988 1.9351449
v 0.28288677 -0.9343729 2.4879372
v 0.7606285 -1.0064986 2.5127568
v 0.87381744 -0.70583344 3.0473096
v 1.8106582 1.597307 3.2559063
v 1.8659873 1.835438 3.402779
v 1.7051408 1.1907027 3.4835513
v 1.9113307 1.4691793 3.910746
v 1.9181263 1.7834234 3.7447863
v 2.0384305 1.1663973 3.3745284
v 1.7051408 1.1907027 3.4835513
v 1.9113307 1.4691793 3.910746
v 2.1860821 1.3221734 4.0255527
v 0.007982243 -0.68199515 6.2310705
v 0.514869 -0.66470504 6.2301545
v 0.42226607 -1.0504704 6.1772046
v -0.0015534312 -0.9961449 6.349968
v 0.2733772 -1.2974813 6.3938704
v 0.00022701919 -1.4220273 6.4321656
v 0.49512982 -1.2404741 6.2437544
v 0.0021409746 -1.6747836 6.248089
v 0.37518167 -1.5638729 6.1835976
v -2.1603026 -2.1800878 4.9497113
v -2.3145587 -2.7352095 4.959295
v -2.1914937 -2.4659286 5.0169716
v -2.1576653 -2.369184 5.0533714
v -2.1967847 -2.3142202 5.1400805
v -2.4188015 -1.7300537 4.894258
v -2.2488399 -1.8842845 4.7621865
v -2.281807 -2.0070581 4.2976394
v -1.1351914 0.3171656 4.5536485
v -1.1164744 -0.12628055 4.3623524
v -0.8026609 0.5876755 4.7663445
v -0.8779196 0.4154394 5.6842847
v -1.6389555 0.6274295 4.8970976
v -1.4800677 0.5102922 5.431136
v -1.5995286 0.2424171 4.1214776
v -1.6508867 -0.913934 3.6784787
v -0.35642856 0.646666 5.581461
v 0.030639797 0.493774 5.9804807
v 0.02823674 0.18049759 6.3276696
v 0.028209582 0.69255006 5.615561
v -0.0001449883 1.1280243 4.719802
v -0.7255731 0.41678372 4.1469426
v -1.0302068 0.040049516 4.1128163
v -0.0136815235 1.0807574 4.1296463
v -2.1202526 -1.1524842 3.600522
v -2.664708 -1.9119432 4.1582127
v -2.281807 -2.0070581 4.2976394
v -2.4338806 -0.57031035 3.6634963
v -2.1200583 -0.0007035732 4.2032948
v -1.9390013 0.3469379 5.141977
v -2.5620725 -2.6721823 4.248173
v -2.4353826 -2.8604693 4.350688
v -2.7137487 -2.713441 4.502564
v -2.0408907 -2.55821 4.3372984
v -2.017147 -2.2035635 4.3378973
v -1.1758293 -0.6326604 5.3900766
v -0.9720433 -1.0441417 4.5698805
v -1.1529803 -0.6604631 4.7622933
v -0.92793244 -0.8796545 4.3548236
v -1.1279267 -0.54985034 3.9230063
v -0.7700431 -1.0810522 2.9038613
v -1.1164744 -0.12628055 4.3623524
v -1.0302068 0.040049516 4.1128163
v -0.8026609 0.5876755 4.7663445
v -0.6098646 1.6664134 0.80263174
v -0.59063417 1.5095613 1.5089339
v -0.74003994 2.1224818 1.2408092
v -0.45165163 1.2206041 0.4657429
v -0.81983906 0.91905653 1.2784365
v -0.26625225 0.91071683 1.785716
v -0.6787087 1.1432159 2.412641
v -0.44087577 0.20898902 1.7509544
v -0.28719628 0.66316056 2.1797428
v -0.30039185 0.53482705 2.429636
v -0.2814213 -0.34738386 2.3224475
v -0.2170446 -0.32720476 2.3183358
v -0.2514788 0.4777968 2.4883924
v -2.618744E-06 0.26303148 2.477968
v -0.0018338372 1.0466969 2.6275887
v -0.18536314 -0.36905932 2.3094733
v -0.50572896 -1.1228098 4.3032784
v -0.6059842 -1.2295415 4.7062454
v 0.00076555903 -1.0641146 4.4295263
v -0.9720433 -1.0441417 4.5698805
v -1.1758293 -0.6326604 5.3900766
v -0.92793244 -0.8796545 4.3548236
v -0.7700431 -1.0810522 2.9038613
v -0.007683376 -1.0432954 4.118154
v 8.455056E-06 -1.103085 3.370768
v -1.0790865 2.0633907 1.2455598
v -1.1965926 1.3486714 1.3231385
v -1.606462 1.3208784 0.49737653
v -1.0084882 1.5123959 1.6996374
v -1.3280507 1.0416659 2.1699142
v -1.3458382 0.2522211 1.8330681
v -1.3312087 0.23176718 2.6291356
v -1.0330608 0.6691712 2.6707537
v -1.1164314 0.7546232 3.403051
v -1.2817143 -0.38570654 3.2409184
v -1.3259257 -0.04080558 2.4506097
v -1.252889 -0.22702646 2.3284748
v -1.2006686 -0.47953928 2.6174765
v -1.0330608 0.6691712 2.6707537
v -0.6787087 1.1432159 2.412641
v -0.30039185 0.53482705 2.429636
v -1.3280507 1.0416659 2.1699142
v -1.0084882 1.5123959 1.6996374
v -0.59063417 1.5095613 1.5089339
v -0.74003994 2.1224818 1.2408092
v -1.0790865 2.0633907 1.2455598
v -1.4800677 0.5102922 5.431136
v -1.9390013 0.3469379 5.141977
v -1.6389555 0.6274295 4.8970976
v -1.5995286 0.2424171 4.1214776
v -0.21942638 -1.6274691 5.6751456
v 0.0040333085 -1.8118587 5.656015
v 0.0037282007 -1.6951439 5.5326376
v -0.22368377 -1.5676582 5.962788
v 0.0021409746 -1.6747836 6.248089
v -0.37155193 -1.5675026 6.181275
v -0.433492 -1.5284216 5.9427953
v -0.4766492 -1.3804266 5.7081113
v -1.0173025 -0.24709938 5.8981886
v 0.014296766 -0.5038836 6.3805914
v -0.5102614 -0.4780768 6.2223597
v -0.8779196 0.4154394 5.6842847
v 0.02823674 0.18049759 6.3276696
v -1.0173025 -0.24709938 5.8981886
v -1.4800677 0.5102922 5.431136
v -0.8779196 0.4154394 5.6842847
v -1.9390013 0.3469379 5.141977
v -1.7795174 -0.27695656 5.501629
v -0.8792981 -0.54045403 5.7675476
v -0.5102614 -0.4780768 6.2223597
v -0.5486653 -0.7835295 5.4884806
v -1.1758293 -0.6326604 5.3900766
v -0.56133395 -0.84599173 5.2839756
v -0.6059842 -1.2295415 4.7062454
v -0.36046264 -0.9529648 5.002771
v -0.2792535 -0.9549843 5.137748
v 0.00076555903 -1.0641146 4.4295263
v 0.0012535863 -1.0773277 4.961044
v -2.4188015 -1.7300537 4.894258
v -2.601946 -2.4293091 5.0699697
v -2.8833413 -1.7014432 4.732381
v -2.1967847 -2.3142202 5.1400805
v -2.1914937 -2.4659286 5.0169716
v -2.3145587 -2.7352095 4.959295
v -2.3812916 -2.9031126 4.6666064
v -2.6470518 -2.9096022 4.7624755
v -2.601946 -2.4293091 5.0699697
v -2.6470518 -2.9096022 4.7624755
v -2.7137487 -2.713441 4.502564
v -2.8833413 -1.7014432 4.732381
v -2.664708 -1.9119432 4.1582127
v -2.5620725 -2.6721823 4.248173
v -2.714797 -0.99866915 3.9678276
v -2.5283585 -0.7781589 4.4474864
v -2.4338806 -0.57031035 3.6634963
v -2.4797535 -0.6366639 3.9316015
v -2.3982935 -0.66426563 4.5057254
v -2.1200583 -0.0007035732 4.2032948
v -2.0104506 -0.23878765 4.6552973
v -1.9390013 0.3469379 5.141977
v -1.7795174 -0.27695656 5.501629
v -1.6739308 -0.6685097 5.150696
v -1.9366714 -1.0091779 4.5737805
v -2.2488399 -1.8842845 4.7621865
v -1.6803095 -1.1517007 4.5126667
v -1.704148 -1.5471497 4.226368
v -1.6508867 -0.913934 3.6784787
v -1.1529803 -0.6604631 4.7622933
v -1.1164744 -0.12628055 4.3623524
v -1.1351914 0.3171656 4.5536485
v -2.4188015 -1.7300537 4.894258
v -2.114503 -0.96866775 4.6357126
v -1.6803095 -1.1517007 4.5126667
v -2.2488399 -1.8842845 4.7621865
v -2.3812916 -2.9031126 4.6666064
v -2.3145587 -2.7352095 4.959295
v -1.9510305 -2.6269102 4.8592157
v -2.0063627 -2.7661285 4.616531
v -2.4353826 -2.8604693 4.350688
v -2.7137487 -2.713441 4.502564
v -2.0408907 -2.55821 4.3372984
v -0.5059123 1.1137689 0.27689892
v -0.91027766 1.0545607 0.20049053
v -0.82330984 0.98041594 0.31622422
v -1.2018399 0.9730027 0.33538014
v -1.4181875 1.1544608 0.2903046
v -2.3145587 -2.7352095 4.959295
v -2.1603026 -2.1800878 4.9497113
v -1.8231277 -2.1666267 4.8512697
v -1.9510305 -2.6269102 4.8592157
v -0.91027766 1.0545607 0.20049053
v -0.5059123 1.1137689 0.27689892
v -0.45165163 1.2206041 0.4657429
v -1.1994711 1.5376482 0.6583649
v -1.4181875 1.1544608 0.2903046
v -0.6098646 1.6664134 0.80263174
v -1.606462 1.3208784 0.49737653
v -0.74003994 2.1224818 1.2408092
v -1.0790865 2.0633907 1.2455598
v -0.81983906 0.91905653 1.2784365
v -0.45165163 1.2206041 0.4657429
v -0.9769426 1.0818884 1.1237428
v -1.3458382 0.2522211 1.8330681
v -1.1965926 1.3486714 1.3231385
v -0.84464294 0.22932053 1.6590929
v -0.44087577 0.20898902 1.7509544
v -0.2814213 -0.34738386 2.3224475
v -1.0297011 -0.3152789 2.2563612
v -1.252889 -0.22702646 2.3284748
v -1.2006686 -0.47953928 2.6174765
v -0.81994915 -0.6567687 2.5943823
v -0.82923937 -0.36662948 2.226283
v -0.5059123 1.1137689 0.27689892
v -0.82330984 0.98041594 0.31622422
v -0.45165163 1.2206041 0.4657429
v -0.9769426 1.0818884 1.1237428
v -1.2018399 0.9730027 0.33538014
v -1.606462 1.3208784 0.49737653
v -1.1965926 1.3486714 1.3231385
v -1.4181875 1.1544608 0.2903046
v -1.0330608 0.6691712 2.6707537
v -0.30039185 0.53482705 2.429636
v -0.5375754 0.99070126 2.8936617
v -0.2514788 0.4777968 2.4883924
v -0.52624875 1.0558856 2.8538911
v -0.0018338372 1.0466969 2.6275887
v -1.1164314 0.7546232 3.403051
v -0.5375754 0.99070126 2.8936617
v -0.52624875 1.0558856 2.8538911
v -1.1602392 0.79346883 3.42003
v -0.0136815235 1.0807574 4.1296463
v -0.7510911 0.44236696 4.189052
v -0.011801764 1.1415468 4.1332054
v -0.7255731 0.41678372 4.1469426
v -1.0948783 0.06771383 4.1403112
v -1.0302068 0.040049516 4.1128163
v -1.1986518 -0.57642627 3.9129748
v -1.1279267 -0.54985034 3.9230063
v -0.8258142 -1.1081048 2.8559206
v -0.7700431 -1.0810522 2.9038613
v 8.879672E-06 -1.1673386 3.3586302
v 8.455056E-06 -1.103085 3.370768
v -1.6739308 -0.6685097 5.150696
v -1.7795174 -0.27695656 5.501629
v -1.1758293 -0.6326604 5.3900766
v -1.1529803 -0.6604631 4.7622933
v -1.5482223 -0.979332 4.689906
v -1.6803095 -1.1517007 4.5126667
v -1.9366714 -1.0091779 4.5737805
v -1.6803095 -1.1517007 4.5126667
v -2.114503 -0.96866775 4.6357126
v -1.9366714 -1.0091779 4.5737805
v -2.5283585 -0.7781589 4.4474864
v -2.3982935 -0.66426563 4.5057254
v -2.0104506 -0.23878765 4.6552973
v -2.8833413 -1.7014432 4.732381
v -2.4188015 -1.7300537 4.894258
v -2.281807 -2.0070581 4.2976394
v -2.2488399 -1.8842845 4.7621865
v -1.704148 -1.5471497 4.226368
v -1.6508867 -0.913934 3.6784787
v -1.2817143 -0.38570654 3.2409184
v -1.1164314 0.7546232 3.403051
v -1.1602392 0.79346883 3.42003
v -1.346634 -0.40048444 3.248333
v -0.81994915 -0.6567687 2.5943823
v -0.8738072 -0.7045331 2.4910593
v -0.2814213 -0.34738386 2.3224475
v -0.28287613 -0.7131764 2.1221132
v -0.2170446 -0.32720476 2.3183358
v -0.18536314 -0.36905932 2.3094733
v 3.6032234E-06 -0.56602275 2.4625084
v 6.633884E-06 -0.8906002 2.4696968
v -2.618744E-06 0.26303148 2.477968
v -0.5486653 -0.7835295 5.4884806
v -0.5102614 -0.4780768 6.2223597
v -0.42201498 -0.9868501 6.2002034
v -0.5305265 -0.953549 5.4123015
v -0.56133395 -0.84599173 5.2839756
v -0.662602 -1.4973035 5.266275
v -0.49534386 -1.2449237 6.240907
v -0.59282756 -1.411747 5.363214
v -0.4766492 -1.3804266 5.7081113
v -0.433492 -1.5284216 5.9427953
v -0.37155193 -1.5675026 6.181275
v -0.5058316 -1.3967857 5.5126834
v -0.21942638 -1.6274691 5.6751456
v -0.33643708 -1.6585947 5.4942837
v -0.37932193 -1.7439158 5.3464203
v -0.37932193 -1.7439158 5.3464203
v -0.662602 -1.4973035 5.266275
v -0.59282756 -1.411747 5.363214
v -0.38025478 -1.8203384 5.258474
v 0.0043405313 -1.7856407 5.3321705
v 0.0046068663 -1.8743625 5.2165117
v 0.0037282007 -1.6951439 5.5326376
v -0.33643708 -1.6585947 5.4942837
v -0.21942638 -1.6274691 5.6751456
v -0.662602 -1.4973035 5.266275
v -0.38025478 -1.8203384 5.258474
v 0.0027434342 -1.5131799 4.9509287
v -0.27770126 -1.1682043 5.11751
v -0.56133395 -0.84599173 5.2839756
v 0.0012535863 -1.0773277 4.961044
v -0.2792535 -0.9549843 5.137748
v -1.0948783 0.06771383 4.1403112
v -1.346634 -0.40048444 3.248333
v -1.1602392 0.79346883 3.42003
v -1.1986518 -0.57642627 3.9129748
v -0.8258142 -1.1081048 2.8559206
v -0.8738072 -0.7045331 2.4910593
v -0.7926328 -0.93471265 2.4207382
v -0.7606149 -0.72758865 2.0376427
v -0.7510911 0.44236696 4.189052
v -1.0948783 0.06771383 4.1403112
v -1.1602392 0.79346883 3.42003
v -0.47085434 1.0604951 3.5354872
v -0.52624875 1.0558856 2.8538911
v -0.0018338372 1.0466969 2.6275887
v -0.014139451 1.3667992 3.5079055
v -0.011801764 1.1415468 4.1332054
v -0.8258142 -1.1081048 2.8559206
v 8.879672E-06 -1.1673386 3.3586302
v 8.39398E-06 -1.2017528 2.674441
v -0.7926328 -0.93471265 2.4207382
v -0.6341005 -0.8897222 2.018069
v -0.7606149 -0.72758865 2.0376427
v 8.616958E-06 -1.1329544 2.2917995
v -0.05218319 -0.5515515 1.6151776
v 7.133796E-06 -0.9840207 1.9169394
v 6.633884E-06 -0.8906002 2.4696968
v -0.05218319 -0.5515515 1.6151776
v 7.133796E-06 -0.9840207 1.9169394
v -0.28287613 -0.7131764 2.1221132
v -0.7606149 -0.72758865 2.0376427
v -0.8738072 -0.7045331 2.4910593
v -1.9510305 -2.6269102 4.8592157
v -1.8231277 -2.1666267 4.8512697
v -2.0063627 -2.7661285 4.616531
v -2.017147 -2.2035635 4.3378973
v -2.0408907 -2.55821 4.3372984
v -2.1603026 -2.1800878 4.9497113
v -2.281807 -2.0070581 4.2976394
v -2.017147 -2.2035635 4.3378973
v -1.8231277 -2.1666267 4.8512697
v 0.007982243 -0.68199515 6.2310705
v -0.42201498 -0.9868501 6.2002034
v -0.5102614 -0.4780768 6.2223597
v -0.0015534312 -0.9961449 6.349968
v -0.27369884 -1.300116 6.3921843
v 0.00022701919 -1.4220273 6.4321656
v -0.49534386 -1.2449237 6.240907
v 0.0021409746 -1.6747836 6.248089
v -0.37155193 -1.5675026 6.181275
vt 0.76092815 0.8767158
vt 0.7174094 0.91054726
vt 0.76092815 0.95057213
vt 0.38543808 0.96915483
vt 0.38543808 0.8693485
vt 0.32501337 0.9344189
vt 0.40212393 0.7568116
vt 0.42906108 0.79320693
vt 0.42906108 0.6946838
vt 0.64721847 0.83391285
vt 0.6187177 0.852685
vt 0.64721847 0.8863988
vt 0.40864563 0.8004855
vt 0.40212417 0.8554132
vt 0.4314282 0.8554132
vt 0.8731629 0.288234
vt 0.85169375 0.31012797
vt 0.8731629 0.33410096
vt 0.76092815 0.8767158
vt 0.76092815 0.95057213
vt 0.7174094 0.91054726
vt 0.38543808 0.96915483
vt 0.32501337 0.9344189
vt 0.38543808 0.8693485
vt 0.40212393 0.7568116
vt 0.42906108 0.6946838
vt 0.42906108 0.79320693
vt 0.64721847 0.83391285
vt 0.64721847 0.8863988
vt 0.6187177 0.852685
vt 0.40864563 0.8004855
vt 0.4314282 0.8554132
vt 0.40212417 0.8554132
vt 0.8731629 0.288234
vt 0.8731629 0.33410096
vt 0.85169375 0.31012797
vt 0.93716276 0.87058735
vt 0.95343685 0.89970946
vt 0.9799932 0.91859293
vt 0.9427136 0.89419115
vt 0.93181825 0.89648974
vt 0.911044 0.8307359
vt 0.9316137 0.83232665
vt 0.9799932 0.80742836
vt 0.10851145 0.33349717
vt 0.13080215 0.36262
vt 0.1400299 0.3113687
vt 0.035931587 0.41149533
vt 0.024571896 0.32702982
vt 0.0050616264 0.3596238
vt 0.08769798 0.28441465
vt 0.17019081 0.20653963
vt 0.08456516 0.4494164
vt 0.083266735 0.49250197
vt 0.042717457 0.51571035
vt 0.13373709 0.4635235
vt 0.21156597 0.41879463
vt 0.21291876 0.3210987
vt 0.19684744 0.2890222
vt 0.25440502 0.39410865
vt 0.13946295 0.16356409
vt 0.15124083 0.07156634
vt 0.19101858 0.09412408
vt 0.07759905 0.16957974
vt 0.05247307 0.23621142
vt 0.0036392212 0.30024278
vt 0.2229681 0.026929379
vt 0.25050545 0.022252083
vt 0.22280836 0.003639102
vt 0.25440502 0.07686579
vt 0.22743464 0.10261488
vt 0.45856917 0.6098685
vt 0.5120082 0.5537622
vt 0.43986475 0.5376189
vt 0.46678388 0.51993704
vt 0.5374718 0.47976518
vt 0.45610917 0.3930211
vt 0.59933805 0.57066965
vt 0.62368786 0.5123229
vt 0.6481185 0.6098685
vt 0.3537655 0.6874056
vt 0.42488575 0.6800592
vt 0.38486463 0.61382914
vt 0.2900216 0.68542314
vt 0.31718183 0.60575175
vt 0.3473574 0.54210377
vt 0.40935624 0.5075567
vt 0.2854784 0.5194292
vt 0.35032767 0.4909482
vt 0.35219908 0.45871925
vt 0.26393032 0.45060992
vt 0.26645523 0.44946337
vt 0.35109514 0.4470091
vt 0.34671634 0.4100144
vt 0.4248857 0.36387968
vt 0.26168346 0.44962025
vt 0.8411019 0.7899053
vt 0.7838191 0.78166175
vt 0.83817935 0.8318331
vt 0.89320564 0.81448936
vt 0.9037658 0.86935806
vt 0.9019189 0.7845733
vt 0.9037658 0.6827538
vt 0.7884561 0.7465446
vt 0.81633425 0.6499436
vt 0.43258637 0.032122433
vt 0.31396526 0.0036391318
vt 0.37069082 0.083407134
vt 0.4106114 0.110140175
vt 0.3962828 0.1806409
vt 0.2999698 0.19097976
vt 0.33613086 0.27186844
vt 0.38626117 0.26024532
vt 0.43258643 0.35557207
vt 0.2993983 0.3566014
vt 0.29970932 0.26645625
vt 0.2754557 0.26274022
vt 0.26168334 0.30305636
vt 0.16784751 0.7458852
vt 0.25242734 0.74616045
vt 0.21857738 0.7013248
vt 0.15136826 0.6648097
vt 0.20250392 0.599566
vt 0.25242734 0.59194356
vt 0.24932039 0.52717614
vt 0.21102023 0.5229885
vt 0.39318585 0.8693485
vt 0.3927164 0.9197998
vt 0.42848969 0.88240623
vt 0.42848969 0.9918647
vt 0.83725333 0.6245022
vt 0.8650172 0.6323495
vt 0.8650451 0.6158414
vt 0.83196056 0.59984875
vt 0.8545023 0.56402636
vt 0.8123895 0.57854414
vt 0.80810034 0.60399294
vt 0.8041513 0.6323495
vt 0.843976 0.89337015
vt 0.8063984 0.87663627
vt 0.7838192 0.8929435
vt 0.843976 0.9753927
vt 0.7871585 0.9748901
vt 0.6933649 0.052872658
vt 0.72706753 0.015985489
vt 0.6669389 0.0036392212
vt 0.6074452 0.014723778
vt 0.59009033 0.09092951
vt 0.6934568 0.09343052
vt 0.74957585 0.05772066
vt 0.7141083 0.138731
vt 0.63362813 0.15272665
vt 0.70400053 0.16181803
vt 0.66698974 0.2426033
vt 0.7129891 0.20186234
vt 0.72678816 0.19093657
vt 0.7296377 0.2760334
vt 0.7495758 0.22005558
vt 0.55891633 0.9662305
vt 0.61143947 0.9757911
vt 0.5922339 0.9015738
vt 0.5442295 0.9060155
vt 0.54845953 0.88612115
vt 0.56860304 0.8587924
vt 0.58318543 0.83391297
vt 0.61143947 0.8425299
vt 0.58281195 0.34121418
vt 0.51290727 0.3570695
vt 0.53652984 0.38574266
vt 0.5640419 0.2506776
vt 0.49579954 0.26056576
vt 0.48622772 0.3470602
vt 0.49326953 0.16512108
vt 0.54634494 0.1373272
vt 0.43986475 0.1499219
vt 0.47888508 0.13418627
vt 0.53810287 0.12372589
vt 0.45689094 0.08685875
vt 0.5121323 0.08250618
vt 0.49097848 0.0036392212
vt 0.57778907 0.02139616
vt 0.58281195 0.084019184
vt 0.56546235 0.15651321
vt 0.7765409 0.6499436
vt 0.7361802 0.69964933
vt 0.77622354 0.7437546
vt 0.67653656 0.7371383
vt 0.77654094 0.8337269
vt 0.6879344 0.8361132
vt 0.6553969 0.86943746
vt 0.70291305 0.8868731
vt 0.65539694 0.971077
vt 0.71013117 0.971077
vt 0.67677927 0.8767158
vt 0.8090407 0.32149696
vt 0.84102654 0.36681628
vt 0.84441555 0.3240695
vt 0.8116953 0.36468315
vt 0.7733887 0.3215344
vt 0.7866004 0.288234
vt 0.7821007 0.36681628
vt 0.14011115 0.8014283
vt 0.12317091 0.8358741
vt 0.1353504 0.8443204
vt 0.12005818 0.878158
vt 0.14011115 0.9034114
vt 0.9476197 0.92587113
vt 0.9110441 0.9448347
vt 0.9110441 0.99636084
vt 0.9476197 0.98801386
vt 0.87031114 0.39302105
vt 0.9275825 0.415932
vt 0.9168987 0.39369053
vt 0.856012 0.4729281
vt 0.8182663 0.42019266
vt 0.9253888 0.4796664
vt 0.8041513 0.45412713
vt 0.9275825 0.55208296
vt 0.8889886 0.5567482
vt 0.8193766 0.21626759
vt 0.8036128 0.23882651
vt 0.873227 0.2804551
vt 0.75685394 0.12812448
vt 0.773309 0.25874615
vt 0.8158251 0.13588381
vt 0.85866606 0.13524365
vt 0.873227 0.06848431
vt 0.791224 0.053290367
vt 0.7641256 0.055696964
vt 0.7682109 0.015006065
vt 0.8140278 0.0036392212
vt 0.81470394 0.053386927
vt 0.5175346 0.97618496
vt 0.5369512 0.9629216
vt 0.4913391 0.9509202
vt 0.5369512 0.8692274
vt 0.45981216 0.9219352
vt 0.44022834 0.8757967
vt 0.53517056 0.83391285
vt 0.43986475 0.90867615
vt 0.5900903 0.28797352
vt 0.62745833 0.35935897
vt 0.6769434 0.28331167
vt 0.68067384 0.28600973
vt 0.62803996 0.36523026
vt 0.68067384 0.38036174
vt 0.6286705 0.7095578
vt 0.6337411 0.7133043
vt 0.6337411 0.6171466
vt 0.6284676 0.62174
vt 0.14408994 0.5304086
vt 0.14407027 0.52298856
vt 0.0575552 0.5249157
vt 0.060165763 0.5318036
vt 0.017217755 0.5475795
vt 0.024039268 0.5512183
vt 0.003639102 0.62869143
vt 0.011310577 0.6288619
vt 0.050047874 0.75683355
vt 0.05604267 0.75208044
vt 0.14408994 0.7941501
vt 0.14408052 0.7870438
vt 0.94373345 0.29501605
vt 0.89322567 0.34452772
vt 0.9636524 0.34466767
vt 0.8805053 0.26835656
vt 0.92145467 0.23793936
vt 0.93056273 0.19030094
vt 0.9636524 0.2190423
vt 0.15136838 0.8828293
vt 0.18459916 0.8790581
vt 0.18772888 0.8523823
vt 0.249897 0.8515595
vt 0.24964237 0.87351906
vt 0.249897 0.9400712
vt 0.22085428 0.7534387
vt 0.17005515 0.7760277
vt 0.9802589 0.48951614
vt 0.93486077 0.43969166
vt 0.9363083 0.52018106
vt 0.9802589 0.393021
vt 0.6138434 0.7517505
vt 0.6211893 0.6171466
vt 0.6151098 0.6220794
vt 0.6211893 0.7543088
vt 0.5424597 0.81211025
vt 0.5444716 0.8262756
vt 0.48040593 0.77715325
vt 0.47013938 0.8266345
vt 0.47360125 0.7733006
vt 0.46921778 0.7773157
vt 0.44773105 0.77827287
vt 0.43986472 0.8160236
vt 0.46746588 0.6835647
vt 0.030359745 0.847517
vt 0.112780094 0.868281
vt 0.112780094 0.8014283
vt 0.022153854 0.86572623
vt 0.0068712234 0.8606516
vt 0.0036392212 0.9245527
vt 0.111730576 0.8989171
vt 0.014655113 0.9122443
vt 0.053132057 0.90880775
vt 0.07515764 0.92811567
vt 0.09974432 0.9358761
vt 0.032277107 0.9102699
vt 0.04845476 0.93554854
vt 0.028409481 0.9385146
vt 0.012401581 0.948142
vt 0.88494706 0.9226029
vt 0.8577864 0.9509256
vt 0.87466 0.9560555
vt 0.8970885 0.9206567
vt 0.882169 0.87921387
vt 0.8970885 0.87663627
vt 0.86154366 0.8830234
vt 0.86712503 0.92085326
vt 0.8512542 0.9104985
vt 0.7661104 0.35277665
vt 0.68795204 0.34717986
vt 0.7285374 0.3803617
vt 0.72703123 0.3177069
vt 0.7661104 0.28823394
vt 0.69608253 0.30455917
vt 0.73109645 0.29639655
vt 0.67792726 0.64156044
vt 0.7968731 0.64266527
vt 0.72660685 0.52130425
vt 0.6553967 0.5478516
vt 0.68288445 0.42728168
vt 0.7479801 0.43047652
vt 0.7372756 0.40265682
vt 0.7968731 0.393021
vt 0.3081553 0.86096895
vt 0.26168334 0.75789654
vt 0.26812422 0.85728633
vt 0.34041262 0.7695457
vt 0.33541918 0.6946839
vt 0.3948456 0.73062575
vt 0.3948456 0.8140665
vt 0.39473712 0.86206996
vt 0.8805054 0.0036392212
vt 0.9801983 0.08590722
vt 0.9801983 0.00670743
vt 0.8874839 0.057162046
vt 0.9081686 0.10700607
vt 0.8906271 0.11667371
vt 0.9782284 0.13529897
vt 0.96848243 0.18069983
vt 0.97430557 0.18302274
vt 0.9110441 0.76331913
vt 0.9639616 0.8001498
vt 0.9656298 0.79412675
vt 0.930436 0.7378639
vt 0.9656298 0.69657063
vt 0.9209312 0.6499436
vt 0.93157876 0.5800752
vt 0.90383935 0.5640264
vt 0.93157876 0.6334191
vt 0.8727588 0.6273424
vt 0.8723235 0.58724254
vt 0.9388571 0.63908076
vt 0.9780266 0.63908076
vt 0.96788716 0.5860343
vt 0.94412255 0.5640266
vt 0.31773514 0.8753247
vt 0.26274544 0.8693483
vt 0.2708798 0.92137074
vt 0.3170637 0.90850973
vt 0.2861817 0.94313264
vt 0.3168773 0.9501102
vt 0.26168346 0.9447961
vt 0.31773514 0.987437
vt 0.27583432 0.9821174
vt 0.93716276 0.87058735
vt 0.9799932 0.91859293
vt 0.95343685 0.89970946
vt 0.9427136 0.89419115
vt 0.93181825 0.89648974
vt 0.911044 0.8307359
vt 0.9316137 0.83232665
vt 0.9799932 0.80742836
vt 0.10851145 0.33349717
vt 0.1400299 0.3113687
vt 0.13080215 0.36262
vt 0.035931587 0.41149533
vt 0.024571896 0.32702982
vt 0.0050616264 0.3596238
vt 0.08769798 0.28441465
vt 0.17019081 0.20653963
vt 0.08456516 0.4494164
vt 0.083266735 0.49250197
vt 0.042717457 0.51571035
vt 0.13373709 0.4635235
vt 0.21156597 0.41879463
vt 0.21291876 0.3210987
vt 0.19684744 0.2890222
vt 0.25440502 0.39410865
vt 0.13946295 0.16356409
vt 0.15124083 0.07156634
vt 0.19101858 0.09412408
vt 0.07759905 0.16957974
vt 0.05247307 0.23621142
vt 0.0036392212 0.30024278
vt 0.2229681 0.026929379
vt 0.25050545 0.022252083
vt 0.22280836 0.003639102
vt 0.25440502 0.07686579
vt 0.22743464 0.10261488
vt 0.45856917 0.6098685
vt 0.43986475 0.5376189
vt 0.5120082 0.5537622
vt 0.46678388 0.51993704
vt 0.5374718 0.47976518
vt 0.45610917 0.3930211
vt 0.59933805 0.57066965
vt 0.62368786 0.5123229
vt 0.6481185 0.6098685
vt 0.3537655 0.6874056
vt 0.38486463 0.61382914
vt 0.42488575 0.6800592
vt 0.2900216 0.68542314
vt 0.31718183 0.60575175
vt 0.3473574 0.54210377
vt 0.40935624 0.5075567
vt 0.2854784 0.5194292
vt 0.35032767 0.4909482
vt 0.35219908 0.45871925
vt 0.26393032 0.45060992
vt 0.26645523 0.44946337
vt 0.35109514 0.4470091
vt 0.34671634 0.4100144
vt 0.4248857 0.36387968
vt 0.26168346 0.44962025
vt 0.8411019 0.7899053
vt 0.83817935 0.8318331
vt 0.7838191 0.78166175
vt 0.89320564 0.81448936
vt 0.9037658 0.86935806
vt 0.9019189 0.7845733
vt 0.9037658 0.6827538
vt 0.7884561 0.7465446
vt 0.81633425 0.6499436
vt 0.43258637 0.032122433
vt 0.37069082 0.083407134
vt 0.31396526 0.0036391318
vt 0.4106114 0.110140175
vt 0.3962828 0.1806409
vt 0.2999698 0.19097976
vt 0.33613086 0.27186844
vt 0.38626117 0.26024532
vt 0.43258643 0.35557207
vt 0.2993983 0.3566014
vt 0.29970932 0.26645625
vt 0.2754557 0.26274022
vt 0.26168334 0.30305636
vt 0.16784751 0.7458852
vt 0.21857738 0.7013248
vt 0.25242734 0.74616045
vt 0.15136826 0.6648097
vt 0.20250392 0.599566
vt 0.25242734 0.59194356
vt 0.24932039 0.52717614
vt 0.21102023 0.5229885
vt 0.39318585 0.8693485
vt 0.42848969 0.88240623
vt 0.3927164 0.9197998
vt 0.42848969 0.9918647
vt 0.83725333 0.6245022
vt 0.8650451 0.6158414
vt 0.8650172 0.6323495
vt 0.83196056 0.59984875
vt 0.8545023 0.56402636
vt 0.8123895 0.57854414
vt 0.80810034 0.60399294
vt 0.8041513 0.6323495
vt 0.843976 0.89337015
vt 0.7838192 0.8929435
vt 0.8063984 0.87663627
vt 0.843976 0.9753927
vt 0.7871585 0.9748901
vt 0.6933649 0.052872658
vt 0.6669389 0.0036392212
vt 0.72706753 0.015985489
vt 0.6074452 0.014723778
vt 0.59009033 0.09092951
vt 0.6934568 0.09343052
vt 0.74957585 0.05772066
vt 0.7141083 0.138731
vt 0.63362813 0.15272665
vt 0.70400053 0.16181803
vt 0.66698974 0.2426033
vt 0.7129891 0.20186234
vt 0.72678816 0.19093657
vt 0.7296377 0.2760334
vt 0.7495758 0.22005558
vt 0.55891633 0.9662305
vt 0.5922339 0.9015738
vt 0.61143947 0.9757911
vt 0.5442295 0.9060155
vt 0.54845953 0.88612115
vt 0.56860304 0.8587924
vt 0.58318543 0.83391297
vt 0.61143947 0.8425299
vt 0.58281195 0.34121418
vt 0.53652984 0.38574266
vt 0.51290727 0.3570695
vt 0.5640419 0.2506776
vt 0.49579954 0.26056576
vt 0.48622772 0.3470602
vt 0.49326953 0.16512108
vt 0.54634494 0.1373272
vt 0.43986475 0.1499219
vt 0.47888508 0.13418627
vt 0.53810287 0.12372589
vt 0.45689094 0.08685875
vt 0.5121323 0.08250618
vt 0.49097848 0.0036392212
vt 0.57778907 0.02139616
vt 0.58281195 0.084019184
vt 0.56546235 0.15651321
vt 0.7765409 0.6499436
vt 0.77622354 0.7437546
vt 0.7361802 0.69964933
vt 0.67653656 0.7371383
vt 0.77654094 0.8337269
vt 0.6879344 0.8361132
vt 0.6553969 0.86943746
vt 0.70291305 0.8868731
vt 0.71013117 0.971077
vt 0.65539694 0.971077
vt 0.67677927 0.8767158
vt 0.8090407 0.32149696
vt 0.84441555 0.3240695
vt 0.84102654 0.36681628
vt 0.8116953 0.36468315
vt 0.7733887 0.3215344
vt 0.7866004 0.288234
vt 0.7821007 0.36681628
vt 0.14011115 0.8014283
vt 0.1353504 0.8443204
vt 0.12317091 0.8358741
vt 0.12005818 0.878158
vt 0.14011115 0.9034114
vt 0.9476197 0.92587113
vt 0.9476197 0.98801386
vt 0.9110441 0.99636084
vt 0.9110441 0.9448347
vt 0.87031114 0.39302105
vt 0.9168987 0.39369053
vt 0.9275825 0.415932
vt 0.856012 0.4729281
vt 0.8182663 0.42019266
vt 0.9253888 0.4796664
vt 0.8041513 0.45412713
vt 0.9275825 0.55208296
vt 0.8889886 0.5567482
vt 0.8193766 0.21626759
vt 0.873227 0.2804551
vt 0.8036128 0.23882651
vt 0.75685394 0.12812448
vt 0.773309 0.25874615
vt 0.8158251 0.13588381
vt 0.85866606 0.13524365
vt 0.873227 0.06848431
vt 0.791224 0.053290367
vt 0.7641256 0.055696964
vt 0.7682109 0.015006065
vt 0.8140278 0.0036392212
vt 0.81470394 0.053386927
vt 0.5175346 0.97618496
vt 0.4913391 0.9509202
vt 0.5369512 0.9629216
vt 0.5369512 0.8692274
vt 0.45981216 0.9219352
vt 0.44022834 0.8757967
vt 0.53517056 0.83391285
vt 0.43986475 0.90867615
vt 0.5900903 0.28797352
vt 0.6769434 0.28331167
vt 0.62745833 0.35935897
vt 0.68067384 0.28600973
vt 0.62803996 0.36523026
vt 0.68067384 0.38036174
vt 0.6286705 0.7095578
vt 0.6284676 0.62174
vt 0.6337411 0.6171466
vt 0.6337411 0.7133043
vt 0.14408994 0.5304086
vt 0.0575552 0.5249157
vt 0.14407027 0.52298856
vt 0.060165763 0.5318036
vt 0.017217755 0.5475795
vt 0.024039268 0.5512183
vt 0.003639102 0.62869143
vt 0.011310577 0.6288619
vt 0.050047874 0.75683355
vt 0.05604267 0.75208044
vt 0.14408994 0.7941501
vt 0.14408052 0.7870438
vt 0.94373345 0.29501605
vt 0.9636524 0.34466767
vt 0.89322567 0.34452772
vt 0.8805053 0.26835656
vt 0.92145467 0.23793936
vt 0.93056273 0.19030094
vt 0.9636524 0.2190423
vt 0.15136838 0.8828293
vt 0.18772888 0.8523823
vt 0.18459916 0.8790581
vt 0.249897 0.8515595
vt 0.24964237 0.87351906
vt 0.249897 0.9400712
vt 0.22085428 0.7534387
vt 0.17005515 0.7760277
vt 0.9802589 0.48951614
vt 0.9363083 0.52018106
vt 0.93486077 0.43969166
vt 0.9802589 0.393021
vt 0.6138434 0.7517505
vt 0.6151098 0.6220794
vt 0.6211893 0.6171466
vt 0.6211893 0.7543088
vt 0.5424597 0.81211025
vt 0.5444716 0.8262756
vt 0.48040593 0.77715325
vt 0.47013938 0.8266345
vt 0.47360125 0.7733006
vt 0.46921778 0.7773157
vt 0.44773105 0.77827287
vt 0.43986472 0.8160236
vt 0.46746588 0.6835647
vt 0.030359745 0.847517
vt 0.112780094 0.8014283
vt 0.112780094 0.868281
vt 0.022153854 0.86572623
vt 0.0068712234 0.8606516
vt 0.0036392212 0.9245527
vt 0.111730576 0.8989171
vt 0.014655113 0.9122443
vt 0.053132057 0.90880775
vt 0.07515764 0.92811567
vt 0.09974432 0.9358761
vt 0.032277107 0.9102699
vt 0.04845476 0.93554854
vt 0.028409481 0.9385146
vt 0.012401581 0.948142
vt 0.88494706 0.9226029
vt 0.87466 0.9560555
vt 0.8577864 0.9509256
vt 0.8970885 0.9206567
vt 0.882169 0.87921387
vt 0.8970885 0.87663627
vt 0.86154366 0.8830234
vt 0.86712503 0.92085326
vt 0.8512542 0.9104985
vt 0.7661104 0.35277665
vt 0.7285374 0.3803617
vt 0.68795204 0.34717986
vt 0.72703123 0.3177069
vt 0.7661104 0.28823394
vt 0.69608253 0.30455917
vt 0.73109645 0.29639655
vt 0.67792726 0.64156044
vt 0.72660685 0.52130425
vt 0.7968731 0.64266527
vt 0.6553967 0.5478516
vt 0.68288445 0.42728168
vt 0.7479801 0.43047652
vt 0.7372756 0.40265682
vt 0.7968731 0.393021
vt 0.3081553 0.86096895
vt 0.26812422 0.85728633
vt 0.26168334 0.75789654
vt 0.34041262 0.7695457
vt 0.33541918 0.6946839
vt 0.3948456 0.73062575
vt 0.3948456 0.8140665
vt 0.39473712 0.86206996
vt 0.8805054 0.0036392212
vt 0.9801983 0.00670743
vt 0.9801983 0.08590722
vt 0.8874839 0.057162046
vt 0.9081686 0.10700607
vt 0.8906271 0.11667371
vt 0.9782284 0.13529897
vt 0.96848243 0.18069983
vt 0.97430557 0.18302274
vt 0.9110441 0.76331913
vt 0.9656298 0.79412675
vt 0.9639616 0.8001498
vt 0.930436 0.7378639
vt 0.9656298 0.69657063
vt 0.9209312 0.6499436
vt 0.93157876 0.5800752
vt 0.93157876 0.6334191
vt 0.90383935 0.5640264
vt 0.8727588 0.6273424
vt 0.8723235 0.58724254
vt 0.9388571 0.63908076
vt 0.94412255 0.5640266
vt 0.96788716 0.5860343
vt 0.9780266 0.63908076
vt 0.31773514 0.8753247
vt 0.2708798 0.92137074
vt 0.26274544 0.8693483
vt 0.3170637 0.90850973
vt 0.2861817 0.94313264
vt 0.3168773 0.9501102
vt 0.26168346 0.9447961
vt 0.31773514 0.987437
vt 0.27583432 0.9821174
vn -0.0009871095 -0.93348366 0.13892521
vn 0.00028459996 -0.9430271 0.2252698
vn 0.2999226 -0.85015285 -0.28878507
vn 0.5291592 0.609257 -0.5825532
vn 0.57564497 -0.24761428 -0.7000679
vn 0.26882252 -0.025737599 -0.92629486
vn 0.6844899 -0.48559022 0.5302007
vn 0.45929387 -0.52895594 -0.6796757
vn 0.60067576 -0.11995196 -0.71987075
vn 0.0019214461 -0.086761326 -0.96996975
vn 0.003635227 -0.9743733 -0.11006673
vn 0.46907344 -0.8640092 -0.07703809
vn 0.51402193 -0.11447199 0.8134093
vn 0.0048449254 -0.25765136 0.93278635
vn 0.008567109 -0.14616603 0.95794064
vn -0.12851876 0.833377 -0.5375546
vn 0.5620061 0.5824844 -0.58724827
vn 0.8475901 0.5259323 -0.07061118
vn -0.0009871095 -0.93348366 0.13892521
vn -0.3020487 -0.8694295 -0.24842632
vn 0.00028459996 -0.9430271 0.2252698
vn -0.5291725 0.78213906 0.3073036
vn -0.26881605 0.5193582 -0.75516
vn -0.5788841 0.16933343 -0.7310484
vn -0.6844811 -0.6974724 -0.1638217
vn -0.6036022 0.43738014 -0.5948659
vn -0.45927814 0.19816585 -0.8349425
vn 0.0019214461 -0.086761326 -0.96996975
vn -0.46239558 -0.8675431 -0.07929945
vn 0.003635227 -0.9743733 -0.11006673
vn -0.5125756 -0.018909492 0.81527984
vn 0.008567109 -0.14616603 0.95794064
vn 0.0048449254 -0.25765136 0.93278635
vn 0.07878957 -0.9929514 0.088539094
vn -0.8649819 -0.45704174 -0.20716907
vn -0.60567296 -0.76154375 0.23067571
vn -0.74788725 -0.63964003 -0.177553
vn -0.83764905 0.36695036 -0.40458757
vn -0.24615824 0.16160086 -0.9556625
vn -0.97117066 0.081089154 -0.22416928
vn -0.4686538 -0.42548424 -0.7741618
vn -0.09628208 -0.70863724 -0.6989725
vn -0.9139307 -0.22622208 -0.33697778
vn -0.5632463 0.670749 0.4825442
vn 0.09073123 0.82978237 0.37254816
vn 0.41783884 0.7854948 0.27413762
vn 0.14034155 0.86139035 -0.17748514
vn 0.31553206 0.44359645 0.7691286
vn 0.47036812 0.42690915 0.7318099
vn 0.4356498 -0.14261696 0.8165623
vn 0.06393877 0.6615172 0.730735
vn -0.6187274 0.77804804 0.108706295
vn 0.2678171 0.7847914 0.46208894
vn 0.015293878 0.77523094 0.5545628
vn 0.016398879 0.38137537 0.8784306
vn 0.011749167 0.9070476 0.2981782
vn 0.0045883674 0.90463907 -0.0029043853
vn 0.26419988 0.4611075 0.69277215
vn 0.54287994 0.21438053 0.6567931
vn 0.026832996 0.6144816 0.6458468
vn -0.000107616186 0.922461 0.3860898
vn 0.5925088 0.6768097 0.43687725
vn -0.5632463 0.670749 0.4825442
vn 0.61634076 0.45329928 0.6439282
vn 0.7531867 -0.05568379 0.6542524
vn 0.873035 -0.23945594 0.39521116
vn 0.2599216 0.7436211 0.6160097
vn 0.0133873075 0.9822917 0.18687788
vn 0.8475901 0.5259323 -0.07061118
vn -0.6281602 0.5718599 0.5276274
vn -0.5629633 -0.05826783 0.82442516
vn 0.35975373 -0.7647862 -0.4375806
vn 0.341141 -0.07539803 -0.8683884
vn 0.66154927 -0.45047545 -0.5046499
vn 0.7892247 -0.36551073 -0.3896663
vn 0.63280123 -0.3243409 0.5473662
vn 0.21543293 -0.41047814 0.80642354
vn 0.14034155 0.86139035 -0.17748514
vn 0.54287994 0.21438053 0.6567931
vn 0.41783884 0.7854948 0.27413762
vn -0.62517357 -0.32528555 -0.7094696
vn -0.41221195 0.2914232 -0.8632228
vn -0.8737479 0.3566603 -0.33069324
vn -0.84876543 -0.52871084 -0.00785701
vn -0.4089876 -0.8126501 0.41512474
vn -0.95835173 -0.15250307 -0.24146415
vn -0.25989166 0.840008 -0.47628018
vn -0.6733524 -0.7215452 0.10903868
vn -0.9815348 0.16394106 -0.09536246
vn -0.7580628 0.08780339 -0.6335826
vn -0.20368057 -0.4558051 -0.8272816
vn -0.46117994 -0.16478042 -0.8405614
vn -0.5590599 -0.19105843 -0.7836701
vn -6.9803883E-07 -0.0005005598 -0.9648839
vn -0.0003280303 0.6429458 -0.7096755
vn -0.14175898 -0.021949604 -0.9558114
vn 0.2999226 -0.85015285 -0.28878507
vn 0.00028459996 -0.9430271 0.2252698
vn 0.118778184 -0.9593837 -0.050224245
vn 0.66154927 -0.45047545 -0.5046499
vn 0.35975373 -0.7647862 -0.4375806
vn 0.7892247 -0.36551073 -0.3896663
vn 0.21543293 -0.41047814 0.80642354
vn -0.0009871095 -0.93348366 0.13892521
vn 4.5015954E-06 -0.58463305 0.748683
vn 0.5265869 0.32798502 -0.78430307
vn 0.94665945 -0.28877312 -0.14298883
vn 0.9902151 0.13653997 0.028825156
vn 0.38494477 0.6903891 -0.612519
vn 0.8081602 0.4617088 -0.36565214
vn 0.8033038 -0.56847656 0.17758872
vn 0.98167044 0.16283315 -0.09874019
vn 0.5291592 0.609257 -0.5825532
vn 0.57564497 -0.24761428 -0.7000679
vn 0.60067576 -0.11995196 -0.71987075
vn 0.9842533 -0.11045876 0.13749158
vn 0.7578986 -0.555049 0.33466685
vn 0.6844899 -0.48559022 0.5302007
vn 0.5291592 0.609257 -0.5825532
vn -0.7580628 0.08780339 -0.6335826
vn -0.25989166 0.840008 -0.47628018
vn 0.8081602 0.4617088 -0.36565214
vn 0.38494477 0.6903891 -0.612519
vn -0.8737479 0.3566603 -0.33069324
vn -0.41221195 0.2914232 -0.8632228
vn 0.5265869 0.32798502 -0.78430307
vn 0.4356498 -0.14261696 0.8165623
vn 0.47036812 0.42690915 0.7318099
vn 0.873035 -0.23945594 0.39521116
vn 0.06393877 0.6615172 0.730735
vn 0.5368695 -0.82751006 0.12198726
vn 0.0039499337 -0.9875537 0.02455087
vn 0.0048744385 -0.95362025 -0.26764622
vn 0.47447136 -0.8788058 -0.023873575
vn 0.0027133299 -0.87174284 0.4899559
vn 0.57516176 -0.74534297 0.33712402
vn 0.74441904 -0.6632795 -0.03760477
vn 0.91794145 -0.38047996 0.09128524
vn 0.4376951 -0.36384147 0.7510866
vn 0.51402193 -0.11447199 0.8134093
vn 0.008567109 -0.14616603 0.95794064
vn 0.31553206 0.44359645 0.7691286
vn 0.016398879 0.38137537 0.8784306
vn 0.4376951 -0.36384147 0.7510866
vn 0.31553206 0.44359645 0.7691286
vn 0.4356498 -0.14261696 0.8165623
vn 0.873035 -0.23945594 0.39521116
vn 0.6689938 -0.67670476 -0.27786887
vn 0.23835276 -0.86249965 0.29644397
vn 0.51402193 -0.11447199 0.8134093
vn 0.7058854 -0.62770456 0.24218933
vn 0.35975373 -0.7647862 -0.4375806
vn 0.60015655 -0.7449033 0.1546772
vn 0.118778184 -0.9593837 -0.050224245
vn -0.06611331 -0.9147568 0.30944717
vn 0.5002235 -0.59332776 -0.58472157
vn 0.00028459996 -0.9430271 0.2252698
vn -0.0025997073 -0.7620095 -0.6059879
vn -0.09628208 -0.70863724 -0.6989725
vn 0.88778883 -0.32462507 -0.32626545
vn 0.48730624 -0.20396893 -0.84907526
vn -0.4686538 -0.42548424 -0.7741618
vn -0.83764905 0.36695036 -0.40458757
vn -0.24615824 0.16160086 -0.9556625
vn -0.12851876 0.833377 -0.5375546
vn 0.5620061 0.5824844 -0.58724827
vn 0.48730624 -0.20396893 -0.84907526
vn 0.8475901 0.5259323 -0.07061118
vn 0.5620061 0.5824844 -0.58724827
vn 0.88778883 -0.32462507 -0.32626545
vn 0.5925088 0.6768097 0.43687725
vn 0.2599216 0.7436211 0.6160097
vn 0.95638615 -0.060158342 0.28584278
vn 0.64310443 -0.7643731 -0.04636705
vn 0.61634076 0.45329928 0.6439282
vn 0.8189101 -0.32852674 0.47059113
vn 0.519706 -0.8496812 0.08914536
vn 0.7531867 -0.05568379 0.6542524
vn 0.88133174 -0.4674492 -0.06888607
vn 0.873035 -0.23945594 0.39521116
vn 0.6689938 -0.67670476 -0.27786887
vn 0.40367928 -0.49148843 -0.77167463
vn 0.13153908 -0.8055457 -0.57774836
vn -0.9139307 -0.22622208 -0.33697778
vn -0.861309 0.37292007 -0.34507534
vn -0.67380995 -0.17139277 -0.718752
vn -0.6187274 0.77804804 0.108706295
vn 0.341141 -0.07539803 -0.8683884
vn 0.14034155 0.86139035 -0.17748514
vn 0.09073123 0.82978237 0.37254816
vn -0.09628208 -0.70863724 -0.6989725
vn -0.67380995 -0.17139277 -0.718752
vn -0.009063199 -0.84931374 -0.5278102
vn -0.9139307 -0.22622208 -0.33697778
vn -0.12851876 0.833377 -0.5375546
vn -0.7428796 0.10289335 -0.6614697
vn -0.24615824 0.16160086 -0.9556625
vn -0.7370795 0.64021933 -0.21640816
vn 0.0133873075 0.9822917 0.18687788
vn 0.8475901 0.5259323 -0.07061118
vn -0.6281602 0.5718599 0.5276274
vn -0.8049776 -0.591524 -0.045939267
vn -0.24560148 -0.42289728 0.87226
vn -0.06765987 -0.98985755 -0.12491685
vn 0.27095363 -0.49159917 0.82759523
vn 0.61922777 -0.7827244 -0.0624443
vn -0.24615824 0.16160086 -0.9556625
vn -0.7428796 0.10289335 -0.6614697
vn -0.8265846 -0.5590409 -0.06504442
vn -0.74788725 -0.63964003 -0.177553
vn -0.06765987 -0.98985755 -0.12491685
vn -0.84876543 -0.52871084 -0.00785701
vn -0.8049776 -0.591524 -0.045939267
vn 0.04671885 -0.5121169 -0.85764396
vn 0.61922777 -0.7827244 -0.0624443
vn -0.62517357 -0.32528555 -0.7094696
vn 0.94665945 -0.28877312 -0.14298883
vn -0.41221195 0.2914232 -0.8632228
vn 0.5265869 0.32798502 -0.78430307
vn -0.4089876 -0.8126501 0.41512474
vn 0.46019712 -0.4847445 0.743802
vn -0.84876543 -0.52871084 -0.00785701
vn 0.8033038 -0.56847656 0.17758872
vn 0.9902151 0.13653997 0.028825156
vn 0.032368284 -0.9569594 0.28841037
vn -0.6733524 -0.7215452 0.10903868
vn -0.20368057 -0.4558051 -0.8272816
vn 0.36599496 -0.855973 0.33672673
vn 0.7578986 -0.555049 0.33466685
vn 0.6844899 -0.48559022 0.5302007
vn 0.45929387 -0.52895594 -0.6796757
vn 0.019992374 -0.9413641 0.27438033
vn -0.8049776 -0.591524 -0.045939267
vn -0.84876543 -0.52871084 -0.00785701
vn -0.24560148 -0.42289728 0.87226
vn 0.46019712 -0.4847445 0.743802
vn 0.27095363 -0.49159917 0.82759523
vn 0.94665945 -0.28877312 -0.14298883
vn 0.9902151 0.13653997 0.028825156
vn 0.61922777 -0.7827244 -0.0624443
vn 0.5291592 0.609257 -0.5825532
vn 0.26882252 -0.025737599 -0.92629486
vn -0.7580628 0.08780339 -0.6335826
vn -0.5590599 -0.19105843 -0.7836701
vn -0.07925301 0.27451885 -0.91819733
vn -0.0003280303 0.6429458 -0.7096755
vn 0.57564497 -0.24761428 -0.7000679
vn 0.7647379 0.37278593 -0.46212602
vn -0.07925301 0.27451885 -0.91819733
vn 0.26882252 -0.025737599 -0.92629486
vn 0.026832996 0.6144816 0.6458468
vn 0.028994143 0.27049476 0.8480679
vn 0.22513099 0.49335548 0.6816269
vn 0.26419988 0.4611075 0.69277215
vn 0.59152555 0.2697312 0.61728036
vn 0.54287994 0.21438053 0.6567931
vn 0.5933679 -0.20420048 0.6370553
vn 0.63280123 -0.3243409 0.5473662
vn 0.501889 -0.5293223 0.60920805
vn 0.21543293 -0.41047814 0.80642354
vn 5.9059275E-06 -0.7819777 0.5410085
vn 4.5015954E-06 -0.58463305 0.748683
vn 0.40367928 -0.49148843 -0.77167463
vn 0.35975373 -0.7647862 -0.4375806
vn 0.6689938 -0.67670476 -0.27786887
vn 0.341141 -0.07539803 -0.8683884
vn -0.2909789 -0.39752257 -0.8702339
vn -0.67380995 -0.17139277 -0.718752
vn 0.13153908 -0.8055457 -0.57774836
vn -0.67380995 -0.17139277 -0.718752
vn 0.13153908 -0.8055457 -0.57774836
vn -0.009063199 -0.84931374 -0.5278102
vn 0.64310443 -0.7643731 -0.04636705
vn 0.519706 -0.8496812 0.08914536
vn 0.88133174 -0.4674492 -0.06888607
vn 0.88778883 -0.32462507 -0.32626545
vn -0.09628208 -0.70863724 -0.6989725
vn -0.5632463 0.670749 0.4825442
vn -0.861309 0.37292007 -0.34507534
vn -0.9139307 -0.22622208 -0.33697778
vn -0.6187274 0.77804804 0.108706295
vn 0.60067576 -0.11995196 -0.71987075
vn 0.7647379 0.37278593 -0.46212602
vn 0.57564497 -0.24761428 -0.7000679
vn 0.8881384 -0.17625862 -0.36655605
vn 0.45929387 -0.52895594 -0.6796757
vn 0.8871307 -0.085561365 -0.43430084
vn -0.20368057 -0.4558051 -0.8272816
vn 0.270009 0.6697324 -0.6389588
vn -0.46117994 -0.16478042 -0.8405614
vn -0.14175898 -0.021949604 -0.9558114
vn -6.8949845E-07 0.02350752 -0.9660776
vn -5.180189E-06 0.5800033 -0.76779413
vn -6.9803883E-07 -0.0005005598 -0.9648839
vn 0.7058854 -0.62770456 0.24218933
vn 0.7276996 0.08508599 0.65935
vn 0.51402193 -0.11447199 0.8134093
vn 0.9751057 -0.0048319846 0.20571862
vn 0.60015655 -0.7449033 0.1546772
vn 0.92581874 -0.299863 -0.20534113
vn 0.8477786 -0.06680276 0.5221645
vn 0.83304846 -0.13327767 0.525084
vn 0.91794145 -0.38047996 0.09128524
vn 0.74441904 -0.6632795 -0.03760477
vn 0.57516176 -0.74534297 0.33712402
vn 0.8623395 -0.2960345 0.39839268
vn 0.5368695 -0.82751006 0.12198726
vn 0.48203957 -0.70831925 0.497237
vn 0.36507875 -0.59573376 0.6972852
vn 0.36507875 -0.59573376 0.6972852
vn 0.83304846 -0.13327767 0.525084
vn 0.92581874 -0.299863 -0.20534113
vn 0.46907344 -0.8640092 -0.07703809
vn 0.0010282757 -0.7576833 0.62770164
vn 0.003635227 -0.9743733 -0.11006673
vn 0.0039499337 -0.9875537 0.02455087
vn 0.48203957 -0.70831925 0.497237
vn 0.5368695 -0.82751006 0.12198726
vn 0.92581874 -0.299863 -0.20534113
vn 0.0019214461 -0.086761326 -0.96996975
vn 0.46907344 -0.8640092 -0.07703809
vn 0.35527545 0.23581083 -0.8686901
vn 0.60015655 -0.7449033 0.1546772
vn -0.0025997073 -0.7620095 -0.6059879
vn 0.5002235 -0.59332776 -0.58472157
vn 0.59152555 0.2697312 0.61728036
vn 0.7647379 0.37278593 -0.46212602
vn 0.8881384 -0.17625862 -0.36655605
vn 0.5933679 -0.20420048 0.6370553
vn 0.501889 -0.5293223 0.60920805
vn 0.8871307 -0.085561365 -0.43430084
vn 0.70693064 -0.6573824 0.14425848
vn 0.8212634 0.091824435 -0.53725153
vn 0.22513099 0.49335548 0.6816269
vn 0.7647379 0.37278593 -0.46212602
vn 0.59152555 0.2697312 0.61728036
vn 0.030172523 0.8661324 -0.31046197
vn -0.07925301 0.27451885 -0.91819733
vn -0.0003280303 0.6429458 -0.7096755
vn 0.010174107 0.9016545 0.14180088
vn 0.028994143 0.27049476 0.8480679
vn 0.501889 -0.5293223 0.60920805
vn 6.775464E-06 -0.95820165 0.0045665056
vn 5.9059275E-06 -0.7819777 0.5410085
vn 0.70693064 -0.6573824 0.14425848
vn 0.44621798 -0.84111285 -0.1468645
vn 0.8212634 0.091824435 -0.53725153
vn 7.0481146E-06 -0.90821195 -0.3016296
vn 0.45335186 0.10379824 -0.8484298
vn -1.0276269E-06 0.05432707 -0.95738155
vn -5.180189E-06 0.5800033 -0.76779413
vn -1.0276269E-06 0.05432707 -0.95738155
vn 0.45335186 0.10379824 -0.8484298
vn 0.270009 0.6697324 -0.6389588
vn 0.8212634 0.091824435 -0.53725153
vn 0.8871307 -0.085561365 -0.43430084
vn -0.7428796 0.10289335 -0.6614697
vn -0.7370795 0.64021933 -0.21640816
vn -0.8265846 -0.5590409 -0.06504442
vn -0.5629633 -0.05826783 0.82442516
vn -0.6281602 0.5718599 0.5276274
vn -0.74788725 -0.63964003 -0.177553
vn -0.8265846 -0.5590409 -0.06504442
vn -0.5629633 -0.05826783 0.82442516
vn -0.5632463 0.670749 0.4825442
vn 0.0048449254 -0.25765136 0.93278635
vn 0.51402193 -0.11447199 0.8134093
vn 0.7276996 0.08508599 0.65935
vn -0.0033365297 0.13650289 0.97475904
vn 0.3741492 -0.1255321 0.9179508
vn -0.001438564 -0.3168341 0.94475496
vn 0.8477786 -0.06680276 0.5221645
vn 0.0027133299 -0.87174284 0.4899559
vn 0.57516176 -0.74534297 0.33712402
vn 0.7571388 0.44651914 0.47682425
vn 0.19631913 -0.6001371 0.77543133
vn 0.8067023 -0.5527851 0.20894909
vn 0.9568254 -0.22251737 0.18700555
vn 0.4441403 -0.0075311065 0.89592546
vn 0.08413375 0.29542232 0.9516548
vn 0.903377 -0.0009332299 0.42884612
vn 0.5653651 -0.39435872 -0.72446096
vn -0.087527476 0.6767174 -0.5441407
vn -0.16141826 0.13421553 -0.79249185
vn -0.4143278 0.7582263 -0.10305563
vn -0.30886582 0.6616135 0.5517039
vn -0.4486159 0.793575 -0.20035534
vn -0.40727633 0.60198605 0.5468265
vn -0.047893874 0.65789104 -0.6296667
vn 0.6001242 -0.23103476 -0.6672987
vn -0.265473 0.83405423 0.2789447
vn 0.015293878 0.77523094 0.5545628
vn 0.016398879 0.38137537 0.8784306
vn 0.011749167 0.9070476 0.2981782
vn 0.0045883674 0.90463907 -0.0029043853
vn -0.25579566 0.30277514 0.80682796
vn -0.53270566 0.050939307 0.7305097
vn 0.026832996 0.6144816 0.6458468
vn -0.00878951 -0.28495705 -0.83627105
vn -0.59094316 -0.36584163 -0.71898955
vn 0.5653651 -0.39435872 -0.72446096
vn -0.59850794 0.34624946 -0.6120639
vn -0.72004724 0.64167327 -0.053053558
vn -0.8499923 0.37856087 0.32035732
vn -0.25243068 -0.35720038 -0.8992699
vn -0.033340745 -0.77990353 -0.6250111
vn -0.8649819 -0.45704174 -0.20716907
vn 0.63518214 -0.28908247 -0.71622306
vn 0.60240394 0.4090414 -0.6854158
vn -0.3646456 -0.6392368 0.5643951
vn -0.67011267 -0.5936273 -0.30853128
vn -0.37852585 -0.8283388 -0.078269035
vn -0.79604113 -0.4680579 -0.2875746
vn -0.628854 -0.47320902 0.51625997
vn -0.21492992 -0.8763503 0.31854644
vn -0.16141826 0.13421553 -0.79249185
vn -0.53270566 0.050939307 0.7305097
vn -0.4143278 0.7582263 -0.10305563
vn 0.625181 0.6175262 -0.47729474
vn 0.87373865 0.40279296 0.2726518
vn 0.41220352 0.90676796 0.088657856
vn 0.84877914 -0.111912996 -0.5167687
vn 0.40900898 -0.59462464 -0.6912441
vn 0.958356 0.19234659 -0.21012834
vn 0.25987017 0.70875865 0.65082955
vn 0.67337006 -0.42655575 -0.5863243
vn 0.9815312 0.15420942 0.1086321
vn 0.75806457 0.5810683 -0.25645643
vn 0.20368932 -0.07425536 -0.9323759
vn 0.4611858 0.1802791 -0.8291887
vn 0.5590691 0.5005437 -0.6232497
vn -6.9803883E-07 -0.0005005598 -0.9648839
vn -0.0003280303 0.6429458 -0.7096755
vn 0.14176412 0.34487298 -0.8824766
vn -0.3020487 -0.8694295 -0.24842632
vn -0.1187551 -0.9223954 0.13040096
vn 0.00028459996 -0.9430271 0.2252698
vn -0.67011267 -0.5936273 -0.30853128
vn -0.3646456 -0.6392368 0.5643951
vn -0.79604113 -0.4680579 -0.2875746
vn -0.21492992 -0.8763503 0.31854644
vn -0.0009871095 -0.93348366 0.13892521
vn 4.5015954E-06 -0.58463305 0.748683
vn -0.52659637 0.83815515 0.14209786
vn -0.9902189 0.0027944297 0.13949725
vn -0.94665253 0.073969185 -0.31365234
vn -0.3849633 0.7527836 0.53396606
vn -0.8081725 0.47029233 0.35251012
vn -0.80328906 -0.37156197 -0.46417478
vn -0.9816747 0.15428936 0.11146189
vn -0.5291725 0.78213906 0.3073036
vn -0.5788841 0.16933343 -0.7310484
vn -0.6036022 0.43738014 -0.5948659
vn -0.9842512 -0.17017186 -0.04600198
vn -0.7578857 -0.5406715 -0.3555369
vn -0.6844811 -0.6974724 -0.1638217
vn -0.5291725 0.78213906 0.3073036
vn 0.25987017 0.70875865 0.65082955
vn 0.75806457 0.5810683 -0.25645643
vn -0.8081725 0.47029233 0.35251012
vn -0.3849633 0.7527836 0.53396606
vn 0.87373865 0.40279296 0.2726518
vn 0.41220352 0.90676796 0.088657856
vn -0.52659637 0.83815515 0.14209786
vn -0.40727633 0.60198605 0.5468265
vn -0.8499923 0.37856087 0.32035732
vn -0.4486159 0.793575 -0.20035534
vn -0.047893874 0.65789104 -0.6296667
vn -0.53039557 -0.83222824 0.1189678
vn 0.0048744385 -0.95362025 -0.26764622
vn 0.0039499337 -0.9875537 0.02455087
vn -0.4658775 -0.8833186 -0.026761346
vn 0.0027133299 -0.87174284 0.4899559
vn -0.569975 -0.7509092 0.33356196
vn -0.7380835 -0.67011863 -0.04198125
vn -0.91539013 -0.38806236 0.086432986
vn -0.43129486 -0.123891786 0.8233651
vn 0.008567109 -0.14616603 0.95794064
vn -0.5125756 -0.018909492 0.81527984
vn -0.30886582 0.6616135 0.5517039
vn 0.016398879 0.38137537 0.8784306
vn -0.43129486 -0.123891786 0.8233651
vn -0.40727633 0.60198605 0.5468265
vn -0.30886582 0.6616135 0.5517039
vn -0.8499923 0.37856087 0.32035732
vn -0.6631693 -0.25979593 0.6834905
vn -0.23469482 -0.7107405 0.54134154
vn -0.5125756 -0.018909492 0.81527984
vn -0.70507586 -0.6015179 0.3191244
vn -0.3646456 -0.6392368 0.5643951
vn -0.59936076 -0.7123796 0.27185494
vn -0.1187551 -0.9223954 0.13040096
vn 0.06793974 -0.85235816 0.41255605
vn -0.5005085 -0.6480686 -0.5144373
vn 0.00028459996 -0.9430271 0.2252698
vn -0.0025997073 -0.7620095 -0.6059879
vn 0.08413375 0.29542232 0.9516548
vn -0.52034837 -0.19250569 0.83197314
vn -0.8922175 0.17698371 0.41548163
vn 0.4441403 -0.0075311065 0.89592546
vn 0.8067023 -0.5527851 0.20894909
vn 0.19631913 -0.6001371 0.77543133
vn 0.07878957 -0.9929514 0.088539094
vn -0.60567296 -0.76154375 0.23067571
vn -0.52034837 -0.19250569 0.83197314
vn -0.60567296 -0.76154375 0.23067571
vn -0.8649819 -0.45704174 -0.20716907
vn -0.8922175 0.17698371 0.41548163
vn -0.59094316 -0.36584163 -0.71898955
vn -0.25243068 -0.35720038 -0.8992699
vn -0.93978727 0.2557779 -0.17851368
vn -0.621945 0.36792782 0.57696694
vn -0.59850794 0.34624946 -0.6120639
vn -0.78602374 0.5409605 -0.018726364
vn -0.48989618 0.33674628 0.71403813
vn -0.72004724 0.64167327 -0.053053558
vn -0.8695456 0.03326848 0.4782417
vn -0.8499923 0.37856087 0.32035732
vn -0.6631693 -0.25979593 0.6834905
vn -0.42482364 -0.715886 0.5541044
vn -0.13483477 -0.41986644 0.85041356
vn 0.903377 -0.0009332299 0.42884612
vn 0.64414567 -0.31379312 0.6342279
vn 0.8329371 -0.51445574 0.080161914
vn 0.6001242 -0.23103476 -0.6672987
vn -0.37852585 -0.8283388 -0.078269035
vn -0.16141826 0.13421553 -0.79249185
vn -0.087527476 0.6767174 -0.5441407
vn 0.08413375 0.29542232 0.9516548
vn 0.009174835 0.3778391 0.8663717
vn 0.64414567 -0.31379312 0.6342279
vn 0.903377 -0.0009332299 0.42884612
vn 0.07878957 -0.9929514 0.088539094
vn 0.19631913 -0.6001371 0.77543133
vn 0.70777285 -0.43480194 0.5567805
vn 0.70710504 -0.70162106 -0.08792054
vn -0.033340745 -0.77990353 -0.6250111
vn -0.8649819 -0.45704174 -0.20716907
vn 0.63518214 -0.28908247 -0.71622306
vn 0.8049928 -0.08902332 -0.586568
vn 0.06768494 -0.10218349 -0.99246037
vn 0.24561347 -0.94530034 -0.21466565
vn -0.27094007 -0.91733396 -0.2917014
vn -0.61920804 -0.11619732 -0.77658194
vn 0.19631913 -0.6001371 0.77543133
vn 0.7571388 0.44651914 0.47682425
vn 0.8386262 0.4240319 0.34191075
vn 0.70777285 -0.43480194 0.5567805
vn 0.06768494 -0.10218349 -0.99246037
vn 0.8049928 -0.08902332 -0.586568
vn 0.84877914 -0.111912996 -0.5167687
vn -0.046706967 0.7196034 -0.6928126
vn -0.61920804 -0.11619732 -0.77658194
vn 0.625181 0.6175262 -0.47729474
vn -0.94665253 0.073969185 -0.31365234
vn 0.41220352 0.90676796 0.088657856
vn -0.52659637 0.83815515 0.14209786
vn 0.40900898 -0.59462464 -0.6912441
vn 0.84877914 -0.111912996 -0.5167687
vn -0.46018386 -0.8341626 -0.30397922
vn -0.80328906 -0.37156197 -0.46417478
vn -0.9902189 0.0027944297 0.13949725
vn -0.032343134 -0.61572766 -0.78513145
vn 0.67337006 -0.42655575 -0.5863243
vn 0.20368932 -0.07425536 -0.9323759
vn -0.36597514 -0.69819546 -0.59468573
vn -0.7578857 -0.5406715 -0.3555369
vn -0.6844811 -0.6974724 -0.1638217
vn -0.45927814 0.19816585 -0.8349425
vn -0.01997178 -0.73290956 -0.6440654
vn 0.8049928 -0.08902332 -0.586568
vn 0.24561347 -0.94530034 -0.21466565
vn 0.84877914 -0.111912996 -0.5167687
vn -0.46018386 -0.8341626 -0.30397922
vn -0.27094007 -0.91733396 -0.2917014
vn -0.94665253 0.073969185 -0.31365234
vn -0.9902189 0.0027944297 0.13949725
vn -0.61920804 -0.11619732 -0.77658194
vn -0.5291725 0.78213906 0.3073036
vn 0.75806457 0.5810683 -0.25645643
vn -0.26881605 0.5193582 -0.75516
vn 0.5590691 0.5005437 -0.6232497
vn 0.07925536 0.7365102 -0.5981549
vn -0.0003280303 0.6429458 -0.7096755
vn -0.5788841 0.16933343 -0.7310484
vn -0.26881605 0.5193582 -0.75516
vn 0.07925536 0.7365102 -0.5981549
vn -0.7660377 0.55227804 -0.19022018
vn 0.026832996 0.6144816 0.6458468
vn -0.21718517 0.28267774 0.8250693
vn 0.028994143 0.27049476 0.8480679
vn -0.25579566 0.30277514 0.80682796
vn -0.58311534 0.050746486 0.70844156
vn -0.53270566 0.050939307 0.7305097
vn -0.5884275 -0.4171806 0.59529305
vn -0.628854 -0.47320902 0.51625997
vn -0.5018628 -0.82791406 0.06080535
vn -0.21492992 -0.8763503 0.31854644
vn 5.9059275E-06 -0.7819777 0.5410085
vn 4.5015954E-06 -0.58463305 0.748683
vn -0.42482364 -0.715886 0.5541044
vn -0.6631693 -0.25979593 0.6834905
vn -0.3646456 -0.6392368 0.5643951
vn -0.37852585 -0.8283388 -0.078269035
vn 0.2614144 -0.70190966 0.5488225
vn 0.64414567 -0.31379312 0.6342279
vn -0.13483477 -0.41986644 0.85041356
vn 0.64414567 -0.31379312 0.6342279
vn 0.009174835 0.3778391 0.8663717
vn -0.13483477 -0.41986644 0.85041356
vn -0.621945 0.36792782 0.57696694
vn -0.48989618 0.33674628 0.71403813
vn -0.8695456 0.03326848 0.4782417
vn -0.8922175 0.17698371 0.41548163
vn 0.08413375 0.29542232 0.9516548
vn 0.5653651 -0.39435872 -0.72446096
vn 0.903377 -0.0009332299 0.42884612
vn 0.8329371 -0.51445574 0.080161914
vn 0.6001242 -0.23103476 -0.6672987
vn -0.6036022 0.43738014 -0.5948659
vn -0.5788841 0.16933343 -0.7310484
vn -0.7660377 0.55227804 -0.19022018
vn -0.8907535 0.10519919 -0.39755934
vn -0.45927814 0.19816585 -0.8349425
vn -0.88712615 0.2417322 -0.37099707
vn 0.20368932 -0.07425536 -0.9323759
vn -0.27001202 0.8767967 -0.27659553
vn 0.4611858 0.1802791 -0.8291887
vn 0.14176412 0.34487298 -0.8824766
vn -6.8949845E-07 0.02350752 -0.9660776
vn -5.180189E-06 0.5800033 -0.76779413
vn -6.9803883E-07 -0.0005005598 -0.9648839
vn -0.70507586 -0.6015179 0.3191244
vn -0.5125756 -0.018909492 0.81527984
vn -0.7310831 0.10483085 0.65713716
vn -0.9759667 -0.0067528067 0.20962952
vn -0.59936076 -0.7123796 0.27185494
vn -0.92329735 -0.3167183 -0.19945474
vn -0.8503198 -0.07443122 0.5172829
vn -0.83498627 -0.13757329 0.52251846
vn -0.91539013 -0.38806236 0.086432986
vn -0.7380835 -0.67011863 -0.04198125
vn -0.569975 -0.7509092 0.33356196
vn -0.8624132 -0.30179965 0.3959068
vn -0.53039557 -0.83222824 0.1189678
vn -0.47919476 -0.71235585 0.49465388
vn -0.36452734 -0.59866536 0.69540924
vn -0.36452734 -0.59866536 0.69540924
vn -0.92329735 -0.3167183 -0.19945474
vn -0.83498627 -0.13757329 0.52251846
vn -0.46239558 -0.8675431 -0.07929945
vn 0.0010282757 -0.7576833 0.62770164
vn 0.003635227 -0.9743733 -0.11006673
vn 0.0039499337 -0.9875537 0.02455087
vn -0.47919476 -0.71235585 0.49465388
vn -0.53039557 -0.83222824 0.1189678
vn -0.92329735 -0.3167183 -0.19945474
vn -0.46239558 -0.8675431 -0.07929945
vn 0.0019214461 -0.086761326 -0.96996975
vn -0.35575512 0.15744875 -0.8779909
vn -0.59936076 -0.7123796 0.27185494
vn -0.0025997073 -0.7620095 -0.6059879
vn -0.5005085 -0.6480686 -0.5144373
vn -0.58311534 0.050746486 0.70844156
vn -0.8907535 0.10519919 -0.39755934
vn -0.7660377 0.55227804 -0.19022018
vn -0.5884275 -0.4171806 0.59529305
vn -0.5018628 -0.82791406 0.06080535
vn -0.88712615 0.2417322 -0.37099707
vn -0.7069215 -0.6049768 -0.30456784
vn -0.8212609 0.35659668 -0.41136086
vn -0.21718517 0.28267774 0.8250693
vn -0.58311534 0.050746486 0.70844156
vn -0.7660377 0.55227804 -0.19022018
vn -0.029451948 0.90988415 0.20308992
vn 0.07925536 0.7365102 -0.5981549
vn -0.0003280303 0.6429458 -0.7096755
vn 0.010174107 0.9016545 0.14180088
vn 0.028994143 0.27049476 0.8480679
vn -0.5018628 -0.82791406 0.06080535
vn 5.9059275E-06 -0.7819777 0.5410085
vn 6.775464E-06 -0.95820165 0.0045665056
vn -0.7069215 -0.6049768 -0.30456784
vn -0.4462072 -0.6525025 -0.5515089
vn -0.8212609 0.35659668 -0.41136086
vn 7.0481146E-06 -0.90821195 -0.3016296
vn -0.45334798 0.44206727 -0.7290308
vn -1.0276269E-06 0.05432707 -0.95738155
vn -5.180189E-06 0.5800033 -0.76779413
vn -0.45334798 0.44206727 -0.7290308
vn -1.0276269E-06 0.05432707 -0.95738155
vn -0.27001202 0.8767967 -0.27659553
vn -0.8212609 0.35659668 -0.41136086
vn -0.88712615 0.2417322 -0.37099707
vn 0.70777285 -0.43480194 0.5567805
vn 0.8386262 0.4240319 0.34191075
vn 0.70710504 -0.70162106 -0.08792054
vn 0.60240394 0.4090414 -0.6854158
vn 0.63518214 -0.28908247 -0.71622306
vn 0.7571388 0.44651914 0.47682425
vn 0.5653651 -0.39435872 -0.72446096
vn 0.60240394 0.4090414 -0.6854158
vn 0.8386262 0.4240319 0.34191075
vn 0.0048449254 -0.25765136 0.93278635
vn -0.7310831 0.10483085 0.65713716
vn -0.5125756 -0.018909492 0.81527984
vn -0.0033365297 0.13650289 0.97475904
vn -0.37861684 -0.12915732 0.9156309
vn -0.001438564 -0.3168341 0.94475496
vn -0.8503198 -0.07443122 0.5172829
vn 0.0027133299 -0.87174284 0.4899559
vn -0.569975 -0.7509092 0.33356196
g 0.0000_0
f 3/3/3 2/2/2 1/1/1
f 6/6/6 5/5/5 4/4/4
f 9/9/9 8/8/8 7/7/7
f 12/12/12 11/11/11 10/10/10
f 15/15/15 14/14/14 13/13/13
f 18/18/18 17/17/17 16/16/16
f 21/21/21 20/20/20 19/19/19
f 24/24/24 23/23/23 22/22/22
f 27/27/27 26/26/26 25/25/25
f 30/30/30 29/29/29 28/28/28
f 33/33/33 32/32/32 31/31/31
f 36/36/36 35/35/35 34/34/34
f 39/39/39 38/38/38 37/37/37
f 38/38/38 40/40/40 37/37/37
f 38/38/38 41/41/41 40/40/40
f 37/37/37 40/40/40 41/41/41
f 41/41/41 42/42/42 37/37/37
f 42/42/42 43/43/43 37/37/37
f 37/37/37 43/43/43 44/44/44
f 47/47/47 46/46/46 45/45/45
f 48/48/48 45/45/45 46/46/46
f 45/45/45 48/48/48 49/49/49
f 49/49/49 48/48/48 50/50/50
f 49/49/49 51/51/51 45/45/45
f 52/52/52 45/45/45 51/51/51
f 53/53/53 48/48/48 46/46/46
f 53/53/53 54/54/54 48/48/48
f 54/54/54 55/55/55 48/48/48
f 56/56/56 54/54/54 53/53/53
f 57/57/57 56/56/56 53/53/53
f 53/53/53 46/46/46 57/57/57
f 58/58/58 57/57/57 46/46/46
f 58/58/58 46/46/46 59/59/59
f 58/58/58 60/60/60 57/57/57
f 51/51/51 61/61/61 52/52/52
f 61/61/61 62/62/62 52/52/52
f 62/62/62 63/63/63 52/52/52
f 61/61/61 64/64/64 62/62/62
f 61/61/61 51/51/51 64/64/64
f 65/65/65 64/64/64 51/51/51
f 51/51/51 66/66/66 65/65/65
f 63/63/63 62/62/62 67/67/67
f 67/67/67 68/68/68 63/63/63
f 67/67/67 69/69/69 68/68/68
f 68/68/68 70/70/70 63/63/63
f 70/70/70 71/71/71 63/63/63
f 74/74/74 73/73/73 72/72/72
f 73/73/73 74/74/74 75/75/75
f 73/73/73 75/75/75 76/76/76
f 75/75/75 77/77/77 76/76/76
f 76/76/76 78/78/78 73/73/73
f 76/76/76 79/79/79 78/78/78
f 79/79/79 80/80/80 78/78/78
f 83/83/83 82/82/82 81/81/81
f 83/83/83 81/81/81 84/84/84
f 85/85/85 83/83/83 84/84/84
f 83/83/83 85/85/85 86/86/86
f 83/83/83 86/86/86 87/87/87
f 85/85/85 88/88/88 86/86/86
f 87/87/87 86/86/86 89/89/89
f 89/89/89 86/86/86 88/88/88
f 87/87/87 89/89/89 90/90/90
f 89/89/89 88/88/88 90/90/90
f 90/90/90 88/88/88 91/91/91
f 91/91/91 92/92/92 90/90/90
f 92/92/92 93/93/93 90/90/90
f 93/93/93 92/92/92 94/94/94
f 93/93/93 94/94/94 95/95/95
f 92/92/92 96/96/96 94/94/94
f 99/99/99 98/98/98 97/97/97
f 97/97/97 100/100/100 99/99/99
f 99/99/99 100/100/100 101/101/101
f 100/100/100 97/97/97 102/102/102
f 97/97/97 103/103/103 102/102/102
f 104/104/104 103/103/103 97/97/97
f 104/104/104 105/105/105 103/103/103
f 108/108/108 107/107/107 106/106/106
f 108/108/108 106/106/106 109/109/109
f 110/110/110 108/108/108 109/109/109
f 108/108/108 110/110/110 111/111/111
f 111/111/111 110/110/110 112/112/112
f 112/112/112 110/110/110 113/113/113
f 112/112/112 113/113/113 114/114/114
f 114/114/114 115/115/115 112/112/112
f 112/112/112 116/116/116 111/111/111
f 112/112/112 115/115/115 116/116/116
f 117/117/117 111/111/111 116/116/116
f 117/117/117 116/116/116 115/115/115
f 118/118/118 117/117/117 115/115/115
f 121/121/121 120/120/120 119/119/119
f 121/121/121 119/119/119 122/122/122
f 122/122/122 123/123/123 121/121/121
f 124/124/124 121/121/121 123/123/123
f 125/125/125 124/124/124 123/123/123
f 126/126/126 125/125/125 123/123/123
f 129/129/129 128/128/128 127/127/127
f 130/130/130 128/128/128 129/129/129
f 133/133/133 132/132/132 131/131/131
f 131/131/131 134/134/134 133/133/133
f 133/133/133 134/134/134 135/135/135
f 135/135/135 134/134/134 136/136/136
f 134/134/134 137/137/137 136/136/136
f 137/137/137 134/134/134 131/131/131
f 138/138/138 137/137/137 131/131/131
f 141/141/141 140/140/140 139/139/139
f 141/141/141 139/139/139 142/142/142
f 143/143/143 141/141/141 142/142/142
f 146/146/146 145/145/145 144/144/144
f 144/144/144 147/147/147 146/146/146
f 148/148/148 147/147/147 144/144/144
f 148/148/148 144/144/144 149/149/149
f 150/150/150 149/149/149 144/144/144
f 150/150/150 151/151/151 149/149/149
f 149/149/149 152/152/152 148/148/148
f 149/149/149 151/151/151 153/153/153
f 153/153/153 152/152/152 149/149/149
f 154/154/154 152/152/152 153/153/153
f 154/154/154 153/153/153 155/155/155
f 156/156/156 155/155/155 153/153/153
f 155/155/155 157/157/157 154/154/154
f 157/157/157 155/155/155 156/156/156
f 158/158/158 157/157/157 156/156/156
f 161/161/161 160/160/160 159/159/159
f 161/161/161 159/159/159 162/162/162
f 163/163/163 161/161/161 162/162/162
f 163/163/163 164/164/164 161/161/161
f 164/164/164 165/165/165 161/161/161
f 165/165/165 166/166/166 161/161/161
f 169/169/169 168/168/168 167/167/167
f 170/170/170 167/167/167 168/168/168
f 171/171/171 170/170/170 168/168/168
f 171/171/171 168/168/168 172/172/172
f 170/170/170 171/171/171 173/173/173
f 174/174/174 170/170/170 173/173/173
f 171/171/171 175/175/175 173/173/173
f 174/174/174 173/173/173 176/176/176
f 175/175/175 176/176/176 173/173/173
f 177/177/177 174/174/174 176/176/176
f 175/175/175 178/178/178 176/176/176
f 177/177/177 176/176/176 178/178/178
f 179/179/179 177/177/177 178/178/178
f 178/178/178 180/180/180 179/179/179
f 179/179/179 180/180/180 181/181/181
f 179/179/179 181/181/181 182/182/182
f 179/179/179 182/182/182 183/183/183
f 186/186/186 185/185/185 184/184/184
f 187/187/187 185/185/185 186/186/186
f 186/186/186 188/188/188 187/187/187
f 189/189/189 187/187/187 188/188/188
f 190/190/190 187/187/187 189/189/189
f 193/193/193 192/192/192 191/191/191
f 191/191/191 192/192/192 194/194/194
f 197/197/197 196/196/196 195/195/195
f 196/196/196 198/198/198 195/195/195
f 195/195/195 198/198/198 199/199/199
f 200/200/200 195/195/195 199/199/199
f 198/198/198 201/201/201 199/199/199
f 204/204/204 203/203/203 202/202/202
f 203/203/203 204/204/204 205/205/205
f 206/206/206 205/205/205 204/204/204
f 209/209/209 208/208/208 207/207/207
f 210/210/210 209/209/209 207/207/207
f 213/213/213 212/212/212 211/211/211
f 212/212/212 214/214/214 211/211/211
f 211/211/211 214/214/214 215/215/215
f 216/216/216 214/214/214 212/212/212
f 215/215/215 214/214/214 217/217/217
f 214/214/214 216/216/216 218/218/218
f 219/219/219 217/217/217 214/214/214
f 214/214/214 218/218/218 219/219/219
f 222/222/222 221/221/221 220/220/220
f 221/221/221 223/223/223 220/220/220
f 223/223/223 221/221/221 224/224/224
f 225/225/225 220/220/220 223/223/223
f 226/226/226 220/220/220 225/225/225
f 226/226/226 225/225/225 227/227/227
f 225/225/225 223/223/223 228/228/228
f 228/228/228 223/223/223 229/229/229
f 228/228/228 229/229/229 230/230/230
f 231/231/231 228/228/228 230/230/230
f 225/225/225 232/232/232 227/227/227
f 232/232/232 225/225/225 228/228/228
f 232/232/232 228/228/228 231/231/231
f 231/231/231 227/227/227 232/232/232
f 235/235/235 234/234/234 233/233/233
f 236/236/236 234/234/234 235/235/235
f 237/237/237 236/236/236 235/235/235
f 237/237/237 238/238/238 236/236/236
f 236/236/236 238/238/238 239/239/239
f 238/238/238 237/237/237 240/240/240
f 243/243/243 242/242/242 241/241/241
f 243/243/243 244/244/244 242/242/242
f 244/244/244 245/245/245 242/242/242
f 245/245/245 244/244/244 246/246/246
f 249/249/249 248/248/248 247/247/247
f 250/250/250 249/249/249 247/247/247
f 253/253/253 252/252/252 251/251/251
f 254/254/254 253/253/253 251/251/251
f 255/255/255 253/253/253 254/254/254
f 256/256/256 255/255/255 254/254/254
f 257/257/257 255/255/255 256/256/256
f 258/258/258 257/257/257 256/256/256
f 259/259/259 257/257/257 258/258/258
f 260/260/260 259/259/259 258/258/258
f 261/261/261 259/259/259 260/260/260
f 262/262/262 261/261/261 260/260/260
f 265/265/265 264/264/264 263/263/263
f 266/266/266 263/263/263 264/264/264
f 267/267/267 263/263/263 266/266/266
f 267/267/267 266/266/266 268/268/268
f 267/267/267 269/269/269 263/263/263
f 269/269/269 267/267/267 268/268/268
f 272/272/272 271/271/271 270/270/270
f 272/272/272 273/273/273 271/271/271
f 274/274/274 271/271/271 273/273/273
f 274/274/274 275/275/275 271/271/271
f 276/276/276 273/273/273 272/272/272
f 277/277/277 276/276/276 272/272/272
f 280/280/280 279/279/279 278/278/278
f 281/281/281 278/278/278 279/279/279
f 284/284/284 283/283/283 282/282/282
f 283/283/283 285/285/285 282/282/282
f 282/282/282 285/285/285 286/286/286
f 285/285/285 287/287/287 286/286/286
f 286/286/286 287/287/287 288/288/288
f 287/287/287 289/289/289 288/288/288
f 289/289/289 290/290/290 288/288/288
f 290/290/290 289/289/289 291/291/291
f 292/292/292 291/291/291 289/289/289
f 293/293/293 292/292/292 289/289/289
f 292/292/292 294/294/294 291/291/291
f 297/297/297 296/296/296 295/295/295
f 295/295/295 296/296/296 298/298/298
f 295/295/295 298/298/298 299/299/299
f 299/299/299 298/298/298 300/300/300
f 296/296/296 301/301/301 298/298/298
f 298/298/298 302/302/302 300/300/300
f 303/303/303 298/298/298 301/301/301
f 301/301/301 304/304/304 303/303/303
f 305/305/305 304/304/304 301/301/301
f 306/306/306 298/298/298 303/303/303
f 302/302/302 298/298/298 306/306/306
f 303/303/303 307/307/307 306/306/306
f 307/307/307 308/308/308 306/306/306
f 306/306/306 308/308/308 302/302/302
f 308/308/308 309/309/309 302/302/302
f 312/312/312 311/311/311 310/310/310
f 313/313/313 312/312/312 310/310/310
f 310/310/310 314/314/314 313/313/313
f 314/314/314 315/315/315 313/313/313
f 316/316/316 314/314/314 310/310/310
f 317/317/317 316/316/316 310/310/310
f 318/318/318 316/316/316 317/317/317
f 321/321/321 320/320/320 319/319/319
f 320/320/320 322/322/322 319/319/319
f 319/319/319 322/322/322 323/323/323
f 322/322/322 320/320/320 324/324/324
f 323/323/323 322/322/322 325/325/325
f 325/325/325 322/322/322 324/324/324
f 328/328/328 327/327/327 326/326/326
f 326/326/326 329/329/329 328/328/328
f 329/329/329 330/330/330 328/328/328
f 331/331/331 328/328/328 330/330/330
f 330/330/330 332/332/332 331/331/331
f 332/332/332 333/333/333 331/331/331
f 336/336/336 335/335/335 334/334/334
f 335/335/335 337/337/337 334/334/334
f 335/335/335 338/338/338 337/337/337
f 339/339/339 337/337/337 338/338/338
f 339/339/339 340/340/340 337/337/337
f 334/334/334 337/337/337 340/340/340
f 340/340/340 341/341/341 334/334/334
f 344/344/344 343/343/343 342/342/342
f 343/343/343 345/345/345 342/342/342
f 346/346/346 345/345/345 343/343/343
f 346/346/346 347/347/347 345/345/345
f 346/346/346 343/343/343 348/348/348
f 347/347/347 346/346/346 349/349/349
f 348/348/348 349/349/349 346/346/346
f 349/349/349 348/348/348 350/350/350
f 353/353/353 352/352/352 351/351/351
f 354/354/354 353/353/353 351/351/351
f 355/355/355 353/353/353 354/354/354
f 356/356/356 355/355/355 354/354/354
f 359/359/359 358/358/358 357/357/357
f 359/359/359 360/360/360 358/358/358
f 361/361/361 358/358/358 360/360/360
f 364/364/364 363/363/363 362/362/362
f 365/365/365 364/364/364 362/362/362
f 368/368/368 367/367/367 366/366/366
f 369/369/369 368/368/368 366/366/366
f 370/370/370 368/368/368 369/369/369
f 371/371/371 370/370/370 369/369/369
f 370/370/370 372/372/372 368/368/368
f 371/371/371 373/373/373 370/370/370
f 374/374/374 372/372/372 370/370/370
f 373/373/373 374/374/374 370/370/370
f 377/377/377 376/376/376 375/375/375
f 378/378/378 377/377/377 375/375/375
f 379/379/379 377/377/377 378/378/378
f 378/378/378 375/375/375 379/379/379
f 380/380/380 379/379/379 375/375/375
f 381/381/381 380/380/380 375/375/375
f 381/381/381 375/375/375 382/382/382
f 385/385/385 384/384/384 383/383/383
f 383/383/383 386/386/386 385/385/385
f 386/386/386 383/383/383 387/387/387
f 386/386/386 387/387/387 388/388/388
f 389/389/389 387/387/387 383/383/383
f 383/383/383 390/390/390 389/389/389
f 386/386/386 391/391/391 385/385/385
f 392/392/392 391/391/391 386/386/386
f 393/393/393 392/392/392 386/386/386
f 392/392/392 394/394/394 391/391/391
f 394/394/394 395/395/395 391/391/391
f 385/385/385 391/391/391 395/395/395
f 395/395/395 396/396/396 385/385/385
f 385/385/385 396/396/396 397/397/397
f 398/398/398 396/396/396 395/395/395
f 399/399/399 389/389/389 390/390/390
f 400/400/400 399/399/399 390/390/390
f 401/401/401 400/400/400 390/390/390
f 402/402/402 399/399/399 400/400/400
f 389/389/389 399/399/399 402/402/402
f 402/402/402 403/403/403 389/389/389
f 404/404/404 389/389/389 403/403/403
f 400/400/400 401/401/401 405/405/405
f 406/406/406 405/405/405 401/401/401
f 407/407/407 405/405/405 406/406/406
f 408/408/408 406/406/406 401/401/401
f 409/409/409 408/408/408 401/401/401
f 412/412/412 411/411/411 410/410/410
f 411/411/411 412/412/412 413/413/413
f 413/413/413 412/412/412 414/414/414
f 415/415/415 413/413/413 414/414/414
f 416/416/416 414/414/414 412/412/412
f 417/417/417 414/414/414 416/416/416
f 418/418/418 417/417/417 416/416/416
f 421/421/421 420/420/420 419/419/419
f 419/419/419 420/420/420 422/422/422
f 420/420/420 423/423/423 422/422/422
f 423/423/423 420/420/420 424/424/424
f 424/424/424 420/420/420 425/425/425
f 426/426/426 423/423/423 424/424/424
f 424/424/424 425/425/425 427/427/427
f 424/424/424 427/427/427 426/426/426
f 427/427/427 425/425/425 428/428/428
f 426/426/426 427/427/427 428/428/428
f 426/426/426 428/428/428 429/429/429
f 430/430/430 429/429/429 428/428/428
f 431/431/431 430/430/430 428/428/428
f 430/430/430 431/431/431 432/432/432
f 432/432/432 431/431/431 433/433/433
f 434/434/434 430/430/430 432/432/432
f 437/437/437 436/436/436 435/435/435
f 438/438/438 435/435/435 436/436/436
f 438/438/438 436/436/436 439/439/439
f 435/435/435 438/438/438 440/440/440
f 441/441/441 435/435/435 440/440/440
f 441/441/441 442/442/442 435/435/435
f 443/443/443 442/442/442 441/441/441
f 446/446/446 445/445/445 444/444/444
f 444/444/444 445/445/445 447/447/447
f 445/445/445 448/448/448 447/447/447
f 448/448/448 445/445/445 449/449/449
f 448/448/448 449/449/449 450/450/450
f 448/448/448 450/450/450 451/451/451
f 451/451/451 450/450/450 452/452/452
f 453/453/453 452/452/452 450/450/450
f 454/454/454 450/450/450 449/449/449
f 453/453/453 450/450/450 454/454/454
f 449/449/449 455/455/455 454/454/454
f 454/454/454 455/455/455 453/453/453
f 455/455/455 456/456/456 453/453/453
f 459/459/459 458/458/458 457/457/457
f 457/457/457 458/458/458 460/460/460
f 461/461/461 460/460/460 458/458/458
f 458/458/458 462/462/462 461/461/461
f 462/462/462 463/463/463 461/461/461
f 463/463/463 464/464/464 461/461/461
f 467/467/467 466/466/466 465/465/465
f 467/467/467 468/468/468 466/466/466
f 471/471/471 470/470/470 469/469/469
f 472/472/472 469/469/469 470/470/470
f 472/472/472 470/470/470 473/473/473
f 472/472/472 473/473/473 474/474/474
f 475/475/475 472/472/472 474/474/474
f 472/472/472 475/475/475 469/469/469
f 475/475/475 476/476/476 469/469/469
f 479/479/479 478/478/478 477/477/477
f 477/477/477 478/478/478 480/480/480
f 478/478/478 481/481/481 480/480/480
f 484/484/484 483/483/483 482/482/482
f 485/485/485 482/482/482 483/483/483
f 485/485/485 486/486/486 482/482/482
f 482/482/482 486/486/486 487/487/487
f 487/487/487 488/488/488 482/482/482
f 489/489/489 488/488/488 487/487/487
f 490/490/490 487/487/487 486/486/486
f 489/489/489 487/487/487 491/491/491
f 490/490/490 491/491/491 487/487/487
f 490/490/490 492/492/492 491/491/491
f 491/491/491 492/492/492 493/493/493
f 493/493/493 494/494/494 491/491/491
f 495/495/495 493/493/493 492/492/492
f 493/493/493 495/495/495 494/494/494
f 495/495/495 496/496/496 494/494/494
f 499/499/499 498/498/498 497/497/497
f 497/497/497 498/498/498 500/500/500
f 498/498/498 501/501/501 500/500/500
f 502/502/502 501/501/501 498/498/498
f 503/503/503 502/502/502 498/498/498
f 504/504/504 503/503/503 498/498/498
f 507/507/507 506/506/506 505/505/505
f 505/505/505 508/508/508 507/507/507
f 508/508/508 509/509/509 507/507/507
f 507/507/507 509/509/509 510/510/510
f 509/509/509 508/508/508 511/511/511
f 508/508/508 512/512/512 511/511/511
f 513/513/513 509/509/509 511/511/511
f 511/511/511 512/512/512 514/514/514
f 514/514/514 513/513/513 511/511/511
f 512/512/512 515/515/515 514/514/514
f 516/516/516 513/513/513 514/514/514
f 514/514/514 515/515/515 516/516/516
f 515/515/515 517/517/517 516/516/516
f 518/518/518 516/516/516 517/517/517
f 518/518/518 517/517/517 519/519/519
f 519/519/519 517/517/517 520/520/520
f 520/520/520 517/517/517 521/521/521
f 524/524/524 523/523/523 522/522/522
f 524/524/524 525/525/525 523/523/523
f 526/526/526 523/523/523 525/525/525
f 525/525/525 527/527/527 526/526/526
f 525/525/525 528/528/528 527/527/527
f 531/531/531 530/530/530 529/529/529
f 531/531/531 529/529/529 532/532/532
f 535/535/535 534/534/534 533/533/533
f 536/536/536 535/535/535 533/533/533
f 536/536/536 533/533/533 537/537/537
f 533/533/533 538/538/538 537/537/537
f 539/539/539 536/536/536 537/537/537
f 542/542/542 541/541/541 540/540/540
f 541/541/541 542/542/542 543/543/543
f 543/543/543 544/544/544 541/541/541
f 547/547/547 546/546/546 545/545/545
f 548/548/548 547/547/547 545/545/545
f 551/551/551 550/550/550 549/549/549
f 552/552/552 551/551/551 549/549/549
f 552/552/552 549/549/549 553/553/553
f 552/552/552 554/554/554 551/551/551
f 552/552/552 553/553/553 555/555/555
f 554/554/554 552/552/552 556/556/556
f 555/555/555 557/557/557 552/552/552
f 556/556/556 552/552/552 557/557/557
f 560/560/560 559/559/559 558/558/558
f 561/561/561 560/560/560 558/558/558
f 560/560/560 561/561/561 562/562/562
f 558/558/558 563/563/563 561/561/561
f 558/558/558 564/564/564 563/563/563
f 563/563/563 564/564/564 565/565/565
f 561/561/561 563/563/563 566/566/566
f 561/561/561 566/566/566 567/567/567
f 567/567/567 566/566/566 568/568/568
f 566/566/566 569/569/569 568/568/568
f 570/570/570 563/563/563 565/565/565
f 565/565/565 569/569/569 570/570/570
f 566/566/566 570/570/570 569/569/569
f 563/563/563 570/570/570 566/566/566
f 573/573/573 572/572/572 571/571/571
f 573/573/573 574/574/574 572/572/572
f 574/574/574 575/575/575 572/572/572
f 576/576/576 575/575/575 574/574/574
f 576/576/576 574/574/574 577/577/577
f 575/575/575 576/576/576 578/578/578
f 581/581/581 580/580/580 579/579/579
f 582/582/582 580/580/580 581/581/581
f 583/583/583 582/582/582 581/581/581
f 582/582/582 583/583/583 584/584/584
f 587/587/587 586/586/586 585/585/585
f 588/588/588 587/587/587 585/585/585
f 591/591/591 590/590/590 589/589/589
f 590/590/590 592/592/592 589/589/589
f 590/590/590 593/593/593 592/592/592
f 593/593/593 594/594/594 592/592/592
f 593/593/593 595/595/595 594/594/594
f 595/595/595 596/596/596 594/594/594
f 595/595/595 597/597/597 596/596/596
f 597/597/597 598/598/598 596/596/596
f 597/597/597 599/599/599 598/598/598
f 599/599/599 600/600/600 598/598/598
f 603/603/603 602/602/602 601/601/601
f 601/601/601 604/604/604 603/603/603
f 601/601/601 605/605/605 604/604/604
f 604/604/604 605/605/605 606/606/606
f 607/607/607 605/605/605 601/601/601
f 605/605/605 607/607/607 606/606/606
f 610/610/610 609/609/609 608/608/608
f 611/611/611 609/609/609 610/610/610
f 610/610/610 612/612/612 611/611/611
f 613/613/613 612/612/612 610/610/610
f 611/611/611 614/614/614 609/609/609
f 614/614/614 615/615/615 609/609/609
f 618/618/618 617/617/617 616/616/616
f 616/616/616 619/619/619 618/618/618
f 622/622/622 621/621/621 620/620/620
f 623/623/623 622/622/622 620/620/620
f 623/623/623 620/620/620 624/624/624
f 625/625/625 623/623/623 624/624/624
f 625/625/625 624/624/624 626/626/626
f 627/627/627 625/625/625 626/626/626
f 628/628/628 627/627/627 626/626/626
f 627/627/627 628/628/628 629/629/629
f 629/629/629 630/630/630 627/627/627
f 630/630/630 631/631/631 627/627/627
f 632/632/632 630/630/630 629/629/629
f 635/635/635 634/634/634 633/633/633
f 635/635/635 633/633/633 636/636/636
f 636/636/636 633/633/633 637/637/637
f 636/636/636 637/637/637 638/638/638
f 639/639/639 635/635/635 636/636/636
f 640/640/640 636/636/636 638/638/638
f 636/636/636 641/641/641 639/639/639
f 642/642/642 639/639/639 641/641/641
f 642/642/642 643/643/643 639/639/639
f 636/636/636 644/644/644 641/641/641
f 636/636/636 640/640/640 644/644/644
f 645/645/645 641/641/641 644/644/644
f 646/646/646 645/645/645 644/644/644
f 646/646/646 644/644/644 640/640/640
f 647/647/647 646/646/646 640/640/640
f 650/650/650 649/649/649 648/648/648
f 649/649/649 651/651/651 648/648/648
f 652/652/652 648/648/648 651/651/651
f 653/653/653 652/652/652 651/651/651
f 652/652/652 654/654/654 648/648/648
f 654/654/654 655/655/655 648/648/648
f 654/654/654 656/656/656 655/655/655
f 659/659/659 658/658/658 657/657/657
f 660/660/660 659/659/659 657/657/657
f 660/660/660 657/657/657 661/661/661
f 659/659/659 660/660/660 662/662/662
f 660/660/660 661/661/661 663/663/663
f 660/660/660 663/663/663 662/662/662
f 666/666/666 665/665/665 664/664/664
f 667/667/667 664/664/664 665/665/665
f 668/668/668 667/667/667 665/665/665
f 665/665/665 669/669/669 668/668/668
f 670/670/670 668/668/668 669/669/669
f 671/671/671 670/670/670 669/669/669
f 674/674/674 673/673/673 672/672/672
f 675/675/675 674/674/674 672/672/672
f 676/676/676 674/674/674 675/675/675
f 675/675/675 677/677/677 676/676/676
f 678/678/678 677/677/677 675/675/675
f 675/675/675 672/672/672 678/678/678
f 679/679/679 678/678/678 672/672/672
f 682/682/682 681/681/681 680/680/680
f 683/683/683 682/682/682 680/680/680
f 683/683/683 684/684/684 682/682/682
f 685/685/685 684/684/684 683/683/683
f 682/682/682 684/684/684 686/686/686
f 684/684/684 685/685/685 687/687/687
f 687/687/687 686/686/686 684/684/684
f 686/686/686 687/687/687 688/688/688
f 691/691/691 690/690/690 689/689/689
f 690/690/690 692/692/692 689/689/689
f 690/690/690 693/693/693 692/692/692
f 693/693/693 694/694/694 692/692/692
f 697/697/697 696/696/696 695/695/695
f 698/698/698 696/696/696 697/697/697
f 697/697/697 699/699/699 698/698/698
f 702/702/702 701/701/701 700/700/700
f 703/703/703 702/702/702 700/700/700
f 706/706/706 705/705/705 704/704/704
f 705/705/705 707/707/707 704/704/704
f 705/705/705 708/708/708 707/707/707
f 708/708/708 709/709/709 707/707/707
f 710/710/710 708/708/708 705/705/705
f 711/711/711 709/709/709 708/708/708
f 710/710/710 712/712/712 708/708/708
f 712/712/712 711/711/711 708/708/708
