g 0.1000
v 0.22609973 1.4782393 1.7474245
v 0.15531635 1.5447947 1.741613
v 0.18166631 1.4537737 1.763851
v 0.206194 1.4395418 1.8090011
v 0.15531635 1.5447947 1.741613
v 0.25062746 1.4640074 1.7925746
v 0.7408508 -0.8563769 1.9584066
v 0.90997326 -1.0814822 1.7889128
v 1.1026851 -0.9519143 1.8708359
v 0.92141926 -0.71907043 2.1300375
v 0.55533934 -0.5682436 2.0162342
v 0.8026291 -0.41412365 2.3860898
v -0.2034347 -0.5914655 2.1546628
v -0.185438 -0.1638093 2.0505188
v 0.33233967 -0.18633902 2.0878134
v 0.24718419 0.22825253 1.9797087
v -0.27944982 0.27555525 1.608921
v 0.10343754 0.45940065 1.7382793
v -0.19576806 0.48899245 1.3302555
v 0.13736123 0.71793294 1.4384061
v -0.06638008 0.7007673 1.1054866
v 0.11501843 0.8996687 1.3797855
v 0.019104421 0.99932003 1.1498015
v 0.17711319 1.0859255 1.5517663
v 0.11636807 1.2585965 1.4798304
v 0.33892733 1.141005 1.8285655
v 0.27796346 1.2293923 1.7867585
v 0.33962816 1.2520182 1.9632634
v 0.29074427 1.2896018 1.88701
v 0.24690698 1.4485297 2.005138
v 0.242845 1.410655 1.9377395
v 0.12839687 1.6299931 1.9548408
v 0.13903713 1.5630732 1.883952
v -0.010083042 1.7235284 1.6874326
v 0.02911127 1.6560038 1.6928816
v -0.029957093 1.6944356 1.5903425
v 0.011818759 1.6534588 1.6423148
v 0.024114251 1.5660744 1.5454236
v 0.040736556 1.5855432 1.6193837
v 0.14159915 1.4132901 1.601321
v 0.13423353 1.4534634 1.6412311
v 0.21960072 1.363219 1.731591
v 0.19165477 1.4076318 1.7221458
v 0.206194 1.4395418 1.8090011
v 0.18166631 1.4537737 1.763851
v 0.15531635 1.5447947 1.741613
v 0.31239375 -1.0804272 2.8126397
v 0.31257513 -1.21749 2.663239
v 0.026627598 -1.1602253 2.6246512
v 0.025338797 -1.0300654 2.7681868
v -0.012294529 -0.8631916 2.7153459
v -0.0066722725 -1.0692302 2.552672
v -0.36493418 -0.5524758 2.467759
v -0.32153243 -1.0413437 2.6389425
v -0.5758791 -0.91202056 2.0468307
v -0.4909405 -1.1559696 2.2155108
v -0.67355174 -1.0331662 1.9869729
v -0.51229906 -1.217645 2.182722
v -0.90986013 -2.0462723 2.0182579
v -0.6087222 -2.0830956 2.3792822
v -0.0066722725 -1.0692302 2.552672
v 0.026627598 -1.1602253 2.6246512
v 0.31257513 -1.21749 2.663239
v 0.3996956 -1.0794792 2.5662017
v -0.32153243 -1.0413437 2.6389425
v 0.81134254 -0.92941236 2.6712546
v 0.56644094 -1.1813651 2.3789048
v 0.7526535 -1.1488254 2.219687
v 0.9306134 -0.9989476 2.3710365
v 0.9552833 -1.2760348 2.0960712
v 1.1480464 -1.1283808 2.1295848
v -0.15083617 -1.1733273 2.425453
v -0.4909405 -1.1559696 2.2155108
v 0.3552365 -0.5379697 1.7832141
v -0.3386651 -1.2057443 2.0823042
v -0.1476487 -0.51593006 1.7280141
v -0.51229906 -1.217645 2.182722
v 0.06861383 -0.05356109 1.2473645
v -0.34781384 -1.24167 2.0340946
v -0.6087222 -2.0830956 2.3792822
v -0.40986907 -1.997205 2.1315308
v 0.4551587 -0.14009678 1.5829093
v 0.14314026 0.26086068 1.0564749
v 0.40390915 0.2011224 1.4483831
v 0.22842199 0.61748207 0.93370676
v 0.39619482 0.5554199 1.2362064
v 0.26564595 1.0156281 1.0553046
v 0.36145768 0.91558635 1.2850974
v 0.30666825 1.315016 1.4102759
v 0.3761011 1.1119797 1.4795939
v 0.375431 1.2797215 1.7507981
v 0.43646547 1.1911457 1.7925844
v 0.37246963 1.3346008 1.8567972
v 0.42135352 1.2970172 1.9330506
v 0.32457036 1.4556539 1.9075267
v 0.32863232 1.4935287 1.974925
v 0.22076249 1.6080722 1.8537393
v 0.21012221 1.6749921 1.9246279
v 0.09433618 1.6919174 1.6687689
v 0.055141866 1.759442 1.6633198
v 0.07704365 1.6893724 1.6182021
v 0.03526781 1.7303492 1.5662297
v 0.10596146 1.6214567 1.5952709
v 0.08933915 1.601988 1.5213108
v 0.1818238 1.4796672 1.6236376
v 0.18918942 1.4394939 1.5837275
v 0.23608822 1.4320974 1.7057194
v 0.26403418 1.3876846 1.7151645
v 0.22609973 1.4782393 1.7474245
v 0.25062746 1.4640074 1.7925746
v 0.15531635 1.5447947 1.741613
v 0.3985343 -0.860222 2.7341986
v 0.31239375 -1.0804272 2.8126397
v 0.025338797 -1.0300654 2.7681868
v -0.012294529 -0.8631916 2.7153459
v -0.36493418 -0.5524758 2.467759
v -0.38730246 -0.94133854 1.9199872
v -0.5758791 -0.91202056 2.0468307
v -0.48828608 -1.0174078 1.8472241
v -0.67355174 -1.0331662 1.9869729
v -0.6086483 -2.017005 1.8637806
v -0.90986013 -2.0462723 2.0182579
v 0.3996956 -1.0794792 2.5662017
v 0.31257513 -1.21749 2.663239
v 0.31239375 -1.0804272 2.8126397
v 0.3985343 -0.860222 2.7341986
v 0.81134254 -0.92941236 2.6712546
v 0.8026291 -0.41412365 2.3860898
v 0.9306134 -0.9989476 2.3710365
v 0.92141926 -0.71907043 2.1300375
v 1.1480464 -1.1283808 2.1295848
v 1.1026851 -0.9519143 1.8708359
v 1.2897826 -1.5867707 2.2633271
v 1.2085147 -1.6801934 1.9605186
v -0.1476487 -0.51593006 1.7280141
v -0.27944982 0.27555525 1.608921
v -0.185438 -0.1638093 2.0505188
v 0.06861383 -0.05356109 1.2473645
v -0.19576806 0.48899245 1.3302555
v 0.14314026 0.26086068 1.0564749
v -0.06638008 0.7007673 1.1054866
v 0.22842199 0.61748207 0.93370676
v 0.33233967 -0.18633902 2.0878134
v 0.24718419 0.22825253 1.9797087
v 0.4551587 -0.14009678 1.5829093
v 0.3552365 -0.5379697 1.7832141
v 0.13736123 0.71793294 1.4384061
v 0.11501843 0.8996687 1.3797855
v 0.36145768 0.91558635 1.2850974
v 0.39619482 0.5554199 1.2362064
v 0.10343754 0.45940065 1.7382793
v 0.40390915 0.2011224 1.4483831
v 0.24718419 0.22825253 1.9797087
v 0.4551587 -0.14009678 1.5829093
v 0.22842199 0.61748207 0.93370676
v 0.019104421 0.99932003 1.1498015
v -0.06638008 0.7007673 1.1054866
v 0.26564595 1.0156281 1.0553046
v 0.11636807 1.2585965 1.4798304
v 0.30666825 1.315016 1.4102759
v 0.27796346 1.2293923 1.7867585
v 0.375431 1.2797215 1.7507981
v 0.29074427 1.2896018 1.88701
v 0.37246963 1.3346008 1.8567972
v 0.242845 1.410655 1.9377395
v 0.32457036 1.4556539 1.9075267
v 0.11501843 0.8996687 1.3797855
v 0.3761011 1.1119797 1.4795939
v 0.36145768 0.91558635 1.2850974
v 0.17711319 1.0859255 1.5517663
v 0.43646547 1.1911457 1.7925844
v 0.33892733 1.141005 1.8285655
v 0.42135352 1.2970172 1.9330506
v 0.33962816 1.2520182 1.9632634
v 0.32457036 1.4556539 1.9075267
v 0.13903713 1.5630732 1.883952
v 0.242845 1.410655 1.9377395
v 0.22076249 1.6080722 1.8537393
v 0.02911127 1.6560038 1.6928816
v 0.09433618 1.6919174 1.6687689
v 0.33962816 1.2520182 1.9632634
v 0.32863232 1.4935287 1.974925
v 0.42135352 1.2970172 1.9330506
v 0.24690698 1.4485297 2.005138
v 0.21012221 1.6749921 1.9246279
v 0.12839687 1.6299931 1.9548408
v 0.055141866 1.759442 1.6633198
v -0.010083042 1.7235284 1.6874326
v -0.029957093 1.6944356 1.5903425
v 0.024114251 1.5660744 1.5454236
v 0.08933915 1.601988 1.5213108
v 0.03526781 1.7303492 1.5662297
v -0.010083042 1.7235284 1.6874326
v 0.055141866 1.759442 1.6633198
v 0.09433618 1.6919174 1.6687689
v 0.011818759 1.6534588 1.6423148
v 0.02911127 1.6560038 1.6928816
v 0.07704365 1.6893724 1.6182021
v 0.040736556 1.5855432 1.6193837
v 0.10596146 1.6214567 1.5952709
v 0.024114251 1.5660744 1.5454236
v 0.18918942 1.4394939 1.5837275
v 0.08933915 1.601988 1.5213108
v 0.14159915 1.4132901 1.601321
v 0.26403418 1.3876846 1.7151645
v 0.21960072 1.363219 1.731591
v 0.10596146 1.6214567 1.5952709
v 0.13423353 1.4534634 1.6412311
v 0.040736556 1.5855432 1.6193837
v 0.1818238 1.4796672 1.6236376
v 0.19165477 1.4076318 1.7221458
v 0.23608822 1.4320974 1.7057194
v 0.21960072 1.363219 1.731591
v 0.206194 1.4395418 1.8090011
v 0.25062746 1.4640074 1.7925746
v 0.26403418 1.3876846 1.7151645
v 0.23608822 1.4320974 1.7057194
v 0.22609973 1.4782393 1.7474245
v 0.18166631 1.4537737 1.763851
v 0.19165477 1.4076318 1.7221458
v 0.33233967 -0.18633902 2.0878134
v 0.3552365 -0.5379697 1.7832141
v 0.56644094 -1.1813651 2.3789048
v 0.55533934 -0.5682436 2.0162342
v -0.1476487 -0.51593006 1.7280141
v -0.185438 -0.1638093 2.0505188
v -0.2034347 -0.5914655 2.1546628
v -0.15083617 -1.1733273 2.425453
v 0.9552833 -1.2760348 2.0960712
v 0.8788115 -1.7816219 2.0494528
v 0.90997326 -1.0814822 1.7889128
v 0.96448684 -1.6831323 2.3686833
v 1.1480464 -1.1283808 2.1295848
v 1.2897826 -1.5867707 2.2633271
v 0.7526535 -1.1488254 2.219687
v 0.9552833 -1.2760348 2.0960712
v 0.90997326 -1.0814822 1.7889128
v 0.7408508 -0.8563769 1.9584066
v 0.56644094 -1.1813651 2.3789048
v 0.55533934 -0.5682436 2.0162342
v 0.8788115 -1.7816219 2.0494528
v 0.96448684 -1.6831323 2.3686833
v 1.2897826 -1.5867707 2.2633271
v 1.2085147 -1.6801934 1.9605186
v 0.90997326 -1.0814822 1.7889128
v 0.8788115 -1.7816219 2.0494528
v 1.2085147 -1.6801934 1.9605186
v 1.1026851 -0.9519143 1.8708359
v -0.2034347 -0.5914655 2.1546628
v -0.3386651 -1.2057443 2.0823042
v -0.15083617 -1.1733273 2.425453
v -0.38730246 -0.94133854 1.9199872
v -0.34781384 -1.24167 2.0340946
v -0.48828608 -1.0174078 1.8472241
v -0.40986907 -1.997205 2.1315308
v -0.6086483 -2.017005 1.8637806
v -0.40986907 -1.997205 2.1315308
v -0.6086483 -2.017005 1.8637806
v -0.90986013 -2.0462723 2.0182579
v -0.6087222 -2.0830956 2.3792822
v 1.13921 -1.780288 1.9624267
v 1.4908131 -2.1383843 2.0143685
v 1.32555 -1.8193648 2.0388997
v 1.1810145 -2.0684817 1.8604418
v 0.981612 -2.1558385 1.9107044
v 1.0133226 -1.7833508 1.9827125
v 1.2668344 -1.7234555 2.3882813
v 1.0967867 -2.0855193 2.63643
v 1.1272898 -1.7266948 2.4116538
v 1.3927594 -2.0881703 2.5324328
v 1.3432282 -1.7400842 2.270311
v 1.5730491 -2.115049 2.3246927
v 1.32555 -1.8193648 2.0388997
v 1.4908131 -2.1383843 2.0143685
v 1.6089113 -2.2478552 2.2803988
v 1.5234693 -2.193676 2.076062
v 1.5636835 -2.2369328 2.358254
v 1.5390499 -2.2313964 2.3959298
v 1.2793506 -2.2015848 2.6486776
v 1.2409599 -2.195912 2.680098
v 1.0962656 -2.1900666 2.6637828
v 1.4488541 -2.2036524 2.5797393
v 1.4693655 -2.2202427 2.4808295
v 1.4389875 -2.889337 2.4600728
v 1.5080917 -2.8890984 2.3762102
v 0.77276546 -2.8140302 2.2798445
v 0.9063303 -2.8190637 2.2060785
v 0.8397541 -2.754034 2.0516076
v 0.7305312 -2.755353 2.1272376
v 0.863005 -2.1341357 2.070344
v 0.981612 -2.1558385 1.9107044
v 1.4672937 -2.217198 2.2181032
v 1.5234693 -2.193676 2.076062
v 1.4908131 -2.1383843 2.0143685
v 1.4409448 -2.2163913 2.2603836
v 1.5390499 -2.2313964 2.3959298
v 1.5636835 -2.2369328 2.358254
v 1.1347013 -2.1339612 2.2630863
v 0.981612 -2.1558385 1.9107044
v 1.1810145 -2.0684817 1.8604418
v 1.3519983 -2.2207656 2.3640246
v 1.4228756 -2.8568006 2.2590578
v 1.3416967 -2.8579173 2.3547156
v 1.4389875 -2.889337 2.4600728
v 1.5080917 -2.8890984 2.3762102
v 1.311126 -2.2206497 2.4065204
v 1.4488541 -2.2036524 2.5797393
v 1.4693655 -2.2202427 2.4808295
v 1.1764636 -2.2069817 2.4645169
v 1.095741 -2.2065988 2.4432492
v 0.8830736 -2.100703 2.412165
v 1.2793506 -2.2015848 2.6486776
v 1.2409599 -2.195912 2.680098
v 0.9393964 -2.1503239 2.488354
v 1.253132 -2.8859584 2.7879996
v 1.1140097 -2.8896687 2.8321993
v 0.8397541 -2.754034 2.0516076
v 0.9063303 -2.8190637 2.2060785
v 1.1347013 -2.1339612 2.2630863
v 0.981612 -2.1558385 1.9107044
v 1.1140097 -2.8896687 2.8321993
v 1.1772442 -2.8561187 2.9542432
v 1.3060061 -2.85252 2.9064722
v 1.253132 -2.8859584 2.7879996
v 1.095741 -2.2065988 2.4432492
v 1.2409599 -2.195912 2.680098
v 1.4594603 -2.760881 2.2031872
v 1.5115917 -2.756297 2.1568542
v 1.4483039 -2.736655 2.0706775
v 1.4041704 -2.7385263 2.1252449
v 1.2408769 -3.002571 2.6607928
v 1.3475014 -3.0107272 2.58068
v 1.251203 -3.0337822 2.451664
v 1.1596315 -3.0272532 2.5231323
v 1.2409599 -2.195912 2.680098
v 1.3060061 -2.85252 2.9064722
v 1.1772442 -2.8561187 2.9542432
v 1.0962656 -2.1900666 2.6637828
v 1.0962656 -2.1900666 2.6637828
v 1.1772442 -2.8561187 2.9542432
v 1.1140097 -2.8896687 2.8321993
v 0.9393964 -2.1503239 2.488354
v 1.0967867 -2.0855193 2.63643
v 0.8830736 -2.100703 2.412165
v 1.1272898 -1.7266948 2.4116538
v 0.9159236 -1.793967 2.307021
v 1.3432282 -1.7400842 2.270311
v 1.2668344 -1.7234555 2.3882813
v 0.863005 -2.1341357 2.070344
v 0.7305312 -2.755353 2.1272376
v 0.77276546 -2.8140302 2.2798445
v 0.92327106 -1.7668989 2.1037695
v 0.981612 -2.1558385 1.9107044
v 1.0133226 -1.7833508 1.9827125
v 1.13921 -1.780288 1.9624267
v 1.32555 -1.8193648 2.0388997
v 1.2793506 -2.2015848 2.6486776
v 1.2408769 -3.002571 2.6607928
v 1.1596315 -3.0272532 2.5231323
v 1.1764636 -2.2069817 2.4645169
v 1.311126 -2.2206497 2.4065204
v 1.251203 -3.0337822 2.451664
v 1.3475014 -3.0107272 2.58068
v 1.4488541 -2.2036524 2.5797393
v 1.1764636 -2.2069817 2.4645169
v 1.1596315 -3.0272532 2.5231323
v 1.251203 -3.0337822 2.451664
v 1.311126 -2.2206497 2.4065204
v 1.4488541 -2.2036524 2.5797393
v 1.3475014 -3.0107272 2.58068
v 1.2408769 -3.002571 2.6607928
v 1.2793506 -2.2015848 2.6486776
v 1.4409448 -2.2163913 2.2603836
v 1.4228756 -2.8568006 2.2590578
v 1.5080917 -2.8890984 2.3762102
v 1.5390499 -2.2313964 2.3959298
v 1.4693655 -2.2202427 2.4808295
v 1.4389875 -2.889337 2.4600728
v 1.3416967 -2.8579173 2.3547156
v 1.3519983 -2.2207656 2.3640246
v 1.6089113 -2.2478552 2.2803988
v 1.4594603 -2.760881 2.2031872
v 1.5636835 -2.2369328 2.358254
v 1.5115917 -2.756297 2.1568542
v 1.5234693 -2.193676 2.076062
v 1.4483039 -2.736655 2.0706775
v 1.5636835 -2.2369328 2.358254
v 1.4594603 -2.760881 2.2031872
v 1.4041704 -2.7385263 2.1252449
v 1.4672937 -2.217198 2.2181032
v 1.4483039 -2.736655 2.0706775
v 1.5234693 -2.193676 2.076062
v 1.1347013 -2.1339612 2.2630863
v 0.9063303 -2.8190637 2.2060785
v 0.77276546 -2.8140302 2.2798445
v 0.8830736 -2.100703 2.412165
v -0.5436423 -2.1272187 2.3037877
v -0.21390271 -2.4715588 2.2027495
v -0.3162158 -2.4621522 2.5112824
v -0.39138007 -2.1757212 2.1225255
v -0.6143718 -2.2083604 1.8762887
v -0.4871416 -2.1695154 1.9445944
v -0.73390555 -2.2232578 1.9121071
v -0.85948026 -2.2776678 2.0608983
v -0.676492 -2.143968 2.3427117
v -0.79040647 -2.1809616 2.2713008
v -0.4871416 -2.1695154 1.9445944
v -0.6143718 -2.2083604 1.8762887
v -0.5203381 -2.5922847 1.7761762
v -0.34193814 -2.537787 1.8720933
v -0.39138007 -2.1757212 2.1225255
v -0.22621393 -3.1780543 1.86378
v -0.21390271 -2.4715588 2.2027495
v -0.090216994 -3.1570857 1.8854318
v -0.052001715 -3.208178 2.050585
v -0.73390555 -2.2232578 1.9121071
v -0.85948026 -2.2776678 2.0608983
v -0.9529264 -2.6325097 2.1054547
v -0.7435179 -2.5338328 1.8167825
v -0.5203381 -2.5922847 1.7761762
v -0.6143718 -2.2083604 1.8762887
v -0.676492 -2.143968 2.3427117
v -0.5436423 -2.1272187 2.3037877
v -0.3162158 -2.4621522 2.5112824
v -0.6387329 -2.5152743 2.548077
v -0.41327655 -2.5914607 2.6217384
v -0.46222013 -2.6056674 2.6097603
v -0.6510143 -2.6376014 2.621999
v -0.79040647 -2.1809616 2.2713008
v -0.7115178 -2.6674733 2.5385344
v -0.89535975 -2.588283 2.4350367
v -0.85948026 -2.2776678 2.0608983
v -0.9529264 -2.6325097 2.1054547
v -0.8126335 -2.6969461 2.4905214
v -0.58304346 -3.3580027 2.5228865
v -0.68492055 -3.3752594 2.475363
v -0.85152996 -2.7097836 2.4663672
v -0.9266877 -2.7350094 2.4138517
v -0.94682837 -2.6879387 2.180337
v -0.73789155 -3.252513 2.284311
v -0.80796045 -3.2592897 2.2643144
v -0.052001715 -3.208178 2.050585
v -0.090216994 -3.1570857 1.8854318
v -0.22621393 -3.1780543 1.86378
v -0.20886946 -3.2388175 2.041988
v -0.3162158 -2.4621522 2.5112824
v -0.21390271 -2.4715588 2.2027495
v -0.22440082 -2.5228565 2.301912
v -0.28628027 -2.5675278 2.5402253
v -0.11231816 -3.277011 2.7297807
v -0.41327655 -2.5914607 2.6217384
v -0.12257445 -3.2385626 2.8726888
v -0.26479518 -3.2570093 2.886158
v -0.22440082 -2.5228565 2.301912
v -0.21390271 -2.4715588 2.2027495
v -0.5100099 -2.554902 2.17778
v -0.38132733 -2.6067193 2.3323934
v -0.9529264 -2.6325097 2.1054547
v -0.5203381 -2.5922847 1.7761762
v -0.7435179 -2.5338328 1.8167825
v -0.44723058 -2.61587 2.3892567
v -0.46222013 -2.6056674 2.6097603
v -0.41327655 -2.5914607 2.6217384
v -0.59696096 -2.6542025 2.3955283
v -0.6549841 -2.6646743 2.3689167
v -0.6510143 -2.6376014 2.621999
v -0.7115178 -2.6674733 2.5385344
v -0.7852403 -2.681505 2.3112938
v -0.94682837 -2.6879387 2.180337
v -0.82890725 -2.6893861 2.2818046
v -0.8126335 -2.6969461 2.4905214
v -0.85152996 -2.7097836 2.4663672
v -0.22621393 -3.1780543 1.86378
v -0.5203381 -2.5922847 1.7761762
v -0.5100099 -2.554902 2.17778
v -0.20886946 -3.2388175 2.041988
v -0.11231816 -3.277011 2.7297807
v -0.26264822 -3.296381 2.7513366
v -0.26479518 -3.2570093 2.886158
v -0.12257445 -3.2385626 2.8726888
v -0.73789155 -3.252513 2.284311
v -0.72462666 -3.2292213 2.184597
v -0.7903868 -3.238582 2.1534922
v -0.80796045 -3.2592897 2.2643144
v -0.58304346 -3.3580027 2.5228865
v -0.54415077 -3.3225398 2.377807
v -0.6628111 -3.341588 2.3242943
v -0.68492055 -3.3752594 2.475363
v -0.2886244 -3.4281862 2.629459
v -0.2699579 -3.4565961 2.46332
v -0.38630754 -3.4828868 2.4378061
v -0.42262626 -3.45906 2.6026971
v -0.38132733 -2.6067193 2.3323934
v -0.41327655 -2.5914607 2.6217384
v -0.26479518 -3.2570093 2.886158
v -0.26264822 -3.296381 2.7513366
v -0.22440082 -2.5228565 2.301912
v -0.38132733 -2.6067193 2.3323934
v -0.26264822 -3.296381 2.7513366
v -0.11231816 -3.277011 2.7297807
v -0.46222013 -2.6056674 2.6097603
v -0.44723058 -2.61587 2.3892567
v -0.2699579 -3.4565961 2.46332
v -0.2886244 -3.4281862 2.629459
v -0.6510143 -2.6376014 2.621999
v -0.42262626 -3.45906 2.6026971
v -0.59696096 -2.6542025 2.3955283
v -0.6510143 -2.6376014 2.621999
v -0.42262626 -3.45906 2.6026971
v -0.38630754 -3.4828868 2.4378061
v -0.44723058 -2.61587 2.3892567
v -0.59696096 -2.6542025 2.3955283
v -0.38630754 -3.4828868 2.4378061
v -0.2699579 -3.4565961 2.46332
v -0.7852403 -2.681505 2.3112938
v -0.8126335 -2.6969461 2.4905214
v -0.68492055 -3.3752594 2.475363
v -0.6628111 -3.341588 2.3242943
v -0.7115178 -2.6674733 2.5385344
v -0.6549841 -2.6646743 2.3689167
v -0.54415077 -3.3225398 2.377807
v -0.58304346 -3.3580027 2.5228865
v -0.6549841 -2.6646743 2.3689167
v -0.7852403 -2.681505 2.3112938
v -0.6628111 -3.341588 2.3242943
v -0.54415077 -3.3225398 2.377807
v -0.85152996 -2.7097836 2.4663672
v -0.82890725 -2.6893861 2.2818046
v -0.72462666 -3.2292213 2.184597
v -0.73789155 -3.252513 2.284311
v -0.82890725 -2.6893861 2.2818046
v -0.94682837 -2.6879387 2.180337
v -0.7903868 -3.238582 2.1534922
v -0.72462666 -3.2292213 2.184597
v -0.94682837 -2.6879387 2.180337
v -0.9266877 -2.7350094 2.4138517
v -0.80796045 -3.2592897 2.2643144
v -0.7903868 -3.238582 2.1534922
v -0.5100099 -2.554902 2.17778
v -0.21390271 -2.4715588 2.2027495
v -0.052001715 -3.208178 2.050585
v -0.20886946 -3.2388175 2.041988
v 0.16458327 -0.8710365 2.8875523
v 0.5219519 -0.91475654 3.1278965
v 0.15566438 -0.77031803 3.180876
v 0.3760594 -0.9544281 2.8569646
v 0.167256 -1.1049528 2.683742
v -0.04736644 -0.9453249 2.840964
v 0.67285275 -1.2476946 2.9722788
v 0.74008703 -1.3810123 3.2442508
v 0.56584144 -0.99656844 3.4239423
v 0.5635549 -1.757915 3.0513039
v 0.5199717 -1.5741019 2.805182
v 0.4631822 -1.14665 2.7671187
v 0.37491614 -1.3351014 2.6706455
v 0.15286398 -1.7027733 2.7244887
v 0.16296649 -1.4093897 2.624057
v -0.048509657 -1.3259981 2.654645
v 0.11957818 -1.3268874 3.819188
v 0.33105427 -1.4102789 3.7886
v 0.115288615 -1.6313243 3.759503
v -0.092371464 -1.4011757 3.7725997
v -0.18063751 -1.589627 3.676126
v -0.39030814 -1.4885824 3.4709659
v -0.237427 -1.162175 3.6380625
v -0.45754212 -1.3552649 3.1989946
v -0.28101015 -0.9783622 3.3919415
v -0.28329664 -1.7397087 3.0193028
v -0.23940718 -1.8215206 3.3153481
v -0.09351474 -1.7818489 3.5862803
v 0.12688029 -1.9659588 3.2623687
v 0.11796129 -1.8652406 3.5556927
v 0.329911 -1.7909522 3.6022806
v 0.15566438 -0.77031803 3.180876
v 0.5219519 -0.91475654 3.1278965
v 0.56584144 -0.99656844 3.4239423
v 0.14288908 -0.8297852 3.4851174
v 0.4959681 -1.177942 3.6657767
v 0.12968063 -1.0335037 3.7187557
v 0.33105427 -1.4102789 3.7886
v 0.11957818 -1.3268874 3.819188
v -0.237427 -1.162175 3.6380625
v -0.092371464 -1.4011757 3.7725997
v -0.28101015 -0.9783622 3.3919415
v -0.21144322 -0.89898944 3.1001828
v -0.04736644 -0.9453249 2.840964
v 0.16458327 -0.8710365 2.8875523
v 0.74008703 -1.3810123 3.2442508
v 0.5635549 -1.757915 3.0513039
v 0.49398792 -1.8372877 3.3430622
v 0.64686906 -1.5108802 3.510159
v 0.56584144 -0.99656844 3.4239423
v 0.329911 -1.7909522 3.6022806
v 0.4959681 -1.177942 3.6657767
v 0.418177 -1.6025008 3.6987543
v 0.115288615 -1.6313243 3.759503
v 0.33105427 -1.4102789 3.7886
v 0.49398792 -1.8372877 3.3430622
v 0.11796129 -1.8652406 3.5556927
v 0.329911 -1.7909522 3.6022806
v 0.12688029 -1.9659588 3.2623687
v 0.5635549 -1.757915 3.0513039
v 0.13965547 -1.9064918 2.958127
v 0.5199717 -1.5741019 2.805182
v -0.23940718 -1.8215206 3.3153481
v 0.15286398 -1.7027733 2.7244887
v -0.28329664 -1.7397087 3.0193028
v -0.2134234 -1.5583348 2.7774684
v 0.16296649 -1.4093897 2.624057
v -0.2134234 -1.5583348 2.7774684
v 0.15286398 -1.7027733 2.7244887
v -0.048509657 -1.3259981 2.654645
v -0.3643244 -1.2253968 2.933086
v -0.45754212 -1.3552649 3.1989946
v -0.28329664 -1.7397087 3.0193028
v -0.28101015 -0.9783622 3.3919415
v -0.21144322 -0.89898944 3.1001828
v -0.13563234 -1.1337763 2.7444906
v 0.167256 -1.1049528 2.683742
v -0.04736644 -0.9453249 2.840964
v 0.42275035 -1.8976588 2.988395
v 0.37377793 -1.8961735 2.966017
v 0.32253057 -1.9019008 2.9815793
v 0.28273988 -1.9133062 3.0309114
v 0.45632577 -1.9059594 3.0427167
v 0.26506782 -1.9273341 3.1007955
v 0.4655075 -1.9188504 3.1144269
v 0.27424967 -1.9402254 3.1725059
v 0.44783545 -1.932878 3.184311
v 0.30782497 -1.9485257 3.2268276
v 0.40804482 -1.9442837 3.233643
v 0.35679746 -1.9500113 3.2492056
v -0.092776716 -1.8679171 2.9788196
v -0.14066792 -1.850234 2.9959962
v -0.1801598 -1.8437719 3.046451
v -0.04931879 -1.8920829 2.9995244
v -0.20067066 -1.8502619 3.1166651
v -0.021938503 -1.9162564 3.0525622
v -0.19670454 -1.8679657 3.1878245
v -0.01797241 -1.9339602 3.123722
v -0.16932431 -1.892139 3.2408624
v -0.038483202 -1.9404507 3.1939366
v -0.1258663 -1.9163051 3.2615674
v -0.077975154 -1.9339881 3.244391
v 0.60364246 -1.6020124 3.481187
v 0.6326264 -1.5056001 3.4994583
v 0.6041534 -1.4318852 3.5644553
v 0.537743 -1.6686478 3.5279891
v 0.5384668 -1.4276471 3.645946
v 0.46685052 -1.667057 3.613721
v 0.4673643 -1.4959823 3.697453
v 0.4332347 -1.5939883 3.6812692
v 0.4332347 -1.5939883 3.6812692
v 0.4673643 -1.4959823 3.697453
v 0.6235297 -1.5450106 3.7455673
v 0.5984335 -1.6165085 3.7262678
v 0.46685052 -1.667057 3.613721
v 0.6793984 -1.6192138 3.8564582
v 0.623137 -1.6757329 3.6815858
v 0.65804076 -1.6658952 3.8268046
v 0.6791016 -1.7180536 3.8080816
v 0.65804076 -1.6658952 3.8268046
v 0.6793984 -1.6192138 3.8564582
v 0.6266588 -1.7062321 3.9708657
v 0.6176187 -1.7276604 3.953247
v 0.6791016 -1.7180536 3.8080816
v 0.5294186 -1.7858067 4.072588
v 0.6265131 -1.7547634 3.9471126
v 0.537743 -1.6686478 3.5279891
v 0.46685052 -1.667057 3.613721
v 0.623137 -1.6757329 3.6815858
v 0.6846454 -1.6891901 3.6411495
v 0.60364246 -1.6020124 3.481187
v 0.6791016 -1.7180536 3.8080816
v 0.7597933 -1.6491096 3.6277633
v 0.7313062 -1.7456701 3.8124952
v 0.6265131 -1.7547634 3.9471126
v 0.7847676 -1.7328994 3.8380585
v 0.6478751 -1.7718127 3.9565659
v 0.5294186 -1.7858067 4.072588
v 0.6689427 -1.769139 3.9764981
v 0.6326264 -1.5056001 3.4994583
v 0.60364246 -1.6020124 3.481187
v 0.7597933 -1.6491096 3.6277633
v 0.7985339 -1.5781485 3.6466656
v 0.6041534 -1.4318852 3.5644553
v 0.7601824 -1.5195017 3.6911998
v 0.7985339 -1.5781485 3.6466656
v 0.7597933 -1.6491096 3.6277633
v 0.7847676 -1.7328994 3.8380585
v 0.807086 -1.6869121 3.8688307
v 0.7601824 -1.5195017 3.6911998
v 0.6689427 -1.769139 3.9764981
v 0.78506374 -1.6342912 3.886322
v 0.6776329 -1.7481422 3.9947257
v 0.5294186 -1.7858067 4.072588
v 0.66908777 -1.720825 4.0001454
v 0.5384668 -1.4276471 3.645946
v 0.6041534 -1.4318852 3.5644553
v 0.7601824 -1.5195017 3.6911998
v 0.6851983 -1.5051204 3.7312422
v 0.4673643 -1.4959823 3.697453
v 0.78506374 -1.6342912 3.886322
v 0.6235297 -1.5450106 3.7455673
v 0.7317256 -1.6060104 3.8808508
v 0.66908777 -1.720825 4.0001454
v 0.6793984 -1.6192138 3.8564582
v 0.6480808 -1.7033417 3.990079
v 0.5294186 -1.7858067 4.072588
v 0.6266588 -1.7062321 3.9708657
v -0.31807494 -1.5886972 3.459638
v -0.25214124 -1.6555514 3.5060782
v -0.1807743 -1.6541965 3.5914195
v -0.14654574 -1.5812404 3.6587815
v -0.34663823 -1.4921893 3.478067
v -0.3175642 -1.41857 3.5429063
v -0.18026069 -1.4831219 3.6751513
v -0.25141764 -1.4145507 3.6240354
v -0.14654574 -1.5812404 3.6587815
v -0.1807743 -1.6541965 3.5914195
v -0.33671385 -1.6623542 3.660141
v -0.3115691 -1.603213 3.7046862
v -0.18026069 -1.4831219 3.6751513
v -0.39212322 -1.7044902 3.786943
v -0.3363214 -1.5316318 3.7241225
v -0.37078696 -1.6524022 3.80555
v -0.39182645 -1.6056504 3.8353195
v -0.37078696 -1.6524022 3.80555
v -0.39212322 -1.7044902 3.786943
v -0.33889443 -1.7413757 3.925683
v -0.32987654 -1.7143023 3.931769
v -0.39182645 -1.6056504 3.8353195
v -0.24121621 -1.7727425 4.050625
v -0.3387487 -1.6928444 3.9494367
v -0.25141764 -1.4145507 3.6240354
v -0.18026069 -1.4831219 3.6751513
v -0.3363214 -1.5316318 3.7241225
v -0.39793497 -1.4915373 3.710136
v -0.3175642 -1.41857 3.5429063
v -0.39182645 -1.6056504 3.8353195
v -0.47318524 -1.5056691 3.670506
v -0.44397485 -1.5922738 3.8599987
v -0.3387487 -1.6928444 3.9494367
v -0.4973758 -1.6203773 3.8657622
v -0.3600551 -1.689883 3.9687662
v -0.24121621 -1.7727425 4.050625
v -0.38106453 -1.7072966 3.9789486
v -0.34663823 -1.4921893 3.478067
v -0.3175642 -1.41857 3.5429063
v -0.47318524 -1.5056691 3.670506
v -0.5119749 -1.564188 3.6261835
v -0.31807494 -1.5886972 3.459638
v -0.4973758 -1.6203773 3.8657622
v -0.47357434 -1.6352773 3.60707
v -0.5196681 -1.6729243 3.8483925
v -0.4976719 -1.7189856 3.8174992
v -0.5196681 -1.6729243 3.8483925
v -0.4973758 -1.6203773 3.8657622
v -0.38106453 -1.7072966 3.9789486
v -0.38972992 -1.7345855 3.9735765
v -0.4976719 -1.7189856 3.8174992
v -0.24121621 -1.7727425 4.050625
v -0.3812096 -1.7556107 3.9553013
v -0.25214124 -1.6555514 3.5060782
v -0.31807494 -1.5886972 3.459638
v -0.47357434 -1.6352773 3.60707
v -0.39848763 -1.675607 3.6200435
v -0.1807743 -1.6541965 3.5914195
v -0.4976719 -1.7189856 3.8174992
v -0.33671385 -1.6623542 3.660141
v -0.4443941 -1.7319334 3.7916431
v -0.3812096 -1.7556107 3.9553013
v -0.39212322 -1.7044902 3.786943
v -0.3602606 -1.758354 3.9352531
v -0.24121621 -1.7727425 4.050625
v -0.33889443 -1.7413757 3.925683
vt 0.5275723 0.7769141
vt 0.52381027 0.76373005
vt 0.5194447 0.7769141
vt 0.5194447 0.65953445
vt 0.52742374 0.67851233
vt 0.52742374 0.65793085
vt 0.058886647 0.29201126
vt 0.05507624 0.2428565
vt 0.017790198 0.24977589
vt 0.018165588 0.30689144
vt 0.07196307 0.32450008
vt 0.004939437 0.36415672
vt 0.15684831 0.40363407
vt 0.19925916 0.32647038
vt 0.13059115 0.28565645
vt 0.16095626 0.2241025
vt 0.24797559 0.2739787
vt 0.22582245 0.20758486
vt 0.2911862 0.25006342
vt 0.28361952 0.1857276
vt 0.3306675 0.21710443
vt 0.31109083 0.15237188
vt 0.3505113 0.16360569
vt 0.30690622 0.11246586
vt 0.3357315 0.09703398
vt 0.27405012 0.07668686
vt 0.2903514 0.06984615
vt 0.26910555 0.050474644
vt 0.2838441 0.053102493
vt 0.28790176 0.0224123
vt 0.29212523 0.03344965
vt 0.31702447 0.004939556
vt 0.31811273 0.01986885
vt 0.3629911 0.019140244
vt 0.35390878 0.026900768
vt 0.37222874 0.031918526
vt 0.3602811 0.032010555
vt 0.36227417 0.051915646
vt 0.3549037 0.04251194
vt 0.33491385 0.06565714
vt 0.33461034 0.0569458
vt 0.31129754 0.059491634
vt 0.31804633 0.054943085
vt 0.3105111 0.042790413
vt 0.31824458 0.045330048
vt 0.32981515 0.037076473
vt 0.0735715 0.8099587
vt 0.104494214 0.7999215
vt 0.0912444 0.76301074
vt 0.06032169 0.7730479
vt 0.04779613 0.76034546
vt 0.09486234 0.7450681
vt 0.010914564 0.71682906
vt 0.09726691 0.6888001
vt 0.009856999 0.63653326
vt 0.054189503 0.62214327
vt 0.0049394965 0.6216588
vt 0.050450206 0.6106429
vt 0.03468579 0.47275615
vt 0.104494214 0.49028063
vt 0.48384047 0.019219637
vt 0.4714104 0.004939437
vt 0.4272772 0.013608217
vt 0.42515433 0.0404253
vt 0.53993237 0.02035451
vt 0.38295114 0.09817207
vt 0.44687974 0.1448654
vt 0.4298396 0.17303813
vt 0.39066732 0.15445292
vt 0.41850674 0.21744692
vt 0.38210762 0.20697212
vt 0.5385667 0.07342124
vt 0.6027273 0.07151067
vt 0.50069964 0.18659294
vt 0.58677804 0.10251653
vt 0.57285166 0.15237689
vt 0.61424387 0.07516849
vt 0.6165321 0.20942414
vt 0.605737 0.10896623
vt 0.71755123 0.08612168
vt 0.6982918 0.12789547
vt 0.5252687 0.25095463
vt 0.6572808 0.2364155
vt 0.5882641 0.27258444
vt 0.69347775 0.27203643
vt 0.64372635 0.2988652
vt 0.70822537 0.32631886
vt 0.66793585 0.3338647
vt 0.68731296 0.39070225
vt 0.66004467 0.37276596
vt 0.63956594 0.4129889
vt 0.62397015 0.40471685
vt 0.6315266 0.42890537
vt 0.61660874 0.43016696
vt 0.6379491 0.44915354
vt 0.6327207 0.45971596
vt 0.6625637 0.46499497
vt 0.6600958 0.47970355
vt 0.6988461 0.46117783
vt 0.70716906 0.4697038
vt 0.7056644 0.45669103
vt 0.71755123 0.4578724
vt 0.7012843 0.4457847
vt 0.7094945 0.43712974
vt 0.68240845 0.42950094
vt 0.6835184 0.4208882
vt 0.6657295 0.429955
vt 0.65943193 0.42482805
vt 0.6650355 0.43950814
vt 0.6571003 0.44132113
vt 0.6757661 0.44845754
vt 0.041941166 0.42377186
vt 0.041665435 0.4501686
vt 0.084808946 0.46287727
vt 0.09841025 0.450346
vt 0.15411544 0.4558239
vt 0.20867896 0.37649632
vt 0.22169149 0.4088621
vt 0.22788644 0.37327814
vt 0.23730636 0.4068675
vt 0.35112906 0.36032104
vt 0.37222874 0.40733242
vt 0.1256268 0.715534
vt 0.12789237 0.74251103
vt 0.15953058 0.7501917
vt 0.17378211 0.72722435
vt 0.11437321 0.6455517
vt 0.21647006 0.67033744
vt 0.15012759 0.598789
vt 0.20553881 0.612241
vt 0.16756034 0.5480993
vt 0.21647006 0.55717516
vt 0.12038171 0.49046135
vt 0.1568498 0.47275615
vt 0.7371098 0.17845821
vt 0.822159 0.23760784
vt 0.8168715 0.17845821
vt 0.72743016 0.23760784
vt 0.8120648 0.28521502
vt 0.7360168 0.28521502
vt 0.8014425 0.33121574
vt 0.74407536 0.33121574
vt 0.869822 0.5520568
vt 0.81565523 0.5450849
vt 0.81565523 0.63994855
vt 0.869822 0.631932
vt 0.74625725 0.13356805
vt 0.7549278 0.16857934
vt 0.795912 0.16857934
vt 0.803702 0.13356805
vt 0.7367842 0.072015405
vt 0.8129351 0.072015405
vt 0.72743016 0.004939556
vt 0.82228714 0.004939437
vt 0.8838996 0.5274677
vt 0.8324876 0.48343658
vt 0.82655877 0.5274677
vt 0.8733977 0.48343658
vt 0.8361131 0.41566157
vt 0.8687503 0.41566157
vt 0.8457152 0.37487364
vt 0.8633613 0.37487364
vt 0.84710294 0.35689902
vt 0.86204505 0.35689902
vt 0.84620744 0.34109497
vt 0.8611495 0.34109497
vt 0.9178941 0.9142077
vt 0.88100266 0.8741963
vt 0.87690705 0.9142077
vt 0.9137013 0.8741963
vt 0.8888234 0.8324685
vt 0.90650266 0.8324685
vt 0.890173 0.8057718
vt 0.9051432 0.8057718
vt 0.08452934 0.9213002
vt 0.099476755 0.94946337
vt 0.099476755 0.92108655
vt 0.08452937 0.9496772
vt 0.09925702 0.9828012
vt 0.08732754 0.9829719
vt 0.9857052 0.63525057
vt 0.97059125 0.60992813
vt 0.97073674 0.63510704
vt 0.9855597 0.61007214
vt 0.97073674 0.57737684
vt 0.9857052 0.5775204
vt 0.9730731 0.53636837
vt 0.9850194 0.5364828
vt 0.5875291 0.9427216
vt 0.5881644 0.9583161
vt 0.60008633 0.9585962
vt 0.59945107 0.94300175
vt 0.5881644 0.9276149
vt 0.60008633 0.92789507
vt 0.35856086 0.8199203
vt 0.37044343 0.8261969
vt 0.37050855 0.8199203
vt 0.35849574 0.8261969
vt 0.37053517 0.83541894
vt 0.35858747 0.83541894
vt 0.79165065 0.968168
vt 0.78172886 0.93844247
vt 0.77971995 0.968168
vt 0.7904339 0.93844247
vt 0.7813989 0.9168124
vt 0.7895265 0.9168124
vt 0.5657034 0.92761517
vt 0.57618856 0.9508352
vt 0.57765025 0.92761517
vt 0.56747174 0.9508352
vt 0.57579553 0.96638155
vt 0.5676569 0.96638155
vt 0.52758384 0.7049327
vt 0.52758384 0.6884074
vt 0.51944464 0.6883917
vt 0.51944464 0.70491695
vt 0.3329563 0.9283979
vt 0.3329563 0.919389
vt 0.32483467 0.919199
vt 0.32483464 0.9282079
vt 0.5390268 0.81742144
vt 0.5396644 0.89728856
vt 0.6055914 0.9177361
vt 0.6055914 0.7958395
vt 0.46825308 0.8139562
vt 0.46811706 0.8936813
vt 0.5270568 0.90235424
vt 0.5270568 0.79712206
vt 0.8769026 0.04824698
vt 0.9063058 0.10851428
vt 0.9063059 0.0049394667
vt 0.86357164 0.12078202
vt 0.8461877 0.026001424
vt 0.8321661 0.08889207
vt 0.8798554 0.20946127
vt 0.8344221 0.21233457
vt 0.83203804 0.26491743
vt 0.8797531 0.2694614
vt 0.915117 0.1784584
vt 0.915117 0.30006367
vt 0.90706635 0.7898005
vt 0.9429934 0.7780677
vt 0.9429934 0.7257701
vt 0.90891457 0.7368994
vt 0.36689827 0.5756056
vt 0.36689827 0.47275603
vt 0.33492625 0.5050689
vt 0.3350398 0.5961153
vt 0.32504725 0.69913006
vt 0.27214202 0.61854815
vt 0.22634906 0.66190624
vt 0.3183174 0.63554335
vt 0.2790691 0.59974074
vt 0.32504725 0.6173403
vt 0.24263063 0.48999763
vt 0.2906011 0.47275615
vt 0.28688115 0.85793066
vt 0.2849571 0.8989829
vt 0.33563882 0.90932
vt 0.33563882 0.84581256
vt 0.9094906 0.6925359
vt 0.9535085 0.6498275
vt 0.9128648 0.66791224
vt 0.94865406 0.69125867
vt 0.9535085 0.7158911
vt 0.9070662 0.70795727
vt 0.748761 0.4591713
vt 0.7274302 0.41337585
vt 0.73518544 0.46259308
vt 0.7613453 0.40961218
vt 0.7660907 0.46404982
vt 0.79559296 0.41658878
vt 0.78794396 0.47610474
vt 0.81667984 0.4426012
vt 0.8077698 0.40668678
vt 0.81625205 0.43135738
vt 0.79676884 0.403255
vt 0.7912055 0.40172672
vt 0.74627966 0.3945923
vt 0.7401053 0.39412737
vt 0.729192 0.40175247
vt 0.7665418 0.39313745
vt 0.77753663 0.39873075
vt 0.8036061 0.34109497
vt 0.81667984 0.3450613
vt 0.68108934 0.9865223
vt 0.6993788 0.98600876
vt 0.7025159 0.963873
vt 0.6865962 0.96611774
vt 0.6783137 0.9200195
vt 0.7025159 0.9121522
vt 0.13384593 0.84402466
vt 0.116150856 0.8534422
vt 0.11437309 0.86462736
vt 0.1399113 0.8426738
vt 0.14405417 0.82532454
vt 0.13835227 0.8261795
vt 0.16710865 0.86835766
vt 0.14597571 0.9025798
vt 0.12701356 0.90113354
vt 0.156901 0.840096
vt 0.12548757 0.79169846
vt 0.14112198 0.789454
vt 0.14225662 0.77294445
vt 0.1286999 0.7749891
vt 0.16401577 0.8395405
vt 0.16942966 0.8193536
vt 0.15803385 0.8241687
vt 0.18085694 0.84464407
vt 0.1854887 0.85128164
vt 0.20259678 0.8754616
vt 0.18987656 0.82484674
vt 0.19612205 0.8253269
vt 0.20393491 0.86218166
vt 0.18844986 0.7600708
vt 0.20393491 0.765069
vt 0.2731713 0.8531151
vt 0.25295508 0.8458128
vt 0.226349 0.9269681
vt 0.27507818 0.9269681
vt 0.36732858 0.61044645
vt 0.34989583 0.60599446
vt 0.34532654 0.6165681
vt 0.36171567 0.6212318
vt 0.36732858 0.69835997
vt 0.33492625 0.6863475
vt 0.52768993 0.7392955
vt 0.5194533 0.7416043
vt 0.5194447 0.75385094
vt 0.52768993 0.75062084
vt 0.8181746 0.9511435
vt 0.8181746 0.9346088
vt 0.804055 0.93086433
vt 0.8043115 0.9452852
vt 0.49495256 0.91733277
vt 0.4984492 0.9899353
vt 0.51276433 0.98443615
vt 0.51276433 0.91223323
vt 0.7026684 0.7308
vt 0.67831373 0.8032579
vt 0.69622517 0.80501926
vt 0.7301012 0.7293469
vt 0.70371723 0.7193891
vt 0.74076724 0.72479135
vt 0.72081995 0.67206585
vt 0.74507284 0.68799835
vt 0.7260864 0.65194374
vt 0.71620584 0.6611363
vt 0.7816098 0.71318644
vt 0.79417586 0.78480166
vt 0.77566624 0.7948112
vt 0.76743627 0.67525774
vt 0.79417586 0.6996319
vt 0.77695954 0.6649711
vt 0.7727026 0.6551356
vt 0.75506294 0.6498275
vt 0.940783 0.34109473
vt 0.94712186 0.4229164
vt 0.96725297 0.426818
vt 0.96725297 0.34317505
vt 0.34551764 0.8558229
vt 0.3521613 0.94128597
vt 0.370744 0.9333044
vt 0.370744 0.8458126
vt 0.97946596 0.74717116
vt 0.97946596 0.6546986
vt 0.9690521 0.6498275
vt 0.9633875 0.7419317
vt 0.98040545 0.90387297
vt 0.98040545 0.80577207
vt 0.9681622 0.8088808
vt 0.9602066 0.9051645
vt 0.9821172 0.16420734
vt 0.9821172 0.09976661
vt 0.96514285 0.10127747
vt 0.96273196 0.16814876
vt 0.4850737 0.9944205
vt 0.4850737 0.91252303
vt 0.4706899 0.9122331
vt 0.46811712 0.9899013
vt 0.39069915 0.9719244
vt 0.39909363 0.910143
vt 0.38210773 0.96874857
vt 0.40373242 0.9151553
vt 0.41863918 0.9719244
vt 0.41609883 0.9126468
vt 0.952853 0.16814864
vt 0.9425996 0.1086545
vt 0.93139607 0.105982184
vt 0.9335949 0.16164374
vt 0.925461 0.109680295
vt 0.91618484 0.16814864
vt 0.9468148 0.09510374
vt 0.9468148 0.006079197
vt 0.9310334 0.004939556
vt 0.9161849 0.09610319
vt 0.6895472 0.85715663
vt 0.7309272 0.82465804
vt 0.6936064 0.814898
vt 0.71840644 0.852875
vt 0.7309272 0.8908948
vt 0.73033345 0.8742814
vt 0.7207341 0.9003221
vt 0.700197 0.90227294
vt 0.6783136 0.8676889
vt 0.67994785 0.8831973
vt 0.821862 0.8057718
vt 0.80499053 0.81139565
vt 0.8040549 0.8521521
vt 0.8277238 0.8442662
vt 0.8452757 0.8086209
vt 0.8361086 0.91675806
vt 0.8670281 0.8414793
vt 0.8497429 0.9119699
vt 0.8670281 0.9209852
vt 0.89497733 0.48307538
vt 0.8994143 0.5070287
vt 0.94151235 0.5224782
vt 0.9337015 0.47906768
vt 0.94151235 0.45674634
vt 0.8937788 0.46948195
vt 0.8362367 0.65246415
vt 0.82602257 0.6498275
vt 0.8040549 0.69919634
vt 0.83330005 0.704021
vt 0.81050265 0.71815324
vt 0.81638736 0.71866345
vt 0.8341777 0.7211051
vt 0.85307366 0.6518624
vt 0.84664625 0.719584
vt 0.8675426 0.70397186
vt 0.8776697 0.65112185
vt 0.89718735 0.6914954
vt 0.86040443 0.719465
vt 0.8627272 0.7958927
vt 0.87607074 0.79446983
vt 0.86614585 0.71929383
vt 0.87765706 0.7187109
vt 0.8936731 0.70145226
vt 0.8890767 0.7709832
vt 0.89718735 0.7700937
vt 0.87095803 0.13066089
vt 0.87350386 0.15042889
vt 0.88895226 0.15586829
vt 0.88895226 0.13506448
vt 0.6274901 0.89531183
vt 0.6596375 0.9044938
vt 0.65330344 0.8958869
vt 0.63191533 0.88326836
vt 0.6596375 0.80153847
vt 0.61547035 0.8749995
vt 0.6468073 0.8022628
vt 0.63380027 0.7958393
vt 0.45170605 0.88106656
vt 0.45823812 0.87200356
vt 0.43203807 0.84915787
vt 0.4357531 0.8731924
vt 0.39418936 0.81166476
vt 0.458238 0.80782604
vt 0.43209124 0.797122
vt 0.42561603 0.8744393
vt 0.4093802 0.89569485
vt 0.41318464 0.9002641
vt 0.41101706 0.8649083
vt 0.40695596 0.85910934
vt 0.3903855 0.88405865
vt 0.39045906 0.87143755
vt 0.39806437 0.84448045
vt 0.39099848 0.8193821
vt 0.39569223 0.8388747
vt 0.384135 0.85965234
vt 0.38210762 0.8545395
vt 0.94588757 0.54508495
vt 0.9337878 0.6149008
vt 0.9607122 0.63525033
vt 0.9607122 0.54522276
vt 0.83203816 0.30994254
vt 0.83291936 0.32785565
vt 0.84964466 0.32977825
vt 0.84964466 0.31288707
vt 0.5194447 0.71481156
vt 0.5197934 0.72646844
vt 0.5280774 0.7294166
vt 0.5280774 0.7162937
vt 0.900828 0.3305967
vt 0.900828 0.31327784
vt 0.88556683 0.30994248
vt 0.88766706 0.32749152
vt 0.8595234 0.30994272
vt 0.86158454 0.33040547
vt 0.87568784 0.3308704
vt 0.87568784 0.3101809
vt 0.95139104 0.5224781
vt 0.97881085 0.5224781
vt 0.9780739 0.4440403
vt 0.9658875 0.43994713
vt 0.9783231 0.17845821
vt 0.9624134 0.18624544
vt 0.96568316 0.28508663
vt 0.9783231 0.28449965
vt 0.91267824 0.44686747
vt 0.9309039 0.44381332
vt 0.9309039 0.34109497
vt 0.9167521 0.34597254
vt 0.89377856 0.44506788
vt 0.90595937 0.3434372
vt 0.92777324 0.9053626
vt 0.95032763 0.91350126
vt 0.95032763 0.81307507
vt 0.9344487 0.8057718
vt 0.37220842 0.7090092
vt 0.3584957 0.71402645
vt 0.35918596 0.8100414
vt 0.37220842 0.8077717
vt 0.71239495 0.9928179
vt 0.7293713 0.9944205
vt 0.7293713 0.9121523
vt 0.7144618 0.9131317
vt 0.99506044 0.34109497
vt 0.9771321 0.3433144
vt 0.97975826 0.42393327
vt 0.99506044 0.42593288
vt 0.61547035 0.9915495
vt 0.6319679 0.99025774
vt 0.6319679 0.9143729
vt 0.6168039 0.91583586
vt 0.07465029 0.92108655
vt 0.058978558 0.92426157
vt 0.06531787 0.99183226
vt 0.07465029 0.9913764
vt 0.96020657 0.9731264
vt 0.9798587 0.9770484
vt 0.9798587 0.91504335
vt 0.9712801 0.91527987
vt 0.66023755 0.91453815
vt 0.64184666 0.9143729
vt 0.64924836 0.98161983
vt 0.66023755 0.98232627
vt 0.9249959 0.26968813
vt 0.9525342 0.27178574
vt 0.9525342 0.17845821
vt 0.93807435 0.17901707
vt 0.5019264 0.6140793
vt 0.4366777 0.62432444
vt 0.4838264 0.648052
vt 0.47470522 0.60038024
vt 0.5085516 0.5681559
vt 0.5291476 0.6009809
vt 0.4171481 0.5680815
vt 0.38210773 0.568629
vt 0.40465856 0.63357276
vt 0.40465856 0.50418293
vt 0.4366777 0.5122696
vt 0.4634297 0.5679084
vt 0.47470522 0.5356853
vt 0.4838264 0.48958242
vt 0.5019264 0.52258694
vt 0.5291476 0.536286
vt 0.67831373 0.5987719
vt 0.6874944 0.6285107
vt 0.7215849 0.6130265
vt 0.69547176 0.57377076
vt 0.72891736 0.5681526
vt 0.7376685 0.52296895
vt 0.679739 0.5326999
vt 0.74549353 0.48958248
vt 0.67860234 0.5008188
vt 0.80577624 0.5236942
vt 0.7898749 0.5525106
vt 0.7590587 0.58520854
vt 0.80577624 0.60401976
vt 0.7682394 0.6149473
vt 0.75108147 0.6399485
vt 0.60378116 0.52238154
vt 0.5476599 0.5228578
vt 0.53902674 0.5684233
vt 0.60383004 0.56787324
vt 0.5476668 0.6143445
vt 0.6037881 0.6138681
vt 0.571265 0.6483171
vt 0.6036666 0.6480421
vt 0.65973747 0.6143446
vt 0.635969 0.6483171
vt 0.6684348 0.5684233
vt 0.65973055 0.5228579
vt 0.635957 0.48985755
vt 0.6036546 0.48958242
vt 0.34861684 0.77551734
vt 0.34861684 0.70917475
vt 0.30373192 0.70900893
vt 0.30373192 0.7664634
vt 0.3226118 0.8359337
vt 0.25897884 0.72395325
vt 0.28121114 0.8187854
vt 0.25897884 0.75712454
vt 0.22634912 0.7500032
vt 0.24597645 0.78733265
vt 0.41851377 0.7803159
vt 0.38210773 0.7255797
vt 0.38210773 0.7578646
vt 0.41851377 0.7243968
vt 0.46516657 0.787243
vt 0.46516657 0.72267324
vt 0.5095656 0.7767897
vt 0.41424656 0.66832834
vt 0.5095656 0.7208707
vt 0.46023917 0.6579309
vt 0.5052984 0.6648022
vt 0.66485596 0.7465329
vt 0.6072078 0.76764446
vt 0.6460769 0.78596056
vt 0.6424148 0.7359581
vt 0.5815542 0.71472263
vt 0.53902674 0.7248517
vt 0.56864905 0.78596056
vt 0.5420165 0.65958047
vt 0.5841434 0.6581961
vt 0.62760377 0.7054037
vt 0.66483665 0.6993918
vt 0.62909865 0.672768
vt 0.2959373 0.9605229
vt 0.30397546 0.9618616
vt 0.3109367 0.9574847
vt 0.3149557 0.948565
vt 0.2889762 0.9538269
vt 0.3149557 0.9374924
vt 0.28495705 0.9435682
vt 0.3109367 0.9272337
vt 0.28495705 0.9324956
vt 0.30397546 0.9205377
vt 0.2889762 0.9235759
vt 0.2959373 0.919199
vt 0.88705045 0.9667251
vt 0.89447594 0.96562505
vt 0.9009066 0.9591074
vt 0.88061976 0.96211267
vt 0.90461934 0.94891834
vt 0.87690705 0.9530237
vt 0.90461934 0.93778825
vt 0.87690705 0.9418936
vt 0.9009066 0.92869925
vt 0.88061976 0.9317045
vt 0.89447594 0.9240868
vt 0.88705045 0.9251869
vt 0.15277797 0.92327255
vt 0.14163369 0.9124586
vt 0.12601328 0.91247505
vt 0.15277797 0.9392322
vt 0.114863336 0.92393667
vt 0.14128697 0.95173436
vt 0.11437321 0.9408768
vt 0.12527001 0.95246106
vt 0.75496805 0.9168124
vt 0.74080634 0.91868687
vt 0.74450666 0.9440086
vt 0.7553861 0.9420459
vt 0.76984096 0.91868687
vt 0.74655384 0.96232843
vt 0.76669276 0.9440086
vt 0.75488526 0.95911837
vt 0.7633288 0.96232843
vt 0.9336768 0.325557
vt 0.94145477 0.32847142
vt 0.9409221 0.30632567
vt 0.9370102 0.30542612
vt 0.92499596 0.32526994
vt 0.94145477 0.2816651
vt 0.93284065 0.30475354
vt 0.036723375 0.9030013
vt 0.049099565 0.89237595
vt 0.02679944 0.8792062
vt 0.016779184 0.88297224
vt 0.025501192 0.91191244
vt 0.02098918 0.8579216
vt 0.0049394965 0.88553953
vt 0.013315856 0.85476637
vt 0.031821728 0.83732605
vt 0.005651474 0.8507805
vt 0.028859138 0.8346429
vt 0.049099565 0.81983757
vt 0.02604127 0.8315506
vt 0.84672165 0.1658001
vt 0.86107904 0.16709876
vt 0.8575454 0.1342187
vt 0.84662074 0.13066101
vt 0.83216614 0.16709876
vt 0.83551866 0.1342187
vt 0.9670671 0.08757138
vt 0.97859657 0.08379841
vt 0.97859657 0.05655551
vt 0.97013086 0.056504726
vt 0.9566938 0.08145046
vt 0.9773279 0.02870369
vt 0.96193254 0.05476904
vt 0.97324777 0.028047085
vt 0.97587615 0.004939556
vt 0.9691631 0.027828455
vt 0.09090704 0.82916737
vt 0.07950312 0.8198378
vt 0.058978498 0.8461268
vt 0.070938945 0.8489907
vt 0.103198946 0.8393929
vt 0.059789836 0.8808341
vt 0.08087516 0.85243416
vt 0.06751776 0.87705326
vt 0.08017522 0.89979124
vt 0.07509911 0.87362814
vt 0.08301878 0.89679766
vt 0.103198946 0.9112077
vt 0.085931 0.8939805
vt 0.18960993 0.952055
vt 0.20059925 0.9408748
vt 0.20091212 0.9241805
vt 0.18997478 0.91245854
vt 0.17401743 0.952055
vt 0.16282567 0.9411665
vt 0.17397869 0.9132314
vt 0.16265693 0.9254503
vt 0.01939395 0.96366525
vt 0.034015432 0.96456075
vt 0.03077063 0.94340205
vt 0.019607455 0.9436307
vt 0.0049394667 0.96456075
vt 0.028015733 0.9217918
vt 0.008552998 0.94340205
vt 0.01958856 0.924319
vt 0.011216909 0.9217918
vt 0.54747087 0.9678047
vt 0.5558244 0.9699037
vt 0.55132806 0.9508803
vt 0.54723144 0.9503306
vt 0.53902674 0.9699037
vt 0.5470816 0.92761505
vt 0.5430802 0.9508803
vt 0.91159594 0.62712383
vt 0.92390895 0.61688995
vt 0.9015899 0.6038737
vt 0.8916327 0.60732365
vt 0.9002358 0.63646936
vt 0.8958052 0.5826869
vt 0.8797011 0.61020327
vt 0.88820106 0.579267
vt 0.9066378 0.56232643
vt 0.8804883 0.5754962
vt 0.90371317 0.5595112
vt 0.92390895 0.54508495
vt 0.9008757 0.5565219
vt 0.443319 0.97523427
vt 0.4573766 0.9748831
vt 0.4537295 0.9417684
vt 0.44307873 0.93973994
vt 0.42851818 0.97523427
vt 0.44953674 0.9130981
vt 0.43174425 0.94203615
vt 0.44125146 0.91014314
vt 0.43280992 0.9133017
vt 0.93551195 0.9233805
vt 0.9277731 0.92688555
vt 0.9359753 0.95252275
vt 0.9398502 0.9513829
vt 0.9442771 0.92411035
vt 0.9442771 0.97714907
vt 0.94406164 0.951163
vt 0.7727273 0.8237629
vt 0.7613332 0.81489825
vt 0.7408063 0.84132385
vt 0.7527603 0.8438482
vt 0.78502405 0.8343723
vt 0.7416122 0.8760793
vt 0.7627013 0.8476021
vt 0.7493368 0.87206626
vt 0.76199806 0.89526725
vt 0.7569232 0.86890316
vt 0.7648403 0.89216423
vt 0.78502405 0.9069333
vt 0.76775527 0.8894794
vn 0.41892028 0.6037815 -0.6781987
vn -0.54222685 0.7867922 -0.29486912
vn -0.9730252 -0.16264252 -0.16361436
vn -0.2367761 -0.25771666 0.9367598
vn -0.54222685 0.7867922 -0.29486912
vn 0.7702594 0.29676908 0.564472
vn -0.35788453 0.047098935 -0.9298165
vn -0.46067506 -0.007637024 -0.87434185
vn 0.62128866 0.48273903 -0.5979165
vn 0.80410844 0.53509563 -0.2556774
vn 0.2530784 0.53760797 -0.6703583
vn 0.5890359 0.68735623 0.08120823
vn -0.31579024 0.72956365 -0.52008057
vn -0.7410137 0.45671993 0.39170918
vn 0.61230886 0.6047606 0.3351553
vn 0.4085707 0.54720014 0.593924
vn -0.9014472 0.3346723 0.08513333
vn 0.14146908 0.7704175 0.5995221
vn -0.95000964 0.24192326 -0.13486187
vn -0.02759406 0.59479177 0.7755406
vn -0.86599016 0.26543424 -0.36021712
vn -0.5003021 -0.1558115 0.83897126
vn -0.8232236 0.44322062 -0.3418941
vn -0.54539347 -0.5753212 0.60355186
vn -0.80671215 0.5522987 0.09393588
vn -0.13389063 -0.86137474 0.4811731
vn -0.9236302 0.24723083 0.2780159
vn -0.13577467 -0.55822814 0.8185023
vn -0.9889506 -0.035569996 -0.14391658
vn -0.3556854 -0.1788563 0.91733205
vn -0.83818024 -0.42915806 -0.33656693
vn -0.5944567 0.2211321 0.7731248
vn -0.6243407 -0.7454017 -0.23361257
vn -0.8647427 0.39251548 0.3132925
vn -0.41043887 -0.91188323 0.0029126704
vn -0.937371 0.17859918 -0.29906222
vn -0.4712199 -0.7161623 0.5148426
vn -0.7431726 -0.4208905 -0.52014005
vn -0.4323082 -0.3188697 0.843464
vn -0.44550058 -0.81339025 -0.3740658
vn -0.64849824 -0.04005769 0.7601616
vn -0.08554053 -0.96185875 0.2598269
vn -0.9667677 -0.018310785 0.2550005
vn -0.2367761 -0.25771666 0.9367598
vn -0.9730252 -0.16264252 -0.16361436
vn -0.54222685 0.7867922 -0.29486912
vn 0.29863155 -0.301121 0.84886724
vn 0.29940015 -0.875742 0.21828482
vn -0.57453775 -0.75387526 0.14153948
vn -0.5805624 -0.18340608 0.75091165
vn -0.3744553 -0.03680083 0.8027183
vn -0.35495558 -0.74916947 0.24982277
vn -0.621344 0.62757623 0.27725333
vn -0.5214322 -0.41613257 0.6481713
vn -0.77321833 0.5982784 -0.03609699
vn -0.3653458 -0.57579166 0.72022593
vn -0.8752741 0.40822196 -0.14843172
vn -0.16736057 -0.071410716 0.9833064
vn -0.8560219 -0.5034667 -0.11725255
vn -0.03168898 -0.55105746 0.8338655
vn -0.35495558 -0.74916947 0.24982277
vn -0.57453775 -0.75387526 0.14153948
vn 0.29940015 -0.875742 0.21828482
vn 0.32570443 -0.7534389 0.24081331
vn -0.5214322 -0.41613257 0.6481713
vn 0.6062746 -0.27335107 0.61232275
vn 0.28774178 -0.83917737 0.15790367
vn -0.31343973 -0.9426251 -0.05042565
vn 0.8336054 -0.30069956 0.46136025
vn -0.72986096 -0.12010199 0.6727087
vn 0.8666712 0.15122709 0.47016126
vn -0.15507385 -0.89590335 0.24306989
vn -0.3653458 -0.57579166 0.72022593
vn 0.67618316 -0.39008355 -0.52085143
vn 0.6445732 -0.7171278 -0.17402536
vn -0.64091307 -0.48835713 -0.46725318
vn -0.16736057 -0.071410716 0.9833064
vn -0.024917863 -0.48941493 -0.8215431
vn 0.9418776 -0.27930593 -0.09681007
vn -0.03168898 -0.55105746 0.8338655
vn 0.836329 -0.5467883 0.039711088
vn 0.8461411 -0.22729452 -0.23964185
vn -0.0002841279 -0.39815193 -0.9021609
vn 0.9487266 0.08279705 -0.17597535
vn 0.14964066 -0.02158311 -0.9523669
vn 0.9761162 -0.03741178 -0.008776315
vn 0.3247451 0.5189019 -0.7821683
vn 0.94869304 -0.06241858 0.28201792
vn 0.3033899 0.88143384 -0.3118144
vn 0.91573495 -0.38400742 0.07358732
vn 0.35596523 0.9090183 -0.19413489
vn 0.94274133 -0.30935228 0.08411498
vn 0.33804476 0.6950889 -0.6344894
vn 0.90007746 0.012124032 0.43556142
vn 0.48148638 0.29746553 -0.8244301
vn 0.7462295 0.4278708 0.50996864
vn 0.6930325 -0.02004075 -0.7206278
vn 0.45914897 0.80125964 0.38362086
vn 0.8586032 -0.21313396 -0.4662348
vn 0.19709459 0.97717553 -0.07925427
vn 0.99543875 0.09139782 -0.027361311
vn 0.07450779 0.7357515 -0.6731403
vn 0.84519255 0.38453686 0.3711888
vn 0.34393418 0.17768303 -0.9220292
vn 0.6732808 0.687729 0.2715174
vn 0.6033312 -0.23589134 -0.7618051
vn 0.52106255 0.8009058 -0.29503083
vn 0.90235454 -0.4179123 -0.105384916
vn 0.41892028 0.6037815 -0.6781987
vn 0.7702594 0.29676908 0.564472
vn -0.54222685 0.7867922 -0.29486912
vn 0.3220142 -0.056156576 0.7806491
vn 0.29863155 -0.301121 0.84886724
vn -0.5805624 -0.18340608 0.75091165
vn -0.3744553 -0.03680083 0.8027183
vn -0.621344 0.62757623 0.27725333
vn 0.4487236 0.33740294 -0.8245524
vn -0.77321833 0.5982784 -0.03609699
vn 0.16178668 0.2887892 -0.9377701
vn -0.8752741 0.40822196 -0.14843172
vn 0.12257743 -0.5514149 -0.82517684
vn -0.8560219 -0.5034667 -0.11725255
vn 0.32570443 -0.7534389 0.24081331
vn 0.29940015 -0.875742 0.21828482
vn 0.29863155 -0.301121 0.84886724
vn 0.3220142 -0.056156576 0.7806491
vn 0.6062746 -0.27335107 0.61232275
vn 0.5890359 0.68735623 0.08120823
vn 0.8336054 -0.30069956 0.46136025
vn 0.80410844 0.53509563 -0.2556774
vn 0.8666712 0.15122709 0.47016126
vn 0.62128866 0.48273903 -0.5979165
vn 0.7688728 -0.2021036 0.606621
vn 0.64948916 -0.5431429 -0.5321275
vn -0.64091307 -0.48835713 -0.46725318
vn -0.9014472 0.3346723 0.08513333
vn -0.7410137 0.45671993 0.39170918
vn -0.024917863 -0.48941493 -0.8215431
vn -0.95000964 0.24192326 -0.13486187
vn -0.0002841279 -0.39815193 -0.9021609
vn -0.86599016 0.26543424 -0.36021712
vn 0.14964066 -0.02158311 -0.9523669
vn 0.61230886 0.6047606 0.3351553
vn 0.4085707 0.54720014 0.593924
vn 0.8461411 -0.22729452 -0.23964185
vn 0.67618316 -0.39008355 -0.52085143
vn -0.02759406 0.59479177 0.7755406
vn -0.5003021 -0.1558115 0.83897126
vn 0.94869304 -0.06241858 0.28201792
vn 0.9761162 -0.03741178 -0.008776315
vn 0.14146908 0.7704175 0.5995221
vn 0.9487266 0.08279705 -0.17597535
vn 0.4085707 0.54720014 0.593924
vn 0.8461411 -0.22729452 -0.23964185
vn 0.14964066 -0.02158311 -0.9523669
vn -0.8232236 0.44322062 -0.3418941
vn -0.86599016 0.26543424 -0.36021712
vn 0.3247451 0.5189019 -0.7821683
vn -0.80671215 0.5522987 0.09393588
vn 0.3033899 0.88143384 -0.3118144
vn -0.9236302 0.24723083 0.2780159
vn 0.35596523 0.9090183 -0.19413489
vn -0.9889506 -0.035569996 -0.14391658
vn 0.33804476 0.6950889 -0.6344894
vn -0.83818024 -0.42915806 -0.33656693
vn 0.48148638 0.29746553 -0.8244301
vn -0.5003021 -0.1558115 0.83897126
vn 0.91573495 -0.38400742 0.07358732
vn 0.94869304 -0.06241858 0.28201792
vn -0.54539347 -0.5753212 0.60355186
vn 0.94274133 -0.30935228 0.08411498
vn -0.13389063 -0.86137474 0.4811731
vn 0.90007746 0.012124032 0.43556142
vn -0.13577467 -0.55822814 0.8185023
vn 0.48148638 0.29746553 -0.8244301
vn -0.6243407 -0.7454017 -0.23361257
vn -0.83818024 -0.42915806 -0.33656693
vn 0.6930325 -0.02004075 -0.7206278
vn -0.41043887 -0.91188323 0.0029126704
vn 0.8586032 -0.21313396 -0.4662348
vn -0.13577467 -0.55822814 0.8185023
vn 0.7462295 0.4278708 0.50996864
vn 0.90007746 0.012124032 0.43556142
vn -0.3556854 -0.1788563 0.91733205
vn 0.45914897 0.80125964 0.38362086
vn -0.5944567 0.2211321 0.7731248
vn 0.19709459 0.97717553 -0.07925427
vn -0.8647427 0.39251548 0.3132925
vn -0.937371 0.17859918 -0.29906222
vn -0.7431726 -0.4208905 -0.52014005
vn 0.34393418 0.17768303 -0.9220292
vn 0.07450779 0.7357515 -0.6731403
vn -0.8647427 0.39251548 0.3132925
vn 0.19709459 0.97717553 -0.07925427
vn 0.8586032 -0.21313396 -0.4662348
vn -0.4712199 -0.7161623 0.5148426
vn -0.41043887 -0.91188323 0.0029126704
vn 0.99543875 0.09139782 -0.027361311
vn -0.4323082 -0.3188697 0.843464
vn 0.84519255 0.38453686 0.3711888
vn -0.7431726 -0.4208905 -0.52014005
vn 0.6033312 -0.23589134 -0.7618051
vn 0.34393418 0.17768303 -0.9220292
vn -0.44550058 -0.81339025 -0.3740658
vn 0.90235454 -0.4179123 -0.105384916
vn -0.08554053 -0.96185875 0.2598269
vn 0.84519255 0.38453686 0.3711888
vn -0.64849824 -0.04005769 0.7601616
vn -0.4323082 -0.3188697 0.843464
vn 0.6732808 0.687729 0.2715174
vn -0.9667677 -0.018310785 0.2550005
vn 0.52106255 0.8009058 -0.29503083
vn -0.08554053 -0.96185875 0.2598269
vn -0.2367761 -0.25771666 0.9367598
vn 0.7702594 0.29676908 0.564472
vn 0.90235454 -0.4179123 -0.105384916
vn 0.52106255 0.8009058 -0.29503083
vn 0.41892028 0.6037815 -0.6781987
vn -0.9730252 -0.16264252 -0.16361436
vn -0.9667677 -0.018310785 0.2550005
vn 0.61230886 0.6047606 0.3351553
vn 0.67618316 -0.39008355 -0.52085143
vn 0.28774178 -0.83917737 0.15790367
vn 0.2530784 0.53760797 -0.6703583
vn -0.64091307 -0.48835713 -0.46725318
vn -0.7410137 0.45671993 0.39170918
vn -0.31579024 0.72956365 -0.52008057
vn -0.15507385 -0.89590335 0.24306989
vn -0.72986096 -0.12010199 0.6727087
vn -0.54717684 -0.7979978 -0.25258115
vn -0.46067506 -0.007637024 -0.87434185
vn -0.38156652 -0.40401262 0.83137316
vn 0.8666712 0.15122709 0.47016126
vn 0.7688728 -0.2021036 0.606621
vn -0.31343973 -0.9426251 -0.05042565
vn -0.72986096 -0.12010199 0.6727087
vn -0.46067506 -0.007637024 -0.87434185
vn -0.35788453 0.047098935 -0.9298165
vn 0.28774178 -0.83917737 0.15790367
vn 0.2530784 0.53760797 -0.6703583
vn -0.54717684 -0.7979978 -0.25258115
vn -0.38156652 -0.40401262 0.83137316
vn 0.7688728 -0.2021036 0.606621
vn 0.64948916 -0.5431429 -0.5321275
vn -0.46067506 -0.007637024 -0.87434185
vn -0.54717684 -0.7979978 -0.25258115
vn 0.64948916 -0.5431429 -0.5321275
vn 0.62128866 0.48273903 -0.5979165
vn -0.31579024 0.72956365 -0.52008057
vn 0.6445732 -0.7171278 -0.17402536
vn -0.15507385 -0.89590335 0.24306989
vn 0.4487236 0.33740294 -0.8245524
vn 0.9418776 -0.27930593 -0.09681007
vn 0.16178668 0.2887892 -0.9377701
vn 0.836329 -0.5467883 0.039711088
vn 0.12257743 -0.5514149 -0.82517684
vn 0.836329 -0.5467883 0.039711088
vn 0.12257743 -0.5514149 -0.82517684
vn -0.8560219 -0.5034667 -0.11725255
vn -0.03168898 -0.55105746 0.8338655
vn 0.025603099 0.7411935 -0.6708034
vn 0.6724139 -0.34794658 -0.65329385
vn 0.5091907 0.7022324 -0.49758905
vn 0.12803864 -0.33168322 -0.93466175
vn -0.25494474 -0.30614206 -0.91721356
vn -0.4057304 0.663835 -0.6282565
vn 0.3321495 0.83501977 0.43865597
vn -0.24619499 0.44150442 0.8628222
vn -0.117945634 0.8621 0.49282092
vn 0.58295494 0.42454758 0.692765
vn 0.5280906 0.84732175 0.056271166
vn 0.88137054 0.41618454 0.2235547
vn 0.5091907 0.7022324 -0.49758905
vn 0.6724139 -0.34794658 -0.65329385
vn 0.99403733 0.018655904 0.107432365
vn 0.5483522 -0.32809767 -0.76919556
vn 0.4664887 -0.34378362 0.81498563
vn 0.9179067 -0.09080059 0.3862677
vn 0.06442788 -0.052185327 0.9965572
vn 0.5930279 0.07708749 0.8014835
vn -0.3749046 0.3395687 0.8626354
vn 0.8596936 -0.110573225 0.4986992
vn 0.4241963 -0.313363 0.8496244
vn 0.030715108 -0.14198232 0.9893928
vn 0.9838016 -0.17853583 0.016107284
vn -0.47403374 -0.22004974 0.8525671
vn 0.85627073 -0.4343989 0.27946052
vn 0.12661648 -0.24238643 -0.9618823
vn -0.94552046 0.03503231 -0.32367265
vn -0.9334194 0.15059912 -0.32565054
vn -0.25494474 -0.30614206 -0.91721356
vn -0.72908676 -0.6755829 -0.10744339
vn 0.5483522 -0.32809767 -0.76919556
vn 0.6724139 -0.34794658 -0.65329385
vn -0.1958864 -0.828108 -0.5248061
vn 0.9179067 -0.09080059 0.3862677
vn 0.4664887 -0.34378362 0.81498563
vn 0.22280768 -0.96998346 -0.09741086
vn -0.25494474 -0.30614206 -0.91721356
vn 0.12803864 -0.33168322 -0.93466175
vn -0.5986987 -0.78856343 -0.13988587
vn 0.033541843 -0.036311418 -0.9986875
vn -0.9989039 -0.034276128 0.02967814
vn 0.030715108 -0.14198232 0.9893928
vn 0.9838016 -0.17853583 0.016107284
vn -0.0385149 -0.80834824 -0.5874436
vn 0.8596936 -0.110573225 0.4986992
vn 0.4241963 -0.313363 0.8496244
vn -0.50824577 -0.8281282 -0.23641089
vn -0.101933785 -0.8088992 -0.57904387
vn -0.8294176 -0.099220365 0.5497471
vn 0.06442788 -0.052185327 0.9965572
vn 0.5930279 0.07708749 0.8014835
vn -0.88851434 -0.4066046 0.21263826
vn 0.36791244 -0.39006686 -0.84409034
vn -0.92970186 -0.32701457 -0.16945815
vn 0.12661648 -0.24238643 -0.9618823
vn 0.85627073 -0.4343989 0.27946052
vn 0.22280768 -0.96998346 -0.09741086
vn -0.25494474 -0.30614206 -0.91721356
vn -0.92970186 -0.32701457 -0.16945815
vn -0.41321355 0.21770248 0.8842288
vn 0.87826335 0.1610491 0.4502409
vn 0.36791244 -0.39006686 -0.84409034
vn -0.101933785 -0.8088992 -0.57904387
vn 0.5930279 0.07708749 0.8014835
vn -0.0808921 -0.33913147 0.93712074
vn 0.94616306 -0.31958494 0.048809588
vn -0.017146658 0.029699117 -0.9992504
vn -0.9973346 0.027721524 0.06481779
vn -0.27569965 -0.073563874 0.95842505
vn 0.95951396 -0.18655545 0.21102145
vn 0.20125395 -0.19808328 -0.959302
vn -0.9644559 -0.052062217 -0.25906464
vn 0.5930279 0.07708749 0.8014835
vn 0.87826335 0.1610491 0.4502409
vn -0.41321355 0.21770248 0.8842288
vn -0.3749046 0.3395687 0.8626354
vn -0.3749046 0.3395687 0.8626354
vn -0.41321355 0.21770248 0.8842288
vn -0.92970186 -0.32701457 -0.16945815
vn -0.88851434 -0.4066046 0.21263826
vn -0.24619499 0.44150442 0.8628222
vn -0.8294176 -0.099220365 0.5497471
vn -0.117945634 0.8621 0.49282092
vn -0.7126253 0.6616509 0.23320183
vn 0.5280906 0.84732175 0.056271166
vn 0.3321495 0.83501977 0.43865597
vn -0.9334194 0.15059912 -0.32565054
vn -0.94552046 0.03503231 -0.32367265
vn -0.47403374 -0.22004974 0.8525671
vn -0.64905703 0.7071582 -0.2804502
vn -0.25494474 -0.30614206 -0.91721356
vn -0.4057304 0.663835 -0.6282565
vn 0.025603099 0.7411935 -0.6708034
vn 0.5091907 0.7022324 -0.49758905
vn 0.06442788 -0.052185327 0.9965572
vn -0.27569965 -0.073563874 0.95842505
vn -0.9644559 -0.052062217 -0.25906464
vn -0.50824577 -0.8281282 -0.23641089
vn -0.0385149 -0.80834824 -0.5874436
vn 0.20125395 -0.19808328 -0.959302
vn 0.95951396 -0.18655545 0.21102145
vn 0.8596936 -0.110573225 0.4986992
vn -0.50824577 -0.8281282 -0.23641089
vn -0.9644559 -0.052062217 -0.25906464
vn 0.20125395 -0.19808328 -0.959302
vn -0.0385149 -0.80834824 -0.5874436
vn 0.8596936 -0.110573225 0.4986992
vn 0.95951396 -0.18655545 0.21102145
vn -0.27569965 -0.073563874 0.95842505
vn 0.06442788 -0.052185327 0.9965572
vn -0.1958864 -0.828108 -0.5248061
vn 0.033541843 -0.036311418 -0.9986875
vn 0.9838016 -0.17853583 0.016107284
vn 0.9179067 -0.09080059 0.3862677
vn 0.4241963 -0.313363 0.8496244
vn 0.030715108 -0.14198232 0.9893928
vn -0.9989039 -0.034276128 0.02967814
vn -0.5986987 -0.78856343 -0.13988587
vn 0.99403733 0.018655904 0.107432365
vn -0.0808921 -0.33913147 0.93712074
vn 0.4664887 -0.34378362 0.81498563
vn 0.94616306 -0.31958494 0.048809588
vn 0.5483522 -0.32809767 -0.76919556
vn -0.017146658 0.029699117 -0.9992504
vn 0.4664887 -0.34378362 0.81498563
vn -0.0808921 -0.33913147 0.93712074
vn -0.9973346 0.027721524 0.06481779
vn -0.72908676 -0.6755829 -0.10744339
vn -0.017146658 0.029699117 -0.9992504
vn 0.5483522 -0.32809767 -0.76919556
vn 0.22280768 -0.96998346 -0.09741086
vn 0.85627073 -0.4343989 0.27946052
vn -0.47403374 -0.22004974 0.8525671
vn -0.8294176 -0.099220365 0.5497471
vn 0.15201259 0.92211205 0.35581112
vn 0.98261404 0.11949903 0.14209169
vn 0.5500094 0.5421078 0.635302
vn 0.5712514 0.8125386 -0.1159863
vn -0.0260119 0.6792508 -0.7334455
vn 0.30576706 0.79079866 -0.5302306
vn -0.43215442 0.67410266 -0.59902304
vn -0.79004604 0.5639922 -0.24029303
vn -0.2510085 0.8194674 0.5152359
vn -0.592172 0.7614256 0.2637499
vn 0.30576706 0.79079866 -0.5302306
vn -0.0260119 0.6792508 -0.7334455
vn -0.13938713 -0.3217419 -0.9365114
vn 0.6499193 0.29028112 -0.7023833
vn 0.5712514 0.8125386 -0.1159863
vn -0.30126065 -0.64361864 -0.7035602
vn 0.98261404 0.11949903 0.14209169
vn 0.689216 -0.2811859 -0.6677697
vn 0.7613292 -0.5680181 0.31262392
vn -0.43215442 0.67410266 -0.59902304
vn -0.79004604 0.5639922 -0.24029303
vn -0.8128847 -0.5076755 -0.2854539
vn -0.43999565 -0.41912755 -0.79418886
vn -0.13938713 -0.3217419 -0.9365114
vn -0.0260119 0.6792508 -0.7334455
vn -0.2510085 0.8194674 0.5152359
vn 0.15201259 0.92211205 0.35581112
vn 0.5500094 0.5421078 0.635302
vn -0.2822336 0.46189308 0.8408324
vn -0.2406412 0.12039426 0.9631187
vn 0.35410327 0.09332073 0.93053865
vn -0.6202481 -0.0043664575 0.7843939
vn -0.592172 0.7614256 0.2637499
vn -0.10309808 -0.2706345 0.95714587
vn -0.77917516 0.2355996 0.5808436
vn -0.79004604 0.5639922 -0.24029303
vn -0.8128847 -0.5076755 -0.2854539
vn -0.6336893 -0.245542 0.7335854
vn 0.4409156 -0.55956244 0.7005283
vn -0.5626058 -0.7660519 0.30824292
vn -0.07800251 -0.4638603 0.882468
vn -0.84519523 -0.14667487 0.51393765
vn -0.7592507 -0.45076916 -0.46940994
vn 0.52610654 -0.65812093 0.5362781
vn -0.5667721 -0.7629121 0.30648708
vn 0.7613292 -0.5680181 0.31262392
vn 0.689216 -0.2811859 -0.6677697
vn -0.30126065 -0.64361864 -0.7035602
vn -0.33625603 -0.8443204 0.41719925
vn 0.5500094 0.5421078 0.635302
vn 0.98261404 0.11949903 0.14209169
vn 0.9400946 -0.27639598 -0.19956987
vn 0.72530454 0.38492045 0.5707623
vn 0.7412939 -0.6186821 -0.26022345
vn -0.2406412 0.12039426 0.9631187
vn 0.67721623 -0.19338462 0.70991606
vn -0.37926114 -0.47241613 0.7956031
vn 0.9400946 -0.27639598 -0.19956987
vn 0.98261404 0.11949903 0.14209169
vn -0.08734405 -0.99563026 0.033038586
vn -0.047480017 -0.84333915 -0.5352799
vn -0.8128847 -0.5076755 -0.2854539
vn -0.13938713 -0.3217419 -0.9365114
vn -0.43999565 -0.41912755 -0.79418886
vn 0.5023134 -0.76468796 -0.40365058
vn 0.35410327 0.09332073 0.93053865
vn -0.2406412 0.12039426 0.9631187
vn -0.0656856 -0.84996605 -0.52189636
vn 0.59729946 -0.7088704 -0.37182397
vn -0.6202481 -0.0043664575 0.7843939
vn -0.10309808 -0.2706345 0.95714587
vn 0.080486774 -0.8340247 -0.53915554
vn -0.7592507 -0.45076916 -0.46940994
vn 0.69480824 -0.58349323 -0.418081
vn -0.6336893 -0.245542 0.7335854
vn -0.07800251 -0.4638603 0.882468
vn -0.30126065 -0.64361864 -0.7035602
vn -0.13938713 -0.3217419 -0.9365114
vn -0.08734405 -0.99563026 0.033038586
vn -0.33625603 -0.8443204 0.41719925
vn 0.7412939 -0.6186821 -0.26022345
vn -0.4518574 -0.84314 -0.29144433
vn -0.37926114 -0.47241613 0.7956031
vn 0.67721623 -0.19338462 0.70991606
vn 0.52610654 -0.65812093 0.5362781
vn 0.84970707 -0.3520014 -0.39241877
vn -0.18368298 -0.61509264 -0.7645291
vn -0.5667721 -0.7629121 0.30648708
vn 0.4409156 -0.55956244 0.7005283
vn 0.8444599 -0.38955587 -0.36750966
vn -0.28816018 -0.5689015 -0.76859045
vn -0.5626058 -0.7660519 0.30824292
vn 0.6473014 -0.36146742 0.67107576
vn 0.7151221 -0.5425308 -0.44075078
vn -0.35208195 -0.72209394 -0.59549856
vn -0.5028212 -0.6828836 0.5299443
vn -0.047480017 -0.84333915 -0.5352799
vn -0.2406412 0.12039426 0.9631187
vn -0.37926114 -0.47241613 0.7956031
vn -0.4518574 -0.84314 -0.29144433
vn 0.9400946 -0.27639598 -0.19956987
vn -0.047480017 -0.84333915 -0.5352799
vn -0.4518574 -0.84314 -0.29144433
vn 0.7412939 -0.6186821 -0.26022345
vn 0.35410327 0.09332073 0.93053865
vn 0.5023134 -0.76468796 -0.40365058
vn 0.7151221 -0.5425308 -0.44075078
vn 0.6473014 -0.36146742 0.67107576
vn -0.6202481 -0.0043664575 0.7843939
vn -0.5028212 -0.6828836 0.5299443
vn -0.0656856 -0.84996605 -0.52189636
vn -0.6202481 -0.0043664575 0.7843939
vn -0.5028212 -0.6828836 0.5299443
vn -0.35208195 -0.72209394 -0.59549856
vn 0.5023134 -0.76468796 -0.40365058
vn -0.0656856 -0.84996605 -0.52189636
vn -0.35208195 -0.72209394 -0.59549856
vn 0.7151221 -0.5425308 -0.44075078
vn 0.080486774 -0.8340247 -0.53915554
vn -0.6336893 -0.245542 0.7335854
vn -0.5626058 -0.7660519 0.30824292
vn -0.28816018 -0.5689015 -0.76859045
vn -0.10309808 -0.2706345 0.95714587
vn 0.59729946 -0.7088704 -0.37182397
vn 0.8444599 -0.38955587 -0.36750966
vn 0.4409156 -0.55956244 0.7005283
vn 0.59729946 -0.7088704 -0.37182397
vn 0.080486774 -0.8340247 -0.53915554
vn -0.28816018 -0.5689015 -0.76859045
vn 0.8444599 -0.38955587 -0.36750966
vn -0.07800251 -0.4638603 0.882468
vn 0.69480824 -0.58349323 -0.418081
vn 0.84970707 -0.3520014 -0.39241877
vn 0.52610654 -0.65812093 0.5362781
vn 0.69480824 -0.58349323 -0.418081
vn -0.7592507 -0.45076916 -0.46940994
vn -0.18368298 -0.61509264 -0.7645291
vn 0.84970707 -0.3520014 -0.39241877
vn -0.7592507 -0.45076916 -0.46940994
vn -0.84519523 -0.14667487 0.51393765
vn -0.5667721 -0.7629121 0.30648708
vn -0.18368298 -0.61509264 -0.7645291
vn -0.08734405 -0.99563026 0.033038586
vn 0.98261404 0.11949903 0.14209169
vn 0.7613292 -0.5680181 0.31262392
vn -0.33625603 -0.8443204 0.41719925
vn 0.037812844 0.85776484 -0.5126498
vn 0.6441334 0.75403124 -0.12856579
vn 0.022939995 0.9989868 -0.038716942
vn 0.42250812 0.7060678 -0.5682916
vn 0.04335083 0.43909612 -0.89739364
vn -0.34774393 0.722627 -0.59739804
vn 0.9000492 0.18939522 -0.3924806
vn 0.9990563 -0.021478385 0.037752733
vn 0.7083468 0.61992395 0.3375486
vn 0.70453197 -0.65029913 -0.284158
vn 0.640775 -0.36416504 -0.67586327
vn 0.58099234 0.3563978 -0.73172975
vn 0.42042807 0.013586819 -0.9072241
vn 0.018190607 -0.582381 -0.81271255
vn 0.03487198 -0.12155074 -0.99197257
vn -0.34982345 0.03014633 -0.93633044
vn -0.03487082 0.1215508 0.99197245
vn 0.34982377 -0.03014642 0.9363303
vn -0.04335092 -0.43909615 0.89739364
vn -0.42042854 -0.013586611 0.90722394
vn -0.5809933 -0.35639757 0.73172927
vn -0.9000493 -0.18939508 0.39248028
vn -0.6407751 0.3641651 0.67586315
vn -0.9990563 0.021478362 -0.037752673
vn -0.7045321 0.6502989 0.28415823
vn -0.7083469 -0.6199239 -0.33754838
vn -0.64413345 -0.7540312 0.12856567
vn -0.42250806 -0.7060679 0.56829137
vn -0.022939883 -0.99898684 0.038716972
vn -0.03781244 -0.857765 0.51264936
vn 0.34774372 -0.72262704 0.59739804
vn 0.022939995 0.9989868 -0.038716942
vn 0.6441334 0.75403124 -0.12856579
vn 0.7083468 0.61992395 0.3375486
vn 0.0026974494 0.89818335 0.43961287
vn 0.60300255 0.3374253 0.72286385
vn -0.018190742 0.5823811 0.8127123
vn 0.34982377 -0.03014642 0.9363303
vn -0.03487082 0.1215508 0.99197245
vn -0.6407751 0.3641651 0.67586315
vn -0.42042854 -0.013586611 0.90722394
vn -0.7045321 0.6502989 0.28415823
vn -0.5996448 0.7807708 -0.17556608
vn -0.34774393 0.722627 -0.59739804
vn 0.037812844 0.85776484 -0.5126498
vn 0.9990563 -0.021478385 0.037752733
vn 0.70453197 -0.65029913 -0.284158
vn 0.59964454 -0.7807708 0.17556626
vn 0.8589185 -0.2272107 0.45894915
vn 0.7083468 0.61992395 0.3375486
vn 0.34774372 -0.72262704 0.59739804
vn 0.60300255 0.3374253 0.72286385
vn 0.50830764 -0.37981635 0.7728927
vn -0.04335092 -0.43909615 0.89739364
vn 0.34982377 -0.03014642 0.9363303
vn 0.59964454 -0.7807708 0.17556626
vn -0.03781244 -0.857765 0.51264936
vn 0.34774372 -0.72262704 0.59739804
vn -0.022939883 -0.99898684 0.038716972
vn 0.70453197 -0.65029913 -0.284158
vn -0.0026974494 -0.89818335 -0.43961287
vn 0.640775 -0.36416504 -0.67586327
vn -0.64413345 -0.7540312 0.12856567
vn 0.018190607 -0.582381 -0.81271255
vn -0.7083469 -0.6199239 -0.33754838
vn -0.6030031 -0.33742535 -0.72286344
vn 0.03487198 -0.12155074 -0.99197257
vn -0.6030031 -0.33742535 -0.72286344
vn 0.018190607 -0.582381 -0.81271255
vn -0.34982345 0.03014633 -0.93633044
vn -0.85891885 0.22721049 -0.4589487
vn -0.9990563 0.021478362 -0.037752673
vn -0.7083469 -0.6199239 -0.33754838
vn -0.7045321 0.6502989 0.28415823
vn -0.5996448 0.7807708 -0.17556608
vn -0.5083085 0.37981611 -0.77289224
vn 0.04335083 0.43909612 -0.89739364
vn -0.34774393 0.722627 -0.59739804
vn 0.05401547 -0.9815593 -0.18336812
vn 0.05401547 -0.9815593 -0.18336812
vn 0.05401547 -0.9815593 -0.18336812
vn 0.05401547 -0.9815593 -0.18336812
vn 0.05401547 -0.9815593 -0.18336812
vn 0.05401547 -0.9815593 -0.18336812
vn 0.05401547 -0.9815593 -0.18336812
vn 0.05401547 -0.9815593 -0.18336812
vn 0.05401547 -0.9815593 -0.18336812
vn 0.05401547 -0.9815593 -0.18336812
vn 0.05401547 -0.9815593 -0.18336812
vn 0.05401547 -0.9815593 -0.18336812
vn -0.4016917 -0.8936801 -0.19994894
vn -0.4016917 -0.8936801 -0.19994894
vn -0.4016917 -0.8936801 -0.19994894
vn -0.4016917 -0.8936801 -0.19994894
vn -0.4016917 -0.8936801 -0.19994894
vn -0.4016917 -0.8936801 -0.19994894
vn -0.4016917 -0.8936801 -0.19994894
vn -0.4016917 -0.8936801 -0.19994894
vn -0.4016917 -0.8936801 -0.19994894
vn -0.4016917 -0.8936801 -0.19994894
vn -0.4016917 -0.8936801 -0.19994894
vn -0.4016917 -0.8936801 -0.19994894
vn -0.066917256 -0.17479232 -0.9823288
vn 0.09990169 0.4371731 -0.8938117
vn -0.063739754 0.88330424 -0.46444696
vn -0.43390846 -0.58198375 -0.6877632
vn -0.4294514 0.9022606 0.038695574
vn -0.80178374 -0.584233 -0.12575594
vn -0.7986423 0.46160316 0.38612592
vn -0.946713 -0.13929208 0.2904
vn -0.946713 -0.13929208 0.2904
vn -0.7986423 0.46160316 0.38612592
vn -0.41168034 0.41254008 0.81260693
vn -0.6315545 -0.33931592 0.6971396
vn -0.80178374 -0.584233 -0.12575594
vn -0.659861 0.6045195 0.44625086
vn -0.41560078 -0.892805 0.17371027
vn -0.9922418 -0.05223759 0.112816304
vn -0.6638391 -0.7200618 -0.20206055
vn -0.9922418 -0.05223759 0.112816304
vn -0.659861 0.6045195 0.44625086
vn -0.6630207 0.73922217 0.11812782
vn -0.9101232 0.18435073 -0.37106672
vn -0.6638391 -0.7200618 -0.20206055
vn -0.7274688 -0.29987365 0.6171427
vn -0.6668752 -0.54355997 -0.50972533
vn -0.43390846 -0.58198375 -0.6877632
vn -0.80178374 -0.584233 -0.12575594
vn -0.41560078 -0.892805 0.17371027
vn 0.11737278 -0.9279011 -0.35386902
vn -0.066917256 -0.17479232 -0.9823288
vn -0.6638391 -0.7200618 -0.20206055
vn 0.6600596 -0.5136038 -0.5482085
vn 0.04243181 -0.9601073 -0.27639386
vn -0.6668752 -0.54355997 -0.50972533
vn 0.6644502 -0.7452101 -0.056282252
vn -0.09888008 -0.9680009 -0.23064493
vn -0.7274688 -0.29987365 0.6171427
vn 0.42338338 -0.8673608 0.26159492
vn 0.09990169 0.4371731 -0.8938117
vn -0.066917256 -0.17479232 -0.9823288
vn 0.6600596 -0.5136038 -0.5482085
vn 0.9185608 0.1715417 -0.35611725
vn -0.063739754 0.88330424 -0.46444696
vn 0.6638388 0.7448039 0.06771463
vn 0.9185608 0.1715417 -0.35611725
vn 0.6600596 -0.5136038 -0.5482085
vn 0.6644502 -0.7452101 -0.056282252
vn 0.93911207 -0.15332767 0.30750495
vn 0.6638388 0.7448039 0.06771463
vn 0.42338338 -0.8673608 0.26159492
vn 0.6681843 0.49838853 0.55239356
vn 0.63064784 -0.34269837 0.6963054
vn -0.7274688 -0.29987365 0.6171427
vn 0.4269576 0.3234622 0.84444034
vn -0.4294514 0.9022606 0.038695574
vn -0.063739754 0.88330424 -0.46444696
vn 0.6638388 0.7448039 0.06771463
vn 0.12270615 0.84812015 0.51539844
vn -0.7986423 0.46160316 0.38612592
vn 0.6681843 0.49838853 0.55239356
vn -0.41168034 0.41254008 0.81260693
vn 0.04773859 0.8070581 0.5885391
vn 0.4269576 0.3234622 0.84444034
vn -0.659861 0.6045195 0.44625086
vn -0.0936404 0.77645755 0.6231736
vn -0.7274688 -0.29987365 0.6171427
vn -0.6630207 0.73922217 0.11812782
vn 0.060943767 -0.17500487 -0.9826796
vn 0.42819282 -0.5834148 -0.69012904
vn 0.79913783 -0.5868895 -0.13015161
vn 0.94782543 -0.14243647 0.2851994
vn -0.103356734 0.4375105 -0.8932537
vn 0.064120084 0.8830924 -0.46479714
vn 0.8022781 0.45894697 0.38172984
vn 0.43264997 0.9008298 0.036329657
vn 0.94782543 -0.14243647 0.2851994
vn 0.79913783 -0.5868895 -0.13015161
vn 0.41358173 -0.8941815 0.1714342
vn 0.6342434 -0.3414165 0.6936643
vn 0.8022781 0.45894697 0.38172984
vn 0.66032636 -0.72225946 -0.20569497
vn 0.41750187 0.4111641 0.81033105
vn 0.9926675 -0.05553162 0.10736686
vn 0.6643038 0.6023215 0.44261652
vn 0.9926675 -0.05553162 0.10736686
vn 0.66032636 -0.72225946 -0.20569497
vn 0.6622602 -0.5457643 -0.513374
vn 0.9086787 0.18133259 -0.37606055
vn 0.6643038 0.6023215 0.44261652
vn 0.7298463 -0.30229244 0.61314243
vn 0.6661127 0.73701346 0.11447753
vn 0.43264997 0.9008298 0.036329657
vn 0.8022781 0.45894697 0.38172984
vn 0.41750187 0.4111641 0.81033105
vn -0.11705923 0.8485179 0.5160567
vn 0.064120084 0.8830924 -0.46479714
vn 0.6643038 0.6023215 0.44261652
vn -0.6609819 0.747002 0.071351916
vn -0.041828156 0.8072066 0.58878535
vn 0.6661127 0.73701346 0.11447753
vn -0.663484 0.5005987 0.55604863
vn 0.09963925 0.7761376 0.6226417
vn 0.7298463 -0.30229244 0.61314243
vn -0.42124042 0.32487053 0.8467679
vn -0.103356734 0.4375105 -0.8932537
vn 0.064120084 0.8830924 -0.46479714
vn -0.6609819 0.747002 0.071351916
vn -0.91992754 0.17459312 -0.35107055
vn 0.060943767 -0.17500487 -0.9826796
vn -0.663484 0.5005987 0.55604863
vn -0.6647598 -0.51140565 -0.54457194
vn -0.9379138 -0.15021196 0.3126567
vn -0.6672182 -0.74300086 -0.052627534
vn -0.9379138 -0.15021196 0.3126567
vn -0.663484 0.5005987 0.55604863
vn -0.42124042 0.32487053 0.8467679
vn -0.6279509 -0.34060904 0.6997594
vn -0.6672182 -0.74300086 -0.052627534
vn 0.7298463 -0.30229244 0.61314243
vn -0.42481586 -0.865954 0.26392263
vn 0.42819282 -0.5834148 -0.69012904
vn 0.060943767 -0.17500487 -0.9826796
vn -0.6647598 -0.51140565 -0.54457194
vn -0.12239246 -0.9275032 -0.35321084
vn 0.79913783 -0.5868895 -0.13015161
vn -0.6672182 -0.74300086 -0.052627534
vn 0.41358173 -0.8941815 0.1714342
vn -0.04713408 -0.95995873 -0.27614793
vn -0.42481586 -0.865954 0.26392263
vn 0.66032636 -0.72225946 -0.20569497
vn 0.09440141 -0.96832085 -0.23117784
vn 0.7298463 -0.30229244 0.61314243
vn 0.6622602 -0.5457643 -0.513374
g 0.1000_0
f 3/3/3 2/2/2 1/1/1
f 6/6/6 5/5/5 4/4/4
f 9/9/9 8/8/8 7/7/7
f 10/10/10 9/9/9 7/7/7
f 10/10/10 7/7/7 11/11/11
f 12/12/12 10/10/10 11/11/11
f 12/12/12 11/11/11 13/13/13
f 13/13/13 11/11/11 14/14/14
f 11/11/11 15/15/15 14/14/14
f 15/15/15 16/16/16 14/14/14
f 16/16/16 17/17/17 14/14/14
f 16/16/16 18/18/18 17/17/17
f 18/18/18 19/19/19 17/17/17
f 18/18/18 20/20/20 19/19/19
f 20/20/20 21/21/21 19/19/19
f 20/20/20 22/22/22 21/21/21
f 22/22/22 23/23/23 21/21/21
f 22/22/22 24/24/24 23/23/23
f 24/24/24 25/25/25 23/23/23
f 24/24/24 26/26/26 25/25/25
f 26/26/26 27/27/27 25/25/25
f 26/26/26 28/28/28 27/27/27
f 28/28/28 29/29/29 27/27/27
f 28/28/28 30/30/30 29/29/29
f 30/30/30 31/31/31 29/29/29
f 30/30/30 32/32/32 31/31/31
f 32/32/32 33/33/33 31/31/31
f 32/32/32 34/34/34 33/33/33
f 34/34/34 35/35/35 33/33/33
f 34/34/34 36/36/36 35/35/35
f 36/36/36 37/37/37 35/35/35
f 36/36/36 38/38/38 37/37/37
f 38/38/38 39/39/39 37/37/37
f 38/38/38 40/40/40 39/39/39
f 40/40/40 41/41/41 39/39/39
f 40/40/40 42/42/42 41/41/41
f 42/42/42 43/43/43 41/41/41
f 42/42/42 44/44/44 43/43/43
f 44/44/44 45/45/45 43/43/43
f 44/44/44 46/46/46 45/45/45
f 49/49/49 48/48/48 47/47/47
f 50/50/50 49/49/49 47/47/47
f 49/49/49 50/50/50 51/51/51
f 52/52/52 49/49/49 51/51/51
f 52/52/52 51/51/51 53/53/53
f 54/54/54 52/52/52 53/53/53
f 53/53/53 55/55/55 54/54/54
f 55/55/55 56/56/56 54/54/54
f 55/55/55 57/57/57 56/56/56
f 57/57/57 58/58/58 56/56/56
f 57/57/57 59/59/59 58/58/58
f 59/59/59 60/60/60 58/58/58
f 63/63/63 62/62/62 61/61/61
f 64/64/64 63/63/63 61/61/61
f 64/64/64 61/61/61 65/65/65
f 66/66/66 64/64/64 65/65/65
f 66/66/66 65/65/65 67/67/67
f 67/67/67 68/68/68 66/66/66
f 68/68/68 69/69/69 66/66/66
f 68/68/68 70/70/70 69/69/69
f 70/70/70 71/71/71 69/69/69
f 65/65/65 72/72/72 67/67/67
f 65/65/65 73/73/73 72/72/72
f 67/67/67 72/72/72 74/74/74
f 73/73/73 75/75/75 72/72/72
f 72/72/72 76/76/76 74/74/74
f 73/73/73 77/77/77 75/75/75
f 76/76/76 78/78/78 74/74/74
f 77/77/77 79/79/79 75/75/75
f 77/77/77 80/80/80 79/79/79
f 80/80/80 81/81/81 79/79/79
f 78/78/78 82/82/82 74/74/74
f 78/78/78 83/83/83 82/82/82
f 83/83/83 84/84/84 82/82/82
f 83/83/83 85/85/85 84/84/84
f 85/85/85 86/86/86 84/84/84
f 85/85/85 87/87/87 86/86/86
f 87/87/87 88/88/88 86/86/86
f 87/87/87 89/89/89 88/88/88
f 89/89/89 90/90/90 88/88/88
f 89/89/89 91/91/91 90/90/90
f 91/91/91 92/92/92 90/90/90
f 91/91/91 93/93/93 92/92/92
f 93/93/93 94/94/94 92/92/92
f 93/93/93 95/95/95 94/94/94
f 95/95/95 96/96/96 94/94/94
f 95/95/95 97/97/97 96/96/96
f 97/97/97 98/98/98 96/96/96
f 97/97/97 99/99/99 98/98/98
f 99/99/99 100/100/100 98/98/98
f 99/99/99 101/101/101 100/100/100
f 101/101/101 102/102/102 100/100/100
f 101/101/101 103/103/103 102/102/102
f 103/103/103 104/104/104 102/102/102
f 103/103/103 105/105/105 104/104/104
f 105/105/105 106/106/106 104/104/104
f 105/105/105 107/107/107 106/106/106
f 107/107/107 108/108/108 106/106/106
f 107/107/107 109/109/109 108/108/108
f 109/109/109 110/110/110 108/108/108
f 109/109/109 111/111/111 110/110/110
f 114/114/114 113/113/113 112/112/112
f 115/115/115 114/114/114 112/112/112
f 115/115/115 112/112/112 12/12/12
f 116/116/116 115/115/115 12/12/12
f 116/116/116 12/12/12 13/13/13
f 13/13/13 117/117/117 116/116/116
f 117/117/117 118/118/118 116/116/116
f 117/117/117 119/119/119 118/118/118
f 119/119/119 120/120/120 118/118/118
f 119/119/119 121/121/121 120/120/120
f 121/121/121 122/122/122 120/120/120
f 125/125/125 124/124/124 123/123/123
f 126/126/126 125/125/125 123/123/123
f 126/126/126 123/123/123 127/127/127
f 128/128/128 126/126/126 127/127/127
f 127/127/127 129/129/129 128/128/128
f 129/129/129 130/130/130 128/128/128
f 129/129/129 131/131/131 130/130/130
f 131/131/131 132/132/132 130/130/130
f 131/131/131 133/133/133 132/132/132
f 133/133/133 134/134/134 132/132/132
f 137/137/137 136/136/136 135/135/135
f 136/136/136 138/138/138 135/135/135
f 136/136/136 139/139/139 138/138/138
f 139/139/139 140/140/140 138/138/138
f 139/139/139 141/141/141 140/140/140
f 141/141/141 142/142/142 140/140/140
f 145/145/145 144/144/144 143/143/143
f 146/146/146 145/145/145 143/143/143
f 149/149/149 148/148/148 147/147/147
f 150/150/150 149/149/149 147/147/147
f 150/150/150 147/147/147 151/151/151
f 152/152/152 150/150/150 151/151/151
f 152/152/152 151/151/151 153/153/153
f 154/154/154 152/152/152 153/153/153
f 157/157/157 156/156/156 155/155/155
f 156/156/156 158/158/158 155/155/155
f 156/156/156 159/159/159 158/158/158
f 159/159/159 160/160/160 158/158/158
f 159/159/159 161/161/161 160/160/160
f 161/161/161 162/162/162 160/160/160
f 161/161/161 163/163/163 162/162/162
f 163/163/163 164/164/164 162/162/162
f 163/163/163 165/165/165 164/164/164
f 165/165/165 166/166/166 164/164/164
f 169/169/169 168/168/168 167/167/167
f 168/168/168 170/170/170 167/167/167
f 168/168/168 171/171/171 170/170/170
f 171/171/171 172/172/172 170/170/170
f 171/171/171 173/173/173 172/172/172
f 173/173/173 174/174/174 172/172/172
f 177/177/177 176/176/176 175/175/175
f 176/176/176 178/178/178 175/175/175
f 176/176/176 179/179/179 178/178/178
f 179/179/179 180/180/180 178/178/178
f 183/183/183 182/182/182 181/181/181
f 182/182/182 184/184/184 181/181/181
f 182/182/182 185/185/185 184/184/184
f 185/185/185 186/186/186 184/184/184
f 185/185/185 187/187/187 186/186/186
f 187/187/187 188/188/188 186/186/186
f 191/191/191 190/190/190 189/189/189
f 192/192/192 191/191/191 189/189/189
f 192/192/192 189/189/189 193/193/193
f 194/194/194 192/192/192 193/193/193
f 197/197/197 196/196/196 195/195/195
f 196/196/196 198/198/198 195/195/195
f 196/196/196 199/199/199 198/198/198
f 199/199/199 200/200/200 198/198/198
f 203/203/203 202/202/202 201/201/201
f 202/202/202 204/204/204 201/201/201
f 202/202/202 205/205/205 204/204/204
f 205/205/205 206/206/206 204/204/204
f 209/209/209 208/208/208 207/207/207
f 208/208/208 210/210/210 207/207/207
f 208/208/208 211/211/211 210/210/210
f 211/211/211 212/212/212 210/210/210
f 215/215/215 214/214/214 213/213/213
f 216/216/216 215/215/215 213/213/213
f 219/219/219 218/218/218 217/217/217
f 220/220/220 219/219/219 217/217/217
f 223/223/223 222/222/222 221/221/221
f 224/224/224 223/223/223 221/221/221
f 227/227/227 226/226/226 225/225/225
f 228/228/228 227/227/227 225/225/225
f 231/231/231 230/230/230 229/229/229
f 230/230/230 232/232/232 229/229/229
f 229/229/229 232/232/232 233/233/233
f 232/232/232 234/234/234 233/233/233
f 237/237/237 236/236/236 235/235/235
f 238/238/238 237/237/237 235/235/235
f 238/238/238 235/235/235 239/239/239
f 240/240/240 238/238/238 239/239/239
f 243/243/243 242/242/242 241/241/241
f 244/244/244 243/243/243 241/241/241
f 247/247/247 246/246/246 245/245/245
f 248/248/248 247/247/247 245/245/245
f 251/251/251 250/250/250 249/249/249
f 250/250/250 252/252/252 249/249/249
f 250/250/250 253/253/253 252/252/252
f 253/253/253 254/254/254 252/252/252
f 253/253/253 255/255/255 254/254/254
f 255/255/255 256/256/256 254/254/254
f 259/259/259 258/258/258 257/257/257
f 260/260/260 259/259/259 257/257/257
f 263/263/263 262/262/262 261/261/261
f 262/262/262 264/264/264 261/261/261
f 261/261/261 264/264/264 265/265/265
f 266/266/266 261/261/261 265/265/265
f 269/269/269 268/268/268 267/267/267
f 268/268/268 270/270/270 267/267/267
f 267/267/267 270/270/270 271/271/271
f 270/270/270 272/272/272 271/271/271
f 271/271/271 272/272/272 273/273/273
f 272/272/272 274/274/274 273/273/273
f 272/272/272 275/275/275 274/274/274
f 275/275/275 276/276/276 274/274/274
f 277/277/277 275/275/275 272/272/272
f 278/278/278 277/277/277 272/272/272
f 278/278/278 272/272/272 270/270/270
f 279/279/279 270/270/270 268/268/268
f 268/268/268 280/280/280 279/279/279
f 268/268/268 281/281/281 280/280/280
f 270/270/270 279/279/279 282/282/282
f 282/282/282 283/283/283 270/270/270
f 283/283/283 278/278/278 270/270/270
f 283/283/283 284/284/284 278/278/278
f 284/284/284 285/285/285 278/278/278
f 288/288/288 287/287/287 286/286/286
f 289/289/289 288/288/288 286/286/286
f 289/289/289 290/290/290 288/288/288
f 290/290/290 291/291/291 288/288/288
f 294/294/294 293/293/293 292/292/292
f 292/292/292 295/295/295 294/294/294
f 295/295/295 292/292/292 296/296/296
f 292/292/292 297/297/297 296/296/296
f 295/295/295 298/298/298 294/294/294
f 294/294/294 298/298/298 299/299/299
f 300/300/300 294/294/294 299/299/299
f 295/295/295 301/301/301 298/298/298
f 295/295/295 302/302/302 301/301/301
f 302/302/302 303/303/303 301/301/301
f 303/303/303 302/302/302 304/304/304
f 302/302/302 305/305/305 304/304/304
f 301/301/301 306/306/306 298/298/298
f 306/306/306 301/301/301 307/307/307
f 301/301/301 308/308/308 307/307/307
f 306/306/306 309/309/309 298/298/298
f 309/309/309 310/310/310 298/298/298
f 310/310/310 311/311/311 298/298/298
f 310/310/310 309/309/309 312/312/312
f 313/313/313 310/310/310 312/312/312
f 310/310/310 314/314/314 311/311/311
f 310/310/310 315/315/315 314/314/314
f 315/315/315 316/316/316 314/314/314
f 319/319/319 318/318/318 317/317/317
f 320/320/320 319/319/319 317/317/317
f 323/323/323 322/322/322 321/321/321
f 324/324/324 323/323/323 321/321/321
f 323/323/323 324/324/324 325/325/325
f 326/326/326 323/323/323 325/325/325
f 329/329/329 328/328/328 327/327/327
f 330/330/330 329/329/329 327/327/327
f 333/333/333 332/332/332 331/331/331
f 334/334/334 333/333/333 331/331/331
f 337/337/337 336/336/336 335/335/335
f 338/338/338 337/337/337 335/335/335
f 341/341/341 340/340/340 339/339/339
f 342/342/342 341/341/341 339/339/339
f 342/342/342 339/339/339 343/343/343
f 344/344/344 342/342/342 343/343/343
f 344/344/344 343/343/343 345/345/345
f 346/346/346 344/344/344 345/345/345
f 346/346/346 345/345/345 347/347/347
f 345/345/345 348/348/348 347/347/347
f 349/349/349 344/344/344 346/346/346
f 349/349/349 350/350/350 344/344/344
f 350/350/350 351/351/351 344/344/344
f 352/352/352 349/349/349 346/346/346
f 352/352/352 346/346/346 347/347/347
f 353/353/353 349/349/349 352/352/352
f 354/354/354 353/353/353 352/352/352
f 354/354/354 352/352/352 347/347/347
f 355/355/355 354/354/354 347/347/347
f 347/347/347 356/356/356 355/355/355
f 359/359/359 358/358/358 357/357/357
f 360/360/360 359/359/359 357/357/357
f 363/363/363 362/362/362 361/361/361
f 364/364/364 363/363/363 361/361/361
f 367/367/367 366/366/366 365/365/365
f 368/368/368 367/367/367 365/365/365
f 371/371/371 370/370/370 369/369/369
f 372/372/372 371/371/371 369/369/369
f 375/375/375 374/374/374 373/373/373
f 376/376/376 375/375/375 373/373/373
f 379/379/379 378/378/378 377/377/377
f 380/380/380 379/379/379 377/377/377
f 383/383/383 382/382/382 381/381/381
f 382/382/382 384/384/384 381/381/381
f 381/381/381 384/384/384 385/385/385
f 384/384/384 386/386/386 385/385/385
f 389/389/389 388/388/388 387/387/387
f 390/390/390 389/389/389 387/387/387
f 391/391/391 389/389/389 390/390/390
f 392/392/392 391/391/391 390/390/390
f 395/395/395 394/394/394 393/393/393
f 396/396/396 395/395/395 393/393/393
f 399/399/399 398/398/398 397/397/397
f 398/398/398 400/400/400 397/397/397
f 401/401/401 397/397/397 400/400/400
f 400/400/400 402/402/402 401/401/401
f 401/401/401 403/403/403 397/397/397
f 403/403/403 404/404/404 397/397/397
f 404/404/404 405/405/405 397/397/397
f 404/404/404 406/406/406 405/405/405
f 409/409/409 408/408/408 407/407/407
f 410/410/410 409/409/409 407/407/407
f 410/410/410 407/407/407 411/411/411
f 409/409/409 410/410/410 412/412/412
f 413/413/413 410/410/410 411/411/411
f 410/410/410 414/414/414 412/412/412
f 414/414/414 410/410/410 413/413/413
f 415/415/415 414/414/414 413/413/413
f 418/418/418 417/417/417 416/416/416
f 419/419/419 418/418/418 416/416/416
f 419/419/419 416/416/416 420/420/420
f 416/416/416 421/421/421 420/420/420
f 424/424/424 423/423/423 422/422/422
f 425/425/425 424/424/424 422/422/422
f 426/426/426 424/424/424 425/425/425
f 427/427/427 426/426/426 425/425/425
f 428/428/428 427/427/427 425/425/425
f 425/425/425 422/422/422 429/429/429
f 425/425/425 430/430/430 428/428/428
f 431/431/431 425/425/425 429/429/429
f 431/431/431 429/429/429 432/432/432
f 433/433/433 431/431/431 432/432/432
f 434/434/434 430/430/430 425/425/425
f 431/431/431 434/434/434 425/425/425
f 435/435/435 430/430/430 434/434/434
f 436/436/436 435/435/435 434/434/434
f 431/431/431 437/437/437 434/434/434
f 438/438/438 431/431/431 433/433/433
f 438/438/438 437/437/437 431/431/431
f 439/439/439 438/438/438 433/433/433
f 440/440/440 437/437/437 438/438/438
f 441/441/441 440/440/440 438/438/438
f 444/444/444 443/443/443 442/442/442
f 445/445/445 444/444/444 442/442/442
f 448/448/448 447/447/447 446/446/446
f 449/449/449 448/448/448 446/446/446
f 450/450/450 448/448/448 449/449/449
f 451/451/451 449/449/449 446/446/446
f 452/452/452 450/450/450 449/449/449
f 452/452/452 449/449/449 451/451/451
f 453/453/453 452/452/452 451/451/451
f 456/456/456 455/455/455 454/454/454
f 454/454/454 457/457/457 456/456/456
f 457/457/457 458/458/458 456/456/456
f 456/456/456 458/458/458 459/459/459
f 458/458/458 460/460/460 459/459/459
f 457/457/457 461/461/461 458/458/458
f 461/461/461 457/457/457 462/462/462
f 457/457/457 463/463/463 462/462/462
f 461/461/461 464/464/464 458/458/458
f 464/464/464 465/465/465 458/458/458
f 465/465/465 464/464/464 466/466/466
f 467/467/467 465/465/465 466/466/466
f 465/465/465 468/468/468 458/458/458
f 468/468/468 469/469/469 458/458/458
f 468/468/468 470/470/470 469/469/469
f 470/470/470 468/468/468 471/471/471
f 472/472/472 470/470/470 471/471/471
f 475/475/475 474/474/474 473/473/473
f 476/476/476 475/475/475 473/473/473
f 479/479/479 478/478/478 477/477/477
f 480/480/480 479/479/479 477/477/477
f 483/483/483 482/482/482 481/481/481
f 484/484/484 483/483/483 481/481/481
f 487/487/487 486/486/486 485/485/485
f 488/488/488 487/487/487 485/485/485
f 491/491/491 490/490/490 489/489/489
f 492/492/492 491/491/491 489/489/489
f 495/495/495 494/494/494 493/493/493
f 496/496/496 495/495/495 493/493/493
f 499/499/499 498/498/498 497/497/497
f 500/500/500 499/499/499 497/497/497
f 503/503/503 502/502/502 501/501/501
f 504/504/504 503/503/503 501/501/501
f 504/504/504 501/501/501 505/505/505
f 506/506/506 504/504/504 505/505/505
f 509/509/509 508/508/508 507/507/507
f 510/510/510 509/509/509 507/507/507
f 513/513/513 512/512/512 511/511/511
f 514/514/514 513/513/513 511/511/511
f 517/517/517 516/516/516 515/515/515
f 518/518/518 517/517/517 515/515/515
f 521/521/521 520/520/520 519/519/519
f 522/522/522 521/521/521 519/519/519
f 525/525/525 524/524/524 523/523/523
f 526/526/526 525/525/525 523/523/523
f 529/529/529 528/528/528 527/527/527
f 530/530/530 529/529/529 527/527/527
f 533/533/533 532/532/532 531/531/531
f 534/534/534 533/533/533 531/531/531
f 537/537/537 536/536/536 535/535/535
f 538/538/538 537/537/537 535/535/535
f 541/541/541 540/540/540 539/539/539
f 542/542/542 541/541/541 539/539/539
f 545/545/545 544/544/544 543/543/543
f 544/544/544 546/546/546 543/543/543
f 543/543/543 546/546/546 547/547/547
f 548/548/548 543/543/543 547/547/547
f 544/544/544 549/549/549 546/546/546
f 550/550/550 549/549/549 544/544/544
f 551/551/551 550/550/550 544/544/544
f 550/550/550 552/552/552 549/549/549
f 552/552/552 553/553/553 549/549/549
f 549/549/549 554/554/554 546/546/546
f 549/549/549 553/553/553 554/554/554
f 546/546/546 554/554/554 547/547/547
f 553/553/553 555/555/555 554/554/554
f 554/554/554 555/555/555 547/547/547
f 553/553/553 556/556/556 555/555/555
f 556/556/556 557/557/557 555/555/555
f 555/555/555 557/557/557 547/547/547
f 557/557/557 558/558/558 547/547/547
f 561/561/561 560/560/560 559/559/559
f 561/561/561 559/559/559 562/562/562
f 561/561/561 562/562/562 563/563/563
f 563/563/563 562/562/562 564/564/564
f 562/562/562 565/565/565 564/564/564
f 564/564/564 565/565/565 566/566/566
f 565/565/565 567/567/567 566/566/566
f 564/564/564 566/566/566 568/568/568
f 569/569/569 564/564/564 568/568/568
f 563/563/563 564/564/564 569/569/569
f 570/570/570 563/563/563 569/569/569
f 561/561/561 563/563/563 570/570/570
f 570/570/570 569/569/569 571/571/571
f 572/572/572 570/570/570 571/571/571
f 561/561/561 570/570/570 572/572/572
f 561/561/561 572/572/572 573/573/573
f 576/576/576 575/575/575 574/574/574
f 577/577/577 576/576/576 574/574/574
f 578/578/578 576/576/576 577/577/577
f 579/579/579 578/578/578 577/577/577
f 580/580/580 578/578/578 579/579/579
f 581/581/581 580/580/580 579/579/579
f 581/581/581 579/579/579 582/582/582
f 583/583/583 581/581/581 582/582/582
f 582/582/582 579/579/579 584/584/584
f 579/579/579 577/577/577 584/584/584
f 584/584/584 577/577/577 585/585/585
f 577/577/577 574/574/574 585/585/585
f 585/585/585 574/574/574 586/586/586
f 574/574/574 587/587/587 586/586/586
f 590/590/590 589/589/589 588/588/588
f 591/591/591 590/590/590 588/588/588
f 591/591/591 588/588/588 592/592/592
f 593/593/593 590/590/590 591/591/591
f 594/594/594 591/591/591 592/592/592
f 595/595/595 593/593/593 591/591/591
f 595/595/595 591/591/591 594/594/594
f 596/596/596 593/593/593 595/595/595
f 597/597/597 595/595/595 594/594/594
f 596/596/596 595/595/595 597/597/597
f 600/600/600 599/599/599 598/598/598
f 599/599/599 601/601/601 598/598/598
f 598/598/598 601/601/601 602/602/602
f 601/601/601 603/603/603 602/602/602
f 602/602/602 603/603/603 604/604/604
f 601/601/601 605/605/605 603/603/603
f 603/603/603 606/606/606 604/604/604
f 605/605/605 607/607/607 603/603/603
f 603/603/603 607/607/607 606/606/606
f 607/607/607 608/608/608 606/606/606
f 611/611/611 610/610/610 609/609/609
f 610/610/610 612/612/612 609/609/609
f 610/610/610 613/613/613 612/612/612
f 614/614/614 613/613/613 610/610/610
f 615/615/615 614/614/614 610/610/610
f 614/614/614 616/616/616 613/613/613
f 616/616/616 617/617/617 613/613/613
f 613/613/613 618/618/618 612/612/612
f 613/613/613 617/617/617 618/618/618
f 612/612/612 618/618/618 619/619/619
f 617/617/617 620/620/620 618/618/618
f 618/618/618 620/620/620 619/619/619
f 623/623/623 622/622/622 621/621/621
f 621/621/621 624/624/624 623/623/623
f 621/621/621 625/625/625 624/624/624
f 625/625/625 626/626/626 624/624/624
f 625/625/625 627/627/627 626/626/626
f 627/627/627 628/628/628 626/626/626
f 627/627/627 629/629/629 628/628/628
f 629/629/629 630/630/630 628/628/628
f 629/629/629 631/631/631 630/630/630
f 631/631/631 632/632/632 630/630/630
f 635/635/635 634/634/634 633/633/633
f 633/633/633 636/636/636 635/635/635
f 636/636/636 637/637/637 635/635/635
f 636/636/636 638/638/638 637/637/637
f 638/638/638 639/639/639 637/637/637
f 638/638/638 640/640/640 639/639/639
f 640/640/640 641/641/641 639/639/639
f 640/640/640 642/642/642 641/641/641
f 642/642/642 643/643/643 641/641/641
f 642/642/642 644/644/644 643/643/643
f 647/647/647 646/646/646 645/645/645
f 645/645/645 648/648/648 647/647/647
f 648/648/648 649/649/649 647/647/647
f 648/648/648 650/650/650 649/649/649
f 650/650/650 651/651/651 649/649/649
f 650/650/650 652/652/652 651/651/651
f 655/655/655 654/654/654 653/653/653
f 656/656/656 655/655/655 653/653/653
f 656/656/656 653/653/653 657/657/657
f 658/658/658 655/655/655 656/656/656
f 659/659/659 656/656/656 657/657/657
f 660/660/660 658/658/658 656/656/656
f 660/660/660 656/656/656 659/659/659
f 661/661/661 660/660/660 659/659/659
f 664/664/664 663/663/663 662/662/662
f 665/665/665 664/664/664 662/662/662
f 665/665/665 662/662/662 666/666/666
f 667/667/667 664/664/664 665/665/665
f 668/668/668 665/665/665 666/666/666
f 667/667/667 665/665/665 668/668/668
f 671/671/671 670/670/670 669/669/669
f 672/672/672 671/671/671 669/669/669
f 672/672/672 669/669/669 673/673/673
f 674/674/674 671/671/671 672/672/672
f 675/675/675 672/672/672 673/673/673
f 676/676/676 674/674/674 672/672/672
f 676/676/676 672/672/672 675/675/675
f 677/677/677 674/674/674 676/676/676
f 678/678/678 676/676/676 675/675/675
f 679/679/679 677/677/677 676/676/676
f 679/679/679 676/676/676 678/678/678
f 680/680/680 677/677/677 679/679/679
f 681/681/681 679/679/679 678/678/678
f 680/680/680 679/679/679 681/681/681
f 684/684/684 683/683/683 682/682/682
f 685/685/685 684/684/684 682/682/682
f 685/685/685 682/682/682 686/686/686
f 687/687/687 685/685/685 686/686/686
f 690/690/690 689/689/689 688/688/688
f 691/691/691 690/690/690 688/688/688
f 691/691/691 688/688/688 692/692/692
f 693/693/693 690/690/690 691/691/691
f 694/694/694 691/691/691 692/692/692
f 695/695/695 693/693/693 691/691/691
f 695/695/695 691/691/691 694/694/694
f 696/696/696 693/693/693 695/695/695
f 697/697/697 695/695/695 694/694/694
f 696/696/696 695/695/695 697/697/697
f 700/700/700 699/699/699 698/698/698
f 701/701/701 700/700/700 698/698/698
f 701/701/701 698/698/698 702/702/702
f 703/703/703 700/700/700 701/701/701
f 704/704/704 701/701/701 702/702/702
f 705/705/705 703/703/703 701/701/701
f 705/705/705 701/701/701 704/704/704
f 706/706/706 703/703/703 705/705/705
f 707/707/707 705/705/705 704/704/704
f 708/708/708 706/706/706 705/705/705
f 708/708/708 705/705/705 707/707/707
f 709/709/709 706/706/706 708/708/708
f 710/710/710 708/708/708 707/707/707
f 709/709/709 708/708/708 710/710/710
f 713/713/713 712/712/712 711/711/711
f 711/711/711 714/714/714 713/713/713
f 711/711/711 715/715/715 714/714/714
f 715/715/715 716/716/716 714/714/714
f 716/716/716 717/717/717 714/714/714
f 716/716/716 718/718/718 717/717/717
f 721/721/721 720/720/720 719/719/719
f 722/722/722 721/721/721 719/719/719
f 722/722/722 719/719/719 723/723/723
f 724/724/724 721/721/721 722/722/722
f 725/725/725 722/722/722 723/723/723
f 726/726/726 724/724/724 722/722/722
f 726/726/726 722/722/722 725/725/725
f 727/727/727 726/726/726 725/725/725
f 730/730/730 729/729/729 728/728/728
f 731/731/731 730/730/730 728/728/728
f 731/731/731 728/728/728 732/732/732
f 733/733/733 730/730/730 731/731/731
f 734/734/734 731/731/731 732/732/732
f 733/733/733 731/731/731 734/734/734
f 737/737/737 736/736/736 735/735/735
f 738/738/738 737/737/737 735/735/735
f 738/738/738 735/735/735 739/739/739
f 740/740/740 737/737/737 738/738/738
f 741/741/741 738/738/738 739/739/739
f 742/742/742 740/740/740 738/738/738
f 742/742/742 738/738/738 741/741/741
f 743/743/743 740/740/740 742/742/742
f 744/744/744 742/742/742 741/741/741
f 745/745/745 743/743/743 742/742/742
f 745/745/745 742/742/742 744/744/744
f 746/746/746 743/743/743 745/745/745
f 747/747/747 745/745/745 744/744/744
f 746/746/746 745/745/745 747/747/747
f 750/750/750 749/749/749 748/748/748
f 751/751/751 750/750/750 748/748/748
f 751/751/751 748/748/748 752/752/752
f 753/753/753 750/750/750 751/751/751
f 754/754/754 751/751/751 752/752/752
f 755/755/755 753/753/753 751/751/751
f 755/755/755 751/751/751 754/754/754
f 756/756/756 755/755/755 754/754/754
f 759/759/759 758/758/758 757/757/757
f 760/760/760 759/759/759 757/757/757
f 760/760/760 757/757/757 761/761/761
f 762/762/762 759/759/759 760/760/760
f 763/763/763 760/760/760 761/761/761
f 762/762/762 760/760/760 763/763/763
f 766/766/766 765/765/765 764/764/764
f 767/767/767 766/766/766 764/764/764
f 767/767/767 764/764/764 768/768/768
f 769/769/769 766/766/766 767/767/767
f 770/770/770 767/767/767 768/768/768
f 771/771/771 769/769/769 767/767/767
f 771/771/771 767/767/767 770/770/770
f 772/772/772 769/769/769 771/771/771
f 773/773/773 771/771/771 770/770/770
f 774/774/774 772/772/772 771/771/771
f 774/774/774 771/771/771 773/773/773
f 775/775/775 772/772/772 774/774/774
f 776/776/776 774/774/774 773/773/773
f 775/775/775 774/774/774 776/776/776
