g 0.1000
v -1.025074 -0.11183341 5.2042923
v -1.1617644 -0.8646301 4.63294
v -1.3166509 -0.08615035 4.783852
v -0.942683 -1.2364485 3.667794
v -1.1579225 -0.45286894 3.173666
v -0.7378927 -0.80216044 2.5918784
v -0.8507077 0.07869205 1.8542942
v -1.3166509 -0.08615035 4.783852
v -0.97192526 0.8182747 4.9949946
v -1.025074 -0.11183341 5.2042923
v -0.9853883 1.0349439 4.484541
v -1.1579225 -0.45286894 3.173666
v -0.84443176 0.7382913 3.0899558
v -0.8507077 0.07869205 1.8542942
v -0.8507077 0.07869205 1.8542942
v -0.65704954 0.82482654 2.1737928
v -0.49022818 1.17726 5.007319
v 0.18672104 1.5361897 4.4590096
v 0.96953326 0.67243415 4.601676
v 0.3673845 -0.2880066 4.902856
v -0.49022818 1.17726 5.007319
v 0.96953326 0.67243415 4.601676
v 0.8366425 -1.0374663 4.300092
v -0.07655445 -1.278894 4.7987733
v 0.11728662 -1.6147738 4.3477464
v -1.025074 -0.11183341 5.2042923
v -0.49022818 1.17726 5.007319
v -0.5217476 -1.5819706 4.694027
v 0.11728662 -1.6147738 4.3477464
v -0.5217476 -1.5819706 4.694027
v 0.18672104 1.5361897 4.4590096
v 1.0205148 0.96266425 4.017314
v 0.96953326 0.67243415 4.601676
v 0.4977904 1.4647675 3.7656047
v 0.18672104 1.5361897 4.4590096
v 1.0205148 0.96266425 4.017314
v 1.1485049 -0.32275093 3.8328404
v 0.96953326 0.67243415 4.601676
v 1.1621637 -0.20529082 2.8452914
v 0.7288022 -1.3665855 3.7606962
v 1.0205148 0.96266425 4.017314
v 0.7288022 -1.3665855 3.7606962
v 0.8366425 -1.0374663 4.300092
v 0.96953326 0.67243415 4.601676
v 1.1485049 -0.32275093 3.8328404
v 0.7288022 -1.3665855 3.7606962
v 0.11728662 -1.6147738 4.3477464
v 1.052289 0.45989716 2.9217086
v 1.1621637 -0.20529082 2.8452914
v 0.73685634 -0.7801376 2.1998627
v 0.7288022 -1.3665855 3.7606962
v 0.7608007 0.047395583 1.9984015
v 0.73767364 -0.5155131 1.8609657
v 0.3848418 -0.95459664 1.9405234
v 0.112478875 -1.198941 2.7059023
v 0.7608007 0.047395583 1.9984015
v 0.73685634 -0.7801376 2.1998627
v 1.052289 0.45989716 2.9217086
v 0.59606975 0.7860295 2.0998073
v 0.73767364 -0.5155131 1.8609657
v 0.3848418 -0.95459664 1.9405234
v -0.24432907 1.094899 2.066875
v -0.8507077 0.07869205 1.8542942
v 0.29514346 1.0494617 2.032361
v 0.08509477 0.02814751 1.6635001
v 0.29514346 1.0494617 2.032361
v -0.6835085 -0.67169905 1.9452
v 0.08509477 0.02814751 1.6635001
v 0.3848418 -0.95459664 1.9405234
v -0.3075685 -0.9257712 2.0220845
v 0.73767364 -0.5155131 1.8609657
v 0.59606975 0.7860295 2.0998073
v 0.29514346 1.0494617 2.032361
v 0.7608007 0.047395583 1.9984015
v 0.29514346 1.0494617 2.032361
v 0.08509477 0.02814751 1.6635001
v 0.73767364 -0.5155131 1.8609657
v -0.3075685 -0.9257712 2.0220845
v -0.6835085 -0.67169905 1.9452
v -0.7378927 -0.80216044 2.5918784
v 0.7288022 -1.3665855 3.7606962
v 0.73685634 -0.7801376 2.1998627
v 0.112478875 -1.198941 2.7059023
v 0.28492624 1.2422572 3.1437268
v 0.59606975 0.7860295 2.0998073
v 1.0205148 0.96266425 4.017314
v -0.24432907 1.094899 2.066875
v 0.29514346 1.0494617 2.032361
v 0.28492624 1.2422572 3.1437268
v -0.84443176 0.7382913 3.0899558
v -0.84443176 0.7382913 3.0899558
v -0.33379346 1.5427662 4.1201873
v 0.18672104 1.5361897 4.4590096
v -0.49022818 1.17726 5.007319
v 1.0205148 0.96266425 4.017314
v 0.4977904 1.4647675 3.7656047
v 0.59606975 0.7860295 2.0998073
v 1.052289 0.45989716 2.9217086
v 0.29514346 1.0494617 2.032361
v 0.4977904 1.4647675 3.7656047
v -0.33379346 1.5427662 4.1201873
v 0.18672104 1.5361897 4.4590096
v -0.9215869 -0.5784203 0.29867682
v -0.9451608 -0.8998983 0.35627574
v -0.7918802 -1.1020828 0.2908194
v -0.1393849 -0.54967725 2.042124
v 0.13151288 -0.5592085 1.9406551
v 0.117943406 -0.8576888 1.942083
v -0.22854176 -0.70735484 0.026492566
v -0.5164164 -0.34426734 0.09525815
v -0.37969792 -1.0821161 0.09566966
v -0.5164164 -0.34426734 0.09525815
v -0.7918802 -1.1020828 0.2908194
v -0.9215869 -0.5784203 0.29867682
v -0.23372662 -1.2154732 1.079545
v 0.15221685 -1.1325241 0.94429636
v -0.14072335 -1.0107526 0.6398435
v 0.15265572 -0.4578365 0.97850883
v -0.14784986 -0.5764037 0.64842385
v 0.30563283 -0.7817322 0.9493027
v 0.15221685 -1.1325241 0.94429636
v 0.30563283 -0.7817322 0.9493027
v -0.14072335 -1.0107526 0.6398435
v -0.5501504 -0.99821293 0.89704466
v -0.14072335 -1.0107526 0.6398435
v -0.37969792 -1.0821161 0.09566966
v -0.5501504 -0.99821293 0.89704466
v -0.23372662 -1.2154732 1.079545
v -0.24682117 -1.0441021 1.3493915
v 0.07256341 -0.9176206 1.3868127
v 0.15221685 -1.1325241 0.94429636
v -0.37969792 -1.0821161 0.09566966
v -0.14072335 -1.0107526 0.6398435
v -0.22854176 -0.70735484 0.026492566
v -0.14784986 -0.5764037 0.64842385
v -0.14072335 -1.0107526 0.6398435
v -0.14784986 -0.5764037 0.64842385
v -0.5164164 -0.34426734 0.09525815
v -0.22854176 -0.70735484 0.026492566
v 0.15265572 -0.4578365 0.97850883
v 0.30563283 -0.7817322 0.9493027
v 0.07256341 -0.9176206 1.3868127
v 0.15265572 -0.4578365 0.97850883
v -0.0038513541 -0.55456245 1.2980427
v 0.07256341 -0.9176206 1.3868127
v 0.30563283 -0.7817322 0.9493027
v 0.15221685 -1.1325241 0.94429636
v -0.104171336 0.24545231 1.8450599
v -0.37902454 0.510308 1.6301211
v -0.28794557 0.83423966 2.1487942
v -0.28794557 0.83423966 2.1487942
v -0.2522003 1.0057125 1.9611107
v 0.021148004 1.0290973 2.2215014
v -0.37902454 0.510308 1.6301211
v -0.28794557 0.83423966 2.1487942
v -0.37902454 0.510308 1.6301211
v -0.16788474 0.8516735 1.3805138
v -0.2522003 1.0057125 1.9611107
v 0.23081598 1.0451443 1.4246811
v 0.021148004 1.0290973 2.2215014
v -0.16788474 0.8516735 1.3805138
v 0.23081598 1.0451443 1.4246811
v -0.12237829 1.0343264 1.013398
v 0.23081598 1.0451443 1.4246811
v 0.39079964 1.2454561 1.2786841
v 0.39079964 1.2454561 1.2786841
v 0.29706043 1.086269 0.84359694
v 0.7318811 1.1452018 0.3443613
v 0.58227783 1.1454308 1.0860482
v 0.39079964 1.2454561 1.2786841
v 0.7318811 1.1452018 0.3443613
v 1.1072117 1.1774136 0.6751185
v 0.39079964 1.2454561 1.2786841
v 0.6264012 0.8315335 1.3659263
v 0.7667533 0.82502085 1.2410563
v 0.32376 0.99878097 2.023881
v 0.38471985 0.53062135 1.491592
v 0.20344988 0.54373527 2.1624384
v -0.104171336 0.24545231 1.8450599
v 0.20344988 0.54373527 2.1624384
v 0.32376 0.99878097 2.023881
v 0.23081598 1.0451443 1.4246811
v 0.4210922 0.6746846 1.4342071
v 0.4210922 0.6746846 1.4342071
v 0.4540984 0.4317904 1.3013879
v 0.6264012 0.8315335 1.3659263
v 0.6264012 0.8315335 1.3659263
v 0.6983643 0.463558 1.0689583
v 0.6983643 0.463558 1.0689583
v 0.7667533 0.82502085 1.2410563
v 1.2246187 0.6159839 0.8910713
v 0.021148004 1.0290973 2.2215014
v 0.20344988 0.54373527 2.1624384
v -0.28794557 0.83423966 2.1487942
v 1.2246187 0.6159839 0.8910713
v 1.1072117 1.1774136 0.6751185
v 1.0375097 0.31434274 0.5846929
v 0.6753628 0.79391116 0.18610933
v 0.7404322 0.48118117 0.21927917
v 0.6753628 0.79391116 0.18610933
v 1.1072117 1.1774136 0.6751185
v 0.7318811 1.1452018 0.3443613
v 1.1072117 1.1774136 0.6751185
v -0.12237829 1.0343264 1.013398
v -0.14320028 0.4642315 1.0225563
v 0.19050676 0.8208357 0.753514
v -0.16788474 0.8516735 1.3805138
v -0.14320028 0.4642315 1.0225563
v -0.37902454 0.510308 1.6301211
v -0.13423425 0.44015783 1.3627099
v 0.19050676 0.8208357 0.753514
v 0.29706043 1.086269 0.84359694
v 0.19050676 0.8208357 0.753514
v 0.7318811 1.1452018 0.3443613
v 1.0375097 0.31434274 0.5846929
v 0.6983643 0.463558 1.0689583
v 1.2246187 0.6159839 0.8910713
v 0.19050676 0.8208357 0.753514
v 0.6753628 0.79391116 0.18610933
v 0.7318811 1.1452018 0.3443613
v 0.32655925 0.47421682 0.9115664
v 0.7404322 0.48118117 0.21927917
v 0.6753628 0.79391116 0.18610933
v -0.21542704 -1.6935344 3.531615
v 0.12037802 -1.8137631 2.4768977
v -0.38855982 -1.3467197 3.3448188
v 0.09587401 -0.9901006 3.6165962
v 0.60974056 -1.5121009 2.8459144
v 0.27926153 -1.3712063 3.6866817
v -0.018133044 -1.2079902 3.8560836
v 0.06189841 -1.551058 3.7632287
v -0.33218396 -1.3558547 3.7307851
v 0.09587401 -0.9901006 3.6165962
v 0.27926153 -1.3712063 3.6866817
v -0.018133044 -1.2079902 3.8560836
v -0.33218396 -1.3558547 3.7307851
v 0.06189841 -1.551058 3.7632287
v -0.21542704 -1.6935344 3.531615
v 1.2982264 -1.9881191 0.3178205
v 1.2321647 -1.5949981 0.41817942
v 1.0651404 -1.4973276 0.22391534
v 1.0148642 -2.3019514 0.4375484
v 1.2982264 -1.9881191 0.3178205
v 0.47206545 -1.4893436 0.2676909
v 0.23284602 -1.8342988 0.21096265
v 0.14788789 -2.281182 0.24287474
v 0.23284602 -1.8342988 0.21096265
v 1.0148642 -2.3019514 0.4375484
v 0.51140785 -2.5011597 0.38010693
v 0.60974056 -1.5121009 2.8459144
v 1.2167344 -2.0264883 2.3863075
v 0.61868703 -1.965317 2.6972117
v 0.9240352 -2.3420403 2.338423
v 0.33413333 -2.3331697 2.1469047
v 0.61868703 -1.965317 2.6972117
v 1.2167344 -2.0264883 2.3863075
v 0.30717325 -1.8767729 1.6552739
v 0.47787723 -2.1889606 1.729806
v 0.14788789 -2.281182 0.24287474
v 0.9531616 -1.6664062 1.377275
v 1.2321647 -1.5949981 0.41817942
v 1.0817711 -2.1938434 0.8337058
v 1.0817711 -2.1938434 0.8337058
v 0.9772705 -1.9897286 1.9460566
v 1.2321647 -1.5949981 0.41817942
v 1.2982264 -1.9881191 0.3178205
v 1.0799832 -1.4167306 2.093008
v 0.9772705 -1.9897286 1.9460566
v 1.2167344 -2.0264883 2.3863075
v 0.60974056 -1.5121009 2.8459144
v 1.1485397 -1.5708172 2.4078684
v 1.0799832 -1.4167306 2.093008
v 1.1485397 -1.5708172 2.4078684
v 0.67968935 -1.5432265 1.2749879
v 0.47206545 -1.4893436 0.2676909
v 1.0651404 -1.4973276 0.22391534
v 0.4196305 -1.2963793 1.97528
v 0.58760226 -1.2330123 2.0815468
v 0.58760226 -1.2330123 2.0815468
v 1.0124822 -1.2919409 2.1412108
v 0.17787981 -1.2856388 2.7065568
v 0.34048387 -1.5389359 1.749382
v 0.31151816 -1.7935989 0.7645641
v 0.67968935 -1.5432265 1.2749879
v 0.9240352 -2.3420403 2.338423
v 1.2167344 -2.0264883 2.3863075
v 0.9772705 -1.9897286 1.9460566
v 0.81558615 -2.1771915 1.8571231
v 1.0817711 -2.1938434 0.8337058
v 0.9240352 -2.3420403 2.338423
v 0.9772705 -1.9897286 1.9460566
v 1.2982264 -1.9881191 0.3178205
v 1.0148642 -2.3019514 0.4375484
v 0.034569383 -1.9123302 1.9939444
v 0.33413333 -2.3331697 2.1469047
v 0.47787723 -2.1889606 1.729806
v 0.47787723 -2.1889606 1.729806
v 0.30717325 -1.8767729 1.6552739
v 0.33413333 -2.3331697 2.1469047
v 0.9240352 -2.3420403 2.338423
v 0.81558615 -2.1771915 1.8571231
v 0.47787723 -2.1889606 1.729806
v 0.51140785 -2.5011597 0.38010693
v 0.33413333 -2.3331697 2.1469047
v 0.61868703 -1.965317 2.6972117
v 0.29230148 -2.0124018 2.433403
v 0.12037802 -1.8137631 2.4768977
v 0.034569383 -1.9123302 1.9939444
v 0.29230148 -2.0124018 2.433403
v 0.33413333 -2.3331697 2.1469047
v 0.60974056 -1.5121009 2.8459144
v 0.17787981 -1.2856388 2.7065568
v 1.0124822 -1.2919409 2.1412108
v 0.67968935 -1.5432265 1.2749879
v 0.9531616 -1.6664062 1.377275
v 1.2321647 -1.5949981 0.41817942
v 0.9531616 -1.6664062 1.377275
v 1.0651404 -1.4973276 0.22391534
v 0.04325819 1.0314358 3.6787348
v -0.39919475 1.3362503 3.3457835
v -0.2638772 1.1440294 3.8314888
v -0.32520103 1.6491141 3.5393252
v 0.06405997 1.6762297 3.642745
v -0.16662017 1.4629798 3.9467223
v 0.1366849 1.2525058 3.9080381
v -0.2638772 1.1440294 3.8314888
v -0.16662017 1.4629798 3.9467223
v -0.98097765 2.7355986 0.7664299
v -1.3838435 2.3449004 0.47657925
v -0.7310081 2.472229 0.19033992
v -1.3531889 2.4601817 0.8412614
v -1.3838435 2.3449004 0.47657925
v -0.98097765 2.7355986 0.7664299
v -0.45597777 1.4572313 1.691397
v 0.10750258 1.3459527 1.9371623
v -0.17669377 1.5453641 1.5843792
v -0.68153787 1.6616634 1.9048575
v -0.3202999 1.1838896 1.9423003
v 0.10750258 1.3459527 1.9371623
v 0.08758843 1.9548402 1.5933845
v -0.29871544 2.4054446 0.73313427
v -0.19480646 2.1293972 0.98233736
v -0.19480646 2.1293972 0.98233736
v -0.46999377 1.998435 0.15762389
v -0.50968266 2.6096592 0.4325682
v -0.46999377 1.998435 0.15762389
v -0.48127523 2.19504 2.2494743
v -0.68153787 1.6616634 1.9048575
v -0.6405531 2.1666417 1.6037211
v -1.1370075 1.8478386 1.1788296
v -1.3531889 2.4601817 0.8412614
v -1.3531889 2.4601817 0.8412614
v -1.5363414 2.0145035 0.67899567
v -1.387945 1.6563976 0.42126405
v -1.3838435 2.3449004 0.47657925
v -0.19480646 2.1293972 0.98233736
v -0.46999377 1.998435 0.15762389
v -0.615459 1.6490676 0.53646016
v -0.46999377 1.998435 0.15762389
v -1.0394895 1.524694 0.29260963
v 0.08758843 1.9548402 1.5933845
v -0.19480646 2.1293972 0.98233736
v -0.17669377 1.5453641 1.5843792
v 0.08758843 1.9548402 1.5933845
v 0.10750258 1.3459527 1.9371623
v 0.18373239 1.6121372 2.239863
v 0.41125488 1.807311 1.9930518
v 0.41125488 1.807311 1.9930518
v 0.08758843 1.9548402 1.5933845
v -0.46999377 1.998435 0.15762389
v -0.50968266 2.6096592 0.4325682
v -0.7310081 2.472229 0.19033992
v -0.48127523 2.19504 2.2494743
v -0.4716503 1.8256843 2.52118
v -0.7501517 1.6925203 2.1637018
v -0.68153787 1.6616634 1.9048575
v -0.48127523 2.19504 2.2494743
v -0.30259326 1.2598417 2.2858384
v 0.10750258 1.3459527 1.9371623
v -0.3202999 1.1838896 1.9423003
v 0.18804997 2.2570257 2.2046533
v -0.21872845 1.9428513 2.6078203
v -0.48127523 2.19504 2.2494743
v 0.0836736 1.9045137 2.555326
v 0.18804997 2.2570257 2.2046533
v -0.4716503 1.8256843 2.52118
v -0.48127523 2.19504 2.2494743
v -0.6405531 2.1666417 1.6037211
v -0.98097765 2.7355986 0.7664299
v -0.39170238 2.4286954 1.2809267
v -0.6405531 2.1666417 1.6037211
v -1.3531889 2.4601817 0.8412614
v -0.98097765 2.7355986 0.7664299
v 0.18804997 2.2570257 2.2046533
v 0.08758843 1.9548402 1.5933845
v 0.41125488 1.807311 1.9930518
v 0.18804997 2.2570257 2.2046533
v -0.30232573 2.2108881 1.8827614
v 0.08758843 1.9548402 1.5933845
v -0.32520103 1.6491141 3.5393252
v -0.21872845 1.9428513 2.6078203
v 0.06405997 1.6762297 3.642745
v -0.4392133 1.3725367 2.2641873
v -0.4716503 1.8256843 2.52118
v -0.39919475 1.3362503 3.3457835
v -0.39919475 1.3362503 3.3457835
v -0.32520103 1.6491141 3.5393252
v -0.2638772 1.1440294 3.8314888
v -0.16662017 1.4629798 3.9467223
v -0.4716503 1.8256843 2.52118
v -0.21872845 1.9428513 2.6078203
v 0.04325819 1.0314358 3.6787348
v -0.30259326 1.2598417 2.2858384
v -0.39919475 1.3362503 3.3457835
v -0.30259326 1.2598417 2.2858384
v -0.4392133 1.3725367 2.2641873
v -0.3202999 1.1838896 1.9423003
v 0.04325819 1.0314358 3.6787348
v 0.04257679 1.3433063 2.4702263
v -0.30259326 1.2598417 2.2858384
v 0.1366849 1.2525058 3.9080381
v 0.2833733 1.2253361 3.7189403
v 0.117943406 -0.8576888 1.942083
v 0.07256341 -0.9176206 1.3868127
v -0.32745457 -0.9500981 1.7885063
v -0.5217476 -1.5819706 4.694027
v -1.1617644 -0.8646301 4.63294
v -1.025074 -0.11183341 5.2042923
v -0.97192526 0.8182747 4.9949946
v -0.49022818 1.17726 5.007319
v -1.025074 -0.11183341 5.2042923
v -0.5217476 -1.5819706 4.694027
v -0.942683 -1.2364485 3.667794
v -1.1617644 -0.8646301 4.63294
v -0.5217476 -1.5819706 4.694027
v -0.4064511 -1.3397471 3.1714396
v -0.4064511 -1.3397471 3.1714396
v -0.7378927 -0.80216044 2.5918784
v -0.3075685 -0.9257712 2.0220845
v -0.4064511 -1.3397471 3.1714396
v 0.11728662 -1.6147738 4.3477464
v 0.112478875 -1.198941 2.7059023
v -0.3075685 -0.9257712 2.0220845
v 0.112478875 -1.198941 2.7059023
v 0.3848418 -0.95459664 1.9405234
v -0.6835085 -0.67169905 1.9452
v -0.8507077 0.07869205 1.8542942
v -0.7378927 -0.80216044 2.5918784
v 0.7288022 -1.3665855 3.7606962
v 0.112478875 -1.198941 2.7059023
v 0.11728662 -1.6147738 4.3477464
v -0.32745457 -0.9500981 1.7885063
v -0.19100937 -0.80646306 2.0241017
v 0.117943406 -0.8576888 1.942083
v -0.1393849 -0.54967725 2.042124
v 0.117943406 -0.8576888 1.942083
v -0.19100937 -0.80646306 2.0241017
v -0.14784986 -0.5764037 0.64842385
v -0.14072335 -1.0107526 0.6398435
v 0.30563283 -0.7817322 0.9493027
v -0.5501504 -0.99821293 0.89704466
v -0.54457134 -0.5532894 0.7961461
v -0.6724751 -0.8300446 1.2600676
v -0.3789137 -0.34823555 1.19167
v -0.54457134 -0.5532894 0.7961461
v -0.4784119 -0.77235615 1.4433973
v -0.35231355 -0.54951334 1.4048952
v -0.1393849 -0.54967725 2.042124
v -0.9215869 -0.5784203 0.29867682
v -0.5164164 -0.34426734 0.09525815
v -0.54457134 -0.5532894 0.7961461
v -0.54457134 -0.5532894 0.7961461
v -0.14784986 -0.5764037 0.64842385
v -0.3789137 -0.34823555 1.19167
v -0.54457134 -0.5532894 0.7961461
v 0.15265572 -0.4578365 0.97850883
v -0.0038513541 -0.55456245 1.2980427
v -0.5501504 -0.99821293 0.89704466
v -0.37969792 -1.0821161 0.09566966
v -0.7918802 -1.1020828 0.2908194
v -0.9451608 -0.8998983 0.35627574
v -0.5501504 -0.99821293 0.89704466
v -0.23372662 -1.2154732 1.079545
v -0.6724751 -0.8300446 1.2600676
v -0.6724751 -0.8300446 1.2600676
v -0.24682117 -1.0441021 1.3493915
v -0.35231355 -0.54951334 1.4048952
v -0.3789137 -0.34823555 1.19167
v -0.0038513541 -0.55456245 1.2980427
v -0.0038513541 -0.55456245 1.2980427
v -0.1393849 -0.54967725 2.042124
v 0.13151288 -0.5592085 1.9406551
v -0.6724751 -0.8300446 1.2600676
v -0.4784119 -0.77235615 1.4433973
v -0.24682117 -1.0441021 1.3493915
v 0.23081598 1.0451443 1.4246811
v 0.32376 0.99878097 2.023881
v 0.021148004 1.0290973 2.2215014
v 0.32376 0.99878097 2.023881
v 0.20344988 0.54373527 2.1624384
v 0.021148004 1.0290973 2.2215014
v 0.20344988 0.54373527 2.1624384
v -0.104171336 0.24545231 1.8450599
v -0.28794557 0.83423966 2.1487942
v -0.14320028 0.4642315 1.0225563
v 0.32655925 0.47421682 0.9115664
v 0.19050676 0.8208357 0.753514
v 0.32655925 0.47421682 0.9115664
v 1.0375097 0.31434274 0.5846929
v 0.7404322 0.48118117 0.21927917
v 0.6983643 0.463558 1.0689583
v 1.0375097 0.31434274 0.5846929
v 0.4540984 0.4317904 1.3013879
v -0.14320028 0.4642315 1.0225563
v -0.13423425 0.44015783 1.3627099
v 0.32655925 0.47421682 0.9115664
v 0.6753628 0.79391116 0.18610933
v 0.19050676 0.8208357 0.753514
v 0.38471985 0.53062135 1.491592
v 0.4540984 0.4317904 1.3013879
v -0.13423425 0.44015783 1.3627099
v -0.13423425 0.44015783 1.3627099
v -0.14320028 0.4642315 1.0225563
v -0.16788474 0.8516735 1.3805138
v -0.21542704 -1.6935344 3.531615
v -0.38855982 -1.3467197 3.3448188
v -0.33218396 -1.3558547 3.7307851
v -0.38855982 -1.3467197 3.3448188
v -0.30511653 -1.025662 3.4697165
v -0.33218396 -1.3558547 3.7307851
v 0.17787981 -1.2856388 2.7065568
v 0.60974056 -1.5121009 2.8459144
v 0.09587401 -0.9901006 3.6165962
v 0.06189841 -1.551058 3.7632287
v 0.61868703 -1.965317 2.6972117
v -0.21542704 -1.6935344 3.531615
v -0.30511653 -1.025662 3.4697165
v -0.018133044 -1.2079902 3.8560836
v -0.33218396 -1.3558547 3.7307851
v 0.27926153 -1.3712063 3.6866817
v 0.06189841 -1.551058 3.7632287
v -0.018133044 -1.2079902 3.8560836
v 1.0124822 -1.2919409 2.1412108
v 0.9531616 -1.6664062 1.377275
v 1.0799832 -1.4167306 2.093008
v 1.0124822 -1.2919409 2.1412108
v 1.0799832 -1.4167306 2.093008
v 1.1485397 -1.5708172 2.4078684
v 0.58760226 -1.2330123 2.0815468
v 0.15146083 -1.5244899 1.978992
v 0.4196305 -1.2963793 1.97528
v 0.61868703 -1.965317 2.6972117
v 0.33413333 -2.3331697 2.1469047
v 0.29230148 -2.0124018 2.433403
v 0.31151816 -1.7935989 0.7645641
v 0.14788789 -2.281182 0.24287474
v 0.23284602 -1.8342988 0.21096265
v 0.30717325 -1.8767729 1.6552739
v 0.14788789 -2.281182 0.24287474
v 0.34048387 -1.5389359 1.749382
v 0.034569383 -1.9123302 1.9939444
v 0.15146083 -1.5244899 1.978992
v 0.12037802 -1.8137631 2.4768977
v 0.30717325 -1.8767729 1.6552739
v 0.31151816 -1.7935989 0.7645641
v 0.34048387 -1.5389359 1.749382
v 0.31151816 -1.7935989 0.7645641
v 0.23284602 -1.8342988 0.21096265
v 0.47206545 -1.4893436 0.2676909
v 0.47206545 -1.4893436 0.2676909
v 0.67968935 -1.5432265 1.2749879
v 0.47787723 -2.1889606 1.729806
v 0.51140785 -2.5011597 0.38010693
v 0.14788789 -2.281182 0.24287474
v 0.61868703 -1.965317 2.6972117
v 0.12037802 -1.8137631 2.4768977
v -0.21542704 -1.6935344 3.531615
v 0.17787981 -1.2856388 2.7065568
v 0.12037802 -1.8137631 2.4768977
v 0.15146083 -1.5244899 1.978992
v 0.17787981 -1.2856388 2.7065568
v 0.15146083 -1.5244899 1.978992
v 0.58760226 -1.2330123 2.0815468
v 0.60974056 -1.5121009 2.8459144
v 1.0124822 -1.2919409 2.1412108
v 1.1485397 -1.5708172 2.4078684
v -0.6405531 2.1666417 1.6037211
v -0.39170238 2.4286954 1.2809267
v -0.30232573 2.2108881 1.8827614
v -0.2638772 1.1440294 3.8314888
v 0.1366849 1.2525058 3.9080381
v 0.04325819 1.0314358 3.6787348
v -0.50968266 2.6096592 0.4325682
v -0.98097765 2.7355986 0.7664299
v -0.7310081 2.472229 0.19033992
v -0.98097765 2.7355986 0.7664299
v -0.39170238 2.4286954 1.2809267
v -0.68153787 1.6616634 1.9048575
v -0.45597777 1.4572313 1.691397
v -0.97458804 1.5982847 1.201016
v -0.68153787 1.6616634 1.9048575
v -1.1370075 1.8478386 1.1788296
v -0.6405531 2.1666417 1.6037211
v -1.5363414 2.0145035 0.67899567
v -1.3838435 2.3449004 0.47657925
v -1.3531889 2.4601817 0.8412614
v -1.1370075 1.8478386 1.1788296
v -1.387945 1.6563976 0.42126405
v -1.5363414 2.0145035 0.67899567
v -0.97458804 1.5982847 1.201016
v -1.387945 1.6563976 0.42126405
v -0.68153787 1.6616634 1.9048575
v 0.18373239 1.6121372 2.239863
v -0.30259326 1.2598417 2.2858384
v 0.04257679 1.3433063 2.4702263
v -0.3202999 1.1838896 1.9423003
v -0.7501517 1.6925203 2.1637018
v -0.4392133 1.3725367 2.2641873
v -0.7501517 1.6925203 2.1637018
v -0.4716503 1.8256843 2.52118
v -0.3202999 1.1838896 1.9423003
v -0.68153787 1.6616634 1.9048575
v 0.18373239 1.6121372 2.239863
v 0.10750258 1.3459527 1.9371623
v -0.30259326 1.2598417 2.2858384
v -0.97458804 1.5982847 1.201016
v -1.0394895 1.524694 0.29260963
v -1.387945 1.6563976 0.42126405
v 0.06405997 1.6762297 3.642745
v -0.21872845 1.9428513 2.6078203
v 0.0836736 1.9045137 2.555326
v 0.0836736 1.9045137 2.555326
v 0.2833733 1.2253361 3.7189403
v 0.06405997 1.6762297 3.642745
v 0.41125488 1.807311 1.9930518
v 0.18373239 1.6121372 2.239863
v 0.18804997 2.2570257 2.2046533
v 0.18373239 1.6121372 2.239863
v 0.04257679 1.3433063 2.4702263
v 0.2833733 1.2253361 3.7189403
v 0.04257679 1.3433063 2.4702263
v 0.04325819 1.0314358 3.6787348
v 0.38471985 0.53062135 1.491592
v -0.13423425 0.44015783 1.3627099
v -0.104171336 0.24545231 1.8450599
v -0.104171336 0.24545231 1.8450599
v -0.13423425 0.44015783 1.3627099
v -0.37902454 0.510308 1.6301211
v 0.07256341 -0.9176206 1.3868127
v -0.24682117 -1.0441021 1.3493915
v -0.32745457 -0.9500981 1.7885063
v -0.24682117 -1.0441021 1.3493915
v -0.4784119 -0.77235615 1.4433973
v -0.32745457 -0.9500981 1.7885063
v -0.65704954 0.82482654 2.1737928
v -0.8507077 0.07869205 1.8542942
v -0.24432907 1.094899 2.066875
v -0.84443176 0.7382913 3.0899558
v -0.9853883 1.0349439 4.484541
v -0.33379346 1.5427662 4.1201873
v -0.49022818 1.17726 5.007319
v -0.97192526 0.8182747 4.9949946
v -0.32745457 -0.9500981 1.7885063
v -0.4784119 -0.77235615 1.4433973
v -0.1393849 -0.54967725 2.042124
v -0.19100937 -0.80646306 2.0241017
v 0.12037802 -1.8137631 2.4768977
v 0.17787981 -1.2856388 2.7065568
v -0.38855982 -1.3467197 3.3448188
v -0.30511653 -1.025662 3.4697165
v -0.30511653 -1.025662 3.4697165
v 0.17787981 -1.2856388 2.7065568
v 0.09587401 -0.9901006 3.6165962
v -0.018133044 -1.2079902 3.8560836
v 0.51140785 -2.5011597 0.38010693
v 1.0817711 -2.1938434 0.8337058
v 1.0148642 -2.3019514 0.4375484
v 0.81558615 -2.1771915 1.8571231
v 0.4196305 -1.2963793 1.97528
v 0.34048387 -1.5389359 1.749382
v 0.67968935 -1.5432265 1.2749879
v 0.15146083 -1.5244899 1.978992
v 0.1366849 1.2525058 3.9080381
v 0.06405997 1.6762297 3.642745
v 0.2833733 1.2253361 3.7189403
v -0.16662017 1.4629798 3.9467223
v -0.48127523 2.19504 2.2494743
v -0.6405531 2.1666417 1.6037211
v -0.30232573 2.2108881 1.8827614
v 0.18804997 2.2570257 2.2046533
v -0.45597777 1.4572313 1.691397
v -0.17669377 1.5453641 1.5843792
v -0.615459 1.6490676 0.53646016
v -0.615459 1.6490676 0.53646016
v -0.97458804 1.5982847 1.201016
v -1.0394895 1.524694 0.29260963
v -0.39170238 2.4286954 1.2809267
v -0.50968266 2.6096592 0.4325682
v -0.29871544 2.4054446 0.73313427
v -0.30232573 2.2108881 1.8827614
v 0.08758843 1.9548402 1.5933845
v 0.07256341 -0.9176206 1.3868127
v 0.117943406 -0.8576888 1.942083
v 0.13151288 -0.5592085 1.9406551
v -0.0038513541 -0.55456245 1.2980427
v -0.9215869 -0.5784203 0.29867682
v -0.54457134 -0.5532894 0.7961461
v -0.5501504 -0.99821293 0.89704466
v -0.9451608 -0.8998983 0.35627574
v 1.2246187 0.6159839 0.8910713
v 0.7667533 0.82502085 1.2410563
v 0.58227783 1.1454308 1.0860482
v 1.1072117 1.1774136 0.6751185
v 0.6264012 0.8315335 1.3659263
v 0.4210922 0.6746846 1.4342071
v 0.23081598 1.0451443 1.4246811
v 0.39079964 1.2454561 1.2786841
v 0.61868703 -1.965317 2.6972117
v 0.06189841 -1.551058 3.7632287
v 0.27926153 -1.3712063 3.6866817
v 0.60974056 -1.5121009 2.8459144
v -0.46999377 1.998435 0.15762389
v -0.7310081 2.472229 0.19033992
v -1.0394895 1.524694 0.29260963
v -1.387945 1.6563976 0.42126405
v -1.3838435 2.3449004 0.47657925
vt 0.19126904 0.32530618
vt 0.25623786 0.2596705
vt 0.1908831 0.28516483
vt 0.2710687 0.16203022
vt 0.19785804 0.12574315
vt 0.21056092 0.065312386
vt 0.122240245 0.0071686506
vt 0.1908831 0.28516483
vt 0.10132772 0.31861556
vt 0.19126904 0.32530618
vt 0.07462144 0.272797
vt 0.19785804 0.12574315
vt 0.078639746 0.13502443
vt 0.122240245 0.0071686506
vt 0.122240245 0.0071686506
vt 0.052831948 0.04861939
vt 0.4328403 0.30957174
vt 0.37280226 0.27555966
vt 0.2874825 0.34737778
vt 0.3340208 0.44129562
vt 0.4328403 0.30957174
vt 0.2874825 0.34737778
vt 0.28158343 0.5159066
vt 0.36577016 0.54197717
vt 0.34419996 0.5780866
vt 0.4694004 0.4355086
vt 0.4328403 0.30957174
vt 0.40538973 0.57714367
vt 0.34419996 0.5780866
vt 0.40538973 0.57714367
vt 0.12742001 0.57460916
vt 0.03216827 0.5391282
vt 0.038885534 0.5907053
vt 0.087815434 0.51269376
vt 0.12742001 0.57460916
vt 0.47436583 0.005257368
vt 0.46853757 0.1212312
vt 0.5336144 0.027517676
vt 0.3722031 0.11996937
vt 0.47284436 0.23010325
vt 0.47436583 0.005257368
vt 0.47284436 0.23010325
vt 0.52134717 0.19131231
vt 0.5336144 0.027517676
vt 0.46853757 0.1212312
vt 0.47284436 0.23010325
vt 0.5336144 0.2650448
vt 0.37351358 0.061435103
vt 0.3722031 0.11996937
vt 0.3167826 0.19174564
vt 0.47284436 0.23010325
vt 0.2893598 0.11715603
vt 0.28158343 0.17085183
vt 0.29451013 0.22075427
vt 0.3714205 0.24353015
vt 0.2893598 0.11715603
vt 0.3167826 0.19174564
vt 0.37351358 0.061435103
vt 0.29253685 0.05325508
vt 0.28158343 0.17085183
vt 0.29451013 0.22075427
vt 0.59893787 0.005257398
vt 0.54412913 0.090301335
vt 0.6514026 0.008322805
vt 0.6359575 0.08864024
vt 0.6514026 0.008322805
vt 0.5614027 0.16156365
vt 0.6359575 0.08864024
vt 0.6653168 0.18730442
vt 0.5977948 0.18730444
vt 0.69893336 0.14480169
vt 0.68063194 0.03458205
vt 0.6514026 0.008322805
vt 0.6989396 0.09829801
vt 0.6514026 0.008322805
vt 0.6359575 0.08864024
vt 0.69893336 0.14480169
vt 0.61779106 0.5365319
vt 0.6605799 0.537189
vt 0.65260506 0.47567797
vt 0.4856801 0.38638973
vt 0.5240371 0.5310998
vt 0.5618098 0.4784565
vt 0.09547451 0.44789088
vt 0.043863058 0.34844875
vt 0.03216827 0.5391282
vt 0.12846309 0.33582103
vt 0.076402724 0.34031188
vt 0.09547451 0.44789088
vt 0.19120425 0.41995025
vt 0.19120425 0.41995025
vt 0.17211637 0.5345017
vt 0.12742001 0.57460916
vt 0.19120425 0.6124128
vt 0.03216827 0.5391282
vt 0.087815434 0.51269376
vt 0.043863058 0.34844875
vt 0.005257368 0.4299822
vt 0.076402724 0.34031188
vt 0.087815434 0.51269376
vt 0.17211637 0.5345017
vt 0.12742001 0.57460916
vt 0.9439743 0.005257383
vt 0.92133963 0.026346996
vt 0.92230517 0.050897866
vt 0.2048216 0.54705447
vt 0.20171906 0.57485074
vt 0.23025267 0.5779813
vt 0.99181455 0.060679287
vt 0.99181455 0.015832514
vt 0.95795304 0.07707518
vt 0.99181455 0.015832514
vt 0.92230517 0.050897866
vt 0.9439743 0.005257383
vt 0.92994523 0.7403246
vt 0.9644186 0.7484749
vt 0.95345074 0.7089351
vt 0.9350405 0.94880307
vt 0.92896676 0.9069126
vt 0.9097414 0.9449656
vt 0.8754177 0.9312648
vt 0.9097414 0.9449656
vt 0.89029837 0.8970248
vt 0.90831196 0.7086367
vt 0.95345074 0.7089351
vt 0.96441853 0.65224516
vt 0.90831196 0.7086367
vt 0.92994523 0.7403246
vt 0.91096747 0.7618531
vt 0.9309 0.7803049
vt 0.9644186 0.7484749
vt 0.89642024 0.8394013
vt 0.89029837 0.8970248
vt 0.9350405 0.84752285
vt 0.92896676 0.9069126
vt 0.89029837 0.8970248
vt 0.45523474 0.7135161
vt 0.43778604 0.77304053
vt 0.47195613 0.77327275
vt 0.92519534 0.59578824
vt 0.9587667 0.6028302
vt 0.9587667 0.56811607
vt 0.92519534 0.59578824
vt 0.92519987 0.5716344
vt 0.8799019 0.97087526
vt 0.9097414 0.9449656
vt 0.8754177 0.9312648
vt 0.62512136 0.59730124
vt 0.65981793 0.61492896
vt 0.65718555 0.56357694
vt 0.23793419 0.34084487
vt 0.25434172 0.35940433
vt 0.26451445 0.3358209
vt 0.20393248 0.39009953
vt 0.23793419 0.34084487
vt 0.20393248 0.39009953
vt 0.24069135 0.41464305
vt 0.20464256 0.7973519
vt 0.15931058 0.7465168
vt 0.17856419 0.8228441
vt 0.19480526 0.74083877
vt 0.15931058 0.7465168
vt 0.20464256 0.7166979
vt 0.15931058 0.7465168
vt 0.14811948 0.7228434
vt 0.14811948 0.7228434
vt 0.1879003 0.68722296
vt 0.20417577 0.6291368
vt 0.15419352 0.6863534
vt 0.14811948 0.7228434
vt 0.20417577 0.6291368
vt 0.15803498 0.6229277
vt 0.14811948 0.7228434
vt 0.11444613 0.7139407
vt 0.12955523 0.67799944
vt 0.673504 0.66144526
vt 0.7197195 0.70913994
vt 0.71750665 0.64365554
vt 0.7569686 0.6702844
vt 0.71750665 0.64365554
vt 0.673504 0.66144526
vt 0.67739475 0.7194681
vt 0.7054869 0.7177156
vt 0.7054869 0.7177156
vt 0.72888196 0.74289584
vt 0.6865035 0.7499857
vt 0.6865035 0.7499857
vt 0.73314 0.7873541
vt 0.73314 0.7873541
vt 0.6945698 0.7852732
vt 0.71787226 0.8393445
vt 0.9457602 0.16873646
vt 0.97448796 0.12713253
vt 0.92133963 0.14228702
vt 0.7472973 0.9307449
vt 0.7472973 0.872887
vt 0.7063047 0.9399264
vt 0.6758912 0.87887037
vt 0.67109454 0.9067825
vt 0.6758912 0.87887037
vt 0.7472973 0.872887
vt 0.7012382 0.85770905
vt 0.7472973 0.872887
vt 0.25500393 0.44121242
vt 0.20171906 0.43906963
vt 0.23550297 0.4701408
vt 0.24069135 0.41464305
vt 0.20171906 0.43906963
vt 0.20393248 0.39009953
vt 0.20321362 0.41665316
vt 0.23550297 0.4701408
vt 0.26442564 0.4729787
vt 0.23550297 0.4701408
vt 0.26451445 0.53147054
vt 0.7569686 0.8405323
vt 0.73314 0.7873541
vt 0.71787226 0.8393445
vt 0.23550297 0.4701408
vt 0.22738786 0.5361283
vt 0.26451445 0.53147054
vt 0.9947426 0.45708233
vt 0.9947426 0.3873455
vt 0.96832395 0.39408684
vt 0.26581168 0.9600434
vt 0.21661913 0.8713036
vt 0.23013186 0.9606418
vt 0.27106857 0.8369423
vt 0.25585747 0.7475963
vt 0.2408557 0.8323798
vt 0.23687859 0.5886013
vt 0.23665145 0.6235741
vt 0.2710687 0.5982694
vt 0.7477224 0.60461164
vt 0.72289455 0.61210215
vt 0.7487867 0.6331406
vt 0.2710687 0.5982694
vt 0.23665145 0.6235741
vt 0.2710687 0.63755363
vt 0.47255656 0.84251046
vt 0.44990036 0.81218815
vt 0.42791948 0.81326413
vt 0.46683666 0.88177514
vt 0.47255656 0.84251046
vt 0.3798369 0.84102917
vt 0.37599066 0.8818276
vt 0.39134404 0.92316103
vt 0.37599066 0.8818276
vt 0.46683666 0.88177514
vt 0.4342868 0.92316103
vt 0.20415044 0.83335876
vt 0.1211288 0.83478457
vt 0.16734242 0.8605154
vt 0.11444616 0.8725538
vt 0.14675379 0.923219
vt 0.16734242 0.8605154
vt 0.1211288 0.83478457
vt 0.5464176 0.7013515
vt 0.571277 0.6997063
vt 0.5676676 0.56357694
vt 0.74836946 0.15128171
vt 0.73740196 0.24730337
vt 0.79581666 0.20594776
vt 0.79581666 0.20594776
vt 0.7759931 0.09773624
vt 0.73740196 0.24730337
vt 0.772573 0.25845027
vt 0.719434 0.084619164
vt 0.7759931 0.09773624
vt 0.7716224 0.05956459
vt 0.73838663 0.005257368
vt 0.7309389 0.055832744
vt 0.719434 0.084619164
vt 0.7309389 0.055832744
vt 0.7428274 0.3830764
vt 0.7877778 0.29566523
vt 0.73401105 0.27555954
vt 0.7534956 0.45036656
vt 0.7363951 0.45448858
vt 0.7363951 0.45448858
vt 0.69476247 0.4492696
vt 0.7578834 0.52376604
vt 0.9578093 0.47567853
vt 0.9578093 0.38734552
vt 0.92519534 0.42992425
vt 0.80894375 0.05984056
vt 0.7716224 0.05956459
vt 0.7759931 0.09773624
vt 0.79803586 0.10387504
vt 0.79581666 0.20594776
vt 0.80894375 0.05984056
vt 0.7759931 0.09773624
vt 0.772573 0.25845027
vt 0.80894375 0.24286008
vt 0.864903 0.67011786
vt 0.8246069 0.6502762
vt 0.8197155 0.69488764
vt 0.8197155 0.69488764
vt 0.844386 0.7070279
vt 0.8246069 0.6502762
vt 0.7674835 0.6436553
vt 0.7872431 0.6899502
vt 0.8197155 0.69488764
vt 0.8239937 0.8098154
vt 0.8246069 0.6502762
vt 0.16734242 0.8605154
vt 0.1783781 0.8982096
vt 0.20415044 0.8993424
vt 0.1928227 0.9322537
vt 0.1783781 0.8982096
vt 0.14675379 0.923219
vt 0.7109214 0.5283303
vt 0.7578834 0.52376604
vt 0.69476247 0.4492696
vt 0.7428274 0.3830764
vt 0.7130693 0.38692904
vt 0.7122122 0.29033825
vt 0.7130693 0.38692904
vt 0.73401105 0.27555954
vt 0.89521444 0.1637944
vt 0.84923756 0.13396466
vt 0.8620515 0.17446804
vt 0.9251953 0.3042364
vt 0.96219283 0.29172707
vt 0.9423704 0.2755599
vt 0.6485996 0.23563111
vt 0.6515205 0.19781919
vt 0.6240959 0.2093509
vt 0.013835907 0.77756715
vt 0.005257368 0.83238626
vt 0.066708684 0.8168068
vt 0.31741714 0.63606346
vt 0.3248155 0.599784
vt 0.28158355 0.6354295
vt 0.55605555 0.2377617
vt 0.59381485 0.19781917
vt 0.5522475 0.20802474
vt 0.54412913 0.26348114
vt 0.59381485 0.23783112
vt 0.59381485 0.19781917
vt 0.835969 0.48681784
vt 0.80950475 0.5761738
vt 0.83078027 0.5493734
vt 0.83078027 0.5493734
vt 0.85419273 0.6303477
vt 0.79829264 0.6084049
vt 0.85419273 0.6303477
vt 0.3357215 0.77865034
vt 0.3864591 0.7388352
vt 0.33516383 0.7147121
vt 0.37257838 0.66567427
vt 0.31741714 0.63606346
vt 0.31741714 0.63606346
vt 0.36161947 0.61466384
vt 0.38822794 0.58860135
vt 0.3248155 0.599784
vt 0.83078027 0.5493734
vt 0.85419273 0.6303477
vt 0.889385 0.5928514
vt 0.85419273 0.6303477
vt 0.9146805 0.6193383
vt 0.835969 0.48681784
vt 0.83078027 0.5493734
vt 0.88171077 0.48731494
vt 0.835969 0.48681784
vt 0.89004946 0.44942403
vt 0.8621838 0.42141032
vt 0.83816504 0.44440794
vt 0.83816504 0.44440794
vt 0.835969 0.48681784
vt 0.10393143 0.8205993
vt 0.07027805 0.7827587
vt 0.066708684 0.8168068
vt 0.3357215 0.77865034
vt 0.37281346 0.8016735
vt 0.38822794 0.7631328
vt 0.3864591 0.7388352
vt 0.3357215 0.77865034
vt 0.87211275 0.038712025
vt 0.9108248 0.018682003
vt 0.87660134 0.005257368
vt 0.9639058 0.48619324
vt 0.9329059 0.5342275
vt 0.9639058 0.5510242
vt 0.92695165 0.5048611
vt 0.9639058 0.48619324
vt 0.9251952 0.5576012
vt 0.9639058 0.5510242
vt 0.9242636 0.18566406
vt 0.964975 0.24158978
vt 0.964975 0.18074584
vt 0.9242636 0.18566406
vt 0.92133963 0.253976
vt 0.964975 0.24158978
vt 0.06295526 0.62292767
vt 0.08993268 0.6840017
vt 0.10393143 0.64154005
vt 0.06295526 0.62292767
vt 0.038015246 0.6740012
vt 0.08993268 0.6840017
vt 0.9251953 0.3042364
vt 0.93261665 0.37248325
vt 0.96219283 0.29172707
vt 0.76748335 0.9831836
vt 0.8141438 0.97392845
vt 0.798252 0.8829789
vt 0.798252 0.8829789
vt 0.83362854 0.8751576
vt 0.79988754 0.83248234
vt 0.83406484 0.8320372
vt 0.8141438 0.97392845
vt 0.83406484 0.96980596
vt 0.89521444 0.1637944
vt 0.87211275 0.038712025
vt 0.84923756 0.13396466
vt 0.87211275 0.038712025
vt 0.8564544 0.03733599
vt 0.87660134 0.005257368
vt 0.89521444 0.1637944
vt 0.8990729 0.064995766
vt 0.87211275 0.038712025
vt 0.89450717 0.19301128
vt 0.9108248 0.17831779
vt 0.9067179 0.8288865
vt 0.9309 0.7803049
vt 0.8812041 0.7945287
vt 0.40538973 0.57714367
vt 0.47516525 0.5165987
vt 0.4694004 0.4355086
vt 0.47516525 0.34918928
vt 0.4328403 0.30957174
vt 0.4694004 0.4355086
vt 0.58049226 0.2834792
vt 0.6435034 0.373734
vt 0.6605799 0.2755599
vt 0.58049226 0.2834792
vt 0.59855664 0.4286852
vt 0.59855664 0.4286852
vt 0.65260506 0.47567797
vt 0.61779106 0.5365319
vt 0.59855664 0.4286852
vt 0.52606 0.3247366
vt 0.5618098 0.4784565
vt 0.61779106 0.5365319
vt 0.5618098 0.4784565
vt 0.5548409 0.55306244
vt 0.18805724 0.005257368
vt 0.122240245 0.0071686506
vt 0.21056092 0.065312386
vt 0.4856801 0.38638973
vt 0.5618098 0.4784565
vt 0.52606 0.3247366
vt 0.8812041 0.7945287
vt 0.87679344 0.8206154
vt 0.9067179 0.8288865
vt 0.2048216 0.54705447
vt 0.23025267 0.5779813
vt 0.23025267 0.54664314
vt 0.92896676 0.9069126
vt 0.89029837 0.8970248
vt 0.9097414 0.9449656
vt 0.6430344 0.8427568
vt 0.6002036 0.8351369
vt 0.6344634 0.8735565
vt 0.5817919 0.87755203
vt 0.6002036 0.8351369
vt 0.62645787 0.89697915
vt 0.6022385 0.8976833
vt 0.60383487 0.9627361
vt 0.3987427 0.77327275
vt 0.43778604 0.77304053
vt 0.4144048 0.7148825
vt 0.4144048 0.7148825
vt 0.45523474 0.7135161
vt 0.41172683 0.6707088
vt 0.4144048 0.7148825
vt 0.46821415 0.6724001
vt 0.4456141 0.65104496
vt 0.90831196 0.7086367
vt 0.96441853 0.65224516
vt 0.92324495 0.64670277
vt 0.902167 0.6436555
vt 0.90831196 0.7086367
vt 0.92994523 0.7403246
vt 0.8754177 0.7323829
vt 0.8754177 0.7323829
vt 0.91096747 0.7618531
vt 0.41078126 0.6530678
vt 0.41172683 0.6707088
vt 0.4456141 0.65104496
vt 0.4456141 0.65104496
vt 0.41025606 0.58860135
vt 0.43799156 0.5887897
vt 0.8754177 0.7323829
vt 0.8801694 0.7578427
vt 0.91096747 0.7618531
vt 0.15931058 0.7465168
vt 0.14956316 0.8036892
vt 0.17856419 0.8228441
vt 0.97448796 0.17023104
vt 0.97448796 0.12713253
vt 0.9457602 0.16873646
vt 0.97448796 0.12713253
vt 0.9522252 0.08758995
vt 0.92133963 0.14228702
vt 0.8194586 0.23472863
vt 0.8496697 0.24262702
vt 0.8496697 0.20352614
vt 0.6257844 0.6951201
vt 0.6115116 0.7670691
vt 0.65981793 0.76396537
vt 0.5965323 0.71194136
vt 0.6115116 0.7670691
vt 0.5817919 0.6680901
vt 0.6492834 0.66417587
vt 0.63710463 0.6419661
vt 0.97198266 0.9201985
vt 0.97198266 0.83940136
vt 0.94555527 0.9025225
vt 0.5910364 0.6328182
vt 0.5817919 0.6680901
vt 0.63710463 0.6419661
vt 0.20321362 0.41665316
vt 0.20171906 0.43906963
vt 0.24069135 0.41464305
vt 0.571277 0.8886708
vt 0.54170287 0.88050175
vt 0.5464932 0.9156415
vt 0.54170287 0.88050175
vt 0.51174057 0.89715314
vt 0.5464932 0.9156415
vt 0.7578834 0.52376604
vt 0.7109214 0.5283303
vt 0.7477224 0.60461164
vt 0.23665145 0.6235741
vt 0.22718662 0.7118558
vt 0.2710687 0.63755363
vt 0.7877778 0.6027014
vt 0.7487867 0.6331406
vt 0.7784674 0.6326228
vt 0.21764246 0.616146
vt 0.23665145 0.6235741
vt 0.23687859 0.5886013
vt 0.69476247 0.4492696
vt 0.7130693 0.38692904
vt 0.6877053 0.44500357
vt 0.7094543 0.07877219
vt 0.719434 0.084619164
vt 0.7309389 0.055832744
vt 0.7363951 0.45448858
vt 0.7744515 0.46168834
vt 0.7534956 0.45036656
vt 0.16734242 0.8605154
vt 0.14675379 0.923219
vt 0.1783781 0.8982096
vt 0.52589166 0.6194202
vt 0.5676676 0.56357694
vt 0.52388704 0.56794417
vt 0.5464176 0.7013515
vt 0.5676676 0.56357694
vt 0.5158874 0.7162026
vt 0.5622083 0.7365384
vt 0.5231806 0.7408682
vt 0.5576979 0.782405
vt 0.5464176 0.7013515
vt 0.52589166 0.6194202
vt 0.5158874 0.7162026
vt 0.52589166 0.6194202
vt 0.52388704 0.56794417
vt 0.48637307 0.5763061
vt 0.48637307 0.5763061
vt 0.49992383 0.66651475
vt 0.8197155 0.69488764
vt 0.8239937 0.8098154
vt 0.864903 0.82152224
vt 0.26581168 0.8474571
vt 0.21661913 0.8713036
vt 0.26581168 0.9600434
vt 0.51100385 0.8132744
vt 0.5576979 0.782405
vt 0.5231806 0.7408682
vt 0.51100385 0.8132744
vt 0.5231806 0.7408682
vt 0.48567998 0.74950266
vt 0.7109214 0.5283303
vt 0.69476247 0.4492696
vt 0.67109454 0.47441986
vt 0.08215594 0.8674778
vt 0.1032424 0.9048857
vt 0.1032424 0.84290093
vt 0.8620515 0.17446804
vt 0.89450717 0.19301128
vt 0.89521444 0.1637944
vt 0.07027805 0.7827587
vt 0.013835907 0.77756715
vt 0.066708684 0.8168068
vt 0.013835907 0.77756715
vt 0.04952669 0.7176862
vt 0.3654759 0.8227259
vt 0.32979476 0.8242898
vt 0.34136522 0.8917706
vt 0.3864591 0.7388352
vt 0.37257838 0.66567427
vt 0.33516383 0.7147121
vt 0.36161947 0.61466384
vt 0.3248155 0.599784
vt 0.31741714 0.63606346
vt 0.36119175 0.9019078
vt 0.32584786 0.9730303
vt 0.3654759 0.9618157
vt 0.34136522 0.8917706
vt 0.32584786 0.9730303
vt 0.3654759 0.8227259
vt 0.86439323 0.88306224
vt 0.86439323 0.8320373
vt 0.8445797 0.8519409
vt 0.87660134 0.005257368
vt 0.8194585 0.031546474
vt 0.8564544 0.03733599
vt 0.8194585 0.031546474
vt 0.836905 0.073450565
vt 0.87660134 0.005257368
vt 0.82952774 0.008857369
vt 0.8621838 0.42141032
vt 0.89004946 0.44942403
vt 0.909286 0.4190309
vt 0.34136522 0.8917706
vt 0.29006368 0.95980847
vt 0.32584786 0.9730303
vt 0.96219283 0.29172707
vt 0.93261665 0.37248325
vt 0.96219283 0.37683082
vt 0.8372729 0.39395452
vt 0.8893666 0.27555943
vt 0.85495377 0.2879529
vt 0.83816504 0.44440794
vt 0.8621838 0.42141032
vt 0.80295134 0.42913723
vt 0.8621838 0.42141032
vt 0.890378 0.39870715
vt 0.8893666 0.27555943
vt 0.890378 0.39870715
vt 0.9146805 0.2803018
vt 0.5910364 0.6328182
vt 0.63710463 0.6419661
vt 0.62512136 0.59730124
vt 0.62512136 0.59730124
vt 0.63710463 0.6419661
vt 0.65981793 0.61492896
vt 0.9309 0.7803049
vt 0.91096747 0.7618531
vt 0.8812041 0.7945287
vt 0.91096747 0.7618531
vt 0.8801694 0.7578427
vt 0.8812041 0.7945287
vt 0.052831948 0.04861939
vt 0.122240245 0.0071686506
vt 0.015373647 0.042557955
vt 0.078639746 0.13502443
vt 0.07462144 0.272797
vt 0.005257368 0.24565578
vt 0.055496514 0.32530618
vt 0.10132772 0.31861556
vt 0.6430344 0.9326629
vt 0.62645787 0.89697915
vt 0.60383487 0.9627361
vt 0.62883687 0.95877916
vt 0.5576979 0.782405
vt 0.51100385 0.8132744
vt 0.54170287 0.88050175
vt 0.51174057 0.89715314
vt 0.7877778 0.6027014
vt 0.7578834 0.52376604
vt 0.7477224 0.60461164
vt 0.7487867 0.6331406
vt 0.8239937 0.8098154
vt 0.77378726 0.7876375
vt 0.78174007 0.81948066
vt 0.7872431 0.6899502
vt 0.49468625 0.7408657
vt 0.5158874 0.7162026
vt 0.49992383 0.66651475
vt 0.5231806 0.7408682
vt 0.6485996 0.23563111
vt 0.6043296 0.23963682
vt 0.6515205 0.25251865
vt 0.6240959 0.2093509
vt 0.008377194 0.65572095
vt 0.023609877 0.7139571
vt 0.038015246 0.6740012
vt 0.06295526 0.62292767
vt 0.32979476 0.8242898
vt 0.30901265 0.81218815
vt 0.2815835 0.9133351
vt 0.2815835 0.9133351
vt 0.34136522 0.8917706
vt 0.29006368 0.95980847
vt 0.04952669 0.7176862
vt 0.07027805 0.7827587
vt 0.08102441 0.7553761
vt 0.038015246 0.6740012
vt 0.08993268 0.6840017
vt 0.66203517 0.20862347
vt 0.66434765 0.26108485
vt 0.69233143 0.26108485
vt 0.69419575 0.19781917
vt 0.6056329 0.77758384
vt 0.6002036 0.8351369
vt 0.6430344 0.8427568
vt 0.6368431 0.7810291
vt 0.71787226 0.8393445
vt 0.6945698 0.7852732
vt 0.67109454 0.78274643
vt 0.6745682 0.84719443
vt 0.88407433 0.20352618
vt 0.86018443 0.20581944
vt 0.86370957 0.2463649
vt 0.8840744 0.25168657
vt 0.21860504 0.72237056
vt 0.21661901 0.83694243
vt 0.2408557 0.8323798
vt 0.25585747 0.7475963
vt 0.027588606 0.93856287
vt 0.07164121 0.92207545
vt 0.005257368 0.87622046
vt 0.021690369 0.84290093
vt 0.07164121 0.8519333
vn 0.10598162 0.080551274 0.9910999
vn -0.96388733 -0.25419632 0.079406574
vn -0.96356946 0.24022013 -0.117592886
vn -0.8878207 -0.44728318 -0.108222
vn -0.9601369 0.2357936 -0.15012853
vn -0.8157416 -0.45563948 -0.35631186
vn -0.2600219 -0.18992887 -0.9467394
vn -0.9635735 0.24019265 -0.11761605
vn -0.8664283 0.32999733 0.37470487
vn 0.105972216 0.08064099 0.99109364
vn -0.9481994 0.2931194 -0.12246944
vn -0.9601419 0.2357787 -0.1501192
vn -0.95660174 0.25165188 -0.14691597
vn -0.25998777 -0.18992591 -0.9467493
vn -0.26001468 -0.18996127 -0.9467348
vn -0.9065252 0.38852742 -0.16510084
vn -0.14814937 0.5245925 0.83836395
vn 0.3465578 0.54142153 0.7660028
vn 0.3942922 0.12040129 0.91106373
vn 0.58988696 -0.13456158 0.7961949
vn -0.14817537 0.5245229 0.838403
vn 0.3942981 0.12041713 0.9110589
vn 0.6290324 -0.33434364 0.7018066
vn 0.1692243 -0.21152863 0.9626103
vn -0.015516802 -0.98522973 -0.1705322
vn 0.10598427 0.08056921 0.99109817
vn -0.14819726 0.52454877 0.838383
vn -0.07052438 -0.99460703 -0.076046355
vn -0.015611783 -0.9852403 -0.17046294
vn -0.07057741 -0.9946018 -0.07606442
vn 0.34655616 0.5414186 0.7660055
vn 0.96680987 0.1901493 0.17065147
vn 0.39428926 0.12041284 0.91106343
vn 0.17311567 0.9423709 -0.28630033
vn 0.34650844 0.5414415 0.7660109
vn 0.9668089 0.1901515 0.17065427
vn 0.99529487 0.039225437 0.088596344
vn 0.39430588 0.12038955 0.9110593
vn 0.9047862 -0.39955744 -0.14736229
vn 0.2457619 -0.9391162 -0.24012853
vn 0.96679854 0.1901901 0.17067069
vn 0.24577287 -0.93909967 -0.24018192
vn 0.6290455 -0.33434916 0.7017921
vn 0.39430928 0.120451 0.9110496
vn 0.99529284 0.039224077 0.0886193
vn 0.24575095 -0.93911207 -0.24015582
vn -0.01553005 -0.9852311 -0.17052321
vn 0.8405361 0.49939632 -0.21000534
vn 0.904791 -0.39954215 -0.14737426
vn 0.83778614 -0.5097314 -0.19567357
vn 0.24574783 -0.9391044 -0.24018902
vn 0.57926255 0.19094539 -0.79246116
vn 0.2397285 -0.20418055 -0.94912606
vn -0.12509911 -0.31041196 -0.9423345
vn 0.26545727 -0.9106328 -0.31667033
vn 0.5792468 0.19093978 -0.792474
vn 0.8377789 -0.50974196 -0.19567692
vn 0.8405524 0.4993821 -0.20997436
vn 0.8561501 0.36033913 -0.3703545
vn 0.23973812 -0.2041727 -0.9491254
vn -0.12509426 -0.31040043 -0.942339
vn -0.38935432 0.91502506 -0.10550877
vn -0.25999925 -0.18998247 -0.9467347
vn 0.062334742 0.95087636 -0.30322984
vn -0.13218755 -0.17294416 -0.9760208
vn 0.062359743 0.9508725 -0.30323705
vn -0.18809018 -0.25261852 -0.9491078
vn -0.13216972 -0.1729405 -0.97602373
vn -0.1251356 -0.31041408 -0.94232893
vn -0.15789175 -0.89616543 -0.41467765
vn 0.23972483 -0.20415574 -0.9491324
vn 0.85614157 0.36034736 -0.37036636
vn 0.06229975 0.9508703 -0.30325633
vn 0.57926756 0.19091818 -0.7924639
vn 0.06233764 0.9508689 -0.30325246
vn -0.13218112 -0.17292565 -0.976025
vn 0.23969008 -0.20416944 -0.9491382
vn -0.15789786 -0.8961553 -0.41469717
vn -0.1880527 -0.25260642 -0.9491185
vn -0.81575716 -0.4556227 -0.3562976
vn 0.24577712 -0.9390935 -0.24020141
vn 0.83779246 -0.50971013 -0.19570218
vn 0.26544887 -0.9106326 -0.3166779
vn 0.431776 0.86998576 -0.23810507
vn 0.8561612 0.3603468 -0.37032157
vn 0.9667971 0.19018167 0.17068794
vn -0.38937137 0.91501594 -0.105525054
vn 0.062336482 0.95087004 -0.30324945
vn 0.43175414 0.8700063 -0.23806976
vn -0.9565914 0.2516742 -0.14694536
vn -0.95660454 0.25162297 -0.14694792
vn -0.62513804 0.73934305 -0.2501482
vn 0.34658223 0.54142046 0.7659924
vn -0.14812541 0.5245582 0.8383898
vn 0.96679777 0.19019413 0.17067038
vn 0.17314264 0.9423754 -0.28626874
vn 0.85615456 0.36031917 -0.37036392
vn 0.84053975 0.49939403 -0.20999616
vn 0.062315375 0.95087576 -0.3032358
vn 0.17313528 0.9423705 -0.2862898
vn -0.6251316 0.73934406 -0.2501611
vn 0.3466094 0.541429 0.76597416
vn -0.86406827 0.16829309 0.47440845
vn -0.8012653 0.11392737 0.5873621
vn 0.016260222 -0.9996094 -0.022725243
vn -0.07913754 0.9928893 0.088925734
vn 0.97338164 0.18176895 -0.1395995
vn 0.99116075 -0.021872884 -0.13085116
vn 0.69331497 0.58911455 -0.41504025
vn 0.1658839 0.9758122 -0.14238307
vn -0.28009462 -0.17465718 -0.94395006
vn 0.16590412 0.975813 -0.14235432
vn 0.016170705 -0.9996113 -0.02270631
vn -0.8640495 0.16825892 0.4744547
vn 0.27214104 -0.8656554 0.42007026
vn 0.41523927 -0.84106904 0.34646958
vn 0.19123551 -0.97931683 0.06606377
vn 0.050385296 0.9039443 -0.42456427
vn 0.010462932 0.93850374 -0.34510845
vn 0.8440635 0.23580009 0.48118025
vn 0.41521972 -0.8410846 0.34645525
vn 0.84403163 0.23587492 0.48119932
vn 0.1912056 -0.97932494 0.066030726
vn -0.82361853 0.06192457 0.5636145
vn 0.19121493 -0.9793205 0.066069536
vn -0.28001893 -0.17463985 -0.9439757
vn -0.82361925 0.062054373 0.5635991
vn 0.27209848 -0.8656711 0.42006558
vn 0.2328214 -0.846226 0.4792508
vn 0.9952545 -0.05867226 -0.07741608
vn 0.41524315 -0.84106094 0.34648448
vn -0.2801186 -0.17466906 -0.94394076
vn 0.19121915 -0.97931945 0.06607215
vn 0.69333965 0.5890757 -0.4150538
vn 0.010414101 0.9385205 -0.34506413
vn 0.19123292 -0.9793155 0.06609081
vn 0.010414995 0.9385048 -0.34510696
vn 0.16585983 0.9758222 -0.14234228
vn 0.6933362 0.5890895 -0.41504022
vn 0.050385848 0.90396523 -0.4245195
vn 0.84403706 0.23587508 0.48118973
vn 0.99525833 -0.058661968 -0.07737538
vn 0.05036983 0.9039711 -0.42450923
vn 0.959579 0.2785695 -0.03983444
vn 0.99525964 -0.05866609 -0.07735576
vn 0.8440359 0.23585646 0.48120096
vn 0.41528356 -0.84105444 0.3464522
vn 0.3767658 -0.87119085 0.31476006
vn -0.86395437 -0.37576038 0.33524168
vn -0.44112727 -0.4112682 0.7976622
vn -0.441099 -0.41120195 0.7977122
vn -0.25920048 0.96547055 -0.026107771
vn -0.088620156 0.9736566 0.21009311
vn -0.8639597 -0.3757558 0.33523303
vn -0.44114083 -0.41123095 0.797674
vn -0.863964 -0.37569988 0.33528474
vn -0.48210987 0.822321 -0.28346726
vn -0.25922284 0.96546465 -0.026100982
vn 0.6621188 0.3801025 0.6196468
vn -0.08858348 0.97365505 0.21011578
vn -0.48212808 0.8223117 -0.28346214
vn 0.66211724 0.38006562 0.61967003
vn -0.4497676 0.8392508 -0.19789058
vn 0.6621194 0.3800341 0.6196864
vn 0.33709937 0.41233164 0.7556634
vn 0.33715588 0.41229907 0.75565267
vn -0.2700218 0.953824 -0.09304538
vn -0.054009795 0.5323461 -0.8447996
vn 0.62798625 0.5096844 0.5479472
vn 0.33715218 0.4123039 0.75565207
vn -0.053981274 0.53236336 -0.8447906
vn 0.6642964 0.52962506 0.52745247
vn 0.33710784 0.4123212 0.75566435
vn 0.3251804 0.31808755 0.79713166
vn 0.6429194 0.40474296 0.6502577
vn 0.79145217 0.570215 0.22013234
vn 0.9880956 0.10383717 0.09236573
vn 0.47696894 -0.5301875 0.7010006
vn 0.37673295 -0.87122023 0.314718
vn 0.4769314 -0.530206 0.7010121
vn 0.79142755 0.57023746 0.22016273
vn 0.6621325 0.38009855 0.6196345
vn 0.9095689 0.28939047 0.1940324
vn 0.9095733 0.28936914 0.19404164
vn 0.74145466 -0.5433744 0.16880655
vn 0.32514906 0.31815168 0.7971237
vn 0.32513997 0.31805867 0.7971575
vn -0.038229182 -0.95125294 0.30254567
vn -0.03823474 -0.9512556 0.30253664
vn 0.6429148 0.4047239 0.65027416
vn 0.71966255 0.4061417 0.5631459
vn -0.088539325 0.973653 0.2101441
vn 0.47692487 -0.53023463 0.7009949
vn -0.4411618 -0.4112093 0.7976736
vn 0.71968603 0.40617922 0.56308866
vn 0.6643101 0.5296496 0.52741075
vn 0.6931751 -0.20847297 -0.6899637
vn 0.65041274 0.04824607 -0.7580485
vn -0.4174756 -0.87285787 -0.2526522
vn 0.6503852 0.048254974 -0.75807154
vn 0.66430414 0.5296168 0.5274511
vn -0.054048955 0.5323527 -0.84479284
vn 0.66429013 0.52967674 0.5274086
vn -0.44976765 0.83924025 -0.1979268
vn -0.061579272 -0.9847184 -0.14944485
vn -0.70711255 -0.46889424 -0.4715858
vn -0.48211408 0.82233846 -0.28341118
vn -0.06162777 -0.9847131 -0.1494536
vn -0.863954 -0.37576386 0.33523875
vn 0.18980972 -0.91781336 -0.34466517
vn -0.707088 -0.46889842 -0.47161877
vn -0.27002946 0.95381856 -0.09307354
vn -0.7071274 -0.46890715 -0.47155178
vn -0.05402997 0.5323297 -0.8448085
vn 0.69316894 -0.20848884 -0.6899651
vn -0.03822957 -0.95122975 0.302617
vn 0.71966964 0.4061239 0.56314933
vn -0.707086 -0.46890017 -0.4716201
vn 0.6503799 0.048284836 -0.75807416
vn -0.054039776 0.53239775 -0.8447652
vn -0.09939059 -0.9840547 -0.13921912
vn -0.41756356 -0.87281346 -0.2526603
vn 0.6504023 0.048225462 -0.7580586
vn -0.043784514 -0.9378867 0.34416765
vn -0.4581277 -0.88826483 0.03323683
vn -0.86992586 -0.40441892 -0.28226635
vn 0.16739544 0.9561471 -0.24033591
vn 0.83690983 -0.2115373 0.5048106
vn 0.84448975 -0.25521052 0.47085524
vn 0.11223799 0.18376923 0.9765404
vn 0.75768214 -0.42322892 0.49678463
vn -0.63406104 0.4322022 0.64122367
vn 0.16732514 0.95615935 -0.24033627
vn 0.844468 -0.2552395 0.47087818
vn 0.11224258 0.18377396 0.9765389
vn -0.6339977 0.43225554 0.6412503
vn 0.75768614 -0.42324486 0.49676514
vn -0.043792486 -0.9379063 0.3441131
vn 0.0703595 -0.2694542 -0.9604393
vn 0.42554662 0.8850757 0.1885491
vn 0.17210059 -0.059530735 -0.9832788
vn 0.17975952 -0.26006407 -0.9487112
vn 0.0703198 -0.26942465 -0.9604504
vn -0.012831509 0.9983308 -0.056309015
vn 0.114372104 -0.19765094 -0.9735774
vn 0.08759552 -0.2845042 -0.95466435
vn 0.1143299 -0.19764295 -0.97358394
vn 0.17974979 -0.26009226 -0.9487053
vn -0.47745577 -0.8642641 0.15837741
vn 0.83693266 -0.21155772 0.5047641
vn 0.9795846 -0.12692907 -0.15589353
vn -0.106016435 -0.984133 0.14227653
vn -0.11979737 -0.755839 0.64370483
vn -0.7103095 -0.600554 0.36714488
vn -0.10606536 -0.9841252 0.1422945
vn 0.97958016 -0.12693614 -0.15591621
vn -0.91507936 -0.3604406 0.18086553
vn -0.18915242 -0.95575994 0.22526401
vn 0.0875622 -0.28443092 -0.95468915
vn 0.93831366 0.33674145 0.078565836
vn 0.42552847 0.88510734 0.18844153
vn 0.49089456 -0.85941905 0.14290206
vn 0.4908817 -0.85941863 0.1429484
vn 0.9774153 -0.12475188 -0.170576
vn 0.42553887 0.88508797 0.18850875
vn 0.07035184 -0.26942918 -0.96044683
vn 0.97826564 -0.1142299 -0.1730545
vn 0.9774215 -0.12475081 -0.17054097
vn 0.97958916 -0.12686881 -0.15591425
vn 0.8369197 -0.2115751 0.50477827
vn 0.6472849 0.16918336 0.74323535
vn 0.97826594 -0.11425182 -0.17303757
vn 0.64729464 0.16919892 0.7432234
vn 0.26032317 0.9588161 0.11359152
vn -0.012808934 0.9983305 -0.056319505
vn 0.1720902 -0.059482157 -0.9832835
vn -0.17464042 0.9121153 -0.37087223
vn 0.095250696 0.9895849 -0.10793108
vn 0.09522963 0.98958766 -0.107923806
vn 0.22815023 0.9485151 -0.2196961
vn -0.598156 0.5099085 -0.61822534
vn -0.761912 0.28598872 -0.58112
vn -0.9344277 0.3537206 0.04155031
vn 0.2603203 0.958819 0.11357391
vn -0.119795926 -0.7558388 0.64370537
vn 0.97958845 -0.12686682 -0.15592055
vn 0.97742474 -0.12474923 -0.17052415
vn 0.3544134 -0.9117743 0.20750575
vn 0.49090323 -0.8594115 0.14291765
vn -0.11986859 -0.7558739 0.64365065
vn 0.9774237 -0.124717265 -0.17055348
vn 0.07033764 -0.26938498 -0.9604603
vn 0.17981584 -0.260052 -0.94870377
vn -0.8662071 -0.45158246 0.21391249
vn -0.7103287 -0.6005438 0.36712438
vn -0.18914786 -0.95574045 0.22535115
vn -0.1891729 -0.9557411 0.22532725
vn -0.91508114 -0.36043048 0.18087721
vn -0.7103164 -0.60056955 0.36710593
vn -0.11981006 -0.755829 0.64371437
vn 0.3544086 -0.9117672 0.20754436
vn -0.18913913 -0.9557508 0.22531414
vn -0.47740763 -0.8642851 0.15840784
vn -0.71026146 -0.600589 0.36718076
vn -0.10604815 -0.98413444 0.14224228
vn -0.75230336 -0.54643905 0.36802718
vn -0.45817316 -0.88824034 0.03326413
vn -0.86621994 -0.45156476 0.21389759
vn -0.75228703 -0.5464552 0.36803642
vn -0.7102903 -0.6005802 0.36713913
vn 0.8369412 -0.21156019 0.504749
vn -0.5981699 0.5099523 -0.61817575
vn 0.22811893 0.9485219 -0.21969923
vn 0.26030847 0.9588258 0.11354256
vn 0.93831867 0.33672693 0.07856703
vn 0.42553967 0.8850879 0.18850735
vn 0.93830514 0.33676082 0.07858497
vn 0.17208642 -0.059538335 -0.9832809
vn 0.5026792 -0.8450478 -0.18223
vn -0.6523446 -0.7573604 0.02918458
vn -0.9480567 -0.015953619 0.31770116
vn -0.3370601 0.88221097 0.32877648
vn 0.8388865 0.5268062 0.13691092
vn -0.8969923 0.13585629 0.42065173
vn 0.57992715 0.38041276 0.7203961
vn -0.9480732 -0.01591212 0.31765375
vn -0.89698005 0.13584858 0.42068034
vn -0.2843305 0.7826045 0.5537925
vn -0.430727 0.15202925 -0.88958484
vn -0.36195856 0.605388 -0.7088661
vn -0.4392736 0.62640285 0.6439394
vn -0.4307672 0.15200603 -0.88956934
vn -0.28425735 0.78262997 0.55379397
vn 0.112483665 -0.9855082 -0.12696737
vn 0.63627166 -0.7134653 0.29347125
vn 0.73658633 -0.56440556 -0.37267503
vn -0.8849365 0.21660268 0.41227466
vn 0.2277852 -0.7079209 -0.6685518
vn 0.63622355 -0.7134934 0.29350722
vn 0.7271661 0.68233794 0.07512969
vn 0.7380235 0.6724395 0.056090117
vn 0.84251285 -0.2757349 -0.46275523
vn 0.8425028 -0.27576944 -0.46275282
vn -0.07199145 -0.123491526 -0.9897308
vn 0.43975198 0.8961709 0.059123248
vn -0.072027296 -0.12348126 -0.98972946
vn -0.21003185 0.79214185 0.5730599
vn -0.8849481 0.21660587 0.41224825
vn -0.7472992 0.37459266 0.5488389
vn -0.71994805 0.092026845 0.6878994
vn -0.43926796 0.6264128 0.6439337
vn -0.43920162 0.62641287 0.6439788
vn -0.77230304 -0.4766364 0.41995937
vn -0.48651195 -0.6132601 -0.6222684
vn -0.4307314 0.15204243 -0.8895804
vn 0.8425086 -0.2757719 -0.46274078
vn -0.072024964 -0.123543754 -0.98972183
vn 0.56286705 -0.8201166 -0.10290429
vn -0.072042264 -0.12350391 -0.9897255
vn -0.37804228 -0.16818921 -0.9103825
vn 0.7271609 0.68234706 0.07509822
vn 0.8425088 -0.2757614 -0.4627467
vn 0.73659146 -0.5643799 -0.37270403
vn 0.7272034 0.6822941 0.07516572
vn 0.6362655 -0.7134601 0.29349723
vn 0.87242246 -0.033333242 0.48761436
vn 0.94874215 0.037210874 0.313853
vn 0.9487423 0.03716801 0.31385785
vn 0.72713685 0.6823753 0.07507306
vn -0.0720662 -0.12345883 -0.9897294
vn 0.43971723 0.8961896 0.05910033
vn -0.36192805 0.6054122 -0.708861
vn -0.21003908 0.792135 0.57306683
vn -0.9979467 0.001501618 0.06403245
vn -0.91640633 0.38214168 -0.11902617
vn -0.88492817 0.21662119 0.412283
vn -0.21002668 0.7921349 0.57307136
vn 0.20703939 -0.9557863 -0.20882294
vn 0.63625133 -0.71346533 0.29351568
vn 0.22777228 -0.7079606 -0.66851425
vn 0.8838134 0.14165312 0.44587904
vn 0.04579999 0.97228634 0.22926289
vn -0.21001133 0.79212415 0.57309186
vn 0.99562013 -0.009272646 -0.09302943
vn 0.88384163 0.14171927 0.44580206
vn -0.99795103 0.0015444551 0.06396346
vn -0.21001142 0.792103 0.5731213
vn -0.7472946 0.3745463 0.54887676
vn -0.2842957 0.7826256 0.5537806
vn 0.61185205 0.77307 0.16733146
vn -0.7472927 0.37458915 0.54885024
vn -0.43924028 0.6264142 0.6439512
vn -0.28428715 0.78262645 0.5537837
vn 0.8838096 0.14173734 0.4458599
vn 0.7271656 0.6823414 0.07510266
vn 0.94873035 0.037222005 0.31388676
vn 0.8838264 0.14168842 0.44584203
vn 0.6202501 0.7803471 0.07967365
vn 0.7271787 0.68233025 0.075077415
vn -0.33708 0.8822131 0.32875046
vn 0.045817174 0.97229147 0.22923753
vn 0.83887666 0.52681714 0.13692957
vn -0.98321044 -0.1764105 0.04665357
vn -0.9979485 0.0015188996 0.06400366
vn -0.65233564 -0.75736487 0.029269427
vn -0.652359 -0.7573489 0.029158741
vn -0.337057 0.8822186 0.32875964
vn -0.94806725 -0.01595378 0.3176694
vn -0.89697456 0.13586085 0.4206881
vn -0.9979463 0.0015239175 0.06403799
vn 0.045813736 0.97228074 0.22928363
vn 0.5026539 -0.84506977 -0.18219772
vn 0.20702578 -0.9558034 -0.20875807
vn -0.65235096 -0.7573538 0.029212981
vn 0.20703703 -0.9557979 -0.20877169
vn -0.98320657 -0.17642207 0.046690762
vn 0.22784798 -0.7079935 -0.66845363
vn 0.5026676 -0.845061 -0.18220064
vn 0.95487636 -0.19935712 -0.22015408
vn 0.20701185 -0.95579505 -0.20881021
vn 0.5799767 0.38038728 0.72036964
vn 0.7781686 -0.6069436 -0.16147162
vn 0.99114877 -0.021919668 -0.13093352
vn 0.9952605 -0.058640037 -0.07736421
vn -0.8785587 -0.047586665 0.4752578
vn -0.07056403 -0.9946018 -0.07607835
vn -0.96388364 -0.25421312 0.07939845
vn 0.105951525 0.08062397 0.9910973
vn -0.8664175 0.33003443 0.37469712
vn -0.1481567 0.52456784 0.8383782
vn 0.10597483 0.080567 0.99109936
vn -0.0705564 -0.9946052 -0.07604051
vn -0.8878097 -0.44731474 -0.108182
vn -0.963892 -0.25418377 0.07939058
vn -0.07055003 -0.99460536 -0.076043844
vn -0.07863757 -0.97309905 -0.21655059
vn -0.078646295 -0.9730972 -0.21655542
vn -0.815742 -0.45563906 -0.3563115
vn -0.15789129 -0.8961802 -0.4146456
vn -0.07864657 -0.97309405 -0.21656969
vn -0.015552275 -0.9852386 -0.17047834
vn 0.2654674 -0.91062665 -0.3166797
vn -0.15790458 -0.89616704 -0.4146692
vn 0.2654864 -0.9106183 -0.31668782
vn -0.1250705 -0.3104208 -0.94233537
vn -0.188074 -0.25261688 -0.94911146
vn -0.26000223 -0.1899159 -0.9467474
vn -0.81573266 -0.45565236 -0.35631573
vn 0.24576682 -0.93909794 -0.24019465
vn 0.26544967 -0.9106303 -0.31668395
vn -0.015570562 -0.9852406 -0.1704648
vn -0.87854326 -0.047534797 0.4752916
vn -0.11245979 -0.7351937 0.66846293
vn 0.9911544 -0.021948505 -0.13088663
vn -0.07910717 0.99288774 0.088971764
vn 0.9911642 -0.021819353 -0.13083316
vn -0.11249505 -0.73518425 0.6684674
vn 0.010425948 0.9384906 -0.34514505
vn 0.1912351 -0.97931933 0.06602793
vn 0.8440509 0.23585838 0.481174
vn -0.8236062 0.061973017 0.56362724
vn -0.7833708 0.34283805 0.5183954
vn -0.8349437 0.47325125 0.2802807
vn -0.09814723 0.9272118 -0.36135066
vn -0.7833784 0.3428275 0.51839083
vn -0.7174473 0.46040526 0.5227063
vn -0.62431693 0.6104283 0.48740524
vn -0.07917903 0.9928805 0.08898751
vn -0.8640375 0.16826054 0.4744762
vn 0.1658564 0.975818 -0.14237556
vn -0.7834105 0.34282166 0.5183462
vn -0.7834196 0.34282142 0.5183329
vn 0.010423496 0.93849736 -0.34512705
vn -0.098116115 0.9272027 -0.36138293
vn -0.78336006 0.34282434 0.5184207
vn 0.050454512 0.9039515 -0.42454064
vn 0.9595858 0.2785475 -0.03982368
vn -0.82366234 0.062006924 0.5635413
vn -0.28003132 -0.17465442 -0.94396937
vn 0.01619194 -0.9996101 -0.02274794
vn -0.80123556 0.113987386 0.58739114
vn -0.8236009 0.061956577 0.5636367
vn 0.27209178 -0.86567557 0.4200608
vn -0.8349091 0.47328508 0.28032616
vn -0.8349183 0.47329494 0.28028235
vn 0.23283647 -0.8462238 0.4792475
vn -0.62432903 0.6104235 0.48739582
vn -0.0981497 0.9271977 -0.36138657
vn 0.9595681 0.27859977 -0.03988643
vn 0.95957696 0.2785726 -0.039860055
vn -0.07915775 0.9928861 0.088944525
vn 0.9733864 0.18175688 -0.13958237
vn -0.8349466 0.47328115 0.28022134
vn -0.7174576 0.46041933 0.52267975
vn 0.23284656 -0.84621066 0.47926566
vn 0.66207033 0.38011506 0.6196913
vn 0.7914332 0.57022506 0.2201744
vn -0.08859117 0.9736492 0.21013969
vn 0.7914152 0.5702523 0.2201686
vn 0.47698897 -0.5301896 0.7009854
vn -0.08859687 0.9736449 0.21015722
vn 0.47695526 -0.53020245 0.70099854
vn 0.37672734 -0.87122643 0.31470767
vn -0.4411316 -0.41123635 0.79767627
vn -0.061657965 -0.9847267 -0.14936441
vn -0.09937019 -0.9840557 -0.13922763
vn -0.70710516 -0.46888542 -0.471605
vn -0.09938588 -0.9840525 -0.13923693
vn 0.6932116 -0.20848384 -0.68992364
vn -0.41754797 -0.87282246 -0.25265497
vn -0.03822103 -0.9512368 0.30259663
vn 0.69312584 -0.20844527 -0.6900215
vn 0.7414437 -0.5433733 0.16885749
vn -0.061615586 -0.9847243 -0.14939588
vn 0.18983777 -0.9177975 -0.3446909
vn -0.09939129 -0.984056 -0.13920988
vn 0.65040684 0.04824494 -0.75805354
vn -0.707099 -0.46889997 -0.4716009
vn 0.98808753 0.10387373 0.09241168
vn 0.7414649 -0.5433635 0.1687906
vn 0.18985346 -0.9177971 -0.34468335
vn 0.1897858 -0.917809 -0.3446895
vn -0.061603554 -0.9847235 -0.1494062
vn -0.48210368 0.82231706 -0.28348878
vn -0.04377584 -0.9378827 0.34417948
vn -0.8699191 -0.40442252 -0.28228205
vn -0.63408315 0.4322334 0.64118075
vn -0.8699416 -0.40440774 -0.28223398
vn -0.08068566 0.93446386 -0.34679553
vn -0.63403225 0.43221244 0.64124525
vn -0.5981269 0.5099262 -0.6182388
vn 0.8369229 -0.21153876 0.5047883
vn 0.1673902 0.95613444 -0.24039042
vn 0.75770324 -0.4231937 0.49678224
vn -0.106047615 -0.9841328 0.14225465
vn -0.04379508 -0.93790126 0.34412688
vn -0.08070493 0.9344806 -0.34674588
vn 0.112258 0.183835 0.9765257
vn -0.6340475 0.43222386 0.64122236
vn 0.8444653 -0.25525498 0.47087482
vn 0.7576808 -0.4231922 0.49681795
vn 0.11223927 0.18375441 0.9765432
vn 0.22815283 0.94852185 -0.21966416
vn 0.9383075 0.33674937 0.07860476
vn 0.9782713 -0.114222825 -0.1730271
vn 0.22812875 0.9485061 -0.21975678
vn 0.9782683 -0.11424756 -0.1730275
vn 0.64728254 0.1692193 0.7432293
vn 0.09522551 0.98958534 -0.10794842
vn -0.7568865 0.33980072 -0.55826354
vn -0.17464063 0.9121076 -0.37089106
vn -0.10606764 -0.98413414 0.1422311
vn -0.7102972 -0.6005771 0.3671308
vn -0.75229746 -0.54645205 0.36801985
vn -0.93442094 0.3537355 0.041573793
vn 0.08754626 -0.284464 -0.95468086
vn 0.114401296 -0.1976633 -0.97357136
vn -0.915077 -0.36043286 0.1808933
vn 0.08749665 -0.28456613 -0.95465493
vn -0.76194435 0.2859832 -0.5810802
vn -0.86621606 -0.45157748 0.21388665
vn -0.75688434 0.33981484 -0.5582578
vn -0.45817068 -0.8882443 0.0331901
vn -0.9150808 -0.36044955 0.18084082
vn -0.93442565 0.35372156 0.041588694
vn -0.7619616 0.2859565 -0.5810708
vn -0.9344312 0.35370836 0.041575745
vn 0.11435204 -0.19770798 -0.9735681
vn -0.012814425 0.99832857 -0.056352615
vn -0.012845494 0.9983275 -0.056363165
vn 0.26032048 0.9588264 0.11351082
vn -0.18914217 -0.9557477 0.22532517
vn -0.47739738 -0.86429715 0.15837339
vn 0.08751482 -0.2844867 -0.9546769
vn -0.106027395 -0.9841336 0.14226496
vn -0.45814478 -0.8882544 0.033277243
vn -0.04380244 -0.9378922 0.34415048
vn -0.5981419 0.5099112 -0.6182367
vn -0.45814598 -0.8882523 0.03331825
vn -0.75687397 0.33981776 -0.5582702
vn -0.59810495 0.5099114 -0.6182723
vn -0.7569079 0.3397852 -0.5582441
vn 0.0952223 0.9895915 -0.10789552
vn 0.8369037 -0.21157278 0.504806
vn 0.22812748 0.9485223 -0.21968809
vn 0.64728844 0.1692103 0.7432263
vn -0.7472984 0.37457252 0.54885364
vn 0.61184317 0.77307314 0.16734916
vn 0.6202405 0.7803558 0.07966322
vn -0.9480695 -0.01597815 0.31766152
vn 0.57988745 0.38039142 0.72043943
vn 0.5026844 -0.8450554 -0.1821802
vn 0.43973684 0.89617866 0.059120446
vn -0.2842368 0.7826384 0.5537928
vn -0.3619339 0.60536796 -0.7088958
vn -0.2843122 0.78263724 0.5537556
vn 0.6118457 0.773087 0.16727552
vn -0.88494813 0.21660568 0.41224816
vn 0.11246772 -0.9855118 -0.12695402
vn -0.20023172 -0.97471076 -0.099226594
vn -0.884939 0.21660636 0.41226757
vn -0.7199683 0.09201166 0.68788034
vn -0.74727803 0.37459147 0.54886866
vn -0.7723086 -0.47661886 0.41996884
vn -0.43077028 0.15202546 -0.8895646
vn -0.43924814 0.6263889 0.64397043
vn -0.7199782 0.09204469 0.6878656
vn -0.48651573 -0.61327446 -0.6222513
vn -0.77231115 -0.4765899 0.4199968
vn -0.2002658 -0.9747047 -0.099217534
vn -0.4865236 -0.6132715 -0.6222482
vn -0.8849206 0.2166101 0.412305
vn 0.87241554 -0.033282995 0.48763022
vn 0.2070005 -0.95579475 -0.20882288
vn 0.95486474 -0.19936448 -0.22019799
vn 0.2277748 -0.70793414 -0.6685415
vn -0.9164265 0.38208595 -0.11904993
vn -0.98321086 -0.17640412 0.046668753
vn -0.916408 0.3821486 -0.11899189
vn -0.997947 0.0015589409 0.06402641
vn 0.22780995 -0.7080034 -0.6684561
vn -0.88494897 0.21662357 0.4122371
vn 0.872396 -0.03332445 0.48766243
vn 0.6362475 -0.7134905 0.2934625
vn 0.2070319 -0.95579445 -0.20879284
vn -0.20026168 -0.9747007 -0.099265486
vn -0.3780493 -0.16824487 -0.91036934
vn -0.48652378 -0.6132657 -0.62225384
vn 0.8388834 0.5268166 0.13688967
vn 0.045790967 0.97228736 0.22926074
vn 0.99562025 -0.009321278 -0.09302278
vn 0.9956216 -0.009310177 -0.09301014
vn 0.7781356 -0.60698336 -0.1614806
vn 0.83887196 0.52681696 0.1369586
vn 0.9487318 0.037206776 0.31388485
vn 0.8724066 -0.033313945 0.487644
vn 0.8838279 0.14169587 0.4458367
vn 0.8723987 -0.033312142 0.4876584
vn 0.9548659 -0.19935586 -0.22020087
vn 0.7781584 -0.60695946 -0.16146088
vn 0.95487726 -0.19937357 -0.22013515
vn 0.5026806 -0.84505093 -0.1822113
vn 0.98809123 0.10384153 0.0924077
vn 0.18982583 -0.9178049 -0.34467825
vn 0.37672016 -0.871216 0.31474522
vn 0.37679347 -0.8712084 0.3146782
vn 0.18982846 -0.9177872 -0.34472314
vn -0.86394584 -0.37575042 0.33527476
vn 0.9952638 -0.058648586 -0.0773153
vn 0.23281738 -0.84622115 0.47926128
vn -0.87853146 -0.04751471 0.47531533
vn 0.23280899 -0.84622854 0.47925234
vn -0.7174625 0.4604363 0.522658
vn -0.8785597 -0.04755944 0.47525853
vn -0.9065283 0.38850653 -0.16513383
vn -0.25998607 -0.18994576 -0.94674575
vn -0.38941464 0.9150007 -0.10549807
vn -0.9566072 0.25163838 -0.14690399
vn -0.948198 0.29311368 -0.1224944
vn -0.6251373 0.7393375 -0.2501663
vn -0.1481786 0.52453554 0.83839446
vn -0.8664298 0.32998267 0.37471426
vn -0.8785551 -0.047564577 0.4752667
vn -0.717452 0.4603969 0.52270716
vn -0.079151444 0.99288315 0.08898348
vn -0.11247754 -0.7352082 0.66844404
vn -0.45817164 -0.88824034 0.033283114
vn -0.59811825 0.5099424 -0.61823386
vn -0.8699583 -0.4043921 -0.28220475
vn -0.08071001 0.934505 -0.34667906
vn -0.08070302 0.9344835 -0.34673828
vn -0.5981156 0.5099035 -0.61826843
vn 0.16738604 0.9561406 -0.2403687
vn 0.11225936 0.18378958 0.9765341
vn -0.47742307 -0.86429226 0.1583226
vn 0.49088573 -0.85942316 0.14290836
vn 0.17978601 -0.26007667 -0.94870263
vn 0.35443175 -0.91176605 0.20751023
vn -0.1746244 0.91210747 -0.3708989
vn -0.76195943 0.28598988 -0.58105725
vn 0.26030052 0.9588149 0.113654286
vn -0.75689095 0.33977878 -0.55827093
vn 0.5799448 0.38039345 0.72039205
vn 0.8388665 0.5268329 0.13693085
vn 0.7781477 -0.6069587 -0.16151561
vn -0.8969862 0.13591751 0.420645
vn -0.21003112 0.7921038 0.5731127
vn -0.7472659 0.37458163 0.54889184
vn 0.62023264 0.780362 0.07966319
vn 0.883858 0.14168893 0.4457793
vn 0.112434365 -0.9855115 -0.12698641
vn 0.73656887 -0.5643879 -0.37273633
vn 0.5628392 -0.82013494 -0.10290998
vn 0.5628383 -0.8201336 -0.10292545
vn -0.20025331 -0.97470695 -0.099220276
vn -0.37810206 -0.16823241 -0.9103497
vn 0.611848 0.77308553 0.16727388
vn 0.4397207 0.896188 0.059099436
vn 0.73801124 0.67245215 0.05610314
vn 0.62023556 0.78035784 0.07968208
vn 0.727165 0.6823398 0.07512209
vn 0.9952598 -0.058631737 -0.07737818
vn 0.99115944 -0.021910317 -0.1308542
vn 0.9733792 0.181774 -0.13961047
vn 0.95958865 0.27853444 -0.039844573
vn -0.86405206 0.16828012 0.47444248
vn -0.7833908 0.34279984 0.51839036
vn -0.8236201 0.06193817 0.5636106
vn -0.8012276 0.11399759 0.5874001
vn 0.7196981 0.40612262 0.56311405
vn 0.6429394 0.40473568 0.6502426
vn 0.627992 0.5096977 0.547929
vn 0.6643071 0.52962124 0.5274427
vn 0.32515034 0.31810677 0.7971378
vn 0.9095577 0.2894051 0.19406387
vn 0.66213334 0.38009232 0.6196373
vn 0.3370924 0.41230443 0.7556786
vn -0.10601719 -0.98413455 0.14226541
vn 0.7576914 -0.423186 0.49680686
vn 0.8444793 -0.25520664 0.47087574
vn 0.836939 -0.21155693 0.5047541
vn -0.072009236 -0.123488694 -0.98972976
vn -0.3619339 0.60536444 -0.7088988
vn -0.3780903 -0.16822308 -0.91035634
vn -0.48648125 -0.6132751 -0.6222777
vn -0.4307454 0.15202741 -0.8895762
g 0.1000_0
f 3/3/3 2/2/2 1/1/1
f 2/2/2 5/5/5 4/4/4
f 5/5/5 6/6/6 4/4/4
f 5/5/5 7/7/7 6/6/6
f 8/8/8 5/5/5 2/2/2
f 8/8/8 10/10/10 9/9/9
f 11/11/11 8/8/8 9/9/9
f 12/12/12 8/8/8 11/11/11
f 13/13/13 12/12/12 11/11/11
f 13/13/13 14/14/14 12/12/12
f 13/13/13 16/16/16 15/15/15
f 19/19/19 18/18/18 17/17/17
f 21/21/21 20/20/20 19/19/19
f 23/23/23 22/22/22 20/20/20
f 24/24/24 23/23/23 20/20/20
f 24/24/24 25/25/25 23/23/23
f 26/26/26 24/24/24 20/20/20
f 26/26/26 20/20/20 27/27/27
f 26/26/26 28/28/28 24/24/24
f 30/30/30 29/29/29 24/24/24
f 33/33/33 32/32/32 31/31/31
f 35/35/35 32/32/32 34/34/34
f 38/38/38 37/37/37 36/36/36
f 40/40/40 39/39/39 37/37/37
f 37/37/37 39/39/39 41/41/41
f 43/43/43 42/42/42 37/37/37
f 43/43/43 45/45/45 44/44/44
f 47/47/47 46/46/46 43/43/43
f 41/41/41 49/49/49 48/48/48
f 51/51/51 50/50/50 49/49/49
f 50/50/50 53/53/53 52/52/52
f 55/55/55 54/54/54 50/50/50
f 57/57/57 56/56/56 49/49/49
f 49/49/49 56/56/56 58/58/58
f 56/56/56 59/59/59 58/58/58
f 61/61/61 60/60/60 57/57/57
f 64/64/64 63/63/63 62/62/62
f 66/66/66 65/65/65 63/63/63
f 63/63/63 68/68/68 67/67/67
f 68/68/68 69/69/69 67/67/67
f 70/70/70 67/67/67 69/69/69
f 71/71/71 69/69/69 68/68/68
f 74/74/74 73/73/73 72/72/72
f 76/76/76 75/75/75 74/74/74
f 74/74/74 77/77/77 76/76/76
f 80/80/80 79/79/79 78/78/78
f 83/83/83 82/82/82 81/81/81
f 86/86/86 85/85/85 84/84/84
f 84/84/84 88/88/88 87/87/87
f 90/90/90 89/89/89 87/87/87
f 92/92/92 89/89/89 91/91/91
f 94/94/94 93/93/93 92/92/92
f 96/96/96 95/95/95 84/84/84
f 95/95/95 98/98/98 97/97/97
f 84/84/84 97/97/97 99/99/99
f 101/101/101 100/100/100 84/84/84
f 102/102/102 100/100/100 101/101/101
f 105/105/105 104/104/104 103/103/103
f 108/108/108 107/107/107 106/106/106
f 111/111/111 110/110/110 109/109/109
f 111/111/111 113/113/113 112/112/112
f 112/112/112 113/113/113 114/114/114
f 117/117/117 116/116/116 115/115/115
f 120/120/120 119/119/119 118/118/118
f 123/123/123 122/122/122 121/121/121
f 126/126/126 125/125/125 124/124/124
f 125/125/125 128/128/128 127/127/127
f 130/130/130 129/129/129 128/128/128
f 131/131/131 130/130/130 128/128/128
f 134/134/134 133/133/133 132/132/132
f 136/136/136 134/134/134 135/135/135
f 139/139/139 138/138/138 137/137/137
f 142/142/142 141/141/141 140/140/140
f 144/144/144 142/142/142 143/143/143
f 147/147/147 146/146/146 145/145/145
f 150/150/150 149/149/149 148/148/148
f 153/153/153 152/152/152 151/151/151
f 155/155/155 152/152/152 154/154/154
f 152/152/152 157/157/157 156/156/156
f 160/160/160 159/159/159 158/158/158
f 158/158/158 162/162/162 161/161/161
f 164/164/164 163/163/163 161/161/161
f 162/162/162 165/165/165 163/163/163
f 167/167/167 163/163/163 166/166/166
f 169/169/169 168/168/168 167/167/167
f 169/169/169 167/167/167 170/170/170
f 169/169/169 172/172/172 171/171/171
f 174/174/174 169/169/169 173/173/173
f 174/174/174 175/175/175 169/169/169
f 178/178/178 177/177/177 176/176/176
f 180/180/180 179/179/179 177/177/177
f 182/182/182 181/181/181 177/177/177
f 183/183/183 182/182/182 177/177/177
f 177/177/177 185/185/185 184/184/184
f 185/185/185 186/186/186 184/184/184
f 188/188/188 187/187/187 185/185/185
f 190/190/190 186/186/186 189/189/189
f 191/191/191 190/190/190 189/189/189
f 194/194/194 193/193/193 192/192/192
f 197/197/197 196/196/196 195/195/195
f 197/197/197 199/199/199 198/198/198
f 201/201/201 197/197/197 200/200/200
f 203/203/203 200/200/200 202/202/202
f 206/206/206 205/205/205 204/204/204
f 204/204/204 208/208/208 207/207/207
f 207/207/207 210/210/210 209/209/209
f 212/212/212 211/211/211 204/204/204
f 212/212/212 214/214/214 213/213/213
f 217/217/217 216/216/216 215/215/215
f 220/220/220 219/219/219 218/218/218
f 223/223/223 222/222/222 221/221/221
f 226/226/226 225/225/225 224/224/224
f 229/229/229 228/228/228 227/227/227
f 232/232/232 231/231/231 230/230/230
f 235/235/235 234/234/234 233/233/233
f 238/238/238 237/237/237 236/236/236
f 241/241/241 240/240/240 239/239/239
f 243/243/243 242/242/242 241/241/241
f 241/241/241 245/245/245 244/244/244
f 247/247/247 241/241/241 246/246/246
f 241/241/241 248/248/248 246/246/246
f 249/249/249 246/246/246 248/248/248
f 252/252/252 251/251/251 250/250/250
f 254/254/254 253/253/253 252/252/252
f 253/253/253 256/256/256 255/255/255
f 259/259/259 258/258/258 257/257/257
f 262/262/262 261/261/261 260/260/260
f 264/264/264 263/263/263 260/260/260
f 263/263/263 266/266/266 265/265/265
f 268/268/268 260/260/260 267/267/267
f 268/268/268 267/267/267 269/269/269
f 269/269/269 271/271/271 270/270/270
f 273/273/273 269/269/269 272/272/272
f 276/276/276 275/275/275 274/274/274
f 278/278/278 274/274/274 277/277/277
f 280/280/280 274/274/274 279/279/279
f 280/280/280 279/279/279 281/281/281
f 284/284/284 283/283/283 282/282/282
f 287/287/287 286/286/286 285/285/285
f 289/289/289 287/287/287 288/288/288
f 288/288/288 291/291/291 290/290/290
f 293/293/293 292/292/292 289/289/289
f 296/296/296 295/295/295 294/294/294
f 298/298/298 297/297/297 294/294/294
f 301/301/301 300/300/300 299/299/299
f 303/303/303 301/301/301 302/302/302
f 302/302/302 301/301/301 304/304/304
f 307/307/307 306/306/306 305/305/305
f 309/309/309 307/307/307 308/308/308
f 310/310/310 309/309/309 308/308/308
f 313/313/313 312/312/312 311/311/311
f 313/313/313 315/315/315 314/314/314
f 314/314/314 317/317/317 316/316/316
f 318/318/318 314/314/314 316/316/316
f 321/321/321 320/320/320 319/319/319
f 324/324/324 323/323/323 322/322/322
f 327/327/327 326/326/326 325/325/325
f 330/330/330 329/329/329 328/328/328
f 333/333/333 332/332/332 331/331/331
f 336/336/336 335/335/335 334/334/334
f 334/334/334 338/338/338 337/337/337
f 334/334/334 339/339/339 338/338/338
f 342/342/342 341/341/341 340/340/340
f 344/344/344 341/341/341 343/343/343
f 346/346/346 345/345/345 341/341/341
f 349/349/349 348/348/348 347/347/347
f 351/351/351 350/350/350 349/349/349
f 353/353/353 350/350/350 352/352/352
f 355/355/355 354/354/354 353/353/353
f 358/358/358 357/357/357 356/356/356
f 360/360/360 359/359/359 358/358/358
f 358/358/358 362/362/362 361/361/361
f 358/358/358 364/364/364 363/363/363
f 364/364/364 365/365/365 363/363/363
f 365/365/365 367/367/367 366/366/366
f 365/365/365 369/369/369 368/368/368
f 372/372/372 371/371/371 370/370/370
f 375/375/375 374/374/374 373/373/373
f 377/377/377 376/376/376 375/375/375
f 380/380/380 379/379/379 378/378/378
f 383/383/383 382/382/382 381/381/381
f 385/385/385 382/382/382 384/384/384
f 387/387/387 386/386/386 382/382/382
f 390/390/390 389/389/389 388/388/388
f 393/393/393 392/392/392 391/391/391
f 396/396/396 395/395/395 394/394/394
f 399/399/399 398/398/398 397/397/397
f 402/402/402 401/401/401 400/400/400
f 405/405/405 404/404/404 403/403/403
f 407/407/407 404/404/404 406/406/406
f 406/406/406 408/408/408 407/407/407
f 408/408/408 409/409/409 407/407/407
f 411/411/411 410/410/410 407/407/407
f 414/414/414 413/413/413 412/412/412
f 416/416/416 415/415/415 414/414/414
f 416/416/416 417/417/417 415/415/415
f 420/420/420 419/419/419 418/418/418
f 418/418/418 422/422/422 421/421/421
f 425/425/425 424/424/424 423/423/423
f 428/428/428 427/427/427 426/426/426
f 431/431/431 430/430/430 429/429/429
f 434/434/434 433/433/433 432/432/432
f 433/433/433 436/436/436 435/435/435
f 433/433/433 438/438/438 437/437/437
f 437/437/437 438/438/438 439/439/439
f 441/441/441 435/435/435 440/440/440
f 442/442/442 441/441/441 440/440/440
f 444/444/444 440/440/440 443/443/443
f 443/443/443 445/445/445 444/444/444
f 448/448/448 447/447/447 446/446/446
f 451/451/451 450/450/450 449/449/449
f 454/454/454 453/453/453 452/452/452
f 457/457/457 456/456/456 455/455/455
f 460/460/460 459/459/459 458/458/458
f 463/463/463 462/462/462 461/461/461
f 465/465/465 463/463/463 464/464/464
f 463/463/463 466/466/466 464/464/464
f 466/466/466 467/467/467 464/464/464
f 468/468/468 467/467/467 466/466/466
f 471/471/471 470/470/470 469/469/469
f 473/473/473 470/470/470 472/472/472
f 475/475/475 474/474/474 473/473/473
f 474/474/474 476/476/476 473/473/473
f 477/477/477 476/476/476 474/474/474
f 480/480/480 479/479/479 478/478/478
f 480/480/480 482/482/482 481/481/481
f 484/484/484 482/482/482 483/483/483
f 486/486/486 485/485/485 483/483/483
f 489/489/489 488/488/488 487/487/487
f 491/491/491 490/490/490 487/487/487
f 491/491/491 492/492/492 490/490/490
f 495/495/495 494/494/494 493/493/493
f 498/498/498 497/497/497 496/496/496
f 501/501/501 500/500/500 499/499/499
f 504/504/504 503/503/503 502/502/502
f 507/507/507 506/506/506 505/505/505
f 510/510/510 509/509/509 508/508/508
f 512/512/512 511/511/511 508/508/508
f 511/511/511 513/513/513 508/508/508
f 508/508/508 513/513/513 514/514/514
f 514/514/514 513/513/513 515/515/515
f 518/518/518 517/517/517 516/516/516
f 521/521/521 520/520/520 519/519/519
f 524/524/524 523/523/523 522/522/522
f 527/527/527 526/526/526 525/525/525
f 530/530/530 529/529/529 528/528/528
f 533/533/533 532/532/532 531/531/531
f 536/536/536 535/535/535 534/534/534
f 539/539/539 538/538/538 537/537/537
f 542/542/542 541/541/541 540/540/540
f 545/545/545 544/544/544 543/543/543
f 548/548/548 547/547/547 546/546/546
f 551/551/551 550/550/550 549/549/549
f 554/554/554 553/553/553 552/552/552
f 557/557/557 556/556/556 555/555/555
f 555/555/555 559/559/559 558/558/558
f 558/558/558 561/561/561 560/560/560
f 561/561/561 562/562/562 560/560/560
f 562/562/562 561/561/561 563/563/563
f 566/566/566 565/565/565 564/564/564
f 569/569/569 568/568/568 567/567/567
f 571/571/571 570/570/570 567/567/567
f 574/574/574 573/573/573 572/572/572
f 577/577/577 576/576/576 575/575/575
f 580/580/580 579/579/579 578/578/578
f 583/583/583 582/582/582 581/581/581
f 586/586/586 585/585/585 584/584/584
f 589/589/589 588/588/588 587/587/587
f 592/592/592 591/591/591 590/590/590
f 595/595/595 594/594/594 593/593/593
f 597/597/597 593/593/593 596/596/596
f 600/600/600 599/599/599 598/598/598
f 603/603/603 602/602/602 601/601/601
f 606/606/606 605/605/605 604/604/604
f 609/609/609 608/608/608 607/607/607
f 611/611/611 610/610/610 607/607/607
f 607/607/607 610/610/610 612/612/612
f 615/615/615 614/614/614 613/613/613
f 618/618/618 617/617/617 616/616/616
f 620/620/620 619/619/619 618/618/618
f 622/622/622 621/621/621 619/619/619
f 625/625/625 624/624/624 623/623/623
f 628/628/628 627/627/627 626/626/626
f 631/631/631 630/630/630 629/629/629
f 634/634/634 633/633/633 632/632/632
f 632/632/632 636/636/636 635/635/635
f 637/637/637 632/632/632 635/635/635
f 639/639/639 638/638/638 632/632/632
f 640/640/640 639/639/639 632/632/632
f 642/642/642 641/641/641 640/640/640
f 645/645/645 644/644/644 643/643/643
f 648/648/648 647/647/647 646/646/646
f 651/651/651 650/650/650 649/649/649
f 654/654/654 653/653/653 652/652/652
f 657/657/657 656/656/656 655/655/655
f 658/658/658 657/657/657 655/655/655
f 660/660/660 658/658/658 659/659/659
f 660/660/660 659/659/659 661/661/661
f 659/659/659 662/662/662 661/661/661
f 665/665/665 664/664/664 663/663/663
f 666/666/666 665/665/665 663/663/663
f 669/669/669 668/668/668 667/667/667
f 669/669/669 670/670/670 668/668/668
f 673/673/673 672/672/672 671/671/671
f 671/671/671 674/674/674 673/673/673
f 677/677/677 676/676/676 675/675/675
f 675/675/675 676/676/676 678/678/678
f 681/681/681 680/680/680 679/679/679
f 679/679/679 680/680/680 682/682/682
f 685/685/685 684/684/684 683/683/683
f 686/686/686 683/683/683 684/684/684
f 689/689/689 688/688/688 687/687/687
f 690/690/690 689/689/689 687/687/687
f 693/693/693 692/692/692 691/691/691
f 695/695/695 694/694/694 691/691/691
f 696/696/696 693/693/693 695/695/695
f 699/699/699 698/698/698 697/697/697
f 697/697/697 700/700/700 699/699/699
f 700/700/700 701/701/701 699/699/699
f 704/704/704 703/703/703 702/702/702
f 705/705/705 704/704/704 702/702/702
f 708/708/708 707/707/707 706/706/706
f 709/709/709 708/708/708 706/706/706
f 712/712/712 711/711/711 710/710/710
f 713/713/713 712/712/712 710/710/710
f 716/716/716 715/715/715 714/714/714
f 717/717/717 716/716/716 714/714/714
f 720/720/720 719/719/719 718/718/718
f 721/721/721 720/720/720 718/718/718
f 724/724/724 723/723/723 722/722/722
f 723/723/723 724/724/724 725/725/725
f 725/725/725 726/726/726 723/723/723
