g 0.1333
v -0.012567557 -1.2140964 3.0240316
v 3.4798552E-07 -1.18279 3.2715008
v 0.4892837 -1.088223 3.1991801
v 1.0330521 0.6403178 1.9069529
v 1.1430602 0.8541169 2.699839
v 0.5375551 0.9757466 2.140506
v 1.2006785 -0.47649145 1.8501834
v 0.81996286 -0.64707613 1.8265321
v 1.2870016 -0.3016163 2.4445934
v -0.0003394566 -1.7301811 3.6117036
v 1.0129289E-06 -2.170465 3.7286685
v 0.38476893 -2.1349592 3.7891822
v 0.5109339 -1.2764333 5.177379
v 0.007550191 -1.3791516 5.124061
v 0.015371427 -1.2372469 5.3349667
v 2.2098541 -2.1339889 1.816555
v 2.439876 -2.27908 1.8933653
v 2.5825286 -1.980108 1.9207064
v -0.012567557 -1.2140964 3.0240316
v -0.5040502 -0.8196331 3.225502
v 3.4798552E-07 -1.18279 3.2715008
v -1.0330672 -0.2209115 1.3710716
v -0.5375792 0.60025525 1.3567418
v -1.120648 0.918275 1.7865779
v -1.2006654 -0.17965841 2.4344416
v -1.2835747 0.36477792 2.3799448
v -0.8199456 -0.31460226 2.5309682
v -0.0003394566 -1.7301811 3.6117036
v -0.38476673 -2.134959 3.7891822
v 1.0129289E-06 -2.170465 3.7286685
v -0.5075028 -1.3717659 5.151458
v 0.015371427 -1.2372469 5.3349667
v 0.007550191 -1.3791516 5.124061
v -2.3057518 0.9237615 1.7672497
v -2.6472445 0.9391526 2.0050712
v -2.5705001 0.86037755 1.691405
v 1.9557033 -1.9004914 2.5463738
v 1.9543793 -2.1209536 2.349914
v 2.075557 -2.2558117 2.1088471
v 1.9166665 -2.0874867 2.4462807
v 1.9338217 -2.1351767 2.5437546
v 2.2404988 -1.6691768 2.9176047
v 2.10479 -1.608674 2.6984255
v 2.254469 -1.3171599 2.3454669
v 1.3311299 0.2556367 4.237073
v 0.93348193 0.4505198 4.3974037
v 1.2793285 0.046983898 3.817576
v 0.93089885 -0.26608562 5.104583
v 1.8323427 0.10946792 4.725546
v 1.5846483 -0.24901533 5.0384254
v 1.878519 0.37563837 3.9345195
v 1.8635044 -0.070827305 2.7963245
v 0.4151165 0.057071686 5.1037664
v 0.06430194 -0.038912773 5.2483873
v 0.045555174 -0.48035908 5.509021
v 0.08463372 0.39346075 4.8536706
v 0.064766824 0.68560934 4.156037
v 0.7847673 0.5166029 3.5240285
v 1.0960264 0.18796724 3.437462
v 0.037106913 0.6576372 3.594257
v 2.3239632 -0.25960857 2.603503
v 2.664706 -1.2479726 2.3903935
v 2.254469 -1.3171599 2.3454669
v 2.673309 -0.04282409 3.105953
v 2.3299873 -0.005502388 3.8509917
v 2.0359716 -0.3669746 4.716314
v 2.5061908 -1.7181127 1.7984211
v 2.348067 -1.8731754 1.6845611
v 2.5825286 -1.980108 1.9207064
v 1.986052 -1.596706 1.8837439
v 1.9797094 -1.3934681 2.1752784
v 1.0919445 -1.0828667 4.198434
v 1.1560829 -0.6479492 3.7236764
v 0.9309131 -1.0747072 3.395798
v 0.9058523 -0.8438723 3.3057456
v 1.1385385 -0.42321992 3.07301
v 0.7663158 -1.0049813 2.0835042
v 1.2793285 0.046983898 3.817576
v 1.0960264 0.18796724 3.437462
v 0.93348193 0.4505198 4.3974037
v 0.6099234 2.293411 0.9828054
v 0.74007386 2.208495 1.5692575
v 0.59067124 1.662874 1.3687748
v 0.4517342 2.4134955 0.44306976
v 0.8198957 1.318398 0.8219524
v 0.26628652 0.9974849 1.1920433
v 0.67870957 0.977863 1.7578769
v 0.44091383 0.26556158 0.9751655
v 0.28721052 0.6535239 1.4239169
v 0.3003942 0.5232822 1.6651512
v 0.28143045 -0.34271634 1.5586191
v 0.21705323 -0.3232214 1.5563697
v 0.2514783 0.46788502 1.7238755
v -5.2369924E-06 0.35101905 1.8695328
v 0.0009386623 1.0056508 2.3402598
v 0.1853721 -0.36541015 1.5486982
v 0.4892837 -1.088223 3.1991801
v 3.4798552E-07 -1.18279 3.2715008
v 0.5791516 -1.3206551 3.4499946
v 0.9309131 -1.0747072 3.395798
v 1.0919445 -1.0828667 4.198434
v 0.9058523 -0.8438723 3.3057456
v 0.7663158 -1.0049813 2.0835042
v -0.012567557 -1.2140964 3.0240316
v 1.3428564E-05 -1.1834428 2.1042244
v 1.0791215 2.1713207 1.5270302
v 1.606541 2.4024875 0.54020894
v 1.1966404 1.655366 1.1339476
v 1.0085174 1.5518689 1.5346577
v 1.3280661 0.915151 1.5788426
v 1.3458761 0.30297315 1.0527021
v 1.331208 0.23186564 1.8688761
v 1.0330521 0.6403178 1.9069529
v 1.1430602 0.8541169 2.699839
v 1.2870016 -0.3016163 2.4445934
v 1.3259372 -0.035008192 1.6906741
v 1.2529083 -0.21907747 1.5653862
v 1.2006785 -0.47649145 1.8501834
v 1.0330521 0.6403178 1.9069529
v 0.3003942 0.5232822 1.6651512
v 0.67870957 0.977863 1.7578769
v 1.3280661 0.915151 1.5788426
v 1.0085174 1.5518689 1.5346577
v 0.59067124 1.662874 1.3687748
v 0.74007386 2.208495 1.5692575
v 1.0791215 2.1713207 1.5270302
v 1.5846483 -0.24901533 5.0384254
v 1.8323427 0.10946792 4.725546
v 2.0359716 -0.3669746 4.716314
v 1.878519 0.37563837 3.9345195
v 0.22267716 -2.1056895 4.2489085
v 1.3495087E-06 -2.118443 4.0898542
v 1.4070056E-06 -2.2716796 4.164652
v 0.22613412 -2.1518426 4.541107
v 1.8230025E-06 -2.353157 4.769996
v 0.37337485 -2.2279599 4.746804
v 0.4356573 -2.1071413 4.536017
v 0.47852975 -1.8853115 4.366705
v 1.0229135 -0.97875416 4.981975
v 0.5109339 -1.2764333 5.177379
v 0.015371427 -1.2372469 5.3349667
v 0.93089885 -0.26608562 5.104583
v 0.045555174 -0.48035908 5.509021
v 1.0229135 -0.97875416 4.981975
v 0.93089885 -0.26608562 5.104583
v 1.5846483 -0.24901533 5.0384254
v 2.0359716 -0.3669746 4.716314
v 1.6987013 -1.02631 4.500107
v 0.8712026 -1.1835353 4.7223864
v 0.5109339 -1.2764333 5.177379
v 0.54386365 -1.2573136 4.3653626
v 1.0919445 -1.0828667 4.198434
v 0.55293477 -1.2307343 4.1440163
v 0.5791516 -1.3206551 3.4499946
v 0.35204855 -1.19666 3.8505855
v 0.27356833 -1.2645869 3.9742987
v 3.4798552E-07 -1.18279 3.2715008
v -0.0027295258 -1.3065417 3.8002815
v 2.2404988 -1.6691768 2.9176047
v 2.7321844 -1.6394222 2.9041967
v 2.3371463 -2.2436802 2.4550254
v 1.9338217 -2.1351767 2.5437546
v 1.9543793 -2.1209536 2.349914
v 2.075557 -2.2558117 2.1088471
v 2.2098541 -2.1339889 1.816555
v 2.439876 -2.27908 1.8933653
v 2.3371463 -2.2436802 2.4550254
v 2.5825286 -1.980108 1.9207064
v 2.439876 -2.27908 1.8933653
v 2.7321844 -1.6394222 2.9041967
v 2.664706 -1.2479726 2.3903935
v 2.5061908 -1.7181127 1.7984211
v 2.8108752 -0.60311854 3.0175374
v 2.5250754 -0.8029506 3.453227
v 2.673309 -0.04282409 3.105953
v 2.6350958 -0.3000834 3.2486498
v 2.4131634 -0.7357058 3.5591056
v 2.3299873 -0.005502388 3.8509917
v 2.0889006 -0.46317077 3.9594421
v 2.0359716 -0.3669746 4.716314
v 1.6987013 -1.02631 4.500107
v 1.5920467 -1.0025716 3.9608746
v 1.9007235 -0.88201624 3.3220782
v 2.10479 -1.608674 2.6984255
v 1.729245 -0.86990964 2.62181
v 1.65213 -0.8649613 3.1153195
v 1.8635044 -0.070827305 2.7963245
v 1.1560829 -0.6479492 3.7236764
v 1.2793285 0.046983898 3.817576
v 1.3311299 0.2556367 4.237073
v 2.2404988 -1.6691768 2.9176047
v 1.65213 -0.8649613 3.1153195
v 2.0501328 -0.9652804 3.376884
v 2.10479 -1.608674 2.6984255
v 2.2098541 -2.1339889 1.816555
v 1.7573185 -2.0264876 2.1032004
v 2.075557 -2.2558117 2.1088471
v 1.8686719 -1.9254773 1.8608439
v 2.348067 -1.8731754 1.6845611
v 2.5825286 -1.980108 1.9207064
v 1.986052 -1.596706 1.8837439
v 0.5060053 2.5420825 0.26651728
v 0.823404 2.44964 0.1626764
v 0.9103752 2.5859382 0.1803968
v 1.2019336 2.4128942 0.16286981
v 1.4182789 2.5266466 0.3037758
v 2.075557 -2.2558117 2.1088471
v 1.7573185 -2.0264876 2.1032004
v 1.6579401 -1.7318711 2.4659789
v 1.9557033 -1.9004914 2.5463738
v 0.9103752 2.5859382 0.1803968
v 0.4517342 2.4134955 0.44306976
v 0.5060053 2.5420825 0.26651728
v 1.1995384 2.3676093 0.8075152
v 1.4182789 2.5266466 0.3037758
v 0.6099234 2.293411 0.9828054
v 1.606541 2.4024875 0.54020894
v 0.74007386 2.208495 1.5692575
v 1.0791215 2.1713207 1.5270302
v 0.8198957 1.318398 0.8219524
v 0.97700304 1.5838487 0.79744387
v 0.4517342 2.4134955 0.44306976
v 1.3458761 0.30297315 1.0527021
v 1.1966404 1.655366 1.1339476
v 0.84468955 0.29794967 0.88384056
v 0.44091383 0.26556158 0.9751655
v 0.28143045 -0.34271634 1.5586191
v 1.0297246 -0.30620742 1.4921011
v 1.2529083 -0.21907747 1.5653862
v 1.2006785 -0.47649145 1.8501834
v 0.81996286 -0.64707613 1.8265321
v 0.8292637 -0.35741198 1.4618467
v 0.5060053 2.5420825 0.26651728
v 0.4517342 2.4134955 0.44306976
v 0.823404 2.44964 0.1626764
v 0.97700304 1.5838487 0.79744387
v 1.2019336 2.4128942 0.16286981
v 1.606541 2.4024875 0.54020894
v 1.1966404 1.655366 1.1339476
v 1.4182789 2.5266466 0.3037758
v 1.0330521 0.6403178 1.9069529
v 0.5375551 0.9757466 2.140506
v 0.3003942 0.5232822 1.6651512
v 0.2514783 0.46788502 1.7238755
v 0.52622896 1.0460713 2.104683
v 0.0009386623 1.0056508 2.3402598
v 1.1430602 0.8541169 2.699839
v 1.1896127 0.8997367 2.7242122
v 0.52622896 1.0460713 2.104683
v 0.5375551 0.9757466 2.140506
v 0.037106913 0.6576372 3.594257
v 0.038711056 0.69453466 3.6272845
v 0.80830026 0.52913153 3.5650685
v 0.7847673 0.5166029 3.5240285
v 1.1536255 0.18925875 3.462547
v 1.0960264 0.18796724 3.437462
v 1.2073977 -0.46561122 3.0669365
v 1.1385385 -0.42321992 3.07301
v 0.8229649 -1.0434551 2.0446038
v 0.7663158 -1.0049813 2.0835042
v 1.4308712E-05 -1.2390323 2.0705476
v 1.3428564E-05 -1.1834428 2.1042244
v 1.5920467 -1.0025716 3.9608746
v 1.0919445 -1.0828667 4.198434
v 1.6987013 -1.02631 4.500107
v 1.1560829 -0.6479492 3.7236764
v 1.501898 -0.8486134 3.4095726
v 1.65213 -0.8649613 3.1153195
v 1.9007235 -0.88201624 3.3220782
v 1.65213 -0.8649613 3.1153195
v 1.9007235 -0.88201624 3.3220782
v 2.0501328 -0.9652804 3.376884
v 2.5250754 -0.8029506 3.453227
v 2.4131634 -0.7357058 3.5591056
v 2.0889006 -0.46317077 3.9594421
v 2.7321844 -1.6394222 2.9041967
v 2.2404988 -1.6691768 2.9176047
v 2.254469 -1.3171599 2.3454669
v 1.729245 -0.86990964 2.62181
v 2.10479 -1.608674 2.6984255
v 1.8635044 -0.070827305 2.7963245
v 1.2870016 -0.3016163 2.4445934
v 1.1896127 0.8997367 2.7242122
v 1.1430602 0.8541169 2.699839
v 1.352247 -0.3036393 2.4460716
v 0.81996286 -0.64707613 1.8265321
v 0.8738243 -0.68032324 1.7250838
v 0.28143045 -0.34271634 1.5586191
v 0.2828939 -0.69416964 1.3612268
v 0.21705323 -0.3232214 1.5563697
v 0.1853721 -0.36541015 1.5486982
v 7.0356446E-06 -0.40694046 1.5303214
v 1.3007116E-05 -0.66660494 1.3843154
v -5.2369924E-06 0.35101905 1.8695328
v 0.54386365 -1.2573136 4.3653626
v 0.41678956 -1.7075231 4.9597383
v 0.5109339 -1.2764333 5.177379
v 0.52527386 -1.3834407 4.2308893
v 0.55293477 -1.2307343 4.1440163
v 0.6613122 -1.8348869 3.9038043
v 0.49524626 -1.9469372 4.9141493
v 0.59474885 -1.7909995 4.0315585
v 0.47852975 -1.8853115 4.366705
v 0.4356573 -2.1071413 4.536017
v 0.37337485 -2.2279599 4.746804
v 0.50754446 -1.8308792 4.1765637
v 0.22267716 -2.1056895 4.2489085
v 0.34013215 -2.0697548 4.068371
v 0.38358378 -2.0960808 3.8994546
v 0.38358378 -2.0960808 3.8994546
v 0.59474885 -1.7909995 4.0315585
v 0.6613122 -1.8348869 3.9038043
v 0.38476893 -2.1349592 3.7891822
v 1.166494E-06 -2.1305218 3.869419
v 1.0129289E-06 -2.170465 3.7286685
v 1.3495087E-06 -2.118443 4.0898542
v 0.34013215 -2.0697548 4.068371
v 0.22267716 -2.1056895 4.2489085
v 0.6613122 -1.8348869 3.9038043
v -0.0003394566 -1.7301811 3.6117036
v 0.38476893 -2.1349592 3.7891822
v 0.27096438 -1.4626229 3.8723366
v 0.55293477 -1.2307343 4.1440163
v -0.0027295258 -1.3065417 3.8002815
v 0.27356833 -1.2645869 3.9742987
v 1.1536255 0.18925875 3.462547
v 1.1896127 0.8997367 2.7242122
v 1.352247 -0.3036393 2.4460716
v 1.2073977 -0.46561122 3.0669365
v 0.8229649 -1.0434551 2.0446038
v 0.8738243 -0.68032324 1.7250838
v 0.7926541 -0.8882834 1.6494983
v 0.7606377 -0.6852695 1.2783462
v 0.80830026 0.52913153 3.5650685
v 1.1896127 0.8997367 2.7242122
v 1.1536255 0.18925875 3.462547
v 0.4974569 1.13762 2.860135
v 0.52622896 1.0460713 2.104683
v 0.0009386623 1.0056508 2.3402598
v 0.02579213 1.0413115 3.1589978
v 0.038711056 0.69453466 3.6272845
v 0.8229649 -1.0434551 2.0446038
v 1.569066E-05 -1.0252844 1.4765539
v 1.4308712E-05 -1.2390323 2.0705476
v 0.7926541 -0.8882834 1.6494983
v 0.6341254 -0.8378092 1.255439
v 0.7606377 -0.6852695 1.2783462
v 1.7519047E-05 -0.778329 1.1168959
v 0.05220555 -0.5030366 0.8655558
v 1.597901E-05 -0.4966752 0.8484384
v 1.3007116E-05 -0.66660494 1.3843154
v 1.597901E-05 -0.4966752 0.8484384
v 0.05220555 -0.5030366 0.8655558
v 0.2828939 -0.69416964 1.3612268
v 0.7606377 -0.6852695 1.2783462
v 0.8738243 -0.68032324 1.7250838
v 1.7573185 -2.0264876 2.1032004
v 1.8686719 -1.9254773 1.8608439
v 1.6579401 -1.7318711 2.4659789
v 1.9797094 -1.3934681 2.1752784
v 1.986052 -1.596706 1.8837439
v 1.9557033 -1.9004914 2.5463738
v 1.6579401 -1.7318711 2.4659789
v 1.9797094 -1.3934681 2.1752784
v 2.254469 -1.3171599 2.3454669
v 0.007550191 -1.3791516 5.124061
v 0.5109339 -1.2764333 5.177379
v 0.41678956 -1.7075231 4.9597383
v 1.7204466E-06 -1.7561826 5.0990257
v 0.2735445 -2.0520017 5.037368
v 1.9038913E-06 -2.1812446 5.02979
v 0.49524626 -1.9469372 4.9141493
v 1.8230025E-06 -2.353157 4.769996
v 0.37337485 -2.2279599 4.746804
v -2.1166072 0.24163842 2.1554272
v -2.2453916 0.58930016 1.7143004
v -2.134448 0.3711921 1.8906643
v -2.1048915 0.28095937 1.9437047
v -2.1460748 0.18006015 1.9298114
v -2.3955722 0.0063962936 2.5286126
v -2.219373 0.20189953 2.4994678
v -2.2488427 0.63998437 2.6974
v -1.1557287 0.27068257 4.501087
v -1.1364233 0.34399617 4.0351048
v -0.81615126 0.58125496 4.4158926
v -0.879001 -0.46924877 5.176118
v -1.6551046 -0.26266885 5.0902314
v -1.4841995 -0.6613617 5.169732
v -1.6319561 0.30329633 4.676534
v -1.6750727 0.6795862 3.685173
v -0.359536 0.03126955 5.09493
v 0.06430194 -0.038912773 5.2483873
v 0.045555174 -0.48035908 5.509021
v 0.08463372 0.39346075 4.8536706
v 0.064766824 0.68560934 4.156037
v -0.73320895 1.1025288 2.9182775
v -1.0394863 0.991358 2.8789177
v 0.037106913 0.6576372 3.594257
v -2.1325116 0.7969377 3.627626
v -2.6363099 0.69741523 2.8446097
v -2.2488427 0.63998437 2.6974
v -2.4622722 0.59357727 4.079336
v -2.1482687 0.07846975 4.4917107
v -1.9447241 -0.6660414 4.863843
v -2.4987686 1.1061288 2.2038085
v -2.3631725 1.1426888 1.9981664
v -2.6472445 0.9391526 2.0050712
v -1.9829116 0.9518656 2.2553673
v -1.9753318 0.72644544 2.530079
v -1.1641746 -1.1642225 3.9626095
v -0.9682119 -0.77801394 3.347157
v -1.1567549 -0.35272312 3.7377858
v -0.9265374 -0.4200604 3.304638
v -1.1312902 0.40064865 2.9849586
v -0.77006924 -0.19709367 2.8815386
v -1.1364233 0.34399617 4.0351048
v -1.0394863 0.991358 2.8789177
v -0.81615126 0.58125496 4.4158926
v -0.6098801 -0.91754067 -0.1421897
v -0.59064615 -0.57377505 0.48696938
v -0.74006283 -0.28138638 -0.12967564
v -0.45165464 -1.4726808 -0.067176536
v -0.8198493 -1.2001742 0.72905236
v -0.26626047 -0.9230429 1.1252607
v -0.6787171 -0.45016134 1.1699516
v -0.44088337 -1.0557725 1.7225986
v -0.2872048 -0.67145896 1.3939843
v -0.30039802 -0.3377887 1.4674106
v -0.28142208 -0.50131804 1.8388393
v -0.21704546 -0.48215213 1.8145235
v -0.2514837 -0.20534682 1.5065572
v -5.2369924E-06 0.35101905 1.8695328
v 0.0009386623 1.0056508 2.3402598
v -0.18536393 -0.51329243 1.8202385
v -0.5040502 -0.8196331 3.225502
v -0.60316116 -1.3195009 3.382158
v 3.4798552E-07 -1.18279 3.2715008
v -0.9682119 -0.77801394 3.347157
v -1.1641746 -1.1642225 3.9626095
v -0.9265374 -0.4200604 3.304638
v -0.77006924 -0.19709367 2.8815386
v -0.012567557 -1.2140964 3.0240316
v 1.3428564E-05 -1.1834428 2.1042244
v -1.0791088 -0.3218658 -0.086070225
v -1.196604 -0.8181852 0.44796222
v -1.6064675 -1.3781344 -0.11995796
v -1.0084975 -0.45222625 0.63276184
v -1.3280562 -0.57003564 1.2571208
v -1.3458458 -1.0449443 1.818145
v -1.3312119 -0.22218871 1.7665875
v -1.0330672 -0.2209115 1.3710716
v -1.120648 0.918275 1.7865779
v -1.2835747 0.36477792 2.3799448
v -1.3259274 -0.34817123 2.0542178
v -1.2528898 -0.4492885 2.233147
v -1.2006654 -0.17965841 2.4344416
v -1.0330672 -0.2209115 1.3710716
v -0.6787171 -0.45016134 1.1699516
v -0.30039802 -0.3377887 1.4674106
v -1.3280562 -0.57003564 1.2571208
v -1.0084975 -0.45222625 0.63276184
v -0.59064615 -0.57377505 0.48696938
v -0.74006283 -0.28138638 -0.12967564
v -1.0791088 -0.3218658 -0.086070225
v -1.4841995 -0.6613617 5.169732
v -1.9447241 -0.6660414 4.863843
v -1.6551046 -0.26266885 5.0902314
v -1.6319561 0.30329633 4.676534
v -0.22267415 -2.1056895 4.248909
v 1.4070056E-06 -2.2716796 4.164652
v 1.3495087E-06 -2.118443 4.0898542
v -0.22613063 -2.1518426 4.541107
v 1.8230025E-06 -2.353157 4.769996
v -0.37337115 -2.2279596 4.7468047
v -0.4356539 -2.107141 4.5360174
v -0.47852683 -1.8853112 4.3667054
v -1.0140777 -1.1358235 4.9483194
v 0.015371427 -1.2372469 5.3349667
v -0.5075028 -1.3717659 5.151458
v -0.879001 -0.46924877 5.176118
v 0.045555174 -0.48035908 5.509021
v -1.0140777 -1.1358235 4.9483194
v -1.4841995 -0.6613617 5.169732
v -0.879001 -0.46924877 5.176118
v -1.9447241 -0.6660414 4.863843
v -1.766973 -1.1502855 4.2595863
v -0.875484 -1.3175092 4.660077
v -0.5075028 -1.3717659 5.151458
v -0.54732025 -1.3039863 4.3380666
v -1.1641746 -1.1642225 3.9626095
v -0.55980855 -1.2757931 4.1076083
v -0.60316116 -1.3195009 3.382158
v -0.35953212 -1.222714 3.8195558
v -0.2786306 -1.2928789 3.9493165
v 3.4798552E-07 -1.18279 3.2715008
v -0.0027295258 -1.3065417 3.8002815
v -2.3955722 0.0063962936 2.5286126
v -2.545895 0.31737876 1.8697745
v -2.8616683 0.1253407 2.635507
v -2.1460748 0.18006015 1.9298114
v -2.134448 0.3711921 1.8906643
v -2.2453916 0.58930016 1.7143004
v -2.3057518 0.9237615 1.7672497
v -2.5705001 0.86037755 1.691405
v -2.545895 0.31737876 1.8697745
v -2.5705001 0.86037755 1.691405
v -2.6472445 0.9391526 2.0050712
v -2.8616683 0.1253407 2.635507
v -2.6363099 0.69741523 2.8446097
v -2.4987686 1.1061288 2.2038085
v -2.7283845 0.3253715 3.6365042
v -2.545483 -0.22688389 3.6298923
v -2.4622722 0.59357727 4.079336
v -2.5038815 0.25843143 3.9787805
v -2.4133425 -0.26253605 3.7723992
v -2.1482687 0.07846975 4.4917107
v -2.0241027 -0.3434477 4.2190156
v -1.9447241 -0.6660414 4.863843
v -1.766973 -1.1502855 4.2595863
v -1.6673579 -0.8185251 3.8155928
v -1.9450798 -0.2817514 3.421107
v -2.219373 0.20189953 2.4994678
v -1.6876646 -0.10801482 3.2276368
v -1.696424 0.38477337 3.0537925
v -1.6750727 0.6795862 3.685173
v -1.1567549 -0.35272312 3.7377858
v -1.1364233 0.34399617 4.0351048
v -1.1557287 0.27068257 4.501087
v -2.3955722 0.0063962936 2.5286126
v -2.1277936 -0.30738997 3.30269
v -1.6876646 -0.10801482 3.2276368
v -2.219373 0.20189953 2.4994678
v -2.3057518 0.9237615 1.7672497
v -2.2453916 0.58930016 1.7143004
v -1.8876309 0.5890646 1.8752496
v -1.937679 0.8663858 1.9191525
v -2.3631725 1.1426888 1.9981664
v -2.6472445 0.9391526 2.0050712
v -1.9829116 0.9518656 2.2553673
v -0.5059097 -1.6815038 -0.12571104
v -0.91027254 -1.7773385 -0.13841513
v -0.8233067 -1.7486823 -0.0039870813
v -1.2018379 -1.7404437 0.011803672
v -1.4181863 -1.6424179 -0.14870232
v -2.2453916 0.58930016 1.7143004
v -2.1166072 0.24163842 2.1554272
v -1.780848 0.30079806 2.241013
v -1.8876309 0.5890646 1.8752496
v -0.91027254 -1.7773385 -0.13841513
v -0.5059097 -1.6815038 -0.12571104
v -0.45165464 -1.4726808 -0.067176536
v -1.199482 -1.1110644 -0.15446305
v -1.4181863 -1.6424179 -0.14870232
v -0.6098801 -0.91754067 -0.1421897
v -1.6064675 -1.3781344 -0.11995796
v -0.74006283 -0.28138638 -0.12967564
v -1.0791088 -0.3218658 -0.086070225
v -0.8198493 -1.2001742 0.72905236
v -0.45165464 -1.4726808 -0.067176536
v -0.9769546 -1.147809 0.46793237
v -1.3458458 -1.0449443 1.818145
v -1.196604 -0.8181852 0.44796222
v -0.84465164 -1.2039555 1.8458261
v -0.44088337 -1.0557725 1.7225986
v -0.28142208 -0.50131804 1.8388393
v -1.0297017 -0.52359486 2.2929053
v -1.2528898 -0.4492885 2.233147
v -1.2006654 -0.17965841 2.4344416
v -0.8199456 -0.31460226 2.5309682
v -0.8292399 -0.57223034 2.2809105
v -0.5059097 -1.6815038 -0.12571104
v -0.8233067 -1.7486823 -0.0039870813
v -0.45165464 -1.4726808 -0.067176536
v -0.9769546 -1.147809 0.46793237
v -1.2018379 -1.7404437 0.011803672
v -1.6064675 -1.3781344 -0.11995796
v -1.196604 -0.8181852 0.44796222
v -1.4181863 -1.6424179 -0.14870232
v -1.0330672 -0.2209115 1.3710716
v -0.30039802 -0.3377887 1.4674106
v -0.5375792 0.60025525 1.3567418
v -0.2514837 -0.20534682 1.5065572
v -0.5262527 0.6433301 1.3191442
v 0.0009386623 1.0056508 2.3402598
v -1.120648 0.918275 1.7865779
v -0.5375792 0.60025525 1.3567418
v -0.5262527 0.6433301 1.3191442
v -1.16486 0.96052545 1.7847767
v 0.037106913 0.6576372 3.594257
v -0.75839937 1.1756614 2.8320165
v 0.038711056 0.69453466 3.6272845
v -0.73320895 1.1025288 2.9182775
v -1.1031616 1.0433264 2.8088217
v -1.0394863 0.991358 2.8789177
v -1.2016811 0.4481172 2.9577127
v -1.1312902 0.40064865 2.9849586
v -0.82581425 -0.22606552 2.9095812
v -0.77006924 -0.19709367 2.8815386
v 1.4308712E-05 -1.2390323 2.0705476
v 1.3428564E-05 -1.1834428 2.1042244
v -1.6673579 -0.8185251 3.8155928
v -1.766973 -1.1502855 4.2595863
v -1.1641746 -1.1642225 3.9626095
v -1.1567549 -0.35272312 3.7377858
v -1.5556026 -0.40554833 3.4359744
v -1.6876646 -0.10801482 3.2276368
v -1.9450798 -0.2817514 3.421107
v -1.6876646 -0.10801482 3.2276368
v -2.1277936 -0.30738997 3.30269
v -1.9450798 -0.2817514 3.421107
v -2.545483 -0.22688389 3.6298923
v -2.4133425 -0.26253605 3.7723992
v -2.0241027 -0.3434477 4.2190156
v -2.8616683 0.1253407 2.635507
v -2.3955722 0.0063962936 2.5286126
v -2.2488427 0.63998437 2.6974
v -2.219373 0.20189953 2.4994678
v -1.696424 0.38477337 3.0537925
v -1.6750727 0.6795862 3.685173
v -1.2835747 0.36477792 2.3799448
v -1.120648 0.918275 1.7865779
v -1.16486 0.96052545 1.7847767
v -1.3487515 0.35775065 2.3995376
v -0.8199456 -0.31460226 2.5309682
v -0.8738047 -0.4772302 2.4682455
v -0.28142208 -0.50131804 1.8388393
v -0.2828766 -0.85478616 1.9311173
v -0.21704546 -0.48215213 1.8145235
v -0.18536393 -0.51329243 1.8202385
v 7.0356446E-06 -0.40694046 1.5303214
v 1.3007116E-05 -0.66660494 1.3843154
v -5.2369924E-06 0.35101905 1.8695328
v -0.54732025 -1.3039863 4.3380666
v -0.5075028 -1.3717659 5.151458
v -0.4199322 -1.7386872 4.9391336
v -0.529969 -1.413636 4.2062364
v -0.55980855 -1.2757931 4.1076083
v -0.6650033 -1.8396566 3.8915195
v -0.49524263 -1.9469367 4.9141498
v -0.59541637 -1.7923598 4.0291443
v -0.47852683 -1.8853112 4.3667054
v -0.4356539 -2.107141 4.5360174
v -0.37337115 -2.2279596 4.7468047
v -0.50803995 -1.8322413 4.174638
v -0.22267415 -2.1056895 4.248909
v -0.3401294 -2.0697546 4.068371
v -0.38358134 -2.0960808 3.8994546
v -0.38358134 -2.0960808 3.8994546
v -0.6650033 -1.8396566 3.8915195
v -0.59541637 -1.7923598 4.0291443
v -0.38476673 -2.134959 3.7891822
v 1.166494E-06 -2.1305218 3.869419
v 1.0129289E-06 -2.170465 3.7286685
v 1.3495087E-06 -2.118443 4.0898542
v -0.3401294 -2.0697546 4.068371
v -0.22267415 -2.1056895 4.248909
v -0.6650033 -1.8396566 3.8915195
v -0.38476673 -2.134959 3.7891822
v -0.0003394566 -1.7301811 3.6117036
v -0.27763233 -1.4837981 3.8454506
v -0.55980855 -1.2757931 4.1076083
v -0.0027295258 -1.3065417 3.8002815
v -0.2786306 -1.2928789 3.9493165
v -1.1031616 1.0433264 2.8088217
v -1.3487515 0.35775065 2.3995376
v -1.16486 0.96052545 1.7847767
v -1.2016811 0.4481172 2.9577127
v -0.82581425 -0.22606552 2.9095812
v -0.8738047 -0.4772302 2.4682455
v -0.7926299 -0.65657014 2.538236
v -0.76061535 -0.8827077 2.0154014
v -0.75839937 1.1756614 2.8320165
v -1.1031616 1.0433264 2.8088217
v -1.16486 0.96052545 1.7847767
v -0.4745515 1.1556901 1.7370774
v -0.5262527 0.6433301 1.3191442
v 0.0009386623 1.0056508 2.3402598
v 0.02579213 1.0413115 3.1589978
v 0.038711056 0.69453466 3.6272845
v -0.82581425 -0.22606552 2.9095812
v 1.4308712E-05 -1.2390323 2.0705476
v 1.569066E-05 -1.0252844 1.4765539
v -0.7926299 -0.65657014 2.538236
v -0.63410056 -0.9842118 2.081315
v -0.76061535 -0.8827077 2.0154014
v 1.7519047E-05 -0.778329 1.1168959
v -0.052185956 -0.9600543 1.4513099
v 1.597901E-05 -0.4966752 0.8484384
v 1.3007116E-05 -0.66660494 1.3843154
v -0.052185956 -0.9600543 1.4513099
v 1.597901E-05 -0.4966752 0.8484384
v -0.2828766 -0.85478616 1.9311173
v -0.76061535 -0.8827077 2.0154014
v -0.8738047 -0.4772302 2.4682455
v -1.8876309 0.5890646 1.8752496
v -1.780848 0.30079806 2.241013
v -1.937679 0.8663858 1.9191525
v -1.9753318 0.72644544 2.530079
v -1.9829116 0.9518656 2.2553673
v -2.1166072 0.24163842 2.1554272
v -2.2488427 0.63998437 2.6974
v -1.9753318 0.72644544 2.530079
v -1.780848 0.30079806 2.241013
v 0.007550191 -1.3791516 5.124061
v -0.4199322 -1.7386872 4.9391336
v -0.5075028 -1.3717659 5.151458
v 1.7204466E-06 -1.7561826 5.0990257
v -0.27354056 -2.0520017 5.037368
v 1.9038913E-06 -2.1812446 5.02979
v -0.49524263 -1.9469367 4.9141498
v 1.8230025E-06 -2.353157 4.769996
v -0.37337115 -2.2279596 4.7468047
vt 0.76092815 0.8767158
vt 0.7174094 0.91054726
vt 0.76092815 0.95057213
vt 0.38543808 0.96915483
vt 0.38543808 0.8693485
vt 0.32501337 0.9344189
vt 0.40212393 0.7568116
vt 0.42906108 0.79320693
vt 0.42906108 0.6946838
vt 0.64721847 0.83391285
vt 0.6187177 0.852685
vt 0.64721847 0.8863988
vt 0.40864563 0.8004855
vt 0.40212417 0.8554132
vt 0.4314282 0.8554132
vt 0.8731629 0.288234
vt 0.85169375 0.31012797
vt 0.8731629 0.33410096
vt 0.76092815 0.8767158
vt 0.76092815 0.95057213
vt 0.7174094 0.91054726
vt 0.38543808 0.96915483
vt 0.32501337 0.9344189
vt 0.38543808 0.8693485
vt 0.40212393 0.7568116
vt 0.42906108 0.6946838
vt 0.42906108 0.79320693
vt 0.64721847 0.83391285
vt 0.64721847 0.8863988
vt 0.6187177 0.852685
vt 0.40864563 0.8004855
vt 0.4314282 0.8554132
vt 0.40212417 0.8554132
vt 0.8731629 0.288234
vt 0.8731629 0.33410096
vt 0.85169375 0.31012797
vt 0.93716276 0.87058735
vt 0.95343685 0.89970946
vt 0.9799932 0.91859293
vt 0.9427136 0.89419115
vt 0.93181825 0.89648974
vt 0.911044 0.8307359
vt 0.9316137 0.83232665
vt 0.9799932 0.80742836
vt 0.10851145 0.33349717
vt 0.13080215 0.36262
vt 0.1400299 0.3113687
vt 0.035931587 0.41149533
vt 0.024571896 0.32702982
vt 0.0050616264 0.3596238
vt 0.08769798 0.28441465
vt 0.17019081 0.20653963
vt 0.08456516 0.4494164
vt 0.083266735 0.49250197
vt 0.042717457 0.51571035
vt 0.13373709 0.4635235
vt 0.21156597 0.41879463
vt 0.21291876 0.3210987
vt 0.19684744 0.2890222
vt 0.25440502 0.39410865
vt 0.13946295 0.16356409
vt 0.15124083 0.07156634
vt 0.19101858 0.09412408
vt 0.07759905 0.16957974
vt 0.05247307 0.23621142
vt 0.0036392212 0.30024278
vt 0.2229681 0.026929379
vt 0.25050545 0.022252083
vt 0.22280836 0.003639102
vt 0.25440502 0.07686579
vt 0.22743464 0.10261488
vt 0.45856917 0.6098685
vt 0.5120082 0.5537622
vt 0.43986475 0.5376189
vt 0.46678388 0.51993704
vt 0.5374718 0.47976518
vt 0.45610917 0.3930211
vt 0.59933805 0.57066965
vt 0.62368786 0.5123229
vt 0.6481185 0.6098685
vt 0.3537655 0.6874056
vt 0.42488575 0.6800592
vt 0.38486463 0.61382914
vt 0.2900216 0.68542314
vt 0.31718183 0.60575175
vt 0.3473574 0.54210377
vt 0.40935624 0.5075567
vt 0.2854784 0.5194292
vt 0.35032767 0.4909482
vt 0.35219908 0.45871925
vt 0.26393032 0.45060992
vt 0.26645523 0.44946337
vt 0.35109514 0.4470091
vt 0.34671634 0.4100144
vt 0.4248857 0.36387968
vt 0.26168346 0.44962025
vt 0.8411019 0.7899053
vt 0.7838191 0.78166175
vt 0.83817935 0.8318331
vt 0.89320564 0.81448936
vt 0.9037658 0.86935806
vt 0.9019189 0.7845733
vt 0.9037658 0.6827538
vt 0.7884561 0.7465446
vt 0.81633425 0.6499436
vt 0.43258637 0.032122433
vt 0.31396526 0.0036391318
vt 0.37069082 0.083407134
vt 0.4106114 0.110140175
vt 0.3962828 0.1806409
vt 0.2999698 0.19097976
vt 0.33613086 0.27186844
vt 0.38626117 0.26024532
vt 0.43258643 0.35557207
vt 0.2993983 0.3566014
vt 0.29970932 0.26645625
vt 0.2754557 0.26274022
vt 0.26168334 0.30305636
vt 0.16784751 0.7458852
vt 0.25242734 0.74616045
vt 0.21857738 0.7013248
vt 0.15136826 0.6648097
vt 0.20250392 0.599566
vt 0.25242734 0.59194356
vt 0.24932039 0.52717614
vt 0.21102023 0.5229885
vt 0.39318585 0.8693485
vt 0.3927164 0.9197998
vt 0.42848969 0.88240623
vt 0.42848969 0.9918647
vt 0.83725333 0.6245022
vt 0.8650172 0.6323495
vt 0.8650451 0.6158414
vt 0.83196056 0.59984875
vt 0.8545023 0.56402636
vt 0.8123895 0.57854414
vt 0.80810034 0.60399294
vt 0.8041513 0.6323495
vt 0.843976 0.89337015
vt 0.8063984 0.87663627
vt 0.7838192 0.8929435
vt 0.843976 0.9753927
vt 0.7871585 0.9748901
vt 0.6933649 0.052872658
vt 0.72706753 0.015985489
vt 0.6669389 0.0036392212
vt 0.6074452 0.014723778
vt 0.59009033 0.09092951
vt 0.6934568 0.09343052
vt 0.74957585 0.05772066
vt 0.7141083 0.138731
vt 0.63362813 0.15272665
vt 0.70400053 0.16181803
vt 0.66698974 0.2426033
vt 0.7129891 0.20186234
vt 0.72678816 0.19093657
vt 0.7296377 0.2760334
vt 0.7495758 0.22005558
vt 0.55891633 0.9662305
vt 0.61143947 0.9757911
vt 0.5922339 0.9015738
vt 0.5442295 0.9060155
vt 0.54845953 0.88612115
vt 0.56860304 0.8587924
vt 0.58318543 0.83391297
vt 0.61143947 0.8425299
vt 0.58281195 0.34121418
vt 0.51290727 0.3570695
vt 0.53652984 0.38574266
vt 0.5640419 0.2506776
vt 0.49579954 0.26056576
vt 0.48622772 0.3470602
vt 0.49326953 0.16512108
vt 0.54634494 0.1373272
vt 0.43986475 0.1499219
vt 0.47888508 0.13418627
vt 0.53810287 0.12372589
vt 0.45689094 0.08685875
vt 0.5121323 0.08250618
vt 0.49097848 0.0036392212
vt 0.57778907 0.02139616
vt 0.58281195 0.084019184
vt 0.56546235 0.15651321
vt 0.7765409 0.6499436
vt 0.7361802 0.69964933
vt 0.77622354 0.7437546
vt 0.67653656 0.7371383
vt 0.77654094 0.8337269
vt 0.6879344 0.8361132
vt 0.6553969 0.86943746
vt 0.70291305 0.8868731
vt 0.65539694 0.971077
vt 0.71013117 0.971077
vt 0.67677927 0.8767158
vt 0.8090407 0.32149696
vt 0.84102654 0.36681628
vt 0.84441555 0.3240695
vt 0.8116953 0.36468315
vt 0.7733887 0.3215344
vt 0.7866004 0.288234
vt 0.7821007 0.36681628
vt 0.14011115 0.8014283
vt 0.12317091 0.8358741
vt 0.1353504 0.8443204
vt 0.12005818 0.878158
vt 0.14011115 0.9034114
vt 0.9476197 0.92587113
vt 0.9110441 0.9448347
vt 0.9110441 0.99636084
vt 0.9476197 0.98801386
vt 0.87031114 0.39302105
vt 0.9275825 0.415932
vt 0.9168987 0.39369053
vt 0.856012 0.4729281
vt 0.8182663 0.42019266
vt 0.9253888 0.4796664
vt 0.8041513 0.45412713
vt 0.9275825 0.55208296
vt 0.8889886 0.5567482
vt 0.8193766 0.21626759
vt 0.8036128 0.23882651
vt 0.873227 0.2804551
vt 0.75685394 0.12812448
vt 0.773309 0.25874615
vt 0.8158251 0.13588381
vt 0.85866606 0.13524365
vt 0.873227 0.06848431
vt 0.791224 0.053290367
vt 0.7641256 0.055696964
vt 0.7682109 0.015006065
vt 0.8140278 0.0036392212
vt 0.81470394 0.053386927
vt 0.5175346 0.97618496
vt 0.5369512 0.9629216
vt 0.4913391 0.9509202
vt 0.5369512 0.8692274
vt 0.45981216 0.9219352
vt 0.44022834 0.8757967
vt 0.53517056 0.83391285
vt 0.43986475 0.90867615
vt 0.5900903 0.28797352
vt 0.62745833 0.35935897
vt 0.6769434 0.28331167
vt 0.68067384 0.28600973
vt 0.62803996 0.36523026
vt 0.68067384 0.38036174
vt 0.6286705 0.7095578
vt 0.6337411 0.7133043
vt 0.6337411 0.6171466
vt 0.6284676 0.62174
vt 0.14408994 0.5304086
vt 0.14407027 0.52298856
vt 0.0575552 0.5249157
vt 0.060165763 0.5318036
vt 0.017217755 0.5475795
vt 0.024039268 0.5512183
vt 0.003639102 0.62869143
vt 0.011310577 0.6288619
vt 0.050047874 0.75683355
vt 0.05604267 0.75208044
vt 0.14408994 0.7941501
vt 0.14408052 0.7870438
vt 0.94373345 0.29501605
vt 0.89322567 0.34452772
vt 0.9636524 0.34466767
vt 0.8805053 0.26835656
vt 0.92145467 0.23793936
vt 0.93056273 0.19030094
vt 0.9636524 0.2190423
vt 0.15136838 0.8828293
vt 0.18459916 0.8790581
vt 0.18772888 0.8523823
vt 0.249897 0.8515595
vt 0.24964237 0.87351906
vt 0.249897 0.9400712
vt 0.22085428 0.7534387
vt 0.17005515 0.7760277
vt 0.9802589 0.48951614
vt 0.93486077 0.43969166
vt 0.9363083 0.52018106
vt 0.9802589 0.393021
vt 0.6138434 0.7517505
vt 0.6211893 0.6171466
vt 0.6151098 0.6220794
vt 0.6211893 0.7543088
vt 0.5424597 0.81211025
vt 0.5444716 0.8262756
vt 0.48040593 0.77715325
vt 0.47013938 0.8266345
vt 0.47360125 0.7733006
vt 0.46921778 0.7773157
vt 0.44773105 0.77827287
vt 0.43986472 0.8160236
vt 0.46746588 0.6835647
vt 0.030359745 0.847517
vt 0.112780094 0.868281
vt 0.112780094 0.8014283
vt 0.022153854 0.86572623
vt 0.0068712234 0.8606516
vt 0.0036392212 0.9245527
vt 0.111730576 0.8989171
vt 0.014655113 0.9122443
vt 0.053132057 0.90880775
vt 0.07515764 0.92811567
vt 0.09974432 0.9358761
vt 0.032277107 0.9102699
vt 0.04845476 0.93554854
vt 0.028409481 0.9385146
vt 0.012401581 0.948142
vt 0.88494706 0.9226029
vt 0.8577864 0.9509256
vt 0.87466 0.9560555
vt 0.8970885 0.9206567
vt 0.882169 0.87921387
vt 0.8970885 0.87663627
vt 0.86154366 0.8830234
vt 0.86712503 0.92085326
vt 0.8512542 0.9104985
vt 0.7661104 0.35277665
vt 0.68795204 0.34717986
vt 0.7285374 0.3803617
vt 0.72703123 0.3177069
vt 0.7661104 0.28823394
vt 0.69608253 0.30455917
vt 0.73109645 0.29639655
vt 0.67792726 0.64156044
vt 0.7968731 0.64266527
vt 0.72660685 0.52130425
vt 0.6553967 0.5478516
vt 0.68288445 0.42728168
vt 0.7479801 0.43047652
vt 0.7372756 0.40265682
vt 0.7968731 0.393021
vt 0.3081553 0.86096895
vt 0.26168334 0.75789654
vt 0.26812422 0.85728633
vt 0.34041262 0.7695457
vt 0.33541918 0.6946839
vt 0.3948456 0.73062575
vt 0.3948456 0.8140665
vt 0.39473712 0.86206996
vt 0.8805054 0.0036392212
vt 0.9801983 0.08590722
vt 0.9801983 0.00670743
vt 0.8874839 0.057162046
vt 0.9081686 0.10700607
vt 0.8906271 0.11667371
vt 0.9782284 0.13529897
vt 0.96848243 0.18069983
vt 0.97430557 0.18302274
vt 0.9110441 0.76331913
vt 0.9639616 0.8001498
vt 0.9656298 0.79412675
vt 0.930436 0.7378639
vt 0.9656298 0.69657063
vt 0.9209312 0.6499436
vt 0.93157876 0.5800752
vt 0.90383935 0.5640264
vt 0.93157876 0.6334191
vt 0.8727588 0.6273424
vt 0.8723235 0.58724254
vt 0.9388571 0.63908076
vt 0.9780266 0.63908076
vt 0.96788716 0.5860343
vt 0.94412255 0.5640266
vt 0.31773514 0.8753247
vt 0.26274544 0.8693483
vt 0.2708798 0.92137074
vt 0.3170637 0.90850973
vt 0.2861817 0.94313264
vt 0.3168773 0.9501102
vt 0.26168346 0.9447961
vt 0.31773514 0.987437
vt 0.27583432 0.9821174
vt 0.93716276 0.87058735
vt 0.9799932 0.91859293
vt 0.95343685 0.89970946
vt 0.9427136 0.89419115
vt 0.93181825 0.89648974
vt 0.911044 0.8307359
vt 0.9316137 0.83232665
vt 0.9799932 0.80742836
vt 0.10851145 0.33349717
vt 0.1400299 0.3113687
vt 0.13080215 0.36262
vt 0.035931587 0.41149533
vt 0.024571896 0.32702982
vt 0.0050616264 0.3596238
vt 0.08769798 0.28441465
vt 0.17019081 0.20653963
vt 0.08456516 0.4494164
vt 0.083266735 0.49250197
vt 0.042717457 0.51571035
vt 0.13373709 0.4635235
vt 0.21156597 0.41879463
vt 0.21291876 0.3210987
vt 0.19684744 0.2890222
vt 0.25440502 0.39410865
vt 0.13946295 0.16356409
vt 0.15124083 0.07156634
vt 0.19101858 0.09412408
vt 0.07759905 0.16957974
vt 0.05247307 0.23621142
vt 0.0036392212 0.30024278
vt 0.2229681 0.026929379
vt 0.25050545 0.022252083
vt 0.22280836 0.003639102
vt 0.25440502 0.07686579
vt 0.22743464 0.10261488
vt 0.45856917 0.6098685
vt 0.43986475 0.5376189
vt 0.5120082 0.5537622
vt 0.46678388 0.51993704
vt 0.5374718 0.47976518
vt 0.45610917 0.3930211
vt 0.59933805 0.57066965
vt 0.62368786 0.5123229
vt 0.6481185 0.6098685
vt 0.3537655 0.6874056
vt 0.38486463 0.61382914
vt 0.42488575 0.6800592
vt 0.2900216 0.68542314
vt 0.31718183 0.60575175
vt 0.3473574 0.54210377
vt 0.40935624 0.5075567
vt 0.2854784 0.5194292
vt 0.35032767 0.4909482
vt 0.35219908 0.45871925
vt 0.26393032 0.45060992
vt 0.26645523 0.44946337
vt 0.35109514 0.4470091
vt 0.34671634 0.4100144
vt 0.4248857 0.36387968
vt 0.26168346 0.44962025
vt 0.8411019 0.7899053
vt 0.83817935 0.8318331
vt 0.7838191 0.78166175
vt 0.89320564 0.81448936
vt 0.9037658 0.86935806
vt 0.9019189 0.7845733
vt 0.9037658 0.6827538
vt 0.7884561 0.7465446
vt 0.81633425 0.6499436
vt 0.43258637 0.032122433
vt 0.37069082 0.083407134
vt 0.31396526 0.0036391318
vt 0.4106114 0.110140175
vt 0.3962828 0.1806409
vt 0.2999698 0.19097976
vt 0.33613086 0.27186844
vt 0.38626117 0.26024532
vt 0.43258643 0.35557207
vt 0.2993983 0.3566014
vt 0.29970932 0.26645625
vt 0.2754557 0.26274022
vt 0.26168334 0.30305636
vt 0.16784751 0.7458852
vt 0.21857738 0.7013248
vt 0.25242734 0.74616045
vt 0.15136826 0.6648097
vt 0.20250392 0.599566
vt 0.25242734 0.59194356
vt 0.24932039 0.52717614
vt 0.21102023 0.5229885
vt 0.39318585 0.8693485
vt 0.42848969 0.88240623
vt 0.3927164 0.9197998
vt 0.42848969 0.9918647
vt 0.83725333 0.6245022
vt 0.8650451 0.6158414
vt 0.8650172 0.6323495
vt 0.83196056 0.59984875
vt 0.8545023 0.56402636
vt 0.8123895 0.57854414
vt 0.80810034 0.60399294
vt 0.8041513 0.6323495
vt 0.843976 0.89337015
vt 0.7838192 0.8929435
vt 0.8063984 0.87663627
vt 0.843976 0.9753927
vt 0.7871585 0.9748901
vt 0.6933649 0.052872658
vt 0.6669389 0.0036392212
vt 0.72706753 0.015985489
vt 0.6074452 0.014723778
vt 0.59009033 0.09092951
vt 0.6934568 0.09343052
vt 0.74957585 0.05772066
vt 0.7141083 0.138731
vt 0.63362813 0.15272665
vt 0.70400053 0.16181803
vt 0.66698974 0.2426033
vt 0.7129891 0.20186234
vt 0.72678816 0.19093657
vt 0.7296377 0.2760334
vt 0.7495758 0.22005558
vt 0.55891633 0.9662305
vt 0.5922339 0.9015738
vt 0.61143947 0.9757911
vt 0.5442295 0.9060155
vt 0.54845953 0.88612115
vt 0.56860304 0.8587924
vt 0.58318543 0.83391297
vt 0.61143947 0.8425299
vt 0.58281195 0.34121418
vt 0.53652984 0.38574266
vt 0.51290727 0.3570695
vt 0.5640419 0.2506776
vt 0.49579954 0.26056576
vt 0.48622772 0.3470602
vt 0.49326953 0.16512108
vt 0.54634494 0.1373272
vt 0.43986475 0.1499219
vt 0.47888508 0.13418627
vt 0.53810287 0.12372589
vt 0.45689094 0.08685875
vt 0.5121323 0.08250618
vt 0.49097848 0.0036392212
vt 0.57778907 0.02139616
vt 0.58281195 0.084019184
vt 0.56546235 0.15651321
vt 0.7765409 0.6499436
vt 0.77622354 0.7437546
vt 0.7361802 0.69964933
vt 0.67653656 0.7371383
vt 0.77654094 0.8337269
vt 0.6879344 0.8361132
vt 0.6553969 0.86943746
vt 0.70291305 0.8868731
vt 0.71013117 0.971077
vt 0.65539694 0.971077
vt 0.67677927 0.8767158
vt 0.8090407 0.32149696
vt 0.84441555 0.3240695
vt 0.84102654 0.36681628
vt 0.8116953 0.36468315
vt 0.7733887 0.3215344
vt 0.7866004 0.288234
vt 0.7821007 0.36681628
vt 0.14011115 0.8014283
vt 0.1353504 0.8443204
vt 0.12317091 0.8358741
vt 0.12005818 0.878158
vt 0.14011115 0.9034114
vt 0.9476197 0.92587113
vt 0.9476197 0.98801386
vt 0.9110441 0.99636084
vt 0.9110441 0.9448347
vt 0.87031114 0.39302105
vt 0.9168987 0.39369053
vt 0.9275825 0.415932
vt 0.856012 0.4729281
vt 0.8182663 0.42019266
vt 0.9253888 0.4796664
vt 0.8041513 0.45412713
vt 0.9275825 0.55208296
vt 0.8889886 0.5567482
vt 0.8193766 0.21626759
vt 0.873227 0.2804551
vt 0.8036128 0.23882651
vt 0.75685394 0.12812448
vt 0.773309 0.25874615
vt 0.8158251 0.13588381
vt 0.85866606 0.13524365
vt 0.873227 0.06848431
vt 0.791224 0.053290367
vt 0.7641256 0.055696964
vt 0.7682109 0.015006065
vt 0.8140278 0.0036392212
vt 0.81470394 0.053386927
vt 0.5175346 0.97618496
vt 0.4913391 0.9509202
vt 0.5369512 0.9629216
vt 0.5369512 0.8692274
vt 0.45981216 0.9219352
vt 0.44022834 0.8757967
vt 0.53517056 0.83391285
vt 0.43986475 0.90867615
vt 0.5900903 0.28797352
vt 0.6769434 0.28331167
vt 0.62745833 0.35935897
vt 0.68067384 0.28600973
vt 0.62803996 0.36523026
vt 0.68067384 0.38036174
vt 0.6286705 0.7095578
vt 0.6284676 0.62174
vt 0.6337411 0.6171466
vt 0.6337411 0.7133043
vt 0.14408994 0.5304086
vt 0.0575552 0.5249157
vt 0.14407027 0.52298856
vt 0.060165763 0.5318036
vt 0.017217755 0.5475795
vt 0.024039268 0.5512183
vt 0.003639102 0.62869143
vt 0.011310577 0.6288619
vt 0.050047874 0.75683355
vt 0.05604267 0.75208044
vt 0.14408994 0.7941501
vt 0.14408052 0.7870438
vt 0.94373345 0.29501605
vt 0.9636524 0.34466767
vt 0.89322567 0.34452772
vt 0.8805053 0.26835656
vt 0.92145467 0.23793936
vt 0.93056273 0.19030094
vt 0.9636524 0.2190423
vt 0.15136838 0.8828293
vt 0.18772888 0.8523823
vt 0.18459916 0.8790581
vt 0.249897 0.8515595
vt 0.24964237 0.87351906
vt 0.249897 0.9400712
vt 0.22085428 0.7534387
vt 0.17005515 0.7760277
vt 0.9802589 0.48951614
vt 0.9363083 0.52018106
vt 0.93486077 0.43969166
vt 0.9802589 0.393021
vt 0.6138434 0.7517505
vt 0.6151098 0.6220794
vt 0.6211893 0.6171466
vt 0.6211893 0.7543088
vt 0.5424597 0.81211025
vt 0.5444716 0.8262756
vt 0.48040593 0.77715325
vt 0.47013938 0.8266345
vt 0.47360125 0.7733006
vt 0.46921778 0.7773157
vt 0.44773105 0.77827287
vt 0.43986472 0.8160236
vt 0.46746588 0.6835647
vt 0.030359745 0.847517
vt 0.112780094 0.8014283
vt 0.112780094 0.868281
vt 0.022153854 0.86572623
vt 0.0068712234 0.8606516
vt 0.0036392212 0.9245527
vt 0.111730576 0.8989171
vt 0.014655113 0.9122443
vt 0.053132057 0.90880775
vt 0.07515764 0.92811567
vt 0.09974432 0.9358761
vt 0.032277107 0.9102699
vt 0.04845476 0.93554854
vt 0.028409481 0.9385146
vt 0.012401581 0.948142
vt 0.88494706 0.9226029
vt 0.87466 0.9560555
vt 0.8577864 0.9509256
vt 0.8970885 0.9206567
vt 0.882169 0.87921387
vt 0.8970885 0.87663627
vt 0.86154366 0.8830234
vt 0.86712503 0.92085326
vt 0.8512542 0.9104985
vt 0.7661104 0.35277665
vt 0.7285374 0.3803617
vt 0.68795204 0.34717986
vt 0.72703123 0.3177069
vt 0.7661104 0.28823394
vt 0.69608253 0.30455917
vt 0.73109645 0.29639655
vt 0.67792726 0.64156044
vt 0.72660685 0.52130425
vt 0.7968731 0.64266527
vt 0.6553967 0.5478516
vt 0.68288445 0.42728168
vt 0.7479801 0.43047652
vt 0.7372756 0.40265682
vt 0.7968731 0.393021
vt 0.3081553 0.86096895
vt 0.26812422 0.85728633
vt 0.26168334 0.75789654
vt 0.34041262 0.7695457
vt 0.33541918 0.6946839
vt 0.3948456 0.73062575
vt 0.3948456 0.8140665
vt 0.39473712 0.86206996
vt 0.8805054 0.0036392212
vt 0.9801983 0.00670743
vt 0.9801983 0.08590722
vt 0.8874839 0.057162046
vt 0.9081686 0.10700607
vt 0.8906271 0.11667371
vt 0.9782284 0.13529897
vt 0.96848243 0.18069983
vt 0.97430557 0.18302274
vt 0.9110441 0.76331913
vt 0.9656298 0.79412675
vt 0.9639616 0.8001498
vt 0.930436 0.7378639
vt 0.9656298 0.69657063
vt 0.9209312 0.6499436
vt 0.93157876 0.5800752
vt 0.93157876 0.6334191
vt 0.90383935 0.5640264
vt 0.8727588 0.6273424
vt 0.8723235 0.58724254
vt 0.9388571 0.63908076
vt 0.94412255 0.5640266
vt 0.96788716 0.5860343
vt 0.9780266 0.63908076
vt 0.31773514 0.8753247
vt 0.2708798 0.92137074
vt 0.26274544 0.8693483
vt 0.3170637 0.90850973
vt 0.2861817 0.94313264
vt 0.3168773 0.9501102
vt 0.26168346 0.9447961
vt 0.31773514 0.987437
vt 0.27583432 0.9821174
vn -0.009095188 -0.9235394 -0.13363789
vn 1.2490407E-06 -0.9534889 -0.13915703
vn 0.27763274 -0.7451731 -0.5365674
vn 0.5291466 0.7417943 0.34855473
vn 0.578297 0.2279984 -0.73874456
vn 0.26882565 0.52676797 -0.73907
vn 0.6844987 -0.69386667 -0.17540447
vn 0.4593043 0.2133569 -0.82899284
vn 0.60690534 0.4945494 -0.5838105
vn -0.00027519665 0.2684355 -0.93184257
vn -3.149273E-07 -0.86800116 -0.4503077
vn 0.46574023 -0.7788576 -0.38115153
vn 0.50866157 -0.3636635 0.7552873
vn 0.0028624032 -0.5602378 0.79197973
vn 0.006721085 -0.4544021 0.85949343
vn -0.14612198 -0.6047236 -0.7829159
vn 0.48586616 -0.7569467 -0.43699622
vn 0.8664333 -0.30399552 -0.39608082
vn -0.009095188 -0.9235394 -0.13363789
vn -0.29963982 -0.6861653 -0.46578938
vn 1.2490407E-06 -0.9534889 -0.13915703
vn -0.5291776 0.2729991 -0.7397965
vn -0.26882198 -0.24920844 -0.7790154
vn -0.57965505 -0.39055154 -0.49550575
vn -0.68447584 -0.15544301 0.67319113
vn -0.60479045 -0.37642252 -0.5186067
vn -0.4592844 -0.7003162 -0.3539579
vn -0.00027519665 0.2684355 -0.93184257
vn -0.46574083 -0.7788574 -0.38115108
vn -3.149273E-07 -0.86800116 -0.4503077
vn -0.5106064 -0.39153957 0.739327
vn 0.006721085 -0.4544021 0.85949343
vn 0.0028624032 -0.5602378 0.79197973
vn 0.12430579 0.5576347 -0.8207262
vn -0.8442223 0.4713583 -0.2551668
vn -0.5693225 0.3185232 -0.75790155
vn -0.8349146 0.057853714 0.54733026
vn -0.8582813 -0.27517086 -0.43316716
vn -0.42372775 -0.90093803 -0.09362009
vn -0.98143846 -0.036525816 -0.18826658
vn -0.6665379 -0.6047279 0.4359256
vn -0.32054287 -0.56859535 0.7575958
vn -0.9839668 -0.11772171 0.1339806
vn -0.36991167 0.4934283 -0.7872063
vn 0.27000895 0.9169857 0.018453017
vn 0.49894604 0.7496291 0.28472245
vn 0.2940182 0.6647916 -0.58318305
vn 0.34250444 0.3258403 0.837855
vn 0.60623974 0.6339529 0.42468047
vn 0.44196403 0.0608328 0.8676409
vn 0.28988275 0.9014023 0.058175184
vn -0.44011006 0.51939046 -0.6456829
vn 0.30315983 0.65457207 0.63430816
vn 0.038928974 0.60816 0.74360025
vn 0.024285559 0.11253947 0.9588395
vn 0.052161645 0.8369785 0.43835568
vn 0.04575877 0.9098641 0.24406515
vn 0.2705828 0.128072 0.90419364
vn 0.53198993 -0.16791935 0.79844314
vn 0.041580502 0.38648546 0.85490286
vn 0.21144786 0.4852342 -0.7452099
vn 0.7431964 0.22002283 -0.6318615
vn -0.36991167 0.4934283 -0.7872063
vn 0.7862675 0.53358346 -0.0839687
vn 0.81546915 0.26630276 0.47517192
vn 0.83714706 -0.16130586 0.51804996
vn 0.46571353 0.45113763 -0.7613052
vn 0.16187291 0.05196318 -0.9854425
vn 0.8664333 -0.30399552 -0.39608082
vn -0.434371 0.56284153 -0.7032292
vn -0.37819216 0.9198402 -0.10423294
vn 0.1719205 -0.9529621 -0.005459368
vn 0.22407745 -0.6409533 -0.6766006
vn 0.6205451 -0.4611743 -0.57129884
vn 0.7593437 -0.37101355 -0.4768656
vn 0.5942857 -0.64151204 0.4293235
vn 0.2088774 -0.906335 0.25588965
vn 0.2940182 0.6647916 -0.58318305
vn 0.53198993 -0.16791935 0.79844314
vn 0.49894604 0.7496291 0.28472245
vn -0.62517405 0.7048561 0.31480718
vn -0.41222477 0.48444155 0.74228024
vn -0.87375677 0.13608941 0.46388742
vn -0.8487543 0.41785306 -0.32315004
vn -0.4089696 -0.07083831 -0.8930695
vn -0.9583496 0.25704578 -0.08076494
vn -0.25991017 0.41556224 0.783633
vn -0.67333823 -0.34970045 -0.5987965
vn -0.981538 0.13081716 0.12141914
vn -0.7580635 0.57910174 -0.21676572
vn -0.20367469 -0.06553607 -0.92757374
vn -0.46117628 0.18559952 -0.824409
vn -0.55905503 0.5152706 -0.5883683
vn 2.0869934E-06 0.39369673 -0.8682264
vn 0.000974943 0.8787004 -0.36086833
vn -0.14175615 0.3492654 -0.87800926
vn 0.27763274 -0.7451731 -0.5365674
vn 1.2490407E-06 -0.9534889 -0.13915703
vn 0.08503964 -0.92071867 -0.25513452
vn 0.6205451 -0.4611743 -0.57129884
vn 0.1719205 -0.9529621 -0.005459368
vn 0.7593437 -0.37101355 -0.4768656
vn 0.2088774 -0.906335 0.25588965
vn -0.009095188 -0.9235394 -0.13363789
vn 6.235242E-06 -0.8448332 0.41971725
vn 0.526574 0.4063332 0.7204071
vn 0.94666404 0.30895483 -0.0800329
vn 0.9902126 -0.08435319 0.11090866
vn 0.3849282 0.2642587 0.8843061
vn 0.8081496 0.20286658 0.5236193
vn 0.80331594 -0.31040892 -0.48103982
vn 0.98166686 0.1508711 0.114955954
vn 0.5291466 0.7417943 0.34855473
vn 0.578297 0.2279984 -0.73874456
vn 0.60690534 0.4945494 -0.5838105
vn 0.9842554 -0.16925862 -0.049059976
vn 0.7579098 -0.53396463 -0.36493137
vn 0.6844987 -0.69386667 -0.17540447
vn 0.5291466 0.7417943 0.34855473
vn -0.7580635 0.57910174 -0.21676572
vn -0.25991017 0.41556224 0.783633
vn 0.8081496 0.20286658 0.5236193
vn 0.3849282 0.2642587 0.8843061
vn -0.87375677 0.13608941 0.46388742
vn -0.41222477 0.48444155 0.74228024
vn 0.526574 0.4063332 0.7204071
vn 0.44196403 0.0608328 0.8676409
vn 0.60623974 0.6339529 0.42468047
vn 0.83714706 -0.16130586 0.51804996
vn 0.28988275 0.9014023 0.058175184
vn 0.53364044 -0.8179416 -0.18031883
vn -3.0107398E-07 -0.9304824 -0.3267145
vn -3.8913817E-07 -0.79624736 -0.58686924
vn 0.4701819 -0.81588906 -0.33313423
vn -1.338732E-07 -0.9882454 0.15287408
vn 0.5725778 -0.8182328 0.051474243
vn 0.7412628 -0.609528 -0.2719208
vn 0.91667867 -0.39006916 -0.053242587
vn 0.41194206 -0.5242369 0.7142724
vn 0.50866157 -0.3636635 0.7552873
vn 0.006721085 -0.4544021 0.85949343
vn 0.34250444 0.3258403 0.837855
vn 0.024285559 0.11253947 0.9588395
vn 0.41194206 -0.5242369 0.7142724
vn 0.34250444 0.3258403 0.837855
vn 0.44196403 0.0608328 0.8676409
vn 0.83714706 -0.16130586 0.51804996
vn 0.46517366 -0.8325902 0.28570187
vn 0.18700843 -0.9302794 0.17456013
vn 0.50866157 -0.3636635 0.7552873
vn 0.6890742 -0.7023256 0.052864373
vn 0.1719205 -0.9529621 -0.005459368
vn 0.5759259 -0.79252625 -0.045179337
vn 0.08503964 -0.92071867 -0.25513452
vn -0.087049365 -0.9581518 0.050252467
vn 0.48832577 -0.40492034 -0.7368167
vn 1.2490407E-06 -0.9534889 -0.13915703
vn -0.008577549 -0.51012343 -0.82235837
vn -0.32054287 -0.56859535 0.7575958
vn 0.75664854 -0.4504048 0.4739392
vn 0.2703461 -0.8949506 0.354931
vn -0.6665379 -0.6047279 0.4359256
vn -0.8582813 -0.27517086 -0.43316716
vn -0.42372775 -0.90093803 -0.09362009
vn -0.14612198 -0.6047236 -0.7829159
vn 0.48586616 -0.7569467 -0.43699622
vn 0.2703461 -0.8949506 0.354931
vn 0.8664333 -0.30399552 -0.39608082
vn 0.48586616 -0.7569467 -0.43699622
vn 0.75664854 -0.4504048 0.4739392
vn 0.7431964 0.22002283 -0.6318615
vn 0.46571353 0.45113763 -0.7613052
vn 0.9751711 0.055418268 0.19131653
vn 0.48847768 -0.38142103 0.70254064
vn 0.7862675 0.53358346 -0.0839687
vn 0.8260237 0.14592777 0.48582208
vn 0.35315508 -0.4474754 0.7517369
vn 0.81546915 0.26630276 0.47517192
vn 0.74089235 -0.5574665 0.35565713
vn 0.83714706 -0.16130586 0.51804996
vn 0.46517366 -0.8325902 0.28570187
vn 0.17053768 -0.9721355 -0.16083875
vn -0.12855448 -0.9258441 0.25030527
vn -0.9839668 -0.11772171 0.1339806
vn -0.8581451 -0.15157688 -0.46398053
vn -0.8191978 -0.5251683 0.045102954
vn -0.44011006 0.51939046 -0.6456829
vn 0.22407745 -0.6409533 -0.6766006
vn 0.2940182 0.6647916 -0.58318305
vn 0.27000895 0.9169857 0.018453017
vn -0.32054287 -0.56859535 0.7575958
vn -0.8191978 -0.5251683 0.045102954
vn -0.22248673 -0.46997976 0.8061793
vn -0.9839668 -0.11772171 0.1339806
vn -0.14612198 -0.6047236 -0.7829159
vn -0.85012156 -0.5093729 -0.13353631
vn -0.42372775 -0.90093803 -0.09362009
vn -0.6903349 -0.14749789 -0.70829487
vn 0.16187291 0.05196318 -0.9854425
vn 0.8664333 -0.30399552 -0.39608082
vn -0.434371 0.56284153 -0.7032292
vn -0.80496556 0.49263233 -0.3306715
vn -0.24558285 -0.20890322 -0.94659853
vn -0.06764028 0.8541423 -0.51562
vn 0.270973 -0.14193076 -0.9485258
vn 0.61924356 0.6394648 -0.44867167
vn -0.42372775 -0.90093803 -0.09362009
vn -0.85012156 -0.5093729 -0.13353631
vn -0.8784947 0.172305 0.44559836
vn -0.8349146 0.057853714 0.54733026
vn -0.06764028 0.8541423 -0.51562
vn -0.8487543 0.41785306 -0.32315004
vn -0.80496556 0.49263233 -0.3306715
vn 0.046720497 0.9372162 0.3272596
vn 0.61924356 0.6394648 -0.44867167
vn -0.62517405 0.7048561 0.31480718
vn 0.94666404 0.30895483 -0.0800329
vn -0.41222477 0.48444155 0.74228024
vn 0.526574 0.4063332 0.7204071
vn -0.4089696 -0.07083831 -0.8930695
vn 0.46021074 -0.43708834 -0.7642621
vn -0.8487543 0.41785306 -0.32315004
vn 0.80331594 -0.31040892 -0.48103982
vn 0.9902126 -0.08435319 0.11090866
vn 0.03238901 -0.51309615 -0.81241703
vn -0.67333823 -0.34970045 -0.5987965
vn -0.20367469 -0.06553607 -0.92757374
vn 0.36601183 -0.6872359 -0.6060916
vn 0.7579098 -0.53396463 -0.36493137
vn 0.6844987 -0.69386667 -0.17540447
vn 0.4593043 0.2133569 -0.82899284
vn 0.020009626 -0.72137415 -0.6548299
vn -0.80496556 0.49263233 -0.3306715
vn -0.8487543 0.41785306 -0.32315004
vn -0.24558285 -0.20890322 -0.94659853
vn 0.46021074 -0.43708834 -0.7642621
vn 0.270973 -0.14193076 -0.9485258
vn 0.94666404 0.30895483 -0.0800329
vn 0.9902126 -0.08435319 0.11090866
vn 0.61924356 0.6394648 -0.44867167
vn 0.5291466 0.7417943 0.34855473
vn 0.26882565 0.52676797 -0.73907
vn -0.7580635 0.57910174 -0.21676572
vn -0.55905503 0.5152706 -0.5883683
vn -0.079253174 0.7396698 -0.5829068
vn 0.000974943 0.8787004 -0.36086833
vn 0.578297 0.2279984 -0.73874456
vn 0.7743803 0.5743505 -0.15223354
vn -0.079253174 0.7396698 -0.5829068
vn 0.26882565 0.52676797 -0.73907
vn 0.041580502 0.38648546 0.85490286
vn 0.028459582 -0.03514886 0.94128925
vn 0.2312515 0.12061423 0.91645724
vn 0.2705828 0.128072 0.90419364
vn 0.58378273 -0.13727279 0.76994216
vn 0.53198993 -0.16791935 0.79844314
vn 0.56148326 -0.5881732 0.53683674
vn 0.5942857 -0.64151204 0.4293235
vn 0.4973062 -0.8357935 0.0075835586
vn 0.2088774 -0.906335 0.25588965
vn 9.675756E-06 -0.93131405 0.15293652
vn 6.235242E-06 -0.8448332 0.41971725
vn 0.17053768 -0.9721355 -0.16083875
vn 0.1719205 -0.9529621 -0.005459368
vn 0.46517366 -0.8325902 0.28570187
vn 0.22407745 -0.6409533 -0.6766006
vn -0.49666968 -0.7889278 -0.18685846
vn -0.8191978 -0.5251683 0.045102954
vn -0.12855448 -0.9258441 0.25030527
vn -0.8191978 -0.5251683 0.045102954
vn -0.12855448 -0.9258441 0.25030527
vn -0.22248673 -0.46997976 0.8061793
vn 0.48847768 -0.38142103 0.70254064
vn 0.35315508 -0.4474754 0.7517369
vn 0.74089235 -0.5574665 0.35565713
vn 0.75664854 -0.4504048 0.4739392
vn -0.32054287 -0.56859535 0.7575958
vn -0.36991167 0.4934283 -0.7872063
vn -0.8581451 -0.15157688 -0.46398053
vn -0.9839668 -0.11772171 0.1339806
vn -0.44011006 0.51939046 -0.6456829
vn 0.60690534 0.4945494 -0.5838105
vn 0.7743803 0.5743505 -0.15223354
vn 0.578297 0.2279984 -0.73874456
vn 0.88781786 0.13580254 -0.40826073
vn 0.4593043 0.2133569 -0.82899284
vn 0.8871332 0.25003988 -0.3631176
vn -0.20367469 -0.06553607 -0.92757374
vn 0.27000538 0.8761426 -0.2635128
vn -0.46117628 0.18559952 -0.824409
vn -0.14175615 0.3492654 -0.87800926
vn 1.8071007E-06 0.38325703 -0.87504524
vn -7.395337E-06 0.8415539 -0.4433152
vn 2.0869934E-06 0.39369673 -0.8682264
vn 0.6890742 -0.7023256 0.052864373
vn 0.7277888 -0.15011111 0.653945
vn 0.50866157 -0.3636635 0.7552873
vn 0.9725293 -0.09839451 0.19369586
vn 0.5759259 -0.79252625 -0.045179337
vn 0.9226288 -0.22253376 -0.29947758
vn 0.84906244 -0.2492527 0.46089086
vn 0.83362675 -0.3137828 0.44047204
vn 0.91667867 -0.39006916 -0.053242587
vn 0.7412628 -0.609528 -0.2719208
vn 0.5725778 -0.8182328 0.051474243
vn 0.8619807 -0.42087442 0.2642768
vn 0.53364044 -0.8179416 -0.18031883
vn 0.48062402 -0.838613 0.21145496
vn 0.36480814 -0.8041355 0.43748754
vn 0.36480814 -0.8041355 0.43748754
vn 0.83362675 -0.3137828 0.44047204
vn 0.9226288 -0.22253376 -0.29947758
vn 0.46574023 -0.7788576 -0.38115153
vn -4.0379533E-08 -0.9294653 0.31585628
vn -3.149273E-07 -0.86800116 -0.4503077
vn -3.0107398E-07 -0.9304824 -0.3267145
vn 0.48062402 -0.838613 0.21145496
vn 0.53364044 -0.8179416 -0.18031883
vn 0.9226288 -0.22253376 -0.29947758
vn -0.00027519665 0.2684355 -0.93184257
vn 0.46574023 -0.7788576 -0.38115153
vn 0.35873097 0.48878604 -0.7572451
vn 0.5759259 -0.79252625 -0.045179337
vn -0.008577549 -0.51012343 -0.82235837
vn 0.48832577 -0.40492034 -0.7368167
vn 0.58378273 -0.13727279 0.76994216
vn 0.7743803 0.5743505 -0.15223354
vn 0.88781786 0.13580254 -0.40826073
vn 0.56148326 -0.5881732 0.53683674
vn 0.4973062 -0.8357935 0.0075835586
vn 0.8871332 0.25003988 -0.3631176
vn 0.7069385 -0.5895425 -0.3239419
vn 0.82126415 0.3643654 -0.3992062
vn 0.2312515 0.12061423 0.91645724
vn 0.7743803 0.5743505 -0.15223354
vn 0.58378273 -0.13727279 0.76994216
vn 0.043306034 0.9073528 0.27339107
vn -0.079253174 0.7396698 -0.5829068
vn 0.000974943 0.8787004 -0.36086833
vn 0.026898578 0.80564845 0.48552626
vn 0.028459582 -0.03514886 0.94128925
vn 0.4973062 -0.8357935 0.0075835586
vn 1.3193414E-05 -0.8730656 -0.36993217
vn 9.675756E-06 -0.93131405 0.15293652
vn 0.7069385 -0.5895425 -0.3239419
vn 0.44622657 -0.63094187 -0.56561506
vn 0.82126415 0.3643654 -0.3992062
vn 1.4909745E-05 -0.6794147 -0.66061705
vn 0.4533536 0.45491797 -0.713018
vn 1.451923E-06 0.45738804 -0.83135664
vn -7.395337E-06 0.8415539 -0.4433152
vn 1.451923E-06 0.45738804 -0.83135664
vn 0.4533536 0.45491797 -0.713018
vn 0.27000538 0.8761426 -0.2635128
vn 0.82126415 0.3643654 -0.3992062
vn 0.8871332 0.25003988 -0.3631176
vn -0.85012156 -0.5093729 -0.13353631
vn -0.6903349 -0.14749789 -0.70829487
vn -0.8784947 0.172305 0.44559836
vn -0.37819216 0.9198402 -0.10423294
vn -0.434371 0.56284153 -0.7032292
vn -0.8349146 0.057853714 0.54733026
vn -0.8784947 0.172305 0.44559836
vn -0.37819216 0.9198402 -0.10423294
vn -0.36991167 0.4934283 -0.7872063
vn 0.0028624032 -0.5602378 0.79197973
vn 0.50866157 -0.3636635 0.7552873
vn 0.7277888 -0.15011111 0.653945
vn 3.3436226E-07 -0.21906018 0.9573333
vn 0.3763894 -0.44111893 0.81358373
vn 2.0402098E-07 -0.6286886 0.77247685
vn 0.84906244 -0.2492527 0.46089086
vn -1.338732E-07 -0.9882454 0.15287408
vn 0.5725778 -0.8182328 0.051474243
vn 0.73820466 -0.670702 0.07219945
vn 0.22697602 -0.22552726 -0.9474276
vn 0.8319737 0.16757296 -0.52890414
vn 0.96680725 -0.028170243 -0.25395006
vn 0.44811693 -0.69995433 -0.5561069
vn 0.07495331 -0.9256454 -0.37089375
vn 0.9044359 -0.35419434 -0.23778653
vn 0.5794081 0.79595643 0.17532712
vn -0.10905805 0.8213351 0.3624426
vn -0.17883882 0.790666 -0.23769128
vn -0.42441943 0.69010055 0.35162666
vn -0.30952296 0.22801334 0.8950261
vn -0.46371567 0.44186223 0.75804454
vn -0.40517843 -0.2221139 0.8663624
vn -0.070963636 0.74702626 0.65391105
vn 0.59456015 0.79231215 -0.09372628
vn -0.26842493 0.61191416 0.66278744
vn 0.038928974 0.60816 0.74360025
vn 0.024285559 0.11253947 0.9588395
vn 0.052161645 0.8369785 0.43835568
vn 0.04575877 0.9098641 0.24406515
vn -0.2559384 0.44954893 0.4959588
vn -0.5308962 0.289657 0.4692319
vn 0.041580502 0.38648546 0.85490286
vn -0.004540451 0.98732436 0.09266722
vn -0.5769628 0.8029108 0.14982702
vn 0.5794081 0.79595643 0.17532712
vn -0.6107553 0.57583356 0.52973515
vn -0.72786784 0.02502951 0.6801288
vn -0.8458007 -0.26386562 0.4550705
vn -0.24002266 0.9284331 0.28355014
vn -0.0006682575 0.9780148 -0.20853469
vn -0.8442223 0.4713583 -0.2551668
vn 0.6443982 0.7212152 0.254165
vn 0.5800206 0.25655088 0.7731479
vn -0.34348193 -0.81893295 -0.44311053
vn -0.66656286 -0.33631945 -0.5664433
vn -0.3690769 -0.16503876 -0.8348807
vn -0.7936954 -0.2737599 -0.4129266
vn -0.62427026 -0.18276268 0.48376918
vn -0.21410038 -0.067561924 0.75254536
vn -0.17883882 0.790666 -0.23769128
vn -0.5308962 0.289657 0.4692319
vn -0.42441943 0.69010055 0.35162666
vn 0.6251846 0.11111314 -0.7722297
vn 0.8737378 0.48368803 -0.050279487
vn 0.41219592 0.7307276 -0.5427588
vn 0.84879196 -0.44264895 -0.28912538
vn 0.40900704 -0.8727705 -0.10392302
vn 0.95835316 -0.039672848 -0.24803467
vn 0.25986913 0.7088206 -0.36078206
vn 0.6733697 -0.5703983 0.31747675
vn 0.98153037 0.11133056 -0.12464331
vn 0.75805825 -0.15541717 -0.5611412
vn 0.20368607 -0.5338166 -0.65435094
vn 0.46118242 -0.2773538 -0.7152776
vn 0.5590618 -0.42431098 -0.5891683
vn 2.0869934E-06 0.39369673 -0.8682264
vn 0.000974943 0.8787004 -0.36086833
vn 0.14176022 -0.16750567 -0.84085065
vn -0.29963982 -0.6861653 -0.46578938
vn -0.11499188 -0.9099447 -0.3362659
vn 1.2490407E-06 -0.9534889 -0.13915703
vn -0.66656286 -0.33631945 -0.5664433
vn -0.34348193 -0.81893295 -0.44311053
vn -0.7936954 -0.2737599 -0.4129266
vn -0.21410038 -0.067561924 0.75254536
vn -0.009095188 -0.9235394 -0.13363789
vn 6.235242E-06 -0.8448332 0.41971725
vn -0.5266035 0.7162677 -0.45640576
vn -0.99021757 0.09145447 0.10537116
vn -0.9466466 -0.16556993 -0.27636573
vn -0.38496292 0.92023027 -0.070559576
vn -0.80817246 0.5198172 -0.10807739
vn -0.80328834 -0.41305032 0.35871366
vn -0.98167527 0.08746578 -0.1669938
vn -0.5291776 0.2729991 -0.7397965
vn -0.57965505 -0.39055154 -0.49550575
vn -0.60479045 -0.37642252 -0.5186067
vn -0.98424953 -0.02200913 0.17391254
vn -0.7578826 -0.29904684 0.5618749
vn -0.68447584 -0.15544301 0.67319113
vn -0.5291776 0.2729991 -0.7397965
vn 0.25986913 0.7088206 -0.36078206
vn 0.75805825 -0.15541717 -0.5611412
vn -0.80817246 0.5198172 -0.10807739
vn -0.38496292 0.92023027 -0.070559576
vn 0.8737378 0.48368803 -0.050279487
vn 0.41219592 0.7307276 -0.5427588
vn -0.5266035 0.7162677 -0.45640576
vn -0.40517843 -0.2221139 0.8663624
vn -0.8458007 -0.26386562 0.4550705
vn -0.46371567 0.44186223 0.75804454
vn -0.070963636 0.74702626 0.65391105
vn -0.53364086 -0.81794125 -0.18031843
vn -3.8913817E-07 -0.79624736 -0.58686924
vn -3.0107398E-07 -0.9304824 -0.3267145
vn -0.4701824 -0.81588894 -0.33313385
vn -1.338732E-07 -0.9882454 0.15287408
vn -0.5725781 -0.8182325 0.05147469
vn -0.7412631 -0.6095279 -0.27192017
vn -0.9166789 -0.39006877 -0.053241886
vn -0.42677993 -0.59147847 0.64692354
vn 0.006721085 -0.4544021 0.85949343
vn -0.5106064 -0.39153957 0.739327
vn -0.30952296 0.22801334 0.8950261
vn 0.024285559 0.11253947 0.9588395
vn -0.42677993 -0.59147847 0.64692354
vn -0.40517843 -0.2221139 0.8663624
vn -0.30952296 0.22801334 0.8950261
vn -0.8458007 -0.26386562 0.4550705
vn -0.64004993 -0.74639755 -0.17927334
vn -0.2286096 -0.95006067 0.04887432
vn -0.5106064 -0.39153957 0.739327
vn -0.70352954 -0.6910813 0.01597187
vn -0.34348193 -0.81893295 -0.44311053
vn -0.5970418 -0.77748203 -0.09958765
vn -0.11499188 -0.9099447 -0.3362659
vn 0.07030959 -0.9714304 -0.0023117661
vn -0.50075614 -0.36784613 -0.7582862
vn 1.2490407E-06 -0.9534889 -0.13915703
vn -0.008577549 -0.51012343 -0.82235837
vn 0.07495331 -0.9256454 -0.37089375
vn -0.50723594 -0.5090526 -0.695397
vn -0.89743835 -0.4110129 -0.16022904
vn 0.44811693 -0.69995433 -0.5561069
vn 0.8319737 0.16757296 -0.52890414
vn 0.22697602 -0.22552726 -0.9474276
vn 0.12430579 0.5576347 -0.8207262
vn -0.5693225 0.3185232 -0.75790155
vn -0.50723594 -0.5090526 -0.695397
vn -0.5693225 0.3185232 -0.75790155
vn -0.8442223 0.4713583 -0.2551668
vn -0.89743835 -0.4110129 -0.16022904
vn -0.5769628 0.8029108 0.14982702
vn -0.24002266 0.9284331 0.28355014
vn -0.9482762 0.03843485 0.30908376
vn -0.6249222 -0.7534777 0.17668363
vn -0.6107553 0.57583356 0.52973515
vn -0.7981446 -0.19416061 0.56145847
vn -0.48048532 -0.8263623 0.27533507
vn -0.72786784 0.02502951 0.6801288
vn -0.8561153 -0.51431215 0.03902906
vn -0.8458007 -0.26386562 0.4550705
vn -0.64004993 -0.74639755 -0.17927334
vn -0.40022174 -0.6143271 -0.6800181
vn -0.10814059 -0.89142376 -0.43338805
vn 0.9044359 -0.35419434 -0.23778653
vn 0.6568387 -0.40727246 -0.6275301
vn 0.85249496 0.22001866 -0.46995866
vn 0.59456015 0.79231215 -0.09372628
vn -0.3690769 -0.16503876 -0.8348807
vn -0.17883882 0.790666 -0.23769128
vn -0.10905805 0.8213351 0.3624426
vn 0.07495331 -0.9256454 -0.37089375
vn -0.0032159612 -0.9777893 -0.18955323
vn 0.6568387 -0.40727246 -0.6275301
vn 0.9044359 -0.35419434 -0.23778653
vn 0.12430579 0.5576347 -0.8207262
vn 0.22697602 -0.22552726 -0.9474276
vn 0.72936904 -0.17380366 -0.6616746
vn 0.73789674 0.49403918 -0.45981964
vn -0.0006682575 0.9780148 -0.20853469
vn -0.8442223 0.4713583 -0.2551668
vn 0.6443982 0.7212152 0.254165
vn 0.8050072 -0.47571537 -0.354483
vn 0.06770929 -0.7704842 -0.63385177
vn 0.24562804 -0.82309884 0.5120313
vn -0.27092433 -0.8586045 0.43492937
vn -0.6191896 -0.626512 -0.47314408
vn 0.22697602 -0.22552726 -0.9474276
vn 0.73820466 -0.670702 0.07219945
vn 0.82001305 -0.55410624 0.14333534
vn 0.72936904 -0.17380366 -0.6616746
vn 0.06770929 -0.7704842 -0.63385177
vn 0.8050072 -0.47571537 -0.354483
vn 0.84879196 -0.44264895 -0.28912538
vn -0.046699036 0.029842965 -0.99824876
vn -0.6191896 -0.626512 -0.47314408
vn 0.6251846 0.11111314 -0.7722297
vn -0.9466466 -0.16556993 -0.27636573
vn 0.41219592 0.7307276 -0.5427588
vn -0.5266035 0.7162677 -0.45640576
vn 0.40900704 -0.8727705 -0.10392302
vn 0.84879196 -0.44264895 -0.28912538
vn -0.4601808 -0.8333532 0.3054508
vn -0.80328834 -0.41305032 0.35871366
vn -0.99021757 0.09145447 0.10537116
vn -0.032342315 -0.69905895 0.5954155
vn 0.6733697 -0.5703983 0.31747675
vn 0.20368607 -0.5338166 -0.65435094
vn -0.36597246 -0.5549462 0.6955855
vn -0.7578826 -0.29904684 0.5618749
vn -0.68447584 -0.15544301 0.67319113
vn -0.4592844 -0.7003162 -0.3539579
vn -0.019969719 -0.6615071 0.648206
vn 0.8050072 -0.47571537 -0.354483
vn 0.24562804 -0.82309884 0.5120313
vn 0.84879196 -0.44264895 -0.28912538
vn -0.4601808 -0.8333532 0.3054508
vn -0.27092433 -0.8586045 0.43492937
vn -0.9466466 -0.16556993 -0.27636573
vn -0.99021757 0.09145447 0.10537116
vn -0.6191896 -0.626512 -0.47314408
vn -0.5291776 0.2729991 -0.7397965
vn 0.75805825 -0.15541717 -0.5611412
vn -0.26882198 -0.24920844 -0.7790154
vn 0.5590618 -0.42431098 -0.5891683
vn 0.07924949 0.016095549 -0.84458876
vn 0.000974943 0.8787004 -0.36086833
vn -0.57965505 -0.39055154 -0.49550575
vn -0.26882198 -0.24920844 -0.7790154
vn 0.07924949 0.016095549 -0.84458876
vn -0.76753664 0.1753003 -0.47054768
vn 0.041580502 0.38648546 0.85490286
vn -0.21730606 0.4918487 0.460886
vn 0.028459582 -0.03514886 0.94128925
vn -0.2559384 0.44954893 0.4959588
vn -0.5818407 0.3388564 0.41899827
vn -0.5308962 0.289657 0.4692319
vn -0.5844898 -0.04782723 0.5367433
vn -0.62427026 -0.18276268 0.48376918
vn -0.50133234 -0.21544811 0.64744973
vn -0.21410038 -0.067561924 0.75254536
vn 9.675756E-06 -0.93131405 0.15293652
vn 6.235242E-06 -0.8448332 0.41971725
vn -0.40022174 -0.6143271 -0.6800181
vn -0.64004993 -0.74639755 -0.17927334
vn -0.34348193 -0.81893295 -0.44311053
vn -0.3690769 -0.16503876 -0.8348807
vn 0.28090894 -0.53848237 -0.7872548
vn 0.6568387 -0.40727246 -0.6275301
vn -0.10814059 -0.89142376 -0.43338805
vn 0.6568387 -0.40727246 -0.6275301
vn -0.0032159612 -0.9777893 -0.18955323
vn -0.10814059 -0.89142376 -0.43338805
vn -0.6249222 -0.7534777 0.17668363
vn -0.48048532 -0.8263623 0.27533507
vn -0.8561153 -0.51431215 0.03902906
vn -0.89743835 -0.4110129 -0.16022904
vn 0.07495331 -0.9256454 -0.37089375
vn 0.5794081 0.79595643 0.17532712
vn 0.9044359 -0.35419434 -0.23778653
vn 0.85249496 0.22001866 -0.46995866
vn 0.59456015 0.79231215 -0.09372628
vn -0.60479045 -0.37642252 -0.5186067
vn -0.57965505 -0.39055154 -0.49550575
vn -0.76753664 0.1753003 -0.47054768
vn -0.89121866 -0.2737221 -0.21863203
vn -0.4592844 -0.7003162 -0.3539579
vn -0.8871295 -0.21028765 -0.32714373
vn 0.20368607 -0.5338166 -0.65435094
vn -0.27001563 0.4662426 -0.6710873
vn 0.46118242 -0.2773538 -0.7152776
vn 0.14176022 -0.16750567 -0.84085065
vn 1.8071007E-06 0.38325703 -0.87504524
vn -7.395337E-06 0.8415539 -0.4433152
vn 2.0869934E-06 0.39369673 -0.8682264
vn -0.70352954 -0.6910813 0.01597187
vn -0.5106064 -0.39153957 0.739327
vn -0.7287029 -0.15455419 0.64968294
vn -0.97537076 -0.085582465 0.19041075
vn -0.5970418 -0.77748203 -0.09958765
vn -0.9247109 -0.2133995 -0.3019781
vn -0.8490621 -0.24925238 0.46089154
vn -0.8339539 -0.31365985 0.43958777
vn -0.9166789 -0.39006877 -0.053241886
vn -0.7412631 -0.6095279 -0.27192017
vn -0.5725781 -0.8182325 0.05147469
vn -0.8623384 -0.42043555 0.2634242
vn -0.53364086 -0.81794125 -0.18031843
vn -0.48062414 -0.8386127 0.21145542
vn -0.36480802 -0.80413544 0.43748796
vn -0.36480802 -0.80413544 0.43748796
vn -0.9247109 -0.2133995 -0.3019781
vn -0.8339539 -0.31365985 0.43958777
vn -0.46574083 -0.7788574 -0.38115108
vn -4.0379533E-08 -0.9294653 0.31585628
vn -3.149273E-07 -0.86800116 -0.4503077
vn -3.0107398E-07 -0.9304824 -0.3267145
vn -0.48062414 -0.8386127 0.21145542
vn -0.53364086 -0.81794125 -0.18031843
vn -0.9247109 -0.2133995 -0.3019781
vn -0.46574083 -0.7788574 -0.38115108
vn -0.00027519665 0.2684355 -0.93184257
vn -0.35776445 0.5224597 -0.74189645
vn -0.5970418 -0.77748203 -0.09958765
vn -0.008577549 -0.51012343 -0.82235837
vn -0.50075614 -0.36784613 -0.7582862
vn -0.5818407 0.3388564 0.41899827
vn -0.89121866 -0.2737221 -0.21863203
vn -0.76753664 0.1753003 -0.47054768
vn -0.5844898 -0.04782723 0.5367433
vn -0.50133234 -0.21544811 0.64744973
vn -0.8871295 -0.21028765 -0.32714373
vn -0.70692 -0.4942645 0.29459903
vn -0.82126397 -0.03552267 -0.46981087
vn -0.21730606 0.4918487 0.460886
vn -0.5818407 0.3388564 0.41899827
vn -0.76753664 0.1753003 -0.47054768
vn -0.030990709 0.6226404 -0.46572942
vn 0.07924949 0.016095549 -0.84458876
vn 0.000974943 0.8787004 -0.36086833
vn 0.026898578 0.80564845 0.48552626
vn 0.028459582 -0.03514886 0.94128925
vn -0.50133234 -0.21544811 0.64744973
vn 9.675756E-06 -0.93131405 0.15293652
vn 1.3193414E-05 -0.8730656 -0.36993217
vn -0.70692 -0.4942645 0.29459903
vn -0.4462072 -0.73377955 0.044096023
vn -0.82126397 -0.03552267 -0.46981087
vn 1.4909745E-05 -0.6794147 -0.66061705
vn -0.45335174 -0.040700644 -0.74788475
vn 1.451923E-06 0.45738804 -0.83135664
vn -7.395337E-06 0.8415539 -0.4433152
vn -0.45335174 -0.040700644 -0.74788475
vn 1.451923E-06 0.45738804 -0.83135664
vn -0.27001563 0.4662426 -0.6710873
vn -0.82126397 -0.03552267 -0.46981087
vn -0.8871295 -0.21028765 -0.32714373
vn 0.72936904 -0.17380366 -0.6616746
vn 0.82001305 -0.55410624 0.14333534
vn 0.73789674 0.49403918 -0.45981964
vn 0.5800206 0.25655088 0.7731479
vn 0.6443982 0.7212152 0.254165
vn 0.73820466 -0.670702 0.07219945
vn 0.5794081 0.79595643 0.17532712
vn 0.5800206 0.25655088 0.7731479
vn 0.82001305 -0.55410624 0.14333534
vn 0.0028624032 -0.5602378 0.79197973
vn -0.7287029 -0.15455419 0.64968294
vn -0.5106064 -0.39153957 0.739327
vn 3.3436226E-07 -0.21906018 0.9573333
vn -0.37638903 -0.44111878 0.813584
vn 2.0402098E-07 -0.6286886 0.77247685
vn -0.8490621 -0.24925238 0.46089154
vn -1.338732E-07 -0.9882454 0.15287408
vn -0.5725781 -0.8182325 0.05147469
g 0.1333_0
f 3/3/3 2/2/2 1/1/1
f 6/6/6 5/5/5 4/4/4
f 9/9/9 8/8/8 7/7/7
f 12/12/12 11/11/11 10/10/10
f 15/15/15 14/14/14 13/13/13
f 18/18/18 17/17/17 16/16/16
f 21/21/21 20/20/20 19/19/19
f 24/24/24 23/23/23 22/22/22
f 27/27/27 26/26/26 25/25/25
f 30/30/30 29/29/29 28/28/28
f 33/33/33 32/32/32 31/31/31
f 36/36/36 35/35/35 34/34/34
f 39/39/39 38/38/38 37/37/37
f 38/38/38 40/40/40 37/37/37
f 38/38/38 41/41/41 40/40/40
f 37/37/37 40/40/40 41/41/41
f 41/41/41 42/42/42 37/37/37
f 42/42/42 43/43/43 37/37/37
f 37/37/37 43/43/43 44/44/44
f 47/47/47 46/46/46 45/45/45
f 48/48/48 45/45/45 46/46/46
f 45/45/45 48/48/48 49/49/49
f 49/49/49 48/48/48 50/50/50
f 49/49/49 51/51/51 45/45/45
f 52/52/52 45/45/45 51/51/51
f 53/53/53 48/48/48 46/46/46
f 53/53/53 54/54/54 48/48/48
f 54/54/54 55/55/55 48/48/48
f 56/56/56 54/54/54 53/53/53
f 57/57/57 56/56/56 53/53/53
f 53/53/53 46/46/46 57/57/57
f 58/58/58 57/57/57 46/46/46
f 58/58/58 46/46/46 59/59/59
f 58/58/58 60/60/60 57/57/57
f 51/51/51 61/61/61 52/52/52
f 61/61/61 62/62/62 52/52/52
f 62/62/62 63/63/63 52/52/52
f 61/61/61 64/64/64 62/62/62
f 61/61/61 51/51/51 64/64/64
f 65/65/65 64/64/64 51/51/51
f 51/51/51 66/66/66 65/65/65
f 63/63/63 62/62/62 67/67/67
f 67/67/67 68/68/68 63/63/63
f 67/67/67 69/69/69 68/68/68
f 68/68/68 70/70/70 63/63/63
f 70/70/70 71/71/71 63/63/63
f 74/74/74 73/73/73 72/72/72
f 73/73/73 74/74/74 75/75/75
f 73/73/73 75/75/75 76/76/76
f 75/75/75 77/77/77 76/76/76
f 76/76/76 78/78/78 73/73/73
f 76/76/76 79/79/79 78/78/78
f 79/79/79 80/80/80 78/78/78
f 83/83/83 82/82/82 81/81/81
f 83/83/83 81/81/81 84/84/84
f 85/85/85 83/83/83 84/84/84
f 83/83/83 85/85/85 86/86/86
f 83/83/83 86/86/86 87/87/87
f 85/85/85 88/88/88 86/86/86
f 87/87/87 86/86/86 89/89/89
f 89/89/89 86/86/86 88/88/88
f 87/87/87 89/89/89 90/90/90
f 89/89/89 88/88/88 90/90/90
f 90/90/90 88/88/88 91/91/91
f 91/91/91 92/92/92 90/90/90
f 92/92/92 93/93/93 90/90/90
f 93/93/93 92/92/92 94/94/94
f 93/93/93 94/94/94 95/95/95
f 92/92/92 96/96/96 94/94/94
f 99/99/99 98/98/98 97/97/97
f 97/97/97 100/100/100 99/99/99
f 99/99/99 100/100/100 101/101/101
f 100/100/100 97/97/97 102/102/102
f 97/97/97 103/103/103 102/102/102
f 104/104/104 103/103/103 97/97/97
f 104/104/104 105/105/105 103/103/103
f 108/108/108 107/107/107 106/106/106
f 108/108/108 106/106/106 109/109/109
f 110/110/110 108/108/108 109/109/109
f 108/108/108 110/110/110 111/111/111
f 111/111/111 110/110/110 112/112/112
f 112/112/112 110/110/110 113/113/113
f 112/112/112 113/113/113 114/114/114
f 114/114/114 115/115/115 112/112/112
f 112/112/112 116/116/116 111/111/111
f 112/112/112 115/115/115 116/116/116
f 117/117/117 111/111/111 116/116/116
f 117/117/117 116/116/116 115/115/115
f 118/118/118 117/117/117 115/115/115
f 121/121/121 120/120/120 119/119/119
f 121/121/121 119/119/119 122/122/122
f 122/122/122 123/123/123 121/121/121
f 124/124/124 121/121/121 123/123/123
f 125/125/125 124/124/124 123/123/123
f 126/126/126 125/125/125 123/123/123
f 129/129/129 128/128/128 127/127/127
f 130/130/130 128/128/128 129/129/129
f 133/133/133 132/132/132 131/131/131
f 131/131/131 134/134/134 133/133/133
f 133/133/133 134/134/134 135/135/135
f 135/135/135 134/134/134 136/136/136
f 134/134/134 137/137/137 136/136/136
f 137/137/137 134/134/134 131/131/131
f 138/138/138 137/137/137 131/131/131
f 141/141/141 140/140/140 139/139/139
f 141/141/141 139/139/139 142/142/142
f 143/143/143 141/141/141 142/142/142
f 146/146/146 145/145/145 144/144/144
f 144/144/144 147/147/147 146/146/146
f 148/148/148 147/147/147 144/144/144
f 148/148/148 144/144/144 149/149/149
f 150/150/150 149/149/149 144/144/144
f 150/150/150 151/151/151 149/149/149
f 149/149/149 152/152/152 148/148/148
f 149/149/149 151/151/151 153/153/153
f 153/153/153 152/152/152 149/149/149
f 154/154/154 152/152/152 153/153/153
f 154/154/154 153/153/153 155/155/155
f 156/156/156 155/155/155 153/153/153
f 155/155/155 157/157/157 154/154/154
f 157/157/157 155/155/155 156/156/156
f 158/158/158 157/157/157 156/156/156
f 161/161/161 160/160/160 159/159/159
f 161/161/161 159/159/159 162/162/162
f 163/163/163 161/161/161 162/162/162
f 163/163/163 164/164/164 161/161/161
f 164/164/164 165/165/165 161/161/161
f 165/165/165 166/166/166 161/161/161
f 169/169/169 168/168/168 167/167/167
f 170/170/170 167/167/167 168/168/168
f 171/171/171 170/170/170 168/168/168
f 171/171/171 168/168/168 172/172/172
f 170/170/170 171/171/171 173/173/173
f 174/174/174 170/170/170 173/173/173
f 171/171/171 175/175/175 173/173/173
f 174/174/174 173/173/173 176/176/176
f 175/175/175 176/176/176 173/173/173
f 177/177/177 174/174/174 176/176/176
f 175/175/175 178/178/178 176/176/176
f 177/177/177 176/176/176 178/178/178
f 179/179/179 177/177/177 178/178/178
f 178/178/178 180/180/180 179/179/179
f 179/179/179 180/180/180 181/181/181
f 179/179/179 181/181/181 182/182/182
f 179/179/179 182/182/182 183/183/183
f 186/186/186 185/185/185 184/184/184
f 187/187/187 185/185/185 186/186/186
f 186/186/186 188/188/188 187/187/187
f 189/189/189 187/187/187 188/188/188
f 190/190/190 187/187/187 189/189/189
f 193/193/193 192/192/192 191/191/191
f 191/191/191 192/192/192 194/194/194
f 197/197/197 196/196/196 195/195/195
f 196/196/196 198/198/198 195/195/195
f 195/195/195 198/198/198 199/199/199
f 200/200/200 195/195/195 199/199/199
f 198/198/198 201/201/201 199/199/199
f 204/204/204 203/203/203 202/202/202
f 203/203/203 204/204/204 205/205/205
f 206/206/206 205/205/205 204/204/204
f 209/209/209 208/208/208 207/207/207
f 210/210/210 209/209/209 207/207/207
f 213/213/213 212/212/212 211/211/211
f 212/212/212 214/214/214 211/211/211
f 211/211/211 214/214/214 215/215/215
f 216/216/216 214/214/214 212/212/212
f 215/215/215 214/214/214 217/217/217
f 214/214/214 216/216/216 218/218/218
f 219/219/219 217/217/217 214/214/214
f 214/214/214 218/218/218 219/219/219
f 222/222/222 221/221/221 220/220/220
f 221/221/221 223/223/223 220/220/220
f 223/223/223 221/221/221 224/224/224
f 225/225/225 220/220/220 223/223/223
f 226/226/226 220/220/220 225/225/225
f 226/226/226 225/225/225 227/227/227
f 225/225/225 223/223/223 228/228/228
f 228/228/228 223/223/223 229/229/229
f 228/228/228 229/229/229 230/230/230
f 231/231/231 228/228/228 230/230/230
f 225/225/225 232/232/232 227/227/227
f 232/232/232 225/225/225 228/228/228
f 232/232/232 228/228/228 231/231/231
f 231/231/231 227/227/227 232/232/232
f 235/235/235 234/234/234 233/233/233
f 236/236/236 234/234/234 235/235/235
f 237/237/237 236/236/236 235/235/235
f 237/237/237 238/238/238 236/236/236
f 236/236/236 238/238/238 239/239/239
f 238/238/238 237/237/237 240/240/240
f 243/243/243 242/242/242 241/241/241
f 243/243/243 244/244/244 242/242/242
f 244/244/244 245/245/245 242/242/242
f 245/245/245 244/244/244 246/246/246
f 249/249/249 248/248/248 247/247/247
f 250/250/250 249/249/249 247/247/247
f 253/253/253 252/252/252 251/251/251
f 254/254/254 253/253/253 251/251/251
f 255/255/255 253/253/253 254/254/254
f 256/256/256 255/255/255 254/254/254
f 257/257/257 255/255/255 256/256/256
f 258/258/258 257/257/257 256/256/256
f 259/259/259 257/257/257 258/258/258
f 260/260/260 259/259/259 258/258/258
f 261/261/261 259/259/259 260/260/260
f 262/262/262 261/261/261 260/260/260
f 265/265/265 264/264/264 263/263/263
f 266/266/266 263/263/263 264/264/264
f 267/267/267 263/263/263 266/266/266
f 267/267/267 266/266/266 268/268/268
f 267/267/267 269/269/269 263/263/263
f 269/269/269 267/267/267 268/268/268
f 272/272/272 271/271/271 270/270/270
f 272/272/272 273/273/273 271/271/271
f 274/274/274 271/271/271 273/273/273
f 274/274/274 275/275/275 271/271/271
f 276/276/276 273/273/273 272/272/272
f 277/277/277 276/276/276 272/272/272
f 280/280/280 279/279/279 278/278/278
f 281/281/281 278/278/278 279/279/279
f 284/284/284 283/283/283 282/282/282
f 283/283/283 285/285/285 282/282/282
f 282/282/282 285/285/285 286/286/286
f 285/285/285 287/287/287 286/286/286
f 286/286/286 287/287/287 288/288/288
f 287/287/287 289/289/289 288/288/288
f 289/289/289 290/290/290 288/288/288
f 290/290/290 289/289/289 291/291/291
f 292/292/292 291/291/291 289/289/289
f 293/293/293 292/292/292 289/289/289
f 292/292/292 294/294/294 291/291/291
f 297/297/297 296/296/296 295/295/295
f 295/295/295 296/296/296 298/298/298
f 295/295/295 298/298/298 299/299/299
f 299/299/299 298/298/298 300/300/300
f 296/296/296 301/301/301 298/298/298
f 298/298/298 302/302/302 300/300/300
f 303/303/303 298/298/298 301/301/301
f 301/301/301 304/304/304 303/303/303
f 305/305/305 304/304/304 301/301/301
f 306/306/306 298/298/298 303/303/303
f 302/302/302 298/298/298 306/306/306
f 303/303/303 307/307/307 306/306/306
f 307/307/307 308/308/308 306/306/306
f 306/306/306 308/308/308 302/302/302
f 308/308/308 309/309/309 302/302/302
f 312/312/312 311/311/311 310/310/310
f 313/313/313 312/312/312 310/310/310
f 310/310/310 314/314/314 313/313/313
f 314/314/314 315/315/315 313/313/313
f 316/316/316 314/314/314 310/310/310
f 317/317/317 316/316/316 310/310/310
f 318/318/318 316/316/316 317/317/317
f 321/321/321 320/320/320 319/319/319
f 320/320/320 322/322/322 319/319/319
f 319/319/319 322/322/322 323/323/323
f 322/322/322 320/320/320 324/324/324
f 323/323/323 322/322/322 325/325/325
f 325/325/325 322/322/322 324/324/324
f 328/328/328 327/327/327 326/326/326
f 326/326/326 329/329/329 328/328/328
f 329/329/329 330/330/330 328/328/328
f 331/331/331 328/328/328 330/330/330
f 330/330/330 332/332/332 331/331/331
f 332/332/332 333/333/333 331/331/331
f 336/336/336 335/335/335 334/334/334
f 335/335/335 337/337/337 334/334/334
f 335/335/335 338/338/338 337/337/337
f 339/339/339 337/337/337 338/338/338
f 339/339/339 340/340/340 337/337/337
f 334/334/334 337/337/337 340/340/340
f 340/340/340 341/341/341 334/334/334
f 344/344/344 343/343/343 342/342/342
f 343/343/343 345/345/345 342/342/342
f 346/346/346 345/345/345 343/343/343
f 346/346/346 347/347/347 345/345/345
f 346/346/346 343/343/343 348/348/348
f 347/347/347 346/346/346 349/349/349
f 348/348/348 349/349/349 346/346/346
f 349/349/349 348/348/348 350/350/350
f 353/353/353 352/352/352 351/351/351
f 354/354/354 353/353/353 351/351/351
f 355/355/355 353/353/353 354/354/354
f 356/356/356 355/355/355 354/354/354
f 359/359/359 358/358/358 357/357/357
f 359/359/359 360/360/360 358/358/358
f 361/361/361 358/358/358 360/360/360
f 364/364/364 363/363/363 362/362/362
f 365/365/365 364/364/364 362/362/362
f 368/368/368 367/367/367 366/366/366
f 369/369/369 368/368/368 366/366/366
f 370/370/370 368/368/368 369/369/369
f 371/371/371 370/370/370 369/369/369
f 370/370/370 372/372/372 368/368/368
f 371/371/371 373/373/373 370/370/370
f 374/374/374 372/372/372 370/370/370
f 373/373/373 374/374/374 370/370/370
f 377/377/377 376/376/376 375/375/375
f 378/378/378 377/377/377 375/375/375
f 379/379/379 377/377/377 378/378/378
f 378/378/378 375/375/375 379/379/379
f 380/380/380 379/379/379 375/375/375
f 381/381/381 380/380/380 375/375/375
f 381/381/381 375/375/375 382/382/382
f 385/385/385 384/384/384 383/383/383
f 383/383/383 386/386/386 385/385/385
f 386/386/386 383/383/383 387/387/387
f 386/386/386 387/387/387 388/388/388
f 389/389/389 387/387/387 383/383/383
f 383/383/383 390/390/390 389/389/389
f 386/386/386 391/391/391 385/385/385
f 392/392/392 391/391/391 386/386/386
f 393/393/393 392/392/392 386/386/386
f 392/392/392 394/394/394 391/391/391
f 394/394/394 395/395/395 391/391/391
f 385/385/385 391/391/391 395/395/395
f 395/395/395 396/396/396 385/385/385
f 385/385/385 396/396/396 397/397/397
f 398/398/398 396/396/396 395/395/395
f 399/399/399 389/389/389 390/390/390
f 400/400/400 399/399/399 390/390/390
f 401/401/401 400/400/400 390/390/390
f 402/402/402 399/399/399 400/400/400
f 389/389/389 399/399/399 402/402/402
f 402/402/402 403/403/403 389/389/389
f 404/404/404 389/389/389 403/403/403
f 400/400/400 401/401/401 405/405/405
f 406/406/406 405/405/405 401/401/401
f 407/407/407 405/405/405 406/406/406
f 408/408/408 406/406/406 401/401/401
f 409/409/409 408/408/408 401/401/401
f 412/412/412 411/411/411 410/410/410
f 411/411/411 412/412/412 413/413/413
f 413/413/413 412/412/412 414/414/414
f 415/415/415 413/413/413 414/414/414
f 416/416/416 414/414/414 412/412/412
f 417/417/417 414/414/414 416/416/416
f 418/418/418 417/417/417 416/416/416
f 421/421/421 420/420/420 419/419/419
f 419/419/419 420/420/420 422/422/422
f 420/420/420 423/423/423 422/422/422
f 423/423/423 420/420/420 424/424/424
f 424/424/424 420/420/420 425/425/425
f 426/426/426 423/423/423 424/424/424
f 424/424/424 425/425/425 427/427/427
f 424/424/424 427/427/427 426/426/426
f 427/427/427 425/425/425 428/428/428
f 426/426/426 427/427/427 428/428/428
f 426/426/426 428/428/428 429/429/429
f 430/430/430 429/429/429 428/428/428
f 431/431/431 430/430/430 428/428/428
f 430/430/430 431/431/431 432/432/432
f 432/432/432 431/431/431 433/433/433
f 434/434/434 430/430/430 432/432/432
f 437/437/437 436/436/436 435/435/435
f 438/438/438 435/435/435 436/436/436
f 438/438/438 436/436/436 439/439/439
f 435/435/435 438/438/438 440/440/440
f 441/441/441 435/435/435 440/440/440
f 441/441/441 442/442/442 435/435/435
f 443/443/443 442/442/442 441/441/441
f 446/446/446 445/445/445 444/444/444
f 444/444/444 445/445/445 447/447/447
f 445/445/445 448/448/448 447/447/447
f 448/448/448 445/445/445 449/449/449
f 448/448/448 449/449/449 450/450/450
f 448/448/448 450/450/450 451/451/451
f 451/451/451 450/450/450 452/452/452
f 453/453/453 452/452/452 450/450/450
f 454/454/454 450/450/450 449/449/449
f 453/453/453 450/450/450 454/454/454
f 449/449/449 455/455/455 454/454/454
f 454/454/454 455/455/455 453/453/453
f 455/455/455 456/456/456 453/453/453
f 459/459/459 458/458/458 457/457/457
f 457/457/457 458/458/458 460/460/460
f 461/461/461 460/460/460 458/458/458
f 458/458/458 462/462/462 461/461/461
f 462/462/462 463/463/463 461/461/461
f 463/463/463 464/464/464 461/461/461
f 467/467/467 466/466/466 465/465/465
f 467/467/467 468/468/468 466/466/466
f 471/471/471 470/470/470 469/469/469
f 472/472/472 469/469/469 470/470/470
f 472/472/472 470/470/470 473/473/473
f 472/472/472 473/473/473 474/474/474
f 475/475/475 472/472/472 474/474/474
f 472/472/472 475/475/475 469/469/469
f 475/475/475 476/476/476 469/469/469
f 479/479/479 478/478/478 477/477/477
f 477/477/477 478/478/478 480/480/480
f 478/478/478 481/481/481 480/480/480
f 484/484/484 483/483/483 482/482/482
f 485/485/485 482/482/482 483/483/483
f 485/485/485 486/486/486 482/482/482
f 482/482/482 486/486/486 487/487/487
f 487/487/487 488/488/488 482/482/482
f 489/489/489 488/488/488 487/487/487
f 490/490/490 487/487/487 486/486/486
f 489/489/489 487/487/487 491/491/491
f 490/490/490 491/491/491 487/487/487
f 490/490/490 492/492/492 491/491/491
f 491/491/491 492/492/492 493/493/493
f 493/493/493 494/494/494 491/491/491
f 495/495/495 493/493/493 492/492/492
f 493/493/493 495/495/495 494/494/494
f 495/495/495 496/496/496 494/494/494
f 499/499/499 498/498/498 497/497/497
f 497/497/497 498/498/498 500/500/500
f 498/498/498 501/501/501 500/500/500
f 502/502/502 501/501/501 498/498/498
f 503/503/503 502/502/502 498/498/498
f 504/504/504 503/503/503 498/498/498
f 507/507/507 506/506/506 505/505/505
f 505/505/505 508/508/508 507/507/507
f 508/508/508 509/509/509 507/507/507
f 507/507/507 509/509/509 510/510/510
f 509/509/509 508/508/508 511/511/511
f 508/508/508 512/512/512 511/511/511
f 513/513/513 509/509/509 511/511/511
f 511/511/511 512/512/512 514/514/514
f 514/514/514 513/513/513 511/511/511
f 512/512/512 515/515/515 514/514/514
f 516/516/516 513/513/513 514/514/514
f 514/514/514 515/515/515 516/516/516
f 515/515/515 517/517/517 516/516/516
f 518/518/518 516/516/516 517/517/517
f 518/518/518 517/517/517 519/519/519
f 519/519/519 517/517/517 520/520/520
f 520/520/520 517/517/517 521/521/521
f 524/524/524 523/523/523 522/522/522
f 524/524/524 525/525/525 523/523/523
f 526/526/526 523/523/523 525/525/525
f 525/525/525 527/527/527 526/526/526
f 525/525/525 528/528/528 527/527/527
f 531/531/531 530/530/530 529/529/529
f 531/531/531 529/529/529 532/532/532
f 535/535/535 534/534/534 533/533/533
f 536/536/536 535/535/535 533/533/533
f 536/536/536 533/533/533 537/537/537
f 533/533/533 538/538/538 537/537/537
f 539/539/539 536/536/536 537/537/537
f 542/542/542 541/541/541 540/540/540
f 541/541/541 542/542/542 543/543/543
f 543/543/543 544/544/544 541/541/541
f 547/547/547 546/546/546 545/545/545
f 548/548/548 547/547/547 545/545/545
f 551/551/551 550/550/550 549/549/549
f 552/552/552 551/551/551 549/549/549
f 552/552/552 549/549/549 553/553/553
f 552/552/552 554/554/554 551/551/551
f 552/552/552 553/553/553 555/555/555
f 554/554/554 552/552/552 556/556/556
f 555/555/555 557/557/557 552/552/552
f 556/556/556 552/552/552 557/557/557
f 560/560/560 559/559/559 558/558/558
f 561/561/561 560/560/560 558/558/558
f 560/560/560 561/561/561 562/562/562
f 558/558/558 563/563/563 561/561/561
f 558/558/558 564/564/564 563/563/563
f 563/563/563 564/564/564 565/565/565
f 561/561/561 563/563/563 566/566/566
f 561/561/561 566/566/566 567/567/567
f 567/567/567 566/566/566 568/568/568
f 566/566/566 569/569/569 568/568/568
f 570/570/570 563/563/563 565/565/565
f 565/565/565 569/569/569 570/570/570
f 566/566/566 570/570/570 569/569/569
f 563/563/563 570/570/570 566/566/566
f 573/573/573 572/572/572 571/571/571
f 573/573/573 574/574/574 572/572/572
f 574/574/574 575/575/575 572/572/572
f 576/576/576 575/575/575 574/574/574
f 576/576/576 574/574/574 577/577/577
f 575/575/575 576/576/576 578/578/578
f 581/581/581 580/580/580 579/579/579
f 582/582/582 580/580/580 581/581/581
f 583/583/583 582/582/582 581/581/581
f 582/582/582 583/583/583 584/584/584
f 587/587/587 586/586/586 585/585/585
f 588/588/588 587/587/587 585/585/585
f 591/591/591 590/590/590 589/589/589
f 590/590/590 592/592/592 589/589/589
f 590/590/590 593/593/593 592/592/592
f 593/593/593 594/594/594 592/592/592
f 593/593/593 595/595/595 594/594/594
f 595/595/595 596/596/596 594/594/594
f 595/595/595 597/597/597 596/596/596
f 597/597/597 598/598/598 596/596/596
f 597/597/597 599/599/599 598/598/598
f 599/599/599 600/600/600 598/598/598
f 603/603/603 602/602/602 601/601/601
f 601/601/601 604/604/604 603/603/603
f 601/601/601 605/605/605 604/604/604
f 604/604/604 605/605/605 606/606/606
f 607/607/607 605/605/605 601/601/601
f 605/605/605 607/607/607 606/606/606
f 610/610/610 609/609/609 608/608/608
f 611/611/611 609/609/609 610/610/610
f 610/610/610 612/612/612 611/611/611
f 613/613/613 612/612/612 610/610/610
f 611/611/611 614/614/614 609/609/609
f 614/614/614 615/615/615 609/609/609
f 618/618/618 617/617/617 616/616/616
f 616/616/616 619/619/619 618/618/618
f 622/622/622 621/621/621 620/620/620
f 623/623/623 622/622/622 620/620/620
f 623/623/623 620/620/620 624/624/624
f 625/625/625 623/623/623 624/624/624
f 625/625/625 624/624/624 626/626/626
f 627/627/627 625/625/625 626/626/626
f 628/628/628 627/627/627 626/626/626
f 627/627/627 628/628/628 629/629/629
f 629/629/629 630/630/630 627/627/627
f 630/630/630 631/631/631 627/627/627
f 632/632/632 630/630/630 629/629/629
f 635/635/635 634/634/634 633/633/633
f 635/635/635 633/633/633 636/636/636
f 636/636/636 633/633/633 637/637/637
f 636/636/636 637/637/637 638/638/638
f 639/639/639 635/635/635 636/636/636
f 640/640/640 636/636/636 638/638/638
f 636/636/636 641/641/641 639/639/639
f 642/642/642 639/639/639 641/641/641
f 642/642/642 643/643/643 639/639/639
f 636/636/636 644/644/644 641/641/641
f 636/636/636 640/640/640 644/644/644
f 645/645/645 641/641/641 644/644/644
f 646/646/646 645/645/645 644/644/644
f 646/646/646 644/644/644 640/640/640
f 647/647/647 646/646/646 640/640/640
f 650/650/650 649/649/649 648/648/648
f 649/649/649 651/651/651 648/648/648
f 652/652/652 648/648/648 651/651/651
f 653/653/653 652/652/652 651/651/651
f 652/652/652 654/654/654 648/648/648
f 654/654/654 655/655/655 648/648/648
f 654/654/654 656/656/656 655/655/655
f 659/659/659 658/658/658 657/657/657
f 660/660/660 659/659/659 657/657/657
f 660/660/660 657/657/657 661/661/661
f 659/659/659 660/660/660 662/662/662
f 660/660/660 661/661/661 663/663/663
f 660/660/660 663/663/663 662/662/662
f 666/666/666 665/665/665 664/664/664
f 667/667/667 664/664/664 665/665/665
f 668/668/668 667/667/667 665/665/665
f 665/665/665 669/669/669 668/668/668
f 670/670/670 668/668/668 669/669/669
f 671/671/671 670/670/670 669/669/669
f 674/674/674 673/673/673 672/672/672
f 675/675/675 674/674/674 672/672/672
f 676/676/676 674/674/674 675/675/675
f 675/675/675 677/677/677 676/676/676
f 678/678/678 677/677/677 675/675/675
f 675/675/675 672/672/672 678/678/678
f 679/679/679 678/678/678 672/672/672
f 682/682/682 681/681/681 680/680/680
f 683/683/683 682/682/682 680/680/680
f 683/683/683 684/684/684 682/682/682
f 685/685/685 684/684/684 683/683/683
f 682/682/682 684/684/684 686/686/686
f 684/684/684 685/685/685 687/687/687
f 687/687/687 686/686/686 684/684/684
f 686/686/686 687/687/687 688/688/688
f 691/691/691 690/690/690 689/689/689
f 690/690/690 692/692/692 689/689/689
f 690/690/690 693/693/693 692/692/692
f 693/693/693 694/694/694 692/692/692
f 697/697/697 696/696/696 695/695/695
f 698/698/698 696/696/696 697/697/697
f 697/697/697 699/699/699 698/698/698
f 702/702/702 701/701/701 700/700/700
f 703/703/703 702/702/702 700/700/700
f 706/706/706 705/705/705 704/704/704
f 705/705/705 707/707/707 704/704/704
f 705/705/705 708/708/708 707/707/707
f 708/708/708 709/709/709 707/707/707
f 710/710/710 708/708/708 705/705/705
f 711/711/711 709/709/709 708/708/708
f 710/710/710 712/712/712 708/708/708
f 712/712/712 711/711/711 708/708/708
