g 0.2000
v 1.2991185 -1.1420047 3.8182049
v 1.7981215 -0.8170023 3.629404
v 1.3278573 -0.31291032 3.6697829
v 1.4790611 0.20432043 4.467088
v 1.1027927 0.5382025 4.4045887
v 1.4101505 0.32682228 4.0200367
v 1.0431032 -0.41120148 3.2331166
v 0.61421204 -0.82329035 3.1753514
v 0.996664 -0.763643 3.2729084
v 0.2861774 -1.7961967 5.0637016
v 0.68645304 -1.7754565 4.864204
v 0.5528868 -2.0910597 4.9739413
v 0.43119442 -2.1348443 4.1926527
v 0.1950934 -2.1457205 4.054149
v 0.20174164 -2.2998865 4.1267066
v 1.8286948 -0.031639576 3.1246817
v 1.6839437 -0.34113455 3.32353
v 2.0820825 -0.26439834 3.262621
v 0.7198934 -1.6370099 -0.24767745
v 1.023467 -1.5974694 -0.12772635
v 1.2242262 -1.5009844 -0.30924803
v 1.0553416 -0.7058075 0.28904462
v 0.83682746 -1.0332874 0.30935377
v 1.3257895 -1.0278286 1.6207695
v 1.2422736 -0.21208274 2.3145568
v 0.86670786 -0.3770669 2.3876824
v 1.3286424 0.35673118 2.3143468
v 2.2311814 -0.8221035 4.6351595
v 2.0122113 -0.41607332 4.9378157
v 2.012813 0.19130898 4.599003
v 2.318652 0.24787664 2.3518167
v 1.8286948 -0.031639576 3.1246817
v 2.4602988 0.02423811 2.3455796
v 1.1875995 -0.533659 5.082157
v 0.31724936 -1.3384452 5.2929726
v 0.35571522 -0.64459276 5.507189
v 0.2057853 -0.4803769 1.7725813
v -0.018560052 0.19115555 1.7059596
v -0.009884879 -0.55481136 1.797126
v -0.95171934 -1.1776595 4.3007865
v -0.9868505 -0.7849723 3.8035934
v -1.4719014 -1.0161409 4.10797
v -0.9493396 0.15796965 4.282642
v -0.96271765 -0.09073061 3.8783612
v -0.594094 0.32925022 4.4286637
v -0.79855675 -0.9306158 3.3418887
v -0.74767685 -1.1579909 3.4489713
v -0.3879241 -1.1454711 3.2013617
v 0.2861774 -1.7961967 5.0637016
v 0.008024648 -2.09137 5.0232077
v -0.14480795 -1.7508467 4.964505
v -0.01234737 -2.135097 4.2327576
v 0.20174164 -2.2998865 4.1267066
v 0.1950934 -2.1457205 4.054149
v -1.5597887 -0.90138507 3.29093
v -1.8019011 -0.8604859 3.4883828
v -1.4057612 -0.92058885 3.5587573
v -1.0684257 2.5229092 0.21747428
v -1.5624444 2.4879684 0.3938396
v -1.3577228 2.3515387 0.2546391
v -1.2572997 1.7593102 1.3035631
v -1.4099243 0.45873237 1.2647928
v -1.0678122 1.6523178 0.95936006
v -1.2075065 -0.4390937 1.8857598
v -1.2305838 -0.3638358 2.5071607
v -0.82681674 -0.59002674 1.867299
v -1.693554 -0.2704448 4.8497834
v -1.4487631 0.38962042 4.033328
v -1.4066212 0.15069959 4.8186526
v -2.1257398 -1.4906309 2.7994015
v -2.2884212 -1.5318899 3.0042174
v -1.5597887 -0.90138507 3.29093
v -0.59211487 -0.3142352 5.1550384
v 0.35571522 -0.64459276 5.507189
v 0.31724936 -1.3384452 5.2929726
v -0.2480576 -0.28814524 1.5749648
v -0.009884879 -0.55481136 1.797126
v -0.018560052 0.19115555 1.7059596
v 2.176279 0.28609014 1.7962737
v 2.5840402 0.36008263 1.6934515
v 2.1935966 0.4791131 1.770951
v 2.3193321 0.6898837 1.5955936
v 2.4428067 1.004193 1.6609763
v 2.6817033 0.90455294 1.5475663
v 2.1846905 0.33262348 2.0271993
v 2.1935966 0.4791131 1.770951
v 2.3193321 0.6898837 1.5955936
v 2.1552162 0.39088368 1.8216591
v 2.176279 0.28609014 1.7962737
v 2.4602988 0.02423811 2.3455796
v 2.318652 0.24787664 2.3518167
v 2.4469986 0.6570091 2.5711374
v 1.2991185 -1.1420047 3.8182049
v 1.3278573 -0.31291032 3.6697829
v 0.996664 -0.763643 3.2729084
v 1.0431032 -0.41120148 3.2331166
v 1.2443291 0.10517061 3.1438239
v 0.79800713 -0.53816485 2.3771734
v 1.3286424 0.35673118 2.3143468
v 0.86670786 -0.3770669 2.3876824
v 1.4101505 0.32682228 4.0200367
v 1.2551785 0.6096511 3.7245116
v 1.1027927 0.5382025 4.4045887
v 1.1266451 0.9628205 1.7627945
v 1.3117368 -0.20359147 1.6332784
v 0.9791076 -0.1729021 1.2656145
v 1.2603345 -0.51188946 1.0977966
v 1.3315357 -0.35160673 1.9099069
v 1.274318 -0.46678674 2.087378
v 1.2422736 -0.21208274 2.3145568
v 1.3257895 -1.0278286 1.6207695
v 1.0553416 -0.7058075 0.28904462
v 0.88658404 -0.3536582 0.513847
v 0.89151645 -0.17890173 -0.21450354
v 1.4136904 -1.235757 -0.30282578
v 0.70328045 -1.1061826 0.57653064
v 1.3257895 -1.0278286 1.6207695
v 0.83682746 -1.0332874 0.30935377
v 0.26890355 -1.3315058 -0.14049955
v 0.64532626 -1.6064208 -0.10640047
v 0.31812954 -1.541249 -0.20002487
v 0.7198934 -1.6370099 -0.24767745
v 1.023467 -1.5974694 -0.12772635
v 1.4136904 -1.235757 -0.30282578
v 1.0553416 -0.7058075 0.28904462
v 1.2242262 -1.5009844 -0.30924803
v 0.41856325 -0.77616924 -0.2385483
v 0.5499652 -0.13767052 -0.22663733
v 0.4565816 -0.46310377 0.39759904
v 0.26890355 -1.3315058 -0.14049955
v 0.70328045 -1.1061826 0.57653064
v 0.1890207 -0.8562619 1.0381678
v 0.6065694 -0.38484895 1.079063
v 0.41602477 -1.0381132 1.6084232
v 0.23552927 -0.62656116 1.3215305
v 0.21265055 -0.17445338 1.4680973
v 0.2057853 -0.4803769 1.7725813
v -0.018560052 0.19115555 1.7059596
v -0.014737189 0.91593874 1.7507141
v 0.9791076 -0.1729021 1.2656145
v 0.21265055 -0.17445338 1.4680973
v 0.6065694 -0.38484895 1.079063
v 1.2603345 -0.51188946 1.0977966
v 0.88658404 -0.3536582 0.513847
v 0.4565816 -0.46310377 0.39759904
v 0.5499652 -0.13767052 -0.22663733
v 0.89151645 -0.17890173 -0.21450354
v 2.4759557 -0.06696367 4.32071
v 2.2311814 -0.8221035 4.6351595
v 2.012813 0.19130898 4.599003
v 2.803193 0.45481324 3.91753
v 2.4576857 0.74971676 3.5312142
v 2.8531127 0.6372198 2.6700277
v 1.9891922 0.6860268 3.6551802
v 1.4790611 0.20432043 4.467088
v 2.0122113 -0.41607332 4.9378157
v 1.1875995 -0.533659 5.082157
v 1.1027927 0.5382025 4.4045887
v 1.8024414 -0.78597903 5.000703
v 2.2311814 -0.8221035 4.6351595
v 1.2785294 -1.1856937 4.8202505
v 0.31724936 -1.3384452 5.2929726
v 0.7930765 -1.4154704 5.07037
v 0.66946995 -0.020494223 5.072646
v 0.34570545 -0.1914587 5.278852
v 0.35571522 -0.64459276 5.507189
v 0.3287519 0.20752168 4.976812
v 0.22001201 0.93067896 3.9570513
v 0.94095826 0.8389079 3.710965
v 1.2551785 0.6096511 3.7245116
v 0.14001362 1.0162072 3.27123
v 1.1266451 0.9628205 1.7627945
v 0.07349411 1.2765319 2.6009185
v 0.47626665 1.2011769 1.7600495
v -0.014737189 0.91593874 1.7507141
v 1.8286948 -0.031639576 3.1246817
v 1.3278573 -0.31291032 3.6697829
v 1.6839437 -0.34113455 3.32353
v 1.9891922 0.6860268 3.6551802
v 1.4101505 0.32682228 4.0200367
v 1.4790611 0.20432043 4.467088
v 1.8993016 0.46711397 2.9855015
v 2.318652 0.24787664 2.3518167
v 2.5840402 0.36008263 1.6934515
v 2.8072941 0.9431064 1.8528893
v 2.6817033 0.90455294 1.5475663
v 2.9492648 0.055294514 2.3981872
v 2.8531127 0.6372198 2.6700277
v 2.714549 1.1151016 2.0792494
v 2.5641918 1.1905812 1.8956547
v 2.9697952 0.1962781 3.4182558
v 2.7028599 -0.31260133 3.3901417
v 2.803193 0.45481324 3.91753
v 2.7817543 0.13166976 3.7811394
v 2.5908883 -0.34408045 3.5407286
v 2.4759557 -0.06696367 4.32071
v 2.2631016 -0.43815804 4.025942
v 2.2311814 -0.8221035 4.6351595
v 1.9193966 -1.2116518 4.0147953
v 1.7981215 -0.8170023 3.629404
v 2.0820825 -0.26439834 3.262621
v 2.714549 1.1151016 2.0792494
v 2.8531127 0.6372198 2.6700277
v 2.4469986 0.6570091 2.5711374
v 2.5641918 1.1905812 1.8956547
v 2.189393 1.0443113 2.187708
v 2.1749935 0.80108476 2.4464967
v 2.4428067 1.004193 1.6609763
v 1.988415 0.73524046 1.801346
v 2.3193321 0.6898837 1.5955936
v 2.0907953 0.9958526 1.8555584
v 2.5641918 1.1905812 1.8956547
v 2.189393 1.0443113 2.187708
v 2.8072941 0.9431064 1.8528893
v 2.6817033 0.90455294 1.5475663
v 2.3193321 0.6898837 1.5955936
v 1.988415 0.73524046 1.801346
v 1.876776 0.4390154 2.159215
v 2.1846905 0.33262348 2.0271993
v 1.3278573 -0.31291032 3.6697829
v 1.7981215 -0.8170023 3.629404
v 1.6839437 -0.34113455 3.32353
v 2.0820825 -0.26439834 3.262621
v 0.7198934 -1.6370099 -0.24767745
v 0.26890355 -1.3315058 -0.14049955
v 0.31812954 -1.541249 -0.20002487
v 1.005021 -0.9699577 -0.30126
v 1.2242262 -1.5009844 -0.30924803
v 0.41856325 -0.77616924 -0.2385483
v 1.4136904 -1.235757 -0.30282578
v 0.5499652 -0.13767052 -0.22663733
v 0.89151645 -0.17890173 -0.21450354
v 1.0431032 -0.41120148 3.2331166
v 0.79800713 -0.53816485 2.3771734
v 0.61421204 -0.82329035 3.1753514
v 0.10559937 -0.86747336 3.176726
v 0.12533198 -1.0504318 3.2894688
v 0.7304669 -1.185101 3.3814578
v 0.996664 -0.763643 3.2729084
v 1.2991185 -1.1420047 3.8182049
v 0.52442956 -1.2335861 3.765788
v 0.4565558 -1.3089042 3.9006534
v 0.16648683 -1.33617 3.7665744
v 0.7488829 -1.2929165 4.0317955
v 1.1087329 -1.352047 4.5440655
v 0.7587756 -1.328691 4.261206
v 0.7930765 -1.4154704 5.07037
v 1.2785294 -1.1856937 4.8202505
v 1.9193966 -1.2116518 4.0147953
v 1.7981215 -0.8170023 3.629404
v 2.2311814 -0.8221035 4.6351595
v 1.8024414 -0.78597903 5.000703
v 0.79800713 -0.53816485 2.3771734
v 0.035509378 -0.9437317 2.2967527
v 0.10559937 -0.86747336 3.176726
v 0.31423217 -0.70263 2.239472
v 0.027876869 -0.7822116 2.213289
v -0.009884879 -0.55481136 1.797126
v 0.86670786 -0.3770669 2.3876824
v 0.2057853 -0.4803769 1.7725813
v 0.85628426 -0.5956923 2.16776
v 1.0570779 -0.5464561 2.1626983
v 1.2422736 -0.21208274 2.3145568
v 1.274318 -0.46678674 2.087378
v 1.3257895 -1.0278286 1.6207695
v 0.82812405 -1.1890069 1.6813431
v 0.41602477 -1.0381132 1.6084232
v 0.70328045 -1.1061826 0.57653064
v 0.68645304 -1.7754565 4.864204
v 0.762652 -1.9843266 4.8325915
v 0.5528868 -2.0910597 4.9739413
v 0.7297243 -1.4366269 4.130275
v 0.7587756 -1.328691 4.261206
v 0.7930765 -1.4154704 5.07037
v 0.7488829 -1.2929165 4.0317955
v 0.6894748 -1.7496204 3.8665123
v 0.6967409 -1.9158219 4.2896967
v 0.66916245 -2.1397898 4.4593744
v 0.6260457 -2.2632883 4.6733756
v 0.7085202 -1.8599579 4.096303
v 0.6961906 -1.8180909 3.9519024
v 0.5319352 -2.0965726 4.0027385
v 0.5617397 -2.0878503 3.849895
v 0.55547667 -2.0435126 3.7677438
v 0.2861774 -1.7961967 5.0637016
v 0.5528868 -2.0910597 4.9739413
v 0.27969992 -2.2203524 4.9894
v 0.25620705 -2.3889794 4.728518
v 0.6260457 -2.2632883 4.6733756
v 0.762652 -1.9843266 4.8325915
v 1.9891922 0.6860268 3.6551802
v 2.8531127 0.6372198 2.6700277
v 2.4576857 0.74971676 3.5312142
v 2.4469986 0.6570091 2.5711374
v 1.8993016 0.46711397 2.9855015
v 2.318652 0.24787664 2.3518167
v 2.176279 0.28609014 1.7962737
v 2.4602988 0.02423811 2.3455796
v 2.5840402 0.36008263 1.6934515
v 2.9492648 0.055294514 2.3981872
v 2.2354374 -0.3029933 3.125546
v 1.8286948 -0.031639576 3.1246817
v 2.7028599 -0.31260133 3.3901417
v 2.0820825 -0.26439834 3.262621
v 2.5908883 -0.34408045 3.5407286
v 2.2631016 -0.43815804 4.025942
v 0.7930765 -1.4154704 5.07037
v 0.2928641 -1.4545152 5.081372
v 0.31724936 -1.3384452 5.2929726
v 0.68645304 -1.7754565 4.864204
v 0.2861774 -1.7961967 5.0637016
v 0.5617397 -2.0878503 3.849895
v 0.17523628 -2.1550229 3.8344746
v 0.1950934 -2.1457205 4.054149
v 0.5319352 -2.0965726 4.0027385
v 0.43119442 -2.1348443 4.1926527
v 0.7085202 -1.8599579 4.096303
v 0.6967409 -1.9158219 4.2896967
v 0.6894748 -1.7496204 3.8665123
v 0.1519363 -1.7516302 3.5819707
v 0.55547667 -2.0435126 3.7677438
v 0.16695632 -2.0794797 3.7433734
v 0.17523628 -2.1550229 3.8344746
v 0.5617397 -2.0878503 3.849895
v 0.20174164 -2.2998865 4.1267066
v 0.4609233 -2.1846704 4.482748
v 0.43119442 -2.1348443 4.1926527
v 0.25620705 -2.3889794 4.728518
v 0.6260457 -2.2632883 4.6733756
v 0.4609233 -2.1846704 4.482748
v 0.25620705 -2.3889794 4.728518
v 0.66916245 -2.1397898 4.4593744
v 0.43119442 -2.1348443 4.1926527
v 0.6967409 -1.9158219 4.2896967
v 1.988415 0.73524046 1.801346
v 2.0907953 0.9958526 1.8555584
v 1.876776 0.4390154 2.159215
v 2.1749935 0.80108476 2.4464967
v 2.189393 1.0443113 2.187708
v 2.1846905 0.33262348 2.0271993
v 1.876776 0.4390154 2.159215
v 2.1749935 0.80108476 2.4464967
v 2.4469986 0.6570091 2.5711374
v -2.0647454 -2.0317798 2.6155665
v -2.0662167 -2.0014281 2.4224973
v -2.4737935 -2.0398777 2.493375
v -2.194948 -2.09013 2.1645358
v -2.2751603 -1.9232788 1.8746428
v -2.5370727 -2.0165434 1.9252906
v -2.0339015 -1.7988946 2.6349535
v -2.194948 -2.09013 2.1645358
v -2.0662167 -2.0014281 2.4224973
v -2.0297368 -1.9833901 2.5233567
v -2.0647454 -2.0317798 2.6155665
v -2.2884212 -1.5318899 3.0042174
v -2.1257398 -1.4906309 2.7994015
v -2.1782746 -1.151667 2.4613078
v -0.95171934 -1.1776595 4.3007865
v -0.74767685 -1.1579909 3.4489713
v -0.9868505 -0.7849723 3.8035934
v -0.79855675 -0.9306158 3.3418887
v -0.9951322 -0.32576126 3.2242413
v -0.70061237 -0.6633169 2.5005577
v -1.2305838 -0.3638358 2.5071607
v -0.82681674 -0.59002674 1.867299
v -0.96271765 -0.09073061 3.8783612
v -0.88368523 0.41171277 3.468643
v -0.594094 0.32925022 4.4286637
v -1.0375795 0.7340575 2.8650074
v -1.3246025 0.2512703 2.0446963
v -1.0170661 0.65181136 2.137609
v -1.3396852 1.0610008 1.8479125
v -1.3397461 0.022781253 1.8170977
v -1.2809235 -0.13555121 1.6555951
v -1.2075065 -0.4390937 1.8857598
v -1.4099243 0.45873237 1.2647928
v -1.2572997 1.7593102 1.3035631
v -1.0331388 1.6963181 1.6935
v -1.1100401 2.3260107 1.6309278
v -1.7270616 2.4062235 0.66353613
v -0.9065845 1.4066188 0.9963583
v -1.0678122 1.6523178 0.95936006
v -1.4099243 0.45873237 1.2647928
v -0.58568746 2.3975763 0.4627552
v -0.9812553 2.3856134 0.21495068
v -0.6573804 2.4942927 0.272954
v -1.0684257 2.5229092 0.21747428
v -1.3577228 2.3515387 0.2546391
v -1.7270616 2.4062235 0.66353613
v -1.2572997 1.7593102 1.3035631
v -1.5624444 2.4879684 0.3938396
v -0.6934641 2.370534 1.0276675
v -0.6326978 1.7909684 1.4826422
v -0.76905346 2.3693352 1.6373634
v -0.58568746 2.3975763 0.4627552
v -0.9065845 1.4066188 0.9963583
v -0.31806523 1.1281505 1.3560314
v -0.67305636 1.0924916 2.0100234
v -0.5160174 0.41804373 1.1014376
v -0.3171194 0.74860156 1.5967143
v -0.25917956 0.4952873 1.83929
v -0.2480576 -0.28814524 1.5749648
v -0.018560052 0.19115555 1.7059596
v -0.014737189 0.91593874 1.7507141
v -1.0170661 0.65181136 2.137609
v -0.67305636 1.0924916 2.0100234
v -0.25917956 0.4952873 1.83929
v -1.3396852 1.0610008 1.8479125
v -1.0331388 1.6963181 1.6935
v -0.6326978 1.7909684 1.4826422
v -0.76905346 2.3693352 1.6373634
v -1.1100401 2.3260107 1.6309278
v -1.9686091 0.11915642 4.000124
v -1.4487631 0.38962042 4.033328
v -1.693554 -0.2704448 4.8497834
v -2.339075 0.14985764 3.2720075
v -2.0441523 -0.1341716 2.7669377
v -2.5650039 -0.9936831 2.4854193
v -1.5757148 -0.07384229 2.9379635
v -0.9493396 0.15796965 4.282642
v -1.4066212 0.15069959 4.8186526
v -0.59211487 -0.3142352 5.1550384
v -0.594094 0.32925022 4.4286637
v -1.2061726 -0.23860127 5.1309247
v -1.693554 -0.2704448 4.8497834
v -0.7362182 -1.0217712 5.0468493
v 0.31724936 -1.3384452 5.2929726
v -0.2131772 -1.32666 5.193293
v -0.074435465 -0.027919292 5.1045823
v 0.34570545 -0.1914587 5.278852
v 0.35571522 -0.64459276 5.507189
v 0.3287519 0.20752168 4.976812
v 0.22001201 0.93067896 3.9570513
v -0.5840428 0.7437985 3.5201669
v -0.88368523 0.41171277 3.468643
v 0.14001362 1.0162072 3.27123
v -1.0375795 0.7340575 2.8650074
v 0.07349411 1.2765319 2.6009185
v -0.37942436 0.99184144 2.9857118
v -0.014737189 0.91593874 1.7507141
v -1.5597887 -0.90138507 3.29093
v -1.4057612 -0.92058885 3.5587573
v -0.9868505 -0.7849723 3.8035934
v -1.5757148 -0.07384229 2.9379635
v -0.96271765 -0.09073061 3.8783612
v -0.9493396 0.15796965 4.282642
v -1.6033866 -0.8629813 2.7920504
v -2.1257398 -1.4906309 2.7994015
v -2.4737935 -2.0398777 2.493375
v -2.5370727 -2.0165434 1.9252906
v -2.6111991 -1.6951728 1.9666135
v -2.7584634 -1.3900981 2.962083
v -2.5650039 -0.9936831 2.4854193
v -2.4689558 -1.4505006 1.8700472
v -2.340876 -1.6302645 1.7547559
v -2.6116757 -0.37063992 3.1651683
v -2.3946908 -0.64332885 3.6272035
v -2.339075 0.14985764 3.2720075
v -2.3685393 -0.11526024 3.4206023
v -2.2525144 -0.59202504 3.744431
v -1.9686091 0.11915642 4.000124
v -1.8332088 -0.37810928 4.111773
v -1.693554 -0.2704448 4.8497834
v -1.5279815 -0.9912813 4.6518917
v -1.4719014 -1.0161409 4.10797
v -1.8019011 -0.8604859 3.4883828
v -2.4689558 -1.4505006 1.8700472
v -2.1782746 -1.151667 2.4613078
v -2.5650039 -0.9936831 2.4854193
v -2.340876 -1.6302645 1.7547559
v -1.9432623 -1.4562787 1.9972357
v -1.9148581 -1.27804 2.3034422
v -2.2751603 -1.9232788 1.8746428
v -2.194948 -2.09013 2.1645358
v -1.8341756 -1.9394649 2.1967938
v -1.9006841 -1.8011189 1.9564269
v -2.340876 -1.6302645 1.7547559
v -1.9432623 -1.4562787 1.9972357
v -2.6111991 -1.6951728 1.9666135
v -2.5370727 -2.0165434 1.9252906
v -2.194948 -2.09013 2.1645358
v -2.0339015 -1.7988946 2.6349535
v -1.7006426 -1.6979848 2.5868442
v -1.8341756 -1.9394649 2.1967938
v -0.9868505 -0.7849723 3.8035934
v -1.4057612 -0.92058885 3.5587573
v -1.4719014 -1.0161409 4.10797
v -1.8019011 -0.8604859 3.4883828
v -1.0684257 2.5229092 0.21747428
v -0.6573804 2.4942927 0.272954
v -0.58568746 2.3975763 0.4627552
v -1.2974188 2.4140956 0.8958047
v -1.5624444 2.4879684 0.3938396
v -0.6934641 2.370534 1.0276675
v -1.7270616 2.4062235 0.66353613
v -0.76905346 2.3693352 1.6373634
v -1.1100401 2.3260107 1.6309278
v -0.79855675 -0.9306158 3.3418887
v -0.3879241 -1.1454711 3.2013617
v -0.70061237 -0.6633169 2.5005577
v 0.10559937 -0.86747336 3.176726
v 0.12533198 -1.0504318 3.2894688
v -0.45733535 -1.2427855 3.5490634
v -0.74767685 -1.1579909 3.4489713
v -0.95171934 -1.1776595 4.3007865
v -0.18370548 -1.2445084 3.8625119
v -0.092222296 -1.3090998 3.9768353
v 0.16648683 -1.33617 3.7665744
v -0.3570766 -1.2804466 4.172219
v -0.62074727 -1.2353915 4.7768455
v -0.3249672 -1.3031713 4.390147
v -0.2131772 -1.32666 5.193293
v -0.7362182 -1.0217712 5.0468493
v -1.5279815 -0.9912813 4.6518917
v -1.4719014 -1.0161409 4.10797
v -1.693554 -0.2704448 4.8497834
v -1.2061726 -0.23860127 5.1309247
v -0.70061237 -0.6633169 2.5005577
v 0.10559937 -0.86747336 3.176726
v 0.035509378 -0.9437317 2.2967527
v -0.2964989 -0.7456562 1.7674124
v 0.027876869 -0.7822116 2.213289
v -0.009884879 -0.55481136 1.797126
v -0.82681674 -0.59002674 1.867299
v -0.2480576 -0.28814524 1.5749648
v -0.8694293 -0.2586478 1.5012673
v -1.0661931 -0.20954776 1.5515208
v -1.2075065 -0.4390937 1.8857598
v -1.2809235 -0.13555121 1.6555951
v -1.4099243 0.45873237 1.2647928
v -0.92621815 0.48104632 1.0488883
v -0.5160174 0.41804373 1.1014376
v -0.9065845 1.4066188 0.9963583
v -0.14480795 -1.7508467 4.964505
v 0.008024648 -2.09137 5.0232077
v -0.2238124 -1.9848886 4.921787
v -0.31965557 -1.4248762 4.2532473
v -0.3249672 -1.3031713 4.390147
v -0.2131772 -1.32666 5.193293
v -0.3570766 -1.2804466 4.172219
v -0.3261471 -1.7510667 3.9709482
v -0.256427 -1.916365 4.375881
v -0.19860844 -2.1402843 4.5378375
v -0.117666155 -2.263712 4.740621
v -0.30290335 -1.8601884 4.1900215
v -0.31675708 -1.8186412 4.046298
v -0.14556229 -2.0969586 4.0639973
v -0.20230839 -2.0882857 3.9189796
v -0.21093227 -2.0439491 3.8370416
v 0.2861774 -1.7961967 5.0637016
v 0.27969992 -2.2203524 4.9894
v 0.008024648 -2.09137 5.0232077
v 0.25620705 -2.3889794 4.728518
v -0.117666155 -2.263712 4.740621
v -0.2238124 -1.9848886 4.921787
v -1.5757148 -0.07384229 2.9379635
v -2.0441523 -0.1341716 2.7669377
v -2.5650039 -0.9936831 2.4854193
v -2.1782746 -1.151667 2.4613078
v -1.6033866 -0.8629813 2.7920504
v -2.1257398 -1.4906309 2.7994015
v -2.0647454 -2.0317798 2.6155665
v -2.4737935 -2.0398777 2.493375
v -2.2884212 -1.5318899 3.0042174
v -2.7584634 -1.3900981 2.962083
v -1.9839628 -0.9198438 3.5327134
v -1.5597887 -0.90138507 3.29093
v -2.3946908 -0.64332885 3.6272035
v -1.8019011 -0.8604859 3.4883828
v -2.2525144 -0.59202504 3.744431
v -1.8332088 -0.37810928 4.111773
v -0.2131772 -1.32666 5.193293
v 0.31724936 -1.3384452 5.2929726
v 0.2928641 -1.4545152 5.081372
v -0.14480795 -1.7508467 4.964505
v 0.2861774 -1.7961967 5.0637016
v -0.20230839 -2.0882857 3.9189796
v 0.1950934 -2.1457205 4.054149
v 0.17523628 -2.1550229 3.8344746
v -0.14556229 -2.0969586 4.0639973
v -0.01234737 -2.135097 4.2327576
v -0.30290335 -1.8601884 4.1900215
v -0.256427 -1.916365 4.375881
v -0.3261471 -1.7510667 3.9709482
v -0.21093227 -2.0439491 3.8370416
v 0.1519363 -1.7516302 3.5819707
v 0.16695632 -2.0794797 3.7433734
v 0.17523628 -2.1550229 3.8344746
v -0.20230839 -2.0882857 3.9189796
v 0.20174164 -2.2998865 4.1267066
v -0.01234737 -2.135097 4.2327576
v 0.010496169 -2.184927 4.523475
v 0.25620705 -2.3889794 4.728518
v -0.117666155 -2.263712 4.740621
v 0.25620705 -2.3889794 4.728518
v 0.010496169 -2.184927 4.523475
v -0.19860844 -2.1402843 4.5378375
v -0.01234737 -2.135097 4.2327576
v -0.256427 -1.916365 4.375881
v -1.8341756 -1.9394649 2.1967938
v -1.7006426 -1.6979848 2.5868442
v -1.9006841 -1.8011189 1.9564269
v -1.9148581 -1.27804 2.3034422
v -1.9432623 -1.4562787 1.9972357
v -2.0339015 -1.7988946 2.6349535
v -2.1782746 -1.151667 2.4613078
v -1.9148581 -1.27804 2.3034422
v -1.7006426 -1.6979848 2.5868442
v 0.4565558 -1.3089042 3.9006534
v 0.44547322 -1.4989921 3.7941103
v 0.7488829 -1.2929165 4.0317955
v 0.16648683 -1.33617 3.7665744
v 0.6894748 -1.7496204 3.8665123
v 0.1519363 -1.7516302 3.5819707
v 0.9791076 -0.1729021 1.2656145
v 1.1266451 0.9628205 1.7627945
v 0.48682368 0.6422409 1.3286047
v 0.21265055 -0.17445338 1.4680973
v 0.47626665 1.2011769 1.7600495
v -0.014737189 0.91593874 1.7507141
v -1.0170661 0.65181136 2.137609
v -0.5058813 0.9241805 2.2906098
v -1.0375795 0.7340575 2.8650074
v -0.25917956 0.4952873 1.83929
v -0.37942436 0.99184144 2.9857118
v -0.014737189 0.91593874 1.7507141
v -0.3261471 -1.7510667 3.9709482
v 0.1519363 -1.7516302 3.5819707
v -0.10042284 -1.5033196 3.8730233
v -0.3570766 -1.2804466 4.172219
v 0.16648683 -1.33617 3.7665744
v -0.092222296 -1.3090998 3.9768353
vt 0.49902603 0.918115
vt 0.56499124 0.9454073
vt 0.56499124 0.8711099
vt 0.14378172 0.8514687
vt 0.16439773 0.8882737
vt 0.16439773 0.8118623
vt 0.34434217 1
vt 0.34434217 0.93092227
vt 0.31757537 0.9767937
vt 0.98919135 0.052865658
vt 0.98919135 0
vt 0.968192 0.025574517
vt 0.5176891 0.9859883
vt 0.5176891 0.95471436
vt 0.49902603 0.95796406
vt 0.96851367 0.66580456
vt 0.96851367 0.6183773
vt 0.9283098 0.64640343
vt 0.16141832 0.8975809
vt 0.14378184 0.9333254
vt 0.16141832 0.96089536
vt 0.91912127 0.53584665
vt 0.8804234 0.55779886
vt 0.91912127 0.672676
vt 0.31757528 0.88430893
vt 0.3491709 0.9216153
vt 0.34917086 0.82019824
vt 0.9590038 0
vt 0.9210636 0.040668685
vt 0.9590038 0.11800762
vt 0.95839727 0.27790177
vt 0.9886577 0.35846353
vt 0.9886577 0.27093768
vt 0.95229155 0.79087466
vt 0.95229155 0.68280923
vt 0.9039406 0.75590014
vt 0.8569706 0.89982796
vt 0.8829183 0.9938489
vt 0.8829183 0.8892549
vt 0.49902603 0.918115
vt 0.56499124 0.8711099
vt 0.56499124 0.9454073
vt 0.14378172 0.8514687
vt 0.16439773 0.8118623
vt 0.16439773 0.8882737
vt 0.34434217 1
vt 0.31757537 0.9767937
vt 0.34434217 0.93092227
vt 0.98919135 0.052865658
vt 0.968192 0.025574517
vt 0.98919135 0
vt 0.5176891 0.9859883
vt 0.49902603 0.95796406
vt 0.5176891 0.95471436
vt 0.96851367 0.66580456
vt 0.9283098 0.64640343
vt 0.96851367 0.6183773
vt 0.16141832 0.8975809
vt 0.16141832 0.96089536
vt 0.14378184 0.9333254
vt 0.91912127 0.53584665
vt 0.91912127 0.672676
vt 0.8804234 0.55779886
vt 0.31757528 0.88430893
vt 0.34917086 0.82019824
vt 0.3491709 0.9216153
vt 0.9590038 0
vt 0.9590038 0.11800762
vt 0.9210636 0.040668685
vt 0.95839727 0.27790177
vt 0.9886577 0.27093768
vt 0.9886577 0.35846353
vt 0.95229155 0.79087466
vt 0.9039406 0.75590014
vt 0.95229155 0.68280923
vt 0.8569706 0.89982796
vt 0.8829183 0.8892549
vt 0.8829183 0.9938489
vt 0.36096442 0.9809408
vt 0.4075098 0.9607956
vt 0.3588947 0.9575265
vt 0.369392 0.92520255
vt 0.3771086 0.8883843
vt 0.4075098 0.8914479
vt 0.5270722 0.68813974
vt 0.54430145 0.71937054
vt 0.57231295 0.74010444
vt 0.5329712 0.7133354
vt 0.5213672 0.7160483
vt 0.4990259 0.64703196
vt 0.521059 0.6477355
vt 0.57231295 0.6210902
vt 0.39298362 0.61178297
vt 0.4363923 0.541216
vt 0.3588946 0.54126763
vt 0.38259628 0.51508933
vt 0.44708437 0.45777205
vt 0.35943297 0.38027877
vt 0.45028436 0.37733927
vt 0.38207754 0.33254984
vt 0.53066176 0.5399611
vt 0.54357386 0.47318318
vt 0.59004575 0.5701486
vt 0.59004575 0.3564206
vt 0.4765397 0.28180492
vt 0.527813 0.26165715
vt 0.5264617 0.17587008
vt 0.43756214 0.28139699
vt 0.41167656 0.2809121
vt 0.4031181 0.3257705
vt 0.42691 0.20106666
vt 0.48573887 0.07598537
vt 0.5317059 0.09830561
vt 0.54340035 0.012144742
vt 0.41421005 3.046471E-08
vt 0.8233897 0.81884515
vt 0.8947522 0.87994784
vt 0.8380794 0.79222435
vt 0.75919056 0.7267464
vt 0.79670596 0.70665777
vt 0.75950646 0.70673996
vt 0.803943 0.6889256
vt 0.841158 0.69899017
vt 0.89475226 0.69672364
vt 0.87079096 0.80151844
vt 0.8660454 0.6828093
vt 0.09310532 0.802555
vt 0.16801077 0.7953374
vt 0.12556495 0.72438186
vt 0.026040358 0.7997428
vt 0.052987453 0.71688
vt 0.086323686 0.64679164
vt 0.15040804 0.61200655
vt 0.019966839 0.6235478
vt 0.089004435 0.59260225
vt 0.08959459 0.5458116
vt 6.015232E-08 0.54828095
vt 0.08550134 0.5054018
vt 0.16801077 0.45642403
vt 0.82160306 0.23527387
vt 0.91187495 0.2616305
vt 0.8785964 0.17643519
vt 0.8049671 0.15148313
vt 0.85996854 0.08438009
vt 0.911246 0.08578497
vt 0.91187495 0.0028682526
vt 0.8709122 3.046471E-08
vt 0.09789549 0.25051716
vt 0.13116886 0.34432486
vt 0.16033816 0.22789456
vt 0.049894422 0.18504778
vt 0.07739943 0.13376983
vt 0 0.101133585
vt 0.13330956 0.13581291
vt 0.21659958 0.24239016
vt 0.16608825 0.3124507
vt 0.24976975 0.35344645
vt 0.25481075 0.22602086
vt 0.1860694 0.36288005
vt 0.13116886 0.34432486
vt 0.23294322 0.4035151
vt 0.34970608 0.4471169
vt 0.29160568 0.44181484
vt 0.30976734 0.30876765
vt 0.34858796 0.33234903
vt 0.34877276 0.39573345
vt 0.34870827 0.269106
vt 0.34905258 0.17866798
vt 0.2605541 0.14002824
vt 0.22303613 0.1529811
vt 0.3494948 0.14017203
vt 0.21396372 0.02751256
vt 0.34920633 0.07600799
vt 0.29144904 0.022317717
vt 0.34970608 0
vt 0.38429728 0.77760273
vt 0.36951953 0.6804159
vt 0.3588947 0.73239607
vt 0.48983765 0.7665424
vt 0.46186814 0.6618539
vt 0.48983765 0.6210902
vt 0.4339861 0.81697726
vt 0.39901102 0.8790773
vt 0.7500021 0.74025494
vt 0.6760147 0.75673467
vt 0.7008218 0.78769267
vt 0.73089904 0.64271283
vt 0.6582754 0.6532317
vt 0.64760154 0.7460554
vt 0.65432703 0.77218586
vt 0.6561025 0.55081415
vt 0.7122202 0.5215398
vt 0.59923416 0.53459376
vt 0.6407047 0.5178718
vt 0.7033843 0.50708
vt 0.6171612 0.46747392
vt 0.67556334 0.46324593
vt 0.6534468 0.37864077
vt 0.74511176 0.39836925
vt 0.7500021 0.46568456
vt 0.7316233 0.5429811
vt 0.56953835 0.83960843
vt 0.56953835 0.74941146
vt 0.52703404 0.76323533
vt 0.5583597 0.8618026
vt 0.50707406 0.83131546
vt 0.4990259 0.7894004
vt 0.843614 0.30382556
vt 0.87173325 0.3583391
vt 0.8776816 0.31122676
vt 0.8434859 0.3522023
vt 0.8049671 0.30388892
vt 0.80789423 0.3583391
vt 0.81610477 0.2726733
vt 0.8499164 0.27093756
vt 1 0.68280923
vt 0.96148014 0.6968634
vt 0.96148014 0.744935
vt 1 0.74078554
vt 0.953209 0.80018187
vt 0.9039406 0.83439285
vt 0.953209 0.868638
vt 0.9222943 0.90617955
vt 0.6674861 0.798815
vt 0.730205 0.82059234
vt 0.71701837 0.79699963
vt 0.6532963 0.8831631
vt 0.61280245 0.8302191
vt 0.72696996 0.88637024
vt 0.5992342 0.86706394
vt 0.730205 0.9619857
vt 0.6907086 0.969811
vt 0.6589565 0.23906025
vt 0.63166714 0.36933368
vt 0.708841 0.26865244
vt 0.75177425 0.3355242
vt 0.77262163 0.27562472
vt 0.7120425 0.22720534
vt 0.6700854 0.23198074
vt 0.6687798 0.14423798
vt 0.75500554 0.19355133
vt 0.7706367 0.17965601
vt 0.79577863 0.21007149
vt 0.74549466 0.14924052
vt 0.73454255 0.07315528
vt 0.75664675 0.12261973
vt 0.79577863 0.029209565
vt 0.72930306 0.034244284
vt 0.6210279 0.07891384
vt 0.59923416 0.13749626
vt 0.6227054 0.013777361
vt 0.68517876 0
vt 0.19030221 0.5926166
vt 0.27671725 0.5424171
vt 0.20954877 0.45642403
vt 0.27502987 0.60654753
vt 0.30718705 0.5912737
vt 0.3315822 0.6495408
vt 0.2125061 0.6379783
vt 0.30932727 0.66668975
vt 0.23977989 0.67791736
vt 0.21840945 0.6910608
vt 0.1771991 0.675653
vt 0.1952241 0.7099755
vt 0.22730719 0.7710672
vt 0.2850084 0.7441486
vt 0.32410717 0.72671473
vt 0.3315822 0.8108909
vt 0.12445033 0.88272744
vt 0.118833065 0.91520464
vt 0.13459346 0.92705274
vt 0.029831218 0.8662915
vt 0.04120145 0.84823847
vt 0.13459346 0.8118623
vt 0.014586215 0.85860515
vt 0.006344385 0.91023856
vt 0.055812206 0.9167029
vt 0.07597911 0.9405134
vt 0.10054917 0.9524297
vt 0.03373438 0.91510206
vt 0.016143437 0.91420496
vt 0.025230289 0.94425434
vt 0.008589751 0.9476432
vt 0 0.94567424
vt 0.4166982 0.8883844
vt 0.42541498 0.9261302
vt 0.44437116 0.8972779
vt 0.4784857 0.9142962
vt 0.45555466 0.9547197
vt 0.41865915 0.9547197
vt 0.923967 0.5265394
vt 0.8858247 0.38635334
vt 0.88042325 0.48831704
vt 0.9273596 0.40759468
vt 0.97330445 0.47121757
vt 0.97330445 0.37864053
vt 0.87123483 0.6485235
vt 0.8210195 0.5904178
vt 0.8273133 0.6735019
vt 0.7629219 0.5992589
vt 0.82242316 0.48842975
vt 0.87123483 0.47961864
vt 0.75919056 0.4700137
vt 0.8339568 0.46264127
vt 0.76616776 0.4473538
vt 0.78633755 0.37864053
vt 0.9958276 0.9154867
vt 0.97140336 0.970249
vt 0.9958276 0.97698194
vt 0.95606023 0.91680205
vt 0.9538918 0.9701389
vt 0.75919056 0.93168813
vt 0.77940774 0.97460806
vt 0.79962325 0.96114165
vt 0.7757094 0.92720497
vt 0.7992231 0.92929655
vt 0.7808211 0.8964899
vt 0.79962325 0.8892549
vt 0.9447032 0.98594135
vt 0.9447032 0.9154867
vt 0.92055905 0.96472645
vt 0.9137541 0.9182853
vt 0.9039406 0.92054886
vt 0.91369635 0.9668703
vt 0.9916219 0.86281574
vt 0.9623976 0.82055163
vt 0.9627488 0.8498158
vt 0.9916219 0.80018175
vt 0.80881166 0.9151965
vt 0.8349308 0.9297713
vt 0.8477822 0.8892547
vt 0.811724 0.9402521
vt 0.8477822 0.94809693
vt 0.8154087 0.97162884
vt 0.94920886 0.28810272
vt 0.9198775 0.27093756
vt 0.9492088 0.34555
vt 0.8876546 0.3388034
vt 0.8868701 0.2958499
vt 0.96805406 0.5391982
vt 0.92830974 0.5358466
vt 0.9459171 0.57954276
vt 0.96805406 0.60907036
vt 0.36096442 0.9809408
vt 0.3588947 0.9575265
vt 0.4075098 0.9607956
vt 0.369392 0.92520255
vt 0.3771086 0.8883843
vt 0.4075098 0.8914479
vt 0.5270722 0.68813974
vt 0.57231295 0.74010444
vt 0.54430145 0.71937054
vt 0.5329712 0.7133354
vt 0.5213672 0.7160483
vt 0.4990259 0.64703196
vt 0.521059 0.6477355
vt 0.57231295 0.6210902
vt 0.39298362 0.61178297
vt 0.3588946 0.54126763
vt 0.4363923 0.541216
vt 0.38259628 0.51508933
vt 0.44708437 0.45777205
vt 0.35943297 0.38027877
vt 0.45028436 0.37733927
vt 0.38207754 0.33254984
vt 0.53066176 0.5399611
vt 0.54357386 0.47318318
vt 0.59004575 0.5701486
vt 0.59004575 0.3564206
vt 0.4765397 0.28180492
vt 0.527813 0.26165715
vt 0.5264617 0.17587008
vt 0.43756214 0.28139699
vt 0.41167656 0.2809121
vt 0.4031181 0.3257705
vt 0.42691 0.20106666
vt 0.48573887 0.07598537
vt 0.5317059 0.09830561
vt 0.54340035 0.012144742
vt 0.41421005 3.046471E-08
vt 0.8233897 0.81884515
vt 0.8380794 0.79222435
vt 0.8947522 0.87994784
vt 0.75919056 0.7267464
vt 0.79670596 0.70665777
vt 0.75950646 0.70673996
vt 0.803943 0.6889256
vt 0.841158 0.69899017
vt 0.89475226 0.69672364
vt 0.87079096 0.80151844
vt 0.8660454 0.6828093
vt 0.09310532 0.802555
vt 0.12556495 0.72438186
vt 0.16801077 0.7953374
vt 0.026040358 0.7997428
vt 0.052987453 0.71688
vt 0.086323686 0.64679164
vt 0.15040804 0.61200655
vt 0.019966839 0.6235478
vt 0.089004435 0.59260225
vt 0.08959459 0.5458116
vt 6.015232E-08 0.54828095
vt 0.08550134 0.5054018
vt 0.16801077 0.45642403
vt 0.82160306 0.23527387
vt 0.8785964 0.17643519
vt 0.91187495 0.2616305
vt 0.8049671 0.15148313
vt 0.85996854 0.08438009
vt 0.911246 0.08578497
vt 0.91187495 0.0028682526
vt 0.8709122 3.046471E-08
vt 0.09789549 0.25051716
vt 0.16033816 0.22789456
vt 0.13116886 0.34432486
vt 0.049894422 0.18504778
vt 0.07739943 0.13376983
vt 0 0.101133585
vt 0.13330956 0.13581291
vt 0.21659958 0.24239016
vt 0.16608825 0.3124507
vt 0.24976975 0.35344645
vt 0.25481075 0.22602086
vt 0.1860694 0.36288005
vt 0.13116886 0.34432486
vt 0.23294322 0.4035151
vt 0.34970608 0.4471169
vt 0.29160568 0.44181484
vt 0.30976734 0.30876765
vt 0.34858796 0.33234903
vt 0.34877276 0.39573345
vt 0.34870827 0.269106
vt 0.34905258 0.17866798
vt 0.2605541 0.14002824
vt 0.22303613 0.1529811
vt 0.3494948 0.14017203
vt 0.21396372 0.02751256
vt 0.34920633 0.07600799
vt 0.29144904 0.022317717
vt 0.34970608 0
vt 0.38429728 0.77760273
vt 0.3588947 0.73239607
vt 0.36951953 0.6804159
vt 0.48983765 0.7665424
vt 0.46186814 0.6618539
vt 0.48983765 0.6210902
vt 0.4339861 0.81697726
vt 0.39901102 0.8790773
vt 0.7500021 0.74025494
vt 0.7008218 0.78769267
vt 0.6760147 0.75673467
vt 0.73089904 0.64271283
vt 0.6582754 0.6532317
vt 0.64760154 0.7460554
vt 0.65432703 0.77218586
vt 0.6561025 0.55081415
vt 0.7122202 0.5215398
vt 0.59923416 0.53459376
vt 0.6407047 0.5178718
vt 0.7033843 0.50708
vt 0.6171612 0.46747392
vt 0.67556334 0.46324593
vt 0.6534468 0.37864077
vt 0.74511176 0.39836925
vt 0.7500021 0.46568456
vt 0.7316233 0.5429811
vt 0.56953835 0.83960843
vt 0.52703404 0.76323533
vt 0.56953835 0.74941146
vt 0.5583597 0.8618026
vt 0.50707406 0.83131546
vt 0.4990259 0.7894004
vt 0.843614 0.30382556
vt 0.8776816 0.31122676
vt 0.87173325 0.3583391
vt 0.8434859 0.3522023
vt 0.8049671 0.30388892
vt 0.80789423 0.3583391
vt 0.81610477 0.2726733
vt 0.8499164 0.27093756
vt 1 0.68280923
vt 1 0.74078554
vt 0.96148014 0.744935
vt 0.96148014 0.6968634
vt 0.953209 0.80018187
vt 0.953209 0.868638
vt 0.9039406 0.83439285
vt 0.9222943 0.90617955
vt 0.6674861 0.798815
vt 0.71701837 0.79699963
vt 0.730205 0.82059234
vt 0.6532963 0.8831631
vt 0.61280245 0.8302191
vt 0.72696996 0.88637024
vt 0.5992342 0.86706394
vt 0.730205 0.9619857
vt 0.6907086 0.969811
vt 0.6589565 0.23906025
vt 0.708841 0.26865244
vt 0.63166714 0.36933368
vt 0.75177425 0.3355242
vt 0.77262163 0.27562472
vt 0.7120425 0.22720534
vt 0.6700854 0.23198074
vt 0.6687798 0.14423798
vt 0.75500554 0.19355133
vt 0.7706367 0.17965601
vt 0.79577863 0.21007149
vt 0.74549466 0.14924052
vt 0.73454255 0.07315528
vt 0.75664675 0.12261973
vt 0.79577863 0.029209565
vt 0.72930306 0.034244284
vt 0.6210279 0.07891384
vt 0.59923416 0.13749626
vt 0.6227054 0.013777361
vt 0.68517876 0
vt 0.19030221 0.5926166
vt 0.20954877 0.45642403
vt 0.27671725 0.5424171
vt 0.27502987 0.60654753
vt 0.30718705 0.5912737
vt 0.3315822 0.6495408
vt 0.2125061 0.6379783
vt 0.30932727 0.66668975
vt 0.23977989 0.67791736
vt 0.21840945 0.6910608
vt 0.1771991 0.675653
vt 0.1952241 0.7099755
vt 0.22730719 0.7710672
vt 0.2850084 0.7441486
vt 0.32410717 0.72671473
vt 0.3315822 0.8108909
vt 0.12445033 0.88272744
vt 0.13459346 0.92705274
vt 0.118833065 0.91520464
vt 0.029831218 0.8662915
vt 0.04120145 0.84823847
vt 0.13459346 0.8118623
vt 0.014586215 0.85860515
vt 0.006344385 0.91023856
vt 0.055812206 0.9167029
vt 0.07597911 0.9405134
vt 0.10054917 0.9524297
vt 0.03373438 0.91510206
vt 0.016143437 0.91420496
vt 0.025230289 0.94425434
vt 0.008589751 0.9476432
vt 0 0.94567424
vt 0.4166982 0.8883844
vt 0.44437116 0.8972779
vt 0.42541498 0.9261302
vt 0.4784857 0.9142962
vt 0.45555466 0.9547197
vt 0.41865915 0.9547197
vt 0.923967 0.5265394
vt 0.88042325 0.48831704
vt 0.8858247 0.38635334
vt 0.9273596 0.40759468
vt 0.97330445 0.47121757
vt 0.97330445 0.37864053
vt 0.87123483 0.6485235
vt 0.8273133 0.6735019
vt 0.8210195 0.5904178
vt 0.7629219 0.5992589
vt 0.82242316 0.48842975
vt 0.87123483 0.47961864
vt 0.75919056 0.4700137
vt 0.8339568 0.46264127
vt 0.76616776 0.4473538
vt 0.78633755 0.37864053
vt 0.9958276 0.9154867
vt 0.9958276 0.97698194
vt 0.97140336 0.970249
vt 0.95606023 0.91680205
vt 0.9538918 0.9701389
vt 0.75919056 0.93168813
vt 0.79962325 0.96114165
vt 0.77940774 0.97460806
vt 0.7757094 0.92720497
vt 0.7992231 0.92929655
vt 0.7808211 0.8964899
vt 0.79962325 0.8892549
vt 0.9447032 0.98594135
vt 0.92055905 0.96472645
vt 0.9447032 0.9154867
vt 0.9137541 0.9182853
vt 0.9039406 0.92054886
vt 0.91369635 0.9668703
vt 0.9916219 0.86281574
vt 0.9627488 0.8498158
vt 0.9623976 0.82055163
vt 0.9916219 0.80018175
vt 0.80881166 0.9151965
vt 0.8477822 0.8892547
vt 0.8349308 0.9297713
vt 0.811724 0.9402521
vt 0.8477822 0.94809693
vt 0.8154087 0.97162884
vt 0.94920886 0.28810272
vt 0.9492088 0.34555
vt 0.9198775 0.27093756
vt 0.8876546 0.3388034
vt 0.8868701 0.2958499
vt 0.96805406 0.5391982
vt 0.96805406 0.60907036
vt 0.9459171 0.57954276
vt 0.92830974 0.5358466
vt 0.96215004 0.18739347
vt 0.94284713 0.17622434
vt 0.96215004 0.22513403
vt 0.96215004 0.14965288
vt 0.9210635 0.19511597
vt 0.92354435 0.12731466
vt 0.27914968 0.96139646
vt 0.30838683 0.8762738
vt 0.23766533 0.87951136
vt 0.18261339 0.96139646
vt 0.24230355 0.8201981
vt 0.17719921 0.84876394
vt 0.27914968 0.96139646
vt 0.23766533 0.87951136
vt 0.30838683 0.8762738
vt 0.18261339 0.96139646
vt 0.24230355 0.8201981
vt 0.17719921 0.84876394
vt 0.9210635 0.19511597
vt 0.92354435 0.12731466
vt 0.94284713 0.17622434
vt 0.96215004 0.22513403
vt 0.96215004 0.14965288
vt 0.96215004 0.18739347
vn 0.15510024 -0.7735351 -0.5889864
vn 0.22097252 -0.5573511 -0.80033123
vn 0.21657906 -0.117705226 -0.8873863
vn 0.23256236 0.7621591 0.41414848
vn 0.49576977 0.6451762 0.33670902
vn 0.2440998 0.78878486 -0.18074867
vn 0.742925 -0.3281939 -0.45679355
vn 0.28197956 -0.73911345 -0.39446998
vn 0.5268466 -0.45748156 -0.6027732
vn 0.0860849 -0.23109765 0.950609
vn 0.78298616 -0.166617 0.57628995
vn 0.44787356 -0.45111495 0.7707644
vn 0.514769 -0.81530297 -0.23792657
vn -0.032094993 -0.91726655 -0.36073762
vn -0.053301584 -0.78879404 -0.59446454
vn -0.78824884 -0.24003285 -0.55916715
vn -0.45714104 -0.3984695 -0.78647834
vn -0.070396505 -0.83374834 -0.54011095
vn -0.122990236 -0.77982616 -0.6137936
vn 0.31042126 -0.85287225 0.41876483
vn 0.5750909 -0.6308567 -0.5200575
vn 0.9961498 0.08494684 0.021492057
vn 0.4817677 -0.8491626 0.21238472
vn 0.82970476 -0.4393172 0.2529583
vn 0.7416029 -0.20504802 0.59947205
vn 0.4835307 -0.6886621 0.28760725
vn 0.97617745 -0.040807754 0.08875324
vn 0.86163586 -0.39270133 0.29447645
vn 0.5963061 0.31269693 0.71882945
vn 0.2475421 0.6501564 0.707779
vn -0.97386605 -0.17898732 -0.13981417
vn -0.78824884 -0.24003285 -0.55916715
vn -0.27803314 -0.86633015 -0.41493225
vn 0.40050602 0.17997724 0.8585514
vn 0.08134156 -0.493282 0.83616495
vn 0.104224935 0.04315561 0.9619255
vn -0.2963801 -0.66726124 -0.50657237
vn -0.077941 -0.13800195 -0.8628733
vn -0.06366171 -0.52412426 -0.7074235
vn -0.2925235 -0.924714 0.013045028
vn -0.39955285 -0.6289482 -0.6096087
vn -0.4028329 -0.9117028 -0.08076553
vn -0.11142531 0.9436639 0.009423599
vn -0.22711526 0.69231856 -0.5644708
vn -0.39870209 0.785015 0.324591
vn -0.82932705 -0.39179677 -0.35323787
vn -0.6434073 -0.56115013 -0.46085483
vn -0.36292008 -0.79876363 -0.39379662
vn 0.0860849 -0.23109765 0.950609
vn -0.30184624 -0.45154208 0.8385534
vn -0.66710395 -0.15139174 0.71503067
vn -0.54817575 -0.81590855 -0.14181608
vn -0.053301584 -0.78879404 -0.59446454
vn -0.032094993 -0.91726655 -0.36073762
vn 0.66138333 -0.7094351 0.048104554
vn -0.080430984 -0.9259699 0.297534
vn 0.2707745 -0.90078604 -0.17523134
vn 0.008363979 0.75588125 -0.65465385
vn -0.6663671 0.55758876 -0.49033937
vn -0.35187334 -0.29702687 -0.88489723
vn -0.9754578 -0.073401496 0.20748067
vn -0.8481528 -0.23719934 -0.46146065
vn -0.5224948 -0.5160279 -0.67168903
vn -0.7076253 -0.6448552 -0.22916247
vn -0.96444196 -0.24388775 0.07385638
vn -0.50668097 -0.57503235 -0.551799
vn -0.8006724 0.039082445 0.5873314
vn -0.07243025 0.95148367 0.02726883
vn -0.43245265 0.75493526 0.4337441
vn 0.9192109 -0.34683686 0.18642835
vn 0.12478279 -0.6718886 0.73006475
vn 0.66138333 -0.7094351 0.048104554
vn -0.23565088 0.35316864 0.857386
vn 0.104224935 0.04315561 0.9619255
vn 0.08134156 -0.493282 0.83616495
vn 0.17157924 -0.2512889 -0.87959826
vn -0.06366171 -0.52412426 -0.7074235
vn -0.077941 -0.13800195 -0.8628733
vn -0.6253226 -0.5674896 -0.53565526
vn 0.32559955 -0.52588254 -0.7857682
vn -0.8463526 0.34614086 -0.40481243
vn -0.3724619 -0.10504916 -0.9220824
vn -0.12082302 0.6370784 -0.76127
vn 0.523072 0.2823927 -0.8041452
vn -0.83005047 -0.5433563 0.12561633
vn -0.8463526 0.34614086 -0.40481243
vn -0.3724619 -0.10504916 -0.9220824
vn -0.97997135 0.15305313 -0.12739839
vn -0.6253226 -0.5674896 -0.53565526
vn -0.27803314 -0.86633015 -0.41493225
vn -0.97386605 -0.17898732 -0.13981417
vn -0.40728387 0.8631858 0.29837754
vn 0.15510024 -0.7735351 -0.5889864
vn 0.21657906 -0.117705226 -0.8873863
vn 0.5268466 -0.45748156 -0.6027732
vn 0.742925 -0.3281939 -0.45679355
vn 0.95032513 -0.16392961 -0.18614419
vn 0.57005686 -0.6513704 -0.38798976
vn 0.97617745 -0.040807754 0.08875324
vn 0.4835307 -0.6886621 0.28760725
vn 0.2440998 0.78878486 -0.18074867
vn 0.93018496 0.31172812 0.09841322
vn 0.49576977 0.6451762 0.33670902
vn 0.7184208 0.40931982 -0.39971206
vn 0.9632283 0.10064755 -0.2476198
vn 0.45710424 0.33763394 -0.7631927
vn 0.79802215 0.5273305 -0.1452382
vn 0.99574965 -0.03469699 0.08251847
vn 0.80355805 -0.34102237 0.4686247
vn 0.7416029 -0.20504802 0.59947205
vn 0.82970476 -0.4393172 0.2529583
vn 0.9961498 0.08494684 0.021492057
vn 0.38203272 0.923114 -0.04370489
vn 0.48480144 0.726861 -0.48122162
vn 0.9181456 -0.16672061 -0.3591025
vn -0.42140496 -0.8646575 -0.12436898
vn 0.82970476 -0.4393172 0.2529583
vn 0.4817677 -0.8491626 0.21238472
vn -0.87053746 -0.44713643 -0.20531984
vn -0.19692881 -0.81558025 0.54410344
vn -0.8327195 -0.48141223 -0.273533
vn -0.122990236 -0.77982616 -0.6137936
vn 0.31042126 -0.85287225 0.41876483
vn 0.9181456 -0.16672061 -0.3591025
vn 0.9961498 0.08494684 0.021492057
vn 0.5750909 -0.6308567 -0.5200575
vn -0.69222456 0.106348515 -0.71258664
vn -0.4579788 0.7425265 -0.48278758
vn -0.8723027 0.48507 0.058495812
vn -0.87053746 -0.44713643 -0.20531984
vn -0.42140496 -0.8646575 -0.12436898
vn -0.97702295 -0.023297694 -0.16339405
vn -0.27857158 0.72995675 -0.30422756
vn -0.6317641 -0.61285144 0.32615027
vn -0.9883319 0.07864407 -0.08113234
vn -0.82108533 -0.10990752 -0.4778487
vn -0.2963801 -0.66726124 -0.50657237
vn -0.077941 -0.13800195 -0.8628733
vn -0.06525225 0.45518512 -0.7244443
vn 0.45710424 0.33763394 -0.7631927
vn -0.82108533 -0.10990752 -0.4778487
vn -0.27857158 0.72995675 -0.30422756
vn 0.79802215 0.5273305 -0.1452382
vn 0.38203272 0.923114 -0.04370489
vn -0.8723027 0.48507 0.058495812
vn -0.4579788 0.7425265 -0.48278758
vn 0.48480144 0.726861 -0.48122162
vn 0.8117001 -0.14407632 0.56017077
vn 0.86163586 -0.39270133 0.29447645
vn 0.2475421 0.6501564 0.707779
vn 0.7547598 0.4251549 0.48471516
vn 0.17222813 0.95889246 0.17043516
vn 0.7215061 0.68134403 0.123282515
vn -0.48136503 0.86560297 0.070548534
vn 0.23256236 0.7621591 0.41414848
vn 0.5963061 0.31269693 0.71882945
vn 0.40050602 0.17997724 0.8585514
vn 0.49576977 0.6451762 0.33670902
vn 0.48030275 -0.3242384 0.7780059
vn 0.86163586 -0.39270133 0.29447645
vn 0.46834067 -0.62087387 0.5749329
vn 0.08134156 -0.493282 0.83616495
vn 0.57115823 -0.41213974 0.67640257
vn 0.3444162 0.5819769 0.64863324
vn 0.09688988 0.5411389 0.7887762
vn 0.104224935 0.04315561 0.9619255
vn 0.08245802 0.77947706 0.54996705
vn 0.040779233 0.77192914 0.14408726
vn 0.47088847 0.70877075 0.3719109
vn 0.93018496 0.31172812 0.09841322
vn 0.037503336 0.73149127 0.11644806
vn 0.7184208 0.40931982 -0.39971206
vn 0.02678949 0.76993614 0.10327733
vn 0.048982106 0.64626575 -0.45630231
vn -0.06525225 0.45518512 -0.7244443
vn -0.78824884 -0.24003285 -0.55916715
vn 0.21657906 -0.117705226 -0.8873863
vn -0.45714104 -0.3984695 -0.78647834
vn -0.48136503 0.86560297 0.070548534
vn 0.2440998 0.78878486 -0.18074867
vn 0.23256236 0.7621591 0.41414848
vn -0.85476613 0.39251417 -0.33439308
vn -0.97386605 -0.17898732 -0.13981417
vn 0.32559955 -0.52588254 -0.7857682
vn 0.8775005 0.3452398 -0.33286947
vn 0.523072 0.2823927 -0.8041452
vn 0.78702563 -0.5386201 -0.30079627
vn 0.7215061 0.68134403 0.123282515
vn 0.42964673 0.84912837 0.30721968
vn 0.1464695 0.978451 -0.14553091
vn 0.9735838 -0.13581003 0.17820303
vn 0.5217417 -0.8444175 0.018223584
vn 0.7547598 0.4251549 0.48471516
vn 0.82597524 -0.36166283 0.4220297
vn 0.3945495 -0.90424085 0.11437082
vn 0.8117001 -0.14407632 0.56017077
vn 0.779956 -0.60629004 -0.15060267
vn 0.86163586 -0.39270133 0.29447645
vn 0.51620245 -0.7769793 -0.35445705
vn 0.22097252 -0.5573511 -0.80033123
vn -0.070396505 -0.83374834 -0.54011095
vn 0.42964673 0.84912837 0.30721968
vn 0.7215061 0.68134403 0.123282515
vn -0.40728387 0.8631858 0.29837754
vn 0.1464695 0.978451 -0.14553091
vn -0.47457966 0.7938725 0.38018405
vn -0.43159854 0.28325248 0.8564405
vn -0.12082302 0.6370784 -0.76127
vn -0.8210778 0.0048102736 -0.5707952
vn -0.3724619 -0.10504916 -0.9220824
vn -0.6894108 0.6456796 -0.3283438
vn 0.1464695 0.978451 -0.14553091
vn -0.47457966 0.7938725 0.38018405
vn 0.8775005 0.3452398 -0.33286947
vn 0.523072 0.2823927 -0.8041452
vn -0.3724619 -0.10504916 -0.9220824
vn -0.8210778 0.0048102736 -0.5707952
vn -0.8813753 -0.42121458 0.21390446
vn -0.83005047 -0.5433563 0.12561633
vn 0.21657906 -0.117705226 -0.8873863
vn 0.22097252 -0.5573511 -0.80033123
vn -0.45714104 -0.3984695 -0.78647834
vn -0.070396505 -0.83374834 -0.54011095
vn -0.122990236 -0.77982616 -0.6137936
vn -0.87053746 -0.44713643 -0.20531984
vn -0.8327195 -0.48141223 -0.273533
vn -0.043354914 0.02005317 -0.998048
vn 0.5750909 -0.6308567 -0.5200575
vn -0.69222456 0.106348515 -0.71258664
vn 0.9181456 -0.16672061 -0.3591025
vn -0.4579788 0.7425265 -0.48278758
vn 0.48480144 0.726861 -0.48122162
vn 0.742925 -0.3281939 -0.45679355
vn 0.57005686 -0.6513704 -0.38798976
vn 0.28197956 -0.73911345 -0.39446998
vn -0.009425982 -0.8290961 -0.043095782
vn -0.0054640174 -0.90909314 -0.06616771
vn 0.111348584 -0.92453766 -0.28235728
vn 0.5268466 -0.45748156 -0.6027732
vn 0.15510024 -0.7735351 -0.5889864
vn 0.029290337 -0.9655327 -0.09946352
vn 0.4251105 -0.35328496 -0.8071163
vn -0.0810075 -0.48570207 -0.83529246
vn 0.5375521 -0.77188563 -0.2781742
vn 0.2051001 -0.9502356 -0.0071819127
vn 0.6932472 -0.6941035 -0.065244436
vn 0.57115823 -0.41213974 0.67640257
vn 0.46834067 -0.62087387 0.5749329
vn 0.51620245 -0.7769793 -0.35445705
vn 0.22097252 -0.5573511 -0.80033123
vn 0.86163586 -0.39270133 0.29447645
vn 0.48030275 -0.3242384 0.7780059
vn 0.57005686 -0.6513704 -0.38798976
vn -0.03136449 -0.88794786 -0.3524769
vn -0.009425982 -0.8290961 -0.043095782
vn 0.3331679 -0.78306633 -0.23355736
vn -0.022584876 -0.829121 -0.25509185
vn -0.06366171 -0.52412426 -0.7074235
vn 0.4835307 -0.6886621 0.28760725
vn -0.2963801 -0.66726124 -0.50657237
vn 0.07195381 -0.71138066 0.6011629
vn 0.4239059 -0.6075243 0.6201163
vn 0.7416029 -0.20504802 0.59947205
vn 0.80355805 -0.34102237 0.4686247
vn 0.82970476 -0.4393172 0.2529583
vn 0.080348164 -0.7431012 0.5365943
vn -0.6317641 -0.61285144 0.32615027
vn -0.42140496 -0.8646575 -0.12436898
vn 0.78298616 -0.166617 0.57628995
vn 0.8869747 -0.25455454 0.37938377
vn 0.44787356 -0.45111495 0.7707644
vn 0.991547 -0.103277504 -0.025470912
vn 0.6932472 -0.6941035 -0.065244436
vn 0.57115823 -0.41213974 0.67640257
vn 0.5375521 -0.77188563 -0.2781742
vn 0.8118711 0.033450738 -0.57126737
vn 0.90793777 -0.38884735 -0.14048198
vn 0.7134175 -0.6056347 -0.34522134
vn 0.5744213 -0.81849074 -0.0106037855
vn 0.929676 -0.3601674 -0.003425151
vn 0.95043707 -0.2863745 -0.10302692
vn 0.52810013 -0.8372257 0.01826647
vn 0.5912293 -0.7609439 -0.22457576
vn 0.52724445 -0.39671424 -0.73396957
vn 0.0860849 -0.23109765 0.950609
vn 0.44787356 -0.45111495 0.7707644
vn 0.06920523 -0.6383656 0.7613601
vn 0.01320436 -0.9900918 0.13979658
vn 0.5744213 -0.81849074 -0.0106037855
vn 0.8869747 -0.25455454 0.37938377
vn -0.48136503 0.86560297 0.070548534
vn 0.7215061 0.68134403 0.123282515
vn 0.17222813 0.95889246 0.17043516
vn -0.40728387 0.8631858 0.29837754
vn -0.85476613 0.39251417 -0.33439308
vn -0.97386605 -0.17898732 -0.13981417
vn -0.6253226 -0.5674896 -0.53565526
vn -0.27803314 -0.86633015 -0.41493225
vn 0.32559955 -0.52588254 -0.7857682
vn 0.78702563 -0.5386201 -0.30079627
vn -0.1848412 -0.94360024 -0.25466913
vn -0.78824884 -0.24003285 -0.55916715
vn 0.5217417 -0.8444175 0.018223584
vn -0.070396505 -0.83374834 -0.54011095
vn 0.3945495 -0.90424085 0.11437082
vn 0.779956 -0.60629004 -0.15060267
vn 0.57115823 -0.41213974 0.67640257
vn 0.07247707 -0.5873735 0.768974
vn 0.08134156 -0.493282 0.83616495
vn 0.78298616 -0.166617 0.57628995
vn 0.0860849 -0.23109765 0.950609
vn 0.5912293 -0.7609439 -0.22457576
vn -0.019882694 -0.9551119 -0.22591305
vn -0.032094993 -0.91726655 -0.36073762
vn 0.52810013 -0.8372257 0.01826647
vn 0.514769 -0.81530297 -0.23792657
vn 0.929676 -0.3601674 -0.003425151
vn 0.90793777 -0.38884735 -0.14048198
vn 0.8118711 0.033450738 -0.57126737
vn -0.08658874 0.15091494 -0.953949
vn 0.52724445 -0.39671424 -0.73396957
vn -0.06588565 -0.6441822 -0.7327286
vn -0.019882694 -0.9551119 -0.22591305
vn 0.5912293 -0.7609439 -0.22457576
vn -0.053301584 -0.78879404 -0.59446454
vn 0.4378083 -0.8113624 -0.3843686
vn 0.514769 -0.81530297 -0.23792657
vn 0.01320436 -0.9900918 0.13979658
vn 0.5744213 -0.81849074 -0.0106037855
vn 0.4378083 -0.8113624 -0.3843686
vn 0.01320436 -0.9900918 0.13979658
vn 0.7134175 -0.6056347 -0.34522134
vn 0.514769 -0.81530297 -0.23792657
vn 0.90793777 -0.38884735 -0.14048198
vn -0.8210778 0.0048102736 -0.5707952
vn -0.6894108 0.6456796 -0.3283438
vn -0.8813753 -0.42121458 0.21390446
vn -0.43159854 0.28325248 0.8564405
vn -0.47457966 0.7938725 0.38018405
vn -0.83005047 -0.5433563 0.12561633
vn -0.8813753 -0.42121458 0.21390446
vn -0.43159854 0.28325248 0.8564405
vn -0.40728387 0.8631858 0.29837754
vn 0.47835255 -0.76619804 0.42909044
vn 0.8068574 -0.43653983 -0.39801273
vn -0.49023488 -0.8297558 0.26678574
vn 0.21829164 -0.9663478 -0.13608605
vn 0.069111235 -0.5731081 -0.81656
vn -0.60623807 -0.5981374 -0.52412474
vn 0.7808284 -0.16750729 0.60187066
vn 0.21829164 -0.9663478 -0.13608605
vn 0.8068574 -0.43653983 -0.39801273
vn 0.96034276 -0.24766359 -0.1280808
vn 0.47835255 -0.76619804 0.42909044
vn 0.12478279 -0.6718886 0.73006475
vn 0.9192109 -0.34683686 0.18642835
vn 0.53166896 0.44329494 -0.72167736
vn -0.2925235 -0.924714 0.013045028
vn -0.6434073 -0.56115013 -0.46085483
vn -0.39955285 -0.6289482 -0.6096087
vn -0.82932705 -0.39179677 -0.35323787
vn -0.974566 -0.20214248 0.026780177
vn -0.6324685 -0.68545014 -0.23651975
vn -0.96444196 -0.24388775 0.07385638
vn -0.50668097 -0.57503235 -0.551799
vn -0.22711526 0.69231856 -0.5644708
vn -0.8899503 0.39662752 0.14247867
vn -0.39870209 0.785015 0.324591
vn -0.7246306 0.5709868 0.28088263
vn -0.96502304 0.1262181 0.22925255
vn -0.47922453 0.67693496 0.52512455
vn -0.7576256 0.23699619 0.5970309
vn -0.9873783 -0.15718612 0.008825999
vn -0.79553115 -0.45517036 -0.3850405
vn -0.7076253 -0.6448552 -0.22916247
vn -0.8481528 -0.23719934 -0.46146065
vn -0.9754578 -0.073401496 0.20748067
vn -0.30672652 0.35046023 0.8849271
vn -0.46483147 0.50147736 0.71008676
vn -0.9545944 0.29228342 -0.043363653
vn 0.32701334 -0.148096 -0.92632174
vn -0.5224948 -0.5160279 -0.67168903
vn -0.8481528 -0.23719934 -0.46146065
vn 0.8101717 0.35869578 -0.46317208
vn 0.16394103 -0.3641876 -0.9167833
vn 0.76471984 0.43079638 -0.47918457
vn 0.008363979 0.75588125 -0.65465385
vn -0.35187334 -0.29702687 -0.88489723
vn -0.9545944 0.29228342 -0.043363653
vn -0.9754578 -0.073401496 0.20748067
vn -0.6663671 0.55758876 -0.49033937
vn 0.6401086 0.74870604 0.14152351
vn 0.91044074 0.18390684 0.3676978
vn 0.47109774 0.5835114 0.63649344
vn 0.8101717 0.35869578 -0.46317208
vn 0.32701334 -0.148096 -0.92632174
vn 0.9458545 0.26306656 -0.17985982
vn 0.32369894 0.41894758 0.8108925
vn 0.5961243 -0.2517584 -0.72601414
vn 0.9819892 0.17793676 0.012641251
vn 0.75345254 0.5541791 -0.2673847
vn 0.17157924 -0.2512889 -0.87959826
vn -0.077941 -0.13800195 -0.8628733
vn -0.06525225 0.45518512 -0.7244443
vn -0.47922453 0.67693496 0.52512455
vn 0.32369894 0.41894758 0.8108925
vn 0.75345254 0.5541791 -0.2673847
vn -0.7576256 0.23699619 0.5970309
vn -0.30672652 0.35046023 0.8849271
vn 0.91044074 0.18390684 0.3676978
vn 0.47109774 0.5835114 0.63649344
vn -0.46483147 0.50147736 0.71008676
vn -0.691287 0.469367 0.5069072
vn -0.07243025 0.95148367 0.02726883
vn -0.8006724 0.039082445 0.5873314
vn -0.6192494 0.7161011 -0.080274686
vn -0.05961065 0.54968816 -0.7516253
vn -0.62308663 0.42180073 -0.65867066
vn 0.54307896 0.40541673 -0.678537
vn -0.11142531 0.9436639 0.009423599
vn -0.43245265 0.75493526 0.4337441
vn -0.23565088 0.35316864 0.857386
vn -0.39870209 0.785015 0.324591
vn -0.33226714 0.15664123 0.89045316
vn -0.8006724 0.039082445 0.5873314
vn -0.36211404 -0.49874884 0.7463705
vn 0.08134156 -0.493282 0.83616495
vn -0.4413582 -0.35603723 0.7937399
vn -0.21149169 0.6627641 0.6586162
vn 0.09688988 0.5411389 0.7887762
vn 0.104224935 0.04315561 0.9619255
vn 0.08245802 0.77947706 0.54996705
vn 0.040779233 0.77192914 0.14408726
vn -0.38645583 0.8232057 0.28186566
vn -0.8899503 0.39662752 0.14247867
vn 0.037503336 0.73149127 0.11644806
vn -0.7246306 0.5709868 0.28088263
vn 0.02678949 0.76993614 0.10327733
vn -0.05339398 0.8525803 0.35042915
vn -0.06525225 0.45518512 -0.7244443
vn 0.66138333 -0.7094351 0.048104554
vn 0.2707745 -0.90078604 -0.17523134
vn -0.39955285 -0.6289482 -0.6096087
vn 0.54307896 0.40541673 -0.678537
vn -0.22711526 0.69231856 -0.5644708
vn -0.11142531 0.9436639 0.009423599
vn 0.82358503 -0.32408503 -0.43909174
vn 0.9192109 -0.34683686 0.18642835
vn -0.49023488 -0.8297558 0.26678574
vn -0.60623807 -0.5981374 -0.52412474
vn -0.8782809 -0.073742285 -0.47242445
vn -0.8730638 -0.29420343 0.3888501
vn -0.62308663 0.42180073 -0.65867066
vn -0.2917225 0.5910596 -0.7520279
vn -0.067749895 0.14760661 -0.986723
vn -0.938541 0.27353567 0.1653915
vn -0.57224613 -0.27038184 0.7185093
vn -0.6192494 0.7161011 -0.080274686
vn -0.76306623 0.3328598 0.4959405
vn -0.41846502 -0.34017932 0.7930363
vn -0.691287 0.469367 0.5069072
vn -0.8218675 -0.3540891 0.43742746
vn -0.8006724 0.039082445 0.5873314
vn -0.60826665 -0.6944852 0.37237224
vn -0.4028329 -0.9117028 -0.08076553
vn -0.080430984 -0.9259699 0.297534
vn -0.2917225 0.5910596 -0.7520279
vn 0.53166896 0.44329494 -0.72167736
vn -0.62308663 0.42180073 -0.65867066
vn -0.067749895 0.14760661 -0.986723
vn 0.60312915 0.4909258 -0.6286713
vn 0.5807391 0.8140442 -0.008595765
vn 0.069111235 -0.5731081 -0.81656
vn 0.21829164 -0.9663478 -0.13608605
vn 0.72302496 -0.6805773 -0.118528366
vn 0.6938966 -0.25738198 -0.67250437
vn -0.067749895 0.14760661 -0.986723
vn 0.60312915 0.4909258 -0.6286713
vn -0.8782809 -0.073742285 -0.47242445
vn -0.60623807 -0.5981374 -0.52412474
vn 0.21829164 -0.9663478 -0.13608605
vn 0.7808284 -0.16750729 0.60187066
vn 0.85672975 -0.06000364 0.51226354
vn 0.72302496 -0.6805773 -0.118528366
vn -0.39955285 -0.6289482 -0.6096087
vn 0.2707745 -0.90078604 -0.17523134
vn -0.4028329 -0.9117028 -0.08076553
vn -0.080430984 -0.9259699 0.297534
vn 0.008363979 0.75588125 -0.65465385
vn 0.76471984 0.43079638 -0.47918457
vn 0.8101717 0.35869578 -0.46317208
vn -0.031752896 0.9797225 0.17353101
vn -0.6663671 0.55758876 -0.49033937
vn 0.6401086 0.74870604 0.14152351
vn -0.9545944 0.29228342 -0.043363653
vn 0.47109774 0.5835114 0.63649344
vn -0.46483147 0.50147736 0.71008676
vn -0.82932705 -0.39179677 -0.35323787
vn -0.36292008 -0.79876363 -0.39379662
vn -0.6324685 -0.68545014 -0.23651975
vn -0.009425982 -0.8290961 -0.043095782
vn -0.0054640174 -0.90909314 -0.06616771
vn -0.1654948 -0.93378264 -0.15424347
vn -0.6434073 -0.56115013 -0.46085483
vn -0.2925235 -0.924714 0.013045028
vn -0.049664136 -0.9618243 -0.024897754
vn -0.56445485 -0.39395142 -0.69081444
vn -0.0810075 -0.48570207 -0.83529246
vn -0.5823815 -0.78223 -0.10377705
vn -0.21174583 -0.91875225 0.19311234
vn -0.695956 -0.69009423 0.11046046
vn -0.4413582 -0.35603723 0.7937399
vn -0.36211404 -0.49874884 0.7463705
vn -0.60826665 -0.6944852 0.37237224
vn -0.4028329 -0.9117028 -0.08076553
vn -0.8006724 0.039082445 0.5873314
vn -0.33226714 0.15664123 0.89045316
vn -0.6324685 -0.68545014 -0.23651975
vn -0.009425982 -0.8290961 -0.043095782
vn -0.03136449 -0.88794786 -0.3524769
vn -0.41466954 -0.4873544 -0.6759716
vn -0.022584876 -0.829121 -0.25509185
vn -0.06366171 -0.52412426 -0.7074235
vn -0.50668097 -0.57503235 -0.551799
vn 0.17157924 -0.2512889 -0.87959826
vn -0.08465133 -0.59096 -0.75007695
vn -0.42835045 -0.56206256 -0.6769086
vn -0.7076253 -0.6448552 -0.22916247
vn -0.79553115 -0.45517036 -0.3850405
vn -0.8481528 -0.23719934 -0.46146065
vn -0.11222611 -0.38902116 -0.89664
vn 0.5961243 -0.2517584 -0.72601414
vn 0.32701334 -0.148096 -0.92632174
vn -0.66710395 -0.15139174 0.71503067
vn -0.30184624 -0.45154208 0.8385534
vn -0.8042501 -0.2555181 0.53230274
vn -0.9804419 -0.10302108 0.16155083
vn -0.695956 -0.69009423 0.11046046
vn -0.4413582 -0.35603723 0.7937399
vn -0.5823815 -0.78223 -0.10377705
vn -0.901247 0.024244502 -0.41652352
vn -0.91797066 -0.38988754 0.02461499
vn -0.7630847 -0.60647607 -0.21171731
vn -0.56608164 -0.81914055 0.09251951
vn -0.9148689 -0.36125445 0.16440558
vn -0.9532482 -0.287781 0.070220664
vn -0.5153121 -0.8378202 0.11261077
vn -0.6210625 -0.7616346 -0.11496158
vn -0.64989805 -0.39738488 -0.62753344
vn 0.0860849 -0.23109765 0.950609
vn 0.06920523 -0.6383656 0.7613601
vn -0.30184624 -0.45154208 0.8385534
vn 0.01320436 -0.9900918 0.13979658
vn -0.56608164 -0.81914055 0.09251951
vn -0.8042501 -0.2555181 0.53230274
vn 0.54307896 0.40541673 -0.678537
vn -0.05961065 0.54968816 -0.7516253
vn -0.62308663 0.42180073 -0.65867066
vn 0.53166896 0.44329494 -0.72167736
vn 0.82358503 -0.32408503 -0.43909174
vn 0.9192109 -0.34683686 0.18642835
vn 0.47835255 -0.76619804 0.42909044
vn -0.49023488 -0.8297558 0.26678574
vn 0.12478279 -0.6718886 0.73006475
vn -0.8730638 -0.29420343 0.3888501
vn 0.051873304 -0.5533492 0.7926829
vn 0.66138333 -0.7094351 0.048104554
vn -0.57224613 -0.27038184 0.7185093
vn -0.080430984 -0.9259699 0.297534
vn -0.41846502 -0.34017932 0.7930363
vn -0.8218675 -0.3540891 0.43742746
vn -0.4413582 -0.35603723 0.7937399
vn 0.08134156 -0.493282 0.83616495
vn 0.07247707 -0.5873735 0.768974
vn -0.66710395 -0.15139174 0.71503067
vn 0.0860849 -0.23109765 0.950609
vn -0.6210625 -0.7616346 -0.11496158
vn -0.032094993 -0.91726655 -0.36073762
vn -0.019882694 -0.9551119 -0.22591305
vn -0.5153121 -0.8378202 0.11261077
vn -0.54817575 -0.81590855 -0.14181608
vn -0.9148689 -0.36125445 0.16440558
vn -0.91797066 -0.38988754 0.02461499
vn -0.901247 0.024244502 -0.41652352
vn -0.64989805 -0.39738488 -0.62753344
vn -0.08658874 0.15091494 -0.953949
vn -0.06588565 -0.6441822 -0.7327286
vn -0.019882694 -0.9551119 -0.22591305
vn -0.6210625 -0.7616346 -0.11496158
vn -0.053301584 -0.78879404 -0.59446454
vn -0.54817575 -0.81590855 -0.14181608
vn -0.49873516 -0.811896 -0.2996871
vn 0.01320436 -0.9900918 0.13979658
vn -0.56608164 -0.81914055 0.09251951
vn 0.01320436 -0.9900918 0.13979658
vn -0.49873516 -0.811896 -0.2996871
vn -0.7630847 -0.60647607 -0.21171731
vn -0.54817575 -0.81590855 -0.14181608
vn -0.91797066 -0.38988754 0.02461499
vn 0.72302496 -0.6805773 -0.118528366
vn 0.85672975 -0.06000364 0.51226354
vn 0.6938966 -0.25738198 -0.67250437
vn 0.5807391 0.8140442 -0.008595765
vn 0.60312915 0.4909258 -0.6286713
vn 0.7808284 -0.16750729 0.60187066
vn 0.53166896 0.44329494 -0.72167736
vn 0.5807391 0.8140442 -0.008595765
vn 0.85672975 -0.06000364 0.51226354
vn 0.4251105 -0.35328496 -0.8071163
vn 0.3434091 0.47814214 -0.77843577
vn 0.5375521 -0.77188563 -0.2781742
vn -0.0810075 -0.48570207 -0.83529246
vn 0.8118711 0.033450738 -0.57126737
vn -0.08658874 0.15091494 -0.953949
vn 0.45710424 0.33763394 -0.7631927
vn 0.7184208 0.40931982 -0.39971206
vn -0.05851089 0.18793148 -0.842605
vn -0.82108533 -0.10990752 -0.4778487
vn 0.048982106 0.64626575 -0.45630231
vn -0.06525225 0.45518512 -0.7244443
vn -0.47922453 0.67693496 0.52512455
vn -0.04734905 0.8534447 -0.3216098
vn -0.7246306 0.5709868 0.28088263
vn 0.75345254 0.5541791 -0.2673847
vn -0.05339398 0.8525803 0.35042915
vn -0.06525225 0.45518512 -0.7244443
vn -0.901247 0.024244502 -0.41652352
vn -0.08658874 0.15091494 -0.953949
vn -0.47715816 0.44075137 -0.72156113
vn -0.5823815 -0.78223 -0.10377705
vn -0.0810075 -0.48570207 -0.83529246
vn -0.56445485 -0.39395142 -0.69081444
g 0.2000_0
f 3/3/3 2/2/2 1/1/1
f 6/6/6 5/5/5 4/4/4
f 9/9/9 8/8/8 7/7/7
f 12/12/12 11/11/11 10/10/10
f 15/15/15 14/14/14 13/13/13
f 18/18/18 17/17/17 16/16/16
f 21/21/21 20/20/20 19/19/19
f 24/24/24 23/23/23 22/22/22
f 27/27/27 26/26/26 25/25/25
f 30/30/30 29/29/29 28/28/28
f 33/33/33 32/32/32 31/31/31
f 36/36/36 35/35/35 34/34/34
f 39/39/39 38/38/38 37/37/37
f 42/42/42 41/41/41 40/40/40
f 45/45/45 44/44/44 43/43/43
f 48/48/48 47/47/47 46/46/46
f 51/51/51 50/50/50 49/49/49
f 54/54/54 53/53/53 52/52/52
f 57/57/57 56/56/56 55/55/55
f 60/60/60 59/59/59 58/58/58
f 63/63/63 62/62/62 61/61/61
f 66/66/66 65/65/65 64/64/64
f 69/69/69 68/68/68 67/67/67
f 72/72/72 71/71/71 70/70/70
f 75/75/75 74/74/74 73/73/73
f 78/78/78 77/77/77 76/76/76
f 81/81/81 80/80/80 79/79/79
f 81/81/81 82/82/82 80/80/80
f 82/82/82 83/83/83 80/80/80
f 83/83/83 84/84/84 80/80/80
f 87/87/87 86/86/86 85/85/85
f 86/86/86 88/88/88 85/85/85
f 86/86/86 89/89/89 88/88/88
f 85/85/85 88/88/88 89/89/89
f 89/89/89 90/90/90 85/85/85
f 90/90/90 91/91/91 85/85/85
f 85/85/85 91/91/91 92/92/92
f 95/95/95 94/94/94 93/93/93
f 94/94/94 95/95/95 96/96/96
f 94/94/94 96/96/96 97/97/97
f 96/96/96 98/98/98 97/97/97
f 97/97/97 98/98/98 99/99/99
f 100/100/100 99/99/99 98/98/98
f 97/97/97 101/101/101 94/94/94
f 97/97/97 102/102/102 101/101/101
f 102/102/102 97/97/97 99/99/99
f 102/102/102 103/103/103 101/101/101
f 99/99/99 104/104/104 102/102/102
f 104/104/104 99/99/99 105/105/105
f 105/105/105 106/106/106 104/104/104
f 105/105/105 107/107/107 106/106/106
f 105/105/105 99/99/99 108/108/108
f 109/109/109 108/108/108 99/99/99
f 110/110/110 109/109/109 99/99/99
f 109/109/109 111/111/111 108/108/108
f 105/105/105 108/108/108 111/111/111
f 111/111/111 107/107/107 105/105/105
f 112/112/112 107/107/107 111/111/111
f 107/107/107 112/112/112 113/113/113
f 112/112/112 114/114/114 113/113/113
f 112/112/112 115/115/115 114/114/114
f 118/118/118 117/117/117 116/116/116
f 119/119/119 118/118/118 116/116/116
f 118/118/118 119/119/119 120/120/120
f 120/120/120 119/119/119 121/121/121
f 122/122/122 120/120/120 121/121/121
f 120/120/120 122/122/122 123/123/123
f 123/123/123 118/118/118 120/120/120
f 123/123/123 124/124/124 118/118/118
f 118/118/118 124/124/124 125/125/125
f 124/124/124 123/123/123 126/126/126
f 129/129/129 128/128/128 127/127/127
f 129/129/129 127/127/127 130/130/130
f 131/131/131 129/129/129 130/130/130
f 129/129/129 131/131/131 132/132/132
f 129/129/129 132/132/132 133/133/133
f 131/131/131 134/134/134 132/132/132
f 133/133/133 132/132/132 135/135/135
f 135/135/135 132/132/132 134/134/134
f 133/133/133 135/135/135 136/136/136
f 135/135/135 134/134/134 136/136/136
f 136/136/136 134/134/134 137/137/137
f 136/136/136 137/137/137 138/138/138
f 136/136/136 138/138/138 139/139/139
f 142/142/142 141/141/141 140/140/140
f 142/142/142 140/140/140 143/143/143
f 143/143/143 144/144/144 142/142/142
f 145/145/145 142/142/142 144/144/144
f 146/146/146 145/145/145 144/144/144
f 147/147/147 146/146/146 144/144/144
f 150/150/150 149/149/149 148/148/148
f 148/148/148 151/151/151 150/150/150
f 152/152/152 150/150/150 151/151/151
f 152/152/152 151/151/151 153/153/153
f 150/150/150 152/152/152 154/154/154
f 154/154/154 155/155/155 150/150/150
f 156/156/156 150/150/150 155/155/155
f 155/155/155 157/157/157 156/156/156
f 157/157/157 155/155/155 158/158/158
f 156/156/156 157/157/157 159/159/159
f 160/160/160 156/156/156 159/159/159
f 159/159/159 157/157/157 161/161/161
f 162/162/162 161/161/161 157/157/157
f 162/162/162 163/163/163 161/161/161
f 164/164/164 157/157/157 158/158/158
f 164/164/164 165/165/165 157/157/157
f 165/165/165 166/166/166 157/157/157
f 167/167/167 165/165/165 164/164/164
f 168/168/168 167/167/167 164/164/164
f 164/164/164 158/158/158 168/168/168
f 169/169/169 168/168/168 158/158/158
f 169/169/169 158/158/158 170/170/170
f 169/169/169 171/171/171 168/168/168
f 170/170/170 172/172/172 169/169/169
f 173/173/173 171/171/171 169/169/169
f 172/172/172 174/174/174 169/169/169
f 169/169/169 174/174/174 173/173/173
f 175/175/175 173/173/173 174/174/174
f 178/178/178 177/177/177 176/176/176
f 176/176/176 177/177/177 179/179/179
f 180/180/180 179/179/179 177/177/177
f 181/181/181 179/179/179 180/180/180
f 179/179/179 182/182/182 176/176/176
f 176/176/176 182/182/182 183/183/183
f 186/186/186 185/185/185 184/184/184
f 187/187/187 184/184/184 185/185/185
f 188/188/188 187/187/187 185/185/185
f 188/188/188 185/185/185 189/189/189
f 189/189/189 185/185/185 190/190/190
f 187/187/187 188/188/188 191/191/191
f 192/192/192 187/187/187 191/191/191
f 188/188/188 193/193/193 191/191/191
f 192/192/192 191/191/191 194/194/194
f 193/193/193 194/194/194 191/191/191
f 195/195/195 192/192/192 194/194/194
f 193/193/193 196/196/196 194/194/194
f 195/195/195 194/194/194 196/196/196
f 197/197/197 195/195/195 196/196/196
f 196/196/196 198/198/198 197/197/197
f 197/197/197 198/198/198 199/199/199
f 197/197/197 199/199/199 200/200/200
f 197/197/197 200/200/200 201/201/201
f 204/204/204 203/203/203 202/202/202
f 202/202/202 205/205/205 204/204/204
f 205/205/205 206/206/206 204/204/204
f 206/206/206 207/207/207 204/204/204
f 210/210/210 209/209/209 208/208/208
f 209/209/209 211/211/211 208/208/208
f 208/208/208 211/211/211 212/212/212
f 211/211/211 213/213/213 212/212/212
f 214/214/214 208/208/208 212/212/212
f 214/214/214 215/215/215 208/208/208
f 218/218/218 217/217/217 216/216/216
f 219/219/219 218/218/218 216/216/216
f 222/222/222 221/221/221 220/220/220
f 222/222/222 223/223/223 221/221/221
f 226/226/226 225/225/225 224/224/224
f 225/225/225 227/227/227 224/224/224
f 224/224/224 227/227/227 228/228/228
f 229/229/229 227/227/227 225/225/225
f 228/228/228 227/227/227 230/230/230
f 227/227/227 229/229/229 231/231/231
f 232/232/232 230/230/230 227/227/227
f 227/227/227 231/231/231 232/232/232
f 235/235/235 234/234/234 233/233/233
f 236/236/236 234/234/234 235/235/235
f 235/235/235 237/237/237 236/236/236
f 238/238/238 237/237/237 235/235/235
f 235/235/235 239/239/239 238/238/238
f 238/238/238 239/239/239 240/240/240
f 241/241/241 237/237/237 238/238/238
f 237/237/237 241/241/241 242/242/242
f 243/243/243 237/237/237 242/242/242
f 242/242/242 241/241/241 244/244/244
f 238/238/238 244/244/244 241/241/241
f 238/238/238 240/240/240 244/244/244
f 244/244/244 240/240/240 245/245/245
f 245/245/245 246/246/246 244/244/244
f 247/247/247 246/246/246 245/245/245
f 247/247/247 245/245/245 248/248/248
f 245/245/245 240/240/240 249/249/249
f 249/249/249 248/248/248 245/245/245
f 249/249/249 240/240/240 250/250/250
f 249/249/249 251/251/251 248/248/248
f 248/248/248 251/251/251 252/252/252
f 255/255/255 254/254/254 253/253/253
f 254/254/254 256/256/256 253/253/253
f 257/257/257 256/256/256 254/254/254
f 257/257/257 258/258/258 256/256/256
f 256/256/256 259/259/259 253/253/253
f 258/258/258 260/260/260 256/256/256
f 259/259/259 256/256/256 260/260/260
f 259/259/259 260/260/260 261/261/261
f 261/261/261 262/262/262 259/259/259
f 259/259/259 262/262/262 263/263/263
f 262/262/262 264/264/264 263/263/263
f 262/262/262 265/265/265 264/264/264
f 266/266/266 261/261/261 260/260/260
f 261/261/261 266/266/266 262/262/262
f 266/266/266 265/265/265 262/262/262
f 267/267/267 266/266/266 260/260/260
f 266/266/266 268/268/268 265/265/265
f 267/267/267 268/268/268 266/266/266
f 271/271/271 270/270/270 269/269/269
f 269/269/269 270/270/270 272/272/272
f 273/273/273 269/269/269 272/272/272
f 274/274/274 269/269/269 273/273/273
f 273/273/273 272/272/272 275/275/275
f 275/275/275 272/272/272 276/276/276
f 277/277/277 272/272/272 270/270/270
f 270/270/270 278/278/278 277/277/277
f 279/279/279 278/278/278 270/270/270
f 280/280/280 272/272/272 277/277/277
f 281/281/281 272/272/272 280/280/280
f 272/272/272 281/281/281 276/276/276
f 280/280/280 282/282/282 281/281/281
f 282/282/282 283/283/283 281/281/281
f 276/276/276 281/281/281 283/283/283
f 284/284/284 276/276/276 283/283/283
f 287/287/287 286/286/286 285/285/285
f 287/287/287 288/288/288 286/286/286
f 288/288/288 289/289/289 286/286/286
f 289/289/289 290/290/290 286/286/286
f 293/293/293 292/292/292 291/291/291
f 292/292/292 294/294/294 291/291/291
f 291/291/291 294/294/294 295/295/295
f 296/296/296 295/295/295 294/294/294
f 299/299/299 298/298/298 297/297/297
f 299/299/299 300/300/300 298/298/298
f 298/298/298 300/300/300 301/301/301
f 301/301/301 302/302/302 298/298/298
f 300/300/300 303/303/303 301/301/301
f 301/301/301 304/304/304 302/302/302
f 301/301/301 303/303/303 304/304/304
f 305/305/305 304/304/304 303/303/303
f 305/305/305 306/306/306 304/304/304
f 309/309/309 308/308/308 307/307/307
f 310/310/310 307/307/307 308/308/308
f 311/311/311 310/310/310 308/308/308
f 314/314/314 313/313/313 312/312/312
f 315/315/315 314/314/314 312/312/312
f 316/316/316 314/314/314 315/315/315
f 316/316/316 315/315/315 317/317/317
f 318/318/318 316/316/316 317/317/317
f 321/321/321 320/320/320 319/319/319
f 321/321/321 322/322/322 320/320/320
f 323/323/323 322/322/322 321/321/321
f 324/324/324 323/323/323 321/321/321
f 327/327/327 326/326/326 325/325/325
f 325/325/325 326/326/326 328/328/328
f 331/331/331 330/330/330 329/329/329
f 330/330/330 332/332/332 329/329/329
f 332/332/332 330/330/330 333/333/333
f 334/334/334 332/332/332 333/333/333
f 337/337/337 336/336/336 335/335/335
f 337/337/337 338/338/338 336/336/336
f 339/339/339 336/336/336 338/338/338
f 342/342/342 341/341/341 340/340/340
f 343/343/343 342/342/342 340/340/340
f 346/346/346 345/345/345 344/344/344
f 347/347/347 345/345/345 346/346/346
f 348/348/348 347/347/347 346/346/346
f 349/349/349 348/348/348 346/346/346
f 352/352/352 351/351/351 350/350/350
f 353/353/353 352/352/352 350/350/350
f 354/354/354 352/352/352 353/353/353
f 353/353/353 350/350/350 354/354/354
f 355/355/355 354/354/354 350/350/350
f 356/356/356 355/355/355 350/350/350
f 356/356/356 350/350/350 357/357/357
f 360/360/360 359/359/359 358/358/358
f 359/359/359 360/360/360 361/361/361
f 361/361/361 360/360/360 362/362/362
f 363/363/363 361/361/361 362/362/362
f 363/363/363 362/362/362 364/364/364
f 364/364/364 365/365/365 363/363/363
f 366/366/366 362/362/362 360/360/360
f 367/367/367 362/362/362 366/366/366
f 362/362/362 367/367/367 364/364/364
f 368/368/368 367/367/367 366/366/366
f 369/369/369 364/364/364 367/367/367
f 364/364/364 369/369/369 370/370/370
f 371/371/371 370/370/370 369/369/369
f 372/372/372 370/370/370 371/371/371
f 364/364/364 370/370/370 373/373/373
f 373/373/373 374/374/374 364/364/364
f 374/374/374 375/375/375 364/364/364
f 376/376/376 374/374/374 373/373/373
f 373/373/373 370/370/370 376/376/376
f 372/372/372 376/376/376 370/370/370
f 372/372/372 377/377/377 376/376/376
f 377/377/377 372/372/372 378/378/378
f 379/379/379 377/377/377 378/378/378
f 380/380/380 377/377/377 379/379/379
f 383/383/383 382/382/382 381/381/381
f 382/382/382 384/384/384 381/381/381
f 384/384/384 382/382/382 385/385/385
f 384/384/384 385/385/385 386/386/386
f 385/385/385 387/387/387 386/386/386
f 387/387/387 385/385/385 388/388/388
f 382/382/382 388/388/388 385/385/385
f 389/389/389 388/388/388 382/382/382
f 389/389/389 382/382/382 390/390/390
f 388/388/388 389/389/389 391/391/391
f 394/394/394 393/393/393 392/392/392
f 392/392/392 393/393/393 395/395/395
f 393/393/393 396/396/396 395/395/395
f 396/396/396 393/393/393 397/397/397
f 397/397/397 393/393/393 398/398/398
f 399/399/399 396/396/396 397/397/397
f 397/397/397 398/398/398 400/400/400
f 397/397/397 400/400/400 399/399/399
f 400/400/400 398/398/398 401/401/401
f 399/399/399 400/400/400 401/401/401
f 399/399/399 401/401/401 402/402/402
f 402/402/402 401/401/401 403/403/403
f 403/403/403 401/401/401 404/404/404
f 407/407/407 406/406/406 405/405/405
f 405/405/405 406/406/406 408/408/408
f 409/409/409 408/408/408 406/406/406
f 406/406/406 410/410/410 409/409/409
f 410/410/410 411/411/411 409/409/409
f 411/411/411 412/412/412 409/409/409
f 415/415/415 414/414/414 413/413/413
f 416/416/416 413/413/413 414/414/414
f 414/414/414 417/417/417 416/416/416
f 416/416/416 417/417/417 418/418/418
f 417/417/417 414/414/414 419/419/419
f 420/420/420 419/419/419 414/414/414
f 414/414/414 421/421/421 420/420/420
f 422/422/422 420/420/420 421/421/421
f 420/420/420 422/422/422 423/423/423
f 422/422/422 421/421/421 424/424/424
f 421/421/421 425/425/425 424/424/424
f 422/422/422 424/424/424 426/426/426
f 426/426/426 427/427/427 422/422/422
f 428/428/428 427/427/427 426/426/426
f 422/422/422 429/429/429 423/423/423
f 430/430/430 429/429/429 422/422/422
f 431/431/431 430/430/430 422/422/422
f 430/430/430 432/432/432 429/429/429
f 432/432/432 433/433/433 429/429/429
f 423/423/423 429/429/429 433/433/433
f 433/433/433 434/434/434 423/423/423
f 423/423/423 434/434/434 435/435/435
f 436/436/436 434/434/434 433/433/433
f 437/437/437 435/435/435 434/434/434
f 436/436/436 438/438/438 434/434/434
f 439/439/439 437/437/437 434/434/434
f 439/439/439 434/434/434 438/438/438
f 438/438/438 440/440/440 439/439/439
f 443/443/443 442/442/442 441/441/441
f 443/443/443 441/441/441 444/444/444
f 444/444/444 445/445/445 443/443/443
f 444/444/444 446/446/446 445/445/445
f 447/447/447 444/444/444 441/441/441
f 447/447/447 441/441/441 448/448/448
f 451/451/451 450/450/450 449/449/449
f 449/449/449 452/452/452 451/451/451
f 452/452/452 453/453/453 451/451/451
f 451/451/451 453/453/453 454/454/454
f 451/451/451 454/454/454 455/455/455
f 453/453/453 452/452/452 456/456/456
f 452/452/452 457/457/457 456/456/456
f 458/458/458 453/453/453 456/456/456
f 456/456/456 457/457/457 459/459/459
f 459/459/459 458/458/458 456/456/456
f 457/457/457 460/460/460 459/459/459
f 461/461/461 458/458/458 459/459/459
f 459/459/459 460/460/460 461/461/461
f 460/460/460 462/462/462 461/461/461
f 463/463/463 461/461/461 462/462/462
f 463/463/463 462/462/462 464/464/464
f 464/464/464 462/462/462 465/465/465
f 465/465/465 462/462/462 466/466/466
f 469/469/469 468/468/468 467/467/467
f 470/470/470 467/467/467 468/468/468
f 471/471/471 470/470/470 468/468/468
f 472/472/472 471/471/471 468/468/468
f 475/475/475 474/474/474 473/473/473
f 476/476/476 475/475/475 473/473/473
f 476/476/476 473/473/473 477/477/477
f 478/478/478 476/476/476 477/477/477
f 473/473/473 479/479/479 477/477/477
f 480/480/480 479/479/479 473/473/473
f 483/483/483 482/482/482 481/481/481
f 484/484/484 483/483/483 481/481/481
f 487/487/487 486/486/486 485/485/485
f 488/488/488 486/486/486 487/487/487
f 491/491/491 490/490/490 489/489/489
f 492/492/492 491/491/491 489/489/489
f 492/492/492 489/489/489 493/493/493
f 492/492/492 494/494/494 491/491/491
f 492/492/492 493/493/493 495/495/495
f 494/494/494 492/492/492 496/496/496
f 495/495/495 497/497/497 492/492/492
f 496/496/496 492/492/492 497/497/497
f 500/500/500 499/499/499 498/498/498
f 500/500/500 501/501/501 499/499/499
f 502/502/502 499/499/499 501/501/501
f 502/502/502 503/503/503 499/499/499
f 504/504/504 499/499/499 503/503/503
f 504/504/504 503/503/503 505/505/505
f 502/502/502 506/506/506 503/503/503
f 506/506/506 502/502/502 507/507/507
f 502/502/502 508/508/508 507/507/507
f 506/506/506 507/507/507 509/509/509
f 509/509/509 503/503/503 506/506/506
f 505/505/505 503/503/503 509/509/509
f 505/505/505 509/509/509 510/510/510
f 511/511/511 510/510/510 509/509/509
f 511/511/511 512/512/512 510/510/510
f 510/510/510 512/512/512 513/513/513
f 505/505/505 510/510/510 514/514/514
f 513/513/513 514/514/514 510/510/510
f 505/505/505 514/514/514 515/515/515
f 516/516/516 514/514/514 513/513/513
f 516/516/516 513/513/513 517/517/517
f 520/520/520 519/519/519 518/518/518
f 521/521/521 520/520/520 518/518/518
f 521/521/521 522/522/522 520/520/520
f 523/523/523 522/522/522 521/521/521
f 524/524/524 521/521/521 518/518/518
f 525/525/525 523/523/523 521/521/521
f 521/521/521 524/524/524 525/525/525
f 525/525/525 524/524/524 526/526/526
f 527/527/527 526/526/526 524/524/524
f 527/527/527 524/524/524 528/528/528
f 529/529/529 527/527/527 528/528/528
f 530/530/530 527/527/527 529/529/529
f 526/526/526 531/531/531 525/525/525
f 531/531/531 526/526/526 527/527/527
f 530/530/530 531/531/531 527/527/527
f 531/531/531 532/532/532 525/525/525
f 533/533/533 531/531/531 530/530/530
f 533/533/533 532/532/532 531/531/531
f 536/536/536 535/535/535 534/534/534
f 536/536/536 534/534/534 537/537/537
f 534/534/534 538/538/538 537/537/537
f 534/534/534 539/539/539 538/538/538
f 537/537/537 538/538/538 540/540/540
f 537/537/537 540/540/540 541/541/541
f 537/537/537 542/542/542 536/536/536
f 543/543/543 536/536/536 542/542/542
f 543/543/543 544/544/544 536/536/536
f 537/537/537 545/545/545 542/542/542
f 537/537/537 546/546/546 545/545/545
f 546/546/546 537/537/537 541/541/541
f 547/547/547 545/545/545 546/546/546
f 548/548/548 547/547/547 546/546/546
f 546/546/546 541/541/541 548/548/548
f 541/541/541 549/549/549 548/548/548
f 552/552/552 551/551/551 550/550/550
f 553/553/553 551/551/551 552/552/552
f 554/554/554 553/553/553 552/552/552
f 555/555/555 554/554/554 552/552/552
f 558/558/558 557/557/557 556/556/556
f 559/559/559 558/558/558 556/556/556
f 559/559/559 556/556/556 560/560/560
f 560/560/560 561/561/561 559/559/559
f 564/564/564 563/563/563 562/562/562
f 565/565/565 563/563/563 564/564/564
f 565/565/565 564/564/564 566/566/566
f 567/567/567 566/566/566 564/564/564
f 568/568/568 565/565/565 566/566/566
f 569/569/569 566/566/566 567/567/567
f 568/568/568 566/566/566 569/569/569
f 569/569/569 570/570/570 568/568/568
f 571/571/571 570/570/570 569/569/569
f 574/574/574 573/573/573 572/572/572
f 572/572/572 575/575/575 574/574/574
f 575/575/575 576/576/576 574/574/574
f 579/579/579 578/578/578 577/577/577
f 578/578/578 580/580/580 577/577/577
f 578/578/578 581/581/581 580/580/580
f 580/580/580 581/581/581 582/582/582
f 581/581/581 583/583/583 582/582/582
f 586/586/586 585/585/585 584/584/584
f 587/587/587 585/585/585 586/586/586
f 587/587/587 588/588/588 585/585/585
f 588/588/588 589/589/589 585/585/585
f 592/592/592 591/591/591 590/590/590
f 592/592/592 590/590/590 593/593/593
f 596/596/596 595/595/595 594/594/594
f 597/597/597 596/596/596 594/594/594
f 596/596/596 597/597/597 598/598/598
f 597/597/597 599/599/599 598/598/598
f 602/602/602 601/601/601 600/600/600
f 603/603/603 601/601/601 602/602/602
f 602/602/602 604/604/604 603/603/603
f 607/607/607 606/606/606 605/605/605
f 608/608/608 607/607/607 605/605/605
f 611/611/611 610/610/610 609/609/609
f 609/609/609 610/610/610 612/612/612
f 613/613/613 610/610/610 611/611/611
f 610/610/610 614/614/614 612/612/612
f 614/614/614 610/610/610 613/613/613
f 617/617/617 616/616/616 615/615/615
f 618/618/618 617/617/617 615/615/615
f 616/616/616 617/617/617 619/619/619
f 617/617/617 618/618/618 620/620/620
f 620/620/620 619/619/619 617/617/617
f 623/623/623 622/622/622 621/621/621
f 622/622/622 624/624/624 621/621/621
f 622/622/622 623/623/623 625/625/625
f 624/624/624 622/622/622 626/626/626
f 625/625/625 626/626/626 622/622/622
f 629/629/629 628/628/628 627/627/627
f 629/629/629 627/627/627 630/630/630
f 628/628/628 629/629/629 631/631/631
f 629/629/629 630/630/630 632/632/632
f 629/629/629 632/632/632 631/631/631
