g 0.2500
v -0.0828765 -0.5637955 0.025786735
v -0.06609082 -0.7370547 0.09762805
v -0.0024221838 -0.860798 0.08566495
v 1.0422897 -1.3956995 2.285562
v 1.0115261 -1.5848627 2.141793
v 0.94151247 -1.4573835 2.2954497
v 0.9349801 -1.4076941 2.2063212
v 0.8989823 -1.267822 2.229143
v 1.006094 -1.3741236 2.1210337
v -0.9821787 0.14871329 1.7084979
v -1.0687588 0.11043763 1.6042521
v -0.93974376 0.0054581165 1.639632
v -1.0687588 0.11043763 1.6042521
v -1.0582044 0.03227842 1.5756656
v -0.93974376 0.0054581165 1.639632
v -0.93974376 0.0054581165 1.639632
v -0.90067184 0.06372857 1.6846037
v -0.9821787 0.14871329 1.7084979
v 0.4932568 0.31276357 0.06654913
v 0.37840387 0.43072307 0.07160102
v 0.3625321 0.35024497 0.10904994
v -1.0582044 0.03227842 1.5756656
v -1.1591767 0.10746753 1.1758792
v -1.0788844 -0.023230791 1.6333922
v -1.0582044 0.03227842 1.5756656
v -1.0684556 0.08772302 1.5601064
v -1.2124643 0.096741915 1.5227692
v -1.0354689 -0.117889285 1.6599914
v -1.0175327 0.038470984 1.8715397
v -0.9745581 -0.04050255 2.068053
v -0.2767248 -0.20318663 2.689617
v -0.71918774 0.14351094 2.3286877
v -0.5793649 0.033583403 2.4408665
v -0.2767248 -0.20318663 2.689617
v -0.5793649 0.033583403 2.4408665
v -0.2918176 -0.39094937 2.5949423
v 0.88052297 -1.2402114 2.2122312
v 0.8159433 -1.3066444 1.9997576
v 0.7918834 -1.3206679 2.1048503
v 0.7918834 -1.3206679 2.1048503
v 0.8989823 -1.267822 2.229143
v 0.88052297 -1.2402114 2.2122312
v 0.9349801 -1.4076941 2.2063212
v 0.9547219 -1.7083663 1.9966526
v 1.00908 -1.6947448 1.9872674
v 0.7122928 -1.4578104 2.3351047
v 0.8179718 -1.191478 2.4350505
v 0.85336757 -1.2831467 2.3511047
v 0.83136624 -0.36498192 2.6403446
v 0.74639845 -0.3704269 2.6991048
v 0.77612674 -0.5065346 2.5711048
v -0.2767248 -0.20318663 2.689617
v -0.2918176 -0.39094937 2.5949423
v -0.17750987 -0.23130977 2.304842
v -0.10552728 -0.11043841 2.4152882
v -0.3018492 -0.19688475 2.8010952
v -0.2767248 -0.20318663 2.689617
v -0.05827421 -0.40584362 0.7850714
v -0.06632292 -0.5110875 1.4797516
v 0.004229605 -0.46349436 1.3355951
v -0.15818292 -0.24056405 0.99387306
v -0.18621 -0.44835877 1.3278054
v -0.112156 -0.32546175 0.67536974
v 0.004229605 -0.46349436 1.3355951
v 0.035459876 -0.2503037 0.9787721
v -0.025021195 -0.27832258 0.460657
v -0.05827421 -0.40584362 0.7850714
v -0.025021195 -0.27832258 0.460657
v 0.013594419 -0.36092034 0.62475085
v -0.05827421 -0.40584362 0.7850714
v 0.013594419 -0.36092034 0.62475085
v 0.01415813 -0.45962933 0.34499356
v 0.01415813 -0.45962933 0.34499356
v 0.013594419 -0.36092034 0.62475085
v 0.009096324 -0.27719212 0.37344533
v -0.07054368 -0.37387955 0.26117298
v -0.13328952 -0.48787272 0.03455092
v 0.009096324 -0.27719212 0.37344533
v -0.0828765 -0.5637955 0.025786735
v 0.09106654 -0.6633091 0.10344024
v 0.112243295 -0.5322835 0.067006536
v 0.09106654 -0.6633091 0.10344024
v -0.0828765 -0.5637955 0.025786735
v -0.0024221838 -0.860798 0.08566495
v 0.12764806 -0.5886523 0.13296103
v 0.01415813 -0.45962933 0.34499356
v 0.009096324 -0.27719212 0.37344533
v 0.37992764 0.26437482 0.77491474
v 0.47798058 -0.0957049 1.1819407
v 0.41966087 0.30957875 0.85243106
v 0.31387293 0.44645065 0.64735377
v 0.3205642 0.23721915 0.84380364
v 0.34469768 0.4015084 0.4433194
v 0.52020323 0.5874361 0.15924783
v 0.6508625 0.2607564 -0.036393344
v 0.56452286 0.46959075 0.16086468
v 0.4932568 0.31276357 0.06654913
v 0.3625321 0.35024497 0.10904994
v 0.45763674 0.20700848 -0.04549101
v 0.68882304 0.50307035 0.17139745
v 0.52020323 0.5874361 0.15924783
v 0.7249261 0.43793046 0.068773955
v 0.08239612 -0.6913165 3.2611406
v 0.09088153 -0.5196475 3.038107
v 0.13126649 -0.78078926 3.1285906
v -0.3879825 -0.34437156 2.855892
v -0.40535885 -0.42510533 2.7148976
v -0.46500802 -0.41179156 2.8437104
v -0.45104516 -0.32797694 2.7232795
v -0.3879825 -0.34437156 2.855892
v -0.46500802 -0.41179156 2.8437104
v 0.86744815 -0.37737724 2.7650313
v 0.74133086 -0.36251315 2.7893822
v 0.47977638 -0.23150712 2.7941682
v 0.83136624 -0.36498192 2.6403446
v 0.47977638 -0.23150712 2.7941682
v 0.97859335 -0.5935491 2.6114087
v 0.91838586 -0.59862113 2.5242233
v 0.88453406 -0.5702618 2.7707305
v 0.96377367 -0.90258133 2.5666277
v 0.77612674 -0.5065346 2.5711048
v 0.91838586 -0.59862113 2.5242233
v 0.83136624 -0.36498192 2.6403446
v 0.3625321 0.35024497 0.10904994
v 0.37840387 0.43072307 0.07160102
v 0.2888072 0.3289404 0.107672125
v -0.9959065 0.023718357 1.5515707
v -0.93974376 0.0054581165 1.639632
v -1.0582044 0.03227842 1.5756656
v 0.12764806 -0.5886523 0.13296103
v 0.112243295 -0.5322835 0.067006536
v 0.09106654 -0.6633091 0.10344024
v 0.09106654 -0.6633091 0.10344024
v -0.027375758 -0.6000984 0.1690501
v 0.01415813 -0.45962933 0.34499356
v -0.13668323 -0.5728997 0.10591427
v -0.13657534 -0.9149642 0.045306757
v -0.08932769 -0.44300526 0.28424063
v -0.05827421 -0.40584362 0.7850714
v -0.112156 -0.32546175 0.67536974
v -0.18621 -0.44835877 1.3278054
v -0.06632292 -0.5110875 1.4797516
v -0.17212048 -0.3444531 1.7064916
v -0.2900724 -0.15330786 1.741897
v 0.007813543 -0.27581504 1.8181652
v -0.08413005 -0.39564312 2.313249
v -0.17750987 -0.23130977 2.304842
v 0.14142245 -0.42554563 2.3095703
v 0.2182259 -0.28335083 1.8522644
v 0.17131712 -0.24004072 1.7661165
v 0.26346338 -0.30241466 2.2986736
v 0.41284534 -0.24183294 1.7129744
v 0.44041353 -0.08281888 1.8084021
v 0.3929666 -0.28707218 1.3206722
v 0.28626627 -0.23154026 1.3161458
v 0.47798058 -0.0957049 1.1819407
v 0.44041353 -0.08281888 1.8084021
v 0.3205642 0.23721915 0.84380364
v 0.47798058 -0.0957049 1.1819407
v 0.27209696 -0.03593105 1.2319872
v 0.24210644 0.17394575 1.0433055
v -0.0815551 -0.5541903 2.5447297
v -0.2918176 -0.39094937 2.5949423
v -0.17750987 -0.23130977 2.304842
v 0.18736604 -0.5658575 2.5591307
v 0.39983284 -0.4159198 2.6558757
v 0.00026772916 -0.57790285 2.8113942
v 0.41622472 -0.4805123 2.7751737
v -0.10223816 -0.48783708 2.963084
v -0.40535885 -0.42510533 2.7148976
v 0.11727291 -0.53155243 2.9427445
v 0.33563018 -0.3510326 2.8941245
v 0.09088153 -0.5196475 3.038107
v 0.3810861 -0.40786618 2.9707296
v -0.558302 -0.06884265 2.5399532
v -0.5793649 0.033583403 2.4408665
v -0.7648244 -0.060148716 2.1762543
v -0.8200693 0.05895245 2.106502
v -0.8670955 0.02506423 1.9075639
v -0.9442719 -0.08482504 1.8890123
v -0.5539597 -0.1292758 2.6077874
v -0.56390977 -0.056242228 2.6666462
v -0.45104516 -0.32797694 2.7232795
v -0.46500802 -0.41179156 2.8437104
v -0.93974376 0.0054581165 1.639632
v -0.80930996 0.041948676 1.5086377
v -0.90749836 0.0033333302 1.4731565
v -0.83973587 0.08101511 1.3879664
v -0.98648 -0.035351753 1.6204832
v -0.9959065 0.023718357 1.5515707
v -1.0354689 -0.117889285 1.6599914
v -1.102151 -0.1206758 1.519319
v -0.06609082 -0.7370547 0.09762805
v -0.13657534 -0.9149642 0.045306757
v -0.027375758 -0.6000984 0.1690501
v 0.9471487 -0.97301126 2.6302686
v 0.82502985 -0.9812579 2.5454915
v 0.96377367 -0.90258133 2.5666277
v 0.56452286 0.46959075 0.16086468
v 0.7249261 0.43793046 0.068773955
v 0.52020323 0.5874361 0.15924783
v 0.85336757 -1.2831467 2.3511047
v 0.80279493 -1.1312993 2.3897238
v 0.7122928 -1.4578104 2.3351047
v -0.98648 -0.035351753 1.6204832
v -1.0788844 -0.023230791 1.6333922
v -1.102151 -0.1206758 1.519319
v -0.9821787 0.14871329 1.7084979
v -1.119033 0.16931534 1.675658
v -1.0687588 0.11043763 1.6042521
v -1.0354689 -0.117889285 1.6599914
v -1.102151 -0.1206758 1.519319
v -1.0788844 -0.023230791 1.6333922
v -1.1591767 0.10746753 1.1758792
v -1.0582044 0.03227842 1.5756656
v -1.1829324 0.17980015 1.1919136
v -1.0582044 0.03227842 1.5756656
v -1.2124643 0.096741915 1.5227692
v -1.1829324 0.17980015 1.1919136
v -1.0175327 0.038470984 1.8715397
v -1.2124643 0.096741915 1.5227692
v -1.119033 0.16931534 1.675658
v -0.3018492 -0.19688475 2.8010952
v -0.71918774 0.14351094 2.3286877
v -0.2767248 -0.20318663 2.689617
v -0.5793649 0.033583403 2.4408665
v -0.8200693 0.05895245 2.106502
v -0.92915416 0.07313037 2.1270595
v -0.8670955 0.02506423 1.9075639
v -0.8058298 0.105932 2.4146516
v -0.56390977 -0.056242228 2.6666462
v -1.0175327 0.038470984 1.8715397
v -1.119033 0.16931534 1.675658
v -0.9821787 0.14871329 1.7084979
v -0.90067184 0.06372857 1.6846037
v -0.3018492 -0.19688475 2.8010952
v -0.3879825 -0.34437156 2.855892
v -0.10584654 -0.17615211 2.8280396
v -0.078713834 -0.29909092 2.9785132
v -0.10223816 -0.48783708 2.963084
v -0.10552728 -0.11043841 2.4152882
v -0.046577305 -0.50640094 3.067139
v 0.22252864 -0.1638971 2.772796
v 0.09088153 -0.5196475 3.038107
v 0.33563018 -0.3510326 2.8941245
v 0.08239612 -0.6913165 3.2611406
v -0.04998511 -0.645502 3.2749975
v -0.14936894 -0.7302922 3.2568803
v -0.10223816 -0.48783708 2.963084
v 0.4400475 -0.30680668 2.8995526
v 0.47977638 -0.23150712 2.7941682
v 0.74133086 -0.36251315 2.7893822
v 0.20423074 -0.12389219 2.431411
v 0.4284544 -0.23417681 2.7140026
v 0.2837989 -0.186728 2.3844876
v 0.07063763 -0.005916178 2.0227578
v -0.124119 0.03371501 2.0158854
v 0.27013016 0.016433269 2.108439
v 0.44041353 -0.08281888 1.8084021
v 0.27099115 0.024934545 1.8104073
v 0.41958123 0.000855729 1.2696685
v 0.27209696 -0.03593105 1.2319872
v 0.12739378 -0.03705871 1.820475
v 0.12739378 -0.03705871 1.820475
v 0.01331237 -0.01796478 1.8013588
v -0.17883837 -0.060604155 1.6212364
v -0.007942468 -0.33902502 1.2718252
v -0.1225577 -0.3131398 1.2748762
v -0.15818292 -0.24056405 0.99387306
v 0.035459876 -0.2503037 0.9787721
v -0.025021195 -0.27832258 0.460657
v -0.112156 -0.32546175 0.67536974
v -0.56390977 -0.056242228 2.6666462
v -0.3879825 -0.34437156 2.855892
v -0.45104516 -0.32797694 2.7232795
v 0.39983284 -0.4159198 2.6558757
v 0.74639845 -0.3704269 2.6991048
v 0.4284544 -0.23417681 2.7140026
v 0.80279493 -1.1312993 2.3897238
v 0.79850405 -1.1978718 2.1270478
v 0.90337 -0.9681505 2.432792
v 0.944381 -1.1429497 2.4379177
v 1.0325714 -1.2297449 2.290904
v 1.0422897 -1.3956995 2.285562
v 0.944381 -1.1429497 2.4379177
v 1.0422897 -1.3956995 2.285562
v 0.94151247 -1.4573835 2.2954497
v 0.8179718 -1.191478 2.4350505
v 0.9471487 -0.97301126 2.6302686
v 0.944381 -1.1429497 2.4379177
v 0.83136624 -0.36498192 2.6403446
v 0.4284544 -0.23417681 2.7140026
v 0.74639845 -0.3704269 2.6991048
v 0.14142245 -0.42554563 2.3095703
v 0.39983284 -0.4159198 2.6558757
v 0.26346338 -0.30241466 2.2986736
v -0.2767248 -0.20318663 2.689617
v -0.17750987 -0.23130977 2.304842
v -0.10552728 -0.11043841 2.4152882
v -0.2900724 -0.15330786 1.741897
v -0.10552728 -0.11043841 2.4152882
v -0.17750987 -0.23130977 2.304842
v 0.004229605 -0.46349436 1.3355951
v -0.025021195 -0.27832258 0.460657
v -0.05827421 -0.40584362 0.7850714
v -0.0024221838 -0.860798 0.08566495
v 0.09293431 -0.9098539 0.09846614
v 0.09106654 -0.6633091 0.10344024
v 0.09106654 -0.6633091 0.10344024
v 0.062476814 -0.7632998 0.17194416
v -0.027375758 -0.6000984 0.1690501
v 0.09106654 -0.6633091 0.10344024
v 0.09293431 -0.9098539 0.09846614
v 0.062476814 -0.7632998 0.17194416
v 0.44041353 -0.08281888 1.8084021
v 0.41958123 0.000855729 1.2696685
v 0.47798058 -0.0957049 1.1819407
v 0.31387293 0.44645065 0.64735377
v 0.24210644 0.17394575 1.0433055
v 0.3205642 0.23721915 0.84380364
v 0.34469768 0.4015084 0.4433194
v 0.37992764 0.26437482 0.77491474
v 0.41966087 0.30957875 0.85243106
v 0.34469768 0.4015084 0.4433194
v 0.41966087 0.30957875 0.85243106
v 0.42645955 0.44982457 0.6380116
v 0.29895258 0.5133838 0.20352599
v 0.2858151 0.5290583 0.52373636
v 0.31634465 0.4372807 0.24537893
v 0.6508625 0.2607564 -0.036393344
v 0.52020323 0.5874361 0.15924783
v 0.4932568 0.31276357 0.06654913
v 0.52020323 0.5874361 0.15924783
v 0.37840387 0.43072307 0.07160102
v 0.4932568 0.31276357 0.06654913
v 0.3625321 0.35024497 0.10904994
v 0.4319724 0.1756673 0.017951246
v 0.45763674 0.20700848 -0.04549101
v 0.31634465 0.4372807 0.24537893
v 0.2888072 0.3289404 0.107672125
v 0.29895258 0.5133838 0.20352599
v 0.68882304 0.50307035 0.17139745
v 0.5118516 0.50805914 0.25507635
v 0.52020323 0.5874361 0.15924783
v 0.11727291 -0.53155243 2.9427445
v 0.13126649 -0.78078926 3.1285906
v 0.09088153 -0.5196475 3.038107
v -0.17222607 -0.8078898 3.0661492
v -0.10223816 -0.48783708 2.963084
v -0.14936894 -0.7302922 3.2568803
v -0.04998511 -0.645502 3.2749975
v 0.08239612 -0.6913165 3.2611406
v -0.40535885 -0.42510533 2.7148976
v -0.3879825 -0.34437156 2.855892
v -0.10223816 -0.48783708 2.963084
v 0.3810861 -0.40786618 2.9707296
v 0.33563018 -0.3510326 2.8941245
v 0.4400475 -0.30680668 2.8995526
v 0.821554 -0.90838283 2.50351
v 0.80279493 -1.1312993 2.3897238
v 0.90337 -0.9681505 2.432792
v 0.86744815 -0.37737724 2.7650313
v 0.88453406 -0.5702618 2.7707305
v 0.74133086 -0.36251315 2.7893822
v -1.0175327 0.038470984 1.8715397
v -0.92915416 0.07313037 2.1270595
v -0.9745581 -0.04050255 2.068053
v -0.13657534 -0.9149642 0.045306757
v -0.0828765 -0.5637955 0.025786735
v -0.13668323 -0.5728997 0.10591427
v -0.13657534 -0.9149642 0.045306757
v -0.06609082 -0.7370547 0.09762805
v -0.0828765 -0.5637955 0.025786735
v -1.0582044 0.03227842 1.5756656
v -1.0687588 0.11043763 1.6042521
v -1.0424819 0.19285947 1.6316394
v -1.0582044 0.03227842 1.5756656
v -1.0424819 0.19285947 1.6316394
v -1.028255 0.20732313 1.5188513
v -1.0582044 0.03227842 1.5756656
v -1.028255 0.20732313 1.5188513
v -1.0684556 0.08772302 1.5601064
v -1.0687588 0.11043763 1.6042521
v -1.0684556 0.08772302 1.5601064
v -1.028255 0.20732313 1.5188513
v -1.0424819 0.19285947 1.6316394
v -1.0687588 0.11043763 1.6042521
v -1.028255 0.20732313 1.5188513
v -0.9959065 0.023718357 1.5515707
v -1.0582044 0.03227842 1.5756656
v -0.98648 -0.035351753 1.6204832
v -1.0788844 -0.023230791 1.6333922
v 1.0325714 -1.2297449 2.290904
v 0.88052297 -1.2402114 2.2122312
v 0.8989823 -1.267822 2.229143
v 0.79850405 -1.1978718 2.1270478
v 0.90337 -0.9681505 2.432792
v 0.8159433 -1.3066444 1.9997576
v 0.9349801 -1.4076941 2.2063212
v 1.006094 -1.3741236 2.1210337
v 0.8897234 -1.3572826 2.1945257
v 0.8989823 -1.267822 2.229143
v 0.85336757 -1.2831467 2.3511047
v 0.80279493 -1.1312993 2.3897238
v 0.94151247 -1.4573835 2.2954497
v 0.9349801 -1.4076941 2.2063212
v 0.9547219 -1.7083663 1.9966526
v 0.8179718 -1.191478 2.4350505
v 0.82502985 -0.9812579 2.5454915
v 0.9471487 -0.97301126 2.6302686
v 0.80279493 -1.1312993 2.3897238
v 0.7122928 -1.4578104 2.3351047
v 0.821554 -0.90838283 2.50351
v 0.7567029 -0.6451116 2.6651282
v 0.77612674 -0.5065346 2.5711048
v 0.74639845 -0.3704269 2.6991048
v 0.74133086 -0.36251315 2.7893822
v 0.88453406 -0.5702618 2.7707305
v 0.41622472 -0.4805123 2.7751737
v 0.39983284 -0.4159198 2.6558757
v 0.18736604 -0.5658575 2.5591307
v 0.821554 -0.90838283 2.50351
v 0.91838586 -0.59862113 2.5242233
v 0.90337 -0.9681505 2.432792
v 0.74133086 -0.36251315 2.7893822
v 0.41622472 -0.4805123 2.7751737
v 0.4400475 -0.30680668 2.8995526
v 0.3810861 -0.40786618 2.9707296
v 0.2888072 0.3289404 0.107672125
v 0.37840387 0.43072307 0.07160102
v 0.29895258 0.5133838 0.20352599
v 0.52020323 0.5874361 0.15924783
v -0.08547819 -0.23670691 0.39623064
v -0.112156 -0.32546175 0.67536974
v -0.08932769 -0.44300526 0.28424063
v -0.07054368 -0.37387955 0.26117298
v -0.9442719 -0.08482504 1.8890123
v -1.0354689 -0.117889285 1.6599914
v -0.9745581 -0.04050255 2.068053
v -0.7648244 -0.060148716 2.1762543
v -0.7988493 -0.06909323 2.401682
v -0.558302 -0.06884265 2.5399532
v -0.56390977 -0.056242228 2.6666462
v -0.56390977 -0.056242228 2.6666462
v -0.7988493 -0.06909323 2.401682
v -0.8058298 0.105932 2.4146516
v -0.92915416 0.07313037 2.1270595
v -0.9745581 -0.04050255 2.068053
v 1.0115261 -1.5848627 2.141793
v 1.00908 -1.6947448 1.9872674
v 0.9547219 -1.7083663 1.9966526
v 0.94151247 -1.4573835 2.2954497
v 1.0422897 -1.3956995 2.285562
v 0.8989823 -1.267822 2.229143
v 0.9349801 -1.4076941 2.2063212
v 1.0325714 -1.2297449 2.290904
v 0.944381 -1.1429497 2.4379177
v 0.94151247 -1.4573835 2.2954497
v 0.85336757 -1.2831467 2.3511047
v 0.8179718 -1.191478 2.4350505
v 1.0325714 -1.2297449 2.290904
v 0.944381 -1.1429497 2.4379177
v 0.96377367 -0.90258133 2.5666277
v 0.9471487 -0.97301126 2.6302686
v 0.4284544 -0.23417681 2.7140026
v 0.2837989 -0.186728 2.3844876
v 0.39983284 -0.4159198 2.6558757
v 0.26346338 -0.30241466 2.2986736
v 0.44041353 -0.08281888 1.8084021
v 0.007813543 -0.27581504 1.8181652
v 0.01331237 -0.01796478 1.8013588
v 0.004229605 -0.46349436 1.3355951
v -0.06632292 -0.5110875 1.4797516
v -0.18621 -0.44835877 1.3278054
v -0.1225577 -0.3131398 1.2748762
v -0.2900724 -0.15330786 1.741897
v -0.15818292 -0.24056405 0.99387306
v -0.1225577 -0.3131398 1.2748762
v -0.17883837 -0.060604155 1.6212364
v -0.2900724 -0.15330786 1.741897
v -0.124119 0.03371501 2.0158854
v -0.10552728 -0.11043841 2.4152882
v -0.08547819 -0.23670691 0.39623064
v -0.025021195 -0.27832258 0.460657
v -0.112156 -0.32546175 0.67536974
v 0.009096324 -0.27719212 0.37344533
v -0.07054368 -0.37387955 0.26117298
v 0.013594419 -0.36092034 0.62475085
v 0.112243295 -0.5322835 0.067006536
v 0.009096324 -0.27719212 0.37344533
v -0.13328952 -0.48787272 0.03455092
v 0.12764806 -0.5886523 0.13296103
v 0.112243295 -0.5322835 0.067006536
v -0.13328952 -0.48787272 0.03455092
v -0.0828765 -0.5637955 0.025786735
v -0.2533235 -0.71812636 0.04432129
v -0.2777232 -0.67169005 0.06315899
v 0.062476814 -0.7632998 0.17194416
v 0.09293431 -0.9098539 0.09846614
v -0.0024221838 -0.860798 0.08566495
v -0.06609082 -0.7370547 0.09762805
v -0.027375758 -0.6000984 0.1690501
v 0.12739378 -0.03705871 1.820475
v 0.17131712 -0.24004072 1.7661165
v 0.28626627 -0.23154026 1.3161458
v 0.27209696 -0.03593105 1.2319872
v 0.24210644 0.17394575 1.0433055
v 0.4206605 0.22895515 1.0959567
v 0.27209696 -0.03593105 1.2319872
v 0.41958123 0.000855729 1.2696685
v 0.31387293 0.44645065 0.64735377
v 0.4206605 0.22895515 1.0959567
v 0.24210644 0.17394575 1.0433055
v 0.3697032 0.47843838 0.6626718
v 0.34976628 0.5920274 0.61904263
v 0.2858151 0.5290583 0.52373636
v 0.41966087 0.30957875 0.85243106
v 0.4206605 0.22895515 1.0959567
v 0.3697032 0.47843838 0.6626718
v 0.42645955 0.44982457 0.6380116
v 0.34976628 0.5920274 0.61904263
v 0.4932568 0.31276357 0.06654913
v 0.45763674 0.20700848 -0.04549101
v 0.4319724 0.1756673 0.017951246
v 0.48434606 0.3995468 0.1973126
v 0.6508625 0.2607564 -0.036393344
v 0.56452286 0.46959075 0.16086468
v 0.5118516 0.50805914 0.25507635
v 0.34469768 0.4015084 0.4433194
v 0.42645955 0.44982457 0.6380116
v 0.7249261 0.43793046 0.068773955
v 0.68882304 0.50307035 0.17139745
v -0.10223816 -0.48783708 2.963084
v -0.17222607 -0.8078898 3.0661492
v 0.00026772916 -0.57790285 2.8113942
v 0.019920185 -0.6828315 2.7812932
v -0.036090314 -0.8940171 2.964736
v -0.038677245 -0.9211632 3.1366255
v -0.14936894 -0.7302922 3.2568803
v -0.14936894 -0.7302922 3.2568803
v 0.08239612 -0.6913165 3.2611406
v -0.038677245 -0.9211632 3.1366255
v 0.13126649 -0.78078926 3.1285906
v -0.13668323 -0.5728997 0.10591427
v -0.2533235 -0.71812636 0.04432129
v -0.2777232 -0.67169005 0.06315899
v -0.0828765 -0.5637955 0.025786735
v 0.3625321 0.35024497 0.10904994
v 0.2888072 0.3289404 0.107672125
v 0.31634465 0.4372807 0.24537893
v 0.48434606 0.3995468 0.1973126
v 0.4319724 0.1756673 0.017951246
v 0.34469768 0.4015084 0.4433194
v 0.2858151 0.5290583 0.52373636
v 0.31387293 0.44645065 0.64735377
v 0.42645955 0.44982457 0.6380116
v 0.34976628 0.5920274 0.61904263
v 0.3992508 0.53487813 0.45987594
v 0.5118516 0.50805914 0.25507635
v 0.52020323 0.5874361 0.15924783
v -0.038677245 -0.9211632 3.1366255
v 0.13126649 -0.78078926 3.1285906
v -0.036090314 -0.8940171 2.964736
v 0.019920185 -0.6828315 2.7812932
v 0.11727291 -0.53155243 2.9427445
v 0.00026772916 -0.57790285 2.8113942
v -1.119033 0.16931534 1.675658
v -1.2124643 0.096741915 1.5227692
v -1.0687588 0.11043763 1.6042521
v -1.0684556 0.08772302 1.5601064
v -0.90067184 0.06372857 1.6846037
v -0.93974376 0.0054581165 1.639632
v -0.90749836 0.0033333302 1.4731565
v -0.83973587 0.08101511 1.3879664
v -0.83973587 0.08101511 1.3879664
v -0.80930996 0.041948676 1.5086377
v -0.90067184 0.06372857 1.6846037
v -0.8670955 0.02506423 1.9075639
v -1.0788844 -0.023230791 1.6333922
v -1.0175327 0.038470984 1.8715397
v -1.0354689 -0.117889285 1.6599914
v -1.2124643 0.096741915 1.5227692
v -1.1591767 0.10746753 1.1758792
v -1.1829324 0.17980015 1.1919136
v 0.83136624 -0.36498192 2.6403446
v 0.47977638 -0.23150712 2.7941682
v 0.4284544 -0.23417681 2.7140026
v 0.22252864 -0.1638971 2.772796
v 0.79850405 -1.1978718 2.1270478
v 0.80279493 -1.1312993 2.3897238
v 0.8989823 -1.267822 2.229143
v 0.7918834 -1.3206679 2.1048503
v 0.8159433 -1.3066444 1.9997576
v 0.17131712 -0.24004072 1.7661165
v 0.12739378 -0.03705871 1.820475
v 0.01331237 -0.01796478 1.8013588
v 0.007813543 -0.27581504 1.8181652
v 0.90337 -0.9681505 2.432792
v 1.0325714 -1.2297449 2.290904
v 0.96377367 -0.90258133 2.5666277
v 0.91838586 -0.59862113 2.5242233
v 0.97859335 -0.5935491 2.6114087
v 0.9349801 -1.4076941 2.2063212
v 1.0115261 -1.5848627 2.141793
v 1.0422897 -1.3956995 2.285562
v 1.00908 -1.6947448 1.9872674
v -0.007942468 -0.33902502 1.2718252
v 0.004229605 -0.46349436 1.3355951
v 0.01331237 -0.01796478 1.8013588
v 0.035459876 -0.2503037 0.9787721
v -0.08932769 -0.44300526 0.28424063
v -0.13328952 -0.48787272 0.03455092
v -0.07054368 -0.37387955 0.26117298
v -0.13668323 -0.5728997 0.10591427
v -0.2777232 -0.67169005 0.06315899
v 0.41958123 0.000855729 1.2696685
v 0.4206605 0.22895515 1.0959567
v 0.41966087 0.30957875 0.85243106
v 0.47798058 -0.0957049 1.1819407
v 0.3205642 0.23721915 0.84380364
v 0.47798058 -0.0957049 1.1819407
v 0.37992764 0.26437482 0.77491474
v 0.34469768 0.4015084 0.4433194
v 0.2858151 0.5290583 0.52373636
v 0.3992508 0.53487813 0.45987594
v 0.34976628 0.5920274 0.61904263
v 0.29895258 0.5133838 0.20352599
v 0.52020323 0.5874361 0.15924783
v 0.96377367 -0.90258133 2.5666277
v 0.82502985 -0.9812579 2.5454915
v 0.88453406 -0.5702618 2.7707305
v 0.7567029 -0.6451116 2.6651282
vt 0.036293 0.115085
vt 0.041782 0.119943
vt 0.045738 0.094521
vt 0.511349 0.651897
vt 0.511349 0.627976
vt 0.509463 0.651056
vt 0.822954 0.921447
vt 0.822954 0.962587
vt 0.82872 0.935787
vt 0.122759 0.667165
vt 0.104276 0.669987
vt 0.128521 0.66208
vt 0.104276 0.669987
vt 0.101289 0.671001
vt 0.128521 0.66208
vt 0.128521 0.66208
vt 0.129599 0.654869
vt 0.122759 0.667165
vt 0.920591 0.927956
vt 0.914056 0.93973
vt 0.920591 0.962586
vt 0.101289 0.671001
vt 0.04194 0.617054
vt 0.108864 0.695473
vt 0.101069 0.921573
vt 0.101069 0.965927
vt 0.112129 0.943055
vt 0.543344 0.899112
vt 0.573531 0.873841
vt 0.608231 0.899112
vt 0.562303 0.295914
vt 0.577513 0.496548
vt 0.566903 0.367658
vt 0.355108 0.757888
vt 0.270021 0.729079
vt 0.364682 0.7792
vt 0.909471 0.24549
vt 0.917645 0.191636
vt 0.914375 0.198506
vt 0.965691 0.372913
vt 0.965691 0.416374
vt 0.960998 0.404784
vt 0.450116 0.134724
vt 0.438795 0.056143
vt 0.437058 0.065519
vt 0.509343 0.715943
vt 0.509343 0.743767
vt 0.513019 0.740552
vt 0.563131 0.698416
vt 0.552365 0.740427
vt 0.552365 0.653508
vt 0.853557 0.916601
vt 0.849335 0.93252
vt 0.893865 0.93252
vt 0.618176 0.305644
vt 0.554703 0.287683
vt 0.573603 0.284295
vt 0.320032 0.88909
vt 0.386071 0.88909
vt 0.375459 0.879303
vt 0.777557 0.645972
vt 0.754561 0.576542
vt 0.813045 0.709949
vt 0.796983 0.837308
vt 0.72574 0.826391
vt 0.706289 0.837308
vt 0.138198 0.281446
vt 0.151596 0.274811
vt 0.127231 0.239543
vt 0.138198 0.281446
vt 0.127231 0.239543
vt 0.090029 0.174203
vt 0.81789 0.828956
vt 0.867139 0.828956
vt 0.828579 0.823075
vt 0.897206 0.51947
vt 0.892755 0.452646
vt 0.892755 0.565037
vt 0.023048 0.632134
vt 0.023048 0.68463
vt 0.028914 0.685304
vt 0.023048 0.68463
vt 0.023048 0.632134
vt 0.030281 0.65536
vt 0.950658 0.53756
vt 0.945557 0.58241
vt 0.950658 0.600115
vt 0.234011 0.854012
vt 0.324267 0.854012
vt 0.242762 0.831409
vt 0.964641 0.71203
vt 0.969032 0.71203
vt 0.968825 0.689674
vt 0.206697 0.860154
vt 0.208906 0.855664
vt 0.202295 0.871427
vt 0.197264 0.962586
vt 0.192266 0.929115
vt 0.20567 0.929115
vt 0.726827 0.965927
vt 0.726827 0.93053
vt 0.714789 0.962586
vt 0.513816 0.047361
vt 0.550351 0.098992
vt 0.522734 0.043573
vt 0.618253 0.946185
vt 0.612931 0.936218
vt 0.612931 0.969268
vt 0.022574 0.065169
vt 0.022574 0.082298
vt 0.030281 0.068658
vt 0.706042 0.097717
vt 0.667321 0.09103
vt 0.637322 0.111648
vt 0.706877 0.132196
vt 0.637322 0.111648
vt 0.752091 0.108714
vt 0.752899 0.132311
vt 0.735709 0.082019
vt 0.804228 0.093457
vt 0.459567 0.915361
vt 0.446083 0.935355
vt 0.459567 0.962587
vt 0.953998 0.501521
vt 0.953998 0.478912
vt 0.94838 0.516596
vt 0.109962 0.661144
vt 0.128521 0.66208
vt 0.101289 0.671001
vt 0.075232 0.096381
vt 0.061885 0.085658
vt 0.063711 0.095591
vt 0.063711 0.095591
vt 0.058543 0.132245
vt 0.090029 0.174203
vt 0.038146 0.149363
vt 0.02351 0.11487
vt 0.073495 0.192007
vt 0.138198 0.281446
vt 0.121352 0.282598
vt 0.194143 0.409983
vt 0.220662 0.405749
vt 0.249998 0.487011
vt 0.251856 0.53529
vt 0.300876 0.513608
vt 0.353285 0.664751
vt 0.340811 0.671757
vt 0.385551 0.621704
vt 0.329751 0.486952
vt 0.310941 0.462927
vt 0.393808 0.571649
vt 0.336008 0.414128
vt 0.351539 0.413076
vt 0.284282 0.321472
vt 0.271544 0.328136
vt 0.2836 0.278433
vt 0.351753 0.417785
vt 0.227695 0.16041
vt 0.28652 0.26598
vt 0.252604 0.266488
vt 0.238079 0.223778
vt 0.390958 0.732033
vt 0.364682 0.7792
vt 0.342004 0.693463
vt 0.422358 0.685097
vt 0.446475 0.656118
vt 0.431313 0.775136
vt 0.473867 0.660625
vt 0.424271 0.820177
vt 0.367585 0.825756
vt 0.459509 0.766812
vt 0.481059 0.685938
vt 0.462857 0.781505
vt 0.491304 0.674151
vt 0.298262 0.765659
vt 0.270021 0.729079
vt 0.219086 0.734181
vt 0.192739 0.713736
vt 0.167004 0.696385
vt 0.160517 0.721642
vt 0.307963 0.785908
vt 0.299124 0.788774
vt 0.349536 0.824597
vt 0.362476 0.852808
vt 0.128521 0.66208
vt 0.128609 0.615981
vt 0.112435 0.622615
vt 0.109484 0.591733
vt 0.118745 0.678744
vt 0.109962 0.661144
vt 0.123818 0.705321
vt 0.099898 0.695977
vt 0.041782 0.119943
vt 0.02351 0.11487
vt 0.058543 0.132245
vt 0.491304 0.327531
vt 0.479178 0.333305
vt 0.482849 0.342877
vt 0.202295 0.871427
vt 0.220703 0.896574
vt 0.206697 0.860154
vt 0.464899 0.21909
vt 0.455482 0.263182
vt 0.470072 0.193292
vt 0.118745 0.678744
vt 0.108864 0.695473
vt 0.099898 0.695977
vt 0.603735 0.690966
vt 0.591994 0.725093
vt 0.600628 0.73246
vt 0.123818 0.705321
vt 0.099898 0.695977
vt 0.108864 0.695473
vt 0.94714 0.745739
vt 0.950658 0.792208
vt 0.950658 0.733731
vt 0.939326 0.687472
vt 0.943976 0.708689
vt 0.943976 0.639049
vt 0.972373 0.850671
vt 0.969673 0.807483
vt 0.95768 0.850671
vt 0.554703 0.287683
vt 0.577513 0.496548
vt 0.562303 0.295914
vt 0.578156 0.446413
vt 0.580299 0.561553
vt 0.562053 0.584791
vt 0.593839 0.635354
vt 0.556885 0.493897
vt 0.547025 0.381121
vt 0.577981 0.649329
vt 0.591994 0.725093
vt 0.603735 0.690966
vt 0.611757 0.678951
vt 0.554703 0.287683
vt 0.522803 0.26918
vt 0.563277 0.220277
vt 0.545767 0.170919
vt 0.531146 0.176003
vt 0.618176 0.305644
vt 0.527731 0.127753
vt 0.600775 0.175031
vt 0.550351 0.098992
vt 0.607784 0.074154
vt 0.513816 0.047361
vt 0.49972 0.074009
vt 0.492116 0.083962
vt 0.528888 0.154203
vt 0.629014 0.078684
vt 0.637322 0.111648
vt 0.667321 0.09103
vt 0.650439 0.231272
vt 0.633537 0.139027
vt 0.661662 0.217961
vt 0.686432 0.339486
vt 0.664188 0.387387
vt 0.705826 0.295565
vt 0.756525 0.311136
vt 0.739408 0.337166
vt 0.825879 0.423597
vt 0.811909 0.454801
vt 0.722688 0.372249
vt 0.719662 0.378511
vt 0.706304 0.408853
vt 0.696413 0.477624
vt 0.765179 0.555148
vt 0.748508 0.574732
vt 0.777557 0.645972
vt 0.79835 0.617086
vt 0.847336 0.747372
vt 0.813045 0.709949
vt 0.920591 0.677992
vt 0.920591 0.778845
vt 0.905146 0.770519
vt 0.903887 0.438088
vt 0.903887 0.324433
vt 0.893471 0.428463
vt 0.352815 0.919043
vt 0.32991 0.932473
vt 0.354333 0.93252
vt 0.080392 0.925838
vt 0.051928 0.902163
vt 0.029989 0.925838
vt 0.544756 0.922498
vt 0.495385 0.922498
vt 0.503494 0.9117
vt 0.568741 0.935861
vt 0.609901 0.918293
vt 0.565679 0.918293
vt 0.60771 0.859023
vt 0.683397 0.859023
vt 0.632892 0.84361
vt 0.887399 0.061463
vt 0.907228 0.170828
vt 0.907228 0.043072
vt 0.925283 0.125728
vt 0.937295 0.048269
vt 0.925283 0.042849
vt 0.508966 0.363113
vt 0.508966 0.605126
vt 0.519701 0.594118
vt 0.691951 0.879068
vt 0.766916 0.879068
vt 0.739383 0.869168
vt 0.968627 0.523045
vt 0.975713 0.539822
vt 0.968627 0.555015
vt 0.063711 0.095591
vt 0.0637 0.10215
vt 0.058543 0.132245
vt 0.063711 0.095591
vt 0.057447 0.077036
vt 0.0637 0.10215
vt 0.801994 0.808912
vt 0.708214 0.80157
vt 0.702588 0.808912
vt 0.023197 0.732075
vt 0.105447 0.732074
vt 0.065319 0.730447
vt 0.186456 0.042889
vt 0.226824 0.132785
vt 0.237452 0.134233
vt 0.534734 0.743767
vt 0.534734 0.605288
vt 0.523788 0.698815
vt 0.91725 0.45858
vt 0.916899 0.500504
vt 0.91725 0.503233
vt 0.208906 0.855664
vt 0.206697 0.860154
vt 0.196578 0.829259
vt 0.953998 0.119047
vt 0.953998 0.069559
vt 0.94962 0.084154
vt 0.573996 0.743767
vt 0.576494 0.739336
vt 0.573996 0.728212
vt 0.502862 0.885749
vt 0.51469 0.884327
vt 0.502862 0.864165
vt 0.166227 0.943756
vt 0.173933 0.965927
vt 0.173933 0.925537
vt 0.965691 0.620262
vt 0.965691 0.661919
vt 0.964022 0.635834
vt 0.857117 0.893283
vt 0.800093 0.893283
vt 0.836913 0.905794
vt 0.49972 0.074009
vt 0.513816 0.047361
vt 0.240975 0.898195
vt 0.230823 0.922497
vt 0.282507 0.922497
vt 0.130985 0.944991
vt 0.147207 0.962586
vt 0.147207 0.924572
vt 0.460928 0.34291
vt 0.455482 0.263182
vt 0.447706 0.276517
vt 0.768078 0.897943
vt 0.750014 0.929179
vt 0.801994 0.929179
vt 0.577981 0.649329
vt 0.562053 0.584791
vt 0.556058 0.599449
vt 0.87382 0.092549
vt 0.870708 0.105728
vt 0.87382 0.112365
vt 0.87382 0.092549
vt 0.866341 0.102763
vt 0.870708 0.105728
vt 0.101289 0.671001
vt 0.104276 0.669987
vt 0.10589 0.658852
vt 0.101289 0.671001
vt 0.10589 0.658852
vt 0.09586 0.642973
vt 0.101289 0.671001
vt 0.09586 0.642973
vt 0.098657 0.666528
vt 0.104276 0.669987
vt 0.098657 0.666528
vt 0.09586 0.642973
vt 0.095091 0.649805
vt 0.104276 0.669987
vt 0.09586 0.642973
vt 0.109962 0.661144
vt 0.101289 0.671001
vt 0.118745 0.678744
vt 0.108864 0.695473
vt 0.901663 0.256476
vt 0.909471 0.24549
vt 0.892073 0.230684
vt 0.920591 0.211219
vt 0.920591 0.316151
vt 0.917645 0.191636
vt 0.452313 0.157913
vt 0.438003 0.14687
vt 0.445737 0.174891
vt 0.44709 0.209079
vt 0.464899 0.21909
vt 0.455482 0.263182
vt 0.466603 0.156963
vt 0.450116 0.134724
vt 0.438795 0.056143
vt 0.470759 0.261808
vt 0.479178 0.333305
vt 0.491304 0.327531
vt 0.455482 0.263182
vt 0.470072 0.193292
vt 0.460928 0.34291
vt 0.468201 0.443575
vt 0.446731 0.461325
vt 0.455186 0.546934
vt 0.470286 0.553448
vt 0.481476 0.463206
vt 0.473867 0.660625
vt 0.447511 0.646708
vt 0.422358 0.685097
vt 0.460928 0.34291
vt 0.44886 0.412741
vt 0.457054 0.33074
vt 0.236328 0.873712
vt 0.29333 0.899112
vt 0.283821 0.878351
vt 0.305893 0.873712
vt 0.94838 0.516596
vt 0.953998 0.478912
vt 0.941496 0.490161
vt 0.945966 0.450581
vt 0.077782 0.043838
vt 0.024703 0.04484
vt 0.081773 0.050561
vt 0.107118 0.043838
vt 0.160517 0.721642
vt 0.123818 0.705321
vt 0.180205 0.761215
vt 0.219086 0.734181
vt 0.242541 0.779061
vt 0.298262 0.765659
vt 0.299124 0.788774
vt 0.547025 0.381121
vt 0.544362 0.481782
vt 0.556885 0.493897
vt 0.562053 0.584791
vt 0.55632 0.555406
vt 0.930613 0.857746
vt 0.930613 0.800026
vt 0.927313 0.815828
vt 0.929127 0.880738
vt 0.029989 0.925838
vt 0.048075 0.886653
vt 0.023437 0.89985
vt 0.051928 0.902163
vt 0.472536 0.256345
vt 0.466603 0.156963
vt 0.464899 0.21909
vt 0.470759 0.261808
vt 0.908898 0.803583
vt 0.894234 0.829293
vt 0.908898 0.905794
vt 0.898346 0.904213
vt 0.141302 0.757346
vt 0.108046 0.75245
vt 0.142196 0.790538
vt 0.101774 0.776626
vt 0.022375 0.790538
vt 0.860457 0.875727
vt 0.852434 0.851368
vt 0.785697 0.85801
vt 0.794081 0.875727
vt 0.695428 0.047892
vt 0.701096 0.057243
vt 0.768587 0.043382
vt 0.652219 0.043382
vt 0.748508 0.574732
vt 0.696413 0.477624
vt 0.695271 0.499694
vt 0.664188 0.387387
vt 0.618176 0.305644
vt 0.852324 0.773424
vt 0.847336 0.747372
vt 0.813045 0.709949
vt 0.868364 0.766034
vt 0.87382 0.808912
vt 0.84808 0.71964
vt 0.42783 0.906619
vt 0.375731 0.939201
vt 0.427403 0.939201
vt 0.417911 0.897074
vt 0.894027 0.585887
vt 0.894027 0.658458
vt 0.900546 0.648129
vt 0.899053 0.673424
vt 0.897523 0.696997
vt 0.0637 0.10215
vt 0.057447 0.077036
vt 0.045738 0.094521
vt 0.041782 0.119943
vt 0.058543 0.132245
vt 0.120481 0.830627
vt 0.120481 0.809515
vt 0.055456 0.811438
vt 0.02265 0.825184
vt 0.940636 0.338605
vt 0.921536 0.337349
vt 0.940636 0.429737
vt 0.926198 0.418699
vt 0.600147 0.787135
vt 0.685068 0.823945
vt 0.682141 0.775587
vt 0.597448 0.808938
vt 0.581671 0.810882
vt 0.571139 0.782493
vt 0.720676 0.912338
vt 0.741861 0.897067
vt 0.698216 0.907198
vt 0.698325 0.915816
vt 0.688957 0.897067
vt 0.196578 0.829259
vt 0.198286 0.792729
vt 0.190904 0.795646
vt 0.184821 0.846648
vt 0.215262 0.849639
vt 0.202295 0.871427
vt 0.183397 0.876402
vt 0.140588 0.858111
vt 0.123944 0.905794
vt 0.220703 0.896574
vt 0.211481 0.905794
vt 0.424271 0.820177
vt 0.453097 0.881531
vt 0.431313 0.775136
vt 0.439484 0.781586
vt 0.467678 0.85123
vt 0.48194 0.883545
vt 0.479054 0.904123
vt 0.940645 0.30947
vt 0.953999 0.269304
vt 0.940834 0.288264
vt 0.940645 0.239575
vt 0.960962 0.351229
vt 0.967358 0.306561
vt 0.960962 0.305544
vt 0.972373 0.336477
vt 0.185636 0.800608
vt 0.181615 0.787164
vt 0.168652 0.816036
vt 0.184821 0.846648
vt 0.190904 0.795646
vt 0.140588 0.858111
vt 0.136315 0.854321
vt 0.125571 0.86249
vt 0.668364 0.892431
vt 0.659613 0.87693
vt 0.642518 0.878392
vt 0.630233 0.892431
vt 0.6087 0.877351
vt 0.48194 0.883545
vt 0.487959 0.836045
vt 0.467678 0.85123
vt 0.439484 0.781586
vt 0.459509 0.766812
vt 0.431313 0.775136
vt 0.950658 0.939201
vt 0.950658 0.875898
vt 0.942805 0.934031
vt 0.942105 0.918344
vt 0.655529 0.920373
vt 0.649815 0.912323
vt 0.630126 0.912323
vt 0.636594 0.923042
vt 0.636594 0.923042
vt 0.645103 0.929179
vt 0.655529 0.920373
vt 0.676716 0.927982
vt 0.108864 0.695473
vt 0.145809 0.726217
vt 0.123818 0.705321
vt 0.074464 0.68727
vt 0.04194 0.617054
vt 0.053375 0.660913
vt 0.863798 0.073946
vt 0.804985 0.047697
vt 0.803178 0.073946
vt 0.778121 0.066287
vt 0.32991 0.932473
vt 0.352815 0.919043
vt 0.331237 0.90715
vt 0.316201 0.923045
vt 0.305341 0.93252
vt 0.469589 0.043585
vt 0.468524 0.05459
vt 0.462558 0.075423
vt 0.469589 0.097332
vt 0.815454 0.130237
vt 0.87382 0.133867
vt 0.804228 0.093457
vt 0.754804 0.131525
vt 0.752091 0.108714
vt 0.024798 0.71203
vt 0.05664 0.702881
vt 0.02272 0.708065
vt 0.07371 0.71203
vt 0.535664 0.872386
vt 0.53329 0.846478
vt 0.596538 0.84289
vt 0.506556 0.84289
vt 0.927272 0.618728
vt 0.91188 0.55229
vt 0.922565 0.62517
vt 0.918709 0.568825
vt 0.927272 0.524449
vt 0.952466 0.218375
vt 0.953999 0.175619
vt 0.940452 0.142883
vt 0.940452 0.219269
vt 0.227695 0.16041
vt 0.28652 0.26598
vt 0.226824 0.132785
vt 0.186456 0.042889
vt 0.571139 0.782493
vt 0.558812 0.807121
vt 0.581671 0.810882
vt 0.52139 0.763634
vt 0.508478 0.823945
vt 0.094722 0.865705
vt 0.100436 0.860136
vt 0.023753 0.865705
vt 0.036029 0.844118
vn 0.13000908 -0.18033451 -0.9749755
vn -0.18632066 -0.89003265 0.41608506
vn -0.1003633 -0.407085 -0.9078594
vn 0.99278235 -0.10601391 0.056070358
vn 0.92316824 -0.33011878 0.19693077
vn -0.3701043 -0.6079154 0.7024681
vn 0.09904276 0.4856518 -0.86852324
vn -0.6529903 -0.3133612 -0.6894985
vn 0.5082613 0.26454735 -0.8195639
vn 0.47587967 0.86120737 -0.17849481
vn 0.16367194 0.7650043 -0.6228804
vn 0.7029693 -0.57776964 -0.41474843
vn 0.16367194 0.7650043 -0.6228804
vn 0.87454814 0.4360047 -0.21228595
vn 0.7029693 -0.57776964 -0.41474843
vn 0.7029693 -0.57776964 -0.41474843
vn 0.13612795 0.9871167 -0.08408168
vn 0.47587967 0.86120737 -0.17849481
vn 0.08289474 0.080480665 -0.993303
vn -0.23782408 0.3772945 -0.89503586
vn -0.5492436 -0.8255082 0.12987703
vn 0.87454814 0.4360047 -0.21228595
vn -0.25477886 -0.8999474 -0.35381123
vn -0.7006101 -0.71351665 0.006280422
vn 0.87454814 0.4360047 -0.21228595
vn -0.20664242 0.31135267 -0.9275552
vn -0.9834829 -0.091751724 0.15602177
vn -0.64266527 -0.7425554 0.18866044
vn -0.9035281 0.16875085 0.39390355
vn -0.73542756 -0.6186733 0.27638662
vn 0.07218911 0.9014788 -0.3968734
vn 0.24017295 0.96649224 0.020490676
vn 0.7811273 0.12814084 -0.6009592
vn 0.07218911 0.9014788 -0.3968734
vn 0.7811273 0.12814084 -0.6009592
vn -0.5457992 -0.25344077 -0.7790013
vn 0.82661176 -0.1654655 -0.5378978
vn 0.7378688 0.08127344 -0.67003304
vn -0.69369835 -0.62556195 0.35700756
vn -0.69369835 -0.62556195 0.35700756
vn -0.6529903 -0.3133612 -0.6894985
vn 0.82661176 -0.1654655 -0.5378978
vn 0.09904276 0.4856518 -0.86852324
vn -0.8892896 -0.43528637 0.14031875
vn 0.5869432 0.48866457 -0.6455263
vn -0.9516656 -0.29748708 -0.07637732
vn -0.22398826 -0.5167115 0.8263402
vn -0.71667147 -0.6383824 0.28080153
vn 0.40913394 0.5790261 -0.68242747
vn -0.07569012 -0.50114155 -0.83361316
vn -0.6507188 0.1505918 -0.74423575
vn 0.07218911 0.9014788 -0.3968734
vn -0.5457992 -0.25344077 -0.7790013
vn -0.99156135 -0.040974207 -0.1151277
vn -0.38496897 0.8866904 0.22413369
vn -0.078391165 0.728393 0.6660058
vn 0.07218911 0.9014788 -0.3968734
vn -0.08801497 -0.98439497 -0.03230214
vn 0.05820166 -0.96914834 0.23950773
vn 0.92480373 -0.36021978 0.10907653
vn -0.6150918 0.77792907 -0.020891339
vn -0.9157192 -0.39573616 -0.06939119
vn -0.985779 -0.115826495 -0.1166174
vn 0.92480373 -0.36021978 0.10907653
vn 0.78345686 0.61651254 0.005207494
vn 0.8007542 0.5782623 -0.15622216
vn -0.08801497 -0.98439497 -0.03230214
vn 0.8007542 0.5782623 -0.15622216
vn 0.97504056 0.076190256 0.20624122
vn -0.08801497 -0.98439497 -0.03230214
vn 0.97504056 0.076190256 0.20624122
vn 0.43204343 -0.74454516 0.5089121
vn 0.43204343 -0.74454516 0.5089121
vn 0.97504056 0.076190256 0.20624122
vn 0.71429646 0.6562798 -0.24305883
vn -0.7263288 0.60581964 -0.32469836
vn -0.29304242 0.74895513 -0.59430045
vn 0.71429646 0.6562798 -0.24305883
vn 0.13000908 -0.18033451 -0.9749755
vn 0.70943296 -0.14511919 -0.6896704
vn 0.48125476 0.56140345 -0.6732169
vn 0.70943296 -0.14511919 -0.6896704
vn 0.13000908 -0.18033451 -0.9749755
vn -0.1003633 -0.407085 -0.9078594
vn 0.8285481 -0.263223 0.49418795
vn 0.43204343 -0.74454516 0.5089121
vn 0.71429646 0.6562798 -0.24305883
vn 0.52716655 -0.65780735 -0.53794426
vn 0.9752527 -0.06618904 -0.17026114
vn 0.9970408 0.07665889 0.00569917
vn -0.90718997 0.3598411 0.21799116
vn -0.5409038 -0.57149124 -0.6171062
vn 0.044232104 -0.99053967 -0.12990484
vn 0.004201548 0.84672034 -0.532023
vn 0.923067 -0.2374642 -0.3025845
vn 0.8206271 -0.46201164 0.33632872
vn 0.08289474 0.080480665 -0.993303
vn -0.5492436 -0.8255082 0.12987703
vn -0.17823577 0.3985763 -0.89964974
vn 0.64137375 0.56246805 0.5217938
vn 0.004201548 0.84672034 -0.532023
vn 0.25466907 -0.75548404 -0.6036443
vn 0.5300735 0.072238654 0.8448691
vn 0.5503729 0.27514207 0.78541756
vn 0.92465246 -0.3684668 -0.09375293
vn -0.40152213 -0.11061153 0.90914536
vn -0.5218393 -0.81464076 -0.24970824
vn -0.83657366 -0.42537713 0.34525213
vn -0.9474834 -0.21887195 0.23317455
vn -0.40152213 -0.11061153 0.90914536
vn -0.83657366 -0.42537713 0.34525213
vn 0.7905774 0.3260305 0.40578437
vn 0.05692926 -0.560207 0.82626003
vn 0.2023055 0.86227566 0.46414286
vn 0.40913394 0.5790261 -0.68242747
vn 0.2023055 0.86227566 0.46414286
vn 0.9756993 0.21473226 0.043594733
vn 0.31431112 0.26726806 -0.9109205
vn 0.2042827 -0.32056013 0.9249376
vn 0.96440816 -0.070076495 0.2549624
vn -0.6507188 0.1505918 -0.74423575
vn 0.31431112 0.26726806 -0.9109205
vn 0.40913394 0.5790261 -0.68242747
vn -0.5492436 -0.8255082 0.12987703
vn -0.23782408 0.3772945 -0.89503586
vn -0.92945564 -0.17381468 -0.32542318
vn 0.4540567 -0.10478765 -0.88478935
vn 0.7029693 -0.57776964 -0.41474843
vn 0.87454814 0.4360047 -0.21228595
vn 0.8285481 -0.263223 0.49418795
vn 0.48125476 0.56140345 -0.6732169
vn 0.70943296 -0.14511919 -0.6896704
vn 0.70943296 -0.14511919 -0.6896704
vn -0.16274366 -0.44302687 0.8816138
vn 0.43204343 -0.74454516 0.5089121
vn -0.74271715 -0.28375924 0.6065083
vn -0.8864224 -0.3934906 0.24376316
vn -0.92243356 -0.36542803 0.12481451
vn -0.08801497 -0.98439497 -0.03230214
vn -0.985779 -0.115826495 -0.1166174
vn -0.9157192 -0.39573616 -0.06939119
vn 0.05820166 -0.96914834 0.23950773
vn -0.5910908 -0.70923805 0.28907895
vn -0.9953984 -0.034500644 -0.019446664
vn 0.24365681 -0.90112704 -0.24135153
vn -0.44943035 -0.8082965 -0.37921602
vn -0.99156135 -0.040974207 -0.1151277
vn 0.23099786 -0.8881059 -0.39420712
vn 0.2904038 -0.9351955 -0.15510914
vn -0.52363366 -0.6591828 -0.5269647
vn 0.8092953 -0.58330053 -0.019082129
vn 0.702675 -0.69541687 0.112343565
vn 0.9299964 0.330397 0.15477091
vn 0.267561 -0.9014115 -0.29068732
vn -0.84538823 -0.43192682 -0.30924475
vn 0.9752527 -0.06618904 -0.17026114
vn 0.9299964 0.330397 0.15477091
vn -0.5409038 -0.57149124 -0.6171062
vn 0.9752527 -0.06618904 -0.17026114
vn -0.85936075 0.4979482 -0.08848961
vn -0.8564656 0.43396747 0.24342063
vn -0.29443377 -0.9080274 -0.25875705
vn -0.5457992 -0.25344077 -0.7790013
vn -0.99156135 -0.040974207 -0.1151277
vn 0.32185262 -0.91307515 -0.21881995
vn 0.75019246 -0.60321367 -0.12539294
vn -0.22712553 -0.9530155 -0.19702111
vn 0.09129208 -0.93803763 0.31208187
vn -0.82175136 -0.4670537 0.32518992
vn -0.5218393 -0.81464076 -0.24970824
vn 0.7610105 -0.6263001 0.09126839
vn -0.35297608 -6.765127E-05 0.9332775
vn 0.5503729 0.27514207 0.78541756
vn 0.20274618 -0.5812154 0.78808784
vn -0.28927615 -0.7314495 -0.5906352
vn 0.7811273 0.12814084 -0.6009592
vn 0.5209602 -0.78856075 -0.32676032
vn 0.68774205 0.52655643 -0.49974895
vn 0.86617106 0.4979233 -0.042660266
vn 0.5216449 -0.84258014 -0.13395888
vn -0.9171127 -0.39787948 -0.011039853
vn -0.5218331 0.0156083405 0.8529048
vn -0.9474834 -0.21887195 0.23317455
vn -0.83657366 -0.42537713 0.34525213
vn 0.7029693 -0.57776964 -0.41474843
vn 0.8359796 -0.5474828 0.03742288
vn -0.87156904 -0.25037417 -0.42152137
vn -0.27229157 0.92749834 -0.25613308
vn 0.6445416 -0.5489391 -0.5321953
vn 0.4540567 -0.10478765 -0.88478935
vn -0.64266527 -0.7425554 0.18866044
vn -0.17364128 -0.33944774 -0.9244589
vn -0.18632066 -0.89003265 0.41608506
vn -0.8864224 -0.3934906 0.24376316
vn -0.16274366 -0.44302687 0.8816138
vn 0.14691666 -0.47045732 0.87010634
vn -0.54721117 -0.3390481 0.7652489
vn 0.96440816 -0.070076495 0.2549624
vn 0.8206271 -0.46201164 0.33632872
vn 0.25466907 -0.75548404 -0.6036443
vn 0.004201548 0.84672034 -0.532023
vn -0.71667147 -0.6383824 0.28080153
vn -0.96119577 0.0969361 -0.25827447
vn -0.9516656 -0.29748708 -0.07637732
vn 0.6445416 -0.5489391 -0.5321953
vn -0.7006101 -0.71351665 0.006280422
vn -0.17364128 -0.33944774 -0.9244589
vn 0.47587967 0.86120737 -0.17849481
vn -0.32033485 0.8585627 0.40031916
vn 0.16367194 0.7650043 -0.6228804
vn -0.64266527 -0.7425554 0.18866044
vn -0.17364128 -0.33944774 -0.9244589
vn -0.7006101 -0.71351665 0.006280422
vn -0.25477886 -0.8999474 -0.35381123
vn 0.87454814 0.4360047 -0.21228595
vn 0.3595373 0.92934334 0.08398682
vn 0.87454814 0.4360047 -0.21228595
vn -0.9834829 -0.091751724 0.15602177
vn 0.3595373 0.92934334 0.08398682
vn -0.9035281 0.16875085 0.39390355
vn -0.9834829 -0.091751724 0.15602177
vn -0.32033485 0.8585627 0.40031916
vn -0.078391165 0.728393 0.6660058
vn 0.24017295 0.96649224 0.020490676
vn 0.07218911 0.9014788 -0.3968734
vn 0.7811273 0.12814084 -0.6009592
vn 0.68774205 0.52655643 -0.49974895
vn -0.67524385 0.7136125 0.18655504
vn 0.86617106 0.4979233 -0.042660266
vn -0.6919155 0.4555513 0.5505166
vn -0.5218331 0.0156083405 0.8529048
vn -0.9035281 0.16875085 0.39390355
vn -0.32033485 0.8585627 0.40031916
vn 0.47587967 0.86120737 -0.17849481
vn 0.13612795 0.9871167 -0.08408168
vn -0.078391165 0.728393 0.6660058
vn -0.40152213 -0.11061153 0.90914536
vn -0.06801508 0.8645131 0.44181457
vn -0.0022809468 0.4443811 0.8820777
vn -0.82175136 -0.4670537 0.32518992
vn -0.38496897 0.8866904 0.22413369
vn -0.20031734 0.70277435 0.6798883
vn 0.14805742 0.9216285 0.3452554
vn 0.5503729 0.27514207 0.78541756
vn -0.35297608 -6.765127E-05 0.9332775
vn 0.5300735 0.072238654 0.8448691
vn -0.12780586 0.67885184 0.722973
vn -0.7693509 0.002249211 0.6388224
vn -0.82175136 -0.4670537 0.32518992
vn 0.12616944 0.40684602 0.9047417
vn 0.2023055 0.86227566 0.46414286
vn 0.05692926 -0.560207 0.82626003
vn 0.16649549 0.94940174 0.25966084
vn 0.64913857 0.6730938 -0.29260984
vn 0.94719166 0.20053025 0.17545734
vn -0.04782197 0.9854508 0.15160194
vn -0.42760706 0.8408372 0.08964338
vn 0.43674242 0.85847425 0.22363162
vn 0.9299964 0.330397 0.15477091
vn 0.01890282 0.9906477 -0.0859244
vn 0.65068424 0.7435485 0.15133053
vn -0.85936075 0.4979482 -0.08848961
vn -0.85125685 0.45565093 -0.24269958
vn -0.85125685 0.45565093 -0.24269958
vn 0.6348715 0.7288217 -0.17960149
vn -0.14141384 0.7996348 -0.547783
vn 0.5748312 0.77409756 -0.26140603
vn -0.67326313 0.62846935 -0.3895421
vn -0.6150918 0.77792907 -0.020891339
vn 0.78345686 0.61651254 0.005207494
vn 0.8007542 0.5782623 -0.15622216
vn -0.985779 -0.115826495 -0.1166174
vn -0.5218331 0.0156083405 0.8529048
vn -0.40152213 -0.11061153 0.90914536
vn -0.9474834 -0.21887195 0.23317455
vn 0.75019246 -0.60321367 -0.12539294
vn -0.07569012 -0.50114155 -0.83361316
vn 0.64913857 0.6730938 -0.29260984
vn -0.96119577 0.0969361 -0.25827447
vn -0.2918647 0.6656548 -0.6868175
vn 0.22314912 0.6141439 -0.75698835
vn 0.50050074 -0.43935996 0.7459636
vn 0.81055474 0.35699964 -0.46427572
vn 0.99278235 -0.10601391 0.056070358
vn 0.50050074 -0.43935996 0.7459636
vn 0.99278235 -0.10601391 0.056070358
vn -0.3701043 -0.6079154 0.7024681
vn -0.22398826 -0.5167115 0.8263402
vn 0.14691666 -0.47045732 0.87010634
vn 0.50050074 -0.43935996 0.7459636
vn 0.40913394 0.5790261 -0.68242747
vn 0.64913857 0.6730938 -0.29260984
vn -0.07569012 -0.50114155 -0.83361316
vn 0.23099786 -0.8881059 -0.39420712
vn 0.75019246 -0.60321367 -0.12539294
vn 0.8092953 -0.58330053 -0.019082129
vn 0.07218911 0.9014788 -0.3968734
vn -0.99156135 -0.040974207 -0.1151277
vn -0.38496897 0.8866904 0.22413369
vn -0.9953984 -0.034500644 -0.019446664
vn -0.38496897 0.8866904 0.22413369
vn -0.99156135 -0.040974207 -0.1151277
vn 0.92480373 -0.36021978 0.10907653
vn 0.8007542 0.5782623 -0.15622216
vn -0.08801497 -0.98439497 -0.03230214
vn -0.1003633 -0.407085 -0.9078594
vn 0.8899854 -0.40195566 -0.2153071
vn 0.70943296 -0.14511919 -0.6896704
vn 0.70943296 -0.14511919 -0.6896704
vn 0.018210515 -0.20323557 0.97896093
vn -0.16274366 -0.44302687 0.8816138
vn 0.70943296 -0.14511919 -0.6896704
vn 0.8899854 -0.40195566 -0.2153071
vn 0.018210515 -0.20323557 0.97896093
vn 0.9299964 0.330397 0.15477091
vn 0.65068424 0.7435485 0.15133053
vn 0.9752527 -0.06618904 -0.17026114
vn -0.90718997 0.3598411 0.21799116
vn -0.8564656 0.43396747 0.24342063
vn -0.5409038 -0.57149124 -0.6171062
vn 0.044232104 -0.99053967 -0.12990484
vn 0.52716655 -0.65780735 -0.53794426
vn 0.9970408 0.07665889 0.00569917
vn 0.044232104 -0.99053967 -0.12990484
vn 0.9970408 0.07665889 0.00569917
vn 0.9890546 -0.10150368 0.107086666
vn -0.58370596 0.78039515 -0.22421375
vn -0.9667269 0.2549988 -0.020354763
vn -0.64698946 -0.74279666 0.17221433
vn 0.923067 -0.2374642 -0.3025845
vn 0.004201548 0.84672034 -0.532023
vn 0.08289474 0.080480665 -0.993303
vn 0.004201548 0.84672034 -0.532023
vn -0.23782408 0.3772945 -0.89503586
vn 0.08289474 0.080480665 -0.993303
vn -0.5492436 -0.8255082 0.12987703
vn -0.021812217 -0.7821996 0.6226469
vn -0.17823577 0.3985763 -0.89964974
vn -0.64698946 -0.74279666 0.17221433
vn -0.92945564 -0.17381468 -0.32542318
vn -0.58370596 0.78039515 -0.22421375
vn 0.64137375 0.56246805 0.5217938
vn 0.8230872 -0.29858577 0.48308846
vn 0.004201548 0.84672034 -0.532023
vn 0.7610105 -0.6263001 0.09126839
vn 0.92465246 -0.3684668 -0.09375293
vn 0.5503729 0.27514207 0.78541756
vn -0.93478185 -0.17682184 -0.30671647
vn -0.82175136 -0.4670537 0.32518992
vn -0.7693509 0.002249211 0.6388224
vn -0.12780586 0.67885184 0.722973
vn 0.5300735 0.072238654 0.8448691
vn -0.5218393 -0.81464076 -0.24970824
vn -0.40152213 -0.11061153 0.90914536
vn -0.82175136 -0.4670537 0.32518992
vn 0.20274618 -0.5812154 0.78808784
vn -0.35297608 -6.765127E-05 0.9332775
vn 0.12616944 0.40684602 0.9047417
vn -0.73154265 0.117238745 -0.6716399
vn -0.96119577 0.0969361 -0.25827447
vn 0.22314912 0.6141439 -0.75698835
vn 0.7905774 0.3260305 0.40578437
vn 0.2042827 -0.32056013 0.9249376
vn 0.05692926 -0.560207 0.82626003
vn -0.9035281 0.16875085 0.39390355
vn -0.67524385 0.7136125 0.18655504
vn -0.73542756 -0.6186733 0.27638662
vn -0.8864224 -0.3934906 0.24376316
vn 0.13000908 -0.18033451 -0.9749755
vn -0.74271715 -0.28375924 0.6065083
vn -0.8864224 -0.3934906 0.24376316
vn -0.18632066 -0.89003265 0.41608506
vn 0.13000908 -0.18033451 -0.9749755
vn 0.87454814 0.4360047 -0.21228595
vn 0.16367194 0.7650043 -0.6228804
vn 0.9138753 -0.024741821 0.40524065
vn 0.87454814 0.4360047 -0.21228595
vn 0.9138753 -0.024741821 0.40524065
vn 0.5965154 0.34554005 -0.72441113
vn 0.87454814 0.4360047 -0.21228595
vn 0.5965154 0.34554005 -0.72441113
vn -0.20664242 0.31135267 -0.9275552
vn 0.16367194 0.7650043 -0.6228804
vn -0.20664242 0.31135267 -0.9275552
vn 0.5965154 0.34554005 -0.72441113
vn 0.9138753 -0.024741821 0.40524065
vn 0.16367194 0.7650043 -0.6228804
vn 0.5965154 0.34554005 -0.72441113
vn 0.4540567 -0.10478765 -0.88478935
vn 0.87454814 0.4360047 -0.21228595
vn 0.6445416 -0.5489391 -0.5321953
vn -0.7006101 -0.71351665 0.006280422
vn 0.81055474 0.35699964 -0.46427572
vn 0.82661176 -0.1654655 -0.5378978
vn -0.6529903 -0.3133612 -0.6894985
vn -0.2918647 0.6656548 -0.6868175
vn 0.22314912 0.6141439 -0.75698835
vn 0.7378688 0.08127344 -0.67003304
vn 0.09904276 0.4856518 -0.86852324
vn 0.5082613 0.26454735 -0.8195639
vn -0.8885637 -0.2389727 -0.39159453
vn -0.6529903 -0.3133612 -0.6894985
vn -0.71667147 -0.6383824 0.28080153
vn -0.96119577 0.0969361 -0.25827447
vn -0.3701043 -0.6079154 0.7024681
vn 0.09904276 0.4856518 -0.86852324
vn -0.8892896 -0.43528637 0.14031875
vn -0.22398826 -0.5167115 0.8263402
vn -0.54721117 -0.3390481 0.7652489
vn 0.14691666 -0.47045732 0.87010634
vn -0.96119577 0.0969361 -0.25827447
vn -0.9516656 -0.29748708 -0.07637732
vn -0.73154265 0.117238745 -0.6716399
vn -0.8911042 -0.28506595 0.3530867
vn -0.6507188 0.1505918 -0.74423575
vn -0.07569012 -0.50114155 -0.83361316
vn 0.05692926 -0.560207 0.82626003
vn 0.2042827 -0.32056013 0.9249376
vn 0.09129208 -0.93803763 0.31208187
vn 0.75019246 -0.60321367 -0.12539294
vn 0.32185262 -0.91307515 -0.21881995
vn -0.73154265 0.117238745 -0.6716399
vn 0.31431112 0.26726806 -0.9109205
vn 0.22314912 0.6141439 -0.75698835
vn 0.05692926 -0.560207 0.82626003
vn 0.09129208 -0.93803763 0.31208187
vn 0.12616944 0.40684602 0.9047417
vn 0.20274618 -0.5812154 0.78808784
vn -0.92945564 -0.17381468 -0.32542318
vn -0.23782408 0.3772945 -0.89503586
vn -0.58370596 0.78039515 -0.22421375
vn 0.004201548 0.84672034 -0.532023
vn -0.80775386 0.5605215 -0.18261802
vn -0.985779 -0.115826495 -0.1166174
vn -0.92243356 -0.36542803 0.12481451
vn -0.7263288 0.60581964 -0.32469836
vn 0.5216449 -0.84258014 -0.13395888
vn -0.64266527 -0.7425554 0.18866044
vn -0.73542756 -0.6186733 0.27638662
vn 0.5209602 -0.78856075 -0.32676032
vn -0.65045816 -0.65668 0.38120458
vn -0.28927615 -0.7314495 -0.5906352
vn -0.5218331 0.0156083405 0.8529048
vn -0.5218331 0.0156083405 0.8529048
vn -0.65045816 -0.65668 0.38120458
vn -0.6919155 0.4555513 0.5505166
vn -0.67524385 0.7136125 0.18655504
vn -0.73542756 -0.6186733 0.27638662
vn 0.92316824 -0.33011878 0.19693077
vn 0.5869432 0.48866457 -0.6455263
vn -0.8892896 -0.43528637 0.14031875
vn -0.3701043 -0.6079154 0.7024681
vn 0.99278235 -0.10601391 0.056070358
vn -0.6529903 -0.3133612 -0.6894985
vn 0.09904276 0.4856518 -0.86852324
vn 0.81055474 0.35699964 -0.46427572
vn 0.50050074 -0.43935996 0.7459636
vn -0.3701043 -0.6079154 0.7024681
vn -0.71667147 -0.6383824 0.28080153
vn -0.22398826 -0.5167115 0.8263402
vn 0.81055474 0.35699964 -0.46427572
vn 0.50050074 -0.43935996 0.7459636
vn 0.96440816 -0.070076495 0.2549624
vn 0.14691666 -0.47045732 0.87010634
vn 0.64913857 0.6730938 -0.29260984
vn 0.94719166 0.20053025 0.17545734
vn 0.75019246 -0.60321367 -0.12539294
vn 0.8092953 -0.58330053 -0.019082129
vn 0.9299964 0.330397 0.15477091
vn 0.24365681 -0.90112704 -0.24135153
vn 0.6348715 0.7288217 -0.17960149
vn 0.92480373 -0.36021978 0.10907653
vn 0.05820166 -0.96914834 0.23950773
vn -0.9157192 -0.39573616 -0.06939119
vn -0.67326313 0.62846935 -0.3895421
vn -0.9953984 -0.034500644 -0.019446664
vn -0.6150918 0.77792907 -0.020891339
vn -0.67326313 0.62846935 -0.3895421
vn -0.14141384 0.7996348 -0.547783
vn -0.9953984 -0.034500644 -0.019446664
vn -0.42760706 0.8408372 0.08964338
vn -0.38496897 0.8866904 0.22413369
vn -0.80775386 0.5605215 -0.18261802
vn 0.8007542 0.5782623 -0.15622216
vn -0.985779 -0.115826495 -0.1166174
vn 0.71429646 0.6562798 -0.24305883
vn -0.7263288 0.60581964 -0.32469836
vn 0.97504056 0.076190256 0.20624122
vn 0.48125476 0.56140345 -0.6732169
vn 0.71429646 0.6562798 -0.24305883
vn -0.29304242 0.74895513 -0.59430045
vn 0.8285481 -0.263223 0.49418795
vn 0.48125476 0.56140345 -0.6732169
vn -0.29304242 0.74895513 -0.59430045
vn 0.13000908 -0.18033451 -0.9749755
vn 0.20792562 -0.63367844 -0.74512947
vn -0.7751967 0.42398995 0.46829736
vn 0.018210515 -0.20323557 0.97896093
vn 0.8899854 -0.40195566 -0.2153071
vn -0.1003633 -0.407085 -0.9078594
vn -0.18632066 -0.89003265 0.41608506
vn -0.16274366 -0.44302687 0.8816138
vn -0.85125685 0.45565093 -0.24269958
vn -0.52363366 -0.6591828 -0.5269647
vn -0.84538823 -0.43192682 -0.30924475
vn -0.85936075 0.4979482 -0.08848961
vn -0.8564656 0.43396747 0.24342063
vn -0.048129633 0.79147416 0.58935034
vn -0.85936075 0.4979482 -0.08848961
vn 0.65068424 0.7435485 0.15133053
vn -0.90718997 0.3598411 0.21799116
vn -0.048129633 0.79147416 0.58935034
vn -0.8564656 0.43396747 0.24342063
vn 0.318197 0.76941264 0.55385387
vn 0.105454065 0.91961783 0.37839457
vn -0.9667269 0.2549988 -0.020354763
vn 0.9970408 0.07665889 0.00569917
vn -0.048129633 0.79147416 0.58935034
vn 0.318197 0.76941264 0.55385387
vn 0.9890546 -0.10150368 0.107086666
vn 0.105454065 0.91961783 0.37839457
vn 0.08289474 0.080480665 -0.993303
vn -0.17823577 0.3985763 -0.89964974
vn -0.021812217 -0.7821996 0.6226469
vn 0.29362422 -0.77350605 0.5616713
vn 0.923067 -0.2374642 -0.3025845
vn 0.8206271 -0.46201164 0.33632872
vn 0.8230872 -0.29858577 0.48308846
vn 0.044232104 -0.99053967 -0.12990484
vn 0.9890546 -0.10150368 0.107086666
vn 0.25466907 -0.75548404 -0.6036443
vn 0.64137375 0.56246805 0.5217938
vn -0.82175136 -0.4670537 0.32518992
vn -0.93478185 -0.17682184 -0.30671647
vn -0.22712553 -0.9530155 -0.19702111
vn 0.40368542 -0.46810347 -0.7838246
vn 0.18585218 -0.82727814 -0.5286253
vn 0.01685638 -0.85633504 0.5149935
vn -0.7693509 0.002249211 0.6388224
vn -0.7693509 0.002249211 0.6388224
vn 0.5300735 0.072238654 0.8448691
vn 0.01685638 -0.85633504 0.5149935
vn 0.92465246 -0.3684668 -0.09375293
vn -0.74271715 -0.28375924 0.6065083
vn 0.20792562 -0.63367844 -0.74512947
vn -0.7751967 0.42398995 0.46829736
vn 0.13000908 -0.18033451 -0.9749755
vn -0.5492436 -0.8255082 0.12987703
vn -0.92945564 -0.17381468 -0.32542318
vn -0.64698946 -0.74279666 0.17221433
vn 0.29362422 -0.77350605 0.5616713
vn -0.021812217 -0.7821996 0.6226469
vn 0.044232104 -0.99053967 -0.12990484
vn -0.9667269 0.2549988 -0.020354763
vn -0.90718997 0.3598411 0.21799116
vn 0.9890546 -0.10150368 0.107086666
vn 0.105454065 0.91961783 0.37839457
vn 0.22731164 0.9697026 0.08947979
vn 0.8230872 -0.29858577 0.48308846
vn 0.004201548 0.84672034 -0.532023
vn 0.01685638 -0.85633504 0.5149935
vn 0.92465246 -0.3684668 -0.09375293
vn 0.18585218 -0.82727814 -0.5286253
vn 0.40368542 -0.46810347 -0.7838246
vn 0.7610105 -0.6263001 0.09126839
vn -0.22712553 -0.9530155 -0.19702111
vn -0.32033485 0.8585627 0.40031916
vn -0.9834829 -0.091751724 0.15602177
vn 0.16367194 0.7650043 -0.6228804
vn -0.20664242 0.31135267 -0.9275552
vn 0.13612795 0.9871167 -0.08408168
vn 0.7029693 -0.57776964 -0.41474843
vn -0.87156904 -0.25037417 -0.42152137
vn -0.27229157 0.92749834 -0.25613308
vn -0.27229157 0.92749834 -0.25613308
vn 0.8359796 -0.5474828 0.03742288
vn 0.13612795 0.9871167 -0.08408168
vn 0.86617106 0.4979233 -0.042660266
vn -0.7006101 -0.71351665 0.006280422
vn -0.9035281 0.16875085 0.39390355
vn -0.64266527 -0.7425554 0.18866044
vn -0.9834829 -0.091751724 0.15602177
vn -0.25477886 -0.8999474 -0.35381123
vn 0.3595373 0.92934334 0.08398682
vn 0.40913394 0.5790261 -0.68242747
vn 0.2023055 0.86227566 0.46414286
vn 0.64913857 0.6730938 -0.29260984
vn 0.14805742 0.9216285 0.3452554
vn -0.2918647 0.6656548 -0.6868175
vn -0.96119577 0.0969361 -0.25827447
vn -0.6529903 -0.3133612 -0.6894985
vn -0.69369835 -0.62556195 0.35700756
vn 0.7378688 0.08127344 -0.67003304
vn -0.52363366 -0.6591828 -0.5269647
vn -0.85125685 0.45565093 -0.24269958
vn 0.6348715 0.7288217 -0.17960149
vn 0.24365681 -0.90112704 -0.24135153
vn 0.22314912 0.6141439 -0.75698835
vn 0.81055474 0.35699964 -0.46427572
vn 0.96440816 -0.070076495 0.2549624
vn 0.31431112 0.26726806 -0.9109205
vn 0.9756993 0.21473226 0.043594733
vn 0.09904276 0.4856518 -0.86852324
vn 0.92316824 -0.33011878 0.19693077
vn 0.99278235 -0.10601391 0.056070358
vn 0.5869432 0.48866457 -0.6455263
vn 0.5748312 0.77409756 -0.26140603
vn 0.92480373 -0.36021978 0.10907653
vn 0.6348715 0.7288217 -0.17960149
vn 0.78345686 0.61651254 0.005207494
vn -0.92243356 -0.36542803 0.12481451
vn -0.29304242 0.74895513 -0.59430045
vn -0.7263288 0.60581964 -0.32469836
vn -0.74271715 -0.28375924 0.6065083
vn -0.7751967 0.42398995 0.46829736
vn 0.65068424 0.7435485 0.15133053
vn -0.048129633 0.79147416 0.58935034
vn 0.9970408 0.07665889 0.00569917
vn 0.9752527 -0.06618904 -0.17026114
vn -0.5409038 -0.57149124 -0.6171062
vn 0.9752527 -0.06618904 -0.17026114
vn 0.52716655 -0.65780735 -0.53794426
vn 0.044232104 -0.99053967 -0.12990484
vn -0.9667269 0.2549988 -0.020354763
vn 0.22731164 0.9697026 0.08947979
vn 0.105454065 0.91961783 0.37839457
vn -0.58370596 0.78039515 -0.22421375
vn 0.004201548 0.84672034 -0.532023
vn 0.96440816 -0.070076495 0.2549624
vn -0.54721117 -0.3390481 0.7652489
vn 0.2042827 -0.32056013 0.9249376
vn -0.8911042 -0.28506595 0.3530867
g 0.2500_0
f 3/3/3 2/2/2 1/1/1
f 6/6/6 5/5/5 4/4/4
f 9/9/9 8/8/8 7/7/7
f 12/12/12 11/11/11 10/10/10
f 15/15/15 14/14/14 13/13/13
f 18/18/18 17/17/17 16/16/16
f 21/21/21 20/20/20 19/19/19
f 24/24/24 23/23/23 22/22/22
f 27/27/27 26/26/26 25/25/25
f 30/30/30 29/29/29 28/28/28
f 33/33/33 32/32/32 31/31/31
f 36/36/36 35/35/35 34/34/34
f 39/39/39 38/38/38 37/37/37
f 42/42/42 41/41/41 40/40/40
f 45/45/45 44/44/44 43/43/43
f 48/48/48 47/47/47 46/46/46
f 51/51/51 50/50/50 49/49/49
f 54/54/54 53/53/53 52/52/52
f 57/57/57 56/56/56 55/55/55
f 60/60/60 59/59/59 58/58/58
f 63/63/63 62/62/62 61/61/61
f 66/66/66 65/65/65 64/64/64
f 69/69/69 68/68/68 67/67/67
f 72/72/72 71/71/71 70/70/70
f 75/75/75 74/74/74 73/73/73
f 78/78/78 77/77/77 76/76/76
f 81/81/81 80/80/80 79/79/79
f 84/84/84 83/83/83 82/82/82
f 87/87/87 86/86/86 85/85/85
f 90/90/90 89/89/89 88/88/88
f 93/93/93 92/92/92 91/91/91
f 96/96/96 95/95/95 94/94/94
f 99/99/99 98/98/98 97/97/97
f 102/102/102 101/101/101 100/100/100
f 105/105/105 104/104/104 103/103/103
f 108/108/108 107/107/107 106/106/106
f 111/111/111 110/110/110 109/109/109
f 114/114/114 113/113/113 112/112/112
f 116/116/116 112/112/112 115/115/115
f 112/112/112 117/117/117 115/115/115
f 115/115/115 117/117/117 118/118/118
f 112/112/112 119/119/119 117/117/117
f 120/120/120 117/117/117 119/119/119
f 123/123/123 122/122/122 121/121/121
f 126/126/126 125/125/125 124/124/124
f 129/129/129 128/128/128 127/127/127
f 132/132/132 131/131/131 130/130/130
f 134/134/134 133/133/133 130/130/130
f 135/135/135 134/134/134 130/130/130
f 134/134/134 135/135/135 136/136/136
f 136/136/136 137/137/137 134/134/134
f 135/135/135 138/138/138 136/136/136
f 139/139/139 138/138/138 135/135/135
f 139/139/139 140/140/140 138/138/138
f 140/140/140 139/139/139 141/141/141
f 142/142/142 141/141/141 139/139/139
f 142/142/142 143/143/143 141/141/141
f 144/144/144 141/141/141 143/143/143
f 142/142/142 145/145/145 143/143/143
f 144/144/144 143/143/143 145/145/145
f 145/145/145 146/146/146 144/144/144
f 146/146/146 147/147/147 144/144/144
f 148/148/148 146/146/146 145/145/145
f 148/148/148 145/145/145 149/149/149
f 145/145/145 150/150/150 149/149/149
f 149/149/149 151/151/151 148/148/148
f 152/152/152 151/151/151 149/149/149
f 150/150/150 152/152/152 149/149/149
f 151/151/151 152/152/152 153/153/153
f 150/150/150 154/154/154 152/152/152
f 154/154/154 150/150/150 155/155/155
f 156/156/156 152/152/152 154/154/154
f 156/156/156 157/157/157 152/152/152
f 154/154/154 155/155/155 158/158/158
f 159/159/159 154/154/154 158/158/158
f 155/155/155 160/160/160 158/158/158
f 160/160/160 161/161/161 158/158/158
f 148/148/148 162/162/162 146/146/146
f 162/162/162 163/163/163 146/146/146
f 164/164/164 146/146/146 163/163/163
f 165/165/165 162/162/162 148/148/148
f 148/148/148 166/166/166 165/165/165
f 167/167/167 162/162/162 165/165/165
f 168/168/168 167/167/167 165/165/165
f 167/167/167 169/169/169 162/162/162
f 169/169/169 170/170/170 162/162/162
f 170/170/170 163/163/163 162/162/162
f 168/168/168 171/171/171 167/167/167
f 168/168/168 172/172/172 171/171/171
f 172/172/172 173/173/173 171/171/171
f 168/168/168 174/174/174 172/172/172
f 170/170/170 175/175/175 163/163/163
f 163/163/163 175/175/175 176/176/176
f 175/175/175 177/177/177 176/176/176
f 177/177/177 178/178/178 176/176/176
f 178/178/178 177/177/177 179/179/179
f 180/180/180 179/179/179 177/177/177
f 175/175/175 170/170/170 181/181/181
f 175/175/175 181/181/181 182/182/182
f 181/181/181 183/183/183 182/182/182
f 170/170/170 183/183/183 181/181/181
f 183/183/183 170/170/170 184/184/184
f 179/179/179 180/180/180 185/185/185
f 179/179/179 185/185/185 186/186/186
f 187/187/187 186/186/186 185/185/185
f 186/186/186 187/187/187 188/188/188
f 180/180/180 189/189/189 185/185/185
f 185/185/185 189/189/189 190/190/190
f 191/191/191 189/189/189 180/180/180
f 192/192/192 189/189/189 191/191/191
f 195/195/195 194/194/194 193/193/193
f 198/198/198 197/197/197 196/196/196
f 201/201/201 200/200/200 199/199/199
f 204/204/204 203/203/203 202/202/202
f 207/207/207 206/206/206 205/205/205
f 210/210/210 209/209/209 208/208/208
f 213/213/213 212/212/212 211/211/211
f 216/216/216 215/215/215 214/214/214
f 219/219/219 218/218/218 217/217/217
f 222/222/222 221/221/221 220/220/220
f 225/225/225 224/224/224 223/223/223
f 227/227/227 224/224/224 226/226/226
f 227/227/227 228/228/228 224/224/224
f 227/227/227 229/229/229 228/228/228
f 224/224/224 228/228/228 230/230/230
f 224/224/224 230/230/230 231/231/231
f 228/228/228 229/229/229 232/232/232
f 232/232/232 229/229/229 233/233/233
f 229/229/229 234/234/234 233/233/233
f 234/234/234 229/229/229 235/235/235
f 224/224/224 231/231/231 236/236/236
f 237/237/237 236/236/236 231/231/231
f 236/236/236 237/237/237 238/238/238
f 237/237/237 239/239/239 238/238/238
f 240/240/240 239/239/239 237/237/237
f 238/238/238 241/241/241 236/236/236
f 239/239/239 240/240/240 242/242/242
f 241/241/241 238/238/238 243/243/243
f 238/238/238 239/239/239 243/243/243
f 242/242/242 244/244/244 239/239/239
f 239/239/239 244/244/244 245/245/245
f 246/246/246 244/244/244 242/242/242
f 247/247/247 246/246/246 242/242/242
f 247/247/247 242/242/242 248/248/248
f 242/242/242 249/249/249 248/248/248
f 245/245/245 250/250/250 239/239/239
f 243/243/243 239/239/239 250/250/250
f 251/251/251 243/243/243 250/250/250
f 252/252/252 251/251/251 250/250/250
f 253/253/253 241/241/241 243/243/243
f 243/243/243 254/254/254 253/253/253
f 253/253/253 254/254/254 255/255/255
f 241/241/241 253/253/253 256/256/256
f 256/256/256 257/257/257 241/241/241
f 253/253/253 255/255/255 258/258/258
f 256/256/256 253/253/253 258/258/258
f 258/258/258 255/255/255 259/259/259
f 258/258/258 259/259/259 260/260/260
f 256/256/256 258/258/258 260/260/260
f 259/259/259 261/261/261 260/260/260
f 261/261/261 262/262/262 260/260/260
f 262/262/262 263/263/263 260/260/260
f 260/260/260 264/264/264 256/256/256
f 264/264/264 265/265/265 256/256/256
f 265/265/265 257/257/257 256/256/256
f 265/265/265 266/266/266 257/257/257
f 266/266/266 265/265/265 267/267/267
f 268/268/268 266/266/266 267/267/267
f 269/269/269 268/268/268 267/267/267
f 269/269/269 267/267/267 270/270/270
f 269/269/269 270/270/270 271/271/271
f 272/272/272 269/269/269 271/271/271
f 275/275/275 274/274/274 273/273/273
f 278/278/278 277/277/277 276/276/276
f 281/281/281 280/280/280 279/279/279
f 284/284/284 283/283/283 282/282/282
f 287/287/287 286/286/286 285/285/285
f 290/290/290 289/289/289 288/288/288
f 293/293/293 292/292/292 291/291/291
f 296/296/296 295/295/295 294/294/294
f 299/299/299 298/298/298 297/297/297
f 302/302/302 301/301/301 300/300/300
f 305/305/305 304/304/304 303/303/303
f 308/308/308 307/307/307 306/306/306
f 311/311/311 310/310/310 309/309/309
f 314/314/314 313/313/313 312/312/312
f 317/317/317 316/316/316 315/315/315
f 320/320/320 319/319/319 318/318/318
f 323/323/323 322/322/322 321/321/321
f 326/326/326 325/325/325 324/324/324
f 329/329/329 328/328/328 327/327/327
f 332/332/332 331/331/331 330/330/330
f 335/335/335 334/334/334 333/333/333
f 338/338/338 337/337/337 336/336/336
f 341/341/341 340/340/340 339/339/339
f 344/344/344 343/343/343 342/342/342
f 347/347/347 346/346/346 345/345/345
f 350/350/350 349/349/349 348/348/348
f 352/352/352 351/351/351 248/248/248
f 355/355/355 354/354/354 353/353/353
f 358/358/358 357/357/357 356/356/356
f 361/361/361 360/360/360 359/359/359
f 364/364/364 363/363/363 362/362/362
f 367/367/367 366/366/366 365/365/365
f 370/370/370 369/369/369 368/368/368
f 373/373/373 372/372/372 371/371/371
f 376/376/376 375/375/375 374/374/374
f 379/379/379 378/378/378 377/377/377
f 382/382/382 381/381/381 380/380/380
f 385/385/385 384/384/384 383/383/383
f 388/388/388 387/387/387 386/386/386
f 391/391/391 390/390/390 389/389/389
f 392/392/392 390/390/390 391/391/391
f 395/395/395 394/394/394 393/393/393
f 394/394/394 396/396/396 393/393/393
f 396/396/396 397/397/397 393/393/393
f 394/394/394 398/398/398 396/396/396
f 401/401/401 400/400/400 399/399/399
f 400/400/400 401/401/401 402/402/402
f 402/402/402 401/401/401 403/403/403
f 404/404/404 402/402/402 403/403/403
f 401/401/401 405/405/405 403/403/403
f 401/401/401 406/406/406 405/405/405
f 405/405/405 406/406/406 407/407/407
f 410/410/410 409/409/409 408/408/408
f 409/409/409 411/411/411 408/408/408
f 412/412/412 408/408/408 411/411/411
f 411/411/411 409/409/409 413/413/413
f 413/413/413 409/409/409 414/414/414
f 415/415/415 413/413/413 414/414/414
f 416/416/416 415/415/415 414/414/414
f 416/416/416 414/414/414 417/417/417
f 414/414/414 418/418/418 417/417/417
f 416/416/416 417/417/417 419/419/419
f 416/416/416 419/419/419 420/420/420
f 420/420/420 419/419/419 421/421/421
f 423/423/423 422/422/422 415/415/415
f 424/424/424 422/422/422 423/423/423
f 427/427/427 426/426/426 425/425/425
f 427/427/427 428/428/428 426/426/426
f 431/431/431 430/430/430 429/429/429
f 431/431/431 432/432/432 430/430/430
f 435/435/435 434/434/434 433/433/433
f 435/435/435 433/433/433 436/436/436
f 439/439/439 438/438/438 437/437/437
f 440/440/440 439/439/439 437/437/437
f 440/440/440 441/441/441 439/439/439
f 441/441/441 440/440/440 442/442/442
f 441/441/441 442/442/442 443/443/443
f 446/446/446 445/445/445 444/444/444
f 446/446/446 447/447/447 445/445/445
f 448/448/448 445/445/445 447/447/447
f 451/451/451 450/450/450 449/449/449
f 451/451/451 449/449/449 452/452/452
f 455/455/455 454/454/454 453/453/453
f 454/454/454 456/456/456 453/453/453
f 459/459/459 458/458/458 457/457/457
f 460/460/460 459/459/459 457/457/457
f 463/463/463 462/462/462 461/461/461
f 462/462/462 463/463/463 464/464/464
f 467/467/467 466/466/466 465/465/465
f 468/468/468 466/466/466 467/467/467
f 466/466/466 468/468/468 469/469/469
f 472/472/472 471/471/471 470/470/470
f 472/472/472 470/470/470 473/473/473
f 476/476/476 475/475/475 474/474/474
f 477/477/477 474/474/474 475/475/475
f 480/480/480 479/479/479 478/478/478
f 480/480/480 481/481/481 479/479/479
f 481/481/481 480/480/480 482/482/482
f 485/485/485 484/484/484 483/483/483
f 484/484/484 486/486/486 483/483/483
f 483/483/483 486/486/486 487/487/487
f 484/484/484 488/488/488 486/486/486
f 491/491/491 490/490/490 489/489/489
f 492/492/492 489/489/489 490/490/490
f 495/495/495 494/494/494 493/493/493
f 494/494/494 495/495/495 496/496/496
f 494/494/494 496/496/496 497/497/497
f 500/500/500 499/499/499 498/498/498
f 498/498/498 501/501/501 500/500/500
f 501/501/501 498/498/498 502/502/502
f 505/505/505 504/504/504 503/503/503
f 503/503/503 506/506/506 505/505/505
f 509/509/509 508/508/508 507/507/507
f 509/509/509 510/510/510 508/508/508
f 513/513/513 512/512/512 511/511/511
f 514/514/514 511/511/511 512/512/512
f 514/514/514 515/515/515 511/511/511
f 515/515/515 516/516/516 511/511/511
f 519/519/519 518/518/518 517/517/517
f 520/520/520 519/519/519 517/517/517
f 521/521/521 519/519/519 520/520/520
f 524/524/524 523/523/523 522/522/522
f 522/522/522 525/525/525 524/524/524
f 525/525/525 522/522/522 526/526/526
f 527/527/527 525/525/525 526/526/526
f 527/527/527 528/528/528 525/525/525
f 529/529/529 525/525/525 528/528/528
f 530/530/530 529/529/529 528/528/528
f 528/528/528 527/527/527 531/531/531
f 531/531/531 532/532/532 528/528/528
f 535/535/535 534/534/534 533/533/533
f 534/534/534 535/535/535 536/536/536
f 534/534/534 536/536/536 537/537/537
f 538/538/538 534/534/534 537/537/537
f 534/534/534 538/538/538 539/539/539
f 542/542/542 541/541/541 540/540/540
f 542/542/542 543/543/543 541/541/541
f 546/546/546 545/545/545 544/544/544
f 547/547/547 544/544/544 545/545/545
f 550/550/550 549/549/549 548/548/548
f 550/550/550 548/548/548 551/551/551
f 552/552/552 551/551/551 548/548/548
f 551/551/551 553/553/553 550/550/550
f 550/550/550 553/553/553 554/554/554
f 553/553/553 555/555/555 554/554/554
f 558/558/558 557/557/557 556/556/556
f 558/558/558 556/556/556 559/559/559
f 560/560/560 558/558/558 559/559/559
f 563/563/563 562/562/562 561/561/561
f 563/563/563 564/564/564 562/562/562
f 565/565/565 562/562/562 564/564/564
f 566/566/566 565/565/565 564/564/564
f 569/569/569 568/568/568 567/567/567
f 569/569/569 570/570/570 568/568/568
f 573/573/573 572/572/572 571/571/571
f 574/574/574 573/573/573 571/571/571
f 577/577/577 576/576/576 575/575/575
f 578/578/578 576/576/576 577/577/577
f 581/581/581 580/580/580 579/579/579
f 582/582/582 579/579/579 580/580/580
f 582/582/582 583/583/583 579/579/579
f 583/583/583 582/582/582 584/584/584
f 587/587/587 586/586/586 585/585/585
f 586/586/586 587/587/587 588/588/588
f 591/591/591 590/590/590 589/589/589
f 591/591/591 589/589/589 592/592/592
f 593/593/593 592/592/592 589/589/589
f 596/596/596 595/595/595 594/594/594
f 597/597/597 596/596/596 594/594/594
f 600/600/600 599/599/599 598/598/598
f 600/600/600 598/598/598 601/601/601
f 601/601/601 602/602/602 600/600/600
f 605/605/605 604/604/604 603/603/603
f 604/604/604 606/606/606 603/603/603
f 609/609/609 608/608/608 607/607/607
f 610/610/610 607/607/607 608/608/608
f 613/613/613 612/612/612 611/611/611
f 612/612/612 614/614/614 611/611/611
f 612/612/612 615/615/615 614/614/614
f 618/618/618 617/617/617 616/616/616
f 619/619/619 618/618/618 616/616/616
f 622/622/622 621/621/621 620/620/620
f 622/622/622 620/620/620 623/623/623
f 626/626/626 625/625/625 624/624/624
f 624/624/624 625/625/625 627/627/627
f 628/628/628 627/627/627 625/625/625
f 631/631/631 630/630/630 629/629/629
f 632/632/632 630/630/630 631/631/631
