g 0.6667
v -0.31452677 -0.5887483 2.5185876
v -0.74816096 -0.6830585 2.2883267
v -1.0897682 -0.18325314 2.4885333
v -1.0090199 -0.15065667 2.5747783
v -0.0292864 -0.24472056 2.646394
v -1.1390281 0.016339153 2.5033417
v -0.95321375 -0.055787608 2.6278195
v 0.04340975 0.22075655 2.6202698
v -0.9429332 0.06507239 2.6280756
v -0.18362163 0.5959116 2.5178795
v -0.97877306 0.16555475 2.5765314
v -1.0400959 0.206853 2.4961023
v -0.5709218 0.75519526 2.3392842
v 1.0265913 1.401897 0.15251002
v 1.5917788 0.55278146 -0.052298278
v 1.5646441 0.5767487 0.14443785
v 1.0939116 1.4060938 -0.041353803
v 0.08874962 1.6977985 0.13585833
v 0.13997543 1.7227654 -0.05399672
v 0.6027392 -0.39263418 1.2905749
v 0.44607052 -0.6920762 1.2488278
v 0.27916473 -0.70737845 1.7000573
v 0.6352329 -0.21052684 1.7993318
v 0.71260816 -0.22679415 1.206047
v 0.81373394 -0.08905047 1.3081778
v 0.91668475 0.47224194 1.3935184
v 0.7756295 0.39841425 1.7294902
v 0.3643294 -0.26491785 2.2652583
v 0.45316392 0.29858267 2.2289956
v -0.0292864 -0.24472056 2.646394
v 0.04340975 0.22075655 2.6202698
v 0.3643294 -0.26491785 2.2652583
v -0.31452677 -0.5887483 2.5185876
v -0.0292864 -0.24472056 2.646394
v 0.00216116 -0.68406224 2.1560605
v 0.6352329 -0.21052684 1.7993318
v -0.74816096 -0.6830585 2.2883267
v -0.45434266 -0.7900723 1.9372406
v 0.27916473 -0.70737845 1.7000573
v -0.22442153 -0.830251 1.559327
v -0.011128515 -0.9149668 1.2003348
v 0.44607052 -0.6920762 1.2488278
v -0.3455729 0.9355641 1.979839
v -0.18362163 0.5959116 2.5178795
v -0.5709218 0.75519526 2.3392842
v 0.14592664 0.74547195 2.1485438
v 0.04340975 0.22075655 2.6202698
v -0.1986017 1.0304644 1.6060622
v 0.45316392 0.29858267 2.2289956
v 0.3692909 0.84408057 1.7354962
v -0.09196381 1.0511727 1.171401
v 0.7756295 0.39841425 1.7294902
v 0.5158761 0.9073798 1.1948736
v -0.0013012923 1.3055242 0.511726
v 0.91668475 0.47224194 1.3935184
v 0.72322243 1.1120992 0.5261831
v 1.2327961 0.5249928 0.5044198
v 1.1125444 -0.15637296 0.50465804
v 1.1742892 -0.06654745 0.64302576
v 1.3265011 0.32057464 0.64084405
v 1.243563 0.42549628 0.5472225
v 1.1107984 -0.19201398 0.45732045
v 1.2327961 0.5249928 0.5044198
v 0.97950995 0.40885174 1.3064882
v 0.91668475 0.47224194 1.3935184
v 0.03785944 1.5029383 0.3212213
v 0.72322243 1.1120992 0.5261831
v -0.0013012923 1.3055242 0.511726
v 0.8658887 1.2617637 0.33693305
v 0.08874962 1.6977985 0.13585833
v 1.2327961 0.5249928 0.5044198
v 1.0265913 1.401897 0.15251002
v 1.3902668 0.5556036 0.33036965
v 1.1107984 -0.19201398 0.45732045
v 1.5646441 0.5767487 0.14443785
v 1.3061876 -0.29532874 0.30314365
v 1.4921486 -0.38060123 0.14179212
v 1.0096993 -1.2011418 0.041396208
v 0.13224551 -1.4069496 -0.027566165
v 0.15326107 -1.5999935 0.13650875
v 0.8871517 -1.0659432 -0.08620049
v 1.5201734 -0.41136873 -0.036462687
v 1.0470021 1.256517 -0.15804473
v 0.19128004 1.5436232 -0.1573149
v 0.13997543 1.7227654 -0.05399672
v 1.0939116 1.4060938 -0.041353803
v 1.3511935 -0.36310965 -0.14817426
v 1.5917788 0.55278146 -0.052298278
v 1.4124591 0.48654774 -0.1716176
v 1.0028653 -1.1624264 0.21693945
v 1.0096993 -1.2011418 0.041396208
v 0.15326107 -1.5999935 0.13650875
v 0.16003822 -1.5663695 0.3243537
v 0.16472246 -1.3918328 0.46088213
v 0.89072025 -1.0073934 0.36715686
v 1.4921486 -0.38060123 0.14179212
v 0.16513799 -1.2230725 0.5932642
v 1.3061876 -0.29532874 0.30314365
v 0.7703804 -0.8571804 0.52218604
v 0.16475073 -1.0923609 0.7722628
v 0.6715723 -0.734517 0.749791
v 1.1107984 -0.19201398 0.45732045
v 0.74423414 -0.50807685 0.758083
v 0.90260434 -0.31239673 0.6568786
v 0.81373394 -0.08905047 1.3081778
v 1.1125444 -0.15637296 0.50465804
v 0.8634237 -0.04756573 1.2596505
v 1.1742892 -0.06654745 0.64302576
v 0.9877901 0.0448637 1.1768024
v 1.4706668 -0.3408212 1.0575233
v 1.3398684 -0.2219705 1.3067244
v 1.631711 -0.7427999 1.4401025
v 1.4501549 -0.62892467 1.5102493
v 1.4921486 -0.38060123 0.14179212
v 1.0096993 -1.2011418 0.041396208
v 1.0028653 -1.1624264 0.21693945
v 1.5201734 -0.41136873 -0.036462687
v 1.5646441 0.5767487 0.14443785
v 1.5917788 0.55278146 -0.052298278
v 0.81373394 -0.08905047 1.3081778
v 0.81110036 0.049389422 1.0109229
v 0.6716601 -0.06286782 1.091681
v 0.71260816 -0.22679415 1.206047
v 0.5605712 -0.21529579 1.151428
v 0.6027392 -0.39263418 1.2905749
v 0.5155697 -0.46949673 1.1116971
v 0.44607052 -0.6920762 1.2488278
v 0.03865383 -0.79928666 1.0362185
v -0.011128515 -0.9149668 1.2003348
v 0.90260434 -0.31239673 0.6568786
v 0.83317196 -0.19952427 0.605332
v 0.81110036 0.049389422 1.0109229
v 0.81373394 -0.08905047 1.3081778
v 0.65774465 -0.40988663 0.7044088
v 0.65761775 -0.5480366 0.71866846
v 0.5155697 -0.46949673 1.1116971
v 0.6716601 -0.06286782 1.091681
v 0.5605712 -0.21529579 1.151428
v 0.83317196 -0.19952427 0.605332
v 0.81110036 0.049389422 1.0109229
v 0.16475073 -1.0923609 0.7722628
v 0.17094499 -1.0420947 0.6768259
v 0.65761775 -0.5480366 0.71866846
v 0.6715723 -0.734517 0.749791
v 0.65774465 -0.40988663 0.7044088
v 0.74423414 -0.50807685 0.758083
v 0.83317196 -0.19952427 0.605332
v 0.90260434 -0.31239673 0.6568786
v 0.6228801 -0.5926069 0.7637371
v 0.17094499 -1.0420947 0.6768259
v 0.17868665 -1.0133942 0.74213946
v 0.65761775 -0.5480366 0.71866846
v 0.56142324 -0.5458811 0.9450973
v 0.5155697 -0.46949673 1.1116971
v 0.08344279 -0.8326209 0.9423493
v 0.06185291 -0.79912955 0.9677644
v 0.03865383 -0.79928666 1.0362185
v 0.8077981 -2.039402 1.3986838
v 0.67793417 -2.2239068 1.557511
v 0.65964246 -2.1940043 1.5889069
v 0.77238536 -1.996499 1.4536386
v 0.81011295 -1.7220571 1.0997572
v 0.77165586 -1.679104 1.1519645
v 0.76907223 -1.3690395 0.9586532
v 0.7269037 -1.3222663 1.040751
v 0.7097606 -0.993135 0.840539
v 0.6756714 -0.9673333 0.9145565
v 0.6228801 -0.5926069 0.7637371
v 0.56142324 -0.5458811 0.9450973
v 0.3760391 -2.1325474 1.3748572
v 0.4191966 -2.3771625 1.5731769
v 0.67793417 -2.2239068 1.557511
v 0.8077981 -2.039402 1.3986838
v 0.33728406 -1.91293 1.1638899
v 0.81011295 -1.7220571 1.0997572
v 0.270224 -1.5327085 0.92779374
v 0.76907223 -1.3690395 0.9586532
v 0.56142324 -0.5458811 0.9450973
v 0.1826202 -1.0357066 1.024103
v 0.08344279 -0.8326209 0.9423493
v 0.6756714 -0.9673333 0.9145565
v 0.24318051 -1.3790894 1.1124104
v 0.7269037 -1.3222663 1.040751
v 0.17868665 -1.0133942 0.74213946
v 0.7097606 -0.993135 0.840539
v 0.6228801 -0.5926069 0.7637371
v 0.21144529 -1.199197 0.830966
v 0.76907223 -1.3690395 0.9586532
v 0.270224 -1.5327085 0.92779374
v 0.4191966 -2.3771625 1.5731769
v 0.40559694 -2.2997856 1.7242687
v 0.65964246 -2.1940043 1.5889069
v 0.67793417 -2.2239068 1.557511
v 0.77238536 -1.996499 1.4536386
v 0.65964246 -2.1940043 1.5889069
v 0.40559694 -2.2997856 1.7242687
v 0.35448697 -2.010052 1.5213213
v 0.77165586 -1.679104 1.1519645
v 0.303975 -1.7238015 1.2439175
v 0.7269037 -1.3222663 1.040751
v 0.24318051 -1.3790894 1.1124104
v 0.8634237 -0.04756573 1.2596505
v 0.81373394 -0.08905047 1.3081778
v 0.91668475 0.47224194 1.3935184
v 0.97950995 0.40885174 1.3064882
v 0.9877901 0.0448637 1.1768024
v 1.0884119 0.35817406 1.2137991
v 1.3398684 -0.2219705 1.3067244
v 1.4459164 0.039307237 1.3219211
v 1.243563 0.42549628 0.5472225
v 1.0884119 0.35817406 1.2137991
v 0.97950995 0.40885174 1.3064882
v 1.3265011 0.32057464 0.64084405
v 1.4459164 0.039307237 1.3219211
v 1.6343321 -0.031954885 1.0415467
v 1.5194554 -0.5033367 1.6499162
v 1.7306917 -0.64363915 1.5716038
v 1.4501549 -0.62892467 1.5102493
v 1.6577368 -0.912905 1.5333276
v 1.631711 -0.7427999 1.4401025
v 1.3179864 -0.7514185 1.6239374
v 1.4612288 -1.0971864 1.6610364
v 1.5709331 -1.1493299 1.6317786
v 1.5165329 -1.6365981 1.8999814
v 1.5036304 -1.6304655 1.9034227
v 1.3287483 -1.0342174 1.6963681
v 1.2484559 -1.4699395 1.8968416
v 1.2377342 -1.4648433 1.8997008
v 1.2311828 -0.9878439 1.7223884
v 0.989107 -1.3453062 1.8731971
v 0.9719848 -1.3371677 1.8777636
v 1.1146054 -0.9399736 1.6932225
v 1.1359494 -0.7730825 1.6540809
v 0.8313696 -1.027777 1.8144985
v 0.8260036 -0.98414713 1.8079797
v 1.4706668 -0.3408212 1.0575233
v 1.7306917 -0.64363915 1.5716038
v 1.6343321 -0.031954885 1.0415467
v 1.631711 -0.7427999 1.4401025
v 1.7460381 -0.83797574 1.7370096
v 1.6577368 -0.912905 1.5333276
v 1.7146842 -1.1115376 1.8335923
v 1.5709331 -1.1493299 1.6317786
v 1.5349821 -1.6296735 1.933154
v 1.5165329 -1.6365981 1.8999814
v 1.4459164 0.039307237 1.3219211
v 1.4501549 -0.62892467 1.5102493
v 1.3398684 -0.2219705 1.3067244
v 1.5194554 -0.5033367 1.6499162
v 1.3179864 -0.7514185 1.6239374
v 1.3820205 -0.7053678 1.770569
v 1.1359494 -0.7730825 1.6540809
v 1.1310067 -0.7356635 1.8085072
v 0.8260036 -0.98414713 1.8079797
v 0.81172526 -0.9800657 1.8460851
v 0.8313696 -1.027777 1.8144985
v 0.81709135 -1.023696 1.852604
v 1.1742892 -0.06654745 0.64302576
v 1.4706668 -0.3408212 1.0575233
v 1.6343321 -0.031954885 1.0415467
v 1.3265011 0.32057464 0.64084405
v 1.7306917 -0.64363915 1.5716038
v 1.3820205 -0.7053678 1.770569
v 1.5194554 -0.5033367 1.6499162
v 1.7460381 -0.83797574 1.7370096
v 1.547397 -1.0438421 1.8477211
v 1.7146842 -1.1115376 1.8335923
v 1.5153071 -1.6217124 1.9348155
v 1.5349821 -1.6296735 1.933154
v 1.3918575 -0.98090005 1.8608578
v 1.2439029 -1.4588223 1.9195062
v 1.2564905 -1.4639161 1.9184428
v 1.295217 -0.9417926 1.8690199
v 1.1310067 -0.7356635 1.8085072
v 0.98552406 -1.3253863 1.9175795
v 1.0024843 -1.3322496 1.9161471
v 1.1096625 -0.9025538 1.8476486
v 0.81172526 -0.9800657 1.8460851
v 0.81709135 -1.023696 1.852604
v 1.547397 -1.0438421 1.8477211
v 1.5153071 -1.6217124 1.9348155
v 1.5036304 -1.6304655 1.9034227
v 1.4612288 -1.0971864 1.6610364
v 1.2311828 -0.9878439 1.7223884
v 1.1096625 -0.9025538 1.8476486
v 1.295217 -0.9417926 1.8690199
v 1.1146054 -0.9399736 1.6932225
v 0.81709135 -1.023696 1.852604
v 0.8313696 -1.027777 1.8144985
v 1.5349821 -1.6296735 1.933154
v 1.5165329 -1.6365981 1.8999814
v 1.5036304 -1.6304655 1.9034227
v 1.5153071 -1.6217124 1.9348155
v 1.2484559 -1.4699395 1.8968416
v 1.2377342 -1.4648433 1.8997008
v 1.2439029 -1.4588223 1.9195062
v 1.2564905 -1.4639161 1.9184428
v 1.3918575 -0.98090005 1.8608578
v 1.2439029 -1.4588223 1.9195062
v 1.2377342 -1.4648433 1.8997008
v 1.3287483 -1.0342174 1.6963681
v 1.4612288 -1.0971864 1.6610364
v 1.2484559 -1.4699395 1.8968416
v 1.2564905 -1.4639161 1.9184428
v 1.547397 -1.0438421 1.8477211
v 0.989107 -1.3453062 1.8731971
v 0.9719848 -1.3371677 1.8777636
v 0.98552406 -1.3253863 1.9175795
v 1.0024843 -1.3322496 1.9161471
v 1.3287483 -1.0342174 1.6963681
v 0.989107 -1.3453062 1.8731971
v 1.0024843 -1.3322496 1.9161471
v 1.3918575 -0.98090005 1.8608578
v 1.295217 -0.9417926 1.8690199
v 0.98552406 -1.3253863 1.9175795
v 0.9719848 -1.3371677 1.8777636
v 1.2311828 -0.9878439 1.7223884
v -1.0641559 -0.5686845 2.139183
v -1.0897682 -0.18325314 2.4885333
v -0.74816096 -0.6830585 2.2883267
v -1.1599638 -0.14141127 2.4040477
v -1.2727714 -0.2239129 2.0694408
v -1.1390281 0.016339153 2.5033417
v -1.1981966 -0.040782277 2.3526504
v -1.2380615 0.2295911 2.0819335
v -1.188596 0.08011936 2.3538842
v -0.9840478 0.6029697 2.1865842
v -1.131381 0.17490207 2.408193
v -1.0400959 0.206853 2.4961023
v -0.5709218 0.75519526 2.3392842
v -1.2477524 1.1675392 0.2369675
v -1.6173419 0.24065968 0.12558785
v -1.6249981 0.24136686 -0.07390191
v -1.2763383 1.2016889 0.06973984
v 0.08874962 1.6977985 0.13585833
v 0.13997543 1.7227654 -0.05399672
v -1.0934452 -0.36947536 1.3954955
v -0.7809936 -0.77323526 1.4432493
v -0.6070803 -0.80882215 1.070107
v -0.79614145 -0.57181346 1.071946
v -0.85592675 -0.4660658 1.0105982
v -0.9554867 -0.416928 1.1311605
v -1.1086622 0.16119409 1.2991544
v -1.1576072 0.20149946 1.4448049
v -1.2102859 -0.3040599 1.7292382
v -1.2096443 0.24057454 1.7517582
v -1.2727714 -0.2239129 2.0694408
v -1.2380615 0.2295911 2.0819335
v -1.2102859 -0.3040599 1.7292382
v -1.2727714 -0.2239129 2.0694408
v -1.0641559 -0.5686845 2.139183
v -0.9381161 -0.6962737 1.7909343
v -1.0934452 -0.36947536 1.3954955
v -0.74816096 -0.6830585 2.2883267
v -0.45434266 -0.7900723 1.9372406
v -0.7809936 -0.77323526 1.4432493
v -0.22442153 -0.830251 1.559327
v -0.011128515 -0.9149668 1.2003348
v -0.6070803 -0.80882215 1.070107
v -0.3455729 0.9355641 1.979839
v -0.5709218 0.75519526 2.3392842
v -0.9840478 0.6029697 2.1865842
v -0.9092751 0.71347106 1.8537378
v -1.2380615 0.2295911 2.0819335
v -0.1986017 1.0304644 1.6060622
v -1.2096443 0.24057454 1.7517582
v -0.8490627 0.7571304 1.5209363
v -0.09196381 1.0511727 1.171401
v -1.1576072 0.20149946 1.4448049
v -0.78874457 0.7292766 1.1534832
v -0.0013012923 1.3055242 0.511726
v -1.1086622 0.16119409 1.2991544
v -0.93923074 0.89551497 0.56212276
v -1.2740035 0.22399494 0.53103375
v -1.0322099 -0.46585172 0.4613626
v -1.315304 -0.0062917173 0.6733736
v -1.1301925 -0.3839832 0.58975756
v -1.2606715 0.123961225 0.571538
v -1.017742 -0.4989865 0.4147048
v -1.2740035 0.22399494 0.53103375
v -1.1123705 0.050676584 1.2481838
v -1.1086622 0.16119409 1.2991544
v 0.03785944 1.5029383 0.3212213
v -0.0013012923 1.3055242 0.511726
v -0.93923074 0.89551497 0.56212276
v -1.0899278 1.0304906 0.39532077
v 0.08874962 1.6977985 0.13585833
v -1.2740035 0.22399494 0.53103375
v -1.2477524 1.1675392 0.2369675
v -1.4436119 0.2368537 0.3307671
v -1.017742 -0.4989865 0.4147048
v -1.6173419 0.24065968 0.12558785
v -1.1830242 -0.62205696 0.23186079
v -1.340231 -0.73144305 0.04878414
v -0.6105881 -1.445491 -0.038572732
v 0.15326107 -1.5999935 0.13650875
v 0.13224551 -1.4069496 -0.027566165
v -0.5246442 -1.2662592 -0.15082604
v -1.3509661 -0.74268967 -0.1348007
v 0.19128004 1.5436232 -0.1573149
v -1.18168 -0.64486873 -0.2253134
v -1.6249981 0.24136686 -0.07390191
v -1.1484914 1.109225 -0.008418649
v 0.13997543 1.7227654 -0.05399672
v -1.2763383 1.2016889 0.06973984
v -1.4184453 0.22898446 -0.17780776
v -0.61559075 -1.4246168 0.14237657
v 0.15326107 -1.5999935 0.13650875
v -0.6105881 -1.445491 -0.038572732
v 0.16003822 -1.5663695 0.3243537
v 0.16472246 -1.3918328 0.46088213
v -0.551847 -1.2558713 0.30804902
v -1.340231 -0.73144305 0.04878414
v 0.16513799 -1.2230725 0.5932642
v -1.1830242 -0.62205696 0.23186079
v -0.4887743 -1.0861183 0.47155434
v 0.16475073 -1.0923609 0.7722628
v -0.45669693 -0.9532093 0.69818157
v -1.017742 -0.4989865 0.4147048
v -0.60903925 -0.76242733 0.69181633
v -0.8149328 -0.59558517 0.5774595
v -0.9554867 -0.416928 1.1311605
v -1.0322099 -0.46585172 0.4613626
v -0.96662587 -0.40869036 1.1107943
v -1.1301925 -0.3839832 0.58975756
v -1.026975 -0.3832767 1.0953087
v -1.4555202 -0.7632029 0.8546787
v -1.3425273 -0.7401221 1.137583
v -1.634956 -1.2720321 1.0615268
v -1.4598442 -1.1915134 1.1785885
v -1.340231 -0.73144305 0.04878414
v -0.61559075 -1.4246168 0.14237657
v -0.6105881 -1.445491 -0.038572732
v -1.3509661 -0.74268967 -0.1348007
v -1.6173419 0.24065968 0.12558785
v -1.6249981 0.24136686 -0.07390191
v -0.9554867 -0.416928 1.1311605
v -0.76864177 -0.32237422 0.979882
v -0.87057364 -0.2521412 0.92831916
v -0.85592675 -0.4660658 1.0105982
v -0.6767193 -0.43295276 1.0254306
v -0.79614145 -0.57181346 1.071946
v -0.5664882 -0.6379379 0.9978483
v -0.6070803 -0.80882215 1.070107
v 0.03865383 -0.79928666 1.0362185
v -0.011128515 -0.9149668 1.2003348
v -0.8149328 -0.59558517 0.5774595
v -0.9554867 -0.416928 1.1311605
v -0.87057364 -0.2521412 0.92831916
v -0.7654938 -0.45259053 0.5456518
v -0.5664882 -0.6379379 0.9978483
v -0.5081887 -0.7637157 0.6660125
v -0.55351764 -0.62773657 0.64977336
v -0.76864177 -0.32237422 0.979882
v -0.6767193 -0.43295276 1.0254306
v -0.7654938 -0.45259053 0.5456518
v -0.87057364 -0.2521412 0.92831916
v 0.16475073 -1.0923609 0.7722628
v -0.5081887 -0.7637157 0.6660125
v 0.17094499 -1.0420947 0.6768259
v -0.45669693 -0.9532093 0.69818157
v -0.55351764 -0.62773657 0.64977336
v -0.60903925 -0.76242733 0.69181633
v -0.7654938 -0.45259053 0.5456518
v -0.8149328 -0.59558517 0.5774595
v -0.465493 -0.79518354 0.7147629
v 0.17868665 -1.0133942 0.74213946
v 0.17094499 -1.0420947 0.6768259
v -0.5081887 -0.7637157 0.6660125
v -0.49898174 -0.726134 0.86694205
v -0.5664882 -0.6379379 0.9978483
v 0.08344279 -0.8326209 0.9423493
v 0.06185291 -0.79912955 0.9677644
v 0.03865383 -0.79928666 1.0362185
v -0.06153822 -2.192608 1.398895
v 0.13063166 -2.2872336 1.5890354
v 0.12364921 -2.3215902 1.5576457
v -0.04289952 -2.1401792 1.4538367
v -0.17231894 -1.8952051 1.099967
v -0.15084103 -1.8416895 1.1521596
v -0.25448233 -1.5494804 0.958755
v -0.2308337 -1.4911015 1.0408535
v -0.33212012 -1.1871996 0.8355145
v -0.3076948 -1.149535 0.91080946
v -0.465493 -0.79518354 0.7147629
v -0.49898174 -0.726134 0.86694205
v 0.3760391 -2.1325474 1.3748572
v 0.12364921 -2.3215902 1.5576457
v 0.4191966 -2.3771625 1.5731769
v -0.06153822 -2.192608 1.398895
v 0.33728406 -1.91293 1.1638899
v -0.17231894 -1.8952051 1.099967
v 0.270224 -1.5327085 0.92779374
v -0.25448233 -1.5494804 0.958755
v -0.49898174 -0.726134 0.86694205
v 0.08344279 -0.8326209 0.9423493
v 0.1826202 -1.0357066 1.024103
v -0.3076948 -1.149535 0.91080946
v 0.24318051 -1.3790894 1.1124104
v -0.2308337 -1.4911015 1.0408535
v 0.17868665 -1.0133942 0.74213946
v -0.465493 -0.79518354 0.7147629
v -0.33212012 -1.1871996 0.8355145
v 0.21144529 -1.199197 0.830966
v -0.25448233 -1.5494804 0.958755
v 0.270224 -1.5327085 0.92779374
v 0.4191966 -2.3771625 1.5731769
v 0.12364921 -2.3215902 1.5576457
v 0.13063166 -2.2872336 1.5890354
v 0.40559694 -2.2997856 1.7242687
v -0.04289952 -2.1401792 1.4538367
v 0.40559694 -2.2997856 1.7242687
v 0.13063166 -2.2872336 1.5890354
v 0.35448697 -2.010052 1.5213213
v -0.15084103 -1.8416895 1.1521596
v 0.303975 -1.7238015 1.2439175
v -0.2308337 -1.4911015 1.0408535
v 0.24318051 -1.3790894 1.1124104
v -0.96662587 -0.40869036 1.1107943
v -1.1086622 0.16119409 1.2991544
v -0.9554867 -0.416928 1.1311605
v -1.1123705 0.050676584 1.2481838
v -1.026975 -0.3832767 1.0953087
v -1.1502335 -0.06983736 1.2046603
v -1.3425273 -0.7401221 1.137583
v -1.4529713 -0.49965286 1.2362025
v -1.2606715 0.123961225 0.571538
v -1.1123705 0.050676584 1.2481838
v -1.1502335 -0.06983736 1.2046603
v -1.315304 -0.0062917173 0.6733736
v -1.4529713 -0.49965286 1.2362025
v -1.62214 -0.46672618 0.93705994
v -1.5396456 -1.1220143 1.3485396
v -1.7434849 -1.2241681 1.2126993
v -1.4598442 -1.1915134 1.1785885
v -1.634956 -1.2720321 1.0615268
v -1.6644815 -1.4637427 1.0875841
v -1.3334808 -1.3472152 1.2506123
v -1.2498227 -1.6039233 1.265673
v -1.1323062 -1.5499494 1.2626513
v -1.1534469 -1.3797133 1.282972
v -0.85616547 -1.677185 1.3636328
v -0.85100615 -1.6340785 1.3731233
v -1.3448756 -1.6373861 1.2188567
v -1.0128632 -1.9937506 1.2974256
v -0.99618167 -1.9878781 1.3056418
v -1.4739442 -1.6828241 1.1552866
v -1.5808233 -1.7204504 1.1026453
v -1.5367984 -2.271196 1.1866907
v -1.5242283 -2.2667706 1.192882
v -1.2714224 -2.1164083 1.2592624
v -1.2609769 -2.1127307 1.2644068
v -1.4555202 -0.7632029 0.8546787
v -1.62214 -0.46672618 0.93705994
v -1.7434849 -1.2241681 1.2126993
v -1.634956 -1.2720321 1.0615268
v -1.7666103 -1.463901 1.2984575
v -1.6644815 -1.4637427 1.0875841
v -1.7376453 -1.7542422 1.2952234
v -1.5808233 -1.7204504 1.1026453
v -1.5574168 -2.2761304 1.2189282
v -1.5367984 -2.271196 1.1866907
v -1.4529713 -0.49965286 1.2362025
v -1.3425273 -0.7401221 1.137583
v -1.4598442 -1.1915134 1.1785885
v -1.5396456 -1.1220143 1.3485396
v -1.3334808 -1.3472152 1.2506123
v -1.4073579 -1.3547184 1.3996351
v -1.1534469 -1.3797133 1.282972
v -1.1588696 -1.3986589 1.4407178
v -0.85100615 -1.6340785 1.3731233
v -0.83924115 -1.6437001 1.4110912
v -0.85616547 -1.677185 1.3636328
v -0.84440047 -1.6868067 1.4016007
v -1.1301925 -0.3839832 0.58975756
v -1.315304 -0.0062917173 0.6733736
v -1.62214 -0.46672618 0.93705994
v -1.4555202 -0.7632029 0.8546787
v -1.7434849 -1.2241681 1.2126993
v -1.5396456 -1.1220143 1.3485396
v -1.4073579 -1.3547184 1.3996351
v -1.7666103 -1.463901 1.2984575
v -1.3236998 -1.6114261 1.4146959
v -1.1588696 -1.3986589 1.4407178
v -1.1377283 -1.5688946 1.4203972
v -0.83924115 -1.6437001 1.4110912
v -0.84440047 -1.6868067 1.4016007
v -1.4190682 -1.6443293 1.3871708
v -1.012392 -1.9906278 1.3461027
v -1.0291289 -1.9964023 1.341272
v -1.5725604 -1.6972861 1.34287
v -1.2684777 -2.1139536 1.2846259
v -1.2808995 -2.1182392 1.2810405
v -1.7376453 -1.7542422 1.2952234
v -1.5380011 -2.269432 1.2245318
v -1.5574168 -2.2761304 1.2189282
v -1.5725604 -1.6972861 1.34287
v -1.4739442 -1.6828241 1.1552866
v -1.5242283 -2.2667706 1.192882
v -1.5380011 -2.269432 1.2245318
v -1.2498227 -1.6039233 1.265673
v -1.3236998 -1.6114261 1.4146959
v -1.1377283 -1.5688946 1.4203972
v -1.1323062 -1.5499494 1.2626513
v -0.84440047 -1.6868067 1.4016007
v -0.85616547 -1.677185 1.3636328
v -1.5574168 -2.2761304 1.2189282
v -1.5380011 -2.269432 1.2245318
v -1.5242283 -2.2667706 1.192882
v -1.5367984 -2.271196 1.1866907
v -1.2714224 -2.1164083 1.2592624
v -1.2808995 -2.1182392 1.2810405
v -1.2684777 -2.1139536 1.2846259
v -1.2609769 -2.1127307 1.2644068
v -1.4190682 -1.6443293 1.3871708
v -1.3448756 -1.6373861 1.2188567
v -1.2609769 -2.1127307 1.2644068
v -1.2684777 -2.1139536 1.2846259
v -1.4739442 -1.6828241 1.1552866
v -1.5725604 -1.6972861 1.34287
v -1.2808995 -2.1182392 1.2810405
v -1.2714224 -2.1164083 1.2592624
v -1.0128632 -1.9937506 1.2974256
v -1.0291289 -1.9964023 1.341272
v -1.012392 -1.9906278 1.3461027
v -0.99618167 -1.9878781 1.3056418
v -1.3448756 -1.6373861 1.2188567
v -1.4190682 -1.6443293 1.3871708
v -1.0291289 -1.9964023 1.341272
v -1.0128632 -1.9937506 1.2974256
v -1.3236998 -1.6114261 1.4146959
v -1.2498227 -1.6039233 1.265673
v -0.99618167 -1.9878781 1.3056418
v -1.012392 -1.9906278 1.3461027
vt 0.74890864 0.33473623
vt 0.6717679 0.31027758
vt 0.66713095 0.40442336
vt 0.68728566 0.4108137
vt 0.7965842 0.40015852
vt 0.6663609 0.43831098
vt 0.6997419 0.4279067
vt 0.7965842 0.48155546
vt 0.6997419 0.4491734
vt 0.7489086 0.5478362
vt 0.6872856 0.46649063
vt 0.66713095 0.47324383
vt 0.67176783 0.5736836
vt 0.9637046 0.45414358
vt 0.93541497 0.5978774
vt 0.96895975 0.5964614
vt 0.93010426 0.45405513
vt 0.96895975 0.2798921
vt 0.93541497 0.2779616
vt 0.16803193 0.630366
vt 0.17640781 0.5801308
vt 0.115820885 0.5862611
vt 0.11693096 0.6796261
vt 0.17727995 0.65348226
vt 0.15565658 0.67443293
vt 0.15847087 0.7843158
vt 0.12917185 0.7872804
vt 0.06099415 0.68868005
vt 0.07220554 0.7872804
vt 0.004541397 0.70104825
vt 0.013733864 0.7818932
vt 0.41405088 0.48246205
vt 0.4735523 0.5689744
vt 0.48031563 0.50047475
vt 0.40580213 0.5660057
vt 0.35368103 0.47522599
vt 0.48031563 0.6502857
vt 0.41405088 0.6651749
vt 0.34467483 0.56644106
vt 0.35368103 0.67471635
vt 0.30095118 0.6785831
vt 0.28536028 0.57079065
vt 0.72617555 0.23695126
vt 0.6334386 0.2987338
vt 0.7150438 0.30119494
vt 0.62664795 0.23394963
vt 0.5667885 0.30119494
vt 0.73265326 0.17673379
vt 0.54536 0.23695126
vt 0.6239867 0.17345652
vt 0.73444176 0.11545947
vt 0.5352346 0.17673379
vt 0.6257751 0.11218226
vt 0.7502142 0.008557349
vt 0.53609943 0.14710242
vt 0.61705065 0.0045413673
vt 0.508291 0.008557409
vt 0.6136563 0.78230274
vt 0.59442616 0.80247563
vt 0.6041634 0.87777376
vt 0.6276983 0.8904389
vt 0.6210798 0.77578527
vt 0.6383977 0.9074241
vt 0.51326406 0.89050305
vt 0.508291 0.9074241
vt 0.63353 0.33707404
vt 0.5797186 0.47161484
vt 0.6572782 0.3638705
vt 0.5440047 0.4614408
vt 0.60978174 0.3102777
vt 0.5797185 0.60484517
vt 0.5082909 0.45126677
vt 0.5440047 0.6152253
vt 0.6572782 0.7126719
vt 0.5082909 0.6256056
vt 0.63353 0.73968726
vt 0.60978174 0.7667026
vt 0.10771382 0.06026554
vt 0.27627754 0.042261958
vt 0.27465045 0.004541397
vt 0.13032222 0.090982676
vt 0.004541397 0.20289826
vt 0.13032222 0.49169338
vt 0.27627754 0.53756785
vt 0.27465045 0.57104814
vt 0.10771382 0.51857924
vt 0.040116906 0.21568859
vt 0.004541397 0.37795854
vt 0.040116906 0.36874652
vt 0.46823847 0.17876983
vt 0.49920815 0.16713661
vt 0.4316672 0.0045413375
vt 0.40140402 0.017875373
vt 0.3697834 0.04301536
vt 0.4287382 0.18494064
vt 0.49920815 0.3224484
vt 0.33816284 0.06815541
vt 0.45605665 0.31167978
vt 0.38923794 0.19111145
vt 0.30002677 0.09147996
vt 0.34136087 0.2035042
vt 0.4129051 0.30091113
vt 0.3427356 0.23802859
vt 0.37234122 0.27309045
vt 0.28536028 0.32351992
vt 0.40577763 0.30731925
vt 0.29442835 0.32775104
vt 0.39255768 0.3331457
vt 0.30128193 0.34407
vt 0.3696847 0.4130204
vt 0.316028 0.41050625
vt 0.34918767 0.46614328
vt 0.3190418 0.44240487
vt 0.88015616 0.4308536
vt 0.92102146 0.2779616
vt 0.8883019 0.2813499
vt 0.9127896 0.42904556
vt 0.8883019 0.604403
vt 0.92102146 0.6044296
vt 0.92042327 0.8231498
vt 0.95599186 0.8245685
vt 0.9529158 0.7990128
vt 0.92184687 0.79769146
vt 0.944216 0.7720341
vt 0.9131471 0.77071285
vt 0.9262327 0.7379135
vt 0.8992187 0.71540093
vt 0.95599186 0.6287955
vt 0.9359044 0.61351234
vt 0.4951718 0.690281
vt 0.4716521 0.68766576
vt 0.46115664 0.7574903
vt 0.4951718 0.78983396
vt 0.8263372 0.22392666
vt 0.8312873 0.20070249
vt 0.7756655 0.19722342
vt 0.7595817 0.25615913
vt 0.7592969 0.23126322
vt 0.8312873 0.26076448
vt 0.76217866 0.27623308
vt 0.1528058 0.9954586
vt 0.17297757 0.9805787
vt 0.14940989 0.86111856
vt 0.120639086 0.8822142
vt 0.16705024 0.8451873
vt 0.13673139 0.8455496
vt 0.17297757 0.7963631
vt 0.14265871 0.79672545
vt 0.96449995 0.949986
vt 0.9768403 0.8341253
vt 0.9583186 0.8374158
vt 0.97394526 0.9589685
vt 0.9370234 0.9511169
vt 0.91514146 0.9589685
vt 0.91664225 0.8441341
vt 0.91131157 0.845767
vt 0.9047306 0.84629834
vt 0.24212086 0.62085164
vt 0.26272297 0.58408916
vt 0.25492644 0.58013093
vt 0.23041713 0.6148417
vt 0.21321535 0.68580496
vt 0.19992411 0.6859044
vt 0.20205033 0.74947226
vt 0.18636262 0.7531501
vt 0.21767807 0.81040287
vt 0.20473075 0.816103
vt 0.26272297 0.85745966
vt 0.24731362 0.8788526
vt 0.8921899 0.8861185
vt 0.8956479 0.8341253
vt 0.8443022 0.8430877
vt 0.8160554 0.8729528
vt 0.89046186 0.93449223
vt 0.80566704 0.93307245
vt 0.8956479 0.9850062
vt 0.80715513 0.98099226
vt 0.0045413673 0.7963631
vt 0.11155632 0.87074345
vt 0.109398395 0.8257038
vt 0.020405829 0.86897737
vt 0.11155632 0.9283557
vt 0.025079906 0.92566746
vt 0.6663609 0.9029835
vt 0.76336145 0.9226998
vt 0.7696104 0.8577449
vt 0.6672575 0.935741
vt 0.7592356 0.97535855
vt 0.6669169 0.97535855
vt 0.4611566 0.8497342
vt 0.49111164 0.8497342
vt 0.47845495 0.8009338
vt 0.47014856 0.7989167
vt 0.81213677 0.75574785
vt 0.8302027 0.7971086
vt 0.8746209 0.82504255
vt 0.88416404 0.76295877
vt 0.80867016 0.6788735
vt 0.8901358 0.683446
vt 0.8056669 0.61351246
vt 0.8901358 0.61675274
vt 0.37431955 0.9788019
vt 0.38170052 0.98294646
vt 0.3817004 0.8734242
vt 0.37556243 0.88998085
vt 0.3596846 0.9653265
vt 0.36173642 0.90428126
vt 0.28536034 0.99293786
vt 0.28748286 0.9440813
vt 0.77717674 0.84866214
vt 0.6815368 0.7817943
vt 0.66636086 0.7922282
vt 0.773233 0.8210635
vt 0.7190927 0.7010453
vt 0.77717674 0.71481943
vt 0.7315622 0.6027491
vt 0.77293515 0.5827663
vt 0.85305345 0.004541397
vt 0.8962079 0.04791403
vt 0.88581395 0.016323805
vt 0.835325 0.033143044
vt 0.8690835 0.089292884
vt 0.8887423 0.09406233
vt 0.8962079 0.18814075
vt 0.89389586 0.18757987
vt 0.8453431 0.08353317
vt 0.84576 0.16708875
vt 0.8438386 0.16662264
vt 0.8278594 0.07929158
vt 0.7974168 0.15218425
vt 0.7943485 0.1514399
vt 0.80595624 0.07329798
vt 0.8049116 0.04293132
vt 0.761392 0.100438714
vt 0.7592969 0.09293687
vt 0.8710735 0.55522037
vt 0.8115202 0.47985578
vt 0.8344184 0.6044297
vt 0.8448831 0.47617984
vt 0.8056669 0.43957376
vt 0.845904 0.44754577
vt 0.8194058 0.39450574
vt 0.85972285 0.40285373
vt 0.8647268 0.3102777
vt 0.8710735 0.31191897
vt 0.92572474 0.0045413673
vt 0.938638 0.10348278
vt 0.9503828 0.045675993
vt 0.9052907 0.093052626
vt 0.9359654 0.14035517
vt 0.90686154 0.14094281
vt 0.94255674 0.16220856
vt 0.91653895 0.1708278
vt 0.94892144 0.22975874
vt 0.943537 0.2337237
vt 0.9503828 0.23527282
vt 0.94499826 0.23923779
vt 0.46300977 0.95972764
vt 0.46300974 0.8734243
vt 0.4046383 0.891659
vt 0.3907832 0.9822959
vt 0.33973265 0.6891366
vt 0.38841653 0.7328403
vt 0.3845024 0.68766576
vt 0.3211038 0.72103876
vt 0.33401203 0.7718226
vt 0.30249643 0.7674545
vt 0.2890668 0.8643415
vt 0.28536034 0.86382776
vt 0.36331463 0.775884
vt 0.34466767 0.86251265
vt 0.34229612 0.862184
vt 0.381521 0.7784073
vt 0.4243176 0.7598102
vt 0.39576674 0.8643415
vt 0.3925717 0.8638987
vt 0.41323447 0.7878766
vt 0.45207405 0.8251667
vt 0.44748878 0.83148295
vt 0.26932418 0.97108996
vt 0.2466892 0.8879354
vt 0.24062872 0.888224
vt 0.23233974 0.97108996
vt 0.9928005 0.68157107
vt 0.96507454 0.66193813
vt 0.96694696 0.69532233
vt 0.9928005 0.65980536
vt 0.96688235 0.61351246
vt 0.9736223 0.6151574
vt 0.48939836 0.4925487
vt 0.49032724 0.49926412
vt 0.49286652 0.49926412
vt 0.49301994 0.49317682
vt 0.49172482 0.50834703
vt 0.48961535 0.50839996
vt 0.48939833 0.51219356
vt 0.49172482 0.512537
vt 0.9917692 0.17933309
vt 0.9656012 0.1000334
vt 0.9618075 0.10021782
vt 0.9594656 0.17933309
vt 0.22325695 0.9741243
vt 0.2186513 0.8881142
vt 0.21448505 0.8879354
vt 0.18636262 0.9741243
vt 0.49275675 0.47522604
vt 0.48939833 0.4755031
vt 0.48960087 0.48318326
vt 0.49275675 0.48346603
vt 0.991629 0.08838332
vt 0.991629 0.004541397
vt 0.9834006 0.0048244
vt 0.9594656 0.09095073
vt 0.8674491 0.28671396
vt 0.8674491 0.19961786
vt 0.86016077 0.19722354
vt 0.8403701 0.27603197
vt 0.74890864 0.33473623
vt 0.66713095 0.40442336
vt 0.6717679 0.31027758
vt 0.68728566 0.4108137
vt 0.7965842 0.40015852
vt 0.6663609 0.43831098
vt 0.6997419 0.4279067
vt 0.7965842 0.48155546
vt 0.6997419 0.4491734
vt 0.7489086 0.5478362
vt 0.6872856 0.46649063
vt 0.66713095 0.47324383
vt 0.67176783 0.5736836
vt 0.9637046 0.45414358
vt 0.96895975 0.5964614
vt 0.93541497 0.5978774
vt 0.93010426 0.45405513
vt 0.96895975 0.2798921
vt 0.93541497 0.2779616
vt 0.11693096 0.6796261
vt 0.115820885 0.5862611
vt 0.17640781 0.5801308
vt 0.16803193 0.630366
vt 0.17727995 0.65348226
vt 0.15565658 0.67443293
vt 0.15847087 0.7843158
vt 0.12917185 0.7872804
vt 0.06099415 0.68868005
vt 0.07220554 0.7872804
vt 0.004541397 0.70104825
vt 0.013733864 0.7818932
vt 0.41405088 0.48246205
vt 0.48031563 0.50047475
vt 0.4735523 0.5689744
vt 0.40580213 0.5660057
vt 0.35368103 0.47522599
vt 0.48031563 0.6502857
vt 0.41405088 0.6651749
vt 0.34467483 0.56644106
vt 0.35368103 0.67471635
vt 0.30095118 0.6785831
vt 0.28536028 0.57079065
vt 0.72617555 0.23695126
vt 0.7150438 0.30119494
vt 0.6334386 0.2987338
vt 0.62664795 0.23394963
vt 0.5667885 0.30119494
vt 0.73265326 0.17673379
vt 0.54536 0.23695126
vt 0.6239867 0.17345652
vt 0.73444176 0.11545947
vt 0.5352346 0.17673379
vt 0.6257751 0.11218226
vt 0.7502142 0.008557349
vt 0.53609943 0.14710242
vt 0.61705065 0.0045413673
vt 0.508291 0.008557409
vt 0.6136563 0.78230274
vt 0.6041634 0.87777376
vt 0.59442616 0.80247563
vt 0.6276983 0.8904389
vt 0.6210798 0.77578527
vt 0.6383977 0.9074241
vt 0.51326406 0.89050305
vt 0.508291 0.9074241
vt 0.63353 0.33707404
vt 0.6572782 0.3638705
vt 0.5797186 0.47161484
vt 0.5440047 0.4614408
vt 0.60978174 0.3102777
vt 0.5797185 0.60484517
vt 0.5082909 0.45126677
vt 0.5440047 0.6152253
vt 0.6572782 0.7126719
vt 0.5082909 0.6256056
vt 0.63353 0.73968726
vt 0.60978174 0.7667026
vt 0.10771382 0.06026554
vt 0.27465045 0.004541397
vt 0.27627754 0.042261958
vt 0.13032222 0.090982676
vt 0.004541397 0.20289826
vt 0.27627754 0.53756785
vt 0.040116906 0.21568859
vt 0.004541397 0.37795854
vt 0.13032222 0.49169338
vt 0.27465045 0.57104814
vt 0.10771382 0.51857924
vt 0.040116906 0.36874652
vt 0.46823847 0.17876983
vt 0.4316672 0.0045413375
vt 0.49920815 0.16713661
vt 0.40140402 0.017875373
vt 0.3697834 0.04301536
vt 0.4287382 0.18494064
vt 0.49920815 0.3224484
vt 0.33816284 0.06815541
vt 0.45605665 0.31167978
vt 0.38923794 0.19111145
vt 0.30002677 0.09147996
vt 0.34136087 0.2035042
vt 0.4129051 0.30091113
vt 0.3427356 0.23802859
vt 0.37234122 0.27309045
vt 0.28536028 0.32351992
vt 0.40577763 0.30731925
vt 0.29442835 0.32775104
vt 0.39255768 0.3331457
vt 0.30128193 0.34407
vt 0.3696847 0.4130204
vt 0.316028 0.41050625
vt 0.34918767 0.46614328
vt 0.3190418 0.44240487
vt 0.88015616 0.4308536
vt 0.8883019 0.2813499
vt 0.92102146 0.2779616
vt 0.9127896 0.42904556
vt 0.8883019 0.604403
vt 0.92102146 0.6044296
vt 0.92042327 0.8231498
vt 0.9529158 0.7990128
vt 0.95599186 0.8245685
vt 0.92184687 0.79769146
vt 0.944216 0.7720341
vt 0.9131471 0.77071285
vt 0.9262327 0.7379135
vt 0.8992187 0.71540093
vt 0.95599186 0.6287955
vt 0.9359044 0.61351234
vt 0.4951718 0.690281
vt 0.4951718 0.78983396
vt 0.46115664 0.7574903
vt 0.4716521 0.68766576
vt 0.7756655 0.19722342
vt 0.8312873 0.20070249
vt 0.8263372 0.22392666
vt 0.7595817 0.25615913
vt 0.7592969 0.23126322
vt 0.8312873 0.26076448
vt 0.76217866 0.27623308
vt 0.1528058 0.9954586
vt 0.14940989 0.86111856
vt 0.17297757 0.9805787
vt 0.120639086 0.8822142
vt 0.16705024 0.8451873
vt 0.13673139 0.8455496
vt 0.17297757 0.7963631
vt 0.14265871 0.79672545
vt 0.96449995 0.949986
vt 0.9583186 0.8374158
vt 0.9768403 0.8341253
vt 0.97394526 0.9589685
vt 0.9370234 0.9511169
vt 0.91514146 0.9589685
vt 0.91664225 0.8441341
vt 0.91131157 0.845767
vt 0.9047306 0.84629834
vt 0.24212086 0.62085164
vt 0.25492644 0.58013093
vt 0.26272297 0.58408916
vt 0.23041713 0.6148417
vt 0.21321535 0.68580496
vt 0.19992411 0.6859044
vt 0.20205033 0.74947226
vt 0.18636262 0.7531501
vt 0.21767807 0.81040287
vt 0.20473075 0.816103
vt 0.26272297 0.85745966
vt 0.24731362 0.8788526
vt 0.8921899 0.8861185
vt 0.8443022 0.8430877
vt 0.8956479 0.8341253
vt 0.8160554 0.8729528
vt 0.89046186 0.93449223
vt 0.80566704 0.93307245
vt 0.8956479 0.9850062
vt 0.80715513 0.98099226
vt 0.0045413673 0.7963631
vt 0.109398395 0.8257038
vt 0.11155632 0.87074345
vt 0.020405829 0.86897737
vt 0.11155632 0.9283557
vt 0.025079906 0.92566746
vt 0.6663609 0.9029835
vt 0.7696104 0.8577449
vt 0.76336145 0.9226998
vt 0.6672575 0.935741
vt 0.7592356 0.97535855
vt 0.6669169 0.97535855
vt 0.4611566 0.8497342
vt 0.47014856 0.7989167
vt 0.47845495 0.8009338
vt 0.49111164 0.8497342
vt 0.81213677 0.75574785
vt 0.8746209 0.82504255
vt 0.8302027 0.7971086
vt 0.88416404 0.76295877
vt 0.80867016 0.6788735
vt 0.8901358 0.683446
vt 0.8056669 0.61351246
vt 0.8901358 0.61675274
vt 0.37431955 0.9788019
vt 0.3817004 0.8734242
vt 0.38170052 0.98294646
vt 0.37556243 0.88998085
vt 0.3596846 0.9653265
vt 0.36173642 0.90428126
vt 0.28536034 0.99293786
vt 0.28748286 0.9440813
vt 0.77717674 0.84866214
vt 0.66636086 0.7922282
vt 0.6815368 0.7817943
vt 0.773233 0.8210635
vt 0.7190927 0.7010453
vt 0.77717674 0.71481943
vt 0.7315622 0.6027491
vt 0.77293515 0.5827663
vt 0.85305345 0.004541397
vt 0.88581395 0.016323805
vt 0.8962079 0.04791403
vt 0.835325 0.033143044
vt 0.8278594 0.07929158
vt 0.80595624 0.07329798
vt 0.8049116 0.04293132
vt 0.761392 0.100438714
vt 0.7592969 0.09293687
vt 0.8453431 0.08353317
vt 0.7974168 0.15218425
vt 0.7943485 0.1514399
vt 0.8690835 0.089292884
vt 0.8887423 0.09406233
vt 0.8962079 0.18814075
vt 0.89389586 0.18757987
vt 0.84576 0.16708875
vt 0.8438386 0.16662264
vt 0.8710735 0.55522037
vt 0.8344184 0.6044297
vt 0.8115202 0.47985578
vt 0.8448831 0.47617984
vt 0.8056669 0.43957376
vt 0.845904 0.44754577
vt 0.8194058 0.39450574
vt 0.85972285 0.40285373
vt 0.8647268 0.3102777
vt 0.8710735 0.31191897
vt 0.92572474 0.0045413673
vt 0.9503828 0.045675993
vt 0.938638 0.10348278
vt 0.9052907 0.093052626
vt 0.9359654 0.14035517
vt 0.90686154 0.14094281
vt 0.94255674 0.16220856
vt 0.91653895 0.1708278
vt 0.94892144 0.22975874
vt 0.943537 0.2337237
vt 0.9503828 0.23527282
vt 0.94499826 0.23923779
vt 0.46300977 0.95972764
vt 0.3907832 0.9822959
vt 0.4046383 0.891659
vt 0.46300974 0.8734243
vt 0.33973265 0.6891366
vt 0.3845024 0.68766576
vt 0.38841653 0.7328403
vt 0.3211038 0.72103876
vt 0.381521 0.7784073
vt 0.4243176 0.7598102
vt 0.41323447 0.7878766
vt 0.45207405 0.8251667
vt 0.44748878 0.83148295
vt 0.36331463 0.775884
vt 0.39576674 0.8643415
vt 0.3925717 0.8638987
vt 0.33401203 0.7718226
vt 0.34466767 0.86251265
vt 0.34229612 0.862184
vt 0.30249643 0.7674545
vt 0.2890668 0.8643415
vt 0.28536034 0.86382776
vt 0.26932418 0.97108996
vt 0.23233974 0.97108996
vt 0.24062872 0.888224
vt 0.2466892 0.8879354
vt 0.9928005 0.68157107
vt 0.96694696 0.69532233
vt 0.96507454 0.66193813
vt 0.9928005 0.65980536
vt 0.96688235 0.61351246
vt 0.9736223 0.6151574
vt 0.48939836 0.4925487
vt 0.49301994 0.49317682
vt 0.49286652 0.49926412
vt 0.49032724 0.49926412
vt 0.49172482 0.50834703
vt 0.49172482 0.512537
vt 0.48939833 0.51219356
vt 0.48961535 0.50839996
vt 0.9917692 0.17933309
vt 0.9594656 0.17933309
vt 0.9618075 0.10021782
vt 0.9656012 0.1000334
vt 0.22325695 0.9741243
vt 0.18636262 0.9741243
vt 0.21448505 0.8879354
vt 0.2186513 0.8881142
vt 0.49275675 0.47522604
vt 0.49275675 0.48346603
vt 0.48960087 0.48318326
vt 0.48939833 0.4755031
vt 0.991629 0.08838332
vt 0.9594656 0.09095073
vt 0.9834006 0.0048244
vt 0.991629 0.004541397
vt 0.8674491 0.28671396
vt 0.8403701 0.27603197
vt 0.86016077 0.19722354
vt 0.8674491 0.19961786
vn 0.030858457 -0.56012386 0.7862692
vn -0.39373198 -0.6408129 0.57619053
vn -0.72483355 -0.263246 0.6219139
vn -0.60019386 -0.21212578 0.75756407
vn 0.30125982 -0.2557503 0.88813996
vn -0.7746168 0.047445375 0.6306486
vn -0.51447535 -0.063555054 0.8412049
vn 0.35820964 0.19404285 0.87783337
vn -0.4998532 0.12568262 0.84217674
vn 0.14309996 0.580204 0.77418923
vn -0.55866474 0.28310594 0.7625699
vn -0.6620016 0.34818977 0.63956606
vn -0.23763195 0.73968476 0.6017477
vn 0.5258942 0.6901738 0.42735785
vn 0.8523619 0.16040736 -0.39588323
vn 0.8252992 0.2121249 0.4408603
vn 0.5821835 0.63372815 -0.41283605
vn -0.010077748 0.888636 0.39396182
vn 0.06915302 0.85238504 -0.44383886
vn 0.6271041 -0.5888073 -0.43340653
vn 0.5235395 -0.7159963 -0.36384326
vn 0.474574 -0.77052766 0.32921904
vn 0.7723919 -0.45648554 0.36266124
vn 0.47561556 -0.6661766 -0.5012611
vn 0.61988676 -0.69283974 0.25585687
vn 0.8949784 0.17221026 0.29241896
vn 0.8880555 0.16848515 0.31882602
vn 0.678036 -0.37211624 0.59239936
vn 0.75188565 0.21213971 0.571604
vn 0.30125982 -0.2557503 0.88813996
vn 0.35820964 0.19404285 0.87783337
vn 0.678036 -0.37211624 0.59239936
vn 0.030858457 -0.56012386 0.7862692
vn 0.30125982 -0.2557503 0.88813996
vn 0.33189222 -0.7438738 0.5290639
vn 0.7723919 -0.45648554 0.36266124
vn -0.39373198 -0.6408129 0.57619053
vn -0.15723918 -0.83519465 0.40279508
vn 0.474574 -0.77052766 0.32921904
vn -0.042960234 -0.8474699 0.3595761
vn 0.17525542 -0.91713893 -0.12132877
vn 0.5235395 -0.7159963 -0.36384326
vn -0.060568113 0.9421301 0.2995216
vn 0.14309996 0.580204 0.77418923
vn -0.23763195 0.73968476 0.6017477
vn 0.45480824 0.7333246 0.47023338
vn 0.35820964 0.19404285 0.87783337
vn -0.0076292884 0.9801841 0.10881353
vn 0.75188565 0.21213971 0.571604
vn 0.55505735 0.766006 0.24280979
vn -0.04296355 0.9639933 0.17704259
vn 0.8880555 0.16848515 0.31882602
vn 0.5260876 0.7812613 0.23917897
vn -0.053840164 0.8044988 0.5607932
vn 0.8949784 0.17221026 0.29241896
vn 0.42912292 0.65930474 0.5824671
vn 0.7656857 0.17819634 0.56481665
vn 0.75727654 -0.56665146 0.05426489
vn 0.50891984 -0.77224684 -0.31638354
vn 0.927665 0.16290794 -0.22037041
vn 0.94834894 -0.043858416 0.017937906
vn 0.6444218 -0.41440138 0.56317157
vn 0.7656857 0.17819634 0.56481665
vn 0.74202204 -0.0051959343 0.6303767
vn 0.8949784 0.17221026 0.29241896
vn -0.049392432 0.68232405 0.708847
vn 0.42912292 0.65930474 0.5824671
vn -0.053840164 0.8044988 0.5607932
vn 0.3627927 0.54554564 0.73499626
vn -0.010077748 0.888636 0.39396182
vn 0.7656857 0.17819634 0.56481665
vn 0.5258942 0.6901738 0.42735785
vn 0.60855174 0.16033737 0.75070375
vn 0.6444218 -0.41440138 0.56317157
vn 0.8252992 0.2121249 0.4408603
vn 0.56416154 -0.19914964 0.75146586
vn 0.7825988 -0.28290308 0.4571821
vn 0.53410286 -0.7186547 -0.28932047
vn 0.056724414 -0.45332944 -0.8255681
vn 0.057630457 -0.89438653 -0.19335054
vn 0.20517552 -0.3566583 -0.86537755
vn 0.81072104 -0.35156763 -0.36243388
vn 0.24393186 0.15549552 -0.94406307
vn 0.09954311 0.24349993 -0.95088273
vn 0.06915302 0.85238504 -0.44383886
vn 0.5821835 0.63372815 -0.41283605
vn 0.29713926 -0.19542149 -0.90538275
vn 0.8523619 0.16040736 -0.39588323
vn 0.31172112 -0.010038167 -0.9285728
vn 0.5116213 -0.59322727 0.50980985
vn 0.53410286 -0.7186547 -0.28932047
vn 0.057630457 -0.89438653 -0.19335054
vn 0.022119893 -0.6954836 0.5971644
vn 0.003476873 -0.391434 0.839674
vn 0.3697873 -0.37517607 0.77887213
vn 0.7825988 -0.28290308 0.4571821
vn 0.022286825 -0.447469 0.8079997
vn 0.56416154 -0.19914964 0.75146586
vn 0.4217112 -0.45946702 0.6934079
vn -0.018356822 -0.04613951 0.94048107
vn 0.23139122 -0.2137021 0.87436557
vn 0.6444218 -0.41440138 0.56317157
vn 0.24532168 -0.008187637 0.9075007
vn -0.14115885 -0.15626684 0.94135326
vn 0.61988676 -0.69283974 0.25585687
vn 0.75727654 -0.56665146 0.05426489
vn 0.46589297 -0.6307142 0.59855354
vn 0.50891984 -0.77224684 -0.31638354
vn -0.16414154 -0.5362475 0.82472265
vn 0.04537609 -0.76880604 -0.63787013
vn -0.8835331 -0.30192417 0.3580657
vn 0.22411321 -0.51357245 -0.8282612
vn -0.9490773 -0.101835504 -0.29813027
vn 0.7825988 -0.28290308 0.4571821
vn 0.53410286 -0.7186547 -0.28932047
vn 0.5116213 -0.59322727 0.50980985
vn 0.81072104 -0.35156763 -0.36243388
vn 0.8252992 0.2121249 0.4408603
vn 0.8523619 0.16040736 -0.39588323
vn 0.61988676 -0.69283974 0.25585687
vn -0.18968545 -0.9242731 0.030409183
vn 0.62091184 -0.6876938 -0.22768785
vn 0.47561556 -0.6661766 -0.5012611
vn 0.6637981 -0.6231685 -0.29268098
vn 0.6271041 -0.5888073 -0.43340653
vn 0.6994381 -0.58423245 -0.30094063
vn 0.5235395 -0.7159963 -0.36384326
vn 0.18494594 -0.9013386 -0.24241456
vn 0.17525542 -0.91713893 -0.12132877
vn -0.14115885 -0.15626684 0.94135326
vn -0.12304278 -0.28083766 0.90594184
vn -0.18968545 -0.9242731 0.030409183
vn 0.61988676 -0.69283974 0.25585687
vn 0.47864333 0.022242382 0.805415
vn 0.14305794 -0.09852117 0.9181623
vn 0.6994381 -0.58423245 -0.30094063
vn 0.62091184 -0.6876938 -0.22768785
vn 0.6637981 -0.6231685 -0.29268098
vn -0.12304278 -0.28083766 0.90594184
vn -0.18968545 -0.9242731 0.030409183
vn -0.018356822 -0.04613951 0.94048107
vn -0.03762488 0.13920295 0.9459931
vn 0.14305794 -0.09852117 0.9181623
vn 0.23139122 -0.2137021 0.87436557
vn 0.47864333 0.022242382 0.805415
vn 0.24532168 -0.008187637 0.9075007
vn -0.12304278 -0.28083766 0.90594184
vn -0.14115885 -0.15626684 0.94135326
vn 0.72820127 -0.54518086 0.23344395
vn -0.03762488 0.13920295 0.9459931
vn 0.1683976 -0.95502555 -0.1625689
vn 0.14305794 -0.09852117 0.9181623
vn 0.5924801 -0.3838046 0.60946256
vn 0.6994381 -0.58423245 -0.30094063
vn -0.071414314 0.08896771 0.9498668
vn 0.046445373 -0.6086415 0.7224375
vn 0.18494594 -0.9013386 -0.24241456
vn 0.91879046 -0.34141433 -0.1588652
vn 0.7094262 -0.69738895 -0.021635145
vn 0.52134085 -0.057332784 0.84318894
vn 0.5577956 0.3730139 0.72085494
vn 0.91810805 -0.08059764 -0.35173976
vn 0.5609104 0.30216688 0.72251046
vn 0.9193787 -0.016049415 -0.36618578
vn 0.5441611 0.31249243 0.74052334
vn 0.91514075 -0.1494046 -0.34670487
vn 0.5538131 0.36029404 0.70768934
vn 0.72820127 -0.54518086 0.23344395
vn 0.5924801 -0.3838046 0.60946256
vn 0.12017253 -0.68288755 -0.72057104
vn 0.17244719 -0.97867006 -0.11165246
vn 0.7094262 -0.69738895 -0.021635145
vn 0.91879046 -0.34141433 -0.1588652
vn 0.13509372 -0.76741564 -0.6196449
vn 0.91810805 -0.08059764 -0.35173976
vn 0.09143873 -0.5198894 -0.8275841
vn 0.9193787 -0.016049415 -0.36618578
vn 0.5924801 -0.3838046 0.60946256
vn -0.07405821 0.42000127 0.9035378
vn -0.071414314 0.08896771 0.9498668
vn 0.5538131 0.36029404 0.70768934
vn -0.052090198 0.29612896 0.915007
vn 0.5441611 0.31249243 0.74052334
vn 0.1683976 -0.95502555 -0.1625689
vn 0.91514075 -0.1494046 -0.34670487
vn 0.72820127 -0.54518086 0.23344395
vn 0.07927556 -0.44964945 -0.88114035
vn 0.9193787 -0.016049415 -0.36618578
vn 0.09143873 -0.5198894 -0.8275841
vn 0.17244719 -0.97867006 -0.11165246
vn 0.046875946 -0.26466024 0.9632015
vn 0.52134085 -0.057332784 0.84318894
vn 0.7094262 -0.69738895 -0.021635145
vn 0.5577956 0.3730139 0.72085494
vn 0.52134085 -0.057332784 0.84318894
vn 0.046875946 -0.26466024 0.9632015
vn -0.10423875 0.59257066 0.79033184
vn 0.5609104 0.30216688 0.72251046
vn -0.043713126 0.24937376 0.9674201
vn 0.5441611 0.31249243 0.74052334
vn -0.052090198 0.29612896 0.915007
vn 0.46589297 -0.6307142 0.59855354
vn 0.61988676 -0.69283974 0.25585687
vn 0.8949784 0.17221026 0.29241896
vn 0.74202204 -0.0051959343 0.6303767
vn -0.16414154 -0.5362475 0.82472265
vn 0.45550564 0.34604347 0.80692476
vn -0.8835331 -0.30192417 0.3580657
vn 0.22775608 0.5596817 0.7967957
vn 0.94834894 -0.043858416 0.017937906
vn 0.45550564 0.34604347 0.80692476
vn 0.74202204 -0.0051959343 0.6303767
vn 0.927665 0.16290794 -0.22037041
vn 0.22775608 0.5596817 0.7967957
vn 0.95316136 0.2203502 -0.2071934
vn -0.07116705 0.6430838 0.76248175
vn 0.9763446 0.16071635 0.14464307
vn -0.9490773 -0.101835504 -0.29813027
vn 0.415635 -0.38843352 -0.82241535
vn 0.22411321 -0.51357245 -0.8282612
vn -0.54131836 0.33185965 -0.7725566
vn -0.3857496 -0.4194743 -0.82172894
vn 0.2393688 -0.44560066 -0.862637
vn 0.09620693 -0.88651633 -0.45258486
vn -0.82111 -0.56304777 -0.09357285
vn -0.40402272 -0.38188964 -0.83121955
vn 0.048040345 -0.91467553 -0.40132385
vn -0.8682668 -0.47514626 -0.14264998
vn -0.6060628 -0.36777654 -0.7052861
vn -0.03664664 -0.90031767 -0.43368775
vn -0.9309348 -0.3092185 -0.19427954
vn -0.16499749 -0.74469167 -0.64669174
vn -0.35037202 0.48094243 -0.8037
vn -0.35526627 -0.83790725 -0.4143635
vn -0.7499477 0.21952319 -0.6240097
vn 0.04537609 -0.76880604 -0.63787013
vn 0.9763446 0.16071635 0.14464307
vn 0.95316136 0.2203502 -0.2071934
vn 0.22411321 -0.51357245 -0.8282612
vn 0.89091 0.10946238 0.44079193
vn 0.415635 -0.38843352 -0.82241535
vn 0.8731284 -0.11674554 0.47330517
vn 0.2393688 -0.44560066 -0.862637
vn 0.535895 -0.67833114 0.5026764
vn 0.09620693 -0.88651633 -0.45258486
vn 0.22775608 0.5596817 0.7967957
vn -0.9490773 -0.101835504 -0.29813027
vn -0.8835331 -0.30192417 0.3580657
vn -0.07116705 0.6430838 0.76248175
vn -0.54131836 0.33185965 -0.7725566
vn -0.11366473 0.7455678 0.6566652
vn -0.35037202 0.48094243 -0.8037
vn -0.28944477 0.83502597 0.46792454
vn -0.7499477 0.21952319 -0.6240097
vn -0.8112635 0.39605582 0.43010664
vn -0.35526627 -0.83790725 -0.4143635
vn -0.5732663 -0.59883684 0.5592496
vn 0.50891984 -0.77224684 -0.31638354
vn 0.04537609 -0.76880604 -0.63787013
vn 0.95316136 0.2203502 -0.2071934
vn 0.927665 0.16290794 -0.22037041
vn 0.9763446 0.16071635 0.14464307
vn -0.11366473 0.7455678 0.6566652
vn -0.07116705 0.6430838 0.76248175
vn 0.89091 0.10946238 0.44079193
vn 0.10991154 0.11703473 0.98702705
vn 0.8731284 -0.11674554 0.47330517
vn -0.49056947 -0.28043592 0.82504374
vn 0.535895 -0.67833114 0.5026764
vn 0.09254052 0.11110501 0.9894907
vn -0.58515334 -0.21733847 0.78125507
vn 0.38681683 -0.68562144 0.6166816
vn -0.12597622 0.14758328 0.9809939
vn -0.28944477 0.83502597 0.46792454
vn -0.6583239 -0.08044203 0.7484241
vn 0.26285958 -0.6899165 0.6744776
vn 0.004022602 -0.37995365 0.9249966
vn -0.8112635 0.39605582 0.43010664
vn -0.5732663 -0.59883684 0.5592496
vn 0.10991154 0.11703473 0.98702705
vn -0.49056947 -0.28043592 0.82504374
vn -0.82111 -0.56304777 -0.09357285
vn -0.3857496 -0.4194743 -0.82172894
vn -0.6060628 -0.36777654 -0.7052861
vn 0.004022602 -0.37995365 0.9249966
vn -0.12597622 0.14758328 0.9809939
vn -0.16499749 -0.74469167 -0.64669174
vn -0.5732663 -0.59883684 0.5592496
vn -0.35526627 -0.83790725 -0.4143635
vn 0.535895 -0.67833114 0.5026764
vn 0.09620693 -0.88651633 -0.45258486
vn -0.82111 -0.56304777 -0.09357285
vn -0.49056947 -0.28043592 0.82504374
vn 0.048040345 -0.91467553 -0.40132385
vn -0.8682668 -0.47514626 -0.14264998
vn -0.58515334 -0.21733847 0.78125507
vn 0.38681683 -0.68562144 0.6166816
vn 0.09254052 0.11110501 0.9894907
vn -0.58515334 -0.21733847 0.78125507
vn -0.8682668 -0.47514626 -0.14264998
vn -0.40402272 -0.38188964 -0.83121955
vn -0.3857496 -0.4194743 -0.82172894
vn 0.048040345 -0.91467553 -0.40132385
vn 0.38681683 -0.68562144 0.6166816
vn 0.10991154 0.11703473 0.98702705
vn -0.03664664 -0.90031767 -0.43368775
vn -0.9309348 -0.3092185 -0.19427954
vn -0.6583239 -0.08044203 0.7484241
vn 0.26285958 -0.6899165 0.6744776
vn -0.40402272 -0.38188964 -0.83121955
vn -0.03664664 -0.90031767 -0.43368775
vn 0.26285958 -0.6899165 0.6744776
vn 0.09254052 0.11110501 0.9894907
vn -0.12597622 0.14758328 0.9809939
vn -0.6583239 -0.08044203 0.7484241
vn -0.9309348 -0.3092185 -0.19427954
vn -0.6060628 -0.36777654 -0.7052861
vn -0.6886456 -0.5293694 0.41435912
vn -0.72483355 -0.263246 0.6219139
vn -0.39373198 -0.6408129 0.57619053
vn -0.8364237 -0.19765657 0.49036786
vn -0.8851241 -0.20096402 0.3146771
vn -0.7746168 0.047445375 0.6306486
vn -0.89787734 -0.040071487 0.4105612
vn -0.865205 0.23656337 0.34201363
vn -0.8843189 0.14923134 0.41306335
vn -0.62310934 0.60370785 0.4463653
vn -0.79749846 0.29773465 0.4991176
vn -0.6620016 0.34818977 0.63956606
vn -0.23763195 0.73968476 0.6017477
vn -0.70312494 0.5346586 0.4165319
vn -0.9053811 -0.0063329563 0.35781825
vn -0.86913794 0.060549 -0.46917117
vn -0.6727252 0.5896095 -0.40942428
vn -0.010077748 0.888636 0.39396182
vn 0.06915302 0.85238504 -0.44383886
vn -0.8458966 -0.43000677 -0.1285609
vn -0.5379056 -0.77691364 0.047776952
vn -0.26622915 -0.726157 -0.53118604
vn -0.40643117 -0.55828154 -0.66499966
vn -0.28394523 -0.5765131 -0.71913373
vn -0.6348215 -0.71566665 -0.092333935
vn -0.9537524 0.08200607 0.08378513
vn -0.9395934 0.14502928 -0.047202364
vn -0.90549254 -0.3194661 -0.0015629828
vn -0.9240655 0.24199371 0.0397467
vn -0.8851241 -0.20096402 0.3146771
vn -0.865205 0.23656337 0.34201363
vn -0.90549254 -0.3194661 -0.0015629828
vn -0.8851241 -0.20096402 0.3146771
vn -0.6886456 -0.5293694 0.41435912
vn -0.62010723 -0.715583 0.13439736
vn -0.8458966 -0.43000677 -0.1285609
vn -0.39373198 -0.6408129 0.57619053
vn -0.15723918 -0.83519465 0.40279508
vn -0.5379056 -0.77691364 0.047776952
vn -0.042960234 -0.8474699 0.3595761
vn 0.17525542 -0.91713893 -0.12132877
vn -0.26622915 -0.726157 -0.53118604
vn -0.060568113 0.9421301 0.2995216
vn -0.23763195 0.73968476 0.6017477
vn -0.62310934 0.60370785 0.4463653
vn -0.61392224 0.74534416 0.1462695
vn -0.865205 0.23656337 0.34201363
vn -0.0076292884 0.9801841 0.10881353
vn -0.9240655 0.24199371 0.0397467
vn -0.62310594 0.7441963 -0.001797542
vn -0.04296355 0.9639933 0.17704259
vn -0.9395934 0.14502928 -0.047202364
vn -0.6875395 0.67630285 0.15280455
vn -0.053840164 0.8044988 0.5607932
vn -0.9537524 0.08200607 0.08378513
vn -0.62444466 0.50878054 0.55810255
vn -0.84673417 -0.032680325 0.4787328
vn -0.70695466 -0.66225696 -0.14806919
vn -0.942811 0.17845109 -0.25596797
vn -0.45640096 -0.66923004 -0.5760433
vn -0.9656996 -0.14816058 -0.114342794
vn -0.62288433 -0.6239225 0.39393544
vn -0.84673417 -0.032680325 0.4787328
vn -0.84101754 -0.16014595 0.4370211
vn -0.9537524 0.08200607 0.08378513
vn -0.049392432 0.68232405 0.708847
vn -0.053840164 0.8044988 0.5607932
vn -0.62444466 0.50878054 0.55810255
vn -0.5405747 0.3897904 0.7183472
vn -0.010077748 0.888636 0.39396182
vn -0.84673417 -0.032680325 0.4787328
vn -0.70312494 0.5346586 0.4165319
vn -0.69369227 -0.06295296 0.679591
vn -0.62288433 -0.6239225 0.39393544
vn -0.9053811 -0.0063329563 0.35781825
vn -0.5678203 -0.4280277 0.6435815
vn -0.75175697 -0.5088618 0.33431685
vn -0.32648295 -0.81001186 -0.37087005
vn 0.057630457 -0.89438653 -0.19335054
vn 0.056724414 -0.45332944 -0.8255681
vn -0.07299565 -0.31054372 -0.8865953
vn -0.7235804 -0.46775827 -0.47386357
vn 0.09954311 0.24349993 -0.95088273
vn -0.2041793 -0.13572896 -0.931972
vn -0.86913794 0.060549 -0.46917117
vn -0.18744446 0.28083825 -0.92886037
vn 0.06915302 0.85238504 -0.44383886
vn -0.6727252 0.5896095 -0.40942428
vn -0.24842292 0.070958875 -0.94250244
vn -0.36416996 -0.75779045 0.42655084
vn 0.057630457 -0.89438653 -0.19335054
vn -0.32648295 -0.81001186 -0.37087005
vn 0.022119893 -0.6954836 0.5971644
vn 0.003476873 -0.391434 0.839674
vn -0.2941509 -0.5300571 0.71463746
vn -0.75175697 -0.5088618 0.33431685
vn 0.022286825 -0.447469 0.8079997
vn -0.5678203 -0.4280277 0.6435815
vn -0.32977208 -0.6152103 0.61772364
vn -0.018356822 -0.04613951 0.94048107
vn -0.24273041 -0.34055793 0.8153114
vn -0.62288433 -0.6239225 0.39393544
vn -0.33247918 -0.1714895 0.8407912
vn 0.079746164 -0.30494365 0.889263
vn -0.6348215 -0.71566665 -0.092333935
vn -0.70695466 -0.66225696 -0.14806919
vn -0.54434377 -0.74808776 0.27840865
vn -0.45640096 -0.66923004 -0.5760433
vn 0.08460798 -0.76745373 0.6120469
vn 0.006082258 -0.49701303 -0.86772174
vn 0.8630813 -0.41608718 0.28628966
vn -0.16372375 -0.18971634 -0.96809196
vn 0.967463 6.600469E-05 -0.25301173
vn -0.75175697 -0.5088618 0.33431685
vn -0.36416996 -0.75779045 0.42655084
vn -0.32648295 -0.81001186 -0.37087005
vn -0.7235804 -0.46775827 -0.47386357
vn -0.9053811 -0.0063329563 0.35781825
vn -0.86913794 0.060549 -0.46917117
vn -0.6348215 -0.71566665 -0.092333935
vn -0.5012816 -0.65977037 -0.49182388
vn 0.25147286 -0.8929747 -0.15441076
vn -0.28394523 -0.5765131 -0.71913373
vn -0.5033769 -0.6216859 -0.5275101
vn -0.40643117 -0.55828154 -0.66499966
vn -0.4995292 -0.65221274 -0.4745072
vn -0.26622915 -0.726157 -0.53118604
vn 0.18494594 -0.9013386 -0.24241456
vn 0.17525542 -0.91713893 -0.12132877
vn 0.079746164 -0.30494365 0.889263
vn -0.6348215 -0.71566665 -0.092333935
vn 0.25147286 -0.8929747 -0.15441076
vn 0.069356136 -0.41059893 0.83827466
vn -0.4995292 -0.65221274 -0.4745072
vn -0.21138941 -0.21760523 0.8647399
vn -0.5764795 -0.16638803 0.7110989
vn -0.5012816 -0.65977037 -0.49182388
vn -0.5033769 -0.6216859 -0.5275101
vn 0.069356136 -0.41059893 0.83827466
vn 0.25147286 -0.8929747 -0.15441076
vn -0.018356822 -0.04613951 0.94048107
vn -0.21138941 -0.21760523 0.8647399
vn -0.03762488 0.13920295 0.9459931
vn -0.24273041 -0.34055793 0.8153114
vn -0.5764795 -0.16638803 0.7110989
vn -0.33247918 -0.1714895 0.8407912
vn 0.069356136 -0.41059893 0.83827466
vn 0.079746164 -0.30494365 0.889263
vn -0.59658575 -0.71917427 0.120193325
vn 0.1683976 -0.95502555 -0.1625689
vn -0.03762488 0.13920295 0.9459931
vn -0.21138941 -0.21760523 0.8647399
vn -0.59112775 -0.54122376 0.47553748
vn -0.4995292 -0.65221274 -0.4745072
vn -0.071414314 0.08896771 0.9498668
vn 0.046445373 -0.6086415 0.7224375
vn 0.18494594 -0.9013386 -0.24241456
vn -0.74680036 -0.6349466 -0.1584607
vn -0.46993616 -0.23202866 0.8434298
vn -0.42829487 -0.8978931 -0.021358728
vn -0.651366 0.15991959 0.7211486
vn -0.8353813 -0.38964003 -0.35136542
vn -0.6301109 0.092255235 0.7227621
vn -0.85853356 -0.32947472 -0.3660092
vn -0.61805856 0.10761002 0.7406477
vn -0.8147641 -0.43822664 -0.35305715
vn -0.64962214 0.14524546 0.7013483
vn -0.59658575 -0.71917427 0.120193325
vn -0.59112775 -0.54122376 0.47553748
vn 0.12017253 -0.68288755 -0.72057104
vn -0.42829487 -0.8978931 -0.021358728
vn 0.17244719 -0.97867006 -0.11165246
vn -0.74680036 -0.6349466 -0.1584607
vn 0.13509372 -0.76741564 -0.6196449
vn -0.8353813 -0.38964003 -0.35136542
vn 0.09143873 -0.5198894 -0.8275841
vn -0.85853356 -0.32947472 -0.3660092
vn -0.59112775 -0.54122376 0.47553748
vn -0.071414314 0.08896771 0.9498668
vn -0.07405821 0.42000127 0.9035378
vn -0.64962214 0.14524546 0.7013483
vn -0.052090198 0.29612896 0.915007
vn -0.61805856 0.10761002 0.7406477
vn 0.1683976 -0.95502555 -0.1625689
vn -0.59658575 -0.71917427 0.120193325
vn -0.8147641 -0.43822664 -0.35305715
vn 0.07927556 -0.44964945 -0.88114035
vn -0.85853356 -0.32947472 -0.3660092
vn 0.09143873 -0.5198894 -0.8275841
vn 0.17244719 -0.97867006 -0.11165246
vn -0.42829487 -0.8978931 -0.021358728
vn -0.46993616 -0.23202866 0.8434298
vn 0.046875946 -0.26466024 0.9632015
vn -0.651366 0.15991959 0.7211486
vn 0.046875946 -0.26466024 0.9632015
vn -0.46993616 -0.23202866 0.8434298
vn -0.10423875 0.59257066 0.79033184
vn -0.6301109 0.092255235 0.7227621
vn -0.043713126 0.24937376 0.9674201
vn -0.61805856 0.10761002 0.7406477
vn -0.052090198 0.29612896 0.915007
vn -0.54434377 -0.74808776 0.27840865
vn -0.9537524 0.08200607 0.08378513
vn -0.6348215 -0.71566665 -0.092333935
vn -0.84101754 -0.16014595 0.4370211
vn 0.08460798 -0.76745373 0.6120469
vn -0.5595321 0.100600615 0.80067647
vn 0.8630813 -0.41608718 0.28628966
vn -0.2858258 0.24805081 0.92562103
vn -0.9656996 -0.14816058 -0.114342794
vn -0.84101754 -0.16014595 0.4370211
vn -0.5595321 0.100600615 0.80067647
vn -0.942811 0.17845109 -0.25596797
vn -0.2858258 0.24805081 0.92562103
vn -0.9410255 0.2875796 -0.17823792
vn 0.013479098 0.33544368 0.9419637
vn -0.98572445 0.108981505 0.12833574
vn 0.967463 6.600469E-05 -0.25301173
vn -0.16372375 -0.18971634 -0.96809196
vn -0.35696065 -0.072758764 -0.9312814
vn 0.58470863 0.5759128 -0.5713492
vn 0.6548186 -0.10369077 -0.7486392
vn 0.2162332 -0.47326475 -0.85396945
vn 0.39406627 0.7282227 -0.5607166
vn 0.39261016 -0.6435236 -0.65706515
vn 0.7850086 0.4168464 -0.4582579
vn 0.46142265 -0.071059495 -0.88433003
vn 0.076771565 -0.6923266 -0.7174885
vn 0.9456487 -0.23035537 -0.22953148
vn 0.44310996 -0.10942292 -0.889764
vn -0.17770955 -0.113880605 -0.97747135
vn -0.054792617 -0.6715765 -0.73890644
vn 0.8331952 -0.5023593 -0.23112947
vn -0.009594023 -0.7163126 -0.6977135
vn 0.8821486 -0.4032829 -0.24326274
vn 0.006082258 -0.49701303 -0.86772174
vn -0.9410255 0.2875796 -0.17823792
vn -0.98572445 0.108981505 0.12833574
vn -0.16372375 -0.18971634 -0.96809196
vn -0.9186083 -0.04330104 0.39278924
vn -0.35696065 -0.072758764 -0.9312814
vn -0.89977086 -0.26676363 0.34532505
vn -0.17770955 -0.113880605 -0.97747135
vn -0.55726963 -0.8062782 0.19840717
vn -0.054792617 -0.6715765 -0.73890644
vn -0.2858258 0.24805081 0.92562103
vn 0.8630813 -0.41608718 0.28628966
vn 0.967463 6.600469E-05 -0.25301173
vn 0.013479098 0.33544368 0.9419637
vn 0.58470863 0.5759128 -0.5713492
vn 0.06118979 0.46804836 0.8815819
vn 0.39406627 0.7282227 -0.5607166
vn 0.2473604 0.6162023 0.74773484
vn 0.7850086 0.4168464 -0.4582579
vn 0.7766164 0.21335468 0.5927447
vn 0.39261016 -0.6435236 -0.65706515
vn 0.5448186 -0.7617265 0.35063565
vn -0.45640096 -0.66923004 -0.5760433
vn -0.942811 0.17845109 -0.25596797
vn -0.9410255 0.2875796 -0.17823792
vn 0.006082258 -0.49701303 -0.86772174
vn -0.98572445 0.108981505 0.12833574
vn 0.013479098 0.33544368 0.9419637
vn 0.06118979 0.46804836 0.8815819
vn -0.9186083 -0.04330104 0.39278924
vn 0.061189823 -0.20565698 0.97670907
vn 0.2473604 0.6162023 0.74773484
vn -0.05758763 -0.6791601 0.7317273
vn 0.7766164 0.21335468 0.5927447
vn 0.5448186 -0.7617265 0.35063565
vn -0.15689935 -0.24078894 0.9578116
vn 0.6104008 -0.34291166 0.71401834
vn -0.2955921 -0.87966394 0.3725808
vn -0.17415762 -0.2342133 0.9564585
vn 0.5372113 -0.48196942 0.69217724
vn -0.41566077 -0.85431117 0.31205517
vn -0.89977086 -0.26676363 0.34532505
vn 0.44092056 -0.5555244 0.70496905
vn -0.55726963 -0.8062782 0.19840717
vn -0.17415762 -0.2342133 0.9564585
vn 0.44310996 -0.10942292 -0.889764
vn 0.8331952 -0.5023593 -0.23112947
vn 0.44092056 -0.5555244 0.70496905
vn 0.6548186 -0.10369077 -0.7486392
vn 0.061189823 -0.20565698 0.97670907
vn -0.05758763 -0.6791601 0.7317273
vn 0.2162332 -0.47326475 -0.85396945
vn 0.5448186 -0.7617265 0.35063565
vn 0.39261016 -0.6435236 -0.65706515
vn -0.55726963 -0.8062782 0.19840717
vn 0.44092056 -0.5555244 0.70496905
vn 0.8331952 -0.5023593 -0.23112947
vn -0.054792617 -0.6715765 -0.73890644
vn -0.009594023 -0.7163126 -0.6977135
vn -0.41566077 -0.85431117 0.31205517
vn 0.5372113 -0.48196942 0.69217724
vn 0.8821486 -0.4032829 -0.24326274
vn -0.15689935 -0.24078894 0.9578116
vn 0.46142265 -0.071059495 -0.88433003
vn 0.8821486 -0.4032829 -0.24326274
vn 0.5372113 -0.48196942 0.69217724
vn 0.44310996 -0.10942292 -0.889764
vn -0.17415762 -0.2342133 0.9564585
vn -0.41566077 -0.85431117 0.31205517
vn -0.009594023 -0.7163126 -0.6977135
vn 0.076771565 -0.6923266 -0.7174885
vn -0.2955921 -0.87966394 0.3725808
vn 0.6104008 -0.34291166 0.71401834
vn 0.9456487 -0.23035537 -0.22953148
vn 0.46142265 -0.071059495 -0.88433003
vn -0.15689935 -0.24078894 0.9578116
vn -0.2955921 -0.87966394 0.3725808
vn 0.076771565 -0.6923266 -0.7174885
vn 0.061189823 -0.20565698 0.97670907
vn 0.6548186 -0.10369077 -0.7486392
vn 0.9456487 -0.23035537 -0.22953148
vn 0.6104008 -0.34291166 0.71401834
g 0.6667_0
f 3/3/3 2/2/2 1/1/1
f 4/4/4 3/3/3 1/1/1
f 4/4/4 1/1/1 5/5/5
f 4/4/4 6/6/6 3/3/3
f 7/7/7 4/4/4 5/5/5
f 7/7/7 6/6/6 4/4/4
f 7/7/7 5/5/5 8/8/8
f 9/9/9 7/7/7 8/8/8
f 9/9/9 6/6/6 7/7/7
f 9/9/9 8/8/8 10/10/10
f 11/11/11 6/6/6 9/9/9
f 11/11/11 9/9/9 10/10/10
f 12/12/12 6/6/6 11/11/11
f 11/11/11 10/10/10 13/13/13
f 12/12/12 11/11/11 13/13/13
f 16/16/16 15/15/15 14/14/14
f 15/15/15 17/17/17 14/14/14
f 14/14/14 17/17/17 18/18/18
f 17/17/17 19/19/19 18/18/18
f 22/22/22 21/21/21 20/20/20
f 20/20/20 23/23/23 22/22/22
f 20/20/20 24/24/24 23/23/23
f 24/24/24 25/25/25 23/23/23
f 23/23/23 25/25/25 26/26/26
f 27/27/27 23/23/23 26/26/26
f 28/28/28 23/23/23 27/27/27
f 29/29/29 28/28/28 27/27/27
f 30/30/30 28/28/28 29/29/29
f 31/31/31 30/30/30 29/29/29
f 34/34/34 33/33/33 32/32/32
f 33/33/33 35/35/35 32/32/32
f 32/32/32 35/35/35 36/36/36
f 33/33/33 37/37/37 35/35/35
f 37/37/37 38/38/38 35/35/35
f 35/35/35 39/39/39 36/36/36
f 35/35/35 38/38/38 39/39/39
f 38/38/38 40/40/40 39/39/39
f 39/39/39 40/40/40 41/41/41
f 42/42/42 39/39/39 41/41/41
f 45/45/45 44/44/44 43/43/43
f 44/44/44 46/46/46 43/43/43
f 44/44/44 47/47/47 46/46/46
f 43/43/43 46/46/46 48/48/48
f 47/47/47 49/49/49 46/46/46
f 46/46/46 50/50/50 48/48/48
f 46/46/46 49/49/49 50/50/50
f 48/48/48 50/50/50 51/51/51
f 49/49/49 52/52/52 50/50/50
f 50/50/50 53/53/53 51/51/51
f 50/50/50 52/52/52 53/53/53
f 51/51/51 53/53/53 54/54/54
f 52/52/52 55/55/55 53/53/53
f 53/53/53 56/56/56 54/54/54
f 53/53/53 55/55/55 56/56/56
f 55/55/55 57/57/57 56/56/56
f 60/60/60 59/59/59 58/58/58
f 61/61/61 60/60/60 58/58/58
f 58/58/58 62/62/62 61/61/61
f 62/62/62 63/63/63 61/61/61
f 61/61/61 63/63/63 64/64/64
f 63/63/63 65/65/65 64/64/64
f 68/68/68 67/67/67 66/66/66
f 67/67/67 69/69/69 66/66/66
f 66/66/66 69/69/69 70/70/70
f 67/67/67 71/71/71 69/69/69
f 69/69/69 72/72/72 70/70/70
f 71/71/71 73/73/73 69/69/69
f 69/69/69 73/73/73 72/72/72
f 71/71/71 74/74/74 73/73/73
f 73/73/73 75/75/75 72/72/72
f 74/74/74 76/76/76 73/73/73
f 73/73/73 76/76/76 75/75/75
f 76/76/76 77/77/77 75/75/75
f 80/80/80 79/79/79 78/78/78
f 79/79/79 81/81/81 78/78/78
f 78/78/78 81/81/81 82/82/82
f 81/81/81 79/79/79 83/83/83
f 79/79/79 84/84/84 83/83/83
f 83/83/83 84/84/84 85/85/85
f 86/86/86 83/83/83 85/85/85
f 81/81/81 87/87/87 82/82/82
f 87/87/87 81/81/81 83/83/83
f 82/82/82 87/87/87 88/88/88
f 89/89/89 83/83/83 86/86/86
f 88/88/88 89/89/89 86/86/86
f 87/87/87 89/89/89 88/88/88
f 83/83/83 89/89/89 87/87/87
f 92/92/92 91/91/91 90/90/90
f 93/93/93 92/92/92 90/90/90
f 94/94/94 93/93/93 90/90/90
f 95/95/95 94/94/94 90/90/90
f 95/95/95 90/90/90 96/96/96
f 97/97/97 94/94/94 95/95/95
f 98/98/98 95/95/95 96/96/96
f 99/99/99 97/97/97 95/95/95
f 99/99/99 95/95/95 98/98/98
f 100/100/100 97/97/97 99/99/99
f 101/101/101 100/100/100 99/99/99
f 102/102/102 99/99/99 98/98/98
f 101/101/101 99/99/99 102/102/102
f 102/102/102 103/103/103 101/101/101
f 102/102/102 104/104/104 103/103/103
f 102/102/102 105/105/105 104/104/104
f 105/105/105 102/102/102 106/106/106
f 107/107/107 105/105/105 106/106/106
f 106/106/106 108/108/108 107/107/107
f 108/108/108 109/109/109 107/107/107
f 108/108/108 110/110/110 109/109/109
f 110/110/110 111/111/111 109/109/109
f 110/110/110 112/112/112 111/111/111
f 112/112/112 113/113/113 111/111/111
f 116/116/116 115/115/115 114/114/114
f 115/115/115 117/117/117 114/114/114
f 114/114/114 117/117/117 118/118/118
f 117/117/117 119/119/119 118/118/118
f 122/122/122 121/121/121 120/120/120
f 123/123/123 122/122/122 120/120/120
f 124/124/124 122/122/122 123/123/123
f 125/125/125 124/124/124 123/123/123
f 126/126/126 124/124/124 125/125/125
f 127/127/127 126/126/126 125/125/125
f 128/128/128 126/126/126 127/127/127
f 129/129/129 128/128/128 127/127/127
f 132/132/132 131/131/131 130/130/130
f 133/133/133 132/132/132 130/130/130
f 136/136/136 135/135/135 134/134/134
f 134/134/134 137/137/137 136/136/136
f 138/138/138 136/136/136 137/137/137
f 134/134/134 139/139/139 137/137/137
f 139/139/139 140/140/140 137/137/137
f 143/143/143 142/142/142 141/141/141
f 144/144/144 143/143/143 141/141/141
f 145/145/145 143/143/143 144/144/144
f 146/146/146 145/145/145 144/144/144
f 147/147/147 145/145/145 146/146/146
f 148/148/148 147/147/147 146/146/146
f 151/151/151 150/150/150 149/149/149
f 150/150/150 152/152/152 149/149/149
f 149/149/149 152/152/152 153/153/153
f 152/152/152 154/154/154 153/153/153
f 153/153/153 154/154/154 155/155/155
f 154/154/154 156/156/156 155/155/155
f 157/157/157 156/156/156 154/154/154
f 160/160/160 159/159/159 158/158/158
f 161/161/161 160/160/160 158/158/158
f 161/161/161 158/158/158 162/162/162
f 163/163/163 161/161/161 162/162/162
f 163/163/163 162/162/162 164/164/164
f 165/165/165 163/163/163 164/164/164
f 165/165/165 164/164/164 166/166/166
f 167/167/167 165/165/165 166/166/166
f 167/167/167 166/166/166 168/168/168
f 169/169/169 167/167/167 168/168/168
f 172/172/172 171/171/171 170/170/170
f 173/173/173 172/172/172 170/170/170
f 173/173/173 170/170/170 174/174/174
f 175/175/175 173/173/173 174/174/174
f 175/175/175 174/174/174 176/176/176
f 177/177/177 175/175/175 176/176/176
f 180/180/180 179/179/179 178/178/178
f 179/179/179 181/181/181 178/178/178
f 179/179/179 182/182/182 181/181/181
f 182/182/182 183/183/183 181/181/181
f 186/186/186 185/185/185 184/184/184
f 185/185/185 187/187/187 184/184/184
f 185/185/185 188/188/188 187/187/187
f 188/188/188 189/189/189 187/187/187
f 192/192/192 191/191/191 190/190/190
f 193/193/193 192/192/192 190/190/190
f 196/196/196 195/195/195 194/194/194
f 197/197/197 196/196/196 194/194/194
f 197/197/197 194/194/194 198/198/198
f 199/199/199 197/197/197 198/198/198
f 199/199/199 198/198/198 200/200/200
f 201/201/201 199/199/199 200/200/200
f 204/204/204 203/203/203 202/202/202
f 205/205/205 204/204/204 202/202/202
f 202/202/202 206/206/206 205/205/205
f 206/206/206 207/207/207 205/205/205
f 206/206/206 208/208/208 207/207/207
f 208/208/208 209/209/209 207/207/207
f 212/212/212 211/211/211 210/210/210
f 211/211/211 213/213/213 210/210/210
f 211/211/211 214/214/214 213/213/213
f 214/214/214 215/215/215 213/213/213
f 214/214/214 216/216/216 215/215/215
f 216/216/216 217/217/217 215/215/215
f 220/220/220 219/219/219 218/218/218
f 219/219/219 221/221/221 218/218/218
f 222/222/222 221/221/221 219/219/219
f 219/219/219 223/223/223 222/222/222
f 223/223/223 224/224/224 222/222/222
f 224/224/224 225/225/225 222/222/222
f 222/222/222 226/226/226 221/221/221
f 222/222/222 227/227/227 226/226/226
f 227/227/227 228/228/228 226/226/226
f 226/226/226 229/229/229 221/221/221
f 226/226/226 230/230/230 229/229/229
f 230/230/230 231/231/231 229/229/229
f 229/229/229 232/232/232 221/221/221
f 232/232/232 233/233/233 221/221/221
f 232/232/232 234/234/234 233/233/233
f 234/234/234 235/235/235 233/233/233
f 238/238/238 237/237/237 236/236/236
f 237/237/237 239/239/239 236/236/236
f 237/237/237 240/240/240 239/239/239
f 240/240/240 241/241/241 239/239/239
f 240/240/240 242/242/242 241/241/241
f 242/242/242 243/243/243 241/241/241
f 242/242/242 244/244/244 243/243/243
f 244/244/244 245/245/245 243/243/243
f 248/248/248 247/247/247 246/246/246
f 247/247/247 249/249/249 246/246/246
f 247/247/247 250/250/250 249/249/249
f 250/250/250 251/251/251 249/249/249
f 250/250/250 252/252/252 251/251/251
f 252/252/252 253/253/253 251/251/251
f 252/252/252 254/254/254 253/253/253
f 254/254/254 255/255/255 253/253/253
f 254/254/254 256/256/256 255/255/255
f 256/256/256 257/257/257 255/255/255
f 260/260/260 259/259/259 258/258/258
f 261/261/261 260/260/260 258/258/258
f 264/264/264 263/263/263 262/262/262
f 263/263/263 265/265/265 262/262/262
f 265/265/265 263/263/263 266/266/266
f 266/266/266 267/267/267 265/265/265
f 266/266/266 268/268/268 267/267/267
f 268/268/268 269/269/269 267/267/267
f 263/263/263 270/270/270 266/266/266
f 270/270/270 271/271/271 266/266/266
f 271/271/271 272/272/272 266/266/266
f 263/263/263 273/273/273 270/270/270
f 263/263/263 274/274/274 273/273/273
f 273/273/273 275/275/275 270/270/270
f 275/275/275 276/276/276 270/270/270
f 274/274/274 277/277/277 273/273/273
f 274/274/274 278/278/278 277/277/277
f 278/278/278 279/279/279 277/277/277
f 282/282/282 281/281/281 280/280/280
f 283/283/283 282/282/282 280/280/280
f 286/286/286 285/285/285 284/284/284
f 285/285/285 287/287/287 284/284/284
f 285/285/285 288/288/288 287/287/287
f 288/288/288 289/289/289 287/287/287
f 292/292/292 291/291/291 290/290/290
f 293/293/293 292/292/292 290/290/290
f 296/296/296 295/295/295 294/294/294
f 297/297/297 296/296/296 294/294/294
f 300/300/300 299/299/299 298/298/298
f 301/301/301 300/300/300 298/298/298
f 304/304/304 303/303/303 302/302/302
f 305/305/305 304/304/304 302/302/302
f 308/308/308 307/307/307 306/306/306
f 309/309/309 308/308/308 306/306/306
f 312/312/312 311/311/311 310/310/310
f 313/313/313 312/312/312 310/310/310
f 316/316/316 315/315/315 314/314/314
f 317/317/317 316/316/316 314/314/314
f 320/320/320 319/319/319 318/318/318
f 319/319/319 321/321/321 318/318/318
f 318/318/318 321/321/321 322/322/322
f 323/323/323 321/321/321 319/319/319
f 321/321/321 324/324/324 322/322/322
f 323/323/323 324/324/324 321/321/321
f 322/322/322 324/324/324 325/325/325
f 324/324/324 326/326/326 325/325/325
f 323/323/323 326/326/326 324/324/324
f 325/325/325 326/326/326 327/327/327
f 323/323/323 328/328/328 326/326/326
f 326/326/326 328/328/328 327/327/327
f 323/323/323 329/329/329 328/328/328
f 327/327/327 328/328/328 330/330/330
f 328/328/328 329/329/329 330/330/330
f 333/333/333 332/332/332 331/331/331
f 334/334/334 333/333/333 331/331/331
f 334/334/334 331/331/331 335/335/335
f 336/336/336 334/334/334 335/335/335
f 339/339/339 338/338/338 337/337/337
f 337/337/337 340/340/340 339/339/339
f 337/337/337 341/341/341 340/340/340
f 337/337/337 342/342/342 341/341/341
f 342/342/342 337/337/337 343/343/343
f 337/337/337 344/344/344 343/343/343
f 337/337/337 345/345/345 344/344/344
f 345/345/345 346/346/346 344/344/344
f 345/345/345 347/347/347 346/346/346
f 347/347/347 348/348/348 346/346/346
f 351/351/351 350/350/350 349/349/349
f 352/352/352 351/351/351 349/349/349
f 352/352/352 349/349/349 353/353/353
f 354/354/354 351/351/351 352/352/352
f 355/355/355 354/354/354 352/352/352
f 356/356/356 352/352/352 353/353/353
f 355/355/355 352/352/352 356/356/356
f 357/357/357 355/355/355 356/356/356
f 357/357/357 356/356/356 358/358/358
f 356/356/356 359/359/359 358/358/358
f 362/362/362 361/361/361 360/360/360
f 363/363/363 362/362/362 360/360/360
f 364/364/364 362/362/362 363/363/363
f 363/363/363 360/360/360 365/365/365
f 366/366/366 364/364/364 363/363/363
f 367/367/367 363/363/363 365/365/365
f 366/366/366 363/363/363 367/367/367
f 367/367/367 365/365/365 368/368/368
f 369/369/369 366/366/366 367/367/367
f 370/370/370 367/367/367 368/368/368
f 369/369/369 367/367/367 370/370/370
f 370/370/370 368/368/368 371/371/371
f 372/372/372 369/369/369 370/370/370
f 373/373/373 370/370/370 371/371/371
f 372/372/372 370/370/370 373/373/373
f 374/374/374 372/372/372 373/373/373
f 377/377/377 376/376/376 375/375/375
f 376/376/376 378/378/378 375/375/375
f 379/379/379 375/375/375 378/378/378
f 380/380/380 379/379/379 378/378/378
f 380/380/380 378/378/378 381/381/381
f 382/382/382 380/380/380 381/381/381
f 385/385/385 384/384/384 383/383/383
f 386/386/386 385/385/385 383/383/383
f 386/386/386 383/383/383 387/387/387
f 388/388/388 385/385/385 386/386/386
f 389/389/389 386/386/386 387/387/387
f 390/390/390 388/388/388 386/386/386
f 390/390/390 386/386/386 389/389/389
f 391/391/391 388/388/388 390/390/390
f 392/392/392 390/390/390 389/389/389
f 393/393/393 391/391/391 390/390/390
f 393/393/393 390/390/390 392/392/392
f 394/394/394 393/393/393 392/392/392
f 397/397/397 396/396/396 395/395/395
f 398/398/398 397/397/397 395/395/395
f 398/398/398 395/395/395 399/399/399
f 400/400/400 397/397/397 398/398/398
f 401/401/401 398/398/398 399/399/399
f 401/401/401 399/399/399 402/402/402
f 398/398/398 403/403/403 400/400/400
f 398/398/398 401/401/401 403/403/403
f 400/400/400 403/403/403 404/404/404
f 403/403/403 405/405/405 404/404/404
f 406/406/406 402/402/402 405/405/405
f 406/406/406 401/401/401 402/402/402
f 403/403/403 406/406/406 405/405/405
f 401/401/401 406/406/406 403/403/403
f 409/409/409 408/408/408 407/407/407
f 408/408/408 410/410/410 407/407/407
f 410/410/410 411/411/411 407/407/407
f 411/411/411 412/412/412 407/407/407
f 407/407/407 412/412/412 413/413/413
f 411/411/411 414/414/414 412/412/412
f 412/412/412 415/415/415 413/413/413
f 414/414/414 416/416/416 412/412/412
f 412/412/412 416/416/416 415/415/415
f 414/414/414 417/417/417 416/416/416
f 417/417/417 418/418/418 416/416/416
f 416/416/416 419/419/419 415/415/415
f 419/419/419 416/416/416 418/418/418
f 418/418/418 420/420/420 419/419/419
f 420/420/420 421/421/421 419/419/419
f 421/421/421 422/422/422 419/419/419
f 419/419/419 422/422/422 423/423/423
f 422/422/422 424/424/424 423/423/423
f 425/425/425 423/423/423 424/424/424
f 426/426/426 425/425/425 424/424/424
f 427/427/427 425/425/425 426/426/426
f 428/428/428 427/427/427 426/426/426
f 429/429/429 427/427/427 428/428/428
f 430/430/430 429/429/429 428/428/428
f 433/433/433 432/432/432 431/431/431
f 434/434/434 433/433/433 431/431/431
f 434/434/434 431/431/431 435/435/435
f 436/436/436 434/434/434 435/435/435
f 439/439/439 438/438/438 437/437/437
f 438/438/438 440/440/440 437/437/437
f 438/438/438 441/441/441 440/440/440
f 441/441/441 442/442/442 440/440/440
f 441/441/441 443/443/443 442/442/442
f 443/443/443 444/444/444 442/442/442
f 443/443/443 445/445/445 444/444/444
f 445/445/445 446/446/446 444/444/444
f 449/449/449 448/448/448 447/447/447
f 450/450/450 449/449/449 447/447/447
f 453/453/453 452/452/452 451/451/451
f 451/451/451 454/454/454 453/453/453
f 451/451/451 455/455/455 454/454/454
f 454/454/454 456/456/456 453/453/453
f 454/454/454 457/457/457 456/456/456
f 460/460/460 459/459/459 458/458/458
f 459/459/459 461/461/461 458/458/458
f 459/459/459 462/462/462 461/461/461
f 462/462/462 463/463/463 461/461/461
f 462/462/462 464/464/464 463/463/463
f 464/464/464 465/465/465 463/463/463
f 468/468/468 467/467/467 466/466/466
f 469/469/469 468/468/468 466/466/466
f 469/469/469 466/466/466 470/470/470
f 471/471/471 469/469/469 470/470/470
f 471/471/471 470/470/470 472/472/472
f 473/473/473 471/471/471 472/472/472
f 473/473/473 474/474/474 471/471/471
f 477/477/477 476/476/476 475/475/475
f 476/476/476 478/478/478 475/475/475
f 475/475/475 478/478/478 479/479/479
f 478/478/478 480/480/480 479/479/479
f 479/479/479 480/480/480 481/481/481
f 480/480/480 482/482/482 481/481/481
f 481/481/481 482/482/482 483/483/483
f 482/482/482 484/484/484 483/483/483
f 483/483/483 484/484/484 485/485/485
f 484/484/484 486/486/486 485/485/485
f 489/489/489 488/488/488 487/487/487
f 488/488/488 490/490/490 487/487/487
f 487/487/487 490/490/490 491/491/491
f 490/490/490 492/492/492 491/491/491
f 491/491/491 492/492/492 493/493/493
f 492/492/492 494/494/494 493/493/493
f 497/497/497 496/496/496 495/495/495
f 498/498/498 497/497/497 495/495/495
f 499/499/499 497/497/497 498/498/498
f 500/500/500 499/499/499 498/498/498
f 503/503/503 502/502/502 501/501/501
f 504/504/504 503/503/503 501/501/501
f 505/505/505 503/503/503 504/504/504
f 506/506/506 505/505/505 504/504/504
f 509/509/509 508/508/508 507/507/507
f 510/510/510 509/509/509 507/507/507
f 513/513/513 512/512/512 511/511/511
f 512/512/512 514/514/514 511/511/511
f 511/511/511 514/514/514 515/515/515
f 514/514/514 516/516/516 515/515/515
f 515/515/515 516/516/516 517/517/517
f 516/516/516 518/518/518 517/517/517
f 521/521/521 520/520/520 519/519/519
f 520/520/520 522/522/522 519/519/519
f 523/523/523 519/519/519 522/522/522
f 524/524/524 523/523/523 522/522/522
f 525/525/525 523/523/523 524/524/524
f 526/526/526 525/525/525 524/524/524
f 529/529/529 528/528/528 527/527/527
f 530/530/530 529/529/529 527/527/527
f 531/531/531 529/529/529 530/530/530
f 532/532/532 531/531/531 530/530/530
f 533/533/533 531/531/531 532/532/532
f 534/534/534 533/533/533 532/532/532
f 537/537/537 536/536/536 535/535/535
f 538/538/538 537/537/537 535/535/535
f 537/537/537 538/538/538 539/539/539
f 540/540/540 539/539/539 538/538/538
f 541/541/541 540/540/540 538/538/538
f 542/542/542 540/540/540 541/541/541
f 543/543/543 542/542/542 541/541/541
f 539/539/539 544/544/544 537/537/537
f 545/545/545 544/544/544 539/539/539
f 546/546/546 545/545/545 539/539/539
f 544/544/544 547/547/547 537/537/537
f 547/547/547 548/548/548 537/537/537
f 549/549/549 548/548/548 547/547/547
f 550/550/550 549/549/549 547/547/547
f 551/551/551 547/547/547 544/544/544
f 552/552/552 551/551/551 544/544/544
f 555/555/555 554/554/554 553/553/553
f 556/556/556 555/555/555 553/553/553
f 557/557/557 555/555/555 556/556/556
f 558/558/558 557/557/557 556/556/556
f 559/559/559 557/557/557 558/558/558
f 560/560/560 559/559/559 558/558/558
f 561/561/561 559/559/559 560/560/560
f 562/562/562 561/561/561 560/560/560
f 565/565/565 564/564/564 563/563/563
f 566/566/566 565/565/565 563/563/563
f 567/567/567 565/565/565 566/566/566
f 568/568/568 567/567/567 566/566/566
f 569/569/569 567/567/567 568/568/568
f 570/570/570 569/569/569 568/568/568
f 571/571/571 569/569/569 570/570/570
f 572/572/572 571/571/571 570/570/570
f 573/573/573 571/571/571 572/572/572
f 574/574/574 573/573/573 572/572/572
f 577/577/577 576/576/576 575/575/575
f 578/578/578 577/577/577 575/575/575
f 581/581/581 580/580/580 579/579/579
f 582/582/582 581/581/581 579/579/579
f 583/583/583 581/581/581 582/582/582
f 584/584/584 581/581/581 583/583/583
f 585/585/585 584/584/584 583/583/583
f 586/586/586 584/584/584 585/585/585
f 587/587/587 586/586/586 585/585/585
f 582/582/582 588/588/588 583/583/583
f 589/589/589 583/583/583 588/588/588
f 590/590/590 589/589/589 588/588/588
f 582/582/582 591/591/591 588/588/588
f 592/592/592 588/588/588 591/591/591
f 593/593/593 592/592/592 591/591/591
f 582/582/582 594/594/594 591/591/591
f 595/595/595 591/591/591 594/594/594
f 596/596/596 595/595/595 594/594/594
f 599/599/599 598/598/598 597/597/597
f 600/600/600 599/599/599 597/597/597
f 603/603/603 602/602/602 601/601/601
f 604/604/604 603/603/603 601/601/601
f 605/605/605 603/603/603 604/604/604
f 606/606/606 605/605/605 604/604/604
f 609/609/609 608/608/608 607/607/607
f 610/610/610 609/609/609 607/607/607
f 613/613/613 612/612/612 611/611/611
f 614/614/614 613/613/613 611/611/611
f 617/617/617 616/616/616 615/615/615
f 618/618/618 617/617/617 615/615/615
f 621/621/621 620/620/620 619/619/619
f 622/622/622 621/621/621 619/619/619
f 625/625/625 624/624/624 623/623/623
f 626/626/626 625/625/625 623/623/623
f 629/629/629 628/628/628 627/627/627
f 630/630/630 629/629/629 627/627/627
f 633/633/633 632/632/632 631/631/631
f 634/634/634 633/633/633 631/631/631
