g 1.5000
v 0.79412913 -0.5561453 2.0841339
v 0.42620197 -0.70252085 2.1915805
v 0.6622204 -0.15719804 2.3797216
v 0.7537736 -0.11543377 2.3172529
v 1.0270975 -0.18850341 2.0312023
v 0.69822156 0.040891908 2.4045038
v 0.80639684 -0.014780842 2.2793224
v 1.0073984 0.26607722 2.0456347
v 0.7991194 0.10627437 2.2802749
v 0.7407687 0.6394309 2.111105
v 0.73222727 0.20137708 2.3203578
v 0.62536305 0.23392701 2.3849235
v 0.3207041 0.7732642 2.2119925
v 1.2309254 1.2422603 0.23499821
v 1.6703712 0.3672287 -0.032914076
v 1.6503091 0.35101807 0.15920633
v 1.276464 1.2757488 0.06901775
v 0.30742207 1.6938269 0.26150194
v 0.327765 1.7334974 0.09003469
v 0.76860756 -0.5137015 1.0697668
v 0.5848684 -0.7721003 1.0467525
v 0.6813959 -0.76108515 1.4101194
v 1.006085 -0.31112367 1.3603895
v 0.83987445 -0.39342037 1.0079939
v 0.93042433 -0.34122542 1.1233548
v 1.0667572 0.23267509 1.2820244
v 1.0787452 0.2625839 1.4210616
v 1.0478005 -0.25933856 1.6932303
v 1.0587995 0.2869811 1.7205399
v 1.0270975 -0.18850341 2.0312023
v 1.0073984 0.26607722 2.0456347
v 1.0478005 -0.25933856 1.6932303
v 0.79412913 -0.5561453 2.0841339
v 1.0270975 -0.18850341 2.0312023
v 0.74959314 -0.6873025 1.740092
v 1.006085 -0.31112367 1.3603895
v 0.42620197 -0.70252085 2.1915805
v 0.2266676 -0.85538965 1.8452346
v 0.6813959 -0.76108515 1.4101194
v 0.07995382 -0.9275113 1.4874111
v -0.01003316 -0.9666009 1.1579428
v 0.5848684 -0.7721003 1.0467525
v 0.21893401 0.9348353 1.8702047
v 0.7407687 0.6394309 2.111105
v 0.3207041 0.7732642 2.2119925
v 0.7432202 0.7573061 1.7804539
v 1.0073984 0.26607722 2.0456347
v 0.16735494 1.0206889 1.5274022
v 1.0587995 0.2869811 1.7205399
v 0.74473995 0.807515 1.4575297
v 0.15089615 1.0293151 1.153309
v 1.0787452 0.2625839 1.4210616
v 0.7343361 0.784961 1.1186193
v 0.20979197 1.2869177 0.5710508
v 1.0667572 0.23267509 1.2820244
v 0.9101294 0.9595791 0.5459806
v 1.2964149 0.30294138 0.53448814
v 1.0889686 -0.36751884 0.46705493
v 1.1771615 -0.3040101 0.5883544
v 1.3490524 0.07375255 0.6836958
v 1.2894028 0.20268658 0.57494015
v 1.0776808 -0.39705315 0.4204775
v 1.2964149 0.30294138 0.53448814
v 1.0820004 0.12676606 1.2331815
v 1.0667572 0.23267509 1.2820244
v 0.25718963 1.4896798 0.41332394
v 0.9101294 0.9595791 0.5459806
v 0.20979197 1.2869177 0.5710508
v 1.0650779 1.1003767 0.38620213
v 0.30742207 1.6938269 0.26150194
v 1.2964149 0.30294138 0.53448814
v 1.2309254 1.2422603 0.23499821
v 1.4688774 0.32533967 0.3458515
v 1.0776808 -0.39705315 0.4204775
v 1.6503091 0.35101807 0.15920633
v 1.2523378 -0.5057337 0.24269228
v 1.4211444 -0.5979712 0.06038296
v 0.73613346 -1.3088721 -0.13464925
v -0.20005995 -1.2766359 -0.21553624
v -0.23103642 -1.4969153 -0.09876959
v 0.64732164 -1.1162226 -0.23914075
v 1.4422603 -0.59522307 -0.12756132
v 1.175498 1.1780282 -0.017356824
v 0.3169657 1.5655662 -0.009121969
v 0.327765 1.7334974 0.09003469
v 1.276464 1.2757488 0.06901775
v 1.2745029 -0.49046737 -0.22494018
v 1.6703712 0.3672287 -0.032914076
v 1.4733998 0.3607742 -0.14328244
v 0.7312866 -1.3057461 0.05819158
v 0.73613346 -1.3088721 -0.13464925
v -0.23103642 -1.4969153 -0.09876959
v -0.22533724 -1.497113 0.09803614
v -0.19065015 -1.3367946 0.2832832
v 0.65137464 -1.1477875 0.24397497
v 1.4211444 -0.5979712 0.06038296
v -0.1569113 -1.1754903 0.46600437
v 1.2523378 -0.5057337 0.24269228
v 0.5714918 -0.9863669 0.42758846
v -0.13184837 -1.0742542 0.69716835
v 0.51869696 -0.8717214 0.6813083
v 1.0776808 -0.39705315 0.4204775
v 0.6580652 -0.6690968 0.69714
v 0.8639878 -0.49207702 0.5806692
v 0.93042433 -0.34122542 1.1233548
v 1.0889686 -0.36751884 0.46705493
v 0.9495832 -0.33030498 1.0842255
v 1.1771615 -0.3040101 0.5883544
v 1.019709 -0.29953367 1.0790378
v 1.4720898 -0.68303514 0.891
v 1.3314581 -0.65463626 1.1607245
v 1.6244456 -1.1902602 1.1220864
v 1.439302 -1.1063929 1.2197542
v 1.4211444 -0.5979712 0.06038296
v 0.73613346 -1.3088721 -0.13464925
v 0.7312866 -1.3057461 0.05819158
v 1.4422603 -0.59522307 -0.12756132
v 1.6503091 0.35101807 0.15920633
v 1.6703712 0.3672287 -0.032914076
v 0.93042433 -0.34122542 1.1233548
v 0.8728802 -0.16495585 0.9309815
v 0.7607296 -0.2417975 0.98332846
v 0.83987445 -0.39342037 1.0079939
v 0.66277784 -0.3639681 1.0328625
v 0.76860756 -0.5137015 1.0697668
v 0.5659332 -0.58520484 1.0127338
v 0.5848684 -0.7721003 1.0467525
v -0.031611517 -0.8310853 1.0728627
v -0.01003316 -0.9666009 1.1579428
v 0.8639878 -0.49207702 0.5806692
v 0.8106901 -0.3406196 0.55671793
v 0.8728802 -0.16495585 0.9309815
v 0.93042433 -0.34122542 1.1233548
v 0.5966033 -0.524446 0.6667185
v 0.5588231 -0.666413 0.6752979
v 0.5659332 -0.58520484 1.0127338
v 0.7607296 -0.2417975 0.98332846
v 0.66277784 -0.3639681 1.0328625
v 0.8106901 -0.3406196 0.55671793
v 0.8728802 -0.16495585 0.9309815
v -0.13184837 -1.0742542 0.69716835
v -0.110070035 -0.96636564 0.6446115
v 0.5588231 -0.666413 0.6752979
v 0.51869696 -0.8717214 0.6813083
v 0.5966033 -0.524446 0.6667185
v 0.6580652 -0.6690968 0.69714
v 0.8106901 -0.3406196 0.55671793
v 0.8639878 -0.49207702 0.5806692
v 0.5148631 -0.7040816 0.73293203
v -0.110070035 -0.96636564 0.6446115
v -0.09879614 -0.9523703 0.74797785
v 0.5588231 -0.666413 0.6752979
v 0.5241843 -0.6612408 0.89093155
v 0.5659332 -0.58520484 1.0127338
v -0.05495819 -0.8547691 0.9898683
v -0.04632952 -0.82748556 1.0175008
v -0.031611517 -0.8310853 1.0728627
v 0.22509843 -2.1073675 0.2520662
v 0.049440034 -2.2504153 0.10628587
v 0.033602156 -2.2787566 0.14439291
v 0.19304559 -2.1504357 0.31038672
v 0.31545922 -1.7929378 0.49993354
v 0.2828707 -1.8122232 0.5735203
v 0.36861604 -1.4829853 0.70397455
v 0.33349365 -1.4977295 0.7990296
v 0.4186987 -1.1246222 0.7935596
v 0.38711944 -1.1317154 0.8804636
v 0.5148631 -0.7040816 0.73293203
v 0.5241843 -0.6612408 0.89093155
v -0.20896588 -2.0141168 0.22278649
v -0.23222414 -2.2382104 -0.0014249682
v 0.049440034 -2.2504153 0.10628587
v 0.22509843 -2.1073675 0.2520662
v -0.18485217 -1.7817588 0.41981095
v 0.31545922 -1.7929378 0.49993354
v -0.148936 -1.4356401 0.62650865
v 0.36861604 -1.4829853 0.70397455
v 0.5241843 -0.6612408 0.89093155
v -0.11585345 -1.1167959 0.9798502
v -0.05495819 -0.8547691 0.9898683
v 0.38711944 -1.1317154 0.8804636
v -0.15336844 -1.4784774 0.86750835
v 0.33349365 -1.4977295 0.7990296
v -0.09879614 -0.9523703 0.74797785
v 0.4186987 -1.1246222 0.7935596
v 0.5148631 -0.7040816 0.73293203
v -0.119509354 -1.1520385 0.7330878
v 0.36861604 -1.4829853 0.70397455
v -0.148936 -1.4356401 0.62650865
v -0.23222414 -2.2382104 -0.0014249682
v -0.24678263 -2.378628 0.09382129
v 0.033602156 -2.2787566 0.14439291
v 0.049440034 -2.2504153 0.10628587
v 0.19304559 -2.1504357 0.31038672
v 0.033602156 -2.2787566 0.14439291
v -0.24678263 -2.378628 0.09382129
v -0.22304828 -2.1499753 0.36735803
v 0.2828707 -1.8122232 0.5735203
v -0.18689589 -1.8016173 0.6421361
v 0.33349365 -1.4977295 0.7990296
v -0.15336844 -1.4784774 0.86750835
v 0.9495832 -0.33030498 1.0842255
v 0.93042433 -0.34122542 1.1233548
v 1.0667572 0.23267509 1.2820244
v 1.0820004 0.12676606 1.2331815
v 1.019709 -0.29953367 1.0790378
v 1.132398 0.012478411 1.1965237
v 1.3314581 -0.65463626 1.1607245
v 1.4339434 -0.4137026 1.2665398
v 1.2894028 0.20268658 0.57494015
v 1.132398 0.012478411 1.1965237
v 1.0820004 0.12676606 1.2331815
v 1.3490524 0.07375255 0.6836958
v 1.4339434 -0.4137026 1.2665398
v 1.632685 -0.3868569 0.98552454
v 1.5023276 -1.0350415 1.3958749
v 1.717713 -1.1410853 1.2827278
v 1.439302 -1.1063929 1.2197542
v 1.649183 -1.3818119 1.1537087
v 1.6244456 -1.1902602 1.1220864
v 1.3047044 -1.2598349 1.2808872
v 1.4505086 -1.598109 1.2049787
v 1.5617397 -1.637495 1.1639131
v 1.5036943 -2.1864789 1.2509173
v 1.4906123 -2.1818469 1.2557472
v 1.3161845 -1.5505462 1.2545698
v 1.2340063 -2.0282156 1.2941763
v 1.2231354 -2.0243664 1.2981893
v 1.2172611 -1.5155184 1.2910912
v 0.9742235 -1.9026623 1.3043487
v 0.9568626 -1.8965151 1.3107581
v 1.1012186 -1.4605379 1.2754786
v 1.1219965 -1.2902102 1.2954031
v 0.8149973 -1.5837243 1.349925
v 0.8093629 -1.5404339 1.3582336
v 1.4720898 -0.68303514 0.891
v 1.717713 -1.1410853 1.2827278
v 1.632685 -0.3868569 0.98552454
v 1.6244456 -1.1902602 1.1220864
v 1.7295722 -1.3796864 1.373779
v 1.649183 -1.3818119 1.1537087
v 1.6980283 -1.6697695 1.3717715
v 1.5617397 -1.637495 1.1639131
v 1.5209122 -2.191109 1.2851349
v 1.5036943 -2.1864789 1.2509173
v 1.4339434 -0.4137026 1.2665398
v 1.439302 -1.1063929 1.2197542
v 1.3314581 -0.65463626 1.1607245
v 1.5023276 -1.0350415 1.3958749
v 1.3047044 -1.2598349 1.2808872
v 1.3631318 -1.2657382 1.436686
v 1.1219965 -1.2902102 1.2954031
v 1.1113229 -1.3068035 1.4531462
v 0.8093629 -1.5404339 1.3582336
v 0.7937375 -1.5493705 1.3949561
v 0.8149973 -1.5837243 1.349925
v 0.79937196 -1.5926611 1.3866475
v 1.1771615 -0.3040101 0.5883544
v 1.4720898 -0.68303514 0.891
v 1.632685 -0.3868569 0.98552454
v 1.3490524 0.07375255 0.6836958
v 1.717713 -1.1410853 1.2827278
v 1.3631318 -1.2657382 1.436686
v 1.5023276 -1.0350415 1.3958749
v 1.7295722 -1.3796864 1.373779
v 1.5295956 -1.6106071 1.4017293
v 1.6980283 -1.6697695 1.3717715
v 1.5011027 -2.184151 1.288658
v 1.5209122 -2.191109 1.2851349
v 1.3729908 -1.5555992 1.4295838
v 1.2285507 -2.0253491 1.3190765
v 1.2412246 -2.029801 1.316822
v 1.2756886 -1.5214214 1.4468904
v 1.1113229 -1.3068035 1.4531462
v 0.9688904 -1.8987956 1.3526814
v 0.9859668 -1.9047937 1.349644
v 1.0905443 -1.4771304 1.4332216
v 0.7937375 -1.5493705 1.3949561
v 0.79937196 -1.5926611 1.3866475
v 1.5295956 -1.6106071 1.4017293
v 1.5011027 -2.184151 1.288658
v 1.4906123 -2.1818469 1.2557472
v 1.4505086 -1.598109 1.2049787
v 1.2172611 -1.5155184 1.2910912
v 1.0905443 -1.4771304 1.4332216
v 1.2756886 -1.5214214 1.4468904
v 1.1012186 -1.4605379 1.2754786
v 0.79937196 -1.5926611 1.3866475
v 0.8149973 -1.5837243 1.349925
v 1.5209122 -2.191109 1.2851349
v 1.5036943 -2.1864789 1.2509173
v 1.4906123 -2.1818469 1.2557472
v 1.5011027 -2.184151 1.288658
v 1.2340063 -2.0282156 1.2941763
v 1.2231354 -2.0243664 1.2981893
v 1.2285507 -2.0253491 1.3190765
v 1.2412246 -2.029801 1.316822
v 1.3729908 -1.5555992 1.4295838
v 1.2285507 -2.0253491 1.3190765
v 1.2231354 -2.0243664 1.2981893
v 1.3161845 -1.5505462 1.2545698
v 1.4505086 -1.598109 1.2049787
v 1.2340063 -2.0282156 1.2941763
v 1.2412246 -2.029801 1.316822
v 1.5295956 -1.6106071 1.4017293
v 0.9742235 -1.9026623 1.3043487
v 0.9568626 -1.8965151 1.3107581
v 0.9688904 -1.8987956 1.3526814
v 0.9859668 -1.9047937 1.349644
v 1.3161845 -1.5505462 1.2545698
v 0.9742235 -1.9026623 1.3043487
v 0.9859668 -1.9047937 1.349644
v 1.3729908 -1.5555992 1.4295838
v 1.2756886 -1.5214214 1.4468904
v 0.9688904 -1.8987956 1.3526814
v 0.9568626 -1.8965151 1.3107581
v 1.2172611 -1.5155184 1.2910912
v -0.022515222 -0.5787844 2.327976
v 0.6622204 -0.15719804 2.3797216
v 0.42620197 -0.70252085 2.1915805
v 0.56285363 -0.12429999 2.4434
v -0.30878752 -0.216657 2.392913
v 0.69822156 0.040891908 2.4045038
v 0.4970771 -0.02914549 2.48246
v -0.35861003 0.24694669 2.3795075
v 0.489433 0.09189269 2.4825315
v -0.11290179 0.6264149 2.316547
v 0.54041 0.1924692 2.4443483
v 0.62536305 0.23392701 2.3849235
v 0.3207041 0.7732642 2.2119925
v -1.0668261 1.3828638 0.15209568
v -1.5917583 0.5525815 0.14500292
v -1.6158112 0.5515805 -0.04707999
v -1.1252778 1.3968618 -0.03582097
v 0.30742207 1.6938269 0.26150194
v 0.327765 1.7334974 0.09003469
v -0.77145284 -0.2320886 1.5977703
v -0.4123478 -0.7360557 1.5543553
v -0.5002357 -0.71751773 1.1513002
v -0.6677298 -0.42549247 1.1992418
v -0.76660323 -0.27100497 1.1275793
v -0.86517304 -0.16136199 1.2356232
v -0.9614556 0.4177861 1.3221505
v -0.8813803 0.37483025 1.5745103
v -0.5983946 -0.25234228 2.0114958
v -0.664451 0.30972615 1.9971917
v -0.30878752 -0.216657 2.392913
v -0.35861003 0.24694669 2.3795075
v -0.5983946 -0.25234228 2.0114958
v -0.30878752 -0.216657 2.392913
v -0.022515222 -0.5787844 2.327976
v -0.24620885 -0.69333124 1.963255
v -0.77145284 -0.2320886 1.5977703
v 0.42620197 -0.70252085 2.1915805
v 0.2266676 -0.85538965 1.8452346
v -0.4123478 -0.7360557 1.5543553
v 0.07995382 -0.9275113 1.4874111
v -0.01003316 -0.9666009 1.1579428
v -0.5002357 -0.71751773 1.1513002
v 0.21893401 0.9348353 1.8702047
v 0.3207041 0.7732642 2.2119925
v -0.11290179 0.6264149 2.316547
v -0.35051408 0.7683093 1.9501466
v -0.35861003 0.24694669 2.3795075
v 0.16735494 1.0206889 1.5274022
v -0.664451 0.30972615 1.9971917
v -0.49945983 0.8531603 1.5736359
v 0.15089615 1.0293151 1.153309
v -0.8813803 0.37483025 1.5745103
v -0.57688224 0.88814276 1.1299207
v 0.20979197 1.2869177 0.5710508
v -0.9614556 0.4177861 1.3221505
v -0.7660957 1.0859379 0.5068505
v -1.2501862 0.47929877 0.49880016
v -1.1263419 -0.20361832 0.501424
v -1.3360876 0.26826072 0.64693797
v -1.1982453 -0.13073403 0.6260487
v -1.257887 0.37813336 0.54226846
v -1.121545 -0.23496756 0.45454013
v -1.2501862 0.47929877 0.49880016
v -1.0090895 0.34053978 1.255438
v -0.9614556 0.4177861 1.3221505
v 0.25718963 1.4896798 0.41332394
v 0.20979197 1.2869177 0.5710508
v -0.7660957 1.0859379 0.5068505
v -0.9087548 1.237081 0.3274886
v 0.30742207 1.6938269 0.26150194
v -1.2501862 0.47929877 0.49880016
v -1.0668261 1.3828638 0.15209568
v -1.4148403 0.51471007 0.32355666
v -1.121545 -0.23496756 0.45454013
v -1.5917583 0.5525815 0.14500292
v -1.31217 -0.32674125 0.28864944
v -1.4951683 -0.4027099 0.11655198
v -0.9545965 -1.1896487 -0.071632065
v -0.23103642 -1.4969153 -0.09876959
v -0.20005995 -1.2766359 -0.21553624
v -0.83609885 -1.0260469 -0.18618673
v -1.5199956 -0.4136914 -0.069994584
v 0.3169657 1.5655662 -0.009121969
v -1.345053 -0.34206563 -0.18050043
v -1.6158112 0.5515805 -0.04707999
v -1.060994 1.2576038 -0.14739966
v 0.327765 1.7334974 0.09003469
v -1.1252778 1.3968618 -0.03582097
v -1.4287857 0.5062722 -0.1635313
v -0.9487922 -1.1726142 0.11751066
v -0.23103642 -1.4969153 -0.09876959
v -0.9545965 -1.1896487 -0.071632065
v -0.22533724 -1.497113 0.09803614
v -0.19065015 -1.3367946 0.2832832
v -0.8416713 -1.0203567 0.2925748
v -1.4951683 -0.4027099 0.11655198
v -0.1569113 -1.1754903 0.46600437
v -1.31217 -0.32674125 0.28864944
v -0.72873586 -0.86885834 0.46969536
v -0.13184837 -1.0742542 0.69716835
v -0.6413894 -0.7581167 0.7227513
v -1.121545 -0.23496756 0.45454013
v -0.7337159 -0.53732044 0.7483336
v -0.9088846 -0.34678656 0.63946295
v -0.86517304 -0.16136199 1.2356232
v -1.1263419 -0.20361832 0.501424
v -0.9061215 -0.13020986 1.1827075
v -1.1982453 -0.13073403 0.6260487
v -1.011864 -0.05256468 1.1387569
v -1.5097008 -0.41497815 1.0198804
v -1.3676578 -0.32657403 1.275504
v -1.6904361 -0.8375467 1.3701128
v -1.5008395 -0.7418252 1.4458845
v -1.4951683 -0.4027099 0.11655198
v -0.9487922 -1.1726142 0.11751066
v -0.9545965 -1.1896487 -0.071632065
v -1.5199956 -0.4136914 -0.069994584
v -1.5917583 0.5525815 0.14500292
v -1.6158112 0.5515805 -0.04707999
v -0.86517304 -0.16136199 1.2356232
v -0.7077742 -0.10703316 1.0545176
v -0.8381323 -0.0036085248 0.9838295
v -0.76660323 -0.27100497 1.1275793
v -0.60170865 -0.25323325 1.1125821
v -0.6677298 -0.42549247 1.1992418
v -0.541961 -0.4987607 1.08267
v -0.5002357 -0.71751773 1.1513002
v -0.031611517 -0.8310853 1.0728627
v -0.01003316 -0.9666009 1.1579428
v -0.9088846 -0.34678656 0.63946295
v -0.86517304 -0.16136199 1.2356232
v -0.8381323 -0.0036085248 0.9838295
v -0.8366872 -0.21232899 0.5988211
v -0.541961 -0.4987607 1.08267
v -0.63855076 -0.5547126 0.71518314
v -0.6478381 -0.41281825 0.7068966
v -0.7077742 -0.10703316 1.0545176
v -0.60170865 -0.25323325 1.1125821
v -0.8366872 -0.21232899 0.5988211
v -0.8381323 -0.0036085248 0.9838295
v -0.13184837 -1.0742542 0.69716835
v -0.63855076 -0.5547126 0.71518314
v -0.110070035 -0.96636564 0.6446115
v -0.6413894 -0.7581167 0.7227513
v -0.6478381 -0.41281825 0.7068966
v -0.7337159 -0.53732044 0.7483336
v -0.8366872 -0.21232899 0.5988211
v -0.9088846 -0.34678656 0.63946295
v -0.600293 -0.5976089 0.76929355
v -0.09879614 -0.9523703 0.74797785
v -0.110070035 -0.96636564 0.6446115
v -0.63855076 -0.5547126 0.71518314
v -0.5609505 -0.56676555 0.9415522
v -0.541961 -0.4987607 1.08267
v -0.05495819 -0.8547691 0.9898683
v -0.04632952 -0.82748556 1.0175008
v -0.031611517 -0.8310853 1.0728627
v -0.65292424 -2.016296 0.2521227
v -0.5006944 -2.2233377 0.14442724
v -0.51038325 -2.1923485 0.10632187
v -0.6303856 -2.0650265 0.31043965
v -0.6767907 -1.6900167 0.49998945
v -0.64884543 -1.7155809 0.57357216
v -0.6651748 -1.3757493 0.7040009
v -0.63382125 -1.3973897 0.7990563
v -0.63703674 -1.0124724 0.79945016
v -0.6084 -1.025784 0.8849375
v -0.600293 -0.5976089 0.76929355
v -0.5609505 -0.56676555 0.9415522
v -0.20896588 -2.0141168 0.22278649
v -0.51038325 -2.1923485 0.10632187
v -0.23222414 -2.2382104 -0.0014249682
v -0.65292424 -2.016296 0.2521227
v -0.18485217 -1.7817588 0.41981095
v -0.6767907 -1.6900167 0.49998945
v -0.148936 -1.4356401 0.62650865
v -0.6651748 -1.3757493 0.7040009
v -0.5609505 -0.56676555 0.9415522
v -0.05495819 -0.8547691 0.9898683
v -0.11585345 -1.1167959 0.9798502
v -0.6084 -1.025784 0.8849375
v -0.15336844 -1.4784774 0.86750835
v -0.63382125 -1.3973897 0.7990563
v -0.09879614 -0.9523703 0.74797785
v -0.600293 -0.5976089 0.76929355
v -0.63703674 -1.0124724 0.79945016
v -0.119509354 -1.1520385 0.7330878
v -0.6651748 -1.3757493 0.7040009
v -0.148936 -1.4356401 0.62650865
v -0.23222414 -2.2382104 -0.0014249682
v -0.51038325 -2.1923485 0.10632187
v -0.5006944 -2.2233377 0.14442724
v -0.24678263 -2.378628 0.09382129
v -0.6303856 -2.0650265 0.31043965
v -0.24678263 -2.378628 0.09382129
v -0.5006944 -2.2233377 0.14442724
v -0.22304828 -2.1499753 0.36735803
v -0.64884543 -1.7155809 0.57357216
v -0.18689589 -1.8016173 0.6421361
v -0.63382125 -1.3973897 0.7990563
v -0.15336844 -1.4784774 0.86750835
v -0.9061215 -0.13020986 1.1827075
v -0.9614556 0.4177861 1.3221505
v -0.86517304 -0.16136199 1.2356232
v -1.0090895 0.34053978 1.255438
v -1.011864 -0.05256468 1.1387569
v -1.0999446 0.27152842 1.1940128
v -1.3676578 -0.32657403 1.275504
v -1.4563551 -0.06139964 1.3151267
v -1.257887 0.37813336 0.54226846
v -1.0090895 0.34053978 1.255438
v -1.0999446 0.27152842 1.1940128
v -1.3360876 0.26826072 0.64693797
v -1.4563551 -0.06139964 1.3151267
v -1.6532962 -0.09616333 1.0337121
v -1.5597131 -0.6246512 1.5971653
v -1.7807578 -0.7440723 1.51163
v -1.5008395 -0.7418252 1.4458845
v -1.6904361 -0.8375467 1.3701128
v -1.7259495 -1.0130869 1.4490317
v -1.375116 -0.8817655 1.5459275
v -1.3022529 -1.1308093 1.6220367
v -1.183292 -1.0880424 1.5946176
v -1.1944139 -0.9173824 1.570293
v -0.90447676 -1.2036681 1.7020075
v -0.8964052 -1.1600637 1.6991185
v -1.4030011 -1.1685205 1.5942112
v -1.0814686 -1.5145049 1.7367345
v -1.0637878 -1.5078864 1.7416177
v -1.5398033 -1.2197273 1.5564283
v -1.6530864 -1.2621305 1.525141
v -1.6261317 -1.7731969 1.7496556
v -1.6128085 -1.7682099 1.7533355
v -1.3479297 -1.624119 1.7551066
v -1.3368584 -1.6199746 1.7581638
v -1.5097008 -0.41497815 1.0198804
v -1.6532962 -0.09616333 1.0337121
v -1.7807578 -0.7440723 1.51163
v -1.6904361 -0.8375467 1.3701128
v -1.806064 -0.95061225 1.6601634
v -1.7259495 -1.0130869 1.4490317
v -1.7909558 -1.2329234 1.7324098
v -1.6530864 -1.2621305 1.525141
v -1.6435795 -1.7680144 1.783677
v -1.6261317 -1.7731969 1.7496556
v -1.4563551 -0.06139964 1.3151267
v -1.3676578 -0.32657403 1.275504
v -1.5008395 -0.7418252 1.4458845
v -1.5597131 -0.6246512 1.5971653
v -1.375116 -0.8817655 1.5459275
v -1.4337649 -0.8446061 1.6972595
v -1.1944139 -0.9173824 1.570293
v -1.1846756 -0.8938258 1.727208
v -0.8964052 -1.1600637 1.6991185
v -0.88130516 -1.1601967 1.7371254
v -0.90447676 -1.2036681 1.7020075
v -0.889377 -1.2038014 1.7400146
v -1.1982453 -0.13073403 0.6260487
v -1.3360876 0.26826072 0.64693797
v -1.6532962 -0.09616333 1.0337121
v -1.5097008 -0.41497815 1.0198804
v -1.7807578 -0.7440723 1.51163
v -1.5597131 -0.6246512 1.5971653
v -1.4337649 -0.8446061 1.6972595
v -1.806064 -0.95061225 1.6601634
v -1.3609018 -1.0936497 1.7733686
v -1.1846756 -0.8938258 1.727208
v -1.1735532 -1.0644853 1.7515327
v -0.88130516 -1.1601967 1.7371254
v -0.889377 -1.2038014 1.7400146
v -1.4599814 -1.125737 1.7639322
v -1.0759201 -1.4987576 1.7825676
v -1.0933084 -1.5043888 1.7809114
v -1.6194468 -1.17738 1.7487445
v -1.3423179 -1.6153102 1.7785354
v -1.3552233 -1.6194897 1.7773062
v -1.7909558 -1.2329234 1.7324098
v -1.6234078 -1.7614825 1.7855979
v -1.6435795 -1.7680144 1.783677
v -1.6194468 -1.17738 1.7487445
v -1.5398033 -1.2197273 1.5564283
v -1.6128085 -1.7682099 1.7533355
v -1.6234078 -1.7614825 1.7855979
v -1.3022529 -1.1308093 1.6220367
v -1.3609018 -1.0936497 1.7733686
v -1.1735532 -1.0644853 1.7515327
v -1.183292 -1.0880424 1.5946176
v -0.889377 -1.2038014 1.7400146
v -0.90447676 -1.2036681 1.7020075
v -1.6435795 -1.7680144 1.783677
v -1.6234078 -1.7614825 1.7855979
v -1.6128085 -1.7682099 1.7533355
v -1.6261317 -1.7731969 1.7496556
v -1.3479297 -1.624119 1.7551066
v -1.3552233 -1.6194897 1.7773062
v -1.3423179 -1.6153102 1.7785354
v -1.3368584 -1.6199746 1.7581638
v -1.4599814 -1.125737 1.7639322
v -1.4030011 -1.1685205 1.5942112
v -1.3368584 -1.6199746 1.7581638
v -1.3423179 -1.6153102 1.7785354
v -1.5398033 -1.2197273 1.5564283
v -1.6194468 -1.17738 1.7487445
v -1.3552233 -1.6194897 1.7773062
v -1.3479297 -1.624119 1.7551066
v -1.0814686 -1.5145049 1.7367345
v -1.0933084 -1.5043888 1.7809114
v -1.0759201 -1.4987576 1.7825676
v -1.0637878 -1.5078864 1.7416177
v -1.4030011 -1.1685205 1.5942112
v -1.4599814 -1.125737 1.7639322
v -1.0933084 -1.5043888 1.7809114
v -1.0814686 -1.5145049 1.7367345
v -1.3609018 -1.0936497 1.7733686
v -1.3022529 -1.1308093 1.6220367
v -1.0637878 -1.5078864 1.7416177
v -1.0759201 -1.4987576 1.7825676
vt 0.74890864 0.33473623
vt 0.6717679 0.31027758
vt 0.66713095 0.40442336
vt 0.68728566 0.4108137
vt 0.7965842 0.40015852
vt 0.6663609 0.43831098
vt 0.6997419 0.4279067
vt 0.7965842 0.48155546
vt 0.6997419 0.4491734
vt 0.7489086 0.5478362
vt 0.6872856 0.46649063
vt 0.66713095 0.47324383
vt 0.67176783 0.5736836
vt 0.9637046 0.45414358
vt 0.93541497 0.5978774
vt 0.96895975 0.5964614
vt 0.93010426 0.45405513
vt 0.96895975 0.2798921
vt 0.93541497 0.2779616
vt 0.16803193 0.630366
vt 0.17640781 0.5801308
vt 0.115820885 0.5862611
vt 0.11693096 0.6796261
vt 0.17727995 0.65348226
vt 0.15565658 0.67443293
vt 0.15847087 0.7843158
vt 0.12917185 0.7872804
vt 0.06099415 0.68868005
vt 0.07220554 0.7872804
vt 0.004541397 0.70104825
vt 0.013733864 0.7818932
vt 0.41405088 0.48246205
vt 0.4735523 0.5689744
vt 0.48031563 0.50047475
vt 0.40580213 0.5660057
vt 0.35368103 0.47522599
vt 0.48031563 0.6502857
vt 0.41405088 0.6651749
vt 0.34467483 0.56644106
vt 0.35368103 0.67471635
vt 0.30095118 0.6785831
vt 0.28536028 0.57079065
vt 0.72617555 0.23695126
vt 0.6334386 0.2987338
vt 0.7150438 0.30119494
vt 0.62664795 0.23394963
vt 0.5667885 0.30119494
vt 0.73265326 0.17673379
vt 0.54536 0.23695126
vt 0.6239867 0.17345652
vt 0.73444176 0.11545947
vt 0.5352346 0.17673379
vt 0.6257751 0.11218226
vt 0.7502142 0.008557349
vt 0.53609943 0.14710242
vt 0.61705065 0.0045413673
vt 0.508291 0.008557409
vt 0.6136563 0.78230274
vt 0.59442616 0.80247563
vt 0.6041634 0.87777376
vt 0.6276983 0.8904389
vt 0.6210798 0.77578527
vt 0.6383977 0.9074241
vt 0.51326406 0.89050305
vt 0.508291 0.9074241
vt 0.63353 0.33707404
vt 0.5797186 0.47161484
vt 0.6572782 0.3638705
vt 0.5440047 0.4614408
vt 0.60978174 0.3102777
vt 0.5797185 0.60484517
vt 0.5082909 0.45126677
vt 0.5440047 0.6152253
vt 0.6572782 0.7126719
vt 0.5082909 0.6256056
vt 0.63353 0.73968726
vt 0.60978174 0.7667026
vt 0.10771382 0.06026554
vt 0.27627754 0.042261958
vt 0.27465045 0.004541397
vt 0.13032222 0.090982676
vt 0.004541397 0.20289826
vt 0.13032222 0.49169338
vt 0.27627754 0.53756785
vt 0.27465045 0.57104814
vt 0.10771382 0.51857924
vt 0.040116906 0.21568859
vt 0.004541397 0.37795854
vt 0.040116906 0.36874652
vt 0.46823847 0.17876983
vt 0.49920815 0.16713661
vt 0.4316672 0.0045413375
vt 0.40140402 0.017875373
vt 0.3697834 0.04301536
vt 0.4287382 0.18494064
vt 0.49920815 0.3224484
vt 0.33816284 0.06815541
vt 0.45605665 0.31167978
vt 0.38923794 0.19111145
vt 0.30002677 0.09147996
vt 0.34136087 0.2035042
vt 0.4129051 0.30091113
vt 0.3427356 0.23802859
vt 0.37234122 0.27309045
vt 0.28536028 0.32351992
vt 0.40577763 0.30731925
vt 0.29442835 0.32775104
vt 0.39255768 0.3331457
vt 0.30128193 0.34407
vt 0.3696847 0.4130204
vt 0.316028 0.41050625
vt 0.34918767 0.46614328
vt 0.3190418 0.44240487
vt 0.88015616 0.4308536
vt 0.92102146 0.2779616
vt 0.8883019 0.2813499
vt 0.9127896 0.42904556
vt 0.8883019 0.604403
vt 0.92102146 0.6044296
vt 0.92042327 0.8231498
vt 0.95599186 0.8245685
vt 0.9529158 0.7990128
vt 0.92184687 0.79769146
vt 0.944216 0.7720341
vt 0.9131471 0.77071285
vt 0.9262327 0.7379135
vt 0.8992187 0.71540093
vt 0.95599186 0.6287955
vt 0.9359044 0.61351234
vt 0.4951718 0.690281
vt 0.4716521 0.68766576
vt 0.46115664 0.7574903
vt 0.4951718 0.78983396
vt 0.8263372 0.22392666
vt 0.8312873 0.20070249
vt 0.7756655 0.19722342
vt 0.7595817 0.25615913
vt 0.7592969 0.23126322
vt 0.8312873 0.26076448
vt 0.76217866 0.27623308
vt 0.1528058 0.9954586
vt 0.17297757 0.9805787
vt 0.14940989 0.86111856
vt 0.120639086 0.8822142
vt 0.16705024 0.8451873
vt 0.13673139 0.8455496
vt 0.17297757 0.7963631
vt 0.14265871 0.79672545
vt 0.96449995 0.949986
vt 0.9768403 0.8341253
vt 0.9583186 0.8374158
vt 0.97394526 0.9589685
vt 0.9370234 0.9511169
vt 0.91514146 0.9589685
vt 0.91664225 0.8441341
vt 0.91131157 0.845767
vt 0.9047306 0.84629834
vt 0.24212086 0.62085164
vt 0.26272297 0.58408916
vt 0.25492644 0.58013093
vt 0.23041713 0.6148417
vt 0.21321535 0.68580496
vt 0.19992411 0.6859044
vt 0.20205033 0.74947226
vt 0.18636262 0.7531501
vt 0.21767807 0.81040287
vt 0.20473075 0.816103
vt 0.26272297 0.85745966
vt 0.24731362 0.8788526
vt 0.8921899 0.8861185
vt 0.8956479 0.8341253
vt 0.8443022 0.8430877
vt 0.8160554 0.8729528
vt 0.89046186 0.93449223
vt 0.80566704 0.93307245
vt 0.8956479 0.9850062
vt 0.80715513 0.98099226
vt 0.0045413673 0.7963631
vt 0.11155632 0.87074345
vt 0.109398395 0.8257038
vt 0.020405829 0.86897737
vt 0.11155632 0.9283557
vt 0.025079906 0.92566746
vt 0.6663609 0.9029835
vt 0.76336145 0.9226998
vt 0.7696104 0.8577449
vt 0.6672575 0.935741
vt 0.7592356 0.97535855
vt 0.6669169 0.97535855
vt 0.4611566 0.8497342
vt 0.49111164 0.8497342
vt 0.47845495 0.8009338
vt 0.47014856 0.7989167
vt 0.81213677 0.75574785
vt 0.8302027 0.7971086
vt 0.8746209 0.82504255
vt 0.88416404 0.76295877
vt 0.80867016 0.6788735
vt 0.8901358 0.683446
vt 0.8056669 0.61351246
vt 0.8901358 0.61675274
vt 0.37431955 0.9788019
vt 0.38170052 0.98294646
vt 0.3817004 0.8734242
vt 0.37556243 0.88998085
vt 0.3596846 0.9653265
vt 0.36173642 0.90428126
vt 0.28536034 0.99293786
vt 0.28748286 0.9440813
vt 0.77717674 0.84866214
vt 0.6815368 0.7817943
vt 0.66636086 0.7922282
vt 0.773233 0.8210635
vt 0.7190927 0.7010453
vt 0.77717674 0.71481943
vt 0.7315622 0.6027491
vt 0.77293515 0.5827663
vt 0.85305345 0.004541397
vt 0.8962079 0.04791403
vt 0.88581395 0.016323805
vt 0.835325 0.033143044
vt 0.8690835 0.089292884
vt 0.8887423 0.09406233
vt 0.8962079 0.18814075
vt 0.89389586 0.18757987
vt 0.8453431 0.08353317
vt 0.84576 0.16708875
vt 0.8438386 0.16662264
vt 0.8278594 0.07929158
vt 0.7974168 0.15218425
vt 0.7943485 0.1514399
vt 0.80595624 0.07329798
vt 0.8049116 0.04293132
vt 0.761392 0.100438714
vt 0.7592969 0.09293687
vt 0.8710735 0.55522037
vt 0.8115202 0.47985578
vt 0.8344184 0.6044297
vt 0.8448831 0.47617984
vt 0.8056669 0.43957376
vt 0.845904 0.44754577
vt 0.8194058 0.39450574
vt 0.85972285 0.40285373
vt 0.8647268 0.3102777
vt 0.8710735 0.31191897
vt 0.92572474 0.0045413673
vt 0.938638 0.10348278
vt 0.9503828 0.045675993
vt 0.9052907 0.093052626
vt 0.9359654 0.14035517
vt 0.90686154 0.14094281
vt 0.94255674 0.16220856
vt 0.91653895 0.1708278
vt 0.94892144 0.22975874
vt 0.943537 0.2337237
vt 0.9503828 0.23527282
vt 0.94499826 0.23923779
vt 0.46300977 0.95972764
vt 0.46300974 0.8734243
vt 0.4046383 0.891659
vt 0.3907832 0.9822959
vt 0.33973265 0.6891366
vt 0.38841653 0.7328403
vt 0.3845024 0.68766576
vt 0.3211038 0.72103876
vt 0.33401203 0.7718226
vt 0.30249643 0.7674545
vt 0.2890668 0.8643415
vt 0.28536034 0.86382776
vt 0.36331463 0.775884
vt 0.34466767 0.86251265
vt 0.34229612 0.862184
vt 0.381521 0.7784073
vt 0.4243176 0.7598102
vt 0.39576674 0.8643415
vt 0.3925717 0.8638987
vt 0.41323447 0.7878766
vt 0.45207405 0.8251667
vt 0.44748878 0.83148295
vt 0.26932418 0.97108996
vt 0.2466892 0.8879354
vt 0.24062872 0.888224
vt 0.23233974 0.97108996
vt 0.9928005 0.68157107
vt 0.96507454 0.66193813
vt 0.96694696 0.69532233
vt 0.9928005 0.65980536
vt 0.96688235 0.61351246
vt 0.9736223 0.6151574
vt 0.48939836 0.4925487
vt 0.49032724 0.49926412
vt 0.49286652 0.49926412
vt 0.49301994 0.49317682
vt 0.49172482 0.50834703
vt 0.48961535 0.50839996
vt 0.48939833 0.51219356
vt 0.49172482 0.512537
vt 0.9917692 0.17933309
vt 0.9656012 0.1000334
vt 0.9618075 0.10021782
vt 0.9594656 0.17933309
vt 0.22325695 0.9741243
vt 0.2186513 0.8881142
vt 0.21448505 0.8879354
vt 0.18636262 0.9741243
vt 0.49275675 0.47522604
vt 0.48939833 0.4755031
vt 0.48960087 0.48318326
vt 0.49275675 0.48346603
vt 0.991629 0.08838332
vt 0.991629 0.004541397
vt 0.9834006 0.0048244
vt 0.9594656 0.09095073
vt 0.8674491 0.28671396
vt 0.8674491 0.19961786
vt 0.86016077 0.19722354
vt 0.8403701 0.27603197
vt 0.74890864 0.33473623
vt 0.66713095 0.40442336
vt 0.6717679 0.31027758
vt 0.68728566 0.4108137
vt 0.7965842 0.40015852
vt 0.6663609 0.43831098
vt 0.6997419 0.4279067
vt 0.7965842 0.48155546
vt 0.6997419 0.4491734
vt 0.7489086 0.5478362
vt 0.6872856 0.46649063
vt 0.66713095 0.47324383
vt 0.67176783 0.5736836
vt 0.9637046 0.45414358
vt 0.96895975 0.5964614
vt 0.93541497 0.5978774
vt 0.93010426 0.45405513
vt 0.96895975 0.2798921
vt 0.93541497 0.2779616
vt 0.11693096 0.6796261
vt 0.115820885 0.5862611
vt 0.17640781 0.5801308
vt 0.16803193 0.630366
vt 0.17727995 0.65348226
vt 0.15565658 0.67443293
vt 0.15847087 0.7843158
vt 0.12917185 0.7872804
vt 0.06099415 0.68868005
vt 0.07220554 0.7872804
vt 0.004541397 0.70104825
vt 0.013733864 0.7818932
vt 0.41405088 0.48246205
vt 0.48031563 0.50047475
vt 0.4735523 0.5689744
vt 0.40580213 0.5660057
vt 0.35368103 0.47522599
vt 0.48031563 0.6502857
vt 0.41405088 0.6651749
vt 0.34467483 0.56644106
vt 0.35368103 0.67471635
vt 0.30095118 0.6785831
vt 0.28536028 0.57079065
vt 0.72617555 0.23695126
vt 0.7150438 0.30119494
vt 0.6334386 0.2987338
vt 0.62664795 0.23394963
vt 0.5667885 0.30119494
vt 0.73265326 0.17673379
vt 0.54536 0.23695126
vt 0.6239867 0.17345652
vt 0.73444176 0.11545947
vt 0.5352346 0.17673379
vt 0.6257751 0.11218226
vt 0.7502142 0.008557349
vt 0.53609943 0.14710242
vt 0.61705065 0.0045413673
vt 0.508291 0.008557409
vt 0.6136563 0.78230274
vt 0.6041634 0.87777376
vt 0.59442616 0.80247563
vt 0.6276983 0.8904389
vt 0.6210798 0.77578527
vt 0.6383977 0.9074241
vt 0.51326406 0.89050305
vt 0.508291 0.9074241
vt 0.63353 0.33707404
vt 0.6572782 0.3638705
vt 0.5797186 0.47161484
vt 0.5440047 0.4614408
vt 0.60978174 0.3102777
vt 0.5797185 0.60484517
vt 0.5082909 0.45126677
vt 0.5440047 0.6152253
vt 0.6572782 0.7126719
vt 0.5082909 0.6256056
vt 0.63353 0.73968726
vt 0.60978174 0.7667026
vt 0.10771382 0.06026554
vt 0.27465045 0.004541397
vt 0.27627754 0.042261958
vt 0.13032222 0.090982676
vt 0.004541397 0.20289826
vt 0.27627754 0.53756785
vt 0.040116906 0.21568859
vt 0.004541397 0.37795854
vt 0.13032222 0.49169338
vt 0.27465045 0.57104814
vt 0.10771382 0.51857924
vt 0.040116906 0.36874652
vt 0.46823847 0.17876983
vt 0.4316672 0.0045413375
vt 0.49920815 0.16713661
vt 0.40140402 0.017875373
vt 0.3697834 0.04301536
vt 0.4287382 0.18494064
vt 0.49920815 0.3224484
vt 0.33816284 0.06815541
vt 0.45605665 0.31167978
vt 0.38923794 0.19111145
vt 0.30002677 0.09147996
vt 0.34136087 0.2035042
vt 0.4129051 0.30091113
vt 0.3427356 0.23802859
vt 0.37234122 0.27309045
vt 0.28536028 0.32351992
vt 0.40577763 0.30731925
vt 0.29442835 0.32775104
vt 0.39255768 0.3331457
vt 0.30128193 0.34407
vt 0.3696847 0.4130204
vt 0.316028 0.41050625
vt 0.34918767 0.46614328
vt 0.3190418 0.44240487
vt 0.88015616 0.4308536
vt 0.8883019 0.2813499
vt 0.92102146 0.2779616
vt 0.9127896 0.42904556
vt 0.8883019 0.604403
vt 0.92102146 0.6044296
vt 0.92042327 0.8231498
vt 0.9529158 0.7990128
vt 0.95599186 0.8245685
vt 0.92184687 0.79769146
vt 0.944216 0.7720341
vt 0.9131471 0.77071285
vt 0.9262327 0.7379135
vt 0.8992187 0.71540093
vt 0.95599186 0.6287955
vt 0.9359044 0.61351234
vt 0.4951718 0.690281
vt 0.4951718 0.78983396
vt 0.46115664 0.7574903
vt 0.4716521 0.68766576
vt 0.7756655 0.19722342
vt 0.8312873 0.20070249
vt 0.8263372 0.22392666
vt 0.7595817 0.25615913
vt 0.7592969 0.23126322
vt 0.8312873 0.26076448
vt 0.76217866 0.27623308
vt 0.1528058 0.9954586
vt 0.14940989 0.86111856
vt 0.17297757 0.9805787
vt 0.120639086 0.8822142
vt 0.16705024 0.8451873
vt 0.13673139 0.8455496
vt 0.17297757 0.7963631
vt 0.14265871 0.79672545
vt 0.96449995 0.949986
vt 0.9583186 0.8374158
vt 0.9768403 0.8341253
vt 0.97394526 0.9589685
vt 0.9370234 0.9511169
vt 0.91514146 0.9589685
vt 0.91664225 0.8441341
vt 0.91131157 0.845767
vt 0.9047306 0.84629834
vt 0.24212086 0.62085164
vt 0.25492644 0.58013093
vt 0.26272297 0.58408916
vt 0.23041713 0.6148417
vt 0.21321535 0.68580496
vt 0.19992411 0.6859044
vt 0.20205033 0.74947226
vt 0.18636262 0.7531501
vt 0.21767807 0.81040287
vt 0.20473075 0.816103
vt 0.26272297 0.85745966
vt 0.24731362 0.8788526
vt 0.8921899 0.8861185
vt 0.8443022 0.8430877
vt 0.8956479 0.8341253
vt 0.8160554 0.8729528
vt 0.89046186 0.93449223
vt 0.80566704 0.93307245
vt 0.8956479 0.9850062
vt 0.80715513 0.98099226
vt 0.0045413673 0.7963631
vt 0.109398395 0.8257038
vt 0.11155632 0.87074345
vt 0.020405829 0.86897737
vt 0.11155632 0.9283557
vt 0.025079906 0.92566746
vt 0.6663609 0.9029835
vt 0.7696104 0.8577449
vt 0.76336145 0.9226998
vt 0.6672575 0.935741
vt 0.7592356 0.97535855
vt 0.6669169 0.97535855
vt 0.4611566 0.8497342
vt 0.47014856 0.7989167
vt 0.47845495 0.8009338
vt 0.49111164 0.8497342
vt 0.81213677 0.75574785
vt 0.8746209 0.82504255
vt 0.8302027 0.7971086
vt 0.88416404 0.76295877
vt 0.80867016 0.6788735
vt 0.8901358 0.683446
vt 0.8056669 0.61351246
vt 0.8901358 0.61675274
vt 0.37431955 0.9788019
vt 0.3817004 0.8734242
vt 0.38170052 0.98294646
vt 0.37556243 0.88998085
vt 0.3596846 0.9653265
vt 0.36173642 0.90428126
vt 0.28536034 0.99293786
vt 0.28748286 0.9440813
vt 0.77717674 0.84866214
vt 0.66636086 0.7922282
vt 0.6815368 0.7817943
vt 0.773233 0.8210635
vt 0.7190927 0.7010453
vt 0.77717674 0.71481943
vt 0.7315622 0.6027491
vt 0.77293515 0.5827663
vt 0.85305345 0.004541397
vt 0.88581395 0.016323805
vt 0.8962079 0.04791403
vt 0.835325 0.033143044
vt 0.8278594 0.07929158
vt 0.80595624 0.07329798
vt 0.8049116 0.04293132
vt 0.761392 0.100438714
vt 0.7592969 0.09293687
vt 0.8453431 0.08353317
vt 0.7974168 0.15218425
vt 0.7943485 0.1514399
vt 0.8690835 0.089292884
vt 0.8887423 0.09406233
vt 0.8962079 0.18814075
vt 0.89389586 0.18757987
vt 0.84576 0.16708875
vt 0.8438386 0.16662264
vt 0.8710735 0.55522037
vt 0.8344184 0.6044297
vt 0.8115202 0.47985578
vt 0.8448831 0.47617984
vt 0.8056669 0.43957376
vt 0.845904 0.44754577
vt 0.8194058 0.39450574
vt 0.85972285 0.40285373
vt 0.8647268 0.3102777
vt 0.8710735 0.31191897
vt 0.92572474 0.0045413673
vt 0.9503828 0.045675993
vt 0.938638 0.10348278
vt 0.9052907 0.093052626
vt 0.9359654 0.14035517
vt 0.90686154 0.14094281
vt 0.94255674 0.16220856
vt 0.91653895 0.1708278
vt 0.94892144 0.22975874
vt 0.943537 0.2337237
vt 0.9503828 0.23527282
vt 0.94499826 0.23923779
vt 0.46300977 0.95972764
vt 0.3907832 0.9822959
vt 0.4046383 0.891659
vt 0.46300974 0.8734243
vt 0.33973265 0.6891366
vt 0.3845024 0.68766576
vt 0.38841653 0.7328403
vt 0.3211038 0.72103876
vt 0.381521 0.7784073
vt 0.4243176 0.7598102
vt 0.41323447 0.7878766
vt 0.45207405 0.8251667
vt 0.44748878 0.83148295
vt 0.36331463 0.775884
vt 0.39576674 0.8643415
vt 0.3925717 0.8638987
vt 0.33401203 0.7718226
vt 0.34466767 0.86251265
vt 0.34229612 0.862184
vt 0.30249643 0.7674545
vt 0.2890668 0.8643415
vt 0.28536034 0.86382776
vt 0.26932418 0.97108996
vt 0.23233974 0.97108996
vt 0.24062872 0.888224
vt 0.2466892 0.8879354
vt 0.9928005 0.68157107
vt 0.96694696 0.69532233
vt 0.96507454 0.66193813
vt 0.9928005 0.65980536
vt 0.96688235 0.61351246
vt 0.9736223 0.6151574
vt 0.48939836 0.4925487
vt 0.49301994 0.49317682
vt 0.49286652 0.49926412
vt 0.49032724 0.49926412
vt 0.49172482 0.50834703
vt 0.49172482 0.512537
vt 0.48939833 0.51219356
vt 0.48961535 0.50839996
vt 0.9917692 0.17933309
vt 0.9594656 0.17933309
vt 0.9618075 0.10021782
vt 0.9656012 0.1000334
vt 0.22325695 0.9741243
vt 0.18636262 0.9741243
vt 0.21448505 0.8879354
vt 0.2186513 0.8881142
vt 0.49275675 0.47522604
vt 0.49275675 0.48346603
vt 0.48960087 0.48318326
vt 0.48939833 0.4755031
vt 0.991629 0.08838332
vt 0.9594656 0.09095073
vt 0.9834006 0.0048244
vt 0.991629 0.004541397
vt 0.8674491 0.28671396
vt 0.8403701 0.27603197
vt 0.86016077 0.19722354
vt 0.8674491 0.19961786
vn 0.6042005 -0.56207097 0.5288525
vn 0.26983032 -0.7001785 0.63246286
vn 0.5368227 -0.28246766 0.78748417
vn 0.68084675 -0.21707153 0.68987876
vn 0.82157236 -0.21600984 0.4713267
vn 0.5786191 0.026870945 0.81515497
vn 0.7638956 -0.05951602 0.63066614
vn 0.8084029 0.22434498 0.49186653
vn 0.7531338 0.12996635 0.6322918
vn 0.5537032 0.59442884 0.55574125
vn 0.6496121 0.27885768 0.69527227
vn 0.48552066 0.32994503 0.7969958
vn 0.1548483 0.7266928 0.65409994
vn 0.65667176 0.5599899 0.45037353
vn 0.8883095 0.100945264 -0.42545545
vn 0.8807389 0.023694966 0.40881303
vn 0.66984713 0.60888726 -0.37545264
vn 0.15009123 0.8522598 0.46264794
vn 0.14866869 0.8891959 -0.36772576
vn 0.4912718 -0.5220714 -0.6857974
vn 0.3490357 -0.6848172 -0.62330383
vn 0.541122 -0.8154258 0.05344986
vn 0.8581626 -0.43518355 -0.012075737
vn 0.36888915 -0.5547148 -0.73474616
vn 0.64156 -0.7251073 -0.030015565
vn 0.9431838 0.0933334 0.16977178
vn 0.946236 0.14905171 0.06073095
vn 0.89961696 -0.3289929 0.13942224
vn 0.92059267 0.23700592 0.1752998
vn 0.82157236 -0.21600984 0.4713267
vn 0.8084029 0.22434498 0.49186653
vn 0.89961696 -0.3289929 0.13942224
vn 0.6042005 -0.56207097 0.5288525
vn 0.82157236 -0.21600984 0.4713267
vn 0.5944134 -0.75271314 0.20179132
vn 0.8581626 -0.43518355 -0.012075737
vn 0.26983032 -0.7001785 0.63246286
vn 0.078834206 -0.92204905 0.33855718
vn 0.541122 -0.8154258 0.05344986
vn -0.015202068 -0.9683472 0.173301
vn -0.098250695 -0.876752 -0.45992348
vn 0.3490357 -0.6848172 -0.62330383
vn 0.06563032 0.93295515 0.3311836
vn 0.5537032 0.59442884 0.55574125
vn 0.1548483 0.7266928 0.65409994
vn 0.59721446 0.7440797 0.23557982
vn 0.8084029 0.22434498 0.49186653
vn 0.055547252 0.97670686 0.13780898
vn 0.92059267 0.23700592 0.1752998
vn 0.6207466 0.7522104 0.06742068
vn 0.09990257 0.9574975 0.21468233
vn 0.946236 0.14905171 0.06073095
vn 0.65610933 0.69940877 0.19333024
vn 0.121638626 0.768692 0.6077664
vn 0.9431838 0.0933334 0.16977178
vn 0.57465893 0.5338881 0.5859417
vn 0.8107028 -0.00841251 0.5312796
vn 0.72735083 -0.65121466 -0.11093518
vn 0.506899 -0.67353797 -0.5284309
vn 0.95644575 0.17965573 -0.17676358
vn 0.9703877 -0.13016611 -0.04659091
vn 0.6070579 -0.6246201 0.4290071
vn 0.8107028 -0.00841251 0.5312796
vn 0.7974534 -0.15201056 0.5171832
vn 0.9431838 0.0933334 0.16977178
vn 0.11155497 0.6289176 0.7544701
vn 0.57465893 0.5338881 0.5859417
vn 0.121638626 0.768692 0.6077664
vn 0.48790276 0.41133144 0.7434538
vn 0.15009123 0.8522598 0.46264794
vn 0.8107028 -0.00841251 0.5312796
vn 0.65667176 0.5599899 0.45037353
vn 0.6533612 -0.038846113 0.71824574
vn 0.6070579 -0.6246201 0.4290071
vn 0.8807389 0.023694966 0.40881303
vn 0.5428905 -0.43471774 0.67613375
vn 0.7509377 -0.49947315 0.3625478
vn 0.38608614 -0.7837709 -0.45694137
vn -0.039025128 -0.2745122 -0.946546
vn -0.14501983 -0.8712758 -0.4214145
vn 0.13230062 -0.22600308 -0.95515627
vn 0.7657159 -0.4238371 -0.4685929
vn 0.23819731 0.2809471 -0.91907144
vn 0.044876434 0.343055 -0.9217393
vn 0.14866869 0.8891959 -0.36772576
vn 0.66984713 0.60888726 -0.37545264
vn 0.26024136 -0.07998348 -0.95569783
vn 0.8883095 0.100945264 -0.42545545
vn 0.29952186 0.10312225 -0.941872
vn 0.38575503 -0.810982 0.3819577
vn 0.38608614 -0.7837709 -0.45694137
vn -0.14501983 -0.8712758 -0.4214145
vn -0.14879438 -0.86994624 0.423802
vn -0.10797175 -0.63848805 0.74107575
vn 0.29073024 -0.6162137 0.700854
vn 0.7509377 -0.49947315 0.3625478
vn -0.11114591 -0.72083473 0.6617842
vn 0.5428905 -0.43471774 0.67613375
vn 0.3322857 -0.7072554 0.58401215
vn -0.06353308 -0.43751377 0.8858116
vn 0.21230058 -0.49567312 0.81437695
vn 0.6070579 -0.6246201 0.4290071
vn 0.28117993 -0.2792297 0.88894755
vn -0.13803826 -0.37562478 0.89581406
vn 0.64156 -0.7251073 -0.030015565
vn 0.72735083 -0.65121466 -0.11093518
vn 0.5082235 -0.7476231 0.34489787
vn 0.506899 -0.67353797 -0.5284309
vn -0.15373033 -0.7588172 0.61145353
vn 0.07601718 -0.51007354 -0.85676515
vn -0.8918313 -0.40387574 0.20376813
vn 0.2582808 -0.2058837 -0.94387656
vn -0.9370474 0.004955545 -0.34916687
vn 0.7509377 -0.49947315 0.3625478
vn 0.38608614 -0.7837709 -0.45694137
vn 0.38575503 -0.810982 0.3819577
vn 0.7657159 -0.4238371 -0.4685929
vn 0.8807389 0.023694966 0.40881303
vn 0.8883095 0.100945264 -0.42545545
vn 0.64156 -0.7251073 -0.030015565
vn -0.2253982 -0.91242117 -0.21205217
vn 0.56039494 -0.6477141 -0.48698986
vn 0.36888915 -0.5547148 -0.73474616
vn 0.5708746 -0.59449655 -0.5448857
vn 0.4912718 -0.5220714 -0.6857974
vn 0.5684738 -0.60421926 -0.5399359
vn 0.3490357 -0.6848172 -0.62330383
vn -0.09357859 -0.7688764 -0.6255789
vn -0.098250695 -0.876752 -0.45992348
vn -0.13803826 -0.37562478 0.89581406
vn -0.120746054 -0.4914453 0.8353028
vn -0.2253982 -0.91242117 -0.21205217
vn 0.64156 -0.7251073 -0.030015565
vn 0.5326293 -0.25015494 0.77184635
vn 0.16580422 -0.36498624 0.89138633
vn 0.5684738 -0.60421926 -0.5399359
vn 0.56039494 -0.6477141 -0.48698986
vn 0.5708746 -0.59449655 -0.5448857
vn -0.120746054 -0.4914453 0.8353028
vn -0.2253982 -0.91242117 -0.21205217
vn -0.06353308 -0.43751377 0.8858116
vn -0.040973023 -0.30528972 0.94448835
vn 0.16580422 -0.36498624 0.89138633
vn 0.21230058 -0.49567312 0.81437695
vn 0.5326293 -0.25015494 0.77184635
vn 0.28117993 -0.2792297 0.88894755
vn -0.120746054 -0.4914453 0.8353028
vn -0.13803826 -0.37562478 0.89581406
vn 0.62735426 -0.7530309 0.022914413
vn -0.040973023 -0.30528972 0.94448835
vn -0.07944221 -0.76582325 -0.6363847
vn 0.16580422 -0.36498624 0.89138633
vn 0.58237153 -0.6398789 0.44877046
vn 0.5684738 -0.60421926 -0.5399359
vn -0.009099603 -0.36180636 0.92598474
vn -0.06811575 -0.90286607 0.40568483
vn -0.09357859 -0.7688764 -0.6255789
vn 0.84836036 -0.017078191 -0.5282647
vn 0.565744 -0.14393511 -0.81151724
vn 0.4115541 -0.9103073 -0.03223455
vn 0.5406799 -0.73789567 0.40147278
vn 0.9057275 0.1033235 -0.40884927
vn 0.5464372 -0.59319544 0.5870655
vn 0.91088235 0.032639764 -0.40968484
vn 0.5495337 -0.4215062 0.718666
vn 0.86708385 -0.16953114 -0.46669728
vn 0.5925914 -0.21453314 0.7687074
vn 0.62735426 -0.7530309 0.022914413
vn 0.58237153 -0.6398789 0.44877046
vn 0.06566887 0.6335921 -0.77087486
vn -0.00028625876 -0.0021393597 -0.9999975
vn 0.565744 -0.14393511 -0.81151724
vn 0.84836036 -0.017078191 -0.5282647
vn 0.053684197 0.51809907 -0.85328966
vn 0.9057275 0.1033235 -0.40884927
vn 0.03879802 0.37458068 -0.92507344
vn 0.91088235 0.032639764 -0.40968484
vn 0.58237153 -0.6398789 0.44877046
vn -0.012295334 -0.11851144 0.99281937
vn -0.009099603 -0.36180636 0.92598474
vn 0.5925914 -0.21453314 0.7687074
vn -0.044145733 -0.42586014 0.90108246
vn 0.5495337 -0.4215062 0.718666
vn -0.07944221 -0.76582325 -0.6363847
vn 0.86708385 -0.16953114 -0.46669728
vn 0.62735426 -0.7530309 0.022914413
vn 0.010432025 0.1005805 -0.99437577
vn 0.91088235 0.032639764 -0.40968484
vn 0.03879802 0.37458068 -0.92507344
vn -0.00028625876 -0.0021393597 -0.9999975
vn -0.1018937 -0.98226 -0.15742484
vn 0.4115541 -0.9103073 -0.03223455
vn 0.565744 -0.14393511 -0.81151724
vn 0.5406799 -0.73789567 0.40147278
vn 0.4115541 -0.9103073 -0.03223455
vn -0.1018937 -0.98226 -0.15742484
vn -0.07329587 -0.70708185 0.7026922
vn 0.5464372 -0.59319544 0.5870655
vn -0.0671238 -0.6476118 0.75900805
vn 0.5495337 -0.4215062 0.718666
vn -0.044145733 -0.42586014 0.90108246
vn 0.5082235 -0.7476231 0.34489787
vn 0.64156 -0.7251073 -0.030015565
vn 0.9431838 0.0933334 0.16977178
vn 0.7974534 -0.15201056 0.5171832
vn -0.15373033 -0.7588172 0.61145353
vn 0.47829098 0.10833427 0.8517889
vn -0.8918313 -0.40387574 0.20376813
vn 0.19384962 0.25950408 0.94608665
vn 0.9703877 -0.13016611 -0.04659091
vn 0.47829098 0.10833427 0.8517889
vn 0.7974534 -0.15201056 0.5171832
vn 0.95644575 0.17965573 -0.17676358
vn 0.19384962 0.25950408 0.94608665
vn 0.9571543 0.27632686 -0.086597264
vn -0.10464595 0.34983462 0.9309485
vn 0.96890426 0.10201459 0.22542796
vn -0.9370474 0.004955545 -0.34916687
vn 0.44805327 -0.09012997 -0.8894522
vn 0.2582808 -0.2058837 -0.94387656
vn -0.5181761 0.5724157 -0.6354794
vn -0.35247648 -0.11893202 -0.9282326
vn 0.27393544 -0.13032892 -0.9528767
vn 0.121782936 -0.68319917 -0.7200057
vn -0.8109529 -0.4982698 -0.3067298
vn -0.37083864 -0.08032732 -0.92521703
vn 0.07220576 -0.7268934 -0.68294406
vn -0.8573909 -0.39895448 -0.325141
vn -0.5772363 -0.10914399 -0.80925035
vn -0.01147626 -0.702433 -0.71165746
vn -0.9201293 -0.22527157 -0.32033598
vn -0.13418934 -0.484222 -0.864594
vn -0.32797927 0.72314227 -0.60786086
vn -0.33126092 -0.6498671 -0.68406075
vn -0.7304984 0.41690224 -0.5408927
vn 0.07601718 -0.51007354 -0.85676515
vn 0.96890426 0.10201459 0.22542796
vn 0.9571543 0.27632686 -0.086597264
vn 0.2582808 -0.2058837 -0.94387656
vn 0.87392694 -0.045617647 0.4839124
vn 0.44805327 -0.09012997 -0.8894522
vn 0.857611 -0.2695971 0.43797418
vn 0.27393544 -0.13032892 -0.9528767
vn 0.525974 -0.80816805 0.26498333
vn 0.121782936 -0.68319917 -0.7200057
vn 0.19384962 0.25950408 0.94608665
vn -0.9370474 0.004955545 -0.34916687
vn -0.8918313 -0.40387574 0.20376813
vn -0.10464595 0.34983462 0.9309485
vn -0.5181761 0.5724157 -0.6354794
vn -0.14464301 0.48193103 0.86418825
vn -0.32797927 0.72314227 -0.60786086
vn -0.31483603 0.6297084 0.71017325
vn -0.7304984 0.41690224 -0.5408927
vn -0.83002144 0.22934715 0.5083943
vn -0.33126092 -0.6498671 -0.68406075
vn -0.58530885 -0.75135666 0.30475718
vn 0.506899 -0.67353797 -0.5284309
vn 0.07601718 -0.51007354 -0.85676515
vn 0.9571543 0.27632686 -0.086597264
vn 0.95644575 0.17965573 -0.17676358
vn 0.96890426 0.10201459 0.22542796
vn -0.14464301 0.48193103 0.86418825
vn -0.10464595 0.34983462 0.9309485
vn 0.87392694 -0.045617647 0.4839124
vn 0.07457497 -0.2212188 0.9723688
vn 0.857611 -0.2695971 0.43797418
vn -0.5154242 -0.5407383 0.6647857
vn 0.525974 -0.80816805 0.26498333
vn 0.057198063 -0.22761701 0.97206944
vn -0.609158 -0.4665233 0.64131325
vn 0.37315693 -0.8531853 0.36445716
vn -0.161298 -0.19022132 0.9684002
vn -0.31483603 0.6297084 0.71017325
vn -0.6827083 -0.3264892 0.6536927
vn 0.24734282 -0.8765314 0.41293374
vn -0.023461372 -0.6684487 0.7433881
vn -0.83002144 0.22934715 0.5083943
vn -0.58530885 -0.75135666 0.30475718
vn 0.07457497 -0.2212188 0.9723688
vn -0.5154242 -0.5407383 0.6647857
vn -0.8109529 -0.4982698 -0.3067298
vn -0.35247648 -0.11893202 -0.9282326
vn -0.5772363 -0.10914399 -0.80925035
vn -0.023461372 -0.6684487 0.7433881
vn -0.161298 -0.19022132 0.9684002
vn -0.13418934 -0.484222 -0.864594
vn -0.58530885 -0.75135666 0.30475718
vn -0.33126092 -0.6498671 -0.68406075
vn 0.525974 -0.80816805 0.26498333
vn 0.121782936 -0.68319917 -0.7200057
vn -0.8109529 -0.4982698 -0.3067298
vn -0.5154242 -0.5407383 0.6647857
vn 0.07220576 -0.7268934 -0.68294406
vn -0.8573909 -0.39895448 -0.325141
vn -0.609158 -0.4665233 0.64131325
vn 0.37315693 -0.8531853 0.36445716
vn 0.057198063 -0.22761701 0.97206944
vn -0.609158 -0.4665233 0.64131325
vn -0.8573909 -0.39895448 -0.325141
vn -0.37083864 -0.08032732 -0.92521703
vn -0.35247648 -0.11893202 -0.9282326
vn 0.07220576 -0.7268934 -0.68294406
vn 0.37315693 -0.8531853 0.36445716
vn 0.07457497 -0.2212188 0.9723688
vn -0.01147626 -0.702433 -0.71165746
vn -0.9201293 -0.22527157 -0.32033598
vn -0.6827083 -0.3264892 0.6536927
vn 0.24734282 -0.8765314 0.41293374
vn -0.37083864 -0.08032732 -0.92521703
vn -0.01147626 -0.702433 -0.71165746
vn 0.24734282 -0.8765314 0.41293374
vn 0.057198063 -0.22761701 0.97206944
vn -0.161298 -0.19022132 0.9684002
vn -0.6827083 -0.3264892 0.6536927
vn -0.9201293 -0.22527157 -0.32033598
vn -0.5772363 -0.10914399 -0.80925035
vn -0.1814558 -0.58972716 0.7669339
vn 0.5368227 -0.28246766 0.78748417
vn 0.26983032 -0.7001785 0.63246286
vn 0.3820538 -0.23094732 0.8873011
vn -0.45831835 -0.26084247 0.82821554
vn 0.5786191 0.026870945 0.81515497
vn 0.27980548 -0.08199691 0.9485798
vn -0.5008344 0.18858603 0.8217018
vn 0.26847026 0.10745883 0.9488261
vn -0.26598966 0.57337064 0.7578153
vn 0.3494149 0.26491666 0.88931954
vn 0.48552066 0.32994503 0.7969958
vn 0.1548483 0.7266928 0.65409994
vn -0.55511546 0.67606497 0.4373461
vn -0.84661734 0.1826808 0.44266784
vn -0.86914206 0.17630213 -0.402243
vn -0.60010165 0.65049636 -0.40410998
vn 0.15009123 0.8522598 0.46264794
vn 0.14866869 0.8891959 -0.36772576
vn -0.8274896 -0.44751093 0.26582435
vn -0.5106605 -0.8197706 0.20891619
vn -0.47933775 -0.6868457 -0.5295482
vn -0.60247034 -0.5484999 -0.5573145
vn -0.46664894 -0.6199904 -0.6077261
vn -0.6636526 -0.6957322 0.17526217
vn -0.91958565 0.17725395 0.2628535
vn -0.9255947 0.17573187 0.25188446
vn -0.7694624 -0.36947185 0.48646593
vn -0.829001 0.21448168 0.47874784
vn -0.45831835 -0.26084247 0.82821554
vn -0.5008344 0.18858603 0.8217018
vn -0.7694624 -0.36947185 0.48646593
vn -0.45831835 -0.26084247 0.82821554
vn -0.1814558 -0.58972716 0.7669339
vn -0.4200081 -0.7798948 0.4402219
vn -0.8274896 -0.44751093 0.26582435
vn 0.26983032 -0.7001785 0.63246286
vn 0.078834206 -0.92204905 0.33855718
vn -0.5106605 -0.8197706 0.20891619
vn -0.015202068 -0.9683472 0.173301
vn -0.098250695 -0.876752 -0.45992348
vn -0.47933775 -0.6868457 -0.5295482
vn 0.06563032 0.93295515 0.3311836
vn 0.1548483 0.7266928 0.65409994
vn -0.26598966 0.57337064 0.7578153
vn -0.5169335 0.7323425 0.4196939
vn -0.5008344 0.18858603 0.8217018
vn 0.055547252 0.97670686 0.13780898
vn -0.829001 0.21448168 0.47874784
vn -0.58996457 0.7655556 0.19744986
vn 0.09990257 0.9574975 0.21468233
vn -0.9255947 0.17573187 0.25188446
vn -0.56483936 0.7712642 0.22695911
vn 0.121638626 0.768692 0.6077664
vn -0.91958565 0.17725395 0.2628535
vn -0.46598613 0.6400874 0.5871536
vn -0.7809505 0.15643401 0.5640596
vn -0.7820167 -0.5711687 0.009144701
vn -0.9336872 0.217586 -0.20256929
vn -0.55455154 -0.72916526 -0.36849305
vn -0.96751386 -0.03157481 0.00702969
vn -0.65975016 -0.47002727 0.53450006
vn -0.7809505 0.15643401 0.5640596
vn -0.7680127 -0.016858537 0.61008435
vn -0.91958565 0.17725395 0.2628535
vn 0.11155497 0.6289176 0.7544701
vn 0.121638626 0.768692 0.6077664
vn -0.46598613 0.6400874 0.5871536
vn -0.39294758 0.52309215 0.74218637
vn 0.15009123 0.8522598 0.46264794
vn -0.7809505 0.15643401 0.5640596
vn -0.55511546 0.67606497 0.4373461
vn -0.6237582 0.12471278 0.75062454
vn -0.65975016 -0.47002727 0.53450006
vn -0.84661734 0.1826808 0.44266784
vn -0.5751558 -0.2744455 0.7429092
vn -0.794904 -0.34553188 0.43507174
vn -0.51203597 -0.73394996 -0.403128
vn -0.14501983 -0.8712758 -0.4214145
vn -0.039025128 -0.2745122 -0.946546
vn -0.18318632 -0.2629047 -0.9439157
vn -0.81677103 -0.34809306 -0.40782475
vn 0.044876434 0.343055 -0.9217393
vn -0.28936848 -0.12426742 -0.94595116
vn -0.86914206 0.17630213 -0.402243
vn -0.2425896 0.19821171 -0.9440504
vn 0.14866869 0.8891959 -0.36772576
vn -0.60010165 0.65049636 -0.40410998
vn -0.31019807 0.04777307 -0.9449846
vn -0.5039269 -0.71022063 0.43939292
vn -0.14501983 -0.8712758 -0.4214145
vn -0.51203597 -0.73394996 -0.403128
vn -0.14879438 -0.86994624 0.423802
vn -0.10797175 -0.63848805 0.74107575
vn -0.37330863 -0.51872 0.7460429
vn -0.794904 -0.34553188 0.43507174
vn -0.11114591 -0.72083473 0.6617842
vn -0.5751558 -0.2744455 0.7429092
vn -0.42550805 -0.610705 0.6360288
vn -0.06353308 -0.43751377 0.8858116
vn -0.25685203 -0.4150908 0.8555106
vn -0.65975016 -0.47002727 0.53450006
vn -0.27759957 -0.16892885 0.9326287
vn 0.12648346 -0.2772348 0.94375896
vn -0.6636526 -0.6957322 0.17526217
vn -0.7820167 -0.5711687 0.009144701
vn -0.5110979 -0.64849365 0.541657
vn -0.55455154 -0.72916526 -0.36849305
vn 0.13531393 -0.608886 0.7782924
vn -0.104808345 -0.70645094 -0.69995886
vn 0.8676194 -0.38680476 0.31243908
vn -0.26960987 -0.42497268 -0.8641231
vn 0.9357894 -0.1353236 -0.3255539
vn -0.794904 -0.34553188 0.43507174
vn -0.5039269 -0.71022063 0.43939292
vn -0.51203597 -0.73394996 -0.403128
vn -0.81677103 -0.34809306 -0.40782475
vn -0.84661734 0.1826808 0.44266784
vn -0.86914206 0.17630213 -0.402243
vn -0.6636526 -0.6957322 0.17526217
vn -0.6329275 -0.6668301 -0.3331237
vn 0.16388004 -0.9565284 -0.066183895
vn -0.46664894 -0.6199904 -0.6077261
vn -0.6584848 -0.6000732 -0.41173464
vn -0.60247034 -0.5484999 -0.5573145
vn -0.6742377 -0.56885135 -0.443363
vn -0.47933775 -0.6868457 -0.5295482
vn -0.09357859 -0.7688764 -0.6255789
vn -0.098250695 -0.876752 -0.45992348
vn 0.12648346 -0.2772348 0.94375896
vn -0.6636526 -0.6957322 0.17526217
vn 0.16388004 -0.9565284 -0.066183895
vn 0.10334276 -0.4077423 0.8937044
vn -0.6742377 -0.56885135 -0.443363
vn -0.17642826 -0.28731042 0.9287519
vn -0.5169713 -0.12432173 0.82661515
vn -0.6329275 -0.6668301 -0.3331237
vn -0.6584848 -0.6000732 -0.41173464
vn 0.10334276 -0.4077423 0.8937044
vn 0.16388004 -0.9565284 -0.066183895
vn -0.06353308 -0.43751377 0.8858116
vn -0.17642826 -0.28731042 0.9287519
vn -0.040973023 -0.30528972 0.94448835
vn -0.25685203 -0.4150908 0.8555106
vn -0.5169713 -0.12432173 0.82661515
vn -0.27759957 -0.16892885 0.9326287
vn 0.10334276 -0.4077423 0.8937044
vn 0.12648346 -0.2772348 0.94375896
vn -0.7264071 -0.6486055 0.09105272
vn -0.07944221 -0.76582325 -0.6363847
vn -0.040973023 -0.30528972 0.94448835
vn -0.17642826 -0.28731042 0.9287519
vn -0.6208998 -0.5442258 0.5272353
vn -0.6742377 -0.56885135 -0.443363
vn -0.009099603 -0.36180636 0.92598474
vn -0.06811575 -0.90286607 0.40568483
vn -0.09357859 -0.7688764 -0.6255789
vn -0.8338728 0.15740913 -0.5281563
vn -0.5896277 -0.8064611 -0.032169998
vn -0.583345 -0.024747461 -0.81144315
vn -0.6805636 -0.6112238 0.40155149
vn -0.8652855 0.28702176 -0.40874952
vn -0.6564869 -0.46842214 0.5871325
vn -0.88481015 0.21890822 -0.4096392
vn -0.62430847 -0.29974324 0.71869826
vn -0.8825292 0.0032919794 -0.46400943
vn -0.62137675 -0.08536038 0.7728417
vn -0.7264071 -0.6486055 0.09105272
vn -0.6208998 -0.5442258 0.5272353
vn 0.06566887 0.6335921 -0.77087486
vn -0.583345 -0.024747461 -0.81144315
vn -0.00028625876 -0.0021393597 -0.9999975
vn -0.8338728 0.15740913 -0.5281563
vn 0.053684197 0.51809907 -0.85328966
vn -0.8652855 0.28702176 -0.40874952
vn 0.03879802 0.37458068 -0.92507344
vn -0.88481015 0.21890822 -0.4096392
vn -0.6208998 -0.5442258 0.5272353
vn -0.009099603 -0.36180636 0.92598474
vn -0.012295334 -0.11851144 0.99281937
vn -0.62137675 -0.08536038 0.7728417
vn -0.044145733 -0.42586014 0.90108246
vn -0.62430847 -0.29974324 0.71869826
vn -0.07944221 -0.76582325 -0.6363847
vn -0.7264071 -0.6486055 0.09105272
vn -0.8825292 0.0032919794 -0.46400943
vn 0.010432025 0.1005805 -0.99437577
vn -0.88481015 0.21890822 -0.4096392
vn 0.03879802 0.37458068 -0.92507344
vn -0.00028625876 -0.0021393597 -0.9999975
vn -0.583345 -0.024747461 -0.81144315
vn -0.5896277 -0.8064611 -0.032169998
vn -0.1018937 -0.98226 -0.15742484
vn -0.6805636 -0.6112238 0.40155149
vn -0.1018937 -0.98226 -0.15742484
vn -0.5896277 -0.8064611 -0.032169998
vn -0.07329587 -0.70708185 0.7026922
vn -0.6564869 -0.46842214 0.5871325
vn -0.0671238 -0.6476118 0.75900805
vn -0.62430847 -0.29974324 0.71869826
vn -0.044145733 -0.42586014 0.90108246
vn -0.5110979 -0.64849365 0.541657
vn -0.91958565 0.17725395 0.2628535
vn -0.6636526 -0.6957322 0.17526217
vn -0.7680127 -0.016858537 0.61008435
vn 0.13531393 -0.608886 0.7782924
vn -0.4448538 0.31245884 0.8315137
vn 0.8676194 -0.38680476 0.31243908
vn -0.17876944 0.5020157 0.8461807
vn -0.96751386 -0.03157481 0.00702969
vn -0.7680127 -0.016858537 0.61008435
vn -0.4448538 0.31245884 0.8315137
vn -0.9336872 0.217586 -0.20256929
vn -0.17876944 0.5020157 0.8461807
vn -0.9400286 0.2970576 -0.16763906
vn 0.12434948 0.5690623 0.81283784
vn -0.9615683 0.20884079 0.17824607
vn 0.9357894 -0.1353236 -0.3255539
vn -0.26960987 -0.42497268 -0.8641231
vn -0.4525348 -0.28898427 -0.8436234
vn 0.5496046 0.36255896 -0.75265247
vn 0.5700536 -0.34295747 -0.7466053
vn 0.10652222 -0.69497305 -0.71110195
vn 0.3682285 0.52551174 -0.7669714
vn 0.29394448 -0.81971145 -0.49159932
vn 0.7528154 0.22488801 -0.6186231
vn 0.36559904 -0.33337942 -0.86902004
vn -0.028301701 -0.8600133 -0.5094863
vn 0.90589887 -0.34934166 -0.23939091
vn 0.34508538 -0.37041718 -0.8623847
vn -0.2809735 -0.35346 -0.89225554
vn -0.16026598 -0.8362857 -0.5243485
vn 0.7814773 -0.6034938 -0.15839425
vn -0.11322743 -0.87174696 -0.47669378
vn 0.83345073 -0.514827 -0.20078221
vn -0.104808345 -0.70645094 -0.69995886
vn -0.9400286 0.2970576 -0.16763906
vn -0.9615683 0.20884079 0.17824607
vn -0.26960987 -0.42497268 -0.8641231
vn -0.8750505 0.12692039 0.4670953
vn -0.4525348 -0.28898427 -0.8436234
vn -0.8714176 -0.10191951 0.4798378
vn -0.2809735 -0.35346 -0.89225554
vn -0.57075036 -0.68407845 0.45418125
vn -0.16026598 -0.8362857 -0.5243485
vn -0.17876944 0.5020157 0.8461807
vn 0.8676194 -0.38680476 0.31243908
vn 0.9357894 -0.1353236 -0.3255539
vn 0.12434948 0.5690623 0.81283784
vn 0.5496046 0.36255896 -0.75265247
vn 0.1717361 0.6774191 0.71526945
vn 0.3682285 0.52551174 -0.7669714
vn 0.3499858 0.7715853 0.5311934
vn 0.7528154 0.22488801 -0.6186231
vn 0.84171087 0.305507 0.44518346
vn 0.29394448 -0.81971145 -0.49159932
vn 0.54197127 -0.6798347 0.4940566
vn -0.55455154 -0.72916526 -0.36849305
vn -0.9336872 0.217586 -0.20256929
vn -0.9400286 0.2970576 -0.16763906
vn -0.104808345 -0.70645094 -0.69995886
vn -0.9615683 0.20884079 0.17824607
vn 0.12434948 0.5690623 0.81283784
vn 0.1717361 0.6774191 0.71526945
vn -0.8750505 0.12692039 0.4670953
vn 0.15041044 0.054075174 0.9871436
vn 0.3499858 0.7715853 0.5311934
vn -0.014243096 -0.4574075 0.889143
vn 0.84171087 0.305507 0.44518346
vn 0.54197127 -0.6798347 0.4940566
vn -0.06985421 0.030858073 0.99707985
vn 0.66325414 -0.18611085 0.7248839
vn -0.29640955 -0.72764343 0.61860853
vn -0.08684008 0.03806127 0.9954949
vn 0.5819116 -0.3204407 0.7474602
vn -0.42070436 -0.71057034 0.56400156
vn -0.8714176 -0.10191951 0.4798378
vn 0.48413533 -0.38100007 0.78768766
vn -0.57075036 -0.68407845 0.45418125
vn -0.08684008 0.03806127 0.9954949
vn 0.34508538 -0.37041718 -0.8623847
vn 0.7814773 -0.6034938 -0.15839425
vn 0.48413533 -0.38100007 0.78768766
vn 0.5700536 -0.34295747 -0.7466053
vn 0.15041044 0.054075174 0.9871436
vn -0.014243096 -0.4574075 0.889143
vn 0.10652222 -0.69497305 -0.71110195
vn 0.54197127 -0.6798347 0.4940566
vn 0.29394448 -0.81971145 -0.49159932
vn -0.57075036 -0.68407845 0.45418125
vn 0.48413533 -0.38100007 0.78768766
vn 0.7814773 -0.6034938 -0.15839425
vn -0.16026598 -0.8362857 -0.5243485
vn -0.11322743 -0.87174696 -0.47669378
vn -0.42070436 -0.71057034 0.56400156
vn 0.5819116 -0.3204407 0.7474602
vn 0.83345073 -0.514827 -0.20078221
vn -0.06985421 0.030858073 0.99707985
vn 0.36559904 -0.33337942 -0.86902004
vn 0.83345073 -0.514827 -0.20078221
vn 0.5819116 -0.3204407 0.7474602
vn 0.34508538 -0.37041718 -0.8623847
vn -0.08684008 0.03806127 0.9954949
vn -0.42070436 -0.71057034 0.56400156
vn -0.11322743 -0.87174696 -0.47669378
vn -0.028301701 -0.8600133 -0.5094863
vn -0.29640955 -0.72764343 0.61860853
vn 0.66325414 -0.18611085 0.7248839
vn 0.90589887 -0.34934166 -0.23939091
vn 0.36559904 -0.33337942 -0.86902004
vn -0.06985421 0.030858073 0.99707985
vn -0.29640955 -0.72764343 0.61860853
vn -0.028301701 -0.8600133 -0.5094863
vn 0.15041044 0.054075174 0.9871436
vn 0.5700536 -0.34295747 -0.7466053
vn 0.90589887 -0.34934166 -0.23939091
vn 0.66325414 -0.18611085 0.7248839
g 1.5000_0
f 3/3/3 2/2/2 1/1/1
f 4/4/4 3/3/3 1/1/1
f 4/4/4 1/1/1 5/5/5
f 4/4/4 6/6/6 3/3/3
f 7/7/7 4/4/4 5/5/5
f 7/7/7 6/6/6 4/4/4
f 7/7/7 5/5/5 8/8/8
f 9/9/9 7/7/7 8/8/8
f 9/9/9 6/6/6 7/7/7
f 9/9/9 8/8/8 10/10/10
f 11/11/11 6/6/6 9/9/9
f 11/11/11 9/9/9 10/10/10
f 12/12/12 6/6/6 11/11/11
f 11/11/11 10/10/10 13/13/13
f 12/12/12 11/11/11 13/13/13
f 16/16/16 15/15/15 14/14/14
f 15/15/15 17/17/17 14/14/14
f 14/14/14 17/17/17 18/18/18
f 17/17/17 19/19/19 18/18/18
f 22/22/22 21/21/21 20/20/20
f 20/20/20 23/23/23 22/22/22
f 20/20/20 24/24/24 23/23/23
f 24/24/24 25/25/25 23/23/23
f 23/23/23 25/25/25 26/26/26
f 27/27/27 23/23/23 26/26/26
f 28/28/28 23/23/23 27/27/27
f 29/29/29 28/28/28 27/27/27
f 30/30/30 28/28/28 29/29/29
f 31/31/31 30/30/30 29/29/29
f 34/34/34 33/33/33 32/32/32
f 33/33/33 35/35/35 32/32/32
f 32/32/32 35/35/35 36/36/36
f 33/33/33 37/37/37 35/35/35
f 37/37/37 38/38/38 35/35/35
f 35/35/35 39/39/39 36/36/36
f 35/35/35 38/38/38 39/39/39
f 38/38/38 40/40/40 39/39/39
f 39/39/39 40/40/40 41/41/41
f 42/42/42 39/39/39 41/41/41
f 45/45/45 44/44/44 43/43/43
f 44/44/44 46/46/46 43/43/43
f 44/44/44 47/47/47 46/46/46
f 43/43/43 46/46/46 48/48/48
f 47/47/47 49/49/49 46/46/46
f 46/46/46 50/50/50 48/48/48
f 46/46/46 49/49/49 50/50/50
f 48/48/48 50/50/50 51/51/51
f 49/49/49 52/52/52 50/50/50
f 50/50/50 53/53/53 51/51/51
f 50/50/50 52/52/52 53/53/53
f 51/51/51 53/53/53 54/54/54
f 52/52/52 55/55/55 53/53/53
f 53/53/53 56/56/56 54/54/54
f 53/53/53 55/55/55 56/56/56
f 55/55/55 57/57/57 56/56/56
f 60/60/60 59/59/59 58/58/58
f 61/61/61 60/60/60 58/58/58
f 58/58/58 62/62/62 61/61/61
f 62/62/62 63/63/63 61/61/61
f 61/61/61 63/63/63 64/64/64
f 63/63/63 65/65/65 64/64/64
f 68/68/68 67/67/67 66/66/66
f 67/67/67 69/69/69 66/66/66
f 66/66/66 69/69/69 70/70/70
f 67/67/67 71/71/71 69/69/69
f 69/69/69 72/72/72 70/70/70
f 71/71/71 73/73/73 69/69/69
f 69/69/69 73/73/73 72/72/72
f 71/71/71 74/74/74 73/73/73
f 73/73/73 75/75/75 72/72/72
f 74/74/74 76/76/76 73/73/73
f 73/73/73 76/76/76 75/75/75
f 76/76/76 77/77/77 75/75/75
f 80/80/80 79/79/79 78/78/78
f 79/79/79 81/81/81 78/78/78
f 78/78/78 81/81/81 82/82/82
f 81/81/81 79/79/79 83/83/83
f 79/79/79 84/84/84 83/83/83
f 83/83/83 84/84/84 85/85/85
f 86/86/86 83/83/83 85/85/85
f 81/81/81 87/87/87 82/82/82
f 87/87/87 81/81/81 83/83/83
f 82/82/82 87/87/87 88/88/88
f 89/89/89 83/83/83 86/86/86
f 88/88/88 89/89/89 86/86/86
f 87/87/87 89/89/89 88/88/88
f 83/83/83 89/89/89 87/87/87
f 92/92/92 91/91/91 90/90/90
f 93/93/93 92/92/92 90/90/90
f 94/94/94 93/93/93 90/90/90
f 95/95/95 94/94/94 90/90/90
f 95/95/95 90/90/90 96/96/96
f 97/97/97 94/94/94 95/95/95
f 98/98/98 95/95/95 96/96/96
f 99/99/99 97/97/97 95/95/95
f 99/99/99 95/95/95 98/98/98
f 100/100/100 97/97/97 99/99/99
f 101/101/101 100/100/100 99/99/99
f 102/102/102 99/99/99 98/98/98
f 101/101/101 99/99/99 102/102/102
f 102/102/102 103/103/103 101/101/101
f 102/102/102 104/104/104 103/103/103
f 102/102/102 105/105/105 104/104/104
f 105/105/105 102/102/102 106/106/106
f 107/107/107 105/105/105 106/106/106
f 106/106/106 108/108/108 107/107/107
f 108/108/108 109/109/109 107/107/107
f 108/108/108 110/110/110 109/109/109
f 110/110/110 111/111/111 109/109/109
f 110/110/110 112/112/112 111/111/111
f 112/112/112 113/113/113 111/111/111
f 116/116/116 115/115/115 114/114/114
f 115/115/115 117/117/117 114/114/114
f 114/114/114 117/117/117 118/118/118
f 117/117/117 119/119/119 118/118/118
f 122/122/122 121/121/121 120/120/120
f 123/123/123 122/122/122 120/120/120
f 124/124/124 122/122/122 123/123/123
f 125/125/125 124/124/124 123/123/123
f 126/126/126 124/124/124 125/125/125
f 127/127/127 126/126/126 125/125/125
f 128/128/128 126/126/126 127/127/127
f 129/129/129 128/128/128 127/127/127
f 132/132/132 131/131/131 130/130/130
f 133/133/133 132/132/132 130/130/130
f 136/136/136 135/135/135 134/134/134
f 134/134/134 137/137/137 136/136/136
f 138/138/138 136/136/136 137/137/137
f 134/134/134 139/139/139 137/137/137
f 139/139/139 140/140/140 137/137/137
f 143/143/143 142/142/142 141/141/141
f 144/144/144 143/143/143 141/141/141
f 145/145/145 143/143/143 144/144/144
f 146/146/146 145/145/145 144/144/144
f 147/147/147 145/145/145 146/146/146
f 148/148/148 147/147/147 146/146/146
f 151/151/151 150/150/150 149/149/149
f 150/150/150 152/152/152 149/149/149
f 149/149/149 152/152/152 153/153/153
f 152/152/152 154/154/154 153/153/153
f 153/153/153 154/154/154 155/155/155
f 154/154/154 156/156/156 155/155/155
f 157/157/157 156/156/156 154/154/154
f 160/160/160 159/159/159 158/158/158
f 161/161/161 160/160/160 158/158/158
f 161/161/161 158/158/158 162/162/162
f 163/163/163 161/161/161 162/162/162
f 163/163/163 162/162/162 164/164/164
f 165/165/165 163/163/163 164/164/164
f 165/165/165 164/164/164 166/166/166
f 167/167/167 165/165/165 166/166/166
f 167/167/167 166/166/166 168/168/168
f 169/169/169 167/167/167 168/168/168
f 172/172/172 171/171/171 170/170/170
f 173/173/173 172/172/172 170/170/170
f 173/173/173 170/170/170 174/174/174
f 175/175/175 173/173/173 174/174/174
f 175/175/175 174/174/174 176/176/176
f 177/177/177 175/175/175 176/176/176
f 180/180/180 179/179/179 178/178/178
f 179/179/179 181/181/181 178/178/178
f 179/179/179 182/182/182 181/181/181
f 182/182/182 183/183/183 181/181/181
f 186/186/186 185/185/185 184/184/184
f 185/185/185 187/187/187 184/184/184
f 185/185/185 188/188/188 187/187/187
f 188/188/188 189/189/189 187/187/187
f 192/192/192 191/191/191 190/190/190
f 193/193/193 192/192/192 190/190/190
f 196/196/196 195/195/195 194/194/194
f 197/197/197 196/196/196 194/194/194
f 197/197/197 194/194/194 198/198/198
f 199/199/199 197/197/197 198/198/198
f 199/199/199 198/198/198 200/200/200
f 201/201/201 199/199/199 200/200/200
f 204/204/204 203/203/203 202/202/202
f 205/205/205 204/204/204 202/202/202
f 202/202/202 206/206/206 205/205/205
f 206/206/206 207/207/207 205/205/205
f 206/206/206 208/208/208 207/207/207
f 208/208/208 209/209/209 207/207/207
f 212/212/212 211/211/211 210/210/210
f 211/211/211 213/213/213 210/210/210
f 211/211/211 214/214/214 213/213/213
f 214/214/214 215/215/215 213/213/213
f 214/214/214 216/216/216 215/215/215
f 216/216/216 217/217/217 215/215/215
f 220/220/220 219/219/219 218/218/218
f 219/219/219 221/221/221 218/218/218
f 222/222/222 221/221/221 219/219/219
f 219/219/219 223/223/223 222/222/222
f 223/223/223 224/224/224 222/222/222
f 224/224/224 225/225/225 222/222/222
f 222/222/222 226/226/226 221/221/221
f 222/222/222 227/227/227 226/226/226
f 227/227/227 228/228/228 226/226/226
f 226/226/226 229/229/229 221/221/221
f 226/226/226 230/230/230 229/229/229
f 230/230/230 231/231/231 229/229/229
f 229/229/229 232/232/232 221/221/221
f 232/232/232 233/233/233 221/221/221
f 232/232/232 234/234/234 233/233/233
f 234/234/234 235/235/235 233/233/233
f 238/238/238 237/237/237 236/236/236
f 237/237/237 239/239/239 236/236/236
f 237/237/237 240/240/240 239/239/239
f 240/240/240 241/241/241 239/239/239
f 240/240/240 242/242/242 241/241/241
f 242/242/242 243/243/243 241/241/241
f 242/242/242 244/244/244 243/243/243
f 244/244/244 245/245/245 243/243/243
f 248/248/248 247/247/247 246/246/246
f 247/247/247 249/249/249 246/246/246
f 247/247/247 250/250/250 249/249/249
f 250/250/250 251/251/251 249/249/249
f 250/250/250 252/252/252 251/251/251
f 252/252/252 253/253/253 251/251/251
f 252/252/252 254/254/254 253/253/253
f 254/254/254 255/255/255 253/253/253
f 254/254/254 256/256/256 255/255/255
f 256/256/256 257/257/257 255/255/255
f 260/260/260 259/259/259 258/258/258
f 261/261/261 260/260/260 258/258/258
f 264/264/264 263/263/263 262/262/262
f 263/263/263 265/265/265 262/262/262
f 265/265/265 263/263/263 266/266/266
f 266/266/266 267/267/267 265/265/265
f 266/266/266 268/268/268 267/267/267
f 268/268/268 269/269/269 267/267/267
f 263/263/263 270/270/270 266/266/266
f 270/270/270 271/271/271 266/266/266
f 271/271/271 272/272/272 266/266/266
f 263/263/263 273/273/273 270/270/270
f 263/263/263 274/274/274 273/273/273
f 273/273/273 275/275/275 270/270/270
f 275/275/275 276/276/276 270/270/270
f 274/274/274 277/277/277 273/273/273
f 274/274/274 278/278/278 277/277/277
f 278/278/278 279/279/279 277/277/277
f 282/282/282 281/281/281 280/280/280
f 283/283/283 282/282/282 280/280/280
f 286/286/286 285/285/285 284/284/284
f 285/285/285 287/287/287 284/284/284
f 285/285/285 288/288/288 287/287/287
f 288/288/288 289/289/289 287/287/287
f 292/292/292 291/291/291 290/290/290
f 293/293/293 292/292/292 290/290/290
f 296/296/296 295/295/295 294/294/294
f 297/297/297 296/296/296 294/294/294
f 300/300/300 299/299/299 298/298/298
f 301/301/301 300/300/300 298/298/298
f 304/304/304 303/303/303 302/302/302
f 305/305/305 304/304/304 302/302/302
f 308/308/308 307/307/307 306/306/306
f 309/309/309 308/308/308 306/306/306
f 312/312/312 311/311/311 310/310/310
f 313/313/313 312/312/312 310/310/310
f 316/316/316 315/315/315 314/314/314
f 317/317/317 316/316/316 314/314/314
f 320/320/320 319/319/319 318/318/318
f 319/319/319 321/321/321 318/318/318
f 318/318/318 321/321/321 322/322/322
f 323/323/323 321/321/321 319/319/319
f 321/321/321 324/324/324 322/322/322
f 323/323/323 324/324/324 321/321/321
f 322/322/322 324/324/324 325/325/325
f 324/324/324 326/326/326 325/325/325
f 323/323/323 326/326/326 324/324/324
f 325/325/325 326/326/326 327/327/327
f 323/323/323 328/328/328 326/326/326
f 326/326/326 328/328/328 327/327/327
f 323/323/323 329/329/329 328/328/328
f 327/327/327 328/328/328 330/330/330
f 328/328/328 329/329/329 330/330/330
f 333/333/333 332/332/332 331/331/331
f 334/334/334 333/333/333 331/331/331
f 334/334/334 331/331/331 335/335/335
f 336/336/336 334/334/334 335/335/335
f 339/339/339 338/338/338 337/337/337
f 337/337/337 340/340/340 339/339/339
f 337/337/337 341/341/341 340/340/340
f 337/337/337 342/342/342 341/341/341
f 342/342/342 337/337/337 343/343/343
f 337/337/337 344/344/344 343/343/343
f 337/337/337 345/345/345 344/344/344
f 345/345/345 346/346/346 344/344/344
f 345/345/345 347/347/347 346/346/346
f 347/347/347 348/348/348 346/346/346
f 351/351/351 350/350/350 349/349/349
f 352/352/352 351/351/351 349/349/349
f 352/352/352 349/349/349 353/353/353
f 354/354/354 351/351/351 352/352/352
f 355/355/355 354/354/354 352/352/352
f 356/356/356 352/352/352 353/353/353
f 355/355/355 352/352/352 356/356/356
f 357/357/357 355/355/355 356/356/356
f 357/357/357 356/356/356 358/358/358
f 356/356/356 359/359/359 358/358/358
f 362/362/362 361/361/361 360/360/360
f 363/363/363 362/362/362 360/360/360
f 364/364/364 362/362/362 363/363/363
f 363/363/363 360/360/360 365/365/365
f 366/366/366 364/364/364 363/363/363
f 367/367/367 363/363/363 365/365/365
f 366/366/366 363/363/363 367/367/367
f 367/367/367 365/365/365 368/368/368
f 369/369/369 366/366/366 367/367/367
f 370/370/370 367/367/367 368/368/368
f 369/369/369 367/367/367 370/370/370
f 370/370/370 368/368/368 371/371/371
f 372/372/372 369/369/369 370/370/370
f 373/373/373 370/370/370 371/371/371
f 372/372/372 370/370/370 373/373/373
f 374/374/374 372/372/372 373/373/373
f 377/377/377 376/376/376 375/375/375
f 376/376/376 378/378/378 375/375/375
f 379/379/379 375/375/375 378/378/378
f 380/380/380 379/379/379 378/378/378
f 380/380/380 378/378/378 381/381/381
f 382/382/382 380/380/380 381/381/381
f 385/385/385 384/384/384 383/383/383
f 386/386/386 385/385/385 383/383/383
f 386/386/386 383/383/383 387/387/387
f 388/388/388 385/385/385 386/386/386
f 389/389/389 386/386/386 387/387/387
f 390/390/390 388/388/388 386/386/386
f 390/390/390 386/386/386 389/389/389
f 391/391/391 388/388/388 390/390/390
f 392/392/392 390/390/390 389/389/389
f 393/393/393 391/391/391 390/390/390
f 393/393/393 390/390/390 392/392/392
f 394/394/394 393/393/393 392/392/392
f 397/397/397 396/396/396 395/395/395
f 398/398/398 397/397/397 395/395/395
f 398/398/398 395/395/395 399/399/399
f 400/400/400 397/397/397 398/398/398
f 401/401/401 398/398/398 399/399/399
f 401/401/401 399/399/399 402/402/402
f 398/398/398 403/403/403 400/400/400
f 398/398/398 401/401/401 403/403/403
f 400/400/400 403/403/403 404/404/404
f 403/403/403 405/405/405 404/404/404
f 406/406/406 402/402/402 405/405/405
f 406/406/406 401/401/401 402/402/402
f 403/403/403 406/406/406 405/405/405
f 401/401/401 406/406/406 403/403/403
f 409/409/409 408/408/408 407/407/407
f 408/408/408 410/410/410 407/407/407
f 410/410/410 411/411/411 407/407/407
f 411/411/411 412/412/412 407/407/407
f 407/407/407 412/412/412 413/413/413
f 411/411/411 414/414/414 412/412/412
f 412/412/412 415/415/415 413/413/413
f 414/414/414 416/416/416 412/412/412
f 412/412/412 416/416/416 415/415/415
f 414/414/414 417/417/417 416/416/416
f 417/417/417 418/418/418 416/416/416
f 416/416/416 419/419/419 415/415/415
f 419/419/419 416/416/416 418/418/418
f 418/418/418 420/420/420 419/419/419
f 420/420/420 421/421/421 419/419/419
f 421/421/421 422/422/422 419/419/419
f 419/419/419 422/422/422 423/423/423
f 422/422/422 424/424/424 423/423/423
f 425/425/425 423/423/423 424/424/424
f 426/426/426 425/425/425 424/424/424
f 427/427/427 425/425/425 426/426/426
f 428/428/428 427/427/427 426/426/426
f 429/429/429 427/427/427 428/428/428
f 430/430/430 429/429/429 428/428/428
f 433/433/433 432/432/432 431/431/431
f 434/434/434 433/433/433 431/431/431
f 434/434/434 431/431/431 435/435/435
f 436/436/436 434/434/434 435/435/435
f 439/439/439 438/438/438 437/437/437
f 438/438/438 440/440/440 437/437/437
f 438/438/438 441/441/441 440/440/440
f 441/441/441 442/442/442 440/440/440
f 441/441/441 443/443/443 442/442/442
f 443/443/443 444/444/444 442/442/442
f 443/443/443 445/445/445 444/444/444
f 445/445/445 446/446/446 444/444/444
f 449/449/449 448/448/448 447/447/447
f 450/450/450 449/449/449 447/447/447
f 453/453/453 452/452/452 451/451/451
f 451/451/451 454/454/454 453/453/453
f 451/451/451 455/455/455 454/454/454
f 454/454/454 456/456/456 453/453/453
f 454/454/454 457/457/457 456/456/456
f 460/460/460 459/459/459 458/458/458
f 459/459/459 461/461/461 458/458/458
f 459/459/459 462/462/462 461/461/461
f 462/462/462 463/463/463 461/461/461
f 462/462/462 464/464/464 463/463/463
f 464/464/464 465/465/465 463/463/463
f 468/468/468 467/467/467 466/466/466
f 469/469/469 468/468/468 466/466/466
f 469/469/469 466/466/466 470/470/470
f 471/471/471 469/469/469 470/470/470
f 471/471/471 470/470/470 472/472/472
f 473/473/473 471/471/471 472/472/472
f 473/473/473 474/474/474 471/471/471
f 477/477/477 476/476/476 475/475/475
f 476/476/476 478/478/478 475/475/475
f 475/475/475 478/478/478 479/479/479
f 478/478/478 480/480/480 479/479/479
f 479/479/479 480/480/480 481/481/481
f 480/480/480 482/482/482 481/481/481
f 481/481/481 482/482/482 483/483/483
f 482/482/482 484/484/484 483/483/483
f 483/483/483 484/484/484 485/485/485
f 484/484/484 486/486/486 485/485/485
f 489/489/489 488/488/488 487/487/487
f 488/488/488 490/490/490 487/487/487
f 487/487/487 490/490/490 491/491/491
f 490/490/490 492/492/492 491/491/491
f 491/491/491 492/492/492 493/493/493
f 492/492/492 494/494/494 493/493/493
f 497/497/497 496/496/496 495/495/495
f 498/498/498 497/497/497 495/495/495
f 499/499/499 497/497/497 498/498/498
f 500/500/500 499/499/499 498/498/498
f 503/503/503 502/502/502 501/501/501
f 504/504/504 503/503/503 501/501/501
f 505/505/505 503/503/503 504/504/504
f 506/506/506 505/505/505 504/504/504
f 509/509/509 508/508/508 507/507/507
f 510/510/510 509/509/509 507/507/507
f 513/513/513 512/512/512 511/511/511
f 512/512/512 514/514/514 511/511/511
f 511/511/511 514/514/514 515/515/515
f 514/514/514 516/516/516 515/515/515
f 515/515/515 516/516/516 517/517/517
f 516/516/516 518/518/518 517/517/517
f 521/521/521 520/520/520 519/519/519
f 520/520/520 522/522/522 519/519/519
f 523/523/523 519/519/519 522/522/522
f 524/524/524 523/523/523 522/522/522
f 525/525/525 523/523/523 524/524/524
f 526/526/526 525/525/525 524/524/524
f 529/529/529 528/528/528 527/527/527
f 530/530/530 529/529/529 527/527/527
f 531/531/531 529/529/529 530/530/530
f 532/532/532 531/531/531 530/530/530
f 533/533/533 531/531/531 532/532/532
f 534/534/534 533/533/533 532/532/532
f 537/537/537 536/536/536 535/535/535
f 538/538/538 537/537/537 535/535/535
f 537/537/537 538/538/538 539/539/539
f 540/540/540 539/539/539 538/538/538
f 541/541/541 540/540/540 538/538/538
f 542/542/542 540/540/540 541/541/541
f 543/543/543 542/542/542 541/541/541
f 539/539/539 544/544/544 537/537/537
f 545/545/545 544/544/544 539/539/539
f 546/546/546 545/545/545 539/539/539
f 544/544/544 547/547/547 537/537/537
f 547/547/547 548/548/548 537/537/537
f 549/549/549 548/548/548 547/547/547
f 550/550/550 549/549/549 547/547/547
f 551/551/551 547/547/547 544/544/544
f 552/552/552 551/551/551 544/544/544
f 555/555/555 554/554/554 553/553/553
f 556/556/556 555/555/555 553/553/553
f 557/557/557 555/555/555 556/556/556
f 558/558/558 557/557/557 556/556/556
f 559/559/559 557/557/557 558/558/558
f 560/560/560 559/559/559 558/558/558
f 561/561/561 559/559/559 560/560/560
f 562/562/562 561/561/561 560/560/560
f 565/565/565 564/564/564 563/563/563
f 566/566/566 565/565/565 563/563/563
f 567/567/567 565/565/565 566/566/566
f 568/568/568 567/567/567 566/566/566
f 569/569/569 567/567/567 568/568/568
f 570/570/570 569/569/569 568/568/568
f 571/571/571 569/569/569 570/570/570
f 572/572/572 571/571/571 570/570/570
f 573/573/573 571/571/571 572/572/572
f 574/574/574 573/573/573 572/572/572
f 577/577/577 576/576/576 575/575/575
f 578/578/578 577/577/577 575/575/575
f 581/581/581 580/580/580 579/579/579
f 582/582/582 581/581/581 579/579/579
f 583/583/583 581/581/581 582/582/582
f 584/584/584 581/581/581 583/583/583
f 585/585/585 584/584/584 583/583/583
f 586/586/586 584/584/584 585/585/585
f 587/587/587 586/586/586 585/585/585
f 582/582/582 588/588/588 583/583/583
f 589/589/589 583/583/583 588/588/588
f 590/590/590 589/589/589 588/588/588
f 582/582/582 591/591/591 588/588/588
f 592/592/592 588/588/588 591/591/591
f 593/593/593 592/592/592 591/591/591
f 582/582/582 594/594/594 591/591/591
f 595/595/595 591/591/591 594/594/594
f 596/596/596 595/595/595 594/594/594
f 599/599/599 598/598/598 597/597/597
f 600/600/600 599/599/599 597/597/597
f 603/603/603 602/602/602 601/601/601
f 604/604/604 603/603/603 601/601/601
f 605/605/605 603/603/603 604/604/604
f 606/606/606 605/605/605 604/604/604
f 609/609/609 608/608/608 607/607/607
f 610/610/610 609/609/609 607/607/607
f 613/613/613 612/612/612 611/611/611
f 614/614/614 613/613/613 611/611/611
f 617/617/617 616/616/616 615/615/615
f 618/618/618 617/617/617 615/615/615
f 621/621/621 620/620/620 619/619/619
f 622/622/622 621/621/621 619/619/619
f 625/625/625 624/624/624 623/623/623
f 626/626/626 625/625/625 623/623/623
f 629/629/629 628/628/628 627/627/627
f 630/630/630 629/629/629 627/627/627
f 633/633/633 632/632/632 631/631/631
f 634/634/634 633/633/633 631/631/631
