g Boombox
v 1.3123746 -0.6828653 0.054059003
v -0 -0.6828653 0.054059003
v -0 -0.6828653 1.1596096
v 1.3123746 -0.6828653 1.1596096
v 1.2099717 -0.683276 0.7880561
v 1.0818285 -0.7687382 0.94168836
v 1.1073178 -0.683276 0.94168836
v 1.1766683 -0.7949378 0.7880561
v 1.0092412 -0.8411897 0.94168836
v 1.2460186 -0.683276 0.6068343
v 1.0818285 -0.8896001 0.7880561
v 1.2099717 -0.8041378 0.6068343
v 1.2099717 -0.683276 0.4256127
v 1.1073177 -0.90659946 0.6068343
v 1.1766683 -0.7949378 0.4256127
v 1.1073178 -0.683276 0.27198035
v 1.0818285 -0.8896001 0.4256127
v 1.0818285 -0.7687382 0.27198035
v 1.0092412 -0.8411897 0.27198035
v 0.95368546 -0.683276 0.16932656
v 1.0818285 -0.7687382 0.27198035
v 1.1073178 -0.683276 0.27198035
v 0.93989074 -0.72952783 0.16932656
v 0.7724637 -0.683276 0.13327928
v 1.0092412 -0.8411897 0.27198035
v 0.90060675 -0.7687382 0.16932656
v 0.90060675 -0.88960004 0.27198035
v 0.8418143 -0.79493773 0.16932656
v 0.7724637 -0.90659946 0.27198035
v 0.7724637 -0.8041378 0.16932656
v 0.6443206 -0.88960004 0.27198035
v 0.70311314 -0.79493773 0.16932656
v 0.5356862 -0.84118956 0.27198035
v 0.6443206 -0.7687382 0.16932656
v 0.46309894 -0.7687382 0.27198035
v 0.6050367 -0.7295278 0.16932656
v 0.5912421 -0.683276 0.16932656
v 0.43760976 -0.683276 0.27198035
v 1.0818285 -0.8896001 0.7880561
v 0.90060675 -0.88960004 0.94168836
v 1.0092412 -0.8411897 0.94168836
v 0.9398906 -0.9528515 0.7880561
v 1.1073177 -0.90659946 0.6068343
v 0.7724637 -0.90659946 0.94168836
v 0.9536854 -0.9750623 0.6068343
v 1.0818285 -0.8896001 0.4256127
v 0.7724636 -0.9750623 0.7880561
v 0.6443206 -0.88960004 0.94168836
v 0.9398906 -0.9528515 0.4256127
v 1.0092412 -0.8411897 0.27198035
v 0.90060675 -0.88960004 0.27198035
v 0.7724636 -0.9991032 0.6068343
v 0.6050366 -0.9528514 0.7880561
v 0.5356862 -0.84118956 0.94168836
v 0.4630989 -0.8896 0.7880561
v 0.7724636 -0.9750623 0.4256127
v 0.7724637 -0.90659946 0.27198035
v 0.5912419 -0.9750623 0.6068343
v 0.43760964 -0.9065994 0.6068343
v 0.6050366 -0.9528514 0.4256127
v 0.6443206 -0.88960004 0.27198035
v 0.4630989 -0.8896 0.4256127
v 0.5356862 -0.84118956 0.27198035
v 0.4630989 -0.8896 0.7880561
v 0.46309894 -0.7687382 0.94168836
v 0.5356862 -0.84118956 0.94168836
v 0.36825922 -0.7949377 0.7880561
v 0.43760976 -0.683276 0.94168836
v 0.43760964 -0.9065994 0.6068343
v 0.33495602 -0.68327594 0.7880561
v 0.33495587 -0.8041377 0.6068343
v 0.4630989 -0.8896 0.4256127
v 0.29890874 -0.6832759 0.6068343
v 0.36825922 -0.7949377 0.4256127
v 0.5356862 -0.84118956 0.27198035
v 0.33495602 -0.68327594 0.4256127
v 0.46309894 -0.7687382 0.27198035
v 0.43760976 -0.683276 0.27198035
v 0.46309894 -0.7687382 0.94168836
v 0.43760976 -0.683276 0.94168836
v 0.591242 -0.683276 1.044342
v 0.6050367 -0.7295278 1.044342
v 0.7724637 -0.683276 1.0803895
v 0.5356862 -0.84118956 0.94168836
v 0.6443206 -0.7687382 1.044342
v 0.6443206 -0.88960004 0.94168836
v 0.70311314 -0.79493773 1.044342
v 0.7724637 -0.90659946 0.94168836
v 0.7724637 -0.8041378 1.044342
v 0.90060675 -0.88960004 0.94168836
v 0.8418143 -0.79493773 1.044342
v 1.0092412 -0.8411897 0.94168836
v 0.90060675 -0.7687382 1.044342
v 1.0818285 -0.7687382 0.94168836
v 0.93989074 -0.72952783 1.044342
v 0.95368546 -0.683276 1.044342
v 1.1073178 -0.683276 0.94168836
v 1.3123746 0.62633073 1.2161443
v -0 -0.62633073 1.2161443
v -0 0.62633073 1.2161443
v 1.3123746 -0.62633073 1.2161443
v -0 -0.6828653 1.1596096
v 1.3123746 -0.6828653 1.1596096
v 0.5290413 -0.10368311 1.1988482
v 0.5290413 0.10368316 1.1988482
v 0.47206613 0.10368316 1.4931769
v 0.47206613 -0.10368311 1.4931769
v 0.5290413 0.10368316 1.1988482
v 0.73640764 0.10368316 1.1988482
v 0.67943245 0.10368316 1.4931769
v 0.47206613 0.10368316 1.4931769
v 0.41509092 0.10368316 1.7090828
v 0.6224572 0.10368316 1.7090828
v -0 0.10368316 1.4887955
v -0 0.10368316 1.7120397
v 0.73640764 0.10368316 1.1988482
v 0.73640764 -0.10368311 1.1988482
v 0.67943245 -0.10368311 1.4931769
v 0.67943245 0.10368316 1.4931769
v 0.6224572 0.10368316 1.7090828
v 0.6224572 -0.10368311 1.7090828
v 0.73640764 -0.10368311 1.1988482
v 0.5290413 -0.10368311 1.1988482
v 0.47206613 -0.10368311 1.4931769
v 0.67943245 -0.10368311 1.4931769
v 0.6224572 -0.10368311 1.7090828
v 0.41509092 -0.10368311 1.7090828
v -0 -0.10368311 1.7120397
v -0 -0.10368311 1.4887955
v 0.5290413 0.10368316 1.1988482
v 0.5290413 -0.10368311 1.1988482
v 0.73640764 -0.10368311 1.1988482
v 0.73640764 0.10368316 1.1988482
v 0.47206613 0.10368316 1.4931769
v -0 0.10368316 1.4887955
v -0 -0.10368311 1.4887955
v 0.47206613 -0.10368311 1.4931769
v 0.6224572 0.10368316 1.7090828
v 0.6224572 -0.10368311 1.7090828
v 0.41509092 -0.10368311 1.7090828
v 0.41509092 0.10368316 1.7090828
v -0 0.10368316 1.7120397
v -0 -0.10368311 1.7120397
v 1.3123746 -0.6828653 1.1596096
v 1.3689092 -0.62633073 0.054059003
v 1.3123746 -0.6828653 0.054059003
v 1.3689092 -0.62633073 1.1596096
v 1.3123746 -0.62633073 1.2161443
v 1.3689092 0.62633073 0.054059003
v 1.3123746 0.62633073 1.2161443
v 1.3689092 0.62633073 1.1596096
v -0 -0.62633073 -0.0024755616
v -0 -0.6828653 0.054059003
v 1.3123746 -0.6828653 0.054059003
v 1.3123746 -0.62633073 -0.0024755616
v -0 0.62633073 -0.0024755616
v 1.3689092 -0.62633073 0.054059003
v 1.3123746 0.62633073 -0.0024755616
v 1.3689092 0.62633073 0.054059003
v 1.3123746 0.62633073 -0.0024755616
v -0 0.6828653 0.054059003
v -0 0.62633073 -0.0024755616
v 1.3123746 0.6828653 0.054059003
v 1.3689092 0.62633073 0.054059003
v 1.3689092 0.62633073 1.1596096
v 1.3123746 0.6828653 1.1596096
v -0 0.6828653 1.1596096
v 1.3123746 0.62633073 1.2161443
v -0 0.62633073 1.2161443
v -1.3123746 -0.6828653 0.054059003
v -1.3123746 -0.6828653 1.1596096
v -0 -0.6828653 1.1596096
v -0 -0.6828653 0.054059003
v -1.2099717 -0.683276 0.7880561
v -1.1073178 -0.683276 0.94168836
v -1.0818285 -0.7687382 0.94168836
v -1.1766683 -0.7949378 0.7880561
v -1.0092412 -0.8411897 0.94168836
v -1.2460186 -0.683276 0.6068343
v -1.0818285 -0.8896001 0.7880561
v -1.2099717 -0.8041378 0.6068343
v -1.2099717 -0.683276 0.4256127
v -1.1073177 -0.90659946 0.6068343
v -1.1766683 -0.7949378 0.4256127
v -1.1073178 -0.683276 0.27198035
v -1.0818285 -0.8896001 0.4256127
v -1.0818285 -0.7687382 0.27198035
v -1.0092412 -0.8411897 0.27198035
v -0.95368546 -0.683276 0.16932656
v -1.1073178 -0.683276 0.27198035
v -1.0818285 -0.7687382 0.27198035
v -0.93989074 -0.72952783 0.16932656
v -0.7724637 -0.683276 0.13327928
v -1.0092412 -0.8411897 0.27198035
v -0.90060675 -0.7687382 0.16932656
v -0.90060675 -0.88960004 0.27198035
v -0.8418143 -0.79493773 0.16932656
v -0.7724637 -0.90659946 0.27198035
v -0.7724637 -0.8041378 0.16932656
v -0.6443206 -0.88960004 0.27198035
v -0.70311314 -0.79493773 0.16932656
v -0.5356862 -0.84118956 0.27198035
v -0.6443206 -0.7687382 0.16932656
v -0.46309894 -0.7687382 0.27198035
v -0.6050367 -0.7295278 0.16932656
v -0.5912421 -0.683276 0.16932656
v -0.43760976 -0.683276 0.27198035
v -1.0818285 -0.8896001 0.7880561
v -1.0092412 -0.8411897 0.94168836
v -0.90060675 -0.88960004 0.94168836
v -0.9398906 -0.9528515 0.7880561
v -1.1073177 -0.90659946 0.6068343
v -0.7724637 -0.90659946 0.94168836
v -0.9536854 -0.9750623 0.6068343
v -1.0818285 -0.8896001 0.4256127
v -0.7724636 -0.9750623 0.7880561
v -0.6443206 -0.88960004 0.94168836
v -0.9398906 -0.9528515 0.4256127
v -1.0092412 -0.8411897 0.27198035
v -0.90060675 -0.88960004 0.27198035
v -0.7724636 -0.9991032 0.6068343
v -0.6050366 -0.9528514 0.7880561
v -0.5356862 -0.84118956 0.94168836
v -0.4630989 -0.8896 0.7880561
v -0.7724636 -0.9750623 0.4256127
v -0.7724637 -0.90659946 0.27198035
v -0.5912419 -0.9750623 0.6068343
v -0.43760964 -0.9065994 0.6068343
v -0.6050366 -0.9528514 0.4256127
v -0.6443206 -0.88960004 0.27198035
v -0.4630989 -0.8896 0.4256127
v -0.5356862 -0.84118956 0.27198035
v -0.4630989 -0.8896 0.7880561
v -0.5356862 -0.84118956 0.94168836
v -0.46309894 -0.7687382 0.94168836
v -0.36825922 -0.7949377 0.7880561
v -0.43760976 -0.683276 0.94168836
v -0.43760964 -0.9065994 0.6068343
v -0.33495602 -0.68327594 0.7880561
v -0.33495587 -0.8041377 0.6068343
v -0.4630989 -0.8896 0.4256127
v -0.29890874 -0.6832759 0.6068343
v -0.36825922 -0.7949377 0.4256127
v -0.5356862 -0.84118956 0.27198035
v -0.33495602 -0.68327594 0.4256127
v -0.46309894 -0.7687382 0.27198035
v -0.43760976 -0.683276 0.27198035
v -0.46309894 -0.7687382 0.94168836
v -0.591242 -0.683276 1.044342
v -0.43760976 -0.683276 0.94168836
v -0.6050367 -0.7295278 1.044342
v -0.7724637 -0.683276 1.0803895
v -0.5356862 -0.84118956 0.94168836
v -0.6443206 -0.7687382 1.044342
v -0.6443206 -0.88960004 0.94168836
v -0.70311314 -0.79493773 1.044342
v -0.7724637 -0.90659946 0.94168836
v -0.7724637 -0.8041378 1.044342
v -0.90060675 -0.88960004 0.94168836
v -0.8418143 -0.79493773 1.044342
v -1.0092412 -0.8411897 0.94168836
v -0.90060675 -0.7687382 1.044342
v -1.0818285 -0.7687382 0.94168836
v -0.93989074 -0.72952783 1.044342
v -0.95368546 -0.683276 1.044342
v -1.1073178 -0.683276 0.94168836
v -1.3123746 0.62633073 1.2161443
v -0 0.62633073 1.2161443
v -0 -0.62633073 1.2161443
v -1.3123746 -0.62633073 1.2161443
v -0 -0.6828653 1.1596096
v -1.3123746 -0.6828653 1.1596096
v -0.5290413 -0.10368311 1.1988482
v -0.47206613 -0.10368311 1.4931769
v -0.47206613 0.10368316 1.4931769
v -0.5290413 0.10368316 1.1988482
v -0.5290413 0.10368316 1.1988482
v -0.67943245 0.10368316 1.4931769
v -0.73640764 0.10368316 1.1988482
v -0.47206613 0.10368316 1.4931769
v -0.41509092 0.10368316 1.7090828
v -0.6224572 0.10368316 1.7090828
v -0 0.10368316 1.4887955
v -0 0.10368316 1.7120397
v -0.73640764 0.10368316 1.1988482
v -0.67943245 -0.10368311 1.4931769
v -0.73640764 -0.10368311 1.1988482
v -0.67943245 0.10368316 1.4931769
v -0.6224572 0.10368316 1.7090828
v -0.6224572 -0.10368311 1.7090828
v -0.73640764 -0.10368311 1.1988482
v -0.47206613 -0.10368311 1.4931769
v -0.5290413 -0.10368311 1.1988482
v -0.67943245 -0.10368311 1.4931769
v -0.6224572 -0.10368311 1.7090828
v -0.41509092 -0.10368311 1.7090828
v -0 -0.10368311 1.7120397
v -0 -0.10368311 1.4887955
v -0.5290413 0.10368316 1.1988482
v -0.73640764 0.10368316 1.1988482
v -0.73640764 -0.10368311 1.1988482
v -0.5290413 -0.10368311 1.1988482
v -0.47206613 0.10368316 1.4931769
v -0.47206613 -0.10368311 1.4931769
v -0 -0.10368311 1.4887955
v -0 0.10368316 1.4887955
v -0.6224572 0.10368316 1.7090828
v -0.41509092 -0.10368311 1.7090828
v -0.6224572 -0.10368311 1.7090828
v -0.41509092 0.10368316 1.7090828
v -0 0.10368316 1.7120397
v -0 -0.10368311 1.7120397
v -1.3123746 -0.6828653 1.1596096
v -1.3123746 -0.6828653 0.054059003
v -1.3689092 -0.62633073 0.054059003
v -1.3689092 -0.62633073 1.1596096
v -1.3123746 -0.62633073 1.2161443
v -1.3689092 0.62633073 0.054059003
v -1.3123746 0.62633073 1.2161443
v -1.3689092 0.62633073 1.1596096
v -0 -0.62633073 -0.0024755616
v -1.3123746 -0.6828653 0.054059003
v -0 -0.6828653 0.054059003
v -1.3123746 -0.62633073 -0.0024755616
v -0 0.62633073 -0.0024755616
v -1.3689092 -0.62633073 0.054059003
v -1.3123746 0.62633073 -0.0024755616
v -1.3689092 0.62633073 0.054059003
v -1.3123746 0.62633073 -0.0024755616
v -0 0.62633073 -0.0024755616
v -0 0.6828653 0.054059003
v -1.3123746 0.6828653 0.054059003
v -1.3689092 0.62633073 0.054059003
v -1.3689092 0.62633073 1.1596096
v -1.3123746 0.6828653 1.1596096
v -0 0.6828653 1.1596096
v -1.3123746 0.62633073 1.2161443
v -0 0.62633073 1.2161443
vt 0.98973936 0.70963454
vt 0.98973936 0.37022296
vt 0.70381737 0.37022296
vt 0.70381737 0.70963454
vt 0.06962597 0.8771365
vt 0.042858362 0.91885525
vt 0.06557655 0.91902435
vt 0.039943337 0.8769155
vt 0.022049189 0.91986954
vt 0.07181752 0.8296576
vt 0.012754798 0.87824076
vt 0.039689302 0.8294184
vt 0.07181752 0.7838159
vt 0.010260701 0.83085287
vt 0.04213488 0.7835949
vt 0.06962597 0.7465904
vt 0.0149463415 0.78492016
vt 0.0469079 0.7464212
vt 0.026098609 0.7474355
vt 0.91855645 0.86345094
vt 0.8939117 0.89730334
vt 0.9159745 0.90329266
vt 0.9066161 0.8602095
vt 0.91855645 0.816557
vt 0.8748447 0.87904656
vt 0.8962971 0.85032904
vt 0.8616761 0.8513018
vt 0.8891703 0.8353137
vt 0.85641086 0.8182929
vt 0.8863208 0.8174494
vt 0.8598504 0.7850452
vt 0.8881823 0.7994559
vt 0.8714713 0.75662035
vt 0.8944714 0.78407246
vt 0.8895041 0.73734576
vt 0.9042307 0.7736411
vt 0.9159745 0.76974994
vt 0.91120374 0.7301558
vt 0.8594724 0.016852736
vt 0.8992054 0.06372106
vt 0.8992054 0.035625577
vt 0.8594724 0.05356133
vt 0.8126041 0.010260701
vt 0.8992054 0.09686196
vt 0.8126041 0.049993634
vt 0.76573586 0.016852736
vt 0.8594724 0.09686196
vt 0.8992054 0.13000286
vt 0.76573586 0.05356133
vt 0.7260028 0.035625577
vt 0.7260028 0.06372106
vt 0.8126041 0.09686196
vt 0.8594724 0.14016259
vt 0.8992054 0.15809834
vt 0.8594724 0.17687106
vt 0.76573586 0.09686196
vt 0.7260028 0.09686196
vt 0.8126041 0.14373028
vt 0.8126041 0.18346334
vt 0.76573586 0.14016259
vt 0.7260028 0.13000286
vt 0.76573586 0.17687106
vt 0.7260028 0.15809834
vt 0.52561295 0.7811021
vt 0.5578139 0.7447771
vt 0.5354006 0.7465043
vt 0.5548972 0.77884537
vt 0.58080566 0.7454821
vt 0.52072513 0.8255317
vt 0.5849376 0.7797665
vt 0.55242217 0.82308906
vt 0.52148116 0.87302923
vt 0.5849376 0.8240861
vt 0.5507654 0.8707725
vt 0.527766 0.9163635
vt 0.58080566 0.8716936
vt 0.5501791 0.91463625
vt 0.573171 0.91534126
vt 0.63855207 0.91072345
vt 0.6602516 0.91791403
vt 0.6650226 0.8783146
vt 0.6532788 0.87442315
vt 0.6676047 0.8315058
vt 0.62051916 0.89144826
vt 0.6435195 0.8639915
vt 0.6088984 0.86302304
vt 0.6372305 0.8486079
vt 0.605459 0.8297752
vt 0.63536894 0.8306143
vt 0.6107242 0.7967665
vt 0.6382185 0.8127501
vt 0.6238928 0.7690221
vt 0.64534533 0.797735
vt 0.64295983 0.7507658
vt 0.6556643 0.7878547
vt 0.6676047 0.7846136
vt 0.6650226 0.7447772
vt 0.70548147 0.010260582
vt 0.3846377 0.34970164
vt 0.70548147 0.3496722
vt 0.3846377 0.010290146
vt 0.36813176 0.34969342
vt 0.36813176 0.010281801
vt 0.21844727 0.7464748
vt 0.16600811 0.7464213
vt 0.1660081 0.8239539
vt 0.21844727 0.82400745
vt 0.70381737 0.86760753
vt 0.7040721 0.9212369
vt 0.7801217 0.90614027
vt 0.77986693 0.852511
vt 0.83563477 0.8375107
vt 0.8358895 0.89114
vt 0.77815384 0.73043007
vt 0.8358895 0.7301558
vt 0.7262589 0.3388927
vt 0.77952737 0.33810556
vt 0.77927125 0.2609496
vt 0.7260027 0.26173675
vt 0.7262589 0.20477176
vt 0.77952737 0.20398462
vt 0.36838645 0.7447772
vt 0.36813164 0.7984065
vt 0.4441812 0.813503
vt 0.44443595 0.75987375
vt 0.50020385 0.774874
vt 0.4999491 0.82850325
vt 0.50020385 0.93585825
vt 0.4424681 0.93558395
vt 0.23896858 0.8000512
vt 0.29208124 0.80005753
vt 0.29208124 0.74642766
vt 0.23896858 0.74642134
vt 0.80004877 0.2040466
vt 0.80004877 0.32613528
vt 0.8531614 0.3260733
vt 0.8531614 0.20398462
vt 0.14548677 0.7464514
vt 0.09237413 0.74642134
vt 0.09233883 0.8000512
vt 0.14545149 0.80008125
vt 0.14548677 0.9074343
vt 0.09237412 0.9074042
vt 0.296318 0.7228838
vt 0.010260701 0.7097019
vt 0.0116022825 0.72590005
vt 0.29497635 0.70668566
vt 0.31087756 0.7082052
vt 0.010260701 0.38788164
vt 0.31087756 0.38638496
vt 0.29497635 0.3848654
vt 0.3311044 0.364344
vt 0.34761035 0.3643334
vt 0.34761035 0.024921894
vt 0.3311044 0.024932623
vt 0.010260701 0.36430562
vt 0.33313018 0.010298967
vt 0.010260701 0.024894238
vt 0.012286425 0.010260582
vt 0.6832961 0.38484406
vt 0.6686748 0.7242557
vt 0.6832961 0.7242557
vt 0.6686748 0.38484406
vt 0.6686748 0.3702228
vt 0.3827529 0.3702228
vt 0.3827529 0.38484406
vt 0.3827529 0.7242557
vt 0.36813176 0.38484406
vt 0.36813176 0.7242557
vt 0.98973936 0.70963454
vt 0.70381737 0.70963454
vt 0.70381737 0.37022296
vt 0.98973936 0.37022296
vt 0.06962597 0.8771365
vt 0.06557655 0.91902435
vt 0.042858362 0.91885525
vt 0.039943337 0.8769155
vt 0.022049189 0.91986954
vt 0.07181752 0.8296576
vt 0.012754798 0.87824076
vt 0.039689302 0.8294184
vt 0.07181752 0.7838159
vt 0.010260701 0.83085287
vt 0.04213488 0.7835949
vt 0.06962597 0.7465904
vt 0.0149463415 0.78492016
vt 0.0469079 0.7464212
vt 0.026098609 0.7474355
vt 0.91855645 0.86345094
vt 0.9159745 0.90329266
vt 0.8939117 0.89730334
vt 0.9066161 0.8602095
vt 0.91855645 0.816557
vt 0.8748447 0.87904656
vt 0.8962971 0.85032904
vt 0.8616761 0.8513018
vt 0.8891703 0.8353137
vt 0.85641086 0.8182929
vt 0.8863208 0.8174494
vt 0.8598504 0.7850452
vt 0.8881823 0.7994559
vt 0.8714713 0.75662035
vt 0.8944714 0.78407246
vt 0.8895041 0.73734576
vt 0.9042307 0.7736411
vt 0.9159745 0.76974994
vt 0.91120374 0.7301558
vt 0.8594724 0.016852736
vt 0.8992054 0.035625577
vt 0.8992054 0.06372106
vt 0.8594724 0.05356133
vt 0.8126041 0.010260701
vt 0.8992054 0.09686196
vt 0.8126041 0.049993634
vt 0.76573586 0.016852736
vt 0.8594724 0.09686196
vt 0.8992054 0.13000286
vt 0.76573586 0.05356133
vt 0.7260028 0.035625577
vt 0.7260028 0.06372106
vt 0.8126041 0.09686196
vt 0.8594724 0.14016259
vt 0.8992054 0.15809834
vt 0.8594724 0.17687106
vt 0.76573586 0.09686196
vt 0.7260028 0.09686196
vt 0.8126041 0.14373028
vt 0.8126041 0.18346334
vt 0.76573586 0.14016259
vt 0.7260028 0.13000286
vt 0.76573586 0.17687106
vt 0.7260028 0.15809834
vt 0.52561295 0.7811021
vt 0.5354006 0.7465043
vt 0.5578139 0.7447771
vt 0.5548972 0.77884537
vt 0.58080566 0.7454821
vt 0.52072513 0.8255317
vt 0.5849376 0.7797665
vt 0.55242217 0.82308906
vt 0.52148116 0.87302923
vt 0.5849376 0.8240861
vt 0.5507654 0.8707725
vt 0.527766 0.9163635
vt 0.58080566 0.8716936
vt 0.5501791 0.91463625
vt 0.573171 0.91534126
vt 0.63855207 0.91072345
vt 0.6650226 0.8783146
vt 0.6602516 0.91791403
vt 0.6532788 0.87442315
vt 0.6676047 0.8315058
vt 0.62051916 0.89144826
vt 0.6435195 0.8639915
vt 0.6088984 0.86302304
vt 0.6372305 0.8486079
vt 0.605459 0.8297752
vt 0.63536894 0.8306143
vt 0.6107242 0.7967665
vt 0.6382185 0.8127501
vt 0.6238928 0.7690221
vt 0.64534533 0.797735
vt 0.64295983 0.7507658
vt 0.6556643 0.7878547
vt 0.6676047 0.7846136
vt 0.6650226 0.7447772
vt 0.70548147 0.010260582
vt 0.70548147 0.3496722
vt 0.3846377 0.34970164
vt 0.3846377 0.010290146
vt 0.36813176 0.34969342
vt 0.36813176 0.010281801
vt 0.21844727 0.7464748
vt 0.21844727 0.82400745
vt 0.1660081 0.8239539
vt 0.16600811 0.7464213
vt 0.70381737 0.86760753
vt 0.7801217 0.90614027
vt 0.7040721 0.9212369
vt 0.77986693 0.852511
vt 0.83563477 0.8375107
vt 0.8358895 0.89114
vt 0.77815384 0.73043007
vt 0.8358895 0.7301558
vt 0.7262589 0.3388927
vt 0.77927125 0.2609496
vt 0.77952737 0.33810556
vt 0.7260027 0.26173675
vt 0.7262589 0.20477176
vt 0.77952737 0.20398462
vt 0.36838645 0.7447772
vt 0.4441812 0.813503
vt 0.36813164 0.7984065
vt 0.44443595 0.75987375
vt 0.50020385 0.774874
vt 0.4999491 0.82850325
vt 0.50020385 0.93585825
vt 0.4424681 0.93558395
vt 0.23896858 0.8000512
vt 0.23896858 0.74642134
vt 0.29208124 0.74642766
vt 0.29208124 0.80005753
vt 0.80004877 0.2040466
vt 0.8531614 0.20398462
vt 0.8531614 0.3260733
vt 0.80004877 0.32613528
vt 0.14548677 0.7464514
vt 0.09233883 0.8000512
vt 0.09237413 0.74642134
vt 0.14545149 0.80008125
vt 0.14548677 0.9074343
vt 0.09237412 0.9074042
vt 0.296318 0.7228838
vt 0.0116022825 0.72590005
vt 0.010260701 0.7097019
vt 0.29497635 0.70668566
vt 0.31087756 0.7082052
vt 0.010260701 0.38788164
vt 0.31087756 0.38638496
vt 0.29497635 0.3848654
vt 0.3311044 0.364344
vt 0.34761035 0.024921894
vt 0.34761035 0.3643334
vt 0.3311044 0.024932623
vt 0.010260701 0.36430562
vt 0.33313018 0.010298967
vt 0.010260701 0.024894238
vt 0.012286425 0.010260582
vt 0.6832961 0.38484406
vt 0.6832961 0.7242557
vt 0.6686748 0.7242557
vt 0.6686748 0.38484406
vt 0.6686748 0.3702228
vt 0.3827529 0.3702228
vt 0.3827529 0.38484406
vt 0.3827529 0.7242557
vt 0.36813176 0.38484406
vt 0.36813176 0.7242557
vn 0.34158576 -0.8755788 -0.34158593
vn -0 -0.92387944 -0.38268355
vn -0 -0.9238798 0.38268268
vn 0.34158608 -0.87557906 0.341585
vn 0.8950644 -0.26695383 0.35720488
vn 0.6382537 -0.38616365 0.6659653
vn 0.70779705 -0.21110204 0.674136
vn 0.8061287 -0.47655284 0.35079044
vn 0.44429132 -0.65029615 0.61621445
vn 0.9582866 -0.28580904 0
vn 0.54202867 -0.78081495 0.31069762
vn 0.8624902 -0.5060738 0
vn 0.8950644 -0.26695356 -0.35720512
vn 0.5718997 -0.8203235 0
vn 0.8061287 -0.47655275 -0.3507906
vn 0.7077973 -0.21110179 -0.67413586
vn 0.54202855 -0.78081495 -0.31069764
vn 0.63825387 -0.3861637 -0.6659652
vn 0.44429132 -0.65029633 -0.6162143
vn 0.40941286 -0.12210826 -0.90414083
vn 0.63825387 -0.3861637 -0.6659652
vn 0.7077973 -0.21110179 -0.67413586
vn 0.36790478 -0.23284012 -0.90023977
vn -0 -0.21239987 -0.9771828
vn 0.44429132 -0.65029633 -0.6162143
vn 0.26307276 -0.40132102 -0.8773449
vn 0.22269246 -0.7875732 -0.57457507
vn 0.13513172 -0.4967177 -0.8573278
vn -0 -0.8290571 -0.5591639
vn -0 -0.52738494 -0.8496264
vn -0.22269279 -0.7875732 -0.5745748
vn -0.13513179 -0.49671772 -0.8573277
vn -0.4442916 -0.65029615 -0.6162141
vn -0.263073 -0.40132105 -0.87734485
vn -0.63825417 -0.38616335 -0.6659651
vn -0.36790502 -0.23283964 -0.90023977
vn -0.40941274 -0.12210742 -0.90414095
vn -0.7077974 -0.211101 -0.6741359
vn 0.54202867 -0.78081495 0.31069762
vn 0.22269239 -0.7875731 0.5745753
vn 0.44429132 -0.65029615 0.61621445
vn 0.26388407 -0.9230937 0.2797556
vn 0.5718997 -0.8203235 0
vn -0 -0.829057 0.55916417
vn 0.27547768 -0.9613074 0
vn 0.54202855 -0.78081495 -0.31069764
vn -0 -0.9631433 0.2689891
vn -0.22269271 -0.78757304 0.5745753
vn 0.26388407 -0.9230937 -0.2797557
vn 0.44429132 -0.65029633 -0.6162143
vn 0.22269246 -0.7875732 -0.57457507
vn -0 -1 0
vn -0.26388445 -0.92309356 0.27975568
vn -0.4442915 -0.650296 0.6162145
vn -0.5420292 -0.7808145 0.31069767
vn -0 -0.9631433 -0.2689891
vn -0 -0.8290571 -0.5591639
vn -0.27547795 -0.9613074 0
vn -0.57190055 -0.820323 0
vn -0.26388445 -0.92309356 -0.2797557
vn -0.22269279 -0.7875732 -0.5745748
vn -0.5420292 -0.7808146 -0.31069762
vn -0.4442916 -0.65029615 -0.6162141
vn -0.5420292 -0.7808145 0.31069767
vn -0.638254 -0.38616347 0.66596526
vn -0.4442915 -0.650296 0.6162145
vn -0.8061289 -0.47655243 0.35079053
vn -0.7077973 -0.21110141 0.6741359
vn -0.57190055 -0.820323 0
vn -0.8950643 -0.26695392 0.35720512
vn -0.86249036 -0.5060735 0
vn -0.5420292 -0.7808146 -0.31069762
vn -0.9582864 -0.28580981 0
vn -0.8061288 -0.47655234 -0.3507906
vn -0.4442916 -0.65029615 -0.6162141
vn -0.8950643 -0.2669536 -0.35720524
vn -0.63825417 -0.38616335 -0.6659651
vn -0.7077974 -0.211101 -0.6741359
vn -0.638254 -0.38616347 0.66596526
vn -0.7077973 -0.21110141 0.6741359
vn -0.40941268 -0.12210805 0.90414095
vn -0.3679047 -0.23283994 0.90023977
vn -0 -0.21240099 0.97718257
vn -0.4442915 -0.650296 0.6162145
vn -0.26307312 -0.40132114 0.87734485
vn -0.22269271 -0.78757304 0.5745753
vn -0.13513242 -0.4967179 0.8573275
vn -0 -0.829057 0.55916417
vn -0 -0.52738523 0.84962624
vn 0.22269239 -0.7875731 0.5745753
vn 0.13513209 -0.49671796 0.85732764
vn 0.44429132 -0.65029615 0.61621445
vn 0.2630732 -0.4013212 0.8773447
vn 0.6382537 -0.38616365 0.6659653
vn 0.3679049 -0.23284024 0.9002396
vn 0.40941277 -0.122108154 0.90414095
vn 0.70779705 -0.21110204 0.674136
vn 0.3415866 0.34158677 0.87557817
vn -0 -0.38268417 0.9238792
vn -0 0.38268417 0.9238792
vn 0.3415866 -0.34158677 0.87557817
vn -0 -0.9238798 0.38268268
vn 0.34158608 -0.87557906 0.341585
vn -0.5147047 -0.5880771 -0.6238944
vn -0.5147047 0.5880771 -0.6238944
vn -0.2975734 0.88253015 -0.36412987
vn -0.2975734 -0.88253015 -0.36412984
vn -0.5147047 0.5880771 -0.6238944
vn 0.6348896 0.5679562 -0.5237757
vn 0.69652176 0.6996677 0.15913057
vn -0.2975734 0.88253015 -0.36412987
vn 0.0025155938 0.7079093 0.7062989
vn 0.49177042 0.59214485 0.63837796
vn -0 0.70502377 -0.70918363
vn -0 0.705507 0.708703
vn 0.6348896 0.5679562 -0.5237757
vn 0.6348896 -0.5679562 -0.5237757
vn 0.69652176 -0.6996677 0.1591306
vn 0.69652176 0.6996677 0.15913057
vn 0.49177042 0.59214485 0.63837796
vn 0.49177036 -0.5921448 0.63837796
vn 0.6348896 -0.5679562 -0.5237757
vn -0.5147047 -0.5880771 -0.6238944
vn -0.2975734 -0.88253015 -0.36412984
vn 0.69652176 -0.6996677 0.1591306
vn 0.49177036 -0.5921448 0.63837796
vn 0.0025155938 -0.7079093 0.7062989
vn -0 -0.70550704 0.708703
vn -0 -0.70502377 -0.7091837
vn -0.5147047 0.5880771 -0.6238944
vn -0.5147047 -0.5880771 -0.6238944
vn 0.6348896 -0.5679562 -0.5237757
vn 0.6348896 0.5679562 -0.5237757
vn -0.2975734 0.88253015 -0.36412987
vn -0 0.70502377 -0.70918363
vn -0 -0.70502377 -0.7091837
vn -0.2975734 -0.88253015 -0.36412984
vn 0.49177042 0.59214485 0.63837796
vn 0.49177036 -0.5921448 0.63837796
vn 0.0025155938 -0.7079093 0.7062989
vn 0.0025155938 0.7079093 0.7062989
vn -0 0.705507 0.708703
vn -0 -0.70550704 0.708703
vn 0.34158608 -0.87557906 0.341585
vn 0.8755785 -0.3415863 -0.34158605
vn 0.34158576 -0.8755788 -0.34158593
vn 0.8755788 -0.34158632 0.34158516
vn 0.3415866 -0.34158677 0.87557817
vn 0.8755785 0.3415863 -0.34158605
vn 0.3415866 0.34158677 0.87557817
vn 0.8755788 0.34158632 0.34158516
vn -0 -0.3826833 -0.9238795
vn -0 -0.92387944 -0.38268355
vn 0.34158576 -0.8755788 -0.34158593
vn 0.34158573 -0.3415861 -0.8755787
vn -0 0.3826833 -0.9238795
vn 0.8755785 -0.3415863 -0.34158605
vn 0.34158573 0.3415861 -0.8755787
vn 0.8755785 0.3415863 -0.34158605
vn 0.34158573 0.3415861 -0.8755787
vn -0 0.92387944 -0.38268355
vn -0 0.3826833 -0.9238795
vn 0.34158576 0.8755788 -0.34158593
vn 0.8755785 0.3415863 -0.34158605
vn 0.8755788 0.34158632 0.34158516
vn 0.34158608 0.87557906 0.341585
vn -0 0.9238798 0.38268268
vn 0.3415866 0.34158677 0.87557817
vn -0 0.38268417 0.9238792
vn -0.34158576 -0.8755788 -0.34158593
vn -0.34158608 -0.87557906 0.341585
vn -0 -0.9238798 0.38268268
vn -0 -0.92387944 -0.38268355
vn -0.8950644 -0.26695386 0.357205
vn -0.707797 -0.21110205 0.6741361
vn -0.6382537 -0.38616368 0.6659654
vn -0.8061286 -0.4765529 0.35079047
vn -0.4442913 -0.6502961 0.6162145
vn -0.9582866 -0.28580904 0
vn -0.54202867 -0.78081495 0.31069773
vn -0.8624902 -0.5060738 0
vn -0.8950644 -0.2669536 -0.35720506
vn -0.5718997 -0.8203235 0
vn -0.8061287 -0.47655272 -0.35079056
vn -0.7077973 -0.21110179 -0.67413586
vn -0.54202855 -0.78081495 -0.3106977
vn -0.63825387 -0.3861637 -0.6659652
vn -0.44429123 -0.6502962 -0.6162142
vn -0.4094128 -0.12210825 -0.90414095
vn -0.7077973 -0.21110179 -0.67413586
vn -0.63825387 -0.3861637 -0.6659652
vn -0.36790478 -0.2328401 -0.9002397
vn -0 -0.21239987 -0.9771828
vn -0.44429123 -0.6502962 -0.6162142
vn -0.2630728 -0.40132102 -0.8773449
vn -0.22269249 -0.78757316 -0.574575
vn -0.13513175 -0.4967177 -0.8573278
vn -0 -0.82905704 -0.55916405
vn -0 -0.52738494 -0.8496264
vn 0.2226928 -0.78757316 -0.5745749
vn 0.13513178 -0.49671772 -0.8573277
vn 0.44429156 -0.65029615 -0.6162141
vn 0.263073 -0.40132105 -0.87734485
vn 0.63825405 -0.38616335 -0.6659652
vn 0.36790502 -0.23283964 -0.90023977
vn 0.40941274 -0.12210742 -0.90414095
vn 0.70779747 -0.21110103 -0.6741359
vn -0.54202867 -0.78081495 0.31069773
vn -0.4442913 -0.6502961 0.6162145
vn -0.22269243 -0.7875731 0.5745753
vn -0.26388404 -0.9230937 0.27975565
vn -0.5718997 -0.8203235 0
vn -0 -0.829057 0.55916417
vn -0.27547768 -0.9613074 0
vn -0.54202855 -0.78081495 -0.3106977
vn -0 -0.9631433 0.26898903
vn 0.2226927 -0.78757304 0.5745753
vn -0.26388404 -0.9230937 -0.27975574
vn -0.44429123 -0.6502962 -0.6162142
vn -0.22269249 -0.78757316 -0.574575
vn -0 -1 0
vn 0.26388445 -0.92309356 0.27975565
vn 0.44429147 -0.650296 0.61621445
vn 0.5420292 -0.7808145 0.31069762
vn -0 -0.9631433 -0.26898915
vn -0 -0.82905704 -0.55916405
vn 0.27547798 -0.9613074 0
vn 0.57190055 -0.820323 0
vn 0.26388448 -0.92309356 -0.27975574
vn 0.2226928 -0.78757316 -0.5745749
vn 0.54202914 -0.7808146 -0.31069764
vn 0.44429156 -0.65029615 -0.6162141
vn 0.5420292 -0.7808145 0.31069762
vn 0.44429147 -0.650296 0.61621445
vn 0.638254 -0.38616344 0.6659653
vn 0.8061289 -0.47655243 0.35079053
vn 0.7077972 -0.21110138 0.674136
vn 0.57190055 -0.820323 0
vn 0.8950643 -0.26695392 0.35720512
vn 0.86249036 -0.5060735 0
vn 0.54202914 -0.7808146 -0.31069764
vn 0.9582864 -0.2858098 0
vn 0.8061288 -0.47655234 -0.35079062
vn 0.44429156 -0.65029615 -0.6162141
vn 0.8950644 -0.26695362 -0.3572052
vn 0.63825405 -0.38616335 -0.6659652
vn 0.70779747 -0.21110103 -0.6741359
vn 0.638254 -0.38616344 0.6659653
vn 0.40941262 -0.122108035 0.90414095
vn 0.7077972 -0.21110138 0.674136
vn 0.36790475 -0.23283996 0.90023977
vn -0 -0.21240099 0.97718257
vn 0.44429147 -0.650296 0.61621445
vn 0.26307312 -0.40132114 0.8773447
vn 0.2226927 -0.78757304 0.5745753
vn 0.13513243 -0.4967179 0.8573275
vn -0 -0.829057 0.55916417
vn -0 -0.52738523 0.84962624
vn -0.22269243 -0.7875731 0.5745753
vn -0.13513213 -0.4967179 0.8573275
vn -0.4442913 -0.6502961 0.6162145
vn -0.26307324 -0.4013212 0.8773447
vn -0.6382537 -0.38616368 0.6659654
vn -0.36790493 -0.23284024 0.9002396
vn -0.40941283 -0.12210817 0.90414083
vn -0.707797 -0.21110205 0.6741361
vn -0.3415866 0.34158677 0.87557817
vn -0 0.38268417 0.9238792
vn -0 -0.38268417 0.9238792
vn -0.3415866 -0.34158677 0.87557817
vn -0 -0.9238798 0.38268268
vn -0.34158608 -0.87557906 0.341585
vn 0.5147047 -0.5880771 -0.6238944
vn 0.2975734 -0.88253015 -0.36412987
vn 0.2975734 0.88253015 -0.36412987
vn 0.5147047 0.5880771 -0.6238944
vn 0.5147047 0.5880771 -0.6238944
vn -0.69652176 0.6996677 0.15913057
vn -0.6348896 0.5679562 -0.5237757
vn 0.2975734 0.88253015 -0.36412987
vn -0.0025155938 0.7079093 0.7062989
vn -0.49177042 0.59214485 0.63837796
vn -0 0.70502377 -0.70918363
vn -0 0.705507 0.708703
vn -0.6348896 0.5679562 -0.5237757
vn -0.69652176 -0.6996677 0.15913057
vn -0.6348896 -0.5679562 -0.5237757
vn -0.69652176 0.6996677 0.15913057
vn -0.49177042 0.59214485 0.63837796
vn -0.49177042 -0.59214485 0.63837796
vn -0.6348896 -0.5679562 -0.5237757
vn 0.2975734 -0.88253015 -0.36412987
vn 0.5147047 -0.5880771 -0.6238944
vn -0.69652176 -0.6996677 0.15913057
vn -0.49177042 -0.59214485 0.63837796
vn -0.0025155938 -0.7079093 0.7062989
vn -0 -0.70550704 0.708703
vn -0 -0.70502377 -0.7091837
vn 0.5147047 0.5880771 -0.6238944
vn -0.6348896 0.5679562 -0.5237757
vn -0.6348896 -0.5679562 -0.5237757
vn 0.5147047 -0.5880771 -0.6238944
vn 0.2975734 0.88253015 -0.36412987
vn 0.2975734 -0.88253015 -0.36412987
vn -0 -0.70502377 -0.7091837
vn -0 0.70502377 -0.70918363
vn -0.49177042 0.59214485 0.63837796
vn -0.0025155938 -0.7079093 0.7062989
vn -0.49177042 -0.59214485 0.63837796
vn -0.0025155938 0.7079093 0.7062989
vn -0 0.705507 0.708703
vn -0 -0.70550704 0.708703
vn -0.34158608 -0.87557906 0.341585
vn -0.34158576 -0.8755788 -0.34158593
vn -0.8755785 -0.3415863 -0.34158605
vn -0.8755788 -0.34158632 0.34158516
vn -0.3415866 -0.34158677 0.87557817
vn -0.8755785 0.3415863 -0.34158605
vn -0.3415866 0.34158677 0.87557817
vn -0.8755788 0.34158632 0.34158516
vn -0 -0.3826833 -0.9238795
vn -0.34158576 -0.8755788 -0.34158593
vn -0 -0.92387944 -0.38268355
vn -0.34158573 -0.3415861 -0.8755787
vn -0 0.3826833 -0.9238795
vn -0.8755785 -0.3415863 -0.34158605
vn -0.34158573 0.3415861 -0.8755787
vn -0.8755785 0.3415863 -0.34158605
vn -0.34158573 0.3415861 -0.8755787
vn -0 0.3826833 -0.9238795
vn -0 0.92387944 -0.38268355
vn -0.34158576 0.8755788 -0.34158593
vn -0.8755785 0.3415863 -0.34158605
vn -0.8755788 0.34158632 0.34158516
vn -0.34158608 0.87557906 0.341585
vn -0 0.9238798 0.38268268
vn -0.3415866 0.34158677 0.87557817
vn -0 0.38268417 0.9238792
g Boombox_0
f 3/3/3 2/2/2 1/1/1
f 4/4/4 3/3/3 1/1/1
f 7/7/7 6/6/6 5/5/5
f 6/6/6 8/8/8 5/5/5
f 6/6/6 9/9/9 8/8/8
f 5/5/5 8/8/8 10/10/10
f 9/9/9 11/11/11 8/8/8
f 8/8/8 12/12/12 10/10/10
f 8/8/8 11/11/11 12/12/12
f 10/10/10 12/12/12 13/13/13
f 11/11/11 14/14/14 12/12/12
f 12/12/12 15/15/15 13/13/13
f 12/12/12 14/14/14 15/15/15
f 13/13/13 15/15/15 16/16/16
f 14/14/14 17/17/17 15/15/15
f 15/15/15 18/18/18 16/16/16
f 15/15/15 17/17/17 18/18/18
f 17/17/17 19/19/19 18/18/18
f 22/22/22 21/21/21 20/20/20
f 21/21/21 23/23/23 20/20/20
f 20/20/20 23/23/23 24/24/24
f 21/21/21 25/25/25 23/23/23
f 25/25/25 26/26/26 23/23/23
f 23/23/23 26/26/26 24/24/24
f 25/25/25 27/27/27 26/26/26
f 27/27/27 28/28/28 26/26/26
f 26/26/26 28/28/28 24/24/24
f 27/27/27 29/29/29 28/28/28
f 29/29/29 30/30/30 28/28/28
f 28/28/28 30/30/30 24/24/24
f 29/29/29 31/31/31 30/30/30
f 31/31/31 32/32/32 30/30/30
f 30/30/30 32/32/32 24/24/24
f 31/31/31 33/33/33 32/32/32
f 33/33/33 34/34/34 32/32/32
f 32/32/32 34/34/34 24/24/24
f 33/33/33 35/35/35 34/34/34
f 34/34/34 36/36/36 24/24/24
f 35/35/35 36/36/36 34/34/34
f 36/36/36 37/37/37 24/24/24
f 35/35/35 38/38/38 36/36/36
f 38/38/38 37/37/37 36/36/36
f 41/41/41 40/40/40 39/39/39
f 40/40/40 42/42/42 39/39/39
f 39/39/39 42/42/42 43/43/43
f 40/40/40 44/44/44 42/42/42
f 42/42/42 45/45/45 43/43/43
f 43/43/43 45/45/45 46/46/46
f 44/44/44 47/47/47 42/42/42
f 42/42/42 47/47/47 45/45/45
f 44/44/44 48/48/48 47/47/47
f 45/45/45 49/49/49 46/46/46
f 46/46/46 49/49/49 50/50/50
f 49/49/49 51/51/51 50/50/50
f 47/47/47 52/52/52 45/45/45
f 45/45/45 52/52/52 49/49/49
f 48/48/48 53/53/53 47/47/47
f 47/47/47 53/53/53 52/52/52
f 48/48/48 54/54/54 53/53/53
f 54/54/54 55/55/55 53/53/53
f 49/49/49 56/56/56 51/51/51
f 52/52/52 56/56/56 49/49/49
f 56/56/56 57/57/57 51/51/51
f 53/53/53 58/58/58 52/52/52
f 53/53/53 55/55/55 58/58/58
f 52/52/52 58/58/58 56/56/56
f 55/55/55 59/59/59 58/58/58
f 56/56/56 60/60/60 57/57/57
f 58/58/58 60/60/60 56/56/56
f 58/58/58 59/59/59 60/60/60
f 60/60/60 61/61/61 57/57/57
f 59/59/59 62/62/62 60/60/60
f 60/60/60 62/62/62 61/61/61
f 62/62/62 63/63/63 61/61/61
f 66/66/66 65/65/65 64/64/64
f 65/65/65 67/67/67 64/64/64
f 65/65/65 68/68/68 67/67/67
f 64/64/64 67/67/67 69/69/69
f 68/68/68 70/70/70 67/67/67
f 67/67/67 71/71/71 69/69/69
f 67/67/67 70/70/70 71/71/71
f 69/69/69 71/71/71 72/72/72
f 70/70/70 73/73/73 71/71/71
f 71/71/71 74/74/74 72/72/72
f 71/71/71 73/73/73 74/74/74
f 72/72/72 74/74/74 75/75/75
f 73/73/73 76/76/76 74/74/74
f 74/74/74 77/77/77 75/75/75
f 74/74/74 76/76/76 77/77/77
f 76/76/76 78/78/78 77/77/77
f 81/81/81 80/80/80 79/79/79
f 82/82/82 81/81/81 79/79/79
f 83/83/83 81/81/81 82/82/82
f 82/82/82 79/79/79 84/84/84
f 85/85/85 82/82/82 84/84/84
f 83/83/83 82/82/82 85/85/85
f 85/85/85 84/84/84 86/86/86
f 87/87/87 85/85/85 86/86/86
f 83/83/83 85/85/85 87/87/87
f 87/87/87 86/86/86 88/88/88
f 89/89/89 87/87/87 88/88/88
f 83/83/83 87/87/87 89/89/89
f 89/89/89 88/88/88 90/90/90
f 91/91/91 89/89/89 90/90/90
f 83/83/83 89/89/89 91/91/91
f 91/91/91 90/90/90 92/92/92
f 93/93/93 91/91/91 92/92/92
f 83/83/83 91/91/91 93/93/93
f 93/93/93 92/92/92 94/94/94
f 83/83/83 93/93/93 95/95/95
f 95/95/95 93/93/93 94/94/94
f 83/83/83 95/95/95 96/96/96
f 95/95/95 94/94/94 97/97/97
f 96/96/96 95/95/95 97/97/97
f 100/100/100 99/99/99 98/98/98
f 99/99/99 101/101/101 98/98/98
f 99/99/99 102/102/102 101/101/101
f 102/102/102 103/103/103 101/101/101
f 106/106/106 105/105/105 104/104/104
f 107/107/107 106/106/106 104/104/104
f 110/110/110 109/109/109 108/108/108
f 111/111/111 110/110/110 108/108/108
f 111/111/111 112/112/112 110/110/110
f 112/112/112 113/113/113 110/110/110
f 111/111/111 114/114/114 112/112/112
f 114/114/114 115/115/115 112/112/112
f 118/118/118 117/117/117 116/116/116
f 119/119/119 118/118/118 116/116/116
f 119/119/119 120/120/120 118/118/118
f 120/120/120 121/121/121 118/118/118
f 124/124/124 123/123/123 122/122/122
f 125/125/125 124/124/124 122/122/122
f 125/125/125 126/126/126 124/124/124
f 126/126/126 127/127/127 124/124/124
f 127/127/127 128/128/128 124/124/124
f 128/128/128 129/129/129 124/124/124
f 132/132/132 131/131/131 130/130/130
f 133/133/133 132/132/132 130/130/130
f 136/136/136 135/135/135 134/134/134
f 137/137/137 136/136/136 134/134/134
f 140/140/140 139/139/139 138/138/138
f 141/141/141 140/140/140 138/138/138
f 141/141/141 142/142/142 140/140/140
f 142/142/142 143/143/143 140/140/140
f 146/146/146 145/145/145 144/144/144
f 145/145/145 147/147/147 144/144/144
f 144/144/144 147/147/147 148/148/148
f 147/147/147 145/145/145 149/149/149
f 148/148/148 147/147/147 150/150/150
f 151/151/151 147/147/147 149/149/149
f 147/147/147 151/151/151 150/150/150
f 154/154/154 153/153/153 152/152/152
f 155/155/155 154/154/154 152/152/152
f 155/155/155 152/152/152 156/156/156
f 157/157/157 154/154/154 155/155/155
f 158/158/158 155/155/155 156/156/156
f 159/159/159 157/157/157 155/155/155
f 158/158/158 159/159/159 155/155/155
f 162/162/162 161/161/161 160/160/160
f 161/161/161 163/163/163 160/160/160
f 164/164/164 160/160/160 163/163/163
f 164/164/164 163/163/163 165/165/165
f 166/166/166 163/163/163 161/161/161
f 163/163/163 166/166/166 165/165/165
f 167/167/167 166/166/166 161/161/161
f 165/165/165 166/166/166 168/168/168
f 166/166/166 167/167/167 169/169/169
f 168/168/168 166/166/166 169/169/169
f 172/172/172 171/171/171 170/170/170
f 173/173/173 172/172/172 170/170/170
f 176/176/176 175/175/175 174/174/174
f 177/177/177 176/176/176 174/174/174
f 178/178/178 176/176/176 177/177/177
f 177/177/177 174/174/174 179/179/179
f 180/180/180 178/178/178 177/177/177
f 181/181/181 177/177/177 179/179/179
f 180/180/180 177/177/177 181/181/181
f 181/181/181 179/179/179 182/182/182
f 183/183/183 180/180/180 181/181/181
f 184/184/184 181/181/181 182/182/182
f 183/183/183 181/181/181 184/184/184
f 184/184/184 182/182/182 185/185/185
f 186/186/186 183/183/183 184/184/184
f 187/187/187 184/184/184 185/185/185
f 186/186/186 184/184/184 187/187/187
f 188/188/188 186/186/186 187/187/187
f 191/191/191 190/190/190 189/189/189
f 192/192/192 191/191/191 189/189/189
f 192/192/192 189/189/189 193/193/193
f 194/194/194 191/191/191 192/192/192
f 195/195/195 194/194/194 192/192/192
f 195/195/195 192/192/192 193/193/193
f 196/196/196 194/194/194 195/195/195
f 197/197/197 196/196/196 195/195/195
f 197/197/197 195/195/195 193/193/193
f 198/198/198 196/196/196 197/197/197
f 199/199/199 198/198/198 197/197/197
f 199/199/199 197/197/197 193/193/193
f 200/200/200 198/198/198 199/199/199
f 201/201/201 200/200/200 199/199/199
f 201/201/201 199/199/199 193/193/193
f 202/202/202 200/200/200 201/201/201
f 203/203/203 202/202/202 201/201/201
f 203/203/203 201/201/201 193/193/193
f 204/204/204 202/202/202 203/203/203
f 205/205/205 203/203/203 193/193/193
f 205/205/205 204/204/204 203/203/203
f 206/206/206 205/205/205 193/193/193
f 207/207/207 204/204/204 205/205/205
f 206/206/206 207/207/207 205/205/205
f 210/210/210 209/209/209 208/208/208
f 211/211/211 210/210/210 208/208/208
f 211/211/211 208/208/208 212/212/212
f 213/213/213 210/210/210 211/211/211
f 214/214/214 211/211/211 212/212/212
f 214/214/214 212/212/212 215/215/215
f 216/216/216 213/213/213 211/211/211
f 216/216/216 211/211/211 214/214/214
f 217/217/217 213/213/213 216/216/216
f 218/218/218 214/214/214 215/215/215
f 218/218/218 215/215/215 219/219/219
f 220/220/220 218/218/218 219/219/219
f 221/221/221 216/216/216 214/214/214
f 221/221/221 214/214/214 218/218/218
f 222/222/222 217/217/217 216/216/216
f 222/222/222 216/216/216 221/221/221
f 223/223/223 217/217/217 222/222/222
f 224/224/224 223/223/223 222/222/222
f 225/225/225 218/218/218 220/220/220
f 225/225/225 221/221/221 218/218/218
f 226/226/226 225/225/225 220/220/220
f 227/227/227 222/222/222 221/221/221
f 224/224/224 222/222/222 227/227/227
f 227/227/227 221/221/221 225/225/225
f 228/228/228 224/224/224 227/227/227
f 229/229/229 225/225/225 226/226/226
f 229/229/229 227/227/227 225/225/225
f 228/228/228 227/227/227 229/229/229
f 230/230/230 229/229/229 226/226/226
f 231/231/231 228/228/228 229/229/229
f 231/231/231 229/229/229 230/230/230
f 232/232/232 231/231/231 230/230/230
f 235/235/235 234/234/234 233/233/233
f 236/236/236 235/235/235 233/233/233
f 237/237/237 235/235/235 236/236/236
f 236/236/236 233/233/233 238/238/238
f 239/239/239 237/237/237 236/236/236
f 240/240/240 236/236/236 238/238/238
f 239/239/239 236/236/236 240/240/240
f 240/240/240 238/238/238 241/241/241
f 242/242/242 239/239/239 240/240/240
f 243/243/243 240/240/240 241/241/241
f 242/242/242 240/240/240 243/243/243
f 243/243/243 241/241/241 244/244/244
f 245/245/245 242/242/242 243/243/243
f 246/246/246 243/243/243 244/244/244
f 245/245/245 243/243/243 246/246/246
f 247/247/247 245/245/245 246/246/246
f 250/250/250 249/249/249 248/248/248
f 249/249/249 251/251/251 248/248/248
f 249/249/249 252/252/252 251/251/251
f 248/248/248 251/251/251 253/253/253
f 251/251/251 254/254/254 253/253/253
f 251/251/251 252/252/252 254/254/254
f 253/253/253 254/254/254 255/255/255
f 254/254/254 256/256/256 255/255/255
f 254/254/254 252/252/252 256/256/256
f 255/255/255 256/256/256 257/257/257
f 256/256/256 258/258/258 257/257/257
f 256/256/256 252/252/252 258/258/258
f 257/257/257 258/258/258 259/259/259
f 258/258/258 260/260/260 259/259/259
f 258/258/258 252/252/252 260/260/260
f 259/259/259 260/260/260 261/261/261
f 260/260/260 262/262/262 261/261/261
f 260/260/260 252/252/252 262/262/262
f 261/261/261 262/262/262 263/263/263
f 262/262/262 252/252/252 264/264/264
f 262/262/262 264/264/264 263/263/263
f 264/264/264 252/252/252 265/265/265
f 263/263/263 264/264/264 266/266/266
f 264/264/264 265/265/265 266/266/266
f 269/269/269 268/268/268 267/267/267
f 270/270/270 269/269/269 267/267/267
f 271/271/271 269/269/269 270/270/270
f 272/272/272 271/271/271 270/270/270
f 275/275/275 274/274/274 273/273/273
f 276/276/276 275/275/275 273/273/273
f 279/279/279 278/278/278 277/277/277
f 278/278/278 280/280/280 277/277/277
f 281/281/281 280/280/280 278/278/278
f 282/282/282 281/281/281 278/278/278
f 283/283/283 280/280/280 281/281/281
f 284/284/284 283/283/283 281/281/281
f 287/287/287 286/286/286 285/285/285
f 286/286/286 288/288/288 285/285/285
f 289/289/289 288/288/288 286/286/286
f 290/290/290 289/289/289 286/286/286
f 293/293/293 292/292/292 291/291/291
f 292/292/292 294/294/294 291/291/291
f 295/295/295 294/294/294 292/292/292
f 296/296/296 295/295/295 292/292/292
f 297/297/297 296/296/296 292/292/292
f 298/298/298 297/297/297 292/292/292
f 301/301/301 300/300/300 299/299/299
f 302/302/302 301/301/301 299/299/299
f 305/305/305 304/304/304 303/303/303
f 306/306/306 305/305/305 303/303/303
f 309/309/309 308/308/308 307/307/307
f 308/308/308 310/310/310 307/307/307
f 311/311/311 310/310/310 308/308/308
f 312/312/312 311/311/311 308/308/308
f 315/315/315 314/314/314 313/313/313
f 316/316/316 315/315/315 313/313/313
f 316/316/316 313/313/313 317/317/317
f 315/315/315 316/316/316 318/318/318
f 316/316/316 317/317/317 319/319/319
f 316/316/316 320/320/320 318/318/318
f 320/320/320 316/316/316 319/319/319
f 323/323/323 322/322/322 321/321/321
f 322/322/322 324/324/324 321/321/321
f 321/321/321 324/324/324 325/325/325
f 322/322/322 326/326/326 324/324/324
f 324/324/324 327/327/327 325/325/325
f 326/326/326 328/328/328 324/324/324
f 328/328/328 327/327/327 324/324/324
f 331/331/331 330/330/330 329/329/329
f 332/332/332 331/331/331 329/329/329
f 329/329/329 333/333/333 332/332/332
f 332/332/332 333/333/333 334/334/334
f 332/332/332 335/335/335 331/331/331
f 335/335/335 332/332/332 334/334/334
f 335/335/335 336/336/336 331/331/331
f 335/335/335 334/334/334 337/337/337
f 336/336/336 335/335/335 338/338/338
f 335/335/335 337/337/337 338/338/338
