g Bush
v -0.028381832 0.8037978 0.61093396
v 0.022416007 0.7158133 0.61093396
v -0.028381828 0.76867664 1.0363165
v 0.022416007 0.7158133 0.61093396
v -0.07917967 0.71581334 0.61093396
v -0.028381828 0.76867664 1.0363165
v -0.07917967 0.71581334 0.61093396
v -0.028381832 0.8037978 0.61093396
v -0.028381828 0.76867664 1.0363165
v -0.028381828 0.5927419 -0.019859415
v -0.17948082 0.3310308 -0.019859415
v 0.122717164 0.33103073 -0.019859415
v 0.5987146 -0.059704702 0.43892807
v 0.5260618 -0.07526938 0.43892807
v 0.57427347 -0.051806636 0.75002897
v 0.5260618 -0.07526938 0.43892807
v 0.5489088 -0.0045678616 0.43892807
v 0.57427347 -0.051806636 0.75002897
v 0.5489088 -0.0045678616 0.43892807
v 0.5987146 -0.059704702 0.43892807
v 0.57427347 -0.051806636 0.75002897
v 0.45183858 -0.012242132 -0.022398662
v 0.30369034 0.15176333 -0.022398662
v 0.23573157 -0.05853951 -0.022398662
v -0.6845708 0.017883781 0.5611749
v -0.5979979 0.051276747 0.5611749
v -0.65288067 0.012917095 0.94968754
v -0.5979979 0.051276747 0.5611749
v -0.61236525 -0.040394075 0.5611749
v -0.65288067 0.012917095 0.94968754
v -0.61236525 -0.040394075 0.5611749
v -0.6845708 0.017883781 0.5611749
v -0.65288067 0.012917095 0.94968754
v -0.49413294 -0.011962993 -0.01494453
v -0.27935615 -0.18531151 -0.01494453
v -0.23662037 0.087364934 -0.01494453
v -0.0067442004 -0.39085293 0.80624306
v 0.02775643 -0.4494174 0.8181206
v -0.0067441976 -0.31397998 1.192994
v 0.02775643 -0.4494174 0.8181206
v -0.04124483 -0.4494174 0.8181206
v -0.0067441976 -0.31397998 1.192994
v -0.04124483 -0.4494174 0.8181206
v -0.0067442004 -0.39085293 0.80624306
v -0.0067441976 -0.31397998 1.192994
v -0.0067441976 -0.20614661 -0.015568965
v -0.14474672 -0.44517398 -0.015568965
v 0.13125832 -0.44517398 -0.015568965
v -0.46866232 0.3266732 0.77461624
v -0.4165205 0.37027743 0.78649384
v -0.5445026 0.31411532 1.1613673
v -0.4165205 0.37027743 0.78649384
v -0.40524855 0.30220306 0.78649384
v -0.5445026 0.31411532 1.1613673
v -0.40524855 0.30220306 0.78649384
v -0.46866232 0.3266732 0.77461624
v -0.5445026 0.31411532 1.1613673
v -0.65088737 0.2964998 -0.047195774
v -0.39252704 0.19939834 -0.047195774
v -0.43761495 0.4716957 -0.047195774
v -0.31293285 -0.23937555 0.6161273
v -0.24780059 -0.31696615 0.6161273
v -0.30684483 -0.27386254 1.0402887
v -0.24780059 -0.31696615 0.6161273
v -0.34756213 -0.33457693 0.6161273
v -0.30684483 -0.27386254 1.0402887
v -0.34756213 -0.33457693 0.6161273
v -0.31293285 -0.23937555 0.6161273
v -0.30684483 -0.27386254 1.0402887
v -0.27634785 -0.44662106 -0.0128550725
v -0.37935326 -0.72979933 -0.0128550725
v -0.08261098 -0.6774155 -0.0128550725
v -0.01132733 0.07998867 0.49354765
v -0.011327332 0.25160646 1.1637026
v -0.08340677 -0.043090526 0.5144725
v -0.011327329 0.10468265 -0.029717743
v -0.14932986 -0.1343448 -0.029717743
v 0.12667519 -0.1343448 -0.029717743
v -0.08340677 -0.043090526 0.5144725
v -0.011327332 0.25160646 1.1637026
v 0.06075209 -0.043090526 0.5144725
v 0.06075209 -0.043090526 0.5144725
v -0.011327332 0.25160646 1.1637026
v -0.01132733 0.07998867 0.49354765
v -0.47548392 -0.40258953 0.49354765
v -0.3058612 -0.42868203 1.1637026
v -0.5861735 -0.31263527 0.5144725
v -0.451077 -0.40634394 -0.02971775
v -0.6663439 -0.23360439 -0.02971775
v -0.70830745 -0.50640076 -0.02971775
v -0.5861735 -0.31263527 0.5144725
v -0.3058612 -0.42868203 1.1637026
v -0.6080911 -0.45511824 0.5144725
v -0.6080911 -0.45511824 0.5144725
v -0.3058612 -0.42868203 1.1637026
v -0.47548392 -0.40258953 0.49354765
v 0.3670405 -0.48895627 0.34240663
v 0.4539419 -0.4000118 0.82798517
v 0.26736066 -0.51624596 0.3575683
v 0.37954468 -0.47615808 -0.03673918
v 0.18698661 -0.53015906 -0.03673918
v 0.33003184 -0.6699188 -0.03673918
v 0.26736066 -0.51624596 0.3575683
v 0.4539419 -0.4000118 0.82798517
v 0.34207395 -0.5892432 0.3575683
v 0.34207395 -0.5892432 0.3575683
v 0.4539419 -0.4000118 0.82798517
v 0.3670405 -0.48895627 0.34240663
v -0.17948082 0.3310308 -0.019859415
v -0.028381828 0.5927419 -0.019859415
v -0.028381828 0.73233294 0.231099
v -0.12954599 0.5571115 0.23109895
v -0.12954599 0.5571115 0.23109895
v -0.028381828 0.73233294 0.231099
v -0.028381832 0.8037978 0.61093396
v -0.07917967 0.71581334 0.61093396
v 0.122717164 0.33103073 -0.019859415
v -0.17948082 0.3310308 -0.019859415
v -0.12954599 0.5571115 0.23109895
v 0.07278233 0.5571115 0.23109895
v 0.07278233 0.5571115 0.23109895
v -0.12954599 0.5571115 0.23109895
v -0.07917967 0.71581334 0.61093396
v 0.022416007 0.7158133 0.61093396
v -0.028381828 0.5927419 -0.019859415
v 0.122717164 0.33103073 -0.019859415
v 0.07278233 0.5571115 0.23109895
v -0.028381828 0.73233294 0.231099
v -0.028381828 0.73233294 0.231099
v 0.07278233 0.5571115 0.23109895
v 0.022416007 0.7158133 0.61093396
v -0.028381832 0.8037978 0.61093396
v 0.30369034 0.15176333 -0.022398662
v 0.45183858 -0.012242132 -0.022398662
v 0.54898155 -0.043633584 0.16113818
v 0.44979295 0.06617173 0.16113815
v 0.44979295 0.06617173 0.16113815
v 0.54898155 -0.043633584 0.16113818
v 0.5987146 -0.059704702 0.43892807
v 0.5489088 -0.0045678616 0.43892807
v 0.23573157 -0.05853951 -0.022398662
v 0.30369034 0.15176333 -0.022398662
v 0.44979295 0.06617173 0.16113815
v 0.40429306 -0.074630745 0.16113815
v 0.40429306 -0.074630745 0.16113815
v 0.44979295 0.06617173 0.16113815
v 0.5489088 -0.0045678616 0.43892807
v 0.5260618 -0.07526938 0.43892807
v 0.45183858 -0.012242132 -0.022398662
v 0.23573157 -0.05853951 -0.022398662
v 0.40429306 -0.074630745 0.16113815
v 0.54898155 -0.043633584 0.16113818
v 0.54898155 -0.043633584 0.16113818
v 0.40429306 -0.074630745 0.16113815
v 0.5260618 -0.07526938 0.43892807
v 0.5987146 -0.059704702 0.43892807
v -0.27935615 -0.18531151 -0.01494453
v -0.49413294 -0.011962993 -0.01494453
v -0.62008744 0.0077774865 0.21426211
v -0.47628954 -0.108283184 0.21426207
v -0.47628954 -0.108283184 0.21426207
v -0.62008744 0.0077774865 0.21426211
v -0.6845708 0.017883781 0.5611749
v -0.61236525 -0.040394075 0.5611749
v -0.23662037 0.087364934 -0.01494453
v -0.27935615 -0.18531151 -0.01494453
v -0.47628954 -0.108283184 0.21426207
v -0.44767696 0.07427978 0.21426207
v -0.44767696 0.07427978 0.21426207
v -0.47628954 -0.108283184 0.21426207
v -0.61236525 -0.040394075 0.5611749
v -0.5979979 0.051276747 0.5611749
v -0.49413294 -0.011962993 -0.01494453
v -0.23662037 0.087364934 -0.01494453
v -0.44767696 0.07427978 0.21426207
v -0.62008744 0.0077774865 0.21426211
v -0.62008744 0.0077774865 0.21426211
v -0.44767696 0.07427978 0.21426207
v -0.5979979 0.051276747 0.5611749
v -0.6845708 0.017883781 0.5611749
v -0.14474672 -0.44517398 -0.015568965
v -0.0067441976 -0.20614661 -0.015568965
v -0.0067441985 -0.17437802 0.28462622
v -0.1102461 -0.3398734 0.21571182
v -0.1102461 -0.3398734 0.21571182
v -0.0067441985 -0.17437802 0.28462622
v -0.0067442 -0.30331925 0.53361857
v -0.07574546 -0.41063812 0.4810243
v -0.07574546 -0.41063812 0.4810243
v -0.0067442 -0.30331925 0.53361857
v -0.0067442004 -0.39085293 0.80624306
v -0.04124483 -0.4494174 0.8181206
v 0.13125832 -0.44517398 -0.015568965
v -0.14474672 -0.44517398 -0.015568965
v -0.1102461 -0.3398734 0.21571182
v 0.09675769 -0.3398734 0.21571182
v 0.09675769 -0.3398734 0.21571182
v -0.1102461 -0.3398734 0.21571182
v -0.07574546 -0.41063812 0.4810243
v 0.06225706 -0.41063812 0.4810243
v 0.06225706 -0.41063812 0.4810243
v -0.07574546 -0.41063812 0.4810243
v -0.04124483 -0.4494174 0.8181206
v 0.02775643 -0.4494174 0.8181206
v -0.0067441976 -0.20614661 -0.015568965
v 0.13125832 -0.44517398 -0.015568965
v 0.09675769 -0.3398734 0.21571182
v -0.0067441985 -0.17437802 0.28462622
v -0.0067441985 -0.17437802 0.28462622
v 0.09675769 -0.3398734 0.21571182
v 0.06225706 -0.41063812 0.4810243
v -0.0067442 -0.30331925 0.53361857
v -0.0067442 -0.30331925 0.53361857
v 0.06225706 -0.41063812 0.4810243
v 0.02775643 -0.4494174 0.8181206
v -0.0067442004 -0.39085293 0.80624306
v -0.39252704 0.19939834 -0.047195774
v -0.65088737 0.2964998 -0.047195774
v -0.6822293 0.2913101 0.25299942
v -0.50204915 0.21623375 0.18408503
v -0.50204915 0.21623375 0.18408503
v -0.6822293 0.2913101 0.25299942
v -0.55502015 0.31237382 0.50199175
v -0.43787095 0.26183096 0.44939747
v -0.43787095 0.26183096 0.44939747
v -0.55502015 0.31237382 0.50199175
v -0.46866232 0.3266732 0.77461624
v -0.40524855 0.30220306 0.78649384
v -0.43761495 0.4716957 -0.047195774
v -0.39252704 0.19939834 -0.047195774
v -0.50204915 0.21623375 0.18408503
v -0.53586495 0.42045677 0.18408503
v -0.53586495 0.42045677 0.18408503
v -0.50204915 0.21623375 0.18408503
v -0.43787095 0.26183096 0.44939747
v -0.46041486 0.3979796 0.44939747
v -0.46041486 0.3979796 0.44939747
v -0.43787095 0.26183096 0.44939747
v -0.40524855 0.30220306 0.78649384
v -0.4165205 0.37027743 0.78649384
v -0.65088737 0.2964998 -0.047195774
v -0.43761495 0.4716957 -0.047195774
v -0.53586495 0.42045677 0.18408503
v -0.6822293 0.2913101 0.25299942
v -0.6822293 0.2913101 0.25299942
v -0.53586495 0.42045677 0.18408503
v -0.46041486 0.3979796 0.44939747
v -0.55502015 0.31237382 0.50199175
v -0.55502015 0.31237382 0.50199175
v -0.46041486 0.3979796 0.44939747
v -0.4165205 0.37027743 0.78649384
v -0.46866232 0.3266732 0.77461624
v -0.37935326 -0.72979933 -0.0128550725
v -0.27634785 -0.44662106 -0.0128550725
v -0.30054492 -0.3095501 0.23738289
v -0.36950937 -0.49914432 0.23738278
v -0.36950937 -0.49914432 0.23738278
v -0.30054492 -0.3095501 0.23738289
v -0.31293285 -0.23937555 0.6161273
v -0.34756213 -0.33457693 0.6161273
v -0.08261098 -0.6774155 -0.0128550725
v -0.37935326 -0.72979933 -0.0128550725
v -0.36950937 -0.49914432 0.23738278
v -0.17083378 -0.4640721 0.23738278
v -0.17083378 -0.4640721 0.23738278
v -0.36950937 -0.49914432 0.23738278
v -0.34756213 -0.33457693 0.6161273
v -0.24780059 -0.31696615 0.6161273
v -0.27634785 -0.44662106 -0.0128550725
v -0.08261098 -0.6774155 -0.0128550725
v -0.17083378 -0.4640721 0.23738278
v -0.30054492 -0.3095501 0.23738289
v -0.30054492 -0.3095501 0.23738289
v -0.17083378 -0.4640721 0.23738278
v -0.24780059 -0.31696615 0.6161273
v -0.31293285 -0.23937555 0.6161273
v -0.011327329 0.10468265 -0.029717743
v 0.12667519 -0.1343448 -0.029717743
v 0.06075209 -0.043090526 0.5144725
v -0.01132733 0.07998867 0.49354765
v 0.12667519 -0.1343448 -0.029717743
v -0.14932986 -0.1343448 -0.029717743
v -0.08340677 -0.043090526 0.5144725
v 0.06075209 -0.043090526 0.5144725
v -0.14932986 -0.1343448 -0.029717743
v -0.011327329 0.10468265 -0.029717743
v -0.01132733 0.07998867 0.49354765
v -0.08340677 -0.043090526 0.5144725
v -0.451077 -0.40634394 -0.02971775
v -0.70830745 -0.50640076 -0.02971775
v -0.6080911 -0.45511824 0.5144725
v -0.47548392 -0.40258953 0.49354765
v -0.70830745 -0.50640076 -0.02971775
v -0.6663439 -0.23360439 -0.02971775
v -0.5861735 -0.31263527 0.5144725
v -0.6080911 -0.45511824 0.5144725
v -0.6663439 -0.23360439 -0.02971775
v -0.451077 -0.40634394 -0.02971775
v -0.47548392 -0.40258953 0.49354765
v -0.5861735 -0.31263527 0.5144725
v 0.37954468 -0.47615808 -0.03673918
v 0.33003184 -0.6699188 -0.03673918
v 0.34207395 -0.5892432 0.3575683
v 0.3670405 -0.48895627 0.34240663
v 0.33003184 -0.6699188 -0.03673918
v 0.18698661 -0.53015906 -0.03673918
v 0.26736066 -0.51624596 0.3575683
v 0.34207395 -0.5892432 0.3575683
v 0.18698661 -0.53015906 -0.03673918
v 0.37954468 -0.47615808 -0.03673918
v 0.3670405 -0.48895627 0.34240663
v 0.26736066 -0.51624596 0.3575683
vt 0.22692871 0.4807129
vt 0.24841309 0.4892578
vt 0.2800293 0.37426758
vt 0.5654297 0.20727539
vt 0.53808594 0.21191406
vt 0.57373047 0.32641602
vt 0.44433594 0.21289062
vt 0.41845703 0.22436523
vt 0.47436523 0.3293457
vt 0.6640625 0.8022461
vt 0.6640625 0.7182617
vt 0.5913086 0.7602539
vt 0.025314331 0.77685547
vt 0.04208374 0.7861328
vt 0.06530762 0.70166016
vt 0.54785156 0.8330078
vt 0.52783203 0.8364258
vt 0.5522461 0.92041016
vt 0.14086914 0.8491211
vt 0.1270752 0.85253906
vt 0.1484375 0.93652344
vt 0.8203125 0.72753906
vt 0.76708984 0.7583008
vt 0.8203125 0.7890625
vt 0.86816406 0.7783203
vt 0.8857422 0.7817383
vt 0.8964844 0.67333984
vt 0.8457031 0.17102051
vt 0.8198242 0.17382812
vt 0.8457031 0.27978516
vt 0.8833008 0.55029297
vt 0.86279297 0.56152344
vt 0.9121094 0.6557617
vt 0.99121094 0.085754395
vt 0.99121094 0.008918762
vt 0.9243164 0.047332764
vt 0.64941406 0.47070312
vt 0.6645508 0.46728516
vt 0.62646484 0.36328125
vt 0.6098633 0.11895752
vt 0.62890625 0.11895752
vt 0.6220703 0.008918762
vt 0.089538574 0.24206543
vt 0.070617676 0.2397461
vt 0.05593872 0.3479004
vt 0.65771484 0.8198242
vt 0.5913086 0.85839844
vt 0.65771484 0.89697266
vt 0.32617188 0.60009766
vt 0.30908203 0.60253906
vt 0.3317871 0.70751953
vt 0.51953125 0.4489746
vt 0.53808594 0.4489746
vt 0.53759766 0.34423828
vt 0.18811035 0.24182129
vt 0.1694336 0.23999023
vt 0.15344238 0.34448242
vt 0.2993164 0.86572266
vt 0.36572266 0.9038086
vt 0.36572266 0.82714844
vt 0.7026367 0.11663818
vt 0.7211914 0.12359619
vt 0.7519531 0.008918762
vt 0.07312012 0.56591797
vt 0.047180176 0.5708008
vt 0.085998535 0.68408203
vt 0.44482422 0.54785156
vt 0.4189453 0.55859375
vt 0.47265625 0.6645508
vt 0.37182617 0.72558594
vt 0.2993164 0.7675781
vt 0.37182617 0.8095703
vt 0.35253906 0.19848633
vt 0.37524414 0.008918762
vt 0.31274414 0.19726562
vt 0.6826172 0.7661133
vt 0.74902344 0.8046875
vt 0.74902344 0.72753906
vt 0.2619629 0.20300293
vt 0.25024414 0.008918762
vt 0.22253418 0.20300293
vt 0.7680664 0.51660156
vt 0.8256836 0.7060547
vt 0.80078125 0.5151367
vt 0.90478516 0.19519043
vt 0.9067383 0.008918762
vt 0.8823242 0.18945312
vt 0.74902344 0.89941406
vt 0.74902344 0.8222656
vt 0.6826172 0.86083984
vt 0.16906738 0.54589844
vt 0.1694336 0.3623047
vt 0.13024902 0.54589844
vt 0.7451172 0.55566406
vt 0.69384766 0.36328125
vt 0.71191406 0.5517578
vt 0.2244873 0.84765625
vt 0.24121094 0.70947266
vt 0.20593262 0.8461914
vt 0.8149414 0.86279297
vt 0.8149414 0.8071289
vt 0.76708984 0.83496094
vt 0.9550781 0.8149414
vt 0.9291992 0.67333984
vt 0.93066406 0.8149414
vt 0.40527344 0.79345703
vt 0.4477539 0.9291992
vt 0.4338379 0.7919922
vt 0.47436523 0.008918762
vt 0.39770508 0.042755127
vt 0.3930664 0.1204834
vt 0.44433594 0.09777832
vt 0.44433594 0.09777832
vt 0.3930664 0.1204834
vt 0.41845703 0.22436523
vt 0.44433594 0.21289062
vt 0.57373047 0.008918762
vt 0.4921875 0.022491455
vt 0.5102539 0.10229492
vt 0.5644531 0.09320068
vt 0.5644531 0.09320068
vt 0.5102539 0.10229492
vt 0.53808594 0.21191406
vt 0.5654297 0.20727539
vt 0.21594238 0.66552734
vt 0.2800293 0.69140625
vt 0.24890137 0.6035156
vt 0.20593262 0.5859375
vt 0.20593262 0.5859375
vt 0.24890137 0.6035156
vt 0.24841309 0.4892578
vt 0.22692871 0.4807129
vt 0.1484375 0.7163086
vt 0.10736084 0.72558594
vt 0.1126709 0.7763672
vt 0.14013672 0.77001953
vt 0.14013672 0.77001953
vt 0.1126709 0.7763672
vt 0.1270752 0.85253906
vt 0.14086914 0.8491211
vt 0.5522461 0.69873047
vt 0.4921875 0.70947266
vt 0.50683594 0.7607422
vt 0.5473633 0.75341797
vt 0.5473633 0.75341797
vt 0.50683594 0.7607422
vt 0.52783203 0.8364258
vt 0.54785156 0.8330078
vt 0.0154418945 0.9082031
vt 0.06530762 0.9350586
vt 0.042297363 0.8701172
vt 0.008918762 0.8520508
vt 0.008918762 0.8520508
vt 0.042297363 0.8701172
vt 0.04208374 0.7861328
vt 0.025314331 0.77685547
vt 0.9121094 0.36328125
vt 0.8520508 0.39648438
vt 0.8432617 0.4675293
vt 0.8833008 0.4453125
vt 0.8833008 0.4453125
vt 0.8432617 0.4675293
vt 0.86279297 0.56152344
vt 0.8833008 0.55029297
vt 0.8457031 0.008918762
vt 0.76953125 0.01751709
vt 0.79345703 0.07940674
vt 0.84472656 0.0736084
vt 0.84472656 0.0736084
vt 0.79345703 0.07940674
vt 0.8198242 0.17382812
vt 0.8457031 0.17102051
vt 0.8432617 0.9350586
vt 0.8964844 0.94677734
vt 0.8852539 0.8798828
vt 0.8496094 0.8725586
vt 0.8496094 0.8725586
vt 0.8852539 0.8798828
vt 0.8857422 0.7817383
vt 0.86816406 0.7783203
vt 0.089538574 0.008918762
vt 0.013198853 0.012687683
vt 0.008918762 0.09637451
vt 0.061798096 0.074523926
vt 0.061798096 0.074523926
vt 0.008918762 0.09637451
vt 0.04486084 0.16455078
vt 0.07928467 0.14819336
vt 0.07928467 0.14819336
vt 0.04486084 0.16455078
vt 0.070617676 0.2397461
vt 0.089538574 0.24206543
vt 0.5913086 0.34545898
vt 0.6669922 0.34545898
vt 0.66015625 0.2763672
vt 0.6035156 0.2763672
vt 0.6035156 0.2763672
vt 0.66015625 0.2763672
vt 0.64404297 0.20837402
vt 0.6064453 0.20837402
vt 0.6064453 0.20837402
vt 0.64404297 0.20837402
vt 0.62890625 0.11895752
vt 0.6098633 0.11895752
vt 0.6015625 0.7001953
vt 0.6645508 0.69970703
vt 0.6352539 0.6352539
vt 0.5913086 0.6166992
vt 0.5913086 0.6166992
vt 0.6352539 0.6352539
vt 0.6542969 0.56103516
vt 0.62597656 0.546875
vt 0.62597656 0.546875
vt 0.6542969 0.56103516
vt 0.6645508 0.46728516
vt 0.64941406 0.47070312
vt 0.18811035 0.008918762
vt 0.11242676 0.014457703
vt 0.10736084 0.095825195
vt 0.15979004 0.072753906
vt 0.15979004 0.072753906
vt 0.10736084 0.095825195
vt 0.14367676 0.16491699
vt 0.17773438 0.14770508
vt 0.17773438 0.14770508
vt 0.14367676 0.16491699
vt 0.1694336 0.23999023
vt 0.18811035 0.24182129
vt 0.4921875 0.68115234
vt 0.56640625 0.68115234
vt 0.5644531 0.6166992
vt 0.5083008 0.6166992
vt 0.5083008 0.6166992
vt 0.5644531 0.6166992
vt 0.55029297 0.54296875
vt 0.5126953 0.54296875
vt 0.5126953 0.54296875
vt 0.55029297 0.54296875
vt 0.53808594 0.4489746
vt 0.51953125 0.4489746
vt 0.36791992 0.3720703
vt 0.2993164 0.36914062
vt 0.31958008 0.43408203
vt 0.36791992 0.45532227
vt 0.36791992 0.45532227
vt 0.31958008 0.43408203
vt 0.3125 0.5083008
vt 0.34399414 0.52441406
vt 0.34399414 0.52441406
vt 0.3125 0.5083008
vt 0.30908203 0.60253906
vt 0.32617188 0.60009766
vt 0.47265625 0.34716797
vt 0.3955078 0.37963867
vt 0.3930664 0.4555664
vt 0.44458008 0.4338379
vt 0.44458008 0.4338379
vt 0.3930664 0.4555664
vt 0.4189453 0.55859375
vt 0.44482422 0.54785156
vt 0.085998535 0.36572266
vt 0.008918762 0.3798828
vt 0.020599365 0.46118164
vt 0.07220459 0.45166016
vt 0.07220459 0.45166016
vt 0.020599365 0.46118164
vt 0.047180176 0.5708008
vt 0.07312012 0.56591797
vt 0.6958008 0.30078125
vt 0.7519531 0.32128906
vt 0.72216797 0.23620605
vt 0.6845703 0.22241211
vt 0.6845703 0.22241211
vt 0.72216797 0.23620605
vt 0.7211914 0.12359619
vt 0.7026367 0.11663818
vt 0.8256836 0.3713379
vt 0.7626953 0.36328125
vt 0.7680664 0.51660156
vt 0.80078125 0.5151367
vt 0.20593262 0.3564453
vt 0.28149414 0.3564453
vt 0.2619629 0.20300293
vt 0.22253418 0.20300293
vt 0.2993164 0.35131836
vt 0.37524414 0.3425293
vt 0.35253906 0.19848633
vt 0.31274414 0.19726562
vt 0.6826172 0.69091797
vt 0.7451172 0.70996094
vt 0.7451172 0.55566406
vt 0.71191406 0.5517578
vt 0.10736084 0.6982422
vt 0.18151855 0.6982422
vt 0.16906738 0.54589844
vt 0.13024902 0.54589844
vt 0.86376953 0.34106445
vt 0.9067383 0.34106445
vt 0.90478516 0.19519043
vt 0.8823242 0.18945312
vt 0.4477539 0.6875
vt 0.3930664 0.6821289
vt 0.40527344 0.79345703
vt 0.4338379 0.7919922
vt 0.9145508 0.92578125
vt 0.9614258 0.92578125
vt 0.9550781 0.8149414
vt 0.93066406 0.8149414
vt 0.20605469 0.95751953
vt 0.24121094 0.95166016
vt 0.2244873 0.84765625
vt 0.20593262 0.8461914
vn 0.8652344 0.49951172 0.041259766
vn 0.8652344 0.49951172 0.041259766
vn 0.8652344 0.49951172 0.041259766
vn -0 -0.9921875 0.12335205
vn -0 -0.9921875 0.12335205
vn -0 -0.9921875 0.12335205
vn -0.8652344 0.49951172 0.041259766
vn -0.8652344 0.49951172 0.041259766
vn -0.8652344 0.49951172 0.041259766
vn -0 0 -1
vn -0 0 -1
vn -0 0 -1
vn 0.20935059 -0.9770508 0.041259766
vn 0.20935059 -0.9770508 0.041259766
vn 0.20935059 -0.9770508 0.041259766
vn -0.94433594 0.30517578 0.12335205
vn -0.94433594 0.30517578 0.12335205
vn -0.94433594 0.30517578 0.12335205
vn 0.74121094 0.6699219 0.041259766
vn 0.74121094 0.6699219 0.041259766
vn 0.74121094 0.6699219 0.041259766
vn -0 0 -1
vn -0 0 -1
vn -0 0 -1
vn -0.35961914 0.9321289 0.041259766
vn -0.35961914 0.9321289 0.041259766
vn -0.35961914 0.9321289 0.041259766
vn 0.98046875 -0.15368652 0.12335205
vn 0.98046875 -0.15368652 0.12335205
vn 0.98046875 -0.15368652 0.12335205
vn -0.6274414 -0.77734375 0.041259766
vn -0.6274414 -0.77734375 0.041259766
vn -0.6274414 -0.77734375 0.041259766
vn -0 0 -1
vn -0 0 -1
vn -0 0 -1
vn 0.86621094 0.49047852 -0.097473145
vn 0.86621094 0.49047852 -0.097473145
vn 0.86621094 0.49047852 -0.097473145
vn -0 -0.9404297 0.33984375
vn -0 -0.9404297 0.33984375
vn -0 -0.9404297 0.33984375
vn -0.86621094 0.49047852 -0.097473145
vn -0.86621094 0.49047852 -0.097473145
vn -0.86621094 0.49047852 -0.097473145
vn -0 0 -1
vn -0 0 -1
vn -0 0 -1
vn -0.6254883 0.77441406 -0.097473145
vn -0.6254883 0.77441406 -0.097473145
vn -0.6254883 0.77441406 -0.097473145
vn 0.9277344 0.15368652 0.33984375
vn 0.9277344 0.15368652 0.33984375
vn 0.9277344 0.15368652 0.33984375
vn -0.34228516 -0.9345703 -0.097473145
vn -0.34228516 -0.9345703 -0.097473145
vn -0.34228516 -0.9345703 -0.097473145
vn -0 0 -1
vn -0 0 -1
vn -0 0 -1
vn 0.7651367 0.6425781 0.041259766
vn 0.7651367 0.6425781 0.041259766
vn 0.7651367 0.6425781 0.041259766
vn 0.17248535 -0.9770508 0.12335205
vn 0.17248535 -0.9770508 0.12335205
vn 0.17248535 -0.9770508 0.12335205
vn -0.93896484 0.34155273 0.041259766
vn -0.93896484 0.34155273 0.041259766
vn -0.93896484 0.34155273 0.041259766
vn -0 0 -1
vn -0 0 -1
vn -0 0 -1
vn -0.8652344 0.4855957 -0.12432861
vn -0.8652344 0.4855957 -0.12432861
vn -0.8652344 0.4855957 -0.12432861
vn -0 0 -1
vn -0 0 -1
vn -0 0 -1
vn -0 -0.91064453 0.41333008
vn -0 -0.91064453 0.41333008
vn -0 -0.91064453 0.41333008
vn 0.8652344 0.4855957 -0.12432861
vn 0.8652344 0.4855957 -0.12432861
vn 0.8652344 0.4855957 -0.12432861
vn 0.6113281 0.78125 -0.12432861
vn 0.6113281 0.78125 -0.12432861
vn 0.6113281 0.78125 -0.12432861
vn -0 0 -1
vn -0 0 -1
vn -0 0 -1
vn -0.89990234 0.13842773 0.41333008
vn -0.89990234 0.13842773 0.41333008
vn -0.89990234 0.13842773 0.41333008
vn 0.34838867 -0.9291992 -0.12432861
vn 0.34838867 -0.9291992 -0.12432861
vn 0.34838867 -0.9291992 -0.12432861
vn -0.27954102 0.95214844 -0.12432861
vn -0.27954102 0.95214844 -0.12432861
vn -0.27954102 0.95214844 -0.12432861
vn -0 0 -1
vn -0 0 -1
vn -0 0 -1
vn -0.63623047 -0.6513672 0.41333008
vn -0.63623047 -0.6513672 0.41333008
vn -0.63623047 -0.6513672 0.41333008
vn 0.9584961 -0.25732422 -0.12432861
vn 0.9584961 -0.25732422 -0.12432861
vn 0.9584961 -0.25732422 -0.12432861
vn -0.83447266 0.48168945 -0.2680664
vn -0.83447266 0.48168945 -0.2680664
vn -0.83447266 0.48168945 -0.2680664
vn -0.83447266 0.48168945 -0.2680664
vn -0.8623047 0.49780273 -0.093688965
vn -0.8623047 0.49780273 -0.093688965
vn -0.8623047 0.49780273 -0.093688965
vn -0.8623047 0.49780273 -0.093688965
vn -0 -0.74316406 0.6694336
vn -0 -0.74316406 0.6694336
vn -0 -0.74316406 0.6694336
vn -0 -0.74316406 0.6694336
vn -0 -0.92285156 0.38549805
vn -0 -0.92285156 0.38549805
vn -0 -0.92285156 0.38549805
vn -0 -0.92285156 0.38549805
vn 0.83447266 0.48168945 -0.2680664
vn 0.83447266 0.48168945 -0.2680664
vn 0.83447266 0.48168945 -0.2680664
vn 0.83447266 0.48168945 -0.2680664
vn 0.8623047 0.49780273 -0.093688965
vn 0.8623047 0.49780273 -0.093688965
vn 0.8623047 0.49780273 -0.093688965
vn 0.8623047 0.49780273 -0.093688965
vn 0.71484375 0.6459961 -0.2680664
vn 0.71484375 0.6459961 -0.2680664
vn 0.71484375 0.6459961 -0.2680664
vn 0.71484375 0.6459961 -0.2680664
vn 0.73876953 0.66748047 -0.093688965
vn 0.73876953 0.66748047 -0.093688965
vn 0.73876953 0.66748047 -0.093688965
vn 0.73876953 0.66748047 -0.093688965
vn -0.70703125 0.22851562 0.6694336
vn -0.70703125 0.22851562 0.6694336
vn -0.70703125 0.22851562 0.6694336
vn -0.70703125 0.22851562 0.6694336
vn -0.8779297 0.2836914 0.38549805
vn -0.8779297 0.2836914 0.38549805
vn -0.8779297 0.2836914 0.38549805
vn -0.8779297 0.2836914 0.38549805
vn 0.20178223 -0.94189453 -0.2680664
vn 0.20178223 -0.94189453 -0.2680664
vn 0.20178223 -0.94189453 -0.2680664
vn 0.20178223 -0.94189453 -0.2680664
vn 0.20861816 -0.9736328 -0.093688965
vn 0.20861816 -0.9736328 -0.093688965
vn 0.20861816 -0.9736328 -0.093688965
vn 0.20861816 -0.9736328 -0.093688965
vn -0.60498047 -0.7495117 -0.2680664
vn -0.60498047 -0.7495117 -0.2680664
vn -0.60498047 -0.7495117 -0.2680664
vn -0.60498047 -0.7495117 -0.2680664
vn -0.6254883 -0.77490234 -0.093688965
vn -0.6254883 -0.77490234 -0.093688965
vn -0.6254883 -0.77490234 -0.093688965
vn -0.6254883 -0.77490234 -0.093688965
vn 0.7338867 -0.11505127 0.6694336
vn 0.7338867 -0.11505127 0.6694336
vn 0.7338867 -0.11505127 0.6694336
vn 0.7338867 -0.11505127 0.6694336
vn 0.9116211 -0.14282227 0.38549805
vn 0.9116211 -0.14282227 0.38549805
vn 0.9116211 -0.14282227 0.38549805
vn 0.9116211 -0.14282227 0.38549805
vn -0.3466797 0.8989258 -0.2680664
vn -0.3466797 0.8989258 -0.2680664
vn -0.3466797 0.8989258 -0.2680664
vn -0.3466797 0.8989258 -0.2680664
vn -0.35839844 0.92871094 -0.093688965
vn -0.35839844 0.92871094 -0.093688965
vn -0.35839844 0.92871094 -0.093688965
vn -0.35839844 0.92871094 -0.093688965
vn -0.85009766 0.5209961 -0.0791626
vn -0.85009766 0.5209961 -0.0791626
vn -0.85009766 0.5209961 -0.0791626
vn -0.85009766 0.5209961 -0.0791626
vn -0.86572266 0.44458008 0.23071289
vn -0.86572266 0.44458008 0.23071289
vn -0.86572266 0.44458008 0.23071289
vn -0.86572266 0.44458008 0.23071289
vn -0.85498047 0.4963379 0.15124512
vn -0.85498047 0.4963379 0.15124512
vn -0.85498047 0.4963379 0.15124512
vn -0.85498047 0.4963379 0.15124512
vn -0 -0.91015625 0.41430664
vn -0 -0.91015625 0.41430664
vn -0 -0.91015625 0.41430664
vn -0 -0.91015625 0.41430664
vn -0 -0.9663086 -0.2578125
vn -0 -0.9663086 -0.2578125
vn -0 -0.9663086 -0.2578125
vn -0 -0.9663086 -0.2578125
vn -0 -0.99365234 -0.11425781
vn -0 -0.99365234 -0.11425781
vn -0 -0.99365234 -0.11425781
vn -0 -0.99365234 -0.11425781
vn 0.85009766 0.5209961 -0.0791626
vn 0.85009766 0.5209961 -0.0791626
vn 0.85009766 0.5209961 -0.0791626
vn 0.85009766 0.5209961 -0.0791626
vn 0.86572266 0.44458008 0.23071289
vn 0.86572266 0.44458008 0.23071289
vn 0.86572266 0.44458008 0.23071289
vn 0.86572266 0.44458008 0.23071289
vn 0.85498047 0.4963379 0.15124512
vn 0.85498047 0.4963379 0.15124512
vn 0.85498047 0.4963379 0.15124512
vn 0.85498047 0.4963379 0.15124512
vn -0.375 -0.9238281 -0.0791626
vn -0.375 -0.9238281 -0.0791626
vn -0.375 -0.9238281 -0.0791626
vn -0.375 -0.9238281 -0.0791626
vn -0.29711914 -0.9267578 0.23071289
vn -0.29711914 -0.9267578 0.23071289
vn -0.29711914 -0.9267578 0.23071289
vn -0.29711914 -0.9267578 0.23071289
vn -0.34985352 -0.9243164 0.15124512
vn -0.34985352 -0.9243164 0.15124512
vn -0.34985352 -0.9243164 0.15124512
vn -0.34985352 -0.9243164 0.15124512
vn 0.8979492 0.14868164 0.41430664
vn 0.8979492 0.14868164 0.41430664
vn 0.8979492 0.14868164 0.41430664
vn 0.8979492 0.14868164 0.41430664
vn 0.953125 0.15783691 -0.2578125
vn 0.953125 0.15783691 -0.2578125
vn 0.953125 0.15783691 -0.2578125
vn 0.953125 0.15783691 -0.2578125
vn 0.97998047 0.16223145 -0.11425781
vn 0.97998047 0.16223145 -0.11425781
vn 0.97998047 0.16223145 -0.11425781
vn 0.97998047 0.16223145 -0.11425781
vn -0.65283203 0.75341797 -0.0791626
vn -0.65283203 0.75341797 -0.0791626
vn -0.65283203 0.75341797 -0.0791626
vn -0.65283203 0.75341797 -0.0791626
vn -0.5800781 0.78125 0.23071289
vn -0.5800781 0.78125 0.23071289
vn -0.5800781 0.78125 0.23071289
vn -0.5800781 0.78125 0.23071289
vn -0.62939453 0.76220703 0.15124512
vn -0.62939453 0.76220703 0.15124512
vn -0.62939453 0.76220703 0.15124512
vn -0.62939453 0.76220703 0.15124512
vn -0.90527344 0.3293457 -0.2680664
vn -0.90527344 0.3293457 -0.2680664
vn -0.90527344 0.3293457 -0.2680664
vn -0.90527344 0.3293457 -0.2680664
vn -0.9355469 0.34033203 -0.093688965
vn -0.9355469 0.34033203 -0.093688965
vn -0.9355469 0.34033203 -0.093688965
vn -0.9355469 0.34033203 -0.093688965
vn 0.12915039 -0.7314453 0.6694336
vn 0.12915039 -0.7314453 0.6694336
vn 0.12915039 -0.7314453 0.6694336
vn 0.12915039 -0.7314453 0.6694336
vn 0.16040039 -0.9086914 0.38549805
vn 0.16040039 -0.9086914 0.38549805
vn 0.16040039 -0.9086914 0.38549805
vn 0.16040039 -0.9086914 0.38549805
vn 0.73779297 0.6196289 -0.2680664
vn 0.73779297 0.6196289 -0.2680664
vn 0.73779297 0.6196289 -0.2680664
vn 0.73779297 0.6196289 -0.2680664
vn 0.7626953 0.6401367 -0.093688965
vn 0.7626953 0.6401367 -0.093688965
vn 0.7626953 0.6401367 -0.093688965
vn 0.7626953 0.6401367 -0.093688965
vn 0.8642578 0.5024414 0.022033691
vn 0.8642578 0.5024414 0.022033691
vn 0.8642578 0.5024414 0.022033691
vn 0.8642578 0.5024414 0.022033691
vn -0 -0.9863281 0.16540527
vn -0 -0.9863281 0.16540527
vn -0 -0.9863281 0.16540527
vn -0 -0.9863281 0.16540527
vn -0.8642578 0.5024414 0.022033691
vn -0.8642578 0.5024414 0.022033691
vn -0.8642578 0.5024414 0.022033691
vn -0.8642578 0.5024414 0.022033691
vn 0.36547852 -0.93066406 0.022033691
vn 0.36547852 -0.93066406 0.022033691
vn 0.36547852 -0.93066406 0.022033691
vn 0.36547852 -0.93066406 0.022033691
vn -0.9746094 0.14990234 0.16540527
vn -0.9746094 0.14990234 0.16540527
vn -0.9746094 0.14990234 0.16540527
vn -0.9746094 0.14990234 0.16540527
vn 0.62841797 0.77783203 0.022033691
vn 0.62841797 0.77783203 0.022033691
vn 0.62841797 0.77783203 0.022033691
vn 0.62841797 0.77783203 0.022033691
vn 0.9692383 -0.24438477 0.022033691
vn 0.9692383 -0.24438477 0.022033691
vn 0.9692383 -0.24438477 0.022033691
vn 0.9692383 -0.24438477 0.022033691
vn -0.6894531 -0.7055664 0.16540527
vn -0.6894531 -0.7055664 0.16540527
vn -0.6894531 -0.7055664 0.16540527
vn -0.6894531 -0.7055664 0.16540527
vn -0.2668457 0.9633789 0.022033691
vn -0.2668457 0.9633789 0.022033691
vn -0.2668457 0.9633789 0.022033691
vn -0.2668457 0.9633789 0.022033691
g Bush_0
f 3/3/3 2/2/2 1/1/1
f 6/6/6 5/5/5 4/4/4
f 9/9/9 8/8/8 7/7/7
f 12/12/12 11/11/11 10/10/10
f 15/15/15 14/14/14 13/13/13
f 18/18/18 17/17/17 16/16/16
f 21/21/21 20/20/20 19/19/19
f 24/24/24 23/23/23 22/22/22
f 27/27/27 26/26/26 25/25/25
f 30/30/30 29/29/29 28/28/28
f 33/33/33 32/32/32 31/31/31
f 36/36/36 35/35/35 34/34/34
f 39/39/39 38/38/38 37/37/37
f 42/42/42 41/41/41 40/40/40
f 45/45/45 44/44/44 43/43/43
f 48/48/48 47/47/47 46/46/46
f 51/51/51 50/50/50 49/49/49
f 54/54/54 53/53/53 52/52/52
f 57/57/57 56/56/56 55/55/55
f 60/60/60 59/59/59 58/58/58
f 63/63/63 62/62/62 61/61/61
f 66/66/66 65/65/65 64/64/64
f 69/69/69 68/68/68 67/67/67
f 72/72/72 71/71/71 70/70/70
f 75/75/75 74/74/74 73/73/73
f 78/78/78 77/77/77 76/76/76
f 81/81/81 80/80/80 79/79/79
f 84/84/84 83/83/83 82/82/82
f 87/87/87 86/86/86 85/85/85
f 90/90/90 89/89/89 88/88/88
f 93/93/93 92/92/92 91/91/91
f 96/96/96 95/95/95 94/94/94
f 99/99/99 98/98/98 97/97/97
f 102/102/102 101/101/101 100/100/100
f 105/105/105 104/104/104 103/103/103
f 108/108/108 107/107/107 106/106/106
f 111/111/111 110/110/110 109/109/109
f 112/112/112 111/111/111 109/109/109
f 115/115/115 114/114/114 113/113/113
f 116/116/116 115/115/115 113/113/113
f 119/119/119 118/118/118 117/117/117
f 120/120/120 119/119/119 117/117/117
f 123/123/123 122/122/122 121/121/121
f 124/124/124 123/123/123 121/121/121
f 127/127/127 126/126/126 125/125/125
f 128/128/128 127/127/127 125/125/125
f 131/131/131 130/130/130 129/129/129
f 132/132/132 131/131/131 129/129/129
f 135/135/135 134/134/134 133/133/133
f 136/136/136 135/135/135 133/133/133
f 139/139/139 138/138/138 137/137/137
f 140/140/140 139/139/139 137/137/137
f 143/143/143 142/142/142 141/141/141
f 144/144/144 143/143/143 141/141/141
f 147/147/147 146/146/146 145/145/145
f 148/148/148 147/147/147 145/145/145
f 151/151/151 150/150/150 149/149/149
f 152/152/152 151/151/151 149/149/149
f 155/155/155 154/154/154 153/153/153
f 156/156/156 155/155/155 153/153/153
f 159/159/159 158/158/158 157/157/157
f 160/160/160 159/159/159 157/157/157
f 163/163/163 162/162/162 161/161/161
f 164/164/164 163/163/163 161/161/161
f 167/167/167 166/166/166 165/165/165
f 168/168/168 167/167/167 165/165/165
f 171/171/171 170/170/170 169/169/169
f 172/172/172 171/171/171 169/169/169
f 175/175/175 174/174/174 173/173/173
f 176/176/176 175/175/175 173/173/173
f 179/179/179 178/178/178 177/177/177
f 180/180/180 179/179/179 177/177/177
f 183/183/183 182/182/182 181/181/181
f 184/184/184 183/183/183 181/181/181
f 187/187/187 186/186/186 185/185/185
f 188/188/188 187/187/187 185/185/185
f 191/191/191 190/190/190 189/189/189
f 192/192/192 191/191/191 189/189/189
f 195/195/195 194/194/194 193/193/193
f 196/196/196 195/195/195 193/193/193
f 199/199/199 198/198/198 197/197/197
f 200/200/200 199/199/199 197/197/197
f 203/203/203 202/202/202 201/201/201
f 204/204/204 203/203/203 201/201/201
f 207/207/207 206/206/206 205/205/205
f 208/208/208 207/207/207 205/205/205
f 211/211/211 210/210/210 209/209/209
f 212/212/212 211/211/211 209/209/209
f 215/215/215 214/214/214 213/213/213
f 216/216/216 215/215/215 213/213/213
f 219/219/219 218/218/218 217/217/217
f 220/220/220 219/219/219 217/217/217
f 223/223/223 222/222/222 221/221/221
f 224/224/224 223/223/223 221/221/221
f 227/227/227 226/226/226 225/225/225
f 228/228/228 227/227/227 225/225/225
f 231/231/231 230/230/230 229/229/229
f 232/232/232 231/231/231 229/229/229
f 235/235/235 234/234/234 233/233/233
f 236/236/236 235/235/235 233/233/233
f 239/239/239 238/238/238 237/237/237
f 240/240/240 239/239/239 237/237/237
f 243/243/243 242/242/242 241/241/241
f 244/244/244 243/243/243 241/241/241
f 247/247/247 246/246/246 245/245/245
f 248/248/248 247/247/247 245/245/245
f 251/251/251 250/250/250 249/249/249
f 252/252/252 251/251/251 249/249/249
f 255/255/255 254/254/254 253/253/253
f 256/256/256 255/255/255 253/253/253
f 259/259/259 258/258/258 257/257/257
f 260/260/260 259/259/259 257/257/257
f 263/263/263 262/262/262 261/261/261
f 264/264/264 263/263/263 261/261/261
f 267/267/267 266/266/266 265/265/265
f 268/268/268 267/267/267 265/265/265
f 271/271/271 270/270/270 269/269/269
f 272/272/272 271/271/271 269/269/269
f 275/275/275 274/274/274 273/273/273
f 276/276/276 275/275/275 273/273/273
f 279/279/279 278/278/278 277/277/277
f 280/280/280 279/279/279 277/277/277
f 283/283/283 282/282/282 281/281/281
f 284/284/284 283/283/283 281/281/281
f 287/287/287 286/286/286 285/285/285
f 288/288/288 287/287/287 285/285/285
f 291/291/291 290/290/290 289/289/289
f 292/292/292 291/291/291 289/289/289
f 295/295/295 294/294/294 293/293/293
f 296/296/296 295/295/295 293/293/293
f 299/299/299 298/298/298 297/297/297
f 300/300/300 299/299/299 297/297/297
f 303/303/303 302/302/302 301/301/301
f 304/304/304 303/303/303 301/301/301
f 307/307/307 306/306/306 305/305/305
f 308/308/308 307/307/307 305/305/305
f 311/311/311 310/310/310 309/309/309
f 312/312/312 311/311/311 309/309/309
