g Bush1
v -0.62416947 -0.46310928 0.5612935
v -0.00883028 -0.087240264 -0.1725755
v -0.20675051 -0.51002216 -0.21580194
v -0.42624924 -0.040327396 0.60451996
v -1.2055504 -0.36424267 0.6310883
v -0.07179695 0.37530935 -0.21580184
v -1.199693 0.08781588 0.8018908
v -0.48921594 0.42222226 0.5612936
v -1.0705967 0.5210889 0.6310885
v -0.2838754 -0.9282529 0.5081079
v -0.02714348 0.057884656 -0.17666352
v 0.2602065 -0.36433285 -0.28035277
v -0.69187266 -0.628057 0.59288776
v -0.9712555 -1.6650026 -0.12437612
v -0.4632756 0.31942993 -0.29055762
v -1.4351134 -1.4291024 0.009051725
v -1.0073576 -0.24449007 0.49790305
v -1.6947376 -0.9812396 -0.13458101
v -0.09474672 0.48413625 0.5503704
v 0.0014634684 -0.08610573 -0.16394985
v -0.26577264 0.19425009 -0.21068361
v 0.17248939 0.2037804 0.59710413
v 0.19458602 0.97454995 0.7571392
v 0.37609115 -0.18443464 -0.21068355
v 0.5489402 0.8418578 0.8933977
v 0.5471171 0.10545151 0.55037034
v 0.8364498 0.5958652 0.75713915
v 0.6939773 -0.37816072 0.52224797
v -0.045165785 0.05432784 -0.17217971
v 0.4000144 0.17003323 -0.25854972
v 0.3188268 -0.6321818 0.608618
v 1.148385 -1.2255583 0.056551263
v -0.38787723 -0.25246528 -0.2585498
v 0.81009394 -1.5405949 0.19466764
v -0.093914375 -0.8006592 0.5222479
v 0.3604934 -1.6480567 0.05655116
v 0.7787152 0.5707422 0.6871845
v -0.049394663 0.04507446 -0.18298104
v 0.08833514 0.5757945 -0.27865392
v 0.71742386 0.034423627 0.77437615
v 1.9495075 0.5629325 0.19365859
v 0.081083566 -0.4874067 -0.27903217
v 2.07719 0.030375307 0.3647971
v 0.7714637 -0.49245906 0.68680626
v 1.9422557 -0.50026876 0.19328025
v -0.2911814 0.8238905 0.500331
v -0.0426295 0.03505655 -0.1703293
v -0.43627352 0.24092723 -0.25374323
v 0.14203459 0.76242316 0.5837449
v -0.06689787 1.7250344 0.05057323
v 0.40159038 0.032393362 -0.25374323
v 0.37950376 1.7311374 0.1839625
v 0.54668254 0.61535656 0.50033104
v 0.770966 1.5165004 0.05057326
v -0.91503817 0.008199367 0.5436345
v -0.030619476 0.039607026 -0.17398532
v -0.35518444 -0.30766615 -0.26323998
v -0.7281167 0.4374599 0.63288903
v -1.7804593 0.49646413 0.0623848
v 0.098793454 0.49698374 -0.26323986
v -1.6594652 0.9585906 0.205114
v -0.46106026 0.81284934 0.5436346
v -1.3264812 1.3011138 0.06238486
v 0.4919011 0.10758613 0.59139913
v 0.006843373 -0.09148779 -0.16343474
v 0.25338903 0.20871203 -0.19940588
v 0.24535538 -0.19261365 0.62737024
v 0.99455196 -0.10553103 0.8538781
v -0.03751753 -0.47741112 -0.19940595
v 0.89685315 -0.46883982 0.99601257
v 0.20099449 -0.578537 0.591399
v 0.70364547 -0.7916542 0.853878
v 0.3079905 -0.50889 0.58000267
v -0.0010791878 -0.095819905 -0.1627068
v 0.34560326 -0.25677684 -0.1981002
v -0.038691897 -0.34793317 0.615396
v 0.22872376 -1.0402046 0.8382656
v -0.37964553 -0.14857729 -0.19810021
v -0.14143132 -1.0365825 0.978117
v -0.4172583 -0.40069053 0.5800026
v -0.49652502 -0.9320051 0.8382656
vt 0.75 0.5
vt 0.5 1
vt 0.75 1
vt 0.5 0.5
vt 0.75 0
vt 0.25 1
vt 0.5 0
vt 0.25 0.5
vt 0.25 0
vt 0.75 0.5
vt 0.5 1
vt 0.75 1
vt 0.5 0.5
vt 0.75 0
vt 0.25 1
vt 0.5 0
vt 0.25 0.5
vt 0.25 0
vt 0.75 0.5
vt 0.5 1
vt 0.75 1
vt 0.5 0.5
vt 0.75 0
vt 0.25 1
vt 0.5 0
vt 0.25 0.5
vt 0.25 0
vt 0.75 0.5
vt 0.5 1
vt 0.75 1
vt 0.5 0.5
vt 0.75 0
vt 0.25 1
vt 0.5 0
vt 0.25 0.5
vt 0.25 0
vt 0.75 0.5
vt 0.5 1
vt 0.75 1
vt 0.5 0.5
vt 0.75 0
vt 0.25 1
vt 0.5 0
vt 0.25 0.5
vt 0.25 0
vt 0.75 0.5
vt 0.5 1
vt 0.75 1
vt 0.5 0.5
vt 0.75 0
vt 0.25 1
vt 0.5 0
vt 0.25 0.5
vt 0.25 0
vt 0.75 0.5
vt 0.5 1
vt 0.75 1
vt 0.5 0.5
vt 0.75 0
vt 0.25 1
vt 0.5 0
vt 0.25 0.5
vt 0.25 0
vt 0.75 0.5
vt 0.5 1
vt 0.75 1
vt 0.5 0.5
vt 0.75 0
vt 0.25 1
vt 0.5 0
vt 0.25 0.5
vt 0.25 0
vt 0.75 0.5
vt 0.5 1
vt 0.75 1
vt 0.5 0.5
vt 0.75 0
vt 0.25 1
vt 0.5 0
vt 0.25 0.5
vt 0.25 0
vn 0.47827148 -0.36694336 0.79785156
vn 0.8701172 -0.12927246 0.4753418
vn 0.79052734 -0.41601562 0.44970703
vn 0.62060547 -0.09802246 0.77783203
vn 0.14331055 -0.26660156 0.953125
vn 0.87353516 0.16186523 0.45947266
vn 0.18908691 -0.026519775 0.9814453
vn 0.56591797 0.20654297 0.79785156
vn 0.22302246 0.2109375 0.95166016
vn 0.3017578 -0.073791504 0.9506836
vn 0.45263672 0.49047852 0.7446289
vn 0.57421875 0.36083984 0.7348633
vn 0.02998352 0.0491333 0.99853516
vn -0.12487793 -0.5415039 0.83154297
vn 0.3161621 0.60498047 0.73095703
vn -0.35107422 -0.35791016 0.8652344
vn -0.10595703 0.3125 0.94384766
vn -0.54785156 -0.14233398 0.82421875
vn -0.5722656 -0.40454102 0.7133789
vn -0.4645996 -0.78759766 0.40454102
vn -0.69873047 -0.6020508 0.38623047
vn -0.35986328 -0.6098633 0.7060547
vn -0.38452148 -0.17712402 0.90625
vn -0.1887207 -0.90283203 0.38623047
vn -0.1821289 -0.30859375 0.93359375
vn -0.07739258 -0.69628906 0.7133789
vn 0.030883789 -0.42211914 0.90625
vn 0.12536621 0.3581543 0.92529297
vn -0.35229492 0.65625 0.66748047
vn -0.19042969 0.7294922 0.65722656
vn -0.07952881 0.14465332 0.9863281
vn 0.43774414 -0.203125 0.87597656
vn -0.50341797 0.5620117 0.65625
vn 0.19030762 -0.35595703 0.91503906
vn -0.36987305 0.09313965 0.9243164
vn -0.074645996 -0.47851562 0.875
vn -0.25317383 0.29638672 0.92089844
vn -0.796875 0.004749298 0.6040039
vn -0.77197266 0.24450684 0.58691406
vn -0.3076172 -0.00022232533 0.95166016
vn 0.32714844 0.24108887 0.9135742
vn -0.7753906 -0.23657227 0.5854492
vn 0.33618164 -0.0031661987 0.94189453
vn -0.2565918 -0.29614258 0.9199219
vn 0.3244629 -0.24841309 0.91259766
vn -0.3334961 -0.18115234 0.92529297
vn -0.17956543 -0.72265625 0.66748047
vn -0.3486328 -0.66845703 0.65722656
vn -0.038208008 -0.16064453 0.9863281
vn -0.18786621 0.44433594 0.87597656
vn -0.0040779114 -0.75439453 0.65625
vn 0.097961426 0.39160156 0.91503906
vn 0.21154785 -0.3173828 0.9243164
vn 0.37670898 0.30444336 0.875
vn 0.08581543 -0.3696289 0.92529297
vn 0.6489258 -0.36572266 0.66748047
vn 0.55126953 -0.51416016 0.65722656
vn 0.14465332 -0.07965088 0.9863281
vn -0.47827148 -0.062683105 0.87597656
vn 0.7260742 -0.20495605 0.65625
vn -0.35131836 0.19873047 0.91503906
vn 0.3623047 0.11932373 0.9243164
vn -0.19311523 0.4440918 0.875
vn -0.5390625 0.54052734 0.6459961
vn -0.875 0.3708496 0.3112793
vn -0.72021484 0.6269531 0.29736328
vn -0.7133789 0.30249023 0.6323242
vn -0.3076172 0.39233398 0.8666992
vn -0.9511719 0.081604004 0.29736328
vn -0.4140625 0.17553711 0.8930664
vn -0.7631836 0.011550903 0.6459961
vn -0.4958496 -0.051605225 0.8666992
vn 0.38842773 0.6567383 0.6459961
vn 0.14025879 0.9399414 0.3112793
vn 0.4267578 0.8540039 0.29736328
vn 0.11431885 0.76660156 0.6323242
vn 0.30273438 0.3959961 0.8666992
vn -0.15905762 0.94140625 0.29736328
vn 0.066345215 0.44482422 0.8930664
vn -0.17980957 0.7416992 0.6459961
vn -0.17407227 0.46728516 0.8666992
g Bush1_0
f 3/3/3 2/2/2 1/1/1
f 2/2/2 4/4/4 1/1/1
f 1/1/1 4/4/4 5/5/5
f 2/2/2 6/6/6 4/4/4
f 4/4/4 7/7/7 5/5/5
f 6/6/6 8/8/8 4/4/4
f 4/4/4 8/8/8 7/7/7
f 8/8/8 9/9/9 7/7/7
f 12/12/12 11/11/11 10/10/10
f 11/11/11 13/13/13 10/10/10
f 10/10/10 13/13/13 14/14/14
f 11/11/11 15/15/15 13/13/13
f 13/13/13 16/16/16 14/14/14
f 15/15/15 17/17/17 13/13/13
f 13/13/13 17/17/17 16/16/16
f 17/17/17 18/18/18 16/16/16
f 21/21/21 20/20/20 19/19/19
f 20/20/20 22/22/22 19/19/19
f 19/19/19 22/22/22 23/23/23
f 20/20/20 24/24/24 22/22/22
f 22/22/22 25/25/25 23/23/23
f 24/24/24 26/26/26 22/22/22
f 22/22/22 26/26/26 25/25/25
f 26/26/26 27/27/27 25/25/25
f 30/30/30 29/29/29 28/28/28
f 29/29/29 31/31/31 28/28/28
f 28/28/28 31/31/31 32/32/32
f 29/29/29 33/33/33 31/31/31
f 31/31/31 34/34/34 32/32/32
f 33/33/33 35/35/35 31/31/31
f 31/31/31 35/35/35 34/34/34
f 35/35/35 36/36/36 34/34/34
f 39/39/39 38/38/38 37/37/37
f 38/38/38 40/40/40 37/37/37
f 37/37/37 40/40/40 41/41/41
f 38/38/38 42/42/42 40/40/40
f 40/40/40 43/43/43 41/41/41
f 42/42/42 44/44/44 40/40/40
f 40/40/40 44/44/44 43/43/43
f 44/44/44 45/45/45 43/43/43
f 48/48/48 47/47/47 46/46/46
f 47/47/47 49/49/49 46/46/46
f 46/46/46 49/49/49 50/50/50
f 47/47/47 51/51/51 49/49/49
f 49/49/49 52/52/52 50/50/50
f 51/51/51 53/53/53 49/49/49
f 49/49/49 53/53/53 52/52/52
f 53/53/53 54/54/54 52/52/52
f 57/57/57 56/56/56 55/55/55
f 56/56/56 58/58/58 55/55/55
f 55/55/55 58/58/58 59/59/59
f 56/56/56 60/60/60 58/58/58
f 58/58/58 61/61/61 59/59/59
f 60/60/60 62/62/62 58/58/58
f 58/58/58 62/62/62 61/61/61
f 62/62/62 63/63/63 61/61/61
f 66/66/66 65/65/65 64/64/64
f 65/65/65 67/67/67 64/64/64
f 64/64/64 67/67/67 68/68/68
f 65/65/65 69/69/69 67/67/67
f 67/67/67 70/70/70 68/68/68
f 69/69/69 71/71/71 67/67/67
f 67/67/67 71/71/71 70/70/70
f 71/71/71 72/72/72 70/70/70
f 75/75/75 74/74/74 73/73/73
f 74/74/74 76/76/76 73/73/73
f 73/73/73 76/76/76 77/77/77
f 74/74/74 78/78/78 76/76/76
f 76/76/76 79/79/79 77/77/77
f 78/78/78 80/80/80 76/76/76
f 76/76/76 80/80/80 79/79/79
f 80/80/80 81/81/81 79/79/79
