g Collider
v 13.241694 0.23419613 -1.2219896E-08
v 13.126854 0.117098026 -0.28407836
v 12.897175 -0.11709811 -0.2840783
v 12.782334 -0.23419614 3.665969E-08
v 13.126854 0.11709807 0.28407833
v 12.897175 -0.117098026 0.28407836
v -13.090764 -0.14188294 -0.28407827
v -12.926211 0.1418829 -0.28407836
v -12.843935 0.28376582 -6.109948E-09
v -13.17304 -0.28376582 3.0549742E-08
v -12.926211 0.14188291 0.28407833
v -13.090764 -0.14188287 0.28407833
v -13.090764 -0.14188287 0.28407833
v -12.926211 0.14188291 0.28407833
v -11.448462 -0.80897033 0.28407833
v -11.627716 -1.0836852 0.28407833
v -13.17304 -0.28376582 3.0549742E-08
v -10.039684 -1.7412286 0.28407833
v -11.717344 -1.2210426 3.0549742E-08
v -13.090764 -0.14188294 -0.28407827
v -10.204369 -2.024918 0.28407833
v -8.593675 -2.4723024 0.28407827
v -11.627716 -1.0836852 -0.28407827
v -12.926211 0.1418829 -0.28407836
v -10.286711 -2.1667628 3.6659692E-08
v -8.704223 -2.7811384 0.28407827
v -6.9976835 -2.8300345 0.28407833
v -11.448462 -0.80897033 -0.28407833
v -12.843935 0.28376582 -6.109948E-09
v -10.204369 -2.024918 -0.2840783
v -8.759498 -2.9355562 3.665969E-08
v -7.0173225 -3.1574714 0.28407836
v -5.1257296 -2.6414425 0.28407833
v -11.358833 -0.67161286 -1.2219896E-08
v -12.926211 0.14188291 0.28407833
v -11.448462 -0.80897033 0.28407833
v -10.039684 -1.7412286 -0.28407833
v -9.957342 -1.5993837 -1.2219897E-08
v -10.039684 -1.7412286 0.28407833
v -8.704223 -2.7811384 -0.28407827
v -7.0271416 -3.3211899 3.0549742E-08
v -5.0469465 -2.9598663 0.28407833
v -2.850554 -1.7188045 0.2840783
v -8.5384 -2.3178847 -1.2219896E-08
v -8.593675 -2.4723024 0.28407827
v -8.593675 -2.4723024 -0.2840783
v -7.0173225 -3.1574714 -0.28407833
v -5.0075545 -3.1190784 3.0549742E-08
v -2.6976504 -2.0090132 0.28407827
v -0.049698405 0.13694507 0.28407827
v -6.9878645 -2.666316 -6.109948E-09
v -6.9976835 -2.8300345 0.28407833
v -6.9976835 -2.8300345 -0.28407833
v -5.0469465 -2.9598665 -0.28407827
v -2.6211987 -2.1541176 2.4439792E-08
v 0.13081402 -0.13694516 0.28407827
v 2.8335686 2.027204 0.28407827
v -5.1651216 -2.4822304 0
v -5.1257296 -2.6414425 0.28407833
v -5.1257296 -2.6414425 -0.28407833
v -2.6976504 -2.0090132 -0.28407827
v 0.22107029 -0.2738903 1.8329844E-08
v 2.9853702 1.7364177 0.28407827
v 5.3068233 3.0192826 0.28407833
v -2.9270058 -1.5737 -6.109948E-09
v -2.850554 -1.7188045 0.2840783
v -2.850554 -1.7188044 -0.2840783
v 0.13081414 -0.13694516 -0.28407827
v 3.0612712 1.5910244 1.2219896E-08
v 5.3876557 2.7013729 0.28407833
v 7.415257 3.2650723 0.28407833
v -0.13995457 0.27389026 6.109948E-09
v -0.049698405 0.13694507 0.28407827
v -0.049698293 0.13694514 -0.28407827
v 2.9853702 1.7364177 -0.2840782
v 5.428072 2.5424178 2.4439794E-08
v 7.4035106 2.9372573 0.28407833
v 9.203864 2.9253376 0.2840783
v 2.7576675 2.1725974 6.109948E-09
v 2.8335686 2.027204 0.28407827
v 2.8335686 2.0272043 -0.28407824
v 5.3876557 2.7013726 -0.28407833
v 7.3976374 2.7733498 2.4439792E-08
v 9.09897 2.6145356 0.28407833
v 10.715991 2.1712093 0.28407833
v 5.266407 3.1782377 -1.2219897E-08
v 5.3068233 3.0192826 0.28407833
v 5.3068233 3.0192828 -0.28407836
v 7.4035106 2.9372573 -0.2840783
v 9.046524 2.4591346 0
v 10.541722 1.893305 0.28407836
v 12.003775 1.178423 0.28407836
v 7.42113 3.4289799 0
v 7.415257 3.2650723 0.28407833
v 7.415257 3.2650723 -0.28407833
v 9.09897 2.6145356 -0.28407827
v 10.454587 1.7543527 2.4439792E-08
v 11.790659 0.92905897 0.28407836
v 13.126854 0.11709807 0.28407833
v 12.897175 -0.117098026 0.28407836
v 11.684101 0.8043769 2.4439792E-08
v 12.782334 -0.23419614 3.665969E-08
v 9.256311 3.0807385 1.8329844E-08
v 9.203864 2.9253376 0.2840783
v 9.203865 2.9253376 -0.28407833
v 10.541722 1.8933048 -0.28407833
v 11.790659 0.92905885 -0.28407833
v 12.897175 -0.11709811 -0.2840783
v 10.715991 2.1712093 -0.28407836
v 10.803126 2.3101614 6.109948E-09
v 10.715991 2.1712093 0.28407833
v 12.003775 1.1784229 -0.28407836
v 13.126854 0.117098026 -0.28407836
v 12.1103325 1.3031051 -6.109948E-09
v 12.003775 1.178423 0.28407836
v 13.241694 0.23419613 -1.2219896E-08
v 13.126854 0.11709807 0.28407833
vt 1 0
vt 0.7998047 0
vt 0.60009766 0
vt 0.39990234 0
vt 0 0
vt 0.19995117 0
vt 0.60009766 0
vt 0.7998047 0
vt 1 0
vt 0.39990234 0
vt 0 0
vt 0.19995117 0
vt 0 0.16662598
vt 0 0
vt 0.07141113 0
vt 0.07141113 0.16662598
vt 0 0.33325195
vt 0.14282227 0
vt 0.07141113 0.33325195
vt 0 0.5
vt 0.14282227 0.16662598
vt 0.2142334 0
vt 0.07141113 0.5
vt 0 0.6665039
vt 0.14282227 0.33325195
vt 0.2142334 0.16662598
vt 0.28564453 0
vt 0.07141113 0.6665039
vt 0 0.8334961
vt 0.14282227 0.5
vt 0.2142334 0.33325195
vt 0.28564453 0.16662598
vt 0.35717773 0
vt 0.07141113 0.8334961
vt 0 1
vt 0.07141113 1
vt 0.14282227 0.6665039
vt 0.14282227 0.8334961
vt 0.14282227 1
vt 0.2142334 0.5
vt 0.28564453 0.33325195
vt 0.35717773 0.16662598
vt 0.4284668 0
vt 0.2142334 0.8334961
vt 0.2142334 1
vt 0.2142334 0.6665039
vt 0.28564453 0.5
vt 0.35717773 0.33325195
vt 0.4284668 0.16662598
vt 0.5 0
vt 0.28564453 0.8334961
vt 0.28564453 1
vt 0.28564453 0.6665039
vt 0.35717773 0.5
vt 0.4284668 0.33325195
vt 0.5 0.16662598
vt 0.57128906 0
vt 0.35717773 0.8334961
vt 0.35717773 1
vt 0.35717773 0.6665039
vt 0.4284668 0.5
vt 0.5 0.33325195
vt 0.57128906 0.16662598
vt 0.6430664 0
vt 0.4284668 0.8334961
vt 0.4284668 1
vt 0.4284668 0.6665039
vt 0.5 0.5
vt 0.57128906 0.33325195
vt 0.6430664 0.16662598
vt 0.71435547 0
vt 0.5 0.8334961
vt 0.5 1
vt 0.5 0.6665039
vt 0.57128906 0.5
vt 0.6430664 0.33325195
vt 0.71435547 0.16662598
vt 0.78564453 0
vt 0.57128906 0.8334961
vt 0.57128906 1
vt 0.57128906 0.6665039
vt 0.6430664 0.5
vt 0.71435547 0.33325195
vt 0.78564453 0.16662598
vt 0.8569336 0
vt 0.6430664 0.8334961
vt 0.6430664 1
vt 0.6430664 0.6665039
vt 0.71435547 0.5
vt 0.78564453 0.33325195
vt 0.8569336 0.16662598
vt 0.92871094 0
vt 0.71435547 0.8334961
vt 0.71435547 1
vt 0.71435547 0.6665039
vt 0.78564453 0.5
vt 0.8569336 0.33325195
vt 0.92871094 0.16662598
vt 1 0
vt 1 0.16662598
vt 0.92871094 0.33325195
vt 1 0.33325195
vt 0.78564453 0.8334961
vt 0.78564453 1
vt 0.78564453 0.6665039
vt 0.8569336 0.5
vt 0.92871094 0.5
vt 1 0.5
vt 0.8569336 0.6665039
vt 0.8569336 0.8334961
vt 0.8569336 1
vt 0.92871094 0.6665039
vt 1 0.6665039
vt 0.92871094 0.8334961
vt 0.92871094 1
vt 1 0.8334961
vt 1 1
vn 0.7138672 -0.7001953 0
vn 0.7138672 -0.7001953 0
vn 0.7138672 -0.7001953 0
vn 0.7138672 -0.7001953 0
vn 0.7138672 -0.7001953 0
vn 0.7138672 -0.7001953 0
vn -0.8652344 0.50146484 0
vn -0.8652344 0.50146484 0
vn -0.8652344 0.50146484 0
vn -0.8652344 0.50146484 0
vn -0.8652344 0.50146484 0
vn -0.8652344 0.50146484 0
vn -0.26464844 -0.4111328 0.8720703
vn 0.27661133 0.42993164 0.859375
vn 0.27416992 0.42016602 0.8652344
vn -0.27246094 -0.4177246 0.8666992
vn -0.5415039 -0.8408203 0
vn 0.2442627 0.42016602 0.87402344
vn -0.5463867 -0.83740234 0
vn -0.26464844 -0.4111328 -0.8720703
vn -0.2578125 -0.44458008 0.85791016
vn 0.15844727 0.4416504 0.8828125
vn -0.27246094 -0.4177246 -0.8666992
vn 0.27661133 0.42993164 -0.859375
vn -0.50146484 -0.8652344 0
vn -0.1776123 -0.4975586 0.8491211
vn 0.02758789 0.4584961 0.8881836
vn 0.27416992 0.42016602 -0.8652344
vn 0.5410156 0.8408203 0
vn -0.2578125 -0.44458008 -0.85791016
vn -0.33618164 -0.94189453 0
vn -0.031951904 -0.53466797 0.8442383
vn -0.111694336 0.4506836 0.8857422
vn 0.5463867 0.83740234 0
vn 0.27661133 0.42993164 0.859375
vn 0.27416992 0.42016602 0.8652344
vn 0.2442627 0.42016602 -0.87402344
vn 0.5024414 0.8647461 0
vn 0.2442627 0.42016602 0.87402344
vn -0.1776123 -0.4975586 -0.8491211
vn -0.059661865 -0.9980469 0
vn 0.12756348 -0.51660156 0.8466797
vn -0.22180176 0.42041016 0.8798828
vn 0.33789062 0.94140625 0
vn 0.15844727 0.4416504 0.8828125
vn 0.15844727 0.4416504 -0.8828125
vn -0.031951904 -0.53466797 -0.8442383
vn 0.2397461 -0.9707031 0
vn 0.24365234 -0.46289062 0.8520508
vn -0.27563477 0.41845703 0.8652344
vn 0.060058594 0.9980469 0
vn 0.02758789 0.4584961 0.8881836
vn 0.02758789 0.4584961 -0.8881836
vn 0.12756348 -0.51660156 -0.8466797
vn 0.4658203 -0.8847656 0
vn 0.27514648 -0.41748047 0.86621094
vn -0.24182129 0.46362305 0.85253906
vn -0.24060059 0.9707031 0
vn -0.111694336 0.4506836 0.8857422
vn -0.111694336 0.4506836 -0.8857422
vn 0.24365234 -0.46289062 -0.8520508
vn 0.55029297 -0.83496094 0
vn 0.22021484 -0.42138672 0.8798828
vn -0.13049316 0.51416016 0.84765625
vn -0.46655273 0.8847656 0
vn -0.22180176 0.42041016 0.8798828
vn -0.22180176 0.42041016 -0.8798828
vn 0.27514648 -0.41748047 -0.86621094
vn 0.46313477 -0.88623047 0
vn 0.11517334 -0.45263672 0.88427734
vn 0.01914978 0.5341797 0.84521484
vn -0.55029297 0.83496094 0
vn -0.27563477 0.41845703 0.8652344
vn -0.27563477 0.41845703 -0.8652344
vn 0.22021484 -0.42138672 -0.8798828
vn 0.2467041 -0.9692383 0
vn -0.016525269 -0.46142578 0.88720703
vn 0.16955566 0.50341797 0.84716797
vn -0.46240234 0.88671875 0
vn -0.24182129 0.46362305 0.85253906
vn -0.24182129 0.46362305 -0.85253906
vn 0.11517334 -0.45263672 -0.88427734
vn -0.03579712 -0.9995117 0
vn -0.14904785 -0.4411621 0.8847656
vn 0.27734375 0.4428711 0.85253906
vn -0.24609375 0.9692383 0
vn -0.13049316 0.51416016 0.84765625
vn -0.13049316 0.51416016 -0.84765625
vn -0.016525269 -0.46142578 -0.88720703
vn -0.3203125 -0.9472656 0
vn -0.25317383 -0.4033203 0.87939453
vn 0.33251953 0.38916016 0.8588867
vn 0.035827637 0.9995117 0
vn 0.01914978 0.5341797 0.84521484
vn 0.01914978 0.5341797 -0.84521484
vn -0.14904785 -0.4411621 -0.8847656
vn -0.5317383 -0.8466797 0
vn -0.31713867 -0.3708496 0.8730469
vn 0.34643555 0.36669922 0.86328125
vn -0.34057617 -0.36035156 0.86865234
vn -0.64990234 -0.7597656 0
vn -0.6870117 -0.7265625 0
vn 0.31933594 0.9477539 0
vn 0.16955566 0.50341797 0.84716797
vn 0.16955566 0.50341797 -0.84716797
vn -0.25317383 -0.4033203 -0.87939453
vn -0.31713867 -0.3708496 -0.8730469
vn -0.34057617 -0.36035156 -0.86865234
vn 0.27734375 0.4428711 -0.85253906
vn 0.5307617 0.84765625 0
vn 0.27734375 0.4428711 0.85253906
vn 0.33251953 0.38916016 -0.8588867
vn 0.34643555 0.36669922 -0.86328125
vn 0.64941406 0.7602539 0
vn 0.33251953 0.38916016 0.8588867
vn 0.6870117 0.7270508 0
vn 0.34643555 0.36669922 0.86328125
g Collider_0
f 3/3/3 2/2/2 1/1/1
f 4/4/4 3/3/3 1/1/1
f 4/4/4 1/1/1 5/5/5
f 6/6/6 4/4/4 5/5/5
f 9/9/9 8/8/8 7/7/7
f 9/9/9 7/7/7 10/10/10
f 11/11/11 9/9/9 10/10/10
f 11/11/11 10/10/10 12/12/12
f 15/15/15 14/14/14 13/13/13
f 16/16/16 15/15/15 13/13/13
f 16/16/16 13/13/13 17/17/17
f 18/18/18 15/15/15 16/16/16
f 19/19/19 16/16/16 17/17/17
f 19/19/19 17/17/17 20/20/20
f 21/21/21 18/18/18 16/16/16
f 21/21/21 16/16/16 19/19/19
f 22/22/22 18/18/18 21/21/21
f 23/23/23 19/19/19 20/20/20
f 23/23/23 20/20/20 24/24/24
f 25/25/25 21/21/21 19/19/19
f 25/25/25 19/19/19 23/23/23
f 26/26/26 22/22/22 21/21/21
f 26/26/26 21/21/21 25/25/25
f 27/27/27 22/22/22 26/26/26
f 28/28/28 23/23/23 24/24/24
f 28/28/28 24/24/24 29/29/29
f 30/30/30 25/25/25 23/23/23
f 30/30/30 23/23/23 28/28/28
f 31/31/31 26/26/26 25/25/25
f 31/31/31 25/25/25 30/30/30
f 32/32/32 27/27/27 26/26/26
f 32/32/32 26/26/26 31/31/31
f 33/33/33 27/27/27 32/32/32
f 34/34/34 28/28/28 29/29/29
f 34/34/34 29/29/29 35/35/35
f 36/36/36 34/34/34 35/35/35
f 37/37/37 30/30/30 28/28/28
f 37/37/37 28/28/28 34/34/34
f 38/38/38 34/34/34 36/36/36
f 38/38/38 37/37/37 34/34/34
f 39/39/39 38/38/38 36/36/36
f 40/40/40 31/31/31 30/30/30
f 40/40/40 30/30/30 37/37/37
f 41/41/41 32/32/32 31/31/31
f 41/41/41 31/31/31 40/40/40
f 42/42/42 33/33/33 32/32/32
f 42/42/42 32/32/32 41/41/41
f 43/43/43 33/33/33 42/42/42
f 44/44/44 38/38/38 39/39/39
f 45/45/45 44/44/44 39/39/39
f 46/46/46 37/37/37 38/38/38
f 46/46/46 40/40/40 37/37/37
f 44/44/44 46/46/46 38/38/38
f 47/47/47 41/41/41 40/40/40
f 47/47/47 40/40/40 46/46/46
f 48/48/48 42/42/42 41/41/41
f 48/48/48 41/41/41 47/47/47
f 49/49/49 43/43/43 42/42/42
f 49/49/49 42/42/42 48/48/48
f 50/50/50 43/43/43 49/49/49
f 51/51/51 44/44/44 45/45/45
f 52/52/52 51/51/51 45/45/45
f 53/53/53 46/46/46 44/44/44
f 53/53/53 47/47/47 46/46/46
f 51/51/51 53/53/53 44/44/44
f 54/54/54 48/48/48 47/47/47
f 54/54/54 47/47/47 53/53/53
f 55/55/55 49/49/49 48/48/48
f 55/55/55 48/48/48 54/54/54
f 56/56/56 50/50/50 49/49/49
f 56/56/56 49/49/49 55/55/55
f 57/57/57 50/50/50 56/56/56
f 58/58/58 51/51/51 52/52/52
f 59/59/59 58/58/58 52/52/52
f 60/60/60 53/53/53 51/51/51
f 60/60/60 54/54/54 53/53/53
f 58/58/58 60/60/60 51/51/51
f 61/61/61 55/55/55 54/54/54
f 61/61/61 54/54/54 60/60/60
f 62/62/62 56/56/56 55/55/55
f 62/62/62 55/55/55 61/61/61
f 63/63/63 57/57/57 56/56/56
f 63/63/63 56/56/56 62/62/62
f 64/64/64 57/57/57 63/63/63
f 65/65/65 58/58/58 59/59/59
f 66/66/66 65/65/65 59/59/59
f 67/67/67 60/60/60 58/58/58
f 67/67/67 61/61/61 60/60/60
f 65/65/65 67/67/67 58/58/58
f 68/68/68 62/62/62 61/61/61
f 68/68/68 61/61/61 67/67/67
f 69/69/69 63/63/63 62/62/62
f 69/69/69 62/62/62 68/68/68
f 70/70/70 64/64/64 63/63/63
f 70/70/70 63/63/63 69/69/69
f 71/71/71 64/64/64 70/70/70
f 72/72/72 65/65/65 66/66/66
f 73/73/73 72/72/72 66/66/66
f 74/74/74 67/67/67 65/65/65
f 74/74/74 68/68/68 67/67/67
f 72/72/72 74/74/74 65/65/65
f 75/75/75 69/69/69 68/68/68
f 75/75/75 68/68/68 74/74/74
f 76/76/76 70/70/70 69/69/69
f 76/76/76 69/69/69 75/75/75
f 77/77/77 71/71/71 70/70/70
f 77/77/77 70/70/70 76/76/76
f 78/78/78 71/71/71 77/77/77
f 79/79/79 72/72/72 73/73/73
f 80/80/80 79/79/79 73/73/73
f 81/81/81 74/74/74 72/72/72
f 81/81/81 75/75/75 74/74/74
f 79/79/79 81/81/81 72/72/72
f 82/82/82 76/76/76 75/75/75
f 82/82/82 75/75/75 81/81/81
f 83/83/83 77/77/77 76/76/76
f 83/83/83 76/76/76 82/82/82
f 84/84/84 78/78/78 77/77/77
f 84/84/84 77/77/77 83/83/83
f 85/85/85 78/78/78 84/84/84
f 86/86/86 79/79/79 80/80/80
f 87/87/87 86/86/86 80/80/80
f 88/88/88 81/81/81 79/79/79
f 88/88/88 82/82/82 81/81/81
f 86/86/86 88/88/88 79/79/79
f 89/89/89 83/83/83 82/82/82
f 89/89/89 82/82/82 88/88/88
f 90/90/90 84/84/84 83/83/83
f 90/90/90 83/83/83 89/89/89
f 91/91/91 85/85/85 84/84/84
f 91/91/91 84/84/84 90/90/90
f 92/92/92 85/85/85 91/91/91
f 93/93/93 86/86/86 87/87/87
f 94/94/94 93/93/93 87/87/87
f 95/95/95 88/88/88 86/86/86
f 95/95/95 89/89/89 88/88/88
f 93/93/93 95/95/95 86/86/86
f 96/96/96 90/90/90 89/89/89
f 96/96/96 89/89/89 95/95/95
f 97/97/97 91/91/91 90/90/90
f 97/97/97 90/90/90 96/96/96
f 98/98/98 92/92/92 91/91/91
f 98/98/98 91/91/91 97/97/97
f 99/99/99 92/92/92 98/98/98
f 100/100/100 99/99/99 98/98/98
f 100/100/100 98/98/98 101/101/101
f 101/101/101 98/98/98 97/97/97
f 102/102/102 100/100/100 101/101/101
f 103/103/103 93/93/93 94/94/94
f 104/104/104 103/103/103 94/94/94
f 105/105/105 95/95/95 93/93/93
f 105/105/105 96/96/96 95/95/95
f 103/103/103 105/105/105 93/93/93
f 106/106/106 97/97/97 96/96/96
f 101/101/101 97/97/97 106/106/106
f 106/106/106 96/96/96 105/105/105
f 102/102/102 101/101/101 107/107/107
f 107/107/107 101/101/101 106/106/106
f 108/108/108 102/102/102 107/107/107
f 109/109/109 106/106/106 105/105/105
f 109/109/109 105/105/105 103/103/103
f 107/107/107 106/106/106 109/109/109
f 110/110/110 103/103/103 104/104/104
f 110/110/110 109/109/109 103/103/103
f 111/111/111 110/110/110 104/104/104
f 108/108/108 107/107/107 112/112/112
f 112/112/112 107/107/107 109/109/109
f 112/112/112 109/109/109 110/110/110
f 113/113/113 108/108/108 112/112/112
f 114/114/114 110/110/110 111/111/111
f 114/114/114 112/112/112 110/110/110
f 113/113/113 112/112/112 114/114/114
f 115/115/115 114/114/114 111/111/111
f 116/116/116 113/113/113 114/114/114
f 116/116/116 114/114/114 115/115/115
f 117/117/117 116/116/116 115/115/115
