g DeadTree2
v 0.0705763 -0.040748246 19.041004
v -0.0705798 -0.040748227 19.041004
v -1.7519064E-06 0.08149651 19.041004
v 8.463994E-07 1.443757 -0.09033424
v -1.2503295 -0.7218784 -0.09033424
v 1.2503312 -0.7218786 -0.09033424
v 4.5135765 3.2066205 5.7723417
v 4.4821596 3.1802413 5.857232
v 4.4453626 3.2559626 5.814787
v -0.07049504 0.30426243 6.668365
v 0.417858 -0.16764715 7.051894
v 0.30981252 -0.25836855 6.284836
v -3.4776125 -2.539032 7.812583
v -3.4509096 -2.5183785 7.867799
v -3.4299707 -2.5730386 7.8401904
v 0.1150018 -0.17466357 8.447285
v -0.18626711 0.17844218 8.714033
v -0.15103242 0.20569478 8.180538
v -2.831952 3.0212307 9.37831
v -2.8109956 2.997927 9.429572
v -2.8601642 2.9747863 9.403941
v -0.3961134 -0.14254063 9.967561
v -0.08988936 0.1606448 10.215206
v -0.0622371 0.12989515 9.719916
v 3.5162299 -2.6003373 9.425225
v 3.487567 -2.5800183 9.482691
v 3.5356336 -2.5425913 9.453959
v 0.072470516 0.25911528 10.0858
v -0.1876788 -0.14793833 10.363423
v -0.22549966 -0.121126965 9.808181
v 0.896199 3.305841 11.426095
v 0.88891387 3.2814884 11.467671
v 0.8521249 3.3057601 11.446884
v -0.26566124 0.28302318 11.90401
v 0.07360123 0.19903988 12.104865
v 0.06398866 0.166906 11.703157
v -1.4432793 2.6399064 12.435662
v -1.4328277 2.6193492 12.473382
v -1.4721835 2.6122763 12.454523
v -0.3152076 -0.07296121 12.869251
v -0.039774984 0.08414084 13.051477
v -0.02598399 0.057015378 12.687028
v -0.3052938 -2.6371338 13.588141
v -0.30228496 -2.6172013 13.621113
v -0.27069664 -2.6321635 13.604628
v 0.27044535 -0.13431352 13.967146
v -0.0052881464 -0.1061417 14.126431
v -0.0013180375 -0.0798406 13.807862
v 2.279146 0.09318441 14.559843
v 2.261596 0.09318441 14.588549
v 2.2703717 0.12232172 14.574197
v 0.04976049 0.26358217 14.889809
v 0.06133905 0.022554228 15.028484
v 0.038181573 0.022554206 14.751135
v -1.7042798 0.72934586 16.036274
v -1.6906847 0.7240325 16.06015
v -1.7063043 0.7041182 16.048212
v -0.028868739 -0.07760987 16.310713
v 0.035134215 0.11260858 16.42605
v 0.0530732 0.105597556 16.195375
v -3.8106391 -0.7942027 10.807248
v -3.7803385 -0.78746164 10.85802
v -3.784298 -0.8411387 10.832635
v 0.1039446 -0.23210028 11.390875
v -0.008624665 0.17959803 11.636157
v 0.03135767 0.1884928 11.145595
v -5.213639 2.8164725 6.6218343
v -5.17771 2.796674 6.7067246
v -5.2350807 2.73506 6.6642795
v -0.24996367 -0.20749055 7.6629496
v 0.014227949 0.41812122 8.046478
v 0.13779248 0.35003304 7.2794204
v -9.9534944E-08 1.014701 1.1489985
v 0.8787567 -0.50735056 1.1489985
v 0.0705763 -0.040748246 19.041004
v -1.7519064E-06 0.08149651 19.041004
v 0.8787567 -0.50735056 1.1489985
v -0.87875694 -0.5073504 1.1489985
v -0.0705798 -0.040748227 19.041004
v 0.0705763 -0.040748246 19.041004
v -0.87875694 -0.5073504 1.1489985
v -9.9534944E-08 1.014701 1.1489985
v -1.7519064E-06 0.08149651 19.041004
v -0.0705798 -0.040748227 19.041004
v -1.2503295 -0.7218784 -0.09033424
v 8.463994E-07 1.443757 -0.09033424
v -9.9534944E-08 1.014701 1.1489985
v -0.87875694 -0.5073504 1.1489985
v 1.2503312 -0.7218786 -0.09033424
v -1.2503295 -0.7218784 -0.09033424
v -0.87875694 -0.5073504 1.1489985
v 0.8787567 -0.50735056 1.1489985
v 8.463994E-07 1.443757 -0.09033424
v 1.2503312 -0.7218786 -0.09033424
v 0.8787567 -0.50735056 1.1489985
v -9.9534944E-08 1.014701 1.1489985
v 1.9691081 1.7583852 5.604471
v 2.1933687 1.4523988 5.3914843
v 4.5135765 3.2066205 5.7723417
v 4.4453626 3.2559626 5.814787
v 2.1933687 1.4523988 5.3914843
v 2.231683 1.4845698 5.817458
v 4.4821596 3.1802413 5.857232
v 4.5135765 3.2066205 5.7723417
v 2.231683 1.4845698 5.817458
v 1.9691081 1.7583852 5.604471
v 4.4453626 3.2559626 5.814787
v 4.4821596 3.1802413 5.857232
v 0.417858 -0.16764715 7.051894
v -0.07049504 0.30426243 6.668365
v 1.9691081 1.7583852 5.604471
v 2.231683 1.4845698 5.817458
v 0.30981252 -0.25836855 6.284836
v 0.417858 -0.16764715 7.051894
v 2.231683 1.4845698 5.817458
v 2.1933687 1.4523988 5.3914843
v -0.07049504 0.30426243 6.668365
v 0.30981252 -0.25836855 6.284836
v 2.1933687 1.4523988 5.3914843
v 1.9691081 1.7583852 5.604471
v -1.3741875 -1.1547326 7.889274
v -1.5310254 -0.94755006 7.7420964
v -3.4776125 -2.539032 7.812583
v -3.4299707 -2.5730386 7.8401904
v -1.5310254 -0.94755006 7.7420964
v -3.4509096 -2.5183785 7.867799
v -3.4776125 -2.539032 7.812583
v -1.5352914 -0.9508498 8.036451
v -0.15103242 0.20569478 8.180538
v -0.18626711 0.17844218 8.714033
v -1.5352914 -0.9508498 8.036451
v -1.3741875 -1.1547326 7.889274
v -3.4299707 -2.5730386 7.8401904
v -3.4509096 -2.5183785 7.867799
v -0.18626711 0.17844218 8.714033
v 0.1150018 -0.17466357 8.447285
v -1.3741875 -1.1547326 7.889274
v -1.5352914 -0.9508498 8.036451
v 0.1150018 -0.17466357 8.447285
v -0.15103242 0.20569478 8.180538
v -1.5310254 -0.94755006 7.7420964
v -1.3741875 -1.1547326 7.889274
v -1.4058075 1.1688869 9.449511
v -1.2247634 1.3283273 9.312872
v -2.831952 3.0212307 9.37831
v -2.8601642 2.9747863 9.403941
v -1.2247634 1.3283273 9.312872
v -2.8109956 2.997927 9.429572
v -2.831952 3.0212307 9.37831
v -1.2281115 1.3320502 9.586147
v -0.0622371 0.12989515 9.719916
v -0.08988936 0.1606448 10.215206
v -1.2281115 1.3320502 9.586147
v -1.4058075 1.1688869 9.449511
v -2.8601642 2.9747863 9.403941
v -2.8109956 2.997927 9.429572
v -0.08988936 0.1606448 10.215206
v -0.3961134 -0.14254063 9.967561
v -1.4058075 1.1688869 9.449511
v -1.2281115 1.3320502 9.586147
v -0.3961134 -0.14254063 9.967561
v -0.0622371 0.12989515 9.719916
v -1.2247634 1.3283273 9.312872
v -1.4058075 1.1688869 9.449511
v 1.4999621 -0.9261668 9.505044
v 1.3412755 -1.1451614 9.351867
v 3.5162299 -2.6003373 9.425225
v 3.5356336 -2.5425913 9.453959
v 1.3412755 -1.1451614 9.351867
v 3.487567 -2.5800183 9.482691
v 3.5162299 -2.6003373 9.425225
v 1.3458548 -1.1484077 9.658219
v -0.22549966 -0.121126965 9.808181
v -0.1876788 -0.14793833 10.363423
v 1.3458548 -1.1484077 9.658219
v 1.4999621 -0.9261668 9.505044
v 3.5356336 -2.5425913 9.453959
v 3.487567 -2.5800183 9.482691
v -0.1876788 -0.14793833 10.363423
v 0.072470516 0.25911528 10.0858
v 1.4999621 -0.9261668 9.505044
v 1.3458548 -1.1484077 9.658219
v 0.072470516 0.25911528 10.0858
v -0.22549966 -0.121126965 9.808181
v 1.3412755 -1.1451614 9.351867
v 1.4999621 -0.9261668 9.505044
v 0.21594393 1.536027 11.483843
v 0.40280604 1.4780092 11.373021
v 0.896199 3.305841 11.426095
v 0.8521249 3.3057601 11.446884
v 0.40280604 1.4780092 11.373021
v 0.88891387 3.2814884 11.467671
v 0.896199 3.305841 11.426095
v 0.40396988 1.4819 11.594663
v 0.06398866 0.166906 11.703157
v 0.07360123 0.19903988 12.104865
v 0.40396988 1.4819 11.594663
v 0.21594393 1.536027 11.483843
v 0.8521249 3.3057601 11.446884
v 0.88891387 3.2814884 11.467671
v 0.07360123 0.19903988 12.104865
v -0.26566124 0.28302318 11.90401
v 0.21594393 1.536027 11.483843
v 0.40396988 1.4819 11.594663
v -0.26566124 0.28302318 11.90401
v 0.06398866 0.166906 11.703157
v 0.40280604 1.4780092 11.373021
v 0.21594393 1.536027 11.483843
v -0.78281236 1.0515614 12.488054
v -0.62374866 1.1303651 12.387511
v -1.4432793 2.6399064 12.435662
v -1.4721835 2.6122763 12.454523
v -0.62374866 1.1303651 12.387511
v -1.4328277 2.6193492 12.473382
v -1.4432793 2.6399064 12.435662
v -0.6254184 1.1336495 12.588595
v -0.02598399 0.057015378 12.687028
v -0.039774984 0.08414084 13.051477
v -0.6254184 1.1336495 12.588595
v -0.78281236 1.0515614 12.488054
v -1.4721835 2.6122763 12.454523
v -1.4328277 2.6193492 12.473382
v -0.039774984 0.08414084 13.051477
v -0.3152076 -0.07296121 12.869251
v -0.78281236 1.0515614 12.488054
v -0.6254184 1.1336495 12.588595
v -0.3152076 -0.07296121 12.869251
v -0.02598399 0.057015378 12.687028
v -0.62374866 1.1303651 12.387511
v -0.78281236 1.0515614 12.488054
v 0.031795382 -1.1717699 13.633938
v -0.12138486 -1.147019 13.546052
v -0.3052938 -2.6371338 13.588141
v -0.27069664 -2.6321635 13.604628
v -0.12138486 -1.147019 13.546052
v -0.30228496 -2.6172013 13.621113
v -0.3052938 -2.6371338 13.588141
v -0.12186563 -1.1502036 13.721822
v -0.0013180375 -0.0798406 13.807862
v -0.0052881464 -0.1061417 14.126431
v -0.12186563 -1.1502036 13.721822
v 0.031795382 -1.1717699 13.633938
v -0.27069664 -2.6321635 13.604628
v -0.30228496 -2.6172013 13.621113
v -0.0052881464 -0.1061417 14.126431
v 0.27044535 -0.13431352 13.967146
v 0.031795382 -1.1717699 13.633938
v -0.12186563 -1.1502036 13.721822
v 0.27044535 -0.13431352 13.967146
v -0.0013180375 -0.0798406 13.807862
v -0.12138486 -1.147019 13.546052
v 0.031795382 -1.1717699 13.633938
v 0.97387385 0.19295192 14.599714
v 0.97247195 0.057869297 14.5232
v 2.279146 0.09318441 14.559843
v 2.2703717 0.12232172 14.574197
v 0.97247195 0.057869297 14.5232
v 2.261596 0.09318441 14.588549
v 2.279146 0.09318441 14.559843
v 0.97527575 0.057869315 14.676227
v 0.038181573 0.022554206 14.751135
v 0.06133905 0.022554228 15.028484
v 0.97527575 0.057869315 14.676227
v 0.97387385 0.19295192 14.599714
v 2.2703717 0.12232172 14.574197
v 2.261596 0.09318441 14.588549
v 0.06133905 0.022554228 15.028484
v 0.04976049 0.26358217 14.889809
v 0.97387385 0.19295192 14.599714
v 0.97527575 0.057869315 14.676227
v 0.04976049 0.26358217 14.889809
v 0.038181573 0.022554206 14.751135
v 0.97247195 0.057869297 14.5232
v 0.97387385 0.19295192 14.599714
v -0.72335213 0.25688356 16.069435
v -0.6813692 0.3611013 16.005798
v -1.7042798 0.72934586 16.036274
v -1.7063043 0.7041182 16.048212
v -0.6813692 0.3611013 16.005798
v -1.6906847 0.7240325 16.06015
v -1.7042798 0.72934586 16.036274
v -0.6835412 0.3619501 16.133074
v 0.0530732 0.105597556 16.195375
v 0.035134215 0.11260858 16.42605
v -0.6835412 0.3619501 16.133074
v -0.72335213 0.25688356 16.069435
v -1.7063043 0.7041182 16.048212
v -1.6906847 0.7240325 16.06015
v 0.035134215 0.11260858 16.42605
v -0.028868739 -0.07760987 16.310713
v -0.72335213 0.25688356 16.069435
v -0.6835412 0.3619501 16.133074
v -0.028868739 -0.07760987 16.310713
v 0.0530732 0.105597556 16.195375
v -0.6813692 0.3611013 16.005798
v -0.72335213 0.25688356 16.069435
v -1.5187075 -0.46510375 10.8777685
v -1.5681722 -0.23133913 10.7424345
v -3.8106391 -0.7942027 10.807248
v -3.784298 -0.8411387 10.832635
v -1.5681722 -0.23133913 10.7424345
v -3.7803385 -0.78746164 10.85802
v -3.8106391 -0.7942027 10.807248
v -1.5730131 -0.23241603 11.013102
v 0.03135767 0.1884928 11.145595
v -0.008624665 0.17959803 11.636157
v -1.5730131 -0.23241603 11.013102
v -1.5187075 -0.46510375 10.8777685
v -3.784298 -0.8411387 10.832635
v -3.7803385 -0.78746164 10.85802
v -0.008624665 0.17959803 11.636157
v 0.1039446 -0.23210028 11.390875
v -1.5187075 -0.46510375 10.8777685
v -1.5730131 -0.23241603 11.013102
v 0.1039446 -0.23210028 11.390875
v 0.03135767 0.1884928 11.145595
v -1.5681722 -0.23133913 10.7424345
v -1.5187075 -0.46510375 10.8777685
v -2.341444 1.170974 6.599056
v -2.136845 1.4904418 6.386069
v -5.213639 2.8164725 6.6218343
v -5.2350807 2.73506 6.6642795
v -2.136845 1.4904418 6.386069
v -2.1806629 1.5145869 6.8120427
v -5.17771 2.796674 6.7067246
v -5.213639 2.8164725 6.6218343
v -2.1806629 1.5145869 6.8120427
v -2.341444 1.170974 6.599056
v -5.2350807 2.73506 6.6642795
v -5.17771 2.796674 6.7067246
v 0.014227949 0.41812122 8.046478
v -0.24996367 -0.20749055 7.6629496
v -2.341444 1.170974 6.599056
v -2.1806629 1.5145869 6.8120427
v 0.13779248 0.35003304 7.2794204
v 0.014227949 0.41812122 8.046478
v -2.1806629 1.5145869 6.8120427
v -2.136845 1.4904418 6.386069
v -0.24996367 -0.20749055 7.6629496
v 0.13779248 0.35003304 7.2794204
v -2.136845 1.4904418 6.386069
v -2.341444 1.170974 6.599056
vt 0.7285156 0.13098145
vt 0.734375 0.13464355
vt 0.734375 0.1274414
vt 0.45043945 0.07507324
vt 0.5605469 0.13867188
vt 0.5605469 0.0107040405
vt 0.83251953 0.3857422
vt 0.8364258 0.3881836
vt 0.8364258 0.38354492
vt 0.72753906 0.44018555
vt 0.72753906 0.4099121
vt 0.6982422 0.43701172
vt 0.86816406 0.055664062
vt 0.8666992 0.05291748
vt 0.86621094 0.055664062
vt 0.81640625 0.13452148
vt 0.81640625 0.10797119
vt 0.79296875 0.12213135
vt 0.74316406 0.8652344
vt 0.74316406 0.8623047
vt 0.74072266 0.8642578
vt 0.84765625 0.03149414
vt 0.84228516 0.0107040405
vt 0.8276367 0.03149414
vt 0.5371094 0.47802734
vt 0.5395508 0.48046875
vt 0.5390625 0.4777832
vt 0.7734375 0.43603516
vt 0.7734375 0.4099121
vt 0.74902344 0.42456055
vt 0.64453125 0.86572266
vt 0.6435547 0.86816406
vt 0.6455078 0.86816406
vt 0.8276367 0.06347656
vt 0.84472656 0.07348633
vt 0.84472656 0.05291748
vt 0.8676758 0.0770874
vt 0.86621094 0.07788086
vt 0.8676758 0.07922363
vt 0.8535156 0.10797119
vt 0.8378906 0.11529541
vt 0.8535156 0.12512207
vt 0.6669922 0.8671875
vt 0.66845703 0.8676758
vt 0.66845703 0.86572266
vt 0.8515625 0.42504883
vt 0.8515625 0.4099121
vt 0.8378906 0.41918945
vt 0.87060547 0.012275696
vt 0.87060547 0.0107040405
vt 0.8691406 0.011253357
vt 0.5786133 0.84033203
vt 0.56640625 0.84716797
vt 0.5786133 0.8540039
vt 0.7890625 0.3881836
vt 0.7890625 0.3869629
vt 0.78808594 0.38745117
vt 0.60009766 0.8461914
vt 0.60791016 0.8520508
vt 0.60791016 0.84033203
vt 0.8598633 0.38623047
vt 0.8598633 0.38354492
vt 0.8574219 0.3852539
vt 0.7949219 0.42236328
vt 0.81640625 0.4350586
vt 0.81640625 0.4099121
vt 0.7558594 0.12976074
vt 0.7602539 0.13183594
vt 0.7602539 0.1274414
vt 0.5751953 0.81884766
vt 0.60302734 0.80615234
vt 0.56640625 0.79052734
vt 0.1796875 0.92529297
vt 0.2685547 0.92529297
vt 0.21899414 0.01071167
vt 0.21191406 0.01071167
vt 0.029693604 0.921875
vt 0.119628906 0.921875
vt 0.07977295 0.01071167
vt 0.072509766 0.01071167
vt 0.32543945 0.9199219
vt 0.4104004 0.9199219
vt 0.40844727 0.01071167
vt 0.40161133 0.01071167
vt 0.30810547 0.984375
vt 0.42895508 0.984375
vt 0.4104004 0.9199219
vt 0.32543945 0.9199219
vt 0.0107040405 0.9863281
vt 0.13867188 0.9863281
vt 0.119628906 0.921875
vt 0.029693604 0.921875
vt 0.16015625 0.9892578
vt 0.2866211 0.9892578
vt 0.2685547 0.92529297
vt 0.1796875 0.92529297
vt 0.64990234 0.30639648
vt 0.6689453 0.30639648
vt 0.6772461 0.16003418
vt 0.67285156 0.16137695
vt 0.56640625 0.27270508
vt 0.5883789 0.2746582
vt 0.6220703 0.16235352
vt 0.61865234 0.16003418
vt 0.5810547 0.5419922
vt 0.60009766 0.54589844
vt 0.5908203 0.39794922
vt 0.5864258 0.3984375
vt 0.56640625 0.6582031
vt 0.60009766 0.6669922
vt 0.60009766 0.54589844
vt 0.5810547 0.5419922
vt 0.58251953 0.375
vt 0.6220703 0.37646484
vt 0.5883789 0.2746582
vt 0.56640625 0.27270508
vt 0.6435547 0.4387207
vt 0.6772461 0.44018555
vt 0.6689453 0.30639648
vt 0.64990234 0.30639648
vt 0.75146484 0.5888672
vt 0.7651367 0.58984375
vt 0.76464844 0.46166992
vt 0.76171875 0.4621582
vt 0.6435547 0.57958984
vt 0.6748047 0.4638672
vt 0.6723633 0.46166992
vt 0.6586914 0.58251953
vt 0.64746094 0.6689453
vt 0.6748047 0.6723633
vt 0.7080078 0.28735352
vt 0.7216797 0.28735352
vt 0.72265625 0.16003418
vt 0.71972656 0.16088867
vt 0.6982422 0.3803711
vt 0.72265625 0.38134766
vt 0.7216797 0.28735352
vt 0.7080078 0.28735352
vt 0.74072266 0.6767578
vt 0.7651367 0.6796875
vt 0.7651367 0.58984375
vt 0.75146484 0.5888672
vt 0.7949219 0.27954102
vt 0.80810547 0.27905273
vt 0.8022461 0.16003418
vt 0.7993164 0.16101074
vt 0.7866211 0.56884766
vt 0.8154297 0.4633789
vt 0.81347656 0.46166992
vt 0.80029297 0.57128906
vt 0.79052734 0.64941406
vt 0.8154297 0.65234375
vt 0.8354492 0.27856445
vt 0.8486328 0.27807617
vt 0.8364258 0.16003418
vt 0.8334961 0.16101074
vt 0.83251953 0.36206055
vt 0.85595703 0.36206055
vt 0.8486328 0.27807617
vt 0.8354492 0.27856445
vt 0.78808594 0.36547852
vt 0.81103516 0.36547852
vt 0.80810547 0.27905273
vt 0.7949219 0.27954102
vt 0.70410156 0.59472656
vt 0.71728516 0.5957031
vt 0.7192383 0.46166992
vt 0.7163086 0.46240234
vt 0.5083008 0.58496094
vt 0.5395508 0.48046875
vt 0.5371094 0.47802734
vt 0.5229492 0.58935547
vt 0.51220703 0.6694336
vt 0.5395508 0.6767578
vt 0.7504883 0.29174805
vt 0.7631836 0.29296875
vt 0.76660156 0.16003418
vt 0.7636719 0.16064453
vt 0.74365234 0.38452148
vt 0.76660156 0.38793945
vt 0.7631836 0.29296875
vt 0.7504883 0.29174805
vt 0.69628906 0.6879883
vt 0.7192383 0.6904297
vt 0.71728516 0.5957031
vt 0.70410156 0.59472656
vt 0.8442383 0.78222656
vt 0.8544922 0.78222656
vt 0.85498047 0.68603516
vt 0.85253906 0.68652344
vt 0.74072266 0.7763672
vt 0.7631836 0.7026367
vt 0.76171875 0.7011719
vt 0.75146484 0.77978516
vt 0.74365234 0.8364258
vt 0.7631836 0.8408203
vt 0.5161133 0.7919922
vt 0.5263672 0.79345703
vt 0.52685547 0.6977539
vt 0.52441406 0.6982422
vt 0.5083008 0.8564453
vt 0.52685547 0.859375
vt 0.5263672 0.79345703
vt 0.5161133 0.7919922
vt 0.83691406 0.85253906
vt 0.85498047 0.85253906
vt 0.8544922 0.78222656
vt 0.8442383 0.78222656
vt 0.4560547 0.79541016
vt 0.46557617 0.7949219
vt 0.4621582 0.70751953
vt 0.46020508 0.7084961
vt 0.6435547 0.7788086
vt 0.66503906 0.6953125
vt 0.66308594 0.69384766
vt 0.6538086 0.78027344
vt 0.6464844 0.84277344
vt 0.66503906 0.84472656
vt 0.7036133 0.79833984
vt 0.7133789 0.7993164
vt 0.71240234 0.71191406
vt 0.7104492 0.71240234
vt 0.69628906 0.8588867
vt 0.7133789 0.86035156
vt 0.7133789 0.7993164
vt 0.7036133 0.79833984
vt 0.45043945 0.8588867
vt 0.46728516 0.8588867
vt 0.46557617 0.7949219
vt 0.4560547 0.79541016
vt 0.88671875 0.53759766
vt 0.89453125 0.53808594
vt 0.89501953 0.46166992
vt 0.8930664 0.46191406
vt 0.87646484 0.7607422
vt 0.89453125 0.6875
vt 0.8930664 0.68603516
vt 0.8852539 0.76220703
vt 0.87841797 0.81689453
vt 0.89453125 0.81884766
vt 0.87890625 0.23632812
vt 0.88623047 0.23608398
vt 0.8833008 0.16003418
vt 0.88183594 0.16064453
vt 0.8774414 0.2919922
vt 0.8911133 0.2919922
vt 0.88623047 0.23608398
vt 0.87890625 0.23632812
vt 0.8808594 0.58935547
vt 0.89501953 0.5913086
vt 0.89453125 0.53808594
vt 0.88671875 0.53759766
vt 0.6665039 0.07733154
vt 0.67285156 0.07751465
vt 0.6738281 0.0107040405
vt 0.6723633 0.011131287
vt 0.625 0.07598877
vt 0.6411133 0.011871338
vt 0.63964844 0.0107040405
vt 0.6328125 0.07733154
vt 0.6269531 0.12512207
vt 0.6411133 0.12670898
vt 0.69921875 0.075927734
vt 0.7055664 0.07684326
vt 0.70703125 0.0107040405
vt 0.7055664 0.010971069
vt 0.6953125 0.120910645
vt 0.70703125 0.123046875
vt 0.7055664 0.07684326
vt 0.69921875 0.075927734
vt 0.66259766 0.125
vt 0.6738281 0.12573242
vt 0.67285156 0.07751465
vt 0.6665039 0.07733154
vt 0.73095703 0.06640625
vt 0.7373047 0.066223145
vt 0.73291016 0.0107040405
vt 0.7319336 0.011138916
vt 0.79296875 0.051727295
vt 0.80615234 0.0115737915
vt 0.8051758 0.0107040405
vt 0.7993164 0.053344727
vt 0.7944336 0.08416748
vt 0.80615234 0.08654785
vt 0.7626953 0.06604004
vt 0.76904297 0.0657959
vt 0.76464844 0.0107040405
vt 0.7631836 0.011131287
vt 0.7607422 0.105651855
vt 0.7714844 0.105651855
vt 0.76904297 0.0657959
vt 0.7626953 0.06604004
vt 0.7285156 0.10601807
vt 0.7392578 0.10601807
vt 0.7373047 0.066223145
vt 0.73095703 0.06640625
vt 0.7895508 0.7919922
vt 0.8027344 0.7915039
vt 0.79052734 0.67333984
vt 0.78808594 0.6743164
vt 0.45043945 0.5966797
vt 0.4790039 0.48388672
vt 0.47680664 0.4819336
vt 0.4638672 0.5991211
vt 0.45410156 0.68310547
vt 0.4790039 0.68652344
vt 0.84228516 0.57910156
vt 0.85498047 0.5786133
vt 0.8491211 0.46166992
vt 0.8466797 0.46240234
vt 0.83691406 0.6645508
vt 0.859375 0.6645508
vt 0.85498047 0.5786133
vt 0.84228516 0.57910156
vt 0.7866211 0.8745117
vt 0.8095703 0.8745117
vt 0.8027344 0.7915039
vt 0.7895508 0.7919922
vt 0.47729492 0.29125977
vt 0.4567871 0.29101562
vt 0.48266602 0.46044922
vt 0.48706055 0.45922852
vt 0.6035156 0.0107040405
vt 0.58203125 0.014129639
vt 0.5991211 0.1348877
vt 0.6035156 0.13598633
vt 0.5097656 0.32836914
vt 0.53027344 0.32763672
vt 0.51660156 0.16003418
vt 0.5126953 0.16149902
vt 0.5083008 0.45629883
vt 0.5449219 0.45629883
vt 0.53027344 0.32763672
vt 0.5097656 0.32836914
vt 0.56640625 0.79052734
vt 0.60302734 0.80615234
vt 0.60302734 0.6982422
vt 0.5834961 0.68847656
vt 0.48706055 0.1616211
vt 0.45043945 0.16003418
vt 0.4567871 0.29101562
vt 0.47729492 0.29125977
vn -2.7656555E-05 0 1
vn -2.7656555E-05 0 1
vn -2.7656555E-05 0 1
vn -0 0 -1
vn -0 0 -1
vn -0 0 -1
vn 0.6894531 0.57910156 0.4350586
vn 0.6894531 0.57910156 0.4350586
vn 0.6894531 0.57910156 0.4350586
vn -0.75341797 -0.6323242 0.1809082
vn -0.75341797 -0.6323242 0.1809082
vn -0.75341797 -0.6323242 0.1809082
vn -0.6748047 -0.52197266 0.5214844
vn -0.6748047 -0.52197266 0.5214844
vn -0.6748047 -0.52197266 0.5214844
vn 0.78808594 0.6098633 0.08319092
vn 0.78808594 0.6098633 0.08319092
vn 0.78808594 0.6098633 0.08319092
vn -0.5703125 0.63427734 0.5214844
vn -0.5703125 0.63427734 0.5214844
vn -0.5703125 0.63427734 0.5214844
vn 0.6665039 -0.74121094 0.08319092
vn 0.6665039 -0.74121094 0.08319092
vn 0.6665039 -0.74121094 0.08319092
vn 0.6958008 -0.4934082 0.5214844
vn 0.6958008 -0.4934082 0.5214844
vn 0.6958008 -0.4934082 0.5214844
vn -0.8129883 0.5761719 0.08319092
vn -0.8129883 0.5761719 0.08319092
vn -0.8129883 0.5761719 0.08319092
vn 0.24450684 0.8173828 0.5214844
vn 0.24450684 0.8173828 0.5214844
vn 0.24450684 0.8173828 0.5214844
vn -0.28564453 -0.95458984 0.08319092
vn -0.28564453 -0.95458984 0.08319092
vn -0.28564453 -0.95458984 0.08319092
vn -0.38671875 0.7607422 0.5214844
vn -0.38671875 0.7607422 0.5214844
vn -0.38671875 0.7607422 0.5214844
vn 0.45166016 -0.8881836 0.08319092
vn 0.45166016 -0.8881836 0.08319092
vn 0.45166016 -0.8881836 0.08319092
vn -0.12731934 -0.84375 0.5214844
vn -0.12731934 -0.84375 0.5214844
vn -0.12731934 -0.84375 0.5214844
vn 0.14868164 0.98535156 0.08319092
vn 0.14868164 0.98535156 0.08319092
vn 0.14868164 0.98535156 0.08319092
vn 0.85302734 -3.8027763E-05 0.5214844
vn 0.85302734 -3.8027763E-05 0.5214844
vn 0.85302734 -3.8027763E-05 0.5214844
vn -0.99658203 0 0.08319092
vn -0.99658203 0 0.08319092
vn -0.99658203 0 0.08319092
vn -0.7944336 0.31054688 0.5214844
vn -0.7944336 0.31054688 0.5214844
vn -0.7944336 0.31054688 0.5214844
vn 0.92822266 -0.36279297 0.08319092
vn 0.92822266 -0.36279297 0.08319092
vn 0.92822266 -0.36279297 0.08319092
vn -0.8330078 -0.18530273 0.5214844
vn -0.8330078 -0.18530273 0.5214844
vn -0.8330078 -0.18530273 0.5214844
vn 0.97265625 0.21643066 0.08319092
vn 0.97265625 0.21643066 0.08319092
vn 0.97265625 0.21643066 0.08319092
vn -0.7885742 0.4345703 0.4350586
vn -0.7885742 0.4345703 0.4350586
vn -0.7885742 0.4345703 0.4350586
vn 0.8613281 -0.47460938 0.1809082
vn 0.8613281 -0.47460938 0.1809082
vn 0.8613281 -0.47460938 0.1809082
vn 0.86572266 0.49975586 0.02607727
vn 0.86572266 0.49975586 0.02607727
vn 0.86572266 0.49975586 0.02607727
vn 0.86572266 0.49975586 0.02607727
vn -0 -0.9995117 0.02607727
vn -0 -0.9995117 0.02607727
vn -0 -0.9995117 0.02607727
vn -0 -0.9995117 0.02607727
vn -0.86572266 0.49975586 0.02607727
vn -0.86572266 0.49975586 0.02607727
vn -0.86572266 0.49975586 0.02607727
vn -0.86572266 0.49975586 0.02607727
vn -0.8535156 0.49267578 0.17053223
vn -0.8535156 0.49267578 0.17053223
vn -0.8535156 0.49267578 0.17053223
vn -0.8535156 0.49267578 0.17053223
vn -0 -0.98535156 0.17053223
vn -0 -0.98535156 0.17053223
vn -0 -0.98535156 0.17053223
vn -0 -0.98535156 0.17053223
vn 0.8535156 0.49267578 0.17053223
vn 0.8535156 0.49267578 0.17053223
vn 0.8535156 0.49267578 0.17053223
vn 0.8535156 0.49267578 0.17053223
vn -0.20251465 0.45629883 -0.8666992
vn -0.20251465 0.45629883 -0.8666992
vn -0.20251465 0.45629883 -0.8666992
vn -0.20251465 0.45629883 -0.8666992
vn 0.60253906 -0.79833984 0.0009150505
vn 0.60253906 -0.79833984 0.0009150505
vn 0.60253906 -0.79833984 0.0009150505
vn 0.60253906 -0.79833984 0.0009150505
vn -0.30273438 0.37963867 0.87402344
vn -0.30273438 0.37963867 0.87402344
vn -0.30273438 0.37963867 0.87402344
vn -0.30273438 0.37963867 0.87402344
vn -0.021133423 0.6113281 0.7910156
vn -0.021133423 0.6113281 0.7910156
vn -0.021133423 0.6113281 0.7910156
vn -0.021133423 0.6113281 0.7910156
vn 0.67089844 -0.74121094 -0.0059394836
vn 0.67089844 -0.74121094 -0.0059394836
vn 0.67089844 -0.74121094 -0.0059394836
vn 0.67089844 -0.74121094 -0.0059394836
vn -0.55029297 0.17736816 -0.81591797
vn -0.55029297 0.17736816 -0.81591797
vn -0.55029297 0.17736816 -0.81591797
vn -0.55029297 0.17736816 -0.81591797
vn 0.28833008 -0.38964844 -0.8745117
vn 0.28833008 -0.38964844 -0.8745117
vn 0.28833008 -0.38964844 -0.8745117
vn 0.28833008 -0.38964844 -0.8745117
vn -0.6333008 0.7739258 0.0022125244
vn -0.6333008 0.7739258 0.0022125244
vn -0.6333008 0.7739258 0.0022125244
vn -0.6333008 0.7739258 0.0022125244
vn -0.6411133 0.7675781 -0.0022602081
vn -0.6411133 0.7675781 -0.0022602081
vn 0.25952148 -0.40893555 0.875
vn 0.25952148 -0.40893555 0.875
vn 0.25952148 -0.40893555 0.875
vn 0.25952148 -0.40893555 0.875
vn 0.059631348 -0.5629883 0.82421875
vn 0.059631348 -0.5629883 0.82421875
vn 0.059631348 -0.5629883 0.82421875
vn 0.059631348 -0.5629883 0.82421875
vn 0.47802734 -0.24938965 -0.84228516
vn 0.47802734 -0.24938965 -0.84228516
vn 0.47802734 -0.24938965 -0.84228516
vn 0.47802734 -0.24938965 -0.84228516
vn -0.3671875 -0.31640625 -0.8745117
vn -0.3671875 -0.31640625 -0.8745117
vn -0.3671875 -0.31640625 -0.8745117
vn -0.3671875 -0.31640625 -0.8745117
vn 0.72509766 0.68847656 0.0022125244
vn 0.72509766 0.68847656 0.0022125244
vn 0.72509766 0.68847656 0.0022125244
vn 0.72509766 0.68847656 0.0022125244
vn 0.71777344 0.69628906 -0.0022602081
vn 0.71777344 0.69628906 -0.0022602081
vn -0.38842773 -0.2890625 0.875
vn -0.38842773 -0.2890625 0.875
vn -0.38842773 -0.2890625 0.875
vn -0.38842773 -0.2890625 0.875
vn -0.5571289 -0.101135254 0.82421875
vn -0.5571289 -0.101135254 0.82421875
vn -0.5571289 -0.101135254 0.82421875
vn -0.5571289 -0.101135254 0.82421875
vn -0.2133789 -0.4951172 -0.84228516
vn -0.2133789 -0.4951172 -0.84228516
vn -0.2133789 -0.4951172 -0.84228516
vn -0.2133789 -0.4951172 -0.84228516
vn 0.28857422 0.38916016 -0.8745117
vn 0.28857422 0.38916016 -0.8745117
vn 0.28857422 0.38916016 -0.8745117
vn 0.28857422 0.38916016 -0.8745117
vn -0.55566406 -0.8310547 0.0022125244
vn -0.55566406 -0.8310547 0.0022125244
vn -0.55566406 -0.8310547 0.0022125244
vn -0.55566406 -0.8310547 0.0022125244
vn -0.5473633 -0.83691406 -0.0022602081
vn -0.5473633 -0.83691406 -0.0022602081
vn 0.3154297 0.36743164 0.875
vn 0.3154297 0.36743164 0.875
vn 0.3154297 0.36743164 0.875
vn 0.3154297 0.36743164 0.875
vn 0.5209961 0.2211914 0.82421875
vn 0.5209961 0.2211914 0.82421875
vn 0.5209961 0.2211914 0.82421875
vn 0.5209961 0.2211914 0.82421875
vn 0.099243164 0.52978516 -0.84228516
vn 0.099243164 0.52978516 -0.84228516
vn 0.099243164 0.52978516 -0.84228516
vn 0.099243164 0.52978516 -0.84228516
vn -0.46118164 0.14868164 -0.8745117
vn -0.46118164 0.14868164 -0.8745117
vn -0.46118164 0.14868164 -0.8745117
vn -0.46118164 0.14868164 -0.8745117
vn 0.96533203 -0.2602539 0.0022144318
vn 0.96533203 -0.2602539 0.0022144318
vn 0.96533203 -0.2602539 0.0022144318
vn 0.96533203 -0.2602539 0.0022144318
vn 0.9682617 -0.25048828 -0.0022602081
vn 0.9682617 -0.25048828 -0.0022602081
vn -0.4489746 0.18127441 0.875
vn -0.4489746 0.18127441 0.875
vn -0.4489746 0.18127441 0.875
vn -0.4489746 0.18127441 0.875
vn -0.37646484 0.42285156 0.82421875
vn -0.37646484 0.42285156 0.82421875
vn -0.37646484 0.42285156 0.82421875
vn -0.37646484 0.42285156 0.82421875
vn -0.5336914 -0.075683594 -0.84228516
vn -0.5336914 -0.075683594 -0.84228516
vn -0.5336914 -0.075683594 -0.84228516
vn -0.5336914 -0.075683594 -0.84228516
vn -0.43652344 -0.21032715 -0.8745117
vn -0.43652344 -0.21032715 -0.8745117
vn -0.43652344 -0.21032715 -0.8745117
vn -0.43652344 -0.21032715 -0.8745117
vn 0.87890625 0.47729492 0.0022125244
vn 0.87890625 0.47729492 0.0022125244
vn 0.87890625 0.47729492 0.0022125244
vn 0.87890625 0.47729492 0.0022125244
vn 0.87402344 0.48632812 -0.0022602081
vn 0.87402344 0.48632812 -0.0022602081
vn -0.4501953 -0.1784668 0.875
vn -0.4501953 -0.1784668 0.875
vn -0.4501953 -0.1784668 0.875
vn -0.4501953 -0.1784668 0.875
vn -0.5644531 0.046661377 0.82421875
vn -0.5644531 0.046661377 0.82421875
vn -0.5644531 0.046661377 0.82421875
vn -0.5644531 0.046661377 0.82421875
vn -0.33422852 -0.42285156 -0.84228516
vn -0.33422852 -0.42285156 -0.84228516
vn -0.33422852 -0.42285156 -0.84228516
vn -0.33422852 -0.42285156 -0.84228516
vn 0.47753906 -0.08251953 -0.8745117
vn 0.47753906 -0.08251953 -0.8745117
vn 0.47753906 -0.08251953 -0.8745117
vn 0.47753906 -0.08251953 -0.8745117
vn -0.9926758 0.12225342 0.0022125244
vn -0.9926758 0.12225342 0.0022125244
vn -0.9926758 0.12225342 0.0022125244
vn -0.9926758 0.12225342 0.0022125244
vn -0.99365234 0.11212158 -0.0022602081
vn -0.99365234 0.11212158 -0.0022602081
vn 0.4699707 -0.11639404 0.875
vn 0.4699707 -0.11639404 0.875
vn 0.4699707 -0.11639404 0.875
vn 0.4699707 -0.11639404 0.875
vn 0.4321289 -0.3659668 0.82421875
vn 0.4321289 -0.3659668 0.82421875
vn 0.4321289 -0.3659668 0.82421875
vn 0.4321289 -0.3659668 0.82421875
vn 0.5180664 0.14990234 -0.84228516
vn 0.5180664 0.14990234 -0.84228516
vn 0.5180664 0.14990234 -0.84228516
vn 0.5180664 0.14990234 -0.84228516
vn 0.010314941 0.484375 -0.8745117
vn 0.010314941 0.484375 -0.8745117
vn 0.010314941 0.484375 -0.8745117
vn 0.010314941 0.484375 -0.8745117
vn 0.027267456 -0.9995117 0.0022125244
vn 0.027267456 -0.9995117 0.0022125244
vn 0.027267456 -0.9995117 0.0022125244
vn 0.027267456 -0.9995117 0.0022125244
vn 0.037475586 -0.9995117 -0.0022602081
vn 0.037475586 -0.9995117 -0.0022602081
vn 0.044952393 0.48217773 0.875
vn 0.044952393 0.48217773 0.875
vn 0.044952393 0.48217773 0.875
vn 0.044952393 0.48217773 0.875
vn 0.29736328 0.4819336 0.82421875
vn 0.29736328 0.4819336 0.82421875
vn 0.29736328 0.4819336 0.82421875
vn 0.29736328 0.4819336 0.82421875
vn -0.22546387 0.4897461 -0.84228516
vn -0.22546387 0.4897461 -0.84228516
vn -0.22546387 0.4897461 -0.84228516
vn -0.22546387 0.4897461 -0.84228516
vn -0.18591309 -0.44750977 -0.8745117
vn -0.18591309 -0.44750977 -0.8745117
vn -0.18591309 -0.44750977 -0.8745117
vn -0.18591309 -0.44750977 -0.8745117
vn 0.3383789 0.94091797 0.0022144318
vn 0.3383789 0.94091797 0.0022144318
vn 0.3383789 0.94091797 0.0022144318
vn 0.3383789 0.94091797 0.0022144318
vn 0.32885742 0.94433594 -0.0022602081
vn 0.32885742 0.94433594 -0.0022602081
vn -0.21740723 -0.4326172 0.875
vn -0.21740723 -0.4326172 0.875
vn -0.21740723 -0.4326172 0.875
vn -0.21740723 -0.4326172 0.875
vn -0.45239258 -0.34057617 0.82421875
vn -0.45239258 -0.34057617 0.82421875
vn -0.45239258 -0.34057617 0.82421875
vn -0.45239258 -0.34057617 0.82421875
vn 0.0317688 -0.53808594 -0.84228516
vn 0.0317688 -0.53808594 -0.84228516
vn 0.0317688 -0.53808594 -0.84228516
vn 0.0317688 -0.53808594 -0.84228516
vn 0.09515381 -0.47509766 -0.8745117
vn 0.09515381 -0.47509766 -0.8745117
vn 0.09515381 -0.47509766 -0.8745117
vn 0.09515381 -0.47509766 -0.8745117
vn -0.24365234 0.96972656 0.0022125244
vn -0.24365234 0.96972656 0.0022125244
vn -0.24365234 0.96972656 0.0022125244
vn -0.24365234 0.96972656 0.0022125244
vn -0.2536621 0.96728516 -0.0022602081
vn -0.2536621 0.96728516 -0.0022602081
vn 0.060821533 -0.48046875 0.875
vn 0.060821533 -0.48046875 0.875
vn 0.060821533 -0.48046875 0.875
vn 0.060821533 -0.48046875 0.875
vn -0.18554688 -0.53515625 0.82421875
vn -0.18554688 -0.53515625 0.82421875
vn -0.18554688 -0.53515625 0.82421875
vn -0.18554688 -0.53515625 0.82421875
vn 0.32641602 -0.42895508 -0.84228516
vn 0.32641602 -0.42895508 -0.84228516
vn 0.32641602 -0.42895508 -0.84228516
vn 0.32641602 -0.42895508 -0.84228516
vn -0.24645996 -0.4182129 -0.8745117
vn -0.24645996 -0.4182129 -0.8745117
vn -0.24645996 -0.4182129 -0.8745117
vn -0.24645996 -0.4182129 -0.8745117
vn 0.39453125 0.9189453 -0.0017261505
vn 0.39453125 0.9189453 -0.0017261505
vn 0.39453125 0.9189453 -0.0017261505
vn 0.39453125 0.9189453 -0.0017261505
vn -0.21606445 -0.43481445 0.87402344
vn -0.21606445 -0.43481445 0.87402344
vn -0.21606445 -0.43481445 0.87402344
vn -0.21606445 -0.43481445 0.87402344
vn -0.5629883 -0.2401123 0.7910156
vn -0.5629883 -0.2401123 0.7910156
vn -0.5629883 -0.2401123 0.7910156
vn -0.5629883 -0.2401123 0.7910156
vn 0.44970703 0.8930664 -0.0059394836
vn 0.44970703 0.8930664 -0.0059394836
vn 0.44970703 0.8930664 -0.0059394836
vn 0.44970703 0.8930664 -0.0059394836
vn 0.032806396 -0.57714844 -0.81591797
vn 0.032806396 -0.57714844 -0.81591797
vn 0.032806396 -0.57714844 -0.81591797
vn 0.032806396 -0.57714844 -0.81591797
g DeadTree2_0
f 3/3/3 2/2/2 1/1/1
f 6/6/6 5/5/5 4/4/4
f 9/9/9 8/8/8 7/7/7
f 12/12/12 11/11/11 10/10/10
f 15/15/15 14/14/14 13/13/13
f 18/18/18 17/17/17 16/16/16
f 21/21/21 20/20/20 19/19/19
f 24/24/24 23/23/23 22/22/22
f 27/27/27 26/26/26 25/25/25
f 30/30/30 29/29/29 28/28/28
f 33/33/33 32/32/32 31/31/31
f 36/36/36 35/35/35 34/34/34
f 39/39/39 38/38/38 37/37/37
f 42/42/42 41/41/41 40/40/40
f 45/45/45 44/44/44 43/43/43
f 48/48/48 47/47/47 46/46/46
f 51/51/51 50/50/50 49/49/49
f 54/54/54 53/53/53 52/52/52
f 57/57/57 56/56/56 55/55/55
f 60/60/60 59/59/59 58/58/58
f 63/63/63 62/62/62 61/61/61
f 66/66/66 65/65/65 64/64/64
f 69/69/69 68/68/68 67/67/67
f 72/72/72 71/71/71 70/70/70
f 75/75/75 74/74/74 73/73/73
f 76/76/76 75/75/75 73/73/73
f 79/79/79 78/78/78 77/77/77
f 80/80/80 79/79/79 77/77/77
f 83/83/83 82/82/82 81/81/81
f 84/84/84 83/83/83 81/81/81
f 87/87/87 86/86/86 85/85/85
f 88/88/88 87/87/87 85/85/85
f 91/91/91 90/90/90 89/89/89
f 92/92/92 91/91/91 89/89/89
f 95/95/95 94/94/94 93/93/93
f 96/96/96 95/95/95 93/93/93
f 99/99/99 98/98/98 97/97/97
f 100/100/100 99/99/99 97/97/97
f 103/103/103 102/102/102 101/101/101
f 104/104/104 103/103/103 101/101/101
f 107/107/107 106/106/106 105/105/105
f 108/108/108 107/107/107 105/105/105
f 111/111/111 110/110/110 109/109/109
f 112/112/112 111/111/111 109/109/109
f 115/115/115 114/114/114 113/113/113
f 116/116/116 115/115/115 113/113/113
f 119/119/119 118/118/118 117/117/117
f 120/120/120 119/119/119 117/117/117
f 123/123/123 122/122/122 121/121/121
f 124/124/124 123/123/123 121/121/121
f 127/127/127 126/126/126 125/125/125
f 126/126/126 128/128/128 125/125/125
f 125/125/125 128/128/128 129/129/129
f 128/128/128 130/130/130 129/129/129
f 133/133/133 132/132/132 131/131/131
f 134/134/134 133/133/133 131/131/131
f 137/137/137 136/136/136 135/135/135
f 138/138/138 137/137/137 135/135/135
f 141/141/141 140/140/140 139/139/139
f 142/142/142 141/141/141 139/139/139
f 145/145/145 144/144/144 143/143/143
f 146/146/146 145/145/145 143/143/143
f 149/149/149 148/148/148 147/147/147
f 148/148/148 150/150/150 147/147/147
f 147/147/147 150/150/150 151/151/151
f 150/150/150 152/152/152 151/151/151
f 155/155/155 154/154/154 153/153/153
f 156/156/156 155/155/155 153/153/153
f 159/159/159 158/158/158 157/157/157
f 160/160/160 159/159/159 157/157/157
f 163/163/163 162/162/162 161/161/161
f 164/164/164 163/163/163 161/161/161
f 167/167/167 166/166/166 165/165/165
f 168/168/168 167/167/167 165/165/165
f 171/171/171 170/170/170 169/169/169
f 170/170/170 172/172/172 169/169/169
f 169/169/169 172/172/172 173/173/173
f 172/172/172 174/174/174 173/173/173
f 177/177/177 176/176/176 175/175/175
f 178/178/178 177/177/177 175/175/175
f 181/181/181 180/180/180 179/179/179
f 182/182/182 181/181/181 179/179/179
f 185/185/185 184/184/184 183/183/183
f 186/186/186 185/185/185 183/183/183
f 189/189/189 188/188/188 187/187/187
f 190/190/190 189/189/189 187/187/187
f 193/193/193 192/192/192 191/191/191
f 192/192/192 194/194/194 191/191/191
f 191/191/191 194/194/194 195/195/195
f 194/194/194 196/196/196 195/195/195
f 199/199/199 198/198/198 197/197/197
f 200/200/200 199/199/199 197/197/197
f 203/203/203 202/202/202 201/201/201
f 204/204/204 203/203/203 201/201/201
f 207/207/207 206/206/206 205/205/205
f 208/208/208 207/207/207 205/205/205
f 211/211/211 210/210/210 209/209/209
f 212/212/212 211/211/211 209/209/209
f 215/215/215 214/214/214 213/213/213
f 214/214/214 216/216/216 213/213/213
f 213/213/213 216/216/216 217/217/217
f 216/216/216 218/218/218 217/217/217
f 221/221/221 220/220/220 219/219/219
f 222/222/222 221/221/221 219/219/219
f 225/225/225 224/224/224 223/223/223
f 226/226/226 225/225/225 223/223/223
f 229/229/229 228/228/228 227/227/227
f 230/230/230 229/229/229 227/227/227
f 233/233/233 232/232/232 231/231/231
f 234/234/234 233/233/233 231/231/231
f 237/237/237 236/236/236 235/235/235
f 236/236/236 238/238/238 235/235/235
f 235/235/235 238/238/238 239/239/239
f 238/238/238 240/240/240 239/239/239
f 243/243/243 242/242/242 241/241/241
f 244/244/244 243/243/243 241/241/241
f 247/247/247 246/246/246 245/245/245
f 248/248/248 247/247/247 245/245/245
f 251/251/251 250/250/250 249/249/249
f 252/252/252 251/251/251 249/249/249
f 255/255/255 254/254/254 253/253/253
f 256/256/256 255/255/255 253/253/253
f 259/259/259 258/258/258 257/257/257
f 258/258/258 260/260/260 257/257/257
f 257/257/257 260/260/260 261/261/261
f 260/260/260 262/262/262 261/261/261
f 265/265/265 264/264/264 263/263/263
f 266/266/266 265/265/265 263/263/263
f 269/269/269 268/268/268 267/267/267
f 270/270/270 269/269/269 267/267/267
f 273/273/273 272/272/272 271/271/271
f 274/274/274 273/273/273 271/271/271
f 277/277/277 276/276/276 275/275/275
f 278/278/278 277/277/277 275/275/275
f 281/281/281 280/280/280 279/279/279
f 280/280/280 282/282/282 279/279/279
f 279/279/279 282/282/282 283/283/283
f 282/282/282 284/284/284 283/283/283
f 287/287/287 286/286/286 285/285/285
f 288/288/288 287/287/287 285/285/285
f 291/291/291 290/290/290 289/289/289
f 292/292/292 291/291/291 289/289/289
f 295/295/295 294/294/294 293/293/293
f 296/296/296 295/295/295 293/293/293
f 299/299/299 298/298/298 297/297/297
f 300/300/300 299/299/299 297/297/297
f 303/303/303 302/302/302 301/301/301
f 302/302/302 304/304/304 301/301/301
f 301/301/301 304/304/304 305/305/305
f 304/304/304 306/306/306 305/305/305
f 309/309/309 308/308/308 307/307/307
f 310/310/310 309/309/309 307/307/307
f 313/313/313 312/312/312 311/311/311
f 314/314/314 313/313/313 311/311/311
f 317/317/317 316/316/316 315/315/315
f 318/318/318 317/317/317 315/315/315
f 321/321/321 320/320/320 319/319/319
f 322/322/322 321/321/321 319/319/319
f 325/325/325 324/324/324 323/323/323
f 326/326/326 325/325/325 323/323/323
f 329/329/329 328/328/328 327/327/327
f 330/330/330 329/329/329 327/327/327
f 333/333/333 332/332/332 331/331/331
f 334/334/334 333/333/333 331/331/331
f 337/337/337 336/336/336 335/335/335
f 338/338/338 337/337/337 335/335/335
f 341/341/341 340/340/340 339/339/339
f 342/342/342 341/341/341 339/339/339
