g DesertTree1
v -4.345216 -9.79115 16.908243
v -4.4552455 -9.8789 16.852383
v -4.598512 -9.829894 16.852383
v -4.344692 -9.698132 16.695093
v -4.521726 -9.605396 16.964106
v -4.378458 -9.654402 16.964106
v 1.2212752 0.70510346 0.29292935
v 1.2212752 -0.70510364 0.29292935
v 0.17354202 -0.5476102 5.9122205
v 0.17354208 0.5476099 5.9122205
v -2.6631036 0.44858038 9.750264
v -2.6631036 -0.44858027 9.750264
v -4.2950644 0.2805983 14.805799
v -4.2950644 -0.28059787 14.805799
v -8.52748 0.11715644 19.563154
v -8.52748 -0.11715578 19.563154
v -1.2212752 0.7051034 0.29292935
v 8.150083E-09 1.4102072 0.29292935
v -0.6627623 1.1012881 5.466502
v -1.5110795 0.5540857 5.020614
v -1.2212752 -0.7051034 0.29292935
v -1.5110795 -0.5540859 5.020614
v -4.18042 -0.4485801 9.414941
v -4.18042 0.44858032 9.414941
v -3.4217615 0.8971607 9.582602
v -5.1818614 -0.28059778 14.436696
v -5.1818614 0.28059825 14.436696
v -4.7384624 0.5611964 14.621246
v -8.796687 -0.11715572 19.25945
v -8.796687 0.11715644 19.25945
v -8.662085 0.23431255 19.411303
v -8.52748 0.11715644 19.563154
v -8.52748 -0.11715578 19.563154
v -8.662085 -0.23431177 19.411303
v -1.3306725 -0.76826394 -0.27665836
v -1.9695914 -1.1371439 -1.7147598
v -1.9695914 1.1371439 -1.7147598
v -1.3306725 0.7682639 -0.27665836
v 6.8707685E-08 2.2742882 -1.7147598
v 2.1031829E-08 1.5365282 -0.27665836
v 2.1031829E-08 1.5365282 -0.27665836
v 6.8707685E-08 2.2742882 -1.7147598
v 1.9695915 1.1371441 -1.7147598
v 1.3306725 0.76826406 -0.27665836
v 1.2212752 0.70510346 0.29292935
v 1.2212752 -0.70510364 0.29292935
v 1.3306724 -0.76826423 -0.27665836
v -1.15134135E-07 -1.4102072 0.29292935
v -1.1329572E-07 -1.5365282 -0.27665836
v 8.150083E-09 1.4102072 0.29292935
v -1.3306725 0.7682639 -0.27665836
v 0.17354208 0.5476099 5.9122205
v -1.2212752 0.7051034 0.29292935
v -1.3306725 -0.76826394 -0.27665836
v -1.2212752 -0.7051034 0.29292935
v -0.6627623 1.1012881 5.466502
v -3.4217615 0.8971607 9.582602
v -2.6631036 0.44858038 9.750264
v -4.7384624 0.5611964 14.621246
v -4.2950644 0.2805983 14.805799
v -8.662085 0.23431255 19.411303
v -8.52748 0.11715644 19.563154
v -1.3011689E-07 -2.2742882 -1.7147598
v 1.9695915 -1.1371442 -1.7147598
v 1.9695915 1.1371441 -1.7147598
v 6.8707685E-08 2.2742882 -1.7147598
v -1.9695914 1.1371439 -1.7147598
v -1.9695914 -1.1371439 -1.7147598
v -5.1818614 -0.28059778 14.436696
v -8.796687 -0.11715572 19.25945
v -8.662085 -0.23431177 19.411303
v -4.738463 -0.56119585 14.621246
v -8.52748 -0.11715578 19.563154
v -4.18042 -0.4485801 9.414941
v -4.2950644 -0.28059787 14.805799
v -3.4217615 -0.8971605 9.582602
v -2.6631036 -0.44858027 9.750264
v -1.5110795 -0.5540859 5.020614
v -0.6627623 -1.1012883 5.466502
v 0.17354202 -0.5476102 5.9122205
v 1.2212752 -0.70510364 0.29292935
v -1.15134135E-07 -1.4102072 0.29292935
v -1.2212752 -0.7051034 0.29292935
v -1.1329572E-07 -1.5365282 -0.27665836
v -1.3306725 -0.76826394 -0.27665836
v -1.9695914 -1.1371439 -1.7147598
v -1.3011689E-07 -2.2742882 -1.7147598
v 1.3306724 -0.76826423 -0.27665836
v 1.9695915 -1.1371442 -1.7147598
v 2.9083128 0.024103105 10.887075
v 5.7289543 -1.1246619 20.204245
v 5.650424 -1.1570388 20.237963
v 2.3114047 -0.23669094 11.183594
v 5.634336 -1.2470021 20.237963
v 2.1858811 -0.9386065 11.183594
v -1.0983361 -0.434094 6.405474
v -0.94411457 0.42829823 6.405474
v -0.3744708 0.7693918 5.833929
v 0.041516215 0.2506991 5.2655597
v -0.11224136 -0.60909885 5.2655597
v -0.68221295 -0.95147234 5.833929
v 0.041516215 0.2506991 5.2655597
v -0.11224136 -0.60909885 5.2655597
v 3.2600002 -1.1359934 10.587641
v 3.3873613 -0.42380232 10.587641
v -0.3744708 0.7693918 5.833929
v 2.9083128 0.024103105 10.887075
v 5.7289543 -1.1246619 20.204245
v 5.791396 -1.1822488 20.170525
v 5.7753077 -1.2722121 20.170525
v -0.68221295 -0.95147234 5.833929
v -1.0983361 -0.434094 6.405474
v 2.1858811 -0.9386065 11.183594
v 2.655409 -1.3901113 10.887075
v -0.11224136 -0.60909885 5.2655597
v 3.2600002 -1.1359934 10.587641
v 5.7753077 -1.2722121 20.170525
v 5.6734176 -1.132881 20.07559
v 5.634336 -1.2470021 20.237963
v 3.0086632 3.7497585 11.281881
v 4.2688475 6.48247 16.10858
v 4.056231 6.399689 16.199144
v 2.6072612 3.5966296 11.478035
v 4.041758 6.1719856 16.28971
v 2.5890777 3.170302 11.672279
v 0.81179845 -0.4060903 9.01593
v 0.7748785 0.027285561 8.641521
v 1.1998063 0.12293933 8.269196
v 1.1998063 0.12293933 8.269196
v 3.3912039 3.469963 11.281881
v 3.0086632 3.7497585 11.281881
v 1.6616315 -0.21484533 8.269196
v 1.2750174 -0.7448937 9.01593
v 1.6992108 -0.6487819 8.641521
v 0.81179845 -0.4060903 9.01593
v 0.7748785 0.027285561 8.641521
v 3.3912039 3.469963 11.281881
v 4.2688475 6.48247 16.10858
v 3.0086632 3.7497585 11.281881
v 4.4669857 6.3375473 16.10858
v 3.3668816 3.0410337 11.478035
v 4.3745146 5.866147 16.02326
v 1.6616315 -0.21484533 8.269196
v 1.6992108 -0.6487819 8.641521
v 2.9660993 2.894544 11.672279
v 1.2750174 -0.7448937 9.01593
v 2.5890777 3.170302 11.672279
v 4.041758 6.1719856 16.28971
v 4.239896 6.0270686 16.28971
v 2.9660993 2.894544 11.672279
v 4.3745146 5.866147 16.02326
v 3.3668816 3.0410337 11.478035
v 1.2750174 -0.7448937 9.01593
v 0.81179845 -0.4060903 9.01593
v 4.2688475 6.48247 16.10858
v 4.4669857 6.3375473 16.10858
v 4.3745146 5.866147 16.02326
v 4.239896 6.0270686 16.28971
v 4.056231 6.399689 16.199144
v 4.041758 6.1719856 16.28971
v -4.043089 -5.488528 11.994185
v -4.4552455 -9.8789 16.852383
v -4.345216 -9.79115 16.908243
v -3.6096299 -5.1476684 12.2459545
v -4.378458 -9.654402 16.964106
v -3.750066 -4.618276 12.495273
v -3.2120674 0.20129783 10.112771
v -3.047947 -0.20149533 9.738362
v -3.4252079 -0.41918087 9.366036
v -4.618672 -5.291654 11.994185
v -4.598512 -9.829894 16.852383
v -4.4552455 -9.8789 16.852383
v -4.043089 -5.488528 11.994185
v -3.4252079 -0.41918087 9.366036
v -3.9665875 -0.23400657 9.366036
v -4.131504 0.16912611 9.738362
v -3.047947 -0.20149533 9.738362
v -3.7550802 0.38703042 10.112771
v -3.2120674 0.20129783 10.112771
v -3.750066 -4.618276 12.495273
v -4.378458 -9.654402 16.964106
v -4.521726 -9.605396 16.964106
v -4.317344 -4.424245 12.495273
v -3.7550802 0.38703042 10.112771
v -3.2120674 0.20129783 10.112771
v -4.131504 0.16912611 9.738362
v -3.7550802 0.38703042 10.112771
v -4.317344 -4.424245 12.495273
v -4.752578 -4.756732 12.2459545
v -3.9665875 -0.23400657 9.366036
v -4.618672 -5.291654 11.994185
v -4.598512 -9.829894 16.852383
v -4.344692 -9.698132 16.695093
v -4.521726 -9.605396 16.964106
v -4.345216 -9.79115 16.908243
v -4.378458 -9.654402 16.964106
v -0.87884176 0.4304223 12.521292
v -1.7127556 1.7702549 21.15938
v -1.3225399 1.9930298 21.305689
v -0.40158895 0.8940418 12.592047
v -1.4659156 2.4137964 21.27389
v -0.5730072 1.5328114 12.652678
v -1.3618628 0.5888555 7.687316
v -1.1425647 -0.11453442 7.4361014
v -1.6670271 -0.6068793 7.150866
v -1.5291892 0.61033726 12.496231
v -1.9067378 1.8688754 21.093376
v -1.7127556 1.7702549 21.15938
v -0.87884176 0.4304223 12.521292
v -1.6670271 -0.6068793 7.150866
v -2.4082732 -0.40293747 7.1087646
v -1.6950132 1.2470987 12.545763
v -2.6305285 0.30231974 7.3543816
v -0.5730072 1.5328114 12.652678
v -1.4659156 2.4137964 21.27389
v -1.7405213 2.4517093 21.221516
v -1.2216343 1.7039006 12.630571
v -1.7895843 2.1505013 21.009233
v -2.1056886 0.7960396 7.6452603
v -1.3618628 0.5888555 7.687316
v -2.6305285 0.30231974 7.3543816
v -1.6950132 1.2470987 12.545763
v -1.9067378 1.8688754 21.093376
v -1.5291892 0.61033726 12.496231
v -1.4659156 2.4137964 21.27389
v -1.3225399 1.9930298 21.305689
v -1.7127556 1.7702549 21.15938
v -1.7405213 2.4517093 21.221516
v -1.7895843 2.1505013 21.009233
v -1.9067378 1.8688754 21.093376
v -1.6670271 -0.6068793 7.150866
v -1.1425647 -0.11453442 7.4361014
v -1.3618628 0.5888555 7.687316
v -2.1056886 0.7960396 7.6452603
v -2.4082732 -0.40293747 7.1087646
v -2.6305285 0.30231974 7.3543816
v 1.3306725 0.76826406 -0.27665836
v 1.9695915 1.1371441 -1.7147598
v 1.9695915 -1.1371442 -1.7147598
v 1.3306724 -0.76826423 -0.27665836
vt 0.12695312 0.6767578
vt 0.12408447 0.67529297
vt 0.12347412 0.6743164
vt 0.12432861 0.68115234
vt 0.12854004 0.67626953
vt 0.12915039 0.6772461
vt 0.83984375 0.8413086
vt 0.87109375 0.8413086
vt 0.8671875 0.71777344
vt 0.8432617 0.71777344
vt 0.84472656 0.6323242
vt 0.8642578 0.6323242
vt 0.84765625 0.5205078
vt 0.86035156 0.5205078
vt 0.85009766 0.41455078
vt 0.85546875 0.41455078
vt 0.75146484 0.42236328
vt 0.72265625 0.41455078
vt 0.70996094 0.5288086
vt 0.73339844 0.52490234
vt 0.7739258 0.4260254
vt 0.75097656 0.52783203
vt 0.76464844 0.63378906
vt 0.75 0.63183594
vt 0.7314453 0.6303711
vt 0.75 0.7451172
vt 0.74121094 0.74365234
vt 0.7294922 0.7451172
vt 0.7739258 0.8652344
vt 0.77001953 0.8647461
vt 0.765625 0.8666992
vt 0.76464844 0.8696289
vt 0.7685547 0.8701172
vt 0.7729492 0.86816406
vt 0.4658203 0.9082031
vt 0.5048828 0.92871094
vt 0.5024414 0.8823242
vt 0.46411133 0.8769531
vt 0.5048828 0.82128906
vt 0.4658203 0.8359375
vt 0.7792969 0.054138184
vt 0.80126953 0.023269653
vt 0.74072266 0.00541687
vt 0.73828125 0.04208374
vt 0.7402344 0.056274414
vt 0.71972656 0.074401855
vt 0.70996094 0.06719971
vt 0.7290039 0.101257324
vt 0.72314453 0.10443115
vt 0.76953125 0.064941406
vt 0.79248047 0.091308594
vt 0.72802734 0.13122559
vt 0.7792969 0.091796875
vt 0.76416016 0.11645508
vt 0.75878906 0.10998535
vt 0.75146484 0.13171387
vt 0.7734375 0.21679688
vt 0.75390625 0.21325684
vt 0.765625 0.2919922
vt 0.75390625 0.29125977
vt 0.80126953 0.4025879
vt 0.796875 0.4038086
vt 0.23779297 0.5854492
vt 0.18273926 0.6171875
vt 0.18273926 0.68066406
vt 0.23779297 0.7128906
vt 0.29296875 0.68066406
vt 0.29296875 0.6171875
vt 0.65185547 0.38330078
vt 0.61376953 0.49951172
vt 0.61865234 0.50146484
vt 0.6640625 0.38354492
vt 0.62109375 0.5048828
vt 0.63916016 0.27441406
vt 0.6713867 0.3869629
vt 0.6586914 0.27172852
vt 0.6699219 0.2746582
vt 0.6611328 0.17138672
vt 0.6850586 0.17346191
vt 0.69921875 0.18249512
vt 0.68310547 0.061065674
vt 0.6660156 0.0619812
vt 0.63671875 0.07171631
vt 0.66845703 0.050872803
vt 0.6274414 0.064331055
vt 0.6040039 0.027252197
vt 0.6645508 0.00730896
vt 0.69189453 0.049591064
vt 0.69921875 0.00541687
vt 0.52197266 0.61621094
vt 0.55615234 0.8129883
vt 0.55810547 0.81347656
vt 0.5366211 0.6191406
vt 0.5595703 0.8129883
vt 0.5488281 0.6142578
vt 0.5595703 0.5073242
vt 0.5444336 0.5131836
vt 0.52734375 0.5048828
vt 0.5253906 0.4909668
vt 0.54052734 0.48535156
vt 0.5576172 0.49365234
vt 0.82470703 0.3334961
vt 0.84375 0.33129883
vt 0.84375 0.21484375
vt 0.828125 0.21655273
vt 0.8120117 0.32202148
vt 0.8173828 0.2109375
vt 0.82128906 0.005420685
vt 0.8227539 0.006038666
vt 0.82470703 0.0058174133
vt 0.81152344 0.7602539
vt 0.82910156 0.75341797
vt 0.8100586 0.6269531
vt 0.7949219 0.6279297
vt 0.80029297 0.7661133
vt 0.78466797 0.62841797
vt 0.8251953 0.41455078
vt 0.8276367 0.4177246
vt 0.8286133 0.41479492
vt 0.37524414 0.7836914
vt 0.4033203 0.90478516
vt 0.40820312 0.9033203
vt 0.38452148 0.78125
vt 0.41210938 0.90185547
vt 0.39233398 0.7788086
vt 0.41210938 0.6772461
vt 0.4020996 0.67626953
vt 0.390625 0.67529297
vt 0.71777344 0.96875
vt 0.7348633 0.88378906
vt 0.7246094 0.88134766
vt 0.72998047 0.9716797
vt 0.7270508 0.98583984
vt 0.7348633 0.97998047
vt 0.71484375 0.98291016
vt 0.70996094 0.9741211
vt 0.3310547 0.79785156
vt 0.3557129 0.67529297
vt 0.32666016 0.79345703
vt 0.3581543 0.6777344
vt 0.34106445 0.80078125
vt 0.3642578 0.68603516
vt 0.34472656 0.9003906
vt 0.35717773 0.9013672
vt 0.3461914 0.7998047
vt 0.3642578 0.8964844
vt 0.3154297 0.8359375
vt 0.31469727 0.7236328
vt 0.30932617 0.7236328
vt 0.30541992 0.8364258
vt 0.30541992 0.72998047
vt 0.29907227 0.83984375
vt 0.30297852 0.9086914
vt 0.3154297 0.9082031
vt 0.30810547 0.68652344
vt 0.31298828 0.68408203
vt 0.31298828 0.67626953
vt 0.3088379 0.67578125
vt 0.30371094 0.68359375
vt 0.30395508 0.67822266
vt 0.88183594 0.5410156
vt 0.9145508 0.68115234
vt 0.9165039 0.6801758
vt 0.890625 0.53808594
vt 0.9194336 0.67822266
vt 0.90185547 0.53125
vt 0.9194336 0.41455078
vt 0.90722656 0.41723633
vt 0.8979492 0.41625977
vt 0.28833008 0.8261719
vt 0.2788086 0.7241211
vt 0.27563477 0.7236328
vt 0.27539062 0.8232422
vt 0.27172852 0.93652344
vt 0.28393555 0.9394531
vt 0.28833008 0.9477539
vt 0.26391602 0.94189453
vt 0.28051758 0.953125
vt 0.26831055 0.9501953
vt 0.97314453 0.5605469
vt 0.9667969 0.41455078
vt 0.9633789 0.4152832
vt 0.95996094 0.5629883
vt 0.9604492 0.68115234
vt 0.97314453 0.67871094
vt 0.1171875 0.89501953
vt 0.12915039 0.89697266
vt 0.1116333 0.80078125
vt 0.10003662 0.7949219
vt 0.107788086 0.89746094
vt 0.09094238 0.7939453
vt 0.12347412 0.6743164
vt 0.12432861 0.68115234
vt 0.12854004 0.67626953
vt 0.12695312 0.6767578
vt 0.12915039 0.6772461
vt 0.9223633 0.20263672
vt 0.9248047 0.010169983
vt 0.92041016 0.0063323975
vt 0.91259766 0.19958496
vt 0.9111328 0.005420685
vt 0.8989258 0.19580078
vt 0.9008789 0.30664062
vt 0.91503906 0.31469727
vt 0.9248047 0.32250977
vt 0.8691406 0.19677734
vt 0.8881836 0.006832123
vt 0.8833008 0.005420685
vt 0.8544922 0.19580078
vt 0.8598633 0.31689453
vt 0.87646484 0.31835938
vt 0.87890625 0.19384766
vt 0.8881836 0.31103516
vt 0.6538086 0.6352539
vt 0.67578125 0.8251953
vt 0.6791992 0.82421875
vt 0.6611328 0.6352539
vt 0.68408203 0.81884766
vt 0.67578125 0.5234375
vt 0.66796875 0.5239258
vt 0.6904297 0.515625
vt 0.67529297 0.63183594
vt 0.6904297 0.81933594
vt 0.6826172 0.62890625
vt 0.16027832 0.64404297
vt 0.15478516 0.65185547
vt 0.1616211 0.6557617
vt 0.16625977 0.64404297
vt 0.1652832 0.64746094
vt 0.16625977 0.6542969
vt 0.8261719 0.34423828
vt 0.8120117 0.35083008
vt 0.8120117 0.36694336
vt 0.8261719 0.3762207
vt 0.84033203 0.35351562
vt 0.84033203 0.3696289
vt 0.9223633 0.3503418
vt 0.88183594 0.34033203
vt 0.88183594 0.4038086
vt 0.9223633 0.39331055
vn 0.5239258 -0.6586914 0.54003906
vn -0.515625 -0.8364258 -0.18603516
vn -0.8569336 -0.4716797 -0.20727539
vn -0.94384766 0.15588379 0.29125977
vn -0.5083008 0.4663086 0.7241211
vn 0.15478516 0.38012695 0.9121094
vn 0.8540039 0.4814453 0.1965332
vn 0.8540039 -0.4814453 0.1965332
vn 0.80615234 -0.4663086 0.36376953
vn 0.80615234 0.4663086 0.36376953
vn 0.7504883 0.51953125 0.40844727
vn 0.7504883 -0.51953125 0.40844727
vn 0.76171875 0.47070312 0.4453125
vn 0.76171875 -0.47070312 0.4453125
vn 0.05291748 0.38378906 0.921875
vn 0.05291748 -0.38378906 0.921875
vn -0.8598633 0.50146484 0.09265137
vn 0.015617371 0.9892578 0.1459961
vn 0.0592041 0.99609375 0.06890869
vn -0.8120117 0.53515625 -0.23291016
vn -0.8598633 -0.50146484 0.09265137
vn -0.8120117 -0.53515625 -0.23291016
vn -0.8232422 -0.47924805 -0.30419922
vn -0.8232422 0.47924805 -0.30419922
vn -0.061645508 0.9980469 0.020004272
vn -0.7792969 -0.53271484 -0.33081055
vn -0.7792969 0.53271484 -0.33081055
vn 0.03540039 0.99560547 0.08917236
vn -0.92333984 -0.38378906 -0.017593384
vn -0.92333984 0.38378906 -0.017593384
vn -0.43603516 0.7763672 0.45458984
vn 0.05291748 0.38378906 0.921875
vn 0.05291748 -0.38378906 0.921875
vn -0.43603516 -0.7763672 0.45458984
vn -0.8100586 -0.46777344 0.35302734
vn -0.78271484 -0.4519043 -0.42822266
vn -0.78271484 0.4519043 -0.42822266
vn -0.8100586 0.46777344 0.35302734
vn -0 0.9038086 -0.42822266
vn -0 0.9355469 0.35302734
vn -0 0.9355469 0.35302734
vn -0 0.9038086 -0.42822266
vn 0.78271484 0.4519043 -0.42822266
vn 0.8100586 0.46777344 0.35302734
vn 0.8540039 0.4814453 0.1965332
vn 0.8540039 -0.4814453 0.1965332
vn 0.8100586 -0.46777344 0.35302734
vn 0.015617371 -0.9892578 0.1459961
vn -0 -0.9355469 0.35302734
vn 0.015617371 0.9892578 0.1459961
vn -0.8100586 0.46777344 0.35302734
vn 0.80615234 0.4663086 0.36376953
vn -0.8598633 0.50146484 0.09265137
vn -0.8100586 -0.46777344 0.35302734
vn -0.8598633 -0.50146484 0.09265137
vn 0.0592041 0.99609375 0.06890869
vn -0.061645508 0.9980469 0.020004272
vn 0.7504883 0.51953125 0.40844727
vn 0.03540039 0.99560547 0.08917236
vn 0.76171875 0.47070312 0.4453125
vn -0.43603516 0.7763672 0.45458984
vn 0.05291748 0.38378906 0.921875
vn -0 -0.9038086 -0.42822266
vn 0.78271484 -0.4519043 -0.42822266
vn 0.78271484 0.4519043 -0.42822266
vn -0 0.9038086 -0.42822266
vn -0.78271484 0.4519043 -0.42822266
vn -0.78271484 -0.4519043 -0.42822266
vn -0.7792969 -0.53271484 -0.33081055
vn -0.92333984 -0.38378906 -0.017593384
vn -0.43603516 -0.7763672 0.45458984
vn 0.03540039 -0.99560547 0.08917236
vn 0.05291748 -0.38378906 0.921875
vn -0.8232422 -0.47924805 -0.30419922
vn 0.76171875 -0.47070312 0.4453125
vn -0.061645508 -0.9980469 0.020004272
vn 0.7504883 -0.51953125 0.40844727
vn -0.8120117 -0.53515625 -0.23291016
vn 0.0592041 -0.99609375 0.06890869
vn 0.80615234 -0.4663086 0.36376953
vn 0.8540039 -0.4814453 0.1965332
vn 0.015617371 -0.9892578 0.1459961
vn -0.8598633 -0.50146484 0.09265137
vn -0 -0.9355469 0.35302734
vn -0.8100586 -0.46777344 0.35302734
vn -0.78271484 -0.4519043 -0.42822266
vn -0 -0.9038086 -0.42822266
vn 0.8100586 -0.46777344 0.35302734
vn 0.78271484 -0.4519043 -0.42822266
vn 0.23400879 0.97216797 0.02305603
vn 0.37719727 0.54785156 0.74658203
vn -0.6323242 -0.026306152 0.77441406
vn -0.6479492 0.64160156 0.41064453
vn -0.70654297 -0.4987793 0.5024414
vn -0.8076172 -0.4255371 0.40844727
vn -0.9736328 -0.22717285 0.011245728
vn -0.83447266 0.55078125 0.011245728
vn -0.25610352 0.8623047 -0.43652344
vn 0.18164062 0.37963867 -0.90722656
vn 0.03881836 -0.4189453 -0.90722656
vn -0.5390625 -0.72021484 -0.43652344
vn 0.18164062 0.37963867 -0.90722656
vn 0.03881836 -0.4189453 -0.90722656
vn 0.6801758 -0.64990234 -0.33862305
vn 0.87841797 0.33081055 -0.34472656
vn -0.25610352 0.8623047 -0.43652344
vn 0.23400879 0.97216797 0.02305603
vn 0.37719727 0.54785156 0.74658203
vn 0.9536133 -0.2290039 0.19543457
vn 0.67529297 -0.7368164 0.028778076
vn -0.5390625 -0.72021484 -0.43652344
vn -0.9736328 -0.22717285 0.011245728
vn -0.8076172 -0.4255371 0.40844727
vn -0.13049316 -0.99121094 0.0287323
vn 0.03881836 -0.4189453 -0.90722656
vn 0.6801758 -0.64990234 -0.33862305
vn 0.67529297 -0.7368164 0.028778076
vn -0.12121582 -0.9819336 0.14660645
vn -0.70654297 -0.4987793 0.5024414
vn -0.015029907 0.7817383 -0.62353516
vn 0.36816406 0.9111328 0.1854248
vn -0.42041016 0.69677734 0.5810547
vn -0.81933594 0.5571289 -0.13342285
vn -0.41748047 -0.120666504 0.9008789
vn -0.8041992 -0.20056152 0.55908203
vn -0.83447266 -0.5292969 0.15344238
vn -0.90527344 0.03451538 -0.42333984
vn -0.3125 0.1652832 -0.9355469
vn -0.3125 0.1652832 -0.9355469
vn 0.80126953 0.27172852 -0.5332031
vn -0.015029907 0.7817383 -0.62353516
vn 0.3474121 -0.26708984 -0.8989258
vn -0.17895508 -0.9638672 0.19836426
vn 0.41430664 -0.8486328 -0.32861328
vn -0.83447266 -0.5292969 0.15344238
vn -0.90527344 0.03451538 -0.42333984
vn 0.80126953 0.27172852 -0.5332031
vn 0.36816406 0.9111328 0.1854248
vn -0.015029907 0.7817383 -0.62353516
vn 0.86621094 0.4411621 0.23425293
vn 0.85791016 -0.5029297 0.10229492
vn 0.79248047 -0.48779297 0.36669922
vn 0.3474121 -0.26708984 -0.8989258
vn 0.41430664 -0.8486328 -0.32861328
vn 0.05834961 -0.7290039 0.6821289
vn -0.17895508 -0.9638672 0.19836426
vn -0.8041992 -0.20056152 0.55908203
vn -0.41748047 -0.120666504 0.9008789
vn 0.13793945 -0.3803711 0.9145508
vn 0.05834961 -0.7290039 0.6821289
vn 0.79248047 -0.48779297 0.36669922
vn 0.85791016 -0.5029297 0.10229492
vn -0.17895508 -0.9638672 0.19836426
vn -0.83447266 -0.5292969 0.15344238
vn 0.36816406 0.9111328 0.1854248
vn 0.86621094 0.4411621 0.23425293
vn 0.79248047 -0.48779297 0.36669922
vn 0.13793945 -0.3803711 0.9145508
vn -0.42041016 0.69677734 0.5810547
vn -0.41748047 -0.120666504 0.9008789
vn 0.26708984 -0.6230469 -0.7348633
vn -0.515625 -0.8364258 -0.18603516
vn 0.5239258 -0.6586914 0.54003906
vn 0.95654297 -0.23339844 -0.17419434
vn 0.15478516 0.38012695 0.9121094
vn 0.6748047 0.35498047 0.64697266
vn 0.62646484 0.7519531 0.20605469
vn 0.8666992 0.27856445 -0.4140625
vn 0.34594727 0.016845703 -0.9379883
vn -0.7583008 -0.34521484 -0.5527344
vn -0.8569336 -0.4716797 -0.20727539
vn -0.515625 -0.8364258 -0.18603516
vn 0.26708984 -0.6230469 -0.7348633
vn 0.34594727 0.016845703 -0.9379883
vn -0.3942871 0.2076416 -0.89501953
vn -0.64501953 0.70751953 -0.28857422
vn 0.8666992 0.27856445 -0.4140625
vn -0.11828613 0.9589844 0.2578125
vn 0.62646484 0.7519531 0.20605469
vn 0.6748047 0.35498047 0.64697266
vn 0.15478516 0.38012695 0.9121094
vn -0.5083008 0.4663086 0.7241211
vn -0.40161133 0.49804688 0.7685547
vn -0.11828613 0.9589844 0.2578125
vn 0.62646484 0.7519531 0.20605469
vn -0.64501953 0.70751953 -0.28857422
vn -0.11828613 0.9589844 0.2578125
vn -0.40161133 0.49804688 0.7685547
vn -0.9824219 0.15258789 0.10876465
vn -0.3942871 0.2076416 -0.89501953
vn -0.7583008 -0.34521484 -0.5527344
vn -0.8569336 -0.4716797 -0.20727539
vn -0.94384766 0.15588379 0.29125977
vn -0.5083008 0.4663086 0.7241211
vn 0.5239258 -0.6586914 0.54003906
vn 0.15478516 0.38012695 0.9121094
vn 0.23217773 -0.9609375 0.14953613
vn -0.09039307 -0.75683594 0.64746094
vn 0.6220703 -0.23571777 0.74658203
vn 0.96533203 -0.2602539 0.013580322
vn 0.32202148 0.67285156 0.6660156
vn 0.69873047 0.70703125 -0.10900879
vn 0.5473633 0.6254883 -0.55615234
vn 0.80371094 -0.13134766 -0.5805664
vn 0.23449707 -0.6923828 -0.6821289
vn -0.7163086 -0.6772461 0.1673584
vn -0.7446289 -0.47827148 0.4658203
vn -0.09039307 -0.75683594 0.64746094
vn 0.23217773 -0.9609375 0.14953613
vn 0.23449707 -0.6923828 -0.6821289
vn -0.5600586 -0.45947266 -0.6894531
vn -0.95458984 0.296875 0.021743774
vn -0.78564453 0.30004883 -0.5410156
vn 0.69873047 0.70703125 -0.10900879
vn 0.32202148 0.67285156 0.6660156
vn -0.39892578 0.7788086 0.48413086
vn -0.26049805 0.95751953 -0.12384033
vn -0.9057617 0.23754883 0.35107422
vn -0.18676758 0.83935547 -0.5107422
vn 0.5473633 0.6254883 -0.55615234
vn -0.78564453 0.30004883 -0.5410156
vn -0.95458984 0.296875 0.021743774
vn -0.7446289 -0.47827148 0.4658203
vn -0.7163086 -0.6772461 0.1673584
vn 0.32202148 0.67285156 0.6660156
vn 0.6220703 -0.23571777 0.74658203
vn -0.09039307 -0.75683594 0.64746094
vn -0.39892578 0.7788086 0.48413086
vn -0.9057617 0.23754883 0.35107422
vn -0.7446289 -0.47827148 0.4658203
vn 0.23449707 -0.6923828 -0.6821289
vn 0.80371094 -0.13134766 -0.5805664
vn 0.5473633 0.6254883 -0.55615234
vn -0.18676758 0.83935547 -0.5107422
vn -0.5600586 -0.45947266 -0.6894531
vn -0.78564453 0.30004883 -0.5410156
vn 0.8100586 0.46777344 0.35302734
vn 0.78271484 0.4519043 -0.42822266
vn 0.78271484 -0.4519043 -0.42822266
vn 0.8100586 -0.46777344 0.35302734
g DesertTree1_0
f 3/3/3 2/2/2 1/1/1
f 6/6/6 5/5/5 4/4/4
f 9/9/9 8/8/8 7/7/7
f 10/10/10 9/9/9 7/7/7
f 10/10/10 11/11/11 9/9/9
f 11/11/11 12/12/12 9/9/9
f 11/11/11 13/13/13 12/12/12
f 13/13/13 14/14/14 12/12/12
f 13/13/13 15/15/15 14/14/14
f 15/15/15 16/16/16 14/14/14
f 19/19/19 18/18/18 17/17/17
f 20/20/20 19/19/19 17/17/17
f 20/20/20 17/17/17 21/21/21
f 22/22/22 20/20/20 21/21/21
f 22/22/22 23/23/23 20/20/20
f 20/20/20 24/24/24 19/19/19
f 23/23/23 24/24/24 20/20/20
f 24/24/24 25/25/25 19/19/19
f 23/23/23 26/26/26 24/24/24
f 24/24/24 27/27/27 25/25/25
f 26/26/26 27/27/27 24/24/24
f 27/27/27 28/28/28 25/25/25
f 26/26/26 29/29/29 27/27/27
f 27/27/27 30/30/30 28/28/28
f 29/29/29 30/30/30 27/27/27
f 30/30/30 31/31/31 28/28/28
f 32/32/32 31/31/31 30/30/30
f 32/32/32 30/30/30 29/29/29
f 33/33/33 32/32/32 29/29/29
f 29/29/29 34/34/34 33/33/33
f 37/37/37 36/36/36 35/35/35
f 38/38/38 37/37/37 35/35/35
f 39/39/39 37/37/37 38/38/38
f 40/40/40 39/39/39 38/38/38
f 43/43/43 42/42/42 41/41/41
f 44/44/44 43/43/43 41/41/41
f 45/45/45 44/44/44 41/41/41
f 45/45/45 46/46/46 44/44/44
f 46/46/46 47/47/47 44/44/44
f 46/46/46 48/48/48 47/47/47
f 48/48/48 49/49/49 47/47/47
f 50/50/50 45/45/45 41/41/41
f 50/50/50 41/41/41 51/51/51
f 52/52/52 45/45/45 50/50/50
f 53/53/53 50/50/50 51/51/51
f 53/53/53 51/51/51 54/54/54
f 55/55/55 53/53/53 54/54/54
f 56/56/56 52/52/52 50/50/50
f 56/56/56 57/57/57 52/52/52
f 57/57/57 58/58/58 52/52/52
f 57/57/57 59/59/59 58/58/58
f 59/59/59 60/60/60 58/58/58
f 59/59/59 61/61/61 60/60/60
f 61/61/61 62/62/62 60/60/60
f 65/65/65 64/64/64 63/63/63
f 63/63/63 66/66/66 65/65/65
f 63/63/63 67/67/67 66/66/66
f 63/63/63 68/68/68 67/67/67
f 71/71/71 70/70/70 69/69/69
f 72/72/72 71/71/71 69/69/69
f 73/73/73 71/71/71 72/72/72
f 72/72/72 69/69/69 74/74/74
f 75/75/75 73/73/73 72/72/72
f 76/76/76 72/72/72 74/74/74
f 75/75/75 72/72/72 76/76/76
f 77/77/77 75/75/75 76/76/76
f 76/76/76 74/74/74 78/78/78
f 77/77/77 76/76/76 79/79/79
f 79/79/79 76/76/76 78/78/78
f 80/80/80 77/77/77 79/79/79
f 80/80/80 79/79/79 81/81/81
f 79/79/79 82/82/82 81/81/81
f 79/79/79 78/78/78 82/82/82
f 78/78/78 83/83/83 82/82/82
f 82/82/82 83/83/83 84/84/84
f 83/83/83 85/85/85 84/84/84
f 85/85/85 86/86/86 84/84/84
f 86/86/86 87/87/87 84/84/84
f 84/84/84 87/87/87 88/88/88
f 87/87/87 89/89/89 88/88/88
f 92/92/92 91/91/91 90/90/90
f 93/93/93 92/92/92 90/90/90
f 94/94/94 92/92/92 93/93/93
f 95/95/95 94/94/94 93/93/93
f 95/95/95 93/93/93 96/96/96
f 93/93/93 90/90/90 97/97/97
f 93/93/93 97/97/97 96/96/96
f 90/90/90 98/98/98 97/97/97
f 97/97/97 98/98/98 99/99/99
f 96/96/96 97/97/97 99/99/99
f 96/96/96 99/99/99 100/100/100
f 100/100/100 101/101/101 96/96/96
f 104/104/104 103/103/103 102/102/102
f 105/105/105 104/104/104 102/102/102
f 105/105/105 102/102/102 106/106/106
f 107/107/107 105/105/105 106/106/106
f 107/107/107 108/108/108 105/105/105
f 108/108/108 109/109/109 105/105/105
f 105/105/105 109/109/109 104/104/104
f 109/109/109 110/110/110 104/104/104
f 113/113/113 112/112/112 111/111/111
f 114/114/114 113/113/113 111/111/111
f 114/114/114 111/111/111 115/115/115
f 116/116/116 114/114/114 115/115/115
f 116/116/116 117/117/117 114/114/114
f 117/117/117 118/118/118 114/114/114
f 114/114/114 118/118/118 113/113/113
f 118/118/118 119/119/119 113/113/113
f 122/122/122 121/121/121 120/120/120
f 123/123/123 122/122/122 120/120/120
f 124/124/124 122/122/122 123/123/123
f 125/125/125 124/124/124 123/123/123
f 125/125/125 123/123/123 126/126/126
f 123/123/123 127/127/127 126/126/126
f 123/123/123 120/120/120 127/127/127
f 120/120/120 128/128/128 127/127/127
f 131/131/131 130/130/130 129/129/129
f 130/130/130 132/132/132 129/129/129
f 133/133/133 129/129/129 132/132/132
f 132/132/132 134/134/134 133/133/133
f 133/133/133 135/135/135 129/129/129
f 135/135/135 136/136/136 129/129/129
f 139/139/139 138/138/138 137/137/137
f 138/138/138 140/140/140 137/137/137
f 137/137/137 140/140/140 141/141/141
f 140/140/140 142/142/142 141/141/141
f 137/137/137 141/141/141 143/143/143
f 141/141/141 144/144/144 143/143/143
f 141/141/141 145/145/145 144/144/144
f 145/145/145 146/146/146 144/144/144
f 149/149/149 148/148/148 147/147/147
f 150/150/150 149/149/149 147/147/147
f 151/151/151 149/149/149 150/150/150
f 152/152/152 151/151/151 150/150/150
f 150/150/150 147/147/147 153/153/153
f 147/147/147 154/154/154 153/153/153
f 157/157/157 156/156/156 155/155/155
f 155/155/155 158/158/158 157/157/157
f 155/155/155 159/159/159 158/158/158
f 159/159/159 160/160/160 158/158/158
f 163/163/163 162/162/162 161/161/161
f 164/164/164 163/163/163 161/161/161
f 165/165/165 163/163/163 164/164/164
f 166/166/166 165/165/165 164/164/164
f 166/166/166 164/164/164 167/167/167
f 164/164/164 168/168/168 167/167/167
f 164/164/164 161/161/161 168/168/168
f 161/161/161 169/169/169 168/168/168
f 172/172/172 171/171/171 170/170/170
f 173/173/173 172/172/172 170/170/170
f 173/173/173 170/170/170 174/174/174
f 170/170/170 175/175/175 174/174/174
f 174/174/174 175/175/175 176/176/176
f 176/176/176 177/177/177 174/174/174
f 176/176/176 178/178/178 177/177/177
f 178/178/178 179/179/179 177/177/177
f 182/182/182 181/181/181 180/180/180
f 183/183/183 182/182/182 180/180/180
f 183/183/183 180/180/180 184/184/184
f 180/180/180 185/185/185 184/184/184
f 188/188/188 187/187/187 186/186/186
f 189/189/189 188/188/188 186/186/186
f 189/189/189 186/186/186 190/190/190
f 191/191/191 189/189/189 190/190/190
f 191/191/191 192/192/192 189/189/189
f 189/189/189 193/193/193 188/188/188
f 192/192/192 193/193/193 189/189/189
f 193/193/193 194/194/194 188/188/188
f 195/195/195 193/193/193 192/192/192
f 195/195/195 196/196/196 193/193/193
f 199/199/199 198/198/198 197/197/197
f 200/200/200 199/199/199 197/197/197
f 201/201/201 199/199/199 200/200/200
f 202/202/202 201/201/201 200/200/200
f 202/202/202 200/200/200 203/203/203
f 200/200/200 204/204/204 203/203/203
f 200/200/200 197/197/197 204/204/204
f 197/197/197 205/205/205 204/204/204
f 208/208/208 207/207/207 206/206/206
f 209/209/209 208/208/208 206/206/206
f 209/209/209 206/206/206 210/210/210
f 206/206/206 211/211/211 210/210/210
f 206/206/206 212/212/212 211/211/211
f 212/212/212 213/213/213 211/211/211
f 216/216/216 215/215/215 214/214/214
f 217/217/217 216/216/216 214/214/214
f 218/218/218 216/216/216 217/217/217
f 217/217/217 214/214/214 219/219/219
f 214/214/214 220/220/220 219/219/219
f 217/217/217 219/219/219 221/221/221
f 222/222/222 217/217/217 221/221/221
f 222/222/222 218/218/218 217/217/217
f 223/223/223 218/218/218 222/222/222
f 224/224/224 223/223/223 222/222/222
f 227/227/227 226/226/226 225/225/225
f 225/225/225 228/228/228 227/227/227
f 228/228/228 229/229/229 227/227/227
f 229/229/229 230/230/230 227/227/227
f 233/233/233 232/232/232 231/231/231
f 231/231/231 234/234/234 233/233/233
f 231/231/231 235/235/235 234/234/234
f 235/235/235 236/236/236 234/234/234
f 239/239/239 238/238/238 237/237/237
f 240/240/240 239/239/239 237/237/237
