g DesertTree2
v -0.00021903549 2.1100147 0.32026297
v 1.8278197 1.0541911 0.32026345
v 0.8828285 0.8547048 7.5067477
v -0.4425835 1.7210718 6.874483
v -0.039234325 1.2424583 13.47836
v 1.0388416 0.6214481 13.432048
v 2.4244058 1.2662354 16.372715
v 2.9077497 1.039993 15.761904
v 10.050089 3.3347547 19.792166
v 10.297884 3.2487948 19.599949
v 1.8278197 -1.0541914 0.32026345
v -0.00021921215 -2.110015 0.32026297
v -0.4425835 -1.7210723 6.874483
v 0.8828285 -0.8547052 7.5067477
v 1.8278197 1.0541911 0.32026345
v 0.8828285 0.8547048 7.5067477
v 1.0388416 0.6214481 13.432048
v 1.0388416 -0.62144846 13.432048
v -0.039234355 -1.2424585 13.47836
v 3.2722542 0.30978593 15.772514
v 3.155405 -0.19815794 16.393991
v 10.405377 2.9425347 19.599949
v 10.265662 2.7205644 19.792166
v -0.00021921215 -2.110015 0.32026297
v -1.8283396 -1.0541887 0.3196811
v -1.7858732 -0.86427015 6.2433696
v -0.4425835 -1.7210723 6.874483
v -0.039234355 -1.2424585 13.47836
v -1.1122978 -0.61887103 13.52379
v 3.155405 -0.19815794 16.393991
v 2.672679 0.02655837 17.007965
v 10.265662 2.7205644 19.792166
v 10.018569 2.8066752 19.98515
v -1.8283396 1.0541887 0.3196811
v -0.00021903549 2.1100147 0.32026297
v -0.4425835 1.7210718 6.874483
v -1.7858732 0.8642698 6.2433696
v -1.1122978 0.61887103 13.52379
v -0.039234325 1.2424583 13.47836
v 2.3066716 0.75977445 16.997314
v 2.4244058 1.2662354 16.372715
v 9.911016 3.1131046 19.98515
v 10.050089 3.3347547 19.792166
v 2.672679 0.02655837 17.007965
v -1.1122978 -0.61887103 13.52379
v -1.7858732 -0.86427015 6.2433696
v -1.8283396 -1.0541887 0.3196811
v -1.9361507 -1.1178523 -0.7072345
v -1.9361507 1.1178521 -0.7072345
v -2.184228 1.2610794 -2.87468
v -2.184228 -1.2610794 -2.87468
v 2.6406047E-05 2.5221593 -2.87468
v 2.6626707E-05 2.2357047 -0.7072345
v 2.6435167E-05 -2.2357047 -0.7072345
v 2.6184816E-05 -2.5221593 -2.87468
v -2.184228 -1.2610794 -2.87468
v -1.9361507 -1.1178523 -0.7072345
v 2.6184816E-05 -2.5221593 -2.87468
v 2.1842809 -1.2610799 -2.87468
v 2.1842809 1.2610797 -2.87468
v 2.6406047E-05 2.5221593 -2.87468
v -2.184228 1.2610794 -2.87468
v -2.184228 -1.2610794 -2.87468
v 1.9362037 1.1178523 -0.7072345
v 2.1842809 1.2610797 -2.87468
v 2.1842809 -1.2610799 -2.87468
v 1.9362037 -1.1178524 -0.7072345
v 2.6184816E-05 -2.5221593 -2.87468
v 2.6435167E-05 -2.2357047 -0.7072345
v -1.9361507 1.1178521 -0.7072345
v -0.00021903549 2.1100147 0.32026297
v -1.8283396 1.0541887 0.3196811
v 2.6626707E-05 2.2357047 -0.7072345
v 1.8278197 1.0541911 0.32026345
v 1.9362037 1.1178523 -0.7072345
v 1.8278197 -1.0541914 0.32026345
v 1.9362037 -1.1178524 -0.7072345
v -0.00021921215 -2.110015 0.32026297
v 2.6435167E-05 -2.2357047 -0.7072345
v -1.8283396 -1.0541887 0.3196811
v -1.9361507 -1.1178523 -0.7072345
v 2.3066716 0.75977445 16.997314
v 10.018569 2.8066752 19.98515
v 2.672679 0.02655837 17.007965
v 9.911016 3.1131046 19.98515
v 10.050089 3.3347547 19.792166
v 10.265662 2.7205644 19.792166
v 10.297884 3.2487948 19.599949
v 10.405377 2.9425347 19.599949
v 3.2722542 0.30978593 15.772514
v 10.405377 2.9425347 19.599949
v 10.297884 3.2487948 19.599949
v 2.9077497 1.039993 15.761904
v 1.0388416 -0.62144846 13.432048
v 1.0388416 0.6214481 13.432048
v -5.577344 -2.164413 15.571487
v -11.589946 -4.101241 23.211824
v -11.491653 -4.1556296 23.301369
v -5.1107187 -2.4426148 16.04544
v -0.15579401 -0.9808488 12.8550825
v -0.4968151 -0.5668564 12.164107
v -5.577344 -2.164413 15.571487
v -5.1107187 -2.4426148 16.04544
v -0.049235195 -0.55622745 13.613926
v -4.842468 -2.0319242 16.566603
v -11.431708 -4.0719824 23.401611
v -11.491653 -4.1556296 23.301369
v -0.4968151 -0.5668564 12.164107
v -0.7299789 0.27236938 12.229142
v -5.7704797 -1.4692631 15.625358
v -5.577344 -2.164413 15.571487
v -11.589946 -4.101241 23.211824
v -11.628296 -3.9632094 23.22252
v -0.7299789 0.27236938 12.229142
v -0.6224674 0.6988394 12.985247
v -5.494232 -1.0622394 16.15241
v -5.7704797 -1.4692631 15.625358
v -11.628296 -3.9632094 23.22252
v -11.347515 -4.0750093 23.155045
v -4.842468 -2.0319242 16.566603
v -11.431708 -4.0719824 23.401611
v -11.4700575 -3.933954 23.412302
v -5.0328164 -1.3468034 16.619696
v -0.28310478 0.2855296 13.679154
v -0.049235195 -0.55622745 13.613926
v -5.0328164 -1.3468034 16.619696
v -11.4700575 -3.933954 23.412302
v -11.347515 -4.0750093 23.155045
v -5.494232 -1.0622394 16.15241
v -0.6224674 0.6988394 12.985247
v -0.28310478 0.2855296 13.679154
v -0.7299789 0.27236938 12.229142
v -0.049235195 -0.55622745 13.613926
v -0.4968151 -0.5668564 12.164107
v -0.15579401 -0.9808488 12.8550825
v -2.4908214 -1.2393517 14.913024
v -2.6574938 -1.421437 14.395912
v -3.78629 -5.934451 16.360746
v -3.5953481 -5.677907 16.708271
v -5.452025 -9.604488 20.369476
v -5.5532618 -9.738519 20.204533
v -4.218191 -5.825341 16.198944
v -5.7677903 -9.684323 20.124166
v -3.5953481 -5.677907 16.708271
v -5.452025 -9.604488 20.369476
v -5.5653186 -9.416263 20.454052
v -3.8333662 -5.318163 16.891975
v -2.8463562 -0.9259765 15.236677
v -2.4908214 -1.2393517 14.913024
v -3.3693419 -0.7938552 15.04075
v -4.2590327 -5.2106266 16.732508
v -2.6574938 -1.421437 14.395912
v -4.218191 -5.825341 16.198944
v -3.78629 -5.934451 16.360746
v -3.1789074 -1.2897129 14.200574
v -4.452982 -5.4612455 16.386974
v -3.5344193 -0.97571015 14.52206
v -5.7677903 -9.684323 20.124166
v -5.8417263 -9.372284 20.098452
v -3.8333662 -5.318163 16.891975
v -5.5653186 -9.416263 20.454052
v -5.7798467 -9.362072 20.373686
v -4.2590327 -5.2106266 16.732508
v -3.5344193 -0.97571015 14.52206
v -3.3693419 -0.7938552 15.04075
v -4.2590327 -5.2106266 16.732508
v -4.452982 -5.4612455 16.386974
v -5.8417263 -9.372284 20.098452
v -5.7798467 -9.362072 20.373686
v -5.5653186 -9.416263 20.454052
v -5.452025 -9.604488 20.369476
v -5.5532618 -9.738519 20.204533
v -5.7677903 -9.684323 20.124166
v -5.7798467 -9.362072 20.373686
v -5.8417263 -9.372284 20.098452
v -3.5344193 -0.97571015 14.52206
v -3.1789074 -1.2897129 14.200574
v -2.6574938 -1.421437 14.395912
v -2.4908214 -1.2393517 14.913024
v -3.3693419 -0.7938552 15.04075
v -2.8463562 -0.9259765 15.236677
v -9.414285 0.15936375 18.45352
v -12.238717 2.048497 22.651329
v -12.1649275 1.8784275 22.733562
v -9.237372 -0.24560356 18.677055
v -11.969052 1.8673359 22.784958
v -8.7683735 -0.26024854 18.823816
v -5.452848 -2.1430435 16.599354
v -5.8437586 -2.1899483 16.34475
v -5.9530954 -1.8702505 16.020725
v -5.9530954 -1.8702505 16.020725
v -5.671688 -1.5038232 15.94962
v -9.1151 0.5489402 18.377922
v -9.414285 0.15936375 18.45352
v -12.238717 2.048497 22.651329
v -12.11662 2.207475 22.62047
v -8.7683735 -0.26024854 18.823816
v -11.969052 1.8673359 22.784958
v -11.846955 2.0263138 22.754099
v -8.473507 0.1237073 18.749308
v -5.1705923 -1.7755103 16.528032
v -5.452848 -2.1430435 16.599354
v -5.2805305 -1.4565554 16.202435
v -5.1705923 -1.7755103 16.528032
v -8.473507 0.1237073 18.749308
v -8.643272 0.5279875 18.52694
v -5.671688 -1.5038232 15.94962
v -9.1151 0.5489402 18.377922
v -12.11662 2.207475 22.62047
v -12.084584 1.8104174 22.44038
v -11.846955 2.0263138 22.754099
v -5.452848 -2.1430435 16.599354
v -5.1705923 -1.7755103 16.528032
v -5.2805305 -1.4565554 16.202435
v -5.671688 -1.5038232 15.94962
v -5.8437586 -2.1899483 16.34475
v -5.9530954 -1.8702505 16.020725
v 3.3337402 3.7370586 19.233812
v 1.5293868 5.8750353 20.162764
v 1.8437057 6.1022983 20.197836
v 3.7164826 4.02099 19.121061
v 3.9078345 0.79069775 16.977922
v 3.4797745 0.49587983 17.202883
v 3.7164826 4.02099 19.121061
v 1.8437057 6.1022983 20.197836
v 1.7956583 6.313566 19.90126
v 3.6668534 4.3656716 18.781942
v 1.5930288 6.293214 19.789072
v 3.2359123 4.417982 18.55205
v 3.356655 0.9960846 16.1915
v 3.8462763 1.0439259 16.471296
v 3.9078345 0.79069775 16.977922
v 3.4797745 0.49587983 17.202883
v 2.9914544 0.44776177 16.925812
v 2.903172 3.7921205 18.997572
v 3.3337402 3.7370586 19.233812
v 1.5293868 5.8750353 20.162764
v 1.4016578 5.8833914 20.025866
v 2.9914544 0.44776177 16.925812
v 2.9285762 0.6970199 16.416777
v 2.858994 4.1300354 18.655382
v 2.903172 3.7921205 18.997572
v 1.4016578 5.8833914 20.025866
v 1.5495154 5.994611 19.842094
v 1.5293868 5.8750353 20.162764
v 1.7956583 6.313566 19.90126
v 1.8437057 6.1022983 20.197836
v 1.5930288 6.293214 19.789072
v 2.9285762 0.6970199 16.416777
v 3.356655 0.9960846 16.1915
v 3.2359123 4.417982 18.55205
v 2.858994 4.1300354 18.655382
v 1.5495154 5.994611 19.842094
v 1.5930288 6.293214 19.789072
v 3.8462763 1.0439259 16.471296
v 3.356655 0.9960846 16.1915
v 2.9285762 0.6970199 16.416777
v 2.9914544 0.44776177 16.925812
v 3.9078345 0.79069775 16.977922
v 3.4797745 0.49587983 17.202883
v 2.6626707E-05 2.2357047 -0.7072345
v 2.6406047E-05 2.5221593 -2.87468
v 2.1842809 1.2610797 -2.87468
v 1.9362037 1.1178523 -0.7072345
vt 0.5493164 0.47460938
vt 0.5932617 0.4597168
vt 0.52685547 0.3161621
vt 0.49853516 0.34033203
vt 0.46411133 0.19897461
vt 0.49023438 0.19128418
vt 0.48901367 0.12237549
vt 0.50439453 0.13134766
vt 0.5864258 0.005420685
vt 0.5932617 0.0075569153
vt 0.14331055 0.024047852
vt 0.10107422 0.00541687
vt 0.04638672 0.13110352
vt 0.07324219 0.15710449
vt 0.17199707 0.026229858
vt 0.09643555 0.15893555
vt 0.047546387 0.27734375
vt 0.030685425 0.2758789
vt 0.00541687 0.26586914
vt 0.058410645 0.34448242
vt 0.044677734 0.3552246
vt 0.17199707 0.49121094
vt 0.1652832 0.49365234
vt 0.453125 0.019210815
vt 0.4091797 0.00541687
vt 0.3671875 0.122924805
vt 0.3959961 0.14526367
vt 0.35302734 0.28027344
vt 0.32666016 0.27319336
vt 0.37939453 0.37060547
vt 0.36401367 0.37890625
vt 0.453125 0.5126953
vt 0.4465332 0.51464844
vt 0.24365234 0.48706055
vt 0.27563477 0.47705078
vt 0.25219727 0.3395996
vt 0.22814941 0.36035156
vt 0.21191406 0.20166016
vt 0.23095703 0.19665527
vt 0.22595215 0.10986328
vt 0.23864746 0.12219238
vt 0.3100586 0.005420685
vt 0.31591797 0.008666992
vt 0.21228027 0.10827637
vt 0.18566895 0.20251465
vt 0.19140625 0.3618164
vt 0.19885254 0.48876953
vt 0.18286133 0.5058594
vt 0.25170898 0.50341797
vt 0.26049805 0.5722656
vt 0.18273926 0.57470703
vt 0.31591797 0.5546875
vt 0.30078125 0.48779297
vt 0.58984375 0.8300781
vt 0.52197266 0.82421875
vt 0.52197266 0.9042969
vt 0.58984375 0.9008789
vt 0.00541687 0.54345703
vt 0.00541687 0.6225586
vt 0.07470703 0.66308594
vt 0.14404297 0.6245117
vt 0.14404297 0.5449219
vt 0.07470703 0.50439453
vt 0.014579773 0.78759766
vt 0.080078125 0.80322266
vt 0.06976318 0.7548828
vt 0.00541687 0.7441406
vt 0.080078125 0.67578125
vt 0.014579773 0.6743164
vt 0.43823242 0.6245117
vt 0.42382812 0.5708008
vt 0.42382812 0.61621094
vt 0.43823242 0.5546875
vt 0.38745117 0.5517578
vt 0.38232422 0.5253906
vt 0.35131836 0.578125
vt 0.32666016 0.56591797
vt 0.35107422 0.62353516
vt 0.32666016 0.6352539
vt 0.38745117 0.6425781
vt 0.38232422 0.6645508
vt 0.9736328 0.007827759
vt 0.984375 0.15710449
vt 0.9902344 0.00541687
vt 0.97802734 0.15893555
vt 0.9770508 0.16491699
vt 0.9902344 0.16137695
vt 0.98291016 0.16918945
vt 0.9892578 0.1673584
vt 0.8066406 0.9296875
vt 0.8095703 0.77783203
vt 0.8027344 0.77734375
vt 0.7890625 0.93066406
vt 0.8095703 0.9741211
vt 0.78466797 0.9633789
vt 0.9902344 0.3852539
vt 0.9902344 0.21960449
vt 0.9873047 0.21972656
vt 0.97509766 0.3852539
vt 0.49487305 0.49560547
vt 0.48046875 0.48535156
vt 0.46411133 0.6123047
vt 0.47705078 0.61621094
vt 0.51123047 0.49853516
vt 0.49121094 0.6147461
vt 0.51123047 0.8100586
vt 0.5083008 0.8105469
vt 0.9301758 0.7060547
vt 0.94921875 0.7060547
vt 0.94628906 0.5786133
vt 0.9301758 0.5786133
vt 0.93310547 0.41455078
vt 0.93603516 0.41455078
vt 0.8964844 0.9399414
vt 0.9145508 0.9345703
vt 0.89746094 0.85546875
vt 0.88183594 0.85791016
vt 0.91015625 0.69628906
vt 0.90966797 0.6958008
vt 0.5703125 0.61083984
vt 0.58740234 0.8046875
vt 0.59033203 0.8051758
vt 0.5854492 0.6123047
vt 0.59033203 0.48706055
vt 0.57177734 0.48535156
vt 0.6196289 0.69091797
vt 0.6430664 0.515625
vt 0.64208984 0.52246094
vt 0.6040039 0.6904297
vt 0.6166992 0.79248047
vt 0.6352539 0.7885742
vt 0.6069336 0.80615234
vt 0.6430664 0.7988281
vt 0.6152344 0.81640625
vt 0.6333008 0.8125
vt 0.2529297 0.7265625
vt 0.24145508 0.7236328
vt 0.23242188 0.8203125
vt 0.24206543 0.8198242
vt 0.2529297 0.94189453
vt 0.24829102 0.9423828
vt 0.22436523 0.82177734
vt 0.2442627 0.9428711
vt 0.9301758 0.81347656
vt 0.9560547 0.90771484
vt 0.9609375 0.9057617
vt 0.9394531 0.8095703
vt 0.953125 0.7167969
vt 0.9404297 0.71875
vt 0.9609375 0.7207031
vt 0.94628906 0.8129883
vt 0.94140625 0.20654297
vt 0.94433594 0.101745605
vt 0.9355469 0.10266113
vt 0.95214844 0.20544434
vt 0.9526367 0.107177734
vt 0.9628906 0.20874023
vt 0.9589844 0.005420685
vt 0.9628906 0.0112838745
vt 0.30371094 0.59033203
vt 0.30810547 0.66503906
vt 0.3125 0.66259766
vt 0.3125 0.5854492
vt 0.43774414 0.9038086
vt 0.4501953 0.90185547
vt 0.43310547 0.7973633
vt 0.42285156 0.79589844
vt 0.44458008 0.67822266
vt 0.4501953 0.67529297
vt 0.30810547 0.6972656
vt 0.30371094 0.69921875
vt 0.30371094 0.70410156
vt 0.30810547 0.70654297
vt 0.3125 0.7001953
vt 0.3125 0.70654297
vt 0.015686035 0.90527344
vt 0.005420685 0.9121094
vt 0.005420685 0.9243164
vt 0.015686035 0.9301758
vt 0.026000977 0.91064453
vt 0.026000977 0.92333984
vt 0.18273926 0.8276367
vt 0.20715332 0.9423828
vt 0.2097168 0.94091797
vt 0.18933105 0.82373047
vt 0.21350098 0.93847656
vt 0.19873047 0.81884766
vt 0.21350098 0.7236328
vt 0.20361328 0.72509766
vt 0.1965332 0.72558594
vt 0.9946289 0.4165039
vt 0.984375 0.41455078
vt 0.9838867 0.5097656
vt 0.9946289 0.51171875
vt 0.99365234 0.5986328
vt 0.9892578 0.59814453
vt 0.9716797 0.81591797
vt 0.97802734 0.93115234
vt 0.9824219 0.9301758
vt 0.9824219 0.81396484
vt 0.9824219 0.7167969
vt 0.97216797 0.71875
vt 0.1628418 0.8964844
vt 0.17163086 0.8959961
vt 0.15686035 0.80029297
vt 0.14868164 0.79785156
vt 0.1538086 0.89453125
vt 0.14001465 0.79248047
vt 0.16491699 0.67529297
vt 0.16442871 0.68115234
vt 0.17163086 0.67871094
vt 0.8515625 0.35009766
vt 0.8515625 0.36035156
vt 0.859375 0.3642578
vt 0.8671875 0.35839844
vt 0.859375 0.34423828
vt 0.8671875 0.34838867
vt 0.94628906 0.28344727
vt 0.96435547 0.22192383
vt 0.9560547 0.21960449
vt 0.9355469 0.28173828
vt 0.95214844 0.36279297
vt 0.96435547 0.3630371
vt 0.6040039 0.89160156
vt 0.6254883 0.9501953
vt 0.6323242 0.9477539
vt 0.6123047 0.8901367
vt 0.63671875 0.94873047
vt 0.6220703 0.8930664
vt 0.63671875 0.82958984
vt 0.62597656 0.82714844
vt 0.6152344 0.83203125
vt 0.67041016 0.96191406
vt 0.6821289 0.9614258
vt 0.6645508 0.89208984
vt 0.6538086 0.8935547
vt 0.67822266 0.8364258
vt 0.6821289 0.83691406
vt 0.15686035 0.6323242
vt 0.16931152 0.6333008
vt 0.16516113 0.5488281
vt 0.15478516 0.55126953
vt 0.16064453 0.5136719
vt 0.16503906 0.5126953
vt 0.15771484 0.51171875
vt 0.16711426 0.50439453
vt 0.15917969 0.5048828
vt 0.16931152 0.5073242
vt 0.8671875 0.85253906
vt 0.85546875 0.85498047
vt 0.83984375 0.9296875
vt 0.85009766 0.9267578
vt 0.8671875 0.9765625
vt 0.86376953 0.9819336
vt 0.76660156 0.88671875
vt 0.7558594 0.88134766
vt 0.74560547 0.8876953
vt 0.74560547 0.9003906
vt 0.76660156 0.8989258
vt 0.7558594 0.9057617
vt 0.00541687 0.890625
vt 0.07409668 0.89453125
vt 0.07409668 0.8144531
vt 0.00541687 0.81933594
vn 0.0069084167 0.99560547 0.0947876
vn 0.86328125 0.48901367 0.12359619
vn 0.8623047 0.5029297 0.059417725
vn -0.031341553 0.99658203 0.07354736
vn -0.13220215 0.9814453 0.1381836
vn 0.7504883 0.57714844 -0.32226562
vn -0.2409668 0.9633789 0.117126465
vn 0.41015625 0.63183594 -0.65771484
vn 0.1940918 0.9003906 0.3894043
vn 0.70751953 0.6899414 -0.1538086
vn 0.86328125 -0.48901367 0.12359619
vn 0.0069084167 -0.99560547 0.0947876
vn -0.031341553 -0.99658203 0.07354736
vn 0.8623047 -0.5029297 0.059417725
vn 0.86328125 0.48901367 0.12359619
vn 0.8623047 0.5029297 0.059417725
vn 0.7504883 0.57714844 -0.32226562
vn 0.81347656 -0.5151367 -0.27075195
vn -0.015640259 -0.9819336 0.18774414
vn 0.64501953 -0.35913086 -0.6743164
vn 0.2602539 -0.9609375 0.09490967
vn 0.9824219 -0.05105591 -0.17980957
vn 0.7363281 -0.58251953 0.34423828
vn 0.0069084167 -0.99560547 0.0947876
vn -0.8647461 -0.49682617 0.0703125
vn -0.875 -0.4807129 0.05429077
vn -0.031341553 -0.99658203 0.07354736
vn -0.015640259 -0.9819336 0.18774414
vn -0.7788086 -0.49682617 0.38330078
vn 0.2602539 -0.9609375 0.09490967
vn -0.31884766 -0.55908203 0.7651367
vn 0.7363281 -0.58251953 0.34423828
vn 0.25634766 -0.33496094 0.9067383
vn -0.8647461 0.49682617 0.0703125
vn 0.0069084167 0.99560547 0.0947876
vn -0.031341553 0.99658203 0.07354736
vn -0.875 0.4807129 0.05429077
vn -0.83691406 0.3894043 0.38452148
vn -0.13220215 0.9814453 0.1381836
vn -0.5698242 0.30322266 0.7636719
vn -0.2409668 0.9633789 0.117126465
vn -0.0019378662 0.38452148 0.92285156
vn 0.1940918 0.9003906 0.3894043
vn -0.31884766 -0.55908203 0.7651367
vn -0.7788086 -0.49682617 0.38330078
vn -0.875 -0.4807129 0.05429077
vn -0.8647461 -0.49682617 0.0703125
vn -0.8588867 -0.49609375 0.1262207
vn -0.8588867 0.49609375 0.1262207
vn -0.71728516 0.4140625 -0.5600586
vn -0.71728516 -0.4140625 -0.5600586
vn -0 0.828125 -0.5600586
vn 3.296137E-05 0.9921875 0.12646484
vn 3.2901764E-05 -0.9921875 0.12646484
vn -0 -0.828125 -0.5600586
vn -0.71728516 -0.4140625 -0.5600586
vn -0.8588867 -0.49609375 0.1262207
vn -0 -0.828125 -0.5600586
vn 0.71728516 -0.4140625 -0.5600586
vn 0.71728516 0.4140625 -0.5600586
vn -0 0.828125 -0.5600586
vn -0.71728516 0.4140625 -0.5600586
vn -0.71728516 -0.4140625 -0.5600586
vn 0.8588867 0.49609375 0.12634277
vn 0.71728516 0.4140625 -0.5600586
vn 0.71728516 -0.4140625 -0.5600586
vn 0.8588867 -0.49609375 0.12634277
vn -0 -0.828125 -0.5600586
vn 3.2901764E-05 -0.9921875 0.12646484
vn -0.8588867 0.49609375 0.1262207
vn 0.0069084167 0.99560547 0.0947876
vn -0.8647461 0.49682617 0.0703125
vn 3.296137E-05 0.9921875 0.12646484
vn 0.86328125 0.48901367 0.12359619
vn 0.8588867 0.49609375 0.12634277
vn 0.86328125 -0.48901367 0.12359619
vn 0.8588867 -0.49609375 0.12634277
vn 0.0069084167 -0.99560547 0.0947876
vn 3.2901764E-05 -0.9921875 0.12646484
vn -0.8647461 -0.49682617 0.0703125
vn -0.8588867 -0.49609375 0.1262207
vn -0.5698242 0.30322266 0.7636719
vn 0.25634766 -0.33496094 0.9067383
vn -0.31884766 -0.55908203 0.7651367
vn -0.0019378662 0.38452148 0.92285156
vn 0.1940918 0.9003906 0.3894043
vn 0.7363281 -0.58251953 0.34423828
vn 0.70751953 0.6899414 -0.1538086
vn 0.9824219 -0.05105591 -0.17980957
vn 0.64501953 -0.35913086 -0.6743164
vn 0.9824219 -0.05105591 -0.17980957
vn 0.70751953 0.6899414 -0.1538086
vn 0.41015625 0.63183594 -0.65771484
vn 0.81347656 -0.5151367 -0.27075195
vn 0.7504883 0.57714844 -0.32226562
vn -0.45043945 -0.5722656 -0.6855469
vn -0.9550781 -0.18676758 -0.22937012
vn -0.36621094 -0.77441406 0.5161133
vn 0.20654297 -0.97509766 -0.0793457
vn 0.7392578 -0.6088867 -0.28710938
vn 0.35791016 -0.25317383 -0.8989258
vn -0.45043945 -0.5722656 -0.6855469
vn 0.20654297 -0.97509766 -0.0793457
vn 0.91308594 -0.18566895 0.36328125
vn 0.6455078 -0.40942383 0.64453125
vn 0.21484375 0.12902832 0.9682617
vn -0.36621094 -0.77441406 0.5161133
vn 0.35791016 -0.25317383 -0.8989258
vn 0.14123535 0.5263672 -0.8383789
vn -0.6958008 0.41308594 -0.5878906
vn -0.45043945 -0.5722656 -0.6855469
vn -0.9550781 -0.18676758 -0.22937012
vn -0.86816406 0.4333496 -0.24169922
vn 0.14123535 0.5263672 -0.8383789
vn 0.3100586 0.93603516 -0.16748047
vn -0.3125 0.94628906 0.08416748
vn -0.6958008 0.41308594 -0.5878906
vn -0.86816406 0.4333496 -0.24169922
vn -0.36547852 0.9135742 0.17810059
vn 0.6455078 -0.40942383 0.64453125
vn 0.21484375 0.12902832 0.9682617
vn 0.15710449 0.64941406 0.7441406
vn 0.3112793 0.6386719 0.7036133
vn 0.70214844 0.57373047 0.42211914
vn 0.91308594 -0.18566895 0.36328125
vn 0.3112793 0.6386719 0.7036133
vn 0.15710449 0.64941406 0.7441406
vn -0.36547852 0.9135742 0.17810059
vn -0.3125 0.94628906 0.08416748
vn 0.3100586 0.93603516 -0.16748047
vn 0.70214844 0.57373047 0.42211914
vn 0.14123535 0.5263672 -0.8383789
vn 0.91308594 -0.18566895 0.36328125
vn 0.35791016 -0.25317383 -0.8989258
vn 0.7392578 -0.6088867 -0.28710938
vn 0.9223633 0.38671875 -0.000808239
vn 0.6855469 0.13391113 -0.71533203
vn 0.5786133 -0.59521484 -0.5571289
vn 0.9584961 -0.17321777 0.22729492
vn 0.43920898 -0.56689453 0.6972656
vn 0.055999756 -0.9975586 0.046813965
vn -0.33422852 -0.45996094 -0.8227539
vn -0.5830078 -0.80322266 -0.12145996
vn 0.9584961 -0.17321777 0.22729492
vn 0.43920898 -0.56689453 0.6972656
vn -0.010482788 0.08459473 0.99658203
vn 0.3630371 0.38720703 0.84765625
vn 0.40649414 0.77001953 0.49194336
vn 0.9223633 0.38671875 -0.000808239
vn -0.33203125 0.9082031 0.2553711
vn -0.63916016 0.5073242 0.578125
vn 0.6855469 0.13391113 -0.71533203
vn -0.33422852 -0.45996094 -0.8227539
vn 0.5786133 -0.59521484 -0.5571289
vn -0.05230713 0.27001953 -0.9614258
vn -0.95214844 0.09020996 -0.29174805
vn -0.5698242 0.671875 -0.4729004
vn -0.5830078 -0.80322266 -0.12145996
vn -0.9980469 -0.059906006 0.0014181137
vn 0.3630371 0.38720703 0.84765625
vn -0.010482788 0.08459473 0.99658203
vn -0.6401367 0.15332031 0.7529297
vn -0.63916016 0.5073242 0.578125
vn -0.5698242 0.671875 -0.4729004
vn -0.33203125 0.9082031 0.2553711
vn -0.63916016 0.5073242 0.578125
vn -0.95214844 0.09020996 -0.29174805
vn -0.9980469 -0.059906006 0.0014181137
vn -0.6401367 0.15332031 0.7529297
vn -0.010482788 0.08459473 0.99658203
vn 0.43920898 -0.56689453 0.6972656
vn 0.055999756 -0.9975586 0.046813965
vn -0.5830078 -0.80322266 -0.12145996
vn -0.6401367 0.15332031 0.7529297
vn -0.9980469 -0.059906006 0.0014181137
vn -0.5698242 0.671875 -0.4729004
vn -0.05230713 0.27001953 -0.9614258
vn 0.6855469 0.13391113 -0.71533203
vn 0.9223633 0.38671875 -0.000808239
vn -0.33203125 0.9082031 0.2553711
vn 0.40649414 0.77001953 0.49194336
vn -0.7607422 -0.11791992 -0.6381836
vn -0.6430664 0.74316406 -0.18395996
vn -0.7182617 -0.23046875 0.65625
vn -0.5410156 -0.84033203 -0.031799316
vn 0.43359375 -0.18896484 0.8808594
vn 0.20666504 -0.69433594 0.68896484
vn 0.5366211 -0.81591797 0.21594238
vn -0.06365967 -0.94433594 -0.32202148
vn -0.21325684 -0.4182129 -0.8828125
vn -0.21325684 -0.4182129 -0.8828125
vn 0.20446777 0.21948242 -0.95410156
vn -0.09753418 0.79345703 -0.60058594
vn -0.7607422 -0.11791992 -0.6381836
vn -0.6430664 0.74316406 -0.18395996
vn -0.15039062 0.9614258 -0.23120117
vn 0.20666504 -0.69433594 0.68896484
vn 0.43359375 -0.18896484 0.8808594
vn 0.68359375 0.44384766 0.57910156
vn 0.69091797 0.31689453 0.64941406
vn 0.97216797 -0.1784668 0.1517334
vn 0.5366211 -0.81591797 0.21594238
vn 0.83154297 0.34838867 -0.43310547
vn 0.97216797 -0.1784668 0.1517334
vn 0.69091797 0.31689453 0.64941406
vn 0.46679688 0.8833008 -0.03768921
vn 0.20446777 0.21948242 -0.95410156
vn -0.09753418 0.79345703 -0.60058594
vn -0.15039062 0.9614258 -0.23120117
vn 0.5126953 0.83935547 0.18115234
vn 0.68359375 0.44384766 0.57910156
vn 0.5366211 -0.81591797 0.21594238
vn 0.97216797 -0.1784668 0.1517334
vn 0.83154297 0.34838867 -0.43310547
vn 0.20446777 0.21948242 -0.95410156
vn -0.06365967 -0.94433594 -0.32202148
vn -0.21325684 -0.4182129 -0.8828125
vn 0.08203125 -0.48095703 0.8730469
vn -0.45654297 -0.03060913 0.88916016
vn 0.20617676 0.47705078 0.8544922
vn 0.83740234 0.004142761 0.5463867
vn 0.8286133 -0.55859375 0.040283203
vn 0.19665527 -0.8959961 0.39770508
vn 0.83740234 0.004142761 0.5463867
vn 0.20617676 0.47705078 0.8544922
vn 0.14758301 0.9848633 0.08935547
vn 0.7939453 0.55566406 -0.24584961
vn -0.43408203 0.83154297 -0.3466797
vn -0.0052948 0.5605469 -0.828125
vn 0.056365967 -0.099609375 -0.99365234
vn 0.75878906 -0.15246582 -0.6333008
vn 0.8286133 -0.55859375 0.040283203
vn 0.19665527 -0.8959961 0.39770508
vn -0.51708984 -0.8544922 0.04788208
vn -0.80126953 -0.47387695 0.36547852
vn 0.08203125 -0.48095703 0.8730469
vn -0.45654297 -0.03060913 0.88916016
vn -0.93066406 -0.10003662 0.35180664
vn -0.51708984 -0.8544922 0.04788208
vn -0.5839844 -0.4699707 -0.6621094
vn -0.81689453 0.064208984 -0.57373047
vn -0.80126953 -0.47387695 0.36547852
vn -0.93066406 -0.10003662 0.35180664
vn -0.90283203 0.23693848 -0.35913086
vn -0.45654297 -0.03060913 0.88916016
vn 0.14758301 0.9848633 0.08935547
vn 0.20617676 0.47705078 0.8544922
vn -0.43408203 0.83154297 -0.3466797
vn -0.5839844 -0.4699707 -0.6621094
vn 0.056365967 -0.099609375 -0.99365234
vn -0.0052948 0.5605469 -0.828125
vn -0.81689453 0.064208984 -0.57373047
vn -0.90283203 0.23693848 -0.35913086
vn -0.43408203 0.83154297 -0.3466797
vn 0.75878906 -0.15246582 -0.6333008
vn 0.056365967 -0.099609375 -0.99365234
vn -0.5839844 -0.4699707 -0.6621094
vn -0.51708984 -0.8544922 0.04788208
vn 0.8286133 -0.55859375 0.040283203
vn 0.19665527 -0.8959961 0.39770508
vn 3.296137E-05 0.9921875 0.12646484
vn -0 0.828125 -0.5600586
vn 0.71728516 0.4140625 -0.5600586
vn 0.8588867 0.49609375 0.12634277
g DesertTree2_0
f 3/3/3 2/2/2 1/1/1
f 4/4/4 3/3/3 1/1/1
f 4/4/4 5/5/5 3/3/3
f 5/5/5 6/6/6 3/3/3
f 5/5/5 7/7/7 6/6/6
f 7/7/7 8/8/8 6/6/6
f 7/7/7 9/9/9 8/8/8
f 9/9/9 10/10/10 8/8/8
f 13/13/13 12/12/12 11/11/11
f 14/14/14 13/13/13 11/11/11
f 14/14/14 11/11/11 15/15/15
f 16/16/16 14/14/14 15/15/15
f 16/16/16 17/17/17 14/14/14
f 17/17/17 18/18/18 14/14/14
f 14/14/14 18/18/18 13/13/13
f 18/18/18 19/19/19 13/13/13
f 18/18/18 20/20/20 19/19/19
f 20/20/20 21/21/21 19/19/19
f 20/20/20 22/22/22 21/21/21
f 22/22/22 23/23/23 21/21/21
f 26/26/26 25/25/25 24/24/24
f 27/27/27 26/26/26 24/24/24
f 27/27/27 28/28/28 26/26/26
f 28/28/28 29/29/29 26/26/26
f 28/28/28 30/30/30 29/29/29
f 30/30/30 31/31/31 29/29/29
f 30/30/30 32/32/32 31/31/31
f 32/32/32 33/33/33 31/31/31
f 36/36/36 35/35/35 34/34/34
f 37/37/37 36/36/36 34/34/34
f 37/37/37 38/38/38 36/36/36
f 38/38/38 39/39/39 36/36/36
f 38/38/38 40/40/40 39/39/39
f 40/40/40 41/41/41 39/39/39
f 40/40/40 42/42/42 41/41/41
f 42/42/42 43/43/43 41/41/41
f 44/44/44 40/40/40 38/38/38
f 45/45/45 44/44/44 38/38/38
f 45/45/45 38/38/38 37/37/37
f 46/46/46 45/45/45 37/37/37
f 46/46/46 37/37/37 47/47/47
f 37/37/37 34/34/34 47/47/47
f 47/47/47 34/34/34 48/48/48
f 34/34/34 49/49/49 48/48/48
f 49/49/49 50/50/50 48/48/48
f 50/50/50 51/51/51 48/48/48
f 52/52/52 50/50/50 49/49/49
f 53/53/53 52/52/52 49/49/49
f 56/56/56 55/55/55 54/54/54
f 57/57/57 56/56/56 54/54/54
f 60/60/60 59/59/59 58/58/58
f 58/58/58 61/61/61 60/60/60
f 58/58/58 62/62/62 61/61/61
f 58/58/58 63/63/63 62/62/62
f 66/66/66 65/65/65 64/64/64
f 67/67/67 66/66/66 64/64/64
f 68/68/68 66/66/66 67/67/67
f 69/69/69 68/68/68 67/67/67
f 72/72/72 71/71/71 70/70/70
f 71/71/71 73/73/73 70/70/70
f 71/71/71 74/74/74 73/73/73
f 74/74/74 75/75/75 73/73/73
f 74/74/74 76/76/76 75/75/75
f 76/76/76 77/77/77 75/75/75
f 76/76/76 78/78/78 77/77/77
f 78/78/78 79/79/79 77/77/77
f 78/78/78 80/80/80 79/79/79
f 80/80/80 81/81/81 79/79/79
f 84/84/84 83/83/83 82/82/82
f 83/83/83 85/85/85 82/82/82
f 86/86/86 85/85/85 83/83/83
f 86/86/86 83/83/83 87/87/87
f 88/88/88 86/86/86 87/87/87
f 87/87/87 89/89/89 88/88/88
f 92/92/92 91/91/91 90/90/90
f 93/93/93 92/92/92 90/90/90
f 93/93/93 90/90/90 94/94/94
f 95/95/95 93/93/93 94/94/94
f 98/98/98 97/97/97 96/96/96
f 99/99/99 98/98/98 96/96/96
f 102/102/102 101/101/101 100/100/100
f 103/103/103 102/102/102 100/100/100
f 103/103/103 100/100/100 104/104/104
f 105/105/105 103/103/103 104/104/104
f 105/105/105 106/106/106 103/103/103
f 106/106/106 107/107/107 103/103/103
f 110/110/110 109/109/109 108/108/108
f 111/111/111 110/110/110 108/108/108
f 111/111/111 112/112/112 110/110/110
f 112/112/112 113/113/113 110/110/110
f 116/116/116 115/115/115 114/114/114
f 117/117/117 116/116/116 114/114/114
f 117/117/117 118/118/118 116/116/116
f 118/118/118 119/119/119 116/116/116
f 122/122/122 121/121/121 120/120/120
f 123/123/123 122/122/122 120/120/120
f 123/123/123 120/120/120 124/124/124
f 120/120/120 125/125/125 124/124/124
f 128/128/128 127/127/127 126/126/126
f 129/129/129 128/128/128 126/126/126
f 129/129/129 126/126/126 130/130/130
f 126/126/126 131/131/131 130/130/130
f 132/132/132 130/130/130 131/131/131
f 132/132/132 131/131/131 133/133/133
f 134/134/134 132/132/132 133/133/133
f 133/133/133 135/135/135 134/134/134
f 138/138/138 137/137/137 136/136/136
f 139/139/139 138/138/138 136/136/136
f 139/139/139 140/140/140 138/138/138
f 140/140/140 141/141/141 138/138/138
f 138/138/138 141/141/141 142/142/142
f 141/141/141 143/143/143 142/142/142
f 146/146/146 145/145/145 144/144/144
f 147/147/147 146/146/146 144/144/144
f 147/147/147 144/144/144 148/148/148
f 144/144/144 149/149/149 148/148/148
f 147/147/147 148/148/148 150/150/150
f 151/151/151 147/147/147 150/150/150
f 154/154/154 153/153/153 152/152/152
f 153/153/153 155/155/155 152/152/152
f 153/153/153 156/156/156 155/155/155
f 156/156/156 157/157/157 155/155/155
f 153/153/153 158/158/158 156/156/156
f 158/158/158 159/159/159 156/156/156
f 162/162/162 161/161/161 160/160/160
f 163/163/163 162/162/162 160/160/160
f 166/166/166 165/165/165 164/164/164
f 167/167/167 166/166/166 164/164/164
f 167/167/167 168/168/168 166/166/166
f 168/168/168 169/169/169 166/166/166
f 172/172/172 171/171/171 170/170/170
f 170/170/170 173/173/173 172/172/172
f 170/170/170 174/174/174 173/173/173
f 174/174/174 175/175/175 173/173/173
f 178/178/178 177/177/177 176/176/176
f 176/176/176 179/179/179 178/178/178
f 176/176/176 180/180/180 179/179/179
f 180/180/180 181/181/181 179/179/179
f 184/184/184 183/183/183 182/182/182
f 185/185/185 184/184/184 182/182/182
f 186/186/186 184/184/184 185/185/185
f 187/187/187 186/186/186 185/185/185
f 187/187/187 185/185/185 188/188/188
f 185/185/185 189/189/189 188/188/188
f 185/185/185 182/182/182 189/189/189
f 182/182/182 190/190/190 189/189/189
f 193/193/193 192/192/192 191/191/191
f 194/194/194 193/193/193 191/191/191
f 194/194/194 195/195/195 193/193/193
f 195/195/195 196/196/196 193/193/193
f 199/199/199 198/198/198 197/197/197
f 200/200/200 199/199/199 197/197/197
f 200/200/200 197/197/197 201/201/201
f 197/197/197 202/202/202 201/201/201
f 205/205/205 204/204/204 203/203/203
f 206/206/206 205/205/205 203/203/203
f 206/206/206 203/203/203 207/207/207
f 208/208/208 206/206/206 207/207/207
f 208/208/208 209/209/209 206/206/206
f 209/209/209 210/210/210 206/206/206
f 206/206/206 210/210/210 205/205/205
f 210/210/210 211/211/211 205/205/205
f 214/214/214 213/213/213 212/212/212
f 212/212/212 215/215/215 214/214/214
f 212/212/212 216/216/216 215/215/215
f 216/216/216 217/217/217 215/215/215
f 220/220/220 219/219/219 218/218/218
f 221/221/221 220/220/220 218/218/218
f 221/221/221 218/218/218 222/222/222
f 218/218/218 223/223/223 222/222/222
f 226/226/226 225/225/225 224/224/224
f 227/227/227 226/226/226 224/224/224
f 228/228/228 226/226/226 227/227/227
f 229/229/229 228/228/228 227/227/227
f 229/229/229 227/227/227 230/230/230
f 227/227/227 231/231/231 230/230/230
f 227/227/227 224/224/224 231/231/231
f 224/224/224 232/232/232 231/231/231
f 235/235/235 234/234/234 233/233/233
f 236/236/236 235/235/235 233/233/233
f 236/236/236 237/237/237 235/235/235
f 237/237/237 238/238/238 235/235/235
f 241/241/241 240/240/240 239/239/239
f 242/242/242 241/241/241 239/239/239
f 242/242/242 243/243/243 241/241/241
f 243/243/243 244/244/244 241/241/241
f 244/244/244 243/243/243 245/245/245
f 246/246/246 244/244/244 245/245/245
f 245/245/245 247/247/247 246/246/246
f 246/246/246 248/248/248 244/244/244
f 251/251/251 250/250/250 249/249/249
f 252/252/252 251/251/251 249/249/249
f 252/252/252 253/253/253 251/251/251
f 253/253/253 254/254/254 251/251/251
f 257/257/257 256/256/256 255/255/255
f 255/255/255 258/258/258 257/257/257
f 255/255/255 259/259/259 258/258/258
f 259/259/259 260/260/260 258/258/258
f 263/263/263 262/262/262 261/261/261
f 264/264/264 263/263/263 261/261/261
