g Knight
v 0.06124723 0.0034305076 -1.5266132
v 0.061308887 -0.026548546 -1.5266585
v 0.068926826 -0.028854113 -0.9962032
v 0.068862185 0.002639806 -0.9961554
v 0.061308887 -0.026548546 -1.5266585
v -0.0011648037 -0.061887056 -0.9962992
v 0.068926826 -0.028854113 -0.9962032
v -0.0020404346 -0.05391449 -1.5267416
v -0.0655019 -0.026809122 -1.5267417
v -0.07139175 -0.029142415 -0.9962951
v 0.06124723 0.0034305076 -1.5266132
v 0.077202275 0.003463259 -1.5266027
v 0.077291 -0.03971261 -1.5266683
v 0.061308887 -0.026548546 -1.5266585
v -0.0019887248 -0.07910051 -1.5267799
v -0.0020404346 -0.05391449 -1.5267416
v -0.0655019 -0.026809122 -1.5267417
v -0.08142966 -0.04003874 -1.5267723
v -0.06556344 0.0031699673 -1.526696
v -0.081518486 0.0031371722 -1.5267065
v 0.077291 -0.03971261 -1.5266683
v 0.07739097 -0.03947892 -1.680322
v -0.0018887203 -0.07886677 -1.6804336
v -0.0019887248 -0.07910051 -1.5267799
v -0.08142966 -0.04003874 -1.5267723
v -0.08132969 -0.03980496 -1.6804258
v -0.0020580627 0.0035341037 -1.6803081
v 0.07739097 -0.03947892 -1.680322
v 0.07730228 0.0036970773 -1.6802565
v -0.0018887203 -0.07886677 -1.6804336
v -0.08132969 -0.03980496 -1.6804258
v -0.08141838 0.0033709584 -1.6803601
v 0.077202275 0.003463259 -1.5266027
v 0.07730228 0.0036970773 -1.6802565
v 0.07739097 -0.03947892 -1.680322
v 0.077291 -0.03971261 -1.5266683
v -0.06556344 0.0031699673 -1.526696
v -0.07145646 0.0023515807 -0.9962472
v -0.07139175 -0.029142415 -0.9962951
v -0.0655019 -0.026809122 -1.5267417
v -0.081518486 0.0031371722 -1.5267065
v -0.08142966 -0.04003874 -1.5267723
v -0.08132969 -0.03980496 -1.6804258
v -0.08141838 0.0033709584 -1.6803601
v 0.0008573802 -0.08275495 -1.016628
v 0.30272946 -0.087302364 -0.92019784
v 0.30277905 -0.08718651 -0.99632084
v -0.0023672585 -0.087929174 -0.92039746
v -0.30746394 -0.08855598 -0.9205971
v -0.30741426 -0.08844017 -0.99671984
v 0.30277905 -0.08718651 -0.99632084
v 0.30272946 -0.087302364 -0.92019784
v 0.36239564 0.003123166 -0.9172478
v 0.36244527 0.0032389914 -0.9933707
v 0.0008573802 -0.08275495 -1.016628
v 0.30277905 -0.08718651 -0.99632084
v 0.36244527 0.0032389914 -0.9933707
v 0.0006820173 0.0025305832 -1.0164986
v -0.36699033 0.0017560233 -1.0041158
v -0.30741426 -0.08844017 -0.99671984
v 0.30272946 -0.087302364 -0.92019784
v -0.0025528707 0.0023776265 -0.9202603
v 0.36239564 0.003123166 -0.9172478
v -0.0023672585 -0.087929174 -0.92039746
v -0.30746394 -0.08855598 -0.9205971
v -0.36703974 0.0016402109 -0.92799306
v -0.30741426 -0.08844017 -0.99671984
v -0.36699033 0.0017560233 -1.0041158
v -0.36703974 0.0016402109 -0.92799306
v -0.30746394 -0.08855598 -0.9205971
v 0.06124723 0.0034305076 -1.5266132
v 0.068862185 0.002639806 -0.9961554
v 0.06879738 0.034133796 -0.9961076
v 0.061185714 0.033409603 -1.5265675
v 0.061185714 0.033409603 -1.5265675
v 0.06879738 0.034133796 -0.9961076
v -0.0014295084 0.066878416 -0.9961034
v -0.002275758 0.06051504 -1.5265677
v -0.06562507 0.033149183 -1.5266504
v -0.07152124 0.03384544 -0.9961993
v 0.06124723 0.0034305076 -1.5266132
v 0.07711345 0.046639215 -1.526537
v 0.077202275 0.003463259 -1.5266027
v 0.061185714 0.033409603 -1.5265675
v -0.0023275092 0.08570103 -1.5265291
v -0.002275758 0.06051504 -1.5265677
v -0.06562507 0.033149183 -1.5266504
v -0.08160715 0.046313222 -1.5266407
v -0.06556344 0.0031699673 -1.526696
v -0.081518486 0.0031371722 -1.5267065
v 0.07711345 0.046639215 -1.526537
v -0.0022274833 0.08593482 -1.6801832
v 0.07721348 0.046873022 -1.6801906
v -0.0023275092 0.08570103 -1.5265291
v -0.08160715 0.046313222 -1.5266407
v -0.08150716 0.046546973 -1.6802948
v -0.0020580627 0.0035341037 -1.6803081
v 0.07730228 0.0036970773 -1.6802565
v 0.07721348 0.046873022 -1.6801906
v -0.0022274833 0.08593482 -1.6801832
v -0.08150716 0.046546973 -1.6802948
v -0.08141838 0.0033709584 -1.6803601
v 0.077202275 0.003463259 -1.5266027
v 0.07711345 0.046639215 -1.526537
v 0.07721348 0.046873022 -1.6801906
v 0.07730228 0.0036970773 -1.6802565
v -0.06556344 0.0031699673 -1.526696
v -0.06562507 0.033149183 -1.5266504
v -0.07152124 0.03384544 -0.9961993
v -0.07145646 0.0023515807 -0.9962472
v -0.081518486 0.0031371722 -1.5267065
v -0.08141838 0.0033709584 -1.6803601
v -0.08150716 0.046546973 -1.6802948
v -0.08160715 0.046313222 -1.5266407
v 0.0005067764 0.08781616 -1.0163689
v 0.30240786 0.093427084 -0.9960462
v 0.30235827 0.093311235 -0.91992337
v -0.0027385033 0.09268445 -0.9201229
v -0.30783504 0.09205767 -0.9203224
v -0.3077856 0.09217352 -0.9964453
v 0.30240786 0.093427084 -0.9960462
v 0.36244527 0.0032389914 -0.9933707
v 0.36239564 0.003123166 -0.9172478
v 0.30235827 0.093311235 -0.91992337
v 0.0005067764 0.08781616 -1.0163689
v 0.36244527 0.0032389914 -0.9933707
v 0.30240786 0.093427084 -0.9960462
v 0.0006820173 0.0025305832 -1.0164986
v -0.36699033 0.0017560233 -1.0041158
v -0.3077856 0.09217352 -0.9964453
v 0.30235827 0.093311235 -0.91992337
v 0.36239564 0.003123166 -0.9172478
v -0.0025528707 0.0023776265 -0.9202603
v -0.0027385033 0.09268445 -0.9201229
v -0.30783504 0.09205767 -0.9203224
v -0.36703974 0.0016402109 -0.92799306
v -0.3077856 0.09217352 -0.9964453
v -0.30783504 0.09205767 -0.9203224
v -0.36703974 0.0016402109 -0.92799306
v -0.36699033 0.0017560233 -1.0041158
v -0.103315845 0.07849828 1.6352894
v -0.22117855 -0.0020960274 1.7271819
v -0.21705253 0.0019935865 -0.9576469
v -0.14651081 0.048754804 -0.9569604
v 0.0026208046 0.078471705 1.7961576
v 0.0026093218 -0.0021527244 2.067012
v 0.22683923 -0.0011758369 1.7274754
v 0.0027253623 0.07871631 1.6353586
v -0.0026431778 0.0588212 -0.9594241
v 0.1613141 0.0709799 -0.9612961
v 0.10876666 0.07893424 1.6354277
v 0.23209259 0.002923317 -0.9619229
v -0.10298613 -0.081925645 1.635045
v -0.14631921 -0.04447923 -0.957102
v -0.21705253 0.0019935865 -0.9576469
v -0.22117855 -0.0020960274 1.7271819
v 0.0030550137 -0.08170788 1.6351144
v -0.0024113748 -0.05394638 -0.95959556
v 0.1615945 -0.0654252 -0.9615034
v 0.0029504327 -0.08195248 1.7959137
v 0.0026093218 -0.0021527244 2.067012
v 0.22683923 -0.0011758369 1.7274754
v 0.10909623 -0.08148991 1.6351836
v 0.23209259 0.002923317 -0.9619229
vt 0.93408203 0.67626953
vt 0.92871094 0.67626953
vt 0.92822266 0.77685547
vt 0.93408203 0.77685547
vt 0.890625 0.5083008
vt 0.87939453 0.60839844
vt 0.8925781 0.60839844
vt 0.87890625 0.5083008
vt 0.8666992 0.5083008
vt 0.86621094 0.60839844
vt 0.40673828 0.859375
vt 0.40673828 0.8564453
vt 0.39868164 0.8564453
vt 0.40112305 0.859375
vt 0.39135742 0.87158203
vt 0.3959961 0.87158203
vt 0.40112305 0.8833008
vt 0.39868164 0.88671875
vt 0.40673828 0.8833008
vt 0.40673828 0.88671875
vt 0.4230957 0.93652344
vt 0.45214844 0.93652344
vt 0.45239258 0.921875
vt 0.42333984 0.921875
vt 0.4230957 0.90625
vt 0.45214844 0.90625
vt 0.26733398 0.9291992
vt 0.2590332 0.94384766
vt 0.26733398 0.94433594
vt 0.25170898 0.9291992
vt 0.2590332 0.9140625
vt 0.26733398 0.9140625
vt 0.9868164 0.70410156
vt 0.9868164 0.67529297
vt 0.9790039 0.67529297
vt 0.9790039 0.70410156
vt 0.93066406 0.0071411133
vt 0.93066406 0.10748291
vt 0.93652344 0.10748291
vt 0.93652344 0.0071411133
vt 0.81591797 0.9760742
vt 0.82421875 0.9760742
vt 0.82421875 0.9472656
vt 0.81591797 0.9472656
vt 0.30078125 0.5234375
vt 0.31884766 0.46655273
vt 0.30444336 0.46655273
vt 0.31884766 0.5239258
vt 0.31884766 0.58154297
vt 0.30444336 0.58154297
vt 0.16149902 0.9868164
vt 0.17590332 0.98583984
vt 0.17590332 0.96875
vt 0.16149902 0.96972656
vt 0.4074707 0.77246094
vt 0.40844727 0.71533203
vt 0.39135742 0.70410156
vt 0.39135742 0.77246094
vt 0.39135742 0.84228516
vt 0.40844727 0.8310547
vt 0.06414795 0.7294922
vt 0.08117676 0.7871094
vt 0.08117676 0.7182617
vt 0.064086914 0.7871094
vt 0.064086914 0.84472656
vt 0.08117676 0.85595703
vt 0.78125 0.64453125
vt 0.78125 0.6616211
vt 0.79541016 0.66064453
vt 0.79541016 0.6435547
vt 0.93408203 0.67626953
vt 0.93408203 0.77685547
vt 0.92822266 0.77685547
vt 0.92871094 0.67626953
vt 0.890625 0.5083008
vt 0.8925781 0.60839844
vt 0.87939453 0.60839844
vt 0.87890625 0.5083008
vt 0.8666992 0.5083008
vt 0.86621094 0.60839844
vt 0.40673828 0.859375
vt 0.39868164 0.8564453
vt 0.40673828 0.8564453
vt 0.40112305 0.859375
vt 0.39135742 0.87158203
vt 0.3959961 0.87158203
vt 0.40112305 0.8833008
vt 0.39868164 0.88671875
vt 0.40673828 0.8833008
vt 0.40673828 0.88671875
vt 0.4230957 0.93652344
vt 0.45239258 0.921875
vt 0.45214844 0.93652344
vt 0.42333984 0.921875
vt 0.4230957 0.90625
vt 0.45214844 0.90625
vt 0.26733398 0.9291992
vt 0.26733398 0.94433594
vt 0.2590332 0.94384766
vt 0.25170898 0.9291992
vt 0.2590332 0.9140625
vt 0.26733398 0.9140625
vt 0.9868164 0.70410156
vt 0.9790039 0.70410156
vt 0.9790039 0.67529297
vt 0.9868164 0.67529297
vt 0.93066406 0.0071411133
vt 0.93652344 0.0071411133
vt 0.93652344 0.10748291
vt 0.93066406 0.10748291
vt 0.81591797 0.9760742
vt 0.81591797 0.9472656
vt 0.82421875 0.9472656
vt 0.82421875 0.9760742
vt 0.30078125 0.5234375
vt 0.30444336 0.46655273
vt 0.31884766 0.46655273
vt 0.31884766 0.5239258
vt 0.31884766 0.58154297
vt 0.30444336 0.58154297
vt 0.16149902 0.9868164
vt 0.16149902 0.96972656
vt 0.17590332 0.96875
vt 0.17590332 0.98583984
vt 0.4074707 0.77246094
vt 0.39135742 0.70410156
vt 0.40844727 0.71533203
vt 0.39135742 0.77246094
vt 0.39135742 0.84228516
vt 0.40844727 0.8310547
vt 0.06414795 0.7294922
vt 0.08117676 0.7182617
vt 0.08117676 0.7871094
vt 0.064086914 0.7871094
vt 0.064086914 0.84472656
vt 0.08117676 0.85595703
vt 0.78125 0.64453125
vt 0.79541016 0.6435547
vt 0.79541016 0.66064453
vt 0.78125 0.6616211
vt 0.06890869 0.08929443
vt 0.09197998 0.07141113
vt 0.09197998 0.57910156
vt 0.078186035 0.57910156
vt 0.048858643 0.058898926
vt 0.049621582 0.0071411133
vt 0.0073509216 0.0713501
vt 0.04888916 0.08929443
vt 0.05090332 0.57958984
vt 0.019805908 0.5800781
vt 0.02885437 0.08929443
vt 0.0071411133 0.57958984
vt 0.06890869 0.08929443
vt 0.078186035 0.57910156
vt 0.09197998 0.57910156
vt 0.09197998 0.07141113
vt 0.04888916 0.08929443
vt 0.05090332 0.57958984
vt 0.019805908 0.5800781
vt 0.048858643 0.058898926
vt 0.049621582 0.0071411133
vt 0.0073509216 0.0713501
vt 0.02885437 0.08929443
vt 0.0071411133 0.57958984
vn 0.71191406 0.000395298 0.70214844
vn 0.44262695 -0.2878418 0.8491211
vn 0.8417969 -0.5395508 -0.01576233
vn 1 0.0020771027 -0.014350891
vn 0.44262695 -0.2878418 0.8491211
vn 0.0026512146 -1 -0.012573242
vn 0.8417969 -0.5395508 -0.01576233
vn 0.00033521652 -0.59228516 0.80566406
vn -0.4416504 -0.28857422 0.8496094
vn -0.83935547 -0.54345703 -0.013046265
vn 0.71191406 0.000395298 0.70214844
vn 0.70654297 0.00037693977 0.70751953
vn 0.6767578 -0.4194336 0.60498047
vn 0.44262695 -0.2878418 0.8491211
vn 0.0012102127 -0.78564453 0.61865234
vn 0.00033521652 -0.59228516 0.80566406
vn -0.4416504 -0.28857422 0.8496094
vn -0.67578125 -0.42236328 0.6044922
vn -0.7114258 -0.002532959 0.703125
vn -0.70751953 -0.0025310516 0.70654297
vn 0.6767578 -0.4194336 0.60498047
vn 0.6772461 -0.4177246 -0.60546875
vn 0.0020160675 -0.7836914 -0.62060547
vn 0.0012102127 -0.78564453 0.61865234
vn -0.67578125 -0.42236328 0.6044922
vn -0.6748047 -0.42041016 -0.6064453
vn 0.0006518364 0.0015211105 -1
vn 0.6772461 -0.4177246 -0.60546875
vn 0.70751953 0.0025291443 -0.70654297
vn 0.0020160675 -0.7836914 -0.62060547
vn -0.6748047 -0.42041016 -0.6064453
vn -0.70654297 -0.00037765503 -0.70751953
vn 0.70654297 0.00037693977 0.70751953
vn 0.70751953 0.0025291443 -0.70654297
vn 0.6772461 -0.4177246 -0.60546875
vn 0.6767578 -0.4194336 0.60498047
vn -0.7114258 -0.002532959 0.703125
vn -1 -0.0020389557 -0.011108398
vn -0.83935547 -0.54345703 -0.013046265
vn -0.4416504 -0.28857422 0.8496094
vn -0.70751953 -0.0025310516 0.70654297
vn -0.67578125 -0.42236328 0.6044922
vn -0.6748047 -0.42041016 -0.6064453
vn -0.70654297 -0.00037765503 -0.70751953
vn 0.007675171 -0.6899414 -0.7241211
vn 0.37426758 -0.70703125 0.60009766
vn 0.3935547 -0.69189453 -0.60546875
vn -0.004436493 -0.71435547 0.69970703
vn -0.37451172 -0.6875 0.6220703
vn -0.3894043 -0.7133789 -0.58251953
vn 0.3935547 -0.69189453 -0.60546875
vn 0.37426758 -0.70703125 0.60009766
vn 0.79296875 0.0007033348 0.609375
vn 0.8178711 0.0025558472 -0.5756836
vn 0.007675171 -0.6899414 -0.7241211
vn 0.3935547 -0.69189453 -0.60546875
vn 0.8178711 0.0025558472 -0.5756836
vn 0.009048462 0.0015382767 -1
vn -0.79541016 -0.0007138252 -0.60595703
vn -0.3894043 -0.7133789 -0.58251953
vn 0.37426758 -0.70703125 0.60009766
vn -0.00831604 -0.001537323 1
vn 0.79296875 0.0007033348 0.609375
vn -0.004436493 -0.71435547 0.69970703
vn -0.37451172 -0.6875 0.6220703
vn -0.81347656 -0.0025558472 0.58154297
vn -0.3894043 -0.7133789 -0.58251953
vn -0.79541016 -0.0007138252 -0.60595703
vn -0.81347656 -0.0025558472 0.58154297
vn -0.37451172 -0.6875 0.6220703
vn 0.71191406 0.000395298 0.70214844
vn 1 0.0020771027 -0.014350891
vn 0.83984375 0.54296875 -0.014122009
vn 0.4416504 0.28710938 0.85009766
vn 0.4416504 0.28710938 0.85009766
vn 0.83984375 0.54296875 -0.014122009
vn -0.0014600754 1 -0.009529114
vn -0.0020961761 0.58984375 0.8076172
vn -0.4428711 0.2841797 0.85058594
vn -0.8413086 0.54003906 -0.011398315
vn 0.71191406 0.000395298 0.70214844
vn 0.6748047 0.42041016 0.6064453
vn 0.70654297 0.00037693977 0.70751953
vn 0.4416504 0.28710938 0.85009766
vn -0.0020179749 0.7836914 0.62060547
vn -0.0020961761 0.58984375 0.8076172
vn -0.4428711 0.2841797 0.85058594
vn -0.6772461 0.4177246 0.60546875
vn -0.7114258 -0.002532959 0.703125
vn -0.70751953 -0.0025310516 0.70654297
vn 0.6748047 0.42041016 0.6064453
vn -0.0012083054 0.78564453 -0.61865234
vn 0.67578125 0.42236328 -0.6044922
vn -0.0020179749 0.7836914 0.62060547
vn -0.6772461 0.4177246 0.60546875
vn -0.6767578 0.4194336 -0.60498047
vn 0.0006518364 0.0015211105 -1
vn 0.70751953 0.0025291443 -0.70654297
vn 0.67578125 0.42236328 -0.6044922
vn -0.0012083054 0.78564453 -0.61865234
vn -0.6767578 0.4194336 -0.60498047
vn -0.70654297 -0.00037765503 -0.70751953
vn 0.70654297 0.00037693977 0.70751953
vn 0.6748047 0.42041016 0.6064453
vn 0.67578125 0.42236328 -0.6044922
vn 0.70751953 0.0025291443 -0.70654297
vn -0.7114258 -0.002532959 0.703125
vn -0.4428711 0.2841797 0.85058594
vn -0.8413086 0.54003906 -0.011398315
vn -1 -0.0020389557 -0.011108398
vn -0.70751953 -0.0025310516 0.70654297
vn -0.70654297 -0.00037765503 -0.70751953
vn -0.6767578 0.4194336 -0.60498047
vn -0.6772461 0.4177246 0.60546875
vn 0.004837036 0.69189453 -0.7216797
vn 0.390625 0.6953125 -0.6035156
vn 0.3713379 0.70654297 0.6020508
vn -0.007369995 0.71240234 0.70214844
vn -0.3774414 0.68408203 0.62402344
vn -0.39233398 0.7133789 -0.5805664
vn 0.390625 0.6953125 -0.6035156
vn 0.8178711 0.0025558472 -0.5756836
vn 0.79296875 0.0007033348 0.609375
vn 0.3713379 0.70654297 0.6020508
vn 0.004837036 0.69189453 -0.7216797
vn 0.8178711 0.0025558472 -0.5756836
vn 0.390625 0.6953125 -0.6035156
vn 0.009048462 0.0015382767 -1
vn -0.79541016 -0.0007138252 -0.60595703
vn -0.39233398 0.7133789 -0.5805664
vn 0.3713379 0.70654297 0.6020508
vn 0.79296875 0.0007033348 0.609375
vn -0.00831604 -0.001537323 1
vn -0.007369995 0.71240234 0.70214844
vn -0.3774414 0.68408203 0.62402344
vn -0.81347656 -0.0025558472 0.58154297
vn -0.39233398 0.7133789 -0.5805664
vn -0.3774414 0.68408203 0.62402344
vn -0.81347656 -0.0025558472 0.58154297
vn -0.79541016 -0.0007138252 -0.60595703
vn -0.31079102 0.9482422 0.06378174
vn -0.9428711 -0.0024433136 0.3334961
vn -1 -0.0020503998 -0.002046585
vn -0.3149414 0.94921875 -0.0046653748
vn -0.002149582 0.97314453 0.22937012
vn -0.0006508827 -0.0015220642 1
vn 0.9458008 0.0014505386 0.3239746
vn -0.02279663 0.9995117 -0.0029773712
vn -0.043548584 0.99902344 -0.007461548
vn 0.30981445 0.9506836 0.00031256676
vn 0.3100586 0.9482422 0.067871094
vn 1 0.0020427704 0.008033752
vn -0.30688477 -0.94970703 0.06085205
vn -0.31103516 -0.9501953 -0.0075531006
vn -1 -0.0020503998 -0.002046585
vn -0.9428711 -0.0024433136 0.3334961
vn -0.018676758 -1 -0.0060157776
vn -0.03942871 -0.99902344 -0.010498047
vn 0.3137207 -0.94970703 -0.002576828
vn 0.0018520355 -0.9741211 0.22644043
vn -0.0006508827 -0.0015220642 1
vn 0.9458008 0.0014505386 0.3239746
vn 0.31396484 -0.9472656 0.06500244
vn 1 0.0020427704 0.008033752
g Knight_0
f 3/3/3 2/2/2 1/1/1
f 4/4/4 3/3/3 1/1/1
f 7/7/7 6/6/6 5/5/5
f 6/6/6 8/8/8 5/5/5
f 8/8/8 6/6/6 9/9/9
f 6/6/6 10/10/10 9/9/9
f 13/13/13 12/12/12 11/11/11
f 14/14/14 13/13/13 11/11/11
f 15/15/15 13/13/13 14/14/14
f 16/16/16 15/15/15 14/14/14
f 15/15/15 16/16/16 17/17/17
f 18/18/18 15/15/15 17/17/17
f 18/18/18 17/17/17 19/19/19
f 20/20/20 18/18/18 19/19/19
f 23/23/23 22/22/22 21/21/21
f 24/24/24 23/23/23 21/21/21
f 23/23/23 24/24/24 25/25/25
f 26/26/26 23/23/23 25/25/25
f 29/29/29 28/28/28 27/27/27
f 28/28/28 30/30/30 27/27/27
f 30/30/30 31/31/31 27/27/27
f 31/31/31 32/32/32 27/27/27
f 35/35/35 34/34/34 33/33/33
f 36/36/36 35/35/35 33/33/33
f 39/39/39 38/38/38 37/37/37
f 40/40/40 39/39/39 37/37/37
f 43/43/43 42/42/42 41/41/41
f 44/44/44 43/43/43 41/41/41
f 47/47/47 46/46/46 45/45/45
f 46/46/46 48/48/48 45/45/45
f 48/48/48 49/49/49 45/45/45
f 49/49/49 50/50/50 45/45/45
f 53/53/53 52/52/52 51/51/51
f 54/54/54 53/53/53 51/51/51
f 57/57/57 56/56/56 55/55/55
f 58/58/58 57/57/57 55/55/55
f 59/59/59 58/58/58 55/55/55
f 60/60/60 59/59/59 55/55/55
f 63/63/63 62/62/62 61/61/61
f 62/62/62 64/64/64 61/61/61
f 64/64/64 62/62/62 65/65/65
f 62/62/62 66/66/66 65/65/65
f 69/69/69 68/68/68 67/67/67
f 70/70/70 69/69/69 67/67/67
f 73/73/73 72/72/72 71/71/71
f 74/74/74 73/73/73 71/71/71
f 77/77/77 76/76/76 75/75/75
f 78/78/78 77/77/77 75/75/75
f 77/77/77 78/78/78 79/79/79
f 80/80/80 77/77/77 79/79/79
f 83/83/83 82/82/82 81/81/81
f 82/82/82 84/84/84 81/81/81
f 82/82/82 85/85/85 84/84/84
f 85/85/85 86/86/86 84/84/84
f 86/86/86 85/85/85 87/87/87
f 85/85/85 88/88/88 87/87/87
f 87/87/87 88/88/88 89/89/89
f 88/88/88 90/90/90 89/89/89
f 93/93/93 92/92/92 91/91/91
f 92/92/92 94/94/94 91/91/91
f 94/94/94 92/92/92 95/95/95
f 92/92/92 96/96/96 95/95/95
f 99/99/99 98/98/98 97/97/97
f 100/100/100 99/99/99 97/97/97
f 101/101/101 100/100/100 97/97/97
f 102/102/102 101/101/101 97/97/97
f 105/105/105 104/104/104 103/103/103
f 106/106/106 105/105/105 103/103/103
f 109/109/109 108/108/108 107/107/107
f 110/110/110 109/109/109 107/107/107
f 113/113/113 112/112/112 111/111/111
f 114/114/114 113/113/113 111/111/111
f 117/117/117 116/116/116 115/115/115
f 118/118/118 117/117/117 115/115/115
f 119/119/119 118/118/118 115/115/115
f 120/120/120 119/119/119 115/115/115
f 123/123/123 122/122/122 121/121/121
f 124/124/124 123/123/123 121/121/121
f 127/127/127 126/126/126 125/125/125
f 126/126/126 128/128/128 125/125/125
f 128/128/128 129/129/129 125/125/125
f 129/129/129 130/130/130 125/125/125
f 133/133/133 132/132/132 131/131/131
f 134/134/134 133/133/133 131/131/131
f 133/133/133 134/134/134 135/135/135
f 136/136/136 133/133/133 135/135/135
f 139/139/139 138/138/138 137/137/137
f 140/140/140 139/139/139 137/137/137
f 143/143/143 142/142/142 141/141/141
f 144/144/144 143/143/143 141/141/141
f 141/141/141 142/142/142 145/145/145
f 142/142/142 146/146/146 145/145/145
f 146/146/146 147/147/147 145/145/145
f 141/141/141 148/148/148 144/144/144
f 141/141/141 145/145/145 148/148/148
f 148/148/148 149/149/149 144/144/144
f 149/149/149 148/148/148 150/150/150
f 147/147/147 151/151/151 145/145/145
f 145/145/145 151/151/151 148/148/148
f 148/148/148 151/151/151 150/150/150
f 147/147/147 152/152/152 151/151/151
f 152/152/152 150/150/150 151/151/151
f 155/155/155 154/154/154 153/153/153
f 156/156/156 155/155/155 153/153/153
f 157/157/157 153/153/153 154/154/154
f 158/158/158 157/157/157 154/154/154
f 157/157/157 158/158/158 159/159/159
f 156/156/156 153/153/153 160/160/160
f 160/160/160 153/153/153 157/157/157
f 161/161/161 156/156/156 160/160/160
f 162/162/162 161/161/161 160/160/160
f 163/163/163 157/157/157 159/159/159
f 163/163/163 160/160/160 157/157/157
f 163/163/163 162/162/162 160/160/160
f 159/159/159 164/164/164 163/163/163
f 164/164/164 162/162/162 163/163/163
