g 
v -300 -8.940697E-07 260
v -260 -7.391055E-06 300
v -300 -7.391055E-06 300
v -260 5.9604645E-06 260
v -300 19.999992 220
v -260 20.000006 220
v -220 -7.391055E-06 300
v -220 7.391055E-06 260
v -300 20.000008 180
v -260 20 180
v -180 -7.391055E-06 300
v -300 5.9604645E-06 140
v -260 7.391055E-06 220
v -180 7.391055E-06 260
v -140 -7.391055E-06 300
v -260 -8.940697E-07 140
v -300 -19.999994 100
v -140 7.391055E-06 260
v -140 20 300
v -140 20 260
v -140 40 300
v -180 20 260
v -140 40 260
v -180 40.000008 260
v -140 59.999992 300
v -140 60.000008 260
v -100 59.999992 300
v -220 20 260
v -220 7.391055E-06 220
v -220 20 220
v -220 39.999992 260
v -220 40.000008 220
v -180 40 220
v -220 40.000008 180
v -140 60.000008 220
v -100 59.999992 260
v -60 39.999992 260
v -60 39.999992 300
v -20 19.99999 260
v -20.000002 19.99999 300
v 20 -9.536743E-06 260
v 19.999998 -9.536743E-06 300
v 60 -20.000008 260
v 60 -20.000008 300
v 100 -20.000008 300
v 100 -20.000008 260
v 60 -20.000008 220
v 20 -20.000008 220
v 20 -19.999992 180
v -20.000002 -20.00001 180
v -20 -19.999992 140
v -60 -19.999994 140
v 140 -20.000008 300
v 140 -20.000008 260
v 180 -20.000008 300
v 20 -20.000008 260
v 100 -19.999992 220
v 20.000004 0 220
v 180 -19.999994 260
v 140 -19.999992 220
v 220 -7.391055E-06 260
v 220 -9.536743E-06 300
v 260 -7.391055E-06 300
v 220 7.391055E-06 220
v 180 -20 220
v 260 -7.391055E-06 260
v 300 -7.391055E-06 300
v 300 7.391055E-06 260
v 180 -7.391055E-06 220
v 180 7.391055E-06 180
v 140 -7.391055E-06 220
v 260 -19.999994 220
v 300 -20 220
v 260 7.391055E-06 220
v 260 -19.999992 180
v 300 -19.999992 180
v 300 -7.391055E-06 180
v 220 -9.536743E-06 180
v 260 -9.536743E-06 180
v 240 -10 180
v 220 -20.000008 180
v 260 -9.536743E-06 140
v 300 7.391055E-06 140
v 300 -20.000008 140
v 260 -20.000008 140
v 220 -20.000008 140
v 260 -20 100
v 300 -19.999994 100
v 220 -20.000008 100
v 220 -19.999992 60
v 180 -19.999994 60
v 260 -9.536743E-06 60
v 260 -9.536743E-06 19.999996
v 300 -7.391055E-06 60
v 300 7.391055E-06 20
v 260 -19.999992 60
v 180 -20 100
v 140 -7.391055E-06 100
v 140 7.391055E-06 140
v 180 -20.000008 140
v 180 -20.000008 180
v 180 7.391055E-06 140
v 140 7.391055E-06 180
v 100 7.391055E-06 140
v 100 -7.391055E-06 180
v 60 7.391055E-06 140
v 60 7.391055E-06 180
v 20 7.391055E-06 140
v 100 19.99999 140
v 100 -7.391055E-06 220
v 60 -7.391055E-06 220
v 60 -19.999992 180
v 20 -7.391055E-06 180
v 20 -19.999992 140
v 100 19.99999 100
v 60 20.000008 100
v 100 -7.391055E-06 100
v 60 19.999992 140
v 60 7.391055E-06 100
v 20 7.391055E-06 100
v -20 7.391055E-06 100
v -20 -7.391055E-06 140
v -20 -19.999992 100
v -60 -19.999992 100
v -60 -7.391055E-06 100
v 60 7.391055E-06 60
v 20 7.391055E-06 60
v -20 7.391055E-06 60
v -60 -7.391055E-06 60
v 100 7.391055E-06 60
v 60 7.391055E-06 20
v 20 7.391055E-06 20
v 20 7.391055E-06 -20
v -20 -7.391055E-06 20
v -60 7.391055E-06 20
v -20 7.391055E-06 -20
v 140 5.9604645E-06 60
v 100 19.999992 20
v 100 7.391055E-06 20
v -60 -7.391055E-06 -20
v -60 -7.391055E-06 -60
v -100 -9.536743E-06 19.999998
v -100 7.391055E-06 -20
v -100 -19.999994 -19.999996
v -100 -7.391055E-06 60
v -100 -7.391055E-06 100
v -140 -7.391055E-06 60
v -140 -9.536743E-06 20
v -140 -20.000008 -20
v -20 -7.391055E-06 -60
v -20 -19.999994 -60
v 20 -20 -60
v 20 -20.000008 -20
v 60 -20.000008 -20
v 60 7.391055E-06 -20
v 60 19.999992 20
v 60 20.000008 -20
v 100 -9.536743E-06 -20
v 100 20.000008 -20
v 100 -9.536743E-06 -60
v 60 -19.999994 -60
v 140 19.99999 -60.000004
v 140 19.999992 20
v 140 19.99999 -20
v 140 0 20
v 180 19.999992 20
v 180 19.999992 -20
v 140 -20.000008 60
v 180 0 20.000002
v 140 -19.999992 20
v 180 -19.999992 20
v 180 0 -19.999998
v 220 -19.999992 20
v 180 20.000008 -60
v 180 -7.391055E-06 -60
v 140 0 -60
v 180 -20 -19.999998
v 220 -19.999994 -19.999998
v 220 -7.391055E-06 20
v 220 7.391055E-06 -20
v 260 7.391055E-06 -20
v 300 7.391055E-06 -20
v 220 7.391055E-06 -60
v 260 7.391055E-06 -60
v 300 7.391055E-06 -60
v 260 7.391055E-06 -100
v 300 7.391055E-06 -100
v 260 7.391055E-06 -140
v 300 7.391055E-06 -140
v 300 19.999992 -140
v 220 -7.391055E-06 -100
v 180 7.391055E-06 -100
v 220 7.391055E-06 -140
v 180 -20.000008 -100
v 180 -19.999992 -140
v 220 -20 -140
v 260 -20.000008 -140
v 180 -20.000008 -60
v 140 -20.000008 -100
v 140 -20.000008 -60
v 140 -19.999994 -140
v 180 -19.999992 -180
v 220 -19.999992 -180
v 180 -20.000008 -220
v 140 -20.000008 -220
v 140 -19.999994 -260
v 140 -20.000008 -180
v 260 -19.999992 -180
v 220 -9.536743E-06 -220
v 260 -9.536743E-06 -220
v 220 7.391055E-06 -260
v 220 -19.999992 -220
v 260 3.821371E-14 -180
v 260 19.999992 -140
v 260 19.99999 -180
v 300 19.99999 -180
v 300 -9.536743E-06 -220
v 260 -20 -260
v 300 -20.000008 -260
v 260 7.391055E-06 -260
v 260 -19.999994 -300
v 300 -19.999992 -300
v 220 7.391055E-06 -300
v 180 7.391055E-06 -300
v 180 7.391055E-06 -260
v 140 -20 -300
v 100 -19.999992 -300
v 180 -7.391055E-06 -220
v 180 -19.999992 -260
v 100 -20.000008 -260
v 100 0 -300
v 100 0 -260
v 100 20.000008 -300
v 100 -20.000008 -220
v 100 5.9604645E-06 -220
v 100 19.999992 -260
v 60 20.000008 -300
v 60 20.000008 -260
v 20 20.000008 -300
v 19.999998 19.99999 -260
v -20 20.000008 -300
v 140 7.391055E-06 -220
v 140 -7.391055E-06 -180
v 100 -7.391055E-06 -180
v 60 -8.940697E-07 -220
v 60 19.999992 -220
v 100 -20 -140
v 20 7.391055E-06 -220
v 60 -7.391055E-06 -180
v 20 7.391055E-06 -180
v -19.999996 -9.536743E-06 -220
v 20.000004 19.99999 -220
v 100 7.391055E-06 -140
v 100 -20.000008 -100
v 100 -9.536743E-06 -100
v 60 7.391055E-06 -140
v 60 7.391055E-06 -100
v 60 -7.391055E-06 -60
v 20 7.391055E-06 -140
v 20 -7.391055E-06 -100
v 20.000002 -20 -140
v 19.999998 -20 -180
v 20.000002 -20 -100
v 20 -40 -100
v 20.000002 -40 -140
v 19.999998 -40 -180
v -20 -39.999992 -100
v -20 -59.999992 -140
v 20 -60 -140
v -20 -59.999992 -180
v 20 -59.999992 -180
v -19.999998 -40 -180
v -19.999998 -20 -180
v -20 -7.391055E-06 -180
v -20.000002 -20 -220
v -20.000002 -40 -220
v -20 -59.999992 -220
v -60 -59.999992 -220
v -60 -40 -220
v -59.999996 -20.00001 -220
v -100 -40.000008 -220
v -60 -59.999992 -180
v -100 -59.999992 -220
v -20.000002 -9.536743E-06 -260
v -60 -20.00001 -260
v -60 5.9604645E-06 -260
v -20 19.999992 -260
v -60.000008 -8.940697E-07 -300
v -100 7.391055E-06 -300
v -100 -7.391055E-06 -260
v -100 -20 -300
v -100 -20 -260
v -100 -39.999992 -300
v -100 -40.000008 -260
v -140 -39.999992 -300
v -140 -39.999992 -260
v -180 -39.999992 -300
v -180 -39.999992 -260
v -220 -39.999992 -300
v -140 -40.000008 -220
v -220 -39.999992 -260
v -260 -39.999992 -300
v -140 -59.999992 -220
v -180 -40.000008 -220
v -180 -40.000008 -180
v -100 -60.000008 -180
v -260 -40.000008 -260
v -260 -20 -300
v -220 -39.999992 -220
v -220 -20.00001 -220
v -260 -20.00001 -220
v -220 -20.000008 -180
v -260 -20 -260
v -260 7.391055E-06 -300
v -220 -40.000008 -180
v -260 -9.536743E-06 -260
v -300 7.391055E-06 -300
v -300 -9.536743E-06 -260
v -300 -19.999992 -220
v -260 -20.000008 -180
v -300 -20.000008 -180
v -260 -9.536743E-06 -140
v -300 -9.536743E-06 -140
v -260 19.99999 -100
v -300 19.99999 -100
v -260 39.999992 -60
v -300 39.999992 -60
v -260 39.999992 -20
v -220 39.999992 -20
v -220 39.999992 20
v -300 39.999992 -20
v -300 20 -20
v -260 20 -20.000002
v -300 0 -20
v -260 39.999992 20
v -260 0 -20.000002
v -300 -19.999992 -20
v -260 20 20.000002
v -260 -19.999992 -20
v -260 -19.999992 20
v -300 -19.999992 20
v -260 0 20.000002
v -220 20 19.999998
v -260 -19.999992 60
v -220 -19.999992 60
v -300 -19.999992 60
v -220 0 19.999998
v -260 -20 100
v -220 -20.000008 100
v -180 -19.999992 100
v -220 -19.999992 20
v -220 0 60
v -220 20 60
v -220 39.999992 60
v -180 39.999992 60
v -180 20 60
v -180 0 60
v -180 39.999992 20
v -140 39.999992 60
v -140 20 60
v -180 -19.999992 60
v -140 40.000008 20
v -180 20.000006 -20.000002
v -180 40.000008 -20
v -140 20 20.000002
v -140 20 -20.000002
v -180 20.000008 -60
v -220 20.000008 -60
v -220 19.999992 -20
v -220 40.000008 -60
v -140 0 -19.999998
v -140 20.000008 -60
v -140 -8.940697E-07 -59.999996
v -140 5.9604645E-06 -100
v -140 -19.999992 -60
v -100 -7.391055E-06 -60
v -100.00001 -20 -60
v -100 7.391055E-06 -100
v -60 -7.391055E-06 -100
v -20 7.391055E-06 -100
v -20.000002 -20 -100
v -100 7.391055E-06 -140
v -60 7.391055E-06 -140
v -20 7.391055E-06 -140
v -19.999996 -20 -140
v -19.999998 -40 -140
v -60 -20 -140
v -140 7.391055E-06 -140
v -60 -40 -140
v -100 -20 -140
v -60 -60.000008 -140
v -100 -40 -140
v -100 -60.000008 -140
v -140 -20.000008 -140
v -140 -59.999992 -180
v -140 -40 -140
v -140 -60.000008 -140
v -140 -40 -180
v -180 -19.999992 -180
v -140 -19.999992 -180
v -180 -20 -140
v -180 -19.999994 -100
v -220 -19.999992 -140
v -260 -19.999992 -140
v -220 -20.000008 -100
v -260 -20.000008 -100
v -260 0 -100
v -180 0 -100
v -220 0 -100
v -180 20.000008 -100
v -220 20.000008 -100
v -220 0 -60
v -220 -20.000008 -60
v -260 -20.000008 -60
v -260 0 -60
v -260 20 -60
v -140 -9.536743E-06 100
v -100 -20 140
v -140 -19.999992 100
v -140 -20 140
v -180 -20.000008 140
v -220 -20.000008 140
v -180 -20.000008 180
v -140 -20.000008 180
v -260 -20.000008 140
v -220 -20.000008 180
v -260 -20.000008 180
v -260 0 180
v -220 0 180
v -220 20 180
v -180 0 180
v -180 20 180
v -180 40.000008 180
v -180 20 220
v -180 0 220
v -180 -20.000008 220
v -140 -20.000008 220
v -100 -20.000008 220
v -140 0 220
v -140 20 220
v -100 -20.000008 180
v -140 40 220
v -100 0 220
v -100 20 220
v -100 40 220
v -100 60.000008 220
v -60 59.999992 260
v -100 -40 180
v -100 -40.000008 220
v -60 -39.999992 180
v -60 -40.000008 220
v -60 -20.000008 180
v -60 -20 220
v -19.999996 -20.00001 220
v -60 0 220
v -20 0 220
v -60 20 220
v -20 20 220
v -60 40 220
v 20.000004 20 220
v -60 60.000008 220
v -20 40 220
v 19.999998 20 260
v -20 59.999992 260
v 20.000004 40 220
v -20 60.000008 220
v 19.999998 40 260
v -20 40 260
v 20 59.999992 260
v 20 60.000008 220
vt 0 0
vt 0 -431602080
vt 6.9E-44 3E-45
vt -2.1583348E+24 4.93E-43
vt -429917980 7.7414826E-35
vt 0 0
vt -2.1583717E+24 4.93E-43
vt 2.3908444E-06 0.00017088732
vt 4E-45 8E-45
vt 0 0
vt 1E-45 8E-45
vt 0 0
vt 2.96E-43 0
vt 0 0
vt -2.1587037E+24 4.93E-43
vt -429916160 -431602080
vt -431602080 -431602080
vt -429917920 7.7414826E-35
vt -1.2197928E-12 4.6E-44
vt 1 0
vt 0 0
vt 0 0
vt -2.0915506E+24 4.93E-43
vt 2.96E-43 0
vt 0 1
vt 0 0
vt -1 0
vt 0 0
vt 3.4E-44 0
vt -1 1
vt 0 0
vt 1.49E-43 1.53E-43
vt 3.4E-44 0
vt -429916160 -431602080
vt 0 0
vt 0 0
vt 0.7213135 0.47790527
vt 1 44.55082
vt 0 -1
vt 1 0
vt 0.30555555 0
vt 0 0
vt 1 0
vt 0 0
vt 0.5963135 0
vt 33.99082 10.560764
vt 0 0
vt 0 0.30555555
vt 10.560764 0
vt 0.8970947 0.18493652
vt 0 0
vt 0 0
vt 0 0.30555555
vt -1 0
vt 10.560764 0
vt 0 0.6380615
vt -1 -1
vt -431602080 1.2386372E-33
vt 0 0
vt -1.2197928E-12 4.6E-44
vt 0 0
vt 0 1
vt 0 0
vt -1 -1
vt -2.1553026E+24 4.93E-43
vt 0 0
vt 0 0.661499
vt 1 0
vt 1 0
vt 0.30555555 0
vt 1 -11.934181
vt -1 -1
vt -23.86918 10.560764
vt 0 0
vt 0.8345947 0
vt 0 0
vt 0 0
vt 0 0
vt -429916160 -431602080
vt 0 3E-45
vt 3.4E-44 0
vt 0 0
vt -431602080 -431602080
vt 1E-45 8E-45
vt -429917950 7.7414826E-35
vt -2.1584823E+24 4.93E-43
vt 0 0
vt 0 0
vt 7E-45 3E-45
vt 0 -431602080
vt -2.0970316E+24 4.93E-43
vt 0 0
vt 1.183E-42 1.216E-42
vt -431602080 -431602080
vt -429924350 -431602080
vt 2.96E-43 0
vt 0 0
vt -431602080 1.2386372E-33
vt 0.34436035 0.23962402
vt 0 0
vt 7.3E-44 7.6E-44
vt -1 0
vt 0 -1
vt 9.185763 0
vt 0 0.30555555
vt 0 0.7298584
vt 0 0
vt -1 -1
vt 0 -431602080
vt 0 1
vt 1 0
vt 0 1
vt 23.430817 10.560764
vt 0 -431602080
vt 0 3E-45
vt 2.3908444E-06 0.00017088732
vt -1 0
vt -2.1585192E+24 4.93E-43
vt 0 0
vt 0.2388916 0
vt 0 0
vt 0.30555555 0
vt -2.1543941E+24 4.93E-43
vt 2.3908444E-06 0.00017088732
vt -11.934181 10.560764
vt 1 33.99082
vt 0 -1
vt 1 0
vt 0 0.2532959
vt 0.7213135 0.47790527
vt 10.560764 0
vt 0 1
vt 0 0
vt -1 -1
vt 1 0
vt 0 0
vt 4E-45 8E-45
vt 0.2935791 0
vt 0 0.30555555
vt 1 0
vt -431602080 -431602080
vt 10.560764 0
vt -1 -1
vt 0 -1
vt 0 1
vt 0.35803223 0
vt 0 0
vt 0 0.30555555
vt -1 0
vt 0.30555555 0
vt 0 0
vt 0 0
vt -1 0
vt 0.744751 0.7161865
vt 1 0
vt 0 0
vt 0 0
vt 10.560764 0
vt 10.560818 9.185763
vt -1 -1
vt 1 -23.86918
vt 0 0.30555555
vt -1 -1
vt 0 1
vt 3.4E-44 0
vt 0 0.786499
vt 1 0
vt 3.4E-44 0
vt -2.1590357E+24 4.93E-43
vt 2.96E-43 0
vt 2.3908444E-06 4.272183E-05
vt 2.3908444E-06 6.5552136E-10
vt -2.1543941E+24 4.93E-43
vt 0 0
vt -429917920 7.7414826E-35
vt 2.96E-43 0
vt 3.4E-44 0
vt 2.96E-43 0
vt 2.3908444E-06 0.00017088732
vt 0 3E-45
vt 0 0
vt 0 -431602080
vt -2.1587406E+24 4.93E-43
vt 2.96E-43 0
vt 3.4E-44 0
vt 2.96E-43 3.04E-43
vt 0 0
vt -429916160 -431602080
vt -431602080 -431602080
vt 2.3908444E-06 0.00017088732
vt 0 0
vt 1E-45 8E-45
vt 0 0
vt -431602080 -431602080
vt 0 0
vt -2.1587037E+24 4.93E-43
vt 2.3908444E-06 0.00017088732
vt 0 0
vt -1 1
vt 0 0.7220459
vt 0 -1
vt 0 0
vt 0 -431602080
vt -431602080 1.2386372E-33
vt 0 0
vt 7.3E-44 7.6E-44
vt -2.1589989E+24 4.93E-43
vt 6.7E-44 3E-45
vt -2.1583717E+24 4.93E-43
vt 2.96E-43 0
vt 3.4E-44 0
vt 0 0
vt 0 -431602080
vt -2.1583717E+24 4.93E-43
vt 0 3E-45
vt 0 -431602080
vt 0 0
vt 1E-45 8E-45
vt -2.1583348E+24 4.93E-43
vt 1.47E-43 1.51E-43
vt 0 0
vt -429917950 7.7414826E-35
vt 0 0
vt -431602080 -431602080
vt 0 0
vt 0 0
vt -429924350 -431602080
vt -429924350 -431602080
vt 1E-45 8E-45
vt -431602080 -431602080
vt 3.6E-44 3.8E-44
vt 0 0
vt 0 0
vt 0 0
vt 6.99E-43 0
vt -2.1544379E+24 4.93E-43
vt 0 0
vt 0 0
vt -431602080 -431602080
vt 0 -1
vt -1.6225928E+32 0
vt 0 1
vt 0 0
vt 0 0
vt 0 0
vt -431602080 -431602080
vt 0 0
vt 0 0
vt 0 -200
vt -431602080 -431602080
vt 1 0
vt 0 0
vt 0.30555555 0
vt 0 0
vt -34.42918 10.560764
vt 0 0
vt 0.5963135 0
vt 0 0
vt 1 0
vt 0 -1
vt -429916160 -431602080
vt -431602080 -431602080
vt 1E-45 8E-45
vt 0 0
vt 0 0
vt 0 0
vt 0 0
vt 0 0
vt -1 -1
vt 0 0
vt 0 0
vt 2.96E-43 0
vt 1.1446081E+24 -134694480
vt 0 0
vt -2.1593309E+24 4.93E-43
vt 3.4E-44 0
vt 0 1
vt -6.4574598E-21 4.93E-43
vt -104.638885 40.67611
vt 0 0
vt 0.5963135 0
vt 0 0
vt 0 0
vt 0 0
vt 0 0
vt 0 0
vt 0 0
vt 0 0
vt 0 -1
vt 0 0
vt 0 0
vt 0 0
vt -1 -1
vt 44.55082 10.560764
vt 0 0.6380615
vt 0 1
vt 1 0
vt 0 0.30555555
vt -13 0
vt 0 0
vt 10.560764 0
vt 0 0
vt 0 0
vt 0 0
vt 0 0
vt 1 0
vt 0 0
vt 0 0
vt 0.7857666 0.1204834
vt -2.1540252E+24 4.93E-43
vt -1.2197928E-12 4.6E-44
vt 1 0
vt 0 0
vt -1 -4.4454957E-16
vt -1 0
vt 1 0
vt 0 0
vt 250 13
vt 0 0
vt 0 0
vt 0 0
vt 0.30555555 0
vt 1 0
vt 0 -1
vt 1 23.430817
vt 0.7857666 0.1204834
vt -1 0
vt 10.560764 0
vt 0 0
vt 1 0
vt 0 0.30555555
vt 0.30555555 0
vt -34.42918 10.560764
vt 1 0
vt 0 0.6380615
vt 0 0
vt -2.1589989E+24 4.93E-43
vt -1 -1
vt 0 0
vt 0 0
vt -431602080 1.2386372E-33
vt 0.5963135 0
vt 0 0
vt 1E-45 8E-45
vt -429917820 7.7414826E-35
vt 0 0
vt 0 1
vt 0 0
vt -2.1585561E+24 4.93E-43
vt 6.7E-44 3E-45
vt 1E-45 8E-45
vt 0 -0
vt 0 0
vt 0 0
vt 0.5963135 0
vt 0 0
vt 0 0
vt 44.55082 10.560764
vt 0 0
vt -1 -1
vt -2.158593E+24 4.93E-43
vt 0 0
vt 1 0
vt -1 -1
vt 0 0
vt 0 -1
vt 0 0
vt -2.1544379E+24 4.93E-43
vt 6.99E-43 0
vt 0 1
vt 0 0
vt 0 0
vt 0 0
vt 0 0
vt 0.7955322 0.47790527
vt 1 0
vt 1 -34.42918
vt 0 13
vt -431602080 -431602080
vt 0 0
vt -429924350 -431602080
vt -1 -1.5514643E-33
vt 0 0
vt -2.096884E+24 4.93E-43
vt 1.183E-42 1.216E-42
vt 0 0
vt 0 0
vt 0 0
vt 0.5963135 0
vt 8.56E-43 0
vt 0 0
vt -2.1548022E+24 4.93E-43
vt 0 0
vt 0 0
vt -1 -1
vt 0 0
vt 0 0
vt 0 1
vt 2.96E-43 0
vt 3.4E-44 0
vt 0 0
vt 5.91E-43 6.08E-43
vt -429924350 -431602080
vt 0 0
vt -431602080 -431602080
vt 0 0
vt 0 1
vt 0 0
vt -2.1548022E+24 4.93E-43
vt 0 0
vt 1 0
vt 6.99E-43 0
vt 4E-45 8E-45
vt -429917920 7.7414826E-35
vt 0 0
vt 0 0.7220459
vt 2.96E-43 0
vt 0 0
vt 0 -431602080
vt 3.4E-44 0
vt 2.3908444E-06 0.00017088732
vt 0 0
vt -429924350 -431602080
vt 0 0
vt 0 -431602080
vt -431602080 -431602080
vt 0 0
vt 0 0
vt 0 0
vt 0 -1
vt 125 13
vt 0 0
vt -431602080 -431602080
vt -1 -2.3798893E+38
vt 1 0
vt 2.3908444E-06 6.5552136E-10
vt 6.7E-44 3E-45
vt -2.1590357E+24 4.93E-43
vt 0 0
vt 0 0
vt 5.91E-43 6.08E-43
vt 0 0
vt -1 0
vt 37.989998 0
vt 0 0
vt 0 0
vt 2.96E-43 0
vt 1 0
vt 1 10.560818
vt 0.30555555 0
vt 0 -1
vt 0 3E-45
vt 0 0
vt -1 0
vt 0 0
vt -431602080 -431602080
vt 1 0
vt 0 0
vt 0 -1
vt -2.0967734E+24 4.93E-43
vt -2.1544033E+24 4.93E-43
vt 0 0.6380615
vt 0 0
vt 7.4E-44 7.7E-44
vt 0 -431602080
vt 3.4E-44 0
vt 6E-45 3E-45
vt -1 -1
vt -429916160 -431602080
vt 0 0
vn -1.1268785E-07 0.986394 0.16439909
vn -5.712112E-08 1 2.7666687E-07
vn -0 1 1.6242464E-07
vn 0.08192305 0.98307824 0.16384651
vn -2.6831046E-07 0.9486834 0.31622782
vn -0.095346384 0.9534626 0.28603882
vn -1.1921589E-08 1 3.5763117E-07
vn -0.097589985 0.9759001 0.19518016
vn 1.567831E-08 0.986394 -0.16439892
vn 7.2784275E-08 0.84799826 -0.529999
vn -0 1 3.695528E-07
vn 1.5344976E-07 0.89442724 -0.44721362
vn 0.21821788 0.87287164 0.43643576
vn -0 0.8944272 0.44721377
vn -0.2425357 0.9701424 3.585188E-07
vn 0.5121477 0.7682212 -0.3841106
vn 1.3872602E-07 0.9486834 -0.31622776
vn -0.6666667 0.6666667 0.33333346
vn -1 0 0
vn -0.70710677 0 0.7071067
vn -1 0 0
vn -0 0 1
vn -0.7071067 0 0.7071068
vn -0.21821795 0.87287146 0.43643582
vn -0.7071068 0.7071068 2.6973984E-07
vn -0.24077156 0.96308684 0.12038599
vn 0.2425357 0.9701424 9.251999E-08
vn -0.7071067 0 0.70710695
vn -0.66666657 0.6666668 0.33333328
vn -0.70710677 0 0.7071068
vn -0.6666668 0.66666657 0.3333334
vn -0.24077176 0.96308684 0.120385945
vn 4.4647656E-08 0.9363292 -0.3511235
vn -0.22792116 0.91168463 -0.34188184
vn -0.22792111 0.91168463 -0.3418818
vn 0.09901491 0.9901476 0.09901491
vn 0.38411063 0.76822126 0.5121475
vn 0.44721362 0.89442724 7.1082695E-09
vn 0.3841106 0.7682212 0.5121476
vn 0.44721362 0.89442724 1.4216538E-08
vn 0.70710677 0.7071067 9.890459E-08
vn 0.44721362 0.89442724 7.108269E-09
vn 0.14106911 0.9874839 -0.07053456
vn 0.24253559 0.9701424 0
vn -0 1 0
vn -6.357829E-08 1 1.2715658E-07
vn -0.09759008 0.9759001 0.19518016
vn 0.09758995 0.9759001 -0.19517995
vn -0.09759009 0.9759 0.19518024
vn -0.14106919 0.9874838 0.07053479
vn -0.09759004 0.9759001 0.19518012
vn -5.5512004E-08 0.97014254 0.24253567
vn -0 1 0
vn -1.11262004E-07 1 2.4636586E-07
vn -0.2425356 0.9701424 1.7116199E-07
vn 0.6666668 0.6666666 -0.33333328
vn -1.13732305E-07 0.89442724 0.44721362
vn 0.70710677 -4.4956636E-08 -0.70710677
vn -0.24253564 0.97014254 1.8504001E-07
vn -4.2649614E-08 0.89442724 0.44721353
vn -0.24253552 0.97014254 1.9024458E-07
vn -0.2425356 0.9701424 4.4524285E-08
vn -1.7880735E-08 1 1.7880735E-08
vn -2.1904953E-08 1 3.8146972E-08
vn -0.21821791 0.87287164 0.43643555
vn 0.08276047 0.99312705 -0.08276035
vn -1.8477638E-07 1 1.8477638E-07
vn -1.9225743E-07 0.9486834 -0.3162276
vn -1.1017934E-07 0.8944272 0.44721368
vn 0.09759009 0.9759001 -0.19518001
vn -1.1017935E-07 0.89442724 0.44721353
vn 0.22792116 0.91168463 -0.34188166
vn 9.406986E-08 0.986394 -0.16439898
vn 0.40824836 0.8164967 -0.40824804
vn 0.23210351 0.9284142 0.29012918
vn -0 0.8944273 0.44721347
vn -2.132481E-07 0.8944273 0.44721344
vn 0.22792113 0.9116845 -0.34188205
vn -0.22792117 0.9116847 0.34188148
vn -0 0 -1
vn -0.23210351 0.92841417 -0.29012948
vn -0.22792126 0.91168463 -0.34188172
vn -3.7851711E-07 0.8944272 -0.4472136
vn -6.397442E-08 0.8944272 -0.44721353
vn -6.0315664E-08 0.9486834 -0.31622764
vn -0.099014714 0.9901476 -0.099014714
vn -0.082760625 0.99312705 0.082760766
vn -1.0253663E-07 0.9486834 0.3162277
vn -7.947286E-09 1 1.8278759E-07
vn -0.14106907 0.9874839 0.07053465
vn 0.14106907 0.9874839 -0.0705344
vn -0.22792104 0.9116847 0.3418815
vn -0.14106914 0.9874839 0.070534736
vn -1.6932577E-07 0.986394 0.16439901
vn -2.8213E-07 1 2.6424925E-07
vn -0.40824804 0.81649673 0.4082482
vn 0.24253571 0.97014254 4.6260002E-08
vn 0.33557793 0.9396185 -0.067115545
vn 0.24253559 0.97014254 -2.2204802E-07
vn 0.24077189 0.96308684 -0.120385855
vn 0.6666669 0.6666664 -0.33333346
vn 0.6666669 0.6666664 -0.33333346
vn -1.2318425E-07 1 2.463685E-07
vn -1.1686285E-07 0.9486834 0.31622773
vn -0 1 1.847764E-07
vn -0.09758986 0.9759001 0.19517992
vn -0.09758993 0.9759001 0.19518007
vn -0.09759015 0.9759001 0.19518007
vn 0.22792119 0.9116847 0.34188148
vn 1.1017935E-07 0.89442724 0.44721353
vn -0.66666657 0.66666657 0.33333355
vn -0.66666657 0.66666657 0.33333355
vn -0.6666667 0.6666667 0.33333334
vn -0.66666657 0.6666668 0.3333334
vn 0.21821806 0.8728716 -0.43643576
vn -0.21821772 0.87287164 -0.43643564
vn 1.1017936E-07 0.8944273 -0.4472134
vn -0.6666665 0.6666668 0.3333334
vn -0.24077152 0.96308684 -0.120385855
vn -0 1 0
vn -0.09759022 0.9759001 0.19518001
vn -0.6666667 0.6666667 0.33333334
vn -0.66666657 0.6666668 0.3333334
vn 0.21821773 0.87287164 0.4364357
vn 0.12038567 0.96308684 0.24077152
vn 6.1592125E-08 1 6.1592125E-08
vn -6.1592125E-08 1 -6.1592125E-08
vn -6.1592125E-08 1 -6.1592125E-08
vn -2.5530886E-07 1 1.1424389E-07
vn -0.08276051 0.99312705 0.08276071
vn -0.09758993 0.9759001 0.19517986
vn -1.2318425E-07 1 6.1592125E-08
vn 0.09245013 0.9245003 -0.36980027
vn -6.1592125E-08 1 -6.1592125E-08
vn -1.7880739E-08 1 8.940369E-09
vn 0.08276035 0.99312705 -0.082760535
vn 0.348743 0.9299811 0.11624752
vn -0.09244995 0.9245003 0.36980006
vn -0.40824807 0.81649673 0.40824807
vn -0.09901469 0.9901476 -0.09901484
vn -0.14106907 0.9874839 0.070534535
vn -0.08192339 0.98307836 -0.16384621
vn -0.23570232 0.94280905 -0.23570228
vn -0.28221622 0.94072086 -0.18814406
vn -4.2630994E-16 1 -2.6821102E-08
vn -3.7971432E-08 0.97014254 0.24253555
vn 2.2443712E-07 0.9805807 0.19611613
vn 0.5494424 0.8241633 -0.13736057
vn 0.4285713 0.8571429 -0.2857141
vn 0.31622747 0.94868344 0
vn 0.5121475 0.7682213 -0.38411072
vn -0.081923075 0.98307836 -0.16384637
vn 0.40824854 0.8164965 -0.4082484
vn -0.22792108 0.91168463 -0.3418818
vn -0.48507097 0.48507118 -0.72760713
vn -0.66666657 0.6666668 0.3333334
vn -0.21821791 0.87287164 -0.4364357
vn -0.3841106 0.7682212 -0.5121478
vn 1.3571024E-07 0.9486834 -0.31622782
vn -0.07106678 0.99493665 -0.07106684
vn -0.22792116 0.91168463 0.34188175
vn -0.22792126 0.91168463 -0.34188163
vn 0.12038591 0.96308684 0.24077164
vn -0.0990147 0.9901476 -0.09901486
vn 0.7071068 2.2478321E-08 0.7071066
vn 0.21821779 0.87287164 0.43643564
vn 0.44721332 0.8944273 1.1373231E-07
vn 0.6666666 0.66666675 -0.33333334
vn 0.70710677 0 0.70710677
vn 0.21821769 0.87287164 0.43643582
vn 0.24077165 0.96308684 0.12038578
vn 1 0 0
vn -0.24077155 0.96308684 0.12038571
vn 0.6666666 0.66666675 -0.33333337
vn -2.6025995E-07 0.986394 -0.16439897
vn 1.8189895E-15 -7.629395E-08 -1
vn 0.31234744 0.93704265 0.15617365
vn -0.42857152 0.85714287 0.2857142
vn -0.6666665 0.6666668 0.3333334
vn -0.3162278 0.9486834 2.5068886E-07
vn -7.05325E-08 1 1.41065E-07
vn -0 1 0
vn -0.082760654 0.99312705 0.082760535
vn -6.1592125E-08 1 -6.1592125E-08
vn -0 1 0
vn -1.2318425E-07 1 6.1592125E-08
vn -0 1 0
vn -0.44232583 0.8846518 0.14744163
vn -0 0.8944273 0.44721332
vn -0 0.8944273 0.44721326
vn -0.081923194 0.98307836 -0.16384642
vn -0.31234765 0.9370426 -0.15617377
vn -0.21821812 0.87287146 -0.4364358
vn -0.44721377 0.894427 2.1324801E-07
vn -0.08192321 0.98307836 -0.16384634
vn -0.12038576 0.96308684 -0.2407716
vn -0.21821797 0.8728716 -0.4364358
vn -0.21821786 0.87287146 -0.4364358
vn 0.1410691 0.9874839 -0.07053444
vn 0.21821785 0.87287146 -0.4364359
vn 0.081923135 0.98307836 0.16384642
vn -9.536743E-08 1 -9.536743E-08
vn -0.08276055 0.99312705 0.08276058
vn -0.09759009 0.9759001 0.19517992
vn 0.09758994 0.9759001 -0.1951801
vn -0.14106923 0.9874839 0.07053473
vn 0.44721347 0.89442724 -9.9515766E-08
vn -0.42857143 0.85714287 0.28571415
vn -0.09244994 0.9245003 0.36980012
vn -0.0819231 0.98307836 -0.1638463
vn 0.14106916 0.9874839 -0.07053439
vn -0.4082483 0.8164967 0.40824798
vn -0.99999994 0 0
vn -0.66666645 0.66666687 0.33333316
vn -0.3123474 0.93704265 -0.1561738
vn -0 0.9486834 -0.31622782
vn 5.6866153E-08 0.89442724 -0.44721353
vn 0.22792132 0.91168463 -0.34188166
vn 1.0974817E-07 0.986394 -0.1643988
vn 0.40824842 0.81649655 -0.4082481
vn 0.24253568 0.9701424 1.6190998E-07
vn -4.7683713E-08 1 3.814697E-07
vn 0.24253562 0.9701424 0
vn -0.24253567 0.9701424 -3.4694995E-08
vn -0.24077171 0.96308684 0.12038605
vn -0.2425356 0.9701424 -1.3877998E-07
vn 0.24253546 0.97014254 1.1565E-07
vn -0.66666657 0.66666657 0.33333355
vn -0.66666657 0.66666657 0.33333355
vn 0.44721347 0.89442724 2.1324807E-07
vn 1 0 0
vn 1 0 0
vn 0.7071068 0.7071068 2.6973984E-07
vn 0.6666668 0.66666645 -0.33333346
vn 0.19611616 0.9805807 2.2443711E-08
vn 0.31234765 0.9370426 0.15617378
vn 1.2715658E-07 1 1.2715658E-07
vn 0.08192312 0.98307836 0.1638465
vn -1.4305115E-07 1 2.861023E-07
vn -0.14106925 0.9874838 0.07053481
vn -0.24253558 0.9701424 2.7069325E-07
vn 0.6666668 0.66666657 -0.33333328
vn 0.31234753 0.9370426 0.15617387
vn 0.08192318 0.98307836 0.16384637
vn 0.12038577 0.96308684 0.24077184
vn 0.21821764 0.8728717 0.43643573
vn 0.31234756 0.9370426 0.15617387
vn 4.5760668E-08 0.8944273 0.44721338
vn 1.5770561E-07 1 -1.3063485E-07
vn -0.09759005 0.9759001 0.19517992
vn -0.36514845 0.9128709 0.18257406
vn -0.21821795 0.8728717 0.43643552
vn 0.44721368 0.8944272 -9.4186326E-08
vn 0.6666668 0.6666667 -0.3333332
vn 0.24077189 0.96308684 -0.12038574
vn 1.3212463E-07 1 -5.265176E-08
vn -0.082760505 0.99312705 0.082760714
vn -0.408248 0.8164967 0.40824836
vn -0.44721377 0.894427 1.2439587E-07
vn -0.4285716 0.8571428 0.28571433
vn -1 -4.7683717E-08 4.7683717E-08
vn -0.7071068 0 0.70710677
vn -1 0 -2.861023E-08
vn -0.40824816 0.8164966 -0.4082483
vn -1 3.1789146E-08 1.589457E-08
vn -0.70710677 -2.2478321E-08 0.7071067
vn 0.5121475 0.76822126 -0.38411063
vn 0.09245003 0.9245003 -0.36980006
vn -0.31234744 0.93704265 -0.15617372
vn -0.09758993 0.9759001 0.19517998
vn -0.6666666 0.66666675 0.3333334
vn -0.70710677 0 0.70710677
vn -0.7071067 -2.247832E-08 0.7071068
vn -0.6666667 0.66666675 0.3333332
vn -0.7071068 4.4956657E-08 0.70710677
vn -0.70710677 -2.2478321E-08 0.70710677
vn -0.66666657 0.6666668 0.33333334
vn -0 0.89442724 0.44721347
vn -0 0 0.99999994
vn -0.4082483 0.8164966 0.40824816
vn -0.21821782 0.87287164 0.43643564
vn -1.9073487E-07 1 1.9073487E-07
vn -1.13732305E-07 0.89442724 0.44721353
vn -0.40824825 0.8164965 0.4082484
vn -0.40824825 0.8164965 0.40824854
vn -0.21821785 0.87287146 0.43643597
vn -0.2182177 0.87287146 0.4364361
vn -0.2425356 0.9701424 -1.1998686E-07
vn -0.24253578 0.9701424 9.613598E-08
vn -0.66666675 0.66666657 0.3333334
vn -1 0 0
vn -0.70710665 0 0.7071068
vn -0.7071068 0.7071068 2.6973984E-07
vn -0.24077156 0.96308684 0.12038599
vn 1.2715658E-07 1 1.2715658E-07
vn 1.2715658E-07 1 1.2715658E-07
vn -0 1 0
vn -0 1 1.9073487E-07
vn -0 1 0
vn -0 0.9486832 0.31622785
vn 0.08276045 0.99312705 -0.08276039
vn 0.24253535 0.97014254 1.8504E-07
vn 0.22792108 0.9116847 0.3418816
vn 0.09901483 0.9901476 0.09901483
vn 0.21821779 0.87287146 -0.4364358
vn -0 1 1.9073487E-07
vn 0.42857128 0.8571429 -0.28571406
vn 1 0 0
vn 0.31622776 0.9486834 1.2063133E-07
vn 0.42857113 0.857143 -0.2857142
vn 0.16384651 0.98307824 0.081923105
vn 0.09758996 0.9759 -0.19518021
vn 1 0 0
vn 0.7071068 0.7071068 2.9924405E-07
vn 0.66666657 0.66666687 -0.3333332
vn 0.31234738 0.9370426 0.15617402
vn -0 1 4.2319496E-07
vn 1.3571024E-07 0.9486834 0.3162278
vn 2.8220958E-07 0.986394 0.16439897
vn 0.08276059 0.99312705 -0.08276066
vn -0 0.9486834 -0.31622764
vn 0.5121473 0.7682213 -0.38411066
vn -0 0.89442724 -0.44721362
vn 0.5121474 0.7682213 -0.38411066
vn -0 0.89442724 -0.44721362
vn 0.09244993 0.9245004 -0.3698001
vn -0 0.986394 -0.16439901
vn -0.09758996 0.9759001 0.19517994
vn 0.09758985 0.9759001 -0.19517986
vn -0.09758996 0.9759001 0.19517994
vn -0 0.8944273 0.44721347
vn 3.1789146E-08 -3.1789153E-08 1
vn -0.7071067 -2.2478321E-08 0.70710677
vn 4.7683713E-08 0 1
vn -0.6666665 0.6666668 0.33333322
vn -0.7071068 2.2478321E-08 0.7071067
vn 1.06624E-08 0.8944273 0.44721347
vn -0.70710677 0 0.7071067
vn -0.66666657 0.66666687 0.33333328
vn -0.097589955 0.9759001 0.19517994
vn -0 1 0
vn -0.7071067 -2.2478321E-08 0.70710677
vn -0.7071067 -2.2478321E-08 0.70710677
vn 3.1789146E-08 1 1.2715658E-07
vn -0.097590044 0.9759001 0.19518009
vn 4.7683717E-08 1 7.947286E-08
vn -0.70710677 0 0.7071067
vn 0.08276073 0.99312705 -0.08276049
vn -6.357829E-08 1 2.2252401E-07
vn -0.14106916 0.9874839 0.0705347
vn -0.66666657 0.66666687 0.33333328
vn -0.7071067 0 0.70710677
vn -0.70710677 0 0.7071067
vn -0.66666657 0.6666668 0.33333328
vn -0 0.89442724 0.44721344
vn -0 0 1
vn -0 0 1
vn 0.0827604 0.99312705 -0.08276041
vn 0.21821766 0.87287164 0.43643582
vn 0.70710677 0 0.7071067
vn -0.21821775 0.87287164 0.43643567
vn 0.4285713 0.8571429 -0.28571415
vn 0.092449956 0.9245004 -0.36980006
vn 0.40824807 0.8164968 -0.4082481
vn 1 0 0
vn 0.5494424 0.8241633 -0.13736054
vn 0.14106919 0.9874839 -0.07053453
vn -0.14744219 0.8846518 -0.44232574
vn 0.6666666 0.6666668 -0.33333316
vn 0.6666666 0.66666687 -0.3333332
vn 1 0 0
vn 0.6666668 0.6666666 -0.33333334
vn 0.707107 0.70710665 -2.697398E-08
vn 0.08192327 0.98307836 -0.16384627
vn 0.21821778 0.8728716 0.4364357
vn 5.1979207E-08 0.8944272 0.44721368
vn -0.21821776 0.87287176 0.43643555
vn 1.1126266E-07 1 1.2914505E-07
vn -0 1 1.847764E-07
vn 0.44721344 0.89442724 2.1325043E-07
vn 1 3.8146972E-08 3.8146972E-08
vn 1.1017935E-07 0.89442724 -0.44721365
vn -1.1017935E-07 0.89442724 -0.44721356
vn 0.6666668 0.66666657 -0.33333334
vn 0.7071067 4.4956636E-08 -0.7071068
vn 0.55470014 -5.2900337E-08 -0.83205026
vn -0 0 -1
vn -0.22792119 0.9116845 -0.3418819
vn -0 0 -1
vn -0 0 -1
vn -2.2746461E-07 0.89442724 -0.44721356
vn -0 0 -1
vn 1.13732305E-07 0.89442724 -0.44721365
vn 0.17407766 0.69631064 -0.69631064
vn 0.24077174 0.96308684 -0.120385714
vn 0.70710677 0 -0.70710677
vn 0.6666667 0.6666667 -0.33333322
vn 0.70710677 0 -0.70710695
vn -5.686615E-08 0.8944272 -0.44721368
vn 0.6666667 0.6666667 -0.33333322
vn -0.09901476 0.9901476 -0.09901489
vn -0.22792122 0.91168463 -0.34188166
vn 7.947286E-09 1 -8.742015E-08
vn 0.31622753 0.9486834 1.2063133E-07
vn -0.24077189 0.96308684 -0.120385624
vn 0.44721362 0.89442724 1.13732305E-07
vn 1 0 0
vn -0 0 -1
vn -0.7071069 0 -0.70710665
vn 0.21821788 0.87287146 -0.4364359
vn -0.21821795 0.87287146 -0.4364359
vn -0.7071069 0 -0.7071067
vn -0.21821795 0.87287146 -0.4364359
vn 0.6666668 0.66666657 -0.3333334
vn 0.7071067 0 -0.7071068
vn 0.55470014 0 -0.8320503
vn -0.22792101 0.9116847 0.3418816
vn 0.07669639 0.920358 0.38348246
vn -0.40824804 0.81649673 0.4082482
vn -0.08276058 0.99312705 0.082760744
vn -1.2715658E-07 1 1.5894572E-07
vn 3.1789146E-08 1 3.1789146E-08
vn 0.097590044 0.9759001 -0.19518009
vn -3.1789146E-08 1 6.357829E-08
vn 0.31622785 0.9486832 6.031566E-08
vn -0 0.8944272 -0.44721377
vn 0.66666687 0.66666657 -0.3333334
vn 0.5547002 0 -0.83205026
vn -0 0 -1
vn -0 0 -1
vn 0.7071068 0 -0.70710677
vn 0.70710677 0 -0.7071068
vn 0.6666667 0.66666657 -0.33333328
vn 0.70710677 0 -0.7071067
vn 0.70710677 0 -0.7071068
vn 0.6666668 0.66666657 -0.3333334
vn -0 0.8944272 -0.44721377
vn 0.15430333 0.6172133 -0.77151686
vn -0 0 -1
vn -0 0 -1
vn 0.44721353 0.89442724 1.13732305E-07
vn -0 0 -1
vn -0 0 -1
vn -0 0 -1
vn -0 0 -1
vn -0 0.89442724 -0.44721344
vn -0 0.94868314 0.3162281
vn 0.31234732 0.93704265 0.15617396
vn 0.6666666 0.66666675 -0.33333322
vn -0.22792108 0.91168463 0.3418818
vn -0.22792108 0.91168463 -0.3418816
vn -0.40824798 0.8164967 0.4082483
vn -0 0 -0.99999994
vn -0.17407763 0.6963105 -0.6963107
vn -0 0 -1
vn -0 0 -1
vn -0 0 -1
vn -0 0 -1
vn -0 0 -1
vn 0.7071068 2.2478318E-08 -0.70710665
vn -0 0.89442724 -0.44721344
vn -0 0 -1
vn 0.8320502 2.6450158E-08 0.55470026
vn -0 0.8944272 0.4472138
vn 0.70710677 4.4956636E-08 -0.70710677
vn -0 0.89442724 -0.44721344
vn 0.7071067 2.2478318E-08 0.70710677
vn -0 0 1
vn 0.21821779 0.87287146 0.43643588
vn 0.6666667 0.6666667 -0.33333316
g _0
f 3/3/3 2/2/2 1/1/1
f 2/2/2 4/4/4 1/1/1
f 5/5/5 1/1/1 4/4/4
f 6/6/6 5/5/5 4/4/4
f 2/2/2 7/7/7 4/4/4
f 7/7/7 8/8/8 4/4/4
f 5/5/5 6/6/6 9/9/9
f 6/6/6 10/10/10 9/9/9
f 7/7/7 11/11/11 8/8/8
f 9/9/9 10/10/10 12/12/12
f 4/4/4 8/8/8 13/13/13
f 13/13/13 6/6/6 4/4/4
f 11/11/11 14/14/14 8/8/8
f 11/11/11 15/15/15 14/14/14
f 10/10/10 16/16/16 12/12/12
f 12/12/12 16/16/16 17/17/17
f 15/15/15 18/18/18 14/14/14
f 18/18/18 15/15/15 19/19/19
f 20/20/20 18/18/18 19/19/19
f 14/14/14 18/18/18 20/20/20
f 20/20/20 19/19/19 21/21/21
f 22/22/22 14/14/14 20/20/20
f 8/8/8 14/14/14 22/22/22
f 23/23/23 20/20/20 21/21/21
f 22/22/22 20/20/20 23/23/23
f 24/24/24 22/22/22 23/23/23
f 23/23/23 21/21/21 25/25/25
f 26/26/26 23/23/23 25/25/25
f 23/23/23 26/26/26 24/24/24
f 25/25/25 27/27/27 26/26/26
f 28/28/28 8/8/8 22/22/22
f 28/28/28 22/22/22 24/24/24
f 29/29/29 8/8/8 28/28/28
f 8/8/8 29/29/29 13/13/13
f 13/13/13 29/29/29 30/30/30
f 30/30/30 29/29/29 28/28/28
f 6/6/6 13/13/13 30/30/30
f 30/30/30 28/28/28 31/31/31
f 31/31/31 28/28/28 24/24/24
f 32/32/32 30/30/30 31/31/31
f 30/30/30 32/32/32 6/6/6
f 31/31/31 24/24/24 32/32/32
f 24/24/24 33/33/33 32/32/32
f 32/32/32 34/34/34 6/6/6
f 32/32/32 33/33/33 34/34/34
f 34/34/34 10/10/10 6/6/6
f 26/26/26 35/35/35 24/24/24
f 35/35/35 33/33/33 24/24/24
f 26/26/26 36/36/36 35/35/35
f 27/27/27 36/36/36 26/26/26
f 36/36/36 27/27/27 37/37/37
f 27/27/27 38/38/38 37/37/37
f 37/37/37 38/38/38 39/39/39
f 38/38/38 40/40/40 39/39/39
f 39/39/39 40/40/40 41/41/41
f 40/40/40 42/42/42 41/41/41
f 41/41/41 42/42/42 43/43/43
f 42/42/42 44/44/44 43/43/43
f 44/44/44 45/45/45 43/43/43
f 45/45/45 46/46/46 43/43/43
f 43/43/43 46/46/46 47/47/47
f 43/43/43 47/47/47 48/48/48
f 48/48/48 47/47/47 49/49/49
f 48/48/48 49/49/49 50/50/50
f 50/50/50 49/49/49 51/51/51
f 50/50/50 51/51/51 52/52/52
f 45/45/45 53/53/53 46/46/46
f 53/53/53 54/54/54 46/46/46
f 53/53/53 55/55/55 54/54/54
f 56/56/56 41/41/41 43/43/43
f 56/56/56 43/43/43 48/48/48
f 46/46/46 57/57/57 47/47/47
f 46/46/46 54/54/54 57/57/57
f 41/41/41 56/56/56 58/58/58
f 56/56/56 48/48/48 58/58/58
f 55/55/55 59/59/59 54/54/54
f 54/54/54 60/60/60 57/57/57
f 54/54/54 59/59/59 60/60/60
f 61/61/61 59/59/59 55/55/55
f 62/62/62 61/61/61 55/55/55
f 62/62/62 63/63/63 61/61/61
f 61/61/61 64/64/64 59/59/59
f 64/64/64 65/65/65 59/59/59
f 59/59/59 65/65/65 60/60/60
f 61/61/61 66/66/66 64/64/64
f 63/63/63 66/66/66 61/61/61
f 63/63/63 67/67/67 66/66/66
f 67/67/67 68/68/68 66/66/66
f 60/60/60 65/65/65 69/69/69
f 65/65/65 64/64/64 69/69/69
f 69/69/69 64/64/64 70/70/70
f 57/57/57 60/60/60 71/71/71
f 71/71/71 60/60/60 69/69/69
f 66/66/66 68/68/68 72/72/72
f 68/68/68 73/73/73 72/72/72
f 66/66/66 74/74/74 64/64/64
f 74/74/74 66/66/66 72/72/72
f 72/72/72 64/64/64 74/74/74
f 72/72/72 73/73/73 75/75/75
f 64/64/64 72/72/72 75/75/75
f 73/73/73 76/76/76 75/75/75
f 75/75/75 76/76/76 77/77/77
f 78/78/78 64/64/64 75/75/75
f 64/64/64 78/78/78 70/70/70
f 79/79/79 75/75/75 77/77/77
f 79/79/79 80/80/80 75/75/75
f 81/81/81 78/78/78 80/80/80
f 78/78/78 81/81/81 70/70/70
f 79/79/79 77/77/77 82/82/82
f 79/79/79 82/82/82 81/81/81
f 77/77/77 83/83/83 82/82/82
f 83/83/83 84/84/84 82/82/82
f 84/84/84 85/85/85 82/82/82
f 82/82/82 86/86/86 81/81/81
f 86/86/86 82/82/82 85/85/85
f 85/85/85 84/84/84 87/87/87
f 84/84/84 88/88/88 87/87/87
f 86/86/86 85/85/85 89/89/89
f 85/85/85 87/87/87 89/89/89
f 89/89/89 87/87/87 90/90/90
f 89/89/89 90/90/90 91/91/91
f 92/92/92 87/87/87 88/88/88
f 92/92/92 93/93/93 90/90/90
f 94/94/94 92/92/92 88/88/88
f 92/92/92 94/94/94 93/93/93
f 94/94/94 95/95/95 93/93/93
f 87/87/87 92/92/92 96/96/96
f 87/87/87 96/96/96 90/90/90
f 96/96/96 92/92/92 90/90/90
f 86/86/86 89/89/89 97/97/97
f 97/97/97 89/89/89 91/91/91
f 98/98/98 97/97/97 91/91/91
f 98/98/98 99/99/99 97/97/97
f 100/100/100 86/86/86 97/97/97
f 99/99/99 100/100/100 97/97/97
f 81/81/81 86/86/86 100/100/100
f 101/101/101 81/81/81 100/100/100
f 81/81/81 101/101/101 70/70/70
f 101/101/101 100/100/100 102/102/102
f 100/100/100 99/99/99 102/102/102
f 70/70/70 101/101/101 102/102/102
f 70/70/70 102/102/102 99/99/99
f 103/103/103 70/70/70 99/99/99
f 69/69/69 70/70/70 103/103/103
f 71/71/71 69/69/69 103/103/103
f 103/103/103 99/99/99 104/104/104
f 71/71/71 103/103/103 105/105/105
f 105/105/105 103/103/103 104/104/104
f 105/105/105 104/104/104 106/106/106
f 107/107/107 105/105/105 106/106/106
f 107/107/107 106/106/106 108/108/108
f 99/99/99 109/109/109 104/104/104
f 106/106/106 104/104/104 109/109/109
f 109/109/109 99/99/99 98/98/98
f 110/110/110 71/71/71 105/105/105
f 110/110/110 105/105/105 107/107/107
f 110/110/110 57/57/57 71/71/71
f 47/47/47 57/57/57 110/110/110
f 111/111/111 47/47/47 110/110/110
f 111/111/111 110/110/110 107/107/107
f 112/112/112 47/47/47 111/111/111
f 107/107/107 112/112/112 111/111/111
f 47/47/47 112/112/112 49/49/49
f 49/49/49 112/112/112 107/107/107
f 113/113/113 49/49/49 107/107/107
f 113/113/113 107/107/107 108/108/108
f 114/114/114 49/49/49 113/113/113
f 108/108/108 114/114/114 113/113/113
f 49/49/49 114/114/114 51/51/51
f 51/51/51 114/114/114 108/108/108
f 115/115/115 109/109/109 98/98/98
f 109/109/109 115/115/115 116/116/116
f 117/117/117 115/115/115 98/98/98
f 115/115/115 117/117/117 116/116/116
f 118/118/118 109/109/109 116/116/116
f 118/118/118 106/106/106 109/109/109
f 116/116/116 119/119/119 118/118/118
f 119/119/119 106/106/106 118/118/118
f 117/117/117 119/119/119 116/116/116
f 108/108/108 106/106/106 120/120/120
f 106/106/106 119/119/119 120/120/120
f 108/108/108 120/120/120 121/121/121
f 122/122/122 51/51/51 108/108/108
f 122/122/122 108/108/108 121/121/121
f 123/123/123 51/51/51 122/122/122
f 121/121/121 123/123/123 122/122/122
f 51/51/51 123/123/123 124/124/124
f 124/124/124 123/123/123 121/121/121
f 52/52/52 51/51/51 124/124/124
f 125/125/125 124/124/124 121/121/121
f 124/124/124 125/125/125 52/52/52
f 119/119/119 117/117/117 126/126/126
f 120/120/120 119/119/119 127/127/127
f 119/119/119 126/126/126 127/127/127
f 121/121/121 120/120/120 128/128/128
f 120/120/120 127/127/127 128/128/128
f 125/125/125 121/121/121 129/129/129
f 121/121/121 128/128/128 129/129/129
f 117/117/117 130/130/130 126/126/126
f 126/126/126 130/130/130 131/131/131
f 117/117/117 98/98/98 130/130/130
f 127/127/127 126/126/126 132/132/132
f 126/126/126 131/131/131 132/132/132
f 132/132/132 131/131/131 133/133/133
f 128/128/128 127/127/127 134/134/134
f 127/127/127 132/132/132 134/134/134
f 129/129/129 128/128/128 135/135/135
f 128/128/128 134/134/134 135/135/135
f 134/134/134 132/132/132 136/136/136
f 132/132/132 133/133/133 136/136/136
f 98/98/98 137/137/137 130/130/130
f 138/138/138 130/130/130 137/137/137
f 137/137/137 98/98/98 91/91/91
f 130/130/130 139/139/139 131/131/131
f 130/130/130 138/138/138 139/139/139
f 131/131/131 139/139/139 138/138/138
f 135/135/135 134/134/134 140/140/140
f 134/134/134 136/136/136 140/140/140
f 140/140/140 136/136/136 141/141/141
f 129/129/129 135/135/135 142/142/142
f 135/135/135 140/140/140 143/143/143
f 142/142/142 135/135/135 143/143/143
f 143/143/143 140/140/140 144/144/144
f 140/140/140 141/141/141 144/144/144
f 144/144/144 142/142/142 143/143/143
f 145/145/145 129/129/129 142/142/142
f 125/125/125 129/129/129 145/145/145
f 146/146/146 125/125/125 145/145/145
f 146/146/146 145/145/145 147/147/147
f 147/147/147 145/145/145 148/148/148
f 145/145/145 142/142/142 148/148/148
f 125/125/125 146/146/146 52/52/52
f 142/142/142 144/144/144 149/149/149
f 148/148/148 142/142/142 149/149/149
f 136/136/136 150/150/150 141/141/141
f 150/150/150 136/136/136 151/151/151
f 136/136/136 133/133/133 151/151/151
f 133/133/133 152/152/152 151/151/151
f 152/152/152 133/133/133 153/153/153
f 154/154/154 153/153/153 133/133/133
f 153/153/153 154/154/154 152/152/152
f 155/155/155 154/154/154 133/133/133
f 131/131/131 155/155/155 133/133/133
f 155/155/155 131/131/131 156/156/156
f 156/156/156 131/131/131 138/138/138
f 157/157/157 155/155/155 156/156/156
f 156/156/156 138/138/138 157/157/157
f 158/158/158 155/155/155 157/157/157
f 155/155/155 158/158/158 154/154/154
f 138/138/138 159/159/159 157/157/157
f 159/159/159 158/158/158 157/157/157
f 158/158/158 160/160/160 154/154/154
f 160/160/160 161/161/161 154/154/154
f 154/154/154 161/161/161 152/152/152
f 162/162/162 160/160/160 158/158/158
f 138/138/138 163/163/163 159/159/159
f 163/163/163 138/138/138 137/137/137
f 159/159/159 164/164/164 158/158/158
f 164/164/164 162/162/162 158/158/158
f 163/163/163 164/164/164 159/159/159
f 165/165/165 163/163/163 137/137/137
f 163/163/163 166/166/166 164/164/164
f 163/163/163 165/165/165 166/166/166
f 166/166/166 167/167/167 164/164/164
f 164/164/164 167/167/167 162/162/162
f 137/137/137 168/168/168 165/165/165
f 168/168/168 137/137/137 91/91/91
f 165/165/165 169/169/169 166/166/166
f 166/166/166 169/169/169 167/167/167
f 168/168/168 170/170/170 165/165/165
f 168/168/168 91/91/91 170/170/170
f 165/165/165 170/170/170 169/169/169
f 91/91/91 171/171/171 170/170/170
f 170/170/170 171/171/171 169/169/169
f 91/91/91 90/90/90 171/171/171
f 169/169/169 172/172/172 167/167/167
f 169/169/169 171/171/171 172/172/172
f 90/90/90 173/173/173 171/171/171
f 93/93/93 173/173/173 90/90/90
f 167/167/167 174/174/174 162/162/162
f 167/167/167 172/172/172 174/174/174
f 174/174/174 175/175/175 162/162/162
f 172/172/172 175/175/175 174/174/174
f 175/175/175 176/176/176 162/162/162
f 160/160/160 162/162/162 176/176/176
f 171/171/171 177/177/177 172/172/172
f 171/171/171 173/173/173 177/177/177
f 177/177/177 175/175/175 172/172/172
f 173/173/173 178/178/178 177/177/177
f 175/175/175 177/177/177 178/178/178
f 173/173/173 93/93/93 179/179/179
f 178/178/178 173/173/173 179/179/179
f 179/179/179 93/93/93 180/180/180
f 180/180/180 178/178/178 179/179/179
f 93/93/93 181/181/181 180/180/180
f 93/93/93 95/95/95 181/181/181
f 95/95/95 182/182/182 181/181/181
f 180/180/180 183/183/183 178/178/178
f 180/180/180 181/181/181 183/183/183
f 183/183/183 175/175/175 178/178/178
f 181/181/181 182/182/182 184/184/184
f 181/181/181 184/184/184 183/183/183
f 182/182/182 185/185/185 184/184/184
f 184/184/184 185/185/185 186/186/186
f 185/185/185 187/187/187 186/186/186
f 186/186/186 187/187/187 188/188/188
f 187/187/187 189/189/189 188/188/188
f 188/188/188 189/189/189 190/190/190
f 183/183/183 184/184/184 191/191/191
f 184/184/184 186/186/186 191/191/191
f 175/175/175 183/183/183 192/192/192
f 183/183/183 191/191/191 192/192/192
f 186/186/186 188/188/188 193/193/193
f 191/191/191 186/186/186 193/193/193
f 192/192/192 194/194/194 175/175/175
f 192/192/192 191/191/191 195/195/195
f 194/194/194 192/192/192 195/195/195
f 196/196/196 191/191/191 193/193/193
f 191/191/191 196/196/196 195/195/195
f 188/188/188 197/197/197 193/193/193
f 197/197/197 196/196/196 193/193/193
f 194/194/194 198/198/198 175/175/175
f 198/198/198 194/194/194 199/199/199
f 175/175/175 198/198/198 176/176/176
f 198/198/198 200/200/200 176/176/176
f 200/200/200 198/198/198 199/199/199
f 200/200/200 160/160/160 176/176/176
f 160/160/160 200/200/200 199/199/199
f 194/194/194 195/195/195 201/201/201
f 199/199/199 194/194/194 201/201/201
f 195/195/195 196/196/196 202/202/202
f 196/196/196 197/197/197 203/203/203
f 196/196/196 203/203/203 202/202/202
f 202/202/202 203/203/203 204/204/204
f 202/202/202 204/204/204 205/205/205
f 205/205/205 204/204/204 206/206/206
f 195/195/195 202/202/202 207/207/207
f 201/201/201 195/195/195 207/207/207
f 207/207/207 202/202/202 205/205/205
f 197/197/197 208/208/208 203/203/203
f 209/209/209 203/203/203 208/208/208
f 208/208/208 197/197/197 188/188/188
f 210/210/210 209/209/209 208/208/208
f 209/209/209 210/210/210 211/211/211
f 203/203/203 212/212/212 204/204/204
f 203/203/203 209/209/209 212/212/212
f 204/204/204 212/212/212 209/209/209
f 213/213/213 208/208/208 188/188/188
f 213/213/213 210/210/210 208/208/208
f 213/213/213 188/188/188 214/214/214
f 214/214/214 188/188/188 190/190/190
f 215/215/215 213/213/213 214/214/214
f 214/214/214 190/190/190 215/215/215
f 213/213/213 215/215/215 210/210/210
f 190/190/190 216/216/216 215/215/215
f 215/215/215 216/216/216 210/210/210
f 216/216/216 217/217/217 210/210/210
f 210/210/210 217/217/217 218/218/218
f 217/217/217 219/219/219 218/218/218
f 210/210/210 220/220/220 211/211/211
f 220/220/220 210/210/210 218/218/218
f 218/218/218 211/211/211 220/220/220
f 218/218/218 219/219/219 221/221/221
f 211/211/211 218/218/218 221/221/221
f 219/219/219 222/222/222 221/221/221
f 223/223/223 211/211/211 221/221/221
f 211/211/211 223/223/223 224/224/224
f 225/225/225 211/211/211 224/224/224
f 209/209/209 211/211/211 225/225/225
f 225/225/225 224/224/224 206/206/206
f 224/224/224 226/226/226 206/206/206
f 206/206/206 226/226/226 227/227/227
f 228/228/228 209/209/209 225/225/225
f 228/228/228 204/204/204 209/209/209
f 225/225/225 229/229/229 228/228/228
f 229/229/229 204/204/204 228/228/228
f 204/204/204 229/229/229 206/206/206
f 229/229/229 225/225/225 206/206/206
f 230/230/230 206/206/206 227/227/227
f 230/230/230 227/227/227 231/231/231
f 205/205/205 206/206/206 230/230/230
f 232/232/232 230/230/230 231/231/231
f 232/232/232 231/231/231 233/233/233
f 234/234/234 205/205/205 230/230/230
f 234/234/234 230/230/230 232/232/232
f 205/205/205 234/234/234 235/235/235
f 235/235/235 234/234/234 232/232/232
f 236/236/236 232/232/232 233/233/233
f 232/232/232 236/236/236 235/235/235
f 236/236/236 233/233/233 237/237/237
f 238/238/238 236/236/236 237/237/237
f 236/236/236 238/238/238 235/235/235
f 238/238/238 237/237/237 239/239/239
f 240/240/240 238/238/238 239/239/239
f 240/240/240 239/239/239 241/241/241
f 242/242/242 205/205/205 235/235/235
f 207/207/207 205/205/205 242/242/242
f 243/243/243 207/207/207 242/242/242
f 243/243/243 242/242/242 235/235/235
f 207/207/207 243/243/243 201/201/201
f 244/244/244 243/243/243 235/235/235
f 243/243/243 244/244/244 201/201/201
f 238/238/238 245/245/245 235/235/235
f 244/244/244 235/235/235 245/245/245
f 246/246/246 238/238/238 240/240/240
f 245/245/245 238/238/238 246/246/246
f 244/244/244 247/247/247 201/201/201
f 199/199/199 201/201/201 247/247/247
f 248/248/248 245/245/245 246/246/246
f 249/249/249 244/244/244 245/245/245
f 249/249/249 245/245/245 248/248/248
f 250/250/250 249/249/249 248/248/248
f 250/250/250 248/248/248 251/251/251
f 252/252/252 248/248/248 246/246/246
f 252/252/252 246/246/246 240/240/240
f 248/248/248 252/252/252 251/251/251
f 252/252/252 240/240/240 251/251/251
f 247/247/247 244/244/244 253/253/253
f 253/253/253 244/244/244 249/249/249
f 254/254/254 199/199/199 247/247/247
f 254/254/254 247/247/247 253/253/253
f 254/254/254 255/255/255 199/199/199
f 255/255/255 254/254/254 253/253/253
f 255/255/255 160/160/160 199/199/199
f 256/256/256 253/253/253 249/249/249
f 255/255/255 253/253/253 256/256/256
f 256/256/256 249/249/249 250/250/250
f 160/160/160 255/255/255 257/257/257
f 257/257/257 255/255/255 256/256/256
f 258/258/258 160/160/160 257/257/257
f 161/161/161 160/160/160 258/258/258
f 258/258/258 257/257/257 161/161/161
f 257/257/257 256/256/256 259/259/259
f 259/259/259 256/256/256 250/250/250
f 257/257/257 260/260/260 161/161/161
f 260/260/260 257/257/257 259/259/259
f 260/260/260 152/152/152 161/161/161
f 259/259/259 261/261/261 260/260/260
f 250/250/250 262/262/262 259/259/259
f 262/262/262 261/261/261 259/259/259
f 152/152/152 260/260/260 263/263/263
f 261/261/261 263/263/263 260/260/260
f 264/264/264 152/152/152 263/263/263
f 261/261/261 265/265/265 263/263/263
f 265/265/265 264/264/264 263/263/263
f 262/262/262 266/266/266 261/261/261
f 266/266/266 265/265/265 261/261/261
f 152/152/152 264/264/264 267/267/267
f 267/267/267 264/264/264 268/268/268
f 151/151/151 152/152/152 267/267/267
f 269/269/269 264/264/264 265/265/265
f 264/264/264 269/269/269 268/268/268
f 268/268/268 269/269/269 270/270/270
f 271/271/271 269/269/269 265/265/265
f 266/266/266 271/271/271 265/265/265
f 269/269/269 271/271/271 270/270/270
f 270/270/270 271/271/271 266/266/266
f 272/272/272 266/266/266 262/262/262
f 272/272/272 270/270/270 266/266/266
f 273/273/273 272/272/272 262/262/262
f 273/273/273 262/262/262 250/250/250
f 274/274/274 273/273/273 250/250/250
f 274/274/274 250/250/250 251/251/251
f 275/275/275 273/273/273 274/274/274
f 251/251/251 275/275/275 274/274/274
f 276/276/276 272/272/272 273/273/273
f 275/275/275 276/276/276 273/273/273
f 277/277/277 270/270/270 272/272/272
f 276/276/276 277/277/277 272/272/272
f 270/270/270 277/277/277 278/278/278
f 278/278/278 277/277/277 276/276/276
f 279/279/279 276/276/276 275/275/275
f 279/279/279 278/278/278 276/276/276
f 275/275/275 251/251/251 280/280/280
f 280/280/280 279/279/279 275/275/275
f 279/279/279 280/280/280 281/281/281
f 282/282/282 270/270/270 278/278/278
f 268/268/268 270/270/270 282/282/282
f 283/283/283 278/278/278 279/279/279
f 281/281/281 283/283/283 279/279/279
f 282/282/282 278/278/278 283/283/283
f 251/251/251 284/284/284 280/280/280
f 240/240/240 284/284/284 251/251/251
f 280/280/280 285/285/285 281/281/281
f 284/284/284 285/285/285 280/280/280
f 285/285/285 284/284/284 286/286/286
f 284/284/284 240/240/240 287/287/287
f 284/284/284 287/287/287 286/286/286
f 287/287/287 240/240/240 241/241/241
f 287/287/287 241/241/241 286/286/286
f 241/241/241 288/288/288 286/286/286
f 286/286/286 288/288/288 289/289/289
f 290/290/290 286/286/286 289/289/289
f 289/289/289 291/291/291 290/290/290
f 290/290/290 292/292/292 286/286/286
f 291/291/291 292/292/292 290/290/290
f 292/292/292 285/285/285 286/286/286
f 291/291/291 293/293/293 292/292/292
f 294/294/294 285/285/285 292/292/292
f 293/293/293 294/294/294 292/292/292
f 285/285/285 294/294/294 281/281/281
f 294/294/294 293/293/293 295/295/295
f 296/296/296 294/294/294 295/295/295
f 281/281/281 294/294/294 296/296/296
f 296/296/296 295/295/295 297/297/297
f 298/298/298 296/296/296 297/297/297
f 298/298/298 297/297/297 299/299/299
f 300/300/300 281/281/281 296/296/296
f 300/300/300 296/296/296 298/298/298
f 301/301/301 298/298/298 299/299/299
f 301/301/301 299/299/299 302/302/302
f 300/300/300 303/303/303 281/281/281
f 303/303/303 283/283/283 281/281/281
f 304/304/304 300/300/300 298/298/298
f 304/304/304 298/298/298 301/301/301
f 300/300/300 304/304/304 303/303/303
f 304/304/304 305/305/305 303/303/303
f 306/306/306 283/283/283 303/303/303
f 306/306/306 282/282/282 283/283/283
f 307/307/307 301/301/301 302/302/302
f 307/307/307 302/302/302 308/308/308
f 309/309/309 304/304/304 301/301/301
f 305/305/305 304/304/304 309/309/309
f 301/301/301 310/310/310 309/309/309
f 310/310/310 301/301/301 307/307/307
f 311/311/311 310/310/310 307/307/307
f 312/312/312 310/310/310 311/311/311
f 313/313/313 307/307/307 308/308/308
f 313/313/313 311/311/311 307/307/307
f 313/313/313 308/308/308 314/314/314
f 315/315/315 309/309/309 310/310/310
f 315/315/315 305/305/305 309/309/309
f 312/312/312 315/315/315 310/310/310
f 305/305/305 315/315/315 312/312/312
f 316/316/316 313/313/313 314/314/314
f 313/313/313 316/316/316 311/311/311
f 316/316/316 314/314/314 317/317/317
f 318/318/318 316/316/316 317/317/317
f 316/316/316 318/318/318 311/311/311
f 318/318/318 319/319/319 311/311/311
f 320/320/320 311/311/311 319/319/319
f 320/320/320 312/312/312 311/311/311
f 321/321/321 320/320/320 319/319/319
f 322/322/322 320/320/320 321/321/321
f 323/323/323 322/322/322 321/321/321
f 324/324/324 322/322/322 323/323/323
f 325/325/325 324/324/324 323/323/323
f 326/326/326 324/324/324 325/325/325
f 327/327/327 326/326/326 325/325/325
f 328/328/328 326/326/326 327/327/327
f 328/328/328 329/329/329 326/326/326
f 330/330/330 329/329/329 328/328/328
f 331/331/331 328/328/328 327/327/327
f 331/331/331 332/332/332 328/328/328
f 332/332/332 333/333/333 328/328/328
f 332/332/332 334/334/334 333/333/333
f 335/335/335 330/330/330 328/328/328
f 328/328/328 333/333/333 335/335/335
f 334/334/334 336/336/336 333/333/333
f 334/334/334 337/337/337 336/336/336
f 333/333/333 338/338/338 335/335/335
f 335/335/335 338/338/338 330/330/330
f 333/333/333 336/336/336 338/338/338
f 337/337/337 339/339/339 336/336/336
f 340/340/340 339/339/339 337/337/337
f 341/341/341 340/340/340 337/337/337
f 336/336/336 339/339/339 342/342/342
f 336/336/336 342/342/342 338/338/338
f 339/339/339 340/340/340 342/342/342
f 338/338/338 342/342/342 343/343/343
f 338/338/338 343/343/343 330/330/330
f 344/344/344 340/340/340 341/341/341
f 344/344/344 345/345/345 340/340/340
f 346/346/346 344/344/344 341/341/341
f 342/342/342 340/340/340 347/347/347
f 342/342/342 347/347/347 343/343/343
f 348/348/348 344/344/344 346/346/346
f 17/17/17 348/348/348 346/346/346
f 16/16/16 348/348/348 17/17/17
f 349/349/349 345/345/345 344/344/344
f 348/348/348 349/349/349 344/344/344
f 349/349/349 350/350/350 345/345/345
f 345/345/345 351/351/351 340/340/340
f 340/340/340 351/351/351 347/347/347
f 347/347/347 351/351/351 352/352/352
f 351/351/351 345/345/345 352/352/352
f 343/343/343 347/347/347 353/353/353
f 347/347/347 352/352/352 353/353/353
f 343/343/343 353/353/353 354/354/354
f 330/330/330 343/343/343 354/354/354
f 354/354/354 353/353/353 355/355/355
f 354/354/354 355/355/355 330/330/330
f 353/353/353 352/352/352 356/356/356
f 353/353/353 356/356/356 355/355/355
f 352/352/352 345/345/345 357/357/357
f 352/352/352 357/357/357 356/356/356
f 355/355/355 358/358/358 330/330/330
f 330/330/330 358/358/358 329/329/329
f 355/355/355 356/356/356 359/359/359
f 355/355/355 359/359/359 358/358/358
f 356/356/356 360/360/360 359/359/359
f 356/356/356 357/357/357 360/360/360
f 345/345/345 361/361/361 357/357/357
f 350/350/350 361/361/361 345/345/345
f 361/361/361 147/147/147 357/357/357
f 357/357/357 147/147/147 360/360/360
f 147/147/147 361/361/361 350/350/350
f 359/359/359 360/360/360 362/362/362
f 359/359/359 362/362/362 358/358/358
f 358/358/358 362/362/362 363/363/363
f 358/358/358 364/364/364 329/329/329
f 364/364/364 358/358/358 363/363/363
f 364/364/364 363/363/363 329/329/329
f 360/360/360 365/365/365 362/362/362
f 360/360/360 147/147/147 365/365/365
f 366/366/366 362/362/362 365/365/365
f 362/362/362 366/366/366 363/363/363
f 363/363/363 366/366/366 367/367/367
f 363/363/363 367/367/367 368/368/368
f 369/369/369 363/363/363 368/368/368
f 363/363/363 369/369/369 329/329/329
f 329/329/329 369/369/369 370/370/370
f 369/369/369 368/368/368 370/370/370
f 329/329/329 370/370/370 326/326/326
f 370/370/370 368/368/368 326/326/326
f 147/147/147 148/148/148 365/365/365
f 365/365/365 148/148/148 366/366/366
f 148/148/148 371/371/371 366/366/366
f 371/371/371 148/148/148 149/149/149
f 366/366/366 371/371/371 372/372/372
f 366/366/366 372/372/372 367/367/367
f 371/371/371 373/373/373 372/372/372
f 371/371/371 149/149/149 373/373/373
f 373/373/373 367/367/367 372/372/372
f 367/367/367 373/373/373 374/374/374
f 149/149/149 375/375/375 373/373/373
f 149/149/149 144/144/144 375/375/375
f 373/373/373 375/375/375 376/376/376
f 373/373/373 376/376/376 374/374/374
f 144/144/144 377/377/377 375/375/375
f 375/375/375 377/377/377 376/376/376
f 141/141/141 377/377/377 144/144/144
f 377/377/377 141/141/141 376/376/376
f 376/376/376 141/141/141 378/378/378
f 376/376/376 378/378/378 374/374/374
f 141/141/141 379/379/379 378/378/378
f 141/141/141 150/150/150 379/379/379
f 150/150/150 380/380/380 379/379/379
f 150/150/150 151/151/151 380/380/380
f 151/151/151 381/381/381 380/380/380
f 381/381/381 151/151/151 267/267/267
f 378/378/378 379/379/379 382/382/382
f 379/379/379 380/380/380 383/383/383
f 379/379/379 383/383/383 382/382/382
f 380/380/380 381/381/381 384/384/384
f 380/380/380 384/384/384 383/383/383
f 381/381/381 385/385/385 384/384/384
f 381/381/381 267/267/267 385/385/385
f 384/384/384 385/385/385 383/383/383
f 267/267/267 386/386/386 385/385/385
f 386/386/386 267/267/267 268/268/268
f 385/385/385 387/387/387 383/383/383
f 385/385/385 386/386/386 387/387/387
f 383/383/383 387/387/387 382/382/382
f 378/378/378 382/382/382 388/388/388
f 374/374/374 378/378/378 388/388/388
f 386/386/386 268/268/268 389/389/389
f 386/386/386 389/389/389 387/387/387
f 387/387/387 390/390/390 382/382/382
f 382/382/382 390/390/390 388/388/388
f 387/387/387 389/389/389 390/390/390
f 268/268/268 391/391/391 389/389/389
f 391/391/391 268/268/268 282/282/282
f 391/391/391 282/282/282 306/306/306
f 389/389/389 392/392/392 390/390/390
f 389/389/389 391/391/391 392/392/392
f 393/393/393 391/391/391 306/306/306
f 391/391/391 393/393/393 392/392/392
f 390/390/390 392/392/392 394/394/394
f 390/390/390 394/394/394 388/388/388
f 393/393/393 306/306/306 395/395/395
f 395/395/395 306/306/306 303/303/303
f 305/305/305 395/395/395 303/303/303
f 392/392/392 393/393/393 396/396/396
f 392/392/392 396/396/396 394/394/394
f 397/397/397 393/393/393 395/395/395
f 393/393/393 397/397/397 396/396/396
f 397/397/397 395/395/395 398/398/398
f 395/395/395 305/305/305 398/398/398
f 396/396/396 397/397/397 398/398/398
f 398/398/398 305/305/305 399/399/399
f 399/399/399 305/305/305 312/312/312
f 396/396/396 398/398/398 400/400/400
f 394/394/394 396/396/396 400/400/400
f 400/400/400 398/398/398 399/399/399
f 394/394/394 400/400/400 399/399/399
f 401/401/401 394/394/394 399/399/399
f 401/401/401 388/388/388 394/394/394
f 401/401/401 399/399/399 312/312/312
f 388/388/388 401/401/401 402/402/402
f 374/374/374 388/388/388 402/402/402
f 403/403/403 401/401/401 312/312/312
f 402/402/402 401/401/401 403/403/403
f 403/403/403 312/312/312 320/320/320
f 404/404/404 403/403/403 320/320/320
f 320/320/320 322/322/322 404/404/404
f 405/405/405 403/403/403 404/404/404
f 405/405/405 402/402/402 403/403/403
f 406/406/406 404/404/404 322/322/322
f 406/406/406 405/405/405 404/404/404
f 407/407/407 406/406/406 322/322/322
f 322/322/322 324/324/324 407/407/407
f 408/408/408 374/374/374 402/402/402
f 402/402/402 405/405/405 409/409/409
f 408/408/408 402/402/402 409/409/409
f 408/408/408 410/410/410 374/374/374
f 410/410/410 367/367/367 374/374/374
f 410/410/410 408/408/408 411/411/411
f 367/367/367 410/410/410 411/411/411
f 408/408/408 409/409/409 411/411/411
f 368/368/368 367/367/367 411/411/411
f 411/411/411 409/409/409 368/368/368
f 409/409/409 405/405/405 412/412/412
f 409/409/409 412/412/412 368/368/368
f 413/413/413 405/405/405 406/406/406
f 405/405/405 413/413/413 412/412/412
f 414/414/414 406/406/406 407/407/407
f 414/414/414 413/413/413 406/406/406
f 415/415/415 414/414/414 407/407/407
f 413/413/413 414/414/414 415/415/415
f 412/412/412 413/413/413 415/415/415
f 415/415/415 407/407/407 324/324/324
f 368/368/368 412/412/412 416/416/416
f 412/412/412 415/415/415 416/416/416
f 416/416/416 415/415/415 324/324/324
f 368/368/368 416/416/416 326/326/326
f 324/324/324 326/326/326 416/416/416
f 417/417/417 147/147/147 350/350/350
f 417/417/417 146/146/146 147/147/147
f 146/146/146 417/417/417 418/418/418
f 146/146/146 418/418/418 52/52/52
f 419/419/419 417/417/417 350/350/350
f 420/420/420 417/417/417 419/419/419
f 420/420/420 419/419/419 350/350/350
f 417/417/417 420/420/420 418/418/418
f 421/421/421 420/420/420 350/350/350
f 421/421/421 350/350/350 349/349/349
f 422/422/422 421/421/421 349/349/349
f 423/423/423 421/421/421 422/422/422
f 422/422/422 349/349/349 348/348/348
f 424/424/424 420/420/420 421/421/421
f 423/423/423 424/424/424 421/421/421
f 425/425/425 422/422/422 348/348/348
f 348/348/348 16/16/16 425/425/425
f 426/426/426 422/422/422 425/425/425
f 426/426/426 423/423/423 422/422/422
f 427/427/427 425/425/425 16/16/16
f 427/427/427 426/426/426 425/425/425
f 428/428/428 427/427/427 16/16/16
f 426/426/426 427/427/427 428/428/428
f 16/16/16 10/10/10 428/428/428
f 429/429/429 426/426/426 428/428/428
f 429/429/429 428/428/428 10/10/10
f 423/423/423 426/426/426 429/429/429
f 430/430/430 429/429/429 10/10/10
f 10/10/10 34/34/34 430/430/430
f 431/431/431 429/429/429 430/430/430
f 431/431/431 423/423/423 429/429/429
f 432/432/432 430/430/430 34/34/34
f 432/432/432 431/431/431 430/430/430
f 433/433/433 432/432/432 34/34/34
f 33/33/33 433/433/433 34/34/34
f 434/434/434 432/432/432 433/433/433
f 33/33/33 434/434/434 433/433/433
f 435/435/435 431/431/431 432/432/432
f 434/434/434 435/435/435 432/432/432
f 436/436/436 423/423/423 431/431/431
f 435/435/435 436/436/436 431/431/431
f 436/436/436 437/437/437 423/423/423
f 437/437/437 436/436/436 435/435/435
f 437/437/437 424/424/424 423/423/423
f 437/437/437 438/438/438 424/424/424
f 439/439/439 437/437/437 435/435/435
f 439/439/439 435/435/435 434/434/434
f 438/438/438 437/437/437 439/439/439
f 440/440/440 434/434/434 33/33/33
f 440/440/440 439/439/439 434/434/434
f 438/438/438 441/441/441 424/424/424
f 424/424/424 441/441/441 420/420/420
f 441/441/441 418/418/418 420/420/420
f 442/442/442 440/440/440 33/33/33
f 33/33/33 35/35/35 442/442/442
f 443/443/443 439/439/439 440/440/440
f 443/443/443 438/438/438 439/439/439
f 444/444/444 440/440/440 442/442/442
f 444/444/444 443/443/443 440/440/440
f 445/445/445 442/442/442 35/35/35
f 445/445/445 444/444/444 442/442/442
f 446/446/446 445/445/445 35/35/35
f 36/36/36 446/446/446 35/35/35
f 36/36/36 447/447/447 446/446/446
f 447/447/447 36/36/36 37/37/37
f 448/448/448 418/418/418 441/441/441
f 438/438/438 449/449/449 441/441/441
f 449/449/449 448/448/448 441/441/441
f 418/418/418 448/448/448 450/450/450
f 52/52/52 418/418/418 450/450/450
f 449/449/449 451/451/451 448/448/448
f 451/451/451 449/449/449 438/438/438
f 451/451/451 450/450/450 448/448/448
f 452/452/452 52/52/52 450/450/450
f 452/452/452 50/50/50 52/52/52
f 450/450/450 50/50/50 452/452/452
f 50/50/50 450/450/450 451/451/451
f 453/453/453 451/451/451 438/438/438
f 453/453/453 438/438/438 443/443/443
f 454/454/454 50/50/50 451/451/451
f 453/453/453 454/454/454 451/451/451
f 454/454/454 48/48/48 50/50/50
f 455/455/455 453/453/453 443/443/443
f 454/454/454 453/453/453 455/455/455
f 455/455/455 443/443/443 444/444/444
f 48/48/48 454/454/454 456/456/456
f 456/456/456 454/454/454 455/455/455
f 58/58/58 48/48/48 456/456/456
f 457/457/457 455/455/455 444/444/444
f 456/456/456 455/455/455 457/457/457
f 457/457/457 444/444/444 445/445/445
f 58/58/58 456/456/456 458/458/458
f 458/458/458 456/456/456 457/457/457
f 459/459/459 457/457/457 445/445/445
f 458/458/458 457/457/457 459/459/459
f 459/459/459 445/445/445 446/446/446
f 460/460/460 58/58/58 458/458/458
f 41/41/41 58/58/58 460/460/460
f 461/461/461 459/459/459 446/446/446
f 447/447/447 461/461/461 446/446/446
f 462/462/462 458/458/458 459/459/459
f 460/460/460 458/458/458 462/462/462
f 462/462/462 459/459/459 461/461/461
f 463/463/463 41/41/41 460/460/460
f 463/463/463 39/39/39 41/41/41
f 447/447/447 464/464/464 461/461/461
f 447/447/447 37/37/37 464/464/464
f 465/465/465 460/460/460 462/462/462
f 463/463/463 460/460/460 465/465/465
f 466/466/466 462/462/462 461/461/461
f 464/464/464 466/466/466 461/461/461
f 465/465/465 462/462/462 466/466/466
f 39/39/39 463/463/463 467/467/467
f 467/467/467 463/463/463 465/465/465
f 468/468/468 37/37/37 39/39/39
f 37/37/37 468/468/468 464/464/464
f 468/468/468 39/39/39 467/467/467
f 464/464/464 468/468/468 469/469/469
f 464/464/464 469/469/469 466/466/466
f 468/468/468 467/467/467 469/469/469
f 467/467/467 465/465/465 470/470/470
f 470/470/470 465/465/465 466/466/466
f 469/469/469 470/470/470 466/466/466
f 469/469/469 467/467/467 470/470/470
