g Outline
v -0.26092568 0.26092562 0
v 5.9363203E-10 0.30069748 0.20313117
v -0.21262527 0.21262519 0.20313117
v -7.356831E-11 0.36900458 0
v -0.23534875 0.2353487 -0.1795652
v 0.21262522 0.21262522 0.20313117
v 1.9592832E-10 0.33283338 -0.1795652
v 0.26092562 0.26092562 0
v 0.30069748 -1.4225729E-08 0.20313117
v 0.23534873 0.23534873 -0.1795652
v 0.36900458 -1.5982565E-08 0
v 0.33283338 -1.4940465E-08 -0.1795652
v -0.33283338 3.5771412E-09 -0.1795652
v -0.23534875 0.2353487 -0.1795652
v -0.26092568 0.26092562 0
v -0.36900458 4.547472E-09 0
v -0.2353487 -0.23534873 -0.1795652
v -0.21262527 0.21262519 0.20313117
v -0.26092562 -0.26092565 0
v -0.30069748 2.5039566E-09 0.20313117
v -0.21262519 -0.21262524 0.20313117
v -2.8901288E-08 -0.33283338 -0.1795652
v -0.2353487 -0.23534873 -0.1795652
v -0.26092562 -0.26092565 0
v -3.2332974E-08 -0.36900458 0
v -0.21262519 -0.21262524 0.20313117
v 0.23534873 -0.23534873 -0.1795652
v -2.5694174E-08 -0.30069748 0.20313117
v 0.26092562 -0.26092562 0
v 0.33283338 -1.4940465E-08 -0.1795652
v 0.21262522 -0.21262522 0.20313117
v 0.36900458 -1.5982565E-08 0
v 0.30069748 -1.4225729E-08 0.20313117
v -0.087775655 0.08777564 0.30757987
v -0.098964185 0.09896417 0.42393684
v -0.1399565 -2.0596491E-09 0.42393684
v -0.12413353 -2.79244E-09 0.30757987
v -0.09896418 -0.098964185 0.42393684
v -0.08777565 -0.08777566 0.30757987
v 0.12413353 -9.6987645E-09 0.30757987
v 0.1399565 -9.846306E-09 0.42393684
v 0.098964185 0.09896417 0.42393684
v 0.087775655 0.08777564 0.30757987
v 1.6110463E-09 0.13995647 0.42393684
v 1.1726207E-09 0.124133505 0.30757987
v -0.098964185 0.09896417 0.42393684
v -0.087775655 0.08777564 0.30757987
v -0.08777565 -0.08777566 0.30757987
v -0.09896418 -0.098964185 0.42393684
v -1.0624339E-08 -0.13995652 0.42393684
v -9.679476E-09 -0.12413354 0.30757987
v 0.098964185 -0.098964185 0.42393684
v 0.087775655 -0.08777566 0.30757987
v 0.1399565 -9.846306E-09 0.42393684
v 0.12413353 -9.6987645E-09 0.30757987
v 0.21603735 -1.0813725E-08 0.42393684
v 0.16196467 0.16196461 0.47401452
v 0.15276147 0.15276144 0.42393684
v 0.22905259 -1.09397496E-08 0.47401452
v 0.15276147 -0.15276147 0.42393684
v 0.14856216 0.14856212 0.527038
v 0.16196467 -0.16196464 0.47401452
v 0.2100986 -1.0698735E-08 0.527038
v 0.14856216 -0.14856213 0.527038
v -0.15276147 0.15276144 0.42393684
v -0.22905259 1.8038798E-09 0.47401452
v -0.21603735 1.2057851E-09 0.42393684
v -0.16196464 0.16196461 0.47401452
v -0.2100986 9.903637E-10 0.527038
v 1.7380906E-09 0.21603733 0.42393684
v -0.14856213 0.14856212 0.527038
v -2.2465381E-10 0.22905259 0.47401452
v 0.15276147 0.15276144 0.42393684
v 2.981651E-09 0.21009858 0.527038
v 0.16196467 0.16196461 0.47401452
v 0.14856216 0.14856212 0.527038
v -1.7148494E-08 -0.21603735 0.42393684
v 0.16196467 -0.16196464 0.47401452
v 0.15276147 -0.15276147 0.42393684
v -2.0249065E-08 -0.22905259 0.47401452
v 0.14856216 -0.14856213 0.527038
v -0.15276146 -0.15276147 0.42393684
v -1.5385753E-08 -0.2100986 0.527038
v -0.16196461 -0.16196464 0.47401452
v -0.21603735 1.2057851E-09 0.42393684
v -0.14856212 -0.14856213 0.527038
v -0.22905259 1.8038798E-09 0.47401452
v -0.2100986 9.903637E-10 0.527038
v 0.098964185 0.09896417 0.42393684
v 0.1399565 -9.846306E-09 0.42393684
v 0.098964185 -0.098964185 0.42393684
v 1.6110463E-09 0.13995647 0.42393684
v -1.0624339E-08 -0.13995652 0.42393684
v -0.098964185 0.09896417 0.42393684
v -0.09896418 -0.098964185 0.42393684
v -0.1399565 -2.0596491E-09 0.42393684
v 0.10933002 -0.10933 0.62743884
v 0.091708384 -0.09170837 0.68635374
v 0.1296952 -9.5603525E-09 0.68635374
v 0.15461595 -9.597879E-09 0.62743884
v 0.091708384 0.091708355 0.68635374
v 0.09278857 -0.09278856 0.53170204
v 0.10933002 0.10932998 0.62743884
v 0.13122283 -1.0232396E-08 0.53170204
v 0.07037515 -0.07037511 0.3709134
v 0.09278857 0.09278854 0.53170204
v 0.099525474 -1.00228865E-08 0.3709134
v 0.07037515 0.070375085 0.3709134
v 0.10933002 0.10932998 0.62743884
v 0.091708384 0.091708355 0.68635374
v 9.6205E-09 0.12969519 0.68635374
v 9.926652E-09 0.15461594 0.62743884
v 0.09278857 0.09278854 0.53170204
v -0.091708355 0.091708355 0.68635374
v 9.603915E-09 0.13122281 0.53170204
v 0.07037515 0.070375085 0.3709134
v 5.2926385E-08 0.09952541 0.3709134
v -0.10932998 0.10932998 0.62743884
v -0.12969524 -2.344597E-09 0.68635374
v -0.154616 -9.95626E-10 0.62743884
v -0.09278855 0.09278854 0.53170204
v -0.070375055 0.070375085 0.3709134
v -0.13122283 -2.9316491E-09 0.53170204
v -0.09952537 -4.4856647E-09 0.3709134
v -0.154616 -9.95626E-10 0.62743884
v -0.12969524 -2.344597E-09 0.68635374
v -0.09170835 -0.09170837 0.68635374
v -0.10932997 -0.10933 0.62743884
v -0.13122283 -2.9316491E-09 0.53170204
v -1.7178186E-09 -0.12969524 0.68635374
v -0.09278854 -0.09278856 0.53170204
v -0.09952537 -4.4856647E-09 0.3709134
v -0.07037505 -0.07037511 0.3709134
v -3.590308E-09 -0.15461598 0.62743884
v 0.091708384 -0.09170837 0.68635374
v 0.10933002 -0.10933 0.62743884
v -1.8679516E-09 -0.13122284 0.53170204
v 4.4225594E-08 -0.09952543 0.3709134
v 0.09278857 -0.09278856 0.53170204
v 0.07037515 -0.07037511 0.3709134
v 0.07037515 -0.07037511 0.3709134
v 4.5243798E-08 -0.06454871 0.34391072
v 4.4225594E-08 -0.09952543 0.3709134
v 0.045642875 -0.045642838 0.34391072
v 0.099525474 -1.00228865E-08 0.3709134
v 0.064548746 -1.049696E-08 0.34391072
v 0.07037515 0.070375085 0.3709134
v 0.045642875 0.045642816 0.34391072
v 5.2926385E-08 0.09952541 0.3709134
v 5.0886825E-08 0.06454869 0.34391072
v -0.070375055 0.070375085 0.3709134
v -0.04564278 0.045642816 0.34391072
v -0.09952537 -4.4856647E-09 0.3709134
v -0.04564278 -0.045642838 0.34391072
v -0.07037505 -0.07037511 0.3709134
v -0.06454866 -6.905712E-09 0.34391072
v 0.091708384 0.091708355 0.68635374
v 0.0014728812 0.062744945 0.71139246
v 9.6205E-09 0.12969519 0.68635374
v 0.04584027 0.04436738 0.71139246
v 0.1296952 -9.5603525E-09 0.68635374
v 0.06421783 -8.38078E-09 0.71139246
v 0.091708384 -0.09170837 0.68635374
v 0.04584027 -0.044367388 0.71139246
v -1.7178186E-09 -0.12969524 0.68635374
v 0.0014728758 -0.062744975 0.71139246
v -0.09170835 -0.09170837 0.68635374
v -0.04289451 0.04436738 0.71139246
v -0.091708355 0.091708355 0.68635374
v -0.042894505 -0.044367388 0.71139246
v -0.12969524 -2.344597E-09 0.68635374
v -0.0612721 -4.8898845E-09 0.71139246
v 0.14856216 0.14856212 0.527038
v 5.8183054E-09 0.15183747 0.5402938
v 2.981651E-09 0.21009858 0.527038
v 0.10736533 0.10736531 0.5402938
v 0.2100986 -1.0698735E-08 0.527038
v 0.15183748 -9.88205E-09 0.5402938
v 0.14856216 -0.14856213 0.527038
v 0.10736533 -0.107365325 0.5402938
v -1.5385753E-08 -0.2100986 0.527038
v -7.4557525E-09 -0.15183751 0.5402938
v -0.14856212 -0.14856213 0.527038
v -0.10736531 0.10736531 0.5402938
v -0.14856213 0.14856212 0.527038
v -0.10736531 -0.107365325 0.5402938
v -0.2100986 9.903637E-10 0.527038
v -0.15183751 -1.4343795E-09 0.5402938
v 0.1399565 -9.846306E-09 0.42393684
v 0.15276147 0.15276144 0.42393684
v 0.098964185 0.09896417 0.42393684
v 0.21603735 -1.0813725E-08 0.42393684
v 1.7380906E-09 0.21603733 0.42393684
v 0.098964185 -0.098964185 0.42393684
v 1.6110463E-09 0.13995647 0.42393684
v 0.15276147 -0.15276147 0.42393684
v -0.15276147 0.15276144 0.42393684
v -1.0624339E-08 -0.13995652 0.42393684
v -0.098964185 0.09896417 0.42393684
v -1.7148494E-08 -0.21603735 0.42393684
v -0.21603735 1.2057851E-09 0.42393684
v -0.09896418 -0.098964185 0.42393684
v -0.1399565 -2.0596491E-09 0.42393684
v -0.15276146 -0.15276147 0.42393684
v -0.14006598 0.14006592 -0.29432398
v 1.9592832E-10 0.33283338 -0.1795652
v -0.23534875 0.2353487 -0.1795652
v 4.0077923E-09 0.19808318 -0.29432398
v 0.23534873 0.23534873 -0.1795652
v -0.1980832 8.762139E-10 -0.29432398
v -0.33283338 3.5771412E-09 -0.1795652
v 0.14006597 0.14006597 -0.29432398
v 0.33283338 -1.4940465E-08 -0.1795652
v -0.14006595 -0.14006598 -0.29432398
v -0.2353487 -0.23534873 -0.1795652
v 0.1980832 -1.0144394E-08 -0.29432398
v 0.23534873 -0.23534873 -0.1795652
v -1.33091875E-08 -0.19808318 -0.29432398
v -2.8901288E-08 -0.33283338 -0.1795652
v 0.14006597 -0.14006597 -0.29432398
v 7.351632E-10 0.06250138 -0.31641713
v -0.04419516 0.04419514 -0.31641713
v 0.044195153 0.044195153 -0.31641713
v -0.06250139 -4.3021626E-09 -0.31641713
v -0.044195153 -0.04419517 -0.31641713
v -4.7288813E-09 -0.06250139 -0.31641713
v 0.044195153 -0.044195153 -0.31641713
v 0.06250139 -7.779507E-09 -0.31641713
v -0.30069748 2.5039566E-09 0.20313117
v -0.21262527 0.21262519 0.20313117
v -0.087775655 0.08777564 0.30757987
v -0.12413353 -2.79244E-09 0.30757987
v 1.1726207E-09 0.124133505 0.30757987
v -0.21262519 -0.21262524 0.20313117
v 5.9363203E-10 0.30069748 0.20313117
v -0.08777565 -0.08777566 0.30757987
v 0.087775655 0.08777564 0.30757987
v -2.5694174E-08 -0.30069748 0.20313117
v 0.21262522 0.21262522 0.20313117
v -9.679476E-09 -0.12413354 0.30757987
v 0.12413353 -9.6987645E-09 0.30757987
v 0.21262522 -0.21262522 0.20313117
v 0.30069748 -1.4225729E-08 0.20313117
v 0.087775655 -0.08777566 0.30757987
vt 0.5517578 0.5517578
vt 0.6381836 0.45385742
vt 0.63623047 0.5263672
vt 0.5541992 0.46289062
vt 0.4765625 0.53808594
vt 0.6381836 0.35766602
vt 0.47851562 0.45776367
vt 0.5541992 0.3449707
vt 0.63623047 0.2939453
vt 0.47851562 0.35131836
vt 0.5517578 0.2668457
vt 0.4765625 0.28100586
vt 0.45141602 0.66308594
vt 0.45263672 0.76953125
vt 0.37719727 0.7758789
vt 0.37597656 0.65771484
vt 0.45263672 0.5878906
vt 0.2927246 0.7661133
vt 0.37719727 0.57470703
vt 0.29174805 0.6699219
vt 0.2927246 0.6015625
vt 0.45141602 0.45776367
vt 0.45361328 0.53808594
vt 0.37841797 0.5517578
vt 0.37597656 0.46289062
vt 0.29370117 0.5263672
vt 0.45141602 0.35131836
vt 0.29174805 0.45385742
vt 0.37597656 0.3449707
vt 0.45361328 0.28100586
vt 0.29174805 0.35766602
vt 0.37841797 0.2668457
vt 0.29370117 0.2939453
vt 0.98339844 0.34033203
vt 0.9345703 0.34326172
vt 0.9345703 0.29858398
vt 0.98339844 0.3005371
vt 0.9345703 0.2668457
vt 0.98339844 0.27246094
vt 0.89453125 0.42797852
vt 0.9433594 0.421875
vt 0.94384766 0.45141602
vt 0.89501953 0.45410156
vt 0.94384766 0.49609375
vt 0.89501953 0.49389648
vt 0.9433594 0.52978516
vt 0.89453125 0.5239258
vt 0.94384766 0.65478516
vt 0.8955078 0.66064453
vt 0.89453125 0.6269531
vt 0.9433594 0.6245117
vt 0.89453125 0.58203125
vt 0.9433594 0.58496094
vt 0.8955078 0.5527344
vt 0.94384766 0.55859375
vt 0.20141602 0.82666016
vt 0.22290039 0.77246094
vt 0.20202637 0.77783203
vt 0.22216797 0.82421875
vt 0.20202637 0.8959961
vt 0.24523926 0.77978516
vt 0.22290039 0.8979492
vt 0.2446289 0.82714844
vt 0.24523926 0.89453125
vt 0.82714844 0.47265625
vt 0.8491211 0.421875
vt 0.8286133 0.42700195
vt 0.84765625 0.47021484
vt 0.87158203 0.42919922
vt 0.82714844 0.5415039
vt 0.8701172 0.4736328
vt 0.84765625 0.54345703
vt 0.8286133 0.59375
vt 0.8701172 0.5410156
vt 0.8491211 0.5986328
vt 0.87158203 0.5913086
vt 0.82714844 0.67822266
vt 0.8491211 0.62158203
vt 0.8286133 0.62646484
vt 0.84765625 0.6767578
vt 0.87158203 0.62841797
vt 0.82714844 0.7475586
vt 0.8701172 0.6791992
vt 0.84765625 0.75
vt 0.8286133 0.79296875
vt 0.8701172 0.74609375
vt 0.8491211 0.79833984
vt 0.87158203 0.79052734
vt 0.040863037 0.87841797
vt 0.040863037 0.8339844
vt 0.0725708 0.8022461
vt 0.0725708 0.91015625
vt 0.117370605 0.8022461
vt 0.117370605 0.91015625
vt 0.14904785 0.8339844
vt 0.14904785 0.87841797
vt 0.82714844 0.37402344
vt 0.8310547 0.39892578
vt 0.8725586 0.3984375
vt 0.87646484 0.37353516
vt 0.90234375 0.39892578
vt 0.8305664 0.33422852
vt 0.9116211 0.37402344
vt 0.8725586 0.33374023
vt 0.83496094 0.26708984
vt 0.90185547 0.33422852
vt 0.8666992 0.2668457
vt 0.88916016 0.26708984
vt 0.4753418 0.8676758
vt 0.48486328 0.89208984
vt 0.5161133 0.89160156
vt 0.5126953 0.8666992
vt 0.48413086 0.8276367
vt 0.5576172 0.89160156
vt 0.515625 0.82666016
vt 0.4958496 0.7602539
vt 0.52001953 0.7597656
vt 0.5620117 0.8666992
vt 0.58496094 0.89208984
vt 0.59472656 0.8676758
vt 0.5576172 0.82666016
vt 0.5517578 0.7597656
vt 0.5854492 0.8276367
vt 0.5727539 0.7602539
vt 0.29174805 0.9067383
vt 0.30151367 0.9316406
vt 0.32885742 0.93066406
vt 0.3244629 0.9057617
vt 0.3010254 0.8666992
vt 0.37036133 0.93066406
vt 0.32885742 0.86572266
vt 0.3137207 0.7998047
vt 0.3347168 0.7988281
vt 0.3737793 0.9057617
vt 0.40161133 0.9316406
vt 0.4111328 0.9067383
vt 0.3708496 0.86572266
vt 0.36669922 0.7988281
vt 0.40234375 0.8666992
vt 0.390625 0.7998047
vt 0.8496094 0.8208008
vt 0.87597656 0.83447266
vt 0.88134766 0.8208008
vt 0.85498047 0.83447266
vt 0.82714844 0.84375
vt 0.84033203 0.8491211
vt 0.82714844 0.8754883
vt 0.84033203 0.8696289
vt 0.8496094 0.8979492
vt 0.85498047 0.88427734
vt 0.88134766 0.8979492
vt 0.87597656 0.88427734
vt 0.9038086 0.8754883
vt 0.890625 0.8491211
vt 0.9038086 0.84375
vt 0.890625 0.8696289
vt 0.6611328 0.8461914
vt 0.7006836 0.84277344
vt 0.6904297 0.81689453
vt 0.68652344 0.8569336
vt 0.6611328 0.8876953
vt 0.68652344 0.8774414
vt 0.6904297 0.9169922
vt 0.7006836 0.89160156
vt 0.7319336 0.9169922
vt 0.7207031 0.89160156
vt 0.76171875 0.8876953
vt 0.7207031 0.84277344
vt 0.7319336 0.81689453
vt 0.7348633 0.8774414
vt 0.76171875 0.8461914
vt 0.7348633 0.8569336
vt 0.5229492 0.57470703
vt 0.5810547 0.59716797
vt 0.59033203 0.57470703
vt 0.53222656 0.59716797
vt 0.4753418 0.6220703
vt 0.49780273 0.63134766
vt 0.4753418 0.6894531
vt 0.49780273 0.6801758
vt 0.5229492 0.7368164
vt 0.53222656 0.71435547
vt 0.59033203 0.7368164
vt 0.6152344 0.63134766
vt 0.6376953 0.6220703
vt 0.5810547 0.71435547
vt 0.6376953 0.6894531
vt 0.6152344 0.6801758
vt 0.040863037 0.8339844
vt 0.011428833 0.890625
vt 0.040863037 0.87841797
vt 0.011428833 0.82177734
vt 0.06036377 0.9399414
vt 0.0725708 0.8022461
vt 0.0725708 0.91015625
vt 0.06036377 0.77246094
vt 0.1295166 0.9399414
vt 0.117370605 0.8022461
vt 0.117370605 0.91015625
vt 0.1295166 0.77246094
vt 0.1784668 0.890625
vt 0.14904785 0.8339844
vt 0.14904785 0.87841797
vt 0.1784668 0.82177734
vt 0.17175293 0.0635376
vt 0.08685303 0.011428833
vt 0.19348145 0.011428833
vt 0.1083374 0.0635376
vt 0.011428833 0.08685303
vt 0.2166748 0.10839844
vt 0.26879883 0.08685303
vt 0.06347656 0.10839844
vt 0.011428833 0.19348145
vt 0.2166748 0.171875
vt 0.26879883 0.19348145
vt 0.06347656 0.171875
vt 0.08685303 0.26879883
vt 0.17175293 0.21679688
vt 0.19348145 0.26879883
vt 0.1083374 0.21679688
vt 0.13000488 0.1159668
vt 0.15014648 0.1159668
vt 0.11590576 0.13012695
vt 0.16418457 0.13012695
vt 0.16418457 0.15014648
vt 0.15014648 0.16430664
vt 0.13000488 0.16430664
vt 0.11590576 0.15014648
vt 0.52441406 0.07952881
vt 0.52441406 0.17590332
vt 0.4560547 0.14758301
vt 0.4560547 0.10784912
vt 0.42797852 0.17565918
vt 0.4560547 0.011428833
vt 0.4560547 0.24401855
vt 0.42797852 0.079711914
vt 0.3881836 0.17565918
vt 0.35986328 0.011428833
vt 0.35986328 0.24401855
vt 0.3881836 0.079711914
vt 0.35986328 0.14758301
vt 0.29174805 0.07952881
vt 0.29174805 0.17590332
vt 0.35986328 0.10784912
vn -0.7060547 0.7060547 0.059143066
vn -0 0.8071289 0.59033203
vn -0.5708008 0.5708008 0.59033203
vn -0 0.9980469 0.059143066
vn -0.6220703 0.6220703 -0.47509766
vn 0.5708008 0.5708008 0.59033203
vn -0 0.8798828 -0.47509766
vn 0.7060547 0.7060547 0.059143066
vn 0.8071289 0 0.59033203
vn 0.6220703 0.6220703 -0.47509766
vn 0.9980469 0 0.059143066
vn 0.8798828 0 -0.47509766
vn -0.8798828 0 -0.47509766
vn -0.6220703 0.6220703 -0.47509766
vn -0.7060547 0.7060547 0.059143066
vn -0.9980469 0 0.059143066
vn -0.6220703 -0.6220703 -0.47509766
vn -0.5708008 0.5708008 0.59033203
vn -0.7060547 -0.7060547 0.059143066
vn -0.8071289 0 0.59033203
vn -0.5708008 -0.5708008 0.59033203
vn -0 -0.8798828 -0.47509766
vn -0.6220703 -0.6220703 -0.47509766
vn -0.7060547 -0.7060547 0.059143066
vn -0 -0.9980469 0.059143066
vn -0.5708008 -0.5708008 0.59033203
vn 0.6220703 -0.6220703 -0.47509766
vn -0 -0.8071289 0.59033203
vn 0.7060547 -0.7060547 0.059143066
vn 0.8798828 0 -0.47509766
vn 0.5708008 -0.5708008 0.59033203
vn 0.9980469 0 0.059143066
vn 0.8071289 0 0.59033203
vn -0.61279297 0.61279297 0.49902344
vn -0.57910156 0.57910156 -0.5732422
vn -0.81933594 0 -0.5732422
vn -0.8666992 0 0.49902344
vn -0.57910156 -0.57910156 -0.5732422
vn -0.61279297 -0.61279297 0.49902344
vn 0.8666992 0 0.49902344
vn 0.81933594 0 -0.5732422
vn 0.57910156 0.57910156 -0.5732422
vn 0.61279297 0.61279297 0.49902344
vn -0 0.81933594 -0.5732422
vn -0 0.8666992 0.49902344
vn -0.57910156 0.57910156 -0.5732422
vn -0.61279297 0.61279297 0.49902344
vn -0.61279297 -0.61279297 0.49902344
vn -0.57910156 -0.57910156 -0.5732422
vn -0 -0.81933594 -0.5732422
vn -0 -0.8666992 0.49902344
vn 0.57910156 -0.57910156 -0.5732422
vn 0.61279297 -0.61279297 0.49902344
vn 0.81933594 0 -0.5732422
vn 0.8666992 0 0.49902344
vn 0.69091797 0 -0.72314453
vn 0.70654297 0.70654297 0.041625977
vn 0.4885254 0.4885254 -0.72314453
vn 0.99902344 0 0.041625977
vn 0.4885254 -0.4885254 -0.72314453
vn 0.5097656 0.5097656 0.6933594
vn 0.70654297 -0.70654297 0.041625977
vn 0.7207031 0 0.6933594
vn 0.5097656 -0.5097656 0.6933594
vn -0.4885254 0.4885254 -0.72314453
vn -0.99902344 0 0.041625977
vn -0.69091797 0 -0.72314453
vn -0.70654297 0.70654297 0.041625977
vn -0.7207031 0 0.6933594
vn -0 0.69091797 -0.72314453
vn -0.5097656 0.5097656 0.6933594
vn -0 0.99902344 0.041625977
vn 0.4885254 0.4885254 -0.72314453
vn -0 0.7207031 0.6933594
vn 0.70654297 0.70654297 0.041625977
vn 0.5097656 0.5097656 0.6933594
vn -0 -0.69091797 -0.72314453
vn 0.70654297 -0.70654297 0.041625977
vn 0.4885254 -0.4885254 -0.72314453
vn -0 -0.99902344 0.041625977
vn 0.5097656 -0.5097656 0.6933594
vn -0.4885254 -0.4885254 -0.72314453
vn -0 -0.7207031 0.6933594
vn -0.70654297 -0.70654297 0.041625977
vn -0.69091797 0 -0.72314453
vn -0.5097656 -0.5097656 0.6933594
vn -0.99902344 0 0.041625977
vn -0.7207031 0 0.6933594
vn -0 0 1
vn -0 0 1
vn -0 0 1
vn -0 0 1
vn -0 0 1
vn -0 0 1
vn -0 0 1
vn -0 0 1
vn 0.7050781 -0.7050781 0.074645996
vn 0.5214844 -0.52197266 0.6748047
vn 0.73876953 0 0.6743164
vn 0.9970703 0 0.074645996
vn 0.5214844 0.52197266 0.6748047
vn 0.6904297 -0.6904297 -0.21655273
vn 0.7050781 0.7050781 0.074645996
vn 0.9760742 0 -0.21655273
vn 0.61621094 -0.61621094 -0.4909668
vn 0.6904297 0.6904297 -0.21655273
vn 0.87109375 0 -0.4909668
vn 0.61621094 0.61621094 -0.4909668
vn 0.7050781 0.7050781 0.074645996
vn 0.5214844 0.52197266 0.6748047
vn -0.00061130524 0.7368164 0.67626953
vn -0 0.9970703 0.074645996
vn 0.6904297 0.6904297 -0.21655273
vn -0.52001953 0.51953125 0.6777344
vn -0 0.9760742 -0.21655273
vn 0.61621094 0.61621094 -0.4909668
vn -0 0.87109375 -0.4909668
vn -0.7050781 0.7050781 0.074645996
vn -0.7348633 0 0.67822266
vn -0.9970703 0 0.074645996
vn -0.6904297 0.6904297 -0.21655273
vn -0.61621094 0.61621094 -0.4909668
vn -0.9760742 0 -0.21655273
vn -0.87109375 0 -0.4909668
vn -0.9970703 0 0.074645996
vn -0.7348633 0 0.67822266
vn -0.52001953 -0.51953125 0.6777344
vn -0.7050781 -0.7050781 0.074645996
vn -0.9760742 0 -0.21655273
vn -0.0006108284 -0.7368164 0.67626953
vn -0.6904297 -0.6904297 -0.21655273
vn -0.87109375 0 -0.4909668
vn -0.61621094 -0.61621094 -0.4909668
vn -0 -0.9970703 0.074645996
vn 0.5214844 -0.52197266 0.6748047
vn 0.7050781 -0.7050781 0.074645996
vn -0 -0.9760742 -0.21655273
vn -0 -0.87109375 -0.4909668
vn 0.6904297 -0.6904297 -0.21655273
vn 0.61621094 -0.61621094 -0.4909668
vn 0.61621094 -0.61621094 -0.4909668
vn -0 -0.39111328 -0.92041016
vn -0 -0.87109375 -0.4909668
vn 0.2763672 -0.2763672 -0.92041016
vn 0.87109375 0 -0.4909668
vn 0.39111328 0 -0.92041016
vn 0.61621094 0.61621094 -0.4909668
vn 0.2763672 0.2763672 -0.92041016
vn -0 0.87109375 -0.4909668
vn -0 0.39111328 -0.92041016
vn -0.61621094 0.61621094 -0.4909668
vn -0.2763672 0.2763672 -0.92041016
vn -0.87109375 0 -0.4909668
vn -0.2763672 -0.2763672 -0.92041016
vn -0.61621094 -0.61621094 -0.4909668
vn -0.39111328 0 -0.92041016
vn 0.5214844 0.52197266 0.6748047
vn 0.0016746521 0.22033691 0.97558594
vn -0.00061130524 0.7368164 0.67626953
vn 0.15881348 0.15710449 0.9746094
vn 0.73876953 0 0.6743164
vn 0.22473145 0 0.9746094
vn 0.5214844 -0.52197266 0.6748047
vn 0.15881348 -0.15710449 0.9746094
vn -0.0006108284 -0.7368164 0.67626953
vn 0.0016746521 -0.22033691 0.97558594
vn -0.52001953 -0.51953125 0.6777344
vn -0.15283203 0.15441895 0.9760742
vn -0.52001953 0.51953125 0.6777344
vn -0.15283203 -0.15441895 0.9760742
vn -0.7348633 0 0.67822266
vn -0.21606445 0 0.9765625
vn 0.5097656 0.5097656 0.6933594
vn -0 0.13903809 0.9902344
vn -0 0.7207031 0.6933594
vn 0.0982666 0.0982666 0.9902344
vn 0.7207031 0 0.6933594
vn 0.13903809 0 0.9902344
vn 0.5097656 -0.5097656 0.6933594
vn 0.0982666 -0.0982666 0.9902344
vn -0 -0.7207031 0.6933594
vn -0 -0.13903809 0.9902344
vn -0.5097656 -0.5097656 0.6933594
vn -0.0982666 0.0982666 0.9902344
vn -0.5097656 0.5097656 0.6933594
vn -0.0982666 -0.0982666 0.9902344
vn -0.7207031 0 0.6933594
vn -0.13903809 0 0.9902344
vn 0.81933594 0 -0.5732422
vn 0.4885254 0.4885254 -0.72314453
vn 0.57910156 0.57910156 -0.5732422
vn 0.69091797 0 -0.72314453
vn -0 0.69091797 -0.72314453
vn 0.57910156 -0.57910156 -0.5732422
vn -0 0.81933594 -0.5732422
vn 0.4885254 -0.4885254 -0.72314453
vn -0.4885254 0.4885254 -0.72314453
vn -0 -0.81933594 -0.5732422
vn -0.57910156 0.57910156 -0.5732422
vn -0 -0.69091797 -0.72314453
vn -0.69091797 0 -0.72314453
vn -0.57910156 -0.57910156 -0.5732422
vn -0.81933594 0 -0.5732422
vn -0.4885254 -0.4885254 -0.72314453
vn -0.33374023 0.33374023 -0.88183594
vn -0 0.8798828 -0.47509766
vn -0.6220703 0.6220703 -0.47509766
vn -0 0.47192383 -0.88183594
vn 0.6220703 0.6220703 -0.47509766
vn -0.47192383 0 -0.88183594
vn -0.8798828 0 -0.47509766
vn 0.33374023 0.33374023 -0.88183594
vn 0.8798828 0 -0.47509766
vn -0.33374023 -0.33374023 -0.88183594
vn -0.6220703 -0.6220703 -0.47509766
vn 0.47192383 0 -0.88183594
vn 0.6220703 -0.6220703 -0.47509766
vn -0 -0.47192383 -0.88183594
vn -0 -0.8798828 -0.47509766
vn 0.33374023 -0.33374023 -0.88183594
vn -0 0.10064697 -0.9951172
vn -0.07116699 0.07116699 -0.9951172
vn 0.07116699 0.07116699 -0.9951172
vn -0.10064697 0 -0.9951172
vn -0.07116699 -0.07116699 -0.9951172
vn -0 -0.10064697 -0.9951172
vn 0.07116699 -0.07116699 -0.9951172
vn 0.10064697 0 -0.9951172
vn -0.8071289 0 0.59033203
vn -0.5708008 0.5708008 0.59033203
vn -0.61279297 0.61279297 0.49902344
vn -0.8666992 0 0.49902344
vn -0 0.8666992 0.49902344
vn -0.5708008 -0.5708008 0.59033203
vn -0 0.8071289 0.59033203
vn -0.61279297 -0.61279297 0.49902344
vn 0.61279297 0.61279297 0.49902344
vn -0 -0.8071289 0.59033203
vn 0.5708008 0.5708008 0.59033203
vn -0 -0.8666992 0.49902344
vn 0.8666992 0 0.49902344
vn 0.5708008 -0.5708008 0.59033203
vn 0.8071289 0 0.59033203
vn 0.61279297 -0.61279297 0.49902344
g Outline_0
f 3/3/3 2/2/2 1/1/1
f 2/2/2 4/4/4 1/1/1
f 1/1/1 4/4/4 5/5/5
f 2/2/2 6/6/6 4/4/4
f 4/4/4 7/7/7 5/5/5
f 6/6/6 8/8/8 4/4/4
f 4/4/4 8/8/8 7/7/7
f 6/6/6 9/9/9 8/8/8
f 8/8/8 10/10/10 7/7/7
f 9/9/9 11/11/11 8/8/8
f 8/8/8 11/11/11 10/10/10
f 11/11/11 12/12/12 10/10/10
f 15/15/15 14/14/14 13/13/13
f 16/16/16 15/15/15 13/13/13
f 16/16/16 13/13/13 17/17/17
f 18/18/18 15/15/15 16/16/16
f 19/19/19 16/16/16 17/17/17
f 20/20/20 18/18/18 16/16/16
f 20/20/20 16/16/16 19/19/19
f 21/21/21 20/20/20 19/19/19
f 24/24/24 23/23/23 22/22/22
f 25/25/25 24/24/24 22/22/22
f 26/26/26 24/24/24 25/25/25
f 25/25/25 22/22/22 27/27/27
f 28/28/28 26/26/26 25/25/25
f 29/29/29 25/25/25 27/27/27
f 28/28/28 25/25/25 29/29/29
f 29/29/29 27/27/27 30/30/30
f 31/31/31 28/28/28 29/29/29
f 32/32/32 29/29/29 30/30/30
f 31/31/31 29/29/29 32/32/32
f 33/33/33 31/31/31 32/32/32
f 36/36/36 35/35/35 34/34/34
f 37/37/37 36/36/36 34/34/34
f 38/38/38 36/36/36 37/37/37
f 39/39/39 38/38/38 37/37/37
f 42/42/42 41/41/41 40/40/40
f 43/43/43 42/42/42 40/40/40
f 44/44/44 42/42/42 43/43/43
f 45/45/45 44/44/44 43/43/43
f 46/46/46 44/44/44 45/45/45
f 47/47/47 46/46/46 45/45/45
f 50/50/50 49/49/49 48/48/48
f 51/51/51 50/50/50 48/48/48
f 52/52/52 50/50/50 51/51/51
f 53/53/53 52/52/52 51/51/51
f 54/54/54 52/52/52 53/53/53
f 55/55/55 54/54/54 53/53/53
f 58/58/58 57/57/57 56/56/56
f 57/57/57 59/59/59 56/56/56
f 56/56/56 59/59/59 60/60/60
f 57/57/57 61/61/61 59/59/59
f 59/59/59 62/62/62 60/60/60
f 61/61/61 63/63/63 59/59/59
f 59/59/59 63/63/63 62/62/62
f 63/63/63 64/64/64 62/62/62
f 67/67/67 66/66/66 65/65/65
f 66/66/66 68/68/68 65/65/65
f 66/66/66 69/69/69 68/68/68
f 65/65/65 68/68/68 70/70/70
f 69/69/69 71/71/71 68/68/68
f 68/68/68 72/72/72 70/70/70
f 68/68/68 71/71/71 72/72/72
f 70/70/70 72/72/72 73/73/73
f 71/71/71 74/74/74 72/72/72
f 72/72/72 75/75/75 73/73/73
f 72/72/72 74/74/74 75/75/75
f 74/74/74 76/76/76 75/75/75
f 79/79/79 78/78/78 77/77/77
f 78/78/78 80/80/80 77/77/77
f 78/78/78 81/81/81 80/80/80
f 77/77/77 80/80/80 82/82/82
f 81/81/81 83/83/83 80/80/80
f 80/80/80 84/84/84 82/82/82
f 80/80/80 83/83/83 84/84/84
f 82/82/82 84/84/84 85/85/85
f 83/83/83 86/86/86 84/84/84
f 84/84/84 87/87/87 85/85/85
f 84/84/84 86/86/86 87/87/87
f 86/86/86 88/88/88 87/87/87
f 91/91/91 90/90/90 89/89/89
f 89/89/89 92/92/92 91/91/91
f 92/92/92 93/93/93 91/91/91
f 92/92/92 94/94/94 93/93/93
f 94/94/94 95/95/95 93/93/93
f 94/94/94 96/96/96 95/95/95
f 99/99/99 98/98/98 97/97/97
f 100/100/100 99/99/99 97/97/97
f 101/101/101 99/99/99 100/100/100
f 100/100/100 97/97/97 102/102/102
f 103/103/103 101/101/101 100/100/100
f 104/104/104 100/100/100 102/102/102
f 103/103/103 100/100/100 104/104/104
f 102/102/102 105/105/105 104/104/104
f 106/106/106 103/103/103 104/104/104
f 105/105/105 107/107/107 104/104/104
f 104/104/104 107/107/107 106/106/106
f 107/107/107 108/108/108 106/106/106
f 111/111/111 110/110/110 109/109/109
f 112/112/112 111/111/111 109/109/109
f 112/112/112 109/109/109 113/113/113
f 114/114/114 111/111/111 112/112/112
f 115/115/115 112/112/112 113/113/113
f 113/113/113 116/116/116 115/115/115
f 116/116/116 117/117/117 115/115/115
f 118/118/118 114/114/114 112/112/112
f 118/118/118 112/112/112 115/115/115
f 119/119/119 114/114/114 118/118/118
f 120/120/120 119/119/119 118/118/118
f 115/115/115 117/117/117 121/121/121
f 121/121/121 118/118/118 115/115/115
f 120/120/120 118/118/118 121/121/121
f 117/117/117 122/122/122 121/121/121
f 123/123/123 120/120/120 121/121/121
f 121/121/121 122/122/122 123/123/123
f 122/122/122 124/124/124 123/123/123
f 127/127/127 126/126/126 125/125/125
f 128/128/128 127/127/127 125/125/125
f 128/128/128 125/125/125 129/129/129
f 130/130/130 127/127/127 128/128/128
f 131/131/131 128/128/128 129/129/129
f 129/129/129 132/132/132 131/131/131
f 132/132/132 133/133/133 131/131/131
f 134/134/134 130/130/130 128/128/128
f 134/134/134 128/128/128 131/131/131
f 135/135/135 130/130/130 134/134/134
f 136/136/136 135/135/135 134/134/134
f 131/131/131 133/133/133 137/137/137
f 137/137/137 134/134/134 131/131/131
f 136/136/136 134/134/134 137/137/137
f 133/133/133 138/138/138 137/137/137
f 139/139/139 136/136/136 137/137/137
f 137/137/137 138/138/138 139/139/139
f 138/138/138 140/140/140 139/139/139
f 143/143/143 142/142/142 141/141/141
f 142/142/142 144/144/144 141/141/141
f 141/141/141 144/144/144 145/145/145
f 144/144/144 146/146/146 145/145/145
f 145/145/145 146/146/146 147/147/147
f 148/148/148 146/146/146 144/144/144
f 146/146/146 148/148/148 147/147/147
f 144/144/144 142/142/142 148/148/148
f 147/147/147 148/148/148 149/149/149
f 148/148/148 150/150/150 149/149/149
f 142/142/142 150/150/150 148/148/148
f 149/149/149 150/150/150 151/151/151
f 150/150/150 152/152/152 151/151/151
f 142/142/142 152/152/152 150/150/150
f 151/151/151 152/152/152 153/153/153
f 154/154/154 142/142/142 143/143/143
f 142/142/142 154/154/154 152/152/152
f 155/155/155 154/154/154 143/143/143
f 153/153/153 156/156/156 155/155/155
f 152/152/152 156/156/156 153/153/153
f 154/154/154 156/156/156 152/152/152
f 156/156/156 154/154/154 155/155/155
f 159/159/159 158/158/158 157/157/157
f 158/158/158 160/160/160 157/157/157
f 157/157/157 160/160/160 161/161/161
f 160/160/160 162/162/162 161/161/161
f 161/161/161 162/162/162 163/163/163
f 164/164/164 162/162/162 160/160/160
f 162/162/162 164/164/164 163/163/163
f 160/160/160 158/158/158 164/164/164
f 163/163/163 164/164/164 165/165/165
f 164/164/164 166/166/166 165/165/165
f 158/158/158 166/166/166 164/164/164
f 165/165/165 166/166/166 167/167/167
f 168/168/168 158/158/158 159/159/159
f 158/158/158 168/168/168 166/166/166
f 169/169/169 168/168/168 159/159/159
f 166/166/166 170/170/170 167/167/167
f 168/168/168 170/170/170 166/166/166
f 167/167/167 170/170/170 171/171/171
f 172/172/172 168/168/168 169/169/169
f 171/171/171 172/172/172 169/169/169
f 168/168/168 172/172/172 170/170/170
f 170/170/170 172/172/172 171/171/171
f 175/175/175 174/174/174 173/173/173
f 174/174/174 176/176/176 173/173/173
f 173/173/173 176/176/176 177/177/177
f 176/176/176 178/178/178 177/177/177
f 177/177/177 178/178/178 179/179/179
f 180/180/180 178/178/178 176/176/176
f 178/178/178 180/180/180 179/179/179
f 176/176/176 174/174/174 180/180/180
f 179/179/179 180/180/180 181/181/181
f 180/180/180 182/182/182 181/181/181
f 174/174/174 182/182/182 180/180/180
f 181/181/181 182/182/182 183/183/183
f 184/184/184 174/174/174 175/175/175
f 174/174/174 184/184/184 182/182/182
f 185/185/185 184/184/184 175/175/175
f 182/182/182 186/186/186 183/183/183
f 184/184/184 186/186/186 182/182/182
f 183/183/183 186/186/186 187/187/187
f 188/188/188 184/184/184 185/185/185
f 187/187/187 188/188/188 185/185/185
f 186/186/186 188/188/188 187/187/187
f 184/184/184 188/188/188 186/186/186
f 191/191/191 190/190/190 189/189/189
f 190/190/190 192/192/192 189/189/189
f 193/193/193 190/190/190 191/191/191
f 189/189/189 192/192/192 194/194/194
f 195/195/195 193/193/193 191/191/191
f 192/192/192 196/196/196 194/194/194
f 197/197/197 193/193/193 195/195/195
f 194/194/194 196/196/196 198/198/198
f 199/199/199 197/197/197 195/195/195
f 196/196/196 200/200/200 198/198/198
f 201/201/201 197/197/197 199/199/199
f 198/198/198 200/200/200 202/202/202
f 203/203/203 201/201/201 199/199/199
f 200/200/200 204/204/204 202/202/202
f 204/204/204 201/201/201 203/203/203
f 202/202/202 204/204/204 203/203/203
f 207/207/207 206/206/206 205/205/205
f 206/206/206 208/208/208 205/205/205
f 206/206/206 209/209/209 208/208/208
f 207/207/207 205/205/205 210/210/210
f 211/211/211 207/207/207 210/210/210
f 209/209/209 212/212/212 208/208/208
f 209/209/209 213/213/213 212/212/212
f 211/211/211 210/210/210 214/214/214
f 215/215/215 211/211/211 214/214/214
f 213/213/213 216/216/216 212/212/212
f 213/213/213 217/217/217 216/216/216
f 215/215/215 214/214/214 218/218/218
f 219/219/219 215/215/215 218/218/218
f 217/217/217 219/219/219 220/220/220
f 217/217/217 220/220/220 216/216/216
f 219/219/219 218/218/218 220/220/220
f 208/208/208 221/221/221 205/205/205
f 205/205/205 222/222/222 210/210/210
f 221/221/221 222/222/222 205/205/205
f 212/212/212 223/223/223 208/208/208
f 223/223/223 221/221/221 208/208/208
f 210/210/210 224/224/224 214/214/214
f 222/222/222 224/224/224 210/210/210
f 224/224/224 225/225/225 214/214/214
f 214/214/214 225/225/225 218/218/218
f 225/225/225 224/224/224 222/222/222
f 226/226/226 222/222/222 221/221/221
f 226/226/226 225/225/225 222/222/222
f 225/225/225 226/226/226 218/218/218
f 218/218/218 226/226/226 220/220/220
f 226/226/226 221/221/221 223/223/223
f 226/226/226 227/227/227 220/220/220
f 227/227/227 226/226/226 223/223/223
f 220/220/220 227/227/227 216/216/216
f 228/228/228 223/223/223 212/212/212
f 216/216/216 228/228/228 212/212/212
f 223/223/223 228/228/228 227/227/227
f 227/227/227 228/228/228 216/216/216
f 231/231/231 230/230/230 229/229/229
f 232/232/232 231/231/231 229/229/229
f 231/231/231 233/233/233 230/230/230
f 232/232/232 229/229/229 234/234/234
f 233/233/233 235/235/235 230/230/230
f 236/236/236 232/232/232 234/234/234
f 233/233/233 237/237/237 235/235/235
f 236/236/236 234/234/234 238/238/238
f 237/237/237 239/239/239 235/235/235
f 240/240/240 236/236/236 238/238/238
f 237/237/237 241/241/241 239/239/239
f 240/240/240 238/238/238 242/242/242
f 241/241/241 243/243/243 239/239/239
f 244/244/244 240/240/240 242/242/242
f 244/244/244 242/242/242 243/243/243
f 241/241/241 244/244/244 243/243/243
