g planes.003
v 1.1422282 1.0339803 0.122430734
v 0.809826 1.4814485 0.1224308
v 1.1422282 1.4814485 -0.024647241
v 1.1422282 -1.134685 -0.013408492
v 0.7165027 -1.134685 0.12243038
v 1.1422282 -0.70703626 0.12243045
v -0.59191835 -1.134685 0.12243038
v -1.4739047 -1.134685 -0.025738433
v -1.4739047 -0.6512828 0.12243046
v 1.1422282 1.4814485 -0.11770252
v 1.1422282 -1.134685 -0.117702946
v 1.1422282 -1.134685 -0.013408492
v 1.1422282 -0.70703626 0.12243045
v 1.1422282 1.0339803 0.122430734
v 1.1422282 1.4814485 -0.024647241
v 0.20014587 1.4814485 0.1224308
v -1.4739047 0.018399894 0.12243056
v -1.4739047 0.018399933 -0.11770276
v 0.20014587 1.4814485 -0.11770252
v -1.4739047 -0.6512828 0.12243046
v -1.4739047 -1.134685 -0.025738433
v -1.4739047 -1.134685 -0.117702946
v -1.4739047 0.018399933 -0.11770276
v -1.4739047 0.018399894 0.12243056
v 1.1422282 -1.134685 -0.013408492
v 1.1422282 -1.134685 -0.117702946
v -1.4739047 -1.134685 -0.117702946
v -1.4739047 -1.134685 -0.025738433
v -0.59191835 -1.134685 0.12243038
v 0.7165027 -1.134685 0.12243038
v 0.809826 1.4814485 0.1224308
v 1.1422282 1.0339803 0.122430734
v 1.1422282 -0.70703626 0.12243045
v 0.7165027 -1.134685 0.12243038
v 0.20014587 1.4814485 0.1224308
v -0.59191835 -1.134685 0.12243038
v -1.4739047 0.018399894 0.12243056
v -1.4739047 -0.6512828 0.12243046
v 0.20014587 1.4814485 0.1224308
v 0.20014587 1.4814485 -0.11770252
v 1.1422282 1.4814485 -0.11770252
v 1.1422282 1.4814485 -0.024647241
v 0.809826 1.4814485 0.1224308
v 0.20014587 1.4814485 -0.11770252
v -1.4739047 0.018399933 -0.11770276
v -1.4739047 -1.134685 -0.117702946
v 1.1422282 -1.134685 -0.117702946
v 1.1422282 1.4814485 -0.11770252
vt 0.16247559 0.421875
vt 0.18933105 0.3798828
vt 0.14819336 0.37402344
vt 0.15490723 0.6542969
vt 0.20227051 0.64208984
vt 0.16247559 0.6044922
vt 0.3388672 0.6425781
vt 0.4326172 0.6538086
vt 0.42797852 0.5966797
vt 0.13867188 0.37402344
vt 0.14013672 0.65234375
vt 0.15490723 0.6542969
vt 0.16247559 0.6044922
vt 0.16247559 0.421875
vt 0.14819336 0.37402344
vt 0.2565918 0.3737793
vt 0.43017578 0.5283203
vt 0.44677734 0.50927734
vt 0.27294922 0.35546875
vt 0.42797852 0.5966797
vt 0.4326172 0.6538086
vt 0.44213867 0.65527344
vt 0.45825195 0.5288086
vt 0.43017578 0.5283203
vt 0.15490723 0.6542969
vt 0.15490723 0.66503906
vt 0.43286133 0.66503906
vt 0.4326172 0.6538086
vt 0.3388672 0.6425781
vt 0.20227051 0.64208984
vt 0.18933105 0.3798828
vt 0.16247559 0.421875
vt 0.16247559 0.6044922
vt 0.20227051 0.64208984
vt 0.2565918 0.3737793
vt 0.3388672 0.6425781
vt 0.43017578 0.5283203
vt 0.42797852 0.5966797
vt 0.2565918 0.3737793
vt 0.2524414 0.34936523
vt 0.14733887 0.36254883
vt 0.14819336 0.37402344
vt 0.18933105 0.3798828
vt 0.2614746 0.39013672
vt 0.41845703 0.52734375
vt 0.41845703 0.6357422
vt 0.1730957 0.6357422
vt 0.1730957 0.39013672
vn 0.38745117 0.2878418 0.87597656
vn 0.38745117 0.2878418 0.87597656
vn 0.38745117 0.2878418 0.87597656
vn 0.29101562 -0.28955078 0.9116211
vn 0.29101562 -0.28955078 0.9116211
vn 0.29101562 -0.28955078 0.9116211
vn -0.15856934 -0.28930664 0.94384766
vn -0.15856934 -0.28930664 0.94384766
vn -0.15856934 -0.28930664 0.94384766
vn 1 0 0
vn 1 0 0
vn 1 0 0
vn 1 0 0
vn 1 0 0
vn 1 0 0
vn -0.6582031 0.7529297 0
vn -0.6582031 0.7529297 0
vn -0.6582031 0.7529297 0
vn -0.6582031 0.7529297 0
vn -1 0 0
vn -1 0 0
vn -1 0 0
vn -1 0 0
vn -1 0 0
vn -0 -1 0
vn -0 -1 0
vn -0 -1 0
vn -0 -1 0
vn -0 -1 0
vn -0 -1 0
vn -0 0 1
vn -0 0 1
vn -0 0 1
vn -0 0 1
vn -0 0 1
vn -0 0 1
vn -0 0 1
vn -0 0 1
vn -0 1 0
vn -0 1 0
vn -0 1 0
vn -0 1 0
vn -0 1 0
vn -0 0 -1
vn -0 0 -1
vn -0 0 -1
vn -0 0 -1
vn -0 0 -1
g planes.003_0
f 3/3/3 2/2/2 1/1/1
f 6/6/6 5/5/5 4/4/4
f 9/9/9 8/8/8 7/7/7
f 12/12/12 11/11/11 10/10/10
f 10/10/10 13/13/13 12/12/12
f 10/10/10 14/14/14 13/13/13
f 10/10/10 15/15/15 14/14/14
f 18/18/18 17/17/17 16/16/16
f 19/19/19 18/18/18 16/16/16
f 22/22/22 21/21/21 20/20/20
f 20/20/20 23/23/23 22/22/22
f 20/20/20 24/24/24 23/23/23
f 27/27/27 26/26/26 25/25/25
f 25/25/25 28/28/28 27/27/27
f 25/25/25 29/29/29 28/28/28
f 25/25/25 30/30/30 29/29/29
f 33/33/33 32/32/32 31/31/31
f 31/31/31 34/34/34 33/33/33
f 31/31/31 35/35/35 34/34/34
f 35/35/35 36/36/36 34/34/34
f 35/35/35 37/37/37 36/36/36
f 37/37/37 38/38/38 36/36/36
f 41/41/41 40/40/40 39/39/39
f 39/39/39 42/42/42 41/41/41
f 39/39/39 43/43/43 42/42/42
f 46/46/46 45/45/45 44/44/44
f 47/47/47 46/46/46 44/44/44
f 44/44/44 48/48/48 47/47/47
