g PotBig
v 7.1018653E-09 0.7502244 0.91558444
v 0.5085912 0.5085912 1.3033869
v -1.9879551E-09 0.7192566 1.3033869
v 0.53048867 0.53048867 0.91558444
v 0.7192566 -2.8428383E-08 1.3033869
v 0.7502244 -3.2633377E-08 0.91558444
v 1.6515217E-09 0.6202809 0.54648465
v 0.43860486 0.43860486 0.54648453
v 0.6202809 -2.7773844E-08 0.54648453
v 0.26584312 0.26584312 0.1511895
v 0.37595892 -1.7050654E-08 0.1511895
v 8.6576335E-10 0.37595892 0.15118954
v -0.26584312 0.26584312 0.1511895
v -0.43860483 0.43860483 0.54648453
v 2.040775E-09 0.24073973 0.0034178635
v 0.1702287 0.1702287 0.0034178635
v 0.20014475 0.20014475 -0.072399236
v 1.7255586E-09 0.28304744 -0.072399236
v 0.28304744 -1.4368302E-08 -0.072399236
v 0.24073976 -1.3849805E-08 0.0034178635
v 0.28304744 -1.4368302E-08 -0.18296583
v 0.20014475 0.20014475 -0.18296583
v 6.853702E-10 0.28304744 -0.18296583
v 0.7502244 -3.2633377E-08 0.91558444
v 0.5085912 -0.5085912 1.3033869
v 0.7192566 -2.8428383E-08 1.3033869
v 0.53048867 -0.53048867 0.91558444
v 0.6202809 -2.7773844E-08 0.54648453
v -4.9871947E-08 -0.7192566 1.3033869
v 0.43860486 -0.43860486 0.54648453
v 0.37595892 -1.7050654E-08 0.1511895
v 0.26584312 -0.26584312 0.1511895
v -4.5161457E-08 -0.7502244 0.91558444
v -0.50859106 -0.5085912 1.3033869
v -0.53048867 -0.5304887 0.91558444
v -4.084491E-08 -0.6202809 0.54648453
v -0.43860483 -0.43860492 0.54648453
v -2.4822716E-08 -0.37595892 0.1511895
v -0.26584312 -0.26584312 0.1511895
v 0.1702287 -0.17022872 0.0034178635
v -1.900536E-08 -0.24073973 0.0034178635
v -2.3019233E-08 -0.28304744 -0.072399236
v -0.20014475 -0.20014475 -0.072399236
v -0.1702287 -0.17022872 0.0034178635
v -0.20014475 -0.20014475 -0.18296583
v -2.4059421E-08 -0.28304744 -0.18296583
v 0.20014475 -0.20014475 -0.072399236
v 0.24073976 -1.3849805E-08 0.0034178635
v 0.20014475 -0.20014475 -0.18296583
v 0.28304744 -1.4368302E-08 -0.072399236
v 0.28304744 -1.4368302E-08 -0.18296583
v -0.53048867 -0.5304887 0.91558444
v -0.7192566 -6.737804E-09 1.3033869
v -0.50859106 -0.5085912 1.3033869
v -0.7502244 3.082502E-11 0.91558444
v -0.43860483 -0.43860492 0.54648453
v -0.50859123 0.50859106 1.3033869
v -0.6202809 -1.2461865E-09 0.54648453
v -0.26584312 -0.26584312 0.1511895
v -0.37595892 -5.714477E-10 0.1511895
v -0.5304887 0.53048867 0.91558444
v -1.9879551E-09 0.7192566 1.3033869
v 7.1018653E-09 0.7502244 0.91558444
v -0.43860483 0.43860483 0.54648453
v 1.6515217E-09 0.6202809 0.54648465
v -0.26584312 0.26584312 0.1511895
v -0.24073976 -4.5594245E-10 0.0034178635
v -0.17022872 0.1702287 0.0034178635
v -0.20014475 0.20014475 -0.072399236
v 1.7255586E-09 0.28304744 -0.072399236
v 2.040775E-09 0.24073973 0.0034178635
v 6.853702E-10 0.28304744 -0.18296583
v -0.20014475 0.20014475 -0.18296583
v -0.28304744 1.3793994E-09 -0.072399236
v -0.1702287 -0.17022872 0.0034178635
v -0.28304744 1.3793994E-09 -0.18296583
v -0.20014475 -0.20014475 -0.072399236
v -0.20014475 -0.20014475 -0.18296583
v 0.20014475 -0.20014475 -0.18296583
v 0.28304744 -1.4368302E-08 -0.18296583
v 0.20014475 0.20014475 -0.18296583
v -2.4059421E-08 -0.28304744 -0.18296583
v 6.853702E-10 0.28304744 -0.18296583
v -0.20014475 0.20014475 -0.18296583
v -0.20014475 -0.20014475 -0.18296583
v -0.28304744 1.3793994E-09 -0.18296583
v 0.27728435 -1.4745948E-08 1.6056757
v 0.31035173 -1.62804E-08 1.7935994
v 0.2194518 0.21945184 1.7935994
v 0.1960696 0.19606963 1.6056757
v 1.0467234E-09 0.31035173 1.7935994
v 2.1971118E-09 0.27728435 1.6056757
v 0.31170636 0.3117064 1.4317447
v 3.721341E-09 0.4408194 1.4317447
v -0.1960696 -0.19606963 1.6056757
v -0.21945177 -0.21945184 1.7935994
v -2.608509E-08 -0.31035173 1.7935994
v -2.2043853E-08 -0.27728435 1.6056757
v 0.2194518 -0.2194518 1.7935994
v 0.1960696 -0.1960696 1.6056757
v -3.4816317E-08 -0.4408194 1.4317447
v 0.31170636 -0.31170633 1.4317447
v 0.31035173 -1.62804E-08 1.7935994
v 0.27728435 -1.4745948E-08 1.6056757
v 2.1971118E-09 0.27728435 1.6056757
v 1.0467234E-09 0.31035173 1.7935994
v -0.21945187 0.21945177 1.7935994
v -0.19606964 0.1960696 1.6056757
v -0.31035173 9.864144E-10 1.7935994
v -0.27728435 6.8111755E-10 1.6056757
v -0.3117064 0.31170633 1.4317447
v -0.4408194 5.566226E-09 1.4317447
v -0.21945177 -0.21945184 1.7935994
v -0.1960696 -0.19606963 1.6056757
v -0.25994453 -0.25994462 1.7935994
v -0.3026152 -0.3026153 1.9805329
v -3.196436E-08 -0.42796266 1.9805329
v -2.655857E-08 -0.36761716 1.7935994
v 0.30261526 -0.3026152 1.9805329
v 0.25994456 -0.25994453 1.7935994
v 0.42796266 -1.8726551E-08 1.9805329
v 0.36761716 -1.615299E-08 1.7935994
v 0.25994456 0.25994462 1.7935994
v 5.449318E-09 0.42796266 1.9805329
v 5.5795404E-09 0.36761716 1.7935994
v 0.30261526 0.3026153 1.9805329
v 0.36761716 -1.615299E-08 1.7935994
v 0.42796266 -1.8726551E-08 1.9805329
v 5.5795404E-09 0.36761716 1.7935994
v 5.449318E-09 0.42796266 1.9805329
v -0.3026153 0.3026152 1.9805329
v -0.25994462 0.25994453 1.7935994
v -0.42796266 5.0836926E-09 1.9805329
v -0.36761716 4.299855E-09 1.7935994
v -0.3026152 -0.3026153 1.9805329
v -0.25994453 -0.25994462 1.7935994
v -0.30058157 3.5434407E-09 1.9805329
v -0.30058154 3.5434407E-09 1.9134971
v -0.21254316 -0.21254322 1.9134971
v -0.21254316 -0.21254322 1.9805329
v -5.689877E-10 -0.30058157 1.9134971
v -2.042692E-08 -0.30058157 1.9805329
v 0.21254322 0.21254322 1.9134971
v 0.30058157 -1.3179794E-08 1.9134971
v 0.21254322 -0.21254319 1.9134971
v 2.5708681E-08 0.30058157 1.9134971
v -5.689877E-10 -0.30058157 1.9134971
v -0.21254319 0.21254319 1.9134971
v -0.21254316 -0.21254322 1.9134971
v -0.30058154 3.5434407E-09 1.9134971
v -2.042692E-08 -0.30058157 1.9805329
v -5.689877E-10 -0.30058157 1.9134971
v 0.21254322 -0.21254319 1.9134971
v 0.21254322 -0.21254319 1.9805329
v 0.30058157 -1.3179794E-08 1.9134971
v 0.30058157 -1.3179794E-08 1.9805329
v 0.21254322 0.21254322 1.9134971
v 0.21254322 0.21254322 1.9805329
v -0.21254322 0.21254319 1.9805329
v -0.30058154 3.5434407E-09 1.9134971
v -0.30058157 3.5434407E-09 1.9805329
v -0.21254319 0.21254319 1.9134971
v 5.8507506E-09 0.30058157 1.9805329
v 2.5708681E-08 0.30058157 1.9134971
v 0.21254322 0.21254322 1.9805329
v 0.21254322 0.21254322 1.9134971
v -0.4408194 5.566226E-09 1.4317447
v -0.27728435 6.8111755E-10 1.6056757
v -0.1960696 -0.19606963 1.6056757
v -0.31170633 -0.3117064 1.4317447
v -2.2043853E-08 -0.27728435 1.6056757
v -3.4816317E-08 -0.4408194 1.4317447
v -0.7192566 -6.737804E-09 1.3033869
v -0.50859123 0.50859106 1.3033869
v -0.50859106 -0.5085912 1.3033869
v -4.9871947E-08 -0.7192566 1.3033869
v -0.3117064 0.31170633 1.4317447
v 0.31170636 -0.31170633 1.4317447
v -1.9879551E-09 0.7192566 1.3033869
v 0.5085912 -0.5085912 1.3033869
v 3.721341E-09 0.4408194 1.4317447
v -0.19606964 0.1960696 1.6056757
v 2.1971118E-09 0.27728435 1.6056757
v 0.5085912 0.5085912 1.3033869
v 0.31170636 0.3117064 1.4317447
v 0.7192566 -2.8428383E-08 1.3033869
v 0.4408194 -1.895932E-08 1.4317447
v 0.1960696 0.19606963 1.6056757
v 0.27728435 -1.4745948E-08 1.6056757
v 0.1960696 -0.1960696 1.6056757
v 0.1702287 0.1702287 0.0034178635
v 0.37595892 -1.7050654E-08 0.1511895
v 0.26584312 0.26584312 0.1511895
v 0.24073976 -1.3849805E-08 0.0034178635
v 0.26584312 -0.26584312 0.1511895
v 0.1702287 -0.17022872 0.0034178635
v -1.900536E-08 -0.24073973 0.0034178635
v -0.26584312 -0.26584312 0.1511895
v -2.4822716E-08 -0.37595892 0.1511895
v -0.1702287 -0.17022872 0.0034178635
v -0.37595892 -5.714477E-10 0.1511895
v -0.24073976 -4.5594245E-10 0.0034178635
v -0.17022872 0.1702287 0.0034178635
v 2.040775E-09 0.24073973 0.0034178635
v 8.6576335E-10 0.37595892 0.15118954
v -0.26584312 0.26584312 0.1511895
v 0.30261526 0.3026153 1.9805329
v 5.8507506E-09 0.30058157 1.9805329
v 5.449318E-09 0.42796266 1.9805329
v 0.21254322 0.21254322 1.9805329
v -0.21254322 0.21254319 1.9805329
v 0.42796266 -1.8726551E-08 1.9805329
v -0.3026153 0.3026152 1.9805329
v 0.30058157 -1.3179794E-08 1.9805329
v -0.30058157 3.5434407E-09 1.9805329
v 0.30261526 -0.3026152 1.9805329
v -0.42796266 5.0836926E-09 1.9805329
v 0.21254322 -0.21254319 1.9805329
v -0.21254316 -0.21254322 1.9805329
v -3.196436E-08 -0.42796266 1.9805329
v -0.3026152 -0.3026153 1.9805329
v -2.042692E-08 -0.30058157 1.9805329
v 0.31035173 -1.62804E-08 1.7935994
v 0.25994456 0.25994462 1.7935994
v 0.2194518 0.21945184 1.7935994
v 0.36761716 -1.615299E-08 1.7935994
v 5.5795404E-09 0.36761716 1.7935994
v 0.2194518 -0.2194518 1.7935994
v 1.0467234E-09 0.31035173 1.7935994
v 0.25994456 -0.25994453 1.7935994
v -0.25994462 0.25994453 1.7935994
v -2.608509E-08 -0.31035173 1.7935994
v -0.21945187 0.21945177 1.7935994
v -2.655857E-08 -0.36761716 1.7935994
v -0.36761716 4.299855E-09 1.7935994
v -0.21945177 -0.21945184 1.7935994
v -0.31035173 9.864144E-10 1.7935994
v -0.25994453 -0.25994462 1.7935994
vt 0.25147453 0.67536575
vt 0.15388393 0.81400347
vt 0.28226864 0.76582265
vt 0.117562234 0.725621
vt 0.059911758 0.8395711
vt 0.019544065 0.7522894
vt 0.20673066 0.59139407
vt 0.09601277 0.6329448
vt 0.0149719715 0.6549941
vt 0.0815227 0.5280475
vt 0.032402992 0.54141176
vt 0.14863 0.50286317
vt 0.19441436 0.48061132
vt 0.28226858 0.55468166
vt 0.12266147 0.47035232
vt 0.07969028 0.48647875
vt 0.06962821 0.47114533
vt 0.12015113 0.45218483
vt 0.03264755 0.4812069
vt 0.048237205 0.4950364
vt 0.023012996 0.45553422
vt 0.059993625 0.44547266
vt 0.11051658 0.42651218
vt 0.73553467 0.29158765
vt 0.63144386 0.39656824
vt 0.72840786 0.38748783
vt 0.63439584 0.30105898
vt 0.7056298 0.19888929
vt 0.49431604 0.39656824
vt 0.6220089 0.20672013
vt 0.6494022 0.09867336
vt 0.59871864 0.10341972
vt 0.491364 0.30105898
vt 0.39735216 0.38748783
vt 0.3902253 0.2915876
vt 0.50375104 0.20672013
vt 0.42013013 0.19888926
vt 0.5270413 0.10341972
vt 0.47635776 0.09867334
vt 0.5858288 0.063857526
vt 0.53993124 0.063857526
vt 0.5358982 0.045966357
vt 0.4977402 0.04239297
vt 0.5074768 0.060818255
vt 0.4977402 0.0149719715
vt 0.5358982 0.01854536
vt 0.5898618 0.045966357
vt 0.6182832 0.060818255
vt 0.5898618 0.018545374
vt 0.6280198 0.04239297
vt 0.6280198 0.014971986
vt 0.36028138 0.29158762
vt 0.25619057 0.39656824
vt 0.35315454 0.38748783
vt 0.2591426 0.30105898
vt 0.33037654 0.19888929
vt 0.11906284 0.39656824
vt 0.24675566 0.20672013
vt 0.2741489 0.09867336
vt 0.22346538 0.10341972
vt 0.1161108 0.30105898
vt 0.02209884 0.38748783
vt 0.0149719715 0.2915876
vt 0.12849778 0.20672013
vt 0.044876873 0.19888929
vt 0.151788 0.10341972
vt 0.21057546 0.06385751
vt 0.16467792 0.06385751
vt 0.16064489 0.045966357
vt 0.12248689 0.042392954
vt 0.13222349 0.06081824
vt 0.12248689 0.0149719715
vt 0.16064489 0.01854536
vt 0.21460849 0.045966357
vt 0.24302989 0.060818255
vt 0.21460849 0.018545374
vt 0.2527665 0.04239297
vt 0.2527665 0.014971986
vt 0.89575833 0.22142407
vt 0.85760033 0.18326604
vt 0.8036368 0.18326604
vt 0.89575833 0.27538764
vt 0.76547873 0.22142407
vt 0.76547873 0.27538764
vt 0.85760033 0.31354564
vt 0.8036368 0.31354564
vt 0.591781 0.889519
vt 0.63918734 0.89272285
vt 0.63918734 0.85070086
vt 0.591781 0.8519743
vt 0.63367045 0.7917894
vt 0.58685195 0.7993398
vt 0.55379593 0.8711889
vt 0.54595983 0.7875118
vt 0.46519673 0.92274886
vt 0.51209784 0.9303589
vt 0.5160159 0.88851994
vt 0.4686973 0.88536775
vt 0.5160159 0.82935077
vt 0.4686973 0.83250296
vt 0.4290862 0.9009569
vt 0.4290862 0.8169138
vt 0.51209784 0.7875118
vt 0.46519673 0.79512185
vt 0.3483231 0.9227488
vt 0.3952242 0.9303589
vt 0.39914227 0.8885199
vt 0.3518237 0.88536775
vt 0.39914227 0.8293507
vt 0.3518237 0.8325029
vt 0.3122126 0.90095687
vt 0.3122126 0.8169137
vt 0.3952242 0.78751177
vt 0.3483231 0.7951218
vt 0.8723611 0.8365293
vt 0.9192601 0.850417
vt 0.924663 0.7927229
vt 0.8770022 0.7869704
vt 0.924663 0.71113086
vt 0.8770022 0.71688336
vt 0.9192601 0.65343666
vt 0.8723611 0.6673244
vt 0.9735503 0.24502718
vt 0.92886496 0.322657
vt 0.97626686 0.31506145
vt 0.92570233 0.24112636
vt 0.97626686 0.19532552
vt 0.92886496 0.18326604
vt 0.9001366 0.6096049
vt 0.94703555 0.6234926
vt 0.9524385 0.5657984
vt 0.90477765 0.56004584
vt 0.9524385 0.4842064
vt 0.90477765 0.4899589
vt 0.94703555 0.42651218
vt 0.9001366 0.44039994
vt 0.77323735 0.85258555
vt 0.7566247 0.85322994
vt 0.7544035 0.89386845
vt 0.7710161 0.893224
vt 0.7566247 0.9511318
vt 0.77323735 0.95048743
vt 0.80600053 0.15332209
vt 0.863307 0.15332209
vt 0.9038288 0.11280024
vt 0.76547873 0.1128003
vt 0.9038288 0.055493742
vt 0.76547873 0.0554938
vt 0.863307 0.0149719715
vt 0.8060005 0.0149719715
vt 0.954607 0.9600809
vt 0.9712322 0.9600809
vt 0.97502697 0.91955906
vt 0.9584017 0.91955906
vt 0.97502697 0.8622526
vt 0.9584017 0.8622526
vt 0.9712322 0.82173073
vt 0.954607 0.82173073
vt 0.9584017 0.6939584
vt 0.9712322 0.65343666
vt 0.954607 0.6534366
vt 0.97502697 0.6939584
vt 0.9584017 0.7512649
vt 0.97502697 0.7512649
vt 0.954607 0.79178673
vt 0.9712322 0.79178673
vt 0.5791894 0.63406163
vt 0.5415539 0.61847246
vt 0.5041728 0.6558535
vt 0.5197619 0.6934891
vt 0.45130795 0.65585357
vt 0.43571883 0.6934891
vt 0.6432682 0.66060394
vt 0.6432682 0.5234762
vt 0.5463042 0.7575679
vt 0.40917653 0.7575679
vt 0.5791894 0.5500185
vt 0.37629133 0.6340616
vt 0.5463043 0.42651218
vt 0.31221253 0.6606039
vt 0.519762 0.490591
vt 0.5415539 0.56560767
vt 0.5041728 0.52822655
vt 0.40917653 0.42651218
vt 0.43571883 0.490591
vt 0.31221253 0.5234762
vt 0.37629133 0.5500184
vt 0.451308 0.52822655
vt 0.4139269 0.5656076
vt 0.4139269 0.61847246
vt 0.9850199 0.123596996
vt 0.93377274 0.08119321
vt 0.9612025 0.14741446
vt 0.9674557 0.08119322
vt 0.9612025 0.0149719715
vt 0.9850199 0.03878942
vt 0.7244594 0.9612105
vt 0.6732122 0.9188067
vt 0.70064193 0.9850279
vt 0.7068952 0.9188067
vt 0.700642 0.85258543
vt 0.7244594 0.87640285
vt 0.8343003 0.91137296
vt 0.8343003 0.8654754
vt 0.8031813 0.8525855
vt 0.8031813 0.9242629
vt 0.7309065 0.6234926
vt 0.7025274 0.5536556
vt 0.6732122 0.5657984
vt 0.7430492 0.5941774
vt 0.7025274 0.49634916
vt 0.81249845 0.6234926
vt 0.6732122 0.4842064
vt 0.8003557 0.5941774
vt 0.74304914 0.45582733
vt 0.87019265 0.5657983
vt 0.73090637 0.42651215
vt 0.8408775 0.55365556
vt 0.8003556 0.45582733
vt 0.87019265 0.48420632
vt 0.8124984 0.42651215
vt 0.8408775 0.4963491
vt 0.72823006 0.6666155
vt 0.6732122 0.70299554
vt 0.6863911 0.7084545
vt 0.72277117 0.65343654
vt 0.6732122 0.7730825
vt 0.7873993 0.6666155
vt 0.6863911 0.76762366
vt 0.7928581 0.6534366
vt 0.72277117 0.8226415
vt 0.8292382 0.70845443
vt 0.7282301 0.8094626
vt 0.8424171 0.70299554
vt 0.7928581 0.8226415
vt 0.8292382 0.76762366
vt 0.7873993 0.80946255
vt 0.8424171 0.7730825
vn -0 0.99240476 -0.123015225
vn 0.6036803 0.60368025 0.5207112
vn -0 0.8537329 0.52071124
vn 0.7017361 0.7017361 -0.12301526
vn 0.8537329 0 0.52071124
vn 0.99240476 0 -0.123015255
vn -0 0.90682626 -0.42150456
vn 0.641223 0.64122295 -0.42150468
vn 0.90682626 0 -0.42150465
vn 0.56976175 0.56976175 -0.59223574
vn 0.8057648 0 -0.5922357
vn -0 0.8057648 -0.59223574
vn -0.5697617 0.5697618 -0.5922356
vn -0.641223 0.641223 -0.42150468
vn -0 0.9906399 -0.13650139
vn 0.70048815 0.70048815 -0.13650149
vn 0.68679464 0.6867946 0.23796268
vn -0 0.9712742 0.23796277
vn 0.9712743 0 0.2379626
vn 0.9906398 0 -0.13650152
vn 0.77638215 0 -0.6302624
vn 0.54898506 0.548985 -0.63026243
vn -0 0.7763822 -0.63026243
vn 0.99240476 0 -0.123015255
vn 0.6036803 -0.60368025 0.5207113
vn 0.8537329 0 0.52071124
vn 0.7017361 -0.7017361 -0.12301526
vn 0.90682626 0 -0.42150465
vn -0 -0.8537329 0.5207113
vn 0.641223 -0.641223 -0.42150462
vn 0.8057648 0 -0.5922357
vn 0.56976175 -0.56976175 -0.5922357
vn -0 -0.99240476 -0.123015225
vn -0.60368025 -0.6036803 0.52071136
vn -0.70173615 -0.70173615 -0.12301519
vn -0 -0.90682626 -0.4215046
vn -0.64122295 -0.641223 -0.4215046
vn -0 -0.8057648 -0.5922356
vn -0.5697618 -0.56976175 -0.5922357
vn 0.7004881 -0.7004883 -0.1365015
vn -0 -0.9906399 -0.13650142
vn -0 -0.9712743 0.23796271
vn -0.68679464 -0.6867946 0.23796265
vn -0.70048815 -0.70048815 -0.13650154
vn -0.548985 -0.548985 -0.6302625
vn -0 -0.77638215 -0.6302624
vn 0.6867946 -0.68679464 0.23796268
vn 0.9906398 0 -0.13650152
vn 0.54898506 -0.548985 -0.63026243
vn 0.9712743 0 0.2379626
vn 0.77638215 0 -0.6302624
vn -0.70173615 -0.70173615 -0.12301519
vn -0.8537329 0 0.52071124
vn -0.60368025 -0.6036803 0.52071136
vn -0.99240476 0 -0.123015255
vn -0.64122295 -0.641223 -0.4215046
vn -0.60368043 0.60368013 0.52071124
vn -0.90682626 0 -0.4215047
vn -0.5697618 -0.56976175 -0.5922357
vn -0.8057648 0 -0.5922356
vn -0.70173615 0.70173615 -0.12301522
vn -0 0.8537329 0.52071124
vn -0 0.99240476 -0.123015225
vn -0.641223 0.641223 -0.42150468
vn -0 0.90682626 -0.42150456
vn -0.5697617 0.5697618 -0.5922356
vn -0.9906398 0 -0.13650152
vn -0.70048815 0.70048815 -0.13650146
vn -0.68679464 0.6867946 0.23796268
vn -0 0.9712742 0.23796277
vn -0 0.9906399 -0.13650139
vn -0 0.7763822 -0.63026243
vn -0.54898506 0.548985 -0.63026243
vn -0.9712743 0 0.23796259
vn -0.70048815 -0.70048815 -0.13650154
vn -0.7763822 0 -0.6302624
vn -0.68679464 -0.6867946 0.23796265
vn -0.548985 -0.548985 -0.6302625
vn 0.54898506 -0.548985 -0.63026243
vn 0.77638215 0 -0.6302624
vn 0.54898506 0.548985 -0.63026243
vn -0 -0.77638215 -0.6302624
vn -0 0.7763822 -0.63026243
vn -0.54898506 0.548985 -0.63026243
vn -0.548985 -0.548985 -0.6302625
vn -0.7763822 0 -0.6302624
vn 0.9469446 0 0.321397
vn 0.52829254 0 -0.84906244
vn 0.37355942 0.37355882 -0.84906256
vn 0.6695908 0.66959107 0.32139692
vn -0 0.52829206 -0.84906274
vn -0 0.9469446 0.32139686
vn 0.38992 0.38992 0.834221
vn -0 0.55143017 0.834221
vn -0.66959095 -0.66959095 0.32139695
vn -0.37355882 -0.37355894 -0.84906274
vn -0 -0.52829206 -0.84906274
vn -0 -0.9469446 0.32139695
vn 0.37355843 -0.37355906 -0.84906286
vn 0.66959083 -0.66959107 0.32139683
vn -0 -0.55143017 0.8342211
vn 0.38992 -0.38992 0.834221
vn 0.52829254 0 -0.84906244
vn 0.9469446 0 0.321397
vn -0 0.9469446 0.32139686
vn -0 0.52829206 -0.84906274
vn -0.3735592 0.3735588 -0.8490626
vn -0.6695909 0.66959095 0.32139683
vn -0.52829206 0 -0.84906274
vn -0.9469446 0 0.32139695
vn -0.38992026 0.38992012 0.83422095
vn -0.5514302 0 0.834221
vn -0.37355882 -0.37355894 -0.84906274
vn -0.66959095 -0.66959095 0.32139695
vn -0.47309482 -0.4730949 -0.7432109
vn -0.60820526 -0.6082056 0.5100709
vn -0 -0.8601324 0.51007086
vn -0 -0.6690572 -0.743211
vn 0.6082057 -0.6082052 0.51007086
vn 0.4730947 -0.47309488 -0.74321103
vn 0.8601322 0 0.51007104
vn 0.6690574 0 -0.7432106
vn 0.47309527 0.4730948 -0.7432107
vn -0 0.8601324 0.5100709
vn -0 0.66905725 -0.7432109
vn 0.608205 0.60820574 0.510071
vn 0.6690574 0 -0.7432106
vn 0.8601322 0 0.51007104
vn -0 0.66905725 -0.7432109
vn -0 0.8601324 0.5100709
vn -0.60820544 0.6082053 0.510071
vn -0.4730952 0.47309467 -0.74321085
vn -0.8601322 0 0.51007104
vn -0.6690572 0 -0.7432109
vn -0.60820526 -0.6082056 0.5100709
vn -0.47309482 -0.4730949 -0.7432109
vn 0.59437734 0 0.8041863
vn 0.7763821 0 0.63026255
vn 0.548985 0.5489849 0.63026273
vn 0.4202884 0.4202881 0.8041863
vn -0 0.77638215 0.6302625
vn -0 0.59437686 0.8041865
vn -0.54898524 -0.54898494 0.6302625
vn -0.7763822 0 0.63026243
vn -0.54898506 0.5489852 0.6302624
vn -0 -0.77638215 0.6302625
vn -0 0.77638215 0.6302625
vn 0.54898506 -0.548985 0.6302627
vn 0.548985 0.5489849 0.63026273
vn 0.7763821 0 0.63026255
vn -0 0.59437686 0.8041865
vn -0 0.77638215 0.6302625
vn -0.54898506 0.5489852 0.6302624
vn -0.42028803 0.4202884 0.8041864
vn -0.7763822 0 0.63026243
vn -0.5943775 0 0.8041862
vn -0.54898524 -0.54898494 0.6302625
vn -0.4202887 -0.42028794 0.8041862
vn 0.42028838 -0.420288 0.8041864
vn 0.7763821 0 0.63026255
vn 0.59437734 0 0.8041863
vn 0.54898506 -0.548985 0.6302627
vn -0 -0.5943769 0.8041865
vn -0 -0.77638215 0.6302625
vn -0.4202887 -0.42028794 0.8041862
vn -0.54898524 -0.54898494 0.6302625
vn -0.5514302 0 0.834221
vn -0.9469446 0 0.32139695
vn -0.66959095 -0.66959095 0.32139695
vn -0.38992003 -0.3899201 0.834221
vn -0 -0.9469446 0.32139695
vn -0 -0.55143017 0.8342211
vn -0.8537329 0 0.52071124
vn -0.60368043 0.60368013 0.52071124
vn -0.60368025 -0.6036803 0.52071136
vn -0 -0.8537329 0.5207113
vn -0.38992026 0.38992012 0.83422095
vn 0.38992 -0.38992 0.834221
vn -0 0.8537329 0.52071124
vn 0.6036803 -0.60368025 0.5207113
vn -0 0.55143017 0.834221
vn -0.6695909 0.66959095 0.32139683
vn -0 0.9469446 0.32139686
vn 0.6036803 0.60368025 0.5207112
vn 0.38992 0.38992 0.834221
vn 0.8537329 0 0.52071124
vn 0.5514301 0 0.8342211
vn 0.6695908 0.66959107 0.32139692
vn 0.9469446 0 0.321397
vn 0.66959083 -0.66959107 0.32139683
vn 0.70048815 0.70048815 -0.13650149
vn 0.8057648 0 -0.5922357
vn 0.56976175 0.56976175 -0.59223574
vn 0.9906398 0 -0.13650152
vn 0.56976175 -0.56976175 -0.5922357
vn 0.7004881 -0.7004883 -0.1365015
vn -0 -0.9906399 -0.13650142
vn -0.5697618 -0.56976175 -0.5922357
vn -0 -0.8057648 -0.5922356
vn -0.70048815 -0.70048815 -0.13650154
vn -0.8057648 0 -0.5922356
vn -0.9906398 0 -0.13650152
vn -0.70048815 0.70048815 -0.13650146
vn -0 0.9906399 -0.13650139
vn -0 0.8057648 -0.59223574
vn -0.5697617 0.5697618 -0.5922356
vn 0.608205 0.60820574 0.510071
vn -0 -0.5943769 0.8041865
vn -0 0.8601324 0.5100709
vn -0.4202887 -0.42028794 0.8041862
vn 0.42028838 -0.420288 0.8041864
vn 0.8601322 0 0.51007104
vn -0.60820544 0.6082053 0.510071
vn -0.5943775 0 0.8041862
vn 0.59437734 0 0.8041863
vn 0.6082057 -0.6082052 0.51007086
vn -0.8601322 0 0.51007104
vn -0.42028803 0.4202884 0.8041864
vn 0.4202884 0.4202881 0.8041863
vn -0 -0.8601324 0.51007086
vn -0.60820526 -0.6082056 0.5100709
vn -0 0.59437686 0.8041865
vn 0.52829254 0 -0.84906244
vn 0.47309527 0.4730948 -0.7432107
vn 0.37355942 0.37355882 -0.84906256
vn 0.6690574 0 -0.7432106
vn -0 0.66905725 -0.7432109
vn 0.37355843 -0.37355906 -0.84906286
vn -0 0.52829206 -0.84906274
vn 0.4730947 -0.47309488 -0.74321103
vn -0.4730952 0.47309467 -0.74321085
vn -0 -0.52829206 -0.84906274
vn -0.3735592 0.3735588 -0.8490626
vn -0 -0.6690572 -0.743211
vn -0.6690572 0 -0.7432109
vn -0.37355882 -0.37355894 -0.84906274
vn -0.52829206 0 -0.84906274
vn -0.47309482 -0.4730949 -0.7432109
g PotBig_0
f 3/3/3 2/2/2 1/1/1
f 2/2/2 4/4/4 1/1/1
f 2/2/2 5/5/5 4/4/4
f 5/5/5 6/6/6 4/4/4
f 1/1/1 4/4/4 7/7/7
f 4/4/4 6/6/6 8/8/8
f 4/4/4 8/8/8 7/7/7
f 6/6/6 9/9/9 8/8/8
f 8/8/8 9/9/9 10/10/10
f 9/9/9 11/11/11 10/10/10
f 7/7/7 8/8/8 12/12/12
f 8/8/8 10/10/10 12/12/12
f 7/7/7 12/12/12 13/13/13
f 14/14/14 7/7/7 13/13/13
f 12/12/12 10/10/10 15/15/15
f 10/10/10 16/16/16 15/15/15
f 16/16/16 17/17/17 15/15/15
f 17/17/17 18/18/18 15/15/15
f 19/19/19 17/17/17 16/16/16
f 20/20/20 19/19/19 16/16/16
f 19/19/19 21/21/21 17/17/17
f 21/21/21 22/22/22 17/17/17
f 17/17/17 22/22/22 18/18/18
f 22/22/22 23/23/23 18/18/18
f 26/26/26 25/25/25 24/24/24
f 25/25/25 27/27/27 24/24/24
f 24/24/24 27/27/27 28/28/28
f 25/25/25 29/29/29 27/27/27
f 27/27/27 30/30/30 28/28/28
f 28/28/28 30/30/30 31/31/31
f 30/30/30 32/32/32 31/31/31
f 29/29/29 33/33/33 27/27/27
f 27/27/27 33/33/33 30/30/30
f 29/29/29 34/34/34 33/33/33
f 34/34/34 35/35/35 33/33/33
f 33/33/33 36/36/36 30/30/30
f 33/33/33 35/35/35 36/36/36
f 30/30/30 36/36/36 32/32/32
f 35/35/35 37/37/37 36/36/36
f 36/36/36 38/38/38 32/32/32
f 36/36/36 37/37/37 38/38/38
f 37/37/37 39/39/39 38/38/38
f 32/32/32 38/38/38 40/40/40
f 38/38/38 41/41/41 40/40/40
f 41/41/41 42/42/42 40/40/40
f 43/43/43 42/42/42 41/41/41
f 44/44/44 43/43/43 41/41/41
f 43/43/43 45/45/45 42/42/42
f 45/45/45 46/46/46 42/42/42
f 42/42/42 47/47/47 40/40/40
f 42/42/42 46/46/46 47/47/47
f 40/40/40 47/47/47 48/48/48
f 46/46/46 49/49/49 47/47/47
f 47/47/47 50/50/50 48/48/48
f 47/47/47 49/49/49 50/50/50
f 49/49/49 51/51/51 50/50/50
f 54/54/54 53/53/53 52/52/52
f 53/53/53 55/55/55 52/52/52
f 52/52/52 55/55/55 56/56/56
f 53/53/53 57/57/57 55/55/55
f 55/55/55 58/58/58 56/56/56
f 56/56/56 58/58/58 59/59/59
f 58/58/58 60/60/60 59/59/59
f 57/57/57 61/61/61 55/55/55
f 55/55/55 61/61/61 58/58/58
f 57/57/57 62/62/62 61/61/61
f 62/62/62 63/63/63 61/61/61
f 61/61/61 64/64/64 58/58/58
f 61/61/61 63/63/63 64/64/64
f 58/58/58 64/64/64 60/60/60
f 63/63/63 65/65/65 64/64/64
f 64/64/64 66/66/66 60/60/60
f 60/60/60 66/66/66 67/67/67
f 66/66/66 68/68/68 67/67/67
f 68/68/68 69/69/69 67/67/67
f 70/70/70 69/69/69 68/68/68
f 71/71/71 70/70/70 68/68/68
f 70/70/70 72/72/72 69/69/69
f 72/72/72 73/73/73 69/69/69
f 69/69/69 74/74/74 67/67/67
f 69/69/69 73/73/73 74/74/74
f 67/67/67 74/74/74 75/75/75
f 73/73/73 76/76/76 74/74/74
f 74/74/74 77/77/77 75/75/75
f 74/74/74 76/76/76 77/77/77
f 76/76/76 78/78/78 77/77/77
f 81/81/81 80/80/80 79/79/79
f 79/79/79 82/82/82 81/81/81
f 82/82/82 83/83/83 81/81/81
f 82/82/82 84/84/84 83/83/83
f 82/82/82 85/85/85 84/84/84
f 85/85/85 86/86/86 84/84/84
f 89/89/89 88/88/88 87/87/87
f 90/90/90 89/89/89 87/87/87
f 91/91/91 89/89/89 90/90/90
f 92/92/92 91/91/91 90/90/90
f 92/92/92 90/90/90 93/93/93
f 94/94/94 92/92/92 93/93/93
f 97/97/97 96/96/96 95/95/95
f 98/98/98 97/97/97 95/95/95
f 99/99/99 97/97/97 98/98/98
f 100/100/100 99/99/99 98/98/98
f 100/100/100 98/98/98 101/101/101
f 102/102/102 100/100/100 101/101/101
f 103/103/103 99/99/99 100/100/100
f 104/104/104 103/103/103 100/100/100
f 107/107/107 106/106/106 105/105/105
f 108/108/108 107/107/107 105/105/105
f 109/109/109 107/107/107 108/108/108
f 110/110/110 109/109/109 108/108/108
f 110/110/110 108/108/108 111/111/111
f 112/112/112 110/110/110 111/111/111
f 113/113/113 109/109/109 110/110/110
f 114/114/114 113/113/113 110/110/110
f 117/117/117 116/116/116 115/115/115
f 118/118/118 117/117/117 115/115/115
f 119/119/119 117/117/117 118/118/118
f 120/120/120 119/119/119 118/118/118
f 121/121/121 119/119/119 120/120/120
f 122/122/122 121/121/121 120/120/120
f 125/125/125 124/124/124 123/123/123
f 124/124/124 126/126/126 123/123/123
f 123/123/123 126/126/126 127/127/127
f 126/126/126 128/128/128 127/127/127
f 131/131/131 130/130/130 129/129/129
f 132/132/132 131/131/131 129/129/129
f 133/133/133 131/131/131 132/132/132
f 134/134/134 133/133/133 132/132/132
f 135/135/135 133/133/133 134/134/134
f 136/136/136 135/135/135 134/134/134
f 139/139/139 138/138/138 137/137/137
f 140/140/140 139/139/139 137/137/137
f 141/141/141 139/139/139 140/140/140
f 142/142/142 141/141/141 140/140/140
f 145/145/145 144/144/144 143/143/143
f 143/143/143 146/146/146 145/145/145
f 146/146/146 147/147/147 145/145/145
f 146/146/146 148/148/148 147/147/147
f 148/148/148 149/149/149 147/147/147
f 148/148/148 150/150/150 149/149/149
f 153/153/153 152/152/152 151/151/151
f 154/154/154 153/153/153 151/151/151
f 155/155/155 153/153/153 154/154/154
f 156/156/156 155/155/155 154/154/154
f 157/157/157 155/155/155 156/156/156
f 158/158/158 157/157/157 156/156/156
f 161/161/161 160/160/160 159/159/159
f 160/160/160 162/162/162 159/159/159
f 159/159/159 162/162/162 163/163/163
f 162/162/162 164/164/164 163/163/163
f 163/163/163 164/164/164 165/165/165
f 164/164/164 166/166/166 165/165/165
f 169/169/169 168/168/168 167/167/167
f 170/170/170 169/169/169 167/167/167
f 171/171/171 169/169/169 170/170/170
f 172/172/172 171/171/171 170/170/170
f 170/170/170 167/167/167 173/173/173
f 173/173/173 167/167/167 174/174/174
f 175/175/175 170/170/170 173/173/173
f 172/172/172 170/170/170 175/175/175
f 176/176/176 172/172/172 175/175/175
f 167/167/167 177/177/177 174/174/174
f 178/178/178 172/172/172 176/176/176
f 174/174/174 177/177/177 179/179/179
f 180/180/180 178/178/178 176/176/176
f 177/177/177 181/181/181 179/179/179
f 177/177/177 182/182/182 181/181/181
f 182/182/182 183/183/183 181/181/181
f 179/179/179 181/181/181 184/184/184
f 181/181/181 185/185/185 184/184/184
f 184/184/184 185/185/185 186/186/186
f 186/186/186 187/187/187 180/180/180
f 185/185/185 187/187/187 186/186/186
f 187/187/187 178/178/178 180/180/180
f 185/185/185 188/188/188 187/187/187
f 188/188/188 189/189/189 187/187/187
f 187/187/187 189/189/189 178/178/178
f 189/189/189 190/190/190 178/178/178
f 193/193/193 192/192/192 191/191/191
f 192/192/192 194/194/194 191/191/191
f 192/192/192 195/195/195 194/194/194
f 195/195/195 196/196/196 194/194/194
f 199/199/199 198/198/198 197/197/197
f 198/198/198 200/200/200 197/197/197
f 198/198/198 201/201/201 200/200/200
f 201/201/201 202/202/202 200/200/200
f 205/205/205 204/204/204 203/203/203
f 206/206/206 205/205/205 203/203/203
f 209/209/209 208/208/208 207/207/207
f 208/208/208 210/210/210 207/207/207
f 211/211/211 208/208/208 209/209/209
f 207/207/207 210/210/210 212/212/212
f 213/213/213 211/211/211 209/209/209
f 210/210/210 214/214/214 212/212/212
f 215/215/215 211/211/211 213/213/213
f 212/212/212 214/214/214 216/216/216
f 217/217/217 215/215/215 213/213/213
f 214/214/214 218/218/218 216/216/216
f 219/219/219 215/215/215 217/217/217
f 216/216/216 218/218/218 220/220/220
f 221/221/221 219/219/219 217/217/217
f 218/218/218 222/222/222 220/220/220
f 222/222/222 219/219/219 221/221/221
f 220/220/220 222/222/222 221/221/221
f 225/225/225 224/224/224 223/223/223
f 224/224/224 226/226/226 223/223/223
f 227/227/227 224/224/224 225/225/225
f 223/223/223 226/226/226 228/228/228
f 229/229/229 227/227/227 225/225/225
f 226/226/226 230/230/230 228/228/228
f 231/231/231 227/227/227 229/229/229
f 228/228/228 230/230/230 232/232/232
f 233/233/233 231/231/231 229/229/229
f 230/230/230 234/234/234 232/232/232
f 235/235/235 231/231/231 233/233/233
f 232/232/232 234/234/234 236/236/236
f 237/237/237 235/235/235 233/233/233
f 234/234/234 238/238/238 236/236/236
f 238/238/238 235/235/235 237/237/237
f 236/236/236 238/238/238 237/237/237
