g Render
v -0.94010043 -13.0374155 12.09327
v -0.9629811 -12.835129 11.836061
v -0.961239 -12.510363 11.882154
v -0.9366162 -12.387883 12.185458
v -0.91547763 -12.914936 12.396574
v -0.9137355 -12.59017 12.442668
v -0.6859595 12.36133 -0.86914897
v -0.6859595 12.689356 -0.8691491
v -0.6859595 12.853369 -0.5850707
v -0.6859595 12.197317 -0.5850707
v -0.6859595 12.36133 -0.30099243
v -0.6859595 12.689356 -0.30099243
v -0.6859595 12.689356 -0.30099243
v -0.6859595 12.853369 -0.5850707
v -0.041555464 12.853369 -0.5812466
v -0.045688126 12.689356 -0.29719836
v -0.6859595 12.36133 -0.30099243
v 0.4782601 12.853369 -0.56920457
v -0.045688123 12.36133 -0.29719836
v 0.46820948 12.689356 -0.2853041
v 0.92138654 12.853369 -0.5480903
v 0.4682095 12.36133 -0.28530407
v 0.9040132 12.689356 -0.2645437
v 1.3357232 12.853369 -0.51704925
v 0.9040132 12.36133 -0.26454374
v 1.3114687 12.689356 -0.23400825
v 1.7691693 12.853369 -0.47522718
v 1.3114687 12.36133 -0.23400828
v 1.7404408 12.689356 -0.19260523
v 2.2696242 12.853369 -0.4217696
v 1.7404408 12.36133 -0.19260523
v 2.2394023 12.689356 -0.13930345
v 2.899407 12.853047 -0.35413653
v 2.2394023 12.36133 -0.13930345
v 2.8564548 12.689318 -0.07315856
v 6.8850794 12.4939375 0.23130763
v 2.842036 12.361614 -0.07484412
v 6.7987795 12.335509 0.5052668
v 10.046366 11.474827 1.0305386
v 6.7356014 12.013768 0.49568614
v 9.897405 11.337269 1.2883928
v 12.444851 9.888826 2.0000806
v 9.763682 11.0390215 1.2606814
v 12.238 9.7896385 2.2345483
v 14.15479 7.839762 3.0928874
v 12.038421 9.535044 2.1802318
v 13.90685 7.788909 3.3015504
v 15.261461 5.4364824 4.26098
v 13.659904 7.590033 3.2174866
v 14.991299 5.4321804 4.4469743
v 15.85904 2.7824898 5.4598913
v 14.718251 5.2879786 4.336286
v 15.579817 2.8161335 5.628719
v 16.04245 -0.02509161 6.6482077
v 15.295819 2.717795 5.497283
v 15.761047 0.037672415 6.804647
v 15.897881 -2.8672495 7.7977834
v 15.47438 -0.025001206 6.6580377
v 15.618212 -2.7747643 7.942118
v 15.370866 -5.525385 8.852907
v 15.333511 -2.8037374 7.7817845
v 15.100299 -5.390746 8.980447
v 14.34014 -7.9168177 9.798081
v 14.825114 -5.375647 8.802553
v 14.095004 -7.7259226 9.903286
v 12.685781 -9.946062 10.612949
v 13.845488 -7.6540422 9.7028475
v 12.490339 -9.695406 10.6940365
v 10.300921 -11.51105 11.274512
v 12.289904 -9.564504 10.46978
v 10.174061 -11.214932 11.336327
v 7.090876 -12.519204 11.762961
v 10.04032 -11.039818 11.093327
v 7.0330963 -12.20034 11.813834
v 2.9671218 -12.891164 12.06299
v 6.965689 -12.003385 11.5603285
v 2.9544876 -12.566766 12.109966
v 2.3293018 -12.895271 12.095663
v 2.9289122 -12.364682 11.852851
v 2.330133 -12.570511 12.141816
v 1.8315431 -12.898218 12.130449
v 2.3133278 -12.36819 11.884164
v 1.8333355 -12.573452 12.176535
v 1.3986508 -12.90071 12.169499
v 1.8115621 -12.3711605 11.919232
v 1.4012498 -12.575938 12.215513
v 0.96811813 -12.9031925 12.214329
v 1.3751259 -12.3736725 11.958596
v 0.97105235 -12.57842 12.260309
v 0.47876072 -12.906104 12.26633
v 0.9428648 -12.376165 12.0036
v 0.4815148 -12.581331 12.312329
v -0.12921913 -12.909876 12.32669
v 0.45389697 -12.379074 12.055561
v -0.12693962 -12.585106 12.372736
v -0.91547763 -12.914936 12.396574
v -0.15239462 -12.382835 12.115755
v -0.9137355 -12.59017 12.442668
v -0.9366162 -12.387883 12.185458
v -0.6859595 12.197317 -0.5850707
v -0.6859595 12.36133 -0.30099243
v -0.045688123 12.36133 -0.29719836
v -0.041555464 12.197317 -0.5812466
v 0.4682095 12.36133 -0.28530407
v 0.4782601 12.197317 -0.56920457
v 0.9040132 12.36133 -0.26454374
v 0.92138654 12.197317 -0.5480903
v 1.3114687 12.36133 -0.23400828
v 1.3357232 12.197317 -0.51704925
v 1.7404408 12.36133 -0.19260523
v 1.7691693 12.197317 -0.47522715
v 2.2394023 12.36133 -0.13930345
v 2.2696242 12.197317 -0.42176956
v 2.842036 12.361614 -0.07484412
v 2.8705692 12.197639 -0.35750768
v 6.7356014 12.013768 0.49568614
v 6.7587233 11.850455 0.21214637
v 9.763682 11.0390215 1.2606814
v 9.778921 10.878334 0.97511566
v 12.038421 9.535044 2.1802318
v 12.045692 9.379637 1.8914474
v -0.6859595 12.36133 -0.86914897
v -0.6859595 12.197317 -0.5850707
v -0.041555464 12.197317 -0.5812466
v -0.037422802 12.36133 -0.8652948
v -0.6859595 12.689356 -0.8691491
v 0.4782601 12.197317 -0.56920457
v -0.037422806 12.689356 -0.8652949
v 0.48831072 12.36133 -0.85310507
v 0.92138654 12.197317 -0.5480903
v 0.48831072 12.689356 -0.85310507
v 0.93875986 12.36133 -0.8316368
v 1.3357232 12.197317 -0.51704925
v 0.93875986 12.689356 -0.83163685
v 1.3599776 12.36133 -0.8000902
v 1.7691693 12.197317 -0.47522715
v 1.3599776 12.689356 -0.8000902
v 1.7978978 12.36133 -0.7578491
v 2.2696242 12.197317 -0.42176956
v 1.7978978 12.689356 -0.7578491
v 2.2998462 12.36133 -0.7042357
v 2.8705692 12.197639 -0.35750768
v 2.2998462 12.689356 -0.7042357
v 2.9135213 12.361368 -0.63848567
v 6.7587233 11.850455 0.21214637
v 2.9279401 12.689072 -0.63680005
v 6.845023 12.008883 -0.06181279
v 9.778921 10.878334 0.97511566
v 6.908201 12.330625 -0.052232176
v 9.927882 11.015892 0.7172613
v 12.045692 9.379637 1.8914474
v 10.0616045 11.314139 0.74497277
v 12.252543 9.478825 1.6569797
v 13.660897 7.4420104 2.9247599
v 12.452123 9.733419 1.7112962
v 13.908837 7.4928637 2.7160969
v 14.715368 5.148079 4.0396037
v 14.155784 7.6917396 2.8001606
v 14.985531 5.152381 3.8536096
v 15.291045 2.585812 5.197019
v 15.258578 5.2965827 3.9642978
v 15.570269 2.5521684 5.028191
v 15.469115 -0.1504388 6.354989
v 15.854266 2.650507 5.159627
v 15.750519 -0.21320285 6.1985497
v 15.32848 -2.9251957 7.477115
v 16.037188 -0.15052924 6.345159
v 15.608149 -3.017681 7.3327804
v 14.820497 -5.495187 8.49712
v 15.892849 -2.9887078 7.493114
v 15.0910635 -5.6298256 8.36958
v 13.841107 -7.773057 9.397206
v 15.366248 -5.6449246 8.547474
v 14.086244 -7.963952 9.292002
v 12.284909 -9.6842575 10.164436
v 14.33576 -8.035832 9.49244
v 12.4803505 -9.934914 10.083349
v 10.033441 -11.160821 10.788512
v 12.680786 -10.065816 10.307606
v 10.160301 -11.456939 10.726698
v 10.294042 -11.632053 10.969698
v 7.0138416 -12.444157 11.205077
v 7.0812488 -12.641112 11.458583
v 2.9286048 -12.811395 11.501781
v 2.9541802 -13.013478 11.758897
v 2.2948608 -12.815392 11.534205
v 2.311666 -13.017713 11.791858
v 1.786204 -12.818403 11.5697565
v 1.8079774 -13.020695 11.82706
v 1.3438039 -12.8209505 11.60965
v 1.3699279 -13.023216 11.866567
v 0.90880877 -12.823459 11.65493
v 0.93699634 -13.025713 11.911639
v 0.42077088 -12.826363 11.706794
v 0.44838873 -13.02862 11.963562
v -0.1824086 -12.830104 11.766682
v -0.1569536 -13.032375 12.023663
v -0.9629811 -12.835129 11.836061
v -0.94010043 -13.0374155 12.09327
v -0.6859595 12.853369 -0.5850707
v -0.6859595 12.689356 -0.8691491
v -0.037422806 12.689356 -0.8652949
v -0.041555464 12.853369 -0.5812466
v 0.48831072 12.689356 -0.85310507
v 0.4782601 12.853369 -0.56920457
v 0.93875986 12.689356 -0.83163685
v 0.92138654 12.853369 -0.5480903
v 1.3599776 12.689356 -0.8000902
v 1.3357232 12.853369 -0.51704925
v 1.7978978 12.689356 -0.7578491
v 1.7691693 12.853369 -0.47522718
v 2.2998462 12.689356 -0.7042357
v 2.2696242 12.853369 -0.4217696
v 2.9279401 12.689072 -0.63680005
v 2.899407 12.853047 -0.35413653
v 6.908201 12.330625 -0.052232176
v 6.8850794 12.4939375 0.23130763
v 10.0616045 11.314139 0.74497277
v 10.046366 11.474827 1.0305386
v 12.452123 9.733419 1.7112962
v 12.444851 9.888826 2.0000806
v 12.045692 9.379637 1.8914474
v 12.038421 9.535044 2.1802318
v 13.659904 7.590033 3.2174866
v 13.660897 7.4420104 2.9247599
v 14.718251 5.2879786 4.336286
v 14.715368 5.148079 4.0396037
v 15.295819 2.717795 5.497283
v 15.291045 2.585812 5.197019
v 15.47438 -0.025001206 6.6580377
v 15.469115 -0.1504388 6.354989
v 15.333511 -2.8037374 7.7817845
v 15.32848 -2.9251957 7.477115
v 14.825114 -5.375647 8.802553
v 14.820497 -5.495187 8.49712
v 13.845488 -7.6540422 9.7028475
v 13.841107 -7.773057 9.397206
v 12.289904 -9.564504 10.46978
v 12.284909 -9.6842575 10.164436
v 12.444851 9.888826 2.0000806
v 12.452123 9.733419 1.7112962
v 14.155784 7.6917396 2.8001606
v 14.15479 7.839762 3.0928874
v 15.258578 5.2965827 3.9642978
v 15.261461 5.4364824 4.26098
v 15.854266 2.650507 5.159627
v 15.85904 2.7824898 5.4598913
v 16.037188 -0.15052924 6.345159
v 16.04245 -0.02509161 6.6482077
v 15.892849 -2.9887078 7.493114
v 15.897881 -2.8672495 7.7977834
v 15.366248 -5.6449246 8.547474
v 15.370866 -5.525385 8.852907
v 14.33576 -8.035832 9.49244
v 14.34014 -7.9168177 9.798081
v 12.680786 -10.065816 10.307606
v 12.685781 -9.946062 10.612949
v 12.284909 -9.6842575 10.164436
v 12.289904 -9.564504 10.46978
v 10.04032 -11.039818 11.093327
v 10.033441 -11.160821 10.788512
v 6.965689 -12.003385 11.5603285
v 6.956062 -12.125293 11.25595
v 10.160301 -11.456939 10.726698
v 2.9289122 -12.364682 11.852851
v 7.0138416 -12.444157 11.205077
v 2.9159706 -12.486997 11.548758
v 2.3133278 -12.36819 11.884164
v 2.9286048 -12.811395 11.501781
v 2.295692 -12.490631 11.5803585
v 1.8115621 -12.3711605 11.919232
v 2.2948608 -12.815392 11.534205
v 1.7879964 -12.493637 11.615843
v 1.3751259 -12.3736725 11.958596
v 1.786204 -12.818403 11.5697565
v 1.346403 -12.496179 11.6556635
v 0.9428648 -12.376165 12.0036
v 1.3438039 -12.8209505 11.60965
v 0.911743 -12.498686 11.700911
v 0.45389697 -12.379074 12.055561
v 0.90880877 -12.823459 11.65493
v 0.42352498 -12.50159 11.752793
v -0.15239462 -12.382835 12.115755
v 0.42077088 -12.826363 11.706794
v -0.18012908 -12.505335 11.812728
v -0.9366162 -12.387883 12.185458
v -0.1824086 -12.830104 11.766682
v -0.961239 -12.510363 11.882154
v -0.9629811 -12.835129 11.836061
v 12.685781 -9.946062 10.612949
v 12.680786 -10.065816 10.307606
v 10.294042 -11.632053 10.969698
v 10.300921 -11.51105 11.274512
v 7.0812488 -12.641112 11.458583
v 7.090876 -12.519204 11.762961
v 2.9541802 -13.013478 11.758897
v 2.9671218 -12.891164 12.06299
v 2.311666 -13.017713 11.791858
v 2.3293018 -12.895271 12.095663
v 1.8079774 -13.020695 11.82706
v 1.8315431 -12.898218 12.130449
v 1.3699279 -13.023216 11.866567
v 1.3986508 -12.90071 12.169499
v 0.93699634 -13.025713 11.911639
v 0.96811813 -12.9031925 12.214329
v 0.44838873 -13.02862 11.963562
v 0.47876072 -12.906104 12.26633
v -0.1569536 -13.032375 12.023663
v -0.12921913 -12.909876 12.32669
v -0.94010043 -13.0374155 12.09327
v -0.91547763 -12.914936 12.396574
v 1.0174823 12.751183 -2.5558977
v 1.2189326 12.60482 -2.5558977
v 1.2189274 12.60482 -0.61411965
v 1.0174823 12.751183 -0.61547184
v 0.816032 12.60482 -2.5558977
v 0.81603724 12.60482 -0.6168245
v 1.2189326 12.60482 -2.5558977
v 1.1419845 12.368002 -2.5558977
v 1.1419821 12.368002 -0.6146362
v 1.2189274 12.60482 -0.61411965
v 1.1419845 12.368002 -2.5558977
v 0.89297825 12.368002 -2.5558977
v 0.8929805 12.368002 -0.61630785
v 1.1419821 12.368002 -0.6146362
v 1.0174823 12.751183 -0.61547184
v 1.2189274 12.60482 -0.61411965
v 1.1419821 12.368002 -0.6146362
v 0.8929805 12.368002 -0.61630785
v 0.81603724 12.60482 -0.6168245
v 0.89297825 12.368002 -2.5558977
v 0.816032 12.60482 -2.5558977
v 0.81603724 12.60482 -0.6168245
v 0.8929805 12.368002 -0.61630785
v 1.1419845 12.368002 -2.5558977
v 1.2189326 12.60482 -2.5558977
v 1.0174823 12.751183 -2.5558977
v 0.89297825 12.368002 -2.5558977
v 0.816032 12.60482 -2.5558977
v 1.0174825 -12.497048 -2.5558977
v 1.2189329 -12.643411 -2.5558977
v 1.2189275 -12.643411 11.925286
v 1.0174825 -12.497048 11.923934
v 0.8160322 -12.643411 -2.5558977
v 0.8160374 -12.643411 11.922582
v 1.2189329 -12.643411 -2.5558977
v 1.1419847 -12.88023 -2.5558977
v 1.1419823 -12.88023 11.924769
v 1.2189275 -12.643411 11.925286
v 1.1419847 -12.88023 -2.5558977
v 0.8929784 -12.880229 -2.5558977
v 0.8929807 -12.880229 11.923098
v 1.1419823 -12.88023 11.924769
v 1.0174825 -12.497048 11.923934
v 1.2189275 -12.643411 11.925286
v 1.1419823 -12.88023 11.924769
v 0.8929807 -12.880229 11.923098
v 0.8160374 -12.643411 11.922582
v 0.8929784 -12.880229 -2.5558977
v 0.8160322 -12.643411 -2.5558977
v 0.8160374 -12.643411 11.922582
v 0.8929807 -12.880229 11.923098
v 1.1419847 -12.88023 -2.5558977
v 1.2189329 -12.643411 -2.5558977
v 1.0174825 -12.497048 -2.5558977
v 0.8929784 -12.880229 -2.5558977
v 0.8160322 -12.643411 -2.5558977
v 11.774248 -9.934521 -2.5558977
v 11.975698 -10.080883 -2.5558977
v 11.975695 -10.085624 10.444866
v 11.774248 -9.951579 10.38608
v 11.572798 -10.080883 -2.5558977
v 11.5728035 -10.086687 10.442379
v 11.975698 -10.080883 -2.5558977
v 11.89875 -10.317703 -2.5558977
v 11.898748 -10.303575 10.537498
v 11.975695 -10.085624 10.444866
v 11.89875 -10.317703 -2.5558977
v 11.649744 -10.317701 -2.5558977
v 11.649748 -10.304231 10.535961
v 11.898748 -10.303575 10.537498
v 11.774248 -9.951579 10.38608
v 11.975695 -10.085624 10.444866
v 11.898748 -10.303575 10.537498
v 11.649748 -10.304231 10.535961
v 11.5728035 -10.086687 10.442379
v 11.649744 -10.317701 -2.5558977
v 11.572798 -10.080883 -2.5558977
v 11.5728035 -10.086687 10.442379
v 11.649748 -10.304231 10.535961
v 11.89875 -10.317703 -2.5558977
v 11.975698 -10.080883 -2.5558977
v 11.774248 -9.934521 -2.5558977
v 11.649744 -10.317701 -2.5558977
v 11.572798 -10.080883 -2.5558977
v 15.239944 4.6080995 -2.5558977
v 15.441395 4.461737 -2.5558977
v 15.441389 4.4558983 4.5879183
v 15.239944 4.5873127 4.523467
v 15.038494 4.461737 -2.5558977
v 15.0385 4.45473 4.585479
v 15.441395 4.461737 -2.5558977
v 15.364447 4.2249184 -2.5558977
v 15.364445 4.242097 4.689763
v 15.441389 4.4558983 4.5879183
v 15.364447 4.2249184 -2.5558977
v 15.11544 4.224919 -2.5558977
v 15.115442 4.241375 4.6882553
v 15.364445 4.242097 4.689763
v 15.239944 4.5873127 4.523467
v 15.441389 4.4558983 4.5879183
v 15.364445 4.242097 4.689763
v 15.115442 4.241375 4.6882553
v 15.0385 4.45473 4.585479
v 15.11544 4.224919 -2.5558977
v 15.038494 4.461737 -2.5558977
v 15.0385 4.45473 4.585479
v 15.115442 4.241375 4.6882553
v 15.364447 4.2249184 -2.5558977
v 15.441395 4.461737 -2.5558977
v 15.239944 4.6080995 -2.5558977
v 15.11544 4.224919 -2.5558977
v 15.038494 4.461737 -2.5558977
v 11.63448 10.244082 -2.5558977
v 11.835931 10.09772 -2.5558977
v 11.835925 10.09036 1.7433777
v 11.63448 10.218165 1.6720381
v 11.43303 10.09772 -2.5558977
v 11.433035 10.089064 1.741004
v 11.835931 10.09772 -2.5558977
v 11.758983 9.860902 -2.5558977
v 11.75898 9.88227 1.8564348
v 11.835925 10.09036 1.7433777
v 11.758983 9.860902 -2.5558977
v 11.509976 9.860902 -2.5558977
v 11.509978 9.881469 1.8549681
v 11.75898 9.88227 1.8564348
v 11.63448 10.218165 1.6720381
v 11.835925 10.09036 1.7433777
v 11.75898 9.88227 1.8564348
v 11.509978 9.881469 1.8549681
v 11.433035 10.089064 1.741004
v 11.509976 9.860902 -2.5558977
v 11.43303 10.09772 -2.5558977
v 11.433035 10.089064 1.741004
v 11.509978 9.881469 1.8549681
v 11.758983 9.860902 -2.5558977
v 11.835931 10.09772 -2.5558977
v 11.63448 10.244082 -2.5558977
v 11.509976 9.860902 -2.5558977
v 11.43303 10.09772 -2.5558977
v 15.239944 -4.4073534 -2.5558977
v 15.441395 -4.5537157 -2.5558977
v 15.441389 -4.5549283 8.2214775
v 15.239944 -4.4122066 8.189007
v 15.038494 -4.5537157 -2.5558977
v 15.0385 -4.555504 8.218835
v 15.441395 -4.5537157 -2.5558977
v 15.364447 -4.7905345 -2.5558977
v 15.364445 -4.786432 8.271373
v 15.441389 -4.5549283 8.2214775
v 15.364447 -4.7905345 -2.5558977
v 15.11544 -4.790534 -2.5558977
v 15.115442 -4.786787 8.269739
v 15.364445 -4.786432 8.271373
v 15.239944 -4.4122066 8.189007
v 15.441389 -4.5549283 8.2214775
v 15.364445 -4.786432 8.271373
v 15.115442 -4.786787 8.269739
v 15.0385 -4.555504 8.218835
v 15.11544 -4.790534 -2.5558977
v 15.038494 -4.5537157 -2.5558977
v 15.0385 -4.555504 8.218835
v 15.115442 -4.786787 8.269739
v 15.364447 -4.7905345 -2.5558977
v 15.441395 -4.5537157 -2.5558977
v 15.239944 -4.4073534 -2.5558977
v 15.11544 -4.790534 -2.5558977
v 15.038494 -4.5537157 -2.5558977
vt 0.27172852 0.9375
vt 0.265625 0.94091797
vt 0.265625 0.9482422
vt 0.27172852 0.95166016
vt 0.27783203 0.94091797
vt 0.27783203 0.9477539
vt 0.4375 0.9453125
vt 0.4375 0.9379883
vt 0.43139648 0.9345703
vt 0.43139648 0.94873047
vt 0.42529297 0.9453125
vt 0.42529297 0.9379883
vt 0.38305664 0.027038574
vt 0.38305664 0.021896362
vt 0.36938477 0.02178955
vt 0.36938477 0.026931763
vt 0.38305664 0.03375244
vt 0.3581543 0.021759033
vt 0.36914062 0.03366089
vt 0.35839844 0.026901245
vt 0.3486328 0.02180481
vt 0.3581543 0.03363037
vt 0.34887695 0.026947021
vt 0.33984375 0.02192688
vt 0.34887695 0.033691406
vt 0.34033203 0.027069092
vt 0.3305664 0.022109985
vt 0.3400879 0.03378296
vt 0.3310547 0.027236938
vt 0.31982422 0.022338867
vt 0.3310547 0.033966064
vt 0.3203125 0.02748108
vt 0.30615234 0.022659302
vt 0.3203125 0.034210205
vt 0.3071289 0.027770996
vt 0.22070312 0.032928467
vt 0.30737305 0.034484863
vt 0.22253418 0.037902832
vt 0.15270996 0.05819702
vt 0.22375488 0.044433594
vt 0.15588379 0.062683105
vt 0.10095215 0.09631348
vt 0.1586914 0.068603516
vt 0.10534668 0.099853516
vt 0.06384277 0.14489746
vt 0.10961914 0.10479736
vt 0.06915283 0.1472168
vt 0.039642334 0.20117188
vt 0.074401855 0.1508789
vt 0.045410156 0.20251465
vt 0.026275635 0.26293945
vt 0.05126953 0.20483398
vt 0.03225708 0.26342773
vt 0.021759033 0.32788086
vt 0.038330078 0.26464844
vt 0.027801514 0.32763672
vt 0.024276733 0.3935547
vt 0.033935547 0.328125
vt 0.030273438 0.39257812
vt 0.03503418 0.45458984
vt 0.036376953 0.39208984
vt 0.04083252 0.45263672
vt 0.056610107 0.5097656
vt 0.04675293 0.45141602
vt 0.06188965 0.50634766
vt 0.091674805 0.5566406
vt 0.06726074 0.50390625
vt 0.09588623 0.5522461
vt 0.14245605 0.5932617
vt 0.10021973 0.54833984
vt 0.14526367 0.5878906
vt 0.21105957 0.6176758
vt 0.14807129 0.58251953
vt 0.21228027 0.6118164
vt 0.2993164 0.6279297
vt 0.21386719 0.60595703
vt 0.29956055 0.62158203
vt 0.31298828 0.62841797
vt 0.30029297 0.61621094
vt 0.31298828 0.6220703
vt 0.32373047 0.62890625
vt 0.31347656 0.61621094
vt 0.32373047 0.6225586
vt 0.3330078 0.62939453
vt 0.32421875 0.6166992
vt 0.3330078 0.6230469
vt 0.34204102 0.6298828
vt 0.3334961 0.6171875
vt 0.34204102 0.62353516
vt 0.35253906 0.6303711
vt 0.34277344 0.6176758
vt 0.35253906 0.62402344
vt 0.36572266 0.6308594
vt 0.35327148 0.61816406
vt 0.36572266 0.6245117
vt 0.38256836 0.63134766
vt 0.36621094 0.61865234
vt 0.38256836 0.625
vt 0.38305664 0.6191406
vt 0.43041992 0.8911133
vt 0.4375 0.8901367
vt 0.43603516 0.87646484
vt 0.42919922 0.8774414
vt 0.4350586 0.86572266
vt 0.42822266 0.86621094
vt 0.43432617 0.8564453
vt 0.42749023 0.8569336
vt 0.43408203 0.84765625
vt 0.4272461 0.84765625
vt 0.4338379 0.8383789
vt 0.42700195 0.8383789
vt 0.4338379 0.8276367
vt 0.4267578 0.8276367
vt 0.43359375 0.8144531
vt 0.4267578 0.8149414
vt 0.43359375 0.73046875
vt 0.42651367 0.73095703
vt 0.43481445 0.66503906
vt 0.42797852 0.66552734
vt 0.4375 0.61572266
vt 0.43041992 0.61621094
vt 0.78759766 0.5683594
vt 0.78759766 0.56103516
vt 0.7739258 0.56103516
vt 0.7734375 0.5678711
vt 0.78759766 0.5722656
vt 0.7626953 0.56103516
vt 0.7739258 0.5722656
vt 0.76220703 0.5678711
vt 0.7529297 0.5605469
vt 0.7626953 0.57177734
vt 0.7529297 0.5673828
vt 0.7441406 0.5600586
vt 0.7529297 0.57177734
vt 0.74365234 0.56689453
vt 0.7348633 0.55908203
vt 0.74365234 0.5708008
vt 0.734375 0.56591797
vt 0.7241211 0.55810547
vt 0.734375 0.5703125
vt 0.7236328 0.5649414
vt 0.7114258 0.5571289
vt 0.7236328 0.56933594
vt 0.7104492 0.56396484
vt 0.6279297 0.54248047
vt 0.7104492 0.5683594
vt 0.62646484 0.5493164
vt 0.56347656 0.51708984
vt 0.625 0.55322266
vt 0.5600586 0.5234375
vt 0.51464844 0.48217773
vt 0.5571289 0.5263672
vt 0.5097656 0.4873047
vt 0.4794922 0.43969727
vt 0.5058594 0.4897461
vt 0.4741211 0.44384766
vt 0.45629883 0.39111328
vt 0.46875 0.44482422
vt 0.45043945 0.39453125
vt 0.44335938 0.33862305
vt 0.44458008 0.3942871
vt 0.43725586 0.34106445
vt 0.4387207 0.28393555
vt 0.43115234 0.3400879
vt 0.4326172 0.28588867
vt 0.4411621 0.22924805
vt 0.42651367 0.28393555
vt 0.4350586 0.23059082
vt 0.45117188 0.17907715
vt 0.42895508 0.22814941
vt 0.4453125 0.17956543
vt 0.4716797 0.13464355
vt 0.43945312 0.17626953
vt 0.4663086 0.1340332
vt 0.50439453 0.09716797
vt 0.4609375 0.12963867
vt 0.5 0.095336914
vt 0.5522461 0.06768799
vt 0.4958496 0.089782715
vt 0.5493164 0.06500244
vt 0.5463867 0.05859375
vt 0.6166992 0.04434204
vt 0.6152344 0.03744507
vt 0.70410156 0.034698486
vt 0.7036133 0.027694702
vt 0.71777344 0.034118652
vt 0.71728516 0.02709961
vt 0.7285156 0.033477783
vt 0.72802734 0.026473999
vt 0.73828125 0.03277588
vt 0.73779297 0.025772095
vt 0.7475586 0.031982422
vt 0.7470703 0.024978638
vt 0.7578125 0.031066895
vt 0.7573242 0.02406311
vt 0.7709961 0.030014038
vt 0.7705078 0.022994995
vt 0.78759766 0.028778076
vt 0.7871094 0.021759033
vt 0.58740234 0.61621094
vt 0.5805664 0.61572266
vt 0.57958984 0.6298828
vt 0.5864258 0.6303711
vt 0.57910156 0.6411133
vt 0.5859375 0.6411133
vt 0.5786133 0.6503906
vt 0.5854492 0.6508789
vt 0.5786133 0.65966797
vt 0.5854492 0.65966797
vt 0.5786133 0.6689453
vt 0.5854492 0.6689453
vt 0.5786133 0.6796875
vt 0.5859375 0.6796875
vt 0.57910156 0.6933594
vt 0.5859375 0.6933594
vt 0.5800781 0.7792969
vt 0.58691406 0.7792969
vt 0.5805664 0.84716797
vt 0.58740234 0.84716797
vt 0.5805664 0.8984375
vt 0.58740234 0.8989258
vt 0.90771484 0.022354126
vt 0.9003906 0.021759033
vt 0.89746094 0.07104492
vt 0.9042969 0.07147217
vt 0.89501953 0.12719727
vt 0.90234375 0.1274414
vt 0.89453125 0.18835449
vt 0.9013672 0.18835449
vt 0.89501953 0.25219727
vt 0.90234375 0.25219727
vt 0.8964844 0.3161621
vt 0.9038086 0.31591797
vt 0.8984375 0.37451172
vt 0.90527344 0.37426758
vt 0.89990234 0.4255371
vt 0.9067383 0.42529297
vt 0.9003906 0.46728516
vt 0.90771484 0.46704102
vt 0.8442383 0.4716797
vt 0.8510742 0.47143555
vt 0.8442383 0.43139648
vt 0.83740234 0.43164062
vt 0.83984375 0.38134766
vt 0.8330078 0.38134766
vt 0.8383789 0.32373047
vt 0.8310547 0.32348633
vt 0.8383789 0.26098633
vt 0.83154297 0.26098633
vt 0.84033203 0.1965332
vt 0.8334961 0.19628906
vt 0.8432617 0.13439941
vt 0.8364258 0.1340332
vt 0.8466797 0.075805664
vt 0.83984375 0.07543945
vt 0.8510742 0.022109985
vt 0.84375 0.021759033
vt 0.83935547 0.7988281
vt 0.8466797 0.7988281
vt 0.84375 0.75097656
vt 0.8364258 0.75097656
vt 0.84228516 0.6850586
vt 0.83496094 0.6850586
vt 0.83251953 0.75390625
vt 0.84228516 0.5986328
vt 0.8310547 0.68652344
vt 0.8354492 0.5986328
vt 0.84228516 0.5854492
vt 0.83154297 0.5986328
vt 0.8354492 0.58496094
vt 0.84277344 0.57470703
vt 0.83154297 0.5854492
vt 0.8359375 0.57421875
vt 0.8432617 0.5654297
vt 0.83203125 0.57421875
vt 0.8364258 0.5649414
vt 0.8442383 0.55615234
vt 0.83251953 0.5649414
vt 0.83691406 0.55566406
vt 0.84472656 0.54541016
vt 0.8330078 0.55566406
vt 0.8378906 0.5449219
vt 0.8457031 0.53222656
vt 0.8339844 0.5449219
vt 0.8383789 0.53222656
vt 0.8466797 0.515625
vt 0.83447266 0.53222656
vt 0.83935547 0.5151367
vt 0.8354492 0.5151367
vt 0.89941406 0.515625
vt 0.8925781 0.5151367
vt 0.89208984 0.56640625
vt 0.8989258 0.56640625
vt 0.8911133 0.6352539
vt 0.8984375 0.6352539
vt 0.8901367 0.7236328
vt 0.89697266 0.7236328
vt 0.8901367 0.73779297
vt 0.89697266 0.7373047
vt 0.8901367 0.74853516
vt 0.89697266 0.7480469
vt 0.890625 0.7578125
vt 0.89746094 0.7573242
vt 0.890625 0.76708984
vt 0.8979492 0.76660156
vt 0.8911133 0.77783203
vt 0.8984375 0.77734375
vt 0.89208984 0.79052734
vt 0.8989258 0.79052734
vt 0.8925781 0.8076172
vt 0.89941406 0.8071289
vt 0.9472656 0.9243164
vt 0.95166016 0.92578125
vt 0.95166016 0.8881836
vt 0.9472656 0.88671875
vt 0.9428711 0.92578125
vt 0.9428711 0.8881836
vt 0.32666016 0.87353516
vt 0.32128906 0.87353516
vt 0.32128906 0.91552734
vt 0.32666016 0.91552734
vt 0.95654297 0.2397461
vt 0.9511719 0.2397461
vt 0.9511719 0.27905273
vt 0.95654297 0.27905273
vt 0.9511719 0.3791504
vt 0.95410156 0.38330078
vt 0.9589844 0.38183594
vt 0.9589844 0.37646484
vt 0.95410156 0.37475586
vt 0.9560547 0.15466309
vt 0.9511719 0.15466309
vt 0.9511719 0.19628906
vt 0.9560547 0.19628906
vt 0.9477539 0.9707031
vt 0.9448242 0.9692383
vt 0.9428711 0.9736328
vt 0.9477539 0.9760742
vt 0.9448242 0.97802734
vt 0.6357422 0.6171875
vt 0.63134766 0.61572266
vt 0.63134766 0.8955078
vt 0.6357422 0.89697266
vt 0.63964844 0.61572266
vt 0.63964844 0.8955078
vt 0.48632812 0.61572266
vt 0.48095703 0.61572266
vt 0.48095703 0.92626953
vt 0.48632812 0.92626953
vt 0.68310547 0.9086914
vt 0.68847656 0.9086914
vt 0.68847656 0.61572266
vt 0.68310547 0.61572266
vt 0.17480469 0.9589844
vt 0.17980957 0.95751953
vt 0.17980957 0.95214844
vt 0.17480469 0.9506836
vt 0.17163086 0.95458984
vt 0.53515625 0.61572266
vt 0.52978516 0.61572266
vt 0.52978516 0.92626953
vt 0.53515625 0.92626953
vt 0.9560547 0.4284668
vt 0.953125 0.42700195
vt 0.9511719 0.43139648
vt 0.9560547 0.4338379
vt 0.953125 0.43554688
vt 0.02607727 0.9248047
vt 0.030395508 0.92626953
vt 0.030395508 0.67529297
vt 0.02607727 0.6748047
vt 0.021759033 0.92626953
vt 0.021759033 0.67529297
vt 0.7324219 0.8964844
vt 0.7373047 0.8964844
vt 0.7373047 0.61572266
vt 0.7324219 0.6176758
vt 0.07928467 0.6748047
vt 0.073913574 0.6748047
vt 0.073913574 0.9399414
vt 0.07928467 0.9399414
vt 0.63916016 0.9472656
vt 0.63916016 0.94189453
vt 0.63427734 0.9404297
vt 0.63134766 0.9448242
vt 0.63427734 0.94873047
vt 0.7861328 0.61572266
vt 0.78125 0.61572266
vt 0.78125 0.89453125
vt 0.7861328 0.8964844
vt 0.12768555 0.95214844
vt 0.12463379 0.9506836
vt 0.122802734 0.9550781
vt 0.12768555 0.95751953
vt 0.12463379 0.9589844
vt 0.9472656 0.65185547
vt 0.95166016 0.6533203
vt 0.95166016 0.5151367
vt 0.9472656 0.5151367
vt 0.9428711 0.6533203
vt 0.9428711 0.5151367
vt 0.32128906 0.8300781
vt 0.32666016 0.8300781
vt 0.32666016 0.6748047
vt 0.32177734 0.6772461
vt 0.9482422 0.69677734
vt 0.9428711 0.69677734
vt 0.9428711 0.8432617
vt 0.9482422 0.8432617
vt 0.5786133 0.94677734
vt 0.58154297 0.9511719
vt 0.5864258 0.94921875
vt 0.5864258 0.94433594
vt 0.58154297 0.9423828
vt 0.37548828 0.6748047
vt 0.3701172 0.6748047
vt 0.3708496 0.828125
vt 0.37548828 0.8300781
vt 0.6879883 0.9536133
vt 0.6850586 0.95214844
vt 0.68310547 0.95654297
vt 0.6879883 0.9589844
vt 0.6850586 0.9609375
vt 0.37451172 0.9555664
vt 0.37890625 0.95654297
vt 0.37890625 0.87353516
vt 0.37451172 0.87402344
vt 0.3701172 0.95654297
vt 0.3701172 0.87402344
vt 0.8310547 0.9370117
vt 0.8364258 0.9370117
vt 0.8359375 0.84277344
vt 0.83154297 0.84521484
vt 0.95654297 0.021774292
vt 0.9511719 0.021759033
vt 0.9511719 0.11114502
vt 0.95654297 0.11114502
vt 0.9511719 0.3269043
vt 0.95410156 0.33129883
vt 0.9589844 0.32958984
vt 0.9589844 0.32421875
vt 0.95410156 0.32250977
vt 0.8901367 0.9453125
vt 0.89501953 0.9453125
vt 0.89453125 0.8535156
vt 0.8901367 0.8510742
vt 0.32617188 0.9604492
vt 0.3232422 0.9589844
vt 0.32128906 0.9633789
vt 0.32617188 0.9658203
vt 0.3232422 0.96728516
vt 0.22460938 0.8823242
vt 0.2290039 0.88378906
vt 0.2290039 0.67578125
vt 0.22460938 0.6748047
vt 0.22033691 0.88378906
vt 0.22033691 0.67578125
vt 0.122802734 0.9067383
vt 0.12817383 0.9067383
vt 0.12817383 0.6748047
vt 0.122924805 0.67578125
vt 0.27783203 0.6748047
vt 0.27246094 0.6748047
vt 0.27246094 0.89404297
vt 0.27783203 0.89404297
vt 0.77783203 0.94433594
vt 0.78125 0.94873047
vt 0.7861328 0.94677734
vt 0.7861328 0.94140625
vt 0.78125 0.9399414
vt 0.17687988 0.6748047
vt 0.17163086 0.6748047
vt 0.17175293 0.9057617
vt 0.17687988 0.9067383
vt 0.026626587 0.9711914
vt 0.023620605 0.96972656
vt 0.021759033 0.9741211
vt 0.026626587 0.9765625
vt 0.023620605 0.97802734
vn -0.99658203 -0.0065078735 0.083496094
vn -0.99658203 -0.0065078735 0.083496094
vn -0.99658203 -0.0065078735 0.083496094
vn -0.99658203 -0.0065078735 0.083496094
vn -0.99658203 -0.0065078735 0.083496094
vn -0.99658203 -0.0065078735 0.083496094
vn -1 0 0
vn -1 0 0
vn -1 0 0
vn -1 0 0
vn -1 0 0
vn -1 0 0
vn -0.005130768 0.50097656 0.86572266
vn 1.3649464E-05 1 -0.0018892288
vn 4.4107437E-05 1 -0.0027427673
vn -0.012580872 0.50097656 0.8652344
vn -0.005130768 -0.50097656 0.86572266
vn 0.00014233589 1 -0.0038890839
vn -0.012580872 -0.50097656 0.8652344
vn -0.030593872 0.50146484 0.8647461
vn 0.00026249886 1 -0.0043144226
vn -0.030593872 -0.50146484 0.8647461
vn -0.052886963 0.5019531 0.86328125
vn 0.00028324127 1 -0.003396988
vn -0.052886963 -0.5019531 0.86328125
vn -0.073913574 0.50146484 0.8618164
vn 0.00015938282 1 -0.001619339
vn -0.073913574 -0.50146484 0.8618164
vn -0.087524414 0.5004883 0.8613281
vn 0.00021660328 1 -0.00012207031
vn -0.087524414 -0.5004883 0.8613281
vn -0.092041016 0.5 0.8613281
vn 0.04510498 0.99902344 -0.0010118484
vn -0.091918945 -0.5 0.86083984
vn -0.08526611 0.5131836 0.8540039
vn 0.19567871 0.98046875 0.014907837
vn -0.13085938 -0.49145508 0.8613281
vn -0.060546875 0.5288086 0.8466797
vn 0.41259766 0.9082031 0.06854248
vn -0.26123047 -0.46313477 0.8466797
vn -0.024795532 0.52246094 0.8520508
vn 0.6142578 0.77441406 0.15039062
vn -0.4482422 -0.39697266 0.80078125
vn 0.009178162 0.5004883 0.86572266
vn 0.75878906 0.6040039 0.24365234
vn -0.62060547 -0.28198242 0.7314453
vn 0.030212402 0.46777344 0.8833008
vn 0.83740234 0.43725586 0.328125
vn -0.7451172 -0.13977051 0.65234375
vn 0.037475586 0.43432617 0.89990234
vn 0.8691406 0.29760742 0.39453125
vn -0.81396484 -0.0031719208 0.5810547
vn 0.036743164 0.40478516 0.9135742
vn 0.8769531 0.18908691 0.44213867
vn -0.8432617 0.10876465 0.5258789
vn 0.032958984 0.38232422 0.92333984
vn 0.8725586 0.08465576 0.4814453
vn -0.8520508 0.19494629 0.4855957
vn 0.036621094 0.36767578 0.9291992
vn 0.8457031 -0.052825928 0.53125
vn -0.8461914 0.2849121 0.44995117
vn 0.04437256 0.35595703 0.93359375
vn 0.76904297 -0.23022461 0.5966797
vn -0.81640625 0.41333008 0.4033203
vn 0.0501709 0.34277344 0.9379883
vn 0.61865234 -0.4140625 0.66748047
vn -0.7373047 0.5834961 0.34057617
vn 0.048950195 0.33203125 0.94189453
vn 0.41259766 -0.5498047 0.7260742
vn -0.5864258 0.7631836 0.27075195
vn 0.041778564 0.3310547 0.9428711
vn 0.20727539 -0.6142578 0.76123047
vn -0.38085938 0.9003906 0.21032715
vn 0.037322998 0.3388672 0.9399414
vn 0.07824707 -0.6225586 0.7788086
vn -0.17358398 0.96972656 0.17211914
vn 0.04046631 0.36010742 0.9321289
vn 0.05130005 -0.61816406 0.7841797
vn -0.037872314 0.98828125 0.14819336
vn 0.05380249 0.37426758 0.92578125
vn 0.06628418 -0.61816406 0.7832031
vn 0.0025138855 0.9902344 0.13769531
vn 0.071777344 0.37451172 0.9243164
vn 0.079589844 -0.6176758 0.78222656
vn 0.005214691 0.99072266 0.1373291
vn 0.087524414 0.37426758 0.92333984
vn 0.0859375 -0.6166992 0.78271484
vn 0.0077171326 0.9902344 0.1381836
vn 0.09484863 0.37353516 0.92285156
vn 0.084228516 -0.61621094 0.7832031
vn 0.008911133 0.9902344 0.13989258
vn 0.09259033 0.37304688 0.92333984
vn 0.07763672 -0.61572266 0.7841797
vn 0.008506775 0.9897461 0.14135742
vn 0.08459473 0.37280273 0.9238281
vn 0.07366943 -0.61572266 0.7841797
vn 0.0070991516 0.9897461 0.14196777
vn 0.07977295 0.37280273 0.9243164
vn 0.006252289 0.9897461 0.14196777
vn 1.3709068E-05 -1 -0.0018882751
vn -0.005130768 -0.50097656 0.86572266
vn -0.012580872 -0.50097656 0.8652344
vn 4.4047832E-05 -1 -0.00274086
vn -0.030593872 -0.50146484 0.8647461
vn 0.00014221668 -1 -0.0038890839
vn -0.052886963 -0.5019531 0.86328125
vn 0.00026273727 -1 -0.0043144226
vn -0.073913574 -0.50146484 0.8618164
vn 0.0002834797 -1 -0.0033950806
vn -0.087524414 -0.5004883 0.8613281
vn 0.00015938282 -1 -0.001619339
vn -0.091918945 -0.5 0.86083984
vn 0.00020575523 -1 5.8948994E-05
vn -0.13085938 -0.49145508 0.8613281
vn -0.04284668 -0.99902344 -0.011138916
vn -0.26123047 -0.46313477 0.8466797
vn -0.18920898 -0.98095703 -0.04534912
vn -0.4482422 -0.39697266 0.80078125
vn -0.4020996 -0.90966797 -0.10266113
vn -0.62060547 -0.28198242 0.7314453
vn -0.6010742 -0.77783203 -0.1829834
vn 0.0051498413 -0.49926758 -0.8666992
vn 1.3709068E-05 -1 -0.0018882751
vn 4.4047832E-05 -1 -0.00274086
vn 0.012619019 -0.4987793 -0.8666992
vn 0.0051498413 0.49926758 -0.8666992
vn 0.00014221668 -1 -0.0038890839
vn 0.012619019 0.4987793 -0.8666992
vn 0.030685425 -0.49829102 -0.86621094
vn 0.00026273727 -1 -0.0043144226
vn 0.030685425 0.49829102 -0.86621094
vn 0.05303955 -0.49804688 -0.8652344
vn 0.0002834797 -1 -0.0033950806
vn 0.05303955 0.49804688 -0.8652344
vn 0.07397461 -0.49853516 -0.86376953
vn 0.00015938282 -1 -0.001619339
vn 0.07397461 0.49853516 -0.86376953
vn 0.08758545 -0.49926758 -0.8618164
vn 0.00020575523 -1 5.8948994E-05
vn 0.08758545 0.49926758 -0.8618164
vn 0.09222412 -0.5 -0.8613281
vn -0.04284668 -0.99902344 -0.011138916
vn 0.092285156 0.5 -0.86083984
vn 0.08868408 -0.48657227 -0.8691406
vn -0.18920898 -0.98095703 -0.04534912
vn 0.13098145 0.50683594 -0.8520508
vn 0.0803833 -0.4658203 -0.88134766
vn -0.4020996 -0.90966797 -0.10266113
vn 0.26464844 0.5004883 -0.82421875
vn 0.06829834 -0.4555664 -0.8876953
vn -0.6010742 -0.77783203 -0.1829834
vn 0.45922852 0.43896484 -0.77246094
vn 0.053985596 -0.44555664 -0.8935547
vn -0.74609375 -0.6088867 -0.27026367
vn 0.6386719 0.3203125 -0.69970703
vn 0.03677368 -0.4338379 -0.9003906
vn -0.82714844 -0.44213867 -0.3474121
vn 0.7651367 0.16894531 -0.62109375
vn 0.020263672 -0.4182129 -0.9082031
vn -0.8618164 -0.30200195 -0.40722656
vn 0.83251953 0.022491455 -0.55371094
vn 0.007980347 -0.3996582 -0.9165039
vn -0.87109375 -0.19311523 -0.4519043
vn 0.85839844 -0.09655762 -0.50341797
vn 0.0010309219 -0.38232422 -0.9238281
vn -0.86328125 -0.09210205 -0.4963379
vn 0.86328125 -0.18774414 -0.46826172
vn 0.0059928894 -0.3725586 -0.9277344
vn -0.83154297 0.03878784 -0.5541992
vn 0.85839844 -0.27905273 -0.43041992
vn 0.016326904 -0.37280273 -0.9277344
vn -0.75097656 0.20666504 -0.6269531
vn 0.83251953 -0.40771484 -0.37524414
vn 0.023468018 -0.38208008 -0.9238281
vn -0.6020508 0.38134766 -0.70166016
vn 0.7558594 -0.5805664 -0.30273438
vn 0.0184021 -0.39697266 -0.91748047
vn -0.4020996 0.5151367 -0.75683594
vn 0.6035156 -0.76464844 -0.22680664
vn -0.00025320053 -0.40576172 -0.9140625
vn 0.3918457 -0.9042969 -0.16906738
vn -0.021377563 -0.4038086 -0.9145508
vn 0.17858887 -0.9741211 -0.13964844
vn -0.03842163 -0.3852539 -0.921875
vn 0.03918457 -0.9897461 -0.13793945
vn -0.053741455 -0.37231445 -0.9267578
vn -0.0025539398 -0.9897461 -0.14355469
vn -0.071899414 -0.37231445 -0.92529297
vn -0.0057144165 -0.9897461 -0.14367676
vn -0.08758545 -0.37280273 -0.9238281
vn -0.008125305 -0.9897461 -0.14245605
vn -0.09484863 -0.37329102 -0.92285156
vn -0.008979797 -0.9902344 -0.14050293
vn -0.09259033 -0.3737793 -0.92285156
vn -0.008285522 -0.9902344 -0.13916016
vn -0.08453369 -0.37402344 -0.92333984
vn -0.0067977905 -0.9902344 -0.13879395
vn -0.079711914 -0.37402344 -0.9238281
vn -0.005970001 -0.9902344 -0.13891602
vn 1.3649464E-05 1 -0.0018892288
vn 0.0051498413 0.49926758 -0.8666992
vn 0.012619019 0.4987793 -0.8666992
vn 4.4107437E-05 1 -0.0027427673
vn 0.030685425 0.49829102 -0.86621094
vn 0.00014233589 1 -0.0038890839
vn 0.05303955 0.49804688 -0.8652344
vn 0.00026249886 1 -0.0043144226
vn 0.07397461 0.49853516 -0.86376953
vn 0.00028324127 1 -0.003396988
vn 0.08758545 0.49926758 -0.8618164
vn 0.00015938282 1 -0.001619339
vn 0.092285156 0.5 -0.86083984
vn 0.00021660328 1 -0.00012207031
vn 0.13098145 0.50683594 -0.8520508
vn 0.04510498 0.99902344 -0.0010118484
vn 0.26464844 0.5004883 -0.82421875
vn 0.19567871 0.98046875 0.014907837
vn 0.45922852 0.43896484 -0.77246094
vn 0.41259766 0.9082031 0.06854248
vn 0.6386719 0.3203125 -0.69970703
vn 0.6142578 0.77441406 0.15039062
vn -0.6010742 -0.77783203 -0.1829834
vn -0.62060547 -0.28198242 0.7314453
vn -0.7451172 -0.13977051 0.65234375
vn -0.74609375 -0.6088867 -0.27026367
vn -0.81396484 -0.0031719208 0.5810547
vn -0.82714844 -0.44213867 -0.3474121
vn -0.8432617 0.10876465 0.5258789
vn -0.8618164 -0.30200195 -0.40722656
vn -0.8520508 0.19494629 0.4855957
vn -0.87109375 -0.19311523 -0.4519043
vn -0.8461914 0.2849121 0.44995117
vn -0.86328125 -0.09210205 -0.4963379
vn -0.81640625 0.41333008 0.4033203
vn -0.83154297 0.03878784 -0.5541992
vn -0.7373047 0.5834961 0.34057617
vn -0.75097656 0.20666504 -0.6269531
vn -0.5864258 0.7631836 0.27075195
vn -0.6020508 0.38134766 -0.70166016
vn 0.6142578 0.77441406 0.15039062
vn 0.6386719 0.3203125 -0.69970703
vn 0.7651367 0.16894531 -0.62109375
vn 0.75878906 0.6040039 0.24365234
vn 0.83251953 0.022491455 -0.55371094
vn 0.83740234 0.43725586 0.328125
vn 0.85839844 -0.09655762 -0.50341797
vn 0.8691406 0.29760742 0.39453125
vn 0.86328125 -0.18774414 -0.46826172
vn 0.8769531 0.18908691 0.44213867
vn 0.85839844 -0.27905273 -0.43041992
vn 0.8725586 0.08465576 0.4814453
vn 0.83251953 -0.40771484 -0.37524414
vn 0.8457031 -0.052825928 0.53125
vn 0.7558594 -0.5805664 -0.30273438
vn 0.76904297 -0.23022461 0.5966797
vn 0.6035156 -0.76464844 -0.22680664
vn 0.61865234 -0.4140625 0.66748047
vn -0.6020508 0.38134766 -0.70166016
vn -0.5864258 0.7631836 0.27075195
vn -0.38085938 0.9003906 0.21032715
vn -0.4020996 0.5151367 -0.75683594
vn -0.17358398 0.96972656 0.17211914
vn -0.20361328 0.58496094 -0.78515625
vn -0.00025320053 -0.40576172 -0.9140625
vn -0.037872314 0.98828125 0.14819336
vn -0.021377563 -0.4038086 -0.9145508
vn -0.077697754 0.609375 -0.7890625
vn 0.0025138855 0.9902344 0.13769531
vn -0.03842163 -0.3852539 -0.921875
vn -0.05114746 0.6152344 -0.7866211
vn 0.005214691 0.99072266 0.1373291
vn -0.053741455 -0.37231445 -0.9267578
vn -0.066467285 0.6152344 -0.78564453
vn 0.0077171326 0.9902344 0.1381836
vn -0.071899414 -0.37231445 -0.92529297
vn -0.079711914 0.61572266 -0.7841797
vn 0.008911133 0.9902344 0.13989258
vn -0.08758545 -0.37280273 -0.9238281
vn -0.0859375 0.61621094 -0.78271484
vn 0.008506775 0.9897461 0.14135742
vn -0.09484863 -0.37329102 -0.92285156
vn -0.08416748 0.6171875 -0.78222656
vn 0.0070991516 0.9897461 0.14196777
vn -0.09259033 -0.3737793 -0.92285156
vn -0.07757568 0.6176758 -0.78271484
vn 0.006252289 0.9897461 0.14196777
vn -0.08453369 -0.37402344 -0.92333984
vn -0.0736084 0.6176758 -0.7832031
vn -0.079711914 -0.37402344 -0.9238281
vn 0.61865234 -0.4140625 0.66748047
vn 0.6035156 -0.76464844 -0.22680664
vn 0.3918457 -0.9042969 -0.16906738
vn 0.41259766 -0.5498047 0.7260742
vn 0.17858887 -0.9741211 -0.13964844
vn 0.20727539 -0.6142578 0.76123047
vn 0.03918457 -0.9897461 -0.13793945
vn 0.07824707 -0.6225586 0.7788086
vn -0.0025539398 -0.9897461 -0.14355469
vn 0.05130005 -0.61816406 0.7841797
vn -0.0057144165 -0.9897461 -0.14367676
vn 0.06628418 -0.61816406 0.7832031
vn -0.008125305 -0.9897461 -0.14245605
vn 0.079589844 -0.6176758 0.78222656
vn -0.008979797 -0.9902344 -0.14050293
vn 0.0859375 -0.6166992 0.78271484
vn -0.008285522 -0.9902344 -0.13916016
vn 0.084228516 -0.61621094 0.7832031
vn -0.0067977905 -0.9902344 -0.13879395
vn 0.07763672 -0.61572266 0.7841797
vn -0.005970001 -0.9902344 -0.13891602
vn 0.07366943 -0.61572266 0.7841797
vn -0 0.80322266 -0.5957031
vn 0.7636719 0.24816895 -0.5957031
vn 0.76171875 0.24816895 0.5986328
vn -0.0019817352 0.80322266 0.5957031
vn -0.7636719 0.24816895 -0.5957031
vn -0.7661133 0.24829102 0.59277344
vn 0.7636719 0.24816895 -0.5957031
vn 0.47216797 -0.64990234 -0.5957031
vn 0.4699707 -0.64990234 0.59716797
vn 0.76171875 0.24816895 0.5986328
vn 0.47216797 -0.64990234 -0.5957031
vn -0.47216797 -0.64990234 -0.5957031
vn -0.4741211 -0.64990234 0.5942383
vn 0.4699707 -0.64990234 0.59716797
vn -0.0019817352 0.80322266 0.5957031
vn 0.76171875 0.24816895 0.5986328
vn 0.4699707 -0.64990234 0.59716797
vn -0.4741211 -0.64990234 0.5942383
vn -0.7661133 0.24829102 0.59277344
vn -0.47216797 -0.64990234 -0.5957031
vn -0.7636719 0.24816895 -0.5957031
vn -0.7661133 0.24829102 0.59277344
vn -0.4741211 -0.64990234 0.5942383
vn 0.47216797 -0.64990234 -0.5957031
vn 0.7636719 0.24816895 -0.5957031
vn -0 0.80322266 -0.5957031
vn -0.47216797 -0.64990234 -0.5957031
vn -0.7636719 0.24816895 -0.5957031
vn -0 0.80322266 -0.5957031
vn 0.7636719 0.24816895 -0.5957031
vn 0.76171875 0.24816895 0.5986328
vn -0.0019817352 0.80322266 0.5957031
vn -0.7636719 0.24816895 -0.5957031
vn -0.7661133 0.24829102 0.59277344
vn 0.7636719 0.24816895 -0.5957031
vn 0.47216797 -0.64990234 -0.5957031
vn 0.4699707 -0.64990234 0.59716797
vn 0.76171875 0.24816895 0.5986328
vn 0.47216797 -0.64990234 -0.5957031
vn -0.47216797 -0.64990234 -0.5957031
vn -0.4741211 -0.64990234 0.5942383
vn 0.4699707 -0.64990234 0.59716797
vn -0.0019817352 0.80322266 0.5957031
vn 0.76171875 0.24816895 0.5986328
vn 0.4699707 -0.64990234 0.59716797
vn -0.4741211 -0.64990234 0.5942383
vn -0.7661133 0.24829102 0.59277344
vn -0.47216797 -0.64990234 -0.5957031
vn -0.7636719 0.24816895 -0.5957031
vn -0.7661133 0.24829102 0.59277344
vn -0.4741211 -0.64990234 0.5942383
vn 0.47216797 -0.64990234 -0.5957031
vn 0.7636719 0.24816895 -0.5957031
vn -0 0.80322266 -0.5957031
vn -0.47216797 -0.64990234 -0.5957031
vn -0.7636719 0.24816895 -0.5957031
vn -0.0007185936 0.8071289 -0.59033203
vn 0.7597656 0.25048828 -0.60009766
vn 0.7753906 0.36083984 0.5180664
vn -0.0023040771 0.90527344 0.42456055
vn -0.7602539 0.24975586 -0.5996094
vn -0.7792969 0.35913086 0.5131836
vn 0.7597656 0.25048828 -0.60009766
vn 0.46923828 -0.6538086 -0.59375
vn 0.4675293 -0.50439453 0.7260742
vn 0.7753906 0.36083984 0.5180664
vn 0.46923828 -0.6538086 -0.59375
vn -0.46826172 -0.6542969 -0.59375
vn -0.47192383 -0.50634766 0.7216797
vn 0.4675293 -0.50439453 0.7260742
vn -0.0023040771 0.90527344 0.42456055
vn 0.7753906 0.36083984 0.5180664
vn 0.4675293 -0.50439453 0.7260742
vn -0.47192383 -0.50634766 0.7216797
vn -0.7792969 0.35913086 0.5131836
vn -0.46826172 -0.6542969 -0.59375
vn -0.7602539 0.24975586 -0.5996094
vn -0.7792969 0.35913086 0.5131836
vn -0.47192383 -0.50634766 0.7216797
vn 0.46923828 -0.6538086 -0.59375
vn 0.7597656 0.25048828 -0.60009766
vn -0.0007185936 0.8071289 -0.59033203
vn -0.46826172 -0.6542969 -0.59375
vn -0.7602539 0.24975586 -0.5996094
vn -0.00079250336 0.80859375 -0.5883789
vn 0.75878906 0.25097656 -0.60058594
vn 0.7783203 0.3713379 0.50634766
vn -0.0023517609 0.91308594 0.40722656
vn -0.75927734 0.25024414 -0.60058594
vn -0.78222656 0.36938477 0.5019531
vn 0.75878906 0.25097656 -0.60058594
vn 0.46850586 -0.65478516 -0.59277344
vn 0.4675293 -0.48632812 0.73828125
vn 0.7783203 0.3713379 0.50634766
vn 0.46850586 -0.65478516 -0.59277344
vn -0.4675293 -0.65527344 -0.5932617
vn -0.47216797 -0.48828125 0.7338867
vn 0.4675293 -0.48632812 0.73828125
vn -0.0023517609 0.91308594 0.40722656
vn 0.7783203 0.3713379 0.50634766
vn 0.4675293 -0.48632812 0.73828125
vn -0.47216797 -0.48828125 0.7338867
vn -0.78222656 0.36938477 0.5019531
vn -0.4675293 -0.65527344 -0.5932617
vn -0.75927734 0.25024414 -0.60058594
vn -0.78222656 0.36938477 0.5019531
vn -0.47216797 -0.48828125 0.7338867
vn 0.46850586 -0.65478516 -0.59277344
vn 0.75878906 0.25097656 -0.60058594
vn -0.00079250336 0.80859375 -0.5883789
vn -0.4675293 -0.65527344 -0.5932617
vn -0.75927734 0.25024414 -0.60058594
vn -0.0008893013 0.8100586 -0.5864258
vn 0.7578125 0.25195312 -0.6015625
vn 0.7817383 0.38330078 0.49169922
vn -0.0024223328 0.9223633 0.3864746
vn -0.7583008 0.2512207 -0.6015625
vn -0.78564453 0.38110352 0.4873047
vn 0.7578125 0.25195312 -0.6015625
vn 0.4675293 -0.6567383 -0.5917969
vn 0.46801758 -0.46289062 0.7529297
vn 0.7817383 0.38330078 0.49169922
vn 0.4675293 -0.6567383 -0.5917969
vn -0.4663086 -0.65722656 -0.59228516
vn -0.47265625 -0.4650879 0.74853516
vn 0.46801758 -0.46289062 0.7529297
vn -0.0024223328 0.9223633 0.3864746
vn 0.7817383 0.38330078 0.49169922
vn 0.46801758 -0.46289062 0.7529297
vn -0.47265625 -0.4650879 0.74853516
vn -0.78564453 0.38110352 0.4873047
vn -0.4663086 -0.65722656 -0.59228516
vn -0.7583008 0.2512207 -0.6015625
vn -0.78564453 0.38110352 0.4873047
vn -0.47265625 -0.4650879 0.74853516
vn 0.4675293 -0.6567383 -0.5917969
vn 0.7578125 0.25195312 -0.6015625
vn -0.0008893013 0.8100586 -0.5864258
vn -0.4663086 -0.65722656 -0.59228516
vn -0.7583008 0.2512207 -0.6015625
vn -0.00037884712 0.8041992 -0.5942383
vn 0.7626953 0.24890137 -0.5966797
vn 0.76660156 0.31054688 0.5625
vn -0.0021095276 0.86376953 0.50390625
vn -0.7626953 0.24853516 -0.5966797
vn -0.7705078 0.30981445 0.5571289
vn 0.7626953 0.24890137 -0.5966797
vn 0.47143555 -0.6508789 -0.59521484
vn 0.46801758 -0.5776367 0.6689453
vn 0.76660156 0.31054688 0.5625
vn 0.47143555 -0.6508789 -0.59521484
vn -0.47094727 -0.6508789 -0.59521484
vn -0.4724121 -0.5786133 0.66503906
vn 0.46801758 -0.5776367 0.6689453
vn -0.0021095276 0.86376953 0.50390625
vn 0.76660156 0.31054688 0.5625
vn 0.46801758 -0.5776367 0.6689453
vn -0.4724121 -0.5786133 0.66503906
vn -0.7705078 0.30981445 0.5571289
vn -0.47094727 -0.6508789 -0.59521484
vn -0.7626953 0.24853516 -0.5966797
vn -0.7705078 0.30981445 0.5571289
vn -0.4724121 -0.5786133 0.66503906
vn 0.47143555 -0.6508789 -0.59521484
vn 0.7626953 0.24890137 -0.5966797
vn -0.00037884712 0.8041992 -0.5942383
vn -0.47094727 -0.6508789 -0.59521484
vn -0.7626953 0.24853516 -0.5966797
g Render_0
f 3/3/3 2/2/2 1/1/1
f 4/4/4 3/3/3 1/1/1
f 4/4/4 1/1/1 5/5/5
f 6/6/6 4/4/4 5/5/5
f 9/9/9 8/8/8 7/7/7
f 9/9/9 7/7/7 10/10/10
f 9/9/9 10/10/10 11/11/11
f 12/12/12 9/9/9 11/11/11
f 15/15/15 14/14/14 13/13/13
f 16/16/16 15/15/15 13/13/13
f 16/16/16 13/13/13 17/17/17
f 18/18/18 15/15/15 16/16/16
f 19/19/19 16/16/16 17/17/17
f 20/20/20 18/18/18 16/16/16
f 20/20/20 16/16/16 19/19/19
f 21/21/21 18/18/18 20/20/20
f 22/22/22 20/20/20 19/19/19
f 23/23/23 21/21/21 20/20/20
f 23/23/23 20/20/20 22/22/22
f 24/24/24 21/21/21 23/23/23
f 25/25/25 23/23/23 22/22/22
f 26/26/26 24/24/24 23/23/23
f 26/26/26 23/23/23 25/25/25
f 27/27/27 24/24/24 26/26/26
f 28/28/28 26/26/26 25/25/25
f 29/29/29 27/27/27 26/26/26
f 29/29/29 26/26/26 28/28/28
f 30/30/30 27/27/27 29/29/29
f 31/31/31 29/29/29 28/28/28
f 32/32/32 30/30/30 29/29/29
f 32/32/32 29/29/29 31/31/31
f 33/33/33 30/30/30 32/32/32
f 34/34/34 32/32/32 31/31/31
f 35/35/35 33/33/33 32/32/32
f 35/35/35 32/32/32 34/34/34
f 36/36/36 33/33/33 35/35/35
f 37/37/37 35/35/35 34/34/34
f 38/38/38 36/36/36 35/35/35
f 38/38/38 35/35/35 37/37/37
f 39/39/39 36/36/36 38/38/38
f 40/40/40 38/38/38 37/37/37
f 41/41/41 39/39/39 38/38/38
f 41/41/41 38/38/38 40/40/40
f 42/42/42 39/39/39 41/41/41
f 43/43/43 41/41/41 40/40/40
f 44/44/44 42/42/42 41/41/41
f 44/44/44 41/41/41 43/43/43
f 45/45/45 42/42/42 44/44/44
f 46/46/46 44/44/44 43/43/43
f 47/47/47 45/45/45 44/44/44
f 47/47/47 44/44/44 46/46/46
f 48/48/48 45/45/45 47/47/47
f 49/49/49 47/47/47 46/46/46
f 50/50/50 48/48/48 47/47/47
f 50/50/50 47/47/47 49/49/49
f 51/51/51 48/48/48 50/50/50
f 52/52/52 50/50/50 49/49/49
f 53/53/53 51/51/51 50/50/50
f 53/53/53 50/50/50 52/52/52
f 54/54/54 51/51/51 53/53/53
f 55/55/55 53/53/53 52/52/52
f 56/56/56 54/54/54 53/53/53
f 56/56/56 53/53/53 55/55/55
f 57/57/57 54/54/54 56/56/56
f 58/58/58 56/56/56 55/55/55
f 59/59/59 57/57/57 56/56/56
f 59/59/59 56/56/56 58/58/58
f 60/60/60 57/57/57 59/59/59
f 61/61/61 59/59/59 58/58/58
f 62/62/62 60/60/60 59/59/59
f 62/62/62 59/59/59 61/61/61
f 63/63/63 60/60/60 62/62/62
f 64/64/64 62/62/62 61/61/61
f 65/65/65 63/63/63 62/62/62
f 65/65/65 62/62/62 64/64/64
f 66/66/66 63/63/63 65/65/65
f 67/67/67 65/65/65 64/64/64
f 68/68/68 66/66/66 65/65/65
f 68/68/68 65/65/65 67/67/67
f 69/69/69 66/66/66 68/68/68
f 70/70/70 68/68/68 67/67/67
f 71/71/71 69/69/69 68/68/68
f 71/71/71 68/68/68 70/70/70
f 72/72/72 69/69/69 71/71/71
f 73/73/73 71/71/71 70/70/70
f 74/74/74 72/72/72 71/71/71
f 74/74/74 71/71/71 73/73/73
f 75/75/75 72/72/72 74/74/74
f 76/76/76 74/74/74 73/73/73
f 77/77/77 75/75/75 74/74/74
f 77/77/77 74/74/74 76/76/76
f 78/78/78 75/75/75 77/77/77
f 79/79/79 77/77/77 76/76/76
f 80/80/80 78/78/78 77/77/77
f 80/80/80 77/77/77 79/79/79
f 81/81/81 78/78/78 80/80/80
f 82/82/82 80/80/80 79/79/79
f 83/83/83 81/81/81 80/80/80
f 83/83/83 80/80/80 82/82/82
f 84/84/84 81/81/81 83/83/83
f 85/85/85 83/83/83 82/82/82
f 86/86/86 84/84/84 83/83/83
f 86/86/86 83/83/83 85/85/85
f 87/87/87 84/84/84 86/86/86
f 88/88/88 86/86/86 85/85/85
f 89/89/89 87/87/87 86/86/86
f 89/89/89 86/86/86 88/88/88
f 90/90/90 87/87/87 89/89/89
f 91/91/91 89/89/89 88/88/88
f 92/92/92 90/90/90 89/89/89
f 92/92/92 89/89/89 91/91/91
f 93/93/93 90/90/90 92/92/92
f 94/94/94 92/92/92 91/91/91
f 95/95/95 93/93/93 92/92/92
f 95/95/95 92/92/92 94/94/94
f 96/96/96 93/93/93 95/95/95
f 97/97/97 95/95/95 94/94/94
f 98/98/98 96/96/96 95/95/95
f 98/98/98 95/95/95 97/97/97
f 99/99/99 98/98/98 97/97/97
f 102/102/102 101/101/101 100/100/100
f 103/103/103 102/102/102 100/100/100
f 104/104/104 102/102/102 103/103/103
f 105/105/105 104/104/104 103/103/103
f 106/106/106 104/104/104 105/105/105
f 107/107/107 106/106/106 105/105/105
f 108/108/108 106/106/106 107/107/107
f 109/109/109 108/108/108 107/107/107
f 110/110/110 108/108/108 109/109/109
f 111/111/111 110/110/110 109/109/109
f 112/112/112 110/110/110 111/111/111
f 113/113/113 112/112/112 111/111/111
f 114/114/114 112/112/112 113/113/113
f 115/115/115 114/114/114 113/113/113
f 116/116/116 114/114/114 115/115/115
f 117/117/117 116/116/116 115/115/115
f 118/118/118 116/116/116 117/117/117
f 119/119/119 118/118/118 117/117/117
f 120/120/120 118/118/118 119/119/119
f 121/121/121 120/120/120 119/119/119
f 124/124/124 123/123/123 122/122/122
f 125/125/125 124/124/124 122/122/122
f 125/125/125 122/122/122 126/126/126
f 127/127/127 124/124/124 125/125/125
f 128/128/128 125/125/125 126/126/126
f 129/129/129 127/127/127 125/125/125
f 129/129/129 125/125/125 128/128/128
f 130/130/130 127/127/127 129/129/129
f 131/131/131 129/129/129 128/128/128
f 132/132/132 130/130/130 129/129/129
f 132/132/132 129/129/129 131/131/131
f 133/133/133 130/130/130 132/132/132
f 134/134/134 132/132/132 131/131/131
f 135/135/135 133/133/133 132/132/132
f 135/135/135 132/132/132 134/134/134
f 136/136/136 133/133/133 135/135/135
f 137/137/137 135/135/135 134/134/134
f 138/138/138 136/136/136 135/135/135
f 138/138/138 135/135/135 137/137/137
f 139/139/139 136/136/136 138/138/138
f 140/140/140 138/138/138 137/137/137
f 141/141/141 139/139/139 138/138/138
f 141/141/141 138/138/138 140/140/140
f 142/142/142 139/139/139 141/141/141
f 143/143/143 141/141/141 140/140/140
f 144/144/144 142/142/142 141/141/141
f 144/144/144 141/141/141 143/143/143
f 145/145/145 142/142/142 144/144/144
f 146/146/146 144/144/144 143/143/143
f 147/147/147 145/145/145 144/144/144
f 147/147/147 144/144/144 146/146/146
f 148/148/148 145/145/145 147/147/147
f 149/149/149 147/147/147 146/146/146
f 150/150/150 148/148/148 147/147/147
f 150/150/150 147/147/147 149/149/149
f 151/151/151 148/148/148 150/150/150
f 152/152/152 150/150/150 149/149/149
f 153/153/153 151/151/151 150/150/150
f 153/153/153 150/150/150 152/152/152
f 154/154/154 151/151/151 153/153/153
f 155/155/155 153/153/153 152/152/152
f 156/156/156 154/154/154 153/153/153
f 156/156/156 153/153/153 155/155/155
f 157/157/157 154/154/154 156/156/156
f 158/158/158 156/156/156 155/155/155
f 159/159/159 157/157/157 156/156/156
f 159/159/159 156/156/156 158/158/158
f 160/160/160 157/157/157 159/159/159
f 161/161/161 159/159/159 158/158/158
f 162/162/162 160/160/160 159/159/159
f 162/162/162 159/159/159 161/161/161
f 163/163/163 160/160/160 162/162/162
f 164/164/164 162/162/162 161/161/161
f 165/165/165 163/163/163 162/162/162
f 165/165/165 162/162/162 164/164/164
f 166/166/166 163/163/163 165/165/165
f 167/167/167 165/165/165 164/164/164
f 168/168/168 166/166/166 165/165/165
f 168/168/168 165/165/165 167/167/167
f 169/169/169 166/166/166 168/168/168
f 170/170/170 168/168/168 167/167/167
f 171/171/171 169/169/169 168/168/168
f 171/171/171 168/168/168 170/170/170
f 172/172/172 169/169/169 171/171/171
f 173/173/173 171/171/171 170/170/170
f 174/174/174 172/172/172 171/171/171
f 174/174/174 171/171/171 173/173/173
f 175/175/175 172/172/172 174/174/174
f 176/176/176 174/174/174 173/173/173
f 177/177/177 175/175/175 174/174/174
f 177/177/177 174/174/174 176/176/176
f 178/178/178 175/175/175 177/177/177
f 179/179/179 177/177/177 176/176/176
f 180/180/180 178/178/178 177/177/177
f 180/180/180 177/177/177 179/179/179
f 181/181/181 180/180/180 179/179/179
f 182/182/182 180/180/180 181/181/181
f 183/183/183 182/182/182 181/181/181
f 184/184/184 182/182/182 183/183/183
f 185/185/185 184/184/184 183/183/183
f 186/186/186 184/184/184 185/185/185
f 187/187/187 186/186/186 185/185/185
f 188/188/188 186/186/186 187/187/187
f 189/189/189 188/188/188 187/187/187
f 190/190/190 188/188/188 189/189/189
f 191/191/191 190/190/190 189/189/189
f 192/192/192 190/190/190 191/191/191
f 193/193/193 192/192/192 191/191/191
f 194/194/194 192/192/192 193/193/193
f 195/195/195 194/194/194 193/193/193
f 196/196/196 194/194/194 195/195/195
f 197/197/197 196/196/196 195/195/195
f 198/198/198 196/196/196 197/197/197
f 199/199/199 198/198/198 197/197/197
f 202/202/202 201/201/201 200/200/200
f 203/203/203 202/202/202 200/200/200
f 204/204/204 202/202/202 203/203/203
f 205/205/205 204/204/204 203/203/203
f 206/206/206 204/204/204 205/205/205
f 207/207/207 206/206/206 205/205/205
f 208/208/208 206/206/206 207/207/207
f 209/209/209 208/208/208 207/207/207
f 210/210/210 208/208/208 209/209/209
f 211/211/211 210/210/210 209/209/209
f 212/212/212 210/210/210 211/211/211
f 213/213/213 212/212/212 211/211/211
f 214/214/214 212/212/212 213/213/213
f 215/215/215 214/214/214 213/213/213
f 216/216/216 214/214/214 215/215/215
f 217/217/217 216/216/216 215/215/215
f 218/218/218 216/216/216 217/217/217
f 219/219/219 218/218/218 217/217/217
f 220/220/220 218/218/218 219/219/219
f 221/221/221 220/220/220 219/219/219
f 224/224/224 223/223/223 222/222/222
f 225/225/225 224/224/224 222/222/222
f 226/226/226 224/224/224 225/225/225
f 227/227/227 226/226/226 225/225/225
f 228/228/228 226/226/226 227/227/227
f 229/229/229 228/228/228 227/227/227
f 230/230/230 228/228/228 229/229/229
f 231/231/231 230/230/230 229/229/229
f 232/232/232 230/230/230 231/231/231
f 233/233/233 232/232/232 231/231/231
f 234/234/234 232/232/232 233/233/233
f 235/235/235 234/234/234 233/233/233
f 236/236/236 234/234/234 235/235/235
f 237/237/237 236/236/236 235/235/235
f 238/238/238 236/236/236 237/237/237
f 239/239/239 238/238/238 237/237/237
f 242/242/242 241/241/241 240/240/240
f 243/243/243 242/242/242 240/240/240
f 244/244/244 242/242/242 243/243/243
f 245/245/245 244/244/244 243/243/243
f 246/246/246 244/244/244 245/245/245
f 247/247/247 246/246/246 245/245/245
f 248/248/248 246/246/246 247/247/247
f 249/249/249 248/248/248 247/247/247
f 250/250/250 248/248/248 249/249/249
f 251/251/251 250/250/250 249/249/249
f 252/252/252 250/250/250 251/251/251
f 253/253/253 252/252/252 251/251/251
f 254/254/254 252/252/252 253/253/253
f 255/255/255 254/254/254 253/253/253
f 256/256/256 254/254/254 255/255/255
f 257/257/257 256/256/256 255/255/255
f 260/260/260 259/259/259 258/258/258
f 261/261/261 260/260/260 258/258/258
f 262/262/262 260/260/260 261/261/261
f 263/263/263 262/262/262 261/261/261
f 263/263/263 261/261/261 264/264/264
f 265/265/265 262/262/262 263/263/263
f 266/266/266 263/263/263 264/264/264
f 267/267/267 265/265/265 263/263/263
f 267/267/267 263/263/263 266/266/266
f 268/268/268 265/265/265 267/267/267
f 269/269/269 267/267/267 266/266/266
f 270/270/270 268/268/268 267/267/267
f 270/270/270 267/267/267 269/269/269
f 271/271/271 268/268/268 270/270/270
f 272/272/272 270/270/270 269/269/269
f 273/273/273 271/271/271 270/270/270
f 273/273/273 270/270/270 272/272/272
f 274/274/274 271/271/271 273/273/273
f 275/275/275 273/273/273 272/272/272
f 276/276/276 274/274/274 273/273/273
f 276/276/276 273/273/273 275/275/275
f 277/277/277 274/274/274 276/276/276
f 278/278/278 276/276/276 275/275/275
f 279/279/279 277/277/277 276/276/276
f 279/279/279 276/276/276 278/278/278
f 280/280/280 277/277/277 279/279/279
f 281/281/281 279/279/279 278/278/278
f 282/282/282 280/280/280 279/279/279
f 282/282/282 279/279/279 281/281/281
f 283/283/283 280/280/280 282/282/282
f 284/284/284 282/282/282 281/281/281
f 285/285/285 283/283/283 282/282/282
f 285/285/285 282/282/282 284/284/284
f 286/286/286 283/283/283 285/285/285
f 287/287/287 285/285/285 284/284/284
f 288/288/288 286/286/286 285/285/285
f 288/288/288 285/285/285 287/287/287
f 289/289/289 288/288/288 287/287/287
f 292/292/292 291/291/291 290/290/290
f 293/293/293 292/292/292 290/290/290
f 294/294/294 292/292/292 293/293/293
f 295/295/295 294/294/294 293/293/293
f 296/296/296 294/294/294 295/295/295
f 297/297/297 296/296/296 295/295/295
f 298/298/298 296/296/296 297/297/297
f 299/299/299 298/298/298 297/297/297
f 300/300/300 298/298/298 299/299/299
f 301/301/301 300/300/300 299/299/299
f 302/302/302 300/300/300 301/301/301
f 303/303/303 302/302/302 301/301/301
f 304/304/304 302/302/302 303/303/303
f 305/305/305 304/304/304 303/303/303
f 306/306/306 304/304/304 305/305/305
f 307/307/307 306/306/306 305/305/305
f 308/308/308 306/306/306 307/307/307
f 309/309/309 308/308/308 307/307/307
f 310/310/310 308/308/308 309/309/309
f 311/311/311 310/310/310 309/309/309
f 314/314/314 313/313/313 312/312/312
f 315/315/315 314/314/314 312/312/312
f 315/315/315 312/312/312 316/316/316
f 317/317/317 315/315/315 316/316/316
f 320/320/320 319/319/319 318/318/318
f 321/321/321 320/320/320 318/318/318
f 324/324/324 323/323/323 322/322/322
f 325/325/325 324/324/324 322/322/322
f 328/328/328 327/327/327 326/326/326
f 326/326/326 329/329/329 328/328/328
f 326/326/326 330/330/330 329/329/329
f 333/333/333 332/332/332 331/331/331
f 334/334/334 333/333/333 331/331/331
f 337/337/337 336/336/336 335/335/335
f 335/335/335 338/338/338 337/337/337
f 338/338/338 339/339/339 337/337/337
f 342/342/342 341/341/341 340/340/340
f 343/343/343 342/342/342 340/340/340
f 343/343/343 340/340/340 344/344/344
f 345/345/345 343/343/343 344/344/344
f 348/348/348 347/347/347 346/346/346
f 349/349/349 348/348/348 346/346/346
f 352/352/352 351/351/351 350/350/350
f 353/353/353 352/352/352 350/350/350
f 356/356/356 355/355/355 354/354/354
f 354/354/354 357/357/357 356/356/356
f 354/354/354 358/358/358 357/357/357
f 361/361/361 360/360/360 359/359/359
f 362/362/362 361/361/361 359/359/359
f 365/365/365 364/364/364 363/363/363
f 363/363/363 366/366/366 365/365/365
f 366/366/366 367/367/367 365/365/365
f 370/370/370 369/369/369 368/368/368
f 371/371/371 370/370/370 368/368/368
f 371/371/371 368/368/368 372/372/372
f 373/373/373 371/371/371 372/372/372
f 376/376/376 375/375/375 374/374/374
f 377/377/377 376/376/376 374/374/374
f 380/380/380 379/379/379 378/378/378
f 381/381/381 380/380/380 378/378/378
f 384/384/384 383/383/383 382/382/382
f 382/382/382 385/385/385 384/384/384
f 382/382/382 386/386/386 385/385/385
f 389/389/389 388/388/388 387/387/387
f 390/390/390 389/389/389 387/387/387
f 393/393/393 392/392/392 391/391/391
f 391/391/391 394/394/394 393/393/393
f 394/394/394 395/395/395 393/393/393
f 398/398/398 397/397/397 396/396/396
f 399/399/399 398/398/398 396/396/396
f 399/399/399 396/396/396 400/400/400
f 401/401/401 399/399/399 400/400/400
f 404/404/404 403/403/403 402/402/402
f 405/405/405 404/404/404 402/402/402
f 408/408/408 407/407/407 406/406/406
f 409/409/409 408/408/408 406/406/406
f 412/412/412 411/411/411 410/410/410
f 410/410/410 413/413/413 412/412/412
f 410/410/410 414/414/414 413/413/413
f 417/417/417 416/416/416 415/415/415
f 418/418/418 417/417/417 415/415/415
f 421/421/421 420/420/420 419/419/419
f 419/419/419 422/422/422 421/421/421
f 422/422/422 423/423/423 421/421/421
f 426/426/426 425/425/425 424/424/424
f 427/427/427 426/426/426 424/424/424
f 427/427/427 424/424/424 428/428/428
f 429/429/429 427/427/427 428/428/428
f 432/432/432 431/431/431 430/430/430
f 433/433/433 432/432/432 430/430/430
f 436/436/436 435/435/435 434/434/434
f 437/437/437 436/436/436 434/434/434
f 440/440/440 439/439/439 438/438/438
f 438/438/438 441/441/441 440/440/440
f 438/438/438 442/442/442 441/441/441
f 445/445/445 444/444/444 443/443/443
f 446/446/446 445/445/445 443/443/443
f 449/449/449 448/448/448 447/447/447
f 447/447/447 450/450/450 449/449/449
f 450/450/450 451/451/451 449/449/449
f 454/454/454 453/453/453 452/452/452
f 455/455/455 454/454/454 452/452/452
f 455/455/455 452/452/452 456/456/456
f 457/457/457 455/455/455 456/456/456
f 460/460/460 459/459/459 458/458/458
f 461/461/461 460/460/460 458/458/458
f 464/464/464 463/463/463 462/462/462
f 465/465/465 464/464/464 462/462/462
f 468/468/468 467/467/467 466/466/466
f 466/466/466 469/469/469 468/468/468
f 466/466/466 470/470/470 469/469/469
f 473/473/473 472/472/472 471/471/471
f 474/474/474 473/473/473 471/471/471
f 477/477/477 476/476/476 475/475/475
f 475/475/475 478/478/478 477/477/477
f 478/478/478 479/479/479 477/477/477
