g Renderer
v 1.0174823 12.751183 -0.24383071
v 1.2189326 12.60482 -0.24383071
v 1.2189274 12.60482 1.7675761
v 1.0174823 12.751183 1.7662239
v 1.2189326 12.60482 -0.24383071
v 1.1419845 12.368002 -0.24383071
v 1.1419821 12.368002 1.7670596
v 1.2189274 12.60482 1.7675761
v 1.1419845 12.368002 -0.24383071
v 0.89297825 12.368002 -0.24383071
v 0.8929805 12.368002 1.7653879
v 1.1419821 12.368002 1.7670596
v 1.0174823 12.751183 1.7662239
v 1.2189274 12.60482 1.7675761
v 1.1419821 12.368002 1.7670596
v 0.8929805 12.368002 1.7653879
v 0.81603724 12.60482 1.7648712
v 0.89297825 12.368002 -0.24383071
v 0.816032 12.60482 -0.24383071
v 0.816032 12.60482 -0.24383071
v 1.0174823 12.751183 -0.24383071
v 1.0174823 12.751183 1.7662239
v 0.81603724 12.60482 1.7648712
v 1.1419845 12.368002 -0.24383071
v 1.2189326 12.60482 -0.24383071
v 1.0174823 12.751183 -0.24383071
v 0.89297825 12.368002 -0.24383071
v 0.816032 12.60482 -0.24383071
v 1.0174825 -12.471655 -0.24383071
v 1.2189329 -12.618017 -0.24383071
v 1.2189275 -12.618017 1.7675761
v 1.0174825 -12.471655 1.7662239
v 1.2189329 -12.618017 -0.24383071
v 1.1419847 -12.854836 -0.24383071
v 1.1419823 -12.854836 1.7670596
v 1.2189275 -12.618017 1.7675761
v 1.1419847 -12.854836 -0.24383071
v 0.8929784 -12.8548355 -0.24383071
v 0.8929807 -12.8548355 1.7653879
v 1.1419823 -12.854836 1.7670596
v 1.0174825 -12.471655 1.7662239
v 1.2189275 -12.618017 1.7675761
v 1.1419823 -12.854836 1.7670596
v 0.8929807 -12.8548355 1.7653879
v 0.8160374 -12.618017 1.7648712
v 0.8929784 -12.8548355 -0.24383071
v 0.8160322 -12.618017 -0.24383071
v 0.8160322 -12.618017 -0.24383071
v 1.0174825 -12.471655 -0.24383071
v 1.0174825 -12.471655 1.7662239
v 0.8160374 -12.618017 1.7648712
v 1.1419847 -12.854836 -0.24383071
v 1.2189329 -12.618017 -0.24383071
v 1.0174825 -12.471655 -0.24383071
v 0.8929784 -12.8548355 -0.24383071
v 0.8160322 -12.618017 -0.24383071
v 12.100134 -10.239244 -0.24383071
v 12.301584 -10.385607 -0.24383071
v 12.30158 -10.392595 6.8236313
v 12.100134 -10.25997 6.8855543
v 12.301584 -10.385607 -0.24383071
v 12.224636 -10.622427 -0.24383071
v 12.224634 -10.60602 6.7209997
v 12.30158 -10.392595 6.8236313
v 12.224636 -10.622427 -0.24383071
v 11.97563 -10.622425 -0.24383071
v 11.975634 -10.605297 6.719492
v 12.224634 -10.60602 6.7209997
v 12.100134 -10.25997 6.8855543
v 12.30158 -10.392595 6.8236313
v 12.224634 -10.60602 6.7209997
v 11.975634 -10.605297 6.719492
v 11.898689 -10.391428 6.821192
v 11.97563 -10.622425 -0.24383071
v 11.898684 -10.385607 -0.24383071
v 11.898684 -10.385607 -0.24383071
v 12.100134 -10.239244 -0.24383071
v 12.100134 -10.25997 6.8855543
v 11.898689 -10.391428 6.821192
v 12.224636 -10.622427 -0.24383071
v 12.301584 -10.385607 -0.24383071
v 12.100134 -10.239244 -0.24383071
v 11.97563 -10.622425 -0.24383071
v 11.898684 -10.385607 -0.24383071
v 15.515043 4.6080995 -0.24383071
v 15.716494 4.461737 -0.24383071
v 15.716488 4.4558983 11.8777075
v 15.515043 4.5873127 11.813256
v 15.716494 4.461737 -0.24383071
v 15.639545 4.2249184 -0.24383071
v 15.639543 4.242097 11.979552
v 15.716488 4.4558983 11.8777075
v 15.639545 4.2249184 -0.24383071
v 15.390539 4.224919 -0.24383071
v 15.390541 4.241375 11.9780445
v 15.639543 4.242097 11.979552
v 15.515043 4.5873127 11.813256
v 15.716488 4.4558983 11.8777075
v 15.639543 4.242097 11.979552
v 15.390541 4.241375 11.9780445
v 15.313598 4.45473 11.875268
v 15.313593 4.461737 -0.24383071
v 15.515043 4.6080995 -0.24383071
v 15.390539 4.224919 -0.24383071
v 15.313593 4.461737 -0.24383071
v 15.313598 4.45473 11.875268
v 15.390541 4.241375 11.9780445
v 15.639545 4.2249184 -0.24383071
v 15.716494 4.461737 -0.24383071
v 15.515043 4.6080995 -0.24383071
v 15.390539 4.224919 -0.24383071
v 15.313593 4.461737 -0.24383071
v 11.973063 10.540342 -0.24383071
v 12.174514 10.39398 -0.24383071
v 12.174508 10.38662 6.4897346
v 11.973063 10.514425 6.418395
v 12.174514 10.39398 -0.24383071
v 12.097566 10.157162 -0.24383071
v 12.097563 10.17853 6.602792
v 12.174508 10.38662 6.4897346
v 12.097566 10.157162 -0.24383071
v 11.848559 10.157162 -0.24383071
v 11.848561 10.177729 6.601325
v 12.097563 10.17853 6.602792
v 11.973063 10.514425 6.418395
v 12.174508 10.38662 6.4897346
v 12.097563 10.17853 6.602792
v 11.848561 10.177729 6.601325
v 11.771618 10.385324 6.487361
v 11.771613 10.39398 -0.24383071
v 11.973063 10.540342 -0.24383071
v 11.848559 10.157162 -0.24383071
v 11.771613 10.39398 -0.24383071
v 11.771618 10.385324 6.487361
v 11.848561 10.177729 6.601325
v 12.097566 10.157162 -0.24383071
v 12.174514 10.39398 -0.24383071
v 11.973063 10.540342 -0.24383071
v 11.848559 10.157162 -0.24383071
v 11.771613 10.39398 -0.24383071
v 15.515043 -4.4073534 -0.24383071
v 15.716494 -4.5537157 -0.24383071
v 15.716488 -4.5605245 11.933866
v 15.515043 -4.4275227 11.994974
v 15.716494 -4.5537157 -0.24383071
v 15.639545 -4.7905345 -0.24383071
v 15.639543 -4.774574 11.832542
v 15.716488 -4.5605245 11.933866
v 15.639545 -4.7905345 -0.24383071
v 15.390539 -4.790534 -0.24383071
v 15.390541 -4.7738614 11.83103
v 15.639543 -4.774574 11.832542
v 15.515043 -4.4275227 11.994974
v 15.716488 -4.5605245 11.933866
v 15.639543 -4.774574 11.832542
v 15.390541 -4.7738614 11.83103
v 15.313598 -4.559373 11.931418
v 15.390539 -4.790534 -0.24383071
v 15.313593 -4.5537157 -0.24383071
v 15.313593 -4.5537157 -0.24383071
v 15.515043 -4.4073534 -0.24383071
v 15.515043 -4.4275227 11.994974
v 15.313598 -4.559373 11.931418
v 15.639545 -4.7905345 -0.24383071
v 15.716494 -4.5537157 -0.24383071
v 15.515043 -4.4073534 -0.24383071
v 15.390539 -4.790534 -0.24383071
v 15.313593 -4.5537157 -0.24383071
v -0.66177607 -13.028889 1.7955499
v -0.66177464 -12.863944 1.5120113
v -0.6617717 -12.535921 1.5130876
v -0.6617702 -12.372841 1.7977026
v -0.6617746 -12.8658085 2.080165
v -0.66177166 -12.537786 2.0812411
v -0.6859595 12.36133 1.5125468
v -0.6859595 12.689356 1.5125467
v -0.6859595 12.853369 1.796625
v -0.6859595 12.197317 1.796625
v -0.6859595 12.36133 2.0807033
v -0.6859595 12.689356 2.0807033
v -0.6859595 12.689356 2.0807033
v -0.6859595 12.853369 1.796625
v -0.041555464 12.853369 1.8004491
v -0.045688126 12.689356 2.0844975
v 0.4782601 12.853369 1.8124912
v 0.46820948 12.689356 2.0963917
v 0.92138654 12.853369 1.8336055
v 0.9040132 12.689356 2.117152
v 1.3357232 12.853369 1.8646464
v 1.3114687 12.689356 2.1476874
v 1.7691693 12.853369 1.9064686
v 1.7404408 12.689356 2.1890905
v 2.2696242 12.853369 1.9599261
v 2.2394023 12.689356 2.2423923
v 2.8955555 12.853194 2.0273576
v 2.8415377 12.689573 2.3064823
v 6.867783 12.586659 2.993345
v 6.7423954 12.429589 3.2525895
v 10.007355 11.78797 4.7423882
v 9.79987 11.652376 4.957249
v 12.385053 10.460113 6.938511
v 12.12114 10.356138 7.1032524
v 14.085073 8.606074 9.243643
v 13.788825 8.537169 9.366484
v 15.194381 6.2267127 11.318697
v 14.882683 6.1904874 11.414264
v 15.799186 3.3240798 12.819232
v 15.482276 3.3118498 12.903015
v 15.985523 -0.08725008 13.395761
v 15.667885 -0.08779627 13.4776535
v -0.6859595 12.36133 2.0807033
v -0.6859595 12.689356 2.0807033
v -0.045688126 12.689356 2.0844975
v -0.045688123 12.36133 2.0844975
v 0.46820948 12.689356 2.0963917
v 0.4682095 12.36133 2.0963917
v 0.9040132 12.689356 2.117152
v 0.9040132 12.36133 2.117152
v 1.3114687 12.689356 2.1476874
v 1.3114687 12.36133 2.1476874
v 1.7404408 12.689356 2.1890905
v 1.7404408 12.36133 2.1890905
v 2.2394023 12.689356 2.2423923
v 2.2394023 12.36133 2.2423923
v 2.8415377 12.689573 2.3064823
v 2.8309703 12.361721 2.3049984
v 6.7423954 12.429589 3.2525895
v 6.6966243 12.104969 3.2412994
v 9.79987 11.652376 4.957249
v 9.705525 11.340464 4.9196997
v 12.12114 10.356138 7.1032524
v 11.982019 10.069314 7.0259333
v 13.788825 8.537169 9.366484
v 13.612475 8.290724 9.240921
v 14.882683 6.1904874 11.414264
v 14.677634 6.0047455 11.238036
v 13.732374 8.113183 8.992517
v 15.482276 3.3118498 12.903015
v 14.784284 5.855229 10.966244
v 15.258796 3.2109783 12.685112
v 15.352223 3.1223366 12.383426
v 15.667885 -0.08779627 13.4776535
v 15.438145 -0.08831141 13.243517
v 15.526043 -0.08828035 12.927487
v 15.270897 -3.3875787 12.687998
v 15.363993 -3.2989533 12.386205
v 15.494752 -3.487364 12.906017
v 15.811703 -3.498524 12.822244
v 15.985523 -0.08725008 13.395761
v 14.906765 -6.3660417 11.424117
v 14.701035 -6.181272 11.2476635
v 14.807122 -6.0317307 10.975665
v 13.823457 -8.712952 9.383945
v 13.646317 -8.4671335 9.2582655
v 13.7656355 -8.289339 9.009765
v 12.1652 -10.532148 7.126243
v 12.025364 -10.245632 7.0490723
v 12.149759 -10.0623 6.8071713
v 9.852145 -11.828584 4.9808865
v 9.757256 -11.516782 4.9437857
v 6.801545 -12.605946 3.2692366
v 6.7554274 -12.281349 3.258685
v 2.906132 -12.866007 2.305692
v 2.8953822 -12.538158 2.3051808
v 2.3069916 -12.865809 2.2371073
v 2.3068652 -12.5377865 2.238176
v 1.8453044 -12.865811 2.182038
v 1.8451809 -12.537788 2.1831071
v 1.466755 -12.865814 2.1410496
v 1.4666529 -12.53779 2.142121
v 1.0999049 -12.865816 2.1121855
v 1.0998383 -12.537792 2.1132596
v 0.6707464 -12.865816 2.0934339
v 0.67071354 -12.537793 2.0945096
v 0.10674969 -12.865814 2.0832334
v 0.10673947 -12.537791 2.0843096
v -0.6617746 -12.8658085 2.080165
v -0.66177166 -12.537786 2.0812411
v -0.6859595 12.197317 1.796625
v -0.6859595 12.36133 2.0807033
v -0.045688123 12.36133 2.0844975
v -0.041555464 12.197317 1.8004491
v -0.6859595 12.36133 1.5125468
v 0.4682095 12.36133 2.0963917
v -0.037422802 12.36133 1.5164009
v 0.4782601 12.197317 1.8124912
v 0.9040132 12.36133 2.117152
v 0.48831072 12.36133 1.5285907
v 0.92138654 12.197317 1.8336055
v 1.3114687 12.36133 2.1476874
v 0.93875986 12.36133 1.550059
v 1.3357232 12.197317 1.8646464
v 1.7404408 12.36133 2.1890905
v 1.3599776 12.36133 1.5816056
v 1.7691693 12.197317 1.9064686
v 2.2394023 12.36133 2.2423923
v 1.7978978 12.36133 1.6238467
v 2.2696242 12.197317 1.9599261
v 2.8309703 12.361721 2.3049984
v 2.2998462 12.36133 1.6774601
v 2.8744206 12.197492 2.0243897
v 6.6966243 12.104969 3.2412994
v 2.9284384 12.361113 1.745265
v 6.77624 11.937419 2.9707649
v 9.705525 11.340464 4.9196997
v 6.9016275 12.094489 2.7115204
v 9.818666 11.164143 4.6672893
v 11.982019 10.069314 7.0259333
v 10.026152 11.299736 4.4524283
v 12.1068125 9.886464 6.7838726
v 13.612475 8.290724 9.240921
v 12.370726 9.990438 6.619131
v 13.732374 8.113183 8.992517
v 14.028623 8.182088 8.869677
v -0.6859595 12.689356 1.5125467
v -0.6859595 12.36133 1.5125468
v -0.037422802 12.36133 1.5164009
v -0.037422806 12.689356 1.5164008
v 0.48831072 12.36133 1.5285907
v 0.48831072 12.689356 1.5285907
v 0.93875986 12.36133 1.550059
v 0.93875986 12.689356 1.5500588
v 1.3599776 12.36133 1.5816056
v 1.3599776 12.689356 1.5816056
v 1.7978978 12.36133 1.6238467
v 1.7978978 12.689356 1.6238467
v 2.2998462 12.36133 1.6774601
v 2.2998462 12.689356 1.6774601
v 2.9284384 12.361113 1.745265
v 2.9390059 12.688965 1.7467488
v 6.9016275 12.094489 2.7115204
v 6.9473987 12.419109 2.7228105
v 10.026152 11.299736 4.4524283
v 10.120496 11.611649 4.489978
v 12.370726 9.990438 6.619131
v 12.509846 10.277263 6.69645
v 14.028623 8.182088 8.869677
v 14.204972 8.428534 8.995239
v -0.6859595 12.853369 1.796625
v -0.6859595 12.689356 1.5125467
v -0.037422806 12.689356 1.5164008
v -0.041555464 12.853369 1.8004491
v 0.48831072 12.689356 1.5285907
v 0.4782601 12.853369 1.8124912
v 0.93875986 12.689356 1.5500588
v 0.92138654 12.853369 1.8336055
v 1.3599776 12.689356 1.5816056
v 1.3357232 12.853369 1.8646464
v 1.7978978 12.689356 1.6238467
v 1.7691693 12.853369 1.9064686
v 2.2998462 12.689356 1.6774601
v 2.2696242 12.853369 1.9599261
v 2.9390059 12.688965 1.7467488
v 2.8955555 12.853194 2.0273576
v 6.9473987 12.419109 2.7228105
v 6.867783 12.586659 2.993345
v 10.120496 11.611649 4.489978
v 10.007355 11.78797 4.7423882
v 12.509846 10.277263 6.69645
v 12.385053 10.460113 6.938511
v 12.385053 10.460113 6.938511
v 12.509846 10.277263 6.69645
v 14.204972 8.428534 8.995239
v 14.085073 8.606074 9.243643
v 15.30103 6.077196 11.046905
v 15.194381 6.2267127 11.318697
v 15.095982 5.891454 10.870677
v 14.028623 8.182088 8.869677
v 15.669133 3.1345665 12.299643
v 15.892613 3.235438 12.517546
v 15.799186 3.3240798 12.819232
v 16.073421 -0.08721902 13.079731
v 15.985523 -0.08725008 13.395761
v 15.9047985 -3.4098985 12.520451
v 15.811703 -3.498524 12.822244
v 15.324671 -6.2517285 11.056572
v 15.218583 -6.40127 11.32857
v 14.239235 -8.603181 9.012622
v 14.119916 -8.780975 9.261124
v 12.553825 -10.452 6.719612
v 12.42943 -10.635332 6.961513
v 14.028623 8.182088 8.869677
v 13.732374 8.113183 8.992517
v 14.784284 5.855229 10.966244
v 15.095982 5.891454 10.870677
v 15.352223 3.1223366 12.383426
v 15.669133 3.1345665 12.299643
v 15.526043 -0.08828035 12.927487
v 15.843681 -0.087734155 12.845594
v 15.892613 3.235438 12.517546
v 15.363993 -3.2989533 12.386205
v 16.073421 -0.08721902 13.079731
v 15.6809435 -3.3101132 12.302431
v 15.9047985 -3.4098985 12.520451
v 15.11894 -6.066959 10.880118
v 15.324671 -6.2517285 11.056572
v 14.062095 -8.357363 8.886942
v 14.239235 -8.603181 9.012622
v 12.413989 -10.165483 6.6424413
v 12.553825 -10.452 6.719612
v 10.078427 -11.474582 4.47702
v 10.173317 -11.786384 4.514121
v 6.9621124 -12.269182 2.7295961
v 7.00823 -12.593779 2.7401476
v 2.9962661 -12.535723 1.7460577
v 3.007016 -12.863571 1.7465689
v 2.373005 -12.535922 1.6738855
v 2.3731313 -12.863945 1.6728165
v 1.9093863 -12.535924 1.6185932
v 1.9095098 -12.863947 1.6175239
v 1.5194925 -12.535927 1.5764297
v 1.5195947 -12.863951 1.5753584
v 1.13453 -12.535929 1.5461661
v 1.1345966 -12.863953 1.5450919
v 0.6882736 -12.535929 1.5266275
v 0.68830645 -12.863952 1.5255518
v 0.11302074 -12.535927 1.5161906
v 0.11303096 -12.86395 1.5151144
v -0.6617717 -12.535921 1.5130876
v -0.66177464 -12.863944 1.5120113
v 15.494752 -3.487364 12.906017
v 15.811703 -3.498524 12.822244
v 15.218583 -6.40127 11.32857
v 14.906765 -6.3660417 11.424117
v 14.119916 -8.780975 9.261124
v 13.823457 -8.712952 9.383945
v 12.42943 -10.635332 6.961513
v 12.1652 -10.532148 7.126243
v 10.060176 -11.963385 4.766054
v 9.852145 -11.828584 4.9808865
v 10.173317 -11.786384 4.514121
v 12.553825 -10.452 6.719612
v 7.00823 -12.593779 2.7401476
v 6.9279466 -12.762159 3.0099676
v 6.801545 -12.605946 3.2692366
v 3.007016 -12.863571 1.7465689
v 2.9619489 -13.028713 2.026386
v 2.906132 -12.866007 2.305692
v 2.3731313 -12.863945 1.6728165
v 2.3401246 -13.02889 1.9544275
v 2.3069916 -12.865809 2.2371073
v 1.9095098 -12.863947 1.6175239
v 1.877469 -13.028892 1.8992465
v 1.8453044 -12.865811 2.182038
v 1.5195947 -12.863951 1.5753584
v 1.4932259 -13.028894 1.8576683
v 1.466755 -12.865814 2.1410496
v 1.1345966 -12.863953 1.5450919
v 1.117284 -13.028896 1.8281015
v 1.0999049 -12.865816 2.1121855
v 0.68830645 -12.863952 1.5255518
v 0.67954284 -13.028896 1.808955
v 0.6707464 -12.865816 2.0934339
v 0.11303096 -12.86395 1.5151144
v 0.10989545 -13.028894 1.7986357
v -0.66177464 -12.863944 1.5120113
v 0.10674969 -12.865814 2.0832334
v -0.66177607 -13.028889 1.7955499
v -0.6617746 -12.8658085 2.080165
v 15.6809435 -3.3101132 12.302431
v 15.363993 -3.2989533 12.386205
v 14.807122 -6.0317307 10.975665
v 15.11894 -6.066959 10.880118
v 13.7656355 -8.289339 9.009765
v 14.062095 -8.357363 8.886942
v 12.149759 -10.0623 6.8071713
v 12.413989 -10.165483 6.6424413
v 9.870397 -11.339781 4.6918516
v 10.078427 -11.474582 4.47702
v 6.835711 -12.112968 2.9888651
v 6.9621124 -12.269182 2.7295961
v 2.9404492 -12.373016 2.0253637
v 2.9962661 -12.535723 1.7460577
v 2.339872 -12.372842 1.9565653
v 2.373005 -12.535922 1.6738855
v 1.8772217 -12.372844 1.9013848
v 1.9093863 -12.535924 1.6185932
v 1.4930216 -12.372847 1.8598111
v 1.5194925 -12.535927 1.5764297
v 1.1171508 -12.3728485 1.8302499
v 1.13453 -12.535929 1.5461661
v 0.67947716 -12.3728485 1.8111066
v 0.6882736 -12.535929 1.5266275
v 0.10987498 -12.372847 1.8007882
v 0.11302074 -12.535927 1.5161906
v -0.6617702 -12.372841 1.7977026
v -0.6617717 -12.535921 1.5130876
v 12.149759 -10.0623 6.8071713
v 12.025364 -10.245632 7.0490723
v 9.757256 -11.516782 4.9437857
v 9.870397 -11.339781 4.6918516
v 6.7554274 -12.281349 3.258685
v 6.835711 -12.112968 2.9888651
v 2.8953822 -12.538158 2.3051808
v 2.9404492 -12.373016 2.0253637
v 2.3068652 -12.5377865 2.238176
v 2.339872 -12.372842 1.9565653
v 1.8451809 -12.537788 2.1831071
v 1.8772217 -12.372844 1.9013848
v 1.4666529 -12.53779 2.142121
v 1.4930216 -12.372847 1.8598111
v 1.0998383 -12.537792 2.1132596
v 1.1171508 -12.3728485 1.8302499
v 0.67071354 -12.537793 2.0945096
v 0.67947716 -12.3728485 1.8111066
v 0.10673947 -12.537791 2.0843096
v 0.10987498 -12.372847 1.8007882
v -0.66177166 -12.537786 2.0812411
v -0.6617702 -12.372841 1.7977026
vt 0.89746094 0.96191406
vt 0.9013672 0.9633789
vt 0.9013672 0.93359375
vt 0.89746094 0.9326172
vt 0.07678223 0.93652344
vt 0.08099365 0.93652344
vt 0.08099365 0.90234375
vt 0.07678223 0.90234375
vt 0.9165039 0.38989258
vt 0.92089844 0.38989258
vt 0.92089844 0.35546875
vt 0.9165039 0.35546875
vt 0.9692383 0.21618652
vt 0.9716797 0.21862793
vt 0.97558594 0.21765137
vt 0.97558594 0.21459961
vt 0.9716797 0.21362305
vt 0.97558594 0.19104004
vt 0.9716797 0.19006348
vt 0.9692383 0.05255127
vt 0.97265625 0.053894043
vt 0.97265625 0.025512695
vt 0.9692383 0.02420044
vt 0.54052734 0.96777344
vt 0.5361328 0.9667969
vt 0.5336914 0.97021484
vt 0.54052734 0.97216797
vt 0.5361328 0.9736328
vt 0.9692383 0.29663086
vt 0.97265625 0.29785156
vt 0.97265625 0.26831055
vt 0.9692383 0.26708984
vt 0.02420044 0.93652344
vt 0.028396606 0.93652344
vt 0.028396606 0.90234375
vt 0.02420044 0.90234375
vt 0.6879883 0.9194336
vt 0.6923828 0.9194336
vt 0.6923828 0.8847656
vt 0.6879883 0.8847656
vt 0.953125 0.640625
vt 0.9555664 0.6430664
vt 0.95947266 0.64208984
vt 0.95947266 0.63916016
vt 0.9555664 0.6381836
vt 0.95947266 0.6152344
vt 0.9555664 0.6142578
vt 0.9692383 0.13061523
vt 0.97265625 0.13195801
vt 0.97265625 0.10357666
vt 0.9692383 0.10229492
vt 0.6948242 0.9692383
vt 0.6904297 0.96777344
vt 0.6879883 0.9711914
vt 0.6948242 0.97314453
vt 0.6904297 0.9746094
vt 0.14123535 0.94677734
vt 0.14489746 0.9477539
vt 0.14489746 0.84375
vt 0.14135742 0.8417969
vt 0.41796875 0.7890625
vt 0.41381836 0.7890625
vt 0.41430664 0.9082031
vt 0.41796875 0.90966797
vt 0.32958984 0.79589844
vt 0.32543945 0.79589844
vt 0.32543945 0.91552734
vt 0.32958984 0.91552734
vt 0.9589844 0.47973633
vt 0.95654297 0.47802734
vt 0.953125 0.4802246
vt 0.953125 0.48339844
vt 0.95654297 0.4831543
vt 0.95458984 0.5649414
vt 0.9589844 0.56591797
vt 0.94970703 0.8022461
vt 0.953125 0.80371094
vt 0.953125 0.7026367
vt 0.94970703 0.7026367
vt 0.32543945 0.96728516
vt 0.32788086 0.9707031
vt 0.3317871 0.9692383
vt 0.32788086 0.9638672
vt 0.3317871 0.96533203
vt 0.84521484 0.9111328
vt 0.8486328 0.91259766
vt 0.8486328 0.7338867
vt 0.84521484 0.73339844
vt 0.5336914 0.7216797
vt 0.53808594 0.7216797
vt 0.53808594 0.5131836
vt 0.5341797 0.5151367
vt 0.48535156 0.5131836
vt 0.48095703 0.5131836
vt 0.48095703 0.72265625
vt 0.48535156 0.72265625
vt 0.9013672 0.48388672
vt 0.9042969 0.4814453
vt 0.90283203 0.47802734
vt 0.8989258 0.47827148
vt 0.89746094 0.4819336
vt 0.9008789 0.65283203
vt 0.9042969 0.6542969
vt 0.48095703 0.9145508
vt 0.48510742 0.91552734
vt 0.48510742 0.7734375
vt 0.4814453 0.7709961
vt 0.9716797 0.3623047
vt 0.97558594 0.36108398
vt 0.97558594 0.35668945
vt 0.9692383 0.35888672
vt 0.9716797 0.35546875
vt 0.94970703 0.9501953
vt 0.953125 0.9511719
vt 0.953125 0.8520508
vt 0.94970703 0.8520508
vt 0.9165039 0.30688477
vt 0.92089844 0.30688477
vt 0.92089844 0.19006348
vt 0.9169922 0.1920166
vt 0.92089844 0.02420044
vt 0.9165039 0.02420044
vt 0.9165039 0.14160156
vt 0.92089844 0.14160156
vt 0.24194336 0.8354492
vt 0.24523926 0.8330078
vt 0.24365234 0.82910156
vt 0.23937988 0.82958984
vt 0.23828125 0.8334961
vt 0.24157715 0.92822266
vt 0.24523926 0.9296875
vt 0.6357422 0.96533203
vt 0.63964844 0.9663086
vt 0.63964844 0.88720703
vt 0.63623047 0.8847656
vt 0.47851562 0.96728516
vt 0.48095703 0.9707031
vt 0.48510742 0.96972656
vt 0.48095703 0.9638672
vt 0.48510742 0.96533203
vt 0.89746094 0.8828125
vt 0.9013672 0.88427734
vt 0.9013672 0.70458984
vt 0.89746094 0.7026367
vt 0.7963867 0.47802734
vt 0.79248047 0.47802734
vt 0.79296875 0.68408203
vt 0.7963867 0.68603516
vt 0.8491211 0.47802734
vt 0.84521484 0.47802734
vt 0.84521484 0.6850586
vt 0.8491211 0.6850586
vt 0.5395508 0.77197266
vt 0.53759766 0.77001953
vt 0.5336914 0.77246094
vt 0.5336914 0.7753906
vt 0.53759766 0.7753906
vt 0.53564453 0.91748047
vt 0.5395508 0.91796875
vt 0.79248047 0.90625
vt 0.79589844 0.90771484
vt 0.79589844 0.7348633
vt 0.79248047 0.734375
vt 0.9716797 0.41748047
vt 0.97558594 0.41625977
vt 0.97558594 0.41210938
vt 0.9692383 0.4140625
vt 0.9716797 0.41064453
vt 0.41381836 0.9663086
vt 0.4182129 0.9667969
vt 0.42236328 0.9633789
vt 0.42236328 0.9589844
vt 0.41381836 0.96191406
vt 0.4182129 0.9580078
vt 0.7890625 0.9589844
vt 0.7890625 0.96435547
vt 0.79248047 0.96728516
vt 0.79248047 0.9560547
vt 0.79589844 0.9589844
vt 0.79589844 0.96435547
vt 0.7348633 0.02822876
vt 0.73095703 0.02420044
vt 0.72314453 0.031951904
vt 0.7270508 0.03591919
vt 0.7167969 0.038269043
vt 0.7207031 0.042175293
vt 0.71191406 0.043792725
vt 0.7158203 0.047607422
vt 0.70703125 0.049072266
vt 0.7109375 0.05279541
vt 0.70214844 0.0546875
vt 0.7060547 0.058380127
vt 0.69628906 0.06121826
vt 0.7006836 0.06488037
vt 0.6894531 0.06939697
vt 0.69384766 0.072753906
vt 0.65185547 0.12866211
vt 0.6567383 0.13085938
vt 0.6357422 0.18969727
vt 0.6411133 0.19030762
vt 0.63720703 0.24963379
vt 0.6425781 0.24890137
vt 0.6513672 0.30615234
vt 0.6567383 0.30444336
vt 0.6748047 0.35668945
vt 0.6796875 0.35424805
vt 0.7026367 0.39868164
vt 0.70751953 0.3959961
vt 0.73046875 0.4296875
vt 0.7348633 0.4267578
vt 0.36547852 0.029815674
vt 0.36547852 0.02420044
vt 0.35742188 0.02420044
vt 0.35742188 0.029830933
vt 0.35083008 0.024215698
vt 0.35083008 0.029846191
vt 0.34521484 0.024230957
vt 0.34521484 0.02986145
vt 0.3395996 0.024230957
vt 0.3395996 0.02986145
vt 0.33374023 0.024246216
vt 0.33374023 0.029876709
vt 0.3269043 0.024261475
vt 0.3269043 0.029876709
vt 0.31860352 0.024261475
vt 0.31884766 0.029891968
vt 0.25878906 0.028808594
vt 0.25952148 0.034362793
vt 0.20043945 0.04220581
vt 0.20214844 0.047546387
vt 0.14624023 0.064453125
vt 0.14892578 0.06939697
vt 0.09887695 0.095703125
vt 0.10253906 0.09991455
vt 0.061187744 0.13598633
vt 0.0657959 0.13916016
vt 0.10394287 0.10296631
vt 0.036224365 0.18530273
vt 0.06768799 0.14172363
vt 0.04159546 0.18713379
vt 0.04397583 0.18859863
vt 0.02720642 0.24365234
vt 0.032836914 0.24365234
vt 0.03543091 0.24365234
vt 0.04147339 0.30029297
vt 0.04385376 0.29882812
vt 0.036132812 0.30200195
vt 0.03314209 0.3022461
vt 0.02420044 0.24365234
vt 0.060913086 0.35131836
vt 0.06555176 0.34814453
vt 0.06738281 0.34570312
vt 0.09844971 0.39160156
vt 0.10211182 0.38745117
vt 0.103515625 0.38427734
vt 0.14575195 0.42285156
vt 0.14831543 0.41796875
vt 0.1496582 0.41479492
vt 0.1998291 0.44506836
vt 0.20141602 0.43969727
vt 0.25805664 0.45825195
vt 0.25878906 0.45263672
vt 0.31811523 0.46264648
vt 0.31835938 0.45703125
vt 0.32641602 0.46264648
vt 0.32641602 0.45703125
vt 0.33276367 0.46264648
vt 0.33276367 0.45703125
vt 0.33813477 0.46264648
vt 0.33813477 0.45703125
vt 0.34301758 0.46264648
vt 0.34301758 0.45703125
vt 0.3486328 0.46264648
vt 0.3486328 0.45703125
vt 0.3557129 0.46264648
vt 0.3557129 0.45703125
vt 0.36547852 0.46264648
vt 0.36547852 0.45703125
vt 0.18554688 0.7910156
vt 0.1899414 0.7890625
vt 0.1850586 0.7792969
vt 0.18066406 0.78125
vt 0.18127441 0.79345703
vt 0.18127441 0.7709961
vt 0.17626953 0.7832031
vt 0.17687988 0.7729492
vt 0.17822266 0.76416016
vt 0.17248535 0.7753906
vt 0.17382812 0.7661133
vt 0.17565918 0.7578125
vt 0.16931152 0.7680664
vt 0.17102051 0.7597656
vt 0.17297363 0.75097656
vt 0.1665039 0.76123047
vt 0.16833496 0.7524414
vt 0.16992188 0.7426758
vt 0.16381836 0.75439453
vt 0.16540527 0.7446289
vt 0.16638184 0.73339844
vt 0.1607666 0.74609375
vt 0.16174316 0.7348633
vt 0.15100098 0.6669922
vt 0.15698242 0.73583984
vt 0.14624023 0.66748047
vt 0.15356445 0.60791016
vt 0.14123535 0.66748047
vt 0.14892578 0.60791016
vt 0.16845703 0.5566406
vt 0.14404297 0.6064453
vt 0.16381836 0.5566406
vt 0.1899414 0.51464844
vt 0.15917969 0.55371094
vt 0.18518066 0.51464844
vt 0.18103027 0.51123047
vt 0.27148438 0.7807617
vt 0.27685547 0.7792969
vt 0.27392578 0.7685547
vt 0.2685547 0.77001953
vt 0.27124023 0.7597656
vt 0.26586914 0.76171875
vt 0.2692871 0.7524414
vt 0.26391602 0.75390625
vt 0.26708984 0.74560547
vt 0.26171875 0.7470703
vt 0.26513672 0.73828125
vt 0.25976562 0.7397461
vt 0.2626953 0.72998047
vt 0.25732422 0.7314453
vt 0.25976562 0.71972656
vt 0.25439453 0.7211914
vt 0.24536133 0.65234375
vt 0.23986816 0.6533203
vt 0.24389648 0.5961914
vt 0.23828125 0.5961914
vt 0.25463867 0.55029297
vt 0.24926758 0.5493164
vt 0.27685547 0.5126953
vt 0.27197266 0.51123047
vt 0.34643555 0.51220703
vt 0.34106445 0.51123047
vt 0.33862305 0.52197266
vt 0.34399414 0.5229492
vt 0.33666992 0.5307617
vt 0.34204102 0.5317383
vt 0.33496094 0.53808594
vt 0.34057617 0.5390625
vt 0.33374023 0.54541016
vt 0.33935547 0.5463867
vt 0.33276367 0.5527344
vt 0.33813477 0.55371094
vt 0.33154297 0.56152344
vt 0.33691406 0.5620117
vt 0.32983398 0.5722656
vt 0.33544922 0.5727539
vt 0.32543945 0.6425781
vt 0.3310547 0.6425781
vt 0.33081055 0.7011719
vt 0.33642578 0.7001953
vt 0.34106445 0.7475586
vt 0.34643555 0.74658203
vt 0.7397461 0.8364258
vt 0.7441406 0.8334961
vt 0.70751953 0.8066406
vt 0.703125 0.8095703
vt 0.6743164 0.76953125
vt 0.6694336 0.77197266
vt 0.6772461 0.7661133
vt 0.70947266 0.8017578
vt 0.6538086 0.7207031
vt 0.6503906 0.72314453
vt 0.64501953 0.7246094
vt 0.6411133 0.6669922
vt 0.6357422 0.6669922
vt 0.6503906 0.61035156
vt 0.64501953 0.60839844
vt 0.6743164 0.5600586
vt 0.6699219 0.5576172
vt 0.70751953 0.51708984
vt 0.703125 0.51416016
vt 0.7441406 0.4814453
vt 0.7397461 0.47802734
vt 0.5839844 0.4645996
vt 0.58740234 0.46069336
vt 0.5488281 0.43969727
vt 0.5449219 0.44335938
vt 0.5126953 0.40722656
vt 0.50878906 0.41064453
vt 0.47827148 0.3642578
vt 0.47387695 0.36743164
vt 0.50634766 0.41430664
vt 0.4489746 0.31762695
vt 0.47045898 0.3696289
vt 0.44433594 0.32080078
vt 0.44018555 0.3215332
vt 0.42578125 0.27661133
vt 0.42089844 0.27612305
vt 0.4189453 0.23400879
vt 0.41381836 0.2322998
vt 0.42529297 0.19226074
vt 0.42041016 0.1895752
vt 0.44604492 0.15063477
vt 0.4416504 0.1472168
vt 0.48266602 0.10845947
vt 0.47875977 0.10437012
vt 0.5361328 0.06518555
vt 0.53271484 0.06072998
vt 0.5449219 0.05899048
vt 0.5415039 0.05441284
vt 0.55126953 0.054382324
vt 0.54785156 0.049804688
vt 0.5566406 0.05050659
vt 0.55371094 0.045898438
vt 0.5620117 0.046661377
vt 0.55908203 0.04208374
vt 0.5683594 0.04220581
vt 0.5649414 0.037628174
vt 0.5761719 0.036499023
vt 0.5732422 0.031921387
vt 0.58740234 0.028778076
vt 0.5839844 0.02420044
vt 0.09289551 0.51464844
vt 0.08868408 0.51123047
vt 0.07312012 0.5336914
vt 0.07745361 0.5371094
vt 0.0541687 0.56933594
vt 0.058746338 0.5722656
vt 0.03753662 0.6152344
vt 0.042388916 0.6171875
vt 0.028869629 0.6699219
vt 0.03390503 0.67089844
vt 0.02420044 0.67089844
vt 0.03289795 0.61572266
vt 0.02911377 0.73291016
vt 0.033721924 0.7314453
vt 0.038635254 0.73046875
vt 0.053131104 0.7993164
vt 0.057556152 0.7973633
vt 0.062072754 0.79541016
vt 0.058135986 0.80908203
vt 0.062469482 0.8066406
vt 0.066833496 0.8046875
vt 0.061767578 0.81591797
vt 0.066101074 0.81396484
vt 0.07043457 0.81152344
vt 0.06488037 0.8222656
vt 0.06915283 0.8198242
vt 0.07348633 0.8173828
vt 0.068115234 0.8276367
vt 0.07232666 0.8251953
vt 0.076538086 0.8227539
vt 0.072143555 0.83447266
vt 0.07623291 0.83203125
vt 0.0803833 0.82910156
vt 0.07745361 0.84277344
vt 0.08154297 0.83984375
vt 0.08477783 0.8540039
vt 0.085632324 0.83740234
vt 0.08886719 0.8510742
vt 0.09289551 0.84814453
vt 0.86376953 0.39160156
vt 0.86816406 0.3881836
vt 0.83984375 0.3527832
vt 0.83496094 0.3557129
vt 0.81396484 0.30786133
vt 0.80859375 0.31030273
vt 0.79541016 0.25585938
vt 0.79003906 0.25708008
vt 0.7890625 0.1986084
vt 0.7832031 0.19848633
vt 0.7988281 0.13830566
vt 0.79345703 0.13647461
vt 0.8300781 0.07684326
vt 0.8256836 0.073913574
vt 0.8364258 0.068359375
vt 0.83154297 0.06512451
vt 0.8408203 0.061828613
vt 0.8364258 0.058563232
vt 0.84472656 0.056427002
vt 0.84033203 0.053100586
vt 0.8486328 0.05126953
vt 0.8442383 0.047821045
vt 0.8535156 0.045410156
vt 0.8491211 0.0418396
vt 0.859375 0.037902832
vt 0.85546875 0.03427124
vt 0.86816406 0.027877808
vt 0.86376953 0.02420044
vt 0.4272461 0.74072266
vt 0.4326172 0.7397461
vt 0.4243164 0.69677734
vt 0.41870117 0.6977539
vt 0.4194336 0.64208984
vt 0.41381836 0.64208984
vt 0.42285156 0.57470703
vt 0.41723633 0.57421875
vt 0.42407227 0.5644531
vt 0.41845703 0.56396484
vt 0.42504883 0.5566406
vt 0.4194336 0.55615234
vt 0.42578125 0.55029297
vt 0.42016602 0.5493164
vt 0.4267578 0.5439453
vt 0.42114258 0.54296875
vt 0.42797852 0.5366211
vt 0.42260742 0.53564453
vt 0.42993164 0.52734375
vt 0.42456055 0.5258789
vt 0.4326172 0.51416016
vt 0.4272461 0.5131836
vn -0 0.80322266 -0.5957031
vn 0.7636719 0.24816895 -0.5957031
vn 0.76171875 0.24816895 0.5986328
vn -0.0019817352 0.80322266 0.5957031
vn 0.7636719 0.24816895 -0.5957031
vn 0.47216797 -0.64990234 -0.5957031
vn 0.4699707 -0.64990234 0.59716797
vn 0.76171875 0.24816895 0.5986328
vn 0.47216797 -0.64990234 -0.5957031
vn -0.47216797 -0.64990234 -0.5957031
vn -0.4741211 -0.64990234 0.5942383
vn 0.4699707 -0.64990234 0.59716797
vn -0.0019817352 0.80322266 0.5957031
vn 0.76171875 0.24816895 0.5986328
vn 0.4699707 -0.64990234 0.59716797
vn -0.4741211 -0.64990234 0.5942383
vn -0.7661133 0.24829102 0.59277344
vn -0.47216797 -0.64990234 -0.5957031
vn -0.7636719 0.24816895 -0.5957031
vn -0.7636719 0.24816895 -0.5957031
vn -0 0.80322266 -0.5957031
vn -0.0019817352 0.80322266 0.5957031
vn -0.7661133 0.24829102 0.59277344
vn 0.47216797 -0.64990234 -0.5957031
vn 0.7636719 0.24816895 -0.5957031
vn -0 0.80322266 -0.5957031
vn -0.47216797 -0.64990234 -0.5957031
vn -0.7636719 0.24816895 -0.5957031
vn -0 0.80322266 -0.5957031
vn 0.7636719 0.24816895 -0.5957031
vn 0.76171875 0.24816895 0.5986328
vn -0.0019817352 0.80322266 0.5957031
vn 0.7636719 0.24816895 -0.5957031
vn 0.47216797 -0.64990234 -0.5957031
vn 0.4699707 -0.64990234 0.59716797
vn 0.76171875 0.24816895 0.5986328
vn 0.47216797 -0.64990234 -0.5957031
vn -0.47216797 -0.64990234 -0.5957031
vn -0.4741211 -0.64990234 0.5942383
vn 0.4699707 -0.64990234 0.59716797
vn -0.0019817352 0.80322266 0.5957031
vn 0.76171875 0.24816895 0.5986328
vn 0.4699707 -0.64990234 0.59716797
vn -0.4741211 -0.64990234 0.5942383
vn -0.7661133 0.24829102 0.59277344
vn -0.47216797 -0.64990234 -0.5957031
vn -0.7636719 0.24816895 -0.5957031
vn -0.7636719 0.24816895 -0.5957031
vn -0 0.80322266 -0.5957031
vn -0.0019817352 0.80322266 0.5957031
vn -0.7661133 0.24829102 0.59277344
vn 0.47216797 -0.64990234 -0.5957031
vn 0.7636719 0.24816895 -0.5957031
vn -0 0.80322266 -0.5957031
vn -0.47216797 -0.64990234 -0.5957031
vn -0.7636719 0.24816895 -0.5957031
vn 0.00079107285 0.80810547 -0.5888672
vn 0.75927734 0.25 -0.60058594
vn 0.7729492 0.114746094 0.62402344
vn -0.0021915436 0.62158203 0.7836914
vn 0.75927734 0.25 -0.60058594
vn 0.46728516 -0.65527344 -0.5932617
vn 0.4753418 -0.76660156 0.4321289
vn 0.7729492 0.114746094 0.62402344
vn 0.46728516 -0.65527344 -0.5932617
vn -0.46850586 -0.65478516 -0.59277344
vn -0.4794922 -0.7651367 0.42993164
vn 0.4753418 -0.76660156 0.4321289
vn -0.0021915436 0.62158203 0.7836914
vn 0.7729492 0.114746094 0.62402344
vn 0.4753418 -0.76660156 0.4321289
vn -0.4794922 -0.7651367 0.42993164
vn -0.77734375 0.117126465 0.61816406
vn -0.46850586 -0.65478516 -0.59277344
vn -0.75927734 0.25097656 -0.60058594
vn -0.75927734 0.25097656 -0.60058594
vn 0.00079107285 0.80810547 -0.5888672
vn -0.0021915436 0.62158203 0.7836914
vn -0.77734375 0.117126465 0.61816406
vn 0.46728516 -0.65527344 -0.5932617
vn 0.75927734 0.25 -0.60058594
vn 0.00079107285 0.80810547 -0.5888672
vn -0.46850586 -0.65478516 -0.59277344
vn -0.75927734 0.25097656 -0.60058594
vn -0.0007920265 0.80810547 -0.5888672
vn 0.75878906 0.25097656 -0.6010742
vn 0.7783203 0.3713379 0.50634766
vn -0.0023517609 0.9135742 0.40698242
vn 0.75878906 0.25097656 -0.6010742
vn 0.46875 -0.65478516 -0.5932617
vn 0.4675293 -0.48657227 0.73779297
vn 0.7783203 0.3713379 0.50634766
vn 0.46875 -0.65478516 -0.5932617
vn -0.4675293 -0.65527344 -0.5932617
vn -0.47216797 -0.4885254 0.7338867
vn 0.4675293 -0.48657227 0.73779297
vn -0.0023517609 0.9135742 0.40698242
vn 0.7783203 0.3713379 0.50634766
vn 0.4675293 -0.48657227 0.73779297
vn -0.47216797 -0.4885254 0.7338867
vn -0.78222656 0.36938477 0.50146484
vn -0.75927734 0.25 -0.60058594
vn -0.0007920265 0.80810547 -0.5888672
vn -0.4675293 -0.65527344 -0.5932617
vn -0.75927734 0.25 -0.60058594
vn -0.78222656 0.36938477 0.50146484
vn -0.47216797 -0.4885254 0.7338867
vn 0.46875 -0.65478516 -0.5932617
vn 0.75878906 0.25097656 -0.6010742
vn -0.0007920265 0.80810547 -0.5888672
vn -0.4675293 -0.65527344 -0.5932617
vn -0.75927734 0.25 -0.60058594
vn -0.0008893013 0.8095703 -0.58691406
vn 0.7578125 0.25170898 -0.6020508
vn 0.7817383 0.38354492 0.49145508
vn -0.0024223328 0.9223633 0.3857422
vn 0.7578125 0.25170898 -0.6020508
vn 0.4675293 -0.65625 -0.59228516
vn 0.46801758 -0.4633789 0.7524414
vn 0.7817383 0.38354492 0.49145508
vn 0.4675293 -0.65625 -0.59228516
vn -0.4663086 -0.6567383 -0.59277344
vn -0.47265625 -0.46557617 0.7480469
vn 0.46801758 -0.4633789 0.7524414
vn -0.0024223328 0.9223633 0.3857422
vn 0.7817383 0.38354492 0.49145508
vn 0.46801758 -0.4633789 0.7524414
vn -0.47265625 -0.46557617 0.7480469
vn -0.78564453 0.38134766 0.48706055
vn -0.7583008 0.25097656 -0.6020508
vn -0.0008893013 0.8095703 -0.58691406
vn -0.4663086 -0.6567383 -0.59277344
vn -0.7583008 0.25097656 -0.6020508
vn -0.78564453 0.38134766 0.48706055
vn -0.47265625 -0.46557617 0.7480469
vn 0.4675293 -0.65625 -0.59228516
vn 0.7578125 0.25170898 -0.6020508
vn -0.0008893013 0.8095703 -0.58691406
vn -0.4663086 -0.6567383 -0.59277344
vn -0.7583008 0.25097656 -0.6020508
vn 0.00078105927 0.80810547 -0.58935547
vn 0.75927734 0.24987793 -0.60058594
vn 0.77246094 0.11669922 0.62402344
vn -0.0021896362 0.6245117 0.7807617
vn 0.75927734 0.24987793 -0.60058594
vn 0.4675293 -0.65527344 -0.59375
vn 0.47509766 -0.7651367 0.43408203
vn 0.77246094 0.11669922 0.62402344
vn 0.4675293 -0.65527344 -0.59375
vn -0.46875 -0.6542969 -0.5932617
vn -0.4794922 -0.76416016 0.43188477
vn 0.47509766 -0.7651367 0.43408203
vn -0.0021896362 0.6245117 0.7807617
vn 0.77246094 0.11669922 0.62402344
vn 0.47509766 -0.7651367 0.43408203
vn -0.4794922 -0.76416016 0.43188477
vn -0.77685547 0.119018555 0.61816406
vn -0.46875 -0.6542969 -0.5932617
vn -0.75878906 0.25073242 -0.6010742
vn -0.75878906 0.25073242 -0.6010742
vn 0.00078105927 0.80810547 -0.58935547
vn -0.0021896362 0.6245117 0.7807617
vn -0.77685547 0.119018555 0.61816406
vn 0.4675293 -0.65527344 -0.59375
vn 0.75927734 0.24987793 -0.60058594
vn 0.00078105927 0.80810547 -0.58935547
vn -0.46875 -0.6542969 -0.5932617
vn -0.75878906 0.25073242 -0.6010742
vn -1 0 0
vn -1 0 0
vn -1 0 0
vn -1 0 0
vn -1 0 0
vn -1 0 0
vn -1 0 0
vn -1 0 0
vn -1 0 0
vn -1 0 0
vn -1 0 0
vn -1 0 0
vn -0.005130768 0.50097656 0.86572266
vn 1.3649464E-05 1 -0.0018892288
vn 4.4047832E-05 1 -0.0027427673
vn -0.012580872 0.50097656 0.8652344
vn 0.00014233589 1 -0.0038890839
vn -0.030593872 0.50146484 0.8647461
vn 0.00026249886 1 -0.0043144226
vn -0.052886963 0.5019531 0.86328125
vn 0.00028324127 1 -0.003396988
vn -0.073913574 0.50146484 0.8618164
vn 0.00015950203 1 -0.001619339
vn -0.087524414 0.5004883 0.8613281
vn 0.00026845932 1 -0.00024747849
vn -0.09185791 0.49975586 0.8613281
vn 0.036254883 0.99902344 -0.016143799
vn -0.12976074 0.5175781 0.8457031
vn 0.1541748 0.98828125 -0.0028705597
vn -0.2286377 0.5488281 0.8041992
vn 0.30566406 0.9482422 0.08795166
vn -0.32128906 0.57128906 0.7553711
vn 0.43823242 0.87109375 0.22094727
vn -0.35180664 0.58447266 0.7314453
vn 0.54345703 0.7495117 0.37768555
vn -0.33496094 0.56103516 0.7573242
vn 0.62158203 0.56689453 0.54052734
vn -0.29370117 0.46850586 0.8330078
vn 0.6689453 0.3095703 0.67578125
vn -0.2548828 0.2758789 0.9267578
vn 0.68310547 0.0015478134 0.73046875
vn -0.24145508 -4.0888786E-05 0.97021484
vn -0.005130768 -0.50097656 0.86572266
vn -0.005130768 0.50097656 0.86572266
vn -0.012580872 0.50097656 0.8652344
vn -0.012580872 -0.50097656 0.8652344
vn -0.030593872 0.50146484 0.8647461
vn -0.030593872 -0.50146484 0.8647461
vn -0.052886963 0.5019531 0.86328125
vn -0.052886963 -0.5019531 0.86328125
vn -0.073913574 0.50146484 0.8618164
vn -0.073913574 -0.50146484 0.8618164
vn -0.087524414 0.5004883 0.8613281
vn -0.087524414 -0.5004883 0.8613281
vn -0.09185791 0.49975586 0.8613281
vn -0.09161377 -0.5 0.8613281
vn -0.12976074 0.5175781 0.8457031
vn -0.16381836 -0.5 0.85009766
vn -0.2286377 0.5488281 0.8041992
vn -0.38208008 -0.4777832 0.7910156
vn -0.32128906 0.57128906 0.7553711
vn -0.6328125 -0.4050293 0.65966797
vn -0.35180664 0.58447266 0.7314453
vn -0.8041992 -0.3010254 0.5126953
vn -0.33496094 0.56103516 0.7573242
vn -0.89990234 -0.18786621 0.39379883
vn -0.29370117 0.46850586 0.8330078
vn -0.94189453 -0.085876465 0.32421875
vn -0.5307617 -0.7529297 -0.38867188
vn -0.2548828 0.2758789 0.9267578
vn -0.62890625 -0.5654297 -0.5336914
vn -0.9526367 -0.019958496 0.30322266
vn -0.6953125 -0.30493164 -0.6503906
vn -0.24145508 -4.0888786E-05 0.97021484
vn -0.953125 -0.0016155243 0.30200195
vn -0.7192383 -0.0015964508 -0.6948242
vn -0.9526367 0.016845703 0.30322266
vn -0.69677734 0.30151367 -0.6508789
vn -0.25390625 -0.27563477 0.9272461
vn 0.6699219 -0.30639648 0.67626953
vn 0.68310547 0.0015478134 0.73046875
vn -0.2919922 -0.46850586 0.8339844
vn -0.9423828 0.08282471 0.32421875
vn -0.6308594 0.5625 -0.53466797
vn -0.3330078 -0.56152344 0.7573242
vn -0.9003906 0.1850586 0.39404297
vn -0.5332031 0.75097656 -0.38891602
vn -0.3503418 -0.5859375 0.73095703
vn -0.8046875 0.29833984 0.5126953
vn -0.41088867 0.87646484 -0.25146484
vn -0.32104492 -0.5732422 0.75390625
vn -0.6347656 0.40234375 0.66015625
vn -0.23059082 -0.55126953 0.8017578
vn -0.3852539 0.47485352 0.7910156
vn -0.13476562 -0.52001953 0.8432617
vn -0.16931152 0.4970703 0.8510742
vn -0.10040283 -0.5024414 0.8588867
vn -0.1005249 0.49682617 0.8618164
vn -0.09765625 -0.50341797 0.85839844
vn -0.09802246 0.49780273 0.8618164
vn -0.080322266 -0.5048828 0.859375
vn -0.08062744 0.49926758 0.86279297
vn -0.05267334 -0.5053711 0.8613281
vn -0.052886963 0.49951172 0.8647461
vn -0.026657104 -0.50439453 0.86279297
vn -0.026763916 0.49902344 0.86621094
vn -0.009536743 -0.50390625 0.86376953
vn -0.00957489 0.49804688 0.8671875
vn -0.0034542084 -0.50341797 0.8642578
vn -0.0034599304 0.49780273 0.8671875
vn 1.3649464E-05 -1 -0.0018882751
vn -0.005130768 -0.50097656 0.86572266
vn -0.012580872 -0.50097656 0.8652344
vn 4.4047832E-05 -1 -0.00274086
vn 0.0051498413 -0.49926758 -0.8666992
vn -0.030593872 -0.50146484 0.8647461
vn 0.012619019 -0.4987793 -0.8666992
vn 0.00014233589 -1 -0.0038890839
vn -0.052886963 -0.5019531 0.86328125
vn 0.030685425 -0.49829102 -0.86621094
vn 0.00026249886 -1 -0.0043144226
vn -0.073913574 -0.50146484 0.8618164
vn 0.05303955 -0.49804688 -0.8652344
vn 0.0002834797 -1 -0.0033950806
vn -0.087524414 -0.5004883 0.8613281
vn 0.07397461 -0.49853516 -0.86376953
vn 0.00015938282 -1 -0.001619339
vn -0.09161377 -0.5 0.8613281
vn 0.08758545 -0.49926758 -0.8618164
vn 0.00023436546 -1 0.00019979477
vn -0.16381836 -0.5 0.85009766
vn 0.09240723 -0.49975586 -0.8613281
vn -0.028305054 -0.9995117 -0.024917603
vn -0.38208008 -0.4777832 0.7910156
vn 0.13500977 -0.48388672 -0.8647461
vn -0.12365723 -0.9892578 -0.07513428
vn -0.6328125 -0.4050293 0.65966797
vn 0.25463867 -0.47631836 -0.8417969
vn -0.26757812 -0.9526367 -0.14355469
vn -0.8041992 -0.3010254 0.5126953
vn 0.36645508 -0.50439453 -0.78222656
vn -0.40844727 -0.8774414 -0.25195312
vn -0.89990234 -0.18786621 0.39379883
vn 0.40795898 -0.52978516 -0.74365234
vn -0.5307617 -0.7529297 -0.38867188
vn 0.39648438 -0.52001953 -0.75683594
vn 0.0051498413 0.49926758 -0.8666992
vn 0.0051498413 -0.49926758 -0.8666992
vn 0.012619019 -0.4987793 -0.8666992
vn 0.012619019 0.4987793 -0.8666992
vn 0.030685425 -0.49829102 -0.86621094
vn 0.030685425 0.49829102 -0.86621094
vn 0.05303955 -0.49804688 -0.8652344
vn 0.05303955 0.49804688 -0.8652344
vn 0.07397461 -0.49853516 -0.86376953
vn 0.07397461 0.49853516 -0.86376953
vn 0.08758545 -0.49926758 -0.8618164
vn 0.08758545 0.49926758 -0.8618164
vn 0.09240723 -0.49975586 -0.8613281
vn 0.09265137 0.5 -0.8613281
vn 0.13500977 -0.48388672 -0.8647461
vn 0.16552734 0.4975586 -0.8515625
vn 0.25463867 -0.47631836 -0.8417969
vn 0.38232422 0.4794922 -0.79003906
vn 0.36645508 -0.50439453 -0.78222656
vn 0.63183594 0.42041016 -0.6508789
vn 0.40795898 -0.52978516 -0.74365234
vn 0.8046875 0.3310547 -0.49291992
vn 0.39648438 -0.52001953 -0.75683594
vn 0.90527344 0.23046875 -0.35668945
vn 1.3649464E-05 1 -0.0018892288
vn 0.0051498413 0.49926758 -0.8666992
vn 0.012619019 0.4987793 -0.8666992
vn 4.4047832E-05 1 -0.0027427673
vn 0.030685425 0.49829102 -0.86621094
vn 0.00014233589 1 -0.0038890839
vn 0.05303955 0.49804688 -0.8652344
vn 0.00026249886 1 -0.0043144226
vn 0.07397461 0.49853516 -0.86376953
vn 0.00028324127 1 -0.003396988
vn 0.08758545 0.49926758 -0.8618164
vn 0.00015950203 1 -0.001619339
vn 0.09265137 0.5 -0.8613281
vn 0.00026845932 1 -0.00024747849
vn 0.16552734 0.4975586 -0.8515625
vn 0.036254883 0.99902344 -0.016143799
vn 0.38232422 0.4794922 -0.79003906
vn 0.1541748 0.98828125 -0.0028705597
vn 0.63183594 0.42041016 -0.6508789
vn 0.30566406 0.9482422 0.08795166
vn 0.8046875 0.3310547 -0.49291992
vn 0.43823242 0.87109375 0.22094727
vn 0.43823242 0.87109375 0.22094727
vn 0.8046875 0.3310547 -0.49291992
vn 0.90527344 0.23046875 -0.35668945
vn 0.54345703 0.7495117 0.37768555
vn 0.9560547 0.13378906 -0.2602539
vn 0.62158203 0.56689453 0.54052734
vn 0.35864258 -0.44091797 -0.8227539
vn 0.39648438 -0.52001953 -0.75683594
vn 0.31933594 -0.26293945 -0.91064453
vn 0.9765625 0.0546875 -0.20776367
vn 0.6689453 0.3095703 0.67578125
vn 0.98095703 0.0017108917 -0.19470215
vn 0.68310547 0.0015478134 0.73046875
vn 0.9770508 -0.05130005 -0.20788574
vn 0.6699219 -0.30639648 0.67626953
vn 0.95654297 -0.1307373 -0.26000977
vn 0.62353516 -0.56396484 0.5410156
vn 0.90625 -0.22790527 -0.3564453
vn 0.54589844 -0.7475586 0.3779297
vn 0.80566406 -0.32885742 -0.49267578
vn 0.44018555 -0.8701172 0.22070312
vn 0.39648438 -0.52001953 -0.75683594
vn -0.5307617 -0.7529297 -0.38867188
vn -0.62890625 -0.5654297 -0.5336914
vn 0.35864258 -0.44091797 -0.8227539
vn -0.6953125 -0.30493164 -0.6503906
vn 0.31933594 -0.26293945 -0.91064453
vn -0.7192383 -0.0015964508 -0.6948242
vn 0.2998047 0.00015795231 -0.95410156
vn 0.9765625 0.0546875 -0.20776367
vn -0.69677734 0.30151367 -0.6508789
vn 0.98095703 0.0017108917 -0.19470215
vn 0.31811523 0.26293945 -0.91064453
vn 0.9770508 -0.05130005 -0.20788574
vn 0.3569336 0.4411621 -0.8232422
vn 0.95654297 -0.1307373 -0.26000977
vn 0.3947754 0.5205078 -0.75683594
vn 0.90625 -0.22790527 -0.3564453
vn 0.40698242 0.53125 -0.74316406
vn 0.80566406 -0.32885742 -0.49267578
vn 0.36645508 0.50634766 -0.7807617
vn 0.63378906 -0.4182129 -0.6508789
vn 0.25683594 0.4790039 -0.83935547
vn 0.38549805 -0.47705078 -0.79003906
vn 0.14001465 0.4868164 -0.8623047
vn 0.17102051 -0.4951172 -0.8520508
vn 0.10089111 0.5029297 -0.85839844
vn 0.101501465 -0.49731445 -0.8613281
vn 0.097717285 0.5019531 -0.859375
vn 0.098083496 -0.4963379 -0.8623047
vn 0.080444336 0.50097656 -0.8618164
vn 0.08074951 -0.4951172 -0.8652344
vn 0.052856445 0.5004883 -0.8642578
vn 0.05307007 -0.49487305 -0.8671875
vn 0.026779175 0.50097656 -0.8652344
vn 0.026870728 -0.49536133 -0.86816406
vn 0.00957489 0.5019531 -0.8647461
vn 0.009605408 -0.49609375 -0.86816406
vn 0.0034656525 0.5024414 -0.8647461
vn 0.0034713745 -0.49658203 -0.86816406
vn -0.25390625 -0.27563477 0.9272461
vn 0.6699219 -0.30639648 0.67626953
vn 0.62353516 -0.56396484 0.5410156
vn -0.2919922 -0.46850586 0.8339844
vn 0.54589844 -0.7475586 0.3779297
vn -0.3330078 -0.56152344 0.7573242
vn 0.44018555 -0.8701172 0.22070312
vn -0.3503418 -0.5859375 0.73095703
vn 0.30737305 -0.9477539 0.08685303
vn -0.32104492 -0.5732422 0.75390625
vn 0.63378906 -0.4182129 -0.6508789
vn 0.80566406 -0.32885742 -0.49267578
vn 0.38549805 -0.47705078 -0.79003906
vn 0.15515137 -0.98779297 -0.0047454834
vn -0.23059082 -0.55126953 0.8017578
vn 0.17102051 -0.4951172 -0.8520508
vn 0.036834717 -0.99902344 -0.01852417
vn -0.13476562 -0.52001953 0.8432617
vn 0.101501465 -0.49731445 -0.8613281
vn 0.0005669594 -1 -0.002796173
vn -0.10040283 -0.5024414 0.8588867
vn 0.098083496 -0.4963379 -0.8623047
vn 0.000562191 -1 -0.004989624
vn -0.09765625 -0.50341797 0.85839844
vn 0.08074951 -0.4951172 -0.8652344
vn 0.00073099136 -1 -0.007911682
vn -0.080322266 -0.5048828 0.859375
vn 0.05307007 -0.49487305 -0.8671875
vn 0.00054216385 -1 -0.008796692
vn -0.05267334 -0.5053711 0.8613281
vn 0.026870728 -0.49536133 -0.86816406
vn 0.00023579597 -1 -0.0073509216
vn -0.026657104 -0.50439453 0.86279297
vn 0.009605408 -0.49609375 -0.86816406
vn 6.0737133E-05 -1 -0.0055274963
vn 0.0034713745 -0.49658203 -0.86816406
vn -0.009536743 -0.50390625 0.86376953
vn 1.257658E-05 -1 -0.0045547485
vn -0.0034542084 -0.50341797 0.8642578
vn 0.31811523 0.26293945 -0.91064453
vn -0.69677734 0.30151367 -0.6508789
vn -0.6308594 0.5625 -0.53466797
vn 0.3569336 0.4411621 -0.8232422
vn -0.5332031 0.75097656 -0.38891602
vn 0.3947754 0.5205078 -0.75683594
vn -0.41088867 0.87646484 -0.25146484
vn 0.40698242 0.53125 -0.74316406
vn -0.2692871 0.9526367 -0.14196777
vn 0.36645508 0.50634766 -0.7807617
vn -0.124694824 0.9897461 -0.072509766
vn 0.25683594 0.4790039 -0.83935547
vn -0.028839111 0.9995117 -0.021362305
vn 0.14001465 0.4868164 -0.8623047
vn -0.00023770332 1 0.0041503906
vn 0.10089111 0.5029297 -0.85839844
vn -0.00019061565 1 0.001531601
vn 0.097717285 0.5019531 -0.859375
vn 0.00010842085 1 -0.0013780594
vn 0.080444336 0.50097656 -0.8618164
vn 0.00013649464 1 -0.002248764
vn 0.052856445 0.5004883 -0.8642578
vn 3.6478043E-05 1 -0.0007920265
vn 0.026779175 0.50097656 -0.8652344
vn -0 1 0.0010347366
vn 0.00957489 0.5019531 -0.8647461
vn -0 1 0.002008438
vn 0.0034656525 0.5024414 -0.8647461
vn -0.41088867 0.87646484 -0.25146484
vn -0.8046875 0.29833984 0.5126953
vn -0.6347656 0.40234375 0.66015625
vn -0.2692871 0.9526367 -0.14196777
vn -0.3852539 0.47485352 0.7910156
vn -0.124694824 0.9897461 -0.072509766
vn -0.16931152 0.4970703 0.8510742
vn -0.028839111 0.9995117 -0.021362305
vn -0.1005249 0.49682617 0.8618164
vn -0.00023770332 1 0.0041503906
vn -0.09802246 0.49780273 0.8618164
vn -0.00019061565 1 0.001531601
vn -0.08062744 0.49926758 0.86279297
vn 0.00010842085 1 -0.0013780594
vn -0.052886963 0.49951172 0.8647461
vn 0.00013649464 1 -0.002248764
vn -0.026763916 0.49902344 0.86621094
vn 3.6478043E-05 1 -0.0007920265
vn -0.00957489 0.49804688 0.8671875
vn -0 1 0.0010347366
vn -0.0034599304 0.49780273 0.8671875
vn -0 1 0.002008438
g Renderer_0
f 3/3/3 2/2/2 1/1/1
f 4/4/4 3/3/3 1/1/1
f 7/7/7 6/6/6 5/5/5
f 8/8/8 7/7/7 5/5/5
f 11/11/11 10/10/10 9/9/9
f 12/12/12 11/11/11 9/9/9
f 15/15/15 14/14/14 13/13/13
f 13/13/13 16/16/16 15/15/15
f 13/13/13 17/17/17 16/16/16
f 16/16/16 17/17/17 18/18/18
f 17/17/17 19/19/19 18/18/18
f 22/22/22 21/21/21 20/20/20
f 23/23/23 22/22/22 20/20/20
f 26/26/26 25/25/25 24/24/24
f 24/24/24 27/27/27 26/26/26
f 27/27/27 28/28/28 26/26/26
f 31/31/31 30/30/30 29/29/29
f 32/32/32 31/31/31 29/29/29
f 35/35/35 34/34/34 33/33/33
f 36/36/36 35/35/35 33/33/33
f 39/39/39 38/38/38 37/37/37
f 40/40/40 39/39/39 37/37/37
f 43/43/43 42/42/42 41/41/41
f 41/41/41 44/44/44 43/43/43
f 41/41/41 45/45/45 44/44/44
f 44/44/44 45/45/45 46/46/46
f 45/45/45 47/47/47 46/46/46
f 50/50/50 49/49/49 48/48/48
f 51/51/51 50/50/50 48/48/48
f 54/54/54 53/53/53 52/52/52
f 52/52/52 55/55/55 54/54/54
f 55/55/55 56/56/56 54/54/54
f 59/59/59 58/58/58 57/57/57
f 60/60/60 59/59/59 57/57/57
f 63/63/63 62/62/62 61/61/61
f 64/64/64 63/63/63 61/61/61
f 67/67/67 66/66/66 65/65/65
f 68/68/68 67/67/67 65/65/65
f 71/71/71 70/70/70 69/69/69
f 69/69/69 72/72/72 71/71/71
f 69/69/69 73/73/73 72/72/72
f 72/72/72 73/73/73 74/74/74
f 73/73/73 75/75/75 74/74/74
f 78/78/78 77/77/77 76/76/76
f 79/79/79 78/78/78 76/76/76
f 82/82/82 81/81/81 80/80/80
f 80/80/80 83/83/83 82/82/82
f 83/83/83 84/84/84 82/82/82
f 87/87/87 86/86/86 85/85/85
f 88/88/88 87/87/87 85/85/85
f 91/91/91 90/90/90 89/89/89
f 92/92/92 91/91/91 89/89/89
f 95/95/95 94/94/94 93/93/93
f 96/96/96 95/95/95 93/93/93
f 99/99/99 98/98/98 97/97/97
f 97/97/97 100/100/100 99/99/99
f 97/97/97 101/101/101 100/100/100
f 101/101/101 97/97/97 102/102/102
f 97/97/97 103/103/103 102/102/102
f 106/106/106 105/105/105 104/104/104
f 107/107/107 106/106/106 104/104/104
f 110/110/110 109/109/109 108/108/108
f 108/108/108 111/111/111 110/110/110
f 111/111/111 112/112/112 110/110/110
f 115/115/115 114/114/114 113/113/113
f 116/116/116 115/115/115 113/113/113
f 119/119/119 118/118/118 117/117/117
f 120/120/120 119/119/119 117/117/117
f 123/123/123 122/122/122 121/121/121
f 124/124/124 123/123/123 121/121/121
f 127/127/127 126/126/126 125/125/125
f 125/125/125 128/128/128 127/127/127
f 125/125/125 129/129/129 128/128/128
f 129/129/129 125/125/125 130/130/130
f 125/125/125 131/131/131 130/130/130
f 134/134/134 133/133/133 132/132/132
f 135/135/135 134/134/134 132/132/132
f 138/138/138 137/137/137 136/136/136
f 136/136/136 139/139/139 138/138/138
f 139/139/139 140/140/140 138/138/138
f 143/143/143 142/142/142 141/141/141
f 144/144/144 143/143/143 141/141/141
f 147/147/147 146/146/146 145/145/145
f 148/148/148 147/147/147 145/145/145
f 151/151/151 150/150/150 149/149/149
f 152/152/152 151/151/151 149/149/149
f 155/155/155 154/154/154 153/153/153
f 153/153/153 156/156/156 155/155/155
f 153/153/153 157/157/157 156/156/156
f 156/156/156 157/157/157 158/158/158
f 157/157/157 159/159/159 158/158/158
f 162/162/162 161/161/161 160/160/160
f 163/163/163 162/162/162 160/160/160
f 166/166/166 165/165/165 164/164/164
f 164/164/164 167/167/167 166/166/166
f 167/167/167 168/168/168 166/166/166
f 171/171/171 170/170/170 169/169/169
f 172/172/172 171/171/171 169/169/169
f 172/172/172 169/169/169 173/173/173
f 174/174/174 172/172/172 173/173/173
f 177/177/177 176/176/176 175/175/175
f 177/177/177 175/175/175 178/178/178
f 177/177/177 178/178/178 179/179/179
f 180/180/180 177/177/177 179/179/179
f 183/183/183 182/182/182 181/181/181
f 184/184/184 183/183/183 181/181/181
f 185/185/185 183/183/183 184/184/184
f 186/186/186 185/185/185 184/184/184
f 187/187/187 185/185/185 186/186/186
f 188/188/188 187/187/187 186/186/186
f 189/189/189 187/187/187 188/188/188
f 190/190/190 189/189/189 188/188/188
f 191/191/191 189/189/189 190/190/190
f 192/192/192 191/191/191 190/190/190
f 193/193/193 191/191/191 192/192/192
f 194/194/194 193/193/193 192/192/192
f 195/195/195 193/193/193 194/194/194
f 196/196/196 195/195/195 194/194/194
f 197/197/197 195/195/195 196/196/196
f 198/198/198 197/197/197 196/196/196
f 199/199/199 197/197/197 198/198/198
f 200/200/200 199/199/199 198/198/198
f 201/201/201 199/199/199 200/200/200
f 202/202/202 201/201/201 200/200/200
f 203/203/203 201/201/201 202/202/202
f 204/204/204 203/203/203 202/202/202
f 205/205/205 203/203/203 204/204/204
f 206/206/206 205/205/205 204/204/204
f 207/207/207 205/205/205 206/206/206
f 208/208/208 207/207/207 206/206/206
f 209/209/209 207/207/207 208/208/208
f 210/210/210 209/209/209 208/208/208
f 213/213/213 212/212/212 211/211/211
f 214/214/214 213/213/213 211/211/211
f 215/215/215 213/213/213 214/214/214
f 216/216/216 215/215/215 214/214/214
f 217/217/217 215/215/215 216/216/216
f 218/218/218 217/217/217 216/216/216
f 219/219/219 217/217/217 218/218/218
f 220/220/220 219/219/219 218/218/218
f 221/221/221 219/219/219 220/220/220
f 222/222/222 221/221/221 220/220/220
f 223/223/223 221/221/221 222/222/222
f 224/224/224 223/223/223 222/222/222
f 225/225/225 223/223/223 224/224/224
f 226/226/226 225/225/225 224/224/224
f 227/227/227 225/225/225 226/226/226
f 228/228/228 227/227/227 226/226/226
f 229/229/229 227/227/227 228/228/228
f 230/230/230 229/229/229 228/228/228
f 231/231/231 229/229/229 230/230/230
f 232/232/232 231/231/231 230/230/230
f 233/233/233 231/231/231 232/232/232
f 234/234/234 233/233/233 232/232/232
f 235/235/235 233/233/233 234/234/234
f 236/236/236 235/235/235 234/234/234
f 236/236/236 234/234/234 237/237/237
f 238/238/238 235/235/235 236/236/236
f 239/239/239 236/236/236 237/237/237
f 240/240/240 238/238/238 236/236/236
f 240/240/240 236/236/236 239/239/239
f 241/241/241 240/240/240 239/239/239
f 242/242/242 238/238/238 240/240/240
f 243/243/243 240/240/240 241/241/241
f 243/243/243 242/242/242 240/240/240
f 244/244/244 243/243/243 241/241/241
f 245/245/245 243/243/243 244/244/244
f 246/246/246 245/245/245 244/244/244
f 247/247/247 242/242/242 243/243/243
f 245/245/245 247/247/247 243/243/243
f 247/247/247 248/248/248 242/242/242
f 248/248/248 249/249/249 242/242/242
f 250/250/250 247/247/247 245/245/245
f 251/251/251 245/245/245 246/246/246
f 251/251/251 250/250/250 245/245/245
f 252/252/252 251/251/251 246/246/246
f 253/253/253 250/250/250 251/251/251
f 254/254/254 251/251/251 252/252/252
f 254/254/254 253/253/253 251/251/251
f 255/255/255 254/254/254 252/252/252
f 256/256/256 253/253/253 254/254/254
f 257/257/257 254/254/254 255/255/255
f 257/257/257 256/256/256 254/254/254
f 258/258/258 257/257/257 255/255/255
f 259/259/259 256/256/256 257/257/257
f 260/260/260 259/259/259 257/257/257
f 261/261/261 259/259/259 260/260/260
f 262/262/262 261/261/261 260/260/260
f 263/263/263 261/261/261 262/262/262
f 264/264/264 263/263/263 262/262/262
f 265/265/265 263/263/263 264/264/264
f 266/266/266 265/265/265 264/264/264
f 267/267/267 265/265/265 266/266/266
f 268/268/268 267/267/267 266/266/266
f 269/269/269 267/267/267 268/268/268
f 270/270/270 269/269/269 268/268/268
f 271/271/271 269/269/269 270/270/270
f 272/272/272 271/271/271 270/270/270
f 273/273/273 271/271/271 272/272/272
f 274/274/274 273/273/273 272/272/272
f 275/275/275 273/273/273 274/274/274
f 276/276/276 275/275/275 274/274/274
f 277/277/277 275/275/275 276/276/276
f 278/278/278 277/277/277 276/276/276
f 281/281/281 280/280/280 279/279/279
f 282/282/282 281/281/281 279/279/279
f 282/282/282 279/279/279 283/283/283
f 284/284/284 281/281/281 282/282/282
f 285/285/285 282/282/282 283/283/283
f 286/286/286 284/284/284 282/282/282
f 286/286/286 282/282/282 285/285/285
f 287/287/287 284/284/284 286/286/286
f 288/288/288 286/286/286 285/285/285
f 289/289/289 287/287/287 286/286/286
f 289/289/289 286/286/286 288/288/288
f 290/290/290 287/287/287 289/289/289
f 291/291/291 289/289/289 288/288/288
f 292/292/292 290/290/290 289/289/289
f 292/292/292 289/289/289 291/291/291
f 293/293/293 290/290/290 292/292/292
f 294/294/294 292/292/292 291/291/291
f 295/295/295 293/293/293 292/292/292
f 295/295/295 292/292/292 294/294/294
f 296/296/296 293/293/293 295/295/295
f 297/297/297 295/295/295 294/294/294
f 298/298/298 296/296/296 295/295/295
f 298/298/298 295/295/295 297/297/297
f 299/299/299 296/296/296 298/298/298
f 300/300/300 298/298/298 297/297/297
f 301/301/301 299/299/299 298/298/298
f 301/301/301 298/298/298 300/300/300
f 302/302/302 299/299/299 301/301/301
f 303/303/303 301/301/301 300/300/300
f 304/304/304 302/302/302 301/301/301
f 304/304/304 301/301/301 303/303/303
f 305/305/305 302/302/302 304/304/304
f 306/306/306 304/304/304 303/303/303
f 307/307/307 305/305/305 304/304/304
f 307/307/307 304/304/304 306/306/306
f 308/308/308 305/305/305 307/307/307
f 309/309/309 307/307/307 306/306/306
f 310/310/310 308/308/308 307/307/307
f 310/310/310 307/307/307 309/309/309
f 311/311/311 308/308/308 310/310/310
f 312/312/312 310/310/310 309/309/309
f 313/313/313 311/311/311 310/310/310
f 313/313/313 310/310/310 312/312/312
f 314/314/314 313/313/313 312/312/312
f 317/317/317 316/316/316 315/315/315
f 318/318/318 317/317/317 315/315/315
f 319/319/319 317/317/317 318/318/318
f 320/320/320 319/319/319 318/318/318
f 321/321/321 319/319/319 320/320/320
f 322/322/322 321/321/321 320/320/320
f 323/323/323 321/321/321 322/322/322
f 324/324/324 323/323/323 322/322/322
f 325/325/325 323/323/323 324/324/324
f 326/326/326 325/325/325 324/324/324
f 327/327/327 325/325/325 326/326/326
f 328/328/328 327/327/327 326/326/326
f 329/329/329 327/327/327 328/328/328
f 330/330/330 329/329/329 328/328/328
f 331/331/331 329/329/329 330/330/330
f 332/332/332 331/331/331 330/330/330
f 333/333/333 331/331/331 332/332/332
f 334/334/334 333/333/333 332/332/332
f 335/335/335 333/333/333 334/334/334
f 336/336/336 335/335/335 334/334/334
f 337/337/337 335/335/335 336/336/336
f 338/338/338 337/337/337 336/336/336
f 341/341/341 340/340/340 339/339/339
f 342/342/342 341/341/341 339/339/339
f 343/343/343 341/341/341 342/342/342
f 344/344/344 343/343/343 342/342/342
f 345/345/345 343/343/343 344/344/344
f 346/346/346 345/345/345 344/344/344
f 347/347/347 345/345/345 346/346/346
f 348/348/348 347/347/347 346/346/346
f 349/349/349 347/347/347 348/348/348
f 350/350/350 349/349/349 348/348/348
f 351/351/351 349/349/349 350/350/350
f 352/352/352 351/351/351 350/350/350
f 353/353/353 351/351/351 352/352/352
f 354/354/354 353/353/353 352/352/352
f 355/355/355 353/353/353 354/354/354
f 356/356/356 355/355/355 354/354/354
f 357/357/357 355/355/355 356/356/356
f 358/358/358 357/357/357 356/356/356
f 359/359/359 357/357/357 358/358/358
f 360/360/360 359/359/359 358/358/358
f 363/363/363 362/362/362 361/361/361
f 364/364/364 363/363/363 361/361/361
f 365/365/365 363/363/363 364/364/364
f 366/366/366 365/365/365 364/364/364
f 365/365/365 367/367/367 363/363/363
f 367/367/367 368/368/368 363/363/363
f 369/369/369 367/367/367 365/365/365
f 370/370/370 369/369/369 365/365/365
f 370/370/370 365/365/365 366/366/366
f 371/371/371 370/370/370 366/366/366
f 372/372/372 370/370/370 371/371/371
f 373/373/373 372/372/372 371/371/371
f 374/374/374 372/372/372 373/373/373
f 375/375/375 374/374/374 373/373/373
f 376/376/376 374/374/374 375/375/375
f 377/377/377 376/376/376 375/375/375
f 378/378/378 376/376/376 377/377/377
f 379/379/379 378/378/378 377/377/377
f 380/380/380 378/378/378 379/379/379
f 381/381/381 380/380/380 379/379/379
f 384/384/384 383/383/383 382/382/382
f 385/385/385 384/384/384 382/382/382
f 386/386/386 384/384/384 385/385/385
f 387/387/387 386/386/386 385/385/385
f 388/388/388 386/386/386 387/387/387
f 389/389/389 388/388/388 387/387/387
f 389/389/389 387/387/387 390/390/390
f 391/391/391 388/388/388 389/389/389
f 392/392/392 389/389/389 390/390/390
f 393/393/393 391/391/391 389/389/389
f 393/393/393 389/389/389 392/392/392
f 394/394/394 393/393/393 392/392/392
f 395/395/395 393/393/393 394/394/394
f 396/396/396 395/395/395 394/394/394
f 397/397/397 395/395/395 396/396/396
f 398/398/398 397/397/397 396/396/396
f 399/399/399 397/397/397 398/398/398
f 400/400/400 399/399/399 398/398/398
f 401/401/401 399/399/399 400/400/400
f 402/402/402 401/401/401 400/400/400
f 403/403/403 401/401/401 402/402/402
f 404/404/404 403/403/403 402/402/402
f 405/405/405 403/403/403 404/404/404
f 406/406/406 405/405/405 404/404/404
f 407/407/407 405/405/405 406/406/406
f 408/408/408 407/407/407 406/406/406
f 409/409/409 407/407/407 408/408/408
f 410/410/410 409/409/409 408/408/408
f 411/411/411 409/409/409 410/410/410
f 412/412/412 411/411/411 410/410/410
f 413/413/413 411/411/411 412/412/412
f 414/414/414 413/413/413 412/412/412
f 415/415/415 413/413/413 414/414/414
f 416/416/416 415/415/415 414/414/414
f 417/417/417 415/415/415 416/416/416
f 418/418/418 417/417/417 416/416/416
f 419/419/419 417/417/417 418/418/418
f 420/420/420 419/419/419 418/418/418
f 423/423/423 422/422/422 421/421/421
f 424/424/424 423/423/423 421/421/421
f 425/425/425 423/423/423 424/424/424
f 426/426/426 425/425/425 424/424/424
f 427/427/427 425/425/425 426/426/426
f 428/428/428 427/427/427 426/426/426
f 429/429/429 427/427/427 428/428/428
f 430/430/430 429/429/429 428/428/428
f 429/429/429 431/431/431 427/427/427
f 431/431/431 432/432/432 427/427/427
f 433/433/433 431/431/431 429/429/429
f 434/434/434 429/429/429 430/430/430
f 434/434/434 433/433/433 429/429/429
f 435/435/435 434/434/434 430/430/430
f 436/436/436 433/433/433 434/434/434
f 437/437/437 434/434/434 435/435/435
f 437/437/437 436/436/436 434/434/434
f 438/438/438 437/437/437 435/435/435
f 439/439/439 436/436/436 437/437/437
f 440/440/440 437/437/437 438/438/438
f 440/440/440 439/439/439 437/437/437
f 441/441/441 440/440/440 438/438/438
f 442/442/442 439/439/439 440/440/440
f 443/443/443 440/440/440 441/441/441
f 443/443/443 442/442/442 440/440/440
f 444/444/444 443/443/443 441/441/441
f 445/445/445 442/442/442 443/443/443
f 446/446/446 443/443/443 444/444/444
f 446/446/446 445/445/445 443/443/443
f 447/447/447 446/446/446 444/444/444
f 448/448/448 445/445/445 446/446/446
f 449/449/449 446/446/446 447/447/447
f 449/449/449 448/448/448 446/446/446
f 450/450/450 449/449/449 447/447/447
f 451/451/451 448/448/448 449/449/449
f 452/452/452 449/449/449 450/450/450
f 452/452/452 451/451/451 449/449/449
f 453/453/453 452/452/452 450/450/450
f 454/454/454 451/451/451 452/452/452
f 455/455/455 452/452/452 453/453/453
f 455/455/455 454/454/454 452/452/452
f 456/456/456 454/454/454 455/455/455
f 457/457/457 455/455/455 453/453/453
f 458/458/458 456/456/456 455/455/455
f 458/458/458 455/455/455 457/457/457
f 459/459/459 458/458/458 457/457/457
f 462/462/462 461/461/461 460/460/460
f 463/463/463 462/462/462 460/460/460
f 464/464/464 462/462/462 463/463/463
f 465/465/465 464/464/464 463/463/463
f 466/466/466 464/464/464 465/465/465
f 467/467/467 466/466/466 465/465/465
f 468/468/468 466/466/466 467/467/467
f 469/469/469 468/468/468 467/467/467
f 470/470/470 468/468/468 469/469/469
f 471/471/471 470/470/470 469/469/469
f 472/472/472 470/470/470 471/471/471
f 473/473/473 472/472/472 471/471/471
f 474/474/474 472/472/472 473/473/473
f 475/475/475 474/474/474 473/473/473
f 476/476/476 474/474/474 475/475/475
f 477/477/477 476/476/476 475/475/475
f 478/478/478 476/476/476 477/477/477
f 479/479/479 478/478/478 477/477/477
f 480/480/480 478/478/478 479/479/479
f 481/481/481 480/480/480 479/479/479
f 482/482/482 480/480/480 481/481/481
f 483/483/483 482/482/482 481/481/481
f 484/484/484 482/482/482 483/483/483
f 485/485/485 484/484/484 483/483/483
f 486/486/486 484/484/484 485/485/485
f 487/487/487 486/486/486 485/485/485
f 490/490/490 489/489/489 488/488/488
f 491/491/491 490/490/490 488/488/488
f 492/492/492 490/490/490 491/491/491
f 493/493/493 492/492/492 491/491/491
f 494/494/494 492/492/492 493/493/493
f 495/495/495 494/494/494 493/493/493
f 496/496/496 494/494/494 495/495/495
f 497/497/497 496/496/496 495/495/495
f 498/498/498 496/496/496 497/497/497
f 499/499/499 498/498/498 497/497/497
f 500/500/500 498/498/498 499/499/499
f 501/501/501 500/500/500 499/499/499
f 502/502/502 500/500/500 501/501/501
f 503/503/503 502/502/502 501/501/501
f 504/504/504 502/502/502 503/503/503
f 505/505/505 504/504/504 503/503/503
f 506/506/506 504/504/504 505/505/505
f 507/507/507 506/506/506 505/505/505
f 508/508/508 506/506/506 507/507/507
f 509/509/509 508/508/508 507/507/507
