g rock_medium_02
v -0.7898796 -0.8310326 1.01049
v -1.0796372 -0.5382129 0.3857902
v -1.0553879 -0.52723867 0.84458584
v -0.81076413 -0.0015258966 0.06364435
v -1.0553879 -0.52723867 0.84458584
v -1.0796372 -0.5382129 0.3857902
v -0.78336036 0.08762425 0.50810444
v -0.81076413 -0.0015258966 0.06364435
v -0.5284096 0.11254162 0.33495593
v -0.3719153 -0.47807685 1.3041834
v -0.11503119 -0.6791151 1.2544885
v -0.7898796 -0.8310326 1.01049
v -0.5284096 0.11254162 0.33495593
v -0.08791156 -0.13403885 1.069543
v -0.78336036 0.08762425 0.50810444
v -0.3719153 -0.47807685 1.3041834
v -0.08791156 -0.13403885 1.069543
v -0.11503119 -0.6791151 1.2544885
v -0.3824228 0.62296176 0.4532511
v 0.14362374 0.71456444 0.8257939
v -0.5284096 0.11254162 0.33495593
v -0.08791156 -0.13403885 1.069543
v 0.2091121 -0.096471086 0.91580766
v -0.11503119 -0.6791151 1.2544885
v -0.11503119 -0.6791151 1.2544885
v 0.2091121 -0.096471086 0.91580766
v 0.2100467 -0.7721339 0.88345206
v -0.3824228 0.62296176 0.4532511
v 0.10841481 0.9512133 0.6272639
v 0.14362374 0.71456444 0.8257939
v 0.28740856 0.9917545 -0.12820275
v 0.10841481 0.9512133 0.6272639
v -0.34444147 0.8617018 0.02752598
v 0.25966138 -0.82297325 -0.7393721
v -0.035448864 -0.775368 -1.0067973
v -0.78497326 -0.90000254 -0.059361693
v -0.78497326 -0.90000254 -0.059361693
v -0.90814775 -0.64297026 -0.11514624
v -1.0796372 -0.5382129 0.3857902
v -0.90814775 -0.64297026 -0.11514624
v -0.88050306 0.3713345 -0.25038397
v -0.81076413 -0.0015258966 0.06364435
v -0.68491364 -0.17845218 -1.014609
v -0.88050306 0.3713345 -0.25038397
v -0.90814775 -0.64297026 -0.11514624
v -0.78497326 -0.90000254 -0.059361693
v -0.41907215 -0.74712026 -1.0075734
v -0.90814775 -0.64297026 -0.11514624
v -0.81076413 -0.0015258966 0.06364435
v -0.88050306 0.3713345 -0.25038397
v -0.5284096 0.11254162 0.33495593
v -0.88050306 0.3713345 -0.25038397
v -0.55672896 1.2867144 -0.20372497
v -0.5284096 0.11254162 0.33495593
v -0.0005841967 -0.22116031 -1.0190767
v -0.3827501 1.1921502 -0.8912148
v -0.68491364 -0.17845218 -1.014609
v -0.035448864 -0.775368 -1.0067973
v -0.0005841967 -0.22116031 -1.0190767
v -0.68491364 -0.17845218 -1.014609
v 0.25966138 -0.82297325 -0.7393721
v -0.0005841967 -0.22116031 -1.0190767
v -0.035448864 -0.775368 -1.0067973
v -0.68672997 1.1894146 -0.38290235
v -0.3827501 1.1921502 -0.8912148
v -0.55672896 1.2867144 -0.20372497
v -0.68672997 1.1894146 -0.38290235
v -0.68491364 -0.17845218 -1.014609
v -0.3827501 1.1921502 -0.8912148
v 0.28740856 0.9917545 -0.12820275
v -0.34444147 0.8617018 0.02752598
v -0.55672896 1.2867144 -0.20372497
v -0.3827501 1.1921502 -0.8912148
v 0.04019843 1.1568886 -0.8547664
v -0.55672896 1.2867144 -0.20372497
v 0.28215984 1.1643465 -0.332227
v 0.28740856 0.9917545 -0.12820275
v -0.55672896 1.2867144 -0.20372497
v 0.04019843 1.1568886 -0.8547664
v 0.28215984 1.1643465 -0.332227
v -0.55672896 1.2867144 -0.20372497
v 1.0067462 -0.2688604 0.7652446
v 0.2100467 -0.7721339 0.88345206
v 0.2091121 -0.096471086 0.91580766
v 0.8626865 0.9326541 -0.05662258
v 0.73283523 0.67685664 0.74308884
v 0.6554048 0.9268079 0.5758811
v 0.25966138 -0.82297325 -0.7393721
v 0.2100467 -0.7721339 0.88345206
v 0.7229685 -0.68757457 0.72609365
v 0.43770674 0.57404983 -0.510378
v 0.15743914 -0.2444809 -0.83777755
v 0.63035285 -0.092500046 -0.7936517
v 0.63035285 -0.092500046 -0.7936517
v 0.15743914 -0.2444809 -0.83777755
v 0.7347609 -0.6898242 -0.7198616
v 0.69054574 0.9712544 -0.2562073
v 0.43770674 0.57404983 -0.510378
v 0.63035285 -0.092500046 -0.7936517
v 0.7347609 -0.6898242 -0.7198616
v 0.15743914 -0.2444809 -0.83777755
v 0.25966138 -0.82297325 -0.7393721
v 0.63035285 -0.092500046 -0.7936517
v 1.1671338 -0.40515217 -0.30209687
v 0.69054574 0.9712544 -0.2562073
v 0.7347609 -0.6898242 -0.7198616
v 0.94587314 -0.82262003 -0.36698872
v 1.1671338 -0.40515217 -0.30209687
v 0.7229685 -0.68757457 0.72609365
v 1.1671338 -0.40515217 -0.30209687
v 0.94587314 -0.82262003 -0.36698872
v 1.1671338 -0.40515217 -0.30209687
v 0.63035285 -0.092500046 -0.7936517
v 0.7347609 -0.6898242 -0.7198616
v 0.7229685 -0.68757457 0.72609365
v 1.0067462 -0.2688604 0.7652446
v 1.1671338 -0.40515217 -0.30209687
v -0.78497326 -0.90000254 -0.059361693
v -0.7898796 -0.8310326 1.01049
v 0.2100467 -0.7721339 0.88345206
v -0.7898796 -0.8310326 1.01049
v -0.11503119 -0.6791151 1.2544885
v 0.2100467 -0.7721339 0.88345206
v -0.78497326 -0.90000254 -0.059361693
v 0.2100467 -0.7721339 0.88345206
v 0.25966138 -0.82297325 -0.7393721
v -0.78497326 -0.90000254 -0.059361693
v -1.0796372 -0.5382129 0.3857902
v -0.7898796 -0.8310326 1.01049
v -1.0553879 -0.52723867 0.84458584
v -0.78336036 0.08762425 0.50810444
v -0.8353592 -0.5976364 1.1754363
v -1.0553879 -0.52723867 0.84458584
v -0.8353592 -0.5976364 1.1754363
v -0.7898796 -0.8310326 1.01049
v -0.78336036 0.08762425 0.50810444
v -1.0553879 -0.52723867 0.84458584
v -0.81076413 -0.0015258966 0.06364435
v -0.81076413 -0.0015258966 0.06364435
v -1.0796372 -0.5382129 0.3857902
v -0.90814775 -0.64297026 -0.11514624
v -0.78336036 0.08762425 0.50810444
v -0.3719153 -0.47807685 1.3041834
v -0.8353592 -0.5976364 1.1754363
v -0.55672896 1.2867144 -0.20372497
v -0.34444147 0.8617018 0.02752598
v -0.5284096 0.11254162 0.33495593
v -0.7898796 -0.8310326 1.01049
v -0.8353592 -0.5976364 1.1754363
v -0.3719153 -0.47807685 1.3041834
v -0.5284096 0.11254162 0.33495593
v 0.14362374 0.71456444 0.8257939
v 0.2091121 -0.096471086 0.91580766
v -0.5284096 0.11254162 0.33495593
v 0.2091121 -0.096471086 0.91580766
v -0.08791156 -0.13403885 1.069543
v -0.34444147 0.8617018 0.02752598
v -0.3824228 0.62296176 0.4532511
v -0.5284096 0.11254162 0.33495593
v -0.34444147 0.8617018 0.02752598
v 0.10841481 0.9512133 0.6272639
v -0.3824228 0.62296176 0.4532511
v -0.41907215 -0.74712026 -1.0075734
v -0.78497326 -0.90000254 -0.059361693
v -0.035448864 -0.775368 -1.0067973
v -0.41907215 -0.74712026 -1.0075734
v -0.68491364 -0.17845218 -1.014609
v -0.90814775 -0.64297026 -0.11514624
v -0.41907215 -0.74712026 -1.0075734
v -0.035448864 -0.775368 -1.0067973
v -0.68491364 -0.17845218 -1.014609
v 0.04019843 1.1568886 -0.8547664
v -0.0005841967 -0.22116031 -1.0190767
v 0.43770674 0.57404983 -0.510378
v -0.88050306 0.3713345 -0.25038397
v -0.68672997 1.1894146 -0.38290235
v -0.55672896 1.2867144 -0.20372497
v -0.68491364 -0.17845218 -1.014609
v -0.68672997 1.1894146 -0.38290235
v -0.88050306 0.3713345 -0.25038397
v -0.3827501 1.1921502 -0.8912148
v -0.0005841967 -0.22116031 -1.0190767
v 0.04019843 1.1568886 -0.8547664
v 0.04019843 1.1568886 -0.8547664
v 0.43770674 0.57404983 -0.510378
v 0.28215984 1.1643465 -0.332227
v 0.73283523 0.67685664 0.74308884
v 0.2091121 -0.096471086 0.91580766
v 0.14362374 0.71456444 0.8257939
v 1.0067462 -0.2688604 0.7652446
v 0.2091121 -0.096471086 0.91580766
v 0.73283523 0.67685664 0.74308884
v 0.7229685 -0.68757457 0.72609365
v 0.2100467 -0.7721339 0.88345206
v 1.0067462 -0.2688604 0.7652446
v 1.1671338 -0.40515217 -0.30209687
v 1.0067462 -0.2688604 0.7652446
v 0.8626865 0.9326541 -0.05662258
v 0.73283523 0.67685664 0.74308884
v 0.14362374 0.71456444 0.8257939
v 0.10841481 0.9512133 0.6272639
v 0.6554048 0.9268079 0.5758811
v 0.73283523 0.67685664 0.74308884
v 0.10841481 0.9512133 0.6272639
v 0.8626865 0.9326541 -0.05662258
v 0.6554048 0.9268079 0.5758811
v 0.10841481 0.9512133 0.6272639
v 0.69054574 0.9712544 -0.2562073
v 0.8626865 0.9326541 -0.05662258
v 0.10841481 0.9512133 0.6272639
v 1.0067462 -0.2688604 0.7652446
v 0.73283523 0.67685664 0.74308884
v 0.8626865 0.9326541 -0.05662258
v 0.25966138 -0.82297325 -0.7393721
v 0.94587314 -0.82262003 -0.36698872
v 0.7347609 -0.6898242 -0.7198616
v 0.25966138 -0.82297325 -0.7393721
v 0.7229685 -0.68757457 0.72609365
v 0.94587314 -0.82262003 -0.36698872
v 0.8626865 0.9326541 -0.05662258
v 0.69054574 0.9712544 -0.2562073
v 1.1671338 -0.40515217 -0.30209687
v 0.28215984 1.1643465 -0.332227
v 0.43770674 0.57404983 -0.510378
v 0.28740856 0.9917545 -0.12820275
v 0.69054574 0.9712544 -0.2562073
v 0.10841481 0.9512133 0.6272639
v 0.28740856 0.9917545 -0.12820275
v 0.69054574 0.9712544 -0.2562073
v 0.28740856 0.9917545 -0.12820275
v 0.43770674 0.57404983 -0.510378
v -0.08791156 -0.13403885 1.069543
v -0.3719153 -0.47807685 1.3041834
v -0.78336036 0.08762425 0.50810444
v 0.15743914 -0.2444809 -0.83777755
v -0.0005841967 -0.22116031 -1.0190767
v 0.25966138 -0.82297325 -0.7393721
v 0.43770674 0.57404983 -0.510378
vt 0.86328125 0.3762207
vt 0.8671875 0.32666016
vt 0.8535156 0.35253906
vt 0.82128906 0.27319336
vt 0.8535156 0.35253906
vt 0.8671875 0.32666016
vt 0.80859375 0.32104492
vt 0.82128906 0.27319336
vt 0.77685547 0.30688477
vt 0.8334961 0.3918457
vt 0.8388672 0.4074707
vt 0.86328125 0.3762207
vt 0.77685547 0.30688477
vt 0.7998047 0.40063477
vt 0.80859375 0.32104492
vt 0.8334961 0.3918457
vt 0.7998047 0.40063477
vt 0.8388672 0.4074707
vt 0.57373047 0.2800293
vt 0.5805664 0.21960449
vt 0.5161133 0.3059082
vt 0.7998047 0.40063477
vt 0.77441406 0.42626953
vt 0.8388672 0.4074707
vt 0.8388672 0.4074707
vt 0.77441406 0.42626953
vt 0.8520508 0.4501953
vt 0.57373047 0.2800293
vt 0.6010742 0.23669434
vt 0.5805664 0.21960449
vt 0.68066406 0.23901367
vt 0.6010742 0.23669434
vt 0.6220703 0.3112793
vt 0.5986328 0.3623047
vt 0.60595703 0.32226562
vt 0.50683594 0.33203125
vt 0.94677734 0.3256836
vt 0.90283203 0.27978516
vt 0.8671875 0.32666016
vt 0.98583984 0.06829834
vt 0.93359375 0.16064453
vt 0.98535156 0.14770508
vt 0.88916016 0.11004639
vt 0.93359375 0.16064453
vt 0.98583984 0.06829834
vt 0.98535156 0.013084412
vt 0.8676758 0.052978516
vt 0.98583984 0.06829834
vt 0.98535156 0.14770508
vt 0.93359375 0.16064453
vt 0.99902344 0.18652344
vt 0.93359375 0.16064453
vt 0.89990234 0.2084961
vt 0.99902344 0.18652344
vt 0.82373047 0.10467529
vt 0.8754883 0.1940918
vt 0.88916016 0.11004639
vt 0.8183594 0.044036865
vt 0.82373047 0.10467529
vt 0.88916016 0.11004639
vt 0.7739258 0.034484863
vt 0.82373047 0.10467529
vt 0.8183594 0.044036865
vt 0.8989258 0.19873047
vt 0.8754883 0.1940918
vt 0.89990234 0.2084961
vt 0.8989258 0.19873047
vt 0.88916016 0.11004639
vt 0.8754883 0.1940918
vt 0.8647461 0.26538086
vt 0.92822266 0.22631836
vt 0.89990234 0.2084961
vt 0.8754883 0.1940918
vt 0.85839844 0.20690918
vt 0.89990234 0.2084961
vt 0.8618164 0.24267578
vt 0.8647461 0.26538086
vt 0.89990234 0.2084961
vt 0.85839844 0.20690918
vt 0.8618164 0.24267578
vt 0.89990234 0.2084961
vt 0.5859375 0.1237793
vt 0.51171875 0.072631836
vt 0.51953125 0.1739502
vt 0.6567383 0.18762207
vt 0.6044922 0.18811035
vt 0.6201172 0.20300293
vt 0.72509766 0.022537231
vt 0.51171875 0.072631836
vt 0.5629883 0.09161377
vt 0.71777344 0.17871094
vt 0.76220703 0.084350586
vt 0.71484375 0.107055664
vt 0.71484375 0.107055664
vt 0.76220703 0.084350586
vt 0.69433594 0.061767578
vt 0.67333984 0.19824219
vt 0.71777344 0.17871094
vt 0.71484375 0.107055664
vt 0.69433594 0.061767578
vt 0.76220703 0.084350586
vt 0.72509766 0.022537231
vt 0.71484375 0.107055664
vt 0.6538086 0.10644531
vt 0.67333984 0.19824219
vt 0.69433594 0.061767578
vt 0.6582031 0.06500244
vt 0.6538086 0.10644531
vt 0.5629883 0.09161377
vt 0.6538086 0.10644531
vt 0.6582031 0.06500244
vt 0.6538086 0.10644531
vt 0.71484375 0.107055664
vt 0.69433594 0.061767578
vt 0.5629883 0.09161377
vt 0.5859375 0.1237793
vt 0.6538086 0.10644531
vt 0.94677734 0.3256836
vt 0.86328125 0.3762207
vt 0.8520508 0.4501953
vt 0.86328125 0.3762207
vt 0.8388672 0.4074707
vt 0.8520508 0.4501953
vt 0.50683594 0.33203125
vt 0.5078125 0.44848633
vt 0.5986328 0.3623047
vt 0.94677734 0.3256836
vt 0.8671875 0.32666016
vt 0.86328125 0.3762207
vt 0.8535156 0.35253906
vt 0.80859375 0.32104492
vt 0.84765625 0.3725586
vt 0.8535156 0.35253906
vt 0.84765625 0.3725586
vt 0.86328125 0.3762207
vt 0.80859375 0.32104492
vt 0.8535156 0.35253906
vt 0.82128906 0.27319336
vt 0.82128906 0.27319336
vt 0.8671875 0.32666016
vt 0.90283203 0.27978516
vt 0.80859375 0.32104492
vt 0.8334961 0.3918457
vt 0.84765625 0.3725586
vt 0.89990234 0.2084961
vt 0.92822266 0.22631836
vt 0.99902344 0.18652344
vt 0.86328125 0.3762207
vt 0.84765625 0.3725586
vt 0.8334961 0.3918457
vt 0.5161133 0.3059082
vt 0.5805664 0.21960449
vt 0.51953125 0.1739502
vt 0.77685547 0.30688477
vt 0.77441406 0.42626953
vt 0.7998047 0.40063477
vt 0.6220703 0.3112793
vt 0.57373047 0.2800293
vt 0.5161133 0.3059082
vt 0.6220703 0.3112793
vt 0.6010742 0.23669434
vt 0.57373047 0.2800293
vt 0.8676758 0.052978516
vt 0.98535156 0.013084412
vt 0.8183594 0.044036865
vt 0.8676758 0.052978516
vt 0.88916016 0.11004639
vt 0.98583984 0.06829834
vt 0.8676758 0.052978516
vt 0.8183594 0.044036865
vt 0.88916016 0.11004639
vt 0.85839844 0.20690918
vt 0.82373047 0.10467529
vt 0.7885742 0.23059082
vt 0.93359375 0.16064453
vt 0.8989258 0.19873047
vt 0.89990234 0.2084961
vt 0.88916016 0.11004639
vt 0.8989258 0.19873047
vt 0.93359375 0.16064453
vt 0.8754883 0.1940918
vt 0.82373047 0.10467529
vt 0.85839844 0.20690918
vt 0.85839844 0.20690918
vt 0.7885742 0.23059082
vt 0.8618164 0.24267578
vt 0.6044922 0.18811035
vt 0.51953125 0.1739502
vt 0.5805664 0.21960449
vt 0.5859375 0.1237793
vt 0.51953125 0.1739502
vt 0.6044922 0.18811035
vt 0.5629883 0.09161377
vt 0.51171875 0.072631836
vt 0.5859375 0.1237793
vt 0.6538086 0.10644531
vt 0.5859375 0.1237793
vt 0.6567383 0.18762207
vt 0.6044922 0.18811035
vt 0.5805664 0.21960449
vt 0.6010742 0.23669434
vt 0.6201172 0.20300293
vt 0.6044922 0.18811035
vt 0.6010742 0.23669434
vt 0.6567383 0.18762207
vt 0.6201172 0.20300293
vt 0.6010742 0.23669434
vt 0.67333984 0.19824219
vt 0.6567383 0.18762207
vt 0.6010742 0.23669434
vt 0.5859375 0.1237793
vt 0.6044922 0.18811035
vt 0.6567383 0.18762207
vt 0.72509766 0.022537231
vt 0.6582031 0.06500244
vt 0.69433594 0.061767578
vt 0.72509766 0.022537231
vt 0.5629883 0.09161377
vt 0.6582031 0.06500244
vt 0.6567383 0.18762207
vt 0.67333984 0.19824219
vt 0.6538086 0.10644531
vt 0.8618164 0.24267578
vt 0.7885742 0.23059082
vt 0.8647461 0.26538086
vt 0.67333984 0.19824219
vt 0.6010742 0.23669434
vt 0.68066406 0.23901367
vt 0.67333984 0.19824219
vt 0.68066406 0.23901367
vt 0.71777344 0.17871094
vt 0.7998047 0.40063477
vt 0.8334961 0.3918457
vt 0.80859375 0.32104492
vt 0.79003906 0.11090088
vt 0.82373047 0.10467529
vt 0.7739258 0.034484863
vt 0.7885742 0.23059082
vn -0.76660156 -0.63964844 0.05581665
vn -0.76660156 -0.63964844 0.05581665
vn -0.76660156 -0.63964844 0.05581665
vn -0.8847656 0.4645996 0.03564453
vn -0.8847656 0.4645996 0.03564453
vn -0.8847656 0.4645996 0.03564453
vn -0.21557617 0.95996094 -0.17919922
vn -0.21557617 0.95996094 -0.17919922
vn -0.21557617 0.95996094 -0.17919922
vn -0.20373535 -0.4724121 0.8574219
vn -0.20373535 -0.4724121 0.8574219
vn -0.20373535 -0.4724121 0.8574219
vn 0.08874512 0.9589844 0.26879883
vn 0.08874512 0.9589844 0.26879883
vn 0.08874512 0.9589844 0.26879883
vn 0.3881836 0.2788086 0.87841797
vn 0.3881836 0.2788086 0.87841797
vn 0.3881836 0.2788086 0.87841797
vn -0.57470703 -0.025146484 0.8178711
vn -0.57470703 -0.025146484 0.8178711
vn -0.57470703 -0.025146484 0.8178711
vn 0.41455078 0.27392578 0.8676758
vn 0.41455078 0.27392578 0.8676758
vn 0.41455078 0.27392578 0.8676758
vn 0.7480469 -0.030715942 0.66308594
vn 0.7480469 -0.030715942 0.66308594
vn 0.7480469 -0.030715942 0.66308594
vn -0.56103516 0.4814453 0.67333984
vn -0.56103516 0.4814453 0.67333984
vn -0.56103516 0.4814453 0.67333984
vn -0.20043945 0.9794922 0.005092621
vn -0.20043945 0.9794922 0.005092621
vn -0.20043945 0.9794922 0.005092621
vn -0.024246216 -0.98828125 -0.14916992
vn -0.024246216 -0.98828125 -0.14916992
vn -0.024246216 -0.98828125 -0.14916992
vn -0.86572266 -0.4584961 -0.20056152
vn -0.86572266 -0.4584961 -0.20056152
vn -0.86572266 -0.4584961 -0.20056152
vn -0.9550781 0.06451416 0.28881836
vn -0.9550781 0.06451416 0.28881836
vn -0.9550781 0.06451416 0.28881836
vn -0.96972656 -0.0060768127 -0.24377441
vn -0.96972656 -0.0060768127 -0.24377441
vn -0.96972656 -0.0060768127 -0.24377441
vn -0.79785156 -0.46557617 -0.38305664
vn -0.79785156 -0.46557617 -0.38305664
vn -0.79785156 -0.46557617 -0.38305664
vn -0.71728516 0.36523438 0.5932617
vn -0.71728516 0.36523438 0.5932617
vn -0.71728516 0.36523438 0.5932617
vn -0.7788086 0.24597168 0.57714844
vn -0.7788086 0.24597168 0.57714844
vn -0.7788086 0.24597168 0.57714844
vn -0.0008940697 0.08984375 -0.99609375
vn -0.0008940697 0.08984375 -0.99609375
vn -0.0008940697 0.08984375 -0.99609375
vn -0.007881165 -0.021652222 -0.9995117
vn -0.007881165 -0.021652222 -0.9995117
vn -0.007881165 -0.021652222 -0.9995117
vn 0.66503906 -0.05834961 -0.7446289
vn 0.66503906 -0.05834961 -0.7446289
vn 0.66503906 -0.05834961 -0.7446289
vn -0.37353516 0.9013672 -0.21850586
vn -0.37353516 0.9013672 -0.21850586
vn -0.37353516 0.9013672 -0.21850586
vn -0.8359375 0.22912598 -0.4987793
vn -0.8359375 0.22912598 -0.4987793
vn -0.8359375 0.22912598 -0.4987793
vn 0.103759766 0.51464844 0.8510742
vn 0.103759766 0.51464844 0.8510742
vn 0.103759766 0.51464844 0.8510742
vn 0.09222412 0.9892578 -0.11273193
vn 0.09222412 0.9892578 -0.11273193
vn 0.09222412 0.9892578 -0.11273193
vn 0.20568848 0.7495117 0.62890625
vn 0.20568848 0.7495117 0.62890625
vn 0.20568848 0.7495117 0.62890625
vn 0.13256836 0.98828125 -0.07550049
vn 0.13256836 0.98828125 -0.07550049
vn 0.13256836 0.98828125 -0.07550049
vn 0.17553711 -0.046844482 0.98339844
vn 0.17553711 -0.046844482 0.98339844
vn 0.17553711 -0.046844482 0.98339844
vn 0.84716797 0.45092773 0.28173828
vn 0.84716797 0.45092773 0.28173828
vn 0.84716797 0.45092773 0.28173828
vn 0.17333984 -0.984375 0.036132812
vn 0.17333984 -0.984375 0.036132812
vn 0.17333984 -0.984375 0.036132812
vn -0.03656006 0.38183594 -0.92333984
vn -0.03656006 0.38183594 -0.92333984
vn -0.03656006 0.38183594 -0.92333984
vn 0.12432861 -0.10021973 -0.9873047
vn 0.12432861 -0.10021973 -0.9873047
vn 0.12432861 -0.10021973 -0.9873047
vn 0.20397949 0.4321289 -0.87841797
vn 0.20397949 0.4321289 -0.87841797
vn 0.20397949 0.4321289 -0.87841797
vn 0.08325195 -0.15283203 -0.9848633
vn 0.08325195 -0.15283203 -0.9848633
vn 0.08325195 -0.15283203 -0.9848633
vn 0.7314453 0.27416992 -0.6245117
vn 0.7314453 0.27416992 -0.6245117
vn 0.7314453 0.27416992 -0.6245117
vn 0.7583008 -0.31323242 -0.57177734
vn 0.7583008 -0.31323242 -0.57177734
vn 0.7583008 -0.31323242 -0.57177734
vn 0.8442383 -0.48339844 0.23181152
vn 0.8442383 -0.48339844 0.23181152
vn 0.8442383 -0.48339844 0.23181152
vn 0.6845703 0.029632568 -0.7285156
vn 0.6845703 0.029632568 -0.7285156
vn 0.6845703 0.029632568 -0.7285156
vn 0.80371094 -0.5629883 0.19262695
vn 0.80371094 -0.5629883 0.19262695
vn 0.80371094 -0.5629883 0.19262695
vn 0.066833496 -0.99560547 0.06451416
vn 0.066833496 -0.99560547 0.06451416
vn 0.066833496 -0.99560547 0.06451416
vn 0.09625244 -0.9423828 0.32055664
vn 0.09625244 -0.9423828 0.32055664
vn 0.09625244 -0.9423828 0.32055664
vn 0.09552002 -0.9946289 0.034088135
vn 0.09552002 -0.9946289 0.034088135
vn 0.09552002 -0.9946289 0.034088135
vn -0.7504883 -0.65966797 0.0390625
vn -0.7504883 -0.65966797 0.0390625
vn -0.7504883 -0.65966797 0.0390625
vn -0.62353516 0.56933594 0.53564453
vn -0.62353516 0.56933594 0.53564453
vn -0.62353516 0.56933594 0.53564453
vn -0.7836914 -0.45288086 0.4248047
vn -0.7836914 -0.45288086 0.4248047
vn -0.7836914 -0.45288086 0.4248047
vn -0.9189453 0.3942871 -0.022415161
vn -0.9189453 0.3942871 -0.022415161
vn -0.9189453 0.3942871 -0.022415161
vn -0.90283203 0.23706055 -0.35864258
vn -0.90283203 0.23706055 -0.35864258
vn -0.90283203 0.23706055 -0.35864258
vn -0.35424805 0.6660156 0.65625
vn -0.35424805 0.6660156 0.65625
vn -0.35424805 0.6660156 0.65625
vn -0.16125488 0.40820312 0.8984375
vn -0.16125488 0.40820312 0.8984375
vn -0.16125488 0.40820312 0.8984375
vn -0.07342529 -0.58496094 0.8076172
vn -0.07342529 -0.58496094 0.8076172
vn -0.07342529 -0.58496094 0.8076172
vn -0.6113281 0.038330078 0.79003906
vn -0.6113281 0.038330078 0.79003906
vn -0.6113281 0.038330078 0.79003906
vn 0.03439331 0.9536133 0.29956055
vn 0.03439331 0.9536133 0.29956055
vn 0.03439331 0.9536133 0.29956055
vn -0.9633789 0.2614746 0.060668945
vn -0.9633789 0.2614746 0.060668945
vn -0.9633789 0.2614746 0.060668945
vn -0.6035156 0.71728516 0.34838867
vn -0.6035156 0.71728516 0.34838867
vn -0.6035156 0.71728516 0.34838867
vn -0.071777344 -0.97998047 -0.18566895
vn -0.071777344 -0.97998047 -0.18566895
vn -0.071777344 -0.97998047 -0.18566895
vn -0.8256836 -0.39086914 -0.40673828
vn -0.8256836 -0.39086914 -0.40673828
vn -0.8256836 -0.39086914 -0.40673828
vn 0.0011520386 -0.011833191 -1
vn 0.0011520386 -0.011833191 -1
vn 0.0011520386 -0.011833191 -1
vn 0.7050781 0.06335449 -0.70654297
vn 0.7050781 0.06335449 -0.70654297
vn 0.7050781 0.06335449 -0.70654297
vn -0.84277344 0.2746582 0.46240234
vn -0.84277344 0.2746582 0.46240234
vn -0.84277344 0.2746582 0.46240234
vn -0.921875 0.16137695 -0.35205078
vn -0.921875 0.16137695 -0.35205078
vn -0.921875 0.16137695 -0.35205078
vn 0.0947876 0.115112305 -0.98876953
vn 0.0947876 0.115112305 -0.98876953
vn 0.0947876 0.115112305 -0.98876953
vn 0.85009766 0.34423828 -0.3984375
vn 0.85009766 0.34423828 -0.3984375
vn 0.85009766 0.34423828 -0.3984375
vn 0.14550781 0.12072754 0.9819336
vn 0.14550781 0.12072754 0.9819336
vn 0.14550781 0.12072754 0.9819336
vn 0.20178223 0.08129883 0.9760742
vn 0.20178223 0.08129883 0.9760742
vn 0.20178223 0.08129883 0.9760742
vn 0.32495117 -0.30395508 0.8955078
vn 0.32495117 -0.30395508 0.8955078
vn 0.32495117 -0.30395508 0.8955078
vn 0.97265625 0.19921875 0.12072754
vn 0.97265625 0.19921875 0.12072754
vn 0.97265625 0.19921875 0.12072754
vn 0.1463623 0.6484375 0.7470703
vn 0.1463623 0.6484375 0.7470703
vn 0.1463623 0.6484375 0.7470703
vn 0.10192871 0.57470703 0.8120117
vn 0.10192871 0.57470703 0.8120117
vn 0.10192871 0.57470703 0.8120117
vn 0.046875 0.99853516 0.02458191
vn 0.046875 0.99853516 0.02458191
vn 0.046875 0.99853516 0.02458191
vn 0.11102295 0.9892578 0.095581055
vn 0.11102295 0.9892578 0.095581055
vn 0.11102295 0.9892578 0.095581055
vn 0.93115234 0.27539062 0.23925781
vn 0.93115234 0.27539062 0.23925781
vn 0.93115234 0.27539062 0.23925781
vn 0.25585938 -0.8442383 -0.47094727
vn 0.25585938 -0.8442383 -0.47094727
vn 0.25585938 -0.8442383 -0.47094727
vn -0.059417725 -0.9921875 0.11047363
vn -0.059417725 -0.9921875 0.11047363
vn -0.059417725 -0.9921875 0.11047363
vn 0.7529297 0.28051758 -0.59521484
vn 0.7529297 0.28051758 -0.59521484
vn 0.7529297 0.28051758 -0.59521484
vn 0.9663086 0.20874023 0.1517334
vn 0.9663086 0.20874023 0.1517334
vn 0.9663086 0.20874023 0.1517334
vn 0.07305908 0.9946289 0.07067871
vn 0.07305908 0.9946289 0.07067871
vn 0.07305908 0.9946289 0.07067871
vn -0.20922852 0.61816406 -0.7578125
vn -0.20922852 0.61816406 -0.7578125
vn -0.20922852 0.61816406 -0.7578125
vn -0.30419922 0.6953125 0.6513672
vn -0.30419922 0.6953125 0.6513672
vn -0.30419922 0.6953125 0.6513672
vn 0.7548828 0.021957397 -0.65527344
vn 0.7548828 0.021957397 -0.65527344
vn 0.7548828 0.021957397 -0.65527344
vn 0.75390625 0.0044670105 -0.6567383
g rock_medium_02_0
f 3/3/3 2/2/2 1/1/1
f 6/6/6 5/5/5 4/4/4
f 9/9/9 8/8/8 7/7/7
f 12/12/12 11/11/11 10/10/10
f 15/15/15 14/14/14 13/13/13
f 18/18/18 17/17/17 16/16/16
f 21/21/21 20/20/20 19/19/19
f 24/24/24 23/23/23 22/22/22
f 27/27/27 26/26/26 25/25/25
f 30/30/30 29/29/29 28/28/28
f 33/33/33 32/32/32 31/31/31
f 36/36/36 35/35/35 34/34/34
f 39/39/39 38/38/38 37/37/37
f 42/42/42 41/41/41 40/40/40
f 45/45/45 44/44/44 43/43/43
f 48/48/48 47/47/47 46/46/46
f 51/51/51 50/50/50 49/49/49
f 54/54/54 53/53/53 52/52/52
f 57/57/57 56/56/56 55/55/55
f 60/60/60 59/59/59 58/58/58
f 63/63/63 62/62/62 61/61/61
f 66/66/66 65/65/65 64/64/64
f 69/69/69 68/68/68 67/67/67
f 72/72/72 71/71/71 70/70/70
f 75/75/75 74/74/74 73/73/73
f 78/78/78 77/77/77 76/76/76
f 81/81/81 80/80/80 79/79/79
f 84/84/84 83/83/83 82/82/82
f 87/87/87 86/86/86 85/85/85
f 90/90/90 89/89/89 88/88/88
f 93/93/93 92/92/92 91/91/91
f 96/96/96 95/95/95 94/94/94
f 99/99/99 98/98/98 97/97/97
f 102/102/102 101/101/101 100/100/100
f 105/105/105 104/104/104 103/103/103
f 108/108/108 107/107/107 106/106/106
f 111/111/111 110/110/110 109/109/109
f 114/114/114 113/113/113 112/112/112
f 117/117/117 116/116/116 115/115/115
f 120/120/120 119/119/119 118/118/118
f 123/123/123 122/122/122 121/121/121
f 126/126/126 125/125/125 124/124/124
f 129/129/129 128/128/128 127/127/127
f 132/132/132 131/131/131 130/130/130
f 135/135/135 134/134/134 133/133/133
f 138/138/138 137/137/137 136/136/136
f 141/141/141 140/140/140 139/139/139
f 144/144/144 143/143/143 142/142/142
f 147/147/147 146/146/146 145/145/145
f 150/150/150 149/149/149 148/148/148
f 153/153/153 152/152/152 151/151/151
f 156/156/156 155/155/155 154/154/154
f 159/159/159 158/158/158 157/157/157
f 162/162/162 161/161/161 160/160/160
f 165/165/165 164/164/164 163/163/163
f 168/168/168 167/167/167 166/166/166
f 171/171/171 170/170/170 169/169/169
f 174/174/174 173/173/173 172/172/172
f 177/177/177 176/176/176 175/175/175
f 180/180/180 179/179/179 178/178/178
f 183/183/183 182/182/182 181/181/181
f 186/186/186 185/185/185 184/184/184
f 189/189/189 188/188/188 187/187/187
f 192/192/192 191/191/191 190/190/190
f 195/195/195 194/194/194 193/193/193
f 198/198/198 197/197/197 196/196/196
f 201/201/201 200/200/200 199/199/199
f 204/204/204 203/203/203 202/202/202
f 207/207/207 206/206/206 205/205/205
f 210/210/210 209/209/209 208/208/208
f 213/213/213 212/212/212 211/211/211
f 216/216/216 215/215/215 214/214/214
f 219/219/219 218/218/218 217/217/217
f 222/222/222 221/221/221 220/220/220
f 225/225/225 224/224/224 223/223/223
f 228/228/228 227/227/227 226/226/226
f 231/231/231 230/230/230 229/229/229
f 234/234/234 233/233/233 232/232/232
f 237/237/237 236/236/236 235/235/235
f 238/238/238 235/235/235 236/236/236
