g Rock_13
v 0.29972333 -1.8552629 -0.70958495
v -1.891982 -0.76876324 -1.1594993
v -0.2897947 -2.296045 -0.9361731
v -0.19228995 -2.3713717 -0.4135394
v -2.129311 -0.77631843 -0.71601844
v 0.15696126 -1.9310864 -0.14881206
v -0.2961132 2.578017 -0.37746644
v 0.1814734 2.1038728 1.7163198
v -1.5751727 1.3880597 1.1283654
v -1.5751727 1.3880597 1.1283654
v -2.2062879 1.0333548 -0.96400607
v -0.2961132 2.578017 -0.37746644
v 1.2990915 0.75278574 1.6393982
v 1.5773402 0.30136627 1.9043518
v 0.85966617 0.42396718 2.925023
v -2.3417094 0.97335964 -0.1278429
v -2.2062879 1.0333548 -0.96400607
v -1.5751727 1.3880597 1.1283654
v -2.2062879 1.0333548 -0.96400607
v -0.88851845 1.7422409 -0.6520026
v -0.2961132 2.578017 -0.37746644
v 0.4748162 0.93885654 1.7785907
v 1.1981595 1.4390802 1.9023705
v 1.2990915 0.75278574 1.6393982
v -1.7789145 0.43690145 2.19898
v -0.6431473 0.9403228 2.6230888
v -1.5623637 -0.6876978 2.0065238
v 0.8194458 -0.86145085 3.10293
v -0.23621592 -1.3227363 2.9267216
v 0.66222686 0.1589835 3.3424997
v -0.8624494 0.87270814 3.6889682
v -0.90488046 0.40329427 3.4436526
v 0.5811535 -0.02950912 3.895648
v -2.3417094 0.97335964 -0.1278429
v -1.7789145 0.43690145 2.19898
v -2.129311 -0.77631843 -0.71601844
v -2.129311 -0.77631843 -0.71601844
v -1.7789145 0.43690145 2.19898
v -1.5623637 -0.6876978 2.0065238
v -1.1313707 -1.0932429 -0.3874166
v 0.15696126 -1.9310864 -0.14881206
v -2.129311 -0.77631843 -0.71601844
v 2.2312381 -0.0017840788 2.0699606
v 2.3292167 -1.0486668 1.7875512
v 1.3821512 -0.9790969 1.7745156
v 1.2990915 0.75278574 1.6393982
v 1.8312324 0.92516726 0.12016344
v 1.5773402 0.30136627 1.9043518
v 1.8312324 0.92516726 0.12016344
v 1.8379985 0.27422905 -0.044760704
v 1.5773402 0.30136627 1.9043518
v 1.5773402 0.30136627 1.9043518
v 2.2312381 -0.0017840788 2.0699606
v 1.3821512 -0.9790969 1.7745156
v 0.85966617 0.42396718 2.925023
v 0.41334903 0.65013677 3.4499068
v 0.26315993 0.69768107 2.720261
v 1.0298132 -0.84643126 2.5886235
v 0.3756994 -1.880467 1.908382
v 0.1621764 -1.4728179 2.1055791
v -1.7008116 -0.3637616 2.990058
v -1.1650447 -1.1326379 3.279358
v -1.5178171 -0.83843756 2.668528
v 0.66222686 0.1589835 3.3424997
v 0.5811535 -0.02950912 3.895648
v 0.41334903 0.65013677 3.4499068
v -0.4066214 0.9830509 3.6819615
v 0.41334903 0.65013677 3.4499068
v 0.5811535 -0.02950912 3.895648
v -0.4066214 0.9830509 3.6819615
v -0.90488046 0.40329427 3.4436526
v -0.6090647 0.8340364 3.3299403
v -1.7008116 -0.3637616 2.990058
v -1.5178171 -0.83843756 2.668528
v -0.9957273 0.23851776 3.0278149
v -0.4066214 0.9830509 3.6819615
v 0.5811535 -0.02950912 3.895648
v -0.90488046 0.40329427 3.4436526
v -0.9957273 0.23851776 3.0278149
v -0.90488046 0.40329427 3.4436526
v -1.7008116 -0.3637616 2.990058
v -0.90488046 0.40329427 3.4436526
v -0.8624494 0.87270814 3.6889682
v -1.7008116 -0.3637616 2.990058
v -1.5623637 -0.6876978 2.0065238
v -0.9733183 -1.038939 1.7621396
v -1.1313707 -1.0932429 -0.3874166
v -2.129311 -0.77631843 -0.71601844
v -0.88403565 -1.3538842 2.5617461
v 0.21683356 -1.4967567 2.7778492
v 0.1621764 -1.4728179 2.1055791
v -0.9733183 -1.038939 1.7621396
v -0.81657565 0.73220533 4.562139
v -0.8624494 0.87270814 3.6889682
v 0.5811535 -0.02950912 3.895648
v 0.34360182 -0.0025747642 4.654235
v -2.129311 -0.77631843 -0.71601844
v -0.19228995 -2.3713717 -0.4135394
v -0.2897947 -2.296045 -0.9361731
v -1.891982 -0.76876324 -1.1594993
v 0.29972333 -1.8552629 -0.70958495
v -0.2897947 -2.296045 -0.9361731
v -0.19228995 -2.3713717 -0.4135394
v 0.15696126 -1.9310864 -0.14881206
v 1.5718971 1.6265328 0.076385975
v 1.1981595 1.4390802 1.9023705
v 0.1814734 2.1038728 1.7163198
v -0.2961132 2.578017 -0.37746644
v 2.3292167 -1.0486668 1.7875512
v 2.2312381 -0.0017840788 2.0699606
v 2.568438 0.11874757 0.17432594
v 2.5910344 -0.998206 0.082347155
v 0.4748162 0.93885654 1.7785907
v 0.26315993 0.69768107 2.720261
v -0.6431473 0.9403228 2.6230888
v -1.5751727 1.3880597 1.1283654
v 1.4535673 -1.398245 -0.2776358
v 1.8379985 0.27422905 -0.044760704
v 1.8312324 0.92516726 0.12016344
v -0.88851845 1.7422409 -0.6520026
v 0.72364515 -2.303617 -0.6553478
v 0.29972333 -1.8552629 -0.70958495
v -1.891982 -0.76876324 -1.1594993
v -2.2062879 1.0333548 -0.96400607
v 1.8312324 0.92516726 0.12016344
v -0.2961132 2.578017 -0.37746644
v 1.5718971 1.6265328 0.076385975
v 1.0298132 -0.84643126 2.5886235
v 0.85966617 0.42396718 2.925023
v 1.5773402 0.30136627 1.9043518
v 1.3821512 -0.9790969 1.7745156
v 1.4535673 -1.398245 -0.2776358
v 0.72364515 -2.303617 -0.6553478
v 0.3756994 -1.880467 1.908382
v 1.0298132 -0.84643126 2.5886235
v 1.3821512 -0.9790969 1.7745156
v 0.4748162 0.93885654 1.7785907
v 1.2990915 0.75278574 1.6393982
v 0.85966617 0.42396718 2.925023
v 0.26315993 0.69768107 2.720261
v -2.3417094 0.97335964 -0.1278429
v -1.5751727 1.3880597 1.1283654
v -0.6431473 0.9403228 2.6230888
v -1.7789145 0.43690145 2.19898
v -1.5751727 1.3880597 1.1283654
v 0.1814734 2.1038728 1.7163198
v 1.1981595 1.4390802 1.9023705
v 0.4748162 0.93885654 1.7785907
v 1.2990915 0.75278574 1.6393982
v 1.1981595 1.4390802 1.9023705
v 1.5718971 1.6265328 0.076385975
v 1.8312324 0.92516726 0.12016344
v 2.5910344 -0.998206 0.082347155
v 1.4535673 -1.398245 -0.2776358
v 1.3821512 -0.9790969 1.7745156
v 2.3292167 -1.0486668 1.7875512
v 2.568438 0.11874757 0.17432594
v 2.2312381 -0.0017840788 2.0699606
v 1.5773402 0.30136627 1.9043518
v 1.8379985 0.27422905 -0.044760704
v 1.8379985 0.27422905 -0.044760704
v 1.4535673 -1.398245 -0.2776358
v 2.5910344 -0.998206 0.082347155
v 2.568438 0.11874757 0.17432594
v -1.5178171 -0.83843756 2.668528
v -0.88403565 -1.3538842 2.5617461
v -0.9733183 -1.038939 1.7621396
v -1.5623637 -0.6876978 2.0065238
v 0.72364515 -2.303617 -0.6553478
v 0.29972333 -1.8552629 -0.70958495
v 0.15696126 -1.9310864 -0.14881206
v 0.3756994 -1.880467 1.908382
v -0.9733183 -1.038939 1.7621396
v -1.1313707 -1.0932429 -0.3874166
v 0.1621764 -1.4728179 2.1055791
v -2.129311 -0.77631843 -0.71601844
v -1.891982 -0.76876324 -1.1594993
v -2.2062879 1.0333548 -0.96400607
v -2.3417094 0.97335964 -0.1278429
v 1.0298132 -0.84643126 2.5886235
v 0.8194458 -0.86145085 3.10293
v 0.66222686 0.1589835 3.3424997
v 0.85966617 0.42396718 2.925023
v 0.41334903 0.65013677 3.4499068
v 0.1621764 -1.4728179 2.1055791
v 0.21683356 -1.4967567 2.7778492
v 0.8194458 -0.86145085 3.10293
v 1.0298132 -0.84643126 2.5886235
v -1.5178171 -0.83843756 2.668528
v -1.1650447 -1.1326379 3.279358
v -0.27627638 -1.2921925 3.3305135
v -0.23621592 -1.3227363 2.9267216
v 0.66222686 0.1589835 3.3424997
v -0.23621592 -1.3227363 2.9267216
v -0.27627638 -1.2921925 3.3305135
v 0.4772359 -0.83943117 3.7529655
v 0.5811535 -0.02950912 3.895648
v -0.6090647 0.8340364 3.3299403
v -0.6431473 0.9403228 2.6230888
v 0.26315993 0.69768107 2.720261
v 0.41334903 0.65013677 3.4499068
v -0.4066214 0.9830509 3.6819615
v -0.90488046 0.40329427 3.4436526
v -0.9957273 0.23851776 3.0278149
v -0.6431473 0.9403228 2.6230888
v -0.6090647 0.8340364 3.3299403
v -0.23621592 -1.3227363 2.9267216
v 0.8194458 -0.86145085 3.10293
v 0.21683356 -1.4967567 2.7778492
v -0.88403565 -1.3538842 2.5617461
v -1.5178171 -0.83843756 2.668528
v -0.6431473 0.9403228 2.6230888
v -0.9957273 0.23851776 3.0278149
v -1.5178171 -0.83843756 2.668528
v -1.5623637 -0.6876978 2.0065238
v 0.4772359 -0.83943117 3.7529655
v 0.46877223 -1.0436492 4.358799
v 0.34360182 -0.0025747642 4.654235
v 0.5811535 -0.02950912 3.895648
v -0.8624494 0.87270814 3.6889682
v -0.81657565 0.73220533 4.562139
v -1.6938643 -0.3644054 3.7631197
v -1.7008116 -0.3637616 2.990058
v 0.4772359 -0.83943117 3.7529655
v -0.27627638 -1.2921925 3.3305135
v -0.25383607 -1.5221211 3.842504
v 0.46877223 -1.0436492 4.358799
v -1.017843 -0.8321395 4.0891232
v 0.34360182 -0.0025747642 4.654235
v 0.46877223 -1.0436492 4.358799
v -0.25383607 -1.5221211 3.842504
v -1.7008116 -0.3637616 2.990058
v -1.6938643 -0.3644054 3.7631197
v -1.017843 -0.8321395 4.0891232
v -1.1650447 -1.1326379 3.279358
v -0.25383607 -1.5221211 3.842504
v -0.27627638 -1.2921925 3.3305135
v -1.1650447 -1.1326379 3.279358
v -1.017843 -0.8321395 4.0891232
v -1.017843 -0.8321395 4.0891232
v -1.6938643 -0.3644054 3.7631197
v -0.81657565 0.73220533 4.562139
v 0.34360182 -0.0025747642 4.654235
vt 0.6225586 0.5830078
vt 0.61865234 0.63916016
vt 0.6333008 0.5917969
vt 0.6225586 0.43164062
vt 0.6323242 0.48388672
vt 0.6347656 0.42871094
vt 0.5756836 0.45483398
vt 0.5258789 0.4477539
vt 0.53515625 0.48876953
vt 0.53515625 0.48876953
vt 0.57714844 0.50439453
vt 0.5756836 0.45483398
vt 0.37475586 0.5161133
vt 0.38183594 0.53125
vt 0.40625 0.51708984
vt 0.5234375 0.39575195
vt 0.5263672 0.41748047
vt 0.5449219 0.37475586
vt 0.38916016 0.45898438
vt 0.3647461 0.4423828
vt 0.33911133 0.43920898
vt 0.6430664 0.3947754
vt 0.6303711 0.40722656
vt 0.64453125 0.40942383
vt 0.58691406 0.60009766
vt 0.6064453 0.6328125
vt 0.6069336 0.5834961
vt 0.59375 0.51416016
vt 0.60302734 0.5263672
vt 0.6201172 0.51220703
vt 0.5605469 0.6274414
vt 0.56689453 0.64404297
vt 0.56591797 0.62353516
vt 0.48754883 0.33398438
vt 0.4404297 0.35595703
vt 0.48217773 0.36987305
vt 0.48217773 0.36987305
vt 0.4404297 0.35595703
vt 0.4387207 0.37353516
vt 0.63671875 0.46557617
vt 0.6347656 0.42871094
vt 0.6323242 0.48388672
vt 0.44360352 0.61621094
vt 0.43945312 0.6381836
vt 0.45751953 0.63720703
vt 0.37475586 0.5161133
vt 0.3388672 0.52197266
vt 0.38183594 0.53125
vt 0.3388672 0.52197266
vt 0.33911133 0.53271484
vt 0.38183594 0.53125
vt 0.46118164 0.609375
vt 0.44360352 0.61621094
vt 0.45751953 0.63720703
vt 0.3642578 0.60498047
vt 0.3503418 0.6142578
vt 0.36376953 0.61572266
vt 0.37597656 0.6064453
vt 0.3852539 0.6376953
vt 0.39086914 0.62841797
vt 0.6015625 0.640625
vt 0.59765625 0.6621094
vt 0.60546875 0.6645508
vt 0.34106445 0.5957031
vt 0.33520508 0.5996094
vt 0.34838867 0.60546875
vt 0.3449707 0.63134766
vt 0.34838867 0.60546875
vt 0.33520508 0.5996094
vt 0.5541992 0.51171875
vt 0.55126953 0.52783203
vt 0.55810547 0.51904297
vt 0.5683594 0.38256836
vt 0.58496094 0.39160156
vt 0.57128906 0.3623047
vt 0.62841797 0.515625
vt 0.6303711 0.5439453
vt 0.6484375 0.5136719
vt 0.55810547 0.5361328
vt 0.55126953 0.53515625
vt 0.5522461 0.55810547
vt 0.56689453 0.64404297
vt 0.5605469 0.6274414
vt 0.5644531 0.66015625
vt 0.60839844 0.4260254
vt 0.5991211 0.4260254
vt 0.58496094 0.4794922
vt 0.60302734 0.48876953
vt 0.6640625 0.46704102
vt 0.66015625 0.4411621
vt 0.64697266 0.44580078
vt 0.6455078 0.4699707
vt 0.5258789 0.6279297
vt 0.5517578 0.6357422
vt 0.5517578 0.6010742
vt 0.53271484 0.6015625
vt 0.49291992 0.37890625
vt 0.49145508 0.41064453
vt 0.5019531 0.4104004
vt 0.5024414 0.3779297
vt 0.51416016 0.47851562
vt 0.51708984 0.46557617
vt 0.5073242 0.46899414
vt 0.50341797 0.47680664
vt 0.33325195 0.5058594
vt 0.37841797 0.50341797
vt 0.3779297 0.4741211
vt 0.33642578 0.46899414
vt 0.3798828 0.56591797
vt 0.38256836 0.5493164
vt 0.33691406 0.5488281
vt 0.33764648 0.5678711
vt 0.5151367 0.62060547
vt 0.48876953 0.61865234
vt 0.48779297 0.6279297
vt 0.5161133 0.65185547
vt 0.40161133 0.35327148
vt 0.3618164 0.3659668
vt 0.34887695 0.37426758
vt 0.3647461 0.4423828
vt 0.4296875 0.35961914
vt 0.4230957 0.39746094
vt 0.43066406 0.4404297
vt 0.4008789 0.46044922
vt 0.34887695 0.37426758
vt 0.33911133 0.43920898
vt 0.33544922 0.3864746
vt 0.40356445 0.54541016
vt 0.40625 0.51708984
vt 0.38183594 0.53125
vt 0.38378906 0.5493164
vt 0.5053711 0.50683594
vt 0.5161133 0.4892578
vt 0.45214844 0.48950195
vt 0.43896484 0.5083008
vt 0.45947266 0.51123047
vt 0.38232422 0.5029297
vt 0.37475586 0.5161133
vt 0.40625 0.51708984
vt 0.40551758 0.50390625
vt 0.5234375 0.39575195
vt 0.5449219 0.37475586
vt 0.5522461 0.33496094
vt 0.5307617 0.3413086
vt 0.6386719 0.34545898
vt 0.6176758 0.38110352
vt 0.6303711 0.40722656
vt 0.6430664 0.3947754
vt 0.37475586 0.5161133
vt 0.37841797 0.50341797
vt 0.33325195 0.5058594
vt 0.3388672 0.52197266
vt 0.5029297 0.5341797
vt 0.5053711 0.50683594
vt 0.45947266 0.51123047
vt 0.46069336 0.5336914
vt 0.33691406 0.5488281
vt 0.38256836 0.5493164
vt 0.38183594 0.53125
vt 0.33911133 0.53271484
vt 0.3618164 0.3659668
vt 0.40161133 0.35327148
vt 0.37890625 0.33374023
vt 0.35668945 0.34765625
vt 0.5151367 0.546875
vt 0.49560547 0.55029297
vt 0.5019531 0.5644531
vt 0.5161133 0.55810547
vt 0.5161133 0.4892578
vt 0.51416016 0.47851562
vt 0.50341797 0.47680664
vt 0.45214844 0.48950195
vt 0.4482422 0.45776367
vt 0.50097656 0.4453125
vt 0.44873047 0.46923828
vt 0.48217773 0.36987305
vt 0.5024414 0.3779297
vt 0.5078125 0.3359375
vt 0.48754883 0.33398438
vt 0.3635254 0.5756836
vt 0.34985352 0.57958984
vt 0.35180664 0.60009766
vt 0.3642578 0.60498047
vt 0.3503418 0.6142578
vt 0.64697266 0.44580078
vt 0.66015625 0.4411621
vt 0.6665039 0.42529297
vt 0.65185547 0.4309082
vt 0.43017578 0.53125
vt 0.4206543 0.53515625
vt 0.4177246 0.55615234
vt 0.42822266 0.5576172
vt 0.6660156 0.65966797
vt 0.6660156 0.6328125
vt 0.6582031 0.640625
vt 0.66064453 0.65722656
vt 0.65966797 0.66503906
vt 0.3503418 0.6328125
vt 0.36401367 0.63671875
vt 0.36376953 0.61572266
vt 0.3503418 0.6142578
vt 0.3449707 0.63134766
vt 0.5566406 0.52783203
vt 0.55810547 0.5361328
vt 0.5732422 0.5253906
vt 0.55810547 0.51904297
vt 0.60302734 0.5263672
vt 0.59375 0.51416016
vt 0.5854492 0.52734375
vt 0.59228516 0.5566406
vt 0.6074219 0.56933594
vt 0.5732422 0.5253906
vt 0.55810547 0.53808594
vt 0.56103516 0.56640625
vt 0.57373047 0.5703125
vt 0.5463867 0.578125
vt 0.53759766 0.5805664
vt 0.53271484 0.6015625
vt 0.5493164 0.5966797
vt 0.54833984 0.51953125
vt 0.5288086 0.51660156
vt 0.54003906 0.5522461
vt 0.5522461 0.55810547
vt 0.4152832 0.5751953
vt 0.40844727 0.60546875
vt 0.41625977 0.5961914
vt 0.4255371 0.57714844
vt 0.48046875 0.56640625
vt 0.4440918 0.5854492
vt 0.46435547 0.60009766
vt 0.4855957 0.5883789
vt 0.41015625 0.63623047
vt 0.4177246 0.6333008
vt 0.42700195 0.6147461
vt 0.4111328 0.62109375
vt 0.41625977 0.5961914
vt 0.40844727 0.60546875
vt 0.4111328 0.62109375
vt 0.42700195 0.6147461
vt 0.48046875 0.56640625
vt 0.4802246 0.546875
vt 0.44482422 0.55371094
vt 0.4440918 0.5854492
vn 0.26416016 0.13745117 -0.95458984
vn 0.26416016 0.13745117 -0.95458984
vn 0.26416016 0.13745117 -0.95458984
vn -0.3540039 -0.25952148 0.8984375
vn -0.3540039 -0.25952148 0.8984375
vn -0.3540039 -0.25952148 0.8984375
vn -0.44335938 0.84716797 0.29296875
vn -0.44335938 0.84716797 0.29296875
vn -0.44335938 0.84716797 0.29296875
vn -0.63916016 0.76660156 0.06286621
vn -0.63916016 0.76660156 0.06286621
vn -0.63916016 0.76660156 0.06286621
vn 0.6635742 0.6381836 0.39013672
vn 0.6635742 0.6381836 0.39013672
vn 0.6635742 0.6381836 0.39013672
vn -0.46166992 0.88720703 -0.011123657
vn -0.46166992 0.88720703 -0.011123657
vn -0.46166992 0.88720703 -0.011123657
vn 0.093566895 0.25024414 -0.9638672
vn 0.093566895 0.25024414 -0.9638672
vn 0.093566895 0.25024414 -0.9638672
vn 0.07965088 -0.34643555 0.9345703
vn 0.07965088 -0.34643555 0.9345703
vn 0.07965088 -0.34643555 0.9345703
vn -0.25854492 -0.21105957 0.9428711
vn -0.25854492 -0.21105957 0.9428711
vn -0.25854492 -0.21105957 0.9428711
vn -0.058441162 -0.23669434 0.96972656
vn -0.058441162 -0.23669434 0.96972656
vn -0.058441162 -0.23669434 0.96972656
vn 0.37182617 0.4033203 -0.8359375
vn 0.37182617 0.4033203 -0.8359375
vn 0.37182617 0.4033203 -0.8359375
vn -0.96435547 -0.18151855 0.19152832
vn -0.96435547 -0.18151855 0.19152832
vn -0.96435547 -0.18151855 0.19152832
vn -0.9536133 -0.21887207 0.20568848
vn -0.9536133 -0.21887207 0.20568848
vn -0.9536133 -0.21887207 0.20568848
vn -0.39379883 -0.36523438 0.84375
vn -0.39379883 -0.36523438 0.84375
vn -0.39379883 -0.36523438 0.84375
vn -0.032592773 -0.2631836 0.96435547
vn -0.032592773 -0.2631836 0.96435547
vn -0.032592773 -0.2631836 0.96435547
vn 0.7109375 0.62597656 0.32006836
vn 0.7109375 0.62597656 0.32006836
vn 0.7109375 0.62597656 0.32006836
vn 0.99072266 -0.023361206 0.1328125
vn 0.99072266 -0.023361206 0.1328125
vn 0.99072266 -0.023361206 0.1328125
vn -0.26953125 -0.056365967 0.9614258
vn -0.26953125 -0.056365967 0.9614258
vn -0.26953125 -0.056365967 0.9614258
vn 0.42504883 0.90478516 -0.028518677
vn 0.42504883 0.90478516 -0.028518677
vn 0.42504883 0.90478516 -0.028518677
vn -0.13012695 -0.48608398 0.8642578
vn -0.13012695 -0.48608398 0.8642578
vn -0.13012695 -0.48608398 0.8642578
vn -0.8359375 -0.4897461 0.24707031
vn -0.8359375 -0.4897461 0.24707031
vn -0.8359375 -0.4897461 0.24707031
vn 0.8828125 0.38989258 0.26220703
vn 0.8828125 0.38989258 0.26220703
vn 0.8828125 0.38989258 0.26220703
vn 0.42919922 0.56689453 0.703125
vn 0.42919922 0.56689453 0.703125
vn 0.42919922 0.56689453 0.703125
vn -0.78222656 0.58984375 0.20007324
vn -0.78222656 0.58984375 0.20007324
vn -0.78222656 0.58984375 0.20007324
vn -0.33007812 0.4387207 -0.8359375
vn -0.33007812 0.4387207 -0.8359375
vn -0.33007812 0.4387207 -0.8359375
vn -0.3190918 -0.11260986 0.94091797
vn -0.3190918 -0.11260986 0.94091797
vn -0.3190918 -0.11260986 0.94091797
vn -0.63623047 0.7548828 -0.16015625
vn -0.63623047 0.7548828 -0.16015625
vn -0.63623047 0.7548828 -0.16015625
vn 0.064331055 0.45751953 -0.88671875
vn 0.064331055 0.45751953 -0.88671875
vn 0.064331055 0.45751953 -0.88671875
vn -0.39038086 -0.9165039 0.08502197
vn -0.39038086 -0.9165039 0.08502197
vn -0.39038086 -0.9165039 0.08502197
vn -0.39038086 -0.9165039 0.08502197
vn -0.19702148 -0.95947266 -0.20166016
vn -0.19702148 -0.95947266 -0.20166016
vn -0.19702148 -0.95947266 -0.20166016
vn -0.19702148 -0.95947266 -0.20166016
vn 0.5185547 0.8466797 0.11981201
vn 0.5185547 0.8466797 0.11981201
vn 0.5185547 0.8466797 0.11981201
vn 0.5185547 0.8466797 0.11981201
vn -0.6401367 -0.7519531 -0.15710449
vn -0.6401367 -0.7519531 -0.15710449
vn -0.6401367 -0.7519531 -0.15710449
vn -0.6401367 -0.7519531 -0.15710449
vn 0.70166016 -0.7089844 -0.06958008
vn 0.70166016 -0.7089844 -0.06958008
vn 0.70166016 -0.7089844 -0.06958008
vn 0.70166016 -0.7089844 -0.06958008
vn 0.46118164 0.8769531 0.13574219
vn 0.46118164 0.8769531 0.13574219
vn 0.46118164 0.8769531 0.13574219
vn 0.46118164 0.8769531 0.13574219
vn 0.98583984 0.02633667 0.1652832
vn 0.98583984 0.02633667 0.1652832
vn 0.98583984 0.02633667 0.1652832
vn 0.98583984 0.02633667 0.1652832
vn 0.16870117 0.9604492 0.22167969
vn 0.16870117 0.9604492 0.22167969
vn 0.16870117 0.9604492 0.22167969
vn 0.16870117 0.9604492 0.22167969
vn 0.2607422 0.114746094 -0.9584961
vn 0.2607422 0.114746094 -0.9584961
vn 0.2607422 0.114746094 -0.9584961
vn 0.2607422 0.114746094 -0.9584961
vn 0.2607422 0.114746094 -0.9584961
vn 0.2607422 0.114746094 -0.9584961
vn 0.2607422 0.114746094 -0.9584961
vn 0.2607422 0.114746094 -0.9584961
vn 0.28637695 0.08123779 -0.95458984
vn 0.28637695 0.08123779 -0.95458984
vn 0.28637695 0.08123779 -0.95458984
vn 0.85302734 -0.10192871 0.51171875
vn 0.85302734 -0.10192871 0.51171875
vn 0.85302734 -0.10192871 0.51171875
vn 0.85302734 -0.10192871 0.51171875
vn 0.68847656 -0.6899414 0.22302246
vn 0.68847656 -0.6899414 0.22302246
vn 0.68847656 -0.6899414 0.22302246
vn 0.68847656 -0.6899414 0.22302246
vn 0.68847656 -0.6899414 0.22302246
vn 0.27929688 0.90771484 0.31396484
vn 0.27929688 0.90771484 0.31396484
vn 0.27929688 0.90771484 0.31396484
vn 0.27929688 0.90771484 0.31396484
vn -0.66748047 0.6152344 0.4194336
vn -0.66748047 0.6152344 0.4194336
vn -0.66748047 0.6152344 0.4194336
vn -0.66748047 0.6152344 0.4194336
vn -0.2685547 -0.01612854 0.9633789
vn -0.2685547 -0.01612854 0.9633789
vn -0.2685547 -0.01612854 0.9633789
vn -0.2685547 -0.01612854 0.9633789
vn 0.9399414 0.20043945 0.27612305
vn 0.9399414 0.20043945 0.27612305
vn 0.9399414 0.20043945 0.27612305
vn 0.9399414 0.20043945 0.27612305
vn 0.13659668 -0.9848633 0.10876465
vn 0.13659668 -0.9848633 0.10876465
vn 0.13659668 -0.9848633 0.10876465
vn 0.13659668 -0.9848633 0.10876465
vn 0.29638672 0.9526367 0.06921387
vn 0.29638672 0.9526367 0.06921387
vn 0.29638672 0.9526367 0.06921387
vn 0.29638672 0.9526367 0.06921387
vn 0.28637695 0.07409668 -0.9550781
vn 0.28637695 0.07409668 -0.9550781
vn 0.28637695 0.07409668 -0.9550781
vn 0.28637695 0.07409668 -0.9550781
vn -0.6035156 -0.7739258 -0.19140625
vn -0.6035156 -0.7739258 -0.19140625
vn -0.6035156 -0.7739258 -0.19140625
vn -0.6035156 -0.7739258 -0.19140625
vn -0.5444336 -0.8334961 0.095825195
vn -0.5444336 -0.8334961 0.095825195
vn -0.5444336 -0.8334961 0.095825195
vn -0.5444336 -0.8334961 0.095825195
vn -0.5444336 -0.8334961 0.095825195
vn -0.5444336 -0.8334961 0.095825195
vn -0.5444336 -0.8334961 0.095825195
vn -0.9560547 -0.07940674 -0.28271484
vn -0.9560547 -0.07940674 -0.28271484
vn -0.9560547 -0.07940674 -0.28271484
vn -0.9560547 -0.07940674 -0.28271484
vn 0.8955078 0.07635498 0.43823242
vn 0.8955078 0.07635498 0.43823242
vn 0.8955078 0.07635498 0.43823242
vn 0.8955078 0.07635498 0.43823242
vn 0.8955078 0.07635498 0.43823242
vn 0.63183594 -0.7729492 0.057525635
vn 0.63183594 -0.7729492 0.057525635
vn 0.63183594 -0.7729492 0.057525635
vn 0.63183594 -0.7729492 0.057525635
vn -0.25830078 -0.9511719 -0.16760254
vn -0.25830078 -0.9511719 -0.16760254
vn -0.25830078 -0.9511719 -0.16760254
vn -0.25830078 -0.9511719 -0.16760254
vn 0.859375 -0.43066406 -0.2758789
vn 0.859375 -0.43066406 -0.2758789
vn 0.859375 -0.43066406 -0.2758789
vn 0.859375 -0.43066406 -0.2758789
vn 0.859375 -0.43066406 -0.2758789
vn 0.21362305 0.9760742 -0.046203613
vn 0.21362305 0.9760742 -0.046203613
vn 0.21362305 0.9760742 -0.046203613
vn 0.21362305 0.9760742 -0.046203613
vn 0.21362305 0.9760742 -0.046203613
vn -0.8520508 0.51904297 0.06781006
vn -0.8520508 0.51904297 0.06781006
vn -0.8520508 0.51904297 0.06781006
vn -0.8520508 0.51904297 0.06781006
vn -0.17114258 -0.66503906 0.7265625
vn -0.17114258 -0.66503906 0.7265625
vn -0.17114258 -0.66503906 0.7265625
vn -0.17114258 -0.66503906 0.7265625
vn -0.17114258 -0.66503906 0.7265625
vn -0.8925781 0.4411621 0.0949707
vn -0.8925781 0.4411621 0.0949707
vn -0.8925781 0.4411621 0.0949707
vn -0.8925781 0.4411621 0.0949707
vn 0.984375 -0.029785156 0.17358398
vn 0.984375 -0.029785156 0.17358398
vn 0.984375 -0.029785156 0.17358398
vn 0.984375 -0.029785156 0.17358398
vn -0.8256836 0.55908203 0.07446289
vn -0.8256836 0.55908203 0.07446289
vn -0.8256836 0.55908203 0.07446289
vn -0.8256836 0.55908203 0.07446289
vn 0.6347656 -0.71728516 -0.2866211
vn 0.6347656 -0.71728516 -0.2866211
vn 0.6347656 -0.71728516 -0.2866211
vn 0.6347656 -0.71728516 -0.2866211
vn -0.21789551 -0.3918457 0.89404297
vn -0.21789551 -0.3918457 0.89404297
vn -0.21789551 -0.3918457 0.89404297
vn -0.21789551 -0.3918457 0.89404297
vn -0.7470703 -0.6357422 0.1932373
vn -0.7470703 -0.6357422 0.1932373
vn -0.7470703 -0.6357422 0.1932373
vn -0.7470703 -0.6357422 0.1932373
vn -0.44482422 -0.88964844 0.10455322
vn -0.44482422 -0.88964844 0.10455322
vn -0.44482422 -0.88964844 0.10455322
vn -0.44482422 -0.88964844 0.10455322
vn -0.3557129 -0.22827148 0.90625
vn -0.3557129 -0.22827148 0.90625
vn -0.3557129 -0.22827148 0.90625
vn -0.3557129 -0.22827148 0.90625
g Rock_13_0
f 3/3/3 2/2/2 1/1/1
f 6/6/6 5/5/5 4/4/4
f 9/9/9 8/8/8 7/7/7
f 12/12/12 11/11/11 10/10/10
f 15/15/15 14/14/14 13/13/13
f 18/18/18 17/17/17 16/16/16
f 21/21/21 20/20/20 19/19/19
f 24/24/24 23/23/23 22/22/22
f 27/27/27 26/26/26 25/25/25
f 30/30/30 29/29/29 28/28/28
f 33/33/33 32/32/32 31/31/31
f 36/36/36 35/35/35 34/34/34
f 39/39/39 38/38/38 37/37/37
f 42/42/42 41/41/41 40/40/40
f 45/45/45 44/44/44 43/43/43
f 48/48/48 47/47/47 46/46/46
f 51/51/51 50/50/50 49/49/49
f 54/54/54 53/53/53 52/52/52
f 57/57/57 56/56/56 55/55/55
f 60/60/60 59/59/59 58/58/58
f 63/63/63 62/62/62 61/61/61
f 66/66/66 65/65/65 64/64/64
f 69/69/69 68/68/68 67/67/67
f 72/72/72 71/71/71 70/70/70
f 75/75/75 74/74/74 73/73/73
f 78/78/78 77/77/77 76/76/76
f 81/81/81 80/80/80 79/79/79
f 84/84/84 83/83/83 82/82/82
f 87/87/87 86/86/86 85/85/85
f 88/88/88 87/87/87 85/85/85
f 91/91/91 90/90/90 89/89/89
f 92/92/92 91/91/91 89/89/89
f 95/95/95 94/94/94 93/93/93
f 96/96/96 95/95/95 93/93/93
f 99/99/99 98/98/98 97/97/97
f 100/100/100 99/99/99 97/97/97
f 103/103/103 102/102/102 101/101/101
f 104/104/104 103/103/103 101/101/101
f 107/107/107 106/106/106 105/105/105
f 108/108/108 107/107/107 105/105/105
f 111/111/111 110/110/110 109/109/109
f 112/112/112 111/111/111 109/109/109
f 115/115/115 114/114/114 113/113/113
f 116/116/116 115/115/115 113/113/113
f 119/119/119 118/118/118 117/117/117
f 117/117/117 120/120/120 119/119/119
f 117/117/117 121/121/121 120/120/120
f 121/121/121 122/122/122 120/120/120
f 122/122/122 123/123/123 120/120/120
f 123/123/123 124/124/124 120/120/120
f 120/120/120 126/126/126 125/125/125
f 126/126/126 127/127/127 125/125/125
f 130/130/130 129/129/129 128/128/128
f 131/131/131 130/130/130 128/128/128
f 134/134/134 133/133/133 132/132/132
f 132/132/132 135/135/135 134/134/134
f 132/132/132 136/136/136 135/135/135
f 139/139/139 138/138/138 137/137/137
f 140/140/140 139/139/139 137/137/137
f 143/143/143 142/142/142 141/141/141
f 144/144/144 143/143/143 141/141/141
f 147/147/147 146/146/146 145/145/145
f 148/148/148 147/147/147 145/145/145
f 151/151/151 150/150/150 149/149/149
f 152/152/152 151/151/151 149/149/149
f 155/155/155 154/154/154 153/153/153
f 156/156/156 155/155/155 153/153/153
f 159/159/159 158/158/158 157/157/157
f 160/160/160 159/159/159 157/157/157
f 163/163/163 162/162/162 161/161/161
f 164/164/164 163/163/163 161/161/161
f 167/167/167 166/166/166 165/165/165
f 168/168/168 167/167/167 165/165/165
f 171/171/171 170/170/170 169/169/169
f 169/169/169 172/172/172 171/171/171
f 172/172/172 173/173/173 171/171/171
f 174/174/174 171/171/171 173/173/173
f 172/172/172 175/175/175 173/173/173
f 178/178/178 177/177/177 176/176/176
f 179/179/179 178/178/178 176/176/176
f 182/182/182 181/181/181 180/180/180
f 180/180/180 183/183/183 182/182/182
f 183/183/183 184/184/184 182/182/182
f 187/187/187 186/186/186 185/185/185
f 188/188/188 187/187/187 185/185/185
f 191/191/191 190/190/190 189/189/189
f 192/192/192 191/191/191 189/189/189
f 195/195/195 194/194/194 193/193/193
f 193/193/193 196/196/196 195/195/195
f 193/193/193 197/197/197 196/196/196
f 200/200/200 199/199/199 198/198/198
f 198/198/198 201/201/201 200/200/200
f 198/198/198 202/202/202 201/201/201
f 205/205/205 204/204/204 203/203/203
f 206/206/206 205/205/205 203/203/203
f 209/209/209 208/208/208 207/207/207
f 207/207/207 210/210/210 209/209/209
f 207/207/207 211/211/211 210/210/210
f 214/214/214 213/213/213 212/212/212
f 215/215/215 214/214/214 212/212/212
f 218/218/218 217/217/217 216/216/216
f 219/219/219 218/218/218 216/216/216
f 222/222/222 221/221/221 220/220/220
f 223/223/223 222/222/222 220/220/220
f 226/226/226 225/225/225 224/224/224
f 227/227/227 226/226/226 224/224/224
f 230/230/230 229/229/229 228/228/228
f 231/231/231 230/230/230 228/228/228
f 234/234/234 233/233/233 232/232/232
f 235/235/235 234/234/234 232/232/232
f 238/238/238 237/237/237 236/236/236
f 239/239/239 238/238/238 236/236/236
f 242/242/242 241/241/241 240/240/240
f 243/243/243 242/242/242 240/240/240
