g Rock_15
v 1.0891124 0.5415938 1.7227577
v 0.7252382 1.2405484 -0.22379982
v 1.0921168 -0.53200203 -0.23947966
v -0.6278998 -1.3354281 -0.19972122
v 0.37121248 -0.9153123 1.7354324
v 0.88654685 -0.95439196 -0.2299267
v -0.6278998 -1.3354281 -0.19972122
v -0.9025394 -0.64451706 1.7310699
v 0.37121248 -0.9153123 1.7354324
v 1.0891124 0.5415938 1.7227577
v 0.29371107 1.0114822 1.7206086
v 0.7252382 1.2405484 -0.22379982
v -0.6278998 -1.3354281 -0.19972122
v -1.1531173 -0.43126822 -0.1926595
v -0.9025394 -0.64451706 1.7310699
v -0.7529556 0.72986484 1.6976095
v -0.9025394 -0.64451706 1.7310699
v -1.1531173 -0.43126822 -0.1926595
v -0.9387437 0.92837524 -0.16579121
v 0.29371107 1.0114822 1.7206086
v 1.0891124 0.5415938 1.7227577
v 0.37121248 -0.9153123 1.7354324
v -0.9025394 -0.64451706 1.7310699
v -0.7529556 0.72986484 1.6976095
v 1.0891124 0.5415938 1.7227577
v 1.0921168 -0.53200203 -0.23947966
v 0.88654685 -0.95439196 -0.2299267
v 0.37121248 -0.9153123 1.7354324
v 0.88654685 -0.95439196 -0.2299267
v 1.0921168 -0.53200203 -0.23947966
v 0.7252382 1.2405484 -0.22379982
v -0.6278998 -1.3354281 -0.19972122
v -0.9387437 0.92837524 -0.16579121
v -1.1531173 -0.43126822 -0.1926595
v 0.29371107 1.0114822 1.7206086
v -0.7529556 0.72986484 1.6976095
v -0.9387437 0.92837524 -0.16579121
v 0.7252382 1.2405484 -0.22379982
vt 0.23950195 0.1430664
vt 0.14367676 0.11645508
vt 0.13928223 0.19702148
vt 0.20935059 0.32592773
vt 0.15917969 0.22961426
vt 0.13745117 0.3305664
vt 0.20935059 0.32592773
vt 0.21875 0.22729492
vt 0.15917969 0.22961426
vt 0.24304199 0.32763672
vt 0.27612305 0.32592773
vt 0.2590332 0.23010254
vt 0.0040359497 0.13684082
vt 0.0026111603 0.17114258
vt 0.10028076 0.15905762
vt 0.10058594 0.23266602
vt 0.10028076 0.15905762
vt 0.0026111603 0.17114258
vt 0.0040397644 0.24255371
vt 0.23510742 0.03048706
vt 0.20227051 0.0037612915
vt 0.14135742 0.05529785
vt 0.17248535 0.111450195
vt 0.23950195 0.08685303
vt 0.23950195 0.1430664
vt 0.13928223 0.19702148
vt 0.1394043 0.21936035
vt 0.2401123 0.21362305
vt 0.042633057 0.005466461
vt 0.02659607 0.023880005
vt 0.019958496 0.11206055
vt 0.114990234 0.017700195
vt 0.10247803 0.12902832
vt 0.13208008 0.06573486
vt 0.27612305 0.32592773
vt 0.3239746 0.32763672
vt 0.33325195 0.23083496
vt 0.2590332 0.23010254
vn 0.97314453 0.20239258 -0.10925293
vn 0.97314453 0.20239258 -0.10925293
vn 0.97314453 0.20239258 -0.10925293
vn 0.24475098 -0.9658203 0.08337402
vn 0.24475098 -0.9658203 0.08337402
vn 0.24475098 -0.9658203 0.08337402
vn -0.19909668 -0.93115234 0.30493164
vn -0.19909668 -0.93115234 0.30493164
vn -0.19909668 -0.93115234 0.30493164
vn 0.49682617 0.84228516 0.20947266
vn 0.49682617 0.84228516 0.20947266
vn 0.49682617 0.84228516 0.20947266
vn -0.86328125 -0.5019531 0.056793213
vn -0.86328125 -0.5019531 0.056793213
vn -0.86328125 -0.5019531 0.056793213
vn -0.98291016 0.13122559 0.12756348
vn -0.98291016 0.13122559 0.12756348
vn -0.98291016 0.13122559 0.12756348
vn -0.98291016 0.13122559 0.12756348
vn -0.0079956055 0.012886047 1
vn -0.0079956055 0.012886047 1
vn -0.0079956055 0.012886047 1
vn -0.0079956055 0.012886047 1
vn -0.0079956055 0.012886047 1
vn 0.8730469 -0.42626953 0.23596191
vn 0.8730469 -0.42626953 0.23596191
vn 0.8730469 -0.42626953 0.23596191
vn 0.8730469 -0.42626953 0.23596191
vn -0.025283813 0.006702423 -0.9995117
vn -0.025283813 0.006702423 -0.9995117
vn -0.025283813 0.006702423 -0.9995117
vn -0.025283813 0.006702423 -0.9995117
vn -0.025283813 0.006702423 -0.9995117
vn -0.025283813 0.006702423 -0.9995117
vn -0.21179199 0.97265625 0.09552002
vn -0.21179199 0.97265625 0.09552002
vn -0.21179199 0.97265625 0.09552002
vn -0.21179199 0.97265625 0.09552002
g Rock_15_0
f 3/3/3 2/2/2 1/1/1
f 6/6/6 5/5/5 4/4/4
f 9/9/9 8/8/8 7/7/7
f 12/12/12 11/11/11 10/10/10
f 15/15/15 14/14/14 13/13/13
f 18/18/18 17/17/17 16/16/16
f 19/19/19 18/18/18 16/16/16
f 22/22/22 21/21/21 20/20/20
f 20/20/20 23/23/23 22/22/22
f 20/20/20 24/24/24 23/23/23
f 27/27/27 26/26/26 25/25/25
f 28/28/28 27/27/27 25/25/25
f 31/31/31 30/30/30 29/29/29
f 29/29/29 32/32/32 31/31/31
f 32/32/32 33/33/33 31/31/31
f 32/32/32 34/34/34 33/33/33
f 37/37/37 36/36/36 35/35/35
f 38/38/38 37/37/37 35/35/35
