g Rock_11
v 0.160219 0.6911323 -0.18116468
v 0.41489205 0.47958854 -0.29385847
v 0.23162058 0.51942444 1.4292547
v -0.603246 0.3566356 -0.2625485
v 0.41489205 0.47958854 -0.29385847
v 0.160219 0.6911323 -0.18116468
v 0.5283532 -0.6068426 -0.29407477
v 0.03731868 -0.3776869 -0.3157851
v 0.023899037 -0.57114464 -0.16007584
v -0.38422903 -0.30858198 1.4550004
v -0.5188927 0.37571123 1.3255689
v -0.18916549 0.30193254 1.5196123
v -0.18916549 0.30193254 1.5196123
v -0.5188927 0.37571123 1.3255689
v -0.11526655 0.5269865 1.3142567
v 0.23162058 0.51942444 1.4292547
v -0.18916549 0.30193254 1.5196123
v -0.11526655 0.5269865 1.3142567
v 0.03731868 -0.3776869 -0.3157851
v -0.5084797 -0.34571794 -0.27534443
v 0.023899037 -0.57114464 -0.16007584
v 0.4435817 -0.5246723 1.4282726
v 0.23162058 0.51942444 1.4292547
v 0.41489205 0.47958854 -0.29385847
v 0.5283532 -0.6068426 -0.29407477
v 0.023899037 -0.57114464 -0.16007584
v -0.5084797 -0.34571794 -0.27534443
v -0.38422903 -0.30858198 1.4550004
v 0.038188316 -0.48044226 1.4628494
v -0.603246 0.3566356 -0.2625485
v -0.5188927 0.37571123 1.3255689
v -0.38422903 -0.30858198 1.4550004
v -0.5084797 -0.34571794 -0.27534443
v 0.023899037 -0.57114464 -0.16007584
v 0.038188316 -0.48044226 1.4628494
v 0.4435817 -0.5246723 1.4282726
v 0.5283532 -0.6068426 -0.29407477
v -0.5188927 0.37571123 1.3255689
v -0.603246 0.3566356 -0.2625485
v 0.160219 0.6911323 -0.18116468
v -0.11526655 0.5269865 1.3142567
v 0.23162058 0.51942444 1.4292547
v 0.03731868 -0.3776869 -0.3157851
v 0.5283532 -0.6068426 -0.29407477
v 0.41489205 0.47958854 -0.29385847
v -0.603246 0.3566356 -0.2625485
v -0.5084797 -0.34571794 -0.27534443
v 0.23162058 0.51942444 1.4292547
v 0.4435817 -0.5246723 1.4282726
v 0.038188316 -0.48044226 1.4628494
v -0.18916549 0.30193254 1.5196123
v -0.38422903 -0.30858198 1.4550004
vt 0.7919922 0.6821289
vt 0.7651367 0.67333984
vt 0.77783203 0.82958984
vt 0.80566406 0.6855469
vt 0.8886719 0.6928711
vt 0.87402344 0.6665039
vt 0.9477539 0.98876953
vt 0.9692383 0.99365234
vt 0.97509766 0.9794922
vt 0.9277344 0.9868164
vt 0.8720703 0.9765625
vt 0.8823242 0.9941406
vt 0.82666016 0.8144531
vt 0.8051758 0.8310547
vt 0.84033203 0.8330078
vt 0.71972656 0.9453125
vt 0.6821289 0.9394531
vt 0.6977539 0.9560547
vt 0.8486328 0.765625
vt 0.8017578 0.75341797
vt 0.8408203 0.7836914
vt 0.6821289 0.8300781
vt 0.77783203 0.82958984
vt 0.7651367 0.67333984
vt 0.6948242 0.6694336
vt 0.78466797 0.8354492
vt 0.7363281 0.83447266
vt 0.7495117 0.9921875
vt 0.78466797 0.99853516
vt 0.8754883 0.8232422
vt 0.8720703 0.9765625
vt 0.9277344 0.9868164
vt 0.93408203 0.82177734
vt 0.97509766 0.9794922
vt 0.97509766 0.8154297
vt 0.94921875 0.82177734
vt 0.9477539 0.98876953
vt 0.8051758 0.8310547
vt 0.79589844 0.9794922
vt 0.86865234 0.9794922
vt 0.84033203 0.8330078
vt 0.86328125 0.8310547
vt 0.8486328 0.765625
vt 0.875 0.79833984
vt 0.8886719 0.6928711
vt 0.80566406 0.6855469
vt 0.8017578 0.75341797
vt 0.71972656 0.9453125
vt 0.7211914 0.85009766
vt 0.68896484 0.8574219
vt 0.6821289 0.9394531
vt 0.6669922 0.8876953
vn 0.6513672 0.75683594 0.051818848
vn 0.6513672 0.75683594 0.051818848
vn 0.6513672 0.75683594 0.051818848
vn -0.07598877 0.3959961 -0.91503906
vn -0.07598877 0.3959961 -0.91503906
vn -0.07598877 0.3959961 -0.91503906
vn -0.24511719 -0.59765625 -0.7636719
vn -0.24511719 -0.59765625 -0.7636719
vn -0.24511719 -0.59765625 -0.7636719
vn -0.49487305 0.066467285 0.86621094
vn -0.49487305 0.066467285 0.86621094
vn -0.49487305 0.066467285 0.86621094
vn -0.24194336 0.69628906 0.67578125
vn -0.24194336 0.69628906 0.67578125
vn -0.24194336 0.69628906 0.67578125
vn -0.21228027 0.6958008 0.68603516
vn -0.21228027 0.6958008 0.68603516
vn -0.21228027 0.6958008 0.68603516
vn -0.094055176 -0.6201172 -0.7788086
vn -0.094055176 -0.6201172 -0.7788086
vn -0.094055176 -0.6201172 -0.7788086
vn 0.98583984 0.1505127 0.0713501
vn 0.98583984 0.1505127 0.0713501
vn 0.98583984 0.1505127 0.0713501
vn 0.98583984 0.1505127 0.0713501
vn -0.38916016 -0.9199219 0.05114746
vn -0.38916016 -0.9199219 0.05114746
vn -0.38916016 -0.9199219 0.05114746
vn -0.38916016 -0.9199219 0.05114746
vn -0.98535156 -0.15759277 0.06463623
vn -0.98535156 -0.15759277 0.06463623
vn -0.98535156 -0.15759277 0.06463623
vn -0.98535156 -0.15759277 0.06463623
vn -0.07824707 -0.99560547 0.049804688
vn -0.07824707 -0.99560547 0.049804688
vn -0.07824707 -0.99560547 0.049804688
vn -0.07824707 -0.99560547 0.049804688
vn -0.30737305 0.9506836 0.039245605
vn -0.30737305 0.9506836 0.039245605
vn -0.30737305 0.9506836 0.039245605
vn -0.30737305 0.9506836 0.039245605
vn -0.30737305 0.9506836 0.039245605
vn -0.019760132 0.023239136 -0.9995117
vn -0.019760132 0.023239136 -0.9995117
vn -0.019760132 0.023239136 -0.9995117
vn -0.019760132 0.023239136 -0.9995117
vn -0.019760132 0.023239136 -0.9995117
vn 0.0947876 -0.020355225 0.9951172
vn 0.0947876 -0.020355225 0.9951172
vn 0.0947876 -0.020355225 0.9951172
vn 0.0947876 -0.020355225 0.9951172
vn 0.0947876 -0.020355225 0.9951172
g Rock_11_0
f 3/3/3 2/2/2 1/1/1
f 6/6/6 5/5/5 4/4/4
f 9/9/9 8/8/8 7/7/7
f 12/12/12 11/11/11 10/10/10
f 15/15/15 14/14/14 13/13/13
f 18/18/18 17/17/17 16/16/16
f 21/21/21 20/20/20 19/19/19
f 24/24/24 23/23/23 22/22/22
f 25/25/25 24/24/24 22/22/22
f 28/28/28 27/27/27 26/26/26
f 29/29/29 28/28/28 26/26/26
f 32/32/32 31/31/31 30/30/30
f 33/33/33 32/32/32 30/30/30
f 36/36/36 35/35/35 34/34/34
f 37/37/37 36/36/36 34/34/34
f 40/40/40 39/39/39 38/38/38
f 38/38/38 41/41/41 40/40/40
f 40/40/40 41/41/41 42/42/42
f 45/45/45 44/44/44 43/43/43
f 43/43/43 46/46/46 45/45/45
f 43/43/43 47/47/47 46/46/46
f 50/50/50 49/49/49 48/48/48
f 48/48/48 51/51/51 50/50/50
f 51/51/51 52/52/52 50/50/50
