g stone cube_01
v -2.694982 -1.2850629 0
v -2.833776 -1.2850629 0.13879374
v -2.6949823 -1.474549 0.13879375
v -2.694982 1.2850629 0
v -2.6949823 1.474549 0.13879372
v -2.833776 1.2850629 0.13879375
v -2.694982 1.2850629 2.7505372
v -2.833776 1.2850629 2.6117432
v -2.6949823 1.474549 2.6117432
v 3.2975326 -1.2850629 0
v 3.297533 -1.474549 0.13879374
v 3.4363265 -1.2850629 0.13879375
v 3.2975326 1.2850629 0
v 3.4363265 1.2850629 0.13879375
v 3.297533 1.474549 0.13879375
v 3.2975326 1.2850629 2.7505372
v 3.297533 1.474549 2.6117432
v 3.4363265 1.2850629 2.6117432
v -2.6949823 -1.474549 0.13879375
v -2.6949823 -1.474549 2.1163435
v -2.2637405 -1.5576408 2.4706988
v 3.4363265 1.2850629 0.13879375
v 3.4363265 -1.2850629 0.13879375
v 3.4363265 -1.2850629 2.3423972
v 3.4363265 -0.5801742 2.6117432
v 3.4363265 1.2850629 2.6117432
v -2.694982 1.2850629 2.7505372
v -2.694982 -0.24113224 2.7505372
v -2.833776 -0.37493291 2.6117432
v -2.833776 1.2850629 2.6117432
v -2.694982 1.2850629 0
v -2.833776 1.2850629 0.13879375
v -2.833776 -1.2850629 0.13879374
v -2.694982 -1.2850629 0
v -2.6949823 -1.474549 0.13879375
v -2.833776 -1.2850629 0.13879374
v -2.833776 -1.2850629 2.1437745
v -2.6949823 -1.474549 2.1163435
v -2.6949823 1.474549 2.6117432
v -2.833776 1.2850629 2.6117432
v -2.833776 1.2850629 0.13879375
v -2.6949823 1.474549 0.13879372
v 3.4363265 1.2850629 2.6117432
v 3.297533 1.474549 2.6117432
v 3.297533 1.474549 0.13879375
v 3.4363265 1.2850629 0.13879375
v 3.2975326 -1.2850629 0
v 3.4363265 -1.2850629 0.13879375
v 3.4363265 1.2850629 0.13879375
v 3.2975326 1.2850629 0
v 3.2975326 1.2850629 2.7505372
v 3.4363265 1.2850629 2.6117432
v 3.4363265 -0.5801742 2.6117432
v 3.2975326 -0.61928445 2.7505372
v -0.38297957 1.2850628 2.7505372
v -2.694982 1.2850629 2.7505372
v -2.6949823 1.474549 2.6117432
v 0.004888396 1.474549 2.6117432
v 3.2975326 1.2850629 2.7505372
v 0.1403287 1.2850629 2.7505372
v 0.4177255 1.474549 2.6117432
v 3.297533 1.474549 2.6117432
v -2.694982 -1.2850629 0
v -2.6949823 -1.474549 0.13879375
v 3.297533 -1.474549 0.13879374
v 3.2975326 -1.2850629 0
v 3.2975326 1.2850629 0
v 3.297533 1.474549 0.13879375
v -2.6949823 1.474549 0.13879372
v -2.694982 1.2850629 0
v 3.297533 1.474549 0.13879375
v 3.297533 1.474549 2.6117432
v 0.4177255 1.474549 2.6117432
v 0.41966522 1.474549 2.444789
v -2.6949823 1.474549 2.6117432
v -2.6949823 1.474549 0.13879372
v 0.004888396 1.474549 2.6117432
v 0.1403287 1.2850629 2.7505372
v 3.2975326 1.2850629 2.7505372
v 3.2975326 -0.61928445 2.7505372
v 3.0678577 -1.2850629 2.7505372
v -1.630665 -1.2850629 2.7505372
v -0.46670812 0.8485451 2.7505372
v -2.694982 1.2850629 2.7505372
v -0.38297957 1.2850628 2.7505372
v -2.694982 -0.24113224 2.7505372
v 3.297533 -1.4745488 2.423728
v 3.297533 -1.474549 0.13879374
v -2.6949823 -1.474549 0.13879375
v -2.2637405 -1.5576408 2.4706988
v 3.1277943 -1.4745488 2.6117432
v -1.7126869 -1.4745488 2.6117432
v -1.630665 -1.2850629 2.7505372
v 3.0678577 -1.2850629 2.7505372
v 3.1277943 -1.4745488 2.6117432
v -1.7126869 -1.4745488 2.6117432
v 3.4363265 -1.2850629 2.3423972
v 3.4363265 -1.2850629 0.13879375
v 3.297533 -1.474549 0.13879374
v 3.297533 -1.4745488 2.423728
v 3.4363265 -1.2850629 2.3423972
v 3.297533 -1.4745488 2.423728
v 3.1277943 -1.4745488 2.6117432
v 3.0678577 -1.2850629 2.7505372
v 3.4363265 -0.5801742 2.6117432
v 3.2975326 -0.61928445 2.7505372
v -2.833776 -0.37493291 2.6117432
v -2.833776 -1.2850629 2.1437745
v -2.833776 -1.2850629 0.13879374
v -2.833776 1.2850629 0.13879375
v -2.833776 1.2850629 2.6117432
v -2.694982 -0.24113224 2.7505372
v -2.2637405 -1.5576408 2.4706988
v -2.6949823 -1.474549 2.1163435
v -2.833776 -0.37493291 2.6117432
v -2.833776 -1.2850629 2.1437745
v 0.4177255 1.474549 2.6117432
v 0.1403287 1.2850629 2.7505372
v -0.46670812 0.8485451 2.7505372
v 0.41966522 1.474549 2.444789
v 0.41966522 1.474549 2.444789
v -0.46670812 0.8485451 2.7505372
v -0.38297957 1.2850628 2.7505372
v 0.004888396 1.474549 2.6117432
v -2.694982 -0.24113224 2.7505372
v -1.630665 -1.2850629 2.7505372
v -1.7126869 -1.4745488 2.6117432
v -2.2637405 -1.5576408 2.4706988
v -2.694982 1.2850629 0
v -2.694982 -1.2850629 0
v 3.2975326 -1.2850629 0
v 3.2975326 1.2850629 0
vt 0.7036133 0.79833984
vt 0.71240234 0.8071289
vt 0.7133789 0.79785156
vt 0.9785156 0.009407043
vt 0.97802734 0.018951416
vt 0.9873047 0.018173218
vt 0.9790039 0.12976074
vt 0.98779297 0.12097168
vt 0.97802734 0.12030029
vt 0.82128906 0.41430664
vt 0.81396484 0.4050293
vt 0.81347656 0.41455078
vt 0.7314453 0.009407043
vt 0.72265625 0.018173218
vt 0.7319336 0.018936157
vt 0.73095703 0.12976074
vt 0.7319336 0.12030029
vt 0.72216797 0.12097168
vt 0.7133789 0.79785156
vt 0.7944336 0.7988281
vt 0.80908203 0.7807617
vt 0.81347656 0.52001953
vt 0.81347656 0.41455078
vt 0.72314453 0.41430664
vt 0.71191406 0.44335938
vt 0.71191406 0.52001953
vt 0.95166016 0.9838867
vt 0.95166016 0.9213867
vt 0.94384766 0.91552734
vt 0.94384766 0.9838867
vt 0.8339844 0.9838867
vt 0.84228516 0.9838867
vt 0.84228516 0.87841797
vt 0.8339844 0.87841797
vt 0.7133789 0.79785156
vt 0.71240234 0.8071289
vt 0.79541016 0.80859375
vt 0.7944336 0.7988281
vt 0.97802734 0.12030029
vt 0.98779297 0.12097168
vt 0.9873047 0.018173218
vt 0.97802734 0.018951416
vt 0.72216797 0.12097168
vt 0.7319336 0.12030029
vt 0.7319336 0.018936157
vt 0.72265625 0.018173218
vt 0.82128906 0.41430664
vt 0.81347656 0.41455078
vt 0.81347656 0.52001953
vt 0.82177734 0.52001953
vt 0.7036133 0.52001953
vt 0.71191406 0.52001953
vt 0.71191406 0.44335938
vt 0.70410156 0.4416504
vt 0.8833008 0.1303711
vt 0.9790039 0.12976074
vt 0.97802734 0.12030029
vt 0.8671875 0.120788574
vt 0.73095703 0.12976074
vt 0.8613281 0.13049316
vt 0.85009766 0.120788574
vt 0.7319336 0.12030029
vt 0.7036133 0.79833984
vt 0.7133789 0.79785156
vt 0.7133789 0.5522461
vt 0.7036133 0.5522461
vt 0.7314453 0.009407043
vt 0.7319336 0.018936157
vt 0.97802734 0.018951416
vt 0.9785156 0.009407043
vt 0.7319336 0.018936157
vt 0.7319336 0.12030029
vt 0.85009766 0.120788574
vt 0.85009766 0.1138916
vt 0.97802734 0.12030029
vt 0.97802734 0.018951416
vt 0.8671875 0.120788574
vt 0.009414673 0.47094727
vt 0.009414673 0.60058594
vt 0.08758545 0.60058594
vt 0.1149292 0.5913086
vt 0.1149292 0.39819336
vt 0.02734375 0.44604492
vt 0.009414673 0.3544922
vt 0.009414673 0.4494629
vt 0.07208252 0.3544922
vt 0.8071289 0.5522461
vt 0.7133789 0.5522461
vt 0.7133789 0.79785156
vt 0.80908203 0.7807617
vt 0.8149414 0.55908203
vt 0.81591797 0.7578125
vt 0.8251953 0.75439453
vt 0.82470703 0.56152344
vt 0.8149414 0.55908203
vt 0.81591797 0.7578125
vt 0.72314453 0.41430664
vt 0.81347656 0.41455078
vt 0.81396484 0.4050293
vt 0.71972656 0.40478516
vt 0.703125 0.2854004
vt 0.69677734 0.29370117
vt 0.69970703 0.30371094
vt 0.7089844 0.3071289
vt 0.7338867 0.2854004
vt 0.734375 0.29370117
vt 0.94384766 0.91552734
vt 0.9243164 0.87841797
vt 0.84228516 0.87841797
vt 0.84228516 0.9838867
vt 0.94384766 0.9838867
vt 0.07507324 0.62109375
vt 0.02458191 0.64990234
vt 0.040618896 0.6665039
vt 0.07550049 0.6308594
vt 0.050079346 0.6645508
vt 0.984375 0.57470703
vt 0.9902344 0.56103516
vt 0.9902344 0.53027344
vt 0.97753906 0.57470703
vt 0.97753906 0.57470703
vt 0.9902344 0.53027344
vt 0.9741211 0.5385742
vt 0.97216797 0.5571289
vt 0.07507324 0.62109375
vt 0.01386261 0.62109375
vt 0.010513306 0.6308594
vt 0.02458191 0.64990234
vt 0.8076172 0.57421875
vt 0.71972656 0.57421875
vt 0.71972656 0.7783203
vt 0.8076172 0.7783203
vn -0.6279297 -0.45996094 -0.6279297
vn -0.6279297 -0.45996094 -0.6279297
vn -0.6279297 -0.45996094 -0.6279297
vn -0.6279297 0.45996094 -0.6279297
vn -0.6279297 0.45996094 -0.6279297
vn -0.6279297 0.45996094 -0.6279297
vn -0.6279297 0.45996094 0.6279297
vn -0.6279297 0.45996094 0.6279297
vn -0.6279297 0.45996094 0.6279297
vn 0.6279297 -0.45996094 -0.6279297
vn 0.6279297 -0.45996094 -0.6279297
vn 0.6279297 -0.45996094 -0.6279297
vn 0.6279297 0.45996094 -0.6279297
vn 0.6279297 0.45996094 -0.6279297
vn 0.6279297 0.45996094 -0.6279297
vn 0.6279297 0.45996094 0.6279297
vn 0.6279297 0.45996094 0.6279297
vn 0.6279297 0.45996094 0.6279297
vn -0.18920898 -0.9819336 0
vn -0.18920898 -0.9819336 0
vn -0.18920898 -0.9819336 0
vn 1 0 0
vn 1 0 0
vn 1 0 0
vn 1 0 0
vn 1 0 0
vn -0.70703125 0 0.70703125
vn -0.70703125 0 0.70703125
vn -0.70703125 0 0.70703125
vn -0.70703125 0 0.70703125
vn -0.70703125 0 -0.70703125
vn -0.70703125 0 -0.70703125
vn -0.70703125 0 -0.70703125
vn -0.70703125 0 -0.70703125
vn -0.8066406 -0.5908203 0
vn -0.8066406 -0.5908203 0
vn -0.8066406 -0.5908203 0
vn -0.8066406 -0.5908203 0
vn -0.8066406 0.5908203 0
vn -0.8066406 0.5908203 0
vn -0.8066406 0.5908203 0
vn -0.8066406 0.5908203 0
vn 0.8066406 0.5908203 0
vn 0.8066406 0.5908203 0
vn 0.8066406 0.5908203 0
vn 0.8066406 0.5908203 0
vn 0.70703125 0 -0.70703125
vn 0.70703125 0 -0.70703125
vn 0.70703125 0 -0.70703125
vn 0.70703125 0 -0.70703125
vn 0.70703125 0 0.70703125
vn 0.70703125 0 0.70703125
vn 0.70703125 0 0.70703125
vn 0.70703125 0 0.70703125
vn -0 0.5908203 0.8066406
vn -0 0.5908203 0.8066406
vn -0 0.5908203 0.8066406
vn -0 0.5908203 0.8066406
vn -0 0.5908203 0.8066406
vn -0 0.5908203 0.8066406
vn -0 0.5908203 0.8066406
vn -0 0.5908203 0.8066406
vn -0 -0.5908203 -0.8066406
vn -0 -0.5908203 -0.8066406
vn -0 -0.5908203 -0.8066406
vn -0 -0.5908203 -0.8066406
vn -0 0.5908203 -0.8066406
vn -0 0.5908203 -0.8066406
vn -0 0.5908203 -0.8066406
vn -0 0.5908203 -0.8066406
vn -0 1 0
vn -0 1 0
vn -0 1 0
vn -0 1 0
vn -0 1 0
vn -0 1 0
vn -0 1 0
vn -0 0 1
vn -0 0 1
vn -0 0 1
vn -0 0 1
vn -0 0 1
vn -0 0 1
vn -0 0 1
vn -0 0 1
vn -0 0 1
vn 0.0072364807 -1 -0.0028743744
vn 0.0072364807 -1 -0.0028743744
vn 0.0072364807 -1 -0.0028743744
vn 0.0072364807 -1 -0.0028743744
vn 0.0072364807 -1 -0.0028743744
vn 0.0072364807 -1 -0.0028743744
vn -0 -0.5908203 0.8066406
vn -0 -0.5908203 0.8066406
vn -0 -0.5908203 0.8066406
vn -0 -0.5908203 0.8066406
vn 0.8066406 -0.5908203 0
vn 0.8066406 -0.5908203 0
vn 0.8066406 -0.5908203 0
vn 0.8066406 -0.5908203 0
vn 0.7192383 -0.24804688 0.6489258
vn 0.7192383 -0.24804688 0.6489258
vn 0.7192383 -0.24804688 0.6489258
vn 0.7192383 -0.24804688 0.6489258
vn 0.7192383 -0.24804688 0.6489258
vn 0.7192383 -0.24804688 0.6489258
vn -1 0 0
vn -1 0 0
vn -1 0 0
vn -1 0 0
vn -1 0 0
vn -0.56591797 -0.37695312 0.73339844
vn -0.56591797 -0.37695312 0.73339844
vn -0.56591797 -0.37695312 0.73339844
vn -0.56591797 -0.37695312 0.73339844
vn -0.56591797 -0.37695312 0.73339844
vn -0.5800781 0.81396484 -0.02557373
vn -0.5800781 0.81396484 -0.02557373
vn -0.5800781 0.81396484 -0.02557373
vn -0.5800781 0.81396484 -0.02557373
vn 0.3701172 -0.07348633 0.92626953
vn 0.3701172 -0.07348633 0.92626953
vn 0.3701172 -0.07348633 0.92626953
vn 0.3701172 -0.07348633 0.92626953
vn -0.2668457 -0.31518555 0.91064453
vn -0.2668457 -0.31518555 0.91064453
vn -0.2668457 -0.31518555 0.91064453
vn -0.2668457 -0.31518555 0.91064453
vn -0 0 -1
vn -0 0 -1
vn -0 0 -1
vn -0 0 -1
g stone cube_01_0
f 3/3/3 2/2/2 1/1/1
f 6/6/6 5/5/5 4/4/4
f 9/9/9 8/8/8 7/7/7
f 12/12/12 11/11/11 10/10/10
f 15/15/15 14/14/14 13/13/13
f 18/18/18 17/17/17 16/16/16
f 21/21/21 20/20/20 19/19/19
f 24/24/24 23/23/23 22/22/22
f 22/22/22 25/25/25 24/24/24
f 22/22/22 26/26/26 25/25/25
f 29/29/29 28/28/28 27/27/27
f 30/30/30 29/29/29 27/27/27
f 33/33/33 32/32/32 31/31/31
f 34/34/34 33/33/33 31/31/31
f 37/37/37 36/36/36 35/35/35
f 38/38/38 37/37/37 35/35/35
f 41/41/41 40/40/40 39/39/39
f 42/42/42 41/41/41 39/39/39
f 45/45/45 44/44/44 43/43/43
f 46/46/46 45/45/45 43/43/43
f 49/49/49 48/48/48 47/47/47
f 50/50/50 49/49/49 47/47/47
f 53/53/53 52/52/52 51/51/51
f 54/54/54 53/53/53 51/51/51
f 57/57/57 56/56/56 55/55/55
f 58/58/58 57/57/57 55/55/55
f 61/61/61 60/60/60 59/59/59
f 62/62/62 61/61/61 59/59/59
f 65/65/65 64/64/64 63/63/63
f 66/66/66 65/65/65 63/63/63
f 69/69/69 68/68/68 67/67/67
f 70/70/70 69/69/69 67/67/67
f 73/73/73 72/72/72 71/71/71
f 74/74/74 73/73/73 71/71/71
f 75/75/75 74/74/74 71/71/71
f 71/71/71 76/76/76 75/75/75
f 75/75/75 77/77/77 74/74/74
f 80/80/80 79/79/79 78/78/78
f 78/78/78 81/81/81 80/80/80
f 78/78/78 82/82/82 81/81/81
f 78/78/78 83/83/83 82/82/82
f 84/84/84 82/82/82 83/83/83
f 83/83/83 85/85/85 84/84/84
f 84/84/84 86/86/86 82/82/82
f 89/89/89 88/88/88 87/87/87
f 87/87/87 90/90/90 89/89/89
f 87/87/87 91/91/91 90/90/90
f 91/91/91 92/92/92 90/90/90
f 95/95/95 94/94/94 93/93/93
f 96/96/96 95/95/95 93/93/93
f 99/99/99 98/98/98 97/97/97
f 100/100/100 99/99/99 97/97/97
f 103/103/103 102/102/102 101/101/101
f 101/101/101 104/104/104 103/103/103
f 101/101/101 105/105/105 104/104/104
f 105/105/105 106/106/106 104/104/104
f 109/109/109 108/108/108 107/107/107
f 107/107/107 110/110/110 109/109/109
f 107/107/107 111/111/111 110/110/110
f 114/114/114 113/113/113 112/112/112
f 112/112/112 115/115/115 114/114/114
f 115/115/115 116/116/116 114/114/114
f 119/119/119 118/118/118 117/117/117
f 120/120/120 119/119/119 117/117/117
f 123/123/123 122/122/122 121/121/121
f 124/124/124 123/123/123 121/121/121
f 127/127/127 126/126/126 125/125/125
f 128/128/128 127/127/127 125/125/125
f 131/131/131 130/130/130 129/129/129
f 132/132/132 131/131/131 129/129/129
