g Wall003
v 0.5287819 0.36293966 1.134485
v 0.5287819 0.36293972 0.6920226
v -0.5018897 0.35563266 0.6920226
v -0.5018897 0.3556326 1.134485
v -0.5018897 0.3556326 1.134485
v -0.5018897 0.35563266 0.6920226
v -0.508945 1.3508099 0.6920226
v -0.49497268 1.35091 1.1344851
v -0.508945 1.3508099 0.6920226
v -0.5018897 0.35563266 0.6920226
v 0.5287819 0.36293972 0.6920226
v 0.5217266 1.3581169 0.6920226
v -0.49497268 1.35091 1.1344851
v 0.5217266 1.3581167 1.1344851
v 0.5287819 0.36293966 1.134485
v -0.5018897 0.3556326 1.134485
v 0.3428831 -0.77056235 1.4555764
v -0.33192348 -0.7753451 1.4555764
v -0.33192348 -0.7753452 2.1749663
v 0.3428831 -0.77056247 2.1749663
v 0.3495016 -1.7042315 1.4555765
v -0.32530499 -1.7090142 1.4555765
v -0.33192348 -0.7753451 1.4555764
v 0.3428831 -0.77056235 1.4555764
v 0.3380003 -0.08179143 3.0933363
v -0.3368063 -0.08657411 3.0933363
v -0.3495016 1.7042316 3.0933363
v 0.32530499 1.7090162 3.0933363
v 0.3380003 -0.08179224 2.2208848
v -0.3368063 -0.08657492 2.2208848
v -0.3368063 -0.08657411 3.0933363
v 0.3380003 -0.08179143 3.0933363
v 0.3428831 -0.77056247 2.1749663
v -0.33192348 -0.7753452 2.1749663
v -0.3368063 -0.08657492 2.2208848
v 0.3380003 -0.08179224 2.2208848
v 0.3428831 -0.77056235 1.4555764
v 0.3495016 -1.7042313 0.0014906076
v 0.3495016 -1.7042315 1.4555765
v 0.32530546 1.7090157 -0.0014906068
v 0.3380003 -0.08179224 2.2208848
v 0.3428831 -0.77056247 2.1749663
v 0.32530499 1.7090162 3.0933363
v 0.3380003 -0.08179143 3.0933363
v -0.33192348 -0.7753451 1.4555764
v -0.3368063 -0.08657492 2.2208848
v -0.33192348 -0.7753452 2.1749663
v -0.3495016 1.7042313 -0.0014906076
v -0.3495016 1.7042316 3.0933363
v -0.3368063 -0.08657411 3.0933363
v -0.32530499 -1.7090139 0.0014906068
v -0.32530499 -1.7090142 1.4555765
v -0.3495016 1.7042313 -0.0014906076
v -0.32530499 -1.7090139 0.0014906068
v 0.3495016 -1.7042313 0.0014906076
v 0.32530546 1.7090157 -0.0014906068
v 0.32530546 1.7090157 -0.0014906068
v 0.32530499 1.7090162 3.0933363
v -0.3495016 1.7042316 3.0933363
v -0.3495016 1.7042313 -0.0014906076
v 0.3495016 -1.7042313 0.0014906076
v -0.32530499 -1.7090139 0.0014906068
v -0.32530499 -1.7090142 1.4555765
v 0.3495016 -1.7042315 1.4555765
v -0.49497268 1.35091 1.1344851
v -0.508945 1.3508099 0.6920226
v 0.5217266 1.3581169 0.6920226
v 0.5217266 1.3581167 1.1344851
v 0.5287819 0.36293972 0.6920226
v 0.5287819 0.36293966 1.134485
v 0.5217266 1.3581167 1.1344851
v 0.5217266 1.3581169 0.6920226
vt 0.056915283 0.72558594
vt 0.056915283 0.70410156
vt 0.0072631836 0.70410156
vt 0.0072631836 0.72558594
vt 0.45263672 0.4658203
vt 0.47387695 0.4658203
vt 0.47387695 0.41796875
vt 0.45239258 0.41796875
vt 0.0072631836 0.65625
vt 0.0072631836 0.70410156
vt 0.056915283 0.70410156
vt 0.056915283 0.65625
vt 0.00793457 0.7734375
vt 0.056915283 0.7734375
vt 0.056915283 0.72558594
vt 0.0072631836 0.72558594
vt 0.5917969 0.3774414
vt 0.6245117 0.3774414
vt 0.6245117 0.34277344
vt 0.5917969 0.34277344
vt 0.47314453 0.58740234
vt 0.47314453 0.5546875
vt 0.42797852 0.5546875
vt 0.42797852 0.58740234
vt 0.578125 0.37524414
vt 0.578125 0.34277344
vt 0.49169922 0.34277344
vt 0.49169922 0.37524414
vt 0.9746094 0.39526367
vt 0.94189453 0.39526367
vt 0.94189453 0.4375
vt 0.9746094 0.4375
vt 0.9589844 0.11584473
vt 0.9589844 0.14831543
vt 0.9921875 0.14831543
vt 0.9921875 0.11584473
vt 0.72802734 0.5473633
vt 0.79785156 0.5024414
vt 0.72802734 0.5024414
vt 0.79785156 0.6669922
vt 0.69091797 0.5805664
vt 0.6933594 0.5473633
vt 0.6489258 0.6669922
vt 0.6489258 0.5805664
vt 0.7338867 0.12646484
vt 0.69677734 0.093322754
vt 0.69921875 0.12646484
vt 0.8041992 0.0070381165
vt 0.65478516 0.0070381165
vt 0.65478516 0.093322754
vt 0.80371094 0.17150879
vt 0.7338867 0.17150879
vt 0.30932617 0.71240234
vt 0.3095703 0.7167969
vt 0.31030273 0.7167969
vt 0.31030273 0.71240234
vt 0.3413086 0.9511719
vt 0.49047852 0.9511719
vt 0.49047852 0.9189453
vt 0.3413086 0.9189453
vt 0.6020508 0.6660156
vt 0.63427734 0.6660156
vt 0.63427734 0.5961914
vt 0.6020508 0.5961914
vt 0.00793457 0.7734375
vt 0.0072631836 0.7944336
vt 0.056915283 0.7944336
vt 0.056915283 0.7734375
vt 0.9638672 0.6269531
vt 0.9848633 0.6269531
vt 0.9848633 0.57910156
vt 0.9638672 0.57910156
vn 0.0070877075 -1 0
vn 0.0070877075 -1 0
vn 0.0070877075 -1 0
vn 0.0070877075 -1 0
vn -1 -0.0070877075 0
vn -1 -0.0070877075 0
vn -1 -0.0070877075 0
vn -0.9995117 0.0069465637 0.031555176
vn -0 0 -1
vn -0 0 -1
vn -0 0 -1
vn -0 0 -1
vn -0 0 1
vn -0 0 1
vn -0 0 1
vn -0 0 1
vn 0.0070877075 -1 0
vn 0.0070877075 -1 0
vn 0.0070877075 -1 0
vn 0.0070877075 -1 0
vn -0 0 1
vn -0 0 1
vn -0 0 1
vn -0 0 1
vn -0 0 1
vn -0 0 1
vn -0 0 1
vn -0 0 1
vn 0.0070877075 -1 0
vn 0.0070877075 -1 0
vn 0.0070877075 -1 0
vn 0.0070877075 -1 0
vn 0.00047135353 -0.06652832 0.9975586
vn 0.00047135353 -0.06652832 0.9975586
vn 0.00047135353 -0.06652832 0.9975586
vn 0.00047135353 -0.06652832 0.9975586
vn 1 0.0070877075 0
vn 1 0.0070877075 0
vn 1 0.0070877075 0
vn 1 0.0070877075 0
vn 1 0.0070877075 0
vn 1 0.0070877075 0
vn 1 0.0070877075 0
vn 1 0.0070877075 0
vn -1 -0.0070877075 0
vn -1 -0.0070877075 0
vn -1 -0.0070877075 0
vn -1 -0.0070877075 0
vn -1 -0.0070877075 0
vn -1 -0.0070877075 0
vn -1 -0.0070877075 0
vn -1 -0.0070877075 0
vn -0 -0.0008735657 -1
vn -0 -0.0008735657 -1
vn -0 -0.0008735657 -1
vn -0 -0.0008735657 -1
vn -0.007091522 1 0
vn -0.007091522 1 0
vn -0.007091522 1 0
vn -0.007091522 1 0
vn 0.0070877075 -1 0
vn 0.0070877075 -1 0
vn 0.0070877075 -1 0
vn 0.0070877075 -1 0
vn -0.0070877075 1 0
vn -0.0070877075 1 0
vn -0.0070877075 1 0
vn -0.0070877075 1 0
vn 1 0.0070877075 0
vn 1 0.0070877075 0
vn 1 0.0070877075 0
vn 1 0.0070877075 0
g Wall003_0
f 3/3/3 2/2/2 1/1/1
f 4/4/4 3/3/3 1/1/1
f 7/7/7 6/6/6 5/5/5
f 8/8/8 7/7/7 5/5/5
f 11/11/11 10/10/10 9/9/9
f 12/12/12 11/11/11 9/9/9
f 15/15/15 14/14/14 13/13/13
f 16/16/16 15/15/15 13/13/13
f 19/19/19 18/18/18 17/17/17
f 20/20/20 19/19/19 17/17/17
f 23/23/23 22/22/22 21/21/21
f 24/24/24 23/23/23 21/21/21
f 27/27/27 26/26/26 25/25/25
f 28/28/28 27/27/27 25/25/25
f 31/31/31 30/30/30 29/29/29
f 32/32/32 31/31/31 29/29/29
f 35/35/35 34/34/34 33/33/33
f 36/36/36 35/35/35 33/33/33
f 39/39/39 38/38/38 37/37/37
f 40/40/40 37/37/37 38/38/38
f 41/41/41 37/37/37 40/40/40
f 42/42/42 37/37/37 41/41/41
f 41/41/41 40/40/40 43/43/43
f 44/44/44 41/41/41 43/43/43
f 47/47/47 46/46/46 45/45/45
f 48/48/48 45/45/45 46/46/46
f 48/48/48 46/46/46 49/49/49
f 46/46/46 50/50/50 49/49/49
f 51/51/51 45/45/45 48/48/48
f 52/52/52 45/45/45 51/51/51
f 55/55/55 54/54/54 53/53/53
f 56/56/56 55/55/55 53/53/53
f 59/59/59 58/58/58 57/57/57
f 60/60/60 59/59/59 57/57/57
f 63/63/63 62/62/62 61/61/61
f 64/64/64 63/63/63 61/61/61
f 67/67/67 66/66/66 65/65/65
f 68/68/68 67/67/67 65/65/65
f 71/71/71 70/70/70 69/69/69
f 72/72/72 71/71/71 69/69/69
