g 0.0000
v -1.0250267 -0.15103441 5.2026744
v -1.1614337 -0.89680374 4.6221128
v -1.3166143 -0.12029629 4.7825813
v -0.94221383 -1.2566494 3.6524704
v -1.157751 -0.46713758 3.1680098
v -0.7375904 -0.80909353 2.5819743
v -0.85074025 0.080714725 1.8552715
v -1.3166143 -0.12029629 4.7825813
v -0.9722304 0.7815957 5.004824
v -1.0250267 -0.15103441 5.2026744
v -0.9857765 1.0045171 4.4970717
v -1.157751 -0.46713758 3.1680098
v -0.844711 0.72507995 3.0989466
v -0.85074025 0.080714725 1.8552715
v -0.85074025 0.080714725 1.8552715
v -0.65736365 0.8229393 2.1839166
v -0.490669 1.1405847 5.02156
v 0.18614309 1.5064821 4.4777055
v 0.9692823 0.64133465 4.609747
v 0.36749762 -0.32296282 4.8990984
v -0.490669 1.1405847 5.02156
v 0.9692823 0.64133465 4.609747
v 0.83703774 -1.0647802 4.287171
v -0.07606666 -1.3126638 4.7828445
v 0.1179004 -1.6429017 4.327724
v -1.0250267 -0.15103441 5.2026744
v -0.490669 1.1405847 5.02156
v -0.5211454 -1.6145988 4.6743803
v 0.1179004 -1.6429017 4.327724
v -0.5211454 -1.6145988 4.6743803
v 0.18614309 1.5064821 4.4777055
v 1.0201527 0.938744 4.0289965
v 0.9692823 0.64133465 4.609747
v 0.4972378 1.4437048 3.7834759
v 0.18614309 1.5064821 4.4777055
v 1.0201527 0.938744 4.0289965
v 1.1486285 -0.3442583 3.8287392
v 0.9692823 0.64133465 4.609747
v 1.1622407 -0.21466476 2.842708
v 0.7293207 -1.387286 3.7437701
v 1.0201527 0.938744 4.0289965
v 0.7293207 -1.387286 3.7437701
v 0.83703774 -1.0647802 4.287171
v 0.9692823 0.64133465 4.609747
v 1.1486285 -0.3442583 3.8287392
v 0.7293207 -1.387286 3.7437701
v 0.1179004 -1.6429017 4.327724
v 1.0521145 0.4494921 2.9272945
v 1.1622407 -0.21466476 2.842708
v 0.7371493 -0.78169644 2.190262
v 0.7293207 -1.387286 3.7437701
v 0.7607802 0.048259147 1.998987
v 0.73786575 -0.5129266 1.8546431
v 0.3852002 -0.95308805 1.9287975
v 0.11293153 -1.2069237 2.691115
v 0.7607802 0.048259147 1.998987
v 0.7371493 -0.78169644 2.190262
v 1.0521145 0.4494921 2.9272945
v 0.59577006 0.78552854 2.1094623
v 0.73786575 -0.5129266 1.8546431
v 0.3852002 -0.95308805 1.9287975
v -0.24474563 1.0944616 2.080327
v -0.85074025 0.080714725 1.8552715
v 0.29474396 1.0496559 2.0452583
v 0.0850808 0.032872923 1.6638725
v 0.29474396 1.0496559 2.0452583
v -0.683257 -0.6706736 1.9369482
v 0.0850808 0.032872923 1.6638725
v 0.3852002 -0.95308805 1.9287975
v -0.30722076 -0.9255292 2.010705
v 0.73786575 -0.5129266 1.8546431
v 0.59577006 0.78552854 2.1094623
v 0.29474396 1.0496559 2.0452583
v 0.7607802 0.048259147 1.998987
v 0.29474396 1.0496559 2.0452583
v 0.0850808 0.032872923 1.6638725
v 0.73786575 -0.5129266 1.8546431
v -0.30722076 -0.9255292 2.010705
v -0.683257 -0.6706736 1.9369482
v -0.7375904 -0.80909353 2.5819743
v 0.7293207 -1.387286 3.7437701
v 0.7371493 -0.78169644 2.190262
v 0.11293153 -1.2069237 2.691115
v 0.28445637 1.2287741 3.1589098
v 0.59577006 0.78552854 2.1094623
v 1.0201527 0.938744 4.0289965
v -0.24474563 1.0944616 2.080327
v 0.29474396 1.0496559 2.0452583
v 0.28445637 1.2287741 3.1589098
v -0.844711 0.72507995 3.0989466
v -0.844711 0.72507995 3.0989466
v -0.33437467 1.5170254 4.1389885
v 0.18614309 1.5064821 4.4777055
v -0.490669 1.1405847 5.02156
v 1.0201527 0.938744 4.0289965
v 0.4972378 1.4437048 3.7834759
v 0.59577006 0.78552854 2.1094623
v 1.0521145 0.4494921 2.9272945
v 0.29474396 1.0496559 2.0452583
v 0.4972378 1.4437048 3.7834759
v -0.33437467 1.5170254 4.1389885
v 0.18614309 1.5064821 4.4777055
v -0.7774286 -0.5533326 0.19225818
v -0.8242568 -0.87499696 0.23176277
v -0.6594811 -1.0786755 0.22706102
v -0.16051877 -0.55138886 2.0809963
v 0.06705046 -0.55670893 1.9022329
v 0.056968212 -0.85532695 1.9037443
v -0.034215063 -0.6893732 0.20436352
v -0.3230829 -0.32294348 0.16291991
v -0.20381787 -1.0626216 0.20493376
v -0.3230829 -0.32294348 0.16291991
v -0.6594811 -1.0786755 0.22706102
v -0.7774286 -0.5533326 0.19225818
v -0.4922354 -1.2080395 1.174605
v -0.11860669 -1.124325 1.0674903
v -0.20465165 -0.9999283 0.7973777
v -0.12147796 -0.44995233 1.1057496
v -0.19908303 -0.56570095 0.8111764
v 0.019977212 -0.7733731 1.071312
v -0.11860669 -1.124325 1.0674903
v 0.019977212 -0.7733731 1.071312
v -0.20465165 -0.9999283 0.7973777
v -0.69035345 -0.9850434 0.90223515
v -0.20465165 -0.9999283 0.7973777
v -0.20381787 -1.0626216 0.20493376
v -0.69035345 -0.9850434 0.90223515
v -0.4922354 -1.2080395 1.174605
v -0.47102523 -1.0399419 1.4459457
v -0.15598875 -0.9102721 1.3910145
v -0.11860669 -1.124325 1.0674903
v -0.20381787 -1.0626216 0.20493376
v -0.20465165 -0.9999283 0.7973777
v -0.034215063 -0.6893732 0.20436352
v -0.19908303 -0.56570095 0.8111764
v -0.20465165 -0.9999283 0.7973777
v -0.19908303 -0.56570095 0.8111764
v -0.3230829 -0.32294348 0.16291991
v -0.034215063 -0.6893732 0.20436352
v -0.12147796 -0.44995233 1.1057496
v 0.019977212 -0.7733731 1.071312
v -0.15598875 -0.9102721 1.3910145
v -0.12147796 -0.44995233 1.1057496
v -0.25705457 -0.5471806 1.3325026
v -0.15598875 -0.9102721 1.3910145
v 0.019977212 -0.7733731 1.071312
v -0.11860669 -1.124325 1.0674903
v -0.07056731 0.24812214 1.8392267
v -0.32091925 0.516257 1.5998125
v -0.28467634 0.83359855 2.12918
v -0.28467634 0.83359855 2.12918
v -0.22914252 1.0072657 1.9484549
v 0.01524815 1.026797 2.236485
v -0.32091925 0.516257 1.5998125
v -0.28467634 0.83359855 2.12918
v -0.32091925 0.516257 1.5998125
v -0.08589527 0.8599014 1.3841462
v -0.22914252 1.0072657 1.9484549
v 0.31316394 1.0520686 1.4669828
v 0.01524815 1.026797 2.236485
v -0.08589527 0.8599014 1.3841462
v 0.31316394 1.0520686 1.4669828
v -0.06783879 1.0458169 1.0509987
v 0.31316394 1.0520686 1.4669828
v 0.5092728 1.2561034 1.2802105
v 0.5092728 1.2561034 1.2802105
v 0.28432053 1.1025501 0.82179916
v 0.5146453 1.1713967 0.22496632
v 0.62306297 1.1623949 0.9833999
v 0.5092728 1.2561034 1.2802105
v 0.5146453 1.1713967 0.22496632
v 0.9738537 1.2053639 0.423172
v 0.5092728 1.2561034 1.2802105
v 0.77359194 0.8426106 1.3350533
v 0.8294699 0.84317636 1.0621955
v 0.33697838 0.99816024 2.0715103
v 0.45418134 0.5364019 1.5427744
v 0.20220871 0.5417495 2.1909494
v -0.07056731 0.24812214 1.8392267
v 0.20220871 0.5417495 2.1909494
v 0.33697838 0.99816024 2.0715103
v 0.31316394 1.0520686 1.4669828
v 0.50863415 0.6812583 1.4870563
v 0.50863415 0.6812583 1.4870563
v 0.5831113 0.44253898 1.2878046
v 0.77359194 0.8426106 1.3350533
v 0.77359194 0.8426106 1.3350533
v 0.72121584 0.48243126 0.9175496
v 0.72121584 0.48243126 0.9175496
v 0.8294699 0.84317636 1.0621955
v 1.1578683 0.6434873 0.58459264
v 0.01524815 1.026797 2.236485
v 0.20220871 0.5417495 2.1909494
v -0.28467634 0.83359855 2.12918
v 1.1578683 0.6434873 0.58459264
v 0.9738537 1.2053639 0.423172
v 0.88768196 0.34235555 0.34756
v 0.41507885 0.8209198 0.08750525
v 0.49019372 0.50876594 0.09471884
v 0.41507885 0.8209198 0.08750525
v 0.9738537 1.2053639 0.423172
v 0.5146453 1.1713967 0.22496632
v 0.9738537 1.2053639 0.423172
v -0.06783879 1.0458169 1.0509987
v -0.08535671 0.47554713 1.0553645
v 0.1499492 0.83677894 0.76093864
v -0.08589527 0.8599014 1.3841462
v -0.08535671 0.47554713 1.0553645
v -0.32091925 0.516257 1.5998125
v -0.050188154 0.4486633 1.3620099
v 0.1499492 0.83677894 0.76093864
v 0.28432053 1.1025501 0.82179916
v 0.1499492 0.83677894 0.76093864
v 0.5146453 1.1713967 0.22496632
v 0.88768196 0.34235555 0.34756
v 0.72121584 0.48243126 0.9175496
v 1.1578683 0.6434873 0.58459264
v 0.1499492 0.83677894 0.76093864
v 0.41507885 0.8209198 0.08750525
v 0.5146453 1.1713967 0.22496632
v 0.33780462 0.49011308 0.8745339
v 0.49019372 0.50876594 0.09471884
v 0.41507885 0.8209198 0.08750525
v -0.20258415 -1.7118835 3.4999886
v 0.21443254 -1.8262808 2.4739962
v -0.359226 -1.3630412 3.3027058
v 0.10374874 -1.0104082 3.6141868
v 0.6744888 -1.5292952 2.8824043
v 0.27963573 -1.3927791 3.6956768
v -0.029507756 -1.22945 3.8424215
v 0.056262255 -1.5722122 3.7536497
v -0.333323 -1.3750849 3.6918278
v 0.10374874 -1.0104082 3.6141868
v 0.27963573 -1.3927791 3.6956768
v -0.029507756 -1.22945 3.8424215
v -0.333323 -1.3750849 3.6918278
v 0.056262255 -1.5722122 3.7536497
v -0.20258415 -1.7118835 3.4999886
v 1.5572991 -1.9908252 0.4126829
v 1.4850564 -1.5981236 0.5103917
v 1.3341489 -1.4983923 0.30434394
v 1.2642385 -2.3042464 0.50756204
v 1.5572991 -1.9908252 0.4126829
v 0.7395019 -1.4881425 0.30155456
v 0.5041663 -1.8316581 0.2237603
v 0.41528082 -2.278379 0.2456863
v 0.5041663 -1.8316581 0.2237603
v 1.2642385 -2.3042464 0.50756204
v 0.7660877 -2.5008714 0.4093976
v 0.6744888 -1.5292952 2.8824043
v 1.3137132 -2.0431209 2.4680867
v 0.6933564 -1.9815085 2.7315907
v 1.0244808 -2.357064 2.3951292
v 0.45144993 -2.3443172 2.158031
v 0.6933564 -1.9815085 2.7315907
v 1.3137132 -2.0431209 2.4680867
v 0.4648533 -1.8844249 1.6691093
v 0.6280072 -2.197856 1.7545356
v 0.41528082 -2.278379 0.2456863
v 1.1314408 -1.6749432 1.4441268
v 1.4850564 -1.5981236 0.5103917
v 1.3002838 -2.1991668 0.90851533
v 1.3002838 -2.1991668 0.90851533
v 1.1096554 -2.0022862 2.0106978
v 1.4850564 -1.5981236 0.5103917
v 1.5572991 -1.9908252 0.4126829
v 1.2026875 -1.4307668 2.1693826
v 1.1096554 -2.0022862 2.0106978
v 1.3137132 -2.0431209 2.4680867
v 0.6744888 -1.5292952 2.8824043
v 1.2457569 -1.587319 2.4875264
v 1.2026875 -1.4307668 2.1693826
v 1.2457569 -1.587319 2.4875264
v 0.867298 -1.5498772 1.3216112
v 0.7395019 -1.4881425 0.30155456
v 1.3341489 -1.4983923 0.30434394
v 0.55405563 -1.3067468 2.0011287
v 0.7134148 -1.2448428 2.1206894
v 0.7134148 -1.2448428 2.1206894
v 1.132084 -1.3060217 2.2130458
v 0.25574315 -1.3000085 2.7112646
v 0.49195635 -1.5473927 1.7679763
v 0.53934073 -1.7951229 0.7821045
v 0.867298 -1.5498772 1.3216112
v 1.0244808 -2.357064 2.3951292
v 1.3137132 -2.0431209 2.4680867
v 1.1096554 -2.0022862 2.0106978
v 0.95473564 -2.1884284 1.9080132
v 1.3002838 -2.1991668 0.90851533
v 1.0244808 -2.357064 2.3951292
v 1.1096554 -2.0022862 2.0106978
v 1.5572991 -1.9908252 0.4126829
v 1.2642385 -2.3042464 0.50756204
v 0.1663934 -1.921138 1.9851043
v 0.45144993 -2.3443172 2.158031
v 0.6280072 -2.197856 1.7545356
v 0.6280072 -2.197856 1.7545356
v 0.4648533 -1.8844249 1.6691093
v 0.45144993 -2.3443172 2.158031
v 1.0244808 -2.357064 2.3951292
v 0.95473564 -2.1884284 1.9080132
v 0.6280072 -2.197856 1.7545356
v 0.7660877 -2.5008714 0.4093976
v 0.45144993 -2.3443172 2.158031
v 0.6933564 -1.9815085 2.7315907
v 0.3884861 -2.025357 2.4426775
v 0.21443254 -1.8262808 2.4739962
v 0.1663934 -1.921138 1.9851043
v 0.3884861 -2.025357 2.4426775
v 0.45144993 -2.3443172 2.158031
v 0.6744888 -1.5292952 2.8824043
v 0.25574315 -1.3000085 2.7112646
v 1.132084 -1.3060217 2.2130458
v 0.867298 -1.5498772 1.3216112
v 1.1314408 -1.6749432 1.4441268
v 1.4850564 -1.5981236 0.5103917
v 1.1314408 -1.6749432 1.4441268
v 1.3341489 -1.4983923 0.30434394
v 0.030427158 1.0124341 3.6838083
v -0.43664354 1.3199682 3.3891888
v -0.26514202 1.1208987 3.8604932
v -0.35000348 1.630161 3.5817797
v 0.045683324 1.65782 3.6567595
v -0.16108489 1.4385371 3.9733868
v 0.13948125 1.2303925 3.9091568
v -0.26514202 1.1208987 3.8604932
v -0.16108489 1.4385371 3.9733868
v -1.2126241 2.75639 0.8823495
v -1.6339798 2.3680522 0.6166197
v -1.0045197 2.5035021 0.28529996
v -1.5771093 2.4777594 0.97987247
v -1.6339798 2.3680522 0.6166197
v -1.2126241 2.75639 0.8823495
v -0.61541855 1.4665987 1.7455958
v -0.034911394 1.3546216 1.9475013
v -0.34514832 1.5579584 1.6197901
v -0.8255764 1.6663909 1.978302
v -0.46045986 1.1901138 1.9814329
v -0.034911394 1.3546216 1.9475013
v -0.08272761 1.9687103 1.6159471
v -0.533206 2.4306116 0.79374164
v -0.41004303 2.1512678 1.0301715
v -0.41004303 2.1512678 1.0301715
v -0.74452955 2.0317445 0.2258929
v -0.76659524 2.6383429 0.5128006
v -0.74452955 2.0317445 0.2258929
v -0.6028773 2.1953993 2.315815
v -0.8255764 1.6663909 1.978302
v -0.8090663 2.1762578 1.6831267
v -1.334 1.8614042 1.2907662
v -1.5771093 2.4777594 0.97987247
v -1.5771093 2.4777594 0.97987247
v -1.7697271 2.0336704 0.8243492
v -1.6391001 1.6804912 0.5506927
v -1.6339798 2.3680522 0.6166197
v -0.41004303 2.1512678 1.0301715
v -0.74452955 2.0317445 0.2258929
v -0.8602112 1.6756625 0.6087217
v -0.74452955 2.0317445 0.2258929
v -1.300467 1.5527711 0.3946979
v -0.08272761 1.9687103 1.6159471
v -0.41004303 2.1512678 1.0301715
v -0.34514832 1.5579584 1.6197901
v -0.08272761 1.9687103 1.6159471
v -0.034911394 1.3546216 1.9475013
v 0.062188804 1.6164422 2.2480285
v 0.27008986 1.8167329 1.9883461
v 0.27008986 1.8167329 1.9883461
v -0.08272761 1.9687103 1.6159471
v -0.74452955 2.0317445 0.2258929
v -0.76659524 2.6383429 0.5128006
v -1.0045197 2.5035021 0.28529996
v -0.6028773 2.1953993 2.315815
v -0.57167673 1.8218837 2.5801072
v -0.8751126 1.6927968 2.241949
v -0.8255764 1.6663909 1.978302
v -0.6028773 2.1953993 2.315815
v -0.4178831 1.2607601 2.3239205
v -0.034911394 1.3546216 1.9475013
v -0.46045986 1.1901138 1.9814329
v 0.061062396 2.2618158 2.222969
v -0.3135895 1.939085 2.6498146
v -0.6028773 2.1953993 2.315815
v -0.015698195 1.903264 2.5746472
v 0.061062396 2.2618158 2.222969
v -0.57167673 1.8218837 2.5801072
v -0.6028773 2.1953993 2.315815
v -0.8090663 2.1762578 1.6831267
v -1.2126241 2.75639 0.8823495
v -0.58577526 2.4447346 1.3471861
v -0.8090663 2.1762578 1.6831267
v -1.5771093 2.4777594 0.97987247
v -1.2126241 2.75639 0.8823495
v 0.061062396 2.2618158 2.222969
v -0.08272761 1.9687103 1.6159471
v 0.27008986 1.8167329 1.9883461
v 0.061062396 2.2618158 2.222969
v -0.4514403 2.2180018 1.937253
v -0.08272761 1.9687103 1.6159471
v -0.35000348 1.630161 3.5817797
v -0.3135895 1.939085 2.6498146
v 0.045683324 1.65782 3.6567595
v -0.5562207 1.3730168 2.3141744
v -0.57167673 1.8218837 2.5801072
v -0.43664354 1.3199682 3.3891888
v -0.43664354 1.3199682 3.3891888
v -0.35000348 1.630161 3.5817797
v -0.26514202 1.1208987 3.8604932
v -0.16108489 1.4385371 3.9733868
v -0.57167673 1.8218837 2.5801072
v -0.3135895 1.939085 2.6498146
v 0.030427158 1.0124341 3.6838083
v -0.4178831 1.2607601 2.3239205
v -0.43664354 1.3199682 3.3891888
v -0.4178831 1.2607601 2.3239205
v -0.5562207 1.3730168 2.3141744
v -0.46045986 1.1901138 1.9814329
v 0.030427158 1.0124341 3.6838083
v -0.060464084 1.3432431 2.4837835
v -0.4178831 1.2607601 2.3239205
v 0.13948125 1.2303925 3.9091568
v 0.27199078 1.2070155 3.7093859
v 0.056968212 -0.85532695 1.9037443
v -0.15598875 -0.9102721 1.3910145
v -0.413256 -0.9513877 1.8908546
v -0.5211454 -1.6145988 4.6743803
v -1.1614337 -0.89680374 4.6221128
v -1.0250267 -0.15103441 5.2026744
v -0.9722304 0.7815957 5.004824
v -0.490669 1.1405847 5.02156
v -1.0250267 -0.15103441 5.2026744
v -0.5211454 -1.6145988 4.6743803
v -0.94221383 -1.2566494 3.6524704
v -1.1614337 -0.89680374 4.6221128
v -0.5211454 -1.6145988 4.6743803
v -0.40594405 -1.353637 3.1548853
v -0.40594405 -1.353637 3.1548853
v -0.7375904 -0.80909353 2.5819743
v -0.30722076 -0.9255292 2.010705
v -0.40594405 -1.353637 3.1548853
v 0.1179004 -1.6429017 4.327724
v 0.11293153 -1.2069237 2.691115
v -0.30722076 -0.9255292 2.010705
v 0.11293153 -1.2069237 2.691115
v 0.3852002 -0.95308805 1.9287975
v -0.683257 -0.6706736 1.9369482
v -0.85074025 0.080714725 1.8552715
v -0.7375904 -0.80909353 2.5819743
v 0.7293207 -1.387286 3.7437701
v 0.11293153 -1.2069237 2.691115
v 0.1179004 -1.6429017 4.327724
v -0.413256 -0.9513877 1.8908546
v -0.2130937 -0.8085659 2.0760317
v 0.056968212 -0.85532695 1.9037443
v -0.16051877 -0.55138886 2.0809963
v 0.056968212 -0.85532695 1.9037443
v -0.2130937 -0.8085659 2.0760317
v -0.19908303 -0.56570095 0.8111764
v -0.20465165 -0.9999283 0.7973777
v 0.019977212 -0.7733731 1.071312
v -0.69035345 -0.9850434 0.90223515
v -0.63161135 -0.5387614 0.80448264
v -0.91371 -0.82410085 1.3358834
v -0.6334934 -0.34193122 1.2877183
v -0.63161135 -0.5387614 0.80448264
v -0.67167366 -0.77153623 1.5993071
v -0.5611136 -0.54709655 1.5340948
v -0.16051877 -0.55138886 2.0809963
v -0.7774286 -0.5533326 0.19225818
v -0.3230829 -0.32294348 0.16291991
v -0.63161135 -0.5387614 0.80448264
v -0.63161135 -0.5387614 0.80448264
v -0.19908303 -0.56570095 0.8111764
v -0.6334934 -0.34193122 1.2877183
v -0.63161135 -0.5387614 0.80448264
v -0.12147796 -0.44995233 1.1057496
v -0.25705457 -0.5471806 1.3325026
v -0.69035345 -0.9850434 0.90223515
v -0.20381787 -1.0626216 0.20493376
v -0.6594811 -1.0786755 0.22706102
v -0.8242568 -0.87499696 0.23176277
v -0.69035345 -0.9850434 0.90223515
v -0.4922354 -1.2080395 1.174605
v -0.91371 -0.82410085 1.3358834
v -0.91371 -0.82410085 1.3358834
v -0.47102523 -1.0399419 1.4459457
v -0.5611136 -0.54709655 1.5340948
v -0.6334934 -0.34193122 1.2877183
v -0.25705457 -0.5471806 1.3325026
v -0.25705457 -0.5471806 1.3325026
v -0.16051877 -0.55138886 2.0809963
v 0.06705046 -0.55670893 1.9022329
v -0.91371 -0.82410085 1.3358834
v -0.67167366 -0.77153623 1.5993071
v -0.47102523 -1.0399419 1.4459457
v 0.31316394 1.0520686 1.4669828
v 0.33697838 0.99816024 2.0715103
v 0.01524815 1.026797 2.236485
v 0.33697838 0.99816024 2.0715103
v 0.20220871 0.5417495 2.1909494
v 0.01524815 1.026797 2.236485
v 0.20220871 0.5417495 2.1909494
v -0.07056731 0.24812214 1.8392267
v -0.28467634 0.83359855 2.12918
v -0.08535671 0.47554713 1.0553645
v 0.33780462 0.49011308 0.8745339
v 0.1499492 0.83677894 0.76093864
v 0.33780462 0.49011308 0.8745339
v 0.88768196 0.34235555 0.34756
v 0.49019372 0.50876594 0.09471884
v 0.72121584 0.48243126 0.9175496
v 0.88768196 0.34235555 0.34756
v 0.5831113 0.44253898 1.2878046
v -0.08535671 0.47554713 1.0553645
v -0.050188154 0.4486633 1.3620099
v 0.33780462 0.49011308 0.8745339
v 0.41507885 0.8209198 0.08750525
v 0.1499492 0.83677894 0.76093864
v 0.45418134 0.5364019 1.5427744
v 0.5831113 0.44253898 1.2878046
v -0.050188154 0.4486633 1.3620099
v -0.050188154 0.4486633 1.3620099
v -0.08535671 0.47554713 1.0553645
v -0.08589527 0.8599014 1.3841462
v -0.20258415 -1.7118835 3.4999886
v -0.359226 -1.3630412 3.3027058
v -0.333323 -1.3750849 3.6918278
v -0.359226 -1.3630412 3.3027058
v -0.28462148 -1.0432174 3.4360752
v -0.333323 -1.3750849 3.6918278
v 0.25574315 -1.3000085 2.7112646
v 0.6744888 -1.5292952 2.8824043
v 0.10374874 -1.0104082 3.6141868
v 0.056262255 -1.5722122 3.7536497
v 0.6933564 -1.9815085 2.7315907
v -0.20258415 -1.7118835 3.4999886
v -0.28462148 -1.0432174 3.4360752
v -0.029507756 -1.22945 3.8424215
v -0.333323 -1.3750849 3.6918278
v 0.27963573 -1.3927791 3.6956768
v 0.056262255 -1.5722122 3.7536497
v -0.029507756 -1.22945 3.8424215
v 1.132084 -1.3060217 2.2130458
v 1.1314408 -1.6749432 1.4441268
v 1.2026875 -1.4307668 2.1693826
v 1.132084 -1.3060217 2.2130458
v 1.2026875 -1.4307668 2.1693826
v 1.2457569 -1.587319 2.4875264
v 0.7134148 -1.2448428 2.1206894
v 0.28556037 -1.533714 1.9821618
v 0.55405563 -1.3067468 2.0011287
v 0.6933564 -1.9815085 2.7315907
v 0.45144993 -2.3443172 2.158031
v 0.3884861 -2.025357 2.4426775
v 0.53934073 -1.7951229 0.7821045
v 0.41528082 -2.278379 0.2456863
v 0.5041663 -1.8316581 0.2237603
v 0.4648533 -1.8844249 1.6691093
v 0.41528082 -2.278379 0.2456863
v 0.49195635 -1.5473927 1.7679763
v 0.1663934 -1.921138 1.9851043
v 0.28556037 -1.533714 1.9821618
v 0.21443254 -1.8262808 2.4739962
v 0.4648533 -1.8844249 1.6691093
v 0.53934073 -1.7951229 0.7821045
v 0.49195635 -1.5473927 1.7679763
v 0.53934073 -1.7951229 0.7821045
v 0.5041663 -1.8316581 0.2237603
v 0.7395019 -1.4881425 0.30155456
v 0.7395019 -1.4881425 0.30155456
v 0.867298 -1.5498772 1.3216112
v 0.6280072 -2.197856 1.7545356
v 0.7660877 -2.5008714 0.4093976
v 0.41528082 -2.278379 0.2456863
v 0.6933564 -1.9815085 2.7315907
v 0.21443254 -1.8262808 2.4739962
v -0.20258415 -1.7118835 3.4999886
v 0.25574315 -1.3000085 2.7112646
v 0.21443254 -1.8262808 2.4739962
v 0.28556037 -1.533714 1.9821618
v 0.25574315 -1.3000085 2.7112646
v 0.28556037 -1.533714 1.9821618
v 0.7134148 -1.2448428 2.1206894
v 0.6744888 -1.5292952 2.8824043
v 1.132084 -1.3060217 2.2130458
v 1.2457569 -1.587319 2.4875264
v -0.8090663 2.1762578 1.6831267
v -0.58577526 2.4447346 1.3471861
v -0.4514403 2.2180018 1.937253
v -0.26514202 1.1208987 3.8604932
v 0.13948125 1.2303925 3.9091568
v 0.030427158 1.0124341 3.6838083
v -0.76659524 2.6383429 0.5128006
v -1.2126241 2.75639 0.8823495
v -1.0045197 2.5035021 0.28529996
v -1.2126241 2.75639 0.8823495
v -0.58577526 2.4447346 1.3471861
v -0.8255764 1.6663909 1.978302
v -0.61541855 1.4665987 1.7455958
v -1.1692901 1.6124427 1.2969513
v -0.8255764 1.6663909 1.978302
v -1.334 1.8614042 1.2907662
v -0.8090663 2.1762578 1.6831267
v -1.7697271 2.0336704 0.8243492
v -1.6339798 2.3680522 0.6166197
v -1.5771093 2.4777594 0.97987247
v -1.334 1.8614042 1.2907662
v -1.6391001 1.6804912 0.5506927
v -1.7697271 2.0336704 0.8243492
v -1.1692901 1.6124427 1.2969513
v -1.6391001 1.6804912 0.5506927
v -0.8255764 1.6663909 1.978302
v 0.062188804 1.6164422 2.2480285
v -0.4178831 1.2607601 2.3239205
v -0.060464084 1.3432431 2.4837835
v -0.46045986 1.1901138 1.9814329
v -0.8751126 1.6927968 2.241949
v -0.5562207 1.3730168 2.3141744
v -0.8751126 1.6927968 2.241949
v -0.57167673 1.8218837 2.5801072
v -0.46045986 1.1901138 1.9814329
v -0.8255764 1.6663909 1.978302
v 0.062188804 1.6164422 2.2480285
v -0.034911394 1.3546216 1.9475013
v -0.4178831 1.2607601 2.3239205
v -1.1692901 1.6124427 1.2969513
v -1.300467 1.5527711 0.3946979
v -1.6391001 1.6804912 0.5506927
v 0.045683324 1.65782 3.6567595
v -0.3135895 1.939085 2.6498146
v -0.015698195 1.903264 2.5746472
v -0.015698195 1.903264 2.5746472
v 0.27199078 1.2070155 3.7093859
v 0.045683324 1.65782 3.6567595
v 0.27008986 1.8167329 1.9883461
v 0.062188804 1.6164422 2.2480285
v 0.061062396 2.2618158 2.222969
v 0.062188804 1.6164422 2.2480285
v -0.060464084 1.3432431 2.4837835
v 0.27199078 1.2070155 3.7093859
v -0.060464084 1.3432431 2.4837835
v 0.030427158 1.0124341 3.6838083
v 0.45418134 0.5364019 1.5427744
v -0.050188154 0.4486633 1.3620099
v -0.07056731 0.24812214 1.8392267
v -0.07056731 0.24812214 1.8392267
v -0.050188154 0.4486633 1.3620099
v -0.32091925 0.516257 1.5998125
v -0.15598875 -0.9102721 1.3910145
v -0.47102523 -1.0399419 1.4459457
v -0.413256 -0.9513877 1.8908546
v -0.47102523 -1.0399419 1.4459457
v -0.67167366 -0.77153623 1.5993071
v -0.413256 -0.9513877 1.8908546
v -0.65736365 0.8229393 2.1839166
v -0.85074025 0.080714725 1.8552715
v -0.24474563 1.0944616 2.080327
v -0.844711 0.72507995 3.0989466
v -0.9857765 1.0045171 4.4970717
v -0.33437467 1.5170254 4.1389885
v -0.490669 1.1405847 5.02156
v -0.9722304 0.7815957 5.004824
v -0.413256 -0.9513877 1.8908546
v -0.67167366 -0.77153623 1.5993071
v -0.16051877 -0.55138886 2.0809963
v -0.2130937 -0.8085659 2.0760317
v 0.21443254 -1.8262808 2.4739962
v 0.25574315 -1.3000085 2.7112646
v -0.359226 -1.3630412 3.3027058
v -0.28462148 -1.0432174 3.4360752
v -0.28462148 -1.0432174 3.4360752
v 0.25574315 -1.3000085 2.7112646
v 0.10374874 -1.0104082 3.6141868
v -0.029507756 -1.22945 3.8424215
v 0.7660877 -2.5008714 0.4093976
v 1.3002838 -2.1991668 0.90851533
v 1.2642385 -2.3042464 0.50756204
v 0.95473564 -2.1884284 1.9080132
v 0.55405563 -1.3067468 2.0011287
v 0.49195635 -1.5473927 1.7679763
v 0.867298 -1.5498772 1.3216112
v 0.28556037 -1.533714 1.9821618
v 0.13948125 1.2303925 3.9091568
v 0.045683324 1.65782 3.6567595
v 0.27199078 1.2070155 3.7093859
v -0.16108489 1.4385371 3.9733868
v -0.6028773 2.1953993 2.315815
v -0.8090663 2.1762578 1.6831267
v -0.4514403 2.2180018 1.937253
v 0.061062396 2.2618158 2.222969
v -0.61541855 1.4665987 1.7455958
v -0.34514832 1.5579584 1.6197901
v -0.8602112 1.6756625 0.6087217
v -0.8602112 1.6756625 0.6087217
v -1.1692901 1.6124427 1.2969513
v -1.300467 1.5527711 0.3946979
v -0.58577526 2.4447346 1.3471861
v -0.76659524 2.6383429 0.5128006
v -0.533206 2.4306116 0.79374164
v -0.4514403 2.2180018 1.937253
v -0.08272761 1.9687103 1.6159471
v -0.15598875 -0.9102721 1.3910145
v 0.056968212 -0.85532695 1.9037443
v 0.06705046 -0.55670893 1.9022329
v -0.25705457 -0.5471806 1.3325026
v -0.7774286 -0.5533326 0.19225818
v -0.63161135 -0.5387614 0.80448264
v -0.69035345 -0.9850434 0.90223515
v -0.8242568 -0.87499696 0.23176277
v 1.1578683 0.6434873 0.58459264
v 0.8294699 0.84317636 1.0621955
v 0.62306297 1.1623949 0.9833999
v 0.9738537 1.2053639 0.423172
v 0.77359194 0.8426106 1.3350533
v 0.50863415 0.6812583 1.4870563
v 0.31316394 1.0520686 1.4669828
v 0.5092728 1.2561034 1.2802105
v 0.6933564 -1.9815085 2.7315907
v 0.056262255 -1.5722122 3.7536497
v 0.27963573 -1.3927791 3.6956768
v 0.6744888 -1.5292952 2.8824043
v -0.74452955 2.0317445 0.2258929
v -1.0045197 2.5035021 0.28529996
v -1.300467 1.5527711 0.3946979
v -1.6391001 1.6804912 0.5506927
v -1.6339798 2.3680522 0.6166197
vt 0.19126904 0.32530618
vt 0.25623786 0.2596705
vt 0.1908831 0.28516483
vt 0.2710687 0.16203022
vt 0.19785804 0.12574315
vt 0.21056092 0.065312386
vt 0.122240245 0.0071686506
vt 0.1908831 0.28516483
vt 0.10132772 0.31861556
vt 0.19126904 0.32530618
vt 0.07462144 0.272797
vt 0.19785804 0.12574315
vt 0.078639746 0.13502443
vt 0.122240245 0.0071686506
vt 0.122240245 0.0071686506
vt 0.052831948 0.04861939
vt 0.4328403 0.30957174
vt 0.37280226 0.27555966
vt 0.2874825 0.34737778
vt 0.3340208 0.44129562
vt 0.4328403 0.30957174
vt 0.2874825 0.34737778
vt 0.28158343 0.5159066
vt 0.36577016 0.54197717
vt 0.34419996 0.5780866
vt 0.4694004 0.4355086
vt 0.4328403 0.30957174
vt 0.40538973 0.57714367
vt 0.34419996 0.5780866
vt 0.40538973 0.57714367
vt 0.12742001 0.57460916
vt 0.03216827 0.5391282
vt 0.038885534 0.5907053
vt 0.087815434 0.51269376
vt 0.12742001 0.57460916
vt 0.47436583 0.005257368
vt 0.46853757 0.1212312
vt 0.5336144 0.027517676
vt 0.3722031 0.11996937
vt 0.47284436 0.23010325
vt 0.47436583 0.005257368
vt 0.47284436 0.23010325
vt 0.52134717 0.19131231
vt 0.5336144 0.027517676
vt 0.46853757 0.1212312
vt 0.47284436 0.23010325
vt 0.5336144 0.2650448
vt 0.37351358 0.061435103
vt 0.3722031 0.11996937
vt 0.3167826 0.19174564
vt 0.47284436 0.23010325
vt 0.2893598 0.11715603
vt 0.28158343 0.17085183
vt 0.29451013 0.22075427
vt 0.3714205 0.24353015
vt 0.2893598 0.11715603
vt 0.3167826 0.19174564
vt 0.37351358 0.061435103
vt 0.29253685 0.05325508
vt 0.28158343 0.17085183
vt 0.29451013 0.22075427
vt 0.59893787 0.005257398
vt 0.54412913 0.090301335
vt 0.6514026 0.008322805
vt 0.6359575 0.08864024
vt 0.6514026 0.008322805
vt 0.5614027 0.16156365
vt 0.6359575 0.08864024
vt 0.6653168 0.18730442
vt 0.5977948 0.18730444
vt 0.69893336 0.14480169
vt 0.68063194 0.03458205
vt 0.6514026 0.008322805
vt 0.6989396 0.09829801
vt 0.6514026 0.008322805
vt 0.6359575 0.08864024
vt 0.69893336 0.14480169
vt 0.61779106 0.5365319
vt 0.6605799 0.537189
vt 0.65260506 0.47567797
vt 0.4856801 0.38638973
vt 0.5240371 0.5310998
vt 0.5618098 0.4784565
vt 0.09547451 0.44789088
vt 0.043863058 0.34844875
vt 0.03216827 0.5391282
vt 0.12846309 0.33582103
vt 0.076402724 0.34031188
vt 0.09547451 0.44789088
vt 0.19120425 0.41995025
vt 0.19120425 0.41995025
vt 0.17211637 0.5345017
vt 0.12742001 0.57460916
vt 0.19120425 0.6124128
vt 0.03216827 0.5391282
vt 0.087815434 0.51269376
vt 0.043863058 0.34844875
vt 0.005257368 0.4299822
vt 0.076402724 0.34031188
vt 0.087815434 0.51269376
vt 0.17211637 0.5345017
vt 0.12742001 0.57460916
vt 0.9439743 0.005257383
vt 0.92133963 0.026346996
vt 0.92230517 0.050897866
vt 0.2048216 0.54705447
vt 0.20171906 0.57485074
vt 0.23025267 0.5779813
vt 0.99181455 0.060679287
vt 0.99181455 0.015832514
vt 0.95795304 0.07707518
vt 0.99181455 0.015832514
vt 0.92230517 0.050897866
vt 0.9439743 0.005257383
vt 0.92994523 0.7403246
vt 0.9644186 0.7484749
vt 0.95345074 0.7089351
vt 0.9350405 0.94880307
vt 0.92896676 0.9069126
vt 0.9097414 0.9449656
vt 0.8754177 0.9312648
vt 0.9097414 0.9449656
vt 0.89029837 0.8970248
vt 0.90831196 0.7086367
vt 0.95345074 0.7089351
vt 0.96441853 0.65224516
vt 0.90831196 0.7086367
vt 0.92994523 0.7403246
vt 0.91096747 0.7618531
vt 0.9309 0.7803049
vt 0.9644186 0.7484749
vt 0.89642024 0.8394013
vt 0.89029837 0.8970248
vt 0.9350405 0.84752285
vt 0.92896676 0.9069126
vt 0.89029837 0.8970248
vt 0.45523474 0.7135161
vt 0.43778604 0.77304053
vt 0.47195613 0.77327275
vt 0.92519534 0.59578824
vt 0.9587667 0.6028302
vt 0.9587667 0.56811607
vt 0.92519534 0.59578824
vt 0.92519987 0.5716344
vt 0.8799019 0.97087526
vt 0.9097414 0.9449656
vt 0.8754177 0.9312648
vt 0.62512136 0.59730124
vt 0.65981793 0.61492896
vt 0.65718555 0.56357694
vt 0.23793419 0.34084487
vt 0.25434172 0.35940433
vt 0.26451445 0.3358209
vt 0.20393248 0.39009953
vt 0.23793419 0.34084487
vt 0.20393248 0.39009953
vt 0.24069135 0.41464305
vt 0.20464256 0.7973519
vt 0.15931058 0.7465168
vt 0.17856419 0.8228441
vt 0.19480526 0.74083877
vt 0.15931058 0.7465168
vt 0.20464256 0.7166979
vt 0.15931058 0.7465168
vt 0.14811948 0.7228434
vt 0.14811948 0.7228434
vt 0.1879003 0.68722296
vt 0.20417577 0.6291368
vt 0.15419352 0.6863534
vt 0.14811948 0.7228434
vt 0.20417577 0.6291368
vt 0.15803498 0.6229277
vt 0.14811948 0.7228434
vt 0.11444613 0.7139407
vt 0.12955523 0.67799944
vt 0.673504 0.66144526
vt 0.7197195 0.70913994
vt 0.71750665 0.64365554
vt 0.7569686 0.6702844
vt 0.71750665 0.64365554
vt 0.673504 0.66144526
vt 0.67739475 0.7194681
vt 0.7054869 0.7177156
vt 0.7054869 0.7177156
vt 0.72888196 0.74289584
vt 0.6865035 0.7499857
vt 0.6865035 0.7499857
vt 0.73314 0.7873541
vt 0.73314 0.7873541
vt 0.6945698 0.7852732
vt 0.71787226 0.8393445
vt 0.9457602 0.16873646
vt 0.97448796 0.12713253
vt 0.92133963 0.14228702
vt 0.7472973 0.9307449
vt 0.7472973 0.872887
vt 0.7063047 0.9399264
vt 0.6758912 0.87887037
vt 0.67109454 0.9067825
vt 0.6758912 0.87887037
vt 0.7472973 0.872887
vt 0.7012382 0.85770905
vt 0.7472973 0.872887
vt 0.25500393 0.44121242
vt 0.20171906 0.43906963
vt 0.23550297 0.4701408
vt 0.24069135 0.41464305
vt 0.20171906 0.43906963
vt 0.20393248 0.39009953
vt 0.20321362 0.41665316
vt 0.23550297 0.4701408
vt 0.26442564 0.4729787
vt 0.23550297 0.4701408
vt 0.26451445 0.53147054
vt 0.7569686 0.8405323
vt 0.73314 0.7873541
vt 0.71787226 0.8393445
vt 0.23550297 0.4701408
vt 0.22738786 0.5361283
vt 0.26451445 0.53147054
vt 0.9947426 0.45708233
vt 0.9947426 0.3873455
vt 0.96832395 0.39408684
vt 0.26581168 0.9600434
vt 0.21661913 0.8713036
vt 0.23013186 0.9606418
vt 0.27106857 0.8369423
vt 0.25585747 0.7475963
vt 0.2408557 0.8323798
vt 0.23687859 0.5886013
vt 0.23665145 0.6235741
vt 0.2710687 0.5982694
vt 0.7477224 0.60461164
vt 0.72289455 0.61210215
vt 0.7487867 0.6331406
vt 0.2710687 0.5982694
vt 0.23665145 0.6235741
vt 0.2710687 0.63755363
vt 0.47255656 0.84251046
vt 0.44990036 0.81218815
vt 0.42791948 0.81326413
vt 0.46683666 0.88177514
vt 0.47255656 0.84251046
vt 0.3798369 0.84102917
vt 0.37599066 0.8818276
vt 0.39134404 0.92316103
vt 0.37599066 0.8818276
vt 0.46683666 0.88177514
vt 0.4342868 0.92316103
vt 0.20415044 0.83335876
vt 0.1211288 0.83478457
vt 0.16734242 0.8605154
vt 0.11444616 0.8725538
vt 0.14675379 0.923219
vt 0.16734242 0.8605154
vt 0.1211288 0.83478457
vt 0.5464176 0.7013515
vt 0.571277 0.6997063
vt 0.5676676 0.56357694
vt 0.74836946 0.15128171
vt 0.73740196 0.24730337
vt 0.79581666 0.20594776
vt 0.79581666 0.20594776
vt 0.7759931 0.09773624
vt 0.73740196 0.24730337
vt 0.772573 0.25845027
vt 0.719434 0.084619164
vt 0.7759931 0.09773624
vt 0.7716224 0.05956459
vt 0.73838663 0.005257368
vt 0.7309389 0.055832744
vt 0.719434 0.084619164
vt 0.7309389 0.055832744
vt 0.7428274 0.3830764
vt 0.7877778 0.29566523
vt 0.73401105 0.27555954
vt 0.7534956 0.45036656
vt 0.7363951 0.45448858
vt 0.7363951 0.45448858
vt 0.69476247 0.4492696
vt 0.7578834 0.52376604
vt 0.9578093 0.47567853
vt 0.9578093 0.38734552
vt 0.92519534 0.42992425
vt 0.80894375 0.05984056
vt 0.7716224 0.05956459
vt 0.7759931 0.09773624
vt 0.79803586 0.10387504
vt 0.79581666 0.20594776
vt 0.80894375 0.05984056
vt 0.7759931 0.09773624
vt 0.772573 0.25845027
vt 0.80894375 0.24286008
vt 0.864903 0.67011786
vt 0.8246069 0.6502762
vt 0.8197155 0.69488764
vt 0.8197155 0.69488764
vt 0.844386 0.7070279
vt 0.8246069 0.6502762
vt 0.7674835 0.6436553
vt 0.7872431 0.6899502
vt 0.8197155 0.69488764
vt 0.8239937 0.8098154
vt 0.8246069 0.6502762
vt 0.16734242 0.8605154
vt 0.1783781 0.8982096
vt 0.20415044 0.8993424
vt 0.1928227 0.9322537
vt 0.1783781 0.8982096
vt 0.14675379 0.923219
vt 0.7109214 0.5283303
vt 0.7578834 0.52376604
vt 0.69476247 0.4492696
vt 0.7428274 0.3830764
vt 0.7130693 0.38692904
vt 0.7122122 0.29033825
vt 0.7130693 0.38692904
vt 0.73401105 0.27555954
vt 0.89521444 0.1637944
vt 0.84923756 0.13396466
vt 0.8620515 0.17446804
vt 0.9251953 0.3042364
vt 0.96219283 0.29172707
vt 0.9423704 0.2755599
vt 0.6485996 0.23563111
vt 0.6515205 0.19781919
vt 0.6240959 0.2093509
vt 0.013835907 0.77756715
vt 0.005257368 0.83238626
vt 0.066708684 0.8168068
vt 0.31741714 0.63606346
vt 0.3248155 0.599784
vt 0.28158355 0.6354295
vt 0.55605555 0.2377617
vt 0.59381485 0.19781917
vt 0.5522475 0.20802474
vt 0.54412913 0.26348114
vt 0.59381485 0.23783112
vt 0.59381485 0.19781917
vt 0.835969 0.48681784
vt 0.80950475 0.5761738
vt 0.83078027 0.5493734
vt 0.83078027 0.5493734
vt 0.85419273 0.6303477
vt 0.79829264 0.6084049
vt 0.85419273 0.6303477
vt 0.3357215 0.77865034
vt 0.3864591 0.7388352
vt 0.33516383 0.7147121
vt 0.37257838 0.66567427
vt 0.31741714 0.63606346
vt 0.31741714 0.63606346
vt 0.36161947 0.61466384
vt 0.38822794 0.58860135
vt 0.3248155 0.599784
vt 0.83078027 0.5493734
vt 0.85419273 0.6303477
vt 0.889385 0.5928514
vt 0.85419273 0.6303477
vt 0.9146805 0.6193383
vt 0.835969 0.48681784
vt 0.83078027 0.5493734
vt 0.88171077 0.48731494
vt 0.835969 0.48681784
vt 0.89004946 0.44942403
vt 0.8621838 0.42141032
vt 0.83816504 0.44440794
vt 0.83816504 0.44440794
vt 0.835969 0.48681784
vt 0.10393143 0.8205993
vt 0.07027805 0.7827587
vt 0.066708684 0.8168068
vt 0.3357215 0.77865034
vt 0.37281346 0.8016735
vt 0.38822794 0.7631328
vt 0.3864591 0.7388352
vt 0.3357215 0.77865034
vt 0.87211275 0.038712025
vt 0.9108248 0.018682003
vt 0.87660134 0.005257368
vt 0.9639058 0.48619324
vt 0.9329059 0.5342275
vt 0.9639058 0.5510242
vt 0.92695165 0.5048611
vt 0.9639058 0.48619324
vt 0.9251952 0.5576012
vt 0.9639058 0.5510242
vt 0.9242636 0.18566406
vt 0.964975 0.24158978
vt 0.964975 0.18074584
vt 0.9242636 0.18566406
vt 0.92133963 0.253976
vt 0.964975 0.24158978
vt 0.06295526 0.62292767
vt 0.08993268 0.6840017
vt 0.10393143 0.64154005
vt 0.06295526 0.62292767
vt 0.038015246 0.6740012
vt 0.08993268 0.6840017
vt 0.9251953 0.3042364
vt 0.93261665 0.37248325
vt 0.96219283 0.29172707
vt 0.76748335 0.9831836
vt 0.8141438 0.97392845
vt 0.798252 0.8829789
vt 0.798252 0.8829789
vt 0.83362854 0.8751576
vt 0.79988754 0.83248234
vt 0.83406484 0.8320372
vt 0.8141438 0.97392845
vt 0.83406484 0.96980596
vt 0.89521444 0.1637944
vt 0.87211275 0.038712025
vt 0.84923756 0.13396466
vt 0.87211275 0.038712025
vt 0.8564544 0.03733599
vt 0.87660134 0.005257368
vt 0.89521444 0.1637944
vt 0.8990729 0.064995766
vt 0.87211275 0.038712025
vt 0.89450717 0.19301128
vt 0.9108248 0.17831779
vt 0.9067179 0.8288865
vt 0.9309 0.7803049
vt 0.8812041 0.7945287
vt 0.40538973 0.57714367
vt 0.47516525 0.5165987
vt 0.4694004 0.4355086
vt 0.47516525 0.34918928
vt 0.4328403 0.30957174
vt 0.4694004 0.4355086
vt 0.58049226 0.2834792
vt 0.6435034 0.373734
vt 0.6605799 0.2755599
vt 0.58049226 0.2834792
vt 0.59855664 0.4286852
vt 0.59855664 0.4286852
vt 0.65260506 0.47567797
vt 0.61779106 0.5365319
vt 0.59855664 0.4286852
vt 0.52606 0.3247366
vt 0.5618098 0.4784565
vt 0.61779106 0.5365319
vt 0.5618098 0.4784565
vt 0.5548409 0.55306244
vt 0.18805724 0.005257368
vt 0.122240245 0.0071686506
vt 0.21056092 0.065312386
vt 0.4856801 0.38638973
vt 0.5618098 0.4784565
vt 0.52606 0.3247366
vt 0.8812041 0.7945287
vt 0.87679344 0.8206154
vt 0.9067179 0.8288865
vt 0.2048216 0.54705447
vt 0.23025267 0.5779813
vt 0.23025267 0.54664314
vt 0.92896676 0.9069126
vt 0.89029837 0.8970248
vt 0.9097414 0.9449656
vt 0.6430344 0.8427568
vt 0.6002036 0.8351369
vt 0.6344634 0.8735565
vt 0.5817919 0.87755203
vt 0.6002036 0.8351369
vt 0.62645787 0.89697915
vt 0.6022385 0.8976833
vt 0.60383487 0.9627361
vt 0.3987427 0.77327275
vt 0.43778604 0.77304053
vt 0.4144048 0.7148825
vt 0.4144048 0.7148825
vt 0.45523474 0.7135161
vt 0.41172683 0.6707088
vt 0.4144048 0.7148825
vt 0.46821415 0.6724001
vt 0.4456141 0.65104496
vt 0.90831196 0.7086367
vt 0.96441853 0.65224516
vt 0.92324495 0.64670277
vt 0.902167 0.6436555
vt 0.90831196 0.7086367
vt 0.92994523 0.7403246
vt 0.8754177 0.7323829
vt 0.8754177 0.7323829
vt 0.91096747 0.7618531
vt 0.41078126 0.6530678
vt 0.41172683 0.6707088
vt 0.4456141 0.65104496
vt 0.4456141 0.65104496
vt 0.41025606 0.58860135
vt 0.43799156 0.5887897
vt 0.8754177 0.7323829
vt 0.8801694 0.7578427
vt 0.91096747 0.7618531
vt 0.15931058 0.7465168
vt 0.14956316 0.8036892
vt 0.17856419 0.8228441
vt 0.97448796 0.17023104
vt 0.97448796 0.12713253
vt 0.9457602 0.16873646
vt 0.97448796 0.12713253
vt 0.9522252 0.08758995
vt 0.92133963 0.14228702
vt 0.8194586 0.23472863
vt 0.8496697 0.24262702
vt 0.8496697 0.20352614
vt 0.6257844 0.6951201
vt 0.6115116 0.7670691
vt 0.65981793 0.76396537
vt 0.5965323 0.71194136
vt 0.6115116 0.7670691
vt 0.5817919 0.6680901
vt 0.6492834 0.66417587
vt 0.63710463 0.6419661
vt 0.97198266 0.9201985
vt 0.97198266 0.83940136
vt 0.94555527 0.9025225
vt 0.5910364 0.6328182
vt 0.5817919 0.6680901
vt 0.63710463 0.6419661
vt 0.20321362 0.41665316
vt 0.20171906 0.43906963
vt 0.24069135 0.41464305
vt 0.571277 0.8886708
vt 0.54170287 0.88050175
vt 0.5464932 0.9156415
vt 0.54170287 0.88050175
vt 0.51174057 0.89715314
vt 0.5464932 0.9156415
vt 0.7578834 0.52376604
vt 0.7109214 0.5283303
vt 0.7477224 0.60461164
vt 0.23665145 0.6235741
vt 0.22718662 0.7118558
vt 0.2710687 0.63755363
vt 0.7877778 0.6027014
vt 0.7487867 0.6331406
vt 0.7784674 0.6326228
vt 0.21764246 0.616146
vt 0.23665145 0.6235741
vt 0.23687859 0.5886013
vt 0.69476247 0.4492696
vt 0.7130693 0.38692904
vt 0.6877053 0.44500357
vt 0.7094543 0.07877219
vt 0.719434 0.084619164
vt 0.7309389 0.055832744
vt 0.7363951 0.45448858
vt 0.7744515 0.46168834
vt 0.7534956 0.45036656
vt 0.16734242 0.8605154
vt 0.14675379 0.923219
vt 0.1783781 0.8982096
vt 0.52589166 0.6194202
vt 0.5676676 0.56357694
vt 0.52388704 0.56794417
vt 0.5464176 0.7013515
vt 0.5676676 0.56357694
vt 0.5158874 0.7162026
vt 0.5622083 0.7365384
vt 0.5231806 0.7408682
vt 0.5576979 0.782405
vt 0.5464176 0.7013515
vt 0.52589166 0.6194202
vt 0.5158874 0.7162026
vt 0.52589166 0.6194202
vt 0.52388704 0.56794417
vt 0.48637307 0.5763061
vt 0.48637307 0.5763061
vt 0.49992383 0.66651475
vt 0.8197155 0.69488764
vt 0.8239937 0.8098154
vt 0.864903 0.82152224
vt 0.26581168 0.8474571
vt 0.21661913 0.8713036
vt 0.26581168 0.9600434
vt 0.51100385 0.8132744
vt 0.5576979 0.782405
vt 0.5231806 0.7408682
vt 0.51100385 0.8132744
vt 0.5231806 0.7408682
vt 0.48567998 0.74950266
vt 0.7109214 0.5283303
vt 0.69476247 0.4492696
vt 0.67109454 0.47441986
vt 0.08215594 0.8674778
vt 0.1032424 0.9048857
vt 0.1032424 0.84290093
vt 0.8620515 0.17446804
vt 0.89450717 0.19301128
vt 0.89521444 0.1637944
vt 0.07027805 0.7827587
vt 0.013835907 0.77756715
vt 0.066708684 0.8168068
vt 0.013835907 0.77756715
vt 0.04952669 0.7176862
vt 0.3654759 0.8227259
vt 0.32979476 0.8242898
vt 0.34136522 0.8917706
vt 0.3864591 0.7388352
vt 0.37257838 0.66567427
vt 0.33516383 0.7147121
vt 0.36161947 0.61466384
vt 0.3248155 0.599784
vt 0.31741714 0.63606346
vt 0.36119175 0.9019078
vt 0.32584786 0.9730303
vt 0.3654759 0.9618157
vt 0.34136522 0.8917706
vt 0.32584786 0.9730303
vt 0.3654759 0.8227259
vt 0.86439323 0.88306224
vt 0.86439323 0.8320373
vt 0.8445797 0.8519409
vt 0.87660134 0.005257368
vt 0.8194585 0.031546474
vt 0.8564544 0.03733599
vt 0.8194585 0.031546474
vt 0.836905 0.073450565
vt 0.87660134 0.005257368
vt 0.82952774 0.008857369
vt 0.8621838 0.42141032
vt 0.89004946 0.44942403
vt 0.909286 0.4190309
vt 0.34136522 0.8917706
vt 0.29006368 0.95980847
vt 0.32584786 0.9730303
vt 0.96219283 0.29172707
vt 0.93261665 0.37248325
vt 0.96219283 0.37683082
vt 0.8372729 0.39395452
vt 0.8893666 0.27555943
vt 0.85495377 0.2879529
vt 0.83816504 0.44440794
vt 0.8621838 0.42141032
vt 0.80295134 0.42913723
vt 0.8621838 0.42141032
vt 0.890378 0.39870715
vt 0.8893666 0.27555943
vt 0.890378 0.39870715
vt 0.9146805 0.2803018
vt 0.5910364 0.6328182
vt 0.63710463 0.6419661
vt 0.62512136 0.59730124
vt 0.62512136 0.59730124
vt 0.63710463 0.6419661
vt 0.65981793 0.61492896
vt 0.9309 0.7803049
vt 0.91096747 0.7618531
vt 0.8812041 0.7945287
vt 0.91096747 0.7618531
vt 0.8801694 0.7578427
vt 0.8812041 0.7945287
vt 0.052831948 0.04861939
vt 0.122240245 0.0071686506
vt 0.015373647 0.042557955
vt 0.078639746 0.13502443
vt 0.07462144 0.272797
vt 0.005257368 0.24565578
vt 0.055496514 0.32530618
vt 0.10132772 0.31861556
vt 0.6430344 0.9326629
vt 0.62645787 0.89697915
vt 0.60383487 0.9627361
vt 0.62883687 0.95877916
vt 0.5576979 0.782405
vt 0.51100385 0.8132744
vt 0.54170287 0.88050175
vt 0.51174057 0.89715314
vt 0.7877778 0.6027014
vt 0.7578834 0.52376604
vt 0.7477224 0.60461164
vt 0.7487867 0.6331406
vt 0.8239937 0.8098154
vt 0.77378726 0.7876375
vt 0.78174007 0.81948066
vt 0.7872431 0.6899502
vt 0.49468625 0.7408657
vt 0.5158874 0.7162026
vt 0.49992383 0.66651475
vt 0.5231806 0.7408682
vt 0.6485996 0.23563111
vt 0.6043296 0.23963682
vt 0.6515205 0.25251865
vt 0.6240959 0.2093509
vt 0.008377194 0.65572095
vt 0.023609877 0.7139571
vt 0.038015246 0.6740012
vt 0.06295526 0.62292767
vt 0.32979476 0.8242898
vt 0.30901265 0.81218815
vt 0.2815835 0.9133351
vt 0.2815835 0.9133351
vt 0.34136522 0.8917706
vt 0.29006368 0.95980847
vt 0.04952669 0.7176862
vt 0.07027805 0.7827587
vt 0.08102441 0.7553761
vt 0.038015246 0.6740012
vt 0.08993268 0.6840017
vt 0.66203517 0.20862347
vt 0.66434765 0.26108485
vt 0.69233143 0.26108485
vt 0.69419575 0.19781917
vt 0.6056329 0.77758384
vt 0.6002036 0.8351369
vt 0.6430344 0.8427568
vt 0.6368431 0.7810291
vt 0.71787226 0.8393445
vt 0.6945698 0.7852732
vt 0.67109454 0.78274643
vt 0.6745682 0.84719443
vt 0.88407433 0.20352618
vt 0.86018443 0.20581944
vt 0.86370957 0.2463649
vt 0.8840744 0.25168657
vt 0.21860504 0.72237056
vt 0.21661901 0.83694243
vt 0.2408557 0.8323798
vt 0.25585747 0.7475963
vt 0.027588606 0.93856287
vt 0.07164121 0.92207545
vt 0.005257368 0.87622046
vt 0.021690369 0.84290093
vt 0.07164121 0.8519333
vn 0.10595344 0.06840445 0.9920153
vn -0.9637909 -0.25551763 0.07627418
vn -0.96366054 0.24128267 -0.114633866
vn -0.8876517 -0.44625512 -0.11371313
vn -0.9602264 0.23725766 -0.14722145
vn -0.81557 -0.45153448 -0.36188677
vn -0.25995225 -0.17837724 -0.94900274
vn -0.9636646 0.24125549 -0.11465736
vn -0.86655223 0.3250394 0.37873033
vn 0.105944 0.06849424 0.99201006
vn -0.94831055 0.2942437 -0.11885987
vn -0.9602314 0.23724264 -0.1472123
vn -0.9566972 0.25307658 -0.14381422
vn -0.2599181 -0.17837414 -0.94901264
vn -0.25994503 -0.17840971 -0.9489985
vn -0.9066725 0.3901842 -0.16031536
vn -0.14834587 0.5141931 0.84474766
vn 0.34635472 0.5320973 0.77259994
vn 0.39424875 0.10934419 0.9124755
vn 0.5899397 -0.14411364 0.79448235
vn -0.14837185 0.514123 0.8447858
vn 0.39425462 0.109360084 0.912471
vn 0.6291604 -0.3427057 0.69764584
vn 0.16930653 -0.22327927 0.95993817
vn -0.015144486 -0.9830652 -0.18262811
vn 0.10595609 0.06842241 0.99201375
vn -0.14839374 0.51414907 0.84476614
vn -0.07014829 -0.9936238 -0.08826478
vn -0.015239462 -0.9830766 -0.18255898
vn -0.07020133 -0.99361837 -0.08828278
vn 0.34635308 0.5320944 0.7726026
vn 0.9667383 0.1884033 0.1729778
vn 0.39424577 0.10935573 0.9124754
vn 0.17275849 0.94588375 -0.27469626
vn 0.34630537 0.5321172 0.7726083
vn 0.96673733 0.18840545 0.17298064
vn 0.99528015 0.038510114 0.08907406
vn 0.3942624 0.10933249 0.91247106
vn 0.90493697 -0.3973738 -0.15225972
vn 0.2461166 -0.9360009 -0.25165182
vn 0.9667269 0.18844387 0.17299753
vn 0.24612756 -0.93598366 -0.251705
vn 0.6291735 -0.3427111 0.6976313
vn 0.3942658 0.10939407 0.9124621
vn 0.9952781 0.03850847 0.08909699
vn 0.24610564 -0.9359964 -0.25167906
vn -0.015157733 -0.9830667 -0.18261912
vn 0.84034663 0.50225747 -0.2038498
vn 0.90494174 -0.3973584 -0.15227151
vn 0.8379785 -0.506971 -0.20192158
vn 0.24610253 -0.9359883 -0.25171217
vn 0.5791884 0.20088956 -0.7900531
vn 0.23980351 -0.19240946 -0.95156324
vn -0.12498386 -0.29885432 -0.94607866
vn 0.26580098 -0.9065715 -0.32783774
vn 0.57917273 0.20088412 -0.790066
vn 0.8379712 -0.50698155 -0.20192507
vn 0.84036297 0.5022429 -0.20381899
vn 0.8560129 0.36518747 -0.36589587
vn 0.23981315 -0.19240162 -0.95156246
vn -0.12497902 -0.29884273 -0.946083
vn -0.3897007 0.9161053 -0.094255775
vn -0.25992957 -0.17843089 -0.94899875
vn 0.061974317 0.9545547 -0.29152024
vn -0.1321244 -0.16098557 -0.9780729
vn 0.06199932 0.9545509 -0.29152748
vn -0.1879968 -0.24100582 -0.9521413
vn -0.13210656 -0.16098188 -0.9780758
vn -0.12502035 -0.29885653 -0.9460731
vn -0.15755369 -0.8910608 -0.42566082
vn 0.23979984 -0.19238457 -0.95156914
vn 0.85600436 0.36519584 -0.3659076
vn 0.06193933 0.95454895 -0.29154682
vn 0.5791935 0.20086241 -0.7900562
vn 0.06197722 0.9545476 -0.29154295
vn -0.13211796 -0.16096702 -0.9780768
vn 0.2397651 -0.19239822 -0.95157516
vn -0.1575598 -0.8910505 -0.4256802
vn -0.18795933 -0.24099356 -0.9521519
vn -0.81558555 -0.45151785 -0.36187232
vn 0.2461318 -0.9359773 -0.25172442
vn 0.83798474 -0.50694937 -0.20194992
vn 0.2657926 -0.90657127 -0.3278453
vn 0.43144625 0.8730096 -0.22739369
vn 0.85602397 0.36519474 -0.36586282
vn 0.96672547 0.18843523 0.17301467
vn -0.38971773 0.9160963 -0.094272174
vn 0.06197606 0.95454866 -0.29153994
vn 0.43142444 0.8730297 -0.22735815
vn -0.9566869 0.25309926 -0.14384334
vn -0.9567 0.25304806 -0.14384651
vn -0.62541825 0.74212503 -0.24104403
vn 0.34637916 0.5320964 0.7725895
vn -0.14832188 0.5141585 0.84477305
vn 0.9667261 0.1884479 0.17299727
vn 0.17278548 0.9458879 -0.27466464
vn 0.85601723 0.36516762 -0.36590552
vn 0.84035033 0.5022551 -0.20384063
vn 0.06195495 0.9545542 -0.2915262
vn 0.1727781 0.9458832 -0.27468574
vn -0.6254118 0.74212617 -0.24105693
vn 0.34640634 0.53210515 0.7725714
vn -0.97828376 0.17582013 0.10976443
vn -0.96404976 0.119460076 0.23735479
vn 0.014430767 -0.99946666 -0.029286232
vn -0.056567147 0.9909366 0.12183732
vn 0.88401765 0.19458562 -0.42502812
vn 0.90525997 -0.008912077 -0.42476445
vn 0.80486345 0.58330613 -0.109310605
vn 0.21683808 0.97472286 -0.05381632
vn 0.10126518 -0.16136095 -0.9816862
vn 0.21684572 0.97472304 -0.053782027
vn 0.014340811 -0.99946743 -0.02930305
vn -0.9782845 0.17578523 0.10981381
vn 0.24106726 -0.8701691 0.3956913
vn 0.37386066 -0.84520084 0.33732736
vn 0.1448178 -0.9823589 0.11559349
vn 0.06626945 0.9081321 -0.38691875
vn 0.14906466 0.94162303 -0.30130032
vn 0.7865176 0.23027171 0.4800485
vn 0.3738429 -0.8452162 0.3373126
vn 0.786487 0.23034641 0.4800668
vn 0.1448019 -0.9823662 0.11555207
vn -0.9432303 0.06587866 0.26377138
vn 0.14479664 -0.98236233 0.11559139
vn 0.10134508 -0.16134444 -0.98168063
vn -0.943225 0.066008605 0.26375875
vn 0.24102713 -0.87018466 0.39568508
vn 0.36449486 -0.8484397 0.37941667
vn 0.92658204 -0.04668149 -0.3628338
vn 0.37386358 -0.8451929 0.3373418
vn 0.10123932 -0.16137256 -0.98168695
vn 0.14479962 -0.9823614 0.11559535
vn 0.80489117 0.5832671 -0.10931422
vn 0.14900291 0.9416401 -0.30127764
vn 0.14480571 -0.9823578 0.11561761
vn 0.14901981 0.94162476 -0.30131707
vn 0.21680029 0.9747328 -0.05378774
vn 0.8048828 0.58328074 -0.10930281
vn 0.06626809 0.9081526 -0.38687614
vn 0.78649235 0.23034663 0.4800579
vn 0.92659736 -0.046671573 -0.36279604
vn 0.06625251 0.90815824 -0.386867
vn 0.90065557 0.28988838 -0.3162736
vn 0.9266043 -0.046675883 -0.3627777
vn 0.786491 0.2303279 0.4800682
vn 0.37390342 -0.8451861 0.3373134
vn 0.34047827 -0.87589234 0.34188727
vn -0.8949179 -0.37771997 0.23759092
vn -0.5232544 -0.41991243 0.7415377
vn -0.5232315 -0.41984683 0.74159116
vn -0.25390133 0.9663479 -0.041300092
vn -0.10917182 0.97122836 0.2116526
vn -0.8949223 -0.37771526 0.23758183
vn -0.5232692 -0.4198753 0.7415484
vn -0.894932 -0.37765995 0.2376335
vn -0.45985374 0.8267519 -0.31927893
vn -0.25392428 0.966342 -0.041295767
vn 0.61586916 0.37102395 0.68831384
vn -0.10913773 0.97122645 0.211679
vn -0.45987257 0.8267426 -0.31927553
vn 0.6158656 0.37098682 0.68833685
vn -0.5063656 0.839497 -0.15389413
vn 0.61586624 0.37095502 0.6883532
vn 0.44312364 0.4033595 0.77479935
vn 0.44318306 0.40332747 0.7747812
vn -0.30294773 0.9516894 -0.009543188
vn -0.31889728 0.53961354 -0.77917874
vn 0.7690613 0.5113506 0.3664894
vn 0.44317895 0.4033323 0.77478117
vn -0.31886753 0.539631 -0.77917886
vn 0.7902653 0.5332218 0.30191946
vn 0.44313282 0.40334913 0.7747994
vn 0.44642246 0.30870914 0.81322026
vn 0.8092924 0.40690723 0.4236415
vn 0.764474 0.56554556 0.30941498
vn 0.9749086 0.10035463 0.19561419
vn 0.3997798 -0.5398832 0.74074423
vn 0.34044996 -0.8759212 0.3418416
vn 0.39974126 -0.5399018 0.7407515
vn 0.7644464 0.5655676 0.30944288
vn 0.615884 0.37102014 0.68830264
vn 0.91136 0.2856437 0.27109304
vn 0.9113638 0.2856222 0.27110252
vn 0.8145944 -0.5413392 0.08957149
vn 0.44638768 0.30877322 0.8132164
vn 0.44638264 0.30867967 0.8132527
vn 0.064111724 -0.954623 0.2898118
vn 0.06410369 -0.95462555 0.28980476
vn 0.8092932 0.40688792 0.42365825
vn 0.8551493 0.41013888 0.31702715
vn -0.10909682 0.97122395 0.2117118
vn 0.3997365 -0.53993016 0.7407334
vn -0.5232899 -0.41985354 0.74154603
vn 0.85515344 0.41017726 0.31696597
vn 0.79026514 0.53324693 0.30187577
vn 0.44639355 -0.1928108 -0.87381744
vn 0.38216108 0.06396364 -0.9218792
vn -0.46703035 -0.87579805 -0.12190406
vn 0.3821277 0.0639724 -0.9218924
vn 0.79027236 0.53321356 0.3019156
vn -0.31893247 0.5396195 -0.77916014
vn 0.7902453 0.5332738 0.30188024
vn -0.50636953 0.8394871 -0.15393299
vn -0.0772154 -0.98287547 -0.16376309
vn -0.82739484 -0.47205555 -0.27647793
vn -0.45986304 0.82676864 -0.3192226
vn -0.07726824 -0.98287034 -0.16376744
vn -0.89491725 -0.37772343 0.23758806
vn 0.22275157 -0.91383326 -0.3383913
vn -0.8273796 -0.47205904 -0.27651745
vn -0.3029629 0.9516843 -0.009569362
vn -0.8273999 -0.47206903 -0.27644017
vn -0.31891906 0.53959686 -0.77918124
vn 0.44638744 -0.19282673 -0.873817
vn 0.06413284 -0.9546005 0.2898807
vn 0.8551573 0.41012114 0.3170281
vn -0.82737803 -0.47206074 -0.27651933
vn 0.38212156 0.064002216 -0.92189294
vn -0.31891555 0.5396644 -0.77913606
vn -0.12844092 -0.983513 -0.12466327
vn -0.46711692 -0.8757547 -0.12188381
vn 0.3821483 0.06394299 -0.92188585
vn -0.07417737 -0.9400421 0.3328939
vn -0.46267396 -0.8864808 -0.009191066
vn -0.84663534 -0.3986894 -0.35249856
vn 0.18933421 0.9570497 -0.21956354
vn 0.79394543 -0.21863979 0.5673157
vn 0.80399954 -0.26210994 0.5337444
vn 0.036013573 0.1765348 0.9836352
vn 0.71479225 -0.42992586 0.55157554
vn -0.68075156 0.43050647 0.5926563
vn 0.18926418 0.95706224 -0.21956933
vn 0.803976 -0.26213896 0.5337653
vn 0.036018282 0.17653954 0.9836341
vn -0.6806903 0.43055922 0.59268814
vn 0.7147976 -0.42994168 0.55155635
vn -0.07418114 -0.9400612 0.33283883
vn 0.1444343 -0.26311886 -0.95389044
vn 0.41279086 0.8819015 0.22771204
vn 0.24844493 -0.053485274 -0.9671682
vn 0.25261253 -0.2542838 -0.93355584
vn 0.14439571 -0.263089 -0.95390445
vn -0.0046070963 0.99874187 -0.04992965
vn 0.18961239 -0.19141784 -0.96301925
vn 0.16110748 -0.27828276 -0.94689107
vn 0.18957084 -0.19140965 -0.96302915
vn 0.25260228 -0.2543119 -0.9335509
vn -0.49166423 -0.86326116 0.114219606
vn 0.7939718 -0.21865997 0.567271
vn 0.98830605 -0.13009058 -0.07954407
vn -0.1205613 -0.98462343 0.12641731
vn -0.17275542 -0.7597393 0.6268585
vn -0.7391734 -0.5999929 0.30599222
vn -0.120611474 -0.98461556 0.12643144
vn 0.9883033 -0.13009745 -0.079567075
vn -0.9277982 -0.3577146 0.105974644
vn -0.20984074 -0.9564643 0.2028358
vn 0.1610765 -0.27820915 -0.94691795
vn 0.93052894 0.33212447 0.15430173
vn 0.41278133 0.881934 0.22760361
vn 0.47492945 -0.86250293 0.17472914
vn 0.47491297 -0.8625027 0.1747744
vn 0.987303 -0.1278027 -0.09433532
vn 0.41278636 0.88191414 0.22767131
vn 0.14442736 -0.2630937 -0.95389843
vn 0.9883847 -0.11726764 -0.096663505
vn 0.9873064 -0.1278019 -0.09429991
vn 0.9883124 -0.1300302 -0.079563946
vn 0.79395765 -0.2186774 0.567284
vn 0.5876481 0.16124326 0.7928871
vn 0.98838365 -0.11728968 -0.09664671
vn 0.5876587 0.16125885 0.7928761
vn 0.25423324 0.9568726 0.14056894
vn -0.004583761 0.9987415 -0.04993829
vn 0.24843514 -0.053436577 -0.96717334
vn -0.14157687 0.9154017 -0.37682256
vn 0.10715629 0.98988456 -0.09298286
vn 0.107134745 0.98988736 -0.092977256
vn 0.2482543 0.9490123 -0.1942808
vn -0.5459088 0.5167502 -0.6595094
vn -0.71291435 0.2932908 -0.63697207
vn -0.9334664 0.35746846 -0.029266864
vn 0.25423178 0.95687556 0.14055118
vn -0.17275402 -0.7597391 0.62685907
vn 0.98831224 -0.13002814 -0.07957026
vn 0.98730826 -0.12780048 -0.09428285
vn 0.3336061 -0.91471136 0.22805649
vn 0.47493687 -0.8624954 0.17474543
vn -0.1728223 -0.7597735 0.6267986
vn 0.98730975 -0.12776826 -0.09431192
vn 0.14441442 -0.26304933 -0.9539126
vn 0.25266817 -0.254272 -0.93354404
vn -0.8820122 -0.4492932 0.14209154
vn -0.7391909 -0.5999824 0.30597037
vn -0.20984297 -0.95644534 0.20292324
vn -0.20986605 -0.9564458 0.20289737
vn -0.9278009 -0.35770458 0.10598624
vn -0.7391772 -0.60000813 0.30595276
vn -0.17276877 -0.75972927 0.62686706
vn 0.33359838 -0.91470456 0.22809464
vn -0.20983139 -0.9564555 0.20288694
vn -0.49161866 -0.8632827 0.11425352
vn -0.73912835 -0.6000283 0.30603158
vn -0.12059025 -0.9846245 0.12638065
vn -0.7809025 -0.54570395 0.30397105
vn -0.46272138 -0.8864563 -0.009167254
vn -0.8820238 -0.4492753 0.14207584
vn -0.780887 -0.5457202 0.30398142
vn -0.73915386 -0.6000191 0.30598783
vn 0.79398143 -0.21866238 0.56725657
vn -0.5459264 0.51679367 -0.65946066
vn 0.24822333 0.9490193 -0.19428626
vn 0.2542225 0.9568827 0.14051905
vn 0.9305338 0.33210993 0.1543032
vn 0.41278723 0.8819141 0.22766995
vn 0.930519 0.33214372 0.15432027
vn 0.24843094 -0.053492755 -0.96717143
vn 0.49164554 -0.8392627 -0.2322123
vn -0.645088 -0.7613532 0.064826846
vn -0.9220582 -0.026232112 0.38616115
vn -0.31586748 0.87504256 0.3667803
vn 0.84434974 0.5292625 0.0833942
vn -0.86423415 0.12422423 0.48751155
vn 0.62963057 0.37227803 0.68189
vn -0.9220784 -0.026189964 0.3861158
vn -0.8642198 0.124216124 0.48753908
vn -0.24630104 0.7722091 0.58568627
vn -0.49562052 0.16358037 -0.85299546
vn -0.41575366 0.61442065 -0.6705487
vn -0.393508 0.61374843 0.6844442
vn -0.4956594 0.1635567 -0.8529774
vn -0.2462281 0.772235 0.5856828
vn 0.107191145 -0.98274887 -0.15071243
vn 0.65926325 -0.7144264 0.23444884
vn 0.70968044 -0.5543626 -0.43478212
vn -0.85318303 0.20515826 0.47957116
vn 0.18114404 -0.69604856 -0.6947681
vn 0.659218 -0.7144553 0.23448779
vn 0.72770524 0.6851199 0.032491952
vn 0.7371773 0.67558247 0.012549877
vn 0.8074245 -0.26372588 -0.5277444
vn 0.8074148 -0.2637605 -0.52774185
vn -0.1440056 -0.108327255 -0.9836295
vn 0.4389519 0.89757097 0.04107347
vn -0.1440413 -0.10831721 -0.9836254
vn -0.17082986 0.781857 0.59959686
vn -0.85319656 0.20516181 0.4795457
vn -0.7065775 0.36174873 0.6081825
vn -0.66783226 0.07719016 0.74029815
vn -0.3935027 0.6137585 0.6844382
vn -0.39343333 0.61375827 0.6844783
vn -0.7372332 -0.48747665 0.46781784
vn -0.5282288 -0.6061133 -0.5946431
vn -0.49562463 0.16359344 -0.8529905
vn 0.8074215 -0.2637631 -0.52773035
vn -0.14403814 -0.108379796 -0.98361903
vn 0.5573911 -0.8152454 -0.15712978
vn -0.14405584 -0.108339995 -0.9836207
vn -0.44319546 -0.15597288 -0.8827512
vn 0.7276977 0.68512946 0.032461137
vn 0.8074212 -0.26375252 -0.5277361
vn 0.70968324 -0.5543364 -0.43481103
vn 0.7277453 0.6850757 0.032524467
vn 0.6592591 -0.7144216 0.23447528
vn 0.9060447 -0.036121428 0.42163706
vn 0.969073 0.037568487 0.2438975
vn 0.9690737 0.037525557 0.24390163
vn 0.72767174 0.685158 0.03243828
vn -0.14408019 -0.10829499 -0.9836221
vn 0.43891543 0.89758986 0.041053444
vn -0.41572297 0.61444485 -0.67054546
vn -0.17083654 0.78185 0.5996041
vn -0.99053663 -0.005072525 0.13715425
vn -0.92435277 0.37884536 -0.04525408
vn -0.8531742 0.20517667 0.47957915
vn -0.1708238 0.78184986 0.59960777
vn 0.19534194 -0.9512175 -0.23880172
vn 0.65924627 -0.71442723 0.23449467
vn 0.18113412 -0.69608885 -0.69473034
vn 0.91356516 0.13955982 0.3819968
vn 0.05824067 0.96880484 0.24088323
vn -0.17080697 0.78183883 0.5996269
vn 0.98611915 -0.0022548623 -0.16602331
vn 0.91358733 0.13962732 0.3819191
vn -0.9905463 -0.0050286334 0.13708648
vn -0.1708048 0.7818172 0.5996559
vn -0.7065699 0.3617018 0.60821915
vn -0.2462673 0.7722306 0.58567226
vn 0.6190818 0.77374744 0.13435909
vn -0.7065701 0.36174506 0.6081932
vn -0.39347392 0.61375976 0.68445367
vn -0.24625851 0.7722315 0.58567464
vn 0.9135596 0.13964428 0.3819794
vn 0.7277027 0.68512374 0.03246513
vn 0.96906376 0.037579022 0.24393219
vn 0.9135752 0.13959576 0.38195956
vn 0.6209814 0.78244746 0.0464496
vn 0.72771394 0.68511313 0.032438815
vn -0.3158892 0.875045 0.36675587
vn 0.058255933 0.9688105 0.24085674
vn 0.8443412 0.5292731 0.08341375
vn -0.9763333 -0.18260464 0.1158821
vn -0.9905407 -0.0050548036 0.13712595
vn -0.6450728 -0.7613589 0.06491071
vn -0.6451043 -0.76134133 0.06480232
vn -0.3158656 0.8750504 0.36676338
vn -0.9220711 -0.026231833 0.3861303
vn -0.8642138 0.1242283 0.48754656
vn -0.990536 -0.0050503146 0.13716011
vn 0.058255937 0.968799 0.2409028
vn 0.49162272 -0.8392853 -0.23217861
vn 0.19533324 -0.95123565 -0.23873633
vn -0.6450923 -0.761347 0.064855725
vn 0.1953434 -0.95122993 -0.23875064
vn -0.97632676 -0.18261677 0.11591871
vn 0.18121421 -0.6961223 -0.6946759
vn 0.49163616 -0.83927643 -0.23218241
vn 0.93697953 -0.19054309 -0.29285255
vn 0.19531545 -0.9512266 -0.23878716
vn 0.62967813 0.3722533 0.6818597
vn 0.76686275 -0.59998065 -0.22791359
vn 0.905224 -0.008958159 -0.4248399
vn 0.9266025 -0.04664974 -0.3627857
vn -0.6931741 -0.0627215 0.7180358
vn -0.07018795 -0.9936182 -0.08829671
vn -0.96378726 -0.25553432 0.07626586
vn 0.10592332 0.06847717 0.9920135
vn -0.8665415 0.32507658 0.378723
vn -0.14835319 0.51416826 0.84476155
vn 0.10594666 0.06842019 0.9920149
vn -0.070180304 -0.99362206 -0.088258915
vn -0.8876407 -0.44628713 -0.113673516
vn -0.96379554 -0.25550488 0.07625835
vn -0.07017394 -0.9936222 -0.08826225
vn -0.07826994 -0.9703937 -0.2284941
vn -0.07827867 -0.9703918 -0.22849888
vn -0.8155704 -0.45153406 -0.3618864
vn -0.15755323 -0.891076 -0.425629
vn -0.07827895 -0.9703885 -0.22851312
vn -0.015179956 -0.98307467 -0.18257436
vn 0.26581112 -0.9065653 -0.327847
vn -0.15756652 -0.89106256 -0.42565238
vn 0.26583013 -0.9065568 -0.32785505
vn -0.12495524 -0.29886317 -0.9460797
vn -0.18798064 -0.24100414 -0.9521449
vn -0.25993255 -0.17836417 -0.9490106
vn -0.81556106 -0.45154727 -0.36189082
vn 0.24612151 -0.9359818 -0.25171772
vn 0.26579338 -0.9065689 -0.3278513
vn -0.015198243 -0.9830768 -0.18256086
vn -0.69314957 -0.0626698 0.718064
vn 0.10102026 -0.7432239 0.6613718
vn 0.90524375 -0.0089874035 -0.4247973
vn -0.056524254 0.99093485 0.121871985
vn 0.9052683 -0.008858696 -0.42474768
vn 0.10098794 -0.7432149 0.6613869
vn 0.14904425 0.9416108 -0.30134833
vn 0.14483026 -0.982361 0.115560144
vn 0.7865058 0.23033006 0.48004308
vn -0.9432224 0.06592682 0.2637878
vn -0.9072417 0.3479543 0.20564166
vn -0.79908377 0.47110823 0.24334858
vn -0.08021226 0.93090695 -0.33243388
vn -0.9072471 0.34794396 0.20563453
vn -0.54920256 0.4476486 0.6932823
vn -0.46525392 0.59869593 0.6445245
vn -0.056587927 0.9909267 0.12190861
vn -0.9782816 0.17578648 0.10983829
vn 0.21680984 0.974729 -0.05381985
vn -0.907261 0.34793895 0.20558168
vn -0.9072646 0.34793895 0.2055661
vn 0.14903522 0.9416174 -0.30133253
vn -0.08018174 0.9308981 -0.33246347
vn -0.9072408 0.34794027 0.20566866
vn 0.0663339 0.908139 -0.38689336
vn 0.90066546 0.28986633 -0.31626564
vn -0.94324714 0.06596225 0.2636907
vn 0.10133104 -0.1613589 -0.9816797
vn 0.014376386 -0.9994662 -0.029333353
vn -0.9640328 0.11951939 0.23739393
vn -0.9432207 0.065910235 0.2637981
vn 0.24102098 -0.870189 0.39568025
vn -0.79905266 0.47114158 0.24339326
vn -0.7990598 0.4711518 0.24335162
vn 0.36450827 -0.84843725 0.37940925
vn -0.46526802 0.59869117 0.6445188
vn -0.08021338 0.93089324 -0.33246812
vn 0.9006297 0.2899191 -0.31631956
vn 0.9006461 0.28989172 -0.31629735
vn -0.05658069 0.990933 0.121861294
vn 0.8840274 0.19457343 -0.42501345
vn -0.7990845 0.47113872 0.24329275
vn -0.5492195 0.44766283 0.69326
vn 0.36452296 -0.8484243 0.37942392
vn 0.6158163 0.37103608 0.68835485
vn 0.7644508 0.5655551 0.30945498
vn -0.10914793 0.9712204 0.2117019
vn 0.7644335 0.56558245 0.30944765
vn 0.39980125 -0.53988516 0.74073124
vn -0.10915544 0.9712159 0.21171868
vn 0.3997664 -0.53989816 0.74074066
vn 0.34044552 -0.8759272 0.34183067
vn -0.52326024 -0.41988075 0.74155164
vn -0.07729136 -0.98288536 -0.16366903
vn -0.12842275 -0.9835136 -0.12467724
vn -0.82739294 -0.47204643 -0.2764988
vn -0.12844095 -0.9835106 -0.12468234
vn 0.44644085 -0.19282156 -0.87379086
vn -0.46710032 -0.87576365 -0.121883765
vn 0.064134896 -0.9546071 0.28985843
vn 0.44632855 -0.19278318 -0.8738567
vn 0.8145884 -0.5413389 0.089627236
vn -0.07724923 -0.9828823 -0.16370703
vn 0.22278218 -0.9138171 -0.33841422
vn -0.12843916 -0.9835144 -0.124653846
vn 0.38215393 0.063962474 -0.92188215
vn -0.82738554 -0.47206095 -0.27649662
vn 0.97489583 0.10039063 0.19565961
vn 0.81460345 -0.541328 0.08955337
vn 0.22279719 -0.9138168 -0.33840513
vn 0.22272992 -0.9138285 -0.33841798
vn -0.07723741 -0.98288125 -0.1637193
vn -0.45984557 0.82674813 -0.31930017
vn -0.074169666 -0.9400382 0.33290648
vn -0.8466274 -0.39869297 -0.35251373
vn -0.68077016 0.43053797 0.59261197
vn -0.8466535 -0.39867836 -0.35246748
vn -0.049715534 0.93717647 -0.3452947
vn -0.6807245 0.43051636 0.59268004
vn -0.54587865 0.5167678 -0.65952045
vn 0.7939601 -0.21864113 0.5672944
vn 0.1893332 0.9570373 -0.21961841
vn 0.71481365 -0.4298907 0.5515751
vn -0.12059067 -0.98462296 0.12639305
vn -0.074184775 -0.94005615 0.3328523
vn -0.049738556 0.937193 -0.34524655
vn 0.03603497 0.17660058 0.9836226
vn -0.6807379 0.43052799 0.59265625
vn 0.80397344 -0.2621544 0.5337617
vn 0.71478844 -0.42988932 0.5516089
vn 0.036014616 0.17651996 0.9836379
vn 0.2482544 0.94901884 -0.19424865
vn 0.9305198 0.3321321 0.15434015
vn 0.9883883 -0.117260784 -0.09663561
vn 0.24823758 0.9490039 -0.19434297
vn 0.98838526 -0.11728549 -0.096636474
vn 0.58764625 0.16127923 0.79288113
vn 0.10713257 0.9898853 -0.09300211
vn -0.7094934 0.34692144 -0.613404
vn -0.14157563 0.91539407 -0.37684137
vn -0.12060879 -0.984624 0.12636802
vn -0.7391601 -0.60001594 0.30597898
vn -0.7808962 -0.5457169 0.3039641
vn -0.93346155 0.35748315 -0.029242828
vn 0.16105983 -0.27824232 -0.9469111
vn 0.18964097 -0.19143042 -0.96301115
vn -0.92779803 -0.35770708 0.10600257
vn 0.16100797 -0.27834445 -0.94688994
vn -0.7129498 0.29328516 -0.636935
vn -0.8820191 -0.449288 0.14206517
vn -0.7094916 0.3469355 -0.61339796
vn -0.46271312 -0.88645977 -0.0092408955
vn -0.9277977 -0.35772339 0.10594985
vn -0.9334674 0.35746914 -0.029228434
vn -0.71296775 0.29325846 -0.6369272
vn -0.9334719 0.35745603 -0.02924186
vn 0.18959144 -0.19147488 -0.96301204
vn -0.004586652 0.99873984 -0.04997176
vn -0.004616812 0.998739 -0.049984753
vn 0.25423694 0.95688343 0.14048839
vn -0.20983529 -0.9564524 0.2028977
vn -0.49160582 -0.8632945 0.114219874
vn 0.16102809 -0.27826485 -0.94690984
vn -0.12057133 -0.9846239 0.12640491
vn -0.46269417 -0.8864706 -0.009152114
vn -0.074193954 -0.94004726 0.33287543
vn -0.54589385 0.5167529 -0.65951955
vn -0.46269852 -0.88646877 -0.009111255
vn -0.7094804 0.34693846 -0.6134096
vn -0.5458543 0.51675314 -0.6595522
vn -0.7095163 0.3469059 -0.6133864
vn 0.10712523 0.98989105 -0.09294963
vn 0.7939395 -0.2186752 0.56731033
vn 0.248231 0.9490197 -0.19427451
vn 0.5876523 0.16127025 0.79287857
vn -0.7065755 0.36172834 0.60819674
vn 0.6190743 0.77375025 0.13437742
vn 0.620971 0.78245634 0.046440065
vn -0.9220738 -0.026256084 0.38612217
vn 0.6295942 0.37225583 0.6819359
vn 0.49165443 -0.83927107 -0.23216319
vn 0.43893656 0.8975787 0.04107189
vn -0.2462077 0.7722435 0.58568025
vn -0.4157312 0.61440116 -0.6705804
vn -0.2462856 0.77224255 0.58564866
vn 0.61907125 0.7737654 0.13430405
vn -0.8531966 0.2051616 0.47954562
vn 0.10717625 -0.9827527 -0.150698
vn -0.20268357 -0.9741335 -0.099913955
vn -0.85318613 0.20516206 0.4795643
vn -0.6678538 0.07717517 0.7402804
vn -0.7065542 0.36174718 0.60821056
vn -0.73723817 -0.4874593 0.46782798
vn -0.49566215 0.16357602 -0.8529721
vn -0.39348018 0.6137341 0.684473
vn -0.6678648 0.0772084 0.7402669
vn -0.52823126 -0.606128 -0.59462595
vn -0.7372389 -0.48743075 0.46785653
vn -0.20271693 -0.9741278 -0.0999023
vn -0.5282389 -0.60612506 -0.5946222
vn -0.8531649 0.2051653 0.4796003
vn 0.9060388 -0.036071464 0.42165416
vn 0.1953032 -0.9512261 -0.23879893
vn 0.93696475 -0.19054982 -0.29289562
vn 0.18113448 -0.6960619 -0.6947572
vn -0.9243744 0.3787899 -0.045277163
vn -0.97633266 -0.1825985 0.11589737
vn -0.92435193 0.37885174 -0.045219652
vn -0.99053764 -0.005015116 0.13714916
vn 0.18117614 -0.69613236 -0.69467574
vn -0.85319835 0.20517966 0.47953492
vn 0.90602183 -0.036113545 0.4216871
vn 0.65923864 -0.7144516 0.23444149
vn 0.1953367 -0.9512262 -0.23877129
vn -0.20271635 -0.974123 -0.0999504
vn -0.44320127 -0.15602878 -0.8827384
vn -0.52823955 -0.6061193 -0.5946278
vn 0.84434503 0.5292732 0.08337343
vn 0.058231518 0.9688058 0.24088176
vn 0.9861201 -0.002303591 -0.16601747
vn 0.9861223 -0.0022926815 -0.16600478
vn 0.7668293 -0.6000204 -0.22792077
vn 0.8443387 0.52927244 0.083443046
vn 0.96906507 0.037563838 0.24392994
vn 0.9060311 -0.036102667 0.42166805
vn 0.9135763 0.1396033 0.3819543
vn 0.90602416 -0.036101148 0.42168307
vn 0.9369656 -0.19054115 -0.29289842
vn 0.76685345 -0.59999675 -0.2279024
vn 0.9369819 -0.19055982 -0.292834
vn 0.49164832 -0.8392661 -0.2321938
vn 0.9748999 0.10035847 0.19565563
vn 0.22276899 -0.91382474 -0.3384028
vn 0.34043437 -0.87591726 0.34186736
vn 0.34051436 -0.8759091 0.34180853
vn 0.22277597 -0.9138064 -0.3384473
vn -0.8949129 -0.37771043 0.23762487
vn 0.9266199 -0.04665874 -0.3627401
vn 0.36449403 -0.848435 0.3794279
vn -0.69313145 -0.062649816 0.71808326
vn 0.36448354 -0.8484424 0.37942162
vn -0.5492301 0.44768006 0.6932407
vn -0.6931752 -0.062694296 0.7180371
vn -0.9066756 0.39016375 -0.16034861
vn -0.2599164 -0.17839403 -0.9490093
vn -0.38976103 0.91608065 -0.094245374
vn -0.9567027 0.25306293 -0.1438024
vn -0.9483091 0.2942383 -0.1188849
vn -0.62541753 0.74211967 -0.24106218
vn -0.14837508 0.5141357 0.84477746
vn -0.8665537 0.3250246 0.3787395
vn -0.6931683 -0.06269946 0.71804345
vn -0.54920673 0.4476402 0.69328433
vn -0.05656288 0.9909296 0.121896476
vn 0.100997746 -0.7432384 0.6613591
vn -0.4627213 -0.88645643 -0.00914821
vn -0.5458704 0.51678395 -0.65951467
vn -0.8466724 -0.3986629 -0.3524395
vn -0.049748793 0.9372169 -0.3451802
vn -0.049737245 0.93719584 -0.3452389
vn -0.5458652 0.51674527 -0.65954924
vn 0.18932736 0.95704347 -0.21959701
vn 0.03603545 0.1765551 0.9836308
vn -0.49162745 -0.8632891 0.1141673
vn 0.47492006 -0.86250705 0.17473471
vn 0.25263825 -0.25429654 -0.93354535
vn 0.33362406 -0.91470325 0.22806248
vn -0.14155883 0.91539407 -0.37684792
vn -0.71296656 0.29329175 -0.6369133
vn 0.25420576 0.95687103 0.14062974
vn -0.70949733 0.34689957 -0.6134119
vn 0.629648 0.3722589 0.68188447
vn 0.84433115 0.52928877 0.083416015
vn 0.76683867 -0.59999514 -0.22795619
vn -0.86422884 0.124285586 0.48750538
vn -0.1708251 0.78181803 0.59964883
vn -0.7065403 0.36173707 0.6082326
vn 0.62096316 0.7824625 0.04644072
vn 0.9136021 0.13959743 0.38189468
vn 0.10714058 -0.982752 -0.15072782
vn 0.7096584 -0.55434406 -0.43484172
vn 0.557363 -0.81526375 -0.15713371
vn 0.557361 -0.8152622 -0.15714905
vn -0.20270464 -0.97413 -0.099906
vn -0.4432525 -0.15601695 -0.8827148
vn 0.6190735 0.7737639 0.13430223
vn 0.43891883 0.89758825 0.04105228
vn 0.73716587 0.67559487 0.012563974
vn 0.62096745 0.78245795 0.046459258
vn 0.72770363 0.6851219 0.03248453
vn 0.92659783 -0.046641298 -0.36279875
vn 0.9052581 -0.00894949 -0.42476746
vn 0.8840119 0.19459076 -0.4250378
vn 0.9006621 0.28985357 -0.31628653
vn -0.978282 0.1758066 0.109801844
vn -0.90725875 0.34791642 0.20562923
vn -0.94323033 0.06589231 0.26376748
vn -0.9640288 0.11952939 0.2374053
vn 0.85517335 0.41012052 0.31698567
vn 0.80930674 0.40690032 0.42362076
vn 0.7690617 0.51136416 0.36647
vn 0.79027253 0.5332182 0.30190673
vn 0.44639102 0.3087281 0.8132308
vn 0.9113462 0.2856579 0.2711244
vn 0.6158846 0.37101388 0.68830544
vn 0.44311795 0.40333208 0.77481616
vn -0.1205612 -0.98462486 0.12640613
vn 0.7147999 -0.42988312 0.5515988
vn 0.80398756 -0.26210612 0.53376406
vn 0.79397875 -0.21865915 0.56726146
vn -0.14402327 -0.10832454 -0.9836272
vn -0.41573137 0.6143977 -0.6705835
vn -0.4432413 -0.15600744 -0.88272214
vn -0.52819884 -0.60612804 -0.59465486
vn -0.49563825 0.16357829 -0.8529855
g 0.0000_0
f 3/3/3 2/2/2 1/1/1
f 2/2/2 5/5/5 4/4/4
f 5/5/5 6/6/6 4/4/4
f 5/5/5 7/7/7 6/6/6
f 8/8/8 5/5/5 2/2/2
f 8/8/8 10/10/10 9/9/9
f 11/11/11 8/8/8 9/9/9
f 12/12/12 8/8/8 11/11/11
f 13/13/13 12/12/12 11/11/11
f 13/13/13 14/14/14 12/12/12
f 13/13/13 16/16/16 15/15/15
f 19/19/19 18/18/18 17/17/17
f 21/21/21 20/20/20 19/19/19
f 23/23/23 22/22/22 20/20/20
f 24/24/24 23/23/23 20/20/20
f 24/24/24 25/25/25 23/23/23
f 26/26/26 24/24/24 20/20/20
f 26/26/26 20/20/20 27/27/27
f 26/26/26 28/28/28 24/24/24
f 30/30/30 29/29/29 24/24/24
f 33/33/33 32/32/32 31/31/31
f 35/35/35 32/32/32 34/34/34
f 38/38/38 37/37/37 36/36/36
f 40/40/40 39/39/39 37/37/37
f 37/37/37 39/39/39 41/41/41
f 43/43/43 42/42/42 37/37/37
f 43/43/43 45/45/45 44/44/44
f 47/47/47 46/46/46 43/43/43
f 41/41/41 49/49/49 48/48/48
f 51/51/51 50/50/50 49/49/49
f 50/50/50 53/53/53 52/52/52
f 55/55/55 54/54/54 50/50/50
f 57/57/57 56/56/56 49/49/49
f 49/49/49 56/56/56 58/58/58
f 56/56/56 59/59/59 58/58/58
f 61/61/61 60/60/60 57/57/57
f 64/64/64 63/63/63 62/62/62
f 66/66/66 65/65/65 63/63/63
f 63/63/63 68/68/68 67/67/67
f 68/68/68 69/69/69 67/67/67
f 70/70/70 67/67/67 69/69/69
f 71/71/71 69/69/69 68/68/68
f 74/74/74 73/73/73 72/72/72
f 76/76/76 75/75/75 74/74/74
f 74/74/74 77/77/77 76/76/76
f 80/80/80 79/79/79 78/78/78
f 83/83/83 82/82/82 81/81/81
f 86/86/86 85/85/85 84/84/84
f 84/84/84 88/88/88 87/87/87
f 90/90/90 89/89/89 87/87/87
f 92/92/92 89/89/89 91/91/91
f 94/94/94 93/93/93 92/92/92
f 96/96/96 95/95/95 84/84/84
f 95/95/95 98/98/98 97/97/97
f 84/84/84 97/97/97 99/99/99
f 101/101/101 100/100/100 84/84/84
f 102/102/102 100/100/100 101/101/101
f 105/105/105 104/104/104 103/103/103
f 108/108/108 107/107/107 106/106/106
f 111/111/111 110/110/110 109/109/109
f 111/111/111 113/113/113 112/112/112
f 112/112/112 113/113/113 114/114/114
f 117/117/117 116/116/116 115/115/115
f 120/120/120 119/119/119 118/118/118
f 123/123/123 122/122/122 121/121/121
f 126/126/126 125/125/125 124/124/124
f 125/125/125 128/128/128 127/127/127
f 130/130/130 129/129/129 128/128/128
f 131/131/131 130/130/130 128/128/128
f 134/134/134 133/133/133 132/132/132
f 136/136/136 134/134/134 135/135/135
f 139/139/139 138/138/138 137/137/137
f 142/142/142 141/141/141 140/140/140
f 144/144/144 142/142/142 143/143/143
f 147/147/147 146/146/146 145/145/145
f 150/150/150 149/149/149 148/148/148
f 153/153/153 152/152/152 151/151/151
f 155/155/155 152/152/152 154/154/154
f 152/152/152 157/157/157 156/156/156
f 160/160/160 159/159/159 158/158/158
f 158/158/158 162/162/162 161/161/161
f 164/164/164 163/163/163 161/161/161
f 162/162/162 165/165/165 163/163/163
f 167/167/167 163/163/163 166/166/166
f 169/169/169 168/168/168 167/167/167
f 169/169/169 167/167/167 170/170/170
f 169/169/169 172/172/172 171/171/171
f 174/174/174 169/169/169 173/173/173
f 174/174/174 175/175/175 169/169/169
f 178/178/178 177/177/177 176/176/176
f 180/180/180 179/179/179 177/177/177
f 182/182/182 181/181/181 177/177/177
f 183/183/183 182/182/182 177/177/177
f 177/177/177 185/185/185 184/184/184
f 185/185/185 186/186/186 184/184/184
f 188/188/188 187/187/187 185/185/185
f 190/190/190 186/186/186 189/189/189
f 191/191/191 190/190/190 189/189/189
f 194/194/194 193/193/193 192/192/192
f 197/197/197 196/196/196 195/195/195
f 197/197/197 199/199/199 198/198/198
f 201/201/201 197/197/197 200/200/200
f 203/203/203 200/200/200 202/202/202
f 206/206/206 205/205/205 204/204/204
f 204/204/204 208/208/208 207/207/207
f 207/207/207 210/210/210 209/209/209
f 212/212/212 211/211/211 204/204/204
f 212/212/212 214/214/214 213/213/213
f 217/217/217 216/216/216 215/215/215
f 220/220/220 219/219/219 218/218/218
f 223/223/223 222/222/222 221/221/221
f 226/226/226 225/225/225 224/224/224
f 229/229/229 228/228/228 227/227/227
f 232/232/232 231/231/231 230/230/230
f 235/235/235 234/234/234 233/233/233
f 238/238/238 237/237/237 236/236/236
f 241/241/241 240/240/240 239/239/239
f 243/243/243 242/242/242 241/241/241
f 241/241/241 245/245/245 244/244/244
f 247/247/247 241/241/241 246/246/246
f 241/241/241 248/248/248 246/246/246
f 249/249/249 246/246/246 248/248/248
f 252/252/252 251/251/251 250/250/250
f 254/254/254 253/253/253 252/252/252
f 253/253/253 256/256/256 255/255/255
f 259/259/259 258/258/258 257/257/257
f 262/262/262 261/261/261 260/260/260
f 264/264/264 263/263/263 260/260/260
f 263/263/263 266/266/266 265/265/265
f 268/268/268 260/260/260 267/267/267
f 268/268/268 267/267/267 269/269/269
f 269/269/269 271/271/271 270/270/270
f 273/273/273 269/269/269 272/272/272
f 276/276/276 275/275/275 274/274/274
f 278/278/278 274/274/274 277/277/277
f 280/280/280 274/274/274 279/279/279
f 280/280/280 279/279/279 281/281/281
f 284/284/284 283/283/283 282/282/282
f 287/287/287 286/286/286 285/285/285
f 289/289/289 287/287/287 288/288/288
f 288/288/288 291/291/291 290/290/290
f 293/293/293 292/292/292 289/289/289
f 296/296/296 295/295/295 294/294/294
f 298/298/298 297/297/297 294/294/294
f 301/301/301 300/300/300 299/299/299
f 303/303/303 301/301/301 302/302/302
f 302/302/302 301/301/301 304/304/304
f 307/307/307 306/306/306 305/305/305
f 309/309/309 307/307/307 308/308/308
f 310/310/310 309/309/309 308/308/308
f 313/313/313 312/312/312 311/311/311
f 313/313/313 315/315/315 314/314/314
f 314/314/314 317/317/317 316/316/316
f 318/318/318 314/314/314 316/316/316
f 321/321/321 320/320/320 319/319/319
f 324/324/324 323/323/323 322/322/322
f 327/327/327 326/326/326 325/325/325
f 330/330/330 329/329/329 328/328/328
f 333/333/333 332/332/332 331/331/331
f 336/336/336 335/335/335 334/334/334
f 334/334/334 338/338/338 337/337/337
f 334/334/334 339/339/339 338/338/338
f 342/342/342 341/341/341 340/340/340
f 344/344/344 341/341/341 343/343/343
f 346/346/346 345/345/345 341/341/341
f 349/349/349 348/348/348 347/347/347
f 351/351/351 350/350/350 349/349/349
f 353/353/353 350/350/350 352/352/352
f 355/355/355 354/354/354 353/353/353
f 358/358/358 357/357/357 356/356/356
f 360/360/360 359/359/359 358/358/358
f 358/358/358 362/362/362 361/361/361
f 358/358/358 364/364/364 363/363/363
f 364/364/364 365/365/365 363/363/363
f 365/365/365 367/367/367 366/366/366
f 365/365/365 369/369/369 368/368/368
f 372/372/372 371/371/371 370/370/370
f 375/375/375 374/374/374 373/373/373
f 377/377/377 376/376/376 375/375/375
f 380/380/380 379/379/379 378/378/378
f 383/383/383 382/382/382 381/381/381
f 385/385/385 382/382/382 384/384/384
f 387/387/387 386/386/386 382/382/382
f 390/390/390 389/389/389 388/388/388
f 393/393/393 392/392/392 391/391/391
f 396/396/396 395/395/395 394/394/394
f 399/399/399 398/398/398 397/397/397
f 402/402/402 401/401/401 400/400/400
f 405/405/405 404/404/404 403/403/403
f 407/407/407 404/404/404 406/406/406
f 406/406/406 408/408/408 407/407/407
f 408/408/408 409/409/409 407/407/407
f 411/411/411 410/410/410 407/407/407
f 414/414/414 413/413/413 412/412/412
f 416/416/416 415/415/415 414/414/414
f 416/416/416 417/417/417 415/415/415
f 420/420/420 419/419/419 418/418/418
f 418/418/418 422/422/422 421/421/421
f 425/425/425 424/424/424 423/423/423
f 428/428/428 427/427/427 426/426/426
f 431/431/431 430/430/430 429/429/429
f 434/434/434 433/433/433 432/432/432
f 433/433/433 436/436/436 435/435/435
f 433/433/433 438/438/438 437/437/437
f 437/437/437 438/438/438 439/439/439
f 441/441/441 435/435/435 440/440/440
f 442/442/442 441/441/441 440/440/440
f 444/444/444 440/440/440 443/443/443
f 443/443/443 445/445/445 444/444/444
f 448/448/448 447/447/447 446/446/446
f 451/451/451 450/450/450 449/449/449
f 454/454/454 453/453/453 452/452/452
f 457/457/457 456/456/456 455/455/455
f 460/460/460 459/459/459 458/458/458
f 463/463/463 462/462/462 461/461/461
f 465/465/465 463/463/463 464/464/464
f 463/463/463 466/466/466 464/464/464
f 466/466/466 467/467/467 464/464/464
f 468/468/468 467/467/467 466/466/466
f 471/471/471 470/470/470 469/469/469
f 473/473/473 470/470/470 472/472/472
f 475/475/475 474/474/474 473/473/473
f 474/474/474 476/476/476 473/473/473
f 477/477/477 476/476/476 474/474/474
f 480/480/480 479/479/479 478/478/478
f 480/480/480 482/482/482 481/481/481
f 484/484/484 482/482/482 483/483/483
f 486/486/486 485/485/485 483/483/483
f 489/489/489 488/488/488 487/487/487
f 491/491/491 490/490/490 487/487/487
f 491/491/491 492/492/492 490/490/490
f 495/495/495 494/494/494 493/493/493
f 498/498/498 497/497/497 496/496/496
f 501/501/501 500/500/500 499/499/499
f 504/504/504 503/503/503 502/502/502
f 507/507/507 506/506/506 505/505/505
f 510/510/510 509/509/509 508/508/508
f 512/512/512 511/511/511 508/508/508
f 511/511/511 513/513/513 508/508/508
f 508/508/508 513/513/513 514/514/514
f 514/514/514 513/513/513 515/515/515
f 518/518/518 517/517/517 516/516/516
f 521/521/521 520/520/520 519/519/519
f 524/524/524 523/523/523 522/522/522
f 527/527/527 526/526/526 525/525/525
f 530/530/530 529/529/529 528/528/528
f 533/533/533 532/532/532 531/531/531
f 536/536/536 535/535/535 534/534/534
f 539/539/539 538/538/538 537/537/537
f 542/542/542 541/541/541 540/540/540
f 545/545/545 544/544/544 543/543/543
f 548/548/548 547/547/547 546/546/546
f 551/551/551 550/550/550 549/549/549
f 554/554/554 553/553/553 552/552/552
f 557/557/557 556/556/556 555/555/555
f 555/555/555 559/559/559 558/558/558
f 558/558/558 561/561/561 560/560/560
f 561/561/561 562/562/562 560/560/560
f 562/562/562 561/561/561 563/563/563
f 566/566/566 565/565/565 564/564/564
f 569/569/569 568/568/568 567/567/567
f 571/571/571 570/570/570 567/567/567
f 574/574/574 573/573/573 572/572/572
f 577/577/577 576/576/576 575/575/575
f 580/580/580 579/579/579 578/578/578
f 583/583/583 582/582/582 581/581/581
f 586/586/586 585/585/585 584/584/584
f 589/589/589 588/588/588 587/587/587
f 592/592/592 591/591/591 590/590/590
f 595/595/595 594/594/594 593/593/593
f 597/597/597 593/593/593 596/596/596
f 600/600/600 599/599/599 598/598/598
f 603/603/603 602/602/602 601/601/601
f 606/606/606 605/605/605 604/604/604
f 609/609/609 608/608/608 607/607/607
f 611/611/611 610/610/610 607/607/607
f 607/607/607 610/610/610 612/612/612
f 615/615/615 614/614/614 613/613/613
f 618/618/618 617/617/617 616/616/616
f 620/620/620 619/619/619 618/618/618
f 622/622/622 621/621/621 619/619/619
f 625/625/625 624/624/624 623/623/623
f 628/628/628 627/627/627 626/626/626
f 631/631/631 630/630/630 629/629/629
f 634/634/634 633/633/633 632/632/632
f 632/632/632 636/636/636 635/635/635
f 637/637/637 632/632/632 635/635/635
f 639/639/639 638/638/638 632/632/632
f 640/640/640 639/639/639 632/632/632
f 642/642/642 641/641/641 640/640/640
f 645/645/645 644/644/644 643/643/643
f 648/648/648 647/647/647 646/646/646
f 651/651/651 650/650/650 649/649/649
f 654/654/654 653/653/653 652/652/652
f 657/657/657 656/656/656 655/655/655
f 658/658/658 657/657/657 655/655/655
f 660/660/660 658/658/658 659/659/659
f 660/660/660 659/659/659 661/661/661
f 659/659/659 662/662/662 661/661/661
f 665/665/665 664/664/664 663/663/663
f 666/666/666 665/665/665 663/663/663
f 669/669/669 668/668/668 667/667/667
f 669/669/669 670/670/670 668/668/668
f 673/673/673 672/672/672 671/671/671
f 671/671/671 674/674/674 673/673/673
f 677/677/677 676/676/676 675/675/675
f 675/675/675 676/676/676 678/678/678
f 681/681/681 680/680/680 679/679/679
f 679/679/679 680/680/680 682/682/682
f 685/685/685 684/684/684 683/683/683
f 686/686/686 683/683/683 684/684/684
f 689/689/689 688/688/688 687/687/687
f 690/690/690 689/689/689 687/687/687
f 693/693/693 692/692/692 691/691/691
f 695/695/695 694/694/694 691/691/691
f 696/696/696 693/693/693 695/695/695
f 699/699/699 698/698/698 697/697/697
f 697/697/697 700/700/700 699/699/699
f 700/700/700 701/701/701 699/699/699
f 704/704/704 703/703/703 702/702/702
f 705/705/705 704/704/704 702/702/702
f 708/708/708 707/707/707 706/706/706
f 709/709/709 708/708/708 706/706/706
f 712/712/712 711/711/711 710/710/710
f 713/713/713 712/712/712 710/710/710
f 716/716/716 715/715/715 714/714/714
f 717/717/717 716/716/716 714/714/714
f 720/720/720 719/719/719 718/718/718
f 721/721/721 720/720/720 718/718/718
f 724/724/724 723/723/723 722/722/722
f 723/723/723 724/724/724 725/725/725
f 725/725/725 726/726/726 723/723/723
