g 0.0000
v -0.037139654 1.4782412 1.0132945
v 0.01078292 1.5447962 1.0657114
v 0.006600566 1.4537754 1.0314862
v 0.019342586 1.4395434 0.9817089
v 0.01078292 1.5447962 1.0657114
v -0.024397597 1.4640093 0.9635171
v 0.74702394 -0.85638475 1.9491036
v 0.9976731 -1.0814826 1.7880958
v 1.139906 -0.95191526 1.935702
v 0.9209764 -0.7190788 2.1289768
v 0.55533725 -0.5682502 2.0162344
v 0.80262554 -0.41413224 2.3860903
v -0.20343299 -0.59146047 2.154662
v -0.14446689 -0.16381085 2.094852
v 0.36936226 -0.18634212 2.0763278
v 0.44166088 0.22825015 1.8070388
v -0.13294831 0.2755524 1.9925232
v 0.14104085 0.45939767 1.6715262
v -0.31227782 0.48898995 1.8724685
v -0.1459417 0.7179308 1.5470105
v -0.39743793 0.7007675 1.7173905
v -0.19712734 0.8996713 1.3654876
v -0.2945981 0.99932337 1.588352
v -0.13435489 1.0859282 1.1900187
v -0.13877782 1.258599 1.284067
v -0.064626575 1.1410072 0.8770647
v -0.048390135 1.2293942 0.9491814
v 0.02650258 1.2520199 0.77787
v 0.0104497075 1.2896035 0.8670133
v 0.122947216 1.4485307 0.81026435
v 0.080069184 1.4106562 0.86242294
v 0.17558268 1.6299937 0.92775524
v 0.11955472 1.5630741 0.9724692
v 0.09514069 1.7235292 1.2179496
v 0.070122615 1.6560048 1.1872902
v 0.04365018 1.6944368 1.3026268
v 0.04839269 1.65346 1.2361147
v -0.02653943 1.5660759 1.2987593
v 0.011597522 1.5855446 1.2332462
v -0.07461321 1.4132922 1.1778617
v -0.04206176 1.4534652 1.1536235
v -0.043149814 1.3632209 1.0293201
v -0.029094443 1.4076335 1.0552555
v 0.019342586 1.4395434 0.9817089
v 0.006600566 1.4537754 1.0314862
v 0.01078292 1.5447962 1.0657114
v 0.31238753 -1.0804362 2.8126404
v 0.31256884 -1.217499 2.66324
v 0.0266219 -1.1602328 2.624652
v 0.025332974 -1.0300734 2.7681875
v -0.012299361 -0.8631977 2.7153468
v -0.006676784 -1.0692359 2.5526726
v -0.3649336 -0.5524719 2.4677584
v -0.3154146 -1.0413177 2.6363995
v -0.5737663 -0.90965426 2.0591254
v -0.43372697 -1.1526707 2.2090595
v -0.6794145 -1.0191424 2.0680077
v -0.46113512 -1.2113823 2.1954997
v -0.9481313 -2.0047216 2.2674277
v -0.5214721 -2.0618834 2.4599717
v -0.006676784 -1.0692359 2.5526726
v 0.0266219 -1.1602328 2.624652
v 0.31256884 -1.217499 2.66324
v 0.3996898 -1.0794882 2.5662029
v -0.3154146 -1.0413177 2.6363995
v 0.81133884 -0.92942107 2.6712554
v 0.56643885 -1.1813723 2.378905
v 0.73554033 -1.1488323 2.1926699
v 0.9144194 -0.99895537 2.3644826
v 0.8914042 -1.2760284 2.0479786
v 1.0123441 -1.128376 2.2045956
v -0.14622983 -1.1740527 2.4193618
v -0.43372697 -1.1526707 2.2090595
v 0.35677832 -0.53797257 1.7653755
v -0.3392952 -1.208526 2.0669935
v -0.16197802 -0.51593196 1.7626226
v -0.46113512 -1.2113823 2.1954997
v -0.34850717 -0.053563952 1.5183403
v -0.37721616 -1.2517254 1.9906777
v -0.5214721 -2.0618834 2.4599717
v -0.44775862 -1.9976215 2.145747
v 0.31293815 -0.1400994 1.3418926
v -0.5331844 0.26085854 1.5044966
v -0.044415087 0.20111942 1.2903526
v -0.6405829 0.61748314 1.4953326
v -0.32293093 0.555418 1.2733982
v -0.53218484 1.015633 1.4783529
v -0.4346537 0.9155909 1.2549784
v -0.32556698 1.3150201 1.2055709
v -0.3292926 1.1119839 1.1075306
v -0.14428791 1.2797244 0.9092238
v -0.16059014 1.1911486 0.83707416
v -0.07000053 1.3346031 0.83355355
v -0.053947672 1.2970194 0.74441034
v -0.0003810525 1.4556558 0.8289633
v 0.042496964 1.4935303 0.7768047
v 0.03910449 1.6080736 0.9390095
v 0.09513244 1.6749932 0.8942956
v 0.005915381 1.6919188 1.160586
v 0.03093344 1.7594433 1.1912456
v -0.015814558 1.689374 1.2094105
v -0.02055706 1.7303507 1.2759227
v -0.052609727 1.6214586 1.206542
v -0.09074667 1.60199 1.2720551
v -0.08890951 1.4796693 1.1341392
v -0.12146096 1.4394963 1.1583774
v -0.072834626 1.4320995 1.0370637
v -0.08689 1.387687 1.0111284
v -0.037139654 1.4782412 1.0132945
v -0.024397597 1.4640093 0.9635171
v 0.01078292 1.5447962 1.0657114
v 0.39852855 -0.8602309 2.7341995
v 0.31238753 -1.0804362 2.8126404
v 0.025332974 -1.0300734 2.7681875
v -0.012299361 -0.8631977 2.7153468
v -0.3649336 -0.5524719 2.4677584
v -0.3948696 -0.9419323 1.9199361
v -0.5737663 -0.90965426 2.0591254
v -0.5345639 -1.0178027 1.8651828
v -0.6794145 -1.0191424 2.0680077
v -0.7455991 -2.004293 1.9946113
v -0.9481313 -2.0047216 2.2674277
v 0.3996898 -1.0794882 2.5662029
v 0.31256884 -1.217499 2.66324
v 0.31238753 -1.0804362 2.8126404
v 0.39852855 -0.8602309 2.7341995
v 0.81133884 -0.92942107 2.6712554
v 0.80262554 -0.41413224 2.3860903
v 0.9144194 -0.99895537 2.3644826
v 0.9209764 -0.7190788 2.1289768
v 1.0123441 -1.128376 2.2045956
v 1.139906 -0.95191526 1.935702
v 1.0016439 -1.5867649 2.4051476
v 1.164351 -1.6801877 2.137148
v -0.16197802 -0.51593196 1.7626226
v -0.13294831 0.2755524 1.9925232
v -0.14446689 -0.16381085 2.094852
v -0.34850717 -0.053563952 1.5183403
v -0.31227782 0.48898995 1.8724685
v -0.5331844 0.26085854 1.5044966
v -0.39743793 0.7007675 1.7173905
v -0.6405829 0.61748314 1.4953326
v 0.36936226 -0.18634212 2.0763278
v 0.44166088 0.22825015 1.8070388
v 0.31293815 -0.1400994 1.3418926
v 0.35677832 -0.53797257 1.7653755
v -0.1459417 0.7179308 1.5470105
v -0.19712734 0.8996713 1.3654876
v -0.4346537 0.9155909 1.2549784
v -0.32293093 0.555418 1.2733982
v 0.14104085 0.45939767 1.6715262
v -0.044415087 0.20111942 1.2903526
v 0.44166088 0.22825015 1.8070388
v 0.31293815 -0.1400994 1.3418926
v -0.6405829 0.61748314 1.4953326
v -0.2945981 0.99932337 1.588352
v -0.39743793 0.7007675 1.7173905
v -0.53218484 1.015633 1.4783529
v -0.13877782 1.258599 1.284067
v -0.32556698 1.3150201 1.2055709
v -0.048390135 1.2293942 0.9491814
v -0.14428791 1.2797244 0.9092238
v 0.0104497075 1.2896035 0.8670133
v -0.07000053 1.3346031 0.83355355
v 0.080069184 1.4106562 0.86242294
v -0.0003810525 1.4556558 0.8289633
v -0.19712734 0.8996713 1.3654876
v -0.3292926 1.1119839 1.1075306
v -0.4346537 0.9155909 1.2549784
v -0.13435489 1.0859282 1.1900187
v -0.16059014 1.1911486 0.83707416
v -0.064626575 1.1410072 0.8770647
v -0.053947672 1.2970194 0.74441034
v 0.02650258 1.2520199 0.77787
v -0.0003810525 1.4556558 0.8289633
v 0.11955472 1.5630741 0.9724692
v 0.080069184 1.4106562 0.86242294
v 0.03910449 1.6080736 0.9390095
v 0.070122615 1.6560048 1.1872902
v 0.005915381 1.6919188 1.160586
v 0.02650258 1.2520199 0.77787
v 0.042496964 1.4935303 0.7768047
v -0.053947672 1.2970194 0.74441034
v 0.122947216 1.4485307 0.81026435
v 0.09513244 1.6749932 0.8942956
v 0.17558268 1.6299937 0.92775524
v 0.03093344 1.7594433 1.1912456
v 0.09514069 1.7235292 1.2179496
v 0.04365018 1.6944368 1.3026268
v -0.02653943 1.5660759 1.2987593
v -0.09074667 1.60199 1.2720551
v -0.02055706 1.7303507 1.2759227
v 0.09514069 1.7235292 1.2179496
v 0.03093344 1.7594433 1.1912456
v 0.005915381 1.6919188 1.160586
v 0.04839269 1.65346 1.2361147
v 0.070122615 1.6560048 1.1872902
v -0.015814558 1.689374 1.2094105
v 0.011597522 1.5855446 1.2332462
v -0.052609727 1.6214586 1.206542
v -0.02653943 1.5660759 1.2987593
v -0.12146096 1.4394963 1.1583774
v -0.09074667 1.60199 1.2720551
v -0.07461321 1.4132922 1.1778617
v -0.08689 1.387687 1.0111284
v -0.043149814 1.3632209 1.0293201
v -0.052609727 1.6214586 1.206542
v -0.04206176 1.4534652 1.1536235
v 0.011597522 1.5855446 1.2332462
v -0.08890951 1.4796693 1.1341392
v -0.029094443 1.4076335 1.0552555
v -0.072834626 1.4320995 1.0370637
v -0.043149814 1.3632209 1.0293201
v 0.019342586 1.4395434 0.9817089
v -0.024397597 1.4640093 0.9635171
v -0.08689 1.387687 1.0111284
v -0.072834626 1.4320995 1.0370637
v -0.037139654 1.4782412 1.0132945
v 0.006600566 1.4537754 1.0314862
v -0.029094443 1.4076335 1.0552555
v 0.36936226 -0.18634212 2.0763278
v 0.35677832 -0.53797257 1.7653755
v 0.56643885 -1.1813723 2.378905
v 0.55533725 -0.5682502 2.0162344
v -0.16197802 -0.51593196 1.7626226
v -0.14446689 -0.16381085 2.094852
v -0.20343299 -0.59146047 2.154662
v -0.14622983 -1.1740527 2.4193618
v 0.8914042 -1.2760284 2.0479786
v 0.8722243 -1.7816151 1.9602985
v 0.9976731 -1.0814826 1.7880958
v 0.700693 -1.6831256 2.2428327
v 1.0123441 -1.128376 2.2045956
v 1.0016439 -1.5867649 2.4051476
v 0.73554033 -1.1488323 2.1926699
v 0.8914042 -1.2760284 2.0479786
v 0.9976731 -1.0814826 1.7880958
v 0.74702394 -0.85638475 1.9491036
v 0.56643885 -1.1813723 2.378905
v 0.55533725 -0.5682502 2.0162344
v 0.8722243 -1.7816151 1.9602985
v 0.700693 -1.6831256 2.2428327
v 1.0016439 -1.5867649 2.4051476
v 1.164351 -1.6801877 2.137148
v 0.9976731 -1.0814826 1.7880958
v 0.8722243 -1.7816151 1.9602985
v 1.164351 -1.6801877 2.137148
v 1.139906 -0.95191526 1.935702
v -0.20343299 -0.59146047 2.154662
v -0.3392952 -1.208526 2.0669935
v -0.14622983 -1.1740527 2.4193618
v -0.3948696 -0.9419323 1.9199361
v -0.37721616 -1.2517254 1.9906777
v -0.5345639 -1.0178027 1.8651828
v -0.44775862 -1.9976215 2.145747
v -0.7455991 -2.004293 1.9946113
v -0.44775862 -1.9976215 2.145747
v -0.7455991 -2.004293 1.9946113
v -0.9481313 -2.0047216 2.2674277
v -0.5214721 -2.0618834 2.4599717
v 1.1150637 -1.7802833 2.088359
v 1.320499 -2.1383808 2.3783908
v 1.1885617 -1.8193607 2.2758923
v 1.2176669 -2.0684774 2.048097
v 1.0435375 -2.1558332 1.9387041
v 1.0134053 -1.7833459 2.0113869
v 0.89545435 -1.7234511 2.4748974
v 0.5985791 -2.0855143 2.5234733
v 0.7821268 -1.7266899 2.3901868
v 0.87828326 -2.0881662 2.6655326
v 1.0335155 -1.7400799 2.4485898
v 1.1530284 -2.1150455 2.6522837
v 1.1885617 -1.8193607 2.2758923
v 1.320499 -2.1383808 2.3783908
v 1.2098264 -2.247852 2.647595
v 1.2984746 -2.1936727 2.4446285
v 1.1222978 -2.2369292 2.668707
v 1.0780424 -2.2313929 2.6769385
v 0.7158894 -2.2015803 2.6638932
v 0.6666483 -2.1959074 2.657858
v 0.5784483 -2.1900616 2.5419989
v 0.882855 -2.2036486 2.738769
v 0.9685213 -2.2202392 2.6852417
v 0.9625294 -2.8893332 2.6489391
v 1.0709002 -2.8890948 2.640933
v 0.632397 -2.8140242 2.042848
v 0.77801645 -2.8190582 2.0884113
v 0.84365916 -2.7540286 1.9335414
v 0.71351445 -2.7553468 1.9068607
v 0.84618604 -2.1341302 1.963296
v 1.0435375 -2.1558332 1.9387041
v 1.1569872 -2.2171943 2.5021846
v 1.2984746 -2.1936727 2.4446285
v 1.320499 -2.1383808 2.3783908
v 1.1082182 -2.2163877 2.512358
v 1.0780424 -2.2313929 2.6769385
v 1.1222978 -2.2369292 2.668707
v 0.89463156 -2.1339567 2.292874
v 1.0435375 -2.1558332 1.9387041
v 1.2176669 -2.0684774 2.048097
v 0.9718396 -2.2207615 2.5196898
v 1.0966879 -2.856797 2.4983802
v 0.97144735 -2.8579133 2.5058098
v 0.9625294 -2.8893332 2.6489391
v 1.0709002 -2.8890948 2.640933
v 0.9128783 -2.2206454 2.5195146
v 0.882855 -2.2036486 2.738769
v 0.9685213 -2.2202392 2.6852417
v 0.77789855 -2.206977 2.4622605
v 0.7374865 -2.206594 2.3892174
v 0.61298794 -2.1006975 2.2140212
v 0.7158894 -2.2015803 2.6638932
v 0.6666483 -2.1959074 2.657858
v 0.59684116 -2.1503186 2.3073826
v 0.5970675 -2.885954 2.7412214
v 0.468978 -2.8896637 2.6712093
v 0.84365916 -2.7540286 1.9335414
v 0.77801645 -2.8190582 2.0884113
v 0.89463156 -2.1339567 2.292874
v 1.0435375 -2.1558332 1.9387041
v 0.468978 -2.8896637 2.6712093
v 0.4244641 -2.8561137 2.8012547
v 0.54797536 -2.8525155 2.8613105
v 0.5970675 -2.885954 2.7412214
v 0.7374865 -2.206594 2.3892174
v 0.6666483 -2.1959074 2.657858
v 1.1623536 -2.7608774 2.4862134
v 1.231869 -2.7562938 2.4918747
v 1.2504213 -2.7366514 2.3865774
v 1.1804811 -2.7385223 2.3923872
v 0.6805428 -3.0025663 2.6444554
v 0.81213224 -3.010723 2.66616
v 0.8388361 -3.033778 2.5073981
v 0.72389734 -3.0272484 2.4905996
v 0.6666483 -2.1959074 2.657858
v 0.54797536 -2.8525155 2.8613105
v 0.4244641 -2.8561137 2.8012547
v 0.5784483 -2.1900616 2.5419989
v 0.5784483 -2.1900616 2.5419989
v 0.4244641 -2.8561137 2.8012547
v 0.468978 -2.8896637 2.6712093
v 0.59684116 -2.1503186 2.3073826
v 0.5985791 -2.0855143 2.5234733
v 0.61298794 -2.1006975 2.2140212
v 0.7821268 -1.7266899 2.3901868
v 0.7116877 -1.7939615 2.1651044
v 1.0335155 -1.7400799 2.4485898
v 0.89545435 -1.7234511 2.4748974
v 0.84618604 -2.1341302 1.963296
v 0.71351445 -2.7553468 1.9068607
v 0.632397 -2.8140242 2.042848
v 0.8636746 -1.7668935 2.0299559
v 1.0435375 -2.1558332 1.9387041
v 1.0134053 -1.7833459 2.0113869
v 1.1150637 -1.7802833 2.088359
v 1.1885617 -1.8193607 2.2758923
v 0.7158894 -2.2015803 2.6638932
v 0.6805428 -3.0025663 2.6444554
v 0.72389734 -3.0272484 2.4905996
v 0.77789855 -2.206977 2.4622605
v 0.9128783 -2.2206454 2.5195146
v 0.8388361 -3.033778 2.5073981
v 0.81213224 -3.010723 2.66616
v 0.882855 -2.2036486 2.738769
v 0.77789855 -2.206977 2.4622605
v 0.72389734 -3.0272484 2.4905996
v 0.8388361 -3.033778 2.5073981
v 0.9128783 -2.2206454 2.5195146
v 0.882855 -2.2036486 2.738769
v 0.81213224 -3.010723 2.66616
v 0.6805428 -3.0025663 2.6444554
v 0.7158894 -2.2015803 2.6638932
v 1.1082182 -2.2163877 2.512358
v 1.0966879 -2.856797 2.4983802
v 1.0709002 -2.8890948 2.640933
v 1.0780424 -2.2313929 2.6769385
v 0.9685213 -2.2202392 2.6852417
v 0.9625294 -2.8893332 2.6489391
v 0.97144735 -2.8579133 2.5058098
v 0.9718396 -2.2207615 2.5196898
v 1.2098264 -2.247852 2.647595
v 1.1623536 -2.7608774 2.4862134
v 1.1222978 -2.2369292 2.668707
v 1.231869 -2.7562938 2.4918747
v 1.2984746 -2.1936727 2.4446285
v 1.2504213 -2.7366514 2.3865774
v 1.1222978 -2.2369292 2.668707
v 1.1623536 -2.7608774 2.4862134
v 1.1804811 -2.7385223 2.3923872
v 1.1569872 -2.2171943 2.5021846
v 1.2504213 -2.7366514 2.3865774
v 1.2984746 -2.1936727 2.4446285
v 0.89463156 -2.1339567 2.292874
v 0.77801645 -2.8190582 2.0884113
v 0.632397 -2.8140242 2.042848
v 0.61298794 -2.1006975 2.2140212
v -0.4999951 -2.1127112 2.3659642
v -0.27479756 -2.486053 2.148228
v -0.22852337 -2.4628367 2.469271
v -0.44792277 -2.1771903 2.1389768
v -0.75874984 -2.1941965 2.0184755
v -0.61201954 -2.1655035 2.0214868
v -0.8506721 -2.1980436 2.1040838
v -0.90063596 -2.238917 2.2956593
v -0.60256374 -2.1171927 2.4603264
v -0.7386476 -2.1452518 2.4485617
v -0.61201954 -2.1655035 2.0214868
v -0.75874984 -2.1941965 2.0184755
v -0.7464862 -2.586406 1.9076426
v -0.5406792 -2.5461414 1.9119885
v -0.44792277 -2.1771903 2.1389768
v -0.48649383 -3.1941097 1.8874063
v -0.27479756 -2.486053 2.148228
v -0.35391802 -3.1847322 1.8457007
v -0.25008416 -3.236317 1.9795065
v -0.8506721 -2.1980436 2.1040838
v -0.90063596 -2.238917 2.2956593
v -0.98952866 -2.5835056 2.3955944
v -0.9236481 -2.5080814 2.0393758
v -0.7464862 -2.586406 1.9076426
v -0.75874984 -2.1941965 2.0184755
v -0.60256374 -2.1171927 2.4603264
v -0.4999951 -2.1127112 2.3659642
v -0.22852337 -2.4628367 2.469271
v -0.5040325 -2.487049 2.6473205
v -0.2753612 -2.5814116 2.6178923
v -0.3254054 -2.5914874 2.629504
v -0.49087092 -2.6066434 2.725443
v -0.7386476 -2.1452518 2.4485617
v -0.5840943 -2.632457 2.6789408
v -0.7886301 -2.5392065 2.6631227
v -0.90063596 -2.238917 2.2956593
v -0.98952866 -2.5835056 2.3955944
v -0.69782305 -2.653767 2.6820934
v -0.52534807 -3.3317187 2.6448257
v -0.6386718 -3.3407862 2.6481051
v -0.74420214 -2.6635494 2.6782925
v -0.83644277 -2.6829634 2.6657355
v -0.9547715 -2.638052 2.4629257
v -0.762094 -3.2169564 2.4938114
v -0.8340397 -3.2179184 2.507165
v -0.25008416 -3.236317 1.9795065
v -0.35391802 -3.1847322 1.8457007
v -0.48649383 -3.1941097 1.8874063
v -0.39619237 -3.2532992 2.0426266
v -0.22852337 -2.4628367 2.469271
v -0.27479756 -2.486053 2.148228
v -0.24378964 -2.5346498 2.244414
v -0.19642043 -2.569945 2.4875767
v -0.0072785616 -3.2887728 2.6182368
v -0.2753612 -2.5814116 2.6178923
v 0.049744904 -3.2472992 2.748753
v -0.072616816 -3.253061 2.8245347
v -0.24378964 -2.5346498 2.244414
v -0.27479756 -2.486053 2.148228
v -0.5562887 -2.543656 2.2608945
v -0.37638062 -2.6040168 2.3453887
v -0.98952866 -2.5835056 2.3955944
v -0.7464862 -2.586406 1.9076426
v -0.9236481 -2.5080814 2.0393758
v -0.41064748 -2.6064785 2.425888
v -0.3254054 -2.5914874 2.629504
v -0.2753612 -2.5814116 2.6178923
v -0.5443258 -2.6315084 2.4995873
v -0.6087116 -2.6373057 2.5018969
v -0.49087092 -2.6066434 2.725443
v -0.5840943 -2.632457 2.6789408
v -0.75183743 -2.6436374 2.508625
v -0.9547715 -2.638052 2.4629257
v -0.8044943 -2.6481516 2.5018866
v -0.69782305 -2.653767 2.6820934
v -0.74420214 -2.6635494 2.6782925
v -0.48649383 -3.1941097 1.8874063
v -0.7464862 -2.586406 1.9076426
v -0.5562887 -2.543656 2.2608945
v -0.39619237 -3.2532992 2.0426266
v -0.0072785616 -3.2887728 2.6182368
v -0.13335866 -3.2946186 2.7048895
v -0.072616816 -3.253061 2.8245347
v 0.049744904 -3.2472992 2.748753
v -0.762094 -3.2169564 2.4938114
v -0.7928652 -3.196506 2.3973942
v -0.86607814 -3.200594 2.3990326
v -0.8340397 -3.2179184 2.507165
v -0.52534807 -3.3317187 2.6448257
v -0.5525067 -3.302103 2.4958167
v -0.6836075 -3.3115873 2.5012298
v -0.6386718 -3.3407862 2.6481051
v -0.2200399 -3.4255877 2.6141422
v -0.27915275 -3.4581666 2.4585729
v -0.39627263 -3.4746194 2.4884331
v -0.35380626 -3.4450865 2.6509144
v -0.37638062 -2.6040168 2.3453887
v -0.2753612 -2.5814116 2.6178923
v -0.072616816 -3.253061 2.8245347
v -0.13335866 -3.2946186 2.7048895
v -0.24378964 -2.5346498 2.244414
v -0.37638062 -2.6040168 2.3453887
v -0.13335866 -3.2946186 2.7048895
v -0.0072785616 -3.2887728 2.6182368
v -0.3254054 -2.5914874 2.629504
v -0.41064748 -2.6064785 2.425888
v -0.27915275 -3.4581666 2.4585729
v -0.2200399 -3.4255877 2.6141422
v -0.49087092 -2.6066434 2.725443
v -0.35380626 -3.4450865 2.6509144
v -0.5443258 -2.6315084 2.4995873
v -0.49087092 -2.6066434 2.725443
v -0.35380626 -3.4450865 2.6509144
v -0.39627263 -3.4746194 2.4884331
v -0.41064748 -2.6064785 2.425888
v -0.5443258 -2.6315084 2.4995873
v -0.39627263 -3.4746194 2.4884331
v -0.27915275 -3.4581666 2.4585729
v -0.75183743 -2.6436374 2.508625
v -0.69782305 -2.653767 2.6820934
v -0.6386718 -3.3407862 2.6481051
v -0.6836075 -3.3115873 2.5012298
v -0.5840943 -2.632457 2.6789408
v -0.6087116 -2.6373057 2.5018969
v -0.5525067 -3.302103 2.4958167
v -0.52534807 -3.3317187 2.6448257
v -0.6087116 -2.6373057 2.5018969
v -0.75183743 -2.6436374 2.508625
v -0.6836075 -3.3115873 2.5012298
v -0.5525067 -3.302103 2.4958167
v -0.74420214 -2.6635494 2.6782925
v -0.8044943 -2.6481516 2.5018866
v -0.7928652 -3.196506 2.3973942
v -0.762094 -3.2169564 2.4938114
v -0.8044943 -2.6481516 2.5018866
v -0.9547715 -2.638052 2.4629257
v -0.86607814 -3.200594 2.3990326
v -0.7928652 -3.196506 2.3973942
v -0.9547715 -2.638052 2.4629257
v -0.83644277 -2.6829634 2.6657355
v -0.8340397 -3.2179184 2.507165
v -0.86607814 -3.200594 2.3990326
v -0.5562887 -2.543656 2.2608945
v -0.27479756 -2.486053 2.148228
v -0.25008416 -3.236317 1.9795065
v -0.39619237 -3.2532992 2.0426266
v 0.16456932 -0.8710298 2.887552
v 0.52193797 -0.9147498 3.1278963
v 0.15565044 -0.7703114 3.1808758
v 0.37604547 -0.95442134 2.8569646
v 0.16724205 -1.1049461 2.6837418
v -0.047380388 -0.94531816 2.8409638
v 0.6728388 -1.2476878 2.9722786
v 0.7400731 -1.3810055 3.2442505
v 0.5658275 -0.9965617 3.423942
v 0.56354094 -1.7579081 3.0513036
v 0.5199578 -1.5740952 2.8051817
v 0.46316826 -1.1466432 2.7671185
v 0.3749022 -1.3350945 2.6706452
v 0.15285003 -1.7027664 2.7244885
v 0.16295254 -1.409383 2.6240568
v -0.048523605 -1.3259914 2.6546447
v 0.119564235 -1.3268807 3.8191879
v 0.33104032 -1.4102721 3.7885997
v 0.11527467 -1.6313174 3.7595026
v -0.09238541 -1.4011691 3.7725995
v -0.18065146 -1.5896204 3.6761258
v -0.3903221 -1.4885757 3.4709656
v -0.23744094 -1.1621683 3.6380622
v -0.45755607 -1.3552582 3.1989944
v -0.2810241 -0.97835547 3.3919413
v -0.2833106 -1.739702 3.0193026
v -0.23942113 -1.8215137 3.315348
v -0.09352869 -1.7818422 3.58628
v 0.12686634 -1.9659522 3.2623684
v 0.11794734 -1.8652337 3.5556924
v 0.32989705 -1.7909453 3.6022804
v 0.15565044 -0.7703114 3.1808758
v 0.52193797 -0.9147498 3.1278963
v 0.5658275 -0.9965617 3.423942
v 0.14287513 -0.8297785 3.4851172
v 0.49595416 -1.1779354 3.6657765
v 0.12966669 -1.0334969 3.7187555
v 0.33104032 -1.4102721 3.7885997
v 0.119564235 -1.3268807 3.8191879
v -0.23744094 -1.1621683 3.6380622
v -0.09238541 -1.4011691 3.7725995
v -0.2810241 -0.97835547 3.3919413
v -0.21145716 -0.8989827 3.1001825
v -0.047380388 -0.94531816 2.8409638
v 0.16456932 -0.8710298 2.887552
v 0.7400731 -1.3810055 3.2442505
v 0.56354094 -1.7579081 3.0513036
v 0.49397397 -1.8372808 3.343062
v 0.6468551 -1.5108736 3.5101588
v 0.5658275 -0.9965617 3.423942
v 0.32989705 -1.7909453 3.6022804
v 0.49595416 -1.1779354 3.6657765
v 0.41816306 -1.6024942 3.698754
v 0.11527467 -1.6313174 3.7595026
v 0.33104032 -1.4102721 3.7885997
v 0.49397397 -1.8372808 3.343062
v 0.11794734 -1.8652337 3.5556924
v 0.32989705 -1.7909453 3.6022804
v 0.12686634 -1.9659522 3.2623684
v 0.56354094 -1.7579081 3.0513036
v 0.13964152 -1.9064848 2.9581268
v 0.5199578 -1.5740952 2.8051817
v -0.23942113 -1.8215137 3.315348
v 0.15285003 -1.7027664 2.7244885
v -0.2833106 -1.739702 3.0193026
v -0.21343735 -1.5583282 2.7774682
v 0.16295254 -1.409383 2.6240568
v -0.21343735 -1.5583282 2.7774682
v 0.15285003 -1.7027664 2.7244885
v -0.048523605 -1.3259914 2.6546447
v -0.36433834 -1.22539 2.9330857
v -0.45755607 -1.3552582 3.1989944
v -0.2833106 -1.739702 3.0193026
v -0.2810241 -0.97835547 3.3919413
v -0.21145716 -0.8989827 3.1001825
v -0.13564628 -1.1337695 2.7444904
v 0.16724205 -1.1049461 2.6837418
v -0.047380388 -0.94531816 2.8409638
v 0.4227364 -1.8976521 2.9883947
v 0.37376398 -1.8961666 2.9660168
v 0.32251656 -1.9018939 2.9815788
v 0.28272593 -1.9132996 3.0309112
v 0.45631182 -1.9059525 3.0427165
v 0.26505387 -1.9273274 3.1007953
v 0.46549356 -1.9188435 3.1144266
v 0.27423573 -1.9402184 3.1725056
v 0.4478215 -1.9328713 3.1843104
v 0.30781102 -1.9485188 3.2268274
v 0.40803087 -1.9442768 3.2336428
v 0.3567835 -1.9500043 3.2492054
v -0.09279066 -1.8679104 2.9788194
v -0.14068186 -1.8502271 2.995996
v -0.18017375 -1.843765 3.0464509
v -0.049332738 -1.8920763 2.999524
v -0.2006846 -1.8502553 3.116665
v -0.02195245 -1.9162498 3.052562
v -0.19671848 -1.867959 3.1878242
v -0.017986357 -1.9339533 3.1237218
v -0.16933826 -1.8921323 3.2408621
v -0.03849715 -1.9404438 3.1939363
v -0.12588027 -1.9162984 3.261567
v -0.0779891 -1.9339814 3.2443907
v 0.6036285 -1.6020055 3.4811869
v 0.63261247 -1.5055933 3.499458
v 0.60413945 -1.4318783 3.564455
v 0.537729 -1.6686411 3.527989
v 0.53845286 -1.4276404 3.6459458
v 0.46683657 -1.6670504 3.6137207
v 0.46735036 -1.4959755 3.6974528
v 0.43322074 -1.5939815 3.681269
v 0.43322074 -1.5939815 3.681269
v 0.46735036 -1.4959755 3.6974528
v 0.6235157 -1.5450037 3.745567
v 0.59841955 -1.6165018 3.7262676
v 0.46683657 -1.6670504 3.6137207
v 0.67938447 -1.6192071 3.856458
v 0.62312305 -1.6757259 3.6815856
v 0.6580268 -1.6658883 3.8268044
v 0.67908764 -1.7180469 3.8080814
v 0.6580268 -1.6658883 3.8268044
v 0.67938447 -1.6192071 3.856458
v 0.62664485 -1.7062252 3.9708655
v 0.61760473 -1.7276535 3.9532468
v 0.67908764 -1.7180469 3.8080814
v 0.52940464 -1.7858 4.072588
v 0.6264992 -1.7547565 3.9471123
v 0.537729 -1.6686411 3.527989
v 0.46683657 -1.6670504 3.6137207
v 0.62312305 -1.6757259 3.6815856
v 0.68463147 -1.6891835 3.6411493
v 0.6036285 -1.6020055 3.4811869
v 0.67908764 -1.7180469 3.8080814
v 0.75977933 -1.6491027 3.627763
v 0.73129225 -1.7456632 3.812495
v 0.6264992 -1.7547565 3.9471123
v 0.7847537 -1.7328925 3.8380582
v 0.6478611 -1.771806 3.9565656
v 0.52940464 -1.7858 4.072588
v 0.66892874 -1.7691321 3.976498
v 0.63261247 -1.5055933 3.499458
v 0.6036285 -1.6020055 3.4811869
v 0.75977933 -1.6491027 3.627763
v 0.79851997 -1.5781419 3.6466653
v 0.60413945 -1.4318783 3.564455
v 0.76016843 -1.5194948 3.6911995
v 0.79851997 -1.5781419 3.6466653
v 0.75977933 -1.6491027 3.627763
v 0.7847537 -1.7328925 3.8380582
v 0.80707204 -1.6869051 3.8688304
v 0.76016843 -1.5194948 3.6911995
v 0.66892874 -1.7691321 3.976498
v 0.7850498 -1.6342843 3.8863218
v 0.677619 -1.7481356 3.9947255
v 0.52940464 -1.7858 4.072588
v 0.6690738 -1.720818 4.000145
v 0.53845286 -1.4276404 3.6459458
v 0.60413945 -1.4318783 3.564455
v 0.76016843 -1.5194948 3.6911995
v 0.68518436 -1.5051138 3.731242
v 0.46735036 -1.4959755 3.6974528
v 0.7850498 -1.6342843 3.8863218
v 0.6235157 -1.5450037 3.745567
v 0.7317116 -1.6060035 3.8808506
v 0.6690738 -1.720818 4.000145
v 0.67938447 -1.6192071 3.856458
v 0.6480669 -1.703335 3.9900787
v 0.52940464 -1.7858 4.072588
v 0.62664485 -1.7062252 3.9708655
v -0.3180889 -1.5886905 3.4596379
v -0.25215518 -1.6555445 3.506078
v -0.18078825 -1.6541898 3.5914192
v -0.14655969 -1.5812337 3.6587813
v -0.34665218 -1.4921825 3.4780667
v -0.31757814 -1.4185634 3.542906
v -0.18027464 -1.4831152 3.675151
v -0.25143158 -1.4145439 3.6240351
v -0.14655969 -1.5812337 3.6587813
v -0.18078825 -1.6541898 3.5914192
v -0.3367278 -1.6623476 3.6601408
v -0.31158304 -1.6032062 3.704686
v -0.18027464 -1.4831152 3.675151
v -0.39213717 -1.7044835 3.7869427
v -0.33633536 -1.531625 3.7241223
v -0.3708009 -1.6523955 3.8055499
v -0.3918404 -1.6056437 3.8353193
v -0.3708009 -1.6523955 3.8055499
v -0.39213717 -1.7044835 3.7869427
v -0.33890837 -1.7413688 3.9256828
v -0.3298905 -1.7142956 3.9317687
v -0.3918404 -1.6056437 3.8353193
v -0.24123016 -1.7727356 4.050625
v -0.33876264 -1.6928375 3.9494364
v -0.25143158 -1.4145439 3.6240351
v -0.18027464 -1.4831152 3.675151
v -0.33633536 -1.531625 3.7241223
v -0.39794892 -1.4915307 3.7101357
v -0.31757814 -1.4185634 3.542906
v -0.3918404 -1.6056437 3.8353193
v -0.4731992 -1.5056624 3.6705058
v -0.4439888 -1.592267 3.8599985
v -0.33876264 -1.6928375 3.9494364
v -0.49738973 -1.6203704 3.865762
v -0.36006904 -1.6898761 3.968766
v -0.24123016 -1.7727356 4.050625
v -0.38107848 -1.7072897 3.9789484
v -0.34665218 -1.4921825 3.4780667
v -0.31757814 -1.4185634 3.542906
v -0.4731992 -1.5056624 3.6705058
v -0.5119888 -1.5641813 3.6261833
v -0.3180889 -1.5886905 3.4596379
v -0.49738973 -1.6203704 3.865762
v -0.4735883 -1.6352704 3.6070697
v -0.51968205 -1.6729176 3.8483922
v -0.49768585 -1.7189786 3.817499
v -0.51968205 -1.6729176 3.8483922
v -0.49738973 -1.6203704 3.865762
v -0.38107848 -1.7072897 3.9789484
v -0.38974386 -1.7345786 3.9735763
v -0.49768585 -1.7189786 3.817499
v -0.24123016 -1.7727356 4.050625
v -0.38122356 -1.7556038 3.955301
v -0.25215518 -1.6555445 3.506078
v -0.3180889 -1.5886905 3.4596379
v -0.4735883 -1.6352704 3.6070697
v -0.39850157 -1.6756003 3.6200433
v -0.18078825 -1.6541898 3.5914192
v -0.49768585 -1.7189786 3.817499
v -0.3367278 -1.6623476 3.6601408
v -0.44440806 -1.7319264 3.791643
v -0.38122356 -1.7556038 3.955301
v -0.39213717 -1.7044835 3.7869427
v -0.36027455 -1.758347 3.935253
v -0.24123016 -1.7727356 4.050625
v -0.33890837 -1.7413688 3.9256828
vt 0.5275723 0.7769141
vt 0.52381027 0.76373005
vt 0.5194447 0.7769141
vt 0.5194447 0.65953445
vt 0.52742374 0.67851233
vt 0.52742374 0.65793085
vt 0.058886647 0.29201126
vt 0.05507624 0.2428565
vt 0.017790198 0.24977589
vt 0.018165588 0.30689144
vt 0.07196307 0.32450008
vt 0.004939437 0.36415672
vt 0.15684831 0.40363407
vt 0.19925916 0.32647038
vt 0.13059115 0.28565645
vt 0.16095626 0.2241025
vt 0.24797559 0.2739787
vt 0.22582245 0.20758486
vt 0.2911862 0.25006342
vt 0.28361952 0.1857276
vt 0.3306675 0.21710443
vt 0.31109083 0.15237188
vt 0.3505113 0.16360569
vt 0.30690622 0.11246586
vt 0.3357315 0.09703398
vt 0.27405012 0.07668686
vt 0.2903514 0.06984615
vt 0.26910555 0.050474644
vt 0.2838441 0.053102493
vt 0.28790176 0.0224123
vt 0.29212523 0.03344965
vt 0.31702447 0.004939556
vt 0.31811273 0.01986885
vt 0.3629911 0.019140244
vt 0.35390878 0.026900768
vt 0.37222874 0.031918526
vt 0.3602811 0.032010555
vt 0.36227417 0.051915646
vt 0.3549037 0.04251194
vt 0.33491385 0.06565714
vt 0.33461034 0.0569458
vt 0.31129754 0.059491634
vt 0.31804633 0.054943085
vt 0.3105111 0.042790413
vt 0.31824458 0.045330048
vt 0.32981515 0.037076473
vt 0.0735715 0.8099587
vt 0.104494214 0.7999215
vt 0.0912444 0.76301074
vt 0.06032169 0.7730479
vt 0.04779613 0.76034546
vt 0.09486234 0.7450681
vt 0.010914564 0.71682906
vt 0.09726691 0.6888001
vt 0.009856999 0.63653326
vt 0.054189503 0.62214327
vt 0.0049394965 0.6216588
vt 0.050450206 0.6106429
vt 0.03468579 0.47275615
vt 0.104494214 0.49028063
vt 0.48384047 0.019219637
vt 0.4714104 0.004939437
vt 0.4272772 0.013608217
vt 0.42515433 0.0404253
vt 0.53993237 0.02035451
vt 0.38295114 0.09817207
vt 0.44687974 0.1448654
vt 0.4298396 0.17303813
vt 0.39066732 0.15445292
vt 0.41850674 0.21744692
vt 0.38210762 0.20697212
vt 0.5385667 0.07342124
vt 0.6027273 0.07151067
vt 0.50069964 0.18659294
vt 0.58677804 0.10251653
vt 0.57285166 0.15237689
vt 0.61424387 0.07516849
vt 0.6165321 0.20942414
vt 0.605737 0.10896623
vt 0.71755123 0.08612168
vt 0.6982918 0.12789547
vt 0.5252687 0.25095463
vt 0.6572808 0.2364155
vt 0.5882641 0.27258444
vt 0.69347775 0.27203643
vt 0.64372635 0.2988652
vt 0.70822537 0.32631886
vt 0.66793585 0.3338647
vt 0.68731296 0.39070225
vt 0.66004467 0.37276596
vt 0.63956594 0.4129889
vt 0.62397015 0.40471685
vt 0.6315266 0.42890537
vt 0.61660874 0.43016696
vt 0.6379491 0.44915354
vt 0.6327207 0.45971596
vt 0.6625637 0.46499497
vt 0.6600958 0.47970355
vt 0.6988461 0.46117783
vt 0.70716906 0.4697038
vt 0.7056644 0.45669103
vt 0.71755123 0.4578724
vt 0.7012843 0.4457847
vt 0.7094945 0.43712974
vt 0.68240845 0.42950094
vt 0.6835184 0.4208882
vt 0.6657295 0.429955
vt 0.65943193 0.42482805
vt 0.6650355 0.43950814
vt 0.6571003 0.44132113
vt 0.6757661 0.44845754
vt 0.041941166 0.42377186
vt 0.041665435 0.4501686
vt 0.084808946 0.46287727
vt 0.09841025 0.450346
vt 0.15411544 0.4558239
vt 0.20867896 0.37649632
vt 0.22169149 0.4088621
vt 0.22788644 0.37327814
vt 0.23730636 0.4068675
vt 0.35112906 0.36032104
vt 0.37222874 0.40733242
vt 0.1256268 0.715534
vt 0.12789237 0.74251103
vt 0.15953058 0.7501917
vt 0.17378211 0.72722435
vt 0.11437321 0.6455517
vt 0.21647006 0.67033744
vt 0.15012759 0.598789
vt 0.20553881 0.612241
vt 0.16756034 0.5480993
vt 0.21647006 0.55717516
vt 0.12038171 0.49046135
vt 0.1568498 0.47275615
vt 0.7371098 0.17845821
vt 0.822159 0.23760784
vt 0.8168715 0.17845821
vt 0.72743016 0.23760784
vt 0.8120648 0.28521502
vt 0.7360168 0.28521502
vt 0.8014425 0.33121574
vt 0.74407536 0.33121574
vt 0.869822 0.5520568
vt 0.81565523 0.5450849
vt 0.81565523 0.63994855
vt 0.869822 0.631932
vt 0.74625725 0.13356805
vt 0.7549278 0.16857934
vt 0.795912 0.16857934
vt 0.803702 0.13356805
vt 0.7367842 0.072015405
vt 0.8129351 0.072015405
vt 0.72743016 0.004939556
vt 0.82228714 0.004939437
vt 0.8838996 0.5274677
vt 0.8324876 0.48343658
vt 0.82655877 0.5274677
vt 0.8733977 0.48343658
vt 0.8361131 0.41566157
vt 0.8687503 0.41566157
vt 0.8457152 0.37487364
vt 0.8633613 0.37487364
vt 0.84710294 0.35689902
vt 0.86204505 0.35689902
vt 0.84620744 0.34109497
vt 0.8611495 0.34109497
vt 0.9178941 0.9142077
vt 0.88100266 0.8741963
vt 0.87690705 0.9142077
vt 0.9137013 0.8741963
vt 0.8888234 0.8324685
vt 0.90650266 0.8324685
vt 0.890173 0.8057718
vt 0.9051432 0.8057718
vt 0.08452934 0.9213002
vt 0.099476755 0.94946337
vt 0.099476755 0.92108655
vt 0.08452937 0.9496772
vt 0.09925702 0.9828012
vt 0.08732754 0.9829719
vt 0.9857052 0.63525057
vt 0.97059125 0.60992813
vt 0.97073674 0.63510704
vt 0.9855597 0.61007214
vt 0.97073674 0.57737684
vt 0.9857052 0.5775204
vt 0.9730731 0.53636837
vt 0.9850194 0.5364828
vt 0.5875291 0.9427216
vt 0.5881644 0.9583161
vt 0.60008633 0.9585962
vt 0.59945107 0.94300175
vt 0.5881644 0.9276149
vt 0.60008633 0.92789507
vt 0.35856086 0.8199203
vt 0.37044343 0.8261969
vt 0.37050855 0.8199203
vt 0.35849574 0.8261969
vt 0.37053517 0.83541894
vt 0.35858747 0.83541894
vt 0.79165065 0.968168
vt 0.78172886 0.93844247
vt 0.77971995 0.968168
vt 0.7904339 0.93844247
vt 0.7813989 0.9168124
vt 0.7895265 0.9168124
vt 0.5657034 0.92761517
vt 0.57618856 0.9508352
vt 0.57765025 0.92761517
vt 0.56747174 0.9508352
vt 0.57579553 0.96638155
vt 0.5676569 0.96638155
vt 0.52758384 0.7049327
vt 0.52758384 0.6884074
vt 0.51944464 0.6883917
vt 0.51944464 0.70491695
vt 0.3329563 0.9283979
vt 0.3329563 0.919389
vt 0.32483467 0.919199
vt 0.32483464 0.9282079
vt 0.5390268 0.81742144
vt 0.5396644 0.89728856
vt 0.6055914 0.9177361
vt 0.6055914 0.7958395
vt 0.46825308 0.8139562
vt 0.46811706 0.8936813
vt 0.5270568 0.90235424
vt 0.5270568 0.79712206
vt 0.8769026 0.04824698
vt 0.9063058 0.10851428
vt 0.9063059 0.0049394667
vt 0.86357164 0.12078202
vt 0.8461877 0.026001424
vt 0.8321661 0.08889207
vt 0.8798554 0.20946127
vt 0.8344221 0.21233457
vt 0.83203804 0.26491743
vt 0.8797531 0.2694614
vt 0.915117 0.1784584
vt 0.915117 0.30006367
vt 0.90706635 0.7898005
vt 0.9429934 0.7780677
vt 0.9429934 0.7257701
vt 0.90891457 0.7368994
vt 0.36689827 0.5756056
vt 0.36689827 0.47275603
vt 0.33492625 0.5050689
vt 0.3350398 0.5961153
vt 0.32504725 0.69913006
vt 0.27214202 0.61854815
vt 0.22634906 0.66190624
vt 0.3183174 0.63554335
vt 0.2790691 0.59974074
vt 0.32504725 0.6173403
vt 0.24263063 0.48999763
vt 0.2906011 0.47275615
vt 0.28688115 0.85793066
vt 0.2849571 0.8989829
vt 0.33563882 0.90932
vt 0.33563882 0.84581256
vt 0.9094906 0.6925359
vt 0.9535085 0.6498275
vt 0.9128648 0.66791224
vt 0.94865406 0.69125867
vt 0.9535085 0.7158911
vt 0.9070662 0.70795727
vt 0.748761 0.4591713
vt 0.7274302 0.41337585
vt 0.73518544 0.46259308
vt 0.7613453 0.40961218
vt 0.7660907 0.46404982
vt 0.79559296 0.41658878
vt 0.78794396 0.47610474
vt 0.81667984 0.4426012
vt 0.8077698 0.40668678
vt 0.81625205 0.43135738
vt 0.79676884 0.403255
vt 0.7912055 0.40172672
vt 0.74627966 0.3945923
vt 0.7401053 0.39412737
vt 0.729192 0.40175247
vt 0.7665418 0.39313745
vt 0.77753663 0.39873075
vt 0.8036061 0.34109497
vt 0.81667984 0.3450613
vt 0.68108934 0.9865223
vt 0.6993788 0.98600876
vt 0.7025159 0.963873
vt 0.6865962 0.96611774
vt 0.6783137 0.9200195
vt 0.7025159 0.9121522
vt 0.13384593 0.84402466
vt 0.116150856 0.8534422
vt 0.11437309 0.86462736
vt 0.1399113 0.8426738
vt 0.14405417 0.82532454
vt 0.13835227 0.8261795
vt 0.16710865 0.86835766
vt 0.14597571 0.9025798
vt 0.12701356 0.90113354
vt 0.156901 0.840096
vt 0.12548757 0.79169846
vt 0.14112198 0.789454
vt 0.14225662 0.77294445
vt 0.1286999 0.7749891
vt 0.16401577 0.8395405
vt 0.16942966 0.8193536
vt 0.15803385 0.8241687
vt 0.18085694 0.84464407
vt 0.1854887 0.85128164
vt 0.20259678 0.8754616
vt 0.18987656 0.82484674
vt 0.19612205 0.8253269
vt 0.20393491 0.86218166
vt 0.18844986 0.7600708
vt 0.20393491 0.765069
vt 0.2731713 0.8531151
vt 0.25295508 0.8458128
vt 0.226349 0.9269681
vt 0.27507818 0.9269681
vt 0.36732858 0.61044645
vt 0.34989583 0.60599446
vt 0.34532654 0.6165681
vt 0.36171567 0.6212318
vt 0.36732858 0.69835997
vt 0.33492625 0.6863475
vt 0.52768993 0.7392955
vt 0.5194533 0.7416043
vt 0.5194447 0.75385094
vt 0.52768993 0.75062084
vt 0.8181746 0.9511435
vt 0.8181746 0.9346088
vt 0.804055 0.93086433
vt 0.8043115 0.9452852
vt 0.49495256 0.91733277
vt 0.4984492 0.9899353
vt 0.51276433 0.98443615
vt 0.51276433 0.91223323
vt 0.7026684 0.7308
vt 0.67831373 0.8032579
vt 0.69622517 0.80501926
vt 0.7301012 0.7293469
vt 0.70371723 0.7193891
vt 0.74076724 0.72479135
vt 0.72081995 0.67206585
vt 0.74507284 0.68799835
vt 0.7260864 0.65194374
vt 0.71620584 0.6611363
vt 0.7816098 0.71318644
vt 0.79417586 0.78480166
vt 0.77566624 0.7948112
vt 0.76743627 0.67525774
vt 0.79417586 0.6996319
vt 0.77695954 0.6649711
vt 0.7727026 0.6551356
vt 0.75506294 0.6498275
vt 0.940783 0.34109473
vt 0.94712186 0.4229164
vt 0.96725297 0.426818
vt 0.96725297 0.34317505
vt 0.34551764 0.8558229
vt 0.3521613 0.94128597
vt 0.370744 0.9333044
vt 0.370744 0.8458126
vt 0.97946596 0.74717116
vt 0.97946596 0.6546986
vt 0.9690521 0.6498275
vt 0.9633875 0.7419317
vt 0.98040545 0.90387297
vt 0.98040545 0.80577207
vt 0.9681622 0.8088808
vt 0.9602066 0.9051645
vt 0.9821172 0.16420734
vt 0.9821172 0.09976661
vt 0.96514285 0.10127747
vt 0.96273196 0.16814876
vt 0.4850737 0.9944205
vt 0.4850737 0.91252303
vt 0.4706899 0.9122331
vt 0.46811712 0.9899013
vt 0.39069915 0.9719244
vt 0.39909363 0.910143
vt 0.38210773 0.96874857
vt 0.40373242 0.9151553
vt 0.41863918 0.9719244
vt 0.41609883 0.9126468
vt 0.952853 0.16814864
vt 0.9425996 0.1086545
vt 0.93139607 0.105982184
vt 0.9335949 0.16164374
vt 0.925461 0.109680295
vt 0.91618484 0.16814864
vt 0.9468148 0.09510374
vt 0.9468148 0.006079197
vt 0.9310334 0.004939556
vt 0.9161849 0.09610319
vt 0.6895472 0.85715663
vt 0.7309272 0.82465804
vt 0.6936064 0.814898
vt 0.71840644 0.852875
vt 0.7309272 0.8908948
vt 0.73033345 0.8742814
vt 0.7207341 0.9003221
vt 0.700197 0.90227294
vt 0.6783136 0.8676889
vt 0.67994785 0.8831973
vt 0.821862 0.8057718
vt 0.80499053 0.81139565
vt 0.8040549 0.8521521
vt 0.8277238 0.8442662
vt 0.8452757 0.8086209
vt 0.8361086 0.91675806
vt 0.8670281 0.8414793
vt 0.8497429 0.9119699
vt 0.8670281 0.9209852
vt 0.89497733 0.48307538
vt 0.8994143 0.5070287
vt 0.94151235 0.5224782
vt 0.9337015 0.47906768
vt 0.94151235 0.45674634
vt 0.8937788 0.46948195
vt 0.8362367 0.65246415
vt 0.82602257 0.6498275
vt 0.8040549 0.69919634
vt 0.83330005 0.704021
vt 0.81050265 0.71815324
vt 0.81638736 0.71866345
vt 0.8341777 0.7211051
vt 0.85307366 0.6518624
vt 0.84664625 0.719584
vt 0.8675426 0.70397186
vt 0.8776697 0.65112185
vt 0.89718735 0.6914954
vt 0.86040443 0.719465
vt 0.8627272 0.7958927
vt 0.87607074 0.79446983
vt 0.86614585 0.71929383
vt 0.87765706 0.7187109
vt 0.8936731 0.70145226
vt 0.8890767 0.7709832
vt 0.89718735 0.7700937
vt 0.87095803 0.13066089
vt 0.87350386 0.15042889
vt 0.88895226 0.15586829
vt 0.88895226 0.13506448
vt 0.6274901 0.89531183
vt 0.6596375 0.9044938
vt 0.65330344 0.8958869
vt 0.63191533 0.88326836
vt 0.6596375 0.80153847
vt 0.61547035 0.8749995
vt 0.6468073 0.8022628
vt 0.63380027 0.7958393
vt 0.45170605 0.88106656
vt 0.45823812 0.87200356
vt 0.43203807 0.84915787
vt 0.4357531 0.8731924
vt 0.39418936 0.81166476
vt 0.458238 0.80782604
vt 0.43209124 0.797122
vt 0.42561603 0.8744393
vt 0.4093802 0.89569485
vt 0.41318464 0.9002641
vt 0.41101706 0.8649083
vt 0.40695596 0.85910934
vt 0.3903855 0.88405865
vt 0.39045906 0.87143755
vt 0.39806437 0.84448045
vt 0.39099848 0.8193821
vt 0.39569223 0.8388747
vt 0.384135 0.85965234
vt 0.38210762 0.8545395
vt 0.94588757 0.54508495
vt 0.9337878 0.6149008
vt 0.9607122 0.63525033
vt 0.9607122 0.54522276
vt 0.83203816 0.30994254
vt 0.83291936 0.32785565
vt 0.84964466 0.32977825
vt 0.84964466 0.31288707
vt 0.5194447 0.71481156
vt 0.5197934 0.72646844
vt 0.5280774 0.7294166
vt 0.5280774 0.7162937
vt 0.900828 0.3305967
vt 0.900828 0.31327784
vt 0.88556683 0.30994248
vt 0.88766706 0.32749152
vt 0.8595234 0.30994272
vt 0.86158454 0.33040547
vt 0.87568784 0.3308704
vt 0.87568784 0.3101809
vt 0.95139104 0.5224781
vt 0.97881085 0.5224781
vt 0.9780739 0.4440403
vt 0.9658875 0.43994713
vt 0.9783231 0.17845821
vt 0.9624134 0.18624544
vt 0.96568316 0.28508663
vt 0.9783231 0.28449965
vt 0.91267824 0.44686747
vt 0.9309039 0.44381332
vt 0.9309039 0.34109497
vt 0.9167521 0.34597254
vt 0.89377856 0.44506788
vt 0.90595937 0.3434372
vt 0.92777324 0.9053626
vt 0.95032763 0.91350126
vt 0.95032763 0.81307507
vt 0.9344487 0.8057718
vt 0.37220842 0.7090092
vt 0.3584957 0.71402645
vt 0.35918596 0.8100414
vt 0.37220842 0.8077717
vt 0.71239495 0.9928179
vt 0.7293713 0.9944205
vt 0.7293713 0.9121523
vt 0.7144618 0.9131317
vt 0.99506044 0.34109497
vt 0.9771321 0.3433144
vt 0.97975826 0.42393327
vt 0.99506044 0.42593288
vt 0.61547035 0.9915495
vt 0.6319679 0.99025774
vt 0.6319679 0.9143729
vt 0.6168039 0.91583586
vt 0.07465029 0.92108655
vt 0.058978558 0.92426157
vt 0.06531787 0.99183226
vt 0.07465029 0.9913764
vt 0.96020657 0.9731264
vt 0.9798587 0.9770484
vt 0.9798587 0.91504335
vt 0.9712801 0.91527987
vt 0.66023755 0.91453815
vt 0.64184666 0.9143729
vt 0.64924836 0.98161983
vt 0.66023755 0.98232627
vt 0.9249959 0.26968813
vt 0.9525342 0.27178574
vt 0.9525342 0.17845821
vt 0.93807435 0.17901707
vt 0.5019264 0.6140793
vt 0.4366777 0.62432444
vt 0.4838264 0.648052
vt 0.47470522 0.60038024
vt 0.5085516 0.5681559
vt 0.5291476 0.6009809
vt 0.4171481 0.5680815
vt 0.38210773 0.568629
vt 0.40465856 0.63357276
vt 0.40465856 0.50418293
vt 0.4366777 0.5122696
vt 0.4634297 0.5679084
vt 0.47470522 0.5356853
vt 0.4838264 0.48958242
vt 0.5019264 0.52258694
vt 0.5291476 0.536286
vt 0.67831373 0.5987719
vt 0.6874944 0.6285107
vt 0.7215849 0.6130265
vt 0.69547176 0.57377076
vt 0.72891736 0.5681526
vt 0.7376685 0.52296895
vt 0.679739 0.5326999
vt 0.74549353 0.48958248
vt 0.67860234 0.5008188
vt 0.80577624 0.5236942
vt 0.7898749 0.5525106
vt 0.7590587 0.58520854
vt 0.80577624 0.60401976
vt 0.7682394 0.6149473
vt 0.75108147 0.6399485
vt 0.60378116 0.52238154
vt 0.5476599 0.5228578
vt 0.53902674 0.5684233
vt 0.60383004 0.56787324
vt 0.5476668 0.6143445
vt 0.6037881 0.6138681
vt 0.571265 0.6483171
vt 0.6036666 0.6480421
vt 0.65973747 0.6143446
vt 0.635969 0.6483171
vt 0.6684348 0.5684233
vt 0.65973055 0.5228579
vt 0.635957 0.48985755
vt 0.6036546 0.48958242
vt 0.34861684 0.77551734
vt 0.34861684 0.70917475
vt 0.30373192 0.70900893
vt 0.30373192 0.7664634
vt 0.3226118 0.8359337
vt 0.25897884 0.72395325
vt 0.28121114 0.8187854
vt 0.25897884 0.75712454
vt 0.22634912 0.7500032
vt 0.24597645 0.78733265
vt 0.41851377 0.7803159
vt 0.38210773 0.7255797
vt 0.38210773 0.7578646
vt 0.41851377 0.7243968
vt 0.46516657 0.787243
vt 0.46516657 0.72267324
vt 0.5095656 0.7767897
vt 0.41424656 0.66832834
vt 0.5095656 0.7208707
vt 0.46023917 0.6579309
vt 0.5052984 0.6648022
vt 0.66485596 0.7465329
vt 0.6072078 0.76764446
vt 0.6460769 0.78596056
vt 0.6424148 0.7359581
vt 0.5815542 0.71472263
vt 0.53902674 0.7248517
vt 0.56864905 0.78596056
vt 0.5420165 0.65958047
vt 0.5841434 0.6581961
vt 0.62760377 0.7054037
vt 0.66483665 0.6993918
vt 0.62909865 0.672768
vt 0.2959373 0.9605229
vt 0.30397546 0.9618616
vt 0.3109367 0.9574847
vt 0.3149557 0.948565
vt 0.2889762 0.9538269
vt 0.3149557 0.9374924
vt 0.28495705 0.9435682
vt 0.3109367 0.9272337
vt 0.28495705 0.9324956
vt 0.30397546 0.9205377
vt 0.2889762 0.9235759
vt 0.2959373 0.919199
vt 0.88705045 0.9667251
vt 0.89447594 0.96562505
vt 0.9009066 0.9591074
vt 0.88061976 0.96211267
vt 0.90461934 0.94891834
vt 0.87690705 0.9530237
vt 0.90461934 0.93778825
vt 0.87690705 0.9418936
vt 0.9009066 0.92869925
vt 0.88061976 0.9317045
vt 0.89447594 0.9240868
vt 0.88705045 0.9251869
vt 0.15277797 0.92327255
vt 0.14163369 0.9124586
vt 0.12601328 0.91247505
vt 0.15277797 0.9392322
vt 0.114863336 0.92393667
vt 0.14128697 0.95173436
vt 0.11437321 0.9408768
vt 0.12527001 0.95246106
vt 0.75496805 0.9168124
vt 0.74080634 0.91868687
vt 0.74450666 0.9440086
vt 0.7553861 0.9420459
vt 0.76984096 0.91868687
vt 0.74655384 0.96232843
vt 0.76669276 0.9440086
vt 0.75488526 0.95911837
vt 0.7633288 0.96232843
vt 0.9336768 0.325557
vt 0.94145477 0.32847142
vt 0.9409221 0.30632567
vt 0.9370102 0.30542612
vt 0.92499596 0.32526994
vt 0.94145477 0.2816651
vt 0.93284065 0.30475354
vt 0.036723375 0.9030013
vt 0.049099565 0.89237595
vt 0.02679944 0.8792062
vt 0.016779184 0.88297224
vt 0.025501192 0.91191244
vt 0.02098918 0.8579216
vt 0.0049394965 0.88553953
vt 0.013315856 0.85476637
vt 0.031821728 0.83732605
vt 0.005651474 0.8507805
vt 0.028859138 0.8346429
vt 0.049099565 0.81983757
vt 0.02604127 0.8315506
vt 0.84672165 0.1658001
vt 0.86107904 0.16709876
vt 0.8575454 0.1342187
vt 0.84662074 0.13066101
vt 0.83216614 0.16709876
vt 0.83551866 0.1342187
vt 0.9670671 0.08757138
vt 0.97859657 0.08379841
vt 0.97859657 0.05655551
vt 0.97013086 0.056504726
vt 0.9566938 0.08145046
vt 0.9773279 0.02870369
vt 0.96193254 0.05476904
vt 0.97324777 0.028047085
vt 0.97587615 0.004939556
vt 0.9691631 0.027828455
vt 0.09090704 0.82916737
vt 0.07950312 0.8198378
vt 0.058978498 0.8461268
vt 0.070938945 0.8489907
vt 0.103198946 0.8393929
vt 0.059789836 0.8808341
vt 0.08087516 0.85243416
vt 0.06751776 0.87705326
vt 0.08017522 0.89979124
vt 0.07509911 0.87362814
vt 0.08301878 0.89679766
vt 0.103198946 0.9112077
vt 0.085931 0.8939805
vt 0.18960993 0.952055
vt 0.20059925 0.9408748
vt 0.20091212 0.9241805
vt 0.18997478 0.91245854
vt 0.17401743 0.952055
vt 0.16282567 0.9411665
vt 0.17397869 0.9132314
vt 0.16265693 0.9254503
vt 0.01939395 0.96366525
vt 0.034015432 0.96456075
vt 0.03077063 0.94340205
vt 0.019607455 0.9436307
vt 0.0049394667 0.96456075
vt 0.028015733 0.9217918
vt 0.008552998 0.94340205
vt 0.01958856 0.924319
vt 0.011216909 0.9217918
vt 0.54747087 0.9678047
vt 0.5558244 0.9699037
vt 0.55132806 0.9508803
vt 0.54723144 0.9503306
vt 0.53902674 0.9699037
vt 0.5470816 0.92761505
vt 0.5430802 0.9508803
vt 0.91159594 0.62712383
vt 0.92390895 0.61688995
vt 0.9015899 0.6038737
vt 0.8916327 0.60732365
vt 0.9002358 0.63646936
vt 0.8958052 0.5826869
vt 0.8797011 0.61020327
vt 0.88820106 0.579267
vt 0.9066378 0.56232643
vt 0.8804883 0.5754962
vt 0.90371317 0.5595112
vt 0.92390895 0.54508495
vt 0.9008757 0.5565219
vt 0.443319 0.97523427
vt 0.4573766 0.9748831
vt 0.4537295 0.9417684
vt 0.44307873 0.93973994
vt 0.42851818 0.97523427
vt 0.44953674 0.9130981
vt 0.43174425 0.94203615
vt 0.44125146 0.91014314
vt 0.43280992 0.9133017
vt 0.93551195 0.9233805
vt 0.9277731 0.92688555
vt 0.9359753 0.95252275
vt 0.9398502 0.9513829
vt 0.9442771 0.92411035
vt 0.9442771 0.97714907
vt 0.94406164 0.951163
vt 0.7727273 0.8237629
vt 0.7613332 0.81489825
vt 0.7408063 0.84132385
vt 0.7527603 0.8438482
vt 0.78502405 0.8343723
vt 0.7416122 0.8760793
vt 0.7627013 0.8476021
vt 0.7493368 0.87206626
vt 0.76199806 0.89526725
vt 0.7569232 0.86890316
vt 0.7648403 0.89216423
vt 0.78502405 0.9069333
vt 0.76775527 0.8894794
vn -0.768431 0.6037866 0.21202715
vn 0.19677894 0.7867905 0.5850116
vn 0.6017972 -0.16264719 0.78191173
vn 0.8108561 -0.25772184 -0.5254445
vn 0.19677894 0.7867905 0.5850116
vn -0.1804674 0.29677102 -0.93774104
vn -0.3150257 0.047098994 -0.9353715
vn -0.06135472 -0.0076363683 -0.939593
vn 0.7965294 0.48273796 -0.27423596
vn 0.8071423 0.5350956 -0.24160784
vn 0.25307834 0.537608 -0.6703584
vn 0.58903587 0.68735623 0.08120817
vn -0.31579024 0.7295638 -0.52008057
vn -0.68871635 0.45671996 0.49187687
vn 0.6684842 0.6047607 0.29100648
vn 0.79882014 0.5472002 0.19078675
vn -0.2692987 0.33467227 0.88933235
vn 0.63463527 0.7704176 0.033112347
vn -0.27297133 0.24192302 0.90637624
vn 0.77658635 0.5947912 0.0989041
vn -0.08020316 0.2654329 0.8606508
vn 0.9446643 -0.15581739 -0.21497181
vn 0.33017072 0.4432177 0.80604094
vn 0.81033516 -0.5753267 -0.07127305
vn 0.65513945 0.5522939 0.48000622
vn 0.4254886 -0.8613775 -0.2615515
vn 0.86606425 0.2472246 0.42464244
vn 0.6563748 -0.55823225 -0.5074924
vn 0.626871 -0.035574853 0.77831054
vn 0.88478553 -0.17886204 -0.4303057
vn 0.3853008 -0.42916134 0.81692326
vn 0.96166766 0.22112569 -0.16216925
vn 0.29862458 -0.7454042 0.5959829
vn 0.84690815 0.3925094 0.3587246
vn 0.30277926 -0.9118856 0.27710825
vn 0.4835167 0.17859523 0.85692203
vn 0.6956198 -0.7161671 -0.056723986
vn 0.19077656 -0.42089248 0.8868221
vn 0.89068365 -0.31887555 -0.3240385
vn 0.071997255 -0.8133911 0.5772441
vn 0.9924525 -0.040064365 -0.11590156
vn 0.23945907 -0.9618603 -0.13222583
vn 0.88201857 -0.018317163 0.47085863
vn 0.8108561 -0.25772184 -0.5254445
vn 0.6017972 -0.16264719 0.78191173
vn 0.19677894 0.7867905 0.5850116
vn 0.2986315 -0.30112103 0.84886724
vn 0.29940012 -0.87574214 0.21828488
vn -0.5745377 -0.75387526 0.14153954
vn -0.5805623 -0.18340611 0.7509117
vn -0.3744552 -0.0368008 0.80271834
vn -0.35495552 -0.7491696 0.24982283
vn -0.6213439 0.62757635 0.27725336
vn -0.5129797 -0.4152171 0.6496098
vn -0.76049685 0.61280024 0.039603263
vn -0.09817741 -0.54100496 0.7984239
vn -0.83584577 0.4713949 0.18781431
vn 0.28203908 -0.04083556 0.9585338
vn -0.8524297 -0.4287413 0.29924095
vn 0.3027907 -0.53280836 0.7902111
vn -0.35495552 -0.7491696 0.24982283
vn -0.5745377 -0.75387526 0.14153954
vn 0.29940012 -0.87574214 0.21828488
vn 0.3257044 -0.75343895 0.24081343
vn -0.5129797 -0.4152171 0.6496098
vn 0.60627466 -0.27335113 0.61232287
vn 0.28774178 -0.8391774 0.1579037
vn -0.32252264 -0.94262505 -0.08406958
vn 0.79862905 -0.30069977 0.49477357
vn -0.99011225 -0.12009929 -0.058759257
vn 0.31880832 0.15122473 0.9187393
vn -0.15105678 -0.89642996 0.23837344
vn -0.09817741 -0.54100496 0.7984239
vn 0.63398504 -0.3900836 -0.58263236
vn 0.6144849 -0.73184454 -0.24324788
vn -0.73671955 -0.4883572 -0.39312896
vn 0.28203908 -0.04083556 0.9585338
vn -0.81002504 -0.48941502 -0.29727542
vn 0.8009035 -0.35477796 -0.45761544
vn 0.3027907 -0.53280836 0.7902111
vn 0.72579443 -0.6169036 -0.30438942
vn 0.5280013 -0.22729456 -0.78733224
vn -0.8903476 -0.39815158 -0.1230748
vn 0.13964747 0.08279705 -0.9804058
vn -0.91857517 -0.021580549 0.09395194
vn 0.09166238 -0.037411362 -0.96051824
vn -0.7755084 0.5189066 0.29372922
vn -0.4514285 -0.062414847 -0.864806
vn -0.4344877 0.88143677 0.022111801
vn -0.6210641 -0.38400277 -0.67695516
vn -0.39295527 0.909021 -0.09990332
vn -0.63369364 -0.30934748 -0.70304465
vn -0.67942023 0.6950934 0.23501727
vn -0.3633157 0.012127206 -0.93158704
vn -0.9137759 0.2974716 0.27663022
vn -0.19993705 0.42787284 -0.88144743
vn -0.99819446 -0.020033926 0.05662868
vn -0.07549918 0.8012606 -0.59353256
vn -0.9464623 -0.21312732 -0.24245852
vn -0.19836167 0.9771769 -0.0760091
vn -0.74815536 0.091403395 -0.657198
vn -0.5125744 0.7357547 0.4426424
vn -0.36688513 0.38454 -0.84706795
vn -0.8793689 0.17768873 0.4417431
vn -0.3087036 0.6877316 -0.65705925
vn -0.9604704 -0.2358849 0.14783543
vn -0.5825982 0.80090994 -0.13828309
vn -0.7330226 -0.4179069 -0.536686
vn -0.768431 0.6037866 0.21202715
vn -0.1804674 0.29677102 -0.93774104
vn 0.19677894 0.7867905 0.5850116
vn 0.32201415 -0.056156605 0.7806492
vn 0.2986315 -0.30112103 0.84886724
vn -0.5805623 -0.18340611 0.7509117
vn -0.3744552 -0.0368008 0.80271834
vn -0.6213439 0.62757635 0.27725336
vn 0.40067336 0.3326621 -0.83013797
vn -0.76049685 0.61280024 0.039603263
vn -0.0584872 0.27655205 -0.91024673
vn -0.83584577 0.4713949 0.18781431
vn -0.29607725 -0.57311034 -0.76412255
vn -0.8524297 -0.4287413 0.29924095
vn 0.3257044 -0.75343895 0.24081343
vn 0.29940012 -0.87574214 0.21828488
vn 0.2986315 -0.30112103 0.84886724
vn 0.32201415 -0.056156605 0.7806492
vn 0.60627466 -0.27335113 0.61232287
vn 0.58903587 0.68735623 0.08120817
vn 0.79862905 -0.30069977 0.49477357
vn 0.8071423 0.5350956 -0.24160784
vn 0.31880832 0.15122473 0.9187393
vn 0.7965294 0.48273796 -0.27423596
vn 0.09287513 -0.20210584 0.9749503
vn 0.8334554 -0.5431454 0.101714164
vn -0.73671955 -0.4883572 -0.39312896
vn -0.2692987 0.33467227 0.88933235
vn -0.68871635 0.45671996 0.49187687
vn -0.81002504 -0.48941502 -0.29727542
vn -0.27297133 0.24192302 0.90637624
vn -0.8903476 -0.39815158 -0.1230748
vn -0.08020316 0.2654329 0.8606508
vn -0.91857517 -0.021580549 0.09395194
vn 0.6684842 0.6047607 0.29100648
vn 0.79882014 0.5472002 0.19078675
vn 0.5280013 -0.22729456 -0.78733224
vn 0.63398504 -0.3900836 -0.58263236
vn 0.77658635 0.5947912 0.0989041
vn 0.9446643 -0.15581739 -0.21497181
vn -0.4514285 -0.062414847 -0.864806
vn 0.09166238 -0.037411362 -0.96051824
vn 0.63463527 0.7704176 0.033112347
vn 0.13964747 0.08279705 -0.9804058
vn 0.79882014 0.5472002 0.19078675
vn 0.5280013 -0.22729456 -0.78733224
vn -0.91857517 -0.021580549 0.09395194
vn 0.33017072 0.4432177 0.80604094
vn -0.08020316 0.2654329 0.8606508
vn -0.7755084 0.5189066 0.29372922
vn 0.65513945 0.5522939 0.48000622
vn -0.4344877 0.88143677 0.022111801
vn 0.86606425 0.2472246 0.42464244
vn -0.39295527 0.909021 -0.09990332
vn 0.626871 -0.035574853 0.77831054
vn -0.67942023 0.6950934 0.23501727
vn 0.3853008 -0.42916134 0.81692326
vn -0.9137759 0.2974716 0.27663022
vn 0.9446643 -0.15581739 -0.21497181
vn -0.6210641 -0.38400277 -0.67695516
vn -0.4514285 -0.062414847 -0.864806
vn 0.81033516 -0.5753267 -0.07127305
vn -0.63369364 -0.30934748 -0.70304465
vn 0.4254886 -0.8613775 -0.2615515
vn -0.3633157 0.012127206 -0.93158704
vn 0.6563748 -0.55823225 -0.5074924
vn -0.9137759 0.2974716 0.27663022
vn 0.29862458 -0.7454042 0.5959829
vn 0.3853008 -0.42916134 0.81692326
vn -0.99819446 -0.020033926 0.05662868
vn 0.30277926 -0.9118856 0.27710825
vn -0.9464623 -0.21312732 -0.24245852
vn 0.6563748 -0.55823225 -0.5074924
vn -0.19993705 0.42787284 -0.88144743
vn -0.3633157 0.012127206 -0.93158704
vn 0.88478553 -0.17886204 -0.4303057
vn -0.07549918 0.8012606 -0.59353256
vn 0.96166766 0.22112569 -0.16216925
vn -0.19836167 0.9771769 -0.0760091
vn 0.84690815 0.3925094 0.3587246
vn 0.4835167 0.17859523 0.85692203
vn 0.19077656 -0.42089248 0.8868221
vn -0.8793689 0.17768873 0.4417431
vn -0.5125744 0.7357547 0.4426424
vn 0.84690815 0.3925094 0.3587246
vn -0.19836167 0.9771769 -0.0760091
vn -0.9464623 -0.21312732 -0.24245852
vn 0.6956198 -0.7161671 -0.056723986
vn 0.30277926 -0.9118856 0.27710825
vn -0.74815536 0.091403395 -0.657198
vn 0.89068365 -0.31887555 -0.3240385
vn -0.36688513 0.38454 -0.84706795
vn 0.19077656 -0.42089248 0.8868221
vn -0.9604704 -0.2358849 0.14783543
vn -0.8793689 0.17768873 0.4417431
vn 0.071997255 -0.8133911 0.5772441
vn -0.7330226 -0.4179069 -0.536686
vn 0.23945907 -0.9618603 -0.13222583
vn -0.36688513 0.38454 -0.84706795
vn 0.9924525 -0.040064365 -0.11590156
vn 0.89068365 -0.31887555 -0.3240385
vn -0.3087036 0.6877316 -0.65705925
vn 0.88201857 -0.018317163 0.47085863
vn -0.5825982 0.80090994 -0.13828309
vn 0.23945907 -0.9618603 -0.13222583
vn 0.8108561 -0.25772184 -0.5254445
vn -0.1804674 0.29677102 -0.93774104
vn -0.7330226 -0.4179069 -0.536686
vn -0.5825982 0.80090994 -0.13828309
vn -0.768431 0.6037866 0.21202715
vn 0.6017972 -0.16264719 0.78191173
vn 0.88201857 -0.018317163 0.47085863
vn 0.6684842 0.6047607 0.29100648
vn 0.63398504 -0.3900836 -0.58263236
vn 0.28774178 -0.8391774 0.1579037
vn 0.25307834 0.537608 -0.6703584
vn -0.73671955 -0.4883572 -0.39312896
vn -0.68871635 0.45671996 0.49187687
vn -0.31579024 0.7295638 -0.52008057
vn -0.15105678 -0.89642996 0.23837344
vn -0.99011225 -0.12009929 -0.058759257
vn -0.19557041 -0.7979963 -0.5700477
vn -0.06135472 -0.0076363683 -0.939593
vn -0.86459994 -0.40401098 0.2987347
vn 0.31880832 0.15122473 0.9187393
vn 0.09287513 -0.20210584 0.9749503
vn -0.32252264 -0.94262505 -0.08406958
vn -0.99011225 -0.12009929 -0.058759257
vn -0.06135472 -0.0076363683 -0.939593
vn -0.3150257 0.047098994 -0.9353715
vn 0.28774178 -0.8391774 0.1579037
vn 0.25307834 0.537608 -0.6703584
vn -0.19557041 -0.7979963 -0.5700477
vn -0.86459994 -0.40401098 0.2987347
vn 0.09287513 -0.20210584 0.9749503
vn 0.8334554 -0.5431454 0.101714164
vn -0.06135472 -0.0076363683 -0.939593
vn -0.19557041 -0.7979963 -0.5700477
vn 0.8334554 -0.5431454 0.101714164
vn 0.7965294 0.48273796 -0.27423596
vn -0.31579024 0.7295638 -0.52008057
vn 0.6144849 -0.73184454 -0.24324788
vn -0.15105678 -0.89642996 0.23837344
vn 0.40067336 0.3326621 -0.83013797
vn 0.8009035 -0.35477796 -0.45761544
vn -0.0584872 0.27655205 -0.91024673
vn 0.72579443 -0.6169036 -0.30438942
vn -0.29607725 -0.57311034 -0.76412255
vn 0.72579443 -0.6169036 -0.30438942
vn -0.29607725 -0.57311034 -0.76412255
vn -0.8524297 -0.4287413 0.29924095
vn 0.3027907 -0.53280836 0.7902111
vn 0.502549 0.74119306 -0.44505954
vn 0.9368768 -0.34794924 0.034550935
vn 0.71153927 0.7022305 0.02417735
vn 0.7640513 -0.33168423 -0.55336386
vn 0.4867747 -0.30614176 -0.8181248
vn 0.17371792 0.663836 -0.7274231
vn -0.08752072 0.835019 0.54321617
vn -0.79377913 0.4415058 0.41831553
vn -0.4377145 0.8621008 0.25532064
vn -0.09786856 0.4245461 0.9001015
vn 0.32427278 0.8473201 0.42058998
vn 0.44749826 0.4161818 0.79154176
vn 0.71153927 0.7022305 0.02417735
vn 0.9368768 -0.34794924 0.034550935
vn 0.6092898 0.018652678 0.79272854
vn 0.9349159 -0.32809997 -0.13521561
vn -0.26669642 -0.34378475 0.9003809
vn 0.3551375 -0.09080343 0.9303938
vn -0.6757838 -0.05218497 0.7352508
vn -0.16948964 0.07708597 0.98251283
vn -0.88259065 0.33957055 0.32515556
vn 0.2336436 -0.11057579 0.9660147
vn -0.32095975 -0.31336394 0.8937498
vn -0.6939032 -0.14198184 0.7059321
vn 0.66822517 -0.17853908 0.7222185
vn -0.9438191 -0.22004768 0.24654654
vn 0.38974217 -0.43440163 0.81203264
vn 0.78274363 -0.24238741 -0.57320267
vn -0.41946387 0.035035256 -0.907096
vn -0.40967146 0.15060204 -0.899716
vn 0.4867747 -0.30614176 -0.8181248
vn -0.42618614 -0.6755806 -0.60123205
vn 0.9349159 -0.32809997 -0.13521561
vn 0.9368768 -0.34794924 0.034550935
vn 0.24395594 -0.8281078 -0.5042608
vn 0.3551375 -0.09080343 0.9303938
vn -0.26669642 -0.34378475 0.9003809
vn 0.2243797 -0.9699843 0.0937258
vn 0.4867747 -0.30614176 -0.8181248
vn 0.7640513 -0.33168423 -0.55336386
vn -0.31263095 -0.7885616 -0.5294081
vn 0.7450266 -0.036312044 -0.66591096
vn -0.71175575 -0.034272812 -0.7014942
vn -0.6939032 -0.14198184 0.7059321
vn 0.66822517 -0.17853908 0.7222185
vn 0.39798358 -0.8083485 -0.43379968
vn 0.2336436 -0.11057579 0.9660147
vn -0.32095975 -0.31336394 0.8937498
vn -0.18035454 -0.8281267 -0.5307339
vn 0.34808588 -0.80889934 -0.4738338
vn -0.9705341 -0.099217296 -0.2195905
vn -0.6757838 -0.05218497 0.7352508
vn -0.16948964 0.07708597 0.98251283
vn -0.76771355 -0.40660155 -0.495269
vn 0.86435425 -0.39006862 -0.31739372
vn -0.5199987 -0.3270116 -0.7890913
vn 0.78274363 -0.24238741 -0.57320267
vn 0.38974217 -0.43440163 0.81203264
vn 0.2243797 -0.9699843 0.0937258
vn 0.4867747 -0.30614176 -0.8181248
vn -0.5199987 -0.3270116 -0.7890913
vn -0.92467237 0.21770442 0.31238806
vn 0.2815026 0.16104646 0.9459497
vn 0.86435425 -0.39006862 -0.31739372
vn 0.34808588 -0.80889934 -0.4738338
vn -0.16948964 0.07708597 0.98251283
vn -0.7332491 -0.33913073 0.5891392
vn 0.6185772 -0.31958807 0.7176126
vn 0.7104046 0.02969858 -0.7029373
vn -0.7360699 0.027724862 -0.6760761
vn -0.8832713 -0.07356241 0.46305627
vn 0.5105577 -0.18655851 0.83936125
vn 0.8324578 -0.19808456 -0.5174718
vn -0.47924808 -0.052059177 -0.87613446
vn -0.16948964 0.07708597 0.98251283
vn 0.2815026 0.16104646 0.9459497
vn -0.92467237 0.21770442 0.31238806
vn -0.88259065 0.33957055 0.32515556
vn -0.88259065 0.33957055 0.32515556
vn -0.92467237 0.21770442 0.31238806
vn -0.5199987 -0.3270116 -0.7890913
vn -0.76771355 -0.40660155 -0.495269
vn -0.79377913 0.4415058 0.41831553
vn -0.9705341 -0.099217296 -0.2195905
vn -0.4377145 0.8621008 0.25532064
vn -0.6610239 0.66165346 -0.3539245
vn 0.32427278 0.8473201 0.42058998
vn -0.08752072 0.835019 0.54321617
vn -0.40967146 0.15060204 -0.899716
vn -0.41946387 0.035035256 -0.907096
vn -0.9438191 -0.22004768 0.24654654
vn -0.24582872 0.70716023 -0.6629429
vn 0.4867747 -0.30614176 -0.8181248
vn 0.17371792 0.663836 -0.7274231
vn 0.502549 0.74119306 -0.44505954
vn 0.71153927 0.7022305 0.02417735
vn -0.6757838 -0.05218497 0.7352508
vn -0.8832713 -0.07356241 0.46305627
vn -0.47924808 -0.052059177 -0.87613446
vn -0.18035454 -0.8281267 -0.5307339
vn 0.39798358 -0.8083485 -0.43379968
vn 0.8324578 -0.19808456 -0.5174718
vn 0.5105577 -0.18655851 0.83936125
vn 0.2336436 -0.11057579 0.9660147
vn -0.18035454 -0.8281267 -0.5307339
vn -0.47924808 -0.052059177 -0.87613446
vn 0.8324578 -0.19808456 -0.5174718
vn 0.39798358 -0.8083485 -0.43379968
vn 0.2336436 -0.11057579 0.9660147
vn 0.5105577 -0.18655851 0.83936125
vn -0.8832713 -0.07356241 0.46305627
vn -0.6757838 -0.05218497 0.7352508
vn 0.24395594 -0.8281078 -0.5042608
vn 0.7450266 -0.036312044 -0.66591096
vn 0.66822517 -0.17853908 0.7222185
vn 0.3551375 -0.09080343 0.9303938
vn -0.32095975 -0.31336394 0.8937498
vn -0.6939032 -0.14198184 0.7059321
vn -0.71175575 -0.034272812 -0.7014942
vn -0.31263095 -0.7885616 -0.5294081
vn 0.6092898 0.018652678 0.79272854
vn -0.7332491 -0.33913073 0.5891392
vn -0.26669642 -0.34378475 0.9003809
vn 0.6185772 -0.31958807 0.7176126
vn 0.9349159 -0.32809997 -0.13521561
vn 0.7104046 0.02969858 -0.7029373
vn -0.26669642 -0.34378475 0.9003809
vn -0.7332491 -0.33913073 0.5891392
vn -0.7360699 0.027724862 -0.6760761
vn -0.42618614 -0.6755806 -0.60123205
vn 0.7104046 0.02969858 -0.7029373
vn 0.9349159 -0.32809997 -0.13521561
vn 0.2243797 -0.9699843 0.0937258
vn 0.38974217 -0.43440163 0.81203264
vn -0.9438191 -0.22004768 0.24654654
vn -0.9705341 -0.099217296 -0.2195905
vn 0.35927412 0.91091675 0.20286217
vn 0.9492514 0.035646364 -0.31249276
vn 0.8118643 0.5021793 0.29781297
vn 0.5164702 0.7576946 -0.39894554
vn -0.30063388 0.6671307 -0.68158364
vn 0.093865946 0.75256526 -0.6517938
vn -0.6040813 0.6995524 -0.38172334
vn -0.7722928 0.62680155 0.10336436
vn 0.062789455 0.8463528 0.528909
vn -0.3577241 0.81426084 0.45717967
vn 0.093865946 0.75256526 -0.6517938
vn -0.30063388 0.6671307 -0.68158364
vn -0.5631807 -0.32328442 -0.7604704
vn 0.28926528 0.2212683 -0.93132496
vn 0.5164702 0.7576946 -0.39894554
vn -0.6272012 -0.6260639 -0.46331736
vn 0.9492514 0.035646364 -0.31249276
vn 0.2991336 -0.35082284 -0.88737965
vn 0.77847266 -0.6271531 -0.025683537
vn -0.6040813 0.6995524 -0.38172334
vn -0.7722928 0.62680155 0.10336436
vn -0.88888186 -0.43938038 0.12974674
vn -0.7754104 -0.3918104 -0.49520087
vn -0.5631807 -0.32328442 -0.7604704
vn -0.30063388 0.6671307 -0.68158364
vn 0.062789455 0.8463528 0.528909
vn 0.35927412 0.91091675 0.20286217
vn 0.8118643 0.5021793 0.29781297
vn 0.15406358 0.4981076 0.8533191
vn 0.22124824 0.15628016 0.9626143
vn 0.7360848 0.07695028 0.67250144
vn -0.20603627 0.06224501 0.976563
vn -0.3577241 0.81426084 0.45717967
vn 0.31366885 -0.24529487 0.91730195
vn -0.42132002 0.31186906 0.8516029
vn -0.7722928 0.62680155 0.10336436
vn -0.88888186 -0.43938038 0.12974674
vn -0.25773603 -0.17762156 0.949749
vn 0.66511375 -0.5846052 0.46272776
vn -0.42008126 -0.70907354 0.56490797
vn 0.2891985 -0.44114074 0.8495643
vn -0.53715515 -0.0642153 0.8410357
vn -0.9186115 -0.39031127 -0.06172952
vn 0.66127527 -0.6928254 0.28321996
vn -0.42435908 -0.705611 0.5650065
vn 0.77847266 -0.6271531 -0.025683537
vn 0.2991336 -0.35082284 -0.88737965
vn -0.6272012 -0.6260639 -0.46331736
vn -0.17508836 -0.80502415 0.5668161
vn 0.8118643 0.5021793 0.29781297
vn 0.9492514 0.035646364 -0.31249276
vn 0.73144466 -0.36044192 -0.578853
vn 0.9286142 0.32929945 0.17099154
vn 0.502627 -0.6850211 -0.5273636
vn 0.22124824 0.15628016 0.9626143
vn 0.9063613 -0.24031591 0.34750244
vn -0.019062689 -0.42479038 0.90509117
vn 0.73144466 -0.36044192 -0.578853
vn 0.9492514 0.035646364 -0.31249276
vn -0.13408168 -0.98357177 0.12086716
vn -0.33999524 -0.8444322 -0.4139295
vn -0.88888186 -0.43938038 0.12974674
vn -0.5631807 -0.32328442 -0.7604704
vn -0.7754104 -0.3918104 -0.49520087
vn 0.2151131 -0.8119121 -0.5427017
vn 0.7360848 0.07695028 0.67250144
vn 0.22124824 0.15628016 0.9626143
vn -0.35078484 -0.8492324 -0.39355743
vn 0.3180517 -0.76408553 -0.5590467
vn -0.20603627 0.06224501 0.976563
vn 0.31366885 -0.24529487 0.91730195
vn -0.22675435 -0.8463708 -0.47434485
vn -0.9186115 -0.39031127 -0.06172952
vn 0.39351547 -0.6484401 -0.65014267
vn -0.25773603 -0.17762156 0.949749
vn 0.2891985 -0.44114074 0.8495643
vn -0.6272012 -0.6260639 -0.46331736
vn -0.5631807 -0.32328442 -0.7604704
vn -0.13408168 -0.98357177 0.12086716
vn -0.17508836 -0.80502415 0.5668161
vn 0.502627 -0.6850211 -0.5273636
vn -0.59290534 -0.80509055 -0.017110169
vn -0.019062689 -0.42479038 0.90509117
vn 0.9063613 -0.24031591 0.34750244
vn 0.66127527 -0.6928254 0.28321996
vn 0.559712 -0.4309513 -0.7077449
vn -0.54722506 -0.60887295 -0.5713162
vn -0.42435908 -0.705611 0.5650065
vn 0.66511375 -0.5846052 0.46272776
vn 0.563417 -0.46750283 -0.6811254
vn -0.6390657 -0.55382127 -0.5313135
vn -0.42008126 -0.70907354 0.56490797
vn 0.85045415 -0.4057502 0.33480594
vn 0.4045044 -0.6097716 -0.6815828
vn -0.6301896 -0.69807446 -0.33993167
vn -0.26233497 -0.6279026 0.73274744
vn -0.33999524 -0.8444322 -0.4139295
vn 0.22124824 0.15628016 0.9626143
vn -0.019062689 -0.42479038 0.90509117
vn -0.59290534 -0.80509055 -0.017110169
vn 0.73144466 -0.36044192 -0.578853
vn -0.33999524 -0.8444322 -0.4139295
vn -0.59290534 -0.80509055 -0.017110169
vn 0.502627 -0.6850211 -0.5273636
vn 0.7360848 0.07695028 0.67250144
vn 0.2151131 -0.8119121 -0.5427017
vn 0.4045044 -0.6097716 -0.6815828
vn 0.85045415 -0.4057502 0.33480594
vn -0.20603627 0.06224501 0.976563
vn -0.26233497 -0.6279026 0.73274744
vn -0.35078484 -0.8492324 -0.39355743
vn -0.20603627 0.06224501 0.976563
vn -0.26233497 -0.6279026 0.73274744
vn -0.6301896 -0.69807446 -0.33993167
vn 0.2151131 -0.8119121 -0.5427017
vn -0.35078484 -0.8492324 -0.39355743
vn -0.6301896 -0.69807446 -0.33993167
vn 0.4045044 -0.6097716 -0.6815828
vn -0.22675435 -0.8463708 -0.47434485
vn -0.25773603 -0.17762156 0.949749
vn -0.42008126 -0.70907354 0.56490797
vn -0.6390657 -0.55382127 -0.5313135
vn 0.31366885 -0.24529487 0.91730195
vn 0.3180517 -0.76408553 -0.5590467
vn 0.563417 -0.46750283 -0.6811254
vn 0.66511375 -0.5846052 0.46272776
vn 0.3180517 -0.76408553 -0.5590467
vn -0.22675435 -0.8463708 -0.47434485
vn -0.6390657 -0.55382127 -0.5313135
vn 0.563417 -0.46750283 -0.6811254
vn 0.2891985 -0.44114074 0.8495643
vn 0.39351547 -0.6484401 -0.65014267
vn 0.559712 -0.4309513 -0.7077449
vn 0.66127527 -0.6928254 0.28321996
vn 0.39351547 -0.6484401 -0.65014267
vn -0.9186115 -0.39031127 -0.06172952
vn -0.54722506 -0.60887295 -0.5713162
vn 0.559712 -0.4309513 -0.7077449
vn -0.9186115 -0.39031127 -0.06172952
vn -0.53715515 -0.0642153 0.8410357
vn -0.42435908 -0.705611 0.5650065
vn -0.54722506 -0.60887295 -0.5713162
vn -0.13408168 -0.98357177 0.12086716
vn 0.9492514 0.035646364 -0.31249276
vn 0.77847266 -0.6271531 -0.025683537
vn -0.17508836 -0.80502415 0.5668161
vn 0.037812844 0.8577649 -0.5126497
vn 0.6441334 0.75403124 -0.12856576
vn 0.022939995 0.99898684 -0.038716912
vn 0.42250812 0.7060678 -0.5682916
vn 0.04335083 0.4390961 -0.89739364
vn -0.34774393 0.7226269 -0.59739804
vn 0.9000492 0.18939525 -0.3924806
vn 0.9990563 -0.021478355 0.037752733
vn 0.7083468 0.619924 0.3375486
vn 0.70453197 -0.6502991 -0.284158
vn 0.640775 -0.364165 -0.67586327
vn 0.58099234 0.35639778 -0.73172975
vn 0.42042807 0.013586819 -0.9072242
vn 0.018190607 -0.582381 -0.81271255
vn 0.03487198 -0.12155077 -0.99197257
vn -0.34982345 0.0301463 -0.93633044
vn -0.03487082 0.12155083 0.99197245
vn 0.34982377 -0.03014639 0.9363303
vn -0.04335092 -0.43909612 0.89739364
vn -0.42042854 -0.013586611 0.90722394
vn -0.5809933 -0.35639757 0.73172927
vn -0.9000493 -0.1893951 0.39248028
vn -0.6407751 0.36416504 0.67586315
vn -0.9990563 0.021478333 -0.037752673
vn -0.7045321 0.6502989 0.28415823
vn -0.7083469 -0.6199239 -0.33754843
vn -0.64413345 -0.7540312 0.12856564
vn -0.42250806 -0.7060679 0.56829137
vn -0.022939883 -0.99898684 0.038716942
vn -0.03781244 -0.8577651 0.51264936
vn 0.34774372 -0.72262704 0.597398
vn 0.022939995 0.99898684 -0.038716912
vn 0.6441334 0.75403124 -0.12856576
vn 0.7083468 0.619924 0.3375486
vn 0.002697453 0.89818335 0.4396129
vn 0.60300255 0.33742538 0.7228639
vn -0.018190742 0.5823811 0.8127124
vn 0.34982377 -0.03014639 0.9363303
vn -0.03487082 0.12155083 0.99197245
vn -0.6407751 0.36416504 0.67586315
vn -0.42042854 -0.013586611 0.90722394
vn -0.7045321 0.6502989 0.28415823
vn -0.5996448 0.7807707 -0.17556605
vn -0.34774393 0.7226269 -0.59739804
vn 0.037812844 0.8577649 -0.5126497
vn 0.9990563 -0.021478355 0.037752733
vn 0.70453197 -0.6502991 -0.284158
vn 0.59964454 -0.7807708 0.1755662
vn 0.8589185 -0.22721067 0.45894915
vn 0.7083468 0.619924 0.3375486
vn 0.34774372 -0.72262704 0.597398
vn 0.60300255 0.33742538 0.7228639
vn 0.50830764 -0.3798163 0.7728927
vn -0.04335092 -0.43909612 0.89739364
vn 0.34982377 -0.03014639 0.9363303
vn 0.59964454 -0.7807708 0.1755662
vn -0.03781244 -0.8577651 0.51264936
vn 0.34774372 -0.72262704 0.597398
vn -0.022939883 -0.99898684 0.038716942
vn 0.70453197 -0.6502991 -0.284158
vn -0.002697453 -0.89818335 -0.4396129
vn 0.640775 -0.364165 -0.67586327
vn -0.64413345 -0.7540312 0.12856564
vn 0.018190607 -0.582381 -0.81271255
vn -0.7083469 -0.6199239 -0.33754843
vn -0.6030031 -0.33742538 -0.72286344
vn 0.03487198 -0.12155077 -0.99197257
vn -0.6030031 -0.33742538 -0.72286344
vn 0.018190607 -0.582381 -0.81271255
vn -0.34982345 0.0301463 -0.93633044
vn -0.85891885 0.22721046 -0.4589487
vn -0.9990563 0.021478333 -0.037752673
vn -0.7083469 -0.6199239 -0.33754843
vn -0.7045321 0.6502989 0.28415823
vn -0.5996448 0.7807707 -0.17556605
vn -0.5083085 0.3798161 -0.77289224
vn 0.04335083 0.4390961 -0.89739364
vn -0.34774393 0.7226269 -0.59739804
vn 0.054015465 -0.9815593 -0.18336815
vn 0.054015465 -0.9815593 -0.18336815
vn 0.054015465 -0.9815593 -0.18336815
vn 0.054015465 -0.9815593 -0.18336815
vn 0.054015465 -0.9815593 -0.18336815
vn 0.054015465 -0.9815593 -0.18336815
vn 0.054015465 -0.9815593 -0.18336815
vn 0.054015465 -0.9815593 -0.18336815
vn 0.054015465 -0.9815593 -0.18336815
vn 0.054015465 -0.9815593 -0.18336815
vn 0.054015465 -0.9815593 -0.18336815
vn 0.054015465 -0.9815593 -0.18336815
vn -0.40169173 -0.89368016 -0.19994897
vn -0.40169173 -0.89368016 -0.19994897
vn -0.40169173 -0.89368016 -0.19994897
vn -0.40169173 -0.89368016 -0.19994897
vn -0.40169173 -0.89368016 -0.19994897
vn -0.40169173 -0.89368016 -0.19994897
vn -0.40169173 -0.89368016 -0.19994897
vn -0.40169173 -0.89368016 -0.19994897
vn -0.40169173 -0.89368016 -0.19994897
vn -0.40169173 -0.89368016 -0.19994897
vn -0.40169173 -0.89368016 -0.19994897
vn -0.40169173 -0.89368016 -0.19994897
vn -0.066917256 -0.17479232 -0.9823288
vn 0.09990169 0.43717307 -0.8938117
vn -0.063739754 0.88330424 -0.4644469
vn -0.43390846 -0.5819838 -0.6877633
vn -0.4294514 0.9022606 0.038695604
vn -0.80178374 -0.584233 -0.12575594
vn -0.7986423 0.46160316 0.38612595
vn -0.946713 -0.13929209 0.2904
vn -0.946713 -0.13929209 0.2904
vn -0.7986423 0.46160316 0.38612595
vn -0.41168034 0.41254008 0.812607
vn -0.6315545 -0.33931595 0.6971396
vn -0.80178374 -0.584233 -0.12575594
vn -0.659861 0.6045195 0.44625092
vn -0.41560078 -0.892805 0.17371024
vn -0.9922418 -0.052237615 0.112816304
vn -0.6638391 -0.7200618 -0.20206058
vn -0.9922418 -0.052237615 0.112816304
vn -0.659861 0.6045195 0.44625092
vn -0.6630207 0.73922217 0.11812782
vn -0.9101232 0.18435068 -0.37106672
vn -0.6638391 -0.7200618 -0.20206058
vn -0.7274688 -0.29987365 0.6171427
vn -0.6668752 -0.54356 -0.50972533
vn -0.43390846 -0.5819838 -0.6877633
vn -0.80178374 -0.584233 -0.12575594
vn -0.41560078 -0.892805 0.17371024
vn 0.11737278 -0.9279011 -0.35386902
vn -0.066917256 -0.17479232 -0.9823288
vn -0.6638391 -0.7200618 -0.20206058
vn 0.6600596 -0.5136038 -0.5482085
vn 0.042431805 -0.9601073 -0.2763939
vn -0.6668752 -0.54356 -0.50972533
vn 0.6644502 -0.7452101 -0.056282252
vn -0.09888008 -0.9680009 -0.23064496
vn -0.7274688 -0.29987365 0.6171427
vn 0.42338338 -0.8673608 0.2615949
vn 0.09990169 0.43717307 -0.8938117
vn -0.066917256 -0.17479232 -0.9823288
vn 0.6600596 -0.5136038 -0.5482085
vn 0.9185608 0.17154172 -0.35611725
vn -0.063739754 0.88330424 -0.4644469
vn 0.6638388 0.7448039 0.06771466
vn 0.9185608 0.17154172 -0.35611725
vn 0.6600596 -0.5136038 -0.5482085
vn 0.6644502 -0.7452101 -0.056282252
vn 0.93911207 -0.15332764 0.30750495
vn 0.6638388 0.7448039 0.06771466
vn 0.42338338 -0.8673608 0.2615949
vn 0.6681843 0.49838853 0.5523936
vn 0.63064784 -0.34269834 0.6963054
vn -0.7274688 -0.29987365 0.6171427
vn 0.4269576 0.32346222 0.84444034
vn -0.4294514 0.9022606 0.038695604
vn -0.063739754 0.88330424 -0.4644469
vn 0.6638388 0.7448039 0.06771466
vn 0.12270616 0.84812015 0.5153985
vn -0.7986423 0.46160316 0.38612595
vn 0.6681843 0.49838853 0.5523936
vn -0.41168034 0.41254008 0.812607
vn 0.04773859 0.8070581 0.5885392
vn 0.4269576 0.32346222 0.84444034
vn -0.659861 0.6045195 0.44625092
vn -0.0936404 0.77645755 0.62317365
vn -0.7274688 -0.29987365 0.6171427
vn -0.6630207 0.73922217 0.11812782
vn 0.060943767 -0.17500487 -0.98267967
vn 0.42819282 -0.5834148 -0.69012904
vn 0.79913783 -0.5868895 -0.13015161
vn 0.94782543 -0.14243644 0.2851994
vn -0.103356734 0.43751046 -0.8932537
vn 0.064120084 0.8830924 -0.46479714
vn 0.8022781 0.45894697 0.38172987
vn 0.43264997 0.9008298 0.036329687
vn 0.94782543 -0.14243644 0.2851994
vn 0.79913783 -0.5868895 -0.13015161
vn 0.41358173 -0.8941815 0.1714342
vn 0.6342434 -0.34141645 0.6936643
vn 0.8022781 0.45894697 0.38172987
vn 0.66032636 -0.72225946 -0.205695
vn 0.41750187 0.41116416 0.81033105
vn 0.9926675 -0.055531584 0.10736686
vn 0.6643038 0.6023215 0.44261652
vn 0.9926675 -0.055531584 0.10736686
vn 0.66032636 -0.72225946 -0.205695
vn 0.6622602 -0.54576427 -0.51337403
vn 0.9086787 0.18133259 -0.37606055
vn 0.6643038 0.6023215 0.44261652
vn 0.7298463 -0.3022924 0.61314243
vn 0.6661127 0.73701346 0.11447756
vn 0.43264997 0.9008298 0.036329687
vn 0.8022781 0.45894697 0.38172987
vn 0.41750187 0.41116416 0.81033105
vn -0.117059216 0.8485179 0.5160567
vn 0.064120084 0.8830924 -0.46479714
vn 0.6643038 0.6023215 0.44261652
vn -0.6609819 0.747002 0.071351945
vn -0.041828148 0.8072066 0.5887854
vn 0.6661127 0.73701346 0.11447756
vn -0.663484 0.5005987 0.55604863
vn 0.09963925 0.7761376 0.62264174
vn 0.7298463 -0.3022924 0.61314243
vn -0.42124042 0.3248705 0.8467679
vn -0.103356734 0.43751046 -0.8932537
vn 0.064120084 0.8830924 -0.46479714
vn -0.6609819 0.747002 0.071351945
vn -0.91992754 0.17459308 -0.35107055
vn 0.060943767 -0.17500487 -0.98267967
vn -0.663484 0.5005987 0.55604863
vn -0.6647598 -0.5114057 -0.544572
vn -0.9379138 -0.15021199 0.3126567
vn -0.6672182 -0.7430009 -0.052627563
vn -0.9379138 -0.15021199 0.3126567
vn -0.663484 0.5005987 0.55604863
vn -0.42124042 0.3248705 0.8467679
vn -0.6279509 -0.340609 0.6997594
vn -0.6672182 -0.7430009 -0.052627563
vn 0.7298463 -0.3022924 0.61314243
vn -0.42481586 -0.86595404 0.2639226
vn 0.42819282 -0.5834148 -0.69012904
vn 0.060943767 -0.17500487 -0.98267967
vn -0.6647598 -0.5114057 -0.544572
vn -0.12239246 -0.9275032 -0.35321087
vn 0.79913783 -0.5868895 -0.13015161
vn -0.6672182 -0.7430009 -0.052627563
vn 0.41358173 -0.8941815 0.1714342
vn -0.047134086 -0.95995873 -0.27614796
vn -0.42481586 -0.86595404 0.2639226
vn 0.66032636 -0.72225946 -0.205695
vn 0.094401404 -0.96832085 -0.23117787
vn 0.7298463 -0.3022924 0.61314243
vn 0.6622602 -0.54576427 -0.51337403
g 0.0000_0
f 3/3/3 2/2/2 1/1/1
f 6/6/6 5/5/5 4/4/4
f 9/9/9 8/8/8 7/7/7
f 10/10/10 9/9/9 7/7/7
f 10/10/10 7/7/7 11/11/11
f 12/12/12 10/10/10 11/11/11
f 12/12/12 11/11/11 13/13/13
f 13/13/13 11/11/11 14/14/14
f 11/11/11 15/15/15 14/14/14
f 15/15/15 16/16/16 14/14/14
f 16/16/16 17/17/17 14/14/14
f 16/16/16 18/18/18 17/17/17
f 18/18/18 19/19/19 17/17/17
f 18/18/18 20/20/20 19/19/19
f 20/20/20 21/21/21 19/19/19
f 20/20/20 22/22/22 21/21/21
f 22/22/22 23/23/23 21/21/21
f 22/22/22 24/24/24 23/23/23
f 24/24/24 25/25/25 23/23/23
f 24/24/24 26/26/26 25/25/25
f 26/26/26 27/27/27 25/25/25
f 26/26/26 28/28/28 27/27/27
f 28/28/28 29/29/29 27/27/27
f 28/28/28 30/30/30 29/29/29
f 30/30/30 31/31/31 29/29/29
f 30/30/30 32/32/32 31/31/31
f 32/32/32 33/33/33 31/31/31
f 32/32/32 34/34/34 33/33/33
f 34/34/34 35/35/35 33/33/33
f 34/34/34 36/36/36 35/35/35
f 36/36/36 37/37/37 35/35/35
f 36/36/36 38/38/38 37/37/37
f 38/38/38 39/39/39 37/37/37
f 38/38/38 40/40/40 39/39/39
f 40/40/40 41/41/41 39/39/39
f 40/40/40 42/42/42 41/41/41
f 42/42/42 43/43/43 41/41/41
f 42/42/42 44/44/44 43/43/43
f 44/44/44 45/45/45 43/43/43
f 44/44/44 46/46/46 45/45/45
f 49/49/49 48/48/48 47/47/47
f 50/50/50 49/49/49 47/47/47
f 49/49/49 50/50/50 51/51/51
f 52/52/52 49/49/49 51/51/51
f 52/52/52 51/51/51 53/53/53
f 54/54/54 52/52/52 53/53/53
f 53/53/53 55/55/55 54/54/54
f 55/55/55 56/56/56 54/54/54
f 55/55/55 57/57/57 56/56/56
f 57/57/57 58/58/58 56/56/56
f 57/57/57 59/59/59 58/58/58
f 59/59/59 60/60/60 58/58/58
f 63/63/63 62/62/62 61/61/61
f 64/64/64 63/63/63 61/61/61
f 64/64/64 61/61/61 65/65/65
f 66/66/66 64/64/64 65/65/65
f 66/66/66 65/65/65 67/67/67
f 67/67/67 68/68/68 66/66/66
f 68/68/68 69/69/69 66/66/66
f 68/68/68 70/70/70 69/69/69
f 70/70/70 71/71/71 69/69/69
f 65/65/65 72/72/72 67/67/67
f 65/65/65 73/73/73 72/72/72
f 67/67/67 72/72/72 74/74/74
f 73/73/73 75/75/75 72/72/72
f 72/72/72 76/76/76 74/74/74
f 73/73/73 77/77/77 75/75/75
f 76/76/76 78/78/78 74/74/74
f 77/77/77 79/79/79 75/75/75
f 77/77/77 80/80/80 79/79/79
f 80/80/80 81/81/81 79/79/79
f 78/78/78 82/82/82 74/74/74
f 78/78/78 83/83/83 82/82/82
f 83/83/83 84/84/84 82/82/82
f 83/83/83 85/85/85 84/84/84
f 85/85/85 86/86/86 84/84/84
f 85/85/85 87/87/87 86/86/86
f 87/87/87 88/88/88 86/86/86
f 87/87/87 89/89/89 88/88/88
f 89/89/89 90/90/90 88/88/88
f 89/89/89 91/91/91 90/90/90
f 91/91/91 92/92/92 90/90/90
f 91/91/91 93/93/93 92/92/92
f 93/93/93 94/94/94 92/92/92
f 93/93/93 95/95/95 94/94/94
f 95/95/95 96/96/96 94/94/94
f 95/95/95 97/97/97 96/96/96
f 97/97/97 98/98/98 96/96/96
f 97/97/97 99/99/99 98/98/98
f 99/99/99 100/100/100 98/98/98
f 99/99/99 101/101/101 100/100/100
f 101/101/101 102/102/102 100/100/100
f 101/101/101 103/103/103 102/102/102
f 103/103/103 104/104/104 102/102/102
f 103/103/103 105/105/105 104/104/104
f 105/105/105 106/106/106 104/104/104
f 105/105/105 107/107/107 106/106/106
f 107/107/107 108/108/108 106/106/106
f 107/107/107 109/109/109 108/108/108
f 109/109/109 110/110/110 108/108/108
f 109/109/109 111/111/111 110/110/110
f 114/114/114 113/113/113 112/112/112
f 115/115/115 114/114/114 112/112/112
f 115/115/115 112/112/112 12/12/12
f 116/116/116 115/115/115 12/12/12
f 116/116/116 12/12/12 13/13/13
f 13/13/13 117/117/117 116/116/116
f 117/117/117 118/118/118 116/116/116
f 117/117/117 119/119/119 118/118/118
f 119/119/119 120/120/120 118/118/118
f 119/119/119 121/121/121 120/120/120
f 121/121/121 122/122/122 120/120/120
f 125/125/125 124/124/124 123/123/123
f 126/126/126 125/125/125 123/123/123
f 126/126/126 123/123/123 127/127/127
f 128/128/128 126/126/126 127/127/127
f 127/127/127 129/129/129 128/128/128
f 129/129/129 130/130/130 128/128/128
f 129/129/129 131/131/131 130/130/130
f 131/131/131 132/132/132 130/130/130
f 131/131/131 133/133/133 132/132/132
f 133/133/133 134/134/134 132/132/132
f 137/137/137 136/136/136 135/135/135
f 136/136/136 138/138/138 135/135/135
f 136/136/136 139/139/139 138/138/138
f 139/139/139 140/140/140 138/138/138
f 139/139/139 141/141/141 140/140/140
f 141/141/141 142/142/142 140/140/140
f 145/145/145 144/144/144 143/143/143
f 146/146/146 145/145/145 143/143/143
f 149/149/149 148/148/148 147/147/147
f 150/150/150 149/149/149 147/147/147
f 150/150/150 147/147/147 151/151/151
f 152/152/152 150/150/150 151/151/151
f 152/152/152 151/151/151 153/153/153
f 154/154/154 152/152/152 153/153/153
f 157/157/157 156/156/156 155/155/155
f 156/156/156 158/158/158 155/155/155
f 156/156/156 159/159/159 158/158/158
f 159/159/159 160/160/160 158/158/158
f 159/159/159 161/161/161 160/160/160
f 161/161/161 162/162/162 160/160/160
f 161/161/161 163/163/163 162/162/162
f 163/163/163 164/164/164 162/162/162
f 163/163/163 165/165/165 164/164/164
f 165/165/165 166/166/166 164/164/164
f 169/169/169 168/168/168 167/167/167
f 168/168/168 170/170/170 167/167/167
f 168/168/168 171/171/171 170/170/170
f 171/171/171 172/172/172 170/170/170
f 171/171/171 173/173/173 172/172/172
f 173/173/173 174/174/174 172/172/172
f 177/177/177 176/176/176 175/175/175
f 176/176/176 178/178/178 175/175/175
f 176/176/176 179/179/179 178/178/178
f 179/179/179 180/180/180 178/178/178
f 183/183/183 182/182/182 181/181/181
f 182/182/182 184/184/184 181/181/181
f 182/182/182 185/185/185 184/184/184
f 185/185/185 186/186/186 184/184/184
f 185/185/185 187/187/187 186/186/186
f 187/187/187 188/188/188 186/186/186
f 191/191/191 190/190/190 189/189/189
f 192/192/192 191/191/191 189/189/189
f 192/192/192 189/189/189 193/193/193
f 194/194/194 192/192/192 193/193/193
f 197/197/197 196/196/196 195/195/195
f 196/196/196 198/198/198 195/195/195
f 196/196/196 199/199/199 198/198/198
f 199/199/199 200/200/200 198/198/198
f 203/203/203 202/202/202 201/201/201
f 202/202/202 204/204/204 201/201/201
f 202/202/202 205/205/205 204/204/204
f 205/205/205 206/206/206 204/204/204
f 209/209/209 208/208/208 207/207/207
f 208/208/208 210/210/210 207/207/207
f 208/208/208 211/211/211 210/210/210
f 211/211/211 212/212/212 210/210/210
f 215/215/215 214/214/214 213/213/213
f 216/216/216 215/215/215 213/213/213
f 219/219/219 218/218/218 217/217/217
f 220/220/220 219/219/219 217/217/217
f 223/223/223 222/222/222 221/221/221
f 224/224/224 223/223/223 221/221/221
f 227/227/227 226/226/226 225/225/225
f 228/228/228 227/227/227 225/225/225
f 231/231/231 230/230/230 229/229/229
f 230/230/230 232/232/232 229/229/229
f 229/229/229 232/232/232 233/233/233
f 232/232/232 234/234/234 233/233/233
f 237/237/237 236/236/236 235/235/235
f 238/238/238 237/237/237 235/235/235
f 238/238/238 235/235/235 239/239/239
f 240/240/240 238/238/238 239/239/239
f 243/243/243 242/242/242 241/241/241
f 244/244/244 243/243/243 241/241/241
f 247/247/247 246/246/246 245/245/245
f 248/248/248 247/247/247 245/245/245
f 251/251/251 250/250/250 249/249/249
f 250/250/250 252/252/252 249/249/249
f 250/250/250 253/253/253 252/252/252
f 253/253/253 254/254/254 252/252/252
f 253/253/253 255/255/255 254/254/254
f 255/255/255 256/256/256 254/254/254
f 259/259/259 258/258/258 257/257/257
f 260/260/260 259/259/259 257/257/257
f 263/263/263 262/262/262 261/261/261
f 262/262/262 264/264/264 261/261/261
f 261/261/261 264/264/264 265/265/265
f 266/266/266 261/261/261 265/265/265
f 269/269/269 268/268/268 267/267/267
f 268/268/268 270/270/270 267/267/267
f 267/267/267 270/270/270 271/271/271
f 270/270/270 272/272/272 271/271/271
f 271/271/271 272/272/272 273/273/273
f 272/272/272 274/274/274 273/273/273
f 272/272/272 275/275/275 274/274/274
f 275/275/275 276/276/276 274/274/274
f 277/277/277 275/275/275 272/272/272
f 278/278/278 277/277/277 272/272/272
f 278/278/278 272/272/272 270/270/270
f 279/279/279 270/270/270 268/268/268
f 268/268/268 280/280/280 279/279/279
f 268/268/268 281/281/281 280/280/280
f 270/270/270 279/279/279 282/282/282
f 282/282/282 283/283/283 270/270/270
f 283/283/283 278/278/278 270/270/270
f 283/283/283 284/284/284 278/278/278
f 284/284/284 285/285/285 278/278/278
f 288/288/288 287/287/287 286/286/286
f 289/289/289 288/288/288 286/286/286
f 289/289/289 290/290/290 288/288/288
f 290/290/290 291/291/291 288/288/288
f 294/294/294 293/293/293 292/292/292
f 292/292/292 295/295/295 294/294/294
f 295/295/295 292/292/292 296/296/296
f 292/292/292 297/297/297 296/296/296
f 295/295/295 298/298/298 294/294/294
f 294/294/294 298/298/298 299/299/299
f 300/300/300 294/294/294 299/299/299
f 295/295/295 301/301/301 298/298/298
f 295/295/295 302/302/302 301/301/301
f 302/302/302 303/303/303 301/301/301
f 303/303/303 302/302/302 304/304/304
f 302/302/302 305/305/305 304/304/304
f 301/301/301 306/306/306 298/298/298
f 306/306/306 301/301/301 307/307/307
f 301/301/301 308/308/308 307/307/307
f 306/306/306 309/309/309 298/298/298
f 309/309/309 310/310/310 298/298/298
f 310/310/310 311/311/311 298/298/298
f 310/310/310 309/309/309 312/312/312
f 313/313/313 310/310/310 312/312/312
f 310/310/310 314/314/314 311/311/311
f 310/310/310 315/315/315 314/314/314
f 315/315/315 316/316/316 314/314/314
f 319/319/319 318/318/318 317/317/317
f 320/320/320 319/319/319 317/317/317
f 323/323/323 322/322/322 321/321/321
f 324/324/324 323/323/323 321/321/321
f 323/323/323 324/324/324 325/325/325
f 326/326/326 323/323/323 325/325/325
f 329/329/329 328/328/328 327/327/327
f 330/330/330 329/329/329 327/327/327
f 333/333/333 332/332/332 331/331/331
f 334/334/334 333/333/333 331/331/331
f 337/337/337 336/336/336 335/335/335
f 338/338/338 337/337/337 335/335/335
f 341/341/341 340/340/340 339/339/339
f 342/342/342 341/341/341 339/339/339
f 342/342/342 339/339/339 343/343/343
f 344/344/344 342/342/342 343/343/343
f 344/344/344 343/343/343 345/345/345
f 346/346/346 344/344/344 345/345/345
f 346/346/346 345/345/345 347/347/347
f 345/345/345 348/348/348 347/347/347
f 349/349/349 344/344/344 346/346/346
f 349/349/349 350/350/350 344/344/344
f 350/350/350 351/351/351 344/344/344
f 352/352/352 349/349/349 346/346/346
f 352/352/352 346/346/346 347/347/347
f 353/353/353 349/349/349 352/352/352
f 354/354/354 353/353/353 352/352/352
f 354/354/354 352/352/352 347/347/347
f 355/355/355 354/354/354 347/347/347
f 347/347/347 356/356/356 355/355/355
f 359/359/359 358/358/358 357/357/357
f 360/360/360 359/359/359 357/357/357
f 363/363/363 362/362/362 361/361/361
f 364/364/364 363/363/363 361/361/361
f 367/367/367 366/366/366 365/365/365
f 368/368/368 367/367/367 365/365/365
f 371/371/371 370/370/370 369/369/369
f 372/372/372 371/371/371 369/369/369
f 375/375/375 374/374/374 373/373/373
f 376/376/376 375/375/375 373/373/373
f 379/379/379 378/378/378 377/377/377
f 380/380/380 379/379/379 377/377/377
f 383/383/383 382/382/382 381/381/381
f 382/382/382 384/384/384 381/381/381
f 381/381/381 384/384/384 385/385/385
f 384/384/384 386/386/386 385/385/385
f 389/389/389 388/388/388 387/387/387
f 390/390/390 389/389/389 387/387/387
f 391/391/391 389/389/389 390/390/390
f 392/392/392 391/391/391 390/390/390
f 395/395/395 394/394/394 393/393/393
f 396/396/396 395/395/395 393/393/393
f 399/399/399 398/398/398 397/397/397
f 398/398/398 400/400/400 397/397/397
f 401/401/401 397/397/397 400/400/400
f 400/400/400 402/402/402 401/401/401
f 401/401/401 403/403/403 397/397/397
f 403/403/403 404/404/404 397/397/397
f 404/404/404 405/405/405 397/397/397
f 404/404/404 406/406/406 405/405/405
f 409/409/409 408/408/408 407/407/407
f 410/410/410 409/409/409 407/407/407
f 410/410/410 407/407/407 411/411/411
f 409/409/409 410/410/410 412/412/412
f 413/413/413 410/410/410 411/411/411
f 410/410/410 414/414/414 412/412/412
f 414/414/414 410/410/410 413/413/413
f 415/415/415 414/414/414 413/413/413
f 418/418/418 417/417/417 416/416/416
f 419/419/419 418/418/418 416/416/416
f 419/419/419 416/416/416 420/420/420
f 416/416/416 421/421/421 420/420/420
f 424/424/424 423/423/423 422/422/422
f 425/425/425 424/424/424 422/422/422
f 426/426/426 424/424/424 425/425/425
f 427/427/427 426/426/426 425/425/425
f 428/428/428 427/427/427 425/425/425
f 425/425/425 422/422/422 429/429/429
f 425/425/425 430/430/430 428/428/428
f 431/431/431 425/425/425 429/429/429
f 431/431/431 429/429/429 432/432/432
f 433/433/433 431/431/431 432/432/432
f 434/434/434 430/430/430 425/425/425
f 431/431/431 434/434/434 425/425/425
f 435/435/435 430/430/430 434/434/434
f 436/436/436 435/435/435 434/434/434
f 431/431/431 437/437/437 434/434/434
f 438/438/438 431/431/431 433/433/433
f 438/438/438 437/437/437 431/431/431
f 439/439/439 438/438/438 433/433/433
f 440/440/440 437/437/437 438/438/438
f 441/441/441 440/440/440 438/438/438
f 444/444/444 443/443/443 442/442/442
f 445/445/445 444/444/444 442/442/442
f 448/448/448 447/447/447 446/446/446
f 449/449/449 448/448/448 446/446/446
f 450/450/450 448/448/448 449/449/449
f 451/451/451 449/449/449 446/446/446
f 452/452/452 450/450/450 449/449/449
f 452/452/452 449/449/449 451/451/451
f 453/453/453 452/452/452 451/451/451
f 456/456/456 455/455/455 454/454/454
f 454/454/454 457/457/457 456/456/456
f 457/457/457 458/458/458 456/456/456
f 456/456/456 458/458/458 459/459/459
f 458/458/458 460/460/460 459/459/459
f 457/457/457 461/461/461 458/458/458
f 461/461/461 457/457/457 462/462/462
f 457/457/457 463/463/463 462/462/462
f 461/461/461 464/464/464 458/458/458
f 464/464/464 465/465/465 458/458/458
f 465/465/465 464/464/464 466/466/466
f 467/467/467 465/465/465 466/466/466
f 465/465/465 468/468/468 458/458/458
f 468/468/468 469/469/469 458/458/458
f 468/468/468 470/470/470 469/469/469
f 470/470/470 468/468/468 471/471/471
f 472/472/472 470/470/470 471/471/471
f 475/475/475 474/474/474 473/473/473
f 476/476/476 475/475/475 473/473/473
f 479/479/479 478/478/478 477/477/477
f 480/480/480 479/479/479 477/477/477
f 483/483/483 482/482/482 481/481/481
f 484/484/484 483/483/483 481/481/481
f 487/487/487 486/486/486 485/485/485
f 488/488/488 487/487/487 485/485/485
f 491/491/491 490/490/490 489/489/489
f 492/492/492 491/491/491 489/489/489
f 495/495/495 494/494/494 493/493/493
f 496/496/496 495/495/495 493/493/493
f 499/499/499 498/498/498 497/497/497
f 500/500/500 499/499/499 497/497/497
f 503/503/503 502/502/502 501/501/501
f 504/504/504 503/503/503 501/501/501
f 504/504/504 501/501/501 505/505/505
f 506/506/506 504/504/504 505/505/505
f 509/509/509 508/508/508 507/507/507
f 510/510/510 509/509/509 507/507/507
f 513/513/513 512/512/512 511/511/511
f 514/514/514 513/513/513 511/511/511
f 517/517/517 516/516/516 515/515/515
f 518/518/518 517/517/517 515/515/515
f 521/521/521 520/520/520 519/519/519
f 522/522/522 521/521/521 519/519/519
f 525/525/525 524/524/524 523/523/523
f 526/526/526 525/525/525 523/523/523
f 529/529/529 528/528/528 527/527/527
f 530/530/530 529/529/529 527/527/527
f 533/533/533 532/532/532 531/531/531
f 534/534/534 533/533/533 531/531/531
f 537/537/537 536/536/536 535/535/535
f 538/538/538 537/537/537 535/535/535
f 541/541/541 540/540/540 539/539/539
f 542/542/542 541/541/541 539/539/539
f 545/545/545 544/544/544 543/543/543
f 544/544/544 546/546/546 543/543/543
f 543/543/543 546/546/546 547/547/547
f 548/548/548 543/543/543 547/547/547
f 544/544/544 549/549/549 546/546/546
f 550/550/550 549/549/549 544/544/544
f 551/551/551 550/550/550 544/544/544
f 550/550/550 552/552/552 549/549/549
f 552/552/552 553/553/553 549/549/549
f 549/549/549 554/554/554 546/546/546
f 549/549/549 553/553/553 554/554/554
f 546/546/546 554/554/554 547/547/547
f 553/553/553 555/555/555 554/554/554
f 554/554/554 555/555/555 547/547/547
f 553/553/553 556/556/556 555/555/555
f 556/556/556 557/557/557 555/555/555
f 555/555/555 557/557/557 547/547/547
f 557/557/557 558/558/558 547/547/547
f 561/561/561 560/560/560 559/559/559
f 561/561/561 559/559/559 562/562/562
f 561/561/561 562/562/562 563/563/563
f 563/563/563 562/562/562 564/564/564
f 562/562/562 565/565/565 564/564/564
f 564/564/564 565/565/565 566/566/566
f 565/565/565 567/567/567 566/566/566
f 564/564/564 566/566/566 568/568/568
f 569/569/569 564/564/564 568/568/568
f 563/563/563 564/564/564 569/569/569
f 570/570/570 563/563/563 569/569/569
f 561/561/561 563/563/563 570/570/570
f 570/570/570 569/569/569 571/571/571
f 572/572/572 570/570/570 571/571/571
f 561/561/561 570/570/570 572/572/572
f 561/561/561 572/572/572 573/573/573
f 576/576/576 575/575/575 574/574/574
f 577/577/577 576/576/576 574/574/574
f 578/578/578 576/576/576 577/577/577
f 579/579/579 578/578/578 577/577/577
f 580/580/580 578/578/578 579/579/579
f 581/581/581 580/580/580 579/579/579
f 581/581/581 579/579/579 582/582/582
f 583/583/583 581/581/581 582/582/582
f 582/582/582 579/579/579 584/584/584
f 579/579/579 577/577/577 584/584/584
f 584/584/584 577/577/577 585/585/585
f 577/577/577 574/574/574 585/585/585
f 585/585/585 574/574/574 586/586/586
f 574/574/574 587/587/587 586/586/586
f 590/590/590 589/589/589 588/588/588
f 591/591/591 590/590/590 588/588/588
f 591/591/591 588/588/588 592/592/592
f 593/593/593 590/590/590 591/591/591
f 594/594/594 591/591/591 592/592/592
f 595/595/595 593/593/593 591/591/591
f 595/595/595 591/591/591 594/594/594
f 596/596/596 593/593/593 595/595/595
f 597/597/597 595/595/595 594/594/594
f 596/596/596 595/595/595 597/597/597
f 600/600/600 599/599/599 598/598/598
f 599/599/599 601/601/601 598/598/598
f 598/598/598 601/601/601 602/602/602
f 601/601/601 603/603/603 602/602/602
f 602/602/602 603/603/603 604/604/604
f 601/601/601 605/605/605 603/603/603
f 603/603/603 606/606/606 604/604/604
f 605/605/605 607/607/607 603/603/603
f 603/603/603 607/607/607 606/606/606
f 607/607/607 608/608/608 606/606/606
f 611/611/611 610/610/610 609/609/609
f 610/610/610 612/612/612 609/609/609
f 610/610/610 613/613/613 612/612/612
f 614/614/614 613/613/613 610/610/610
f 615/615/615 614/614/614 610/610/610
f 614/614/614 616/616/616 613/613/613
f 616/616/616 617/617/617 613/613/613
f 613/613/613 618/618/618 612/612/612
f 613/613/613 617/617/617 618/618/618
f 612/612/612 618/618/618 619/619/619
f 617/617/617 620/620/620 618/618/618
f 618/618/618 620/620/620 619/619/619
f 623/623/623 622/622/622 621/621/621
f 621/621/621 624/624/624 623/623/623
f 621/621/621 625/625/625 624/624/624
f 625/625/625 626/626/626 624/624/624
f 625/625/625 627/627/627 626/626/626
f 627/627/627 628/628/628 626/626/626
f 627/627/627 629/629/629 628/628/628
f 629/629/629 630/630/630 628/628/628
f 629/629/629 631/631/631 630/630/630
f 631/631/631 632/632/632 630/630/630
f 635/635/635 634/634/634 633/633/633
f 633/633/633 636/636/636 635/635/635
f 636/636/636 637/637/637 635/635/635
f 636/636/636 638/638/638 637/637/637
f 638/638/638 639/639/639 637/637/637
f 638/638/638 640/640/640 639/639/639
f 640/640/640 641/641/641 639/639/639
f 640/640/640 642/642/642 641/641/641
f 642/642/642 643/643/643 641/641/641
f 642/642/642 644/644/644 643/643/643
f 647/647/647 646/646/646 645/645/645
f 645/645/645 648/648/648 647/647/647
f 648/648/648 649/649/649 647/647/647
f 648/648/648 650/650/650 649/649/649
f 650/650/650 651/651/651 649/649/649
f 650/650/650 652/652/652 651/651/651
f 655/655/655 654/654/654 653/653/653
f 656/656/656 655/655/655 653/653/653
f 656/656/656 653/653/653 657/657/657
f 658/658/658 655/655/655 656/656/656
f 659/659/659 656/656/656 657/657/657
f 660/660/660 658/658/658 656/656/656
f 660/660/660 656/656/656 659/659/659
f 661/661/661 660/660/660 659/659/659
f 664/664/664 663/663/663 662/662/662
f 665/665/665 664/664/664 662/662/662
f 665/665/665 662/662/662 666/666/666
f 667/667/667 664/664/664 665/665/665
f 668/668/668 665/665/665 666/666/666
f 667/667/667 665/665/665 668/668/668
f 671/671/671 670/670/670 669/669/669
f 672/672/672 671/671/671 669/669/669
f 672/672/672 669/669/669 673/673/673
f 674/674/674 671/671/671 672/672/672
f 675/675/675 672/672/672 673/673/673
f 676/676/676 674/674/674 672/672/672
f 676/676/676 672/672/672 675/675/675
f 677/677/677 674/674/674 676/676/676
f 678/678/678 676/676/676 675/675/675
f 679/679/679 677/677/677 676/676/676
f 679/679/679 676/676/676 678/678/678
f 680/680/680 677/677/677 679/679/679
f 681/681/681 679/679/679 678/678/678
f 680/680/680 679/679/679 681/681/681
f 684/684/684 683/683/683 682/682/682
f 685/685/685 684/684/684 682/682/682
f 685/685/685 682/682/682 686/686/686
f 687/687/687 685/685/685 686/686/686
f 690/690/690 689/689/689 688/688/688
f 691/691/691 690/690/690 688/688/688
f 691/691/691 688/688/688 692/692/692
f 693/693/693 690/690/690 691/691/691
f 694/694/694 691/691/691 692/692/692
f 695/695/695 693/693/693 691/691/691
f 695/695/695 691/691/691 694/694/694
f 696/696/696 693/693/693 695/695/695
f 697/697/697 695/695/695 694/694/694
f 696/696/696 695/695/695 697/697/697
f 700/700/700 699/699/699 698/698/698
f 701/701/701 700/700/700 698/698/698
f 701/701/701 698/698/698 702/702/702
f 703/703/703 700/700/700 701/701/701
f 704/704/704 701/701/701 702/702/702
f 705/705/705 703/703/703 701/701/701
f 705/705/705 701/701/701 704/704/704
f 706/706/706 703/703/703 705/705/705
f 707/707/707 705/705/705 704/704/704
f 708/708/708 706/706/706 705/705/705
f 708/708/708 705/705/705 707/707/707
f 709/709/709 706/706/706 708/708/708
f 710/710/710 708/708/708 707/707/707
f 709/709/709 708/708/708 710/710/710
f 713/713/713 712/712/712 711/711/711
f 711/711/711 714/714/714 713/713/713
f 711/711/711 715/715/715 714/714/714
f 715/715/715 716/716/716 714/714/714
f 716/716/716 717/717/717 714/714/714
f 716/716/716 718/718/718 717/717/717
f 721/721/721 720/720/720 719/719/719
f 722/722/722 721/721/721 719/719/719
f 722/722/722 719/719/719 723/723/723
f 724/724/724 721/721/721 722/722/722
f 725/725/725 722/722/722 723/723/723
f 726/726/726 724/724/724 722/722/722
f 726/726/726 722/722/722 725/725/725
f 727/727/727 726/726/726 725/725/725
f 730/730/730 729/729/729 728/728/728
f 731/731/731 730/730/730 728/728/728
f 731/731/731 728/728/728 732/732/732
f 733/733/733 730/730/730 731/731/731
f 734/734/734 731/731/731 732/732/732
f 733/733/733 731/731/731 734/734/734
f 737/737/737 736/736/736 735/735/735
f 738/738/738 737/737/737 735/735/735
f 738/738/738 735/735/735 739/739/739
f 740/740/740 737/737/737 738/738/738
f 741/741/741 738/738/738 739/739/739
f 742/742/742 740/740/740 738/738/738
f 742/742/742 738/738/738 741/741/741
f 743/743/743 740/740/740 742/742/742
f 744/744/744 742/742/742 741/741/741
f 745/745/745 743/743/743 742/742/742
f 745/745/745 742/742/742 744/744/744
f 746/746/746 743/743/743 745/745/745
f 747/747/747 745/745/745 744/744/744
f 746/746/746 745/745/745 747/747/747
f 750/750/750 749/749/749 748/748/748
f 751/751/751 750/750/750 748/748/748
f 751/751/751 748/748/748 752/752/752
f 753/753/753 750/750/750 751/751/751
f 754/754/754 751/751/751 752/752/752
f 755/755/755 753/753/753 751/751/751
f 755/755/755 751/751/751 754/754/754
f 756/756/756 755/755/755 754/754/754
f 759/759/759 758/758/758 757/757/757
f 760/760/760 759/759/759 757/757/757
f 760/760/760 757/757/757 761/761/761
f 762/762/762 759/759/759 760/760/760
f 763/763/763 760/760/760 761/761/761
f 762/762/762 760/760/760 763/763/763
f 766/766/766 765/765/765 764/764/764
f 767/767/767 766/766/766 764/764/764
f 767/767/767 764/764/764 768/768/768
f 769/769/769 766/766/766 767/767/767
f 770/770/770 767/767/767 768/768/768
f 771/771/771 769/769/769 767/767/767
f 771/771/771 767/767/767 770/770/770
f 772/772/772 769/769/769 771/771/771
f 773/773/773 771/771/771 770/770/770
f 774/774/774 772/772/772 771/771/771
f 774/774/774 771/771/771 773/773/773
f 775/775/775 772/772/772 774/774/774
f 776/776/776 774/774/774 773/773/773
f 775/775/775 774/774/774 776/776/776
