g 0.0000
v 0.9787168 -0.5402 2.1904905
v 0.66433614 -0.69771504 2.3533232
v 1.0121872 -0.118348315 2.4943733
v 1.0765028 -0.076248534 2.4062567
v 1.1849425 -0.16482334 2.101169
v 1.0623904 0.08188538 2.5055265
v 1.1104523 0.024492025 2.3527637
v 1.1494821 0.28577211 2.1159854
v 1.0997062 0.14529787 2.3542204
v 0.89595777 0.6588302 2.2159934
v 1.0447736 0.23977171 2.4111497
v 0.9578823 0.27121055 2.5032992
v 0.5050365 0.78838766 2.3676572
v 1.2586496 1.1905407 0.28416008
v 1.672154 0.3208025 0.0027245954
v 1.6524878 0.2954017 0.18855137
v 1.2986674 1.2296101 0.12606958
v 0.34703702 1.67124 0.34052378
v 0.3597052 1.712823 0.17757961
v 0.7843389 -0.5452574 1.1241331
v 0.5972161 -0.79295343 1.1133624
v 0.7448562 -0.7774415 1.4984868
v 1.0506341 -0.33271724 1.4072721
v 0.84834266 -0.43428165 1.0465038
v 0.93693537 -0.39896616 1.1413356
v 1.0780118 0.1754305 1.3185947
v 1.1117857 0.22979984 1.4739051
v 1.1441047 -0.25374407 1.7596728
v 1.14101 0.28659323 1.789047
v 1.1849425 -0.16482334 2.101169
v 1.1494821 0.28577211 2.1159854
v 1.1441047 -0.25374407 1.7596728
v 0.9787168 -0.5402 2.1904905
v 1.1849425 -0.16482334 2.101169
v 0.8694659 -0.6887521 1.8509101
v 1.0506341 -0.33271724 1.4072721
v 0.66433614 -0.69771504 2.3533232
v 0.3630779 -0.8752664 2.0101385
v 0.7448562 -0.7774415 1.4984868
v 0.13559574 -0.96014154 1.6197796
v -0.01594229 -0.9831342 1.2469704
v 0.5972161 -0.79295343 1.1133624
v 0.33592832 0.9359928 2.0247211
v 0.89595777 0.6588302 2.2159934
v 0.5050365 0.78838766 2.3676572
v 0.8389448 0.76119477 1.8856803
v 1.1494821 0.28577211 2.1159854
v 0.24247491 1.0130297 1.6622081
v 1.14101 0.28659323 1.789047
v 0.79983586 0.7945378 1.5488582
v 0.19969083 1.0139296 1.2412014
v 1.1117857 0.22979984 1.4739051
v 0.76708996 0.7487846 1.1703862
v 0.24998124 1.2666986 0.6352582
v 1.0780118 0.1754305 1.3185947
v 0.9371148 0.9130187 0.58519846
v 1.2942508 0.24801815 0.5605391
v 1.074894 -0.4114954 0.4672072
v 1.1673515 -0.3542981 0.5810632
v 1.3395731 0.016604185 0.70194656
v 1.2837393 0.14875458 0.5986853
v 1.0619195 -0.43902445 0.42140198
v 1.2942508 0.24801815 0.5605391
v 1.0842562 0.060673952 1.2619922
v 1.0780118 0.1754305 1.3185947
v 0.298186 1.4678752 0.48274833
v 0.9371148 0.9130187 0.58519846
v 0.24998124 1.2666986 0.6352582
v 1.0934072 1.050085 0.42846075
v 0.34703702 1.67124 0.34052378
v 1.2942508 0.24801815 0.5605391
v 1.2586496 1.1905407 0.28416008
v 1.4695239 0.26866236 0.370548
v 1.0619195 -0.43902445 0.42140198
v 1.6524878 0.2954017 0.18855137
v 1.2312287 -0.5462699 0.24551587
v 1.3959348 -0.637305 0.0624419
v 0.6756397 -1.303703 -0.15930668
v -0.26087114 -1.2085158 -0.24673596
v -0.3037277 -1.4287314 -0.1486814
v 0.5964113 -1.1002698 -0.2540183
v 1.4164014 -0.6255619 -0.122841634
v 1.1859268 1.1434052 0.049202204
v 0.3344314 1.5479063 0.08579854
v 0.3597052 1.712823 0.17757961
v 1.2986674 1.2296101 0.12606958
v 1.250764 -0.5087769 -0.21233329
v 1.672154 0.3208025 0.0027245954
v 1.4738017 0.32792297 -0.10170147
v 0.6692854 -1.3113898 0.034537755
v 0.6756397 -1.303703 -0.15930668
v -0.3037277 -1.4287314 -0.1486814
v -0.30029428 -1.4385078 0.045681074
v -0.26023337 -1.2870007 0.24154897
v 0.5958474 -1.1577914 0.2293615
v 1.3959348 -0.637305 0.0624419
v -0.2201632 -1.1334592 0.4372363
v 1.2312287 -0.5462699 0.24551587
v 0.52421826 -0.99913025 0.42420995
v -0.19288528 -1.0475495 0.6798885
v 0.4792141 -0.8931123 0.6910131
v 1.0619195 -0.43902445 0.42140198
v 0.6310052 -0.7011304 0.7143166
v 0.84593445 -0.5294837 0.5923535
v 0.93693537 -0.39896616 1.1413356
v 1.074894 -0.4114954 0.4672072
v 0.95123965 -0.39218733 1.0881488
v 1.1673515 -0.3542981 0.5810632
v 1.0123736 -0.37460768 1.0733384
v 1.464709 -0.7487768 0.8563603
v 1.320623 -0.7416484 1.125662
v 1.6188524 -1.2705346 1.0510424
v 1.4318115 -1.1956599 1.1523356
v 1.3959348 -0.637305 0.0624419
v 0.6756397 -1.303703 -0.15930668
v 0.6692854 -1.3113898 0.034537755
v 1.4164014 -0.6255619 -0.122841634
v 1.6524878 0.2954017 0.18855137
v 1.672154 0.3208025 0.0027245954
v 0.93693537 -0.39896616 1.1413356
v 0.8703037 -0.21739158 0.96286595
v 0.7636302 -0.28734323 1.0267808
v 0.84834266 -0.43428165 1.0465038
v 0.6688277 -0.4032196 1.0853522
v 0.7843389 -0.5452574 1.1241331
v 0.56269306 -0.6155129 1.0675228
v 0.5972161 -0.79295343 1.1133624
v -0.052862275 -0.84632474 1.1476715
v -0.01594229 -0.9831342 1.2469704
v 0.84593445 -0.5294837 0.5923535
v 0.79633015 -0.37198976 0.58439356
v 0.8703037 -0.21739158 0.96286595
v 0.93693537 -0.39896616 1.1413356
v 0.5759571 -0.5486259 0.7006021
v 0.53082377 -0.6885248 0.7017283
v 0.56269306 -0.6155129 1.0675228
v 0.7636302 -0.28734323 1.0267808
v 0.6688277 -0.4032196 1.0853522
v 0.79633015 -0.37198976 0.58439356
v 0.8703037 -0.21739158 0.96286595
v -0.19288528 -1.0475495 0.6798885
v -0.1635631 -0.92729485 0.6467534
v 0.53082377 -0.6885248 0.7017283
v 0.4792141 -0.8931123 0.6910131
v 0.5759571 -0.5486259 0.7006021
v 0.6310052 -0.7011304 0.7143166
v 0.79633015 -0.37198976 0.58439356
v 0.84593445 -0.5294837 0.5923535
v 0.48500612 -0.7252548 0.76321226
v -0.1635631 -0.92729485 0.6467534
v -0.15392971 -0.9226261 0.7587943
v 0.53082377 -0.6885248 0.7017283
v 0.50547576 -0.68865967 0.9355101
v 0.56269306 -0.6155129 1.0675228
v -0.09028597 -0.8636743 1.039133
v -0.07596869 -0.83997285 1.0743409
v -0.052862275 -0.84632474 1.1476715
v 0.14092523 -1.8373281 -0.023317646
v -0.02781143 -1.8767198 -0.22878113
v -0.047912005 -1.9192234 -0.20877455
v 0.10274826 -1.8993951 0.00767646
v 0.22469221 -1.68418 0.34133598
v 0.18693723 -1.7255677 0.4030493
v 0.28300476 -1.4615668 0.6307146
v 0.24338521 -1.4959781 0.71687114
v 0.35177693 -1.1376876 0.7838536
v 0.31698775 -1.1574467 0.8685904
v 0.48500612 -0.7252548 0.76321226
v 0.50547576 -0.68865967 0.9355101
v -0.28364602 -1.7000926 -0.028269807
v -0.298809 -1.7909757 -0.33247384
v -0.02781143 -1.8767198 -0.22878113
v 0.14092523 -1.8373281 -0.023317646
v -0.26522985 -1.5897114 0.25567555
v 0.22469221 -1.68418 0.34133598
v -0.22577368 -1.3532377 0.55649316
v 0.28300476 -1.4615668 0.6307146
v 0.50547576 -0.68865967 0.9355101
v -0.18762702 -1.1245972 0.95675015
v -0.09028597 -0.8636743 1.039133
v 0.31698775 -1.1574467 0.8685904
v -0.24391973 -1.4620001 0.77404577
v 0.24338521 -1.4959781 0.71687114
v -0.15392971 -0.9226261 0.7587943
v 0.35177693 -1.1376876 0.7838536
v 0.48500612 -0.7252548 0.76321226
v -0.18568665 -1.1129695 0.70971924
v 0.28300476 -1.4615668 0.6307146
v -0.22577368 -1.3532377 0.55649316
v -0.298809 -1.7909757 -0.33247384
v -0.32669473 -1.9581141 -0.31550202
v -0.047912005 -1.9192234 -0.20877455
v -0.02781143 -1.8767198 -0.22878113
v 0.10274826 -1.8993951 0.00767646
v -0.047912005 -1.9192234 -0.20877455
v -0.32669473 -1.9581141 -0.31550202
v -0.31504446 -1.8882854 0.035478923
v 0.18693723 -1.7255677 0.4030493
v -0.2835759 -1.6996877 0.4516657
v 0.24338521 -1.4959781 0.71687114
v -0.24391973 -1.4620001 0.77404577
v 0.95123965 -0.39218733 1.0881488
v 0.93693537 -0.39896616 1.1413356
v 1.0780118 0.1754305 1.3185947
v 1.0842562 0.060673952 1.2619922
v 1.0123736 -0.37460768 1.0733384
v 1.1244358 -0.066512406 1.2130787
v 1.320623 -0.7416484 1.125662
v 1.4196701 -0.5084181 1.250353
v 1.2837393 0.14875458 0.5986853
v 1.1244358 -0.066512406 1.2130787
v 1.0842562 0.060673952 1.2619922
v 1.3395731 0.016604185 0.70194656
v 1.4196701 -0.5084181 1.250353
v 1.6214979 -0.45914733 0.97462386
v 1.4920895 -1.1370943 1.3340452
v 1.7097524 -1.2326887 1.2160498
v 1.4318115 -1.1956599 1.1523356
v 1.6449317 -1.4637012 1.0686629
v 1.6188524 -1.2705346 1.0510424
v 1.2978791 -1.3543047 1.2002122
v 1.4476124 -1.6848094 1.1012332
v 1.5596746 -1.7201333 1.0587564
v 1.5055325 -2.2745175 1.1040231
v 1.4923528 -2.2703633 1.109019
v 1.3122846 -1.6421523 1.1525288
v 1.2339365 -2.1220925 1.1555245
v 1.2229843 -2.11864 1.1596755
v 1.212622 -1.6107368 1.1903054
v 0.97293293 -1.9997454 1.1717287
v 0.9554425 -1.9942322 1.1783584
v 1.0962845 -1.5556867 1.1773623
v 1.1152917 -1.3871498 1.210138
v 0.8103149 -1.6863756 1.2388574
v 0.80419284 -1.6438696 1.250286
v 1.464709 -0.7487768 0.8563603
v 1.7097524 -1.2326887 1.2160498
v 1.6214979 -0.45914733 0.97462386
v 1.6188524 -1.2705346 1.0510424
v 1.7226696 -1.4772954 1.2892756
v 1.6449317 -1.4637012 1.0686629
v 1.6937604 -1.7666717 1.2653393
v 1.5596746 -1.7201333 1.0587564
v 1.5223825 -2.2815397 1.1380161
v 1.5055325 -2.2745175 1.1040231
v 1.4196701 -0.5084181 1.250353
v 1.4318115 -1.1956599 1.1523356
v 1.320623 -0.7416484 1.125662
v 1.4920895 -1.1370943 1.3340452
v 1.2978791 -1.3543047 1.2002122
v 1.3544961 -1.3713038 1.355864
v 1.1152917 -1.3871498 1.210138
v 1.1028881 -1.4155116 1.366067
v 0.80419284 -1.6438696 1.250286
v 0.7882119 -1.6556377 1.2860445
v 0.8103149 -1.6863756 1.2388574
v 0.7943338 -1.6981442 1.274616
v 1.1673515 -0.3542981 0.5810632
v 1.464709 -0.7487768 0.8563603
v 1.6214979 -0.45914733 0.97462386
v 1.3395731 0.016604185 0.70194656
v 1.7097524 -1.2326887 1.2160498
v 1.3544961 -1.3713038 1.355864
v 1.4920895 -1.1370943 1.3340452
v 1.7226696 -1.4772954 1.2892756
v 1.5244577 -1.7112632 1.2974902
v 1.6937604 -1.7666717 1.2653393
v 1.5024705 -2.2750235 1.1417971
v 1.5223825 -2.2815397 1.1380161
v 1.367044 -1.659745 1.3273839
v 1.2281591 -2.1211295 1.1804982
v 1.2408985 -2.1252987 1.178079
v 1.269239 -1.6277356 1.3459572
v 1.1028881 -1.4155116 1.366067
v 0.96698964 -1.9995263 1.2201444
v 0.9841541 -2.005144 1.2168846
v 1.0838801 -1.5840478 1.3332914
v 0.7882119 -1.6556377 1.2860445
v 0.7943338 -1.6981442 1.274616
v 1.5244577 -1.7112632 1.2974902
v 1.5024705 -2.2750235 1.1417971
v 1.4923528 -2.2703633 1.109019
v 1.4476124 -1.6848094 1.1012332
v 1.212622 -1.6107368 1.1903054
v 1.0838801 -1.5840478 1.3332914
v 1.269239 -1.6277356 1.3459572
v 1.0962845 -1.5556867 1.1773623
v 0.7943338 -1.6981442 1.274616
v 0.8103149 -1.6863756 1.2388574
v 1.5223825 -2.2815397 1.1380161
v 1.5055325 -2.2745175 1.1040231
v 1.4923528 -2.2703633 1.109019
v 1.5024705 -2.2750235 1.1417971
v 1.2339365 -2.1220925 1.1555245
v 1.2229843 -2.11864 1.1596755
v 1.2281591 -2.1211295 1.1804982
v 1.2408985 -2.1252987 1.178079
v 1.367044 -1.659745 1.3273839
v 1.2281591 -2.1211295 1.1804982
v 1.2229843 -2.11864 1.1596755
v 1.3122846 -1.6421523 1.1525288
v 1.4476124 -1.6848094 1.1012332
v 1.2339365 -2.1220925 1.1555245
v 1.2408985 -2.1252987 1.178079
v 1.5244577 -1.7112632 1.2974902
v 0.97293293 -1.9997454 1.1717287
v 0.9554425 -1.9942322 1.1783584
v 0.96698964 -1.9995263 1.2201444
v 0.9841541 -2.005144 1.2168846
v 1.3122846 -1.6421523 1.1525288
v 0.97293293 -1.9997454 1.1717287
v 0.9841541 -2.005144 1.2168846
v 1.367044 -1.659745 1.3273839
v 1.269239 -1.6277356 1.3459572
v 0.96698964 -1.9995263 1.2201444
v 0.9554425 -1.9942322 1.1783584
v 1.212622 -1.6107368 1.1903054
v 0.2373128 -0.56835 2.5562801
v 1.0121872 -0.118348315 2.4943733
v 0.66433614 -0.69771504 2.3533232
v 0.9363918 -0.08612711 2.5845656
v -0.044317156 -0.19858353 2.6499283
v 1.0623904 0.08188538 2.5055265
v 0.8828424 0.008444287 2.639997
v -0.11646803 0.26538932 2.6241791
v 0.8712756 0.12919226 2.640297
v 0.105060935 0.644565 2.5283897
v 0.9026544 0.22975151 2.5866282
v 0.9578823 0.27121055 2.5032992
v 0.5050365 0.78838766 2.3676572
v -1.0154986 1.4178814 0.16398698
v -1.569882 0.619009 0.17397225
v -1.5965223 0.61828667 -0.011536311
v -1.0810361 1.4274114 -0.027113467
v 0.34703702 1.67124 0.34052378
v 0.3597052 1.712823 0.17757961
v -0.6699052 -0.19995955 1.7819036
v -0.3240677 -0.7320594 1.7312096
v -0.46893296 -0.7004146 1.2803302
v -0.62678534 -0.39800397 1.3304535
v -0.7325472 -0.23215044 1.2356969
v -0.82957196 -0.10764131 1.3179733
v -0.91248244 0.47122955 1.3894099
v -0.79400426 0.41213608 1.7215899
v -0.42107657 -0.23347148 2.255799
v -0.50499815 0.33036268 2.2228754
v -0.044317156 -0.19858353 2.6499283
v -0.11646803 0.26538932 2.6241791
v -0.42107657 -0.23347148 2.255799
v -0.044317156 -0.19858353 2.6499283
v 0.2373128 -0.56835 2.5562801
v -0.06815502 -0.69097143 2.1946526
v -0.6699052 -0.19995955 1.7819036
v 0.66433614 -0.69771504 2.3533232
v 0.3630779 -0.8752664 2.0101385
v -0.3240677 -0.7320594 1.7312096
v 0.13559574 -0.96014154 1.6197796
v -0.01594229 -0.9831342 1.2469704
v -0.46893296 -0.7004146 1.2803302
v 0.33592832 0.9359928 2.0247211
v 0.5050365 0.78838766 2.3676572
v 0.105060935 0.644565 2.5283897
v -0.20436859 0.78398496 2.1518068
v -0.11646803 0.26538932 2.6241791
v 0.24247491 1.0130297 1.6622081
v -0.50499815 0.33036268 2.2228754
v -0.40344167 0.8713235 1.7349043
v 0.19969083 1.0139296 1.2412014
v -0.79400426 0.41213608 1.7215899
v -0.5207033 0.9153377 1.1937847
v 0.24998124 1.2666986 0.6352582
v -0.91248244 0.47122955 1.3894099
v -0.7181904 1.1173365 0.5295981
v -1.2325995 0.5326172 0.5103901
v -1.1358604 -0.1422717 0.5171852
v -1.3289781 0.3288682 0.64897954
v -1.2031654 -0.071810186 0.6372215
v -1.245194 0.43227884 0.5526204
v -1.1328992 -0.17256388 0.47085157
v -1.2325995 0.5326172 0.5103901
v -0.97007453 0.4016909 1.3031397
v -0.91248244 0.47122955 1.3894099
v 0.298186 1.4678752 0.48274833
v 0.24998124 1.2666986 0.6352582
v -0.7181904 1.1173365 0.5295981
v -0.85816836 1.2710077 0.34381992
v 0.34703702 1.67124 0.34052378
v -1.2325995 0.5326172 0.5103901
v -1.0154986 1.4178814 0.16398698
v -1.3947346 0.57323045 0.34218833
v -1.1328992 -0.17256388 0.47085157
v -1.569882 0.619009 0.17397225
v -1.3264153 -0.25454488 0.31564826
v -1.5125582 -0.32016528 0.14956905
v -1.013695 -1.1041023 -0.06620694
v -0.3037277 -1.4287314 -0.1486814
v -0.26087114 -1.2085158 -0.24673596
v -0.88783216 -0.945609 -0.17668423
v -1.539061 -0.32919788 -0.033072468
v 0.3344314 1.5479063 0.08579854
v -1.3628905 -0.26363382 -0.14314382
v -1.5965223 0.61828667 -0.011536311
v -1.0326122 1.278638 -0.14362279
v 0.3597052 1.712823 0.17757961
v -1.0810361 1.4274114 -0.027113467
v -1.4145793 0.56607187 -0.1268605
v -1.0070107 -1.0910159 0.12222152
v -0.3037277 -1.4287314 -0.1486814
v -1.013695 -1.1041023 -0.06620694
v -0.30029428 -1.4385078 0.045681074
v -0.26023337 -1.2870007 0.24154897
v -0.89185727 -0.9474312 0.3008719
v -1.5125582 -0.32016528 0.14956905
v -0.2201632 -1.1334592 0.4372363
v -1.3264153 -0.25454488 0.31564826
v -0.76924217 -0.8052254 0.4862026
v -0.19288528 -1.0475495 0.6798885
v -0.67185014 -0.706341 0.7527135
v -1.1328992 -0.17256388 0.47085157
v -0.74966514 -0.48427302 0.79108256
v -0.9166374 -0.28943497 0.6808284
v -0.82957196 -0.10764131 1.3179733
v -1.1358604 -0.1422717 0.5171852
v -0.8772062 -0.06894246 1.2417281
v -1.2031654 -0.071810186 0.6372215
v -0.99396867 0.020621002 1.1648452
v -1.5087817 -0.3294915 1.0571225
v -1.3583962 -0.2289756 1.303325
v -1.6874163 -0.7272706 1.4362669
v -1.494205 -0.63090336 1.5013331
v -1.5125582 -0.32016528 0.14956905
v -1.0070107 -1.0910159 0.12222152
v -1.013695 -1.1041023 -0.06620694
v -1.539061 -0.32919788 -0.033072468
v -1.569882 0.619009 0.17397225
v -1.5965223 0.61828667 -0.011536311
v -0.82957196 -0.10764131 1.3179733
v -0.6815981 -0.065475166 1.1386302
v -0.81729126 0.04645738 1.0458184
v -0.7325472 -0.23215044 1.2356969
v -0.57437944 -0.22007364 1.2107048
v -0.62678534 -0.39800397 1.3304535
v -0.52863675 -0.472762 1.178042
v -0.46893296 -0.7004146 1.2803302
v -0.052862275 -0.84632474 1.1476715
v -0.01594229 -0.9831342 1.2469704
v -0.9166374 -0.28943497 0.6808284
v -0.82957196 -0.10764131 1.3179733
v -0.81729126 0.04645738 1.0458184
v -0.8389375 -0.15892613 0.64830935
v -0.52863675 -0.472762 1.178042
v -0.6559906 -0.5045526 0.7617901
v -0.6568221 -0.3641305 0.76145256
v -0.6815981 -0.065475166 1.1386302
v -0.57437944 -0.22007364 1.2107048
v -0.8389375 -0.15892613 0.64830935
v -0.81729126 0.04645738 1.0458184
v -0.19288528 -1.0475495 0.6798885
v -0.6559906 -0.5045526 0.7617901
v -0.1635631 -0.92729485 0.6467534
v -0.67185014 -0.706341 0.7527135
v -0.6568221 -0.3641305 0.76145256
v -0.74966514 -0.48427302 0.79108256
v -0.8389375 -0.15892613 0.64830935
v -0.9166374 -0.28943497 0.6808284
v -0.6195715 -0.5505669 0.8182526
v -0.15392971 -0.9226261 0.7587943
v -0.1635631 -0.92729485 0.6467534
v -0.6559906 -0.5045526 0.7617901
v -0.56634986 -0.53350776 1.0145009
v -0.52863675 -0.472762 1.178042
v -0.09028597 -0.8636743 1.039133
v -0.07596869 -0.83997285 1.0743409
v -0.052862275 -0.84632474 1.1476715
v -0.7297727 -1.6920589 -0.02331824
v -0.5777513 -1.8308238 -0.2087749
v -0.5829645 -1.7840968 -0.22878148
v -0.71381354 -1.7631582 0.007675904
v -0.7592803 -1.5200121 0.34133488
v -0.7370064 -1.5714153 0.4030482
v -0.7421627 -1.2905263 0.63071305
v -0.7158607 -1.3359361 0.7168697
v -0.69555014 -0.95779455 0.79211223
v -0.6704316 -0.9877536 0.8748586
v -0.6195715 -0.5505669 0.8182526
v -0.56634986 -0.53350776 1.0145009
v -0.28364602 -1.7000926 -0.028269807
v -0.5829645 -1.7840968 -0.22878148
v -0.298809 -1.7909757 -0.33247384
v -0.7297727 -1.6920589 -0.02331824
v -0.26522985 -1.5897114 0.25567555
v -0.7592803 -1.5200121 0.34133488
v -0.22577368 -1.3532377 0.55649316
v -0.7421627 -1.2905263 0.63071305
v -0.56634986 -0.53350776 1.0145009
v -0.09028597 -0.8636743 1.039133
v -0.18762702 -1.1245972 0.95675015
v -0.6704316 -0.9877536 0.8748586
v -0.24391973 -1.4620001 0.77404577
v -0.7158607 -1.3359361 0.7168697
v -0.15392971 -0.9226261 0.7587943
v -0.6195715 -0.5505669 0.8182526
v -0.69555014 -0.95779455 0.79211223
v -0.18568665 -1.1129695 0.70971924
v -0.7421627 -1.2905263 0.63071305
v -0.22577368 -1.3532377 0.55649316
v -0.298809 -1.7909757 -0.33247384
v -0.5829645 -1.7840968 -0.22878148
v -0.5777513 -1.8308238 -0.2087749
v -0.32669473 -1.9581141 -0.31550202
v -0.71381354 -1.7631582 0.007675904
v -0.32669473 -1.9581141 -0.31550202
v -0.5777513 -1.8308238 -0.2087749
v -0.31504446 -1.8882854 0.035478923
v -0.7370064 -1.5714153 0.4030482
v -0.2835759 -1.6996877 0.4516657
v -0.7158607 -1.3359361 0.7168697
v -0.24391973 -1.4620001 0.77404577
v -0.8772062 -0.06894246 1.2417281
v -0.91248244 0.47122955 1.3894099
v -0.82957196 -0.10764131 1.3179733
v -0.97007453 0.4016909 1.3031397
v -0.99396867 0.020621002 1.1648452
v -1.0732266 0.34490687 1.2132374
v -1.3583962 -0.2289756 1.303325
v -1.4413422 0.039686024 1.3294771
v -1.245194 0.43227884 0.5526204
v -0.97007453 0.4016909 1.3031397
v -1.0732266 0.34490687 1.2132374
v -1.3289781 0.3288682 0.64897954
v -1.4413422 0.039686024 1.3294771
v -1.646351 -0.007757902 1.0557818
v -1.5469321 -0.50395954 1.6468902
v -1.7722526 -0.6239542 1.5742925
v -1.494205 -0.63090336 1.5013331
v -1.6874163 -0.7272706 1.4362669
v -1.7238686 -0.8971722 1.5263151
v -1.3683125 -0.7671081 1.6061991
v -1.2978048 -1.0126048 1.6949935
v -1.1788925 -0.97379476 1.662036
v -1.187673 -0.8046738 1.6279598
v -0.8993607 -1.0882198 1.7688482
v -0.8906072 -1.0450215 1.7631793
v -1.3999093 -1.0499548 1.6720533
v -1.0807729 -1.3930542 1.826442
v -1.062854 -1.3864994 1.8304683
v -1.5385528 -1.1006712 1.640904
v -1.6533608 -1.1426684 1.6151094
v -1.6293397 -1.6401122 1.868674
v -1.6158369 -1.6351728 1.8717079
v -1.3485233 -1.4963024 1.8581271
v -1.3373029 -1.492198 1.8606477
v -1.5087817 -0.3294915 1.0571225
v -1.646351 -0.007757902 1.0557818
v -1.7722526 -0.6239542 1.5742925
v -1.6874163 -0.7272706 1.4362669
v -1.7971762 -0.8209092 1.7353793
v -1.7238686 -0.8971722 1.5263151
v -1.7850797 -1.0987351 1.823775
v -1.6533608 -1.1426684 1.6151094
v -1.6457736 -1.632612 1.9027681
v -1.6293397 -1.6401122 1.868674
v -1.4413422 0.039686024 1.3294771
v -1.3583962 -0.2289756 1.303325
v -1.494205 -0.63090336 1.5013331
v -1.5469321 -0.50395954 1.6468902
v -1.3683125 -0.7671081 1.6061991
v -1.4222152 -0.7200279 1.7565317
v -1.187673 -0.8046738 1.6279598
v -1.1733118 -0.77214706 1.7829047
v -0.8906072 -1.0450215 1.7631793
v -0.8744962 -1.0432138 1.8007256
v -0.8993607 -1.0882198 1.7688482
v -0.88324976 -1.0864121 1.8063946
v -1.2031654 -0.071810186 0.6372215
v -1.3289781 0.3288682 0.64897954
v -1.646351 -0.007757902 1.0557818
v -1.5087817 -0.3294915 1.0571225
v -1.7722526 -0.6239542 1.5742925
v -1.5469321 -0.50395954 1.6468902
v -1.4222152 -0.7200279 1.7565317
v -1.7971762 -0.8209092 1.7353793
v -1.3517071 -0.9655243 1.8453261
v -1.1733118 -0.77214706 1.7829047
v -1.1645306 -0.94126767 1.8169806
v -0.8744962 -1.0432138 1.8007256
v -0.88324976 -1.0864121 1.8063946
v -1.4515514 -0.9962146 1.8403609
v -1.0737201 -1.3747556 1.8711059
v -1.0912427 -1.3801416 1.8702347
v -1.6122472 -1.0456096 1.8323698
v -1.3421308 -1.4862435 1.8808415
v -1.3551358 -1.490241 1.8801949
v -1.7850797 -1.0987351 1.823775
v -1.6254468 -1.626364 1.9037788
v -1.6457736 -1.632612 1.9027681
v -1.6122472 -1.0456096 1.8323698
v -1.5385528 -1.1006712 1.640904
v -1.6158369 -1.6351728 1.8717079
v -1.6254468 -1.626364 1.9037788
v -1.2978048 -1.0126048 1.6949935
v -1.3517071 -0.9655243 1.8453261
v -1.1645306 -0.94126767 1.8169806
v -1.1788925 -0.97379476 1.662036
v -0.88324976 -1.0864121 1.8063946
v -0.8993607 -1.0882198 1.7688482
v -1.6457736 -1.632612 1.9027681
v -1.6254468 -1.626364 1.9037788
v -1.6158369 -1.6351728 1.8717079
v -1.6293397 -1.6401122 1.868674
v -1.3485233 -1.4963024 1.8581271
v -1.3551358 -1.490241 1.8801949
v -1.3421308 -1.4862435 1.8808415
v -1.3373029 -1.492198 1.8606477
v -1.4515514 -0.9962146 1.8403609
v -1.3999093 -1.0499548 1.6720533
v -1.3373029 -1.492198 1.8606477
v -1.3421308 -1.4862435 1.8808415
v -1.5385528 -1.1006712 1.640904
v -1.6122472 -1.0456096 1.8323698
v -1.3551358 -1.490241 1.8801949
v -1.3485233 -1.4963024 1.8581271
v -1.0807729 -1.3930542 1.826442
v -1.0912427 -1.3801416 1.8702347
v -1.0737201 -1.3747556 1.8711059
v -1.062854 -1.3864994 1.8304683
v -1.3999093 -1.0499548 1.6720533
v -1.4515514 -0.9962146 1.8403609
v -1.0912427 -1.3801416 1.8702347
v -1.0807729 -1.3930542 1.826442
v -1.3517071 -0.9655243 1.8453261
v -1.2978048 -1.0126048 1.6949935
v -1.062854 -1.3864994 1.8304683
v -1.0737201 -1.3747556 1.8711059
vt 0.74890864 0.33473623
vt 0.6717679 0.31027758
vt 0.66713095 0.40442336
vt 0.68728566 0.4108137
vt 0.7965842 0.40015852
vt 0.6663609 0.43831098
vt 0.6997419 0.4279067
vt 0.7965842 0.48155546
vt 0.6997419 0.4491734
vt 0.7489086 0.5478362
vt 0.6872856 0.46649063
vt 0.66713095 0.47324383
vt 0.67176783 0.5736836
vt 0.9637046 0.45414358
vt 0.93541497 0.5978774
vt 0.96895975 0.5964614
vt 0.93010426 0.45405513
vt 0.96895975 0.2798921
vt 0.93541497 0.2779616
vt 0.16803193 0.630366
vt 0.17640781 0.5801308
vt 0.115820885 0.5862611
vt 0.11693096 0.6796261
vt 0.17727995 0.65348226
vt 0.15565658 0.67443293
vt 0.15847087 0.7843158
vt 0.12917185 0.7872804
vt 0.06099415 0.68868005
vt 0.07220554 0.7872804
vt 0.004541397 0.70104825
vt 0.013733864 0.7818932
vt 0.41405088 0.48246205
vt 0.4735523 0.5689744
vt 0.48031563 0.50047475
vt 0.40580213 0.5660057
vt 0.35368103 0.47522599
vt 0.48031563 0.6502857
vt 0.41405088 0.6651749
vt 0.34467483 0.56644106
vt 0.35368103 0.67471635
vt 0.30095118 0.6785831
vt 0.28536028 0.57079065
vt 0.72617555 0.23695126
vt 0.6334386 0.2987338
vt 0.7150438 0.30119494
vt 0.62664795 0.23394963
vt 0.5667885 0.30119494
vt 0.73265326 0.17673379
vt 0.54536 0.23695126
vt 0.6239867 0.17345652
vt 0.73444176 0.11545947
vt 0.5352346 0.17673379
vt 0.6257751 0.11218226
vt 0.7502142 0.008557349
vt 0.53609943 0.14710242
vt 0.61705065 0.0045413673
vt 0.508291 0.008557409
vt 0.6136563 0.78230274
vt 0.59442616 0.80247563
vt 0.6041634 0.87777376
vt 0.6276983 0.8904389
vt 0.6210798 0.77578527
vt 0.6383977 0.9074241
vt 0.51326406 0.89050305
vt 0.508291 0.9074241
vt 0.63353 0.33707404
vt 0.5797186 0.47161484
vt 0.6572782 0.3638705
vt 0.5440047 0.4614408
vt 0.60978174 0.3102777
vt 0.5797185 0.60484517
vt 0.5082909 0.45126677
vt 0.5440047 0.6152253
vt 0.6572782 0.7126719
vt 0.5082909 0.6256056
vt 0.63353 0.73968726
vt 0.60978174 0.7667026
vt 0.10771382 0.06026554
vt 0.27627754 0.042261958
vt 0.27465045 0.004541397
vt 0.13032222 0.090982676
vt 0.004541397 0.20289826
vt 0.13032222 0.49169338
vt 0.27627754 0.53756785
vt 0.27465045 0.57104814
vt 0.10771382 0.51857924
vt 0.040116906 0.21568859
vt 0.004541397 0.37795854
vt 0.040116906 0.36874652
vt 0.46823847 0.17876983
vt 0.49920815 0.16713661
vt 0.4316672 0.0045413375
vt 0.40140402 0.017875373
vt 0.3697834 0.04301536
vt 0.4287382 0.18494064
vt 0.49920815 0.3224484
vt 0.33816284 0.06815541
vt 0.45605665 0.31167978
vt 0.38923794 0.19111145
vt 0.30002677 0.09147996
vt 0.34136087 0.2035042
vt 0.4129051 0.30091113
vt 0.3427356 0.23802859
vt 0.37234122 0.27309045
vt 0.28536028 0.32351992
vt 0.40577763 0.30731925
vt 0.29442835 0.32775104
vt 0.39255768 0.3331457
vt 0.30128193 0.34407
vt 0.3696847 0.4130204
vt 0.316028 0.41050625
vt 0.34918767 0.46614328
vt 0.3190418 0.44240487
vt 0.88015616 0.4308536
vt 0.92102146 0.2779616
vt 0.8883019 0.2813499
vt 0.9127896 0.42904556
vt 0.8883019 0.604403
vt 0.92102146 0.6044296
vt 0.92042327 0.8231498
vt 0.95599186 0.8245685
vt 0.9529158 0.7990128
vt 0.92184687 0.79769146
vt 0.944216 0.7720341
vt 0.9131471 0.77071285
vt 0.9262327 0.7379135
vt 0.8992187 0.71540093
vt 0.95599186 0.6287955
vt 0.9359044 0.61351234
vt 0.4951718 0.690281
vt 0.4716521 0.68766576
vt 0.46115664 0.7574903
vt 0.4951718 0.78983396
vt 0.8263372 0.22392666
vt 0.8312873 0.20070249
vt 0.7756655 0.19722342
vt 0.7595817 0.25615913
vt 0.7592969 0.23126322
vt 0.8312873 0.26076448
vt 0.76217866 0.27623308
vt 0.1528058 0.9954586
vt 0.17297757 0.9805787
vt 0.14940989 0.86111856
vt 0.120639086 0.8822142
vt 0.16705024 0.8451873
vt 0.13673139 0.8455496
vt 0.17297757 0.7963631
vt 0.14265871 0.79672545
vt 0.96449995 0.949986
vt 0.9768403 0.8341253
vt 0.9583186 0.8374158
vt 0.97394526 0.9589685
vt 0.9370234 0.9511169
vt 0.91514146 0.9589685
vt 0.91664225 0.8441341
vt 0.91131157 0.845767
vt 0.9047306 0.84629834
vt 0.24212086 0.62085164
vt 0.26272297 0.58408916
vt 0.25492644 0.58013093
vt 0.23041713 0.6148417
vt 0.21321535 0.68580496
vt 0.19992411 0.6859044
vt 0.20205033 0.74947226
vt 0.18636262 0.7531501
vt 0.21767807 0.81040287
vt 0.20473075 0.816103
vt 0.26272297 0.85745966
vt 0.24731362 0.8788526
vt 0.8921899 0.8861185
vt 0.8956479 0.8341253
vt 0.8443022 0.8430877
vt 0.8160554 0.8729528
vt 0.89046186 0.93449223
vt 0.80566704 0.93307245
vt 0.8956479 0.9850062
vt 0.80715513 0.98099226
vt 0.0045413673 0.7963631
vt 0.11155632 0.87074345
vt 0.109398395 0.8257038
vt 0.020405829 0.86897737
vt 0.11155632 0.9283557
vt 0.025079906 0.92566746
vt 0.6663609 0.9029835
vt 0.76336145 0.9226998
vt 0.7696104 0.8577449
vt 0.6672575 0.935741
vt 0.7592356 0.97535855
vt 0.6669169 0.97535855
vt 0.4611566 0.8497342
vt 0.49111164 0.8497342
vt 0.47845495 0.8009338
vt 0.47014856 0.7989167
vt 0.81213677 0.75574785
vt 0.8302027 0.7971086
vt 0.8746209 0.82504255
vt 0.88416404 0.76295877
vt 0.80867016 0.6788735
vt 0.8901358 0.683446
vt 0.8056669 0.61351246
vt 0.8901358 0.61675274
vt 0.37431955 0.9788019
vt 0.38170052 0.98294646
vt 0.3817004 0.8734242
vt 0.37556243 0.88998085
vt 0.3596846 0.9653265
vt 0.36173642 0.90428126
vt 0.28536034 0.99293786
vt 0.28748286 0.9440813
vt 0.77717674 0.84866214
vt 0.6815368 0.7817943
vt 0.66636086 0.7922282
vt 0.773233 0.8210635
vt 0.7190927 0.7010453
vt 0.77717674 0.71481943
vt 0.7315622 0.6027491
vt 0.77293515 0.5827663
vt 0.85305345 0.004541397
vt 0.8962079 0.04791403
vt 0.88581395 0.016323805
vt 0.835325 0.033143044
vt 0.8690835 0.089292884
vt 0.8887423 0.09406233
vt 0.8962079 0.18814075
vt 0.89389586 0.18757987
vt 0.8453431 0.08353317
vt 0.84576 0.16708875
vt 0.8438386 0.16662264
vt 0.8278594 0.07929158
vt 0.7974168 0.15218425
vt 0.7943485 0.1514399
vt 0.80595624 0.07329798
vt 0.8049116 0.04293132
vt 0.761392 0.100438714
vt 0.7592969 0.09293687
vt 0.8710735 0.55522037
vt 0.8115202 0.47985578
vt 0.8344184 0.6044297
vt 0.8448831 0.47617984
vt 0.8056669 0.43957376
vt 0.845904 0.44754577
vt 0.8194058 0.39450574
vt 0.85972285 0.40285373
vt 0.8647268 0.3102777
vt 0.8710735 0.31191897
vt 0.92572474 0.0045413673
vt 0.938638 0.10348278
vt 0.9503828 0.045675993
vt 0.9052907 0.093052626
vt 0.9359654 0.14035517
vt 0.90686154 0.14094281
vt 0.94255674 0.16220856
vt 0.91653895 0.1708278
vt 0.94892144 0.22975874
vt 0.943537 0.2337237
vt 0.9503828 0.23527282
vt 0.94499826 0.23923779
vt 0.46300977 0.95972764
vt 0.46300974 0.8734243
vt 0.4046383 0.891659
vt 0.3907832 0.9822959
vt 0.33973265 0.6891366
vt 0.38841653 0.7328403
vt 0.3845024 0.68766576
vt 0.3211038 0.72103876
vt 0.33401203 0.7718226
vt 0.30249643 0.7674545
vt 0.2890668 0.8643415
vt 0.28536034 0.86382776
vt 0.36331463 0.775884
vt 0.34466767 0.86251265
vt 0.34229612 0.862184
vt 0.381521 0.7784073
vt 0.4243176 0.7598102
vt 0.39576674 0.8643415
vt 0.3925717 0.8638987
vt 0.41323447 0.7878766
vt 0.45207405 0.8251667
vt 0.44748878 0.83148295
vt 0.26932418 0.97108996
vt 0.2466892 0.8879354
vt 0.24062872 0.888224
vt 0.23233974 0.97108996
vt 0.9928005 0.68157107
vt 0.96507454 0.66193813
vt 0.96694696 0.69532233
vt 0.9928005 0.65980536
vt 0.96688235 0.61351246
vt 0.9736223 0.6151574
vt 0.48939836 0.4925487
vt 0.49032724 0.49926412
vt 0.49286652 0.49926412
vt 0.49301994 0.49317682
vt 0.49172482 0.50834703
vt 0.48961535 0.50839996
vt 0.48939833 0.51219356
vt 0.49172482 0.512537
vt 0.9917692 0.17933309
vt 0.9656012 0.1000334
vt 0.9618075 0.10021782
vt 0.9594656 0.17933309
vt 0.22325695 0.9741243
vt 0.2186513 0.8881142
vt 0.21448505 0.8879354
vt 0.18636262 0.9741243
vt 0.49275675 0.47522604
vt 0.48939833 0.4755031
vt 0.48960087 0.48318326
vt 0.49275675 0.48346603
vt 0.991629 0.08838332
vt 0.991629 0.004541397
vt 0.9834006 0.0048244
vt 0.9594656 0.09095073
vt 0.8674491 0.28671396
vt 0.8674491 0.19961786
vt 0.86016077 0.19722354
vt 0.8403701 0.27603197
vt 0.74890864 0.33473623
vt 0.66713095 0.40442336
vt 0.6717679 0.31027758
vt 0.68728566 0.4108137
vt 0.7965842 0.40015852
vt 0.6663609 0.43831098
vt 0.6997419 0.4279067
vt 0.7965842 0.48155546
vt 0.6997419 0.4491734
vt 0.7489086 0.5478362
vt 0.6872856 0.46649063
vt 0.66713095 0.47324383
vt 0.67176783 0.5736836
vt 0.9637046 0.45414358
vt 0.96895975 0.5964614
vt 0.93541497 0.5978774
vt 0.93010426 0.45405513
vt 0.96895975 0.2798921
vt 0.93541497 0.2779616
vt 0.11693096 0.6796261
vt 0.115820885 0.5862611
vt 0.17640781 0.5801308
vt 0.16803193 0.630366
vt 0.17727995 0.65348226
vt 0.15565658 0.67443293
vt 0.15847087 0.7843158
vt 0.12917185 0.7872804
vt 0.06099415 0.68868005
vt 0.07220554 0.7872804
vt 0.004541397 0.70104825
vt 0.013733864 0.7818932
vt 0.41405088 0.48246205
vt 0.48031563 0.50047475
vt 0.4735523 0.5689744
vt 0.40580213 0.5660057
vt 0.35368103 0.47522599
vt 0.48031563 0.6502857
vt 0.41405088 0.6651749
vt 0.34467483 0.56644106
vt 0.35368103 0.67471635
vt 0.30095118 0.6785831
vt 0.28536028 0.57079065
vt 0.72617555 0.23695126
vt 0.7150438 0.30119494
vt 0.6334386 0.2987338
vt 0.62664795 0.23394963
vt 0.5667885 0.30119494
vt 0.73265326 0.17673379
vt 0.54536 0.23695126
vt 0.6239867 0.17345652
vt 0.73444176 0.11545947
vt 0.5352346 0.17673379
vt 0.6257751 0.11218226
vt 0.7502142 0.008557349
vt 0.53609943 0.14710242
vt 0.61705065 0.0045413673
vt 0.508291 0.008557409
vt 0.6136563 0.78230274
vt 0.6041634 0.87777376
vt 0.59442616 0.80247563
vt 0.6276983 0.8904389
vt 0.6210798 0.77578527
vt 0.6383977 0.9074241
vt 0.51326406 0.89050305
vt 0.508291 0.9074241
vt 0.63353 0.33707404
vt 0.6572782 0.3638705
vt 0.5797186 0.47161484
vt 0.5440047 0.4614408
vt 0.60978174 0.3102777
vt 0.5797185 0.60484517
vt 0.5082909 0.45126677
vt 0.5440047 0.6152253
vt 0.6572782 0.7126719
vt 0.5082909 0.6256056
vt 0.63353 0.73968726
vt 0.60978174 0.7667026
vt 0.10771382 0.06026554
vt 0.27465045 0.004541397
vt 0.27627754 0.042261958
vt 0.13032222 0.090982676
vt 0.004541397 0.20289826
vt 0.27627754 0.53756785
vt 0.040116906 0.21568859
vt 0.004541397 0.37795854
vt 0.13032222 0.49169338
vt 0.27465045 0.57104814
vt 0.10771382 0.51857924
vt 0.040116906 0.36874652
vt 0.46823847 0.17876983
vt 0.4316672 0.0045413375
vt 0.49920815 0.16713661
vt 0.40140402 0.017875373
vt 0.3697834 0.04301536
vt 0.4287382 0.18494064
vt 0.49920815 0.3224484
vt 0.33816284 0.06815541
vt 0.45605665 0.31167978
vt 0.38923794 0.19111145
vt 0.30002677 0.09147996
vt 0.34136087 0.2035042
vt 0.4129051 0.30091113
vt 0.3427356 0.23802859
vt 0.37234122 0.27309045
vt 0.28536028 0.32351992
vt 0.40577763 0.30731925
vt 0.29442835 0.32775104
vt 0.39255768 0.3331457
vt 0.30128193 0.34407
vt 0.3696847 0.4130204
vt 0.316028 0.41050625
vt 0.34918767 0.46614328
vt 0.3190418 0.44240487
vt 0.88015616 0.4308536
vt 0.8883019 0.2813499
vt 0.92102146 0.2779616
vt 0.9127896 0.42904556
vt 0.8883019 0.604403
vt 0.92102146 0.6044296
vt 0.92042327 0.8231498
vt 0.9529158 0.7990128
vt 0.95599186 0.8245685
vt 0.92184687 0.79769146
vt 0.944216 0.7720341
vt 0.9131471 0.77071285
vt 0.9262327 0.7379135
vt 0.8992187 0.71540093
vt 0.95599186 0.6287955
vt 0.9359044 0.61351234
vt 0.4951718 0.690281
vt 0.4951718 0.78983396
vt 0.46115664 0.7574903
vt 0.4716521 0.68766576
vt 0.7756655 0.19722342
vt 0.8312873 0.20070249
vt 0.8263372 0.22392666
vt 0.7595817 0.25615913
vt 0.7592969 0.23126322
vt 0.8312873 0.26076448
vt 0.76217866 0.27623308
vt 0.1528058 0.9954586
vt 0.14940989 0.86111856
vt 0.17297757 0.9805787
vt 0.120639086 0.8822142
vt 0.16705024 0.8451873
vt 0.13673139 0.8455496
vt 0.17297757 0.7963631
vt 0.14265871 0.79672545
vt 0.96449995 0.949986
vt 0.9583186 0.8374158
vt 0.9768403 0.8341253
vt 0.97394526 0.9589685
vt 0.9370234 0.9511169
vt 0.91514146 0.9589685
vt 0.91664225 0.8441341
vt 0.91131157 0.845767
vt 0.9047306 0.84629834
vt 0.24212086 0.62085164
vt 0.25492644 0.58013093
vt 0.26272297 0.58408916
vt 0.23041713 0.6148417
vt 0.21321535 0.68580496
vt 0.19992411 0.6859044
vt 0.20205033 0.74947226
vt 0.18636262 0.7531501
vt 0.21767807 0.81040287
vt 0.20473075 0.816103
vt 0.26272297 0.85745966
vt 0.24731362 0.8788526
vt 0.8921899 0.8861185
vt 0.8443022 0.8430877
vt 0.8956479 0.8341253
vt 0.8160554 0.8729528
vt 0.89046186 0.93449223
vt 0.80566704 0.93307245
vt 0.8956479 0.9850062
vt 0.80715513 0.98099226
vt 0.0045413673 0.7963631
vt 0.109398395 0.8257038
vt 0.11155632 0.87074345
vt 0.020405829 0.86897737
vt 0.11155632 0.9283557
vt 0.025079906 0.92566746
vt 0.6663609 0.9029835
vt 0.7696104 0.8577449
vt 0.76336145 0.9226998
vt 0.6672575 0.935741
vt 0.7592356 0.97535855
vt 0.6669169 0.97535855
vt 0.4611566 0.8497342
vt 0.47014856 0.7989167
vt 0.47845495 0.8009338
vt 0.49111164 0.8497342
vt 0.81213677 0.75574785
vt 0.8746209 0.82504255
vt 0.8302027 0.7971086
vt 0.88416404 0.76295877
vt 0.80867016 0.6788735
vt 0.8901358 0.683446
vt 0.8056669 0.61351246
vt 0.8901358 0.61675274
vt 0.37431955 0.9788019
vt 0.3817004 0.8734242
vt 0.38170052 0.98294646
vt 0.37556243 0.88998085
vt 0.3596846 0.9653265
vt 0.36173642 0.90428126
vt 0.28536034 0.99293786
vt 0.28748286 0.9440813
vt 0.77717674 0.84866214
vt 0.66636086 0.7922282
vt 0.6815368 0.7817943
vt 0.773233 0.8210635
vt 0.7190927 0.7010453
vt 0.77717674 0.71481943
vt 0.7315622 0.6027491
vt 0.77293515 0.5827663
vt 0.85305345 0.004541397
vt 0.88581395 0.016323805
vt 0.8962079 0.04791403
vt 0.835325 0.033143044
vt 0.8278594 0.07929158
vt 0.80595624 0.07329798
vt 0.8049116 0.04293132
vt 0.761392 0.100438714
vt 0.7592969 0.09293687
vt 0.8453431 0.08353317
vt 0.7974168 0.15218425
vt 0.7943485 0.1514399
vt 0.8690835 0.089292884
vt 0.8887423 0.09406233
vt 0.8962079 0.18814075
vt 0.89389586 0.18757987
vt 0.84576 0.16708875
vt 0.8438386 0.16662264
vt 0.8710735 0.55522037
vt 0.8344184 0.6044297
vt 0.8115202 0.47985578
vt 0.8448831 0.47617984
vt 0.8056669 0.43957376
vt 0.845904 0.44754577
vt 0.8194058 0.39450574
vt 0.85972285 0.40285373
vt 0.8647268 0.3102777
vt 0.8710735 0.31191897
vt 0.92572474 0.0045413673
vt 0.9503828 0.045675993
vt 0.938638 0.10348278
vt 0.9052907 0.093052626
vt 0.9359654 0.14035517
vt 0.90686154 0.14094281
vt 0.94255674 0.16220856
vt 0.91653895 0.1708278
vt 0.94892144 0.22975874
vt 0.943537 0.2337237
vt 0.9503828 0.23527282
vt 0.94499826 0.23923779
vt 0.46300977 0.95972764
vt 0.3907832 0.9822959
vt 0.4046383 0.891659
vt 0.46300974 0.8734243
vt 0.33973265 0.6891366
vt 0.3845024 0.68766576
vt 0.38841653 0.7328403
vt 0.3211038 0.72103876
vt 0.381521 0.7784073
vt 0.4243176 0.7598102
vt 0.41323447 0.7878766
vt 0.45207405 0.8251667
vt 0.44748878 0.83148295
vt 0.36331463 0.775884
vt 0.39576674 0.8643415
vt 0.3925717 0.8638987
vt 0.33401203 0.7718226
vt 0.34466767 0.86251265
vt 0.34229612 0.862184
vt 0.30249643 0.7674545
vt 0.2890668 0.8643415
vt 0.28536034 0.86382776
vt 0.26932418 0.97108996
vt 0.23233974 0.97108996
vt 0.24062872 0.888224
vt 0.2466892 0.8879354
vt 0.9928005 0.68157107
vt 0.96694696 0.69532233
vt 0.96507454 0.66193813
vt 0.9928005 0.65980536
vt 0.96688235 0.61351246
vt 0.9736223 0.6151574
vt 0.48939836 0.4925487
vt 0.49301994 0.49317682
vt 0.49286652 0.49926412
vt 0.49032724 0.49926412
vt 0.49172482 0.50834703
vt 0.49172482 0.512537
vt 0.48939833 0.51219356
vt 0.48961535 0.50839996
vt 0.9917692 0.17933309
vt 0.9594656 0.17933309
vt 0.9618075 0.10021782
vt 0.9656012 0.1000334
vt 0.22325695 0.9741243
vt 0.18636262 0.9741243
vt 0.21448505 0.8879354
vt 0.2186513 0.8881142
vt 0.49275675 0.47522604
vt 0.49275675 0.48346603
vt 0.48960087 0.48318326
vt 0.48939833 0.4755031
vt 0.991629 0.08838332
vt 0.9594656 0.09095073
vt 0.9834006 0.0048244
vt 0.991629 0.004541397
vt 0.8674491 0.28671396
vt 0.8403701 0.27603197
vt 0.86016077 0.19722354
vt 0.8674491 0.19961786
vn 0.6733751 -0.5513236 0.40779614
vn 0.3904618 -0.69829905 0.5333337
vn 0.7589571 -0.25431833 0.57705766
vn 0.8609948 -0.18833396 0.44000804
vn 0.86616766 -0.196337 0.3294962
vn 0.81347215 0.057354294 0.5787689
vn 0.9154185 -0.03058235 0.35708946
vn 0.842272 0.24042834 0.36027038
vn 0.8997712 0.1585632 0.36009264
vn 0.59928215 0.6066591 0.4571759
vn 0.8159737 0.3065695 0.45053
vn 0.6858661 0.35618624 0.5983786
vn 0.23024857 0.7341071 0.6043104
vn 0.6788875 0.52701163 0.4524789
vn 0.8911668 0.088984296 -0.42534298
vn 0.885894 -0.017098654 0.40008193
vn 0.6831819 0.5974356 -0.36277026
vn 0.1834187 0.83742094 0.4734035
vn 0.16440412 0.8877853 -0.34677792
vn 0.45683005 -0.49586195 -0.7313298
vn 0.30812714 -0.65947264 -0.6770685
vn 0.53964645 -0.81695855 -0.02046489
vn 0.8500009 -0.42450425 -0.09539153
vn 0.3447249 -0.51925206 -0.77498364
vn 0.6423767 -0.7204533 -0.0940638
vn 0.9429186 0.07891508 0.14155483
vn 0.93469846 0.14686742 0.00285694
vn 0.8996804 -0.31413868 0.028380156
vn 0.911993 0.24557632 0.07739249
vn 0.86616766 -0.196337 0.3294962
vn 0.842272 0.24042834 0.36027038
vn 0.8996804 -0.31413868 0.028380156
vn 0.6733751 -0.5513236 0.40779614
vn 0.86616766 -0.196337 0.3294962
vn 0.6122818 -0.7483375 0.107611015
vn 0.8500009 -0.42450425 -0.09539153
vn 0.3904618 -0.69829905 0.5333337
vn 0.12043811 -0.93093973 0.27898553
vn 0.53964645 -0.81695855 -0.02046489
vn -0.01680041 -0.9781408 0.0937282
vn -0.14526126 -0.8204714 -0.54435706
vn 0.30812714 -0.65947264 -0.6770685
vn 0.09023186 0.9318613 0.31981167
vn 0.59928215 0.6066591 0.4571759
vn 0.23024857 0.7341071 0.6043104
vn 0.59732974 0.747568 0.17073405
vn 0.842272 0.24042834 0.36027038
vn 0.068171754 0.9720875 0.13954283
vn 0.911993 0.24557632 0.07739249
vn 0.61348647 0.74639446 0.026655197
vn 0.13016845 0.9499201 0.21917014
vn 0.93469846 0.14686742 0.00285694
vn 0.6751337 0.6767179 0.18119395
vn 0.15896326 0.75545424 0.6125725
vn 0.9429186 0.07891508 0.14155483
vn 0.60036856 0.5025082 0.5825294
vn 0.8153057 -0.04659117 0.5203584
vn 0.7218063 -0.65772945 -0.14547017
vn 0.51248807 -0.6393893 -0.56583226
vn 0.96014726 0.18519911 -0.16113219
vn 0.97134686 -0.14423667 -0.057621308
vn 0.5966227 -0.6628624 0.394269
vn 0.8153057 -0.04659117 0.5203584
vn 0.8028561 -0.17765495 0.48561898
vn 0.9429186 0.07891508 0.14155483
vn 0.14558575 0.6132635 0.75758296
vn 0.60036856 0.5025082 0.5825294
vn 0.15896326 0.75545424 0.6125725
vn 0.51019436 0.37928122 0.7399318
vn 0.1834187 0.83742094 0.4734035
vn 0.8153057 -0.04659117 0.5203584
vn 0.6788875 0.52701163 0.4524789
vn 0.65803254 -0.080538064 0.7060124
vn 0.5966227 -0.6628624 0.394269
vn 0.885894 -0.017098654 0.40008193
vn 0.5323482 -0.4840315 0.65213734
vn 0.7375118 -0.5419934 0.33725533
vn 0.35340816 -0.77736723 -0.49938884
vn -0.046774037 -0.2079018 -0.9657806
vn -0.18494079 -0.8352054 -0.48787814
vn 0.1247636 -0.1783637 -0.9664707
vn 0.75344974 -0.4295398 -0.48793644
vn 0.23564501 0.304526 -0.903338
vn 0.032609373 0.35880738 -0.90428156
vn 0.16440412 0.8877853 -0.34677792
vn 0.6831819 0.5974356 -0.36277026
vn 0.25629956 -0.04513768 -0.95649177
vn 0.8911668 0.088984296 -0.42534298
vn 0.29809234 0.1304852 -0.93395245
vn 0.3489265 -0.8509458 0.33795798
vn 0.35340816 -0.77736723 -0.49938884
vn -0.18494079 -0.8352054 -0.48787814
vn -0.19672775 -0.89860046 0.3534667
vn -0.15011938 -0.69892627 0.6846544
vn 0.2614091 -0.6701703 0.665815
vn 0.7375118 -0.5419934 0.33725533
vn -0.16049337 -0.7834447 0.5857125
vn 0.5323482 -0.4840315 0.65213734
vn 0.300005 -0.759753 0.539314
vn -0.10653994 -0.5506812 0.8220295
vn 0.19044524 -0.567295 0.7746876
vn 0.5966227 -0.6628624 0.394269
vn 0.2742772 -0.35073802 0.8660548
vn -0.14364971 -0.4275862 0.8681508
vn 0.6423767 -0.7204533 -0.0940638
vn 0.7218063 -0.65772945 -0.14547017
vn 0.5169931 -0.76022637 0.2834344
vn 0.51248807 -0.6393893 -0.56583226
vn -0.14758044 -0.7971163 0.5529435
vn 0.09080549 -0.44432727 -0.8912508
vn -0.8905309 -0.42509907 0.16200545
vn 0.27135324 -0.13304013 -0.95324075
vn -0.93282557 0.023334742 -0.35957193
vn 0.7375118 -0.5419934 0.33725533
vn 0.35340816 -0.77736723 -0.49938884
vn 0.3489265 -0.8509458 0.33795798
vn 0.75344974 -0.4295398 -0.48793644
vn 0.885894 -0.017098654 0.40008193
vn 0.8911668 0.088984296 -0.42534298
vn 0.6423767 -0.7204533 -0.0940638
vn -0.22902437 -0.8971538 -0.269661
vn 0.54409015 -0.62613994 -0.5391947
vn 0.3447249 -0.51925206 -0.77498364
vn 0.5460912 -0.5745486 -0.59547865
vn 0.45683005 -0.49586195 -0.7313298
vn 0.5352125 -0.59052455 -0.59147286
vn 0.30812714 -0.65947264 -0.6770685
vn -0.13343698 -0.6761201 -0.71877503
vn -0.14526126 -0.8204714 -0.54435706
vn -0.14364971 -0.4275862 0.8681508
vn -0.12692037 -0.5395936 0.8003187
vn -0.22902437 -0.8971538 -0.269661
vn 0.6423767 -0.7204533 -0.0940638
vn 0.52830017 -0.32054907 0.74833816
vn 0.15400024 -0.43633753 0.861349
vn 0.5352125 -0.59052455 -0.59147286
vn 0.54409015 -0.62613994 -0.5391947
vn 0.5460912 -0.5745486 -0.59547865
vn -0.12692037 -0.5395936 0.8003187
vn -0.22902437 -0.8971538 -0.269661
vn -0.10653994 -0.5506812 0.8220295
vn -0.081427634 -0.4433334 0.8895531
vn 0.15400024 -0.43633753 0.861349
vn 0.19044524 -0.567295 0.7746876
vn 0.52830017 -0.32054907 0.74833816
vn 0.2742772 -0.35073802 0.8660548
vn -0.12692037 -0.5395936 0.8003187
vn -0.14364971 -0.4275862 0.8681508
vn 0.59470224 -0.7830059 -0.042663313
vn -0.081427634 -0.4433334 0.8895531
vn -0.10644967 -0.6380373 -0.7626117
vn 0.15400024 -0.43633753 0.861349
vn 0.5619972 -0.6942566 0.38863632
vn 0.5352125 -0.59052455 -0.59147286
vn -0.035930626 -0.4970592 0.8575155
vn -0.11335199 -0.94855493 0.26706177
vn -0.13343698 -0.6761201 -0.71877503
vn 0.8839754 0.15977523 -0.43938524
vn 0.6200125 0.20618789 -0.7570144
vn 0.37323377 -0.82113254 -0.43178415
vn 0.47587812 -0.87810636 0.049686726
vn 0.93198776 0.17636065 -0.316695
vn 0.48083586 -0.792433 0.37529504
vn 0.92765236 0.074986145 -0.3658394
vn 0.49424848 -0.623209 0.6060767
vn 0.8697327 -0.1365624 -0.4738209
vn 0.5565643 -0.38778993 0.73094034
vn 0.59470224 -0.7830059 -0.042663313
vn 0.5619972 -0.6942566 0.38863632
vn 0.152428 0.91360414 -0.37695158
vn 0.077675655 0.46556038 -0.8816006
vn 0.6200125 0.20618789 -0.7570144
vn 0.8839754 0.15977523 -0.43938524
vn 0.14177111 0.84972966 -0.5077989
vn 0.93198776 0.17636065 -0.316695
vn 0.10728306 0.6430169 -0.7583003
vn 0.92765236 0.074986145 -0.3658394
vn 0.5619972 -0.6942566 0.38863632
vn -0.05011459 -0.30036303 0.95250756
vn -0.035930626 -0.4970592 0.8575155
vn 0.5565643 -0.38778993 0.73094034
vn -0.10620652 -0.6365644 0.7638753
vn 0.49424848 -0.623209 0.6060767
vn -0.10644967 -0.6380373 -0.7626117
vn 0.8697327 -0.1365624 -0.4738209
vn 0.59470224 -0.7830059 -0.042663313
vn 0.048337407 0.28971115 -0.9558927
vn 0.92765236 0.074986145 -0.3658394
vn 0.10728306 0.6430169 -0.7583003
vn 0.077675655 0.46556038 -0.8816006
vn -0.13083035 -0.784158 -0.6066129
vn 0.37323377 -0.82113254 -0.43178415
vn 0.6200125 0.20618789 -0.7570144
vn 0.47587812 -0.87810636 0.049686726
vn 0.37323377 -0.82113254 -0.43178415
vn -0.13083035 -0.784158 -0.6066129
vn -0.15763032 -0.9447856 0.2872841
vn 0.48083586 -0.792433 0.37529504
vn -0.14159364 -0.84866583 0.50962466
vn 0.49424848 -0.623209 0.6060767
vn -0.10620652 -0.6365644 0.7638753
vn 0.5169931 -0.76022637 0.2834344
vn 0.6423767 -0.7204533 -0.0940638
vn 0.9429186 0.07891508 0.14155483
vn 0.8028561 -0.17765495 0.48561898
vn -0.14758044 -0.7971163 0.5529435
vn 0.4785319 0.058046445 0.8499149
vn -0.8905309 -0.42509907 0.16200545
vn 0.1802186 0.18999791 0.9651022
vn 0.97134686 -0.14423667 -0.057621308
vn 0.4785319 0.058046445 0.8499149
vn 0.8028561 -0.17765495 0.48561898
vn 0.96014726 0.18519911 -0.16113219
vn 0.1802186 0.18999791 0.9651022
vn 0.9555964 0.28972283 -0.053817645
vn -0.1188752 0.27878997 0.95296645
vn 0.9651923 0.09279356 0.24452677
vn -0.93282557 0.023334742 -0.35957193
vn 0.4594155 -0.020124376 -0.88799363
vn 0.27135324 -0.13304013 -0.95324075
vn -0.51568824 0.6138774 -0.5976792
vn -0.34030396 -0.052428335 -0.9388529
vn 0.28643432 -0.056901246 -0.95640874
vn 0.13649203 -0.6267669 -0.76715946
vn -0.8027281 -0.4806179 -0.35303622
vn -0.359047 -0.0143042505 -0.9332101
vn 0.08687131 -0.67349494 -0.7340697
vn -0.84983414 -0.38058692 -0.36460412
vn -0.5665449 -0.05332993 -0.82230353
vn 0.0033210143 -0.6476439 -0.76193607
vn -0.91418386 -0.20825458 -0.3477046
vn -0.119516596 -0.4196638 -0.89977694
vn -0.32719648 0.76366454 -0.5565599
vn -0.31722933 -0.5998602 -0.73452944
vn -0.72771674 0.45005167 -0.5175734
vn 0.09080549 -0.44432727 -0.8912508
vn 0.9651923 0.09279356 0.24452677
vn 0.9555964 0.28972283 -0.053817645
vn 0.27135324 -0.13304013 -0.95324075
vn 0.86847144 -0.07441178 0.4901232
vn 0.4594155 -0.020124376 -0.88799363
vn 0.8547179 -0.29448003 0.42748028
vn 0.28643432 -0.056901246 -0.95640874
vn 0.53002036 -0.8213587 0.2108286
vn 0.13649203 -0.6267669 -0.76715946
vn 0.1802186 0.18999791 0.9651022
vn -0.93282557 0.023334742 -0.35957193
vn -0.8905309 -0.42509907 0.16200545
vn -0.1188752 0.27878997 0.95296645
vn -0.51568824 0.6138774 -0.5976792
vn -0.1592593 0.4151572 0.8957016
vn -0.32719648 0.76366454 -0.5565599
vn -0.3289257 0.5725976 0.75095946
vn -0.72771674 0.45005167 -0.5175734
vn -0.83805025 0.1841995 0.513559
vn -0.31722933 -0.5998602 -0.73452944
vn -0.58212334 -0.7766398 0.24075592
vn 0.51248807 -0.6393893 -0.56583226
vn 0.09080549 -0.44432727 -0.8912508
vn 0.9555964 0.28972283 -0.053817645
vn 0.96014726 0.18519911 -0.16113219
vn 0.9651923 0.09279356 0.24452677
vn -0.1592593 0.4151572 0.8957016
vn -0.1188752 0.27878997 0.95296645
vn 0.86847144 -0.07441178 0.4901232
vn 0.064964496 -0.29229623 0.95411885
vn 0.8547179 -0.29448003 0.42748028
vn -0.5184309 -0.59281635 0.61627775
vn 0.53002036 -0.8213587 0.2108286
vn 0.04765059 -0.2987946 0.95312715
vn -0.6125415 -0.5178211 0.59720564
vn 0.37643924 -0.87488055 0.3047589
vn -0.17111349 -0.26299566 0.94950175
vn -0.3289257 0.5725976 0.75095946
vn -0.68748975 -0.37969372 0.619024
vn 0.25027117 -0.90278184 0.34978488
vn -0.026311979 -0.7220397 0.69135106
vn -0.83805025 0.1841995 0.513559
vn -0.58212334 -0.7766398 0.24075592
vn 0.064964496 -0.29229623 0.95411885
vn -0.5184309 -0.59281635 0.61627775
vn -0.8027281 -0.4806179 -0.35303622
vn -0.34030396 -0.052428335 -0.9388529
vn -0.5665449 -0.05332993 -0.82230353
vn -0.026311979 -0.7220397 0.69135106
vn -0.17111349 -0.26299566 0.94950175
vn -0.119516596 -0.4196638 -0.89977694
vn -0.58212334 -0.7766398 0.24075592
vn -0.31722933 -0.5998602 -0.73452944
vn 0.53002036 -0.8213587 0.2108286
vn 0.13649203 -0.6267669 -0.76715946
vn -0.8027281 -0.4806179 -0.35303622
vn -0.5184309 -0.59281635 0.61627775
vn 0.08687131 -0.67349494 -0.7340697
vn -0.84983414 -0.38058692 -0.36460412
vn -0.6125415 -0.5178211 0.59720564
vn 0.37643924 -0.87488055 0.3047589
vn 0.04765059 -0.2987946 0.95312715
vn -0.6125415 -0.5178211 0.59720564
vn -0.84983414 -0.38058692 -0.36460412
vn -0.359047 -0.0143042505 -0.9332101
vn -0.34030396 -0.052428335 -0.9388529
vn 0.08687131 -0.67349494 -0.7340697
vn 0.37643924 -0.87488055 0.3047589
vn 0.064964496 -0.29229623 0.95411885
vn 0.0033210143 -0.6476439 -0.76193607
vn -0.91418386 -0.20825458 -0.3477046
vn -0.68748975 -0.37969372 0.619024
vn 0.25027117 -0.90278184 0.34978488
vn -0.359047 -0.0143042505 -0.9332101
vn 0.0033210143 -0.6476439 -0.76193607
vn 0.25027117 -0.90278184 0.34978488
vn 0.04765059 -0.2987946 0.95312715
vn -0.17111349 -0.26299566 0.94950175
vn -0.68748975 -0.37969372 0.619024
vn -0.91418386 -0.20825458 -0.3477046
vn -0.5665449 -0.05332993 -0.82230353
vn -0.040494025 -0.58806515 0.76533043
vn 0.7589571 -0.25431833 0.57705766
vn 0.3904618 -0.69829905 0.5333337
vn 0.64171904 -0.2037941 0.71906435
vn -0.31353357 -0.2580595 0.87199724
vn 0.81347215 0.057354294 0.5787689
vn 0.5592054 -0.055697303 0.806614
vn -0.37306622 0.19221754 0.8633186
vn 0.5422741 0.1333577 0.80780673
vn -0.1611163 0.578875 0.76494706
vn 0.59355474 0.29088774 0.7251568
vn 0.6858661 0.35618624 0.5983786
vn 0.23024857 0.7341071 0.6043104
vn -0.5153081 0.703953 0.43955505
vn -0.82514596 0.2254688 0.4598958
vn -0.86167985 0.20469278 -0.38212442
vn -0.57939166 0.66029245 -0.39919856
vn 0.1834187 0.83742094 0.4734035
vn 0.16440412 0.8877853 -0.34677792
vn -0.7942592 -0.44398987 0.34665447
vn -0.49254152 -0.82049155 0.23096114
vn -0.51259965 -0.6592746 -0.5264866
vn -0.6324389 -0.53414637 -0.52493095
vn -0.49940822 -0.61823523 -0.57416993
vn -0.66172177 -0.6809535 0.23185045
vn -0.8992112 0.20241025 0.3008478
vn -0.89734143 0.18666874 0.31326655
vn -0.6936005 -0.37176943 0.5713444
vn -0.76541394 0.21499845 0.5549793
vn -0.31353357 -0.2580595 0.87199724
vn -0.37306622 0.19221754 0.8633186
vn -0.6936005 -0.37176943 0.5713444
vn -0.31353357 -0.2580595 0.87199724
vn -0.040494025 -0.58806515 0.76533043
vn -0.34554106 -0.78514737 0.47589213
vn -0.7942592 -0.44398987 0.34665447
vn 0.3904618 -0.69829905 0.5333337
vn 0.12043811 -0.93093973 0.27898553
vn -0.49254152 -0.82049155 0.23096114
vn -0.01680041 -0.9781408 0.0937282
vn -0.14526126 -0.8204714 -0.54435706
vn -0.51259965 -0.6592746 -0.5264866
vn 0.09023186 0.9318613 0.31981167
vn 0.23024857 0.7341071 0.6043104
vn -0.1611163 0.578875 0.76494706
vn -0.4685693 0.7330579 0.46034917
vn -0.37306622 0.19221754 0.8633186
vn 0.068171754 0.9720875 0.13954283
vn -0.76541394 0.21499845 0.5549793
vn -0.5618745 0.76945007 0.23586148
vn 0.13016845 0.9499201 0.21917014
vn -0.89734143 0.18666874 0.31326655
vn -0.52810097 0.7886779 0.24138658
vn 0.15896326 0.75545424 0.6125725
vn -0.8992112 0.20241025 0.3008478
vn -0.42399615 0.6658998 0.5899647
vn -0.7580277 0.20113836 0.57995325
vn -0.79527915 -0.53986305 0.044015083
vn -0.9291169 0.23122267 -0.18641423
vn -0.5779718 -0.7306757 -0.31694996
vn -0.96149176 0.00016421161 0.03583562
vn -0.663993 -0.42997518 0.56041014
vn -0.7580277 0.20113836 0.57995325
vn -0.74096614 0.021129292 0.64224
vn -0.8992112 0.20241025 0.3008478
vn 0.14558575 0.6132635 0.75758296
vn 0.15896326 0.75545424 0.6125725
vn -0.42399615 0.6658998 0.5899647
vn -0.35405797 0.55024856 0.74292374
vn 0.1834187 0.83742094 0.4734035
vn -0.7580277 0.20113836 0.57995325
vn -0.5153081 0.703953 0.43955505
vn -0.60053253 0.16783454 0.7621455
vn -0.663993 -0.42997518 0.56041014
vn -0.82514596 0.2254688 0.4598958
vn -0.57306504 -0.23943387 0.75809574
vn -0.7989414 -0.3050298 0.45270896
vn -0.5470383 -0.69654316 -0.41671795
vn -0.18494079 -0.8352054 -0.48787814
vn -0.046774037 -0.2079018 -0.9657806
vn -0.19909537 -0.23275515 -0.9493333
vn -0.8300069 -0.3108757 -0.39069235
vn 0.032609373 0.35880738 -0.90428156
vn -0.3031783 -0.11098792 -0.9404253
vn -0.86167985 0.20469278 -0.38212442
vn -0.25627023 0.17834713 -0.93910587
vn 0.16440412 0.8877853 -0.34677792
vn -0.57939166 0.66029245 -0.39919856
vn -0.32147464 0.046949252 -0.9365036
vn -0.5357198 -0.6925599 0.4263116
vn -0.18494079 -0.8352054 -0.48787814
vn -0.5470383 -0.69654316 -0.41671795
vn -0.19672775 -0.89860046 0.3534667
vn -0.15011938 -0.69892627 0.6846544
vn -0.39552885 -0.5180139 0.7354431
vn -0.7989414 -0.3050298 0.45270896
vn -0.16049337 -0.7834447 0.5857125
vn -0.57306504 -0.23943387 0.75809574
vn -0.45118198 -0.6084841 0.6196271
vn -0.10653994 -0.5506812 0.8220295
vn -0.27127632 -0.44194433 0.83836687
vn -0.663993 -0.42997518 0.56041014
vn -0.27226892 -0.18134281 0.9349898
vn 0.13246691 -0.27738824 0.93994796
vn -0.66172177 -0.6809535 0.23185045
vn -0.79527915 -0.53986305 0.044015083
vn -0.49561536 -0.6162677 0.594096
vn -0.5779718 -0.7306757 -0.31694996
vn 0.15126553 -0.5687981 0.80548126
vn -0.1359311 -0.7441504 -0.65403605
vn 0.86879194 -0.3842912 0.31228292
vn -0.30012807 -0.46969125 -0.83024895
vn 0.9241924 -0.17199668 -0.34100637
vn -0.7989414 -0.3050298 0.45270896
vn -0.5357198 -0.6925599 0.4263116
vn -0.5470383 -0.69654316 -0.41671795
vn -0.8300069 -0.3108757 -0.39069235
vn -0.82514596 0.2254688 0.4598958
vn -0.86167985 0.20469278 -0.38212442
vn -0.66172177 -0.6809535 0.23185045
vn -0.653499 -0.6556383 -0.2952103
vn 0.14247075 -0.9607493 -0.052113876
vn -0.49940822 -0.61823523 -0.57416993
vn -0.6812107 -0.581283 -0.38280612
vn -0.6324389 -0.53414637 -0.52493095
vn -0.6983825 -0.5318258 -0.43621725
vn -0.51259965 -0.6592746 -0.5264866
vn -0.13343698 -0.6761201 -0.71877503
vn -0.14526126 -0.8204714 -0.54435706
vn 0.13246691 -0.27738824 0.93994796
vn -0.66172177 -0.6809535 0.23185045
vn 0.14247075 -0.9607493 -0.052113876
vn 0.1055266 -0.4114247 0.8879222
vn -0.6983825 -0.5318258 -0.43621725
vn -0.1798628 -0.31634885 0.9194002
vn -0.50666946 -0.12604587 0.8365268
vn -0.653499 -0.6556383 -0.2952103
vn -0.6812107 -0.581283 -0.38280612
vn 0.1055266 -0.4114247 0.8879222
vn 0.14247075 -0.9607493 -0.052113876
vn -0.10653994 -0.5506812 0.8220295
vn -0.1798628 -0.31634885 0.9194002
vn -0.081427634 -0.4433334 0.8895531
vn -0.27127632 -0.44194433 0.83836687
vn -0.50666946 -0.12604587 0.8365268
vn -0.27226892 -0.18134281 0.9349898
vn 0.1055266 -0.4114247 0.8879222
vn 0.13246691 -0.27738824 0.93994796
vn -0.7504764 -0.61727726 0.06499637
vn -0.10644967 -0.6380373 -0.7626117
vn -0.081427634 -0.4433334 0.8895531
vn -0.1798628 -0.31634885 0.9194002
vn -0.6283177 -0.5430223 0.5138472
vn -0.6983825 -0.5318258 -0.43621725
vn -0.035930626 -0.4970592 0.8575155
vn -0.11335199 -0.94855493 0.26706177
vn -0.13343698 -0.6761201 -0.71877503
vn -0.784224 0.43810123 -0.43938613
vn -0.6195958 -0.65548676 -0.43178466
vn -0.51949036 0.39630502 -0.757015
vn -0.7351773 -0.67605126 0.049686074
vn -0.82425135 0.46937498 -0.3166969
vn -0.7120533 -0.5934092 0.37529364
vn -0.85306156 0.37208322 -0.3658421
vn -0.6698019 -0.42899707 0.6060749
vn -0.8666762 0.13871872 -0.46928322
vn -0.6471045 -0.18241864 0.73742384
vn -0.7504764 -0.61727726 0.06499637
vn -0.6283177 -0.5430223 0.5138472
vn 0.152428 0.91360414 -0.37695158
vn -0.51949036 0.39630502 -0.757015
vn 0.077675655 0.46556038 -0.8816006
vn -0.784224 0.43810123 -0.43938613
vn 0.14177111 0.84972966 -0.5077989
vn -0.82425135 0.46937498 -0.3166969
vn 0.10728306 0.6430169 -0.7583003
vn -0.85306156 0.37208322 -0.3658421
vn -0.6283177 -0.5430223 0.5138472
vn -0.035930626 -0.4970592 0.8575155
vn -0.05011459 -0.30036303 0.95250756
vn -0.6471045 -0.18241864 0.73742384
vn -0.10620652 -0.6365644 0.7638753
vn -0.6698019 -0.42899707 0.6060749
vn -0.10644967 -0.6380373 -0.7626117
vn -0.7504764 -0.61727726 0.06499637
vn -0.8666762 0.13871872 -0.46928322
vn 0.048337407 0.28971115 -0.9558927
vn -0.85306156 0.37208322 -0.3658421
vn 0.10728306 0.6430169 -0.7583003
vn 0.077675655 0.46556038 -0.8816006
vn -0.51949036 0.39630502 -0.757015
vn -0.6195958 -0.65548676 -0.43178466
vn -0.13083035 -0.784158 -0.6066129
vn -0.7351773 -0.67605126 0.049686074
vn -0.13083035 -0.784158 -0.6066129
vn -0.6195958 -0.65548676 -0.43178466
vn -0.15763032 -0.9447856 0.2872841
vn -0.7120533 -0.5934092 0.37529364
vn -0.14159364 -0.84866583 0.50962466
vn -0.6698019 -0.42899707 0.6060749
vn -0.10620652 -0.6365644 0.7638753
vn -0.49561536 -0.6162677 0.594096
vn -0.8992112 0.20241025 0.3008478
vn -0.66172177 -0.6809535 0.23185045
vn -0.74096614 0.021129292 0.64224
vn 0.15126553 -0.5687981 0.80548126
vn -0.4114037 0.36068586 0.8293795
vn 0.86879194 -0.3842912 0.31228292
vn -0.14715324 0.5540843 0.81935126
vn -0.96149176 0.00016421161 0.03583562
vn -0.74096614 0.021129292 0.64224
vn -0.4114037 0.36068586 0.8293795
vn -0.9291169 0.23122267 -0.18641423
vn -0.14715324 0.5540843 0.81935126
vn -0.9388458 0.30458558 -0.16061169
vn 0.15608826 0.6132692 0.77429795
vn -0.9526278 0.23722813 0.19032386
vn 0.9241924 -0.17199668 -0.34100637
vn -0.30012807 -0.46969125 -0.83024895
vn -0.48002642 -0.32927185 -0.8131142
vn 0.5354527 0.307259 -0.7866907
vn 0.54369706 -0.39695045 -0.7394756
vn 0.07519243 -0.7373768 -0.6712837
vn 0.35663924 0.47252014 -0.80593604
vn 0.2662303 -0.8525809 -0.44969687
vn 0.7397484 0.17383423 -0.65004164
vn 0.33622682 -0.39067018 -0.8569298
vn -0.05703653 -0.88771087 -0.4568547
vn 0.8928835 -0.37998548 -0.24159999
vn 0.31525326 -0.42685732 -0.8475897
vn -0.31098908 -0.3997474 -0.86225736
vn -0.1889166 -0.8623837 -0.46968585
vn 0.7662505 -0.62653255 -0.14253904
vn -0.14124314 -0.89588016 -0.42124692
vn 0.8186114 -0.54151076 -0.1914206
vn -0.1359311 -0.7441504 -0.65403605
vn -0.9388458 0.30458558 -0.16061169
vn -0.9526278 0.23722813 0.19032386
vn -0.30012807 -0.46969125 -0.83024895
vn -0.8598296 0.17075053 0.4811836
vn -0.48002642 -0.32927185 -0.8131142
vn -0.8598641 -0.05697603 0.5073341
vn -0.31098908 -0.3997474 -0.86225736
vn -0.570237 -0.64526427 0.5083933
vn -0.1889166 -0.8623837 -0.46968585
vn -0.14715324 0.5540843 0.81935126
vn 0.86879194 -0.3842912 0.31228292
vn 0.9241924 -0.17199668 -0.34100637
vn 0.15608826 0.6132692 0.77429795
vn 0.5354527 0.307259 -0.7866907
vn 0.20272724 0.71479535 0.66930515
vn 0.35663924 0.47252014 -0.80593604
vn 0.37758955 0.7945906 0.47544932
vn 0.7397484 0.17383423 -0.65004164
vn 0.85858816 0.31498075 0.40449184
vn 0.2662303 -0.8525809 -0.44969687
vn 0.5430579 -0.65990555 0.51924235
vn -0.5779718 -0.7306757 -0.31694996
vn -0.9291169 0.23122267 -0.18641423
vn -0.9388458 0.30458558 -0.16061169
vn -0.1359311 -0.7441504 -0.65403605
vn -0.9526278 0.23722813 0.19032386
vn 0.15608826 0.6132692 0.77429795
vn 0.20272724 0.71479535 0.66930515
vn -0.8598296 0.17075053 0.4811836
vn 0.1777987 0.10898525 0.9780131
vn 0.37758955 0.7945906 0.47544932
vn 0.0016388744 -0.40413117 0.91469944
vn 0.85858816 0.31498075 0.40449184
vn 0.5430579 -0.65990555 0.51924235
vn -0.042492367 0.09059451 0.994981
vn 0.67912656 -0.15589912 0.71727437
vn -0.29238316 -0.6843357 0.66797954
vn -0.059385918 0.09801492 0.9934114
vn 0.5960797 -0.28709874 0.74984217
vn -0.41778195 -0.6681272 0.615682
vn -0.8598641 -0.05697603 0.5073341
vn 0.49837372 -0.34331998 0.79608727
vn -0.570237 -0.64526427 0.5083933
vn -0.059385918 0.09801492 0.9934114
vn 0.31525326 -0.42685732 -0.8475897
vn 0.7662505 -0.62653255 -0.14253904
vn 0.49837372 -0.34331998 0.79608727
vn 0.54369706 -0.39695045 -0.7394756
vn 0.1777987 0.10898525 0.9780131
vn 0.0016388744 -0.40413117 0.91469944
vn 0.07519243 -0.7373768 -0.6712837
vn 0.5430579 -0.65990555 0.51924235
vn 0.2662303 -0.8525809 -0.44969687
vn -0.570237 -0.64526427 0.5083933
vn 0.49837372 -0.34331998 0.79608727
vn 0.7662505 -0.62653255 -0.14253904
vn -0.1889166 -0.8623837 -0.46968585
vn -0.14124314 -0.89588016 -0.42124692
vn -0.41778195 -0.6681272 0.615682
vn 0.5960797 -0.28709874 0.74984217
vn 0.8186114 -0.54151076 -0.1914206
vn -0.042492367 0.09059451 0.994981
vn 0.33622682 -0.39067018 -0.8569298
vn 0.8186114 -0.54151076 -0.1914206
vn 0.5960797 -0.28709874 0.74984217
vn 0.31525326 -0.42685732 -0.8475897
vn -0.059385918 0.09801492 0.9934114
vn -0.41778195 -0.6681272 0.615682
vn -0.14124314 -0.89588016 -0.42124692
vn -0.05703653 -0.88771087 -0.4568547
vn -0.29238316 -0.6843357 0.66797954
vn 0.67912656 -0.15589912 0.71727437
vn 0.8928835 -0.37998548 -0.24159999
vn 0.33622682 -0.39067018 -0.8569298
vn -0.042492367 0.09059451 0.994981
vn -0.29238316 -0.6843357 0.66797954
vn -0.05703653 -0.88771087 -0.4568547
vn 0.1777987 0.10898525 0.9780131
vn 0.54369706 -0.39695045 -0.7394756
vn 0.8928835 -0.37998548 -0.24159999
vn 0.67912656 -0.15589912 0.71727437
g 0.0000_0
f 3/3/3 2/2/2 1/1/1
f 4/4/4 3/3/3 1/1/1
f 4/4/4 1/1/1 5/5/5
f 4/4/4 6/6/6 3/3/3
f 7/7/7 4/4/4 5/5/5
f 7/7/7 6/6/6 4/4/4
f 7/7/7 5/5/5 8/8/8
f 9/9/9 7/7/7 8/8/8
f 9/9/9 6/6/6 7/7/7
f 9/9/9 8/8/8 10/10/10
f 11/11/11 6/6/6 9/9/9
f 11/11/11 9/9/9 10/10/10
f 12/12/12 6/6/6 11/11/11
f 11/11/11 10/10/10 13/13/13
f 12/12/12 11/11/11 13/13/13
f 16/16/16 15/15/15 14/14/14
f 15/15/15 17/17/17 14/14/14
f 14/14/14 17/17/17 18/18/18
f 17/17/17 19/19/19 18/18/18
f 22/22/22 21/21/21 20/20/20
f 20/20/20 23/23/23 22/22/22
f 20/20/20 24/24/24 23/23/23
f 24/24/24 25/25/25 23/23/23
f 23/23/23 25/25/25 26/26/26
f 27/27/27 23/23/23 26/26/26
f 28/28/28 23/23/23 27/27/27
f 29/29/29 28/28/28 27/27/27
f 30/30/30 28/28/28 29/29/29
f 31/31/31 30/30/30 29/29/29
f 34/34/34 33/33/33 32/32/32
f 33/33/33 35/35/35 32/32/32
f 32/32/32 35/35/35 36/36/36
f 33/33/33 37/37/37 35/35/35
f 37/37/37 38/38/38 35/35/35
f 35/35/35 39/39/39 36/36/36
f 35/35/35 38/38/38 39/39/39
f 38/38/38 40/40/40 39/39/39
f 39/39/39 40/40/40 41/41/41
f 42/42/42 39/39/39 41/41/41
f 45/45/45 44/44/44 43/43/43
f 44/44/44 46/46/46 43/43/43
f 44/44/44 47/47/47 46/46/46
f 43/43/43 46/46/46 48/48/48
f 47/47/47 49/49/49 46/46/46
f 46/46/46 50/50/50 48/48/48
f 46/46/46 49/49/49 50/50/50
f 48/48/48 50/50/50 51/51/51
f 49/49/49 52/52/52 50/50/50
f 50/50/50 53/53/53 51/51/51
f 50/50/50 52/52/52 53/53/53
f 51/51/51 53/53/53 54/54/54
f 52/52/52 55/55/55 53/53/53
f 53/53/53 56/56/56 54/54/54
f 53/53/53 55/55/55 56/56/56
f 55/55/55 57/57/57 56/56/56
f 60/60/60 59/59/59 58/58/58
f 61/61/61 60/60/60 58/58/58
f 58/58/58 62/62/62 61/61/61
f 62/62/62 63/63/63 61/61/61
f 61/61/61 63/63/63 64/64/64
f 63/63/63 65/65/65 64/64/64
f 68/68/68 67/67/67 66/66/66
f 67/67/67 69/69/69 66/66/66
f 66/66/66 69/69/69 70/70/70
f 67/67/67 71/71/71 69/69/69
f 69/69/69 72/72/72 70/70/70
f 71/71/71 73/73/73 69/69/69
f 69/69/69 73/73/73 72/72/72
f 71/71/71 74/74/74 73/73/73
f 73/73/73 75/75/75 72/72/72
f 74/74/74 76/76/76 73/73/73
f 73/73/73 76/76/76 75/75/75
f 76/76/76 77/77/77 75/75/75
f 80/80/80 79/79/79 78/78/78
f 79/79/79 81/81/81 78/78/78
f 78/78/78 81/81/81 82/82/82
f 81/81/81 79/79/79 83/83/83
f 79/79/79 84/84/84 83/83/83
f 83/83/83 84/84/84 85/85/85
f 86/86/86 83/83/83 85/85/85
f 81/81/81 87/87/87 82/82/82
f 87/87/87 81/81/81 83/83/83
f 82/82/82 87/87/87 88/88/88
f 89/89/89 83/83/83 86/86/86
f 88/88/88 89/89/89 86/86/86
f 87/87/87 89/89/89 88/88/88
f 83/83/83 89/89/89 87/87/87
f 92/92/92 91/91/91 90/90/90
f 93/93/93 92/92/92 90/90/90
f 94/94/94 93/93/93 90/90/90
f 95/95/95 94/94/94 90/90/90
f 95/95/95 90/90/90 96/96/96
f 97/97/97 94/94/94 95/95/95
f 98/98/98 95/95/95 96/96/96
f 99/99/99 97/97/97 95/95/95
f 99/99/99 95/95/95 98/98/98
f 100/100/100 97/97/97 99/99/99
f 101/101/101 100/100/100 99/99/99
f 102/102/102 99/99/99 98/98/98
f 101/101/101 99/99/99 102/102/102
f 102/102/102 103/103/103 101/101/101
f 102/102/102 104/104/104 103/103/103
f 102/102/102 105/105/105 104/104/104
f 105/105/105 102/102/102 106/106/106
f 107/107/107 105/105/105 106/106/106
f 106/106/106 108/108/108 107/107/107
f 108/108/108 109/109/109 107/107/107
f 108/108/108 110/110/110 109/109/109
f 110/110/110 111/111/111 109/109/109
f 110/110/110 112/112/112 111/111/111
f 112/112/112 113/113/113 111/111/111
f 116/116/116 115/115/115 114/114/114
f 115/115/115 117/117/117 114/114/114
f 114/114/114 117/117/117 118/118/118
f 117/117/117 119/119/119 118/118/118
f 122/122/122 121/121/121 120/120/120
f 123/123/123 122/122/122 120/120/120
f 124/124/124 122/122/122 123/123/123
f 125/125/125 124/124/124 123/123/123
f 126/126/126 124/124/124 125/125/125
f 127/127/127 126/126/126 125/125/125
f 128/128/128 126/126/126 127/127/127
f 129/129/129 128/128/128 127/127/127
f 132/132/132 131/131/131 130/130/130
f 133/133/133 132/132/132 130/130/130
f 136/136/136 135/135/135 134/134/134
f 134/134/134 137/137/137 136/136/136
f 138/138/138 136/136/136 137/137/137
f 134/134/134 139/139/139 137/137/137
f 139/139/139 140/140/140 137/137/137
f 143/143/143 142/142/142 141/141/141
f 144/144/144 143/143/143 141/141/141
f 145/145/145 143/143/143 144/144/144
f 146/146/146 145/145/145 144/144/144
f 147/147/147 145/145/145 146/146/146
f 148/148/148 147/147/147 146/146/146
f 151/151/151 150/150/150 149/149/149
f 150/150/150 152/152/152 149/149/149
f 149/149/149 152/152/152 153/153/153
f 152/152/152 154/154/154 153/153/153
f 153/153/153 154/154/154 155/155/155
f 154/154/154 156/156/156 155/155/155
f 157/157/157 156/156/156 154/154/154
f 160/160/160 159/159/159 158/158/158
f 161/161/161 160/160/160 158/158/158
f 161/161/161 158/158/158 162/162/162
f 163/163/163 161/161/161 162/162/162
f 163/163/163 162/162/162 164/164/164
f 165/165/165 163/163/163 164/164/164
f 165/165/165 164/164/164 166/166/166
f 167/167/167 165/165/165 166/166/166
f 167/167/167 166/166/166 168/168/168
f 169/169/169 167/167/167 168/168/168
f 172/172/172 171/171/171 170/170/170
f 173/173/173 172/172/172 170/170/170
f 173/173/173 170/170/170 174/174/174
f 175/175/175 173/173/173 174/174/174
f 175/175/175 174/174/174 176/176/176
f 177/177/177 175/175/175 176/176/176
f 180/180/180 179/179/179 178/178/178
f 179/179/179 181/181/181 178/178/178
f 179/179/179 182/182/182 181/181/181
f 182/182/182 183/183/183 181/181/181
f 186/186/186 185/185/185 184/184/184
f 185/185/185 187/187/187 184/184/184
f 185/185/185 188/188/188 187/187/187
f 188/188/188 189/189/189 187/187/187
f 192/192/192 191/191/191 190/190/190
f 193/193/193 192/192/192 190/190/190
f 196/196/196 195/195/195 194/194/194
f 197/197/197 196/196/196 194/194/194
f 197/197/197 194/194/194 198/198/198
f 199/199/199 197/197/197 198/198/198
f 199/199/199 198/198/198 200/200/200
f 201/201/201 199/199/199 200/200/200
f 204/204/204 203/203/203 202/202/202
f 205/205/205 204/204/204 202/202/202
f 202/202/202 206/206/206 205/205/205
f 206/206/206 207/207/207 205/205/205
f 206/206/206 208/208/208 207/207/207
f 208/208/208 209/209/209 207/207/207
f 212/212/212 211/211/211 210/210/210
f 211/211/211 213/213/213 210/210/210
f 211/211/211 214/214/214 213/213/213
f 214/214/214 215/215/215 213/213/213
f 214/214/214 216/216/216 215/215/215
f 216/216/216 217/217/217 215/215/215
f 220/220/220 219/219/219 218/218/218
f 219/219/219 221/221/221 218/218/218
f 222/222/222 221/221/221 219/219/219
f 219/219/219 223/223/223 222/222/222
f 223/223/223 224/224/224 222/222/222
f 224/224/224 225/225/225 222/222/222
f 222/222/222 226/226/226 221/221/221
f 222/222/222 227/227/227 226/226/226
f 227/227/227 228/228/228 226/226/226
f 226/226/226 229/229/229 221/221/221
f 226/226/226 230/230/230 229/229/229
f 230/230/230 231/231/231 229/229/229
f 229/229/229 232/232/232 221/221/221
f 232/232/232 233/233/233 221/221/221
f 232/232/232 234/234/234 233/233/233
f 234/234/234 235/235/235 233/233/233
f 238/238/238 237/237/237 236/236/236
f 237/237/237 239/239/239 236/236/236
f 237/237/237 240/240/240 239/239/239
f 240/240/240 241/241/241 239/239/239
f 240/240/240 242/242/242 241/241/241
f 242/242/242 243/243/243 241/241/241
f 242/242/242 244/244/244 243/243/243
f 244/244/244 245/245/245 243/243/243
f 248/248/248 247/247/247 246/246/246
f 247/247/247 249/249/249 246/246/246
f 247/247/247 250/250/250 249/249/249
f 250/250/250 251/251/251 249/249/249
f 250/250/250 252/252/252 251/251/251
f 252/252/252 253/253/253 251/251/251
f 252/252/252 254/254/254 253/253/253
f 254/254/254 255/255/255 253/253/253
f 254/254/254 256/256/256 255/255/255
f 256/256/256 257/257/257 255/255/255
f 260/260/260 259/259/259 258/258/258
f 261/261/261 260/260/260 258/258/258
f 264/264/264 263/263/263 262/262/262
f 263/263/263 265/265/265 262/262/262
f 265/265/265 263/263/263 266/266/266
f 266/266/266 267/267/267 265/265/265
f 266/266/266 268/268/268 267/267/267
f 268/268/268 269/269/269 267/267/267
f 263/263/263 270/270/270 266/266/266
f 270/270/270 271/271/271 266/266/266
f 271/271/271 272/272/272 266/266/266
f 263/263/263 273/273/273 270/270/270
f 263/263/263 274/274/274 273/273/273
f 273/273/273 275/275/275 270/270/270
f 275/275/275 276/276/276 270/270/270
f 274/274/274 277/277/277 273/273/273
f 274/274/274 278/278/278 277/277/277
f 278/278/278 279/279/279 277/277/277
f 282/282/282 281/281/281 280/280/280
f 283/283/283 282/282/282 280/280/280
f 286/286/286 285/285/285 284/284/284
f 285/285/285 287/287/287 284/284/284
f 285/285/285 288/288/288 287/287/287
f 288/288/288 289/289/289 287/287/287
f 292/292/292 291/291/291 290/290/290
f 293/293/293 292/292/292 290/290/290
f 296/296/296 295/295/295 294/294/294
f 297/297/297 296/296/296 294/294/294
f 300/300/300 299/299/299 298/298/298
f 301/301/301 300/300/300 298/298/298
f 304/304/304 303/303/303 302/302/302
f 305/305/305 304/304/304 302/302/302
f 308/308/308 307/307/307 306/306/306
f 309/309/309 308/308/308 306/306/306
f 312/312/312 311/311/311 310/310/310
f 313/313/313 312/312/312 310/310/310
f 316/316/316 315/315/315 314/314/314
f 317/317/317 316/316/316 314/314/314
f 320/320/320 319/319/319 318/318/318
f 319/319/319 321/321/321 318/318/318
f 318/318/318 321/321/321 322/322/322
f 323/323/323 321/321/321 319/319/319
f 321/321/321 324/324/324 322/322/322
f 323/323/323 324/324/324 321/321/321
f 322/322/322 324/324/324 325/325/325
f 324/324/324 326/326/326 325/325/325
f 323/323/323 326/326/326 324/324/324
f 325/325/325 326/326/326 327/327/327
f 323/323/323 328/328/328 326/326/326
f 326/326/326 328/328/328 327/327/327
f 323/323/323 329/329/329 328/328/328
f 327/327/327 328/328/328 330/330/330
f 328/328/328 329/329/329 330/330/330
f 333/333/333 332/332/332 331/331/331
f 334/334/334 333/333/333 331/331/331
f 334/334/334 331/331/331 335/335/335
f 336/336/336 334/334/334 335/335/335
f 339/339/339 338/338/338 337/337/337
f 337/337/337 340/340/340 339/339/339
f 337/337/337 341/341/341 340/340/340
f 337/337/337 342/342/342 341/341/341
f 342/342/342 337/337/337 343/343/343
f 337/337/337 344/344/344 343/343/343
f 337/337/337 345/345/345 344/344/344
f 345/345/345 346/346/346 344/344/344
f 345/345/345 347/347/347 346/346/346
f 347/347/347 348/348/348 346/346/346
f 351/351/351 350/350/350 349/349/349
f 352/352/352 351/351/351 349/349/349
f 352/352/352 349/349/349 353/353/353
f 354/354/354 351/351/351 352/352/352
f 355/355/355 354/354/354 352/352/352
f 356/356/356 352/352/352 353/353/353
f 355/355/355 352/352/352 356/356/356
f 357/357/357 355/355/355 356/356/356
f 357/357/357 356/356/356 358/358/358
f 356/356/356 359/359/359 358/358/358
f 362/362/362 361/361/361 360/360/360
f 363/363/363 362/362/362 360/360/360
f 364/364/364 362/362/362 363/363/363
f 363/363/363 360/360/360 365/365/365
f 366/366/366 364/364/364 363/363/363
f 367/367/367 363/363/363 365/365/365
f 366/366/366 363/363/363 367/367/367
f 367/367/367 365/365/365 368/368/368
f 369/369/369 366/366/366 367/367/367
f 370/370/370 367/367/367 368/368/368
f 369/369/369 367/367/367 370/370/370
f 370/370/370 368/368/368 371/371/371
f 372/372/372 369/369/369 370/370/370
f 373/373/373 370/370/370 371/371/371
f 372/372/372 370/370/370 373/373/373
f 374/374/374 372/372/372 373/373/373
f 377/377/377 376/376/376 375/375/375
f 376/376/376 378/378/378 375/375/375
f 379/379/379 375/375/375 378/378/378
f 380/380/380 379/379/379 378/378/378
f 380/380/380 378/378/378 381/381/381
f 382/382/382 380/380/380 381/381/381
f 385/385/385 384/384/384 383/383/383
f 386/386/386 385/385/385 383/383/383
f 386/386/386 383/383/383 387/387/387
f 388/388/388 385/385/385 386/386/386
f 389/389/389 386/386/386 387/387/387
f 390/390/390 388/388/388 386/386/386
f 390/390/390 386/386/386 389/389/389
f 391/391/391 388/388/388 390/390/390
f 392/392/392 390/390/390 389/389/389
f 393/393/393 391/391/391 390/390/390
f 393/393/393 390/390/390 392/392/392
f 394/394/394 393/393/393 392/392/392
f 397/397/397 396/396/396 395/395/395
f 398/398/398 397/397/397 395/395/395
f 398/398/398 395/395/395 399/399/399
f 400/400/400 397/397/397 398/398/398
f 401/401/401 398/398/398 399/399/399
f 401/401/401 399/399/399 402/402/402
f 398/398/398 403/403/403 400/400/400
f 398/398/398 401/401/401 403/403/403
f 400/400/400 403/403/403 404/404/404
f 403/403/403 405/405/405 404/404/404
f 406/406/406 402/402/402 405/405/405
f 406/406/406 401/401/401 402/402/402
f 403/403/403 406/406/406 405/405/405
f 401/401/401 406/406/406 403/403/403
f 409/409/409 408/408/408 407/407/407
f 408/408/408 410/410/410 407/407/407
f 410/410/410 411/411/411 407/407/407
f 411/411/411 412/412/412 407/407/407
f 407/407/407 412/412/412 413/413/413
f 411/411/411 414/414/414 412/412/412
f 412/412/412 415/415/415 413/413/413
f 414/414/414 416/416/416 412/412/412
f 412/412/412 416/416/416 415/415/415
f 414/414/414 417/417/417 416/416/416
f 417/417/417 418/418/418 416/416/416
f 416/416/416 419/419/419 415/415/415
f 419/419/419 416/416/416 418/418/418
f 418/418/418 420/420/420 419/419/419
f 420/420/420 421/421/421 419/419/419
f 421/421/421 422/422/422 419/419/419
f 419/419/419 422/422/422 423/423/423
f 422/422/422 424/424/424 423/423/423
f 425/425/425 423/423/423 424/424/424
f 426/426/426 425/425/425 424/424/424
f 427/427/427 425/425/425 426/426/426
f 428/428/428 427/427/427 426/426/426
f 429/429/429 427/427/427 428/428/428
f 430/430/430 429/429/429 428/428/428
f 433/433/433 432/432/432 431/431/431
f 434/434/434 433/433/433 431/431/431
f 434/434/434 431/431/431 435/435/435
f 436/436/436 434/434/434 435/435/435
f 439/439/439 438/438/438 437/437/437
f 438/438/438 440/440/440 437/437/437
f 438/438/438 441/441/441 440/440/440
f 441/441/441 442/442/442 440/440/440
f 441/441/441 443/443/443 442/442/442
f 443/443/443 444/444/444 442/442/442
f 443/443/443 445/445/445 444/444/444
f 445/445/445 446/446/446 444/444/444
f 449/449/449 448/448/448 447/447/447
f 450/450/450 449/449/449 447/447/447
f 453/453/453 452/452/452 451/451/451
f 451/451/451 454/454/454 453/453/453
f 451/451/451 455/455/455 454/454/454
f 454/454/454 456/456/456 453/453/453
f 454/454/454 457/457/457 456/456/456
f 460/460/460 459/459/459 458/458/458
f 459/459/459 461/461/461 458/458/458
f 459/459/459 462/462/462 461/461/461
f 462/462/462 463/463/463 461/461/461
f 462/462/462 464/464/464 463/463/463
f 464/464/464 465/465/465 463/463/463
f 468/468/468 467/467/467 466/466/466
f 469/469/469 468/468/468 466/466/466
f 469/469/469 466/466/466 470/470/470
f 471/471/471 469/469/469 470/470/470
f 471/471/471 470/470/470 472/472/472
f 473/473/473 471/471/471 472/472/472
f 473/473/473 474/474/474 471/471/471
f 477/477/477 476/476/476 475/475/475
f 476/476/476 478/478/478 475/475/475
f 475/475/475 478/478/478 479/479/479
f 478/478/478 480/480/480 479/479/479
f 479/479/479 480/480/480 481/481/481
f 480/480/480 482/482/482 481/481/481
f 481/481/481 482/482/482 483/483/483
f 482/482/482 484/484/484 483/483/483
f 483/483/483 484/484/484 485/485/485
f 484/484/484 486/486/486 485/485/485
f 489/489/489 488/488/488 487/487/487
f 488/488/488 490/490/490 487/487/487
f 487/487/487 490/490/490 491/491/491
f 490/490/490 492/492/492 491/491/491
f 491/491/491 492/492/492 493/493/493
f 492/492/492 494/494/494 493/493/493
f 497/497/497 496/496/496 495/495/495
f 498/498/498 497/497/497 495/495/495
f 499/499/499 497/497/497 498/498/498
f 500/500/500 499/499/499 498/498/498
f 503/503/503 502/502/502 501/501/501
f 504/504/504 503/503/503 501/501/501
f 505/505/505 503/503/503 504/504/504
f 506/506/506 505/505/505 504/504/504
f 509/509/509 508/508/508 507/507/507
f 510/510/510 509/509/509 507/507/507
f 513/513/513 512/512/512 511/511/511
f 512/512/512 514/514/514 511/511/511
f 511/511/511 514/514/514 515/515/515
f 514/514/514 516/516/516 515/515/515
f 515/515/515 516/516/516 517/517/517
f 516/516/516 518/518/518 517/517/517
f 521/521/521 520/520/520 519/519/519
f 520/520/520 522/522/522 519/519/519
f 523/523/523 519/519/519 522/522/522
f 524/524/524 523/523/523 522/522/522
f 525/525/525 523/523/523 524/524/524
f 526/526/526 525/525/525 524/524/524
f 529/529/529 528/528/528 527/527/527
f 530/530/530 529/529/529 527/527/527
f 531/531/531 529/529/529 530/530/530
f 532/532/532 531/531/531 530/530/530
f 533/533/533 531/531/531 532/532/532
f 534/534/534 533/533/533 532/532/532
f 537/537/537 536/536/536 535/535/535
f 538/538/538 537/537/537 535/535/535
f 537/537/537 538/538/538 539/539/539
f 540/540/540 539/539/539 538/538/538
f 541/541/541 540/540/540 538/538/538
f 542/542/542 540/540/540 541/541/541
f 543/543/543 542/542/542 541/541/541
f 539/539/539 544/544/544 537/537/537
f 545/545/545 544/544/544 539/539/539
f 546/546/546 545/545/545 539/539/539
f 544/544/544 547/547/547 537/537/537
f 547/547/547 548/548/548 537/537/537
f 549/549/549 548/548/548 547/547/547
f 550/550/550 549/549/549 547/547/547
f 551/551/551 547/547/547 544/544/544
f 552/552/552 551/551/551 544/544/544
f 555/555/555 554/554/554 553/553/553
f 556/556/556 555/555/555 553/553/553
f 557/557/557 555/555/555 556/556/556
f 558/558/558 557/557/557 556/556/556
f 559/559/559 557/557/557 558/558/558
f 560/560/560 559/559/559 558/558/558
f 561/561/561 559/559/559 560/560/560
f 562/562/562 561/561/561 560/560/560
f 565/565/565 564/564/564 563/563/563
f 566/566/566 565/565/565 563/563/563
f 567/567/567 565/565/565 566/566/566
f 568/568/568 567/567/567 566/566/566
f 569/569/569 567/567/567 568/568/568
f 570/570/570 569/569/569 568/568/568
f 571/571/571 569/569/569 570/570/570
f 572/572/572 571/571/571 570/570/570
f 573/573/573 571/571/571 572/572/572
f 574/574/574 573/573/573 572/572/572
f 577/577/577 576/576/576 575/575/575
f 578/578/578 577/577/577 575/575/575
f 581/581/581 580/580/580 579/579/579
f 582/582/582 581/581/581 579/579/579
f 583/583/583 581/581/581 582/582/582
f 584/584/584 581/581/581 583/583/583
f 585/585/585 584/584/584 583/583/583
f 586/586/586 584/584/584 585/585/585
f 587/587/587 586/586/586 585/585/585
f 582/582/582 588/588/588 583/583/583
f 589/589/589 583/583/583 588/588/588
f 590/590/590 589/589/589 588/588/588
f 582/582/582 591/591/591 588/588/588
f 592/592/592 588/588/588 591/591/591
f 593/593/593 592/592/592 591/591/591
f 582/582/582 594/594/594 591/591/591
f 595/595/595 591/591/591 594/594/594
f 596/596/596 595/595/595 594/594/594
f 599/599/599 598/598/598 597/597/597
f 600/600/600 599/599/599 597/597/597
f 603/603/603 602/602/602 601/601/601
f 604/604/604 603/603/603 601/601/601
f 605/605/605 603/603/603 604/604/604
f 606/606/606 605/605/605 604/604/604
f 609/609/609 608/608/608 607/607/607
f 610/610/610 609/609/609 607/607/607
f 613/613/613 612/612/612 611/611/611
f 614/614/614 613/613/613 611/611/611
f 617/617/617 616/616/616 615/615/615
f 618/618/618 617/617/617 615/615/615
f 621/621/621 620/620/620 619/619/619
f 622/622/622 621/621/621 619/619/619
f 625/625/625 624/624/624 623/623/623
f 626/626/626 625/625/625 623/623/623
f 629/629/629 628/628/628 627/627/627
f 630/630/630 629/629/629 627/627/627
f 633/633/633 632/632/632 631/631/631
f 634/634/634 633/633/633 631/631/631
