g 0.0167
v -0.0081883315 -0.9469925 3.6610262
v 0.00038646057 -1.0641247 3.8727608
v 0.5009024 -0.8623017 3.764105
v 1.0330645 0.0047291517 1.7002809
v 1.1205577 1.06141 2.3408675
v 0.5375677 0.7674467 1.7984483
v 1.2006783 -0.30225384 2.76533
v 0.81996053 -0.4614414 2.8477385
v 1.2812129 0.30548406 2.8757482
v 0.0012753499 -1.6495576 4.2917466
v 0.0022922186 -2.0568109 4.4874344
v 0.38700926 -2.009843 4.5406976
v 0.51005626 -1.0442367 5.7160473
v 0.0067361537 -1.068855 5.7049255
v 0.012394834 -0.9197166 5.887488
v 2.348312 1.7127777 2.8104424
v 2.6077306 1.6633954 2.7098203
v 2.6909637 1.6218481 3.0289247
v -0.0081883315 -0.9469925 3.6610262
v -0.5046393 -1.1471932 3.744847
v 0.00038646057 -1.0641247 3.8727608
v -1.0331697 0.668599 2.3571677
v -0.53760564 0.9634952 2.5649624
v -1.117681 0.7438639 3.0717752
v -1.2006634 -0.46164274 2.1990767
v -1.2818538 -0.38791955 2.8129964
v -0.8199451 -0.63123584 2.1694613
v 0.0012753499 -1.6495576 4.2917466
v -0.3825239 -2.0110962 4.5394955
v 0.0022922186 -2.0568109 4.4874344
v -0.5097313 -0.88640463 5.739064
v 0.012394834 -0.9197166 5.887488
v 0.0067361537 -1.068855 5.7049255
v -2.329461 -2.8067074 3.2796762
v -2.6660814 -2.5757644 3.1974251
v -2.595542 -2.8564923 3.3608186
v 2.1137993 0.9512453 2.9401417
v 2.139564 1.1641757 2.737167
v 2.2646909 1.422828 2.6453726
v 2.1040237 1.0631325 2.7560341
v 2.1380544 0.97115326 2.706522
v 2.3772094 0.5826154 3.1992834
v 2.2148867 0.7866714 3.2454295
v 2.2754397 1.1244161 3.5834024
v 1.1766459 0.32696033 5.094698
v 0.8298571 0.68225145 4.9350634
v 1.1469538 0.4136846 4.6824956
v 0.8894432 -0.22970128 5.6065683
v 1.6871765 -0.23875761 5.5867114
v 1.5091504 -0.57160926 5.6137147
v 1.6588986 0.33187675 5.3077984
v 1.6869203 0.88661814 4.4770536
v 0.36845195 0.27651238 5.5119123
v 0.032688886 0.160689 5.671413
v 0.02765942 -0.22391427 5.964923
v 0.034402117 0.45548844 5.3307285
v 0.0112437755 1.0457369 4.3612504
v 0.7359725 1.1541084 3.5285962
v 1.0411938 1.0245048 3.5456512
v -0.0031472594 1.0657554 3.713436
v 2.159175 0.9857199 4.470543
v 2.666522 1.101677 3.7304983
v 2.2754397 1.1244161 3.5834024
v 2.4833775 0.67602587 4.817243
v 2.166485 0.12183952 5.0895405
v 1.9688475 -0.62322164 5.3119535
v 2.5551968 1.7174013 3.2776406
v 2.4216716 1.8324506 3.1017249
v 2.6909637 1.6218481 3.0289247
v 2.0300837 1.587999 3.2862945
v 2.0079432 1.2813767 3.4647064
v 1.1574762 -0.98498964 4.411174
v 1.1475072 -0.18795371 4.2827024
v 0.9606266 -0.7415831 3.8762972
v 0.92044413 -0.4188261 3.8213995
v 1.1268874 0.36799836 3.5367243
v 0.76847965 -0.43326718 3.2561414
v 1.1469538 0.4136846 4.6824956
v 1.0411938 1.0245048 3.5456512
v 0.8298571 0.68225145 4.9350634
v 0.60972923 -1.1519253 0.08649251
v 0.73995036 -0.53988945 -0.08710746
v 0.59056544 -0.63898385 0.5877566
v 0.4514682 -1.6612196 0.31966466
v 0.8197518 -1.1669841 0.97462755
v 0.26623544 -0.7648086 1.2597463
v 0.6787373 -0.15805006 1.2841496
v 0.44088808 -0.9527662 1.8525486
v 0.28720748 -0.45284092 1.5904404
v 0.30039817 -0.16403294 1.7556098
v 0.28142738 -0.51246023 2.157142
v 0.21705039 -0.4914309 2.135112
v 0.25148305 -0.05989468 1.8246217
v -2.6026162E-06 0.22674114 2.085742
v -0.0010979436 0.9901649 2.175156
v 0.18536909 -0.52696073 2.1394494
v 0.5009024 -0.8623017 3.764105
v 0.00038646057 -1.0641247 3.8727608
v 0.5996226 -1.2690756 3.958931
v 0.9606266 -0.7415831 3.8762972
v 1.1574762 -0.98498964 4.411174
v 0.92044413 -0.4188261 3.8213995
v 0.76847965 -0.43326718 3.2561414
v -0.0081883315 -0.9469925 3.6610262
v 1.0800991E-05 -0.9759058 3.0324442
v 1.0789948 -0.56590515 -0.033594936
v 1.6062859 -1.5861672 0.24186254
v 1.196502 -0.88411343 0.62203354
v 1.0084474 -0.48001593 0.6914224
v 1.3280711 -0.36862576 1.326256
v 1.3458525 -0.9343092 1.9388201
v 1.3312117 -0.13477564 2.1018217
v 1.0330645 0.0047291517 1.7002809
v 1.1205577 1.06141 2.3408675
v 1.2812129 0.30548406 2.8757482
v 1.3259351 -0.34901142 2.3375127
v 1.252903 -0.5031129 2.4813654
v 1.2006783 -0.30225384 2.76533
v 1.0330645 0.0047291517 1.7002809
v 0.30039817 -0.16403294 1.7556098
v 0.6787373 -0.15805006 1.2841496
v 1.3280711 -0.36862576 1.326256
v 1.0084474 -0.48001593 0.6914224
v 0.59056544 -0.63898385 0.5877566
v 0.73995036 -0.53988945 -0.08710746
v 1.0789948 -0.56590515 -0.033594936
v 1.5091504 -0.57160926 5.6137147
v 1.6871765 -0.23875761 5.5867114
v 1.9688475 -0.62322164 5.3119535
v 1.6588986 0.33187675 5.3077984
v 0.22427554 -1.8971118 4.98609
v 0.0018460397 -1.9390128 4.832021
v 0.0019915416 -2.076155 4.932779
v 0.22732043 -1.8898904 5.280898
v 0.001022649 -2.047604 5.5413857
v 0.37423605 -1.9277703 5.496987
v 0.4367011 -1.8464706 5.268824
v 0.47944492 -1.6587265 5.0634527
v 1.0195001 -0.88374853 5.455711
v 0.51005626 -1.0442367 5.7160473
v 0.012394834 -0.9197166 5.887488
v 0.8894432 -0.22970128 5.6065683
v 0.02765942 -0.22391427 5.964923
v 1.0195001 -0.88374853 5.455711
v 0.8894432 -0.22970128 5.6065683
v 1.5091504 -0.57160926 5.6137147
v 1.9688475 -0.62322164 5.3119535
v 1.7677444 -1.0066898 4.6439724
v 0.8787498 -1.0922004 5.198153
v 0.51005626 -1.0442367 5.7160473
v 0.5480018 -1.1030843 4.9125304
v 1.1574762 -0.98498964 4.411174
v 0.5599597 -1.1130829 4.678065
v 0.5996226 -1.2690756 3.958931
v 0.35903427 -1.1151099 4.38842
v 0.27865443 -1.1589792 4.532686
v 0.00038646057 -1.0641247 3.8727608
v -0.00024274923 -1.215478 4.3863807
v 2.3772094 0.5826154 3.1992834
v 2.850843 0.6265013 3.3279893
v 2.5462027 1.095088 2.687241
v 2.1380544 0.97115326 2.706522
v 2.139564 1.1641757 2.737167
v 2.2646909 1.422828 2.6453726
v 2.348312 1.7127777 2.8104424
v 2.6077306 1.6633954 2.7098203
v 2.5462027 1.095088 2.687241
v 2.6909637 1.6218481 3.0289247
v 2.6077306 1.6633954 2.7098203
v 2.850843 0.6265013 3.3279893
v 2.666522 1.101677 3.7304983
v 2.5551968 1.7174013 3.2776406
v 2.7333999 0.492769 4.328641
v 2.5234144 -0.0094435215 4.1593857
v 2.4833775 0.67602587 4.817243
v 2.5106266 0.35792089 4.6348767
v 2.3987353 -0.06278849 4.300314
v 2.166485 0.12183952 5.0895405
v 2.0282574 -0.22018933 4.7403526
v 1.9688475 -0.62322164 5.3119535
v 1.7677444 -1.0066898 4.6439724
v 1.6547565 -0.5975733 4.267653
v 1.920965 0.007834911 3.9737582
v 2.2148867 0.7866714 3.2454295
v 1.7017257 0.79025006 3.8296566
v 1.6637297 0.264261 3.8310895
v 1.6869203 0.88661814 4.4770536
v 1.1475072 -0.18795371 4.2827024
v 1.1469538 0.4136846 4.6824956
v 1.1766459 0.32696033 5.094698
v 2.3772094 0.5826154 3.1992834
v 1.6637297 0.264261 3.8310895
v 2.091964 0.029853106 3.8241222
v 2.2148867 0.7866714 3.2454295
v 2.348312 1.7127777 2.8104424
v 1.9083989 1.3887907 2.8059807
v 2.2646909 1.422828 2.6453726
v 1.9777341 1.6292049 2.9428492
v 2.4216716 1.8324506 3.1017249
v 2.6909637 1.6218481 3.0289247
v 2.0300837 1.587999 3.2862945
v 0.50571245 -1.8780453 0.32437825
v 0.8231005 -1.9069345 0.4603963
v 0.91006976 -1.9734528 0.34011847
v 1.2016305 -1.8944583 0.47321326
v 1.4179901 -1.8473756 0.29117525
v 2.2646909 1.422828 2.6453726
v 1.9083989 1.3887907 2.8059807
v 1.7832861 0.99777436 3.0503902
v 2.1137993 0.9512453 2.9401417
v 0.91006976 -1.9734528 0.34011847
v 0.4514682 -1.6612196 0.31966466
v 0.50571245 -1.8780453 0.32437825
v 1.1993204 -1.340671 0.1310618
v 1.4179901 -1.8473756 0.29117525
v 0.60972923 -1.1519253 0.08649251
v 1.6062859 -1.5861672 0.24186254
v 0.73995036 -0.53988945 -0.08710746
v 1.0789948 -0.56590515 -0.033594936
v 0.8197518 -1.1669841 0.97462755
v 0.9768228 -1.1934791 0.73774344
v 0.4514682 -1.6612196 0.31966466
v 1.3458525 -0.9343092 1.9388201
v 1.196502 -0.88411343 0.62203354
v 0.844658 -1.1057993 1.9257395
v 0.44088808 -0.9527662 1.8525486
v 0.28142738 -0.51246023 2.157142
v 1.0297174 -0.597039 2.5226722
v 1.252903 -0.5031129 2.4813654
v 1.2006783 -0.30225384 2.76533
v 0.81996053 -0.4614414 2.8477385
v 0.82925576 -0.6484914 2.5082557
v 0.50571245 -1.8780453 0.32437825
v 0.4514682 -1.6612196 0.31966466
v 0.8231005 -1.9069345 0.4603963
v 0.9768228 -1.1934791 0.73774344
v 1.2016305 -1.8944583 0.47321326
v 1.6062859 -1.5861672 0.24186254
v 1.196502 -0.88411343 0.62203354
v 1.4179901 -1.8473756 0.29117525
v 1.0330645 0.0047291517 1.7002809
v 0.5375677 0.7674467 1.7984483
v 0.30039817 -0.16403294 1.7556098
v 0.25148305 -0.05989468 1.8246217
v 0.52624017 0.8119037 1.7589341
v -0.0010979436 0.9901649 2.175156
v 1.1205577 1.06141 2.3408675
v 1.1648704 1.1100812 2.3448322
v 0.52624017 0.8119037 1.7589341
v 0.5375677 0.7674467 1.7984483
v -0.0031472594 1.0657554 3.713436
v -0.0014942884 1.125009 3.7060704
v 0.7613182 1.2301074 3.4669745
v 0.7359725 1.1541084 3.5285962
v 1.1048428 1.0725166 3.4837818
v 1.0411938 1.0245048 3.5456512
v 1.1975499 0.39903003 3.5195036
v 1.1268874 0.36799836 3.5367243
v 0.8246667 -0.47539622 3.2738729
v 0.76847965 -0.43326718 3.2561414
v 1.1213026E-05 -1.0396436 3.0252256
v 1.0800991E-05 -0.9759058 3.0324442
v 1.6547565 -0.5975733 4.267653
v 1.1574762 -0.98498964 4.411174
v 1.7677444 -1.0066898 4.6439724
v 1.1475072 -0.18795371 4.2827024
v 1.5281892 -0.11021161 3.9701438
v 1.6637297 0.264261 3.8310895
v 1.920965 0.007834911 3.9737582
v 1.6637297 0.264261 3.8310895
v 1.920965 0.007834911 3.9737582
v 2.091964 0.029853106 3.8241222
v 2.5234144 -0.0094435215 4.1593857
v 2.3987353 -0.06278849 4.300314
v 2.0282574 -0.22018933 4.7403526
v 2.850843 0.6265013 3.3279893
v 2.3772094 0.5826154 3.1992834
v 2.2754397 1.1244161 3.5834024
v 1.7017257 0.79025006 3.8296566
v 2.2148867 0.7866714 3.2454295
v 1.6869203 0.88661814 4.4770536
v 1.2812129 0.30548406 2.8757482
v 1.1648704 1.1100812 2.3448322
v 1.1205577 1.06141 2.3408675
v 1.3459762 0.30222142 2.894051
v 0.81996053 -0.4614414 2.8477385
v 0.8738198 -0.6161322 2.7608252
v 0.28142738 -0.51246023 2.157142
v 0.2828872 -0.9123111 2.201761
v 0.21705039 -0.4914309 2.135112
v 0.18536909 -0.52696073 2.1394494
v 3.8219305E-06 -0.5673659 2.1337059
v 6.966637E-06 -0.8713533 2.1745152
v -2.6026162E-06 0.22674114 2.085742
v 0.5480018 -1.1030843 4.9125304
v 0.41997313 -1.4194803 5.5862966
v 0.51005626 -1.0442367 5.7160473
v 0.5303995 -1.2286633 4.8063474
v 0.5599597 -1.1130829 4.678065
v 0.66615343 -1.6986316 4.58255
v 0.49515277 -1.6208557 5.6126995
v 0.5967102 -1.6284025 4.713826
v 0.47944492 -1.6587265 5.0634527
v 0.4367011 -1.8464706 5.268824
v 0.37423605 -1.9277703 5.496987
v 0.5091519 -1.6414366 4.864254
v 0.22427554 -1.8971118 4.98609
v 0.341958 -1.8943377 4.802665
v 0.38569635 -1.9510496 4.6416397
v 0.38569635 -1.9510496 4.6416397
v 0.5967102 -1.6284025 4.713826
v 0.66615343 -1.6986316 4.58255
v 0.38700926 -2.009843 4.5406976
v 0.0021573105 -1.9912648 4.617943
v 0.0022922186 -2.0568109 4.4874344
v 0.0018460397 -1.9390128 4.832021
v 0.341958 -1.8943377 4.802665
v 0.22427554 -1.8971118 4.98609
v 0.66615343 -1.6986316 4.58255
v 0.0012753499 -1.6495576 4.2917466
v 0.38700926 -2.009843 4.5406976
v 0.2776898 -1.3599615 4.4660354
v 0.5599597 -1.1130829 4.678065
v -0.00024274923 -1.215478 4.3863807
v 0.27865443 -1.1589792 4.532686
v 1.1048428 1.0725166 3.4837818
v 1.1648704 1.1100812 2.3448322
v 1.3459762 0.30222142 2.894051
v 1.1975499 0.39903003 3.5195036
v 0.8246667 -0.47539622 3.2738729
v 0.8738198 -0.6161322 2.7608252
v 0.7926475 -0.8298881 2.8134568
v 0.76062894 -0.96747434 2.2534928
v 0.7613182 1.2301074 3.4669745
v 1.1648704 1.1100812 2.3448322
v 1.1048428 1.0725166 3.4837818
v 0.4752787 1.3239446 2.3069706
v 0.52624017 0.8119037 1.7589341
v -0.0010979436 0.9901649 2.175156
v -0.00511688 1.3387692 3.0554729
v -0.0014942884 1.125009 3.7060704
v 0.8246667 -0.47539622 3.2738729
v 9.27076E-06 -1.1335831 2.3805509
v 1.1213026E-05 -1.0396436 3.0252256
v 0.7926475 -0.8298881 2.8134568
v 0.6341158 -1.0932059 2.3133621
v 0.76062894 -0.96747434 2.2534928
v 8.658935E-06 -1.0968287 2.0254257
v 0.052195963 -0.9878699 1.6745234
v 6.2782565E-06 -0.99089813 1.6574031
v 6.966637E-06 -0.8713533 2.1745152
v 6.2782565E-06 -0.99089813 1.6574031
v 0.052195963 -0.9878699 1.6745234
v 0.2828872 -0.9123111 2.201761
v 0.76062894 -0.96747434 2.2534928
v 0.8738198 -0.6161322 2.7608252
v 1.9083989 1.3887907 2.8059807
v 1.9777341 1.6292049 2.9428492
v 1.7832861 0.99777436 3.0503902
v 2.0079432 1.2813767 3.4647064
v 2.0300837 1.587999 3.2862945
v 2.1137993 0.9512453 2.9401417
v 1.7832861 0.99777436 3.0503902
v 2.0079432 1.2813767 3.4647064
v 2.2754397 1.1244161 3.5834024
v 0.0067361537 -1.068855 5.7049255
v 0.51005626 -1.0442367 5.7160473
v 0.41997313 -1.4194803 5.5862966
v -0.00080766296 -1.3997818 5.760683
v 0.27341512 -1.7029787 5.751452
v 6.462075E-05 -1.831926 5.7669735
v 0.49515277 -1.6208557 5.6126995
v 0.001022649 -2.047604 5.5413857
v 0.37423605 -1.9277703 5.496987
v -2.13079 -2.247575 3.827079
v -2.2693732 -2.765471 3.6158314
v -2.1543307 -2.5375495 3.776458
v -2.1234806 -2.4620543 3.848413
v -2.1646912 -2.446416 3.9490454
v -2.4015284 -1.8180232 3.9479637
v -2.2264378 -1.9041002 3.7689362
v -2.2529457 -1.8356686 3.2929337
v -1.1449845 0.2727909 4.322079
v -1.1239104 -0.10675132 4.0214267
v -0.8090725 0.49195838 4.5387115
v -0.87984025 0.09597993 5.407516
v -1.6494443 0.468611 4.7541223
v -1.4855993 0.21563494 5.226875
v -1.6130238 0.34109223 3.910231
v -1.6525781 -0.60334253 3.1268315
v -0.3587397 0.35240006 5.348354
v 0.032688886 0.160689 5.671413
v 0.02765942 -0.22391427 5.964923
v 0.034402117 0.45548844 5.3307285
v 0.0112437755 1.0457369 4.3612504
v -0.72833073 0.38810086 3.811055
v -1.0332797 0.020819962 3.7370312
v -0.0031472594 1.0657554 3.713436
v -2.11358 -0.79108477 2.9707026
v -2.637477 -1.7025182 3.195433
v -2.2529457 -1.8356686 3.2929337
v -2.4388795 -0.27900767 3.2325742
v -2.1311698 0.07497978 3.9267454
v -1.9450397 0.11243367 4.9138045
v -2.5140016 -2.434535 2.9821372
v -2.3827074 -2.644911 3.004839
v -2.6660814 -2.5757644 3.1974251
v -1.9968269 -2.3524346 3.117612
v -1.983108 -2.02596 3.257485
v -1.1710596 -0.9026395 4.8560677
v -0.96950793 -1.1205702 3.992914
v -1.1527648 -0.7481984 4.244451
v -0.9263992 -0.9218519 3.8236952
v -1.128145 -0.5596282 3.4626107
v -0.76976216 -1.0451872 2.4274154
v -1.1239104 -0.10675132 4.0214267
v -1.0332797 0.020819962 3.7370312
v -0.8090725 0.49195838 4.5387115
v -0.606375 1.9862239 0.70819587
v -0.58875346 1.6564641 1.3644558
v -0.73715276 2.2812977 1.2525976
v -0.44763696 1.7040639 0.22941518
v -0.81815 1.1206385 1.0291088
v -0.26569152 1.0162187 1.5238589
v -0.67893034 1.1511062 2.1676831
v -0.44081464 0.30371583 1.3992281
v -0.28725615 0.70964915 1.869736
v -0.30045965 0.55419904 2.101116
v -0.2814233 -0.3270741 1.9386821
v -0.21704388 -0.3078624 1.9358323
v -0.25153565 0.48949552 2.1509128
v -2.6026162E-06 0.22674114 2.085742
v -0.0010979436 0.9901649 2.175156
v -0.1853601 -0.34935254 1.9261719
v -0.5046393 -1.1471932 3.744847
v -0.6045195 -1.3184206 4.096798
v 0.00038646057 -1.0641247 3.8727608
v -0.96950793 -1.1205702 3.992914
v -1.1710596 -0.9026395 4.8560677
v -0.9263992 -0.9218519 3.8236952
v -0.76976216 -1.0451872 2.4274154
v -0.0081883315 -0.9469925 3.6610262
v 1.0800991E-05 -0.9759058 3.0324442
v -1.0762429 2.2247386 1.2392068
v -1.1944842 1.5382534 1.1532792
v -1.6024929 1.7756109 0.29824027
v -1.0070088 1.6290247 1.5554013
v -1.3280188 1.0812464 1.9232633
v -1.3458033 0.3473481 1.4817183
v -1.3312196 0.24351549 2.2756896
v -1.0331697 0.668599 2.3571677
v -1.117681 0.7438639 3.0717752
v -1.2818538 -0.38791955 2.8129964
v -1.3259174 -0.009818196 2.0720446
v -1.2528809 -0.18386841 1.9335613
v -1.2006634 -0.46164274 2.1990767
v -1.0331697 0.668599 2.3571677
v -0.67893034 1.1511062 2.1676831
v -0.30045965 0.55419904 2.101116
v -1.3280188 1.0812464 1.9232633
v -1.0070088 1.6290247 1.5554013
v -0.58875346 1.6564641 1.3644558
v -0.73715276 2.2812977 1.2525976
v -1.0762429 2.2247386 1.2392068
v -1.4855993 0.21563494 5.226875
v -1.9450397 0.11243367 4.9138045
v -1.6494443 0.468611 4.7541223
v -1.6130238 0.34109223 3.910231
v -0.22107406 -1.897957 4.9852796
v 0.0019915416 -2.076155 4.932779
v 0.0018460397 -1.9390128 4.832021
v -0.22494248 -1.8908222 5.2800045
v 0.001022649 -2.047604 5.5413857
v -0.37250686 -1.9293283 5.4954925
v -0.43460664 -1.848196 5.267169
v -0.47760826 -1.6604254 5.0618234
v -1.0171435 -0.6063136 5.473938
v 0.012394834 -0.9197166 5.887488
v -0.5097313 -0.88640463 5.739064
v -0.87984025 0.09597993 5.407516
v 0.02765942 -0.22391427 5.964923
v -1.0171435 -0.6063136 5.473938
v -1.4855993 0.21563494 5.226875
v -0.87984025 0.09597993 5.407516
v -1.9450397 0.11243367 4.9138045
v -1.7759111 -0.60033953 5.062964
v -0.87865084 -0.87033856 5.2814126
v -0.5097313 -0.88640463 5.739064
v -0.5483707 -1.0415931 4.953615
v -1.1710596 -0.9026395 4.8560677
v -0.5609105 -1.0642589 4.7385674
v -0.6045195 -1.3184206 4.096798
v -0.3601326 -1.1045523 4.4446554
v -0.2791166 -1.1370728 4.575684
v 0.00038646057 -1.0641247 3.8727608
v -0.00024274923 -1.215478 4.3863807
v -2.4015284 -1.8180232 3.9479637
v -2.5659847 -2.5342758 3.8325934
v -2.865643 -1.7391474 3.8023746
v -2.1646912 -2.446416 3.9490454
v -2.1543307 -2.5375495 3.776458
v -2.2693732 -2.765471 3.6158314
v -2.329461 -2.8067074 3.2796762
v -2.595542 -2.8564923 3.3608186
v -2.5659847 -2.5342758 3.8325934
v -2.595542 -2.8564923 3.3608186
v -2.6660814 -2.5757644 3.1974251
v -2.865643 -1.7391474 3.8023746
v -2.637477 -1.7025182 3.195433
v -2.5140016 -2.434535 2.9821372
v -2.7121286 -0.79120684 3.3733532
v -2.5322049 -0.7585039 3.9102936
v -2.4388795 -0.27900767 3.2325742
v -2.4838948 -0.43406796 3.4713035
v -2.4018054 -0.6633253 4.0023446
v -2.1311698 0.07497978 3.9267454
v -2.0158687 -0.30031145 4.2748294
v -1.9450397 0.11243367 4.9138045
v -1.7759111 -0.60033953 5.062964
v -1.6697679 -0.8614265 4.6023445
v -1.935682 -1.0068398 3.9500008
v -2.2264378 -1.9041002 3.7689362
v -1.6781628 -1.1219018 3.8374414
v -1.690073 -1.3789442 3.4165902
v -1.6525781 -0.60334253 3.1268315
v -1.1527648 -0.7481984 4.244451
v -1.1239104 -0.10675132 4.0214267
v -1.1449845 0.2727909 4.322079
v -2.4015284 -1.8180232 3.9479637
v -2.1173143 -1.0082846 4.0164127
v -1.6781628 -1.1219018 3.8374414
v -2.2264378 -1.9041002 3.7689362
v -2.329461 -2.8067074 3.2796762
v -2.2693732 -2.765471 3.6158314
v -1.9084125 -2.6181126 3.5723543
v -1.958235 -2.6523042 3.2936287
v -2.3827074 -2.644911 3.004839
v -2.6660814 -2.5757644 3.1974251
v -1.9968269 -2.3524346 3.117612
v -0.5015549 1.6777833 0.013517559
v -0.9057867 1.6522117 -0.08027917
v -0.8190712 1.5397798 -0.0009407401
v -1.197655 1.5200441 0.016890466
v -1.4138563 1.7027901 0.042927384
v -2.2693732 -2.765471 3.6158314
v -2.13079 -2.247575 3.827079
v -1.7935052 -2.1886952 3.747512
v -1.9084125 -2.6181126 3.5723543
v -0.9057867 1.6522117 -0.08027917
v -0.5015549 1.6777833 0.013517559
v -0.44763696 1.7040639 0.22941518
v -1.1957386 1.9222326 0.52626073
v -1.4138563 1.7027901 0.042927384
v -0.606375 1.9862239 0.70819587
v -1.6024929 1.7756109 0.29824027
v -0.73715276 2.2812977 1.2525976
v -1.0762429 2.2247386 1.2392068
v -0.81815 1.1206385 1.0291088
v -0.44763696 1.7040639 0.22941518
v -0.9746439 1.3150487 0.8987078
v -1.3458033 0.3473481 1.4817183
v -1.1944842 1.5382534 1.1532792
v -0.844556 0.34387147 1.306822
v -0.44081464 0.30371583 1.3992281
v -0.2814233 -0.3270741 1.9386821
v -1.0296935 -0.2658646 1.8554932
v -1.2528809 -0.18386841 1.9335613
v -1.2006634 -0.46164274 2.1990767
v -0.8199451 -0.63123584 2.1694613
v -0.8292322 -0.3163904 1.8245573
v -0.5015549 1.6777833 0.013517559
v -0.8190712 1.5397798 -0.0009407401
v -0.44763696 1.7040639 0.22941518
v -0.9746439 1.3150487 0.8987078
v -1.197655 1.5200441 0.016890466
v -1.6024929 1.7756109 0.29824027
v -1.1944842 1.5382534 1.1532792
v -1.4138563 1.7027901 0.042927384
v -1.0331697 0.668599 2.3571677
v -0.30045965 0.55419904 2.101116
v -0.53760564 0.9634952 2.5649624
v -0.25153565 0.48949552 2.1509128
v -0.52626485 1.0311465 2.527435
v -0.0010979436 0.9901649 2.175156
v -1.117681 0.7438639 3.0717752
v -0.53760564 0.9634952 2.5649624
v -0.52626485 1.0311465 2.527435
v -1.1616293 0.78444403 3.0925581
v -0.0031472594 1.0657554 3.713436
v -0.75378186 0.40242058 3.854934
v -0.0014942884 1.125009 3.7060704
v -0.72833073 0.38810086 3.811055
v -1.0976543 0.036038995 3.7666636
v -1.0332797 0.020819962 3.7370312
v -1.198823 -0.5935607 3.4516106
v -1.128145 -0.5596282 3.4626107
v -0.8256053 -1.072332 2.3807936
v -0.76976216 -1.0451872 2.4274154
v 1.1213026E-05 -1.0396436 3.0252256
v 1.0800991E-05 -0.9759058 3.0324442
v -1.6697679 -0.8614265 4.6023445
v -1.7759111 -0.60033953 5.062964
v -1.1710596 -0.9026395 4.8560677
v -1.1527648 -0.7481984 4.244451
v -1.5475185 -1.0127034 4.070747
v -1.6781628 -1.1219018 3.8374414
v -1.935682 -1.0068398 3.9500008
v -1.6781628 -1.1219018 3.8374414
v -2.1173143 -1.0082846 4.0164127
v -1.935682 -1.0068398 3.9500008
v -2.5322049 -0.7585039 3.9102936
v -2.4018054 -0.6633253 4.0023446
v -2.0158687 -0.30031145 4.2748294
v -2.865643 -1.7391474 3.8023746
v -2.4015284 -1.8180232 3.9479637
v -2.2529457 -1.8356686 3.2929337
v -2.2264378 -1.9041002 3.7689362
v -1.690073 -1.3789442 3.4165902
v -1.6525781 -0.60334253 3.1268315
v -1.2818538 -0.38791955 2.8129964
v -1.117681 0.7438639 3.0717752
v -1.1616293 0.78444403 3.0925581
v -1.346779 -0.39734292 2.8170214
v -0.8199451 -0.63123584 2.1694613
v -0.8738033 -0.66525173 2.0710273
v -0.2814233 -0.3270741 1.9386821
v -0.28287235 -0.67142385 1.7280089
v -0.21704388 -0.3078624 1.9358323
v -0.1853601 -0.34935254 1.9261719
v 3.8219305E-06 -0.5673659 2.1337059
v 6.966637E-06 -0.8713533 2.1745152
v -2.6026162E-06 0.22674114 2.085742
v -0.5483707 -1.0415931 4.953615
v -0.5097313 -0.88640463 5.739064
v -0.4213071 -1.3694227 5.616681
v -0.53049946 -1.1924049 4.8462725
v -0.5609105 -1.0642589 4.7385674
v -0.66386604 -1.6961895 4.60381
v -0.4953323 -1.6227657 5.6108675
v -0.5941453 -1.6287941 4.7164207
v -0.47760826 -1.6604254 5.0618234
v -0.43460664 -1.848196 5.267169
v -0.37250686 -1.9293283 5.4954925
v -0.506963 -1.6413734 4.8660965
v -0.22107406 -1.897957 4.9852796
v -0.33830112 -1.8955638 4.801489
v -0.38146615 -1.9523728 4.6403704
v -0.38146615 -1.9523728 4.6403704
v -0.66386604 -1.6961895 4.60381
v -0.5941453 -1.6287941 4.7164207
v -0.3825239 -2.0110962 4.5394955
v 0.0021573105 -1.9912648 4.617943
v 0.0022922186 -2.0568109 4.4874344
v 0.0018460397 -1.9390128 4.832021
v -0.33830112 -1.8955638 4.801489
v -0.22107406 -1.897957 4.9852796
v -0.66386604 -1.6961895 4.60381
v -0.3825239 -2.0110962 4.5394955
v 0.0012753499 -1.6495576 4.2917466
v -0.277812 -1.3456261 4.5142884
v -0.5609105 -1.0642589 4.7385674
v -0.00024274923 -1.215478 4.3863807
v -0.2791166 -1.1370728 4.575684
v -1.0976543 0.036038995 3.7666636
v -1.346779 -0.39734292 2.8170214
v -1.1616293 0.78444403 3.0925581
v -1.198823 -0.5935607 3.4516106
v -0.8256053 -1.072332 2.3807936
v -0.8738033 -0.66525173 2.0710273
v -0.79262936 -0.87880385 1.9904871
v -0.7606102 -0.66499525 1.6389723
v -0.75378186 0.40242058 3.854934
v -1.0976543 0.036038995 3.7666636
v -1.1616293 0.78444403 3.0925581
v -0.4720842 1.0322452 3.2276886
v -0.52626485 1.0311465 2.527435
v -0.0010979436 0.9901649 2.175156
v -0.00511688 1.3387692 3.0554729
v -0.0014942884 1.125009 3.7060704
v -0.8256053 -1.072332 2.3807936
v 1.1213026E-05 -1.0396436 3.0252256
v 9.27076E-06 -1.1335831 2.3805509
v -0.79262936 -0.87880385 1.9904871
v -0.6340962 -0.82016253 1.6117303
v -0.7606102 -0.66499525 1.6389723
v 8.658935E-06 -1.0968287 2.0254257
v -0.052178215 -0.48323274 1.2385314
v 6.2782565E-06 -0.99089813 1.6574031
v 6.966637E-06 -0.8713533 2.1745152
v -0.052178215 -0.48323274 1.2385314
v 6.2782565E-06 -0.99089813 1.6574031
v -0.28287235 -0.67142385 1.7280089
v -0.7606102 -0.66499525 1.6389723
v -0.8738033 -0.66525173 2.0710273
v -1.9084125 -2.6181126 3.5723543
v -1.7935052 -2.1886952 3.747512
v -1.958235 -2.6523042 3.2936287
v -1.983108 -2.02596 3.257485
v -1.9968269 -2.3524346 3.117612
v -2.13079 -2.247575 3.827079
v -2.2529457 -1.8356686 3.2929337
v -1.983108 -2.02596 3.257485
v -1.7935052 -2.1886952 3.747512
v 0.0067361537 -1.068855 5.7049255
v -0.4213071 -1.3694227 5.616681
v -0.5097313 -0.88640463 5.739064
v -0.00080766296 -1.3997818 5.760683
v -0.27366766 -1.7041098 5.750367
v 6.462075E-05 -1.831926 5.7669735
v -0.4953323 -1.6227657 5.6108675
v 0.001022649 -2.047604 5.5413857
v -0.37250686 -1.9293283 5.4954925
vt 0.76092815 0.8767158
vt 0.7174094 0.91054726
vt 0.76092815 0.95057213
vt 0.38543808 0.96915483
vt 0.38543808 0.8693485
vt 0.32501337 0.9344189
vt 0.40212393 0.7568116
vt 0.42906108 0.79320693
vt 0.42906108 0.6946838
vt 0.64721847 0.83391285
vt 0.6187177 0.852685
vt 0.64721847 0.8863988
vt 0.40864563 0.8004855
vt 0.40212417 0.8554132
vt 0.4314282 0.8554132
vt 0.8731629 0.288234
vt 0.85169375 0.31012797
vt 0.8731629 0.33410096
vt 0.76092815 0.8767158
vt 0.76092815 0.95057213
vt 0.7174094 0.91054726
vt 0.38543808 0.96915483
vt 0.32501337 0.9344189
vt 0.38543808 0.8693485
vt 0.40212393 0.7568116
vt 0.42906108 0.6946838
vt 0.42906108 0.79320693
vt 0.64721847 0.83391285
vt 0.64721847 0.8863988
vt 0.6187177 0.852685
vt 0.40864563 0.8004855
vt 0.4314282 0.8554132
vt 0.40212417 0.8554132
vt 0.8731629 0.288234
vt 0.8731629 0.33410096
vt 0.85169375 0.31012797
vt 0.93716276 0.87058735
vt 0.95343685 0.89970946
vt 0.9799932 0.91859293
vt 0.9427136 0.89419115
vt 0.93181825 0.89648974
vt 0.911044 0.8307359
vt 0.9316137 0.83232665
vt 0.9799932 0.80742836
vt 0.10851145 0.33349717
vt 0.13080215 0.36262
vt 0.1400299 0.3113687
vt 0.035931587 0.41149533
vt 0.024571896 0.32702982
vt 0.0050616264 0.3596238
vt 0.08769798 0.28441465
vt 0.17019081 0.20653963
vt 0.08456516 0.4494164
vt 0.083266735 0.49250197
vt 0.042717457 0.51571035
vt 0.13373709 0.4635235
vt 0.21156597 0.41879463
vt 0.21291876 0.3210987
vt 0.19684744 0.2890222
vt 0.25440502 0.39410865
vt 0.13946295 0.16356409
vt 0.15124083 0.07156634
vt 0.19101858 0.09412408
vt 0.07759905 0.16957974
vt 0.05247307 0.23621142
vt 0.0036392212 0.30024278
vt 0.2229681 0.026929379
vt 0.25050545 0.022252083
vt 0.22280836 0.003639102
vt 0.25440502 0.07686579
vt 0.22743464 0.10261488
vt 0.45856917 0.6098685
vt 0.5120082 0.5537622
vt 0.43986475 0.5376189
vt 0.46678388 0.51993704
vt 0.5374718 0.47976518
vt 0.45610917 0.3930211
vt 0.59933805 0.57066965
vt 0.62368786 0.5123229
vt 0.6481185 0.6098685
vt 0.3537655 0.6874056
vt 0.42488575 0.6800592
vt 0.38486463 0.61382914
vt 0.2900216 0.68542314
vt 0.31718183 0.60575175
vt 0.3473574 0.54210377
vt 0.40935624 0.5075567
vt 0.2854784 0.5194292
vt 0.35032767 0.4909482
vt 0.35219908 0.45871925
vt 0.26393032 0.45060992
vt 0.26645523 0.44946337
vt 0.35109514 0.4470091
vt 0.34671634 0.4100144
vt 0.4248857 0.36387968
vt 0.26168346 0.44962025
vt 0.8411019 0.7899053
vt 0.7838191 0.78166175
vt 0.83817935 0.8318331
vt 0.89320564 0.81448936
vt 0.9037658 0.86935806
vt 0.9019189 0.7845733
vt 0.9037658 0.6827538
vt 0.7884561 0.7465446
vt 0.81633425 0.6499436
vt 0.43258637 0.032122433
vt 0.31396526 0.0036391318
vt 0.37069082 0.083407134
vt 0.4106114 0.110140175
vt 0.3962828 0.1806409
vt 0.2999698 0.19097976
vt 0.33613086 0.27186844
vt 0.38626117 0.26024532
vt 0.43258643 0.35557207
vt 0.2993983 0.3566014
vt 0.29970932 0.26645625
vt 0.2754557 0.26274022
vt 0.26168334 0.30305636
vt 0.16784751 0.7458852
vt 0.25242734 0.74616045
vt 0.21857738 0.7013248
vt 0.15136826 0.6648097
vt 0.20250392 0.599566
vt 0.25242734 0.59194356
vt 0.24932039 0.52717614
vt 0.21102023 0.5229885
vt 0.39318585 0.8693485
vt 0.3927164 0.9197998
vt 0.42848969 0.88240623
vt 0.42848969 0.9918647
vt 0.83725333 0.6245022
vt 0.8650172 0.6323495
vt 0.8650451 0.6158414
vt 0.83196056 0.59984875
vt 0.8545023 0.56402636
vt 0.8123895 0.57854414
vt 0.80810034 0.60399294
vt 0.8041513 0.6323495
vt 0.843976 0.89337015
vt 0.8063984 0.87663627
vt 0.7838192 0.8929435
vt 0.843976 0.9753927
vt 0.7871585 0.9748901
vt 0.6933649 0.052872658
vt 0.72706753 0.015985489
vt 0.6669389 0.0036392212
vt 0.6074452 0.014723778
vt 0.59009033 0.09092951
vt 0.6934568 0.09343052
vt 0.74957585 0.05772066
vt 0.7141083 0.138731
vt 0.63362813 0.15272665
vt 0.70400053 0.16181803
vt 0.66698974 0.2426033
vt 0.7129891 0.20186234
vt 0.72678816 0.19093657
vt 0.7296377 0.2760334
vt 0.7495758 0.22005558
vt 0.55891633 0.9662305
vt 0.61143947 0.9757911
vt 0.5922339 0.9015738
vt 0.5442295 0.9060155
vt 0.54845953 0.88612115
vt 0.56860304 0.8587924
vt 0.58318543 0.83391297
vt 0.61143947 0.8425299
vt 0.58281195 0.34121418
vt 0.51290727 0.3570695
vt 0.53652984 0.38574266
vt 0.5640419 0.2506776
vt 0.49579954 0.26056576
vt 0.48622772 0.3470602
vt 0.49326953 0.16512108
vt 0.54634494 0.1373272
vt 0.43986475 0.1499219
vt 0.47888508 0.13418627
vt 0.53810287 0.12372589
vt 0.45689094 0.08685875
vt 0.5121323 0.08250618
vt 0.49097848 0.0036392212
vt 0.57778907 0.02139616
vt 0.58281195 0.084019184
vt 0.56546235 0.15651321
vt 0.7765409 0.6499436
vt 0.7361802 0.69964933
vt 0.77622354 0.7437546
vt 0.67653656 0.7371383
vt 0.77654094 0.8337269
vt 0.6879344 0.8361132
vt 0.6553969 0.86943746
vt 0.70291305 0.8868731
vt 0.65539694 0.971077
vt 0.71013117 0.971077
vt 0.67677927 0.8767158
vt 0.8090407 0.32149696
vt 0.84102654 0.36681628
vt 0.84441555 0.3240695
vt 0.8116953 0.36468315
vt 0.7733887 0.3215344
vt 0.7866004 0.288234
vt 0.7821007 0.36681628
vt 0.14011115 0.8014283
vt 0.12317091 0.8358741
vt 0.1353504 0.8443204
vt 0.12005818 0.878158
vt 0.14011115 0.9034114
vt 0.9476197 0.92587113
vt 0.9110441 0.9448347
vt 0.9110441 0.99636084
vt 0.9476197 0.98801386
vt 0.87031114 0.39302105
vt 0.9275825 0.415932
vt 0.9168987 0.39369053
vt 0.856012 0.4729281
vt 0.8182663 0.42019266
vt 0.9253888 0.4796664
vt 0.8041513 0.45412713
vt 0.9275825 0.55208296
vt 0.8889886 0.5567482
vt 0.8193766 0.21626759
vt 0.8036128 0.23882651
vt 0.873227 0.2804551
vt 0.75685394 0.12812448
vt 0.773309 0.25874615
vt 0.8158251 0.13588381
vt 0.85866606 0.13524365
vt 0.873227 0.06848431
vt 0.791224 0.053290367
vt 0.7641256 0.055696964
vt 0.7682109 0.015006065
vt 0.8140278 0.0036392212
vt 0.81470394 0.053386927
vt 0.5175346 0.97618496
vt 0.5369512 0.9629216
vt 0.4913391 0.9509202
vt 0.5369512 0.8692274
vt 0.45981216 0.9219352
vt 0.44022834 0.8757967
vt 0.53517056 0.83391285
vt 0.43986475 0.90867615
vt 0.5900903 0.28797352
vt 0.62745833 0.35935897
vt 0.6769434 0.28331167
vt 0.68067384 0.28600973
vt 0.62803996 0.36523026
vt 0.68067384 0.38036174
vt 0.6286705 0.7095578
vt 0.6337411 0.7133043
vt 0.6337411 0.6171466
vt 0.6284676 0.62174
vt 0.14408994 0.5304086
vt 0.14407027 0.52298856
vt 0.0575552 0.5249157
vt 0.060165763 0.5318036
vt 0.017217755 0.5475795
vt 0.024039268 0.5512183
vt 0.003639102 0.62869143
vt 0.011310577 0.6288619
vt 0.050047874 0.75683355
vt 0.05604267 0.75208044
vt 0.14408994 0.7941501
vt 0.14408052 0.7870438
vt 0.94373345 0.29501605
vt 0.89322567 0.34452772
vt 0.9636524 0.34466767
vt 0.8805053 0.26835656
vt 0.92145467 0.23793936
vt 0.93056273 0.19030094
vt 0.9636524 0.2190423
vt 0.15136838 0.8828293
vt 0.18459916 0.8790581
vt 0.18772888 0.8523823
vt 0.249897 0.8515595
vt 0.24964237 0.87351906
vt 0.249897 0.9400712
vt 0.22085428 0.7534387
vt 0.17005515 0.7760277
vt 0.9802589 0.48951614
vt 0.93486077 0.43969166
vt 0.9363083 0.52018106
vt 0.9802589 0.393021
vt 0.6138434 0.7517505
vt 0.6211893 0.6171466
vt 0.6151098 0.6220794
vt 0.6211893 0.7543088
vt 0.5424597 0.81211025
vt 0.5444716 0.8262756
vt 0.48040593 0.77715325
vt 0.47013938 0.8266345
vt 0.47360125 0.7733006
vt 0.46921778 0.7773157
vt 0.44773105 0.77827287
vt 0.43986472 0.8160236
vt 0.46746588 0.6835647
vt 0.030359745 0.847517
vt 0.112780094 0.868281
vt 0.112780094 0.8014283
vt 0.022153854 0.86572623
vt 0.0068712234 0.8606516
vt 0.0036392212 0.9245527
vt 0.111730576 0.8989171
vt 0.014655113 0.9122443
vt 0.053132057 0.90880775
vt 0.07515764 0.92811567
vt 0.09974432 0.9358761
vt 0.032277107 0.9102699
vt 0.04845476 0.93554854
vt 0.028409481 0.9385146
vt 0.012401581 0.948142
vt 0.88494706 0.9226029
vt 0.8577864 0.9509256
vt 0.87466 0.9560555
vt 0.8970885 0.9206567
vt 0.882169 0.87921387
vt 0.8970885 0.87663627
vt 0.86154366 0.8830234
vt 0.86712503 0.92085326
vt 0.8512542 0.9104985
vt 0.7661104 0.35277665
vt 0.68795204 0.34717986
vt 0.7285374 0.3803617
vt 0.72703123 0.3177069
vt 0.7661104 0.28823394
vt 0.69608253 0.30455917
vt 0.73109645 0.29639655
vt 0.67792726 0.64156044
vt 0.7968731 0.64266527
vt 0.72660685 0.52130425
vt 0.6553967 0.5478516
vt 0.68288445 0.42728168
vt 0.7479801 0.43047652
vt 0.7372756 0.40265682
vt 0.7968731 0.393021
vt 0.3081553 0.86096895
vt 0.26168334 0.75789654
vt 0.26812422 0.85728633
vt 0.34041262 0.7695457
vt 0.33541918 0.6946839
vt 0.3948456 0.73062575
vt 0.3948456 0.8140665
vt 0.39473712 0.86206996
vt 0.8805054 0.0036392212
vt 0.9801983 0.08590722
vt 0.9801983 0.00670743
vt 0.8874839 0.057162046
vt 0.9081686 0.10700607
vt 0.8906271 0.11667371
vt 0.9782284 0.13529897
vt 0.96848243 0.18069983
vt 0.97430557 0.18302274
vt 0.9110441 0.76331913
vt 0.9639616 0.8001498
vt 0.9656298 0.79412675
vt 0.930436 0.7378639
vt 0.9656298 0.69657063
vt 0.9209312 0.6499436
vt 0.93157876 0.5800752
vt 0.90383935 0.5640264
vt 0.93157876 0.6334191
vt 0.8727588 0.6273424
vt 0.8723235 0.58724254
vt 0.9388571 0.63908076
vt 0.9780266 0.63908076
vt 0.96788716 0.5860343
vt 0.94412255 0.5640266
vt 0.31773514 0.8753247
vt 0.26274544 0.8693483
vt 0.2708798 0.92137074
vt 0.3170637 0.90850973
vt 0.2861817 0.94313264
vt 0.3168773 0.9501102
vt 0.26168346 0.9447961
vt 0.31773514 0.987437
vt 0.27583432 0.9821174
vt 0.93716276 0.87058735
vt 0.9799932 0.91859293
vt 0.95343685 0.89970946
vt 0.9427136 0.89419115
vt 0.93181825 0.89648974
vt 0.911044 0.8307359
vt 0.9316137 0.83232665
vt 0.9799932 0.80742836
vt 0.10851145 0.33349717
vt 0.1400299 0.3113687
vt 0.13080215 0.36262
vt 0.035931587 0.41149533
vt 0.024571896 0.32702982
vt 0.0050616264 0.3596238
vt 0.08769798 0.28441465
vt 0.17019081 0.20653963
vt 0.08456516 0.4494164
vt 0.083266735 0.49250197
vt 0.042717457 0.51571035
vt 0.13373709 0.4635235
vt 0.21156597 0.41879463
vt 0.21291876 0.3210987
vt 0.19684744 0.2890222
vt 0.25440502 0.39410865
vt 0.13946295 0.16356409
vt 0.15124083 0.07156634
vt 0.19101858 0.09412408
vt 0.07759905 0.16957974
vt 0.05247307 0.23621142
vt 0.0036392212 0.30024278
vt 0.2229681 0.026929379
vt 0.25050545 0.022252083
vt 0.22280836 0.003639102
vt 0.25440502 0.07686579
vt 0.22743464 0.10261488
vt 0.45856917 0.6098685
vt 0.43986475 0.5376189
vt 0.5120082 0.5537622
vt 0.46678388 0.51993704
vt 0.5374718 0.47976518
vt 0.45610917 0.3930211
vt 0.59933805 0.57066965
vt 0.62368786 0.5123229
vt 0.6481185 0.6098685
vt 0.3537655 0.6874056
vt 0.38486463 0.61382914
vt 0.42488575 0.6800592
vt 0.2900216 0.68542314
vt 0.31718183 0.60575175
vt 0.3473574 0.54210377
vt 0.40935624 0.5075567
vt 0.2854784 0.5194292
vt 0.35032767 0.4909482
vt 0.35219908 0.45871925
vt 0.26393032 0.45060992
vt 0.26645523 0.44946337
vt 0.35109514 0.4470091
vt 0.34671634 0.4100144
vt 0.4248857 0.36387968
vt 0.26168346 0.44962025
vt 0.8411019 0.7899053
vt 0.83817935 0.8318331
vt 0.7838191 0.78166175
vt 0.89320564 0.81448936
vt 0.9037658 0.86935806
vt 0.9019189 0.7845733
vt 0.9037658 0.6827538
vt 0.7884561 0.7465446
vt 0.81633425 0.6499436
vt 0.43258637 0.032122433
vt 0.37069082 0.083407134
vt 0.31396526 0.0036391318
vt 0.4106114 0.110140175
vt 0.3962828 0.1806409
vt 0.2999698 0.19097976
vt 0.33613086 0.27186844
vt 0.38626117 0.26024532
vt 0.43258643 0.35557207
vt 0.2993983 0.3566014
vt 0.29970932 0.26645625
vt 0.2754557 0.26274022
vt 0.26168334 0.30305636
vt 0.16784751 0.7458852
vt 0.21857738 0.7013248
vt 0.25242734 0.74616045
vt 0.15136826 0.6648097
vt 0.20250392 0.599566
vt 0.25242734 0.59194356
vt 0.24932039 0.52717614
vt 0.21102023 0.5229885
vt 0.39318585 0.8693485
vt 0.42848969 0.88240623
vt 0.3927164 0.9197998
vt 0.42848969 0.9918647
vt 0.83725333 0.6245022
vt 0.8650451 0.6158414
vt 0.8650172 0.6323495
vt 0.83196056 0.59984875
vt 0.8545023 0.56402636
vt 0.8123895 0.57854414
vt 0.80810034 0.60399294
vt 0.8041513 0.6323495
vt 0.843976 0.89337015
vt 0.7838192 0.8929435
vt 0.8063984 0.87663627
vt 0.843976 0.9753927
vt 0.7871585 0.9748901
vt 0.6933649 0.052872658
vt 0.6669389 0.0036392212
vt 0.72706753 0.015985489
vt 0.6074452 0.014723778
vt 0.59009033 0.09092951
vt 0.6934568 0.09343052
vt 0.74957585 0.05772066
vt 0.7141083 0.138731
vt 0.63362813 0.15272665
vt 0.70400053 0.16181803
vt 0.66698974 0.2426033
vt 0.7129891 0.20186234
vt 0.72678816 0.19093657
vt 0.7296377 0.2760334
vt 0.7495758 0.22005558
vt 0.55891633 0.9662305
vt 0.5922339 0.9015738
vt 0.61143947 0.9757911
vt 0.5442295 0.9060155
vt 0.54845953 0.88612115
vt 0.56860304 0.8587924
vt 0.58318543 0.83391297
vt 0.61143947 0.8425299
vt 0.58281195 0.34121418
vt 0.53652984 0.38574266
vt 0.51290727 0.3570695
vt 0.5640419 0.2506776
vt 0.49579954 0.26056576
vt 0.48622772 0.3470602
vt 0.49326953 0.16512108
vt 0.54634494 0.1373272
vt 0.43986475 0.1499219
vt 0.47888508 0.13418627
vt 0.53810287 0.12372589
vt 0.45689094 0.08685875
vt 0.5121323 0.08250618
vt 0.49097848 0.0036392212
vt 0.57778907 0.02139616
vt 0.58281195 0.084019184
vt 0.56546235 0.15651321
vt 0.7765409 0.6499436
vt 0.77622354 0.7437546
vt 0.7361802 0.69964933
vt 0.67653656 0.7371383
vt 0.77654094 0.8337269
vt 0.6879344 0.8361132
vt 0.6553969 0.86943746
vt 0.70291305 0.8868731
vt 0.71013117 0.971077
vt 0.65539694 0.971077
vt 0.67677927 0.8767158
vt 0.8090407 0.32149696
vt 0.84441555 0.3240695
vt 0.84102654 0.36681628
vt 0.8116953 0.36468315
vt 0.7733887 0.3215344
vt 0.7866004 0.288234
vt 0.7821007 0.36681628
vt 0.14011115 0.8014283
vt 0.1353504 0.8443204
vt 0.12317091 0.8358741
vt 0.12005818 0.878158
vt 0.14011115 0.9034114
vt 0.9476197 0.92587113
vt 0.9476197 0.98801386
vt 0.9110441 0.99636084
vt 0.9110441 0.9448347
vt 0.87031114 0.39302105
vt 0.9168987 0.39369053
vt 0.9275825 0.415932
vt 0.856012 0.4729281
vt 0.8182663 0.42019266
vt 0.9253888 0.4796664
vt 0.8041513 0.45412713
vt 0.9275825 0.55208296
vt 0.8889886 0.5567482
vt 0.8193766 0.21626759
vt 0.873227 0.2804551
vt 0.8036128 0.23882651
vt 0.75685394 0.12812448
vt 0.773309 0.25874615
vt 0.8158251 0.13588381
vt 0.85866606 0.13524365
vt 0.873227 0.06848431
vt 0.791224 0.053290367
vt 0.7641256 0.055696964
vt 0.7682109 0.015006065
vt 0.8140278 0.0036392212
vt 0.81470394 0.053386927
vt 0.5175346 0.97618496
vt 0.4913391 0.9509202
vt 0.5369512 0.9629216
vt 0.5369512 0.8692274
vt 0.45981216 0.9219352
vt 0.44022834 0.8757967
vt 0.53517056 0.83391285
vt 0.43986475 0.90867615
vt 0.5900903 0.28797352
vt 0.6769434 0.28331167
vt 0.62745833 0.35935897
vt 0.68067384 0.28600973
vt 0.62803996 0.36523026
vt 0.68067384 0.38036174
vt 0.6286705 0.7095578
vt 0.6284676 0.62174
vt 0.6337411 0.6171466
vt 0.6337411 0.7133043
vt 0.14408994 0.5304086
vt 0.0575552 0.5249157
vt 0.14407027 0.52298856
vt 0.060165763 0.5318036
vt 0.017217755 0.5475795
vt 0.024039268 0.5512183
vt 0.003639102 0.62869143
vt 0.011310577 0.6288619
vt 0.050047874 0.75683355
vt 0.05604267 0.75208044
vt 0.14408994 0.7941501
vt 0.14408052 0.7870438
vt 0.94373345 0.29501605
vt 0.9636524 0.34466767
vt 0.89322567 0.34452772
vt 0.8805053 0.26835656
vt 0.92145467 0.23793936
vt 0.93056273 0.19030094
vt 0.9636524 0.2190423
vt 0.15136838 0.8828293
vt 0.18772888 0.8523823
vt 0.18459916 0.8790581
vt 0.249897 0.8515595
vt 0.24964237 0.87351906
vt 0.249897 0.9400712
vt 0.22085428 0.7534387
vt 0.17005515 0.7760277
vt 0.9802589 0.48951614
vt 0.9363083 0.52018106
vt 0.93486077 0.43969166
vt 0.9802589 0.393021
vt 0.6138434 0.7517505
vt 0.6151098 0.6220794
vt 0.6211893 0.6171466
vt 0.6211893 0.7543088
vt 0.5424597 0.81211025
vt 0.5444716 0.8262756
vt 0.48040593 0.77715325
vt 0.47013938 0.8266345
vt 0.47360125 0.7733006
vt 0.46921778 0.7773157
vt 0.44773105 0.77827287
vt 0.43986472 0.8160236
vt 0.46746588 0.6835647
vt 0.030359745 0.847517
vt 0.112780094 0.8014283
vt 0.112780094 0.868281
vt 0.022153854 0.86572623
vt 0.0068712234 0.8606516
vt 0.0036392212 0.9245527
vt 0.111730576 0.8989171
vt 0.014655113 0.9122443
vt 0.053132057 0.90880775
vt 0.07515764 0.92811567
vt 0.09974432 0.9358761
vt 0.032277107 0.9102699
vt 0.04845476 0.93554854
vt 0.028409481 0.9385146
vt 0.012401581 0.948142
vt 0.88494706 0.9226029
vt 0.87466 0.9560555
vt 0.8577864 0.9509256
vt 0.8970885 0.9206567
vt 0.882169 0.87921387
vt 0.8970885 0.87663627
vt 0.86154366 0.8830234
vt 0.86712503 0.92085326
vt 0.8512542 0.9104985
vt 0.7661104 0.35277665
vt 0.7285374 0.3803617
vt 0.68795204 0.34717986
vt 0.72703123 0.3177069
vt 0.7661104 0.28823394
vt 0.69608253 0.30455917
vt 0.73109645 0.29639655
vt 0.67792726 0.64156044
vt 0.72660685 0.52130425
vt 0.7968731 0.64266527
vt 0.6553967 0.5478516
vt 0.68288445 0.42728168
vt 0.7479801 0.43047652
vt 0.7372756 0.40265682
vt 0.7968731 0.393021
vt 0.3081553 0.86096895
vt 0.26812422 0.85728633
vt 0.26168334 0.75789654
vt 0.34041262 0.7695457
vt 0.33541918 0.6946839
vt 0.3948456 0.73062575
vt 0.3948456 0.8140665
vt 0.39473712 0.86206996
vt 0.8805054 0.0036392212
vt 0.9801983 0.00670743
vt 0.9801983 0.08590722
vt 0.8874839 0.057162046
vt 0.9081686 0.10700607
vt 0.8906271 0.11667371
vt 0.9782284 0.13529897
vt 0.96848243 0.18069983
vt 0.97430557 0.18302274
vt 0.9110441 0.76331913
vt 0.9656298 0.79412675
vt 0.9639616 0.8001498
vt 0.930436 0.7378639
vt 0.9656298 0.69657063
vt 0.9209312 0.6499436
vt 0.93157876 0.5800752
vt 0.93157876 0.6334191
vt 0.90383935 0.5640264
vt 0.8727588 0.6273424
vt 0.8723235 0.58724254
vt 0.9388571 0.63908076
vt 0.94412255 0.5640266
vt 0.96788716 0.5860343
vt 0.9780266 0.63908076
vt 0.31773514 0.8753247
vt 0.2708798 0.92137074
vt 0.26274544 0.8693483
vt 0.3170637 0.90850973
vt 0.2861817 0.94313264
vt 0.3168773 0.9501102
vt 0.26168346 0.9447961
vt 0.31773514 0.987437
vt 0.27583432 0.9821174
vn -0.002560642 -0.8872831 0.08760325
vn 0.00013840414 -0.94106585 0.0722433
vn 0.29658985 -0.77358 -0.39080885
vn 0.5291628 0.47966355 -0.67417026
vn 0.57819784 -0.31914645 -0.61588305
vn 0.26881856 -0.1336071 -0.878022
vn 0.6844923 -0.34975484 0.61611676
vn 0.45929053 -0.62673223 -0.5481219
vn 0.6038226 -0.24291697 -0.6434776
vn 0.0008644688 0.09337418 -0.96737814
vn 0.0018022747 -0.9367851 -0.2852005
vn 0.46739414 -0.83541334 -0.23301676
vn 0.5115812 -0.26493138 0.7820452
vn 0.004026749 -0.42605987 0.8696081
vn 0.007299606 -0.32181323 0.9159049
vn -0.08848438 0.81721896 -0.5694935
vn 0.5871216 0.52768725 -0.6138679
vn 0.8738981 0.47626013 -0.09735583
vn -0.002560642 -0.8872831 0.08760325
vn -0.30079097 -0.81734324 -0.39478734
vn 0.00013840414 -0.94106585 0.0722433
vn -0.5291908 0.7432196 0.3841431
vn -0.26878694 0.5497333 -0.7127713
vn -0.57886577 0.22977832 -0.71530306
vn -0.6844825 -0.6757573 -0.22505255
vn -0.6037959 0.4990548 -0.55308527
vn -0.45927307 0.26064837 -0.80695444
vn 0.0008644688 0.09337418 -0.96737814
vn -0.46408394 -0.83693033 -0.23447162
vn 0.0018022747 -0.9367851 -0.2852005
vn -0.5120642 -0.1801643 0.80127084
vn 0.007299606 -0.32181323 0.9159049
vn 0.004026749 -0.42605987 0.8696081
vn 0.10621769 -0.9460344 -0.3061634
vn -0.85038924 -0.35939392 -0.38428336
vn -0.5854016 -0.8049948 -0.096373804
vn -0.7826707 -0.604889 -0.14675023
vn -0.82037634 0.3953268 -0.41315728
vn -0.24572574 0.13678005 -0.9596402
vn -0.9674034 0.12442902 -0.2205624
vn -0.49773476 -0.42982727 -0.75333154
vn -0.14041784 -0.7294592 -0.66945624
vn -0.9277383 -0.18973604 -0.32140565
vn -0.5221131 0.7186765 0.45924017
vn 0.1267309 0.77731097 0.4376319
vn 0.43386403 0.7144896 0.3433022
vn 0.18588135 0.8310292 -0.11899459
vn 0.3166345 0.31035498 0.84045047
vn 0.48861805 0.34094417 0.7722373
vn 0.42230588 -0.2561754 0.8097568
vn 0.10268555 0.6128338 0.7727084
vn -0.5709035 0.8095691 0.13118118
vn 0.27344212 0.6909423 0.5795813
vn 0.01861875 0.6676262 0.684059
vn 0.016332226 0.21727264 0.9366321
vn 0.01885576 0.8505228 0.43495342
vn 0.012632073 0.8440447 0.07481378
vn 0.2612504 0.4458621 0.60348773
vn 0.535904 0.23481585 0.5641606
vn 0.02659953 0.554296 0.6028354
vn 0.05507783 0.92092395 0.38275155
vn 0.6318471 0.660594 0.4054437
vn -0.5221131 0.7186765 0.45924017
vn 0.6456608 0.4031012 0.647254
vn 0.7510033 -0.1318571 0.64553
vn 0.8572587 -0.32130197 0.37366042
vn 0.3049448 0.75226444 0.5840432
vn 0.067711055 0.9867521 0.14742833
vn 0.8738981 0.47626013 -0.09735583
vn -0.59182715 0.62528926 0.50867826
vn -0.5578398 0.004773617 0.8299346
vn 0.32498887 -0.7484505 -0.5169302
vn 0.3396881 -0.02948448 -0.8612145
vn 0.65870637 -0.37930474 -0.55129397
vn 0.78778833 -0.3119151 -0.4134138
vn 0.6234255 -0.26567906 0.5083758
vn 0.21383058 -0.2600936 0.8018389
vn 0.18588135 0.8310292 -0.11899459
vn 0.535904 0.23481585 0.5641606
vn 0.43386403 0.7144896 0.3433022
vn -0.6251603 -0.11846687 -0.7711719
vn -0.41215944 0.54043686 -0.7325257
vn -0.87370306 0.44781664 -0.18976066
vn -0.84881 -0.507564 -0.14792344
vn -0.40909225 -0.8927161 0.1395411
vn -0.9583759 -0.09336096 -0.26041737
vn -0.25983572 0.8254339 -0.41266325
vn -0.6733676 -0.67840147 0.20352675
vn -0.98153085 0.14680348 -0.11038951
vn -0.7580667 -0.01996696 -0.6215225
vn -0.20368305 -0.50214773 -0.7570079
vn -0.46118194 -0.22302528 -0.79330456
vn -0.559067 -0.3048654 -0.7181437
vn -2.8300647E-06 -0.07917783 -0.92399096
vn -1.682184E-05 0.5559443 -0.7260481
vn -0.14176096 -0.094136015 -0.9151306
vn 0.29658985 -0.77358 -0.39080885
vn 0.00013840414 -0.94106585 0.0722433
vn 0.11197591 -0.9404375 -0.20994988
vn 0.65870637 -0.37930474 -0.55129397
vn 0.32498887 -0.7484505 -0.5169302
vn 0.78778833 -0.3119151 -0.4134138
vn 0.21383058 -0.2600936 0.8018389
vn -0.002560642 -0.8872831 0.08760325
vn 6.2742974E-06 -0.5102973 0.7351115
vn 0.5266415 0.5517288 -0.6457393
vn 0.9466424 -0.23890048 -0.21617071
vn 0.9902367 0.11821748 0.07385189
vn 0.38503143 0.85905606 -0.337303
vn 0.8082089 0.52380365 -0.23435952
vn 0.8032925 -0.52036977 0.2626471
vn 0.9816704 0.1345415 -0.13398883
vn 0.5291628 0.47966355 -0.67417026
vn 0.57819784 -0.31914645 -0.61588305
vn 0.6038226 -0.24291697 -0.6434776
vn 0.9842539 -0.07393118 0.15966615
vn 0.75789976 -0.45775688 0.45262778
vn 0.6844923 -0.34975484 0.61611676
vn 0.5291628 0.47966355 -0.67417026
vn -0.7580667 -0.01996696 -0.6215225
vn -0.25983572 0.8254339 -0.41266325
vn 0.8082089 0.52380365 -0.23435952
vn 0.38503143 0.85905606 -0.337303
vn -0.87370306 0.44781664 -0.18976066
vn -0.41215944 0.54043686 -0.7325257
vn 0.5266415 0.5517288 -0.6457393
vn 0.42230588 -0.2561754 0.8097568
vn 0.48861805 0.34094417 0.7722373
vn 0.8572587 -0.32130197 0.37366042
vn 0.10268555 0.6128338 0.7727084
vn 0.53523576 -0.83651656 -0.02953846
vn 0.0019542852 -0.97498244 -0.15375917
vn 0.0024278353 -0.88938355 -0.43445283
vn 0.47231176 -0.8613564 -0.18123753
vn 0.0013183476 -0.9451441 0.32665008
vn 0.5738429 -0.79474324 0.19770464
vn 0.74283195 -0.64711964 -0.15705207
vn 0.91730255 -0.3920145 0.019597925
vn 0.42871335 -0.49813962 0.6875147
vn 0.5115812 -0.26493138 0.7820452
vn 0.007299606 -0.32181323 0.9159049
vn 0.3166345 0.31035498 0.84045047
vn 0.016332226 0.21727264 0.9366321
vn 0.42871335 -0.49813962 0.6875147
vn 0.3166345 0.31035498 0.84045047
vn 0.42230588 -0.2561754 0.8097568
vn 0.8572587 -0.32130197 0.37366042
vn 0.627023 -0.6978139 -0.3289573
vn 0.22612135 -0.9152198 0.15023282
vn 0.5115812 -0.26493138 0.7820452
vn 0.7025064 -0.6694404 0.12377006
vn 0.32498887 -0.7484505 -0.5169302
vn 0.59533423 -0.77072275 0.01771316
vn 0.11197591 -0.9404375 -0.20994988
vn -0.071301416 -0.9558461 0.14584118
vn 0.49903122 -0.48185766 -0.6843455
vn 0.00013840414 -0.94106585 0.0722433
vn -0.0037826751 -0.6383299 -0.7326925
vn -0.14041784 -0.7294592 -0.66945624
vn 0.86613774 -0.3846576 -0.31912923
vn 0.46801385 -0.26331735 -0.8435795
vn -0.49773476 -0.42982727 -0.75333154
vn -0.82037634 0.3953268 -0.41315728
vn -0.24572574 0.13678005 -0.9596402
vn -0.08848438 0.81721896 -0.5694935
vn 0.5871216 0.52768725 -0.6138679
vn 0.46801385 -0.26331735 -0.8435795
vn 0.8738981 0.47626013 -0.09735583
vn 0.5871216 0.52768725 -0.6138679
vn 0.86613774 -0.3846576 -0.31912923
vn 0.6318471 0.660594 0.4054437
vn 0.3049448 0.75226444 0.5840432
vn 0.9537264 -0.10870394 0.27989757
vn 0.59736675 -0.79893345 -0.057949036
vn 0.6456608 0.4031012 0.647254
vn 0.801688 -0.3771119 0.46268782
vn 0.46794176 -0.8811954 0.05551997
vn 0.7510033 -0.1318571 0.64553
vn 0.8503687 -0.5163689 -0.100489885
vn 0.8572587 -0.32130197 0.37366042
vn 0.627023 -0.6978139 -0.3289573
vn 0.36941734 -0.46763563 -0.8030238
vn 0.07923439 -0.78111744 -0.61862737
vn -0.9277383 -0.18973604 -0.32140565
vn -0.84234464 0.41074124 -0.34836465
vn -0.68795246 -0.14838386 -0.7097399
vn -0.5709035 0.8095691 0.13118118
vn 0.3396881 -0.02948448 -0.8612145
vn 0.18588135 0.8310292 -0.11899459
vn 0.1267309 0.77731097 0.4376319
vn -0.14041784 -0.7294592 -0.66945624
vn -0.68795246 -0.14838386 -0.7097399
vn -0.05994294 -0.86071575 -0.5044062
vn -0.9277383 -0.18973604 -0.32140565
vn -0.08848438 0.81721896 -0.5694935
vn -0.7422141 0.11660671 -0.65993965
vn -0.24572574 0.13678005 -0.9596402
vn -0.70361245 0.6699915 -0.23672836
vn 0.067711055 0.9867521 0.14742833
vn 0.8738981 0.47626013 -0.09735583
vn -0.59182715 0.62528926 0.50867826
vn -0.80502427 -0.5582076 -0.20084964
vn -0.2457009 -0.6385893 0.7292706
vn -0.06773414 -0.9215224 -0.3823707
vn 0.27085367 -0.6949582 0.66592073
vn 0.6191635 -0.7371116 -0.27035904
vn -0.24572574 0.13678005 -0.9596402
vn -0.7422141 0.11660671 -0.65993965
vn -0.8559187 -0.5157838 -0.037011117
vn -0.7826707 -0.604889 -0.14675023
vn -0.06773414 -0.9215224 -0.3823707
vn -0.84881 -0.507564 -0.14792344
vn -0.80502427 -0.5582076 -0.20084964
vn 0.046730757 -0.26192605 -0.9637458
vn 0.6191635 -0.7371116 -0.27035904
vn -0.6251603 -0.11846687 -0.7711719
vn 0.9466424 -0.23890048 -0.21617071
vn -0.41215944 0.54043686 -0.7325257
vn 0.5266415 0.5517288 -0.6457393
vn -0.40909225 -0.8927161 0.1395411
vn 0.4601422 -0.7073425 0.5361962
vn -0.84881 -0.507564 -0.14792344
vn 0.8032925 -0.52036977 0.2626471
vn 0.9902367 0.11821748 0.07385189
vn 0.032349236 -0.8775829 0.43221736
vn -0.6733676 -0.67840147 0.20352675
vn -0.20368305 -0.50214773 -0.7570079
vn 0.3659959 -0.74790907 0.51590854
vn 0.75789976 -0.45775688 0.45262778
vn 0.6844923 -0.34975484 0.61611676
vn 0.45929053 -0.62673223 -0.5481219
vn 0.019993057 -0.84368 0.458709
vn -0.80502427 -0.5582076 -0.20084964
vn -0.84881 -0.507564 -0.14792344
vn -0.2457009 -0.6385893 0.7292706
vn 0.4601422 -0.7073425 0.5361962
vn 0.27085367 -0.6949582 0.66592073
vn 0.9466424 -0.23890048 -0.21617071
vn 0.9902367 0.11821748 0.07385189
vn 0.6191635 -0.7371116 -0.27035904
vn 0.5291628 0.47966355 -0.67417026
vn 0.26881856 -0.1336071 -0.878022
vn -0.7580667 -0.01996696 -0.6215225
vn -0.559067 -0.3048654 -0.7181437
vn -0.07925613 0.15632969 -0.9041535
vn -1.682184E-05 0.5559443 -0.7260481
vn 0.57819784 -0.31914645 -0.61588305
vn 0.7678037 0.2854175 -0.47382262
vn -0.07925613 0.15632969 -0.9041535
vn 0.26881856 -0.1336071 -0.878022
vn 0.02659953 0.554296 0.6028354
vn 0.02529741 0.2420362 0.781081
vn 0.22231837 0.48589543 0.58232236
vn 0.2612504 0.4458621 0.60348773
vn 0.5861404 0.29134297 0.52288485
vn 0.535904 0.23481585 0.5641606
vn 0.5847258 -0.13909161 0.58505213
vn 0.6234255 -0.26567906 0.5083758
vn 0.500981 -0.39636427 0.6438593
vn 0.21383058 -0.2600936 0.8018389
vn 7.3199762E-06 -0.7072065 0.55176544
vn 6.2742974E-06 -0.5102973 0.7351115
vn 0.36941734 -0.46763563 -0.8030238
vn 0.32498887 -0.7484505 -0.5169302
vn 0.627023 -0.6978139 -0.3289573
vn 0.3396881 -0.02948448 -0.8612145
vn -0.3185976 -0.3423131 -0.8830613
vn -0.68795246 -0.14838386 -0.7097399
vn 0.07923439 -0.78111744 -0.61862737
vn -0.68795246 -0.14838386 -0.7097399
vn 0.07923439 -0.78111744 -0.61862737
vn -0.05994294 -0.86071575 -0.5044062
vn 0.59736675 -0.79893345 -0.057949036
vn 0.46794176 -0.8811954 0.05551997
vn 0.8503687 -0.5163689 -0.100489885
vn 0.86613774 -0.3846576 -0.31912923
vn -0.14041784 -0.7294592 -0.66945624
vn -0.5221131 0.7186765 0.45924017
vn -0.84234464 0.41074124 -0.34836465
vn -0.9277383 -0.18973604 -0.32140565
vn -0.5709035 0.8095691 0.13118118
vn 0.6038226 -0.24291697 -0.6434776
vn 0.7678037 0.2854175 -0.47382262
vn 0.57819784 -0.31914645 -0.61588305
vn 0.88993114 -0.22630815 -0.3059445
vn 0.45929053 -0.62673223 -0.5481219
vn 0.88712895 -0.14729594 -0.39591876
vn -0.20368305 -0.50214773 -0.7570079
vn 0.27000728 0.5828557 -0.6668304
vn -0.46118194 -0.22302528 -0.79330456
vn -0.14176096 -0.094136015 -0.9151306
vn -2.640592E-06 -0.04870072 -0.92922163
vn -7.073243E-06 0.49229473 -0.7792139
vn -2.8300647E-06 -0.07917783 -0.92399096
vn 0.7025064 -0.6694404 0.12377006
vn 0.7279916 -0.037896447 0.6633441
vn 0.5115812 -0.26493138 0.7820452
vn 0.9750508 -0.047947563 0.19975992
vn 0.59533423 -0.77072275 0.01771316
vn 0.9250883 -0.26043266 -0.25794655
vn 0.8484023 -0.160982 0.49995086
vn 0.833436 -0.22773997 0.49042434
vn 0.91730255 -0.3920145 0.019597925
vn 0.74283195 -0.64711964 -0.15705207
vn 0.5738429 -0.79474324 0.19770464
vn 0.8622733 -0.36462975 0.3364815
vn 0.53523576 -0.83651656 -0.02953846
vn 0.48130172 -0.78657615 0.36029932
vn 0.36490938 -0.71190685 0.5768908
vn 0.36490938 -0.71190685 0.5768908
vn 0.833436 -0.22773997 0.49042434
vn 0.9250883 -0.26043266 -0.25794655
vn 0.46739414 -0.83541334 -0.23301676
vn 0.0004786959 -0.85788167 0.4795365
vn 0.0018022747 -0.9367851 -0.2852005
vn 0.0019542852 -0.97498244 -0.15375917
vn 0.48130172 -0.78657615 0.36029932
vn 0.53523576 -0.83651656 -0.02953846
vn 0.9250883 -0.26043266 -0.25794655
vn 0.0008644688 0.09337418 -0.96737814
vn 0.46739414 -0.83541334 -0.23301676
vn 0.35728356 0.38942155 -0.81389624
vn 0.59533423 -0.77072275 0.01771316
vn -0.0037826751 -0.6383299 -0.7326925
vn 0.49903122 -0.48185766 -0.6843455
vn 0.5861404 0.29134297 0.52288485
vn 0.7678037 0.2854175 -0.47382262
vn 0.88993114 -0.22630815 -0.3059445
vn 0.5847258 -0.13909161 0.58505213
vn 0.500981 -0.39636427 0.6438593
vn 0.88712895 -0.14729594 -0.39591876
vn 0.70693123 -0.5967736 0.21984133
vn 0.82126176 0.032202855 -0.51645064
vn 0.22231837 0.48589543 0.58232236
vn 0.7678037 0.2854175 -0.47382262
vn 0.5861404 0.29134297 0.52288485
vn 0.03253492 0.76629615 -0.38918146
vn -0.07925613 0.15632969 -0.9041535
vn -1.682184E-05 0.5559443 -0.7260481
vn 0.012414135 0.84399194 0.09437224
vn 0.02529741 0.2420362 0.781081
vn 0.500981 -0.39636427 0.6438593
vn 7.115745E-06 -0.91071117 0.06213972
vn 7.3199762E-06 -0.7072065 0.55176544
vn 0.70693123 -0.5967736 0.21984133
vn 0.4462178 -0.80726093 -0.057557106
vn 0.82126176 0.032202855 -0.51645064
vn 6.677854E-06 -0.8832334 -0.22053374
vn 0.45334995 0.0349378 -0.8144816
vn -3.1809395E-06 -0.020237356 -0.914304
vn -7.073243E-06 0.49229473 -0.7792139
vn -3.1809395E-06 -0.020237356 -0.914304
vn 0.45334995 0.0349378 -0.8144816
vn 0.27000728 0.5828557 -0.6668304
vn 0.82126176 0.032202855 -0.51645064
vn 0.88712895 -0.14729594 -0.39591876
vn -0.7422141 0.11660671 -0.65993965
vn -0.70361245 0.6699915 -0.23672836
vn -0.8559187 -0.5157838 -0.037011117
vn -0.5578398 0.004773617 0.8299346
vn -0.59182715 0.62528926 0.50867826
vn -0.7826707 -0.604889 -0.14675023
vn -0.8559187 -0.5157838 -0.037011117
vn -0.5578398 0.004773617 0.8299346
vn -0.5221131 0.7186765 0.45924017
vn 0.004026749 -0.42605987 0.8696081
vn 0.5115812 -0.26493138 0.7820452
vn 0.7279916 -0.037896447 0.6633441
vn -0.0016977239 -0.042177945 0.9822873
vn 0.37523013 -0.28809917 0.880045
vn -0.00076371495 -0.4805468 0.8726628
vn 0.8484023 -0.160982 0.49995086
vn 0.0013183476 -0.9451441 0.32665008
vn 0.5738429 -0.79474324 0.19770464
vn 0.7411591 0.24147551 0.6263964
vn 0.20820445 -0.8513033 0.4815941
vn 0.8206281 -0.57136333 -0.0106280595
vn 0.9615061 -0.2555073 0.10110156
vn 0.43842092 -0.34773412 0.82877475
vn 0.06965612 -0.09941295 0.99260503
vn 0.90027434 -0.14778757 0.40946862
vn 0.58090615 -0.065405786 -0.8113384
vn -0.097149655 0.83026826 -0.34349823
vn -0.1660366 0.37550065 -0.7558578
vn -0.41908652 0.79245055 0.060306795
vn -0.31015274 0.5385083 0.6935679
vn -0.45761445 0.82927084 0.04599373
vn -0.40964502 0.4409046 0.7100461
vn -0.05844624 0.8358493 -0.39655295
vn 0.6026436 0.021377534 -0.7187898
vn -0.26715145 0.77325314 0.4501745
vn 0.01861875 0.6676262 0.684059
vn 0.016332226 0.21727264 0.9366321
vn 0.01885576 0.8505228 0.43495342
vn 0.012632073 0.8440447 0.07481378
vn -0.25679183 0.21078682 0.85183495
vn -0.53308344 -0.048488513 0.7563204
vn 0.02659953 0.554296 0.6028354
vn 0.0009925663 0.042776316 -0.89981526
vn -0.5757574 -0.068446815 -0.8147503
vn 0.58090615 -0.065405786 -0.8113384
vn -0.6019829 0.5377085 -0.4656486
vn -0.72640026 0.6212659 0.16183501
vn -0.8509296 0.2584208 0.43046203
vn -0.23647457 0.018114716 -0.97146857
vn -0.007303342 -0.47300392 -0.8810299
vn -0.85038924 -0.35939392 -0.38428336
vn 0.64766943 0.029820174 -0.76133776
vn 0.5950008 0.65900725 -0.4600905
vn -0.3550891 -0.7949909 0.36590737
vn -0.66770464 -0.5326165 -0.43212408
vn -0.37073013 -0.78989756 -0.3311641
vn -0.79434144 -0.41515356 -0.37898642
vn -0.62735957 -0.54505545 0.46403605
vn -0.21463701 -0.8982506 0.23337397
vn -0.1660366 0.37550065 -0.7558578
vn -0.53308344 -0.048488513 0.7563204
vn -0.41908652 0.79245055 0.060306795
vn 0.6263668 0.74489504 -0.22440524
vn 0.8735392 0.33912817 0.34842688
vn 0.41259593 0.8399831 0.34061262
vn 0.84976405 0.089483574 -0.519408
vn 0.40984386 -0.45829114 -0.7866317
vn 0.9588255 0.22306025 -0.1730443
vn 0.25944442 0.60528326 0.7422817
vn 0.6735275 -0.36025485 -0.6217338
vn 0.98150074 0.13982712 0.124586776
vn 0.7581288 0.5960084 -0.19919346
vn 0.20370479 -0.04087679 -0.9193071
vn 0.46119323 0.20459495 -0.8098258
vn 0.5591562 0.54278004 -0.5716289
vn -2.8300647E-06 -0.07917783 -0.92399096
vn -1.682184E-05 0.5559443 -0.7260481
vn 0.14176662 0.3673656 -0.8576644
vn -0.30079097 -0.81734324 -0.39478734
vn -0.117117524 -0.93822277 -0.049206406
vn 0.00013840414 -0.94106585 0.0722433
vn -0.66770464 -0.5326165 -0.43212408
vn -0.3550891 -0.7949909 0.36590737
vn -0.79434144 -0.41515356 -0.37898642
vn -0.21463701 -0.8982506 0.23337397
vn -0.002560642 -0.8872831 0.08760325
vn 6.2742974E-06 -0.5102973 0.7351115
vn -0.5263467 0.76147485 0.36876065
vn -0.9905019 -0.02244867 0.13561057
vn -0.9459994 0.18242714 -0.26729026
vn -0.38535523 0.6401745 0.6645882
vn -0.80843705 0.40255126 0.425621
vn -0.8031774 -0.31664458 -0.5017562
vn -0.9816762 0.14234258 0.12619582
vn -0.5291908 0.7432196 0.3841431
vn -0.57886577 0.22977832 -0.71530306
vn -0.6037959 0.4990548 -0.55308527
vn -0.9842512 -0.16469084 -0.06239057
vn -0.75788546 -0.5028763 -0.4044442
vn -0.6844825 -0.6757573 -0.22505255
vn -0.5291908 0.7432196 0.3841431
vn 0.25944442 0.60528326 0.7422817
vn 0.7581288 0.5960084 -0.19919346
vn -0.80843705 0.40255126 0.425621
vn -0.38535523 0.6401745 0.6645882
vn 0.8735392 0.33912817 0.34842688
vn 0.41259593 0.8399831 0.34061262
vn -0.5263467 0.76147485 0.36876065
vn -0.40964502 0.4409046 0.7100461
vn -0.8509296 0.2584208 0.43046203
vn -0.45761445 0.82927084 0.04599373
vn -0.05844624 0.8358493 -0.39655295
vn -0.5320415 -0.8385418 -0.031481124
vn 0.0024278353 -0.88938355 -0.43445283
vn 0.0019542852 -0.97498244 -0.15375917
vn -0.46804866 -0.86329365 -0.18309551
vn 0.0013183476 -0.9451441 0.32665008
vn -0.5713082 -0.7971327 0.19541284
vn -0.7396881 -0.6500555 -0.15986782
vn -0.91604847 -0.39526927 0.016476057
vn -0.4302191 -0.29887232 0.7920736
vn 0.007299606 -0.32181323 0.9159049
vn -0.5120642 -0.1801643 0.80127084
vn -0.31015274 0.5385083 0.6935679
vn 0.016332226 0.21727264 0.9366321
vn -0.4302191 -0.29887232 0.7920736
vn -0.40964502 0.4409046 0.7100461
vn -0.31015274 0.5385083 0.6935679
vn -0.8509296 0.2584208 0.43046203
vn -0.6540605 -0.47001362 0.57612866
vn -0.23247018 -0.823231 0.38605338
vn -0.5120642 -0.1801643 0.80127084
vn -0.7044866 -0.65630096 0.19578731
vn -0.3550891 -0.7949909 0.36590737
vn -0.598426 -0.75883365 0.12507781
vn -0.117117524 -0.93822277 -0.049206406
vn 0.06879249 -0.9198137 0.24416065
vn -0.50042 -0.5387894 -0.6324488
vn 0.00013840414 -0.94106585 0.0722433
vn -0.0037826751 -0.6383299 -0.7326925
vn 0.06965612 -0.09941295 0.99260503
vn -0.52003187 -0.5153987 0.68112475
vn -0.89950395 -0.021042943 0.4364055
vn 0.43842092 -0.34773412 0.82877475
vn 0.8206281 -0.57136333 -0.0106280595
vn 0.20820445 -0.8513033 0.4815941
vn 0.10621769 -0.9460344 -0.3061634
vn -0.5854016 -0.8049948 -0.096373804
vn -0.52003187 -0.5153987 0.68112475
vn -0.5854016 -0.8049948 -0.096373804
vn -0.85038924 -0.35939392 -0.38428336
vn -0.89950395 -0.021042943 0.4364055
vn -0.5757574 -0.068446815 -0.8147503
vn -0.23647457 0.018114716 -0.97146857
vn -0.94386214 0.2888844 -0.08022837
vn -0.62911296 0.13043886 0.6811627
vn -0.6019829 0.5377085 -0.4656486
vn -0.79424673 0.5076386 0.17589106
vn -0.4908384 0.074219435 0.7977304
vn -0.72640026 0.6212659 0.16183501
vn -0.8655923 -0.13320048 0.47034484
vn -0.8509296 0.2584208 0.43046203
vn -0.6540605 -0.47001362 0.57612866
vn -0.41209796 -0.8596103 0.3020678
vn -0.12420389 -0.676896 0.6753433
vn 0.90027434 -0.14778757 0.40946862
vn 0.6467789 -0.52454853 0.480115
vn 0.844679 -0.4919473 -0.113560006
vn 0.6026436 0.021377534 -0.7187898
vn -0.37073013 -0.78989756 -0.3311641
vn -0.1660366 0.37550065 -0.7558578
vn -0.097149655 0.83026826 -0.34349823
vn 0.06965612 -0.09941295 0.99260503
vn -0.006256126 0.014953285 0.95298654
vn 0.6467789 -0.52454853 0.480115
vn 0.90027434 -0.14778757 0.40946862
vn 0.10621769 -0.9460344 -0.3061634
vn 0.20820445 -0.8513033 0.4815941
vn 0.71617895 -0.6015388 0.35389015
vn 0.72717786 -0.5941967 -0.34371814
vn -0.007303342 -0.47300392 -0.8810299
vn -0.85038924 -0.35939392 -0.38428336
vn 0.64766943 0.029820174 -0.76133776
vn 0.8061233 0.13811277 -0.5754043
vn 0.06961583 0.27988464 -0.9575057
vn 0.24574168 -0.79461926 -0.5551503
vn -0.27066904 -0.7428778 -0.6112544
vn -0.6177071 0.17836723 -0.7651539
vn 0.20820445 -0.8513033 0.4815941
vn 0.7411591 0.24147551 0.6263964
vn 0.8241123 0.2755959 0.49485907
vn 0.71617895 -0.6015388 0.35389015
vn 0.06961583 0.27988464 -0.9575057
vn 0.8061233 0.13811277 -0.5754043
vn 0.84976405 0.089483574 -0.519408
vn -0.045079313 0.9222837 -0.38089976
vn -0.6177071 0.17836723 -0.7651539
vn 0.6263668 0.74489504 -0.22440524
vn -0.9459994 0.18242714 -0.26729026
vn 0.41259593 0.8399831 0.34061262
vn -0.5263467 0.76147485 0.36876065
vn 0.40984386 -0.45829114 -0.7866317
vn 0.84976405 0.089483574 -0.519408
vn -0.46030027 -0.75314635 -0.46742895
vn -0.8031774 -0.31664458 -0.5017562
vn -0.9905019 -0.02244867 0.13561057
vn -0.03215471 -0.52323246 -0.8469116
vn 0.6735275 -0.36025485 -0.6217338
vn 0.20370479 -0.04087679 -0.9193071
vn -0.36597425 -0.63723797 -0.65331364
vn -0.75788546 -0.5028763 -0.4044442
vn -0.6844825 -0.6757573 -0.22505255
vn -0.45927307 0.26064837 -0.80695444
vn -0.019970674 -0.66899794 -0.6990602
vn 0.8061233 0.13811277 -0.5754043
vn 0.24574168 -0.79461926 -0.5551503
vn 0.84976405 0.089483574 -0.519408
vn -0.46030027 -0.75314635 -0.46742895
vn -0.27066904 -0.7428778 -0.6112544
vn -0.9459994 0.18242714 -0.26729026
vn -0.9905019 -0.02244867 0.13561057
vn -0.6177071 0.17836723 -0.7651539
vn -0.5291908 0.7432196 0.3841431
vn 0.7581288 0.5960084 -0.19919346
vn -0.26878694 0.5497333 -0.7127713
vn 0.5591562 0.54278004 -0.5716289
vn 0.079270214 0.75296855 -0.5493287
vn -1.682184E-05 0.5559443 -0.7260481
vn -0.57886577 0.22977832 -0.71530306
vn -0.26878694 0.5497333 -0.7127713
vn 0.079270214 0.75296855 -0.5493287
vn -0.7665519 0.56758684 -0.14469764
vn 0.02659953 0.554296 0.6028354
vn -0.21811984 0.19073251 0.8665161
vn 0.02529741 0.2420362 0.781081
vn -0.25679183 0.21078682 0.85183495
vn -0.58352894 -0.03964661 0.7303999
vn -0.53308344 -0.048488513 0.7563204
vn -0.5873145 -0.49582478 0.5525996
vn -0.62735957 -0.54505545 0.46403605
vn -0.5016449 -0.82464415 -0.015771449
vn -0.21463701 -0.8982506 0.23337397
vn 7.3199762E-06 -0.7072065 0.55176544
vn 6.2742974E-06 -0.5102973 0.7351115
vn -0.41209796 -0.8596103 0.3020678
vn -0.6540605 -0.47001362 0.57612866
vn -0.3550891 -0.7949909 0.36590737
vn -0.37073013 -0.78989756 -0.3311641
vn 0.27097616 -0.8493385 0.2916702
vn 0.6467789 -0.52454853 0.480115
vn -0.12420389 -0.676896 0.6753433
vn 0.6467789 -0.52454853 0.480115
vn -0.006256126 0.014953285 0.95298654
vn -0.12420389 -0.676896 0.6753433
vn -0.62911296 0.13043886 0.6811627
vn -0.4908384 0.074219435 0.7977304
vn -0.8655923 -0.13320048 0.47034484
vn -0.89950395 -0.021042943 0.4364055
vn 0.06965612 -0.09941295 0.99260503
vn 0.58090615 -0.065405786 -0.8113384
vn 0.90027434 -0.14778757 0.40946862
vn 0.844679 -0.4919473 -0.113560006
vn 0.6026436 0.021377534 -0.7187898
vn -0.6037959 0.4990548 -0.55308527
vn -0.57886577 0.22977832 -0.71530306
vn -0.7665519 0.56758684 -0.14469764
vn -0.89068323 0.14732432 -0.3899237
vn -0.45927307 0.26064837 -0.80695444
vn -0.88712364 0.26428884 -0.3472807
vn 0.20370479 -0.04087679 -0.9193071
vn -0.27001044 0.8726433 -0.23643284
vn 0.46119323 0.20459495 -0.8098258
vn 0.14176662 0.3673656 -0.8576644
vn -2.640592E-06 -0.04870072 -0.92922163
vn -7.073243E-06 0.49229473 -0.7792139
vn -2.8300647E-06 -0.07917783 -0.92399096
vn -0.7044866 -0.65630096 0.19578731
vn -0.5120642 -0.1801643 0.80127084
vn -0.7300361 -0.017621629 0.6669294
vn -0.975707 -0.04572188 0.20562363
vn -0.598426 -0.75883365 0.12507781
vn -0.92396605 -0.27305007 -0.2534615
vn -0.84971565 -0.16425659 0.49681005
vn -0.834502 -0.22882608 0.48947337
vn -0.91604847 -0.39526927 0.016476057
vn -0.7396881 -0.6500555 -0.15986782
vn -0.5713082 -0.7971327 0.19541284
vn -0.8624024 -0.36690724 0.33544916
vn -0.5320415 -0.8385418 -0.031481124
vn -0.47994298 -0.78830886 0.35863742
vn -0.36470428 -0.7131652 0.57568395
vn -0.36470428 -0.7131652 0.57568395
vn -0.92396605 -0.27305007 -0.2534615
vn -0.834502 -0.22882608 0.48947337
vn -0.46408394 -0.83693033 -0.23447162
vn 0.0004786959 -0.85788167 0.4795365
vn 0.0018022747 -0.9367851 -0.2852005
vn 0.0019542852 -0.97498244 -0.15375917
vn -0.47994298 -0.78830886 0.35863742
vn -0.5320415 -0.8385418 -0.031481124
vn -0.92396605 -0.27305007 -0.2534615
vn -0.46408394 -0.83693033 -0.23447162
vn 0.0008644688 0.09337418 -0.96737814
vn -0.35639158 0.32489282 -0.834191
vn -0.598426 -0.75883365 0.12507781
vn -0.0037826751 -0.6383299 -0.7326925
vn -0.50042 -0.5387894 -0.6324488
vn -0.58352894 -0.03964661 0.7303999
vn -0.89068323 0.14732432 -0.3899237
vn -0.7665519 0.56758684 -0.14469764
vn -0.5873145 -0.49582478 0.5525996
vn -0.5016449 -0.82464415 -0.015771449
vn -0.88712364 0.26428884 -0.3472807
vn -0.7069212 -0.57273054 -0.34142387
vn -0.82125896 0.37197512 -0.3845111
vn -0.21811984 0.19073251 0.8665161
vn -0.58352894 -0.03964661 0.7303999
vn -0.7665519 0.56758684 -0.14469764
vn -0.030190766 0.88733524 0.2729037
vn 0.079270214 0.75296855 -0.5493287
vn -1.682184E-05 0.5559443 -0.7260481
vn 0.012414135 0.84399194 0.09437224
vn 0.02529741 0.2420362 0.781081
vn -0.5016449 -0.82464415 -0.015771449
vn 7.3199762E-06 -0.7072065 0.55176544
vn 7.115745E-06 -0.91071117 0.06213972
vn -0.7069212 -0.57273054 -0.34142387
vn -0.446206 -0.61031437 -0.57646716
vn -0.82125896 0.37197512 -0.3845111
vn 6.677854E-06 -0.8832334 -0.22053374
vn -0.45334557 0.46524143 -0.6972958
vn -3.1809395E-06 -0.020237356 -0.914304
vn -7.073243E-06 0.49229473 -0.7792139
vn -0.45334557 0.46524143 -0.6972958
vn -3.1809395E-06 -0.020237356 -0.914304
vn -0.27001044 0.8726433 -0.23643284
vn -0.82125896 0.37197512 -0.3845111
vn -0.88712364 0.26428884 -0.3472807
vn 0.71617895 -0.6015388 0.35389015
vn 0.8241123 0.2755959 0.49485907
vn 0.72717786 -0.5941967 -0.34371814
vn 0.5950008 0.65900725 -0.4600905
vn 0.64766943 0.029820174 -0.76133776
vn 0.7411591 0.24147551 0.6263964
vn 0.58090615 -0.065405786 -0.8113384
vn 0.5950008 0.65900725 -0.4600905
vn 0.8241123 0.2755959 0.49485907
vn 0.004026749 -0.42605987 0.8696081
vn -0.7300361 -0.017621629 0.6669294
vn -0.5120642 -0.1801643 0.80127084
vn -0.0016977239 -0.042177945 0.9822873
vn -0.3775452 -0.2896553 0.8785524
vn -0.00076371495 -0.4805468 0.8726628
vn -0.84971565 -0.16425659 0.49681005
vn 0.0013183476 -0.9451441 0.32665008
vn -0.5713082 -0.7971327 0.19541284
g 0.0167_0
f 3/3/3 2/2/2 1/1/1
f 6/6/6 5/5/5 4/4/4
f 9/9/9 8/8/8 7/7/7
f 12/12/12 11/11/11 10/10/10
f 15/15/15 14/14/14 13/13/13
f 18/18/18 17/17/17 16/16/16
f 21/21/21 20/20/20 19/19/19
f 24/24/24 23/23/23 22/22/22
f 27/27/27 26/26/26 25/25/25
f 30/30/30 29/29/29 28/28/28
f 33/33/33 32/32/32 31/31/31
f 36/36/36 35/35/35 34/34/34
f 39/39/39 38/38/38 37/37/37
f 38/38/38 40/40/40 37/37/37
f 38/38/38 41/41/41 40/40/40
f 37/37/37 40/40/40 41/41/41
f 41/41/41 42/42/42 37/37/37
f 42/42/42 43/43/43 37/37/37
f 37/37/37 43/43/43 44/44/44
f 47/47/47 46/46/46 45/45/45
f 48/48/48 45/45/45 46/46/46
f 45/45/45 48/48/48 49/49/49
f 49/49/49 48/48/48 50/50/50
f 49/49/49 51/51/51 45/45/45
f 52/52/52 45/45/45 51/51/51
f 53/53/53 48/48/48 46/46/46
f 53/53/53 54/54/54 48/48/48
f 54/54/54 55/55/55 48/48/48
f 56/56/56 54/54/54 53/53/53
f 57/57/57 56/56/56 53/53/53
f 53/53/53 46/46/46 57/57/57
f 58/58/58 57/57/57 46/46/46
f 58/58/58 46/46/46 59/59/59
f 58/58/58 60/60/60 57/57/57
f 51/51/51 61/61/61 52/52/52
f 61/61/61 62/62/62 52/52/52
f 62/62/62 63/63/63 52/52/52
f 61/61/61 64/64/64 62/62/62
f 61/61/61 51/51/51 64/64/64
f 65/65/65 64/64/64 51/51/51
f 51/51/51 66/66/66 65/65/65
f 63/63/63 62/62/62 67/67/67
f 67/67/67 68/68/68 63/63/63
f 67/67/67 69/69/69 68/68/68
f 68/68/68 70/70/70 63/63/63
f 70/70/70 71/71/71 63/63/63
f 74/74/74 73/73/73 72/72/72
f 73/73/73 74/74/74 75/75/75
f 73/73/73 75/75/75 76/76/76
f 75/75/75 77/77/77 76/76/76
f 76/76/76 78/78/78 73/73/73
f 76/76/76 79/79/79 78/78/78
f 79/79/79 80/80/80 78/78/78
f 83/83/83 82/82/82 81/81/81
f 83/83/83 81/81/81 84/84/84
f 85/85/85 83/83/83 84/84/84
f 83/83/83 85/85/85 86/86/86
f 83/83/83 86/86/86 87/87/87
f 85/85/85 88/88/88 86/86/86
f 87/87/87 86/86/86 89/89/89
f 89/89/89 86/86/86 88/88/88
f 87/87/87 89/89/89 90/90/90
f 89/89/89 88/88/88 90/90/90
f 90/90/90 88/88/88 91/91/91
f 91/91/91 92/92/92 90/90/90
f 92/92/92 93/93/93 90/90/90
f 93/93/93 92/92/92 94/94/94
f 93/93/93 94/94/94 95/95/95
f 92/92/92 96/96/96 94/94/94
f 99/99/99 98/98/98 97/97/97
f 97/97/97 100/100/100 99/99/99
f 99/99/99 100/100/100 101/101/101
f 100/100/100 97/97/97 102/102/102
f 97/97/97 103/103/103 102/102/102
f 104/104/104 103/103/103 97/97/97
f 104/104/104 105/105/105 103/103/103
f 108/108/108 107/107/107 106/106/106
f 108/108/108 106/106/106 109/109/109
f 110/110/110 108/108/108 109/109/109
f 108/108/108 110/110/110 111/111/111
f 111/111/111 110/110/110 112/112/112
f 112/112/112 110/110/110 113/113/113
f 112/112/112 113/113/113 114/114/114
f 114/114/114 115/115/115 112/112/112
f 112/112/112 116/116/116 111/111/111
f 112/112/112 115/115/115 116/116/116
f 117/117/117 111/111/111 116/116/116
f 117/117/117 116/116/116 115/115/115
f 118/118/118 117/117/117 115/115/115
f 121/121/121 120/120/120 119/119/119
f 121/121/121 119/119/119 122/122/122
f 122/122/122 123/123/123 121/121/121
f 124/124/124 121/121/121 123/123/123
f 125/125/125 124/124/124 123/123/123
f 126/126/126 125/125/125 123/123/123
f 129/129/129 128/128/128 127/127/127
f 130/130/130 128/128/128 129/129/129
f 133/133/133 132/132/132 131/131/131
f 131/131/131 134/134/134 133/133/133
f 133/133/133 134/134/134 135/135/135
f 135/135/135 134/134/134 136/136/136
f 134/134/134 137/137/137 136/136/136
f 137/137/137 134/134/134 131/131/131
f 138/138/138 137/137/137 131/131/131
f 141/141/141 140/140/140 139/139/139
f 141/141/141 139/139/139 142/142/142
f 143/143/143 141/141/141 142/142/142
f 146/146/146 145/145/145 144/144/144
f 144/144/144 147/147/147 146/146/146
f 148/148/148 147/147/147 144/144/144
f 148/148/148 144/144/144 149/149/149
f 150/150/150 149/149/149 144/144/144
f 150/150/150 151/151/151 149/149/149
f 149/149/149 152/152/152 148/148/148
f 149/149/149 151/151/151 153/153/153
f 153/153/153 152/152/152 149/149/149
f 154/154/154 152/152/152 153/153/153
f 154/154/154 153/153/153 155/155/155
f 156/156/156 155/155/155 153/153/153
f 155/155/155 157/157/157 154/154/154
f 157/157/157 155/155/155 156/156/156
f 158/158/158 157/157/157 156/156/156
f 161/161/161 160/160/160 159/159/159
f 161/161/161 159/159/159 162/162/162
f 163/163/163 161/161/161 162/162/162
f 163/163/163 164/164/164 161/161/161
f 164/164/164 165/165/165 161/161/161
f 165/165/165 166/166/166 161/161/161
f 169/169/169 168/168/168 167/167/167
f 170/170/170 167/167/167 168/168/168
f 171/171/171 170/170/170 168/168/168
f 171/171/171 168/168/168 172/172/172
f 170/170/170 171/171/171 173/173/173
f 174/174/174 170/170/170 173/173/173
f 171/171/171 175/175/175 173/173/173
f 174/174/174 173/173/173 176/176/176
f 175/175/175 176/176/176 173/173/173
f 177/177/177 174/174/174 176/176/176
f 175/175/175 178/178/178 176/176/176
f 177/177/177 176/176/176 178/178/178
f 179/179/179 177/177/177 178/178/178
f 178/178/178 180/180/180 179/179/179
f 179/179/179 180/180/180 181/181/181
f 179/179/179 181/181/181 182/182/182
f 179/179/179 182/182/182 183/183/183
f 186/186/186 185/185/185 184/184/184
f 187/187/187 185/185/185 186/186/186
f 186/186/186 188/188/188 187/187/187
f 189/189/189 187/187/187 188/188/188
f 190/190/190 187/187/187 189/189/189
f 193/193/193 192/192/192 191/191/191
f 191/191/191 192/192/192 194/194/194
f 197/197/197 196/196/196 195/195/195
f 196/196/196 198/198/198 195/195/195
f 195/195/195 198/198/198 199/199/199
f 200/200/200 195/195/195 199/199/199
f 198/198/198 201/201/201 199/199/199
f 204/204/204 203/203/203 202/202/202
f 203/203/203 204/204/204 205/205/205
f 206/206/206 205/205/205 204/204/204
f 209/209/209 208/208/208 207/207/207
f 210/210/210 209/209/209 207/207/207
f 213/213/213 212/212/212 211/211/211
f 212/212/212 214/214/214 211/211/211
f 211/211/211 214/214/214 215/215/215
f 216/216/216 214/214/214 212/212/212
f 215/215/215 214/214/214 217/217/217
f 214/214/214 216/216/216 218/218/218
f 219/219/219 217/217/217 214/214/214
f 214/214/214 218/218/218 219/219/219
f 222/222/222 221/221/221 220/220/220
f 221/221/221 223/223/223 220/220/220
f 223/223/223 221/221/221 224/224/224
f 225/225/225 220/220/220 223/223/223
f 226/226/226 220/220/220 225/225/225
f 226/226/226 225/225/225 227/227/227
f 225/225/225 223/223/223 228/228/228
f 228/228/228 223/223/223 229/229/229
f 228/228/228 229/229/229 230/230/230
f 231/231/231 228/228/228 230/230/230
f 225/225/225 232/232/232 227/227/227
f 232/232/232 225/225/225 228/228/228
f 232/232/232 228/228/228 231/231/231
f 231/231/231 227/227/227 232/232/232
f 235/235/235 234/234/234 233/233/233
f 236/236/236 234/234/234 235/235/235
f 237/237/237 236/236/236 235/235/235
f 237/237/237 238/238/238 236/236/236
f 236/236/236 238/238/238 239/239/239
f 238/238/238 237/237/237 240/240/240
f 243/243/243 242/242/242 241/241/241
f 243/243/243 244/244/244 242/242/242
f 244/244/244 245/245/245 242/242/242
f 245/245/245 244/244/244 246/246/246
f 249/249/249 248/248/248 247/247/247
f 250/250/250 249/249/249 247/247/247
f 253/253/253 252/252/252 251/251/251
f 254/254/254 253/253/253 251/251/251
f 255/255/255 253/253/253 254/254/254
f 256/256/256 255/255/255 254/254/254
f 257/257/257 255/255/255 256/256/256
f 258/258/258 257/257/257 256/256/256
f 259/259/259 257/257/257 258/258/258
f 260/260/260 259/259/259 258/258/258
f 261/261/261 259/259/259 260/260/260
f 262/262/262 261/261/261 260/260/260
f 265/265/265 264/264/264 263/263/263
f 266/266/266 263/263/263 264/264/264
f 267/267/267 263/263/263 266/266/266
f 267/267/267 266/266/266 268/268/268
f 267/267/267 269/269/269 263/263/263
f 269/269/269 267/267/267 268/268/268
f 272/272/272 271/271/271 270/270/270
f 272/272/272 273/273/273 271/271/271
f 274/274/274 271/271/271 273/273/273
f 274/274/274 275/275/275 271/271/271
f 276/276/276 273/273/273 272/272/272
f 277/277/277 276/276/276 272/272/272
f 280/280/280 279/279/279 278/278/278
f 281/281/281 278/278/278 279/279/279
f 284/284/284 283/283/283 282/282/282
f 283/283/283 285/285/285 282/282/282
f 282/282/282 285/285/285 286/286/286
f 285/285/285 287/287/287 286/286/286
f 286/286/286 287/287/287 288/288/288
f 287/287/287 289/289/289 288/288/288
f 289/289/289 290/290/290 288/288/288
f 290/290/290 289/289/289 291/291/291
f 292/292/292 291/291/291 289/289/289
f 293/293/293 292/292/292 289/289/289
f 292/292/292 294/294/294 291/291/291
f 297/297/297 296/296/296 295/295/295
f 295/295/295 296/296/296 298/298/298
f 295/295/295 298/298/298 299/299/299
f 299/299/299 298/298/298 300/300/300
f 296/296/296 301/301/301 298/298/298
f 298/298/298 302/302/302 300/300/300
f 303/303/303 298/298/298 301/301/301
f 301/301/301 304/304/304 303/303/303
f 305/305/305 304/304/304 301/301/301
f 306/306/306 298/298/298 303/303/303
f 302/302/302 298/298/298 306/306/306
f 303/303/303 307/307/307 306/306/306
f 307/307/307 308/308/308 306/306/306
f 306/306/306 308/308/308 302/302/302
f 308/308/308 309/309/309 302/302/302
f 312/312/312 311/311/311 310/310/310
f 313/313/313 312/312/312 310/310/310
f 310/310/310 314/314/314 313/313/313
f 314/314/314 315/315/315 313/313/313
f 316/316/316 314/314/314 310/310/310
f 317/317/317 316/316/316 310/310/310
f 318/318/318 316/316/316 317/317/317
f 321/321/321 320/320/320 319/319/319
f 320/320/320 322/322/322 319/319/319
f 319/319/319 322/322/322 323/323/323
f 322/322/322 320/320/320 324/324/324
f 323/323/323 322/322/322 325/325/325
f 325/325/325 322/322/322 324/324/324
f 328/328/328 327/327/327 326/326/326
f 326/326/326 329/329/329 328/328/328
f 329/329/329 330/330/330 328/328/328
f 331/331/331 328/328/328 330/330/330
f 330/330/330 332/332/332 331/331/331
f 332/332/332 333/333/333 331/331/331
f 336/336/336 335/335/335 334/334/334
f 335/335/335 337/337/337 334/334/334
f 335/335/335 338/338/338 337/337/337
f 339/339/339 337/337/337 338/338/338
f 339/339/339 340/340/340 337/337/337
f 334/334/334 337/337/337 340/340/340
f 340/340/340 341/341/341 334/334/334
f 344/344/344 343/343/343 342/342/342
f 343/343/343 345/345/345 342/342/342
f 346/346/346 345/345/345 343/343/343
f 346/346/346 347/347/347 345/345/345
f 346/346/346 343/343/343 348/348/348
f 347/347/347 346/346/346 349/349/349
f 348/348/348 349/349/349 346/346/346
f 349/349/349 348/348/348 350/350/350
f 353/353/353 352/352/352 351/351/351
f 354/354/354 353/353/353 351/351/351
f 355/355/355 353/353/353 354/354/354
f 356/356/356 355/355/355 354/354/354
f 359/359/359 358/358/358 357/357/357
f 359/359/359 360/360/360 358/358/358
f 361/361/361 358/358/358 360/360/360
f 364/364/364 363/363/363 362/362/362
f 365/365/365 364/364/364 362/362/362
f 368/368/368 367/367/367 366/366/366
f 369/369/369 368/368/368 366/366/366
f 370/370/370 368/368/368 369/369/369
f 371/371/371 370/370/370 369/369/369
f 370/370/370 372/372/372 368/368/368
f 371/371/371 373/373/373 370/370/370
f 374/374/374 372/372/372 370/370/370
f 373/373/373 374/374/374 370/370/370
f 377/377/377 376/376/376 375/375/375
f 378/378/378 377/377/377 375/375/375
f 379/379/379 377/377/377 378/378/378
f 378/378/378 375/375/375 379/379/379
f 380/380/380 379/379/379 375/375/375
f 381/381/381 380/380/380 375/375/375
f 381/381/381 375/375/375 382/382/382
f 385/385/385 384/384/384 383/383/383
f 383/383/383 386/386/386 385/385/385
f 386/386/386 383/383/383 387/387/387
f 386/386/386 387/387/387 388/388/388
f 389/389/389 387/387/387 383/383/383
f 383/383/383 390/390/390 389/389/389
f 386/386/386 391/391/391 385/385/385
f 392/392/392 391/391/391 386/386/386
f 393/393/393 392/392/392 386/386/386
f 392/392/392 394/394/394 391/391/391
f 394/394/394 395/395/395 391/391/391
f 385/385/385 391/391/391 395/395/395
f 395/395/395 396/396/396 385/385/385
f 385/385/385 396/396/396 397/397/397
f 398/398/398 396/396/396 395/395/395
f 399/399/399 389/389/389 390/390/390
f 400/400/400 399/399/399 390/390/390
f 401/401/401 400/400/400 390/390/390
f 402/402/402 399/399/399 400/400/400
f 389/389/389 399/399/399 402/402/402
f 402/402/402 403/403/403 389/389/389
f 404/404/404 389/389/389 403/403/403
f 400/400/400 401/401/401 405/405/405
f 406/406/406 405/405/405 401/401/401
f 407/407/407 405/405/405 406/406/406
f 408/408/408 406/406/406 401/401/401
f 409/409/409 408/408/408 401/401/401
f 412/412/412 411/411/411 410/410/410
f 411/411/411 412/412/412 413/413/413
f 413/413/413 412/412/412 414/414/414
f 415/415/415 413/413/413 414/414/414
f 416/416/416 414/414/414 412/412/412
f 417/417/417 414/414/414 416/416/416
f 418/418/418 417/417/417 416/416/416
f 421/421/421 420/420/420 419/419/419
f 419/419/419 420/420/420 422/422/422
f 420/420/420 423/423/423 422/422/422
f 423/423/423 420/420/420 424/424/424
f 424/424/424 420/420/420 425/425/425
f 426/426/426 423/423/423 424/424/424
f 424/424/424 425/425/425 427/427/427
f 424/424/424 427/427/427 426/426/426
f 427/427/427 425/425/425 428/428/428
f 426/426/426 427/427/427 428/428/428
f 426/426/426 428/428/428 429/429/429
f 430/430/430 429/429/429 428/428/428
f 431/431/431 430/430/430 428/428/428
f 430/430/430 431/431/431 432/432/432
f 432/432/432 431/431/431 433/433/433
f 434/434/434 430/430/430 432/432/432
f 437/437/437 436/436/436 435/435/435
f 438/438/438 435/435/435 436/436/436
f 438/438/438 436/436/436 439/439/439
f 435/435/435 438/438/438 440/440/440
f 441/441/441 435/435/435 440/440/440
f 441/441/441 442/442/442 435/435/435
f 443/443/443 442/442/442 441/441/441
f 446/446/446 445/445/445 444/444/444
f 444/444/444 445/445/445 447/447/447
f 445/445/445 448/448/448 447/447/447
f 448/448/448 445/445/445 449/449/449
f 448/448/448 449/449/449 450/450/450
f 448/448/448 450/450/450 451/451/451
f 451/451/451 450/450/450 452/452/452
f 453/453/453 452/452/452 450/450/450
f 454/454/454 450/450/450 449/449/449
f 453/453/453 450/450/450 454/454/454
f 449/449/449 455/455/455 454/454/454
f 454/454/454 455/455/455 453/453/453
f 455/455/455 456/456/456 453/453/453
f 459/459/459 458/458/458 457/457/457
f 457/457/457 458/458/458 460/460/460
f 461/461/461 460/460/460 458/458/458
f 458/458/458 462/462/462 461/461/461
f 462/462/462 463/463/463 461/461/461
f 463/463/463 464/464/464 461/461/461
f 467/467/467 466/466/466 465/465/465
f 467/467/467 468/468/468 466/466/466
f 471/471/471 470/470/470 469/469/469
f 472/472/472 469/469/469 470/470/470
f 472/472/472 470/470/470 473/473/473
f 472/472/472 473/473/473 474/474/474
f 475/475/475 472/472/472 474/474/474
f 472/472/472 475/475/475 469/469/469
f 475/475/475 476/476/476 469/469/469
f 479/479/479 478/478/478 477/477/477
f 477/477/477 478/478/478 480/480/480
f 478/478/478 481/481/481 480/480/480
f 484/484/484 483/483/483 482/482/482
f 485/485/485 482/482/482 483/483/483
f 485/485/485 486/486/486 482/482/482
f 482/482/482 486/486/486 487/487/487
f 487/487/487 488/488/488 482/482/482
f 489/489/489 488/488/488 487/487/487
f 490/490/490 487/487/487 486/486/486
f 489/489/489 487/487/487 491/491/491
f 490/490/490 491/491/491 487/487/487
f 490/490/490 492/492/492 491/491/491
f 491/491/491 492/492/492 493/493/493
f 493/493/493 494/494/494 491/491/491
f 495/495/495 493/493/493 492/492/492
f 493/493/493 495/495/495 494/494/494
f 495/495/495 496/496/496 494/494/494
f 499/499/499 498/498/498 497/497/497
f 497/497/497 498/498/498 500/500/500
f 498/498/498 501/501/501 500/500/500
f 502/502/502 501/501/501 498/498/498
f 503/503/503 502/502/502 498/498/498
f 504/504/504 503/503/503 498/498/498
f 507/507/507 506/506/506 505/505/505
f 505/505/505 508/508/508 507/507/507
f 508/508/508 509/509/509 507/507/507
f 507/507/507 509/509/509 510/510/510
f 509/509/509 508/508/508 511/511/511
f 508/508/508 512/512/512 511/511/511
f 513/513/513 509/509/509 511/511/511
f 511/511/511 512/512/512 514/514/514
f 514/514/514 513/513/513 511/511/511
f 512/512/512 515/515/515 514/514/514
f 516/516/516 513/513/513 514/514/514
f 514/514/514 515/515/515 516/516/516
f 515/515/515 517/517/517 516/516/516
f 518/518/518 516/516/516 517/517/517
f 518/518/518 517/517/517 519/519/519
f 519/519/519 517/517/517 520/520/520
f 520/520/520 517/517/517 521/521/521
f 524/524/524 523/523/523 522/522/522
f 524/524/524 525/525/525 523/523/523
f 526/526/526 523/523/523 525/525/525
f 525/525/525 527/527/527 526/526/526
f 525/525/525 528/528/528 527/527/527
f 531/531/531 530/530/530 529/529/529
f 531/531/531 529/529/529 532/532/532
f 535/535/535 534/534/534 533/533/533
f 536/536/536 535/535/535 533/533/533
f 536/536/536 533/533/533 537/537/537
f 533/533/533 538/538/538 537/537/537
f 539/539/539 536/536/536 537/537/537
f 542/542/542 541/541/541 540/540/540
f 541/541/541 542/542/542 543/543/543
f 543/543/543 544/544/544 541/541/541
f 547/547/547 546/546/546 545/545/545
f 548/548/548 547/547/547 545/545/545
f 551/551/551 550/550/550 549/549/549
f 552/552/552 551/551/551 549/549/549
f 552/552/552 549/549/549 553/553/553
f 552/552/552 554/554/554 551/551/551
f 552/552/552 553/553/553 555/555/555
f 554/554/554 552/552/552 556/556/556
f 555/555/555 557/557/557 552/552/552
f 556/556/556 552/552/552 557/557/557
f 560/560/560 559/559/559 558/558/558
f 561/561/561 560/560/560 558/558/558
f 560/560/560 561/561/561 562/562/562
f 558/558/558 563/563/563 561/561/561
f 558/558/558 564/564/564 563/563/563
f 563/563/563 564/564/564 565/565/565
f 561/561/561 563/563/563 566/566/566
f 561/561/561 566/566/566 567/567/567
f 567/567/567 566/566/566 568/568/568
f 566/566/566 569/569/569 568/568/568
f 570/570/570 563/563/563 565/565/565
f 565/565/565 569/569/569 570/570/570
f 566/566/566 570/570/570 569/569/569
f 563/563/563 570/570/570 566/566/566
f 573/573/573 572/572/572 571/571/571
f 573/573/573 574/574/574 572/572/572
f 574/574/574 575/575/575 572/572/572
f 576/576/576 575/575/575 574/574/574
f 576/576/576 574/574/574 577/577/577
f 575/575/575 576/576/576 578/578/578
f 581/581/581 580/580/580 579/579/579
f 582/582/582 580/580/580 581/581/581
f 583/583/583 582/582/582 581/581/581
f 582/582/582 583/583/583 584/584/584
f 587/587/587 586/586/586 585/585/585
f 588/588/588 587/587/587 585/585/585
f 591/591/591 590/590/590 589/589/589
f 590/590/590 592/592/592 589/589/589
f 590/590/590 593/593/593 592/592/592
f 593/593/593 594/594/594 592/592/592
f 593/593/593 595/595/595 594/594/594
f 595/595/595 596/596/596 594/594/594
f 595/595/595 597/597/597 596/596/596
f 597/597/597 598/598/598 596/596/596
f 597/597/597 599/599/599 598/598/598
f 599/599/599 600/600/600 598/598/598
f 603/603/603 602/602/602 601/601/601
f 601/601/601 604/604/604 603/603/603
f 601/601/601 605/605/605 604/604/604
f 604/604/604 605/605/605 606/606/606
f 607/607/607 605/605/605 601/601/601
f 605/605/605 607/607/607 606/606/606
f 610/610/610 609/609/609 608/608/608
f 611/611/611 609/609/609 610/610/610
f 610/610/610 612/612/612 611/611/611
f 613/613/613 612/612/612 610/610/610
f 611/611/611 614/614/614 609/609/609
f 614/614/614 615/615/615 609/609/609
f 618/618/618 617/617/617 616/616/616
f 616/616/616 619/619/619 618/618/618
f 622/622/622 621/621/621 620/620/620
f 623/623/623 622/622/622 620/620/620
f 623/623/623 620/620/620 624/624/624
f 625/625/625 623/623/623 624/624/624
f 625/625/625 624/624/624 626/626/626
f 627/627/627 625/625/625 626/626/626
f 628/628/628 627/627/627 626/626/626
f 627/627/627 628/628/628 629/629/629
f 629/629/629 630/630/630 627/627/627
f 630/630/630 631/631/631 627/627/627
f 632/632/632 630/630/630 629/629/629
f 635/635/635 634/634/634 633/633/633
f 635/635/635 633/633/633 636/636/636
f 636/636/636 633/633/633 637/637/637
f 636/636/636 637/637/637 638/638/638
f 639/639/639 635/635/635 636/636/636
f 640/640/640 636/636/636 638/638/638
f 636/636/636 641/641/641 639/639/639
f 642/642/642 639/639/639 641/641/641
f 642/642/642 643/643/643 639/639/639
f 636/636/636 644/644/644 641/641/641
f 636/636/636 640/640/640 644/644/644
f 645/645/645 641/641/641 644/644/644
f 646/646/646 645/645/645 644/644/644
f 646/646/646 644/644/644 640/640/640
f 647/647/647 646/646/646 640/640/640
f 650/650/650 649/649/649 648/648/648
f 649/649/649 651/651/651 648/648/648
f 652/652/652 648/648/648 651/651/651
f 653/653/653 652/652/652 651/651/651
f 652/652/652 654/654/654 648/648/648
f 654/654/654 655/655/655 648/648/648
f 654/654/654 656/656/656 655/655/655
f 659/659/659 658/658/658 657/657/657
f 660/660/660 659/659/659 657/657/657
f 660/660/660 657/657/657 661/661/661
f 659/659/659 660/660/660 662/662/662
f 660/660/660 661/661/661 663/663/663
f 660/660/660 663/663/663 662/662/662
f 666/666/666 665/665/665 664/664/664
f 667/667/667 664/664/664 665/665/665
f 668/668/668 667/667/667 665/665/665
f 665/665/665 669/669/669 668/668/668
f 670/670/670 668/668/668 669/669/669
f 671/671/671 670/670/670 669/669/669
f 674/674/674 673/673/673 672/672/672
f 675/675/675 674/674/674 672/672/672
f 676/676/676 674/674/674 675/675/675
f 675/675/675 677/677/677 676/676/676
f 678/678/678 677/677/677 675/675/675
f 675/675/675 672/672/672 678/678/678
f 679/679/679 678/678/678 672/672/672
f 682/682/682 681/681/681 680/680/680
f 683/683/683 682/682/682 680/680/680
f 683/683/683 684/684/684 682/682/682
f 685/685/685 684/684/684 683/683/683
f 682/682/682 684/684/684 686/686/686
f 684/684/684 685/685/685 687/687/687
f 687/687/687 686/686/686 684/684/684
f 686/686/686 687/687/687 688/688/688
f 691/691/691 690/690/690 689/689/689
f 690/690/690 692/692/692 689/689/689
f 690/690/690 693/693/693 692/692/692
f 693/693/693 694/694/694 692/692/692
f 697/697/697 696/696/696 695/695/695
f 698/698/698 696/696/696 697/697/697
f 697/697/697 699/699/699 698/698/698
f 702/702/702 701/701/701 700/700/700
f 703/703/703 702/702/702 700/700/700
f 706/706/706 705/705/705 704/704/704
f 705/705/705 707/707/707 704/704/704
f 705/705/705 708/708/708 707/707/707
f 708/708/708 709/709/709 707/707/707
f 710/710/710 708/708/708 705/705/705
f 711/711/711 709/709/709 708/708/708
f 710/710/710 712/712/712 708/708/708
f 712/712/712 711/711/711 708/708/708
