g 0.0333
v 0.15439987 1.2322365 0.59329635
v 0.13502568 1.3268044 0.60575503
v 0.1739909 1.2449664 0.64122194
v 0.22151226 1.225428 0.626986
v 0.13502568 1.3268044 0.60575503
v 0.20192128 1.2126981 0.5790604
v 0.7373089 -0.42811394 2.2108133
v 0.97083664 -0.6222507 2.0172791
v 1.1249037 -0.5027584 2.165543
v 0.91520685 -0.30228996 2.395827
v 0.5470549 -0.14243102 2.2680235
v 0.7970546 0.011025667 2.6661391
v -0.2076696 -0.14540589 2.446747
v -0.1603357 0.061089396 2.1085484
v 0.36125904 0.04171428 2.1059606
v 0.41798156 0.28019387 1.767279
v -0.21790078 0.33692932 1.8130122
v 0.13995117 0.43388468 1.5389612
v -0.3570392 0.48308873 1.5765904
v -0.08948492 0.6222087 1.2703407
v -0.4349402 0.6363088 1.3265483
v -0.113587156 0.7778662 1.0660713
v -0.35679767 0.8832037 1.1030135
v 0.028889641 0.91940737 0.89663774
v -0.06808781 1.0934753 0.8542557
v 0.29780826 0.9183041 0.7132298
v 0.23962432 1.0180734 0.70862156
v 0.41018498 1.0225327 0.62864435
v 0.32730207 1.0704931 0.64978594
v 0.41362783 1.2360237 0.57053006
v 0.35414407 1.1998961 0.6044418
v 0.32860303 1.4406934 0.55092245
v 0.27128607 1.3727827 0.5923906
v 0.045626193 1.5589833 0.62416375
v 0.06411126 1.483946 0.6365387
v -0.044996932 1.5350671 0.667561
v 0.014470048 1.4854136 0.65644103
v -0.0646621 1.3971012 0.7122458
v 0.0048934 1.4123455 0.6797639
v 0.020643406 1.2154679 0.71384937
v 0.052428786 1.25646 0.68996805
v 0.15955143 1.1476843 0.67296433
v 0.14158222 1.1975343 0.6670687
v 0.22151226 1.225428 0.626986
v 0.1739909 1.2449664 0.64122194
v 0.13502568 1.3268044 0.60575503
v 0.31241548 -0.47098774 3.1927497
v 0.31284472 -0.66450435 3.1150882
v 0.026821766 -0.6335637 3.052926
v 0.025333488 -0.44543856 3.1285338
v -0.012481786 -0.32146272 3.0269172
v -0.0060466696 -0.6056042 2.9488091
v -0.36714643 -0.1054126 2.765967
v -0.31385207 -0.63681024 2.9369085
v -0.57723784 -0.46076202 2.3446007
v -0.4530831 -0.7171133 2.4828813
v -0.6831027 -0.5701343 2.3242867
v -0.48117015 -0.7746201 2.4573162
v -0.9656052 -1.5689905 2.3796983
v -0.5695493 -1.6472853 2.6233954
v -0.0060466696 -0.6056042 2.9488091
v 0.026821766 -0.6335637 3.052926
v 0.31284472 -0.66450435 3.1150882
v 0.40068683 -0.60816264 2.97706
v -0.31385207 -0.63681024 2.9369085
v 0.8183554 -0.56111 2.9564822
v 0.57279336 -0.81290805 2.6272542
v 0.74103695 -0.74394715 2.435601
v 0.9205034 -0.6025326 2.6116536
v 0.9314162 -0.86254096 2.2639751
v 1.0653583 -0.7234341 2.4179683
v -0.14433396 -0.76186335 2.6939576
v -0.4530831 -0.7171133 2.4828813
v 0.35904616 -0.43384945 1.9652667
v -0.33880538 -0.7577027 2.3379383
v -0.16300574 -0.41674697 1.945854
v -0.48117015 -0.7746201 2.4573162
v -0.28515434 -0.14871025 1.438289
v -0.36992398 -0.79456675 2.2634475
v -0.5695493 -1.6472853 2.6233954
v -0.45322213 -1.5518079 2.330731
v 0.3779869 -0.2450391 1.4590962
v -0.4278511 0.11796713 1.2474355
v 0.08160758 0.049381137 1.2274617
v -0.5206908 0.40583026 1.0521827
v -0.14659798 0.3514812 1.0182325
v -0.44533098 0.75675863 0.8851379
v -0.20199618 0.65116614 0.8481393
v -0.1439315 1.0175581 0.6705275
v -0.04489411 0.82547146 0.7192303
v 0.19725037 0.9886831 0.6050551
v 0.25543022 0.888835 0.6096368
v 0.2912689 1.0470793 0.5616375
v 0.37415183 0.999119 0.5404959
v 0.3181109 1.1764823 0.51629335
v 0.37759468 1.2126099 0.48238158
v 0.23525295 1.3493689 0.5042421
v 0.29256988 1.4172796 0.46277398
v 0.03535327 1.4652594 0.5661875
v 0.016868174 1.5402969 0.55381256
v -0.014287971 1.466727 0.58608985
v -0.07375495 1.5163805 0.5972098
v -0.02386462 1.393659 0.6094127
v -0.09342012 1.3784148 0.64189464
v 0.031445988 1.2428256 0.6386374
v -0.0003394112 1.2018337 0.6625188
v 0.121991284 1.1848044 0.61914307
v 0.13996047 1.1349545 0.6250387
v 0.15439987 1.2322365 0.59329635
v 0.20192128 1.2126981 0.5790604
v 0.13502568 1.3268044 0.60575503
v 0.39826402 -0.314256 3.0529382
v 0.31241548 -0.47098774 3.1927497
v 0.025333488 -0.44543856 3.1285338
v -0.012481786 -0.32146272 3.0269172
v -0.36714643 -0.1054126 2.765967
v -0.39558768 -0.48127246 2.2055035
v -0.57723784 -0.46076202 2.3446007
v -0.523706 -0.55123353 2.139052
v -0.6831027 -0.5701343 2.3242867
v -0.7268999 -1.5417895 2.1394315
v -0.9656052 -1.5689905 2.3796983
v 0.40068683 -0.60816264 2.97706
v 0.31284472 -0.66450435 3.1150882
v 0.31241548 -0.47098774 3.1927497
v 0.39826402 -0.314256 3.0529382
v 0.8183554 -0.56111 2.9564822
v 0.7970546 0.011025667 2.6661391
v 0.9205034 -0.6025326 2.6116536
v 0.91520685 -0.30228996 2.395827
v 1.0653583 -0.7234341 2.4179683
v 1.1249037 -0.5027584 2.165543
v 1.1599892 -1.2008773 2.527791
v 1.2632587 -1.2282557 2.2185807
v -0.16300574 -0.41674697 1.945854
v -0.21790078 0.33692932 1.8130122
v -0.1603357 0.061089396 2.1085484
v -0.28515434 -0.14871025 1.438289
v -0.3570392 0.48308873 1.5765904
v -0.4278511 0.11796713 1.2474355
v -0.4349402 0.6363088 1.3265483
v -0.5206908 0.40583026 1.0521827
v 0.36125904 0.04171428 2.1059606
v 0.41798156 0.28019387 1.767279
v 0.3779869 -0.2450391 1.4590962
v 0.35904616 -0.43384945 1.9652667
v -0.08948492 0.6222087 1.2703407
v -0.113587156 0.7778662 1.0660713
v -0.20199618 0.65116614 0.8481393
v -0.14659798 0.3514812 1.0182325
v 0.13995117 0.43388468 1.5389612
v 0.08160758 0.049381137 1.2274617
v 0.41798156 0.28019387 1.767279
v 0.3779869 -0.2450391 1.4590962
v -0.5206908 0.40583026 1.0521827
v -0.35679767 0.8832037 1.1030135
v -0.4349402 0.6363088 1.3265483
v -0.44533098 0.75675863 0.8851379
v -0.06808781 1.0934753 0.8542557
v -0.1439315 1.0175581 0.6705275
v 0.23962432 1.0180734 0.70862156
v 0.19725037 0.9886831 0.6050551
v 0.32730207 1.0704931 0.64978594
v 0.2912689 1.0470793 0.5616375
v 0.35414407 1.1998961 0.6044418
v 0.3181109 1.1764823 0.51629335
v -0.113587156 0.7778662 1.0660713
v -0.04489411 0.82547146 0.7192303
v -0.20199618 0.65116614 0.8481393
v 0.028889641 0.91940737 0.89663774
v 0.25543022 0.888835 0.6096368
v 0.29780826 0.9183041 0.7132298
v 0.37415183 0.999119 0.5404959
v 0.41018498 1.0225327 0.62864435
v 0.3181109 1.1764823 0.51629335
v 0.27128607 1.3727827 0.5923906
v 0.35414407 1.1998961 0.6044418
v 0.23525295 1.3493689 0.5042421
v 0.06411126 1.483946 0.6365387
v 0.03535327 1.4652594 0.5661875
v 0.41018498 1.0225327 0.62864435
v 0.37759468 1.2126099 0.48238158
v 0.37415183 0.999119 0.5404959
v 0.41362783 1.2360237 0.57053006
v 0.29256988 1.4172796 0.46277398
v 0.32860303 1.4406934 0.55092245
v 0.016868174 1.5402969 0.55381256
v 0.045626193 1.5589833 0.62416375
v -0.044996932 1.5350671 0.667561
v -0.0646621 1.3971012 0.7122458
v -0.09342012 1.3784148 0.64189464
v -0.07375495 1.5163805 0.5972098
v 0.045626193 1.5589833 0.62416375
v 0.016868174 1.5402969 0.55381256
v 0.03535327 1.4652594 0.5661875
v 0.014470048 1.4854136 0.65644103
v 0.06411126 1.483946 0.6365387
v -0.014287971 1.466727 0.58608985
v 0.0048934 1.4123455 0.6797639
v -0.02386462 1.393659 0.6094127
v -0.0646621 1.3971012 0.7122458
v -0.0003394112 1.2018337 0.6625188
v -0.09342012 1.3784148 0.64189464
v 0.020643406 1.2154679 0.71384937
v 0.13996047 1.1349545 0.6250387
v 0.15955143 1.1476843 0.67296433
v -0.02386462 1.393659 0.6094127
v 0.052428786 1.25646 0.68996805
v 0.0048934 1.4123455 0.6797639
v 0.031445988 1.2428256 0.6386374
v 0.14158222 1.1975343 0.6670687
v 0.121991284 1.1848044 0.61914307
v 0.15955143 1.1476843 0.67296433
v 0.22151226 1.225428 0.626986
v 0.20192128 1.2126981 0.5790604
v 0.13996047 1.1349545 0.6250387
v 0.121991284 1.1848044 0.61914307
v 0.15439987 1.2322365 0.59329635
v 0.1739909 1.2449664 0.64122194
v 0.14158222 1.1975343 0.6670687
v 0.36125904 0.04171428 2.1059606
v 0.35904616 -0.43384945 1.9652667
v 0.57279336 -0.81290805 2.6272542
v 0.5470549 -0.14243102 2.2680235
v -0.16300574 -0.41674697 1.945854
v -0.1603357 0.061089396 2.1085484
v -0.2076696 -0.14540589 2.446747
v -0.14433396 -0.76186335 2.6939576
v 0.9314162 -0.86254096 2.2639751
v 0.9510935 -1.3469563 2.094628
v 0.97083664 -0.6222507 2.0172791
v 0.8422232 -1.3180928 2.4206076
v 1.0653583 -0.7234341 2.4179683
v 1.1599892 -1.2008773 2.527791
v 0.74103695 -0.74394715 2.435601
v 0.9314162 -0.86254096 2.2639751
v 0.97083664 -0.6222507 2.0172791
v 0.7373089 -0.42811394 2.2108133
v 0.57279336 -0.81290805 2.6272542
v 0.5470549 -0.14243102 2.2680235
v 0.9510935 -1.3469563 2.094628
v 0.8422232 -1.3180928 2.4206076
v 1.1599892 -1.2008773 2.527791
v 1.2632587 -1.2282557 2.2185807
v 0.97083664 -0.6222507 2.0172791
v 0.9510935 -1.3469563 2.094628
v 1.2632587 -1.2282557 2.2185807
v 1.1249037 -0.5027584 2.165543
v -0.2076696 -0.14540589 2.446747
v -0.33880538 -0.7577027 2.3379383
v -0.14433396 -0.76186335 2.6939576
v -0.39558768 -0.48127246 2.2055035
v -0.36992398 -0.79456675 2.2634475
v -0.523706 -0.55123353 2.139052
v -0.45322213 -1.5518079 2.330731
v -0.7268999 -1.5417895 2.1394315
v -0.45322213 -1.5518079 2.330731
v -0.7268999 -1.5417895 2.1394315
v -0.9656052 -1.5689905 2.3796983
v -0.5695493 -1.6472853 2.6233954
v 1.2157353 -1.3266543 2.1648247
v 1.5252596 -1.6868368 2.335174
v 1.3362105 -1.380616 2.3218966
v 1.3385944 -1.5866281 2.0529165
v 1.1547067 -1.6830949 1.9704642
v 1.0996284 -1.3342261 2.1125722
v 1.0904076 -1.3609834 2.5937586
v 0.85831183 -1.7677588 2.6411877
v 0.96121615 -1.3694118 2.536592
v 1.1623018 -1.7476648 2.7160783
v 1.219063 -1.3520865 2.5354657
v 1.4270048 -1.7295461 2.6387036
v 1.3362105 -1.380616 2.3218966
v 1.5252596 -1.6868368 2.335174
v 1.4961243 -1.8498828 2.5983665
v 1.5264208 -1.7538631 2.39379
v 1.4155803 -1.855793 2.639646
v 1.3742672 -1.8584144 2.6581748
v 1.0186726 -1.8833745 2.7298903
v 0.96910954 -1.8845689 2.735837
v 0.8555813 -1.8757279 2.6448975
v 1.1978059 -1.870418 2.7649837
v 1.2694246 -1.8656453 2.6919966
v 1.3330914 -2.5152438 2.5403104
v 1.4355663 -2.4970999 2.5090365
v 0.86045897 -2.4049878 2.0438557
v 1.012322 -2.3939886 2.0549455
v 1.0307457 -2.2978797 1.9034659
v 0.899076 -2.3154266 1.906004
v 0.96791303 -1.6959498 2.0409358
v 1.1547067 -1.6830949 1.9704642
v 1.406667 -1.8070503 2.4757335
v 1.5264208 -1.7538631 2.39379
v 1.5252596 -1.6868368 2.335174
v 1.3620243 -1.8152728 2.4962754
v 1.3742672 -1.8584144 2.6581748
v 1.4155803 -1.855793 2.639646
v 1.0938115 -1.7359741 2.3467402
v 1.1547067 -1.6830949 1.9704642
v 1.3385944 -1.5866281 2.0529165
v 1.2328815 -1.8416908 2.5322797
v 1.4223703 -2.4409232 2.3722897
v 1.3036033 -2.4624498 2.4065342
v 1.3330914 -2.5152438 2.5403104
v 1.4355663 -2.4970999 2.5090365
v 1.1760099 -1.8506668 2.5449893
v 1.1978059 -1.870418 2.7649837
v 1.2694246 -1.8656453 2.6919966
v 1.03058 -1.849891 2.521883
v 0.97403294 -1.845196 2.460654
v 0.7995728 -1.735599 2.3383439
v 1.0186726 -1.8833745 2.7298903
v 0.96910954 -1.8845689 2.735837
v 0.8122563 -1.8000984 2.4227135
v 1.0027187 -2.581788 2.709176
v 0.86289126 -2.5950856 2.6692529
v 1.0307457 -2.2978797 1.9034659
v 1.012322 -2.3939886 2.0549455
v 1.0938115 -1.7359741 2.3467402
v 1.1547067 -1.6830949 1.9704642
v 0.86289126 -2.5950856 2.6692529
v 0.84734285 -2.5879922 2.8097053
v 0.9803777 -2.5740712 2.8410501
v 1.0027187 -2.581788 2.709176
v 0.97403294 -1.845196 2.460654
v 0.96910954 -1.8845689 2.735837
v 1.4715155 -2.335267 2.3632302
v 1.5393271 -2.3208604 2.3543148
v 1.5295944 -2.283561 2.2526703
v 1.4638145 -2.297042 2.2731678
v 1.0735161 -2.6688528 2.5775032
v 1.2064885 -2.6596224 2.5682006
v 1.1967452 -2.6550572 2.4059224
v 1.0811872 -2.6640134 2.4160159
v 0.96910954 -1.8845689 2.735837
v 0.9803777 -2.5740712 2.8410501
v 0.84734285 -2.5879922 2.8097053
v 0.8555813 -1.8757279 2.6448975
v 0.8555813 -1.8757279 2.6448975
v 0.84734285 -2.5879922 2.8097053
v 0.86289126 -2.5950856 2.6692529
v 0.8122563 -1.8000984 2.4227135
v 0.85831183 -1.7677588 2.6411877
v 0.7995728 -1.735599 2.3383439
v 0.96121615 -1.3694118 2.536592
v 0.8470857 -1.4134824 2.3240333
v 1.219063 -1.3520865 2.5354657
v 1.0904076 -1.3609834 2.5937586
v 0.96791303 -1.6959498 2.0409358
v 0.899076 -2.3154266 1.906004
v 0.86045897 -2.4049878 2.0438557
v 0.9578881 -1.3439798 2.165951
v 1.1547067 -1.6830949 1.9704642
v 1.0996284 -1.3342261 2.1125722
v 1.2157353 -1.3266543 2.1648247
v 1.3362105 -1.380616 2.3218966
v 1.0186726 -1.8833745 2.7298903
v 1.0735161 -2.6688528 2.5775032
v 1.0811872 -2.6640134 2.4160159
v 1.03058 -1.849891 2.521883
v 1.1760099 -1.8506668 2.5449893
v 1.1967452 -2.6550572 2.4059224
v 1.2064885 -2.6596224 2.5682006
v 1.1978059 -1.870418 2.7649837
v 1.03058 -1.849891 2.521883
v 1.0811872 -2.6640134 2.4160159
v 1.1967452 -2.6550572 2.4059224
v 1.1760099 -1.8506668 2.5449893
v 1.1978059 -1.870418 2.7649837
v 1.2064885 -2.6596224 2.5682006
v 1.0735161 -2.6688528 2.5775032
v 1.0186726 -1.8833745 2.7298903
v 1.3620243 -1.8152728 2.4962754
v 1.4223703 -2.4409232 2.3722897
v 1.4355663 -2.4970999 2.5090365
v 1.3742672 -1.8584144 2.6581748
v 1.2694246 -1.8656453 2.6919966
v 1.3330914 -2.5152438 2.5403104
v 1.3036033 -2.4624498 2.4065342
v 1.2328815 -1.8416908 2.5322797
v 1.4961243 -1.8498828 2.5983665
v 1.4715155 -2.335267 2.3632302
v 1.4155803 -1.855793 2.639646
v 1.5393271 -2.3208604 2.3543148
v 1.5264208 -1.7538631 2.39379
v 1.5295944 -2.283561 2.2526703
v 1.4155803 -1.855793 2.639646
v 1.4715155 -2.335267 2.3632302
v 1.4638145 -2.297042 2.2731678
v 1.406667 -1.8070503 2.4757335
v 1.5295944 -2.283561 2.2526703
v 1.5264208 -1.7538631 2.39379
v 1.0938115 -1.7359741 2.3467402
v 1.012322 -2.3939886 2.0549455
v 0.86045897 -2.4049878 2.0438557
v 0.7995728 -1.735599 2.3383439
v -0.53463 -1.6884141 2.5286798
v -0.27751207 -2.0387402 2.3080695
v -0.27685377 -2.0484166 2.633115
v -0.45067123 -1.7297658 2.3058949
v -0.74139273 -1.7330786 2.141903
v -0.5968175 -1.7054918 2.1683435
v -0.84434867 -1.7451813 2.212944
v -0.9202268 -1.8050547 2.3904994
v -0.64934593 -1.7019887 2.6067863
v -0.78216124 -1.7281041 2.5732808
v -0.5968175 -1.7054918 2.1683435
v -0.74139273 -1.7330786 2.141903
v -0.70987785 -2.1120722 1.9948213
v -0.50711095 -2.073372 2.03203
v -0.45067123 -1.7297658 2.3058949
v -0.4436416 -2.7157383 1.9499327
v -0.27751207 -2.0387402 2.3080695
v -0.30663264 -2.702768 1.9283929
v -0.22204381 -2.7681212 2.0695314
v -0.84434867 -1.7451813 2.212944
v -0.9202268 -1.8050547 2.3904994
v -1.0188335 -2.1576045 2.441641
v -0.90449464 -2.0467281 2.1076448
v -0.70987785 -2.1120722 1.9948213
v -0.74139273 -1.7330786 2.141903
v -0.64934593 -1.7019887 2.6067863
v -0.53463 -1.6884141 2.5286798
v -0.27685377 -2.0484166 2.633115
v -0.57431746 -2.0893402 2.7674046
v -0.34286022 -2.1812465 2.7609482
v -0.39393535 -2.192226 2.76435
v -0.57104176 -2.2163 2.8341107
v -0.78216124 -1.7281041 2.5732808
v -0.65658104 -2.2368484 2.7726274
v -0.85779834 -2.1415658 2.7377906
v -0.9202268 -1.8050547 2.3904994
v -1.0188335 -2.1576045 2.441641
v -0.76941633 -2.2578626 2.7576315
v -0.5867568 -2.9292965 2.6765966
v -0.6993295 -2.9381459 2.66302
v -0.81470853 -2.2670023 2.746396
v -0.9040883 -2.2846322 2.7191317
v -0.9933059 -2.2188537 2.5073204
v -0.8011569 -2.7987556 2.5062556
v -0.8742504 -2.8007479 2.5092225
v -0.22204381 -2.7681212 2.0695314
v -0.30663264 -2.702768 1.9283929
v -0.4436416 -2.7157383 1.9499327
v -0.37537348 -2.790769 2.1094975
v -0.27685377 -2.0484166 2.633115
v -0.27751207 -2.0387402 2.3080695
v -0.25979346 -2.0969808 2.4022446
v -0.24657565 -2.156971 2.6448228
v -0.07051292 -2.8861785 2.727394
v -0.34286022 -2.1812465 2.7609482
v -0.03272736 -2.8584123 2.868133
v -0.16442779 -2.8712878 2.9250336
v -0.25979346 -2.0969808 2.4022446
v -0.27751207 -2.0387402 2.3080695
v -0.57141954 -2.106223 2.3737469
v -0.40452138 -2.1756427 2.4760966
v -1.0188335 -2.1576045 2.441641
v -0.70987785 -2.1120722 1.9948213
v -0.90449464 -2.0467281 2.1076448
v -0.44969094 -2.1861053 2.5503304
v -0.39393535 -2.192226 2.76435
v -0.34286022 -2.1812465 2.7609482
v -0.5921148 -2.2178879 2.601646
v -0.65612996 -2.2236035 2.5943067
v -0.57104176 -2.2163 2.8341107
v -0.65658104 -2.2368484 2.7726274
v -0.79871964 -2.229948 2.580224
v -0.9933059 -2.2188537 2.5073204
v -0.8498681 -2.2335215 2.565747
v -0.76941633 -2.2578626 2.7576315
v -0.81470853 -2.2670023 2.746396
v -0.4436416 -2.7157383 1.9499327
v -0.70987785 -2.1120722 1.9948213
v -0.57141954 -2.106223 2.3737469
v -0.37537348 -2.790769 2.1094975
v -0.07051292 -2.8861785 2.727394
v -0.20741537 -2.9002237 2.794472
v -0.16442779 -2.8712878 2.9250336
v -0.03272736 -2.8584123 2.868133
v -0.8011569 -2.7987556 2.5062556
v -0.8183316 -2.7684934 2.4090416
v -0.8910095 -2.7724013 2.3999763
v -0.8742504 -2.8007479 2.5092225
v -0.5867568 -2.9292965 2.6765966
v -0.5930848 -2.8845973 2.529015
v -0.72355324 -2.893999 2.5150046
v -0.6993295 -2.9381459 2.66302
v -0.2792499 -3.020925 2.6797001
v -0.3156857 -3.0372915 2.514891
v -0.43566412 -3.0561676 2.526216
v -0.4166476 -3.0434587 2.6951911
v -0.40452138 -2.1756427 2.4760966
v -0.34286022 -2.1812465 2.7609482
v -0.16442779 -2.8712878 2.9250336
v -0.20741537 -2.9002237 2.794472
v -0.25979346 -2.0969808 2.4022446
v -0.40452138 -2.1756427 2.4760966
v -0.20741537 -2.9002237 2.794472
v -0.07051292 -2.8861785 2.727394
v -0.39393535 -2.192226 2.76435
v -0.44969094 -2.1861053 2.5503304
v -0.3156857 -3.0372915 2.514891
v -0.2792499 -3.020925 2.6797001
v -0.57104176 -2.2163 2.8341107
v -0.4166476 -3.0434587 2.6951911
v -0.5921148 -2.2178879 2.601646
v -0.57104176 -2.2163 2.8341107
v -0.4166476 -3.0434587 2.6951911
v -0.43566412 -3.0561676 2.526216
v -0.44969094 -2.1861053 2.5503304
v -0.5921148 -2.2178879 2.601646
v -0.43566412 -3.0561676 2.526216
v -0.3156857 -3.0372915 2.514891
v -0.79871964 -2.229948 2.580224
v -0.76941633 -2.2578626 2.7576315
v -0.6993295 -2.9381459 2.66302
v -0.72355324 -2.893999 2.5150046
v -0.65658104 -2.2368484 2.7726274
v -0.65612996 -2.2236035 2.5943067
v -0.5930848 -2.8845973 2.529015
v -0.5867568 -2.9292965 2.6765966
v -0.65612996 -2.2236035 2.5943067
v -0.79871964 -2.229948 2.580224
v -0.72355324 -2.893999 2.5150046
v -0.5930848 -2.8845973 2.529015
v -0.81470853 -2.2670023 2.746396
v -0.8498681 -2.2335215 2.565747
v -0.8183316 -2.7684934 2.4090416
v -0.8011569 -2.7987556 2.5062556
v -0.8498681 -2.2335215 2.565747
v -0.9933059 -2.2188537 2.5073204
v -0.8910095 -2.7724013 2.3999763
v -0.8183316 -2.7684934 2.4090416
v -0.9933059 -2.2188537 2.5073204
v -0.9040883 -2.2846322 2.7191317
v -0.8742504 -2.8007479 2.5092225
v -0.8910095 -2.7724013 2.3999763
v -0.57141954 -2.106223 2.3737469
v -0.27751207 -2.0387402 2.3080695
v -0.22204381 -2.7681212 2.0695314
v -0.37537348 -2.790769 2.1094975
v 0.16456366 -0.30410242 3.252171
v 0.52193475 -0.32596153 3.4954755
v 0.1556499 -0.17732638 3.5352094
v 0.3760383 -0.3899169 3.2292304
v 0.16723055 -0.55545557 3.0703
v -0.04738766 -0.3822887 3.2124786
v 0.6728294 -0.6715858 3.3705342
v 0.7400652 -0.7798188 3.6534257
v 0.56582725 -0.38072622 3.7976956
v 0.5635257 -1.172592 3.4952784
v 0.51994157 -1.0117375 3.2335744
v 0.46315718 -0.58946323 3.1570954
v 0.37488747 -0.7858498 3.0780218
v 0.15283108 -1.1471598 3.1648254
v 0.16293621 -0.8640361 3.0383298
v -0.048538446 -0.7782216 3.06127
v 0.11956471 -0.67402565 4.2211404
v 0.3310393 -0.75984 4.1981997
v 0.11527026 -0.98260605 4.18917
v -0.092386544 -0.7522118 4.1814485
v -0.18065637 -0.94859827 4.1023746
v -0.39032835 -0.8664758 3.888936
v -0.23744065 -0.5263243 4.0258956
v -0.45756412 -0.75824285 3.606045
v -0.28102458 -0.3654697 3.7641923
v -0.28332615 -1.1573355 3.461775
v -0.23943383 -1.2121001 3.7639945
v -0.09353733 -1.1481447 4.0302396
v 0.12685102 -1.3607352 3.7242603
v 0.11793715 -1.2339591 4.0072985
v 0.32988852 -1.1557728 4.0469913
v 0.1556499 -0.17732638 3.5352094
v 0.52193475 -0.32596153 3.4954755
v 0.56582725 -0.38072622 3.7976956
v 0.14287782 -0.20909703 3.843576
v 0.49595463 -0.5395366 4.0549107
v 0.12966979 -0.39090157 4.094644
v 0.3310393 -0.75984 4.1981997
v 0.11956471 -0.67402565 4.2211404
v -0.23744065 -0.5263243 4.0258956
v -0.092386544 -0.7522118 4.1814485
v -0.28102458 -0.3654697 3.7641923
v -0.21146047 -0.31274897 3.4664607
v -0.04738766 -0.3822887 3.2124786
v 0.16456366 -0.30410242 3.252171
v 0.7400652 -0.7798188 3.6534257
v 0.5635257 -1.172592 3.4952784
v 0.49396145 -1.2253126 3.7930095
v 0.64684916 -0.8851609 3.9299688
v 0.56582725 -0.38072622 3.7976956
v 0.32988852 -1.1557728 4.0469913
v 0.49595463 -0.5395366 4.0549107
v 0.4181583 -0.95938635 4.126065
v 0.11527026 -0.98260605 4.18917
v 0.3310393 -0.75984 4.1981997
v 0.49396145 -1.2253126 3.7930095
v 0.11793715 -1.2339591 4.0072985
v 0.32988852 -1.1557728 4.0469913
v 0.12685102 -1.3607352 3.7242603
v 0.5635257 -1.172592 3.4952784
v 0.13962293 -1.3289642 3.4158936
v 0.51994157 -1.0117375 3.2335744
v -0.23943383 -1.2121001 3.7639945
v 0.15283108 -1.1471598 3.1648254
v -0.28332615 -1.1573355 3.461775
v -0.21345365 -0.9985249 3.2045598
v 0.16293621 -0.8640361 3.0383298
v -0.21345365 -0.9985249 3.2045598
v 0.15283108 -1.1471598 3.1648254
v -0.048538446 -0.7782216 3.06127
v -0.36434817 -0.6529006 3.3295012
v -0.45756412 -0.75824285 3.606045
v -0.28332615 -1.1573355 3.461775
v -0.28102458 -0.3654697 3.7641923
v -0.21146047 -0.31274897 3.4664607
v -0.13565743 -0.5786754 3.1334052
v 0.16723055 -0.55545557 3.0703
v -0.04738766 -0.3822887 3.2124786
v 0.4227184 -1.3174405 3.4452376
v 0.37374568 -1.3179796 3.4228177
v 0.32249838 -1.3222786 3.4388335
v 0.28270823 -1.3291855 3.4889944
v 0.4562943 -1.3208057 3.5000863
v 0.26503694 -1.3368497 3.5598595
v 0.46547687 -1.3271735 3.5726671
v 0.2742195 -1.3432176 3.63244
v 0.44780564 -1.3348377 3.6435318
v 0.30779546 -1.3465829 3.687289
v 0.40801543 -1.3417447 3.6936924
v 0.3567682 -1.3460436 3.709709
v -0.092808485 -1.2886767 3.4330237
v -0.14069924 -1.269515 3.448535
v -0.18019032 -1.2585257 3.4982014
v -0.0493505 -1.3108763 3.4558241
v -0.20070034 -1.2586533 3.5687149
v -0.021969855 -1.3301656 3.5108268
v -0.19673353 -1.2698637 3.6411817
v -0.018003106 -1.3413758 3.5832934
v -0.16935289 -1.2891529 3.696184
v -0.038513064 -1.3415036 3.6538074
v -0.12589496 -1.3113526 3.7189846
v -0.0780043 -1.3305142 3.7034736
v 0.60362077 -0.97853506 3.909339
v 0.6326064 -0.88086784 3.9188356
v 0.60413504 -0.8015882 3.9769158
v 0.53772116 -1.0406744 3.9619641
v 0.53844976 -0.79001296 4.0576925
v 0.46682978 -1.0313531 4.047203
v 0.4673469 -0.8534206 4.115156
v 0.43321574 -0.9524865 4.1078825
v 0.43321574 -0.9524865 4.1078825
v 0.4673469 -0.8534206 4.115156
v 0.6235124 -0.8979093 4.1674967
v 0.598415 -0.9708569 4.154728
v 0.46682978 -1.0313531 4.047203
v 0.6793815 -0.9618044 4.2846303
v 0.6231172 -1.0338719 4.115572
v 0.6580229 -1.0109707 4.2593107
v 0.67908263 -1.0646061 4.24537
v 0.6580229 -1.0109707 4.2593107
v 0.6793815 -0.9618044 4.2846303
v 0.62664235 -1.038143 4.4064245
v 0.61760163 -1.0610738 4.390811
v 0.67908263 -1.0646061 4.24537
v 0.52940226 -1.1082126 4.514913
v 0.6264956 -1.0886198 4.387147
v 0.53772116 -1.0406744 3.9619641
v 0.46682978 -1.0313531 4.047203
v 0.6231172 -1.0338719 4.115572
v 0.6846248 -1.0509238 4.0765142
v 0.60362077 -0.97853506 3.909339
v 0.67908263 -1.0646061 4.24537
v 0.759773 -1.0122159 4.0595655
v 0.731287 -1.0917124 4.252257
v 0.6264956 -1.0886198 4.387147
v 0.78474903 -1.076688 4.2765627
v 0.64785755 -1.1047469 4.3981
v 0.52940226 -1.1082126 4.514913
v 0.6689254 -1.1002859 4.4177094
v 0.6326064 -0.88086784 3.9188356
v 0.60362077 -0.97853506 3.909339
v 0.759773 -1.0122159 4.0595655
v 0.79851484 -0.93983924 4.0719867
v 0.60413504 -0.8015882 3.9769158
v 0.76016474 -0.8774123 4.1110477
v 0.79851484 -0.93983924 4.0719867
v 0.759773 -1.0122159 4.0595655
v 0.78474903 -1.076688 4.2765627
v 0.80706835 -1.0281117 4.303059
v 0.76016474 -0.8774123 4.1110477
v 0.6689254 -1.1002859 4.4177094
v 0.7850472 -0.97412694 4.315731
v 0.6776161 -1.0777301 4.433968
v 0.52940226 -1.1082126 4.514913
v 0.66907156 -1.0500349 4.4369006
v 0.53844976 -0.79001296 4.0576925
v 0.60413504 -0.8015882 3.9769158
v 0.76016474 -0.8774123 4.1110477
v 0.6851814 -0.8594755 4.1496296
v 0.4673469 -0.8534206 4.115156
v 0.7850472 -0.97412694 4.315731
v 0.6235124 -0.8979093 4.1674967
v 0.73170924 -0.9464545 4.3077316
v 0.66907156 -1.0500349 4.4369006
v 0.6793815 -0.9618044 4.2846303
v 0.6480645 -1.0335313 4.4252977
v 0.52940226 -1.1082126 4.514913
v 0.62664235 -1.038143 4.4064245
v -0.3180966 -0.9672054 3.8866873
v -0.2521632 -1.0295972 3.93897
v -0.1807951 -1.0205481 4.02384
v -0.14656469 -0.94181144 4.084344
v -0.34665838 -0.8694278 3.8963332
v -0.31758252 -0.7902585 3.9542642
v -0.18027812 -0.8426156 4.091793
v -0.25143483 -0.7789357 4.0346985
v -0.14656469 -0.94181144 4.084344
v -0.1807951 -1.0205481 4.02384
v -0.33673394 -1.022469 4.0930195
v -0.31158775 -0.95954967 4.1320457
v -0.18027812 -0.8426156 4.091793
v -0.39214206 -1.0529902 4.2231064
v -0.33633888 -0.88650656 4.144944
v -0.37080497 -0.999436 4.236937
v -0.39184338 -0.9501885 4.262367
v -0.37080497 -0.999436 4.236937
v -0.39214206 -1.0529902 4.2231064
v -0.338912 -1.0772065 4.364608
v -0.3298937 -1.0496948 4.368226
v -0.39184338 -0.9501885 4.262367
v -0.24123254 -1.0971724 4.4918694
v -0.33876532 -1.0267297 4.3838854
v -0.25143483 -0.7789357 4.0346985
v -0.18027812 -0.8426156 4.091793
v -0.33633888 -0.88650656 4.144944
v -0.39795202 -0.84783685 4.1273966
v -0.31758252 -0.7902585 3.9542642
v -0.39184338 -0.9501885 4.262367
v -0.473203 -0.8654858 4.0892053
v -0.44399136 -0.9346384 4.285739
v -0.33876532 -1.0267297 4.3838854
v -0.49739248 -0.96210647 4.2940154
v -0.36007148 -1.0220361 4.4028697
v -0.24123254 -1.0971724 4.4918694
v -0.38108099 -1.0384593 4.4145823
v -0.34665838 -0.8694278 3.8963332
v -0.31758252 -0.7902585 3.9542642
v -0.473203 -0.8654858 4.0892053
v -0.51199394 -0.927765 4.050344
v -0.3180966 -0.9672054 3.8866873
v -0.49739248 -0.96210647 4.2940154
v -0.47359473 -1.0002893 4.037723
v -0.5196858 -1.0160064 4.2814584
v -0.49769062 -1.0646676 4.254847
v -0.5196858 -1.0160064 4.2814584
v -0.49739248 -0.96210647 4.2940154
v -0.38108099 -1.0384593 4.4145823
v -0.3897468 -1.0661216 4.4116945
v -0.49769062 -1.0646676 4.254847
v -0.24123254 -1.0971724 4.4918694
v -0.38122702 -1.0887102 4.395391
v -0.2521632 -1.0295972 3.93897
v -0.3180966 -0.9672054 3.8866873
v -0.47359473 -1.0002893 4.037723
v -0.39850837 -1.0392851 4.0542817
v -0.1807951 -1.0205481 4.02384
v -0.49769062 -1.0646676 4.254847
v -0.33673394 -1.022469 4.0930195
v -0.44441348 -1.0798962 4.2302647
v -0.38122702 -1.0887102 4.395391
v -0.39214206 -1.0529902 4.2231064
v -0.3602783 -1.0932517 4.375672
v -0.24123254 -1.0971724 4.4918694
v -0.338912 -1.0772065 4.364608
vt 0.5275723 0.7769141
vt 0.52381027 0.76373005
vt 0.5194447 0.7769141
vt 0.5194447 0.65953445
vt 0.52742374 0.67851233
vt 0.52742374 0.65793085
vt 0.058886647 0.29201126
vt 0.05507624 0.2428565
vt 0.017790198 0.24977589
vt 0.018165588 0.30689144
vt 0.07196307 0.32450008
vt 0.004939437 0.36415672
vt 0.15684831 0.40363407
vt 0.19925916 0.32647038
vt 0.13059115 0.28565645
vt 0.16095626 0.2241025
vt 0.24797559 0.2739787
vt 0.22582245 0.20758486
vt 0.2911862 0.25006342
vt 0.28361952 0.1857276
vt 0.3306675 0.21710443
vt 0.31109083 0.15237188
vt 0.3505113 0.16360569
vt 0.30690622 0.11246586
vt 0.3357315 0.09703398
vt 0.27405012 0.07668686
vt 0.2903514 0.06984615
vt 0.26910555 0.050474644
vt 0.2838441 0.053102493
vt 0.28790176 0.0224123
vt 0.29212523 0.03344965
vt 0.31702447 0.004939556
vt 0.31811273 0.01986885
vt 0.3629911 0.019140244
vt 0.35390878 0.026900768
vt 0.37222874 0.031918526
vt 0.3602811 0.032010555
vt 0.36227417 0.051915646
vt 0.3549037 0.04251194
vt 0.33491385 0.06565714
vt 0.33461034 0.0569458
vt 0.31129754 0.059491634
vt 0.31804633 0.054943085
vt 0.3105111 0.042790413
vt 0.31824458 0.045330048
vt 0.32981515 0.037076473
vt 0.0735715 0.8099587
vt 0.104494214 0.7999215
vt 0.0912444 0.76301074
vt 0.06032169 0.7730479
vt 0.04779613 0.76034546
vt 0.09486234 0.7450681
vt 0.010914564 0.71682906
vt 0.09726691 0.6888001
vt 0.009856999 0.63653326
vt 0.054189503 0.62214327
vt 0.0049394965 0.6216588
vt 0.050450206 0.6106429
vt 0.03468579 0.47275615
vt 0.104494214 0.49028063
vt 0.48384047 0.019219637
vt 0.4714104 0.004939437
vt 0.4272772 0.013608217
vt 0.42515433 0.0404253
vt 0.53993237 0.02035451
vt 0.38295114 0.09817207
vt 0.44687974 0.1448654
vt 0.4298396 0.17303813
vt 0.39066732 0.15445292
vt 0.41850674 0.21744692
vt 0.38210762 0.20697212
vt 0.5385667 0.07342124
vt 0.6027273 0.07151067
vt 0.50069964 0.18659294
vt 0.58677804 0.10251653
vt 0.57285166 0.15237689
vt 0.61424387 0.07516849
vt 0.6165321 0.20942414
vt 0.605737 0.10896623
vt 0.71755123 0.08612168
vt 0.6982918 0.12789547
vt 0.5252687 0.25095463
vt 0.6572808 0.2364155
vt 0.5882641 0.27258444
vt 0.69347775 0.27203643
vt 0.64372635 0.2988652
vt 0.70822537 0.32631886
vt 0.66793585 0.3338647
vt 0.68731296 0.39070225
vt 0.66004467 0.37276596
vt 0.63956594 0.4129889
vt 0.62397015 0.40471685
vt 0.6315266 0.42890537
vt 0.61660874 0.43016696
vt 0.6379491 0.44915354
vt 0.6327207 0.45971596
vt 0.6625637 0.46499497
vt 0.6600958 0.47970355
vt 0.6988461 0.46117783
vt 0.70716906 0.4697038
vt 0.7056644 0.45669103
vt 0.71755123 0.4578724
vt 0.7012843 0.4457847
vt 0.7094945 0.43712974
vt 0.68240845 0.42950094
vt 0.6835184 0.4208882
vt 0.6657295 0.429955
vt 0.65943193 0.42482805
vt 0.6650355 0.43950814
vt 0.6571003 0.44132113
vt 0.6757661 0.44845754
vt 0.041941166 0.42377186
vt 0.041665435 0.4501686
vt 0.084808946 0.46287727
vt 0.09841025 0.450346
vt 0.15411544 0.4558239
vt 0.20867896 0.37649632
vt 0.22169149 0.4088621
vt 0.22788644 0.37327814
vt 0.23730636 0.4068675
vt 0.35112906 0.36032104
vt 0.37222874 0.40733242
vt 0.1256268 0.715534
vt 0.12789237 0.74251103
vt 0.15953058 0.7501917
vt 0.17378211 0.72722435
vt 0.11437321 0.6455517
vt 0.21647006 0.67033744
vt 0.15012759 0.598789
vt 0.20553881 0.612241
vt 0.16756034 0.5480993
vt 0.21647006 0.55717516
vt 0.12038171 0.49046135
vt 0.1568498 0.47275615
vt 0.7371098 0.17845821
vt 0.822159 0.23760784
vt 0.8168715 0.17845821
vt 0.72743016 0.23760784
vt 0.8120648 0.28521502
vt 0.7360168 0.28521502
vt 0.8014425 0.33121574
vt 0.74407536 0.33121574
vt 0.869822 0.5520568
vt 0.81565523 0.5450849
vt 0.81565523 0.63994855
vt 0.869822 0.631932
vt 0.74625725 0.13356805
vt 0.7549278 0.16857934
vt 0.795912 0.16857934
vt 0.803702 0.13356805
vt 0.7367842 0.072015405
vt 0.8129351 0.072015405
vt 0.72743016 0.004939556
vt 0.82228714 0.004939437
vt 0.8838996 0.5274677
vt 0.8324876 0.48343658
vt 0.82655877 0.5274677
vt 0.8733977 0.48343658
vt 0.8361131 0.41566157
vt 0.8687503 0.41566157
vt 0.8457152 0.37487364
vt 0.8633613 0.37487364
vt 0.84710294 0.35689902
vt 0.86204505 0.35689902
vt 0.84620744 0.34109497
vt 0.8611495 0.34109497
vt 0.9178941 0.9142077
vt 0.88100266 0.8741963
vt 0.87690705 0.9142077
vt 0.9137013 0.8741963
vt 0.8888234 0.8324685
vt 0.90650266 0.8324685
vt 0.890173 0.8057718
vt 0.9051432 0.8057718
vt 0.08452934 0.9213002
vt 0.099476755 0.94946337
vt 0.099476755 0.92108655
vt 0.08452937 0.9496772
vt 0.09925702 0.9828012
vt 0.08732754 0.9829719
vt 0.9857052 0.63525057
vt 0.97059125 0.60992813
vt 0.97073674 0.63510704
vt 0.9855597 0.61007214
vt 0.97073674 0.57737684
vt 0.9857052 0.5775204
vt 0.9730731 0.53636837
vt 0.9850194 0.5364828
vt 0.5875291 0.9427216
vt 0.5881644 0.9583161
vt 0.60008633 0.9585962
vt 0.59945107 0.94300175
vt 0.5881644 0.9276149
vt 0.60008633 0.92789507
vt 0.35856086 0.8199203
vt 0.37044343 0.8261969
vt 0.37050855 0.8199203
vt 0.35849574 0.8261969
vt 0.37053517 0.83541894
vt 0.35858747 0.83541894
vt 0.79165065 0.968168
vt 0.78172886 0.93844247
vt 0.77971995 0.968168
vt 0.7904339 0.93844247
vt 0.7813989 0.9168124
vt 0.7895265 0.9168124
vt 0.5657034 0.92761517
vt 0.57618856 0.9508352
vt 0.57765025 0.92761517
vt 0.56747174 0.9508352
vt 0.57579553 0.96638155
vt 0.5676569 0.96638155
vt 0.52758384 0.7049327
vt 0.52758384 0.6884074
vt 0.51944464 0.6883917
vt 0.51944464 0.70491695
vt 0.3329563 0.9283979
vt 0.3329563 0.919389
vt 0.32483467 0.919199
vt 0.32483464 0.9282079
vt 0.5390268 0.81742144
vt 0.5396644 0.89728856
vt 0.6055914 0.9177361
vt 0.6055914 0.7958395
vt 0.46825308 0.8139562
vt 0.46811706 0.8936813
vt 0.5270568 0.90235424
vt 0.5270568 0.79712206
vt 0.8769026 0.04824698
vt 0.9063058 0.10851428
vt 0.9063059 0.0049394667
vt 0.86357164 0.12078202
vt 0.8461877 0.026001424
vt 0.8321661 0.08889207
vt 0.8798554 0.20946127
vt 0.8344221 0.21233457
vt 0.83203804 0.26491743
vt 0.8797531 0.2694614
vt 0.915117 0.1784584
vt 0.915117 0.30006367
vt 0.90706635 0.7898005
vt 0.9429934 0.7780677
vt 0.9429934 0.7257701
vt 0.90891457 0.7368994
vt 0.36689827 0.5756056
vt 0.36689827 0.47275603
vt 0.33492625 0.5050689
vt 0.3350398 0.5961153
vt 0.32504725 0.69913006
vt 0.27214202 0.61854815
vt 0.22634906 0.66190624
vt 0.3183174 0.63554335
vt 0.2790691 0.59974074
vt 0.32504725 0.6173403
vt 0.24263063 0.48999763
vt 0.2906011 0.47275615
vt 0.28688115 0.85793066
vt 0.2849571 0.8989829
vt 0.33563882 0.90932
vt 0.33563882 0.84581256
vt 0.9094906 0.6925359
vt 0.9535085 0.6498275
vt 0.9128648 0.66791224
vt 0.94865406 0.69125867
vt 0.9535085 0.7158911
vt 0.9070662 0.70795727
vt 0.748761 0.4591713
vt 0.7274302 0.41337585
vt 0.73518544 0.46259308
vt 0.7613453 0.40961218
vt 0.7660907 0.46404982
vt 0.79559296 0.41658878
vt 0.78794396 0.47610474
vt 0.81667984 0.4426012
vt 0.8077698 0.40668678
vt 0.81625205 0.43135738
vt 0.79676884 0.403255
vt 0.7912055 0.40172672
vt 0.74627966 0.3945923
vt 0.7401053 0.39412737
vt 0.729192 0.40175247
vt 0.7665418 0.39313745
vt 0.77753663 0.39873075
vt 0.8036061 0.34109497
vt 0.81667984 0.3450613
vt 0.68108934 0.9865223
vt 0.6993788 0.98600876
vt 0.7025159 0.963873
vt 0.6865962 0.96611774
vt 0.6783137 0.9200195
vt 0.7025159 0.9121522
vt 0.13384593 0.84402466
vt 0.116150856 0.8534422
vt 0.11437309 0.86462736
vt 0.1399113 0.8426738
vt 0.14405417 0.82532454
vt 0.13835227 0.8261795
vt 0.16710865 0.86835766
vt 0.14597571 0.9025798
vt 0.12701356 0.90113354
vt 0.156901 0.840096
vt 0.12548757 0.79169846
vt 0.14112198 0.789454
vt 0.14225662 0.77294445
vt 0.1286999 0.7749891
vt 0.16401577 0.8395405
vt 0.16942966 0.8193536
vt 0.15803385 0.8241687
vt 0.18085694 0.84464407
vt 0.1854887 0.85128164
vt 0.20259678 0.8754616
vt 0.18987656 0.82484674
vt 0.19612205 0.8253269
vt 0.20393491 0.86218166
vt 0.18844986 0.7600708
vt 0.20393491 0.765069
vt 0.2731713 0.8531151
vt 0.25295508 0.8458128
vt 0.226349 0.9269681
vt 0.27507818 0.9269681
vt 0.36732858 0.61044645
vt 0.34989583 0.60599446
vt 0.34532654 0.6165681
vt 0.36171567 0.6212318
vt 0.36732858 0.69835997
vt 0.33492625 0.6863475
vt 0.52768993 0.7392955
vt 0.5194533 0.7416043
vt 0.5194447 0.75385094
vt 0.52768993 0.75062084
vt 0.8181746 0.9511435
vt 0.8181746 0.9346088
vt 0.804055 0.93086433
vt 0.8043115 0.9452852
vt 0.49495256 0.91733277
vt 0.4984492 0.9899353
vt 0.51276433 0.98443615
vt 0.51276433 0.91223323
vt 0.7026684 0.7308
vt 0.67831373 0.8032579
vt 0.69622517 0.80501926
vt 0.7301012 0.7293469
vt 0.70371723 0.7193891
vt 0.74076724 0.72479135
vt 0.72081995 0.67206585
vt 0.74507284 0.68799835
vt 0.7260864 0.65194374
vt 0.71620584 0.6611363
vt 0.7816098 0.71318644
vt 0.79417586 0.78480166
vt 0.77566624 0.7948112
vt 0.76743627 0.67525774
vt 0.79417586 0.6996319
vt 0.77695954 0.6649711
vt 0.7727026 0.6551356
vt 0.75506294 0.6498275
vt 0.940783 0.34109473
vt 0.94712186 0.4229164
vt 0.96725297 0.426818
vt 0.96725297 0.34317505
vt 0.34551764 0.8558229
vt 0.3521613 0.94128597
vt 0.370744 0.9333044
vt 0.370744 0.8458126
vt 0.97946596 0.74717116
vt 0.97946596 0.6546986
vt 0.9690521 0.6498275
vt 0.9633875 0.7419317
vt 0.98040545 0.90387297
vt 0.98040545 0.80577207
vt 0.9681622 0.8088808
vt 0.9602066 0.9051645
vt 0.9821172 0.16420734
vt 0.9821172 0.09976661
vt 0.96514285 0.10127747
vt 0.96273196 0.16814876
vt 0.4850737 0.9944205
vt 0.4850737 0.91252303
vt 0.4706899 0.9122331
vt 0.46811712 0.9899013
vt 0.39069915 0.9719244
vt 0.39909363 0.910143
vt 0.38210773 0.96874857
vt 0.40373242 0.9151553
vt 0.41863918 0.9719244
vt 0.41609883 0.9126468
vt 0.952853 0.16814864
vt 0.9425996 0.1086545
vt 0.93139607 0.105982184
vt 0.9335949 0.16164374
vt 0.925461 0.109680295
vt 0.91618484 0.16814864
vt 0.9468148 0.09510374
vt 0.9468148 0.006079197
vt 0.9310334 0.004939556
vt 0.9161849 0.09610319
vt 0.6895472 0.85715663
vt 0.7309272 0.82465804
vt 0.6936064 0.814898
vt 0.71840644 0.852875
vt 0.7309272 0.8908948
vt 0.73033345 0.8742814
vt 0.7207341 0.9003221
vt 0.700197 0.90227294
vt 0.6783136 0.8676889
vt 0.67994785 0.8831973
vt 0.821862 0.8057718
vt 0.80499053 0.81139565
vt 0.8040549 0.8521521
vt 0.8277238 0.8442662
vt 0.8452757 0.8086209
vt 0.8361086 0.91675806
vt 0.8670281 0.8414793
vt 0.8497429 0.9119699
vt 0.8670281 0.9209852
vt 0.89497733 0.48307538
vt 0.8994143 0.5070287
vt 0.94151235 0.5224782
vt 0.9337015 0.47906768
vt 0.94151235 0.45674634
vt 0.8937788 0.46948195
vt 0.8362367 0.65246415
vt 0.82602257 0.6498275
vt 0.8040549 0.69919634
vt 0.83330005 0.704021
vt 0.81050265 0.71815324
vt 0.81638736 0.71866345
vt 0.8341777 0.7211051
vt 0.85307366 0.6518624
vt 0.84664625 0.719584
vt 0.8675426 0.70397186
vt 0.8776697 0.65112185
vt 0.89718735 0.6914954
vt 0.86040443 0.719465
vt 0.8627272 0.7958927
vt 0.87607074 0.79446983
vt 0.86614585 0.71929383
vt 0.87765706 0.7187109
vt 0.8936731 0.70145226
vt 0.8890767 0.7709832
vt 0.89718735 0.7700937
vt 0.87095803 0.13066089
vt 0.87350386 0.15042889
vt 0.88895226 0.15586829
vt 0.88895226 0.13506448
vt 0.6274901 0.89531183
vt 0.6596375 0.9044938
vt 0.65330344 0.8958869
vt 0.63191533 0.88326836
vt 0.6596375 0.80153847
vt 0.61547035 0.8749995
vt 0.6468073 0.8022628
vt 0.63380027 0.7958393
vt 0.45170605 0.88106656
vt 0.45823812 0.87200356
vt 0.43203807 0.84915787
vt 0.4357531 0.8731924
vt 0.39418936 0.81166476
vt 0.458238 0.80782604
vt 0.43209124 0.797122
vt 0.42561603 0.8744393
vt 0.4093802 0.89569485
vt 0.41318464 0.9002641
vt 0.41101706 0.8649083
vt 0.40695596 0.85910934
vt 0.3903855 0.88405865
vt 0.39045906 0.87143755
vt 0.39806437 0.84448045
vt 0.39099848 0.8193821
vt 0.39569223 0.8388747
vt 0.384135 0.85965234
vt 0.38210762 0.8545395
vt 0.94588757 0.54508495
vt 0.9337878 0.6149008
vt 0.9607122 0.63525033
vt 0.9607122 0.54522276
vt 0.83203816 0.30994254
vt 0.83291936 0.32785565
vt 0.84964466 0.32977825
vt 0.84964466 0.31288707
vt 0.5194447 0.71481156
vt 0.5197934 0.72646844
vt 0.5280774 0.7294166
vt 0.5280774 0.7162937
vt 0.900828 0.3305967
vt 0.900828 0.31327784
vt 0.88556683 0.30994248
vt 0.88766706 0.32749152
vt 0.8595234 0.30994272
vt 0.86158454 0.33040547
vt 0.87568784 0.3308704
vt 0.87568784 0.3101809
vt 0.95139104 0.5224781
vt 0.97881085 0.5224781
vt 0.9780739 0.4440403
vt 0.9658875 0.43994713
vt 0.9783231 0.17845821
vt 0.9624134 0.18624544
vt 0.96568316 0.28508663
vt 0.9783231 0.28449965
vt 0.91267824 0.44686747
vt 0.9309039 0.44381332
vt 0.9309039 0.34109497
vt 0.9167521 0.34597254
vt 0.89377856 0.44506788
vt 0.90595937 0.3434372
vt 0.92777324 0.9053626
vt 0.95032763 0.91350126
vt 0.95032763 0.81307507
vt 0.9344487 0.8057718
vt 0.37220842 0.7090092
vt 0.3584957 0.71402645
vt 0.35918596 0.8100414
vt 0.37220842 0.8077717
vt 0.71239495 0.9928179
vt 0.7293713 0.9944205
vt 0.7293713 0.9121523
vt 0.7144618 0.9131317
vt 0.99506044 0.34109497
vt 0.9771321 0.3433144
vt 0.97975826 0.42393327
vt 0.99506044 0.42593288
vt 0.61547035 0.9915495
vt 0.6319679 0.99025774
vt 0.6319679 0.9143729
vt 0.6168039 0.91583586
vt 0.07465029 0.92108655
vt 0.058978558 0.92426157
vt 0.06531787 0.99183226
vt 0.07465029 0.9913764
vt 0.96020657 0.9731264
vt 0.9798587 0.9770484
vt 0.9798587 0.91504335
vt 0.9712801 0.91527987
vt 0.66023755 0.91453815
vt 0.64184666 0.9143729
vt 0.64924836 0.98161983
vt 0.66023755 0.98232627
vt 0.9249959 0.26968813
vt 0.9525342 0.27178574
vt 0.9525342 0.17845821
vt 0.93807435 0.17901707
vt 0.5019264 0.6140793
vt 0.4366777 0.62432444
vt 0.4838264 0.648052
vt 0.47470522 0.60038024
vt 0.5085516 0.5681559
vt 0.5291476 0.6009809
vt 0.4171481 0.5680815
vt 0.38210773 0.568629
vt 0.40465856 0.63357276
vt 0.40465856 0.50418293
vt 0.4366777 0.5122696
vt 0.4634297 0.5679084
vt 0.47470522 0.5356853
vt 0.4838264 0.48958242
vt 0.5019264 0.52258694
vt 0.5291476 0.536286
vt 0.67831373 0.5987719
vt 0.6874944 0.6285107
vt 0.7215849 0.6130265
vt 0.69547176 0.57377076
vt 0.72891736 0.5681526
vt 0.7376685 0.52296895
vt 0.679739 0.5326999
vt 0.74549353 0.48958248
vt 0.67860234 0.5008188
vt 0.80577624 0.5236942
vt 0.7898749 0.5525106
vt 0.7590587 0.58520854
vt 0.80577624 0.60401976
vt 0.7682394 0.6149473
vt 0.75108147 0.6399485
vt 0.60378116 0.52238154
vt 0.5476599 0.5228578
vt 0.53902674 0.5684233
vt 0.60383004 0.56787324
vt 0.5476668 0.6143445
vt 0.6037881 0.6138681
vt 0.571265 0.6483171
vt 0.6036666 0.6480421
vt 0.65973747 0.6143446
vt 0.635969 0.6483171
vt 0.6684348 0.5684233
vt 0.65973055 0.5228579
vt 0.635957 0.48985755
vt 0.6036546 0.48958242
vt 0.34861684 0.77551734
vt 0.34861684 0.70917475
vt 0.30373192 0.70900893
vt 0.30373192 0.7664634
vt 0.3226118 0.8359337
vt 0.25897884 0.72395325
vt 0.28121114 0.8187854
vt 0.25897884 0.75712454
vt 0.22634912 0.7500032
vt 0.24597645 0.78733265
vt 0.41851377 0.7803159
vt 0.38210773 0.7255797
vt 0.38210773 0.7578646
vt 0.41851377 0.7243968
vt 0.46516657 0.787243
vt 0.46516657 0.72267324
vt 0.5095656 0.7767897
vt 0.41424656 0.66832834
vt 0.5095656 0.7208707
vt 0.46023917 0.6579309
vt 0.5052984 0.6648022
vt 0.66485596 0.7465329
vt 0.6072078 0.76764446
vt 0.6460769 0.78596056
vt 0.6424148 0.7359581
vt 0.5815542 0.71472263
vt 0.53902674 0.7248517
vt 0.56864905 0.78596056
vt 0.5420165 0.65958047
vt 0.5841434 0.6581961
vt 0.62760377 0.7054037
vt 0.66483665 0.6993918
vt 0.62909865 0.672768
vt 0.2959373 0.9605229
vt 0.30397546 0.9618616
vt 0.3109367 0.9574847
vt 0.3149557 0.948565
vt 0.2889762 0.9538269
vt 0.3149557 0.9374924
vt 0.28495705 0.9435682
vt 0.3109367 0.9272337
vt 0.28495705 0.9324956
vt 0.30397546 0.9205377
vt 0.2889762 0.9235759
vt 0.2959373 0.919199
vt 0.88705045 0.9667251
vt 0.89447594 0.96562505
vt 0.9009066 0.9591074
vt 0.88061976 0.96211267
vt 0.90461934 0.94891834
vt 0.87690705 0.9530237
vt 0.90461934 0.93778825
vt 0.87690705 0.9418936
vt 0.9009066 0.92869925
vt 0.88061976 0.9317045
vt 0.89447594 0.9240868
vt 0.88705045 0.9251869
vt 0.15277797 0.92327255
vt 0.14163369 0.9124586
vt 0.12601328 0.91247505
vt 0.15277797 0.9392322
vt 0.114863336 0.92393667
vt 0.14128697 0.95173436
vt 0.11437321 0.9408768
vt 0.12527001 0.95246106
vt 0.75496805 0.9168124
vt 0.74080634 0.91868687
vt 0.74450666 0.9440086
vt 0.7553861 0.9420459
vt 0.76984096 0.91868687
vt 0.74655384 0.96232843
vt 0.76669276 0.9440086
vt 0.75488526 0.95911837
vt 0.7633288 0.96232843
vt 0.9336768 0.325557
vt 0.94145477 0.32847142
vt 0.9409221 0.30632567
vt 0.9370102 0.30542612
vt 0.92499596 0.32526994
vt 0.94145477 0.2816651
vt 0.93284065 0.30475354
vt 0.036723375 0.9030013
vt 0.049099565 0.89237595
vt 0.02679944 0.8792062
vt 0.016779184 0.88297224
vt 0.025501192 0.91191244
vt 0.02098918 0.8579216
vt 0.0049394965 0.88553953
vt 0.013315856 0.85476637
vt 0.031821728 0.83732605
vt 0.005651474 0.8507805
vt 0.028859138 0.8346429
vt 0.049099565 0.81983757
vt 0.02604127 0.8315506
vt 0.84672165 0.1658001
vt 0.86107904 0.16709876
vt 0.8575454 0.1342187
vt 0.84662074 0.13066101
vt 0.83216614 0.16709876
vt 0.83551866 0.1342187
vt 0.9670671 0.08757138
vt 0.97859657 0.08379841
vt 0.97859657 0.05655551
vt 0.97013086 0.056504726
vt 0.9566938 0.08145046
vt 0.9773279 0.02870369
vt 0.96193254 0.05476904
vt 0.97324777 0.028047085
vt 0.97587615 0.004939556
vt 0.9691631 0.027828455
vt 0.09090704 0.82916737
vt 0.07950312 0.8198378
vt 0.058978498 0.8461268
vt 0.070938945 0.8489907
vt 0.103198946 0.8393929
vt 0.059789836 0.8808341
vt 0.08087516 0.85243416
vt 0.06751776 0.87705326
vt 0.08017522 0.89979124
vt 0.07509911 0.87362814
vt 0.08301878 0.89679766
vt 0.103198946 0.9112077
vt 0.085931 0.8939805
vt 0.18960993 0.952055
vt 0.20059925 0.9408748
vt 0.20091212 0.9241805
vt 0.18997478 0.91245854
vt 0.17401743 0.952055
vt 0.16282567 0.9411665
vt 0.17397869 0.9132314
vt 0.16265693 0.9254503
vt 0.01939395 0.96366525
vt 0.034015432 0.96456075
vt 0.03077063 0.94340205
vt 0.019607455 0.9436307
vt 0.0049394667 0.96456075
vt 0.028015733 0.9217918
vt 0.008552998 0.94340205
vt 0.01958856 0.924319
vt 0.011216909 0.9217918
vt 0.54747087 0.9678047
vt 0.5558244 0.9699037
vt 0.55132806 0.9508803
vt 0.54723144 0.9503306
vt 0.53902674 0.9699037
vt 0.5470816 0.92761505
vt 0.5430802 0.9508803
vt 0.91159594 0.62712383
vt 0.92390895 0.61688995
vt 0.9015899 0.6038737
vt 0.8916327 0.60732365
vt 0.9002358 0.63646936
vt 0.8958052 0.5826869
vt 0.8797011 0.61020327
vt 0.88820106 0.579267
vt 0.9066378 0.56232643
vt 0.8804883 0.5754962
vt 0.90371317 0.5595112
vt 0.92390895 0.54508495
vt 0.9008757 0.5565219
vt 0.443319 0.97523427
vt 0.4573766 0.9748831
vt 0.4537295 0.9417684
vt 0.44307873 0.93973994
vt 0.42851818 0.97523427
vt 0.44953674 0.9130981
vt 0.43174425 0.94203615
vt 0.44125146 0.91014314
vt 0.43280992 0.9133017
vt 0.93551195 0.9233805
vt 0.9277731 0.92688555
vt 0.9359753 0.95252275
vt 0.9398502 0.9513829
vt 0.9442771 0.92411035
vt 0.9442771 0.97714907
vt 0.94406164 0.951163
vt 0.7727273 0.8237629
vt 0.7613332 0.81489825
vt 0.7408063 0.84132385
vt 0.7527603 0.8438482
vt 0.78502405 0.8343723
vt 0.7416122 0.8760793
vt 0.7627013 0.8476021
vt 0.7493368 0.87206626
vt 0.76199806 0.89526725
vt 0.7569232 0.86890316
vt 0.7648403 0.89216423
vt 0.78502405 0.9069333
vt 0.76775527 0.8894794
vn -0.76690006 0.07982667 -0.6367826
vn -0.44478565 0.8939084 -0.055619106
vn -0.15318269 0.47860813 0.8645629
vn 0.96241695 0.10231042 0.25156778
vn -0.44478565 0.8939084 -0.055619106
vn 0.5184094 -0.18619852 -0.8346147
vn -0.34342998 0.11978549 -0.925737
vn -0.18668114 0.11601108 -0.94930685
vn 0.7368488 0.57808256 -0.32104462
vn 0.79457706 0.5660523 -0.21611011
vn 0.23505655 0.607385 -0.6960231
vn 0.5789122 0.75016874 0.1108779
vn -0.3262426 0.77748275 -0.4994912
vn -0.714719 0.63226235 0.24764828
vn 0.65916175 0.715314 0.024000436
vn 0.75857484 0.6296354 0.09289442
vn -0.52369624 0.57821965 0.61887544
vn 0.59032166 0.80245477 -0.04008612
vn -0.59087646 0.48511633 0.6364629
vn 0.67844313 0.7124109 0.16650954
vn -0.586258 0.54089713 0.56932634
vn 0.8372255 0.23446053 0.48838493
vn -0.41499585 0.76202255 0.48642796
vn 0.6734776 -0.1160374 0.72822875
vn -0.0016740523 0.93611133 0.33227935
vn 0.62440026 -0.4972269 0.59976363
vn 0.2103759 0.8190828 0.5307675
vn 0.90292853 -0.20623827 0.37707525
vn -0.15722434 0.5872156 0.7940141
vn 0.92634416 0.23497394 0.29440418
vn -0.2718523 0.165431 0.94801307
vn 0.706654 0.6665714 0.23732428
vn -0.108470336 -0.19361156 0.9750633
vn 0.21741651 0.89857 0.3811852
vn 0.15906782 -0.41986638 0.8935375
vn -0.34744865 0.6909969 0.6338791
vn 0.62550795 -0.15553448 0.76455784
vn -0.45170155 0.08243221 0.8883527
vn 0.8773994 0.1678747 0.44943118
vn -0.23021299 -0.381136 0.89539766
vn 0.74007547 0.5033505 0.4460121
vn 0.42800772 -0.62695336 0.65095216
vn 0.23233972 0.6469824 0.726245
vn 0.96241695 0.10231042 0.25156778
vn -0.15318269 0.47860813 0.8645629
vn -0.44478565 0.8939084 -0.055619106
vn 0.2983086 0.1009379 0.92221487
vn 0.30014154 -0.7134699 0.59399104
vn -0.57385325 -0.6508516 0.46304485
vn -0.58068424 0.15832806 0.7818881
vn -0.37503582 0.29845965 0.8250052
vn -0.35277605 -0.6757227 0.5608562
vn -0.62504584 0.6731596 0.3114495
vn -0.50781775 -0.4632364 0.6837419
vn -0.7719715 0.6022265 0.06525089
vn -0.1895552 -0.61696315 0.73691225
vn -0.8609839 0.45219064 0.12757847
vn 0.14550586 -0.13911268 0.9795283
vn -0.8816561 -0.45309082 0.1318771
vn 0.19445258 -0.61156005 0.76693046
vn -0.35277605 -0.6757227 0.5608562
vn -0.57385325 -0.6508516 0.46304485
vn 0.30014154 -0.7134699 0.59399104
vn 0.3283653 -0.6535496 0.5753814
vn -0.50781775 -0.4632364 0.6837419
vn 0.61957395 -0.3157652 0.65209424
vn 0.30280426 -0.8983866 0.12532279
vn -0.2992573 -0.9415971 -0.15305537
vn 0.8244663 -0.32648838 0.44923675
vn -0.9550429 -0.2611859 0.13766485
vn 0.5009327 0.058301717 0.85471094
vn -0.14299199 -0.94051224 0.20577091
vn -0.1895552 -0.61696315 0.73691225
vn 0.6534058 -0.6236371 -0.3720861
vn 0.6293839 -0.7069483 -0.2792757
vn -0.72303975 -0.6419077 -0.18589486
vn 0.14550586 -0.13911268 0.9795283
vn -0.6919417 -0.6373262 -0.31959838
vn 0.8583216 -0.3098687 -0.38414472
vn 0.19445258 -0.61156005 0.76693046
vn 0.76728886 -0.5860642 -0.26037782
vn 0.6745308 -0.47459418 -0.5549947
vn -0.78993654 -0.539074 -0.2857114
vn 0.4351084 -0.22077549 -0.86996454
vn -0.88100463 -0.2528117 -0.37596595
vn 0.45517245 -0.34045988 -0.81219727
vn -0.8268435 0.173356 -0.5276606
vn 0.31771567 -0.51041615 -0.7926591
vn -0.4441269 0.49325067 -0.7395267
vn 0.13165951 -0.8058055 -0.5745
vn -0.34624022 0.43384165 -0.8297334
vn 0.15713723 -0.8232793 -0.5424514
vn -0.74230397 0.2070398 -0.637275
vn 0.4462157 -0.5030033 -0.7401886
vn -0.85370034 -0.21264508 -0.47537127
vn 0.44050384 -0.08071764 -0.89411455
vn -0.68930703 -0.57103056 -0.44584748
vn 0.24211368 0.36472014 -0.89908844
vn -0.4004591 -0.7834387 -0.4752435
vn -0.2507529 0.5943606 -0.7641061
vn -0.021149673 -0.5757221 -0.8173719
vn -0.7935915 0.40110016 -0.45752728
vn 0.31414235 -0.19812122 -0.92847323
vn -0.9310129 -0.22901694 -0.28419396
vn 0.15729596 0.124669194 -0.9796507
vn -0.69264865 -0.68161964 -0.23586579
vn -0.4236529 0.22072856 -0.87851965
vn -0.0075606145 -0.909979 -0.4145854
vn -0.76690006 0.07982667 -0.6367826
vn 0.5184094 -0.18619852 -0.8346147
vn -0.44478565 0.8939084 -0.055619106
vn 0.32058492 0.2865578 0.81989306
vn 0.2983086 0.1009379 0.92221487
vn -0.58068424 0.15832806 0.7818881
vn -0.37503582 0.29845965 0.8250052
vn -0.62504584 0.6731596 0.3114495
vn 0.40771666 0.39621168 -0.8080131
vn -0.7719715 0.6022265 0.06525089
vn 0.0041026324 0.35567075 -0.90527314
vn -0.8609839 0.45219064 0.12757847
vn -0.1805682 -0.49131876 -0.8520568
vn -0.8816561 -0.45309082 0.1318771
vn 0.3283653 -0.6535496 0.5753814
vn 0.30014154 -0.7134699 0.59399104
vn 0.2983086 0.1009379 0.92221487
vn 0.32058492 0.2865578 0.81989306
vn 0.61957395 -0.3157652 0.65209424
vn 0.5789122 0.75016874 0.1108779
vn 0.8244663 -0.32648838 0.44923675
vn 0.79457706 0.5660523 -0.21611011
vn 0.5009327 0.058301717 0.85471094
vn 0.7368488 0.57808256 -0.32104462
vn 0.3475014 -0.3242212 0.8798428
vn 0.89103687 -0.41670576 -0.18002686
vn -0.72303975 -0.6419077 -0.18589486
vn -0.52369624 0.57821965 0.61887544
vn -0.714719 0.63226235 0.24764828
vn -0.6919417 -0.6373262 -0.31959838
vn -0.59087646 0.48511633 0.6364629
vn -0.78993654 -0.539074 -0.2857114
vn -0.586258 0.54089713 0.56932634
vn -0.88100463 -0.2528117 -0.37596595
vn 0.65916175 0.715314 0.024000436
vn 0.75857484 0.6296354 0.09289442
vn 0.6745308 -0.47459418 -0.5549947
vn 0.6534058 -0.6236371 -0.3720861
vn 0.67844313 0.7124109 0.16650954
vn 0.8372255 0.23446053 0.48838493
vn 0.31771567 -0.51041615 -0.7926591
vn 0.45517245 -0.34045988 -0.81219727
vn 0.59032166 0.80245477 -0.04008612
vn 0.4351084 -0.22077549 -0.86996454
vn 0.75857484 0.6296354 0.09289442
vn 0.6745308 -0.47459418 -0.5549947
vn -0.88100463 -0.2528117 -0.37596595
vn -0.41499585 0.76202255 0.48642796
vn -0.586258 0.54089713 0.56932634
vn -0.8268435 0.173356 -0.5276606
vn -0.0016740523 0.93611133 0.33227935
vn -0.4441269 0.49325067 -0.7395267
vn 0.2103759 0.8190828 0.5307675
vn -0.34624022 0.43384165 -0.8297334
vn -0.15722434 0.5872156 0.7940141
vn -0.74230397 0.2070398 -0.637275
vn -0.2718523 0.165431 0.94801307
vn -0.85370034 -0.21264508 -0.47537127
vn 0.8372255 0.23446053 0.48838493
vn 0.13165951 -0.8058055 -0.5745
vn 0.31771567 -0.51041615 -0.7926591
vn 0.6734776 -0.1160374 0.72822875
vn 0.15713723 -0.8232793 -0.5424514
vn 0.62440026 -0.4972269 0.59976363
vn 0.4462157 -0.5030033 -0.7401886
vn 0.90292853 -0.20623827 0.37707525
vn -0.85370034 -0.21264508 -0.47537127
vn -0.108470336 -0.19361156 0.9750633
vn -0.2718523 0.165431 0.94801307
vn -0.68930703 -0.57103056 -0.44584748
vn 0.15906782 -0.41986638 0.8935375
vn -0.4004591 -0.7834387 -0.4752435
vn 0.90292853 -0.20623827 0.37707525
vn 0.44050384 -0.08071764 -0.89411455
vn 0.4462157 -0.5030033 -0.7401886
vn 0.92634416 0.23497394 0.29440418
vn 0.24211368 0.36472014 -0.89908844
vn 0.706654 0.6665714 0.23732428
vn -0.2507529 0.5943606 -0.7641061
vn 0.21741651 0.89857 0.3811852
vn -0.34744865 0.6909969 0.6338791
vn -0.45170155 0.08243221 0.8883527
vn -0.9310129 -0.22901694 -0.28419396
vn -0.7935915 0.40110016 -0.45752728
vn 0.21741651 0.89857 0.3811852
vn -0.2507529 0.5943606 -0.7641061
vn -0.4004591 -0.7834387 -0.4752435
vn 0.62550795 -0.15553448 0.76455784
vn 0.15906782 -0.41986638 0.8935375
vn -0.021149673 -0.5757221 -0.8173719
vn 0.8773994 0.1678747 0.44943118
vn 0.31414235 -0.19812122 -0.92847323
vn -0.45170155 0.08243221 0.8883527
vn -0.69264865 -0.68161964 -0.23586579
vn -0.9310129 -0.22901694 -0.28419396
vn -0.23021299 -0.381136 0.89539766
vn -0.0075606145 -0.909979 -0.4145854
vn 0.42800772 -0.62695336 0.65095216
vn 0.31414235 -0.19812122 -0.92847323
vn 0.74007547 0.5033505 0.4460121
vn 0.8773994 0.1678747 0.44943118
vn 0.15729596 0.124669194 -0.9796507
vn 0.23233972 0.6469824 0.726245
vn -0.4236529 0.22072856 -0.87851965
vn 0.42800772 -0.62695336 0.65095216
vn 0.96241695 0.10231042 0.25156778
vn 0.5184094 -0.18619852 -0.8346147
vn -0.0075606145 -0.909979 -0.4145854
vn -0.4236529 0.22072856 -0.87851965
vn -0.76690006 0.07982667 -0.6367826
vn -0.15318269 0.47860813 0.8645629
vn 0.23233972 0.6469824 0.726245
vn 0.65916175 0.715314 0.024000436
vn 0.6534058 -0.6236371 -0.3720861
vn 0.30280426 -0.8983866 0.12532279
vn 0.23505655 0.607385 -0.6960231
vn -0.72303975 -0.6419077 -0.18589486
vn -0.714719 0.63226235 0.24764828
vn -0.3262426 0.77748275 -0.4994912
vn -0.14299199 -0.94051224 0.20577091
vn -0.9550429 -0.2611859 0.13766485
vn -0.23227528 -0.7276629 -0.64541066
vn -0.18668114 0.11601108 -0.94930685
vn -0.7141198 -0.5717279 0.4039308
vn 0.5009327 0.058301717 0.85471094
vn 0.3475014 -0.3242212 0.8798428
vn -0.2992573 -0.9415971 -0.15305537
vn -0.9550429 -0.2611859 0.13766485
vn -0.18668114 0.11601108 -0.94930685
vn -0.34342998 0.11978549 -0.925737
vn 0.30280426 -0.8983866 0.12532279
vn 0.23505655 0.607385 -0.6960231
vn -0.23227528 -0.7276629 -0.64541066
vn -0.7141198 -0.5717279 0.4039308
vn 0.3475014 -0.3242212 0.8798428
vn 0.89103687 -0.41670576 -0.18002686
vn -0.18668114 0.11601108 -0.94930685
vn -0.23227528 -0.7276629 -0.64541066
vn 0.89103687 -0.41670576 -0.18002686
vn 0.7368488 0.57808256 -0.32104462
vn -0.3262426 0.77748275 -0.4994912
vn 0.6293839 -0.7069483 -0.2792757
vn -0.14299199 -0.94051224 0.20577091
vn 0.40771666 0.39621168 -0.8080131
vn 0.8583216 -0.3098687 -0.38414472
vn 0.0041026324 0.35567075 -0.90527314
vn 0.76728886 -0.5860642 -0.26037782
vn -0.1805682 -0.49131876 -0.8520568
vn 0.76728886 -0.5860642 -0.26037782
vn -0.1805682 -0.49131876 -0.8520568
vn -0.8816561 -0.45309082 0.1318771
vn 0.19445258 -0.61156005 0.76693046
vn 0.2906717 0.8664671 -0.40588748
vn 0.9517437 -0.2002303 -0.23257649
vn 0.60942173 0.7928064 -0.007954568
vn 0.6419622 -0.1259917 -0.75631386
vn 0.30813774 -0.10558644 -0.94546425
vn -0.08504176 0.78088295 -0.6188613
vn -0.05129108 0.72396594 0.6879263
vn -0.7159062 0.24826655 0.6525657
vn -0.46112123 0.7379508 0.49274296
vn 0.072493136 0.2695658 0.9602495
vn 0.3146002 0.8173876 0.48260146
vn 0.57289356 0.36140418 0.73564935
vn 0.60942173 0.7928064 -0.007954568
vn 0.9517437 -0.2002303 -0.23257649
vn 0.7755257 -0.0022730445 0.63131195
vn 0.9067204 -0.15657249 -0.3915904
vn -0.0003624158 -0.5074845 0.8616607
vn 0.57650554 -0.1684535 0.7995403
vn -0.4683313 -0.26184464 0.8438622
vn 0.06388405 -0.09301162 0.9936134
vn -0.8119746 0.14839146 0.56451505
vn 0.4703062 -0.21171257 0.85673213
vn -0.057799503 -0.4851824 0.87250054
vn -0.48234946 -0.34816486 0.8038162
vn 0.83840215 -0.17568214 0.5159627
vn -0.82449526 -0.39663112 0.4035982
vn 0.6215368 -0.48178786 0.61771536
vn 0.6447724 -0.03295961 -0.76366377
vn -0.6263749 0.10063496 -0.7729987
vn -0.6286658 0.2140277 -0.7476438
vn 0.30813774 -0.10558644 -0.94546425
vn -0.47629848 -0.6391611 -0.6034373
vn 0.9067204 -0.15657249 -0.3915904
vn 0.9517437 -0.2002303 -0.23257649
vn 0.21059227 -0.6986646 -0.6834283
vn 0.57650554 -0.1684535 0.7995403
vn -0.0003624158 -0.5074845 0.8616607
vn 0.35206923 -0.9268668 -0.13024846
vn 0.30813774 -0.10558644 -0.94546425
vn 0.6419622 -0.1259917 -0.75631386
vn -0.33640817 -0.74241793 -0.57921106
vn 0.5620638 0.17602593 -0.80803406
vn -0.85050416 -0.042032562 -0.5241569
vn -0.48234946 -0.34816486 0.8038162
vn 0.83840215 -0.17568214 0.5159627
vn 0.37364694 -0.6657368 -0.64589643
vn 0.4703062 -0.21171257 0.85673213
vn -0.057799503 -0.4851824 0.87250054
vn -0.20464134 -0.760446 -0.61631465
vn 0.31600437 -0.6681966 -0.67353874
vn -0.9764216 -0.21522975 -0.016650744
vn -0.4683313 -0.26184464 0.8438622
vn 0.06388405 -0.09301162 0.9936134
vn -0.81134766 -0.4444067 -0.37976003
vn 0.8021674 -0.20168677 -0.56200534
vn -0.6525844 -0.28581777 -0.701742
vn 0.6447724 -0.03295961 -0.76366377
vn 0.6215368 -0.48178786 0.61771536
vn 0.35206923 -0.9268668 -0.13024846
vn 0.30813774 -0.10558644 -0.94546425
vn -0.6525844 -0.28581777 -0.701742
vn -0.84135735 0.024630219 0.5399178
vn 0.47986686 0.06405285 0.875
vn 0.8021674 -0.20168677 -0.56200534
vn 0.31600437 -0.6681966 -0.67353874
vn 0.06388405 -0.09301162 0.9936134
vn -0.52531016 -0.53002894 0.6654826
vn 0.80593175 -0.32054183 0.4974618
vn 0.5120881 0.24054489 -0.824367
vn -0.87506574 0.011123396 -0.48351043
vn -0.7312116 -0.27543145 0.62407315
vn 0.71557176 -0.22484118 0.6613649
vn 0.70090055 0.009960979 -0.7131896
vn -0.6663651 0.0017937943 -0.74562347
vn 0.06388405 -0.09301162 0.9936134
vn 0.47986686 0.06405285 0.875
vn -0.84135735 0.024630219 0.5399178
vn -0.8119746 0.14839146 0.56451505
vn -0.8119746 0.14839146 0.56451505
vn -0.84135735 0.024630219 0.5399178
vn -0.6525844 -0.28581777 -0.701742
vn -0.81134766 -0.4444067 -0.37976003
vn -0.7159062 0.24826655 0.6525657
vn -0.9764216 -0.21522975 -0.016650744
vn -0.46112123 0.7379508 0.49274296
vn -0.79936004 0.5956722 -0.07872626
vn 0.3146002 0.8173876 0.48260146
vn -0.05129108 0.72396594 0.6879263
vn -0.6286658 0.2140277 -0.7476438
vn -0.6263749 0.10063496 -0.7729987
vn -0.82449526 -0.39663112 0.4035982
vn -0.47888187 0.74903953 -0.45783356
vn 0.30813774 -0.10558644 -0.94546425
vn -0.08504176 0.78088295 -0.6188613
vn 0.2906717 0.8664671 -0.40588748
vn 0.60942173 0.7928064 -0.007954568
vn -0.4683313 -0.26184464 0.8438622
vn -0.7312116 -0.27543145 0.62407315
vn -0.6663651 0.0017937943 -0.74562347
vn -0.20464134 -0.760446 -0.61631465
vn 0.37364694 -0.6657368 -0.64589643
vn 0.70090055 0.009960979 -0.7131896
vn 0.71557176 -0.22484118 0.6613649
vn 0.4703062 -0.21171257 0.85673213
vn -0.20464134 -0.760446 -0.61631465
vn -0.6663651 0.0017937943 -0.74562347
vn 0.70090055 0.009960979 -0.7131896
vn 0.37364694 -0.6657368 -0.64589643
vn 0.4703062 -0.21171257 0.85673213
vn 0.71557176 -0.22484118 0.6613649
vn -0.7312116 -0.27543145 0.62407315
vn -0.4683313 -0.26184464 0.8438622
vn 0.21059227 -0.6986646 -0.6834283
vn 0.5620638 0.17602593 -0.80803406
vn 0.83840215 -0.17568214 0.5159627
vn 0.57650554 -0.1684535 0.7995403
vn -0.057799503 -0.4851824 0.87250054
vn -0.48234946 -0.34816486 0.8038162
vn -0.85050416 -0.042032562 -0.5241569
vn -0.33640817 -0.74241793 -0.57921106
vn 0.7755257 -0.0022730445 0.63131195
vn -0.52531016 -0.53002894 0.6654826
vn -0.0003624158 -0.5074845 0.8616607
vn 0.80593175 -0.32054183 0.4974618
vn 0.9067204 -0.15657249 -0.3915904
vn 0.5120881 0.24054489 -0.824367
vn -0.0003624158 -0.5074845 0.8616607
vn -0.52531016 -0.53002894 0.6654826
vn -0.87506574 0.011123396 -0.48351043
vn -0.47629848 -0.6391611 -0.6034373
vn 0.5120881 0.24054489 -0.824367
vn 0.9067204 -0.15657249 -0.3915904
vn 0.35206923 -0.9268668 -0.13024846
vn 0.6215368 -0.48178786 0.61771536
vn -0.82449526 -0.39663112 0.4035982
vn -0.9764216 -0.21522975 -0.016650744
vn 0.318362 0.88403296 0.3422445
vn 0.98324513 0.06294134 -0.1710788
vn 0.7572119 0.4657641 0.4579234
vn 0.55973434 0.79195154 -0.24394687
vn -0.20884182 0.73415947 -0.64606094
vn 0.17674609 0.8143766 -0.55276704
vn -0.5515724 0.7373447 -0.38998815
vn -0.7852916 0.6165101 0.05685863
vn -0.020184621 0.7880464 0.6152846
vn -0.42618483 0.7652661 0.48242554
vn 0.17674609 0.8143766 -0.55276704
vn -0.20884182 0.73415947 -0.64606094
vn -0.4480007 -0.24196723 -0.8606666
vn 0.41456392 0.3133127 -0.8543837
vn 0.55973434 0.79195154 -0.24394687
vn -0.54999334 -0.5730405 -0.6075621
vn 0.98324513 0.06294134 -0.1710788
vn 0.42381707 -0.26032326 -0.8675313
vn 0.7805425 -0.62476724 0.020484
vn -0.5515724 0.7373447 -0.38998815
vn -0.7852916 0.6165101 0.05685863
vn -0.8939227 -0.44631922 -0.04125251
vn -0.6945809 -0.3361045 -0.6360747
vn -0.4480007 -0.24196723 -0.8606666
vn -0.20884182 0.73415947 -0.64606094
vn -0.020184621 0.7880464 0.6152846
vn 0.318362 0.88403296 0.3422445
vn 0.7572119 0.4657641 0.4579234
vn 0.028214544 0.40828705 0.9124172
vn 0.08280448 0.05684063 0.99494326
vn 0.6339313 0.0050611496 0.77337265
vn -0.3412804 -0.03622377 0.9392631
vn -0.42618483 0.7652661 0.48242554
vn 0.18460615 -0.3384732 0.92268956
vn -0.5394046 0.22574323 0.8112229
vn -0.7852916 0.6165101 0.05685863
vn -0.8939227 -0.44631922 -0.04125251
vn -0.38635463 -0.27190074 0.88136244
vn 0.5995331 -0.63148004 0.48994806
vn -0.48800364 -0.76084566 0.425841
vn 0.1717858 -0.5263267 0.8327481
vn -0.64891243 -0.14681038 0.7465649
vn -0.8970445 -0.3779481 -0.22905663
vn 0.62192 -0.7209144 0.30166718
vn -0.4922871 -0.7573919 0.4256881
vn 0.7805425 -0.62476724 0.020484
vn 0.42381707 -0.26032326 -0.8675313
vn -0.54999334 -0.5730405 -0.6075621
vn -0.24475616 -0.8575831 0.45237753
vn 0.7572119 0.4657641 0.4579234
vn 0.98324513 0.06294134 -0.1710788
vn 0.80876917 -0.30311173 -0.5040001
vn 0.8922578 0.30612355 0.33191085
vn 0.57820433 -0.6302192 -0.51817334
vn 0.08280448 0.05684063 0.99494326
vn 0.8511306 -0.27835426 0.44507954
vn -0.14135846 -0.51432306 0.84586585
vn 0.80876917 -0.30311173 -0.5040001
vn 0.98324513 0.06294134 -0.1710788
vn -0.13998705 -0.99015296 0.0008471012
vn -0.27038974 -0.79656696 -0.5407126
vn -0.8939227 -0.44631922 -0.04125251
vn -0.4480007 -0.24196723 -0.8606666
vn -0.6945809 -0.3361045 -0.6360747
vn 0.29692987 -0.75362015 -0.58642054
vn 0.6339313 0.0050611496 0.77337265
vn 0.08280448 0.05684063 0.99494326
vn -0.28387642 -0.80336094 -0.52264524
vn 0.40066695 -0.7048403 -0.5832516
vn -0.3412804 -0.03622377 0.9392631
vn 0.18460615 -0.3384732 0.92268956
vn -0.14979462 -0.7928705 -0.5845355
vn -0.8970445 -0.3779481 -0.22905663
vn 0.48699453 -0.5808874 -0.6507075
vn -0.38635463 -0.27190074 0.88136244
vn 0.1717858 -0.5263267 0.8327481
vn -0.54999334 -0.5730405 -0.6075621
vn -0.4480007 -0.24196723 -0.8606666
vn -0.13998705 -0.99015296 0.0008471012
vn -0.24475616 -0.8575831 0.45237753
vn 0.57820433 -0.6302192 -0.51817334
vn -0.57672036 -0.7965578 -0.18135439
vn -0.14135846 -0.51432306 0.84586585
vn 0.8511306 -0.27835426 0.44507954
vn 0.62192 -0.7209144 0.30166718
vn 0.6574675 -0.3594183 -0.6621587
vn -0.45586315 -0.54533845 -0.70098346
vn -0.4922871 -0.7573919 0.4256881
vn 0.5995331 -0.63148004 0.48994806
vn 0.65777034 -0.3984977 -0.6391142
vn -0.5529358 -0.4942209 -0.6688977
vn -0.48800364 -0.76084566 0.425841
vn 0.79918206 -0.44139695 0.4080159
vn 0.5018941 -0.53927827 -0.6762257
vn -0.5695108 -0.65718186 -0.49373
vn -0.35610566 -0.6978214 0.62147707
vn -0.27038974 -0.79656696 -0.5407126
vn 0.08280448 0.05684063 0.99494326
vn -0.14135846 -0.51432306 0.84586585
vn -0.57672036 -0.7965578 -0.18135439
vn 0.80876917 -0.30311173 -0.5040001
vn -0.27038974 -0.79656696 -0.5407126
vn -0.57672036 -0.7965578 -0.18135439
vn 0.57820433 -0.6302192 -0.51817334
vn 0.6339313 0.0050611496 0.77337265
vn 0.29692987 -0.75362015 -0.58642054
vn 0.5018941 -0.53927827 -0.6762257
vn 0.79918206 -0.44139695 0.4080159
vn -0.3412804 -0.03622377 0.9392631
vn -0.35610566 -0.6978214 0.62147707
vn -0.28387642 -0.80336094 -0.52264524
vn -0.3412804 -0.03622377 0.9392631
vn -0.35610566 -0.6978214 0.62147707
vn -0.5695108 -0.65718186 -0.49373
vn 0.29692987 -0.75362015 -0.58642054
vn -0.28387642 -0.80336094 -0.52264524
vn -0.5695108 -0.65718186 -0.49373
vn 0.5018941 -0.53927827 -0.6762257
vn -0.14979462 -0.7928705 -0.5845355
vn -0.38635463 -0.27190074 0.88136244
vn -0.48800364 -0.76084566 0.425841
vn -0.5529358 -0.4942209 -0.6688977
vn 0.18460615 -0.3384732 0.92268956
vn 0.40066695 -0.7048403 -0.5832516
vn 0.65777034 -0.3984977 -0.6391142
vn 0.5995331 -0.63148004 0.48994806
vn 0.40066695 -0.7048403 -0.5832516
vn -0.14979462 -0.7928705 -0.5845355
vn -0.5529358 -0.4942209 -0.6688977
vn 0.65777034 -0.3984977 -0.6391142
vn 0.1717858 -0.5263267 0.8327481
vn 0.48699453 -0.5808874 -0.6507075
vn 0.6574675 -0.3594183 -0.6621587
vn 0.62192 -0.7209144 0.30166718
vn 0.48699453 -0.5808874 -0.6507075
vn -0.8970445 -0.3779481 -0.22905663
vn -0.45586315 -0.54533845 -0.70098346
vn 0.6574675 -0.3594183 -0.6621587
vn -0.8970445 -0.3779481 -0.22905663
vn -0.64891243 -0.14681038 0.7465649
vn -0.4922871 -0.7573919 0.4256881
vn -0.45586315 -0.54533845 -0.70098346
vn -0.13998705 -0.99015296 0.0008471012
vn 0.98324513 0.06294134 -0.1710788
vn 0.7805425 -0.62476724 0.020484
vn -0.24475616 -0.8575831 0.45237753
vn 0.037817538 0.8080052 -0.5879601
vn 0.64414173 0.7393443 -0.19608986
vn 0.022952795 0.99141717 -0.12870407
vn 0.42250997 0.65190065 -0.629691
vn 0.043344855 0.35632664 -0.93335533
vn -0.34774217 0.66577685 -0.66016376
vn 0.90004647 0.15319361 -0.4079804
vn 0.99905646 -0.017998468 0.039524913
vn 0.7083594 0.6478437 0.2802234
vn 0.70451957 -0.6732975 -0.22432655
vn 0.6407614 -0.42367578 -0.6402526
vn 0.58098745 0.28890684 -0.7609113
vn 0.42041636 -0.06833917 -0.9047538
vn 0.018172152 -0.65334135 -0.7568452
vn 0.034857303 -0.21056724 -0.97695756
vn -0.3498354 -0.054462552 -0.9352265
vn -0.034856126 0.21056727 0.97695756
vn 0.3498357 0.054462433 0.9352264
vn -0.04334496 -0.35632667 0.93335533
vn -0.42041683 0.06833935 0.9047536
vn -0.5809884 -0.28890666 0.7609108
vn -0.90004665 -0.15319349 0.40798008
vn -0.6407614 0.42367584 0.6402525
vn -0.99905646 0.017998446 -0.039524853
vn -0.7045197 0.67329735 0.2243268
vn -0.70835954 -0.6478436 -0.2802232
vn -0.64414173 -0.73934424 0.19608974
vn -0.42250994 -0.6519007 0.6296908
vn -0.02295269 -0.99141717 0.12870413
vn -0.037817135 -0.80800545 0.58795977
vn 0.34774196 -0.66577697 0.66016376
vn 0.022952795 0.99141717 -0.12870407
vn 0.64414173 0.7393443 -0.19608986
vn 0.7083594 0.6478437 0.2802234
vn 0.002715208 0.9341879 0.3567706
vn 0.60301656 0.40126848 0.68945956
vn -0.018172279 0.65334153 0.75684494
vn 0.3498357 0.054462433 0.9352264
vn -0.034856126 0.21056727 0.97695756
vn -0.6407614 0.42367584 0.6402525
vn -0.42041683 0.06833935 0.9047536
vn -0.7045197 0.67329735 0.2243268
vn -0.5996367 0.76175153 -0.24529642
vn -0.34774217 0.66577685 -0.66016376
vn 0.037817538 0.8080052 -0.5879601
vn 0.99905646 -0.017998468 0.039524913
vn 0.70451957 -0.6732975 -0.22432655
vn 0.59963644 -0.7617516 0.24529663
vn 0.85892147 -0.18488224 0.47756913
vn 0.7083594 0.6478437 0.2802234
vn 0.34774196 -0.66577697 0.66016376
vn 0.60301656 0.40126848 0.68945956
vn 0.50831276 -0.30853114 0.8040065
vn -0.04334496 -0.35632667 0.93335533
vn 0.3498357 0.054462433 0.9352264
vn 0.59963644 -0.7617516 0.24529663
vn -0.037817135 -0.80800545 0.58795977
vn 0.34774196 -0.66577697 0.66016376
vn -0.02295269 -0.99141717 0.12870413
vn 0.70451957 -0.6732975 -0.22432655
vn -0.002715208 -0.9341879 -0.3567706
vn 0.6407614 -0.42367578 -0.6402526
vn -0.64414173 -0.73934424 0.19608974
vn 0.018172152 -0.65334135 -0.7568452
vn -0.70835954 -0.6478436 -0.2802232
vn -0.6030171 -0.40126854 -0.6894591
vn 0.034857303 -0.21056724 -0.97695756
vn -0.6030171 -0.40126854 -0.6894591
vn 0.018172152 -0.65334135 -0.7568452
vn -0.3498354 -0.054462552 -0.9352265
vn -0.8589218 0.18488207 -0.47756863
vn -0.99905646 0.017998446 -0.039524853
vn -0.70835954 -0.6478436 -0.2802232
vn -0.7045197 0.67329735 0.2243268
vn -0.5996367 0.76175153 -0.24529642
vn -0.5083136 0.308531 -0.80400604
vn 0.043344855 0.35632664 -0.93335533
vn -0.34774217 0.66577685 -0.66016376
vn 0.05399997 -0.9941019 -0.09404844
vn 0.05399997 -0.9941019 -0.09404844
vn 0.05399997 -0.9941019 -0.09404844
vn 0.05399997 -0.9941019 -0.09404844
vn 0.05399997 -0.9941019 -0.09404844
vn 0.05399997 -0.9941019 -0.09404844
vn 0.05399997 -0.9941019 -0.09404844
vn 0.05399997 -0.9941019 -0.09404844
vn 0.05399997 -0.9941019 -0.09404844
vn 0.05399997 -0.9941019 -0.09404844
vn 0.05399997 -0.9941019 -0.09404844
vn 0.05399997 -0.9941019 -0.09404844
vn -0.40170625 -0.9080709 -0.11848606
vn -0.40170625 -0.9080709 -0.11848606
vn -0.40170625 -0.9080709 -0.11848606
vn -0.40170625 -0.9080709 -0.11848606
vn -0.40170625 -0.9080709 -0.11848606
vn -0.40170625 -0.9080709 -0.11848606
vn -0.40170625 -0.9080709 -0.11848606
vn -0.40170625 -0.9080709 -0.11848606
vn -0.40170625 -0.9080709 -0.11848606
vn -0.40170625 -0.9080709 -0.11848606
vn -0.40170625 -0.9080709 -0.11848606
vn -0.40170625 -0.9080709 -0.11848606
vn -0.066932514 -0.2627199 -0.96254766
vn 0.099895746 0.35473388 -0.9296151
vn -0.0637341 0.8377915 -0.54225737
vn -0.43392527 -0.64166427 -0.63243604
vn -0.4294389 0.90207744 -0.04287377
vn -0.80179316 -0.59318566 -0.07251431
vn -0.7986311 0.49457395 0.34290677
vn -0.946711 -0.11250556 0.3017957
vn -0.946711 -0.11250556 0.3017957
vn -0.7986311 0.49457395 0.34290677
vn -0.41166413 0.48418945 0.7720705
vn -0.6315499 -0.27501523 0.7249215
vn -0.80179316 -0.59318566 -0.07251431
vn -0.6598471 0.64233065 0.38988855
vn -0.41561037 -0.87348163 0.25356984
vn -0.99224097 -0.041830074 0.11708159
vn -0.6638514 -0.73534775 -0.1362526
vn -0.99224097 -0.041830074 0.11708159
vn -0.6598471 0.64233065 0.38988855
vn -0.6630093 0.7468753 0.050949186
vn -0.9101257 0.15012804 -0.38617706
vn -0.6638514 -0.73534775 -0.1362526
vn -0.7274647 -0.24295111 0.641693
vn -0.6668891 -0.5873285 -0.45858902
vn -0.43392527 -0.64166427 -0.63243604
vn -0.80179316 -0.59318566 -0.07251431
vn -0.41561037 -0.87348163 0.25356984
vn 0.11735575 -0.9560489 -0.26869643
vn -0.066932514 -0.2627199 -0.96254766
vn -0.6638514 -0.73534775 -0.1362526
vn 0.66004556 -0.5609862 -0.4996341
vn 0.042415377 -0.9811316 -0.18863028
vn -0.6668891 -0.5873285 -0.45858902
vn 0.66443956 -0.74725807 0.011184424
vn -0.09889602 -0.98486274 -0.14235397
vn -0.7274647 -0.24295111 0.641693
vn 0.42337528 -0.84022284 0.33879
vn 0.099895746 0.35473388 -0.9296151
vn -0.066932514 -0.2627199 -0.96254766
vn 0.66004556 -0.5609862 -0.4996341
vn 0.91855836 0.13869396 -0.37015456
vn -0.0637341 0.8377915 -0.54225737
vn 0.6638497 0.747866 0.00022216141
vn 0.91855836 0.13869396 -0.37015456
vn 0.66004556 -0.5609862 -0.4996341
vn 0.66443956 -0.74725807 0.011184424
vn 0.93911403 -0.124967545 0.32007486
vn 0.6638497 0.747866 0.00022216141
vn 0.42337528 -0.84022284 0.33879
vn 0.66819817 0.54619145 0.50515926
vn 0.6306524 -0.2784773 0.72438085
vn -0.7274647 -0.24295111 0.641693
vn 0.42697302 0.39833546 0.811802
vn -0.4294389 0.90207744 -0.04287377
vn -0.0637341 0.8377915 -0.54225737
vn 0.6638497 0.747866 0.00022216141
vn 0.12272424 0.8911658 0.43676308
vn -0.7986311 0.49457395 0.34290677
vn 0.66819817 0.54619145 0.50515926
vn -0.41166413 0.48418945 0.7720705
vn 0.047757093 0.8568723 0.51331156
vn 0.42697302 0.39833546 0.811802
vn -0.6598471 0.64233065 0.38988855
vn -0.09362185 0.8295239 0.5505677
vn -0.7274647 -0.24295111 0.641693
vn -0.6630093 0.7468753 0.050949186
vn 0.060928494 -0.262965 -0.9628794
vn 0.42817596 -0.6433154 -0.63467336
vn 0.79912835 -0.5962511 -0.07667145
vn 0.9478273 -0.116133675 0.29687744
vn -0.103362665 0.35512313 -0.92908746
vn 0.06412575 0.83754706 -0.5425886
vn 0.8022892 0.49150887 0.33874923
vn 0.43266243 0.90042657 -0.04511121
vn 0.9478273 -0.116133675 0.29687744
vn 0.79912835 -0.5962511 -0.07667145
vn 0.41357207 -0.87506974 0.25141737
vn 0.634248 -0.27743903 0.7216348
vn 0.8022892 0.49150887 0.33874923
vn 0.660314 -0.7378834 -0.13968968
vn 0.41751802 0.48260185 0.76991814
vn 0.99266815 -0.04563095 0.11192796
vn 0.66431767 0.63979465 0.38645154
vn 0.99266815 -0.04563095 0.11192796
vn 0.660314 -0.7378834 -0.13968968
vn 0.6622461 -0.5898722 -0.46203974
vn 0.9086762 0.14664541 -0.3908999
vn 0.66431767 0.63979465 0.38645154
vn 0.72985035 -0.24574196 0.6379099
vn 0.666124 0.74432695 0.047497205
vn 0.43266243 0.90042657 -0.04511121
vn 0.8022892 0.49150887 0.33874923
vn 0.41751802 0.48260185 0.76991814
vn -0.11704111 0.8916248 0.43738568
vn 0.06412575 0.83754706 -0.5425886
vn 0.66431767 0.63979465 0.38645154
vn -0.660971 0.75040245 0.0036620498
vn -0.04180964 0.8570437 0.51354444
vn 0.666124 0.74432695 0.047497205
vn -0.66347003 0.54874164 0.5086158
vn 0.09965779 0.82915443 0.5500645
vn 0.72985035 -0.24574196 0.6379099
vn -0.42122495 0.3999603 0.8140031
vn -0.103362665 0.35512313 -0.92908746
vn 0.06412575 0.83754706 -0.5425886
vn -0.660971 0.75040245 0.0036620498
vn -0.91992986 0.14221476 -0.3653819
vn 0.060928494 -0.262965 -0.9628794
vn -0.66347003 0.54874164 0.5086158
vn -0.6647738 -0.55844975 -0.4961949
vn -0.9379117 -0.12137267 0.32494688
vn -0.6672288 -0.7447089 0.014640719
vn -0.9379117 -0.12137267 0.32494688
vn -0.66347003 0.54874164 0.5086158
vn -0.42122495 0.3999603 0.8140031
vn -0.62794626 -0.2760667 0.7276473
vn -0.6672288 -0.7447089 0.014640719
vn 0.72985035 -0.24574196 0.6379099
vn -0.4248239 -0.8385996 0.34099135
vn 0.42817596 -0.6433154 -0.63467336
vn 0.060928494 -0.262965 -0.9628794
vn -0.6647738 -0.55844975 -0.4961949
vn -0.12240946 -0.95558983 -0.26807392
vn 0.79912835 -0.5962511 -0.07667145
vn -0.6672288 -0.7447089 0.014640719
vn 0.41357207 -0.87506974 0.25141737
vn -0.047150515 -0.9809602 -0.18839769
vn -0.4248239 -0.8385996 0.34099135
vn 0.660314 -0.7378834 -0.13968968
vn 0.09438546 -0.98523223 -0.14285816
vn 0.72985035 -0.24574196 0.6379099
vn 0.6622461 -0.5898722 -0.46203974
g 0.0333_0
f 3/3/3 2/2/2 1/1/1
f 6/6/6 5/5/5 4/4/4
f 9/9/9 8/8/8 7/7/7
f 10/10/10 9/9/9 7/7/7
f 10/10/10 7/7/7 11/11/11
f 12/12/12 10/10/10 11/11/11
f 12/12/12 11/11/11 13/13/13
f 13/13/13 11/11/11 14/14/14
f 11/11/11 15/15/15 14/14/14
f 15/15/15 16/16/16 14/14/14
f 16/16/16 17/17/17 14/14/14
f 16/16/16 18/18/18 17/17/17
f 18/18/18 19/19/19 17/17/17
f 18/18/18 20/20/20 19/19/19
f 20/20/20 21/21/21 19/19/19
f 20/20/20 22/22/22 21/21/21
f 22/22/22 23/23/23 21/21/21
f 22/22/22 24/24/24 23/23/23
f 24/24/24 25/25/25 23/23/23
f 24/24/24 26/26/26 25/25/25
f 26/26/26 27/27/27 25/25/25
f 26/26/26 28/28/28 27/27/27
f 28/28/28 29/29/29 27/27/27
f 28/28/28 30/30/30 29/29/29
f 30/30/30 31/31/31 29/29/29
f 30/30/30 32/32/32 31/31/31
f 32/32/32 33/33/33 31/31/31
f 32/32/32 34/34/34 33/33/33
f 34/34/34 35/35/35 33/33/33
f 34/34/34 36/36/36 35/35/35
f 36/36/36 37/37/37 35/35/35
f 36/36/36 38/38/38 37/37/37
f 38/38/38 39/39/39 37/37/37
f 38/38/38 40/40/40 39/39/39
f 40/40/40 41/41/41 39/39/39
f 40/40/40 42/42/42 41/41/41
f 42/42/42 43/43/43 41/41/41
f 42/42/42 44/44/44 43/43/43
f 44/44/44 45/45/45 43/43/43
f 44/44/44 46/46/46 45/45/45
f 49/49/49 48/48/48 47/47/47
f 50/50/50 49/49/49 47/47/47
f 49/49/49 50/50/50 51/51/51
f 52/52/52 49/49/49 51/51/51
f 52/52/52 51/51/51 53/53/53
f 54/54/54 52/52/52 53/53/53
f 53/53/53 55/55/55 54/54/54
f 55/55/55 56/56/56 54/54/54
f 55/55/55 57/57/57 56/56/56
f 57/57/57 58/58/58 56/56/56
f 57/57/57 59/59/59 58/58/58
f 59/59/59 60/60/60 58/58/58
f 63/63/63 62/62/62 61/61/61
f 64/64/64 63/63/63 61/61/61
f 64/64/64 61/61/61 65/65/65
f 66/66/66 64/64/64 65/65/65
f 66/66/66 65/65/65 67/67/67
f 67/67/67 68/68/68 66/66/66
f 68/68/68 69/69/69 66/66/66
f 68/68/68 70/70/70 69/69/69
f 70/70/70 71/71/71 69/69/69
f 65/65/65 72/72/72 67/67/67
f 65/65/65 73/73/73 72/72/72
f 67/67/67 72/72/72 74/74/74
f 73/73/73 75/75/75 72/72/72
f 72/72/72 76/76/76 74/74/74
f 73/73/73 77/77/77 75/75/75
f 76/76/76 78/78/78 74/74/74
f 77/77/77 79/79/79 75/75/75
f 77/77/77 80/80/80 79/79/79
f 80/80/80 81/81/81 79/79/79
f 78/78/78 82/82/82 74/74/74
f 78/78/78 83/83/83 82/82/82
f 83/83/83 84/84/84 82/82/82
f 83/83/83 85/85/85 84/84/84
f 85/85/85 86/86/86 84/84/84
f 85/85/85 87/87/87 86/86/86
f 87/87/87 88/88/88 86/86/86
f 87/87/87 89/89/89 88/88/88
f 89/89/89 90/90/90 88/88/88
f 89/89/89 91/91/91 90/90/90
f 91/91/91 92/92/92 90/90/90
f 91/91/91 93/93/93 92/92/92
f 93/93/93 94/94/94 92/92/92
f 93/93/93 95/95/95 94/94/94
f 95/95/95 96/96/96 94/94/94
f 95/95/95 97/97/97 96/96/96
f 97/97/97 98/98/98 96/96/96
f 97/97/97 99/99/99 98/98/98
f 99/99/99 100/100/100 98/98/98
f 99/99/99 101/101/101 100/100/100
f 101/101/101 102/102/102 100/100/100
f 101/101/101 103/103/103 102/102/102
f 103/103/103 104/104/104 102/102/102
f 103/103/103 105/105/105 104/104/104
f 105/105/105 106/106/106 104/104/104
f 105/105/105 107/107/107 106/106/106
f 107/107/107 108/108/108 106/106/106
f 107/107/107 109/109/109 108/108/108
f 109/109/109 110/110/110 108/108/108
f 109/109/109 111/111/111 110/110/110
f 114/114/114 113/113/113 112/112/112
f 115/115/115 114/114/114 112/112/112
f 115/115/115 112/112/112 12/12/12
f 116/116/116 115/115/115 12/12/12
f 116/116/116 12/12/12 13/13/13
f 13/13/13 117/117/117 116/116/116
f 117/117/117 118/118/118 116/116/116
f 117/117/117 119/119/119 118/118/118
f 119/119/119 120/120/120 118/118/118
f 119/119/119 121/121/121 120/120/120
f 121/121/121 122/122/122 120/120/120
f 125/125/125 124/124/124 123/123/123
f 126/126/126 125/125/125 123/123/123
f 126/126/126 123/123/123 127/127/127
f 128/128/128 126/126/126 127/127/127
f 127/127/127 129/129/129 128/128/128
f 129/129/129 130/130/130 128/128/128
f 129/129/129 131/131/131 130/130/130
f 131/131/131 132/132/132 130/130/130
f 131/131/131 133/133/133 132/132/132
f 133/133/133 134/134/134 132/132/132
f 137/137/137 136/136/136 135/135/135
f 136/136/136 138/138/138 135/135/135
f 136/136/136 139/139/139 138/138/138
f 139/139/139 140/140/140 138/138/138
f 139/139/139 141/141/141 140/140/140
f 141/141/141 142/142/142 140/140/140
f 145/145/145 144/144/144 143/143/143
f 146/146/146 145/145/145 143/143/143
f 149/149/149 148/148/148 147/147/147
f 150/150/150 149/149/149 147/147/147
f 150/150/150 147/147/147 151/151/151
f 152/152/152 150/150/150 151/151/151
f 152/152/152 151/151/151 153/153/153
f 154/154/154 152/152/152 153/153/153
f 157/157/157 156/156/156 155/155/155
f 156/156/156 158/158/158 155/155/155
f 156/156/156 159/159/159 158/158/158
f 159/159/159 160/160/160 158/158/158
f 159/159/159 161/161/161 160/160/160
f 161/161/161 162/162/162 160/160/160
f 161/161/161 163/163/163 162/162/162
f 163/163/163 164/164/164 162/162/162
f 163/163/163 165/165/165 164/164/164
f 165/165/165 166/166/166 164/164/164
f 169/169/169 168/168/168 167/167/167
f 168/168/168 170/170/170 167/167/167
f 168/168/168 171/171/171 170/170/170
f 171/171/171 172/172/172 170/170/170
f 171/171/171 173/173/173 172/172/172
f 173/173/173 174/174/174 172/172/172
f 177/177/177 176/176/176 175/175/175
f 176/176/176 178/178/178 175/175/175
f 176/176/176 179/179/179 178/178/178
f 179/179/179 180/180/180 178/178/178
f 183/183/183 182/182/182 181/181/181
f 182/182/182 184/184/184 181/181/181
f 182/182/182 185/185/185 184/184/184
f 185/185/185 186/186/186 184/184/184
f 185/185/185 187/187/187 186/186/186
f 187/187/187 188/188/188 186/186/186
f 191/191/191 190/190/190 189/189/189
f 192/192/192 191/191/191 189/189/189
f 192/192/192 189/189/189 193/193/193
f 194/194/194 192/192/192 193/193/193
f 197/197/197 196/196/196 195/195/195
f 196/196/196 198/198/198 195/195/195
f 196/196/196 199/199/199 198/198/198
f 199/199/199 200/200/200 198/198/198
f 203/203/203 202/202/202 201/201/201
f 202/202/202 204/204/204 201/201/201
f 202/202/202 205/205/205 204/204/204
f 205/205/205 206/206/206 204/204/204
f 209/209/209 208/208/208 207/207/207
f 208/208/208 210/210/210 207/207/207
f 208/208/208 211/211/211 210/210/210
f 211/211/211 212/212/212 210/210/210
f 215/215/215 214/214/214 213/213/213
f 216/216/216 215/215/215 213/213/213
f 219/219/219 218/218/218 217/217/217
f 220/220/220 219/219/219 217/217/217
f 223/223/223 222/222/222 221/221/221
f 224/224/224 223/223/223 221/221/221
f 227/227/227 226/226/226 225/225/225
f 228/228/228 227/227/227 225/225/225
f 231/231/231 230/230/230 229/229/229
f 230/230/230 232/232/232 229/229/229
f 229/229/229 232/232/232 233/233/233
f 232/232/232 234/234/234 233/233/233
f 237/237/237 236/236/236 235/235/235
f 238/238/238 237/237/237 235/235/235
f 238/238/238 235/235/235 239/239/239
f 240/240/240 238/238/238 239/239/239
f 243/243/243 242/242/242 241/241/241
f 244/244/244 243/243/243 241/241/241
f 247/247/247 246/246/246 245/245/245
f 248/248/248 247/247/247 245/245/245
f 251/251/251 250/250/250 249/249/249
f 250/250/250 252/252/252 249/249/249
f 250/250/250 253/253/253 252/252/252
f 253/253/253 254/254/254 252/252/252
f 253/253/253 255/255/255 254/254/254
f 255/255/255 256/256/256 254/254/254
f 259/259/259 258/258/258 257/257/257
f 260/260/260 259/259/259 257/257/257
f 263/263/263 262/262/262 261/261/261
f 262/262/262 264/264/264 261/261/261
f 261/261/261 264/264/264 265/265/265
f 266/266/266 261/261/261 265/265/265
f 269/269/269 268/268/268 267/267/267
f 268/268/268 270/270/270 267/267/267
f 267/267/267 270/270/270 271/271/271
f 270/270/270 272/272/272 271/271/271
f 271/271/271 272/272/272 273/273/273
f 272/272/272 274/274/274 273/273/273
f 272/272/272 275/275/275 274/274/274
f 275/275/275 276/276/276 274/274/274
f 277/277/277 275/275/275 272/272/272
f 278/278/278 277/277/277 272/272/272
f 278/278/278 272/272/272 270/270/270
f 279/279/279 270/270/270 268/268/268
f 268/268/268 280/280/280 279/279/279
f 268/268/268 281/281/281 280/280/280
f 270/270/270 279/279/279 282/282/282
f 282/282/282 283/283/283 270/270/270
f 283/283/283 278/278/278 270/270/270
f 283/283/283 284/284/284 278/278/278
f 284/284/284 285/285/285 278/278/278
f 288/288/288 287/287/287 286/286/286
f 289/289/289 288/288/288 286/286/286
f 289/289/289 290/290/290 288/288/288
f 290/290/290 291/291/291 288/288/288
f 294/294/294 293/293/293 292/292/292
f 292/292/292 295/295/295 294/294/294
f 295/295/295 292/292/292 296/296/296
f 292/292/292 297/297/297 296/296/296
f 295/295/295 298/298/298 294/294/294
f 294/294/294 298/298/298 299/299/299
f 300/300/300 294/294/294 299/299/299
f 295/295/295 301/301/301 298/298/298
f 295/295/295 302/302/302 301/301/301
f 302/302/302 303/303/303 301/301/301
f 303/303/303 302/302/302 304/304/304
f 302/302/302 305/305/305 304/304/304
f 301/301/301 306/306/306 298/298/298
f 306/306/306 301/301/301 307/307/307
f 301/301/301 308/308/308 307/307/307
f 306/306/306 309/309/309 298/298/298
f 309/309/309 310/310/310 298/298/298
f 310/310/310 311/311/311 298/298/298
f 310/310/310 309/309/309 312/312/312
f 313/313/313 310/310/310 312/312/312
f 310/310/310 314/314/314 311/311/311
f 310/310/310 315/315/315 314/314/314
f 315/315/315 316/316/316 314/314/314
f 319/319/319 318/318/318 317/317/317
f 320/320/320 319/319/319 317/317/317
f 323/323/323 322/322/322 321/321/321
f 324/324/324 323/323/323 321/321/321
f 323/323/323 324/324/324 325/325/325
f 326/326/326 323/323/323 325/325/325
f 329/329/329 328/328/328 327/327/327
f 330/330/330 329/329/329 327/327/327
f 333/333/333 332/332/332 331/331/331
f 334/334/334 333/333/333 331/331/331
f 337/337/337 336/336/336 335/335/335
f 338/338/338 337/337/337 335/335/335
f 341/341/341 340/340/340 339/339/339
f 342/342/342 341/341/341 339/339/339
f 342/342/342 339/339/339 343/343/343
f 344/344/344 342/342/342 343/343/343
f 344/344/344 343/343/343 345/345/345
f 346/346/346 344/344/344 345/345/345
f 346/346/346 345/345/345 347/347/347
f 345/345/345 348/348/348 347/347/347
f 349/349/349 344/344/344 346/346/346
f 349/349/349 350/350/350 344/344/344
f 350/350/350 351/351/351 344/344/344
f 352/352/352 349/349/349 346/346/346
f 352/352/352 346/346/346 347/347/347
f 353/353/353 349/349/349 352/352/352
f 354/354/354 353/353/353 352/352/352
f 354/354/354 352/352/352 347/347/347
f 355/355/355 354/354/354 347/347/347
f 347/347/347 356/356/356 355/355/355
f 359/359/359 358/358/358 357/357/357
f 360/360/360 359/359/359 357/357/357
f 363/363/363 362/362/362 361/361/361
f 364/364/364 363/363/363 361/361/361
f 367/367/367 366/366/366 365/365/365
f 368/368/368 367/367/367 365/365/365
f 371/371/371 370/370/370 369/369/369
f 372/372/372 371/371/371 369/369/369
f 375/375/375 374/374/374 373/373/373
f 376/376/376 375/375/375 373/373/373
f 379/379/379 378/378/378 377/377/377
f 380/380/380 379/379/379 377/377/377
f 383/383/383 382/382/382 381/381/381
f 382/382/382 384/384/384 381/381/381
f 381/381/381 384/384/384 385/385/385
f 384/384/384 386/386/386 385/385/385
f 389/389/389 388/388/388 387/387/387
f 390/390/390 389/389/389 387/387/387
f 391/391/391 389/389/389 390/390/390
f 392/392/392 391/391/391 390/390/390
f 395/395/395 394/394/394 393/393/393
f 396/396/396 395/395/395 393/393/393
f 399/399/399 398/398/398 397/397/397
f 398/398/398 400/400/400 397/397/397
f 401/401/401 397/397/397 400/400/400
f 400/400/400 402/402/402 401/401/401
f 401/401/401 403/403/403 397/397/397
f 403/403/403 404/404/404 397/397/397
f 404/404/404 405/405/405 397/397/397
f 404/404/404 406/406/406 405/405/405
f 409/409/409 408/408/408 407/407/407
f 410/410/410 409/409/409 407/407/407
f 410/410/410 407/407/407 411/411/411
f 409/409/409 410/410/410 412/412/412
f 413/413/413 410/410/410 411/411/411
f 410/410/410 414/414/414 412/412/412
f 414/414/414 410/410/410 413/413/413
f 415/415/415 414/414/414 413/413/413
f 418/418/418 417/417/417 416/416/416
f 419/419/419 418/418/418 416/416/416
f 419/419/419 416/416/416 420/420/420
f 416/416/416 421/421/421 420/420/420
f 424/424/424 423/423/423 422/422/422
f 425/425/425 424/424/424 422/422/422
f 426/426/426 424/424/424 425/425/425
f 427/427/427 426/426/426 425/425/425
f 428/428/428 427/427/427 425/425/425
f 425/425/425 422/422/422 429/429/429
f 425/425/425 430/430/430 428/428/428
f 431/431/431 425/425/425 429/429/429
f 431/431/431 429/429/429 432/432/432
f 433/433/433 431/431/431 432/432/432
f 434/434/434 430/430/430 425/425/425
f 431/431/431 434/434/434 425/425/425
f 435/435/435 430/430/430 434/434/434
f 436/436/436 435/435/435 434/434/434
f 431/431/431 437/437/437 434/434/434
f 438/438/438 431/431/431 433/433/433
f 438/438/438 437/437/437 431/431/431
f 439/439/439 438/438/438 433/433/433
f 440/440/440 437/437/437 438/438/438
f 441/441/441 440/440/440 438/438/438
f 444/444/444 443/443/443 442/442/442
f 445/445/445 444/444/444 442/442/442
f 448/448/448 447/447/447 446/446/446
f 449/449/449 448/448/448 446/446/446
f 450/450/450 448/448/448 449/449/449
f 451/451/451 449/449/449 446/446/446
f 452/452/452 450/450/450 449/449/449
f 452/452/452 449/449/449 451/451/451
f 453/453/453 452/452/452 451/451/451
f 456/456/456 455/455/455 454/454/454
f 454/454/454 457/457/457 456/456/456
f 457/457/457 458/458/458 456/456/456
f 456/456/456 458/458/458 459/459/459
f 458/458/458 460/460/460 459/459/459
f 457/457/457 461/461/461 458/458/458
f 461/461/461 457/457/457 462/462/462
f 457/457/457 463/463/463 462/462/462
f 461/461/461 464/464/464 458/458/458
f 464/464/464 465/465/465 458/458/458
f 465/465/465 464/464/464 466/466/466
f 467/467/467 465/465/465 466/466/466
f 465/465/465 468/468/468 458/458/458
f 468/468/468 469/469/469 458/458/458
f 468/468/468 470/470/470 469/469/469
f 470/470/470 468/468/468 471/471/471
f 472/472/472 470/470/470 471/471/471
f 475/475/475 474/474/474 473/473/473
f 476/476/476 475/475/475 473/473/473
f 479/479/479 478/478/478 477/477/477
f 480/480/480 479/479/479 477/477/477
f 483/483/483 482/482/482 481/481/481
f 484/484/484 483/483/483 481/481/481
f 487/487/487 486/486/486 485/485/485
f 488/488/488 487/487/487 485/485/485
f 491/491/491 490/490/490 489/489/489
f 492/492/492 491/491/491 489/489/489
f 495/495/495 494/494/494 493/493/493
f 496/496/496 495/495/495 493/493/493
f 499/499/499 498/498/498 497/497/497
f 500/500/500 499/499/499 497/497/497
f 503/503/503 502/502/502 501/501/501
f 504/504/504 503/503/503 501/501/501
f 504/504/504 501/501/501 505/505/505
f 506/506/506 504/504/504 505/505/505
f 509/509/509 508/508/508 507/507/507
f 510/510/510 509/509/509 507/507/507
f 513/513/513 512/512/512 511/511/511
f 514/514/514 513/513/513 511/511/511
f 517/517/517 516/516/516 515/515/515
f 518/518/518 517/517/517 515/515/515
f 521/521/521 520/520/520 519/519/519
f 522/522/522 521/521/521 519/519/519
f 525/525/525 524/524/524 523/523/523
f 526/526/526 525/525/525 523/523/523
f 529/529/529 528/528/528 527/527/527
f 530/530/530 529/529/529 527/527/527
f 533/533/533 532/532/532 531/531/531
f 534/534/534 533/533/533 531/531/531
f 537/537/537 536/536/536 535/535/535
f 538/538/538 537/537/537 535/535/535
f 541/541/541 540/540/540 539/539/539
f 542/542/542 541/541/541 539/539/539
f 545/545/545 544/544/544 543/543/543
f 544/544/544 546/546/546 543/543/543
f 543/543/543 546/546/546 547/547/547
f 548/548/548 543/543/543 547/547/547
f 544/544/544 549/549/549 546/546/546
f 550/550/550 549/549/549 544/544/544
f 551/551/551 550/550/550 544/544/544
f 550/550/550 552/552/552 549/549/549
f 552/552/552 553/553/553 549/549/549
f 549/549/549 554/554/554 546/546/546
f 549/549/549 553/553/553 554/554/554
f 546/546/546 554/554/554 547/547/547
f 553/553/553 555/555/555 554/554/554
f 554/554/554 555/555/555 547/547/547
f 553/553/553 556/556/556 555/555/555
f 556/556/556 557/557/557 555/555/555
f 555/555/555 557/557/557 547/547/547
f 557/557/557 558/558/558 547/547/547
f 561/561/561 560/560/560 559/559/559
f 561/561/561 559/559/559 562/562/562
f 561/561/561 562/562/562 563/563/563
f 563/563/563 562/562/562 564/564/564
f 562/562/562 565/565/565 564/564/564
f 564/564/564 565/565/565 566/566/566
f 565/565/565 567/567/567 566/566/566
f 564/564/564 566/566/566 568/568/568
f 569/569/569 564/564/564 568/568/568
f 563/563/563 564/564/564 569/569/569
f 570/570/570 563/563/563 569/569/569
f 561/561/561 563/563/563 570/570/570
f 570/570/570 569/569/569 571/571/571
f 572/572/572 570/570/570 571/571/571
f 561/561/561 570/570/570 572/572/572
f 561/561/561 572/572/572 573/573/573
f 576/576/576 575/575/575 574/574/574
f 577/577/577 576/576/576 574/574/574
f 578/578/578 576/576/576 577/577/577
f 579/579/579 578/578/578 577/577/577
f 580/580/580 578/578/578 579/579/579
f 581/581/581 580/580/580 579/579/579
f 581/581/581 579/579/579 582/582/582
f 583/583/583 581/581/581 582/582/582
f 582/582/582 579/579/579 584/584/584
f 579/579/579 577/577/577 584/584/584
f 584/584/584 577/577/577 585/585/585
f 577/577/577 574/574/574 585/585/585
f 585/585/585 574/574/574 586/586/586
f 574/574/574 587/587/587 586/586/586
f 590/590/590 589/589/589 588/588/588
f 591/591/591 590/590/590 588/588/588
f 591/591/591 588/588/588 592/592/592
f 593/593/593 590/590/590 591/591/591
f 594/594/594 591/591/591 592/592/592
f 595/595/595 593/593/593 591/591/591
f 595/595/595 591/591/591 594/594/594
f 596/596/596 593/593/593 595/595/595
f 597/597/597 595/595/595 594/594/594
f 596/596/596 595/595/595 597/597/597
f 600/600/600 599/599/599 598/598/598
f 599/599/599 601/601/601 598/598/598
f 598/598/598 601/601/601 602/602/602
f 601/601/601 603/603/603 602/602/602
f 602/602/602 603/603/603 604/604/604
f 601/601/601 605/605/605 603/603/603
f 603/603/603 606/606/606 604/604/604
f 605/605/605 607/607/607 603/603/603
f 603/603/603 607/607/607 606/606/606
f 607/607/607 608/608/608 606/606/606
f 611/611/611 610/610/610 609/609/609
f 610/610/610 612/612/612 609/609/609
f 610/610/610 613/613/613 612/612/612
f 614/614/614 613/613/613 610/610/610
f 615/615/615 614/614/614 610/610/610
f 614/614/614 616/616/616 613/613/613
f 616/616/616 617/617/617 613/613/613
f 613/613/613 618/618/618 612/612/612
f 613/613/613 617/617/617 618/618/618
f 612/612/612 618/618/618 619/619/619
f 617/617/617 620/620/620 618/618/618
f 618/618/618 620/620/620 619/619/619
f 623/623/623 622/622/622 621/621/621
f 621/621/621 624/624/624 623/623/623
f 621/621/621 625/625/625 624/624/624
f 625/625/625 626/626/626 624/624/624
f 625/625/625 627/627/627 626/626/626
f 627/627/627 628/628/628 626/626/626
f 627/627/627 629/629/629 628/628/628
f 629/629/629 630/630/630 628/628/628
f 629/629/629 631/631/631 630/630/630
f 631/631/631 632/632/632 630/630/630
f 635/635/635 634/634/634 633/633/633
f 633/633/633 636/636/636 635/635/635
f 636/636/636 637/637/637 635/635/635
f 636/636/636 638/638/638 637/637/637
f 638/638/638 639/639/639 637/637/637
f 638/638/638 640/640/640 639/639/639
f 640/640/640 641/641/641 639/639/639
f 640/640/640 642/642/642 641/641/641
f 642/642/642 643/643/643 641/641/641
f 642/642/642 644/644/644 643/643/643
f 647/647/647 646/646/646 645/645/645
f 645/645/645 648/648/648 647/647/647
f 648/648/648 649/649/649 647/647/647
f 648/648/648 650/650/650 649/649/649
f 650/650/650 651/651/651 649/649/649
f 650/650/650 652/652/652 651/651/651
f 655/655/655 654/654/654 653/653/653
f 656/656/656 655/655/655 653/653/653
f 656/656/656 653/653/653 657/657/657
f 658/658/658 655/655/655 656/656/656
f 659/659/659 656/656/656 657/657/657
f 660/660/660 658/658/658 656/656/656
f 660/660/660 656/656/656 659/659/659
f 661/661/661 660/660/660 659/659/659
f 664/664/664 663/663/663 662/662/662
f 665/665/665 664/664/664 662/662/662
f 665/665/665 662/662/662 666/666/666
f 667/667/667 664/664/664 665/665/665
f 668/668/668 665/665/665 666/666/666
f 667/667/667 665/665/665 668/668/668
f 671/671/671 670/670/670 669/669/669
f 672/672/672 671/671/671 669/669/669
f 672/672/672 669/669/669 673/673/673
f 674/674/674 671/671/671 672/672/672
f 675/675/675 672/672/672 673/673/673
f 676/676/676 674/674/674 672/672/672
f 676/676/676 672/672/672 675/675/675
f 677/677/677 674/674/674 676/676/676
f 678/678/678 676/676/676 675/675/675
f 679/679/679 677/677/677 676/676/676
f 679/679/679 676/676/676 678/678/678
f 680/680/680 677/677/677 679/679/679
f 681/681/681 679/679/679 678/678/678
f 680/680/680 679/679/679 681/681/681
f 684/684/684 683/683/683 682/682/682
f 685/685/685 684/684/684 682/682/682
f 685/685/685 682/682/682 686/686/686
f 687/687/687 685/685/685 686/686/686
f 690/690/690 689/689/689 688/688/688
f 691/691/691 690/690/690 688/688/688
f 691/691/691 688/688/688 692/692/692
f 693/693/693 690/690/690 691/691/691
f 694/694/694 691/691/691 692/692/692
f 695/695/695 693/693/693 691/691/691
f 695/695/695 691/691/691 694/694/694
f 696/696/696 693/693/693 695/695/695
f 697/697/697 695/695/695 694/694/694
f 696/696/696 695/695/695 697/697/697
f 700/700/700 699/699/699 698/698/698
f 701/701/701 700/700/700 698/698/698
f 701/701/701 698/698/698 702/702/702
f 703/703/703 700/700/700 701/701/701
f 704/704/704 701/701/701 702/702/702
f 705/705/705 703/703/703 701/701/701
f 705/705/705 701/701/701 704/704/704
f 706/706/706 703/703/703 705/705/705
f 707/707/707 705/705/705 704/704/704
f 708/708/708 706/706/706 705/705/705
f 708/708/708 705/705/705 707/707/707
f 709/709/709 706/706/706 708/708/708
f 710/710/710 708/708/708 707/707/707
f 709/709/709 708/708/708 710/710/710
f 713/713/713 712/712/712 711/711/711
f 711/711/711 714/714/714 713/713/713
f 711/711/711 715/715/715 714/714/714
f 715/715/715 716/716/716 714/714/714
f 716/716/716 717/717/717 714/714/714
f 716/716/716 718/718/718 717/717/717
f 721/721/721 720/720/720 719/719/719
f 722/722/722 721/721/721 719/719/719
f 722/722/722 719/719/719 723/723/723
f 724/724/724 721/721/721 722/722/722
f 725/725/725 722/722/722 723/723/723
f 726/726/726 724/724/724 722/722/722
f 726/726/726 722/722/722 725/725/725
f 727/727/727 726/726/726 725/725/725
f 730/730/730 729/729/729 728/728/728
f 731/731/731 730/730/730 728/728/728
f 731/731/731 728/728/728 732/732/732
f 733/733/733 730/730/730 731/731/731
f 734/734/734 731/731/731 732/732/732
f 733/733/733 731/731/731 734/734/734
f 737/737/737 736/736/736 735/735/735
f 738/738/738 737/737/737 735/735/735
f 738/738/738 735/735/735 739/739/739
f 740/740/740 737/737/737 738/738/738
f 741/741/741 738/738/738 739/739/739
f 742/742/742 740/740/740 738/738/738
f 742/742/742 738/738/738 741/741/741
f 743/743/743 740/740/740 742/742/742
f 744/744/744 742/742/742 741/741/741
f 745/745/745 743/743/743 742/742/742
f 745/745/745 742/742/742 744/744/744
f 746/746/746 743/743/743 745/745/745
f 747/747/747 745/745/745 744/744/744
f 746/746/746 745/745/745 747/747/747
f 750/750/750 749/749/749 748/748/748
f 751/751/751 750/750/750 748/748/748
f 751/751/751 748/748/748 752/752/752
f 753/753/753 750/750/750 751/751/751
f 754/754/754 751/751/751 752/752/752
f 755/755/755 753/753/753 751/751/751
f 755/755/755 751/751/751 754/754/754
f 756/756/756 755/755/755 754/754/754
f 759/759/759 758/758/758 757/757/757
f 760/760/760 759/759/759 757/757/757
f 760/760/760 757/757/757 761/761/761
f 762/762/762 759/759/759 760/760/760
f 763/763/763 760/760/760 761/761/761
f 762/762/762 760/760/760 763/763/763
f 766/766/766 765/765/765 764/764/764
f 767/767/767 766/766/766 764/764/764
f 767/767/767 764/764/764 768/768/768
f 769/769/769 766/766/766 767/767/767
f 770/770/770 767/767/767 768/768/768
f 771/771/771 769/769/769 767/767/767
f 771/771/771 767/767/767 770/770/770
f 772/772/772 769/769/769 771/771/771
f 773/773/773 771/771/771 770/770/770
f 774/774/774 772/772/772 771/771/771
f 774/774/774 771/771/771 773/773/773
f 775/775/775 772/772/772 774/774/774
f 776/776/776 774/774/774 773/773/773
f 775/775/775 774/774/774 776/776/776
