g 0.0333
v -0.009327545 -0.84086645 3.1958919
v 7.184231E-07 -1.032905 3.3082674
v 0.49729967 -0.8069401 3.2357864
v 1.0330628 -0.1804409 1.3586292
v 1.1357352 0.9557115 1.8343303
v 0.5375672 0.6351509 1.3667637
v 1.2006783 -0.20625949 2.4274182
v 0.81996024 -0.34597087 2.5217116
v 1.2890176 0.36361063 2.4139094
v -0.00023900397 -1.7303519 3.6107826
v 1.0129289E-06 -2.170465 3.7286685
v 0.38476893 -2.1349592 3.7891822
v 0.5044534 -1.3751111 5.1465197
v 0.005261015 -1.4142992 5.1129217
v 0.0105573945 -1.2955599 5.324381
v 2.4558766 1.0023847 1.8693411
v 2.7039585 0.9014605 1.7791686
v 2.801566 0.94392705 2.094051
v -0.009327545 -0.84086645 3.1958919
v -0.50329095 -1.1293364 3.175503
v 7.184231E-07 -1.032905 3.3082674
v -1.0330582 0.6540644 2.0368707
v -0.53757507 0.9286244 2.231841
v -1.1199489 0.7428477 2.758957
v -1.2006646 -0.4400326 1.7826527
v -1.282526 -0.3664478 2.39224
v -0.8199456 -0.6014267 1.7475812
v -0.00023900397 -1.7303519 3.6107826
v -0.38476673 -2.134959 3.7891822
v 1.0129289E-06 -2.170465 3.7286685
v -0.5087317 -1.2853324 5.1772
v 0.0105573945 -1.2955599 5.324381
v 0.005261015 -1.4142992 5.1129217
v -2.26383 -1.9248478 1.6941243
v -2.606656 -1.6957929 1.7525809
v -2.5292919 -2.0176163 1.7221512
v 2.1654487 0.3353331 2.21926
v 2.1974773 0.47858977 1.9630306
v 2.3386128 0.68720675 1.797068
v 2.1546366 0.39098382 2.0111833
v 2.1778402 0.28589106 1.9891195
v 2.4110918 0.03113842 2.5650234
v 2.2695858 0.25475693 2.555663
v 2.377893 0.6666919 2.780481
v 1.2428988 0.23734021 4.5871134
v 0.8739754 0.5701982 4.4867845
v 1.2145956 0.35416555 4.1341653
v 0.8968136 -0.49299908 5.1826806
v 1.7311416 -0.3767748 5.1117134
v 1.51635 -0.7459774 5.160108
v 1.7625957 0.22629452 4.766711
v 1.8243442 0.7090812 3.818441
v 0.38193607 0.01971221 5.120089
v 0.040820945 -0.1488266 5.2984385
v 0.029970963 -0.59904385 5.5324354
v 0.051361285 0.24630988 4.9910984
v 0.035305046 0.95650876 3.9566636
v 0.76298916 1.1208677 2.994287
v 1.0743287 1.0078094 2.9670882
v 0.017440334 1.0333496 3.2654023
v 2.302133 0.77147865 3.7363756
v 2.7734404 0.6483803 2.9157825
v 2.377893 0.6666919 2.780481
v 2.6112823 0.48165345 4.155918
v 2.2487712 -0.035197258 4.534529
v 1.9762459 -0.78646016 4.835142
v 2.6889117 1.118706 2.3089557
v 2.5557408 1.1917824 2.1116312
v 2.801566 0.94392705 2.094051
v 2.156082 1.0489886 2.3705654
v 2.118299 0.80903184 2.6300483
v 1.1213555 -1.1171522 3.9416666
v 1.1638143 -0.28997612 3.786008
v 0.9518083 -0.7436633 3.3580163
v 0.9194814 -0.39391434 3.3267455
v 1.1414948 0.4138811 3.0372822
v 0.7695149 -0.23534012 2.8876407
v 1.2145956 0.35416555 4.1341653
v 1.0743287 1.0078094 2.9670882
v 0.8739754 0.5701982 4.4867845
v 0.6099062 -0.80292344 -0.18218337
v 0.7400631 -0.16425389 -0.16652878
v 0.5906598 -0.48185733 0.45081067
v 0.45171022 -1.3570657 -0.091024965
v 0.8198782 -1.1224916 0.6593145
v 0.26627904 -0.8670681 1.0695822
v 0.67871654 -0.3949368 1.1419722
v 0.44090587 -1.0415876 1.6602064
v 0.28721255 -0.63378406 1.353066
v 0.3003998 -0.30772913 1.4456502
v 0.281429 -0.5056472 1.8260038
v 0.21705194 -0.48579773 1.8023169
v 0.25148422 -0.17987812 1.4912727
v -1.3790632E-06 0.1885655 1.7027254
v 0.00018709619 0.91385674 1.7385117
v 0.18537056 -0.5176795 1.8080237
v 0.49729967 -0.8069401 3.2357864
v 7.184231E-07 -1.032905 3.3082674
v 0.59070265 -1.2941198 3.382075
v 0.9518083 -0.7436633 3.3580163
v 1.1213555 -1.1171522 3.9416666
v 0.9194814 -0.39391434 3.3267455
v 0.7695149 -0.23534012 2.8876407
v -0.009327545 -0.84086645 3.1958919
v 9.670829E-06 -0.83506495 2.6762583
v 1.0791105 -0.20513481 -0.1231689
v 1.6065173 -1.2627182 -0.15079485
v 1.1966249 -0.72556865 0.39968127
v 1.0085088 -0.37071264 0.6039213
v 1.3280659 -0.5213634 1.2211008
v 1.3458688 -1.0306308 1.7542975
v 1.3312147 -0.20630813 1.75511
v 1.0330628 -0.1804409 1.3586292
v 1.1357352 0.9557115 1.8343303
v 1.2890176 0.36361063 2.4139094
v 1.3259383 -0.3508165 2.034239
v 1.252906 -0.46378565 2.2072732
v 1.2006783 -0.20625949 2.4274182
v 1.0330628 -0.1804409 1.3586292
v 0.3003998 -0.30772913 1.4456502
v 0.67871654 -0.3949368 1.1419722
v 1.3280659 -0.5213634 1.2211008
v 1.0085088 -0.37071264 0.6039213
v 0.5906598 -0.48185733 0.45081067
v 0.7400631 -0.16425389 -0.16652878
v 1.0791105 -0.20513481 -0.1231689
v 1.51635 -0.7459774 5.160108
v 1.7311416 -0.3767748 5.1117134
v 1.9762459 -0.78646016 4.835142
v 1.7625957 0.22629452 4.766711
v 0.22267716 -2.1056895 4.2489085
v 1.3495087E-06 -2.118443 4.0898542
v 1.4070056E-06 -2.2716796 4.164652
v 0.22613412 -2.1518426 4.541107
v 1.8230025E-06 -2.353157 4.769996
v 0.37337485 -2.2279599 4.746804
v 0.4356573 -2.1071413 4.536017
v 0.47852975 -1.8853115 4.366705
v 1.010589 -1.1482282 4.9382577
v 0.5044534 -1.3751111 5.1465197
v 0.0105573945 -1.2955599 5.324381
v 0.8968136 -0.49299908 5.1826806
v 0.029970963 -0.59904385 5.5324354
v 1.010589 -1.1482282 4.9382577
v 0.8968136 -0.49299908 5.1826806
v 1.51635 -0.7459774 5.160108
v 1.9762459 -0.78646016 4.835142
v 1.7213717 -1.1839669 4.1941767
v 0.866258 -1.3181417 4.6500216
v 0.5044534 -1.3751111 5.1465197
v 0.54320735 -1.2985482 4.3365254
v 1.1213555 -1.1171522 3.9416666
v 0.55403346 -1.2656708 4.106724
v 0.59070265 -1.2941198 3.382075
v 0.35447994 -1.2098215 3.820859
v 0.2746946 -1.2834742 3.9500022
v 7.184231E-07 -1.032905 3.3082674
v -0.0021373108 -1.3125911 3.7907012
v 2.4110918 0.03113842 2.5650234
v 2.8933513 0.063132524 2.6610544
v 2.5932462 0.35881472 1.9225109
v 2.1778402 0.28589106 1.9891195
v 2.1974773 0.47858977 1.9630306
v 2.3386128 0.68720675 1.797068
v 2.4558766 1.0023847 1.8693411
v 2.7039585 0.9014605 1.7791686
v 2.5932462 0.35881472 1.9225109
v 2.801566 0.94392705 2.094051
v 2.7039585 0.9014605 1.7791686
v 2.8933513 0.063132524 2.6610544
v 2.7734404 0.6483803 2.9157825
v 2.6889117 1.118706 2.3089557
v 2.8220205 0.2169559 3.6769705
v 2.5584126 -0.2923956 3.6313426
v 2.6112823 0.48165345 4.155918
v 2.6020284 0.1568098 4.0222306
v 2.4333181 -0.32204628 3.7716186
v 2.2487712 -0.035197258 4.534529
v 2.0631156 -0.41019797 4.226488
v 1.9762459 -0.78646016 4.835142
v 1.7213717 -1.1839669 4.1941767
v 1.6355186 -0.79427147 3.7944913
v 1.9516687 -0.24616551 3.4478402
v 2.2695858 0.25475693 2.555663
v 1.7949996 0.48171425 3.1461992
v 1.7118633 -0.015288353 3.2847247
v 1.8243442 0.7090812 3.818441
v 1.1638143 -0.28997612 3.786008
v 1.2145956 0.35416555 4.1341653
v 1.2428988 0.23734021 4.5871134
v 2.4110918 0.03113842 2.5650234
v 1.7118633 -0.015288353 3.2847247
v 2.1167216 -0.28637695 3.3256307
v 2.2695858 0.25475693 2.555663
v 2.4558766 1.0023847 1.8693411
v 1.9905379 0.7349627 1.9715974
v 2.3386128 0.68720675 1.797068
v 2.087768 0.9962951 2.031523
v 2.5557408 1.1917824 2.1116312
v 2.801566 0.94392705 2.094051
v 2.156082 1.0489886 2.3705654
v 0.5059775 -1.5675137 -0.1432297
v 0.82337683 -1.6313152 -0.019707948
v 0.9103458 -1.6636386 -0.15329964
v 1.2019066 -1.6224184 -0.0070061088
v 1.4182512 -1.5281128 -0.17091215
v 2.3386128 0.68720675 1.797068
v 1.9905379 0.7349627 1.9715974
v 1.8469574 0.44320393 2.321661
v 2.1654487 0.3353331 2.21926
v 0.9103458 -1.6636386 -0.15329964
v 0.45171022 -1.3570657 -0.091024965
v 0.5059775 -1.5675137 -0.1432297
v 1.1995184 -0.9971522 -0.18938377
v 1.4182512 -1.5281128 -0.17091215
v 0.6099062 -0.80292344 -0.18218337
v 1.6065173 -1.2627182 -0.15079485
v 0.7400631 -0.16425389 -0.16652878
v 1.0791105 -0.20513481 -0.1231689
v 0.8198782 -1.1224916 0.6593145
v 0.9769837 -1.0528907 0.4043525
v 0.45171022 -1.3570657 -0.091024965
v 1.3458688 -1.0306308 1.7542975
v 1.1966249 -0.72556865 0.39968127
v 0.8446792 -1.1913166 1.7718345
v 0.44090587 -1.0415876 1.6602064
v 0.281429 -0.5056472 1.8260038
v 1.0297203 -0.54262376 2.263722
v 1.252906 -0.46378565 2.2072732
v 1.2006783 -0.20625949 2.4274182
v 0.81996024 -0.34597087 2.5217116
v 0.82925874 -0.59190655 2.2513008
v 0.5059775 -1.5675137 -0.1432297
v 0.45171022 -1.3570657 -0.091024965
v 0.82337683 -1.6313152 -0.019707948
v 0.9769837 -1.0528907 0.4043525
v 1.2019066 -1.6224184 -0.0070061088
v 1.6065173 -1.2627182 -0.15079485
v 1.1966249 -0.72556865 0.39968127
v 1.4182512 -1.5281128 -0.17091215
v 1.0330628 -0.1804409 1.3586292
v 0.5375672 0.6351509 1.3667637
v 0.3003998 -0.30772913 1.4456502
v 0.25148422 -0.17987812 1.4912727
v 0.52624077 0.679096 1.3284068
v 0.00018709619 0.91385674 1.7385117
v 1.1357352 0.9557115 1.8343303
v 1.1814166 0.999003 1.8347099
v 0.52624077 0.679096 1.3284068
v 0.5375672 0.6351509 1.3667637
v 0.017440334 1.0333496 3.2654023
v 0.018773645 1.0897079 3.2478082
v 0.7869811 1.1936045 2.9109325
v 0.76298916 1.1208677 2.994287
v 1.1342072 1.0567443 2.8948843
v 1.0743287 1.0078094 2.9670882
v 1.2106771 0.45569545 3.0103464
v 1.1414948 0.4138811 3.0372822
v 0.82534385 -0.26942098 2.9130847
v 0.7695149 -0.23534012 2.8876407
v 1.0141126E-05 -0.8970869 2.673314
v 9.670829E-06 -0.83506495 2.6762583
v 1.6355186 -0.79427147 3.7944913
v 1.1213555 -1.1171522 3.9416666
v 1.7213717 -1.1839669 4.1941767
v 1.1638143 -0.28997612 3.786008
v 1.5496187 -0.32235265 3.4736106
v 1.7118633 -0.015288353 3.2847247
v 1.9516687 -0.24616551 3.4478402
v 1.7118633 -0.015288353 3.2847247
v 1.9516687 -0.24616551 3.4478402
v 2.1167216 -0.28637695 3.3256307
v 2.5584126 -0.2923956 3.6313426
v 2.4333181 -0.32204628 3.7716186
v 2.0631156 -0.41019797 4.226488
v 2.8933513 0.063132524 2.6610544
v 2.4110918 0.03113842 2.5650234
v 2.377893 0.6666919 2.780481
v 1.7949996 0.48171425 3.1461992
v 2.2695858 0.25475693 2.555663
v 1.8243442 0.7090812 3.818441
v 1.2890176 0.36361063 2.4139094
v 1.1814166 0.999003 1.8347099
v 1.1357352 0.9557115 1.8343303
v 1.3548476 0.35812008 2.434084
v 0.81996024 -0.34597087 2.5217116
v 0.8738202 -0.50619733 2.4538527
v 0.281429 -0.5056472 1.8260038
v 0.28288904 -0.8681679 1.9101706
v 0.21705194 -0.48579773 1.8023169
v 0.18537056 -0.5176795 1.8080237
v 5.26478E-06 -0.5561894 1.803689
v 8.707499E-06 -0.83219683 1.8750192
v -1.3790632E-06 0.1885655 1.7027254
v 0.54320735 -1.2985482 4.3365254
v 0.41662747 -1.7377281 4.9361386
v 0.5044534 -1.3751111 5.1465197
v 0.52600485 -1.4081415 4.20488
v 0.55403346 -1.2656708 4.106724
v 0.66279393 -1.8369944 3.890556
v 0.49524626 -1.9469372 4.9141493
v 0.59499323 -1.7918555 4.028955
v 0.47852975 -1.8853115 4.366705
v 0.4356573 -2.1071413 4.536017
v 0.37337485 -2.2279599 4.746804
v 0.5077078 -1.8318801 4.1744704
v 0.22267716 -2.1056895 4.2489085
v 0.34013215 -2.0697548 4.068371
v 0.38358378 -2.0960808 3.8994546
v 0.38358378 -2.0960808 3.8994546
v 0.59499323 -1.7918555 4.028955
v 0.66279393 -1.8369944 3.890556
v 0.38476893 -2.1349592 3.7891822
v 1.166494E-06 -2.1305218 3.869419
v 1.0129289E-06 -2.170465 3.7286685
v 1.3495087E-06 -2.118443 4.0898542
v 0.34013215 -2.0697548 4.068371
v 0.22267716 -2.1056895 4.2489085
v 0.66279393 -1.8369944 3.890556
v -0.00023900397 -1.7303519 3.6107826
v 0.38476893 -2.1349592 3.7891822
v 0.27314436 -1.4748955 3.8452954
v 0.55403346 -1.2656708 4.106724
v -0.0021373108 -1.3125911 3.7907012
v 0.2746946 -1.2834742 3.9500022
v 1.1342072 1.0567443 2.8948843
v 1.1814166 0.999003 1.8347099
v 1.3548476 0.35812008 2.434084
v 1.2106771 0.45569545 3.0103464
v 0.82534385 -0.26942098 2.9130847
v 0.8738202 -0.50619733 2.4538527
v 0.7926478 -0.69089895 2.5206752
v 0.76063126 -0.90029657 1.9886281
v 0.7869811 1.1936045 2.9109325
v 1.1814166 0.999003 1.8347099
v 1.1342072 1.0567443 2.8948843
v 0.48851812 1.1994687 1.7884321
v 0.52624077 0.679096 1.3284068
v 0.00018709619 0.91385674 1.7385117
v 0.011702094 1.2851763 2.588599
v 0.018773645 1.0897079 3.2478082
v 0.82534385 -0.26942098 2.9130847
v 1.021905E-05 -1.044673 2.078722
v 1.0141126E-05 -0.8970869 2.673314
v 0.7926478 -0.69089895 2.5206752
v 0.6341179 -1.0060105 2.053662
v 0.76063126 -0.90029657 1.9886281
v 1.1015874E-05 -1.0340881 1.7579771
v 0.052199423 -0.96565616 1.4206325
v 9.79627E-06 -0.96953607 1.4049597
v 8.707499E-06 -0.83219683 1.8750192
v 9.79627E-06 -0.96953607 1.4049597
v 0.052199423 -0.96565616 1.4206325
v 0.28288904 -0.8681679 1.9101706
v 0.76063126 -0.90029657 1.9886281
v 0.8738202 -0.50619733 2.4538527
v 1.9905379 0.7349627 1.9715974
v 2.087768 0.9962951 2.031523
v 1.8469574 0.44320393 2.321661
v 2.118299 0.80903184 2.6300483
v 2.156082 1.0489886 2.3705654
v 2.1654487 0.3353331 2.21926
v 1.8469574 0.44320393 2.321661
v 2.118299 0.80903184 2.6300483
v 2.377893 0.6666919 2.780481
v 0.005261015 -1.4142992 5.1129217
v 0.5044534 -1.3751111 5.1465197
v 0.41662747 -1.7377281 4.9361386
v 1.7204466E-06 -1.7561826 5.0990257
v 0.2735445 -2.0520017 5.037368
v 1.9038913E-06 -2.1812446 5.02979
v 0.49524626 -1.9469372 4.9141493
v 1.8230025E-06 -2.353157 4.769996
v 0.37337485 -2.2279599 4.746804
v -2.091948 -1.7907624 2.471445
v -2.2101433 -2.08799 1.9921407
v -2.1051145 -1.9959735 2.2595088
v -2.0778553 -1.9766463 2.3630085
v -2.1210525 -2.023891 2.452293
v -2.3785343 -1.5192738 2.8128972
v -2.1980464 -1.4805045 2.6230597
v -2.2197297 -1.1458547 2.2773674
v -1.1590588 0.18729532 4.185334
v -1.1361175 -0.066480994 3.7846549
v -0.8183073 0.36060494 4.3605847
v -0.8821107 -0.27368522 5.0922313
v -1.6627561 0.18651381 4.6780376
v -1.491462 -0.19871014 5.0119686
v -1.6338723 0.41550466 3.889162
v -1.6619321 -0.061782002 2.7927382
v -0.36182877 0.012268782 5.084997
v 0.040820945 -0.1488266 5.2984385
v 0.029970963 -0.59904385 5.5324354
v 0.051361285 0.24630988 4.9910984
v 0.035305046 0.95650876 3.9566636
v -0.732851 0.36805272 3.507416
v -1.0385374 0.027178288 3.4014971
v 0.017440334 1.0333496 3.2654023
v -2.1130981 -0.12452161 2.5809968
v -2.6069694 -0.98779964 2.264564
v -2.2197297 -1.1458547 2.2773674
v -2.4521441 0.1656735 3.0538402
v -2.1487699 0.1443491 3.8126886
v -1.951566 -0.2343685 4.6885037
v -2.4561558 -1.4522752 1.666143
v -2.318316 -1.6334038 1.5651265
v -2.606656 -1.6957929 1.7525809
v -1.9440546 -1.4561522 1.8402166
v -1.9432392 -1.2740558 2.145468
v -1.1638217 -1.148002 4.2200074
v -0.96637094 -1.1380128 3.3819063
v -1.1538143 -0.761625 3.7167656
v -0.924788 -0.9129615 3.2757645
v -1.1293406 -0.5246475 3.0125568
v -0.7695514 -0.9905896 1.9560865
v -1.1361175 -0.066480994 3.7846549
v -1.0385374 0.027178288 3.4014971
v -0.8183073 0.36060494 4.3605847
v -0.60984266 2.3588464 0.9390238
v -0.5906269 1.7850804 1.4048839
v -0.7400311 2.3652773 1.5394021
v -0.4516169 2.3788354 0.38581628
v -0.81982833 1.3944831 0.9007906
v -0.26624694 1.1209048 1.3154775
v -0.67870784 1.0932889 1.9352423
v -0.4408696 0.40755045 1.0530553
v -0.2871925 0.7444309 1.5600288
v -0.30038896 0.56490445 1.7692115
v -0.28141937 -0.3060426 1.5561492
v -0.21704279 -0.28816533 1.5548954
v -0.25147638 0.49422503 1.810007
v -1.3790632E-06 0.1885655 1.7027254
v 0.00018709619 0.91385674 1.7385117
v -0.18536136 -0.3294117 1.5448424
v -0.50329095 -1.1293364 3.175503
v -0.6024517 -1.3553984 3.45759
v 7.184231E-07 -1.032905 3.3082674
v -0.96637094 -1.1380128 3.3819063
v -1.1638217 -1.148002 4.2200074
v -0.924788 -0.9129615 3.2757645
v -0.7695514 -0.9905896 1.9560865
v -0.009327545 -0.84086645 3.1958919
v 9.670829E-06 -0.83506495 2.6762583
v -1.0790776 2.3216815 1.5028327
v -1.1965828 1.7508143 1.170699
v -1.6064297 2.3893602 0.48287457
v -1.0084828 1.6928647 1.5799998
v -1.328049 1.059372 1.7141683
v -1.3458315 0.44978583 1.1347239
v -1.3312049 0.25221276 1.9216931
v -1.0330582 0.6540644 2.0368707
v -1.1199489 0.7428477 2.758957
v -1.282526 -0.3664478 2.39224
v -1.3259212 0.020867229 1.6965506
v -1.252884 -0.13945329 1.5430076
v -1.2006646 -0.4400326 1.7826527
v -1.0330582 0.6540644 2.0368707
v -0.67870784 1.0932889 1.9352423
v -0.30038896 0.56490445 1.7692115
v -1.328049 1.059372 1.7141683
v -1.0084828 1.6928647 1.5799998
v -0.5906269 1.7850804 1.4048839
v -0.7400311 2.3652773 1.5394021
v -1.0790776 2.3216815 1.5028327
v -1.491462 -0.19871014 5.0119686
v -1.951566 -0.2343685 4.6885037
v -1.6627561 0.18651381 4.6780376
v -1.6338723 0.41550466 3.889162
v -0.22267415 -2.1056895 4.248909
v 1.4070056E-06 -2.2716796 4.164652
v 1.3495087E-06 -2.118443 4.0898542
v -0.22613063 -2.1518426 4.541107
v 1.8230025E-06 -2.353157 4.769996
v -0.37337115 -2.2279596 4.7468047
v -0.4356539 -2.107141 4.5360174
v -0.47852683 -1.8853112 4.3667054
v -1.0162876 -0.9826093 4.9804235
v 0.0105573945 -1.2955599 5.324381
v -0.5087317 -1.2853324 5.1772
v -0.8821107 -0.27368522 5.0922313
v 0.029970963 -0.59904385 5.5324354
v -1.0162876 -0.9826093 4.9804235
v -1.491462 -0.19871014 5.0119686
v -0.8821107 -0.27368522 5.0922313
v -1.951566 -0.2343685 4.6885037
v -1.7692554 -0.95754546 4.515419
v -0.8770932 -1.1995465 4.724626
v -0.5087317 -1.2853324 5.1772
v -0.54772985 -1.2720227 4.3670187
v -1.1638217 -1.148002 4.2200074
v -0.5600717 -1.2520616 4.1468153
v -0.6024517 -1.3553984 3.45759
v -0.35949507 -1.2199267 3.853551
v -0.27871484 -1.283022 3.9764526
v 7.184231E-07 -1.032905 3.3082674
v -0.0021373108 -1.3125911 3.7907012
v -2.3785343 -1.5192738 2.8128972
v -2.5174398 -2.033759 2.2938747
v -2.8427923 -1.3782909 2.726824
v -2.1210525 -2.023891 2.452293
v -2.1051145 -1.9959735 2.2595088
v -2.2101433 -2.08799 1.9921407
v -2.26383 -1.9248478 1.6941243
v -2.5292919 -2.0176163 1.7221512
v -2.5174398 -2.033759 2.2938747
v -2.5292919 -2.0176163 1.7221512
v -2.606656 -1.6957929 1.7525809
v -2.8427923 -1.3782909 2.726824
v -2.6069694 -0.98779964 2.264564
v -2.4561558 -1.4522752 1.666143
v -2.7143111 -0.35627675 2.929449
v -2.53997 -0.62300736 3.412544
v -2.4521441 0.1656735 3.0538402
v -2.4950197 -0.097566485 3.2025044
v -2.4088995 -0.5701554 3.5414436
v -2.1487699 0.1443491 3.8126886
v -2.024256 -0.3513959 3.9423296
v -1.951566 -0.2343685 4.6885037
v -1.7692554 -0.95754546 4.515419
v -1.6644368 -0.9892205 3.979113
v -1.9372125 -0.84156567 3.3304152
v -2.1980464 -1.4805045 2.6230597
v -1.6783237 -0.88479733 3.156097
v -1.676798 -0.85270286 2.6548746
v -1.6619321 -0.061782002 2.7927382
v -1.1538143 -0.761625 3.7167656
v -1.1361175 -0.066480994 3.7846549
v -1.1590588 0.18729532 4.185334
v -2.3785343 -1.5192738 2.8128972
v -2.1225576 -0.90045 3.3589137
v -1.6783237 -0.88479733 3.156097
v -2.1980464 -1.4805045 2.6230597
v -2.26383 -1.9248478 1.6941243
v -2.2101433 -2.08799 1.9921407
v -1.853656 -1.9367254 2.0548558
v -1.8981707 -1.8014548 1.8077533
v -2.318316 -1.6334038 1.5651265
v -2.606656 -1.6957929 1.7525809
v -1.9440546 -1.4561522 1.8402166
v -0.5058718 2.4731135 0.18912745
v -0.91023463 2.5007954 0.096502066
v -0.82326925 2.3635283 0.10356772
v -1.2018005 2.3297415 0.10961932
v -1.4181483 2.4677966 0.22808975
v -2.2101433 -2.08799 1.9921407
v -2.091948 -1.7907624 2.471445
v -1.7556534 -1.690277 2.4522748
v -1.853656 -1.9367254 2.0548558
v -0.91023463 2.5007954 0.096502066
v -0.5058718 2.4731135 0.18912745
v -0.4516169 2.3788354 0.38581628
v -1.1994439 2.4004016 0.7527717
v -1.4181483 2.4677966 0.22808975
v -0.60984266 2.3588464 0.9390238
v -1.6064297 2.3893602 0.48287457
v -0.7400311 2.3652773 1.5394021
v -1.0790776 2.3216815 1.5028327
v -0.81982833 1.3944831 0.9007906
v -0.4516169 2.3788354 0.38581628
v -0.97692966 1.6396044 0.8463327
v -1.3458315 0.44978583 1.1347239
v -1.1965828 1.7508143 1.170699
v -0.84463555 0.46965432 0.9629914
v -0.4408696 0.40755045 1.0530553
v -0.28141937 -0.3060426 1.5561492
v -1.0296963 -0.21463287 1.4596332
v -1.252884 -0.13945329 1.5430076
v -1.2006646 -0.4400326 1.7826527
v -0.8199456 -0.6014267 1.7475812
v -0.8292347 -0.26425123 1.4279249
v -0.5058718 2.4731135 0.18912745
v -0.82326925 2.3635283 0.10356772
v -0.4516169 2.3788354 0.38581628
v -0.97692966 1.6396044 0.8463327
v -1.2018005 2.3297415 0.10961932
v -1.6064297 2.3893602 0.48287457
v -1.1965828 1.7508143 1.170699
v -1.4181483 2.4677966 0.22808975
v -1.0330582 0.6540644 2.0368707
v -0.30038896 0.56490445 1.7692115
v -0.53757507 0.9286244 2.231841
v -0.25147638 0.49422503 1.810007
v -0.52624834 0.99941623 2.1974926
v 0.00018709619 0.91385674 1.7385117
v -1.1199489 0.7428477 2.758957
v -0.53757507 0.9286244 2.231841
v -0.52624834 0.99941623 2.1974926
v -1.1641294 0.78554875 2.7856336
v 0.017440334 1.0333496 3.2654023
v -0.75814736 0.36896545 3.5506094
v 0.018773645 1.0897079 3.2478082
v -0.732851 0.36805272 3.507416
v -1.10237 0.025849342 3.4275022
v -1.0385374 0.027178288 3.4014971
v -1.1998764 -0.56869984 2.9985683
v -1.1293406 -0.5246475 3.0125568
v -0.8254427 -1.0204754 1.9108508
v -0.7695514 -0.9905896 1.9560865
v 1.0141126E-05 -0.8970869 2.673314
v 9.670829E-06 -0.83506495 2.6762583
v -1.6644368 -0.9892205 3.979113
v -1.7692554 -0.95754546 4.515419
v -1.1638217 -1.148002 4.2200074
v -1.1538143 -0.761625 3.7167656
v -1.5490533 -0.9005507 3.436928
v -1.6783237 -0.88479733 3.156097
v -1.9372125 -0.84156567 3.3304152
v -1.6783237 -0.88479733 3.156097
v -2.1225576 -0.90045 3.3589137
v -1.9372125 -0.84156567 3.3304152
v -2.53997 -0.62300736 3.412544
v -2.4088995 -0.5701554 3.5414436
v -2.024256 -0.3513959 3.9423296
v -2.8427923 -1.3782909 2.726824
v -2.3785343 -1.5192738 2.8128972
v -2.2197297 -1.1458547 2.2773674
v -2.1980464 -1.4805045 2.6230597
v -1.676798 -0.85270286 2.6548746
v -1.6619321 -0.061782002 2.7927382
v -1.282526 -0.3664478 2.39224
v -1.1199489 0.7428477 2.758957
v -1.1641294 0.78554875 2.7856336
v -1.3475312 -0.3672105 2.3943307
v -0.8199456 -0.6014267 1.7475812
v -0.8738038 -0.6223258 1.6560012
v -0.28141937 -0.3060426 1.5561492
v -0.28287348 -0.62860894 1.3387103
v -0.21704279 -0.28816533 1.5548954
v -0.18536136 -0.3294117 1.5448424
v 5.26478E-06 -0.5561894 1.803689
v 8.707499E-06 -0.83219683 1.8750192
v -1.3790632E-06 0.1885655 1.7027254
v -0.54772985 -1.2720227 4.3670187
v -0.5087317 -1.2853324 5.1772
v -0.4202748 -1.7123301 4.9608583
v -0.5301791 -1.3954396 4.2326965
v -0.5600717 -1.2520616 4.1468153
v -0.6649857 -1.8387501 3.9049315
v -0.49524263 -1.9469367 4.9141498
v -0.5954186 -1.7918074 4.0317693
v -0.47852683 -1.8853112 4.3667054
v -0.4356539 -2.107141 4.5360174
v -0.37337115 -2.2279596 4.7468047
v -0.50804615 -1.8315054 4.176723
v -0.22267415 -2.1056895 4.248909
v -0.3401294 -2.0697546 4.068371
v -0.38358134 -2.0960808 3.8994546
v -0.38358134 -2.0960808 3.8994546
v -0.6649857 -1.8387501 3.9049315
v -0.5954186 -1.7918074 4.0317693
v -0.38476673 -2.134959 3.7891822
v 1.166494E-06 -2.1305218 3.869419
v 1.0129289E-06 -2.170465 3.7286685
v 1.3495087E-06 -2.118443 4.0898542
v -0.3401294 -2.0697546 4.068371
v -0.22267415 -2.1056895 4.248909
v -0.6649857 -1.8387501 3.9049315
v -0.38476673 -2.134959 3.7891822
v -0.00023900397 -1.7303519 3.6107826
v -0.27764294 -1.4785391 3.8747773
v -0.5600717 -1.2520616 4.1468153
v -0.0021373108 -1.3125911 3.7907012
v -0.27871484 -1.283022 3.9764526
v -1.10237 0.025849342 3.4275022
v -1.3475312 -0.3672105 2.3943307
v -1.1641294 0.78554875 2.7856336
v -1.1998764 -0.56869984 2.9985683
v -0.8254427 -1.0204754 1.9108508
v -0.8738038 -0.6223258 1.6560012
v -0.79262954 -0.81818485 1.5679619
v -0.76061153 -0.60116714 1.2482212
v -0.75814736 0.36896545 3.5506094
v -1.10237 0.025849342 3.4275022
v -1.1641294 0.78554875 2.7856336
v -0.47418883 1.0051045 2.9345987
v -0.52624834 0.99941623 2.1974926
v 0.00018709619 0.91385674 1.7385117
v 0.011702094 1.2851763 2.588599
v 0.018773645 1.0897079 3.2478082
v -0.8254427 -1.0204754 1.9108508
v 1.0141126E-05 -0.8970869 2.673314
v 1.021905E-05 -1.044673 2.078722
v -0.79262954 -0.81818485 1.5679619
v -0.63409716 -0.7485601 1.2144855
v -0.76061153 -0.60116714 1.2482212
v 1.1015874E-05 -1.0340881 1.7579771
v -0.052180275 -0.41619337 0.8705108
v 9.79627E-06 -0.96953607 1.4049597
v 8.707499E-06 -0.83219683 1.8750192
v -0.052180275 -0.41619337 0.8705108
v 9.79627E-06 -0.96953607 1.4049597
v -0.28287348 -0.62860894 1.3387103
v -0.76061153 -0.60116714 1.2482212
v -0.8738038 -0.6223258 1.6560012
v -1.853656 -1.9367254 2.0548558
v -1.7556534 -1.690277 2.4522748
v -1.8981707 -1.8014548 1.8077533
v -1.9432392 -1.2740558 2.145468
v -1.9440546 -1.4561522 1.8402166
v -2.091948 -1.7907624 2.471445
v -2.2197297 -1.1458547 2.2773674
v -1.9432392 -1.2740558 2.145468
v -1.7556534 -1.690277 2.4522748
v 0.005261015 -1.4142992 5.1129217
v -0.4202748 -1.7123301 4.9608583
v -0.5087317 -1.2853324 5.1772
v 1.7204466E-06 -1.7561826 5.0990257
v -0.27354056 -2.0520017 5.037368
v 1.9038913E-06 -2.1812446 5.02979
v -0.49524263 -1.9469367 4.9141498
v 1.8230025E-06 -2.353157 4.769996
v -0.37337115 -2.2279596 4.7468047
vt 0.76092815 0.8767158
vt 0.7174094 0.91054726
vt 0.76092815 0.95057213
vt 0.38543808 0.96915483
vt 0.38543808 0.8693485
vt 0.32501337 0.9344189
vt 0.40212393 0.7568116
vt 0.42906108 0.79320693
vt 0.42906108 0.6946838
vt 0.64721847 0.83391285
vt 0.6187177 0.852685
vt 0.64721847 0.8863988
vt 0.40864563 0.8004855
vt 0.40212417 0.8554132
vt 0.4314282 0.8554132
vt 0.8731629 0.288234
vt 0.85169375 0.31012797
vt 0.8731629 0.33410096
vt 0.76092815 0.8767158
vt 0.76092815 0.95057213
vt 0.7174094 0.91054726
vt 0.38543808 0.96915483
vt 0.32501337 0.9344189
vt 0.38543808 0.8693485
vt 0.40212393 0.7568116
vt 0.42906108 0.6946838
vt 0.42906108 0.79320693
vt 0.64721847 0.83391285
vt 0.64721847 0.8863988
vt 0.6187177 0.852685
vt 0.40864563 0.8004855
vt 0.4314282 0.8554132
vt 0.40212417 0.8554132
vt 0.8731629 0.288234
vt 0.8731629 0.33410096
vt 0.85169375 0.31012797
vt 0.93716276 0.87058735
vt 0.95343685 0.89970946
vt 0.9799932 0.91859293
vt 0.9427136 0.89419115
vt 0.93181825 0.89648974
vt 0.911044 0.8307359
vt 0.9316137 0.83232665
vt 0.9799932 0.80742836
vt 0.10851145 0.33349717
vt 0.13080215 0.36262
vt 0.1400299 0.3113687
vt 0.035931587 0.41149533
vt 0.024571896 0.32702982
vt 0.0050616264 0.3596238
vt 0.08769798 0.28441465
vt 0.17019081 0.20653963
vt 0.08456516 0.4494164
vt 0.083266735 0.49250197
vt 0.042717457 0.51571035
vt 0.13373709 0.4635235
vt 0.21156597 0.41879463
vt 0.21291876 0.3210987
vt 0.19684744 0.2890222
vt 0.25440502 0.39410865
vt 0.13946295 0.16356409
vt 0.15124083 0.07156634
vt 0.19101858 0.09412408
vt 0.07759905 0.16957974
vt 0.05247307 0.23621142
vt 0.0036392212 0.30024278
vt 0.2229681 0.026929379
vt 0.25050545 0.022252083
vt 0.22280836 0.003639102
vt 0.25440502 0.07686579
vt 0.22743464 0.10261488
vt 0.45856917 0.6098685
vt 0.5120082 0.5537622
vt 0.43986475 0.5376189
vt 0.46678388 0.51993704
vt 0.5374718 0.47976518
vt 0.45610917 0.3930211
vt 0.59933805 0.57066965
vt 0.62368786 0.5123229
vt 0.6481185 0.6098685
vt 0.3537655 0.6874056
vt 0.42488575 0.6800592
vt 0.38486463 0.61382914
vt 0.2900216 0.68542314
vt 0.31718183 0.60575175
vt 0.3473574 0.54210377
vt 0.40935624 0.5075567
vt 0.2854784 0.5194292
vt 0.35032767 0.4909482
vt 0.35219908 0.45871925
vt 0.26393032 0.45060992
vt 0.26645523 0.44946337
vt 0.35109514 0.4470091
vt 0.34671634 0.4100144
vt 0.4248857 0.36387968
vt 0.26168346 0.44962025
vt 0.8411019 0.7899053
vt 0.7838191 0.78166175
vt 0.83817935 0.8318331
vt 0.89320564 0.81448936
vt 0.9037658 0.86935806
vt 0.9019189 0.7845733
vt 0.9037658 0.6827538
vt 0.7884561 0.7465446
vt 0.81633425 0.6499436
vt 0.43258637 0.032122433
vt 0.31396526 0.0036391318
vt 0.37069082 0.083407134
vt 0.4106114 0.110140175
vt 0.3962828 0.1806409
vt 0.2999698 0.19097976
vt 0.33613086 0.27186844
vt 0.38626117 0.26024532
vt 0.43258643 0.35557207
vt 0.2993983 0.3566014
vt 0.29970932 0.26645625
vt 0.2754557 0.26274022
vt 0.26168334 0.30305636
vt 0.16784751 0.7458852
vt 0.25242734 0.74616045
vt 0.21857738 0.7013248
vt 0.15136826 0.6648097
vt 0.20250392 0.599566
vt 0.25242734 0.59194356
vt 0.24932039 0.52717614
vt 0.21102023 0.5229885
vt 0.39318585 0.8693485
vt 0.3927164 0.9197998
vt 0.42848969 0.88240623
vt 0.42848969 0.9918647
vt 0.83725333 0.6245022
vt 0.8650172 0.6323495
vt 0.8650451 0.6158414
vt 0.83196056 0.59984875
vt 0.8545023 0.56402636
vt 0.8123895 0.57854414
vt 0.80810034 0.60399294
vt 0.8041513 0.6323495
vt 0.843976 0.89337015
vt 0.8063984 0.87663627
vt 0.7838192 0.8929435
vt 0.843976 0.9753927
vt 0.7871585 0.9748901
vt 0.6933649 0.052872658
vt 0.72706753 0.015985489
vt 0.6669389 0.0036392212
vt 0.6074452 0.014723778
vt 0.59009033 0.09092951
vt 0.6934568 0.09343052
vt 0.74957585 0.05772066
vt 0.7141083 0.138731
vt 0.63362813 0.15272665
vt 0.70400053 0.16181803
vt 0.66698974 0.2426033
vt 0.7129891 0.20186234
vt 0.72678816 0.19093657
vt 0.7296377 0.2760334
vt 0.7495758 0.22005558
vt 0.55891633 0.9662305
vt 0.61143947 0.9757911
vt 0.5922339 0.9015738
vt 0.5442295 0.9060155
vt 0.54845953 0.88612115
vt 0.56860304 0.8587924
vt 0.58318543 0.83391297
vt 0.61143947 0.8425299
vt 0.58281195 0.34121418
vt 0.51290727 0.3570695
vt 0.53652984 0.38574266
vt 0.5640419 0.2506776
vt 0.49579954 0.26056576
vt 0.48622772 0.3470602
vt 0.49326953 0.16512108
vt 0.54634494 0.1373272
vt 0.43986475 0.1499219
vt 0.47888508 0.13418627
vt 0.53810287 0.12372589
vt 0.45689094 0.08685875
vt 0.5121323 0.08250618
vt 0.49097848 0.0036392212
vt 0.57778907 0.02139616
vt 0.58281195 0.084019184
vt 0.56546235 0.15651321
vt 0.7765409 0.6499436
vt 0.7361802 0.69964933
vt 0.77622354 0.7437546
vt 0.67653656 0.7371383
vt 0.77654094 0.8337269
vt 0.6879344 0.8361132
vt 0.6553969 0.86943746
vt 0.70291305 0.8868731
vt 0.65539694 0.971077
vt 0.71013117 0.971077
vt 0.67677927 0.8767158
vt 0.8090407 0.32149696
vt 0.84102654 0.36681628
vt 0.84441555 0.3240695
vt 0.8116953 0.36468315
vt 0.7733887 0.3215344
vt 0.7866004 0.288234
vt 0.7821007 0.36681628
vt 0.14011115 0.8014283
vt 0.12317091 0.8358741
vt 0.1353504 0.8443204
vt 0.12005818 0.878158
vt 0.14011115 0.9034114
vt 0.9476197 0.92587113
vt 0.9110441 0.9448347
vt 0.9110441 0.99636084
vt 0.9476197 0.98801386
vt 0.87031114 0.39302105
vt 0.9275825 0.415932
vt 0.9168987 0.39369053
vt 0.856012 0.4729281
vt 0.8182663 0.42019266
vt 0.9253888 0.4796664
vt 0.8041513 0.45412713
vt 0.9275825 0.55208296
vt 0.8889886 0.5567482
vt 0.8193766 0.21626759
vt 0.8036128 0.23882651
vt 0.873227 0.2804551
vt 0.75685394 0.12812448
vt 0.773309 0.25874615
vt 0.8158251 0.13588381
vt 0.85866606 0.13524365
vt 0.873227 0.06848431
vt 0.791224 0.053290367
vt 0.7641256 0.055696964
vt 0.7682109 0.015006065
vt 0.8140278 0.0036392212
vt 0.81470394 0.053386927
vt 0.5175346 0.97618496
vt 0.5369512 0.9629216
vt 0.4913391 0.9509202
vt 0.5369512 0.8692274
vt 0.45981216 0.9219352
vt 0.44022834 0.8757967
vt 0.53517056 0.83391285
vt 0.43986475 0.90867615
vt 0.5900903 0.28797352
vt 0.62745833 0.35935897
vt 0.6769434 0.28331167
vt 0.68067384 0.28600973
vt 0.62803996 0.36523026
vt 0.68067384 0.38036174
vt 0.6286705 0.7095578
vt 0.6337411 0.7133043
vt 0.6337411 0.6171466
vt 0.6284676 0.62174
vt 0.14408994 0.5304086
vt 0.14407027 0.52298856
vt 0.0575552 0.5249157
vt 0.060165763 0.5318036
vt 0.017217755 0.5475795
vt 0.024039268 0.5512183
vt 0.003639102 0.62869143
vt 0.011310577 0.6288619
vt 0.050047874 0.75683355
vt 0.05604267 0.75208044
vt 0.14408994 0.7941501
vt 0.14408052 0.7870438
vt 0.94373345 0.29501605
vt 0.89322567 0.34452772
vt 0.9636524 0.34466767
vt 0.8805053 0.26835656
vt 0.92145467 0.23793936
vt 0.93056273 0.19030094
vt 0.9636524 0.2190423
vt 0.15136838 0.8828293
vt 0.18459916 0.8790581
vt 0.18772888 0.8523823
vt 0.249897 0.8515595
vt 0.24964237 0.87351906
vt 0.249897 0.9400712
vt 0.22085428 0.7534387
vt 0.17005515 0.7760277
vt 0.9802589 0.48951614
vt 0.93486077 0.43969166
vt 0.9363083 0.52018106
vt 0.9802589 0.393021
vt 0.6138434 0.7517505
vt 0.6211893 0.6171466
vt 0.6151098 0.6220794
vt 0.6211893 0.7543088
vt 0.5424597 0.81211025
vt 0.5444716 0.8262756
vt 0.48040593 0.77715325
vt 0.47013938 0.8266345
vt 0.47360125 0.7733006
vt 0.46921778 0.7773157
vt 0.44773105 0.77827287
vt 0.43986472 0.8160236
vt 0.46746588 0.6835647
vt 0.030359745 0.847517
vt 0.112780094 0.868281
vt 0.112780094 0.8014283
vt 0.022153854 0.86572623
vt 0.0068712234 0.8606516
vt 0.0036392212 0.9245527
vt 0.111730576 0.8989171
vt 0.014655113 0.9122443
vt 0.053132057 0.90880775
vt 0.07515764 0.92811567
vt 0.09974432 0.9358761
vt 0.032277107 0.9102699
vt 0.04845476 0.93554854
vt 0.028409481 0.9385146
vt 0.012401581 0.948142
vt 0.88494706 0.9226029
vt 0.8577864 0.9509256
vt 0.87466 0.9560555
vt 0.8970885 0.9206567
vt 0.882169 0.87921387
vt 0.8970885 0.87663627
vt 0.86154366 0.8830234
vt 0.86712503 0.92085326
vt 0.8512542 0.9104985
vt 0.7661104 0.35277665
vt 0.68795204 0.34717986
vt 0.7285374 0.3803617
vt 0.72703123 0.3177069
vt 0.7661104 0.28823394
vt 0.69608253 0.30455917
vt 0.73109645 0.29639655
vt 0.67792726 0.64156044
vt 0.7968731 0.64266527
vt 0.72660685 0.52130425
vt 0.6553967 0.5478516
vt 0.68288445 0.42728168
vt 0.7479801 0.43047652
vt 0.7372756 0.40265682
vt 0.7968731 0.393021
vt 0.3081553 0.86096895
vt 0.26168334 0.75789654
vt 0.26812422 0.85728633
vt 0.34041262 0.7695457
vt 0.33541918 0.6946839
vt 0.3948456 0.73062575
vt 0.3948456 0.8140665
vt 0.39473712 0.86206996
vt 0.8805054 0.0036392212
vt 0.9801983 0.08590722
vt 0.9801983 0.00670743
vt 0.8874839 0.057162046
vt 0.9081686 0.10700607
vt 0.8906271 0.11667371
vt 0.9782284 0.13529897
vt 0.96848243 0.18069983
vt 0.97430557 0.18302274
vt 0.9110441 0.76331913
vt 0.9639616 0.8001498
vt 0.9656298 0.79412675
vt 0.930436 0.7378639
vt 0.9656298 0.69657063
vt 0.9209312 0.6499436
vt 0.93157876 0.5800752
vt 0.90383935 0.5640264
vt 0.93157876 0.6334191
vt 0.8727588 0.6273424
vt 0.8723235 0.58724254
vt 0.9388571 0.63908076
vt 0.9780266 0.63908076
vt 0.96788716 0.5860343
vt 0.94412255 0.5640266
vt 0.31773514 0.8753247
vt 0.26274544 0.8693483
vt 0.2708798 0.92137074
vt 0.3170637 0.90850973
vt 0.2861817 0.94313264
vt 0.3168773 0.9501102
vt 0.26168346 0.9447961
vt 0.31773514 0.987437
vt 0.27583432 0.9821174
vt 0.93716276 0.87058735
vt 0.9799932 0.91859293
vt 0.95343685 0.89970946
vt 0.9427136 0.89419115
vt 0.93181825 0.89648974
vt 0.911044 0.8307359
vt 0.9316137 0.83232665
vt 0.9799932 0.80742836
vt 0.10851145 0.33349717
vt 0.1400299 0.3113687
vt 0.13080215 0.36262
vt 0.035931587 0.41149533
vt 0.024571896 0.32702982
vt 0.0050616264 0.3596238
vt 0.08769798 0.28441465
vt 0.17019081 0.20653963
vt 0.08456516 0.4494164
vt 0.083266735 0.49250197
vt 0.042717457 0.51571035
vt 0.13373709 0.4635235
vt 0.21156597 0.41879463
vt 0.21291876 0.3210987
vt 0.19684744 0.2890222
vt 0.25440502 0.39410865
vt 0.13946295 0.16356409
vt 0.15124083 0.07156634
vt 0.19101858 0.09412408
vt 0.07759905 0.16957974
vt 0.05247307 0.23621142
vt 0.0036392212 0.30024278
vt 0.2229681 0.026929379
vt 0.25050545 0.022252083
vt 0.22280836 0.003639102
vt 0.25440502 0.07686579
vt 0.22743464 0.10261488
vt 0.45856917 0.6098685
vt 0.43986475 0.5376189
vt 0.5120082 0.5537622
vt 0.46678388 0.51993704
vt 0.5374718 0.47976518
vt 0.45610917 0.3930211
vt 0.59933805 0.57066965
vt 0.62368786 0.5123229
vt 0.6481185 0.6098685
vt 0.3537655 0.6874056
vt 0.38486463 0.61382914
vt 0.42488575 0.6800592
vt 0.2900216 0.68542314
vt 0.31718183 0.60575175
vt 0.3473574 0.54210377
vt 0.40935624 0.5075567
vt 0.2854784 0.5194292
vt 0.35032767 0.4909482
vt 0.35219908 0.45871925
vt 0.26393032 0.45060992
vt 0.26645523 0.44946337
vt 0.35109514 0.4470091
vt 0.34671634 0.4100144
vt 0.4248857 0.36387968
vt 0.26168346 0.44962025
vt 0.8411019 0.7899053
vt 0.83817935 0.8318331
vt 0.7838191 0.78166175
vt 0.89320564 0.81448936
vt 0.9037658 0.86935806
vt 0.9019189 0.7845733
vt 0.9037658 0.6827538
vt 0.7884561 0.7465446
vt 0.81633425 0.6499436
vt 0.43258637 0.032122433
vt 0.37069082 0.083407134
vt 0.31396526 0.0036391318
vt 0.4106114 0.110140175
vt 0.3962828 0.1806409
vt 0.2999698 0.19097976
vt 0.33613086 0.27186844
vt 0.38626117 0.26024532
vt 0.43258643 0.35557207
vt 0.2993983 0.3566014
vt 0.29970932 0.26645625
vt 0.2754557 0.26274022
vt 0.26168334 0.30305636
vt 0.16784751 0.7458852
vt 0.21857738 0.7013248
vt 0.25242734 0.74616045
vt 0.15136826 0.6648097
vt 0.20250392 0.599566
vt 0.25242734 0.59194356
vt 0.24932039 0.52717614
vt 0.21102023 0.5229885
vt 0.39318585 0.8693485
vt 0.42848969 0.88240623
vt 0.3927164 0.9197998
vt 0.42848969 0.9918647
vt 0.83725333 0.6245022
vt 0.8650451 0.6158414
vt 0.8650172 0.6323495
vt 0.83196056 0.59984875
vt 0.8545023 0.56402636
vt 0.8123895 0.57854414
vt 0.80810034 0.60399294
vt 0.8041513 0.6323495
vt 0.843976 0.89337015
vt 0.7838192 0.8929435
vt 0.8063984 0.87663627
vt 0.843976 0.9753927
vt 0.7871585 0.9748901
vt 0.6933649 0.052872658
vt 0.6669389 0.0036392212
vt 0.72706753 0.015985489
vt 0.6074452 0.014723778
vt 0.59009033 0.09092951
vt 0.6934568 0.09343052
vt 0.74957585 0.05772066
vt 0.7141083 0.138731
vt 0.63362813 0.15272665
vt 0.70400053 0.16181803
vt 0.66698974 0.2426033
vt 0.7129891 0.20186234
vt 0.72678816 0.19093657
vt 0.7296377 0.2760334
vt 0.7495758 0.22005558
vt 0.55891633 0.9662305
vt 0.5922339 0.9015738
vt 0.61143947 0.9757911
vt 0.5442295 0.9060155
vt 0.54845953 0.88612115
vt 0.56860304 0.8587924
vt 0.58318543 0.83391297
vt 0.61143947 0.8425299
vt 0.58281195 0.34121418
vt 0.53652984 0.38574266
vt 0.51290727 0.3570695
vt 0.5640419 0.2506776
vt 0.49579954 0.26056576
vt 0.48622772 0.3470602
vt 0.49326953 0.16512108
vt 0.54634494 0.1373272
vt 0.43986475 0.1499219
vt 0.47888508 0.13418627
vt 0.53810287 0.12372589
vt 0.45689094 0.08685875
vt 0.5121323 0.08250618
vt 0.49097848 0.0036392212
vt 0.57778907 0.02139616
vt 0.58281195 0.084019184
vt 0.56546235 0.15651321
vt 0.7765409 0.6499436
vt 0.77622354 0.7437546
vt 0.7361802 0.69964933
vt 0.67653656 0.7371383
vt 0.77654094 0.8337269
vt 0.6879344 0.8361132
vt 0.6553969 0.86943746
vt 0.70291305 0.8868731
vt 0.71013117 0.971077
vt 0.65539694 0.971077
vt 0.67677927 0.8767158
vt 0.8090407 0.32149696
vt 0.84441555 0.3240695
vt 0.84102654 0.36681628
vt 0.8116953 0.36468315
vt 0.7733887 0.3215344
vt 0.7866004 0.288234
vt 0.7821007 0.36681628
vt 0.14011115 0.8014283
vt 0.1353504 0.8443204
vt 0.12317091 0.8358741
vt 0.12005818 0.878158
vt 0.14011115 0.9034114
vt 0.9476197 0.92587113
vt 0.9476197 0.98801386
vt 0.9110441 0.99636084
vt 0.9110441 0.9448347
vt 0.87031114 0.39302105
vt 0.9168987 0.39369053
vt 0.9275825 0.415932
vt 0.856012 0.4729281
vt 0.8182663 0.42019266
vt 0.9253888 0.4796664
vt 0.8041513 0.45412713
vt 0.9275825 0.55208296
vt 0.8889886 0.5567482
vt 0.8193766 0.21626759
vt 0.873227 0.2804551
vt 0.8036128 0.23882651
vt 0.75685394 0.12812448
vt 0.773309 0.25874615
vt 0.8158251 0.13588381
vt 0.85866606 0.13524365
vt 0.873227 0.06848431
vt 0.791224 0.053290367
vt 0.7641256 0.055696964
vt 0.7682109 0.015006065
vt 0.8140278 0.0036392212
vt 0.81470394 0.053386927
vt 0.5175346 0.97618496
vt 0.4913391 0.9509202
vt 0.5369512 0.9629216
vt 0.5369512 0.8692274
vt 0.45981216 0.9219352
vt 0.44022834 0.8757967
vt 0.53517056 0.83391285
vt 0.43986475 0.90867615
vt 0.5900903 0.28797352
vt 0.6769434 0.28331167
vt 0.62745833 0.35935897
vt 0.68067384 0.28600973
vt 0.62803996 0.36523026
vt 0.68067384 0.38036174
vt 0.6286705 0.7095578
vt 0.6284676 0.62174
vt 0.6337411 0.6171466
vt 0.6337411 0.7133043
vt 0.14408994 0.5304086
vt 0.0575552 0.5249157
vt 0.14407027 0.52298856
vt 0.060165763 0.5318036
vt 0.017217755 0.5475795
vt 0.024039268 0.5512183
vt 0.003639102 0.62869143
vt 0.011310577 0.6288619
vt 0.050047874 0.75683355
vt 0.05604267 0.75208044
vt 0.14408994 0.7941501
vt 0.14408052 0.7870438
vt 0.94373345 0.29501605
vt 0.9636524 0.34466767
vt 0.89322567 0.34452772
vt 0.8805053 0.26835656
vt 0.92145467 0.23793936
vt 0.93056273 0.19030094
vt 0.9636524 0.2190423
vt 0.15136838 0.8828293
vt 0.18772888 0.8523823
vt 0.18459916 0.8790581
vt 0.249897 0.8515595
vt 0.24964237 0.87351906
vt 0.249897 0.9400712
vt 0.22085428 0.7534387
vt 0.17005515 0.7760277
vt 0.9802589 0.48951614
vt 0.9363083 0.52018106
vt 0.93486077 0.43969166
vt 0.9802589 0.393021
vt 0.6138434 0.7517505
vt 0.6151098 0.6220794
vt 0.6211893 0.6171466
vt 0.6211893 0.7543088
vt 0.5424597 0.81211025
vt 0.5444716 0.8262756
vt 0.48040593 0.77715325
vt 0.47013938 0.8266345
vt 0.47360125 0.7733006
vt 0.46921778 0.7773157
vt 0.44773105 0.77827287
vt 0.43986472 0.8160236
vt 0.46746588 0.6835647
vt 0.030359745 0.847517
vt 0.112780094 0.8014283
vt 0.112780094 0.868281
vt 0.022153854 0.86572623
vt 0.0068712234 0.8606516
vt 0.0036392212 0.9245527
vt 0.111730576 0.8989171
vt 0.014655113 0.9122443
vt 0.053132057 0.90880775
vt 0.07515764 0.92811567
vt 0.09974432 0.9358761
vt 0.032277107 0.9102699
vt 0.04845476 0.93554854
vt 0.028409481 0.9385146
vt 0.012401581 0.948142
vt 0.88494706 0.9226029
vt 0.87466 0.9560555
vt 0.8577864 0.9509256
vt 0.8970885 0.9206567
vt 0.882169 0.87921387
vt 0.8970885 0.87663627
vt 0.86154366 0.8830234
vt 0.86712503 0.92085326
vt 0.8512542 0.9104985
vt 0.7661104 0.35277665
vt 0.7285374 0.3803617
vt 0.68795204 0.34717986
vt 0.72703123 0.3177069
vt 0.7661104 0.28823394
vt 0.69608253 0.30455917
vt 0.73109645 0.29639655
vt 0.67792726 0.64156044
vt 0.72660685 0.52130425
vt 0.7968731 0.64266527
vt 0.6553967 0.5478516
vt 0.68288445 0.42728168
vt 0.7479801 0.43047652
vt 0.7372756 0.40265682
vt 0.7968731 0.393021
vt 0.3081553 0.86096895
vt 0.26812422 0.85728633
vt 0.26168334 0.75789654
vt 0.34041262 0.7695457
vt 0.33541918 0.6946839
vt 0.3948456 0.73062575
vt 0.3948456 0.8140665
vt 0.39473712 0.86206996
vt 0.8805054 0.0036392212
vt 0.9801983 0.00670743
vt 0.9801983 0.08590722
vt 0.8874839 0.057162046
vt 0.9081686 0.10700607
vt 0.8906271 0.11667371
vt 0.9782284 0.13529897
vt 0.96848243 0.18069983
vt 0.97430557 0.18302274
vt 0.9110441 0.76331913
vt 0.9656298 0.79412675
vt 0.9639616 0.8001498
vt 0.930436 0.7378639
vt 0.9656298 0.69657063
vt 0.9209312 0.6499436
vt 0.93157876 0.5800752
vt 0.93157876 0.6334191
vt 0.90383935 0.5640264
vt 0.8727588 0.6273424
vt 0.8723235 0.58724254
vt 0.9388571 0.63908076
vt 0.94412255 0.5640266
vt 0.96788716 0.5860343
vt 0.9780266 0.63908076
vt 0.31773514 0.8753247
vt 0.2708798 0.92137074
vt 0.26274544 0.8693483
vt 0.3170637 0.90850973
vt 0.2861817 0.94313264
vt 0.3168773 0.9501102
vt 0.26168346 0.9447961
vt 0.31773514 0.987437
vt 0.27583432 0.9821174
vn -0.0055918763 -0.8258626 0.036931634
vn 6.9747745E-07 -0.90779454 -0.08226594
vn 0.28919134 -0.6838459 -0.47579053
vn 0.52915835 0.31953645 -0.7238633
vn 0.5811942 -0.37729138 -0.5200759
vn 0.26882365 -0.22630455 -0.80208045
vn 0.68449014 -0.19706134 0.6663531
vn 0.45929593 -0.689678 -0.39586437
vn 0.6080402 -0.35224134 -0.5449424
vn -0.00021333265 0.269422 -0.9315113
vn -3.149273E-07 -0.86800116 -0.4503077
vn 0.46574023 -0.7788576 -0.38115153
vn 0.5076927 -0.40326485 0.730224
vn 0.002602049 -0.5776026 0.77971166
vn 0.005433294 -0.48266748 0.8462376
vn -0.051417172 0.62737304 -0.77701896
vn 0.5935214 0.27254176 -0.7572667
vn 0.90410656 0.3415198 -0.25681782
vn -0.0055918763 -0.8258626 0.036931634
vn -0.29905754 -0.7342246 -0.54180604
vn 6.9747745E-07 -0.90779454 -0.08226594
vn -0.5291742 0.6855971 0.4624367
vn -0.26881492 0.5756411 -0.66510415
vn -0.5790728 0.29756865 -0.69033575
vn -0.68447983 -0.6480922 -0.2838155
vn -0.604298 0.5642477 -0.4999223
vn -0.45927575 0.31996801 -0.77274376
vn -0.00021333265 0.269422 -0.9315113
vn -0.46574083 -0.7788574 -0.38115108
vn -3.149273E-07 -0.86800116 -0.4503077
vn -0.5112445 -0.34626514 0.7551903
vn 0.005433294 -0.48266748 0.8462376
vn 0.002602049 -0.5776026 0.77971166
vn 0.14203745 -0.58330566 -0.7997371
vn -0.8322118 -0.08018474 -0.54862916
vn -0.55691624 -0.6050347 -0.5690142
vn -0.83829844 -0.54220355 0.057190925
vn -0.80626357 0.34053463 -0.48370937
vn -0.2879735 -0.11686385 -0.9504806
vn -0.9644305 0.15087947 -0.21704566
vn -0.57486755 -0.57454544 -0.5826014
vn -0.24002998 -0.8716445 -0.42734152
vn -0.9574204 -0.18128754 -0.22467907
vn -0.4320085 0.8666431 0.24959567
vn 0.19475546 0.76744604 0.42377818
vn 0.46380055 0.6496468 0.37183478
vn 0.2598323 0.7865851 -0.16795102
vn 0.3216672 0.19100198 0.8887948
vn 0.52932924 0.32206288 0.7656125
vn 0.4081068 -0.3141426 0.8221179
vn 0.18316892 0.65915823 0.7189518
vn -0.485271 0.86614895 0.016008884
vn 0.28493693 0.5902944 0.6696331
vn 0.025773006 0.55108345 0.7874197
vn 0.017203264 0.055324167 0.9667829
vn 0.03304016 0.78638744 0.545299
vn 0.028076446 0.77370554 0.1374424
vn 0.2589821 0.42594296 0.51048434
vn 0.5260768 0.24864906 0.47130054
vn 0.028802495 0.49230045 0.55153245
vn 0.15672469 0.9610606 0.17316386
vn 0.7078597 0.68325275 0.1791647
vn -0.4320085 0.8666431 0.24959567
vn 0.7082852 0.43165416 0.5453208
vn 0.7578762 -0.1365495 0.63275933
vn 0.8313942 -0.38847208 0.37579316
vn 0.4007175 0.853174 0.33394486
vn 0.15953502 0.97662425 -0.14405927
vn 0.90410656 0.3415198 -0.25681782
vn -0.506437 0.79832697 0.32587588
vn -0.5068078 0.29376918 0.81045985
vn 0.25538462 -0.79400533 -0.5231795
vn 0.31639573 -0.104688704 -0.86035633
vn 0.64805585 -0.33021444 -0.5843088
vn 0.7804757 -0.2755899 -0.4300754
vn 0.6064253 -0.21511926 0.4680977
vn 0.21099383 -0.10737118 0.7612257
vn 0.2598323 0.7865851 -0.16795102
vn 0.5260768 0.24864906 0.47130054
vn 0.46380055 0.6496468 0.37183478
vn -0.6251823 0.09697334 -0.77330977
vn -0.41222084 0.73612785 -0.5313794
vn -0.8737508 0.48527205 -0.026406646
vn -0.84876484 -0.45018148 -0.27723187
vn -0.40898398 -0.8663948 -0.15091383
vn -0.95835257 -0.025908953 -0.25040606
vn -0.25989446 0.73154134 -0.31930003
vn -0.6733509 -0.5919141 0.28524548
vn -0.98153514 0.11918444 -0.118327156
vn -0.75806224 -0.124363855 -0.57410026
vn -0.2036795 -0.52927864 -0.6766016
vn -0.46117908 -0.26784483 -0.732806
vn -0.5590586 -0.39809048 -0.6181461
vn 2.0952598E-07 -0.14552371 -0.8651546
vn 0.0005369072 0.46527457 -0.7209666
vn -0.1417581 -0.15423842 -0.85808235
vn 0.28919134 -0.6838459 -0.47579053
vn 6.9747745E-07 -0.90779454 -0.08226594
vn 0.0990755 -0.90255 -0.34924456
vn 0.64805585 -0.33021444 -0.5843088
vn 0.25538462 -0.79400533 -0.5231795
vn 0.7804757 -0.2755899 -0.4300754
vn 0.21099383 -0.10737118 0.7612257
vn -0.0055918763 -0.8258626 0.036931634
vn 4.1556927E-06 -0.43125272 0.700404
vn 0.5265789 0.72101957 -0.44472408
vn 0.94665813 -0.17070717 -0.2728353
vn 0.9902152 0.08577725 0.11003795
vn 0.38494012 0.92270774 -0.020745441
vn 0.8081579 0.5259137 -0.07941394
vn 0.8033051 -0.43562523 0.33215842
vn 0.9816702 0.09806926 -0.16112147
vn 0.52915835 0.31953645 -0.7238633
vn 0.5811942 -0.37729138 -0.5200759
vn 0.6080402 -0.35224134 -0.5449424
vn 0.9842533 -0.033088878 0.17228213
vn 0.75789934 -0.33463734 0.54333913
vn 0.68449014 -0.19706134 0.6663531
vn 0.52915835 0.31953645 -0.7238633
vn -0.75806224 -0.124363855 -0.57410026
vn -0.25989446 0.73154134 -0.31930003
vn 0.8081579 0.5259137 -0.07941394
vn 0.38494012 0.92270774 -0.020745441
vn -0.8737508 0.48527205 -0.026406646
vn -0.41222084 0.73612785 -0.5313794
vn 0.5265789 0.72101957 -0.44472408
vn 0.4081068 -0.3141426 0.8221179
vn 0.52932924 0.32206288 0.7656125
vn 0.8313942 -0.38847208 0.37579316
vn 0.18316892 0.65915823 0.7189518
vn 0.53364044 -0.8179416 -0.18031883
vn -3.0107398E-07 -0.9304824 -0.3267145
vn -3.8913817E-07 -0.79624736 -0.58686924
vn 0.4701819 -0.81588906 -0.33313423
vn -1.338732E-07 -0.9882454 0.15287408
vn 0.5725778 -0.8182328 0.051474243
vn 0.7412628 -0.609528 -0.2719208
vn 0.91667867 -0.39006916 -0.053242587
vn 0.41431186 -0.6133187 0.62254417
vn 0.5076927 -0.40326485 0.730224
vn 0.005433294 -0.48266748 0.8462376
vn 0.3216672 0.19100198 0.8887948
vn 0.017203264 0.055324167 0.9667829
vn 0.41431186 -0.6133187 0.62254417
vn 0.3216672 0.19100198 0.8887948
vn 0.4081068 -0.3141426 0.8221179
vn 0.8313942 -0.38847208 0.37579316
vn 0.5455835 -0.7810877 -0.29672015
vn 0.20437416 -0.95013416 0.023282945
vn 0.5076927 -0.40326485 0.730224
vn 0.6959119 -0.69447577 0.0061939657
vn 0.25538462 -0.79400533 -0.5231795
vn 0.58595353 -0.77930367 -0.11221513
vn 0.0990755 -0.90255 -0.34924456
vn -0.08022806 -0.9684826 -0.0112532675
vn 0.49586466 -0.36317855 -0.7610426
vn 6.9747745E-07 -0.90779454 -0.08226594
vn -0.0057348274 -0.4962278 -0.83301115
vn -0.24002998 -0.8716445 -0.42734152
vn 0.81060946 -0.54191756 -0.22189498
vn 0.39473766 -0.53555036 -0.7465704
vn -0.57486755 -0.57454544 -0.5826014
vn -0.80626357 0.34053463 -0.48370937
vn -0.2879735 -0.11686385 -0.9504806
vn -0.051417172 0.62737304 -0.77701896
vn 0.5935214 0.27254176 -0.7572667
vn 0.39473766 -0.53555036 -0.7465704
vn 0.90410656 0.3415198 -0.25681782
vn 0.5935214 0.27254176 -0.7572667
vn 0.81060946 -0.54191756 -0.22189498
vn 0.7078597 0.68325275 0.1791647
vn 0.4007175 0.853174 0.33394486
vn 0.9535037 -0.13300161 0.26684752
vn 0.5175016 -0.8438244 0.075764775
vn 0.7082852 0.43165416 0.5453208
vn 0.78440976 -0.35585007 0.49921578
vn 0.38213396 -0.9025047 0.16081324
vn 0.7578762 -0.1365495 0.63275933
vn 0.79000497 -0.60769486 -0.07210812
vn 0.8313942 -0.38847208 0.37579316
vn 0.5455835 -0.7810877 -0.29672015
vn 0.29182926 -0.5672593 -0.7700988
vn -0.021945987 -0.8405236 -0.5337142
vn -0.9574204 -0.18128754 -0.22467907
vn -0.820958 0.38778624 -0.41492337
vn -0.73482877 -0.24750331 -0.6248112
vn -0.485271 0.86614895 0.016008884
vn 0.31639573 -0.104688704 -0.86035633
vn 0.2598323 0.7865851 -0.16795102
vn 0.19475546 0.76744604 0.42377818
vn -0.24002998 -0.8716445 -0.42734152
vn -0.73482877 -0.24750331 -0.6248112
vn -0.16169249 -0.9468374 -0.2583772
vn -0.9574204 -0.18128754 -0.22467907
vn -0.051417172 0.62737304 -0.77701896
vn -0.7663383 -0.0028446913 -0.6424304
vn -0.2879735 -0.11686385 -0.9504806
vn -0.65667546 0.6411017 -0.39719662
vn 0.15953502 0.97662425 -0.14405927
vn 0.90410656 0.3415198 -0.25681782
vn -0.506437 0.79832697 0.32587588
vn -0.8049775 -0.48529208 -0.34132534
vn -0.24558884 -0.80877614 0.53438586
vn -0.0676602 -0.78756326 -0.61250675
vn 0.27096555 -0.84735507 0.4557236
vn 0.61922807 -0.6370284 -0.45817164
vn -0.2879735 -0.11686385 -0.9504806
vn -0.7663383 -0.0028446913 -0.6424304
vn -0.8972959 -0.41898882 0.13895342
vn -0.83829844 -0.54220355 0.057190925
vn -0.0676602 -0.78756326 -0.61250675
vn -0.84876484 -0.45018148 -0.27723187
vn -0.8049775 -0.48529208 -0.34132534
vn 0.046708185 0.007459269 -0.99807036
vn 0.61922807 -0.6370284 -0.45817164
vn -0.6251823 0.09697334 -0.77330977
vn 0.94665813 -0.17070717 -0.2728353
vn -0.41222084 0.73612785 -0.5313794
vn 0.5265789 0.72101957 -0.44472408
vn -0.40898398 -0.8663948 -0.15091383
vn 0.46020278 -0.84614706 0.2655817
vn -0.84876484 -0.45018148 -0.27723187
vn 0.8033051 -0.43562523 0.33215842
vn 0.9902152 0.08577725 0.11003795
vn 0.032370474 -0.73655075 0.5504949
vn -0.6733509 -0.5919141 0.28524548
vn -0.2036795 -0.52927864 -0.6766016
vn 0.36599636 -0.59942645 0.66337085
vn 0.75789934 -0.33463734 0.54333913
vn 0.68449014 -0.19706134 0.6663531
vn 0.45929593 -0.689678 -0.39586437
vn 0.019993914 -0.70401394 0.6136896
vn -0.8049775 -0.48529208 -0.34132534
vn -0.84876484 -0.45018148 -0.27723187
vn -0.24558884 -0.80877614 0.53438586
vn 0.46020278 -0.84614706 0.2655817
vn 0.27096555 -0.84735507 0.4557236
vn 0.94665813 -0.17070717 -0.2728353
vn 0.9902152 0.08577725 0.11003795
vn 0.61922807 -0.6370284 -0.45817164
vn 0.52915835 0.31953645 -0.7238633
vn 0.26882365 -0.22630455 -0.80208045
vn -0.75806224 -0.124363855 -0.57410026
vn -0.5590586 -0.39809048 -0.6181461
vn -0.07925223 0.04446429 -0.8598764
vn 0.0005369072 0.46527457 -0.7209666
vn 0.5811942 -0.37729138 -0.5200759
vn 0.772439 0.1919666 -0.47211272
vn -0.07925223 0.04446429 -0.8598764
vn 0.26882365 -0.22630455 -0.80208045
vn 0.028802495 0.49230045 0.55153245
vn 0.021256391 0.21433777 0.7068003
vn 0.22019139 0.47054526 0.4791125
vn 0.2589821 0.42594296 0.51048434
vn 0.57854915 0.30238378 0.42538875
vn 0.5260768 0.24864906 0.47130054
vn 0.5696952 -0.0824272 0.52838194
vn 0.6064253 -0.21511926 0.4680977
vn 0.49919897 -0.25314802 0.6463546
vn 0.21099383 -0.10737118 0.7612257
vn 5.8709256E-06 -0.62190014 0.5437961
vn 4.1556927E-06 -0.43125272 0.700404
vn 0.29182926 -0.5672593 -0.7700988
vn 0.25538462 -0.79400533 -0.5231795
vn 0.5455835 -0.7810877 -0.29672015
vn 0.31639573 -0.104688704 -0.86035633
vn -0.38468644 -0.40860152 -0.81936896
vn -0.73482877 -0.24750331 -0.6248112
vn -0.021945987 -0.8405236 -0.5337142
vn -0.73482877 -0.24750331 -0.6248112
vn -0.021945987 -0.8405236 -0.5337142
vn -0.16169249 -0.9468374 -0.2583772
vn 0.5175016 -0.8438244 0.075764775
vn 0.38213396 -0.9025047 0.16081324
vn 0.79000497 -0.60769486 -0.07210812
vn 0.81060946 -0.54191756 -0.22189498
vn -0.24002998 -0.8716445 -0.42734152
vn -0.4320085 0.8666431 0.24959567
vn -0.820958 0.38778624 -0.41492337
vn -0.9574204 -0.18128754 -0.22467907
vn -0.485271 0.86614895 0.016008884
vn 0.6080402 -0.35224134 -0.5449424
vn 0.772439 0.1919666 -0.47211272
vn 0.5811942 -0.37729138 -0.5200759
vn 0.89147836 -0.26923478 -0.23896658
vn 0.45929593 -0.689678 -0.39586437
vn 0.88713145 -0.19854651 -0.3425849
vn -0.2036795 -0.52927864 -0.6766016
vn 0.27000916 0.49046564 -0.6725519
vn -0.46117908 -0.26784483 -0.732806
vn -0.1417581 -0.15423842 -0.85808235
vn 1.3578949E-07 -0.1097559 -0.8758773
vn -4.847521E-06 0.40301782 -0.76850545
vn 2.0952598E-07 -0.14552371 -0.8651546
vn 0.6959119 -0.69447577 0.0061939657
vn 0.7278146 -0.15890175 0.64650965
vn 0.5076927 -0.40326485 0.730224
vn 0.9742128 -0.09195995 0.18590967
vn 0.58595353 -0.77930367 -0.11221513
vn 0.9239948 -0.21391594 -0.30299914
vn 0.84906244 -0.2492527 0.46089086
vn 0.8337634 -0.31406415 0.43917844
vn 0.91667867 -0.39006916 -0.053242587
vn 0.7412628 -0.609528 -0.2719208
vn 0.5725778 -0.8182328 0.051474243
vn 0.86215305 -0.4206646 0.26311028
vn 0.53364044 -0.8179416 -0.18031883
vn 0.48062402 -0.838613 0.21145496
vn 0.36480814 -0.8041355 0.43748754
vn 0.36480814 -0.8041355 0.43748754
vn 0.8337634 -0.31406415 0.43917844
vn 0.9239948 -0.21391594 -0.30299914
vn 0.46574023 -0.7788576 -0.38115153
vn -4.0379533E-08 -0.9294653 0.31585628
vn -3.149273E-07 -0.86800116 -0.4503077
vn -3.0107398E-07 -0.9304824 -0.3267145
vn 0.48062402 -0.838613 0.21145496
vn 0.53364044 -0.8179416 -0.18031883
vn 0.9239948 -0.21391594 -0.30299914
vn -0.00021333265 0.269422 -0.9315113
vn 0.46574023 -0.7788576 -0.38115153
vn 0.36011055 0.5251459 -0.7380411
vn 0.58595353 -0.77930367 -0.11221513
vn -0.0057348274 -0.4962278 -0.83301115
vn 0.49586466 -0.36317855 -0.7610426
vn 0.57854915 0.30238378 0.42538875
vn 0.772439 0.1919666 -0.47211272
vn 0.89147836 -0.26923478 -0.23896658
vn 0.5696952 -0.0824272 0.52838194
vn 0.49919897 -0.25314802 0.6463546
vn 0.88713145 -0.19854651 -0.3425849
vn 0.7069313 -0.5163011 0.28030235
vn 0.82126397 -0.022133619 -0.48037776
vn 0.22019139 0.47054526 0.4791125
vn 0.772439 0.1919666 -0.47211272
vn 0.57854915 0.30238378 0.42538875
vn 0.03724114 0.64942235 -0.44885647
vn -0.07925223 0.04446429 -0.8598764
vn 0.0005369072 0.46527457 -0.7209666
vn 0.017590584 0.77566475 0.04911705
vn 0.021256391 0.21433777 0.7068003
vn 0.49919897 -0.25314802 0.6463546
vn 7.323253E-06 -0.8459153 0.10959309
vn 5.8709256E-06 -0.62190014 0.5437961
vn 0.7069313 -0.5163011 0.28030235
vn 0.4462189 -0.7500106 0.023841113
vn 0.82126397 -0.022133619 -0.48037776
vn 7.950399E-06 -0.83639586 -0.144009
vn 0.4533526 -0.025762469 -0.7624459
vn -1.4464035E-07 -0.08435494 -0.85156703
vn -4.847521E-06 0.40301782 -0.76850545
vn -1.4464035E-07 -0.08435494 -0.85156703
vn 0.4533526 -0.025762469 -0.7624459
vn 0.27000916 0.49046564 -0.6725519
vn 0.82126397 -0.022133619 -0.48037776
vn 0.88713145 -0.19854651 -0.3425849
vn -0.7663383 -0.0028446913 -0.6424304
vn -0.65667546 0.6411017 -0.39719662
vn -0.8972959 -0.41898882 0.13895342
vn -0.5068078 0.29376918 0.81045985
vn -0.506437 0.79832697 0.32587588
vn -0.83829844 -0.54220355 0.057190925
vn -0.8972959 -0.41898882 0.13895342
vn -0.5068078 0.29376918 0.81045985
vn -0.4320085 0.8666431 0.24959567
vn 0.002602049 -0.5776026 0.77971166
vn 0.5076927 -0.40326485 0.730224
vn 0.7278146 -0.15890175 0.64650965
vn 3.3436226E-07 -0.21906018 0.9573333
vn 0.3763894 -0.44111893 0.81358373
vn 2.0402098E-07 -0.6286886 0.77247685
vn 0.84906244 -0.2492527 0.46089086
vn -1.338732E-07 -0.9882454 0.15287408
vn 0.5725778 -0.8182328 0.051474243
vn 0.72336155 -0.15947118 0.6718014
vn 0.22911096 -0.96786094 -0.10369632
vn 0.83917284 -0.4410583 -0.3182084
vn 0.9678342 -0.24871077 -0.03795147
vn 0.43733397 -0.76046234 0.48003745
vn 0.05815112 -0.6625714 0.7467379
vn 0.89849114 -0.3439392 0.27279967
vn 0.5947483 0.43447453 -0.6763924
vn -0.11128558 0.9436444 -0.0125323385
vn -0.174968 0.6850266 -0.59130245
vn -0.42586645 0.78881335 0.27745768
vn -0.31170177 0.3638031 0.8281665
vn -0.4693264 0.7600913 0.38349807
vn -0.41101477 0.16765259 0.8548709
vn -0.074051484 0.9517105 0.008652065
vn 0.6022058 0.39714926 -0.6319264
vn -0.26956555 0.6708847 0.6284972
vn 0.025773006 0.55108345 0.7874197
vn 0.017203264 0.055324167 0.9667829
vn 0.03304016 0.78638744 0.545299
vn 0.028076446 0.77370554 0.1374424
vn -0.25762275 0.08776522 0.8885616
vn -0.5328151 -0.18297324 0.76456
vn 0.028802495 0.49230045 0.55153245
vn 0.008628391 0.54014623 -0.7608015
vn -0.5610014 0.41311896 -0.71736336
vn 0.5947483 0.43447453 -0.6763924
vn -0.609098 0.7146815 -0.1447237
vn -0.73385954 0.47531968 0.43664575
vn -0.8502872 0.046019815 0.5123048
vn -0.22248061 0.5813774 -0.78262544
vn 0.021464884 0.13513142 -0.9905953
vn -0.8322118 -0.08018474 -0.54862916
vn 0.6575699 0.48331356 -0.57793635
vn 0.57961553 0.8142017 0.033485472
vn -0.3410212 -0.9094982 0.036598757
vn -0.66466933 -0.42977494 -0.5654671
vn -0.36146784 -0.6136625 -0.6485702
vn -0.7922321 -0.33071515 -0.47558463
vn -0.62476295 -0.622921 0.3807747
vn -0.21414986 -0.9111771 0.14191288
vn -0.174968 0.6850266 -0.59130245
vn -0.5328151 -0.18297324 0.76456
vn -0.42586645 0.78881335 0.27745768
vn 0.62518847 0.7507929 0.18915197
vn 0.87373435 0.18904015 0.4458453
vn 0.41219777 0.591748 0.668932
vn 0.848793 0.3532956 -0.39281324
vn 0.4090171 -0.15956281 -0.89117163
vn 0.95835733 0.2613187 -0.09725193
vn 0.25986436 0.40862477 0.83886117
vn 0.6733729 -0.27177745 -0.6483749
vn 0.98153013 0.117958896 0.13989201
vn 0.7580647 0.60213935 -0.13296051
vn 0.20369053 -0.008437946 -0.90211606
vn 0.46118662 0.22697194 -0.78773576
vn 0.55907047 0.5800745 -0.5085275
vn 2.0952598E-07 -0.14552371 -0.8651546
vn 0.0005369072 0.46527457 -0.7209666
vn 0.14176488 0.3872856 -0.8307503
vn -0.29905754 -0.7342246 -0.54180604
vn -0.11463287 -0.92023486 -0.24745947
vn 6.9747745E-07 -0.90779454 -0.08226594
vn -0.66466933 -0.42977494 -0.5654671
vn -0.3410212 -0.9094982 0.036598757
vn -0.7922321 -0.33071515 -0.47558463
vn -0.21414986 -0.9111771 0.14191288
vn -0.0055918763 -0.8258626 0.036931634
vn 4.1556927E-06 -0.43125272 0.700404
vn -0.5266025 0.5101149 0.65897185
vn -0.99022 -0.07133773 0.11970423
vn -0.946645 0.29117134 -0.13282704
vn -0.38497022 0.36140126 0.8492272
vn -0.8081764 0.24406452 0.52334815
vn -0.80328625 -0.2434737 -0.53293955
vn -0.98167485 0.12854613 0.13981192
vn -0.5291742 0.6855971 0.4624367
vn -0.5790728 0.29756865 -0.69033575
vn -0.604298 0.5642477 -0.4999223
vn -0.9842506 -0.157624 -0.07814594
vn -0.75788385 -0.46043524 -0.44935244
vn -0.68447983 -0.6480922 -0.2838155
vn -0.5291742 0.6855971 0.4624367
vn 0.25986436 0.40862477 0.83886117
vn 0.7580647 0.60213935 -0.13296051
vn -0.8081764 0.24406452 0.52334815
vn -0.38497022 0.36140126 0.8492272
vn 0.87373435 0.18904015 0.4458453
vn 0.41219777 0.591748 0.668932
vn -0.5266025 0.5101149 0.65897185
vn -0.41101477 0.16765259 0.8548709
vn -0.8502872 0.046019815 0.5123048
vn -0.4693264 0.7600913 0.38349807
vn -0.074051484 0.9517105 0.008652065
vn -0.53364086 -0.81794125 -0.18031843
vn -3.8913817E-07 -0.79624736 -0.58686924
vn -3.0107398E-07 -0.9304824 -0.3267145
vn -0.4701824 -0.81588894 -0.33313385
vn -1.338732E-07 -0.9882454 0.15287408
vn -0.5725781 -0.8182325 0.05147469
vn -0.7412631 -0.6095279 -0.27192017
vn -0.9166789 -0.39006877 -0.053241886
vn -0.4281376 -0.4895168 0.7169503
vn 0.005433294 -0.48266748 0.8462376
vn -0.5112445 -0.34626514 0.7551903
vn -0.31170177 0.3638031 0.8281665
vn 0.017203264 0.055324167 0.9667829
vn -0.4281376 -0.4895168 0.7169503
vn -0.41101477 0.16765259 0.8548709
vn -0.31170177 0.3638031 0.8281665
vn -0.8502872 0.046019815 0.5123048
vn -0.63972205 -0.6900871 0.32479975
vn -0.22879703 -0.9163681 0.18481362
vn -0.5112445 -0.34626514 0.7551903
vn -0.70346713 -0.68904436 0.056020975
vn -0.3410212 -0.9094982 0.036598757
vn -0.59688467 -0.77881545 -0.040334493
vn -0.11463287 -0.92023486 -0.24745947
vn 0.070248984 -0.9585172 0.05463779
vn -0.50017637 -0.40293998 -0.7338221
vn 6.9747745E-07 -0.90779454 -0.08226594
vn -0.0057348274 -0.4962278 -0.83301115
vn 0.05815112 -0.6625714 0.7467379
vn -0.51273847 -0.8266095 0.23198284
vn -0.9047 -0.28978008 0.31232345
vn 0.43733397 -0.76046234 0.48003745
vn 0.83917284 -0.4410583 -0.3182084
vn 0.22911096 -0.96786094 -0.10369632
vn 0.14203745 -0.58330566 -0.7997371
vn -0.55691624 -0.6050347 -0.5690142
vn -0.51273847 -0.8266095 0.23198284
vn -0.55691624 -0.6050347 -0.5690142
vn -0.8322118 -0.08018474 -0.54862916
vn -0.9047 -0.28978008 0.31232345
vn -0.5610014 0.41311896 -0.71736336
vn -0.22248061 0.5813774 -0.78262544
vn -0.94946617 0.27506298 0.07674506
vn -0.63477725 -0.26163816 0.6674062
vn -0.609098 0.7146815 -0.1447237
vn -0.80443704 0.33864453 0.4209796
vn -0.4883719 -0.3304043 0.7563515
vn -0.73385954 0.47531968 0.43664575
vn -0.8581203 -0.3490202 0.366064
vn -0.8502872 0.046019815 0.5123048
vn -0.63972205 -0.6900871 0.32479975
vn -0.39444068 -0.91287667 -0.10522618
vn -0.10742314 -0.9221957 0.30071864
vn 0.89849114 -0.3439392 0.27279967
vn 0.65396154 -0.70839715 0.11639717
vn 0.8595957 -0.32912016 -0.359027
vn 0.6022058 0.39714926 -0.6319264
vn -0.36146784 -0.6136625 -0.6485702
vn -0.174968 0.6850266 -0.59130245
vn -0.11128558 0.9436444 -0.0125323385
vn 0.05815112 -0.6625714 0.7467379
vn -0.020033695 -0.54329425 0.8010383
vn 0.65396154 -0.70839715 0.11639717
vn 0.89849114 -0.3439392 0.27279967
vn 0.14203745 -0.58330566 -0.7997371
vn 0.22911096 -0.96786094 -0.10369632
vn 0.7303746 -0.68160486 -0.044357985
vn 0.75149107 -0.26543534 -0.60399127
vn 0.021464884 0.13513142 -0.9905953
vn -0.8322118 -0.08018474 -0.54862916
vn 0.6575699 0.48331356 -0.57793635
vn 0.8050085 0.42516312 -0.4137603
vn 0.0677115 0.74758255 -0.6607071
vn 0.24562581 -0.37560993 -0.8936366
vn -0.27092615 -0.30834633 -0.9091781
vn -0.61918736 0.5509911 -0.5553368
vn 0.22911096 -0.96786094 -0.10369632
vn 0.72336155 -0.15947118 0.6718014
vn 0.80708474 -0.053061202 0.58804667
vn 0.7303746 -0.68160486 -0.044357985
vn 0.0677115 0.74758255 -0.6607071
vn 0.8050085 0.42516312 -0.4137603
vn 0.848793 0.3532956 -0.39281324
vn -0.046694484 0.98181206 0.15761584
vn -0.61918736 0.5509911 -0.5553368
vn 0.62518847 0.7507929 0.18915197
vn -0.946645 0.29117134 -0.13282704
vn 0.41219777 0.591748 0.668932
vn -0.5266025 0.5101149 0.65897185
vn 0.4090171 -0.15956281 -0.89117163
vn 0.848793 0.3532956 -0.39281324
vn -0.46017826 -0.52474225 -0.70946
vn -0.80328625 -0.2434737 -0.53293955
vn -0.99022 -0.07133773 0.11970423
vn -0.032338884 -0.39978182 -0.89834654
vn 0.6733729 -0.27177745 -0.6483749
vn 0.20369053 -0.008437946 -0.90211606
vn -0.36597255 -0.57078546 -0.7056004
vn -0.75788385 -0.46043524 -0.44935244
vn -0.68447983 -0.6480922 -0.2838155
vn -0.45927575 0.31996801 -0.77274376
vn -0.019969149 -0.59996283 -0.74744195
vn 0.8050085 0.42516312 -0.4137603
vn 0.24562581 -0.37560993 -0.8936366
vn 0.848793 0.3532956 -0.39281324
vn -0.46017826 -0.52474225 -0.70946
vn -0.27092615 -0.30834633 -0.9091781
vn -0.946645 0.29117134 -0.13282704
vn -0.99022 -0.07133773 0.11970423
vn -0.61918736 0.5509911 -0.5553368
vn -0.5291742 0.6855971 0.4624367
vn 0.7580647 0.60213935 -0.13296051
vn -0.26881492 0.5756411 -0.66510415
vn 0.55907047 0.5800745 -0.5085275
vn 0.07925581 0.7639352 -0.49764854
vn 0.0005369072 0.46527457 -0.7209666
vn -0.5790728 0.29756865 -0.69033575
vn -0.26881492 0.5756411 -0.66510415
vn 0.07925581 0.7639352 -0.49764854
vn -0.76739776 0.58072 -0.09057996
vn 0.028802495 0.49230045 0.55153245
vn -0.21889682 0.06966698 0.8997252
vn 0.021256391 0.21433777 0.7068003
vn -0.25762275 0.08776522 0.8885616
vn -0.58344895 -0.15935421 0.7379711
vn -0.5328151 -0.18297324 0.76456
vn -0.58522046 -0.5846588 0.48185313
vn -0.62476295 -0.622921 0.3807747
vn -0.5013069 -0.8123573 -0.09432164
vn -0.21414986 -0.9111771 0.14191288
vn 5.8709256E-06 -0.62190014 0.5437961
vn 4.1556927E-06 -0.43125272 0.700404
vn -0.39444068 -0.91287667 -0.10522618
vn -0.63972205 -0.6900871 0.32479975
vn -0.3410212 -0.9094982 0.036598757
vn -0.36146784 -0.6136625 -0.6485702
vn 0.2849429 -0.9027671 -0.1387789
vn 0.65396154 -0.70839715 0.11639717
vn -0.10742314 -0.9221957 0.30071864
vn 0.65396154 -0.70839715 0.11639717
vn -0.020033695 -0.54329425 0.8010383
vn -0.10742314 -0.9221957 0.30071864
vn -0.63477725 -0.26163816 0.6674062
vn -0.4883719 -0.3304043 0.7563515
vn -0.8581203 -0.3490202 0.366064
vn -0.9047 -0.28978008 0.31232345
vn 0.05815112 -0.6625714 0.7467379
vn 0.5947483 0.43447453 -0.6763924
vn 0.89849114 -0.3439392 0.27279967
vn 0.8595957 -0.32912016 -0.359027
vn 0.6022058 0.39714926 -0.6319264
vn -0.604298 0.5642477 -0.4999223
vn -0.5790728 0.29756865 -0.69033575
vn -0.76739776 0.58072 -0.09057996
vn -0.890749 0.19550672 -0.37658185
vn -0.45927575 0.31996801 -0.77274376
vn -0.8871252 0.28417796 -0.32124618
vn 0.20369053 -0.008437946 -0.90211606
vn -0.27001226 0.8642378 -0.1969051
vn 0.46118662 0.22697194 -0.78773576
vn 0.14176488 0.3872856 -0.8307503
vn 1.3578949E-07 -0.1097559 -0.8758773
vn -4.847521E-06 0.40301782 -0.76850545
vn 2.0952598E-07 -0.14552371 -0.8651546
vn -0.70346713 -0.68904436 0.056020975
vn -0.5112445 -0.34626514 0.7551903
vn -0.728869 -0.14275534 0.65390146
vn -0.9753822 -0.084291354 0.19381495
vn -0.59688467 -0.77881545 -0.040334493
vn -0.9246131 -0.21951726 -0.29909402
vn -0.8490621 -0.24925238 0.46089154
vn -0.8339627 -0.31292728 0.44052222
vn -0.9166789 -0.39006877 -0.053241886
vn -0.7412631 -0.6095279 -0.27192017
vn -0.5725781 -0.8182325 0.05147469
vn -0.8623388 -0.42026934 0.26434392
vn -0.53364086 -0.81794125 -0.18031843
vn -0.48062414 -0.8386127 0.21145542
vn -0.36480802 -0.80413544 0.43748796
vn -0.36480802 -0.80413544 0.43748796
vn -0.9246131 -0.21951726 -0.29909402
vn -0.8339627 -0.31292728 0.44052222
vn -0.46574083 -0.7788574 -0.38115108
vn -4.0379533E-08 -0.9294653 0.31585628
vn -3.149273E-07 -0.86800116 -0.4503077
vn -3.0107398E-07 -0.9304824 -0.3267145
vn -0.48062414 -0.8386127 0.21145542
vn -0.53364086 -0.81794125 -0.18031843
vn -0.9246131 -0.21951726 -0.29909402
vn -0.46574083 -0.7788574 -0.38115108
vn -0.00021333265 0.269422 -0.9315113
vn -0.35729358 0.4884266 -0.7576029
vn -0.59688467 -0.77881545 -0.040334493
vn -0.0057348274 -0.4962278 -0.83301115
vn -0.50017637 -0.40293998 -0.7338221
vn -0.58344895 -0.15935421 0.7379711
vn -0.890749 0.19550672 -0.37658185
vn -0.76739776 0.58072 -0.09057996
vn -0.58522046 -0.5846588 0.48185313
vn -0.5013069 -0.8123573 -0.09432164
vn -0.8871252 0.28417796 -0.32124618
vn -0.7069203 -0.5363697 -0.3743605
vn -0.8212604 0.38422 -0.35603687
vn -0.21889682 0.06966698 0.8997252
vn -0.58344895 -0.15935421 0.7379711
vn -0.76739776 0.58072 -0.09057996
vn -0.031242061 0.8543145 0.3480637
vn 0.07925581 0.7639352 -0.49764854
vn 0.0005369072 0.46527457 -0.7209666
vn 0.017590584 0.77566475 0.04911705
vn 0.021256391 0.21433777 0.7068003
vn -0.5013069 -0.8123573 -0.09432164
vn 5.8709256E-06 -0.62190014 0.5437961
vn 7.323253E-06 -0.8459153 0.10959309
vn -0.7069203 -0.5363697 -0.3743605
vn -0.44620574 -0.56541204 -0.5963675
vn -0.8212604 0.38422 -0.35603687
vn 7.950399E-06 -0.83639586 -0.144009
vn -0.45334733 0.4845947 -0.6630058
vn -1.4464035E-07 -0.08435494 -0.85156703
vn -4.847521E-06 0.40301782 -0.76850545
vn -0.45334733 0.4845947 -0.6630058
vn -1.4464035E-07 -0.08435494 -0.85156703
vn -0.27001226 0.8642378 -0.1969051
vn -0.8212604 0.38422 -0.35603687
vn -0.8871252 0.28417796 -0.32124618
vn 0.7303746 -0.68160486 -0.044357985
vn 0.80708474 -0.053061202 0.58804667
vn 0.75149107 -0.26543534 -0.60399127
vn 0.57961553 0.8142017 0.033485472
vn 0.6575699 0.48331356 -0.57793635
vn 0.72336155 -0.15947118 0.6718014
vn 0.5947483 0.43447453 -0.6763924
vn 0.57961553 0.8142017 0.033485472
vn 0.80708474 -0.053061202 0.58804667
vn 0.002602049 -0.5776026 0.77971166
vn -0.728869 -0.14275534 0.65390146
vn -0.5112445 -0.34626514 0.7551903
vn 3.3436226E-07 -0.21906018 0.9573333
vn -0.37638903 -0.44111878 0.813584
vn 2.0402098E-07 -0.6286886 0.77247685
vn -0.8490621 -0.24925238 0.46089154
vn -1.338732E-07 -0.9882454 0.15287408
vn -0.5725781 -0.8182325 0.05147469
g 0.0333_0
f 3/3/3 2/2/2 1/1/1
f 6/6/6 5/5/5 4/4/4
f 9/9/9 8/8/8 7/7/7
f 12/12/12 11/11/11 10/10/10
f 15/15/15 14/14/14 13/13/13
f 18/18/18 17/17/17 16/16/16
f 21/21/21 20/20/20 19/19/19
f 24/24/24 23/23/23 22/22/22
f 27/27/27 26/26/26 25/25/25
f 30/30/30 29/29/29 28/28/28
f 33/33/33 32/32/32 31/31/31
f 36/36/36 35/35/35 34/34/34
f 39/39/39 38/38/38 37/37/37
f 38/38/38 40/40/40 37/37/37
f 38/38/38 41/41/41 40/40/40
f 37/37/37 40/40/40 41/41/41
f 41/41/41 42/42/42 37/37/37
f 42/42/42 43/43/43 37/37/37
f 37/37/37 43/43/43 44/44/44
f 47/47/47 46/46/46 45/45/45
f 48/48/48 45/45/45 46/46/46
f 45/45/45 48/48/48 49/49/49
f 49/49/49 48/48/48 50/50/50
f 49/49/49 51/51/51 45/45/45
f 52/52/52 45/45/45 51/51/51
f 53/53/53 48/48/48 46/46/46
f 53/53/53 54/54/54 48/48/48
f 54/54/54 55/55/55 48/48/48
f 56/56/56 54/54/54 53/53/53
f 57/57/57 56/56/56 53/53/53
f 53/53/53 46/46/46 57/57/57
f 58/58/58 57/57/57 46/46/46
f 58/58/58 46/46/46 59/59/59
f 58/58/58 60/60/60 57/57/57
f 51/51/51 61/61/61 52/52/52
f 61/61/61 62/62/62 52/52/52
f 62/62/62 63/63/63 52/52/52
f 61/61/61 64/64/64 62/62/62
f 61/61/61 51/51/51 64/64/64
f 65/65/65 64/64/64 51/51/51
f 51/51/51 66/66/66 65/65/65
f 63/63/63 62/62/62 67/67/67
f 67/67/67 68/68/68 63/63/63
f 67/67/67 69/69/69 68/68/68
f 68/68/68 70/70/70 63/63/63
f 70/70/70 71/71/71 63/63/63
f 74/74/74 73/73/73 72/72/72
f 73/73/73 74/74/74 75/75/75
f 73/73/73 75/75/75 76/76/76
f 75/75/75 77/77/77 76/76/76
f 76/76/76 78/78/78 73/73/73
f 76/76/76 79/79/79 78/78/78
f 79/79/79 80/80/80 78/78/78
f 83/83/83 82/82/82 81/81/81
f 83/83/83 81/81/81 84/84/84
f 85/85/85 83/83/83 84/84/84
f 83/83/83 85/85/85 86/86/86
f 83/83/83 86/86/86 87/87/87
f 85/85/85 88/88/88 86/86/86
f 87/87/87 86/86/86 89/89/89
f 89/89/89 86/86/86 88/88/88
f 87/87/87 89/89/89 90/90/90
f 89/89/89 88/88/88 90/90/90
f 90/90/90 88/88/88 91/91/91
f 91/91/91 92/92/92 90/90/90
f 92/92/92 93/93/93 90/90/90
f 93/93/93 92/92/92 94/94/94
f 93/93/93 94/94/94 95/95/95
f 92/92/92 96/96/96 94/94/94
f 99/99/99 98/98/98 97/97/97
f 97/97/97 100/100/100 99/99/99
f 99/99/99 100/100/100 101/101/101
f 100/100/100 97/97/97 102/102/102
f 97/97/97 103/103/103 102/102/102
f 104/104/104 103/103/103 97/97/97
f 104/104/104 105/105/105 103/103/103
f 108/108/108 107/107/107 106/106/106
f 108/108/108 106/106/106 109/109/109
f 110/110/110 108/108/108 109/109/109
f 108/108/108 110/110/110 111/111/111
f 111/111/111 110/110/110 112/112/112
f 112/112/112 110/110/110 113/113/113
f 112/112/112 113/113/113 114/114/114
f 114/114/114 115/115/115 112/112/112
f 112/112/112 116/116/116 111/111/111
f 112/112/112 115/115/115 116/116/116
f 117/117/117 111/111/111 116/116/116
f 117/117/117 116/116/116 115/115/115
f 118/118/118 117/117/117 115/115/115
f 121/121/121 120/120/120 119/119/119
f 121/121/121 119/119/119 122/122/122
f 122/122/122 123/123/123 121/121/121
f 124/124/124 121/121/121 123/123/123
f 125/125/125 124/124/124 123/123/123
f 126/126/126 125/125/125 123/123/123
f 129/129/129 128/128/128 127/127/127
f 130/130/130 128/128/128 129/129/129
f 133/133/133 132/132/132 131/131/131
f 131/131/131 134/134/134 133/133/133
f 133/133/133 134/134/134 135/135/135
f 135/135/135 134/134/134 136/136/136
f 134/134/134 137/137/137 136/136/136
f 137/137/137 134/134/134 131/131/131
f 138/138/138 137/137/137 131/131/131
f 141/141/141 140/140/140 139/139/139
f 141/141/141 139/139/139 142/142/142
f 143/143/143 141/141/141 142/142/142
f 146/146/146 145/145/145 144/144/144
f 144/144/144 147/147/147 146/146/146
f 148/148/148 147/147/147 144/144/144
f 148/148/148 144/144/144 149/149/149
f 150/150/150 149/149/149 144/144/144
f 150/150/150 151/151/151 149/149/149
f 149/149/149 152/152/152 148/148/148
f 149/149/149 151/151/151 153/153/153
f 153/153/153 152/152/152 149/149/149
f 154/154/154 152/152/152 153/153/153
f 154/154/154 153/153/153 155/155/155
f 156/156/156 155/155/155 153/153/153
f 155/155/155 157/157/157 154/154/154
f 157/157/157 155/155/155 156/156/156
f 158/158/158 157/157/157 156/156/156
f 161/161/161 160/160/160 159/159/159
f 161/161/161 159/159/159 162/162/162
f 163/163/163 161/161/161 162/162/162
f 163/163/163 164/164/164 161/161/161
f 164/164/164 165/165/165 161/161/161
f 165/165/165 166/166/166 161/161/161
f 169/169/169 168/168/168 167/167/167
f 170/170/170 167/167/167 168/168/168
f 171/171/171 170/170/170 168/168/168
f 171/171/171 168/168/168 172/172/172
f 170/170/170 171/171/171 173/173/173
f 174/174/174 170/170/170 173/173/173
f 171/171/171 175/175/175 173/173/173
f 174/174/174 173/173/173 176/176/176
f 175/175/175 176/176/176 173/173/173
f 177/177/177 174/174/174 176/176/176
f 175/175/175 178/178/178 176/176/176
f 177/177/177 176/176/176 178/178/178
f 179/179/179 177/177/177 178/178/178
f 178/178/178 180/180/180 179/179/179
f 179/179/179 180/180/180 181/181/181
f 179/179/179 181/181/181 182/182/182
f 179/179/179 182/182/182 183/183/183
f 186/186/186 185/185/185 184/184/184
f 187/187/187 185/185/185 186/186/186
f 186/186/186 188/188/188 187/187/187
f 189/189/189 187/187/187 188/188/188
f 190/190/190 187/187/187 189/189/189
f 193/193/193 192/192/192 191/191/191
f 191/191/191 192/192/192 194/194/194
f 197/197/197 196/196/196 195/195/195
f 196/196/196 198/198/198 195/195/195
f 195/195/195 198/198/198 199/199/199
f 200/200/200 195/195/195 199/199/199
f 198/198/198 201/201/201 199/199/199
f 204/204/204 203/203/203 202/202/202
f 203/203/203 204/204/204 205/205/205
f 206/206/206 205/205/205 204/204/204
f 209/209/209 208/208/208 207/207/207
f 210/210/210 209/209/209 207/207/207
f 213/213/213 212/212/212 211/211/211
f 212/212/212 214/214/214 211/211/211
f 211/211/211 214/214/214 215/215/215
f 216/216/216 214/214/214 212/212/212
f 215/215/215 214/214/214 217/217/217
f 214/214/214 216/216/216 218/218/218
f 219/219/219 217/217/217 214/214/214
f 214/214/214 218/218/218 219/219/219
f 222/222/222 221/221/221 220/220/220
f 221/221/221 223/223/223 220/220/220
f 223/223/223 221/221/221 224/224/224
f 225/225/225 220/220/220 223/223/223
f 226/226/226 220/220/220 225/225/225
f 226/226/226 225/225/225 227/227/227
f 225/225/225 223/223/223 228/228/228
f 228/228/228 223/223/223 229/229/229
f 228/228/228 229/229/229 230/230/230
f 231/231/231 228/228/228 230/230/230
f 225/225/225 232/232/232 227/227/227
f 232/232/232 225/225/225 228/228/228
f 232/232/232 228/228/228 231/231/231
f 231/231/231 227/227/227 232/232/232
f 235/235/235 234/234/234 233/233/233
f 236/236/236 234/234/234 235/235/235
f 237/237/237 236/236/236 235/235/235
f 237/237/237 238/238/238 236/236/236
f 236/236/236 238/238/238 239/239/239
f 238/238/238 237/237/237 240/240/240
f 243/243/243 242/242/242 241/241/241
f 243/243/243 244/244/244 242/242/242
f 244/244/244 245/245/245 242/242/242
f 245/245/245 244/244/244 246/246/246
f 249/249/249 248/248/248 247/247/247
f 250/250/250 249/249/249 247/247/247
f 253/253/253 252/252/252 251/251/251
f 254/254/254 253/253/253 251/251/251
f 255/255/255 253/253/253 254/254/254
f 256/256/256 255/255/255 254/254/254
f 257/257/257 255/255/255 256/256/256
f 258/258/258 257/257/257 256/256/256
f 259/259/259 257/257/257 258/258/258
f 260/260/260 259/259/259 258/258/258
f 261/261/261 259/259/259 260/260/260
f 262/262/262 261/261/261 260/260/260
f 265/265/265 264/264/264 263/263/263
f 266/266/266 263/263/263 264/264/264
f 267/267/267 263/263/263 266/266/266
f 267/267/267 266/266/266 268/268/268
f 267/267/267 269/269/269 263/263/263
f 269/269/269 267/267/267 268/268/268
f 272/272/272 271/271/271 270/270/270
f 272/272/272 273/273/273 271/271/271
f 274/274/274 271/271/271 273/273/273
f 274/274/274 275/275/275 271/271/271
f 276/276/276 273/273/273 272/272/272
f 277/277/277 276/276/276 272/272/272
f 280/280/280 279/279/279 278/278/278
f 281/281/281 278/278/278 279/279/279
f 284/284/284 283/283/283 282/282/282
f 283/283/283 285/285/285 282/282/282
f 282/282/282 285/285/285 286/286/286
f 285/285/285 287/287/287 286/286/286
f 286/286/286 287/287/287 288/288/288
f 287/287/287 289/289/289 288/288/288
f 289/289/289 290/290/290 288/288/288
f 290/290/290 289/289/289 291/291/291
f 292/292/292 291/291/291 289/289/289
f 293/293/293 292/292/292 289/289/289
f 292/292/292 294/294/294 291/291/291
f 297/297/297 296/296/296 295/295/295
f 295/295/295 296/296/296 298/298/298
f 295/295/295 298/298/298 299/299/299
f 299/299/299 298/298/298 300/300/300
f 296/296/296 301/301/301 298/298/298
f 298/298/298 302/302/302 300/300/300
f 303/303/303 298/298/298 301/301/301
f 301/301/301 304/304/304 303/303/303
f 305/305/305 304/304/304 301/301/301
f 306/306/306 298/298/298 303/303/303
f 302/302/302 298/298/298 306/306/306
f 303/303/303 307/307/307 306/306/306
f 307/307/307 308/308/308 306/306/306
f 306/306/306 308/308/308 302/302/302
f 308/308/308 309/309/309 302/302/302
f 312/312/312 311/311/311 310/310/310
f 313/313/313 312/312/312 310/310/310
f 310/310/310 314/314/314 313/313/313
f 314/314/314 315/315/315 313/313/313
f 316/316/316 314/314/314 310/310/310
f 317/317/317 316/316/316 310/310/310
f 318/318/318 316/316/316 317/317/317
f 321/321/321 320/320/320 319/319/319
f 320/320/320 322/322/322 319/319/319
f 319/319/319 322/322/322 323/323/323
f 322/322/322 320/320/320 324/324/324
f 323/323/323 322/322/322 325/325/325
f 325/325/325 322/322/322 324/324/324
f 328/328/328 327/327/327 326/326/326
f 326/326/326 329/329/329 328/328/328
f 329/329/329 330/330/330 328/328/328
f 331/331/331 328/328/328 330/330/330
f 330/330/330 332/332/332 331/331/331
f 332/332/332 333/333/333 331/331/331
f 336/336/336 335/335/335 334/334/334
f 335/335/335 337/337/337 334/334/334
f 335/335/335 338/338/338 337/337/337
f 339/339/339 337/337/337 338/338/338
f 339/339/339 340/340/340 337/337/337
f 334/334/334 337/337/337 340/340/340
f 340/340/340 341/341/341 334/334/334
f 344/344/344 343/343/343 342/342/342
f 343/343/343 345/345/345 342/342/342
f 346/346/346 345/345/345 343/343/343
f 346/346/346 347/347/347 345/345/345
f 346/346/346 343/343/343 348/348/348
f 347/347/347 346/346/346 349/349/349
f 348/348/348 349/349/349 346/346/346
f 349/349/349 348/348/348 350/350/350
f 353/353/353 352/352/352 351/351/351
f 354/354/354 353/353/353 351/351/351
f 355/355/355 353/353/353 354/354/354
f 356/356/356 355/355/355 354/354/354
f 359/359/359 358/358/358 357/357/357
f 359/359/359 360/360/360 358/358/358
f 361/361/361 358/358/358 360/360/360
f 364/364/364 363/363/363 362/362/362
f 365/365/365 364/364/364 362/362/362
f 368/368/368 367/367/367 366/366/366
f 369/369/369 368/368/368 366/366/366
f 370/370/370 368/368/368 369/369/369
f 371/371/371 370/370/370 369/369/369
f 370/370/370 372/372/372 368/368/368
f 371/371/371 373/373/373 370/370/370
f 374/374/374 372/372/372 370/370/370
f 373/373/373 374/374/374 370/370/370
f 377/377/377 376/376/376 375/375/375
f 378/378/378 377/377/377 375/375/375
f 379/379/379 377/377/377 378/378/378
f 378/378/378 375/375/375 379/379/379
f 380/380/380 379/379/379 375/375/375
f 381/381/381 380/380/380 375/375/375
f 381/381/381 375/375/375 382/382/382
f 385/385/385 384/384/384 383/383/383
f 383/383/383 386/386/386 385/385/385
f 386/386/386 383/383/383 387/387/387
f 386/386/386 387/387/387 388/388/388
f 389/389/389 387/387/387 383/383/383
f 383/383/383 390/390/390 389/389/389
f 386/386/386 391/391/391 385/385/385
f 392/392/392 391/391/391 386/386/386
f 393/393/393 392/392/392 386/386/386
f 392/392/392 394/394/394 391/391/391
f 394/394/394 395/395/395 391/391/391
f 385/385/385 391/391/391 395/395/395
f 395/395/395 396/396/396 385/385/385
f 385/385/385 396/396/396 397/397/397
f 398/398/398 396/396/396 395/395/395
f 399/399/399 389/389/389 390/390/390
f 400/400/400 399/399/399 390/390/390
f 401/401/401 400/400/400 390/390/390
f 402/402/402 399/399/399 400/400/400
f 389/389/389 399/399/399 402/402/402
f 402/402/402 403/403/403 389/389/389
f 404/404/404 389/389/389 403/403/403
f 400/400/400 401/401/401 405/405/405
f 406/406/406 405/405/405 401/401/401
f 407/407/407 405/405/405 406/406/406
f 408/408/408 406/406/406 401/401/401
f 409/409/409 408/408/408 401/401/401
f 412/412/412 411/411/411 410/410/410
f 411/411/411 412/412/412 413/413/413
f 413/413/413 412/412/412 414/414/414
f 415/415/415 413/413/413 414/414/414
f 416/416/416 414/414/414 412/412/412
f 417/417/417 414/414/414 416/416/416
f 418/418/418 417/417/417 416/416/416
f 421/421/421 420/420/420 419/419/419
f 419/419/419 420/420/420 422/422/422
f 420/420/420 423/423/423 422/422/422
f 423/423/423 420/420/420 424/424/424
f 424/424/424 420/420/420 425/425/425
f 426/426/426 423/423/423 424/424/424
f 424/424/424 425/425/425 427/427/427
f 424/424/424 427/427/427 426/426/426
f 427/427/427 425/425/425 428/428/428
f 426/426/426 427/427/427 428/428/428
f 426/426/426 428/428/428 429/429/429
f 430/430/430 429/429/429 428/428/428
f 431/431/431 430/430/430 428/428/428
f 430/430/430 431/431/431 432/432/432
f 432/432/432 431/431/431 433/433/433
f 434/434/434 430/430/430 432/432/432
f 437/437/437 436/436/436 435/435/435
f 438/438/438 435/435/435 436/436/436
f 438/438/438 436/436/436 439/439/439
f 435/435/435 438/438/438 440/440/440
f 441/441/441 435/435/435 440/440/440
f 441/441/441 442/442/442 435/435/435
f 443/443/443 442/442/442 441/441/441
f 446/446/446 445/445/445 444/444/444
f 444/444/444 445/445/445 447/447/447
f 445/445/445 448/448/448 447/447/447
f 448/448/448 445/445/445 449/449/449
f 448/448/448 449/449/449 450/450/450
f 448/448/448 450/450/450 451/451/451
f 451/451/451 450/450/450 452/452/452
f 453/453/453 452/452/452 450/450/450
f 454/454/454 450/450/450 449/449/449
f 453/453/453 450/450/450 454/454/454
f 449/449/449 455/455/455 454/454/454
f 454/454/454 455/455/455 453/453/453
f 455/455/455 456/456/456 453/453/453
f 459/459/459 458/458/458 457/457/457
f 457/457/457 458/458/458 460/460/460
f 461/461/461 460/460/460 458/458/458
f 458/458/458 462/462/462 461/461/461
f 462/462/462 463/463/463 461/461/461
f 463/463/463 464/464/464 461/461/461
f 467/467/467 466/466/466 465/465/465
f 467/467/467 468/468/468 466/466/466
f 471/471/471 470/470/470 469/469/469
f 472/472/472 469/469/469 470/470/470
f 472/472/472 470/470/470 473/473/473
f 472/472/472 473/473/473 474/474/474
f 475/475/475 472/472/472 474/474/474
f 472/472/472 475/475/475 469/469/469
f 475/475/475 476/476/476 469/469/469
f 479/479/479 478/478/478 477/477/477
f 477/477/477 478/478/478 480/480/480
f 478/478/478 481/481/481 480/480/480
f 484/484/484 483/483/483 482/482/482
f 485/485/485 482/482/482 483/483/483
f 485/485/485 486/486/486 482/482/482
f 482/482/482 486/486/486 487/487/487
f 487/487/487 488/488/488 482/482/482
f 489/489/489 488/488/488 487/487/487
f 490/490/490 487/487/487 486/486/486
f 489/489/489 487/487/487 491/491/491
f 490/490/490 491/491/491 487/487/487
f 490/490/490 492/492/492 491/491/491
f 491/491/491 492/492/492 493/493/493
f 493/493/493 494/494/494 491/491/491
f 495/495/495 493/493/493 492/492/492
f 493/493/493 495/495/495 494/494/494
f 495/495/495 496/496/496 494/494/494
f 499/499/499 498/498/498 497/497/497
f 497/497/497 498/498/498 500/500/500
f 498/498/498 501/501/501 500/500/500
f 502/502/502 501/501/501 498/498/498
f 503/503/503 502/502/502 498/498/498
f 504/504/504 503/503/503 498/498/498
f 507/507/507 506/506/506 505/505/505
f 505/505/505 508/508/508 507/507/507
f 508/508/508 509/509/509 507/507/507
f 507/507/507 509/509/509 510/510/510
f 509/509/509 508/508/508 511/511/511
f 508/508/508 512/512/512 511/511/511
f 513/513/513 509/509/509 511/511/511
f 511/511/511 512/512/512 514/514/514
f 514/514/514 513/513/513 511/511/511
f 512/512/512 515/515/515 514/514/514
f 516/516/516 513/513/513 514/514/514
f 514/514/514 515/515/515 516/516/516
f 515/515/515 517/517/517 516/516/516
f 518/518/518 516/516/516 517/517/517
f 518/518/518 517/517/517 519/519/519
f 519/519/519 517/517/517 520/520/520
f 520/520/520 517/517/517 521/521/521
f 524/524/524 523/523/523 522/522/522
f 524/524/524 525/525/525 523/523/523
f 526/526/526 523/523/523 525/525/525
f 525/525/525 527/527/527 526/526/526
f 525/525/525 528/528/528 527/527/527
f 531/531/531 530/530/530 529/529/529
f 531/531/531 529/529/529 532/532/532
f 535/535/535 534/534/534 533/533/533
f 536/536/536 535/535/535 533/533/533
f 536/536/536 533/533/533 537/537/537
f 533/533/533 538/538/538 537/537/537
f 539/539/539 536/536/536 537/537/537
f 542/542/542 541/541/541 540/540/540
f 541/541/541 542/542/542 543/543/543
f 543/543/543 544/544/544 541/541/541
f 547/547/547 546/546/546 545/545/545
f 548/548/548 547/547/547 545/545/545
f 551/551/551 550/550/550 549/549/549
f 552/552/552 551/551/551 549/549/549
f 552/552/552 549/549/549 553/553/553
f 552/552/552 554/554/554 551/551/551
f 552/552/552 553/553/553 555/555/555
f 554/554/554 552/552/552 556/556/556
f 555/555/555 557/557/557 552/552/552
f 556/556/556 552/552/552 557/557/557
f 560/560/560 559/559/559 558/558/558
f 561/561/561 560/560/560 558/558/558
f 560/560/560 561/561/561 562/562/562
f 558/558/558 563/563/563 561/561/561
f 558/558/558 564/564/564 563/563/563
f 563/563/563 564/564/564 565/565/565
f 561/561/561 563/563/563 566/566/566
f 561/561/561 566/566/566 567/567/567
f 567/567/567 566/566/566 568/568/568
f 566/566/566 569/569/569 568/568/568
f 570/570/570 563/563/563 565/565/565
f 565/565/565 569/569/569 570/570/570
f 566/566/566 570/570/570 569/569/569
f 563/563/563 570/570/570 566/566/566
f 573/573/573 572/572/572 571/571/571
f 573/573/573 574/574/574 572/572/572
f 574/574/574 575/575/575 572/572/572
f 576/576/576 575/575/575 574/574/574
f 576/576/576 574/574/574 577/577/577
f 575/575/575 576/576/576 578/578/578
f 581/581/581 580/580/580 579/579/579
f 582/582/582 580/580/580 581/581/581
f 583/583/583 582/582/582 581/581/581
f 582/582/582 583/583/583 584/584/584
f 587/587/587 586/586/586 585/585/585
f 588/588/588 587/587/587 585/585/585
f 591/591/591 590/590/590 589/589/589
f 590/590/590 592/592/592 589/589/589
f 590/590/590 593/593/593 592/592/592
f 593/593/593 594/594/594 592/592/592
f 593/593/593 595/595/595 594/594/594
f 595/595/595 596/596/596 594/594/594
f 595/595/595 597/597/597 596/596/596
f 597/597/597 598/598/598 596/596/596
f 597/597/597 599/599/599 598/598/598
f 599/599/599 600/600/600 598/598/598
f 603/603/603 602/602/602 601/601/601
f 601/601/601 604/604/604 603/603/603
f 601/601/601 605/605/605 604/604/604
f 604/604/604 605/605/605 606/606/606
f 607/607/607 605/605/605 601/601/601
f 605/605/605 607/607/607 606/606/606
f 610/610/610 609/609/609 608/608/608
f 611/611/611 609/609/609 610/610/610
f 610/610/610 612/612/612 611/611/611
f 613/613/613 612/612/612 610/610/610
f 611/611/611 614/614/614 609/609/609
f 614/614/614 615/615/615 609/609/609
f 618/618/618 617/617/617 616/616/616
f 616/616/616 619/619/619 618/618/618
f 622/622/622 621/621/621 620/620/620
f 623/623/623 622/622/622 620/620/620
f 623/623/623 620/620/620 624/624/624
f 625/625/625 623/623/623 624/624/624
f 625/625/625 624/624/624 626/626/626
f 627/627/627 625/625/625 626/626/626
f 628/628/628 627/627/627 626/626/626
f 627/627/627 628/628/628 629/629/629
f 629/629/629 630/630/630 627/627/627
f 630/630/630 631/631/631 627/627/627
f 632/632/632 630/630/630 629/629/629
f 635/635/635 634/634/634 633/633/633
f 635/635/635 633/633/633 636/636/636
f 636/636/636 633/633/633 637/637/637
f 636/636/636 637/637/637 638/638/638
f 639/639/639 635/635/635 636/636/636
f 640/640/640 636/636/636 638/638/638
f 636/636/636 641/641/641 639/639/639
f 642/642/642 639/639/639 641/641/641
f 642/642/642 643/643/643 639/639/639
f 636/636/636 644/644/644 641/641/641
f 636/636/636 640/640/640 644/644/644
f 645/645/645 641/641/641 644/644/644
f 646/646/646 645/645/645 644/644/644
f 646/646/646 644/644/644 640/640/640
f 647/647/647 646/646/646 640/640/640
f 650/650/650 649/649/649 648/648/648
f 649/649/649 651/651/651 648/648/648
f 652/652/652 648/648/648 651/651/651
f 653/653/653 652/652/652 651/651/651
f 652/652/652 654/654/654 648/648/648
f 654/654/654 655/655/655 648/648/648
f 654/654/654 656/656/656 655/655/655
f 659/659/659 658/658/658 657/657/657
f 660/660/660 659/659/659 657/657/657
f 660/660/660 657/657/657 661/661/661
f 659/659/659 660/660/660 662/662/662
f 660/660/660 661/661/661 663/663/663
f 660/660/660 663/663/663 662/662/662
f 666/666/666 665/665/665 664/664/664
f 667/667/667 664/664/664 665/665/665
f 668/668/668 667/667/667 665/665/665
f 665/665/665 669/669/669 668/668/668
f 670/670/670 668/668/668 669/669/669
f 671/671/671 670/670/670 669/669/669
f 674/674/674 673/673/673 672/672/672
f 675/675/675 674/674/674 672/672/672
f 676/676/676 674/674/674 675/675/675
f 675/675/675 677/677/677 676/676/676
f 678/678/678 677/677/677 675/675/675
f 675/675/675 672/672/672 678/678/678
f 679/679/679 678/678/678 672/672/672
f 682/682/682 681/681/681 680/680/680
f 683/683/683 682/682/682 680/680/680
f 683/683/683 684/684/684 682/682/682
f 685/685/685 684/684/684 683/683/683
f 682/682/682 684/684/684 686/686/686
f 684/684/684 685/685/685 687/687/687
f 687/687/687 686/686/686 684/684/684
f 686/686/686 687/687/687 688/688/688
f 691/691/691 690/690/690 689/689/689
f 690/690/690 692/692/692 689/689/689
f 690/690/690 693/693/693 692/692/692
f 693/693/693 694/694/694 692/692/692
f 697/697/697 696/696/696 695/695/695
f 698/698/698 696/696/696 697/697/697
f 697/697/697 699/699/699 698/698/698
f 702/702/702 701/701/701 700/700/700
f 703/703/703 702/702/702 700/700/700
f 706/706/706 705/705/705 704/704/704
f 705/705/705 707/707/707 704/704/704
f 705/705/705 708/708/708 707/707/707
f 708/708/708 709/709/709 707/707/707
f 710/710/710 708/708/708 705/705/705
f 711/711/711 709/709/709 708/708/708
f 710/710/710 712/712/712 708/708/708
f 712/712/712 711/711/711 708/708/708
