g 0.0500
v -0.011056279 -0.97059333 3.4678707
v -4.045217E-06 -1.0697536 3.625021
v 0.49258992 -0.89789 3.55836
v 1.0330973 0.08128846 1.5433667
v 1.1459445 1.0735035 2.169198
v 0.5375824 0.822975 1.6735346
v 1.2006642 -0.34548151 2.5684307
v 0.81994504 -0.5104375 2.6440215
v 1.2917933 0.2214309 2.695806
v -0.00032814755 -1.6777135 3.9664288
v 6.7216715E-06 -2.0995278 4.1031213
v 0.3847749 -2.058837 4.1601934
v 0.5047235 -1.1469295 5.5034733
v 0.00539524 -1.2260776 5.4603896
v 0.011680481 -1.0710089 5.6627774
v 2.3692687 -0.76756537 1.6121925
v 2.601728 -0.92823267 1.6090084
v 2.7304225 -0.69324493 1.8057317
v -0.011056279 -0.97059333 3.4678707
v -0.50303066 -1.0849702 3.5142767
v -4.045217E-06 -1.0697536 3.625021
v -1.0329792 0.5677246 1.907111
v -0.53758854 1.0186174 2.1782274
v -1.1216388 1.0092978 2.775168
v -1.2006394 -0.50933695 2.192619
v -1.2835293 -0.17935574 2.728696
v -0.81991327 -0.6920844 2.1919236
v -0.00032814755 -1.6777135 3.9664288
v -0.38476077 -2.0588367 4.1601934
v 6.7216715E-06 -2.0995278 4.1031213
v -0.5078056 -1.1480031 5.5051394
v 0.011680481 -1.0710089 5.6627774
v 0.00539524 -1.2260776 5.4603896
v -2.2536025 -0.77510715 1.5872333
v -2.599103 -0.60284454 1.7433358
v -2.5180745 -0.8725672 1.566798
v 2.0749362 -0.98188 2.3327389
v 2.0911682 -1.0560116 2.047357
v 2.2279754 -1.0327897 1.7795353
v 2.0480466 -1.0821669 2.143717
v 2.0630553 -1.1757779 2.1992278
v 2.3338346 -0.99259317 2.785822
v 2.205086 -0.82206154 2.6294258
v 2.3571734 -0.3818811 2.5066469
v 1.3120362 0.49474525 4.6003885
v 0.9206706 0.7763873 4.5895414
v 1.2754982 0.46187562 4.1566305
v 0.9149513 -0.19085038 5.4169874
v 1.7943428 0.055956602 5.1824617
v 1.5489498 -0.31082714 5.4013762
v 1.8613695 0.4863652 4.540206
v 1.9046321 0.42921585 3.3913639
v 0.402774 0.2880851 5.328931
v 0.054751746 0.11899924 5.511708
v 0.037565622 -0.32536268 5.7997594
v 0.074118175 0.48965287 5.1241775
v 0.05984641 1.0757916 4.1517496
v 0.7851995 1.146029 3.3066974
v 1.0992444 0.9722769 3.2856011
v 0.03603435 1.0820761 3.5145457
v 2.3764682 0.36631042 3.2193906
v 2.76188 -0.34463185 2.6062694
v 2.3571734 -0.3818811 2.5066469
v 2.6968417 0.34637082 3.7586255
v 2.3216329 0.12000477 4.4085197
v 2.0040133 -0.43260455 5.0755687
v 2.6483881 -0.408364 1.8449233
v 2.501864 -0.47581726 1.6552067
v 2.7304225 -0.69324493 1.8057317
v 2.1204722 -0.3607954 1.9526525
v 2.0932941 -0.35389873 2.3069856
v 1.0932838 -1.034009 4.3813095
v 1.1692888 -0.34438288 4.0065393
v 0.9393761 -0.8436105 3.702836
v 0.9137192 -0.5171895 3.6315193
v 1.1472303 0.23858094 3.322869
v 0.76867855 -0.52962583 3.0533261
v 1.2754982 0.46187562 4.1566305
v 1.0992444 0.9722769 3.2856011
v 0.9206706 0.7763873 4.5895414
v 0.6097358 -0.7032808 -0.21264926
v 0.7396239 -0.0671283 -0.26673195
v 0.59077257 -0.31002927 0.37993243
v 0.4523536 -1.2454531 -0.066629425
v 0.8199055 -0.91599727 0.64185977
v 0.26632944 -0.5938804 1.0111693
v 0.6787934 -0.021094799 1.1423255
v 0.44094238 -0.892928 1.5727907
v 0.28726056 -0.36138952 1.3780951
v 0.30043143 -0.09970546 1.5719883
v 0.28143293 -0.5128087 1.9636712
v 0.21705598 -0.49055323 1.9433205
v 0.2515089 -0.0075223446 1.6489235
v 4.026322E-06 0.24518144 1.9231993
v 0.0011370607 1.022764 2.0445147
v 0.18537427 -0.5270764 1.947264
v 0.49258992 -0.89789 3.55836
v -4.045217E-06 -1.0697536 3.625021
v 0.58223814 -1.298655 3.7403443
v 0.9393761 -0.8436105 3.702836
v 1.0932838 -1.034009 4.3813095
v 0.9137192 -0.5171895 3.6315193
v 0.76867855 -0.52962583 3.0533261
v -0.011056279 -0.97059333 3.4678707
v -5.587339E-06 -1.008 2.8340106
v 1.0787698 -0.10292345 -0.21973412
v 1.6068672 -1.156995 -0.13771917
v 1.1966702 -0.5577228 0.35837358
v 1.0085597 -0.18048617 0.51793784
v 1.3281368 -0.22274452 1.1575608
v 1.3459071 -0.8744695 1.6580535
v 1.3312286 -0.10029602 1.9244413
v 1.0330973 0.08128846 1.5433667
v 1.1459445 1.0735035 2.169198
v 1.2917933 0.2214309 2.695806
v 1.3259457 -0.34109545 2.1325793
v 1.25291 -0.51270545 2.2583504
v 1.2006642 -0.34548151 2.5684307
v 1.0330973 0.08128846 1.5433667
v 0.30043143 -0.09970546 1.5719883
v 0.6787934 -0.021094799 1.1423255
v 1.3281368 -0.22274452 1.1575608
v 1.0085597 -0.18048617 0.51793784
v 0.59077257 -0.31002927 0.37993243
v 0.7396239 -0.0671283 -0.26673195
v 1.0787698 -0.10292345 -0.21973412
v 1.5489498 -0.31082714 5.4013762
v 1.7943428 0.055956602 5.1824617
v 2.0040133 -0.43260455 5.0755687
v 1.8613695 0.4863652 4.540206
v 0.2226841 -2.0010018 4.6131406
v 7.935014E-06 -2.0229433 4.4567432
v 8.246724E-06 -2.1716297 4.537422
v 0.22614165 -2.0324254 4.903394
v 9.4524E-06 -2.2237213 5.139858
v 0.37338248 -2.0996144 5.111402
v 0.43566453 -1.9884281 4.898465
v 0.47853625 -1.7755799 4.722934
v 1.0119454 -0.90378344 5.285288
v 0.5047235 -1.1469295 5.5034733
v 0.011680481 -1.0710089 5.6627774
v 0.9149513 -0.19085038 5.4169874
v 0.037565622 -0.32536268 5.7997594
v 1.0119454 -0.90378344 5.285288
v 0.9149513 -0.19085038 5.4169874
v 1.5489498 -0.31082714 5.4013762
v 2.0040133 -0.43260455 5.0755687
v 1.6896893 -1.0344026 4.672425
v 0.8630905 -1.1144394 5.022886
v 0.5047235 -1.1469295 5.5034733
v 0.5416253 -1.1689503 4.6812186
v 1.0932838 -1.034009 4.3813095
v 0.55132514 -1.1597942 4.4522653
v 0.58223814 -1.298655 3.7403443
v 0.35187447 -1.1461447 4.154477
v 0.27286643 -1.2011919 4.288819
v -4.045217E-06 -1.0697536 3.625021
v -0.0028800922 -1.2525511 4.1226325
v 2.3338346 -0.99259317 2.785822
v 2.823965 -0.95478034 2.8199139
v 2.473967 -1.2120637 2.0889935
v 2.0630553 -1.1757779 2.1992278
v 2.0911682 -1.0560116 2.047357
v 2.2279754 -1.0327897 1.7795353
v 2.3692687 -0.76756537 1.6121925
v 2.601728 -0.92823267 1.6090084
v 2.473967 -1.2120637 2.0889935
v 2.7304225 -0.69324493 1.8057317
v 2.601728 -0.92823267 1.6090084
v 2.823965 -0.95478034 2.8199139
v 2.76188 -0.34463185 2.6062694
v 2.6483881 -0.408364 1.8449233
v 2.855233 -0.14738804 3.4765246
v 2.5573144 -0.5452244 3.7610092
v 2.6968417 0.34637082 3.7586255
v 2.6589727 0.025838435 3.8073406
v 2.4382997 -0.50264764 3.8903852
v 2.3216329 0.12000477 4.4085197
v 2.0891228 -0.34890163 4.3382177
v 2.0040133 -0.43260455 5.0755687
v 1.6896893 -1.0344026 4.672425
v 1.6074687 -0.8598335 4.147829
v 1.9419937 -0.56074536 3.585047
v 2.205086 -0.82206154 2.6294258
v 1.8034844 -0.18531036 2.9306705
v 1.7044467 -0.45144224 3.3579054
v 1.9046321 0.42921585 3.3913639
v 1.1692888 -0.34438288 4.0065393
v 1.2754982 0.46187562 4.1566305
v 1.3120362 0.49474525 4.6003885
v 2.3338346 -0.99259317 2.785822
v 1.7044467 -0.45144224 3.3579054
v 2.094287 -0.6706241 3.5550716
v 2.205086 -0.82206154 2.6294258
v 2.3692687 -0.76756537 1.6121925
v 1.9009142 -0.8426477 1.8833339
v 2.2279754 -1.0327897 1.7795353
v 2.0180683 -0.6227349 1.74458
v 2.501864 -0.47581726 1.6552067
v 2.7304225 -0.69324493 1.8057317
v 2.1204722 -0.3607954 1.9526525
v 0.50667405 -1.459991 -0.09801903
v 0.82452404 -1.510999 0.030200362
v 0.9111065 -1.5563568 -0.09980451
v 1.2030573 -1.500629 0.041559145
v 1.418809 -1.4230896 -0.13131616
v 2.2279754 -1.0327897 1.7795353
v 1.9009142 -0.8426477 1.8833339
v 1.7740202 -0.8004354 2.3420267
v 2.0749362 -0.98188 2.3327389
v 0.9111065 -1.5563568 -0.09980451
v 0.4523536 -1.2454531 -0.066629425
v 0.50667405 -1.459991 -0.09801903
v 1.1994994 -0.89675814 -0.20220962
v 1.418809 -1.4230896 -0.13131616
v 0.6097358 -0.7032808 -0.21264926
v 1.6068672 -1.156995 -0.13771917
v 0.7396239 -0.0671283 -0.26673195
v 1.0787698 -0.10292345 -0.21973412
v 0.8199055 -0.91599727 0.64185977
v 0.97715694 -0.88293576 0.40226972
v 0.4523536 -1.2454531 -0.066629425
v 1.3459071 -0.8744695 1.6580535
v 1.1966702 -0.5577228 0.35837358
v 0.84471965 -1.0412362 1.6221843
v 0.44094238 -0.892928 1.5727907
v 0.28143293 -0.5128087 1.9636712
v 1.0297239 -0.61265314 2.2908363
v 1.25291 -0.51270545 2.2583504
v 1.2006642 -0.34548151 2.5684307
v 0.81994504 -0.5104375 2.6440215
v 0.82926214 -0.664992 2.2752316
v 0.50667405 -1.459991 -0.09801903
v 0.4523536 -1.2454531 -0.066629425
v 0.82452404 -1.510999 0.030200362
v 0.97715694 -0.88293576 0.40226972
v 1.2030573 -1.500629 0.041559145
v 1.6068672 -1.156995 -0.13771917
v 1.1966702 -0.5577228 0.35837358
v 1.418809 -1.4230896 -0.13131616
v 1.0330973 0.08128846 1.5433667
v 0.5375824 0.822975 1.6735346
v 0.30043143 -0.09970546 1.5719883
v 0.2515089 -0.0075223446 1.6489235
v 0.5262563 0.8700047 1.6327815
v 0.0011370607 1.022764 2.0445147
v 1.1459445 1.0735035 2.169198
v 1.1926218 1.1223261 2.1686347
v 0.5262563 0.8700047 1.6327815
v 0.5375824 0.822975 1.6735346
v 0.03603435 1.0820761 3.5145457
v 0.03730838 1.1436391 3.5124784
v 0.8083203 1.2247939 3.2623858
v 0.7851995 1.146029 3.3066974
v 1.1563097 1.0214083 3.2513766
v 1.0992444 0.9722769 3.2856011
v 1.2155173 0.26682764 3.318215
v 1.1472303 0.23858094 3.322869
v 0.82466316 -0.57042915 3.0693574
v 0.76867855 -0.52962583 3.0533261
v -4.9838745E-06 -1.0729582 2.8242698
v -5.587339E-06 -1.008 2.8340106
v 1.6074687 -0.8598335 4.147829
v 1.0932838 -1.034009 4.3813095
v 1.6896893 -1.0344026 4.672425
v 1.1692888 -0.34438288 4.0065393
v 1.5387399 -0.5700785 3.6572914
v 1.7044467 -0.45144224 3.3579054
v 1.9419937 -0.56074536 3.585047
v 1.7044467 -0.45144224 3.3579054
v 1.9419937 -0.56074536 3.585047
v 2.094287 -0.6706241 3.5550716
v 2.5573144 -0.5452244 3.7610092
v 2.4382997 -0.50264764 3.8903852
v 2.0891228 -0.34890163 4.3382177
v 2.823965 -0.95478034 2.8199139
v 2.3338346 -0.99259317 2.785822
v 2.3571734 -0.3818811 2.5066469
v 1.8034844 -0.18531036 2.9306705
v 2.205086 -0.82206154 2.6294258
v 1.9046321 0.42921585 3.3913639
v 1.2917933 0.2214309 2.695806
v 1.1926218 1.1223261 2.1686347
v 1.1459445 1.0735035 2.169198
v 1.3578546 0.21012783 2.7064738
v 0.81994504 -0.5104375 2.6440215
v 0.8738097 -0.65450335 2.549794
v 0.28143293 -0.5128087 1.9636712
v 0.2828924 -0.9201091 1.9888552
v 0.21705598 -0.49055323 1.9433205
v 0.18537427 -0.5270764 1.947264
v 8.8466E-06 -0.56828403 1.9406532
v 1.207348E-05 -0.87716913 1.9661566
v 4.026322E-06 0.24518144 1.9231993
v 0.5416253 -1.1689503 4.6812186
v 0.41506743 -1.5803862 5.303623
v 0.5047235 -1.1469295 5.5034733
v 0.5240781 -1.2967911 4.5536876
v 0.55132514 -1.1597942 4.4522653
v 0.6613732 -1.7563965 4.254703
v 0.49525332 -1.8107305 5.270825
v 0.5947367 -1.7012384 4.3834343
v 0.47853625 -1.7755799 4.722934
v 0.43566453 -1.9884281 4.898465
v 0.37338248 -2.0996144 5.111402
v 0.50751436 -1.7327363 4.5307636
v 0.2226841 -2.0010018 4.6131406
v 0.34013873 -1.9752083 4.432733
v 0.3835901 -2.0117357 4.2664886
v 0.3835901 -2.0117357 4.2664886
v 0.5947367 -1.7012384 4.3834343
v 0.6613732 -1.7563965 4.254703
v 0.3847749 -2.058837 4.1601934
v 7.317227E-06 -2.0487852 4.2391744
v 6.7216715E-06 -2.0995278 4.1031213
v 7.935014E-06 -2.0229433 4.4567432
v 0.34013873 -1.9752083 4.432733
v 0.2226841 -2.0010018 4.6131406
v 0.6613732 -1.7563965 4.254703
v -0.00032814755 -1.6777135 3.9664288
v 0.3847749 -2.058837 4.1601934
v 0.27069023 -1.4011583 4.19991
v 0.55132514 -1.1597942 4.4522653
v -0.0028800922 -1.2525511 4.1226325
v 0.27286643 -1.2011919 4.288819
v 1.1563097 1.0214083 3.2513766
v 1.1926218 1.1223261 2.1686347
v 1.3578546 0.21012783 2.7064738
v 1.2155173 0.26682764 3.318215
v 0.82466316 -0.57042915 3.0693574
v 0.8738097 -0.65450335 2.549794
v 0.7926363 -0.870878 2.5926673
v 0.7606353 -0.9741208 2.028321
v 0.8083203 1.2247939 3.2623858
v 1.1926218 1.1223261 2.1686347
v 1.1563097 1.0214083 3.2513766
v 0.498635 1.3662916 2.1637738
v 0.5262563 0.8700047 1.6327815
v 0.0011370607 1.022764 2.0445147
v 0.025895687 1.3633043 2.877716
v 0.03730838 1.1436391 3.5124784
v 0.82466316 -0.57042915 3.0693574
v 8.093932E-06 -1.1452553 2.1698482
v -4.9838745E-06 -1.0729582 2.8242698
v 0.7926363 -0.870878 2.5926673
v 0.6341201 -1.1046666 2.0835319
v 0.7606353 -0.9741208 2.028321
v 1.7138587E-05 -1.0938942 1.803947
v 0.052213244 -0.9693148 1.4514158
v 2.3980261E-05 -0.97155696 1.4338317
v 1.207348E-05 -0.87716913 1.9661566
v 2.3980261E-05 -0.97155696 1.4338317
v 0.052213244 -0.9693148 1.4514158
v 0.2828924 -0.9201091 1.9888552
v 0.7606353 -0.9741208 2.028321
v 0.8738097 -0.65450335 2.549794
v 1.9009142 -0.8426477 1.8833339
v 2.0180683 -0.6227349 1.74458
v 1.7740202 -0.8004354 2.3420267
v 2.0932941 -0.35389873 2.3069856
v 2.1204722 -0.3607954 1.9526525
v 2.0749362 -0.98188 2.3327389
v 1.7740202 -0.8004354 2.3420267
v 2.0932941 -0.35389873 2.3069856
v 2.3571734 -0.3818811 2.5066469
v 0.00539524 -1.2260776 5.4603896
v 0.5047235 -1.1469295 5.5034733
v 0.41506743 -1.5803862 5.303623
v 7.913837E-06 -1.6074173 5.452048
v 0.27355206 -1.9113982 5.3948617
v 9.260009E-06 -2.0405047 5.3946757
v 0.49525332 -1.8107305 5.270825
v 9.4524E-06 -2.2237213 5.139858
v 0.37338248 -2.0996144 5.111402
v -2.0850306 -1.0178114 2.3385174
v -2.1987848 -1.0580028 1.7750534
v -2.0954108 -1.1004906 2.0552185
v -2.0686088 -1.1314645 2.155971
v -2.111482 -1.2152977 2.212572
v -2.3754246 -0.9396088 2.7651122
v -2.1949427 -0.81513053 2.6166248
v -2.2195666 -0.3580271 2.4669113
v -1.1647309 0.34672308 4.6132197
v -1.142987 0.18406934 4.218408
v -0.82205856 0.56777424 4.6871424
v -0.8820029 -0.18017983 5.3991904
v -1.6655169 0.16630757 5.115552
v -1.4905839 -0.22657871 5.3724074
v -1.644093 0.53277296 4.435647
v -1.6751416 0.36869833 3.308384
v -0.36250508 0.189677 5.3675923
v 0.054751746 0.11899924 5.511708
v 0.037565622 -0.32536268 5.7997594
v 0.074118175 0.48965287 5.1241775
v 0.05984641 1.0757916 4.1517496
v -0.7355692 0.7256223 3.7293787
v -1.0419972 0.43805575 3.6866658
v 0.03603435 1.0820761 3.5145457
v -2.1251674 0.40475652 3.1349335
v -2.6085186 -0.21568608 2.5265353
v -2.2195666 -0.3580271 2.4669113
v -2.4657555 0.49978808 3.6544588
v -2.1580315 0.25981903 4.330539
v -1.9510716 -0.27876902 5.052328
v -2.4511356 -0.34581912 1.7816281
v -2.311046 -0.45763975 1.6087625
v -2.599103 -0.60284454 1.7433358
v -1.9394281 -0.4259814 1.9374902
v -1.9413552 -0.40740567 2.2924404
v -1.1601527 -1.0934597 4.415957
v -0.96578944 -1.0461309 3.6841786
v -1.1561222 -0.56588817 4.0124183
v -0.92497367 -0.7933583 3.600998
v -1.1311637 -0.26285863 3.3770545
v -0.7697224 -1.0014005 2.525253
v -1.142987 0.18406934 4.218408
v -1.0419972 0.43805575 3.6866658
v -0.82205856 0.56777424 4.6871424
v -0.611257 2.0205123 1.0950935
v -0.5917865 1.3926442 1.4748814
v -0.7419479 1.9772738 1.7110355
v -0.4523383 2.0440671 0.5402096
v -0.82094544 1.0729777 0.89436686
v -0.26652336 0.7172112 1.222344
v -0.6784131 0.73584455 1.6966753
v -0.4408416 -0.014943898 1.1220797
v -0.28709766 0.44542438 1.4455967
v -0.30032197 0.411911 1.7212776
v -0.2813952 -0.4038101 1.7916625
v -0.21702088 -0.3819681 1.7867028
v -0.25142613 0.38939717 1.8036638
v 4.026322E-06 0.24518144 1.9231993
v 0.0011370607 1.022764 2.0445147
v -0.18533972 -0.42471322 1.783195
v -0.50303066 -1.0849702 3.5142767
v -0.601657 -1.3330793 3.749734
v -4.045217E-06 -1.0697536 3.625021
v -0.96578944 -1.0461309 3.6841786
v -1.1601527 -1.0934597 4.415957
v -0.92497367 -0.7933583 3.600998
v -0.7697224 -1.0014005 2.525253
v -0.011056279 -0.97059333 3.4678707
v -5.587339E-06 -1.008 2.8340106
v -1.0809963 1.9363579 1.6697469
v -1.19787 1.4018189 1.2346143
v -1.6073296 2.0661514 0.63669294
v -1.0092108 1.267436 1.6239343
v -1.3278899 0.63262653 1.5904188
v -1.3457819 0.013617098 1.1952863
v -1.3311882 0.17539299 2.0013742
v -1.0329792 0.5677246 1.907111
v -1.1216388 1.0092978 2.775168
v -1.2835293 -0.17935574 2.728696
v -1.3258902 -0.13221872 1.9170123
v -1.2528359 -0.34441167 1.8497939
v -1.2006394 -0.50933695 2.192619
v -1.0329792 0.5677246 1.907111
v -0.6784131 0.73584455 1.6966753
v -0.30032197 0.411911 1.7212776
v -1.3278899 0.63262653 1.5904188
v -1.0092108 1.267436 1.6239343
v -0.5917865 1.3926442 1.4748814
v -0.7419479 1.9772738 1.7110355
v -1.0809963 1.9363579 1.6697469
v -1.4905839 -0.22657871 5.3724074
v -1.9510716 -0.27876902 5.052328
v -1.6655169 0.16630757 5.115552
v -1.644093 0.53277296 4.435647
v -0.2226672 -2.0010018 4.6131406
v 8.246724E-06 -2.1716297 4.537422
v 7.935014E-06 -2.0229433 4.4567432
v -0.22612311 -2.0324254 4.903394
v 9.4524E-06 -2.2237213 5.139858
v -0.37336352 -2.0996141 5.1114025
v -0.43564665 -1.9884281 4.8984656
v -0.47852033 -1.7755795 4.7229342
v -1.0148275 -0.89507484 5.2872276
v 0.011680481 -1.0710089 5.6627774
v -0.5078056 -1.1480031 5.5051394
v -0.8820029 -0.18017983 5.3991904
v 0.037565622 -0.32536268 5.7997594
v -1.0148275 -0.89507484 5.2872276
v -1.4905839 -0.22657871 5.3724074
v -0.8820029 -0.18017983 5.3991904
v -1.9510716 -0.27876902 5.052328
v -1.7643352 -0.9624412 4.716528
v -0.8754207 -1.1197277 5.0295
v -0.5078056 -1.1480031 5.5051394
v -0.54712254 -1.1796116 4.6838436
v -1.1601527 -1.0934597 4.415957
v -0.55938053 -1.1770654 4.4560456
v -0.601657 -1.3330793 3.749734
v -0.359017 -1.1667475 4.157621
v -0.27828205 -1.2168925 4.2912006
v -4.045217E-06 -1.0697536 3.625021
v -0.0028800922 -1.2525511 4.1226325
v -2.3754246 -0.9396088 2.7651122
v -2.5073662 -1.1535786 2.0649815
v -2.8410296 -0.77884704 2.7514093
v -2.111482 -1.2152977 2.212572
v -2.0954108 -1.1004906 2.0552185
v -2.1987848 -1.0580028 1.7750534
v -2.2536025 -0.77510715 1.5872333
v -2.5180745 -0.8725672 1.566798
v -2.5073662 -1.1535786 2.0649815
v -2.5180745 -0.8725672 1.566798
v -2.599103 -0.60284454 1.7433358
v -2.8410296 -0.77884704 2.7514093
v -2.6085186 -0.21568608 2.5265353
v -2.4511356 -0.34581912 1.7816281
v -2.724152 0.038854152 3.3884592
v -2.5471058 -0.40340814 3.7292898
v -2.4657555 0.49978808 3.6544588
v -2.506595 0.18261397 3.7291982
v -2.415143 -0.37637067 3.8712187
v -2.1580315 0.25981903 4.330539
v -2.0286083 -0.24958557 4.3092527
v -1.9510716 -0.27876902 5.052328
v -1.7643352 -0.9624412 4.716528
v -1.6632531 -0.86465573 4.17849
v -1.942488 -0.5699956 3.5842168
v -2.1949427 -0.81513053 2.6166248
v -1.6836169 -0.54281557 3.3709118
v -1.6815655 -0.28602743 2.92659
v -1.6751416 0.36869833 3.308384
v -1.1561222 -0.56588817 4.0124183
v -1.142987 0.18406934 4.218408
v -1.1647309 0.34672308 4.6132197
v -2.3754246 -0.9396088 2.7651122
v -2.1278043 -0.64859325 3.5464478
v -1.6836169 -0.54281557 3.3709118
v -2.1949427 -0.81513053 2.6166248
v -2.2536025 -0.77510715 1.5872333
v -2.1987848 -1.0580028 1.7750534
v -1.8441577 -0.9503614 1.903701
v -1.8896103 -0.71579623 1.7479682
v -2.311046 -0.45763975 1.6087625
v -2.599103 -0.60284454 1.7433358
v -1.9394281 -0.4259814 1.9374902
v -0.5061441 2.1395683 0.3447371
v -0.910341 2.1694016 0.25205564
v -0.8237248 2.0318406 0.25751507
v -1.2023858 2.0051386 0.2617526
v -1.4185553 2.144237 0.3828314
v -2.1987848 -1.0580028 1.7750534
v -2.0850306 -1.0178114 2.3385174
v -1.7498372 -0.91703635 2.3709013
v -1.8441577 -0.9503614 1.903701
v -0.910341 2.1694016 0.25205564
v -0.5061441 2.1395683 0.3447371
v -0.4523383 2.0440671 0.5402096
v -1.2005398 2.0658937 0.9077487
v -1.4185553 2.144237 0.3828314
v -0.611257 2.0205123 1.0950935
v -1.6073296 2.0661514 0.63669294
v -0.7419479 1.9772738 1.7110355
v -1.0809963 1.9363579 1.6697469
v -0.82094544 1.0729777 0.89436686
v -0.4523383 2.0440671 0.5402096
v -0.97850215 1.3478882 0.8996216
v -1.3457819 0.013617098 1.1952863
v -1.19787 1.4018189 1.2346143
v -0.8446079 -0.035212517 1.0415195
v -0.4408416 -0.014943898 1.1220797
v -0.2813952 -0.4038101 1.7916625
v -1.0296396 -0.4474429 1.7987769
v -1.2528359 -0.34441167 1.8497939
v -1.2006394 -0.50933695 2.192619
v -0.81991327 -0.6920844 2.1919236
v -0.82917655 -0.5006935 1.7717099
v -0.5061441 2.1395683 0.3447371
v -0.8237248 2.0318406 0.25751507
v -0.4523383 2.0440671 0.5402096
v -0.97850215 1.3478882 0.8996216
v -1.2023858 2.0051386 0.2617526
v -1.6073296 2.0661514 0.63669294
v -1.19787 1.4018189 1.2346143
v -1.4185553 2.144237 0.3828314
v -1.0329792 0.5677246 1.907111
v -0.30032197 0.411911 1.7212776
v -0.53758854 1.0186174 2.1782274
v -0.25142613 0.38939717 1.8036638
v -0.52627194 1.0865487 2.1393478
v 0.0011370607 1.022764 2.0445147
v -1.1216388 1.0092978 2.775168
v -0.53758854 1.0186174 2.1782274
v -0.52627194 1.0865487 2.1393478
v -1.1659639 1.0608299 2.7948194
v 0.03603435 1.0820761 3.5145457
v -0.76073 0.76410866 3.7596679
v 0.03730838 1.1436391 3.5124784
v -0.7355692 0.7256223 3.7293787
v -1.1054517 0.4575982 3.7016296
v -1.0419972 0.43805575 3.6866658
v -1.2015417 -0.28803325 3.3797429
v -1.1311637 -0.26285863 3.3770545
v -0.82554966 -1.0461249 2.4990273
v -0.7697224 -1.0014005 2.525253
v -4.9838745E-06 -1.0729582 2.8242698
v -5.587339E-06 -1.008 2.8340106
v -1.6632531 -0.86465573 4.17849
v -1.7643352 -0.9624412 4.716528
v -1.1601527 -1.0934597 4.415957
v -1.1561222 -0.56588817 4.0124183
v -1.5535455 -0.66017306 3.6664526
v -1.6836169 -0.54281557 3.3709118
v -1.942488 -0.5699956 3.5842168
v -1.6836169 -0.54281557 3.3709118
v -2.1278043 -0.64859325 3.5464478
v -1.942488 -0.5699956 3.5842168
v -2.5471058 -0.40340814 3.7292898
v -2.415143 -0.37637067 3.8712187
v -2.0286083 -0.24958557 4.3092527
v -2.8410296 -0.77884704 2.7514093
v -2.3754246 -0.9396088 2.7651122
v -2.2195666 -0.3580271 2.4669113
v -2.1949427 -0.81513053 2.6166248
v -1.6815655 -0.28602743 2.92659
v -1.6751416 0.36869833 3.308384
v -1.2835293 -0.17935574 2.728696
v -1.1216388 1.0092978 2.775168
v -1.1659639 1.0608299 2.7948194
v -1.348675 -0.18205506 2.7307613
v -0.81991327 -0.6920844 2.1919236
v -0.8737641 -0.7539449 2.0782752
v -0.2813952 -0.4038101 1.7916625
v -0.28283194 -0.79880893 1.6389663
v -0.21702088 -0.3819681 1.7867028
v -0.18533972 -0.42471322 1.783195
v 8.8466E-06 -0.56828403 1.9406532
v 1.207348E-05 -0.87716913 1.9661566
v 4.026322E-06 0.24518144 1.9231993
v -0.54712254 -1.1796116 4.6838436
v -0.5078056 -1.1480031 5.5051394
v -0.4197944 -1.5827515 5.306152
v -0.52969366 -1.3061775 4.5564303
v -0.55938053 -1.1770654 4.4560456
v -0.6647894 -1.7598988 4.256462
v -0.49523556 -1.8107302 5.270825
v -0.59537286 -1.7019382 4.383767
v -0.47852033 -1.7755795 4.7229342
v -0.43564665 -1.9884281 4.8984656
v -0.37336352 -2.0996141 5.1114025
v -0.50800645 -1.7332547 4.5310245
v -0.2226672 -2.0010018 4.6131406
v -0.34012282 -1.9752083 4.432733
v -0.38357502 -2.0117357 4.266489
v -0.38357502 -2.0117357 4.266489
v -0.6647894 -1.7598988 4.256462
v -0.59537286 -1.7019382 4.383767
v -0.38476077 -2.0588367 4.1601934
v 7.317227E-06 -2.0487852 4.2391744
v 6.7216715E-06 -2.0995278 4.1031213
v 7.935014E-06 -2.0229433 4.4567432
v -0.34012282 -1.9752083 4.432733
v -0.2226672 -2.0010018 4.6131406
v -0.6647894 -1.7598988 4.256462
v -0.38476077 -2.0588367 4.1601934
v -0.00032814755 -1.6777135 3.9664288
v -0.27720675 -1.4150693 4.202972
v -0.55938053 -1.1770654 4.4560456
v -0.0028800922 -1.2525511 4.1226325
v -0.27828205 -1.2168925 4.2912006
v -1.1054517 0.4575982 3.7016296
v -1.348675 -0.18205506 2.7307613
v -1.1659639 1.0608299 2.7948194
v -1.2015417 -0.28803325 3.3797429
v -0.82554966 -1.0461249 2.4990273
v -0.8737641 -0.7539449 2.0782752
v -0.79258084 -0.9828244 2.0292087
v -0.7605579 -0.8236939 1.5753778
v -0.76073 0.76410866 3.7596679
v -1.1054517 0.4575982 3.7016296
v -1.1659639 1.0608299 2.7948194
v -0.4756123 1.3056417 2.8967204
v -0.52627194 1.0865487 2.1393478
v 0.0011370607 1.022764 2.0445147
v 0.025895687 1.3633043 2.877716
v 0.03730838 1.1436391 3.5124784
v -0.82554966 -1.0461249 2.4990273
v -4.9838745E-06 -1.0729582 2.8242698
v 8.093932E-06 -1.1452553 2.1698482
v -0.79258084 -0.9828244 2.0292087
v -0.6340394 -0.9828289 1.5732608
v -0.7605579 -0.8236939 1.5753778
v 1.7138587E-05 -1.0938942 1.803947
v -0.052127495 -0.66235256 1.1025486
v 2.3980261E-05 -0.97155696 1.4338317
v 1.207348E-05 -0.87716913 1.9661566
v -0.052127495 -0.66235256 1.1025486
v 2.3980261E-05 -0.97155696 1.4338317
v -0.28283194 -0.79880893 1.6389663
v -0.7605579 -0.8236939 1.5753778
v -0.8737641 -0.7539449 2.0782752
v -1.8441577 -0.9503614 1.903701
v -1.7498372 -0.91703635 2.3709013
v -1.8896103 -0.71579623 1.7479682
v -1.9413552 -0.40740567 2.2924404
v -1.9394281 -0.4259814 1.9374902
v -2.0850306 -1.0178114 2.3385174
v -2.2195666 -0.3580271 2.4669113
v -1.9413552 -0.40740567 2.2924404
v -1.7498372 -0.91703635 2.3709013
v 0.00539524 -1.2260776 5.4603896
v -0.4197944 -1.5827515 5.306152
v -0.5078056 -1.1480031 5.5051394
v 7.913837E-06 -1.6074173 5.452048
v -0.273533 -1.9113979 5.394862
v 9.260009E-06 -2.0405047 5.3946757
v -0.49523556 -1.8107302 5.270825
v 9.4524E-06 -2.2237213 5.139858
v -0.37336352 -2.0996141 5.1114025
vt 0.76092815 0.8767158
vt 0.7174094 0.91054726
vt 0.76092815 0.95057213
vt 0.38543808 0.96915483
vt 0.38543808 0.8693485
vt 0.32501337 0.9344189
vt 0.40212393 0.7568116
vt 0.42906108 0.79320693
vt 0.42906108 0.6946838
vt 0.64721847 0.83391285
vt 0.6187177 0.852685
vt 0.64721847 0.8863988
vt 0.40864563 0.8004855
vt 0.40212417 0.8554132
vt 0.4314282 0.8554132
vt 0.8731629 0.288234
vt 0.85169375 0.31012797
vt 0.8731629 0.33410096
vt 0.76092815 0.8767158
vt 0.76092815 0.95057213
vt 0.7174094 0.91054726
vt 0.38543808 0.96915483
vt 0.32501337 0.9344189
vt 0.38543808 0.8693485
vt 0.40212393 0.7568116
vt 0.42906108 0.6946838
vt 0.42906108 0.79320693
vt 0.64721847 0.83391285
vt 0.64721847 0.8863988
vt 0.6187177 0.852685
vt 0.40864563 0.8004855
vt 0.4314282 0.8554132
vt 0.40212417 0.8554132
vt 0.8731629 0.288234
vt 0.8731629 0.33410096
vt 0.85169375 0.31012797
vt 0.93716276 0.87058735
vt 0.95343685 0.89970946
vt 0.9799932 0.91859293
vt 0.9427136 0.89419115
vt 0.93181825 0.89648974
vt 0.911044 0.8307359
vt 0.9316137 0.83232665
vt 0.9799932 0.80742836
vt 0.10851145 0.33349717
vt 0.13080215 0.36262
vt 0.1400299 0.3113687
vt 0.035931587 0.41149533
vt 0.024571896 0.32702982
vt 0.0050616264 0.3596238
vt 0.08769798 0.28441465
vt 0.17019081 0.20653963
vt 0.08456516 0.4494164
vt 0.083266735 0.49250197
vt 0.042717457 0.51571035
vt 0.13373709 0.4635235
vt 0.21156597 0.41879463
vt 0.21291876 0.3210987
vt 0.19684744 0.2890222
vt 0.25440502 0.39410865
vt 0.13946295 0.16356409
vt 0.15124083 0.07156634
vt 0.19101858 0.09412408
vt 0.07759905 0.16957974
vt 0.05247307 0.23621142
vt 0.0036392212 0.30024278
vt 0.2229681 0.026929379
vt 0.25050545 0.022252083
vt 0.22280836 0.003639102
vt 0.25440502 0.07686579
vt 0.22743464 0.10261488
vt 0.45856917 0.6098685
vt 0.5120082 0.5537622
vt 0.43986475 0.5376189
vt 0.46678388 0.51993704
vt 0.5374718 0.47976518
vt 0.45610917 0.3930211
vt 0.59933805 0.57066965
vt 0.62368786 0.5123229
vt 0.6481185 0.6098685
vt 0.3537655 0.6874056
vt 0.42488575 0.6800592
vt 0.38486463 0.61382914
vt 0.2900216 0.68542314
vt 0.31718183 0.60575175
vt 0.3473574 0.54210377
vt 0.40935624 0.5075567
vt 0.2854784 0.5194292
vt 0.35032767 0.4909482
vt 0.35219908 0.45871925
vt 0.26393032 0.45060992
vt 0.26645523 0.44946337
vt 0.35109514 0.4470091
vt 0.34671634 0.4100144
vt 0.4248857 0.36387968
vt 0.26168346 0.44962025
vt 0.8411019 0.7899053
vt 0.7838191 0.78166175
vt 0.83817935 0.8318331
vt 0.89320564 0.81448936
vt 0.9037658 0.86935806
vt 0.9019189 0.7845733
vt 0.9037658 0.6827538
vt 0.7884561 0.7465446
vt 0.81633425 0.6499436
vt 0.43258637 0.032122433
vt 0.31396526 0.0036391318
vt 0.37069082 0.083407134
vt 0.4106114 0.110140175
vt 0.3962828 0.1806409
vt 0.2999698 0.19097976
vt 0.33613086 0.27186844
vt 0.38626117 0.26024532
vt 0.43258643 0.35557207
vt 0.2993983 0.3566014
vt 0.29970932 0.26645625
vt 0.2754557 0.26274022
vt 0.26168334 0.30305636
vt 0.16784751 0.7458852
vt 0.25242734 0.74616045
vt 0.21857738 0.7013248
vt 0.15136826 0.6648097
vt 0.20250392 0.599566
vt 0.25242734 0.59194356
vt 0.24932039 0.52717614
vt 0.21102023 0.5229885
vt 0.39318585 0.8693485
vt 0.3927164 0.9197998
vt 0.42848969 0.88240623
vt 0.42848969 0.9918647
vt 0.83725333 0.6245022
vt 0.8650172 0.6323495
vt 0.8650451 0.6158414
vt 0.83196056 0.59984875
vt 0.8545023 0.56402636
vt 0.8123895 0.57854414
vt 0.80810034 0.60399294
vt 0.8041513 0.6323495
vt 0.843976 0.89337015
vt 0.8063984 0.87663627
vt 0.7838192 0.8929435
vt 0.843976 0.9753927
vt 0.7871585 0.9748901
vt 0.6933649 0.052872658
vt 0.72706753 0.015985489
vt 0.6669389 0.0036392212
vt 0.6074452 0.014723778
vt 0.59009033 0.09092951
vt 0.6934568 0.09343052
vt 0.74957585 0.05772066
vt 0.7141083 0.138731
vt 0.63362813 0.15272665
vt 0.70400053 0.16181803
vt 0.66698974 0.2426033
vt 0.7129891 0.20186234
vt 0.72678816 0.19093657
vt 0.7296377 0.2760334
vt 0.7495758 0.22005558
vt 0.55891633 0.9662305
vt 0.61143947 0.9757911
vt 0.5922339 0.9015738
vt 0.5442295 0.9060155
vt 0.54845953 0.88612115
vt 0.56860304 0.8587924
vt 0.58318543 0.83391297
vt 0.61143947 0.8425299
vt 0.58281195 0.34121418
vt 0.51290727 0.3570695
vt 0.53652984 0.38574266
vt 0.5640419 0.2506776
vt 0.49579954 0.26056576
vt 0.48622772 0.3470602
vt 0.49326953 0.16512108
vt 0.54634494 0.1373272
vt 0.43986475 0.1499219
vt 0.47888508 0.13418627
vt 0.53810287 0.12372589
vt 0.45689094 0.08685875
vt 0.5121323 0.08250618
vt 0.49097848 0.0036392212
vt 0.57778907 0.02139616
vt 0.58281195 0.084019184
vt 0.56546235 0.15651321
vt 0.7765409 0.6499436
vt 0.7361802 0.69964933
vt 0.77622354 0.7437546
vt 0.67653656 0.7371383
vt 0.77654094 0.8337269
vt 0.6879344 0.8361132
vt 0.6553969 0.86943746
vt 0.70291305 0.8868731
vt 0.65539694 0.971077
vt 0.71013117 0.971077
vt 0.67677927 0.8767158
vt 0.8090407 0.32149696
vt 0.84102654 0.36681628
vt 0.84441555 0.3240695
vt 0.8116953 0.36468315
vt 0.7733887 0.3215344
vt 0.7866004 0.288234
vt 0.7821007 0.36681628
vt 0.14011115 0.8014283
vt 0.12317091 0.8358741
vt 0.1353504 0.8443204
vt 0.12005818 0.878158
vt 0.14011115 0.9034114
vt 0.9476197 0.92587113
vt 0.9110441 0.9448347
vt 0.9110441 0.99636084
vt 0.9476197 0.98801386
vt 0.87031114 0.39302105
vt 0.9275825 0.415932
vt 0.9168987 0.39369053
vt 0.856012 0.4729281
vt 0.8182663 0.42019266
vt 0.9253888 0.4796664
vt 0.8041513 0.45412713
vt 0.9275825 0.55208296
vt 0.8889886 0.5567482
vt 0.8193766 0.21626759
vt 0.8036128 0.23882651
vt 0.873227 0.2804551
vt 0.75685394 0.12812448
vt 0.773309 0.25874615
vt 0.8158251 0.13588381
vt 0.85866606 0.13524365
vt 0.873227 0.06848431
vt 0.791224 0.053290367
vt 0.7641256 0.055696964
vt 0.7682109 0.015006065
vt 0.8140278 0.0036392212
vt 0.81470394 0.053386927
vt 0.5175346 0.97618496
vt 0.5369512 0.9629216
vt 0.4913391 0.9509202
vt 0.5369512 0.8692274
vt 0.45981216 0.9219352
vt 0.44022834 0.8757967
vt 0.53517056 0.83391285
vt 0.43986475 0.90867615
vt 0.5900903 0.28797352
vt 0.62745833 0.35935897
vt 0.6769434 0.28331167
vt 0.68067384 0.28600973
vt 0.62803996 0.36523026
vt 0.68067384 0.38036174
vt 0.6286705 0.7095578
vt 0.6337411 0.7133043
vt 0.6337411 0.6171466
vt 0.6284676 0.62174
vt 0.14408994 0.5304086
vt 0.14407027 0.52298856
vt 0.0575552 0.5249157
vt 0.060165763 0.5318036
vt 0.017217755 0.5475795
vt 0.024039268 0.5512183
vt 0.003639102 0.62869143
vt 0.011310577 0.6288619
vt 0.050047874 0.75683355
vt 0.05604267 0.75208044
vt 0.14408994 0.7941501
vt 0.14408052 0.7870438
vt 0.94373345 0.29501605
vt 0.89322567 0.34452772
vt 0.9636524 0.34466767
vt 0.8805053 0.26835656
vt 0.92145467 0.23793936
vt 0.93056273 0.19030094
vt 0.9636524 0.2190423
vt 0.15136838 0.8828293
vt 0.18459916 0.8790581
vt 0.18772888 0.8523823
vt 0.249897 0.8515595
vt 0.24964237 0.87351906
vt 0.249897 0.9400712
vt 0.22085428 0.7534387
vt 0.17005515 0.7760277
vt 0.9802589 0.48951614
vt 0.93486077 0.43969166
vt 0.9363083 0.52018106
vt 0.9802589 0.393021
vt 0.6138434 0.7517505
vt 0.6211893 0.6171466
vt 0.6151098 0.6220794
vt 0.6211893 0.7543088
vt 0.5424597 0.81211025
vt 0.5444716 0.8262756
vt 0.48040593 0.77715325
vt 0.47013938 0.8266345
vt 0.47360125 0.7733006
vt 0.46921778 0.7773157
vt 0.44773105 0.77827287
vt 0.43986472 0.8160236
vt 0.46746588 0.6835647
vt 0.030359745 0.847517
vt 0.112780094 0.868281
vt 0.112780094 0.8014283
vt 0.022153854 0.86572623
vt 0.0068712234 0.8606516
vt 0.0036392212 0.9245527
vt 0.111730576 0.8989171
vt 0.014655113 0.9122443
vt 0.053132057 0.90880775
vt 0.07515764 0.92811567
vt 0.09974432 0.9358761
vt 0.032277107 0.9102699
vt 0.04845476 0.93554854
vt 0.028409481 0.9385146
vt 0.012401581 0.948142
vt 0.88494706 0.9226029
vt 0.8577864 0.9509256
vt 0.87466 0.9560555
vt 0.8970885 0.9206567
vt 0.882169 0.87921387
vt 0.8970885 0.87663627
vt 0.86154366 0.8830234
vt 0.86712503 0.92085326
vt 0.8512542 0.9104985
vt 0.7661104 0.35277665
vt 0.68795204 0.34717986
vt 0.7285374 0.3803617
vt 0.72703123 0.3177069
vt 0.7661104 0.28823394
vt 0.69608253 0.30455917
vt 0.73109645 0.29639655
vt 0.67792726 0.64156044
vt 0.7968731 0.64266527
vt 0.72660685 0.52130425
vt 0.6553967 0.5478516
vt 0.68288445 0.42728168
vt 0.7479801 0.43047652
vt 0.7372756 0.40265682
vt 0.7968731 0.393021
vt 0.3081553 0.86096895
vt 0.26168334 0.75789654
vt 0.26812422 0.85728633
vt 0.34041262 0.7695457
vt 0.33541918 0.6946839
vt 0.3948456 0.73062575
vt 0.3948456 0.8140665
vt 0.39473712 0.86206996
vt 0.8805054 0.0036392212
vt 0.9801983 0.08590722
vt 0.9801983 0.00670743
vt 0.8874839 0.057162046
vt 0.9081686 0.10700607
vt 0.8906271 0.11667371
vt 0.9782284 0.13529897
vt 0.96848243 0.18069983
vt 0.97430557 0.18302274
vt 0.9110441 0.76331913
vt 0.9639616 0.8001498
vt 0.9656298 0.79412675
vt 0.930436 0.7378639
vt 0.9656298 0.69657063
vt 0.9209312 0.6499436
vt 0.93157876 0.5800752
vt 0.90383935 0.5640264
vt 0.93157876 0.6334191
vt 0.8727588 0.6273424
vt 0.8723235 0.58724254
vt 0.9388571 0.63908076
vt 0.9780266 0.63908076
vt 0.96788716 0.5860343
vt 0.94412255 0.5640266
vt 0.31773514 0.8753247
vt 0.26274544 0.8693483
vt 0.2708798 0.92137074
vt 0.3170637 0.90850973
vt 0.2861817 0.94313264
vt 0.3168773 0.9501102
vt 0.26168346 0.9447961
vt 0.31773514 0.987437
vt 0.27583432 0.9821174
vt 0.93716276 0.87058735
vt 0.9799932 0.91859293
vt 0.95343685 0.89970946
vt 0.9427136 0.89419115
vt 0.93181825 0.89648974
vt 0.911044 0.8307359
vt 0.9316137 0.83232665
vt 0.9799932 0.80742836
vt 0.10851145 0.33349717
vt 0.1400299 0.3113687
vt 0.13080215 0.36262
vt 0.035931587 0.41149533
vt 0.024571896 0.32702982
vt 0.0050616264 0.3596238
vt 0.08769798 0.28441465
vt 0.17019081 0.20653963
vt 0.08456516 0.4494164
vt 0.083266735 0.49250197
vt 0.042717457 0.51571035
vt 0.13373709 0.4635235
vt 0.21156597 0.41879463
vt 0.21291876 0.3210987
vt 0.19684744 0.2890222
vt 0.25440502 0.39410865
vt 0.13946295 0.16356409
vt 0.15124083 0.07156634
vt 0.19101858 0.09412408
vt 0.07759905 0.16957974
vt 0.05247307 0.23621142
vt 0.0036392212 0.30024278
vt 0.2229681 0.026929379
vt 0.25050545 0.022252083
vt 0.22280836 0.003639102
vt 0.25440502 0.07686579
vt 0.22743464 0.10261488
vt 0.45856917 0.6098685
vt 0.43986475 0.5376189
vt 0.5120082 0.5537622
vt 0.46678388 0.51993704
vt 0.5374718 0.47976518
vt 0.45610917 0.3930211
vt 0.59933805 0.57066965
vt 0.62368786 0.5123229
vt 0.6481185 0.6098685
vt 0.3537655 0.6874056
vt 0.38486463 0.61382914
vt 0.42488575 0.6800592
vt 0.2900216 0.68542314
vt 0.31718183 0.60575175
vt 0.3473574 0.54210377
vt 0.40935624 0.5075567
vt 0.2854784 0.5194292
vt 0.35032767 0.4909482
vt 0.35219908 0.45871925
vt 0.26393032 0.45060992
vt 0.26645523 0.44946337
vt 0.35109514 0.4470091
vt 0.34671634 0.4100144
vt 0.4248857 0.36387968
vt 0.26168346 0.44962025
vt 0.8411019 0.7899053
vt 0.83817935 0.8318331
vt 0.7838191 0.78166175
vt 0.89320564 0.81448936
vt 0.9037658 0.86935806
vt 0.9019189 0.7845733
vt 0.9037658 0.6827538
vt 0.7884561 0.7465446
vt 0.81633425 0.6499436
vt 0.43258637 0.032122433
vt 0.37069082 0.083407134
vt 0.31396526 0.0036391318
vt 0.4106114 0.110140175
vt 0.3962828 0.1806409
vt 0.2999698 0.19097976
vt 0.33613086 0.27186844
vt 0.38626117 0.26024532
vt 0.43258643 0.35557207
vt 0.2993983 0.3566014
vt 0.29970932 0.26645625
vt 0.2754557 0.26274022
vt 0.26168334 0.30305636
vt 0.16784751 0.7458852
vt 0.21857738 0.7013248
vt 0.25242734 0.74616045
vt 0.15136826 0.6648097
vt 0.20250392 0.599566
vt 0.25242734 0.59194356
vt 0.24932039 0.52717614
vt 0.21102023 0.5229885
vt 0.39318585 0.8693485
vt 0.42848969 0.88240623
vt 0.3927164 0.9197998
vt 0.42848969 0.9918647
vt 0.83725333 0.6245022
vt 0.8650451 0.6158414
vt 0.8650172 0.6323495
vt 0.83196056 0.59984875
vt 0.8545023 0.56402636
vt 0.8123895 0.57854414
vt 0.80810034 0.60399294
vt 0.8041513 0.6323495
vt 0.843976 0.89337015
vt 0.7838192 0.8929435
vt 0.8063984 0.87663627
vt 0.843976 0.9753927
vt 0.7871585 0.9748901
vt 0.6933649 0.052872658
vt 0.6669389 0.0036392212
vt 0.72706753 0.015985489
vt 0.6074452 0.014723778
vt 0.59009033 0.09092951
vt 0.6934568 0.09343052
vt 0.74957585 0.05772066
vt 0.7141083 0.138731
vt 0.63362813 0.15272665
vt 0.70400053 0.16181803
vt 0.66698974 0.2426033
vt 0.7129891 0.20186234
vt 0.72678816 0.19093657
vt 0.7296377 0.2760334
vt 0.7495758 0.22005558
vt 0.55891633 0.9662305
vt 0.5922339 0.9015738
vt 0.61143947 0.9757911
vt 0.5442295 0.9060155
vt 0.54845953 0.88612115
vt 0.56860304 0.8587924
vt 0.58318543 0.83391297
vt 0.61143947 0.8425299
vt 0.58281195 0.34121418
vt 0.53652984 0.38574266
vt 0.51290727 0.3570695
vt 0.5640419 0.2506776
vt 0.49579954 0.26056576
vt 0.48622772 0.3470602
vt 0.49326953 0.16512108
vt 0.54634494 0.1373272
vt 0.43986475 0.1499219
vt 0.47888508 0.13418627
vt 0.53810287 0.12372589
vt 0.45689094 0.08685875
vt 0.5121323 0.08250618
vt 0.49097848 0.0036392212
vt 0.57778907 0.02139616
vt 0.58281195 0.084019184
vt 0.56546235 0.15651321
vt 0.7765409 0.6499436
vt 0.77622354 0.7437546
vt 0.7361802 0.69964933
vt 0.67653656 0.7371383
vt 0.77654094 0.8337269
vt 0.6879344 0.8361132
vt 0.6553969 0.86943746
vt 0.70291305 0.8868731
vt 0.71013117 0.971077
vt 0.65539694 0.971077
vt 0.67677927 0.8767158
vt 0.8090407 0.32149696
vt 0.84441555 0.3240695
vt 0.84102654 0.36681628
vt 0.8116953 0.36468315
vt 0.7733887 0.3215344
vt 0.7866004 0.288234
vt 0.7821007 0.36681628
vt 0.14011115 0.8014283
vt 0.1353504 0.8443204
vt 0.12317091 0.8358741
vt 0.12005818 0.878158
vt 0.14011115 0.9034114
vt 0.9476197 0.92587113
vt 0.9476197 0.98801386
vt 0.9110441 0.99636084
vt 0.9110441 0.9448347
vt 0.87031114 0.39302105
vt 0.9168987 0.39369053
vt 0.9275825 0.415932
vt 0.856012 0.4729281
vt 0.8182663 0.42019266
vt 0.9253888 0.4796664
vt 0.8041513 0.45412713
vt 0.9275825 0.55208296
vt 0.8889886 0.5567482
vt 0.8193766 0.21626759
vt 0.873227 0.2804551
vt 0.8036128 0.23882651
vt 0.75685394 0.12812448
vt 0.773309 0.25874615
vt 0.8158251 0.13588381
vt 0.85866606 0.13524365
vt 0.873227 0.06848431
vt 0.791224 0.053290367
vt 0.7641256 0.055696964
vt 0.7682109 0.015006065
vt 0.8140278 0.0036392212
vt 0.81470394 0.053386927
vt 0.5175346 0.97618496
vt 0.4913391 0.9509202
vt 0.5369512 0.9629216
vt 0.5369512 0.8692274
vt 0.45981216 0.9219352
vt 0.44022834 0.8757967
vt 0.53517056 0.83391285
vt 0.43986475 0.90867615
vt 0.5900903 0.28797352
vt 0.6769434 0.28331167
vt 0.62745833 0.35935897
vt 0.68067384 0.28600973
vt 0.62803996 0.36523026
vt 0.68067384 0.38036174
vt 0.6286705 0.7095578
vt 0.6284676 0.62174
vt 0.6337411 0.6171466
vt 0.6337411 0.7133043
vt 0.14408994 0.5304086
vt 0.0575552 0.5249157
vt 0.14407027 0.52298856
vt 0.060165763 0.5318036
vt 0.017217755 0.5475795
vt 0.024039268 0.5512183
vt 0.003639102 0.62869143
vt 0.011310577 0.6288619
vt 0.050047874 0.75683355
vt 0.05604267 0.75208044
vt 0.14408994 0.7941501
vt 0.14408052 0.7870438
vt 0.94373345 0.29501605
vt 0.9636524 0.34466767
vt 0.89322567 0.34452772
vt 0.8805053 0.26835656
vt 0.92145467 0.23793936
vt 0.93056273 0.19030094
vt 0.9636524 0.2190423
vt 0.15136838 0.8828293
vt 0.18772888 0.8523823
vt 0.18459916 0.8790581
vt 0.249897 0.8515595
vt 0.24964237 0.87351906
vt 0.249897 0.9400712
vt 0.22085428 0.7534387
vt 0.17005515 0.7760277
vt 0.9802589 0.48951614
vt 0.9363083 0.52018106
vt 0.93486077 0.43969166
vt 0.9802589 0.393021
vt 0.6138434 0.7517505
vt 0.6151098 0.6220794
vt 0.6211893 0.6171466
vt 0.6211893 0.7543088
vt 0.5424597 0.81211025
vt 0.5444716 0.8262756
vt 0.48040593 0.77715325
vt 0.47013938 0.8266345
vt 0.47360125 0.7733006
vt 0.46921778 0.7773157
vt 0.44773105 0.77827287
vt 0.43986472 0.8160236
vt 0.46746588 0.6835647
vt 0.030359745 0.847517
vt 0.112780094 0.8014283
vt 0.112780094 0.868281
vt 0.022153854 0.86572623
vt 0.0068712234 0.8606516
vt 0.0036392212 0.9245527
vt 0.111730576 0.8989171
vt 0.014655113 0.9122443
vt 0.053132057 0.90880775
vt 0.07515764 0.92811567
vt 0.09974432 0.9358761
vt 0.032277107 0.9102699
vt 0.04845476 0.93554854
vt 0.028409481 0.9385146
vt 0.012401581 0.948142
vt 0.88494706 0.9226029
vt 0.87466 0.9560555
vt 0.8577864 0.9509256
vt 0.8970885 0.9206567
vt 0.882169 0.87921387
vt 0.8970885 0.87663627
vt 0.86154366 0.8830234
vt 0.86712503 0.92085326
vt 0.8512542 0.9104985
vt 0.7661104 0.35277665
vt 0.7285374 0.3803617
vt 0.68795204 0.34717986
vt 0.72703123 0.3177069
vt 0.7661104 0.28823394
vt 0.69608253 0.30455917
vt 0.73109645 0.29639655
vt 0.67792726 0.64156044
vt 0.72660685 0.52130425
vt 0.7968731 0.64266527
vt 0.6553967 0.5478516
vt 0.68288445 0.42728168
vt 0.7479801 0.43047652
vt 0.7372756 0.40265682
vt 0.7968731 0.393021
vt 0.3081553 0.86096895
vt 0.26812422 0.85728633
vt 0.26168334 0.75789654
vt 0.34041262 0.7695457
vt 0.33541918 0.6946839
vt 0.3948456 0.73062575
vt 0.3948456 0.8140665
vt 0.39473712 0.86206996
vt 0.8805054 0.0036392212
vt 0.9801983 0.00670743
vt 0.9801983 0.08590722
vt 0.8874839 0.057162046
vt 0.9081686 0.10700607
vt 0.8906271 0.11667371
vt 0.9782284 0.13529897
vt 0.96848243 0.18069983
vt 0.97430557 0.18302274
vt 0.9110441 0.76331913
vt 0.9656298 0.79412675
vt 0.9639616 0.8001498
vt 0.930436 0.7378639
vt 0.9656298 0.69657063
vt 0.9209312 0.6499436
vt 0.93157876 0.5800752
vt 0.93157876 0.6334191
vt 0.90383935 0.5640264
vt 0.8727588 0.6273424
vt 0.8723235 0.58724254
vt 0.9388571 0.63908076
vt 0.94412255 0.5640266
vt 0.96788716 0.5860343
vt 0.9780266 0.63908076
vt 0.31773514 0.8753247
vt 0.2708798 0.92137074
vt 0.26274544 0.8693483
vt 0.3170637 0.90850973
vt 0.2861817 0.94313264
vt 0.3168773 0.9501102
vt 0.26168346 0.9447961
vt 0.31773514 0.987437
vt 0.27583432 0.9821174
vn -0.008481396 -0.8960756 0.06145698
vn -1.1272745E-06 -0.9420084 -0.009251237
vn 0.28075743 -0.7817223 -0.41089058
vn 0.529182 0.5596082 -0.6079485
vn 0.5812062 -0.3128454 -0.67318755
vn 0.26885033 -0.07589619 -0.905223
vn 0.6844694 -0.42003882 0.5775445
vn 0.45932686 -0.5802858 -0.6161441
vn 0.6093634 -0.20844984 -0.70282435
vn -0.00020887698 0.2027878 -0.9557018
vn -3.1492718E-07 -0.89707744 -0.40212625
vn 0.46574023 -0.80255026 -0.3392767
vn 0.5059017 -0.32422766 0.781687
vn 0.0017574644 -0.5091896 0.83597
vn 0.0048574517 -0.3964061 0.8981774
vn -0.08740479 -0.06937783 -0.9937537
vn 0.5352381 -0.3809039 -0.75394434
vn 0.8943883 -0.022727238 -0.4467135
vn -0.008481396 -0.8960756 0.06145698
vn -0.29845822 -0.79687697 -0.47814524
vn -1.1272745E-06 -0.9420084 -0.009251237
vn -0.5291861 0.79356897 0.12488069
vn -0.26880518 0.4116252 -0.8450605
vn -0.5794744 0.10885098 -0.793863
vn -0.68444204 -0.72504777 0.027752653
vn -0.6048069 0.3638082 -0.6992391
vn -0.45921338 0.007656634 -0.8791702
vn -0.00020887698 0.2027878 -0.9557018
vn -0.46574083 -0.80255 -0.33927628
vn -3.1492718E-07 -0.89707744 -0.40212625
vn -0.51070917 -0.30556455 0.78507775
vn 0.0048574517 -0.3964061 0.8981774
vn 0.0017574644 -0.5091896 0.83597
vn 0.15040247 -0.14133865 -0.97846943
vn -0.82999074 0.17781743 -0.5286741
vn -0.54879653 -0.2743975 -0.78963804
vn -0.8589831 -0.2655808 0.43773836
vn -0.8269085 0.002105847 -0.5623323
vn -0.381203 -0.7018146 -0.60178065
vn -0.97021 0.06301327 -0.23392653
vn -0.65838635 -0.7525825 -0.012113139
vn -0.32811093 -0.89731973 0.29522884
vn -0.9829389 -0.18357272 -0.011495188
vn -0.35671204 0.8433821 -0.40182427
vn 0.25783578 0.90517783 0.115687594
vn 0.4919417 0.75537294 0.22731182
vn 0.30743584 0.6984234 -0.5295008
vn 0.33219776 0.3324696 0.85749495
vn 0.5795565 0.5509858 0.5812863
vn 0.4150692 -0.06297496 0.8944034
vn 0.26650903 0.8822228 0.3316318
vn -0.42509067 0.7581562 -0.43853042
vn 0.29758784 0.69591403 0.5879197
vn 0.03429009 0.6527363 0.7206953
vn 0.020176085 0.16459271 0.9642097
vn 0.04755945 0.8670065 0.42962575
vn 0.042709354 0.8782693 0.049509242
vn 0.26271147 0.48951024 0.6616416
vn 0.52357423 0.26089355 0.65453535
vn 0.035248168 0.59128106 0.6315659
vn 0.22799736 0.8223704 -0.4418954
vn 0.75933444 0.54251045 -0.35929585
vn -0.35671204 0.8433821 -0.40182427
vn 0.771554 0.568088 0.18777236
vn 0.78484654 0.11610076 0.5924733
vn 0.8193108 -0.2695982 0.4986777
vn 0.47811106 0.8033949 -0.35491708
vn 0.20103402 0.59260964 -0.7799992
vn 0.8943883 -0.022727238 -0.4467135
vn -0.42751825 0.8536888 -0.29739428
vn -0.41172886 0.81828827 0.4011027
vn 0.18681505 -0.95178163 -0.19327956
vn 0.26433748 -0.5052698 -0.76968586
vn 0.63077044 -0.48128232 -0.5330197
vn 0.76742613 -0.40122536 -0.40762648
vn 0.5929311 -0.3194923 0.59303975
vn 0.20873576 -0.340853 0.8034955
vn 0.30743584 0.6984234 -0.5295008
vn 0.52357423 0.26089355 0.65453535
vn 0.4919417 0.75537294 0.22731182
vn -0.62741023 0.017390497 -0.7776535
vn -0.41348067 0.67335266 -0.60935426
vn -0.87377363 0.47867692 -0.0844286
vn -0.84916455 -0.4761243 -0.22839269
vn -0.4090354 -0.8980516 -0.062131427
vn -0.958356 -0.03728668 -0.27077618
vn -0.25985783 0.86907375 -0.25706488
vn -0.67335624 -0.6980762 0.116243646
vn -0.9815305 0.15937325 -0.08907824
vn -0.7580358 0.051079392 -0.6239612
vn -0.20366417 -0.4792856 -0.7946156
vn -0.4611632 -0.19454482 -0.81887245
vn -0.55902773 -0.23325616 -0.7551801
vn 1.95477E-05 -0.04125282 -0.94678134
vn 0.0009944238 0.6005851 -0.7179235
vn -0.1417401 -0.059438348 -0.9376179
vn 0.28075743 -0.7817223 -0.41089058
vn -1.1272745E-06 -0.9420084 -0.009251237
vn 0.0871592 -0.9500294 -0.21851945
vn 0.63077044 -0.48128232 -0.5330197
vn 0.18681505 -0.95178163 -0.19327956
vn 0.76742613 -0.40122536 -0.40762648
vn 0.20873576 -0.340853 0.8034955
vn -0.008481396 -0.8960756 0.06145698
vn -1.1597828E-05 -0.5530094 0.7212177
vn 0.52548504 0.6680568 -0.52316403
vn 0.94604826 -0.19696227 -0.25694928
vn 0.99022686 0.098449044 0.09874443
vn 0.38499075 0.9133086 -0.1328499
vn 0.80818766 0.5559256 -0.1171381
vn 0.8032982 -0.54654515 0.18829447
vn 0.98167306 0.14995512 -0.11635428
vn 0.529182 0.5596082 -0.6079485
vn 0.5812062 -0.3128454 -0.67318755
vn 0.6093634 -0.20844984 -0.70282435
vn 0.98424757 -0.0927833 0.14979984
vn 0.75788915 -0.50982916 0.3969142
vn 0.6844694 -0.42003882 0.5775445
vn 0.529182 0.5596082 -0.6079485
vn -0.7580358 0.051079392 -0.6239612
vn -0.25985783 0.86907375 -0.25706488
vn 0.80818766 0.5559256 -0.1171381
vn 0.38499075 0.9133086 -0.1328499
vn -0.87377363 0.47867692 -0.0844286
vn -0.41348067 0.67335266 -0.60935426
vn 0.52548504 0.6680568 -0.52316403
vn 0.4150692 -0.06297496 0.8944034
vn 0.5795565 0.5509858 0.5812863
vn 0.8193108 -0.2695982 0.4986777
vn 0.26650903 0.8822228 0.3316318
vn 0.53364044 -0.82744545 -0.14170441
vn -3.0107392E-07 -0.9488001 -0.28061542
vn -3.8913822E-07 -0.82568705 -0.5492865
vn 0.4701819 -0.82971746 -0.29791743
vn -1.3387302E-07 -0.98091286 0.19444661
vn 0.5725778 -0.8153312 0.085961714
vn 0.7412628 -0.6219904 -0.24449643
vn 0.91667867 -0.39366427 -0.03346461
vn 0.40615365 -0.52567756 0.72728395
vn 0.5059017 -0.32422766 0.781687
vn 0.0048574517 -0.3964061 0.8981774
vn 0.33219776 0.3324696 0.85749495
vn 0.020176085 0.16459271 0.9642097
vn 0.40615365 -0.52567756 0.72728395
vn 0.33219776 0.3324696 0.85749495
vn 0.4150692 -0.06297496 0.8944034
vn 0.8193108 -0.2695982 0.4986777
vn 0.47158867 -0.87755144 0.0722048
vn 0.18685536 -0.9473596 0.18543729
vn 0.5059017 -0.32422766 0.781687
vn 0.68980545 -0.703258 0.09034124
vn 0.18681505 -0.95178163 -0.19327956
vn 0.57720727 -0.80171436 -0.008159488
vn 0.0871592 -0.9500294 -0.21851945
vn -0.087152824 -0.9691359 0.10670167
vn 0.49134314 -0.4539369 -0.7205057
vn -1.1272745E-06 -0.9420084 -0.009251237
vn -0.0074949437 -0.5762857 -0.7890478
vn -0.32811093 -0.89731973 0.29522884
vn 0.75419044 -0.6291234 0.18814969
vn 0.29243878 -0.9381304 -0.1854467
vn -0.65838635 -0.7525825 -0.012113139
vn -0.8269085 0.002105847 -0.5623323
vn -0.381203 -0.7018146 -0.60178065
vn -0.08740479 -0.06937783 -0.9937537
vn 0.5352381 -0.3809039 -0.75394434
vn 0.29243878 -0.9381304 -0.1854467
vn 0.8943883 -0.022727238 -0.4467135
vn 0.5352381 -0.3809039 -0.75394434
vn 0.75419044 -0.6291234 0.18814969
vn 0.75933444 0.54251045 -0.35929585
vn 0.47811106 0.8033949 -0.35491708
vn 0.9625602 -0.033270914 0.25869572
vn 0.46745262 -0.6731818 0.524276
vn 0.771554 0.568088 0.18777236
vn 0.7963809 -0.072561085 0.57536954
vn 0.3300941 -0.70607865 0.5858909
vn 0.78484654 0.11610076 0.5924733
vn 0.73819417 -0.636865 0.20949492
vn 0.8193108 -0.2695982 0.4986777
vn 0.47158867 -0.87755144 0.0722048
vn 0.20264259 -0.8818755 -0.42571247
vn -0.1149856 -0.97686505 -0.0580647
vn -0.9829389 -0.18357272 -0.011495188
vn -0.829903 0.10499698 -0.53694737
vn -0.7987483 -0.5024089 -0.28798738
vn -0.42509067 0.7581562 -0.43853042
vn 0.26433748 -0.5052698 -0.76968586
vn 0.30743584 0.6984234 -0.5295008
vn 0.25783578 0.90517783 0.115687594
vn -0.32811093 -0.89731973 0.29522884
vn -0.7987483 -0.5024089 -0.28798738
vn -0.23851107 -0.84809947 0.432122
vn -0.9829389 -0.18357272 -0.011495188
vn -0.08740479 -0.06937783 -0.9937537
vn -0.82159007 -0.35899112 -0.44284815
vn -0.381203 -0.7018146 -0.60178065
vn -0.65299666 0.2630412 -0.71021414
vn 0.20103402 0.59260964 -0.7799992
vn 0.8943883 -0.022727238 -0.4467135
vn -0.42751825 0.8536888 -0.29739428
vn -0.805549 -0.5173289 -0.2888975
vn -0.24308787 -0.75193644 0.6127811
vn -0.06877816 -0.84449744 -0.5311239
vn 0.27318794 -0.7974475 0.5373921
vn 0.61849344 -0.6794898 -0.393901
vn -0.381203 -0.7018146 -0.60178065
vn -0.82159007 -0.35899112 -0.44284815
vn -0.9029923 -0.11440458 0.41414526
vn -0.8589831 -0.2655808 0.43773836
vn -0.06877816 -0.84449744 -0.5311239
vn -0.84916455 -0.4761243 -0.22839269
vn -0.805549 -0.5173289 -0.2888975
vn 0.043769456 -0.0929618 -0.9940971
vn 0.61849344 -0.6794898 -0.393901
vn -0.62741023 0.017390497 -0.7776535
vn 0.94604826 -0.19696227 -0.25694928
vn -0.41348067 0.67335266 -0.60935426
vn 0.52548504 0.6680568 -0.52316403
vn -0.4090354 -0.8980516 -0.062131427
vn 0.46034098 -0.8084665 0.3649738
vn -0.84916455 -0.4761243 -0.22839269
vn 0.8032982 -0.54654515 0.18829447
vn 0.99022686 0.098449044 0.09874443
vn 0.032359492 -0.9203344 0.3069796
vn -0.67335624 -0.6980762 0.116243646
vn -0.20366417 -0.4792856 -0.7946156
vn 0.3659891 -0.80724156 0.4300151
vn 0.75788915 -0.50982916 0.3969142
vn 0.6844694 -0.42003882 0.5775445
vn 0.45932686 -0.5802858 -0.6161441
vn 0.01998916 -0.898009 0.3699152
vn -0.805549 -0.5173289 -0.2888975
vn -0.84916455 -0.4761243 -0.22839269
vn -0.24308787 -0.75193644 0.6127811
vn 0.46034098 -0.8084665 0.3649738
vn 0.27318794 -0.7974475 0.5373921
vn 0.94604826 -0.19696227 -0.25694928
vn 0.99022686 0.098449044 0.09874443
vn 0.61849344 -0.6794898 -0.393901
vn 0.529182 0.5596082 -0.6079485
vn 0.26885033 -0.07589619 -0.905223
vn -0.7580358 0.051079392 -0.6239612
vn -0.55902773 -0.23325616 -0.7551801
vn -0.079226434 0.21826008 -0.9131742
vn 0.0009944238 0.6005851 -0.7179235
vn 0.5812062 -0.3128454 -0.67318755
vn 0.77519876 0.3124994 -0.48822066
vn -0.079226434 0.21826008 -0.9131742
vn 0.26885033 -0.07589619 -0.905223
vn 0.035248168 0.59128106 0.6315659
vn 0.022452198 0.26144367 0.82789934
vn 0.22378847 0.526932 0.64487106
vn 0.26271147 0.48951024 0.6616416
vn 0.57679754 0.30599082 0.60390866
vn 0.52357423 0.26089355 0.65453535
vn 0.558847 -0.18208715 0.6701997
vn 0.5929311 -0.3194923 0.59303975
vn 0.4975127 -0.46817464 0.62349844
vn 0.20873576 -0.340853 0.8034955
vn -6.5034874E-06 -0.74377894 0.5264105
vn -1.1597828E-05 -0.5530094 0.7212177
vn 0.20264259 -0.8818755 -0.42571247
vn 0.18681505 -0.95178163 -0.19327956
vn 0.47158867 -0.87755144 0.0722048
vn 0.26433748 -0.5052698 -0.76968586
vn -0.46448022 -0.71141946 -0.48135054
vn -0.7987483 -0.5024089 -0.28798738
vn -0.1149856 -0.97686505 -0.0580647
vn -0.7987483 -0.5024089 -0.28798738
vn -0.1149856 -0.97686505 -0.0580647
vn -0.23851107 -0.84809947 0.432122
vn 0.46745262 -0.6731818 0.524276
vn 0.3300941 -0.70607865 0.5858909
vn 0.73819417 -0.636865 0.20949492
vn 0.75419044 -0.6291234 0.18814969
vn -0.32811093 -0.89731973 0.29522884
vn -0.35671204 0.8433821 -0.40182427
vn -0.829903 0.10499698 -0.53694737
vn -0.9829389 -0.18357272 -0.011495188
vn -0.42509067 0.7581562 -0.43853042
vn 0.6093634 -0.20844984 -0.70282435
vn 0.77519876 0.3124994 -0.48822066
vn 0.5812062 -0.3128454 -0.67318755
vn 0.8903713 -0.23606046 -0.34579387
vn 0.45932686 -0.5802858 -0.6161441
vn 0.8871474 -0.11550379 -0.4151565
vn -0.20366417 -0.4792856 -0.7946156
vn 0.2700243 0.6271081 -0.6526742
vn -0.4611632 -0.19454482 -0.81887245
vn -0.1417401 -0.059438348 -0.9376179
vn 1.7828661E-05 -0.013873205 -0.94980204
vn 1.1946291E-05 0.53703403 -0.7730526
vn 1.95477E-05 -0.04125282 -0.94678134
vn 0.68980545 -0.703258 0.09034124
vn 0.7271294 -0.119110316 0.66269183
vn 0.5059017 -0.32422766 0.781687
vn 0.9727777 -0.08467196 0.19759396
vn 0.57720727 -0.80171436 -0.008159488
vn 0.92318934 -0.23834762 -0.28985766
vn 0.84906244 -0.22799107 0.47289672
vn 0.8336043 -0.29055876 0.4590392
vn 0.91667867 -0.39366427 -0.03346461
vn 0.7412628 -0.6219904 -0.24449643
vn 0.5725778 -0.8153312 0.085961714
vn 0.86199486 -0.40784347 0.28765315
vn 0.53364044 -0.82744545 -0.14170441
vn 0.48062402 -0.8296938 0.25399145
vn 0.36480814 -0.78329754 0.48086876
vn 0.36480814 -0.78329754 0.48086876
vn 0.8336043 -0.29055876 0.4590392
vn 0.92318934 -0.23834762 -0.28985766
vn 0.46574023 -0.80255026 -0.3392767
vn -4.0379263E-08 -0.91523194 0.36677518
vn -3.1492718E-07 -0.89707744 -0.40212625
vn -3.0107392E-07 -0.9488001 -0.28061542
vn 0.48062402 -0.8296938 0.25399145
vn 0.53364044 -0.82744545 -0.14170441
vn 0.92318934 -0.23834762 -0.28985766
vn -0.00020887698 0.2027878 -0.9557018
vn 0.46574023 -0.80255026 -0.3392767
vn 0.36101228 0.44847968 -0.79506063
vn 0.57720727 -0.80171436 -0.008159488
vn -0.0074949437 -0.5762857 -0.7890478
vn 0.49134314 -0.4539369 -0.7205057
vn 0.57679754 0.30599082 0.60390866
vn 0.77519876 0.3124994 -0.48822066
vn 0.8903713 -0.23606046 -0.34579387
vn 0.558847 -0.18208715 0.6701997
vn 0.4975127 -0.46817464 0.62349844
vn 0.8871474 -0.11550379 -0.4151565
vn 0.7069267 -0.6246276 0.17719683
vn 0.821278 0.06403898 -0.52497435
vn 0.22378847 0.526932 0.64487106
vn 0.77519876 0.3124994 -0.48822066
vn 0.57679754 0.30599082 0.60390866
vn 0.041995294 0.826271 -0.364592
vn -0.079226434 0.21826008 -0.9131742
vn 0.0009944238 0.6005851 -0.7179235
vn 0.023935622 0.8844444 0.111544244
vn 0.022452198 0.26144367 0.82789934
vn 0.4975127 -0.46817464 0.62349844
vn 4.788376E-06 -0.9285101 0.025056377
vn -6.5034874E-06 -0.74377894 0.5264105
vn 0.7069267 -0.6246276 0.17719683
vn 0.44622117 -0.819874 -0.106377825
vn 0.821278 0.06403898 -0.52497435
vn 1.19017905E-05 -0.88911176 -0.26585227
vn 0.45337003 0.07298991 -0.82839215
vn 1.9359823E-05 0.021359354 -0.93264633
vn 1.1946291E-05 0.53703403 -0.7730526
vn 1.9359823E-05 0.021359354 -0.93264633
vn 0.45337003 0.07298991 -0.82839215
vn 0.2700243 0.6271081 -0.6526742
vn 0.821278 0.06403898 -0.52497435
vn 0.8871474 -0.11550379 -0.4151565
vn -0.82159007 -0.35899112 -0.44284815
vn -0.65299666 0.2630412 -0.71021414
vn -0.9029923 -0.11440458 0.41414526
vn -0.41172886 0.81828827 0.4011027
vn -0.42751825 0.8536888 -0.29739428
vn -0.8589831 -0.2655808 0.43773836
vn -0.9029923 -0.11440458 0.41414526
vn -0.41172886 0.81828827 0.4011027
vn -0.35671204 0.8433821 -0.40182427
vn 0.0017574644 -0.5091896 0.83597
vn 0.5059017 -0.32422766 0.781687
vn 0.7271294 -0.119110316 0.66269183
vn 3.343625E-07 -0.16854249 0.9717935
vn 0.3763894 -0.40606287 0.8318924
vn 2.0402136E-07 -0.5944836 0.8002741
vn 0.84906244 -0.22799107 0.47289672
vn -1.3387302E-07 -0.98091286 0.19444661
vn 0.5725778 -0.8153312 0.085961714
vn 0.7235426 -0.44820568 0.52497417
vn 0.24015957 -0.8055176 -0.5417234
vn 0.84478694 -0.23414284 -0.48115706
vn 0.97064 -0.1937095 -0.14259921
vn 0.4446984 -0.8927142 0.072830886
vn 0.063828275 -0.933961 0.35162824
vn 0.9016472 -0.42357272 0.08728346
vn 0.5914165 0.7051618 -0.39111826
vn -0.117580056 0.9770841 0.10298118
vn -0.18207864 0.803491 -0.5338869
vn -0.42863673 0.8316155 0.28379977
vn -0.31171438 0.3777648 0.8479446
vn -0.47238365 0.6928973 0.5275866
vn -0.40851974 0.06242755 0.89570004
vn -0.08079306 0.9489334 0.24085733
vn 0.5969434 0.6059736 -0.4877655
vn -0.27045217 0.72045076 0.60839003
vn 0.03429009 0.6527363 0.7206953
vn 0.020176085 0.16459271 0.9642097
vn 0.04755945 0.8670065 0.42962575
vn 0.042709354 0.8782693 0.049509242
vn -0.2571255 0.25410223 0.90631235
vn -0.5315791 -0.033324897 0.82938164
vn 0.035248168 0.59128106 0.6315659
vn 0.0038254336 0.8241611 -0.507267
vn -0.5639241 0.6952162 -0.44571742
vn 0.5914165 0.7051618 -0.39111826
vn -0.6144422 0.747144 0.110490695
vn -0.7344022 0.34163344 0.5654881
vn -0.8472714 -0.06403005 0.52220243
vn -0.22715595 0.8774586 -0.42245275
vn 0.022245333 0.5820327 -0.8128612
vn -0.82999074 0.17781743 -0.5286741
vn 0.65345985 0.70295405 -0.2807954
vn 0.570395 0.70952237 0.41379637
vn -0.33484823 -0.928532 -0.110506535
vn -0.66411674 -0.462519 -0.5669278
vn -0.36083725 -0.50908405 -0.7693996
vn -0.7919214 -0.36906633 -0.4665237
vn -0.6230788 -0.57394004 0.5037235
vn -0.21386033 -0.8460752 0.45510048
vn -0.18207864 0.803491 -0.5338869
vn -0.5315791 -0.033324897 0.82938164
vn -0.42863673 0.8316155 0.28379977
vn 0.6265189 0.74717945 0.21495262
vn 0.87397957 0.10654454 0.47342873
vn 0.4122724 0.526967 0.7364206
vn 0.8500574 0.35687298 -0.3871912
vn 0.4081902 -0.011652559 -0.87892944
vn 0.9580638 0.24135749 -0.07307075
vn 0.260267 0.45259824 0.65325344
vn 0.67329794 -0.47269854 -0.4776559
vn 0.9815501 0.14868069 0.081857696
vn 0.7580416 0.50410986 -0.35469395
vn 0.20371561 -0.17375018 -0.9466395
vn 0.46120635 0.09962888 -0.86902195
vn 0.55905485 0.36903298 -0.7005308
vn 1.95477E-05 -0.04125282 -0.94678134
vn 0.0009944238 0.6005851 -0.7179235
vn 0.14178486 0.26460272 -0.9417819
vn -0.29845822 -0.79687697 -0.47814524
vn -0.113453604 -0.9517975 -0.20404828
vn -1.1272745E-06 -0.9420084 -0.009251237
vn -0.66411674 -0.462519 -0.5669278
vn -0.33484823 -0.928532 -0.110506535
vn -0.7919214 -0.36906633 -0.4665237
vn -0.21386033 -0.8460752 0.45510048
vn -0.008481396 -0.8960756 0.06145698
vn -1.1597828E-05 -0.5530094 0.7212177
vn -0.5265646 0.44455054 0.71885085
vn -0.99001014 -0.09392419 0.10509446
vn -0.94590956 0.2983994 -0.12559266
vn -0.38438597 0.1920584 0.902973
vn -0.80783767 0.17556593 0.50113165
vn -0.8033334 -0.4113952 -0.36052814
vn -0.98168904 0.17814869 0.06289098
vn -0.5291861 0.79356897 0.12488069
vn -0.5794744 0.10885098 -0.793863
vn -0.6048069 0.3638082 -0.6992391
vn -0.9842409 -0.17662382 0.0049821176
vn -0.75783056 -0.6224642 -0.19055529
vn -0.68444204 -0.72504777 0.027752653
vn -0.5291861 0.79356897 0.12488069
vn 0.260267 0.45259824 0.65325344
vn 0.7580416 0.50410986 -0.35469395
vn -0.80783767 0.17556593 0.50113165
vn -0.38438597 0.1920584 0.902973
vn 0.87397957 0.10654454 0.47342873
vn 0.4122724 0.526967 0.7364206
vn -0.5265646 0.44455054 0.71885085
vn -0.40851974 0.06242755 0.89570004
vn -0.8472714 -0.06403005 0.52220243
vn -0.47238365 0.6928973 0.5275866
vn -0.08079306 0.9489334 0.24085733
vn -0.53364086 -0.82744503 -0.141704
vn -3.8913822E-07 -0.82568705 -0.5492865
vn -3.0107392E-07 -0.9488001 -0.28061542
vn -0.4701824 -0.82971734 -0.29791707
vn -1.3387302E-07 -0.98091286 0.19444661
vn -0.5725781 -0.8153309 0.08596213
vn -0.7412631 -0.6219901 -0.24449587
vn -0.9166789 -0.3936638 -0.033463918
vn -0.42645407 -0.48806334 0.73998547
vn 0.0048574517 -0.3964061 0.8981774
vn -0.51070917 -0.30556455 0.78507775
vn -0.31171438 0.3777648 0.8479446
vn 0.020176085 0.16459271 0.9642097
vn -0.42645407 -0.48806334 0.73998547
vn -0.40851974 0.06242755 0.89570004
vn -0.31171438 0.3777648 0.8479446
vn -0.8472714 -0.06403005 0.52220243
vn -0.6321578 -0.7561517 0.16575974
vn -0.22665523 -0.934512 0.20795015
vn -0.51070917 -0.30556455 0.78507775
vn -0.7028806 -0.6921018 0.09800944
vn -0.33484823 -0.928532 -0.110506535
vn -0.5960504 -0.7907506 0.002690345
vn -0.113453604 -0.9517975 -0.20404828
vn 0.07113325 -0.96926 0.11555523
vn -0.50006264 -0.45545608 -0.71574354
vn -1.1272745E-06 -0.9420084 -0.009251237
vn -0.0074949437 -0.5762857 -0.7890478
vn 0.063828275 -0.933961 0.35162824
vn -0.50399804 -0.8438077 -0.18432131
vn -0.9021233 -0.41000944 0.13441005
vn 0.4446984 -0.8927142 0.072830886
vn 0.84478694 -0.23414284 -0.48115706
vn 0.24015957 -0.8055176 -0.5417234
vn 0.15040247 -0.14133865 -0.97846943
vn -0.54879653 -0.2743975 -0.78963804
vn -0.50399804 -0.8438077 -0.18432131
vn -0.54879653 -0.2743975 -0.78963804
vn -0.82999074 0.17781743 -0.5286741
vn -0.9021233 -0.41000944 0.13441005
vn -0.5639241 0.6952162 -0.44571742
vn -0.22715595 0.8774586 -0.42245275
vn -0.95185286 0.21676047 0.18955477
vn -0.631356 -0.5073719 0.55105674
vn -0.6144422 0.747144 0.110490695
vn -0.8062067 0.16006629 0.5390498
vn -0.4821073 -0.5595435 0.64418846
vn -0.7344022 0.34163344 0.5654881
vn -0.8527847 -0.4419744 0.27133244
vn -0.8472714 -0.06403005 0.52220243
vn -0.6321578 -0.7561517 0.16575974
vn -0.38829067 -0.86332935 -0.32232332
vn -0.09864317 -0.9823597 0.048576087
vn 0.9016472 -0.42357272 0.08728346
vn 0.6604165 -0.7010618 -0.2035596
vn 0.86324185 -0.13344675 -0.47297457
vn 0.5969434 0.6059736 -0.4877655
vn -0.36083725 -0.50908405 -0.7693996
vn -0.18207864 0.803491 -0.5338869
vn -0.117580056 0.9770841 0.10298118
vn 0.063828275 -0.933961 0.35162824
vn -0.015850171 -0.8563709 0.48547214
vn 0.6604165 -0.7010618 -0.2035596
vn 0.9016472 -0.42357272 0.08728346
vn 0.15040247 -0.14133865 -0.97846943
vn 0.24015957 -0.8055176 -0.5417234
vn 0.7380519 -0.57564414 -0.3520128
vn 0.7558085 0.053781062 -0.65258044
vn 0.022245333 0.5820327 -0.8128612
vn -0.82999074 0.17781743 -0.5286741
vn 0.65345985 0.70295405 -0.2807954
vn 0.8064905 0.42821696 -0.40768033
vn 0.07025329 0.75549996 -0.6513698
vn 0.24561207 -0.3651776 -0.89795345
vn -0.2707313 -0.29148698 -0.9166405
vn -0.6173766 0.5654429 -0.5456195
vn 0.24015957 -0.8055176 -0.5417234
vn 0.7235426 -0.44820568 0.52497417
vn 0.80626416 -0.31427294 0.5011693
vn 0.7380519 -0.57564414 -0.3520128
vn 0.07025329 0.75549996 -0.6513698
vn 0.8064905 0.42821696 -0.40768033
vn 0.8500574 0.35687298 -0.3871912
vn -0.04465847 0.9811405 0.18065177
vn -0.6173766 0.5654429 -0.5456195
vn 0.6265189 0.74717945 0.21495262
vn -0.94590956 0.2983994 -0.12559266
vn 0.4122724 0.526967 0.7364206
vn -0.5265646 0.44455054 0.71885085
vn 0.4081902 -0.011652559 -0.87892944
vn 0.8500574 0.35687298 -0.3871912
vn -0.46033284 -0.3933375 -0.7939912
vn -0.8033334 -0.4113952 -0.36052814
vn -0.99001014 -0.09392419 0.10509446
vn -0.032418836 -0.6843856 -0.61179644
vn 0.67329794 -0.47269854 -0.4776559
vn 0.20371561 -0.17375018 -0.9466395
vn -0.3658911 -0.84194887 -0.3876719
vn -0.75783056 -0.6224642 -0.19055529
vn -0.68444204 -0.72504777 0.027752653
vn -0.45921338 0.007656634 -0.8791702
vn -0.019885184 -0.8874104 -0.44589645
vn 0.8064905 0.42821696 -0.40768033
vn 0.24561207 -0.3651776 -0.89795345
vn 0.8500574 0.35687298 -0.3871912
vn -0.46033284 -0.3933375 -0.7939912
vn -0.2707313 -0.29148698 -0.9166405
vn -0.94590956 0.2983994 -0.12559266
vn -0.99001014 -0.09392419 0.10509446
vn -0.6173766 0.5654429 -0.5456195
vn -0.5291861 0.79356897 0.12488069
vn 0.7580416 0.50410986 -0.35469395
vn -0.26880518 0.4116252 -0.8450605
vn 0.55905485 0.36903298 -0.7005308
vn 0.07925805 0.66186434 -0.71832037
vn 0.0009944238 0.6005851 -0.7179235
vn -0.5794744 0.10885098 -0.793863
vn -0.26880518 0.4116252 -0.8450605
vn 0.07925805 0.66186434 -0.71832037
vn -0.7679287 0.5740959 -0.25945213
vn 0.035248168 0.59128106 0.6315659
vn -0.21843141 0.25748163 0.9168601
vn 0.022452198 0.26144367 0.82789934
vn -0.2571255 0.25410223 0.90631235
vn -0.5824968 0.0052504092 0.79660314
vn -0.5315791 -0.033324897 0.82938164
vn -0.5836779 -0.5000772 0.6171767
vn -0.6230788 -0.57394004 0.5037235
vn -0.50112206 -0.82860297 0.1965651
vn -0.21386033 -0.8460752 0.45510048
vn -6.5034874E-06 -0.74377894 0.5264105
vn -1.1597828E-05 -0.5530094 0.7212177
vn -0.38829067 -0.86332935 -0.32232332
vn -0.6321578 -0.7561517 0.16575974
vn -0.33484823 -0.928532 -0.110506535
vn -0.36083725 -0.50908405 -0.7693996
vn 0.29039747 -0.84439856 -0.4001137
vn 0.6604165 -0.7010618 -0.2035596
vn -0.09864317 -0.9823597 0.048576087
vn 0.6604165 -0.7010618 -0.2035596
vn -0.015850171 -0.8563709 0.48547214
vn -0.09864317 -0.9823597 0.048576087
vn -0.631356 -0.5073719 0.55105674
vn -0.4821073 -0.5595435 0.64418846
vn -0.8527847 -0.4419744 0.27133244
vn -0.9021233 -0.41000944 0.13441005
vn 0.063828275 -0.933961 0.35162824
vn 0.5914165 0.7051618 -0.39111826
vn 0.9016472 -0.42357272 0.08728346
vn 0.86324185 -0.13344675 -0.47297457
vn 0.5969434 0.6059736 -0.4877655
vn -0.6048069 0.3638082 -0.6992391
vn -0.5794744 0.10885098 -0.793863
vn -0.7679287 0.5740959 -0.25945213
vn -0.8910166 0.06168496 -0.44265747
vn -0.45921338 0.007656634 -0.8791702
vn -0.8871072 0.17317998 -0.42077133
vn 0.20371561 -0.17375018 -0.9466395
vn -0.27002525 0.86802614 -0.38311344
vn 0.46120635 0.09962888 -0.86902195
vn 0.14178486 0.26460272 -0.9417819
vn 1.7828661E-05 -0.013873205 -0.94980204
vn 1.1946291E-05 0.53703403 -0.7730526
vn 1.95477E-05 -0.04125282 -0.94678134
vn -0.7028806 -0.6921018 0.09800944
vn -0.51070917 -0.30556455 0.78507775
vn -0.7287261 -0.1117841 0.6638626
vn -0.97531426 -0.072303325 0.19948208
vn -0.5960504 -0.7907506 0.002690345
vn -0.92461044 -0.236259 -0.2889892
vn -0.8490621 -0.22799073 0.4728974
vn -0.83394396 -0.28976575 0.4592588
vn -0.9166789 -0.3936638 -0.033463918
vn -0.7412631 -0.6219901 -0.24449587
vn -0.5725781 -0.8153309 0.08596213
vn -0.86232424 -0.4073153 0.28785673
vn -0.53364086 -0.82744503 -0.141704
vn -0.48062414 -0.82969356 0.2539919
vn -0.36480802 -0.7832974 0.48086914
vn -0.36480802 -0.7832974 0.48086914
vn -0.92461044 -0.236259 -0.2889892
vn -0.83394396 -0.28976575 0.4592588
vn -0.46574083 -0.80255 -0.33927628
vn -4.0379263E-08 -0.91523194 0.36677518
vn -3.1492718E-07 -0.89707744 -0.40212625
vn -3.0107392E-07 -0.9488001 -0.28061542
vn -0.48062414 -0.82969356 0.2539919
vn -0.53364086 -0.82744503 -0.141704
vn -0.92461044 -0.236259 -0.2889892
vn -0.46574083 -0.80255 -0.33927628
vn -0.00020887698 0.2027878 -0.9557018
vn -0.35773864 0.44561365 -0.7969833
vn -0.5960504 -0.7907506 0.002690345
vn -0.0074949437 -0.5762857 -0.7890478
vn -0.50006264 -0.45545608 -0.71574354
vn -0.5824968 0.0052504092 0.79660314
vn -0.8910166 0.06168496 -0.44265747
vn -0.7679287 0.5740959 -0.25945213
vn -0.5836779 -0.5000772 0.6171767
vn -0.50112206 -0.82860297 0.1965651
vn -0.8871072 0.17317998 -0.42077133
vn -0.7068828 -0.6613881 -0.21259595
vn -0.82125145 0.3110826 -0.46623263
vn -0.21843141 0.25748163 0.9168601
vn -0.5824968 0.0052504092 0.79660314
vn -0.7679287 0.5740959 -0.25945213
vn -0.03169745 0.97406334 0.1213538
vn 0.07925805 0.66186434 -0.71832037
vn 0.0009944238 0.6005851 -0.7179235
vn 0.023935622 0.8844444 0.111544244
vn 0.022452198 0.26144367 0.82789934
vn -0.50112206 -0.82860297 0.1965651
vn -6.5034874E-06 -0.74377894 0.5264105
vn 4.788376E-06 -0.9285101 0.025056377
vn -0.7068828 -0.6613881 -0.21259595
vn -0.44616202 -0.73323464 -0.48332524
vn -0.82125145 0.3110826 -0.46623263
vn 1.19017905E-05 -0.88911176 -0.26585227
vn -0.4533328 0.3811473 -0.7884012
vn 1.9359823E-05 0.021359354 -0.93264633
vn 1.1946291E-05 0.53703403 -0.7730526
vn -0.4533328 0.3811473 -0.7884012
vn 1.9359823E-05 0.021359354 -0.93264633
vn -0.27002525 0.86802614 -0.38311344
vn -0.82125145 0.3110826 -0.46623263
vn -0.8871072 0.17317998 -0.42077133
vn 0.7380519 -0.57564414 -0.3520128
vn 0.80626416 -0.31427294 0.5011693
vn 0.7558085 0.053781062 -0.65258044
vn 0.570395 0.70952237 0.41379637
vn 0.65345985 0.70295405 -0.2807954
vn 0.7235426 -0.44820568 0.52497417
vn 0.5914165 0.7051618 -0.39111826
vn 0.570395 0.70952237 0.41379637
vn 0.80626416 -0.31427294 0.5011693
vn 0.0017574644 -0.5091896 0.83597
vn -0.7287261 -0.1117841 0.6638626
vn -0.51070917 -0.30556455 0.78507775
vn 3.343625E-07 -0.16854249 0.9717935
vn -0.37638903 -0.40606266 0.83189267
vn 2.0402136E-07 -0.5944836 0.8002741
vn -0.8490621 -0.22799073 0.4728974
vn -1.3387302E-07 -0.98091286 0.19444661
vn -0.5725781 -0.8153309 0.08596213
g 0.0500_0
f 3/3/3 2/2/2 1/1/1
f 6/6/6 5/5/5 4/4/4
f 9/9/9 8/8/8 7/7/7
f 12/12/12 11/11/11 10/10/10
f 15/15/15 14/14/14 13/13/13
f 18/18/18 17/17/17 16/16/16
f 21/21/21 20/20/20 19/19/19
f 24/24/24 23/23/23 22/22/22
f 27/27/27 26/26/26 25/25/25
f 30/30/30 29/29/29 28/28/28
f 33/33/33 32/32/32 31/31/31
f 36/36/36 35/35/35 34/34/34
f 39/39/39 38/38/38 37/37/37
f 38/38/38 40/40/40 37/37/37
f 38/38/38 41/41/41 40/40/40
f 37/37/37 40/40/40 41/41/41
f 41/41/41 42/42/42 37/37/37
f 42/42/42 43/43/43 37/37/37
f 37/37/37 43/43/43 44/44/44
f 47/47/47 46/46/46 45/45/45
f 48/48/48 45/45/45 46/46/46
f 45/45/45 48/48/48 49/49/49
f 49/49/49 48/48/48 50/50/50
f 49/49/49 51/51/51 45/45/45
f 52/52/52 45/45/45 51/51/51
f 53/53/53 48/48/48 46/46/46
f 53/53/53 54/54/54 48/48/48
f 54/54/54 55/55/55 48/48/48
f 56/56/56 54/54/54 53/53/53
f 57/57/57 56/56/56 53/53/53
f 53/53/53 46/46/46 57/57/57
f 58/58/58 57/57/57 46/46/46
f 58/58/58 46/46/46 59/59/59
f 58/58/58 60/60/60 57/57/57
f 51/51/51 61/61/61 52/52/52
f 61/61/61 62/62/62 52/52/52
f 62/62/62 63/63/63 52/52/52
f 61/61/61 64/64/64 62/62/62
f 61/61/61 51/51/51 64/64/64
f 65/65/65 64/64/64 51/51/51
f 51/51/51 66/66/66 65/65/65
f 63/63/63 62/62/62 67/67/67
f 67/67/67 68/68/68 63/63/63
f 67/67/67 69/69/69 68/68/68
f 68/68/68 70/70/70 63/63/63
f 70/70/70 71/71/71 63/63/63
f 74/74/74 73/73/73 72/72/72
f 73/73/73 74/74/74 75/75/75
f 73/73/73 75/75/75 76/76/76
f 75/75/75 77/77/77 76/76/76
f 76/76/76 78/78/78 73/73/73
f 76/76/76 79/79/79 78/78/78
f 79/79/79 80/80/80 78/78/78
f 83/83/83 82/82/82 81/81/81
f 83/83/83 81/81/81 84/84/84
f 85/85/85 83/83/83 84/84/84
f 83/83/83 85/85/85 86/86/86
f 83/83/83 86/86/86 87/87/87
f 85/85/85 88/88/88 86/86/86
f 87/87/87 86/86/86 89/89/89
f 89/89/89 86/86/86 88/88/88
f 87/87/87 89/89/89 90/90/90
f 89/89/89 88/88/88 90/90/90
f 90/90/90 88/88/88 91/91/91
f 91/91/91 92/92/92 90/90/90
f 92/92/92 93/93/93 90/90/90
f 93/93/93 92/92/92 94/94/94
f 93/93/93 94/94/94 95/95/95
f 92/92/92 96/96/96 94/94/94
f 99/99/99 98/98/98 97/97/97
f 97/97/97 100/100/100 99/99/99
f 99/99/99 100/100/100 101/101/101
f 100/100/100 97/97/97 102/102/102
f 97/97/97 103/103/103 102/102/102
f 104/104/104 103/103/103 97/97/97
f 104/104/104 105/105/105 103/103/103
f 108/108/108 107/107/107 106/106/106
f 108/108/108 106/106/106 109/109/109
f 110/110/110 108/108/108 109/109/109
f 108/108/108 110/110/110 111/111/111
f 111/111/111 110/110/110 112/112/112
f 112/112/112 110/110/110 113/113/113
f 112/112/112 113/113/113 114/114/114
f 114/114/114 115/115/115 112/112/112
f 112/112/112 116/116/116 111/111/111
f 112/112/112 115/115/115 116/116/116
f 117/117/117 111/111/111 116/116/116
f 117/117/117 116/116/116 115/115/115
f 118/118/118 117/117/117 115/115/115
f 121/121/121 120/120/120 119/119/119
f 121/121/121 119/119/119 122/122/122
f 122/122/122 123/123/123 121/121/121
f 124/124/124 121/121/121 123/123/123
f 125/125/125 124/124/124 123/123/123
f 126/126/126 125/125/125 123/123/123
f 129/129/129 128/128/128 127/127/127
f 130/130/130 128/128/128 129/129/129
f 133/133/133 132/132/132 131/131/131
f 131/131/131 134/134/134 133/133/133
f 133/133/133 134/134/134 135/135/135
f 135/135/135 134/134/134 136/136/136
f 134/134/134 137/137/137 136/136/136
f 137/137/137 134/134/134 131/131/131
f 138/138/138 137/137/137 131/131/131
f 141/141/141 140/140/140 139/139/139
f 141/141/141 139/139/139 142/142/142
f 143/143/143 141/141/141 142/142/142
f 146/146/146 145/145/145 144/144/144
f 144/144/144 147/147/147 146/146/146
f 148/148/148 147/147/147 144/144/144
f 148/148/148 144/144/144 149/149/149
f 150/150/150 149/149/149 144/144/144
f 150/150/150 151/151/151 149/149/149
f 149/149/149 152/152/152 148/148/148
f 149/149/149 151/151/151 153/153/153
f 153/153/153 152/152/152 149/149/149
f 154/154/154 152/152/152 153/153/153
f 154/154/154 153/153/153 155/155/155
f 156/156/156 155/155/155 153/153/153
f 155/155/155 157/157/157 154/154/154
f 157/157/157 155/155/155 156/156/156
f 158/158/158 157/157/157 156/156/156
f 161/161/161 160/160/160 159/159/159
f 161/161/161 159/159/159 162/162/162
f 163/163/163 161/161/161 162/162/162
f 163/163/163 164/164/164 161/161/161
f 164/164/164 165/165/165 161/161/161
f 165/165/165 166/166/166 161/161/161
f 169/169/169 168/168/168 167/167/167
f 170/170/170 167/167/167 168/168/168
f 171/171/171 170/170/170 168/168/168
f 171/171/171 168/168/168 172/172/172
f 170/170/170 171/171/171 173/173/173
f 174/174/174 170/170/170 173/173/173
f 171/171/171 175/175/175 173/173/173
f 174/174/174 173/173/173 176/176/176
f 175/175/175 176/176/176 173/173/173
f 177/177/177 174/174/174 176/176/176
f 175/175/175 178/178/178 176/176/176
f 177/177/177 176/176/176 178/178/178
f 179/179/179 177/177/177 178/178/178
f 178/178/178 180/180/180 179/179/179
f 179/179/179 180/180/180 181/181/181
f 179/179/179 181/181/181 182/182/182
f 179/179/179 182/182/182 183/183/183
f 186/186/186 185/185/185 184/184/184
f 187/187/187 185/185/185 186/186/186
f 186/186/186 188/188/188 187/187/187
f 189/189/189 187/187/187 188/188/188
f 190/190/190 187/187/187 189/189/189
f 193/193/193 192/192/192 191/191/191
f 191/191/191 192/192/192 194/194/194
f 197/197/197 196/196/196 195/195/195
f 196/196/196 198/198/198 195/195/195
f 195/195/195 198/198/198 199/199/199
f 200/200/200 195/195/195 199/199/199
f 198/198/198 201/201/201 199/199/199
f 204/204/204 203/203/203 202/202/202
f 203/203/203 204/204/204 205/205/205
f 206/206/206 205/205/205 204/204/204
f 209/209/209 208/208/208 207/207/207
f 210/210/210 209/209/209 207/207/207
f 213/213/213 212/212/212 211/211/211
f 212/212/212 214/214/214 211/211/211
f 211/211/211 214/214/214 215/215/215
f 216/216/216 214/214/214 212/212/212
f 215/215/215 214/214/214 217/217/217
f 214/214/214 216/216/216 218/218/218
f 219/219/219 217/217/217 214/214/214
f 214/214/214 218/218/218 219/219/219
f 222/222/222 221/221/221 220/220/220
f 221/221/221 223/223/223 220/220/220
f 223/223/223 221/221/221 224/224/224
f 225/225/225 220/220/220 223/223/223
f 226/226/226 220/220/220 225/225/225
f 226/226/226 225/225/225 227/227/227
f 225/225/225 223/223/223 228/228/228
f 228/228/228 223/223/223 229/229/229
f 228/228/228 229/229/229 230/230/230
f 231/231/231 228/228/228 230/230/230
f 225/225/225 232/232/232 227/227/227
f 232/232/232 225/225/225 228/228/228
f 232/232/232 228/228/228 231/231/231
f 231/231/231 227/227/227 232/232/232
f 235/235/235 234/234/234 233/233/233
f 236/236/236 234/234/234 235/235/235
f 237/237/237 236/236/236 235/235/235
f 237/237/237 238/238/238 236/236/236
f 236/236/236 238/238/238 239/239/239
f 238/238/238 237/237/237 240/240/240
f 243/243/243 242/242/242 241/241/241
f 243/243/243 244/244/244 242/242/242
f 244/244/244 245/245/245 242/242/242
f 245/245/245 244/244/244 246/246/246
f 249/249/249 248/248/248 247/247/247
f 250/250/250 249/249/249 247/247/247
f 253/253/253 252/252/252 251/251/251
f 254/254/254 253/253/253 251/251/251
f 255/255/255 253/253/253 254/254/254
f 256/256/256 255/255/255 254/254/254
f 257/257/257 255/255/255 256/256/256
f 258/258/258 257/257/257 256/256/256
f 259/259/259 257/257/257 258/258/258
f 260/260/260 259/259/259 258/258/258
f 261/261/261 259/259/259 260/260/260
f 262/262/262 261/261/261 260/260/260
f 265/265/265 264/264/264 263/263/263
f 266/266/266 263/263/263 264/264/264
f 267/267/267 263/263/263 266/266/266
f 267/267/267 266/266/266 268/268/268
f 267/267/267 269/269/269 263/263/263
f 269/269/269 267/267/267 268/268/268
f 272/272/272 271/271/271 270/270/270
f 272/272/272 273/273/273 271/271/271
f 274/274/274 271/271/271 273/273/273
f 274/274/274 275/275/275 271/271/271
f 276/276/276 273/273/273 272/272/272
f 277/277/277 276/276/276 272/272/272
f 280/280/280 279/279/279 278/278/278
f 281/281/281 278/278/278 279/279/279
f 284/284/284 283/283/283 282/282/282
f 283/283/283 285/285/285 282/282/282
f 282/282/282 285/285/285 286/286/286
f 285/285/285 287/287/287 286/286/286
f 286/286/286 287/287/287 288/288/288
f 287/287/287 289/289/289 288/288/288
f 289/289/289 290/290/290 288/288/288
f 290/290/290 289/289/289 291/291/291
f 292/292/292 291/291/291 289/289/289
f 293/293/293 292/292/292 289/289/289
f 292/292/292 294/294/294 291/291/291
f 297/297/297 296/296/296 295/295/295
f 295/295/295 296/296/296 298/298/298
f 295/295/295 298/298/298 299/299/299
f 299/299/299 298/298/298 300/300/300
f 296/296/296 301/301/301 298/298/298
f 298/298/298 302/302/302 300/300/300
f 303/303/303 298/298/298 301/301/301
f 301/301/301 304/304/304 303/303/303
f 305/305/305 304/304/304 301/301/301
f 306/306/306 298/298/298 303/303/303
f 302/302/302 298/298/298 306/306/306
f 303/303/303 307/307/307 306/306/306
f 307/307/307 308/308/308 306/306/306
f 306/306/306 308/308/308 302/302/302
f 308/308/308 309/309/309 302/302/302
f 312/312/312 311/311/311 310/310/310
f 313/313/313 312/312/312 310/310/310
f 310/310/310 314/314/314 313/313/313
f 314/314/314 315/315/315 313/313/313
f 316/316/316 314/314/314 310/310/310
f 317/317/317 316/316/316 310/310/310
f 318/318/318 316/316/316 317/317/317
f 321/321/321 320/320/320 319/319/319
f 320/320/320 322/322/322 319/319/319
f 319/319/319 322/322/322 323/323/323
f 322/322/322 320/320/320 324/324/324
f 323/323/323 322/322/322 325/325/325
f 325/325/325 322/322/322 324/324/324
f 328/328/328 327/327/327 326/326/326
f 326/326/326 329/329/329 328/328/328
f 329/329/329 330/330/330 328/328/328
f 331/331/331 328/328/328 330/330/330
f 330/330/330 332/332/332 331/331/331
f 332/332/332 333/333/333 331/331/331
f 336/336/336 335/335/335 334/334/334
f 335/335/335 337/337/337 334/334/334
f 335/335/335 338/338/338 337/337/337
f 339/339/339 337/337/337 338/338/338
f 339/339/339 340/340/340 337/337/337
f 334/334/334 337/337/337 340/340/340
f 340/340/340 341/341/341 334/334/334
f 344/344/344 343/343/343 342/342/342
f 343/343/343 345/345/345 342/342/342
f 346/346/346 345/345/345 343/343/343
f 346/346/346 347/347/347 345/345/345
f 346/346/346 343/343/343 348/348/348
f 347/347/347 346/346/346 349/349/349
f 348/348/348 349/349/349 346/346/346
f 349/349/349 348/348/348 350/350/350
f 353/353/353 352/352/352 351/351/351
f 354/354/354 353/353/353 351/351/351
f 355/355/355 353/353/353 354/354/354
f 356/356/356 355/355/355 354/354/354
f 359/359/359 358/358/358 357/357/357
f 359/359/359 360/360/360 358/358/358
f 361/361/361 358/358/358 360/360/360
f 364/364/364 363/363/363 362/362/362
f 365/365/365 364/364/364 362/362/362
f 368/368/368 367/367/367 366/366/366
f 369/369/369 368/368/368 366/366/366
f 370/370/370 368/368/368 369/369/369
f 371/371/371 370/370/370 369/369/369
f 370/370/370 372/372/372 368/368/368
f 371/371/371 373/373/373 370/370/370
f 374/374/374 372/372/372 370/370/370
f 373/373/373 374/374/374 370/370/370
f 377/377/377 376/376/376 375/375/375
f 378/378/378 377/377/377 375/375/375
f 379/379/379 377/377/377 378/378/378
f 378/378/378 375/375/375 379/379/379
f 380/380/380 379/379/379 375/375/375
f 381/381/381 380/380/380 375/375/375
f 381/381/381 375/375/375 382/382/382
f 385/385/385 384/384/384 383/383/383
f 383/383/383 386/386/386 385/385/385
f 386/386/386 383/383/383 387/387/387
f 386/386/386 387/387/387 388/388/388
f 389/389/389 387/387/387 383/383/383
f 383/383/383 390/390/390 389/389/389
f 386/386/386 391/391/391 385/385/385
f 392/392/392 391/391/391 386/386/386
f 393/393/393 392/392/392 386/386/386
f 392/392/392 394/394/394 391/391/391
f 394/394/394 395/395/395 391/391/391
f 385/385/385 391/391/391 395/395/395
f 395/395/395 396/396/396 385/385/385
f 385/385/385 396/396/396 397/397/397
f 398/398/398 396/396/396 395/395/395
f 399/399/399 389/389/389 390/390/390
f 400/400/400 399/399/399 390/390/390
f 401/401/401 400/400/400 390/390/390
f 402/402/402 399/399/399 400/400/400
f 389/389/389 399/399/399 402/402/402
f 402/402/402 403/403/403 389/389/389
f 404/404/404 389/389/389 403/403/403
f 400/400/400 401/401/401 405/405/405
f 406/406/406 405/405/405 401/401/401
f 407/407/407 405/405/405 406/406/406
f 408/408/408 406/406/406 401/401/401
f 409/409/409 408/408/408 401/401/401
f 412/412/412 411/411/411 410/410/410
f 411/411/411 412/412/412 413/413/413
f 413/413/413 412/412/412 414/414/414
f 415/415/415 413/413/413 414/414/414
f 416/416/416 414/414/414 412/412/412
f 417/417/417 414/414/414 416/416/416
f 418/418/418 417/417/417 416/416/416
f 421/421/421 420/420/420 419/419/419
f 419/419/419 420/420/420 422/422/422
f 420/420/420 423/423/423 422/422/422
f 423/423/423 420/420/420 424/424/424
f 424/424/424 420/420/420 425/425/425
f 426/426/426 423/423/423 424/424/424
f 424/424/424 425/425/425 427/427/427
f 424/424/424 427/427/427 426/426/426
f 427/427/427 425/425/425 428/428/428
f 426/426/426 427/427/427 428/428/428
f 426/426/426 428/428/428 429/429/429
f 430/430/430 429/429/429 428/428/428
f 431/431/431 430/430/430 428/428/428
f 430/430/430 431/431/431 432/432/432
f 432/432/432 431/431/431 433/433/433
f 434/434/434 430/430/430 432/432/432
f 437/437/437 436/436/436 435/435/435
f 438/438/438 435/435/435 436/436/436
f 438/438/438 436/436/436 439/439/439
f 435/435/435 438/438/438 440/440/440
f 441/441/441 435/435/435 440/440/440
f 441/441/441 442/442/442 435/435/435
f 443/443/443 442/442/442 441/441/441
f 446/446/446 445/445/445 444/444/444
f 444/444/444 445/445/445 447/447/447
f 445/445/445 448/448/448 447/447/447
f 448/448/448 445/445/445 449/449/449
f 448/448/448 449/449/449 450/450/450
f 448/448/448 450/450/450 451/451/451
f 451/451/451 450/450/450 452/452/452
f 453/453/453 452/452/452 450/450/450
f 454/454/454 450/450/450 449/449/449
f 453/453/453 450/450/450 454/454/454
f 449/449/449 455/455/455 454/454/454
f 454/454/454 455/455/455 453/453/453
f 455/455/455 456/456/456 453/453/453
f 459/459/459 458/458/458 457/457/457
f 457/457/457 458/458/458 460/460/460
f 461/461/461 460/460/460 458/458/458
f 458/458/458 462/462/462 461/461/461
f 462/462/462 463/463/463 461/461/461
f 463/463/463 464/464/464 461/461/461
f 467/467/467 466/466/466 465/465/465
f 467/467/467 468/468/468 466/466/466
f 471/471/471 470/470/470 469/469/469
f 472/472/472 469/469/469 470/470/470
f 472/472/472 470/470/470 473/473/473
f 472/472/472 473/473/473 474/474/474
f 475/475/475 472/472/472 474/474/474
f 472/472/472 475/475/475 469/469/469
f 475/475/475 476/476/476 469/469/469
f 479/479/479 478/478/478 477/477/477
f 477/477/477 478/478/478 480/480/480
f 478/478/478 481/481/481 480/480/480
f 484/484/484 483/483/483 482/482/482
f 485/485/485 482/482/482 483/483/483
f 485/485/485 486/486/486 482/482/482
f 482/482/482 486/486/486 487/487/487
f 487/487/487 488/488/488 482/482/482
f 489/489/489 488/488/488 487/487/487
f 490/490/490 487/487/487 486/486/486
f 489/489/489 487/487/487 491/491/491
f 490/490/490 491/491/491 487/487/487
f 490/490/490 492/492/492 491/491/491
f 491/491/491 492/492/492 493/493/493
f 493/493/493 494/494/494 491/491/491
f 495/495/495 493/493/493 492/492/492
f 493/493/493 495/495/495 494/494/494
f 495/495/495 496/496/496 494/494/494
f 499/499/499 498/498/498 497/497/497
f 497/497/497 498/498/498 500/500/500
f 498/498/498 501/501/501 500/500/500
f 502/502/502 501/501/501 498/498/498
f 503/503/503 502/502/502 498/498/498
f 504/504/504 503/503/503 498/498/498
f 507/507/507 506/506/506 505/505/505
f 505/505/505 508/508/508 507/507/507
f 508/508/508 509/509/509 507/507/507
f 507/507/507 509/509/509 510/510/510
f 509/509/509 508/508/508 511/511/511
f 508/508/508 512/512/512 511/511/511
f 513/513/513 509/509/509 511/511/511
f 511/511/511 512/512/512 514/514/514
f 514/514/514 513/513/513 511/511/511
f 512/512/512 515/515/515 514/514/514
f 516/516/516 513/513/513 514/514/514
f 514/514/514 515/515/515 516/516/516
f 515/515/515 517/517/517 516/516/516
f 518/518/518 516/516/516 517/517/517
f 518/518/518 517/517/517 519/519/519
f 519/519/519 517/517/517 520/520/520
f 520/520/520 517/517/517 521/521/521
f 524/524/524 523/523/523 522/522/522
f 524/524/524 525/525/525 523/523/523
f 526/526/526 523/523/523 525/525/525
f 525/525/525 527/527/527 526/526/526
f 525/525/525 528/528/528 527/527/527
f 531/531/531 530/530/530 529/529/529
f 531/531/531 529/529/529 532/532/532
f 535/535/535 534/534/534 533/533/533
f 536/536/536 535/535/535 533/533/533
f 536/536/536 533/533/533 537/537/537
f 533/533/533 538/538/538 537/537/537
f 539/539/539 536/536/536 537/537/537
f 542/542/542 541/541/541 540/540/540
f 541/541/541 542/542/542 543/543/543
f 543/543/543 544/544/544 541/541/541
f 547/547/547 546/546/546 545/545/545
f 548/548/548 547/547/547 545/545/545
f 551/551/551 550/550/550 549/549/549
f 552/552/552 551/551/551 549/549/549
f 552/552/552 549/549/549 553/553/553
f 552/552/552 554/554/554 551/551/551
f 552/552/552 553/553/553 555/555/555
f 554/554/554 552/552/552 556/556/556
f 555/555/555 557/557/557 552/552/552
f 556/556/556 552/552/552 557/557/557
f 560/560/560 559/559/559 558/558/558
f 561/561/561 560/560/560 558/558/558
f 560/560/560 561/561/561 562/562/562
f 558/558/558 563/563/563 561/561/561
f 558/558/558 564/564/564 563/563/563
f 563/563/563 564/564/564 565/565/565
f 561/561/561 563/563/563 566/566/566
f 561/561/561 566/566/566 567/567/567
f 567/567/567 566/566/566 568/568/568
f 566/566/566 569/569/569 568/568/568
f 570/570/570 563/563/563 565/565/565
f 565/565/565 569/569/569 570/570/570
f 566/566/566 570/570/570 569/569/569
f 563/563/563 570/570/570 566/566/566
f 573/573/573 572/572/572 571/571/571
f 573/573/573 574/574/574 572/572/572
f 574/574/574 575/575/575 572/572/572
f 576/576/576 575/575/575 574/574/574
f 576/576/576 574/574/574 577/577/577
f 575/575/575 576/576/576 578/578/578
f 581/581/581 580/580/580 579/579/579
f 582/582/582 580/580/580 581/581/581
f 583/583/583 582/582/582 581/581/581
f 582/582/582 583/583/583 584/584/584
f 587/587/587 586/586/586 585/585/585
f 588/588/588 587/587/587 585/585/585
f 591/591/591 590/590/590 589/589/589
f 590/590/590 592/592/592 589/589/589
f 590/590/590 593/593/593 592/592/592
f 593/593/593 594/594/594 592/592/592
f 593/593/593 595/595/595 594/594/594
f 595/595/595 596/596/596 594/594/594
f 595/595/595 597/597/597 596/596/596
f 597/597/597 598/598/598 596/596/596
f 597/597/597 599/599/599 598/598/598
f 599/599/599 600/600/600 598/598/598
f 603/603/603 602/602/602 601/601/601
f 601/601/601 604/604/604 603/603/603
f 601/601/601 605/605/605 604/604/604
f 604/604/604 605/605/605 606/606/606
f 607/607/607 605/605/605 601/601/601
f 605/605/605 607/607/607 606/606/606
f 610/610/610 609/609/609 608/608/608
f 611/611/611 609/609/609 610/610/610
f 610/610/610 612/612/612 611/611/611
f 613/613/613 612/612/612 610/610/610
f 611/611/611 614/614/614 609/609/609
f 614/614/614 615/615/615 609/609/609
f 618/618/618 617/617/617 616/616/616
f 616/616/616 619/619/619 618/618/618
f 622/622/622 621/621/621 620/620/620
f 623/623/623 622/622/622 620/620/620
f 623/623/623 620/620/620 624/624/624
f 625/625/625 623/623/623 624/624/624
f 625/625/625 624/624/624 626/626/626
f 627/627/627 625/625/625 626/626/626
f 628/628/628 627/627/627 626/626/626
f 627/627/627 628/628/628 629/629/629
f 629/629/629 630/630/630 627/627/627
f 630/630/630 631/631/631 627/627/627
f 632/632/632 630/630/630 629/629/629
f 635/635/635 634/634/634 633/633/633
f 635/635/635 633/633/633 636/636/636
f 636/636/636 633/633/633 637/637/637
f 636/636/636 637/637/637 638/638/638
f 639/639/639 635/635/635 636/636/636
f 640/640/640 636/636/636 638/638/638
f 636/636/636 641/641/641 639/639/639
f 642/642/642 639/639/639 641/641/641
f 642/642/642 643/643/643 639/639/639
f 636/636/636 644/644/644 641/641/641
f 636/636/636 640/640/640 644/644/644
f 645/645/645 641/641/641 644/644/644
f 646/646/646 645/645/645 644/644/644
f 646/646/646 644/644/644 640/640/640
f 647/647/647 646/646/646 640/640/640
f 650/650/650 649/649/649 648/648/648
f 649/649/649 651/651/651 648/648/648
f 652/652/652 648/648/648 651/651/651
f 653/653/653 652/652/652 651/651/651
f 652/652/652 654/654/654 648/648/648
f 654/654/654 655/655/655 648/648/648
f 654/654/654 656/656/656 655/655/655
f 659/659/659 658/658/658 657/657/657
f 660/660/660 659/659/659 657/657/657
f 660/660/660 657/657/657 661/661/661
f 659/659/659 660/660/660 662/662/662
f 660/660/660 661/661/661 663/663/663
f 660/660/660 663/663/663 662/662/662
f 666/666/666 665/665/665 664/664/664
f 667/667/667 664/664/664 665/665/665
f 668/668/668 667/667/667 665/665/665
f 665/665/665 669/669/669 668/668/668
f 670/670/670 668/668/668 669/669/669
f 671/671/671 670/670/670 669/669/669
f 674/674/674 673/673/673 672/672/672
f 675/675/675 674/674/674 672/672/672
f 676/676/676 674/674/674 675/675/675
f 675/675/675 677/677/677 676/676/676
f 678/678/678 677/677/677 675/675/675
f 675/675/675 672/672/672 678/678/678
f 679/679/679 678/678/678 672/672/672
f 682/682/682 681/681/681 680/680/680
f 683/683/683 682/682/682 680/680/680
f 683/683/683 684/684/684 682/682/682
f 685/685/685 684/684/684 683/683/683
f 682/682/682 684/684/684 686/686/686
f 684/684/684 685/685/685 687/687/687
f 687/687/687 686/686/686 684/684/684
f 686/686/686 687/687/687 688/688/688
f 691/691/691 690/690/690 689/689/689
f 690/690/690 692/692/692 689/689/689
f 690/690/690 693/693/693 692/692/692
f 693/693/693 694/694/694 692/692/692
f 697/697/697 696/696/696 695/695/695
f 698/698/698 696/696/696 697/697/697
f 697/697/697 699/699/699 698/698/698
f 702/702/702 701/701/701 700/700/700
f 703/703/703 702/702/702 700/700/700
f 706/706/706 705/705/705 704/704/704
f 705/705/705 707/707/707 704/704/704
f 705/705/705 708/708/708 707/707/707
f 708/708/708 709/709/709 707/707/707
f 710/710/710 708/708/708 705/705/705
f 711/711/711 709/709/709 708/708/708
f 710/710/710 712/712/712 708/708/708
f 712/712/712 711/711/711 708/708/708
