g 0.0667
v 0.39454502 -0.20919093 2.9685645
v 0.21015114 -0.16273531 3.122975
v 0.4111476 -0.15769166 3.1117096
v -0.69652796 0.9410786 2.1728604
v -0.7073394 1.0201705 2.0746405
v -0.6906234 0.959175 2.053186
v 0.81681216 -0.24161166 1.999687
v 1.0326647 -0.17743109 1.5332643
v 1.0443506 -0.34163246 1.7854993
v 0.81681216 -0.24161166 1.999687
v 0.802973 -0.13704732 1.9817668
v 1.0326647 -0.17743109 1.5332643
v 0.055308625 -0.75330174 2.3577075
v 0.23330764 -0.74649554 2.5711455
v 0.39501074 -0.48656067 2.4713378
v 0.38355213 0.37988037 3.298077
v 0.5645816 0.4142211 3.1912756
v 0.49611402 0.36682504 3.114454
v -0.9149419 0.53371 3.0722957
v -0.6671918 0.40616125 3.131504
v -0.7694666 0.41073966 2.8880048
v -0.43755144 -1.0855134 1.5668652
v -0.66276413 -1.1416147 1.3487868
v -0.7173642 -0.94312847 1.4715478
v -0.45872197 -0.92686146 1.7056683
v -0.43755144 -1.0855134 1.5668652
v -0.7173642 -0.94312847 1.4715478
v -0.015908465 0.90051955 1.0547045
v 0.0016502514 0.73384607 0.8635151
v 0.3908869 0.7312823 0.98690933
v 0.45683044 0.8430923 1.1727111
v 0.13700512 0.9014157 1.10918
v 0.2552193 0.9336763 1.2915248
v 0.28070217 0.9711343 1.5289319
v 0.48184034 0.8919877 1.5400537
v 0.8085886 0.52875495 1.5734551
v 0.85637313 0.5276483 1.1347544
v 0.6059716 0.77349854 1.6005969
v 0.50710785 0.932585 1.6760648
v 0.3010926 1.0027083 1.6800044
v 0.5548135 0.9989342 1.8877989
v 0.2119596 1.0823644 1.8153374
v 0.95085514 1.063245 1.8274776
v 0.38103783 1.0655254 1.9084543
v 0.04732638 1.1889842 1.9314677
v 0.47248197 1.0101153 2.0519361
v 0.035264447 1.1532782 1.8020726
v -0.1144545 1.1251749 1.8247937
v -0.167697 1.1030021 1.785911
v -0.4936422 1.090688 1.9446255
v -0.3495093 1.0056827 1.5606244
v -0.53604907 0.96009684 1.5312171
v -0.43882635 0.91845465 1.3562231
v 0.48327538 1.0114281 1.9658514
v -0.565989 0.88388896 1.1683054
v -0.43850884 0.89729214 1.2892781
v -0.32200852 0.88266474 1.1168225
v -1.0315384 0.56110966 1.1962893
v -1.0151725 0.650404 1.5754755
v -0.94982845 0.70145583 1.609693
v -0.84063065 0.78929126 1.6722728
v -0.72717905 0.94652355 1.9796118
v -0.8834348 0.82477385 1.6755378
v -0.6906234 0.959175 2.053186
v -0.7073394 1.0201705 2.0746405
v -0.3510706 1.0599675 2.4101582
v -0.69652796 0.9410786 2.1728604
v -0.84636563 0.78096473 2.4593952
v -0.30905187 1.0212417 2.5023708
v -0.794788 0.7470703 2.6484601
v -0.0037375838 1.0814226 2.3671803
v 0.14959693 1.0968456 2.3197532
v -0.96475565 1.0745068 2.0039997
v -1.1184855 0.93926805 1.6211092
v -1.4792879 0.94221103 2.200112
v -1.2214715 0.91418886 2.4284754
v -1.5890068 0.6266173 1.7133145
v 0.549243 0.9918868 2.1442013
v 0.25889367 1.0625966 2.3267424
v 0.58467764 0.8993428 2.3104858
v 0.56253994 0.98628294 2.274681
v 0.4396367 0.9952191 2.3301363
v 0.52187526 0.9076998 2.507857
v 0.7794759 1.048573 2.276924
v 0.99352115 0.9352765 2.337211
v 1.1573741 0.90751183 1.8535572
v 0.97493225 0.84837615 1.6390727
v -0.93188584 -0.5952372 1.2449063
v -0.80527127 -0.60682154 1.1749095
v -0.7820729 -0.52703583 1.0527099
v -0.75629187 -0.7366961 1.3069048
v -0.7252259 -0.8318342 1.4110109
v -0.9701231 -0.47511137 1.8493338
v -0.6611291 -0.8624912 1.5357182
v -0.56686825 -0.83233094 1.913372
v -0.5818057 -0.9229654 1.602415
v -0.45872197 -0.92686146 1.7056683
v -0.52839017 -0.6955758 2.3076797
v -0.9082278 -0.35783595 2.2953427
v -0.06770575 -0.9661709 1.9287939
v -0.38476586 -0.9607814 1.6320873
v 0.055308625 -0.75330174 2.3577075
v -0.509356 -0.6256582 2.405598
v -0.7325953 -0.33204558 2.4824038
v -0.6974688 -0.09780645 2.7607
v -0.6245127 -0.175585 2.7418914
v -0.5809844 -0.11884278 2.8591964
v -0.631493 -0.00053837895 2.9990916
v -0.56239605 0.095430434 3.2331922
v -0.5344131 -0.09867516 2.9492366
v -0.35833073 -0.14616406 3.081736
v -0.24034545 -0.123064935 3.139133
v -0.30336455 0.18423533 3.407672
v -0.17885914 0.22100472 3.4906406
v -0.06504238 -0.12237018 3.168715
v -0.046235487 0.2601716 3.5790188
v 0.012504771 -0.13701627 3.1667771
v 0.40305012 0.32485104 3.3334038
v 0.1486028 -0.108407766 3.1535919
v 0.7473592 -0.309673 1.3448857
v 0.6292203 -0.34149647 1.2505016
v 0.71065044 -0.3904246 1.3973291
v 0.38588858 -0.54435694 1.095011
v 0.4168947 -0.6699181 1.405754
v 0.5842596 -0.5206995 1.5794692
v 0.4447673 -0.71307105 1.8267727
v 0.57315534 -0.55810195 1.7038169
v 0.5776918 -0.56948113 1.7882755
v 0.56100875 -0.5478377 1.8987888
v 0.4484255 -0.6354077 2.2649646
v 0.65648234 -0.4015013 2.035309
v 0.58141583 -0.4657373 2.1853375
v 0.70746976 -0.29469875 2.1146076
v 0.717726 -0.3119179 2.0336196
v 0.73620397 -0.18166709 2.0454285
v 0.7630044 -0.09615822 1.9531087
v 0.45232892 -0.42298537 2.4722402
v 0.39501074 -0.48656067 2.4713378
v 0.4832032 -0.303768 2.5532923
v 0.77348435 0.089668944 2.0848737
v 0.838645 -0.08867119 1.6947585
v 0.8732748 0.02241768 1.6719267
v 0.8833484 -0.063616976 1.4518023
v 0.9598094 -0.01016134 1.2321941
v 0.7962222 -0.26265347 1.3442608
v 0.85349405 0.24417135 1.5708469
v 0.85637313 0.5276483 1.1347544
v 0.83975196 0.3676155 1.5408925
v 0.8085886 0.52875495 1.5734551
v 0.8503635 0.19005391 1.6403052
v 0.8472673 0.1264711 1.7282606
v 0.7696223 0.1611401 2.0719435
v 0.71356386 0.14011383 2.5077717
v 0.7025877 0.32518318 2.4691663
v 0.63261557 0.26660365 2.8943198
v 0.5692936 0.59226143 2.8021643
v 0.63713455 -0.19190267 2.5005772
v 0.66650975 0.44164154 2.5359309
v 0.66214776 0.5642811 2.5008929
v 0.47493878 -0.26474136 2.5978985
v 0.4540172 -0.20380116 2.8404331
v 0.50203234 -0.4295986 2.538804
v 0.6480224 -0.05971998 2.8852623
v 0.39454502 -0.20919093 2.9685645
v 0.18530391 -0.58609563 3.1065447
v 0.23330764 -0.74649554 2.5711455
v 0.4111476 -0.15769166 3.1117096
v 0.40305012 0.32485104 3.3334038
v 0.38355213 0.37988037 3.298077
v 0.49611402 0.36682504 3.114454
v 0.53157985 0.5219387 2.9310253
v 0.5645816 0.4142211 3.1912756
v 0.61227113 0.6154839 2.9951496
v 0.5386185 0.59729636 2.8373005
v 0.5490431 0.67251694 2.754779
v 0.6104529 1.0856749 3.2211542
v 0.13334239 0.89380753 3.6927047
v 0.6546178 0.8183828 2.8061225
v 0.55196136 0.92782843 2.5724797
v 0.52187526 0.9076998 2.507857
v 0.44974327 1.0423577 2.340451
v 0.4396367 0.9952191 2.3301363
v 0.58467764 0.8993428 2.3104858
v 0.56253994 0.98628294 2.274681
v 0.549243 0.9918868 2.1442013
v -0.1723045 -0.35494846 0.7223347
v -0.30568415 -0.5007373 0.8808535
v -0.061148226 -0.6276939 0.97789276
v -0.42156562 -0.42366424 0.81700736
v -0.5141916 -0.46920413 0.87562436
v 0.38355213 0.37988037 3.298077
v 0.40305012 0.32485104 3.3334038
v -0.046235487 0.2601716 3.5790188
v 0.12486565 0.32935834 3.4500556
v 0.13334239 0.89380753 3.6927047
v 0.5645816 0.4142211 3.1912756
v -0.067695096 0.46238387 3.4654303
v -0.16038522 0.38448614 3.427717
v -0.24282968 0.7456871 3.6327758
v -0.12766424 1.1332284 3.6274168
v -0.78381 1.0130739 3.324059
v -0.24612235 1.3487352 3.3115113
v 0.39161456 1.3630553 3.1860616
v 0.6104529 1.0856749 3.2211542
v -0.3681188 0.35713124 3.2731028
v -0.30336455 0.18423533 3.407672
v -0.56239605 0.095430434 3.2331922
v -0.66330063 0.44568107 3.1612256
v 0.1486028 -0.108407766 3.1535919
v 0.40305012 0.32485104 3.3334038
v 0.4111476 -0.15769166 3.1117096
v 0.21015114 -0.16273531 3.122975
v -0.06354977 -0.48842523 3.2219162
v 0.012504771 -0.13701627 3.1667771
v -0.06504238 -0.12237018 3.168715
v 0.18530391 -0.58609563 3.1065447
v 0.39454502 -0.20919093 2.9685645
v -0.2448683 -0.22046736 3.1902518
v -0.59994566 -0.53123784 2.991621
v -0.24034545 -0.123064935 3.139133
v -0.66311514 -0.23113897 2.9484448
v -0.35833073 -0.14616406 3.081736
v -0.5344131 -0.09867516 2.9492366
v 0.39501074 -0.48656067 2.4713378
v 0.4484255 -0.6354077 2.2649646
v 0.4447673 -0.71307105 1.8267727
v -0.06698145 -0.95922244 1.3837017
v -0.1632203 -1.1597816 1.2068362
v 0.4168947 -0.6699181 1.405754
v 0.053473286 -0.7724867 1.2081751
v 0.024884649 -0.7071728 1.0909133
v 0.38588858 -0.54435694 1.095011
v 0.83975196 0.3676155 1.5408925
v 0.85349405 0.24417135 1.5708469
v 0.94215375 0.25188467 1.5248456
v 0.8085886 0.52875495 1.5734551
v 0.97493225 0.84837615 1.6390727
v 1.2297363 0.42323717 1.6684494
v 1.1573741 0.90751183 1.8535572
v 0.6059716 0.77349854 1.6005969
v 0.95085514 1.063245 1.8274776
v 0.50710785 0.932585 1.6760648
v 0.8503635 0.19005391 1.6403052
v 0.94215375 0.25188467 1.5248456
v 0.85349405 0.24417135 1.5708469
v 0.9417548 0.15591311 1.6556553
v 0.8472673 0.1264711 1.7282606
v 0.9419308 0.065085456 1.7932687
v 0.7696223 0.1611401 2.0719435
v 0.95720047 0.25310147 2.2126925
v 1.2413752 0.284147 1.9057875
v 0.7025877 0.32518318 2.4691663
v 0.7815373 0.36726663 2.5254786
v 0.66650975 0.44164154 2.5359309
v 0.66214776 0.5642811 2.5008929
v 0.7815373 0.36726663 2.5254786
v 0.66650975 0.44164154 2.5359309
v 0.99352115 0.9352765 2.337211
v 1.0682915 0.4780735 2.373501
v 0.7794759 1.048573 2.276924
v 0.58467764 0.8993428 2.3104858
v 0.7815373 0.36726663 2.5254786
v 1.0682915 0.4780735 2.373501
v 0.95720047 0.25310147 2.2126925
v 1.2413752 0.284147 1.9057875
v 1.2333626 0.68870103 2.026938
v 0.99352115 0.9352765 2.337211
v 1.1573741 0.90751183 1.8535572
v 1.2297363 0.42323717 1.6684494
v 0.9417548 0.15591311 1.6556553
v 0.94215375 0.25188467 1.5248456
v 0.9419308 0.065085456 1.7932687
v -1.0938498 0.48644555 2.7661881
v -1.4948151 0.39413273 2.4237535
v -1.5175003 0.73373824 2.4114997
v -1.6788006 0.42018867 1.9073045
v -1.3922076 -0.015896797 2.0859866
v -1.4792879 0.94221103 2.200112
v -1.5890068 0.6266173 1.7133145
v -1.2459855 0.06479648 1.5832604
v -1.1414726 -0.12433091 1.7774607
v -1.1637772 -0.09552781 1.6423427
v -1.6788006 0.42018867 1.9073045
v -1.3922076 -0.015896797 2.0859866
v -1.0771261 -0.038774848 2.1777349
v -1.0692478 -0.018513054 2.2383206
v -1.1196475 0.1628761 2.6583157
v -1.4948151 0.39413273 2.4237535
v -0.9862664 0.066334665 2.4092777
v -0.8605841 0.19036373 2.610255
v -1.4792879 0.94221103 2.200112
v -1.2214715 0.91418886 2.4284754
v -1.5175003 0.73373824 2.4114997
v -1.0938498 0.48644555 2.7661881
v -0.812095 0.54645246 2.7191513
v -0.84636563 0.78096473 2.4593952
v -0.69652796 0.9410786 2.1728604
v -0.7073394 1.0201705 2.0746405
v -0.8543243 0.36792415 2.668733
v -0.85059756 0.33873034 2.6576512
v -1.1196475 0.1628761 2.6583157
v -0.8605841 0.19036373 2.610255
v -1.4948151 0.39413273 2.4237535
v 0.96969 -0.5947298 1.7553681
v 0.8475225 -0.5744773 1.9619331
v 0.9517288 -0.43688846 1.9417864
v 1.0756013 -0.5010511 1.7192919
v 1.0443506 -0.34163246 1.7854993
v 0.81681216 -0.24161166 1.999687
v 1.0326647 -0.17743109 1.5332643
v 0.9905965 -0.2232934 1.3818713
v 1.0326647 -0.17743109 1.5332643
v 0.8833484 -0.063616976 1.4518023
v 0.9905965 -0.2232934 1.3818713
v 0.838645 -0.08867119 1.6947585
v 0.802973 -0.13704732 1.9817668
v 0.7630044 -0.09615822 1.9531087
v 0.802973 -0.13704732 1.9817668
v 0.73620397 -0.18166709 2.0454285
v 0.7630044 -0.09615822 1.9531087
v 0.81681216 -0.24161166 1.999687
v 0.9517288 -0.43688846 1.9417864
v 0.8475225 -0.5744773 1.9619331
v 0.717726 -0.3119179 2.0336196
v 0.65648234 -0.4015013 2.035309
v 0.56100875 -0.5478377 1.8987888
v 0.5842596 -0.5206995 1.5794692
v 0.57315534 -0.55810195 1.7038169
v 0.6960704 -0.65482354 1.6267154
v 0.5776918 -0.56948113 1.7882755
v 0.56100875 -0.5478377 1.8987888
v 0.8475225 -0.5744773 1.9619331
v 0.96969 -0.5947298 1.7553681
v 1.0756013 -0.5010511 1.7192919
v 0.81574184 -0.5655176 1.5070418
v 0.5842596 -0.5206995 1.5794692
v 0.6960704 -0.65482354 1.6267154
v 0.81574184 -0.5655176 1.5070418
v 0.71065044 -0.3904246 1.3973291
v 0.7473592 -0.309673 1.3448857
v 0.9905965 -0.2232934 1.3818713
v 1.0756013 -0.5010511 1.7192919
v 0.7962222 -0.26265347 1.3442608
v 0.8833484 -0.063616976 1.4518023
v 0.6292203 -0.34149647 1.2505016
v 0.68205726 -0.028394125 1.0038297
v 0.33887142 -0.15896612 0.8123331
v 0.9598094 -0.01016134 1.2321941
v 0.38588858 -0.54435694 1.095011
v 0.024884649 -0.7071728 1.0909133
v 0.85637313 0.5276483 1.1347544
v -0.007856254 -0.6509174 1.0188377
v 0.5988893 0.40710384 0.87477994
v 0.45683044 0.8430923 1.1727111
v 0.3908869 0.7312823 0.98690933
v 0.0016502514 0.73384607 0.8635151
v 0.17278989 0.34041378 0.73710257
v -0.46258482 0.61383045 0.8455137
v -0.3441295 0.18391095 0.7283219
v -0.1723045 -0.35494846 0.7223347
v -0.061148226 -0.6276939 0.97789276
v -0.028519373 -0.7752497 0.96860653
v -0.30568415 -0.5007373 0.8808535
v -0.30192804 -0.5679057 0.8037119
v -0.42156562 -0.42366424 0.81700736
v -0.3392443 -0.9799136 0.8073983
v -0.6132392 -0.50197697 0.8187548
v -0.016592916 -0.9995632 1.11167
v -0.1632203 -1.1597816 1.2068362
v -0.8098968 -0.6421429 0.8755817
v -0.74594456 -0.9654575 1.0242369
v -0.4882458 -1.1143326 0.9288848
v -0.8266498 -0.0025800094 0.87959903
v -0.6729115 -0.48839724 0.92113054
v -0.5141916 -0.46920413 0.87562436
v -0.8700391 0.4321439 0.95434093
v -1.2307348 -0.0010769814 1.2192156
v -0.7820729 -0.52703583 1.0527099
v -0.93188584 -0.5952372 1.2449063
v -1.0315384 0.56110966 1.1962893
v -0.565989 0.88388896 1.1683054
v -0.32200852 0.88266474 1.1168225
v -0.26847756 0.8532015 1.0730077
v -0.14775041 0.8540931 1.041279
v -0.38141084 0.98481786 1.074002
v -0.015908465 0.90051955 1.0547045
v -0.0041165575 1.0367 0.96634823
v -0.22642118 1.347183 1.2102468
v 0.14106357 1.2415398 1.1257806
v 0.16120586 0.9416776 1.09186
v 0.13700512 0.9014157 1.10918
v 0.29862458 1.2003417 1.2279686
v 0.39501074 -0.48656067 2.4713378
v 0.23330764 -0.74649554 2.5711455
v 0.50203234 -0.4295986 2.538804
v 0.45232892 -0.42298537 2.4722402
v 0.4832032 -0.303768 2.5532923
v -0.7325953 -0.33204558 2.4824038
v -0.6599485 -0.6674351 2.5530794
v -0.509356 -0.6256582 2.405598
v 0.055308625 -0.75330174 2.3577075
v -0.7325953 -0.33204558 2.4824038
v -0.59994566 -0.53123784 2.991621
v -0.6599485 -0.6674351 2.5530794
v -0.66311514 -0.23113897 2.9484448
v -0.6245127 -0.175585 2.7418914
v -0.5809844 -0.11884278 2.8591964
v -0.5344131 -0.09867516 2.9492366
v 0.18530391 -0.58609563 3.1065447
v 0.23330764 -0.74649554 2.5711455
v 0.055308625 -0.75330174 2.3577075
v -0.09072825 -0.7186271 2.9832401
v -0.06354977 -0.48842523 3.2219162
v -0.6599485 -0.6674351 2.5530794
v -0.59994566 -0.53123784 2.991621
v -0.66330063 0.44568107 3.1612256
v -0.6671918 0.40616125 3.131504
v -0.9149419 0.53371 3.0722957
v -0.78381 1.0130739 3.324059
v -0.7523106 1.2075915 3.0057218
v -0.24612235 1.3487352 3.3115113
v -0.78381 1.0130739 3.324059
v -0.8782059 0.73921186 2.688904
v -0.35481378 1.1578699 2.5860786
v -0.9149419 0.53371 3.0722957
v -0.7694666 0.41073966 2.8880048
v -0.8017545 0.55727684 2.7495975
v -0.812095 0.54645246 2.7191513
v -0.84636563 0.78096473 2.4593952
v -0.794788 0.7470703 2.6484601
v -0.8543243 0.36792415 2.668733
v -0.85059756 0.33873034 2.6576512
v -0.631493 -0.00053837895 2.9990916
v -0.6671918 0.40616125 3.131504
v -0.66330063 0.44568107 3.1612256
v -0.56239605 0.095430434 3.2331922
v -0.6974688 -0.09780645 2.7607
v -0.8605841 0.19036373 2.610255
v -0.9082278 -0.35783595 2.2953427
v -0.9862664 0.066334665 2.4092777
v -1.0692478 -0.018513054 2.2383206
v -0.9701231 -0.47511137 1.8493338
v -1.0771261 -0.038774848 2.1777349
v -1.1414726 -0.12433091 1.7774607
v -0.93188584 -0.5952372 1.2449063
v -1.1637772 -0.09552781 1.6423427
v -1.2307348 -0.0010769814 1.2192156
v -1.2459855 0.06479648 1.5832604
v -1.1864154 0.20120254 1.4601027
v -1.1417863 0.3220587 1.4497645
v -1.0315384 0.56110966 1.1962893
v -1.0548546 0.5511186 1.5347334
v -1.0151725 0.650404 1.5754755
v 0.39161456 1.3630553 3.1860616
v 0.6546178 0.8183828 2.8061225
v 0.6104529 1.0856749 3.2211542
v 0.55196136 0.92782843 2.5724797
v 0.44974327 1.0423577 2.340451
v 0.14445364 1.2497727 2.3571908
v -0.07875851 1.4362847 2.7486882
v -0.35481378 1.1578699 2.5860786
v -0.7523106 1.2075915 3.0057218
v -0.24612235 1.3487352 3.3115113
v -0.12766424 1.1332284 3.6274168
v 0.4396367 0.9952191 2.3301363
v 0.44974327 1.0423577 2.340451
v 0.14445364 1.2497727 2.3571908
v 0.25889367 1.0625966 2.3267424
v 0.14959693 1.0968456 2.3197532
v -0.0037375838 1.0814226 2.3671803
v -0.35481378 1.1578699 2.5860786
v -0.30905187 1.0212417 2.5023708
v -0.794788 0.7470703 2.6484601
v -0.8782059 0.73921186 2.688904
v -0.8017545 0.55727684 2.7495975
v 0.3010926 1.0027083 1.6800044
v 0.2119596 1.0823644 1.8153374
v 0.25218362 1.1950626 1.7757592
v 0.321122 1.025426 1.6749008
v 0.28070217 0.9711343 1.5289319
v 0.29862458 1.2003417 1.2279686
v 0.2992302 0.98467803 1.3055373
v 0.2552193 0.9336763 1.2915248
v 0.16120586 0.9416776 1.09186
v 0.13700512 0.9014157 1.10918
v -0.051400274 1.2889868 1.768102
v 0.25218362 1.1950626 1.7757592
v 0.2119596 1.0823644 1.8153374
v 0.035264447 1.1532782 1.8020726
v -0.1144545 1.1251749 1.8247937
v -0.22642118 1.347183 1.2102468
v 0.14106357 1.2415398 1.1257806
v 0.29862458 1.2003417 1.2279686
v -0.056009784 1.3866291 1.3831923
v -0.28865948 1.341694 1.4062111
v 0.25218362 1.1950626 1.7757592
v -0.051400274 1.2889868 1.768102
v -0.32200852 0.88266474 1.1168225
v -0.26847756 0.8532015 1.0730077
v -0.38141084 0.98481786 1.074002
v -0.43850884 0.89729214 1.2892781
v -0.4779049 0.9830484 1.2506659
v -0.43882635 0.91845465 1.3562231
v -0.22642118 1.347183 1.2102468
v -0.3495093 1.0056827 1.5606244
v -0.28865948 1.341694 1.4062111
v -0.3399866 1.1706555 1.5590229
v -0.167697 1.1030021 1.785911
v -0.051400274 1.2889868 1.768102
v -0.1144545 1.1251749 1.8247937
v -0.74594456 -0.9654575 1.0242369
v -0.8098968 -0.6421429 0.8755817
v -0.88148934 -0.6211128 0.99868894
v -0.66276413 -1.1416147 1.3487868
v -0.7173642 -0.94312847 1.4715478
v -0.75629187 -0.7366961 1.3069048
v -0.6611291 -0.8624912 1.5357182
v -0.7252259 -0.8318342 1.4110109
v -0.80527127 -0.60682154 1.1749095
v -0.7820729 -0.52703583 1.0527099
v -0.30192804 -0.5679057 0.8037119
v -0.30568415 -0.5007373 0.8808535
v -0.5141916 -0.46920413 0.87562436
v -0.6132392 -0.50197697 0.8187548
v -0.6729115 -0.48839724 0.92113054
v -0.8098968 -0.6421429 0.8755817
v -0.88148934 -0.6211128 0.99868894
v -0.7820729 -0.52703583 1.0527099
v -0.6611291 -0.8624912 1.5357182
v -0.5818057 -0.9229654 1.602415
v -0.45872197 -0.92686146 1.7056683
v -0.7173642 -0.94312847 1.4715478
v -0.43755144 -1.0855134 1.5668652
v -0.1632203 -1.1597816 1.2068362
v -0.66276413 -1.1416147 1.3487868
v -0.4882458 -1.1143326 0.9288848
v -0.74594456 -0.9654575 1.0242369
v -0.3392443 -0.9799136 0.8073983
v -0.016592916 -0.9995632 1.11167
v -0.1632203 -1.1597816 1.2068362
v -0.06698145 -0.95922244 1.3837017
v 0.053473286 -0.7724867 1.2081751
v -0.028519373 -0.7752497 0.96860653
v 0.024884649 -0.7071728 1.0909133
v -0.007856254 -0.6509174 1.0188377
v -0.38476586 -0.9607814 1.6320873
v -0.1632203 -1.1597816 1.2068362
v -0.43755144 -1.0855134 1.5668652
v -0.45872197 -0.92686146 1.7056683
v -0.16038522 0.38448614 3.427717
v -0.30336455 0.18423533 3.407672
v -0.3681188 0.35713124 3.2731028
v -0.17885914 0.22100472 3.4906406
v -0.067695096 0.46238387 3.4654303
v -0.046235487 0.2601716 3.5790188
v -1.2459855 0.06479648 1.5832604
v -1.1864154 0.20120254 1.4601027
v -1.6788006 0.42018867 1.9073045
v -1.2671535 0.49191773 1.474732
v -1.5890068 0.6266173 1.7133145
v -1.1417863 0.3220587 1.4497645
v -1.1184855 0.93926805 1.6211092
v -1.0548546 0.5511186 1.5347334
v -1.0151725 0.650404 1.5754755
v -0.94982845 0.70145583 1.609693
v -0.8834348 0.82477385 1.6755378
v -0.84063065 0.78929126 1.6722728
v -0.3681188 0.35713124 3.2731028
v -0.24282968 0.7456871 3.6327758
v -0.16038522 0.38448614 3.427717
v -0.66330063 0.44568107 3.1612256
v -0.78381 1.0130739 3.324059
v 1.2926309 -0.14711261 0.98572624
v 0.6804337 0.2491008 1.3664701
v 0.9312495 0.4212088 1.3283175
v 1.1888015 -0.3237399 0.9399228
v 1.9888053 0.13711977 0.38569772
v 1.9902935 0.18094796 0.41439205
v 1.1888015 -0.3237399 0.9399228
v 0.59520984 0.30940044 1.0782232
v 0.6804337 0.2491008 1.3664701
v 1.080208 -0.23118114 0.768581
v 1.959078 0.1614626 0.35005772
v 1.9888053 0.13711977 0.38569772
v 0.6804337 0.2491008 1.3664701
v 0.59520984 0.30940044 1.0782232
v 0.8384353 0.47186452 1.0421083
v 0.9312495 0.4212088 1.3283175
v 1.080208 -0.23118114 0.768581
v 0.8384353 0.47186452 1.0421083
v 0.59520984 0.30940044 1.0782232
v 1.1792712 -0.03821516 0.8253319
v 1.9605663 0.20529103 0.3787521
v 1.959078 0.1614626 0.35005772
v 1.1792712 -0.03821516 0.8253319
v 1.2926309 -0.14711261 0.98572624
v 0.9312495 0.4212088 1.3283175
v 0.8384353 0.47186452 1.0421083
v 1.1792712 -0.03821516 0.8253319
v 1.9605663 0.20529103 0.3787521
v 1.9902935 0.18094796 0.41439205
v 1.2926309 -0.14711261 0.98572624
v 1.9902935 0.18094796 0.41439205
v 1.9605663 0.20529103 0.3787521
v 1.959078 0.1614626 0.35005772
v 1.9888053 0.13711977 0.38569772
v 0.7905178 -0.3811292 0.8267031
v 0.39290345 -0.8169377 1.4661474
v 0.47853565 -0.528389 1.5243883
v 0.75856483 -0.5906565 0.76124454
v 0.86191094 0.31802452 0.1778301
v 0.8708664 0.34803027 0.21985328
v 0.75856483 -0.5906565 0.76124454
v 0.16512728 -0.7135651 1.2888975
v 0.39290345 -0.8169377 1.4661474
v 0.55786455 -0.5322924 0.6655054
v 0.8114973 0.33233094 0.17835832
v 0.86191094 0.31802452 0.1778301
v 0.39290345 -0.8169377 1.4661474
v 0.16512728 -0.7135651 1.2888975
v 0.25256926 -0.431028 1.3469191
v 0.47853565 -0.528389 1.5243883
v 0.55786455 -0.5322924 0.6655054
v 0.25256926 -0.431028 1.3469191
v 0.16512728 -0.7135651 1.2888975
v 0.59669566 -0.33827767 0.792982
v 0.8204527 0.36233664 0.22038174
v 0.8114973 0.33233094 0.17835832
v 0.59669566 -0.33827767 0.792982
v 0.7905178 -0.3811292 0.8267031
v 0.47853565 -0.528389 1.5243883
v 0.25256926 -0.431028 1.3469191
v 0.59669566 -0.33827767 0.792982
v 0.8204527 0.36233664 0.22038174
v 0.8708664 0.34803027 0.21985328
v 0.7905178 -0.3811292 0.8267031
v 0.8708664 0.34803027 0.21985328
v 0.8204527 0.36233664 0.22038174
v 0.8114973 0.33233094 0.17835832
v 0.86191094 0.31802452 0.1778301
v -1.2459763 -1.0496752 0.76650304
v -0.88649917 -0.48153692 1.5044718
v -0.69284666 -0.7079656 1.4322622
v -1.3943578 -0.97753066 0.93868613
v -1.6250656 -0.45701325 0.046583414
v -1.5854564 -0.4745969 0.017114222
v -1.3943578 -0.97753066 0.93868613
v -0.8614258 -0.3754504 1.2227068
v -0.88649917 -0.48153692 1.5044718
v -1.3037307 -0.78277504 0.92363966
v -1.5977519 -0.41361442 0.05739999
v -1.6250656 -0.45701325 0.046583414
v -0.88649917 -0.48153692 1.5044718
v -0.8614258 -0.3754504 1.2227068
v -0.66752094 -0.6194687 1.1533741
v -0.69284666 -0.7079656 1.4322622
v -1.3037307 -0.78277504 0.92363966
v -1.150213 -0.84036565 0.7718075
v -0.66752094 -0.6194687 1.1533741
v -0.8614258 -0.3754504 1.2227068
v -1.150213 -0.84036565 0.7718075
v -0.69284666 -0.7079656 1.4322622
v -0.66752094 -0.6194687 1.1533741
v -1.2459763 -1.0496752 0.76650304
v -1.5854564 -0.4745969 0.017114222
v -1.5581427 -0.43119815 0.027930915
v -1.5854564 -0.4745969 0.017114222
v -1.5581427 -0.43119815 0.027930915
v -1.5977519 -0.41361442 0.05739999
v -1.6250656 -0.45701325 0.046583414
v -1.3037307 -0.78277504 0.92363966
v -1.5977519 -0.41361442 0.05739999
v -1.5581427 -0.43119815 0.027930915
v -1.150213 -0.84036565 0.7718075
v -1.0771472 0.89651704 0.5952268
v -0.645699 0.8573457 1.4112282
v -0.64108396 0.57193387 1.2994062
v -1.1072159 1.0379303 0.7825973
v -1.2944509 1.6684186 -0.0020141453
v -1.2814589 1.6362387 -0.04128447
v -1.1072159 1.0379303 0.7825973
v -0.40183088 0.9228114 1.240626
v -0.645699 0.8573457 1.4112282
v -0.9250496 1.1334574 0.74638903
v -1.2468148 1.6901684 -0.0040777177
v -1.2944509 1.6684186 -0.0020141453
v -0.645699 0.8573457 1.4112282
v -0.40183088 0.9228114 1.240626
v -0.39654 0.6393011 1.1265972
v -0.64108396 0.57193387 1.2994062
v -0.9250496 1.1334574 0.74638903
v -0.8868096 1.0207367 0.5572094
v -0.39654 0.6393011 1.1265972
v -0.40183088 0.9228114 1.240626
v -0.8868096 1.0207367 0.5572094
v -0.64108396 0.57193387 1.2994062
v -0.39654 0.6393011 1.1265972
v -1.0771472 0.89651704 0.5952268
v -1.2814589 1.6362387 -0.04128447
v -1.2338227 1.6579882 -0.04334806
v -1.2814589 1.6362387 -0.04128447
v -1.2338227 1.6579882 -0.04334806
v -1.2468148 1.6901684 -0.0040777177
v -1.2944509 1.6684186 -0.0020141453
v -0.9250496 1.1334574 0.74638903
v -1.2468148 1.6901684 -0.0040777177
v -1.2338227 1.6579882 -0.04334806
v -0.8868096 1.0207367 0.5572094
vt 0.41489577 0.9505312
vt 0.4353385 0.9753374
vt 0.4353385 0.9492544
vt 0.24458265 0.6430143
vt 0.24122691 0.65916014
vt 0.24968433 0.65916014
vt 0.8139267 0.22732246
vt 0.8139267 0.15849745
vt 0.7951455 0.18695664
vt 0.36249647 0.8193971
vt 0.34896675 0.82306004
vt 0.36249647 0.88863325
vt 0.9675742 0.39801297
vt 0.99094063 0.4002199
vt 0.99094063 0.35834798
vt 0.49061108 0.76728296
vt 0.48858953 0.7917758
vt 0.5031121 0.7917758
vt 0.40631127 0.9865678
vt 0.40631127 0.9492543
vt 0.3769536 0.9666842
vt 0.82740736 0.95612735
vt 0.82584625 0.99004865
vt 0.8540703 0.99004865
vt 0.85558337 0.26026046
vt 0.8375755 0.26917362
vt 0.85558337 0.30763942
vt 0.2875653 0.53092074
vt 0.25912213 0.53950906
vt 0.2792589 0.59034956
vt 0.30660623 0.59449303
vt 0.2963184 0.5506848
vt 0.32315886 0.5637562
vt 0.3573084 0.5636662
vt 0.35907274 0.5930264
vt 0.36404705 0.6464493
vt 0.30241275 0.6564628
vt 0.36872554 0.611706
vt 0.379178 0.593549
vt 0.37910116 0.5638703
vt 0.41165078 0.59439313
vt 0.3983118 0.5481589
vt 0.40756547 0.64473724
vt 0.4130376 0.5697142
vt 0.4157958 0.5206306
vt 0.43424243 0.581447
vt 0.39701974 0.521644
vt 0.3996799 0.501786
vt 0.39401358 0.49550784
vt 0.41793817 0.44698286
vt 0.36169797 0.47553754
vt 0.35660422 0.4518572
vt 0.33183694 0.46833026
vt 0.4219783 0.5839164
vt 0.29600978 0.46015763
vt 0.32204658 0.4698634
vt 0.2960741 0.48909056
vt 0.3023184 0.40236294
vt 0.35558254 0.3984151
vt 0.3614946 0.40492094
vt 0.37186122 0.4159813
vt 0.4177345 0.4219947
vt 0.3725614 0.40887344
vt 0.42826492 0.4257797
vt 0.43212056 0.42092097
vt 0.4849347 0.46014583
vt 0.44451624 0.4244063
vt 0.47959006 0.40832436
vt 0.49750715 0.46606088
vt 0.5053654 0.41411078
vt 0.4832598 0.5052239
vt 0.47843212 0.5253997
vt 0.41985738 0.38675368
vt 0.364771 0.37397826
vt 0.4400363 0.32251382
vt 0.4731993 0.3553877
vt 0.36920094 0.3226
vt 0.44871652 0.5903436
vt 0.4794587 0.5414877
vt 0.4740305 0.59409165
vt 0.47049892 0.58799076
vt 0.48012757 0.568293
vt 0.5053654 0.5794933
vt 0.46959293 0.6176698
vt 0.47694266 0.65044117
vt 0.41145474 0.6767491
vt 0.3797577 0.6563157
vt 0.7088688 0.6463046
vt 0.6846238 0.6618912
vt 0.683434 0.6755998
vt 0.67388904 0.6485269
vt 0.6669443 0.6376636
vt 0.7088688 0.57746196
vt 0.65712774 0.6224694
vt 0.64490414 0.57407
vt 0.64490825 0.61469436
vt 0.6281288 0.6006243
vt 0.64468515 0.52060723
vt 0.7068366 0.51560545
vt 0.5729313 0.570621
vt 0.617661 0.60946107
vt 0.5619011 0.5111301
vt 0.64304477 0.5081711
vt 0.6825332 0.49316192
vt 0.68706167 0.45160437
vt 0.67449915 0.45533752
vt 0.6715559 0.4383366
vt 0.6837768 0.41758227
vt 0.6804919 0.38356018
vt 0.66692966 0.4255123
vt 0.6432463 0.40715122
vt 0.62915707 0.3970127
vt 0.65206885 0.35303688
vt 0.6383061 0.3382573
vt 0.60660756 0.3898375
vt 0.6236459 0.32251382
vt 0.5959458 0.38901925
vt 0.56574506 0.34179235
vt 0.5793502 0.3867166
vt 0.05789879 0.043092847
vt 0.04818806 0.035493016
vt 0.047156483 0.0519045
vt 0.011559039 0.027358472
vt 0.0045599937 0.064921856
vt 0.030396938 0.08089471
vt 0.008416355 0.115715146
vt 0.028102487 0.09702325
vt 0.028182238 0.10772109
vt 0.032435626 0.1224314
vt 0.023616016 0.17142057
vt 0.05576642 0.13679242
vt 0.048097223 0.15828115
vt 0.07257846 0.14514172
vt 0.0691358 0.13430232
vt 0.08740088 0.1347493
vt 0.09841749 0.12126589
vt 0.054179415 0.19667834
vt 0.044022113 0.19748312
vt 0.07092485 0.20726931
vt 0.12589236 0.1379776
vt 0.09809421 0.08443707
vt 0.114314854 0.07984644
vt 0.09780976 0.050593138
vt 0.101154745 0.018691242
vt 0.06548029 0.040927768
vt 0.14277008 0.065915406
vt 0.17075984 0.0042923093
vt 0.15810126 0.061466873
vt 0.17955963 0.06583679
vt 0.13691443 0.07574648
vt 0.12962382 0.087969065
vt 0.13570641 0.13626921
vt 0.13719736 0.20024753
vt 0.16156955 0.19660473
vt 0.14815678 0.25701392
vt 0.19016391 0.25066376
vt 0.09056538 0.19768214
vt 0.17586371 0.20831496
vt 0.19227238 0.20460439
vt 0.07563448 0.21377474
vt 0.081037104 0.24699897
vt 0.054752916 0.2035973
vt 0.10590756 0.25045055
vt 0.07695642 0.26519024
vt 0.019307196 0.28295243
vt 0.0042922795 0.21070433
vt 0.08246414 0.2844547
vt 0.14229423 0.3221091
vt 0.14922193 0.31879425
vt 0.15353614 0.29162318
vt 0.17786245 0.26837635
vt 0.16110946 0.30116737
vt 0.19190761 0.27685797
vt 0.1893583 0.25636768
vt 0.2006586 0.2457304
vt 0.2505375 0.3153143
vt 0.2035156 0.3855815
vt 0.22270577 0.2525487
vt 0.23662166 0.22303957
vt 0.23371239 0.21378958
vt 0.25053754 0.1935305
vt 0.24413238 0.19068354
vt 0.23522699 0.1793077
vt 0.24639803 0.17598033
vt 0.24566802 0.15422577
vt 0.71745336 0.9506091
vt 0.73781395 0.9612
vt 0.74210954 0.9238352
vt 0.7336402 0.97951084
vt 0.74210954 0.98926467
vt 0.633347 0.014769323
vt 0.6302897 0.0069642384
vt 0.57245314 0.035328396
vt 0.59876776 0.029590964
vt 0.6412641 0.08724645
vt 0.65747094 0.0042922813
vt 0.5887538 0.059701387
vt 0.57318276 0.059387248
vt 0.5900656 0.10316816
vt 0.6341017 0.13510694
vt 0.56181186 0.18030536
vt 0.64520454 0.1707464
vt 0.71703196 0.12024006
vt 0.71703196 0.07206792
vt 0.796129 0.28584313
vt 0.79514563 0.312639
vt 0.8289908 0.31118715
vt 0.8289908 0.26026046
vt 0.7775973 0.56950575
vt 0.81726164 0.51985484
vt 0.75949365 0.53785264
vt 0.76838875 0.5637349
vt 0.7405925 0.6151995
vt 0.780474 0.5882466
vt 0.7861535 0.5973518
vt 0.7174534 0.58695596
vt 0.7559681 0.5402143
vt 0.783499 0.62466323
vt 0.7664619 0.68171227
vt 0.79560125 0.6188669
vt 0.8078016 0.67405593
vt 0.8000361 0.6337513
vt 0.81726164 0.65146357
vt 0.5281167 0.48101306
vt 0.51738465 0.5092945
vt 0.5139499 0.56825304
vt 0.57668567 0.63593745
vt 0.5860039 0.6628089
vt 0.51900756 0.6218574
vt 0.56634223 0.65233564
vt 0.5719515 0.6663492
vt 0.5266055 0.6601739
vt 0.16228616 0.7728597
vt 0.16778886 0.7575384
vt 0.15579319 0.7544137
vt 0.1561364 0.7942406
vt 0.11516011 0.8281182
vt 0.10840666 0.7619702
vt 0.08958733 0.8242046
vt 0.16544461 0.8376436
vt 0.10584772 0.85542357
vt 0.16778886 0.8626589
vt 0.7837957 0.2967255
vt 0.7765136 0.312639
vt 0.786561 0.30480337
vt 0.7706877 0.29782677
vt 0.78026485 0.2866888
vt 0.7646799 0.28255224
vt 0.7798754 0.23828733
vt 0.7526034 0.22086132
vt 0.72561634 0.26846278
vt 0.78089 0.17347431
vt 0.7695459 0.16701746
vt 0.786561 0.15849733
vt 0.5155556 0.86387074
vt 0.52947485 0.83491373
vt 0.51394993 0.8468573
vt 0.5735295 0.90611273
vt 0.5735295 0.8429332
vt 0.54638463 0.92672586
vt 0.5146224 0.911242
vt 0.6251806 0.6841843
vt 0.5944024 0.70671034
vt 0.61853284 0.73691714
vt 0.59170634 0.77973664
vt 0.54678714 0.7431165
vt 0.5380566 0.6867564
vt 0.51394993 0.75275147
vt 0.56317693 0.80163896
vt 0.60768497 0.81379294
vt 0.59071887 0.8263291
vt 0.6251806 0.8008654
vt 0.6623473 0.3050232
vt 0.6430192 0.25222647
vt 0.60412246 0.2754519
vt 0.59963167 0.19306922
vt 0.6623473 0.1896609
vt 0.5641691 0.2689526
vt 0.56181186 0.18888986
vt 0.8023305 0.0042923093
vt 0.8139838 0.030708909
vt 0.8150283 0.012618065
vt 0.72561646 0.03532636
vt 0.7696229 0.061555445
vt 0.8075113 0.08519775
vt 0.8059995 0.093520224
vt 0.7804862 0.14723247
vt 0.7324859 0.10789257
vt 0.80904937 0.11898607
vt 0.8150283 0.1499129
vt 0.4800049 0.7170805
vt 0.44620132 0.7167547
vt 0.4800049 0.7478584
vt 0.4181124 0.774878
vt 0.38315076 0.76357067
vt 0.39353317 0.7269026
vt 0.37695366 0.69675297
vt 0.38023394 0.6853338
vt 0.38244617 0.78594524
vt 0.3809563 0.7895421
vt 0.41157877 0.8149724
vt 0.37734562 0.807938
vt 0.46735328 0.7919904
vt 0.0042922813 0.9319809
vt 0.010339811 0.9623797
vt 0.0300802 0.9539748
vt 0.017701121 0.9221042
vt 0.04057748 0.9288277
vt 0.056103997 0.96239555
vt 0.056104004 0.8931594
vt 0.0446987 0.8756963
vt 0.9669695 0.87368995
vt 0.9917891 0.8683863
vt 0.9758942 0.85421824
vt 0.98967063 0.9019805
vt 0.9846585 0.9407213
vt 0.991789 0.93856007
vt 0.8060525 0.91742986
vt 0.81205785 0.9265601
vt 0.8132239 0.9145707
vt 0.7985521 0.9298233
vt 0.77079666 0.94754314
vt 0.77626604 0.97060305
vt 0.807052 0.9440564
vt 0.8096893 0.95877653
vt 0.8132239 0.98290795
vt 0.2908712 0.9226333
vt 0.2793706 0.9330406
vt 0.30064458 0.93874156
vt 0.27203184 0.9412149
vt 0.25912213 0.94946086
vt 0.27846307 0.98443544
vt 0.31035304 0.97835994
vt 0.32041925 0.9858564
vt 0.3204192 0.94001675
vt 0.45338827 0.28595603
vt 0.45962834 0.3087482
vt 0.4791355 0.30560368
vt 0.47596306 0.2786088
vt 0.48542595 0.27130532
vt 0.52241284 0.27503407
vt 0.5164528 0.31392932
vt 0.49475068 0.26855135
vt 0.52044886 0.24856567
vt 0.46675122 0.2687199
vt 0.4910524 0.23646688
vt 0.43377662 0.23334897
vt 0.53080904 0.24849176
vt 0.4196844 0.2784654
vt 0.36688864 0.27289045
vt 0.55322725 0.17730784
vt 0.3650782 0.2644168
vt 0.51018023 0.17911041
vt 0.52639425 0.113055825
vt 0.5091897 0.124676704
vt 0.46033597 0.10215247
vt 0.44960797 0.16330874
vt 0.39752185 0.084414124
vt 0.37717825 0.14613533
vt 0.3585304 0.22080147
vt 0.3594278 0.25826377
vt 0.35488105 0.2775507
vt 0.3373043 0.22701192
vt 0.33339345 0.23518455
vt 0.3278963 0.21025205
vt 0.30451614 0.28084183
vt 0.30209762 0.20586777
vt 0.34514904 0.30443913
vt 0.31931597 0.31392932
vt 0.27134883 0.20890784
vt 0.260359 0.252002
vt 0.28024858 0.28683013
vt 0.3135386 0.13200974
vt 0.29719132 0.1999358
vt 0.3154741 0.2087915
vt 0.3394506 0.07646155
vt 0.26932853 0.10604215
vt 0.28391844 0.19699132
vt 0.25912213 0.19195294
vt 0.32944417 0.050105333
vt 0.4054777 0.04791224
vt 0.43562984 0.056735158
vt 0.4397322 0.064887166
vt 0.4538002 0.073611975
vt 0.43518674 0.03865707
vt 0.47276217 0.07646322
vt 0.48343563 0.058894873
vt 0.47683156 0.0042922497
vt 0.5147836 0.04178512
vt 0.49725407 0.08169162
vt 0.491593 0.08550775
vt 0.5312985 0.056957126
vt 0.7073233 0.7266775
vt 0.70797634 0.68418425
vt 0.6975467 0.73992586
vt 0.70460355 0.73801225
vt 0.70797634 0.7533965
vt 0.708841 0.18888992
vt 0.6709319 0.22016361
vt 0.68814325 0.23333097
vt 0.708841 0.31125382
vt 0.6458396 0.8824474
vt 0.6926657 0.9401662
vt 0.6926657 0.88118654
vt 0.6530503 0.9432054
vt 0.6360785 0.9209717
vt 0.6337652 0.9381953
vt 0.6345986 0.95131546
vt 0.26615286 0.7835825
vt 0.33481407 0.81081253
vt 0.3683691 0.79409224
vt 0.2964208 0.758122
vt 0.25912213 0.7448242
vt 0.3683691 0.69356203
vt 0.3098905 0.68533385
vt 0.99469924 0.5241931
vt 0.99343604 0.5198549
vt 0.9665755 0.5469139
vt 0.99469924 0.5993894
vt 0.027846396 0.6851295
vt 0.025156379 0.7458292
vt 0.071930975 0.7118856
vt 0.06531477 0.6194625
vt 0.0042922795 0.64440787
vt 0.11561188 0.6530707
vt 0.11709592 0.62994254
vt 0.090085596 0.62021446
vt 0.089194804 0.61592436
vt 0.04325092 0.5953064
vt 0.060596257 0.61765337
vt 0.1076996 0.6004305
vt 0.110776365 0.5977346
vt 0.17428178 0.6255053
vt 0.13287944 0.6609911
vt 0.12995476 0.66662157
vt 0.17653167 0.6597246
vt 0.17203188 0.59128606
vt 0.12632304 0.58488584
vt 0.17653167 0.5245706
vt 0.1285333 0.5541483
vt 0.12999141 0.52868116
vt 0.17211378 0.46270296
vt 0.12975433 0.5201824
vt 0.12296876 0.46571454
vt 0.16622126 0.39416608
vt 0.11386278 0.44878808
vt 0.084501445 0.39748427
vt 0.090901434 0.4453151
vt 0.06794265 0.43631735
vt 0.05178517 0.4408771
vt 0.009577721 0.42098686
vt 0.026007652 0.4634311
vt 0.015097022 0.47402605
vt 0.8388511 0.4297465
vt 0.808725 0.5112703
vt 0.85665655 0.4658364
vt 0.7733853 0.51105845
vt 0.73804545 0.5108466
vt 0.7216433 0.4635105
vt 0.75550544 0.40249228
vt 0.71745336 0.39572608
vt 0.742013 0.32251382
vt 0.81191885 0.35210407
vt 0.85665655 0.3570007
vt 0.6889622 0.68687016
vt 0.6833675 0.68418425
vt 0.6420678 0.71474266
vt 0.67111886 0.7069242
vt 0.6611558 0.7195977
vt 0.6561812 0.740905
vt 0.6337652 0.7870859
vt 0.6513901 0.7856919
vt 0.6636361 0.8606214
vt 0.6616976 0.8726019
vt 0.6889622 0.8719665
vt 0.6232557 0.8586377
vt 0.6204698 0.83491373
vt 0.6032954 0.8360753
vt 0.6195644 0.85878336
vt 0.62274617 0.88006973
vt 0.58211404 0.9106997
vt 0.6132232 0.91016006
vt 0.6208814 0.91352355
vt 0.6164044 0.93805146
vt 0.6232557 0.9372672
vt 0.98393667 0.4938289
vt 0.98393667 0.44949806
vt 0.967474 0.4503097
vt 0.96972096 0.47712177
vt 0.9597099 0.49614936
vt 0.26528698 0.8943343
vt 0.3169561 0.9140487
vt 0.3403822 0.90265
vt 0.2889746 0.8724021
vt 0.25912213 0.865639
vt 0.3403822 0.82475543
vt 0.29652467 0.819397
vt 0.4354689 0.830456
vt 0.4386896 0.82355696
vt 0.4191472 0.82958275
vt 0.4386896 0.8542177
vt 0.4261272 0.8515422
vt 0.43867218 0.86418295
vt 0.3769536 0.8657451
vt 0.43598902 0.8966939
vt 0.38561344 0.8904986
vt 0.41445172 0.9029574
vt 0.4326533 0.9333877
vt 0.40729344 0.9406697
vt 0.431287 0.9403648
vt 0.08958742 0.9185914
vt 0.112319574 0.96000147
vt 0.12386498 0.950228
vt 0.09603459 0.8712435
vt 0.12603642 0.8759345
vt 0.13634561 0.9093313
vt 0.14036158 0.87556636
vt 0.13378024 0.8912287
vt 0.14036158 0.9326457
vt 0.13969238 0.9507489
vt 0.98088384 0.3497634
vt 0.99036914 0.3437698
vt 0.9802332 0.31720316
vt 0.9684961 0.3086726
vt 0.9787246 0.2966287
vt 0.96757424 0.28567272
vt 0.9797163 0.2712322
vt 0.99036914 0.27915698
vt 0.6975467 0.7715127
vt 0.70650977 0.7822864
vt 0.7080691 0.79982716
vt 0.7080691 0.76198125
vt 0.19634718 0.9487133
vt 0.24931914 0.9292071
vt 0.18511623 0.90777445
vt 0.2288816 0.8744021
vt 0.18952507 0.8671119
vt 0.24931914 0.87250197
vt 0.36160737 0.94996595
vt 0.36160737 0.9226332
vt 0.3290038 0.937837
vt 0.33460236 0.97038865
vt 0.35996366 0.9815556
vt 0.34207118 0.9829364
vt 0.34530067 0.9918709
vt 0.5029112 0.74745834
vt 0.5029112 0.6853337
vt 0.4885894 0.7344091
vt 0.5010804 0.75869846
vt 0.5892156 0.9731643
vt 0.6121145 0.9524803
vt 0.58317375 0.94663596
vt 0.61269706 0.9686525
vt 0.5821141 0.98587894
vt 0.6133176 0.98587894
vt 0.08100283 0.8671117
vt 0.07887101 0.84637827
vt 0.008554935 0.85826045
vt 0.05031526 0.81772995
vt 0.0042922497 0.82634723
vt 0.07630503 0.82899475
vt 0.0374856 0.75731677
vt 0.071649194 0.7968978
vt 0.069645405 0.78301036
vt 0.073894024 0.77293146
vt 0.07340562 0.75441366
vt 0.08100283 0.7553263
vt 0.4472742 0.8568482
vt 0.5049932 0.8297403
vt 0.45840263 0.8235569
vt 0.4517336 0.90045124
vt 0.5049932 0.9171464
vt 0.21387255 0.52841306
vt 0.19870436 0.6344297
vt 0.23583543 0.628595
vt 0.18511617 0.527655
vt 0.22926128 0.394166
vt 0.23583543 0.3955748
vt 0.87906635 0.6088161
vt 0.9197832 0.5304958
vt 0.87965107 0.51985496
vt 0.90922517 0.6126568
vt 0.9197832 0.7416647
vt 0.91295457 0.74187887
vt 0.9635502 0.2605159
vt 0.9635502 0.2189242
vt 0.9245752 0.21841541
vt 0.9245752 0.26000717
vt 0.18511617 0.7388867
vt 0.23264241 0.6446549
vt 0.19762516 0.6430143
vt 0.21207917 0.73501194
vt 0.23264241 0.85642517
vt 0.22654748 0.85852736
vt 0.9367337 0.8357394
vt 0.96270806 0.8456337
vt 0.96270806 0.7575503
vt 0.9283557 0.7504634
vt 0.14894615 0.8884408
vt 0.16832949 0.9728374
vt 0.17439555 0.96964127
vt 0.17439552 0.87124354
vt 0.25050962 0.40206873
vt 0.25050962 0.39530253
vt 0.24441993 0.3941661
vt 0.24441993 0.40093225
vt 0.89588034 0.40575945
vt 0.8674365 0.51127034
vt 0.9069618 0.50520515
vt 0.86524117 0.40725517
vt 0.899922 0.27123225
vt 0.9069618 0.2720939
vt 0.77079666 0.78109986
vt 0.8149421 0.69853777
vt 0.7752899 0.6902968
vt 0.80146444 0.78081566
vt 0.8149421 0.9048837
vt 0.80791795 0.905986
vt 0.51395 0.93531036
vt 0.51395 0.9743519
vt 0.5458341 0.98361504
vt 0.5458341 0.9445735
vt 0.8790662 0.83874166
vt 0.9197711 0.7504634
vt 0.88651 0.75361097
vt 0.9060651 0.8336982
vt 0.9197711 0.94794804
vt 0.91359925 0.9502364
vt 0.9702486 0.7206117
vt 0.99570775 0.7276475
vt 0.99570775 0.63678026
vt 0.9644047 0.634514
vt 0.958385 0.95768726
vt 0.958385 0.85516566
vt 0.9513953 0.85421824
vt 0.9283557 0.9578274
vt 0.24979591 0.4361278
vt 0.24979591 0.42965844
vt 0.24442005 0.4277198
vt 0.24442005 0.4341891
vt 0.7473315 0.81929934
vt 0.724789 0.914888
vt 0.7622119 0.91525066
vt 0.71745324 0.81791633
vt 0.75534475 0.69029695
vt 0.7622119 0.6917157
vt 0.8258461 0.6186441
vt 0.8704817 0.5348385
vt 0.8319932 0.51985484
vt 0.8567724 0.6200972
vt 0.8704817 0.7474214
vt 0.8634466 0.74816555
vt 0.9155463 0.44949812
vt 0.9155464 0.4872051
vt 0.95112526 0.4963414
vt 0.95112526 0.45863444
vt 0.96018887 0.0042922497
vt 0.9354054 0.010995984
vt 0.9245752 0.10274613
vt 0.96018887 0.10126686
vt 0.9441662 0.37049538
vt 0.92263484 0.44091356
vt 0.95898974 0.43710732
vt 0.9155464 0.36389405
vt 0.952461 0.27123225
vt 0.95898974 0.27369
vt 0.24441993 0.4191352
vt 0.24974978 0.41697943
vt 0.24974978 0.41065323
vt 0.24442005 0.41280913
vt 0.957991 0.6259295
vt 0.9374964 0.5198549
vt 0.93057513 0.5208627
vt 0.92836773 0.6259295
vt 0.85212505 0.13924527
vt 0.8281536 0.24547839
vt 0.8656062 0.2477445
vt 0.8236127 0.14031082
vt 0.8590045 0.0042922497
vt 0.8656062 0.005282283
vt 0.8741908 0.09948832
vt 0.9159906 0.008008897
vt 0.8745985 0.0042923093
vt 0.9050938 0.101335704
vt 0.9159906 0.23014215
vt 0.9089277 0.2308181
vt 0.47933158 0.93487626
vt 0.44727418 0.925731
vt 0.44727418 0.964799
vt 0.47933158 0.97394425
vt 0.9347796 0.20983082
vt 0.9596237 0.19746101
vt 0.9596237 0.11133081
vt 0.9245752 0.12838197
vt 0.857625 0.86309016
vt 0.8258461 0.9475427
vt 0.86727464 0.9436361
vt 0.82674956 0.8648111
vt 0.8601992 0.7567502
vt 0.86727464 0.7573647
vt 0.24738848 0.6677448
vt 0.24122703 0.6688466
vt 0.24122703 0.6756109
vt 0.24738848 0.6745091
vt 0.9558201 0.7416528
vt 0.9497938 0.6345141
vt 0.9432386 0.6355334
vt 0.92836773 0.7416528
vn 0.6601563 -0.6203401 0.42245886
vn 0.3243838 -0.29999423 0.8968131
vn 0.4284781 -0.65533924 0.62147284
vn -0.10166079 0.878741 0.4435867
vn 0.5968962 0.788509 0.048792586
vn 0.20893364 0.96651345 -0.029063866
vn 0.6969392 0.22854432 0.6756312
vn 0.8674603 0.4744292 -0.0705525
vn 0.8744366 0.30024284 0.36997736
vn 0.6969392 0.22854432 0.6756312
vn 0.62398523 0.53273654 0.56011975
vn 0.8674603 0.4744292 -0.0705525
vn 0.17351191 -0.9520761 0.2271404
vn 0.5384909 -0.83488524 -0.06352429
vn 0.74312097 -0.65943146 -0.059202112
vn 0.65421283 -0.026718974 0.75583816
vn 0.78236556 -0.5456884 0.30021334
vn 0.9485526 -0.1578359 0.2743311
vn -0.87450874 -0.3959439 0.2689178
vn -0.8205198 -0.3574595 0.44043925
vn -0.9119765 -0.38124734 0.12238146
vn 0.06747676 -0.73970616 0.65939254
vn -0.537207 -0.78935784 0.2585442
vn -0.7740006 -0.20136261 0.58144766
vn -0.18814011 -0.8520911 0.46626142
vn 0.06747676 -0.73970616 0.65939254
vn -0.7740006 -0.20136261 0.58144766
vn 0.2229671 0.12003781 -0.9595249
vn 0.032315888 0.5502911 -0.8300917
vn 0.29998168 0.5830055 -0.74502933
vn 0.44602898 0.7884629 -0.3988596
vn 0.4940809 0.2510941 -0.8206099
vn 0.8647437 0.3059645 -0.37285438
vn 0.9524956 0.23124132 -0.15186903
vn 0.53825516 0.7991637 -0.22085348
vn 0.6802956 0.45053482 -0.5577482
vn 0.81470364 0.40938908 -0.38704634
vn 0.46206835 0.5790032 -0.65456176
vn 0.24797419 0.8409459 -0.45820707
vn 0.86162215 0.48959392 -0.010199323
vn 0.06063851 0.9503161 -0.26808542
vn 0.5376579 0.79978245 0.22272772
vn 0.27199855 0.89133215 -0.32889098
vn 0.33298698 0.9213241 -0.1257684
vn 0.072022036 0.9837493 -0.06136647
vn 0.1323694 0.9749162 0.08690119
vn 0.14216162 0.8934413 0.39657798
vn -0.35140225 0.9034386 0.19759749
vn -0.49746844 0.8380497 0.17641643
vn -0.3328127 0.9334207 -0.054486617
vn -0.6864253 0.71187663 0.08668357
vn -0.36610872 0.88303685 -0.2696697
vn -0.7404409 0.6609762 -0.06720711
vn 0.15754317 0.9741944 0.04152763
vn -0.3963346 0.81442887 -0.4238212
vn -0.8003269 0.4587642 -0.38287088
vn -0.6974808 0.12921105 -0.7044369
vn -0.731592 0.53144544 -0.42383683
vn -0.28437573 0.65449417 -0.69467705
vn -0.14375776 0.6852007 -0.7060579
vn -0.18888476 0.8328483 -0.5074923
vn 0.07286522 0.9053382 -0.3966301
vn 0.40141118 0.5731454 -0.6991155
vn 0.20893364 0.96651345 -0.029063866
vn 0.5968962 0.788509 0.048792586
vn -0.23203492 0.92686903 0.27456248
vn -0.10166079 0.878741 0.4435867
vn -0.19792466 0.8036588 0.54383963
vn -0.44929308 0.8242908 -0.33776304
vn -0.8257512 0.38162637 -0.41427526
vn -0.3104295 0.86047107 -0.39489165
vn 0.0120930895 0.8589004 -0.5009144
vn 0.051638544 0.98278344 -0.10141316
vn -0.052641034 0.7138288 -0.68881786
vn -0.6077925 0.77035385 0.14547563
vn -0.09535165 0.76087755 0.6244268
vn -0.78399384 0.2914335 -0.54793245
vn -0.010704435 0.9539068 0.25628477
vn 0.27720636 0.7924012 -0.5295361
vn 0.5185628 0.60200614 0.595173
vn 0.66005015 0.7225269 0.1539243
vn 0.5624928 0.8156577 -0.032552764
vn 0.97321016 0.20744994 -0.038829
vn 0.005701542 0.8688319 0.46991536
vn 0.5208125 0.5663531 0.62690294
vn 0.7872209 0.55928355 -0.21236418
vn 0.33486828 0.4237151 -0.82890046
vn -0.7221671 -0.631604 -0.28204772
vn -0.87827003 -0.44702086 -0.13522744
vn -0.8413519 0.12650837 -0.5249776
vn -0.9135281 -0.38906854 0.004654266
vn -0.84979147 -0.33922 0.37731427
vn -0.78893584 -0.5475635 0.23513544
vn -0.7393532 -0.36055705 0.54768443
vn -0.4359532 -0.8177645 0.34171054
vn -0.6308866 -0.48652717 0.58411366
vn -0.18814011 -0.8520911 0.46626142
vn -0.37692395 -0.76259464 0.5042639
vn -0.73567355 -0.509609 0.41834387
vn 0.14079042 -0.9499455 0.24443302
vn 0.2587532 -0.83485204 0.47306734
vn 0.17351191 -0.9520761 0.2271404
vn -0.48321816 -0.8639999 -0.004705578
vn -0.74521494 -0.4914792 0.4289825
vn -0.72525436 -0.45272487 0.50662297
vn -0.9026208 -0.04146935 0.41596794
vn -0.9004982 -0.09878494 0.41396064
vn -0.7678805 -0.4981316 0.3937912
vn -0.63150877 -0.3512851 0.6887714
vn -0.71379185 -0.21670678 0.66016173
vn -0.49256724 -0.18881948 0.8464501
vn -0.30863655 -0.15810074 0.9364741
vn -0.43586412 -0.22743715 0.8708011
vn -0.4717409 -0.21721576 0.8545628
vn -0.10030391 -0.30862617 0.9453665
vn -0.027761534 -0.08123243 0.9963083
vn 0.10778053 -0.22917941 0.96711254
vn 0.6362152 0.05904655 0.76924866
vn 0.27824044 -0.33778572 0.8989903
vn 0.5112707 -0.5277692 -0.6635955
vn 0.6358063 -0.56245685 -0.5133228
vn 0.2988451 -0.68924606 -0.6446752
vn 0.5058245 -0.6332555 -0.57545674
vn 0.5864248 -0.7628531 -0.24286515
vn 0.25185663 -0.89007497 -0.35282
vn 0.61304635 -0.7796759 0.060583316
vn 0.09783867 -0.97855544 -0.109580606
vn 0.17057338 -0.9728813 0.07472545
vn 0.45733428 -0.8134002 0.345636
vn 0.5842732 -0.715027 0.37502462
vn 0.5875139 -0.55141646 0.5900611
vn 0.8047988 -0.5185652 0.28097433
vn 0.904157 -0.34956437 0.23671412
vn 0.65696615 -0.27292302 0.7025355
vn 0.86354077 -0.0069206133 0.50202906
vn 0.908659 0.2321478 0.33571333
vn 0.87843025 -0.46967742 -0.01801844
vn 0.74312097 -0.65943146 -0.059202112
vn 0.9239676 -0.31209257 0.21500048
vn 0.97493917 -0.04215506 0.20339757
vn 0.9076756 0.32650334 0.24251883
vn 0.9747725 -0.07136049 0.19655776
vn 0.9946595 0.0010298095 -0.0140803605
vn 0.9227873 -0.23947167 -0.27817905
vn 0.53131765 -0.24312995 -0.7989312
vn 0.77762383 -0.37479398 -0.48420203
vn 0.81470364 0.40938908 -0.38704634
vn 0.70158553 0.18856385 -0.67009795
vn 0.6802956 0.45053482 -0.5577482
vn 0.73263294 -0.5717957 -0.3431363
vn 0.7318343 -0.6545511 -0.1452199
vn 0.76864785 -0.5140348 0.37676346
vn 0.9824734 -0.016801916 0.17336015
vn 0.7263386 -0.40801415 0.5527136
vn 0.92671204 0.064971305 0.36873904
vn 0.8563221 0.33622333 0.38851374
vn 0.8356524 -0.4743493 0.27200112
vn 0.65771234 0.13789058 0.73872966
vn 0.6646018 0.35617602 0.6524217
vn 0.8731705 -0.4255968 0.23247567
vn 0.73220825 -0.6114472 0.29725325
vn 0.9327728 -0.26952714 -0.21979712
vn 0.850785 -0.40216637 0.33716404
vn 0.6601563 -0.6203401 0.42245886
vn 0.49123636 -0.57802004 0.6508396
vn 0.5384909 -0.83488524 -0.06352429
vn 0.4284781 -0.65533924 0.62147284
vn 0.6362152 0.05904655 0.76924866
vn 0.65421283 -0.026718974 0.75583816
vn 0.9485526 -0.1578359 0.2743311
vn 0.98867756 -0.12277187 0.077725045
vn 0.78236556 -0.5456884 0.30021334
vn 0.95218295 -0.29766297 -0.059307847
vn 0.99006486 -0.066051975 0.11560249
vn 0.99765587 -0.030465763 -0.011854291
vn 0.87260675 0.3262794 0.36302453
vn 0.30904084 0.048197255 0.9498266
vn 0.981077 0.0068927575 -0.1819933
vn 0.948602 0.15626214 -0.25828975
vn 0.97321016 0.20744994 -0.038829
vn 0.6485764 0.48114625 -0.5760216
vn 0.5624928 0.8156577 -0.032552764
vn 0.5185628 0.60200614 0.595173
vn 0.66005015 0.7225269 0.1539243
vn -0.010704435 0.9539068 0.25628477
vn 0.005316563 -0.36824304 -0.9292841
vn 0.17079936 -0.092206724 -0.977928
vn 0.491755 -0.093008064 -0.8597949
vn -0.20256042 -0.43868238 -0.8732504
vn -0.03461942 0.06578121 -0.9948708
vn 0.65421283 -0.026718974 0.75583816
vn 0.6362152 0.05904655 0.76924866
vn -0.027761534 -0.08123243 0.9963083
vn 0.350315 0.06697713 0.93423396
vn 0.30904084 0.048197255 0.9498266
vn 0.78236556 -0.5456884 0.30021334
vn -0.09971631 -0.1766577 0.97920805
vn -0.52006024 -0.020102203 0.85389286
vn -0.30813557 -0.253203 0.917028
vn -0.10645405 0.51948875 0.84781986
vn -0.77008575 0.25427157 0.5826643
vn -0.20208797 0.8931866 0.4010899
vn 0.5025778 0.8198373 0.27295154
vn 0.87260675 0.3262794 0.36302453
vn -0.54097307 -0.04969299 0.8395704
vn -0.43586412 -0.22743715 0.8708011
vn -0.63150877 -0.3512851 0.6887714
vn -0.5710369 -0.28387606 0.76726794
vn 0.27824044 -0.33778572 0.8989903
vn 0.6362152 0.05904655 0.76924866
vn 0.4284781 -0.65533924 0.62147284
vn 0.3243838 -0.29999423 0.8968131
vn 0.00033728778 -0.31918913 0.9460814
vn 0.10778053 -0.22917941 0.96711254
vn -0.10030391 -0.30862617 0.9453665
vn 0.49123636 -0.57802004 0.6508396
vn 0.6601563 -0.6203401 0.42245886
vn -0.26175073 0.21133545 0.939422
vn -0.64268064 -0.51122373 0.5621942
vn -0.30863655 -0.15810074 0.9364741
vn -0.81746364 0.27835053 0.49622494
vn -0.49256724 -0.18881948 0.8464501
vn -0.71379185 -0.21670678 0.66016173
vn 0.74312097 -0.65943146 -0.059202112
vn 0.5842732 -0.715027 0.37502462
vn 0.61304635 -0.7796759 0.060583316
vn 0.5704674 -0.8038598 0.13381949
vn 0.4398157 -0.89052284 0.02173797
vn 0.5864248 -0.7628531 -0.24286515
vn 0.70288783 -0.5976878 -0.36813906
vn 0.714561 -0.3953095 -0.5661093
vn 0.5058245 -0.6332555 -0.57545674
vn 0.70158553 0.18856385 -0.67009795
vn 0.77762383 -0.37479398 -0.48420203
vn 0.21254098 -0.41942108 -0.8697605
vn 0.6802956 0.45053482 -0.5577482
vn 0.33486828 0.4237151 -0.82890046
vn 0.7858793 -0.09521431 -0.5916993
vn 0.7872209 0.55928355 -0.21236418
vn 0.46206835 0.5790032 -0.65456176
vn 0.27199855 0.89133215 -0.32889098
vn 0.24797419 0.8409459 -0.45820707
vn 0.73263294 -0.5717957 -0.3431363
vn 0.21254098 -0.41942108 -0.8697605
vn 0.77762383 -0.37479398 -0.48420203
vn 0.29890668 -0.7871597 -0.5165318
vn 0.7318343 -0.6545511 -0.1452199
vn 0.16970627 -0.9679163 -0.11022982
vn 0.76864785 -0.5140348 0.37676346
vn 0.4031871 -0.7789717 0.47063732
vn 0.85818595 -0.4973688 0.0900634
vn 0.7263386 -0.40801415 0.5527136
vn 0.2633471 -0.39161944 0.8784739
vn 0.65771234 0.13789058 0.73872966
vn 0.6646018 0.35617602 0.6524217
vn 0.2633471 -0.39161944 0.8784739
vn 0.65771234 0.13789058 0.73872966
vn 0.5208125 0.5663531 0.62690294
vn 0.71040606 -0.19934806 0.67482257
vn 0.005701542 0.8688319 0.46991536
vn 0.5185628 0.60200614 0.595173
vn 0.2633471 -0.39161944 0.8784739
vn 0.71040606 -0.19934806 0.67482257
vn 0.4031871 -0.7789717 0.47063732
vn 0.85818595 -0.4973688 0.0900634
vn 0.9548622 0.18563627 0.21097544
vn 0.5208125 0.5663531 0.62690294
vn 0.7872209 0.55928355 -0.21236418
vn 0.7858793 -0.09521431 -0.5916993
vn 0.29890668 -0.7871597 -0.5165318
vn 0.21254098 -0.41942108 -0.8697605
vn 0.16970627 -0.9679163 -0.11022982
vn -0.13841487 0.13749199 0.97227395
vn -0.79483354 -0.26347923 0.5254671
vn -0.75371754 0.3237604 0.55314374
vn -0.9660639 -0.16991925 -0.16793217
vn -0.5803367 -0.7936218 0.096578896
vn -0.6077925 0.77035385 0.14547563
vn -0.78399384 0.2914335 -0.54793245
vn -0.88919425 -0.35316744 -0.27083838
vn -0.7879328 -0.59931123 0.0164228
vn -0.87095815 -0.4732359 -0.015553743
vn -0.9660639 -0.16991925 -0.16793217
vn -0.5803367 -0.7936218 0.096578896
vn -0.58666486 -0.74431187 0.27790156
vn -0.5162417 -0.7473291 0.38773298
vn -0.22524491 -0.62824506 0.73221105
vn -0.79483354 -0.26347923 0.5254671
vn -0.4289587 -0.7157694 0.5297507
vn -0.50294393 -0.41327906 0.7472007
vn -0.6077925 0.77035385 0.14547563
vn -0.09535165 0.76087755 0.6244268
vn -0.75371754 0.3237604 0.55314374
vn -0.13841487 0.13749199 0.97227395
vn -0.6692705 0.26510268 0.68375695
vn -0.19792466 0.8036588 0.54383963
vn -0.10166079 0.878741 0.4435867
vn 0.5968962 0.788509 0.048792586
vn -0.43585834 -0.28938317 0.8427966
vn -0.46063638 -0.33530772 0.81188726
vn -0.22524491 -0.62824506 0.73221105
vn -0.50294393 -0.41327906 0.7472007
vn -0.79483354 -0.26347923 0.5254671
vn 0.50732344 -0.8464983 0.11597191
vn 0.25438774 -0.6652871 0.69569194
vn 0.6751216 -0.10911155 0.72895265
vn 0.88682973 -0.45169482 -0.012203041
vn 0.8744366 0.30024284 0.36997736
vn 0.6969392 0.22854432 0.6756312
vn 0.8674603 0.4744292 -0.0705525
vn 0.6253693 0.07202014 -0.7628144
vn 0.8674603 0.4744292 -0.0705525
vn 0.9946595 0.0010298095 -0.0140803605
vn 0.6253693 0.07202014 -0.7628144
vn 0.9076756 0.32650334 0.24251883
vn 0.62398523 0.53273654 0.56011975
vn 0.908659 0.2321478 0.33571333
vn 0.62398523 0.53273654 0.56011975
vn 0.86354077 -0.0069206133 0.50202906
vn 0.908659 0.2321478 0.33571333
vn 0.6969392 0.22854432 0.6756312
vn 0.6751216 -0.10911155 0.72895265
vn 0.25438774 -0.6652871 0.69569194
vn 0.65696615 -0.27292302 0.7025355
vn 0.5875139 -0.55141646 0.5900611
vn 0.45733428 -0.8134002 0.345636
vn 0.25185663 -0.89007497 -0.35282
vn 0.09783867 -0.97855544 -0.109580606
vn -0.18695289 -0.93330634 -0.26837677
vn 0.17057338 -0.9728813 0.07472545
vn 0.45733428 -0.8134002 0.345636
vn 0.25438774 -0.6652871 0.69569194
vn 0.50732344 -0.8464983 0.11597191
vn 0.88682973 -0.45169482 -0.012203041
vn 0.20710276 -0.70887375 -0.6580665
vn 0.25185663 -0.89007497 -0.35282
vn -0.18695289 -0.93330634 -0.26837677
vn 0.20710276 -0.70887375 -0.6580665
vn 0.2988451 -0.68924606 -0.6446752
vn 0.5112707 -0.5277692 -0.6635955
vn 0.6253693 0.07202014 -0.7628144
vn 0.88682973 -0.45169482 -0.012203041
vn 0.53131765 -0.24312995 -0.7989312
vn 0.9946595 0.0010298095 -0.0140803605
vn 0.6358063 -0.56245685 -0.5133228
vn 0.59558547 -0.28356156 -0.7415422
vn 0.3900293 -0.2848737 -0.87344676
vn 0.9227873 -0.23947167 -0.27817905
vn 0.5058245 -0.6332555 -0.57545674
vn 0.714561 -0.3953095 -0.5661093
vn 0.81470364 0.40938908 -0.38704634
vn 0.5623225 -0.25095028 -0.78048164
vn 0.47376457 0.20228261 -0.84858704
vn 0.44602898 0.7884629 -0.3988596
vn 0.29998168 0.5830055 -0.74502933
vn 0.032315888 0.5502911 -0.8300917
vn 0.17666148 0.15218902 -0.970326
vn -0.25891936 0.46074933 -0.8467369
vn -0.14177859 0.07497701 -0.98664665
vn 0.005316563 -0.36824304 -0.9292841
vn 0.491755 -0.093008064 -0.8597949
vn 0.73461443 0.004732497 -0.66874534
vn 0.17079936 -0.092206724 -0.977928
vn 0.3038596 0.37504703 -0.87133217
vn -0.20256042 -0.43868238 -0.8732504
vn 0.15602058 -0.4123754 -0.89009094
vn -0.23469633 0.59809184 -0.7638889
vn 0.81550825 -0.49045545 -0.28698373
vn 0.4398157 -0.89052284 0.02173797
vn -0.67979723 0.10363114 -0.7256696
vn -0.7558406 -0.5318307 -0.3684494
vn -0.21283048 -0.7978944 -0.5499204
vn -0.5048201 -0.05350779 -0.859802
vn -0.58376914 0.33830664 -0.73773706
vn -0.03461942 0.06578121 -0.9948708
vn -0.523543 0.31875086 -0.7891205
vn -0.92218983 -0.06342728 -0.37574008
vn -0.8413519 0.12650837 -0.5249776
vn -0.7221671 -0.631604 -0.28204772
vn -0.731592 0.53144544 -0.42383683
vn -0.3963346 0.81442887 -0.4238212
vn -0.6974808 0.12921105 -0.7044369
vn -0.30858096 0.36458486 -0.8756326
vn -0.19039649 0.36016506 -0.9094713
vn -0.6934627 0.024911702 -0.71893406
vn 0.2229671 0.12003781 -0.9595249
vn 0.1471135 0.10621801 -0.97548425
vn -0.33419228 0.80353916 -0.48198897
vn 0.34516856 0.6377097 -0.67362463
vn 0.6711377 -0.27091345 -0.67514044
vn 0.4940809 0.2510941 -0.8206099
vn 0.790596 0.47365227 -0.35922873
vn 0.74312097 -0.65943146 -0.059202112
vn 0.5384909 -0.83488524 -0.06352429
vn 0.9327728 -0.26952714 -0.21979712
vn 0.87843025 -0.46967742 -0.01801844
vn 0.9239676 -0.31209257 0.21500048
vn -0.74521494 -0.4914792 0.4289825
vn -0.686419 -0.6822512 -0.22417518
vn -0.48321816 -0.8639999 -0.004705578
vn 0.17351191 -0.9520761 0.2271404
vn -0.74521494 -0.4914792 0.4289825
vn -0.64268064 -0.51122373 0.5621942
vn -0.686419 -0.6822512 -0.22417518
vn -0.81746364 0.27835053 0.49622494
vn -0.9026208 -0.04146935 0.41596794
vn -0.9004982 -0.09878494 0.41396064
vn -0.71379185 -0.21670678 0.66016173
vn 0.49123636 -0.57802004 0.6508396
vn 0.5384909 -0.83488524 -0.06352429
vn 0.17351191 -0.9520761 0.2271404
vn -0.072202176 -0.915397 0.38777763
vn 0.00033728778 -0.31918913 0.9460814
vn -0.686419 -0.6822512 -0.22417518
vn -0.64268064 -0.51122373 0.5621942
vn -0.5710369 -0.28387606 0.76726794
vn -0.8205198 -0.3574595 0.44043925
vn -0.87450874 -0.3959439 0.2689178
vn -0.77008575 0.25427157 0.5826643
vn -0.7055043 0.7037045 -0.06802085
vn -0.20208797 0.8931866 0.4010899
vn -0.77008575 0.25427157 0.5826643
vn -0.79991096 0.022841766 -0.59905374
vn -0.4689391 0.5727976 -0.6712408
vn -0.87450874 -0.3959439 0.2689178
vn -0.9119765 -0.38124734 0.12238146
vn -0.97689474 -0.17767857 -0.08900139
vn -0.6692705 0.26510268 0.68375695
vn -0.19792466 0.8036588 0.54383963
vn -0.8257512 0.38162637 -0.41427526
vn -0.43585834 -0.28938317 0.8427966
vn -0.46063638 -0.33530772 0.81188726
vn -0.7678805 -0.4981316 0.3937912
vn -0.8205198 -0.3574595 0.44043925
vn -0.5710369 -0.28387606 0.76726794
vn -0.63150877 -0.3512851 0.6887714
vn -0.72525436 -0.45272487 0.50662297
vn -0.50294393 -0.41327906 0.7472007
vn -0.73567355 -0.509609 0.41834387
vn -0.4289587 -0.7157694 0.5297507
vn -0.5162417 -0.7473291 0.38773298
vn -0.78893584 -0.5475635 0.23513544
vn -0.58666486 -0.74431187 0.27790156
vn -0.7879328 -0.59931123 0.0164228
vn -0.7221671 -0.631604 -0.28204772
vn -0.87095815 -0.4732359 -0.015553743
vn -0.92218983 -0.06342728 -0.37574008
vn -0.88919425 -0.35316744 -0.27083838
vn -0.8945012 0.12648785 -0.42654592
vn -0.70670545 0.29837272 -0.6414509
vn -0.731592 0.53144544 -0.42383683
vn -0.5208211 0.46657503 -0.7131752
vn -0.28437573 0.65449417 -0.69467705
vn 0.5025778 0.8198373 0.27295154
vn 0.981077 0.0068927575 -0.1819933
vn 0.87260675 0.3262794 0.36302453
vn 0.948602 0.15626214 -0.25828975
vn 0.6485764 0.48114625 -0.5760216
vn 0.030232344 0.7430094 -0.6624365
vn -0.101702325 0.96520776 -0.23080559
vn -0.4689391 0.5727976 -0.6712408
vn -0.7055043 0.7037045 -0.06802085
vn -0.20208797 0.8931866 0.4010899
vn -0.10645405 0.51948875 0.84781986
vn 0.5624928 0.8156577 -0.032552764
vn 0.6485764 0.48114625 -0.5760216
vn 0.030232344 0.7430094 -0.6624365
vn 0.27720636 0.7924012 -0.5295361
vn 0.0120930895 0.8589004 -0.5009144
vn -0.3104295 0.86047107 -0.39489165
vn -0.4689391 0.5727976 -0.6712408
vn -0.44929308 0.8242908 -0.33776304
vn -0.8257512 0.38162637 -0.41427526
vn -0.79991096 0.022841766 -0.59905374
vn -0.97689474 -0.17767857 -0.08900139
vn 0.86162215 0.48959392 -0.010199323
vn 0.5376579 0.79978245 0.22272772
vn 0.6332714 0.508624 0.57235974
vn 0.94569844 -0.1339415 0.28954214
vn 0.9524956 0.23124132 -0.15186903
vn 0.790596 0.47365227 -0.35922873
vn 0.9222947 -0.33337408 -0.16098279
vn 0.8647437 0.3059645 -0.37285438
vn 0.6711377 -0.27091345 -0.67514044
vn 0.4940809 0.2510941 -0.8206099
vn -0.058404576 0.7656835 0.62145656
vn 0.6332714 0.508624 0.57235974
vn 0.5376579 0.79978245 0.22272772
vn 0.14216162 0.8934413 0.39657798
vn -0.35140225 0.9034386 0.19759749
vn -0.33419228 0.80353916 -0.48198897
vn 0.34516856 0.6377097 -0.67362463
vn 0.790596 0.47365227 -0.35922873
vn 0.16059363 0.9747074 -0.024019152
vn -0.5928279 0.79183245 0.076579496
vn 0.6332714 0.508624 0.57235974
vn -0.058404576 0.7656835 0.62145656
vn -0.6974808 0.12921105 -0.7044369
vn -0.30858096 0.36458486 -0.8756326
vn -0.6934627 0.024911702 -0.71893406
vn -0.8003269 0.4587642 -0.38287088
vn -0.9779277 0.018576391 -0.19084407
vn -0.7404409 0.6609762 -0.06720711
vn -0.33419228 0.80353916 -0.48198897
vn -0.6864253 0.71187663 0.08668357
vn -0.5928279 0.79183245 0.076579496
vn -0.81039584 0.38481873 0.41868624
vn -0.49746844 0.8380497 0.17641643
vn -0.058404576 0.7656835 0.62145656
vn -0.35140225 0.9034386 0.19759749
vn -0.7558406 -0.5318307 -0.3684494
vn -0.67979723 0.10363114 -0.7256696
vn -0.9682552 0.21239781 -0.11482616
vn -0.537207 -0.78935784 0.2585442
vn -0.7740006 -0.20136261 0.58144766
vn -0.9135281 -0.38906854 0.004654266
vn -0.7393532 -0.36055705 0.54768443
vn -0.84979147 -0.33922 0.37731427
vn -0.87827003 -0.44702086 -0.13522744
vn -0.8413519 0.12650837 -0.5249776
vn 0.3038596 0.37504703 -0.87133217
vn 0.17079936 -0.092206724 -0.977928
vn -0.03461942 0.06578121 -0.9948708
vn -0.23469633 0.59809184 -0.7638889
vn -0.58376914 0.33830664 -0.73773706
vn -0.67979723 0.10363114 -0.7256696
vn -0.9682552 0.21239781 -0.11482616
vn -0.8413519 0.12650837 -0.5249776
vn -0.7393532 -0.36055705 0.54768443
vn -0.6308866 -0.48652717 0.58411366
vn -0.18814011 -0.8520911 0.46626142
vn -0.7740006 -0.20136261 0.58144766
vn 0.06747676 -0.73970616 0.65939254
vn 0.4398157 -0.89052284 0.02173797
vn -0.537207 -0.78935784 0.2585442
vn -0.21283048 -0.7978944 -0.5499204
vn -0.7558406 -0.5318307 -0.3684494
vn 0.15602058 -0.4123754 -0.89009094
vn 0.81550825 -0.49045545 -0.28698373
vn 0.4398157 -0.89052284 0.02173797
vn 0.5704674 -0.8038598 0.13381949
vn 0.70288783 -0.5976878 -0.36813906
vn 0.73461443 0.004732497 -0.66874534
vn 0.714561 -0.3953095 -0.5661093
vn 0.5623225 -0.25095028 -0.78048164
vn 0.2587532 -0.83485204 0.47306734
vn 0.4398157 -0.89052284 0.02173797
vn 0.06747676 -0.73970616 0.65939254
vn -0.18814011 -0.8520911 0.46626142
vn -0.52006024 -0.020102203 0.85389286
vn -0.43586412 -0.22743715 0.8708011
vn -0.54097307 -0.04969299 0.8395704
vn -0.4717409 -0.21721576 0.8545628
vn -0.09971631 -0.1766577 0.97920805
vn -0.027761534 -0.08123243 0.9963083
vn -0.88919425 -0.35316744 -0.27083838
vn -0.8945012 0.12648785 -0.42654592
vn -0.9660639 -0.16991925 -0.16793217
vn -0.31903952 0.12465605 -0.9358176
vn -0.78399384 0.2914335 -0.54793245
vn -0.70670545 0.29837272 -0.6414509
vn -0.052641034 0.7138288 -0.68881786
vn -0.5208211 0.46657503 -0.7131752
vn -0.28437573 0.65449417 -0.69467705
vn -0.14375776 0.6852007 -0.7060579
vn 0.40141118 0.5731454 -0.6991155
vn -0.18888476 0.8328483 -0.5074923
vn -0.54097307 -0.04969299 0.8395704
vn -0.30813557 -0.253203 0.917028
vn -0.52006024 -0.020102203 0.85389286
vn -0.5710369 -0.28387606 0.76726794
vn -0.77008575 0.25427157 0.5826643
vn 0.66840464 0.14947957 0.70312655
vn -0.58148885 -0.06609075 0.8108653
vn 0.3526448 0.62682235 0.6947914
vn 0.08374524 -0.87914336 0.34847072
vn 0.81971085 -0.5199571 -0.24024788
vn 0.8366674 0.4079813 0.36543012
vn 0.08374524 -0.87914336 0.34847072
vn -0.942917 0.19575858 -0.269418
vn -0.58148885 -0.06609075 0.8108653
vn -0.6620652 -0.38698444 -0.61502475
vn 0.18227747 -0.00050094724 -0.9832468
vn 0.81971085 -0.5199571 -0.24024788
vn -0.58148885 -0.06609075 0.8108653
vn -0.942917 0.19575858 -0.269418
vn -0.013618529 0.91315997 -0.3966794
vn 0.3526448 0.62682235 0.6947914
vn -0.6620652 -0.38698444 -0.61502475
vn -0.013618529 0.91315997 -0.3966794
vn -0.942917 0.19575858 -0.269418
vn -0.13224447 0.9342381 -0.25596774
vn 0.17770128 0.9145957 -0.36323148
vn 0.18227747 -0.00050094724 -0.9832468
vn -0.13224447 0.9342381 -0.25596774
vn 0.66840464 0.14947957 0.70312655
vn 0.3526448 0.62682235 0.6947914
vn -0.013618529 0.91315997 -0.3966794
vn -0.13224447 0.9342381 -0.25596774
vn 0.17770128 0.9145957 -0.36323148
vn 0.8366674 0.4079813 0.36543012
vn 0.66840464 0.14947957 0.70312655
vn 0.8366674 0.4079813 0.36543012
vn 0.17770128 0.9145957 -0.36323148
vn 0.18227747 -0.00050094724 -0.9832468
vn 0.81971085 -0.5199571 -0.24024788
vn 0.80768865 0.42226058 0.4034825
vn 0.043596327 -0.7806592 0.6234341
vn 0.3202824 0.30592257 0.8965658
vn 0.6122985 -0.77937967 -0.12980843
vn 0.5661216 0.035843734 -0.82354206
vn 0.74397486 0.6643437 0.071756124
vn 0.6122985 -0.77937967 -0.12980843
vn -0.891927 -0.45185298 0.017183155
vn 0.043596327 -0.7806592 0.6234341
vn -0.63487214 -0.47972634 -0.5980396
vn -0.50061435 0.33523017 -0.79812646
vn 0.5661216 0.035843734 -0.82354206
vn 0.043596327 -0.7806592 0.6234341
vn -0.891927 -0.45185298 0.017183155
vn -0.6474296 0.6875129 0.32249323
vn 0.3202824 0.30592257 0.8965658
vn -0.63487214 -0.47972634 -0.5980396
vn -0.6474296 0.6875129 0.32249323
vn -0.891927 -0.45185298 0.017183155
vn -0.5097331 0.7394707 0.3992532
vn -0.32605547 0.93877256 0.11132862
vn -0.50061435 0.33523017 -0.79812646
vn -0.5097331 0.7394707 0.3992532
vn 0.80768865 0.42226058 0.4034825
vn 0.3202824 0.30592257 0.8965658
vn -0.6474296 0.6875129 0.32249323
vn -0.5097331 0.7394707 0.3992532
vn -0.32605547 0.93877256 0.11132862
vn 0.74397486 0.6643437 0.071756124
vn 0.80768865 0.42226058 0.4034825
vn 0.74397486 0.6643437 0.071756124
vn -0.32605547 0.93877256 0.11132862
vn -0.50061435 0.33523017 -0.79812646
vn 0.5661216 0.035843734 -0.82354206
vn 0.039268326 -0.8286954 -0.50360376
vn -0.08324933 0.43110147 0.89845455
vn 0.68569165 -0.3740703 0.62441814
vn -0.86198306 -0.24027064 0.40883914
vn -0.94738245 0.020037135 -0.3194758
vn -0.10049994 -0.34887093 -0.9317663
vn -0.86198306 -0.24027064 0.40883914
vn 0.051978465 0.9889547 -0.10389303
vn -0.08324933 0.43110147 0.89845455
vn -0.2878679 0.8369311 0.4190574
vn -0.3582554 0.9295398 -0.087231874
vn -0.94738245 0.020037135 -0.3194758
vn -0.08324933 0.43110147 0.89845455
vn 0.051978465 0.9889547 -0.10389303
vn 0.9005818 0.17453097 -0.39419252
vn 0.68569165 -0.3740703 0.62441814
vn -0.2878679 0.8369311 0.4190574
vn 0.8185953 0.40066633 -0.41154388
vn 0.9005818 0.17453097 -0.39419252
vn 0.051978465 0.9889547 -0.10389303
vn 0.8185953 0.40066633 -0.41154388
vn 0.68569165 -0.3740703 0.62441814
vn 0.9005818 0.17453097 -0.39419252
vn 0.039268326 -0.8286954 -0.50360376
vn -0.10049994 -0.34887093 -0.9317663
vn 0.4954376 0.5461277 -0.67548966
vn -0.10049994 -0.34887093 -0.9317663
vn 0.4954376 0.5461277 -0.67548966
vn -0.3582554 0.9295398 -0.087231874
vn -0.94738245 0.020037135 -0.3194758
vn -0.2878679 0.8369311 0.4190574
vn -0.3582554 0.9295398 -0.087231874
vn 0.4954376 0.5461277 -0.67548966
vn 0.8185953 0.40066633 -0.41154388
vn -0.5759779 -0.6533493 -0.47383508
vn -0.16101938 0.22837576 0.9601653
vn -0.12664223 -0.8561648 0.5009425
vn -0.76861155 0.30822515 0.5301552
vn -0.842927 0.53800404 0.005055028
vn -0.5558595 -0.14593387 -0.8183664
vn -0.76861155 0.30822515 0.5301552
vn 0.7857811 0.5219751 0.32643783
vn -0.16101938 0.22837576 0.9601653
vn 0.3785055 0.81057274 0.4245955
vn 0.17040715 0.9846261 -0.03837964
vn -0.842927 0.53800404 0.005055028
vn -0.16101938 0.22837576 0.9601653
vn 0.7857811 0.5219751 0.32643783
vn 0.8174257 -0.5583285 -0.1388371
vn -0.12664223 -0.8561648 0.5009425
vn 0.3785055 0.81057274 0.4245955
vn 0.7475695 -0.04952538 -0.6623345
vn 0.8174257 -0.5583285 -0.1388371
vn 0.7857811 0.5219751 0.32643783
vn 0.7475695 -0.04952538 -0.6623345
vn -0.12664223 -0.8561648 0.5009425
vn 0.8174257 -0.5583285 -0.1388371
vn -0.5759779 -0.6533493 -0.47383508
vn -0.5558595 -0.14593387 -0.8183664
vn 0.4629626 0.28227875 -0.84022886
vn -0.5558595 -0.14593387 -0.8183664
vn 0.4629626 0.28227875 -0.84022886
vn 0.17040715 0.9846261 -0.03837964
vn -0.842927 0.53800404 0.005055028
vn 0.3785055 0.81057274 0.4245955
vn 0.17040715 0.9846261 -0.03837964
vn 0.4629626 0.28227875 -0.84022886
vn 0.7475695 -0.04952538 -0.6623345
g 0.0667_0
f 3/3/3 2/2/2 1/1/1
f 6/6/6 5/5/5 4/4/4
f 9/9/9 8/8/8 7/7/7
f 12/12/12 11/11/11 10/10/10
f 15/15/15 14/14/14 13/13/13
f 18/18/18 17/17/17 16/16/16
f 21/21/21 20/20/20 19/19/19
f 24/24/24 23/23/23 22/22/22
f 27/27/27 26/26/26 25/25/25
f 30/30/30 29/29/29 28/28/28
f 28/28/28 31/31/31 30/30/30
f 28/28/28 32/32/32 31/31/31
f 31/31/31 32/32/32 33/33/33
f 31/31/31 33/33/33 34/34/34
f 35/35/35 31/31/31 34/34/34
f 31/31/31 35/35/35 36/36/36
f 37/37/37 31/31/31 36/36/36
f 36/36/36 35/35/35 38/38/38
f 35/35/35 39/39/39 38/38/38
f 39/39/39 35/35/35 34/34/34
f 40/40/40 39/39/39 34/34/34
f 41/41/41 39/39/39 40/40/40
f 42/42/42 41/41/41 40/40/40
f 43/43/43 39/39/39 41/41/41
f 42/42/42 44/44/44 41/41/41
f 45/45/45 44/44/44 42/42/42
f 45/45/45 46/46/46 44/44/44
f 47/47/47 45/45/45 42/42/42
f 45/45/45 47/47/47 48/48/48
f 45/45/45 48/48/48 49/49/49
f 50/50/50 45/45/45 49/49/49
f 50/50/50 49/49/49 51/51/51
f 52/52/52 50/50/50 51/51/51
f 53/53/53 52/52/52 51/51/51
f 44/44/44 54/54/54 41/41/41
f 54/54/54 43/43/43 41/41/41
f 46/46/46 54/54/54 44/44/44
f 43/43/43 54/54/54 46/46/46
f 55/55/55 52/52/52 53/53/53
f 56/56/56 55/55/55 53/53/53
f 57/57/57 55/55/55 56/56/56
f 52/52/52 55/55/55 58/58/58
f 58/58/58 59/59/59 52/52/52
f 59/59/59 60/60/60 52/52/52
f 61/61/61 52/52/52 60/60/60
f 50/50/50 52/52/52 61/61/61
f 62/62/62 50/50/50 61/61/61
f 61/61/61 63/63/63 62/62/62
f 50/50/50 62/62/62 64/64/64
f 63/63/63 65/65/65 62/62/62
f 62/62/62 65/65/65 64/64/64
f 66/66/66 50/50/50 64/64/64
f 67/67/67 66/66/66 64/64/64
f 68/68/68 66/66/66 67/67/67
f 50/50/50 66/66/66 45/45/45
f 66/66/66 68/68/68 69/69/69
f 68/68/68 70/70/70 69/69/69
f 66/66/66 69/69/69 71/71/71
f 66/66/66 71/71/71 45/45/45
f 45/45/45 71/71/71 72/72/72
f 46/46/46 45/45/45 72/72/72
f 65/65/65 63/63/63 73/73/73
f 63/63/63 74/74/74 73/73/73
f 65/65/65 73/73/73 75/75/75
f 74/74/74 75/75/75 73/73/73
f 76/76/76 65/65/65 75/75/75
f 77/77/77 75/75/75 74/74/74
f 72/72/72 78/78/78 46/46/46
f 72/72/72 79/79/79 78/78/78
f 46/46/46 78/78/78 80/80/80
f 79/79/79 81/81/81 78/78/78
f 82/82/82 81/81/81 79/79/79
f 83/83/83 81/81/81 82/82/82
f 84/84/84 46/46/46 80/80/80
f 84/84/84 43/43/43 46/46/46
f 43/43/43 84/84/84 85/85/85
f 85/85/85 86/86/86 43/43/43
f 87/87/87 43/43/43 86/86/86
f 90/90/90 89/89/89 88/88/88
f 89/89/89 91/91/91 88/88/88
f 88/88/88 91/91/91 92/92/92
f 93/93/93 88/88/88 92/92/92
f 93/93/93 92/92/92 94/94/94
f 95/95/95 93/93/93 94/94/94
f 94/94/94 96/96/96 95/95/95
f 96/96/96 97/97/97 95/95/95
f 95/95/95 98/98/98 93/93/93
f 98/98/98 99/99/99 93/93/93
f 95/95/95 97/97/97 100/100/100
f 97/97/97 101/101/101 100/100/100
f 102/102/102 98/98/98 95/95/95
f 100/100/100 102/102/102 95/95/95
f 99/99/99 98/98/98 103/103/103
f 98/98/98 102/102/102 103/103/103
f 104/104/104 99/99/99 103/103/103
f 105/105/105 99/99/99 104/104/104
f 106/106/106 105/105/105 104/104/104
f 105/105/105 106/106/106 107/107/107
f 107/107/107 108/108/108 105/105/105
f 109/109/109 108/108/108 107/107/107
f 110/110/110 109/109/109 107/107/107
f 111/111/111 109/109/109 110/110/110
f 109/109/109 111/111/111 112/112/112
f 113/113/113 109/109/109 112/112/112
f 114/114/114 113/113/113 112/112/112
f 115/115/115 114/114/114 112/112/112
f 116/116/116 114/114/114 115/115/115
f 117/117/117 116/116/116 115/115/115
f 118/118/118 116/116/116 117/117/117
f 119/119/119 118/118/118 117/117/117
f 122/122/122 121/121/121 120/120/120
f 123/123/123 121/121/121 122/122/122
f 124/124/124 123/123/123 122/122/122
f 124/124/124 122/122/122 125/125/125
f 126/126/126 124/124/124 125/125/125
f 127/127/127 126/126/126 125/125/125
f 128/128/128 126/126/126 127/127/127
f 126/126/126 128/128/128 129/129/129
f 130/130/130 126/126/126 129/129/129
f 129/129/129 131/131/131 130/130/130
f 131/131/131 132/132/132 130/130/130
f 133/133/133 132/132/132 131/131/131
f 134/134/134 133/133/133 131/131/131
f 133/133/133 134/134/134 135/135/135
f 133/133/133 135/135/135 136/136/136
f 130/130/130 132/132/132 137/137/137
f 138/138/138 130/130/130 137/137/137
f 137/137/137 132/132/132 139/139/139
f 132/132/132 133/133/133 139/139/139
f 140/140/140 133/133/133 136/136/136
f 140/140/140 136/136/136 141/141/141
f 142/142/142 140/140/140 141/141/141
f 143/143/143 142/142/142 141/141/141
f 144/144/144 142/142/142 143/143/143
f 145/145/145 144/144/144 143/143/143
f 142/142/142 144/144/144 146/146/146
f 146/146/146 144/144/144 147/147/147
f 147/147/147 148/148/148 146/146/146
f 147/147/147 149/149/149 148/148/148
f 150/150/150 142/142/142 146/146/146
f 142/142/142 150/150/150 151/151/151
f 142/142/142 151/151/151 152/152/152
f 140/140/140 142/142/142 152/152/152
f 153/153/153 140/140/140 152/152/152
f 140/140/140 153/153/153 133/133/133
f 154/154/154 153/153/153 152/152/152
f 155/155/155 153/153/153 154/154/154
f 154/154/154 156/156/156 155/155/155
f 153/153/153 155/155/155 157/157/157
f 153/153/153 157/157/157 133/133/133
f 154/154/154 158/158/158 156/156/156
f 133/133/133 157/157/157 139/139/139
f 158/158/158 159/159/159 156/156/156
f 157/157/157 160/160/160 139/139/139
f 139/139/139 160/160/160 161/161/161
f 160/160/160 157/157/157 161/161/161
f 162/162/162 139/139/139 161/161/161
f 157/157/157 163/163/163 161/161/161
f 155/155/155 163/163/163 157/157/157
f 162/162/162 161/161/161 164/164/164
f 161/161/161 163/163/163 164/164/164
f 165/165/165 162/162/162 164/164/164
f 166/166/166 162/162/162 165/165/165
f 163/163/163 167/167/167 164/164/164
f 167/167/167 163/163/163 155/155/155
f 168/168/168 167/167/167 155/155/155
f 168/168/168 155/155/155 169/169/169
f 155/155/155 170/170/170 169/169/169
f 155/155/155 171/171/171 170/170/170
f 172/172/172 170/170/170 171/171/171
f 155/155/155 156/156/156 171/171/171
f 172/172/172 171/171/171 173/173/173
f 156/156/156 174/174/174 171/171/171
f 173/173/173 171/171/171 174/174/174
f 175/175/175 174/174/174 156/156/156
f 173/173/173 174/174/174 175/175/175
f 159/159/159 175/175/175 156/156/156
f 173/173/173 176/176/176 172/172/172
f 172/172/172 176/176/176 177/177/177
f 178/178/178 176/176/176 173/173/173
f 178/178/178 173/173/173 175/175/175
f 179/179/179 178/178/178 175/175/175
f 180/180/180 175/175/175 159/159/159
f 180/180/180 179/179/179 175/175/175
f 181/181/181 179/179/179 180/180/180
f 182/182/182 181/181/181 180/180/180
f 183/183/183 180/180/180 159/159/159
f 184/184/184 180/180/180 183/183/183
f 183/183/183 185/185/185 184/184/184
f 188/188/188 187/187/187 186/186/186
f 186/186/186 187/187/187 189/189/189
f 187/187/187 190/190/190 189/189/189
f 193/193/193 192/192/192 191/191/191
f 191/191/191 194/194/194 193/193/193
f 191/191/191 195/195/195 194/194/194
f 196/196/196 195/195/195 191/191/191
f 194/194/194 197/197/197 193/193/193
f 195/195/195 197/197/197 194/194/194
f 198/198/198 197/197/197 195/195/195
f 199/199/199 198/198/198 195/195/195
f 199/199/199 195/195/195 200/200/200
f 199/199/199 200/200/200 201/201/201
f 202/202/202 201/201/201 200/200/200
f 203/203/203 200/200/200 195/195/195
f 195/195/195 204/204/204 203/203/203
f 207/207/207 206/206/206 205/205/205
f 208/208/208 207/207/207 205/205/205
f 211/211/211 210/210/210 209/209/209
f 212/212/212 211/211/211 209/209/209
f 209/209/209 213/213/213 212/212/212
f 214/214/214 213/213/213 209/209/209
f 214/214/214 215/215/215 213/213/213
f 213/213/213 216/216/216 212/212/212
f 216/216/216 217/217/217 212/212/212
f 215/215/215 218/218/218 213/213/213
f 219/219/219 213/213/213 218/218/218
f 218/218/218 215/215/215 220/220/220
f 219/219/219 218/218/218 221/221/221
f 218/218/218 220/220/220 222/222/222
f 222/222/222 221/221/221 218/218/218
f 222/222/222 223/223/223 221/221/221
f 225/225/225 224/224/224 102/102/102
f 102/102/102 226/226/226 225/225/225
f 102/102/102 100/100/100 226/226/226
f 226/226/226 100/100/100 227/227/227
f 100/100/100 101/101/101 227/227/227
f 228/228/228 227/227/227 101/101/101
f 229/229/229 226/226/226 227/227/227
f 229/229/229 227/227/227 230/230/230
f 229/229/229 230/230/230 231/231/231
f 232/232/232 229/229/229 231/231/231
f 235/235/235 234/234/234 233/233/233
f 236/236/236 235/235/235 233/233/233
f 235/235/235 236/236/236 237/237/237
f 237/237/237 238/238/238 235/235/235
f 237/237/237 239/239/239 238/238/238
f 236/236/236 240/240/240 237/237/237
f 241/241/241 237/237/237 240/240/240
f 242/242/242 241/241/241 240/240/240
f 245/245/245 244/244/244 243/243/243
f 244/244/244 246/246/246 243/243/243
f 243/243/243 246/246/246 247/247/247
f 246/246/246 248/248/248 247/247/247
f 248/248/248 249/249/249 247/247/247
f 248/248/248 250/250/250 249/249/249
f 250/250/250 248/248/248 251/251/251
f 249/249/249 250/250/250 252/252/252
f 250/250/250 253/253/253 252/252/252
f 252/252/252 253/253/253 254/254/254
f 257/257/257 256/256/256 255/255/255
f 256/256/256 258/258/258 255/255/255
f 259/259/259 258/258/258 256/256/256
f 258/258/258 260/260/260 255/255/255
f 260/260/260 261/261/261 255/255/255
f 264/264/264 263/263/263 262/262/262
f 263/263/263 264/264/264 265/265/265
f 263/263/263 265/265/265 266/266/266
f 267/267/267 263/263/263 266/266/266
f 267/267/267 266/266/266 268/268/268
f 266/266/266 269/269/269 268/268/268
f 269/269/269 266/266/266 265/265/265
f 269/269/269 265/265/265 270/270/270
f 271/271/271 269/269/269 270/270/270
f 270/270/270 265/265/265 272/272/272
f 275/275/275 274/274/274 273/273/273
f 276/276/276 274/274/274 275/275/275
f 276/276/276 277/277/277 274/274/274
f 276/276/276 275/275/275 278/278/278
f 278/278/278 279/279/279 276/276/276
f 282/282/282 281/281/281 280/280/280
f 281/281/281 283/283/283 280/280/280
f 283/283/283 281/281/281 284/284/284
f 285/285/285 284/284/284 281/281/281
f 284/284/284 285/285/285 286/286/286
f 287/287/287 284/284/284 286/286/286
f 288/288/288 284/284/284 287/287/287
f 289/289/289 287/287/287 286/286/286
f 290/290/290 287/287/287 289/289/289
f 293/293/293 292/292/292 291/291/291
f 294/294/294 292/292/292 293/293/293
f 292/292/292 294/294/294 295/295/295
f 292/292/292 295/295/295 296/296/296
f 292/292/292 296/296/296 297/297/297
f 297/297/297 298/298/298 292/292/292
f 295/295/295 294/294/294 299/299/299
f 299/299/299 294/294/294 300/300/300
f 294/294/294 301/301/301 300/300/300
f 300/300/300 301/301/301 302/302/302
f 303/303/303 301/301/301 294/294/294
f 306/306/306 305/305/305 304/304/304
f 306/306/306 304/304/304 307/307/307
f 308/308/308 306/306/306 307/307/307
f 308/308/308 309/309/309 306/306/306
f 307/307/307 310/310/310 308/308/308
f 311/311/311 310/310/310 307/307/307
f 314/314/314 313/313/313 312/312/312
f 312/312/312 313/313/313 315/315/315
f 316/316/316 312/312/312 315/315/315
f 317/317/317 316/316/316 315/315/315
f 320/320/320 319/319/319 318/318/318
f 318/318/318 319/319/319 321/321/321
f 321/321/321 319/319/319 322/322/322
f 322/322/322 319/319/319 323/323/323
f 319/319/319 324/324/324 323/323/323
f 325/325/325 323/323/323 324/324/324
f 325/325/325 326/326/326 323/323/323
f 329/329/329 328/328/328 327/327/327
f 328/328/328 329/329/329 330/330/330
f 329/329/329 331/331/331 330/330/330
f 329/329/329 332/332/332 331/331/331
f 329/329/329 333/333/333 332/332/332
f 334/334/334 333/333/333 329/329/329
f 335/335/335 334/334/334 329/329/329
f 338/338/338 337/337/337 336/336/336
f 339/339/339 338/338/338 336/336/336
f 340/340/340 338/338/338 339/339/339
f 340/340/340 341/341/341 338/338/338
f 341/341/341 342/342/342 338/338/338
f 341/341/341 340/340/340 343/343/343
f 344/344/344 341/341/341 343/343/343
f 340/340/340 345/345/345 343/343/343
f 345/345/345 346/346/346 343/343/343
f 347/347/347 346/346/346 345/345/345
f 343/343/343 346/346/346 348/348/348
f 349/349/349 347/347/347 345/345/345
f 349/349/349 350/350/350 347/347/347
f 351/351/351 348/348/348 346/346/346
f 350/350/350 352/352/352 347/347/347
f 353/353/353 351/351/351 346/346/346
f 354/354/354 351/351/351 353/353/353
f 355/355/355 354/354/354 353/353/353
f 356/356/356 355/355/355 353/353/353
f 357/357/357 353/353/353 346/346/346
f 347/347/347 357/357/357 346/346/346
f 357/357/357 356/356/356 353/353/353
f 358/358/358 356/356/356 357/357/357
f 359/359/359 357/357/357 347/347/347
f 359/359/359 358/358/358 357/357/357
f 347/347/347 352/352/352 360/360/360
f 360/360/360 359/359/359 347/347/347
f 352/352/352 361/361/361 360/360/360
f 362/362/362 361/361/361 352/352/352
f 363/363/363 361/361/361 362/362/362
f 364/364/364 363/363/363 362/362/362
f 365/365/365 359/359/359 360/360/360
f 362/362/362 366/366/366 364/364/364
f 364/364/364 366/366/366 367/367/367
f 366/366/366 362/362/362 368/368/368
f 366/366/366 368/368/368 369/369/369
f 366/366/366 370/370/370 367/367/367
f 371/371/371 370/370/370 366/366/366
f 372/372/372 371/371/371 366/366/366
f 373/373/373 359/359/359 365/365/365
f 374/374/374 373/373/373 365/365/365
f 365/365/365 375/375/375 374/374/374
f 373/373/373 376/376/376 359/359/359
f 376/376/376 358/358/358 359/359/359
f 373/373/373 374/374/374 377/377/377
f 373/373/373 377/377/377 376/376/376
f 374/374/374 378/378/378 377/377/377
f 377/377/377 378/378/378 379/379/379
f 377/377/377 380/380/380 376/376/376
f 376/376/376 380/380/380 358/358/358
f 380/380/380 381/381/381 358/358/358
f 381/381/381 382/382/382 358/358/358
f 382/382/382 383/383/383 358/358/358
f 358/358/358 383/383/383 356/356/356
f 383/383/383 384/384/384 356/356/356
f 384/384/384 383/383/383 385/385/385
f 356/356/356 384/384/384 386/386/386
f 387/387/387 384/384/384 385/385/385
f 387/387/387 386/386/386 384/384/384
f 387/387/387 385/385/385 388/388/388
f 389/389/389 387/387/387 388/388/388
f 387/387/387 390/390/390 386/386/386
f 387/387/387 389/389/389 390/390/390
f 390/390/390 391/391/391 386/386/386
f 392/392/392 390/390/390 389/389/389
f 395/395/395 394/394/394 393/393/393
f 396/396/396 395/395/395 393/393/393
f 396/396/396 397/397/397 395/395/395
f 400/400/400 399/399/399 398/398/398
f 399/399/399 400/400/400 401/401/401
f 404/404/404 403/403/403 402/402/402
f 403/403/403 405/405/405 402/402/402
f 405/405/405 406/406/406 402/402/402
f 407/407/407 406/406/406 405/405/405
f 408/408/408 407/407/407 405/405/405
f 411/411/411 410/410/410 409/409/409
f 412/412/412 411/411/411 409/409/409
f 412/412/412 409/409/409 413/413/413
f 414/414/414 411/411/411 412/412/412
f 412/412/412 413/413/413 415/415/415
f 415/415/415 414/414/414 412/412/412
f 418/418/418 417/417/417 416/416/416
f 419/419/419 418/418/418 416/416/416
f 422/422/422 421/421/421 420/420/420
f 422/422/422 420/420/420 423/423/423
f 424/424/424 423/423/423 420/420/420
f 425/425/425 422/422/422 423/423/423
f 425/425/425 423/423/423 426/426/426
f 423/423/423 427/427/427 426/426/426
f 427/427/427 428/428/428 426/426/426
f 429/429/429 428/428/428 427/427/427
f 430/430/430 429/429/429 427/427/427
f 428/428/428 431/431/431 426/426/426
f 431/431/431 432/432/432 426/426/426
f 432/432/432 433/433/433 426/426/426
f 426/426/426 433/433/433 434/434/434
f 434/434/434 433/433/433 435/435/435
f 433/433/433 436/436/436 435/435/435
f 432/432/432 437/437/437 433/433/433
f 437/437/437 432/432/432 438/438/438
f 437/437/437 438/438/438 439/439/439
f 438/438/438 440/440/440 439/439/439
f 439/439/439 440/440/440 441/441/441
f 439/439/439 441/441/441 442/442/442
f 441/441/441 443/443/443 442/442/442
f 442/442/442 443/443/443 444/444/444
f 445/445/445 442/442/442 444/444/444
f 446/446/446 445/445/445 444/444/444
f 447/447/447 445/445/445 446/446/446
f 448/448/448 447/447/447 446/446/446
f 447/447/447 448/448/448 449/449/449
f 447/447/447 449/449/449 450/450/450
f 451/451/451 447/447/447 450/450/450
f 452/452/452 451/451/451 450/450/450
f 453/453/453 451/451/451 452/452/452
f 456/456/456 455/455/455 454/454/454
f 455/455/455 457/457/457 454/454/454
f 454/454/454 457/457/457 458/458/458
f 458/458/458 459/459/459 454/454/454
f 454/454/454 459/459/459 460/460/460
f 460/460/460 459/459/459 461/461/461
f 460/460/460 461/461/461 462/462/462
f 460/460/460 462/462/462 463/463/463
f 454/454/454 460/460/460 463/463/463
f 454/454/454 463/463/463 464/464/464
f 467/467/467 466/466/466 465/465/465
f 465/465/465 468/468/468 467/467/467
f 468/468/468 469/469/469 467/467/467
f 467/467/467 469/469/469 470/470/470
f 470/470/470 471/471/471 467/467/467
f 470/470/470 472/472/472 471/471/471
f 471/471/471 472/472/472 473/473/473
f 474/474/474 471/471/471 473/473/473
f 473/473/473 475/475/475 474/474/474
f 478/478/478 477/477/477 476/476/476
f 479/479/479 478/478/478 476/476/476
f 479/479/479 476/476/476 480/480/480
f 479/479/479 481/481/481 478/478/478
f 482/482/482 479/479/479 480/480/480
f 482/482/482 481/481/481 479/479/479
f 480/480/480 483/483/483 482/482/482
f 484/484/484 481/481/481 482/482/482
f 482/482/482 483/483/483 485/485/485
f 484/484/484 482/482/482 485/485/485
f 488/488/488 487/487/487 486/486/486
f 486/486/486 489/489/489 488/488/488
f 486/486/486 490/490/490 489/489/489
f 493/493/493 492/492/492 491/491/491
f 494/494/494 493/493/493 491/491/491
f 494/494/494 491/491/491 495/495/495
f 496/496/496 493/493/493 494/494/494
f 494/494/494 495/495/495 497/497/497
f 497/497/497 496/496/496 494/494/494
f 500/500/500 499/499/499 498/498/498
f 500/500/500 498/498/498 501/501/501
f 502/502/502 500/500/500 501/501/501
f 502/502/502 501/501/501 503/503/503
f 504/504/504 500/500/500 502/502/502
f 502/502/502 503/503/503 505/505/505
f 502/502/502 506/506/506 504/504/504
f 507/507/507 502/502/502 505/505/505
f 502/502/502 507/507/507 506/506/506
f 507/507/507 505/505/505 508/508/508
f 507/507/507 509/509/509 506/506/506
f 507/507/507 508/508/508 510/510/510
f 509/509/509 507/507/507 510/510/510
f 513/513/513 512/512/512 511/511/511
f 513/513/513 511/511/511 514/514/514
f 513/513/513 514/514/514 515/515/515
f 513/513/513 515/515/515 516/516/516
f 515/515/515 517/517/517 516/516/516
f 517/517/517 518/518/518 516/516/516
f 516/516/516 519/519/519 513/513/513
f 513/513/513 519/519/519 520/520/520
f 523/523/523 522/522/522 521/521/521
f 524/524/524 523/523/523 521/521/521
f 525/525/525 523/523/523 524/524/524
f 525/525/525 524/524/524 526/526/526
f 526/526/526 527/527/527 525/525/525
f 527/527/527 528/528/528 525/525/525
f 531/531/531 530/530/530 529/529/529
f 532/532/532 531/531/531 529/529/529
f 535/535/535 534/534/534 533/533/533
f 536/536/536 534/534/534 535/535/535
f 537/537/537 536/536/536 535/535/535
f 538/538/538 534/534/534 536/536/536
f 541/541/541 540/540/540 539/539/539
f 539/539/539 542/542/542 541/541/541
f 539/539/539 543/543/543 542/542/542
f 543/543/543 544/544/544 542/542/542
f 543/543/543 545/545/545 544/544/544
f 548/548/548 547/547/547 546/546/546
f 549/549/549 548/548/548 546/546/546
f 552/552/552 551/551/551 550/550/550
f 551/551/551 553/553/553 550/550/550
f 550/550/550 553/553/553 554/554/554
f 553/553/553 555/555/555 554/554/554
f 558/558/558 557/557/557 556/556/556
f 559/559/559 557/557/557 558/558/558
f 560/560/560 559/559/559 558/558/558
f 561/561/561 557/557/557 559/559/559
f 562/562/562 559/559/559 560/560/560
f 559/559/559 562/562/562 561/561/561
f 562/562/562 563/563/563 561/561/561
f 563/563/563 562/562/562 564/564/564
f 562/562/562 565/565/565 564/564/564
f 562/562/562 566/566/566 565/565/565
f 565/565/565 566/566/566 567/567/567
f 570/570/570 569/569/569 568/568/568
f 568/568/568 569/569/569 571/571/571
f 569/569/569 572/572/572 571/571/571
f 575/575/575 574/574/574 573/573/573
f 574/574/574 576/576/576 573/573/573
f 576/576/576 577/577/577 573/573/573
f 577/577/577 578/578/578 573/573/573
f 581/581/581 580/580/580 579/579/579
f 580/580/580 582/582/582 579/579/579
f 582/582/582 583/583/583 579/579/579
f 583/583/583 584/584/584 579/579/579
f 587/587/587 586/586/586 585/585/585
f 588/588/588 587/587/587 585/585/585
f 591/591/591 590/590/590 589/589/589
f 590/590/590 592/592/592 589/589/589
f 592/592/592 593/593/593 589/589/589
f 593/593/593 594/594/594 589/589/589
f 597/597/597 596/596/596 595/595/595
f 598/598/598 597/597/597 595/595/595
f 601/601/601 600/600/600 599/599/599
f 602/602/602 601/601/601 599/599/599
f 605/605/605 604/604/604 603/603/603
f 606/606/606 605/605/605 603/603/603
f 609/609/609 608/608/608 607/607/607
f 608/608/608 610/610/610 607/607/607
f 610/610/610 611/611/611 607/607/607
f 611/611/611 612/612/612 607/607/607
f 615/615/615 614/614/614 613/613/613
f 614/614/614 616/616/616 613/613/613
f 616/616/616 617/617/617 613/613/613
f 617/617/617 618/618/618 613/613/613
f 621/621/621 620/620/620 619/619/619
f 622/622/622 621/621/621 619/619/619
f 625/625/625 624/624/624 623/623/623
f 624/624/624 626/626/626 623/623/623
f 626/626/626 627/627/627 623/623/623
f 627/627/627 628/628/628 623/623/623
f 631/631/631 630/630/630 629/629/629
f 632/632/632 631/631/631 629/629/629
f 635/635/635 634/634/634 633/633/633
f 636/636/636 635/635/635 633/633/633
f 639/639/639 638/638/638 637/637/637
f 640/640/640 639/639/639 637/637/637
f 643/643/643 642/642/642 641/641/641
f 642/642/642 644/644/644 641/641/641
f 644/644/644 645/645/645 641/641/641
f 645/645/645 646/646/646 641/641/641
f 649/649/649 648/648/648 647/647/647
f 648/648/648 650/650/650 647/647/647
f 650/650/650 651/651/651 647/647/647
f 651/651/651 652/652/652 647/647/647
f 655/655/655 654/654/654 653/653/653
f 656/656/656 655/655/655 653/653/653
f 659/659/659 658/658/658 657/657/657
f 660/660/660 659/659/659 657/657/657
f 663/663/663 662/662/662 661/661/661
f 662/662/662 664/664/664 661/661/661
f 664/664/664 665/665/665 661/661/661
f 665/665/665 666/666/666 661/661/661
f 669/669/669 668/668/668 667/667/667
f 670/670/670 669/669/669 667/667/667
f 673/673/673 672/672/672 671/671/671
f 674/674/674 673/673/673 671/671/671
f 677/677/677 676/676/676 675/675/675
f 676/676/676 678/678/678 675/675/675
f 678/678/678 679/679/679 675/675/675
f 679/679/679 680/680/680 675/675/675
f 683/683/683 682/682/682 681/681/681
f 682/682/682 684/684/684 681/681/681
f 684/684/684 685/685/685 681/681/681
f 685/685/685 686/686/686 681/681/681
f 689/689/689 688/688/688 687/687/687
f 690/690/690 689/689/689 687/687/687
f 693/693/693 692/692/692 691/691/691
f 694/694/694 693/693/693 691/691/691
f 697/697/697 696/696/696 695/695/695
f 696/696/696 698/698/698 695/695/695
f 698/698/698 699/699/699 695/695/695
f 699/699/699 700/700/700 695/695/695
f 703/703/703 702/702/702 701/701/701
f 704/704/704 703/703/703 701/701/701
f 707/707/707 706/706/706 705/705/705
f 708/708/708 707/707/707 705/705/705
