g 0.1000
v -0.012242746 -1.2760808 3.9968889
v 0.0007666128 -1.1578038 4.3892817
v 0.49109522 -1.0920548 4.3086205
v 1.0330584 0.645329 2.5737705
v 1.1286228 0.83488476 3.3336842
v 0.53756005 1.0165029 2.8158443
v 1.2006855 -0.49846804 2.6756132
v 0.81996834 -0.68127286 2.6627827
v 1.2789547 -0.3286788 3.2669964
v 0.0025325688 -1.5122179 4.9526353
v 0.0046125483 -1.874379 5.216512
v 0.38927686 -1.8174357 5.260343
v 0.5156661 -0.46947134 6.220914
v 0.008103833 -0.6120784 6.2290916
v 0.016331403 -0.39340144 6.362683
v 2.2891703 -2.9034026 4.9596224
v 2.5309277 -2.8921714 5.105529
v 2.6463082 -2.723549 4.8433547
v -0.012242746 -1.2760808 3.9968889
v -0.5057261 -0.8525059 4.272027
v 0.0007666128 -1.1578038 4.3892817
v -1.0330639 -0.055796742 2.0735588
v -0.5375758 0.7193489 2.147571
v -1.1164262 1.0272397 2.6254392
v -1.2006636 -0.26500225 3.1650603
v -1.2817053 0.32259095 3.2092366
v -0.81994456 -0.42080426 3.2523797
v 0.0025325688 -1.5122179 4.9526353
v -0.38024884 -1.8203552 5.258475
v 0.0046125483 -1.874379 5.216512
v -0.5102594 -0.6512817 6.2376413
v 0.016331403 -0.39340144 6.362683
v 0.008103833 -0.6120784 6.2290916
v -2.3812523 1.6809272 3.0365117
v -2.7137113 1.6197561 3.279704
v -2.6470137 1.6312252 2.954279
v 2.0127325 -2.1603189 5.1118
v 2.0317137 -2.4362307 5.215309
v 2.1652431 -2.7066913 5.2131143
v 1.9908397 -2.3370795 5.2333984
v 2.0118356 -2.2719965 5.3193817
v 2.2745292 -1.7120059 5.0578995
v 2.1347296 -1.8842402 4.9133024
v 2.2590826 -2.0556405 4.4807262
v 1.2721896 0.40010667 4.5593443
v 0.8935503 0.67610884 4.7599087
v 1.2142298 -0.036450505 4.3406067
v 0.92470545 0.4332957 5.690685
v 1.7993753 0.60838926 4.9566293
v 1.5832918 0.49738848 5.4717326
v 1.7855916 0.23650551 4.1539173
v 1.7535579 -0.9396341 3.6847942
v 0.4027229 0.69134873 5.580205
v 0.05607289 0.6712472 5.783286
v 0.042417523 0.37480277 6.2112217
v 0.06866643 0.86265635 5.2889447
v 0.041816548 0.86394095 4.5935183
v 0.7591274 0.5391763 4.1227274
v 1.0645192 0.1750229 4.1001463
v 0.017002225 0.7000997 4.15258
v 2.2299595 -1.24827 3.6898832
v 2.661376 -1.9657009 4.4088197
v 2.2590826 -2.0556405 4.4807262
v 2.5703182 -0.6917801 3.7786975
v 2.2558403 -0.089752436 4.2771115
v 2.0373087 0.2740202 5.2168894
v 2.5473754 -2.7142596 4.561311
v 2.4040742 -2.8937478 4.6575418
v 2.6463082 -2.723549 4.8433547
v 2.0182045 -2.6056657 4.533941
v 1.9927933 -2.2538261 4.4903345
v 1.1219922 -0.59938073 5.3544455
v 1.1349418 -0.5850961 4.7212434
v 0.93613327 -1.0025988 4.560037
v 0.9041696 -0.82881004 4.3557277
v 1.1231124 -0.46488717 3.9422908
v 0.7647687 -1.0757371 3.0028048
v 1.2142298 -0.036450505 4.3406067
v 1.0645192 0.1750229 4.1001463
v 0.8935503 0.67610884 4.7599087
v 0.6099145 1.5388577 0.6783353
v 0.7400653 1.9762559 1.1271167
v 0.59065974 1.3793039 1.390327
v 0.45172167 1.1202866 0.31041867
v 0.81988454 0.7800431 1.1765511
v 0.26627988 0.78351104 1.6799659
v 0.6787091 1.0581715 2.2745843
v 0.4409157 0.079497576 1.7140975
v 0.2872134 0.57599616 2.0875318
v 0.30039904 0.4902798 2.3565283
v 0.28143254 -0.37593564 2.330171
v 0.21705529 -0.35454252 2.324746
v 0.2514831 0.44720033 2.4268754
v -2.3569355E-06 0.35076144 2.6043181
v -0.00031914655 1.0310293 3.0236363
v 0.18537408 -0.3967279 2.317634
v 0.49109522 -1.0920548 4.3086205
v 0.0007666128 -1.1578038 4.3892817
v 0.5858404 -1.2094239 4.6881313
v 0.93613327 -1.0025988 4.560037
v 1.1219922 -0.59938073 5.3544455
v 0.9041696 -0.82881004 4.3557277
v 0.7647687 -1.0757371 3.0028048
v -0.012242746 -1.2760808 3.9968889
v 1.5686623E-05 -1.2679621 2.96015
v 1.0791128 1.9174377 1.1301491
v 1.6065289 1.2134409 0.35235438
v 1.1966279 1.2158257 1.2096733
v 1.008506 1.3902029 1.5821104
v 1.3280603 0.9336835 2.0571914
v 1.3458788 0.11947262 1.7945148
v 1.3312153 0.20872855 2.591588
v 1.0330584 0.645329 2.5737705
v 1.1286228 0.83488476 3.3336842
v 1.2789547 -0.3286788 3.2669964
v 1.325944 -0.08543444 2.453981
v 1.2529147 -0.2862357 2.357384
v 1.2006855 -0.49846804 2.6756132
v 1.0330584 0.645329 2.5737705
v 0.30039904 0.4902798 2.3565283
v 0.6787091 1.0581715 2.2745843
v 1.3280603 0.9336835 2.0571914
v 1.008506 1.3902029 1.5821104
v 0.59065974 1.3793039 1.390327
v 0.7400653 1.9762559 1.1271167
v 1.0791128 1.9174377 1.1301491
v 1.5832918 0.49738848 5.4717326
v 1.7993753 0.60838926 4.9566293
v 2.0373087 0.2740202 5.2168894
v 1.7855916 0.23650551 4.1539173
v 0.22592509 -1.6255181 5.676407
v 0.0037347516 -1.6951617 5.532638
v 0.004040111 -1.8118763 5.6560154
v 0.22858104 -1.5655065 5.9641786
v 0.0021485593 -1.6748022 6.24809
v 0.37518927 -1.5638916 6.1835985
v 0.43781263 -1.5244205 5.945369
v 0.48040026 -1.3764857 5.7106447
v 1.0313712 -0.23910238 5.9015207
v 0.5156661 -0.46947134 6.220914
v 0.016331403 -0.39340144 6.362683
v 0.92470545 0.4332957 5.690685
v 0.042417523 0.37480277 6.2112217
v 1.0313712 -0.23910238 5.9015207
v 0.92470545 0.4332957 5.690685
v 1.5832918 0.49738848 5.4717326
v 2.0373087 0.2740202 5.2168894
v 1.7437321 -0.33538437 5.5279856
v 0.8825386 -0.52758765 5.7629414
v 0.5156661 -0.46947134 6.220914
v 0.54795295 -0.7723301 5.4829984
v 1.1219922 -0.59938073 5.3544455
v 0.5578738 -0.8311195 5.2749124
v 0.5858404 -1.2094239 4.6881313
v 0.35567656 -0.9374992 4.9921403
v 0.27690703 -0.94238925 5.1296215
v 0.0007666128 -1.1578038 4.3892817
v -0.0007757973 -1.0593538 4.9770536
v 2.2745292 -1.7120059 5.0578995
v 2.7616582 -1.688343 4.9874353
v 2.4235206 -2.3828282 5.342809
v 2.0118356 -2.2719965 5.3193817
v 2.0317137 -2.4362307 5.215309
v 2.1652431 -2.7066913 5.2131143
v 2.2891703 -2.9034026 4.9596224
v 2.5309277 -2.8921714 5.105529
v 2.4235206 -2.3828282 5.342809
v 2.6463082 -2.723549 4.8433547
v 2.5309277 -2.8921714 5.105529
v 2.7616582 -1.688343 4.9874353
v 2.661376 -1.9657009 4.4088197
v 2.5473754 -2.7142596 4.561311
v 2.7478976 -1.0966284 4.1271677
v 2.4851947 -0.87084436 4.5302944
v 2.5703182 -0.6917801 3.7786975
v 2.5539832 -0.7532203 4.034804
v 2.377143 -0.77209973 4.5728292
v 2.2558403 -0.089752436 4.2771115
v 2.05755 -0.3107369 4.705353
v 2.0373087 0.2740202 5.2168894
v 1.7437321 -0.33538437 5.5279856
v 1.6081715 -0.6917777 5.146423
v 1.8687223 -1.0491722 4.576707
v 2.1347296 -1.8842402 4.9133024
v 1.6907716 -1.6002564 4.244441
v 1.613945 -1.1834683 4.4767
v 1.7535579 -0.9396341 3.6847942
v 1.1349418 -0.5850961 4.7212434
v 1.2142298 -0.036450505 4.3406067
v 1.2721896 0.40010667 4.5593443
v 2.2745292 -1.7120059 5.0578995
v 1.613945 -1.1834683 4.4767
v 2.0200865 -0.9963944 4.65687
v 2.1347296 -1.8842402 4.9133024
v 2.2891703 -2.9034026 4.9596224
v 1.827877 -2.6198912 5.032705
v 2.1652431 -2.7066913 5.2131143
v 1.9306326 -2.782996 4.8225203
v 2.4040742 -2.8937478 4.6575418
v 2.6463082 -2.723549 4.8433547
v 2.0182045 -2.6056657 4.533941
v 0.50599056 1.0278308 0.11393553
v 0.8233897 0.8920066 0.1436038
v 0.9103596 0.974264 0.033490002
v 1.2019194 0.88080394 0.1646837
v 1.4182645 1.0637698 0.13291788
v 2.1652431 -2.7066913 5.2131143
v 1.827877 -2.6198912 5.032705
v 1.7014222 -2.166862 4.9487
v 2.0127325 -2.1603189 5.1118
v 0.9103596 0.974264 0.033490002
v 0.45172167 1.1202866 0.31041867
v 0.50599056 1.0278308 0.11393553
v 1.1995283 1.4210353 0.5258157
v 1.4182645 1.0637698 0.13291788
v 0.6099145 1.5388577 0.6783353
v 1.6065289 1.2134409 0.35235438
v 0.7400653 1.9762559 1.1271167
v 1.0791128 1.9174377 1.1301491
v 0.81988454 0.7800431 1.1765511
v 0.9769907 0.94339836 1.012939
v 0.45172167 1.1202866 0.31041867
v 1.3458788 0.11947262 1.7945148
v 1.1966279 1.2158257 1.2096733
v 0.84469175 0.07480848 1.6253865
v 0.4409157 0.079497576 1.7140975
v 0.28143254 -0.37593564 2.330171
v 1.0297303 -0.38241553 2.2948852
v 1.2529147 -0.2862357 2.357384
v 1.2006855 -0.49846804 2.6756132
v 0.81996834 -0.68127286 2.6627827
v 0.82926875 -0.43480343 2.2661724
v 0.50599056 1.0278308 0.11393553
v 0.45172167 1.1202866 0.31041867
v 0.8233897 0.8920066 0.1436038
v 0.9769907 0.94339836 1.012939
v 1.2019194 0.88080394 0.1646837
v 1.6065289 1.2134409 0.35235438
v 1.1966279 1.2158257 1.2096733
v 1.4182645 1.0637698 0.13291788
v 1.0330584 0.645329 2.5737705
v 0.53756005 1.0165029 2.8158443
v 0.30039904 0.4902798 2.3565283
v 0.2514831 0.44720033 2.4268754
v 0.5262337 1.0803802 2.7747223
v -0.00031914655 1.0310293 3.0236363
v 1.1286228 0.83488476 3.3336842
v 1.17393 0.875981 3.3481221
v 0.5262337 1.0803802 2.7747223
v 0.53756005 1.0165029 2.8158443
v 0.017002225 0.7000997 4.15258
v 0.019016363 0.7485523 4.1843286
v 0.78407395 0.57374686 4.1629515
v 0.7591274 0.5391763 4.1227274
v 1.1258602 0.2045746 4.1296372
v 1.0645192 0.1750229 4.1001463
v 1.1935776 -0.48866054 3.940186
v 1.1231124 -0.46488717 3.9422908
v 0.82192373 -1.108161 2.9619946
v 0.7647687 -1.0757371 3.0028048
v 1.6493395E-05 -1.3246847 2.928684
v 1.5686623E-05 -1.2679621 2.96015
v 1.6081715 -0.6917777 5.146423
v 1.1219922 -0.59938073 5.3544455
v 1.7437321 -0.33538437 5.5279856
v 1.1349418 -0.5850961 4.7212434
v 1.4717349 -0.9709325 4.640267
v 1.613945 -1.1834683 4.4767
v 1.8687223 -1.0491722 4.576707
v 1.613945 -1.1834683 4.4767
v 1.8687223 -1.0491722 4.576707
v 2.0200865 -0.9963944 4.65687
v 2.4851947 -0.87084436 4.5302944
v 2.377143 -0.77209973 4.5728292
v 2.05755 -0.3107369 4.705353
v 2.7616582 -1.688343 4.9874353
v 2.2745292 -1.7120059 5.0578995
v 2.2590826 -2.0556405 4.4807262
v 1.6907716 -1.6002564 4.244441
v 2.1347296 -1.8842402 4.9133024
v 1.7535579 -0.9396341 3.6847942
v 1.2789547 -0.3286788 3.2669964
v 1.17393 0.875981 3.3481221
v 1.1286228 0.83488476 3.3336842
v 1.3431156 -0.34469265 3.2735877
v 0.81996834 -0.68127286 2.6627827
v 0.87382865 -0.74012655 2.5534878
v 0.28143254 -0.37593564 2.330171
v 0.2828957 -0.76135147 2.1491225
v 0.21705529 -0.35454252 2.324746
v 0.18537408 -0.3967279 2.317634
v 8.907069E-06 -0.43907142 2.3005838
v 1.4743231E-05 -0.72938555 2.1679204
v -2.3569355E-06 0.35076144 2.6043181
v 0.54795295 -0.7723301 5.4829984
v 0.4192941 -0.9809684 6.200037
v 0.5156661 -0.46947134 6.220914
v 0.52932453 -0.94340974 5.408403
v 0.5578738 -0.8311195 5.2749124
v 0.6658479 -1.4907789 5.267078
v 0.49513683 -1.2404921 6.2437553
v 0.5977599 -1.4068724 5.3656406
v 0.48040026 -1.3764857 5.7106447
v 0.43781263 -1.5244205 5.945369
v 0.37518927 -1.5638916 6.1835985
v 0.5101015 -1.3925607 5.514855
v 0.22592509 -1.6255181 5.676407
v 0.34382126 -1.6557555 5.4961133
v 0.3878389 -1.7408503 5.348393
v 0.3878389 -1.7408503 5.348393
v 0.5977599 -1.4068724 5.3656406
v 0.6658479 -1.4907789 5.267078
v 0.38927686 -1.8174357 5.260343
v 0.004346651 -1.7856575 5.332171
v 0.0046125483 -1.874379 5.216512
v 0.0037347516 -1.6951617 5.532638
v 0.34382126 -1.6557555 5.4961133
v 0.22592509 -1.6255181 5.676407
v 0.6658479 -1.4907789 5.267078
v 0.0025325688 -1.5122179 4.9526353
v 0.38927686 -1.8174357 5.260343
v 0.27522182 -1.1573474 5.11047
v 0.5578738 -0.8311195 5.2749124
v -0.0007757973 -1.0593538 4.9770536
v 0.27690703 -0.94238925 5.1296215
v 1.1258602 0.2045746 4.1296372
v 1.17393 0.875981 3.3481221
v 1.3431156 -0.34469265 3.2735877
v 1.1935776 -0.48866054 3.940186
v 0.82192373 -1.108161 2.9619946
v 0.87382865 -0.74012655 2.5534878
v 0.7926575 -0.978014 2.494657
v 0.76063985 -0.78920925 2.0732636
v 0.78407395 0.57374686 4.1629515
v 1.17393 0.875981 3.3481221
v 1.1258602 0.2045746 4.1296372
v 0.4848272 1.1551635 3.4505856
v 0.5262337 1.0803802 2.7747223
v -0.00031914655 1.0310293 3.0236363
v 0.009558782 1.0466778 3.7420447
v 0.019016363 0.7485523 4.1843286
v 0.82192373 -1.108161 2.9619946
v 1.7137812E-05 -1.1237004 2.284144
v 1.6493395E-05 -1.3246847 2.928684
v 0.7926575 -0.978014 2.494657
v 0.6341273 -0.9538312 2.0629125
v 0.76063985 -0.78920925 2.0732636
v 1.8794464E-05 -0.89664364 1.9018267
v 0.052206624 -0.6203317 1.6236929
v 1.7031556E-05 -0.6154231 1.6056585
v 1.4743231E-05 -0.72938555 2.1679204
v 1.7031556E-05 -0.6154231 1.6056585
v 0.052206624 -0.6203317 1.6236929
v 0.2828957 -0.76135147 2.1491225
v 0.76063985 -0.78920925 2.0732636
v 0.87382865 -0.74012655 2.5534878
v 1.827877 -2.6198912 5.032705
v 1.9306326 -2.782996 4.8225203
v 1.7014222 -2.166862 4.9487
v 1.9927933 -2.2538261 4.4903345
v 2.0182045 -2.6056657 4.533941
v 2.0127325 -2.1603189 5.1118
v 1.7014222 -2.166862 4.9487
v 1.9927933 -2.2538261 4.4903345
v 2.2590826 -2.0556405 4.4807262
v 0.008103833 -0.6120784 6.2290916
v 0.5156661 -0.46947134 6.220914
v 0.4192941 -0.9809684 6.200037
v -0.0015472686 -0.99616206 6.3499684
v 0.27338472 -1.2974999 6.3938713
v 0.0002343338 -1.4220457 6.432166
v 0.49513683 -1.2404921 6.2437553
v 0.0021485593 -1.6748022 6.24809
v 0.37518927 -1.5638916 6.1835985
v -2.1602771 0.9263501 3.2196326
v -2.314525 1.3754485 2.8931887
v -2.1914647 1.1218271 3.0005026
v -2.157638 1.0217108 3.026218
v -2.196759 0.9269371 2.9867563
v -2.4187827 0.58964276 3.5233276
v -2.2488177 0.7917397 3.5429666
v -2.281778 1.1588933 3.852927
v -1.1351804 0.58829737 5.367
v -1.1164613 0.59584904 4.9512663
v -0.802653 0.9059739 5.169012
v -0.87791616 0.12739456 5.9733205
v -1.6389488 0.12777615 5.962344
v -1.480064 -0.19936252 6.050071
v -1.5995157 0.6194515 5.577917
v -1.6508653 1.0032465 4.6821833
v -0.35642445 0.6135191 5.7897696
v 0.05607289 0.6712472 5.783286
v 0.042417523 0.37480277 6.2112217
v 0.06866643 0.86265635 5.2889447
v 0.041816548 0.86394095 4.5935183
v -0.72556317 1.2014933 3.770993
v -1.0301938 1.0821083 3.790935
v 0.017002225 0.7000997 4.15258
v -2.1202283 1.1082176 4.707836
v -2.664679 1.1610293 4.021693
v -2.281778 1.1588933 3.852927
v -2.433861 0.87382674 5.092555
v -2.1200466 0.38523793 5.4269114
v -1.9389962 -0.29291034 5.7791023
v -2.562033 1.731966 3.5117068
v -2.4353411 1.8273189 3.3196948
v -2.7137113 1.6197561 3.279704
v -2.0408537 1.5874727 3.5041327
v -2.0171156 1.2967043 3.707181
v -1.1758263 -0.8505156 4.93618
v -0.97203946 -0.71076214 4.3680067
v -1.1529708 -0.08729887 4.659067
v -0.92792726 -0.393898 4.2560306
v -1.1279163 0.40113994 3.8548055
v -0.770035 -0.39099973 3.6547382
v -1.1164613 0.59584904 4.9512663
v -1.0301938 1.0821083 3.790935
v -0.802653 0.9059739 5.169012
v -0.6109991 -1.6199111 0.7152921
v -0.5904338 -0.9884469 1.0661844
v -0.7399273 -1.0715265 0.39521337
v -0.45382285 -2.0608482 1.060139
v -0.819839 -1.3876742 1.574219
v -0.26626447 -0.9156788 1.7344127
v -0.6787164 -0.28747416 1.6315169
v -0.44088432 -0.986411 2.3333144
v -0.287204 -0.5213206 2.0112548
v -0.30039582 -0.21237588 2.1513774
v -0.28142163 -0.50937605 2.5579655
v -0.217045 -0.48974878 2.5346644
v -0.25148144 -0.09952545 2.2135189
v -2.3569355E-06 0.35076144 2.6043181
v -0.00031914655 1.0310293 3.0236363
v -0.18536347 -0.5246709 2.5392034
v -0.5057261 -0.8525059 4.272027
v -0.60598326 -1.2211726 4.5422764
v 0.0007666128 -1.1578038 4.3892817
v -0.97203946 -0.71076214 4.3680067
v -1.1758263 -0.8505156 4.93618
v -0.92792726 -0.393898 4.2560306
v -0.770035 -0.39099973 3.6547382
v -0.012242746 -1.2760808 3.9968889
v 1.5686623E-05 -1.2679621 2.96015
v -1.0788825 -1.082228 0.45416734
v -1.1965629 -1.2139254 1.1658946
v -1.6084813 -1.999613 0.9735949
v -1.0084982 -0.80613154 1.1210567
v -1.3280592 -0.5119078 1.7030385
v -1.3458465 -0.9672536 2.4193914
v -1.3312086 -0.16075516 2.4923372
v -1.0330639 -0.055796742 2.0735588
v -1.1164262 1.0272397 2.6254392
v -1.2817053 0.32259095 3.2092366
v -1.3259251 -0.3520118 2.7482424
v -1.2528881 -0.490479 2.905015
v -1.2006636 -0.26500225 3.1650603
v -1.0330639 -0.055796742 2.0735588
v -0.6787164 -0.28747416 1.6315169
v -0.30039582 -0.21237588 2.1513774
v -1.3280592 -0.5119078 1.7030385
v -1.0084982 -0.80613154 1.1210567
v -0.5904338 -0.9884469 1.0661844
v -0.7399273 -1.0715265 0.39521337
v -1.0788825 -1.082228 0.45416734
v -1.480064 -0.19936252 6.050071
v -1.9389962 -0.29291034 5.7791023
v -1.6389488 0.12777615 5.962344
v -1.5995157 0.6194515 5.577917
v -0.21941948 -1.627487 5.6751466
v 0.004040111 -1.8118763 5.6560154
v 0.0037347516 -1.6951617 5.532638
v -0.2236763 -1.5676768 5.9627895
v 0.0021485593 -1.6748022 6.24809
v -0.37154433 -1.5675213 6.181276
v -0.4334848 -1.52844 5.942796
v -0.47664273 -1.3804439 5.708112
v -1.0173001 -0.54401267 5.9506893
v 0.016331403 -0.39340144 6.362683
v -0.5102594 -0.6512817 6.2376413
v -0.87791616 0.12739456 5.9733205
v 0.042417523 0.37480277 6.2112217
v -1.0173001 -0.54401267 5.9506893
v -1.480064 -0.19936252 6.050071
v -0.87791616 0.12739456 5.9733205
v -1.9389962 -0.29291034 5.7791023
v -1.779515 -0.80591464 5.192257
v -0.8792966 -0.79835033 5.7355967
v -0.5102594 -0.6512817 6.2376413
v -0.54866314 -0.8619865 5.4582615
v -1.1758263 -0.8505156 4.93618
v -0.5613321 -0.9173652 5.228845
v -0.60598326 -1.2211726 4.5422764
v -0.36046103 -0.98320293 4.941657
v -0.27925152 -0.99274224 5.094462
v 0.0007666128 -1.1578038 4.3892817
v -0.0007757973 -1.0593538 4.9770536
v -2.4187827 0.58964276 3.5233276
v -2.6019182 1.06143 2.9781184
v -2.8833213 0.6591263 3.67231
v -2.196759 0.9269371 2.9867563
v -2.1914647 1.1218271 3.0005026
v -2.314525 1.3754485 2.8931887
v -2.3812523 1.6809272 3.0365117
v -2.6470137 1.6312252 2.954279
v -2.6019182 1.06143 2.9781184
v -2.6470137 1.6312252 2.954279
v -2.7137113 1.6197561 3.279704
v -2.8833213 0.6591263 3.67231
v -2.664679 1.1610293 4.021693
v -2.562033 1.731966 3.5117068
v -2.7147794 0.61614156 4.664336
v -2.528348 0.09620142 4.5469136
v -2.433861 0.87382674 5.092555
v -2.479738 0.52313757 4.966406
v -2.398283 0.067845106 4.6933765
v -2.1200466 0.38523793 5.4269114
v -2.010441 -0.0111403465 5.1418304
v -1.9389962 -0.29291034 5.7791023
v -1.779515 -0.80591464 5.192257
v -1.6739242 -0.48274732 4.7383738
v -1.9366596 0.06388044 4.340728
v -2.2488177 0.7917397 3.5429666
v -1.680296 0.2992444 4.1416245
v -1.7041261 0.82495165 4.08819
v -1.6508653 1.0032465 4.6821833
v -1.1529708 -0.08729887 4.659067
v -1.1164613 0.59584904 4.9512663
v -1.1351804 0.58829737 5.367
v -2.4187827 0.58964276 3.5233276
v -2.1144936 0.08078861 4.1807413
v -1.680296 0.2992444 4.1416245
v -2.2488177 0.7917397 3.5429666
v -2.3812523 1.6809272 3.0365117
v -2.314525 1.3754485 2.8931887
v -1.9509974 1.3441914 3.0373
v -2.0063252 1.5974817 3.1561375
v -2.4353411 1.8273189 3.3196948
v -2.7137113 1.6197561 3.279704
v -2.0408537 1.5874727 3.5041327
v -0.50899667 -2.2703328 1.1156347
v -0.91367114 -2.357174 1.1550344
v -0.8257847 -2.2647076 1.2559357
v -1.2040858 -2.246862 1.2682772
v -1.4211215 -2.2429042 1.0816349
v -2.314525 1.3754485 2.8931887
v -2.1602771 0.9263501 3.2196326
v -1.8231015 0.97181845 3.3079736
v -1.9509974 1.3441914 3.0373
v -0.91367114 -2.357174 1.1550344
v -0.50899667 -2.2703328 1.1156347
v -0.45382285 -2.0608482 1.060139
v -1.2011814 -1.7897096 0.80517364
v -1.4211215 -2.2429042 1.0816349
v -0.6109991 -1.6199111 0.7152921
v -1.6084813 -1.999613 0.9735949
v -0.7399273 -1.0715265 0.39521337
v -1.0788825 -1.082228 0.45416734
v -0.819839 -1.3876742 1.574219
v -0.45382285 -2.0608482 1.060139
v -0.9767638 -1.4814157 1.3620751
v -1.3458465 -0.9672536 2.4193914
v -1.1965629 -1.2139254 1.1658946
v -0.84465283 -1.140978 2.4273577
v -0.44088432 -0.986411 2.3333144
v -0.28142163 -0.50937605 2.5579655
v -1.0297008 -0.5787983 2.9528377
v -1.2528881 -0.490479 2.905015
v -1.2006636 -0.26500225 3.1650603
v -0.81994456 -0.42080426 3.2523797
v -0.8292391 -0.6294365 2.9392827
v -0.50899667 -2.2703328 1.1156347
v -0.8257847 -2.2647076 1.2559357
v -0.45382285 -2.0608482 1.060139
v -0.9767638 -1.4814157 1.3620751
v -1.2040858 -2.246862 1.2682772
v -1.6084813 -1.999613 0.9735949
v -1.1965629 -1.2139254 1.1658946
v -1.4211215 -2.2429042 1.0816349
v -1.0330639 -0.055796742 2.0735588
v -0.30039582 -0.21237588 2.1513774
v -0.5375758 0.7193489 2.147571
v -0.25148144 -0.09952545 2.2135189
v -0.5262494 0.76137877 2.1092718
v -0.00031914655 1.0310293 3.0236363
v -1.1164262 1.0272397 2.6254392
v -0.5375758 0.7193489 2.147571
v -0.5262494 0.76137877 2.1092718
v -1.1602342 1.0753734 2.624093
v 0.017002225 0.7000997 4.15258
v -0.7510806 1.2761029 3.7053585
v 0.019016363 0.7485523 4.1843286
v -0.72556317 1.2014933 3.770993
v -1.0948653 1.1270972 3.7297525
v -1.0301938 1.0821083 3.790935
v -1.1986406 0.43680564 3.8366928
v -1.1279163 0.40113994 3.8548055
v -0.825806 -0.42650414 3.6760528
v -0.770035 -0.39099973 3.6547382
v 1.6493395E-05 -1.3246847 2.928684
v 1.5686623E-05 -1.2679621 2.96015
v -1.6739242 -0.48274732 4.7383738
v -1.779515 -0.80591464 5.192257
v -1.1758263 -0.8505156 4.93618
v -1.1529708 -0.08729887 4.659067
v -1.5482122 -0.06764722 4.337386
v -1.680296 0.2992444 4.1416245
v -1.9366596 0.06388044 4.340728
v -1.680296 0.2992444 4.1416245
v -2.1144936 0.08078861 4.1807413
v -1.9366596 0.06388044 4.340728
v -2.528348 0.09620142 4.5469136
v -2.398283 0.067845106 4.6933765
v -2.010441 -0.0111403465 5.1418304
v -2.8833213 0.6591263 3.67231
v -2.4187827 0.58964276 3.5233276
v -2.281778 1.1588933 3.852927
v -2.2488177 0.7917397 3.5429666
v -1.7041261 0.82495165 4.08819
v -1.6508653 1.0032465 4.6821833
v -1.2817053 0.32259095 3.2092366
v -1.1164262 1.0272397 2.6254392
v -1.1602342 1.0753734 2.624093
v -1.346625 0.31717086 3.2264204
v -0.81994456 -0.42080426 3.2523797
v -0.87380415 -0.5874845 3.1724463
v -0.28142163 -0.50937605 2.5579655
v -0.2828767 -0.90599424 2.6172304
v -0.217045 -0.48974878 2.5346644
v -0.18536347 -0.5246709 2.5392034
v 8.907069E-06 -0.43907142 2.3005838
v 1.4743231E-05 -0.72938555 2.1679204
v -2.3569355E-06 0.35076144 2.6043181
v -0.54866314 -0.8619865 5.4582615
v -0.5102594 -0.6512817 6.2376413
v -0.42200962 -1.0498346 6.1799264
v -0.5305227 -1.0055668 5.3769283
v -0.5613321 -0.9173652 5.228845
v -0.6625967 -1.5087899 5.2426147
v -0.49533683 -1.2449417 6.240908
v -0.59282184 -1.4146789 5.3588476
v -0.47664273 -1.3804439 5.708112
v -0.4334848 -1.52844 5.942796
v -0.37154433 -1.5675213 6.181276
v -0.5058256 -1.3996487 5.5094304
v -0.21941948 -1.627487 5.6751466
v -0.33643052 -1.6586123 5.494285
v -0.37931567 -1.7439328 5.346421
v -0.37931567 -1.7439328 5.346421
v -0.6625967 -1.5087899 5.2426147
v -0.59282184 -1.4146789 5.3588476
v -0.38024884 -1.8203552 5.258475
v 0.004346651 -1.7856575 5.332171
v 0.0046125483 -1.874379 5.216512
v 0.0037347516 -1.6951617 5.532638
v -0.33643052 -1.6586123 5.494285
v -0.21941948 -1.627487 5.6751466
v -0.6625967 -1.5087899 5.2426147
v -0.38024884 -1.8203552 5.258475
v 0.0025325688 -1.5122179 4.9526353
v -0.27769846 -1.1993022 5.0673013
v -0.5613321 -0.9173652 5.228845
v -0.0007757973 -1.0593538 4.9770536
v -0.27925152 -0.99274224 5.094462
v -1.0948653 1.1270972 3.7297525
v -1.346625 0.31717086 3.2264204
v -1.1602342 1.0753734 2.624093
v -1.1986406 0.43680564 3.8366928
v -0.825806 -0.42650414 3.6760528
v -0.87380415 -0.5874845 3.1724463
v -0.7926299 -0.80470407 3.23463
v -0.7606156 -0.9677682 2.678893
v -0.7510806 1.2761029 3.7053585
v -1.0948653 1.1270972 3.7297525
v -1.1602342 1.0753734 2.624093
v -0.4708498 1.2843382 2.5777636
v -0.5262494 0.76137877 2.1092718
v -0.00031914655 1.0310293 3.0236363
v 0.009558782 1.0466778 3.7420447
v 0.019016363 0.7485523 4.1843286
v -0.825806 -0.42650414 3.6760528
v 1.6493395E-05 -1.3246847 2.928684
v 1.7137812E-05 -1.1237004 2.284144
v -0.7926299 -0.80470407 3.23463
v -0.63410103 -1.0920072 2.743071
v -0.7606156 -0.9677682 2.678893
v 1.8794464E-05 -0.89664364 1.9018267
v -0.052186258 -1.0104916 2.0987983
v 1.7031556E-05 -0.6154231 1.6056585
v 1.4743231E-05 -0.72938555 2.1679204
v -0.052186258 -1.0104916 2.0987983
v 1.7031556E-05 -0.6154231 1.6056585
v -0.2828767 -0.90599424 2.6172304
v -0.7606156 -0.9677682 2.678893
v -0.87380415 -0.5874845 3.1724463
v -1.9509974 1.3441914 3.0373
v -1.8231015 0.97181845 3.3079736
v -2.0063252 1.5974817 3.1561375
v -2.0171156 1.2967043 3.707181
v -2.0408537 1.5874727 3.5041327
v -2.1602771 0.9263501 3.2196326
v -2.281778 1.1588933 3.852927
v -2.0171156 1.2967043 3.707181
v -1.8231015 0.97181845 3.3079736
v 0.008103833 -0.6120784 6.2290916
v -0.42200962 -1.0498346 6.1799264
v -0.5102594 -0.6512817 6.2376413
v -0.0015472686 -0.99616206 6.3499684
v -0.27369133 -1.3001344 6.392185
v 0.0002343338 -1.4220457 6.432166
v -0.49533683 -1.2449417 6.240908
v 0.0021485593 -1.6748022 6.24809
v -0.37154433 -1.5675213 6.181276
vt 0.76092815 0.8767158
vt 0.7174094 0.91054726
vt 0.76092815 0.95057213
vt 0.38543808 0.96915483
vt 0.38543808 0.8693485
vt 0.32501337 0.9344189
vt 0.40212393 0.7568116
vt 0.42906108 0.79320693
vt 0.42906108 0.6946838
vt 0.64721847 0.83391285
vt 0.6187177 0.852685
vt 0.64721847 0.8863988
vt 0.40864563 0.8004855
vt 0.40212417 0.8554132
vt 0.4314282 0.8554132
vt 0.8731629 0.288234
vt 0.85169375 0.31012797
vt 0.8731629 0.33410096
vt 0.76092815 0.8767158
vt 0.76092815 0.95057213
vt 0.7174094 0.91054726
vt 0.38543808 0.96915483
vt 0.32501337 0.9344189
vt 0.38543808 0.8693485
vt 0.40212393 0.7568116
vt 0.42906108 0.6946838
vt 0.42906108 0.79320693
vt 0.64721847 0.83391285
vt 0.64721847 0.8863988
vt 0.6187177 0.852685
vt 0.40864563 0.8004855
vt 0.4314282 0.8554132
vt 0.40212417 0.8554132
vt 0.8731629 0.288234
vt 0.8731629 0.33410096
vt 0.85169375 0.31012797
vt 0.93716276 0.87058735
vt 0.95343685 0.89970946
vt 0.9799932 0.91859293
vt 0.9427136 0.89419115
vt 0.93181825 0.89648974
vt 0.911044 0.8307359
vt 0.9316137 0.83232665
vt 0.9799932 0.80742836
vt 0.10851145 0.33349717
vt 0.13080215 0.36262
vt 0.1400299 0.3113687
vt 0.035931587 0.41149533
vt 0.024571896 0.32702982
vt 0.0050616264 0.3596238
vt 0.08769798 0.28441465
vt 0.17019081 0.20653963
vt 0.08456516 0.4494164
vt 0.083266735 0.49250197
vt 0.042717457 0.51571035
vt 0.13373709 0.4635235
vt 0.21156597 0.41879463
vt 0.21291876 0.3210987
vt 0.19684744 0.2890222
vt 0.25440502 0.39410865
vt 0.13946295 0.16356409
vt 0.15124083 0.07156634
vt 0.19101858 0.09412408
vt 0.07759905 0.16957974
vt 0.05247307 0.23621142
vt 0.0036392212 0.30024278
vt 0.2229681 0.026929379
vt 0.25050545 0.022252083
vt 0.22280836 0.003639102
vt 0.25440502 0.07686579
vt 0.22743464 0.10261488
vt 0.45856917 0.6098685
vt 0.5120082 0.5537622
vt 0.43986475 0.5376189
vt 0.46678388 0.51993704
vt 0.5374718 0.47976518
vt 0.45610917 0.3930211
vt 0.59933805 0.57066965
vt 0.62368786 0.5123229
vt 0.6481185 0.6098685
vt 0.3537655 0.6874056
vt 0.42488575 0.6800592
vt 0.38486463 0.61382914
vt 0.2900216 0.68542314
vt 0.31718183 0.60575175
vt 0.3473574 0.54210377
vt 0.40935624 0.5075567
vt 0.2854784 0.5194292
vt 0.35032767 0.4909482
vt 0.35219908 0.45871925
vt 0.26393032 0.45060992
vt 0.26645523 0.44946337
vt 0.35109514 0.4470091
vt 0.34671634 0.4100144
vt 0.4248857 0.36387968
vt 0.26168346 0.44962025
vt 0.8411019 0.7899053
vt 0.7838191 0.78166175
vt 0.83817935 0.8318331
vt 0.89320564 0.81448936
vt 0.9037658 0.86935806
vt 0.9019189 0.7845733
vt 0.9037658 0.6827538
vt 0.7884561 0.7465446
vt 0.81633425 0.6499436
vt 0.43258637 0.032122433
vt 0.31396526 0.0036391318
vt 0.37069082 0.083407134
vt 0.4106114 0.110140175
vt 0.3962828 0.1806409
vt 0.2999698 0.19097976
vt 0.33613086 0.27186844
vt 0.38626117 0.26024532
vt 0.43258643 0.35557207
vt 0.2993983 0.3566014
vt 0.29970932 0.26645625
vt 0.2754557 0.26274022
vt 0.26168334 0.30305636
vt 0.16784751 0.7458852
vt 0.25242734 0.74616045
vt 0.21857738 0.7013248
vt 0.15136826 0.6648097
vt 0.20250392 0.599566
vt 0.25242734 0.59194356
vt 0.24932039 0.52717614
vt 0.21102023 0.5229885
vt 0.39318585 0.8693485
vt 0.3927164 0.9197998
vt 0.42848969 0.88240623
vt 0.42848969 0.9918647
vt 0.83725333 0.6245022
vt 0.8650172 0.6323495
vt 0.8650451 0.6158414
vt 0.83196056 0.59984875
vt 0.8545023 0.56402636
vt 0.8123895 0.57854414
vt 0.80810034 0.60399294
vt 0.8041513 0.6323495
vt 0.843976 0.89337015
vt 0.8063984 0.87663627
vt 0.7838192 0.8929435
vt 0.843976 0.9753927
vt 0.7871585 0.9748901
vt 0.6933649 0.052872658
vt 0.72706753 0.015985489
vt 0.6669389 0.0036392212
vt 0.6074452 0.014723778
vt 0.59009033 0.09092951
vt 0.6934568 0.09343052
vt 0.74957585 0.05772066
vt 0.7141083 0.138731
vt 0.63362813 0.15272665
vt 0.70400053 0.16181803
vt 0.66698974 0.2426033
vt 0.7129891 0.20186234
vt 0.72678816 0.19093657
vt 0.7296377 0.2760334
vt 0.7495758 0.22005558
vt 0.55891633 0.9662305
vt 0.61143947 0.9757911
vt 0.5922339 0.9015738
vt 0.5442295 0.9060155
vt 0.54845953 0.88612115
vt 0.56860304 0.8587924
vt 0.58318543 0.83391297
vt 0.61143947 0.8425299
vt 0.58281195 0.34121418
vt 0.51290727 0.3570695
vt 0.53652984 0.38574266
vt 0.5640419 0.2506776
vt 0.49579954 0.26056576
vt 0.48622772 0.3470602
vt 0.49326953 0.16512108
vt 0.54634494 0.1373272
vt 0.43986475 0.1499219
vt 0.47888508 0.13418627
vt 0.53810287 0.12372589
vt 0.45689094 0.08685875
vt 0.5121323 0.08250618
vt 0.49097848 0.0036392212
vt 0.57778907 0.02139616
vt 0.58281195 0.084019184
vt 0.56546235 0.15651321
vt 0.7765409 0.6499436
vt 0.7361802 0.69964933
vt 0.77622354 0.7437546
vt 0.67653656 0.7371383
vt 0.77654094 0.8337269
vt 0.6879344 0.8361132
vt 0.6553969 0.86943746
vt 0.70291305 0.8868731
vt 0.65539694 0.971077
vt 0.71013117 0.971077
vt 0.67677927 0.8767158
vt 0.8090407 0.32149696
vt 0.84102654 0.36681628
vt 0.84441555 0.3240695
vt 0.8116953 0.36468315
vt 0.7733887 0.3215344
vt 0.7866004 0.288234
vt 0.7821007 0.36681628
vt 0.14011115 0.8014283
vt 0.12317091 0.8358741
vt 0.1353504 0.8443204
vt 0.12005818 0.878158
vt 0.14011115 0.9034114
vt 0.9476197 0.92587113
vt 0.9110441 0.9448347
vt 0.9110441 0.99636084
vt 0.9476197 0.98801386
vt 0.87031114 0.39302105
vt 0.9275825 0.415932
vt 0.9168987 0.39369053
vt 0.856012 0.4729281
vt 0.8182663 0.42019266
vt 0.9253888 0.4796664
vt 0.8041513 0.45412713
vt 0.9275825 0.55208296
vt 0.8889886 0.5567482
vt 0.8193766 0.21626759
vt 0.8036128 0.23882651
vt 0.873227 0.2804551
vt 0.75685394 0.12812448
vt 0.773309 0.25874615
vt 0.8158251 0.13588381
vt 0.85866606 0.13524365
vt 0.873227 0.06848431
vt 0.791224 0.053290367
vt 0.7641256 0.055696964
vt 0.7682109 0.015006065
vt 0.8140278 0.0036392212
vt 0.81470394 0.053386927
vt 0.5175346 0.97618496
vt 0.5369512 0.9629216
vt 0.4913391 0.9509202
vt 0.5369512 0.8692274
vt 0.45981216 0.9219352
vt 0.44022834 0.8757967
vt 0.53517056 0.83391285
vt 0.43986475 0.90867615
vt 0.5900903 0.28797352
vt 0.62745833 0.35935897
vt 0.6769434 0.28331167
vt 0.68067384 0.28600973
vt 0.62803996 0.36523026
vt 0.68067384 0.38036174
vt 0.6286705 0.7095578
vt 0.6337411 0.7133043
vt 0.6337411 0.6171466
vt 0.6284676 0.62174
vt 0.14408994 0.5304086
vt 0.14407027 0.52298856
vt 0.0575552 0.5249157
vt 0.060165763 0.5318036
vt 0.017217755 0.5475795
vt 0.024039268 0.5512183
vt 0.003639102 0.62869143
vt 0.011310577 0.6288619
vt 0.050047874 0.75683355
vt 0.05604267 0.75208044
vt 0.14408994 0.7941501
vt 0.14408052 0.7870438
vt 0.94373345 0.29501605
vt 0.89322567 0.34452772
vt 0.9636524 0.34466767
vt 0.8805053 0.26835656
vt 0.92145467 0.23793936
vt 0.93056273 0.19030094
vt 0.9636524 0.2190423
vt 0.15136838 0.8828293
vt 0.18459916 0.8790581
vt 0.18772888 0.8523823
vt 0.249897 0.8515595
vt 0.24964237 0.87351906
vt 0.249897 0.9400712
vt 0.22085428 0.7534387
vt 0.17005515 0.7760277
vt 0.9802589 0.48951614
vt 0.93486077 0.43969166
vt 0.9363083 0.52018106
vt 0.9802589 0.393021
vt 0.6138434 0.7517505
vt 0.6211893 0.6171466
vt 0.6151098 0.6220794
vt 0.6211893 0.7543088
vt 0.5424597 0.81211025
vt 0.5444716 0.8262756
vt 0.48040593 0.77715325
vt 0.47013938 0.8266345
vt 0.47360125 0.7733006
vt 0.46921778 0.7773157
vt 0.44773105 0.77827287
vt 0.43986472 0.8160236
vt 0.46746588 0.6835647
vt 0.030359745 0.847517
vt 0.112780094 0.868281
vt 0.112780094 0.8014283
vt 0.022153854 0.86572623
vt 0.0068712234 0.8606516
vt 0.0036392212 0.9245527
vt 0.111730576 0.8989171
vt 0.014655113 0.9122443
vt 0.053132057 0.90880775
vt 0.07515764 0.92811567
vt 0.09974432 0.9358761
vt 0.032277107 0.9102699
vt 0.04845476 0.93554854
vt 0.028409481 0.9385146
vt 0.012401581 0.948142
vt 0.88494706 0.9226029
vt 0.8577864 0.9509256
vt 0.87466 0.9560555
vt 0.8970885 0.9206567
vt 0.882169 0.87921387
vt 0.8970885 0.87663627
vt 0.86154366 0.8830234
vt 0.86712503 0.92085326
vt 0.8512542 0.9104985
vt 0.7661104 0.35277665
vt 0.68795204 0.34717986
vt 0.7285374 0.3803617
vt 0.72703123 0.3177069
vt 0.7661104 0.28823394
vt 0.69608253 0.30455917
vt 0.73109645 0.29639655
vt 0.67792726 0.64156044
vt 0.7968731 0.64266527
vt 0.72660685 0.52130425
vt 0.6553967 0.5478516
vt 0.68288445 0.42728168
vt 0.7479801 0.43047652
vt 0.7372756 0.40265682
vt 0.7968731 0.393021
vt 0.3081553 0.86096895
vt 0.26168334 0.75789654
vt 0.26812422 0.85728633
vt 0.34041262 0.7695457
vt 0.33541918 0.6946839
vt 0.3948456 0.73062575
vt 0.3948456 0.8140665
vt 0.39473712 0.86206996
vt 0.8805054 0.0036392212
vt 0.9801983 0.08590722
vt 0.9801983 0.00670743
vt 0.8874839 0.057162046
vt 0.9081686 0.10700607
vt 0.8906271 0.11667371
vt 0.9782284 0.13529897
vt 0.96848243 0.18069983
vt 0.97430557 0.18302274
vt 0.9110441 0.76331913
vt 0.9639616 0.8001498
vt 0.9656298 0.79412675
vt 0.930436 0.7378639
vt 0.9656298 0.69657063
vt 0.9209312 0.6499436
vt 0.93157876 0.5800752
vt 0.90383935 0.5640264
vt 0.93157876 0.6334191
vt 0.8727588 0.6273424
vt 0.8723235 0.58724254
vt 0.9388571 0.63908076
vt 0.9780266 0.63908076
vt 0.96788716 0.5860343
vt 0.94412255 0.5640266
vt 0.31773514 0.8753247
vt 0.26274544 0.8693483
vt 0.2708798 0.92137074
vt 0.3170637 0.90850973
vt 0.2861817 0.94313264
vt 0.3168773 0.9501102
vt 0.26168346 0.9447961
vt 0.31773514 0.987437
vt 0.27583432 0.9821174
vt 0.93716276 0.87058735
vt 0.9799932 0.91859293
vt 0.95343685 0.89970946
vt 0.9427136 0.89419115
vt 0.93181825 0.89648974
vt 0.911044 0.8307359
vt 0.9316137 0.83232665
vt 0.9799932 0.80742836
vt 0.10851145 0.33349717
vt 0.1400299 0.3113687
vt 0.13080215 0.36262
vt 0.035931587 0.41149533
vt 0.024571896 0.32702982
vt 0.0050616264 0.3596238
vt 0.08769798 0.28441465
vt 0.17019081 0.20653963
vt 0.08456516 0.4494164
vt 0.083266735 0.49250197
vt 0.042717457 0.51571035
vt 0.13373709 0.4635235
vt 0.21156597 0.41879463
vt 0.21291876 0.3210987
vt 0.19684744 0.2890222
vt 0.25440502 0.39410865
vt 0.13946295 0.16356409
vt 0.15124083 0.07156634
vt 0.19101858 0.09412408
vt 0.07759905 0.16957974
vt 0.05247307 0.23621142
vt 0.0036392212 0.30024278
vt 0.2229681 0.026929379
vt 0.25050545 0.022252083
vt 0.22280836 0.003639102
vt 0.25440502 0.07686579
vt 0.22743464 0.10261488
vt 0.45856917 0.6098685
vt 0.43986475 0.5376189
vt 0.5120082 0.5537622
vt 0.46678388 0.51993704
vt 0.5374718 0.47976518
vt 0.45610917 0.3930211
vt 0.59933805 0.57066965
vt 0.62368786 0.5123229
vt 0.6481185 0.6098685
vt 0.3537655 0.6874056
vt 0.38486463 0.61382914
vt 0.42488575 0.6800592
vt 0.2900216 0.68542314
vt 0.31718183 0.60575175
vt 0.3473574 0.54210377
vt 0.40935624 0.5075567
vt 0.2854784 0.5194292
vt 0.35032767 0.4909482
vt 0.35219908 0.45871925
vt 0.26393032 0.45060992
vt 0.26645523 0.44946337
vt 0.35109514 0.4470091
vt 0.34671634 0.4100144
vt 0.4248857 0.36387968
vt 0.26168346 0.44962025
vt 0.8411019 0.7899053
vt 0.83817935 0.8318331
vt 0.7838191 0.78166175
vt 0.89320564 0.81448936
vt 0.9037658 0.86935806
vt 0.9019189 0.7845733
vt 0.9037658 0.6827538
vt 0.7884561 0.7465446
vt 0.81633425 0.6499436
vt 0.43258637 0.032122433
vt 0.37069082 0.083407134
vt 0.31396526 0.0036391318
vt 0.4106114 0.110140175
vt 0.3962828 0.1806409
vt 0.2999698 0.19097976
vt 0.33613086 0.27186844
vt 0.38626117 0.26024532
vt 0.43258643 0.35557207
vt 0.2993983 0.3566014
vt 0.29970932 0.26645625
vt 0.2754557 0.26274022
vt 0.26168334 0.30305636
vt 0.16784751 0.7458852
vt 0.21857738 0.7013248
vt 0.25242734 0.74616045
vt 0.15136826 0.6648097
vt 0.20250392 0.599566
vt 0.25242734 0.59194356
vt 0.24932039 0.52717614
vt 0.21102023 0.5229885
vt 0.39318585 0.8693485
vt 0.42848969 0.88240623
vt 0.3927164 0.9197998
vt 0.42848969 0.9918647
vt 0.83725333 0.6245022
vt 0.8650451 0.6158414
vt 0.8650172 0.6323495
vt 0.83196056 0.59984875
vt 0.8545023 0.56402636
vt 0.8123895 0.57854414
vt 0.80810034 0.60399294
vt 0.8041513 0.6323495
vt 0.843976 0.89337015
vt 0.7838192 0.8929435
vt 0.8063984 0.87663627
vt 0.843976 0.9753927
vt 0.7871585 0.9748901
vt 0.6933649 0.052872658
vt 0.6669389 0.0036392212
vt 0.72706753 0.015985489
vt 0.6074452 0.014723778
vt 0.59009033 0.09092951
vt 0.6934568 0.09343052
vt 0.74957585 0.05772066
vt 0.7141083 0.138731
vt 0.63362813 0.15272665
vt 0.70400053 0.16181803
vt 0.66698974 0.2426033
vt 0.7129891 0.20186234
vt 0.72678816 0.19093657
vt 0.7296377 0.2760334
vt 0.7495758 0.22005558
vt 0.55891633 0.9662305
vt 0.5922339 0.9015738
vt 0.61143947 0.9757911
vt 0.5442295 0.9060155
vt 0.54845953 0.88612115
vt 0.56860304 0.8587924
vt 0.58318543 0.83391297
vt 0.61143947 0.8425299
vt 0.58281195 0.34121418
vt 0.53652984 0.38574266
vt 0.51290727 0.3570695
vt 0.5640419 0.2506776
vt 0.49579954 0.26056576
vt 0.48622772 0.3470602
vt 0.49326953 0.16512108
vt 0.54634494 0.1373272
vt 0.43986475 0.1499219
vt 0.47888508 0.13418627
vt 0.53810287 0.12372589
vt 0.45689094 0.08685875
vt 0.5121323 0.08250618
vt 0.49097848 0.0036392212
vt 0.57778907 0.02139616
vt 0.58281195 0.084019184
vt 0.56546235 0.15651321
vt 0.7765409 0.6499436
vt 0.77622354 0.7437546
vt 0.7361802 0.69964933
vt 0.67653656 0.7371383
vt 0.77654094 0.8337269
vt 0.6879344 0.8361132
vt 0.6553969 0.86943746
vt 0.70291305 0.8868731
vt 0.71013117 0.971077
vt 0.65539694 0.971077
vt 0.67677927 0.8767158
vt 0.8090407 0.32149696
vt 0.84441555 0.3240695
vt 0.84102654 0.36681628
vt 0.8116953 0.36468315
vt 0.7733887 0.3215344
vt 0.7866004 0.288234
vt 0.7821007 0.36681628
vt 0.14011115 0.8014283
vt 0.1353504 0.8443204
vt 0.12317091 0.8358741
vt 0.12005818 0.878158
vt 0.14011115 0.9034114
vt 0.9476197 0.92587113
vt 0.9476197 0.98801386
vt 0.9110441 0.99636084
vt 0.9110441 0.9448347
vt 0.87031114 0.39302105
vt 0.9168987 0.39369053
vt 0.9275825 0.415932
vt 0.856012 0.4729281
vt 0.8182663 0.42019266
vt 0.9253888 0.4796664
vt 0.8041513 0.45412713
vt 0.9275825 0.55208296
vt 0.8889886 0.5567482
vt 0.8193766 0.21626759
vt 0.873227 0.2804551
vt 0.8036128 0.23882651
vt 0.75685394 0.12812448
vt 0.773309 0.25874615
vt 0.8158251 0.13588381
vt 0.85866606 0.13524365
vt 0.873227 0.06848431
vt 0.791224 0.053290367
vt 0.7641256 0.055696964
vt 0.7682109 0.015006065
vt 0.8140278 0.0036392212
vt 0.81470394 0.053386927
vt 0.5175346 0.97618496
vt 0.4913391 0.9509202
vt 0.5369512 0.9629216
vt 0.5369512 0.8692274
vt 0.45981216 0.9219352
vt 0.44022834 0.8757967
vt 0.53517056 0.83391285
vt 0.43986475 0.90867615
vt 0.5900903 0.28797352
vt 0.6769434 0.28331167
vt 0.62745833 0.35935897
vt 0.68067384 0.28600973
vt 0.62803996 0.36523026
vt 0.68067384 0.38036174
vt 0.6286705 0.7095578
vt 0.6284676 0.62174
vt 0.6337411 0.6171466
vt 0.6337411 0.7133043
vt 0.14408994 0.5304086
vt 0.0575552 0.5249157
vt 0.14407027 0.52298856
vt 0.060165763 0.5318036
vt 0.017217755 0.5475795
vt 0.024039268 0.5512183
vt 0.003639102 0.62869143
vt 0.011310577 0.6288619
vt 0.050047874 0.75683355
vt 0.05604267 0.75208044
vt 0.14408994 0.7941501
vt 0.14408052 0.7870438
vt 0.94373345 0.29501605
vt 0.9636524 0.34466767
vt 0.89322567 0.34452772
vt 0.8805053 0.26835656
vt 0.92145467 0.23793936
vt 0.93056273 0.19030094
vt 0.9636524 0.2190423
vt 0.15136838 0.8828293
vt 0.18772888 0.8523823
vt 0.18459916 0.8790581
vt 0.249897 0.8515595
vt 0.24964237 0.87351906
vt 0.249897 0.9400712
vt 0.22085428 0.7534387
vt 0.17005515 0.7760277
vt 0.9802589 0.48951614
vt 0.9363083 0.52018106
vt 0.93486077 0.43969166
vt 0.9802589 0.393021
vt 0.6138434 0.7517505
vt 0.6151098 0.6220794
vt 0.6211893 0.6171466
vt 0.6211893 0.7543088
vt 0.5424597 0.81211025
vt 0.5444716 0.8262756
vt 0.48040593 0.77715325
vt 0.47013938 0.8266345
vt 0.47360125 0.7733006
vt 0.46921778 0.7773157
vt 0.44773105 0.77827287
vt 0.43986472 0.8160236
vt 0.46746588 0.6835647
vt 0.030359745 0.847517
vt 0.112780094 0.8014283
vt 0.112780094 0.868281
vt 0.022153854 0.86572623
vt 0.0068712234 0.8606516
vt 0.0036392212 0.9245527
vt 0.111730576 0.8989171
vt 0.014655113 0.9122443
vt 0.053132057 0.90880775
vt 0.07515764 0.92811567
vt 0.09974432 0.9358761
vt 0.032277107 0.9102699
vt 0.04845476 0.93554854
vt 0.028409481 0.9385146
vt 0.012401581 0.948142
vt 0.88494706 0.9226029
vt 0.87466 0.9560555
vt 0.8577864 0.9509256
vt 0.8970885 0.9206567
vt 0.882169 0.87921387
vt 0.8970885 0.87663627
vt 0.86154366 0.8830234
vt 0.86712503 0.92085326
vt 0.8512542 0.9104985
vt 0.7661104 0.35277665
vt 0.7285374 0.3803617
vt 0.68795204 0.34717986
vt 0.72703123 0.3177069
vt 0.7661104 0.28823394
vt 0.69608253 0.30455917
vt 0.73109645 0.29639655
vt 0.67792726 0.64156044
vt 0.72660685 0.52130425
vt 0.7968731 0.64266527
vt 0.6553967 0.5478516
vt 0.68288445 0.42728168
vt 0.7479801 0.43047652
vt 0.7372756 0.40265682
vt 0.7968731 0.393021
vt 0.3081553 0.86096895
vt 0.26812422 0.85728633
vt 0.26168334 0.75789654
vt 0.34041262 0.7695457
vt 0.33541918 0.6946839
vt 0.3948456 0.73062575
vt 0.3948456 0.8140665
vt 0.39473712 0.86206996
vt 0.8805054 0.0036392212
vt 0.9801983 0.00670743
vt 0.9801983 0.08590722
vt 0.8874839 0.057162046
vt 0.9081686 0.10700607
vt 0.8906271 0.11667371
vt 0.9782284 0.13529897
vt 0.96848243 0.18069983
vt 0.97430557 0.18302274
vt 0.9110441 0.76331913
vt 0.9656298 0.79412675
vt 0.9639616 0.8001498
vt 0.930436 0.7378639
vt 0.9656298 0.69657063
vt 0.9209312 0.6499436
vt 0.93157876 0.5800752
vt 0.93157876 0.6334191
vt 0.90383935 0.5640264
vt 0.8727588 0.6273424
vt 0.8723235 0.58724254
vt 0.9388571 0.63908076
vt 0.94412255 0.5640266
vt 0.96788716 0.5860343
vt 0.9780266 0.63908076
vt 0.31773514 0.8753247
vt 0.2708798 0.92137074
vt 0.26274544 0.8693483
vt 0.3170637 0.90850973
vt 0.2861817 0.94313264
vt 0.3168773 0.9501102
vt 0.26168346 0.9447961
vt 0.31773514 0.987437
vt 0.27583432 0.9821174
vn -0.0064754765 -0.96713805 0.04699105
vn 0.00028512487 -0.96662253 0.18323198
vn 0.283987 -0.88036484 -0.24079031
vn 0.5291477 0.8160503 0.20496218
vn 0.57541895 0.10772864 -0.7587755
vn 0.26882437 0.47019336 -0.8077039
vn 0.6844983 -0.7178688 -0.07230818
vn 0.459302 0.106570065 -0.8638071
vn 0.6030329 0.37123835 -0.6502553
vn 0.0019075676 -0.08870478 -0.9698299
vn 0.003635227 -0.9743732 -0.1100667
vn 0.46907344 -0.86400914 -0.07703806
vn 0.51249945 -0.029648729 0.8243589
vn 0.0036654077 -0.2190955 0.9416689
vn 0.008131855 -0.08793994 0.9605713
vn -0.08902016 -0.9793135 0.1817128
vn 0.55281335 -0.7151638 0.42771274
vn 0.8914112 -0.4528548 0.01757164
vn -0.0064754765 -0.96713805 0.04699105
vn -0.30204892 -0.8422414 -0.2594198
vn 0.00028512487 -0.96662253 0.18323198
vn -0.5291748 0.40459183 -0.7246302
vn -0.2688221 -0.17869787 -0.85062516
vn -0.5788892 -0.3607154 -0.5889436
vn -0.6844776 -0.29001373 0.6407956
vn -0.60360897 -0.3003977 -0.62043583
vn -0.4592858 -0.6590602 -0.4897285
vn 0.0019075676 -0.08870478 -0.9698299
vn -0.46239558 -0.867543 -0.07929942
vn 0.003635227 -0.9743732 -0.1100667
vn -0.51257616 -0.110907115 0.8215028
vn 0.008131855 -0.08793994 0.9605713
vn 0.0036654077 -0.2190955 0.9416689
vn 0.07880414 0.7623235 -0.6423806
vn -0.86497295 0.49319097 -0.09265314
vn -0.6056634 0.4912586 -0.6259688
vn -0.83863044 0.47455835 0.26738232
vn -0.82888573 -0.5488592 0.108172774
vn -0.3415315 -0.51781034 0.7843648
vn -0.9736378 -0.22715695 0.020708874
vn -0.61156505 0.07732695 0.7874063
vn -0.27126926 0.39430654 0.87802917
vn -0.97003907 0.020695 0.24206571
vn -0.40964848 -0.48586312 -0.7720914
vn 0.21128349 0.6854727 -0.5222423
vn 0.47455913 0.74330056 -0.084985584
vn 0.2330786 0.1358304 -0.7883794
vn 0.33947036 0.64260423 0.5744186
vn 0.57675976 0.73292714 -0.12505388
vn 0.4609413 0.53694284 0.6039429
vn 0.2245078 0.6539898 -0.58245206
vn -0.4975471 -0.17012227 -0.7125535
vn 0.2936403 0.8295127 0.2894484
vn 0.03243269 0.8384274 0.42291206
vn 0.023208603 0.47575623 0.82248574
vn 0.03986772 0.92303437 0.07266954
vn 0.032390594 0.9219859 -0.06920366
vn 0.2744043 0.341557 0.82097065
vn 0.5434731 0.072757214 0.77042675
vn 0.040746927 0.5838878 0.7279414
vn 0.16412577 -0.32418662 -0.768463
vn 0.722835 -0.42517185 -0.5447369
vn -0.40964848 -0.48586312 -0.7720914
vn 0.7441128 0.26342618 -0.49377075
vn 0.8149285 0.5230222 0.057161987
vn 0.86955094 0.23540522 0.41614082
vn 0.42633015 -0.4454034 -0.78731084
vn 0.15999846 -0.8417822 -0.51556075
vn 0.8914112 -0.4528548 0.01757164
vn -0.48031896 -0.38227144 -0.7894063
vn -0.45820186 0.31571898 -0.8308869
vn 0.23449756 -0.69945467 0.56495625
vn 0.24250111 -0.870559 -0.08612114
vn 0.6298363 -0.6241478 -0.29999182
vn 0.7660457 -0.5027252 -0.27356923
vn 0.61097485 -0.4816074 0.5704182
vn 0.21150228 -0.8567959 0.4083345
vn 0.2330786 0.1358304 -0.7883794
vn 0.5434731 0.072757214 0.77042675
vn 0.47455913 0.74330056 -0.084985584
vn -0.6251785 0.64490044 -0.438918
vn -0.41222438 0.90349203 0.10834199
vn -0.87375623 0.4084017 0.26387134
vn -0.84876037 -0.075081035 -0.5233946
vn -0.40897152 -0.61661595 -0.66987634
vn -0.9583507 0.17999747 -0.21912593
vn -0.25990826 0.75668705 0.5841371
vn -0.6733404 -0.49252003 -0.53509396
vn -0.9815378 0.16546668 0.09041432
vn -0.75806445 0.55188435 -0.32427567
vn -0.203676 -0.123097286 -0.9446514
vn -0.4611773 0.14249091 -0.8522741
vn -0.5590569 0.43704927 -0.6812888
vn 1.1239772E-06 0.35121605 -0.9082985
vn 0.00047738588 0.86960995 -0.43394235
vn -0.14175707 0.3083231 -0.9140903
vn 0.283987 -0.88036484 -0.24079031
vn 0.00028512487 -0.96662253 0.18323198
vn 0.09654174 -0.92790616 0.12746146
vn 0.6298363 -0.6241478 -0.29999182
vn 0.23449756 -0.69945467 0.56495625
vn 0.7660457 -0.5027252 -0.27356923
vn 0.21150228 -0.8567959 0.4083345
vn -0.0064754765 -0.96713805 0.04699105
vn 6.468428E-06 -0.8236456 0.5208373
vn 0.52657485 0.8340248 0.15922073
vn 0.9466611 0.09326194 -0.30829352
vn 0.9902132 0.0064050555 0.13940617
vn 0.38492906 0.7670751 0.51324946
vn 0.80815035 0.48467126 0.32854983
vn 0.80331445 -0.42605242 -0.4119665
vn 0.98166734 0.16848108 0.08867795
vn 0.5291477 0.8160503 0.20496218
vn 0.57541895 0.10772864 -0.7587755
vn 0.6030329 0.37123835 -0.6502553
vn 0.98425543 -0.17513514 -0.021539595
vn 0.75790876 -0.5862483 -0.27886358
vn 0.6844983 -0.7178688 -0.07230818
vn 0.5291477 0.8160503 0.20496218
vn -0.75806445 0.55188435 -0.32427567
vn -0.25990826 0.75668705 0.5841371
vn 0.80815035 0.48467126 0.32854983
vn 0.38492906 0.7670751 0.51324946
vn -0.87375623 0.4084017 0.26387134
vn -0.41222438 0.90349203 0.10834199
vn 0.52657485 0.8340248 0.15922073
vn 0.4609413 0.53694284 0.6039429
vn 0.57675976 0.73292714 -0.12505388
vn 0.86955094 0.23540522 0.41614082
vn 0.2245078 0.6539898 -0.58245206
vn 0.5368695 -0.82751 0.12198727
vn 0.0039499337 -0.98755366 0.024550889
vn 0.0048744385 -0.9536202 -0.26764622
vn 0.47447136 -0.87880576 -0.023873545
vn 0.0027133299 -0.8717428 0.48995587
vn 0.57516176 -0.74534297 0.33712405
vn 0.74441904 -0.6632795 -0.03760475
vn 0.91794145 -0.38047993 0.09128524
vn 0.4262622 -0.14875174 0.83951837
vn 0.51249945 -0.029648729 0.8243589
vn 0.008131855 -0.08793994 0.9605713
vn 0.33947036 0.64260423 0.5744186
vn 0.023208603 0.47575623 0.82248574
vn 0.4262622 -0.14875174 0.83951837
vn 0.33947036 0.64260423 0.5744186
vn 0.4609413 0.53694284 0.6039429
vn 0.86955094 0.23540522 0.41614082
vn 0.54270554 -0.3885967 0.7296605
vn 0.20719458 -0.72692466 0.5440757
vn 0.51249945 -0.029648729 0.8243589
vn 0.6955484 -0.6113504 0.3247643
vn 0.23449756 -0.69945467 0.56495625
vn 0.5849054 -0.7243043 0.27656028
vn 0.09654174 -0.92790616 0.12746146
vn -0.07887327 -0.85506463 0.4107964
vn 0.49157318 -0.65059566 -0.5145764
vn 0.00028512487 -0.96662253 0.18323198
vn -0.0061827665 -0.7790411 -0.5770315
vn -0.27126926 0.39430654 0.87802917
vn 0.7920977 0.24537013 0.55890507
vn 0.3477057 -0.08692351 0.9335659
vn -0.61156505 0.07732695 0.7874063
vn -0.82888573 -0.5488592 0.108172774
vn -0.3415315 -0.51781034 0.7843648
vn -0.08902016 -0.9793135 0.1817128
vn 0.55281335 -0.7151638 0.42771274
vn 0.3477057 -0.08692351 0.9335659
vn 0.8914112 -0.4528548 0.01757164
vn 0.55281335 -0.7151638 0.42771274
vn 0.7920977 0.24537013 0.55890507
vn 0.722835 -0.42517185 -0.5447369
vn 0.42633015 -0.4454034 -0.78731084
vn 0.9694358 0.21545552 -0.026570536
vn 0.5310566 0.32893825 0.62389934
vn 0.7441128 0.26342618 -0.49377075
vn 0.8235344 0.46602485 0.083827645
vn 0.4158532 0.2588554 0.75276494
vn 0.8149285 0.5230222 0.057161987
vn 0.8000026 -0.11911619 0.56464076
vn 0.86955094 0.23540522 0.41614082
vn 0.54270554 -0.3885967 0.7296605
vn 0.23895223 -0.7984839 0.55256194
vn -0.044069722 -0.4536677 0.82673013
vn -0.97003907 0.020695 0.24206571
vn -0.8439745 -0.4940881 -0.026362699
vn -0.7746069 -0.24146387 0.5164568
vn -0.4975471 -0.17012227 -0.7125535
vn 0.24250111 -0.870559 -0.08612114
vn 0.2330786 0.1358304 -0.7883794
vn 0.21128349 0.6854727 -0.5222423
vn -0.27126926 0.39430654 0.87802917
vn -0.7746069 -0.24146387 0.5164568
vn -0.18169336 0.45297164 0.7923962
vn -0.97003907 0.020695 0.24206571
vn -0.08902016 -0.9793135 0.1817128
vn -0.8009448 -0.3912328 0.45323664
vn -0.3415315 -0.51781034 0.7843648
vn -0.67202306 -0.7261715 -0.14511774
vn 0.15999846 -0.8417822 -0.51556075
vn 0.8914112 -0.4528548 0.01757164
vn -0.48031896 -0.38227144 -0.7894063
vn -0.80497235 -0.04673162 -0.5914694
vn -0.24558657 -0.9274707 -0.2819322
vn -0.067651406 -0.03072682 -0.99723554
vn 0.27096877 -0.8951267 -0.3535753
vn 0.6192353 -0.06406498 -0.7824023
vn -0.3415315 -0.51781034 0.7843648
vn -0.8009448 -0.3912328 0.45323664
vn -0.8918738 0.43536514 0.12254888
vn -0.83863044 0.47455835 0.26738232
vn -0.067651406 -0.03072682 -0.99723554
vn -0.84876037 -0.075081035 -0.5233946
vn -0.80497235 -0.04673162 -0.5914694
vn 0.046713974 0.76332116 -0.6438886
vn 0.6192353 -0.06406498 -0.7824023
vn -0.6251785 0.64490044 -0.438918
vn 0.9466611 0.09326194 -0.30829352
vn -0.41222438 0.90349203 0.10834199
vn 0.52657485 0.8340248 0.15922073
vn -0.40897152 -0.61661595 -0.66987634
vn 0.46021065 -0.8394331 -0.28802726
vn -0.84876037 -0.075081035 -0.5233946
vn 0.80331445 -0.42605242 -0.4119665
vn 0.9902132 0.0064050555 0.13940617
vn 0.032386214 -0.7081047 -0.6984617
vn -0.6733404 -0.49252003 -0.53509396
vn -0.203676 -0.123097286 -0.9446514
vn 0.36600977 -0.77526134 -0.5000583
vn 0.75790876 -0.5862483 -0.27886358
vn 0.6844983 -0.7178688 -0.07230818
vn 0.459302 0.106570065 -0.8638071
vn 0.020007394 -0.81484985 -0.5541363
vn -0.80497235 -0.04673162 -0.5914694
vn -0.84876037 -0.075081035 -0.5233946
vn -0.24558657 -0.9274707 -0.2819322
vn 0.46021065 -0.8394331 -0.28802726
vn 0.27096877 -0.8951267 -0.3535753
vn 0.9466611 0.09326194 -0.30829352
vn 0.9902132 0.0064050555 0.13940617
vn 0.6192353 -0.06406498 -0.7824023
vn 0.5291477 0.8160503 0.20496218
vn 0.26882437 0.47019336 -0.8077039
vn -0.75806445 0.55188435 -0.32427567
vn -0.5590569 0.43704927 -0.6812888
vn -0.07925396 0.70542735 -0.6624943
vn 0.00047738588 0.86960995 -0.43394235
vn 0.57541895 0.10772864 -0.7587755
vn 0.7705446 0.5403065 -0.23550685
vn -0.07925396 0.70542735 -0.6624943
vn 0.26882437 0.47019336 -0.8077039
vn 0.040746927 0.5838878 0.7279414
vn 0.033194914 0.19018175 0.9178662
vn 0.23479441 0.3295662 0.8377043
vn 0.2744043 0.341557 0.82097065
vn 0.5929646 0.07743992 0.74430794
vn 0.5434731 0.072757214 0.77042675
vn 0.5764665 -0.41197583 0.6513441
vn 0.61097485 -0.4816074 0.5704182
vn 0.49895146 -0.8321133 0.14497107
vn 0.21150228 -0.8567959 0.4083345
vn 9.5272235E-06 -0.94113964 0.25268665
vn 6.468428E-06 -0.8236456 0.5208373
vn 0.23895223 -0.7984839 0.55256194
vn 0.23449756 -0.69945467 0.56495625
vn 0.54270554 -0.3885967 0.7296605
vn 0.24250111 -0.870559 -0.08612114
vn -0.44522 -0.6510219 0.47313768
vn -0.7746069 -0.24146387 0.5164568
vn -0.044069722 -0.4536677 0.82673013
vn -0.7746069 -0.24146387 0.5164568
vn -0.044069722 -0.4536677 0.82673013
vn -0.18169336 0.45297164 0.7923962
vn 0.5310566 0.32893825 0.62389934
vn 0.4158532 0.2588554 0.75276494
vn 0.8000026 -0.11911619 0.56464076
vn 0.7920977 0.24537013 0.55890507
vn -0.27126926 0.39430654 0.87802917
vn -0.40964848 -0.48586312 -0.7720914
vn -0.8439745 -0.4940881 -0.026362699
vn -0.97003907 0.020695 0.24206571
vn -0.4975471 -0.17012227 -0.7125535
vn 0.6030329 0.37123835 -0.6502553
vn 0.7705446 0.5403065 -0.23550685
vn 0.57541895 0.10772864 -0.7587755
vn 0.88658535 0.054221287 -0.41092572
vn 0.459302 0.106570065 -0.8638071
vn 0.8871324 0.20899633 -0.39894044
vn -0.203676 -0.123097286 -0.9446514
vn 0.27000543 0.87661684 -0.330504
vn -0.4611773 0.14249091 -0.8522741
vn -0.14175707 0.3083231 -0.9140903
vn 9.3310996E-07 0.3446888 -0.91196877
vn -7.593366E-06 0.8304427 -0.5082364
vn 1.1239772E-06 0.35121605 -0.9082985
vn 0.6955484 -0.6113504 0.3247643
vn 0.72710794 0.1048302 0.6637995
vn 0.51249945 -0.029648729 0.8243589
vn 0.9735081 -0.012298854 0.2186275
vn 0.5849054 -0.7243043 0.27656028
vn 0.9244788 -0.31294385 -0.19441395
vn 0.8477786 -0.066802755 0.5221645
vn 0.8328247 -0.1319953 0.52685755
vn 0.91794145 -0.38047993 0.09128524
vn 0.74441904 -0.6632795 -0.03760475
vn 0.57516176 -0.74534297 0.33712405
vn 0.8620925 -0.29567674 0.40036637
vn 0.5368695 -0.82751 0.12198727
vn 0.48203957 -0.70831925 0.497237
vn 0.36507875 -0.5957337 0.6972852
vn 0.36507875 -0.5957337 0.6972852
vn 0.8328247 -0.1319953 0.52685755
vn 0.9244788 -0.31294385 -0.19441395
vn 0.46907344 -0.86400914 -0.07703806
vn 0.0010282757 -0.75768316 0.6277016
vn 0.003635227 -0.9743732 -0.1100667
vn 0.0039499337 -0.98755366 0.024550889
vn 0.48203957 -0.70831925 0.497237
vn 0.5368695 -0.82751 0.12198727
vn 0.9244788 -0.31294385 -0.19441395
vn 0.0019075676 -0.08870478 -0.9698299
vn 0.46907344 -0.86400914 -0.07703806
vn 0.3565461 0.1589465 -0.8777395
vn 0.5849054 -0.7243043 0.27656028
vn -0.0061827665 -0.7790411 -0.5770315
vn 0.49157318 -0.65059566 -0.5145764
vn 0.5929646 0.07743992 0.74430794
vn 0.7705446 0.5403065 -0.23550685
vn 0.88658535 0.054221287 -0.41092572
vn 0.5764665 -0.41197583 0.6513441
vn 0.49895146 -0.8321133 0.14497107
vn 0.8871324 0.20899633 -0.39894044
vn 0.7069376 -0.639454 -0.2574543
vn 0.8212637 0.33487064 -0.44236177
vn 0.23479441 0.3295662 0.8377043
vn 0.7705446 0.5403065 -0.23550685
vn 0.5929646 0.07743992 0.74430794
vn 0.03931914 0.9427839 0.13668454
vn -0.07925396 0.70542735 -0.6624943
vn 0.00047738588 0.86960995 -0.43394235
vn 0.022772668 0.8800908 0.3517059
vn 0.033194914 0.19018175 0.9178662
vn 0.49895146 -0.8321133 0.14497107
vn 1.2385312E-05 -0.92379284 -0.31086594
vn 9.5272235E-06 -0.94113964 0.25268665
vn 0.7069376 -0.639454 -0.2574543
vn 0.44622537 -0.6994744 -0.51804614
vn 0.8212637 0.33487064 -0.44236177
vn 1.3708446E-05 -0.74978477 -0.6212209
vn 0.45335287 0.41166466 -0.7639932
vn 5.260042E-07 0.4051578 -0.8853501
vn -7.593366E-06 0.8304427 -0.5082364
vn 5.260042E-07 0.4051578 -0.8853501
vn 0.45335287 0.41166466 -0.7639932
vn 0.27000543 0.87661684 -0.330504
vn 0.8212637 0.33487064 -0.44236177
vn 0.8871324 0.20899633 -0.39894044
vn -0.8009448 -0.3912328 0.45323664
vn -0.67202306 -0.7261715 -0.14511774
vn -0.8918738 0.43536514 0.12254888
vn -0.45820186 0.31571898 -0.8308869
vn -0.48031896 -0.38227144 -0.7894063
vn -0.83863044 0.47455835 0.26738232
vn -0.8918738 0.43536514 0.12254888
vn -0.45820186 0.31571898 -0.8308869
vn -0.40964848 -0.48586312 -0.7720914
vn 0.0036654077 -0.2190955 0.9416689
vn 0.51249945 -0.029648729 0.8243589
vn 0.72710794 0.1048302 0.6637995
vn -0.0033365297 0.13650288 0.974759
vn 0.3741492 -0.1255321 0.91795075
vn -0.001438564 -0.3168341 0.94475484
vn 0.8477786 -0.066802755 0.5221645
vn 0.0027133299 -0.8717428 0.48995587
vn 0.57516176 -0.74534297 0.33712405
vn 0.75712746 -0.6393323 -0.13420969
vn 0.19632111 0.046420217 -0.9794402
vn 0.80670905 0.3327473 -0.48836485
vn 0.9568272 0.07487835 -0.2808475
vn 0.44413197 -0.5080302 -0.7380054
vn 0.08412012 -0.7880998 -0.6097719
vn 0.90337306 -0.24537556 -0.35172182
vn 0.5653782 0.7387171 0.3669391
vn -0.08752349 0.8585619 0.2836358
vn -0.16141252 0.809698 -0.27029356
vn -0.4143262 0.78567606 0.2241348
vn -0.30886614 0.46878582 0.7725442
vn -0.44861457 0.5011991 0.70922863
vn -0.40727913 -0.083017856 0.8592404
vn -0.047888916 0.7492877 0.64861655
vn 0.600134 0.799497 -0.02502644
vn -0.2654725 0.79466337 0.44257993
vn 0.03243269 0.8384274 0.42291206
vn 0.023208603 0.47575623 0.82248574
vn 0.03986772 0.92303437 0.07266954
vn 0.032390594 0.9219859 -0.06920366
vn -0.25579262 0.51518273 0.5769994
vn -0.5327022 0.30542618 0.5628866
vn 0.040746927 0.5838878 0.7279414
vn -0.008775815 0.9643061 0.26459298
vn -0.59093076 0.71224505 0.37882417
vn 0.5653782 0.7387171 0.3669391
vn -0.5985027 0.5197452 0.6096239
vn -0.72004884 0.014633566 0.69306487
vn -0.84999526 -0.21188423 0.46418852
vn -0.25241664 0.80862886 0.5314174
vn -0.033322692 0.9973787 0.06422606
vn -0.86497295 0.49319097 -0.09265314
vn 0.6351936 0.6477759 0.4206132
vn 0.6024043 0.058393985 0.7960523
vn -0.36464977 -0.8262776 -0.34997293
vn -0.67011297 -0.47448257 -0.4735552
vn -0.37852523 -0.18603364 -0.83209455
vn -0.79604137 -0.3814135 -0.35381153
vn -0.6288516 -0.21980914 0.55312437
vn -0.21492393 -0.19098443 0.8226248
vn -0.16141252 0.809698 -0.27029356
vn -0.5327022 0.30542618 0.5628866
vn -0.4143262 0.78567606 0.2241348
vn 0.62106836 -0.30303353 -0.7227156
vn 0.8737784 0.37859032 -0.30519179
vn 0.41127175 0.33433327 -0.8477366
vn 0.84586304 -0.53268015 -0.027637899
vn 0.40898868 -0.8275535 0.3739704
vn 0.9583545 -0.15526536 -0.23449263
vn 0.25987422 0.75065243 -0.57356584
vn 0.67336714 -0.6522234 0.28172585
vn 0.98153114 0.13265483 -0.1294253
vn 0.7580591 -0.08142987 -0.61328125
vn 0.20368527 -0.51745975 -0.724401
vn 0.46118203 -0.24376062 -0.7701601
vn 0.55906165 -0.36279878 -0.6803858
vn 1.1239772E-06 0.35121605 -0.9082985
vn 0.00047738588 0.86960995 -0.43394235
vn 0.14175995 -0.119929045 -0.8940309
vn -0.30204892 -0.8422414 -0.2594198
vn -0.11875593 -0.968735 -0.03505996
vn 0.00028512487 -0.96662253 0.18323198
vn -0.67011297 -0.47448257 -0.4735552
vn -0.36464977 -0.8262776 -0.34997293
vn -0.79604137 -0.3814135 -0.35381153
vn -0.21492393 -0.19098443 0.8226248
vn -0.0064754765 -0.96713805 0.04699105
vn 6.468428E-06 -0.8236456 0.5208373
vn -0.52724403 0.369609 -0.76494694
vn -0.99020386 0.13418746 0.03859555
vn -0.94857657 -0.27909815 -0.14927822
vn -0.38495547 0.7328598 -0.5610041
vn -0.80816853 0.45577872 -0.36119556
vn -0.80329067 -0.4898034 0.3277499
vn -0.9816747 0.12050402 -0.14687148
vn -0.5291748 0.40459183 -0.7246302
vn -0.5788892 -0.3607154 -0.5889436
vn -0.60360897 -0.3003977 -0.62043583
vn -0.98425007 -0.057942413 0.16595078
vn -0.7578847 -0.4110772 0.4926658
vn -0.6844776 -0.29001373 0.6407956
vn -0.5291748 0.40459183 -0.7246302
vn 0.25987422 0.75065243 -0.57356584
vn 0.7580591 -0.08142987 -0.61328125
vn -0.80816853 0.45577872 -0.36119556
vn -0.38495547 0.7328598 -0.5610041
vn 0.8737784 0.37859032 -0.30519179
vn 0.41127175 0.33433327 -0.8477366
vn -0.52724403 0.369609 -0.76494694
vn -0.40727913 -0.083017856 0.8592404
vn -0.84999526 -0.21188423 0.46418852
vn -0.44861457 0.5011991 0.70922863
vn -0.047888916 0.7492877 0.64861655
vn -0.53039557 -0.8322282 0.11896781
vn 0.0048744385 -0.9536202 -0.26764622
vn 0.0039499337 -0.98755366 0.024550889
vn -0.4658775 -0.88331854 -0.026761323
vn 0.0027133299 -0.8717428 0.48995587
vn -0.569975 -0.7509092 0.33356196
vn -0.7380835 -0.67011863 -0.041981228
vn -0.91539013 -0.38806233 0.086432986
vn -0.43129635 -0.35616565 0.77580965
vn 0.008131855 -0.08793994 0.9605713
vn -0.51257616 -0.110907115 0.8215028
vn -0.30886614 0.46878582 0.7725442
vn 0.023208603 0.47575623 0.82248574
vn -0.43129635 -0.35616565 0.77580965
vn -0.40727913 -0.083017856 0.8592404
vn -0.30886614 0.46878582 0.7725442
vn -0.84999526 -0.21188423 0.46418852
vn -0.6631749 -0.72465897 -0.15769976
vn -0.23469645 -0.8696408 0.32505783
vn -0.51257616 -0.110907115 0.8215028
vn -0.70507634 -0.63406205 0.25075784
vn -0.36464977 -0.8262776 -0.34997293
vn -0.5993613 -0.75289416 0.16692138
vn -0.11875593 -0.968735 -0.03505996
vn 0.06793908 -0.9169103 0.3203948
vn -0.5005085 -0.6032252 -0.5829923
vn 0.00028512487 -0.96662253 0.18323198
vn -0.0061827665 -0.7790411 -0.5770315
vn 0.08412012 -0.7880998 -0.6097719
vn -0.5203534 -0.31983122 -0.79179543
vn -0.8922244 -0.38337082 -0.23866864
vn 0.44413197 -0.5080302 -0.7380054
vn 0.80670905 0.3327473 -0.48836485
vn 0.19632111 0.046420217 -0.9794402
vn 0.07880414 0.7623235 -0.6423806
vn -0.6056634 0.4912586 -0.6259688
vn -0.5203534 -0.31983122 -0.79179543
vn -0.6056634 0.4912586 -0.6259688
vn -0.86497295 0.49319097 -0.09265314
vn -0.8922244 -0.38337082 -0.23866864
vn -0.59093076 0.71224505 0.37882417
vn -0.25241664 0.80862886 0.5314174
vn -0.93978864 -0.04522553 0.33874738
vn -0.62195575 -0.7784123 0.085015684
vn -0.5985027 0.5197452 0.6096239
vn -0.78602874 -0.2833334 0.5494274
vn -0.489906 -0.84186774 0.22634947
vn -0.72004884 0.014633566 0.69306487
vn -0.8695505 -0.49232247 0.038721412
vn -0.84999526 -0.21188423 0.46418852
vn -0.6631749 -0.72465897 -0.15769976
vn -0.4248273 -0.60071164 -0.6772497
vn -0.1348421 -0.8788053 -0.45772094
vn 0.90337306 -0.24537556 -0.35172182
vn 0.64414275 -0.24577877 -0.7243361
vn 0.8329438 0.3460076 -0.43183297
vn 0.600134 0.799497 -0.02502644
vn -0.37852523 -0.18603364 -0.83209455
vn -0.16141252 0.809698 -0.27029356
vn -0.08752349 0.8585619 0.2836358
vn 0.08412012 -0.7880998 -0.6097719
vn 0.009159975 -0.908813 -0.41708672
vn 0.64414275 -0.24577877 -0.7243361
vn 0.90337306 -0.24537556 -0.35172182
vn 0.07880414 0.7623235 -0.6423806
vn 0.19632111 0.046420217 -0.9794402
vn 0.70777446 0.036504 -0.705495
vn 0.70711696 0.6250119 -0.330675
vn -0.033322692 0.9973787 0.06422606
vn -0.86497295 0.49319097 -0.09265314
vn 0.6351936 0.6477759 0.4206132
vn 0.8015517 -0.5941328 -0.06724125
vn 0.06176292 -0.9859514 -0.15519089
vn 0.2467968 -0.45050278 0.8579855
vn -0.27032316 -0.5162982 0.8125891
vn -0.6235019 -0.7771078 -0.085365206
vn 0.19632111 0.046420217 -0.9794402
vn 0.75712746 -0.6393323 -0.13420969
vn 0.8386165 -0.5434893 -0.036633357
vn 0.70777446 0.036504 -0.705495
vn 0.06176292 -0.9859514 -0.15519089
vn 0.8015517 -0.5941328 -0.06724125
vn 0.84586304 -0.53268015 -0.027637899
vn -0.05256982 -0.48330203 -0.8738147
vn -0.6235019 -0.7771078 -0.085365206
vn 0.62106836 -0.30303353 -0.7227156
vn -0.94857657 -0.27909815 -0.14927822
vn 0.41127175 0.33433327 -0.8477366
vn -0.52724403 0.369609 -0.76494694
vn 0.40898868 -0.8275535 0.3739704
vn 0.84586304 -0.53268015 -0.027637899
vn -0.46016032 -0.53450006 0.70882714
vn -0.80329067 -0.4898034 0.3277499
vn -0.99020386 0.13418746 0.03859555
vn -0.032346163 -0.8273783 0.5418661
vn 0.67336714 -0.6522234 0.28172585
vn 0.20368527 -0.51745975 -0.724401
vn -0.3659754 -0.6927303 0.57945204
vn -0.7578847 -0.4110772 0.4926658
vn -0.6844776 -0.29001373 0.6407956
vn -0.4592858 -0.6590602 -0.4897285
vn -0.019972697 -0.7922538 0.52500165
vn 0.8015517 -0.5941328 -0.06724125
vn 0.2467968 -0.45050278 0.8579855
vn 0.84586304 -0.53268015 -0.027637899
vn -0.46016032 -0.53450006 0.70882714
vn -0.27032316 -0.5162982 0.8125891
vn -0.94857657 -0.27909815 -0.14927822
vn -0.99020386 0.13418746 0.03859555
vn -0.6235019 -0.7771078 -0.085365206
vn -0.5291748 0.40459183 -0.7246302
vn 0.7580591 -0.08142987 -0.61328125
vn -0.2688221 -0.17869787 -0.85062516
vn 0.55906165 -0.36279878 -0.6803858
vn 0.07924989 0.106478274 -0.8916991
vn 0.00047738588 0.86960995 -0.43394235
vn -0.5788892 -0.3607154 -0.5889436
vn -0.2688221 -0.17869787 -0.85062516
vn 0.07924989 0.106478274 -0.8916991
vn -0.7660402 0.25114715 -0.49014112
vn 0.040746927 0.5838878 0.7279414
vn -0.2171817 0.5508722 0.5509962
vn 0.033194914 0.19018175 0.9178662
vn -0.25579262 0.51518273 0.5769994
vn -0.58311164 0.35471374 0.5133906
vn -0.5327022 0.30542618 0.5628866
vn -0.58842427 -0.083751634 0.6167388
vn -0.6288516 -0.21980914 0.55312437
vn -0.50185853 -0.34014785 0.67477983
vn -0.21492393 -0.19098443 0.8226248
vn 9.5272235E-06 -0.94113964 0.25268665
vn 6.468428E-06 -0.8236456 0.5208373
vn -0.4248273 -0.60071164 -0.6772497
vn -0.6631749 -0.72465897 -0.15769976
vn -0.36464977 -0.8262776 -0.34997293
vn -0.37852523 -0.18603364 -0.83209455
vn 0.261411 -0.50358033 -0.8234403
vn 0.64414275 -0.24577877 -0.7243361
vn -0.1348421 -0.8788053 -0.45772094
vn 0.64414275 -0.24577877 -0.7243361
vn 0.009159975 -0.908813 -0.41708672
vn -0.1348421 -0.8788053 -0.45772094
vn -0.62195575 -0.7784123 0.085015684
vn -0.489906 -0.84186774 0.22634947
vn -0.8695505 -0.49232247 0.038721412
vn -0.8922244 -0.38337082 -0.23866864
vn 0.08412012 -0.7880998 -0.6097719
vn 0.5653782 0.7387171 0.3669391
vn 0.90337306 -0.24537556 -0.35172182
vn 0.8329438 0.3460076 -0.43183297
vn 0.600134 0.799497 -0.02502644
vn -0.60360897 -0.3003977 -0.62043583
vn -0.5788892 -0.3607154 -0.5889436
vn -0.7660402 0.25114715 -0.49014112
vn -0.8907567 -0.25323513 -0.28365955
vn -0.4592858 -0.6590602 -0.4897285
vn -0.8871297 -0.1725449 -0.37869498
vn 0.20368527 -0.51745975 -0.724401
vn -0.27001482 0.54595995 -0.67612946
vn 0.46118203 -0.24376062 -0.7701601
vn 0.14175995 -0.119929045 -0.8940309
vn 9.3310996E-07 0.3446888 -0.91196877
vn -7.593366E-06 0.8304427 -0.5082364
vn 1.1239772E-06 0.35121605 -0.9082985
vn -0.70507634 -0.63406205 0.25075784
vn -0.51257616 -0.110907115 0.8215028
vn -0.7310833 0.080852486 0.6589225
vn -0.9759667 -0.011245592 0.20606516
vn -0.5993613 -0.75289416 0.16692138
vn -0.92329735 -0.30783957 -0.20865019
vn -0.8503198 -0.07443122 0.5172829
vn -0.8349863 -0.13954395 0.52147615
vn -0.91539013 -0.38806233 0.086432986
vn -0.7380835 -0.67011863 -0.041981228
vn -0.569975 -0.7509092 0.33356196
vn -0.8624132 -0.30275407 0.39445585
vn -0.53039557 -0.8322282 0.11896781
vn -0.47919476 -0.71235585 0.49465388
vn -0.36452734 -0.5986653 0.69540924
vn -0.36452734 -0.5986653 0.69540924
vn -0.92329735 -0.30783957 -0.20865019
vn -0.8349863 -0.13954395 0.52147615
vn -0.46239558 -0.867543 -0.07929942
vn 0.0010282757 -0.75768316 0.6277016
vn 0.003635227 -0.9743732 -0.1100667
vn 0.0039499337 -0.98755366 0.024550889
vn -0.47919476 -0.71235585 0.49465388
vn -0.53039557 -0.8322282 0.11896781
vn -0.92329735 -0.30783957 -0.20865019
vn -0.46239558 -0.867543 -0.07929942
vn 0.0019075676 -0.08870478 -0.9698299
vn -0.3557547 0.22962332 -0.8745201
vn -0.5993613 -0.75289416 0.16692138
vn -0.0061827665 -0.7790411 -0.5770315
vn -0.5005085 -0.6032252 -0.5829923
vn -0.58311164 0.35471374 0.5133906
vn -0.8907567 -0.25323513 -0.28365955
vn -0.7660402 0.25114715 -0.49014112
vn -0.58842427 -0.083751634 0.6167388
vn -0.50185853 -0.34014785 0.67477983
vn -0.8871297 -0.1725449 -0.37869498
vn -0.7069214 -0.57342327 0.25618544
vn -0.8212639 0.005530283 -0.5090314
vn -0.2171817 0.5508722 0.5509962
vn -0.58311164 0.35471374 0.5133906
vn -0.7660402 0.25114715 -0.49014112
vn -0.029453052 0.7351765 -0.43836528
vn 0.07924989 0.106478274 -0.8916991
vn 0.00047738588 0.86960995 -0.43394235
vn 0.022772668 0.8800908 0.3517059
vn 0.033194914 0.19018175 0.9178662
vn -0.50185853 -0.34014785 0.67477983
vn 9.5272235E-06 -0.94113964 0.25268665
vn 1.2385312E-05 -0.92379284 -0.31086594
vn -0.7069214 -0.57342327 0.25618544
vn -0.4462087 -0.7971453 -0.01580453
vn -0.8212639 0.005530283 -0.5090314
vn 1.3708446E-05 -0.74978477 -0.6212209
vn -0.45335183 0.0023970753 -0.8030778
vn 5.260042E-07 0.4051578 -0.8853501
vn -7.593366E-06 0.8304427 -0.5082364
vn -0.45335183 0.0023970753 -0.8030778
vn 5.260042E-07 0.4051578 -0.8853501
vn -0.27001482 0.54595995 -0.67612946
vn -0.8212639 0.005530283 -0.5090314
vn -0.8871297 -0.1725449 -0.37869498
vn 0.70777446 0.036504 -0.705495
vn 0.8386165 -0.5434893 -0.036633357
vn 0.70711696 0.6250119 -0.330675
vn 0.6024043 0.058393985 0.7960523
vn 0.6351936 0.6477759 0.4206132
vn 0.75712746 -0.6393323 -0.13420969
vn 0.5653782 0.7387171 0.3669391
vn 0.6024043 0.058393985 0.7960523
vn 0.8386165 -0.5434893 -0.036633357
vn 0.0036654077 -0.2190955 0.9416689
vn -0.7310833 0.080852486 0.6589225
vn -0.51257616 -0.110907115 0.8215028
vn -0.0033365297 0.13650288 0.974759
vn -0.37861684 -0.12915732 0.9156308
vn -0.001438564 -0.3168341 0.94475484
vn -0.8503198 -0.07443122 0.5172829
vn 0.0027133299 -0.8717428 0.48995587
vn -0.569975 -0.7509092 0.33356196
g 0.1000_0
f 3/3/3 2/2/2 1/1/1
f 6/6/6 5/5/5 4/4/4
f 9/9/9 8/8/8 7/7/7
f 12/12/12 11/11/11 10/10/10
f 15/15/15 14/14/14 13/13/13
f 18/18/18 17/17/17 16/16/16
f 21/21/21 20/20/20 19/19/19
f 24/24/24 23/23/23 22/22/22
f 27/27/27 26/26/26 25/25/25
f 30/30/30 29/29/29 28/28/28
f 33/33/33 32/32/32 31/31/31
f 36/36/36 35/35/35 34/34/34
f 39/39/39 38/38/38 37/37/37
f 38/38/38 40/40/40 37/37/37
f 38/38/38 41/41/41 40/40/40
f 37/37/37 40/40/40 41/41/41
f 41/41/41 42/42/42 37/37/37
f 42/42/42 43/43/43 37/37/37
f 37/37/37 43/43/43 44/44/44
f 47/47/47 46/46/46 45/45/45
f 48/48/48 45/45/45 46/46/46
f 45/45/45 48/48/48 49/49/49
f 49/49/49 48/48/48 50/50/50
f 49/49/49 51/51/51 45/45/45
f 52/52/52 45/45/45 51/51/51
f 53/53/53 48/48/48 46/46/46
f 53/53/53 54/54/54 48/48/48
f 54/54/54 55/55/55 48/48/48
f 56/56/56 54/54/54 53/53/53
f 57/57/57 56/56/56 53/53/53
f 53/53/53 46/46/46 57/57/57
f 58/58/58 57/57/57 46/46/46
f 58/58/58 46/46/46 59/59/59
f 58/58/58 60/60/60 57/57/57
f 51/51/51 61/61/61 52/52/52
f 61/61/61 62/62/62 52/52/52
f 62/62/62 63/63/63 52/52/52
f 61/61/61 64/64/64 62/62/62
f 61/61/61 51/51/51 64/64/64
f 65/65/65 64/64/64 51/51/51
f 51/51/51 66/66/66 65/65/65
f 63/63/63 62/62/62 67/67/67
f 67/67/67 68/68/68 63/63/63
f 67/67/67 69/69/69 68/68/68
f 68/68/68 70/70/70 63/63/63
f 70/70/70 71/71/71 63/63/63
f 74/74/74 73/73/73 72/72/72
f 73/73/73 74/74/74 75/75/75
f 73/73/73 75/75/75 76/76/76
f 75/75/75 77/77/77 76/76/76
f 76/76/76 78/78/78 73/73/73
f 76/76/76 79/79/79 78/78/78
f 79/79/79 80/80/80 78/78/78
f 83/83/83 82/82/82 81/81/81
f 83/83/83 81/81/81 84/84/84
f 85/85/85 83/83/83 84/84/84
f 83/83/83 85/85/85 86/86/86
f 83/83/83 86/86/86 87/87/87
f 85/85/85 88/88/88 86/86/86
f 87/87/87 86/86/86 89/89/89
f 89/89/89 86/86/86 88/88/88
f 87/87/87 89/89/89 90/90/90
f 89/89/89 88/88/88 90/90/90
f 90/90/90 88/88/88 91/91/91
f 91/91/91 92/92/92 90/90/90
f 92/92/92 93/93/93 90/90/90
f 93/93/93 92/92/92 94/94/94
f 93/93/93 94/94/94 95/95/95
f 92/92/92 96/96/96 94/94/94
f 99/99/99 98/98/98 97/97/97
f 97/97/97 100/100/100 99/99/99
f 99/99/99 100/100/100 101/101/101
f 100/100/100 97/97/97 102/102/102
f 97/97/97 103/103/103 102/102/102
f 104/104/104 103/103/103 97/97/97
f 104/104/104 105/105/105 103/103/103
f 108/108/108 107/107/107 106/106/106
f 108/108/108 106/106/106 109/109/109
f 110/110/110 108/108/108 109/109/109
f 108/108/108 110/110/110 111/111/111
f 111/111/111 110/110/110 112/112/112
f 112/112/112 110/110/110 113/113/113
f 112/112/112 113/113/113 114/114/114
f 114/114/114 115/115/115 112/112/112
f 112/112/112 116/116/116 111/111/111
f 112/112/112 115/115/115 116/116/116
f 117/117/117 111/111/111 116/116/116
f 117/117/117 116/116/116 115/115/115
f 118/118/118 117/117/117 115/115/115
f 121/121/121 120/120/120 119/119/119
f 121/121/121 119/119/119 122/122/122
f 122/122/122 123/123/123 121/121/121
f 124/124/124 121/121/121 123/123/123
f 125/125/125 124/124/124 123/123/123
f 126/126/126 125/125/125 123/123/123
f 129/129/129 128/128/128 127/127/127
f 130/130/130 128/128/128 129/129/129
f 133/133/133 132/132/132 131/131/131
f 131/131/131 134/134/134 133/133/133
f 133/133/133 134/134/134 135/135/135
f 135/135/135 134/134/134 136/136/136
f 134/134/134 137/137/137 136/136/136
f 137/137/137 134/134/134 131/131/131
f 138/138/138 137/137/137 131/131/131
f 141/141/141 140/140/140 139/139/139
f 141/141/141 139/139/139 142/142/142
f 143/143/143 141/141/141 142/142/142
f 146/146/146 145/145/145 144/144/144
f 144/144/144 147/147/147 146/146/146
f 148/148/148 147/147/147 144/144/144
f 148/148/148 144/144/144 149/149/149
f 150/150/150 149/149/149 144/144/144
f 150/150/150 151/151/151 149/149/149
f 149/149/149 152/152/152 148/148/148
f 149/149/149 151/151/151 153/153/153
f 153/153/153 152/152/152 149/149/149
f 154/154/154 152/152/152 153/153/153
f 154/154/154 153/153/153 155/155/155
f 156/156/156 155/155/155 153/153/153
f 155/155/155 157/157/157 154/154/154
f 157/157/157 155/155/155 156/156/156
f 158/158/158 157/157/157 156/156/156
f 161/161/161 160/160/160 159/159/159
f 161/161/161 159/159/159 162/162/162
f 163/163/163 161/161/161 162/162/162
f 163/163/163 164/164/164 161/161/161
f 164/164/164 165/165/165 161/161/161
f 165/165/165 166/166/166 161/161/161
f 169/169/169 168/168/168 167/167/167
f 170/170/170 167/167/167 168/168/168
f 171/171/171 170/170/170 168/168/168
f 171/171/171 168/168/168 172/172/172
f 170/170/170 171/171/171 173/173/173
f 174/174/174 170/170/170 173/173/173
f 171/171/171 175/175/175 173/173/173
f 174/174/174 173/173/173 176/176/176
f 175/175/175 176/176/176 173/173/173
f 177/177/177 174/174/174 176/176/176
f 175/175/175 178/178/178 176/176/176
f 177/177/177 176/176/176 178/178/178
f 179/179/179 177/177/177 178/178/178
f 178/178/178 180/180/180 179/179/179
f 179/179/179 180/180/180 181/181/181
f 179/179/179 181/181/181 182/182/182
f 179/179/179 182/182/182 183/183/183
f 186/186/186 185/185/185 184/184/184
f 187/187/187 185/185/185 186/186/186
f 186/186/186 188/188/188 187/187/187
f 189/189/189 187/187/187 188/188/188
f 190/190/190 187/187/187 189/189/189
f 193/193/193 192/192/192 191/191/191
f 191/191/191 192/192/192 194/194/194
f 197/197/197 196/196/196 195/195/195
f 196/196/196 198/198/198 195/195/195
f 195/195/195 198/198/198 199/199/199
f 200/200/200 195/195/195 199/199/199
f 198/198/198 201/201/201 199/199/199
f 204/204/204 203/203/203 202/202/202
f 203/203/203 204/204/204 205/205/205
f 206/206/206 205/205/205 204/204/204
f 209/209/209 208/208/208 207/207/207
f 210/210/210 209/209/209 207/207/207
f 213/213/213 212/212/212 211/211/211
f 212/212/212 214/214/214 211/211/211
f 211/211/211 214/214/214 215/215/215
f 216/216/216 214/214/214 212/212/212
f 215/215/215 214/214/214 217/217/217
f 214/214/214 216/216/216 218/218/218
f 219/219/219 217/217/217 214/214/214
f 214/214/214 218/218/218 219/219/219
f 222/222/222 221/221/221 220/220/220
f 221/221/221 223/223/223 220/220/220
f 223/223/223 221/221/221 224/224/224
f 225/225/225 220/220/220 223/223/223
f 226/226/226 220/220/220 225/225/225
f 226/226/226 225/225/225 227/227/227
f 225/225/225 223/223/223 228/228/228
f 228/228/228 223/223/223 229/229/229
f 228/228/228 229/229/229 230/230/230
f 231/231/231 228/228/228 230/230/230
f 225/225/225 232/232/232 227/227/227
f 232/232/232 225/225/225 228/228/228
f 232/232/232 228/228/228 231/231/231
f 231/231/231 227/227/227 232/232/232
f 235/235/235 234/234/234 233/233/233
f 236/236/236 234/234/234 235/235/235
f 237/237/237 236/236/236 235/235/235
f 237/237/237 238/238/238 236/236/236
f 236/236/236 238/238/238 239/239/239
f 238/238/238 237/237/237 240/240/240
f 243/243/243 242/242/242 241/241/241
f 243/243/243 244/244/244 242/242/242
f 244/244/244 245/245/245 242/242/242
f 245/245/245 244/244/244 246/246/246
f 249/249/249 248/248/248 247/247/247
f 250/250/250 249/249/249 247/247/247
f 253/253/253 252/252/252 251/251/251
f 254/254/254 253/253/253 251/251/251
f 255/255/255 253/253/253 254/254/254
f 256/256/256 255/255/255 254/254/254
f 257/257/257 255/255/255 256/256/256
f 258/258/258 257/257/257 256/256/256
f 259/259/259 257/257/257 258/258/258
f 260/260/260 259/259/259 258/258/258
f 261/261/261 259/259/259 260/260/260
f 262/262/262 261/261/261 260/260/260
f 265/265/265 264/264/264 263/263/263
f 266/266/266 263/263/263 264/264/264
f 267/267/267 263/263/263 266/266/266
f 267/267/267 266/266/266 268/268/268
f 267/267/267 269/269/269 263/263/263
f 269/269/269 267/267/267 268/268/268
f 272/272/272 271/271/271 270/270/270
f 272/272/272 273/273/273 271/271/271
f 274/274/274 271/271/271 273/273/273
f 274/274/274 275/275/275 271/271/271
f 276/276/276 273/273/273 272/272/272
f 277/277/277 276/276/276 272/272/272
f 280/280/280 279/279/279 278/278/278
f 281/281/281 278/278/278 279/279/279
f 284/284/284 283/283/283 282/282/282
f 283/283/283 285/285/285 282/282/282
f 282/282/282 285/285/285 286/286/286
f 285/285/285 287/287/287 286/286/286
f 286/286/286 287/287/287 288/288/288
f 287/287/287 289/289/289 288/288/288
f 289/289/289 290/290/290 288/288/288
f 290/290/290 289/289/289 291/291/291
f 292/292/292 291/291/291 289/289/289
f 293/293/293 292/292/292 289/289/289
f 292/292/292 294/294/294 291/291/291
f 297/297/297 296/296/296 295/295/295
f 295/295/295 296/296/296 298/298/298
f 295/295/295 298/298/298 299/299/299
f 299/299/299 298/298/298 300/300/300
f 296/296/296 301/301/301 298/298/298
f 298/298/298 302/302/302 300/300/300
f 303/303/303 298/298/298 301/301/301
f 301/301/301 304/304/304 303/303/303
f 305/305/305 304/304/304 301/301/301
f 306/306/306 298/298/298 303/303/303
f 302/302/302 298/298/298 306/306/306
f 303/303/303 307/307/307 306/306/306
f 307/307/307 308/308/308 306/306/306
f 306/306/306 308/308/308 302/302/302
f 308/308/308 309/309/309 302/302/302
f 312/312/312 311/311/311 310/310/310
f 313/313/313 312/312/312 310/310/310
f 310/310/310 314/314/314 313/313/313
f 314/314/314 315/315/315 313/313/313
f 316/316/316 314/314/314 310/310/310
f 317/317/317 316/316/316 310/310/310
f 318/318/318 316/316/316 317/317/317
f 321/321/321 320/320/320 319/319/319
f 320/320/320 322/322/322 319/319/319
f 319/319/319 322/322/322 323/323/323
f 322/322/322 320/320/320 324/324/324
f 323/323/323 322/322/322 325/325/325
f 325/325/325 322/322/322 324/324/324
f 328/328/328 327/327/327 326/326/326
f 326/326/326 329/329/329 328/328/328
f 329/329/329 330/330/330 328/328/328
f 331/331/331 328/328/328 330/330/330
f 330/330/330 332/332/332 331/331/331
f 332/332/332 333/333/333 331/331/331
f 336/336/336 335/335/335 334/334/334
f 335/335/335 337/337/337 334/334/334
f 335/335/335 338/338/338 337/337/337
f 339/339/339 337/337/337 338/338/338
f 339/339/339 340/340/340 337/337/337
f 334/334/334 337/337/337 340/340/340
f 340/340/340 341/341/341 334/334/334
f 344/344/344 343/343/343 342/342/342
f 343/343/343 345/345/345 342/342/342
f 346/346/346 345/345/345 343/343/343
f 346/346/346 347/347/347 345/345/345
f 346/346/346 343/343/343 348/348/348
f 347/347/347 346/346/346 349/349/349
f 348/348/348 349/349/349 346/346/346
f 349/349/349 348/348/348 350/350/350
f 353/353/353 352/352/352 351/351/351
f 354/354/354 353/353/353 351/351/351
f 355/355/355 353/353/353 354/354/354
f 356/356/356 355/355/355 354/354/354
f 359/359/359 358/358/358 357/357/357
f 359/359/359 360/360/360 358/358/358
f 361/361/361 358/358/358 360/360/360
f 364/364/364 363/363/363 362/362/362
f 365/365/365 364/364/364 362/362/362
f 368/368/368 367/367/367 366/366/366
f 369/369/369 368/368/368 366/366/366
f 370/370/370 368/368/368 369/369/369
f 371/371/371 370/370/370 369/369/369
f 370/370/370 372/372/372 368/368/368
f 371/371/371 373/373/373 370/370/370
f 374/374/374 372/372/372 370/370/370
f 373/373/373 374/374/374 370/370/370
f 377/377/377 376/376/376 375/375/375
f 378/378/378 377/377/377 375/375/375
f 379/379/379 377/377/377 378/378/378
f 378/378/378 375/375/375 379/379/379
f 380/380/380 379/379/379 375/375/375
f 381/381/381 380/380/380 375/375/375
f 381/381/381 375/375/375 382/382/382
f 385/385/385 384/384/384 383/383/383
f 383/383/383 386/386/386 385/385/385
f 386/386/386 383/383/383 387/387/387
f 386/386/386 387/387/387 388/388/388
f 389/389/389 387/387/387 383/383/383
f 383/383/383 390/390/390 389/389/389
f 386/386/386 391/391/391 385/385/385
f 392/392/392 391/391/391 386/386/386
f 393/393/393 392/392/392 386/386/386
f 392/392/392 394/394/394 391/391/391
f 394/394/394 395/395/395 391/391/391
f 385/385/385 391/391/391 395/395/395
f 395/395/395 396/396/396 385/385/385
f 385/385/385 396/396/396 397/397/397
f 398/398/398 396/396/396 395/395/395
f 399/399/399 389/389/389 390/390/390
f 400/400/400 399/399/399 390/390/390
f 401/401/401 400/400/400 390/390/390
f 402/402/402 399/399/399 400/400/400
f 389/389/389 399/399/399 402/402/402
f 402/402/402 403/403/403 389/389/389
f 404/404/404 389/389/389 403/403/403
f 400/400/400 401/401/401 405/405/405
f 406/406/406 405/405/405 401/401/401
f 407/407/407 405/405/405 406/406/406
f 408/408/408 406/406/406 401/401/401
f 409/409/409 408/408/408 401/401/401
f 412/412/412 411/411/411 410/410/410
f 411/411/411 412/412/412 413/413/413
f 413/413/413 412/412/412 414/414/414
f 415/415/415 413/413/413 414/414/414
f 416/416/416 414/414/414 412/412/412
f 417/417/417 414/414/414 416/416/416
f 418/418/418 417/417/417 416/416/416
f 421/421/421 420/420/420 419/419/419
f 419/419/419 420/420/420 422/422/422
f 420/420/420 423/423/423 422/422/422
f 423/423/423 420/420/420 424/424/424
f 424/424/424 420/420/420 425/425/425
f 426/426/426 423/423/423 424/424/424
f 424/424/424 425/425/425 427/427/427
f 424/424/424 427/427/427 426/426/426
f 427/427/427 425/425/425 428/428/428
f 426/426/426 427/427/427 428/428/428
f 426/426/426 428/428/428 429/429/429
f 430/430/430 429/429/429 428/428/428
f 431/431/431 430/430/430 428/428/428
f 430/430/430 431/431/431 432/432/432
f 432/432/432 431/431/431 433/433/433
f 434/434/434 430/430/430 432/432/432
f 437/437/437 436/436/436 435/435/435
f 438/438/438 435/435/435 436/436/436
f 438/438/438 436/436/436 439/439/439
f 435/435/435 438/438/438 440/440/440
f 441/441/441 435/435/435 440/440/440
f 441/441/441 442/442/442 435/435/435
f 443/443/443 442/442/442 441/441/441
f 446/446/446 445/445/445 444/444/444
f 444/444/444 445/445/445 447/447/447
f 445/445/445 448/448/448 447/447/447
f 448/448/448 445/445/445 449/449/449
f 448/448/448 449/449/449 450/450/450
f 448/448/448 450/450/450 451/451/451
f 451/451/451 450/450/450 452/452/452
f 453/453/453 452/452/452 450/450/450
f 454/454/454 450/450/450 449/449/449
f 453/453/453 450/450/450 454/454/454
f 449/449/449 455/455/455 454/454/454
f 454/454/454 455/455/455 453/453/453
f 455/455/455 456/456/456 453/453/453
f 459/459/459 458/458/458 457/457/457
f 457/457/457 458/458/458 460/460/460
f 461/461/461 460/460/460 458/458/458
f 458/458/458 462/462/462 461/461/461
f 462/462/462 463/463/463 461/461/461
f 463/463/463 464/464/464 461/461/461
f 467/467/467 466/466/466 465/465/465
f 467/467/467 468/468/468 466/466/466
f 471/471/471 470/470/470 469/469/469
f 472/472/472 469/469/469 470/470/470
f 472/472/472 470/470/470 473/473/473
f 472/472/472 473/473/473 474/474/474
f 475/475/475 472/472/472 474/474/474
f 472/472/472 475/475/475 469/469/469
f 475/475/475 476/476/476 469/469/469
f 479/479/479 478/478/478 477/477/477
f 477/477/477 478/478/478 480/480/480
f 478/478/478 481/481/481 480/480/480
f 484/484/484 483/483/483 482/482/482
f 485/485/485 482/482/482 483/483/483
f 485/485/485 486/486/486 482/482/482
f 482/482/482 486/486/486 487/487/487
f 487/487/487 488/488/488 482/482/482
f 489/489/489 488/488/488 487/487/487
f 490/490/490 487/487/487 486/486/486
f 489/489/489 487/487/487 491/491/491
f 490/490/490 491/491/491 487/487/487
f 490/490/490 492/492/492 491/491/491
f 491/491/491 492/492/492 493/493/493
f 493/493/493 494/494/494 491/491/491
f 495/495/495 493/493/493 492/492/492
f 493/493/493 495/495/495 494/494/494
f 495/495/495 496/496/496 494/494/494
f 499/499/499 498/498/498 497/497/497
f 497/497/497 498/498/498 500/500/500
f 498/498/498 501/501/501 500/500/500
f 502/502/502 501/501/501 498/498/498
f 503/503/503 502/502/502 498/498/498
f 504/504/504 503/503/503 498/498/498
f 507/507/507 506/506/506 505/505/505
f 505/505/505 508/508/508 507/507/507
f 508/508/508 509/509/509 507/507/507
f 507/507/507 509/509/509 510/510/510
f 509/509/509 508/508/508 511/511/511
f 508/508/508 512/512/512 511/511/511
f 513/513/513 509/509/509 511/511/511
f 511/511/511 512/512/512 514/514/514
f 514/514/514 513/513/513 511/511/511
f 512/512/512 515/515/515 514/514/514
f 516/516/516 513/513/513 514/514/514
f 514/514/514 515/515/515 516/516/516
f 515/515/515 517/517/517 516/516/516
f 518/518/518 516/516/516 517/517/517
f 518/518/518 517/517/517 519/519/519
f 519/519/519 517/517/517 520/520/520
f 520/520/520 517/517/517 521/521/521
f 524/524/524 523/523/523 522/522/522
f 524/524/524 525/525/525 523/523/523
f 526/526/526 523/523/523 525/525/525
f 525/525/525 527/527/527 526/526/526
f 525/525/525 528/528/528 527/527/527
f 531/531/531 530/530/530 529/529/529
f 531/531/531 529/529/529 532/532/532
f 535/535/535 534/534/534 533/533/533
f 536/536/536 535/535/535 533/533/533
f 536/536/536 533/533/533 537/537/537
f 533/533/533 538/538/538 537/537/537
f 539/539/539 536/536/536 537/537/537
f 542/542/542 541/541/541 540/540/540
f 541/541/541 542/542/542 543/543/543
f 543/543/543 544/544/544 541/541/541
f 547/547/547 546/546/546 545/545/545
f 548/548/548 547/547/547 545/545/545
f 551/551/551 550/550/550 549/549/549
f 552/552/552 551/551/551 549/549/549
f 552/552/552 549/549/549 553/553/553
f 552/552/552 554/554/554 551/551/551
f 552/552/552 553/553/553 555/555/555
f 554/554/554 552/552/552 556/556/556
f 555/555/555 557/557/557 552/552/552
f 556/556/556 552/552/552 557/557/557
f 560/560/560 559/559/559 558/558/558
f 561/561/561 560/560/560 558/558/558
f 560/560/560 561/561/561 562/562/562
f 558/558/558 563/563/563 561/561/561
f 558/558/558 564/564/564 563/563/563
f 563/563/563 564/564/564 565/565/565
f 561/561/561 563/563/563 566/566/566
f 561/561/561 566/566/566 567/567/567
f 567/567/567 566/566/566 568/568/568
f 566/566/566 569/569/569 568/568/568
f 570/570/570 563/563/563 565/565/565
f 565/565/565 569/569/569 570/570/570
f 566/566/566 570/570/570 569/569/569
f 563/563/563 570/570/570 566/566/566
f 573/573/573 572/572/572 571/571/571
f 573/573/573 574/574/574 572/572/572
f 574/574/574 575/575/575 572/572/572
f 576/576/576 575/575/575 574/574/574
f 576/576/576 574/574/574 577/577/577
f 575/575/575 576/576/576 578/578/578
f 581/581/581 580/580/580 579/579/579
f 582/582/582 580/580/580 581/581/581
f 583/583/583 582/582/582 581/581/581
f 582/582/582 583/583/583 584/584/584
f 587/587/587 586/586/586 585/585/585
f 588/588/588 587/587/587 585/585/585
f 591/591/591 590/590/590 589/589/589
f 590/590/590 592/592/592 589/589/589
f 590/590/590 593/593/593 592/592/592
f 593/593/593 594/594/594 592/592/592
f 593/593/593 595/595/595 594/594/594
f 595/595/595 596/596/596 594/594/594
f 595/595/595 597/597/597 596/596/596
f 597/597/597 598/598/598 596/596/596
f 597/597/597 599/599/599 598/598/598
f 599/599/599 600/600/600 598/598/598
f 603/603/603 602/602/602 601/601/601
f 601/601/601 604/604/604 603/603/603
f 601/601/601 605/605/605 604/604/604
f 604/604/604 605/605/605 606/606/606
f 607/607/607 605/605/605 601/601/601
f 605/605/605 607/607/607 606/606/606
f 610/610/610 609/609/609 608/608/608
f 611/611/611 609/609/609 610/610/610
f 610/610/610 612/612/612 611/611/611
f 613/613/613 612/612/612 610/610/610
f 611/611/611 614/614/614 609/609/609
f 614/614/614 615/615/615 609/609/609
f 618/618/618 617/617/617 616/616/616
f 616/616/616 619/619/619 618/618/618
f 622/622/622 621/621/621 620/620/620
f 623/623/623 622/622/622 620/620/620
f 623/623/623 620/620/620 624/624/624
f 625/625/625 623/623/623 624/624/624
f 625/625/625 624/624/624 626/626/626
f 627/627/627 625/625/625 626/626/626
f 628/628/628 627/627/627 626/626/626
f 627/627/627 628/628/628 629/629/629
f 629/629/629 630/630/630 627/627/627
f 630/630/630 631/631/631 627/627/627
f 632/632/632 630/630/630 629/629/629
f 635/635/635 634/634/634 633/633/633
f 635/635/635 633/633/633 636/636/636
f 636/636/636 633/633/633 637/637/637
f 636/636/636 637/637/637 638/638/638
f 639/639/639 635/635/635 636/636/636
f 640/640/640 636/636/636 638/638/638
f 636/636/636 641/641/641 639/639/639
f 642/642/642 639/639/639 641/641/641
f 642/642/642 643/643/643 639/639/639
f 636/636/636 644/644/644 641/641/641
f 636/636/636 640/640/640 644/644/644
f 645/645/645 641/641/641 644/644/644
f 646/646/646 645/645/645 644/644/644
f 646/646/646 644/644/644 640/640/640
f 647/647/647 646/646/646 640/640/640
f 650/650/650 649/649/649 648/648/648
f 649/649/649 651/651/651 648/648/648
f 652/652/652 648/648/648 651/651/651
f 653/653/653 652/652/652 651/651/651
f 652/652/652 654/654/654 648/648/648
f 654/654/654 655/655/655 648/648/648
f 654/654/654 656/656/656 655/655/655
f 659/659/659 658/658/658 657/657/657
f 660/660/660 659/659/659 657/657/657
f 660/660/660 657/657/657 661/661/661
f 659/659/659 660/660/660 662/662/662
f 660/660/660 661/661/661 663/663/663
f 660/660/660 663/663/663 662/662/662
f 666/666/666 665/665/665 664/664/664
f 667/667/667 664/664/664 665/665/665
f 668/668/668 667/667/667 665/665/665
f 665/665/665 669/669/669 668/668/668
f 670/670/670 668/668/668 669/669/669
f 671/671/671 670/670/670 669/669/669
f 674/674/674 673/673/673 672/672/672
f 675/675/675 674/674/674 672/672/672
f 676/676/676 674/674/674 675/675/675
f 675/675/675 677/677/677 676/676/676
f 678/678/678 677/677/677 675/675/675
f 675/675/675 672/672/672 678/678/678
f 679/679/679 678/678/678 672/672/672
f 682/682/682 681/681/681 680/680/680
f 683/683/683 682/682/682 680/680/680
f 683/683/683 684/684/684 682/682/682
f 685/685/685 684/684/684 683/683/683
f 682/682/682 684/684/684 686/686/686
f 684/684/684 685/685/685 687/687/687
f 687/687/687 686/686/686 684/684/684
f 686/686/686 687/687/687 688/688/688
f 691/691/691 690/690/690 689/689/689
f 690/690/690 692/692/692 689/689/689
f 690/690/690 693/693/693 692/692/692
f 693/693/693 694/694/694 692/692/692
f 697/697/697 696/696/696 695/695/695
f 698/698/698 696/696/696 697/697/697
f 697/697/697 699/699/699 698/698/698
f 702/702/702 701/701/701 700/700/700
f 703/703/703 702/702/702 700/700/700
f 706/706/706 705/705/705 704/704/704
f 705/705/705 707/707/707 704/704/704
f 705/705/705 708/708/708 707/707/707
f 708/708/708 709/709/709 707/707/707
f 710/710/710 708/708/708 705/705/705
f 711/711/711 709/709/709 708/708/708
f 710/710/710 712/712/712 708/708/708
f 712/712/712 711/711/711 708/708/708
