g 0.1000
v 0.46314478 -0.56552285 2.6932504
v 0.2973386 -0.5781568 2.8646357
v 0.49568185 -0.56604695 2.838103
v -0.67859566 0.78436077 2.337705
v -0.6953539 0.88668376 2.2605264
v -0.68117976 0.8336002 2.21955
v 0.8073394 -0.31922197 1.8067925
v 1.0076118 -0.17703685 1.3557059
v 1.0266057 -0.38064817 1.573441
v 0.8073394 -0.31922197 1.8067925
v 0.7931997 -0.21245338 1.8081362
v 1.0076118 -0.17703685 1.3557059
v 0.061438084 -0.9013393 2.013925
v 0.2552519 -0.95293474 2.194361
v 0.41126785 -0.6696072 2.173423
v 0.50061333 -0.123679265 3.182946
v 0.671458 -0.055192776 3.075805
v 0.59446025 -0.07468918 2.9952285
v -0.8171278 0.10182978 3.1413496
v -0.56582683 -0.04073933 3.136302
v -0.69442165 0.050545674 2.9137957
v -0.45951495 -1.0929606 1.2965678
v -0.6864133 -1.1257536 1.0951717
v -0.7397814 -0.94104946 1.2431117
v -0.47889552 -0.950958 1.4483459
v -0.45951495 -1.0929606 1.2965678
v -0.7397814 -0.94104946 1.2431117
v -0.04194642 0.9433125 1.087908
v -0.014949005 0.76871645 0.85246277
v 0.3647113 0.7798483 0.9786637
v 0.42941052 0.8791722 1.1849719
v 0.10971533 0.94274575 1.1414956
v 0.22944872 0.95598793 1.331141
v 0.2604987 0.9598071 1.579923
v 0.4616544 0.8793746 1.5652378
v 0.7865727 0.5177945 1.5226203
v 0.82672817 0.572454 1.0842566
v 0.5852258 0.757277 1.604133
v 0.49057093 0.8995351 1.7109798
v 0.28574252 0.9666734 1.7388313
v 0.54600775 0.9290716 1.9424121
v 0.20245638 1.0206015 1.8962042
v 0.9372337 1.0098677 1.8757584
v 0.3744885 0.9884649 1.981655
v 0.04433568 1.1018642 2.0535119
v 0.4721606 0.90549755 2.113997
v 0.02611728 1.0922737 1.9144105
v -0.1220057 1.0587488 1.9466097
v -0.17699368 1.0443625 1.90901
v -0.49066278 0.9903979 2.138998
v -0.36999822 0.99448484 1.6854405
v -0.55839175 0.9566638 1.6688924
v -0.4686038 0.94762695 1.4662917
v 0.4786 0.9248191 2.0260935
v -0.5659982 0.8506216 1.1478926
v -0.47035187 0.93706983 1.3902247
v -0.35122097 0.9290528 1.1745169
v -1.0634283 0.60959226 1.2569582
v -1.0355365 0.6393212 1.6840298
v -0.9686264 0.6835971 1.7282423
v -0.8553909 0.75580126 1.7980515
v -0.72247934 0.83907104 2.1474283
v -0.8977981 0.790288 1.81703
v -0.68117976 0.8336002 2.21955
v -0.6953539 0.88668376 2.2605264
v -0.3085047 0.82208824 2.6047642
v -0.67859566 0.78436077 2.337705
v -0.80799246 0.549272 2.5936565
v -0.25821292 0.75479025 2.6827683
v -0.73687947 0.45087665 2.7789433
v 0.0320476 0.8630779 2.5338616
v 0.17980552 0.89595854 2.4754107
v -0.95661306 0.9567011 2.2064753
v -1.134159 0.9135003 1.8142586
v -1.4577742 0.7752986 2.3987422
v -1.1860261 0.6929196 2.606399
v -1.5980351 0.5766455 1.8479673
v 0.5538982 0.8671327 2.2028704
v 0.28737378 0.8649521 2.4597795
v 0.60155654 0.730334 2.3564506
v 0.57859695 0.82255864 2.3455534
v 0.46513367 0.8040133 2.426293
v 0.5629884 0.6622744 2.5749269
v 0.7906344 0.8960089 2.3315938
v 1.0045248 0.7774324 2.3492434
v 1.1429566 0.85354716 1.8581809
v 0.9511335 0.8361822 1.6450902
v -0.9318855 -0.62972534 1.1003256
v -0.82368016 -0.58977586 1.0184096
v -0.7983788 -0.5051179 0.90881884
v -0.7788148 -0.72048056 1.1226482
v -0.7485366 -0.8224836 1.203872
v -0.97986084 -0.53664285 1.7024051
v -0.6836587 -0.865835 1.3123797
v -0.57930034 -0.8934201 1.6654528
v -0.6036957 -0.9337053 1.3599415
v -0.47889552 -0.950958 1.4483459
v -0.52041423 -0.84140384 2.061017
v -0.89660263 -0.5104506 2.1577058
v -0.085593 -1.0163583 1.6078871
v -0.40690625 -0.97371584 1.3711454
v 0.061438084 -0.9013393 2.013925
v -0.49447578 -0.7974278 2.1561491
v -0.7073271 -0.53528374 2.320177
v -0.6437451 -0.39555097 2.6391203
v -0.57405776 -0.4639754 2.5925345
v -0.517869 -0.4488986 2.7132545
v -0.55225986 -0.38230464 2.8842783
v -0.45679733 -0.3721209 3.125423
v -0.46220917 -0.4592198 2.7987437
v -0.27446616 -0.5478726 2.8905408
v -0.1495251 -0.5474092 2.9373653
v -0.17713413 -0.3502744 3.289976
v -0.04452777 -0.3410544 3.3678725
v 0.029179662 -0.55833733 2.9458282
v 0.096725166 -0.33123317 3.4508483
v 0.10607928 -0.57149965 2.9314027
v 0.5221057 -0.18697393 3.1966662
v 0.24103585 -0.5392196 2.9147282
v 0.7231556 -0.29468462 1.1721997
v 0.60769165 -0.32483214 1.0864412
v 0.68769294 -0.38279805 1.2130934
v 0.37041122 -0.5286831 0.92687434
v 0.39522046 -0.6654164 1.1915919
v 0.56550205 -0.5386121 1.3754405
v 0.42677182 -0.75428635 1.5614761
v 0.5553611 -0.5891098 1.4830275
v 0.5616082 -0.6120028 1.5594845
v 0.54824716 -0.6080768 1.6685382
v 0.4489826 -0.7607039 1.979382
v 0.6485289 -0.48557633 1.8207653
v 0.5788611 -0.57622844 1.9455427
v 0.7023959 -0.3929389 1.9101453
v 0.7096903 -0.39580512 1.831668
v 0.72892475 -0.26856762 1.8648564
v 0.75248617 -0.1672523 1.7893348
v 0.46916792 -0.60757565 2.1864088
v 0.41126785 -0.6696072 2.173423
v 0.5092237 -0.5183434 2.2819736
v 0.7683945 -0.0062972307 1.9483423
v 0.81829554 -0.11356684 1.5336667
v 0.8513633 0.0031551458 1.5270686
v 0.85715264 -0.05340355 1.3017209
v 0.9309 0.02529191 1.0956949
v 0.7710775 -0.24543557 1.1752783
v 0.828953 0.23988125 1.468346
v 0.82672817 0.572454 1.0842566
v 0.81570756 0.36454812 1.4614788
v 0.7865727 0.5177945 1.5226203
v 0.82720506 0.17647377 1.5261854
v 0.8267266 0.09895392 1.6001503
v 0.76420355 0.06703493 1.9482213
v 0.7409725 -0.073496014 2.3446028
v 0.7280719 0.120177634 2.3611586
v 0.7030996 -0.08718492 2.7468464
v 0.636557 0.2556521 2.7655408
v 0.65897 -0.39152017 2.254611
v 0.7006738 0.20963007 2.4591572
v 0.69455576 0.33991975 2.4592743
v 0.50568604 -0.4948684 2.3337274
v 0.5094391 -0.5163095 2.5726848
v 0.524506 -0.63437295 2.2338958
v 0.70969284 -0.3917852 2.6393902
v 0.46314478 -0.56552285 2.6932504
v 0.25908682 -0.9677197 2.730432
v 0.2552519 -0.95293474 2.194361
v 0.49568185 -0.56604695 2.838103
v 0.5221057 -0.18697393 3.1966662
v 0.50061333 -0.123679265 3.182946
v 0.59446025 -0.07468918 2.9952285
v 0.61228657 0.14064285 2.869428
v 0.671458 -0.055192776 3.075805
v 0.70191157 0.20649692 2.95141
v 0.6101196 0.24721804 2.8033347
v 0.6129733 0.34857377 2.746356
v 0.7340565 0.5743326 3.3144894
v 0.30067992 0.23368876 3.7439911
v 0.72646964 0.47047046 2.8300068
v 0.60073125 0.65787655 2.6434374
v 0.5629884 0.6622744 2.5749269
v 0.4784118 0.84259963 2.4533525
v 0.46513367 0.8040133 2.426293
v 0.60155654 0.730334 2.3564506
v 0.57859695 0.82255864 2.3455534
v 0.5538982 0.8671327 2.2028704
v -0.17368403 -0.34308213 0.59893775
v -0.31523654 -0.48143008 0.73810697
v -0.07442177 -0.6071079 0.81333
v -0.429188 -0.40398258 0.6847801
v -0.52460843 -0.44733694 0.73799783
v 0.50061333 -0.123679265 3.182946
v 0.5221057 -0.18697393 3.1966662
v 0.096725166 -0.33123317 3.4508483
v 0.256387 -0.22271234 3.3349807
v 0.30067992 0.23368876 3.7439911
v 0.671458 -0.055192776 3.075805
v 0.06923419 -0.10342413 3.4108486
v -0.028364003 -0.16586305 3.3592951
v -0.08275947 0.1093968 3.6764472
v 0.040201485 0.47905728 3.7846682
v -0.64870524 0.46800122 3.5198386
v -0.103493065 0.7857135 3.566834
v 0.51912695 0.8466336 3.3909488
v 0.7340565 0.5743326 3.3144894
v -0.25036937 -0.14385445 3.2249959
v -0.17713413 -0.3502744 3.289976
v -0.45679733 -0.3721209 3.125423
v -0.55779654 -0.013963845 3.176342
v 0.24103585 -0.5392196 2.9147282
v 0.5221057 -0.18697393 3.1966662
v 0.49568185 -0.56604695 2.838103
v 0.2973386 -0.5781568 2.8646357
v 0.02434346 -0.9141439 2.890791
v 0.10607928 -0.57149965 2.9314027
v 0.029179662 -0.55833733 2.9458282
v 0.25908682 -0.9677197 2.730432
v 0.46314478 -0.56552285 2.6932504
v -0.15281159 -0.6524992 2.95871
v -0.53311265 -0.88302803 2.7194574
v -0.1495251 -0.5474092 2.9373653
v -0.5939511 -0.584008 2.7723665
v -0.27446616 -0.5478726 2.8905408
v -0.46220917 -0.4592198 2.7987437
v 0.41126785 -0.6696072 2.173423
v 0.4489826 -0.7607039 1.979382
v 0.42677182 -0.75428635 1.5614761
v -0.09136194 -0.9454167 1.1349995
v -0.18796843 -1.1294345 0.94524884
v 0.39522046 -0.6654164 1.1915919
v 0.03400369 -0.75595886 1.0062671
v 0.007940643 -0.68697846 0.90726364
v 0.37041122 -0.5286831 0.92687434
v 0.81570756 0.36454812 1.4614788
v 0.828953 0.23988125 1.468346
v 0.91367024 0.2611297 1.4187149
v 0.7865727 0.5177945 1.5226203
v 0.9511335 0.8361822 1.6450902
v 1.2022915 0.41718444 1.5737487
v 1.1429566 0.85354716 1.8581809
v 0.5852258 0.757277 1.604133
v 0.9372337 1.0098677 1.8757584
v 0.49057093 0.8995351 1.7109798
v 0.82720506 0.17647377 1.5261854
v 0.91367024 0.2611297 1.4187149
v 0.828953 0.23988125 1.468346
v 0.9170362 0.14474171 1.5281348
v 0.8267266 0.09895392 1.6001503
v 0.9227484 0.028522033 1.645954
v 0.76420355 0.06703493 1.9482213
v 0.95804495 0.13099185 2.0879152
v 1.225369 0.22949821 1.7777402
v 0.7280719 0.120177634 2.3611586
v 0.8098267 0.1504027 2.421205
v 0.7006738 0.20963007 2.4591572
v 0.69455576 0.33991975 2.4592743
v 0.8098267 0.1504027 2.421205
v 0.7006738 0.20963007 2.4591572
v 1.0045248 0.7774324 2.3492434
v 1.0785195 0.31883568 2.28535
v 0.7906344 0.8960089 2.3315938
v 0.60155654 0.730334 2.3564506
v 0.8098267 0.1504027 2.421205
v 1.0785195 0.31883568 2.28535
v 0.95804495 0.13099185 2.0879152
v 1.225369 0.22949821 1.7777402
v 1.2258035 0.6028414 1.9796052
v 1.0045248 0.7774324 2.3492434
v 1.1429566 0.85354716 1.8581809
v 1.2022915 0.41718444 1.5737487
v 0.9170362 0.14474171 1.5281348
v 0.91367024 0.2611297 1.4187149
v 0.9227484 0.028522033 1.645954
v -1.0392954 0.18824595 2.828005
v -1.4651365 0.18737939 2.4896684
v -1.4847004 0.5207051 2.5605545
v -1.6779689 0.32920933 1.995959
v -1.3864626 -0.1352223 2.0516117
v -1.4577742 0.7752986 2.3987422
v -1.5980351 0.5766455 1.8479673
v -1.2628695 0.043830615 1.5583981
v -1.1500605 -0.18256378 1.7052312
v -1.177896 -0.12854472 1.5790905
v -1.6779689 0.32920933 1.995959
v -1.3864626 -0.1352223 2.0516117
v -1.068886 -0.17267956 2.116967
v -1.057857 -0.16537908 2.1807244
v -1.0790958 -0.09178044 2.641677
v -1.4651365 0.18737939 2.4896684
v -0.9637372 -0.122736596 2.3654194
v -0.81823504 -0.06508051 2.5884755
v -1.4577742 0.7752986 2.3987422
v -1.1860261 0.6929196 2.606399
v -1.4847004 0.5207051 2.5605545
v -1.0392954 0.18824595 2.828005
v -0.75248694 0.23950206 2.7904766
v -0.80799246 0.549272 2.5936565
v -0.67859566 0.78436077 2.337705
v -0.6953539 0.88668376 2.2605264
v -0.8039018 0.087758325 2.692773
v -0.8014421 0.06259523 2.67397
v -1.0790958 -0.09178044 2.641677
v -0.81823504 -0.06508051 2.5884755
v -1.4651365 0.18737939 2.4896684
v 0.9510137 -0.62847567 1.5068785
v 0.83599734 -0.64344984 1.7145857
v 0.93940437 -0.5024331 1.7134706
v 1.0554562 -0.5283329 1.4821929
v 1.0266057 -0.38064817 1.573441
v 0.8073394 -0.31922197 1.8067925
v 1.0076118 -0.17703685 1.3557059
v 0.96237016 -0.20203254 1.2042426
v 1.0076118 -0.17703685 1.3557059
v 0.85715264 -0.05340355 1.3017209
v 0.96237016 -0.20203254 1.2042426
v 0.81829554 -0.11356684 1.5336667
v 0.7931997 -0.21245338 1.8081362
v 0.75248617 -0.1672523 1.7893348
v 0.7931997 -0.21245338 1.8081362
v 0.72892475 -0.26856762 1.8648564
v 0.75248617 -0.1672523 1.7893348
v 0.8073394 -0.31922197 1.8067925
v 0.93940437 -0.5024331 1.7134706
v 0.83599734 -0.64344984 1.7145857
v 0.7096903 -0.39580512 1.831668
v 0.6485289 -0.48557633 1.8207653
v 0.54824716 -0.6080768 1.6685382
v 0.56550205 -0.5386121 1.3754405
v 0.5553611 -0.5891098 1.4830275
v 0.67556036 -0.6725575 1.3881274
v 0.5616082 -0.6120028 1.5594845
v 0.54824716 -0.6080768 1.6685382
v 0.83599734 -0.64344984 1.7145857
v 0.9510137 -0.62847567 1.5068785
v 1.0554562 -0.5283329 1.4821929
v 0.7919246 -0.565112 1.2819167
v 0.56550205 -0.5386121 1.3754405
v 0.67556036 -0.6725575 1.3881274
v 0.7919246 -0.565112 1.2819167
v 0.68769294 -0.38279805 1.2130934
v 0.7231556 -0.29468462 1.1721997
v 0.96237016 -0.20203254 1.2042426
v 1.0554562 -0.5283329 1.4821929
v 0.7710775 -0.24543557 1.1752783
v 0.85715264 -0.05340355 1.3017209
v 0.60769165 -0.32483214 1.0864412
v 0.66013455 0.009424803 0.8867497
v 0.33346057 -0.14536637 0.7016238
v 0.9309 0.02529191 1.0956949
v 0.37041122 -0.5286831 0.92687434
v 0.007940643 -0.68697846 0.90726364
v 0.82672817 0.572454 1.0842566
v -0.022502642 -0.6303784 0.8480471
v 0.5745325 0.46092248 0.81568223
v 0.42941052 0.8791722 1.1849719
v 0.3647113 0.7798483 0.9786637
v -0.014949005 0.76871645 0.85246277
v 0.16474727 0.36531746 0.6747789
v -0.47931358 0.6511429 0.8306191
v -0.34644717 0.19577761 0.65207624
v -0.17368403 -0.34308213 0.59893775
v -0.07442177 -0.6071079 0.81333
v -0.04659629 -0.74173737 0.77980655
v -0.31523654 -0.48143008 0.73810697
v -0.31497133 -0.53329086 0.65207845
v -0.429188 -0.40398258 0.6847801
v -0.36249155 -0.91942364 0.59689313
v -0.62711066 -0.46662056 0.67804736
v -0.03973735 -0.96535766 0.87863636
v -0.18796843 -1.1294345 0.94524884
v -0.8279166 -0.6007885 0.7198566
v -0.7689759 -0.92361027 0.81783926
v -0.5134273 -1.0590205 0.69678694
v -0.8466419 0.041908316 0.80346113
v -0.6867864 -0.46163398 0.7819162
v -0.52460843 -0.44733694 0.73799783
v -0.89762765 0.48898113 0.9524175
v -1.2571857 0.032120816 1.175526
v -0.7983788 -0.5051179 0.90881884
v -0.9318855 -0.62972534 1.1003256
v -1.0634283 0.60959226 1.2569582
v -0.5659982 0.8506216 1.1478926
v -0.35122097 0.9290528 1.1745169
v -0.29548234 0.8973957 1.11365
v -0.17307296 0.8963928 1.0708216
v -0.41709346 1.0515153 1.1704057
v -0.04194642 0.9433125 1.087908
v -0.037176773 1.1045873 1.0319415
v -0.25702345 1.3894088 1.3658501
v 0.10887103 1.2938534 1.229655
v 0.13220783 0.98872536 1.132242
v 0.10971533 0.94274575 1.1414956
v 0.26909533 1.2372524 1.3170488
v 0.41126785 -0.6696072 2.173423
v 0.2552519 -0.95293474 2.194361
v 0.524506 -0.63437295 2.2338958
v 0.46916792 -0.60757565 2.1864088
v 0.5092237 -0.5183434 2.2819736
v -0.7073271 -0.53528374 2.320177
v -0.63352835 -0.8806113 2.2870684
v -0.49447578 -0.7974278 2.1561491
v 0.061438084 -0.9013393 2.013925
v -0.7073271 -0.53528374 2.320177
v -0.53311265 -0.88302803 2.7194574
v -0.63352835 -0.8806113 2.2870684
v -0.5939511 -0.584008 2.7723665
v -0.57405776 -0.4639754 2.5925345
v -0.517869 -0.4488986 2.7132545
v -0.46220917 -0.4592198 2.7987437
v 0.25908682 -0.9677197 2.730432
v 0.2552519 -0.95293474 2.194361
v 0.061438084 -0.9013393 2.013925
v -0.029937178 -1.0567774 2.604235
v 0.02434346 -0.9141439 2.890791
v -0.63352835 -0.8806113 2.2870684
v -0.53311265 -0.88302803 2.7194574
v -0.55779654 -0.013963845 3.176342
v -0.56582683 -0.04073933 3.136302
v -0.8171278 0.10182978 3.1413496
v -0.64870524 0.46800122 3.5198386
v -0.6457671 0.7614231 3.2710996
v -0.103493065 0.7857135 3.566834
v -0.64870524 0.46800122 3.5198386
v -0.81541044 0.42766643 2.8254044
v -0.29188 0.85481817 2.8130465
v -0.8171278 0.10182978 3.1413496
v -0.69442165 0.050545674 2.9137957
v -0.73831785 0.23823842 2.823659
v -0.75248694 0.23950206 2.7904766
v -0.80799246 0.549272 2.5936565
v -0.73687947 0.45087665 2.7789433
v -0.8039018 0.087758325 2.692773
v -0.8014421 0.06259523 2.67397
v -0.55225986 -0.38230464 2.8842783
v -0.56582683 -0.04073933 3.136302
v -0.55779654 -0.013963845 3.176342
v -0.45679733 -0.3721209 3.125423
v -0.6437451 -0.39555097 2.6391203
v -0.81823504 -0.06508051 2.5884755
v -0.89660263 -0.5104506 2.1577058
v -0.9637372 -0.122736596 2.3654194
v -1.057857 -0.16537908 2.1807244
v -0.97986084 -0.53664285 1.7024051
v -1.068886 -0.17267956 2.116967
v -1.1500605 -0.18256378 1.7052312
v -0.9318855 -0.62972534 1.1003256
v -1.177896 -0.12854472 1.5790905
v -1.2571857 0.032120816 1.175526
v -1.2628695 0.043830615 1.5583981
v -1.2092172 0.2053214 1.4623774
v -1.1660416 0.33073246 1.4779285
v -1.0634283 0.60959226 1.2569582
v -1.0771217 0.54804933 1.6188852
v -1.0355365 0.6393212 1.6840298
v 0.51912695 0.8466336 3.3909488
v 0.72646964 0.47047046 2.8300068
v 0.7340565 0.5743326 3.3144894
v 0.60073125 0.65787655 2.6434374
v 0.4784118 0.84259963 2.4533525
v 0.18307444 1.025429 2.5651324
v 0.005168855 1.0672818 3.0330734
v -0.29188 0.85481817 2.8130465
v -0.6457671 0.7614231 3.2710996
v -0.103493065 0.7857135 3.566834
v 0.040201485 0.47905728 3.7846682
v 0.46513367 0.8040133 2.426293
v 0.4784118 0.84259963 2.4533525
v 0.18307444 1.025429 2.5651324
v 0.28737378 0.8649521 2.4597795
v 0.17980552 0.89595854 2.4754107
v 0.0320476 0.8630779 2.5338616
v -0.29188 0.85481817 2.8130465
v -0.25821292 0.75479025 2.6827683
v -0.73687947 0.45087665 2.7789433
v -0.81541044 0.42766643 2.8254044
v -0.73831785 0.23823842 2.823659
v 0.28574252 0.9666734 1.7388313
v 0.20245638 1.0206015 1.8962042
v 0.24128914 1.1399833 1.8756565
v 0.30555832 0.99030864 1.7368385
v 0.2604987 0.9598071 1.579923
v 0.26909533 1.2372524 1.3170488
v 0.27294195 1.0070727 1.3540407
v 0.22944872 0.95598793 1.331141
v 0.13220783 0.98872536 1.132242
v 0.10971533 0.94274575 1.1414956
v -0.060958937 1.231971 1.9112133
v 0.24128914 1.1399833 1.8756565
v 0.20245638 1.0206015 1.8962042
v 0.02611728 1.0922737 1.9144105
v -0.1220057 1.0587488 1.9466097
v -0.25702345 1.3894088 1.3658501
v 0.10887103 1.2938534 1.229655
v 0.26909533 1.2372524 1.3170488
v -0.080610126 1.3991048 1.5370163
v -0.3123688 1.3506731 1.5723326
v 0.24128914 1.1399833 1.8756565
v -0.060958937 1.231971 1.9112133
v -0.35122097 0.9290528 1.1745169
v -0.29548234 0.8973957 1.11365
v -0.41709346 1.0515153 1.1704057
v -0.47035187 0.93706983 1.3902247
v -0.5096871 1.0258051 1.3654128
v -0.4686038 0.94762695 1.4662917
v -0.25702345 1.3894088 1.3658501
v -0.36999822 0.99448484 1.6854405
v -0.3123688 1.3506731 1.5723326
v -0.35868403 1.1548 1.7062563
v -0.17699368 1.0443625 1.90901
v -0.060958937 1.231971 1.9112133
v -0.1220057 1.0587488 1.9466097
v -0.7689759 -0.92361027 0.81783926
v -0.8279166 -0.6007885 0.7198566
v -0.89911705 -0.5910844 0.84558684
v -0.6864133 -1.1257536 1.0951717
v -0.7397814 -0.94104946 1.2431117
v -0.7788148 -0.72048056 1.1226482
v -0.6836587 -0.865835 1.3123797
v -0.7485366 -0.8224836 1.203872
v -0.82368016 -0.58977586 1.0184096
v -0.7983788 -0.5051179 0.90881884
v -0.31497133 -0.53329086 0.65207845
v -0.31523654 -0.48143008 0.73810697
v -0.52460843 -0.44733694 0.73799783
v -0.62711066 -0.46662056 0.67804736
v -0.6867864 -0.46163398 0.7819162
v -0.8279166 -0.6007885 0.7198566
v -0.89911705 -0.5910844 0.84558684
v -0.7983788 -0.5051179 0.90881884
v -0.6836587 -0.865835 1.3123797
v -0.6036957 -0.9337053 1.3599415
v -0.47889552 -0.950958 1.4483459
v -0.7397814 -0.94104946 1.2431117
v -0.45951495 -1.0929606 1.2965678
v -0.18796843 -1.1294345 0.94524884
v -0.6864133 -1.1257536 1.0951717
v -0.5134273 -1.0590205 0.69678694
v -0.7689759 -0.92361027 0.81783926
v -0.36249155 -0.91942364 0.59689313
v -0.03973735 -0.96535766 0.87863636
v -0.18796843 -1.1294345 0.94524884
v -0.09136194 -0.9454167 1.1349995
v 0.03400369 -0.75595886 1.0062671
v -0.04659629 -0.74173737 0.77980655
v 0.007940643 -0.68697846 0.90726364
v -0.022502642 -0.6303784 0.8480471
v -0.40690625 -0.97371584 1.3711454
v -0.18796843 -1.1294345 0.94524884
v -0.45951495 -1.0929606 1.2965678
v -0.47889552 -0.950958 1.4483459
v -0.028364003 -0.16586305 3.3592951
v -0.17713413 -0.3502744 3.289976
v -0.25036937 -0.14385445 3.2249959
v -0.04452777 -0.3410544 3.3678725
v 0.06923419 -0.10342413 3.4108486
v 0.096725166 -0.33123317 3.4508483
v -1.2628695 0.043830615 1.5583981
v -1.2092172 0.2053214 1.4623774
v -1.6779689 0.32920933 1.995959
v -1.290692 0.4972742 1.5547137
v -1.5980351 0.5766455 1.8479673
v -1.1660416 0.33073246 1.4779285
v -1.134159 0.9135003 1.8142586
v -1.0771217 0.54804933 1.6188852
v -1.0355365 0.6393212 1.6840298
v -0.9686264 0.6835971 1.7282423
v -0.8977981 0.790288 1.81703
v -0.8553909 0.75580126 1.7980515
v -0.25036937 -0.14385445 3.2249959
v -0.08275947 0.1093968 3.6764472
v -0.028364003 -0.16586305 3.3592951
v -0.55779654 -0.013963845 3.176342
v -0.64870524 0.46800122 3.5198386
v 1.0661347 -0.32576835 0.78801095
v 0.6459389 0.2330128 1.2833579
v 0.9491885 0.27678668 1.2729186
v 0.84815854 -0.3911717 0.77280974
v 1.3568656 -0.7880162 -0.044561565
v 1.4038155 -0.76696515 -0.03460774
v 0.84815854 -0.3911717 0.77280974
v 0.6156196 0.37919587 1.0155954
v 0.6459389 0.2330128 1.2833579
v 0.81796247 -0.2495842 0.5965662
v 1.3467933 -0.74945843 -0.078596234
v 1.3568656 -0.7880162 -0.044561565
v 0.6459389 0.2330128 1.2833579
v 0.6156196 0.37919587 1.0155954
v 0.9188695 0.42297 1.0051562
v 0.9491885 0.27678668 1.2729186
v 0.81796247 -0.2495842 0.5965662
v 0.9188695 0.42297 1.0051562
v 0.6156196 0.37919587 1.0155954
v 1.0359443 -0.18416858 0.61176884
v 1.393743 -0.7284076 -0.06864232
v 1.3467933 -0.74945843 -0.078596234
v 1.0359443 -0.18416858 0.61176884
v 1.0661347 -0.32576835 0.78801095
v 0.9491885 0.27678668 1.2729186
v 0.9188695 0.42297 1.0051562
v 1.0359443 -0.18416858 0.61176884
v 1.393743 -0.7284076 -0.06864232
v 1.4038155 -0.76696515 -0.03460774
v 1.0661347 -0.32576835 0.78801095
v 1.4038155 -0.76696515 -0.03460774
v 1.393743 -0.7284076 -0.06864232
v 1.3467933 -0.74945843 -0.078596234
v 1.3568656 -0.7880162 -0.044561565
v 0.7424543 -0.17434493 0.84055907
v 0.41993427 -0.86105597 1.2615154
v 0.4525205 -0.6015732 1.421491
v 0.74820215 -0.3456505 0.70598173
v 0.6742184 0.7406057 0.7685276
v 0.6792024 0.7393044 0.82068074
v 0.74820215 -0.3456505 0.70598173
v 0.17960006 -0.74021757 1.114468
v 0.41993427 -0.86105597 1.2615154
v 0.5412539 -0.28867155 0.6216083
v 0.6221307 0.74341357 0.77357507
v 0.6742184 0.7406057 0.7685276
v 0.41993427 -0.86105597 1.2615154
v 0.17960006 -0.74021757 1.114468
v 0.21554232 -0.48816466 1.2690408
v 0.4525205 -0.6015732 1.421491
v 0.5412539 -0.28867155 0.6216083
v 0.21554232 -0.48816466 1.2690408
v 0.17960006 -0.74021757 1.114468
v 0.5473808 -0.1828489 0.8245872
v 0.62711465 0.74211216 0.82572865
v 0.6221307 0.74341357 0.77357507
v 0.5473808 -0.1828489 0.8245872
v 0.7424543 -0.17434493 0.84055907
v 0.4525205 -0.6015732 1.421491
v 0.21554232 -0.48816466 1.2690408
v 0.5473808 -0.1828489 0.8245872
v 0.62711465 0.74211216 0.82572865
v 0.6792024 0.7393044 0.82068074
v 0.7424543 -0.17434493 0.84055907
v 0.6792024 0.7393044 0.82068074
v 0.62711465 0.74211216 0.82572865
v 0.6221307 0.74341357 0.77357507
v 0.6742184 0.7406057 0.7685276
v -1.0803713 -1.2236199 0.76400995
v -0.9051136 -0.54081017 1.3579028
v -0.6684332 -0.72641057 1.2985702
v -1.2791135 -1.1231862 0.8133431
v -1.4002178 -1.646538 -0.07873595
v -1.3510213 -1.6639656 -0.083477855
v -1.2791135 -1.1231862 0.8133431
v -0.8904799 -0.43079266 1.0721276
v -0.9051136 -0.54081017 1.3579028
v -1.2475513 -0.97638476 0.64165926
v -1.3894345 -1.6071581 -0.111590594
v -1.4002178 -1.646538 -0.07873595
v -0.9051136 -0.54081017 1.3579028
v -0.8904799 -0.43079266 1.0721276
v -0.65380037 -0.61639297 1.0127947
v -0.6684332 -0.72641057 1.2985702
v -1.2475513 -0.97638476 0.64165926
v -1.048804 -1.0768204 0.5923261
v -0.65380037 -0.61639297 1.0127947
v -0.8904799 -0.43079266 1.0721276
v -1.048804 -1.0768204 0.5923261
v -0.6684332 -0.72641057 1.2985702
v -0.65380037 -0.61639297 1.0127947
v -1.0803713 -1.2236199 0.76400995
v -1.3510213 -1.6639656 -0.083477855
v -1.3402377 -1.6245854 -0.11633241
v -1.3510213 -1.6639656 -0.083477855
v -1.3402377 -1.6245854 -0.11633241
v -1.3894345 -1.6071581 -0.111590594
v -1.4002178 -1.646538 -0.07873595
v -1.2475513 -0.97638476 0.64165926
v -1.3894345 -1.6071581 -0.111590594
v -1.3402377 -1.6245854 -0.11633241
v -1.048804 -1.0768204 0.5923261
v -1.0067961 1.159873 0.6150712
v -0.63481426 0.78214103 1.4033539
v -0.6703013 0.542688 1.2152362
v -1.0342854 1.1849399 0.8438147
v -1.0803727 2.1581633 0.59886014
v -1.0674443 2.1542006 0.54822767
v -1.0342854 1.1849399 0.8438147
v -0.3758411 0.8496543 1.2551415
v -0.63481426 0.78214103 1.4033539
v -0.8433338 1.2373124 0.87409985
v -1.030633 2.1697083 0.610657
v -1.0803727 2.1581633 0.59886014
v -0.63481426 0.78214103 1.4033539
v -0.3758411 0.8496543 1.2551415
v -0.40992752 0.614287 1.065249
v -0.6703013 0.542688 1.2152362
v -0.8433338 1.2373124 0.87409985
v -0.8007717 1.2544684 0.65847325
v -0.40992752 0.614287 1.065249
v -0.3758411 0.8496543 1.2551415
v -0.8007717 1.2544684 0.65847325
v -0.6703013 0.542688 1.2152362
v -0.40992752 0.614287 1.065249
v -1.0067961 1.159873 0.6150712
v -1.0674443 2.1542006 0.54822767
v -1.0177044 2.1657453 0.5600243
v -1.0674443 2.1542006 0.54822767
v -1.0177044 2.1657453 0.5600243
v -1.030633 2.1697083 0.610657
v -1.0803727 2.1581633 0.59886014
v -0.8433338 1.2373124 0.87409985
v -1.030633 2.1697083 0.610657
v -1.0177044 2.1657453 0.5600243
v -0.8007717 1.2544684 0.65847325
vt 0.41489577 0.9505312
vt 0.4353385 0.9753374
vt 0.4353385 0.9492544
vt 0.24458265 0.6430143
vt 0.24122691 0.65916014
vt 0.24968433 0.65916014
vt 0.8139267 0.22732246
vt 0.8139267 0.15849745
vt 0.7951455 0.18695664
vt 0.36249647 0.8193971
vt 0.34896675 0.82306004
vt 0.36249647 0.88863325
vt 0.9675742 0.39801297
vt 0.99094063 0.4002199
vt 0.99094063 0.35834798
vt 0.49061108 0.76728296
vt 0.48858953 0.7917758
vt 0.5031121 0.7917758
vt 0.40631127 0.9865678
vt 0.40631127 0.9492543
vt 0.3769536 0.9666842
vt 0.82740736 0.95612735
vt 0.82584625 0.99004865
vt 0.8540703 0.99004865
vt 0.85558337 0.26026046
vt 0.8375755 0.26917362
vt 0.85558337 0.30763942
vt 0.2875653 0.53092074
vt 0.25912213 0.53950906
vt 0.2792589 0.59034956
vt 0.30660623 0.59449303
vt 0.2963184 0.5506848
vt 0.32315886 0.5637562
vt 0.3573084 0.5636662
vt 0.35907274 0.5930264
vt 0.36404705 0.6464493
vt 0.30241275 0.6564628
vt 0.36872554 0.611706
vt 0.379178 0.593549
vt 0.37910116 0.5638703
vt 0.41165078 0.59439313
vt 0.3983118 0.5481589
vt 0.40756547 0.64473724
vt 0.4130376 0.5697142
vt 0.4157958 0.5206306
vt 0.43424243 0.581447
vt 0.39701974 0.521644
vt 0.3996799 0.501786
vt 0.39401358 0.49550784
vt 0.41793817 0.44698286
vt 0.36169797 0.47553754
vt 0.35660422 0.4518572
vt 0.33183694 0.46833026
vt 0.4219783 0.5839164
vt 0.29600978 0.46015763
vt 0.32204658 0.4698634
vt 0.2960741 0.48909056
vt 0.3023184 0.40236294
vt 0.35558254 0.3984151
vt 0.3614946 0.40492094
vt 0.37186122 0.4159813
vt 0.4177345 0.4219947
vt 0.3725614 0.40887344
vt 0.42826492 0.4257797
vt 0.43212056 0.42092097
vt 0.4849347 0.46014583
vt 0.44451624 0.4244063
vt 0.47959006 0.40832436
vt 0.49750715 0.46606088
vt 0.5053654 0.41411078
vt 0.4832598 0.5052239
vt 0.47843212 0.5253997
vt 0.41985738 0.38675368
vt 0.364771 0.37397826
vt 0.4400363 0.32251382
vt 0.4731993 0.3553877
vt 0.36920094 0.3226
vt 0.44871652 0.5903436
vt 0.4794587 0.5414877
vt 0.4740305 0.59409165
vt 0.47049892 0.58799076
vt 0.48012757 0.568293
vt 0.5053654 0.5794933
vt 0.46959293 0.6176698
vt 0.47694266 0.65044117
vt 0.41145474 0.6767491
vt 0.3797577 0.6563157
vt 0.7088688 0.6463046
vt 0.6846238 0.6618912
vt 0.683434 0.6755998
vt 0.67388904 0.6485269
vt 0.6669443 0.6376636
vt 0.7088688 0.57746196
vt 0.65712774 0.6224694
vt 0.64490414 0.57407
vt 0.64490825 0.61469436
vt 0.6281288 0.6006243
vt 0.64468515 0.52060723
vt 0.7068366 0.51560545
vt 0.5729313 0.570621
vt 0.617661 0.60946107
vt 0.5619011 0.5111301
vt 0.64304477 0.5081711
vt 0.6825332 0.49316192
vt 0.68706167 0.45160437
vt 0.67449915 0.45533752
vt 0.6715559 0.4383366
vt 0.6837768 0.41758227
vt 0.6804919 0.38356018
vt 0.66692966 0.4255123
vt 0.6432463 0.40715122
vt 0.62915707 0.3970127
vt 0.65206885 0.35303688
vt 0.6383061 0.3382573
vt 0.60660756 0.3898375
vt 0.6236459 0.32251382
vt 0.5959458 0.38901925
vt 0.56574506 0.34179235
vt 0.5793502 0.3867166
vt 0.05789879 0.043092847
vt 0.04818806 0.035493016
vt 0.047156483 0.0519045
vt 0.011559039 0.027358472
vt 0.0045599937 0.064921856
vt 0.030396938 0.08089471
vt 0.008416355 0.115715146
vt 0.028102487 0.09702325
vt 0.028182238 0.10772109
vt 0.032435626 0.1224314
vt 0.023616016 0.17142057
vt 0.05576642 0.13679242
vt 0.048097223 0.15828115
vt 0.07257846 0.14514172
vt 0.0691358 0.13430232
vt 0.08740088 0.1347493
vt 0.09841749 0.12126589
vt 0.054179415 0.19667834
vt 0.044022113 0.19748312
vt 0.07092485 0.20726931
vt 0.12589236 0.1379776
vt 0.09809421 0.08443707
vt 0.114314854 0.07984644
vt 0.09780976 0.050593138
vt 0.101154745 0.018691242
vt 0.06548029 0.040927768
vt 0.14277008 0.065915406
vt 0.17075984 0.0042923093
vt 0.15810126 0.061466873
vt 0.17955963 0.06583679
vt 0.13691443 0.07574648
vt 0.12962382 0.087969065
vt 0.13570641 0.13626921
vt 0.13719736 0.20024753
vt 0.16156955 0.19660473
vt 0.14815678 0.25701392
vt 0.19016391 0.25066376
vt 0.09056538 0.19768214
vt 0.17586371 0.20831496
vt 0.19227238 0.20460439
vt 0.07563448 0.21377474
vt 0.081037104 0.24699897
vt 0.054752916 0.2035973
vt 0.10590756 0.25045055
vt 0.07695642 0.26519024
vt 0.019307196 0.28295243
vt 0.0042922795 0.21070433
vt 0.08246414 0.2844547
vt 0.14229423 0.3221091
vt 0.14922193 0.31879425
vt 0.15353614 0.29162318
vt 0.17786245 0.26837635
vt 0.16110946 0.30116737
vt 0.19190761 0.27685797
vt 0.1893583 0.25636768
vt 0.2006586 0.2457304
vt 0.2505375 0.3153143
vt 0.2035156 0.3855815
vt 0.22270577 0.2525487
vt 0.23662166 0.22303957
vt 0.23371239 0.21378958
vt 0.25053754 0.1935305
vt 0.24413238 0.19068354
vt 0.23522699 0.1793077
vt 0.24639803 0.17598033
vt 0.24566802 0.15422577
vt 0.71745336 0.9506091
vt 0.73781395 0.9612
vt 0.74210954 0.9238352
vt 0.7336402 0.97951084
vt 0.74210954 0.98926467
vt 0.633347 0.014769323
vt 0.6302897 0.0069642384
vt 0.57245314 0.035328396
vt 0.59876776 0.029590964
vt 0.6412641 0.08724645
vt 0.65747094 0.0042922813
vt 0.5887538 0.059701387
vt 0.57318276 0.059387248
vt 0.5900656 0.10316816
vt 0.6341017 0.13510694
vt 0.56181186 0.18030536
vt 0.64520454 0.1707464
vt 0.71703196 0.12024006
vt 0.71703196 0.07206792
vt 0.796129 0.28584313
vt 0.79514563 0.312639
vt 0.8289908 0.31118715
vt 0.8289908 0.26026046
vt 0.7775973 0.56950575
vt 0.81726164 0.51985484
vt 0.75949365 0.53785264
vt 0.76838875 0.5637349
vt 0.7405925 0.6151995
vt 0.780474 0.5882466
vt 0.7861535 0.5973518
vt 0.7174534 0.58695596
vt 0.7559681 0.5402143
vt 0.783499 0.62466323
vt 0.7664619 0.68171227
vt 0.79560125 0.6188669
vt 0.8078016 0.67405593
vt 0.8000361 0.6337513
vt 0.81726164 0.65146357
vt 0.5281167 0.48101306
vt 0.51738465 0.5092945
vt 0.5139499 0.56825304
vt 0.57668567 0.63593745
vt 0.5860039 0.6628089
vt 0.51900756 0.6218574
vt 0.56634223 0.65233564
vt 0.5719515 0.6663492
vt 0.5266055 0.6601739
vt 0.16228616 0.7728597
vt 0.16778886 0.7575384
vt 0.15579319 0.7544137
vt 0.1561364 0.7942406
vt 0.11516011 0.8281182
vt 0.10840666 0.7619702
vt 0.08958733 0.8242046
vt 0.16544461 0.8376436
vt 0.10584772 0.85542357
vt 0.16778886 0.8626589
vt 0.7837957 0.2967255
vt 0.7765136 0.312639
vt 0.786561 0.30480337
vt 0.7706877 0.29782677
vt 0.78026485 0.2866888
vt 0.7646799 0.28255224
vt 0.7798754 0.23828733
vt 0.7526034 0.22086132
vt 0.72561634 0.26846278
vt 0.78089 0.17347431
vt 0.7695459 0.16701746
vt 0.786561 0.15849733
vt 0.5155556 0.86387074
vt 0.52947485 0.83491373
vt 0.51394993 0.8468573
vt 0.5735295 0.90611273
vt 0.5735295 0.8429332
vt 0.54638463 0.92672586
vt 0.5146224 0.911242
vt 0.6251806 0.6841843
vt 0.5944024 0.70671034
vt 0.61853284 0.73691714
vt 0.59170634 0.77973664
vt 0.54678714 0.7431165
vt 0.5380566 0.6867564
vt 0.51394993 0.75275147
vt 0.56317693 0.80163896
vt 0.60768497 0.81379294
vt 0.59071887 0.8263291
vt 0.6251806 0.8008654
vt 0.6623473 0.3050232
vt 0.6430192 0.25222647
vt 0.60412246 0.2754519
vt 0.59963167 0.19306922
vt 0.6623473 0.1896609
vt 0.5641691 0.2689526
vt 0.56181186 0.18888986
vt 0.8023305 0.0042923093
vt 0.8139838 0.030708909
vt 0.8150283 0.012618065
vt 0.72561646 0.03532636
vt 0.7696229 0.061555445
vt 0.8075113 0.08519775
vt 0.8059995 0.093520224
vt 0.7804862 0.14723247
vt 0.7324859 0.10789257
vt 0.80904937 0.11898607
vt 0.8150283 0.1499129
vt 0.4800049 0.7170805
vt 0.44620132 0.7167547
vt 0.4800049 0.7478584
vt 0.4181124 0.774878
vt 0.38315076 0.76357067
vt 0.39353317 0.7269026
vt 0.37695366 0.69675297
vt 0.38023394 0.6853338
vt 0.38244617 0.78594524
vt 0.3809563 0.7895421
vt 0.41157877 0.8149724
vt 0.37734562 0.807938
vt 0.46735328 0.7919904
vt 0.0042922813 0.9319809
vt 0.010339811 0.9623797
vt 0.0300802 0.9539748
vt 0.017701121 0.9221042
vt 0.04057748 0.9288277
vt 0.056103997 0.96239555
vt 0.056104004 0.8931594
vt 0.0446987 0.8756963
vt 0.9669695 0.87368995
vt 0.9917891 0.8683863
vt 0.9758942 0.85421824
vt 0.98967063 0.9019805
vt 0.9846585 0.9407213
vt 0.991789 0.93856007
vt 0.8060525 0.91742986
vt 0.81205785 0.9265601
vt 0.8132239 0.9145707
vt 0.7985521 0.9298233
vt 0.77079666 0.94754314
vt 0.77626604 0.97060305
vt 0.807052 0.9440564
vt 0.8096893 0.95877653
vt 0.8132239 0.98290795
vt 0.2908712 0.9226333
vt 0.2793706 0.9330406
vt 0.30064458 0.93874156
vt 0.27203184 0.9412149
vt 0.25912213 0.94946086
vt 0.27846307 0.98443544
vt 0.31035304 0.97835994
vt 0.32041925 0.9858564
vt 0.3204192 0.94001675
vt 0.45338827 0.28595603
vt 0.45962834 0.3087482
vt 0.4791355 0.30560368
vt 0.47596306 0.2786088
vt 0.48542595 0.27130532
vt 0.52241284 0.27503407
vt 0.5164528 0.31392932
vt 0.49475068 0.26855135
vt 0.52044886 0.24856567
vt 0.46675122 0.2687199
vt 0.4910524 0.23646688
vt 0.43377662 0.23334897
vt 0.53080904 0.24849176
vt 0.4196844 0.2784654
vt 0.36688864 0.27289045
vt 0.55322725 0.17730784
vt 0.3650782 0.2644168
vt 0.51018023 0.17911041
vt 0.52639425 0.113055825
vt 0.5091897 0.124676704
vt 0.46033597 0.10215247
vt 0.44960797 0.16330874
vt 0.39752185 0.084414124
vt 0.37717825 0.14613533
vt 0.3585304 0.22080147
vt 0.3594278 0.25826377
vt 0.35488105 0.2775507
vt 0.3373043 0.22701192
vt 0.33339345 0.23518455
vt 0.3278963 0.21025205
vt 0.30451614 0.28084183
vt 0.30209762 0.20586777
vt 0.34514904 0.30443913
vt 0.31931597 0.31392932
vt 0.27134883 0.20890784
vt 0.260359 0.252002
vt 0.28024858 0.28683013
vt 0.3135386 0.13200974
vt 0.29719132 0.1999358
vt 0.3154741 0.2087915
vt 0.3394506 0.07646155
vt 0.26932853 0.10604215
vt 0.28391844 0.19699132
vt 0.25912213 0.19195294
vt 0.32944417 0.050105333
vt 0.4054777 0.04791224
vt 0.43562984 0.056735158
vt 0.4397322 0.064887166
vt 0.4538002 0.073611975
vt 0.43518674 0.03865707
vt 0.47276217 0.07646322
vt 0.48343563 0.058894873
vt 0.47683156 0.0042922497
vt 0.5147836 0.04178512
vt 0.49725407 0.08169162
vt 0.491593 0.08550775
vt 0.5312985 0.056957126
vt 0.7073233 0.7266775
vt 0.70797634 0.68418425
vt 0.6975467 0.73992586
vt 0.70460355 0.73801225
vt 0.70797634 0.7533965
vt 0.708841 0.18888992
vt 0.6709319 0.22016361
vt 0.68814325 0.23333097
vt 0.708841 0.31125382
vt 0.6458396 0.8824474
vt 0.6926657 0.9401662
vt 0.6926657 0.88118654
vt 0.6530503 0.9432054
vt 0.6360785 0.9209717
vt 0.6337652 0.9381953
vt 0.6345986 0.95131546
vt 0.26615286 0.7835825
vt 0.33481407 0.81081253
vt 0.3683691 0.79409224
vt 0.2964208 0.758122
vt 0.25912213 0.7448242
vt 0.3683691 0.69356203
vt 0.3098905 0.68533385
vt 0.99469924 0.5241931
vt 0.99343604 0.5198549
vt 0.9665755 0.5469139
vt 0.99469924 0.5993894
vt 0.027846396 0.6851295
vt 0.025156379 0.7458292
vt 0.071930975 0.7118856
vt 0.06531477 0.6194625
vt 0.0042922795 0.64440787
vt 0.11561188 0.6530707
vt 0.11709592 0.62994254
vt 0.090085596 0.62021446
vt 0.089194804 0.61592436
vt 0.04325092 0.5953064
vt 0.060596257 0.61765337
vt 0.1076996 0.6004305
vt 0.110776365 0.5977346
vt 0.17428178 0.6255053
vt 0.13287944 0.6609911
vt 0.12995476 0.66662157
vt 0.17653167 0.6597246
vt 0.17203188 0.59128606
vt 0.12632304 0.58488584
vt 0.17653167 0.5245706
vt 0.1285333 0.5541483
vt 0.12999141 0.52868116
vt 0.17211378 0.46270296
vt 0.12975433 0.5201824
vt 0.12296876 0.46571454
vt 0.16622126 0.39416608
vt 0.11386278 0.44878808
vt 0.084501445 0.39748427
vt 0.090901434 0.4453151
vt 0.06794265 0.43631735
vt 0.05178517 0.4408771
vt 0.009577721 0.42098686
vt 0.026007652 0.4634311
vt 0.015097022 0.47402605
vt 0.8388511 0.4297465
vt 0.808725 0.5112703
vt 0.85665655 0.4658364
vt 0.7733853 0.51105845
vt 0.73804545 0.5108466
vt 0.7216433 0.4635105
vt 0.75550544 0.40249228
vt 0.71745336 0.39572608
vt 0.742013 0.32251382
vt 0.81191885 0.35210407
vt 0.85665655 0.3570007
vt 0.6889622 0.68687016
vt 0.6833675 0.68418425
vt 0.6420678 0.71474266
vt 0.67111886 0.7069242
vt 0.6611558 0.7195977
vt 0.6561812 0.740905
vt 0.6337652 0.7870859
vt 0.6513901 0.7856919
vt 0.6636361 0.8606214
vt 0.6616976 0.8726019
vt 0.6889622 0.8719665
vt 0.6232557 0.8586377
vt 0.6204698 0.83491373
vt 0.6032954 0.8360753
vt 0.6195644 0.85878336
vt 0.62274617 0.88006973
vt 0.58211404 0.9106997
vt 0.6132232 0.91016006
vt 0.6208814 0.91352355
vt 0.6164044 0.93805146
vt 0.6232557 0.9372672
vt 0.98393667 0.4938289
vt 0.98393667 0.44949806
vt 0.967474 0.4503097
vt 0.96972096 0.47712177
vt 0.9597099 0.49614936
vt 0.26528698 0.8943343
vt 0.3169561 0.9140487
vt 0.3403822 0.90265
vt 0.2889746 0.8724021
vt 0.25912213 0.865639
vt 0.3403822 0.82475543
vt 0.29652467 0.819397
vt 0.4354689 0.830456
vt 0.4386896 0.82355696
vt 0.4191472 0.82958275
vt 0.4386896 0.8542177
vt 0.4261272 0.8515422
vt 0.43867218 0.86418295
vt 0.3769536 0.8657451
vt 0.43598902 0.8966939
vt 0.38561344 0.8904986
vt 0.41445172 0.9029574
vt 0.4326533 0.9333877
vt 0.40729344 0.9406697
vt 0.431287 0.9403648
vt 0.08958742 0.9185914
vt 0.112319574 0.96000147
vt 0.12386498 0.950228
vt 0.09603459 0.8712435
vt 0.12603642 0.8759345
vt 0.13634561 0.9093313
vt 0.14036158 0.87556636
vt 0.13378024 0.8912287
vt 0.14036158 0.9326457
vt 0.13969238 0.9507489
vt 0.98088384 0.3497634
vt 0.99036914 0.3437698
vt 0.9802332 0.31720316
vt 0.9684961 0.3086726
vt 0.9787246 0.2966287
vt 0.96757424 0.28567272
vt 0.9797163 0.2712322
vt 0.99036914 0.27915698
vt 0.6975467 0.7715127
vt 0.70650977 0.7822864
vt 0.7080691 0.79982716
vt 0.7080691 0.76198125
vt 0.19634718 0.9487133
vt 0.24931914 0.9292071
vt 0.18511623 0.90777445
vt 0.2288816 0.8744021
vt 0.18952507 0.8671119
vt 0.24931914 0.87250197
vt 0.36160737 0.94996595
vt 0.36160737 0.9226332
vt 0.3290038 0.937837
vt 0.33460236 0.97038865
vt 0.35996366 0.9815556
vt 0.34207118 0.9829364
vt 0.34530067 0.9918709
vt 0.5029112 0.74745834
vt 0.5029112 0.6853337
vt 0.4885894 0.7344091
vt 0.5010804 0.75869846
vt 0.5892156 0.9731643
vt 0.6121145 0.9524803
vt 0.58317375 0.94663596
vt 0.61269706 0.9686525
vt 0.5821141 0.98587894
vt 0.6133176 0.98587894
vt 0.08100283 0.8671117
vt 0.07887101 0.84637827
vt 0.008554935 0.85826045
vt 0.05031526 0.81772995
vt 0.0042922497 0.82634723
vt 0.07630503 0.82899475
vt 0.0374856 0.75731677
vt 0.071649194 0.7968978
vt 0.069645405 0.78301036
vt 0.073894024 0.77293146
vt 0.07340562 0.75441366
vt 0.08100283 0.7553263
vt 0.4472742 0.8568482
vt 0.5049932 0.8297403
vt 0.45840263 0.8235569
vt 0.4517336 0.90045124
vt 0.5049932 0.9171464
vt 0.21387255 0.52841306
vt 0.19870436 0.6344297
vt 0.23583543 0.628595
vt 0.18511617 0.527655
vt 0.22926128 0.394166
vt 0.23583543 0.3955748
vt 0.87906635 0.6088161
vt 0.9197832 0.5304958
vt 0.87965107 0.51985496
vt 0.90922517 0.6126568
vt 0.9197832 0.7416647
vt 0.91295457 0.74187887
vt 0.9635502 0.2605159
vt 0.9635502 0.2189242
vt 0.9245752 0.21841541
vt 0.9245752 0.26000717
vt 0.18511617 0.7388867
vt 0.23264241 0.6446549
vt 0.19762516 0.6430143
vt 0.21207917 0.73501194
vt 0.23264241 0.85642517
vt 0.22654748 0.85852736
vt 0.9367337 0.8357394
vt 0.96270806 0.8456337
vt 0.96270806 0.7575503
vt 0.9283557 0.7504634
vt 0.14894615 0.8884408
vt 0.16832949 0.9728374
vt 0.17439555 0.96964127
vt 0.17439552 0.87124354
vt 0.25050962 0.40206873
vt 0.25050962 0.39530253
vt 0.24441993 0.3941661
vt 0.24441993 0.40093225
vt 0.89588034 0.40575945
vt 0.8674365 0.51127034
vt 0.9069618 0.50520515
vt 0.86524117 0.40725517
vt 0.899922 0.27123225
vt 0.9069618 0.2720939
vt 0.77079666 0.78109986
vt 0.8149421 0.69853777
vt 0.7752899 0.6902968
vt 0.80146444 0.78081566
vt 0.8149421 0.9048837
vt 0.80791795 0.905986
vt 0.51395 0.93531036
vt 0.51395 0.9743519
vt 0.5458341 0.98361504
vt 0.5458341 0.9445735
vt 0.8790662 0.83874166
vt 0.9197711 0.7504634
vt 0.88651 0.75361097
vt 0.9060651 0.8336982
vt 0.9197711 0.94794804
vt 0.91359925 0.9502364
vt 0.9702486 0.7206117
vt 0.99570775 0.7276475
vt 0.99570775 0.63678026
vt 0.9644047 0.634514
vt 0.958385 0.95768726
vt 0.958385 0.85516566
vt 0.9513953 0.85421824
vt 0.9283557 0.9578274
vt 0.24979591 0.4361278
vt 0.24979591 0.42965844
vt 0.24442005 0.4277198
vt 0.24442005 0.4341891
vt 0.7473315 0.81929934
vt 0.724789 0.914888
vt 0.7622119 0.91525066
vt 0.71745324 0.81791633
vt 0.75534475 0.69029695
vt 0.7622119 0.6917157
vt 0.8258461 0.6186441
vt 0.8704817 0.5348385
vt 0.8319932 0.51985484
vt 0.8567724 0.6200972
vt 0.8704817 0.7474214
vt 0.8634466 0.74816555
vt 0.9155463 0.44949812
vt 0.9155464 0.4872051
vt 0.95112526 0.4963414
vt 0.95112526 0.45863444
vt 0.96018887 0.0042922497
vt 0.9354054 0.010995984
vt 0.9245752 0.10274613
vt 0.96018887 0.10126686
vt 0.9441662 0.37049538
vt 0.92263484 0.44091356
vt 0.95898974 0.43710732
vt 0.9155464 0.36389405
vt 0.952461 0.27123225
vt 0.95898974 0.27369
vt 0.24441993 0.4191352
vt 0.24974978 0.41697943
vt 0.24974978 0.41065323
vt 0.24442005 0.41280913
vt 0.957991 0.6259295
vt 0.9374964 0.5198549
vt 0.93057513 0.5208627
vt 0.92836773 0.6259295
vt 0.85212505 0.13924527
vt 0.8281536 0.24547839
vt 0.8656062 0.2477445
vt 0.8236127 0.14031082
vt 0.8590045 0.0042922497
vt 0.8656062 0.005282283
vt 0.8741908 0.09948832
vt 0.9159906 0.008008897
vt 0.8745985 0.0042923093
vt 0.9050938 0.101335704
vt 0.9159906 0.23014215
vt 0.9089277 0.2308181
vt 0.47933158 0.93487626
vt 0.44727418 0.925731
vt 0.44727418 0.964799
vt 0.47933158 0.97394425
vt 0.9347796 0.20983082
vt 0.9596237 0.19746101
vt 0.9596237 0.11133081
vt 0.9245752 0.12838197
vt 0.857625 0.86309016
vt 0.8258461 0.9475427
vt 0.86727464 0.9436361
vt 0.82674956 0.8648111
vt 0.8601992 0.7567502
vt 0.86727464 0.7573647
vt 0.24738848 0.6677448
vt 0.24122703 0.6688466
vt 0.24122703 0.6756109
vt 0.24738848 0.6745091
vt 0.9558201 0.7416528
vt 0.9497938 0.6345141
vt 0.9432386 0.6355334
vt 0.92836773 0.7416528
vn 0.6819292 -0.7147239 0.147873
vn 0.39938754 -0.5658861 0.7210578
vn 0.46938702 -0.8141224 0.34099802
vn -0.061102033 0.7415641 0.65681577
vn 0.6051861 0.7634829 0.19700694
vn 0.21592279 0.9523987 0.19177249
vn 0.7208215 0.110895135 0.6724182
vn 0.8625151 0.49105537 -0.029332288
vn 0.8846978 0.24202858 0.37616515
vn 0.7208215 0.110895135 0.6724182
vn 0.6448442 0.43226504 0.6160617
vn 0.8625151 0.49105537 -0.029332288
vn 0.1759694 -0.9801064 -0.05527269
vn 0.51675695 -0.7788351 -0.3435402
vn 0.7253965 -0.6133829 -0.29245248
vn 0.7220342 -0.26270214 0.64004225
vn 0.7946019 -0.60630006 0.03174877
vn 0.96628267 -0.22896051 0.11636689
vn -0.8539207 -0.46905443 0.21633816
vn -0.78402066 -0.4849946 0.38424805
vn -0.90331954 -0.41186857 0.08695978
vn 0.08936967 -0.8493154 0.51995146
vn -0.5286705 -0.83073306 0.15309122
vn -0.7505305 -0.30757207 0.5753346
vn -0.17048822 -0.93486786 0.3073615
vn 0.08936967 -0.8493154 0.51995146
vn -0.7505305 -0.30757207 0.5753346
vn 0.19768682 0.26326695 -0.9412636
vn 0.021255132 0.6460704 -0.76271015
vn 0.2826898 0.6873212 -0.6681521
vn 0.43426448 0.84968656 -0.2919655
vn 0.4696548 0.38005197 -0.793169
vn 0.8497379 0.3732921 -0.35562104
vn 0.94319504 0.26567 -0.1548228
vn 0.5302813 0.83614945 -0.1079841
vn 0.65821856 0.551192 -0.5051886
vn 0.8016011 0.4730742 -0.3518203
vn 0.4359898 0.6981099 -0.5648806
vn 0.23182061 0.91889197 -0.31499392
vn 0.8588318 0.49580586 0.03453231
vn 0.052663997 0.99266165 -0.07958107
vn 0.5476357 0.75493133 0.3388774
vn 0.25949475 0.9498532 -0.15927444
vn 0.3299578 0.9387283 0.034679748
vn 0.07398433 0.9838987 0.13082968
vn 0.1414576 0.944774 0.2742681
vn 0.16379957 0.80564296 0.5544301
vn -0.33507383 0.846693 0.3947404
vn -0.48144197 0.7841548 0.3711475
vn -0.32388154 0.91801506 0.20627373
vn -0.67376614 0.67444706 0.27427888
vn -0.37237993 0.92264456 -0.049610443
vn -0.73594826 0.6568284 0.11083717
vn 0.16380103 0.9547751 0.22420613
vn -0.39633873 0.8470653 -0.35411328
vn -0.81153095 0.5203458 -0.24077684
vn -0.7171933 0.23836061 -0.64645964
vn -0.7437283 0.5984061 -0.27953422
vn -0.3173234 0.7964866 -0.51281095
vn -0.17866027 0.8328716 -0.52315116
vn -0.21027312 0.9301284 -0.29644427
vn 0.056015957 0.98204964 -0.16997941
vn 0.36251986 0.72895646 -0.57865995
vn 0.21592279 0.9523987 0.19177249
vn 0.6051861 0.7634829 0.19700694
vn -0.19277726 0.8086507 0.54819685
vn -0.061102033 0.7415641 0.65681577
vn -0.14811105 0.6351808 0.7485165
vn -0.4604756 0.8845643 -0.041640446
vn -0.84788126 0.47525486 -0.21816
vn -0.32635528 0.936767 -0.11108044
vn -0.013874222 0.9682613 -0.24592096
vn 0.05410882 0.9861263 0.12661515
vn -0.088109225 0.861488 -0.49966568
vn -0.58871937 0.71249896 0.36111555
vn -0.04780682 0.5905364 0.7951378
vn -0.8078971 0.39914015 -0.4193209
vn 0.009438589 0.882441 0.45410162
vn 0.24682543 0.91423374 -0.31834432
vn 0.5589049 0.45054683 0.68404657
vn 0.6732345 0.67604285 0.27474058
vn 0.5676591 0.80578315 0.13877073
vn 0.96768105 0.22250052 -0.06283389
vn 0.037214972 0.75094974 0.64591604
vn 0.55312496 0.43199956 0.6993461
vn 0.7756509 0.60469496 -0.14200075
vn 0.29575717 0.59059495 -0.7490119
vn -0.72216207 -0.6057635 -0.33396465
vn -0.8789758 -0.4322566 -0.16893044
vn -0.8481355 0.18776937 -0.48670045
vn -0.91057956 -0.39520895 -0.020058181
vn -0.8340548 -0.4087291 0.3540179
vn -0.7766874 -0.5965085 0.1692251
vn -0.7158229 -0.46401277 0.51259226
vn -0.4212672 -0.8825932 0.19362433
vn -0.60578495 -0.5970985 0.51934445
vn -0.17048822 -0.93486786 0.3073615
vn -0.35113513 -0.8695037 0.34252647
vn -0.71338165 -0.59927654 0.3496514
vn 0.14646383 -0.98565054 0.020836653
vn 0.27374336 -0.91209525 0.29989818
vn 0.1759694 -0.9801064 -0.05527269
vn -0.4906179 -0.8454047 -0.18474984
vn -0.7165712 -0.5984047 0.3474155
vn -0.68734187 -0.5897218 0.41870975
vn -0.86422276 -0.17038074 0.46512198
vn -0.86199665 -0.22794709 0.44656354
vn -0.7389298 -0.60338426 0.29454696
vn -0.5727374 -0.55620515 0.6014333
vn -0.65656316 -0.41450602 0.62788177
vn -0.4180606 -0.44624534 0.7904708
vn -0.22460258 -0.44750267 0.8653017
vn -0.3565658 -0.49940675 0.7895909
vn -0.3935757 -0.48482287 0.7810539
vn -0.018432707 -0.59462416 0.8037384
vn 0.064815715 -0.39774674 0.91520303
vn 0.19264156 -0.5248371 0.8290332
vn 0.70734996 -0.18597658 0.68195945
vn 0.35356867 -0.60473806 0.7135456
vn 0.49055144 -0.4200702 -0.75380135
vn 0.6218905 -0.48414385 -0.60480505
vn 0.2789901 -0.58482295 -0.7517741
vn 0.49639803 -0.56018835 -0.65614134
vn 0.5766241 -0.7174346 -0.37379694
vn 0.23908287 -0.827587 -0.4944174
vn 0.6091836 -0.7758614 -0.11873942
vn 0.0912938 -0.95209146 -0.2726109
vn 0.16968241 -0.9762991 -0.09837416
vn 0.4656195 -0.8632098 0.17768103
vn 0.5961723 -0.7778941 0.1754848
vn 0.605997 -0.6477422 0.45442754
vn 0.81094253 -0.55893964 0.12855479
vn 0.9081706 -0.3808256 0.12073921
vn 0.68065554 -0.39199585 0.61114174
vn 0.87946403 -0.09023483 0.450105
vn 0.91824406 0.17846051 0.32749754
vn 0.8654706 -0.43896735 -0.21355724
vn 0.7253965 -0.6133829 -0.29245248
vn 0.93071544 -0.35045752 0.038601264
vn 0.9784958 -0.06971922 0.1408262
vn 0.9136971 0.28950095 0.25268525
vn 0.9776061 -0.09641333 0.13253361
vn 0.9899565 0.012644946 -0.05638633
vn 0.91095895 -0.1872902 -0.3461056
vn 0.5064791 -0.114273176 -0.8473108
vn 0.7538555 -0.27564716 -0.5816321
vn 0.8016011 0.4730742 -0.3518203
vn 0.6742761 0.31192133 -0.66181135
vn 0.65821856 0.551192 -0.5051886
vn 0.7127433 -0.49413407 -0.47955617
vn 0.7191589 -0.61163163 -0.30357137
vn 0.7788907 -0.5724507 0.23197222
vn 0.9899384 -0.052775305 0.07811543
vn 0.7574004 -0.5351418 0.36383528
vn 0.9562829 -0.04275959 0.28270742
vn 0.89235306 0.21180435 0.39178854
vn 0.84456384 -0.52294534 0.061517343
vn 0.71314895 -0.06462628 0.6915866
vn 0.71535283 0.1731957 0.66852105
vn 0.879932 -0.46572325 0.02499798
vn 0.74240243 -0.6662399 0.03106618
vn 0.90588695 -0.18684441 -0.3653323
vn 0.8680229 -0.47766778 0.1194801
vn 0.6819292 -0.7147239 0.147873
vn 0.5348611 -0.7457399 0.39543614
vn 0.51675695 -0.7788351 -0.3435402
vn 0.46938702 -0.8141224 0.34099802
vn 0.70734996 -0.18597658 0.68195945
vn 0.7220342 -0.26270214 0.64004225
vn 0.96628267 -0.22896051 0.11636689
vn 0.98809624 -0.13125156 -0.05791369
vn 0.7946019 -0.60630006 0.03174877
vn 0.9355268 -0.2548725 -0.2403313
vn 0.9937354 -0.08811947 -0.002381444
vn 0.99061036 -0.014774627 -0.1118182
vn 0.9098226 0.20097004 0.36224633
vn 0.39857402 -0.25725925 0.88031614
vn 0.9599342 0.072422646 -0.261426
vn 0.92460775 0.23599064 -0.28556457
vn 0.96768105 0.22250052 -0.06283389
vn 0.60768354 0.6315646 -0.47682568
vn 0.5676591 0.80578315 0.13877073
vn 0.5589049 0.45054683 0.68404657
vn 0.6732345 0.67604285 0.27474058
vn 0.009438589 0.882441 0.45410162
vn 0.0043810867 -0.28678355 -0.9576323
vn 0.16273758 0.010091469 -0.98480606
vn 0.48085964 0.0062757926 -0.8735733
vn -0.20777169 -0.3510875 -0.91074955
vn -0.04346444 0.17106871 -0.9828353
vn 0.7220342 -0.26270214 0.64004225
vn 0.70734996 -0.18597658 0.68195945
vn 0.064815715 -0.39774674 0.91520303
vn 0.43860507 -0.23409516 0.8676548
vn 0.39857402 -0.25725925 0.88031614
vn 0.7946019 -0.60630006 0.03174877
vn -0.01059486 -0.4832291 0.87542987
vn -0.43722752 -0.29841435 0.84839904
vn -0.22565717 -0.53754216 0.8124822
vn -0.013839141 0.2180819 0.97583234
vn -0.70722187 0.05073856 0.70379114
vn -0.14314367 0.7156985 0.68330836
vn 0.54417527 0.69422084 0.4704501
vn 0.9098226 0.20097004 0.36224633
vn -0.46007234 -0.32200712 0.8274327
vn -0.3565658 -0.49940675 0.7895909
vn -0.5727374 -0.55620515 0.6014333
vn -0.50468355 -0.51431584 0.69258475
vn 0.35356867 -0.60473806 0.7135456
vn 0.70734996 -0.18597658 0.68195945
vn 0.46938702 -0.8141224 0.34099802
vn 0.39938754 -0.5658861 0.7210578
vn 0.07850944 -0.5961189 0.7988387
vn 0.19264156 -0.5248371 0.8290332
vn -0.018432707 -0.59462416 0.8037384
vn 0.5348611 -0.7457399 0.39543614
vn 0.6819292 -0.7147239 0.147873
vn -0.1713534 -0.093019046 0.9797858
vn -0.60059744 -0.6639025 0.44261032
vn -0.22460258 -0.44750267 0.8653017
vn -0.7654408 0.10933348 0.6291071
vn -0.4180606 -0.44624534 0.7904708
vn -0.65656316 -0.41450602 0.62788177
vn 0.7253965 -0.6133829 -0.29245248
vn 0.5961723 -0.7778941 0.1754848
vn 0.6091836 -0.7758614 -0.11873942
vn 0.57064605 -0.81522185 -0.01654203
vn 0.43759617 -0.88581264 -0.12284618
vn 0.5766241 -0.7174346 -0.37379694
vn 0.69281894 -0.54104227 -0.46387753
vn 0.70358014 -0.31997025 -0.6264709
vn 0.49639803 -0.56018835 -0.65614134
vn 0.6742761 0.31192133 -0.66181135
vn 0.7538555 -0.27564716 -0.5816321
vn 0.17363426 -0.24925028 -0.94454056
vn 0.65821856 0.551192 -0.5051886
vn 0.29575717 0.59059495 -0.7490119
vn 0.7507482 0.040864248 -0.6477624
vn 0.7756509 0.60469496 -0.14200075
vn 0.4359898 0.6981099 -0.5648806
vn 0.25949475 0.9498532 -0.15927444
vn 0.23182061 0.91889197 -0.31499392
vn 0.7127433 -0.49413407 -0.47955617
vn 0.17363426 -0.24925028 -0.94454056
vn 0.7538555 -0.27564716 -0.5816321
vn 0.2710034 -0.67430717 -0.6736658
vn 0.7191589 -0.61163163 -0.30357137
vn 0.15946612 -0.9331237 -0.302029
vn 0.7788907 -0.5724507 0.23197222
vn 0.42032576 -0.86248046 0.2727235
vn 0.85499537 -0.49866554 -0.06468698
vn 0.7574004 -0.5351418 0.36383528
vn 0.31956953 -0.60781986 0.72549045
vn 0.71314895 -0.06462628 0.6915866
vn 0.71535283 0.1731957 0.66852105
vn 0.31956953 -0.60781986 0.72549045
vn 0.71314895 -0.06462628 0.6915866
vn 0.55312496 0.43199956 0.6993461
vn 0.740546 -0.33295497 0.5738079
vn 0.037214972 0.75094974 0.64591604
vn 0.5589049 0.45054683 0.68404657
vn 0.31956953 -0.60781986 0.72549045
vn 0.740546 -0.33295497 0.5738079
vn 0.42032576 -0.86248046 0.2727235
vn 0.85499537 -0.49866554 -0.06468698
vn 0.9612972 0.15004487 0.18687525
vn 0.55312496 0.43199956 0.6993461
vn 0.7756509 0.60469496 -0.14200075
vn 0.7507482 0.040864248 -0.6477624
vn 0.2710034 -0.67430717 -0.6736658
vn 0.17363426 -0.24925028 -0.94454056
vn 0.15946612 -0.9331237 -0.302029
vn -0.07126436 -0.11190697 0.9869424
vn -0.76147455 -0.38968825 0.5073216
vn -0.7129832 0.17728336 0.66637087
vn -0.9709667 -0.14166823 -0.13790008
vn -0.5769795 -0.8091962 -0.031806514
vn -0.58871937 0.71249896 0.36111555
vn -0.8078971 0.39914015 -0.4193209
vn -0.8980612 -0.30665138 -0.28500447
vn -0.7856486 -0.6048301 -0.051688306
vn -0.8691226 -0.47489923 -0.056727804
vn -0.9709667 -0.14166823 -0.13790008
vn -0.5769795 -0.8091962 -0.031806514
vn -0.57423764 -0.79771006 0.15904766
vn -0.49869314 -0.8229491 0.260326
vn -0.18503137 -0.79067296 0.583091
vn -0.76147455 -0.38968825 0.5073216
vn -0.40185788 -0.82779276 0.3868293
vn -0.45141542 -0.604816 0.6536123
vn -0.58871937 0.71249896 0.36111555
vn -0.04780682 0.5905364 0.7951378
vn -0.7129832 0.17728336 0.66637087
vn -0.07126436 -0.11190697 0.9869424
vn -0.6074151 0.055008687 0.7868731
vn -0.14811105 0.6351808 0.7485165
vn -0.061102033 0.7415641 0.65681577
vn 0.6051861 0.7634829 0.19700694
vn -0.37445474 -0.51369065 0.76999336
vn -0.40203762 -0.55002505 0.7300175
vn -0.18503137 -0.79067296 0.583091
vn -0.45141542 -0.604816 0.6536123
vn -0.76147455 -0.38968825 0.5073216
vn 0.5068195 -0.85487336 -0.049654994
vn 0.27689338 -0.77979386 0.56024504
vn 0.6986519 -0.23002851 0.669007
vn 0.88124657 -0.43751463 -0.12721005
vn 0.8846978 0.24202858 0.37616515
vn 0.7208215 0.110895135 0.6724182
vn 0.8625151 0.49105537 -0.029332288
vn 0.59849006 0.20233425 -0.7687339
vn 0.8625151 0.49105537 -0.029332288
vn 0.9899565 0.012644946 -0.05638633
vn 0.59849006 0.20233425 -0.7687339
vn 0.9136971 0.28950095 0.25268525
vn 0.6448442 0.43226504 0.6160617
vn 0.91824406 0.17846051 0.32749754
vn 0.6448442 0.43226504 0.6160617
vn 0.87946403 -0.09023483 0.450105
vn 0.91824406 0.17846051 0.32749754
vn 0.7208215 0.110895135 0.6724182
vn 0.6986519 -0.23002851 0.669007
vn 0.27689338 -0.77979386 0.56024504
vn 0.68065554 -0.39199585 0.61114174
vn 0.605997 -0.6477422 0.45442754
vn 0.4656195 -0.8632098 0.17768103
vn 0.23908287 -0.827587 -0.4944174
vn 0.0912938 -0.95209146 -0.2726109
vn -0.19711614 -0.8840791 -0.40801612
vn 0.16968241 -0.9762991 -0.09837416
vn 0.4656195 -0.8632098 0.17768103
vn 0.27689338 -0.77979386 0.56024504
vn 0.5068195 -0.85487336 -0.049654994
vn 0.88124657 -0.43751463 -0.12721005
vn 0.18399234 -0.59528536 -0.771737
vn 0.23908287 -0.827587 -0.4944174
vn -0.19711614 -0.8840791 -0.40801612
vn 0.18399234 -0.59528536 -0.771737
vn 0.2789901 -0.58482295 -0.7517741
vn 0.49055144 -0.4200702 -0.75380135
vn 0.59849006 0.20233425 -0.7687339
vn 0.88124657 -0.43751463 -0.12721005
vn 0.5064791 -0.114273176 -0.8473108
vn 0.9899565 0.012644946 -0.05638633
vn 0.6218905 -0.48414385 -0.60480505
vn 0.58044606 -0.1833869 -0.78704494
vn 0.3863022 -0.20152709 -0.8986922
vn 0.91095895 -0.1872902 -0.3461056
vn 0.49639803 -0.56018835 -0.65614134
vn 0.70358014 -0.31997025 -0.6264709
vn 0.8016011 0.4730742 -0.3518203
vn 0.55085534 -0.15655345 -0.81517863
vn 0.45689088 0.3147802 -0.8289796
vn 0.43426448 0.84968656 -0.2919655
vn 0.2826898 0.6873212 -0.6681521
vn 0.021255132 0.6460704 -0.76271015
vn 0.17094263 0.24725705 -0.9528844
vn -0.27016804 0.5588194 -0.7831386
vn -0.14345445 0.16157454 -0.9760556
vn 0.0043810867 -0.28678355 -0.9576323
vn 0.48085964 0.0062757926 -0.8735733
vn 0.7225814 0.09036215 -0.6797643
vn 0.16273758 0.010091469 -0.98480606
vn 0.29450694 0.47025108 -0.8309768
vn -0.20777169 -0.3510875 -0.91074955
vn 0.13936777 -0.29534224 -0.9399073
vn -0.24294753 0.6812194 -0.690155
vn 0.80620736 -0.4429495 -0.3755084
vn 0.43759617 -0.88581264 -0.12284618
vn -0.6896902 0.18938297 -0.6940194
vn -0.7622686 -0.48315912 -0.41549852
vn -0.2247876 -0.72014564 -0.64690477
vn -0.5189368 0.054343615 -0.8485835
vn -0.59190756 0.41989318 -0.6853249
vn -0.04346444 0.17106871 -0.9828353
vn -0.5424591 0.43229854 -0.7162392
vn -0.931584 -0.0070531284 -0.34007087
vn -0.8481355 0.18776937 -0.48670045
vn -0.72216207 -0.6057635 -0.33396465
vn -0.7437283 0.5984061 -0.27953422
vn -0.39633873 0.8470653 -0.35411328
vn -0.7171933 0.23836061 -0.64645964
vn -0.33149105 0.49511954 -0.80094683
vn -0.21204652 0.4901313 -0.84389335
vn -0.7181952 0.14815709 -0.670328
vn 0.19768682 0.26326695 -0.9412636
vn 0.116963595 0.26310953 -0.9544916
vn -0.3490031 0.881138 -0.31316295
vn 0.3216753 0.7519062 -0.573904
vn 0.64823914 -0.15745716 -0.7355323
vn 0.4696548 0.38005197 -0.793169
vn 0.77568936 0.53952783 -0.31083947
vn 0.7253965 -0.6133829 -0.29245248
vn 0.51675695 -0.7788351 -0.3435402
vn 0.90588695 -0.18684441 -0.3653323
vn 0.8654706 -0.43896735 -0.21355724
vn 0.93071544 -0.35045752 0.038601264
vn -0.7165712 -0.5984047 0.3474155
vn -0.7087897 -0.60712516 -0.34260482
vn -0.4906179 -0.8454047 -0.18474984
vn 0.1759694 -0.9801064 -0.05527269
vn -0.7165712 -0.5984047 0.3474155
vn -0.60059744 -0.6639025 0.44261032
vn -0.7087897 -0.60712516 -0.34260482
vn -0.7654408 0.10933348 0.6291071
vn -0.86422276 -0.17038074 0.46512198
vn -0.86199665 -0.22794709 0.44656354
vn -0.65656316 -0.41450602 0.62788177
vn 0.5348611 -0.7457399 0.39543614
vn 0.51675695 -0.7788351 -0.3435402
vn 0.1759694 -0.9801064 -0.05527269
vn -0.055592626 -0.9925874 0.10021546
vn 0.07850944 -0.5961189 0.7988387
vn -0.7087897 -0.60712516 -0.34260482
vn -0.60059744 -0.6639025 0.44261032
vn -0.50468355 -0.51431584 0.69258475
vn -0.78402066 -0.4849946 0.38424805
vn -0.8539207 -0.46905443 0.21633816
vn -0.70722187 0.05073856 0.70379114
vn -0.69361293 0.68420744 0.21753067
vn -0.14314367 0.7156985 0.68330836
vn -0.70722187 0.05073856 0.70379114
vn -0.84365904 0.18521766 -0.49638337
vn -0.51351345 0.7443503 -0.42482048
vn -0.8539207 -0.46905443 0.21633816
vn -0.90331954 -0.41186857 0.08695978
vn -0.9812336 -0.15713479 -0.050646156
vn -0.6074151 0.055008687 0.7868731
vn -0.14811105 0.6351808 0.7485165
vn -0.84788126 0.47525486 -0.21816
vn -0.37445474 -0.51369065 0.76999336
vn -0.40203762 -0.55002505 0.7300175
vn -0.7389298 -0.60338426 0.29454696
vn -0.78402066 -0.4849946 0.38424805
vn -0.50468355 -0.51431584 0.69258475
vn -0.5727374 -0.55620515 0.6014333
vn -0.68734187 -0.5897218 0.41870975
vn -0.45141542 -0.604816 0.6536123
vn -0.71338165 -0.59927654 0.3496514
vn -0.40185788 -0.82779276 0.3868293
vn -0.49869314 -0.8229491 0.260326
vn -0.7766874 -0.5965085 0.1692251
vn -0.57423764 -0.79771006 0.15904766
vn -0.7856486 -0.6048301 -0.051688306
vn -0.72216207 -0.6057635 -0.33396465
vn -0.8691226 -0.47489923 -0.056727804
vn -0.931584 -0.0070531284 -0.34007087
vn -0.8980612 -0.30665138 -0.28500447
vn -0.9085238 0.19892116 -0.3450848
vn -0.73193526 0.4166698 -0.52917373
vn -0.7437283 0.5984061 -0.27953422
vn -0.55356526 0.6098059 -0.5620619
vn -0.3173234 0.7964866 -0.51281095
vn 0.54417527 0.69422084 0.4704501
vn 0.9599342 0.072422646 -0.261426
vn 0.9098226 0.20097004 0.36224633
vn 0.92460775 0.23599064 -0.28556457
vn 0.60768354 0.6315646 -0.47682568
vn -0.011590838 0.9056943 -0.42327225
vn -0.10236047 0.99001515 0.085411586
vn -0.51351345 0.7443503 -0.42482048
vn -0.69361293 0.68420744 0.21753067
vn -0.14314367 0.7156985 0.68330836
vn -0.013839141 0.2180819 0.97583234
vn 0.5676591 0.80578315 0.13877073
vn 0.60768354 0.6315646 -0.47682568
vn -0.011590838 0.9056943 -0.42327225
vn 0.24682543 0.91423374 -0.31834432
vn -0.013874222 0.9682613 -0.24592096
vn -0.32635528 0.936767 -0.11108044
vn -0.51351345 0.7443503 -0.42482048
vn -0.4604756 0.8845643 -0.041640446
vn -0.84788126 0.47525486 -0.21816
vn -0.84365904 0.18521766 -0.49638337
vn -0.9812336 -0.15713479 -0.050646156
vn 0.8588318 0.49580586 0.03453231
vn 0.5476357 0.75493133 0.3388774
vn 0.6562289 0.40191248 0.6242879
vn 0.95215976 -0.17579712 0.21424112
vn 0.94319504 0.26567 -0.1548228
vn 0.77568936 0.53952783 -0.31083947
vn 0.9120437 -0.29512954 -0.2537835
vn 0.8497379 0.3732921 -0.35562104
vn 0.64823914 -0.15745716 -0.7355323
vn 0.4696548 0.38005197 -0.793169
vn -0.026323296 0.6332274 0.76154655
vn 0.6562289 0.40191248 0.6242879
vn 0.5476357 0.75493133 0.3388774
vn 0.16379957 0.80564296 0.5544301
vn -0.33507383 0.846693 0.3947404
vn -0.3490031 0.881138 -0.31316295
vn 0.3216753 0.7519062 -0.573904
vn 0.77568936 0.53952783 -0.31083947
vn 0.16259931 0.97097856 0.14545368
vn -0.5829815 0.76153505 0.2561452
vn 0.6562289 0.40191248 0.6242879
vn -0.026323296 0.6332274 0.76154655
vn -0.7171933 0.23836061 -0.64645964
vn -0.33149105 0.49511954 -0.80094683
vn -0.7181952 0.14815709 -0.670328
vn -0.81153095 0.5203458 -0.24077684
vn -0.98126376 0.044619 -0.13038096
vn -0.73594826 0.6568284 0.11083717
vn -0.3490031 0.881138 -0.31316295
vn -0.67376614 0.67444706 0.27427888
vn -0.5829815 0.76153505 0.2561452
vn -0.7840918 0.2853215 0.5343018
vn -0.48144197 0.7841548 0.3711475
vn -0.026323296 0.6332274 0.76154655
vn -0.33507383 0.846693 0.3947404
vn -0.7622686 -0.48315912 -0.41549852
vn -0.6896902 0.18938297 -0.6940194
vn -0.96776265 0.2210181 -0.064655736
vn -0.5286705 -0.83073306 0.15309122
vn -0.7505305 -0.30757207 0.5753346
vn -0.91057956 -0.39520895 -0.020058181
vn -0.7158229 -0.46401277 0.51259226
vn -0.8340548 -0.4087291 0.3540179
vn -0.8789758 -0.4322566 -0.16893044
vn -0.8481355 0.18776937 -0.48670045
vn 0.29450694 0.47025108 -0.8309768
vn 0.16273758 0.010091469 -0.98480606
vn -0.04346444 0.17106871 -0.9828353
vn -0.24294753 0.6812194 -0.690155
vn -0.59190756 0.41989318 -0.6853249
vn -0.6896902 0.18938297 -0.6940194
vn -0.96776265 0.2210181 -0.064655736
vn -0.8481355 0.18776937 -0.48670045
vn -0.7158229 -0.46401277 0.51259226
vn -0.60578495 -0.5970985 0.51934445
vn -0.17048822 -0.93486786 0.3073615
vn -0.7505305 -0.30757207 0.5753346
vn 0.08936967 -0.8493154 0.51995146
vn 0.43759617 -0.88581264 -0.12284618
vn -0.5286705 -0.83073306 0.15309122
vn -0.2247876 -0.72014564 -0.64690477
vn -0.7622686 -0.48315912 -0.41549852
vn 0.13936777 -0.29534224 -0.9399073
vn 0.80620736 -0.4429495 -0.3755084
vn 0.43759617 -0.88581264 -0.12284618
vn 0.57064605 -0.81522185 -0.01654203
vn 0.69281894 -0.54104227 -0.46387753
vn 0.7225814 0.09036215 -0.6797643
vn 0.70358014 -0.31997025 -0.6264709
vn 0.55085534 -0.15655345 -0.81517863
vn 0.27374336 -0.91209525 0.29989818
vn 0.43759617 -0.88581264 -0.12284618
vn 0.08936967 -0.8493154 0.51995146
vn -0.17048822 -0.93486786 0.3073615
vn -0.43722752 -0.29841435 0.84839904
vn -0.3565658 -0.49940675 0.7895909
vn -0.46007234 -0.32200712 0.8274327
vn -0.3935757 -0.48482287 0.7810539
vn -0.01059486 -0.4832291 0.87542987
vn 0.064815715 -0.39774674 0.91520303
vn -0.8980612 -0.30665138 -0.28500447
vn -0.9085238 0.19892116 -0.3450848
vn -0.9709667 -0.14166823 -0.13790008
vn -0.36533937 0.31981748 -0.8701131
vn -0.8078971 0.39914015 -0.4193209
vn -0.73193526 0.4166698 -0.52917373
vn -0.088109225 0.861488 -0.49966568
vn -0.55356526 0.6098059 -0.5620619
vn -0.3173234 0.7964866 -0.51281095
vn -0.17866027 0.8328716 -0.52315116
vn 0.36251986 0.72895646 -0.57865995
vn -0.21027312 0.9301284 -0.29644427
vn -0.46007234 -0.32200712 0.8274327
vn -0.22565717 -0.53754216 0.8124822
vn -0.43722752 -0.29841435 0.84839904
vn -0.50468355 -0.51431584 0.69258475
vn -0.70722187 0.05073856 0.70379114
vn 0.74011683 -0.37614003 0.55744576
vn -0.60027325 0.05042415 0.798204
vn 0.55075884 0.2537067 0.79517144
vn -0.52270335 -0.76688963 0.37237293
vn -0.1256353 -0.9669277 -0.22196124
vn 0.86085093 -0.5087688 -0.009503037
vn -0.52270335 -0.76688963 0.37237293
vn -0.735277 0.64853346 -0.19690774
vn -0.60027325 0.05042415 0.798204
vn -0.78191376 0.0911426 -0.61668783
vn -0.33453646 -0.14176518 -0.93165874
vn -0.1256353 -0.9669277 -0.22196124
vn -0.60027325 0.05042415 0.798204
vn -0.735277 0.64853346 -0.19690774
vn 0.43402246 0.87502223 -0.21438447
vn 0.55075884 0.2537067 0.79517144
vn -0.78191376 0.0911426 -0.61668783
vn 0.43402246 0.87502223 -0.21438447
vn -0.735277 0.64853346 -0.19690774
vn 0.5759594 0.6583574 -0.48459938
vn 0.6380874 0.3279274 -0.69664073
vn -0.33453646 -0.14176518 -0.93165874
vn 0.5759594 0.6583574 -0.48459938
vn 0.74011683 -0.37614003 0.55744576
vn 0.55075884 0.2537067 0.79517144
vn 0.43402246 0.87502223 -0.21438447
vn 0.5759594 0.6583574 -0.48459938
vn 0.6380874 0.3279274 -0.69664073
vn 0.86085093 -0.5087688 -0.009503037
vn 0.74011683 -0.37614003 0.55744576
vn 0.86085093 -0.5087688 -0.009503037
vn 0.6380874 0.3279274 -0.69664073
vn -0.33453646 -0.14176518 -0.93165874
vn -0.1256353 -0.9669277 -0.22196124
vn 0.7179718 0.35941058 0.58191615
vn 0.17346062 -0.9319227 0.31848365
vn 0.25047553 0.01891607 0.96793807
vn 0.7418144 -0.57356966 -0.34496558
vn 0.52382153 0.6236394 -0.5802458
vn 0.61913896 0.5855706 0.52323425
vn 0.7418144 -0.57356966 -0.34496558
vn -0.7981648 -0.56670153 -0.20440783
vn 0.17346062 -0.9319227 0.31848365
vn -0.53523684 -0.31926 -0.7675681
vn -0.5772876 0.6717113 -0.464266
vn 0.52382153 0.6236394 -0.5802458
vn 0.17346062 -0.9319227 0.31848365
vn -0.7981648 -0.56670153 -0.20440783
vn -0.7619166 0.41156816 0.49111986
vn 0.25047553 0.01891607 0.96793807
vn -0.53523684 -0.31926 -0.7675681
vn -0.7619166 0.41156816 0.49111986
vn -0.7981648 -0.56670153 -0.20440783
vn -0.6173942 0.26459086 0.6893003
vn -0.48040834 0.6051373 0.63483596
vn -0.5772876 0.6717113 -0.464266
vn -0.6173942 0.26459086 0.6893003
vn 0.7179718 0.35941058 0.58191615
vn 0.25047553 0.01891607 0.96793807
vn -0.7619166 0.41156816 0.49111986
vn -0.6173942 0.26459086 0.6893003
vn -0.48040834 0.6051373 0.63483596
vn 0.61913896 0.5855706 0.52323425
vn 0.7179718 0.35941058 0.58191615
vn 0.61913896 0.5855706 0.52323425
vn -0.48040834 0.6051373 0.63483596
vn -0.5772876 0.6717113 -0.464266
vn 0.52382153 0.6236394 -0.5802458
vn 0.3935421 -0.8376578 0.37875378
vn -0.20330201 0.42041475 0.8842624
vn 0.7177912 -0.22424343 0.6591591
vn -0.81042844 -0.2604608 0.5247538
vn -0.7986246 -0.59243816 -0.10590648
vn 0.24665534 -0.9474832 -0.20356105
vn -0.81042844 -0.2604608 0.5247538
vn -0.13792972 0.981481 -0.13292949
vn -0.20330201 0.42041475 0.8842624
vn -0.60514504 0.6730351 -0.42523396
vn -0.55862015 0.2434059 -0.7929045
vn -0.7986246 -0.59243816 -0.10590648
vn -0.20330201 0.42041475 0.8842624
vn -0.13792972 0.981481 -0.13292949
vn 0.86420316 0.33594674 -0.3745572
vn 0.7177912 -0.22424343 0.6591591
vn -0.60514504 0.6730351 -0.42523396
vn 0.75927377 0.16267513 -0.6301118
vn 0.86420316 0.33594674 -0.3745572
vn -0.13792972 0.981481 -0.13292949
vn 0.75927377 0.16267513 -0.6301118
vn 0.7177912 -0.22424343 0.6591591
vn 0.86420316 0.33594674 -0.3745572
vn 0.3935421 -0.8376578 0.37875378
vn 0.24665534 -0.9474832 -0.20356105
vn 0.49052092 -0.0968886 -0.8660268
vn 0.24665534 -0.9474832 -0.20356105
vn 0.49052092 -0.0968886 -0.8660268
vn -0.55862015 0.2434059 -0.7929045
vn -0.7986246 -0.59243816 -0.10590648
vn -0.60514504 0.6730351 -0.42523396
vn -0.55862015 0.2434059 -0.7929045
vn 0.49052092 -0.0968886 -0.8660268
vn 0.75927377 0.16267513 -0.6301118
vn -0.60048145 -0.1574945 -0.76068777
vn -0.1682972 -0.025508761 0.9854063
vn -0.28490192 -0.9286211 0.23768476
vn -0.7542303 0.1479708 0.56966555
vn -0.77483743 0.5441805 0.32170576
vn -0.4902717 0.45170945 -0.7453808
vn -0.7542303 0.1479708 0.56966555
vn 0.8416036 0.26800767 0.46114838
vn -0.1682972 -0.025508761 0.9854063
vn 0.4272106 0.33913785 0.8115134
vn 0.28142643 0.7768041 0.5633609
vn -0.77483743 0.5441805 0.32170576
vn -0.1682972 -0.025508761 0.9854063
vn 0.8416036 0.26800767 0.46114838
vn 0.72452605 -0.62211806 -0.29204696
vn -0.28490192 -0.9286211 0.23768476
vn 0.4272106 0.33913785 0.8115134
vn 0.79567003 0.24684387 -0.5531525
vn 0.72452605 -0.62211806 -0.29204696
vn 0.8416036 0.26800767 0.46114838
vn 0.79567003 0.24684387 -0.5531525
vn -0.28490192 -0.9286211 0.23768476
vn 0.72452605 -0.62211806 -0.29204696
vn -0.60048145 -0.1574945 -0.76068777
vn -0.4902717 0.45170945 -0.7453808
vn 0.5673781 0.6561506 -0.49754333
vn -0.4902717 0.45170945 -0.7453808
vn 0.5673781 0.6561506 -0.49754333
vn 0.28142643 0.7768041 0.5633609
vn -0.77483743 0.5441805 0.32170576
vn 0.4272106 0.33913785 0.8115134
vn 0.28142643 0.7768041 0.5633609
vn 0.5673781 0.6561506 -0.49754333
vn 0.79567003 0.24684387 -0.5531525
g 0.1000_0
f 3/3/3 2/2/2 1/1/1
f 6/6/6 5/5/5 4/4/4
f 9/9/9 8/8/8 7/7/7
f 12/12/12 11/11/11 10/10/10
f 15/15/15 14/14/14 13/13/13
f 18/18/18 17/17/17 16/16/16
f 21/21/21 20/20/20 19/19/19
f 24/24/24 23/23/23 22/22/22
f 27/27/27 26/26/26 25/25/25
f 30/30/30 29/29/29 28/28/28
f 28/28/28 31/31/31 30/30/30
f 28/28/28 32/32/32 31/31/31
f 31/31/31 32/32/32 33/33/33
f 31/31/31 33/33/33 34/34/34
f 35/35/35 31/31/31 34/34/34
f 31/31/31 35/35/35 36/36/36
f 37/37/37 31/31/31 36/36/36
f 36/36/36 35/35/35 38/38/38
f 35/35/35 39/39/39 38/38/38
f 39/39/39 35/35/35 34/34/34
f 40/40/40 39/39/39 34/34/34
f 41/41/41 39/39/39 40/40/40
f 42/42/42 41/41/41 40/40/40
f 43/43/43 39/39/39 41/41/41
f 42/42/42 44/44/44 41/41/41
f 45/45/45 44/44/44 42/42/42
f 45/45/45 46/46/46 44/44/44
f 47/47/47 45/45/45 42/42/42
f 45/45/45 47/47/47 48/48/48
f 45/45/45 48/48/48 49/49/49
f 50/50/50 45/45/45 49/49/49
f 50/50/50 49/49/49 51/51/51
f 52/52/52 50/50/50 51/51/51
f 53/53/53 52/52/52 51/51/51
f 44/44/44 54/54/54 41/41/41
f 54/54/54 43/43/43 41/41/41
f 46/46/46 54/54/54 44/44/44
f 43/43/43 54/54/54 46/46/46
f 55/55/55 52/52/52 53/53/53
f 56/56/56 55/55/55 53/53/53
f 57/57/57 55/55/55 56/56/56
f 52/52/52 55/55/55 58/58/58
f 58/58/58 59/59/59 52/52/52
f 59/59/59 60/60/60 52/52/52
f 61/61/61 52/52/52 60/60/60
f 50/50/50 52/52/52 61/61/61
f 62/62/62 50/50/50 61/61/61
f 61/61/61 63/63/63 62/62/62
f 50/50/50 62/62/62 64/64/64
f 63/63/63 65/65/65 62/62/62
f 62/62/62 65/65/65 64/64/64
f 66/66/66 50/50/50 64/64/64
f 67/67/67 66/66/66 64/64/64
f 68/68/68 66/66/66 67/67/67
f 50/50/50 66/66/66 45/45/45
f 66/66/66 68/68/68 69/69/69
f 68/68/68 70/70/70 69/69/69
f 66/66/66 69/69/69 71/71/71
f 66/66/66 71/71/71 45/45/45
f 45/45/45 71/71/71 72/72/72
f 46/46/46 45/45/45 72/72/72
f 65/65/65 63/63/63 73/73/73
f 63/63/63 74/74/74 73/73/73
f 65/65/65 73/73/73 75/75/75
f 74/74/74 75/75/75 73/73/73
f 76/76/76 65/65/65 75/75/75
f 77/77/77 75/75/75 74/74/74
f 72/72/72 78/78/78 46/46/46
f 72/72/72 79/79/79 78/78/78
f 46/46/46 78/78/78 80/80/80
f 79/79/79 81/81/81 78/78/78
f 82/82/82 81/81/81 79/79/79
f 83/83/83 81/81/81 82/82/82
f 84/84/84 46/46/46 80/80/80
f 84/84/84 43/43/43 46/46/46
f 43/43/43 84/84/84 85/85/85
f 85/85/85 86/86/86 43/43/43
f 87/87/87 43/43/43 86/86/86
f 90/90/90 89/89/89 88/88/88
f 89/89/89 91/91/91 88/88/88
f 88/88/88 91/91/91 92/92/92
f 93/93/93 88/88/88 92/92/92
f 93/93/93 92/92/92 94/94/94
f 95/95/95 93/93/93 94/94/94
f 94/94/94 96/96/96 95/95/95
f 96/96/96 97/97/97 95/95/95
f 95/95/95 98/98/98 93/93/93
f 98/98/98 99/99/99 93/93/93
f 95/95/95 97/97/97 100/100/100
f 97/97/97 101/101/101 100/100/100
f 102/102/102 98/98/98 95/95/95
f 100/100/100 102/102/102 95/95/95
f 99/99/99 98/98/98 103/103/103
f 98/98/98 102/102/102 103/103/103
f 104/104/104 99/99/99 103/103/103
f 105/105/105 99/99/99 104/104/104
f 106/106/106 105/105/105 104/104/104
f 105/105/105 106/106/106 107/107/107
f 107/107/107 108/108/108 105/105/105
f 109/109/109 108/108/108 107/107/107
f 110/110/110 109/109/109 107/107/107
f 111/111/111 109/109/109 110/110/110
f 109/109/109 111/111/111 112/112/112
f 113/113/113 109/109/109 112/112/112
f 114/114/114 113/113/113 112/112/112
f 115/115/115 114/114/114 112/112/112
f 116/116/116 114/114/114 115/115/115
f 117/117/117 116/116/116 115/115/115
f 118/118/118 116/116/116 117/117/117
f 119/119/119 118/118/118 117/117/117
f 122/122/122 121/121/121 120/120/120
f 123/123/123 121/121/121 122/122/122
f 124/124/124 123/123/123 122/122/122
f 124/124/124 122/122/122 125/125/125
f 126/126/126 124/124/124 125/125/125
f 127/127/127 126/126/126 125/125/125
f 128/128/128 126/126/126 127/127/127
f 126/126/126 128/128/128 129/129/129
f 130/130/130 126/126/126 129/129/129
f 129/129/129 131/131/131 130/130/130
f 131/131/131 132/132/132 130/130/130
f 133/133/133 132/132/132 131/131/131
f 134/134/134 133/133/133 131/131/131
f 133/133/133 134/134/134 135/135/135
f 133/133/133 135/135/135 136/136/136
f 130/130/130 132/132/132 137/137/137
f 138/138/138 130/130/130 137/137/137
f 137/137/137 132/132/132 139/139/139
f 132/132/132 133/133/133 139/139/139
f 140/140/140 133/133/133 136/136/136
f 140/140/140 136/136/136 141/141/141
f 142/142/142 140/140/140 141/141/141
f 143/143/143 142/142/142 141/141/141
f 144/144/144 142/142/142 143/143/143
f 145/145/145 144/144/144 143/143/143
f 142/142/142 144/144/144 146/146/146
f 146/146/146 144/144/144 147/147/147
f 147/147/147 148/148/148 146/146/146
f 147/147/147 149/149/149 148/148/148
f 150/150/150 142/142/142 146/146/146
f 142/142/142 150/150/150 151/151/151
f 142/142/142 151/151/151 152/152/152
f 140/140/140 142/142/142 152/152/152
f 153/153/153 140/140/140 152/152/152
f 140/140/140 153/153/153 133/133/133
f 154/154/154 153/153/153 152/152/152
f 155/155/155 153/153/153 154/154/154
f 154/154/154 156/156/156 155/155/155
f 153/153/153 155/155/155 157/157/157
f 153/153/153 157/157/157 133/133/133
f 154/154/154 158/158/158 156/156/156
f 133/133/133 157/157/157 139/139/139
f 158/158/158 159/159/159 156/156/156
f 157/157/157 160/160/160 139/139/139
f 139/139/139 160/160/160 161/161/161
f 160/160/160 157/157/157 161/161/161
f 162/162/162 139/139/139 161/161/161
f 157/157/157 163/163/163 161/161/161
f 155/155/155 163/163/163 157/157/157
f 162/162/162 161/161/161 164/164/164
f 161/161/161 163/163/163 164/164/164
f 165/165/165 162/162/162 164/164/164
f 166/166/166 162/162/162 165/165/165
f 163/163/163 167/167/167 164/164/164
f 167/167/167 163/163/163 155/155/155
f 168/168/168 167/167/167 155/155/155
f 168/168/168 155/155/155 169/169/169
f 155/155/155 170/170/170 169/169/169
f 155/155/155 171/171/171 170/170/170
f 172/172/172 170/170/170 171/171/171
f 155/155/155 156/156/156 171/171/171
f 172/172/172 171/171/171 173/173/173
f 156/156/156 174/174/174 171/171/171
f 173/173/173 171/171/171 174/174/174
f 175/175/175 174/174/174 156/156/156
f 173/173/173 174/174/174 175/175/175
f 159/159/159 175/175/175 156/156/156
f 173/173/173 176/176/176 172/172/172
f 172/172/172 176/176/176 177/177/177
f 178/178/178 176/176/176 173/173/173
f 178/178/178 173/173/173 175/175/175
f 179/179/179 178/178/178 175/175/175
f 180/180/180 175/175/175 159/159/159
f 180/180/180 179/179/179 175/175/175
f 181/181/181 179/179/179 180/180/180
f 182/182/182 181/181/181 180/180/180
f 183/183/183 180/180/180 159/159/159
f 184/184/184 180/180/180 183/183/183
f 183/183/183 185/185/185 184/184/184
f 188/188/188 187/187/187 186/186/186
f 186/186/186 187/187/187 189/189/189
f 187/187/187 190/190/190 189/189/189
f 193/193/193 192/192/192 191/191/191
f 191/191/191 194/194/194 193/193/193
f 191/191/191 195/195/195 194/194/194
f 196/196/196 195/195/195 191/191/191
f 194/194/194 197/197/197 193/193/193
f 195/195/195 197/197/197 194/194/194
f 198/198/198 197/197/197 195/195/195
f 199/199/199 198/198/198 195/195/195
f 199/199/199 195/195/195 200/200/200
f 199/199/199 200/200/200 201/201/201
f 202/202/202 201/201/201 200/200/200
f 203/203/203 200/200/200 195/195/195
f 195/195/195 204/204/204 203/203/203
f 207/207/207 206/206/206 205/205/205
f 208/208/208 207/207/207 205/205/205
f 211/211/211 210/210/210 209/209/209
f 212/212/212 211/211/211 209/209/209
f 209/209/209 213/213/213 212/212/212
f 214/214/214 213/213/213 209/209/209
f 214/214/214 215/215/215 213/213/213
f 213/213/213 216/216/216 212/212/212
f 216/216/216 217/217/217 212/212/212
f 215/215/215 218/218/218 213/213/213
f 219/219/219 213/213/213 218/218/218
f 218/218/218 215/215/215 220/220/220
f 219/219/219 218/218/218 221/221/221
f 218/218/218 220/220/220 222/222/222
f 222/222/222 221/221/221 218/218/218
f 222/222/222 223/223/223 221/221/221
f 225/225/225 224/224/224 102/102/102
f 102/102/102 226/226/226 225/225/225
f 102/102/102 100/100/100 226/226/226
f 226/226/226 100/100/100 227/227/227
f 100/100/100 101/101/101 227/227/227
f 228/228/228 227/227/227 101/101/101
f 229/229/229 226/226/226 227/227/227
f 229/229/229 227/227/227 230/230/230
f 229/229/229 230/230/230 231/231/231
f 232/232/232 229/229/229 231/231/231
f 235/235/235 234/234/234 233/233/233
f 236/236/236 235/235/235 233/233/233
f 235/235/235 236/236/236 237/237/237
f 237/237/237 238/238/238 235/235/235
f 237/237/237 239/239/239 238/238/238
f 236/236/236 240/240/240 237/237/237
f 241/241/241 237/237/237 240/240/240
f 242/242/242 241/241/241 240/240/240
f 245/245/245 244/244/244 243/243/243
f 244/244/244 246/246/246 243/243/243
f 243/243/243 246/246/246 247/247/247
f 246/246/246 248/248/248 247/247/247
f 248/248/248 249/249/249 247/247/247
f 248/248/248 250/250/250 249/249/249
f 250/250/250 248/248/248 251/251/251
f 249/249/249 250/250/250 252/252/252
f 250/250/250 253/253/253 252/252/252
f 252/252/252 253/253/253 254/254/254
f 257/257/257 256/256/256 255/255/255
f 256/256/256 258/258/258 255/255/255
f 259/259/259 258/258/258 256/256/256
f 258/258/258 260/260/260 255/255/255
f 260/260/260 261/261/261 255/255/255
f 264/264/264 263/263/263 262/262/262
f 263/263/263 264/264/264 265/265/265
f 263/263/263 265/265/265 266/266/266
f 267/267/267 263/263/263 266/266/266
f 267/267/267 266/266/266 268/268/268
f 266/266/266 269/269/269 268/268/268
f 269/269/269 266/266/266 265/265/265
f 269/269/269 265/265/265 270/270/270
f 271/271/271 269/269/269 270/270/270
f 270/270/270 265/265/265 272/272/272
f 275/275/275 274/274/274 273/273/273
f 276/276/276 274/274/274 275/275/275
f 276/276/276 277/277/277 274/274/274
f 276/276/276 275/275/275 278/278/278
f 278/278/278 279/279/279 276/276/276
f 282/282/282 281/281/281 280/280/280
f 281/281/281 283/283/283 280/280/280
f 283/283/283 281/281/281 284/284/284
f 285/285/285 284/284/284 281/281/281
f 284/284/284 285/285/285 286/286/286
f 287/287/287 284/284/284 286/286/286
f 288/288/288 284/284/284 287/287/287
f 289/289/289 287/287/287 286/286/286
f 290/290/290 287/287/287 289/289/289
f 293/293/293 292/292/292 291/291/291
f 294/294/294 292/292/292 293/293/293
f 292/292/292 294/294/294 295/295/295
f 292/292/292 295/295/295 296/296/296
f 292/292/292 296/296/296 297/297/297
f 297/297/297 298/298/298 292/292/292
f 295/295/295 294/294/294 299/299/299
f 299/299/299 294/294/294 300/300/300
f 294/294/294 301/301/301 300/300/300
f 300/300/300 301/301/301 302/302/302
f 303/303/303 301/301/301 294/294/294
f 306/306/306 305/305/305 304/304/304
f 306/306/306 304/304/304 307/307/307
f 308/308/308 306/306/306 307/307/307
f 308/308/308 309/309/309 306/306/306
f 307/307/307 310/310/310 308/308/308
f 311/311/311 310/310/310 307/307/307
f 314/314/314 313/313/313 312/312/312
f 312/312/312 313/313/313 315/315/315
f 316/316/316 312/312/312 315/315/315
f 317/317/317 316/316/316 315/315/315
f 320/320/320 319/319/319 318/318/318
f 318/318/318 319/319/319 321/321/321
f 321/321/321 319/319/319 322/322/322
f 322/322/322 319/319/319 323/323/323
f 319/319/319 324/324/324 323/323/323
f 325/325/325 323/323/323 324/324/324
f 325/325/325 326/326/326 323/323/323
f 329/329/329 328/328/328 327/327/327
f 328/328/328 329/329/329 330/330/330
f 329/329/329 331/331/331 330/330/330
f 329/329/329 332/332/332 331/331/331
f 329/329/329 333/333/333 332/332/332
f 334/334/334 333/333/333 329/329/329
f 335/335/335 334/334/334 329/329/329
f 338/338/338 337/337/337 336/336/336
f 339/339/339 338/338/338 336/336/336
f 340/340/340 338/338/338 339/339/339
f 340/340/340 341/341/341 338/338/338
f 341/341/341 342/342/342 338/338/338
f 341/341/341 340/340/340 343/343/343
f 344/344/344 341/341/341 343/343/343
f 340/340/340 345/345/345 343/343/343
f 345/345/345 346/346/346 343/343/343
f 347/347/347 346/346/346 345/345/345
f 343/343/343 346/346/346 348/348/348
f 349/349/349 347/347/347 345/345/345
f 349/349/349 350/350/350 347/347/347
f 351/351/351 348/348/348 346/346/346
f 350/350/350 352/352/352 347/347/347
f 353/353/353 351/351/351 346/346/346
f 354/354/354 351/351/351 353/353/353
f 355/355/355 354/354/354 353/353/353
f 356/356/356 355/355/355 353/353/353
f 357/357/357 353/353/353 346/346/346
f 347/347/347 357/357/357 346/346/346
f 357/357/357 356/356/356 353/353/353
f 358/358/358 356/356/356 357/357/357
f 359/359/359 357/357/357 347/347/347
f 359/359/359 358/358/358 357/357/357
f 347/347/347 352/352/352 360/360/360
f 360/360/360 359/359/359 347/347/347
f 352/352/352 361/361/361 360/360/360
f 362/362/362 361/361/361 352/352/352
f 363/363/363 361/361/361 362/362/362
f 364/364/364 363/363/363 362/362/362
f 365/365/365 359/359/359 360/360/360
f 362/362/362 366/366/366 364/364/364
f 364/364/364 366/366/366 367/367/367
f 366/366/366 362/362/362 368/368/368
f 366/366/366 368/368/368 369/369/369
f 366/366/366 370/370/370 367/367/367
f 371/371/371 370/370/370 366/366/366
f 372/372/372 371/371/371 366/366/366
f 373/373/373 359/359/359 365/365/365
f 374/374/374 373/373/373 365/365/365
f 365/365/365 375/375/375 374/374/374
f 373/373/373 376/376/376 359/359/359
f 376/376/376 358/358/358 359/359/359
f 373/373/373 374/374/374 377/377/377
f 373/373/373 377/377/377 376/376/376
f 374/374/374 378/378/378 377/377/377
f 377/377/377 378/378/378 379/379/379
f 377/377/377 380/380/380 376/376/376
f 376/376/376 380/380/380 358/358/358
f 380/380/380 381/381/381 358/358/358
f 381/381/381 382/382/382 358/358/358
f 382/382/382 383/383/383 358/358/358
f 358/358/358 383/383/383 356/356/356
f 383/383/383 384/384/384 356/356/356
f 384/384/384 383/383/383 385/385/385
f 356/356/356 384/384/384 386/386/386
f 387/387/387 384/384/384 385/385/385
f 387/387/387 386/386/386 384/384/384
f 387/387/387 385/385/385 388/388/388
f 389/389/389 387/387/387 388/388/388
f 387/387/387 390/390/390 386/386/386
f 387/387/387 389/389/389 390/390/390
f 390/390/390 391/391/391 386/386/386
f 392/392/392 390/390/390 389/389/389
f 395/395/395 394/394/394 393/393/393
f 396/396/396 395/395/395 393/393/393
f 396/396/396 397/397/397 395/395/395
f 400/400/400 399/399/399 398/398/398
f 399/399/399 400/400/400 401/401/401
f 404/404/404 403/403/403 402/402/402
f 403/403/403 405/405/405 402/402/402
f 405/405/405 406/406/406 402/402/402
f 407/407/407 406/406/406 405/405/405
f 408/408/408 407/407/407 405/405/405
f 411/411/411 410/410/410 409/409/409
f 412/412/412 411/411/411 409/409/409
f 412/412/412 409/409/409 413/413/413
f 414/414/414 411/411/411 412/412/412
f 412/412/412 413/413/413 415/415/415
f 415/415/415 414/414/414 412/412/412
f 418/418/418 417/417/417 416/416/416
f 419/419/419 418/418/418 416/416/416
f 422/422/422 421/421/421 420/420/420
f 422/422/422 420/420/420 423/423/423
f 424/424/424 423/423/423 420/420/420
f 425/425/425 422/422/422 423/423/423
f 425/425/425 423/423/423 426/426/426
f 423/423/423 427/427/427 426/426/426
f 427/427/427 428/428/428 426/426/426
f 429/429/429 428/428/428 427/427/427
f 430/430/430 429/429/429 427/427/427
f 428/428/428 431/431/431 426/426/426
f 431/431/431 432/432/432 426/426/426
f 432/432/432 433/433/433 426/426/426
f 426/426/426 433/433/433 434/434/434
f 434/434/434 433/433/433 435/435/435
f 433/433/433 436/436/436 435/435/435
f 432/432/432 437/437/437 433/433/433
f 437/437/437 432/432/432 438/438/438
f 437/437/437 438/438/438 439/439/439
f 438/438/438 440/440/440 439/439/439
f 439/439/439 440/440/440 441/441/441
f 439/439/439 441/441/441 442/442/442
f 441/441/441 443/443/443 442/442/442
f 442/442/442 443/443/443 444/444/444
f 445/445/445 442/442/442 444/444/444
f 446/446/446 445/445/445 444/444/444
f 447/447/447 445/445/445 446/446/446
f 448/448/448 447/447/447 446/446/446
f 447/447/447 448/448/448 449/449/449
f 447/447/447 449/449/449 450/450/450
f 451/451/451 447/447/447 450/450/450
f 452/452/452 451/451/451 450/450/450
f 453/453/453 451/451/451 452/452/452
f 456/456/456 455/455/455 454/454/454
f 455/455/455 457/457/457 454/454/454
f 454/454/454 457/457/457 458/458/458
f 458/458/458 459/459/459 454/454/454
f 454/454/454 459/459/459 460/460/460
f 460/460/460 459/459/459 461/461/461
f 460/460/460 461/461/461 462/462/462
f 460/460/460 462/462/462 463/463/463
f 454/454/454 460/460/460 463/463/463
f 454/454/454 463/463/463 464/464/464
f 467/467/467 466/466/466 465/465/465
f 465/465/465 468/468/468 467/467/467
f 468/468/468 469/469/469 467/467/467
f 467/467/467 469/469/469 470/470/470
f 470/470/470 471/471/471 467/467/467
f 470/470/470 472/472/472 471/471/471
f 471/471/471 472/472/472 473/473/473
f 474/474/474 471/471/471 473/473/473
f 473/473/473 475/475/475 474/474/474
f 478/478/478 477/477/477 476/476/476
f 479/479/479 478/478/478 476/476/476
f 479/479/479 476/476/476 480/480/480
f 479/479/479 481/481/481 478/478/478
f 482/482/482 479/479/479 480/480/480
f 482/482/482 481/481/481 479/479/479
f 480/480/480 483/483/483 482/482/482
f 484/484/484 481/481/481 482/482/482
f 482/482/482 483/483/483 485/485/485
f 484/484/484 482/482/482 485/485/485
f 488/488/488 487/487/487 486/486/486
f 486/486/486 489/489/489 488/488/488
f 486/486/486 490/490/490 489/489/489
f 493/493/493 492/492/492 491/491/491
f 494/494/494 493/493/493 491/491/491
f 494/494/494 491/491/491 495/495/495
f 496/496/496 493/493/493 494/494/494
f 494/494/494 495/495/495 497/497/497
f 497/497/497 496/496/496 494/494/494
f 500/500/500 499/499/499 498/498/498
f 500/500/500 498/498/498 501/501/501
f 502/502/502 500/500/500 501/501/501
f 502/502/502 501/501/501 503/503/503
f 504/504/504 500/500/500 502/502/502
f 502/502/502 503/503/503 505/505/505
f 502/502/502 506/506/506 504/504/504
f 507/507/507 502/502/502 505/505/505
f 502/502/502 507/507/507 506/506/506
f 507/507/507 505/505/505 508/508/508
f 507/507/507 509/509/509 506/506/506
f 507/507/507 508/508/508 510/510/510
f 509/509/509 507/507/507 510/510/510
f 513/513/513 512/512/512 511/511/511
f 513/513/513 511/511/511 514/514/514
f 513/513/513 514/514/514 515/515/515
f 513/513/513 515/515/515 516/516/516
f 515/515/515 517/517/517 516/516/516
f 517/517/517 518/518/518 516/516/516
f 516/516/516 519/519/519 513/513/513
f 513/513/513 519/519/519 520/520/520
f 523/523/523 522/522/522 521/521/521
f 524/524/524 523/523/523 521/521/521
f 525/525/525 523/523/523 524/524/524
f 525/525/525 524/524/524 526/526/526
f 526/526/526 527/527/527 525/525/525
f 527/527/527 528/528/528 525/525/525
f 531/531/531 530/530/530 529/529/529
f 532/532/532 531/531/531 529/529/529
f 535/535/535 534/534/534 533/533/533
f 536/536/536 534/534/534 535/535/535
f 537/537/537 536/536/536 535/535/535
f 538/538/538 534/534/534 536/536/536
f 541/541/541 540/540/540 539/539/539
f 539/539/539 542/542/542 541/541/541
f 539/539/539 543/543/543 542/542/542
f 543/543/543 544/544/544 542/542/542
f 543/543/543 545/545/545 544/544/544
f 548/548/548 547/547/547 546/546/546
f 549/549/549 548/548/548 546/546/546
f 552/552/552 551/551/551 550/550/550
f 551/551/551 553/553/553 550/550/550
f 550/550/550 553/553/553 554/554/554
f 553/553/553 555/555/555 554/554/554
f 558/558/558 557/557/557 556/556/556
f 559/559/559 557/557/557 558/558/558
f 560/560/560 559/559/559 558/558/558
f 561/561/561 557/557/557 559/559/559
f 562/562/562 559/559/559 560/560/560
f 559/559/559 562/562/562 561/561/561
f 562/562/562 563/563/563 561/561/561
f 563/563/563 562/562/562 564/564/564
f 562/562/562 565/565/565 564/564/564
f 562/562/562 566/566/566 565/565/565
f 565/565/565 566/566/566 567/567/567
f 570/570/570 569/569/569 568/568/568
f 568/568/568 569/569/569 571/571/571
f 569/569/569 572/572/572 571/571/571
f 575/575/575 574/574/574 573/573/573
f 574/574/574 576/576/576 573/573/573
f 576/576/576 577/577/577 573/573/573
f 577/577/577 578/578/578 573/573/573
f 581/581/581 580/580/580 579/579/579
f 580/580/580 582/582/582 579/579/579
f 582/582/582 583/583/583 579/579/579
f 583/583/583 584/584/584 579/579/579
f 587/587/587 586/586/586 585/585/585
f 588/588/588 587/587/587 585/585/585
f 591/591/591 590/590/590 589/589/589
f 590/590/590 592/592/592 589/589/589
f 592/592/592 593/593/593 589/589/589
f 593/593/593 594/594/594 589/589/589
f 597/597/597 596/596/596 595/595/595
f 598/598/598 597/597/597 595/595/595
f 601/601/601 600/600/600 599/599/599
f 602/602/602 601/601/601 599/599/599
f 605/605/605 604/604/604 603/603/603
f 606/606/606 605/605/605 603/603/603
f 609/609/609 608/608/608 607/607/607
f 608/608/608 610/610/610 607/607/607
f 610/610/610 611/611/611 607/607/607
f 611/611/611 612/612/612 607/607/607
f 615/615/615 614/614/614 613/613/613
f 614/614/614 616/616/616 613/613/613
f 616/616/616 617/617/617 613/613/613
f 617/617/617 618/618/618 613/613/613
f 621/621/621 620/620/620 619/619/619
f 622/622/622 621/621/621 619/619/619
f 625/625/625 624/624/624 623/623/623
f 624/624/624 626/626/626 623/623/623
f 626/626/626 627/627/627 623/623/623
f 627/627/627 628/628/628 623/623/623
f 631/631/631 630/630/630 629/629/629
f 632/632/632 631/631/631 629/629/629
f 635/635/635 634/634/634 633/633/633
f 636/636/636 635/635/635 633/633/633
f 639/639/639 638/638/638 637/637/637
f 640/640/640 639/639/639 637/637/637
f 643/643/643 642/642/642 641/641/641
f 642/642/642 644/644/644 641/641/641
f 644/644/644 645/645/645 641/641/641
f 645/645/645 646/646/646 641/641/641
f 649/649/649 648/648/648 647/647/647
f 648/648/648 650/650/650 647/647/647
f 650/650/650 651/651/651 647/647/647
f 651/651/651 652/652/652 647/647/647
f 655/655/655 654/654/654 653/653/653
f 656/656/656 655/655/655 653/653/653
f 659/659/659 658/658/658 657/657/657
f 660/660/660 659/659/659 657/657/657
f 663/663/663 662/662/662 661/661/661
f 662/662/662 664/664/664 661/661/661
f 664/664/664 665/665/665 661/661/661
f 665/665/665 666/666/666 661/661/661
f 669/669/669 668/668/668 667/667/667
f 670/670/670 669/669/669 667/667/667
f 673/673/673 672/672/672 671/671/671
f 674/674/674 673/673/673 671/671/671
f 677/677/677 676/676/676 675/675/675
f 676/676/676 678/678/678 675/675/675
f 678/678/678 679/679/679 675/675/675
f 679/679/679 680/680/680 675/675/675
f 683/683/683 682/682/682 681/681/681
f 682/682/682 684/684/684 681/681/681
f 684/684/684 685/685/685 681/681/681
f 685/685/685 686/686/686 681/681/681
f 689/689/689 688/688/688 687/687/687
f 690/690/690 689/689/689 687/687/687
f 693/693/693 692/692/692 691/691/691
f 694/694/694 693/693/693 691/691/691
f 697/697/697 696/696/696 695/695/695
f 696/696/696 698/698/698 695/695/695
f 698/698/698 699/699/699 695/695/695
f 699/699/699 700/700/700 695/695/695
f 703/703/703 702/702/702 701/701/701
f 704/704/704 703/703/703 701/701/701
f 707/707/707 706/706/706 705/705/705
f 708/708/708 707/707/707 705/705/705
