g 0.1500
v -0.011152494 -1.186793 3.359391
v 4.529702E-06 -1.1602798 3.60351
v 0.49231783 -1.0470644 3.5189092
v 1.0328767 0.54118323 1.86127
v 1.1461844 1.0460862 2.7485623
v 0.5375233 1.0194827 2.1384134
v 1.2006779 -0.51093143 2.2215436
v 0.8199594 -0.6950054 2.2261937
v 1.2917267 -0.13775563 2.7425425
v -0.00033135395 -1.6777045 3.9664578
v 6.7216715E-06 -2.0995278 4.1031213
v 0.3847749 -2.058837 4.1601934
v 0.50500154 -1.1435182 5.5041223
v 0.00549441 -1.2248616 5.4606194
v 0.011879404 -1.0690217 5.6629
v 2.3579752 -0.8768209 1.6227931
v 2.5897307 -1.038506 1.6257513
v 2.7202508 -0.7956704 1.8114308
v -0.011152494 -1.186793 3.359391
v -0.5030391 -0.9212022 3.5600667
v 4.529702E-06 -1.1602798 3.60351
v -1.0331316 0.056702256 1.5410454
v -0.53760934 0.80658907 1.6609358
v -1.1216041 1.0495942 2.1365364
v -1.2006446 -0.3330716 2.5777001
v -1.2835016 0.21695125 2.6829221
v -0.8199218 -0.49601555 2.6554399
v -0.00033135395 -1.6777045 3.9664578
v -0.38476077 -2.0588367 4.1601934
v 6.7216715E-06 -2.0995278 4.1031213
v -0.5077527 -1.1509639 5.5045943
v 0.011879404 -1.0690217 5.6629
v 0.00549441 -1.2248616 5.4606194
v -2.2554622 -0.6769592 1.5789204
v -2.600904 -0.5112542 1.7420917
v -2.519908 -0.77365017 1.5548233
v 2.0657496 -1.0579302 2.3532403
v 2.0804698 -1.144611 2.0713332
v 2.2162526 -1.1337982 1.8022048
v 2.0376406 -1.1663115 2.168922
v 2.0524817 -1.2574568 2.228437
v 2.3264945 -1.0498617 2.8053179
v 2.197822 -0.88580096 2.6420867
v 2.351273 -0.45212692 2.4994557
v 1.3152176 0.37825668 4.675826
v 0.92283344 0.615947 4.727019
v 1.277811 0.2649293 4.2644486
v 0.9162474 -0.18356192 5.4135256
v 1.7980646 0.07075775 5.167915
v 1.5515513 -0.29468215 5.395572
v 1.8654785 0.48670053 4.513096
v 1.9055433 0.39907837 3.3594718
v 0.40402424 0.21198165 5.384659
v 0.055641267 0.10671067 5.5205
v 0.03816896 -0.32148528 5.7985115
v 0.075353295 0.49405658 5.118964
v 0.060931213 0.87824905 4.3745184
v 0.7859885 0.7971475 3.7357638
v 1.1000172 0.5193465 3.7009428
v 0.03675659 0.85226506 3.7974803
v 2.3765535 0.32689172 3.184475
v 2.756549 -0.41233504 2.5957253
v 2.351273 -0.45212692 2.4994557
v 2.6986818 0.3247246 3.7250535
v 2.324473 0.118593216 4.3855615
v 2.0062568 -0.4190395 5.070307
v 2.639599 -0.50897914 1.8383793
v 2.491995 -0.58405685 1.6524007
v 2.7202508 -0.7956704 1.8114308
v 2.1123466 -0.45436937 1.9460199
v 2.086682 -0.43177688 2.2998126
v 1.0923108 -1.0319118 4.389632
v 1.1689833 -0.46059692 4.0218043
v 0.9386327 -0.9860947 3.6813285
v 0.9132322 -0.73164713 3.6072025
v 1.1471148 -0.19185913 3.395763
v 0.7685927 -0.97839606 2.5730708
v 1.277811 0.2649293 4.2644486
v 1.1000172 0.5193465 3.7009428
v 0.92283344 0.615947 4.727019
v 0.6155508 1.9843568 1.2447823
v 0.74744016 1.8398544 1.8338604
v 0.5945449 1.3078705 1.5374393
v 0.45456225 2.1262598 0.7099601
v 0.8224303 1.0401118 0.9316454
v 0.26728496 0.6498266 1.2176174
v 0.67874897 0.6483059 1.6473051
v 0.44084468 -0.07100618 1.1198993
v 0.28708515 0.39204857 1.4116125
v 0.30025953 0.38101298 1.6900735
v 0.28140688 -0.4156192 1.7982174
v 0.21703851 -0.3935645 1.7927415
v 0.2513657 0.3666824 1.7764988
v -3.5023604E-06 0.3438573 2.023087
v 0.0011617324 1.0825932 2.4118292
v 0.18536437 -0.43639672 1.7902691
v 0.49231783 -1.0470644 3.5189092
v 4.529702E-06 -1.1602798 3.60351
v 0.5818369 -1.299289 3.742644
v 0.9386327 -0.9860947 3.6813285
v 1.0923108 -1.0319118 4.389632
v 0.9132322 -0.73164713 3.6072025
v 0.7685927 -0.97839606 2.5730708
v -0.011152494 -1.186793 3.359391
v 1.14764935E-05 -1.2205243 2.4906654
v 1.0861804 1.8053557 1.7860446
v 1.6101985 2.1156068 0.80143416
v 1.200487 1.3400208 1.3012351
v 1.011845 1.1674333 1.6760706
v 1.3285601 0.538069 1.5672119
v 1.3457621 -0.045134187 1.1914929
v 1.3311683 0.1602349 1.9860432
v 1.0328767 0.54118323 1.86127
v 1.1461844 1.0460862 2.7485623
v 1.2917267 -0.13775563 2.7425425
v 1.3259271 -0.15220374 1.9240079
v 1.2528934 -0.36797643 1.8702362
v 1.2006779 -0.51093143 2.2215436
v 1.0328767 0.54118323 1.86127
v 0.30025953 0.38101298 1.6900735
v 0.67874897 0.6483059 1.6473051
v 1.3285601 0.538069 1.5672119
v 1.011845 1.1674333 1.6760706
v 0.5945449 1.3078705 1.5374393
v 0.74744016 1.8398544 1.8338604
v 1.0861804 1.8053557 1.7860446
v 1.5515513 -0.29468215 5.395572
v 1.7980646 0.07075775 5.167915
v 2.0062568 -0.4190395 5.070307
v 1.8654785 0.48670053 4.513096
v 0.2226841 -2.0010018 4.6131406
v 7.935014E-06 -2.0229433 4.4567432
v 8.246724E-06 -2.1716297 4.537422
v 0.22614165 -2.0324254 4.903394
v 9.4524E-06 -2.2237213 5.139858
v 0.37338248 -2.0996144 5.111402
v 0.43566453 -1.9884281 4.898465
v 0.47853625 -1.7755799 4.722934
v 1.012461 -0.8979603 5.2861147
v 0.50500154 -1.1435182 5.5041223
v 0.011879404 -1.0690217 5.6629
v 0.9162474 -0.18356192 5.4135256
v 0.03816896 -0.32148528 5.7985115
v 1.012461 -0.8979603 5.2861147
v 0.9162474 -0.18356192 5.4135256
v 1.5515513 -0.29468215 5.395572
v 2.0062568 -0.4190395 5.070307
v 1.6889763 -1.0280036 4.682196
v 0.8633371 -1.1096743 5.0247746
v 0.50500154 -1.1435182 5.5041223
v 0.54167426 -1.1674656 4.682001
v 1.0923108 -1.0319118 4.389632
v 0.55131215 -1.1584886 4.453341
v 0.5818369 -1.299289 3.742644
v 0.35180464 -1.1455948 4.1553764
v 0.2728431 -1.2004707 4.2895246
v 4.529702E-06 -1.1602798 3.60351
v -0.0028946693 -1.2523134 4.122913
v 2.3264945 -1.0498617 2.8053179
v 2.8169203 -1.0127687 2.8357549
v 2.4627695 -1.3003842 2.1182647
v 2.0524817 -1.2574568 2.228437
v 2.0804698 -1.144611 2.0713332
v 2.2162526 -1.1337982 1.8022048
v 2.3579752 -0.8768209 1.6227931
v 2.5897307 -1.038506 1.6257513
v 2.4627695 -1.3003842 2.1182647
v 2.7202508 -0.7956704 1.8114308
v 2.5897307 -1.038506 1.6257513
v 2.8169203 -1.0127687 2.8357549
v 2.756549 -0.41233504 2.5957253
v 2.639599 -0.50897914 1.8383793
v 2.854314 -0.17778826 3.45738
v 2.5558958 -0.56284124 3.7573538
v 2.6986818 0.3247246 3.7250535
v 2.6598957 0.007662177 3.7828712
v 2.4373903 -0.5171349 3.8851023
v 2.324473 0.118593216 4.3855615
v 2.0899837 -0.3515811 4.3296514
v 2.0062568 -0.4190395 5.070307
v 1.6889763 -1.0280036 4.682196
v 1.6058626 -0.86617994 4.1541834
v 1.9399029 -0.58242416 3.5833085
v 2.197822 -0.88580096 2.6420867
v 1.800257 -0.23338874 2.9178212
v 1.7018793 -0.48054555 3.3555598
v 1.9055433 0.39907837 3.3594718
v 1.1689833 -0.46059692 4.0218043
v 1.277811 0.2649293 4.2644486
v 1.3152176 0.37825668 4.675826
v 2.3264945 -1.0498617 2.8053179
v 1.7018793 -0.48054555 3.3555598
v 2.0915902 -0.6930528 3.5599844
v 2.197822 -0.88580096 2.6420867
v 2.3579752 -0.8768209 1.6227931
v 1.8904436 -0.9378215 1.8988438
v 2.2162526 -1.1337982 1.8022048
v 2.0079546 -0.7247467 1.750083
v 2.491995 -0.58405685 1.6524007
v 2.7202508 -0.7956704 1.8114308
v 2.1123466 -0.45436937 1.9460199
v 0.50815976 2.261242 0.5388145
v 0.8247048 2.1725733 0.42923504
v 0.9121608 2.3077478 0.45235395
v 1.203323 2.1396904 0.4254946
v 1.4208547 2.2480726 0.5710602
v 2.2162526 -1.1337982 1.8022048
v 1.8904436 -0.9378215 1.8988438
v 1.7656531 -0.87491494 2.3557389
v 2.0657496 -1.0579302 2.3532403
v 0.9121608 2.3077478 0.45235395
v 0.45456225 2.1262598 0.7099601
v 0.50815976 2.261242 0.5388145
v 1.2043799 2.0647984 1.068945
v 1.4208547 2.2480726 0.5710602
v 0.6155508 1.9843568 1.2447823
v 1.6101985 2.1156068 0.80143416
v 0.74744016 1.8398544 1.8338604
v 1.0861804 1.8053557 1.7860446
v 0.8224303 1.0401118 0.9316454
v 0.9804465 1.3250856 0.9600879
v 0.45456225 2.1262598 0.7099601
v 1.3457621 -0.045134187 1.1914929
v 1.200487 1.3400208 1.3012351
v 0.844637 -0.10115337 1.0443704
v 0.44084468 -0.07100618 1.1198993
v 0.28140688 -0.4156192 1.7982174
v 1.0297067 -0.47348237 1.8245625
v 1.2528934 -0.36797643 1.8702362
v 1.2006779 -0.51093143 2.2215436
v 0.8199594 -0.6950054 2.2261937
v 0.829245 -0.5270528 1.7982322
v 0.50815976 2.261242 0.5388145
v 0.45456225 2.1262598 0.7099601
v 0.8247048 2.1725733 0.42923504
v 0.9804465 1.3250856 0.9600879
v 1.203323 2.1396904 0.4254946
v 1.6101985 2.1156068 0.80143416
v 1.200487 1.3400208 1.3012351
v 1.4208547 2.2480726 0.5710602
v 1.0328767 0.54118323 1.86127
v 0.5375233 1.0194827 2.1384134
v 0.30025953 0.38101298 1.6900735
v 0.2513657 0.3666824 1.7764988
v 0.5262153 1.0872004 2.0995443
v 0.0011617324 1.0825932 2.4118292
v 1.1461844 1.0460862 2.7485623
v 1.19289 1.0982065 2.7677755
v 0.5262153 1.0872004 2.0995443
v 0.5375233 1.0194827 2.1384134
v 0.03675659 0.85226506 3.7974803
v 0.03804334 0.89979684 3.825157
v 0.8091004 0.8366628 3.7618334
v 0.7859885 0.7971475 3.7357638
v 1.1570102 0.5349471 3.7112296
v 1.1000172 0.5193465 3.7009428
v 1.215399 -0.21887994 3.3988676
v 1.1471148 -0.19185913 3.395763
v 0.8246099 -1.0273006 2.5497065
v 0.7685927 -0.97839606 2.5730708
v 1.1492526E-05 -1.2817383 2.4623675
v 1.14764935E-05 -1.2205243 2.4906654
v 1.6058626 -0.86617994 4.1541834
v 1.0923108 -1.0319118 4.389632
v 1.6889763 -1.0280036 4.682196
v 1.1689833 -0.46059692 4.0218043
v 1.5368638 -0.5877371 3.657079
v 1.7018793 -0.48054555 3.3555598
v 1.9399029 -0.58242416 3.5833085
v 1.7018793 -0.48054555 3.3555598
v 1.9399029 -0.58242416 3.5833085
v 2.0915902 -0.6930528 3.5599844
v 2.5558958 -0.56284124 3.7573538
v 2.4373903 -0.5171349 3.8851023
v 2.0899837 -0.3515811 4.3296514
v 2.8169203 -1.0127687 2.8357549
v 2.3264945 -1.0498617 2.8053179
v 2.351273 -0.45212692 2.4994557
v 1.800257 -0.23338874 2.9178212
v 2.197822 -0.88580096 2.6420867
v 1.9055433 0.39907837 3.3594718
v 1.2917267 -0.13775563 2.7425425
v 1.19289 1.0982065 2.7677755
v 1.1461844 1.0460862 2.7485623
v 1.3577607 -0.13988662 2.7452123
v 0.8199594 -0.6950054 2.2261937
v 0.8738162 -0.76266074 2.11116
v 0.28140688 -0.4156192 1.7982174
v 0.28287938 -0.8175896 1.6571511
v 0.21703851 -0.3935645 1.7927415
v 0.18536437 -0.43639672 1.7902691
v -1.0052372E-06 -0.47948512 1.7752105
v -1.4645411E-07 -0.7794623 1.6696115
v -3.5023604E-06 0.3438573 2.023087
v 0.54167426 -1.1674656 4.682001
v 0.41509047 -1.5792894 5.3042903
v 0.50500154 -1.1435182 5.5041223
v 0.5240696 -1.2958694 4.5544415
v 0.55131215 -1.1584886 4.453341
v 0.66132444 -1.7562768 4.255131
v 0.49525332 -1.8107305 5.270825
v 0.5947289 -1.7012002 4.383517
v 0.47853625 -1.7755799 4.722934
v 0.43566453 -1.9884281 4.898465
v 0.37338248 -2.0996144 5.111402
v 0.5075094 -1.7326953 4.5308285
v 0.2226841 -2.0010018 4.6131406
v 0.34013873 -1.9752083 4.432733
v 0.3835901 -2.0117357 4.2664886
v 0.3835901 -2.0117357 4.2664886
v 0.5947289 -1.7012002 4.383517
v 0.66132444 -1.7562768 4.255131
v 0.3847749 -2.058837 4.1601934
v 7.317227E-06 -2.0487852 4.2391744
v 6.7216715E-06 -2.0995278 4.1031213
v 7.935014E-06 -2.0229433 4.4567432
v 0.34013873 -1.9752083 4.432733
v 0.2226841 -2.0010018 4.6131406
v 0.66132444 -1.7562768 4.255131
v -0.00033135395 -1.6777045 3.9664578
v 0.3847749 -2.058837 4.1601934
v 0.27062637 -1.4006478 4.2007375
v 0.55131215 -1.1584886 4.453341
v -0.0028946693 -1.2523134 4.122913
v 0.2728431 -1.2004707 4.2895246
v 1.1570102 0.5349471 3.7112296
v 1.19289 1.0982065 2.7677755
v 1.3577607 -0.13988662 2.7452123
v 1.215399 -0.21887994 3.3988676
v 0.8246099 -1.0273006 2.5497065
v 0.8738162 -0.76266074 2.11116
v 0.792643 -0.9936761 2.0682812
v 0.760619 -0.8475713 1.5991476
v 0.8091004 0.8366628 3.7618334
v 1.19289 1.0982065 2.7677755
v 1.1570102 0.5349471 3.7112296
v 0.49894652 1.3480254 2.8615491
v 0.5262153 1.0872004 2.0995443
v 0.0011617324 1.0825932 2.4118292
v 0.026404452 1.224215 3.2894578
v 0.03804334 0.89979684 3.825157
v 0.8246099 -1.0273006 2.5497065
v 3.5211706E-06 -1.1361814 1.8067337
v 1.1492526E-05 -1.2817383 2.4623675
v 0.792643 -0.9936761 2.0682812
v 0.6341058 -1.00673 1.6015477
v 0.760619 -0.8475713 1.5991476
v -1.3704939E-06 -0.9424788 1.4163457
v 0.052183293 -0.6928077 1.1147652
v -6.578306E-06 -0.68888104 1.0962673
v -1.4645411E-07 -0.7794623 1.6696115
v -6.578306E-06 -0.68888104 1.0962673
v 0.052183293 -0.6928077 1.1147652
v 0.28287938 -0.8175896 1.6571511
v 0.760619 -0.8475713 1.5991476
v 0.8738162 -0.76266074 2.11116
v 1.8904436 -0.9378215 1.8988438
v 2.0079546 -0.7247467 1.750083
v 1.7656531 -0.87491494 2.3557389
v 2.086682 -0.43177688 2.2998126
v 2.1123466 -0.45436937 1.9460199
v 2.0657496 -1.0579302 2.3532403
v 1.7656531 -0.87491494 2.3557389
v 2.086682 -0.43177688 2.2998126
v 2.351273 -0.45212692 2.4994557
v 0.00549441 -1.2248616 5.4606194
v 0.50500154 -1.1435182 5.5041223
v 0.41509047 -1.5792894 5.3042903
v 7.913837E-06 -1.6074173 5.452048
v 0.27355206 -1.9113982 5.3948617
v 9.260009E-06 -2.0405047 5.3946757
v 0.49525332 -1.8107305 5.270825
v 9.4524E-06 -2.2237213 5.139858
v 0.37338248 -2.0996144 5.111402
v -2.0861273 -0.9494791 2.3197362
v -2.200354 -0.96712434 1.7552117
v -2.0967174 -1.0207497 2.0333622
v -2.0698137 -1.0557214 2.1327705
v -2.1126 -1.1417751 2.1860044
v -2.3761854 -0.8885663 2.7493682
v -2.1958885 -0.7581532 2.6058323
v -2.2208476 -0.29543203 2.474569
v -1.1645533 0.4794234 4.5289383
v -1.1429461 0.4046741 4.0985556
v -0.82191825 0.7492976 4.5360856
v -0.88186884 -0.18638325 5.402673
v -1.6651869 0.15283 5.1307893
v -1.4902713 -0.2413913 5.379255
v -1.644006 0.53355503 4.4608116
v -1.6757048 0.39663067 3.335763
v -0.36238438 0.27630734 5.3067665
v 0.055641267 0.10671067 5.5205
v 0.03816896 -0.32148528 5.7985115
v 0.075353295 0.49405658 5.118964
v 0.060931213 0.87824905 4.3745184
v -0.7354731 1.1181362 3.2610912
v -1.0419079 0.94473314 3.234998
v 0.03675659 0.85226506 3.7974803
v -2.1260066 0.43961272 3.1671565
v -2.6098113 -0.15578115 2.5401773
v -2.2208476 -0.29543203 2.474569
v -2.4661903 0.517782 3.6875901
v -2.158006 0.25990117 4.3534946
v -1.9507768 -0.29248583 5.059604
v -2.4530184 -0.2558974 1.7905223
v -2.3130286 -0.36063674 1.6131973
v -2.600904 -0.5112542 1.7420917
v -1.9411395 -0.34199122 1.9426126
v -1.9427664 -0.33764845 2.2980232
v -1.1601672 -1.094896 4.407501
v -0.9658442 -0.8896667 3.7100024
v -1.1562233 -0.43737447 3.995347
v -0.9250107 -0.5575882 3.6308603
v -1.1311584 0.21238998 3.303019
v -0.7697093 -0.5154461 3.0619264
v -1.1429461 0.4046741 4.0985556
v -1.0419079 0.94473314 3.234998
v -0.82191825 0.7492976 4.5360856
v -0.61006147 -0.75392985 -0.2043187
v -0.59083647 -0.36015972 0.3963284
v -0.74027586 -0.11926758 -0.23950239
v -0.4518339 -1.3023949 -0.09166451
v -0.81999695 -0.9601438 0.66819686
v -0.2663943 -0.632319 1.0321331
v -0.67884445 -0.06006682 1.148244
v -0.44096562 -0.9124436 1.6016042
v -0.28729814 -0.3901875 1.3913392
v -0.3004596 -0.12043893 1.576683
v -0.28143218 -0.51323307 1.97118
v -0.21705584 -0.49120957 1.9504038
v -0.25153223 -0.024408698 1.6512364
v -3.5023604E-06 0.3438573 2.023087
v 0.0011617324 1.0825932 2.4118292
v -0.18537368 -0.52735305 1.9545462
v -0.5030391 -0.9212022 3.5600667
v -0.60168725 -1.3321513 3.7471209
v 4.529702E-06 -1.1602798 3.60351
v -0.9658442 -0.8896667 3.7100024
v -1.1601672 -1.094896 4.407501
v -0.9250107 -0.5575882 3.6308603
v -0.7697093 -0.5154461 3.0619264
v -0.011152494 -1.186793 3.359391
v 1.14764935E-05 -1.2205243 2.4906654
v -1.0793239 -0.15632963 -0.1930102
v -1.1967816 -0.6066792 0.3779864
v -1.6066415 -1.2118899 -0.15009311
v -1.0086753 -0.22624317 0.53107625
v -1.3281866 -0.258794 1.1707406
v -1.3459302 -0.89453006 1.687544
v -1.3312447 -0.11105859 1.9269869
v -1.0331316 0.056702256 1.5410454
v -1.1216041 1.0495942 2.1365364
v -1.2835016 0.21695125 2.6829221
v -1.325949 -0.3438971 2.1435816
v -1.2529045 -0.5105654 2.2749124
v -1.2006446 -0.3330716 2.5777001
v -1.0331316 0.056702256 1.5410454
v -0.67884445 -0.06006682 1.148244
v -0.3004596 -0.12043893 1.576683
v -1.3281866 -0.258794 1.1707406
v -1.0086753 -0.22624317 0.53107625
v -0.59083647 -0.36015972 0.3963284
v -0.74027586 -0.11926758 -0.23950239
v -1.0793239 -0.15632963 -0.1930102
v -1.4902713 -0.2413913 5.379255
v -1.9507768 -0.29248583 5.059604
v -1.6651869 0.15283 5.1307893
v -1.644006 0.53355503 4.4608116
v -0.2226672 -2.0010018 4.6131406
v 8.246724E-06 -2.1716297 4.537422
v 7.935014E-06 -2.0229433 4.4567432
v -0.22612311 -2.0324254 4.903394
v 9.4524E-06 -2.2237213 5.139858
v -0.37336352 -2.0996141 5.1114025
v -0.43564665 -1.9884281 4.8984656
v -0.47852033 -1.7755795 4.7229342
v -1.0147322 -0.90027523 5.2867045
v 0.011879404 -1.0690217 5.6629
v -0.5077527 -1.1509639 5.5045943
v -0.88186884 -0.18638325 5.402673
v 0.03816896 -0.32148528 5.7985115
v -1.0147322 -0.90027523 5.2867045
v -1.4902713 -0.2413913 5.379255
v -0.88186884 -0.18638325 5.402673
v -1.9507768 -0.29248583 5.059604
v -1.7642365 -0.9697262 4.7086725
v -0.8753512 -1.1238706 5.027782
v -0.5077527 -1.1509639 5.5045943
v -0.54710484 -1.1807747 4.6830034
v -1.1601672 -1.094896 4.407501
v -0.5593691 -1.1779908 4.454839
v -0.60168725 -1.3321513 3.7471209
v -0.35901845 -1.1669598 4.1565146
v -0.27827832 -1.217315 4.290344
v 4.529702E-06 -1.1602798 3.60351
v -0.0028946693 -1.2523134 4.122913
v -2.3761854 -0.8885663 2.7493682
v -2.5086403 -1.0743849 2.0413415
v -2.8418736 -0.7276094 2.742512
v -2.1126 -1.1417751 2.1860044
v -2.0967174 -1.0207497 2.0333622
v -2.200354 -0.96712434 1.7552117
v -2.2554622 -0.6769592 1.5789204
v -2.519908 -0.77365017 1.5548233
v -2.5086403 -1.0743849 2.0413415
v -2.519908 -0.77365017 1.5548233
v -2.600904 -0.5112542 1.7420917
v -2.8418736 -0.7276094 2.742512
v -2.6098113 -0.15578115 2.5401773
v -2.4530184 -0.2558974 1.7905223
v -2.724764 0.06445861 3.4101114
v -2.547342 -0.38954175 3.7351267
v -2.4661903 0.517782 3.6875901
v -2.5069737 0.19721773 3.7542806
v -2.4153316 -0.3654276 3.8778055
v -2.158006 0.25990117 4.3534946
v -2.0285988 -0.24841845 4.3184066
v -1.9507768 -0.29248583 5.059604
v -1.7642365 -0.9697262 4.7086725
v -1.6633773 -0.85955155 4.172448
v -1.9428246 -0.55111426 3.5852015
v -2.1958885 -0.7581532 2.6058323
v -1.6840179 -0.5167619 3.3702035
v -1.682418 -0.2428427 2.9354327
v -1.6757048 0.39663067 3.335763
v -1.1562233 -0.43737447 3.995347
v -1.1429461 0.4046741 4.0985556
v -1.1645533 0.4794234 4.5289383
v -2.3761854 -0.8885663 2.7493682
v -2.12803 -0.6291573 3.5420694
v -1.6840179 -0.5167619 3.3702035
v -2.1958885 -0.7581532 2.6058323
v -2.2554622 -0.6769592 1.5789204
v -2.200354 -0.96712434 1.7552117
v -1.8456635 -0.8645509 1.8877656
v -1.8913567 -0.6239583 1.741592
v -2.3130286 -0.36063674 1.6131973
v -2.600904 -0.5112542 1.7420917
v -1.9411395 -0.34199122 1.9426126
v -0.506072 -1.5147263 -0.13589934
v -0.91043013 -1.6112211 -0.14209539
v -0.823492 -1.5734289 -0.009926483
v -1.2020266 -1.5641329 0.005768284
v -1.4183472 -1.4774562 -0.16094045
v -2.200354 -0.96712434 1.7552117
v -2.0861273 -0.9494791 2.3197362
v -1.7509515 -0.8499203 2.3558452
v -1.8456635 -0.8645509 1.8877656
v -0.91043013 -1.6112211 -0.14209539
v -0.506072 -1.5147263 -0.13589934
v -0.4518339 -1.3023949 -0.09166451
v -1.1996547 -0.9477631 -0.20338193
v -1.4183472 -1.4774562 -0.16094045
v -0.61006147 -0.75392985 -0.2043187
v -1.6066415 -1.2118899 -0.15009311
v -0.74027586 -0.11926758 -0.23950239
v -1.0793239 -0.15632963 -0.1930102
v -0.81999695 -0.9601438 0.66819686
v -0.4518339 -1.3023949 -0.09166451
v -0.97712755 -0.93404436 0.42536455
v -1.3459302 -0.89453006 1.687544
v -1.1967816 -0.6066792 0.3779864
v -0.8447445 -1.0621423 1.6573786
v -0.44096562 -0.9124436 1.6016042
v -0.28143218 -0.51323307 1.97118
v -1.0297153 -0.6088478 2.3100653
v -1.2529045 -0.5105654 2.2749124
v -1.2006446 -0.3330716 2.5777001
v -0.8199218 -0.49601555 2.6554399
v -0.82925314 -0.66094136 2.2948089
v -0.506072 -1.5147263 -0.13589934
v -0.823492 -1.5734289 -0.009926483
v -0.4518339 -1.3023949 -0.09166451
v -0.97712755 -0.93404436 0.42536455
v -1.2020266 -1.5641329 0.005768284
v -1.6066415 -1.2118899 -0.15009311
v -1.1967816 -0.6066792 0.3779864
v -1.4183472 -1.4774562 -0.16094045
v -1.0331316 0.056702256 1.5410454
v -0.3004596 -0.12043893 1.576683
v -0.53760934 0.80658907 1.6609358
v -0.25153223 -0.024408698 1.6512364
v -0.5262843 0.85311973 1.6204208
v 0.0011617324 1.0825932 2.4118292
v -1.1216041 1.0495942 2.1365364
v -0.53760934 0.80658907 1.6609358
v -0.5262843 0.85311973 1.6204208
v -1.1659287 1.0978341 2.134284
v 0.03675659 0.85226506 3.7974803
v -0.76061463 1.2010524 3.2146485
v 0.03804334 0.89979684 3.825157
v -0.7354731 1.1181362 3.2610912
v -1.1053449 1.0018904 3.201794
v -1.0419079 0.94473314 3.234998
v -1.2015185 0.24819282 3.2982764
v -1.1311584 0.21238998 3.303019
v -0.8255327 -0.55191016 3.0793102
v -0.7697093 -0.5154461 3.0619264
v 1.1492526E-05 -1.2817383 2.4623675
v 1.14764935E-05 -1.2205243 2.4906654
v -1.6633773 -0.85955155 4.172448
v -1.7642365 -0.9697262 4.7086725
v -1.1601672 -1.094896 4.407501
v -1.1562233 -0.43737447 3.995347
v -1.553823 -0.64388084 3.6645997
v -1.6840179 -0.5167619 3.3702035
v -1.9428246 -0.55111426 3.5852015
v -1.6840179 -0.5167619 3.3702035
v -2.12803 -0.6291573 3.5420694
v -1.9428246 -0.55111426 3.5852015
v -2.547342 -0.38954175 3.7351267
v -2.4153316 -0.3654276 3.8778055
v -2.0285988 -0.24841845 4.3184066
v -2.8418736 -0.7276094 2.742512
v -2.3761854 -0.8885663 2.7493682
v -2.2208476 -0.29543203 2.474569
v -2.1958885 -0.7581532 2.6058323
v -1.682418 -0.2428427 2.9354327
v -1.6757048 0.39663067 3.335763
v -1.2835016 0.21695125 2.6829221
v -1.1216041 1.0495942 2.1365364
v -1.1659287 1.0978341 2.134284
v -1.3486573 0.20394695 2.6935728
v -0.8199218 -0.49601555 2.6554399
v -0.8737894 -0.64241314 2.563388
v -0.28143218 -0.51323307 1.97118
v -0.28288627 -0.9175285 2.0025806
v -0.21705584 -0.49120957 1.9504038
v -0.18537368 -0.52735305 1.9545462
v -1.0052372E-06 -0.47948512 1.7752105
v -1.4645411E-07 -0.7794623 1.6696115
v -3.5023604E-06 0.3438573 2.023087
v -0.54710484 -1.1807747 4.6830034
v -0.5077527 -1.1509639 5.5045943
v -0.41977963 -1.5837027 5.3055263
v -0.52968454 -1.3068745 4.555622
v -0.5593691 -1.1779908 4.454839
v -0.6647901 -1.7599759 4.2560225
v -0.49523556 -1.8107302 5.270825
v -0.59537274 -1.7019658 4.3836823
v -0.47852033 -1.7755795 4.7229342
v -0.43564665 -1.9884281 4.8984656
v -0.37336352 -2.0996141 5.1114025
v -0.50800616 -1.7332861 4.5309577
v -0.2226672 -2.0010018 4.6131406
v -0.34012282 -1.9752083 4.432733
v -0.38357502 -2.0117357 4.266489
v -0.38357502 -2.0117357 4.266489
v -0.6647901 -1.7599759 4.2560225
v -0.59537274 -1.7019658 4.3836823
v -0.38476077 -2.0588367 4.1601934
v 7.317227E-06 -2.0487852 4.2391744
v 6.7216715E-06 -2.0995278 4.1031213
v 7.935014E-06 -2.0229433 4.4567432
v -0.34012282 -1.9752083 4.432733
v -0.2226672 -2.0010018 4.6131406
v -0.6647901 -1.7599759 4.2560225
v -0.38476077 -2.0588367 4.1601934
v -0.00033135395 -1.6777045 3.9664578
v -0.2772062 -1.415347 4.202026
v -0.5593691 -1.1779908 4.454839
v -0.0028946693 -1.2523134 4.122913
v -0.27827832 -1.217315 4.290344
v -1.1053449 1.0018904 3.201794
v -1.3486573 0.20394695 2.6935728
v -1.1659287 1.0978341 2.134284
v -1.2015185 0.24819282 3.2982764
v -0.8255327 -0.55191016 3.0793102
v -0.8737894 -0.64241314 2.563388
v -0.7926121 -0.85665816 2.6090367
v -0.7606271 -0.97056705 2.0459778
v -0.76061463 1.2010524 3.2146485
v -1.1053449 1.0018904 3.201794
v -1.1659287 1.0978341 2.134284
v -0.47555247 1.3381166 2.1274974
v -0.5262843 0.85311973 1.6204208
v 0.0011617324 1.0825932 2.4118292
v 0.026404452 1.224215 3.2894578
v 0.03804334 0.89979684 3.825157
v -0.8255327 -0.55191016 3.0793102
v 1.1492526E-05 -1.2817383 2.4623675
v 3.5211706E-06 -1.1361814 1.8067337
v -0.7926121 -0.85665816 2.6090367
v -0.6341085 -1.099103 2.102529
v -0.7606271 -0.97056705 2.0459778
v -1.3704939E-06 -0.9424788 1.4163457
v -0.052215666 -0.97283614 1.4685782
v -6.578306E-06 -0.68888104 1.0962673
v -1.4645411E-07 -0.7794623 1.6696115
v -0.052215666 -0.97283614 1.4685782
v -6.578306E-06 -0.68888104 1.0962673
v -0.28288627 -0.9175285 2.0025806
v -0.7606271 -0.97056705 2.0459778
v -0.8737894 -0.64241314 2.563388
v -1.8456635 -0.8645509 1.8877656
v -1.7509515 -0.8499203 2.3558452
v -1.8913567 -0.6239583 1.741592
v -1.9427664 -0.33764845 2.2980232
v -1.9411395 -0.34199122 1.9426126
v -2.0861273 -0.9494791 2.3197362
v -2.2208476 -0.29543203 2.474569
v -1.9427664 -0.33764845 2.2980232
v -1.7509515 -0.8499203 2.3558452
v 0.00549441 -1.2248616 5.4606194
v -0.41977963 -1.5837027 5.3055263
v -0.5077527 -1.1509639 5.5045943
v 7.913837E-06 -1.6074173 5.452048
v -0.273533 -1.9113979 5.394862
v 9.260009E-06 -2.0405047 5.3946757
v -0.49523556 -1.8107302 5.270825
v 9.4524E-06 -2.2237213 5.139858
v -0.37336352 -2.0996141 5.1114025
vt 0.76092815 0.8767158
vt 0.7174094 0.91054726
vt 0.76092815 0.95057213
vt 0.38543808 0.96915483
vt 0.38543808 0.8693485
vt 0.32501337 0.9344189
vt 0.40212393 0.7568116
vt 0.42906108 0.79320693
vt 0.42906108 0.6946838
vt 0.64721847 0.83391285
vt 0.6187177 0.852685
vt 0.64721847 0.8863988
vt 0.40864563 0.8004855
vt 0.40212417 0.8554132
vt 0.4314282 0.8554132
vt 0.8731629 0.288234
vt 0.85169375 0.31012797
vt 0.8731629 0.33410096
vt 0.76092815 0.8767158
vt 0.76092815 0.95057213
vt 0.7174094 0.91054726
vt 0.38543808 0.96915483
vt 0.32501337 0.9344189
vt 0.38543808 0.8693485
vt 0.40212393 0.7568116
vt 0.42906108 0.6946838
vt 0.42906108 0.79320693
vt 0.64721847 0.83391285
vt 0.64721847 0.8863988
vt 0.6187177 0.852685
vt 0.40864563 0.8004855
vt 0.4314282 0.8554132
vt 0.40212417 0.8554132
vt 0.8731629 0.288234
vt 0.8731629 0.33410096
vt 0.85169375 0.31012797
vt 0.93716276 0.87058735
vt 0.95343685 0.89970946
vt 0.9799932 0.91859293
vt 0.9427136 0.89419115
vt 0.93181825 0.89648974
vt 0.911044 0.8307359
vt 0.9316137 0.83232665
vt 0.9799932 0.80742836
vt 0.10851145 0.33349717
vt 0.13080215 0.36262
vt 0.1400299 0.3113687
vt 0.035931587 0.41149533
vt 0.024571896 0.32702982
vt 0.0050616264 0.3596238
vt 0.08769798 0.28441465
vt 0.17019081 0.20653963
vt 0.08456516 0.4494164
vt 0.083266735 0.49250197
vt 0.042717457 0.51571035
vt 0.13373709 0.4635235
vt 0.21156597 0.41879463
vt 0.21291876 0.3210987
vt 0.19684744 0.2890222
vt 0.25440502 0.39410865
vt 0.13946295 0.16356409
vt 0.15124083 0.07156634
vt 0.19101858 0.09412408
vt 0.07759905 0.16957974
vt 0.05247307 0.23621142
vt 0.0036392212 0.30024278
vt 0.2229681 0.026929379
vt 0.25050545 0.022252083
vt 0.22280836 0.003639102
vt 0.25440502 0.07686579
vt 0.22743464 0.10261488
vt 0.45856917 0.6098685
vt 0.5120082 0.5537622
vt 0.43986475 0.5376189
vt 0.46678388 0.51993704
vt 0.5374718 0.47976518
vt 0.45610917 0.3930211
vt 0.59933805 0.57066965
vt 0.62368786 0.5123229
vt 0.6481185 0.6098685
vt 0.3537655 0.6874056
vt 0.42488575 0.6800592
vt 0.38486463 0.61382914
vt 0.2900216 0.68542314
vt 0.31718183 0.60575175
vt 0.3473574 0.54210377
vt 0.40935624 0.5075567
vt 0.2854784 0.5194292
vt 0.35032767 0.4909482
vt 0.35219908 0.45871925
vt 0.26393032 0.45060992
vt 0.26645523 0.44946337
vt 0.35109514 0.4470091
vt 0.34671634 0.4100144
vt 0.4248857 0.36387968
vt 0.26168346 0.44962025
vt 0.8411019 0.7899053
vt 0.7838191 0.78166175
vt 0.83817935 0.8318331
vt 0.89320564 0.81448936
vt 0.9037658 0.86935806
vt 0.9019189 0.7845733
vt 0.9037658 0.6827538
vt 0.7884561 0.7465446
vt 0.81633425 0.6499436
vt 0.43258637 0.032122433
vt 0.31396526 0.0036391318
vt 0.37069082 0.083407134
vt 0.4106114 0.110140175
vt 0.3962828 0.1806409
vt 0.2999698 0.19097976
vt 0.33613086 0.27186844
vt 0.38626117 0.26024532
vt 0.43258643 0.35557207
vt 0.2993983 0.3566014
vt 0.29970932 0.26645625
vt 0.2754557 0.26274022
vt 0.26168334 0.30305636
vt 0.16784751 0.7458852
vt 0.25242734 0.74616045
vt 0.21857738 0.7013248
vt 0.15136826 0.6648097
vt 0.20250392 0.599566
vt 0.25242734 0.59194356
vt 0.24932039 0.52717614
vt 0.21102023 0.5229885
vt 0.39318585 0.8693485
vt 0.3927164 0.9197998
vt 0.42848969 0.88240623
vt 0.42848969 0.9918647
vt 0.83725333 0.6245022
vt 0.8650172 0.6323495
vt 0.8650451 0.6158414
vt 0.83196056 0.59984875
vt 0.8545023 0.56402636
vt 0.8123895 0.57854414
vt 0.80810034 0.60399294
vt 0.8041513 0.6323495
vt 0.843976 0.89337015
vt 0.8063984 0.87663627
vt 0.7838192 0.8929435
vt 0.843976 0.9753927
vt 0.7871585 0.9748901
vt 0.6933649 0.052872658
vt 0.72706753 0.015985489
vt 0.6669389 0.0036392212
vt 0.6074452 0.014723778
vt 0.59009033 0.09092951
vt 0.6934568 0.09343052
vt 0.74957585 0.05772066
vt 0.7141083 0.138731
vt 0.63362813 0.15272665
vt 0.70400053 0.16181803
vt 0.66698974 0.2426033
vt 0.7129891 0.20186234
vt 0.72678816 0.19093657
vt 0.7296377 0.2760334
vt 0.7495758 0.22005558
vt 0.55891633 0.9662305
vt 0.61143947 0.9757911
vt 0.5922339 0.9015738
vt 0.5442295 0.9060155
vt 0.54845953 0.88612115
vt 0.56860304 0.8587924
vt 0.58318543 0.83391297
vt 0.61143947 0.8425299
vt 0.58281195 0.34121418
vt 0.51290727 0.3570695
vt 0.53652984 0.38574266
vt 0.5640419 0.2506776
vt 0.49579954 0.26056576
vt 0.48622772 0.3470602
vt 0.49326953 0.16512108
vt 0.54634494 0.1373272
vt 0.43986475 0.1499219
vt 0.47888508 0.13418627
vt 0.53810287 0.12372589
vt 0.45689094 0.08685875
vt 0.5121323 0.08250618
vt 0.49097848 0.0036392212
vt 0.57778907 0.02139616
vt 0.58281195 0.084019184
vt 0.56546235 0.15651321
vt 0.7765409 0.6499436
vt 0.7361802 0.69964933
vt 0.77622354 0.7437546
vt 0.67653656 0.7371383
vt 0.77654094 0.8337269
vt 0.6879344 0.8361132
vt 0.6553969 0.86943746
vt 0.70291305 0.8868731
vt 0.65539694 0.971077
vt 0.71013117 0.971077
vt 0.67677927 0.8767158
vt 0.8090407 0.32149696
vt 0.84102654 0.36681628
vt 0.84441555 0.3240695
vt 0.8116953 0.36468315
vt 0.7733887 0.3215344
vt 0.7866004 0.288234
vt 0.7821007 0.36681628
vt 0.14011115 0.8014283
vt 0.12317091 0.8358741
vt 0.1353504 0.8443204
vt 0.12005818 0.878158
vt 0.14011115 0.9034114
vt 0.9476197 0.92587113
vt 0.9110441 0.9448347
vt 0.9110441 0.99636084
vt 0.9476197 0.98801386
vt 0.87031114 0.39302105
vt 0.9275825 0.415932
vt 0.9168987 0.39369053
vt 0.856012 0.4729281
vt 0.8182663 0.42019266
vt 0.9253888 0.4796664
vt 0.8041513 0.45412713
vt 0.9275825 0.55208296
vt 0.8889886 0.5567482
vt 0.8193766 0.21626759
vt 0.8036128 0.23882651
vt 0.873227 0.2804551
vt 0.75685394 0.12812448
vt 0.773309 0.25874615
vt 0.8158251 0.13588381
vt 0.85866606 0.13524365
vt 0.873227 0.06848431
vt 0.791224 0.053290367
vt 0.7641256 0.055696964
vt 0.7682109 0.015006065
vt 0.8140278 0.0036392212
vt 0.81470394 0.053386927
vt 0.5175346 0.97618496
vt 0.5369512 0.9629216
vt 0.4913391 0.9509202
vt 0.5369512 0.8692274
vt 0.45981216 0.9219352
vt 0.44022834 0.8757967
vt 0.53517056 0.83391285
vt 0.43986475 0.90867615
vt 0.5900903 0.28797352
vt 0.62745833 0.35935897
vt 0.6769434 0.28331167
vt 0.68067384 0.28600973
vt 0.62803996 0.36523026
vt 0.68067384 0.38036174
vt 0.6286705 0.7095578
vt 0.6337411 0.7133043
vt 0.6337411 0.6171466
vt 0.6284676 0.62174
vt 0.14408994 0.5304086
vt 0.14407027 0.52298856
vt 0.0575552 0.5249157
vt 0.060165763 0.5318036
vt 0.017217755 0.5475795
vt 0.024039268 0.5512183
vt 0.003639102 0.62869143
vt 0.011310577 0.6288619
vt 0.050047874 0.75683355
vt 0.05604267 0.75208044
vt 0.14408994 0.7941501
vt 0.14408052 0.7870438
vt 0.94373345 0.29501605
vt 0.89322567 0.34452772
vt 0.9636524 0.34466767
vt 0.8805053 0.26835656
vt 0.92145467 0.23793936
vt 0.93056273 0.19030094
vt 0.9636524 0.2190423
vt 0.15136838 0.8828293
vt 0.18459916 0.8790581
vt 0.18772888 0.8523823
vt 0.249897 0.8515595
vt 0.24964237 0.87351906
vt 0.249897 0.9400712
vt 0.22085428 0.7534387
vt 0.17005515 0.7760277
vt 0.9802589 0.48951614
vt 0.93486077 0.43969166
vt 0.9363083 0.52018106
vt 0.9802589 0.393021
vt 0.6138434 0.7517505
vt 0.6211893 0.6171466
vt 0.6151098 0.6220794
vt 0.6211893 0.7543088
vt 0.5424597 0.81211025
vt 0.5444716 0.8262756
vt 0.48040593 0.77715325
vt 0.47013938 0.8266345
vt 0.47360125 0.7733006
vt 0.46921778 0.7773157
vt 0.44773105 0.77827287
vt 0.43986472 0.8160236
vt 0.46746588 0.6835647
vt 0.030359745 0.847517
vt 0.112780094 0.868281
vt 0.112780094 0.8014283
vt 0.022153854 0.86572623
vt 0.0068712234 0.8606516
vt 0.0036392212 0.9245527
vt 0.111730576 0.8989171
vt 0.014655113 0.9122443
vt 0.053132057 0.90880775
vt 0.07515764 0.92811567
vt 0.09974432 0.9358761
vt 0.032277107 0.9102699
vt 0.04845476 0.93554854
vt 0.028409481 0.9385146
vt 0.012401581 0.948142
vt 0.88494706 0.9226029
vt 0.8577864 0.9509256
vt 0.87466 0.9560555
vt 0.8970885 0.9206567
vt 0.882169 0.87921387
vt 0.8970885 0.87663627
vt 0.86154366 0.8830234
vt 0.86712503 0.92085326
vt 0.8512542 0.9104985
vt 0.7661104 0.35277665
vt 0.68795204 0.34717986
vt 0.7285374 0.3803617
vt 0.72703123 0.3177069
vt 0.7661104 0.28823394
vt 0.69608253 0.30455917
vt 0.73109645 0.29639655
vt 0.67792726 0.64156044
vt 0.7968731 0.64266527
vt 0.72660685 0.52130425
vt 0.6553967 0.5478516
vt 0.68288445 0.42728168
vt 0.7479801 0.43047652
vt 0.7372756 0.40265682
vt 0.7968731 0.393021
vt 0.3081553 0.86096895
vt 0.26168334 0.75789654
vt 0.26812422 0.85728633
vt 0.34041262 0.7695457
vt 0.33541918 0.6946839
vt 0.3948456 0.73062575
vt 0.3948456 0.8140665
vt 0.39473712 0.86206996
vt 0.8805054 0.0036392212
vt 0.9801983 0.08590722
vt 0.9801983 0.00670743
vt 0.8874839 0.057162046
vt 0.9081686 0.10700607
vt 0.8906271 0.11667371
vt 0.9782284 0.13529897
vt 0.96848243 0.18069983
vt 0.97430557 0.18302274
vt 0.9110441 0.76331913
vt 0.9639616 0.8001498
vt 0.9656298 0.79412675
vt 0.930436 0.7378639
vt 0.9656298 0.69657063
vt 0.9209312 0.6499436
vt 0.93157876 0.5800752
vt 0.90383935 0.5640264
vt 0.93157876 0.6334191
vt 0.8727588 0.6273424
vt 0.8723235 0.58724254
vt 0.9388571 0.63908076
vt 0.9780266 0.63908076
vt 0.96788716 0.5860343
vt 0.94412255 0.5640266
vt 0.31773514 0.8753247
vt 0.26274544 0.8693483
vt 0.2708798 0.92137074
vt 0.3170637 0.90850973
vt 0.2861817 0.94313264
vt 0.3168773 0.9501102
vt 0.26168346 0.9447961
vt 0.31773514 0.987437
vt 0.27583432 0.9821174
vt 0.93716276 0.87058735
vt 0.9799932 0.91859293
vt 0.95343685 0.89970946
vt 0.9427136 0.89419115
vt 0.93181825 0.89648974
vt 0.911044 0.8307359
vt 0.9316137 0.83232665
vt 0.9799932 0.80742836
vt 0.10851145 0.33349717
vt 0.1400299 0.3113687
vt 0.13080215 0.36262
vt 0.035931587 0.41149533
vt 0.024571896 0.32702982
vt 0.0050616264 0.3596238
vt 0.08769798 0.28441465
vt 0.17019081 0.20653963
vt 0.08456516 0.4494164
vt 0.083266735 0.49250197
vt 0.042717457 0.51571035
vt 0.13373709 0.4635235
vt 0.21156597 0.41879463
vt 0.21291876 0.3210987
vt 0.19684744 0.2890222
vt 0.25440502 0.39410865
vt 0.13946295 0.16356409
vt 0.15124083 0.07156634
vt 0.19101858 0.09412408
vt 0.07759905 0.16957974
vt 0.05247307 0.23621142
vt 0.0036392212 0.30024278
vt 0.2229681 0.026929379
vt 0.25050545 0.022252083
vt 0.22280836 0.003639102
vt 0.25440502 0.07686579
vt 0.22743464 0.10261488
vt 0.45856917 0.6098685
vt 0.43986475 0.5376189
vt 0.5120082 0.5537622
vt 0.46678388 0.51993704
vt 0.5374718 0.47976518
vt 0.45610917 0.3930211
vt 0.59933805 0.57066965
vt 0.62368786 0.5123229
vt 0.6481185 0.6098685
vt 0.3537655 0.6874056
vt 0.38486463 0.61382914
vt 0.42488575 0.6800592
vt 0.2900216 0.68542314
vt 0.31718183 0.60575175
vt 0.3473574 0.54210377
vt 0.40935624 0.5075567
vt 0.2854784 0.5194292
vt 0.35032767 0.4909482
vt 0.35219908 0.45871925
vt 0.26393032 0.45060992
vt 0.26645523 0.44946337
vt 0.35109514 0.4470091
vt 0.34671634 0.4100144
vt 0.4248857 0.36387968
vt 0.26168346 0.44962025
vt 0.8411019 0.7899053
vt 0.83817935 0.8318331
vt 0.7838191 0.78166175
vt 0.89320564 0.81448936
vt 0.9037658 0.86935806
vt 0.9019189 0.7845733
vt 0.9037658 0.6827538
vt 0.7884561 0.7465446
vt 0.81633425 0.6499436
vt 0.43258637 0.032122433
vt 0.37069082 0.083407134
vt 0.31396526 0.0036391318
vt 0.4106114 0.110140175
vt 0.3962828 0.1806409
vt 0.2999698 0.19097976
vt 0.33613086 0.27186844
vt 0.38626117 0.26024532
vt 0.43258643 0.35557207
vt 0.2993983 0.3566014
vt 0.29970932 0.26645625
vt 0.2754557 0.26274022
vt 0.26168334 0.30305636
vt 0.16784751 0.7458852
vt 0.21857738 0.7013248
vt 0.25242734 0.74616045
vt 0.15136826 0.6648097
vt 0.20250392 0.599566
vt 0.25242734 0.59194356
vt 0.24932039 0.52717614
vt 0.21102023 0.5229885
vt 0.39318585 0.8693485
vt 0.42848969 0.88240623
vt 0.3927164 0.9197998
vt 0.42848969 0.9918647
vt 0.83725333 0.6245022
vt 0.8650451 0.6158414
vt 0.8650172 0.6323495
vt 0.83196056 0.59984875
vt 0.8545023 0.56402636
vt 0.8123895 0.57854414
vt 0.80810034 0.60399294
vt 0.8041513 0.6323495
vt 0.843976 0.89337015
vt 0.7838192 0.8929435
vt 0.8063984 0.87663627
vt 0.843976 0.9753927
vt 0.7871585 0.9748901
vt 0.6933649 0.052872658
vt 0.6669389 0.0036392212
vt 0.72706753 0.015985489
vt 0.6074452 0.014723778
vt 0.59009033 0.09092951
vt 0.6934568 0.09343052
vt 0.74957585 0.05772066
vt 0.7141083 0.138731
vt 0.63362813 0.15272665
vt 0.70400053 0.16181803
vt 0.66698974 0.2426033
vt 0.7129891 0.20186234
vt 0.72678816 0.19093657
vt 0.7296377 0.2760334
vt 0.7495758 0.22005558
vt 0.55891633 0.9662305
vt 0.5922339 0.9015738
vt 0.61143947 0.9757911
vt 0.5442295 0.9060155
vt 0.54845953 0.88612115
vt 0.56860304 0.8587924
vt 0.58318543 0.83391297
vt 0.61143947 0.8425299
vt 0.58281195 0.34121418
vt 0.53652984 0.38574266
vt 0.51290727 0.3570695
vt 0.5640419 0.2506776
vt 0.49579954 0.26056576
vt 0.48622772 0.3470602
vt 0.49326953 0.16512108
vt 0.54634494 0.1373272
vt 0.43986475 0.1499219
vt 0.47888508 0.13418627
vt 0.53810287 0.12372589
vt 0.45689094 0.08685875
vt 0.5121323 0.08250618
vt 0.49097848 0.0036392212
vt 0.57778907 0.02139616
vt 0.58281195 0.084019184
vt 0.56546235 0.15651321
vt 0.7765409 0.6499436
vt 0.77622354 0.7437546
vt 0.7361802 0.69964933
vt 0.67653656 0.7371383
vt 0.77654094 0.8337269
vt 0.6879344 0.8361132
vt 0.6553969 0.86943746
vt 0.70291305 0.8868731
vt 0.71013117 0.971077
vt 0.65539694 0.971077
vt 0.67677927 0.8767158
vt 0.8090407 0.32149696
vt 0.84441555 0.3240695
vt 0.84102654 0.36681628
vt 0.8116953 0.36468315
vt 0.7733887 0.3215344
vt 0.7866004 0.288234
vt 0.7821007 0.36681628
vt 0.14011115 0.8014283
vt 0.1353504 0.8443204
vt 0.12317091 0.8358741
vt 0.12005818 0.878158
vt 0.14011115 0.9034114
vt 0.9476197 0.92587113
vt 0.9476197 0.98801386
vt 0.9110441 0.99636084
vt 0.9110441 0.9448347
vt 0.87031114 0.39302105
vt 0.9168987 0.39369053
vt 0.9275825 0.415932
vt 0.856012 0.4729281
vt 0.8182663 0.42019266
vt 0.9253888 0.4796664
vt 0.8041513 0.45412713
vt 0.9275825 0.55208296
vt 0.8889886 0.5567482
vt 0.8193766 0.21626759
vt 0.873227 0.2804551
vt 0.8036128 0.23882651
vt 0.75685394 0.12812448
vt 0.773309 0.25874615
vt 0.8158251 0.13588381
vt 0.85866606 0.13524365
vt 0.873227 0.06848431
vt 0.791224 0.053290367
vt 0.7641256 0.055696964
vt 0.7682109 0.015006065
vt 0.8140278 0.0036392212
vt 0.81470394 0.053386927
vt 0.5175346 0.97618496
vt 0.4913391 0.9509202
vt 0.5369512 0.9629216
vt 0.5369512 0.8692274
vt 0.45981216 0.9219352
vt 0.44022834 0.8757967
vt 0.53517056 0.83391285
vt 0.43986475 0.90867615
vt 0.5900903 0.28797352
vt 0.6769434 0.28331167
vt 0.62745833 0.35935897
vt 0.68067384 0.28600973
vt 0.62803996 0.36523026
vt 0.68067384 0.38036174
vt 0.6286705 0.7095578
vt 0.6284676 0.62174
vt 0.6337411 0.6171466
vt 0.6337411 0.7133043
vt 0.14408994 0.5304086
vt 0.0575552 0.5249157
vt 0.14407027 0.52298856
vt 0.060165763 0.5318036
vt 0.017217755 0.5475795
vt 0.024039268 0.5512183
vt 0.003639102 0.62869143
vt 0.011310577 0.6288619
vt 0.050047874 0.75683355
vt 0.05604267 0.75208044
vt 0.14408994 0.7941501
vt 0.14408052 0.7870438
vt 0.94373345 0.29501605
vt 0.9636524 0.34466767
vt 0.89322567 0.34452772
vt 0.8805053 0.26835656
vt 0.92145467 0.23793936
vt 0.93056273 0.19030094
vt 0.9636524 0.2190423
vt 0.15136838 0.8828293
vt 0.18772888 0.8523823
vt 0.18459916 0.8790581
vt 0.249897 0.8515595
vt 0.24964237 0.87351906
vt 0.249897 0.9400712
vt 0.22085428 0.7534387
vt 0.17005515 0.7760277
vt 0.9802589 0.48951614
vt 0.9363083 0.52018106
vt 0.93486077 0.43969166
vt 0.9802589 0.393021
vt 0.6138434 0.7517505
vt 0.6151098 0.6220794
vt 0.6211893 0.6171466
vt 0.6211893 0.7543088
vt 0.5424597 0.81211025
vt 0.5444716 0.8262756
vt 0.48040593 0.77715325
vt 0.47013938 0.8266345
vt 0.47360125 0.7733006
vt 0.46921778 0.7773157
vt 0.44773105 0.77827287
vt 0.43986472 0.8160236
vt 0.46746588 0.6835647
vt 0.030359745 0.847517
vt 0.112780094 0.8014283
vt 0.112780094 0.868281
vt 0.022153854 0.86572623
vt 0.0068712234 0.8606516
vt 0.0036392212 0.9245527
vt 0.111730576 0.8989171
vt 0.014655113 0.9122443
vt 0.053132057 0.90880775
vt 0.07515764 0.92811567
vt 0.09974432 0.9358761
vt 0.032277107 0.9102699
vt 0.04845476 0.93554854
vt 0.028409481 0.9385146
vt 0.012401581 0.948142
vt 0.88494706 0.9226029
vt 0.87466 0.9560555
vt 0.8577864 0.9509256
vt 0.8970885 0.9206567
vt 0.882169 0.87921387
vt 0.8970885 0.87663627
vt 0.86154366 0.8830234
vt 0.86712503 0.92085326
vt 0.8512542 0.9104985
vt 0.7661104 0.35277665
vt 0.7285374 0.3803617
vt 0.68795204 0.34717986
vt 0.72703123 0.3177069
vt 0.7661104 0.28823394
vt 0.69608253 0.30455917
vt 0.73109645 0.29639655
vt 0.67792726 0.64156044
vt 0.72660685 0.52130425
vt 0.7968731 0.64266527
vt 0.6553967 0.5478516
vt 0.68288445 0.42728168
vt 0.7479801 0.43047652
vt 0.7372756 0.40265682
vt 0.7968731 0.393021
vt 0.3081553 0.86096895
vt 0.26812422 0.85728633
vt 0.26168334 0.75789654
vt 0.34041262 0.7695457
vt 0.33541918 0.6946839
vt 0.3948456 0.73062575
vt 0.3948456 0.8140665
vt 0.39473712 0.86206996
vt 0.8805054 0.0036392212
vt 0.9801983 0.00670743
vt 0.9801983 0.08590722
vt 0.8874839 0.057162046
vt 0.9081686 0.10700607
vt 0.8906271 0.11667371
vt 0.9782284 0.13529897
vt 0.96848243 0.18069983
vt 0.97430557 0.18302274
vt 0.9110441 0.76331913
vt 0.9656298 0.79412675
vt 0.9639616 0.8001498
vt 0.930436 0.7378639
vt 0.9656298 0.69657063
vt 0.9209312 0.6499436
vt 0.93157876 0.5800752
vt 0.93157876 0.6334191
vt 0.90383935 0.5640264
vt 0.8727588 0.6273424
vt 0.8723235 0.58724254
vt 0.9388571 0.63908076
vt 0.94412255 0.5640266
vt 0.96788716 0.5860343
vt 0.9780266 0.63908076
vt 0.31773514 0.8753247
vt 0.2708798 0.92137074
vt 0.26274544 0.8693483
vt 0.3170637 0.90850973
vt 0.2861817 0.94313264
vt 0.3168773 0.9501102
vt 0.26168346 0.9447961
vt 0.31773514 0.987437
vt 0.27583432 0.9821174
vn -0.008600755 -0.9524803 -0.05380571
vn 1.140852E-06 -0.9698054 -0.043352515
vn 0.28033942 -0.79718524 -0.48049498
vn 0.5292344 0.78953314 0.07631226
vn 0.581042 0.077212945 -0.799097
vn 0.26886165 0.38250035 -0.8616798
vn 0.6844925 -0.72324467 0.072143495
vn 0.4592713 -0.037730873 -0.88124394
vn 0.6092496 0.3251064 -0.71596044
vn -0.00021148432 0.20275359 -0.9557095
vn -3.1492718E-07 -0.89707744 -0.40212625
vn 0.46574023 -0.80255026 -0.3392767
vn 0.50595105 -0.3228115 0.78241175
vn 0.0017748468 -0.5085639 0.8363207
vn 0.004915477 -0.3954125 0.89852405
vn -0.09186051 -0.112620324 -0.98938245
vn 0.53044444 -0.41606873 -0.73859
vn 0.8924048 -0.046330914 -0.4488509
vn -0.008600755 -0.9524803 -0.05380571
vn -0.29848796 -0.7814466 -0.40088773
vn 1.140852E-06 -0.9698054 -0.043352515
vn -0.5292193 0.53787404 -0.62512606
vn -0.26887524 -0.09260857 -0.89777166
vn -0.57958716 -0.3233713 -0.6620128
vn -0.6844362 -0.39976406 0.58988184
vn -0.6049314 -0.22449684 -0.6941322
vn -0.45934474 -0.5946314 -0.59650695
vn -0.00021148432 0.20275359 -0.9557095
vn -0.46574083 -0.80255 -0.33927628
vn -3.1492718E-07 -0.89707744 -0.40212625
vn -0.51068187 -0.30712247 0.78470093
vn 0.004915477 -0.3954125 0.89852405
vn 0.0017748468 -0.5085639 0.8363207
vn 0.1496143 -0.10196112 -0.9834729
vn -0.83053 0.19844945 -0.5204205
vn -0.5493604 -0.2428141 -0.7995275
vn -0.85826945 -0.2422477 0.45242637
vn -0.82923913 -0.018942647 -0.5585724
vn -0.3867142 -0.72589433 -0.568796
vn -0.9709029 0.056984596 -0.23259415
vn -0.66164047 -0.7494484 0.023636758
vn -0.33070254 -0.8819996 0.33572656
vn -0.9837537 -0.17952248 0.00051882863
vn -0.35478497 0.8264763 -0.4371091
vn 0.26046786 0.93686247 0.15687606
vn 0.49316683 0.78225106 0.30272657
vn 0.3084173 0.7896821 -0.49251872
vn 0.3329755 0.3367843 0.85536885
vn 0.582333 0.5601352 0.56899047
vn 0.41640228 -0.05027929 0.89474607
vn 0.27030197 0.8880383 0.3094636
vn -0.4237671 0.7436997 -0.46008617
vn 0.29824322 0.6981447 0.6170908
vn 0.034771256 0.6537507 0.72494566
vn 0.020447547 0.16647452 0.96375024
vn 0.04824197 0.8682985 0.42588302
vn 0.043326486 0.94518375 0.17855543
vn 0.26318717 0.24964647 0.90077287
vn 0.52385896 -0.05596757 0.8247097
vn 0.035743136 0.4799052 0.83132136
vn 0.22948742 0.80213994 -0.47191387
vn 0.76013416 0.5227998 -0.385845
vn -0.35478497 0.8264763 -0.4371091
vn 0.77426326 0.5689011 0.16603863
vn 0.78702116 0.12902328 0.5859714
vn 0.81956995 -0.26148146 0.50299406
vn 0.48004872 0.784874 -0.39182383
vn 0.2002963 0.55683565 -0.8061112
vn 0.8924048 -0.046330914 -0.4488509
vn -0.42510858 0.84168035 -0.33295158
vn -0.40654615 0.83695996 0.36635786
vn 0.18384561 -0.95516545 -0.17531297
vn 0.26083827 -0.5028722 -0.80584604
vn 0.6297398 -0.47827756 -0.5789493
vn 0.7666267 -0.39203835 -0.4738605
vn 0.5925421 -0.59180063 0.50552726
vn 0.20870735 -0.82695204 0.491115
vn 0.3084173 0.7896821 -0.49251872
vn 0.52385896 -0.05596757 0.8247097
vn 0.49316683 0.78225106 0.30272657
vn -0.6212855 0.6908019 0.36050686
vn -0.40814215 0.40487456 0.80432504
vn -0.87315935 0.057746626 0.48250306
vn -0.849342 0.43430883 -0.29948217
vn -0.4088676 0.07428098 -0.8666576
vn -0.9574594 0.23905973 -0.051185112
vn -0.25987718 0.41514516 0.61996156
vn -0.6732322 -0.48553488 -0.44323328
vn -0.98152494 0.14811493 0.072751276
vn -0.75791085 0.48010343 -0.37768477
vn -0.20367053 -0.19734955 -0.9457709
vn -0.4611803 0.079557724 -0.8747549
vn -0.5589076 0.3325649 -0.714816
vn -1.1852085E-05 0.2838347 -0.9509795
vn 0.000987755 0.8517182 -0.5004127
vn -0.14176954 0.24404308 -0.95181805
vn 0.28033942 -0.79718524 -0.48049498
vn 1.140852E-06 -0.9698054 -0.043352515
vn 0.08666629 -0.95028603 -0.21530756
vn 0.6297398 -0.47827756 -0.5789493
vn 0.18384561 -0.95516545 -0.17531297
vn 0.7666267 -0.39203835 -0.4738605
vn 0.20870735 -0.82695204 0.491115
vn -0.008600755 -0.9524803 -0.05380571
vn 1.0540674E-05 -0.80358213 0.5537887
vn 0.53020984 0.32419991 0.77109724
vn 0.94721854 0.3118741 -0.06782683
vn 0.9898416 -0.106757894 0.09369756
vn 0.38573533 0.09945398 0.91723275
vn 0.8084646 0.12654173 0.49837285
vn 0.80336547 -0.42133033 -0.32871425
vn 0.981672 0.1816585 0.050823823
vn 0.5292344 0.78953314 0.07631226
vn 0.581042 0.077212945 -0.799097
vn 0.6092496 0.3251064 -0.71596044
vn 0.984254 -0.17586775 0.016849395
vn 0.7578945 -0.63397497 -0.14989293
vn 0.6844925 -0.72324467 0.072143495
vn 0.5292344 0.78953314 0.07631226
vn -0.75791085 0.48010343 -0.37768477
vn -0.25987718 0.41514516 0.61996156
vn 0.8084646 0.12654173 0.49837285
vn 0.38573533 0.09945398 0.91723275
vn -0.87315935 0.057746626 0.48250306
vn -0.40814215 0.40487456 0.80432504
vn 0.53020984 0.32419991 0.77109724
vn 0.41640228 -0.05027929 0.89474607
vn 0.582333 0.5601352 0.56899047
vn 0.81956995 -0.26148146 0.50299406
vn 0.27030197 0.8880383 0.3094636
vn 0.53364044 -0.82744545 -0.14170441
vn -3.0107392E-07 -0.9488001 -0.28061542
vn -3.8913822E-07 -0.82568705 -0.5492865
vn 0.4701819 -0.82971746 -0.29791743
vn -1.3387302E-07 -0.98091286 0.19444661
vn 0.5725778 -0.8153312 0.085961714
vn 0.7412628 -0.6219904 -0.24449643
vn 0.91667867 -0.39366427 -0.03346461
vn 0.4061092 -0.5223603 0.73008657
vn 0.50595105 -0.3228115 0.78241175
vn 0.004915477 -0.3954125 0.89852405
vn 0.3329755 0.3367843 0.85536885
vn 0.020447547 0.16647452 0.96375024
vn 0.4061092 -0.5223603 0.73008657
vn 0.3329755 0.3367843 0.85536885
vn 0.41640228 -0.05027929 0.89474607
vn 0.81956995 -0.26148146 0.50299406
vn 0.46875298 -0.8771054 0.092128575
vn 0.18626405 -0.9461333 0.19044435
vn 0.50595105 -0.3228115 0.78241175
vn 0.68956214 -0.7033466 0.091955125
vn 0.18384561 -0.95516545 -0.17531297
vn 0.5768512 -0.8019067 -0.0058445632
vn 0.08666629 -0.95028603 -0.21530756
vn -0.087382115 -0.96856177 0.10871744
vn 0.491061 -0.45524132 -0.7195383
vn 1.140852E-06 -0.9698054 -0.043352515
vn -0.0075995037 -0.5767103 -0.7886449
vn -0.33070254 -0.8819996 0.33572656
vn 0.75227696 -0.62359273 0.21262938
vn 0.28764915 -0.9466705 -0.14516369
vn -0.66164047 -0.7494484 0.023636758
vn -0.82923913 -0.018942647 -0.5585724
vn -0.3867142 -0.72589433 -0.568796
vn -0.09186051 -0.112620324 -0.98938245
vn 0.53044444 -0.41606873 -0.73859
vn 0.28764915 -0.9466705 -0.14516369
vn 0.8924048 -0.046330914 -0.4488509
vn 0.53044444 -0.41606873 -0.73859
vn 0.75227696 -0.62359273 0.21262938
vn 0.76013416 0.5227998 -0.385845
vn 0.48004872 0.784874 -0.39182383
vn 0.96341014 -0.027336031 0.25571805
vn 0.46678734 -0.65482694 0.5443533
vn 0.77426326 0.5689011 0.16603863
vn 0.79817706 -0.05547913 0.5732758
vn 0.3293899 -0.6883006 0.60443664
vn 0.78702116 0.12902328 0.5859714
vn 0.7364777 -0.6335703 0.224066
vn 0.81956995 -0.26148146 0.50299406
vn 0.46875298 -0.8771054 0.092128575
vn 0.19823676 -0.8931343 -0.40374815
vn -0.11869496 -0.97670174 -0.031339794
vn -0.9837537 -0.17952248 0.00051882863
vn -0.8316223 0.08627022 -0.53694713
vn -0.8019026 -0.50918293 -0.26376823
vn -0.4237671 0.7436997 -0.46008617
vn 0.26083827 -0.5028722 -0.80584604
vn 0.3084173 0.7896821 -0.49251872
vn 0.26046786 0.93686247 0.15687606
vn -0.33070254 -0.8819996 0.33572656
vn -0.8019026 -0.50918293 -0.26376823
vn -0.24023224 -0.8271839 0.4675914
vn -0.9837537 -0.17952248 0.00051882863
vn -0.09186051 -0.112620324 -0.98938245
vn -0.8249633 -0.37445623 -0.4233407
vn -0.3867142 -0.72589433 -0.568796
vn -0.6548349 0.23446044 -0.7184838
vn 0.2002963 0.55683565 -0.8061112
vn 0.8924048 -0.046330914 -0.4488509
vn -0.42510858 0.84168035 -0.33295158
vn -0.8054149 0.5086087 -0.30434215
vn -0.25150475 -0.16696933 -0.9533448
vn -0.06812049 0.8758972 -0.47766387
vn 0.26536304 -0.09722531 -0.9574594
vn 0.61874497 0.6610885 -0.42069823
vn -0.3867142 -0.72589433 -0.568796
vn -0.8249633 -0.37445623 -0.4233407
vn -0.9017308 -0.092060775 0.42238152
vn -0.85826945 -0.2422477 0.45242637
vn -0.06812049 0.8758972 -0.47766387
vn -0.849342 0.43430883 -0.29948217
vn -0.8054149 0.5086087 -0.30434215
vn 0.051333062 0.92191833 0.3758141
vn 0.61874497 0.6610885 -0.42069823
vn -0.6212855 0.6908019 0.36050686
vn 0.94721854 0.3118741 -0.06782683
vn -0.40814215 0.40487456 0.80432504
vn 0.53020984 0.32419991 0.77109724
vn -0.4088676 0.07428098 -0.8666576
vn 0.45823276 -0.30467677 -0.83100605
vn -0.849342 0.43430883 -0.29948217
vn 0.80336547 -0.42133033 -0.32871425
vn 0.9898416 -0.106757894 0.09369756
vn 0.03247852 -0.70122933 -0.5584199
vn -0.6732322 -0.48553488 -0.44323328
vn -0.20367053 -0.19734955 -0.9457709
vn 0.36598545 -0.8657144 -0.33500558
vn 0.7578945 -0.63397497 -0.14989293
vn 0.6844925 -0.72324467 0.072143495
vn 0.4592713 -0.037730873 -0.88124394
vn 0.019981455 -0.9139957 -0.39481264
vn -0.8054149 0.5086087 -0.30434215
vn -0.849342 0.43430883 -0.29948217
vn -0.25150475 -0.16696933 -0.9533448
vn 0.45823276 -0.30467677 -0.83100605
vn 0.26536304 -0.09722531 -0.9574594
vn 0.94721854 0.3118741 -0.06782683
vn 0.9898416 -0.106757894 0.09369756
vn 0.61874497 0.6610885 -0.42069823
vn 0.5292344 0.78953314 0.07631226
vn 0.26886165 0.38250035 -0.8616798
vn -0.75791085 0.48010343 -0.37768477
vn -0.5589076 0.3325649 -0.714816
vn -0.07923498 0.63941664 -0.7431721
vn 0.000987755 0.8517182 -0.5004127
vn 0.581042 0.077212945 -0.799097
vn 0.77523124 0.555475 -0.27937406
vn -0.07923498 0.63941664 -0.7431721
vn 0.26886165 0.38250035 -0.8616798
vn 0.035743136 0.4799052 0.83132136
vn 0.022763655 0.062312722 0.961414
vn 0.22424673 0.25884968 0.9105907
vn 0.26318717 0.24964647 0.90077287
vn 0.5770488 -0.012266621 0.7918876
vn 0.52385896 -0.05596757 0.8247097
vn 0.55860895 -0.5117903 0.6208607
vn 0.5925421 -0.59180063 0.50552726
vn 0.4974749 -0.82099414 0.23351547
vn 0.20870735 -0.82695204 0.491115
vn 8.816189E-06 -0.9320281 0.29210413
vn 1.0540674E-05 -0.80358213 0.5537887
vn 0.19823676 -0.8931343 -0.40374815
vn 0.18384561 -0.95516545 -0.17531297
vn 0.46875298 -0.8771054 0.092128575
vn 0.26083827 -0.5028722 -0.80584604
vn -0.46853995 -0.7217472 -0.4586275
vn -0.8019026 -0.50918293 -0.26376823
vn -0.11869496 -0.97670174 -0.031339794
vn -0.8019026 -0.50918293 -0.26376823
vn -0.11869496 -0.97670174 -0.031339794
vn -0.24023224 -0.8271839 0.4675914
vn 0.46678734 -0.65482694 0.5443533
vn 0.3293899 -0.6883006 0.60443664
vn 0.7364777 -0.6335703 0.224066
vn 0.75227696 -0.62359273 0.21262938
vn -0.33070254 -0.8819996 0.33572656
vn -0.35478497 0.8264763 -0.4371091
vn -0.8316223 0.08627022 -0.53694713
vn -0.9837537 -0.17952248 0.00051882863
vn -0.4237671 0.7436997 -0.46008617
vn 0.6092496 0.3251064 -0.71596044
vn 0.77523124 0.555475 -0.27937406
vn 0.581042 0.077212945 -0.799097
vn 0.89019275 0.031118788 -0.4463782
vn 0.4592713 -0.037730873 -0.88124394
vn 0.88712114 0.15484968 -0.42954367
vn -0.20367053 -0.19734955 -0.9457709
vn 0.27000466 0.86141354 -0.40774918
vn -0.4611803 0.079557724 -0.8747549
vn -0.14176954 0.24404308 -0.95181805
vn -1.0855356E-05 0.28337234 -0.95144546
vn -1.13386195E-05 0.8028464 -0.5789006
vn -1.1852085E-05 0.2838347 -0.9509795
vn 0.68956214 -0.7033466 0.091955125
vn 0.72713107 -0.11878904 0.66292197
vn 0.50595105 -0.3228115 0.78241175
vn 0.9727124 -0.08485808 0.19790533
vn 0.5768512 -0.8019067 -0.0058445632
vn 0.92313695 -0.23862243 -0.28970227
vn 0.84906244 -0.22799107 0.47289672
vn 0.83359945 -0.29054457 0.45908302
vn 0.91667867 -0.39366427 -0.03346461
vn 0.7412628 -0.6219904 -0.24449643
vn 0.5725778 -0.8153312 0.085961714
vn 0.8619886 -0.4078461 0.28769407
vn 0.53364044 -0.82744545 -0.14170441
vn 0.48062402 -0.8296938 0.25399145
vn 0.36480814 -0.78329754 0.48086876
vn 0.36480814 -0.78329754 0.48086876
vn 0.83359945 -0.29054457 0.45908302
vn 0.92313695 -0.23862243 -0.28970227
vn 0.46574023 -0.80255026 -0.3392767
vn -4.0379263E-08 -0.91523194 0.36677518
vn -3.1492718E-07 -0.89707744 -0.40212625
vn -3.0107392E-07 -0.9488001 -0.28061542
vn 0.48062402 -0.8296938 0.25399145
vn 0.53364044 -0.82744545 -0.14170441
vn 0.92313695 -0.23862243 -0.28970227
vn -0.00021148432 0.20275359 -0.9557095
vn 0.46574023 -0.80255026 -0.3392767
vn 0.36094573 0.44719344 -0.7955684
vn 0.5768512 -0.8019067 -0.0058445632
vn -0.0075995037 -0.5767103 -0.7886449
vn 0.491061 -0.45524132 -0.7195383
vn 0.5770488 -0.012266621 0.7918876
vn 0.77523124 0.555475 -0.27937406
vn 0.89019275 0.031118788 -0.4463782
vn 0.55860895 -0.5117903 0.6208607
vn 0.4974749 -0.82099414 0.23351547
vn 0.88712114 0.15484968 -0.42954367
vn 0.7069268 -0.6714245 -0.18682814
vn 0.82125604 0.2974067 -0.47775385
vn 0.22424673 0.25884968 0.9105907
vn 0.77523124 0.555475 -0.27937406
vn 0.5770488 -0.012266621 0.7918876
vn 0.04220191 0.9770505 0.09012804
vn -0.07923498 0.63941664 -0.7431721
vn 0.000987755 0.8517182 -0.5004127
vn 0.024277389 0.88377506 0.39876693
vn 0.022763655 0.062312722 0.961414
vn 0.4974749 -0.82099414 0.23351547
vn 3.0730835E-06 -0.94696575 -0.26393557
vn 8.816189E-06 -0.9320281 0.29210413
vn 0.7069268 -0.6714245 -0.18682814
vn 0.44621024 -0.7506561 -0.46230373
vn 0.82125604 0.2974067 -0.47775385
vn -7.8343373E-07 -0.7967142 -0.578003
vn 0.4533424 0.36300755 -0.8006991
vn -1.2026763E-05 0.348069 -0.9228184
vn -1.13386195E-05 0.8028464 -0.5789006
vn -1.2026763E-05 0.348069 -0.9228184
vn 0.4533424 0.36300755 -0.8006991
vn 0.27000466 0.86141354 -0.40774918
vn 0.82125604 0.2974067 -0.47775385
vn 0.88712114 0.15484968 -0.42954367
vn -0.8249633 -0.37445623 -0.4233407
vn -0.6548349 0.23446044 -0.7184838
vn -0.9017308 -0.092060775 0.42238152
vn -0.40654615 0.83695996 0.36635786
vn -0.42510858 0.84168035 -0.33295158
vn -0.85826945 -0.2422477 0.45242637
vn -0.9017308 -0.092060775 0.42238152
vn -0.40654615 0.83695996 0.36635786
vn -0.35478497 0.8264763 -0.4371091
vn 0.0017748468 -0.5085639 0.8363207
vn 0.50595105 -0.3228115 0.78241175
vn 0.72713107 -0.11878904 0.66292197
vn 3.343625E-07 -0.16854249 0.9717935
vn 0.3763894 -0.40606287 0.8318924
vn 2.0402136E-07 -0.5944836 0.8002741
vn 0.84906244 -0.22799107 0.47289672
vn -1.3387302E-07 -0.98091286 0.19444661
vn 0.5725778 -0.8153312 0.085961714
vn 0.72419983 -0.46852383 0.50598395
vn 0.2400491 -0.78305703 -0.5737573
vn 0.84447277 -0.21427491 -0.4908684
vn 0.9706022 -0.18737379 -0.15107006
vn 0.44516167 -0.8947001 0.036636665
vn 0.06455284 -0.9472646 0.31388235
vn 0.9019125 -0.42629355 0.06947973
vn 0.5907597 0.7205471 -0.36306295
vn -0.117483705 0.94404304 0.054604262
vn -0.18226029 0.7021631 -0.5794558
vn -0.4285708 0.8034241 0.19964315
vn -0.3116208 0.37348962 0.85062397
vn -0.47214267 0.6836387 0.5410818
vn -0.4082694 0.04952824 0.8973987
vn -0.08065991 0.9441842 0.2621302
vn 0.59661317 0.62126 -0.47103038
vn -0.27039987 0.7188107 0.57606494
vn 0.034771256 0.6537507 0.72494566
vn 0.020447547 0.16647452 0.96375024
vn 0.04824197 0.8682985 0.42588302
vn 0.043326486 0.94518375 0.17855543
vn -0.25698197 0.52290714 0.6475854
vn -0.5314181 0.3187558 0.64860994
vn 0.035743136 0.4799052 0.83132136
vn 0.0032522902 0.84271765 -0.4797361
vn -0.5646232 0.7122386 -0.4170329
vn 0.5907597 0.7205471 -0.36306295
vn -0.6145156 0.7451318 0.13391535
vn -0.7341448 0.3275168 0.5752385
vn -0.8470795 -0.0745094 0.5212793
vn -0.22791675 0.8935655 -0.38677406
vn 0.021277115 0.6141344 -0.78891444
vn -0.83053 0.19844945 -0.5204205
vn 0.6529001 0.71395224 -0.25296992
vn 0.5704367 0.6926541 0.44139785
vn -0.3349546 -0.92719084 -0.12678626
vn -0.6642048 -0.4681583 -0.51573247
vn -0.36117393 -0.5170999 -0.7286102
vn -0.7919938 -0.38170016 -0.3931178
vn -0.623015 -0.27599475 0.60612214
vn -0.21379767 -0.31602144 0.80785364
vn -0.18226029 0.7021631 -0.5794558
vn -0.5314181 0.3187558 0.64860994
vn -0.4285708 0.8034241 0.19964315
vn 0.6253137 0.056573223 -0.7781264
vn 0.87371683 0.4778359 -0.09070328
vn 0.4122124 0.6871927 -0.59735847
vn 0.8488599 -0.46141413 -0.257915
vn 0.40903187 -0.89836985 -0.046357475
vn 0.9583309 -0.042829636 -0.26937157
vn 0.25984186 0.8588314 -0.2791338
vn 0.67336637 -0.69186467 0.13711224
vn 0.98152465 0.15605837 -0.09371799
vn 0.7580042 0.032137036 -0.62293154
vn 0.20365529 -0.4862492 -0.78390646
vn 0.46115124 -0.20316392 -0.81170183
vn 0.55899686 -0.2527336 -0.74491787
vn -1.1852085E-05 0.2838347 -0.9509795
vn 0.000987755 0.8517182 -0.5004127
vn 0.14172524 -0.06997703 -0.93142027
vn -0.29848796 -0.7814466 -0.40088773
vn -0.11346913 -0.9517647 -0.20703489
vn 1.140852E-06 -0.9698054 -0.043352515
vn -0.6642048 -0.4681583 -0.51573247
vn -0.3349546 -0.92719084 -0.12678626
vn -0.7919938 -0.38170016 -0.3931178
vn -0.21379767 -0.31602144 0.80785364
vn -0.008600755 -0.9524803 -0.05380571
vn 1.0540674E-05 -0.80358213 0.5537887
vn -0.526594 0.6792575 -0.5103172
vn -0.9902144 0.1000035 0.09733026
vn -0.94659436 -0.18457676 -0.26428306
vn -0.3850046 0.9109197 -0.14831151
vn -0.8081969 0.5523896 -0.12785965
vn -0.803285 -0.5389653 0.20644884
vn -0.98168063 0.14563598 -0.1215731
vn -0.5292193 0.53787404 -0.62512606
vn -0.57958716 -0.3233713 -0.6620128
vn -0.6049314 -0.22449684 -0.6941322
vn -0.98423856 -0.0873369 0.15302473
vn -0.7578633 -0.49515364 0.4140913
vn -0.6844362 -0.39976406 0.58988184
vn -0.5292193 0.53787404 -0.62512606
vn 0.25984186 0.8588314 -0.2791338
vn 0.7580042 0.032137036 -0.62293154
vn -0.8081969 0.5523896 -0.12785965
vn -0.3850046 0.9109197 -0.14831151
vn 0.87371683 0.4778359 -0.09070328
vn 0.4122124 0.6871927 -0.59735847
vn -0.526594 0.6792575 -0.5103172
vn -0.4082694 0.04952824 0.8973987
vn -0.8470795 -0.0745094 0.5212793
vn -0.47214267 0.6836387 0.5410818
vn -0.08065991 0.9441842 0.2621302
vn -0.53364086 -0.82744503 -0.141704
vn -3.8913822E-07 -0.82568705 -0.5492865
vn -3.0107392E-07 -0.9488001 -0.28061542
vn -0.4701824 -0.82971734 -0.29791707
vn -1.3387302E-07 -0.98091286 0.19444661
vn -0.5725781 -0.8153309 0.08596213
vn -0.7412631 -0.6219901 -0.24449587
vn -0.9166789 -0.3936638 -0.033463918
vn -0.42639598 -0.49169156 0.73800004
vn 0.004915477 -0.3954125 0.89852405
vn -0.51068187 -0.30712247 0.78470093
vn -0.3116208 0.37348962 0.85062397
vn 0.020447547 0.16647452 0.96375024
vn -0.42639598 -0.49169156 0.73800004
vn -0.4082694 0.04952824 0.8973987
vn -0.3116208 0.37348962 0.85062397
vn -0.8470795 -0.0745094 0.5212793
vn -0.63217306 -0.7597678 0.1491338
vn -0.22664739 -0.93610334 0.20354566
vn -0.51068187 -0.30712247 0.78470093
vn -0.70288336 -0.692308 0.09667882
vn -0.3349546 -0.92719084 -0.12678626
vn -0.59605724 -0.7909117 0.0007096231
vn -0.11346913 -0.9517647 -0.20703489
vn 0.0711358 -0.96988714 0.11370927
vn -0.50008756 -0.4543755 -0.7166813
vn 1.140852E-06 -0.9698054 -0.043352515
vn -0.0075995037 -0.5767103 -0.7886449
vn 0.06455284 -0.9472646 0.31388235
vn -0.5037798 -0.8359909 -0.21754232
vn -0.901822 -0.41549948 0.118647575
vn 0.44516167 -0.8947001 0.036636665
vn 0.84447277 -0.21427491 -0.4908684
vn 0.2400491 -0.78305703 -0.5737573
vn 0.1496143 -0.10196112 -0.9834729
vn -0.5493604 -0.2428141 -0.7995275
vn -0.5037798 -0.8359909 -0.21754232
vn -0.5493604 -0.2428141 -0.7995275
vn -0.83053 0.19844945 -0.5204205
vn -0.901822 -0.41549948 0.118647575
vn -0.5646232 0.7122386 -0.4170329
vn -0.22791675 0.8935655 -0.38677406
vn -0.951806 0.20988388 0.19855477
vn -0.6309295 -0.5258201 0.53622967
vn -0.6145156 0.7451318 0.13391535
vn -0.8059336 0.14265256 0.5459229
vn -0.48176596 -0.57796097 0.62982345
vn -0.7341448 0.3275168 0.5752385
vn -0.85269976 -0.44860423 0.2609276
vn -0.8470795 -0.0745094 0.5212793
vn -0.63217306 -0.7597678 0.1491338
vn -0.38853985 -0.85541016 -0.3425054
vn -0.09867428 -0.9839691 0.023941308
vn 0.9019125 -0.42629355 0.06947973
vn 0.6605388 -0.6937694 -0.23041652
vn 0.86293393 -0.11530018 -0.47898883
vn 0.59661317 0.62126 -0.47103038
vn -0.36117393 -0.5170999 -0.7286102
vn -0.18226029 0.7021631 -0.5794558
vn -0.117483705 0.94404304 0.054604262
vn 0.06455284 -0.9472646 0.31388235
vn -0.015120864 -0.8750829 0.45291322
vn 0.6605388 -0.6937694 -0.23041652
vn 0.9019125 -0.42629355 0.06947973
vn 0.1496143 -0.10196112 -0.9834729
vn 0.2400491 -0.78305703 -0.5737573
vn 0.73800325 -0.56072634 -0.37541556
vn 0.75521606 0.08024111 -0.6505458
vn 0.021277115 0.6141344 -0.78891444
vn -0.83053 0.19844945 -0.5204205
vn 0.6529001 0.71395224 -0.25296992
vn 0.80508995 -0.49882975 -0.32093453
vn 0.06785514 -0.8120545 -0.5796215
vn 0.2455442 -0.786118 0.5672103
vn -0.2709879 -0.82658875 0.49311596
vn -0.6190862 -0.6578412 -0.42875612
vn 0.2400491 -0.78305703 -0.5737573
vn 0.72419983 -0.46852383 0.50598395
vn 0.8068406 -0.33370528 0.48749238
vn 0.73800325 -0.56072634 -0.37541556
vn 0.06785514 -0.8120545 -0.5796215
vn 0.80508995 -0.49882975 -0.32093453
vn 0.8488599 -0.46141413 -0.257915
vn -0.046515144 -0.039555497 -0.99799293
vn -0.6190862 -0.6578412 -0.42875612
vn 0.6253137 0.056573223 -0.7781264
vn -0.94659436 -0.18457676 -0.26428306
vn 0.4122124 0.6871927 -0.59735847
vn -0.526594 0.6792575 -0.5103172
vn 0.40903187 -0.89836985 -0.046357475
vn 0.8488599 -0.46141413 -0.257915
vn -0.46013612 -0.80506504 0.37396213
vn -0.803285 -0.5389653 0.20644884
vn -0.9902144 0.1000035 0.09733026
vn -0.032338105 -0.9079075 0.33749872
vn 0.67336637 -0.69186467 0.13711224
vn 0.20365529 -0.4862492 -0.78390646
vn -0.36595896 -0.7908073 0.4561739
vn -0.7578633 -0.49515364 0.4140913
vn -0.6844362 -0.39976406 0.58988184
vn -0.45934474 -0.5946314 -0.59650695
vn -0.01996116 -0.883091 0.3968444
vn 0.80508995 -0.49882975 -0.32093453
vn 0.2455442 -0.786118 0.5672103
vn 0.8488599 -0.46141413 -0.257915
vn -0.46013612 -0.80506504 0.37396213
vn -0.2709879 -0.82658875 0.49311596
vn -0.94659436 -0.18457676 -0.26428306
vn -0.9902144 0.1000035 0.09733026
vn -0.6190862 -0.6578412 -0.42875612
vn -0.5292193 0.53787404 -0.62512606
vn 0.7580042 0.032137036 -0.62293154
vn -0.26887524 -0.09260857 -0.89777166
vn 0.55899686 -0.2527336 -0.74491787
vn 0.07919896 0.200257 -0.9110133
vn 0.000987755 0.8517182 -0.5004127
vn -0.57958716 -0.3233713 -0.6620128
vn -0.26887524 -0.09260857 -0.89777166
vn 0.07919896 0.200257 -0.9110133
vn -0.7679594 0.3098321 -0.49375916
vn 0.035743136 0.4799052 0.83132136
vn -0.2182838 0.55784184 0.62928224
vn 0.022763655 0.062312722 0.961414
vn -0.25698197 0.52290714 0.6475854
vn -0.58234715 0.359105 0.59608173
vn -0.5314181 0.3187558 0.64860994
vn -0.5835888 -0.13805664 0.6784223
vn -0.623015 -0.27599475 0.60612214
vn -0.5010961 -0.44674397 0.63247025
vn -0.21379767 -0.31602144 0.80785364
vn 8.816189E-06 -0.9320281 0.29210413
vn 1.0540674E-05 -0.80358213 0.5537887
vn -0.38853985 -0.85541016 -0.3425054
vn -0.63217306 -0.7597678 0.1491338
vn -0.3349546 -0.92719084 -0.12678626
vn -0.36117393 -0.5170999 -0.7286102
vn 0.29022318 -0.83459866 -0.42320964
vn 0.6605388 -0.6937694 -0.23041652
vn -0.09867428 -0.9839691 0.023941308
vn 0.6605388 -0.6937694 -0.23041652
vn -0.015120864 -0.8750829 0.45291322
vn -0.09867428 -0.9839691 0.023941308
vn -0.6309295 -0.5258201 0.53622967
vn -0.48176596 -0.57796097 0.62982345
vn -0.85269976 -0.44860423 0.2609276
vn -0.901822 -0.41549948 0.118647575
vn 0.06455284 -0.9472646 0.31388235
vn 0.5907597 0.7205471 -0.36306295
vn 0.9019125 -0.42629355 0.06947973
vn 0.86293393 -0.11530018 -0.47898883
vn 0.59661317 0.62126 -0.47103038
vn -0.6049314 -0.22449684 -0.6941322
vn -0.57958716 -0.3233713 -0.6620128
vn -0.7679594 0.3098321 -0.49375916
vn -0.89109844 -0.23481742 -0.3363493
vn -0.45934474 -0.5946314 -0.59650695
vn -0.88716054 -0.12486358 -0.40954146
vn 0.20365529 -0.4862492 -0.78390646
vn -0.27004483 0.6141693 -0.6569927
vn 0.46115124 -0.20316392 -0.81170183
vn 0.14172524 -0.06997703 -0.93142027
vn -1.0855356E-05 0.28337234 -0.95144546
vn -1.13386195E-05 0.8028464 -0.5789006
vn -1.1852085E-05 0.2838347 -0.9509795
vn -0.70288336 -0.692308 0.09667882
vn -0.51068187 -0.30712247 0.78470093
vn -0.72871894 -0.11219021 0.66376
vn -0.9753139 -0.07235722 0.1993656
vn -0.59605724 -0.7909117 0.0007096231
vn -0.9246146 -0.23606564 -0.28910834
vn -0.8490621 -0.22799073 0.4728974
vn -0.8339436 -0.28979328 0.4592299
vn -0.9166789 -0.3936638 -0.033463918
vn -0.7412631 -0.6219901 -0.24449587
vn -0.5725781 -0.8153309 0.08596213
vn -0.8623243 -0.40732402 0.28782645
vn -0.53364086 -0.82744503 -0.141704
vn -0.48062414 -0.82969356 0.2539919
vn -0.36480802 -0.7832974 0.48086914
vn -0.36480802 -0.7832974 0.48086914
vn -0.9246146 -0.23606564 -0.28910834
vn -0.8339436 -0.28979328 0.4592299
vn -0.46574083 -0.80255 -0.33927628
vn -4.0379263E-08 -0.91523194 0.36677518
vn -3.1492718E-07 -0.89707744 -0.40212625
vn -3.0107392E-07 -0.9488001 -0.28061542
vn -0.48062414 -0.82969356 0.2539919
vn -0.53364086 -0.82744503 -0.141704
vn -0.9246146 -0.23606564 -0.28910834
vn -0.46574083 -0.80255 -0.33927628
vn -0.00021148432 0.20275359 -0.9557095
vn -0.35775882 0.44679865 -0.79658157
vn -0.59605724 -0.7909117 0.0007096231
vn -0.0075995037 -0.5767103 -0.7886449
vn -0.50008756 -0.4543755 -0.7166813
vn -0.58234715 0.359105 0.59608173
vn -0.89109844 -0.23481742 -0.3363493
vn -0.7679594 0.3098321 -0.49375916
vn -0.5835888 -0.13805664 0.6784223
vn -0.5010961 -0.44674397 0.63247025
vn -0.88716054 -0.12486358 -0.40954146
vn -0.7069113 -0.6161337 0.189301
vn -0.82129127 0.054841354 -0.52225703
vn -0.2182838 0.55784184 0.62928224
vn -0.58234715 0.359105 0.59608173
vn -0.7679594 0.3098321 -0.49375916
vn -0.03166825 0.8159868 -0.38236427
vn 0.07919896 0.200257 -0.9110133
vn 0.000987755 0.8517182 -0.5004127
vn 0.024277389 0.88377506 0.39876693
vn 0.022763655 0.062312722 0.961414
vn -0.5010961 -0.44674397 0.63247025
vn 8.816189E-06 -0.9320281 0.29210413
vn 3.0730835E-06 -0.94696575 -0.26393557
vn -0.7069113 -0.6161337 0.189301
vn -0.44621205 -0.8156613 -0.09239584
vn -0.82129127 0.054841354 -0.52225703
vn -7.8343373E-07 -0.7967142 -0.578003
vn -0.4533855 0.062143117 -0.8239278
vn -1.2026763E-05 0.348069 -0.9228184
vn -1.13386195E-05 0.8028464 -0.5789006
vn -0.4533855 0.062143117 -0.8239278
vn -1.2026763E-05 0.348069 -0.9228184
vn -0.27004483 0.6141693 -0.6569927
vn -0.82129127 0.054841354 -0.52225703
vn -0.88716054 -0.12486358 -0.40954146
vn 0.73800325 -0.56072634 -0.37541556
vn 0.8068406 -0.33370528 0.48749238
vn 0.75521606 0.08024111 -0.6505458
vn 0.5704367 0.6926541 0.44139785
vn 0.6529001 0.71395224 -0.25296992
vn 0.72419983 -0.46852383 0.50598395
vn 0.5907597 0.7205471 -0.36306295
vn 0.5704367 0.6926541 0.44139785
vn 0.8068406 -0.33370528 0.48749238
vn 0.0017748468 -0.5085639 0.8363207
vn -0.72871894 -0.11219021 0.66376
vn -0.51068187 -0.30712247 0.78470093
vn 3.343625E-07 -0.16854249 0.9717935
vn -0.37638903 -0.40606266 0.83189267
vn 2.0402136E-07 -0.5944836 0.8002741
vn -0.8490621 -0.22799073 0.4728974
vn -1.3387302E-07 -0.98091286 0.19444661
vn -0.5725781 -0.8153309 0.08596213
g 0.1500_0
f 3/3/3 2/2/2 1/1/1
f 6/6/6 5/5/5 4/4/4
f 9/9/9 8/8/8 7/7/7
f 12/12/12 11/11/11 10/10/10
f 15/15/15 14/14/14 13/13/13
f 18/18/18 17/17/17 16/16/16
f 21/21/21 20/20/20 19/19/19
f 24/24/24 23/23/23 22/22/22
f 27/27/27 26/26/26 25/25/25
f 30/30/30 29/29/29 28/28/28
f 33/33/33 32/32/32 31/31/31
f 36/36/36 35/35/35 34/34/34
f 39/39/39 38/38/38 37/37/37
f 38/38/38 40/40/40 37/37/37
f 38/38/38 41/41/41 40/40/40
f 37/37/37 40/40/40 41/41/41
f 41/41/41 42/42/42 37/37/37
f 42/42/42 43/43/43 37/37/37
f 37/37/37 43/43/43 44/44/44
f 47/47/47 46/46/46 45/45/45
f 48/48/48 45/45/45 46/46/46
f 45/45/45 48/48/48 49/49/49
f 49/49/49 48/48/48 50/50/50
f 49/49/49 51/51/51 45/45/45
f 52/52/52 45/45/45 51/51/51
f 53/53/53 48/48/48 46/46/46
f 53/53/53 54/54/54 48/48/48
f 54/54/54 55/55/55 48/48/48
f 56/56/56 54/54/54 53/53/53
f 57/57/57 56/56/56 53/53/53
f 53/53/53 46/46/46 57/57/57
f 58/58/58 57/57/57 46/46/46
f 58/58/58 46/46/46 59/59/59
f 58/58/58 60/60/60 57/57/57
f 51/51/51 61/61/61 52/52/52
f 61/61/61 62/62/62 52/52/52
f 62/62/62 63/63/63 52/52/52
f 61/61/61 64/64/64 62/62/62
f 61/61/61 51/51/51 64/64/64
f 65/65/65 64/64/64 51/51/51
f 51/51/51 66/66/66 65/65/65
f 63/63/63 62/62/62 67/67/67
f 67/67/67 68/68/68 63/63/63
f 67/67/67 69/69/69 68/68/68
f 68/68/68 70/70/70 63/63/63
f 70/70/70 71/71/71 63/63/63
f 74/74/74 73/73/73 72/72/72
f 73/73/73 74/74/74 75/75/75
f 73/73/73 75/75/75 76/76/76
f 75/75/75 77/77/77 76/76/76
f 76/76/76 78/78/78 73/73/73
f 76/76/76 79/79/79 78/78/78
f 79/79/79 80/80/80 78/78/78
f 83/83/83 82/82/82 81/81/81
f 83/83/83 81/81/81 84/84/84
f 85/85/85 83/83/83 84/84/84
f 83/83/83 85/85/85 86/86/86
f 83/83/83 86/86/86 87/87/87
f 85/85/85 88/88/88 86/86/86
f 87/87/87 86/86/86 89/89/89
f 89/89/89 86/86/86 88/88/88
f 87/87/87 89/89/89 90/90/90
f 89/89/89 88/88/88 90/90/90
f 90/90/90 88/88/88 91/91/91
f 91/91/91 92/92/92 90/90/90
f 92/92/92 93/93/93 90/90/90
f 93/93/93 92/92/92 94/94/94
f 93/93/93 94/94/94 95/95/95
f 92/92/92 96/96/96 94/94/94
f 99/99/99 98/98/98 97/97/97
f 97/97/97 100/100/100 99/99/99
f 99/99/99 100/100/100 101/101/101
f 100/100/100 97/97/97 102/102/102
f 97/97/97 103/103/103 102/102/102
f 104/104/104 103/103/103 97/97/97
f 104/104/104 105/105/105 103/103/103
f 108/108/108 107/107/107 106/106/106
f 108/108/108 106/106/106 109/109/109
f 110/110/110 108/108/108 109/109/109
f 108/108/108 110/110/110 111/111/111
f 111/111/111 110/110/110 112/112/112
f 112/112/112 110/110/110 113/113/113
f 112/112/112 113/113/113 114/114/114
f 114/114/114 115/115/115 112/112/112
f 112/112/112 116/116/116 111/111/111
f 112/112/112 115/115/115 116/116/116
f 117/117/117 111/111/111 116/116/116
f 117/117/117 116/116/116 115/115/115
f 118/118/118 117/117/117 115/115/115
f 121/121/121 120/120/120 119/119/119
f 121/121/121 119/119/119 122/122/122
f 122/122/122 123/123/123 121/121/121
f 124/124/124 121/121/121 123/123/123
f 125/125/125 124/124/124 123/123/123
f 126/126/126 125/125/125 123/123/123
f 129/129/129 128/128/128 127/127/127
f 130/130/130 128/128/128 129/129/129
f 133/133/133 132/132/132 131/131/131
f 131/131/131 134/134/134 133/133/133
f 133/133/133 134/134/134 135/135/135
f 135/135/135 134/134/134 136/136/136
f 134/134/134 137/137/137 136/136/136
f 137/137/137 134/134/134 131/131/131
f 138/138/138 137/137/137 131/131/131
f 141/141/141 140/140/140 139/139/139
f 141/141/141 139/139/139 142/142/142
f 143/143/143 141/141/141 142/142/142
f 146/146/146 145/145/145 144/144/144
f 144/144/144 147/147/147 146/146/146
f 148/148/148 147/147/147 144/144/144
f 148/148/148 144/144/144 149/149/149
f 150/150/150 149/149/149 144/144/144
f 150/150/150 151/151/151 149/149/149
f 149/149/149 152/152/152 148/148/148
f 149/149/149 151/151/151 153/153/153
f 153/153/153 152/152/152 149/149/149
f 154/154/154 152/152/152 153/153/153
f 154/154/154 153/153/153 155/155/155
f 156/156/156 155/155/155 153/153/153
f 155/155/155 157/157/157 154/154/154
f 157/157/157 155/155/155 156/156/156
f 158/158/158 157/157/157 156/156/156
f 161/161/161 160/160/160 159/159/159
f 161/161/161 159/159/159 162/162/162
f 163/163/163 161/161/161 162/162/162
f 163/163/163 164/164/164 161/161/161
f 164/164/164 165/165/165 161/161/161
f 165/165/165 166/166/166 161/161/161
f 169/169/169 168/168/168 167/167/167
f 170/170/170 167/167/167 168/168/168
f 171/171/171 170/170/170 168/168/168
f 171/171/171 168/168/168 172/172/172
f 170/170/170 171/171/171 173/173/173
f 174/174/174 170/170/170 173/173/173
f 171/171/171 175/175/175 173/173/173
f 174/174/174 173/173/173 176/176/176
f 175/175/175 176/176/176 173/173/173
f 177/177/177 174/174/174 176/176/176
f 175/175/175 178/178/178 176/176/176
f 177/177/177 176/176/176 178/178/178
f 179/179/179 177/177/177 178/178/178
f 178/178/178 180/180/180 179/179/179
f 179/179/179 180/180/180 181/181/181
f 179/179/179 181/181/181 182/182/182
f 179/179/179 182/182/182 183/183/183
f 186/186/186 185/185/185 184/184/184
f 187/187/187 185/185/185 186/186/186
f 186/186/186 188/188/188 187/187/187
f 189/189/189 187/187/187 188/188/188
f 190/190/190 187/187/187 189/189/189
f 193/193/193 192/192/192 191/191/191
f 191/191/191 192/192/192 194/194/194
f 197/197/197 196/196/196 195/195/195
f 196/196/196 198/198/198 195/195/195
f 195/195/195 198/198/198 199/199/199
f 200/200/200 195/195/195 199/199/199
f 198/198/198 201/201/201 199/199/199
f 204/204/204 203/203/203 202/202/202
f 203/203/203 204/204/204 205/205/205
f 206/206/206 205/205/205 204/204/204
f 209/209/209 208/208/208 207/207/207
f 210/210/210 209/209/209 207/207/207
f 213/213/213 212/212/212 211/211/211
f 212/212/212 214/214/214 211/211/211
f 211/211/211 214/214/214 215/215/215
f 216/216/216 214/214/214 212/212/212
f 215/215/215 214/214/214 217/217/217
f 214/214/214 216/216/216 218/218/218
f 219/219/219 217/217/217 214/214/214
f 214/214/214 218/218/218 219/219/219
f 222/222/222 221/221/221 220/220/220
f 221/221/221 223/223/223 220/220/220
f 223/223/223 221/221/221 224/224/224
f 225/225/225 220/220/220 223/223/223
f 226/226/226 220/220/220 225/225/225
f 226/226/226 225/225/225 227/227/227
f 225/225/225 223/223/223 228/228/228
f 228/228/228 223/223/223 229/229/229
f 228/228/228 229/229/229 230/230/230
f 231/231/231 228/228/228 230/230/230
f 225/225/225 232/232/232 227/227/227
f 232/232/232 225/225/225 228/228/228
f 232/232/232 228/228/228 231/231/231
f 231/231/231 227/227/227 232/232/232
f 235/235/235 234/234/234 233/233/233
f 236/236/236 234/234/234 235/235/235
f 237/237/237 236/236/236 235/235/235
f 237/237/237 238/238/238 236/236/236
f 236/236/236 238/238/238 239/239/239
f 238/238/238 237/237/237 240/240/240
f 243/243/243 242/242/242 241/241/241
f 243/243/243 244/244/244 242/242/242
f 244/244/244 245/245/245 242/242/242
f 245/245/245 244/244/244 246/246/246
f 249/249/249 248/248/248 247/247/247
f 250/250/250 249/249/249 247/247/247
f 253/253/253 252/252/252 251/251/251
f 254/254/254 253/253/253 251/251/251
f 255/255/255 253/253/253 254/254/254
f 256/256/256 255/255/255 254/254/254
f 257/257/257 255/255/255 256/256/256
f 258/258/258 257/257/257 256/256/256
f 259/259/259 257/257/257 258/258/258
f 260/260/260 259/259/259 258/258/258
f 261/261/261 259/259/259 260/260/260
f 262/262/262 261/261/261 260/260/260
f 265/265/265 264/264/264 263/263/263
f 266/266/266 263/263/263 264/264/264
f 267/267/267 263/263/263 266/266/266
f 267/267/267 266/266/266 268/268/268
f 267/267/267 269/269/269 263/263/263
f 269/269/269 267/267/267 268/268/268
f 272/272/272 271/271/271 270/270/270
f 272/272/272 273/273/273 271/271/271
f 274/274/274 271/271/271 273/273/273
f 274/274/274 275/275/275 271/271/271
f 276/276/276 273/273/273 272/272/272
f 277/277/277 276/276/276 272/272/272
f 280/280/280 279/279/279 278/278/278
f 281/281/281 278/278/278 279/279/279
f 284/284/284 283/283/283 282/282/282
f 283/283/283 285/285/285 282/282/282
f 282/282/282 285/285/285 286/286/286
f 285/285/285 287/287/287 286/286/286
f 286/286/286 287/287/287 288/288/288
f 287/287/287 289/289/289 288/288/288
f 289/289/289 290/290/290 288/288/288
f 290/290/290 289/289/289 291/291/291
f 292/292/292 291/291/291 289/289/289
f 293/293/293 292/292/292 289/289/289
f 292/292/292 294/294/294 291/291/291
f 297/297/297 296/296/296 295/295/295
f 295/295/295 296/296/296 298/298/298
f 295/295/295 298/298/298 299/299/299
f 299/299/299 298/298/298 300/300/300
f 296/296/296 301/301/301 298/298/298
f 298/298/298 302/302/302 300/300/300
f 303/303/303 298/298/298 301/301/301
f 301/301/301 304/304/304 303/303/303
f 305/305/305 304/304/304 301/301/301
f 306/306/306 298/298/298 303/303/303
f 302/302/302 298/298/298 306/306/306
f 303/303/303 307/307/307 306/306/306
f 307/307/307 308/308/308 306/306/306
f 306/306/306 308/308/308 302/302/302
f 308/308/308 309/309/309 302/302/302
f 312/312/312 311/311/311 310/310/310
f 313/313/313 312/312/312 310/310/310
f 310/310/310 314/314/314 313/313/313
f 314/314/314 315/315/315 313/313/313
f 316/316/316 314/314/314 310/310/310
f 317/317/317 316/316/316 310/310/310
f 318/318/318 316/316/316 317/317/317
f 321/321/321 320/320/320 319/319/319
f 320/320/320 322/322/322 319/319/319
f 319/319/319 322/322/322 323/323/323
f 322/322/322 320/320/320 324/324/324
f 323/323/323 322/322/322 325/325/325
f 325/325/325 322/322/322 324/324/324
f 328/328/328 327/327/327 326/326/326
f 326/326/326 329/329/329 328/328/328
f 329/329/329 330/330/330 328/328/328
f 331/331/331 328/328/328 330/330/330
f 330/330/330 332/332/332 331/331/331
f 332/332/332 333/333/333 331/331/331
f 336/336/336 335/335/335 334/334/334
f 335/335/335 337/337/337 334/334/334
f 335/335/335 338/338/338 337/337/337
f 339/339/339 337/337/337 338/338/338
f 339/339/339 340/340/340 337/337/337
f 334/334/334 337/337/337 340/340/340
f 340/340/340 341/341/341 334/334/334
f 344/344/344 343/343/343 342/342/342
f 343/343/343 345/345/345 342/342/342
f 346/346/346 345/345/345 343/343/343
f 346/346/346 347/347/347 345/345/345
f 346/346/346 343/343/343 348/348/348
f 347/347/347 346/346/346 349/349/349
f 348/348/348 349/349/349 346/346/346
f 349/349/349 348/348/348 350/350/350
f 353/353/353 352/352/352 351/351/351
f 354/354/354 353/353/353 351/351/351
f 355/355/355 353/353/353 354/354/354
f 356/356/356 355/355/355 354/354/354
f 359/359/359 358/358/358 357/357/357
f 359/359/359 360/360/360 358/358/358
f 361/361/361 358/358/358 360/360/360
f 364/364/364 363/363/363 362/362/362
f 365/365/365 364/364/364 362/362/362
f 368/368/368 367/367/367 366/366/366
f 369/369/369 368/368/368 366/366/366
f 370/370/370 368/368/368 369/369/369
f 371/371/371 370/370/370 369/369/369
f 370/370/370 372/372/372 368/368/368
f 371/371/371 373/373/373 370/370/370
f 374/374/374 372/372/372 370/370/370
f 373/373/373 374/374/374 370/370/370
f 377/377/377 376/376/376 375/375/375
f 378/378/378 377/377/377 375/375/375
f 379/379/379 377/377/377 378/378/378
f 378/378/378 375/375/375 379/379/379
f 380/380/380 379/379/379 375/375/375
f 381/381/381 380/380/380 375/375/375
f 381/381/381 375/375/375 382/382/382
f 385/385/385 384/384/384 383/383/383
f 383/383/383 386/386/386 385/385/385
f 386/386/386 383/383/383 387/387/387
f 386/386/386 387/387/387 388/388/388
f 389/389/389 387/387/387 383/383/383
f 383/383/383 390/390/390 389/389/389
f 386/386/386 391/391/391 385/385/385
f 392/392/392 391/391/391 386/386/386
f 393/393/393 392/392/392 386/386/386
f 392/392/392 394/394/394 391/391/391
f 394/394/394 395/395/395 391/391/391
f 385/385/385 391/391/391 395/395/395
f 395/395/395 396/396/396 385/385/385
f 385/385/385 396/396/396 397/397/397
f 398/398/398 396/396/396 395/395/395
f 399/399/399 389/389/389 390/390/390
f 400/400/400 399/399/399 390/390/390
f 401/401/401 400/400/400 390/390/390
f 402/402/402 399/399/399 400/400/400
f 389/389/389 399/399/399 402/402/402
f 402/402/402 403/403/403 389/389/389
f 404/404/404 389/389/389 403/403/403
f 400/400/400 401/401/401 405/405/405
f 406/406/406 405/405/405 401/401/401
f 407/407/407 405/405/405 406/406/406
f 408/408/408 406/406/406 401/401/401
f 409/409/409 408/408/408 401/401/401
f 412/412/412 411/411/411 410/410/410
f 411/411/411 412/412/412 413/413/413
f 413/413/413 412/412/412 414/414/414
f 415/415/415 413/413/413 414/414/414
f 416/416/416 414/414/414 412/412/412
f 417/417/417 414/414/414 416/416/416
f 418/418/418 417/417/417 416/416/416
f 421/421/421 420/420/420 419/419/419
f 419/419/419 420/420/420 422/422/422
f 420/420/420 423/423/423 422/422/422
f 423/423/423 420/420/420 424/424/424
f 424/424/424 420/420/420 425/425/425
f 426/426/426 423/423/423 424/424/424
f 424/424/424 425/425/425 427/427/427
f 424/424/424 427/427/427 426/426/426
f 427/427/427 425/425/425 428/428/428
f 426/426/426 427/427/427 428/428/428
f 426/426/426 428/428/428 429/429/429
f 430/430/430 429/429/429 428/428/428
f 431/431/431 430/430/430 428/428/428
f 430/430/430 431/431/431 432/432/432
f 432/432/432 431/431/431 433/433/433
f 434/434/434 430/430/430 432/432/432
f 437/437/437 436/436/436 435/435/435
f 438/438/438 435/435/435 436/436/436
f 438/438/438 436/436/436 439/439/439
f 435/435/435 438/438/438 440/440/440
f 441/441/441 435/435/435 440/440/440
f 441/441/441 442/442/442 435/435/435
f 443/443/443 442/442/442 441/441/441
f 446/446/446 445/445/445 444/444/444
f 444/444/444 445/445/445 447/447/447
f 445/445/445 448/448/448 447/447/447
f 448/448/448 445/445/445 449/449/449
f 448/448/448 449/449/449 450/450/450
f 448/448/448 450/450/450 451/451/451
f 451/451/451 450/450/450 452/452/452
f 453/453/453 452/452/452 450/450/450
f 454/454/454 450/450/450 449/449/449
f 453/453/453 450/450/450 454/454/454
f 449/449/449 455/455/455 454/454/454
f 454/454/454 455/455/455 453/453/453
f 455/455/455 456/456/456 453/453/453
f 459/459/459 458/458/458 457/457/457
f 457/457/457 458/458/458 460/460/460
f 461/461/461 460/460/460 458/458/458
f 458/458/458 462/462/462 461/461/461
f 462/462/462 463/463/463 461/461/461
f 463/463/463 464/464/464 461/461/461
f 467/467/467 466/466/466 465/465/465
f 467/467/467 468/468/468 466/466/466
f 471/471/471 470/470/470 469/469/469
f 472/472/472 469/469/469 470/470/470
f 472/472/472 470/470/470 473/473/473
f 472/472/472 473/473/473 474/474/474
f 475/475/475 472/472/472 474/474/474
f 472/472/472 475/475/475 469/469/469
f 475/475/475 476/476/476 469/469/469
f 479/479/479 478/478/478 477/477/477
f 477/477/477 478/478/478 480/480/480
f 478/478/478 481/481/481 480/480/480
f 484/484/484 483/483/483 482/482/482
f 485/485/485 482/482/482 483/483/483
f 485/485/485 486/486/486 482/482/482
f 482/482/482 486/486/486 487/487/487
f 487/487/487 488/488/488 482/482/482
f 489/489/489 488/488/488 487/487/487
f 490/490/490 487/487/487 486/486/486
f 489/489/489 487/487/487 491/491/491
f 490/490/490 491/491/491 487/487/487
f 490/490/490 492/492/492 491/491/491
f 491/491/491 492/492/492 493/493/493
f 493/493/493 494/494/494 491/491/491
f 495/495/495 493/493/493 492/492/492
f 493/493/493 495/495/495 494/494/494
f 495/495/495 496/496/496 494/494/494
f 499/499/499 498/498/498 497/497/497
f 497/497/497 498/498/498 500/500/500
f 498/498/498 501/501/501 500/500/500
f 502/502/502 501/501/501 498/498/498
f 503/503/503 502/502/502 498/498/498
f 504/504/504 503/503/503 498/498/498
f 507/507/507 506/506/506 505/505/505
f 505/505/505 508/508/508 507/507/507
f 508/508/508 509/509/509 507/507/507
f 507/507/507 509/509/509 510/510/510
f 509/509/509 508/508/508 511/511/511
f 508/508/508 512/512/512 511/511/511
f 513/513/513 509/509/509 511/511/511
f 511/511/511 512/512/512 514/514/514
f 514/514/514 513/513/513 511/511/511
f 512/512/512 515/515/515 514/514/514
f 516/516/516 513/513/513 514/514/514
f 514/514/514 515/515/515 516/516/516
f 515/515/515 517/517/517 516/516/516
f 518/518/518 516/516/516 517/517/517
f 518/518/518 517/517/517 519/519/519
f 519/519/519 517/517/517 520/520/520
f 520/520/520 517/517/517 521/521/521
f 524/524/524 523/523/523 522/522/522
f 524/524/524 525/525/525 523/523/523
f 526/526/526 523/523/523 525/525/525
f 525/525/525 527/527/527 526/526/526
f 525/525/525 528/528/528 527/527/527
f 531/531/531 530/530/530 529/529/529
f 531/531/531 529/529/529 532/532/532
f 535/535/535 534/534/534 533/533/533
f 536/536/536 535/535/535 533/533/533
f 536/536/536 533/533/533 537/537/537
f 533/533/533 538/538/538 537/537/537
f 539/539/539 536/536/536 537/537/537
f 542/542/542 541/541/541 540/540/540
f 541/541/541 542/542/542 543/543/543
f 543/543/543 544/544/544 541/541/541
f 547/547/547 546/546/546 545/545/545
f 548/548/548 547/547/547 545/545/545
f 551/551/551 550/550/550 549/549/549
f 552/552/552 551/551/551 549/549/549
f 552/552/552 549/549/549 553/553/553
f 552/552/552 554/554/554 551/551/551
f 552/552/552 553/553/553 555/555/555
f 554/554/554 552/552/552 556/556/556
f 555/555/555 557/557/557 552/552/552
f 556/556/556 552/552/552 557/557/557
f 560/560/560 559/559/559 558/558/558
f 561/561/561 560/560/560 558/558/558
f 560/560/560 561/561/561 562/562/562
f 558/558/558 563/563/563 561/561/561
f 558/558/558 564/564/564 563/563/563
f 563/563/563 564/564/564 565/565/565
f 561/561/561 563/563/563 566/566/566
f 561/561/561 566/566/566 567/567/567
f 567/567/567 566/566/566 568/568/568
f 566/566/566 569/569/569 568/568/568
f 570/570/570 563/563/563 565/565/565
f 565/565/565 569/569/569 570/570/570
f 566/566/566 570/570/570 569/569/569
f 563/563/563 570/570/570 566/566/566
f 573/573/573 572/572/572 571/571/571
f 573/573/573 574/574/574 572/572/572
f 574/574/574 575/575/575 572/572/572
f 576/576/576 575/575/575 574/574/574
f 576/576/576 574/574/574 577/577/577
f 575/575/575 576/576/576 578/578/578
f 581/581/581 580/580/580 579/579/579
f 582/582/582 580/580/580 581/581/581
f 583/583/583 582/582/582 581/581/581
f 582/582/582 583/583/583 584/584/584
f 587/587/587 586/586/586 585/585/585
f 588/588/588 587/587/587 585/585/585
f 591/591/591 590/590/590 589/589/589
f 590/590/590 592/592/592 589/589/589
f 590/590/590 593/593/593 592/592/592
f 593/593/593 594/594/594 592/592/592
f 593/593/593 595/595/595 594/594/594
f 595/595/595 596/596/596 594/594/594
f 595/595/595 597/597/597 596/596/596
f 597/597/597 598/598/598 596/596/596
f 597/597/597 599/599/599 598/598/598
f 599/599/599 600/600/600 598/598/598
f 603/603/603 602/602/602 601/601/601
f 601/601/601 604/604/604 603/603/603
f 601/601/601 605/605/605 604/604/604
f 604/604/604 605/605/605 606/606/606
f 607/607/607 605/605/605 601/601/601
f 605/605/605 607/607/607 606/606/606
f 610/610/610 609/609/609 608/608/608
f 611/611/611 609/609/609 610/610/610
f 610/610/610 612/612/612 611/611/611
f 613/613/613 612/612/612 610/610/610
f 611/611/611 614/614/614 609/609/609
f 614/614/614 615/615/615 609/609/609
f 618/618/618 617/617/617 616/616/616
f 616/616/616 619/619/619 618/618/618
f 622/622/622 621/621/621 620/620/620
f 623/623/623 622/622/622 620/620/620
f 623/623/623 620/620/620 624/624/624
f 625/625/625 623/623/623 624/624/624
f 625/625/625 624/624/624 626/626/626
f 627/627/627 625/625/625 626/626/626
f 628/628/628 627/627/627 626/626/626
f 627/627/627 628/628/628 629/629/629
f 629/629/629 630/630/630 627/627/627
f 630/630/630 631/631/631 627/627/627
f 632/632/632 630/630/630 629/629/629
f 635/635/635 634/634/634 633/633/633
f 635/635/635 633/633/633 636/636/636
f 636/636/636 633/633/633 637/637/637
f 636/636/636 637/637/637 638/638/638
f 639/639/639 635/635/635 636/636/636
f 640/640/640 636/636/636 638/638/638
f 636/636/636 641/641/641 639/639/639
f 642/642/642 639/639/639 641/641/641
f 642/642/642 643/643/643 639/639/639
f 636/636/636 644/644/644 641/641/641
f 636/636/636 640/640/640 644/644/644
f 645/645/645 641/641/641 644/644/644
f 646/646/646 645/645/645 644/644/644
f 646/646/646 644/644/644 640/640/640
f 647/647/647 646/646/646 640/640/640
f 650/650/650 649/649/649 648/648/648
f 649/649/649 651/651/651 648/648/648
f 652/652/652 648/648/648 651/651/651
f 653/653/653 652/652/652 651/651/651
f 652/652/652 654/654/654 648/648/648
f 654/654/654 655/655/655 648/648/648
f 654/654/654 656/656/656 655/655/655
f 659/659/659 658/658/658 657/657/657
f 660/660/660 659/659/659 657/657/657
f 660/660/660 657/657/657 661/661/661
f 659/659/659 660/660/660 662/662/662
f 660/660/660 661/661/661 663/663/663
f 660/660/660 663/663/663 662/662/662
f 666/666/666 665/665/665 664/664/664
f 667/667/667 664/664/664 665/665/665
f 668/668/668 667/667/667 665/665/665
f 665/665/665 669/669/669 668/668/668
f 670/670/670 668/668/668 669/669/669
f 671/671/671 670/670/670 669/669/669
f 674/674/674 673/673/673 672/672/672
f 675/675/675 674/674/674 672/672/672
f 676/676/676 674/674/674 675/675/675
f 675/675/675 677/677/677 676/676/676
f 678/678/678 677/677/677 675/675/675
f 675/675/675 672/672/672 678/678/678
f 679/679/679 678/678/678 672/672/672
f 682/682/682 681/681/681 680/680/680
f 683/683/683 682/682/682 680/680/680
f 683/683/683 684/684/684 682/682/682
f 685/685/685 684/684/684 683/683/683
f 682/682/682 684/684/684 686/686/686
f 684/684/684 685/685/685 687/687/687
f 687/687/687 686/686/686 684/684/684
f 686/686/686 687/687/687 688/688/688
f 691/691/691 690/690/690 689/689/689
f 690/690/690 692/692/692 689/689/689
f 690/690/690 693/693/693 692/692/692
f 693/693/693 694/694/694 692/692/692
f 697/697/697 696/696/696 695/695/695
f 698/698/698 696/696/696 697/697/697
f 697/697/697 699/699/699 698/698/698
f 702/702/702 701/701/701 700/700/700
f 703/703/703 702/702/702 700/700/700
f 706/706/706 705/705/705 704/704/704
f 705/705/705 707/707/707 704/704/704
f 705/705/705 708/708/708 707/707/707
f 708/708/708 709/709/709 707/707/707
f 710/710/710 708/708/708 705/705/705
f 711/711/711 709/709/709 708/708/708
f 710/710/710 712/712/712 708/708/708
f 712/712/712 711/711/711 708/708/708
