g 0.1667
v 0.28744984 -0.25448823 3.057695
v 0.07863118 -0.21636525 3.1885388
v 0.28017947 -0.20488441 3.2042856
v -0.7168308 0.8840678 2.1753092
v -0.7190472 0.9654627 2.079809
v -0.6988317 0.90567505 2.0600495
v 0.82530665 -0.26861113 2.0813692
v 1.0634744 -0.19063884 1.6223049
v 1.0642134 -0.36103952 1.8721501
v 0.82530665 -0.26861113 2.0813692
v 0.81182534 -0.16367964 2.066265
v 1.0634744 -0.19063884 1.6223049
v 0.046536893 -0.7970555 2.3910933
v 0.19870022 -0.78976303 2.625772
v 0.36642534 -0.52468514 2.5459497
v 0.20424616 0.3282799 3.3955173
v 0.39698976 0.37074667 3.3154929
v 0.34230235 0.32262206 3.2289093
v -1.0453718 0.44590932 3.0053132
v -0.80621964 0.32433233 3.0910015
v -0.8692346 0.3321199 2.84414
v -0.40091002 -1.1171101 1.5517925
v -0.6229276 -1.1682811 1.3246644
v -0.6786892 -0.9750241 1.4476805
v -0.42418125 -0.9636766 1.6913805
v -0.40091002 -1.1171101 1.5517925
v -0.6786892 -0.9750241 1.4476805
v 0.021485405 0.8895957 1.1269313
v 0.02568635 0.7299569 0.9291293
v 0.42716604 0.72561735 1.0666348
v 0.49383277 0.83304507 1.2629193
v 0.17540081 0.89015007 1.187849
v 0.290359 0.9185052 1.3779793
v 0.30701 0.95000523 1.6196829
v 0.5071323 0.87279946 1.6377392
v 0.8348999 0.5126206 1.6772479
v 0.8952099 0.5221961 1.2299286
v 0.63090014 0.7548084 1.7046497
v 0.5263403 0.9105655 1.7789987
v 0.319817 0.9779979 1.77387
v 0.5611635 0.9734093 2.0015535
v 0.22238788 1.0530663 1.907082
v 0.960544 1.0460415 1.9728649
v 0.38559556 1.0365113 2.011306
v 0.048964716 1.1544815 2.0164573
v 0.46677667 0.9794328 2.1612015
v 0.046217997 1.1218919 1.8854634
v -0.10463769 1.0908053 1.8968503
v -0.15482257 1.0687213 1.8534977
v -0.49472967 1.0436692 1.9722364
v -0.31835818 0.97382057 1.6119198
v -0.5001789 0.9249992 1.5646871
v -0.3931495 0.89069206 1.4002736
v 0.48408458 0.9828248 2.0750535
v -0.56600034 0.8720615 1.2364521
v -0.38985428 0.87171614 1.3341745
v -0.27843276 0.86606693 1.1746929
v -0.9779813 0.5303009 1.1961294
v -0.97655493 0.60424894 1.557318
v -0.9140554 0.65519536 1.5963527
v -0.81227106 0.7441043 1.6721975
v -0.7279876 0.8940011 1.9832038
v -0.85505086 0.7781054 1.6706371
v -0.6988317 0.90567505 2.0600495
v -0.7190472 0.9654627 2.079809
v -0.4110575 1.003882 2.4372032
v -0.7168308 0.8840678 2.1753092
v -0.89404607 0.712915 2.4364533
v -0.3815645 0.9641139 2.5311508
v -0.8703847 0.6738462 2.61641
v -0.058931027 1.0359211 2.4372954
v 0.100423306 1.0564128 2.4084857
v -0.96876144 1.0175977 1.9947779
v -1.08551 0.88829875 1.5956292
v -1.4974248 0.87059766 2.143342
v -1.2620512 0.8408974 2.3857307
v -1.5615458 0.5668291 1.6491454
v 0.53506565 0.96096957 2.2610831
v 0.21090624 1.024681 2.4267778
v 0.5511149 0.8672472 2.4341016
v 0.53013957 0.9548265 2.3995714
v 0.39390135 0.9614893 2.447595
v 0.45175797 0.8732431 2.6337361
v 0.75330657 1.0187254 2.413797
v 0.96644133 0.9064219 2.482532
v 1.1666194 0.8931257 2.0094228
v 0.9999889 0.83598334 1.7785604
v -0.9318871 -0.6087485 1.2662944
v -0.774542 -0.6264657 1.1719285
v -0.75530434 -0.5412068 1.0579325
v -0.71834195 -0.76259273 1.2932923
v -0.6855026 -0.86179566 1.3914558
v -0.94742846 -0.5236015 1.8141851
v -0.6223175 -0.89638186 1.5147368
v -0.54237425 -0.877324 1.891008
v -0.5441498 -0.9581274 1.5825418
v -0.42418125 -0.9636766 1.6913805
v -0.53355914 -0.75117767 2.2857456
v -0.91684526 -0.4182587 2.2606204
v -0.039284073 -1.0033334 1.9398937
v -0.3480546 -0.9941608 1.6224368
v 0.046536893 -0.7970555 2.3910933
v -0.5242031 -0.68424463 2.382513
v -0.7603302 -0.3978722 2.4428875
v -0.76638013 -0.17105156 2.718203
v -0.6895504 -0.24636543 2.7065387
v -0.6648902 -0.1914464 2.82626
v -0.7381896 -0.07796118 2.9590552
v -0.70848775 0.014680773 3.1980495
v -0.6321944 -0.17203873 2.9204109
v -0.4756856 -0.21711701 3.0721385
v -0.36972764 -0.19152656 3.1442285
v -0.4838881 0.10801464 3.4053662
v -0.37344217 0.14710128 3.5054228
v -0.20229053 -0.18572992 3.1970332
v -0.2557947 0.18873656 3.612003
v -0.12508197 -0.19779018 3.2055118
v 0.22059718 0.27319354 3.4323213
v 0.010314662 -0.16450316 3.2116637
v 0.7797764 -0.322258 1.4068979
v 0.6588312 -0.35307026 1.3017243
v 0.74146867 -0.40478617 1.4554126
v 0.40814966 -0.5533065 1.1264642
v 0.44758925 -0.6872474 1.4425266
v 0.6094831 -0.541105 1.629516
v 0.46882167 -0.73990816 1.8757674
v 0.59661907 -0.5813628 1.7565159
v 0.5984074 -0.5946251 1.8428636
v 0.5767052 -0.5757953 1.9549742
v 0.44414073 -0.6714976 2.3249128
v 0.6640427 -0.43149337 2.103024
v 0.58091265 -0.49911493 2.2534523
v 0.70989925 -0.32535535 2.1918554
v 0.72482085 -0.34098998 2.107963
v 0.7417845 -0.21063742 2.125626
v 0.77319187 -0.12257734 2.0365176
v 0.422004 -0.45969242 2.5546184
v 0.36642534 -0.52468514 2.5459497
v 0.43818218 -0.34003454 2.6468086
v 0.7747852 0.060922146 2.1789043
v 0.8629788 -0.10752167 1.7817147
v 0.89922744 0.0050965697 1.7668414
v 0.9167359 -0.07648723 1.535995
v 0.9975707 -0.017323539 1.314702
v 0.8296104 -0.27460527 1.4109399
v 0.88325924 0.22914119 1.6709067
v 0.8952099 0.5221961 1.2299286
v 0.86903006 0.35277212 1.641614
v 0.8348999 0.5126206 1.6772479
v 0.8778232 0.173673 1.7412548
v 0.87070626 0.108157694 1.8290845
v 0.77114 0.13303515 2.1695044
v 0.66253006 0.110551804 2.6369
v 0.65467787 0.295013 2.5978365
v 0.5179501 0.23001957 3.0243404
v 0.45993346 0.5549582 2.9295022
v 0.5961891 -0.22371346 2.6117663
v 0.60568833 0.41001156 2.6660876
v 0.603906 0.5328814 2.6324232
v 0.422894 -0.30186993 2.6922462
v 0.36544916 -0.24519461 2.936719
v 0.46232143 -0.46533832 2.6305413
v 0.54685986 -0.096048325 3.009628
v 0.28744984 -0.25448823 3.057695
v 0.07479763 -0.6407878 3.159449
v 0.19870022 -0.78976303 2.625772
v 0.28017947 -0.20488441 3.2042856
v 0.22059718 0.27319354 3.4323213
v 0.20424616 0.3282799 3.3955173
v 0.34230235 0.32262206 3.2289093
v 0.40298656 0.48163697 3.0527892
v 0.39698976 0.37074667 3.3154929
v 0.46895403 0.5767072 3.1295862
v 0.42344546 0.55855477 2.9609878
v 0.44481218 0.6353513 2.88099
v 0.416396 1.0423436 3.362019
v -0.116166234 0.825402 3.759746
v 0.5367059 0.78355026 2.9489737
v 0.46985942 0.8934281 2.7033093
v 0.45175797 0.8732431 2.6337361
v 0.39885542 1.0091938 2.4613035
v 0.39390135 0.9614893 2.447595
v 0.5511149 0.8672472 2.4341016
v 0.53013957 0.9548265 2.3995714
v 0.53506565 0.96096957 2.2610831
v -0.17021145 -0.35232162 0.75132275
v -0.29092896 -0.5049578 0.9019415
v -0.041055836 -0.6348224 0.9974977
v -0.40970102 -0.4256916 0.8403284
v -0.49778178 -0.47412282 0.89467937
v 0.20424616 0.3282799 3.3955173
v 0.22059718 0.27319354 3.4323213
v -0.2557947 0.18873656 3.612003
v -0.0710402 0.2661602 3.5092156
v -0.116166234 0.825402 3.759746
v 0.39698976 0.37074667 3.3154929
v -0.26845092 0.3924625 3.499806
v -0.35221994 0.3123762 3.4483209
v -0.47495544 0.66633105 3.6457148
v -0.37391222 1.0574613 3.6626644
v -0.97112775 0.92280006 3.2739677
v -0.4538743 1.2755226 3.3373716
v 0.19504404 1.3131472 3.3016577
v 0.416396 1.0423436 3.362019
v -0.5354558 0.28146684 3.2659028
v -0.4838881 0.10801464 3.4053662
v -0.70848775 0.014680773 3.1980495
v -0.80844283 0.3632361 3.1209674
v 0.010314662 -0.16450316 3.2116637
v 0.22059718 0.27319354 3.4323213
v 0.28017947 -0.20488441 3.2042856
v 0.07863118 -0.21636525 3.1885388
v -0.190898 -0.55312896 3.243346
v -0.12508197 -0.19779018 3.2055118
v -0.20229053 -0.18572992 3.1970332
v 0.07479763 -0.6407878 3.159449
v 0.28744984 -0.25448823 3.057695
v -0.37587002 -0.29017457 3.1929886
v -0.6881947 -0.6071246 2.9468606
v -0.36972764 -0.19152656 3.1442285
v -0.75437933 -0.3080562 2.902138
v -0.4756856 -0.21711701 3.0721385
v -0.6321944 -0.17203873 2.9204109
v 0.36642534 -0.52468514 2.5459497
v 0.44414073 -0.6714976 2.3249128
v 0.46882167 -0.73990816 1.8757674
v -0.029551838 -0.9806826 1.3923408
v -0.124728166 -1.1766074 1.2050574
v 0.44758925 -0.6872474 1.4425266
v 0.08269719 -0.78694373 1.2262495
v 0.050355963 -0.7179128 1.1097828
v 0.40814966 -0.5533065 1.1264642
v 0.86903006 0.35277212 1.641614
v 0.88325924 0.22914119 1.6709067
v 0.97658944 0.23998447 1.634427
v 0.8348999 0.5126206 1.6772479
v 0.9999889 0.83598334 1.7785604
v 1.2579763 0.415245 1.8181757
v 1.1666194 0.8931257 2.0094228
v 0.63090014 0.7548084 1.7046497
v 0.960544 1.0460415 1.9728649
v 0.5263403 0.9105655 1.7789987
v 0.8778232 0.173673 1.7412548
v 0.97658944 0.23998447 1.634427
v 0.88325924 0.22914119 1.6709067
v 0.97033006 0.14126047 1.7655828
v 0.87070626 0.108157694 1.8290845
v 0.96244323 0.046912655 1.9003959
v 0.77114 0.13303515 2.1695044
v 0.94638425 0.2270124 2.3365471
v 1.2532214 0.2697849 2.0489569
v 0.65467787 0.295013 2.5978365
v 0.7288021 0.3368552 2.660304
v 0.60568833 0.41001156 2.6660876
v 0.603906 0.5328814 2.6324232
v 0.7288021 0.3368552 2.660304
v 0.60568833 0.41001156 2.6660876
v 0.96644133 0.9064219 2.482532
v 1.0421014 0.45021343 2.5130937
v 0.75330657 1.0187254 2.413797
v 0.5511149 0.8672472 2.4341016
v 0.7288021 0.3368552 2.660304
v 1.0421014 0.45021343 2.5130937
v 0.94638425 0.2270124 2.3365471
v 1.2532214 0.2697849 2.0489569
v 1.2319702 0.6715419 2.1828291
v 0.96644133 0.9064219 2.482532
v 1.1666194 0.8931257 2.0094228
v 1.2579763 0.415245 1.8181757
v 0.97033006 0.14126047 1.7655828
v 0.97658944 0.23998447 1.634427
v 0.96244323 0.046912655 1.9003959
v -1.1624061 0.4066339 2.7155914
v -1.5240412 0.3171707 2.3513563
v -1.5513057 0.6559588 2.343444
v -1.664812 0.3543596 1.8309656
v -1.3887906 -0.0784574 2.0295274
v -1.4974248 0.87059766 2.143342
v -1.5615458 0.5668291 1.6491454
v -1.2118919 0.020129666 1.5510749
v -1.1208887 -0.17097943 1.7514634
v -1.1347487 -0.13925847 1.614914
v -1.664812 0.3543596 1.8309656
v -1.3887906 -0.0784574 2.0295274
v -1.080437 -0.097864 2.1455884
v -1.0770786 -0.079413354 2.2054377
v -1.1678853 0.08682424 2.6066554
v -1.5240412 0.3171707 2.3513563
v -1.0099365 0.00011304021 2.3730717
v -0.9125502 0.118159056 2.5682192
v -1.4974248 0.87059766 2.143342
v -1.2620512 0.8408974 2.3857307
v -1.5513057 0.6559588 2.343444
v -1.1624061 0.4066339 2.7155914
v -0.889696 0.47145623 2.6814916
v -0.89404607 0.712915 2.4364533
v -0.7168308 0.8840678 2.1753092
v -0.7190472 0.9654627 2.079809
v -0.91817766 0.29394907 2.6281629
v -0.91258746 0.2651079 2.6168704
v -1.1678853 0.08682424 2.6066554
v -0.9125502 0.118159056 2.5682192
v -1.5240412 0.3171707 2.3513563
v 0.99193054 -0.6145791 1.8283548
v 0.85964906 -0.60077584 2.0317183
v 0.96415365 -0.46132872 2.0216954
v 1.099226 -0.51867473 1.8007753
v 1.0642134 -0.36103952 1.8721501
v 0.82530665 -0.26861113 2.0813692
v 1.0634744 -0.19063884 1.6223049
v 1.026814 -0.23346184 1.4640131
v 1.0634744 -0.19063884 1.6223049
v 0.9167359 -0.07648723 1.535995
v 1.026814 -0.23346184 1.4640131
v 0.8629788 -0.10752167 1.7817147
v 0.81182534 -0.16367964 2.066265
v 0.77319187 -0.12257734 2.0365176
v 0.81182534 -0.16367964 2.066265
v 0.7417845 -0.21063742 2.125626
v 0.77319187 -0.12257734 2.0365176
v 0.82530665 -0.26861113 2.0813692
v 0.96415365 -0.46132872 2.0216954
v 0.85964906 -0.60077584 2.0317183
v 0.72482085 -0.34098998 2.107963
v 0.6640427 -0.43149337 2.103024
v 0.5767052 -0.5757953 1.9549742
v 0.6094831 -0.541105 1.629516
v 0.59661907 -0.5813628 1.7565159
v 0.7230625 -0.6748254 1.6812246
v 0.5984074 -0.5946251 1.8428636
v 0.5767052 -0.5757953 1.9549742
v 0.85964906 -0.60077584 2.0317183
v 0.99193054 -0.6145791 1.8283548
v 1.099226 -0.51867473 1.8007753
v 0.84696835 -0.5811739 1.5688214
v 0.6094831 -0.541105 1.629516
v 0.7230625 -0.6748254 1.6812246
v 0.84696835 -0.5811739 1.5688214
v 0.74146867 -0.40478617 1.4554126
v 0.7797764 -0.322258 1.4068979
v 1.026814 -0.23346184 1.4640131
v 1.099226 -0.51867473 1.8007753
v 0.8296104 -0.27460527 1.4109399
v 0.9167359 -0.07648723 1.535995
v 0.6588312 -0.35307026 1.3017243
v 0.71226865 -0.032918096 1.0627466
v 0.3466751 -0.15926632 0.84983706
v 0.9975707 -0.017323539 1.314702
v 0.40814966 -0.5533065 1.1264642
v 0.050355963 -0.7179128 1.1097828
v 0.8952099 0.5221961 1.2299286
v 0.014206498 -0.65929294 1.0386415
v 0.63254064 0.40587622 0.9464575
v 0.49383277 0.83304507 1.2629193
v 0.42716604 0.72561735 1.0666348
v 0.02568635 0.7299569 0.9291293
v 0.18441406 0.34185964 0.79031026
v -0.43716305 0.6082644 0.89783126
v -0.34061724 0.18583499 0.77383906
v -0.17021145 -0.35232162 0.75132275
v -0.041055836 -0.6348224 0.9974977
v -0.0011834232 -0.782577 0.9840273
v -0.29092896 -0.5049578 0.9019415
v -0.28181797 -0.5703572 0.82182693
v -0.40970102 -0.4256916 0.8403284
v -0.30304384 -0.9847568 0.8081882
v -0.5912367 -0.50637734 0.8334168
v 0.018577255 -1.011929 1.1203575
v -0.124728166 -1.1766074 1.2050574
v -0.7805845 -0.6508234 0.87758434
v -0.7081269 -0.98068887 1.0105864
v -0.44818622 -1.1247315 0.91912764
v -0.7945758 -0.012348555 0.90011734
v -0.6506463 -0.49651864 0.9341752
v -0.49778178 -0.47412282 0.89467937
v -0.82582676 0.41624472 0.97794515
v -1.1842641 -0.031907186 1.2002548
v -0.75530434 -0.5412068 1.0579325
v -0.9318871 -0.6087485 1.2662944
v -0.9779813 0.5303009 1.1961294
v -0.56600034 0.8720615 1.2364521
v -0.27843276 0.86606693 1.1746929
v -0.22845419 0.8391676 1.1336222
v -0.11075669 0.84252733 1.1071196
v -0.32792816 0.9673369 1.1295935
v 0.021485405 0.8895957 1.1269313
v 0.043213207 1.027884 1.0442724
v -0.18206386 1.3280146 1.2857401
v 0.18570513 1.229666 1.2181041
v 0.20186177 0.9310798 1.1733451
v 0.17540081 0.89015007 1.187849
v 0.3384038 1.1875303 1.3268895
v 0.36642534 -0.52468514 2.5459497
v 0.19870022 -0.78976303 2.625772
v 0.46232143 -0.46533832 2.6305413
v 0.422004 -0.45969242 2.5546184
v 0.43818218 -0.34003454 2.6468086
v -0.7603302 -0.3978722 2.4428875
v -0.6889957 -0.73398805 2.5082576
v -0.5242031 -0.68424463 2.382513
v 0.046536893 -0.7970555 2.3910933
v -0.7603302 -0.3978722 2.4428875
v -0.6881947 -0.6071246 2.9468606
v -0.6889957 -0.73398805 2.5082576
v -0.75437933 -0.3080562 2.902138
v -0.6895504 -0.24636543 2.7065387
v -0.6648902 -0.1914464 2.82626
v -0.6321944 -0.17203873 2.9204109
v 0.07479763 -0.6407878 3.159449
v 0.19870022 -0.78976303 2.625772
v 0.046536893 -0.7970555 2.3910933
v -0.17754598 -0.7792276 2.9984708
v -0.190898 -0.55312896 3.243346
v -0.6889957 -0.73398805 2.5082576
v -0.6881947 -0.6071246 2.9468606
v -0.80844283 0.3632361 3.1209674
v -0.80621964 0.32433233 3.0910015
v -1.0453718 0.44590932 3.0053132
v -0.97112775 0.92280006 3.2739677
v -0.89915764 1.1254618 2.970464
v -0.4538743 1.2755226 3.3373716
v -0.97112775 0.92280006 3.2739677
v -0.9594796 0.6623999 2.6441479
v -0.4444275 1.0972947 2.608956
v -1.0453718 0.44590932 3.0053132
v -0.8692346 0.3321199 2.84414
v -0.88487726 0.48150715 2.7108648
v -0.889696 0.47145623 2.6814916
v -0.89404607 0.712915 2.4364533
v -0.8703847 0.6738462 2.61641
v -0.91817766 0.29394907 2.6281629
v -0.91258746 0.2651079 2.6168704
v -0.7381896 -0.07796118 2.9590552
v -0.80621964 0.32433233 3.0910015
v -0.80844283 0.3632361 3.1209674
v -0.70848775 0.014680773 3.1980495
v -0.76638013 -0.17105156 2.718203
v -0.9125502 0.118159056 2.5682192
v -0.91684526 -0.4182587 2.2606204
v -1.0099365 0.00011304021 2.3730717
v -1.0770786 -0.079413354 2.2054377
v -0.94742846 -0.5236015 1.8141851
v -1.080437 -0.097864 2.1455884
v -1.1208887 -0.17097943 1.7514634
v -0.9318871 -0.6087485 1.2662944
v -1.1347487 -0.13925847 1.614914
v -1.1842641 -0.031907186 1.2002548
v -1.2118919 0.020129666 1.5510749
v -1.1439896 0.1599668 1.4339656
v -1.097319 0.28070167 1.4265841
v -0.9779813 0.5303009 1.1961294
v -1.0132641 0.50617754 1.514134
v -0.97655493 0.60424894 1.557318
v 0.19504404 1.3131472 3.3016577
v 0.5367059 0.78355026 2.9489737
v 0.416396 1.0423436 3.362019
v 0.46985942 0.8934281 2.7033093
v 0.39885542 1.0091938 2.4613035
v 0.08258717 1.208626 2.4479558
v -0.20388196 1.3802499 2.8087819
v -0.4444275 1.0972947 2.608956
v -0.89915764 1.1254618 2.970464
v -0.4538743 1.2755226 3.3373716
v -0.37391222 1.0574613 3.6626644
v 0.39390135 0.9614893 2.447595
v 0.39885542 1.0091938 2.4613035
v 0.08258717 1.208626 2.4479558
v 0.21090624 1.024681 2.4267778
v 0.100423306 1.0564128 2.4084857
v -0.058931027 1.0359211 2.4372954
v -0.4444275 1.0972947 2.608956
v -0.3815645 0.9641139 2.5311508
v -0.8703847 0.6738462 2.61641
v -0.9594796 0.6623999 2.6441479
v -0.88487726 0.48150715 2.7108648
v 0.319817 0.9779979 1.77387
v 0.22238788 1.0530663 1.907082
v 0.26419243 1.1673954 1.873638
v 0.33998725 1.0011213 1.7706621
v 0.30701 0.95000523 1.6196829
v 0.3384038 1.1875303 1.3268895
v 0.3346879 0.9696556 1.396424
v 0.290359 0.9185052 1.3779793
v 0.20186177 0.9310798 1.1733451
v 0.17540081 0.89015007 1.187849
v -0.03936775 1.2572267 1.850203
v 0.26419243 1.1673954 1.873638
v 0.22238788 1.0530663 1.907082
v 0.046217997 1.1218919 1.8854634
v -0.10463769 1.0908053 1.8968503
v -0.18206386 1.3280146 1.2857401
v 0.18570513 1.229666 1.2181041
v 0.3384038 1.1875303 1.3268895
v -0.02179568 1.3651267 1.4694927
v -0.253997 1.3160408 1.476187
v 0.26419243 1.1673954 1.873638
v -0.03936775 1.2572267 1.850203
v -0.27843276 0.86606693 1.1746929
v -0.22845419 0.8391676 1.1336222
v -0.32792816 0.9673369 1.1295935
v -0.38985428 0.87171614 1.3341745
v -0.42925817 0.95834553 1.2969589
v -0.3931495 0.89069206 1.4002736
v -0.18206386 1.3280146 1.2857401
v -0.31835818 0.97382057 1.6119198
v -0.253997 1.3160408 1.476187
v -0.31194317 1.1395916 1.6178977
v -0.15482257 1.0687213 1.8534977
v -0.03936775 1.2572267 1.850203
v -0.10463769 1.0908053 1.8968503
v -0.7081269 -0.98068887 1.0105864
v -0.7805845 -0.6508234 0.87758434
v -0.85230005 -0.6344936 0.9977399
v -0.6229276 -1.1682811 1.3246644
v -0.6786892 -0.9750241 1.4476805
v -0.71834195 -0.76259273 1.2932923
v -0.6223175 -0.89638186 1.5147368
v -0.6855026 -0.86179566 1.3914558
v -0.774542 -0.6264657 1.1719285
v -0.75530434 -0.5412068 1.0579325
v -0.28181797 -0.5703572 0.82182693
v -0.29092896 -0.5049578 0.9019415
v -0.49778178 -0.47412282 0.89467937
v -0.5912367 -0.50637734 0.8334168
v -0.6506463 -0.49651864 0.9341752
v -0.7805845 -0.6508234 0.87758434
v -0.85230005 -0.6344936 0.9977399
v -0.75530434 -0.5412068 1.0579325
v -0.6223175 -0.89638186 1.5147368
v -0.5441498 -0.9581274 1.5825418
v -0.42418125 -0.9636766 1.6913805
v -0.6786892 -0.9750241 1.4476805
v -0.40091002 -1.1171101 1.5517925
v -0.124728166 -1.1766074 1.2050574
v -0.6229276 -1.1682811 1.3246644
v -0.44818622 -1.1247315 0.91912764
v -0.7081269 -0.98068887 1.0105864
v -0.30304384 -0.9847568 0.8081882
v 0.018577255 -1.011929 1.1203575
v -0.124728166 -1.1766074 1.2050574
v -0.029551838 -0.9806826 1.3923408
v 0.08269719 -0.78694373 1.2262495
v -0.0011834232 -0.782577 0.9840273
v 0.050355963 -0.7179128 1.1097828
v 0.014206498 -0.65929294 1.0386415
v -0.3480546 -0.9941608 1.6224368
v -0.124728166 -1.1766074 1.2050574
v -0.40091002 -1.1171101 1.5517925
v -0.42418125 -0.9636766 1.6913805
v -0.35221994 0.3123762 3.4483209
v -0.4838881 0.10801464 3.4053662
v -0.5354558 0.28146684 3.2659028
v -0.37344217 0.14710128 3.5054228
v -0.26845092 0.3924625 3.499806
v -0.2557947 0.18873656 3.612003
v -1.2118919 0.020129666 1.5510749
v -1.1439896 0.1599668 1.4339656
v -1.664812 0.3543596 1.8309656
v -1.2220633 0.4458266 1.4402647
v -1.5615458 0.5668291 1.6491454
v -1.097319 0.28070167 1.4265841
v -1.08551 0.88829875 1.5956292
v -1.0132641 0.50617754 1.514134
v -0.97655493 0.60424894 1.557318
v -0.9140554 0.65519536 1.5963527
v -0.85505086 0.7781054 1.6706371
v -0.81227106 0.7441043 1.6721975
v -0.5354558 0.28146684 3.2659028
v -0.47495544 0.66633105 3.6457148
v -0.35221994 0.3123762 3.4483209
v -0.80844283 0.3632361 3.1209674
v -0.97112775 0.92280006 3.2739677
v 1.279129 0.7892781 0.93950033
v 0.8118724 0.28030193 1.446236
v 0.6509023 0.4992397 1.3043199
v 1.4312991 0.64410555 1.0277684
v 1.847266 1.0559008 0.1665156
v 1.8062553 1.0851848 0.15212548
v 1.4312991 0.64410555 1.0277684
v 0.80382013 0.109460145 1.1918081
v 0.8118724 0.28030193 1.446236
v 1.3929024 0.4992919 0.8557937
v 1.8323958 1.0185535 0.13289182
v 1.847266 1.0559008 0.1665156
v 0.8118724 0.28030193 1.446236
v 0.80382013 0.109460145 1.1918081
v 0.6428496 0.32839787 1.0498916
v 0.6509023 0.4992397 1.3043199
v 1.3929024 0.4992919 0.8557937
v 0.6428496 0.32839787 1.0498916
v 0.80382013 0.109460145 1.1918081
v 1.2407227 0.6444592 0.767525
v 1.7913852 1.0478375 0.11850173
v 1.8323958 1.0185535 0.13289182
v 1.2407227 0.6444592 0.767525
v 1.279129 0.7892781 0.93950033
v 0.6509023 0.4992397 1.3043199
v 0.6428496 0.32839787 1.0498916
v 1.2407227 0.6444592 0.767525
v 1.7913852 1.0478375 0.11850173
v 1.8062553 1.0851848 0.15212548
v 1.279129 0.7892781 0.93950033
v 1.8062553 1.0851848 0.15212548
v 1.7913852 1.0478375 0.11850173
v 1.8323958 1.0185535 0.13289182
v 1.847266 1.0559008 0.1665156
v 0.6862686 -1.0897278 0.8585248
v 0.33466858 -0.7708974 1.5864437
v 0.5401541 -0.5956698 1.4413356
v 0.55810136 -1.2445734 0.9479954
v 0.9116202 -0.97854924 -0.047498345
v 0.9413476 -0.9394928 -0.029130697
v 0.55810136 -1.2445734 0.9479954
v 0.12862998 -0.7104938 1.3676175
v 0.33466858 -0.7708974 1.5864437
v 0.37981516 -1.1734896 0.8207561
v 0.87375814 -0.94424427 -0.05916536
v 0.9116202 -0.97854924 -0.047498345
v 0.33466858 -0.7708974 1.5864437
v 0.12862998 -0.7104938 1.3676175
v 0.33242828 -0.5415717 1.2270257
v 0.5401541 -0.5956698 1.4413356
v 0.37981516 -1.1734896 0.8207561
v 0.33242828 -0.5415717 1.2270257
v 0.12862998 -0.7104938 1.3676175
v 0.52430505 -0.99085224 0.804181
v 0.9034856 -0.9051877 -0.04079759
v 0.87375814 -0.94424427 -0.05916536
v 0.52430505 -0.99085224 0.804181
v 0.6862686 -1.0897278 0.8585248
v 0.5401541 -0.5956698 1.4413356
v 0.33242828 -0.5415717 1.2270257
v 0.52430505 -0.99085224 0.804181
v 0.9034856 -0.9051877 -0.04079759
v 0.9413476 -0.9394928 -0.029130697
v 0.6862686 -1.0897278 0.8585248
v 0.9413476 -0.9394928 -0.029130697
v 0.9034856 -0.9051877 -0.04079759
v 0.87375814 -0.94424427 -0.05916536
v 0.9116202 -0.97854924 -0.047498345
v -1.4433441 -0.67734396 0.8783156
v -0.83578706 -0.51841706 1.5530459
v -0.78719413 -0.7740386 1.3909293
v -1.5213896 -0.50132316 1.0005662
v -1.9914212 -0.47649688 0.07168499
v -1.9668682 -0.51751226 0.050205275
v -1.5213896 -0.50132316 1.0005662
v -0.76031244 -0.34917855 1.3088179
v -0.83578706 -0.51841706 1.5530459
v -1.4049804 -0.35725906 0.867455
v -1.9580531 -0.44396603 0.047709793
v -1.9914212 -0.47649688 0.07168499
v -0.83578706 -0.51841706 1.5530459
v -0.76031244 -0.34917855 1.3088179
v -0.7117196 -0.6047992 1.1467011
v -0.78719413 -0.7740386 1.3909293
v -1.4049804 -0.35725906 0.867455
v -1.3269359 -0.5332856 0.74520415
v -0.7117196 -0.6047992 1.1467011
v -0.76031244 -0.34917855 1.3088179
v -1.3269359 -0.5332856 0.74520415
v -0.78719413 -0.7740386 1.3909293
v -0.7117196 -0.6047992 1.1467011
v -1.4433441 -0.67734396 0.8783156
v -1.9668682 -0.51751226 0.050205275
v -1.9334998 -0.48498145 0.026230186
v -1.9668682 -0.51751226 0.050205275
v -1.9334998 -0.48498145 0.026230186
v -1.9580531 -0.44396603 0.047709793
v -1.9914212 -0.47649688 0.07168499
v -1.4049804 -0.35725906 0.867455
v -1.9580531 -0.44396603 0.047709793
v -1.9334998 -0.48498145 0.026230186
v -1.3269359 -0.5332856 0.74520415
v -1.0654542 0.3133669 0.7579563
v -0.6907191 0.8621791 1.41917
v -0.55683184 0.5888705 1.4560759
v -1.153827 0.4914838 0.88396823
v -1.6203096 0.64898336 -0.004080072
v -1.5952039 0.61301094 -0.03275399
v -1.153827 0.4914838 0.88396823
v -0.4926458 0.92160106 1.1948895
v -0.6907191 0.8621791 1.41917
v -1.0320121 0.6276572 0.7925226
v -1.5875688 0.6859024 -0.021730304
v -1.6203096 0.64898336 -0.004080072
v -0.6907191 0.8621791 1.41917
v -0.4926458 0.92160106 1.1948895
v -0.35914582 0.6493046 1.2281643
v -0.55683184 0.5888705 1.4560759
v -1.0320121 0.6276572 0.7925226
v -0.9520215 0.48057207 0.6466298
v -0.35914582 0.6493046 1.2281643
v -0.4926458 0.92160106 1.1948895
v -0.9520215 0.48057207 0.6466298
v -0.55683184 0.5888705 1.4560759
v -0.35914582 0.6493046 1.2281643
v -1.0654542 0.3133669 0.7579563
v -1.5952039 0.61301094 -0.03275399
v -1.562463 0.6499298 -0.05040416
v -1.5952039 0.61301094 -0.03275399
v -1.562463 0.6499298 -0.05040416
v -1.5875688 0.6859024 -0.021730304
v -1.6203096 0.64898336 -0.004080072
v -1.0320121 0.6276572 0.7925226
v -1.5875688 0.6859024 -0.021730304
v -1.562463 0.6499298 -0.05040416
v -0.9520215 0.48057207 0.6466298
vt 0.41489577 0.9505312
vt 0.4353385 0.9753374
vt 0.4353385 0.9492544
vt 0.24458265 0.6430143
vt 0.24122691 0.65916014
vt 0.24968433 0.65916014
vt 0.8139267 0.22732246
vt 0.8139267 0.15849745
vt 0.7951455 0.18695664
vt 0.36249647 0.8193971
vt 0.34896675 0.82306004
vt 0.36249647 0.88863325
vt 0.9675742 0.39801297
vt 0.99094063 0.4002199
vt 0.99094063 0.35834798
vt 0.49061108 0.76728296
vt 0.48858953 0.7917758
vt 0.5031121 0.7917758
vt 0.40631127 0.9865678
vt 0.40631127 0.9492543
vt 0.3769536 0.9666842
vt 0.82740736 0.95612735
vt 0.82584625 0.99004865
vt 0.8540703 0.99004865
vt 0.85558337 0.26026046
vt 0.8375755 0.26917362
vt 0.85558337 0.30763942
vt 0.2875653 0.53092074
vt 0.25912213 0.53950906
vt 0.2792589 0.59034956
vt 0.30660623 0.59449303
vt 0.2963184 0.5506848
vt 0.32315886 0.5637562
vt 0.3573084 0.5636662
vt 0.35907274 0.5930264
vt 0.36404705 0.6464493
vt 0.30241275 0.6564628
vt 0.36872554 0.611706
vt 0.379178 0.593549
vt 0.37910116 0.5638703
vt 0.41165078 0.59439313
vt 0.3983118 0.5481589
vt 0.40756547 0.64473724
vt 0.4130376 0.5697142
vt 0.4157958 0.5206306
vt 0.43424243 0.581447
vt 0.39701974 0.521644
vt 0.3996799 0.501786
vt 0.39401358 0.49550784
vt 0.41793817 0.44698286
vt 0.36169797 0.47553754
vt 0.35660422 0.4518572
vt 0.33183694 0.46833026
vt 0.4219783 0.5839164
vt 0.29600978 0.46015763
vt 0.32204658 0.4698634
vt 0.2960741 0.48909056
vt 0.3023184 0.40236294
vt 0.35558254 0.3984151
vt 0.3614946 0.40492094
vt 0.37186122 0.4159813
vt 0.4177345 0.4219947
vt 0.3725614 0.40887344
vt 0.42826492 0.4257797
vt 0.43212056 0.42092097
vt 0.4849347 0.46014583
vt 0.44451624 0.4244063
vt 0.47959006 0.40832436
vt 0.49750715 0.46606088
vt 0.5053654 0.41411078
vt 0.4832598 0.5052239
vt 0.47843212 0.5253997
vt 0.41985738 0.38675368
vt 0.364771 0.37397826
vt 0.4400363 0.32251382
vt 0.4731993 0.3553877
vt 0.36920094 0.3226
vt 0.44871652 0.5903436
vt 0.4794587 0.5414877
vt 0.4740305 0.59409165
vt 0.47049892 0.58799076
vt 0.48012757 0.568293
vt 0.5053654 0.5794933
vt 0.46959293 0.6176698
vt 0.47694266 0.65044117
vt 0.41145474 0.6767491
vt 0.3797577 0.6563157
vt 0.7088688 0.6463046
vt 0.6846238 0.6618912
vt 0.683434 0.6755998
vt 0.67388904 0.6485269
vt 0.6669443 0.6376636
vt 0.7088688 0.57746196
vt 0.65712774 0.6224694
vt 0.64490414 0.57407
vt 0.64490825 0.61469436
vt 0.6281288 0.6006243
vt 0.64468515 0.52060723
vt 0.7068366 0.51560545
vt 0.5729313 0.570621
vt 0.617661 0.60946107
vt 0.5619011 0.5111301
vt 0.64304477 0.5081711
vt 0.6825332 0.49316192
vt 0.68706167 0.45160437
vt 0.67449915 0.45533752
vt 0.6715559 0.4383366
vt 0.6837768 0.41758227
vt 0.6804919 0.38356018
vt 0.66692966 0.4255123
vt 0.6432463 0.40715122
vt 0.62915707 0.3970127
vt 0.65206885 0.35303688
vt 0.6383061 0.3382573
vt 0.60660756 0.3898375
vt 0.6236459 0.32251382
vt 0.5959458 0.38901925
vt 0.56574506 0.34179235
vt 0.5793502 0.3867166
vt 0.05789879 0.043092847
vt 0.04818806 0.035493016
vt 0.047156483 0.0519045
vt 0.011559039 0.027358472
vt 0.0045599937 0.064921856
vt 0.030396938 0.08089471
vt 0.008416355 0.115715146
vt 0.028102487 0.09702325
vt 0.028182238 0.10772109
vt 0.032435626 0.1224314
vt 0.023616016 0.17142057
vt 0.05576642 0.13679242
vt 0.048097223 0.15828115
vt 0.07257846 0.14514172
vt 0.0691358 0.13430232
vt 0.08740088 0.1347493
vt 0.09841749 0.12126589
vt 0.054179415 0.19667834
vt 0.044022113 0.19748312
vt 0.07092485 0.20726931
vt 0.12589236 0.1379776
vt 0.09809421 0.08443707
vt 0.114314854 0.07984644
vt 0.09780976 0.050593138
vt 0.101154745 0.018691242
vt 0.06548029 0.040927768
vt 0.14277008 0.065915406
vt 0.17075984 0.0042923093
vt 0.15810126 0.061466873
vt 0.17955963 0.06583679
vt 0.13691443 0.07574648
vt 0.12962382 0.087969065
vt 0.13570641 0.13626921
vt 0.13719736 0.20024753
vt 0.16156955 0.19660473
vt 0.14815678 0.25701392
vt 0.19016391 0.25066376
vt 0.09056538 0.19768214
vt 0.17586371 0.20831496
vt 0.19227238 0.20460439
vt 0.07563448 0.21377474
vt 0.081037104 0.24699897
vt 0.054752916 0.2035973
vt 0.10590756 0.25045055
vt 0.07695642 0.26519024
vt 0.019307196 0.28295243
vt 0.0042922795 0.21070433
vt 0.08246414 0.2844547
vt 0.14229423 0.3221091
vt 0.14922193 0.31879425
vt 0.15353614 0.29162318
vt 0.17786245 0.26837635
vt 0.16110946 0.30116737
vt 0.19190761 0.27685797
vt 0.1893583 0.25636768
vt 0.2006586 0.2457304
vt 0.2505375 0.3153143
vt 0.2035156 0.3855815
vt 0.22270577 0.2525487
vt 0.23662166 0.22303957
vt 0.23371239 0.21378958
vt 0.25053754 0.1935305
vt 0.24413238 0.19068354
vt 0.23522699 0.1793077
vt 0.24639803 0.17598033
vt 0.24566802 0.15422577
vt 0.71745336 0.9506091
vt 0.73781395 0.9612
vt 0.74210954 0.9238352
vt 0.7336402 0.97951084
vt 0.74210954 0.98926467
vt 0.633347 0.014769323
vt 0.6302897 0.0069642384
vt 0.57245314 0.035328396
vt 0.59876776 0.029590964
vt 0.6412641 0.08724645
vt 0.65747094 0.0042922813
vt 0.5887538 0.059701387
vt 0.57318276 0.059387248
vt 0.5900656 0.10316816
vt 0.6341017 0.13510694
vt 0.56181186 0.18030536
vt 0.64520454 0.1707464
vt 0.71703196 0.12024006
vt 0.71703196 0.07206792
vt 0.796129 0.28584313
vt 0.79514563 0.312639
vt 0.8289908 0.31118715
vt 0.8289908 0.26026046
vt 0.7775973 0.56950575
vt 0.81726164 0.51985484
vt 0.75949365 0.53785264
vt 0.76838875 0.5637349
vt 0.7405925 0.6151995
vt 0.780474 0.5882466
vt 0.7861535 0.5973518
vt 0.7174534 0.58695596
vt 0.7559681 0.5402143
vt 0.783499 0.62466323
vt 0.7664619 0.68171227
vt 0.79560125 0.6188669
vt 0.8078016 0.67405593
vt 0.8000361 0.6337513
vt 0.81726164 0.65146357
vt 0.5281167 0.48101306
vt 0.51738465 0.5092945
vt 0.5139499 0.56825304
vt 0.57668567 0.63593745
vt 0.5860039 0.6628089
vt 0.51900756 0.6218574
vt 0.56634223 0.65233564
vt 0.5719515 0.6663492
vt 0.5266055 0.6601739
vt 0.16228616 0.7728597
vt 0.16778886 0.7575384
vt 0.15579319 0.7544137
vt 0.1561364 0.7942406
vt 0.11516011 0.8281182
vt 0.10840666 0.7619702
vt 0.08958733 0.8242046
vt 0.16544461 0.8376436
vt 0.10584772 0.85542357
vt 0.16778886 0.8626589
vt 0.7837957 0.2967255
vt 0.7765136 0.312639
vt 0.786561 0.30480337
vt 0.7706877 0.29782677
vt 0.78026485 0.2866888
vt 0.7646799 0.28255224
vt 0.7798754 0.23828733
vt 0.7526034 0.22086132
vt 0.72561634 0.26846278
vt 0.78089 0.17347431
vt 0.7695459 0.16701746
vt 0.786561 0.15849733
vt 0.5155556 0.86387074
vt 0.52947485 0.83491373
vt 0.51394993 0.8468573
vt 0.5735295 0.90611273
vt 0.5735295 0.8429332
vt 0.54638463 0.92672586
vt 0.5146224 0.911242
vt 0.6251806 0.6841843
vt 0.5944024 0.70671034
vt 0.61853284 0.73691714
vt 0.59170634 0.77973664
vt 0.54678714 0.7431165
vt 0.5380566 0.6867564
vt 0.51394993 0.75275147
vt 0.56317693 0.80163896
vt 0.60768497 0.81379294
vt 0.59071887 0.8263291
vt 0.6251806 0.8008654
vt 0.6623473 0.3050232
vt 0.6430192 0.25222647
vt 0.60412246 0.2754519
vt 0.59963167 0.19306922
vt 0.6623473 0.1896609
vt 0.5641691 0.2689526
vt 0.56181186 0.18888986
vt 0.8023305 0.0042923093
vt 0.8139838 0.030708909
vt 0.8150283 0.012618065
vt 0.72561646 0.03532636
vt 0.7696229 0.061555445
vt 0.8075113 0.08519775
vt 0.8059995 0.093520224
vt 0.7804862 0.14723247
vt 0.7324859 0.10789257
vt 0.80904937 0.11898607
vt 0.8150283 0.1499129
vt 0.4800049 0.7170805
vt 0.44620132 0.7167547
vt 0.4800049 0.7478584
vt 0.4181124 0.774878
vt 0.38315076 0.76357067
vt 0.39353317 0.7269026
vt 0.37695366 0.69675297
vt 0.38023394 0.6853338
vt 0.38244617 0.78594524
vt 0.3809563 0.7895421
vt 0.41157877 0.8149724
vt 0.37734562 0.807938
vt 0.46735328 0.7919904
vt 0.0042922813 0.9319809
vt 0.010339811 0.9623797
vt 0.0300802 0.9539748
vt 0.017701121 0.9221042
vt 0.04057748 0.9288277
vt 0.056103997 0.96239555
vt 0.056104004 0.8931594
vt 0.0446987 0.8756963
vt 0.9669695 0.87368995
vt 0.9917891 0.8683863
vt 0.9758942 0.85421824
vt 0.98967063 0.9019805
vt 0.9846585 0.9407213
vt 0.991789 0.93856007
vt 0.8060525 0.91742986
vt 0.81205785 0.9265601
vt 0.8132239 0.9145707
vt 0.7985521 0.9298233
vt 0.77079666 0.94754314
vt 0.77626604 0.97060305
vt 0.807052 0.9440564
vt 0.8096893 0.95877653
vt 0.8132239 0.98290795
vt 0.2908712 0.9226333
vt 0.2793706 0.9330406
vt 0.30064458 0.93874156
vt 0.27203184 0.9412149
vt 0.25912213 0.94946086
vt 0.27846307 0.98443544
vt 0.31035304 0.97835994
vt 0.32041925 0.9858564
vt 0.3204192 0.94001675
vt 0.45338827 0.28595603
vt 0.45962834 0.3087482
vt 0.4791355 0.30560368
vt 0.47596306 0.2786088
vt 0.48542595 0.27130532
vt 0.52241284 0.27503407
vt 0.5164528 0.31392932
vt 0.49475068 0.26855135
vt 0.52044886 0.24856567
vt 0.46675122 0.2687199
vt 0.4910524 0.23646688
vt 0.43377662 0.23334897
vt 0.53080904 0.24849176
vt 0.4196844 0.2784654
vt 0.36688864 0.27289045
vt 0.55322725 0.17730784
vt 0.3650782 0.2644168
vt 0.51018023 0.17911041
vt 0.52639425 0.113055825
vt 0.5091897 0.124676704
vt 0.46033597 0.10215247
vt 0.44960797 0.16330874
vt 0.39752185 0.084414124
vt 0.37717825 0.14613533
vt 0.3585304 0.22080147
vt 0.3594278 0.25826377
vt 0.35488105 0.2775507
vt 0.3373043 0.22701192
vt 0.33339345 0.23518455
vt 0.3278963 0.21025205
vt 0.30451614 0.28084183
vt 0.30209762 0.20586777
vt 0.34514904 0.30443913
vt 0.31931597 0.31392932
vt 0.27134883 0.20890784
vt 0.260359 0.252002
vt 0.28024858 0.28683013
vt 0.3135386 0.13200974
vt 0.29719132 0.1999358
vt 0.3154741 0.2087915
vt 0.3394506 0.07646155
vt 0.26932853 0.10604215
vt 0.28391844 0.19699132
vt 0.25912213 0.19195294
vt 0.32944417 0.050105333
vt 0.4054777 0.04791224
vt 0.43562984 0.056735158
vt 0.4397322 0.064887166
vt 0.4538002 0.073611975
vt 0.43518674 0.03865707
vt 0.47276217 0.07646322
vt 0.48343563 0.058894873
vt 0.47683156 0.0042922497
vt 0.5147836 0.04178512
vt 0.49725407 0.08169162
vt 0.491593 0.08550775
vt 0.5312985 0.056957126
vt 0.7073233 0.7266775
vt 0.70797634 0.68418425
vt 0.6975467 0.73992586
vt 0.70460355 0.73801225
vt 0.70797634 0.7533965
vt 0.708841 0.18888992
vt 0.6709319 0.22016361
vt 0.68814325 0.23333097
vt 0.708841 0.31125382
vt 0.6458396 0.8824474
vt 0.6926657 0.9401662
vt 0.6926657 0.88118654
vt 0.6530503 0.9432054
vt 0.6360785 0.9209717
vt 0.6337652 0.9381953
vt 0.6345986 0.95131546
vt 0.26615286 0.7835825
vt 0.33481407 0.81081253
vt 0.3683691 0.79409224
vt 0.2964208 0.758122
vt 0.25912213 0.7448242
vt 0.3683691 0.69356203
vt 0.3098905 0.68533385
vt 0.99469924 0.5241931
vt 0.99343604 0.5198549
vt 0.9665755 0.5469139
vt 0.99469924 0.5993894
vt 0.027846396 0.6851295
vt 0.025156379 0.7458292
vt 0.071930975 0.7118856
vt 0.06531477 0.6194625
vt 0.0042922795 0.64440787
vt 0.11561188 0.6530707
vt 0.11709592 0.62994254
vt 0.090085596 0.62021446
vt 0.089194804 0.61592436
vt 0.04325092 0.5953064
vt 0.060596257 0.61765337
vt 0.1076996 0.6004305
vt 0.110776365 0.5977346
vt 0.17428178 0.6255053
vt 0.13287944 0.6609911
vt 0.12995476 0.66662157
vt 0.17653167 0.6597246
vt 0.17203188 0.59128606
vt 0.12632304 0.58488584
vt 0.17653167 0.5245706
vt 0.1285333 0.5541483
vt 0.12999141 0.52868116
vt 0.17211378 0.46270296
vt 0.12975433 0.5201824
vt 0.12296876 0.46571454
vt 0.16622126 0.39416608
vt 0.11386278 0.44878808
vt 0.084501445 0.39748427
vt 0.090901434 0.4453151
vt 0.06794265 0.43631735
vt 0.05178517 0.4408771
vt 0.009577721 0.42098686
vt 0.026007652 0.4634311
vt 0.015097022 0.47402605
vt 0.8388511 0.4297465
vt 0.808725 0.5112703
vt 0.85665655 0.4658364
vt 0.7733853 0.51105845
vt 0.73804545 0.5108466
vt 0.7216433 0.4635105
vt 0.75550544 0.40249228
vt 0.71745336 0.39572608
vt 0.742013 0.32251382
vt 0.81191885 0.35210407
vt 0.85665655 0.3570007
vt 0.6889622 0.68687016
vt 0.6833675 0.68418425
vt 0.6420678 0.71474266
vt 0.67111886 0.7069242
vt 0.6611558 0.7195977
vt 0.6561812 0.740905
vt 0.6337652 0.7870859
vt 0.6513901 0.7856919
vt 0.6636361 0.8606214
vt 0.6616976 0.8726019
vt 0.6889622 0.8719665
vt 0.6232557 0.8586377
vt 0.6204698 0.83491373
vt 0.6032954 0.8360753
vt 0.6195644 0.85878336
vt 0.62274617 0.88006973
vt 0.58211404 0.9106997
vt 0.6132232 0.91016006
vt 0.6208814 0.91352355
vt 0.6164044 0.93805146
vt 0.6232557 0.9372672
vt 0.98393667 0.4938289
vt 0.98393667 0.44949806
vt 0.967474 0.4503097
vt 0.96972096 0.47712177
vt 0.9597099 0.49614936
vt 0.26528698 0.8943343
vt 0.3169561 0.9140487
vt 0.3403822 0.90265
vt 0.2889746 0.8724021
vt 0.25912213 0.865639
vt 0.3403822 0.82475543
vt 0.29652467 0.819397
vt 0.4354689 0.830456
vt 0.4386896 0.82355696
vt 0.4191472 0.82958275
vt 0.4386896 0.8542177
vt 0.4261272 0.8515422
vt 0.43867218 0.86418295
vt 0.3769536 0.8657451
vt 0.43598902 0.8966939
vt 0.38561344 0.8904986
vt 0.41445172 0.9029574
vt 0.4326533 0.9333877
vt 0.40729344 0.9406697
vt 0.431287 0.9403648
vt 0.08958742 0.9185914
vt 0.112319574 0.96000147
vt 0.12386498 0.950228
vt 0.09603459 0.8712435
vt 0.12603642 0.8759345
vt 0.13634561 0.9093313
vt 0.14036158 0.87556636
vt 0.13378024 0.8912287
vt 0.14036158 0.9326457
vt 0.13969238 0.9507489
vt 0.98088384 0.3497634
vt 0.99036914 0.3437698
vt 0.9802332 0.31720316
vt 0.9684961 0.3086726
vt 0.9787246 0.2966287
vt 0.96757424 0.28567272
vt 0.9797163 0.2712322
vt 0.99036914 0.27915698
vt 0.6975467 0.7715127
vt 0.70650977 0.7822864
vt 0.7080691 0.79982716
vt 0.7080691 0.76198125
vt 0.19634718 0.9487133
vt 0.24931914 0.9292071
vt 0.18511623 0.90777445
vt 0.2288816 0.8744021
vt 0.18952507 0.8671119
vt 0.24931914 0.87250197
vt 0.36160737 0.94996595
vt 0.36160737 0.9226332
vt 0.3290038 0.937837
vt 0.33460236 0.97038865
vt 0.35996366 0.9815556
vt 0.34207118 0.9829364
vt 0.34530067 0.9918709
vt 0.5029112 0.74745834
vt 0.5029112 0.6853337
vt 0.4885894 0.7344091
vt 0.5010804 0.75869846
vt 0.5892156 0.9731643
vt 0.6121145 0.9524803
vt 0.58317375 0.94663596
vt 0.61269706 0.9686525
vt 0.5821141 0.98587894
vt 0.6133176 0.98587894
vt 0.08100283 0.8671117
vt 0.07887101 0.84637827
vt 0.008554935 0.85826045
vt 0.05031526 0.81772995
vt 0.0042922497 0.82634723
vt 0.07630503 0.82899475
vt 0.0374856 0.75731677
vt 0.071649194 0.7968978
vt 0.069645405 0.78301036
vt 0.073894024 0.77293146
vt 0.07340562 0.75441366
vt 0.08100283 0.7553263
vt 0.4472742 0.8568482
vt 0.5049932 0.8297403
vt 0.45840263 0.8235569
vt 0.4517336 0.90045124
vt 0.5049932 0.9171464
vt 0.21387255 0.52841306
vt 0.19870436 0.6344297
vt 0.23583543 0.628595
vt 0.18511617 0.527655
vt 0.22926128 0.394166
vt 0.23583543 0.3955748
vt 0.87906635 0.6088161
vt 0.9197832 0.5304958
vt 0.87965107 0.51985496
vt 0.90922517 0.6126568
vt 0.9197832 0.7416647
vt 0.91295457 0.74187887
vt 0.9635502 0.2605159
vt 0.9635502 0.2189242
vt 0.9245752 0.21841541
vt 0.9245752 0.26000717
vt 0.18511617 0.7388867
vt 0.23264241 0.6446549
vt 0.19762516 0.6430143
vt 0.21207917 0.73501194
vt 0.23264241 0.85642517
vt 0.22654748 0.85852736
vt 0.9367337 0.8357394
vt 0.96270806 0.8456337
vt 0.96270806 0.7575503
vt 0.9283557 0.7504634
vt 0.14894615 0.8884408
vt 0.16832949 0.9728374
vt 0.17439555 0.96964127
vt 0.17439552 0.87124354
vt 0.25050962 0.40206873
vt 0.25050962 0.39530253
vt 0.24441993 0.3941661
vt 0.24441993 0.40093225
vt 0.89588034 0.40575945
vt 0.8674365 0.51127034
vt 0.9069618 0.50520515
vt 0.86524117 0.40725517
vt 0.899922 0.27123225
vt 0.9069618 0.2720939
vt 0.77079666 0.78109986
vt 0.8149421 0.69853777
vt 0.7752899 0.6902968
vt 0.80146444 0.78081566
vt 0.8149421 0.9048837
vt 0.80791795 0.905986
vt 0.51395 0.93531036
vt 0.51395 0.9743519
vt 0.5458341 0.98361504
vt 0.5458341 0.9445735
vt 0.8790662 0.83874166
vt 0.9197711 0.7504634
vt 0.88651 0.75361097
vt 0.9060651 0.8336982
vt 0.9197711 0.94794804
vt 0.91359925 0.9502364
vt 0.9702486 0.7206117
vt 0.99570775 0.7276475
vt 0.99570775 0.63678026
vt 0.9644047 0.634514
vt 0.958385 0.95768726
vt 0.958385 0.85516566
vt 0.9513953 0.85421824
vt 0.9283557 0.9578274
vt 0.24979591 0.4361278
vt 0.24979591 0.42965844
vt 0.24442005 0.4277198
vt 0.24442005 0.4341891
vt 0.7473315 0.81929934
vt 0.724789 0.914888
vt 0.7622119 0.91525066
vt 0.71745324 0.81791633
vt 0.75534475 0.69029695
vt 0.7622119 0.6917157
vt 0.8258461 0.6186441
vt 0.8704817 0.5348385
vt 0.8319932 0.51985484
vt 0.8567724 0.6200972
vt 0.8704817 0.7474214
vt 0.8634466 0.74816555
vt 0.9155463 0.44949812
vt 0.9155464 0.4872051
vt 0.95112526 0.4963414
vt 0.95112526 0.45863444
vt 0.96018887 0.0042922497
vt 0.9354054 0.010995984
vt 0.9245752 0.10274613
vt 0.96018887 0.10126686
vt 0.9441662 0.37049538
vt 0.92263484 0.44091356
vt 0.95898974 0.43710732
vt 0.9155464 0.36389405
vt 0.952461 0.27123225
vt 0.95898974 0.27369
vt 0.24441993 0.4191352
vt 0.24974978 0.41697943
vt 0.24974978 0.41065323
vt 0.24442005 0.41280913
vt 0.957991 0.6259295
vt 0.9374964 0.5198549
vt 0.93057513 0.5208627
vt 0.92836773 0.6259295
vt 0.85212505 0.13924527
vt 0.8281536 0.24547839
vt 0.8656062 0.2477445
vt 0.8236127 0.14031082
vt 0.8590045 0.0042922497
vt 0.8656062 0.005282283
vt 0.8741908 0.09948832
vt 0.9159906 0.008008897
vt 0.8745985 0.0042923093
vt 0.9050938 0.101335704
vt 0.9159906 0.23014215
vt 0.9089277 0.2308181
vt 0.47933158 0.93487626
vt 0.44727418 0.925731
vt 0.44727418 0.964799
vt 0.47933158 0.97394425
vt 0.9347796 0.20983082
vt 0.9596237 0.19746101
vt 0.9596237 0.11133081
vt 0.9245752 0.12838197
vt 0.857625 0.86309016
vt 0.8258461 0.9475427
vt 0.86727464 0.9436361
vt 0.82674956 0.8648111
vt 0.8601992 0.7567502
vt 0.86727464 0.7573647
vt 0.24738848 0.6677448
vt 0.24122703 0.6688466
vt 0.24122703 0.6756109
vt 0.24738848 0.6745091
vt 0.9558201 0.7416528
vt 0.9497938 0.6345141
vt 0.9432386 0.6355334
vt 0.92836773 0.7416528
vn 0.6188134 -0.60869104 0.4938442
vn 0.20979318 -0.30828434 0.9272891
vn 0.362764 -0.6544722 0.66198784
vn -0.16173537 0.8661291 0.45472172
vn 0.576052 0.8009297 0.12800828
vn 0.19431344 0.97200614 0.017659292
vn 0.65658855 0.2196507 0.7210509
vn 0.86887735 0.48629612 -0.011754878
vn 0.8533376 0.3007575 0.42472383
vn 0.65658855 0.2196507 0.7210509
vn 0.58811027 0.5261067 0.6116327
vn 0.86887735 0.48629612 -0.011754878
vn 0.16948424 -0.9527033 0.2218854
vn 0.5642723 -0.81861395 -0.018776834
vn 0.76068455 -0.639577 0.0043997616
vn 0.54382515 -0.02104725 0.8389344
vn 0.7520533 -0.5259308 0.3972559
vn 0.9066842 -0.13255805 0.4003612
vn -0.8899898 -0.42790484 0.1464248
vn -0.85990584 -0.39198828 0.32190403
vn -0.91011524 -0.40996432 0.0014567003
vn 0.03584344 -0.75679356 0.6375768
vn -0.54585826 -0.802168 0.2079253
vn -0.8035337 -0.22619493 0.5340547
vn -0.21127337 -0.86728287 0.42580974
vn 0.03584344 -0.75679356 0.6375768
vn -0.8035337 -0.22619493 0.5340547
vn 0.25919634 0.1489942 -0.94616747
vn 0.048272297 0.5750689 -0.81090873
vn 0.3237664 0.6065833 -0.7150979
vn 0.46019304 0.8039438 -0.35366285
vn 0.5274421 0.2786072 -0.7911826
vn 0.8815618 0.32551566 -0.32148722
vn 0.9596675 0.24707377 -0.09278937
vn 0.54552305 0.81166846 -0.16661136
vn 0.7078514 0.47387797 -0.50599575
vn 0.829605 0.42774114 -0.34016788
vn 0.49640414 0.60263073 -0.607797
vn 0.26879823 0.8566158 -0.41587085
vn 0.85895246 0.5013717 0.055370837
vn 0.07023982 0.95849353 -0.23322281
vn 0.51767987 0.8017087 0.2807051
vn 0.2864961 0.9044572 -0.28075373
vn 0.33326408 0.9298806 -0.074423164
vn 0.06681943 0.9868094 -0.02532199
vn 0.1161269 0.9751993 0.12642202
vn 0.10764065 0.88563144 0.4331441
vn -0.374045 0.89308155 0.20079069
vn -0.51826423 0.8257769 0.16685413
vn -0.34377977 0.9272457 -0.06194949
vn -0.7001684 0.698285 0.057602763
vn -0.3550083 0.8834014 -0.27087152
vn -0.7418606 0.6509281 -0.098678924
vn 0.14533095 0.9759448 0.08283587
vn -0.39633837 0.8274063 -0.39788762
vn -0.7780575 0.45642814 -0.42125744
vn -0.6645772 0.14103824 -0.73193336
vn -0.7090826 0.5323833 -0.45098668
vn -0.23430091 0.66634214 -0.69602084
vn -0.09228202 0.69984645 -0.69512045
vn -0.15710992 0.8419601 -0.49645388
vn 0.094953574 0.9165676 -0.3625531
vn 0.45325005 0.59834605 -0.64467615
vn 0.19431344 0.97200614 0.017659292
vn 0.576052 0.8009297 0.12800828
vn -0.28802252 0.91414636 0.2652225
vn -0.16173537 0.8661291 0.45472172
vn -0.27013066 0.78637373 0.54086053
vn -0.42781162 0.818617 -0.3725295
vn -0.7822749 0.36838156 -0.49870756
vn -0.28443643 0.860839 -0.40802974
vn 0.0482317 0.8704703 -0.47556105
vn 0.04552736 0.98656535 -0.06812729
vn -0.0013572145 0.72958523 -0.6697582
vn -0.6308587 0.75482774 0.114205
vn -0.16561446 0.744053 0.63390714
vn -0.7416307 0.29041916 -0.6007449
vn -0.041991197 0.9476173 0.2835426
vn 0.3163812 0.8115449 -0.47599375
vn 0.45230457 0.598869 0.6567791
vn 0.63172704 0.7332564 0.23494565
vn 0.54586554 0.83044064 0.048430294
vn 0.9670556 0.23453654 0.078850836
vn -0.0423169 0.8574969 0.49483508
vn 0.46758813 0.55945754 0.68052953
vn 0.79642224 0.5777986 -0.13796774
vn 0.3888985 0.45043832 -0.78982794
vn -0.7221614 -0.6223852 -0.30185983
vn -0.8734875 -0.44937855 -0.17730173
vn -0.8289306 0.13723451 -0.5409961
vn -0.912649 -0.39820772 -0.047463447
vn -0.8674325 -0.35918057 0.32331097
vn -0.79967433 -0.56585056 0.16464356
vn -0.76846033 -0.38475937 0.49319416
vn -0.45223385 -0.8340214 0.28339514
vn -0.66258734 -0.5106551 0.5296548
vn -0.21127337 -0.86728287 0.42580974
vn -0.4093401 -0.78265584 0.446984
vn -0.76093745 -0.53286636 0.34670335
vn 0.1328456 -0.95366883 0.226488
vn 0.2361086 -0.8440487 0.46056193
vn 0.16948424 -0.9527033 0.2218854
vn -0.46471667 -0.87519115 -0.07597275
vn -0.776915 -0.51919866 0.33727187
vn -0.7692475 -0.48402393 0.40624553
vn -0.9455698 -0.07575946 0.3043305
vn -0.94281864 -0.13407382 0.29599544
vn -0.79713047 -0.5294625 0.28219965
vn -0.70632464 -0.38557193 0.5912875
vn -0.7859005 -0.25220945 0.55906445
vn -0.59324676 -0.2219653 0.7706378
vn -0.42613697 -0.18755977 0.883386
vn -0.54389864 -0.25968897 0.7979572
vn -0.5775207 -0.25031096 0.7770548
vn -0.21775886 -0.33148307 0.917329
vn -0.16251591 -0.10285443 0.9813304
vn -0.017728563 -0.2458048 0.96874434
vn 0.5211277 0.063785 0.85109174
vn 0.1639814 -0.34737274 0.9229497
vn 0.54007757 -0.5046978 -0.6601384
vn 0.6544812 -0.5431669 -0.5110144
vn 0.32756847 -0.66863275 -0.65485203
vn 0.5189677 -0.6137806 -0.58553624
vn 0.5990392 -0.7509794 -0.24499524
vn 0.27055195 -0.8780475 -0.37123594
vn 0.6153788 -0.7727909 0.07366527
vn 0.10827607 -0.9747459 -0.1368044
vn 0.17222512 -0.9731655 0.051585987
vn 0.4433042 -0.81718844 0.34347343
vn 0.562511 -0.7140692 0.39785546
vn 0.55704504 -0.55960524 0.6044619
vn 0.790038 -0.51353204 0.31816542
vn 0.89208096 -0.3432139 0.2803721
vn 0.6178897 -0.28304878 0.7298523
vn 0.833989 -0.008751549 0.5508858
vn 0.8879374 0.23502773 0.39394534
vn 0.8868346 -0.44737765 0.06463626
vn 0.76068455 -0.639577 0.0043997616
vn 0.90150934 -0.29179838 0.3137359
vn 0.96246743 -0.033740725 0.26171857
vn 0.89226127 0.33150035 0.3025261
vn 0.9639219 -0.063819006 0.2497895
vn 0.9957808 0.012369814 0.034078598
vn 0.9359461 -0.2231002 -0.24759871
vn 0.5656963 -0.21596788 -0.784332
vn 0.80794877 -0.35202822 -0.45159474
vn 0.829605 0.42774114 -0.34016788
vn 0.7370585 0.21516785 -0.62517524
vn 0.7078514 0.47387797 -0.50599575
vn 0.75758183 -0.5529815 -0.3172325
vn 0.7460845 -0.6406099 -0.12053093
vn 0.7484869 -0.5128769 0.40814453
vn 0.9578143 0.0053834654 0.28371245
vn 0.67197895 -0.402389 0.6175477
vn 0.86826384 0.08567111 0.48851472
vn 0.78933823 0.35350484 0.501741
vn 0.81207526 -0.45871028 0.35228062
vn 0.567038 0.13855648 0.81114125
vn 0.5804276 0.35850692 0.73024917
vn 0.8514148 -0.40655106 0.3246076
vn 0.70697004 -0.59569263 0.3762132
vn 0.95960766 -0.23968579 -0.117670536
vn 0.81281537 -0.3835096 0.4362079
vn 0.6188134 -0.60869104 0.4938442
vn 0.42065415 -0.57671344 0.6979517
vn 0.5642723 -0.81861395 -0.018776834
vn 0.362764 -0.6544722 0.66198784
vn 0.5211277 0.063785 0.85109174
vn 0.54382515 -0.02104725 0.8389344
vn 0.9066842 -0.13255805 0.4003612
vn 0.97350115 -0.09342651 0.20652169
vn 0.7520533 -0.5259308 0.3972559
vn 0.96121746 -0.26597056 0.064832434
vn 0.96895796 -0.038351003 0.24192145
vn 0.992386 -0.0004787948 0.114559844
vn 0.80266184 0.34676874 0.48523957
vn 0.17269652 0.038470298 0.9842234
vn 0.9964038 0.04045386 -0.053728167
vn 0.9694325 0.1885055 -0.13901645
vn 0.9670556 0.23453654 0.078850836
vn 0.69865394 0.51102346 -0.48798877
vn 0.54586554 0.83044064 0.048430294
vn 0.45230457 0.598869 0.6567791
vn 0.63172704 0.7332564 0.23494565
vn -0.041991197 0.9476173 0.2835426
vn 0.0067382967 -0.33885226 -0.9405092
vn 0.18256046 -0.061938055 -0.9784856
vn 0.50695807 -0.06533546 -0.8540772
vn -0.19446225 -0.41213238 -0.8888473
vn -0.02147371 0.09585486 -0.9927114
vn 0.54382515 -0.02104725 0.8389344
vn 0.5211277 0.063785 0.85109174
vn -0.16251591 -0.10285443 0.9813304
vn 0.21504265 0.058912054 0.974826
vn 0.17269652 0.038470298 0.9842234
vn 0.7520533 -0.5259308 0.3972559
vn -0.22799659 -0.20020631 0.95285606
vn -0.63221115 -0.054913342 0.77284753
vn -0.42296898 -0.28221887 0.8610746
vn -0.24105738 0.49793482 0.8330378
vn -0.84971756 0.21741283 0.477803
vn -0.28654796 0.8775738 0.38380414
vn 0.43159333 0.82984054 0.3531193
vn 0.80266184 0.34676874 0.48523957
vn -0.6498823 -0.084867686 0.75528157
vn -0.54389864 -0.25968897 0.7979572
vn -0.70632464 -0.38557193 0.5912875
vn -0.6582328 -0.3177958 0.67944026
vn 0.1639814 -0.34737274 0.9229497
vn 0.5211277 0.063785 0.85109174
vn 0.362764 -0.6544722 0.66198784
vn 0.20979318 -0.30828434 0.9272891
vn -0.11343163 -0.3392281 0.9316164
vn -0.017728563 -0.2458048 0.96874434
vn -0.21775886 -0.33148307 0.917329
vn 0.42065415 -0.57671344 0.6979517
vn 0.6188134 -0.60869104 0.4938442
vn -0.3901684 0.18309568 0.9001094
vn -0.6934059 -0.5420394 0.4668697
vn -0.42613697 -0.18755977 0.883386
vn -0.881607 0.24355395 0.39559987
vn -0.59324676 -0.2219653 0.7706378
vn -0.7859005 -0.25220945 0.55906445
vn 0.76068455 -0.639577 0.0043997616
vn 0.562511 -0.7140692 0.39785546
vn 0.6153788 -0.7727909 0.07366527
vn 0.5681663 -0.80193746 0.13256715
vn 0.4421091 -0.887512 0.008757405
vn 0.5990392 -0.7509794 -0.24499524
vn 0.7158199 -0.5823562 -0.36668557
vn 0.72910684 -0.37486207 -0.56204313
vn 0.5189677 -0.6137806 -0.58553624
vn 0.7370585 0.21516785 -0.62517524
vn 0.80794877 -0.35202822 -0.45159474
vn 0.26900288 -0.39373088 -0.8683188
vn 0.7078514 0.47387797 -0.50599575
vn 0.3888985 0.45043832 -0.78982794
vn 0.8306841 -0.06694069 -0.5344583
vn 0.79642224 0.5777986 -0.13796774
vn 0.49640414 0.60263073 -0.607797
vn 0.2864961 0.9044572 -0.28075373
vn 0.26879823 0.8566158 -0.41587085
vn 0.75758183 -0.5529815 -0.3172325
vn 0.26900288 -0.39373088 -0.8683188
vn 0.80794877 -0.35202822 -0.45159474
vn 0.33900288 -0.7696018 -0.5211096
vn 0.7460845 -0.6406099 -0.12053093
vn 0.18507968 -0.9628821 -0.12981682
vn 0.7484869 -0.5128769 0.40814453
vn 0.37569126 -0.7841159 0.47544333
vn 0.85623986 -0.48562506 0.13625771
vn 0.67197895 -0.402389 0.6175477
vn 0.17830828 -0.40563408 0.89030194
vn 0.567038 0.13855648 0.81114125
vn 0.5804276 0.35850692 0.73024917
vn 0.17830828 -0.40563408 0.89030194
vn 0.567038 0.13855648 0.81114125
vn 0.46758813 0.55945754 0.68052953
vn 0.65983033 -0.20390473 0.72050047
vn -0.0423169 0.8574969 0.49483508
vn 0.45230457 0.598869 0.6567791
vn 0.17830828 -0.40563408 0.89030194
vn 0.65983033 -0.20390473 0.72050047
vn 0.37569126 -0.7841159 0.47544333
vn 0.85623986 -0.48562506 0.13625771
vn 0.9365749 0.19636633 0.2858023
vn 0.46758813 0.55945754 0.68052953
vn 0.79642224 0.5777986 -0.13796774
vn 0.8306841 -0.06694069 -0.5344583
vn 0.33900288 -0.7696018 -0.5211096
vn 0.26900288 -0.39373088 -0.8683188
vn 0.18507968 -0.9628821 -0.12981682
vn -0.23562461 0.111419 0.9571725
vn -0.83508855 -0.2920444 0.44756493
vn -0.8061415 0.2951684 0.49381584
vn -0.9491195 -0.18359117 -0.24972126
vn -0.5787995 -0.8059263 0.02986592
vn -0.6308587 0.75482774 0.114205
vn -0.7416307 0.29041916 -0.6007449
vn -0.868697 -0.35914063 -0.33785152
vn -0.7848664 -0.61031044 -0.048428178
vn -0.86669546 -0.4847073 -0.08212902
vn -0.9491195 -0.18359117 -0.24972126
vn -0.5787995 -0.8059263 0.02986592
vn -0.59873444 -0.7610091 0.21306771
vn -0.5363071 -0.7658848 0.32653666
vn -0.28067502 -0.6507687 0.6907207
vn -0.83508855 -0.2920444 0.44756493
vn -0.46310854 -0.73723495 0.47071242
vn -0.5712201 -0.44282633 0.6790734
vn -0.6308587 0.75482774 0.114205
vn -0.16561446 0.744053 0.63390714
vn -0.8061415 0.2951684 0.49381584
vn -0.23562461 0.111419 0.9571725
vn -0.7510105 0.23181678 0.60796314
vn -0.27013066 0.78637373 0.54086053
vn -0.16173537 0.8661291 0.45472172
vn 0.576052 0.8009297 0.12800828
vn -0.519497 -0.31965607 0.7825921
vn -0.5397408 -0.36549905 0.748077
vn -0.28067502 -0.6507687 0.6907207
vn -0.5712201 -0.44282633 0.6790734
vn -0.83508855 -0.2920444 0.44756493
vn 0.5061572 -0.84400904 0.11376593
vn 0.22052424 -0.6810594 0.6862328
vn 0.63619125 -0.1204631 0.76013464
vn 0.89026535 -0.441235 0.018017039
vn 0.8533376 0.3007575 0.42472383
vn 0.65658855 0.2196507 0.7210509
vn 0.86887735 0.48629612 -0.011754878
vn 0.66144377 0.099574946 -0.73019046
vn 0.86887735 0.48629612 -0.011754878
vn 0.9957808 0.012369814 0.034078598
vn 0.66144377 0.099574946 -0.73019046
vn 0.89226127 0.33150035 0.3025261
vn 0.58811027 0.5261067 0.6116327
vn 0.8879374 0.23502773 0.39394534
vn 0.58811027 0.5261067 0.6116327
vn 0.833989 -0.008751549 0.5508858
vn 0.8879374 0.23502773 0.39394534
vn 0.65658855 0.2196507 0.7210509
vn 0.63619125 -0.1204631 0.76013464
vn 0.22052424 -0.6810594 0.6862328
vn 0.6178897 -0.28304878 0.7298523
vn 0.55704504 -0.55960524 0.6044619
vn 0.4433042 -0.81718844 0.34347343
vn 0.27055195 -0.8780475 -0.37123594
vn 0.10827607 -0.9747459 -0.1368044
vn -0.16961706 -0.92821264 -0.30751085
vn 0.17222512 -0.9731655 0.051585987
vn 0.4433042 -0.81718844 0.34347343
vn 0.22052424 -0.6810594 0.6862328
vn 0.5061572 -0.84400904 0.11376593
vn 0.89026535 -0.441235 0.018017039
vn 0.24101864 -0.68879914 -0.6709932
vn 0.27055195 -0.8780475 -0.37123594
vn -0.16961706 -0.92821264 -0.30751085
vn 0.24101864 -0.68879914 -0.6709932
vn 0.32756847 -0.66863275 -0.65485203
vn 0.54007757 -0.5046978 -0.6601384
vn 0.66144377 0.099574946 -0.73019046
vn 0.89026535 -0.441235 0.018017039
vn 0.5656963 -0.21596788 -0.784332
vn 0.9957808 0.012369814 0.034078598
vn 0.6544812 -0.5431669 -0.5110144
vn 0.6163502 -0.2584095 -0.73474234
vn 0.39535773 -0.2571596 -0.87992364
vn 0.9359461 -0.2231002 -0.24759871
vn 0.5189677 -0.6137806 -0.58553624
vn 0.72910684 -0.37486207 -0.56204313
vn 0.829605 0.42774114 -0.34016788
vn 0.5781784 -0.2252444 -0.77751696
vn 0.49702948 0.22985363 -0.8285164
vn 0.46019304 0.8039438 -0.35366285
vn 0.3237664 0.6065833 -0.7150979
vn 0.048272297 0.5750689 -0.81090873
vn 0.18493094 0.18234122 -0.9635135
vn -0.24192987 0.48463213 -0.8363601
vn -0.13924678 0.105783045 -0.98415494
vn 0.0067382967 -0.33885226 -0.9405092
vn 0.50695807 -0.06533546 -0.8540772
vn 0.7504384 0.02818909 -0.65161663
vn 0.18256046 -0.061938055 -0.9784856
vn 0.3169934 0.4022839 -0.85414094
vn -0.19446225 -0.41213238 -0.8888473
vn 0.18052949 -0.38550186 -0.8990337
vn -0.22233301 0.6200426 -0.7478012
vn 0.82660204 -0.47635135 -0.27685356
vn 0.4421091 -0.887512 0.008757405
vn -0.6633481 0.121468045 -0.7373478
vn -0.74285024 -0.52687764 -0.41017848
vn -0.19355829 -0.7836796 -0.5825522
vn -0.48230225 -0.031380914 -0.87402177
vn -0.57063425 0.35788816 -0.73686713
vn -0.02147371 0.09585486 -0.9927114
vn -0.49349236 0.3362862 -0.79806274
vn -0.90250325 -0.064089134 -0.4245004
vn -0.8289306 0.13723451 -0.5409961
vn -0.7221614 -0.6223852 -0.30185983
vn -0.7090826 0.5323833 -0.45098668
vn -0.39633837 0.8274063 -0.39788762
vn -0.6645772 0.14103824 -0.73193336
vn -0.27365306 0.38621724 -0.8750324
vn -0.1579554 0.38436782 -0.90344644
vn -0.6522673 0.03507036 -0.75587815
vn 0.25919634 0.1489942 -0.94616747
vn 0.19071522 0.1346576 -0.96405184
vn -0.31124997 0.81209326 -0.47445917
vn 0.37678748 0.66013515 -0.6338664
vn 0.7018524 -0.24574542 -0.6546501
vn 0.5274421 0.2786072 -0.7911826
vn 0.807 0.49274802 -0.30248132
vn 0.76068455 -0.639577 0.0043997616
vn 0.5642723 -0.81861395 -0.018776834
vn 0.95960766 -0.23968579 -0.117670536
vn 0.8868346 -0.44737765 0.06463626
vn 0.90150934 -0.29179838 0.3137359
vn -0.776915 -0.51919866 0.33727187
vn -0.64298576 -0.694661 -0.31471783
vn -0.46471667 -0.87519115 -0.07597275
vn 0.16948424 -0.9527033 0.2218854
vn -0.776915 -0.51919866 0.33727187
vn -0.6934059 -0.5420394 0.4668697
vn -0.64298576 -0.694661 -0.31471783
vn -0.881607 0.24355395 0.39559987
vn -0.9455698 -0.07575946 0.3043305
vn -0.94281864 -0.13407382 0.29599544
vn -0.7859005 -0.25220945 0.55906445
vn 0.42065415 -0.57671344 0.6979517
vn 0.5642723 -0.81861395 -0.018776834
vn 0.16948424 -0.9527033 0.2218854
vn -0.09355073 -0.92556524 0.3570875
vn -0.11343163 -0.3392281 0.9316164
vn -0.64298576 -0.694661 -0.31471783
vn -0.6934059 -0.5420394 0.4668697
vn -0.6582328 -0.3177958 0.67944026
vn -0.85990584 -0.39198828 0.32190403
vn -0.8899898 -0.42790484 0.1464248
vn -0.84971756 0.21741283 0.477803
vn -0.71287924 0.6831028 -0.14677656
vn -0.28654796 0.8775738 0.38380414
vn -0.84971756 0.21741283 0.477803
vn -0.7241683 0.013908699 -0.6890536
vn -0.39752984 0.57326394 -0.7132437
vn -0.8899898 -0.42790484 0.1464248
vn -0.91011524 -0.40996432 0.0014567003
vn -0.95607805 -0.20241824 -0.20704503
vn -0.7510105 0.23181678 0.60796314
vn -0.27013066 0.78637373 0.54086053
vn -0.7822749 0.36838156 -0.49870756
vn -0.519497 -0.31965607 0.7825921
vn -0.5397408 -0.36549905 0.748077
vn -0.79713047 -0.5294625 0.28219965
vn -0.85990584 -0.39198828 0.32190403
vn -0.6582328 -0.3177958 0.67944026
vn -0.70632464 -0.38557193 0.5912875
vn -0.7692475 -0.48402393 0.40624553
vn -0.5712201 -0.44282633 0.6790734
vn -0.76093745 -0.53286636 0.34670335
vn -0.46310854 -0.73723495 0.47071242
vn -0.5363071 -0.7658848 0.32653666
vn -0.79967433 -0.56585056 0.16464356
vn -0.59873444 -0.7610091 0.21306771
vn -0.7848664 -0.61031044 -0.048428178
vn -0.7221614 -0.6223852 -0.30185983
vn -0.86669546 -0.4847073 -0.08212902
vn -0.90250325 -0.064089134 -0.4245004
vn -0.868697 -0.35914063 -0.33785152
vn -0.8669254 0.12412806 -0.48011243
vn -0.664124 0.30368876 -0.6791175
vn -0.7090826 0.5323833 -0.45098668
vn -0.4684842 0.4749213 -0.7378132
vn -0.23430091 0.66634214 -0.69602084
vn 0.43159333 0.82984054 0.3531193
vn 0.9964038 0.04045386 -0.053728167
vn 0.80266184 0.34676874 0.48523957
vn 0.9694325 0.1885055 -0.13901645
vn 0.69865394 0.51102346 -0.48798877
vn 0.08954276 0.7583667 -0.63724005
vn -0.10101858 0.9665836 -0.22369832
vn -0.39752984 0.57326394 -0.7132437
vn -0.71287924 0.6831028 -0.14677656
vn -0.28654796 0.8775738 0.38380414
vn -0.24105738 0.49793482 0.8330378
vn 0.54586554 0.83044064 0.048430294
vn 0.69865394 0.51102346 -0.48798877
vn 0.08954276 0.7583667 -0.63724005
vn 0.3163812 0.8115449 -0.47599375
vn 0.0482317 0.8704703 -0.47556105
vn -0.28443643 0.860839 -0.40802974
vn -0.39752984 0.57326394 -0.7132437
vn -0.42781162 0.818617 -0.3725295
vn -0.7822749 0.36838156 -0.49870756
vn -0.7241683 0.013908699 -0.6890536
vn -0.95607805 -0.20241824 -0.20704503
vn 0.85895246 0.5013717 0.055370837
vn 0.51767987 0.8017087 0.2807051
vn 0.59394014 0.5025702 0.6258589
vn 0.9297732 -0.1292159 0.33907956
vn 0.9596675 0.24707377 -0.09278937
vn 0.807 0.49274802 -0.30248132
vn 0.93242383 -0.3187936 -0.12650217
vn 0.8815618 0.32551566 -0.32148722
vn 0.7018524 -0.24574542 -0.6546501
vn 0.5274421 0.2786072 -0.7911826
vn -0.106485344 0.7489618 0.640166
vn 0.59394014 0.5025702 0.6258589
vn 0.51767987 0.8017087 0.2807051
vn 0.10764065 0.88563144 0.4331441
vn -0.374045 0.89308155 0.20079069
vn -0.31124997 0.81209326 -0.47445917
vn 0.37678748 0.66013515 -0.6338664
vn 0.807 0.49274802 -0.30248132
vn 0.15493387 0.977845 0.017015517
vn -0.6041076 0.7815591 0.064330846
vn 0.59394014 0.5025702 0.6258589
vn -0.106485344 0.7489618 0.640166
vn -0.6645772 0.14103824 -0.73193336
vn -0.27365306 0.38621724 -0.8750324
vn -0.6522673 0.03507036 -0.75587815
vn -0.7780575 0.45642814 -0.42125744
vn -0.96537375 0.009078037 -0.25294295
vn -0.7418606 0.6509281 -0.098678924
vn -0.31124997 0.81209326 -0.47445917
vn -0.7001684 0.698285 0.057602763
vn -0.6041076 0.7815591 0.064330846
vn -0.8430133 0.36141032 0.37364805
vn -0.51826423 0.8257769 0.16685413
vn -0.106485344 0.7489618 0.640166
vn -0.374045 0.89308155 0.20079069
vn -0.74285024 -0.52687764 -0.41017848
vn -0.6633481 0.121468045 -0.7373478
vn -0.96621054 0.21021374 -0.13217235
vn -0.54585826 -0.802168 0.2079253
vn -0.8035337 -0.22619493 0.5340547
vn -0.912649 -0.39820772 -0.047463447
vn -0.76846033 -0.38475937 0.49319416
vn -0.8674325 -0.35918057 0.32331097
vn -0.8734875 -0.44937855 -0.17730173
vn -0.8289306 0.13723451 -0.5409961
vn 0.3169934 0.4022839 -0.85414094
vn 0.18256046 -0.061938055 -0.9784856
vn -0.02147371 0.09585486 -0.9927114
vn -0.22233301 0.6200426 -0.7478012
vn -0.57063425 0.35788816 -0.73686713
vn -0.6633481 0.121468045 -0.7373478
vn -0.96621054 0.21021374 -0.13217235
vn -0.8289306 0.13723451 -0.5409961
vn -0.76846033 -0.38475937 0.49319416
vn -0.66258734 -0.5106551 0.5296548
vn -0.21127337 -0.86728287 0.42580974
vn -0.8035337 -0.22619493 0.5340547
vn 0.03584344 -0.75679356 0.6375768
vn 0.4421091 -0.887512 0.008757405
vn -0.54585826 -0.802168 0.2079253
vn -0.19355829 -0.7836796 -0.5825522
vn -0.74285024 -0.52687764 -0.41017848
vn 0.18052949 -0.38550186 -0.8990337
vn 0.82660204 -0.47635135 -0.27685356
vn 0.4421091 -0.887512 0.008757405
vn 0.5681663 -0.80193746 0.13256715
vn 0.7158199 -0.5823562 -0.36668557
vn 0.7504384 0.02818909 -0.65161663
vn 0.72910684 -0.37486207 -0.56204313
vn 0.5781784 -0.2252444 -0.77751696
vn 0.2361086 -0.8440487 0.46056193
vn 0.4421091 -0.887512 0.008757405
vn 0.03584344 -0.75679356 0.6375768
vn -0.21127337 -0.86728287 0.42580974
vn -0.63221115 -0.054913342 0.77284753
vn -0.54389864 -0.25968897 0.7979572
vn -0.6498823 -0.084867686 0.75528157
vn -0.5775207 -0.25031096 0.7770548
vn -0.22799659 -0.20020631 0.95285606
vn -0.16251591 -0.10285443 0.9813304
vn -0.868697 -0.35914063 -0.33785152
vn -0.8669254 0.12412806 -0.48011243
vn -0.9491195 -0.18359117 -0.24972126
vn -0.248203 0.14267725 -0.9528026
vn -0.7416307 0.29041916 -0.6007449
vn -0.664124 0.30368876 -0.6791175
vn -0.0013572145 0.72958523 -0.6697582
vn -0.4684842 0.4749213 -0.7378132
vn -0.23430091 0.66634214 -0.69602084
vn -0.09228202 0.69984645 -0.69512045
vn 0.45325005 0.59834605 -0.64467615
vn -0.15710992 0.8419601 -0.49645388
vn -0.6498823 -0.084867686 0.75528157
vn -0.42296898 -0.28221887 0.8610746
vn -0.63221115 -0.054913342 0.77284753
vn -0.6582328 -0.3177958 0.67944026
vn -0.84971756 0.21741283 0.477803
vn -0.21136597 0.9404695 0.26615956
vn -0.08405922 -0.3066523 0.94810224
vn -0.739319 0.51402855 0.43495047
vn 0.71611667 0.08082342 0.6932851
vn 0.93398774 0.35517767 0.038935877
vn 0.057980314 0.9629133 -0.263507
vn 0.71611667 0.08082342 0.6932851
vn -0.14976218 -0.98872125 0.0011743456
vn -0.08405922 -0.3066523 0.94810224
vn 0.4863764 -0.8380455 -0.2472193
vn 0.60597754 -0.43391767 -0.6667131
vn 0.93398774 0.35517767 0.038935877
vn -0.08405922 -0.3066523 0.94810224
vn -0.14976218 -0.98872125 0.0011743456
vn -0.82654905 -0.16932267 -0.53679276
vn -0.739319 0.51402855 0.43495047
vn 0.4863764 -0.8380455 -0.2472193
vn -0.82654905 -0.16932267 -0.53679276
vn -0.14976218 -0.98872125 0.0011743456
vn -0.607359 -0.008973107 -0.7943768
vn -0.2820655 0.16228773 -0.9455693
vn 0.60597754 -0.43391767 -0.6667131
vn -0.607359 -0.008973107 -0.7943768
vn -0.21136597 0.9404695 0.26615956
vn -0.739319 0.51402855 0.43495047
vn -0.82654905 -0.16932267 -0.53679276
vn -0.607359 -0.008973107 -0.7943768
vn -0.2820655 0.16228773 -0.9455693
vn 0.057980314 0.9629133 -0.263507
vn -0.21136597 0.9404695 0.26615956
vn 0.057980314 0.9629133 -0.263507
vn -0.2820655 0.16228773 -0.9455693
vn 0.60597754 -0.43391767 -0.6667131
vn 0.93398774 0.35517767 0.038935877
vn 0.98234 0.13081765 0.08553002
vn -0.106361516 -0.11431834 0.9877341
vn 0.64156306 0.60083044 0.47686455
vn 0.19299553 -0.85356855 0.48264754
vn 0.33745825 -0.6789823 -0.6520003
vn 0.95479476 0.15168391 -0.2556531
vn 0.19299553 -0.85356855 0.48264754
vn -0.95829743 0.15064032 0.24284492
vn -0.106361516 -0.11431834 0.9877341
vn -0.9050344 -0.3692219 -0.17304139
vn -0.4621225 0.05207947 -0.88528526
vn 0.33745825 -0.6789823 -0.6520003
vn -0.106361516 -0.11431834 0.9877341
vn -0.95829743 0.15064032 0.24284492
vn -0.20948762 0.93330294 -0.2806447
vn 0.64156306 0.60083044 0.47686455
vn -0.9050344 -0.3692219 -0.17304139
vn -0.20948762 0.93330294 -0.2806447
vn -0.95829743 0.15064032 0.24284492
vn -0.04687725 0.96181154 -0.14452493
vn 0.14450902 0.8742335 -0.46349993
vn -0.4621225 0.05207947 -0.88528526
vn -0.04687725 0.96181154 -0.14452493
vn 0.98234 0.13081765 0.08553002
vn 0.64156306 0.60083044 0.47686455
vn -0.20948762 0.93330294 -0.2806447
vn -0.04687725 0.96181154 -0.14452493
vn 0.14450902 0.8742335 -0.46349993
vn 0.95479476 0.15168391 -0.2556531
vn 0.98234 0.13081765 0.08553002
vn 0.95479476 0.15168391 -0.2556531
vn 0.14450902 0.8742335 -0.46349993
vn -0.4621225 0.05207947 -0.88528526
vn 0.33745825 -0.6789823 -0.6520003
vn -0.2590933 -0.96463764 0.048429273
vn 0.16053766 0.10696164 0.9812168
vn 0.40198854 -0.83553976 0.37453717
vn -0.7577858 0.13401082 0.6385937
vn -0.9924473 0.11778606 -0.03427405
vn -0.46042952 -0.7440984 -0.48406845
vn -0.7577858 0.13401082 0.6385937
vn 0.552843 0.8197649 0.14949822
vn 0.16053766 0.10696164 0.9812168
vn -0.0095999455 0.9970177 -0.07657718
vn -0.27563876 0.7976949 -0.5363826
vn -0.9924473 0.11778606 -0.03427405
vn 0.16053766 0.10696164 0.9812168
vn 0.552843 0.8197649 0.14949822
vn 0.85315114 -0.16772605 -0.49396458
vn 0.40198854 -0.83553976 0.37453717
vn -0.0095999455 0.9970177 -0.07657718
vn 0.65083313 -0.13342378 -0.7474051
vn 0.85315114 -0.16772605 -0.49396458
vn 0.552843 0.8197649 0.14949822
vn 0.65083313 -0.13342378 -0.7474051
vn 0.40198854 -0.83553976 0.37453717
vn 0.85315114 -0.16772605 -0.49396458
vn -0.2590933 -0.96463764 0.048429273
vn -0.46042952 -0.7440984 -0.48406845
vn 0.26993868 -0.06495048 -0.9606843
vn -0.46042952 -0.7440984 -0.48406845
vn 0.26993868 -0.06495048 -0.9606843
vn -0.27563876 0.7976949 -0.5363826
vn -0.9924473 0.11778606 -0.03427405
vn -0.0095999455 0.9970177 -0.07657718
vn -0.27563876 0.7976949 -0.5363826
vn 0.26993868 -0.06495048 -0.9606843
vn 0.65083313 -0.13342378 -0.7474051
vn -0.23341027 -0.9517282 -0.11901596
vn -0.28501776 0.59581816 0.7508431
vn 0.24030629 -0.45336193 0.8583214
vn -0.82547903 0.1554462 0.49029517
vn -0.9943345 0.10576301 -0.01064564
vn -0.45070562 -0.65017503 -0.6116674
vn -0.82547903 0.1554462 0.49029517
vn 0.4638322 0.87595075 -0.1110121
vn -0.28501776 0.59581816 0.7508431
vn -0.014340898 0.98290044 0.059109244
vn -0.29064533 0.8778903 -0.3805711
vn -0.9943345 0.10576301 -0.01064564
vn -0.28501776 0.59581816 0.7508431
vn 0.4638322 0.87595075 -0.1110121
vn 0.98414 -0.17262334 -0.012962818
vn 0.24030629 -0.45336193 0.8583214
vn -0.014340898 0.98290044 0.059109244
vn 0.6741066 0.02163241 -0.73831725
vn 0.98414 -0.17262334 -0.012962818
vn 0.4638322 0.87595075 -0.1110121
vn 0.6741066 0.02163241 -0.73831725
vn 0.24030629 -0.45336193 0.8583214
vn 0.98414 -0.17262334 -0.012962818
vn -0.23341027 -0.9517282 -0.11901596
vn -0.45070562 -0.65017503 -0.6116674
vn 0.26666734 0.11675206 -0.956691
vn -0.45070562 -0.65017503 -0.6116674
vn 0.26666734 0.11675206 -0.956691
vn -0.29064533 0.8778903 -0.3805711
vn -0.9943345 0.10576301 -0.01064564
vn -0.014340898 0.98290044 0.059109244
vn -0.29064533 0.8778903 -0.3805711
vn 0.26666734 0.11675206 -0.956691
vn 0.6741066 0.02163241 -0.73831725
g 0.1667_0
f 3/3/3 2/2/2 1/1/1
f 6/6/6 5/5/5 4/4/4
f 9/9/9 8/8/8 7/7/7
f 12/12/12 11/11/11 10/10/10
f 15/15/15 14/14/14 13/13/13
f 18/18/18 17/17/17 16/16/16
f 21/21/21 20/20/20 19/19/19
f 24/24/24 23/23/23 22/22/22
f 27/27/27 26/26/26 25/25/25
f 30/30/30 29/29/29 28/28/28
f 28/28/28 31/31/31 30/30/30
f 28/28/28 32/32/32 31/31/31
f 31/31/31 32/32/32 33/33/33
f 31/31/31 33/33/33 34/34/34
f 35/35/35 31/31/31 34/34/34
f 31/31/31 35/35/35 36/36/36
f 37/37/37 31/31/31 36/36/36
f 36/36/36 35/35/35 38/38/38
f 35/35/35 39/39/39 38/38/38
f 39/39/39 35/35/35 34/34/34
f 40/40/40 39/39/39 34/34/34
f 41/41/41 39/39/39 40/40/40
f 42/42/42 41/41/41 40/40/40
f 43/43/43 39/39/39 41/41/41
f 42/42/42 44/44/44 41/41/41
f 45/45/45 44/44/44 42/42/42
f 45/45/45 46/46/46 44/44/44
f 47/47/47 45/45/45 42/42/42
f 45/45/45 47/47/47 48/48/48
f 45/45/45 48/48/48 49/49/49
f 50/50/50 45/45/45 49/49/49
f 50/50/50 49/49/49 51/51/51
f 52/52/52 50/50/50 51/51/51
f 53/53/53 52/52/52 51/51/51
f 44/44/44 54/54/54 41/41/41
f 54/54/54 43/43/43 41/41/41
f 46/46/46 54/54/54 44/44/44
f 43/43/43 54/54/54 46/46/46
f 55/55/55 52/52/52 53/53/53
f 56/56/56 55/55/55 53/53/53
f 57/57/57 55/55/55 56/56/56
f 52/52/52 55/55/55 58/58/58
f 58/58/58 59/59/59 52/52/52
f 59/59/59 60/60/60 52/52/52
f 61/61/61 52/52/52 60/60/60
f 50/50/50 52/52/52 61/61/61
f 62/62/62 50/50/50 61/61/61
f 61/61/61 63/63/63 62/62/62
f 50/50/50 62/62/62 64/64/64
f 63/63/63 65/65/65 62/62/62
f 62/62/62 65/65/65 64/64/64
f 66/66/66 50/50/50 64/64/64
f 67/67/67 66/66/66 64/64/64
f 68/68/68 66/66/66 67/67/67
f 50/50/50 66/66/66 45/45/45
f 66/66/66 68/68/68 69/69/69
f 68/68/68 70/70/70 69/69/69
f 66/66/66 69/69/69 71/71/71
f 66/66/66 71/71/71 45/45/45
f 45/45/45 71/71/71 72/72/72
f 46/46/46 45/45/45 72/72/72
f 65/65/65 63/63/63 73/73/73
f 63/63/63 74/74/74 73/73/73
f 65/65/65 73/73/73 75/75/75
f 74/74/74 75/75/75 73/73/73
f 76/76/76 65/65/65 75/75/75
f 77/77/77 75/75/75 74/74/74
f 72/72/72 78/78/78 46/46/46
f 72/72/72 79/79/79 78/78/78
f 46/46/46 78/78/78 80/80/80
f 79/79/79 81/81/81 78/78/78
f 82/82/82 81/81/81 79/79/79
f 83/83/83 81/81/81 82/82/82
f 84/84/84 46/46/46 80/80/80
f 84/84/84 43/43/43 46/46/46
f 43/43/43 84/84/84 85/85/85
f 85/85/85 86/86/86 43/43/43
f 87/87/87 43/43/43 86/86/86
f 90/90/90 89/89/89 88/88/88
f 89/89/89 91/91/91 88/88/88
f 88/88/88 91/91/91 92/92/92
f 93/93/93 88/88/88 92/92/92
f 93/93/93 92/92/92 94/94/94
f 95/95/95 93/93/93 94/94/94
f 94/94/94 96/96/96 95/95/95
f 96/96/96 97/97/97 95/95/95
f 95/95/95 98/98/98 93/93/93
f 98/98/98 99/99/99 93/93/93
f 95/95/95 97/97/97 100/100/100
f 97/97/97 101/101/101 100/100/100
f 102/102/102 98/98/98 95/95/95
f 100/100/100 102/102/102 95/95/95
f 99/99/99 98/98/98 103/103/103
f 98/98/98 102/102/102 103/103/103
f 104/104/104 99/99/99 103/103/103
f 105/105/105 99/99/99 104/104/104
f 106/106/106 105/105/105 104/104/104
f 105/105/105 106/106/106 107/107/107
f 107/107/107 108/108/108 105/105/105
f 109/109/109 108/108/108 107/107/107
f 110/110/110 109/109/109 107/107/107
f 111/111/111 109/109/109 110/110/110
f 109/109/109 111/111/111 112/112/112
f 113/113/113 109/109/109 112/112/112
f 114/114/114 113/113/113 112/112/112
f 115/115/115 114/114/114 112/112/112
f 116/116/116 114/114/114 115/115/115
f 117/117/117 116/116/116 115/115/115
f 118/118/118 116/116/116 117/117/117
f 119/119/119 118/118/118 117/117/117
f 122/122/122 121/121/121 120/120/120
f 123/123/123 121/121/121 122/122/122
f 124/124/124 123/123/123 122/122/122
f 124/124/124 122/122/122 125/125/125
f 126/126/126 124/124/124 125/125/125
f 127/127/127 126/126/126 125/125/125
f 128/128/128 126/126/126 127/127/127
f 126/126/126 128/128/128 129/129/129
f 130/130/130 126/126/126 129/129/129
f 129/129/129 131/131/131 130/130/130
f 131/131/131 132/132/132 130/130/130
f 133/133/133 132/132/132 131/131/131
f 134/134/134 133/133/133 131/131/131
f 133/133/133 134/134/134 135/135/135
f 133/133/133 135/135/135 136/136/136
f 130/130/130 132/132/132 137/137/137
f 138/138/138 130/130/130 137/137/137
f 137/137/137 132/132/132 139/139/139
f 132/132/132 133/133/133 139/139/139
f 140/140/140 133/133/133 136/136/136
f 140/140/140 136/136/136 141/141/141
f 142/142/142 140/140/140 141/141/141
f 143/143/143 142/142/142 141/141/141
f 144/144/144 142/142/142 143/143/143
f 145/145/145 144/144/144 143/143/143
f 142/142/142 144/144/144 146/146/146
f 146/146/146 144/144/144 147/147/147
f 147/147/147 148/148/148 146/146/146
f 147/147/147 149/149/149 148/148/148
f 150/150/150 142/142/142 146/146/146
f 142/142/142 150/150/150 151/151/151
f 142/142/142 151/151/151 152/152/152
f 140/140/140 142/142/142 152/152/152
f 153/153/153 140/140/140 152/152/152
f 140/140/140 153/153/153 133/133/133
f 154/154/154 153/153/153 152/152/152
f 155/155/155 153/153/153 154/154/154
f 154/154/154 156/156/156 155/155/155
f 153/153/153 155/155/155 157/157/157
f 153/153/153 157/157/157 133/133/133
f 154/154/154 158/158/158 156/156/156
f 133/133/133 157/157/157 139/139/139
f 158/158/158 159/159/159 156/156/156
f 157/157/157 160/160/160 139/139/139
f 139/139/139 160/160/160 161/161/161
f 160/160/160 157/157/157 161/161/161
f 162/162/162 139/139/139 161/161/161
f 157/157/157 163/163/163 161/161/161
f 155/155/155 163/163/163 157/157/157
f 162/162/162 161/161/161 164/164/164
f 161/161/161 163/163/163 164/164/164
f 165/165/165 162/162/162 164/164/164
f 166/166/166 162/162/162 165/165/165
f 163/163/163 167/167/167 164/164/164
f 167/167/167 163/163/163 155/155/155
f 168/168/168 167/167/167 155/155/155
f 168/168/168 155/155/155 169/169/169
f 155/155/155 170/170/170 169/169/169
f 155/155/155 171/171/171 170/170/170
f 172/172/172 170/170/170 171/171/171
f 155/155/155 156/156/156 171/171/171
f 172/172/172 171/171/171 173/173/173
f 156/156/156 174/174/174 171/171/171
f 173/173/173 171/171/171 174/174/174
f 175/175/175 174/174/174 156/156/156
f 173/173/173 174/174/174 175/175/175
f 159/159/159 175/175/175 156/156/156
f 173/173/173 176/176/176 172/172/172
f 172/172/172 176/176/176 177/177/177
f 178/178/178 176/176/176 173/173/173
f 178/178/178 173/173/173 175/175/175
f 179/179/179 178/178/178 175/175/175
f 180/180/180 175/175/175 159/159/159
f 180/180/180 179/179/179 175/175/175
f 181/181/181 179/179/179 180/180/180
f 182/182/182 181/181/181 180/180/180
f 183/183/183 180/180/180 159/159/159
f 184/184/184 180/180/180 183/183/183
f 183/183/183 185/185/185 184/184/184
f 188/188/188 187/187/187 186/186/186
f 186/186/186 187/187/187 189/189/189
f 187/187/187 190/190/190 189/189/189
f 193/193/193 192/192/192 191/191/191
f 191/191/191 194/194/194 193/193/193
f 191/191/191 195/195/195 194/194/194
f 196/196/196 195/195/195 191/191/191
f 194/194/194 197/197/197 193/193/193
f 195/195/195 197/197/197 194/194/194
f 198/198/198 197/197/197 195/195/195
f 199/199/199 198/198/198 195/195/195
f 199/199/199 195/195/195 200/200/200
f 199/199/199 200/200/200 201/201/201
f 202/202/202 201/201/201 200/200/200
f 203/203/203 200/200/200 195/195/195
f 195/195/195 204/204/204 203/203/203
f 207/207/207 206/206/206 205/205/205
f 208/208/208 207/207/207 205/205/205
f 211/211/211 210/210/210 209/209/209
f 212/212/212 211/211/211 209/209/209
f 209/209/209 213/213/213 212/212/212
f 214/214/214 213/213/213 209/209/209
f 214/214/214 215/215/215 213/213/213
f 213/213/213 216/216/216 212/212/212
f 216/216/216 217/217/217 212/212/212
f 215/215/215 218/218/218 213/213/213
f 219/219/219 213/213/213 218/218/218
f 218/218/218 215/215/215 220/220/220
f 219/219/219 218/218/218 221/221/221
f 218/218/218 220/220/220 222/222/222
f 222/222/222 221/221/221 218/218/218
f 222/222/222 223/223/223 221/221/221
f 225/225/225 224/224/224 102/102/102
f 102/102/102 226/226/226 225/225/225
f 102/102/102 100/100/100 226/226/226
f 226/226/226 100/100/100 227/227/227
f 100/100/100 101/101/101 227/227/227
f 228/228/228 227/227/227 101/101/101
f 229/229/229 226/226/226 227/227/227
f 229/229/229 227/227/227 230/230/230
f 229/229/229 230/230/230 231/231/231
f 232/232/232 229/229/229 231/231/231
f 235/235/235 234/234/234 233/233/233
f 236/236/236 235/235/235 233/233/233
f 235/235/235 236/236/236 237/237/237
f 237/237/237 238/238/238 235/235/235
f 237/237/237 239/239/239 238/238/238
f 236/236/236 240/240/240 237/237/237
f 241/241/241 237/237/237 240/240/240
f 242/242/242 241/241/241 240/240/240
f 245/245/245 244/244/244 243/243/243
f 244/244/244 246/246/246 243/243/243
f 243/243/243 246/246/246 247/247/247
f 246/246/246 248/248/248 247/247/247
f 248/248/248 249/249/249 247/247/247
f 248/248/248 250/250/250 249/249/249
f 250/250/250 248/248/248 251/251/251
f 249/249/249 250/250/250 252/252/252
f 250/250/250 253/253/253 252/252/252
f 252/252/252 253/253/253 254/254/254
f 257/257/257 256/256/256 255/255/255
f 256/256/256 258/258/258 255/255/255
f 259/259/259 258/258/258 256/256/256
f 258/258/258 260/260/260 255/255/255
f 260/260/260 261/261/261 255/255/255
f 264/264/264 263/263/263 262/262/262
f 263/263/263 264/264/264 265/265/265
f 263/263/263 265/265/265 266/266/266
f 267/267/267 263/263/263 266/266/266
f 267/267/267 266/266/266 268/268/268
f 266/266/266 269/269/269 268/268/268
f 269/269/269 266/266/266 265/265/265
f 269/269/269 265/265/265 270/270/270
f 271/271/271 269/269/269 270/270/270
f 270/270/270 265/265/265 272/272/272
f 275/275/275 274/274/274 273/273/273
f 276/276/276 274/274/274 275/275/275
f 276/276/276 277/277/277 274/274/274
f 276/276/276 275/275/275 278/278/278
f 278/278/278 279/279/279 276/276/276
f 282/282/282 281/281/281 280/280/280
f 281/281/281 283/283/283 280/280/280
f 283/283/283 281/281/281 284/284/284
f 285/285/285 284/284/284 281/281/281
f 284/284/284 285/285/285 286/286/286
f 287/287/287 284/284/284 286/286/286
f 288/288/288 284/284/284 287/287/287
f 289/289/289 287/287/287 286/286/286
f 290/290/290 287/287/287 289/289/289
f 293/293/293 292/292/292 291/291/291
f 294/294/294 292/292/292 293/293/293
f 292/292/292 294/294/294 295/295/295
f 292/292/292 295/295/295 296/296/296
f 292/292/292 296/296/296 297/297/297
f 297/297/297 298/298/298 292/292/292
f 295/295/295 294/294/294 299/299/299
f 299/299/299 294/294/294 300/300/300
f 294/294/294 301/301/301 300/300/300
f 300/300/300 301/301/301 302/302/302
f 303/303/303 301/301/301 294/294/294
f 306/306/306 305/305/305 304/304/304
f 306/306/306 304/304/304 307/307/307
f 308/308/308 306/306/306 307/307/307
f 308/308/308 309/309/309 306/306/306
f 307/307/307 310/310/310 308/308/308
f 311/311/311 310/310/310 307/307/307
f 314/314/314 313/313/313 312/312/312
f 312/312/312 313/313/313 315/315/315
f 316/316/316 312/312/312 315/315/315
f 317/317/317 316/316/316 315/315/315
f 320/320/320 319/319/319 318/318/318
f 318/318/318 319/319/319 321/321/321
f 321/321/321 319/319/319 322/322/322
f 322/322/322 319/319/319 323/323/323
f 319/319/319 324/324/324 323/323/323
f 325/325/325 323/323/323 324/324/324
f 325/325/325 326/326/326 323/323/323
f 329/329/329 328/328/328 327/327/327
f 328/328/328 329/329/329 330/330/330
f 329/329/329 331/331/331 330/330/330
f 329/329/329 332/332/332 331/331/331
f 329/329/329 333/333/333 332/332/332
f 334/334/334 333/333/333 329/329/329
f 335/335/335 334/334/334 329/329/329
f 338/338/338 337/337/337 336/336/336
f 339/339/339 338/338/338 336/336/336
f 340/340/340 338/338/338 339/339/339
f 340/340/340 341/341/341 338/338/338
f 341/341/341 342/342/342 338/338/338
f 341/341/341 340/340/340 343/343/343
f 344/344/344 341/341/341 343/343/343
f 340/340/340 345/345/345 343/343/343
f 345/345/345 346/346/346 343/343/343
f 347/347/347 346/346/346 345/345/345
f 343/343/343 346/346/346 348/348/348
f 349/349/349 347/347/347 345/345/345
f 349/349/349 350/350/350 347/347/347
f 351/351/351 348/348/348 346/346/346
f 350/350/350 352/352/352 347/347/347
f 353/353/353 351/351/351 346/346/346
f 354/354/354 351/351/351 353/353/353
f 355/355/355 354/354/354 353/353/353
f 356/356/356 355/355/355 353/353/353
f 357/357/357 353/353/353 346/346/346
f 347/347/347 357/357/357 346/346/346
f 357/357/357 356/356/356 353/353/353
f 358/358/358 356/356/356 357/357/357
f 359/359/359 357/357/357 347/347/347
f 359/359/359 358/358/358 357/357/357
f 347/347/347 352/352/352 360/360/360
f 360/360/360 359/359/359 347/347/347
f 352/352/352 361/361/361 360/360/360
f 362/362/362 361/361/361 352/352/352
f 363/363/363 361/361/361 362/362/362
f 364/364/364 363/363/363 362/362/362
f 365/365/365 359/359/359 360/360/360
f 362/362/362 366/366/366 364/364/364
f 364/364/364 366/366/366 367/367/367
f 366/366/366 362/362/362 368/368/368
f 366/366/366 368/368/368 369/369/369
f 366/366/366 370/370/370 367/367/367
f 371/371/371 370/370/370 366/366/366
f 372/372/372 371/371/371 366/366/366
f 373/373/373 359/359/359 365/365/365
f 374/374/374 373/373/373 365/365/365
f 365/365/365 375/375/375 374/374/374
f 373/373/373 376/376/376 359/359/359
f 376/376/376 358/358/358 359/359/359
f 373/373/373 374/374/374 377/377/377
f 373/373/373 377/377/377 376/376/376
f 374/374/374 378/378/378 377/377/377
f 377/377/377 378/378/378 379/379/379
f 377/377/377 380/380/380 376/376/376
f 376/376/376 380/380/380 358/358/358
f 380/380/380 381/381/381 358/358/358
f 381/381/381 382/382/382 358/358/358
f 382/382/382 383/383/383 358/358/358
f 358/358/358 383/383/383 356/356/356
f 383/383/383 384/384/384 356/356/356
f 384/384/384 383/383/383 385/385/385
f 356/356/356 384/384/384 386/386/386
f 387/387/387 384/384/384 385/385/385
f 387/387/387 386/386/386 384/384/384
f 387/387/387 385/385/385 388/388/388
f 389/389/389 387/387/387 388/388/388
f 387/387/387 390/390/390 386/386/386
f 387/387/387 389/389/389 390/390/390
f 390/390/390 391/391/391 386/386/386
f 392/392/392 390/390/390 389/389/389
f 395/395/395 394/394/394 393/393/393
f 396/396/396 395/395/395 393/393/393
f 396/396/396 397/397/397 395/395/395
f 400/400/400 399/399/399 398/398/398
f 399/399/399 400/400/400 401/401/401
f 404/404/404 403/403/403 402/402/402
f 403/403/403 405/405/405 402/402/402
f 405/405/405 406/406/406 402/402/402
f 407/407/407 406/406/406 405/405/405
f 408/408/408 407/407/407 405/405/405
f 411/411/411 410/410/410 409/409/409
f 412/412/412 411/411/411 409/409/409
f 412/412/412 409/409/409 413/413/413
f 414/414/414 411/411/411 412/412/412
f 412/412/412 413/413/413 415/415/415
f 415/415/415 414/414/414 412/412/412
f 418/418/418 417/417/417 416/416/416
f 419/419/419 418/418/418 416/416/416
f 422/422/422 421/421/421 420/420/420
f 422/422/422 420/420/420 423/423/423
f 424/424/424 423/423/423 420/420/420
f 425/425/425 422/422/422 423/423/423
f 425/425/425 423/423/423 426/426/426
f 423/423/423 427/427/427 426/426/426
f 427/427/427 428/428/428 426/426/426
f 429/429/429 428/428/428 427/427/427
f 430/430/430 429/429/429 427/427/427
f 428/428/428 431/431/431 426/426/426
f 431/431/431 432/432/432 426/426/426
f 432/432/432 433/433/433 426/426/426
f 426/426/426 433/433/433 434/434/434
f 434/434/434 433/433/433 435/435/435
f 433/433/433 436/436/436 435/435/435
f 432/432/432 437/437/437 433/433/433
f 437/437/437 432/432/432 438/438/438
f 437/437/437 438/438/438 439/439/439
f 438/438/438 440/440/440 439/439/439
f 439/439/439 440/440/440 441/441/441
f 439/439/439 441/441/441 442/442/442
f 441/441/441 443/443/443 442/442/442
f 442/442/442 443/443/443 444/444/444
f 445/445/445 442/442/442 444/444/444
f 446/446/446 445/445/445 444/444/444
f 447/447/447 445/445/445 446/446/446
f 448/448/448 447/447/447 446/446/446
f 447/447/447 448/448/448 449/449/449
f 447/447/447 449/449/449 450/450/450
f 451/451/451 447/447/447 450/450/450
f 452/452/452 451/451/451 450/450/450
f 453/453/453 451/451/451 452/452/452
f 456/456/456 455/455/455 454/454/454
f 455/455/455 457/457/457 454/454/454
f 454/454/454 457/457/457 458/458/458
f 458/458/458 459/459/459 454/454/454
f 454/454/454 459/459/459 460/460/460
f 460/460/460 459/459/459 461/461/461
f 460/460/460 461/461/461 462/462/462
f 460/460/460 462/462/462 463/463/463
f 454/454/454 460/460/460 463/463/463
f 454/454/454 463/463/463 464/464/464
f 467/467/467 466/466/466 465/465/465
f 465/465/465 468/468/468 467/467/467
f 468/468/468 469/469/469 467/467/467
f 467/467/467 469/469/469 470/470/470
f 470/470/470 471/471/471 467/467/467
f 470/470/470 472/472/472 471/471/471
f 471/471/471 472/472/472 473/473/473
f 474/474/474 471/471/471 473/473/473
f 473/473/473 475/475/475 474/474/474
f 478/478/478 477/477/477 476/476/476
f 479/479/479 478/478/478 476/476/476
f 479/479/479 476/476/476 480/480/480
f 479/479/479 481/481/481 478/478/478
f 482/482/482 479/479/479 480/480/480
f 482/482/482 481/481/481 479/479/479
f 480/480/480 483/483/483 482/482/482
f 484/484/484 481/481/481 482/482/482
f 482/482/482 483/483/483 485/485/485
f 484/484/484 482/482/482 485/485/485
f 488/488/488 487/487/487 486/486/486
f 486/486/486 489/489/489 488/488/488
f 486/486/486 490/490/490 489/489/489
f 493/493/493 492/492/492 491/491/491
f 494/494/494 493/493/493 491/491/491
f 494/494/494 491/491/491 495/495/495
f 496/496/496 493/493/493 494/494/494
f 494/494/494 495/495/495 497/497/497
f 497/497/497 496/496/496 494/494/494
f 500/500/500 499/499/499 498/498/498
f 500/500/500 498/498/498 501/501/501
f 502/502/502 500/500/500 501/501/501
f 502/502/502 501/501/501 503/503/503
f 504/504/504 500/500/500 502/502/502
f 502/502/502 503/503/503 505/505/505
f 502/502/502 506/506/506 504/504/504
f 507/507/507 502/502/502 505/505/505
f 502/502/502 507/507/507 506/506/506
f 507/507/507 505/505/505 508/508/508
f 507/507/507 509/509/509 506/506/506
f 507/507/507 508/508/508 510/510/510
f 509/509/509 507/507/507 510/510/510
f 513/513/513 512/512/512 511/511/511
f 513/513/513 511/511/511 514/514/514
f 513/513/513 514/514/514 515/515/515
f 513/513/513 515/515/515 516/516/516
f 515/515/515 517/517/517 516/516/516
f 517/517/517 518/518/518 516/516/516
f 516/516/516 519/519/519 513/513/513
f 513/513/513 519/519/519 520/520/520
f 523/523/523 522/522/522 521/521/521
f 524/524/524 523/523/523 521/521/521
f 525/525/525 523/523/523 524/524/524
f 525/525/525 524/524/524 526/526/526
f 526/526/526 527/527/527 525/525/525
f 527/527/527 528/528/528 525/525/525
f 531/531/531 530/530/530 529/529/529
f 532/532/532 531/531/531 529/529/529
f 535/535/535 534/534/534 533/533/533
f 536/536/536 534/534/534 535/535/535
f 537/537/537 536/536/536 535/535/535
f 538/538/538 534/534/534 536/536/536
f 541/541/541 540/540/540 539/539/539
f 539/539/539 542/542/542 541/541/541
f 539/539/539 543/543/543 542/542/542
f 543/543/543 544/544/544 542/542/542
f 543/543/543 545/545/545 544/544/544
f 548/548/548 547/547/547 546/546/546
f 549/549/549 548/548/548 546/546/546
f 552/552/552 551/551/551 550/550/550
f 551/551/551 553/553/553 550/550/550
f 550/550/550 553/553/553 554/554/554
f 553/553/553 555/555/555 554/554/554
f 558/558/558 557/557/557 556/556/556
f 559/559/559 557/557/557 558/558/558
f 560/560/560 559/559/559 558/558/558
f 561/561/561 557/557/557 559/559/559
f 562/562/562 559/559/559 560/560/560
f 559/559/559 562/562/562 561/561/561
f 562/562/562 563/563/563 561/561/561
f 563/563/563 562/562/562 564/564/564
f 562/562/562 565/565/565 564/564/564
f 562/562/562 566/566/566 565/565/565
f 565/565/565 566/566/566 567/567/567
f 570/570/570 569/569/569 568/568/568
f 568/568/568 569/569/569 571/571/571
f 569/569/569 572/572/572 571/571/571
f 575/575/575 574/574/574 573/573/573
f 574/574/574 576/576/576 573/573/573
f 576/576/576 577/577/577 573/573/573
f 577/577/577 578/578/578 573/573/573
f 581/581/581 580/580/580 579/579/579
f 580/580/580 582/582/582 579/579/579
f 582/582/582 583/583/583 579/579/579
f 583/583/583 584/584/584 579/579/579
f 587/587/587 586/586/586 585/585/585
f 588/588/588 587/587/587 585/585/585
f 591/591/591 590/590/590 589/589/589
f 590/590/590 592/592/592 589/589/589
f 592/592/592 593/593/593 589/589/589
f 593/593/593 594/594/594 589/589/589
f 597/597/597 596/596/596 595/595/595
f 598/598/598 597/597/597 595/595/595
f 601/601/601 600/600/600 599/599/599
f 602/602/602 601/601/601 599/599/599
f 605/605/605 604/604/604 603/603/603
f 606/606/606 605/605/605 603/603/603
f 609/609/609 608/608/608 607/607/607
f 608/608/608 610/610/610 607/607/607
f 610/610/610 611/611/611 607/607/607
f 611/611/611 612/612/612 607/607/607
f 615/615/615 614/614/614 613/613/613
f 614/614/614 616/616/616 613/613/613
f 616/616/616 617/617/617 613/613/613
f 617/617/617 618/618/618 613/613/613
f 621/621/621 620/620/620 619/619/619
f 622/622/622 621/621/621 619/619/619
f 625/625/625 624/624/624 623/623/623
f 624/624/624 626/626/626 623/623/623
f 626/626/626 627/627/627 623/623/623
f 627/627/627 628/628/628 623/623/623
f 631/631/631 630/630/630 629/629/629
f 632/632/632 631/631/631 629/629/629
f 635/635/635 634/634/634 633/633/633
f 636/636/636 635/635/635 633/633/633
f 639/639/639 638/638/638 637/637/637
f 640/640/640 639/639/639 637/637/637
f 643/643/643 642/642/642 641/641/641
f 642/642/642 644/644/644 641/641/641
f 644/644/644 645/645/645 641/641/641
f 645/645/645 646/646/646 641/641/641
f 649/649/649 648/648/648 647/647/647
f 648/648/648 650/650/650 647/647/647
f 650/650/650 651/651/651 647/647/647
f 651/651/651 652/652/652 647/647/647
f 655/655/655 654/654/654 653/653/653
f 656/656/656 655/655/655 653/653/653
f 659/659/659 658/658/658 657/657/657
f 660/660/660 659/659/659 657/657/657
f 663/663/663 662/662/662 661/661/661
f 662/662/662 664/664/664 661/661/661
f 664/664/664 665/665/665 661/661/661
f 665/665/665 666/666/666 661/661/661
f 669/669/669 668/668/668 667/667/667
f 670/670/670 669/669/669 667/667/667
f 673/673/673 672/672/672 671/671/671
f 674/674/674 673/673/673 671/671/671
f 677/677/677 676/676/676 675/675/675
f 676/676/676 678/678/678 675/675/675
f 678/678/678 679/679/679 675/675/675
f 679/679/679 680/680/680 675/675/675
f 683/683/683 682/682/682 681/681/681
f 682/682/682 684/684/684 681/681/681
f 684/684/684 685/685/685 681/681/681
f 685/685/685 686/686/686 681/681/681
f 689/689/689 688/688/688 687/687/687
f 690/690/690 689/689/689 687/687/687
f 693/693/693 692/692/692 691/691/691
f 694/694/694 693/693/693 691/691/691
f 697/697/697 696/696/696 695/695/695
f 696/696/696 698/698/698 695/695/695
f 698/698/698 699/699/699 695/695/695
f 699/699/699 700/700/700 695/695/695
f 703/703/703 702/702/702 701/701/701
f 704/704/704 703/703/703 701/701/701
f 707/707/707 706/706/706 705/705/705
f 708/708/708 707/707/707 705/705/705
