g 0.1667
v -0.009519762 -1.1023524 3.8079672
v 1.8371795E-06 -1.102043 4.06485
v 0.4967195 -0.9654703 3.9629018
v 1.0330528 0.28242815 1.9241698
v 1.1375941 1.1490289 2.7489035
v 0.5375572 0.9508566 2.1597528
v 1.2006867 -0.4581928 2.7440777
v 0.81997013 -0.6420796 2.7906702
v 1.2898084 0.091380045 3.0770311
v -0.0002547071 -1.5848117 4.48137
v 1.0129303E-06 -1.9789404 4.655337
v 0.38476893 -1.9308916 4.7062044
v 0.5040267 -0.9011785 5.9412894
v 0.0051141996 -0.9615824 5.916117
v 0.0104577895 -0.78472376 6.0970764
v 2.45726 0.39393222 2.0912447
v 2.7032335 0.26542366 2.0379143
v 2.8043542 0.40739393 2.3209348
v -0.009519762 -1.1023524 3.8079672
v -0.50317264 -1.0445162 4.0027957
v 1.8371795E-06 -1.102043 4.06485
v -1.0330677 0.44656458 1.9992515
v -0.53757596 1.0110663 2.244322
v -1.1202385 1.058175 2.778291
v -1.2006711 -0.4868505 2.679995
v -1.2826511 -0.062297285 3.0651066
v -0.81995165 -0.6739009 2.713539
v -0.0002547071 -1.5848117 4.48137
v -0.38476673 -1.9308914 4.7062044
v 1.0129303E-06 -1.9789404 4.655337
v -0.5086255 -0.8176398 5.947333
v 0.0104577895 -0.78472376 6.0970764
v 0.0051141996 -0.9615824 5.916117
v -2.2583046 -2.1696455 2.613048
v -2.6018004 -1.9346545 2.6272912
v -2.5236132 -2.2563152 2.6573336
v 2.1621745 -0.11716175 2.6421137
v 2.1934743 -0.06634879 2.3529077
v 2.3355198 0.0742228 2.1269727
v 2.1500435 -0.13268352 2.427354
v 2.1717663 -0.23952508 2.4408727
v 2.40743 -0.29466045 3.0672858
v 2.2685463 -0.08445072 2.9857984
v 2.3839571 0.37681437 3.0624714
v 1.2528275 0.52555513 5.112781
v 0.88065445 0.8098344 5.0384693
v 1.2241032 0.48233962 4.71057
v 0.89861935 -0.014508843 5.778251
v 1.7388954 0.10580921 5.6337585
v 1.5191851 -0.24479222 5.795766
v 1.7774649 0.5862138 5.1111603
v 1.8405178 0.76206183 4.0485973
v 0.38442275 0.44678247 5.681375
v 0.04237861 0.33915114 5.8333473
v 0.030612849 -0.0530082 6.152627
v 0.054273285 0.64120495 5.4237585
v 0.03890179 1.0843112 4.562182
v 0.7666176 1.0807741 3.8743997
v 1.0786059 0.8764324 3.886087
v 0.020344593 1.0444767 3.9715548
v 2.3184013 0.7887001 3.9421039
v 2.780532 0.39814842 3.1942782
v 2.3839571 0.37681437 3.0624714
v 2.6270757 0.63902414 4.4350376
v 2.260108 0.26320863 4.959659
v 1.9786937 -0.36864996 5.4786153
v 2.695876 0.64460623 2.4671729
v 2.5617135 0.6508478 2.2574754
v 2.8043542 0.40739393 2.3209348
v 2.1628585 0.6066991 2.5509534
v 2.12467 0.46569657 2.8749878
v 1.116715 -0.9322877 4.711751
v 1.1654863 -0.2523706 4.4119153
v 0.9502979 -0.85544455 4.091733
v 0.9190328 -0.57036185 4.0096493
v 1.1430198 0.111793965 3.7429414
v 0.76955354 -0.790117 3.210785
v 1.2241032 0.48233962 4.71057
v 1.0786059 0.8764324 3.886087
v 0.88065445 0.8098344 5.0384693
v 0.6099057 1.4066042 1.2157717
v 0.7400665 1.420311 1.8396147
v 0.59065664 0.80768996 1.6360614
v 0.45170283 1.3604828 0.66096425
v 0.8198738 0.43927246 1.0793165
v 0.26627252 0.079382 1.4107915
v 0.67870426 0.15991023 1.720427
v 0.4409077 -0.54913116 1.5549207
v 0.2872058 -0.052390873 1.606899
v 0.30039355 0.102905124 1.8626962
v 0.28143153 -0.48948514 2.184146
v 0.21705423 -0.46577203 2.172238
v 0.25147867 0.15367365 1.9572786
v -3.6968831E-06 0.2998823 2.2626977
v 0.00034528528 1.0911345 2.4999785
v 0.18537313 -0.5059257 2.1757214
v 0.4967195 -0.9654703 3.9629018
v 1.8371795E-06 -1.102043 4.06485
v 0.5894755 -1.2592474 4.18637
v 0.9502979 -0.85544455 4.091733
v 1.116715 -0.9322877 4.711751
v 0.9190328 -0.57036185 4.0096493
v 0.76955354 -0.790117 3.210785
v -0.009519762 -1.1023524 3.8079672
v 1.7970788E-05 -1.1681721 3.026202
v 1.0791135 1.3753139 1.8019023
v 1.606512 1.3963709 0.7555276
v 1.1966217 0.80605274 1.3932824
v 1.0085046 0.68883526 1.7877505
v 1.3280572 0.039738595 1.7474713
v 1.3458706 -0.53648746 1.6293628
v 1.3312119 0.016732216 2.2230208
v 1.0330528 0.28242815 1.9241698
v 1.1375941 1.1490289 2.7489035
v 1.2898084 0.091380045 3.0770311
v 1.3259417 -0.28315756 2.3270426
v 1.252913 -0.4950332 2.3797216
v 1.2006867 -0.4581928 2.7440777
v 1.0330528 0.28242815 1.9241698
v 0.30039355 0.102905124 1.8626962
v 0.67870426 0.15991023 1.720427
v 1.3280572 0.039738595 1.7474713
v 1.0085046 0.68883526 1.7877505
v 0.59065664 0.80768996 1.6360614
v 0.7400665 1.420311 1.8396147
v 1.0791135 1.3753139 1.8019023
v 1.5191851 -0.24479222 5.795766
v 1.7388954 0.10580921 5.6337585
v 1.9786937 -0.36864996 5.4786153
v 1.7774649 0.5862138 5.1111603
v 0.22267716 -1.8238641 5.145556
v 1.3495103E-06 -1.8620727 4.9941306
v 1.4070073E-06 -2.0016556 5.087274
v 0.22613412 -1.8270241 5.433516
v 1.8230046E-06 -1.9959891 5.685637
v 0.37337485 -1.8749788 5.646029
v 0.4356573 -1.7837896 5.426701
v 0.47852975 -1.5889231 5.235771
v 1.0100001 -0.7207761 5.6879077
v 0.5040267 -0.9011785 5.9412894
v 0.0104577895 -0.78472376 6.0970764
v 0.89861935 -0.014508843 5.778251
v 0.030612849 -0.0530082 6.152627
v 1.0100001 -0.7207761 5.6879077
v 0.89861935 -0.014508843 5.778251
v 1.5191851 -0.24479222 5.795766
v 1.9786937 -0.36864996 5.4786153
v 1.7155969 -0.9321029 4.978511
v 0.8651129 -0.9510777 5.4413414
v 0.5040267 -0.9011785 5.9412894
v 0.5427572 -1.0094451 5.124751
v 1.116715 -0.9322877 4.711751
v 0.5534328 -1.0306704 4.892455
v 0.5894755 -1.2592474 4.18637
v 0.35399848 -1.056773 4.594721
v 0.27431053 -1.0889776 4.7393365
v 1.8371795E-06 -1.102043 4.06485
v -0.002286137 -1.1572682 4.584597
v 2.40743 -0.29466045 3.0672858
v 2.8909369 -0.23994803 3.1450517
v 2.5873652 -0.19852328 2.351915
v 2.1717663 -0.23952508 2.4408727
v 2.1934743 -0.06634879 2.3529077
v 2.3355198 0.0742228 2.1269727
v 2.45726 0.39393222 2.0912447
v 2.7032335 0.26542366 2.0379143
v 2.5873652 -0.19852328 2.351915
v 2.8043542 0.40739393 2.3209348
v 2.7032335 0.26542366 2.0379143
v 2.8909369 -0.23994803 3.1450517
v 2.780532 0.39814842 3.1942782
v 2.695876 0.64460623 2.4671729
v 2.8310359 0.23822391 4.0573006
v 2.5607343 -0.25559235 4.1772933
v 2.6270757 0.63902414 4.4350376
v 2.6130128 0.29186964 4.406594
v 2.4360876 -0.24105 4.3190117
v 2.260108 0.26320863 4.959659
v 2.0674891 -0.18621755 4.7796717
v 1.9786937 -0.36864996 5.4786153
v 1.7155969 -0.9321029 4.978511
v 1.6320431 -0.67675924 4.482345
v 1.953155 -0.26058793 3.9885635
v 2.2685463 -0.08445072 2.9857984
v 1.8025839 0.33231497 3.4739442
v 1.7147553 -0.09091544 3.765955
v 1.8405178 0.76206183 4.0485973
v 1.1654863 -0.2523706 4.4119153
v 1.2241032 0.48233962 4.71057
v 1.2528275 0.52555513 5.112781
v 2.40743 -0.29466045 3.0672858
v 1.7147553 -0.09091544 3.765955
v 2.116617 -0.3401692 3.8904705
v 2.2685463 -0.08445072 2.9857984
v 2.45726 0.39393222 2.0912447
v 1.9897316 0.18162966 2.2779415
v 2.3355198 0.0742228 2.1269727
v 2.0906734 0.4467194 2.248317
v 2.5617135 0.6508478 2.2574754
v 2.8043542 0.40739393 2.3209348
v 2.1628585 0.6066991 2.5509534
v 0.50596803 1.4303194 0.45525467
v 0.82336575 1.3118539 0.38248742
v 0.9103353 1.4474703 0.36013353
v 1.2018958 1.2878007 0.39004576
v 1.4182427 1.441276 0.4937005
v 2.3355198 0.0742228 2.1269727
v 1.9897316 0.18162966 2.2779415
v 1.8460007 0.022941828 2.7050748
v 2.1621745 -0.11716175 2.6421137
v 0.9103353 1.4474703 0.36013353
v 0.45170283 1.3604828 0.66096425
v 0.50596803 1.4303194 0.45525467
v 1.1995159 1.4273251 1.0244008
v 1.4182427 1.441276 0.4937005
v 0.6099057 1.4066042 1.2157717
v 1.606512 1.3963709 0.7555276
v 0.7400665 1.420311 1.8396147
v 1.0791135 1.3753139 1.8019023
v 0.8198738 0.43927246 1.0793165
v 0.97698 0.7344452 1.0638638
v 0.45170283 1.3604828 0.66096425
v 1.3458706 -0.53648746 1.6293628
v 1.1966217 0.80605274 1.3932824
v 0.84468263 -0.6508866 1.5349077
v 0.4409077 -0.54913116 1.5549207
v 0.28143153 -0.48948514 2.184146
v 1.0297289 -0.6065551 2.378793
v 1.252913 -0.4950332 2.3797216
v 1.2006867 -0.4581928 2.7440777
v 0.81997013 -0.6420796 2.7906702
v 0.8292673 -0.66068906 2.3586614
v 0.50596803 1.4303194 0.45525467
v 0.45170283 1.3604828 0.66096425
v 0.82336575 1.3118539 0.38248742
v 0.97698 0.7344452 1.0638638
v 1.2018958 1.2878007 0.39004576
v 1.606512 1.3963709 0.7555276
v 1.1966217 0.80605274 1.3932824
v 1.4182427 1.441276 0.4937005
v 1.0330528 0.28242815 1.9241698
v 0.5375572 0.9508566 2.1597528
v 0.30039355 0.102905124 1.8626962
v 0.25147867 0.15367365 1.9572786
v 0.52623063 1.0115339 2.1172862
v 0.00034528528 1.0911345 2.4999785
v 1.1375941 1.1490289 2.7489035
v 1.1834483 1.2033634 2.7580266
v 0.52623063 1.0115339 2.1172862
v 0.5375572 0.9508566 2.1597528
v 0.020344593 1.0444767 3.9715548
v 0.021647707 1.1029074 3.9851327
v 0.79044235 1.1480751 3.8642647
v 0.7666176 1.0807741 3.8743997
v 1.1379954 0.9111874 3.867436
v 1.0786059 0.8764324 3.886087
v 1.2120239 0.11398667 3.74542
v 1.1430198 0.111793965 3.7429414
v 0.8253659 -0.8403881 3.2097757
v 0.76955354 -0.790117 3.210785
v 1.8760638E-05 -1.2330145 3.0080552
v 1.7970788E-05 -1.1681721 3.026202
v 1.6320431 -0.67675924 4.482345
v 1.116715 -0.9322877 4.711751
v 1.7155969 -0.9321029 4.978511
v 1.1654863 -0.2523706 4.4119153
v 1.5503863 -0.31923175 4.0378184
v 1.7147553 -0.09091544 3.765955
v 1.953155 -0.26058793 3.9885635
v 1.7147553 -0.09091544 3.765955
v 1.953155 -0.26058793 3.9885635
v 2.116617 -0.3401692 3.8904705
v 2.5607343 -0.25559235 4.1772933
v 2.4360876 -0.24105 4.3190117
v 2.0674891 -0.18621755 4.7796717
v 2.8909369 -0.23994803 3.1450517
v 2.40743 -0.29466045 3.0672858
v 2.3839571 0.37681437 3.0624714
v 1.8025839 0.33231497 3.4739442
v 2.2685463 -0.08445072 2.9857984
v 1.8405178 0.76206183 4.0485973
v 1.2898084 0.091380045 3.0770311
v 1.1834483 1.2033634 2.7580266
v 1.1375941 1.1490289 2.7489035
v 1.3557346 0.086893976 3.0847206
v 0.81997013 -0.6420796 2.7906702
v 0.8738297 -0.76044554 2.6779659
v 0.28143153 -0.48948514 2.184146
v 0.28289482 -0.9191608 2.1388683
v 0.21705423 -0.46577203 2.172238
v 0.18537313 -0.5059257 2.1757214
v 7.974372E-06 -0.5489427 2.1656497
v 1.38394535E-05 -0.8744439 2.1319172
v -3.6968831E-06 0.2998823 2.2626977
v 0.5427572 -1.0094451 5.124751
v 0.41623455 -1.3466907 5.7901173
v 0.5040267 -0.9011785 5.9412894
v 0.52557844 -1.1445124 5.0125
v 0.5534328 -1.0306704 4.892455
v 0.66255647 -1.6233492 4.7666116
v 0.49524626 -1.5711524 5.7824397
v 0.5949473 -1.5512865 4.8912015
v 0.47852975 -1.5889231 5.235771
v 0.4356573 -1.7837896 5.426701
v 0.37337485 -1.8749788 5.646029
v 0.50767124 -1.5669848 5.0411406
v 0.22267716 -1.8238641 5.145556
v 0.34013215 -1.8167938 4.9653997
v 0.38358378 -1.8711114 4.8050256
v 0.38358378 -1.8711114 4.8050256
v 0.5949473 -1.5512865 4.8912015
v 0.66255647 -1.6233492 4.7666116
v 0.38476893 -1.9308916 4.7062044
v 1.1664955E-06 -1.911655 4.7826223
v 1.0129303E-06 -1.9789404 4.655337
v 1.3495103E-06 -1.8620727 4.9941306
v 0.34013215 -1.8167938 4.9653997
v 0.22267716 -1.8238641 5.145556
v 0.66255647 -1.6233492 4.7666116
v -0.0002547071 -1.5848117 4.48137
v 0.38476893 -1.9308916 4.7062044
v 0.2726925 -1.2917777 4.6744623
v 0.5534328 -1.0306704 4.892455
v -0.002286137 -1.1572682 4.584597
v 0.27431053 -1.0889776 4.7393365
v 1.1379954 0.9111874 3.867436
v 1.1834483 1.2033634 2.7580266
v 1.3557346 0.086893976 3.0847206
v 1.2120239 0.11398667 3.74542
v 0.8253659 -0.8403881 3.2097757
v 0.8738297 -0.76044554 2.6779659
v 0.792659 -1.0015745 2.6865735
v 0.7606387 -0.9825503 2.1319025
v 0.79044235 1.1480751 3.8642647
v 1.1834483 1.2033634 2.7580266
v 1.1379954 0.9111874 3.867436
v 0.4902287 1.451267 2.7851284
v 0.52623063 1.0115339 2.1172862
v 0.00034528528 1.0911345 2.4999785
v 0.013991158 1.3650097 3.3824549
v 0.021647707 1.1029074 3.9851327
v 0.8253659 -0.8403881 3.2097757
v 1.7225859E-05 -1.2042487 2.318445
v 1.8760638E-05 -1.2330145 3.0080552
v 0.792659 -1.0015745 2.6865735
v 0.6341266 -1.1353776 2.1682434
v 0.7606387 -0.9825503 2.1319025
v 1.745244E-05 -1.0930576 1.9220535
v 0.052203972 -0.90370715 1.5753442
v 1.4315666E-05 -0.9035796 1.5565329
v 1.38394535E-05 -0.8744439 2.1319172
v 1.4315666E-05 -0.9035796 1.5565329
v 0.052203972 -0.90370715 1.5753442
v 0.28289482 -0.9191608 2.1388683
v 0.7606387 -0.9825503 2.1319025
v 0.8738297 -0.76044554 2.6779659
v 1.9897316 0.18162966 2.2779415
v 2.0906734 0.4467194 2.248317
v 1.8460007 0.022941828 2.7050748
v 2.12467 0.46569657 2.8749878
v 2.1628585 0.6066991 2.5509534
v 2.1621745 -0.11716175 2.6421137
v 1.8460007 0.022941828 2.7050748
v 2.12467 0.46569657 2.8749878
v 2.3839571 0.37681437 3.0624714
v 0.0051141996 -0.9615824 5.916117
v 0.5040267 -0.9011785 5.9412894
v 0.41623455 -1.3466907 5.7901173
v 1.7204483E-06 -1.3466601 5.94821
v 0.2735445 -1.6615609 5.911778
v 1.9038931E-06 -1.7895204 5.9251723
v 0.49524626 -1.5711524 5.7824397
v 1.8230046E-06 -1.9959891 5.685637
v 0.37337485 -1.8749788 5.646029
v -2.0885432 -1.8929937 3.352233
v -2.2049294 -2.2744257 2.9362872
v -2.1007373 -2.134046 3.182095
v -2.0737638 -2.0957499 3.2802513
v -2.1170578 -2.1256998 3.3766794
v -2.3765564 -1.5635715 3.636762
v -2.1957195 -1.5602583 3.4433608
v -2.2173817 -1.2957289 3.0414665
v -1.1605153 0.53216326 4.610383
v -1.1375494 0.2708814 4.2750916
v -0.8192617 0.7848345 4.723133
v -0.8823217 0.15350235 5.6486998
v -1.6639243 0.5022868 5.1255045
v -1.4918203 0.19983713 5.540344
v -1.6361988 0.555864 4.29998
v -1.6637282 -0.1407907 3.3344223
v -0.36214143 0.5272271 5.546143
v 0.04237861 0.33915114 5.8333473
v 0.030612849 -0.0530082 6.152627
v 0.054273285 0.64120495 5.4237585
v 0.03890179 1.0843112 4.562182
v -0.7333799 0.91358626 3.7916365
v -1.0391774 0.6399783 3.7780285
v 0.020344593 1.0444767 3.9715548
v -2.114136 -0.24036336 3.1425326
v -2.604959 -1.143863 2.998802
v -2.2173817 -1.2957289 3.0414665
v -2.4542508 0.13591266 3.5459206
v -2.1507845 0.2706138 4.2887874
v -1.9519743 0.08967328 5.2235823
v -2.4516697 -1.7110285 2.497388
v -2.3131723 -1.9073956 2.432042
v -2.6018004 -1.9346545 2.6272912
v -1.9399669 -1.6810957 2.6700969
v -1.9402866 -1.4454505 2.9361973
v -1.162998 -0.9028704 4.961633
v -0.96609926 -0.99601233 4.2011647
v -1.1540747 -0.5379113 4.4063087
v -0.9246864 -0.73532236 4.0649366
v -1.1295667 -0.13611029 3.719756
v -0.7695545 -0.90845466 3.1302273
v -1.1375494 0.2708814 4.2750916
v -1.0391774 0.6399783 3.7780285
v -0.8192617 0.7848345 4.723133
v -0.60990405 0.00884651 -0.068217814
v -0.59066015 0.3344735 0.57436323
v -0.7400865 0.6420349 -0.02744878
v -0.4516676 -0.54917854 -0.02806627
v -0.81987 -0.2737136 0.76514304
v -0.2662743 0.034849808 1.1653504
v -0.67872083 0.61057 1.4943151
v -0.44089448 -0.471672 1.5543191
v -0.28721064 0.13606063 1.6213892
v -0.30040076 0.23773712 1.9067979
v -0.28142527 -0.47076753 2.1620429
v -0.21704845 -0.44723883 2.1486394
v -0.25148565 0.26039356 2.0014095
v -3.6968831E-06 0.2998823 2.2626977
v 0.00034528528 1.0911345 2.4999785
v -0.18536697 -0.48864993 2.1474547
v -0.50317264 -1.0445162 4.0027957
v -0.60222507 -1.298874 4.2663302
v 1.8371795E-06 -1.102043 4.06485
v -0.96609926 -0.99601233 4.2011647
v -1.162998 -0.9028704 4.961633
v -0.9246864 -0.73532236 4.0649366
v -0.7695545 -0.90845466 3.1302273
v -0.009519762 -1.1023524 3.8079672
v 1.7970788E-05 -1.1681721 3.026202
v -1.0791305 0.5997865 0.014326524
v -1.1966225 0.09178964 0.5303341
v -1.606486 -0.45228603 -0.072507985
v -1.0085113 0.45457575 0.7219049
v -1.3280655 0.37942958 1.3801674
v -1.345857 -0.439982 1.6327772
v -1.3312147 0.07351485 2.2457764
v -1.0330677 0.44656458 1.9992515
v -1.1202385 1.058175 2.778291
v -1.2826511 -0.062297285 3.0651066
v -1.325933 -0.24772981 2.2898135
v -1.252897 -0.46686196 2.309504
v -1.2006711 -0.4868505 2.679995
v -1.0330677 0.44656458 1.9992515
v -0.67872083 0.61057 1.4943151
v -0.30040076 0.23773712 1.9067979
v -1.3280655 0.37942958 1.3801674
v -1.0085113 0.45457575 0.7219049
v -0.59066015 0.3344735 0.57436323
v -0.7400865 0.6420349 -0.02744878
v -1.0791305 0.5997865 0.014326524
v -1.4918203 0.19983713 5.540344
v -1.9519743 0.08967328 5.2235823
v -1.6639243 0.5022868 5.1255045
v -1.6361988 0.555864 4.29998
v -0.22267415 -1.8238641 5.145556
v 1.4070073E-06 -2.0016556 5.087274
v 1.3495103E-06 -1.8620727 4.9941306
v -0.22613063 -1.8270241 5.433516
v 1.8230046E-06 -1.9959891 5.685637
v -0.37337115 -1.8749785 5.646029
v -0.4356539 -1.7837894 5.426701
v -0.47852683 -1.5889229 5.2357717
v -1.0161401 -0.5685514 5.686491
v 0.0104577895 -0.78472376 6.0970764
v -0.5086255 -0.8176398 5.947333
v -0.8823217 0.15350235 5.6486998
v 0.030612849 -0.0530082 6.152627
v -1.0161401 -0.5685514 5.686491
v -1.4918203 0.19983713 5.540344
v -0.8823217 0.15350235 5.6486998
v -1.9519743 0.08967328 5.2235823
v -1.7683644 -0.6557499 5.206796
v -0.87685406 -0.8334466 5.479055
v -0.5086255 -0.8176398 5.947333
v -0.5476297 -0.9812356 5.1452093
v -1.162998 -0.9028704 4.961633
v -0.55994195 -1.0121726 4.924255
v -0.60222507 -1.298874 4.2663302
v -0.35938844 -1.0606594 4.625529
v -0.27862754 -1.0846257 4.7622733
v 1.8371795E-06 -1.102043 4.06485
v -0.002286137 -1.1572682 4.584597
v -2.3765564 -1.5635715 3.636762
v -2.513052 -2.1659138 3.222121
v -2.8409414 -1.4423048 3.5251331
v -2.1170578 -2.1256998 3.3766794
v -2.1007373 -2.134046 3.182095
v -2.2049294 -2.2744257 2.9362872
v -2.2583046 -2.1696455 2.613048
v -2.5236132 -2.2563152 2.6573336
v -2.513052 -2.1659138 3.222121
v -2.5236132 -2.2563152 2.6573336
v -2.6018004 -1.9346545 2.6272912
v -2.8409414 -1.4423048 3.5251331
v -2.604959 -1.143863 2.998802
v -2.4516697 -1.7110285 2.497388
v -2.7153049 -0.40060377 3.532407
v -2.5410886 -0.5683625 4.059664
v -2.4542508 0.13591266 3.5459206
v -2.4967985 -0.0924952 3.7482681
v -2.4099026 -0.48806548 4.1745343
v -2.1507845 0.2706138 4.2887874
v -2.0251973 -0.1873542 4.5184155
v -1.9519743 0.08967328 5.2235823
v -1.7683644 -0.6557499 5.206796
v -1.6639512 -0.80165637 4.6884766
v -1.9377439 -0.7968751 4.023604
v -2.1957195 -1.5602583 3.4433608
v -1.6787605 -0.87543 3.8580074
v -1.676282 -0.9385828 3.3583555
v -1.6637282 -0.1407907 3.3344223
v -1.1540747 -0.5379113 4.4063087
v -1.1375494 0.2708814 4.2750916
v -1.1605153 0.53216326 4.610383
v -2.3765564 -1.5635715 3.636762
v -2.1233158 -0.85324144 4.059774
v -1.6787605 -0.87543 3.8580074
v -2.1957195 -1.5602583 3.4433608
v -2.2583046 -2.1696455 2.613048
v -2.2049294 -2.2744257 2.9362872
v -1.8489432 -2.1131697 2.970462
v -1.8931999 -2.0262907 2.7024457
v -2.3131723 -1.9073956 2.432042
v -2.6018004 -1.9346545 2.6272912
v -1.9399669 -1.6810957 2.6700969
v -0.5059249 -0.75393546 -0.0996636
v -0.9102878 -0.8488118 -0.11821857
v -0.82331187 -0.82849246 0.017713167
v -1.2018428 -0.8213995 0.03552314
v -1.4182041 -0.7140552 -0.11821971
v -2.2049294 -2.2744257 2.9362872
v -2.0885432 -1.8929937 3.352233
v -1.7524409 -1.7969027 3.3153467
v -1.8489432 -2.1131697 2.970462
v -0.9102878 -0.8488118 -0.11821857
v -0.5059249 -0.75393546 -0.0996636
v -0.4516676 -0.54917854 -0.02806627
v -1.1995051 -0.18331422 -0.09221925
v -1.4182041 -0.7140552 -0.11821971
v -0.60990405 0.00884651 -0.068217814
v -1.606486 -0.45228603 -0.072507985
v -0.7400865 0.6420349 -0.02744878
v -1.0791305 0.5997865 0.014326524
v -0.81987 -0.2737136 0.76514304
v -0.4516676 -0.54917854 -0.02806627
v -0.976973 -0.23965287 0.5428198
v -1.345857 -0.439982 1.6327772
v -1.1966225 0.09178964 0.5303341
v -0.8446647 -0.5714976 1.5169135
v -0.44089448 -0.471672 1.5543191
v -0.28142527 -0.47076753 2.1620429
v -1.0297098 -0.5790413 2.2942722
v -1.252897 -0.46686196 2.309504
v -1.2006711 -0.4868505 2.679995
v -0.81995165 -0.6739009 2.713539
v -0.829248 -0.63334703 2.2721727
v -0.5059249 -0.75393546 -0.0996636
v -0.82331187 -0.82849246 0.017713167
v -0.4516676 -0.54917854 -0.02806627
v -0.976973 -0.23965287 0.5428198
v -1.2018428 -0.8213995 0.03552314
v -1.606486 -0.45228603 -0.072507985
v -1.1966225 0.09178964 0.5303341
v -1.4182041 -0.7140552 -0.11821971
v -1.0330677 0.44656458 1.9992515
v -0.30040076 0.23773712 1.9067979
v -0.53757596 1.0110663 2.244322
v -0.25148565 0.26039356 2.0014095
v -0.5262495 1.0651422 2.2018704
v 0.00034528528 1.0911345 2.4999785
v -1.1202385 1.058175 2.778291
v -0.53757596 1.0110663 2.244322
v -0.5262495 1.0651422 2.2018704
v -1.1644472 1.1079892 2.7831435
v 0.020344593 1.0444767 3.9715548
v -0.7586519 0.9848913 3.799453
v 0.021647707 1.1029074 3.9851327
v -0.7333799 0.91358626 3.7916365
v -1.1029388 0.6904825 3.7862818
v -1.0391774 0.6399783 3.7780285
v -1.2000779 -0.12909876 3.7282145
v -1.1295667 -0.13611029 3.719756
v -0.82544446 -0.9489214 3.1198223
v -0.7695545 -0.90845466 3.1302273
v 1.8760638E-05 -1.2330145 3.0080552
v 1.7970788E-05 -1.1681721 3.026202
v -1.6639512 -0.80165637 4.6884766
v -1.7683644 -0.6557499 5.206796
v -1.162998 -0.9028704 4.961633
v -1.1540747 -0.5379113 4.4063087
v -1.5495231 -0.832407 4.1400967
v -1.6787605 -0.87543 3.8580074
v -1.9377439 -0.7968751 4.023604
v -1.6787605 -0.87543 3.8580074
v -2.1233158 -0.85324144 4.059774
v -1.9377439 -0.7968751 4.023604
v -2.5410886 -0.5683625 4.059664
v -2.4099026 -0.48806548 4.1745343
v -2.0251973 -0.1873542 4.5184155
v -2.8409414 -1.4423048 3.5251331
v -2.3765564 -1.5635715 3.636762
v -2.2173817 -1.2957289 3.0414665
v -2.1957195 -1.5602583 3.4433608
v -1.676282 -0.9385828 3.3583555
v -1.6637282 -0.1407907 3.3344223
v -1.2826511 -0.062297285 3.0651066
v -1.1202385 1.058175 2.778291
v -1.1644472 1.1079892 2.7831435
v -1.3476738 -0.07828418 3.0694945
v -0.81995165 -0.6739009 2.713539
v -0.87381107 -0.7782214 2.5973787
v -0.28142527 -0.47076753 2.1620429
v -0.2828818 -0.89893794 2.0787494
v -0.21704845 -0.44723883 2.1486394
v -0.18536697 -0.48864993 2.1474547
v 7.974372E-06 -0.5489427 2.1656497
v 1.38394535E-05 -0.8744439 2.1319172
v -3.6968831E-06 0.2998823 2.2626977
v -0.5476297 -0.9812356 5.1452093
v -0.5086255 -0.8176398 5.947333
v -0.4201984 -1.3196633 5.805821
v -0.53009063 -1.1285503 5.0338182
v -0.55994195 -1.0121726 4.924255
v -0.66494304 -1.6220262 4.7795534
v -0.49524263 -1.5711522 5.7824397
v -0.5954101 -1.5506947 4.893645
v -0.47852683 -1.5889229 5.2357717
v -0.4356539 -1.7837894 5.426701
v -0.37337115 -1.8749785 5.646029
v -0.5080393 -1.5662183 5.0430193
v -0.22267415 -1.8238641 5.145556
v -0.3401294 -1.8167936 4.9653997
v -0.38358134 -1.8711112 4.8050256
v -0.38358134 -1.8711112 4.8050256
v -0.66494304 -1.6220262 4.7795534
v -0.5954101 -1.5506947 4.893645
v -0.38476673 -1.9308914 4.7062044
v 1.1664955E-06 -1.911655 4.7826223
v 1.0129303E-06 -1.9789404 4.655337
v 1.3495103E-06 -1.8620727 4.9941306
v -0.3401294 -1.8167936 4.9653997
v -0.22267415 -1.8238641 5.145556
v -0.66494304 -1.6220262 4.7795534
v -0.38476673 -1.9308914 4.7062044
v -0.0002547071 -1.5848117 4.48137
v -0.27754962 -1.2899929 4.700995
v -0.55994195 -1.0121726 4.924255
v -0.002286137 -1.1572682 4.584597
v -0.27862754 -1.0846257 4.7622733
v -1.1029388 0.6904825 3.7862818
v -1.3476738 -0.07828418 3.0694945
v -1.1644472 1.1079892 2.7831435
v -1.2000779 -0.12909876 3.7282145
v -0.82544446 -0.9489214 3.1198223
v -0.87381107 -0.7782214 2.5973787
v -0.792637 -1.0216384 2.590259
v -0.7606219 -0.95750636 2.054095
v -0.7586519 0.9848913 3.799453
v -1.1029388 0.6904825 3.7862818
v -1.1644472 1.1079892 2.7831435
v -0.4744429 1.3844668 2.8394275
v -0.5262495 1.0651422 2.2018704
v 0.00034528528 1.0911345 2.4999785
v 0.013991158 1.3650097 3.3824549
v 0.021647707 1.1029074 3.9851327
v -0.82544446 -0.9489214 3.1198223
v 1.8760638E-05 -1.2330145 3.0080552
v 1.7225859E-05 -1.2042487 2.318445
v -0.792637 -1.0216384 2.590259
v -0.63410753 -1.1153203 2.080662
v -0.7606219 -0.95750636 2.054095
v 1.745244E-05 -1.0930576 1.9220535
v -0.052191686 -0.85168636 1.5151018
v 1.4315666E-05 -0.9035796 1.5565329
v 1.38394535E-05 -0.8744439 2.1319172
v -0.052191686 -0.85168636 1.5151018
v 1.4315666E-05 -0.9035796 1.5565329
v -0.2828818 -0.89893794 2.0787494
v -0.7606219 -0.95750636 2.054095
v -0.87381107 -0.7782214 2.5973787
v -1.8489432 -2.1131697 2.970462
v -1.7524409 -1.7969027 3.3153467
v -1.8931999 -2.0262907 2.7024457
v -1.9402866 -1.4454505 2.9361973
v -1.9399669 -1.6810957 2.6700969
v -2.0885432 -1.8929937 3.352233
v -2.2173817 -1.2957289 3.0414665
v -1.9402866 -1.4454505 2.9361973
v -1.7524409 -1.7969027 3.3153467
v 0.0051141996 -0.9615824 5.916117
v -0.4201984 -1.3196633 5.805821
v -0.5086255 -0.8176398 5.947333
v 1.7204483E-06 -1.3466601 5.94821
v -0.27354056 -1.6615607 5.911778
v 1.9038931E-06 -1.7895204 5.9251723
v -0.49524263 -1.5711522 5.7824397
v 1.8230046E-06 -1.9959891 5.685637
v -0.37337115 -1.8749785 5.646029
vt 0.76092815 0.8767158
vt 0.7174094 0.91054726
vt 0.76092815 0.95057213
vt 0.38543808 0.96915483
vt 0.38543808 0.8693485
vt 0.32501337 0.9344189
vt 0.40212393 0.7568116
vt 0.42906108 0.79320693
vt 0.42906108 0.6946838
vt 0.64721847 0.83391285
vt 0.6187177 0.852685
vt 0.64721847 0.8863988
vt 0.40864563 0.8004855
vt 0.40212417 0.8554132
vt 0.4314282 0.8554132
vt 0.8731629 0.288234
vt 0.85169375 0.31012797
vt 0.8731629 0.33410096
vt 0.76092815 0.8767158
vt 0.76092815 0.95057213
vt 0.7174094 0.91054726
vt 0.38543808 0.96915483
vt 0.32501337 0.9344189
vt 0.38543808 0.8693485
vt 0.40212393 0.7568116
vt 0.42906108 0.6946838
vt 0.42906108 0.79320693
vt 0.64721847 0.83391285
vt 0.64721847 0.8863988
vt 0.6187177 0.852685
vt 0.40864563 0.8004855
vt 0.4314282 0.8554132
vt 0.40212417 0.8554132
vt 0.8731629 0.288234
vt 0.8731629 0.33410096
vt 0.85169375 0.31012797
vt 0.93716276 0.87058735
vt 0.95343685 0.89970946
vt 0.9799932 0.91859293
vt 0.9427136 0.89419115
vt 0.93181825 0.89648974
vt 0.911044 0.8307359
vt 0.9316137 0.83232665
vt 0.9799932 0.80742836
vt 0.10851145 0.33349717
vt 0.13080215 0.36262
vt 0.1400299 0.3113687
vt 0.035931587 0.41149533
vt 0.024571896 0.32702982
vt 0.0050616264 0.3596238
vt 0.08769798 0.28441465
vt 0.17019081 0.20653963
vt 0.08456516 0.4494164
vt 0.083266735 0.49250197
vt 0.042717457 0.51571035
vt 0.13373709 0.4635235
vt 0.21156597 0.41879463
vt 0.21291876 0.3210987
vt 0.19684744 0.2890222
vt 0.25440502 0.39410865
vt 0.13946295 0.16356409
vt 0.15124083 0.07156634
vt 0.19101858 0.09412408
vt 0.07759905 0.16957974
vt 0.05247307 0.23621142
vt 0.0036392212 0.30024278
vt 0.2229681 0.026929379
vt 0.25050545 0.022252083
vt 0.22280836 0.003639102
vt 0.25440502 0.07686579
vt 0.22743464 0.10261488
vt 0.45856917 0.6098685
vt 0.5120082 0.5537622
vt 0.43986475 0.5376189
vt 0.46678388 0.51993704
vt 0.5374718 0.47976518
vt 0.45610917 0.3930211
vt 0.59933805 0.57066965
vt 0.62368786 0.5123229
vt 0.6481185 0.6098685
vt 0.3537655 0.6874056
vt 0.42488575 0.6800592
vt 0.38486463 0.61382914
vt 0.2900216 0.68542314
vt 0.31718183 0.60575175
vt 0.3473574 0.54210377
vt 0.40935624 0.5075567
vt 0.2854784 0.5194292
vt 0.35032767 0.4909482
vt 0.35219908 0.45871925
vt 0.26393032 0.45060992
vt 0.26645523 0.44946337
vt 0.35109514 0.4470091
vt 0.34671634 0.4100144
vt 0.4248857 0.36387968
vt 0.26168346 0.44962025
vt 0.8411019 0.7899053
vt 0.7838191 0.78166175
vt 0.83817935 0.8318331
vt 0.89320564 0.81448936
vt 0.9037658 0.86935806
vt 0.9019189 0.7845733
vt 0.9037658 0.6827538
vt 0.7884561 0.7465446
vt 0.81633425 0.6499436
vt 0.43258637 0.032122433
vt 0.31396526 0.0036391318
vt 0.37069082 0.083407134
vt 0.4106114 0.110140175
vt 0.3962828 0.1806409
vt 0.2999698 0.19097976
vt 0.33613086 0.27186844
vt 0.38626117 0.26024532
vt 0.43258643 0.35557207
vt 0.2993983 0.3566014
vt 0.29970932 0.26645625
vt 0.2754557 0.26274022
vt 0.26168334 0.30305636
vt 0.16784751 0.7458852
vt 0.25242734 0.74616045
vt 0.21857738 0.7013248
vt 0.15136826 0.6648097
vt 0.20250392 0.599566
vt 0.25242734 0.59194356
vt 0.24932039 0.52717614
vt 0.21102023 0.5229885
vt 0.39318585 0.8693485
vt 0.3927164 0.9197998
vt 0.42848969 0.88240623
vt 0.42848969 0.9918647
vt 0.83725333 0.6245022
vt 0.8650172 0.6323495
vt 0.8650451 0.6158414
vt 0.83196056 0.59984875
vt 0.8545023 0.56402636
vt 0.8123895 0.57854414
vt 0.80810034 0.60399294
vt 0.8041513 0.6323495
vt 0.843976 0.89337015
vt 0.8063984 0.87663627
vt 0.7838192 0.8929435
vt 0.843976 0.9753927
vt 0.7871585 0.9748901
vt 0.6933649 0.052872658
vt 0.72706753 0.015985489
vt 0.6669389 0.0036392212
vt 0.6074452 0.014723778
vt 0.59009033 0.09092951
vt 0.6934568 0.09343052
vt 0.74957585 0.05772066
vt 0.7141083 0.138731
vt 0.63362813 0.15272665
vt 0.70400053 0.16181803
vt 0.66698974 0.2426033
vt 0.7129891 0.20186234
vt 0.72678816 0.19093657
vt 0.7296377 0.2760334
vt 0.7495758 0.22005558
vt 0.55891633 0.9662305
vt 0.61143947 0.9757911
vt 0.5922339 0.9015738
vt 0.5442295 0.9060155
vt 0.54845953 0.88612115
vt 0.56860304 0.8587924
vt 0.58318543 0.83391297
vt 0.61143947 0.8425299
vt 0.58281195 0.34121418
vt 0.51290727 0.3570695
vt 0.53652984 0.38574266
vt 0.5640419 0.2506776
vt 0.49579954 0.26056576
vt 0.48622772 0.3470602
vt 0.49326953 0.16512108
vt 0.54634494 0.1373272
vt 0.43986475 0.1499219
vt 0.47888508 0.13418627
vt 0.53810287 0.12372589
vt 0.45689094 0.08685875
vt 0.5121323 0.08250618
vt 0.49097848 0.0036392212
vt 0.57778907 0.02139616
vt 0.58281195 0.084019184
vt 0.56546235 0.15651321
vt 0.7765409 0.6499436
vt 0.7361802 0.69964933
vt 0.77622354 0.7437546
vt 0.67653656 0.7371383
vt 0.77654094 0.8337269
vt 0.6879344 0.8361132
vt 0.6553969 0.86943746
vt 0.70291305 0.8868731
vt 0.65539694 0.971077
vt 0.71013117 0.971077
vt 0.67677927 0.8767158
vt 0.8090407 0.32149696
vt 0.84102654 0.36681628
vt 0.84441555 0.3240695
vt 0.8116953 0.36468315
vt 0.7733887 0.3215344
vt 0.7866004 0.288234
vt 0.7821007 0.36681628
vt 0.14011115 0.8014283
vt 0.12317091 0.8358741
vt 0.1353504 0.8443204
vt 0.12005818 0.878158
vt 0.14011115 0.9034114
vt 0.9476197 0.92587113
vt 0.9110441 0.9448347
vt 0.9110441 0.99636084
vt 0.9476197 0.98801386
vt 0.87031114 0.39302105
vt 0.9275825 0.415932
vt 0.9168987 0.39369053
vt 0.856012 0.4729281
vt 0.8182663 0.42019266
vt 0.9253888 0.4796664
vt 0.8041513 0.45412713
vt 0.9275825 0.55208296
vt 0.8889886 0.5567482
vt 0.8193766 0.21626759
vt 0.8036128 0.23882651
vt 0.873227 0.2804551
vt 0.75685394 0.12812448
vt 0.773309 0.25874615
vt 0.8158251 0.13588381
vt 0.85866606 0.13524365
vt 0.873227 0.06848431
vt 0.791224 0.053290367
vt 0.7641256 0.055696964
vt 0.7682109 0.015006065
vt 0.8140278 0.0036392212
vt 0.81470394 0.053386927
vt 0.5175346 0.97618496
vt 0.5369512 0.9629216
vt 0.4913391 0.9509202
vt 0.5369512 0.8692274
vt 0.45981216 0.9219352
vt 0.44022834 0.8757967
vt 0.53517056 0.83391285
vt 0.43986475 0.90867615
vt 0.5900903 0.28797352
vt 0.62745833 0.35935897
vt 0.6769434 0.28331167
vt 0.68067384 0.28600973
vt 0.62803996 0.36523026
vt 0.68067384 0.38036174
vt 0.6286705 0.7095578
vt 0.6337411 0.7133043
vt 0.6337411 0.6171466
vt 0.6284676 0.62174
vt 0.14408994 0.5304086
vt 0.14407027 0.52298856
vt 0.0575552 0.5249157
vt 0.060165763 0.5318036
vt 0.017217755 0.5475795
vt 0.024039268 0.5512183
vt 0.003639102 0.62869143
vt 0.011310577 0.6288619
vt 0.050047874 0.75683355
vt 0.05604267 0.75208044
vt 0.14408994 0.7941501
vt 0.14408052 0.7870438
vt 0.94373345 0.29501605
vt 0.89322567 0.34452772
vt 0.9636524 0.34466767
vt 0.8805053 0.26835656
vt 0.92145467 0.23793936
vt 0.93056273 0.19030094
vt 0.9636524 0.2190423
vt 0.15136838 0.8828293
vt 0.18459916 0.8790581
vt 0.18772888 0.8523823
vt 0.249897 0.8515595
vt 0.24964237 0.87351906
vt 0.249897 0.9400712
vt 0.22085428 0.7534387
vt 0.17005515 0.7760277
vt 0.9802589 0.48951614
vt 0.93486077 0.43969166
vt 0.9363083 0.52018106
vt 0.9802589 0.393021
vt 0.6138434 0.7517505
vt 0.6211893 0.6171466
vt 0.6151098 0.6220794
vt 0.6211893 0.7543088
vt 0.5424597 0.81211025
vt 0.5444716 0.8262756
vt 0.48040593 0.77715325
vt 0.47013938 0.8266345
vt 0.47360125 0.7733006
vt 0.46921778 0.7773157
vt 0.44773105 0.77827287
vt 0.43986472 0.8160236
vt 0.46746588 0.6835647
vt 0.030359745 0.847517
vt 0.112780094 0.868281
vt 0.112780094 0.8014283
vt 0.022153854 0.86572623
vt 0.0068712234 0.8606516
vt 0.0036392212 0.9245527
vt 0.111730576 0.8989171
vt 0.014655113 0.9122443
vt 0.053132057 0.90880775
vt 0.07515764 0.92811567
vt 0.09974432 0.9358761
vt 0.032277107 0.9102699
vt 0.04845476 0.93554854
vt 0.028409481 0.9385146
vt 0.012401581 0.948142
vt 0.88494706 0.9226029
vt 0.8577864 0.9509256
vt 0.87466 0.9560555
vt 0.8970885 0.9206567
vt 0.882169 0.87921387
vt 0.8970885 0.87663627
vt 0.86154366 0.8830234
vt 0.86712503 0.92085326
vt 0.8512542 0.9104985
vt 0.7661104 0.35277665
vt 0.68795204 0.34717986
vt 0.7285374 0.3803617
vt 0.72703123 0.3177069
vt 0.7661104 0.28823394
vt 0.69608253 0.30455917
vt 0.73109645 0.29639655
vt 0.67792726 0.64156044
vt 0.7968731 0.64266527
vt 0.72660685 0.52130425
vt 0.6553967 0.5478516
vt 0.68288445 0.42728168
vt 0.7479801 0.43047652
vt 0.7372756 0.40265682
vt 0.7968731 0.393021
vt 0.3081553 0.86096895
vt 0.26168334 0.75789654
vt 0.26812422 0.85728633
vt 0.34041262 0.7695457
vt 0.33541918 0.6946839
vt 0.3948456 0.73062575
vt 0.3948456 0.8140665
vt 0.39473712 0.86206996
vt 0.8805054 0.0036392212
vt 0.9801983 0.08590722
vt 0.9801983 0.00670743
vt 0.8874839 0.057162046
vt 0.9081686 0.10700607
vt 0.8906271 0.11667371
vt 0.9782284 0.13529897
vt 0.96848243 0.18069983
vt 0.97430557 0.18302274
vt 0.9110441 0.76331913
vt 0.9639616 0.8001498
vt 0.9656298 0.79412675
vt 0.930436 0.7378639
vt 0.9656298 0.69657063
vt 0.9209312 0.6499436
vt 0.93157876 0.5800752
vt 0.90383935 0.5640264
vt 0.93157876 0.6334191
vt 0.8727588 0.6273424
vt 0.8723235 0.58724254
vt 0.9388571 0.63908076
vt 0.9780266 0.63908076
vt 0.96788716 0.5860343
vt 0.94412255 0.5640266
vt 0.31773514 0.8753247
vt 0.26274544 0.8693483
vt 0.2708798 0.92137074
vt 0.3170637 0.90850973
vt 0.2861817 0.94313264
vt 0.3168773 0.9501102
vt 0.26168346 0.9447961
vt 0.31773514 0.987437
vt 0.27583432 0.9821174
vt 0.93716276 0.87058735
vt 0.9799932 0.91859293
vt 0.95343685 0.89970946
vt 0.9427136 0.89419115
vt 0.93181825 0.89648974
vt 0.911044 0.8307359
vt 0.9316137 0.83232665
vt 0.9799932 0.80742836
vt 0.10851145 0.33349717
vt 0.1400299 0.3113687
vt 0.13080215 0.36262
vt 0.035931587 0.41149533
vt 0.024571896 0.32702982
vt 0.0050616264 0.3596238
vt 0.08769798 0.28441465
vt 0.17019081 0.20653963
vt 0.08456516 0.4494164
vt 0.083266735 0.49250197
vt 0.042717457 0.51571035
vt 0.13373709 0.4635235
vt 0.21156597 0.41879463
vt 0.21291876 0.3210987
vt 0.19684744 0.2890222
vt 0.25440502 0.39410865
vt 0.13946295 0.16356409
vt 0.15124083 0.07156634
vt 0.19101858 0.09412408
vt 0.07759905 0.16957974
vt 0.05247307 0.23621142
vt 0.0036392212 0.30024278
vt 0.2229681 0.026929379
vt 0.25050545 0.022252083
vt 0.22280836 0.003639102
vt 0.25440502 0.07686579
vt 0.22743464 0.10261488
vt 0.45856917 0.6098685
vt 0.43986475 0.5376189
vt 0.5120082 0.5537622
vt 0.46678388 0.51993704
vt 0.5374718 0.47976518
vt 0.45610917 0.3930211
vt 0.59933805 0.57066965
vt 0.62368786 0.5123229
vt 0.6481185 0.6098685
vt 0.3537655 0.6874056
vt 0.38486463 0.61382914
vt 0.42488575 0.6800592
vt 0.2900216 0.68542314
vt 0.31718183 0.60575175
vt 0.3473574 0.54210377
vt 0.40935624 0.5075567
vt 0.2854784 0.5194292
vt 0.35032767 0.4909482
vt 0.35219908 0.45871925
vt 0.26393032 0.45060992
vt 0.26645523 0.44946337
vt 0.35109514 0.4470091
vt 0.34671634 0.4100144
vt 0.4248857 0.36387968
vt 0.26168346 0.44962025
vt 0.8411019 0.7899053
vt 0.83817935 0.8318331
vt 0.7838191 0.78166175
vt 0.89320564 0.81448936
vt 0.9037658 0.86935806
vt 0.9019189 0.7845733
vt 0.9037658 0.6827538
vt 0.7884561 0.7465446
vt 0.81633425 0.6499436
vt 0.43258637 0.032122433
vt 0.37069082 0.083407134
vt 0.31396526 0.0036391318
vt 0.4106114 0.110140175
vt 0.3962828 0.1806409
vt 0.2999698 0.19097976
vt 0.33613086 0.27186844
vt 0.38626117 0.26024532
vt 0.43258643 0.35557207
vt 0.2993983 0.3566014
vt 0.29970932 0.26645625
vt 0.2754557 0.26274022
vt 0.26168334 0.30305636
vt 0.16784751 0.7458852
vt 0.21857738 0.7013248
vt 0.25242734 0.74616045
vt 0.15136826 0.6648097
vt 0.20250392 0.599566
vt 0.25242734 0.59194356
vt 0.24932039 0.52717614
vt 0.21102023 0.5229885
vt 0.39318585 0.8693485
vt 0.42848969 0.88240623
vt 0.3927164 0.9197998
vt 0.42848969 0.9918647
vt 0.83725333 0.6245022
vt 0.8650451 0.6158414
vt 0.8650172 0.6323495
vt 0.83196056 0.59984875
vt 0.8545023 0.56402636
vt 0.8123895 0.57854414
vt 0.80810034 0.60399294
vt 0.8041513 0.6323495
vt 0.843976 0.89337015
vt 0.7838192 0.8929435
vt 0.8063984 0.87663627
vt 0.843976 0.9753927
vt 0.7871585 0.9748901
vt 0.6933649 0.052872658
vt 0.6669389 0.0036392212
vt 0.72706753 0.015985489
vt 0.6074452 0.014723778
vt 0.59009033 0.09092951
vt 0.6934568 0.09343052
vt 0.74957585 0.05772066
vt 0.7141083 0.138731
vt 0.63362813 0.15272665
vt 0.70400053 0.16181803
vt 0.66698974 0.2426033
vt 0.7129891 0.20186234
vt 0.72678816 0.19093657
vt 0.7296377 0.2760334
vt 0.7495758 0.22005558
vt 0.55891633 0.9662305
vt 0.5922339 0.9015738
vt 0.61143947 0.9757911
vt 0.5442295 0.9060155
vt 0.54845953 0.88612115
vt 0.56860304 0.8587924
vt 0.58318543 0.83391297
vt 0.61143947 0.8425299
vt 0.58281195 0.34121418
vt 0.53652984 0.38574266
vt 0.51290727 0.3570695
vt 0.5640419 0.2506776
vt 0.49579954 0.26056576
vt 0.48622772 0.3470602
vt 0.49326953 0.16512108
vt 0.54634494 0.1373272
vt 0.43986475 0.1499219
vt 0.47888508 0.13418627
vt 0.53810287 0.12372589
vt 0.45689094 0.08685875
vt 0.5121323 0.08250618
vt 0.49097848 0.0036392212
vt 0.57778907 0.02139616
vt 0.58281195 0.084019184
vt 0.56546235 0.15651321
vt 0.7765409 0.6499436
vt 0.77622354 0.7437546
vt 0.7361802 0.69964933
vt 0.67653656 0.7371383
vt 0.77654094 0.8337269
vt 0.6879344 0.8361132
vt 0.6553969 0.86943746
vt 0.70291305 0.8868731
vt 0.71013117 0.971077
vt 0.65539694 0.971077
vt 0.67677927 0.8767158
vt 0.8090407 0.32149696
vt 0.84441555 0.3240695
vt 0.84102654 0.36681628
vt 0.8116953 0.36468315
vt 0.7733887 0.3215344
vt 0.7866004 0.288234
vt 0.7821007 0.36681628
vt 0.14011115 0.8014283
vt 0.1353504 0.8443204
vt 0.12317091 0.8358741
vt 0.12005818 0.878158
vt 0.14011115 0.9034114
vt 0.9476197 0.92587113
vt 0.9476197 0.98801386
vt 0.9110441 0.99636084
vt 0.9110441 0.9448347
vt 0.87031114 0.39302105
vt 0.9168987 0.39369053
vt 0.9275825 0.415932
vt 0.856012 0.4729281
vt 0.8182663 0.42019266
vt 0.9253888 0.4796664
vt 0.8041513 0.45412713
vt 0.9275825 0.55208296
vt 0.8889886 0.5567482
vt 0.8193766 0.21626759
vt 0.873227 0.2804551
vt 0.8036128 0.23882651
vt 0.75685394 0.12812448
vt 0.773309 0.25874615
vt 0.8158251 0.13588381
vt 0.85866606 0.13524365
vt 0.873227 0.06848431
vt 0.791224 0.053290367
vt 0.7641256 0.055696964
vt 0.7682109 0.015006065
vt 0.8140278 0.0036392212
vt 0.81470394 0.053386927
vt 0.5175346 0.97618496
vt 0.4913391 0.9509202
vt 0.5369512 0.9629216
vt 0.5369512 0.8692274
vt 0.45981216 0.9219352
vt 0.44022834 0.8757967
vt 0.53517056 0.83391285
vt 0.43986475 0.90867615
vt 0.5900903 0.28797352
vt 0.6769434 0.28331167
vt 0.62745833 0.35935897
vt 0.68067384 0.28600973
vt 0.62803996 0.36523026
vt 0.68067384 0.38036174
vt 0.6286705 0.7095578
vt 0.6284676 0.62174
vt 0.6337411 0.6171466
vt 0.6337411 0.7133043
vt 0.14408994 0.5304086
vt 0.0575552 0.5249157
vt 0.14407027 0.52298856
vt 0.060165763 0.5318036
vt 0.017217755 0.5475795
vt 0.024039268 0.5512183
vt 0.003639102 0.62869143
vt 0.011310577 0.6288619
vt 0.050047874 0.75683355
vt 0.05604267 0.75208044
vt 0.14408994 0.7941501
vt 0.14408052 0.7870438
vt 0.94373345 0.29501605
vt 0.9636524 0.34466767
vt 0.89322567 0.34452772
vt 0.8805053 0.26835656
vt 0.92145467 0.23793936
vt 0.93056273 0.19030094
vt 0.9636524 0.2190423
vt 0.15136838 0.8828293
vt 0.18772888 0.8523823
vt 0.18459916 0.8790581
vt 0.249897 0.8515595
vt 0.24964237 0.87351906
vt 0.249897 0.9400712
vt 0.22085428 0.7534387
vt 0.17005515 0.7760277
vt 0.9802589 0.48951614
vt 0.9363083 0.52018106
vt 0.93486077 0.43969166
vt 0.9802589 0.393021
vt 0.6138434 0.7517505
vt 0.6151098 0.6220794
vt 0.6211893 0.6171466
vt 0.6211893 0.7543088
vt 0.5424597 0.81211025
vt 0.5444716 0.8262756
vt 0.48040593 0.77715325
vt 0.47013938 0.8266345
vt 0.47360125 0.7733006
vt 0.46921778 0.7773157
vt 0.44773105 0.77827287
vt 0.43986472 0.8160236
vt 0.46746588 0.6835647
vt 0.030359745 0.847517
vt 0.112780094 0.8014283
vt 0.112780094 0.868281
vt 0.022153854 0.86572623
vt 0.0068712234 0.8606516
vt 0.0036392212 0.9245527
vt 0.111730576 0.8989171
vt 0.014655113 0.9122443
vt 0.053132057 0.90880775
vt 0.07515764 0.92811567
vt 0.09974432 0.9358761
vt 0.032277107 0.9102699
vt 0.04845476 0.93554854
vt 0.028409481 0.9385146
vt 0.012401581 0.948142
vt 0.88494706 0.9226029
vt 0.87466 0.9560555
vt 0.8577864 0.9509256
vt 0.8970885 0.9206567
vt 0.882169 0.87921387
vt 0.8970885 0.87663627
vt 0.86154366 0.8830234
vt 0.86712503 0.92085326
vt 0.8512542 0.9104985
vt 0.7661104 0.35277665
vt 0.7285374 0.3803617
vt 0.68795204 0.34717986
vt 0.72703123 0.3177069
vt 0.7661104 0.28823394
vt 0.69608253 0.30455917
vt 0.73109645 0.29639655
vt 0.67792726 0.64156044
vt 0.72660685 0.52130425
vt 0.7968731 0.64266527
vt 0.6553967 0.5478516
vt 0.68288445 0.42728168
vt 0.7479801 0.43047652
vt 0.7372756 0.40265682
vt 0.7968731 0.393021
vt 0.3081553 0.86096895
vt 0.26812422 0.85728633
vt 0.26168334 0.75789654
vt 0.34041262 0.7695457
vt 0.33541918 0.6946839
vt 0.3948456 0.73062575
vt 0.3948456 0.8140665
vt 0.39473712 0.86206996
vt 0.8805054 0.0036392212
vt 0.9801983 0.00670743
vt 0.9801983 0.08590722
vt 0.8874839 0.057162046
vt 0.9081686 0.10700607
vt 0.8906271 0.11667371
vt 0.9782284 0.13529897
vt 0.96848243 0.18069983
vt 0.97430557 0.18302274
vt 0.9110441 0.76331913
vt 0.9656298 0.79412675
vt 0.9639616 0.8001498
vt 0.930436 0.7378639
vt 0.9656298 0.69657063
vt 0.9209312 0.6499436
vt 0.93157876 0.5800752
vt 0.93157876 0.6334191
vt 0.90383935 0.5640264
vt 0.8727588 0.6273424
vt 0.8723235 0.58724254
vt 0.9388571 0.63908076
vt 0.94412255 0.5640266
vt 0.96788716 0.5860343
vt 0.9780266 0.63908076
vt 0.31773514 0.8753247
vt 0.2708798 0.92137074
vt 0.26274544 0.8693483
vt 0.3170637 0.90850973
vt 0.2861817 0.94313264
vt 0.3168773 0.9501102
vt 0.26168346 0.9447961
vt 0.31773514 0.987437
vt 0.27583432 0.9821174
vn -0.0060211904 -0.95263606 0.06613739
vn 1.5447885E-06 -0.9675516 0.09794551
vn 0.28803396 -0.84448004 -0.37006035
vn 0.529145 0.7084255 -0.2990153
vn 0.5814093 -0.15008038 -0.77296335
vn 0.26881987 0.13255233 -0.9308184
vn 0.6845019 -0.61134994 0.39271322
vn 0.45929685 -0.37623757 -0.7957191
vn 0.6084353 0.030584171 -0.7689481
vn -0.00020798249 0.0875898 -0.9793177
vn -3.1492732E-07 -0.9389103 -0.3063359
vn 0.46574023 -0.8369293 -0.25517082
vn 0.5072238 -0.2337999 0.8123525
vn 0.002386088 -0.40808928 0.89473176
vn 0.0052087624 -0.28522736 0.94325864
vn -0.051283464 0.33849967 -0.9395678
vn 0.5894909 0.00044614077 -0.8077749
vn 0.90565896 0.225227 -0.35924208
vn -0.0060211904 -0.95263606 0.06613739
vn -0.29888675 -0.8642924 -0.31892544
vn 1.5447885E-06 -0.9675516 0.09794551
vn -0.52917093 0.8053142 -0.26207608
vn -0.26882315 0.20610331 -0.9393818
vn -0.5791323 -0.11783922 -0.7974552
vn -0.68448037 -0.66447186 0.29906633
vn -0.604388 0.09194622 -0.7827908
vn -0.45928907 -0.27597564 -0.841689
vn -0.00020798249 0.0875898 -0.9793177
vn -0.46574083 -0.8369291 -0.25517043
vn -3.1492732E-07 -0.9389103 -0.3063359
vn -0.51117843 -0.17694086 0.8210326
vn 0.0052087624 -0.28522736 0.94325864
vn 0.002386088 -0.40808928 0.89473176
vn 0.14525923 -0.72135586 -0.6771594
vn -0.830745 -0.18299977 -0.52571285
vn -0.554176 -0.7017441 -0.44770956
vn -0.84418756 -0.48121703 0.23617312
vn -0.80669165 0.17472383 -0.564553
vn -0.2984421 -0.41794246 -0.8580536
vn -0.9645746 0.08533848 -0.24962647
vn -0.5872991 -0.7254318 -0.3589266
vn -0.25459665 -0.96000504 -0.11649239
vn -0.9616421 -0.23102298 -0.14789535
vn -0.41912326 0.9067451 -0.046355158
vn 0.20431247 0.9213724 0.22643375
vn 0.46800512 0.80355716 0.26147133
vn 0.26874954 0.8302127 -0.40751445
vn 0.32270983 0.391714 0.83517206
vn 0.53586006 0.519824 0.6489476
vn 0.40745836 -0.09154406 0.88678956
vn 0.19519551 0.8401674 0.49155357
vn -0.47430763 0.8339172 -0.2496421
vn 0.2866484 0.7579764 0.5451353
vn 0.026852144 0.72504914 0.6585546
vn 0.017406614 0.26733097 0.9443008
vn 0.035110116 0.9062367 0.36437783
vn 0.03026896 0.94306475 0.055149898
vn 0.2590641 0.41435838 0.79582584
vn 0.5251328 0.1343458 0.7594783
vn 0.029420953 0.5903603 0.72799784
vn 0.16983894 0.9616306 -0.14050916
vn 0.71772575 0.69386286 -0.058515348
vn -0.41912326 0.9067451 -0.046355158
vn 0.7176433 0.5673026 0.3813805
vn 0.76024306 0.049221188 0.6417368
vn 0.828437 -0.27668017 0.47329673
vn 0.41414893 0.909592 0.03350933
vn 0.16990949 0.87292707 -0.4573061
vn 0.90565896 0.225227 -0.35924208
vn -0.4936366 0.86831516 0.048493505
vn -0.4954526 0.55066264 0.67178655
vn 0.24524608 -0.9162125 -0.28075457
vn 0.31085193 -0.36657307 -0.8499002
vn 0.6459947 -0.49802285 -0.53802735
vn 0.7789644 -0.41015917 -0.4264814
vn 0.604169 -0.44291314 0.5737243
vn 0.21063149 -0.58701926 0.7351978
vn 0.26874954 0.8302127 -0.40751445
vn 0.5251328 0.1343458 0.7594783
vn 0.46800512 0.80355716 0.26147133
vn -0.62517613 0.7692888 0.12717122
vn -0.41221333 0.589174 0.6920998
vn -0.8737499 0.12872146 0.46876192
vn -0.848768 0.3084934 -0.42938596
vn -0.4089824 -0.05374954 -0.84784395
vn -0.95835143 0.2017063 -0.08283873
vn -0.25990328 0.49228635 0.37112617
vn -0.6733418 -0.5997257 -0.1734271
vn -0.9815377 0.15192337 -0.0013087663
vn -0.75806856 0.26774108 -0.53288954
vn -0.20367861 -0.3708067 -0.89111996
vn -0.46117997 -0.08058863 -0.8739396
vn -0.5590622 0.031212725 -0.7765921
vn -2.1374094E-06 0.099961944 -0.98665965
vn 0.00060365297 0.7354447 -0.6559355
vn -0.14176011 0.071186915 -0.9793263
vn 0.28803396 -0.84448004 -0.37006035
vn 1.5447885E-06 -0.9675516 0.09794551
vn 0.0972675 -0.97271055 -0.12574789
vn 0.6459947 -0.49802285 -0.53802735
vn 0.24524608 -0.9162125 -0.28075457
vn 0.7789644 -0.41015917 -0.4264814
vn 0.21063149 -0.58701926 0.7351978
vn -0.0060211904 -0.95263606 0.06613739
vn 9.16713E-06 -0.6782589 0.6966078
vn 0.52658564 0.50405544 0.6820563
vn 0.94665813 0.28020072 -0.1585914
vn 0.9902145 -0.087909944 0.10835855
vn 0.3849407 0.23214695 0.8932676
vn 0.80815613 0.19212922 0.4362223
vn 0.8033137 -0.49704096 -0.07431325
vn 0.98166686 0.1820518 -0.046243843
vn 0.529145 0.7084255 -0.2990153
vn 0.5814093 -0.15008038 -0.77296335
vn 0.6084353 0.030584171 -0.7689481
vn 0.9842564 -0.14454624 0.10154936
vn 0.75791055 -0.6279323 0.17307425
vn 0.6845019 -0.61134994 0.39271322
vn 0.529145 0.7084255 -0.2990153
vn -0.75806856 0.26774108 -0.53288954
vn -0.25990328 0.49228635 0.37112617
vn 0.80815613 0.19212922 0.4362223
vn 0.3849407 0.23214695 0.8932676
vn -0.8737499 0.12872146 0.46876192
vn -0.41221333 0.589174 0.6920998
vn 0.52658564 0.50405544 0.6820563
vn 0.40745836 -0.09154406 0.88678956
vn 0.53586006 0.519824 0.6489476
vn 0.828437 -0.27668017 0.47329673
vn 0.19519551 0.8401674 0.49155357
vn 0.53364044 -0.83888835 -0.061693847
vn -3.0107398E-07 -0.97466344 -0.18602048
vn -3.8913825E-07 -0.87694806 -0.46780473
vn 0.4701819 -0.85375875 -0.22078569
vn -1.3387306E-07 -0.95920277 0.2827186
vn 0.5725778 -0.80415654 0.15964572
vn 0.7412628 -0.6429126 -0.18533143
vn 0.91667867 -0.3962554 0.005909458
vn 0.41259992 -0.4656564 0.7572161
vn 0.5072238 -0.2337999 0.8123525
vn 0.0052087624 -0.28522736 0.94325864
vn 0.32270983 0.391714 0.83517206
vn 0.017406614 0.26733097 0.9443008
vn 0.41259992 -0.4656564 0.7572161
vn 0.32270983 0.391714 0.83517206
vn 0.40745836 -0.09154406 0.88678956
vn 0.828437 -0.27668017 0.47329673
vn 0.5340924 -0.8415899 -0.054511666
vn 0.20149817 -0.92938536 0.25098604
vn 0.5072238 -0.2337999 0.8123525
vn 0.6949809 -0.6846657 0.16510347
vn 0.24524608 -0.9162125 -0.28075457
vn 0.5846285 -0.7934886 0.07423681
vn 0.0972675 -0.97271055 -0.12574789
vn -0.081377715 -0.9585801 0.21240431
vn 0.49534392 -0.53250515 -0.66774964
vn 1.5447885E-06 -0.9675516 0.09794551
vn -0.005949235 -0.6740514 -0.71613836
vn -0.25459665 -0.96000504 -0.11649239
vn 0.80185854 -0.5964321 -0.03593883
vn 0.38109273 -0.7564603 -0.5315408
vn -0.5872991 -0.7254318 -0.3589266
vn -0.80669165 0.17472383 -0.564553
vn -0.2984421 -0.41794246 -0.8580536
vn -0.051283464 0.33849967 -0.9395678
vn 0.5894909 0.00044614077 -0.8077749
vn 0.38109273 -0.7564603 -0.5315408
vn 0.90565896 0.225227 -0.35924208
vn 0.5894909 0.00044614077 -0.8077749
vn 0.80185854 -0.5964321 -0.03593883
vn 0.71772575 0.69386286 -0.058515348
vn 0.41414893 0.909592 0.03350933
vn 0.9540994 -0.054269895 0.29059485
vn 0.5076577 -0.7832993 0.3331392
vn 0.7176433 0.5673026 0.3813805
vn 0.7839475 -0.19204557 0.5811926
vn 0.37184396 -0.81449926 0.42618173
vn 0.76024306 0.049221188 0.6417368
vn 0.7816019 -0.6124276 0.11087367
vn 0.828437 -0.27668017 0.47329673
vn 0.5340924 -0.8415899 -0.054511666
vn 0.27958074 -0.7743736 -0.56760865
vn -0.03624318 -0.96056014 -0.25686136
vn -0.9616421 -0.23102298 -0.14789535
vn -0.8199345 0.24428886 -0.51359487
vn -0.7432875 -0.42413712 -0.50744134
vn -0.47430763 0.8339172 -0.2496421
vn 0.31085193 -0.36657307 -0.8499002
vn 0.26874954 0.8302127 -0.40751445
vn 0.20431247 0.9213724 0.22643375
vn -0.25459665 -0.96000504 -0.11649239
vn -0.7432875 -0.42413712 -0.50744134
vn -0.17544964 -0.97583884 0.063230485
vn -0.9616421 -0.23102298 -0.14789535
vn -0.051283464 0.33849967 -0.9395678
vn -0.7724286 -0.20226032 -0.60203356
vn -0.2984421 -0.41794246 -0.8580536
vn -0.65267074 0.48483306 -0.58220065
vn 0.16990949 0.87292707 -0.4573061
vn 0.90565896 0.225227 -0.35924208
vn -0.4936366 0.86831516 0.048493505
vn -0.80498064 0.37629297 -0.45870477
vn -0.24560186 -0.4730934 -0.8460862
vn -0.06766489 0.6690876 -0.7400967
vn 0.27095303 -0.40124923 -0.87463266
vn 0.61922425 0.4948481 -0.6091998
vn -0.2984421 -0.41794246 -0.8580536
vn -0.7724286 -0.20226032 -0.60203356
vn -0.90091056 -0.33715826 0.27328455
vn -0.84418756 -0.48121703 0.23617312
vn -0.06766489 0.6690876 -0.7400967
vn -0.848768 0.3084934 -0.42938596
vn -0.80498064 0.37629297 -0.45870477
vn 0.046715092 0.9963959 0.0625879
vn 0.61922425 0.4948481 -0.6091998
vn -0.62517613 0.7692888 0.12717122
vn 0.94665813 0.28020072 -0.1585914
vn -0.41221333 0.589174 0.6920998
vn 0.52658564 0.50405544 0.6820563
vn -0.4089824 -0.05374954 -0.84784395
vn 0.4602 -0.43318847 -0.7742088
vn -0.848768 0.3084934 -0.42938596
vn 0.8033137 -0.49704096 -0.07431325
vn 0.9902145 -0.087909944 0.10835855
vn 0.0323849 -0.83333707 -0.13268566
vn -0.6733418 -0.5997257 -0.1734271
vn -0.20367861 -0.3708067 -0.89111996
vn 0.36601117 -0.9222634 0.103377745
vn 0.75791055 -0.6279323 0.17307425
vn 0.6845019 -0.61134994 0.39271322
vn 0.45929685 -0.37623757 -0.7957191
vn 0.020008383 -0.9944815 0.03843993
vn -0.80498064 0.37629297 -0.45870477
vn -0.848768 0.3084934 -0.42938596
vn -0.24560186 -0.4730934 -0.8460862
vn 0.4602 -0.43318847 -0.7742088
vn 0.27095303 -0.40124923 -0.87463266
vn 0.94665813 0.28020072 -0.1585914
vn 0.9902145 -0.087909944 0.10835855
vn 0.61922425 0.4948481 -0.6091998
vn 0.529145 0.7084255 -0.2990153
vn 0.26881987 0.13255233 -0.9308184
vn -0.75806856 0.26774108 -0.53288954
vn -0.5590622 0.031212725 -0.7765921
vn -0.07925828 0.4219632 -0.8827227
vn 0.00060365297 0.7354447 -0.6559355
vn 0.5814093 -0.15008038 -0.77296335
vn 0.77296317 0.45057437 -0.422913
vn -0.07925828 0.4219632 -0.8827227
vn 0.26881987 0.13255233 -0.9308184
vn 0.029420953 0.5903603 0.72799784
vn 0.021036476 0.21063955 0.9150734
vn 0.22027655 0.44095767 0.79385364
vn 0.2590641 0.41435838 0.79582584
vn 0.5778268 0.18515256 0.7188493
vn 0.5251328 0.1343458 0.7594783
vn 0.5677781 -0.32890752 0.67628735
vn 0.604169 -0.44291314 0.5737243
vn 0.49895543 -0.6676148 0.50435907
vn 0.21063149 -0.58701926 0.7351978
vn 1.1672249E-05 -0.8554332 0.46439826
vn 9.16713E-06 -0.6782589 0.6966078
vn 0.27958074 -0.7743736 -0.56760865
vn 0.24524608 -0.9162125 -0.28075457
vn 0.5340924 -0.8415899 -0.054511666
vn 0.31085193 -0.36657307 -0.8499002
vn -0.39542848 -0.63075566 -0.65505445
vn -0.7432875 -0.42413712 -0.50744134
vn -0.03624318 -0.96056014 -0.25686136
vn -0.7432875 -0.42413712 -0.50744134
vn -0.03624318 -0.96056014 -0.25686136
vn -0.17544964 -0.97583884 0.063230485
vn 0.5076577 -0.7832993 0.3331392
vn 0.37184396 -0.81449926 0.42618173
vn 0.7816019 -0.6124276 0.11087367
vn 0.80185854 -0.5964321 -0.03593883
vn -0.25459665 -0.96000504 -0.11649239
vn -0.41912326 0.9067451 -0.046355158
vn -0.8199345 0.24428886 -0.51359487
vn -0.9616421 -0.23102298 -0.14789535
vn -0.47430763 0.8339172 -0.2496421
vn 0.6084353 0.030584171 -0.7689481
vn 0.77296317 0.45057437 -0.422913
vn 0.5814093 -0.15008038 -0.77296335
vn 0.8914992 -0.121184595 -0.42082277
vn 0.45929685 -0.37623757 -0.7957191
vn 0.8871297 -0.0010270029 -0.45464134
vn -0.20367861 -0.3708067 -0.89111996
vn 0.27000278 0.7579896 -0.5757414
vn -0.46117997 -0.08058863 -0.8739396
vn -0.14176011 0.071186915 -0.9793263
vn -2.0513344E-06 0.115504205 -0.98530823
vn -1.04741175E-05 0.67524576 -0.72216
vn -2.1374094E-06 0.099961944 -0.98665965
vn 0.6949809 -0.6846657 0.16510347
vn 0.7276655 -0.051569596 0.6717529
vn 0.5072238 -0.2337999 0.8123525
vn 0.97401774 -0.056497276 0.20401467
vn 0.5846285 -0.7934886 0.07423681
vn 0.9239081 -0.26598808 -0.26520267
vn 0.84906244 -0.18224822 0.49327964
vn 0.83373696 -0.24208671 0.48848355
vn 0.91667867 -0.3962554 0.005909458
vn 0.7412628 -0.6429126 -0.18533143
vn 0.5725778 -0.80415654 0.15964572
vn 0.862129 -0.37734413 0.32910842
vn 0.53364044 -0.83888835 -0.061693847
vn 0.48062402 -0.80282974 0.33564603
vn 0.36480814 -0.7332604 0.5594782
vn 0.36480814 -0.7332604 0.5594782
vn 0.83373696 -0.24208671 0.48848355
vn 0.9239081 -0.26598808 -0.26520267
vn 0.46574023 -0.8369293 -0.25517082
vn -4.0379348E-08 -0.87624925 0.46019256
vn -3.1492732E-07 -0.9389103 -0.3063359
vn -3.0107398E-07 -0.97466344 -0.18602048
vn 0.48062402 -0.80282974 0.33564603
vn 0.53364044 -0.83888835 -0.061693847
vn 0.9239081 -0.26598808 -0.26520267
vn -0.00020798249 0.0875898 -0.9793177
vn 0.46574023 -0.8369293 -0.25517082
vn 0.36042595 0.36009663 -0.84427416
vn 0.5846285 -0.7934886 0.07423681
vn -0.005949235 -0.6740514 -0.71613836
vn 0.49534392 -0.53250515 -0.66774964
vn 0.5778268 0.18515256 0.7188493
vn 0.77296317 0.45057437 -0.422913
vn 0.8914992 -0.121184595 -0.42082277
vn 0.5677781 -0.32890752 0.67628735
vn 0.49895543 -0.6676148 0.50435907
vn 0.8871297 -0.0010270029 -0.45464134
vn 0.70693845 -0.69183135 0.029309932
vn 0.8212613 0.16926208 -0.5348545
vn 0.22027655 0.44095767 0.79385364
vn 0.77296317 0.45057437 -0.422913
vn 0.5778268 0.18515256 0.7188493
vn 0.03792025 0.9472557 -0.18369865
vn -0.07925828 0.4219632 -0.8827227
vn 0.00060365297 0.7354447 -0.6559355
vn 0.018422784 0.92562395 0.23273152
vn 0.021036476 0.21063955 0.9150734
vn 0.49895543 -0.6676148 0.50435907
vn 1.28837755E-05 -0.9771884 -0.09118588
vn 1.1672249E-05 -0.8554332 0.46439826
vn 0.70693845 -0.69183135 0.029309932
vn 0.44622508 -0.83737725 -0.26566756
vn 0.8212613 0.16926208 -0.5348545
vn 1.311833E-05 -0.89309144 -0.4086481
vn 0.45334995 0.19905898 -0.8547195
vn -2.766873E-06 0.16054252 -0.97135615
vn -1.04741175E-05 0.67524576 -0.72216
vn -2.766873E-06 0.16054252 -0.97135615
vn 0.45334995 0.19905898 -0.8547195
vn 0.27000278 0.7579896 -0.5757414
vn 0.8212613 0.16926208 -0.5348545
vn 0.8871297 -0.0010270029 -0.45464134
vn -0.7724286 -0.20226032 -0.60203356
vn -0.65267074 0.48483306 -0.58220065
vn -0.90091056 -0.33715826 0.27328455
vn -0.4954526 0.55066264 0.67178655
vn -0.4936366 0.86831516 0.048493505
vn -0.84418756 -0.48121703 0.23617312
vn -0.90091056 -0.33715826 0.27328455
vn -0.4954526 0.55066264 0.67178655
vn -0.41912326 0.9067451 -0.046355158
vn 0.002386088 -0.40808928 0.89473176
vn 0.5072238 -0.2337999 0.8123525
vn 0.7276655 -0.051569596 0.6717529
vn 3.3436254E-07 -0.06887281 0.9875716
vn 0.3763894 -0.32845682 0.865691
vn 2.0402129E-07 -0.51802844 0.8527223
vn 0.84906244 -0.18224822 0.49327964
vn -1.3387306E-07 -0.95920277 0.2827186
vn 0.5725778 -0.80415654 0.15964572
vn 0.7221697 -0.029892564 0.6910699
vn 0.23161432 -0.969645 0.07837513
vn 0.8409393 -0.490211 -0.22916023
vn 0.9684988 -0.24878845 0.010712564
vn 0.43799475 -0.65682775 0.6137896
vn 0.05796527 -0.5121218 0.8569546
vn 0.8986569 -0.28480732 0.333618
vn 0.59530073 0.30285102 -0.7442437
vn -0.112806514 0.9207911 -0.26900044
vn -0.1761939 0.4900607 -0.8006043
vn -0.4265705 0.8504494 0.036988392
vn -0.31187093 0.5314195 0.74248356
vn -0.47041243 0.8253174 0.21470591
vn -0.41092473 0.34400293 0.80447555
vn -0.075723685 0.93534863 -0.19673076
vn 0.60169446 0.26237464 -0.70321006
vn -0.269842 0.8116558 0.44528717
vn 0.026852144 0.72504914 0.6585546
vn 0.017406614 0.26733097 0.9443008
vn 0.035110116 0.9062367 0.36437783
vn 0.03026896 0.94306475 0.055149898
vn -0.25762784 0.48796365 0.80268097
vn -0.5326799 0.23659912 0.7930228
vn 0.029420953 0.5903603 0.72799784
vn 0.008685149 0.3830634 -0.85592246
vn -0.5602977 0.27109972 -0.7826695
vn 0.59530073 0.30285102 -0.7442437
vn -0.61008084 0.67326856 -0.28777143
vn -0.73443 0.5570334 0.32862264
vn -0.8499854 0.15283453 0.4926846
vn -0.2220206 0.42522517 -0.87743384
vn 0.023450494 -0.05122471 -0.9984119
vn -0.830745 -0.18299977 -0.52571285
vn 0.657779 0.36930484 -0.6564613
vn 0.5776304 0.80782413 -0.11731616
vn -0.33950952 -0.8837445 0.23452976
vn -0.66440946 -0.5747288 -0.42666367
vn -0.36075866 -0.77237153 -0.47610334
vn -0.7920579 -0.46507868 -0.35295463
vn -0.6244339 -0.40672582 0.648257
vn -0.21408688 -0.66446006 0.69277525
vn -0.1761939 0.4900607 -0.8006043
vn -0.5326799 0.23659912 0.7930228
vn -0.4265705 0.8504494 0.036988392
vn 0.6251311 0.15476325 -0.7649473
vn 0.87374187 0.4847083 -0.040100377
vn 0.4121733 0.7523318 -0.51354045
vn 0.8487745 -0.42412493 -0.31574452
vn 0.40899625 -0.89622563 -0.16521275
vn 0.9583517 0.015631719 -0.28397524
vn 0.25987938 0.9590544 0.04123034
vn 0.6733624 -0.7062565 -0.21088436
vn 0.981532 0.19023833 -0.011430175
vn 0.75805885 0.3340387 -0.5585958
vn 0.20368336 -0.32630473 -0.921712
vn 0.4611808 -0.03282694 -0.885591
vn 0.55905974 0.098929875 -0.8216648
vn -2.1374094E-06 0.099961944 -0.98665965
vn 0.00060365297 0.7354447 -0.6559355
vn 0.14175907 0.12667453 -0.9805577
vn -0.29888675 -0.8642924 -0.31892544
vn -0.11435231 -0.96477103 -0.032835394
vn 1.5447885E-06 -0.9675516 0.09794551
vn -0.66440946 -0.5747288 -0.42666367
vn -0.33950952 -0.8837445 0.23452976
vn -0.7920579 -0.46507868 -0.35295463
vn -0.21408688 -0.66446006 0.69277525
vn -0.0060211904 -0.95263606 0.06613739
vn 9.16713E-06 -0.6782589 0.6966078
vn -0.52662206 0.73419493 -0.42812523
vn -0.9902159 0.08943337 0.107115276
vn -0.9466643 -0.14948441 -0.28541827
vn -0.3849531 0.921382 -0.053532556
vn -0.80816627 0.58645153 -0.02373384
vn -0.8032944 -0.5844845 -0.10519694
vn -0.9816734 0.1896608 -0.017988462
vn -0.52917093 0.8053142 -0.26207608
vn -0.5791323 -0.11783922 -0.7974552
vn -0.604388 0.09194622 -0.7827908
vn -0.9842506 -0.15915284 0.076915406
vn -0.75788814 -0.6481714 0.07267189
vn -0.68448037 -0.66447186 0.29906633
vn -0.52917093 0.8053142 -0.26207608
vn 0.25987938 0.9590544 0.04123034
vn 0.75805885 0.3340387 -0.5585958
vn -0.80816627 0.58645153 -0.02373384
vn -0.3849531 0.921382 -0.053532556
vn 0.87374187 0.4847083 -0.040100377
vn 0.4121733 0.7523318 -0.51354045
vn -0.52662206 0.73419493 -0.42812523
vn -0.41092473 0.34400293 0.80447555
vn -0.8499854 0.15283453 0.4926846
vn -0.47041243 0.8253174 0.21470591
vn -0.075723685 0.93534863 -0.19673076
vn -0.53364086 -0.83888793 -0.061693475
vn -3.8913825E-07 -0.87694806 -0.46780473
vn -3.0107398E-07 -0.97466344 -0.18602048
vn -0.4701824 -0.85375863 -0.22078532
vn -1.3387306E-07 -0.95920277 0.2827186
vn -0.5725781 -0.8041563 0.15964612
vn -0.7412631 -0.6429124 -0.18533085
vn -0.9166789 -0.3962549 0.005910091
vn -0.42787996 -0.3333596 0.81112826
vn 0.0052087624 -0.28522736 0.94325864
vn -0.51117843 -0.17694086 0.8210326
vn -0.31187093 0.5314195 0.74248356
vn 0.017406614 0.26733097 0.9443008
vn -0.42787996 -0.3333596 0.81112826
vn -0.41092473 0.34400293 0.80447555
vn -0.31187093 0.5314195 0.74248356
vn -0.8499854 0.15283453 0.4926846
vn -0.638076 -0.6056508 0.46725112
vn -0.22835156 -0.8619091 0.3842025
vn -0.51117843 -0.17694086 0.8210326
vn -0.7033367 -0.6671534 0.2073674
vn -0.33950952 -0.8837445 0.23452976
vn -0.5966939 -0.7751799 0.13688916
vn -0.11435231 -0.96477103 -0.032835394
vn 0.07043434 -0.93501914 0.2676099
vn -0.50010794 -0.5604358 -0.6348158
vn 1.5447885E-06 -0.9675516 0.09794551
vn -0.005949235 -0.6740514 -0.71613836
vn 0.05796527 -0.5121218 0.8569546
vn -0.5113416 -0.770507 0.38058996
vn -0.90474313 -0.22917 0.35905647
vn 0.43799475 -0.65682775 0.6137896
vn 0.8409393 -0.490211 -0.22916023
vn 0.23161432 -0.969645 0.07837513
vn 0.14525923 -0.72135586 -0.6771594
vn -0.554176 -0.7017441 -0.44770956
vn -0.5113416 -0.770507 0.38058996
vn -0.554176 -0.7017441 -0.44770956
vn -0.830745 -0.18299977 -0.52571285
vn -0.90474313 -0.22917 0.35905647
vn -0.5602977 0.27109972 -0.7826695
vn -0.2220206 0.42522517 -0.87743384
vn -0.9500539 0.2837481 0.02186206
vn -0.6348396 -0.12513518 0.7098866
vn -0.61008084 0.67326856 -0.28777143
vn -0.8053009 0.41612422 0.34729585
vn -0.48765278 -0.16803572 0.8118698
vn -0.73443 0.5570334 0.32862264
vn -0.8571349 -0.2652667 0.43323758
vn -0.8499854 0.15283453 0.4926846
vn -0.638076 -0.6056508 0.46725112
vn -0.39268222 -0.9150082 0.0925215
vn -0.105495945 -0.83954686 0.4896654
vn 0.8986569 -0.28480732 0.333618
vn 0.655074 -0.6740285 0.25053528
vn 0.8609338 -0.39002532 -0.2899527
vn 0.60169446 0.26237464 -0.70321006
vn -0.36075866 -0.77237153 -0.47610334
vn -0.1761939 0.4900607 -0.8006043
vn -0.112806514 0.9207911 -0.26900044
vn 0.05796527 -0.5121218 0.8569546
vn -0.020531796 -0.38328856 0.89116085
vn 0.655074 -0.6740285 0.25053528
vn 0.8986569 -0.28480732 0.333618
vn 0.14525923 -0.72135586 -0.6771594
vn 0.23161432 -0.969645 0.07837513
vn 0.73206794 -0.67598104 0.08441636
vn 0.75351137 -0.37098724 -0.5427609
vn 0.023450494 -0.05122471 -0.9984119
vn -0.830745 -0.18299977 -0.52571285
vn 0.657779 0.36930484 -0.6564613
vn 0.80498505 -0.4529546 -0.38318568
vn 0.0676687 -0.72995955 -0.6801321
vn 0.24567537 -0.8530841 0.46031624
vn -0.2708841 -0.88328415 0.38258624
vn -0.6192182 -0.5973619 -0.50958014
vn 0.23161432 -0.969645 0.07837513
vn 0.7221697 -0.029892564 0.6910699
vn 0.8058381 0.05933024 0.58915627
vn 0.73206794 -0.67598104 0.08441636
vn 0.0676687 -0.72995955 -0.6801321
vn 0.80498505 -0.4529546 -0.38318568
vn 0.8487745 -0.42412493 -0.31574452
vn -0.04677103 0.08867391 -0.99490774
vn -0.6192182 -0.5973619 -0.50958014
vn 0.6251311 0.15476325 -0.7649473
vn -0.9466643 -0.14948441 -0.28541827
vn 0.4121733 0.7523318 -0.51354045
vn -0.52662206 0.73419493 -0.42812523
vn 0.40899625 -0.89622563 -0.16521275
vn 0.8487745 -0.42412493 -0.31574452
vn -0.46018457 -0.8400881 0.28699914
vn -0.8032944 -0.5844845 -0.10519694
vn -0.9902159 0.08943337 0.107115276
vn -0.032352906 -0.9790498 -0.18631402
vn 0.6733624 -0.7062565 -0.21088436
vn 0.20368336 -0.32630473 -0.921712
vn -0.36598083 -0.9295171 -0.036587782
vn -0.75788814 -0.6481714 0.07267189
vn -0.68448037 -0.66447186 0.29906633
vn -0.45928907 -0.27597564 -0.841689
vn -0.019978285 -0.9939676 -0.101287514
vn 0.80498505 -0.4529546 -0.38318568
vn 0.24567537 -0.8530841 0.46031624
vn 0.8487745 -0.42412493 -0.31574452
vn -0.46018457 -0.8400881 0.28699914
vn -0.2708841 -0.88328415 0.38258624
vn -0.9466643 -0.14948441 -0.28541827
vn -0.9902159 0.08943337 0.107115276
vn -0.6192182 -0.5973619 -0.50958014
vn -0.52917093 0.8053142 -0.26207608
vn 0.75805885 0.3340387 -0.5585958
vn -0.26882315 0.20610331 -0.9393818
vn 0.55905974 0.098929875 -0.8216648
vn 0.07924992 0.4956297 -0.8627109
vn 0.00060365297 0.7354447 -0.6559355
vn -0.5791323 -0.11783922 -0.7974552
vn -0.26882315 0.20610331 -0.9393818
vn 0.07924992 0.4956297 -0.8627109
vn -0.76750183 0.48102477 -0.4107862
vn 0.029420953 0.5903603 0.72799784
vn -0.2188997 0.5018671 0.8074997
vn 0.021036476 0.21063955 0.9150734
vn -0.25762784 0.48796365 0.80268097
vn -0.58335036 0.26149383 0.7504738
vn -0.5326799 0.23659912 0.7930228
vn -0.5849365 -0.2947239 0.73836774
vn -0.6244339 -0.40672582 0.648257
vn -0.50126797 -0.7270669 0.44364867
vn -0.21408688 -0.66446006 0.69277525
vn 1.1672249E-05 -0.8554332 0.46439826
vn 9.16713E-06 -0.6782589 0.6966078
vn -0.39268222 -0.9150082 0.0925215
vn -0.638076 -0.6056508 0.46725112
vn -0.33950952 -0.8837445 0.23452976
vn -0.36075866 -0.77237153 -0.47610334
vn 0.28640366 -0.9143749 0.052716672
vn 0.655074 -0.6740285 0.25053528
vn -0.105495945 -0.83954686 0.4896654
vn 0.655074 -0.6740285 0.25053528
vn -0.020531796 -0.38328856 0.89116085
vn -0.105495945 -0.83954686 0.4896654
vn -0.6348396 -0.12513518 0.7098866
vn -0.48765278 -0.16803572 0.8118698
vn -0.8571349 -0.2652667 0.43323758
vn -0.90474313 -0.22917 0.35905647
vn 0.05796527 -0.5121218 0.8569546
vn 0.59530073 0.30285102 -0.7442437
vn 0.8986569 -0.28480732 0.333618
vn 0.8609338 -0.39002532 -0.2899527
vn 0.60169446 0.26237464 -0.70321006
vn -0.604388 0.09194622 -0.7827908
vn -0.5791323 -0.11783922 -0.7974552
vn -0.76750183 0.48102477 -0.4107862
vn -0.8907834 -0.09737261 -0.43593997
vn -0.45928907 -0.27597564 -0.841689
vn -0.8871304 0.04839187 -0.45604354
vn 0.20368336 -0.32630473 -0.921712
vn -0.2700136 0.79967564 -0.52995855
vn 0.4611808 -0.03282694 -0.885591
vn 0.14175907 0.12667453 -0.9805577
vn -2.0513344E-06 0.115504205 -0.98530823
vn -1.04741175E-05 0.67524576 -0.72216
vn -2.1374094E-06 0.099961944 -0.98665965
vn -0.7033367 -0.6671534 0.2073674
vn -0.51117843 -0.17694086 0.8210326
vn -0.72885114 -0.03511945 0.6744964
vn -0.97536886 -0.046500288 0.20917787
vn -0.5966939 -0.7751799 0.13688916
vn -0.92460513 -0.26960126 -0.26049513
vn -0.8490621 -0.18224782 0.4932803
vn -0.83395934 -0.24070343 0.4893962
vn -0.9166789 -0.3962549 0.005910091
vn -0.7412631 -0.6429124 -0.18533085
vn -0.5725781 -0.8041563 0.15964612
vn -0.86233574 -0.3766545 0.3300954
vn -0.53364086 -0.83888793 -0.061693475
vn -0.48062414 -0.80282944 0.33564645
vn -0.36480802 -0.73326015 0.55947864
vn -0.36480802 -0.73326015 0.55947864
vn -0.92460513 -0.26960126 -0.26049513
vn -0.83395934 -0.24070343 0.4893962
vn -0.46574083 -0.8369291 -0.25517043
vn -4.0379348E-08 -0.87624925 0.46019256
vn -3.1492732E-07 -0.9389103 -0.3063359
vn -3.0107398E-07 -0.97466344 -0.18602048
vn -0.48062414 -0.80282944 0.33564645
vn -0.53364086 -0.83888793 -0.061693475
vn -0.92460513 -0.26960126 -0.26049513
vn -0.46574083 -0.8369291 -0.25517043
vn -0.00020798249 0.0875898 -0.9793177
vn -0.35735336 0.32388726 -0.85287625
vn -0.5966939 -0.7751799 0.13688916
vn -0.005949235 -0.6740514 -0.71613836
vn -0.50010794 -0.5604358 -0.6348158
vn -0.58335036 0.26149383 0.7504738
vn -0.8907834 -0.09737261 -0.43593997
vn -0.76750183 0.48102477 -0.4107862
vn -0.5849365 -0.2947239 0.73836774
vn -0.50126797 -0.7270669 0.44364867
vn -0.8871304 0.04839187 -0.45604354
vn -0.70692384 -0.6987557 -0.037371203
vn -0.82126415 0.21165602 -0.5251756
vn -0.2188997 0.5018671 0.8074997
vn -0.58335036 0.26149383 0.7504738
vn -0.76750183 0.48102477 -0.4107862
vn -0.031347424 0.9784641 -0.13766305
vn 0.07924992 0.4956297 -0.8627109
vn 0.00060365297 0.7354447 -0.6559355
vn 0.018422784 0.92562395 0.23273152
vn 0.021036476 0.21063955 0.9150734
vn -0.50126797 -0.7270669 0.44364867
vn 1.1672249E-05 -0.8554332 0.46439826
vn 1.28837755E-05 -0.9771884 -0.09118588
vn -0.70692384 -0.6987557 -0.037371203
vn -0.4462114 -0.8231446 -0.3303527
vn -0.82126415 0.21165602 -0.5251756
vn 1.311833E-05 -0.89309144 -0.4086481
vn -0.45335233 0.25189304 -0.8483567
vn -2.766873E-06 0.16054252 -0.97135615
vn -1.04741175E-05 0.67524576 -0.72216
vn -0.45335233 0.25189304 -0.8483567
vn -2.766873E-06 0.16054252 -0.97135615
vn -0.2700136 0.79967564 -0.52995855
vn -0.82126415 0.21165602 -0.5251756
vn -0.8871304 0.04839187 -0.45604354
vn 0.73206794 -0.67598104 0.08441636
vn 0.8058381 0.05933024 0.58915627
vn 0.75351137 -0.37098724 -0.5427609
vn 0.5776304 0.80782413 -0.11731616
vn 0.657779 0.36930484 -0.6564613
vn 0.7221697 -0.029892564 0.6910699
vn 0.59530073 0.30285102 -0.7442437
vn 0.5776304 0.80782413 -0.11731616
vn 0.8058381 0.05933024 0.58915627
vn 0.002386088 -0.40808928 0.89473176
vn -0.72885114 -0.03511945 0.6744964
vn -0.51117843 -0.17694086 0.8210326
vn 3.3436254E-07 -0.06887281 0.9875716
vn -0.37638903 -0.32845664 0.8656913
vn 2.0402129E-07 -0.51802844 0.8527223
vn -0.8490621 -0.18224782 0.4932803
vn -1.3387306E-07 -0.95920277 0.2827186
vn -0.5725781 -0.8041563 0.15964612
g 0.1667_0
f 3/3/3 2/2/2 1/1/1
f 6/6/6 5/5/5 4/4/4
f 9/9/9 8/8/8 7/7/7
f 12/12/12 11/11/11 10/10/10
f 15/15/15 14/14/14 13/13/13
f 18/18/18 17/17/17 16/16/16
f 21/21/21 20/20/20 19/19/19
f 24/24/24 23/23/23 22/22/22
f 27/27/27 26/26/26 25/25/25
f 30/30/30 29/29/29 28/28/28
f 33/33/33 32/32/32 31/31/31
f 36/36/36 35/35/35 34/34/34
f 39/39/39 38/38/38 37/37/37
f 38/38/38 40/40/40 37/37/37
f 38/38/38 41/41/41 40/40/40
f 37/37/37 40/40/40 41/41/41
f 41/41/41 42/42/42 37/37/37
f 42/42/42 43/43/43 37/37/37
f 37/37/37 43/43/43 44/44/44
f 47/47/47 46/46/46 45/45/45
f 48/48/48 45/45/45 46/46/46
f 45/45/45 48/48/48 49/49/49
f 49/49/49 48/48/48 50/50/50
f 49/49/49 51/51/51 45/45/45
f 52/52/52 45/45/45 51/51/51
f 53/53/53 48/48/48 46/46/46
f 53/53/53 54/54/54 48/48/48
f 54/54/54 55/55/55 48/48/48
f 56/56/56 54/54/54 53/53/53
f 57/57/57 56/56/56 53/53/53
f 53/53/53 46/46/46 57/57/57
f 58/58/58 57/57/57 46/46/46
f 58/58/58 46/46/46 59/59/59
f 58/58/58 60/60/60 57/57/57
f 51/51/51 61/61/61 52/52/52
f 61/61/61 62/62/62 52/52/52
f 62/62/62 63/63/63 52/52/52
f 61/61/61 64/64/64 62/62/62
f 61/61/61 51/51/51 64/64/64
f 65/65/65 64/64/64 51/51/51
f 51/51/51 66/66/66 65/65/65
f 63/63/63 62/62/62 67/67/67
f 67/67/67 68/68/68 63/63/63
f 67/67/67 69/69/69 68/68/68
f 68/68/68 70/70/70 63/63/63
f 70/70/70 71/71/71 63/63/63
f 74/74/74 73/73/73 72/72/72
f 73/73/73 74/74/74 75/75/75
f 73/73/73 75/75/75 76/76/76
f 75/75/75 77/77/77 76/76/76
f 76/76/76 78/78/78 73/73/73
f 76/76/76 79/79/79 78/78/78
f 79/79/79 80/80/80 78/78/78
f 83/83/83 82/82/82 81/81/81
f 83/83/83 81/81/81 84/84/84
f 85/85/85 83/83/83 84/84/84
f 83/83/83 85/85/85 86/86/86
f 83/83/83 86/86/86 87/87/87
f 85/85/85 88/88/88 86/86/86
f 87/87/87 86/86/86 89/89/89
f 89/89/89 86/86/86 88/88/88
f 87/87/87 89/89/89 90/90/90
f 89/89/89 88/88/88 90/90/90
f 90/90/90 88/88/88 91/91/91
f 91/91/91 92/92/92 90/90/90
f 92/92/92 93/93/93 90/90/90
f 93/93/93 92/92/92 94/94/94
f 93/93/93 94/94/94 95/95/95
f 92/92/92 96/96/96 94/94/94
f 99/99/99 98/98/98 97/97/97
f 97/97/97 100/100/100 99/99/99
f 99/99/99 100/100/100 101/101/101
f 100/100/100 97/97/97 102/102/102
f 97/97/97 103/103/103 102/102/102
f 104/104/104 103/103/103 97/97/97
f 104/104/104 105/105/105 103/103/103
f 108/108/108 107/107/107 106/106/106
f 108/108/108 106/106/106 109/109/109
f 110/110/110 108/108/108 109/109/109
f 108/108/108 110/110/110 111/111/111
f 111/111/111 110/110/110 112/112/112
f 112/112/112 110/110/110 113/113/113
f 112/112/112 113/113/113 114/114/114
f 114/114/114 115/115/115 112/112/112
f 112/112/112 116/116/116 111/111/111
f 112/112/112 115/115/115 116/116/116
f 117/117/117 111/111/111 116/116/116
f 117/117/117 116/116/116 115/115/115
f 118/118/118 117/117/117 115/115/115
f 121/121/121 120/120/120 119/119/119
f 121/121/121 119/119/119 122/122/122
f 122/122/122 123/123/123 121/121/121
f 124/124/124 121/121/121 123/123/123
f 125/125/125 124/124/124 123/123/123
f 126/126/126 125/125/125 123/123/123
f 129/129/129 128/128/128 127/127/127
f 130/130/130 128/128/128 129/129/129
f 133/133/133 132/132/132 131/131/131
f 131/131/131 134/134/134 133/133/133
f 133/133/133 134/134/134 135/135/135
f 135/135/135 134/134/134 136/136/136
f 134/134/134 137/137/137 136/136/136
f 137/137/137 134/134/134 131/131/131
f 138/138/138 137/137/137 131/131/131
f 141/141/141 140/140/140 139/139/139
f 141/141/141 139/139/139 142/142/142
f 143/143/143 141/141/141 142/142/142
f 146/146/146 145/145/145 144/144/144
f 144/144/144 147/147/147 146/146/146
f 148/148/148 147/147/147 144/144/144
f 148/148/148 144/144/144 149/149/149
f 150/150/150 149/149/149 144/144/144
f 150/150/150 151/151/151 149/149/149
f 149/149/149 152/152/152 148/148/148
f 149/149/149 151/151/151 153/153/153
f 153/153/153 152/152/152 149/149/149
f 154/154/154 152/152/152 153/153/153
f 154/154/154 153/153/153 155/155/155
f 156/156/156 155/155/155 153/153/153
f 155/155/155 157/157/157 154/154/154
f 157/157/157 155/155/155 156/156/156
f 158/158/158 157/157/157 156/156/156
f 161/161/161 160/160/160 159/159/159
f 161/161/161 159/159/159 162/162/162
f 163/163/163 161/161/161 162/162/162
f 163/163/163 164/164/164 161/161/161
f 164/164/164 165/165/165 161/161/161
f 165/165/165 166/166/166 161/161/161
f 169/169/169 168/168/168 167/167/167
f 170/170/170 167/167/167 168/168/168
f 171/171/171 170/170/170 168/168/168
f 171/171/171 168/168/168 172/172/172
f 170/170/170 171/171/171 173/173/173
f 174/174/174 170/170/170 173/173/173
f 171/171/171 175/175/175 173/173/173
f 174/174/174 173/173/173 176/176/176
f 175/175/175 176/176/176 173/173/173
f 177/177/177 174/174/174 176/176/176
f 175/175/175 178/178/178 176/176/176
f 177/177/177 176/176/176 178/178/178
f 179/179/179 177/177/177 178/178/178
f 178/178/178 180/180/180 179/179/179
f 179/179/179 180/180/180 181/181/181
f 179/179/179 181/181/181 182/182/182
f 179/179/179 182/182/182 183/183/183
f 186/186/186 185/185/185 184/184/184
f 187/187/187 185/185/185 186/186/186
f 186/186/186 188/188/188 187/187/187
f 189/189/189 187/187/187 188/188/188
f 190/190/190 187/187/187 189/189/189
f 193/193/193 192/192/192 191/191/191
f 191/191/191 192/192/192 194/194/194
f 197/197/197 196/196/196 195/195/195
f 196/196/196 198/198/198 195/195/195
f 195/195/195 198/198/198 199/199/199
f 200/200/200 195/195/195 199/199/199
f 198/198/198 201/201/201 199/199/199
f 204/204/204 203/203/203 202/202/202
f 203/203/203 204/204/204 205/205/205
f 206/206/206 205/205/205 204/204/204
f 209/209/209 208/208/208 207/207/207
f 210/210/210 209/209/209 207/207/207
f 213/213/213 212/212/212 211/211/211
f 212/212/212 214/214/214 211/211/211
f 211/211/211 214/214/214 215/215/215
f 216/216/216 214/214/214 212/212/212
f 215/215/215 214/214/214 217/217/217
f 214/214/214 216/216/216 218/218/218
f 219/219/219 217/217/217 214/214/214
f 214/214/214 218/218/218 219/219/219
f 222/222/222 221/221/221 220/220/220
f 221/221/221 223/223/223 220/220/220
f 223/223/223 221/221/221 224/224/224
f 225/225/225 220/220/220 223/223/223
f 226/226/226 220/220/220 225/225/225
f 226/226/226 225/225/225 227/227/227
f 225/225/225 223/223/223 228/228/228
f 228/228/228 223/223/223 229/229/229
f 228/228/228 229/229/229 230/230/230
f 231/231/231 228/228/228 230/230/230
f 225/225/225 232/232/232 227/227/227
f 232/232/232 225/225/225 228/228/228
f 232/232/232 228/228/228 231/231/231
f 231/231/231 227/227/227 232/232/232
f 235/235/235 234/234/234 233/233/233
f 236/236/236 234/234/234 235/235/235
f 237/237/237 236/236/236 235/235/235
f 237/237/237 238/238/238 236/236/236
f 236/236/236 238/238/238 239/239/239
f 238/238/238 237/237/237 240/240/240
f 243/243/243 242/242/242 241/241/241
f 243/243/243 244/244/244 242/242/242
f 244/244/244 245/245/245 242/242/242
f 245/245/245 244/244/244 246/246/246
f 249/249/249 248/248/248 247/247/247
f 250/250/250 249/249/249 247/247/247
f 253/253/253 252/252/252 251/251/251
f 254/254/254 253/253/253 251/251/251
f 255/255/255 253/253/253 254/254/254
f 256/256/256 255/255/255 254/254/254
f 257/257/257 255/255/255 256/256/256
f 258/258/258 257/257/257 256/256/256
f 259/259/259 257/257/257 258/258/258
f 260/260/260 259/259/259 258/258/258
f 261/261/261 259/259/259 260/260/260
f 262/262/262 261/261/261 260/260/260
f 265/265/265 264/264/264 263/263/263
f 266/266/266 263/263/263 264/264/264
f 267/267/267 263/263/263 266/266/266
f 267/267/267 266/266/266 268/268/268
f 267/267/267 269/269/269 263/263/263
f 269/269/269 267/267/267 268/268/268
f 272/272/272 271/271/271 270/270/270
f 272/272/272 273/273/273 271/271/271
f 274/274/274 271/271/271 273/273/273
f 274/274/274 275/275/275 271/271/271
f 276/276/276 273/273/273 272/272/272
f 277/277/277 276/276/276 272/272/272
f 280/280/280 279/279/279 278/278/278
f 281/281/281 278/278/278 279/279/279
f 284/284/284 283/283/283 282/282/282
f 283/283/283 285/285/285 282/282/282
f 282/282/282 285/285/285 286/286/286
f 285/285/285 287/287/287 286/286/286
f 286/286/286 287/287/287 288/288/288
f 287/287/287 289/289/289 288/288/288
f 289/289/289 290/290/290 288/288/288
f 290/290/290 289/289/289 291/291/291
f 292/292/292 291/291/291 289/289/289
f 293/293/293 292/292/292 289/289/289
f 292/292/292 294/294/294 291/291/291
f 297/297/297 296/296/296 295/295/295
f 295/295/295 296/296/296 298/298/298
f 295/295/295 298/298/298 299/299/299
f 299/299/299 298/298/298 300/300/300
f 296/296/296 301/301/301 298/298/298
f 298/298/298 302/302/302 300/300/300
f 303/303/303 298/298/298 301/301/301
f 301/301/301 304/304/304 303/303/303
f 305/305/305 304/304/304 301/301/301
f 306/306/306 298/298/298 303/303/303
f 302/302/302 298/298/298 306/306/306
f 303/303/303 307/307/307 306/306/306
f 307/307/307 308/308/308 306/306/306
f 306/306/306 308/308/308 302/302/302
f 308/308/308 309/309/309 302/302/302
f 312/312/312 311/311/311 310/310/310
f 313/313/313 312/312/312 310/310/310
f 310/310/310 314/314/314 313/313/313
f 314/314/314 315/315/315 313/313/313
f 316/316/316 314/314/314 310/310/310
f 317/317/317 316/316/316 310/310/310
f 318/318/318 316/316/316 317/317/317
f 321/321/321 320/320/320 319/319/319
f 320/320/320 322/322/322 319/319/319
f 319/319/319 322/322/322 323/323/323
f 322/322/322 320/320/320 324/324/324
f 323/323/323 322/322/322 325/325/325
f 325/325/325 322/322/322 324/324/324
f 328/328/328 327/327/327 326/326/326
f 326/326/326 329/329/329 328/328/328
f 329/329/329 330/330/330 328/328/328
f 331/331/331 328/328/328 330/330/330
f 330/330/330 332/332/332 331/331/331
f 332/332/332 333/333/333 331/331/331
f 336/336/336 335/335/335 334/334/334
f 335/335/335 337/337/337 334/334/334
f 335/335/335 338/338/338 337/337/337
f 339/339/339 337/337/337 338/338/338
f 339/339/339 340/340/340 337/337/337
f 334/334/334 337/337/337 340/340/340
f 340/340/340 341/341/341 334/334/334
f 344/344/344 343/343/343 342/342/342
f 343/343/343 345/345/345 342/342/342
f 346/346/346 345/345/345 343/343/343
f 346/346/346 347/347/347 345/345/345
f 346/346/346 343/343/343 348/348/348
f 347/347/347 346/346/346 349/349/349
f 348/348/348 349/349/349 346/346/346
f 349/349/349 348/348/348 350/350/350
f 353/353/353 352/352/352 351/351/351
f 354/354/354 353/353/353 351/351/351
f 355/355/355 353/353/353 354/354/354
f 356/356/356 355/355/355 354/354/354
f 359/359/359 358/358/358 357/357/357
f 359/359/359 360/360/360 358/358/358
f 361/361/361 358/358/358 360/360/360
f 364/364/364 363/363/363 362/362/362
f 365/365/365 364/364/364 362/362/362
f 368/368/368 367/367/367 366/366/366
f 369/369/369 368/368/368 366/366/366
f 370/370/370 368/368/368 369/369/369
f 371/371/371 370/370/370 369/369/369
f 370/370/370 372/372/372 368/368/368
f 371/371/371 373/373/373 370/370/370
f 374/374/374 372/372/372 370/370/370
f 373/373/373 374/374/374 370/370/370
f 377/377/377 376/376/376 375/375/375
f 378/378/378 377/377/377 375/375/375
f 379/379/379 377/377/377 378/378/378
f 378/378/378 375/375/375 379/379/379
f 380/380/380 379/379/379 375/375/375
f 381/381/381 380/380/380 375/375/375
f 381/381/381 375/375/375 382/382/382
f 385/385/385 384/384/384 383/383/383
f 383/383/383 386/386/386 385/385/385
f 386/386/386 383/383/383 387/387/387
f 386/386/386 387/387/387 388/388/388
f 389/389/389 387/387/387 383/383/383
f 383/383/383 390/390/390 389/389/389
f 386/386/386 391/391/391 385/385/385
f 392/392/392 391/391/391 386/386/386
f 393/393/393 392/392/392 386/386/386
f 392/392/392 394/394/394 391/391/391
f 394/394/394 395/395/395 391/391/391
f 385/385/385 391/391/391 395/395/395
f 395/395/395 396/396/396 385/385/385
f 385/385/385 396/396/396 397/397/397
f 398/398/398 396/396/396 395/395/395
f 399/399/399 389/389/389 390/390/390
f 400/400/400 399/399/399 390/390/390
f 401/401/401 400/400/400 390/390/390
f 402/402/402 399/399/399 400/400/400
f 389/389/389 399/399/399 402/402/402
f 402/402/402 403/403/403 389/389/389
f 404/404/404 389/389/389 403/403/403
f 400/400/400 401/401/401 405/405/405
f 406/406/406 405/405/405 401/401/401
f 407/407/407 405/405/405 406/406/406
f 408/408/408 406/406/406 401/401/401
f 409/409/409 408/408/408 401/401/401
f 412/412/412 411/411/411 410/410/410
f 411/411/411 412/412/412 413/413/413
f 413/413/413 412/412/412 414/414/414
f 415/415/415 413/413/413 414/414/414
f 416/416/416 414/414/414 412/412/412
f 417/417/417 414/414/414 416/416/416
f 418/418/418 417/417/417 416/416/416
f 421/421/421 420/420/420 419/419/419
f 419/419/419 420/420/420 422/422/422
f 420/420/420 423/423/423 422/422/422
f 423/423/423 420/420/420 424/424/424
f 424/424/424 420/420/420 425/425/425
f 426/426/426 423/423/423 424/424/424
f 424/424/424 425/425/425 427/427/427
f 424/424/424 427/427/427 426/426/426
f 427/427/427 425/425/425 428/428/428
f 426/426/426 427/427/427 428/428/428
f 426/426/426 428/428/428 429/429/429
f 430/430/430 429/429/429 428/428/428
f 431/431/431 430/430/430 428/428/428
f 430/430/430 431/431/431 432/432/432
f 432/432/432 431/431/431 433/433/433
f 434/434/434 430/430/430 432/432/432
f 437/437/437 436/436/436 435/435/435
f 438/438/438 435/435/435 436/436/436
f 438/438/438 436/436/436 439/439/439
f 435/435/435 438/438/438 440/440/440
f 441/441/441 435/435/435 440/440/440
f 441/441/441 442/442/442 435/435/435
f 443/443/443 442/442/442 441/441/441
f 446/446/446 445/445/445 444/444/444
f 444/444/444 445/445/445 447/447/447
f 445/445/445 448/448/448 447/447/447
f 448/448/448 445/445/445 449/449/449
f 448/448/448 449/449/449 450/450/450
f 448/448/448 450/450/450 451/451/451
f 451/451/451 450/450/450 452/452/452
f 453/453/453 452/452/452 450/450/450
f 454/454/454 450/450/450 449/449/449
f 453/453/453 450/450/450 454/454/454
f 449/449/449 455/455/455 454/454/454
f 454/454/454 455/455/455 453/453/453
f 455/455/455 456/456/456 453/453/453
f 459/459/459 458/458/458 457/457/457
f 457/457/457 458/458/458 460/460/460
f 461/461/461 460/460/460 458/458/458
f 458/458/458 462/462/462 461/461/461
f 462/462/462 463/463/463 461/461/461
f 463/463/463 464/464/464 461/461/461
f 467/467/467 466/466/466 465/465/465
f 467/467/467 468/468/468 466/466/466
f 471/471/471 470/470/470 469/469/469
f 472/472/472 469/469/469 470/470/470
f 472/472/472 470/470/470 473/473/473
f 472/472/472 473/473/473 474/474/474
f 475/475/475 472/472/472 474/474/474
f 472/472/472 475/475/475 469/469/469
f 475/475/475 476/476/476 469/469/469
f 479/479/479 478/478/478 477/477/477
f 477/477/477 478/478/478 480/480/480
f 478/478/478 481/481/481 480/480/480
f 484/484/484 483/483/483 482/482/482
f 485/485/485 482/482/482 483/483/483
f 485/485/485 486/486/486 482/482/482
f 482/482/482 486/486/486 487/487/487
f 487/487/487 488/488/488 482/482/482
f 489/489/489 488/488/488 487/487/487
f 490/490/490 487/487/487 486/486/486
f 489/489/489 487/487/487 491/491/491
f 490/490/490 491/491/491 487/487/487
f 490/490/490 492/492/492 491/491/491
f 491/491/491 492/492/492 493/493/493
f 493/493/493 494/494/494 491/491/491
f 495/495/495 493/493/493 492/492/492
f 493/493/493 495/495/495 494/494/494
f 495/495/495 496/496/496 494/494/494
f 499/499/499 498/498/498 497/497/497
f 497/497/497 498/498/498 500/500/500
f 498/498/498 501/501/501 500/500/500
f 502/502/502 501/501/501 498/498/498
f 503/503/503 502/502/502 498/498/498
f 504/504/504 503/503/503 498/498/498
f 507/507/507 506/506/506 505/505/505
f 505/505/505 508/508/508 507/507/507
f 508/508/508 509/509/509 507/507/507
f 507/507/507 509/509/509 510/510/510
f 509/509/509 508/508/508 511/511/511
f 508/508/508 512/512/512 511/511/511
f 513/513/513 509/509/509 511/511/511
f 511/511/511 512/512/512 514/514/514
f 514/514/514 513/513/513 511/511/511
f 512/512/512 515/515/515 514/514/514
f 516/516/516 513/513/513 514/514/514
f 514/514/514 515/515/515 516/516/516
f 515/515/515 517/517/517 516/516/516
f 518/518/518 516/516/516 517/517/517
f 518/518/518 517/517/517 519/519/519
f 519/519/519 517/517/517 520/520/520
f 520/520/520 517/517/517 521/521/521
f 524/524/524 523/523/523 522/522/522
f 524/524/524 525/525/525 523/523/523
f 526/526/526 523/523/523 525/525/525
f 525/525/525 527/527/527 526/526/526
f 525/525/525 528/528/528 527/527/527
f 531/531/531 530/530/530 529/529/529
f 531/531/531 529/529/529 532/532/532
f 535/535/535 534/534/534 533/533/533
f 536/536/536 535/535/535 533/533/533
f 536/536/536 533/533/533 537/537/537
f 533/533/533 538/538/538 537/537/537
f 539/539/539 536/536/536 537/537/537
f 542/542/542 541/541/541 540/540/540
f 541/541/541 542/542/542 543/543/543
f 543/543/543 544/544/544 541/541/541
f 547/547/547 546/546/546 545/545/545
f 548/548/548 547/547/547 545/545/545
f 551/551/551 550/550/550 549/549/549
f 552/552/552 551/551/551 549/549/549
f 552/552/552 549/549/549 553/553/553
f 552/552/552 554/554/554 551/551/551
f 552/552/552 553/553/553 555/555/555
f 554/554/554 552/552/552 556/556/556
f 555/555/555 557/557/557 552/552/552
f 556/556/556 552/552/552 557/557/557
f 560/560/560 559/559/559 558/558/558
f 561/561/561 560/560/560 558/558/558
f 560/560/560 561/561/561 562/562/562
f 558/558/558 563/563/563 561/561/561
f 558/558/558 564/564/564 563/563/563
f 563/563/563 564/564/564 565/565/565
f 561/561/561 563/563/563 566/566/566
f 561/561/561 566/566/566 567/567/567
f 567/567/567 566/566/566 568/568/568
f 566/566/566 569/569/569 568/568/568
f 570/570/570 563/563/563 565/565/565
f 565/565/565 569/569/569 570/570/570
f 566/566/566 570/570/570 569/569/569
f 563/563/563 570/570/570 566/566/566
f 573/573/573 572/572/572 571/571/571
f 573/573/573 574/574/574 572/572/572
f 574/574/574 575/575/575 572/572/572
f 576/576/576 575/575/575 574/574/574
f 576/576/576 574/574/574 577/577/577
f 575/575/575 576/576/576 578/578/578
f 581/581/581 580/580/580 579/579/579
f 582/582/582 580/580/580 581/581/581
f 583/583/583 582/582/582 581/581/581
f 582/582/582 583/583/583 584/584/584
f 587/587/587 586/586/586 585/585/585
f 588/588/588 587/587/587 585/585/585
f 591/591/591 590/590/590 589/589/589
f 590/590/590 592/592/592 589/589/589
f 590/590/590 593/593/593 592/592/592
f 593/593/593 594/594/594 592/592/592
f 593/593/593 595/595/595 594/594/594
f 595/595/595 596/596/596 594/594/594
f 595/595/595 597/597/597 596/596/596
f 597/597/597 598/598/598 596/596/596
f 597/597/597 599/599/599 598/598/598
f 599/599/599 600/600/600 598/598/598
f 603/603/603 602/602/602 601/601/601
f 601/601/601 604/604/604 603/603/603
f 601/601/601 605/605/605 604/604/604
f 604/604/604 605/605/605 606/606/606
f 607/607/607 605/605/605 601/601/601
f 605/605/605 607/607/607 606/606/606
f 610/610/610 609/609/609 608/608/608
f 611/611/611 609/609/609 610/610/610
f 610/610/610 612/612/612 611/611/611
f 613/613/613 612/612/612 610/610/610
f 611/611/611 614/614/614 609/609/609
f 614/614/614 615/615/615 609/609/609
f 618/618/618 617/617/617 616/616/616
f 616/616/616 619/619/619 618/618/618
f 622/622/622 621/621/621 620/620/620
f 623/623/623 622/622/622 620/620/620
f 623/623/623 620/620/620 624/624/624
f 625/625/625 623/623/623 624/624/624
f 625/625/625 624/624/624 626/626/626
f 627/627/627 625/625/625 626/626/626
f 628/628/628 627/627/627 626/626/626
f 627/627/627 628/628/628 629/629/629
f 629/629/629 630/630/630 627/627/627
f 630/630/630 631/631/631 627/627/627
f 632/632/632 630/630/630 629/629/629
f 635/635/635 634/634/634 633/633/633
f 635/635/635 633/633/633 636/636/636
f 636/636/636 633/633/633 637/637/637
f 636/636/636 637/637/637 638/638/638
f 639/639/639 635/635/635 636/636/636
f 640/640/640 636/636/636 638/638/638
f 636/636/636 641/641/641 639/639/639
f 642/642/642 639/639/639 641/641/641
f 642/642/642 643/643/643 639/639/639
f 636/636/636 644/644/644 641/641/641
f 636/636/636 640/640/640 644/644/644
f 645/645/645 641/641/641 644/644/644
f 646/646/646 645/645/645 644/644/644
f 646/646/646 644/644/644 640/640/640
f 647/647/647 646/646/646 640/640/640
f 650/650/650 649/649/649 648/648/648
f 649/649/649 651/651/651 648/648/648
f 652/652/652 648/648/648 651/651/651
f 653/653/653 652/652/652 651/651/651
f 652/652/652 654/654/654 648/648/648
f 654/654/654 655/655/655 648/648/648
f 654/654/654 656/656/656 655/655/655
f 659/659/659 658/658/658 657/657/657
f 660/660/660 659/659/659 657/657/657
f 660/660/660 657/657/657 661/661/661
f 659/659/659 660/660/660 662/662/662
f 660/660/660 661/661/661 663/663/663
f 660/660/660 663/663/663 662/662/662
f 666/666/666 665/665/665 664/664/664
f 667/667/667 664/664/664 665/665/665
f 668/668/668 667/667/667 665/665/665
f 665/665/665 669/669/669 668/668/668
f 670/670/670 668/668/668 669/669/669
f 671/671/671 670/670/670 669/669/669
f 674/674/674 673/673/673 672/672/672
f 675/675/675 674/674/674 672/672/672
f 676/676/676 674/674/674 675/675/675
f 675/675/675 677/677/677 676/676/676
f 678/678/678 677/677/677 675/675/675
f 675/675/675 672/672/672 678/678/678
f 679/679/679 678/678/678 672/672/672
f 682/682/682 681/681/681 680/680/680
f 683/683/683 682/682/682 680/680/680
f 683/683/683 684/684/684 682/682/682
f 685/685/685 684/684/684 683/683/683
f 682/682/682 684/684/684 686/686/686
f 684/684/684 685/685/685 687/687/687
f 687/687/687 686/686/686 684/684/684
f 686/686/686 687/687/687 688/688/688
f 691/691/691 690/690/690 689/689/689
f 690/690/690 692/692/692 689/689/689
f 690/690/690 693/693/693 692/692/692
f 693/693/693 694/694/694 692/692/692
f 697/697/697 696/696/696 695/695/695
f 698/698/698 696/696/696 697/697/697
f 697/697/697 699/699/699 698/698/698
f 702/702/702 701/701/701 700/700/700
f 703/703/703 702/702/702 700/700/700
f 706/706/706 705/705/705 704/704/704
f 705/705/705 707/707/707 704/704/704
f 705/705/705 708/708/708 707/707/707
f 708/708/708 709/709/709 707/707/707
f 710/710/710 708/708/708 705/705/705
f 711/711/711 709/709/709 708/708/708
f 710/710/710 712/712/712 708/708/708
f 712/712/712 711/711/711 708/708/708
