g 0.1833
v -0.008280156 -1.0591507 4.024166
v 0.00037882687 -1.0748326 4.3145046
v 0.50057936 -0.92028344 4.1876707
v 1.033116 0.19982672 2.0507479
v 1.1221572 1.1424625 2.8037508
v 0.5375688 0.9002554 2.2286117
v 1.200694 -0.407066 2.9831765
v 0.81997985 -0.58525056 3.045343
v 1.2821366 0.1885274 3.233999
v 0.001266383 -1.5367801 4.796261
v 0.0023431992 -1.9115006 5.0258813
v 0.3870614 -1.8577605 5.072164
v 0.5092404 -0.74372876 6.148652
v 0.00647285 -0.7768916 6.1400857
v 0.01202959 -0.5971979 6.30102
v 2.3657024 1.4583439 2.776969
v 2.624317 1.3876393 2.6876335
v 2.7081487 1.4084467 3.0086021
v -0.008280156 -1.0591507 4.024166
v -0.50447303 -1.1065027 4.2176366
v 0.00037882687 -1.0748326 4.3145046
v -1.0330439 0.6286138 2.4286351
v -0.53757346 1.0318561 2.679537
v -1.1179264 0.89327073 3.2089267
v -1.2006718 -0.50719553 2.646926
v -1.2819204 -0.28362048 3.20715
v -0.8199522 -0.6925747 2.6423943
v 0.001266383 -1.5367801 4.796261
v -0.38247183 -1.8591715 5.071177
v 0.0023431992 -1.9115006 5.0258813
v -0.509692 -0.58986557 6.147238
v 0.01202959 -0.5971979 6.30102
v 0.00647285 -0.7768916 6.1400857
v -2.3210788 -2.8200917 3.9104877
v -2.6584098 -2.6012506 3.802185
v -2.587155 -2.8615727 3.9961867
v 2.124287 0.73925877 3.053347
v 2.1514602 0.9081278 2.812626
v 2.278779 1.1425723 2.6718793
v 2.115009 0.8130853 2.8509283
v 2.147998 0.7128639 2.8203154
v 2.3849528 0.42577934 3.379248
v 2.2247455 0.63653946 3.3847997
v 2.2896047 1.0332166 3.650138
v 1.1828247 0.5254972 5.3801847
v 0.83393574 0.8414817 5.2225437
v 1.1535783 0.52852035 4.988866
v 0.88960016 0.05990386 5.9296727
v 1.6906849 0.061516047 5.8885093
v 1.5088664 -0.26763415 5.977558
v 1.6689494 0.57823753 5.506277
v 1.7019565 0.9769993 4.5825043
v 0.36933494 0.53530717 5.8016043
v 0.033063747 0.45139349 5.9483624
v 0.027497698 0.10721576 6.2879014
v 0.03569822 0.68645 5.5638733
v 0.013475426 1.1278571 4.669095
v 0.73868984 1.1494718 3.9672356
v 1.0446249 0.9838195 4.0002356
v -0.0011540279 1.0816715 4.0764346
v 2.1750197 1.0694778 4.553281
v 2.6809106 1.0357475 3.798371
v 2.2896047 1.0332166 3.650138
v 2.4970217 0.82453084 4.9543715
v 2.1747324 0.32865238 5.3253393
v 1.9688852 -0.36769462 5.6794434
v 2.5740888 1.5521401 3.2339969
v 2.4411244 1.6319118 3.0391417
v 2.7081487 1.4084467 3.0086021
v 2.0477855 1.4322076 3.2684162
v 2.023258 1.1666213 3.503364
v 1.1536796 -0.8722222 4.849398
v 1.1494064 -0.14004397 4.6252823
v 0.95988333 -0.77629066 4.2951484
v 0.92049897 -0.48540306 4.207435
v 1.1285882 0.24368593 3.9088278
v 0.7686656 -0.6713318 3.4771795
v 1.1535783 0.52852035 4.988866
v 1.0446249 0.9838195 4.0002356
v 0.83393574 0.8414817 5.2225437
v 0.609431 0.08496485 0.20509875
v 0.73836905 0.66534954 0.45285243
v 0.5901165 0.19989139 0.92354393
v 0.45348266 -0.44849035 0.038318247
v 0.81884193 -0.45997265 0.9516846
v 0.26606137 -0.3007861 1.4128058
v 0.67913705 0.17609608 1.6899805
v 0.4408002 -0.7642052 1.882217
v 0.28724423 -0.20408988 1.8018913
v 0.30042437 0.0071071982 2.0344136
v 0.2814305 -0.5064098 2.3949876
v 0.21705425 -0.48274097 2.3777342
v 0.2515022 0.078222334 2.1211777
v -9.108577E-06 0.27342623 2.4090981
v -0.0009825942 1.061996 2.581665
v 0.1853744 -0.52084553 2.380864
v 0.50057936 -0.92028344 4.1876707
v 0.00037882687 -1.0748326 4.3145046
v 0.5987521 -1.2287976 4.4279985
v 0.95988333 -0.77629066 4.2951484
v 1.1536796 -0.8722222 4.849398
v 0.92049897 -0.48540306 4.207435
v 0.7686656 -0.6713318 3.4771795
v -0.008280156 -1.0591507 4.024166
v 2.8004088E-05 -1.1217453 3.2702637
v 1.0774928 0.6123319 0.4784118
v 1.6076211 -0.34115583 0.038467333
v 1.1957973 -0.018809594 0.8116383
v 1.0083829 0.27567846 1.0985458
v 1.3283978 -0.0055188686 1.669879
v 1.3457792 -0.7458278 1.96495
v 1.3312091 -0.04244721 2.3901212
v 1.033116 0.19982672 2.0507479
v 1.1221572 1.1424625 2.8037508
v 1.2821366 0.1885274 3.233999
v 1.32594 -0.3187002 2.547718
v 1.2529167 -0.51364756 2.640003
v 1.200694 -0.407066 2.9831765
v 1.033116 0.19982672 2.0507479
v 0.30042437 0.0071071982 2.0344136
v 0.67913705 0.17609608 1.6899805
v 1.3283978 -0.0055188686 1.669879
v 1.0083829 0.27567846 1.0985458
v 0.5901165 0.19989139 0.92354393
v 0.73836905 0.66534954 0.45285243
v 1.0774928 0.6123319 0.4784118
v 1.5088664 -0.26763415 5.977558
v 1.6906849 0.061516047 5.8885093
v 1.9688852 -0.36769462 5.6794434
v 1.6689494 0.57823753 5.506277
v 0.22437398 -1.697613 5.498384
v 0.0019268049 -1.7552049 5.351276
v 0.0021003955 -1.8815976 5.4631953
v 0.22746535 -1.662396 5.7872405
v 0.0012248885 -1.7959726 6.0601964
v 0.3744189 -1.6806015 6.0051026
v 0.43683642 -1.6201704 5.773358
v 0.47952652 -1.4526001 5.5551777
v 1.0182016 -0.61733496 5.8698354
v 0.5092404 -0.74372876 6.148652
v 0.01202959 -0.5971979 6.30102
v 0.88960016 0.05990386 5.9296727
v 0.027497698 0.10721576 6.2879014
v 1.0182016 -0.61733496 5.8698354
v 0.88960016 0.05990386 5.9296727
v 1.5088664 -0.26763415 5.977558
v 1.9688852 -0.36769462 5.6794434
v 1.7628193 -0.85978866 5.086229
v 0.87718093 -0.8596654 5.6408095
v 0.5092404 -0.74372876 6.148652
v 0.54742324 -0.91290915 5.354738
v 1.1536796 -0.8722222 4.849398
v 0.5592787 -0.95579386 5.1233735
v 0.5987521 -1.2287976 4.4279985
v 0.35854337 -1.0065737 4.832705
v 0.27822134 -1.0244904 4.9829507
v 0.00037882687 -1.0748326 4.3145046
v -0.00041387603 -1.1030123 4.842082
v 2.3849528 0.42577934 3.379248
v 2.8593886 0.4892218 3.49632
v 2.5572567 0.82653165 2.7766838
v 2.147998 0.7128639 2.8203154
v 2.1514602 0.9081278 2.812626
v 2.278779 1.1425723 2.6718793
v 2.3657024 1.4583439 2.776969
v 2.624317 1.3876393 2.6876335
v 2.5572567 0.82653165 2.7766838
v 2.7081487 1.4084467 3.0086021
v 2.624317 1.3876393 2.6876335
v 2.8593886 0.4892218 3.49632
v 2.6809106 1.0357475 3.798371
v 2.5740888 1.5521401 3.2339969
v 2.7438273 0.5535953 4.505498
v 2.528285 0.02980113 4.434833
v 2.4970217 0.82453084 4.9543715
v 2.5205421 0.47972846 4.8330793
v 2.4032903 0.0034022331 4.5823526
v 2.1747324 0.32865238 5.3253393
v 2.0320072 -0.07024479 5.04282
v 1.9688852 -0.36769462 5.6794434
v 1.7628193 -0.85978866 5.086229
v 1.6532681 -0.5220046 4.6440926
v 1.9254795 0.018867731 4.248149
v 2.2247455 0.63653946 3.3847997
v 1.7136223 0.76021934 3.9591572
v 1.6704954 0.24514747 4.062056
v 1.7019565 0.9769993 4.5825043
v 1.1494064 -0.14004397 4.6252823
v 1.1535783 0.52852035 4.988866
v 1.1828247 0.5254972 5.3801847
v 2.3849528 0.42577934 3.379248
v 1.6704954 0.24514747 4.062056
v 2.0963736 0.00922966 4.099984
v 2.2247455 0.63653946 3.3847997
v 2.3657024 1.4583439 2.776969
v 1.9226825 1.144172 2.8364701
v 2.278779 1.1425723 2.6718793
v 1.9947557 1.4059966 2.9236062
v 2.4411244 1.6319118 3.0391417
v 2.7081487 1.4084467 3.0086021
v 2.0477855 1.4322076 3.2684162
v 0.50865376 -0.612652 -0.10336506
v 0.8262447 -0.72373825 -0.020501167
v 0.9134066 -0.69286907 -0.15431082
v 1.2045364 -0.72355175 0.0022386312
v 1.420521 -0.5678866 -0.10091554
v 2.278779 1.1425723 2.6718793
v 1.9226825 1.144172 2.8364701
v 1.794584 0.8097615 3.1527672
v 2.124287 0.73925877 3.053347
v 0.9134066 -0.69286907 -0.15431082
v 0.45348266 -0.44849035 0.038318247
v 0.50865376 -0.612652 -0.10336506
v 1.1998072 -0.08309974 0.11427081
v 1.420521 -0.5678866 -0.10091554
v 0.609431 0.08496485 0.20509875
v 1.6076211 -0.34115583 0.038467333
v 0.73836905 0.66534954 0.45285243
v 1.0774928 0.6123319 0.4784118
v 0.81884193 -0.45997265 0.9516846
v 0.97581375 -0.34187335 0.72649777
v 0.45348266 -0.44849035 0.038318247
v 1.3457792 -0.7458278 1.96495
v 1.1957973 -0.018809594 0.8116383
v 0.8445531 -0.8982831 1.8950443
v 0.4408002 -0.7642052 1.882217
v 0.2814305 -0.5064098 2.3949876
v 1.0297348 -0.62094307 2.6568394
v 1.2529167 -0.51364756 2.640003
v 1.200694 -0.407066 2.9831765
v 0.81997985 -0.58525056 3.045343
v 0.8292738 -0.6743907 2.6391344
v 0.50865376 -0.612652 -0.10336506
v 0.45348266 -0.44849035 0.038318247
v 0.8262447 -0.72373825 -0.020501167
v 0.97581375 -0.34187335 0.72649777
v 1.2045364 -0.72355175 0.0022386312
v 1.6076211 -0.34115583 0.038467333
v 1.1957973 -0.018809594 0.8116383
v 1.420521 -0.5678866 -0.10091554
v 1.033116 0.19982672 2.0507479
v 0.5375688 0.9002554 2.2286117
v 0.30042437 0.0071071982 2.0344136
v 0.2515022 0.078222334 2.1211777
v 0.5262312 0.95119846 2.18454
v -0.0009825942 1.061996 2.581665
v 1.1221572 1.1424625 2.8037508
v 1.1666137 1.1960995 2.810462
v 0.5262312 0.95119846 2.18454
v 0.5375688 0.9002554 2.2286117
v -0.0011540279 1.0816715 4.0764346
v 0.00045929104 1.142018 4.082793
v 0.76388854 1.2222637 3.9375725
v 0.73868984 1.1494718 3.9672356
v 1.1078823 1.023565 3.962401
v 1.0446249 0.9838195 4.0002356
v 1.1990921 0.25727344 3.904434
v 1.1285882 0.24368593 3.9088278
v 0.82480335 -0.71955895 3.4837315
v 0.7686656 -0.6713318 3.4771795
v 2.921793E-05 -1.1863539 3.2565477
v 2.8004088E-05 -1.1217453 3.2702637
v 1.6532681 -0.5220046 4.6440926
v 1.1536796 -0.8722222 4.849398
v 1.7628193 -0.85978866 5.086229
v 1.1494064 -0.14004397 4.6252823
v 1.5314757 -0.09357858 4.266439
v 1.6704954 0.24514747 4.062056
v 1.9254795 0.018867731 4.248149
v 1.6704954 0.24514747 4.062056
v 1.9254795 0.018867731 4.248149
v 2.0963736 0.00922966 4.099984
v 2.528285 0.02980113 4.434833
v 2.4032903 0.0034022331 4.5823526
v 2.0320072 -0.07024479 5.04282
v 2.8593886 0.4892218 3.49632
v 2.3849528 0.42577934 3.379248
v 2.2896047 1.0332166 3.650138
v 1.7136223 0.76021934 3.9591572
v 2.2247455 0.63653946 3.3847997
v 1.7019565 0.9769993 4.5825043
v 1.2821366 0.1885274 3.233999
v 1.1666137 1.1960995 2.810462
v 1.1221572 1.1424625 2.8037508
v 1.3470328 0.18553656 3.2461324
v 0.81997985 -0.58525056 3.045343
v 0.8738394 -0.72346586 2.940404
v 0.2814305 -0.5064098 2.3949876
v 0.28290012 -0.933159 2.3844388
v 0.21705425 -0.48274097 2.3777342
v 0.1853744 -0.52084553 2.380864
v 9.542926E-06 -0.5631118 2.3726652
v 1.8452789E-05 -0.8888146 2.3691607
v -9.108577E-06 0.27342623 2.4090981
v 0.54742324 -0.91290915 5.354738
v 0.41962132 -1.1572111 6.058918
v 0.5092404 -0.74372876 6.148652
v 0.5299341 -1.0517069 5.2620482
v 0.5592787 -0.95579386 5.1233735
v 0.66598487 -1.5450641 5.085678
v 0.4953104 -1.3624858 6.096341
v 0.59670484 -1.4589145 5.2061777
v 0.47952652 -1.4526001 5.5551777
v 0.43683642 -1.6201704 5.773358
v 0.3744189 -1.6806015 6.0051026
v 0.5091716 -1.4559734 5.357096
v 0.22437398 -1.697613 5.498384
v 0.34203056 -1.7134566 5.317484
v 0.38575426 -1.7871354 5.1643453
v 0.38575426 -1.7871354 5.1643453
v 0.59670484 -1.4589145 5.2061777
v 0.66598487 -1.5450641 5.085678
v 0.3870614 -1.8577605 5.072164
v 0.0022163643 -1.8303864 5.1459603
v 0.0023431992 -1.9115006 5.0258813
v 0.0019268049 -1.7552049 5.351276
v 0.34203056 -1.7134566 5.317484
v 0.22437398 -1.697613 5.498384
v 0.66598487 -1.5450641 5.085678
v 0.001266383 -1.5367801 4.796261
v 0.3870614 -1.8577605 5.072164
v 0.2772505 -1.229243 4.9413023
v 0.5592787 -0.95579386 5.1233735
v -0.00041387603 -1.1030123 4.842082
v 0.27822134 -1.0244904 4.9829507
v 1.1078823 1.023565 3.962401
v 1.1666137 1.1960995 2.810462
v 1.3470328 0.18553656 3.2461324
v 1.1990921 0.25727344 3.904434
v 0.82480335 -0.71955895 3.4837315
v 0.8738394 -0.72346586 2.940404
v 0.79267126 -0.96278834 2.9695914
v 0.76064587 -1.0034342 2.4007206
v 0.76388854 1.2222637 3.9375725
v 1.1666137 1.1960995 2.810462
v 1.1078823 1.023565 3.962401
v 0.4766153 1.4290671 2.8052452
v 0.5262312 0.95119846 2.18454
v -0.0009825942 1.061996 2.581665
v -0.003453385 1.3756595 3.4617724
v 0.00045929104 1.142018 4.082793
v 0.82480335 -0.71955895 3.4837315
v 2.488765E-05 -1.2046092 2.5696094
v 2.921793E-05 -1.1863539 3.2565477
v 0.79267126 -0.96278834 2.9695914
v 0.63413554 -1.1497645 2.4488525
v 0.76064587 -1.0034342 2.4007206
v 2.3677727E-05 -1.1250579 2.18232
v 0.05220725 -0.9639957 1.8272879
v 1.7533359E-05 -0.965384 1.8088726
v 1.8452789E-05 -0.8888146 2.3691607
v 1.7533359E-05 -0.965384 1.8088726
v 0.05220725 -0.9639957 1.8272879
v 0.28290012 -0.933159 2.3844388
v 0.76064587 -1.0034342 2.4007206
v 0.8738394 -0.72346586 2.940404
v 1.9226825 1.144172 2.8364701
v 1.9947557 1.4059966 2.9236062
v 1.794584 0.8097615 3.1527672
v 2.023258 1.1666213 3.503364
v 2.0477855 1.4322076 3.2684162
v 2.124287 0.73925877 3.053347
v 1.794584 0.8097615 3.1527672
v 2.023258 1.1666213 3.503364
v 2.2896047 1.0332166 3.650138
v 0.00647285 -0.7768916 6.1400857
v 0.5092404 -0.74372876 6.148652
v 0.41962132 -1.1572111 6.058918
v -0.00067129405 -1.1231197 6.2270813
v 0.2736118 -1.4334806 6.2387824
v 0.00027241372 -1.5597297 6.2677155
v 0.4953104 -1.3624858 6.096341
v 0.0012248885 -1.7959726 6.0601964
v 0.3744189 -1.6806015 6.0051026
v -2.125934 -2.2022374 4.392072
v -2.2619617 -2.7411435 4.2400084
v -2.1482072 -2.4961567 4.374266
v -2.1178284 -2.4129353 4.4373546
v -2.1593423 -2.3862767 4.5355163
v -2.3986564 -1.7629731 4.4634624
v -2.2227972 -1.8678603 4.295566
v -2.2484312 -1.8533854 3.81484
v -1.1466582 0.4173398 4.578922
v -1.1252476 0.028714895 4.335187
v -0.8101648 0.6764851 4.764382
v -0.88029367 0.34142968 5.6905537
v -1.6511705 0.6182374 4.986434
v -1.4865031 0.43013096 5.4906263
v -1.6153673 0.38298059 4.1630626
v -1.6531806 -0.6517987 3.507011
v -0.3592416 0.6225921 5.588812
v 0.033063747 0.45139349 5.9483624
v 0.027497698 0.10721576 6.2879014
v 0.03569822 0.68645 5.5638733
v 0.013475426 1.1278571 4.669095
v -0.72884506 0.60765326 4.057259
v -1.033865 0.26190364 4.0336523
v -0.0011540279 1.0816715 4.0764346
v -2.1128702 -0.85506654 3.3747525
v -2.63325 -1.7336307 3.7022653
v -2.2484312 -1.8533854 3.81484
v -2.4399986 -0.31720543 3.572921
v -2.1331189 0.11931682 4.216713
v -1.9459763 0.28298426 5.1901007
v -2.5063725 -2.4844344 3.5727046
v -2.3743029 -2.6903815 3.6191266
v -2.6584098 -2.6012506 3.802185
v -1.9898527 -2.385482 3.6991158
v -1.9777596 -2.0453196 3.8014946
v -1.1702363 -0.7307616 5.2629952
v -0.96911186 -1.0402297 4.460676
v -1.1528 -0.6239618 4.6475744
v -0.92617893 -0.8430784 4.2740164
v -1.1282449 -0.4183095 3.8816512
v -0.76974106 -1.0645615 3.0013385
v -1.1252476 0.028714895 4.335187
v -1.033865 0.26190364 4.0336523
v -0.8101648 0.6764851 4.764382
v -0.60976076 1.1310402 0.37153685
v -0.5904549 1.1526852 1.0938667
v -0.7399162 1.6830484 0.6817921
v -0.45145336 0.61343884 0.16042927
v -0.81970316 0.52312636 1.0129471
v -0.26616976 0.6373963 1.506931
v -0.67866606 1.01602 2.0569243
v -0.44082937 -0.029706895 1.6357089
v -0.28715852 0.5078663 1.9515134
v -0.30037084 0.45604646 2.2328594
v -0.28141424 -0.39657393 2.265352
v -0.21703757 -0.37448356 2.2582905
v -0.25146332 0.42350492 2.3106427
v -9.108577E-06 0.27342623 2.4090981
v -0.0009825942 1.061996 2.581665
v -0.18535616 -0.416837 2.252099
v -0.50447303 -1.1065027 4.2176366
v -0.60424644 -1.257226 4.567118
v 0.00037882687 -1.0748326 4.3145046
v -0.96911186 -1.0402297 4.460676
v -1.1702363 -0.7307616 5.2629952
v -0.92617893 -0.8430784 4.2740164
v -0.76974106 -1.0645615 3.0013385
v -0.008280156 -1.0591507 4.024166
v 2.8004088E-05 -1.1217453 3.2702637
v -1.0789404 1.6269008 0.7013153
v -1.196428 0.9512688 0.9524298
v -1.6063073 0.71846604 0.16540703
v -1.0083556 1.201041 1.2781451
v -1.3279917 0.85793746 1.8476555
v -1.3457913 0.0099692345 1.7155106
v -1.3311971 0.18912238 2.492097
v -1.0330439 0.6286138 2.4286351
v -1.1179264 0.89327073 3.2089267
v -1.2819204 -0.28362048 3.20715
v -1.3259128 -0.11883193 2.3863614
v -1.2528754 -0.3281988 2.3104672
v -1.2006718 -0.50719553 2.646926
v -1.0330439 0.6286138 2.4286351
v -0.67866606 1.01602 2.0569243
v -0.30037084 0.45604646 2.2328594
v -1.3279917 0.85793746 1.8476555
v -1.0083556 1.201041 1.2781451
v -0.5904549 1.1526852 1.0938667
v -0.7399162 1.6830484 0.6817921
v -1.0789404 1.6269008 0.7013153
v -1.4865031 0.43013096 5.4906263
v -1.9459763 0.28298426 5.1901007
v -1.6511705 0.6182374 4.986434
v -1.6153673 0.38298059 4.1630626
v -0.22097565 -1.6985645 5.4977183
v 0.0021003955 -1.8815976 5.4631953
v 0.0019268049 -1.7552049 5.351276
v -0.22479756 -1.6634448 5.7865067
v 0.0012248885 -1.7959726 6.0601964
v -0.372324 -1.6823558 6.0038753
v -0.43447137 -1.6221128 5.771999
v -0.47752666 -1.4545131 5.553839
v -1.0171546 -0.34961456 5.8461494
v 0.01202959 -0.5971979 6.30102
v -0.509692 -0.58986557 6.147238
v -0.88029367 0.34142968 5.6905537
v 0.027497698 0.10721576 6.2879014
v -1.0171546 -0.34961456 5.8461494
v -1.4865031 0.43013096 5.4906263
v -0.88029367 0.34142968 5.6905537
v -1.9459763 0.28298426 5.1901007
v -1.7752424 -0.40605354 5.4282722
v -0.8785286 -0.636016 5.687581
v -0.509692 -0.58986557 6.147238
v -0.5482988 -0.8487556 5.384858
v -1.1702363 -0.7307616 5.2629952
v -0.56080365 -0.9011879 5.17392
v -0.60424644 -1.257226 4.567118
v -0.36002988 -0.98926944 4.8848166
v -0.27903992 -0.9980661 5.020738
v 0.00037882687 -1.0748326 4.3145046
v -0.00041387603 -1.1030123 4.842082
v -2.3986564 -1.7629731 4.4634624
v -2.5600047 -2.4883316 4.4288793
v -2.8627276 -1.7028797 4.309039
v -2.1593423 -2.3862767 4.5355163
v -2.1482072 -2.4961567 4.374266
v -2.2619617 -2.7411435 4.2400084
v -2.3210788 -2.8200917 3.9104877
v -2.587155 -2.8615727 3.9961867
v -2.5600047 -2.4883316 4.4288793
v -2.587155 -2.8615727 3.9961867
v -2.6584098 -2.6012506 3.802185
v -2.8627276 -1.7028797 4.309039
v -2.63325 -1.7336307 3.7022653
v -2.5063725 -2.4844344 3.5727046
v -2.7119398 -0.808995 3.7759073
v -2.5329447 -0.71276164 4.306839
v -2.4399986 -0.31720543 3.572921
v -2.4848258 -0.4417808 3.830682
v -2.4024866 -0.6056459 4.3859606
v -2.1331189 0.11931682 4.216713
v -2.0168107 -0.20979857 4.608925
v -1.9459763 0.28298426 5.1901007
v -1.7752424 -0.40605354 5.4282722
v -1.6691005 -0.72411835 5.0040956
v -1.9356487 -0.952399 4.376264
v -2.2227972 -1.8678603 4.295566
v -1.677941 -1.0810697 4.277321
v -1.6880102 -1.3847902 3.8876848
v -1.6531806 -0.6517987 3.507011
v -1.1528 -0.6239618 4.6475744
v -1.1252476 0.028714895 4.335187
v -1.1466582 0.4173398 4.578922
v -2.3986564 -1.7629731 4.4634624
v -2.1178253 -0.9492049 4.441676
v -1.677941 -1.0810697 4.277321
v -2.2227972 -1.8678603 4.295566
v -2.3210788 -2.8200917 3.9104877
v -2.2619617 -2.7411435 4.2400084
v -1.9014828 -2.5980814 4.180971
v -1.9505 -2.6635423 3.907747
v -2.3743029 -2.6903815 3.6191266
v -2.6584098 -2.6012506 3.802185
v -1.9898527 -2.385482 3.6991158
v -0.505756 0.46157342 0.0055129826
v -0.91012645 0.38450235 -0.052794516
v -0.8230323 0.34263355 0.07803631
v -1.2015471 0.34046018 0.09825972
v -1.4180462 0.50432074 0.008147836
v -2.2619617 -2.7411435 4.2400084
v -2.125934 -2.2022374 4.392072
v -1.7886937 -2.1512432 4.3070564
v -1.9014828 -2.5980814 4.180971
v -0.91012645 0.38450235 -0.052794516
v -0.505756 0.46157342 0.0055129826
v -0.45145336 0.61343884 0.16042927
v -1.1993717 0.96917915 0.26554066
v -1.4180462 0.50432074 0.008147836
v -0.60976076 1.1310402 0.37153685
v -1.6063073 0.71846604 0.16540703
v -0.7399162 1.6830484 0.6817921
v -1.0789404 1.6269008 0.7013153
v -0.81970316 0.52312636 1.0129471
v -0.45145336 0.61343884 0.16042927
v -0.9767365 0.6444433 0.82415175
v -1.3457913 0.0099692345 1.7155106
v -1.196428 0.9512688 0.9524298
v -0.8445882 -0.05546266 1.5527489
v -0.44082937 -0.029706895 1.6357089
v -0.28141424 -0.39657393 2.265352
v -1.0296868 -0.42944056 2.2560186
v -1.2528754 -0.3281988 2.3104672
v -1.2006718 -0.50719553 2.646926
v -0.8199522 -0.6925747 2.6423943
v -0.8292249 -0.48247665 2.2284594
v -0.505756 0.46157342 0.0055129826
v -0.8230323 0.34263355 0.07803631
v -0.45145336 0.61343884 0.16042927
v -0.9767365 0.6444433 0.82415175
v -1.2015471 0.34046018 0.09825972
v -1.6063073 0.71846604 0.16540703
v -1.196428 0.9512688 0.9524298
v -1.4180462 0.50432074 0.008147836
v -1.0330439 0.6286138 2.4286351
v -0.30037084 0.45604646 2.2328594
v -0.53757346 1.0318561 2.679537
v -0.25146332 0.42350492 2.3106427
v -0.52624553 1.0934355 2.6379006
v -0.0009825942 1.061996 2.581665
v -1.1179264 0.89327073 3.2089267
v -0.53757346 1.0318561 2.679537
v -0.52624553 1.0934355 2.6379006
v -1.1618998 0.93733346 3.221657
v -0.0011540279 1.0816715 4.0764346
v -0.75428516 0.6520013 4.092481
v 0.00045929104 1.142018 4.082793
v -0.72884506 0.60765326 4.057259
v -1.0981866 0.29879647 4.0590763
v -1.033865 0.26190364 4.0336523
v -1.1989144 -0.43432885 3.8821084
v -1.1282449 -0.4183095 3.8816512
v -0.8255936 -1.0983882 2.965998
v -0.76974106 -1.0645615 3.0013385
v 2.921793E-05 -1.1863539 3.2565477
v 2.8004088E-05 -1.1217453 3.2702637
v -1.6691005 -0.72411835 5.0040956
v -1.7752424 -0.40605354 5.4282722
v -1.1702363 -0.7307616 5.2629952
v -1.1528 -0.6239618 4.6475744
v -1.5475171 -0.94249415 4.496888
v -1.677941 -1.0810697 4.277321
v -1.9356487 -0.952399 4.376264
v -1.677941 -1.0810697 4.277321
v -2.1178253 -0.9492049 4.441676
v -1.9356487 -0.952399 4.376264
v -2.5329447 -0.71276164 4.306839
v -2.4024866 -0.6056459 4.3859606
v -2.0168107 -0.20979857 4.608925
v -2.8627276 -1.7028797 4.309039
v -2.3986564 -1.7629731 4.4634624
v -2.2484312 -1.8533854 3.81484
v -2.2227972 -1.8678603 4.295566
v -1.6880102 -1.3847902 3.8876848
v -1.6531806 -0.6517987 3.507011
v -1.2819204 -0.28362048 3.20715
v -1.1179264 0.89327073 3.2089267
v -1.1618998 0.93733346 3.221657
v -1.346849 -0.2993223 3.212184
v -0.8199522 -0.6925747 2.6423943
v -0.87380606 -0.7589339 2.5295045
v -0.28141424 -0.39657393 2.265352
v -0.2828656 -0.79374826 2.0997827
v -0.21703757 -0.37448356 2.2582905
v -0.18535616 -0.416837 2.252099
v 9.542926E-06 -0.5631118 2.3726652
v 1.8452789E-05 -0.8888146 2.3691607
v -9.108577E-06 0.27342623 2.4090981
v -0.5482988 -0.8487556 5.384858
v -0.509692 -0.58986557 6.147238
v -0.42115095 -1.1051209 6.080558
v -0.5304195 -1.0117338 5.294812
v -0.56080365 -0.9011879 5.17392
v -0.66379404 -1.5398208 5.105624
v -0.49517477 -1.3646362 6.094836
v -0.5941018 -1.4589964 5.2086835
v -0.47752666 -1.4545131 5.553839
v -0.43447137 -1.6221128 5.771999
v -0.372324 -1.6823558 6.0038753
v -0.5069032 -1.4557166 5.35882
v -0.22097565 -1.6985645 5.4977183
v -0.33822855 -1.7148373 5.3165183
v -0.38140824 -1.788625 5.163303
v -0.38140824 -1.788625 5.163303
v -0.66379404 -1.5398208 5.105624
v -0.5941018 -1.4589964 5.2086835
v -0.38247183 -1.8591715 5.071177
v 0.0022163643 -1.8303864 5.1459603
v 0.0023431992 -1.9115006 5.0258813
v 0.0019268049 -1.7552049 5.351276
v -0.33822855 -1.7148373 5.3165183
v -0.22097565 -1.6985645 5.4977183
v -0.66379404 -1.5398208 5.105624
v -0.38247183 -1.8591715 5.071177
v 0.001266383 -1.5367801 4.796261
v -0.2777201 -1.2091639 4.9852705
v -0.56080365 -0.9011879 5.17392
v -0.00041387603 -1.1030123 4.842082
v -0.27903992 -0.9980661 5.020738
v -1.0981866 0.29879647 4.0590763
v -1.346849 -0.2993223 3.212184
v -1.1618998 0.93733346 3.221657
v -1.1989144 -0.43432885 3.8821084
v -0.8255936 -1.0983882 2.965998
v -0.87380606 -0.7589339 2.5295045
v -0.792631 -0.9993248 2.4792795
v -0.76060146 -0.8285625 2.031565
v -0.75428516 0.6520013 4.092481
v -1.0981866 0.29879647 4.0590763
v -1.1618998 0.93733346 3.221657
v -0.47232148 1.2140703 3.3206213
v -0.52624553 1.0934355 2.6379006
v -0.0009825942 1.061996 2.581665
v -0.003453385 1.3756595 3.4617724
v 0.00045929104 1.142018 4.082793
v -0.8255936 -1.0983882 2.965998
v 2.921793E-05 -1.1863539 3.2565477
v 2.488765E-05 -1.2046092 2.5696094
v -0.792631 -0.9993248 2.4792795
v -0.63408774 -0.9932233 2.028017
v -0.76060146 -0.8285625 2.031565
v 2.3677727E-05 -1.1250579 2.18232
v -0.05216356 -0.66696656 1.5627902
v 1.7533359E-05 -0.965384 1.8088726
v 1.8452789E-05 -0.8888146 2.3691607
v -0.05216356 -0.66696656 1.5627902
v 1.7533359E-05 -0.965384 1.8088726
v -0.2828656 -0.79374826 2.0997827
v -0.76060146 -0.8285625 2.031565
v -0.87380606 -0.7589339 2.5295045
v -1.9014828 -2.5980814 4.180971
v -1.7886937 -2.1512432 4.3070564
v -1.9505 -2.6635423 3.907747
v -1.9777596 -2.0453196 3.8014946
v -1.9898527 -2.385482 3.6991158
v -2.125934 -2.2022374 4.392072
v -2.2484312 -1.8533854 3.81484
v -1.9777596 -2.0453196 3.8014946
v -1.7886937 -2.1512432 4.3070564
v 0.00647285 -0.7768916 6.1400857
v -0.42115095 -1.1051209 6.080558
v -0.509692 -0.58986557 6.147238
v -0.00067129405 -1.1231197 6.2270813
v -0.27347103 -1.4347539 6.2378917
v 0.00027241372 -1.5597297 6.2677155
v -0.49517477 -1.3646362 6.094836
v 0.0012248885 -1.7959726 6.0601964
v -0.372324 -1.6823558 6.0038753
vt 0.76092815 0.8767158
vt 0.7174094 0.91054726
vt 0.76092815 0.95057213
vt 0.38543808 0.96915483
vt 0.38543808 0.8693485
vt 0.32501337 0.9344189
vt 0.40212393 0.7568116
vt 0.42906108 0.79320693
vt 0.42906108 0.6946838
vt 0.64721847 0.83391285
vt 0.6187177 0.852685
vt 0.64721847 0.8863988
vt 0.40864563 0.8004855
vt 0.40212417 0.8554132
vt 0.4314282 0.8554132
vt 0.8731629 0.288234
vt 0.85169375 0.31012797
vt 0.8731629 0.33410096
vt 0.76092815 0.8767158
vt 0.76092815 0.95057213
vt 0.7174094 0.91054726
vt 0.38543808 0.96915483
vt 0.32501337 0.9344189
vt 0.38543808 0.8693485
vt 0.40212393 0.7568116
vt 0.42906108 0.6946838
vt 0.42906108 0.79320693
vt 0.64721847 0.83391285
vt 0.64721847 0.8863988
vt 0.6187177 0.852685
vt 0.40864563 0.8004855
vt 0.4314282 0.8554132
vt 0.40212417 0.8554132
vt 0.8731629 0.288234
vt 0.8731629 0.33410096
vt 0.85169375 0.31012797
vt 0.93716276 0.87058735
vt 0.95343685 0.89970946
vt 0.9799932 0.91859293
vt 0.9427136 0.89419115
vt 0.93181825 0.89648974
vt 0.911044 0.8307359
vt 0.9316137 0.83232665
vt 0.9799932 0.80742836
vt 0.10851145 0.33349717
vt 0.13080215 0.36262
vt 0.1400299 0.3113687
vt 0.035931587 0.41149533
vt 0.024571896 0.32702982
vt 0.0050616264 0.3596238
vt 0.08769798 0.28441465
vt 0.17019081 0.20653963
vt 0.08456516 0.4494164
vt 0.083266735 0.49250197
vt 0.042717457 0.51571035
vt 0.13373709 0.4635235
vt 0.21156597 0.41879463
vt 0.21291876 0.3210987
vt 0.19684744 0.2890222
vt 0.25440502 0.39410865
vt 0.13946295 0.16356409
vt 0.15124083 0.07156634
vt 0.19101858 0.09412408
vt 0.07759905 0.16957974
vt 0.05247307 0.23621142
vt 0.0036392212 0.30024278
vt 0.2229681 0.026929379
vt 0.25050545 0.022252083
vt 0.22280836 0.003639102
vt 0.25440502 0.07686579
vt 0.22743464 0.10261488
vt 0.45856917 0.6098685
vt 0.5120082 0.5537622
vt 0.43986475 0.5376189
vt 0.46678388 0.51993704
vt 0.5374718 0.47976518
vt 0.45610917 0.3930211
vt 0.59933805 0.57066965
vt 0.62368786 0.5123229
vt 0.6481185 0.6098685
vt 0.3537655 0.6874056
vt 0.42488575 0.6800592
vt 0.38486463 0.61382914
vt 0.2900216 0.68542314
vt 0.31718183 0.60575175
vt 0.3473574 0.54210377
vt 0.40935624 0.5075567
vt 0.2854784 0.5194292
vt 0.35032767 0.4909482
vt 0.35219908 0.45871925
vt 0.26393032 0.45060992
vt 0.26645523 0.44946337
vt 0.35109514 0.4470091
vt 0.34671634 0.4100144
vt 0.4248857 0.36387968
vt 0.26168346 0.44962025
vt 0.8411019 0.7899053
vt 0.7838191 0.78166175
vt 0.83817935 0.8318331
vt 0.89320564 0.81448936
vt 0.9037658 0.86935806
vt 0.9019189 0.7845733
vt 0.9037658 0.6827538
vt 0.7884561 0.7465446
vt 0.81633425 0.6499436
vt 0.43258637 0.032122433
vt 0.31396526 0.0036391318
vt 0.37069082 0.083407134
vt 0.4106114 0.110140175
vt 0.3962828 0.1806409
vt 0.2999698 0.19097976
vt 0.33613086 0.27186844
vt 0.38626117 0.26024532
vt 0.43258643 0.35557207
vt 0.2993983 0.3566014
vt 0.29970932 0.26645625
vt 0.2754557 0.26274022
vt 0.26168334 0.30305636
vt 0.16784751 0.7458852
vt 0.25242734 0.74616045
vt 0.21857738 0.7013248
vt 0.15136826 0.6648097
vt 0.20250392 0.599566
vt 0.25242734 0.59194356
vt 0.24932039 0.52717614
vt 0.21102023 0.5229885
vt 0.39318585 0.8693485
vt 0.3927164 0.9197998
vt 0.42848969 0.88240623
vt 0.42848969 0.9918647
vt 0.83725333 0.6245022
vt 0.8650172 0.6323495
vt 0.8650451 0.6158414
vt 0.83196056 0.59984875
vt 0.8545023 0.56402636
vt 0.8123895 0.57854414
vt 0.80810034 0.60399294
vt 0.8041513 0.6323495
vt 0.843976 0.89337015
vt 0.8063984 0.87663627
vt 0.7838192 0.8929435
vt 0.843976 0.9753927
vt 0.7871585 0.9748901
vt 0.6933649 0.052872658
vt 0.72706753 0.015985489
vt 0.6669389 0.0036392212
vt 0.6074452 0.014723778
vt 0.59009033 0.09092951
vt 0.6934568 0.09343052
vt 0.74957585 0.05772066
vt 0.7141083 0.138731
vt 0.63362813 0.15272665
vt 0.70400053 0.16181803
vt 0.66698974 0.2426033
vt 0.7129891 0.20186234
vt 0.72678816 0.19093657
vt 0.7296377 0.2760334
vt 0.7495758 0.22005558
vt 0.55891633 0.9662305
vt 0.61143947 0.9757911
vt 0.5922339 0.9015738
vt 0.5442295 0.9060155
vt 0.54845953 0.88612115
vt 0.56860304 0.8587924
vt 0.58318543 0.83391297
vt 0.61143947 0.8425299
vt 0.58281195 0.34121418
vt 0.51290727 0.3570695
vt 0.53652984 0.38574266
vt 0.5640419 0.2506776
vt 0.49579954 0.26056576
vt 0.48622772 0.3470602
vt 0.49326953 0.16512108
vt 0.54634494 0.1373272
vt 0.43986475 0.1499219
vt 0.47888508 0.13418627
vt 0.53810287 0.12372589
vt 0.45689094 0.08685875
vt 0.5121323 0.08250618
vt 0.49097848 0.0036392212
vt 0.57778907 0.02139616
vt 0.58281195 0.084019184
vt 0.56546235 0.15651321
vt 0.7765409 0.6499436
vt 0.7361802 0.69964933
vt 0.77622354 0.7437546
vt 0.67653656 0.7371383
vt 0.77654094 0.8337269
vt 0.6879344 0.8361132
vt 0.6553969 0.86943746
vt 0.70291305 0.8868731
vt 0.65539694 0.971077
vt 0.71013117 0.971077
vt 0.67677927 0.8767158
vt 0.8090407 0.32149696
vt 0.84102654 0.36681628
vt 0.84441555 0.3240695
vt 0.8116953 0.36468315
vt 0.7733887 0.3215344
vt 0.7866004 0.288234
vt 0.7821007 0.36681628
vt 0.14011115 0.8014283
vt 0.12317091 0.8358741
vt 0.1353504 0.8443204
vt 0.12005818 0.878158
vt 0.14011115 0.9034114
vt 0.9476197 0.92587113
vt 0.9110441 0.9448347
vt 0.9110441 0.99636084
vt 0.9476197 0.98801386
vt 0.87031114 0.39302105
vt 0.9275825 0.415932
vt 0.9168987 0.39369053
vt 0.856012 0.4729281
vt 0.8182663 0.42019266
vt 0.9253888 0.4796664
vt 0.8041513 0.45412713
vt 0.9275825 0.55208296
vt 0.8889886 0.5567482
vt 0.8193766 0.21626759
vt 0.8036128 0.23882651
vt 0.873227 0.2804551
vt 0.75685394 0.12812448
vt 0.773309 0.25874615
vt 0.8158251 0.13588381
vt 0.85866606 0.13524365
vt 0.873227 0.06848431
vt 0.791224 0.053290367
vt 0.7641256 0.055696964
vt 0.7682109 0.015006065
vt 0.8140278 0.0036392212
vt 0.81470394 0.053386927
vt 0.5175346 0.97618496
vt 0.5369512 0.9629216
vt 0.4913391 0.9509202
vt 0.5369512 0.8692274
vt 0.45981216 0.9219352
vt 0.44022834 0.8757967
vt 0.53517056 0.83391285
vt 0.43986475 0.90867615
vt 0.5900903 0.28797352
vt 0.62745833 0.35935897
vt 0.6769434 0.28331167
vt 0.68067384 0.28600973
vt 0.62803996 0.36523026
vt 0.68067384 0.38036174
vt 0.6286705 0.7095578
vt 0.6337411 0.7133043
vt 0.6337411 0.6171466
vt 0.6284676 0.62174
vt 0.14408994 0.5304086
vt 0.14407027 0.52298856
vt 0.0575552 0.5249157
vt 0.060165763 0.5318036
vt 0.017217755 0.5475795
vt 0.024039268 0.5512183
vt 0.003639102 0.62869143
vt 0.011310577 0.6288619
vt 0.050047874 0.75683355
vt 0.05604267 0.75208044
vt 0.14408994 0.7941501
vt 0.14408052 0.7870438
vt 0.94373345 0.29501605
vt 0.89322567 0.34452772
vt 0.9636524 0.34466767
vt 0.8805053 0.26835656
vt 0.92145467 0.23793936
vt 0.93056273 0.19030094
vt 0.9636524 0.2190423
vt 0.15136838 0.8828293
vt 0.18459916 0.8790581
vt 0.18772888 0.8523823
vt 0.249897 0.8515595
vt 0.24964237 0.87351906
vt 0.249897 0.9400712
vt 0.22085428 0.7534387
vt 0.17005515 0.7760277
vt 0.9802589 0.48951614
vt 0.93486077 0.43969166
vt 0.9363083 0.52018106
vt 0.9802589 0.393021
vt 0.6138434 0.7517505
vt 0.6211893 0.6171466
vt 0.6151098 0.6220794
vt 0.6211893 0.7543088
vt 0.5424597 0.81211025
vt 0.5444716 0.8262756
vt 0.48040593 0.77715325
vt 0.47013938 0.8266345
vt 0.47360125 0.7733006
vt 0.46921778 0.7773157
vt 0.44773105 0.77827287
vt 0.43986472 0.8160236
vt 0.46746588 0.6835647
vt 0.030359745 0.847517
vt 0.112780094 0.868281
vt 0.112780094 0.8014283
vt 0.022153854 0.86572623
vt 0.0068712234 0.8606516
vt 0.0036392212 0.9245527
vt 0.111730576 0.8989171
vt 0.014655113 0.9122443
vt 0.053132057 0.90880775
vt 0.07515764 0.92811567
vt 0.09974432 0.9358761
vt 0.032277107 0.9102699
vt 0.04845476 0.93554854
vt 0.028409481 0.9385146
vt 0.012401581 0.948142
vt 0.88494706 0.9226029
vt 0.8577864 0.9509256
vt 0.87466 0.9560555
vt 0.8970885 0.9206567
vt 0.882169 0.87921387
vt 0.8970885 0.87663627
vt 0.86154366 0.8830234
vt 0.86712503 0.92085326
vt 0.8512542 0.9104985
vt 0.7661104 0.35277665
vt 0.68795204 0.34717986
vt 0.7285374 0.3803617
vt 0.72703123 0.3177069
vt 0.7661104 0.28823394
vt 0.69608253 0.30455917
vt 0.73109645 0.29639655
vt 0.67792726 0.64156044
vt 0.7968731 0.64266527
vt 0.72660685 0.52130425
vt 0.6553967 0.5478516
vt 0.68288445 0.42728168
vt 0.7479801 0.43047652
vt 0.7372756 0.40265682
vt 0.7968731 0.393021
vt 0.3081553 0.86096895
vt 0.26168334 0.75789654
vt 0.26812422 0.85728633
vt 0.34041262 0.7695457
vt 0.33541918 0.6946839
vt 0.3948456 0.73062575
vt 0.3948456 0.8140665
vt 0.39473712 0.86206996
vt 0.8805054 0.0036392212
vt 0.9801983 0.08590722
vt 0.9801983 0.00670743
vt 0.8874839 0.057162046
vt 0.9081686 0.10700607
vt 0.8906271 0.11667371
vt 0.9782284 0.13529897
vt 0.96848243 0.18069983
vt 0.97430557 0.18302274
vt 0.9110441 0.76331913
vt 0.9639616 0.8001498
vt 0.9656298 0.79412675
vt 0.930436 0.7378639
vt 0.9656298 0.69657063
vt 0.9209312 0.6499436
vt 0.93157876 0.5800752
vt 0.90383935 0.5640264
vt 0.93157876 0.6334191
vt 0.8727588 0.6273424
vt 0.8723235 0.58724254
vt 0.9388571 0.63908076
vt 0.9780266 0.63908076
vt 0.96788716 0.5860343
vt 0.94412255 0.5640266
vt 0.31773514 0.8753247
vt 0.26274544 0.8693483
vt 0.2708798 0.92137074
vt 0.3170637 0.90850973
vt 0.2861817 0.94313264
vt 0.3168773 0.9501102
vt 0.26168346 0.9447961
vt 0.31773514 0.987437
vt 0.27583432 0.9821174
vt 0.93716276 0.87058735
vt 0.9799932 0.91859293
vt 0.95343685 0.89970946
vt 0.9427136 0.89419115
vt 0.93181825 0.89648974
vt 0.911044 0.8307359
vt 0.9316137 0.83232665
vt 0.9799932 0.80742836
vt 0.10851145 0.33349717
vt 0.1400299 0.3113687
vt 0.13080215 0.36262
vt 0.035931587 0.41149533
vt 0.024571896 0.32702982
vt 0.0050616264 0.3596238
vt 0.08769798 0.28441465
vt 0.17019081 0.20653963
vt 0.08456516 0.4494164
vt 0.083266735 0.49250197
vt 0.042717457 0.51571035
vt 0.13373709 0.4635235
vt 0.21156597 0.41879463
vt 0.21291876 0.3210987
vt 0.19684744 0.2890222
vt 0.25440502 0.39410865
vt 0.13946295 0.16356409
vt 0.15124083 0.07156634
vt 0.19101858 0.09412408
vt 0.07759905 0.16957974
vt 0.05247307 0.23621142
vt 0.0036392212 0.30024278
vt 0.2229681 0.026929379
vt 0.25050545 0.022252083
vt 0.22280836 0.003639102
vt 0.25440502 0.07686579
vt 0.22743464 0.10261488
vt 0.45856917 0.6098685
vt 0.43986475 0.5376189
vt 0.5120082 0.5537622
vt 0.46678388 0.51993704
vt 0.5374718 0.47976518
vt 0.45610917 0.3930211
vt 0.59933805 0.57066965
vt 0.62368786 0.5123229
vt 0.6481185 0.6098685
vt 0.3537655 0.6874056
vt 0.38486463 0.61382914
vt 0.42488575 0.6800592
vt 0.2900216 0.68542314
vt 0.31718183 0.60575175
vt 0.3473574 0.54210377
vt 0.40935624 0.5075567
vt 0.2854784 0.5194292
vt 0.35032767 0.4909482
vt 0.35219908 0.45871925
vt 0.26393032 0.45060992
vt 0.26645523 0.44946337
vt 0.35109514 0.4470091
vt 0.34671634 0.4100144
vt 0.4248857 0.36387968
vt 0.26168346 0.44962025
vt 0.8411019 0.7899053
vt 0.83817935 0.8318331
vt 0.7838191 0.78166175
vt 0.89320564 0.81448936
vt 0.9037658 0.86935806
vt 0.9019189 0.7845733
vt 0.9037658 0.6827538
vt 0.7884561 0.7465446
vt 0.81633425 0.6499436
vt 0.43258637 0.032122433
vt 0.37069082 0.083407134
vt 0.31396526 0.0036391318
vt 0.4106114 0.110140175
vt 0.3962828 0.1806409
vt 0.2999698 0.19097976
vt 0.33613086 0.27186844
vt 0.38626117 0.26024532
vt 0.43258643 0.35557207
vt 0.2993983 0.3566014
vt 0.29970932 0.26645625
vt 0.2754557 0.26274022
vt 0.26168334 0.30305636
vt 0.16784751 0.7458852
vt 0.21857738 0.7013248
vt 0.25242734 0.74616045
vt 0.15136826 0.6648097
vt 0.20250392 0.599566
vt 0.25242734 0.59194356
vt 0.24932039 0.52717614
vt 0.21102023 0.5229885
vt 0.39318585 0.8693485
vt 0.42848969 0.88240623
vt 0.3927164 0.9197998
vt 0.42848969 0.9918647
vt 0.83725333 0.6245022
vt 0.8650451 0.6158414
vt 0.8650172 0.6323495
vt 0.83196056 0.59984875
vt 0.8545023 0.56402636
vt 0.8123895 0.57854414
vt 0.80810034 0.60399294
vt 0.8041513 0.6323495
vt 0.843976 0.89337015
vt 0.7838192 0.8929435
vt 0.8063984 0.87663627
vt 0.843976 0.9753927
vt 0.7871585 0.9748901
vt 0.6933649 0.052872658
vt 0.6669389 0.0036392212
vt 0.72706753 0.015985489
vt 0.6074452 0.014723778
vt 0.59009033 0.09092951
vt 0.6934568 0.09343052
vt 0.74957585 0.05772066
vt 0.7141083 0.138731
vt 0.63362813 0.15272665
vt 0.70400053 0.16181803
vt 0.66698974 0.2426033
vt 0.7129891 0.20186234
vt 0.72678816 0.19093657
vt 0.7296377 0.2760334
vt 0.7495758 0.22005558
vt 0.55891633 0.9662305
vt 0.5922339 0.9015738
vt 0.61143947 0.9757911
vt 0.5442295 0.9060155
vt 0.54845953 0.88612115
vt 0.56860304 0.8587924
vt 0.58318543 0.83391297
vt 0.61143947 0.8425299
vt 0.58281195 0.34121418
vt 0.53652984 0.38574266
vt 0.51290727 0.3570695
vt 0.5640419 0.2506776
vt 0.49579954 0.26056576
vt 0.48622772 0.3470602
vt 0.49326953 0.16512108
vt 0.54634494 0.1373272
vt 0.43986475 0.1499219
vt 0.47888508 0.13418627
vt 0.53810287 0.12372589
vt 0.45689094 0.08685875
vt 0.5121323 0.08250618
vt 0.49097848 0.0036392212
vt 0.57778907 0.02139616
vt 0.58281195 0.084019184
vt 0.56546235 0.15651321
vt 0.7765409 0.6499436
vt 0.77622354 0.7437546
vt 0.7361802 0.69964933
vt 0.67653656 0.7371383
vt 0.77654094 0.8337269
vt 0.6879344 0.8361132
vt 0.6553969 0.86943746
vt 0.70291305 0.8868731
vt 0.71013117 0.971077
vt 0.65539694 0.971077
vt 0.67677927 0.8767158
vt 0.8090407 0.32149696
vt 0.84441555 0.3240695
vt 0.84102654 0.36681628
vt 0.8116953 0.36468315
vt 0.7733887 0.3215344
vt 0.7866004 0.288234
vt 0.7821007 0.36681628
vt 0.14011115 0.8014283
vt 0.1353504 0.8443204
vt 0.12317091 0.8358741
vt 0.12005818 0.878158
vt 0.14011115 0.9034114
vt 0.9476197 0.92587113
vt 0.9476197 0.98801386
vt 0.9110441 0.99636084
vt 0.9110441 0.9448347
vt 0.87031114 0.39302105
vt 0.9168987 0.39369053
vt 0.9275825 0.415932
vt 0.856012 0.4729281
vt 0.8182663 0.42019266
vt 0.9253888 0.4796664
vt 0.8041513 0.45412713
vt 0.9275825 0.55208296
vt 0.8889886 0.5567482
vt 0.8193766 0.21626759
vt 0.873227 0.2804551
vt 0.8036128 0.23882651
vt 0.75685394 0.12812448
vt 0.773309 0.25874615
vt 0.8158251 0.13588381
vt 0.85866606 0.13524365
vt 0.873227 0.06848431
vt 0.791224 0.053290367
vt 0.7641256 0.055696964
vt 0.7682109 0.015006065
vt 0.8140278 0.0036392212
vt 0.81470394 0.053386927
vt 0.5175346 0.97618496
vt 0.4913391 0.9509202
vt 0.5369512 0.9629216
vt 0.5369512 0.8692274
vt 0.45981216 0.9219352
vt 0.44022834 0.8757967
vt 0.53517056 0.83391285
vt 0.43986475 0.90867615
vt 0.5900903 0.28797352
vt 0.6769434 0.28331167
vt 0.62745833 0.35935897
vt 0.68067384 0.28600973
vt 0.62803996 0.36523026
vt 0.68067384 0.38036174
vt 0.6286705 0.7095578
vt 0.6284676 0.62174
vt 0.6337411 0.6171466
vt 0.6337411 0.7133043
vt 0.14408994 0.5304086
vt 0.0575552 0.5249157
vt 0.14407027 0.52298856
vt 0.060165763 0.5318036
vt 0.017217755 0.5475795
vt 0.024039268 0.5512183
vt 0.003639102 0.62869143
vt 0.011310577 0.6288619
vt 0.050047874 0.75683355
vt 0.05604267 0.75208044
vt 0.14408994 0.7941501
vt 0.14408052 0.7870438
vt 0.94373345 0.29501605
vt 0.9636524 0.34466767
vt 0.89322567 0.34452772
vt 0.8805053 0.26835656
vt 0.92145467 0.23793936
vt 0.93056273 0.19030094
vt 0.9636524 0.2190423
vt 0.15136838 0.8828293
vt 0.18772888 0.8523823
vt 0.18459916 0.8790581
vt 0.249897 0.8515595
vt 0.24964237 0.87351906
vt 0.249897 0.9400712
vt 0.22085428 0.7534387
vt 0.17005515 0.7760277
vt 0.9802589 0.48951614
vt 0.9363083 0.52018106
vt 0.93486077 0.43969166
vt 0.9802589 0.393021
vt 0.6138434 0.7517505
vt 0.6151098 0.6220794
vt 0.6211893 0.6171466
vt 0.6211893 0.7543088
vt 0.5424597 0.81211025
vt 0.5444716 0.8262756
vt 0.48040593 0.77715325
vt 0.47013938 0.8266345
vt 0.47360125 0.7733006
vt 0.46921778 0.7773157
vt 0.44773105 0.77827287
vt 0.43986472 0.8160236
vt 0.46746588 0.6835647
vt 0.030359745 0.847517
vt 0.112780094 0.8014283
vt 0.112780094 0.868281
vt 0.022153854 0.86572623
vt 0.0068712234 0.8606516
vt 0.0036392212 0.9245527
vt 0.111730576 0.8989171
vt 0.014655113 0.9122443
vt 0.053132057 0.90880775
vt 0.07515764 0.92811567
vt 0.09974432 0.9358761
vt 0.032277107 0.9102699
vt 0.04845476 0.93554854
vt 0.028409481 0.9385146
vt 0.012401581 0.948142
vt 0.88494706 0.9226029
vt 0.87466 0.9560555
vt 0.8577864 0.9509256
vt 0.8970885 0.9206567
vt 0.882169 0.87921387
vt 0.8970885 0.87663627
vt 0.86154366 0.8830234
vt 0.86712503 0.92085326
vt 0.8512542 0.9104985
vt 0.7661104 0.35277665
vt 0.7285374 0.3803617
vt 0.68795204 0.34717986
vt 0.72703123 0.3177069
vt 0.7661104 0.28823394
vt 0.69608253 0.30455917
vt 0.73109645 0.29639655
vt 0.67792726 0.64156044
vt 0.72660685 0.52130425
vt 0.7968731 0.64266527
vt 0.6553967 0.5478516
vt 0.68288445 0.42728168
vt 0.7479801 0.43047652
vt 0.7372756 0.40265682
vt 0.7968731 0.393021
vt 0.3081553 0.86096895
vt 0.26812422 0.85728633
vt 0.26168334 0.75789654
vt 0.34041262 0.7695457
vt 0.33541918 0.6946839
vt 0.3948456 0.73062575
vt 0.3948456 0.8140665
vt 0.39473712 0.86206996
vt 0.8805054 0.0036392212
vt 0.9801983 0.00670743
vt 0.9801983 0.08590722
vt 0.8874839 0.057162046
vt 0.9081686 0.10700607
vt 0.8906271 0.11667371
vt 0.9782284 0.13529897
vt 0.96848243 0.18069983
vt 0.97430557 0.18302274
vt 0.9110441 0.76331913
vt 0.9656298 0.79412675
vt 0.9639616 0.8001498
vt 0.930436 0.7378639
vt 0.9656298 0.69657063
vt 0.9209312 0.6499436
vt 0.93157876 0.5800752
vt 0.93157876 0.6334191
vt 0.90383935 0.5640264
vt 0.8727588 0.6273424
vt 0.8723235 0.58724254
vt 0.9388571 0.63908076
vt 0.94412255 0.5640266
vt 0.96788716 0.5860343
vt 0.9780266 0.63908076
vt 0.31773514 0.8753247
vt 0.2708798 0.92137074
vt 0.26274544 0.8693483
vt 0.3170637 0.90850973
vt 0.2861817 0.94313264
vt 0.3168773 0.9501102
vt 0.26168346 0.9447961
vt 0.31773514 0.987437
vt 0.27583432 0.9821174
vn -0.0028507113 -0.9404116 0.11812076
vn 0.00015761727 -0.9533291 0.18386123
vn 0.29592615 -0.851629 -0.3140685
vn 0.52921546 0.6667512 -0.48100275
vn 0.5786011 -0.22502452 -0.7242081
vn 0.26880836 0.023278356 -0.93316203
vn 0.68451864 -0.5225701 0.4974144
vn 0.45929638 -0.4918153 -0.7145116
vn 0.60433376 -0.08231823 -0.73929703
vn 0.0008035923 -0.023049876 -0.978569
vn 0.0018590713 -0.9665476 -0.18605058
vn 0.4674475 -0.8589744 -0.14631067
vn 0.51111126 -0.15802455 0.81691456
vn 0.0038499113 -0.31332323 0.9238155
vn 0.0070415772 -0.19578448 0.95725954
vn -0.08241089 0.6909561 -0.71818364
vn 0.5902374 0.39156526 -0.70590127
vn 0.8781272 0.4392339 -0.18964803
vn -0.0028507113 -0.9404116 0.11812076
vn -0.3005822 -0.877343 -0.27129543
vn 0.00015761727 -0.9533291 0.18386123
vn -0.52916706 0.8373845 0.11193432
vn -0.2687916 0.42638004 -0.84485126
vn -0.5788541 0.07310044 -0.78229547
vn -0.6844883 -0.7245225 -0.001286447
vn -0.6038149 0.33239567 -0.6933279
vn -0.45924518 0.035012186 -0.87681013
vn 0.0008035923 -0.023049876 -0.978569
vn -0.46403065 -0.8606822 -0.14750546
vn 0.0018590713 -0.9665476 -0.18605058
vn -0.5120134 -0.07333085 0.8229388
vn 0.0070415772 -0.19578448 0.95725954
vn 0.0038499113 -0.31332323 0.9238155
vn 0.110689074 -0.97396064 -0.19785827
vn -0.8480372 -0.40380895 -0.34317803
vn -0.58198416 -0.8131734 -0.0065668225
vn -0.7889081 -0.6140144 -0.024705186
vn -0.8178312 0.31514293 -0.48149467
vn -0.24741252 -0.05101365 -0.96756613
vn -0.96685064 0.08861691 -0.23947273
vn -0.5042088 -0.563792 -0.6541496
vn -0.14952771 -0.8448173 -0.51373595
vn -0.9305252 -0.2395833 -0.2769891
vn -0.51373357 0.7997992 0.31048143
vn 0.13342908 0.8716916 0.3208039
vn 0.43682867 0.79579383 0.26668933
vn 0.19390415 0.8600833 -0.26541606
vn 0.31683445 0.42663544 0.7977098
vn 0.49222398 0.46354714 0.7077768
vn 0.42020154 -0.12875062 0.8484394
vn 0.11022506 0.73930997 0.65312016
vn -0.56207496 0.82560486 -0.019414365
vn 0.27443704 0.77965295 0.49211636
vn 0.019141406 0.76168334 0.5942527
vn 0.016239941 0.34238857 0.90664494
vn 0.020151494 0.9116628 0.3218497
vn 0.014136108 0.9202456 0.012155294
vn 0.26082057 0.45240682 0.72468305
vn 0.5347242 0.19380297 0.6907945
vn 0.026652846 0.61152786 0.67069185
vn 0.06542814 0.97548854 0.20197198
vn 0.6394404 0.7207325 0.26769444
vn -0.51373357 0.7997992 0.31048143
vn 0.65146685 0.508378 0.56103516
vn 0.7510107 -0.022151649 0.65831333
vn 0.85442823 -0.262308 0.4250539
vn 0.31399727 0.84883 0.42531508
vn 0.07765875 0.9958025 -0.048436105
vn 0.8781272 0.4392339 -0.18964803
vn -0.58418673 0.71858454 0.37730873
vn -0.5551585 0.17254132 0.8136513
vn 0.3183494 -0.8315098 -0.38552624
vn 0.3385805 -0.18559566 -0.8716563
vn 0.6579594 -0.47238642 -0.51705015
vn 0.7873314 -0.38570213 -0.40251994
vn 0.6217044 -0.36193845 0.5606573
vn 0.21355832 -0.4599507 0.7924522
vn 0.19390415 0.8600833 -0.26541606
vn 0.5347242 0.19380297 0.6907945
vn 0.43682867 0.79579383 0.26668933
vn -0.6251866 0.4143681 -0.6613254
vn -0.41313577 0.87753797 -0.24269578
vn -0.87324905 0.4764393 0.102078944
vn -0.8468566 -0.28330258 -0.45007667
vn -0.4103063 -0.80995536 -0.37650454
vn -0.95852715 0.054356825 -0.2603635
vn -0.25917217 0.8739981 -0.0012311898
vn -0.6735077 -0.7019998 -0.025734663
vn -0.98148465 0.17226681 -0.05159222
vn -0.75806767 0.16381127 -0.60743004
vn -0.20368521 -0.43286127 -0.8485866
vn -0.461184 -0.142314 -0.8522605
vn -0.5590897 -0.10968377 -0.79367507
vn -6.328097E-06 0.025395572 -0.97342247
vn 2.7288916E-05 0.66898096 -0.6979906
vn -0.14176375 0.0019640774 -0.9646037
vn 0.29592615 -0.851629 -0.3140685
vn 0.00015761727 -0.9533291 0.18386123
vn 0.11072995 -0.9684107 -0.07482794
vn 0.6579594 -0.47238642 -0.51705015
vn 0.3183494 -0.8315098 -0.38552624
vn 0.7873314 -0.38570213 -0.40251994
vn 0.21355832 -0.4599507 0.7924522
vn -0.0028507113 -0.9404116 0.11812076
vn 1.6716005E-05 -0.6108775 0.7365651
vn 0.52572066 0.8336288 -0.16824767
vn 0.94735324 -0.03516166 -0.31820872
vn 0.9904309 0.05430755 0.12687466
vn 0.38619158 0.8984629 0.20885423
vn 0.80883676 0.5508675 0.076957315
vn 0.803185 -0.56524265 0.06390339
vn 0.98166573 0.16990902 -0.08431728
vn 0.52921546 0.6667512 -0.48100275
vn 0.5786011 -0.22502452 -0.7242081
vn 0.60433376 -0.08231823 -0.73929703
vn 0.98426086 -0.120420486 0.12893431
vn 0.75792605 -0.5787472 0.2940483
vn 0.68451864 -0.5225701 0.4974144
vn 0.52921546 0.6667512 -0.48100275
vn -0.75806767 0.16381127 -0.60743004
vn -0.25917217 0.8739981 -0.0012311898
vn 0.80883676 0.5508675 0.076957315
vn 0.38619158 0.8984629 0.20885423
vn -0.87324905 0.4764393 0.102078944
vn -0.41313577 0.87753797 -0.24269578
vn 0.52572066 0.8336288 -0.16824767
vn 0.42020154 -0.12875062 0.8484394
vn 0.49222398 0.46354714 0.7077768
vn 0.85442823 -0.262308 0.4250539
vn 0.11022506 0.73930997 0.65312016
vn 0.5353168 -0.8373229 0.050458625
vn 0.0020319358 -0.98850846 -0.05749214
vn 0.0024598986 -0.9293592 -0.3477532
vn 0.4723744 -0.87452143 -0.10223338
vn 0.0014670382 -0.91180134 0.4106284
vn 0.57395613 -0.7736017 0.26854128
vn 0.7428762 -0.6597239 -0.09633122
vn 0.9173438 -0.38943404 0.058356345
vn 0.42711973 -0.40457073 0.7573469
vn 0.51111126 -0.15802455 0.81691456
vn 0.0070415772 -0.19578448 0.95725954
vn 0.31683445 0.42663544 0.7977098
vn 0.016239941 0.34238857 0.90664494
vn 0.42711973 -0.40457073 0.7573469
vn 0.31683445 0.42663544 0.7977098
vn 0.42020154 -0.12875062 0.8484394
vn 0.85442823 -0.262308 0.4250539
vn 0.61907357 -0.7518741 -0.20166656
vn 0.22394809 -0.8924559 0.28224608
vn 0.51111126 -0.15802455 0.81691456
vn 0.7019188 -0.65181714 0.21597451
vn 0.3183494 -0.8315098 -0.38552624
vn 0.5944754 -0.7665072 0.12737206
vn 0.11072995 -0.9684107 -0.07482794
vn -0.07218232 -0.93404067 0.27773184
vn 0.4988611 -0.57538086 -0.6165043
vn 0.00015761727 -0.9533291 0.18386123
vn -0.00387342 -0.7345359 -0.64716136
vn -0.14952771 -0.8448173 -0.51373595
vn 0.86139256 -0.44830608 -0.23879802
vn 0.46280828 -0.42784792 -0.7763725
vn -0.5042088 -0.563792 -0.6541496
vn -0.8178312 0.31514293 -0.48149467
vn -0.24741252 -0.05101365 -0.96756613
vn -0.08241089 0.6909561 -0.71818364
vn 0.5902374 0.39156526 -0.70590127
vn 0.46280828 -0.42784792 -0.7763725
vn 0.8781272 0.4392339 -0.18964803
vn 0.5902374 0.39156526 -0.70590127
vn 0.86139256 -0.44830608 -0.23879802
vn 0.6394404 0.7207325 0.26769444
vn 0.31399727 0.84883 0.42531508
vn 0.95340765 -0.06300154 0.29445088
vn 0.58898044 -0.8016288 0.09144971
vn 0.65146685 0.508378 0.56103516
vn 0.79904056 -0.29214057 0.52419025
vn 0.45869306 -0.861192 0.21425256
vn 0.7510107 -0.022151649 0.65831333
vn 0.844467 -0.535375 -0.007240385
vn 0.85442823 -0.262308 0.4250539
vn 0.61907357 -0.7518741 -0.20166656
vn 0.3624882 -0.60630834 -0.7078077
vn 0.069349565 -0.8797028 -0.46911666
vn -0.9305252 -0.2395833 -0.2769891
vn -0.8393176 0.34434274 -0.4200307
vn -0.691467 -0.27472365 -0.6671075
vn -0.56207496 0.82560486 -0.019414365
vn 0.3385805 -0.18559566 -0.8716563
vn 0.19390415 0.8600833 -0.26541606
vn 0.13342908 0.8716916 0.3208039
vn -0.14952771 -0.8448173 -0.51373595
vn -0.691467 -0.27472365 -0.6671075
vn -0.06987406 -0.9410331 -0.32855406
vn -0.9305252 -0.2395833 -0.2769891
vn -0.08241089 0.6909561 -0.71818364
vn -0.7431282 -0.007216722 -0.66910994
vn -0.24741252 -0.05101365 -0.96756613
vn -0.697878 0.6178132 -0.36231598
vn 0.07765875 0.9958025 -0.048436105
vn 0.8781272 0.4392339 -0.18964803
vn -0.58418673 0.71858454 0.37730873
vn -0.8028722 -0.2851022 -0.5235583
vn -0.24262471 -0.96297026 0.11756995
vn -0.064224966 -0.43243414 -0.8993745
vn 0.27396223 -0.9609538 0.038172573
vn 0.62179166 -0.37180883 -0.6892548
vn -0.24741252 -0.05101365 -0.96756613
vn -0.7431282 -0.007216722 -0.66910994
vn -0.86095095 -0.50444293 0.0655811
vn -0.7889081 -0.6140144 -0.024705186
vn -0.064224966 -0.43243414 -0.8993745
vn -0.8468566 -0.28330258 -0.45007667
vn -0.8028722 -0.2851022 -0.5235583
vn 0.047127087 0.44026053 -0.89657366
vn 0.62179166 -0.37180883 -0.6892548
vn -0.6251866 0.4143681 -0.6613254
vn 0.94735324 -0.03516166 -0.31820872
vn -0.41313577 0.87753797 -0.24269578
vn 0.52572066 0.8336288 -0.16824767
vn -0.4103063 -0.80995536 -0.37650454
vn 0.45961142 -0.8875321 0.030666351
vn -0.8468566 -0.28330258 -0.45007667
vn 0.803185 -0.56524265 0.06390339
vn 0.9904309 0.05430755 0.12687466
vn 0.03216923 -0.9495323 0.098308295
vn -0.6735077 -0.7019998 -0.025734663
vn -0.20368521 -0.43286127 -0.8485866
vn 0.3660313 -0.87993973 0.27700523
vn 0.75792605 -0.5787472 0.2940483
vn 0.68451864 -0.5225701 0.4974144
vn 0.45929638 -0.4918153 -0.7145116
vn 0.020027947 -0.9619377 0.21361662
vn -0.8028722 -0.2851022 -0.5235583
vn -0.8468566 -0.28330258 -0.45007667
vn -0.24262471 -0.96297026 0.11756995
vn 0.45961142 -0.8875321 0.030666351
vn 0.27396223 -0.9609538 0.038172573
vn 0.94735324 -0.03516166 -0.31820872
vn 0.9904309 0.05430755 0.12687466
vn 0.62179166 -0.37180883 -0.6892548
vn 0.52921546 0.6667512 -0.48100275
vn 0.26880836 0.023278356 -0.93316203
vn -0.75806767 0.16381127 -0.60743004
vn -0.5590897 -0.10968377 -0.79367507
vn -0.079266466 0.3190443 -0.91229445
vn 2.7288916E-05 0.66898096 -0.6979906
vn 0.5786011 -0.22502452 -0.7242081
vn 0.76831484 0.39401525 -0.45573354
vn -0.079266466 0.3190443 -0.91229445
vn 0.26880836 0.023278356 -0.93316203
vn 0.026652846 0.61152786 0.67069185
vn 0.024720348 0.25612777 0.87036675
vn 0.22190903 0.48359334 0.7159952
vn 0.26082057 0.45240682 0.72468305
vn 0.5852263 0.24798644 0.650001
vn 0.5347242 0.19380297 0.6907945
vn 0.58316463 -0.24165179 0.6542078
vn 0.6217044 -0.36193845 0.5606573
vn 0.5008299 -0.5694032 0.5850181
vn 0.21355832 -0.4599507 0.7924522
vn 2.0089708E-05 -0.80329573 0.5219313
vn 1.6716005E-05 -0.6108775 0.7365651
vn 0.3624882 -0.60630834 -0.7078077
vn 0.3183494 -0.8315098 -0.38552624
vn 0.61907357 -0.7518741 -0.20166656
vn 0.3385805 -0.18559566 -0.8716563
vn -0.3243294 -0.49229443 -0.80641824
vn -0.691467 -0.27472365 -0.6671075
vn 0.069349565 -0.8797028 -0.46911666
vn -0.691467 -0.27472365 -0.6671075
vn 0.069349565 -0.8797028 -0.46911666
vn -0.06987406 -0.9410331 -0.32855406
vn 0.58898044 -0.8016288 0.09144971
vn 0.45869306 -0.861192 0.21425256
vn 0.844467 -0.535375 -0.007240385
vn 0.86139256 -0.44830608 -0.23879802
vn -0.14952771 -0.8448173 -0.51373595
vn -0.51373357 0.7997992 0.31048143
vn -0.8393176 0.34434274 -0.4200307
vn -0.9305252 -0.2395833 -0.2769891
vn -0.56207496 0.82560486 -0.019414365
vn 0.60433376 -0.08231823 -0.73929703
vn 0.76831484 0.39401525 -0.45573354
vn 0.5786011 -0.22502452 -0.7242081
vn 0.89019054 -0.16538182 -0.3844501
vn 0.45929638 -0.4918153 -0.7145116
vn 0.88712656 -0.06372979 -0.44194523
vn -0.20368521 -0.43286127 -0.8485866
vn 0.2699935 0.6947612 -0.62461746
vn -0.461184 -0.142314 -0.8522605
vn -0.14176375 0.0019640774 -0.9646037
vn -5.938662E-06 0.047241166 -0.9737093
vn -1.890066E-05 0.606405 -0.75826955
vn -6.328097E-06 0.025395572 -0.97342247
vn 0.7019188 -0.65181714 0.21597451
vn 0.7279274 0.032391727 0.66778326
vn 0.51111126 -0.15802455 0.81691456
vn 0.97499096 -0.024732422 0.20578595
vn 0.5944754 -0.7665072 0.12737206
vn 0.9250741 -0.28916395 -0.22969723
vn 0.84848803 -0.11312912 0.5137734
vn 0.83349246 -0.17643669 0.51391447
vn 0.9173438 -0.38943404 0.058356345
vn 0.7428762 -0.6597239 -0.09633122
vn 0.57395613 -0.7736017 0.26854128
vn 0.86233115 -0.32968327 0.37380308
vn 0.5353168 -0.8373229 0.050458625
vn 0.4814261 -0.7497719 0.43705752
vn 0.3650486 -0.6529265 0.64789116
vn 0.3650486 -0.6529265 0.64789116
vn 0.83349246 -0.17643669 0.51391447
vn 0.9250741 -0.28916395 -0.22969723
vn 0.4674475 -0.8589744 -0.14631067
vn 0.00061767676 -0.8081416 0.5666168
vn 0.0018590713 -0.9665476 -0.18605058
vn 0.0020319358 -0.98850846 -0.05749214
vn 0.4814261 -0.7497719 0.43705752
vn 0.5353168 -0.8373229 0.050458625
vn 0.9250741 -0.28916395 -0.22969723
vn 0.0008035923 -0.023049876 -0.978569
vn 0.4674475 -0.8589744 -0.14631067
vn 0.3576484 0.28154683 -0.8645274
vn 0.5944754 -0.7665072 0.12737206
vn -0.00387342 -0.7345359 -0.64716136
vn 0.4988611 -0.57538086 -0.6165043
vn 0.5852263 0.24798644 0.650001
vn 0.76831484 0.39401525 -0.45573354
vn 0.89019054 -0.16538182 -0.3844501
vn 0.58316463 -0.24165179 0.6542078
vn 0.5008299 -0.5694032 0.5850181
vn 0.88712656 -0.06372979 -0.44194523
vn 0.7069483 -0.66941696 0.11463107
vn 0.821257 0.112420455 -0.53861356
vn 0.22190903 0.48359334 0.7159952
vn 0.76831484 0.39401525 -0.45573354
vn 0.5852263 0.24798644 0.650001
vn 0.032963008 0.89259076 -0.2795274
vn -0.079266466 0.3190443 -0.91229445
vn 2.7288916E-05 0.66898096 -0.6979906
vn 0.012856487 0.9123383 0.1657283
vn 0.024720348 0.25612777 0.87036675
vn 0.5008299 -0.5694032 0.5850181
vn 2.0440792E-05 -0.9654937 -0.020519786
vn 2.0089708E-05 -0.80329573 0.5219313
vn 0.7069483 -0.66941696 0.11463107
vn 0.44623315 -0.8431016 -0.17848852
vn 0.821257 0.112420455 -0.53861356
vn 1.9796158E-05 -0.90678895 -0.33045524
vn 0.45334542 0.12892121 -0.85250026
vn -7.3339384E-06 0.08215967 -0.9637609
vn -1.890066E-05 0.606405 -0.75826955
vn -7.3339384E-06 0.08215967 -0.9637609
vn 0.45334542 0.12892121 -0.85250026
vn 0.2699935 0.6947612 -0.62461746
vn 0.821257 0.112420455 -0.53861356
vn 0.88712656 -0.06372979 -0.44194523
vn -0.7431282 -0.007216722 -0.66910994
vn -0.697878 0.6178132 -0.36231598
vn -0.86095095 -0.50444293 0.0655811
vn -0.5551585 0.17254132 0.8136513
vn -0.58418673 0.71858454 0.37730873
vn -0.7889081 -0.6140144 -0.024705186
vn -0.86095095 -0.50444293 0.0655811
vn -0.5551585 0.17254132 0.8136513
vn -0.51373357 0.7997992 0.31048143
vn 0.0038499113 -0.31332323 0.9238155
vn 0.51111126 -0.15802455 0.81691456
vn 0.7279274 0.032391727 0.66778326
vn -0.0015778455 0.057745844 0.98558736
vn 0.37539288 -0.20703715 0.9027228
vn -0.0005866101 -0.3983341 0.91411984
vn 0.84848803 -0.11312912 0.5137734
vn 0.0014670382 -0.91180134 0.4106284
vn 0.57395613 -0.7736017 0.26854128
vn 0.738692 0.31334597 0.59678173
vn 0.21040733 -0.7910056 0.5744895
vn 0.82290184 -0.5655001 0.05515366
vn 0.9622623 -0.23851341 0.13100593
vn 0.43779796 -0.25069794 0.8634138
vn 0.06766246 0.012889512 0.99762493
vn 0.8998645 -0.097129576 0.4252172
vn 0.5831083 -0.15359682 -0.7977424
vn -0.09879503 0.7840267 -0.4658682
vn -0.1669113 0.26382977 -0.82723564
vn -0.41988382 0.8062334 -0.06103099
vn -0.31047213 0.6248176 0.6234826
vn -0.45910245 0.82892853 -0.05945295
vn -0.40999117 0.5279963 0.6506124
vn -0.06024359 0.7805216 -0.5019032
vn 0.60287803 -0.06546435 -0.7186534
vn -0.26751795 0.8362071 0.3373025
vn 0.019141406 0.76168334 0.5942527
vn 0.016239941 0.34238857 0.90664494
vn 0.020151494 0.9116628 0.3218497
vn 0.014136108 0.9202456 0.012155294
vn -0.25694656 0.3787947 0.83007574
vn -0.5331267 0.119912736 0.781889
vn 0.026652846 0.61152786 0.67069185
vn 0.002341248 -0.06336695 -0.9017817
vn -0.5735228 -0.16185325 -0.80304116
vn 0.5831083 -0.15359682 -0.7977424
vn -0.6026659 0.4772912 -0.52953434
vn -0.72739387 0.63652897 0.083069324
vn -0.851002 0.31015688 0.39557353
vn -0.23420887 -0.09200159 -0.96782327
vn -0.0033175498 -0.56890464 -0.82239693
vn -0.8480372 -0.40380895 -0.34317803
vn 0.6493746 -0.053082436 -0.7586141
vn 0.59349734 0.6057078 -0.5299801
vn -0.35344768 -0.74332386 0.4679469
vn -0.6673168 -0.59880984 -0.3501016
vn -0.36950094 -0.8398549 -0.22063264
vn -0.7940682 -0.47743905 -0.31230682
vn -0.62709826 -0.46491438 0.581396
vn -0.2146013 -0.8362437 0.4681555
vn -0.1669113 0.26382977 -0.82723564
vn -0.5331267 0.119912736 0.781889
vn -0.41988382 0.8062334 -0.06103099
vn 0.6245296 0.47554985 -0.6195152
vn 0.87373054 0.45690173 0.1668268
vn 0.4119297 0.9003166 -0.14031962
vn 0.848537 -0.2404223 -0.47136098
vn 0.4090357 -0.74431634 -0.5265318
vn 0.9583825 0.13532132 -0.25049308
vn 0.25985414 0.84664506 0.45656872
vn 0.673388 -0.55481106 -0.4789928
vn 0.9815293 0.1766566 0.06987176
vn 0.75808674 0.52052426 -0.3815797
vn 0.2037068 -0.1622248 -0.9496186
vn 0.46120116 0.111357726 -0.86636055
vn 0.5591013 0.3779591 -0.72522986
vn -6.328097E-06 0.025395572 -0.97342247
vn 2.7288916E-05 0.66898096 -0.6979906
vn 0.1417802 0.2776801 -0.9344654
vn -0.3005822 -0.877343 -0.27129543
vn -0.11681034 -0.94248754 0.07891509
vn 0.00015761727 -0.9533291 0.18386123
vn -0.6673168 -0.59880984 -0.3501016
vn -0.35344768 -0.74332386 0.4679469
vn -0.7940682 -0.47743905 -0.31230682
vn -0.2146013 -0.8362437 0.4681555
vn -0.0028507113 -0.9404116 0.11812076
vn 1.6716005E-05 -0.6108775 0.7365651
vn -0.52682614 0.84697855 -0.070985794
vn -0.9902295 0.036487978 0.13458794
vn -0.9468746 -0.009067163 -0.32147
vn -0.38496652 0.85953754 0.33614764
vn -0.8081768 0.5417958 0.22747797
vn -0.803276 -0.47519985 -0.35720903
vn -0.98167527 0.17727157 0.06962841
vn -0.52916706 0.8373845 0.11193432
vn -0.5788541 0.07310044 -0.78229547
vn -0.6038149 0.33239567 -0.6933279
vn -0.98425287 -0.17656595 -0.0026972108
vn -0.7578828 -0.6133516 -0.21665294
vn -0.6844883 -0.7245225 -0.001286447
vn -0.52916706 0.8373845 0.11193432
vn 0.25985414 0.84664506 0.45656872
vn 0.75808674 0.52052426 -0.3815797
vn -0.8081768 0.5417958 0.22747797
vn -0.38496652 0.85953754 0.33614764
vn 0.87373054 0.45690173 0.1668268
vn 0.4119297 0.9003166 -0.14031962
vn -0.52682614 0.84697855 -0.070985794
vn -0.40999117 0.5279963 0.6506124
vn -0.851002 0.31015688 0.39557353
vn -0.45910245 0.82892853 -0.05945295
vn -0.06024359 0.7805216 -0.5019032
vn -0.5319604 -0.83960307 0.048863232
vn 0.0024598986 -0.9293592 -0.3477532
vn 0.0020319358 -0.98850846 -0.05749214
vn -0.46798608 -0.8767025 -0.1037592
vn 0.0014670382 -0.91180134 0.4106284
vn -0.57119495 -0.7762918 0.26665917
vn -0.739644 -0.6630292 -0.0986436
vn -0.9160072 -0.39309838 0.055792578
vn -0.43002737 -0.19695988 0.82836354
vn 0.0070415772 -0.19578448 0.95725954
vn -0.5120134 -0.07333085 0.8229388
vn -0.31047213 0.6248176 0.6234826
vn 0.016239941 0.34238857 0.90664494
vn -0.43002737 -0.19695988 0.82836354
vn -0.40999117 0.5279963 0.6506124
vn -0.31047213 0.6248176 0.6234826
vn -0.851002 0.31015688 0.39557353
vn -0.65247047 -0.3934194 0.63342756
vn -0.23201719 -0.7689644 0.49477303
vn -0.5120134 -0.07333085 0.8229388
vn -0.70432514 -0.6279929 0.2831663
vn -0.35344768 -0.74332386 0.4679469
vn -0.5982047 -0.73862064 0.22863686
vn -0.11681034 -0.94248754 0.07891509
vn 0.06899789 -0.88505995 0.36662745
vn -0.5003106 -0.6220528 -0.5583192
vn 0.00015761727 -0.9533291 0.18386123
vn -0.00387342 -0.7345359 -0.64716136
vn 0.06766246 0.012889512 0.99762493
vn -0.51962763 -0.43789047 0.7336479
vn -0.9004602 0.024286687 0.43426013
vn 0.43779796 -0.25069794 0.8634138
vn 0.82290184 -0.5655001 0.05515366
vn 0.21040733 -0.7910056 0.5744895
vn 0.110689074 -0.97396064 -0.19785827
vn -0.58198416 -0.8131734 -0.0065668225
vn -0.51962763 -0.43789047 0.7336479
vn -0.58198416 -0.8131734 -0.0065668225
vn -0.8480372 -0.40380895 -0.34317803
vn -0.9004602 0.024286687 0.43426013
vn -0.5735228 -0.16185325 -0.80304116
vn -0.23420887 -0.09200159 -0.96782327
vn -0.9445274 0.27510363 -0.11431463
vn -0.6301021 0.21006602 0.6630138
vn -0.6026659 0.4772912 -0.52953434
vn -0.7955562 0.524583 0.11438647
vn -0.4908232 0.17223951 0.7847532
vn -0.72739387 0.63652897 0.083069324
vn -0.86484313 -0.0741114 0.48495057
vn -0.851002 0.31015688 0.39557353
vn -0.65247047 -0.3934194 0.63342756
vn -0.40998378 -0.8147419 0.41001043
vn -0.12234561 -0.586853 0.7566767
vn 0.8998645 -0.097129576 0.4252172
vn 0.64738417 -0.4648 0.538991
vn 0.846561 -0.4993116 -0.055699334
vn 0.60287803 -0.06546435 -0.7186534
vn -0.36950094 -0.8398549 -0.22063264
vn -0.1669113 0.26382977 -0.82723564
vn -0.09879503 0.7840267 -0.4658682
vn 0.06766246 0.012889512 0.99762493
vn -0.008458085 0.12331997 0.94654894
vn 0.64738417 -0.4648 0.538991
vn 0.8998645 -0.097129576 0.4252172
vn 0.110689074 -0.97396064 -0.19785827
vn 0.21040733 -0.7910056 0.5744895
vn 0.71769685 -0.5550198 0.4205519
vn 0.7303432 -0.62595755 -0.27345124
vn -0.0033175498 -0.56890464 -0.82239693
vn -0.8480372 -0.40380895 -0.34317803
vn 0.6493746 -0.053082436 -0.7586141
vn 0.8046875 -0.2363298 -0.5446339
vn 0.06713439 -0.35374305 -0.9329299
vn 0.24616039 -0.9685875 0.03525603
vn -0.2704792 -0.9615972 -0.046510577
vn -0.6195886 -0.31158888 -0.7204259
vn 0.21040733 -0.7910056 0.5744895
vn 0.738692 0.31334597 0.59678173
vn 0.82182574 0.33283854 0.46240786
vn 0.71769685 -0.5550198 0.4205519
vn 0.06713439 -0.35374305 -0.9329299
vn 0.8046875 -0.2363298 -0.5446339
vn 0.848537 -0.2404223 -0.47136098
vn -0.04759653 0.5182138 -0.8539167
vn -0.6195886 -0.31158888 -0.7204259
vn 0.6245296 0.47554985 -0.6195152
vn -0.9468746 -0.009067163 -0.32147
vn 0.4119297 0.9003166 -0.14031962
vn -0.52682614 0.84697855 -0.070985794
vn 0.4090357 -0.74431634 -0.5265318
vn 0.848537 -0.2404223 -0.47136098
vn -0.46016955 -0.88302284 -0.09218478
vn -0.803276 -0.47519985 -0.35720903
vn -0.9902295 0.036487978 0.13458794
vn -0.03232137 -0.7914536 -0.6072976
vn 0.673388 -0.55481106 -0.4789928
vn 0.2037068 -0.1622248 -0.9496186
vn -0.36596543 -0.82442355 -0.4212186
vn -0.7578828 -0.6133516 -0.21665294
vn -0.6844883 -0.7245225 -0.001286447
vn -0.45924518 0.035012186 -0.87681013
vn -0.019959979 -0.8681365 -0.47834122
vn 0.8046875 -0.2363298 -0.5446339
vn 0.24616039 -0.9685875 0.03525603
vn 0.848537 -0.2404223 -0.47136098
vn -0.46016955 -0.88302284 -0.09218478
vn -0.2704792 -0.9615972 -0.046510577
vn -0.9468746 -0.009067163 -0.32147
vn -0.9902295 0.036487978 0.13458794
vn -0.6195886 -0.31158888 -0.7204259
vn -0.52916706 0.8373845 0.11193432
vn 0.75808674 0.52052426 -0.3815797
vn -0.2687916 0.42638004 -0.84485126
vn 0.5591013 0.3779591 -0.72522986
vn 0.07927529 0.6752804 -0.7095927
vn 2.7288916E-05 0.66898096 -0.6979906
vn -0.5788541 0.07310044 -0.78229547
vn -0.2687916 0.42638004 -0.84485126
vn 0.07927529 0.6752804 -0.7095927
vn -0.7666355 0.5475485 -0.2759701
vn 0.026652846 0.61152786 0.67069185
vn -0.21826737 0.37083793 0.8458883
vn 0.024720348 0.25612777 0.87036675
vn -0.25694656 0.3787947 0.83007574
vn -0.5835847 0.12883423 0.7521883
vn -0.5331267 0.119912736 0.781889
vn -0.5871185 -0.38791096 0.6684782
vn -0.62709826 -0.46491438 0.581396
vn -0.50161666 -0.8268212 0.20278841
vn -0.2146013 -0.8362437 0.4681555
vn 2.0089708E-05 -0.80329573 0.5219313
vn 1.6716005E-05 -0.6108775 0.7365651
vn -0.40998378 -0.8147419 0.41001043
vn -0.65247047 -0.3934194 0.63342756
vn -0.35344768 -0.74332386 0.4679469
vn -0.36950094 -0.8398549 -0.22063264
vn 0.27259964 -0.80727166 0.39651954
vn 0.64738417 -0.4648 0.538991
vn -0.12234561 -0.586853 0.7566767
vn 0.64738417 -0.4648 0.538991
vn -0.008458085 0.12331997 0.94654894
vn -0.12234561 -0.586853 0.7566767
vn -0.6301021 0.21006602 0.6630138
vn -0.4908232 0.17223951 0.7847532
vn -0.86484313 -0.0741114 0.48495057
vn -0.9004602 0.024286687 0.43426013
vn 0.06766246 0.012889512 0.99762493
vn 0.5831083 -0.15359682 -0.7977424
vn 0.8998645 -0.097129576 0.4252172
vn 0.846561 -0.4993116 -0.055699334
vn 0.60287803 -0.06546435 -0.7186534
vn -0.6038149 0.33239567 -0.6933279
vn -0.5788541 0.07310044 -0.78229547
vn -0.7666355 0.5475485 -0.2759701
vn -0.89066553 0.03614875 -0.43053132
vn -0.45924518 0.035012186 -0.87681013
vn -0.88711154 0.18211754 -0.41664279
vn 0.2037068 -0.1622248 -0.9496186
vn -0.2700038 0.87141407 -0.37056237
vn 0.46120116 0.111357726 -0.86636055
vn 0.1417802 0.2776801 -0.9344654
vn -5.938662E-06 0.047241166 -0.9737093
vn -1.890066E-05 0.606405 -0.75826955
vn -6.328097E-06 0.025395572 -0.97342247
vn -0.70432514 -0.6279929 0.2831663
vn -0.5120134 -0.07333085 0.8229388
vn -0.7299591 0.052592263 0.6682488
vn -0.9756806 -0.021125581 0.21117619
vn -0.5982047 -0.73862064 0.22863686
vn -0.9239528 -0.3004954 -0.22354524
vn -0.84963006 -0.11681579 0.51119405
vn -0.83442414 -0.17764972 0.5131279
vn -0.9160072 -0.39309838 0.055792578
vn -0.739644 -0.6630292 -0.0986436
vn -0.57119495 -0.7762918 0.26665917
vn -0.86232644 -0.3320638 0.37310994
vn -0.5319604 -0.83960307 0.048863232
vn -0.4798186 -0.7517227 0.43569273
vn -0.36456507 -0.6543433 0.64690006
vn -0.36456507 -0.6543433 0.64690006
vn -0.9239528 -0.3004954 -0.22354524
vn -0.83442414 -0.17764972 0.5131279
vn -0.46403065 -0.8606822 -0.14750546
vn 0.00061767676 -0.8081416 0.5666168
vn 0.0018590713 -0.9665476 -0.18605058
vn 0.0020319358 -0.98850846 -0.05749214
vn -0.4798186 -0.7517227 0.43569273
vn -0.5319604 -0.83960307 0.048863232
vn -0.9239528 -0.3004954 -0.22354524
vn -0.46403065 -0.8606822 -0.14750546
vn 0.0008035923 -0.023049876 -0.978569
vn -0.35646945 0.21681872 -0.8744326
vn -0.5982047 -0.73862064 0.22863686
vn -0.00387342 -0.7345359 -0.64716136
vn -0.5003106 -0.6220528 -0.5583192
vn -0.5835847 0.12883423 0.7521883
vn -0.89066553 0.03614875 -0.43053132
vn -0.7666355 0.5475485 -0.2759701
vn -0.5871185 -0.38791096 0.6684782
vn -0.50161666 -0.8268212 0.20278841
vn -0.88711154 0.18211754 -0.41664279
vn -0.7069179 -0.6601191 -0.2202863
vn -0.8212493 0.31619805 -0.46298867
vn -0.21826737 0.37083793 0.8458883
vn -0.5835847 0.12883423 0.7521883
vn -0.7666355 0.5475485 -0.2759701
vn -0.030314712 0.9663459 0.08898127
vn 0.07927529 0.6752804 -0.7095927
vn 2.7288916E-05 0.66898096 -0.6979906
vn 0.012856487 0.9123383 0.1657283
vn 0.024720348 0.25612777 0.87036675
vn -0.50161666 -0.8268212 0.20278841
vn 2.0089708E-05 -0.80329573 0.5219313
vn 2.0440792E-05 -0.9654937 -0.020519786
vn -0.7069179 -0.6601191 -0.2202863
vn -0.44619763 -0.73031217 -0.4896905
vn -0.8212493 0.31619805 -0.46298867
vn 1.9796158E-05 -0.90678895 -0.33045524
vn -0.4533332 0.38655996 -0.7864773
vn -7.3339384E-06 0.08215967 -0.9637609
vn -1.890066E-05 0.606405 -0.75826955
vn -0.4533332 0.38655996 -0.7864773
vn -7.3339384E-06 0.08215967 -0.9637609
vn -0.2700038 0.87141407 -0.37056237
vn -0.8212493 0.31619805 -0.46298867
vn -0.88711154 0.18211754 -0.41664279
vn 0.71769685 -0.5550198 0.4205519
vn 0.82182574 0.33283854 0.46240786
vn 0.7303432 -0.62595755 -0.27345124
vn 0.59349734 0.6057078 -0.5299801
vn 0.6493746 -0.053082436 -0.7586141
vn 0.738692 0.31334597 0.59678173
vn 0.5831083 -0.15359682 -0.7977424
vn 0.59349734 0.6057078 -0.5299801
vn 0.82182574 0.33283854 0.46240786
vn 0.0038499113 -0.31332323 0.9238155
vn -0.7299591 0.052592263 0.6682488
vn -0.5120134 -0.07333085 0.8229388
vn -0.0015778455 0.057745844 0.98558736
vn -0.37738252 -0.20878914 0.90149707
vn -0.0005866101 -0.3983341 0.91411984
vn -0.84963006 -0.11681579 0.51119405
vn 0.0014670382 -0.91180134 0.4106284
vn -0.57119495 -0.7762918 0.26665917
g 0.1833_0
f 3/3/3 2/2/2 1/1/1
f 6/6/6 5/5/5 4/4/4
f 9/9/9 8/8/8 7/7/7
f 12/12/12 11/11/11 10/10/10
f 15/15/15 14/14/14 13/13/13
f 18/18/18 17/17/17 16/16/16
f 21/21/21 20/20/20 19/19/19
f 24/24/24 23/23/23 22/22/22
f 27/27/27 26/26/26 25/25/25
f 30/30/30 29/29/29 28/28/28
f 33/33/33 32/32/32 31/31/31
f 36/36/36 35/35/35 34/34/34
f 39/39/39 38/38/38 37/37/37
f 38/38/38 40/40/40 37/37/37
f 38/38/38 41/41/41 40/40/40
f 37/37/37 40/40/40 41/41/41
f 41/41/41 42/42/42 37/37/37
f 42/42/42 43/43/43 37/37/37
f 37/37/37 43/43/43 44/44/44
f 47/47/47 46/46/46 45/45/45
f 48/48/48 45/45/45 46/46/46
f 45/45/45 48/48/48 49/49/49
f 49/49/49 48/48/48 50/50/50
f 49/49/49 51/51/51 45/45/45
f 52/52/52 45/45/45 51/51/51
f 53/53/53 48/48/48 46/46/46
f 53/53/53 54/54/54 48/48/48
f 54/54/54 55/55/55 48/48/48
f 56/56/56 54/54/54 53/53/53
f 57/57/57 56/56/56 53/53/53
f 53/53/53 46/46/46 57/57/57
f 58/58/58 57/57/57 46/46/46
f 58/58/58 46/46/46 59/59/59
f 58/58/58 60/60/60 57/57/57
f 51/51/51 61/61/61 52/52/52
f 61/61/61 62/62/62 52/52/52
f 62/62/62 63/63/63 52/52/52
f 61/61/61 64/64/64 62/62/62
f 61/61/61 51/51/51 64/64/64
f 65/65/65 64/64/64 51/51/51
f 51/51/51 66/66/66 65/65/65
f 63/63/63 62/62/62 67/67/67
f 67/67/67 68/68/68 63/63/63
f 67/67/67 69/69/69 68/68/68
f 68/68/68 70/70/70 63/63/63
f 70/70/70 71/71/71 63/63/63
f 74/74/74 73/73/73 72/72/72
f 73/73/73 74/74/74 75/75/75
f 73/73/73 75/75/75 76/76/76
f 75/75/75 77/77/77 76/76/76
f 76/76/76 78/78/78 73/73/73
f 76/76/76 79/79/79 78/78/78
f 79/79/79 80/80/80 78/78/78
f 83/83/83 82/82/82 81/81/81
f 83/83/83 81/81/81 84/84/84
f 85/85/85 83/83/83 84/84/84
f 83/83/83 85/85/85 86/86/86
f 83/83/83 86/86/86 87/87/87
f 85/85/85 88/88/88 86/86/86
f 87/87/87 86/86/86 89/89/89
f 89/89/89 86/86/86 88/88/88
f 87/87/87 89/89/89 90/90/90
f 89/89/89 88/88/88 90/90/90
f 90/90/90 88/88/88 91/91/91
f 91/91/91 92/92/92 90/90/90
f 92/92/92 93/93/93 90/90/90
f 93/93/93 92/92/92 94/94/94
f 93/93/93 94/94/94 95/95/95
f 92/92/92 96/96/96 94/94/94
f 99/99/99 98/98/98 97/97/97
f 97/97/97 100/100/100 99/99/99
f 99/99/99 100/100/100 101/101/101
f 100/100/100 97/97/97 102/102/102
f 97/97/97 103/103/103 102/102/102
f 104/104/104 103/103/103 97/97/97
f 104/104/104 105/105/105 103/103/103
f 108/108/108 107/107/107 106/106/106
f 108/108/108 106/106/106 109/109/109
f 110/110/110 108/108/108 109/109/109
f 108/108/108 110/110/110 111/111/111
f 111/111/111 110/110/110 112/112/112
f 112/112/112 110/110/110 113/113/113
f 112/112/112 113/113/113 114/114/114
f 114/114/114 115/115/115 112/112/112
f 112/112/112 116/116/116 111/111/111
f 112/112/112 115/115/115 116/116/116
f 117/117/117 111/111/111 116/116/116
f 117/117/117 116/116/116 115/115/115
f 118/118/118 117/117/117 115/115/115
f 121/121/121 120/120/120 119/119/119
f 121/121/121 119/119/119 122/122/122
f 122/122/122 123/123/123 121/121/121
f 124/124/124 121/121/121 123/123/123
f 125/125/125 124/124/124 123/123/123
f 126/126/126 125/125/125 123/123/123
f 129/129/129 128/128/128 127/127/127
f 130/130/130 128/128/128 129/129/129
f 133/133/133 132/132/132 131/131/131
f 131/131/131 134/134/134 133/133/133
f 133/133/133 134/134/134 135/135/135
f 135/135/135 134/134/134 136/136/136
f 134/134/134 137/137/137 136/136/136
f 137/137/137 134/134/134 131/131/131
f 138/138/138 137/137/137 131/131/131
f 141/141/141 140/140/140 139/139/139
f 141/141/141 139/139/139 142/142/142
f 143/143/143 141/141/141 142/142/142
f 146/146/146 145/145/145 144/144/144
f 144/144/144 147/147/147 146/146/146
f 148/148/148 147/147/147 144/144/144
f 148/148/148 144/144/144 149/149/149
f 150/150/150 149/149/149 144/144/144
f 150/150/150 151/151/151 149/149/149
f 149/149/149 152/152/152 148/148/148
f 149/149/149 151/151/151 153/153/153
f 153/153/153 152/152/152 149/149/149
f 154/154/154 152/152/152 153/153/153
f 154/154/154 153/153/153 155/155/155
f 156/156/156 155/155/155 153/153/153
f 155/155/155 157/157/157 154/154/154
f 157/157/157 155/155/155 156/156/156
f 158/158/158 157/157/157 156/156/156
f 161/161/161 160/160/160 159/159/159
f 161/161/161 159/159/159 162/162/162
f 163/163/163 161/161/161 162/162/162
f 163/163/163 164/164/164 161/161/161
f 164/164/164 165/165/165 161/161/161
f 165/165/165 166/166/166 161/161/161
f 169/169/169 168/168/168 167/167/167
f 170/170/170 167/167/167 168/168/168
f 171/171/171 170/170/170 168/168/168
f 171/171/171 168/168/168 172/172/172
f 170/170/170 171/171/171 173/173/173
f 174/174/174 170/170/170 173/173/173
f 171/171/171 175/175/175 173/173/173
f 174/174/174 173/173/173 176/176/176
f 175/175/175 176/176/176 173/173/173
f 177/177/177 174/174/174 176/176/176
f 175/175/175 178/178/178 176/176/176
f 177/177/177 176/176/176 178/178/178
f 179/179/179 177/177/177 178/178/178
f 178/178/178 180/180/180 179/179/179
f 179/179/179 180/180/180 181/181/181
f 179/179/179 181/181/181 182/182/182
f 179/179/179 182/182/182 183/183/183
f 186/186/186 185/185/185 184/184/184
f 187/187/187 185/185/185 186/186/186
f 186/186/186 188/188/188 187/187/187
f 189/189/189 187/187/187 188/188/188
f 190/190/190 187/187/187 189/189/189
f 193/193/193 192/192/192 191/191/191
f 191/191/191 192/192/192 194/194/194
f 197/197/197 196/196/196 195/195/195
f 196/196/196 198/198/198 195/195/195
f 195/195/195 198/198/198 199/199/199
f 200/200/200 195/195/195 199/199/199
f 198/198/198 201/201/201 199/199/199
f 204/204/204 203/203/203 202/202/202
f 203/203/203 204/204/204 205/205/205
f 206/206/206 205/205/205 204/204/204
f 209/209/209 208/208/208 207/207/207
f 210/210/210 209/209/209 207/207/207
f 213/213/213 212/212/212 211/211/211
f 212/212/212 214/214/214 211/211/211
f 211/211/211 214/214/214 215/215/215
f 216/216/216 214/214/214 212/212/212
f 215/215/215 214/214/214 217/217/217
f 214/214/214 216/216/216 218/218/218
f 219/219/219 217/217/217 214/214/214
f 214/214/214 218/218/218 219/219/219
f 222/222/222 221/221/221 220/220/220
f 221/221/221 223/223/223 220/220/220
f 223/223/223 221/221/221 224/224/224
f 225/225/225 220/220/220 223/223/223
f 226/226/226 220/220/220 225/225/225
f 226/226/226 225/225/225 227/227/227
f 225/225/225 223/223/223 228/228/228
f 228/228/228 223/223/223 229/229/229
f 228/228/228 229/229/229 230/230/230
f 231/231/231 228/228/228 230/230/230
f 225/225/225 232/232/232 227/227/227
f 232/232/232 225/225/225 228/228/228
f 232/232/232 228/228/228 231/231/231
f 231/231/231 227/227/227 232/232/232
f 235/235/235 234/234/234 233/233/233
f 236/236/236 234/234/234 235/235/235
f 237/237/237 236/236/236 235/235/235
f 237/237/237 238/238/238 236/236/236
f 236/236/236 238/238/238 239/239/239
f 238/238/238 237/237/237 240/240/240
f 243/243/243 242/242/242 241/241/241
f 243/243/243 244/244/244 242/242/242
f 244/244/244 245/245/245 242/242/242
f 245/245/245 244/244/244 246/246/246
f 249/249/249 248/248/248 247/247/247
f 250/250/250 249/249/249 247/247/247
f 253/253/253 252/252/252 251/251/251
f 254/254/254 253/253/253 251/251/251
f 255/255/255 253/253/253 254/254/254
f 256/256/256 255/255/255 254/254/254
f 257/257/257 255/255/255 256/256/256
f 258/258/258 257/257/257 256/256/256
f 259/259/259 257/257/257 258/258/258
f 260/260/260 259/259/259 258/258/258
f 261/261/261 259/259/259 260/260/260
f 262/262/262 261/261/261 260/260/260
f 265/265/265 264/264/264 263/263/263
f 266/266/266 263/263/263 264/264/264
f 267/267/267 263/263/263 266/266/266
f 267/267/267 266/266/266 268/268/268
f 267/267/267 269/269/269 263/263/263
f 269/269/269 267/267/267 268/268/268
f 272/272/272 271/271/271 270/270/270
f 272/272/272 273/273/273 271/271/271
f 274/274/274 271/271/271 273/273/273
f 274/274/274 275/275/275 271/271/271
f 276/276/276 273/273/273 272/272/272
f 277/277/277 276/276/276 272/272/272
f 280/280/280 279/279/279 278/278/278
f 281/281/281 278/278/278 279/279/279
f 284/284/284 283/283/283 282/282/282
f 283/283/283 285/285/285 282/282/282
f 282/282/282 285/285/285 286/286/286
f 285/285/285 287/287/287 286/286/286
f 286/286/286 287/287/287 288/288/288
f 287/287/287 289/289/289 288/288/288
f 289/289/289 290/290/290 288/288/288
f 290/290/290 289/289/289 291/291/291
f 292/292/292 291/291/291 289/289/289
f 293/293/293 292/292/292 289/289/289
f 292/292/292 294/294/294 291/291/291
f 297/297/297 296/296/296 295/295/295
f 295/295/295 296/296/296 298/298/298
f 295/295/295 298/298/298 299/299/299
f 299/299/299 298/298/298 300/300/300
f 296/296/296 301/301/301 298/298/298
f 298/298/298 302/302/302 300/300/300
f 303/303/303 298/298/298 301/301/301
f 301/301/301 304/304/304 303/303/303
f 305/305/305 304/304/304 301/301/301
f 306/306/306 298/298/298 303/303/303
f 302/302/302 298/298/298 306/306/306
f 303/303/303 307/307/307 306/306/306
f 307/307/307 308/308/308 306/306/306
f 306/306/306 308/308/308 302/302/302
f 308/308/308 309/309/309 302/302/302
f 312/312/312 311/311/311 310/310/310
f 313/313/313 312/312/312 310/310/310
f 310/310/310 314/314/314 313/313/313
f 314/314/314 315/315/315 313/313/313
f 316/316/316 314/314/314 310/310/310
f 317/317/317 316/316/316 310/310/310
f 318/318/318 316/316/316 317/317/317
f 321/321/321 320/320/320 319/319/319
f 320/320/320 322/322/322 319/319/319
f 319/319/319 322/322/322 323/323/323
f 322/322/322 320/320/320 324/324/324
f 323/323/323 322/322/322 325/325/325
f 325/325/325 322/322/322 324/324/324
f 328/328/328 327/327/327 326/326/326
f 326/326/326 329/329/329 328/328/328
f 329/329/329 330/330/330 328/328/328
f 331/331/331 328/328/328 330/330/330
f 330/330/330 332/332/332 331/331/331
f 332/332/332 333/333/333 331/331/331
f 336/336/336 335/335/335 334/334/334
f 335/335/335 337/337/337 334/334/334
f 335/335/335 338/338/338 337/337/337
f 339/339/339 337/337/337 338/338/338
f 339/339/339 340/340/340 337/337/337
f 334/334/334 337/337/337 340/340/340
f 340/340/340 341/341/341 334/334/334
f 344/344/344 343/343/343 342/342/342
f 343/343/343 345/345/345 342/342/342
f 346/346/346 345/345/345 343/343/343
f 346/346/346 347/347/347 345/345/345
f 346/346/346 343/343/343 348/348/348
f 347/347/347 346/346/346 349/349/349
f 348/348/348 349/349/349 346/346/346
f 349/349/349 348/348/348 350/350/350
f 353/353/353 352/352/352 351/351/351
f 354/354/354 353/353/353 351/351/351
f 355/355/355 353/353/353 354/354/354
f 356/356/356 355/355/355 354/354/354
f 359/359/359 358/358/358 357/357/357
f 359/359/359 360/360/360 358/358/358
f 361/361/361 358/358/358 360/360/360
f 364/364/364 363/363/363 362/362/362
f 365/365/365 364/364/364 362/362/362
f 368/368/368 367/367/367 366/366/366
f 369/369/369 368/368/368 366/366/366
f 370/370/370 368/368/368 369/369/369
f 371/371/371 370/370/370 369/369/369
f 370/370/370 372/372/372 368/368/368
f 371/371/371 373/373/373 370/370/370
f 374/374/374 372/372/372 370/370/370
f 373/373/373 374/374/374 370/370/370
f 377/377/377 376/376/376 375/375/375
f 378/378/378 377/377/377 375/375/375
f 379/379/379 377/377/377 378/378/378
f 378/378/378 375/375/375 379/379/379
f 380/380/380 379/379/379 375/375/375
f 381/381/381 380/380/380 375/375/375
f 381/381/381 375/375/375 382/382/382
f 385/385/385 384/384/384 383/383/383
f 383/383/383 386/386/386 385/385/385
f 386/386/386 383/383/383 387/387/387
f 386/386/386 387/387/387 388/388/388
f 389/389/389 387/387/387 383/383/383
f 383/383/383 390/390/390 389/389/389
f 386/386/386 391/391/391 385/385/385
f 392/392/392 391/391/391 386/386/386
f 393/393/393 392/392/392 386/386/386
f 392/392/392 394/394/394 391/391/391
f 394/394/394 395/395/395 391/391/391
f 385/385/385 391/391/391 395/395/395
f 395/395/395 396/396/396 385/385/385
f 385/385/385 396/396/396 397/397/397
f 398/398/398 396/396/396 395/395/395
f 399/399/399 389/389/389 390/390/390
f 400/400/400 399/399/399 390/390/390
f 401/401/401 400/400/400 390/390/390
f 402/402/402 399/399/399 400/400/400
f 389/389/389 399/399/399 402/402/402
f 402/402/402 403/403/403 389/389/389
f 404/404/404 389/389/389 403/403/403
f 400/400/400 401/401/401 405/405/405
f 406/406/406 405/405/405 401/401/401
f 407/407/407 405/405/405 406/406/406
f 408/408/408 406/406/406 401/401/401
f 409/409/409 408/408/408 401/401/401
f 412/412/412 411/411/411 410/410/410
f 411/411/411 412/412/412 413/413/413
f 413/413/413 412/412/412 414/414/414
f 415/415/415 413/413/413 414/414/414
f 416/416/416 414/414/414 412/412/412
f 417/417/417 414/414/414 416/416/416
f 418/418/418 417/417/417 416/416/416
f 421/421/421 420/420/420 419/419/419
f 419/419/419 420/420/420 422/422/422
f 420/420/420 423/423/423 422/422/422
f 423/423/423 420/420/420 424/424/424
f 424/424/424 420/420/420 425/425/425
f 426/426/426 423/423/423 424/424/424
f 424/424/424 425/425/425 427/427/427
f 424/424/424 427/427/427 426/426/426
f 427/427/427 425/425/425 428/428/428
f 426/426/426 427/427/427 428/428/428
f 426/426/426 428/428/428 429/429/429
f 430/430/430 429/429/429 428/428/428
f 431/431/431 430/430/430 428/428/428
f 430/430/430 431/431/431 432/432/432
f 432/432/432 431/431/431 433/433/433
f 434/434/434 430/430/430 432/432/432
f 437/437/437 436/436/436 435/435/435
f 438/438/438 435/435/435 436/436/436
f 438/438/438 436/436/436 439/439/439
f 435/435/435 438/438/438 440/440/440
f 441/441/441 435/435/435 440/440/440
f 441/441/441 442/442/442 435/435/435
f 443/443/443 442/442/442 441/441/441
f 446/446/446 445/445/445 444/444/444
f 444/444/444 445/445/445 447/447/447
f 445/445/445 448/448/448 447/447/447
f 448/448/448 445/445/445 449/449/449
f 448/448/448 449/449/449 450/450/450
f 448/448/448 450/450/450 451/451/451
f 451/451/451 450/450/450 452/452/452
f 453/453/453 452/452/452 450/450/450
f 454/454/454 450/450/450 449/449/449
f 453/453/453 450/450/450 454/454/454
f 449/449/449 455/455/455 454/454/454
f 454/454/454 455/455/455 453/453/453
f 455/455/455 456/456/456 453/453/453
f 459/459/459 458/458/458 457/457/457
f 457/457/457 458/458/458 460/460/460
f 461/461/461 460/460/460 458/458/458
f 458/458/458 462/462/462 461/461/461
f 462/462/462 463/463/463 461/461/461
f 463/463/463 464/464/464 461/461/461
f 467/467/467 466/466/466 465/465/465
f 467/467/467 468/468/468 466/466/466
f 471/471/471 470/470/470 469/469/469
f 472/472/472 469/469/469 470/470/470
f 472/472/472 470/470/470 473/473/473
f 472/472/472 473/473/473 474/474/474
f 475/475/475 472/472/472 474/474/474
f 472/472/472 475/475/475 469/469/469
f 475/475/475 476/476/476 469/469/469
f 479/479/479 478/478/478 477/477/477
f 477/477/477 478/478/478 480/480/480
f 478/478/478 481/481/481 480/480/480
f 484/484/484 483/483/483 482/482/482
f 485/485/485 482/482/482 483/483/483
f 485/485/485 486/486/486 482/482/482
f 482/482/482 486/486/486 487/487/487
f 487/487/487 488/488/488 482/482/482
f 489/489/489 488/488/488 487/487/487
f 490/490/490 487/487/487 486/486/486
f 489/489/489 487/487/487 491/491/491
f 490/490/490 491/491/491 487/487/487
f 490/490/490 492/492/492 491/491/491
f 491/491/491 492/492/492 493/493/493
f 493/493/493 494/494/494 491/491/491
f 495/495/495 493/493/493 492/492/492
f 493/493/493 495/495/495 494/494/494
f 495/495/495 496/496/496 494/494/494
f 499/499/499 498/498/498 497/497/497
f 497/497/497 498/498/498 500/500/500
f 498/498/498 501/501/501 500/500/500
f 502/502/502 501/501/501 498/498/498
f 503/503/503 502/502/502 498/498/498
f 504/504/504 503/503/503 498/498/498
f 507/507/507 506/506/506 505/505/505
f 505/505/505 508/508/508 507/507/507
f 508/508/508 509/509/509 507/507/507
f 507/507/507 509/509/509 510/510/510
f 509/509/509 508/508/508 511/511/511
f 508/508/508 512/512/512 511/511/511
f 513/513/513 509/509/509 511/511/511
f 511/511/511 512/512/512 514/514/514
f 514/514/514 513/513/513 511/511/511
f 512/512/512 515/515/515 514/514/514
f 516/516/516 513/513/513 514/514/514
f 514/514/514 515/515/515 516/516/516
f 515/515/515 517/517/517 516/516/516
f 518/518/518 516/516/516 517/517/517
f 518/518/518 517/517/517 519/519/519
f 519/519/519 517/517/517 520/520/520
f 520/520/520 517/517/517 521/521/521
f 524/524/524 523/523/523 522/522/522
f 524/524/524 525/525/525 523/523/523
f 526/526/526 523/523/523 525/525/525
f 525/525/525 527/527/527 526/526/526
f 525/525/525 528/528/528 527/527/527
f 531/531/531 530/530/530 529/529/529
f 531/531/531 529/529/529 532/532/532
f 535/535/535 534/534/534 533/533/533
f 536/536/536 535/535/535 533/533/533
f 536/536/536 533/533/533 537/537/537
f 533/533/533 538/538/538 537/537/537
f 539/539/539 536/536/536 537/537/537
f 542/542/542 541/541/541 540/540/540
f 541/541/541 542/542/542 543/543/543
f 543/543/543 544/544/544 541/541/541
f 547/547/547 546/546/546 545/545/545
f 548/548/548 547/547/547 545/545/545
f 551/551/551 550/550/550 549/549/549
f 552/552/552 551/551/551 549/549/549
f 552/552/552 549/549/549 553/553/553
f 552/552/552 554/554/554 551/551/551
f 552/552/552 553/553/553 555/555/555
f 554/554/554 552/552/552 556/556/556
f 555/555/555 557/557/557 552/552/552
f 556/556/556 552/552/552 557/557/557
f 560/560/560 559/559/559 558/558/558
f 561/561/561 560/560/560 558/558/558
f 560/560/560 561/561/561 562/562/562
f 558/558/558 563/563/563 561/561/561
f 558/558/558 564/564/564 563/563/563
f 563/563/563 564/564/564 565/565/565
f 561/561/561 563/563/563 566/566/566
f 561/561/561 566/566/566 567/567/567
f 567/567/567 566/566/566 568/568/568
f 566/566/566 569/569/569 568/568/568
f 570/570/570 563/563/563 565/565/565
f 565/565/565 569/569/569 570/570/570
f 566/566/566 570/570/570 569/569/569
f 563/563/563 570/570/570 566/566/566
f 573/573/573 572/572/572 571/571/571
f 573/573/573 574/574/574 572/572/572
f 574/574/574 575/575/575 572/572/572
f 576/576/576 575/575/575 574/574/574
f 576/576/576 574/574/574 577/577/577
f 575/575/575 576/576/576 578/578/578
f 581/581/581 580/580/580 579/579/579
f 582/582/582 580/580/580 581/581/581
f 583/583/583 582/582/582 581/581/581
f 582/582/582 583/583/583 584/584/584
f 587/587/587 586/586/586 585/585/585
f 588/588/588 587/587/587 585/585/585
f 591/591/591 590/590/590 589/589/589
f 590/590/590 592/592/592 589/589/589
f 590/590/590 593/593/593 592/592/592
f 593/593/593 594/594/594 592/592/592
f 593/593/593 595/595/595 594/594/594
f 595/595/595 596/596/596 594/594/594
f 595/595/595 597/597/597 596/596/596
f 597/597/597 598/598/598 596/596/596
f 597/597/597 599/599/599 598/598/598
f 599/599/599 600/600/600 598/598/598
f 603/603/603 602/602/602 601/601/601
f 601/601/601 604/604/604 603/603/603
f 601/601/601 605/605/605 604/604/604
f 604/604/604 605/605/605 606/606/606
f 607/607/607 605/605/605 601/601/601
f 605/605/605 607/607/607 606/606/606
f 610/610/610 609/609/609 608/608/608
f 611/611/611 609/609/609 610/610/610
f 610/610/610 612/612/612 611/611/611
f 613/613/613 612/612/612 610/610/610
f 611/611/611 614/614/614 609/609/609
f 614/614/614 615/615/615 609/609/609
f 618/618/618 617/617/617 616/616/616
f 616/616/616 619/619/619 618/618/618
f 622/622/622 621/621/621 620/620/620
f 623/623/623 622/622/622 620/620/620
f 623/623/623 620/620/620 624/624/624
f 625/625/625 623/623/623 624/624/624
f 625/625/625 624/624/624 626/626/626
f 627/627/627 625/625/625 626/626/626
f 628/628/628 627/627/627 626/626/626
f 627/627/627 628/628/628 629/629/629
f 629/629/629 630/630/630 627/627/627
f 630/630/630 631/631/631 627/627/627
f 632/632/632 630/630/630 629/629/629
f 635/635/635 634/634/634 633/633/633
f 635/635/635 633/633/633 636/636/636
f 636/636/636 633/633/633 637/637/637
f 636/636/636 637/637/637 638/638/638
f 639/639/639 635/635/635 636/636/636
f 640/640/640 636/636/636 638/638/638
f 636/636/636 641/641/641 639/639/639
f 642/642/642 639/639/639 641/641/641
f 642/642/642 643/643/643 639/639/639
f 636/636/636 644/644/644 641/641/641
f 636/636/636 640/640/640 644/644/644
f 645/645/645 641/641/641 644/644/644
f 646/646/646 645/645/645 644/644/644
f 646/646/646 644/644/644 640/640/640
f 647/647/647 646/646/646 640/640/640
f 650/650/650 649/649/649 648/648/648
f 649/649/649 651/651/651 648/648/648
f 652/652/652 648/648/648 651/651/651
f 653/653/653 652/652/652 651/651/651
f 652/652/652 654/654/654 648/648/648
f 654/654/654 655/655/655 648/648/648
f 654/654/654 656/656/656 655/655/655
f 659/659/659 658/658/658 657/657/657
f 660/660/660 659/659/659 657/657/657
f 660/660/660 657/657/657 661/661/661
f 659/659/659 660/660/660 662/662/662
f 660/660/660 661/661/661 663/663/663
f 660/660/660 663/663/663 662/662/662
f 666/666/666 665/665/665 664/664/664
f 667/667/667 664/664/664 665/665/665
f 668/668/668 667/667/667 665/665/665
f 665/665/665 669/669/669 668/668/668
f 670/670/670 668/668/668 669/669/669
f 671/671/671 670/670/670 669/669/669
f 674/674/674 673/673/673 672/672/672
f 675/675/675 674/674/674 672/672/672
f 676/676/676 674/674/674 675/675/675
f 675/675/675 677/677/677 676/676/676
f 678/678/678 677/677/677 675/675/675
f 675/675/675 672/672/672 678/678/678
f 679/679/679 678/678/678 672/672/672
f 682/682/682 681/681/681 680/680/680
f 683/683/683 682/682/682 680/680/680
f 683/683/683 684/684/684 682/682/682
f 685/685/685 684/684/684 683/683/683
f 682/682/682 684/684/684 686/686/686
f 684/684/684 685/685/685 687/687/687
f 687/687/687 686/686/686 684/684/684
f 686/686/686 687/687/687 688/688/688
f 691/691/691 690/690/690 689/689/689
f 690/690/690 692/692/692 689/689/689
f 690/690/690 693/693/693 692/692/692
f 693/693/693 694/694/694 692/692/692
f 697/697/697 696/696/696 695/695/695
f 698/698/698 696/696/696 697/697/697
f 697/697/697 699/699/699 698/698/698
f 702/702/702 701/701/701 700/700/700
f 703/703/703 702/702/702 700/700/700
f 706/706/706 705/705/705 704/704/704
f 705/705/705 707/707/707 704/704/704
f 705/705/705 708/708/708 707/707/707
f 708/708/708 709/709/709 707/707/707
f 710/710/710 708/708/708 705/705/705
f 711/711/711 709/709/709 708/708/708
f 710/710/710 712/712/712 708/708/708
f 712/712/712 711/711/711 708/708/708
