g 0.4000
v -1.0250869 0.09997882 5.2046843
v -1.1633525 -0.6887723 4.6845064
v -1.3166392 0.0983167 4.7834473
v -0.945096 -1.1242276 3.7461596
v -1.1587689 -0.37470627 3.2011373
v -0.7394925 -0.7626699 2.6438243
v -0.8505591 0.06755483 1.8494377
v -1.3166392 0.0983167 4.7834473
v -0.9700539 1.0140481 4.9341664
v -1.0250869 0.09997882 5.2046843
v -0.9831091 1.1964138 4.4104657
v -1.1587689 -0.37470627 3.2011373
v -0.842853 0.8076375 3.0386343
v -0.8505591 0.06755483 1.8494377
v -0.8505591 0.06755483 1.8494377
v -0.6553565 0.8328391 2.118762
v -0.4876241 1.3720764 4.9226875
v 0.19001926 1.692469 4.3518267
v 0.9710762 0.8384807 4.5515175
v 0.36698857 -0.09864007 4.91569
v -0.4876241 1.3720764 4.9226875
v 0.9710762 0.8384807 4.5515175
v 0.83467484 -0.8873817 4.36399
v -0.078979224 -1.0933404 4.877522
v 0.11414522 -1.4587882 4.4497776
v -1.0250869 0.09997882 5.2046843
v -0.4876241 1.3720764 4.9226875
v -0.52479726 -1.4017873 4.793077
v 0.11414522 -1.4587882 4.4497776
v -0.52479726 -1.4017873 4.793077
v 0.19001926 1.692469 4.3518267
v 1.0226105 1.089212 3.9491966
v 0.9710762 0.8384807 4.5515175
v 0.50089514 1.5745822 3.6647065
v 0.19001926 1.692469 4.3518267
v 1.0226105 1.089212 3.9491966
v 1.1479638 -0.20586634 3.8503876
v 0.9710762 0.8384807 4.5515175
v 1.1617956 -0.15418775 2.8572235
v 0.7261264 -1.2513286 3.847601
v 1.0226105 1.089212 3.9491966
v 0.7261264 -1.2513286 3.847601
v 0.83467484 -0.8873817 4.36399
v 0.9710762 0.8384807 4.5515175
v 1.1479638 -0.20586634 3.8503876
v 0.7261264 -1.2513286 3.847601
v 0.11414522 -1.4587882 4.4497776
v 1.0532842 0.5148267 2.8893492
v 1.1617956 -0.15418775 2.8572235
v 0.7352719 -0.7697048 2.2513108
v 0.7261264 -1.2513286 3.847601
v 0.76089185 0.04259496 1.9954125
v 0.7366064 -0.5281409 1.8956101
v 0.38288435 -0.9602603 2.0040889
v 0.110075094 -1.1527499 2.7839694
v 0.76089185 0.04259496 1.9954125
v 0.7352719 -0.7697048 2.2513108
v 1.0532842 0.5148267 2.8893492
v 0.59767586 0.78666276 2.0475972
v 0.7366064 -0.5281409 1.8956101
v 0.38288435 -0.9602603 2.0040889
v -0.24209288 1.0943831 1.9941962
v -0.8505591 0.06755483 1.8494377
v 0.2972834 1.0456557 1.9628081
v 0.08512533 0.0025577992 1.662479
v 0.2972834 1.0456557 1.9628081
v -0.68488586 -0.6754951 1.989921
v 0.08512533 0.0025577992 1.662479
v 0.38288435 -0.9602603 2.0040889
v -0.3094601 -0.92467576 2.0835118
v 0.7366064 -0.5281409 1.8956101
v 0.59767586 0.78666276 2.0475972
v 0.2972834 1.0456557 1.9628081
v 0.76089185 0.04259496 1.9954125
v 0.2972834 1.0456557 1.9628081
v 0.08512533 0.0025577992 1.662479
v 0.7366064 -0.5281409 1.8956101
v -0.3094601 -0.92467576 2.0835118
v -0.68488586 -0.6754951 1.989921
v -0.7394925 -0.7626699 2.6438243
v 0.7261264 -1.2513286 3.847601
v 0.7352719 -0.7697048 2.2513108
v 0.110075094 -1.1527499 2.7839694
v 0.28753507 1.3117536 3.0589402
v 0.59767586 0.78666276 2.0475972
v 1.0226105 1.089212 3.9491966
v -0.24209288 1.0943831 1.9941962
v 0.2972834 1.0456557 1.9628081
v 0.28753507 1.3117536 3.0589402
v -0.842853 0.8076375 3.0386343
v -0.842853 0.8076375 3.0386343
v -0.33050373 1.6776228 4.013279
v 0.19001926 1.692469 4.3518267
v -0.4876241 1.3720764 4.9226875
v 1.0226105 1.089212 3.9491966
v 0.50089514 1.5745822 3.6647065
v 0.59767586 0.78666276 2.0475972
v 1.0532842 0.5148267 2.8893492
v 0.2972834 1.0456557 1.9628081
v 0.50089514 1.5745822 3.6647065
v -0.33050373 1.6776228 4.013279
v 0.19001926 1.692469 4.3518267
v 0.43158263 -0.70177805 0.122653335
v 0.36681995 -1.0202007 0.16307952
v 0.51502144 -1.221211 0.24238488
v -0.08166468 -0.55068016 2.0253184
v 0.20506713 -0.56181866 2.0631766
v 0.18827622 -0.859823 2.0768929
v 1.1002796 -0.82558405 0.45210218
v 0.8612411 -0.46760666 0.26731604
v 0.939039 -1.200178 0.410144
v 0.8612411 -0.46760666 0.26731604
v 0.51502144 -1.221211 0.24238488
v 0.43158263 -0.70177805 0.122653335
v 0.29600096 -1.2762055 1.1833017
v 0.6820407 -1.1923698 1.3070452
v 0.7004072 -1.0928799 0.9456476
v 0.6733947 -0.51709473 1.2913849
v 0.70201516 -0.6589187 0.92529786
v 0.8062682 -0.83873844 1.3755537
v 0.6820407 -1.1923698 1.3070452
v 0.8062682 -0.83873844 1.3755537
v 0.7004072 -1.0928799 0.9456476
v 0.2232599 -1.0777291 0.8271334
v 0.7004072 -1.0928799 0.9456476
v 0.939039 -1.200178 0.410144
v 0.2232599 -1.0777291 0.8271334
v 0.29600096 -1.2762055 1.1833017
v 0.13987023 -1.0890241 1.3944877
v 0.40527976 -0.95488805 1.5707114
v 0.6820407 -1.1923698 1.3070452
v 0.939039 -1.200178 0.410144
v 0.7004072 -1.0928799 0.9456476
v 1.1002796 -0.82558405 0.45210218
v 0.70201516 -0.6589187 0.92529786
v 0.7004072 -1.0928799 0.9456476
v 0.70201516 -0.6589187 0.92529786
v 0.8612411 -0.46760666 0.26731604
v 1.1002796 -0.82558405 0.45210218
v 0.6733947 -0.51709473 1.2913849
v 0.8062682 -0.83873844 1.3755537
v 0.40527976 -0.95488805 1.5707114
v 0.6733947 -0.51709473 1.2913849
v 0.3854403 -0.5994362 1.4335444
v 0.40527976 -0.95488805 1.5707114
v 0.8062682 -0.83873844 1.3755537
v 0.6820407 -1.1923698 1.3070452
v -0.25745183 0.23746777 1.9332235
v -0.60639334 0.49767065 1.8839707
v -0.25147414 0.8478938 2.2495184
v -0.25147414 0.8478938 2.2495184
v -0.3237648 1.0072013 2.0616326
v 0.046784163 1.0372841 2.1313322
v -0.60639334 0.49767065 1.8839707
v -0.25147414 0.8478938 2.2495184
v -0.60639334 0.49767065 1.8839707
v -0.56495166 0.8178215 1.5406139
v -0.3237648 1.0072013 2.0616326
v -0.20560414 1.0013936 1.3474053
v 0.046784163 1.0372841 2.1313322
v -0.56495166 0.8178215 1.5406139
v -0.20560414 1.0013936 1.3474053
v -0.7409585 0.9786197 1.2147405
v -0.20560414 1.0013936 1.3474053
v -0.1553213 1.1872765 1.1042218
v -0.1553213 1.1872765 1.1042218
v -0.5223442 1.0078263 0.8263083
v -0.52602065 1.0258453 0.17007028
v -0.14733532 1.0702461 0.8262136
v -0.1553213 1.1872765 1.1042218
v -0.52602065 1.0258453 0.17007028
v -0.026073813 1.0626873 0.17273274
v -0.1553213 1.1872765 1.1042218
v 0.095101595 0.77123326 1.0551276
v 0.08932507 0.75248754 0.8441767
v 0.19488323 0.98669195 1.8041409
v -0.038327992 0.48721594 1.3542407
v 0.1711222 0.54411453 2.0146165
v -0.25745183 0.23746777 1.9332235
v 0.1711222 0.54411453 2.0146165
v 0.19488323 0.98669195 1.8041409
v -0.20560414 1.0013936 1.3474053
v -0.03678173 0.6264479 1.27385
v -0.03678173 0.6264479 1.27385
v -0.08291936 0.3744563 1.1356281
v 0.095101595 0.77123326 1.0551276
v 0.095101595 0.77123326 1.0551276
v -0.069348305 0.3849389 0.7809297
v -0.069348305 0.3849389 0.7809297
v 0.08932507 0.75248754 0.8441767
v 0.20886537 0.5097798 0.29405907
v 0.046784163 1.0372841 2.1313322
v 0.1711222 0.54411453 2.0146165
v -0.25147414 0.8478938 2.2495184
v 0.20886537 0.5097798 0.29405907
v -0.026073813 1.0626873 0.17273274
v -0.13034648 0.19891945 0.20369199
v -0.66914856 0.6688129 0.109363705
v -0.5954795 0.35623795 0.111389816
v -0.66914856 0.6688129 0.109363705
v -0.026073813 1.0626873 0.17273274
v -0.52602065 1.0258453 0.17007028
v -0.026073813 1.0626873 0.17273274
v -0.7409585 0.9786197 1.2147405
v -0.748036 0.4108644 1.2707951
v -0.662588 0.74180424 0.8442886
v -0.56495166 0.8178215 1.5406139
v -0.748036 0.4108644 1.2707951
v -0.60639334 0.49767065 1.8839707
v -0.5441097 0.40510133 1.5329878
v -0.662588 0.74180424 0.8442886
v -0.5223442 1.0078263 0.8263083
v -0.662588 0.74180424 0.8442886
v -0.52602065 1.0258453 0.17007028
v -0.13034648 0.19891945 0.20369199
v -0.069348305 0.3849389 0.7809297
v 0.20886537 0.5097798 0.29405907
v -0.662588 0.74180424 0.8442886
v -0.66914856 0.6688129 0.109363705
v -0.52602065 1.0258453 0.17007028
v -0.4497224 0.39964437 0.8982621
v -0.5954795 0.35623795 0.111389816
v -0.66914856 0.6688129 0.109363705
v -0.26692772 -1.5891325 3.7234583
v -0.393426 -1.7845225 2.634665
v -0.50711703 -1.2534637 3.6018703
v 0.040516138 -0.8856914 3.6254888
v 0.19961846 -1.4650898 2.74829
v 0.24252856 -1.2635679 3.639079
v 0.038736343 -1.0854442 3.9046364
v 0.07886958 -1.4350035 3.8101888
v -0.29665238 -1.2373068 3.9300098
v 0.040516138 -0.8856914 3.6254888
v 0.24252856 -1.2635679 3.639079
v 0.038736343 -1.0854442 3.9046364
v -0.29665238 -1.2373068 3.9300098
v 0.07886958 -1.4350035 3.8101888
v -0.26692772 -1.5891325 3.7234583
v -0.20664516 -2.1193027 0.19900912
v -0.23175587 -1.7194846 0.2911801
v -0.46549302 -1.6329553 0.17692232
v -0.41052315 -2.4206326 0.44549203
v -0.20664516 -2.1193027 0.19900912
v -0.9879542 -1.6143057 0.46047926
v -1.2237886 -1.9591501 0.53049886
v -1.2809463 -2.4017215 0.6243306
v -1.2237886 -1.9591501 0.53049886
v -0.41052315 -2.4206326 0.44549203
v -0.8897208 -2.6166754 0.6139816
v 0.19961846 -1.4650898 2.74829
v 0.57157576 -2.017148 2.114911
v 0.15373641 -1.9273732 2.6397254
v 0.29019 -2.331365 2.2130346
v -0.32629675 -2.3277264 2.2813985
v 0.15373641 -1.9273732 2.6397254
v 0.57157576 -2.017148 2.114911
v -0.56057525 -1.9051785 1.8152556
v -0.36938393 -2.213835 1.8335106
v -1.2809463 -2.4017215 0.6243306
v -0.089836955 -1.7224643 1.2824707
v -0.23175587 -1.7194846 0.2911801
v -0.18813097 -2.2869596 0.7707272
v -0.18813097 -2.2869596 0.7707272
v 0.17151466 -2.0070157 1.8110129
v -0.23175587 -1.7194846 0.2911801
v -0.20664516 -2.1193027 0.19900912
v 0.31649697 -1.4268064 1.8639948
v 0.17151466 -2.0070157 1.8110129
v 0.57157576 -2.017148 2.114911
v 0.19961846 -1.4650898 2.74829
v 0.5110714 -1.5602093 2.1321769
v 0.31649697 -1.4268064 1.8639948
v 0.5110714 -1.5602093 2.1321769
v -0.3830873 -1.6028998 1.2939448
v -0.9879542 -1.6143057 0.46047926
v -0.46549302 -1.6329553 0.17692232
v -0.335567 -1.3060589 2.0209966
v -0.13977018 -1.2378721 2.0441444
v -0.13977018 -1.2378721 2.0441444
v 0.272858 -1.298183 1.9272754
v -0.25485218 -1.242919 2.7844267
v -0.49684304 -1.5622318 1.8645022
v -0.9247639 -1.8822718 0.99846727
v -0.3830873 -1.6028998 1.2939448
v 0.29019 -2.331365 2.2130346
v 0.57157576 -2.017148 2.114911
v 0.17151466 -2.0070157 1.8110129
v -0.009443641 -2.1979198 1.8093119
v -0.18813097 -2.2869596 0.7707272
v 0.29019 -2.331365 2.2130346
v 0.17151466 -2.0070157 1.8110129
v -0.20664516 -2.1193027 0.19900912
v -0.41052315 -2.4206326 0.44549203
v -0.6689224 -1.9142776 2.2376993
v -0.32629675 -2.3277264 2.2813985
v -0.36938393 -2.213835 1.8335106
v -0.36938393 -2.213835 1.8335106
v -0.56057525 -1.9051785 1.8152556
v -0.32629675 -2.3277264 2.2813985
v 0.29019 -2.331365 2.2130346
v -0.009443641 -2.1979198 1.8093119
v -0.36938393 -2.213835 1.8335106
v -0.8897208 -2.6166754 0.6139816
v -0.32629675 -2.3277264 2.2813985
v 0.15373641 -1.9273732 2.6397254
v -0.2515363 -1.9878654 2.5375786
v -0.393426 -1.7845225 2.634665
v -0.6689224 -1.9142776 2.2376993
v -0.2515363 -1.9878654 2.5375786
v -0.32629675 -2.3277264 2.2813985
v 0.19961846 -1.4650898 2.74829
v -0.25485218 -1.242919 2.7844267
v 0.272858 -1.298183 1.9272754
v -0.3830873 -1.6028998 1.2939448
v -0.089836955 -1.7224643 1.2824707
v -0.23175587 -1.7194846 0.2911801
v -0.089836955 -1.7224643 1.2824707
v -0.46549302 -1.6329553 0.17692232
v 0.10104111 1.1379395 3.656839
v -0.17024517 1.4225004 3.1619024
v -0.23814249 1.2606697 3.672167
v -0.1684264 1.7466581 3.3509417
v 0.15128067 1.7791648 3.5952487
v -0.18447345 1.5859444 3.7977972
v 0.10452607 1.372668 3.8915105
v -0.23814249 1.2606697 3.672167
v -0.18447345 1.5859444 3.7977972
v 0.32657802 2.659352 0.48364162
v 0.0566383 2.2523544 0.083086014
v 0.77250665 2.3598225 0.06512314
v -0.052847385 2.390131 0.4240451
v 0.0566383 2.2523544 0.083086014
v 0.32657802 2.659352 0.48364162
v 0.41946256 1.4399455 1.6105098
v 0.8411532 1.3427756 2.06109
v 0.72064763 1.5204806 1.6151247
v 0.13449788 1.6579161 1.7080799
v 0.44039786 1.1824746 1.9094169
v 0.8411532 1.3427756 2.06109
v 0.9717517 1.9290235 1.7025111
v 0.9597308 2.3259723 0.73576766
v 0.95196533 2.0657747 1.0209663
v 0.95196533 2.0657747 1.0209663
v 1.0131987 1.8842263 0.16287398
v 0.88670415 2.5115478 0.3659302
v 1.0131987 1.8842263 0.16287398
v 0.20026955 2.2112715 2.07254
v 0.13449788 1.6579161 1.7080799
v 0.30201104 2.1429682 1.4182011
v -0.00016379356 1.7995267 0.8530696
v -0.052847385 2.390131 0.4240451
v -0.052847385 2.390131 0.4240451
v -0.17092866 1.9356613 0.22906202
v 0.05589074 1.5617533 0.06958592
v 0.0566383 2.2523544 0.083086014
v 0.95196533 2.0657747 1.0209663
v 1.0131987 1.8842263 0.16287398
v 0.7234881 1.5596123 0.47500864
v 1.0131987 1.8842263 0.16287398
v 0.42335945 1.4213486 0.09351206
v 0.9717517 1.9290235 1.7025111
v 0.95196533 2.0657747 1.0209663
v 0.72064763 1.5204806 1.6151247
v 0.9717517 1.9290235 1.7025111
v 0.8411532 1.3427756 2.06109
v 0.80163324 1.6271682 2.3541
v 1.1119272 1.8059273 2.2039633
v 1.1119272 1.8059273 2.2039633
v 0.9717517 1.9290235 1.7025111
v 1.0131987 1.8842263 0.16287398
v 0.88670415 2.5115478 0.3659302
v 0.77250665 2.3598225 0.06512314
v 0.20026955 2.2112715 2.07254
v 0.09438965 1.8596063 2.3472404
v -0.027903795 1.7050797 1.9179947
v 0.13449788 1.6579161 1.7080799
v 0.20026955 2.2112715 2.07254
v 0.32608473 1.2797141 2.2281332
v 0.8411532 1.3427756 2.06109
v 0.44039786 1.1824746 1.9094169
v 0.83638084 2.268577 2.286842
v 0.2972591 1.981298 2.5182347
v 0.20026955 2.2112715 2.07254
v 0.59534085 1.9389586 2.5891395
v 0.83638084 2.268577 2.286842
v 0.09438965 1.8596063 2.3472404
v 0.20026955 2.2112715 2.07254
v 0.30201104 2.1429682 1.4182011
v 0.32657802 2.659352 0.48364162
v 0.66308457 2.383672 1.2026033
v 0.30201104 2.1429682 1.4182011
v -0.052847385 2.390131 0.4240451
v 0.32657802 2.659352 0.48364162
v 0.83638084 2.268577 2.286842
v 0.9717517 1.9290235 1.7025111
v 1.1119272 1.8059273 2.2039633
v 0.83638084 2.268577 2.286842
v 0.5073031 2.2036867 1.8034118
v 0.9717517 1.9290235 1.7025111
v -0.1684264 1.7466581 3.3509417
v 0.2972591 1.981298 2.5182347
v 0.15128067 1.7791648 3.5952487
v 0.2114746 1.3911927 2.1489456
v 0.09438965 1.8596063 2.3472404
v -0.17024517 1.4225004 3.1619024
v -0.17024517 1.4225004 3.1619024
v -0.1684264 1.7466581 3.3509417
v -0.23814249 1.2606697 3.672167
v -0.18447345 1.5859444 3.7977972
v 0.09438965 1.8596063 2.3472404
v 0.2972591 1.981298 2.5182347
v 0.10104111 1.1379395 3.656839
v 0.32608473 1.2797141 2.2281332
v -0.17024517 1.4225004 3.1619024
v 0.32608473 1.2797141 2.2281332
v 0.2114746 1.3911927 2.1489456
v 0.44039786 1.1824746 1.9094169
v 0.10104111 1.1379395 3.656839
v 0.5753701 1.3736391 2.5266995
v 0.32608473 1.2797141 2.2281332
v 0.10452607 1.372668 3.8915105
v 0.31207633 1.3333435 3.775795
v 0.18827622 -0.859823 2.0768929
v 0.40527976 -0.95488805 1.5707114
v -0.13474274 -0.96927786 1.738983
v -0.52479726 -1.4017873 4.793077
v -1.1633525 -0.6887723 4.6845064
v -1.0250869 0.09997882 5.2046843
v -0.9700539 1.0140481 4.9341664
v -0.4876241 1.3720764 4.9226875
v -1.0250869 0.09997882 5.2046843
v -0.52479726 -1.4017873 4.793077
v -0.945096 -1.1242276 3.7461596
v -1.1633525 -0.6887723 4.6845064
v -0.52479726 -1.4017873 4.793077
v -0.40910968 -1.2613118 3.2577848
v -0.40910968 -1.2613118 3.2577848
v -0.7394925 -0.7626699 2.6438243
v -0.3094601 -0.92467576 2.0835118
v -0.40910968 -1.2613118 3.2577848
v 0.11414522 -1.4587882 4.4497776
v 0.110075094 -1.1527499 2.7839694
v -0.3094601 -0.92467576 2.0835118
v 0.110075094 -1.1527499 2.7839694
v 0.38288435 -0.9602603 2.0040889
v -0.68488586 -0.6754951 1.989921
v -0.8505591 0.06755483 1.8494377
v -0.7394925 -0.7626699 2.6438243
v 0.7261264 -1.2513286 3.847601
v 0.110075094 -1.1527499 2.7839694
v 0.11414522 -1.4587882 4.4497776
v -0.13474274 -0.96927786 1.738983
v -0.12240708 -0.8089431 2.00146
v 0.18827622 -0.859823 2.0768929
v -0.08166468 -0.55068016 2.0253184
v 0.18827622 -0.859823 2.0768929
v -0.12240708 -0.8089431 2.00146
v 0.70201516 -0.6589187 0.92529786
v 0.7004072 -1.0928799 0.9456476
v 0.8062682 -0.83873844 1.3755537
v 0.2232599 -1.0777291 0.8271334
v 0.31791043 -0.6390492 0.7347895
v -0.15123945 -0.8910032 1.0387748
v 0.1291073 -0.40745354 1.1318316
v 0.31791043 -0.6390492 0.7347895
v -0.10470143 -0.8162327 1.346287
v 0.027493298 -0.5939163 1.360997
v -0.08166468 -0.55068016 2.0253184
v 0.43158263 -0.70177805 0.122653335
v 0.8612411 -0.46760666 0.26731604
v 0.31791043 -0.6390492 0.7347895
v 0.31791043 -0.6390492 0.7347895
v 0.70201516 -0.6589187 0.92529786
v 0.1291073 -0.40745354 1.1318316
v 0.31791043 -0.6390492 0.7347895
v 0.6733947 -0.51709473 1.2913849
v 0.3854403 -0.5994362 1.4335444
v 0.2232599 -1.0777291 0.8271334
v 0.939039 -1.200178 0.410144
v 0.51502144 -1.221211 0.24238488
v 0.36681995 -1.0202007 0.16307952
v 0.2232599 -1.0777291 0.8271334
v 0.29600096 -1.2762055 1.1833017
v -0.15123945 -0.8910032 1.0387748
v -0.15123945 -0.8910032 1.0387748
v 0.13987023 -1.0890241 1.3944877
v 0.027493298 -0.5939163 1.360997
v 0.1291073 -0.40745354 1.1318316
v 0.3854403 -0.5994362 1.4335444
v 0.3854403 -0.5994362 1.4335444
v -0.08166468 -0.55068016 2.0253184
v 0.20506713 -0.56181866 2.0631766
v -0.15123945 -0.8910032 1.0387748
v -0.10470143 -0.8162327 1.346287
v 0.13987023 -1.0890241 1.3944877
v -0.20560414 1.0013936 1.3474053
v 0.19488323 0.98669195 1.8041409
v 0.046784163 1.0372841 2.1313322
v 0.19488323 0.98669195 1.8041409
v 0.1711222 0.54411453 2.0146165
v 0.046784163 1.0372841 2.1313322
v 0.1711222 0.54411453 2.0146165
v -0.25745183 0.23746777 1.9332235
v -0.25147414 0.8478938 2.2495184
v -0.748036 0.4108644 1.2707951
v -0.4497224 0.39964437 0.8982621
v -0.662588 0.74180424 0.8442886
v -0.4497224 0.39964437 0.8982621
v -0.13034648 0.19891945 0.20369199
v -0.5954795 0.35623795 0.111389816
v -0.069348305 0.3849389 0.7809297
v -0.13034648 0.19891945 0.20369199
v -0.08291936 0.3744563 1.1356281
v -0.748036 0.4108644 1.2707951
v -0.5441097 0.40510133 1.5329878
v -0.4497224 0.39964437 0.8982621
v -0.66914856 0.6688129 0.109363705
v -0.662588 0.74180424 0.8442886
v -0.038327992 0.48721594 1.3542407
v -0.08291936 0.3744563 1.1356281
v -0.5441097 0.40510133 1.5329878
v -0.5441097 0.40510133 1.5329878
v -0.748036 0.4108644 1.2707951
v -0.56495166 0.8178215 1.5406139
v -0.26692772 -1.5891325 3.7234583
v -0.50711703 -1.2534637 3.6018703
v -0.29665238 -1.2373068 3.9300098
v -0.50711703 -1.2534637 3.6018703
v -0.3847588 -0.9258354 3.659566
v -0.29665238 -1.2373068 3.9300098
v -0.25485218 -1.242919 2.7844267
v 0.19961846 -1.4650898 2.74829
v 0.040516138 -0.8856914 3.6254888
v 0.07886958 -1.4350035 3.8101888
v 0.15373641 -1.9273732 2.6397254
v -0.26692772 -1.5891325 3.7234583
v -0.3847588 -0.9258354 3.659566
v 0.038736343 -1.0854442 3.9046364
v -0.29665238 -1.2373068 3.9300098
v 0.24252856 -1.2635679 3.639079
v 0.07886958 -1.4350035 3.8101888
v 0.038736343 -1.0854442 3.9046364
v 0.272858 -1.298183 1.9272754
v -0.089836955 -1.7224643 1.2824707
v 0.31649697 -1.4268064 1.8639948
v 0.272858 -1.298183 1.9272754
v 0.31649697 -1.4268064 1.8639948
v 0.5110714 -1.5602093 2.1321769
v -0.13977018 -1.2378721 2.0441444
v -0.5747469 -1.5298839 2.150067
v -0.335567 -1.3060589 2.0209966
v 0.15373641 -1.9273732 2.6397254
v -0.32629675 -2.3277264 2.2813985
v -0.2515363 -1.9878654 2.5375786
v -0.9247639 -1.8822718 0.99846727
v -1.2809463 -2.4017215 0.6243306
v -1.2237886 -1.9591501 0.53049886
v -0.56057525 -1.9051785 1.8152556
v -1.2809463 -2.4017215 0.6243306
v -0.49684304 -1.5622318 1.8645022
v -0.6689224 -1.9142776 2.2376993
v -0.5747469 -1.5298839 2.150067
v -0.393426 -1.7845225 2.634665
v -0.56057525 -1.9051785 1.8152556
v -0.9247639 -1.8822718 0.99846727
v -0.49684304 -1.5622318 1.8645022
v -0.9247639 -1.8822718 0.99846727
v -1.2237886 -1.9591501 0.53049886
v -0.9879542 -1.6143057 0.46047926
v -0.9879542 -1.6143057 0.46047926
v -0.3830873 -1.6028998 1.2939448
v -0.36938393 -2.213835 1.8335106
v -0.8897208 -2.6166754 0.6139816
v -1.2809463 -2.4017215 0.6243306
v 0.15373641 -1.9273732 2.6397254
v -0.393426 -1.7845225 2.634665
v -0.26692772 -1.5891325 3.7234583
v -0.25485218 -1.242919 2.7844267
v -0.393426 -1.7845225 2.634665
v -0.5747469 -1.5298839 2.150067
v -0.25485218 -1.242919 2.7844267
v -0.5747469 -1.5298839 2.150067
v -0.13977018 -1.2378721 2.0441444
v 0.19961846 -1.4650898 2.74829
v 0.272858 -1.298183 1.9272754
v 0.5110714 -1.5602093 2.1321769
v 0.30201104 2.1429682 1.4182011
v 0.66308457 2.383672 1.2026033
v 0.5073031 2.2036867 1.8034118
v -0.23814249 1.2606697 3.672167
v 0.10452607 1.372668 3.8915105
v 0.10104111 1.1379395 3.656839
v 0.88670415 2.5115478 0.3659302
v 0.32657802 2.659352 0.48364162
v 0.77250665 2.3598225 0.06512314
v 0.32657802 2.659352 0.48364162
v 0.66308457 2.383672 1.2026033
v 0.13449788 1.6579161 1.7080799
v 0.41946256 1.4399455 1.6105098
v 0.1343866 1.5514228 0.9504865
v 0.13449788 1.6579161 1.7080799
v -0.00016379356 1.7995267 0.8530696
v 0.30201104 2.1429682 1.4182011
v -0.17092866 1.9356613 0.22906202
v 0.0566383 2.2523544 0.083086014
v -0.052847385 2.390131 0.4240451
v -0.00016379356 1.7995267 0.8530696
v 0.05589074 1.5617533 0.06958592
v -0.17092866 1.9356613 0.22906202
v 0.1343866 1.5514228 0.9504865
v 0.05589074 1.5617533 0.06958592
v 0.13449788 1.6579161 1.7080799
v 0.80163324 1.6271682 2.3541
v 0.32608473 1.2797141 2.2281332
v 0.5753701 1.3736391 2.5266995
v 0.44039786 1.1824746 1.9094169
v -0.027903795 1.7050797 1.9179947
v 0.2114746 1.3911927 2.1489456
v -0.027903795 1.7050797 1.9179947
v 0.09438965 1.8596063 2.3472404
v 0.44039786 1.1824746 1.9094169
v 0.13449788 1.6579161 1.7080799
v 0.80163324 1.6271682 2.3541
v 0.8411532 1.3427756 2.06109
v 0.32608473 1.2797141 2.2281332
v 0.1343866 1.5514228 0.9504865
v 0.42335945 1.4213486 0.09351206
v 0.05589074 1.5617533 0.06958592
v 0.15128067 1.7791648 3.5952487
v 0.2972591 1.981298 2.5182347
v 0.59534085 1.9389586 2.5891395
v 0.59534085 1.9389586 2.5891395
v 0.31207633 1.3333435 3.775795
v 0.15128067 1.7791648 3.5952487
v 1.1119272 1.8059273 2.2039633
v 0.80163324 1.6271682 2.3541
v 0.83638084 2.268577 2.286842
v 0.80163324 1.6271682 2.3541
v 0.5753701 1.3736391 2.5266995
v 0.31207633 1.3333435 3.775795
v 0.5753701 1.3736391 2.5266995
v 0.10104111 1.1379395 3.656839
v -0.038327992 0.48721594 1.3542407
v -0.5441097 0.40510133 1.5329878
v -0.25745183 0.23746777 1.9332235
v -0.25745183 0.23746777 1.9332235
v -0.5441097 0.40510133 1.5329878
v -0.60639334 0.49767065 1.8839707
v 0.40527976 -0.95488805 1.5707114
v 0.13987023 -1.0890241 1.3944877
v -0.13474274 -0.96927786 1.738983
v 0.13987023 -1.0890241 1.3944877
v -0.10470143 -0.8162327 1.346287
v -0.13474274 -0.96927786 1.738983
v -0.6553565 0.8328391 2.118762
v -0.8505591 0.06755483 1.8494377
v -0.24209288 1.0943831 1.9941962
v -0.842853 0.8076375 3.0386343
v -0.9831091 1.1964138 4.4104657
v -0.33050373 1.6776228 4.013279
v -0.4876241 1.3720764 4.9226875
v -0.9700539 1.0140481 4.9341664
v -0.13474274 -0.96927786 1.738983
v -0.10470143 -0.8162327 1.346287
v -0.08166468 -0.55068016 2.0253184
v -0.12240708 -0.8089431 2.00146
v -0.393426 -1.7845225 2.634665
v -0.25485218 -1.242919 2.7844267
v -0.50711703 -1.2534637 3.6018703
v -0.3847588 -0.9258354 3.659566
v -0.3847588 -0.9258354 3.659566
v -0.25485218 -1.242919 2.7844267
v 0.040516138 -0.8856914 3.6254888
v 0.038736343 -1.0854442 3.9046364
v -0.8897208 -2.6166754 0.6139816
v -0.18813097 -2.2869596 0.7707272
v -0.41052315 -2.4206326 0.44549203
v -0.009443641 -2.1979198 1.8093119
v -0.335567 -1.3060589 2.0209966
v -0.49684304 -1.5622318 1.8645022
v -0.3830873 -1.6028998 1.2939448
v -0.5747469 -1.5298839 2.150067
v 0.10452607 1.372668 3.8915105
v 0.15128067 1.7791648 3.5952487
v 0.31207633 1.3333435 3.775795
v -0.18447345 1.5859444 3.7977972
v 0.20026955 2.2112715 2.07254
v 0.30201104 2.1429682 1.4182011
v 0.5073031 2.2036867 1.8034118
v 0.83638084 2.268577 2.286842
v 0.41946256 1.4399455 1.6105098
v 0.72064763 1.5204806 1.6151247
v 0.7234881 1.5596123 0.47500864
v 0.7234881 1.5596123 0.47500864
v 0.1343866 1.5514228 0.9504865
v 0.42335945 1.4213486 0.09351206
v 0.66308457 2.383672 1.2026033
v 0.88670415 2.5115478 0.3659302
v 0.9597308 2.3259723 0.73576766
v 0.5073031 2.2036867 1.8034118
v 0.9717517 1.9290235 1.7025111
v 0.40527976 -0.95488805 1.5707114
v 0.18827622 -0.859823 2.0768929
v 0.20506713 -0.56181866 2.0631766
v 0.3854403 -0.5994362 1.4335444
v 0.43158263 -0.70177805 0.122653335
v 0.31791043 -0.6390492 0.7347895
v 0.2232599 -1.0777291 0.8271334
v 0.36681995 -1.0202007 0.16307952
v 0.20886537 0.5097798 0.29405907
v 0.08932507 0.75248754 0.8441767
v -0.14733532 1.0702461 0.8262136
v -0.026073813 1.0626873 0.17273274
v 0.095101595 0.77123326 1.0551276
v -0.03678173 0.6264479 1.27385
v -0.20560414 1.0013936 1.3474053
v -0.1553213 1.1872765 1.1042218
v 0.15373641 -1.9273732 2.6397254
v 0.07886958 -1.4350035 3.8101888
v 0.24252856 -1.2635679 3.639079
v 0.19961846 -1.4650898 2.74829
v 1.0131987 1.8842263 0.16287398
v 0.77250665 2.3598225 0.06512314
v 0.42335945 1.4213486 0.09351206
v 0.05589074 1.5617533 0.06958592
v 0.0566383 2.2523544 0.083086014
vt 0.19126904 0.32530618
vt 0.25623786 0.2596705
vt 0.1908831 0.28516483
vt 0.2710687 0.16203022
vt 0.19785804 0.12574315
vt 0.21056092 0.065312386
vt 0.122240245 0.0071686506
vt 0.1908831 0.28516483
vt 0.10132772 0.31861556
vt 0.19126904 0.32530618
vt 0.07462144 0.272797
vt 0.19785804 0.12574315
vt 0.078639746 0.13502443
vt 0.122240245 0.0071686506
vt 0.122240245 0.0071686506
vt 0.052831948 0.04861939
vt 0.4328403 0.30957174
vt 0.37280226 0.27555966
vt 0.2874825 0.34737778
vt 0.3340208 0.44129562
vt 0.4328403 0.30957174
vt 0.2874825 0.34737778
vt 0.28158343 0.5159066
vt 0.36577016 0.54197717
vt 0.34419996 0.5780866
vt 0.4694004 0.4355086
vt 0.4328403 0.30957174
vt 0.40538973 0.57714367
vt 0.34419996 0.5780866
vt 0.40538973 0.57714367
vt 0.12742001 0.57460916
vt 0.03216827 0.5391282
vt 0.038885534 0.5907053
vt 0.087815434 0.51269376
vt 0.12742001 0.57460916
vt 0.47436583 0.005257368
vt 0.46853757 0.1212312
vt 0.5336144 0.027517676
vt 0.3722031 0.11996937
vt 0.47284436 0.23010325
vt 0.47436583 0.005257368
vt 0.47284436 0.23010325
vt 0.52134717 0.19131231
vt 0.5336144 0.027517676
vt 0.46853757 0.1212312
vt 0.47284436 0.23010325
vt 0.5336144 0.2650448
vt 0.37351358 0.061435103
vt 0.3722031 0.11996937
vt 0.3167826 0.19174564
vt 0.47284436 0.23010325
vt 0.2893598 0.11715603
vt 0.28158343 0.17085183
vt 0.29451013 0.22075427
vt 0.3714205 0.24353015
vt 0.2893598 0.11715603
vt 0.3167826 0.19174564
vt 0.37351358 0.061435103
vt 0.29253685 0.05325508
vt 0.28158343 0.17085183
vt 0.29451013 0.22075427
vt 0.59893787 0.005257398
vt 0.54412913 0.090301335
vt 0.6514026 0.008322805
vt 0.6359575 0.08864024
vt 0.6514026 0.008322805
vt 0.5614027 0.16156365
vt 0.6359575 0.08864024
vt 0.6653168 0.18730442
vt 0.5977948 0.18730444
vt 0.69893336 0.14480169
vt 0.68063194 0.03458205
vt 0.6514026 0.008322805
vt 0.6989396 0.09829801
vt 0.6514026 0.008322805
vt 0.6359575 0.08864024
vt 0.69893336 0.14480169
vt 0.61779106 0.5365319
vt 0.6605799 0.537189
vt 0.65260506 0.47567797
vt 0.4856801 0.38638973
vt 0.5240371 0.5310998
vt 0.5618098 0.4784565
vt 0.09547451 0.44789088
vt 0.043863058 0.34844875
vt 0.03216827 0.5391282
vt 0.12846309 0.33582103
vt 0.076402724 0.34031188
vt 0.09547451 0.44789088
vt 0.19120425 0.41995025
vt 0.19120425 0.41995025
vt 0.17211637 0.5345017
vt 0.12742001 0.57460916
vt 0.19120425 0.6124128
vt 0.03216827 0.5391282
vt 0.087815434 0.51269376
vt 0.043863058 0.34844875
vt 0.005257368 0.4299822
vt 0.076402724 0.34031188
vt 0.087815434 0.51269376
vt 0.17211637 0.5345017
vt 0.12742001 0.57460916
vt 0.9439743 0.005257383
vt 0.92133963 0.026346996
vt 0.92230517 0.050897866
vt 0.2048216 0.54705447
vt 0.20171906 0.57485074
vt 0.23025267 0.5779813
vt 0.99181455 0.060679287
vt 0.99181455 0.015832514
vt 0.95795304 0.07707518
vt 0.99181455 0.015832514
vt 0.92230517 0.050897866
vt 0.9439743 0.005257383
vt 0.92994523 0.7403246
vt 0.9644186 0.7484749
vt 0.95345074 0.7089351
vt 0.9350405 0.94880307
vt 0.92896676 0.9069126
vt 0.9097414 0.9449656
vt 0.8754177 0.9312648
vt 0.9097414 0.9449656
vt 0.89029837 0.8970248
vt 0.90831196 0.7086367
vt 0.95345074 0.7089351
vt 0.96441853 0.65224516
vt 0.90831196 0.7086367
vt 0.92994523 0.7403246
vt 0.91096747 0.7618531
vt 0.9309 0.7803049
vt 0.9644186 0.7484749
vt 0.89642024 0.8394013
vt 0.89029837 0.8970248
vt 0.9350405 0.84752285
vt 0.92896676 0.9069126
vt 0.89029837 0.8970248
vt 0.45523474 0.7135161
vt 0.43778604 0.77304053
vt 0.47195613 0.77327275
vt 0.92519534 0.59578824
vt 0.9587667 0.6028302
vt 0.9587667 0.56811607
vt 0.92519534 0.59578824
vt 0.92519987 0.5716344
vt 0.8799019 0.97087526
vt 0.9097414 0.9449656
vt 0.8754177 0.9312648
vt 0.62512136 0.59730124
vt 0.65981793 0.61492896
vt 0.65718555 0.56357694
vt 0.23793419 0.34084487
vt 0.25434172 0.35940433
vt 0.26451445 0.3358209
vt 0.20393248 0.39009953
vt 0.23793419 0.34084487
vt 0.20393248 0.39009953
vt 0.24069135 0.41464305
vt 0.20464256 0.7973519
vt 0.15931058 0.7465168
vt 0.17856419 0.8228441
vt 0.19480526 0.74083877
vt 0.15931058 0.7465168
vt 0.20464256 0.7166979
vt 0.15931058 0.7465168
vt 0.14811948 0.7228434
vt 0.14811948 0.7228434
vt 0.1879003 0.68722296
vt 0.20417577 0.6291368
vt 0.15419352 0.6863534
vt 0.14811948 0.7228434
vt 0.20417577 0.6291368
vt 0.15803498 0.6229277
vt 0.14811948 0.7228434
vt 0.11444613 0.7139407
vt 0.12955523 0.67799944
vt 0.673504 0.66144526
vt 0.7197195 0.70913994
vt 0.71750665 0.64365554
vt 0.7569686 0.6702844
vt 0.71750665 0.64365554
vt 0.673504 0.66144526
vt 0.67739475 0.7194681
vt 0.7054869 0.7177156
vt 0.7054869 0.7177156
vt 0.72888196 0.74289584
vt 0.6865035 0.7499857
vt 0.6865035 0.7499857
vt 0.73314 0.7873541
vt 0.73314 0.7873541
vt 0.6945698 0.7852732
vt 0.71787226 0.8393445
vt 0.9457602 0.16873646
vt 0.97448796 0.12713253
vt 0.92133963 0.14228702
vt 0.7472973 0.9307449
vt 0.7472973 0.872887
vt 0.7063047 0.9399264
vt 0.6758912 0.87887037
vt 0.67109454 0.9067825
vt 0.6758912 0.87887037
vt 0.7472973 0.872887
vt 0.7012382 0.85770905
vt 0.7472973 0.872887
vt 0.25500393 0.44121242
vt 0.20171906 0.43906963
vt 0.23550297 0.4701408
vt 0.24069135 0.41464305
vt 0.20171906 0.43906963
vt 0.20393248 0.39009953
vt 0.20321362 0.41665316
vt 0.23550297 0.4701408
vt 0.26442564 0.4729787
vt 0.23550297 0.4701408
vt 0.26451445 0.53147054
vt 0.7569686 0.8405323
vt 0.73314 0.7873541
vt 0.71787226 0.8393445
vt 0.23550297 0.4701408
vt 0.22738786 0.5361283
vt 0.26451445 0.53147054
vt 0.9947426 0.45708233
vt 0.9947426 0.3873455
vt 0.96832395 0.39408684
vt 0.26581168 0.9600434
vt 0.21661913 0.8713036
vt 0.23013186 0.9606418
vt 0.27106857 0.8369423
vt 0.25585747 0.7475963
vt 0.2408557 0.8323798
vt 0.23687859 0.5886013
vt 0.23665145 0.6235741
vt 0.2710687 0.5982694
vt 0.7477224 0.60461164
vt 0.72289455 0.61210215
vt 0.7487867 0.6331406
vt 0.2710687 0.5982694
vt 0.23665145 0.6235741
vt 0.2710687 0.63755363
vt 0.47255656 0.84251046
vt 0.44990036 0.81218815
vt 0.42791948 0.81326413
vt 0.46683666 0.88177514
vt 0.47255656 0.84251046
vt 0.3798369 0.84102917
vt 0.37599066 0.8818276
vt 0.39134404 0.92316103
vt 0.37599066 0.8818276
vt 0.46683666 0.88177514
vt 0.4342868 0.92316103
vt 0.20415044 0.83335876
vt 0.1211288 0.83478457
vt 0.16734242 0.8605154
vt 0.11444616 0.8725538
vt 0.14675379 0.923219
vt 0.16734242 0.8605154
vt 0.1211288 0.83478457
vt 0.5464176 0.7013515
vt 0.571277 0.6997063
vt 0.5676676 0.56357694
vt 0.74836946 0.15128171
vt 0.73740196 0.24730337
vt 0.79581666 0.20594776
vt 0.79581666 0.20594776
vt 0.7759931 0.09773624
vt 0.73740196 0.24730337
vt 0.772573 0.25845027
vt 0.719434 0.084619164
vt 0.7759931 0.09773624
vt 0.7716224 0.05956459
vt 0.73838663 0.005257368
vt 0.7309389 0.055832744
vt 0.719434 0.084619164
vt 0.7309389 0.055832744
vt 0.7428274 0.3830764
vt 0.7877778 0.29566523
vt 0.73401105 0.27555954
vt 0.7534956 0.45036656
vt 0.7363951 0.45448858
vt 0.7363951 0.45448858
vt 0.69476247 0.4492696
vt 0.7578834 0.52376604
vt 0.9578093 0.47567853
vt 0.9578093 0.38734552
vt 0.92519534 0.42992425
vt 0.80894375 0.05984056
vt 0.7716224 0.05956459
vt 0.7759931 0.09773624
vt 0.79803586 0.10387504
vt 0.79581666 0.20594776
vt 0.80894375 0.05984056
vt 0.7759931 0.09773624
vt 0.772573 0.25845027
vt 0.80894375 0.24286008
vt 0.864903 0.67011786
vt 0.8246069 0.6502762
vt 0.8197155 0.69488764
vt 0.8197155 0.69488764
vt 0.844386 0.7070279
vt 0.8246069 0.6502762
vt 0.7674835 0.6436553
vt 0.7872431 0.6899502
vt 0.8197155 0.69488764
vt 0.8239937 0.8098154
vt 0.8246069 0.6502762
vt 0.16734242 0.8605154
vt 0.1783781 0.8982096
vt 0.20415044 0.8993424
vt 0.1928227 0.9322537
vt 0.1783781 0.8982096
vt 0.14675379 0.923219
vt 0.7109214 0.5283303
vt 0.7578834 0.52376604
vt 0.69476247 0.4492696
vt 0.7428274 0.3830764
vt 0.7130693 0.38692904
vt 0.7122122 0.29033825
vt 0.7130693 0.38692904
vt 0.73401105 0.27555954
vt 0.89521444 0.1637944
vt 0.84923756 0.13396466
vt 0.8620515 0.17446804
vt 0.9251953 0.3042364
vt 0.96219283 0.29172707
vt 0.9423704 0.2755599
vt 0.6485996 0.23563111
vt 0.6515205 0.19781919
vt 0.6240959 0.2093509
vt 0.013835907 0.77756715
vt 0.005257368 0.83238626
vt 0.066708684 0.8168068
vt 0.31741714 0.63606346
vt 0.3248155 0.599784
vt 0.28158355 0.6354295
vt 0.55605555 0.2377617
vt 0.59381485 0.19781917
vt 0.5522475 0.20802474
vt 0.54412913 0.26348114
vt 0.59381485 0.23783112
vt 0.59381485 0.19781917
vt 0.835969 0.48681784
vt 0.80950475 0.5761738
vt 0.83078027 0.5493734
vt 0.83078027 0.5493734
vt 0.85419273 0.6303477
vt 0.79829264 0.6084049
vt 0.85419273 0.6303477
vt 0.3357215 0.77865034
vt 0.3864591 0.7388352
vt 0.33516383 0.7147121
vt 0.37257838 0.66567427
vt 0.31741714 0.63606346
vt 0.31741714 0.63606346
vt 0.36161947 0.61466384
vt 0.38822794 0.58860135
vt 0.3248155 0.599784
vt 0.83078027 0.5493734
vt 0.85419273 0.6303477
vt 0.889385 0.5928514
vt 0.85419273 0.6303477
vt 0.9146805 0.6193383
vt 0.835969 0.48681784
vt 0.83078027 0.5493734
vt 0.88171077 0.48731494
vt 0.835969 0.48681784
vt 0.89004946 0.44942403
vt 0.8621838 0.42141032
vt 0.83816504 0.44440794
vt 0.83816504 0.44440794
vt 0.835969 0.48681784
vt 0.10393143 0.8205993
vt 0.07027805 0.7827587
vt 0.066708684 0.8168068
vt 0.3357215 0.77865034
vt 0.37281346 0.8016735
vt 0.38822794 0.7631328
vt 0.3864591 0.7388352
vt 0.3357215 0.77865034
vt 0.87211275 0.038712025
vt 0.9108248 0.018682003
vt 0.87660134 0.005257368
vt 0.9639058 0.48619324
vt 0.9329059 0.5342275
vt 0.9639058 0.5510242
vt 0.92695165 0.5048611
vt 0.9639058 0.48619324
vt 0.9251952 0.5576012
vt 0.9639058 0.5510242
vt 0.9242636 0.18566406
vt 0.964975 0.24158978
vt 0.964975 0.18074584
vt 0.9242636 0.18566406
vt 0.92133963 0.253976
vt 0.964975 0.24158978
vt 0.06295526 0.62292767
vt 0.08993268 0.6840017
vt 0.10393143 0.64154005
vt 0.06295526 0.62292767
vt 0.038015246 0.6740012
vt 0.08993268 0.6840017
vt 0.9251953 0.3042364
vt 0.93261665 0.37248325
vt 0.96219283 0.29172707
vt 0.76748335 0.9831836
vt 0.8141438 0.97392845
vt 0.798252 0.8829789
vt 0.798252 0.8829789
vt 0.83362854 0.8751576
vt 0.79988754 0.83248234
vt 0.83406484 0.8320372
vt 0.8141438 0.97392845
vt 0.83406484 0.96980596
vt 0.89521444 0.1637944
vt 0.87211275 0.038712025
vt 0.84923756 0.13396466
vt 0.87211275 0.038712025
vt 0.8564544 0.03733599
vt 0.87660134 0.005257368
vt 0.89521444 0.1637944
vt 0.8990729 0.064995766
vt 0.87211275 0.038712025
vt 0.89450717 0.19301128
vt 0.9108248 0.17831779
vt 0.9067179 0.8288865
vt 0.9309 0.7803049
vt 0.8812041 0.7945287
vt 0.40538973 0.57714367
vt 0.47516525 0.5165987
vt 0.4694004 0.4355086
vt 0.47516525 0.34918928
vt 0.4328403 0.30957174
vt 0.4694004 0.4355086
vt 0.58049226 0.2834792
vt 0.6435034 0.373734
vt 0.6605799 0.2755599
vt 0.58049226 0.2834792
vt 0.59855664 0.4286852
vt 0.59855664 0.4286852
vt 0.65260506 0.47567797
vt 0.61779106 0.5365319
vt 0.59855664 0.4286852
vt 0.52606 0.3247366
vt 0.5618098 0.4784565
vt 0.61779106 0.5365319
vt 0.5618098 0.4784565
vt 0.5548409 0.55306244
vt 0.18805724 0.005257368
vt 0.122240245 0.0071686506
vt 0.21056092 0.065312386
vt 0.4856801 0.38638973
vt 0.5618098 0.4784565
vt 0.52606 0.3247366
vt 0.8812041 0.7945287
vt 0.87679344 0.8206154
vt 0.9067179 0.8288865
vt 0.2048216 0.54705447
vt 0.23025267 0.5779813
vt 0.23025267 0.54664314
vt 0.92896676 0.9069126
vt 0.89029837 0.8970248
vt 0.9097414 0.9449656
vt 0.6430344 0.8427568
vt 0.6002036 0.8351369
vt 0.6344634 0.8735565
vt 0.5817919 0.87755203
vt 0.6002036 0.8351369
vt 0.62645787 0.89697915
vt 0.6022385 0.8976833
vt 0.60383487 0.9627361
vt 0.3987427 0.77327275
vt 0.43778604 0.77304053
vt 0.4144048 0.7148825
vt 0.4144048 0.7148825
vt 0.45523474 0.7135161
vt 0.41172683 0.6707088
vt 0.4144048 0.7148825
vt 0.46821415 0.6724001
vt 0.4456141 0.65104496
vt 0.90831196 0.7086367
vt 0.96441853 0.65224516
vt 0.92324495 0.64670277
vt 0.902167 0.6436555
vt 0.90831196 0.7086367
vt 0.92994523 0.7403246
vt 0.8754177 0.7323829
vt 0.8754177 0.7323829
vt 0.91096747 0.7618531
vt 0.41078126 0.6530678
vt 0.41172683 0.6707088
vt 0.4456141 0.65104496
vt 0.4456141 0.65104496
vt 0.41025606 0.58860135
vt 0.43799156 0.5887897
vt 0.8754177 0.7323829
vt 0.8801694 0.7578427
vt 0.91096747 0.7618531
vt 0.15931058 0.7465168
vt 0.14956316 0.8036892
vt 0.17856419 0.8228441
vt 0.97448796 0.17023104
vt 0.97448796 0.12713253
vt 0.9457602 0.16873646
vt 0.97448796 0.12713253
vt 0.9522252 0.08758995
vt 0.92133963 0.14228702
vt 0.8194586 0.23472863
vt 0.8496697 0.24262702
vt 0.8496697 0.20352614
vt 0.6257844 0.6951201
vt 0.6115116 0.7670691
vt 0.65981793 0.76396537
vt 0.5965323 0.71194136
vt 0.6115116 0.7670691
vt 0.5817919 0.6680901
vt 0.6492834 0.66417587
vt 0.63710463 0.6419661
vt 0.97198266 0.9201985
vt 0.97198266 0.83940136
vt 0.94555527 0.9025225
vt 0.5910364 0.6328182
vt 0.5817919 0.6680901
vt 0.63710463 0.6419661
vt 0.20321362 0.41665316
vt 0.20171906 0.43906963
vt 0.24069135 0.41464305
vt 0.571277 0.8886708
vt 0.54170287 0.88050175
vt 0.5464932 0.9156415
vt 0.54170287 0.88050175
vt 0.51174057 0.89715314
vt 0.5464932 0.9156415
vt 0.7578834 0.52376604
vt 0.7109214 0.5283303
vt 0.7477224 0.60461164
vt 0.23665145 0.6235741
vt 0.22718662 0.7118558
vt 0.2710687 0.63755363
vt 0.7877778 0.6027014
vt 0.7487867 0.6331406
vt 0.7784674 0.6326228
vt 0.21764246 0.616146
vt 0.23665145 0.6235741
vt 0.23687859 0.5886013
vt 0.69476247 0.4492696
vt 0.7130693 0.38692904
vt 0.6877053 0.44500357
vt 0.7094543 0.07877219
vt 0.719434 0.084619164
vt 0.7309389 0.055832744
vt 0.7363951 0.45448858
vt 0.7744515 0.46168834
vt 0.7534956 0.45036656
vt 0.16734242 0.8605154
vt 0.14675379 0.923219
vt 0.1783781 0.8982096
vt 0.52589166 0.6194202
vt 0.5676676 0.56357694
vt 0.52388704 0.56794417
vt 0.5464176 0.7013515
vt 0.5676676 0.56357694
vt 0.5158874 0.7162026
vt 0.5622083 0.7365384
vt 0.5231806 0.7408682
vt 0.5576979 0.782405
vt 0.5464176 0.7013515
vt 0.52589166 0.6194202
vt 0.5158874 0.7162026
vt 0.52589166 0.6194202
vt 0.52388704 0.56794417
vt 0.48637307 0.5763061
vt 0.48637307 0.5763061
vt 0.49992383 0.66651475
vt 0.8197155 0.69488764
vt 0.8239937 0.8098154
vt 0.864903 0.82152224
vt 0.26581168 0.8474571
vt 0.21661913 0.8713036
vt 0.26581168 0.9600434
vt 0.51100385 0.8132744
vt 0.5576979 0.782405
vt 0.5231806 0.7408682
vt 0.51100385 0.8132744
vt 0.5231806 0.7408682
vt 0.48567998 0.74950266
vt 0.7109214 0.5283303
vt 0.69476247 0.4492696
vt 0.67109454 0.47441986
vt 0.08215594 0.8674778
vt 0.1032424 0.9048857
vt 0.1032424 0.84290093
vt 0.8620515 0.17446804
vt 0.89450717 0.19301128
vt 0.89521444 0.1637944
vt 0.07027805 0.7827587
vt 0.013835907 0.77756715
vt 0.066708684 0.8168068
vt 0.013835907 0.77756715
vt 0.04952669 0.7176862
vt 0.3654759 0.8227259
vt 0.32979476 0.8242898
vt 0.34136522 0.8917706
vt 0.3864591 0.7388352
vt 0.37257838 0.66567427
vt 0.33516383 0.7147121
vt 0.36161947 0.61466384
vt 0.3248155 0.599784
vt 0.31741714 0.63606346
vt 0.36119175 0.9019078
vt 0.32584786 0.9730303
vt 0.3654759 0.9618157
vt 0.34136522 0.8917706
vt 0.32584786 0.9730303
vt 0.3654759 0.8227259
vt 0.86439323 0.88306224
vt 0.86439323 0.8320373
vt 0.8445797 0.8519409
vt 0.87660134 0.005257368
vt 0.8194585 0.031546474
vt 0.8564544 0.03733599
vt 0.8194585 0.031546474
vt 0.836905 0.073450565
vt 0.87660134 0.005257368
vt 0.82952774 0.008857369
vt 0.8621838 0.42141032
vt 0.89004946 0.44942403
vt 0.909286 0.4190309
vt 0.34136522 0.8917706
vt 0.29006368 0.95980847
vt 0.32584786 0.9730303
vt 0.96219283 0.29172707
vt 0.93261665 0.37248325
vt 0.96219283 0.37683082
vt 0.8372729 0.39395452
vt 0.8893666 0.27555943
vt 0.85495377 0.2879529
vt 0.83816504 0.44440794
vt 0.8621838 0.42141032
vt 0.80295134 0.42913723
vt 0.8621838 0.42141032
vt 0.890378 0.39870715
vt 0.8893666 0.27555943
vt 0.890378 0.39870715
vt 0.9146805 0.2803018
vt 0.5910364 0.6328182
vt 0.63710463 0.6419661
vt 0.62512136 0.59730124
vt 0.62512136 0.59730124
vt 0.63710463 0.6419661
vt 0.65981793 0.61492896
vt 0.9309 0.7803049
vt 0.91096747 0.7618531
vt 0.8812041 0.7945287
vt 0.91096747 0.7618531
vt 0.8801694 0.7578427
vt 0.8812041 0.7945287
vt 0.052831948 0.04861939
vt 0.122240245 0.0071686506
vt 0.015373647 0.042557955
vt 0.078639746 0.13502443
vt 0.07462144 0.272797
vt 0.005257368 0.24565578
vt 0.055496514 0.32530618
vt 0.10132772 0.31861556
vt 0.6430344 0.9326629
vt 0.62645787 0.89697915
vt 0.60383487 0.9627361
vt 0.62883687 0.95877916
vt 0.5576979 0.782405
vt 0.51100385 0.8132744
vt 0.54170287 0.88050175
vt 0.51174057 0.89715314
vt 0.7877778 0.6027014
vt 0.7578834 0.52376604
vt 0.7477224 0.60461164
vt 0.7487867 0.6331406
vt 0.8239937 0.8098154
vt 0.77378726 0.7876375
vt 0.78174007 0.81948066
vt 0.7872431 0.6899502
vt 0.49468625 0.7408657
vt 0.5158874 0.7162026
vt 0.49992383 0.66651475
vt 0.5231806 0.7408682
vt 0.6485996 0.23563111
vt 0.6043296 0.23963682
vt 0.6515205 0.25251865
vt 0.6240959 0.2093509
vt 0.008377194 0.65572095
vt 0.023609877 0.7139571
vt 0.038015246 0.6740012
vt 0.06295526 0.62292767
vt 0.32979476 0.8242898
vt 0.30901265 0.81218815
vt 0.2815835 0.9133351
vt 0.2815835 0.9133351
vt 0.34136522 0.8917706
vt 0.29006368 0.95980847
vt 0.04952669 0.7176862
vt 0.07027805 0.7827587
vt 0.08102441 0.7553761
vt 0.038015246 0.6740012
vt 0.08993268 0.6840017
vt 0.66203517 0.20862347
vt 0.66434765 0.26108485
vt 0.69233143 0.26108485
vt 0.69419575 0.19781917
vt 0.6056329 0.77758384
vt 0.6002036 0.8351369
vt 0.6430344 0.8427568
vt 0.6368431 0.7810291
vt 0.71787226 0.8393445
vt 0.6945698 0.7852732
vt 0.67109454 0.78274643
vt 0.6745682 0.84719443
vt 0.88407433 0.20352618
vt 0.86018443 0.20581944
vt 0.86370957 0.2463649
vt 0.8840744 0.25168657
vt 0.21860504 0.72237056
vt 0.21661901 0.83694243
vt 0.2408557 0.8323798
vt 0.25585747 0.7475963
vt 0.027588606 0.93856287
vt 0.07164121 0.92207545
vt 0.005257368 0.87622046
vt 0.021690369 0.84290093
vt 0.07164121 0.8519333
vn 0.10621299 0.1458877 0.983583
vn -0.9643988 -0.24640226 0.096024856
vn -0.96308506 0.23385893 -0.13333082
vn -0.8887393 -0.4516625 -0.07837988
vn -0.95966375 0.22727737 -0.16550103
vn -0.81669414 -0.47660103 -0.32536447
vn -0.26047322 -0.2517678 -0.9320765
vn -0.96308917 0.23382998 -0.1333521
vn -0.8657275 0.35588944 0.35193563
vn 0.106203765 0.14597683 0.9835707
vn -0.9476074 0.28628686 -0.1417039
vn -0.95966876 0.22726312 -0.16549072
vn -0.956096 0.24330653 -0.16334704
vn -0.2604391 -0.2517656 -0.9320867
vn -0.2604661 -0.25179985 -0.9320698
vn -0.90574133 0.3785722 -0.19056612
vn -0.14702138 0.5793397 0.801717
vn 0.34771422 0.59032273 0.7284325
vn 0.39459887 0.17975333 0.9010996
vn 0.589665 -0.082665145 0.80340624
vn -0.14704752 0.57927287 0.80176055
vn 0.39460483 0.1797688 0.9010938
vn 0.6283961 -0.2883467 0.722478
vn 0.16885737 -0.14756711 0.9745312
vn -0.017539516 -0.99433684 -0.104816884
vn 0.106215686 0.14590548 0.98358005
vn -0.14706935 0.57929736 0.80173886
vn -0.07255972 -0.99731475 -0.009920888
vn -0.017634513 -0.99434257 -0.10474709
vn -0.07261275 -0.99731064 -0.0099392645
vn 0.34771255 0.59032005 0.7284354
vn 0.96720755 0.19907439 0.15773049
vn 0.39459598 0.17976484 0.90109855
vn 0.1750196 0.9209533 -0.34815678
vn 0.3476649 0.59034324 0.7284393
vn 0.9672066 0.19907677 0.15773313
vn 0.99537885 0.042983018 0.0858673
vn 0.39461255 0.17974126 0.901096
vn 0.9039587 -0.4102971 -0.1204777
vn 0.24382806 -0.9534738 -0.17730057
vn 0.9671963 0.19911641 0.15774697
vn 0.24383907 -0.9534609 -0.17735493
vn 0.6284092 -0.28835326 0.7224639
vn 0.39461607 0.17980197 0.9010823
vn 0.9953768 0.04298319 0.08589029
vn 0.24381712 -0.95347154 -0.17732808
vn -0.017552767 -0.99433756 -0.10480784
vn 0.84153956 0.48265234 -0.24260625
vn 0.90396357 -0.41028264 -0.12049066
vn 0.8367306 -0.5232955 -0.16138038
vn 0.24381402 -0.95346606 -0.17736173
vn 0.5795974 0.13678569 -0.80334085
vn 0.23924686 -0.26716653 -0.9334789
vn -0.12579636 -0.3719687 -0.9196817
vn 0.26357633 -0.93016976 -0.2555616
vn 0.5795817 0.13677928 -0.80335325
vn 0.8367233 -0.52330625 -0.16138303
vn 0.84155583 0.4826402 -0.2425744
vn 0.8568588 0.3332353 -0.393379
vn 0.23925653 -0.2671587 -0.9334788
vn -0.12579149 -0.3719575 -0.919687
vn -0.38749278 0.9068062 -0.16598777
vn -0.2604507 -0.251821 -0.93206835
vn 0.064255126 0.9285433 -0.3656206
vn -0.13260646 -0.23702343 -0.9624113
vn 0.06428012 0.928539 -0.36562753
vn -0.18866977 -0.3146232 -0.9302772
vn -0.13258861 -0.23702002 -0.96241444
vn -0.12583286 -0.37197036 -0.919676
vn -0.15974891 -0.9213699 -0.35434133
vn 0.23924325 -0.26714218 -0.9334868
vn 0.85685027 0.33324274 -0.39339134
vn 0.06422013 0.92853564 -0.36564666
vn 0.5796024 0.13675836 -0.80334175
vn 0.06425801 0.92853445 -0.3656427
vn -0.13259998 -0.23700526 -0.96241665
vn 0.23920849 -0.26715618 -0.93349177
vn -0.15975498 -0.92136115 -0.35436141
vn -0.18863228 -0.31461194 -0.93028873
vn -0.8167097 -0.47658327 -0.32535136
vn 0.2438433 -0.9534561 -0.1773748
vn 0.8367369 -0.52327615 -0.16141033
vn 0.26356795 -0.93017006 -0.25556913
vn 0.43353486 0.85139596 -0.2952495
vn 0.8568699 0.33324507 -0.3933466
vn 0.96719486 0.19910914 0.15776473
vn -0.38750982 0.906796 -0.16600344
vn 0.064256854 0.92853576 -0.36563978
vn 0.4335131 0.8514189 -0.29521564
vn -0.9560856 0.24332683 -0.16337785
vn -0.95609885 0.24327558 -0.16337699
vn -0.6236444 0.7224 -0.29867345
vn 0.34773862 0.59032094 0.7284223
vn -0.14699748 0.5793071 0.80174506
vn 0.9671955 0.19912039 0.15774639
vn 0.1750466 0.92095983 -0.34812558
vn 0.8568632 0.3332147 -0.39338708
vn 0.8415432 0.48265064 -0.24259692
vn 0.06423576 0.92854244 -0.3656265
vn 0.17503923 0.9209535 -0.34814623
vn -0.623638 0.7224001 -0.29868641
vn 0.34776583 0.59032816 0.72840345
vn -0.93238443 0.1692043 -0.31942037
vn -0.97335905 0.12284154 -0.19360325
vn 0.007324828 -0.9985094 0.054088626
vn -0.09779477 0.9949814 -0.021173
vn 0.9279976 0.18952762 0.32077965
vn 0.9367968 -0.012839362 0.34963834
vn 0.78805494 0.58516467 0.19118501
vn 0.23709732 0.9709699 -0.03166203
vn 0.49634033 -0.23342521 -0.83615726
vn 0.23709008 0.9709728 -0.03162776
vn 0.0072499495 -0.9985128 0.054036114
vn -0.9324062 0.16917323 -0.31937328
vn -0.05330816 -0.8332247 0.54516757
vn 0.1001787 -0.8096773 0.5726256
vn 0.0642365 -0.96852994 0.24019724
vn 0.31095383 0.8785716 -0.35655624
vn 0.27823624 0.9183208 -0.28142923
vn 0.3837498 0.28257817 0.8678024
vn 0.100171834 -0.80969405 0.57260346
vn 0.38371465 0.28265324 0.8677939
vn 0.064239606 -0.96854067 0.2401534
vn -0.97528356 0.07033117 -0.19108438
vn 0.06421808 -0.96853393 0.24018654
vn 0.49641103 -0.23340714 -0.8361203
vn -0.97527057 0.070459865 -0.19110319
vn -0.05333908 -0.8332416 0.5451392
vn -0.03506413 -0.8106872 0.5838512
vn 0.9117411 -0.045948636 0.40629545
vn 0.10017286 -0.8096682 0.57263905
vn 0.49631697 -0.23343721 -0.8361679
vn 0.06421912 -0.9685326 0.24019133
vn 0.7880809 0.5851259 0.19119617
vn 0.27817088 0.91833854 -0.28143567
vn 0.06421521 -0.96852726 0.24021387
vn 0.27820244 0.91832054 -0.28146327
vn 0.23705128 0.9709814 -0.031652518
vn 0.7880689 0.58514035 0.19120206
vn 0.31092766 0.8785951 -0.35652217
vn 0.38372457 0.28265297 0.8677895
vn 0.9117254 -0.045935784 0.40633234
vn 0.31090897 0.8786012 -0.3565241
vn 0.86833334 0.2922292 0.39954662
vn 0.9117171 -0.045938656 0.40635043
vn 0.3837167 0.282635 0.8677988
vn 0.10022412 -0.80966264 0.5726379
vn 0.49215037 -0.86260146 0.117074385
vn -0.5438041 -0.33001322 0.771601
vn 0.062006146 -0.3515976 0.93409526
vn 0.06205654 -0.35152948 0.9341177
vn -0.23784882 0.96969694 0.05581779
vn 0.033237617 0.98629457 0.16161093
vn -0.5438132 -0.33000895 0.7715964
vn 0.06200087 -0.35155937 0.93411005
vn -0.5437893 -0.3299501 0.77163845
vn -0.56633973 0.81890905 -0.02796261
vn -0.23786393 0.9696921 0.05583592
vn 0.89579195 0.3947819 0.13417998
vn 0.033280734 0.98629326 0.16161028
vn -0.56635225 0.8189006 -0.027947739
vn 0.8958037 0.3947465 0.13420281
vn -0.5 0.8412437 0.059712715
vn 0.8958147 0.3947159 0.13421747
vn 0.7409266 0.44271308 0.38880292
vn 0.74096704 0.44267815 0.38876134
vn -0.27899313 0.9561008 0.04302357
vn -0.59776884 0.48849702 -0.63564086
vn 0.83677846 0.5165575 -0.019285962
vn 0.7409635 0.44268307 0.3887629
vn -0.59774154 0.48851362 -0.6356538
vn 0.84282 0.5338234 -0.06845552
vn 0.7409343 0.44270244 0.3887992
vn 0.7594898 0.35120586 0.43260252
vn 0.9080148 0.4164048 0.045982853
vn 0.781637 0.5580106 -0.2786891
vn 0.8810968 0.07938851 -0.46287608
vn 0.7831168 -0.5031937 0.3654093
vn 0.49210018 -0.86263233 0.117058665
vn 0.78309155 -0.5032104 0.3654404
vn 0.7816327 0.5580354 -0.27865177
vn 0.89579684 0.39477685 0.13416246
vn 0.8727378 0.2722627 -0.35713255
vn 0.8727468 0.27224174 -0.35712585
vn 0.72024846 -0.55726755 -0.2833474
vn 0.75945854 0.35127044 0.4326113
vn 0.7594727 0.3511798 0.4326507
vn 0.17693642 -0.93202853 0.31384552
vn 0.17692633 -0.9320314 0.31384248
vn 0.90802217 0.41638678 0.045999452
vn 0.9091336 0.4105847 -0.069968924
vn 0.033333205 0.98629147 0.16161038
vn 0.783077 -0.5032398 0.36543134
vn 0.06198287 -0.35153714 0.9341196
vn 0.9091136 0.4106183 -0.070029765
vn 0.8428028 0.53384525 -0.06849755
vn 0.075366125 -0.26812136 -0.96043354
vn -0.0037535578 -0.014051059 -0.9998948
vn -0.47339955 -0.8702636 0.13613974
vn -0.003789559 -0.014042456 -0.99989474
vn 0.84282506 0.5338148 -0.06846115
vn -0.5977942 0.4885052 -0.6356107
vn 0.8427861 0.5338729 -0.06848788
vn -0.5000223 0.8412311 0.059683546
vn -0.1351112 -0.98905385 -0.022642761
vn -0.85031134 -0.46914357 0.12493497
vn -0.56631273 0.81892973 -0.027914286
vn -0.13515677 -0.98904747 -0.022620603
vn -0.54380536 -0.33001688 0.7715986
vn -0.022214279 -0.9413242 -0.33379078
vn -0.8503137 -0.46915027 0.12489377
vn -0.27901733 0.95609415 0.043007016
vn -0.8503005 -0.46915415 0.12497175
vn -0.5977898 0.4884808 -0.63563347
vn 0.07536067 -0.26813707 -0.96042955
vn 0.17698255 -0.9320016 0.3138985
vn 0.9091414 0.4105669 -0.0699698
vn -0.850313 -0.46915218 0.12489158
vn -0.0037955493 -0.014012612 -0.9998951
vn -0.5977695 0.48855135 -0.63559854
vn -0.15936637 -0.986194 0.018040814
vn -0.47347176 -0.87021667 0.13618831
vn -0.003767848 -0.014071811 -0.9998944
vn 0.11676242 -0.91191536 0.39341742
vn -0.3895951 -0.87795645 0.2782241
vn -0.90242237 -0.41113833 0.12883833
vn 0.03833305 0.93551654 -0.35119757
vn 0.97378784 -0.18794067 0.1281239
vn 0.96740454 -0.2338976 0.09705976
vn 0.50151277 0.2476693 0.82894206
vn 0.901663 -0.39864072 0.16759948
vn -0.32050103 0.48265705 0.81505924
vn 0.03826864 0.9355297 -0.3511697
vn 0.96739465 -0.23392469 0.09709144
vn 0.5015162 0.24767387 0.8289385
vn -0.3204332 0.48271114 0.81505376
vn 0.90165883 -0.39865798 0.16758125
vn 0.11673303 -0.91193855 0.39337248
vn -0.32715094 -0.33444896 -0.88380796
vn 0.45129967 0.8901431 -0.06303874
vn -0.24719715 -0.12788618 -0.96048903
vn -0.2227937 -0.32571757 -0.91884243
vn -0.32719216 -0.33441967 -0.8838037
vn -0.050757572 0.99235064 -0.11253485
vn -0.29360276 -0.26427418 -0.91867137
vn -0.30882916 -0.3492991 -0.88465524
vn -0.29364404 -0.2642661 -0.91866046
vn -0.22279966 -0.32574508 -0.91883117
vn -0.3560498 -0.8453284 0.3983071
vn 0.9737898 -0.18796445 0.12807366
vn 0.8303354 -0.14990947 -0.5367217
vn -0.022348579 -0.97084403 0.23866886
vn 0.16797023 -0.7091233 0.684785
vn -0.4864237 -0.56513685 0.66634274
vn -0.02238588 -0.97083443 0.23870482
vn 0.83032215 -0.14991796 -0.53674006
vn -0.7535284 -0.33546996 0.56538045
vn -0.06436956 -0.93586206 0.3464374
vn -0.30887094 -0.34922725 -0.88466907
vn 0.88191724 0.32900363 -0.33760726
vn 0.45123833 0.8901677 -0.063131124
vn 0.51978326 -0.8541669 -0.0149770975
vn 0.5197907 -0.8541632 -0.014929712
vn 0.82227767 -0.14869839 -0.5493164
vn 0.45127583 0.8901528 -0.063073054
vn -0.32716143 -0.33442444 -0.8838134
vn 0.8218642 -0.13837928 -0.55262154
vn 0.82229775 -0.14869499 -0.54928726
vn 0.8303301 -0.14985079 -0.5367465
vn 0.9737841 -0.18798067 0.12809305
vn 0.8931537 0.21042016 0.397492
vn 0.8218719 -0.13840002 -0.5526048
vn 0.89315736 0.21043473 0.39747617
vn 0.26871842 0.9608142 -0.06801915
vn -0.050741307 0.9923494 -0.112553656
vn -0.24720931 -0.12783787 -0.96049225
vn -0.3263618 0.8872542 -0.32598835
vn 0.026597649 0.9787376 -0.20338607
vn 0.026581407 0.9787411 -0.20337099
vn 0.10230951 0.92850095 -0.35695833
vn -0.80770755 0.47485298 -0.34946173
vn -0.93806666 0.25609684 -0.23333596
vn -0.8398893 0.36787322 0.3990683
vn 0.26870853 0.96081585 -0.06803419
vn 0.16797175 -0.7091231 0.6847849
vn 0.8303268 -0.1498492 -0.5367521
vn 0.82230747 -0.14869237 -0.5492733
vn 0.42287114 -0.9002659 0.10344905
vn 0.5197975 -0.8541584 -0.014967024
vn 0.16788357 -0.7091608 0.6847675
vn 0.822294 -0.14866242 -0.54930174
vn -0.3271806 -0.334381 -0.8838227
vn -0.22273952 -0.32570577 -0.9188597
vn -0.6939406 -0.42480773 0.58136487
vn -0.4864498 -0.5651278 0.6663314
vn -0.06432983 -0.9358368 0.34651345
vn -0.06436247 -0.93583876 0.34650207
vn -0.7535254 -0.3354591 0.5653912
vn -0.4864458 -0.5651549 0.66631126
vn 0.16796243 -0.70911247 0.68479824
vn 0.42288262 -0.90025616 0.103485614
vn -0.06433694 -0.9358498 0.34647685
vn -0.35599306 -0.84534806 0.39831632
vn -0.48636454 -0.56517 0.66635793
vn -0.022391561 -0.97084737 0.23865089
vn -0.5251823 -0.5105424 0.68083054
vn -0.38962567 -0.87792957 0.27826607
vn -0.69395876 -0.42479095 0.58135545
vn -0.5251634 -0.51055807 0.6808333
vn -0.4864081 -0.5651637 0.66633147
vn 0.9737913 -0.18796805 0.12805657
vn -0.80770046 0.4749002 -0.34941375
vn 0.10227959 0.9285079 -0.35694867
vn 0.26868472 0.9608208 -0.06805828
vn 0.8819226 0.32898915 -0.33760732
vn 0.45127594 0.89015263 -0.06307463
vn 0.88191706 0.32902434 -0.33758768
vn -0.24721076 -0.12789367 -0.96048456
vn 0.5113728 -0.85610515 0.07471374
vn -0.63292503 -0.7523389 -0.18273579
vn -0.997263 0.006430611 -0.07365553
vn -0.41426152 0.9019235 0.12215364
vn 0.734654 0.5321318 0.42085546
vn -0.9858918 0.1642459 0.03225805
vn 0.26667434 0.42318738 0.86590844
vn -0.99725884 0.006469112 -0.07370789
vn -0.98589176 0.16423996 0.032289594
vn -0.45518127 0.8164428 0.3552903
vn -0.049601078 0.0972411 -0.9940241
vn -0.043909326 0.5608301 -0.82676566
vn -0.6370144 0.66659033 0.3871303
vn -0.04964477 0.09721902 -0.99402404
vn -0.45511377 0.81646806 0.35531858
vn 0.12651321 -0.99181056 -0.017496914
vn 0.45436612 -0.69538814 0.5567644
vn 0.8080566 -0.5885344 -0.025917381
vn -0.9693919 0.2442786 0.024641395
vn 0.44934464 -0.7489324 -0.4870211
vn 0.45430708 -0.69541377 0.55678046
vn 0.65963763 0.6837891 0.3119468
vn 0.67673737 0.67269117 0.29918736
vn 0.9481937 -0.30633983 -0.08417055
vn 0.9481826 -0.30637407 -0.08417025
vn 0.31251013 -0.18494299 -0.9317369
vn 0.40649816 0.89695674 0.1738613
vn 0.31247687 -0.18493256 -0.9317501
vn -0.39385998 0.8269712 0.4012397
vn -0.96939224 0.24428017 0.024612397
vn -0.8910108 0.4101362 0.1946483
vn -0.9270096 0.13674708 0.34921813
vn -0.63700676 0.6665999 0.38712668
vn -0.636963 0.6666026 0.38719383
vn -0.88695633 -0.44741705 0.114571825
vn -0.22462918 -0.649688 -0.72625554
vn -0.049606472 0.097254515 -0.9940224
vn 0.94818324 -0.3063758 -0.08415678
vn 0.3124744 -0.18499447 -0.9317386
vn 0.53690183 -0.8264209 0.1696022
vn 0.31246093 -0.18495488 -0.9317509
vn -0.0015149713 -0.22378844 -0.9746366
vn 0.65964514 0.6837962 0.31191525
vn 0.9481859 -0.3063657 -0.0841628
vn 0.80807316 -0.58851063 -0.025943607
vn 0.65965694 0.6837475 0.3119969
vn 0.45435062 -0.6953812 0.5567857
vn 0.6152458 -0.0050702244 0.7883191
vn 0.7545909 0.054270893 0.6539474
vn 0.754588 0.054228425 0.6539543
vn 0.6596335 0.68382293 0.31188124
vn 0.31244153 -0.18491009 -0.93176633
vn 0.40647545 0.8969741 0.17382568
vn -0.04388251 0.56085455 -0.8267505
vn -0.39386946 0.82696474 0.4012435
vn -0.9448474 0.008122049 -0.32740986
vn -0.7888449 0.37635636 -0.48588032
vn -0.9693869 0.24429756 0.02465126
vn -0.39385983 0.8269648 0.40125263
vn 0.24609782 -0.9675132 -0.057915628
vn 0.4543302 -0.6953853 0.5567975
vn 0.4493172 -0.74896955 -0.48698932
vn 0.64652205 0.16693379 0.74440736
vn -0.02041956 0.9845952 0.17365381
vn -0.39385387 0.8269554 0.40127796
vn 0.95369244 -0.017684767 0.30026308
vn 0.6465795 0.1669949 0.7443437
vn -0.94482374 0.008160498 -0.32747746
vn -0.39386588 0.826936 0.4013062
vn -0.89102244 0.41009223 0.19468749
vn -0.45514405 0.81646293 0.35529166
vn 0.5201236 0.78041095 0.34703064
vn -0.89100933 0.41013336 0.19466138
vn -0.636988 0.6666023 0.38715336
vn -0.4551373 0.816464 0.35529777
vn 0.6465282 0.16701663 0.7443835
vn 0.65964764 0.6837908 0.31192154
vn 0.7545674 0.05428414 0.6539733
vn 0.6465492 0.16696665 0.7443763
vn 0.5619092 0.78217095 0.26919588
vn 0.6596692 0.68377817 0.31190398
vn -0.41426978 0.9019241 0.12212187
vn -0.020393781 0.9845987 0.17363682
vn 0.734638 0.53214395 0.4208682
vn -0.9292845 -0.17056668 -0.32762378
vn -0.9448376 0.008137502 -0.32743806
vn -0.63294965 -0.752338 -0.182654
vn -0.6329281 -0.75232893 -0.18276578
vn -0.4142519 0.90193 0.12213892
vn -0.9972606 0.006428499 -0.07368885
vn -0.98588943 0.16425267 0.032298118
vn -0.9448487 0.008144654 -0.3274059
vn -0.020415038 0.9845908 0.17367852
vn 0.5113363 -0.85612494 0.07473487
vn 0.2460598 -0.96752614 -0.057860225
vn -0.6329417 -0.7523305 -0.18271253
vn 0.24607556 -0.9675216 -0.05786872
vn -0.9292956 -0.17057592 -0.32758746
vn 0.4493627 -0.74899894 -0.4869023
vn 0.51135045 -0.8561164 0.07473698
vn 0.96015334 -0.21523817 0.17826405
vn 0.24606729 -0.9675211 -0.057914138
vn 0.26672953 0.42316017 0.86590475
vn 0.7637109 -0.6178929 0.18696052
vn 0.93682414 -0.0128913745 0.34956306
vn 0.9117223 -0.045913167 0.4063418
vn -0.9993902 -0.033126045 0.011040345
vn -0.07259937 -0.99731153 -0.00995316
vn -0.96439517 -0.24641958 0.09601787
vn 0.106183045 0.14596014 0.98357546
vn -0.8657167 0.35592592 0.35192543
vn -0.14702876 0.579316 0.8017328
vn 0.10620623 0.14590338 0.9835813
vn -0.07259173 -0.9973125 -0.009915184
vn -0.8887284 -0.45169136 -0.07833786
vn -0.9644035 -0.24639077 0.096008055
vn -0.07258537 -0.99731284 -0.0099185
vn -0.080638506 -0.98515594 -0.15154277
vn -0.08064723 -0.98515445 -0.1515477
vn -0.81669456 -0.4766006 -0.32536414
vn -0.15974846 -0.9213826 -0.35430837
vn -0.0806475 -0.9851522 -0.15156217
vn -0.017575003 -0.994342 -0.10476257
vn 0.26358646 -0.93016434 -0.2555713
vn -0.15976173 -0.921371 -0.35433275
vn 0.26360554 -0.9301565 -0.25557998
vn -0.12576775 -0.37197766 -0.919682
vn -0.18865359 -0.31462187 -0.930281
vn -0.2604535 -0.25175545 -0.9320854
vn -0.8166852 -0.47661412 -0.3253675
vn 0.24383302 -0.95346004 -0.17736775
vn 0.26356873 -0.93016815 -0.2555753
vn -0.017593296 -0.99434304 -0.104748935
vn -0.9993916 -0.033071924 0.011074111
vn -0.42230928 -0.6940609 0.5830388
vn 0.93680674 -0.012917141 0.3496088
vn -0.097789496 0.9949832 -0.021118112
vn 0.9367922 -0.012784767 0.3496524
vn -0.4223424 -0.6940518 0.58302563
vn 0.27823746 0.91830456 -0.28148037
vn 0.064262055 -0.9685344 0.24017246
vn 0.38374463 0.28263566 0.8677864
vn -0.9752829 0.07038056 -0.19106959
vn -0.9074496 0.3485832 -0.22865742
vn -0.8172149 0.4696521 -0.30878
vn 0.15516979 0.90204704 -0.3986267
vn -0.9074517 0.3485722 -0.22866544
vn -0.87226504 0.47885922 0.079620466
vn -0.771643 0.6282454 0.088967234
vn -0.097860456 0.9949758 -0.021137398
vn -0.9324137 0.16917637 -0.31935
vn 0.23707323 0.9709753 -0.031677388
vn -0.9074418 0.34856305 -0.22871898
vn -0.90743834 0.34856182 -0.22873467
vn 0.2782228 0.91831225 -0.2814703
vn 0.15521348 0.9020368 -0.39863282
vn -0.9074607 0.34857118 -0.22863151
vn 0.31099403 0.87858176 -0.3564965
vn 0.86833394 0.292208 0.39956066
vn -0.9752609 0.07040816 -0.19117133
vn 0.4963976 -0.2334217 -0.83612424
vn 0.007294905 -0.9985132 0.054023292
vn -0.97335875 0.12290386 -0.19356516
vn -0.97528625 0.07036483 -0.19105823
vn -0.053341575 -0.8332464 0.54513174
vn -0.81721437 0.46968934 -0.30872566
vn -0.8171952 0.46969634 -0.30876616
vn -0.035049275 -0.8106849 0.5838553
vn -0.7716491 0.62823987 0.08895351
vn 0.15518911 0.9020308 -0.3986555
vn 0.8683486 0.29225603 0.39949387
vn 0.86834365 0.29223067 0.39952296
vn -0.09782146 0.9949791 -0.021165676
vn 0.92799354 0.18951672 0.3207977
vn -0.8171811 0.4696784 -0.3088302
vn -0.8722611 0.47887143 0.07959148
vn -0.035048865 -0.81067055 0.5838752
vn 0.89577544 0.39479846 0.13424319
vn 0.78164387 0.5580236 -0.27864423
vn 0.03328721 0.98628896 0.16163489
vn 0.7816254 0.55805093 -0.27864113
vn 0.7831255 -0.50319725 0.3653859
vn 0.033291906 0.98628587 0.16165297
vn 0.7831044 -0.5032084 0.36541593
vn 0.49208993 -0.86263895 0.117053404
vn 0.06200987 -0.3515649 0.93410736
vn -0.13512689 -0.9890551 -0.022527568
vn -0.15935601 -0.98619616 0.018021014
vn -0.8503182 -0.46913603 0.12491483
vn -0.15937428 -0.986193 0.01802377
vn 0.07542004 -0.26813132 -0.9604265
vn -0.47345647 -0.870226 0.13618268
vn 0.17697577 -0.93200994 0.31387788
vn 0.075290814 -0.26809508 -0.9604468
vn 0.72027075 -0.5572632 -0.28329873
vn -0.13511115 -0.9890559 -0.022579689
vn -0.022204757 -0.94131064 -0.33382866
vn -0.15936092 -0.98619485 0.018048536
vn -0.0037613213 -0.014052261 -0.9998946
vn -0.85031056 -0.46915054 0.124914914
vn 0.88111454 0.07942785 -0.4628354
vn 0.720247 -0.55725783 -0.2833675
vn -0.022187456 -0.94131035 -0.3338309
vn -0.022247717 -0.9413205 -0.3337985
vn -0.13510753 -0.989056 -0.022595637
vn -0.5663463 0.8189036 -0.02798383
vn 0.11677515 -0.9119108 0.3934244
vn -0.90242267 -0.41114312 0.1288215
vn -0.32053939 0.4826855 0.81502724
vn -0.90242356 -0.4111248 0.12887347
vn -0.2311975 0.9099469 -0.34430346
vn -0.3204661 0.4826683 0.8150662
vn -0.80768687 0.47486937 -0.3494871
vn 0.97379047 -0.18794379 0.12809834
vn 0.03830602 0.93550026 -0.3512441
vn 0.90168077 -0.39860597 0.16758627
vn -0.022386 -0.97084486 0.23866183
vn 0.11673623 -0.91193247 0.3933857
vn -0.23119485 0.9099673 -0.34425145
vn 0.5015239 0.24773365 0.82891613
vn -0.32048962 0.48267835 0.815051
vn 0.9673911 -0.2339403 0.0970906
vn 0.90167487 -0.39860177 0.16762786
vn 0.50151527 0.24765469 0.82894504
vn 0.102324955 0.9285097 -0.3569308
vn 0.88192767 0.32901418 -0.33756986
vn 0.8218806 -0.13837045 -0.55259943
vn 0.10226509 0.92848814 -0.357004
vn 0.8218781 -0.13839513 -0.5525969
vn 0.8931485 0.21045561 0.3974851
vn 0.02656757 0.9787372 -0.20339148
vn -0.92493045 0.31125647 -0.21822743
vn -0.32636964 0.8872452 -0.32600486
vn -0.02241392 -0.97084755 0.23864876
vn -0.4864179 -0.56516105 0.66632646
vn -0.5251798 -0.5105559 0.6808223
vn -0.8398737 0.36788952 0.39908588
vn -0.3088815 -0.3492595 -0.8846527
vn -0.2935735 -0.26428652 -0.91867715
vn -0.75351495 -0.33546042 0.56540424
vn -0.3089144 -0.34935904 -0.88460183
vn -0.9380797 0.25609446 -0.23328608
vn -0.6939595 -0.4248044 0.5813448
vn -0.9249264 0.3112709 -0.21822405
vn -0.38965383 -0.8779385 0.278198
vn -0.7535397 -0.33548057 0.56535923
vn -0.8398715 0.3678767 0.39910227
vn -0.9380911 0.25606868 -0.23326868
vn -0.8398817 0.36786273 0.3990937
vn -0.2936163 -0.2643302 -0.9186508
vn -0.050759926 0.99234533 -0.11258137
vn -0.050792575 0.99234396 -0.112578124
vn 0.2686826 0.960819 -0.06809211
vn -0.06433522 -0.9358458 0.34648794
vn -0.35599774 -0.84536254 0.39828157
vn -0.30890816 -0.3492815 -0.8846346
vn -0.022363331 -0.9708452 0.23866288
vn -0.3895942 -0.87794316 0.2782672
vn 0.11673911 -0.9119217 0.39340955
vn -0.8076994 0.4748547 -0.349478
vn -0.38957843 -0.87793815 0.27830482
vn -0.92492217 0.31127286 -0.21823984
vn -0.8076804 0.47485203 -0.3495255
vn -0.92494166 0.31124258 -0.21819992
vn 0.026586305 0.97874695 -0.20334254
vn 0.9737809 -0.18797627 0.12812465
vn 0.10229196 0.928509 -0.35694218
vn 0.89315265 0.21044637 0.39748055
vn -0.89101636 0.410117 0.19466326
vn 0.52010876 0.7804152 0.3470433
vn 0.56190467 0.78217906 0.2691821
vn -0.9972602 0.0064036883 -0.073695585
vn 0.26662046 0.4231689 0.86593413
vn 0.51135814 -0.8561096 0.07476196
vn 0.40648547 0.8969644 0.17385241
vn -0.4550941 0.8164763 0.35532492
vn -0.04387565 0.56080824 -0.8267823
vn -0.45514923 0.8164731 0.35526162
vn 0.5201398 0.7804245 0.34697568
vn -0.9693922 0.24427995 0.024612337
vn 0.12649328 -0.9918132 -0.017490596
vn -0.17225209 -0.97847885 -0.113614544
vn -0.9693913 0.24428184 0.024633676
vn -0.92702127 0.13673079 0.34919366
vn -0.8910029 0.41013682 0.19468385
vn -0.8869646 -0.4473989 0.11457741
vn -0.04964894 0.09723872 -0.9940219
vn -0.63700324 0.66657835 0.38716948
vn -0.9270238 0.13676287 0.34917438
vn -0.22463964 -0.6497013 -0.7262404
vn -0.8869771 -0.4473682 0.11460048
vn -0.17228685 -0.97847223 -0.113619775
vn -0.22464804 -0.649698 -0.7262407
vn -0.96938866 0.24428788 0.024675027
vn 0.6152347 -0.0050190836 0.7883282
vn 0.24606173 -0.96752155 -0.05793017
vn 0.96015936 -0.21524823 0.17821956
vn 0.44933072 -0.74894494 -0.4870149
vn -0.7888558 0.3762993 -0.48590678
vn -0.92929053 -0.17055936 -0.32761037
vn -0.7888595 0.37636542 -0.48584974
vn -0.9448439 0.008178886 -0.3274188
vn 0.4493283 -0.7490088 -0.48691875
vn -0.96938825 0.24429712 0.024600804
vn 0.615203 -0.005058393 0.7883526
vn 0.45434654 -0.6954137 0.55674845
vn 0.24607906 -0.9675195 -0.057890356
vn -0.17226444 -0.97847116 -0.11366251
vn -0.0015280396 -0.22384313 -0.974624
vn -0.22464587 -0.64969265 -0.72624636
vn 0.7346596 0.5321409 0.42083406
vn -0.020427011 0.984596 0.17364827
vn 0.9536887 -0.017732888 0.30027205
vn 0.95368534 -0.017721025 0.30028358
vn 0.7636829 -0.61793303 0.18694174
vn 0.7346225 0.5321456 0.42089313
vn 0.754569 0.054268822 0.6539729
vn 0.61522025 -0.0050490797 0.788339
vn 0.64655286 0.16697375 0.7443716
vn 0.61520743 -0.0050463676 0.78834915
vn 0.96016175 -0.21523984 0.17821683
vn 0.7636969 -0.617908 0.18696736
vn 0.96014637 -0.21525341 0.17828271
vn 0.5113668 -0.8561071 0.07473165
vn 0.88111573 0.07939538 -0.46283868
vn -0.022207916 -0.94131696 -0.33381107
vn 0.49210405 -0.86262614 0.11708814
vn 0.49212956 -0.8626246 0.11699183
vn -0.022230223 -0.94130194 -0.33385134
vn -0.5437792 -0.33000165 0.7716236
vn 0.911702 -0.045918602 0.40638682
vn -0.03507258 -0.81068176 0.5838582
vn -0.99939203 -0.033050194 0.011099264
vn -0.035075784 -0.81068987 0.58384687
vn -0.87225455 0.47888696 0.07956909
vn -0.99939114 -0.03309885 0.01103875
vn -0.9057445 0.3785492 -0.19059765
vn -0.2604374 -0.25178516 -0.93208176
vn -0.3875532 0.9067826 -0.1659755
vn -0.95610154 0.24329388 -0.16333419
vn -0.94760597 0.2862795 -0.14172843
vn -0.62364376 0.7223933 -0.29869112
vn -0.14705074 0.5792849 0.8017512
vn -0.86572903 0.35587543 0.351946
vn -0.9993909 -0.03310339 0.011048451
vn -0.87226975 0.47885084 0.0796195
vn -0.09783416 0.99497855 -0.021128207
vn -0.4223163 -0.6940769 0.5830147
vn -0.38961646 -0.87792826 0.27828267
vn -0.80767715 0.4748857 -0.34948716
vn -0.90242696 -0.411107 0.12890589
vn -0.23117238 0.90999603 -0.34419036
vn -0.23119009 0.90997064 -0.34424558
vn -0.8076884 0.47484457 -0.3495171
vn 0.03831108 0.935508 -0.35122305
vn 0.50152934 0.2476889 0.8289262
vn -0.35604215 -0.84536064 0.39824575
vn 0.5197779 -0.85417044 -0.014967442
vn -0.22276583 -0.3257299 -0.9188448
vn 0.42288962 -0.9002576 0.10344505
vn -0.32635808 0.8872443 -0.32601863
vn -0.93808407 0.25610286 -0.23325945
vn 0.26872364 0.96081746 -0.06795275
vn -0.9249372 0.31123415 -0.21823086
vn 0.26669168 0.42316782 0.8659127
vn 0.73462856 0.53215975 0.42086452
vn 0.7637082 -0.6179106 0.18691279
vn -0.985882 0.16430658 0.032250732
vn -0.39388072 0.8269364 0.40129068
vn -0.89100087 0.4101284 0.19471046
vn 0.5618975 0.78218526 0.2691787
vn 0.6466027 0.16696316 0.74433076
vn 0.126475 -0.99181485 -0.017533362
vn 0.80806464 -0.5885206 -0.025981575
vn 0.5368778 -0.8264395 0.1695872
vn 0.53688306 -0.82643914 0.16957258
vn -0.17227434 -0.9784746 -0.1136173
vn -0.0015839189 -0.22382936 -0.97462714
vn 0.5201425 0.7804228 0.3469752
vn 0.40647894 0.8969723 0.17382628
vn 0.6767213 0.6727046 0.29919386
vn 0.56189287 0.7821822 0.2691974
vn 0.65963966 0.6837905 0.31193924
vn 0.9117285 -0.045905754 0.4063287
vn 0.93679655 -0.01287693 0.3496374
vn 0.9280006 0.18953194 0.32076848
vn 0.86834615 0.2921937 0.39954448
vn -0.93239856 0.16919366 -0.31938463
vn -0.9074606 0.3485442 -0.2286732
vn -0.9752816 0.07034449 -0.19108896
vn -0.9733597 0.12291477 -0.19355395
vn 0.9091399 0.41056275 -0.070014894
vn 0.9080201 0.41639602 0.045958787
vn 0.83677083 0.5165696 -0.019304618
vn 0.8428217 0.53381866 -0.06846972
vn 0.7594687 0.35122636 0.432625
vn 0.87274563 0.27227938 -0.35710078
vn 0.89579904 0.39477077 0.13416478
vn 0.7409305 0.44268706 0.3888215
vn -0.022353835 -0.9708463 0.23865914
vn 0.90167993 -0.39859653 0.16761303
vn 0.9674034 -0.2338922 0.09708238
vn 0.97379136 -0.18796441 0.12806192
vn 0.31249344 -0.18494007 -0.93174297
vn -0.04387457 0.56080455 -0.82678485
vn -0.0015702695 -0.2238205 -0.9746291
vn -0.22459766 -0.6497037 -0.7262513
vn -0.049621433 0.09723985 -0.9940231
g 0.4000_0
f 3/3/3 2/2/2 1/1/1
f 2/2/2 5/5/5 4/4/4
f 5/5/5 6/6/6 4/4/4
f 5/5/5 7/7/7 6/6/6
f 8/8/8 5/5/5 2/2/2
f 8/8/8 10/10/10 9/9/9
f 11/11/11 8/8/8 9/9/9
f 12/12/12 8/8/8 11/11/11
f 13/13/13 12/12/12 11/11/11
f 13/13/13 14/14/14 12/12/12
f 13/13/13 16/16/16 15/15/15
f 19/19/19 18/18/18 17/17/17
f 21/21/21 20/20/20 19/19/19
f 23/23/23 22/22/22 20/20/20
f 24/24/24 23/23/23 20/20/20
f 24/24/24 25/25/25 23/23/23
f 26/26/26 24/24/24 20/20/20
f 26/26/26 20/20/20 27/27/27
f 26/26/26 28/28/28 24/24/24
f 30/30/30 29/29/29 24/24/24
f 33/33/33 32/32/32 31/31/31
f 35/35/35 32/32/32 34/34/34
f 38/38/38 37/37/37 36/36/36
f 40/40/40 39/39/39 37/37/37
f 37/37/37 39/39/39 41/41/41
f 43/43/43 42/42/42 37/37/37
f 43/43/43 45/45/45 44/44/44
f 47/47/47 46/46/46 43/43/43
f 41/41/41 49/49/49 48/48/48
f 51/51/51 50/50/50 49/49/49
f 50/50/50 53/53/53 52/52/52
f 55/55/55 54/54/54 50/50/50
f 57/57/57 56/56/56 49/49/49
f 49/49/49 56/56/56 58/58/58
f 56/56/56 59/59/59 58/58/58
f 61/61/61 60/60/60 57/57/57
f 64/64/64 63/63/63 62/62/62
f 66/66/66 65/65/65 63/63/63
f 63/63/63 68/68/68 67/67/67
f 68/68/68 69/69/69 67/67/67
f 70/70/70 67/67/67 69/69/69
f 71/71/71 69/69/69 68/68/68
f 74/74/74 73/73/73 72/72/72
f 76/76/76 75/75/75 74/74/74
f 74/74/74 77/77/77 76/76/76
f 80/80/80 79/79/79 78/78/78
f 83/83/83 82/82/82 81/81/81
f 86/86/86 85/85/85 84/84/84
f 84/84/84 88/88/88 87/87/87
f 90/90/90 89/89/89 87/87/87
f 92/92/92 89/89/89 91/91/91
f 94/94/94 93/93/93 92/92/92
f 96/96/96 95/95/95 84/84/84
f 95/95/95 98/98/98 97/97/97
f 84/84/84 97/97/97 99/99/99
f 101/101/101 100/100/100 84/84/84
f 102/102/102 100/100/100 101/101/101
f 105/105/105 104/104/104 103/103/103
f 108/108/108 107/107/107 106/106/106
f 111/111/111 110/110/110 109/109/109
f 111/111/111 113/113/113 112/112/112
f 112/112/112 113/113/113 114/114/114
f 117/117/117 116/116/116 115/115/115
f 120/120/120 119/119/119 118/118/118
f 123/123/123 122/122/122 121/121/121
f 126/126/126 125/125/125 124/124/124
f 125/125/125 128/128/128 127/127/127
f 130/130/130 129/129/129 128/128/128
f 131/131/131 130/130/130 128/128/128
f 134/134/134 133/133/133 132/132/132
f 136/136/136 134/134/134 135/135/135
f 139/139/139 138/138/138 137/137/137
f 142/142/142 141/141/141 140/140/140
f 144/144/144 142/142/142 143/143/143
f 147/147/147 146/146/146 145/145/145
f 150/150/150 149/149/149 148/148/148
f 153/153/153 152/152/152 151/151/151
f 155/155/155 152/152/152 154/154/154
f 152/152/152 157/157/157 156/156/156
f 160/160/160 159/159/159 158/158/158
f 158/158/158 162/162/162 161/161/161
f 164/164/164 163/163/163 161/161/161
f 162/162/162 165/165/165 163/163/163
f 167/167/167 163/163/163 166/166/166
f 169/169/169 168/168/168 167/167/167
f 169/169/169 167/167/167 170/170/170
f 169/169/169 172/172/172 171/171/171
f 174/174/174 169/169/169 173/173/173
f 174/174/174 175/175/175 169/169/169
f 178/178/178 177/177/177 176/176/176
f 180/180/180 179/179/179 177/177/177
f 182/182/182 181/181/181 177/177/177
f 183/183/183 182/182/182 177/177/177
f 177/177/177 185/185/185 184/184/184
f 185/185/185 186/186/186 184/184/184
f 188/188/188 187/187/187 185/185/185
f 190/190/190 186/186/186 189/189/189
f 191/191/191 190/190/190 189/189/189
f 194/194/194 193/193/193 192/192/192
f 197/197/197 196/196/196 195/195/195
f 197/197/197 199/199/199 198/198/198
f 201/201/201 197/197/197 200/200/200
f 203/203/203 200/200/200 202/202/202
f 206/206/206 205/205/205 204/204/204
f 204/204/204 208/208/208 207/207/207
f 207/207/207 210/210/210 209/209/209
f 212/212/212 211/211/211 204/204/204
f 212/212/212 214/214/214 213/213/213
f 217/217/217 216/216/216 215/215/215
f 220/220/220 219/219/219 218/218/218
f 223/223/223 222/222/222 221/221/221
f 226/226/226 225/225/225 224/224/224
f 229/229/229 228/228/228 227/227/227
f 232/232/232 231/231/231 230/230/230
f 235/235/235 234/234/234 233/233/233
f 238/238/238 237/237/237 236/236/236
f 241/241/241 240/240/240 239/239/239
f 243/243/243 242/242/242 241/241/241
f 241/241/241 245/245/245 244/244/244
f 247/247/247 241/241/241 246/246/246
f 241/241/241 248/248/248 246/246/246
f 249/249/249 246/246/246 248/248/248
f 252/252/252 251/251/251 250/250/250
f 254/254/254 253/253/253 252/252/252
f 253/253/253 256/256/256 255/255/255
f 259/259/259 258/258/258 257/257/257
f 262/262/262 261/261/261 260/260/260
f 264/264/264 263/263/263 260/260/260
f 263/263/263 266/266/266 265/265/265
f 268/268/268 260/260/260 267/267/267
f 268/268/268 267/267/267 269/269/269
f 269/269/269 271/271/271 270/270/270
f 273/273/273 269/269/269 272/272/272
f 276/276/276 275/275/275 274/274/274
f 278/278/278 274/274/274 277/277/277
f 280/280/280 274/274/274 279/279/279
f 280/280/280 279/279/279 281/281/281
f 284/284/284 283/283/283 282/282/282
f 287/287/287 286/286/286 285/285/285
f 289/289/289 287/287/287 288/288/288
f 288/288/288 291/291/291 290/290/290
f 293/293/293 292/292/292 289/289/289
f 296/296/296 295/295/295 294/294/294
f 298/298/298 297/297/297 294/294/294
f 301/301/301 300/300/300 299/299/299
f 303/303/303 301/301/301 302/302/302
f 302/302/302 301/301/301 304/304/304
f 307/307/307 306/306/306 305/305/305
f 309/309/309 307/307/307 308/308/308
f 310/310/310 309/309/309 308/308/308
f 313/313/313 312/312/312 311/311/311
f 313/313/313 315/315/315 314/314/314
f 314/314/314 317/317/317 316/316/316
f 318/318/318 314/314/314 316/316/316
f 321/321/321 320/320/320 319/319/319
f 324/324/324 323/323/323 322/322/322
f 327/327/327 326/326/326 325/325/325
f 330/330/330 329/329/329 328/328/328
f 333/333/333 332/332/332 331/331/331
f 336/336/336 335/335/335 334/334/334
f 334/334/334 338/338/338 337/337/337
f 334/334/334 339/339/339 338/338/338
f 342/342/342 341/341/341 340/340/340
f 344/344/344 341/341/341 343/343/343
f 346/346/346 345/345/345 341/341/341
f 349/349/349 348/348/348 347/347/347
f 351/351/351 350/350/350 349/349/349
f 353/353/353 350/350/350 352/352/352
f 355/355/355 354/354/354 353/353/353
f 358/358/358 357/357/357 356/356/356
f 360/360/360 359/359/359 358/358/358
f 358/358/358 362/362/362 361/361/361
f 358/358/358 364/364/364 363/363/363
f 364/364/364 365/365/365 363/363/363
f 365/365/365 367/367/367 366/366/366
f 365/365/365 369/369/369 368/368/368
f 372/372/372 371/371/371 370/370/370
f 375/375/375 374/374/374 373/373/373
f 377/377/377 376/376/376 375/375/375
f 380/380/380 379/379/379 378/378/378
f 383/383/383 382/382/382 381/381/381
f 385/385/385 382/382/382 384/384/384
f 387/387/387 386/386/386 382/382/382
f 390/390/390 389/389/389 388/388/388
f 393/393/393 392/392/392 391/391/391
f 396/396/396 395/395/395 394/394/394
f 399/399/399 398/398/398 397/397/397
f 402/402/402 401/401/401 400/400/400
f 405/405/405 404/404/404 403/403/403
f 407/407/407 404/404/404 406/406/406
f 406/406/406 408/408/408 407/407/407
f 408/408/408 409/409/409 407/407/407
f 411/411/411 410/410/410 407/407/407
f 414/414/414 413/413/413 412/412/412
f 416/416/416 415/415/415 414/414/414
f 416/416/416 417/417/417 415/415/415
f 420/420/420 419/419/419 418/418/418
f 418/418/418 422/422/422 421/421/421
f 425/425/425 424/424/424 423/423/423
f 428/428/428 427/427/427 426/426/426
f 431/431/431 430/430/430 429/429/429
f 434/434/434 433/433/433 432/432/432
f 433/433/433 436/436/436 435/435/435
f 433/433/433 438/438/438 437/437/437
f 437/437/437 438/438/438 439/439/439
f 441/441/441 435/435/435 440/440/440
f 442/442/442 441/441/441 440/440/440
f 444/444/444 440/440/440 443/443/443
f 443/443/443 445/445/445 444/444/444
f 448/448/448 447/447/447 446/446/446
f 451/451/451 450/450/450 449/449/449
f 454/454/454 453/453/453 452/452/452
f 457/457/457 456/456/456 455/455/455
f 460/460/460 459/459/459 458/458/458
f 463/463/463 462/462/462 461/461/461
f 465/465/465 463/463/463 464/464/464
f 463/463/463 466/466/466 464/464/464
f 466/466/466 467/467/467 464/464/464
f 468/468/468 467/467/467 466/466/466
f 471/471/471 470/470/470 469/469/469
f 473/473/473 470/470/470 472/472/472
f 475/475/475 474/474/474 473/473/473
f 474/474/474 476/476/476 473/473/473
f 477/477/477 476/476/476 474/474/474
f 480/480/480 479/479/479 478/478/478
f 480/480/480 482/482/482 481/481/481
f 484/484/484 482/482/482 483/483/483
f 486/486/486 485/485/485 483/483/483
f 489/489/489 488/488/488 487/487/487
f 491/491/491 490/490/490 487/487/487
f 491/491/491 492/492/492 490/490/490
f 495/495/495 494/494/494 493/493/493
f 498/498/498 497/497/497 496/496/496
f 501/501/501 500/500/500 499/499/499
f 504/504/504 503/503/503 502/502/502
f 507/507/507 506/506/506 505/505/505
f 510/510/510 509/509/509 508/508/508
f 512/512/512 511/511/511 508/508/508
f 511/511/511 513/513/513 508/508/508
f 508/508/508 513/513/513 514/514/514
f 514/514/514 513/513/513 515/515/515
f 518/518/518 517/517/517 516/516/516
f 521/521/521 520/520/520 519/519/519
f 524/524/524 523/523/523 522/522/522
f 527/527/527 526/526/526 525/525/525
f 530/530/530 529/529/529 528/528/528
f 533/533/533 532/532/532 531/531/531
f 536/536/536 535/535/535 534/534/534
f 539/539/539 538/538/538 537/537/537
f 542/542/542 541/541/541 540/540/540
f 545/545/545 544/544/544 543/543/543
f 548/548/548 547/547/547 546/546/546
f 551/551/551 550/550/550 549/549/549
f 554/554/554 553/553/553 552/552/552
f 557/557/557 556/556/556 555/555/555
f 555/555/555 559/559/559 558/558/558
f 558/558/558 561/561/561 560/560/560
f 561/561/561 562/562/562 560/560/560
f 562/562/562 561/561/561 563/563/563
f 566/566/566 565/565/565 564/564/564
f 569/569/569 568/568/568 567/567/567
f 571/571/571 570/570/570 567/567/567
f 574/574/574 573/573/573 572/572/572
f 577/577/577 576/576/576 575/575/575
f 580/580/580 579/579/579 578/578/578
f 583/583/583 582/582/582 581/581/581
f 586/586/586 585/585/585 584/584/584
f 589/589/589 588/588/588 587/587/587
f 592/592/592 591/591/591 590/590/590
f 595/595/595 594/594/594 593/593/593
f 597/597/597 593/593/593 596/596/596
f 600/600/600 599/599/599 598/598/598
f 603/603/603 602/602/602 601/601/601
f 606/606/606 605/605/605 604/604/604
f 609/609/609 608/608/608 607/607/607
f 611/611/611 610/610/610 607/607/607
f 607/607/607 610/610/610 612/612/612
f 615/615/615 614/614/614 613/613/613
f 618/618/618 617/617/617 616/616/616
f 620/620/620 619/619/619 618/618/618
f 622/622/622 621/621/621 619/619/619
f 625/625/625 624/624/624 623/623/623
f 628/628/628 627/627/627 626/626/626
f 631/631/631 630/630/630 629/629/629
f 634/634/634 633/633/633 632/632/632
f 632/632/632 636/636/636 635/635/635
f 637/637/637 632/632/632 635/635/635
f 639/639/639 638/638/638 632/632/632
f 640/640/640 639/639/639 632/632/632
f 642/642/642 641/641/641 640/640/640
f 645/645/645 644/644/644 643/643/643
f 648/648/648 647/647/647 646/646/646
f 651/651/651 650/650/650 649/649/649
f 654/654/654 653/653/653 652/652/652
f 657/657/657 656/656/656 655/655/655
f 658/658/658 657/657/657 655/655/655
f 660/660/660 658/658/658 659/659/659
f 660/660/660 659/659/659 661/661/661
f 659/659/659 662/662/662 661/661/661
f 665/665/665 664/664/664 663/663/663
f 666/666/666 665/665/665 663/663/663
f 669/669/669 668/668/668 667/667/667
f 669/669/669 670/670/670 668/668/668
f 673/673/673 672/672/672 671/671/671
f 671/671/671 674/674/674 673/673/673
f 677/677/677 676/676/676 675/675/675
f 675/675/675 676/676/676 678/678/678
f 681/681/681 680/680/680 679/679/679
f 679/679/679 680/680/680 682/682/682
f 685/685/685 684/684/684 683/683/683
f 686/686/686 683/683/683 684/684/684
f 689/689/689 688/688/688 687/687/687
f 690/690/690 689/689/689 687/687/687
f 693/693/693 692/692/692 691/691/691
f 695/695/695 694/694/694 691/691/691
f 696/696/696 693/693/693 695/695/695
f 699/699/699 698/698/698 697/697/697
f 697/697/697 700/700/700 699/699/699
f 700/700/700 701/701/701 699/699/699
f 704/704/704 703/703/703 702/702/702
f 705/705/705 704/704/704 702/702/702
f 708/708/708 707/707/707 706/706/706
f 709/709/709 708/708/708 706/706/706
f 712/712/712 711/711/711 710/710/710
f 713/713/713 712/712/712 710/710/710
f 716/716/716 715/715/715 714/714/714
f 717/717/717 716/716/716 714/714/714
f 720/720/720 719/719/719 718/718/718
f 721/721/721 720/720/720 718/718/718
f 724/724/724 723/723/723 722/722/722
f 723/723/723 724/724/724 725/725/725
f 725/725/725 726/726/726 723/723/723
