g 0.4000
v 1.2024577 -0.8596462 4.8669906
v 1.6924591 -0.83148825 4.5935335
v 1.2451118 -0.45338246 4.318022
v 1.4310975 0.5685177 4.585053
v 1.0376364 0.82533467 4.6990914
v 1.3643699 0.33675143 4.217172
v 0.978975 -0.69535697 4.00043
v 0.5598465 -1.0229685 3.961559
v 0.9284935 -0.951375 4.1392684
v 0.15939653 -1.3688364 5.936019
v 0.5688994 -1.3363688 5.772846
v 0.43109635 -1.6833525 5.885266
v 0.34568837 -1.8408433 5.121115
v 0.11640535 -1.8782172 4.979669
v 0.120652825 -2.0183856 5.071832
v 1.7194443 -0.8689325 3.7323961
v 1.5805435 -0.7955659 4.0272155
v 1.975976 -0.8451935 3.9323163
v 0.7986835 -0.8925022 -0.06907421
v 1.0966207 -0.85149723 0.06573852
v 1.30531 -0.75727594 -0.10715904
v 1.1094103 0.06789084 0.47651622
v 0.8910534 -0.26084024 0.50581676
v 1.3088977 -0.44932252 1.5770699
v 1.2111846 -0.48533612 2.6292007
v 0.83198726 -0.66033816 2.6693075
v 1.3129369 -0.0471035 3.0035446
v 2.1600916 -0.051281326 5.187418
v 1.9536868 0.42022198 5.108895
v 1.9669228 0.5164654 4.2735624
v 2.1604612 -1.6722971 3.432332
v 1.7194443 -0.8689325 3.7323961
v 2.3050122 -1.6940292 3.6531255
v 1.0748181 0.14316368 5.615025
v 0.18071151 -0.7552259 6.0837197
v 0.21102841 0.020634174 6.0997663
v 0.20433825 -0.44661528 2.1387162
v -0.0068986267 0.31673843 2.281477
v -0.013020001 -0.53210145 2.1356905
v -1.0572813 -0.9901581 4.7881923
v -1.0670711 -0.33099413 4.436471
v -1.5708466 -0.70585966 4.578025
v -1.0392805 0.5291964 5.0726137
v -1.0378628 0.4515553 4.6707363
v -0.7021426 0.8040304 5.0017943
v -0.8538537 -0.5946059 4.0457673
v -0.8082659 -0.89388967 4.1417813
v -0.4335919 -0.97945833 3.9831283
v 0.15939653 -1.3688364 5.936019
v -0.115429364 -1.6836538 5.9099946
v -0.2670617 -1.3686578 5.800061
v -0.09920765 -1.8410884 5.1412454
v 0.120652825 -2.0183856 5.071832
v 0.11640535 -1.8782172 4.979669
v -1.6265082 -0.20083928 3.8156533
v -1.8732904 -0.30612135 4.059191
v -1.4818158 -0.41886055 4.093145
v -1.0122204 1.0406108 0.20996034
v -1.5137544 1.0732574 0.36281222
v -1.3003346 0.8973155 0.291099
v -1.2478521 0.6703608 1.3324842
v -1.3776261 -0.6334011 1.7504284
v -1.0424352 0.5500938 1.0114973
v -1.1832689 -0.43533027 2.8363862
v -1.2510347 0.11638713 3.1194549
v -0.80162275 -0.6115478 2.846103
v -1.8059795 -0.262169 5.554748
v -1.5164453 0.6179391 5.0809984
v -1.5126168 0.18833876 5.654157
v -2.190155 -0.13806939 3.0499141
v -2.362647 -0.3142047 3.146558
v -1.6265082 -0.20083928 3.8156533
v -0.72772884 -0.017226338 5.8013706
v 0.21102841 0.020634174 6.0997663
v 0.18071151 -0.7552259 6.0837197
v -0.2273731 -0.47221714 2.2009552
v -0.013020001 -0.53210145 2.1356905
v -0.0068986267 0.31673843 2.281477
v 1.9871447 -2.2175894 3.377779
v 2.387427 -2.3398337 3.2932384
v 2.000037 -2.237078 3.183735
v 2.1126342 -2.4115763 2.9649744
v 2.2346158 -2.3421078 2.6509585
v 2.4684284 -2.4717665 2.7425106
v 2.0075307 -1.9859842 3.3389688
v 2.000037 -2.237078 3.183735
v 2.1126342 -2.4115763 2.9649744
v 1.9658835 -2.187459 3.2742906
v 1.9871447 -2.2175894 3.377779
v 2.3050122 -1.6940292 3.6531255
v 2.1604612 -1.6722971 3.432332
v 2.2943056 -1.4461749 3.0287006
v 1.2024577 -0.8596462 4.8669906
v 1.2451118 -0.45338246 4.318022
v 0.9284935 -0.951375 4.1392684
v 0.978975 -0.69535697 4.00043
v 1.1828839 -0.17774773 3.6594634
v 0.76954854 -0.7306034 2.9472933
v 1.3129369 -0.0471035 3.0035446
v 0.83198726 -0.66033816 2.6693075
v 1.3643699 0.33675143 4.217172
v 1.1938176 0.524158 3.7994955
v 1.0376364 0.82533467 4.6990914
v 1.1588023 1.0724707 2.7273412
v 1.3214223 0.07069501 2.184417
v 1.0120627 0.44140515 1.9479879
v 1.2787904 0.36702546 1.3156006
v 1.3184702 -0.25005382 2.231991
v 1.2466167 -0.46887368 2.2570229
v 1.2111846 -0.48533612 2.6292007
v 1.3088977 -0.44932252 1.5770699
v 1.1094103 0.06789084 0.47651622
v 0.9297117 0.43268353 0.6712755
v 0.9674246 0.56490386 -0.055484924
v 1.4942023 -0.49207962 -0.09431523
v 0.7440944 -0.29467368 0.733169
v 1.3088977 -0.44932252 1.5770699
v 0.8910534 -0.26084024 0.50581676
v 0.3431993 -0.58634716 0.014699165
v 0.71782726 -0.8604254 0.068361074
v 0.39513713 -0.796617 -0.04058888
v 0.7986835 -0.8925022 -0.06907421
v 1.0966207 -0.85149723 0.06573852
v 1.4942023 -0.49207962 -0.09431523
v 1.1094103 0.06789084 0.47651622
v 1.30531 -0.75727594 -0.10715904
v 0.49686873 -0.032777183 -0.0820895
v 0.6267056 0.6046572 -0.0842669
v 0.50572425 0.31242567 0.5435882
v 0.3431993 -0.58634716 0.014699165
v 0.7440944 -0.29467368 0.733169
v 0.20878015 0.019016325 1.1535952
v 0.6350279 0.5993819 1.4565489
v 0.40132165 -0.48079467 1.5393943
v 0.2502129 0.12693706 1.6074162
v 0.23161823 0.25637805 1.988451
v 0.20433825 -0.44661528 2.1387162
v -0.0068986267 0.31673843 2.281477
v 0.0063246936 1.0944302 2.5604384
v 1.0120627 0.44140515 1.9479879
v 0.23161823 0.25637805 1.988451
v 0.6350279 0.5993819 1.4565489
v 1.2787904 0.36702546 1.3156006
v 0.9297117 0.43268353 0.6712755
v 0.50572425 0.31242567 0.5435882
v 0.6267056 0.6046572 -0.0842669
v 0.9674246 0.56490386 -0.055484924
v 2.4180393 0.12324512 4.257788
v 2.1600916 -0.051281326 5.187418
v 1.9669228 0.5164654 4.2735624
v 2.7332084 -0.05890429 3.5254786
v 2.3664753 -0.36491883 3.0884173
v 2.7055063 -1.3703063 3.0447474
v 1.912398 -0.14844376 3.256219
v 1.4310975 0.5685177 4.585053
v 1.9536868 0.42022198 5.108895
v 1.0748181 0.14316368 5.615025
v 1.0376364 0.82533467 4.6990914
v 1.7224231 0.13636503 5.504886
v 2.1600916 -0.051281326 5.187418
v 1.1678883 -0.58495146 5.6338396
v 0.18071151 -0.7552259 6.0837197
v 0.6687423 -0.83112574 5.913484
v 0.55525374 0.5366018 5.5336804
v 0.21348181 0.41820967 5.740582
v 0.21102841 0.020634174 6.0997663
v 0.21273533 0.7186537 5.269465
v 0.15566604 1.0511115 4.432943
v 0.87787324 0.85674536 3.8525743
v 1.1938176 0.524158 3.7994955
v 0.10376161 0.970917 3.893031
v 1.1588023 1.0724707 2.7273412
v 0.06789696 1.3005649 3.3571038
v 0.5153035 1.4021934 2.8136842
v 0.0063246936 1.0944302 2.5604384
v 1.7194443 -0.8689325 3.7323961
v 1.2451118 -0.45338246 4.318022
v 1.5805435 -0.7955659 4.0272155
v 1.912398 -0.14844376 3.256219
v 1.3643699 0.33675143 4.217172
v 1.4310975 0.5685177 4.585053
v 1.7773042 -0.9607867 3.2431388
v 2.1604612 -1.6722971 3.432332
v 2.387427 -2.3398337 3.2932384
v 2.610021 -2.1725821 2.7121549
v 2.4684284 -2.4717665 2.7425106
v 2.7955902 -1.6670887 3.6153476
v 2.7055063 -1.3703063 3.0447474
v 2.527213 -1.9356511 2.5495834
v 2.3658206 -2.1080403 2.470552
v 2.8715923 -0.62706494 3.5431428
v 2.6043324 -0.74398464 4.021475
v 2.7332084 -0.05890429 3.5254786
v 2.7025843 -0.28515482 3.7202387
v 2.4959197 -0.6544788 4.1164336
v 2.4180393 0.12324512 4.257788
v 2.1847315 -0.30419937 4.464139
v 2.1600916 -0.051281326 5.187418
v 1.8196571 -0.7433335 5.1226344
v 1.6924591 -0.83148825 4.5935335
v 1.975976 -0.8451935 3.9323163
v 2.527213 -1.9356511 2.5495834
v 2.7055063 -1.3703063 3.0447474
v 2.2943056 -1.4461749 3.0287006
v 2.3658206 -2.1080403 2.470552
v 2.0099885 -1.8012745 2.633163
v 2.0136428 -1.550716 2.8852453
v 2.2346158 -2.3421078 2.6509585
v 1.79288 -2.1866457 2.9324045
v 2.1126342 -2.4115763 2.9649744
v 1.894022 -2.1290455 2.6720357
v 2.3658206 -2.1080403 2.470552
v 2.0099885 -1.8012745 2.633163
v 2.610021 -2.1725821 2.7121549
v 2.4684284 -2.4717665 2.7425106
v 2.1126342 -2.4115763 2.9649744
v 1.79288 -2.1866457 2.9324045
v 1.7057326 -1.8337628 3.2425048
v 2.0075307 -1.9859842 3.3389688
v 1.2451118 -0.45338246 4.318022
v 1.6924591 -0.83148825 4.5935335
v 1.5805435 -0.7955659 4.0272155
v 1.975976 -0.8451935 3.9323163
v 0.7986835 -0.8925022 -0.06907421
v 0.3431993 -0.58634716 0.014699165
v 0.39513713 -0.796617 -0.04058888
v 1.0856544 -0.22637531 -0.116076365
v 1.30531 -0.75727594 -0.10715904
v 0.49686873 -0.032777183 -0.0820895
v 1.4942023 -0.49207962 -0.09431523
v 0.6267056 0.6046572 -0.0842669
v 0.9674246 0.56490386 -0.055484924
v 0.978975 -0.69535697 4.00043
v 0.76954854 -0.7306034 2.9472933
v 0.5598465 -1.0229685 3.961559
v 0.04973948 -1.1588229 3.7925837
v 0.07402922 -1.127083 4.0523148
v 0.66828924 -1.1335988 4.244204
v 0.9284935 -0.951375 4.1392684
v 1.2024577 -0.8596462 4.8669906
v 0.45067984 -1.0523062 4.592294
v 0.37852722 -1.0817267 4.7342134
v 0.09522784 -1.1635101 4.5819626
v 0.66468304 -1.0075185 4.882526
v 1.0068524 -0.8374971 5.4251842
v 0.6657001 -0.98420024 5.1065216
v 0.6687423 -0.83112574 5.913484
v 1.1678883 -0.58495146 5.6338396
v 1.8196571 -0.7433335 5.1226344
v 1.6924591 -0.83148825 4.5935335
v 2.1600916 -0.051281326 5.187418
v 1.7224231 0.13636503 5.504886
v 0.76954854 -0.7306034 2.9472933
v 0.018872514 -1.0089171 2.8348227
v 0.04973948 -1.1588229 3.7925837
v 0.2881092 -0.86181957 2.5285387
v 0.0026656538 -0.9264794 2.4774733
v -0.013020001 -0.53210145 2.1356905
v 0.83198726 -0.66033816 2.6693075
v 0.20433825 -0.44661528 2.1387162
v 0.8218353 -0.6354085 2.2395024
v 1.0230672 -0.5811316 2.2526588
v 1.2111846 -0.48533612 2.6292007
v 1.2466167 -0.46887368 2.2570229
v 1.3088977 -0.44932252 1.5770699
v 0.8031222 -0.5824146 1.4854314
v 0.40132165 -0.48079467 1.5393943
v 0.7440944 -0.29467368 0.733169
v 0.5688994 -1.3363688 5.772846
v 0.646701 -1.5920064 5.746614
v 0.43109635 -1.6833525 5.885266
v 0.64227086 -1.1334465 4.995626
v 0.6657001 -0.98420024 5.1065216
v 0.6687423 -0.83112574 5.913484
v 0.66468304 -1.0075185 4.882526
v 0.6157017 -1.5110433 4.7732463
v 0.6052951 -1.6063344 5.2011585
v 0.5711488 -1.802427 5.3925934
v 0.51886857 -1.8950338 5.6139307
v 0.62553144 -1.5818248 5.0071335
v 0.6194486 -1.5650821 4.85792
v 0.45487767 -1.8325706 4.935882
v 0.49167734 -1.8499728 4.7876716
v 0.48901606 -1.82284 4.7029643
v 0.15939653 -1.3688364 5.936019
v 0.43109635 -1.6833525 5.885266
v 0.15847284 -1.8115443 5.9102006
v 0.14769974 -2.0164974 5.669608
v 0.51886857 -1.8950338 5.6139307
v 0.646701 -1.5920064 5.746614
v 1.912398 -0.14844376 3.256219
v 2.7055063 -1.3703063 3.0447474
v 2.3664753 -0.36491883 3.0884173
v 2.2943056 -1.4461749 3.0287006
v 1.7773042 -0.9607867 3.2431388
v 2.1604612 -1.6722971 3.432332
v 1.9871447 -2.2175894 3.377779
v 2.3050122 -1.6940292 3.6531255
v 2.387427 -2.3398337 3.2932384
v 2.7955902 -1.6670887 3.6153476
v 2.1279976 -0.9212743 3.9923205
v 1.7194443 -0.8689325 3.7323961
v 2.6043324 -0.74398464 4.021475
v 1.975976 -0.8451935 3.9323163
v 2.4959197 -0.6544788 4.1164336
v 2.1847315 -0.30419937 4.464139
v 0.6687423 -0.83112574 5.913484
v 0.1651749 -0.95079005 5.907808
v 0.18071151 -0.7552259 6.0837197
v 0.5688994 -1.3363688 5.772846
v 0.15939653 -1.3688364 5.936019
v 0.49167734 -1.8499728 4.7876716
v 0.10685744 -1.9264627 4.7680683
v 0.11640535 -1.8782172 4.979669
v 0.45487767 -1.8325706 4.935882
v 0.34568837 -1.8408433 5.121115
v 0.62553144 -1.5818248 5.0071335
v 0.6052951 -1.6063344 5.2011585
v 0.6157017 -1.5110433 4.7732463
v 0.0928427 -1.5973705 4.4699645
v 0.48901606 -1.82284 4.7029643
v 0.1024183 -1.871264 4.670635
v 0.10685744 -1.9264627 4.7680683
v 0.49167734 -1.8499728 4.7876716
v 0.120652825 -2.0183856 5.071832
v 0.36215937 -1.8458197 5.4085975
v 0.34568837 -1.8408433 5.121115
v 0.14769974 -2.0164974 5.669608
v 0.51886857 -1.8950338 5.6139307
v 0.36215937 -1.8458197 5.4085975
v 0.14769974 -2.0164974 5.669608
v 0.5711488 -1.802427 5.3925934
v 0.34568837 -1.8408433 5.121115
v 0.6052951 -1.6063344 5.2011585
v 1.79288 -2.1866457 2.9324045
v 1.894022 -2.1290455 2.6720357
v 1.7057326 -1.8337628 3.2425048
v 2.0136428 -1.550716 2.8852453
v 2.0099885 -1.8012745 2.633163
v 2.0075307 -1.9859842 3.3389688
v 1.7057326 -1.8337628 3.2425048
v 2.0136428 -1.550716 2.8852453
v 2.2943056 -1.4461749 3.0287006
v -2.1391206 -0.33887327 2.5137877
v -2.131401 -0.16991735 2.4158418
v -2.542658 -0.22725236 2.4300318
v -2.2518923 -0.018636107 2.1843688
v -2.3142312 0.31546474 2.1314363
v -2.580964 0.23156768 2.0904946
v -2.1015368 -0.20917356 2.7069929
v -2.2518923 -0.018636107 2.1843688
v -2.131401 -0.16991735 2.4158418
v -2.0986667 -0.2387867 2.4933937
v -2.1391206 -0.33887327 2.5137877
v -2.362647 -0.3142047 3.146558
v -2.190155 -0.13806939 3.0499141
v -2.2171872 0.3401386 3.1004157
v -1.0572813 -0.9901581 4.7881923
v -0.8082659 -0.89388967 4.1417813
v -1.0670711 -0.33099413 4.436471
v -0.8538537 -0.5946059 4.0457673
v -1.0520557 -0.005982578 3.7977738
v -0.7272996 -0.67463386 3.001537
v -1.2510347 0.11638713 3.1194549
v -0.80162275 -0.6115478 2.846103
v -1.0378628 0.4515553 4.6707363
v -0.94619334 0.67628974 4.161588
v -0.7021426 0.8040304 5.0017943
v -1.1083587 1.1322635 2.7257984
v -1.3393747 -0.017339528 2.2795608
v -1.0562222 0.21876967 1.9443624
v -1.3579937 -0.03647834 1.7980467
v -1.327842 -0.30413687 2.4140341
v -1.2514539 -0.50829726 2.4839406
v -1.1832689 -0.43533027 2.8363862
v -1.3776261 -0.6334011 1.7504284
v -1.2478521 0.6703608 1.3324842
v -1.0415425 0.6102803 1.7298596
v -1.1166028 1.3134279 1.6414347
v -1.6899005 1.0978607 0.635527
v -0.88303494 0.2638682 1.0552429
v -1.0424352 0.5500938 1.0114973
v -1.3776261 -0.6334011 1.7504284
v -0.5399226 1.0335157 0.5017996
v -0.92274857 0.91509044 0.26186985
v -0.60391766 1.0482676 0.2879687
v -1.0122204 1.0406108 0.20996034
v -1.3003346 0.8973155 0.291099
v -1.6899005 1.0978607 0.635527
v -1.2478521 0.6703608 1.3324842
v -1.5137544 1.0732574 0.36281222
v -0.67429763 1.2201585 1.0346633
v -0.6315817 0.708524 1.5471711
v -0.776669 1.3658113 1.65401
v -0.5399226 1.0335157 0.5017996
v -0.88303494 0.2638682 1.0552429
v -0.31271636 -0.04358381 1.4088303
v -0.7110035 0.08145562 1.7328948
v -0.47707433 -0.64312494 1.6323606
v -0.32363617 -0.14468247 1.6296556
v -0.27302158 0.10502869 1.9610357
v -0.2273731 -0.47221714 2.2009552
v -0.0068986267 0.31673843 2.281477
v 0.0063246936 1.0944302 2.5604384
v -1.0562222 0.21876967 1.9443624
v -0.7110035 0.08145562 1.7328948
v -0.27302158 0.10502869 1.9610357
v -1.3579937 -0.03647834 1.7980467
v -1.0415425 0.6102803 1.7298596
v -0.6315817 0.708524 1.5471711
v -0.776669 1.3658113 1.65401
v -1.1166028 1.3134279 1.6414347
v -2.0370693 0.3501842 4.985509
v -1.5164453 0.6179391 5.0809984
v -1.8059795 -0.262169 5.554748
v -2.3754373 0.7236957 4.448078
v -2.0669107 0.7822507 3.9375834
v -2.599224 0.4414516 3.2378323
v -1.606547 0.68916065 4.014611
v -1.0392805 0.5291964 5.0726137
v -1.5126168 0.18833876 5.654157
v -0.72772884 -0.017226338 5.8013706
v -0.7021426 0.8040304 5.0017943
v -1.3319513 -0.1842891 5.843038
v -1.8059795 -0.262169 5.554748
v -0.86530495 -0.7286681 5.731496
v 0.18071151 -0.7552259 6.0837197
v -0.34782663 -0.9202026 5.9583616
v -0.21406548 0.4386015 5.6682343
v 0.21348181 0.41820967 5.740582
v 0.21102841 0.020634174 6.0997663
v 0.21273533 0.7186537 5.269465
v 0.15566604 1.0511115 4.432943
v -0.65214497 0.9202486 4.127212
v -0.94619334 0.67628974 4.161588
v 0.10376161 0.970917 3.893031
v -1.1083587 1.1322635 2.7257984
v 0.06789696 1.3005649 3.3571038
v -0.4633019 1.4296325 2.7121308
v 0.0063246936 1.0944302 2.5604384
v -1.6265082 -0.20083928 3.8156533
v -1.4818158 -0.41886055 4.093145
v -1.0670711 -0.33099413 4.436471
v -1.606547 0.68916065 4.014611
v -1.0378628 0.4515553 4.6707363
v -1.0392805 0.5291964 5.0726137
v -1.6484137 0.21224117 3.4977312
v -2.190155 -0.13806939 3.0499141
v -2.542658 -0.22725236 2.4300318
v -2.580964 0.23156768 2.0904946
v -2.6462412 0.40549225 2.3661222
v -2.8255935 -0.16720974 3.229582
v -2.599224 0.4414516 3.2378323
v -2.492109 0.62660104 2.4956486
v -2.3651905 0.5961926 2.283567
v -2.655471 0.33714974 4.1129646
v -2.4655828 -0.19125605 4.269267
v -2.3754373 0.7236957 4.448078
v -2.416452 0.3763706 4.452036
v -2.3268955 -0.18503869 4.409712
v -2.0370693 0.3501842 4.985509
v -1.9178784 -0.13420188 4.8428783
v -1.8059795 -0.262169 5.554748
v -1.6466447 -0.89661527 5.101729
v -1.5708466 -0.70585966 4.578025
v -1.8732904 -0.30612135 4.059191
v -2.492109 0.62660104 2.4956486
v -2.2171872 0.3401386 3.1004157
v -2.599224 0.4414516 3.2378323
v -2.3651905 0.5961926 2.283567
v -1.9727595 0.4961338 2.571925
v -1.9515746 0.3690766 2.9032042
v -2.3142312 0.31546474 2.1314363
v -2.2518923 -0.018636107 2.1843688
v -1.8880861 0.031724453 2.322231
v -1.9397748 0.30874676 2.2783413
v -2.3651905 0.5961926 2.283567
v -1.9727595 0.4961338 2.571925
v -2.6462412 0.40549225 2.3661222
v -2.580964 0.23156768 2.0904946
v -2.2518923 -0.018636107 2.1843688
v -2.1015368 -0.20917356 2.7069929
v -1.7634172 -0.12626117 2.7555687
v -1.8880861 0.031724453 2.322231
v -1.0670711 -0.33099413 4.436471
v -1.4818158 -0.41886055 4.093145
v -1.5708466 -0.70585966 4.578025
v -1.8732904 -0.30612135 4.059191
v -1.0122204 1.0406108 0.20996034
v -0.60391766 1.0482676 0.2879687
v -0.5399226 1.0335157 0.5017996
v -1.2719226 1.1915925 0.87035596
v -1.5137544 1.0732574 0.36281222
v -0.67429763 1.2201585 1.0346633
v -1.6899005 1.0978607 0.635527
v -0.776669 1.3658113 1.65401
v -1.1166028 1.3134279 1.6414347
v -0.8538537 -0.5946059 4.0457673
v -0.4335919 -0.97945833 3.9831283
v -0.7272996 -0.67463386 3.001537
v 0.04973948 -1.1588229 3.7925837
v 0.07402922 -1.127083 4.0523148
v -0.5217553 -1.1517211 4.2516026
v -0.8082659 -0.89388967 4.1417813
v -1.0572813 -0.9901581 4.7881923
v -0.26081452 -1.084574 4.6042147
v -0.17349449 -1.1139357 4.7444525
v 0.09522784 -1.1635101 4.5819626
v -0.447373 -1.0572698 4.912114
v -0.7376604 -0.9689611 5.4806843
v -0.42447227 -1.032552 5.1430874
v -0.34782663 -0.9202026 5.9583616
v -0.86530495 -0.7286681 5.731496
v -1.6466447 -0.89661527 5.101729
v -1.5708466 -0.70585966 4.578025
v -1.8059795 -0.262169 5.554748
v -1.3319513 -0.1842891 5.843038
v -0.7272996 -0.67463386 3.001537
v 0.04973948 -1.1588229 3.7925837
v 0.018872514 -1.0089171 2.8348227
v -0.27332196 -0.84301865 2.6373656
v 0.0026656538 -0.9264794 2.4774733
v -0.013020001 -0.53210145 2.1356905
v -0.80162275 -0.6115478 2.846103
v -0.2273731 -0.47221714 2.2009552
v -0.8286458 -0.67149675 2.4537656
v -1.0280672 -0.6179115 2.4819508
v -1.1832689 -0.43533027 2.8363862
v -1.2514539 -0.50829726 2.4839406
v -1.3776261 -0.6334011 1.7504284
v -0.88058734 -0.757689 1.6457347
v -0.47707433 -0.64312494 1.6323606
v -0.88303494 0.2638682 1.0552429
v -0.2670617 -1.3686578 5.800061
v -0.115429364 -1.6836538 5.9099946
v -0.34277526 -1.592552 5.7913847
v -0.41218275 -1.1667488 5.029196
v -0.42447227 -1.032552 5.1430874
v -0.34782663 -0.9202026 5.9583616
v -0.447373 -1.0572698 4.912114
v -0.403292 -1.5199156 4.811523
v -0.35078305 -1.6068616 5.2444186
v -0.29927167 -1.8029069 5.4319777
v -0.22711402 -1.8954451 5.6476846
v -0.3890518 -1.5840497 5.0517144
v -0.39666054 -1.5675411 4.902186
v -0.22468841 -1.8329451 4.9666305
v -0.27470347 -1.8503953 4.822348
v -0.27973294 -1.8232639 4.737748
v 0.15939653 -1.3688364 5.936019
v 0.15847284 -1.8115443 5.9102006
v -0.115429364 -1.6836538 5.9099946
v 0.14769974 -2.0164974 5.669608
v -0.22711402 -1.8954451 5.6476846
v -0.34277526 -1.592552 5.7913847
v -1.606547 0.68916065 4.014611
v -2.0669107 0.7822507 3.9375834
v -2.599224 0.4414516 3.2378323
v -2.2171872 0.3401386 3.1004157
v -1.6484137 0.21224117 3.4977312
v -2.190155 -0.13806939 3.0499141
v -2.1391206 -0.33887327 2.5137877
v -2.542658 -0.22725236 2.4300318
v -2.362647 -0.3142047 3.146558
v -2.8255935 -0.16720974 3.229582
v -2.0606809 -0.36702 3.9674578
v -1.6265082 -0.20083928 3.8156533
v -2.4655828 -0.19125605 4.269267
v -1.8732904 -0.30612135 4.059191
v -2.3268955 -0.18503869 4.409712
v -1.9178784 -0.13420188 4.8428783
v -0.34782663 -0.9202026 5.9583616
v 0.18071151 -0.7552259 6.0837197
v 0.1651749 -0.95079005 5.907808
v -0.2670617 -1.3686578 5.800061
v 0.15939653 -1.3688364 5.936019
v -0.27470347 -1.8503953 4.822348
v 0.11640535 -1.8782172 4.979669
v 0.10685744 -1.9264627 4.7680683
v -0.22468841 -1.8329451 4.9666305
v -0.09920765 -1.8410884 5.1412454
v -0.3890518 -1.5840497 5.0517144
v -0.35078305 -1.6068616 5.2444186
v -0.403292 -1.5199156 4.811523
v -0.27973294 -1.8232639 4.737748
v 0.0928427 -1.5973705 4.4699645
v 0.1024183 -1.871264 4.670635
v 0.10685744 -1.9264627 4.7680683
v -0.27470347 -1.8503953 4.822348
v 0.120652825 -2.0183856 5.071832
v -0.09920765 -1.8410884 5.1412454
v -0.08964304 -1.8460689 5.4290404
v 0.14769974 -2.0164974 5.669608
v -0.22711402 -1.8954451 5.6476846
v 0.14769974 -2.0164974 5.669608
v -0.08964304 -1.8460689 5.4290404
v -0.29927167 -1.8029069 5.4319777
v -0.09920765 -1.8410884 5.1412454
v -0.35078305 -1.6068616 5.2444186
v -1.8880861 0.031724453 2.322231
v -1.7634172 -0.12626117 2.7555687
v -1.9397748 0.30874676 2.2783413
v -1.9515746 0.3690766 2.9032042
v -1.9727595 0.4961338 2.571925
v -2.1015368 -0.20917356 2.7069929
v -2.2171872 0.3401386 3.1004157
v -1.9515746 0.3690766 2.9032042
v -1.7634172 -0.12626117 2.7555687
v 0.37852722 -1.0817267 4.7342134
v 0.37324324 -1.2892056 4.672096
v 0.66468304 -1.0075185 4.882526
v 0.09522784 -1.1635101 4.5819626
v 0.6157017 -1.5110433 4.7732463
v 0.0928427 -1.5973705 4.4699645
v 1.0120627 0.44140515 1.9479879
v 1.1588023 1.0724707 2.7273412
v 0.5279314 1.0095328 2.2172525
v 0.23161823 0.25637805 1.988451
v 0.5153035 1.4021934 2.8136842
v 0.0063246936 1.0944302 2.5604384
v -1.0562222 0.21876967 1.9443624
v -0.5519196 0.9202775 2.1364925
v -1.1083587 1.1322635 2.7257984
v -0.27302158 0.10502869 1.9610357
v -0.4633019 1.4296325 2.7121308
v 0.0063246936 1.0944302 2.5604384
v -0.403292 -1.5199156 4.811523
v 0.0928427 -1.5973705 4.4699645
v -0.1753359 -1.315436 4.6789856
v -0.447373 -1.0572698 4.912114
v 0.09522784 -1.1635101 4.5819626
v -0.17349449 -1.1139357 4.7444525
vt 0.49902603 0.918115
vt 0.56499124 0.9454073
vt 0.56499124 0.8711099
vt 0.14378172 0.8514687
vt 0.16439773 0.8882737
vt 0.16439773 0.8118623
vt 0.34434217 1
vt 0.34434217 0.93092227
vt 0.31757537 0.9767937
vt 0.98919135 0.052865658
vt 0.98919135 0
vt 0.968192 0.025574517
vt 0.5176891 0.9859883
vt 0.5176891 0.95471436
vt 0.49902603 0.95796406
vt 0.96851367 0.66580456
vt 0.96851367 0.6183773
vt 0.9283098 0.64640343
vt 0.16141832 0.8975809
vt 0.14378184 0.9333254
vt 0.16141832 0.96089536
vt 0.91912127 0.53584665
vt 0.8804234 0.55779886
vt 0.91912127 0.672676
vt 0.31757528 0.88430893
vt 0.3491709 0.9216153
vt 0.34917086 0.82019824
vt 0.9590038 0
vt 0.9210636 0.040668685
vt 0.9590038 0.11800762
vt 0.95839727 0.27790177
vt 0.9886577 0.35846353
vt 0.9886577 0.27093768
vt 0.95229155 0.79087466
vt 0.95229155 0.68280923
vt 0.9039406 0.75590014
vt 0.8569706 0.89982796
vt 0.8829183 0.9938489
vt 0.8829183 0.8892549
vt 0.49902603 0.918115
vt 0.56499124 0.8711099
vt 0.56499124 0.9454073
vt 0.14378172 0.8514687
vt 0.16439773 0.8118623
vt 0.16439773 0.8882737
vt 0.34434217 1
vt 0.31757537 0.9767937
vt 0.34434217 0.93092227
vt 0.98919135 0.052865658
vt 0.968192 0.025574517
vt 0.98919135 0
vt 0.5176891 0.9859883
vt 0.49902603 0.95796406
vt 0.5176891 0.95471436
vt 0.96851367 0.66580456
vt 0.9283098 0.64640343
vt 0.96851367 0.6183773
vt 0.16141832 0.8975809
vt 0.16141832 0.96089536
vt 0.14378184 0.9333254
vt 0.91912127 0.53584665
vt 0.91912127 0.672676
vt 0.8804234 0.55779886
vt 0.31757528 0.88430893
vt 0.34917086 0.82019824
vt 0.3491709 0.9216153
vt 0.9590038 0
vt 0.9590038 0.11800762
vt 0.9210636 0.040668685
vt 0.95839727 0.27790177
vt 0.9886577 0.27093768
vt 0.9886577 0.35846353
vt 0.95229155 0.79087466
vt 0.9039406 0.75590014
vt 0.95229155 0.68280923
vt 0.8569706 0.89982796
vt 0.8829183 0.8892549
vt 0.8829183 0.9938489
vt 0.36096442 0.9809408
vt 0.4075098 0.9607956
vt 0.3588947 0.9575265
vt 0.369392 0.92520255
vt 0.3771086 0.8883843
vt 0.4075098 0.8914479
vt 0.5270722 0.68813974
vt 0.54430145 0.71937054
vt 0.57231295 0.74010444
vt 0.5329712 0.7133354
vt 0.5213672 0.7160483
vt 0.4990259 0.64703196
vt 0.521059 0.6477355
vt 0.57231295 0.6210902
vt 0.39298362 0.61178297
vt 0.4363923 0.541216
vt 0.3588946 0.54126763
vt 0.38259628 0.51508933
vt 0.44708437 0.45777205
vt 0.35943297 0.38027877
vt 0.45028436 0.37733927
vt 0.38207754 0.33254984
vt 0.53066176 0.5399611
vt 0.54357386 0.47318318
vt 0.59004575 0.5701486
vt 0.59004575 0.3564206
vt 0.4765397 0.28180492
vt 0.527813 0.26165715
vt 0.5264617 0.17587008
vt 0.43756214 0.28139699
vt 0.41167656 0.2809121
vt 0.4031181 0.3257705
vt 0.42691 0.20106666
vt 0.48573887 0.07598537
vt 0.5317059 0.09830561
vt 0.54340035 0.012144742
vt 0.41421005 3.046471E-08
vt 0.8233897 0.81884515
vt 0.8947522 0.87994784
vt 0.8380794 0.79222435
vt 0.75919056 0.7267464
vt 0.79670596 0.70665777
vt 0.75950646 0.70673996
vt 0.803943 0.6889256
vt 0.841158 0.69899017
vt 0.89475226 0.69672364
vt 0.87079096 0.80151844
vt 0.8660454 0.6828093
vt 0.09310532 0.802555
vt 0.16801077 0.7953374
vt 0.12556495 0.72438186
vt 0.026040358 0.7997428
vt 0.052987453 0.71688
vt 0.086323686 0.64679164
vt 0.15040804 0.61200655
vt 0.019966839 0.6235478
vt 0.089004435 0.59260225
vt 0.08959459 0.5458116
vt 6.015232E-08 0.54828095
vt 0.08550134 0.5054018
vt 0.16801077 0.45642403
vt 0.82160306 0.23527387
vt 0.91187495 0.2616305
vt 0.8785964 0.17643519
vt 0.8049671 0.15148313
vt 0.85996854 0.08438009
vt 0.911246 0.08578497
vt 0.91187495 0.0028682526
vt 0.8709122 3.046471E-08
vt 0.09789549 0.25051716
vt 0.13116886 0.34432486
vt 0.16033816 0.22789456
vt 0.049894422 0.18504778
vt 0.07739943 0.13376983
vt 0 0.101133585
vt 0.13330956 0.13581291
vt 0.21659958 0.24239016
vt 0.16608825 0.3124507
vt 0.24976975 0.35344645
vt 0.25481075 0.22602086
vt 0.1860694 0.36288005
vt 0.13116886 0.34432486
vt 0.23294322 0.4035151
vt 0.34970608 0.4471169
vt 0.29160568 0.44181484
vt 0.30976734 0.30876765
vt 0.34858796 0.33234903
vt 0.34877276 0.39573345
vt 0.34870827 0.269106
vt 0.34905258 0.17866798
vt 0.2605541 0.14002824
vt 0.22303613 0.1529811
vt 0.3494948 0.14017203
vt 0.21396372 0.02751256
vt 0.34920633 0.07600799
vt 0.29144904 0.022317717
vt 0.34970608 0
vt 0.38429728 0.77760273
vt 0.36951953 0.6804159
vt 0.3588947 0.73239607
vt 0.48983765 0.7665424
vt 0.46186814 0.6618539
vt 0.48983765 0.6210902
vt 0.4339861 0.81697726
vt 0.39901102 0.8790773
vt 0.7500021 0.74025494
vt 0.6760147 0.75673467
vt 0.7008218 0.78769267
vt 0.73089904 0.64271283
vt 0.6582754 0.6532317
vt 0.64760154 0.7460554
vt 0.65432703 0.77218586
vt 0.6561025 0.55081415
vt 0.7122202 0.5215398
vt 0.59923416 0.53459376
vt 0.6407047 0.5178718
vt 0.7033843 0.50708
vt 0.6171612 0.46747392
vt 0.67556334 0.46324593
vt 0.6534468 0.37864077
vt 0.74511176 0.39836925
vt 0.7500021 0.46568456
vt 0.7316233 0.5429811
vt 0.56953835 0.83960843
vt 0.56953835 0.74941146
vt 0.52703404 0.76323533
vt 0.5583597 0.8618026
vt 0.50707406 0.83131546
vt 0.4990259 0.7894004
vt 0.843614 0.30382556
vt 0.87173325 0.3583391
vt 0.8776816 0.31122676
vt 0.8434859 0.3522023
vt 0.8049671 0.30388892
vt 0.80789423 0.3583391
vt 0.81610477 0.2726733
vt 0.8499164 0.27093756
vt 1 0.68280923
vt 0.96148014 0.6968634
vt 0.96148014 0.744935
vt 1 0.74078554
vt 0.953209 0.80018187
vt 0.9039406 0.83439285
vt 0.953209 0.868638
vt 0.9222943 0.90617955
vt 0.6674861 0.798815
vt 0.730205 0.82059234
vt 0.71701837 0.79699963
vt 0.6532963 0.8831631
vt 0.61280245 0.8302191
vt 0.72696996 0.88637024
vt 0.5992342 0.86706394
vt 0.730205 0.9619857
vt 0.6907086 0.969811
vt 0.6589565 0.23906025
vt 0.63166714 0.36933368
vt 0.708841 0.26865244
vt 0.75177425 0.3355242
vt 0.77262163 0.27562472
vt 0.7120425 0.22720534
vt 0.6700854 0.23198074
vt 0.6687798 0.14423798
vt 0.75500554 0.19355133
vt 0.7706367 0.17965601
vt 0.79577863 0.21007149
vt 0.74549466 0.14924052
vt 0.73454255 0.07315528
vt 0.75664675 0.12261973
vt 0.79577863 0.029209565
vt 0.72930306 0.034244284
vt 0.6210279 0.07891384
vt 0.59923416 0.13749626
vt 0.6227054 0.013777361
vt 0.68517876 0
vt 0.19030221 0.5926166
vt 0.27671725 0.5424171
vt 0.20954877 0.45642403
vt 0.27502987 0.60654753
vt 0.30718705 0.5912737
vt 0.3315822 0.6495408
vt 0.2125061 0.6379783
vt 0.30932727 0.66668975
vt 0.23977989 0.67791736
vt 0.21840945 0.6910608
vt 0.1771991 0.675653
vt 0.1952241 0.7099755
vt 0.22730719 0.7710672
vt 0.2850084 0.7441486
vt 0.32410717 0.72671473
vt 0.3315822 0.8108909
vt 0.12445033 0.88272744
vt 0.118833065 0.91520464
vt 0.13459346 0.92705274
vt 0.029831218 0.8662915
vt 0.04120145 0.84823847
vt 0.13459346 0.8118623
vt 0.014586215 0.85860515
vt 0.006344385 0.91023856
vt 0.055812206 0.9167029
vt 0.07597911 0.9405134
vt 0.10054917 0.9524297
vt 0.03373438 0.91510206
vt 0.016143437 0.91420496
vt 0.025230289 0.94425434
vt 0.008589751 0.9476432
vt 0 0.94567424
vt 0.4166982 0.8883844
vt 0.42541498 0.9261302
vt 0.44437116 0.8972779
vt 0.4784857 0.9142962
vt 0.45555466 0.9547197
vt 0.41865915 0.9547197
vt 0.923967 0.5265394
vt 0.8858247 0.38635334
vt 0.88042325 0.48831704
vt 0.9273596 0.40759468
vt 0.97330445 0.47121757
vt 0.97330445 0.37864053
vt 0.87123483 0.6485235
vt 0.8210195 0.5904178
vt 0.8273133 0.6735019
vt 0.7629219 0.5992589
vt 0.82242316 0.48842975
vt 0.87123483 0.47961864
vt 0.75919056 0.4700137
vt 0.8339568 0.46264127
vt 0.76616776 0.4473538
vt 0.78633755 0.37864053
vt 0.9958276 0.9154867
vt 0.97140336 0.970249
vt 0.9958276 0.97698194
vt 0.95606023 0.91680205
vt 0.9538918 0.9701389
vt 0.75919056 0.93168813
vt 0.77940774 0.97460806
vt 0.79962325 0.96114165
vt 0.7757094 0.92720497
vt 0.7992231 0.92929655
vt 0.7808211 0.8964899
vt 0.79962325 0.8892549
vt 0.9447032 0.98594135
vt 0.9447032 0.9154867
vt 0.92055905 0.96472645
vt 0.9137541 0.9182853
vt 0.9039406 0.92054886
vt 0.91369635 0.9668703
vt 0.9916219 0.86281574
vt 0.9623976 0.82055163
vt 0.9627488 0.8498158
vt 0.9916219 0.80018175
vt 0.80881166 0.9151965
vt 0.8349308 0.9297713
vt 0.8477822 0.8892547
vt 0.811724 0.9402521
vt 0.8477822 0.94809693
vt 0.8154087 0.97162884
vt 0.94920886 0.28810272
vt 0.9198775 0.27093756
vt 0.9492088 0.34555
vt 0.8876546 0.3388034
vt 0.8868701 0.2958499
vt 0.96805406 0.5391982
vt 0.92830974 0.5358466
vt 0.9459171 0.57954276
vt 0.96805406 0.60907036
vt 0.36096442 0.9809408
vt 0.3588947 0.9575265
vt 0.4075098 0.9607956
vt 0.369392 0.92520255
vt 0.3771086 0.8883843
vt 0.4075098 0.8914479
vt 0.5270722 0.68813974
vt 0.57231295 0.74010444
vt 0.54430145 0.71937054
vt 0.5329712 0.7133354
vt 0.5213672 0.7160483
vt 0.4990259 0.64703196
vt 0.521059 0.6477355
vt 0.57231295 0.6210902
vt 0.39298362 0.61178297
vt 0.3588946 0.54126763
vt 0.4363923 0.541216
vt 0.38259628 0.51508933
vt 0.44708437 0.45777205
vt 0.35943297 0.38027877
vt 0.45028436 0.37733927
vt 0.38207754 0.33254984
vt 0.53066176 0.5399611
vt 0.54357386 0.47318318
vt 0.59004575 0.5701486
vt 0.59004575 0.3564206
vt 0.4765397 0.28180492
vt 0.527813 0.26165715
vt 0.5264617 0.17587008
vt 0.43756214 0.28139699
vt 0.41167656 0.2809121
vt 0.4031181 0.3257705
vt 0.42691 0.20106666
vt 0.48573887 0.07598537
vt 0.5317059 0.09830561
vt 0.54340035 0.012144742
vt 0.41421005 3.046471E-08
vt 0.8233897 0.81884515
vt 0.8380794 0.79222435
vt 0.8947522 0.87994784
vt 0.75919056 0.7267464
vt 0.79670596 0.70665777
vt 0.75950646 0.70673996
vt 0.803943 0.6889256
vt 0.841158 0.69899017
vt 0.89475226 0.69672364
vt 0.87079096 0.80151844
vt 0.8660454 0.6828093
vt 0.09310532 0.802555
vt 0.12556495 0.72438186
vt 0.16801077 0.7953374
vt 0.026040358 0.7997428
vt 0.052987453 0.71688
vt 0.086323686 0.64679164
vt 0.15040804 0.61200655
vt 0.019966839 0.6235478
vt 0.089004435 0.59260225
vt 0.08959459 0.5458116
vt 6.015232E-08 0.54828095
vt 0.08550134 0.5054018
vt 0.16801077 0.45642403
vt 0.82160306 0.23527387
vt 0.8785964 0.17643519
vt 0.91187495 0.2616305
vt 0.8049671 0.15148313
vt 0.85996854 0.08438009
vt 0.911246 0.08578497
vt 0.91187495 0.0028682526
vt 0.8709122 3.046471E-08
vt 0.09789549 0.25051716
vt 0.16033816 0.22789456
vt 0.13116886 0.34432486
vt 0.049894422 0.18504778
vt 0.07739943 0.13376983
vt 0 0.101133585
vt 0.13330956 0.13581291
vt 0.21659958 0.24239016
vt 0.16608825 0.3124507
vt 0.24976975 0.35344645
vt 0.25481075 0.22602086
vt 0.1860694 0.36288005
vt 0.13116886 0.34432486
vt 0.23294322 0.4035151
vt 0.34970608 0.4471169
vt 0.29160568 0.44181484
vt 0.30976734 0.30876765
vt 0.34858796 0.33234903
vt 0.34877276 0.39573345
vt 0.34870827 0.269106
vt 0.34905258 0.17866798
vt 0.2605541 0.14002824
vt 0.22303613 0.1529811
vt 0.3494948 0.14017203
vt 0.21396372 0.02751256
vt 0.34920633 0.07600799
vt 0.29144904 0.022317717
vt 0.34970608 0
vt 0.38429728 0.77760273
vt 0.3588947 0.73239607
vt 0.36951953 0.6804159
vt 0.48983765 0.7665424
vt 0.46186814 0.6618539
vt 0.48983765 0.6210902
vt 0.4339861 0.81697726
vt 0.39901102 0.8790773
vt 0.7500021 0.74025494
vt 0.7008218 0.78769267
vt 0.6760147 0.75673467
vt 0.73089904 0.64271283
vt 0.6582754 0.6532317
vt 0.64760154 0.7460554
vt 0.65432703 0.77218586
vt 0.6561025 0.55081415
vt 0.7122202 0.5215398
vt 0.59923416 0.53459376
vt 0.6407047 0.5178718
vt 0.7033843 0.50708
vt 0.6171612 0.46747392
vt 0.67556334 0.46324593
vt 0.6534468 0.37864077
vt 0.74511176 0.39836925
vt 0.7500021 0.46568456
vt 0.7316233 0.5429811
vt 0.56953835 0.83960843
vt 0.52703404 0.76323533
vt 0.56953835 0.74941146
vt 0.5583597 0.8618026
vt 0.50707406 0.83131546
vt 0.4990259 0.7894004
vt 0.843614 0.30382556
vt 0.8776816 0.31122676
vt 0.87173325 0.3583391
vt 0.8434859 0.3522023
vt 0.8049671 0.30388892
vt 0.80789423 0.3583391
vt 0.81610477 0.2726733
vt 0.8499164 0.27093756
vt 1 0.68280923
vt 1 0.74078554
vt 0.96148014 0.744935
vt 0.96148014 0.6968634
vt 0.953209 0.80018187
vt 0.953209 0.868638
vt 0.9039406 0.83439285
vt 0.9222943 0.90617955
vt 0.6674861 0.798815
vt 0.71701837 0.79699963
vt 0.730205 0.82059234
vt 0.6532963 0.8831631
vt 0.61280245 0.8302191
vt 0.72696996 0.88637024
vt 0.5992342 0.86706394
vt 0.730205 0.9619857
vt 0.6907086 0.969811
vt 0.6589565 0.23906025
vt 0.708841 0.26865244
vt 0.63166714 0.36933368
vt 0.75177425 0.3355242
vt 0.77262163 0.27562472
vt 0.7120425 0.22720534
vt 0.6700854 0.23198074
vt 0.6687798 0.14423798
vt 0.75500554 0.19355133
vt 0.7706367 0.17965601
vt 0.79577863 0.21007149
vt 0.74549466 0.14924052
vt 0.73454255 0.07315528
vt 0.75664675 0.12261973
vt 0.79577863 0.029209565
vt 0.72930306 0.034244284
vt 0.6210279 0.07891384
vt 0.59923416 0.13749626
vt 0.6227054 0.013777361
vt 0.68517876 0
vt 0.19030221 0.5926166
vt 0.20954877 0.45642403
vt 0.27671725 0.5424171
vt 0.27502987 0.60654753
vt 0.30718705 0.5912737
vt 0.3315822 0.6495408
vt 0.2125061 0.6379783
vt 0.30932727 0.66668975
vt 0.23977989 0.67791736
vt 0.21840945 0.6910608
vt 0.1771991 0.675653
vt 0.1952241 0.7099755
vt 0.22730719 0.7710672
vt 0.2850084 0.7441486
vt 0.32410717 0.72671473
vt 0.3315822 0.8108909
vt 0.12445033 0.88272744
vt 0.13459346 0.92705274
vt 0.118833065 0.91520464
vt 0.029831218 0.8662915
vt 0.04120145 0.84823847
vt 0.13459346 0.8118623
vt 0.014586215 0.85860515
vt 0.006344385 0.91023856
vt 0.055812206 0.9167029
vt 0.07597911 0.9405134
vt 0.10054917 0.9524297
vt 0.03373438 0.91510206
vt 0.016143437 0.91420496
vt 0.025230289 0.94425434
vt 0.008589751 0.9476432
vt 0 0.94567424
vt 0.4166982 0.8883844
vt 0.44437116 0.8972779
vt 0.42541498 0.9261302
vt 0.4784857 0.9142962
vt 0.45555466 0.9547197
vt 0.41865915 0.9547197
vt 0.923967 0.5265394
vt 0.88042325 0.48831704
vt 0.8858247 0.38635334
vt 0.9273596 0.40759468
vt 0.97330445 0.47121757
vt 0.97330445 0.37864053
vt 0.87123483 0.6485235
vt 0.8273133 0.6735019
vt 0.8210195 0.5904178
vt 0.7629219 0.5992589
vt 0.82242316 0.48842975
vt 0.87123483 0.47961864
vt 0.75919056 0.4700137
vt 0.8339568 0.46264127
vt 0.76616776 0.4473538
vt 0.78633755 0.37864053
vt 0.9958276 0.9154867
vt 0.9958276 0.97698194
vt 0.97140336 0.970249
vt 0.95606023 0.91680205
vt 0.9538918 0.9701389
vt 0.75919056 0.93168813
vt 0.79962325 0.96114165
vt 0.77940774 0.97460806
vt 0.7757094 0.92720497
vt 0.7992231 0.92929655
vt 0.7808211 0.8964899
vt 0.79962325 0.8892549
vt 0.9447032 0.98594135
vt 0.92055905 0.96472645
vt 0.9447032 0.9154867
vt 0.9137541 0.9182853
vt 0.9039406 0.92054886
vt 0.91369635 0.9668703
vt 0.9916219 0.86281574
vt 0.9627488 0.8498158
vt 0.9623976 0.82055163
vt 0.9916219 0.80018175
vt 0.80881166 0.9151965
vt 0.8477822 0.8892547
vt 0.8349308 0.9297713
vt 0.811724 0.9402521
vt 0.8477822 0.94809693
vt 0.8154087 0.97162884
vt 0.94920886 0.28810272
vt 0.9492088 0.34555
vt 0.9198775 0.27093756
vt 0.8876546 0.3388034
vt 0.8868701 0.2958499
vt 0.96805406 0.5391982
vt 0.96805406 0.60907036
vt 0.9459171 0.57954276
vt 0.92830974 0.5358466
vt 0.96215004 0.18739347
vt 0.94284713 0.17622434
vt 0.96215004 0.22513403
vt 0.96215004 0.14965288
vt 0.9210635 0.19511597
vt 0.92354435 0.12731466
vt 0.27914968 0.96139646
vt 0.30838683 0.8762738
vt 0.23766533 0.87951136
vt 0.18261339 0.96139646
vt 0.24230355 0.8201981
vt 0.17719921 0.84876394
vt 0.27914968 0.96139646
vt 0.23766533 0.87951136
vt 0.30838683 0.8762738
vt 0.18261339 0.96139646
vt 0.24230355 0.8201981
vt 0.17719921 0.84876394
vt 0.9210635 0.19511597
vt 0.92354435 0.12731466
vt 0.94284713 0.17622434
vt 0.96215004 0.22513403
vt 0.96215004 0.14965288
vt 0.96215004 0.18739347
vn 0.12745358 -0.9491612 0.15200968
vn 0.17201541 -0.9844545 0.035489276
vn 0.1820068 -0.8082764 -0.49869904
vn 0.26151913 0.8997168 -0.2250677
vn 0.5019416 0.8063958 0.051116273
vn 0.26320863 0.48513985 -0.77588505
vn 0.7461526 -0.53892034 -0.31763422
vn 0.29637045 -0.89848304 -0.1990724
vn 0.5338096 -0.71202147 -0.36936274
vn 0.04466001 -0.07510492 0.98610663
vn 0.7574929 -0.046167225 0.6423747
vn 0.4152237 -0.3337071 0.84569657
vn 0.5305285 -0.8381881 -0.0910611
vn -0.009284508 -0.9681947 -0.2169921
vn -0.020914178 -0.8739777 -0.47286886
vn -0.81306565 -0.5114218 0.17049769
vn -0.4971581 -0.81413996 -0.005886957
vn -0.11170198 -0.8578484 0.4385814
vn -0.094896965 -0.78669137 -0.6100092
vn 0.29177806 -0.8472796 0.4433444
vn 0.59825957 -0.6373925 -0.4851949
vn 0.99393165 0.09159683 0.060870472
vn 0.47392642 -0.8334832 0.28260964
vn 0.798345 -0.58521056 -0.13492523
vn 0.697938 -0.6612711 0.27366915
vn 0.44865087 -0.87164956 -0.16734163
vn 0.9659526 -0.2100764 0.11222839
vn 0.85781 -0.051456213 0.5078722
vn 0.6175695 0.7094905 0.26288843
vn 0.28480437 0.89836466 -0.14127871
vn -0.9771832 -0.092699796 0.19110043
vn -0.81306565 -0.5114218 0.17049769
vn -0.2869407 -0.4290966 0.85646987
vn 0.3756345 0.49163008 0.7480184
vn 0.04936854 -0.26385432 0.94538176
vn 0.06559117 0.3089583 0.92451215
vn -0.2853413 -0.549209 -0.78350973
vn -0.044658758 0.15561898 -0.9851064
vn -0.042165913 -0.3443205 -0.93618935
vn -0.30451718 -0.91908044 -0.2337225
vn -0.38537693 -0.43845922 -0.7841445
vn -0.41875175 -0.78536004 -0.4559131
vn -0.104203165 0.9555878 0.15773678
vn -0.2017343 0.81261986 -0.46956113
vn -0.41495746 0.83868486 0.2462844
vn -0.8097535 -0.4579093 -0.30427784
vn -0.6199371 -0.630338 -0.41482982
vn -0.33567333 -0.88147944 -0.202054
vn 0.04466001 -0.07510492 0.98610663
vn -0.3367851 -0.33412158 0.8797229
vn -0.6974921 -0.050869234 0.7054556
vn -0.53566164 -0.83877593 -0.04281895
vn -0.020914178 -0.8739777 -0.47286886
vn -0.009284508 -0.9681947 -0.2169921
vn 0.63632995 -0.58141494 -0.49619207
vn -0.11255331 -0.9785061 -0.15048862
vn 0.25588477 -0.7441841 -0.6056127
vn 0.027377201 0.4603952 -0.8872914
vn -0.6509641 0.32872486 -0.6842269
vn -0.30411243 -0.60661125 -0.73451775
vn -0.98375046 -0.072002865 0.16446874
vn -0.8031239 -0.5055401 0.015629001
vn -0.49106923 -0.5458886 -0.67883456
vn -0.66320497 -0.5692384 0.47864747
vn -0.958698 -0.15451862 0.21217614
vn -0.45411938 -0.86890554 0.024897873
vn -0.8216696 -0.1302531 0.54974526
vn -0.05460808 0.90345037 0.414803
vn -0.4373075 0.63215584 0.6327108
vn 0.8986457 -0.4118968 -0.15092099
vn 0.0716584 -0.99547714 -0.06237112
vn 0.63632995 -0.58141494 -0.49619207
vn -0.27206618 0.42434007 0.8464083
vn 0.06559117 0.3089583 0.92451215
vn 0.04936854 -0.26385432 0.94538176
vn 0.2168914 -0.6080032 -0.7435764
vn -0.042165913 -0.3443205 -0.93618935
vn -0.044658758 0.15561898 -0.9851064
vn -0.6449566 -0.5202356 0.55980825
vn 0.2899927 -0.82018274 0.49315715
vn -0.87263656 -0.3457965 -0.34486198
vn -0.4209771 -0.90352 0.08018115
vn -0.17244403 -0.73090017 -0.66033906
vn 0.47355473 -0.8211219 -0.3185981
vn -0.81332254 0.15164644 0.5617023
vn -0.87263656 -0.3457965 -0.34486198
vn -0.4209771 -0.90352 0.08018115
vn -0.987761 -0.06841008 -0.14017063
vn -0.6449566 -0.5202356 0.55980825
vn -0.2869407 -0.4290966 0.85646987
vn -0.9771832 -0.092699796 0.19110043
vn -0.4036214 0.3500131 -0.84532845
vn 0.12745358 -0.9491612 0.15200968
vn 0.1820068 -0.8082764 -0.49869904
vn 0.5338096 -0.71202147 -0.36936274
vn 0.7461526 -0.53892034 -0.31763422
vn 0.94438374 -0.28039333 -0.04824258
vn 0.582498 -0.741672 -0.25793812
vn 0.9659526 -0.2100764 0.11222839
vn 0.44865087 -0.87164956 -0.16734163
vn 0.26320863 0.48513985 -0.77588505
vn 0.930589 0.3046968 -0.0016122423
vn 0.5019416 0.8063958 0.051116273
vn 0.7484062 0.6291999 -0.16569588
vn 0.97965825 0.19001816 -0.064341374
vn 0.51130474 0.8086083 -0.28620133
vn 0.80557823 0.586603 -0.068071485
vn 0.9868853 -0.15777984 0.033993606
vn 0.7610551 -0.6469369 0.044718623
vn 0.697938 -0.6612711 0.27366915
vn 0.798345 -0.58521056 -0.13492523
vn 0.99393165 0.09159683 0.060870472
vn 0.38103345 0.92076427 -0.08370352
vn 0.50469923 0.71133554 -0.4866442
vn 0.9334701 -0.1712427 -0.31493464
vn -0.4149635 -0.8987143 -0.13394661
vn 0.798345 -0.58521056 -0.13492523
vn 0.47392642 -0.8334832 0.28260964
vn -0.86020076 -0.45041257 -0.23905085
vn -0.22078337 -0.80970526 0.5437201
vn -0.81934786 -0.4852322 -0.30531687
vn -0.094896965 -0.78669137 -0.6100092
vn 0.29177806 -0.8472796 0.4433444
vn 0.9334701 -0.1712427 -0.31493464
vn 0.99393165 0.09159683 0.060870472
vn 0.59825957 -0.6373925 -0.4851949
vn -0.659599 0.0933515 -0.7452331
vn -0.43706742 0.72413737 -0.5308219
vn -0.875339 0.48323113 -0.009397447
vn -0.86020076 -0.45041257 -0.23905085
vn -0.4149635 -0.8987143 -0.13394661
vn -0.97022563 0.011332741 -0.24057816
vn -0.24958889 0.962633 0.018325325
vn -0.6680184 -0.7157167 -0.19502547
vn -0.9801268 0.19222489 -0.045429174
vn -0.799495 0.28866324 -0.52516294
vn -0.2853413 -0.549209 -0.78350973
vn -0.044658758 0.15561898 -0.9851064
vn -0.028311256 0.76194686 -0.63772553
vn 0.51130474 0.8086083 -0.28620133
vn -0.799495 0.28866324 -0.52516294
vn -0.24958889 0.962633 0.018325325
vn 0.80557823 0.586603 -0.068071485
vn 0.38103345 0.92076427 -0.08370352
vn -0.875339 0.48323113 -0.009397447
vn -0.43706742 0.72413737 -0.5308219
vn 0.50469923 0.71133554 -0.4866442
vn 0.83077955 0.35847297 0.38108858
vn 0.85781 -0.051456213 0.5078722
vn 0.28480437 0.89836466 -0.14127871
vn 0.7782817 0.5118765 -0.21722855
vn 0.17881119 0.3424942 -0.8350325
vn 0.71651065 0.107452154 -0.68925047
vn -0.4685207 0.3865087 -0.72131836
vn 0.26151913 0.8997168 -0.2250677
vn 0.6175695 0.7094905 0.26288843
vn 0.3756345 0.49163008 0.7480184
vn 0.5019416 0.8063958 0.051116273
vn 0.47628266 0.23665953 0.8227887
vn 0.85781 -0.051456213 0.5078722
vn 0.44727343 -0.37298787 0.7945704
vn 0.04936854 -0.26385432 0.94538176
vn 0.54501426 -0.19891103 0.80006313
vn 0.32337424 0.79007214 0.45041043
vn 0.06566036 0.75906813 0.6022309
vn 0.06559117 0.3089583 0.92451215
vn 0.063860826 0.92384636 0.26415235
vn 0.044618607 0.9514578 -0.02386351
vn 0.46998078 0.829397 0.14526144
vn 0.930589 0.3046968 -0.0016122423
vn 0.048753478 0.9473124 0.14391878
vn 0.7484062 0.6291999 -0.16569588
vn 0.039918594 0.9283911 0.2962752
vn 0.08879969 0.96954244 -0.15542635
vn -0.028311256 0.76194686 -0.63772553
vn -0.81306565 -0.5114218 0.17049769
vn 0.1820068 -0.8082764 -0.49869904
vn -0.4971581 -0.81413996 -0.005886957
vn -0.4685207 0.3865087 -0.72131836
vn 0.26320863 0.48513985 -0.77588505
vn 0.26151913 0.8997168 -0.2250677
vn -0.87446547 -0.23215023 -0.39720246
vn -0.9771832 -0.092699796 0.19110043
vn 0.2899927 -0.82018274 0.49315715
vn 0.8523681 -0.36795264 -0.37159032
vn 0.47355473 -0.8211219 -0.3185981
vn 0.7775585 -0.36180848 0.5142929
vn 0.71651065 0.107452154 -0.68925047
vn 0.43264422 0.31275028 -0.84558016
vn 0.1229953 -0.11911979 -0.98523223
vn 0.98142695 0.08990547 0.14060184
vn 0.5180669 -0.24340254 0.7476869
vn 0.7782817 0.5118765 -0.21722855
vn 0.8430159 0.23666689 0.42037517
vn 0.38501 -0.2909977 0.8154624
vn 0.83077955 0.35847297 0.38108858
vn 0.75813717 -0.4739497 0.4334867
vn 0.85781 -0.051456213 0.5078722
vn 0.48226535 -0.7559086 0.43395993
vn 0.17201541 -0.9844545 0.035489276
vn -0.11170198 -0.8578484 0.4385814
vn 0.43264422 0.31275028 -0.84558016
vn 0.71651065 0.107452154 -0.68925047
vn -0.4036214 0.3500131 -0.84532845
vn 0.1229953 -0.11911979 -0.98523223
vn -0.46522525 0.4329 -0.7721158
vn -0.38815272 0.8880295 -0.24645656
vn -0.17244403 -0.73090017 -0.66033906
vn -0.8512297 -0.5246998 -0.009852856
vn -0.4209771 -0.90352 0.08018115
vn -0.71640253 -0.2676033 -0.64432555
vn 0.1229953 -0.11911979 -0.98523223
vn -0.46522525 0.4329 -0.7721158
vn 0.8523681 -0.36795264 -0.37159032
vn 0.47355473 -0.8211219 -0.3185981
vn -0.4209771 -0.90352 0.08018115
vn -0.8512297 -0.5246998 -0.009852856
vn -0.86160356 0.24680105 0.4435406
vn -0.81332254 0.15164644 0.5617023
vn 0.1820068 -0.8082764 -0.49869904
vn 0.17201541 -0.9844545 0.035489276
vn -0.4971581 -0.81413996 -0.005886957
vn -0.11170198 -0.8578484 0.4385814
vn -0.094896965 -0.78669137 -0.6100092
vn -0.86020076 -0.45041257 -0.23905085
vn -0.81934786 -0.4852322 -0.30531687
vn 0.0015169531 0.0058590546 -0.9995886
vn 0.59825957 -0.6373925 -0.4851949
vn -0.659599 0.0933515 -0.7452331
vn 0.9334701 -0.1712427 -0.31493464
vn -0.43706742 0.72413737 -0.5308219
vn 0.50469923 0.71133554 -0.4866442
vn 0.7461526 -0.53892034 -0.31763422
vn 0.582498 -0.741672 -0.25793812
vn 0.29637045 -0.89848304 -0.1990724
vn -0.009782653 -0.9635362 -0.014050841
vn 0.0057481043 -0.96955025 0.11520392
vn 0.12448739 -0.96388185 0.041567743
vn 0.5338096 -0.71202147 -0.36936274
vn 0.12745358 -0.9491612 0.15200968
vn 0.038485054 -0.9578874 0.18540847
vn 0.45930368 -0.5586195 -0.6623701
vn -0.040158115 -0.679142 -0.70704556
vn 0.549871 -0.81663275 0.0015420914
vn 0.20307101 -0.88013864 0.36247808
vn 0.69765866 -0.68170464 0.17154452
vn 0.54501426 -0.19891103 0.80006313
vn 0.44727343 -0.37298787 0.7945704
vn 0.48226535 -0.7559086 0.43395993
vn 0.17201541 -0.9844545 0.035489276
vn 0.85781 -0.051456213 0.5078722
vn 0.47628266 0.23665953 0.8227887
vn 0.582498 -0.741672 -0.25793812
vn -0.013810642 -0.9275695 -0.3165347
vn -0.009782653 -0.9635362 -0.014050841
vn 0.32883263 -0.77127504 -0.53827596
vn -0.025551885 -0.81271434 -0.5747982
vn -0.042165913 -0.3443205 -0.93618935
vn 0.44865087 -0.87164956 -0.16734163
vn -0.2853413 -0.549209 -0.78350973
vn 0.013464452 -0.9946097 -0.09335725
vn 0.36486855 -0.9294709 -0.044538714
vn 0.697938 -0.6612711 0.27366915
vn 0.7610551 -0.6469369 0.044718623
vn 0.798345 -0.58521056 -0.13492523
vn 0.023884704 -0.9812678 -0.17610374
vn -0.6680184 -0.7157167 -0.19502547
vn -0.4149635 -0.8987143 -0.13394661
vn 0.7574929 -0.046167225 0.6423747
vn 0.87054056 -0.18489029 0.45323372
vn 0.4152237 -0.3337071 0.84569657
vn 0.9907524 -0.100061424 0.050796725
vn 0.69765866 -0.68170464 0.17154452
vn 0.54501426 -0.19891103 0.80006313
vn 0.549871 -0.81663275 0.0015420914
vn 0.8356745 -0.06477482 -0.53570616
vn 0.91611373 -0.39577967 -0.03803967
vn 0.7322979 -0.6413215 -0.22271389
vn 0.57942206 -0.80483264 0.12850769
vn 0.9314073 -0.345622 0.09860315
vn 0.9560898 -0.2887997 -0.010783114
vn 0.53259605 -0.8220059 0.1717768
vn 0.6062823 -0.78423053 -0.074958116
vn 0.56288177 -0.5084374 -0.64038557
vn 0.04466001 -0.07510492 0.98610663
vn 0.4152237 -0.3337071 0.84569657
vn 0.038683318 -0.52340037 0.8485542
vn 0.013033945 -0.9609681 0.2763517
vn 0.57942206 -0.80483264 0.12850769
vn 0.87054056 -0.18489029 0.45323372
vn -0.4685207 0.3865087 -0.72131836
vn 0.71651065 0.107452154 -0.68925047
vn 0.17881119 0.3424942 -0.8350325
vn -0.4036214 0.3500131 -0.84532845
vn -0.87446547 -0.23215023 -0.39720246
vn -0.9771832 -0.092699796 0.19110043
vn -0.6449566 -0.5202356 0.55980825
vn -0.2869407 -0.4290966 0.85646987
vn 0.2899927 -0.82018274 0.49315715
vn 0.7775585 -0.36180848 0.5142929
vn -0.18763995 -0.32182276 0.88705236
vn -0.81306565 -0.5114218 0.17049769
vn 0.5180669 -0.24340254 0.7476869
vn -0.11170198 -0.8578484 0.4385814
vn 0.38501 -0.2909977 0.8154624
vn 0.75813717 -0.4739497 0.4334867
vn 0.54501426 -0.19891103 0.80006313
vn 0.043513782 -0.39602944 0.8978436
vn 0.04936854 -0.26385432 0.94538176
vn 0.7574929 -0.046167225 0.6423747
vn 0.04466001 -0.07510492 0.98610663
vn 0.6062823 -0.78423053 -0.074958116
vn -0.0026232144 -0.98726016 -0.07000473
vn -0.009284508 -0.9681947 -0.2169921
vn 0.53259605 -0.8220059 0.1717768
vn 0.5305285 -0.8381881 -0.0910611
vn 0.9314073 -0.345622 0.09860315
vn 0.91611373 -0.39577967 -0.03803967
vn 0.8356745 -0.06477482 -0.53570616
vn -0.044697616 -0.042550117 -0.9812593
vn 0.56288177 -0.5084374 -0.64038557
vn -0.027722877 -0.76661164 -0.6220391
vn -0.0026232144 -0.98726016 -0.07000473
vn 0.6062823 -0.78423053 -0.074958116
vn -0.020914178 -0.8739777 -0.47286886
vn 0.45994735 -0.85208917 -0.24721298
vn 0.5305285 -0.8381881 -0.0910611
vn 0.013033945 -0.9609681 0.2763517
vn 0.57942206 -0.80483264 0.12850769
vn 0.45994735 -0.85208917 -0.24721298
vn 0.013033945 -0.9609681 0.2763517
vn 0.7322979 -0.6413215 -0.22271389
vn 0.5305285 -0.8381881 -0.0910611
vn 0.91611373 -0.39577967 -0.03803967
vn -0.8512297 -0.5246998 -0.009852856
vn -0.71640253 -0.2676033 -0.64432555
vn -0.86160356 0.24680105 0.4435406
vn -0.38815272 0.8880295 -0.24645656
vn -0.46522525 0.4329 -0.7721158
vn -0.81332254 0.15164644 0.5617023
vn -0.86160356 0.24680105 0.4435406
vn -0.38815272 0.8880295 -0.24645656
vn -0.4036214 0.3500131 -0.84532845
vn 0.43441844 -0.84017694 -0.3246275
vn 0.8083374 -0.008814052 -0.5886538
vn -0.5279632 -0.70233035 -0.47747964
vn 0.19218898 -0.5135588 -0.836254
vn 0.08496 0.26958767 -0.9592207
vn -0.6026533 0.06312782 -0.7955023
vn 0.7486812 -0.61408955 0.24974087
vn 0.19218898 -0.5135588 -0.836254
vn 0.8083374 -0.008814052 -0.5886538
vn 0.9563116 -0.107738264 -0.27177384
vn 0.43441844 -0.84017694 -0.3246275
vn 0.0716584 -0.99547714 -0.06237112
vn 0.8986457 -0.4118968 -0.15092099
vn 0.57602733 0.8101184 -0.10909259
vn -0.30451718 -0.91908044 -0.2337225
vn -0.6199371 -0.630338 -0.41482982
vn -0.38537693 -0.43845922 -0.7841445
vn -0.8097535 -0.4579093 -0.30427784
vn -0.97539663 -0.18153512 -0.015605945
vn -0.6204419 -0.7179492 -0.23945796
vn -0.958698 -0.15451862 0.21217614
vn -0.45411938 -0.86890554 0.024897873
vn -0.2017343 0.81261986 -0.46956113
vn -0.89249086 0.41027975 0.16272905
vn -0.41495746 0.83868486 0.2462844
vn -0.755236 0.608346 -0.16535398
vn -0.9837244 0.17554133 -0.020952223
vn -0.5404912 0.6816692 -0.34023795
vn -0.7890563 0.2533317 0.44384903
vn -0.9779179 -0.1335226 0.16056211
vn -0.746103 -0.6064039 0.270088
vn -0.66320497 -0.5692384 0.47864747
vn -0.8031239 -0.5055401 0.015629001
vn -0.98375046 -0.072002865 0.16446874
vn -0.34628418 0.3561939 0.8678778
vn -0.50057244 0.62898266 0.59472466
vn -0.9558356 0.23319347 -0.17886749
vn 0.3710154 -0.1741797 -0.8510712
vn -0.49106923 -0.5458886 -0.67883456
vn -0.8031239 -0.5055401 0.015629001
vn 0.82552546 0.1910024 -0.5310591
vn 0.21413651 -0.6714068 -0.7094773
vn 0.77969 0.24859935 -0.57470167
vn 0.027377201 0.4603952 -0.8872914
vn -0.30411243 -0.60661125 -0.73451775
vn -0.9558356 0.23319347 -0.17886749
vn -0.98375046 -0.072002865 0.16446874
vn -0.6509641 0.32872486 -0.6842269
vn 0.6213538 0.7783777 -0.0894958
vn 0.8928386 0.19742495 0.40478644
vn 0.43686843 0.7159097 0.5445086
vn 0.82552546 0.1910024 -0.5310591
vn 0.3710154 -0.1741797 -0.8510712
vn 0.9522334 0.19053936 -0.1546543
vn 0.26266477 0.5546145 0.28978834
vn 0.65257645 -0.6234233 -0.16302308
vn 0.97235656 0.15261517 -0.1219981
vn 0.7485741 0.18828392 -0.59436685
vn 0.2168914 -0.6080032 -0.7435764
vn -0.044658758 0.15561898 -0.9851064
vn -0.028311256 0.76194686 -0.63772553
vn -0.5404912 0.6816692 -0.34023795
vn 0.26266477 0.5546145 0.28978834
vn 0.7485741 0.18828392 -0.59436685
vn -0.7890563 0.2533317 0.44384903
vn -0.34628418 0.3561939 0.8678778
vn 0.8928386 0.19742495 0.40478644
vn 0.43686843 0.7159097 0.5445086
vn -0.50057244 0.62898266 0.59472466
vn -0.6991437 0.2204279 0.6738906
vn -0.05460808 0.90345037 0.414803
vn -0.8216696 -0.1302531 0.54974526
vn -0.5964687 0.7056607 0.3581259
vn -0.013967469 0.966458 -0.2129797
vn -0.58044744 0.80956274 -0.08768664
vn 0.5788088 0.7279124 -0.35052034
vn -0.104203165 0.9555878 0.15773678
vn -0.4373075 0.63215584 0.6327108
vn -0.27206618 0.42434007 0.8464083
vn -0.41495746 0.83868486 0.2462844
vn -0.3642213 0.005552441 0.91958773
vn -0.8216696 -0.1302531 0.54974526
vn -0.39106545 -0.4419516 0.7895657
vn 0.04936854 -0.26385432 0.94538176
vn -0.4730388 -0.2248886 0.83840877
vn -0.24476177 0.77542406 0.54601365
vn 0.06566036 0.75906813 0.6022309
vn 0.06559117 0.3089583 0.92451215
vn 0.063860826 0.92384636 0.26415235
vn 0.044618607 0.9514578 -0.02386351
vn -0.3956179 0.83553696 0.31257454
vn -0.89249086 0.41027975 0.16272905
vn 0.048753478 0.9473124 0.14391878
vn -0.755236 0.608346 -0.16535398
vn 0.039918594 0.9283911 0.2962752
vn -0.0959495 0.9205961 -0.2480169
vn -0.028311256 0.76194686 -0.63772553
vn 0.63632995 -0.58141494 -0.49619207
vn 0.25588477 -0.7441841 -0.6056127
vn -0.38537693 -0.43845922 -0.7841445
vn 0.5788088 0.7279124 -0.35052034
vn -0.2017343 0.81261986 -0.46956113
vn -0.104203165 0.9555878 0.15773678
vn 0.8301804 0.062127702 -0.5496503
vn 0.8986457 -0.4118968 -0.15092099
vn -0.5279632 -0.70233035 -0.47747964
vn -0.6026533 0.06312782 -0.7955023
vn -0.85937047 0.3672228 -0.35585093
vn -0.8979305 -0.43988264 0.014983445
vn -0.58044744 0.80956274 -0.08768664
vn -0.2400663 0.9706483 -0.0144851655
vn -0.020936668 0.8619898 -0.5064932
vn -0.9354722 0.13183711 0.32095534
vn -0.60670805 -0.6642043 0.42165452
vn -0.5964687 0.7056607 0.3581259
vn -0.7718271 -0.015326619 0.62600255
vn -0.45646438 -0.7081984 0.52655464
vn -0.6991437 0.2204279 0.6738906
vn -0.8457152 -0.48299927 0.22410277
vn -0.8216696 -0.1302531 0.54974526
vn -0.63545173 -0.76853305 0.07003325
vn -0.41875175 -0.78536004 -0.4559131
vn -0.11255331 -0.9785061 -0.15048862
vn -0.2400663 0.9706483 -0.0144851655
vn 0.57602733 0.8101184 -0.10909259
vn -0.58044744 0.80956274 -0.08768664
vn -0.020936668 0.8619898 -0.5064932
vn 0.64499193 0.76407146 -0.0134424865
vn 0.60686195 0.4872837 0.6279118
vn 0.08496 0.26958767 -0.9592207
vn 0.19218898 -0.5135588 -0.836254
vn 0.70478714 -0.37457377 -0.6024697
vn 0.7130456 0.32282698 -0.6223737
vn -0.020936668 0.8619898 -0.5064932
vn 0.64499193 0.76407146 -0.0134424865
vn -0.85937047 0.3672228 -0.35585093
vn -0.6026533 0.06312782 -0.7955023
vn 0.19218898 -0.5135588 -0.836254
vn 0.7486812 -0.61408955 0.24974087
vn 0.8317898 -0.48105264 0.27697346
vn 0.70478714 -0.37457377 -0.6024697
vn -0.38537693 -0.43845922 -0.7841445
vn 0.25588477 -0.7441841 -0.6056127
vn -0.41875175 -0.78536004 -0.4559131
vn -0.11255331 -0.9785061 -0.15048862
vn 0.027377201 0.4603952 -0.8872914
vn 0.77969 0.24859935 -0.57470167
vn 0.82552546 0.1910024 -0.5310591
vn -0.05552151 0.9816798 -0.18217817
vn -0.6509641 0.32872486 -0.6842269
vn 0.6213538 0.7783777 -0.0894958
vn -0.9558356 0.23319347 -0.17886749
vn 0.43686843 0.7159097 0.5445086
vn -0.50057244 0.62898266 0.59472466
vn -0.8097535 -0.4579093 -0.30427784
vn -0.33567333 -0.88147944 -0.202054
vn -0.6204419 -0.7179492 -0.23945796
vn -0.009782653 -0.9635362 -0.014050841
vn 0.0057481043 -0.96955025 0.11520392
vn -0.1517461 -0.97726035 -0.015987217
vn -0.6199371 -0.630338 -0.41482982
vn -0.30451718 -0.91908044 -0.2337225
vn -0.0405379 -0.9750098 0.14527878
vn -0.53000754 -0.5318626 -0.6438626
vn -0.040158115 -0.679142 -0.70704556
vn -0.5712964 -0.81033885 0.0004402399
vn -0.21527204 -0.92341626 0.27908072
vn -0.6946614 -0.6794179 0.2006695
vn -0.4730388 -0.2248886 0.83840877
vn -0.39106545 -0.4419516 0.7895657
vn -0.63545173 -0.76853305 0.07003325
vn -0.41875175 -0.78536004 -0.4559131
vn -0.8216696 -0.1302531 0.54974526
vn -0.3642213 0.005552441 0.91958773
vn -0.6204419 -0.7179492 -0.23945796
vn -0.009782653 -0.9635362 -0.014050841
vn -0.013810642 -0.9275695 -0.3165347
vn -0.37122148 -0.8073695 -0.41802698
vn -0.025551885 -0.81271434 -0.5747982
vn -0.042165913 -0.3443205 -0.93618935
vn -0.45411938 -0.86890554 0.024897873
vn 0.2168914 -0.6080032 -0.7435764
vn -0.010730114 -0.9822433 0.12915717
vn -0.35638398 -0.90532225 0.20916277
vn -0.66320497 -0.5692384 0.47864747
vn -0.746103 -0.6064039 0.270088
vn -0.8031239 -0.5055401 0.015629001
vn -0.032662526 -0.8477255 -0.04083453
vn 0.65257645 -0.6234233 -0.16302308
vn 0.3710154 -0.1741797 -0.8510712
vn -0.6974921 -0.050869234 0.7054556
vn -0.3367851 -0.33412158 0.8797229
vn -0.8258479 -0.18582556 0.52999055
vn -0.9860727 -0.08549298 0.13282406
vn -0.6946614 -0.6794179 0.2006695
vn -0.4730388 -0.2248886 0.83840877
vn -0.5712964 -0.81033885 0.0004402399
vn -0.88184536 -0.055992775 -0.4599568
vn -0.9153695 -0.3967893 0.04482985
vn -0.7487124 -0.64213806 -0.15570223
vn -0.564563 -0.8054634 0.1802699
vn -0.91870713 -0.3460376 0.18153228
vn -0.95330787 -0.28880054 0.07469742
vn -0.51400185 -0.8225829 0.21913238
vn -0.609711 -0.78490096 -0.01993791
vn -0.6178549 -0.50908834 -0.5869606
vn 0.04466001 -0.07510492 0.98610663
vn 0.038683318 -0.52340037 0.8485542
vn -0.3367851 -0.33412158 0.8797229
vn 0.013033945 -0.9609681 0.2763517
vn -0.564563 -0.8054634 0.1802699
vn -0.8258479 -0.18582556 0.52999055
vn 0.5788088 0.7279124 -0.35052034
vn -0.013967469 0.966458 -0.2129797
vn -0.58044744 0.80956274 -0.08768664
vn 0.57602733 0.8101184 -0.10909259
vn 0.8301804 0.062127702 -0.5496503
vn 0.8986457 -0.4118968 -0.15092099
vn 0.43441844 -0.84017694 -0.3246275
vn -0.5279632 -0.70233035 -0.47747964
vn 0.0716584 -0.99547714 -0.06237112
vn -0.8979305 -0.43988264 0.014983445
vn 0.0016077347 -0.9871323 0.12543242
vn 0.63632995 -0.58141494 -0.49619207
vn -0.60670805 -0.6642043 0.42165452
vn -0.11255331 -0.9785061 -0.15048862
vn -0.45646438 -0.7081984 0.52655464
vn -0.8457152 -0.48299927 0.22410277
vn -0.4730388 -0.2248886 0.83840877
vn 0.04936854 -0.26385432 0.94538176
vn 0.043513782 -0.39602944 0.8978436
vn -0.6974921 -0.050869234 0.7054556
vn 0.04466001 -0.07510492 0.98610663
vn -0.609711 -0.78490096 -0.01993791
vn -0.009284508 -0.9681947 -0.2169921
vn -0.0026232144 -0.98726016 -0.07000473
vn -0.51400185 -0.8225829 0.21913238
vn -0.53566164 -0.83877593 -0.04281895
vn -0.91870713 -0.3460376 0.18153228
vn -0.9153695 -0.3967893 0.04482985
vn -0.88184536 -0.055992775 -0.4599568
vn -0.6178549 -0.50908834 -0.5869606
vn -0.044697616 -0.042550117 -0.9812593
vn -0.027722877 -0.76661164 -0.6220391
vn -0.0026232144 -0.98726016 -0.07000473
vn -0.609711 -0.78490096 -0.01993791
vn -0.020914178 -0.8739777 -0.47286886
vn -0.53566164 -0.83877593 -0.04281895
vn -0.4794556 -0.852607 -0.20470753
vn 0.013033945 -0.9609681 0.2763517
vn -0.564563 -0.8054634 0.1802699
vn 0.013033945 -0.9609681 0.2763517
vn -0.4794556 -0.852607 -0.20470753
vn -0.7487124 -0.64213806 -0.15570223
vn -0.53566164 -0.83877593 -0.04281895
vn -0.9153695 -0.3967893 0.04482985
vn 0.70478714 -0.37457377 -0.6024697
vn 0.8317898 -0.48105264 0.27697346
vn 0.7130456 0.32282698 -0.6223737
vn 0.60686195 0.4872837 0.6279118
vn 0.64499193 0.76407146 -0.0134424865
vn 0.7486812 -0.61408955 0.24974087
vn 0.57602733 0.8101184 -0.10909259
vn 0.60686195 0.4872837 0.6279118
vn 0.8317898 -0.48105264 0.27697346
vn 0.45930368 -0.5586195 -0.6623701
vn 0.37199587 0.27092266 -0.86598194
vn 0.549871 -0.81663275 0.0015420914
vn -0.040158115 -0.679142 -0.70704556
vn 0.8356745 -0.06477482 -0.53570616
vn -0.044697616 -0.042550117 -0.9812593
vn 0.51130474 0.8086083 -0.28620133
vn 0.7484062 0.6291999 -0.16569588
vn -0.017314129 0.6387134 -0.7666999
vn -0.799495 0.28866324 -0.52516294
vn 0.08879969 0.96954244 -0.15542635
vn -0.028311256 0.76194686 -0.63772553
vn -0.5404912 0.6816692 -0.34023795
vn -0.054847747 0.5218576 -0.81386936
vn -0.755236 0.608346 -0.16535398
vn 0.7485741 0.18828392 -0.59436685
vn -0.0959495 0.9205961 -0.2480169
vn -0.028311256 0.76194686 -0.63772553
vn -0.88184536 -0.055992775 -0.4599568
vn -0.044697616 -0.042550117 -0.9812593
vn -0.4484248 0.3031879 -0.82517856
vn -0.5712964 -0.81033885 0.0004402399
vn -0.040158115 -0.679142 -0.70704556
vn -0.53000754 -0.5318626 -0.6438626
g 0.4000_0
f 3/3/3 2/2/2 1/1/1
f 6/6/6 5/5/5 4/4/4
f 9/9/9 8/8/8 7/7/7
f 12/12/12 11/11/11 10/10/10
f 15/15/15 14/14/14 13/13/13
f 18/18/18 17/17/17 16/16/16
f 21/21/21 20/20/20 19/19/19
f 24/24/24 23/23/23 22/22/22
f 27/27/27 26/26/26 25/25/25
f 30/30/30 29/29/29 28/28/28
f 33/33/33 32/32/32 31/31/31
f 36/36/36 35/35/35 34/34/34
f 39/39/39 38/38/38 37/37/37
f 42/42/42 41/41/41 40/40/40
f 45/45/45 44/44/44 43/43/43
f 48/48/48 47/47/47 46/46/46
f 51/51/51 50/50/50 49/49/49
f 54/54/54 53/53/53 52/52/52
f 57/57/57 56/56/56 55/55/55
f 60/60/60 59/59/59 58/58/58
f 63/63/63 62/62/62 61/61/61
f 66/66/66 65/65/65 64/64/64
f 69/69/69 68/68/68 67/67/67
f 72/72/72 71/71/71 70/70/70
f 75/75/75 74/74/74 73/73/73
f 78/78/78 77/77/77 76/76/76
f 81/81/81 80/80/80 79/79/79
f 81/81/81 82/82/82 80/80/80
f 82/82/82 83/83/83 80/80/80
f 83/83/83 84/84/84 80/80/80
f 87/87/87 86/86/86 85/85/85
f 86/86/86 88/88/88 85/85/85
f 86/86/86 89/89/89 88/88/88
f 85/85/85 88/88/88 89/89/89
f 89/89/89 90/90/90 85/85/85
f 90/90/90 91/91/91 85/85/85
f 85/85/85 91/91/91 92/92/92
f 95/95/95 94/94/94 93/93/93
f 94/94/94 95/95/95 96/96/96
f 94/94/94 96/96/96 97/97/97
f 96/96/96 98/98/98 97/97/97
f 97/97/97 98/98/98 99/99/99
f 100/100/100 99/99/99 98/98/98
f 97/97/97 101/101/101 94/94/94
f 97/97/97 102/102/102 101/101/101
f 102/102/102 97/97/97 99/99/99
f 102/102/102 103/103/103 101/101/101
f 99/99/99 104/104/104 102/102/102
f 104/104/104 99/99/99 105/105/105
f 105/105/105 106/106/106 104/104/104
f 105/105/105 107/107/107 106/106/106
f 105/105/105 99/99/99 108/108/108
f 109/109/109 108/108/108 99/99/99
f 110/110/110 109/109/109 99/99/99
f 109/109/109 111/111/111 108/108/108
f 105/105/105 108/108/108 111/111/111
f 111/111/111 107/107/107 105/105/105
f 112/112/112 107/107/107 111/111/111
f 107/107/107 112/112/112 113/113/113
f 112/112/112 114/114/114 113/113/113
f 112/112/112 115/115/115 114/114/114
f 118/118/118 117/117/117 116/116/116
f 119/119/119 118/118/118 116/116/116
f 118/118/118 119/119/119 120/120/120
f 120/120/120 119/119/119 121/121/121
f 122/122/122 120/120/120 121/121/121
f 120/120/120 122/122/122 123/123/123
f 123/123/123 118/118/118 120/120/120
f 123/123/123 124/124/124 118/118/118
f 118/118/118 124/124/124 125/125/125
f 124/124/124 123/123/123 126/126/126
f 129/129/129 128/128/128 127/127/127
f 129/129/129 127/127/127 130/130/130
f 131/131/131 129/129/129 130/130/130
f 129/129/129 131/131/131 132/132/132
f 129/129/129 132/132/132 133/133/133
f 131/131/131 134/134/134 132/132/132
f 133/133/133 132/132/132 135/135/135
f 135/135/135 132/132/132 134/134/134
f 133/133/133 135/135/135 136/136/136
f 135/135/135 134/134/134 136/136/136
f 136/136/136 134/134/134 137/137/137
f 136/136/136 137/137/137 138/138/138
f 136/136/136 138/138/138 139/139/139
f 142/142/142 141/141/141 140/140/140
f 142/142/142 140/140/140 143/143/143
f 143/143/143 144/144/144 142/142/142
f 145/145/145 142/142/142 144/144/144
f 146/146/146 145/145/145 144/144/144
f 147/147/147 146/146/146 144/144/144
f 150/150/150 149/149/149 148/148/148
f 148/148/148 151/151/151 150/150/150
f 152/152/152 150/150/150 151/151/151
f 152/152/152 151/151/151 153/153/153
f 150/150/150 152/152/152 154/154/154
f 154/154/154 155/155/155 150/150/150
f 156/156/156 150/150/150 155/155/155
f 155/155/155 157/157/157 156/156/156
f 157/157/157 155/155/155 158/158/158
f 156/156/156 157/157/157 159/159/159
f 160/160/160 156/156/156 159/159/159
f 159/159/159 157/157/157 161/161/161
f 162/162/162 161/161/161 157/157/157
f 162/162/162 163/163/163 161/161/161
f 164/164/164 157/157/157 158/158/158
f 164/164/164 165/165/165 157/157/157
f 165/165/165 166/166/166 157/157/157
f 167/167/167 165/165/165 164/164/164
f 168/168/168 167/167/167 164/164/164
f 164/164/164 158/158/158 168/168/168
f 169/169/169 168/168/168 158/158/158
f 169/169/169 158/158/158 170/170/170
f 169/169/169 171/171/171 168/168/168
f 170/170/170 172/172/172 169/169/169
f 173/173/173 171/171/171 169/169/169
f 172/172/172 174/174/174 169/169/169
f 169/169/169 174/174/174 173/173/173
f 175/175/175 173/173/173 174/174/174
f 178/178/178 177/177/177 176/176/176
f 176/176/176 177/177/177 179/179/179
f 180/180/180 179/179/179 177/177/177
f 181/181/181 179/179/179 180/180/180
f 179/179/179 182/182/182 176/176/176
f 176/176/176 182/182/182 183/183/183
f 186/186/186 185/185/185 184/184/184
f 187/187/187 184/184/184 185/185/185
f 188/188/188 187/187/187 185/185/185
f 188/188/188 185/185/185 189/189/189
f 189/189/189 185/185/185 190/190/190
f 187/187/187 188/188/188 191/191/191
f 192/192/192 187/187/187 191/191/191
f 188/188/188 193/193/193 191/191/191
f 192/192/192 191/191/191 194/194/194
f 193/193/193 194/194/194 191/191/191
f 195/195/195 192/192/192 194/194/194
f 193/193/193 196/196/196 194/194/194
f 195/195/195 194/194/194 196/196/196
f 197/197/197 195/195/195 196/196/196
f 196/196/196 198/198/198 197/197/197
f 197/197/197 198/198/198 199/199/199
f 197/197/197 199/199/199 200/200/200
f 197/197/197 200/200/200 201/201/201
f 204/204/204 203/203/203 202/202/202
f 202/202/202 205/205/205 204/204/204
f 205/205/205 206/206/206 204/204/204
f 206/206/206 207/207/207 204/204/204
f 210/210/210 209/209/209 208/208/208
f 209/209/209 211/211/211 208/208/208
f 208/208/208 211/211/211 212/212/212
f 211/211/211 213/213/213 212/212/212
f 214/214/214 208/208/208 212/212/212
f 214/214/214 215/215/215 208/208/208
f 218/218/218 217/217/217 216/216/216
f 219/219/219 218/218/218 216/216/216
f 222/222/222 221/221/221 220/220/220
f 222/222/222 223/223/223 221/221/221
f 226/226/226 225/225/225 224/224/224
f 225/225/225 227/227/227 224/224/224
f 224/224/224 227/227/227 228/228/228
f 229/229/229 227/227/227 225/225/225
f 228/228/228 227/227/227 230/230/230
f 227/227/227 229/229/229 231/231/231
f 232/232/232 230/230/230 227/227/227
f 227/227/227 231/231/231 232/232/232
f 235/235/235 234/234/234 233/233/233
f 236/236/236 234/234/234 235/235/235
f 235/235/235 237/237/237 236/236/236
f 238/238/238 237/237/237 235/235/235
f 235/235/235 239/239/239 238/238/238
f 238/238/238 239/239/239 240/240/240
f 241/241/241 237/237/237 238/238/238
f 237/237/237 241/241/241 242/242/242
f 243/243/243 237/237/237 242/242/242
f 242/242/242 241/241/241 244/244/244
f 238/238/238 244/244/244 241/241/241
f 238/238/238 240/240/240 244/244/244
f 244/244/244 240/240/240 245/245/245
f 245/245/245 246/246/246 244/244/244
f 247/247/247 246/246/246 245/245/245
f 247/247/247 245/245/245 248/248/248
f 245/245/245 240/240/240 249/249/249
f 249/249/249 248/248/248 245/245/245
f 249/249/249 240/240/240 250/250/250
f 249/249/249 251/251/251 248/248/248
f 248/248/248 251/251/251 252/252/252
f 255/255/255 254/254/254 253/253/253
f 254/254/254 256/256/256 253/253/253
f 257/257/257 256/256/256 254/254/254
f 257/257/257 258/258/258 256/256/256
f 256/256/256 259/259/259 253/253/253
f 258/258/258 260/260/260 256/256/256
f 259/259/259 256/256/256 260/260/260
f 259/259/259 260/260/260 261/261/261
f 261/261/261 262/262/262 259/259/259
f 259/259/259 262/262/262 263/263/263
f 262/262/262 264/264/264 263/263/263
f 262/262/262 265/265/265 264/264/264
f 266/266/266 261/261/261 260/260/260
f 261/261/261 266/266/266 262/262/262
f 266/266/266 265/265/265 262/262/262
f 267/267/267 266/266/266 260/260/260
f 266/266/266 268/268/268 265/265/265
f 267/267/267 268/268/268 266/266/266
f 271/271/271 270/270/270 269/269/269
f 269/269/269 270/270/270 272/272/272
f 273/273/273 269/269/269 272/272/272
f 274/274/274 269/269/269 273/273/273
f 273/273/273 272/272/272 275/275/275
f 275/275/275 272/272/272 276/276/276
f 277/277/277 272/272/272 270/270/270
f 270/270/270 278/278/278 277/277/277
f 279/279/279 278/278/278 270/270/270
f 280/280/280 272/272/272 277/277/277
f 281/281/281 272/272/272 280/280/280
f 272/272/272 281/281/281 276/276/276
f 280/280/280 282/282/282 281/281/281
f 282/282/282 283/283/283 281/281/281
f 276/276/276 281/281/281 283/283/283
f 284/284/284 276/276/276 283/283/283
f 287/287/287 286/286/286 285/285/285
f 287/287/287 288/288/288 286/286/286
f 288/288/288 289/289/289 286/286/286
f 289/289/289 290/290/290 286/286/286
f 293/293/293 292/292/292 291/291/291
f 292/292/292 294/294/294 291/291/291
f 291/291/291 294/294/294 295/295/295
f 296/296/296 295/295/295 294/294/294
f 299/299/299 298/298/298 297/297/297
f 299/299/299 300/300/300 298/298/298
f 298/298/298 300/300/300 301/301/301
f 301/301/301 302/302/302 298/298/298
f 300/300/300 303/303/303 301/301/301
f 301/301/301 304/304/304 302/302/302
f 301/301/301 303/303/303 304/304/304
f 305/305/305 304/304/304 303/303/303
f 305/305/305 306/306/306 304/304/304
f 309/309/309 308/308/308 307/307/307
f 310/310/310 307/307/307 308/308/308
f 311/311/311 310/310/310 308/308/308
f 314/314/314 313/313/313 312/312/312
f 315/315/315 314/314/314 312/312/312
f 316/316/316 314/314/314 315/315/315
f 316/316/316 315/315/315 317/317/317
f 318/318/318 316/316/316 317/317/317
f 321/321/321 320/320/320 319/319/319
f 321/321/321 322/322/322 320/320/320
f 323/323/323 322/322/322 321/321/321
f 324/324/324 323/323/323 321/321/321
f 327/327/327 326/326/326 325/325/325
f 325/325/325 326/326/326 328/328/328
f 331/331/331 330/330/330 329/329/329
f 330/330/330 332/332/332 329/329/329
f 332/332/332 330/330/330 333/333/333
f 334/334/334 332/332/332 333/333/333
f 337/337/337 336/336/336 335/335/335
f 337/337/337 338/338/338 336/336/336
f 339/339/339 336/336/336 338/338/338
f 342/342/342 341/341/341 340/340/340
f 343/343/343 342/342/342 340/340/340
f 346/346/346 345/345/345 344/344/344
f 347/347/347 345/345/345 346/346/346
f 348/348/348 347/347/347 346/346/346
f 349/349/349 348/348/348 346/346/346
f 352/352/352 351/351/351 350/350/350
f 353/353/353 352/352/352 350/350/350
f 354/354/354 352/352/352 353/353/353
f 353/353/353 350/350/350 354/354/354
f 355/355/355 354/354/354 350/350/350
f 356/356/356 355/355/355 350/350/350
f 356/356/356 350/350/350 357/357/357
f 360/360/360 359/359/359 358/358/358
f 359/359/359 360/360/360 361/361/361
f 361/361/361 360/360/360 362/362/362
f 363/363/363 361/361/361 362/362/362
f 363/363/363 362/362/362 364/364/364
f 364/364/364 365/365/365 363/363/363
f 366/366/366 362/362/362 360/360/360
f 367/367/367 362/362/362 366/366/366
f 362/362/362 367/367/367 364/364/364
f 368/368/368 367/367/367 366/366/366
f 369/369/369 364/364/364 367/367/367
f 364/364/364 369/369/369 370/370/370
f 371/371/371 370/370/370 369/369/369
f 372/372/372 370/370/370 371/371/371
f 364/364/364 370/370/370 373/373/373
f 373/373/373 374/374/374 364/364/364
f 374/374/374 375/375/375 364/364/364
f 376/376/376 374/374/374 373/373/373
f 373/373/373 370/370/370 376/376/376
f 372/372/372 376/376/376 370/370/370
f 372/372/372 377/377/377 376/376/376
f 377/377/377 372/372/372 378/378/378
f 379/379/379 377/377/377 378/378/378
f 380/380/380 377/377/377 379/379/379
f 383/383/383 382/382/382 381/381/381
f 382/382/382 384/384/384 381/381/381
f 384/384/384 382/382/382 385/385/385
f 384/384/384 385/385/385 386/386/386
f 385/385/385 387/387/387 386/386/386
f 387/387/387 385/385/385 388/388/388
f 382/382/382 388/388/388 385/385/385
f 389/389/389 388/388/388 382/382/382
f 389/389/389 382/382/382 390/390/390
f 388/388/388 389/389/389 391/391/391
f 394/394/394 393/393/393 392/392/392
f 392/392/392 393/393/393 395/395/395
f 393/393/393 396/396/396 395/395/395
f 396/396/396 393/393/393 397/397/397
f 397/397/397 393/393/393 398/398/398
f 399/399/399 396/396/396 397/397/397
f 397/397/397 398/398/398 400/400/400
f 397/397/397 400/400/400 399/399/399
f 400/400/400 398/398/398 401/401/401
f 399/399/399 400/400/400 401/401/401
f 399/399/399 401/401/401 402/402/402
f 402/402/402 401/401/401 403/403/403
f 403/403/403 401/401/401 404/404/404
f 407/407/407 406/406/406 405/405/405
f 405/405/405 406/406/406 408/408/408
f 409/409/409 408/408/408 406/406/406
f 406/406/406 410/410/410 409/409/409
f 410/410/410 411/411/411 409/409/409
f 411/411/411 412/412/412 409/409/409
f 415/415/415 414/414/414 413/413/413
f 416/416/416 413/413/413 414/414/414
f 414/414/414 417/417/417 416/416/416
f 416/416/416 417/417/417 418/418/418
f 417/417/417 414/414/414 419/419/419
f 420/420/420 419/419/419 414/414/414
f 414/414/414 421/421/421 420/420/420
f 422/422/422 420/420/420 421/421/421
f 420/420/420 422/422/422 423/423/423
f 422/422/422 421/421/421 424/424/424
f 421/421/421 425/425/425 424/424/424
f 422/422/422 424/424/424 426/426/426
f 426/426/426 427/427/427 422/422/422
f 428/428/428 427/427/427 426/426/426
f 422/422/422 429/429/429 423/423/423
f 430/430/430 429/429/429 422/422/422
f 431/431/431 430/430/430 422/422/422
f 430/430/430 432/432/432 429/429/429
f 432/432/432 433/433/433 429/429/429
f 423/423/423 429/429/429 433/433/433
f 433/433/433 434/434/434 423/423/423
f 423/423/423 434/434/434 435/435/435
f 436/436/436 434/434/434 433/433/433
f 437/437/437 435/435/435 434/434/434
f 436/436/436 438/438/438 434/434/434
f 439/439/439 437/437/437 434/434/434
f 439/439/439 434/434/434 438/438/438
f 438/438/438 440/440/440 439/439/439
f 443/443/443 442/442/442 441/441/441
f 443/443/443 441/441/441 444/444/444
f 444/444/444 445/445/445 443/443/443
f 444/444/444 446/446/446 445/445/445
f 447/447/447 444/444/444 441/441/441
f 447/447/447 441/441/441 448/448/448
f 451/451/451 450/450/450 449/449/449
f 449/449/449 452/452/452 451/451/451
f 452/452/452 453/453/453 451/451/451
f 451/451/451 453/453/453 454/454/454
f 451/451/451 454/454/454 455/455/455
f 453/453/453 452/452/452 456/456/456
f 452/452/452 457/457/457 456/456/456
f 458/458/458 453/453/453 456/456/456
f 456/456/456 457/457/457 459/459/459
f 459/459/459 458/458/458 456/456/456
f 457/457/457 460/460/460 459/459/459
f 461/461/461 458/458/458 459/459/459
f 459/459/459 460/460/460 461/461/461
f 460/460/460 462/462/462 461/461/461
f 463/463/463 461/461/461 462/462/462
f 463/463/463 462/462/462 464/464/464
f 464/464/464 462/462/462 465/465/465
f 465/465/465 462/462/462 466/466/466
f 469/469/469 468/468/468 467/467/467
f 470/470/470 467/467/467 468/468/468
f 471/471/471 470/470/470 468/468/468
f 472/472/472 471/471/471 468/468/468
f 475/475/475 474/474/474 473/473/473
f 476/476/476 475/475/475 473/473/473
f 476/476/476 473/473/473 477/477/477
f 478/478/478 476/476/476 477/477/477
f 473/473/473 479/479/479 477/477/477
f 480/480/480 479/479/479 473/473/473
f 483/483/483 482/482/482 481/481/481
f 484/484/484 483/483/483 481/481/481
f 487/487/487 486/486/486 485/485/485
f 488/488/488 486/486/486 487/487/487
f 491/491/491 490/490/490 489/489/489
f 492/492/492 491/491/491 489/489/489
f 492/492/492 489/489/489 493/493/493
f 492/492/492 494/494/494 491/491/491
f 492/492/492 493/493/493 495/495/495
f 494/494/494 492/492/492 496/496/496
f 495/495/495 497/497/497 492/492/492
f 496/496/496 492/492/492 497/497/497
f 500/500/500 499/499/499 498/498/498
f 500/500/500 501/501/501 499/499/499
f 502/502/502 499/499/499 501/501/501
f 502/502/502 503/503/503 499/499/499
f 504/504/504 499/499/499 503/503/503
f 504/504/504 503/503/503 505/505/505
f 502/502/502 506/506/506 503/503/503
f 506/506/506 502/502/502 507/507/507
f 502/502/502 508/508/508 507/507/507
f 506/506/506 507/507/507 509/509/509
f 509/509/509 503/503/503 506/506/506
f 505/505/505 503/503/503 509/509/509
f 505/505/505 509/509/509 510/510/510
f 511/511/511 510/510/510 509/509/509
f 511/511/511 512/512/512 510/510/510
f 510/510/510 512/512/512 513/513/513
f 505/505/505 510/510/510 514/514/514
f 513/513/513 514/514/514 510/510/510
f 505/505/505 514/514/514 515/515/515
f 516/516/516 514/514/514 513/513/513
f 516/516/516 513/513/513 517/517/517
f 520/520/520 519/519/519 518/518/518
f 521/521/521 520/520/520 518/518/518
f 521/521/521 522/522/522 520/520/520
f 523/523/523 522/522/522 521/521/521
f 524/524/524 521/521/521 518/518/518
f 525/525/525 523/523/523 521/521/521
f 521/521/521 524/524/524 525/525/525
f 525/525/525 524/524/524 526/526/526
f 527/527/527 526/526/526 524/524/524
f 527/527/527 524/524/524 528/528/528
f 529/529/529 527/527/527 528/528/528
f 530/530/530 527/527/527 529/529/529
f 526/526/526 531/531/531 525/525/525
f 531/531/531 526/526/526 527/527/527
f 530/530/530 531/531/531 527/527/527
f 531/531/531 532/532/532 525/525/525
f 533/533/533 531/531/531 530/530/530
f 533/533/533 532/532/532 531/531/531
f 536/536/536 535/535/535 534/534/534
f 536/536/536 534/534/534 537/537/537
f 534/534/534 538/538/538 537/537/537
f 534/534/534 539/539/539 538/538/538
f 537/537/537 538/538/538 540/540/540
f 537/537/537 540/540/540 541/541/541
f 537/537/537 542/542/542 536/536/536
f 543/543/543 536/536/536 542/542/542
f 543/543/543 544/544/544 536/536/536
f 537/537/537 545/545/545 542/542/542
f 537/537/537 546/546/546 545/545/545
f 546/546/546 537/537/537 541/541/541
f 547/547/547 545/545/545 546/546/546
f 548/548/548 547/547/547 546/546/546
f 546/546/546 541/541/541 548/548/548
f 541/541/541 549/549/549 548/548/548
f 552/552/552 551/551/551 550/550/550
f 553/553/553 551/551/551 552/552/552
f 554/554/554 553/553/553 552/552/552
f 555/555/555 554/554/554 552/552/552
f 558/558/558 557/557/557 556/556/556
f 559/559/559 558/558/558 556/556/556
f 559/559/559 556/556/556 560/560/560
f 560/560/560 561/561/561 559/559/559
f 564/564/564 563/563/563 562/562/562
f 565/565/565 563/563/563 564/564/564
f 565/565/565 564/564/564 566/566/566
f 567/567/567 566/566/566 564/564/564
f 568/568/568 565/565/565 566/566/566
f 569/569/569 566/566/566 567/567/567
f 568/568/568 566/566/566 569/569/569
f 569/569/569 570/570/570 568/568/568
f 571/571/571 570/570/570 569/569/569
f 574/574/574 573/573/573 572/572/572
f 572/572/572 575/575/575 574/574/574
f 575/575/575 576/576/576 574/574/574
f 579/579/579 578/578/578 577/577/577
f 578/578/578 580/580/580 577/577/577
f 578/578/578 581/581/581 580/580/580
f 580/580/580 581/581/581 582/582/582
f 581/581/581 583/583/583 582/582/582
f 586/586/586 585/585/585 584/584/584
f 587/587/587 585/585/585 586/586/586
f 587/587/587 588/588/588 585/585/585
f 588/588/588 589/589/589 585/585/585
f 592/592/592 591/591/591 590/590/590
f 592/592/592 590/590/590 593/593/593
f 596/596/596 595/595/595 594/594/594
f 597/597/597 596/596/596 594/594/594
f 596/596/596 597/597/597 598/598/598
f 597/597/597 599/599/599 598/598/598
f 602/602/602 601/601/601 600/600/600
f 603/603/603 601/601/601 602/602/602
f 602/602/602 604/604/604 603/603/603
f 607/607/607 606/606/606 605/605/605
f 608/608/608 607/607/607 605/605/605
f 611/611/611 610/610/610 609/609/609
f 609/609/609 610/610/610 612/612/612
f 613/613/613 610/610/610 611/611/611
f 610/610/610 614/614/614 612/612/612
f 614/614/614 610/610/610 613/613/613
f 617/617/617 616/616/616 615/615/615
f 618/618/618 617/617/617 615/615/615
f 616/616/616 617/617/617 619/619/619
f 617/617/617 618/618/618 620/620/620
f 620/620/620 619/619/619 617/617/617
f 623/623/623 622/622/622 621/621/621
f 622/622/622 624/624/624 621/621/621
f 622/622/622 623/623/623 625/625/625
f 624/624/624 622/622/622 626/626/626
f 625/625/625 626/626/626 622/622/622
f 629/629/629 628/628/628 627/627/627
f 629/629/629 627/627/627 630/630/630
f 628/628/628 629/629/629 631/631/631
f 629/629/629 630/630/630 632/632/632
f 629/629/629 632/632/632 631/631/631
