g 0.5000
v 0.96936715 -0.66663915 1.6000693
v 0.69929063 -0.8591731 1.7962409
v 0.73096454 -0.90631515 1.4151
v 0.69929063 -0.8591731 1.7962409
v 0.96936715 -0.66663915 1.6000693
v 1.0857811 -1.1453792 1.6689572
v 0.75466955 -0.51004523 2.0605974
v 0.58358127 -0.834083 1.9413394
v 0.77023923 -0.8726275 2.4008641
v 0.73096454 -0.90631515 1.4151
v 0.69929063 -0.8591731 1.7962409
v 1.0857811 -1.1453792 1.6689572
v 0.75466955 -0.51004523 2.0605974
v 0.40578753 -0.6042194 2.1944127
v 0.58358127 -0.834083 1.9413394
v 0.58358127 -0.834083 1.9413394
v 0.40578753 -0.6042194 2.1944127
v 0.77023923 -0.8726275 2.4008641
v 0.96936715 -0.66663915 1.6000693
v 0.73096454 -0.90631515 1.4151
v 1.0857811 -1.1453792 1.6689572
v 0.91607285 -0.60716695 1.0101614
v 0.69361556 -0.88445216 1.1588885
v 0.63928986 -0.76795524 0.79560983
v 0.40578753 -0.6042194 2.1944127
v 0.75466955 -0.51004523 2.0605974
v 0.77023923 -0.8726275 2.4008641
v 0.69361556 -0.88445216 1.1588885
v 0.91607285 -0.60716695 1.0101614
v 1.0382481 -1.0607686 0.84642893
v 0.63928986 -0.76795524 0.79560983
v 0.69361556 -0.88445216 1.1588885
v 1.0382481 -1.0607686 0.84642893
v 0.91607285 -0.60716695 1.0101614
v 0.63928986 -0.76795524 0.79560983
v 1.0382481 -1.0607686 0.84642893
v 0.71034414 -0.38891497 0.56717545
v 0.5532656 -0.72014517 0.6859479
v 0.3769389 -0.50918716 0.41594827
v 0.5532656 -0.72014517 0.6859479
v 0.71034414 -0.38891497 0.56717545
v 0.7695949 -0.7586237 0.23961714
v 0.3769389 -0.50918716 0.41594827
v 0.5532656 -0.72014517 0.6859479
v 0.7695949 -0.7586237 0.23961714
v 0.71034414 -0.38891497 0.56717545
v 0.3769389 -0.50918716 0.41594827
v 0.7695949 -0.7586237 0.23961714
v 1.0399625 0.551119 1.5997534
v 1.1018105 0.2243679 1.7944391
v 1.156905 0.23486936 1.4131932
v 1.1018105 0.2243679 1.7944391
v 1.0399625 0.551119 1.5997534
v 1.523514 0.45548445 1.6669978
v 0.80889004 0.42014286 2.0603547
v 1.0308319 0.12929803 1.9393373
v 1.1453818 0.28065324 2.3991847
v 1.156905 0.23486936 1.4131932
v 1.1018105 0.2243679 1.7944391
v 1.523514 0.45548445 1.6669978
v 0.80889004 0.42014286 2.0603547
v 0.74821824 0.06342165 2.1928797
v 1.0308319 0.12929803 1.9393373
v 1.0308319 0.12929803 1.9393373
v 0.74821824 0.06342165 2.1928797
v 1.1453818 0.28065324 2.3991847
v 1.0399625 0.551119 1.5997534
v 1.156905 0.23486936 1.4131932
v 1.523514 0.45548445 1.6669978
v 0.96207774 0.5301179 1.0099556
v 1.1207151 0.21119308 1.1569766
v 0.99123156 0.2122782 0.7940343
v 0.74821824 0.06342165 2.1928797
v 0.80889004 0.42014286 2.0603547
v 1.1453818 0.28065324 2.3991847
v 1.1207151 0.21119308 1.1569766
v 0.96207774 0.5301179 1.0099556
v 1.4246292 0.45121232 0.8446993
v 0.99123156 0.2122782 0.7940343
v 1.1207151 0.21119308 1.1569766
v 1.4246292 0.45121232 0.8446993
v 0.96207774 0.5301179 1.0099556
v 0.99123156 0.2122782 0.7940343
v 1.4246292 0.45121232 0.8446993
v 0.67646545 0.4368414 0.5673272
v 0.9114354 0.15472436 0.68434453
v 0.6452376 0.08436689 0.41474718
v 0.9114354 0.15472436 0.68434453
v 0.67646545 0.4368414 0.5673272
v 1.0360315 0.33671686 0.23842442
v 0.6452376 0.08436689 0.41474718
v 0.9114354 0.15472436 0.68434453
v 1.0360315 0.33671686 0.23842442
v 0.67646545 0.4368414 0.5673272
v 0.6452376 0.08436689 0.41474718
v 1.0360315 0.33671686 0.23842442
v 0.2952392 1.0953944 1.6030874
v 0.58598226 0.9327356 1.7967484
v 0.6126276 0.98306274 1.41563
v 0.58598226 0.9327356 1.7967484
v 0.2952392 1.0953944 1.6030874
v 0.67872334 1.4049865 1.67078
v 0.2483772 0.8325024 2.062864
v 0.6136815 0.8168184 1.9412048
v 0.5716857 1.0001796 2.4017532
v 0.6126276 0.98306274 1.41563
v 0.58598226 0.9327356 1.7967484
v 0.67872334 1.4049865 1.67078
v 0.2483772 0.8325024 2.062864
v 0.48348245 0.5568108 2.194065
v 0.6136815 0.8168184 1.9412048
v 0.6136815 0.8168184 1.9412048
v 0.48348245 0.5568108 2.194065
v 0.5716857 1.0001796 2.4017532
v 0.2952392 1.0953944 1.6030874
v 0.6126276 0.98306274 1.41563
v 0.67872334 1.4049865 1.67078
v 0.2604824 1.0241817 1.0130966
v 0.6071882 0.94099 1.1592757
v 0.5227679 0.8435533 0.7961317
v 0.48348245 0.5568108 2.194065
v 0.2483772 0.8325024 2.062864
v 0.5716857 1.0001796 2.4017532
v 0.6071882 0.94099 1.1592757
v 0.2604824 1.0241817 1.0130966
v 0.6172918 1.3291789 0.8483138
v 0.5227679 0.8435533 0.7961317
v 0.6071882 0.94099 1.1592757
v 0.6172918 1.3291789 0.8483138
v 0.2604824 1.0241817 1.0130966
v 0.5227679 0.8435533 0.7961317
v 0.6172918 1.3291789 0.8483138
v 0.14827226 0.74670035 0.5696919
v 0.51561195 0.74579245 0.68611664
v 0.39853477 0.497309 0.41585168
v 0.51561195 0.74579245 0.68611664
v 0.14827226 0.74670035 0.5696919
v 0.45508638 0.959616 0.24102533
v 0.39853477 0.497309 0.41585168
v 0.51561195 0.74579245 0.68611664
v 0.45508638 0.959616 0.24102533
v 0.14827226 0.74670035 0.5696919
v 0.39853477 0.497309 0.41585168
v 0.45508638 0.959616 0.24102533
v -0.9572221 -0.66663915 1.6086944
v -0.7204851 -0.90631515 1.421598
v -0.6853999 -0.8591731 1.80244
v -0.6853999 -0.8591731 1.80244
v -1.0730145 -1.1453792 1.6786219
v -0.9572221 -0.66663915 1.6086944
v -0.73840964 -0.51004523 2.0672817
v -0.7509321 -0.8726275 2.407674
v -0.56839603 -0.834083 1.9464966
v -0.7204851 -0.90631515 1.421598
v -1.0730145 -1.1453792 1.6786219
v -0.6853999 -0.8591731 1.80244
v -0.73840964 -0.51004523 2.0672817
v -0.56839603 -0.834083 1.9464966
v -0.3883435 -0.6042194 2.197968
v -0.56839603 -0.834083 1.9464966
v -0.7509321 -0.8726275 2.407674
v -0.3883435 -0.6042194 2.197968
v -0.9572221 -0.66663915 1.6086944
v -1.0730145 -1.1453792 1.6786219
v -0.7204851 -0.90631515 1.421598
v -0.90921164 -0.60716695 1.0183331
v -0.6343608 -0.76795524 0.8013118
v -0.6854317 -0.88445216 1.1650623
v -0.3883435 -0.6042194 2.197968
v -0.7509321 -0.8726275 2.407674
v -0.73840964 -0.51004523 2.0672817
v -0.6854317 -0.88445216 1.1650623
v -1.0328481 -1.0607686 0.855701
v -0.90921164 -0.60716695 1.0183331
v -0.6343608 -0.76795524 0.8013118
v -1.0328481 -1.0607686 0.855701
v -0.6854317 -0.88445216 1.1650623
v -0.90921164 -0.60716695 1.0183331
v -1.0328481 -1.0607686 0.855701
v -0.6343608 -0.76795524 0.8013118
v -0.7074576 -0.38891497 0.5735228
v -0.3754197 -0.50918716 0.41931647
v -0.5493219 -0.72014517 0.69088405
v -0.5493219 -0.72014517 0.69088405
v -0.7696388 -0.7586237 0.24650812
v -0.7074576 -0.38891497 0.5735228
v -0.3754197 -0.50918716 0.41931647
v -0.7696388 -0.7586237 0.24650812
v -0.5493219 -0.72014517 0.69088405
v -0.7074576 -0.38891497 0.5735228
v -0.7696388 -0.7586237 0.24650812
v -0.3754197 -0.50918716 0.41931647
v -1.0278175 0.551119 1.6090106
v -1.1464256 0.23486936 1.423505
v -1.0879197 0.2243679 1.8042423
v -1.0879197 0.2243679 1.8042423
v -1.5107474 0.45548445 1.6805818
v -1.0278175 0.551119 1.6090106
v -0.79263014 0.42014286 2.0675244
v -1.1260747 0.28065324 2.4093537
v -1.0156468 0.12929803 1.9484991
v -1.1464256 0.23486936 1.423505
v -1.5107474 0.45548445 1.6805818
v -1.0879197 0.2243679 1.8042423
v -0.79263014 0.42014286 2.0675244
v -1.0156468 0.12929803 1.9484991
v -0.7307742 0.06342165 2.199501
v -1.0156468 0.12929803 1.9484991
v -1.1260747 0.28065324 2.4093537
v -0.7307742 0.06342165 2.199501
v -1.0278175 0.551119 1.6090106
v -1.5107474 0.45548445 1.6805818
v -1.1464256 0.23486936 1.423505
v -0.9552165 0.5301179 1.0185391
v -0.9863025 0.2122782 0.8028875
v -1.1125312 0.21119308 1.1669745
v -0.7307742 0.06342165 2.199501
v -1.1260747 0.28065324 2.4093537
v -0.79263014 0.42014286 2.0675244
v -1.1125312 0.21119308 1.1669745
v -1.4192293 0.45121232 0.857431
v -0.9552165 0.5301179 1.0185391
v -0.9863025 0.2122782 0.8028875
v -1.4192293 0.45121232 0.857431
v -1.1125312 0.21119308 1.1669745
v -0.9552165 0.5301179 1.0185391
v -1.4192293 0.45121232 0.857431
v -0.9863025 0.2122782 0.8028875
v -0.6735789 0.4368414 0.57337123
v -0.6437184 0.08436689 0.42051768
v -0.90749174 0.15472436 0.69248766
v -0.90749174 0.15472436 0.69248766
v -1.0360754 0.33671686 0.247701
v -0.6735789 0.4368414 0.57337123
v -0.6437184 0.08436689 0.42051768
v -1.0360754 0.33671686 0.247701
v -0.90749174 0.15472436 0.69248766
v -0.6735789 0.4368414 0.57337123
v -1.0360754 0.33671686 0.247701
v -0.6437184 0.08436689 0.42051768
v -0.2830941 1.0953944 1.6056767
v -0.6021482 0.98306274 1.4210683
v -0.5720915 0.9327356 1.801933
v -0.5720915 0.9327356 1.801933
v -0.66595674 1.4049865 1.6767999
v -0.2830941 1.0953944 1.6056767
v -0.23211735 0.8325024 2.0650153
v -0.55237854 1.0001796 2.4067855
v -0.59849626 0.8168184 1.9466316
v -0.6021482 0.98306274 1.4210683
v -0.66595674 1.4049865 1.6767999
v -0.5720915 0.9327356 1.801933
v -0.23211735 0.8325024 2.0650153
v -0.59849626 0.8168184 1.9466316
v -0.46603844 0.5568108 2.1983159
v -0.59849626 0.8168184 1.9466316
v -0.55237854 1.0001796 2.4067855
v -0.46603844 0.5568108 2.1983159
v -0.2830941 1.0953944 1.6056767
v -0.66595674 1.4049865 1.6767999
v -0.6021482 0.98306274 1.4210683
v -0.25362125 1.0241817 1.0153983
v -0.51783884 0.8435533 0.80079037
v -0.5990044 0.94099 1.1646756
v -0.46603844 0.5568108 2.1983159
v -0.55237854 1.0001796 2.4067855
v -0.23211735 0.8325024 2.0650153
v -0.5990044 0.94099 1.1646756
v -0.61189175 1.3291789 0.8538167
v -0.25362125 1.0241817 1.0153983
v -0.51783884 0.8435533 0.80079037
v -0.61189175 1.3291789 0.8538167
v -0.5990044 0.94099 1.1646756
v -0.25362125 1.0241817 1.0153983
v -0.61189175 1.3291789 0.8538167
v -0.51783884 0.8435533 0.80079037
v -0.14538567 0.74670035 0.5710066
v -0.39701557 0.497309 0.4194133
v -0.51166826 0.74579245 0.6907157
v -0.51166826 0.74579245 0.6907157
v -0.45513025 0.959616 0.24510026
v -0.14538567 0.74670035 0.5710066
v -0.39701557 0.497309 0.4194133
v -0.45513025 0.959616 0.24510026
v -0.51166826 0.74579245 0.6907157
v -0.14538567 0.74670035 0.5710066
v -0.45513025 0.959616 0.24510026
v -0.39701557 0.497309 0.4194133
v 3.629725E-05 0.67743766 0.2560689
v 0.52834797 0.9115868 0.7040954
v 0.0020526098 1.0526083 0.7064516
v 0.338748 0.5866793 0.25455248
v -0.00056348596 7.5224843E-06 0.12209555
v 0.5867022 0.33872262 0.2534424
v 0.6774597 7.5024136E-06 0.25303605
v 1.0546435 7.4745885E-06 0.70173913
v 0.91362286 0.526308 0.7023705
v 0.91362286 -0.5262931 0.7023704
v 0.5867022 -0.33870763 0.25344232
v 0.33874798 -0.58666426 0.25455236
v 3.629725E-05 -0.67742264 0.2560687
v 0.004755991 1.2412659 1.3103044
v 0.5861729 1.0022266 1.9311663
v 0.007547117 1.1572706 1.9337567
v 0.6253791 1.0749688 1.307526
v 0.0020526098 1.0526083 0.7064516
v 1.0097566 0.5786388 1.9292699
v 0.52834797 0.9115868 0.7040954
v 1.0797068 0.6206367 1.3054919
v 1.1647985 7.327996E-06 1.9285758
v 1.246002 7.365725E-06 1.3047473
v 0.91362286 0.526308 0.7023705
v 1.0546435 7.4745885E-06 0.70173913
v 0.338748 0.5866793 0.25455248
v 0.5867022 0.33872262 0.2534424
v 1.246002 7.365725E-06 1.3047473
v 1.0097566 -0.57862425 1.9292698
v 1.1647985 7.327996E-06 1.9285758
v 1.0797067 -0.6206218 1.3054918
v 1.0546435 7.4745885E-06 0.70173913
v 0.5861728 -1.0022119 1.931166
v 0.91362286 -0.5262931 0.7023704
v 0.625379 -1.0749538 1.3075258
v 0.007547117 -1.1572554 1.9337565
v 0.004755991 -1.2412509 1.3103042
v 0.52834785 -0.9115718 0.7040952
v 0.5867022 -0.33870763 0.25344232
v 0.0020526098 -1.0525936 0.70645136
v 0.33874798 -0.58666426 0.25455236
v 3.629725E-05 -0.67742264 0.2560687
v 0.5861728 -1.0022119 1.931166
v 0.007547117 -1.1572554 1.9337565
v 0.009676755 -0.5357372 2.4094527
v 0.27754635 -0.4639611 2.4082534
v 1.0097566 -0.57862425 1.9292698
v 0.2522488 -0.420144 2.4083667
v 0.009676755 -0.48514158 2.4094527
v 0.42982388 -0.2425672 2.4075718
v 0.47364053 -0.267865 2.4073756
v 1.1647985 7.327996E-06 1.9285758
v 0.4948208 7.2708576E-06 2.4072807
v 0.545416 7.270678E-06 2.4070542
v 1.0097566 0.5786388 1.9292699
v 0.42982388 0.24258174 2.4075718
v 0.47364053 0.26787955 2.4073756
v 0.5861729 1.0022266 1.9311663
v 0.2522488 0.42015854 2.4083667
v 0.27754635 0.46397567 2.4082534
v 0.007547117 1.1572706 1.9337567
v 0.009676755 0.4851562 2.4094527
v 0.009676755 0.5357518 2.4094527
v 0.42982388 -0.2425672 2.4075718
v 0.41406447 7.220645E-06 2.8353426
v 0.4948208 7.2708576E-06 2.4072807
v 0.3601433 -0.20123126 2.835584
v 0.2522488 -0.420144 2.4083667
v 0.212828 -0.34854802 2.8362434
v 0.009676755 -0.48514158 2.4094527
v 0.011591483 -0.40246972 2.8371444
v 0.2522488 0.42015854 2.4083667
v 0.011591483 0.40248418 2.8371444
v 0.009676755 0.4851562 2.4094527
v 0.212828 0.34856245 2.8362434
v 0.42982388 0.24258174 2.4075718
v 0.3601433 0.20124568 2.835584
v 0.4948208 7.2708576E-06 2.4072807
v 0.41406447 7.220645E-06 2.8353426
v 0.212828 0.34856245 2.8362434
v 0.011591483 0.2824511 2.8371444
v 0.011591483 0.40248418 2.8371444
v 0.15281202 0.24461082 2.836512
v 0.3601433 0.20124568 2.835584
v 0.25619268 0.14122915 2.8360493
v 0.41406447 7.220645E-06 2.8353426
v 0.29403254 7.221072E-06 2.8358798
v 0.3601433 -0.20123126 2.835584
v 0.25619268 -0.14121471 2.8360493
v 0.212828 -0.34854802 2.8362434
v 0.15281202 -0.24459635 2.836512
v 0.011591483 -0.40246972 2.8371444
v 0.011591483 -0.28243664 2.8371444
v 0.15281202 0.24461082 2.836512
v 0.14156544 0.22635226 2.6790648
v 0.010886397 0.2613679 2.6796498
v 0.011591483 0.2824511 2.8371444
v 0.15281202 -0.24459635 2.836512
v 0.14156544 -0.22633773 2.6790648
v 0.2372292 -0.13067308 2.6786366
v 0.25619268 -0.14121471 2.8360493
v 0.27224448 7.239413E-06 2.6784797
v 0.29403254 7.221072E-06 2.8358798
v 0.2372292 0.13068758 2.6786366
v 0.25619268 0.14122915 2.8360493
v 0.14156544 0.22635226 2.6790648
v 0.15281202 0.24461082 2.836512
v 0.011591483 -0.28243664 2.8371444
v 0.010886397 -0.2613534 2.6796498
v 0.14156544 -0.22633773 2.6790648
v 0.15281202 -0.24459635 2.836512
v 0.100116596 -0.7832537 0.13095805
v 0.16127113 0.18034557 0.28212434
v 0.18106227 -0.7372588 0.25862467
v 0.07827798 0.22928138 0.1568889
v 0.09795651 -0.7340546 0.063518874
v 0.078165375 0.18354975 0.087018564
v 0.07827798 0.22928138 0.1568889
v 0.6212853 0.19527905 0.08642554
v 0.16127113 0.18034557 0.28212434
v 0.58588284 0.24575979 -0.059055924
v 0.64107645 -0.7223253 0.06292586
v 0.6077215 -0.7667753 -0.084986776
v 0.5381795 0.19848323 -0.10868025
v 0.55797064 -0.71912116 -0.13217995
v 0.6077215 -0.7667753 -0.084986776
v 0.18106227 -0.7372588 0.25862467
v 0.64107645 -0.7223253 0.06292586
v 0.100116596 -0.7832537 0.13095805
v 0.55797064 -0.71912116 -0.13217995
v 0.09795651 -0.7340546 0.063518874
v 0.078165375 0.18354975 0.087018564
v 0.09795651 -0.7340546 0.063518874
v 0.55797064 -0.71912116 -0.13217995
v 0.5381795 0.19848323 -0.10868025
v 0.58588284 0.24575979 -0.059055924
v 0.07827798 0.22928138 0.1568889
v 0.6212853 0.19527905 0.08642554
v 0.64107645 -0.7223253 0.06292586
v 0.18106227 -0.7372588 0.25862467
v 0.16127113 0.18034557 0.28212434
v 0.98453 0.2676317 1.1192307
v 0.9963428 0.046949 0.8581545
v 1.7089907 -0.0007537976 1.1817379
v 1.5747597 0.22875917 1.3969287
v 1.994405 0.35656917 1.9959146
v 2.3526733 0.025643006 1.9251934
v 2.067083 0.13043457 2.3393655
v 2.2202497 -0.011042997 2.309131
v 0.9963428 0.046949 0.8581545
v 0.9532059 -0.26814967 0.98406386
v 1.6190944 -0.31247962 1.2901206
v 1.7089907 -0.0007537976 1.1817379
v 2.3526733 0.025643006 1.9251934
v 2.160178 -0.42338198 1.9899359
v 0.9532059 -0.26814967 0.98406386
v 0.9147332 -0.24220866 1.3229561
v 1.4293046 -0.2756238 1.5722953
v 1.6190944 -0.31247962 1.2901206
v 2.160178 -0.42338198 1.9899359
v 1.6829416 -0.3699684 2.10067
v 2.1379542 -0.20301028 2.3368092
v 1.9339259 -0.18017493 2.3841503
v 2.2202497 -0.011042997 2.309131
v 2.3526733 0.025643006 1.9251934
v 0.9147332 -0.24220866 1.3229561
v 1.4019042 0.058880195 1.6383064
v 1.4293046 -0.2756238 1.5722953
v 0.93409234 0.08892241 1.4064938
v 1.5747597 0.22875917 1.3969287
v 0.98453 0.2676317 1.1192307
v 0.9147332 -0.24220866 1.3229561
v 0.9532059 -0.26814967 0.98406386
v 0.9963428 0.046949 0.8581545
v 0.93409234 0.08892241 1.4064938
v 0.98453 0.2676317 1.1192307
v 1.994405 0.35656917 1.9959146
v 1.8901248 0.025905363 2.38573
v 1.5804882 0.11206791 2.1043646
v 2.067083 0.13043457 2.3393655
v 1.9339259 -0.18017493 2.3841503
v 2.1379542 -0.20301028 2.3368092
v 2.2202497 -0.011042997 2.309131
v 1.4019042 0.058880195 1.6383064
v 1.6829416 -0.3699684 2.10067
v 1.4293046 -0.2756238 1.5722953
v 1.5804882 0.11206791 2.1043646
v 1.5747597 0.22875917 1.3969287
v 1.994405 0.35656917 1.9959146
v 1.9339259 -0.18017493 2.3841503
v 1.8901248 0.025905363 2.38573
v 0.2372292 0.13068758 2.6786366
v 0.27224448 7.239413E-06 2.6784797
v 0.2372292 -0.13067308 2.6786366
v 0.14156544 0.22635226 2.6790648
v 0.14156544 -0.22633773 2.6790648
v 0.010886397 0.2613679 2.6796498
v 0.010886397 -0.2613534 2.6796498
v 3.629725E-05 0.67743766 0.2560689
v 0.0020526098 1.0526083 0.7064516
v -0.52424276 0.9115868 0.70880777
v -0.3386754 0.5866793 0.25758523
v -0.00056348596 7.5224843E-06 0.12209555
v -0.5866296 0.33872262 0.25869527
v -0.6773871 7.5024136E-06 0.25910154
v -1.0505382 7.4745885E-06 0.7111638
v -0.90951765 0.526308 0.71053255
v -0.90951765 -0.5262931 0.7105324
v -0.5866296 -0.33870763 0.2586952
v -0.33867538 -0.58666426 0.2575851
v 3.629725E-05 -0.67742264 0.2560687
v 0.004755991 1.2412659 1.3103044
v 0.007547117 1.1572706 1.9337567
v -0.5710786 1.0022266 1.9363471
v -0.61586714 1.0749688 1.3130828
v 0.0020526098 1.0526083 0.7064516
v -0.9946623 0.5786388 1.9382434
v -0.52424276 0.9115868 0.70880777
v -1.0701948 0.6206367 1.3151168
v -1.1497042 7.327996E-06 1.9389374
v -1.23649 7.365725E-06 1.3158612
v -0.90951765 0.526308 0.71053255
v -1.0505382 7.4745885E-06 0.7111638
v -0.3386754 0.5866793 0.25758523
v -0.5866296 0.33872262 0.25869527
v -1.23649 7.365725E-06 1.3158612
v -1.1497042 7.327996E-06 1.9389374
v -0.9946623 -0.57862425 1.9382433
v -1.0701947 -0.6206218 1.3151166
v -1.0505382 7.4745885E-06 0.7111638
v -0.57107854 -1.0022119 1.9363469
v -0.90951765 -0.5262931 0.7105324
v -0.6158671 -1.0749538 1.3130826
v 0.007547117 -1.1572554 1.9337565
v 0.004755991 -1.2412509 1.3103042
v -0.52424264 -0.9115718 0.7088075
v -0.5866296 -0.33870763 0.2586952
v 0.0020526098 -1.0525936 0.70645136
v -0.33867538 -0.58666426 0.2575851
v 3.629725E-05 -0.67742264 0.2560687
v -0.57107854 -1.0022119 1.9363469
v 0.009676755 -0.5357372 2.4094527
v 0.007547117 -1.1572554 1.9337565
v -0.25819284 -0.4639611 2.410652
v -0.9946623 -0.57862425 1.9382433
v -0.23289528 -0.420144 2.4105387
v 0.009676755 -0.48514158 2.4094527
v -0.41047037 -0.2425672 2.4113336
v -0.45428702 -0.267865 2.4115298
v -1.1497042 7.327996E-06 1.9389374
v -0.4754673 7.2708576E-06 2.4116247
v -0.5260625 7.270678E-06 2.4118512
v -0.9946623 0.5786388 1.9382434
v -0.41047037 0.24258174 2.4113336
v -0.45428702 0.26787955 2.4115298
v -0.5710786 1.0022266 1.9363471
v -0.23289528 0.42015854 2.4105387
v -0.25819284 0.46397567 2.410652
v 0.007547117 1.1572706 1.9337567
v 0.009676755 0.4851562 2.4094527
v 0.009676755 0.5357518 2.4094527
v -0.41047037 -0.2425672 2.4113336
v -0.4754673 7.2708576E-06 2.4116247
v -0.39088148 7.220645E-06 2.838946
v -0.33696032 -0.20123126 2.8387048
v -0.23289528 -0.420144 2.4105387
v -0.18964504 -0.34854802 2.8380454
v 0.009676755 -0.48514158 2.4094527
v 0.011591483 -0.40246972 2.8371444
v -0.23289528 0.42015854 2.4105387
v 0.009676755 0.4851562 2.4094527
v 0.011591483 0.40248418 2.8371444
v -0.18964504 0.34856245 2.8380454
v -0.41047037 0.24258174 2.4113336
v -0.33696032 0.20124568 2.8387048
v -0.4754673 7.2708576E-06 2.4116247
v -0.39088148 7.220645E-06 2.838946
v -0.18964504 0.34856245 2.8380454
v 0.011591483 0.40248418 2.8371444
v 0.011591483 0.2824511 2.8371444
v -0.12962906 0.24461082 2.8377767
v -0.33696032 0.20124568 2.8387048
v -0.23300971 0.14122915 2.8382394
v -0.39088148 7.220645E-06 2.838946
v -0.27084956 7.221072E-06 2.838409
v -0.33696032 -0.20123126 2.8387048
v -0.23300971 -0.14121471 2.8382394
v -0.18964504 -0.34854802 2.8380454
v -0.12962906 -0.24459635 2.8377767
v 0.011591483 -0.40246972 2.8371444
v 0.011591483 -0.28243664 2.8371444
v -0.12962906 0.24461082 2.8377767
v 0.011591483 0.2824511 2.8371444
v 0.010886397 0.2613679 2.6796498
v -0.11979264 0.22635226 2.680235
v -0.12962906 -0.24459635 2.8377767
v -0.2154564 -0.13067308 2.680663
v -0.11979264 -0.22633773 2.680235
v -0.23300971 -0.14121471 2.8382394
v -0.25047168 7.239413E-06 2.68082
v -0.27084956 7.221072E-06 2.838409
v -0.2154564 0.13068758 2.680663
v -0.23300971 0.14122915 2.8382394
v -0.11979264 0.22635226 2.680235
v -0.12962906 0.24461082 2.8377767
v 0.011591483 -0.28243664 2.8371444
v -0.12962906 -0.24459635 2.8377767
v -0.11979264 -0.22633773 2.680235
v 0.010886397 -0.2613534 2.6796498
v -0.08225887 -0.76221985 -0.06326631
v -0.107441194 -0.736289 0.09055159
v -0.10685759 0.17252736 0.22091137
v -0.08161489 0.24061823 0.08057985
v -0.10838108 -0.7061746 -0.119389676
v -0.10779747 0.20264174 0.010970093
v -0.08161489 0.24061823 0.08057985
v -0.10685759 0.17252736 0.22091137
v -0.6069866 0.17252736 0.22315039
v -0.6334848 0.24061823 0.083050504
v -0.6075702 -0.736289 0.09279062
v -0.63412875 -0.76221985 -0.060795646
v -0.6079265 0.20264174 0.013209114
v -0.6085101 -0.7061746 -0.11715065
v -0.63412875 -0.76221985 -0.060795646
v -0.6075702 -0.736289 0.09279062
v -0.107441194 -0.736289 0.09055159
v -0.08225887 -0.76221985 -0.06326631
v -0.6085101 -0.7061746 -0.11715065
v -0.10838108 -0.7061746 -0.119389676
v -0.10779747 0.20264174 0.010970093
v -0.6085101 -0.7061746 -0.11715065
v -0.10838108 -0.7061746 -0.119389676
v -0.6079265 0.20264174 0.013209114
v -0.6334848 0.24061823 0.083050504
v -0.08161489 0.24061823 0.08057985
v -0.6069866 0.17252736 0.22315039
v -0.10685759 0.17252736 0.22091137
v -0.107441194 -0.736289 0.09055159
v -0.6075702 -0.736289 0.09279062
v -0.9708632 0.2651787 1.1262571
v -1.6966648 0.0140174925 1.230713
v -1.0048529 0.0491125 0.86327165
v -1.5432079 0.23659107 1.4402676
v -1.9207655 0.36514914 2.066482
v -2.291258 0.044472814 2.013836
v -1.9774811 0.13537662 2.410525
v -2.1358743 -0.0017189458 2.3880177
v -1.0048529 0.0491125 0.86327165
v -1.608239 -0.30157122 1.32862
v -0.9620594 -0.2689618 0.9815874
v -1.6966648 0.0140174925 1.230713
v -2.291258 0.044472814 2.013836
v -2.1067927 -0.4102139 2.0596828
v -0.9620594 -0.2689618 0.9815874
v -1.4001322 -0.27404222 1.5986842
v -0.9016221 -0.24947631 1.3176955
v -1.608239 -0.30157122 1.32862
v -2.1067927 -0.4102139 2.0596828
v -1.6222948 -0.37054932 2.1406643
v -2.0570116 -0.1961067 2.4076178
v -1.8498788 -0.17914933 2.4422388
v -2.1358743 -0.0017189458 2.3880177
v -2.291258 0.044472814 2.013836
v -0.9016221 -0.24947631 1.3176955
v -1.4001322 -0.27404222 1.5986842
v -1.3599404 0.0585604 1.6676862
v -0.907063 0.08064067 1.4071064
v -1.5432079 0.23659107 1.4402676
v -0.9708632 0.2651787 1.1262571
v -1.0048529 0.0491125 0.86327165
v -0.9620594 -0.2689618 0.9815874
v -0.9016221 -0.24947631 1.3176955
v -0.907063 0.08064067 1.4071064
v -0.9708632 0.2651787 1.1262571
v -1.9207655 0.36514914 2.066482
v -1.5073234 0.10865137 2.1448662
v -1.800726 0.02571866 2.4440353
v -1.9774811 0.13537662 2.410525
v -1.8498788 -0.17914933 2.4422388
v -2.0570116 -0.1961067 2.4076178
v -2.1358743 -0.0017189458 2.3880177
v -1.3599404 0.0585604 1.6676862
v -1.4001322 -0.27404222 1.5986842
v -1.6222948 -0.37054932 2.1406643
v -1.5073234 0.10865137 2.1448662
v -1.5432079 0.23659107 1.4402676
v -1.9207655 0.36514914 2.066482
v -1.8498788 -0.17914933 2.4422388
v -1.800726 0.02571866 2.4440353
v -0.11979264 0.22635226 2.680235
v 0.010886397 0.2613679 2.6796498
v 0.010886397 -0.2613534 2.6796498
v -0.11979264 -0.22633773 2.680235
v -0.2154564 0.13068758 2.680663
v -0.2154564 -0.13067308 2.680663
v -0.25047168 7.239413E-06 2.68082
vt 0.8345069 0.9544302
vt 0.8345069 0.90745497
vt 0.78522784 0.9501643
vt 0.78116494 0.8751644
vt 0.83792365 0.8751644
vt 0.8049584 0.7980367
vt 0.8957459 0.73915553
vt 0.9371821 0.7746508
vt 0.9371821 0.6931305
vt 0.78522784 0.9501643
vt 0.8345069 0.90745497
vt 0.78116494 0.89173317
vt 0.050498962 0.99171555
vt 0.050498962 0.933835
vt 0.00828445 0.94540405
vt 0.9408896 0.43473053
vt 0.89715356 0.47465265
vt 0.9408896 0.51168334
vt 0.6428101 0.85924923
vt 0.70223594 0.85924923
vt 0.6809796 0.784304
vt 0.6428101 0.9388217
vt 0.69591993 0.9391852
vt 0.6482708 0.8959523
vt 0.8275788 0.578145
vt 0.8872276 0.5921337
vt 0.8872276 0.52825224
vt 0.8408617 0.35010636
vt 0.88954604 0.38667035
vt 0.88954604 0.30838084
vt 0.6482708 0.8959523
vt 0.69591993 0.9391852
vt 0.69591993 0.87581813
vt 0.57229686 0.80579704
vt 0.5163457 0.8200755
vt 0.57229686 0.8829891
vt 0.95304686 0.67268354
vt 0.95304686 0.60993373
vt 0.90973896 0.63131535
vt 0.9531743 0.79803675
vt 0.91483134 0.8340065
vt 0.95317435 0.87967664
vt 0.805722 0.59240913
vt 0.805722 0.53475976
vt 0.75122434 0.5895423
vt 0.11521296 0.8848536
vt 0.1643061 0.92384994
vt 0.1643061 0.85019267
vt 0.87553513 0.21124828
vt 0.9303512 0.24516535
vt 0.9303512 0.18026793
vt 0.7994987 0.070126295
vt 0.8529146 0.09195614
vt 0.8529146 0.00828445
vt 0.8589663 0.18026793
vt 0.80259055 0.21135783
vt 0.8589663 0.25907373
vt 0.2758066 0.67887986
vt 0.21563208 0.7041173
vt 0.2758066 0.7629944
vt 0.8444501 0.10852504
vt 0.79949856 0.15454519
vt 0.8444501 0.16330636
vt 0.4626282 0.71661854
vt 0.40284252 0.74055195
vt 0.4626282 0.7998848
vt 0.8275787 0.5006474
vt 0.8805847 0.51168346
vt 0.8805847 0.43515766
vt 0.8544925 0.93474895
vt 0.90889615 0.9593679
vt 0.90889615 0.89875406
vt 0.30378345 0.87800545
vt 0.3638055 0.894106
vt 0.3638055 0.8309827
vt 0.89317 0.60993373
vt 0.8336253 0.62460643
vt 0.89317 0.67656165
vt 0.7512243 0.49444282
vt 0.8110099 0.5181909
vt 0.8110099 0.43515766
vt 0.8336253 0.75200415
vt 0.87917703 0.77739143
vt 0.87917703 0.6931306
vt 0.34525803 0.97357804
vt 0.34525803 0.91067487
vt 0.30378345 0.9318816
vt 0.11521298 0.8336238
vt 0.18038565 0.8336238
vt 0.14638436 0.7604664
vt 0.00828445 0.82559144
vt 0.07274151 0.82559144
vt 0.042798698 0.74927944
vt 0.90611494 0.34241235
vt 0.94824815 0.38402915
vt 0.94824815 0.30838072
vt 0.9037965 0.52825224
vt 0.90487105 0.5733167
vt 0.95488364 0.5319259
vt 0.21563202 0.8571969
vt 0.27298507 0.8571969
vt 0.2429593 0.7795634
vt 0.92546505 0.93981576
vt 0.9600886 0.97896075
vt 0.9600886 0.8987539
vt 0.95488364 0.5319259
vt 0.90487105 0.5733167
vt 0.95488364 0.5928714
vt 0.44920775 0.90096116
vt 0.40284255 0.9446479
vt 0.44920775 0.95925844
vt 0.8694835 0.15479302
vt 0.9270413 0.16009116
vt 0.9270413 0.10083556
vt 0.8982624 0.7980367
vt 0.85449255 0.82541704
vt 0.8982624 0.8821851
vt 0.71253717 0.954979
vt 0.7645961 0.95190054
vt 0.71565723 0.9093376
vt 0.05713668 0.84216034
vt 0.0082844235 0.88061947
vt 0.057136696 0.9172662
vt 0.46205243 0.81645364
vt 0.40284255 0.83048725
vt 0.46205243 0.88439226
vt 0.71565723 0.9093376
vt 0.7645961 0.95190054
vt 0.7645961 0.8917333
vt 0.8694835 0.08426678
vt 0.9176469 0.08426678
vt 0.88264877 0.00828445
vt 0.98977596 0.1802679
vt 0.9469202 0.22562611
vt 0.98977596 0.23912525
vt 0.97859466 0.07639241
vt 0.94361013 0.10714978
vt 0.97859466 0.16009113
vt 0.56813264 0.95851386
vt 0.56813264 0.89955807
vt 0.5163457 0.9538803
vt 0.21563208 0.94098604
vt 0.26701128 0.94098604
vt 0.21730673 0.87376577
vt 0.8345069 0.9544302
vt 0.78522784 0.9501643
vt 0.8345069 0.90745497
vt 0.78116494 0.8751644
vt 0.8049584 0.7980367
vt 0.83792365 0.8751644
vt 0.8957459 0.73915553
vt 0.9371821 0.6931305
vt 0.9371821 0.7746508
vt 0.78522784 0.9501643
vt 0.78116494 0.89173317
vt 0.8345069 0.90745497
vt 0.050498962 0.99171555
vt 0.00828445 0.94540405
vt 0.050498962 0.933835
vt 0.9408896 0.43473053
vt 0.9408896 0.51168334
vt 0.89715356 0.47465265
vt 0.6428101 0.85924923
vt 0.6809796 0.784304
vt 0.70223594 0.85924923
vt 0.6428101 0.9388217
vt 0.6482708 0.8959523
vt 0.69591993 0.9391852
vt 0.8275788 0.578145
vt 0.8872276 0.52825224
vt 0.8872276 0.5921337
vt 0.8408617 0.35010636
vt 0.88954604 0.30838084
vt 0.88954604 0.38667035
vt 0.6482708 0.8959523
vt 0.69591993 0.87581813
vt 0.69591993 0.9391852
vt 0.57229686 0.80579704
vt 0.57229686 0.8829891
vt 0.5163457 0.8200755
vt 0.95304686 0.67268354
vt 0.90973896 0.63131535
vt 0.95304686 0.60993373
vt 0.9531743 0.79803675
vt 0.95317435 0.87967664
vt 0.91483134 0.8340065
vt 0.805722 0.59240913
vt 0.75122434 0.5895423
vt 0.805722 0.53475976
vt 0.11521296 0.8848536
vt 0.1643061 0.85019267
vt 0.1643061 0.92384994
vt 0.87553513 0.21124828
vt 0.9303512 0.18026793
vt 0.9303512 0.24516535
vt 0.7994987 0.070126295
vt 0.8529146 0.00828445
vt 0.8529146 0.09195614
vt 0.8589663 0.18026793
vt 0.8589663 0.25907373
vt 0.80259055 0.21135783
vt 0.2758066 0.67887986
vt 0.2758066 0.7629944
vt 0.21563208 0.7041173
vt 0.8444501 0.10852504
vt 0.8444501 0.16330636
vt 0.79949856 0.15454519
vt 0.4626282 0.71661854
vt 0.4626282 0.7998848
vt 0.40284252 0.74055195
vt 0.8275787 0.5006474
vt 0.8805847 0.43515766
vt 0.8805847 0.51168346
vt 0.8544925 0.93474895
vt 0.90889615 0.89875406
vt 0.90889615 0.9593679
vt 0.30378345 0.87800545
vt 0.3638055 0.8309827
vt 0.3638055 0.894106
vt 0.89317 0.60993373
vt 0.89317 0.67656165
vt 0.8336253 0.62460643
vt 0.7512243 0.49444282
vt 0.8110099 0.43515766
vt 0.8110099 0.5181909
vt 0.8336253 0.75200415
vt 0.87917703 0.6931306
vt 0.87917703 0.77739143
vt 0.34525803 0.97357804
vt 0.30378345 0.9318816
vt 0.34525803 0.91067487
vt 0.11521298 0.8336238
vt 0.14638436 0.7604664
vt 0.18038565 0.8336238
vt 0.00828445 0.82559144
vt 0.042798698 0.74927944
vt 0.07274151 0.82559144
vt 0.90611494 0.34241235
vt 0.94824815 0.30838072
vt 0.94824815 0.38402915
vt 0.9037965 0.52825224
vt 0.95488364 0.5319259
vt 0.90487105 0.5733167
vt 0.21563202 0.8571969
vt 0.2429593 0.7795634
vt 0.27298507 0.8571969
vt 0.92546505 0.93981576
vt 0.9600886 0.8987539
vt 0.9600886 0.97896075
vt 0.95488364 0.5319259
vt 0.95488364 0.5928714
vt 0.90487105 0.5733167
vt 0.44920775 0.90096116
vt 0.44920775 0.95925844
vt 0.40284255 0.9446479
vt 0.8694835 0.15479302
vt 0.9270413 0.10083556
vt 0.9270413 0.16009116
vt 0.8982624 0.7980367
vt 0.8982624 0.8821851
vt 0.85449255 0.82541704
vt 0.71253717 0.954979
vt 0.71565723 0.9093376
vt 0.7645961 0.95190054
vt 0.05713668 0.84216034
vt 0.057136696 0.9172662
vt 0.0082844235 0.88061947
vt 0.46205243 0.81645364
vt 0.46205243 0.88439226
vt 0.40284255 0.83048725
vt 0.71565723 0.9093376
vt 0.7645961 0.8917333
vt 0.7645961 0.95190054
vt 0.8694835 0.08426678
vt 0.88264877 0.00828445
vt 0.9176469 0.08426678
vt 0.98977596 0.1802679
vt 0.98977596 0.23912525
vt 0.9469202 0.22562611
vt 0.97859466 0.07639241
vt 0.97859466 0.16009113
vt 0.94361013 0.10714978
vt 0.56813264 0.95851386
vt 0.5163457 0.9538803
vt 0.56813264 0.89955807
vt 0.21563208 0.94098604
vt 0.21730673 0.87376577
vt 0.26701128 0.94098604
vt 0.19241846 0.55133086
vt 0.09195745 0.58529603
vt 0.1794095 0.6111206
vt 0.1361363 0.53471076
vt 0.19906318 0.4378423
vt 0.095825076 0.49184263
vt 0.08228624 0.43421298
vt 0.00828445 0.42914116
vt 0.029321313 0.51868695
vt 0.03448367 0.3406524
vt 0.09914744 0.37726367
vt 0.14189076 0.33625412
vt 0.19906318 0.32217294
vt 0.18116583 0.00828445
vt 0.28125417 0.10639542
vt 0.28721458 0.018352509
vt 0.17477281 0.10271758
vt 0.08225031 0.03076011
vt 0.28125417 0.20785779
vt 0.07682894 0.11084044
vt 0.17477281 0.21154416
vt 0.28721458 0.29555267
vt 0.1811658 0.30560404
vt 0.07682894 0.20312661
vt 0.08225028 0.2828905
vt 0.008284435 0.12704545
vt 0.00828442 0.18643874
vt 0.30378342 0.11406767
vt 0.38306665 0.009331226
vt 0.31582284 0.00828445
vt 0.3759079 0.115190506
vt 0.33304608 0.21585822
vt 0.4792903 0.009331226
vt 0.39420855 0.21681035
vt 0.4791155 0.115190506
vt 0.57871044 0.00828445
vt 0.58575165 0.11406779
vt 0.48172975 0.21681035
vt 0.42976987 0.29181194
vt 0.57215834 0.21585822
vt 0.4860965 0.29181194
vt 0.54429436 0.2911992
vt 0.40178013 0.67375666
vt 0.49977684 0.7000498
vt 0.49868596 0.5982965
vt 0.4533192 0.5861243
vt 0.33004165 0.60203505
vt 0.4576037 0.5787119
vt 0.49868596 0.58973455
vt 0.42752934 0.5486447
vt 0.42010856 0.5529214
vt 0.30378354 0.50410265
vt 0.41652143 0.50758946
vt 0.40795255 0.5075845
vt 0.33004165 0.40620053
vt 0.42752934 0.46654677
vt 0.42010856 0.46226156
vt 0.40178013 0.33456135
vt 0.4576037 0.43651414
vt 0.4533193 0.42909688
vt 0.49977684 0.30838084
vt 0.49868596 0.42553878
vt 0.49868596 0.4169768
vt 0.7512244 0.3365708
vt 0.824293 0.3204366
vt 0.7516631 0.30838075
vt 0.8239287 0.3438229
vt 0.75122416 0.37690973
vt 0.8239287 0.37728786
vt 0.7516631 0.41858873
vt 0.8242928 0.41186455
vt 0.11521292 0.6645988
vt 0.19081426 0.6375861
vt 0.11771178 0.62768936
vt 0.18874145 0.668206
vt 0.115213156 0.70713395
vt 0.18874145 0.7034929
vt 0.11771178 0.74389756
vt 0.19081426 0.73399174
vt 0.24971366 0.33127806
vt 0.2837953 0.34248516
vt 0.2837953 0.3221729
vt 0.25987804 0.3488748
vt 0.2247642 0.35619298
vt 0.24236938 0.36635923
vt 0.21563205 0.3902417
vt 0.23596078 0.3902534
vt 0.2247642 0.42430097
vt 0.24236938 0.41415495
vt 0.24971366 0.44924456
vt 0.25987804 0.4316595
vt 0.2837953 0.45838892
vt 0.2837953 0.43807667
vt 0.47919708 0.71661854
vt 0.4805804 0.7434578
vt 0.49772897 0.74418235
vt 0.49772897 0.71740174
vt 0.98125696 0.6931305
vt 0.9546795 0.6962987
vt 0.95399976 0.7120683
vt 0.9805224 0.7101723
vt 0.95375085 0.734038
vt 0.98025346 0.73391414
vt 0.95399976 0.75632083
vt 0.9805224 0.7579945
vt 0.9546795 0.77294624
vt 0.98125696 0.775961
vt 0.47919703 0.760751
vt 0.48014325 0.7876413
vt 0.49187297 0.7884679
vt 0.49187297 0.7616446
vt 0.7921162 0.60993373
vt 0.8170564 0.7732832
vt 0.8170564 0.6178313
vt 0.7921162 0.78146785
vt 0.78116494 0.6178711
vt 0.78116494 0.773323
vt 0.23544306 0.47495776
vt 0.25128442 0.54444003
vt 0.26039973 0.48461574
vt 0.22538471 0.54097116
vt 0.26039973 0.65440357
vt 0.23544307 0.662311
vt 0.21563202 0.54318964
vt 0.22474736 0.6531532
vt 0.5994642 0.805797
vt 0.6247802 0.8821873
vt 0.6247802 0.8063758
vt 0.5994642 0.8894516
vt 0.5888657 0.8060254
vt 0.5888657 0.88183683
vt 0.6061041 0.7816747
vt 0.6071316 0.6263244
vt 0.5233493 0.6263244
vt 0.52232176 0.7816747
vt 0.51634574 0.7892281
vt 0.60879576 0.7892281
vt 0.7829298 0.16369903
vt 0.7829298 0.008333147
vt 0.6982274 0.00828445
vt 0.6982274 0.16365033
vt 0.7346553 0.32660073
vt 0.68725646 0.30838078
vt 0.64281005 0.4045024
vt 0.69887775 0.40748155
vt 0.7278918 0.5079721
vt 0.6543593 0.54746735
vt 0.7346553 0.5764799
vt 0.7032186 0.59336483
vt 0.6816585 0.008732557
vt 0.6260981 0.00828445
vt 0.6238434 0.12693131
vt 0.6792643 0.13563001
vt 0.6816585 0.25894904
vt 0.60232055 0.23391867
vt 0.604778 0.30838078
vt 0.5570336 0.3410172
vt 0.5719461 0.42400438
vt 0.6262412 0.41396767
vt 0.5805232 0.54171485
vt 0.52209157 0.5019005
vt 0.5413263 0.5901914
vt 0.5163457 0.57317
vt 0.56087166 0.6097556
vt 0.6262412 0.5874769
vt 0.09864411 0.6310317
vt 0.044402838 0.7067969
vt 0.09864411 0.718058
vt 0.044367254 0.6276894
vt 0.00828442 0.73271054
vt 0.008342028 0.6328714
vt 0.6982274 0.22712982
vt 0.7317618 0.27400923
vt 0.7860217 0.25612044
vt 0.7317618 0.18026793
vt 0.7860217 0.19818509
vt 0.38627368 0.8144138
vt 0.33764678 0.770797
vt 0.30378348 0.8144138
vt 0.37291306 0.7707969
vt 0.32590252 0.7373128
vt 0.3539105 0.71661854
vt 0.38296455 0.7373128
vt 0.73030734 0.7321675
vt 0.64281005 0.66881895
vt 0.67641115 0.7533345
vt 0.72371674 0.6533816
vt 0.7645961 0.76773524
vt 0.7645961 0.6652005
vt 0.6639435 0.6165335
vt 0.6985328 0.6099336
vt 0.724735 0.806396
vt 0.71880484 0.8285066
vt 0.724735 0.850624
vt 0.74093676 0.79021674
vt 0.74093676 0.8668219
vt 0.7630687 0.784304
vt 0.7630687 0.87276006
vt 0.19241846 0.55133086
vt 0.1794095 0.6111206
vt 0.09195745 0.58529603
vt 0.1361363 0.53471076
vt 0.19906318 0.4378423
vt 0.095825076 0.49184263
vt 0.08228624 0.43421298
vt 0.00828445 0.42914116
vt 0.029321313 0.51868695
vt 0.03448367 0.3406524
vt 0.09914744 0.37726367
vt 0.14189076 0.33625412
vt 0.19906318 0.32217294
vt 0.18116583 0.00828445
vt 0.28721458 0.018352509
vt 0.28125417 0.10639542
vt 0.17477281 0.10271758
vt 0.08225031 0.03076011
vt 0.28125417 0.20785779
vt 0.07682894 0.11084044
vt 0.17477281 0.21154416
vt 0.28721458 0.29555267
vt 0.1811658 0.30560404
vt 0.07682894 0.20312661
vt 0.08225028 0.2828905
vt 0.008284435 0.12704545
vt 0.00828442 0.18643874
vt 0.30378342 0.11406767
vt 0.31582284 0.00828445
vt 0.38306665 0.009331226
vt 0.3759079 0.115190506
vt 0.33304608 0.21585822
vt 0.4792903 0.009331226
vt 0.39420855 0.21681035
vt 0.4791155 0.115190506
vt 0.57871044 0.00828445
vt 0.58575165 0.11406779
vt 0.48172975 0.21681035
vt 0.42976987 0.29181194
vt 0.57215834 0.21585822
vt 0.4860965 0.29181194
vt 0.54429436 0.2911992
vt 0.40178013 0.67375666
vt 0.49868596 0.5982965
vt 0.49977684 0.7000498
vt 0.4533192 0.5861243
vt 0.33004165 0.60203505
vt 0.4576037 0.5787119
vt 0.49868596 0.58973455
vt 0.42752934 0.5486447
vt 0.42010856 0.5529214
vt 0.30378354 0.50410265
vt 0.41652143 0.50758946
vt 0.40795255 0.5075845
vt 0.33004165 0.40620053
vt 0.42752934 0.46654677
vt 0.42010856 0.46226156
vt 0.40178013 0.33456135
vt 0.4576037 0.43651414
vt 0.4533193 0.42909688
vt 0.49977684 0.30838084
vt 0.49868596 0.42553878
vt 0.49868596 0.4169768
vt 0.7512244 0.3365708
vt 0.7516631 0.30838075
vt 0.824293 0.3204366
vt 0.8239287 0.3438229
vt 0.75122416 0.37690973
vt 0.8239287 0.37728786
vt 0.7516631 0.41858873
vt 0.8242928 0.41186455
vt 0.11521292 0.6645988
vt 0.11771178 0.62768936
vt 0.19081426 0.6375861
vt 0.18874145 0.668206
vt 0.115213156 0.70713395
vt 0.18874145 0.7034929
vt 0.11771178 0.74389756
vt 0.19081426 0.73399174
vt 0.24971366 0.33127806
vt 0.2837953 0.3221729
vt 0.2837953 0.34248516
vt 0.25987804 0.3488748
vt 0.2247642 0.35619298
vt 0.24236938 0.36635923
vt 0.21563205 0.3902417
vt 0.23596078 0.3902534
vt 0.2247642 0.42430097
vt 0.24236938 0.41415495
vt 0.24971366 0.44924456
vt 0.25987804 0.4316595
vt 0.2837953 0.45838892
vt 0.2837953 0.43807667
vt 0.47919708 0.71661854
vt 0.49772897 0.71740174
vt 0.49772897 0.74418235
vt 0.4805804 0.7434578
vt 0.98125696 0.6931305
vt 0.95399976 0.7120683
vt 0.9546795 0.6962987
vt 0.9805224 0.7101723
vt 0.95375085 0.734038
vt 0.98025346 0.73391414
vt 0.95399976 0.75632083
vt 0.9805224 0.7579945
vt 0.9546795 0.77294624
vt 0.98125696 0.775961
vt 0.47919703 0.760751
vt 0.49187297 0.7616446
vt 0.49187297 0.7884679
vt 0.48014325 0.7876413
vt 0.7921162 0.60993373
vt 0.8170564 0.6178313
vt 0.8170564 0.7732832
vt 0.7921162 0.78146785
vt 0.78116494 0.6178711
vt 0.78116494 0.773323
vt 0.23544306 0.47495776
vt 0.26039973 0.48461574
vt 0.25128442 0.54444003
vt 0.22538471 0.54097116
vt 0.26039973 0.65440357
vt 0.23544307 0.662311
vt 0.21563202 0.54318964
vt 0.22474736 0.6531532
vt 0.5994642 0.805797
vt 0.6247802 0.8063758
vt 0.6247802 0.8821873
vt 0.5994642 0.8894516
vt 0.5888657 0.8060254
vt 0.5888657 0.88183683
vt 0.6061041 0.7816747
vt 0.5233493 0.6263244
vt 0.6071316 0.6263244
vt 0.52232176 0.7816747
vt 0.51634574 0.7892281
vt 0.60879576 0.7892281
vt 0.7829298 0.16369903
vt 0.6982274 0.16365033
vt 0.6982274 0.00828445
vt 0.7829298 0.008333147
vt 0.7346553 0.32660073
vt 0.64281005 0.4045024
vt 0.68725646 0.30838078
vt 0.69887775 0.40748155
vt 0.7278918 0.5079721
vt 0.6543593 0.54746735
vt 0.7346553 0.5764799
vt 0.7032186 0.59336483
vt 0.6816585 0.008732557
vt 0.6238434 0.12693131
vt 0.6260981 0.00828445
vt 0.6792643 0.13563001
vt 0.6816585 0.25894904
vt 0.60232055 0.23391867
vt 0.604778 0.30838078
vt 0.5719461 0.42400438
vt 0.5570336 0.3410172
vt 0.6262412 0.41396767
vt 0.5805232 0.54171485
vt 0.52209157 0.5019005
vt 0.5413263 0.5901914
vt 0.5163457 0.57317
vt 0.56087166 0.6097556
vt 0.6262412 0.5874769
vt 0.09864411 0.6310317
vt 0.09864411 0.718058
vt 0.044402838 0.7067969
vt 0.044367254 0.6276894
vt 0.00828442 0.73271054
vt 0.008342028 0.6328714
vt 0.7860217 0.25612044
vt 0.7317618 0.27400923
vt 0.6982274 0.22712982
vt 0.7317618 0.18026793
vt 0.7860217 0.19818509
vt 0.38627368 0.8144138
vt 0.30378348 0.8144138
vt 0.33764678 0.770797
vt 0.37291306 0.7707969
vt 0.32590252 0.7373128
vt 0.3539105 0.71661854
vt 0.38296455 0.7373128
vt 0.73030734 0.7321675
vt 0.67641115 0.7533345
vt 0.64281005 0.66881895
vt 0.72371674 0.6533816
vt 0.7645961 0.76773524
vt 0.7645961 0.6652005
vt 0.6639435 0.6165335
vt 0.6985328 0.6099336
vt 0.74093676 0.79021674
vt 0.7630687 0.784304
vt 0.7630687 0.87276006
vt 0.74093676 0.8668219
vt 0.724735 0.806396
vt 0.724735 0.850624
vt 0.71880484 0.8285066
vn -0.642541 0.75213075 -0.14642568
vn -0.642541 0.75213075 -0.14642568
vn -0.642541 0.75213075 -0.14642568
vn 0.4563232 0.2344764 0.8583646
vn 0.4563232 0.2344764 0.8583646
vn 0.4563232 0.2344764 0.8583646
vn 0.86849254 -0.31887415 -0.37952605
vn 0.86849254 -0.31887415 -0.37952605
vn 0.86849254 -0.31887415 -0.37952605
vn -0.5832442 -0.8106436 0.05179708
vn -0.5832442 -0.8106436 0.05179708
vn -0.5832442 -0.8106436 0.05179708
vn -0.4245138 0.50156575 -0.7538035
vn -0.4245138 0.50156575 -0.7538035
vn -0.4245138 0.50156575 -0.7538035
vn -0.65282637 -0.72952574 0.20398484
vn -0.65282637 -0.72952574 0.20398484
vn -0.65282637 -0.72952574 0.20398484
vn 0.5944388 0.028911907 -0.803621
vn 0.5944388 0.028911907 -0.803621
vn 0.5944388 0.028911907 -0.803621
vn -0.64856756 0.6912431 0.31865805
vn -0.64856756 0.6912431 0.31865805
vn -0.64856756 0.6912431 0.31865805
vn 0.09321209 0.68345755 0.72401464
vn 0.09321209 0.68345755 0.72401464
vn 0.09321209 0.68345755 0.72401464
vn 0.6385729 -0.10327236 0.76260036
vn 0.6385729 -0.10327236 0.76260036
vn 0.6385729 -0.10327236 0.76260036
vn -0.5683529 -0.80439955 -0.17296337
vn -0.5683529 -0.80439955 -0.17296337
vn -0.5683529 -0.80439955 -0.17296337
vn 0.40168303 0.40471867 -0.8214947
vn 0.40168303 0.40471867 -0.8214947
vn 0.40168303 0.40471867 -0.8214947
vn -0.5005927 0.49264416 0.71183467
vn -0.5005927 0.49264416 0.71183467
vn -0.5005927 0.49264416 0.71183467
vn 0.8623157 -0.25129697 0.439615
vn 0.8623157 -0.25129697 0.439615
vn 0.8623157 -0.25129697 0.439615
vn -0.5915146 -0.7757511 -0.21981943
vn -0.5915146 -0.7757511 -0.21981943
vn -0.5915146 -0.7757511 -0.21981943
vn 0.093434215 0.6685969 -0.73773164
vn 0.093434215 0.6685969 -0.73773164
vn 0.093434215 0.6685969 -0.73773164
vn -0.9527869 -0.26676106 -0.14503708
vn -0.9527869 -0.26676106 -0.14503708
vn -0.9527869 -0.26676106 -0.14503708
vn -0.018973907 0.5091093 0.8604926
vn -0.018973907 0.5091093 0.8604926
vn -0.018973907 0.5091093 0.8604926
vn 0.6530813 0.6558777 -0.37856194
vn 0.6530813 0.6558777 -0.37856194
vn 0.6530813 0.6558777 -0.37856194
vn 0.49096078 -0.8699135 0.046987813
vn 0.49096078 -0.8699135 0.046987813
vn 0.49096078 -0.8699135 0.046987813
vn -0.63541245 -0.17162178 -0.7528592
vn -0.63541245 -0.17162178 -0.7528592
vn -0.63541245 -0.17162178 -0.7528592
vn 0.3885189 -0.89962405 0.19932272
vn 0.3885189 -0.89962405 0.19932272
vn 0.3885189 -0.89962405 0.19932272
vn 0.22126795 0.55490214 -0.80195016
vn 0.22126795 0.55490214 -0.80195016
vn 0.22126795 0.55490214 -0.80195016
vn -0.89884955 -0.29968515 0.31977838
vn -0.89884955 -0.29968515 0.31977838
vn -0.89884955 -0.29968515 0.31977838
vn -0.5792696 0.36861968 0.7270255
vn -0.5792696 0.36861968 0.7270255
vn -0.5792696 0.36861968 0.7270255
vn 0.36383396 0.5330928 0.76383036
vn 0.36383396 0.5330928 0.76383036
vn 0.36383396 0.5330928 0.76383036
vn 0.49096203 -0.852864 -0.17770593
vn 0.49096203 -0.852864 -0.17770593
vn 0.49096203 -0.852864 -0.17770593
vn -0.20078655 0.53782475 -0.8187974
vn -0.20078655 0.53782475 -0.8187974
vn -0.20078655 0.53782475 -0.8187974
vn -0.6554529 -0.25037035 0.712528
vn -0.6554529 -0.25037035 0.712528
vn -0.6554529 -0.25037035 0.712528
vn 0.5912837 0.6753174 0.44082853
vn 0.5912837 0.6753174 0.44082853
vn 0.5912837 0.6753174 0.44082853
vn 0.45511487 -0.8616658 -0.22450498
vn 0.45511487 -0.8616658 -0.22450498
vn 0.45511487 -0.8616658 -0.22450498
vn -0.56948626 0.36852062 -0.7347638
vn -0.56948626 0.36852062 -0.7347638
vn -0.56948626 0.36852062 -0.7347638
vn -0.40626788 -0.90177315 -0.14748453
vn -0.40626788 -0.90177315 -0.14748453
vn -0.40626788 -0.90177315 -0.14748453
vn -0.40152416 0.30883697 0.86220527
vn -0.40152416 0.30883697 0.86220527
vn -0.40152416 0.30883697 0.86220527
vn -0.085346 0.92298365 -0.37525603
vn -0.085346 0.92298365 -0.37525603
vn -0.085346 0.92298365 -0.37525603
vn 0.98246455 -0.18099055 0.044787556
vn 0.98246455 -0.18099055 0.044787556
vn 0.98246455 -0.18099055 0.044787556
vn -0.2768144 -0.5951104 -0.75446486
vn -0.2768144 -0.5951104 -0.75446486
vn -0.2768144 -0.5951104 -0.75446486
vn 0.9398427 -0.27918422 0.19685453
vn 0.9398427 -0.27918422 0.19685453
vn 0.9398427 -0.27918422 0.19685453
vn -0.28533784 0.5282908 -0.7996819
vn -0.28533784 0.5282908 -0.7996819
vn -0.28533784 0.5282908 -0.7996819
vn -0.34567577 -0.88307846 0.31730187
vn -0.34567577 -0.88307846 0.31730187
vn -0.34567577 -0.88307846 0.31730187
vn -0.6530847 -0.21079302 0.72735596
vn -0.6530847 -0.21079302 0.72735596
vn -0.6530847 -0.21079302 0.72735596
vn -0.17469177 0.61835 0.7662414
vn -0.17469177 0.61835 0.7662414
vn -0.17469177 0.61835 0.7662414
vn 0.96901846 -0.16928807 -0.17984603
vn 0.96901846 -0.16928807 -0.17984603
vn 0.96901846 -0.16928807 -0.17984603
vn -0.54281104 0.19347282 -0.8172664
vn -0.54281104 0.19347282 -0.8172664
vn -0.54281104 0.19347282 -0.8172664
vn -0.22686645 -0.66600734 0.7106094
vn -0.22686645 -0.66600734 0.7106094
vn -0.22686645 -0.66600734 0.7106094
vn -0.13856407 0.8851999 0.4440955
vn -0.13856407 0.8851999 0.4440955
vn -0.13856407 0.8851999 0.4440955
vn 0.9527194 -0.20228262 -0.22673246
vn 0.9527194 -0.20228262 -0.22673246
vn 0.9527194 -0.20228262 -0.22673246
vn -0.6490862 -0.19832489 -0.73440754
vn -0.6490862 -0.19832489 -0.73440754
vn -0.6490862 -0.19832489 -0.73440754
vn 0.6412042 0.75213075 -0.15217285
vn 0.6412042 0.75213075 -0.15217285
vn 0.6412042 0.75213075 -0.15217285
vn -0.44861948 0.2344764 0.8624159
vn -0.44861948 0.2344764 0.8624159
vn -0.44861948 0.2344764 0.8624159
vn -0.8718558 -0.31887415 -0.3717347
vn -0.8718558 -0.31887415 -0.3717347
vn -0.8718558 -0.31887415 -0.3717347
vn 0.58368456 -0.8106436 0.046572875
vn 0.58368456 -0.8106436 0.046572875
vn 0.58368456 -0.8106436 0.046572875
vn 0.41774753 0.50156575 -0.7575742
vn 0.41774753 0.50156575 -0.7575742
vn 0.41774753 0.50156575 -0.7575742
vn 0.65462655 -0.72952574 0.19813152
vn 0.65462655 -0.72952574 0.19813152
vn 0.65462655 -0.72952574 0.19813152
vn -0.6016103 0.028911907 -0.7982665
vn -0.6016103 0.028911907 -0.7982665
vn -0.6016103 0.028911907 -0.7982665
vn 0.6513947 0.6912431 0.31283826
vn 0.6513947 0.6912431 0.31283826
vn 0.6513947 0.6912431 0.31283826
vn -0.08672582 0.68345755 0.7248202
vn -0.08672582 0.68345755 0.7248202
vn -0.08672582 0.68345755 0.7248202
vn -0.6317193 -0.10327236 0.7682873
vn -0.6317193 -0.10327236 0.7682873
vn -0.6317193 -0.10327236 0.7682873
vn 0.56678146 -0.80439955 -0.17804524
vn 0.56678146 -0.80439955 -0.17804524
vn 0.56678146 -0.80439955 -0.17804524
vn -0.40902227 0.40471867 -0.81786525
vn -0.40902227 0.40471867 -0.81786525
vn -0.40902227 0.40471867 -0.81786525
vn 0.5069461 0.49264416 0.707324
vn 0.5069461 0.49264416 0.707324
vn 0.5069461 0.49264416 0.707324
vn -0.858345 -0.25129697 0.4473182
vn -0.858345 -0.25129697 0.4473182
vn -0.858345 -0.25129697 0.4473182
vn 0.5895227 -0.7757511 -0.22510679
vn 0.5895227 -0.7757511 -0.22510679
vn 0.5895227 -0.7757511 -0.22510679
vn -0.10003582 0.6685969 -0.7368655
vn -0.10003582 0.6685969 -0.7368655
vn -0.10003582 0.6685969 -0.7368655
vn 0.9514501 -0.26676106 -0.15356213
vn 0.9514501 -0.26676106 -0.15356213
vn 0.9514501 -0.26676106 -0.15356213
vn 0.026677648 0.5091093 0.86028826
vn 0.026677648 0.5091093 0.86028826
vn 0.026677648 0.5091093 0.86028826
vn -0.65644467 0.6558777 -0.37269935
vn -0.65644467 0.6558777 -0.37269935
vn -0.65644467 0.6558777 -0.37269935
vn -0.49052036 -0.8699135 0.051381793
vn -0.49052036 -0.8699135 0.051381793
vn -0.49052036 -0.8699135 0.051381793
vn 0.62864614 -0.17162178 -0.7585182
vn 0.62864614 -0.17162178 -0.7585182
vn 0.62864614 -0.17162178 -0.7585182
vn -0.38671866 -0.89962405 0.20279337
vn -0.38671866 -0.89962405 0.20279337
vn -0.38671866 -0.89962405 0.20279337
vn -0.22843944 0.55490214 -0.79993683
vn -0.22843944 0.55490214 -0.79993683
vn -0.22843944 0.55490214 -0.79993683
vn 0.9016767 -0.29968515 0.31171763
vn 0.9016767 -0.29968515 0.31171763
vn 0.9016767 -0.29968515 0.31171763
vn 0.5857559 0.36861968 0.7218098
vn 0.5857559 0.36861968 0.7218098
vn 0.5857559 0.36861968 0.7218098
vn -0.35698032 0.5330928 0.76705736
vn -0.35698032 0.5330928 0.76705736
vn -0.35698032 0.5330928 0.76705736
vn -0.49253345 -0.852864 -0.17330293
vn -0.49253345 -0.852864 -0.17330293
vn -0.49253345 -0.852864 -0.17330293
vn 0.1934473 0.53782475 -0.8205623
vn 0.1934473 0.53782475 -0.8205623
vn 0.1934473 0.53782475 -0.8205623
vn 0.6618063 -0.25037035 0.70663077
vn 0.6618063 -0.25037035 0.70663077
vn 0.6618063 -0.25037035 0.70663077
vn -0.58731294 0.6753174 0.44610497
vn -0.58731294 0.6753174 0.44610497
vn -0.58731294 0.6753174 0.44610497
vn -0.45710674 -0.8616658 -0.22042108
vn -0.45710674 -0.8616658 -0.22042108
vn -0.45710674 -0.8616658 -0.22042108
vn 0.5628847 0.36852062 -0.7398333
vn 0.5628847 0.36852062 -0.7398333
vn 0.5628847 0.36852062 -0.7398333
vn 0.40493107 -0.90177315 -0.15111618
vn 0.40493107 -0.90177315 -0.15111618
vn 0.40493107 -0.90177315 -0.15111618
vn 0.40922788 0.30883697 0.85857564
vn 0.40922788 0.30883697 0.85857564
vn 0.40922788 0.30883697 0.85857564
vn 0.08198269 0.92298365 -0.37600514
vn 0.08198269 0.92298365 -0.37600514
vn 0.08198269 0.92298365 -0.37600514
vn -0.9820242 -0.18099055 0.053582348
vn -0.9820242 -0.18099055 0.053582348
vn -0.9820242 -0.18099055 0.053582348
vn 0.27004814 -0.5951104 -0.7569131
vn 0.27004814 -0.5951104 -0.7569131
vn 0.27004814 -0.5951104 -0.7569131
vn -0.9380425 -0.27918422 0.20526162
vn -0.9380425 -0.27918422 0.20526162
vn -0.9380425 -0.27918422 0.20526162
vn 0.27816638 0.5282908 -0.8022046
vn 0.27816638 0.5282908 -0.8022046
vn 0.27816638 0.5282908 -0.8022046
vn 0.34850287 -0.88307846 0.3141941
vn 0.34850287 -0.88307846 0.3141941
vn 0.34850287 -0.88307846 0.3141941
vn 0.659571 -0.21079302 0.72147936
vn 0.659571 -0.21079302 0.72147936
vn 0.659571 -0.21079302 0.72147936
vn 0.18154538 0.61835 0.76464653
vn 0.18154538 0.61835 0.76464653
vn 0.18154538 0.61835 0.76464653
vn -0.9705899 -0.16928807 -0.17116264
vn -0.9705899 -0.16928807 -0.17116264
vn -0.9705899 -0.16928807 -0.17116264
vn 0.5354718 0.19347282 -0.8220937
vn 0.5354718 0.19347282 -0.8220937
vn 0.5354718 0.19347282 -0.8220937
vn 0.23321986 -0.66600734 0.7085496
vn 0.23321986 -0.66600734 0.7085496
vn 0.23321986 -0.66600734 0.7085496
vn 0.14253475 0.8851999 0.44283703
vn 0.14253475 0.8851999 0.44283703
vn 0.14253475 0.8851999 0.44283703
vn -0.95471126 -0.20228262 -0.21819311
vn -0.95471126 -0.20228262 -0.21819311
vn -0.95471126 -0.20228262 -0.21819311
vn 0.6424846 -0.19832489 -0.74018973
vn 0.6424846 -0.19832489 -0.74018973
vn 0.6424846 -0.19832489 -0.74018973
vn -0.0037410834 0.549259 -0.83564377
vn 0.44050273 0.7665887 -0.46722484
vn -0.0020828424 0.88518023 -0.4652433
vn 0.2708855 0.47567227 -0.83687323
vn -0.0044768425 1.1920906E-07 -0.9999899
vn 0.47192624 0.2746295 -0.8377733
vn 0.5455122 9.9617324E-08 -0.8381028
vn 0.88308865 5.546179E-08 -0.46920624
vn 0.7644982 0.44259006 -0.4686754
vn 0.76449805 -0.44259012 -0.46867535
vn 0.47192618 -0.27462938 -0.83777344
vn 0.27088553 -0.47567204 -0.83687335
vn -0.0037410834 -0.5492587 -0.8356439
vn -0.00036483735 0.99667376 -0.08149341
vn 0.44177374 0.76148885 0.47431073
vn 0.002132247 0.8792916 0.476279
vn 0.49796703 0.8631448 -0.083724394
vn -0.0020828424 0.88518023 -0.4652433
vn 0.76361364 0.43964562 0.4728698
vn 0.44050273 0.7665887 -0.46722484
vn 0.8627714 0.49833682 -0.08535749
vn 0.8814151 -5.6777324E-08 0.47234237
vn 0.996299 9.71484E-09 -0.08595527
vn 0.7644982 0.44259006 -0.4686754
vn 0.88308865 5.546179E-08 -0.46920624
vn 0.2708855 0.47567227 -0.83687323
vn 0.47192624 0.2746295 -0.8377733
vn 0.996299 9.71484E-09 -0.08595527
vn 0.7636137 -0.43964583 0.4728696
vn 0.8814151 -5.6777324E-08 0.47234237
vn 0.8627714 -0.49833682 -0.0853576
vn 0.88308865 5.546179E-08 -0.46920624
vn 0.4417736 -0.76148903 0.47431043
vn 0.76449805 -0.44259012 -0.46867535
vn 0.497967 -0.8631448 -0.08372448
vn 0.0021322465 -0.8792918 0.47627866
vn -0.00036483668 -0.99667376 -0.0814935
vn 0.4405028 -0.7665886 -0.4672249
vn 0.47192618 -0.27462938 -0.83777344
vn -0.0020828422 -0.88518023 -0.46524346
vn 0.27088553 -0.47567204 -0.83687335
vn -0.0037410834 -0.5492587 -0.8356439
vn 0.4417736 -0.76148903 0.47431043
vn 0.0021322465 -0.8792918 0.47627866
vn 0.004164291 -0.3670915 0.9301754
vn 0.18770763 -0.31791055 0.92935383
vn 0.7636137 -0.43964583 0.4728696
vn 0.28601596 -0.489001 0.8240587
vn 0.0036948756 -0.5646497 0.8253224
vn 0.49268895 -0.28232515 0.8231343
vn 0.3220702 -0.1835458 0.92875266
vn 0.8814151 -5.6777324E-08 0.47234237
vn 0.56833774 -9.8387005E-08 0.82279545
vn 0.37125126 -1.108865E-07 0.9285324
vn 0.76361364 0.43964562 0.4728698
vn 0.49269128 0.2823246 0.82313305
vn 0.32207206 0.18354549 0.9287522
vn 0.44177374 0.76148885 0.47431073
vn 0.28601706 0.48900077 0.82405853
vn 0.18770844 0.31791025 0.92935383
vn 0.002132247 0.8792916 0.476279
vn 0.0036948759 0.5646492 0.82532257
vn 0.0041642915 0.36709118 0.93017566
vn 0.49268895 -0.28232515 0.8231343
vn 0.6948434 -8.6100485E-08 0.71916103
vn 0.56833774 -9.8387005E-08 0.82279545
vn 0.60218513 -0.3458086 0.71957576
vn 0.28601596 -0.489001 0.8240587
vn 0.34903866 -0.5989579 0.72070885
vn 0.0036948756 -0.5646497 0.8253224
vn 0.0032334637 -0.69161713 0.722257
vn 0.28601706 0.48900077 0.82405853
vn 0.003233464 0.6916169 0.7222572
vn 0.0036948759 0.5646492 0.82532257
vn 0.34903893 0.59895766 0.72070897
vn 0.49269128 0.2823246 0.82313305
vn 0.60218555 0.34580845 0.7195756
vn 0.56833774 -9.8387005E-08 0.82279545
vn 0.6948434 -8.6100485E-08 0.71916103
vn 0.34903893 0.59895766 0.72070897
vn 0.003624188 -0.5870632 0.8095329
vn 0.003233464 0.6916169 0.7222572
vn -0.2899037 -0.5084118 0.8108471
vn 0.60218555 0.34580845 0.7195756
vn -0.50478184 -0.29353172 0.8118093
vn 0.6948434 -8.6100485E-08 0.71916103
vn -0.58343357 -9.650459E-08 0.8121608
vn 0.60218513 -0.3458086 0.71957576
vn -0.5047825 0.29353145 0.81180894
vn 0.34903866 -0.5989579 0.72070885
vn -0.28990406 0.5084116 0.81084716
vn 0.0032334637 -0.69161713 0.722257
vn 0.0036241882 0.58706284 0.80953306
vn -0.2899037 -0.5084118 0.8108471
vn -0.3530403 -0.6169323 0.7033895
vn 0.0031418581 -0.71237177 0.7017951
vn 0.003624188 -0.5870632 0.8095329
vn -0.28990406 0.5084116 0.81084716
vn -0.35304028 0.6169321 0.70338976
vn -0.613784 0.356186 0.70455706
vn -0.5047825 0.29353145 0.81180894
vn -0.7092228 -8.366118E-08 0.7049842
vn -0.58343357 -9.650459E-08 0.8121608
vn -0.6137841 -0.35618606 0.7045569
vn -0.50478184 -0.29353172 0.8118093
vn -0.3530403 -0.6169323 0.7033895
vn -0.2899037 -0.5084118 0.8108471
vn 0.0036241882 0.58706284 0.80953306
vn 0.0031418581 0.71237165 0.7017952
vn -0.35304028 0.6169321 0.70338976
vn -0.28990406 0.5084116 0.81084716
vn -0.65497106 -0.74791974 0.107837245
vn -0.22700295 0.45013663 0.8636241
vn -0.20644337 -0.50309443 0.8392121
vn -0.68646985 0.7125061 0.14523858
vn -0.7394792 -0.3506705 -0.574631
vn -0.7545357 0.3474221 -0.5567528
vn -0.68646985 0.7125061 0.14523858
vn 0.7540038 0.48198316 0.44628498
vn -0.22700295 0.45013663 0.8636241
vn 0.54044265 0.7523355 -0.37671345
vn 0.77456343 -0.47124794 0.421873
vn 0.57194144 -0.70809036 -0.41411477
vn 0.10229817 0.3752376 -0.9212663
vn 0.11735481 -0.32285497 -0.93914455
vn 0.57194144 -0.70809036 -0.41411477
vn -0.20644337 -0.50309443 0.8392121
vn 0.77456343 -0.47124794 0.421873
vn -0.65497106 -0.74791974 0.107837245
vn 0.11735481 -0.32285497 -0.93914455
vn -0.7394792 -0.3506705 -0.574631
vn -0.7545357 0.3474221 -0.5567528
vn -0.7394792 -0.3506705 -0.574631
vn 0.11735481 -0.32285497 -0.93914455
vn 0.10229817 0.3752376 -0.9212663
vn 0.54044265 0.7523355 -0.37671345
vn -0.68646985 0.7125061 0.14523858
vn 0.7540038 0.48198316 0.44628498
vn 0.77456343 -0.47124794 0.421873
vn -0.20644337 -0.50309443 0.8392121
vn -0.22700295 0.45013663 0.8636241
vn -0.48528153 0.84710383 -0.21660341
vn -0.36138135 0.22348653 -0.9052388
vn 0.5899528 0.16848582 -0.78966343
vn 0.11797591 0.9709075 -0.20837551
vn 0.17776552 0.979552 0.094220564
vn 0.9617975 0.19548327 -0.1916556
vn 0.2563228 0.60912186 0.75051266
vn 0.75220424 0.15055881 0.641499
vn -0.36138135 0.22348653 -0.9052388
vn -0.5108501 -0.64151406 -0.5722692
vn 0.30257893 -0.81524324 -0.49378604
vn 0.5899528 0.16848582 -0.78966343
vn 0.9617975 0.19548327 -0.1916556
vn 0.53518677 -0.84473395 0.00015538186
vn -0.5108501 -0.64151406 -0.5722692
vn -0.7548057 -0.5658539 0.33177978
vn -0.48330602 -0.79890156 0.35801077
vn 0.30257893 -0.81524324 -0.49378604
vn 0.53518677 -0.84473395 0.00015538186
vn -0.5281465 -0.7267907 0.43913174
vn 0.48524663 -0.47272563 0.7355721
vn -0.17282754 -0.39591235 0.9018781
vn 0.75220424 0.15055881 0.641499
vn 0.9617975 0.19548327 -0.1916556
vn -0.7548057 -0.5658539 0.33177978
vn -0.67201596 0.4522798 0.5863767
vn -0.48330602 -0.79890156 0.35801077
vn -0.75362086 0.3606194 0.5495537
vn 0.11797591 0.9709075 -0.20837551
vn -0.48528153 0.84710383 -0.21660341
vn -0.7548057 -0.5658539 0.33177978
vn -0.5108501 -0.64151406 -0.5722692
vn -0.36138135 0.22348653 -0.9052388
vn -0.75362086 0.3606194 0.5495537
vn -0.48528153 0.84710383 -0.21660341
vn 0.17776552 0.979552 0.094220564
vn -0.31255743 0.2697876 0.9107812
vn -0.7501066 0.41390088 0.51577747
vn 0.2563228 0.60912186 0.75051266
vn -0.17282754 -0.39591235 0.9018781
vn 0.48524663 -0.47272563 0.7355721
vn 0.75220424 0.15055881 0.641499
vn -0.67201596 0.4522798 0.5863767
vn -0.5281465 -0.7267907 0.43913174
vn -0.48330602 -0.79890156 0.35801077
vn -0.7501066 0.41390088 0.51577747
vn 0.11797591 0.9709075 -0.20837551
vn 0.17776552 0.979552 0.094220564
vn -0.17282754 -0.39591235 0.9018781
vn -0.31255743 0.2697876 0.9107812
vn -0.6137841 -0.35618606 0.7045569
vn -0.7092228 -8.366118E-08 0.7049842
vn -0.613784 0.356186 0.70455706
vn -0.3530403 -0.6169323 0.7033895
vn -0.35304028 0.6169321 0.70338976
vn 0.0031418581 -0.71237177 0.7017951
vn 0.0031418581 0.71237165 0.7017952
vn -0.0037410834 0.549259 -0.83564377
vn -0.0020828424 0.88518023 -0.4652433
vn -0.44466844 0.7665887 -0.4632621
vn -0.27836767 0.47567227 -0.8344143
vn -0.0044768425 1.1920906E-07 -0.9999899
vn -0.47940835 0.2746295 -0.83351433
vn -0.5529944 9.9617324E-08 -0.83318496
vn -0.8872543 5.5461786E-08 -0.46128058
vn -0.7686638 0.44259012 -0.4618116
vn -0.7686637 -0.44259012 -0.46181157
vn -0.4794084 -0.27462935 -0.83351433
vn -0.27836773 -0.47567204 -0.8344144
vn -0.0037410834 -0.5492587 -0.8356439
vn -0.00036483735 0.99667376 -0.08149341
vn 0.002132247 0.8792916 0.476279
vn -0.43750927 0.76148885 0.4782472
vn -0.4986967 0.8631448 -0.07926245
vn -0.0020828424 0.88518023 -0.4652433
vn -0.75934917 0.43964562 0.479688
vn -0.44466844 0.7665887 -0.4632621
vn -0.8635011 0.49833682 -0.077629164
vn -0.87715065 -5.6777324E-08 0.48021525
vn -0.9970287 9.71484E-09 -0.07703137
vn -0.7686638 0.44259012 -0.4618116
vn -0.8872543 5.5461786E-08 -0.46128058
vn -0.27836767 0.47567227 -0.8344143
vn -0.47940835 0.2746295 -0.83351433
vn -0.9970287 9.71484E-09 -0.07703137
vn -0.87715065 -5.6777324E-08 0.48021525
vn -0.7593492 -0.43964583 0.47968775
vn -0.8635011 -0.49833682 -0.07762929
vn -0.8872543 5.5461786E-08 -0.46128058
vn -0.43750906 -0.7614891 0.47824687
vn -0.7686637 -0.44259012 -0.46181157
vn -0.49869668 -0.8631448 -0.07926253
vn 0.0021322465 -0.8792918 0.47627866
vn -0.00036483668 -0.99667376 -0.0814935
vn -0.4446685 -0.7665886 -0.46326208
vn -0.4794084 -0.27462935 -0.83351433
vn -0.0020828422 -0.88518023 -0.46524346
vn -0.27836773 -0.47567204 -0.8344144
vn -0.0037410834 -0.5492587 -0.8356439
vn -0.43750906 -0.7614891 0.47824687
vn 0.004164291 -0.3670915 0.9301754
vn 0.0021322465 -0.8792918 0.47627866
vn -0.17937914 -0.31791055 0.93099725
vn -0.7593492 -0.43964583 0.47968775
vn -0.2786264 -0.489001 0.82658654
vn 0.0036948756 -0.5646497 0.8253224
vn -0.48529935 -0.28232515 0.82751256
vn -0.31374177 -0.1835458 0.9315991
vn -0.87715065 -5.6777324E-08 0.48021525
vn -0.56094795 -9.838699E-08 0.827851
vn -0.36292267 -1.108865E-07 0.93181926
vn -0.75934917 0.43964562 0.479688
vn -0.48530155 0.28232464 0.8275115
vn -0.31374344 0.1835455 0.93159866
vn -0.43750927 0.76148885 0.4782472
vn -0.2786272 0.4890008 0.8265864
vn -0.17937972 0.31791022 0.93099725
vn 0.002132247 0.8792916 0.476279
vn 0.0036948759 0.5646492 0.82532257
vn 0.0041642915 0.36709118 0.93017566
vn -0.48529935 -0.28232515 0.82751256
vn -0.56094795 -9.838699E-08 0.827851
vn -0.6883763 -8.610049E-08 0.72535366
vn -0.5957181 -0.34580863 0.7249387
vn -0.2786264 -0.489001 0.82658654
vn -0.3425719 -0.5989579 0.72380507
vn 0.0036948756 -0.5646497 0.8253224
vn 0.0032334637 -0.69161713 0.722257
vn -0.2786272 0.4890008 0.8265864
vn 0.0036948759 0.5646492 0.82532257
vn 0.003233464 0.6916169 0.7222572
vn -0.3425719 0.5989577 0.7238053
vn -0.48530155 0.28232464 0.8275115
vn -0.59571844 0.34580845 0.7249386
vn -0.56094795 -9.838699E-08 0.827851
vn -0.6883763 -8.610049E-08 0.72535366
vn -0.3425719 0.5989577 0.7238053
vn 0.003233464 0.6916169 0.7222572
vn 0.003624188 -0.5870632 0.8095329
vn 0.29715228 -0.5084118 0.8082189
vn -0.59571844 0.34580845 0.7249386
vn 0.51203054 -0.2935316 0.80725694
vn -0.6883763 -8.610049E-08 0.72535366
vn 0.5906821 -9.650458E-08 0.80690426
vn -0.5957181 -0.34580863 0.7249387
vn 0.512031 0.2935314 0.80725676
vn -0.3425719 -0.5989579 0.72380507
vn 0.29715225 0.5084116 0.808219
vn 0.0032334637 -0.69161713 0.722257
vn 0.0036241882 0.58706284 0.80953306
vn 0.29715228 -0.5084118 0.8082189
vn 0.003624188 -0.5870632 0.8095329
vn 0.0031418581 -0.71237177 0.7017951
vn 0.35932398 -0.6169322 0.70020044
vn 0.29715225 0.5084116 0.808219
vn 0.6200676 0.35618597 0.6990333
vn 0.35932386 0.6169321 0.7002007
vn 0.512031 0.2935314 0.80725676
vn 0.7155065 -8.366119E-08 0.698606
vn 0.5906821 -9.650458E-08 0.80690426
vn 0.62006783 -0.35618597 0.69903314
vn 0.51203054 -0.2935316 0.80725694
vn 0.35932398 -0.6169322 0.70020044
vn 0.29715228 -0.5084118 0.8082189
vn 0.0036241882 0.58706284 0.80953306
vn 0.29715225 0.5084116 0.808219
vn 0.35932386 0.6169321 0.7002007
vn 0.0031418581 0.71237165 0.7017952
vn 0.6658398 -0.7024692 -0.2513844
vn 0.5360703 -0.5712585 0.6215241
vn 0.5366765 0.37284347 0.756945
vn 0.66676867 0.74397004 -0.043908373
vn 0.46195132 -0.23025808 -0.8564939
vn 0.4623953 0.46114874 -0.757319
vn 0.66676867 0.74397004 -0.043908373
vn 0.5366765 0.37284347 0.756945
vn -0.52987754 0.37284347 0.7617198
vn -0.667135 0.74397004 -0.037936643
vn -0.5304839 -0.5712585 0.6262989
vn -0.6680639 -0.7024692 -0.24541268
vn -0.46915752 0.46114874 -0.7531485
vn -0.4696015 -0.23025808 -0.8523234
vn -0.6680639 -0.7024692 -0.24541268
vn -0.5304839 -0.5712585 0.6262989
vn 0.5360703 -0.5712585 0.6215241
vn 0.6658398 -0.7024692 -0.2513844
vn -0.4696015 -0.23025808 -0.8523234
vn 0.46195132 -0.23025808 -0.8564939
vn 0.4623953 0.46114874 -0.757319
vn -0.4696015 -0.23025808 -0.8523234
vn 0.46195132 -0.23025808 -0.8564939
vn -0.46915752 0.46114874 -0.7531485
vn -0.667135 0.74397004 -0.037936643
vn 0.66676867 0.74397004 -0.043908373
vn -0.52987754 0.37284347 0.7617198
vn 0.5366765 0.37284347 0.756945
vn 0.5360703 -0.5712585 0.6215241
vn -0.5304839 -0.5712585 0.6262989
vn 0.49249345 0.83809656 -0.23461518
vn -0.6340194 0.19593735 -0.74808276
vn 0.30923527 0.22899361 -0.92300344
vn -0.10562256 0.97679764 -0.18630683
vn -0.14595784 0.9820386 0.11956816
vn -0.96656865 0.22254816 -0.1273467
vn -0.19255131 0.6031212 0.77405995
vn -0.7060684 0.15892547 0.6900797
vn 0.30923527 0.22899361 -0.92300344
vn -0.3542064 -0.7993276 -0.48540014
vn 0.45688912 -0.6447471 -0.6128242
vn -0.6340194 0.19593735 -0.74808276
vn -0.96656865 0.22254816 -0.1273467
vn -0.5558763 -0.8309783 0.021829229
vn 0.45688912 -0.6447471 -0.6128242
vn 0.48401028 -0.81642413 0.3149375
vn 0.75927716 -0.5898449 0.27492052
vn -0.3542064 -0.7993276 -0.48540014
vn -0.5558763 -0.8309783 0.021829229
vn 0.5357376 -0.74677885 0.39408964
vn -0.44999114 -0.47228003 0.75793105
vn 0.21903715 -0.41464728 0.8832272
vn -0.7060684 0.15892547 0.6900797
vn -0.96656865 0.22254816 -0.1273467
vn 0.75927716 -0.5898449 0.27492052
vn 0.48401028 -0.81642413 0.3149375
vn 0.71919394 0.42578912 0.5490571
vn 0.7959042 0.33272442 0.50579727
vn -0.10562256 0.97679764 -0.18630683
vn 0.49249345 0.83809656 -0.23461518
vn 0.30923527 0.22899361 -0.92300344
vn 0.45688912 -0.6447471 -0.6128242
vn 0.75927716 -0.5898449 0.27492052
vn 0.7959042 0.33272442 0.50579727
vn 0.49249345 0.83809656 -0.23461518
vn -0.14595784 0.9820386 0.11956816
vn 0.7916514 0.38661638 0.47309157
vn 0.37629828 0.24711913 0.89293426
vn -0.19255131 0.6031212 0.77405995
vn 0.21903715 -0.41464728 0.8832272
vn -0.44999114 -0.47228003 0.75793105
vn -0.7060684 0.15892547 0.6900797
vn 0.71919394 0.42578912 0.5490571
vn 0.48401028 -0.81642413 0.3149375
vn 0.5357376 -0.74677885 0.39408964
vn 0.7916514 0.38661638 0.47309157
vn -0.10562256 0.97679764 -0.18630683
vn -0.14595784 0.9820386 0.11956816
vn 0.21903715 -0.41464728 0.8832272
vn 0.37629828 0.24711913 0.89293426
vn 0.35932398 -0.6169322 0.70020044
vn 0.0031418581 -0.71237177 0.7017951
vn 0.0031418581 0.71237165 0.7017952
vn 0.35932386 0.6169321 0.7002007
vn 0.62006783 -0.35618597 0.69903314
vn 0.6200676 0.35618597 0.6990333
vn 0.7155065 -8.366119E-08 0.698606
g 0.5000_0
f 3/3/3 2/2/2 1/1/1
f 6/6/6 5/5/5 4/4/4
f 9/9/9 8/8/8 7/7/7
f 12/12/12 11/11/11 10/10/10
f 15/15/15 14/14/14 13/13/13
f 18/18/18 17/17/17 16/16/16
f 21/21/21 20/20/20 19/19/19
f 24/24/24 23/23/23 22/22/22
f 27/27/27 26/26/26 25/25/25
f 30/30/30 29/29/29 28/28/28
f 33/33/33 32/32/32 31/31/31
f 36/36/36 35/35/35 34/34/34
f 39/39/39 38/38/38 37/37/37
f 42/42/42 41/41/41 40/40/40
f 45/45/45 44/44/44 43/43/43
f 48/48/48 47/47/47 46/46/46
f 51/51/51 50/50/50 49/49/49
f 54/54/54 53/53/53 52/52/52
f 57/57/57 56/56/56 55/55/55
f 60/60/60 59/59/59 58/58/58
f 63/63/63 62/62/62 61/61/61
f 66/66/66 65/65/65 64/64/64
f 69/69/69 68/68/68 67/67/67
f 72/72/72 71/71/71 70/70/70
f 75/75/75 74/74/74 73/73/73
f 78/78/78 77/77/77 76/76/76
f 81/81/81 80/80/80 79/79/79
f 84/84/84 83/83/83 82/82/82
f 87/87/87 86/86/86 85/85/85
f 90/90/90 89/89/89 88/88/88
f 93/93/93 92/92/92 91/91/91
f 96/96/96 95/95/95 94/94/94
f 99/99/99 98/98/98 97/97/97
f 102/102/102 101/101/101 100/100/100
f 105/105/105 104/104/104 103/103/103
f 108/108/108 107/107/107 106/106/106
f 111/111/111 110/110/110 109/109/109
f 114/114/114 113/113/113 112/112/112
f 117/117/117 116/116/116 115/115/115
f 120/120/120 119/119/119 118/118/118
f 123/123/123 122/122/122 121/121/121
f 126/126/126 125/125/125 124/124/124
f 129/129/129 128/128/128 127/127/127
f 132/132/132 131/131/131 130/130/130
f 135/135/135 134/134/134 133/133/133
f 138/138/138 137/137/137 136/136/136
f 141/141/141 140/140/140 139/139/139
f 144/144/144 143/143/143 142/142/142
f 147/147/147 146/146/146 145/145/145
f 150/150/150 149/149/149 148/148/148
f 153/153/153 152/152/152 151/151/151
f 156/156/156 155/155/155 154/154/154
f 159/159/159 158/158/158 157/157/157
f 162/162/162 161/161/161 160/160/160
f 165/165/165 164/164/164 163/163/163
f 168/168/168 167/167/167 166/166/166
f 171/171/171 170/170/170 169/169/169
f 174/174/174 173/173/173 172/172/172
f 177/177/177 176/176/176 175/175/175
f 180/180/180 179/179/179 178/178/178
f 183/183/183 182/182/182 181/181/181
f 186/186/186 185/185/185 184/184/184
f 189/189/189 188/188/188 187/187/187
f 192/192/192 191/191/191 190/190/190
f 195/195/195 194/194/194 193/193/193
f 198/198/198 197/197/197 196/196/196
f 201/201/201 200/200/200 199/199/199
f 204/204/204 203/203/203 202/202/202
f 207/207/207 206/206/206 205/205/205
f 210/210/210 209/209/209 208/208/208
f 213/213/213 212/212/212 211/211/211
f 216/216/216 215/215/215 214/214/214
f 219/219/219 218/218/218 217/217/217
f 222/222/222 221/221/221 220/220/220
f 225/225/225 224/224/224 223/223/223
f 228/228/228 227/227/227 226/226/226
f 231/231/231 230/230/230 229/229/229
f 234/234/234 233/233/233 232/232/232
f 237/237/237 236/236/236 235/235/235
f 240/240/240 239/239/239 238/238/238
f 243/243/243 242/242/242 241/241/241
f 246/246/246 245/245/245 244/244/244
f 249/249/249 248/248/248 247/247/247
f 252/252/252 251/251/251 250/250/250
f 255/255/255 254/254/254 253/253/253
f 258/258/258 257/257/257 256/256/256
f 261/261/261 260/260/260 259/259/259
f 264/264/264 263/263/263 262/262/262
f 267/267/267 266/266/266 265/265/265
f 270/270/270 269/269/269 268/268/268
f 273/273/273 272/272/272 271/271/271
f 276/276/276 275/275/275 274/274/274
f 279/279/279 278/278/278 277/277/277
f 282/282/282 281/281/281 280/280/280
f 285/285/285 284/284/284 283/283/283
f 288/288/288 287/287/287 286/286/286
f 291/291/291 290/290/290 289/289/289
f 290/290/290 292/292/292 289/289/289
f 289/289/289 292/292/292 293/293/293
f 292/292/292 294/294/294 293/293/293
f 294/294/294 295/295/295 293/293/293
f 296/296/296 295/295/295 294/294/294
f 297/297/297 296/296/296 294/294/294
f 296/296/296 298/298/298 295/295/295
f 298/298/298 299/299/299 295/295/295
f 295/295/295 299/299/299 293/293/293
f 299/299/299 300/300/300 293/293/293
f 300/300/300 301/301/301 293/293/293
f 304/304/304 303/303/303 302/302/302
f 303/303/303 305/305/305 302/302/302
f 302/302/302 305/305/305 306/306/306
f 303/303/303 307/307/307 305/305/305
f 305/305/305 308/308/308 306/306/306
f 307/307/307 309/309/309 305/305/305
f 305/305/305 309/309/309 308/308/308
f 307/307/307 310/310/310 309/309/309
f 310/310/310 311/311/311 309/309/309
f 309/309/309 312/312/312 308/308/308
f 309/309/309 311/311/311 312/312/312
f 311/311/311 313/313/313 312/312/312
f 308/308/308 312/312/312 314/314/314
f 312/312/312 315/315/315 314/314/314
f 318/318/318 317/317/317 316/316/316
f 317/317/317 319/319/319 316/316/316
f 316/316/316 319/319/319 320/320/320
f 317/317/317 321/321/321 319/319/319
f 319/319/319 322/322/322 320/320/320
f 321/321/321 323/323/323 319/319/319
f 319/319/319 323/323/323 322/322/322
f 321/321/321 324/324/324 323/323/323
f 324/324/324 325/325/325 323/323/323
f 323/323/323 326/326/326 322/322/322
f 323/323/323 325/325/325 326/326/326
f 322/322/322 326/326/326 327/327/327
f 325/325/325 328/328/328 326/326/326
f 326/326/326 329/329/329 327/327/327
f 326/326/326 328/328/328 329/329/329
f 328/328/328 330/330/330 329/329/329
f 333/333/333 332/332/332 331/331/331
f 334/334/334 333/333/333 331/331/331
f 334/334/334 331/331/331 335/335/335
f 334/334/334 336/336/336 333/333/333
f 336/336/336 337/337/337 333/333/333
f 338/338/338 336/336/336 334/334/334
f 339/339/339 334/334/334 335/335/335
f 339/339/339 338/338/338 334/334/334
f 339/339/339 335/335/335 340/340/340
f 341/341/341 338/338/338 339/339/339
f 342/342/342 339/339/339 340/340/340
f 342/342/342 341/341/341 339/339/339
f 342/342/342 340/340/340 343/343/343
f 344/344/344 341/341/341 342/342/342
f 345/345/345 342/342/342 343/343/343
f 345/345/345 344/344/344 342/342/342
f 345/345/345 343/343/343 346/346/346
f 347/347/347 344/344/344 345/345/345
f 348/348/348 345/345/345 346/346/346
f 348/348/348 347/347/347 345/345/345
f 348/348/348 346/346/346 349/349/349
f 350/350/350 347/347/347 348/348/348
f 351/351/351 348/348/348 349/349/349
f 351/351/351 350/350/350 348/348/348
f 354/354/354 353/353/353 352/352/352
f 353/353/353 355/355/355 352/352/352
f 352/352/352 355/355/355 356/356/356
f 355/355/355 357/357/357 356/356/356
f 356/356/356 357/357/357 358/358/358
f 357/357/357 359/359/359 358/358/358
f 362/362/362 361/361/361 360/360/360
f 361/361/361 363/363/363 360/360/360
f 360/360/360 363/363/363 364/364/364
f 363/363/363 365/365/365 364/364/364
f 364/364/364 365/365/365 366/366/366
f 365/365/365 367/367/367 366/366/366
f 370/370/370 369/369/369 368/368/368
f 369/369/369 371/371/371 368/368/368
f 368/368/368 371/371/371 372/372/372
f 371/371/371 373/373/373 372/372/372
f 372/372/372 373/373/373 374/374/374
f 373/373/373 375/375/375 374/374/374
f 374/374/374 375/375/375 376/376/376
f 375/375/375 377/377/377 376/376/376
f 376/376/376 377/377/377 378/378/378
f 377/377/377 379/379/379 378/378/378
f 378/378/378 379/379/379 380/380/380
f 379/379/379 381/381/381 380/380/380
f 384/384/384 383/383/383 382/382/382
f 385/385/385 384/384/384 382/382/382
f 388/388/388 387/387/387 386/386/386
f 389/389/389 388/388/388 386/386/386
f 390/390/390 388/388/388 389/389/389
f 391/391/391 390/390/390 389/389/389
f 392/392/392 390/390/390 391/391/391
f 393/393/393 392/392/392 391/391/391
f 394/394/394 392/392/392 393/393/393
f 395/395/395 394/394/394 393/393/393
f 398/398/398 397/397/397 396/396/396
f 399/399/399 398/398/398 396/396/396
f 402/402/402 401/401/401 400/400/400
f 401/401/401 403/403/403 400/400/400
f 400/400/400 403/403/403 404/404/404
f 403/403/403 405/405/405 404/404/404
f 408/408/408 407/407/407 406/406/406
f 407/407/407 409/409/409 406/406/406
f 407/407/407 410/410/410 409/409/409
f 410/410/410 411/411/411 409/409/409
f 409/409/409 411/411/411 412/412/412
f 411/411/411 413/413/413 412/412/412
f 416/416/416 415/415/415 414/414/414
f 415/415/415 417/417/417 414/414/414
f 414/414/414 417/417/417 418/418/418
f 417/417/417 419/419/419 418/418/418
f 422/422/422 421/421/421 420/420/420
f 423/423/423 422/422/422 420/420/420
f 424/424/424 423/423/423 420/420/420
f 425/425/425 424/424/424 420/420/420
f 428/428/428 427/427/427 426/426/426
f 429/429/429 428/428/428 426/426/426
f 432/432/432 431/431/431 430/430/430
f 433/433/433 432/432/432 430/430/430
f 433/433/433 434/434/434 432/432/432
f 434/434/434 435/435/435 432/432/432
f 434/434/434 436/436/436 435/435/435
f 436/436/436 437/437/437 435/435/435
f 440/440/440 439/439/439 438/438/438
f 441/441/441 440/440/440 438/438/438
f 441/441/441 442/442/442 440/440/440
f 442/442/442 443/443/443 440/440/440
f 446/446/446 445/445/445 444/444/444
f 447/447/447 446/446/446 444/444/444
f 447/447/447 448/448/448 446/446/446
f 448/448/448 449/449/449 446/446/446
f 448/448/448 450/450/450 449/449/449
f 450/450/450 451/451/451 449/449/449
f 452/452/452 450/450/450 448/448/448
f 453/453/453 452/452/452 448/448/448
f 456/456/456 455/455/455 454/454/454
f 455/455/455 457/457/457 454/454/454
f 455/455/455 458/458/458 457/457/457
f 458/458/458 459/459/459 457/457/457
f 462/462/462 461/461/461 460/460/460
f 460/460/460 463/463/463 462/462/462
f 463/463/463 464/464/464 462/462/462
f 467/467/467 466/466/466 465/465/465
f 466/466/466 468/468/468 465/465/465
f 468/468/468 466/466/466 469/469/469
f 468/468/468 469/469/469 470/470/470
f 470/470/470 471/471/471 468/468/468
f 474/474/474 473/473/473 472/472/472
f 473/473/473 475/475/475 472/472/472
f 472/472/472 475/475/475 476/476/476
f 475/475/475 477/477/477 476/476/476
f 473/473/473 478/478/478 475/475/475
f 478/478/478 479/479/479 475/475/475
f 482/482/482 481/481/481 480/480/480
f 480/480/480 483/483/483 482/482/482
f 483/483/483 484/484/484 482/482/482
f 483/483/483 485/485/485 484/484/484
f 485/485/485 486/486/486 484/484/484
f 489/489/489 488/488/488 487/487/487
f 490/490/490 489/489/489 487/487/487
f 490/490/490 487/487/487 491/491/491
f 492/492/492 490/490/490 491/491/491
f 493/493/493 492/492/492 491/491/491
f 493/493/493 494/494/494 492/492/492
f 494/494/494 495/495/495 492/492/492
f 496/496/496 494/494/494 493/493/493
f 497/497/497 496/496/496 493/493/493
f 497/497/497 493/493/493 491/491/491
f 498/498/498 497/497/497 491/491/491
f 499/499/499 498/498/498 491/491/491
f 502/502/502 501/501/501 500/500/500
f 503/503/503 502/502/502 500/500/500
f 503/503/503 500/500/500 504/504/504
f 505/505/505 502/502/502 503/503/503
f 506/506/506 503/503/503 504/504/504
f 507/507/507 505/505/505 503/503/503
f 507/507/507 503/503/503 506/506/506
f 508/508/508 505/505/505 507/507/507
f 509/509/509 508/508/508 507/507/507
f 510/510/510 507/507/507 506/506/506
f 509/509/509 507/507/507 510/510/510
f 511/511/511 509/509/509 510/510/510
f 510/510/510 506/506/506 512/512/512
f 513/513/513 510/510/510 512/512/512
f 516/516/516 515/515/515 514/514/514
f 517/517/517 516/516/516 514/514/514
f 517/517/517 514/514/514 518/518/518
f 519/519/519 516/516/516 517/517/517
f 520/520/520 517/517/517 518/518/518
f 521/521/521 519/519/519 517/517/517
f 521/521/521 517/517/517 520/520/520
f 522/522/522 519/519/519 521/521/521
f 523/523/523 522/522/522 521/521/521
f 524/524/524 521/521/521 520/520/520
f 523/523/523 521/521/521 524/524/524
f 524/524/524 520/520/520 525/525/525
f 526/526/526 523/523/523 524/524/524
f 527/527/527 524/524/524 525/525/525
f 526/526/526 524/524/524 527/527/527
f 528/528/528 526/526/526 527/527/527
f 531/531/531 530/530/530 529/529/529
f 530/530/530 532/532/532 529/529/529
f 529/529/529 532/532/532 533/533/533
f 534/534/534 532/532/532 530/530/530
f 535/535/535 534/534/534 530/530/530
f 534/534/534 536/536/536 532/532/532
f 532/532/532 537/537/537 533/533/533
f 536/536/536 537/537/537 532/532/532
f 533/533/533 537/537/537 538/538/538
f 536/536/536 539/539/539 537/537/537
f 537/537/537 540/540/540 538/538/538
f 539/539/539 540/540/540 537/537/537
f 538/538/538 540/540/540 541/541/541
f 539/539/539 542/542/542 540/540/540
f 540/540/540 543/543/543 541/541/541
f 542/542/542 543/543/543 540/540/540
f 541/541/541 543/543/543 544/544/544
f 542/542/542 545/545/545 543/543/543
f 543/543/543 546/546/546 544/544/544
f 545/545/545 546/546/546 543/543/543
f 544/544/544 546/546/546 547/547/547
f 545/545/545 548/548/548 546/546/546
f 546/546/546 549/549/549 547/547/547
f 548/548/548 549/549/549 546/546/546
f 552/552/552 551/551/551 550/550/550
f 553/553/553 552/552/552 550/550/550
f 553/553/553 550/550/550 554/554/554
f 555/555/555 553/553/553 554/554/554
f 555/555/555 554/554/554 556/556/556
f 557/557/557 555/555/555 556/556/556
f 560/560/560 559/559/559 558/558/558
f 561/561/561 560/560/560 558/558/558
f 561/561/561 558/558/558 562/562/562
f 563/563/563 561/561/561 562/562/562
f 563/563/563 562/562/562 564/564/564
f 565/565/565 563/563/563 564/564/564
f 568/568/568 567/567/567 566/566/566
f 569/569/569 568/568/568 566/566/566
f 569/569/569 566/566/566 570/570/570
f 571/571/571 569/569/569 570/570/570
f 571/571/571 570/570/570 572/572/572
f 573/573/573 571/571/571 572/572/572
f 573/573/573 572/572/572 574/574/574
f 575/575/575 573/573/573 574/574/574
f 575/575/575 574/574/574 576/576/576
f 577/577/577 575/575/575 576/576/576
f 577/577/577 576/576/576 578/578/578
f 579/579/579 577/577/577 578/578/578
f 582/582/582 581/581/581 580/580/580
f 583/583/583 582/582/582 580/580/580
f 586/586/586 585/585/585 584/584/584
f 585/585/585 587/587/587 584/584/584
f 585/585/585 588/588/588 587/587/587
f 588/588/588 589/589/589 587/587/587
f 588/588/588 590/590/590 589/589/589
f 590/590/590 591/591/591 589/589/589
f 590/590/590 592/592/592 591/591/591
f 592/592/592 593/593/593 591/591/591
f 596/596/596 595/595/595 594/594/594
f 597/597/597 596/596/596 594/594/594
f 600/600/600 599/599/599 598/598/598
f 601/601/601 600/600/600 598/598/598
f 601/601/601 598/598/598 602/602/602
f 603/603/603 601/601/601 602/602/602
f 606/606/606 605/605/605 604/604/604
f 607/607/607 606/606/606 604/604/604
f 608/608/608 606/606/606 607/607/607
f 609/609/609 608/608/608 607/607/607
f 609/609/609 607/607/607 610/610/610
f 611/611/611 609/609/609 610/610/610
f 614/614/614 613/613/613 612/612/612
f 615/615/615 614/614/614 612/612/612
f 615/615/615 612/612/612 616/616/616
f 617/617/617 615/615/615 616/616/616
f 620/620/620 619/619/619 618/618/618
f 619/619/619 621/621/621 618/618/618
f 621/621/621 622/622/622 618/618/618
f 622/622/622 623/623/623 618/618/618
f 626/626/626 625/625/625 624/624/624
f 627/627/627 626/626/626 624/624/624
f 630/630/630 629/629/629 628/628/628
f 629/629/629 631/631/631 628/628/628
f 632/632/632 631/631/631 629/629/629
f 633/633/633 632/632/632 629/629/629
f 634/634/634 632/632/632 633/633/633
f 635/635/635 634/634/634 633/633/633
f 638/638/638 637/637/637 636/636/636
f 637/637/637 639/639/639 636/636/636
f 640/640/640 639/639/639 637/637/637
f 641/641/641 640/640/640 637/637/637
f 644/644/644 643/643/643 642/642/642
f 643/643/643 645/645/645 642/642/642
f 646/646/646 645/645/645 643/643/643
f 647/647/647 646/646/646 643/643/643
f 648/648/648 646/646/646 647/647/647
f 649/649/649 648/648/648 647/647/647
f 648/648/648 650/650/650 646/646/646
f 650/650/650 651/651/651 646/646/646
f 654/654/654 653/653/653 652/652/652
f 655/655/655 654/654/654 652/652/652
f 656/656/656 654/654/654 655/655/655
f 657/657/657 656/656/656 655/655/655
f 660/660/660 659/659/659 658/658/658
f 658/658/658 661/661/661 660/660/660
f 658/658/658 662/662/662 661/661/661
f 665/665/665 664/664/664 663/663/663
f 666/666/666 665/665/665 663/663/663
f 667/667/667 665/665/665 666/666/666
f 666/666/666 668/668/668 667/667/667
f 666/666/666 669/669/669 668/668/668
f 672/672/672 671/671/671 670/670/670
f 673/673/673 672/672/672 670/670/670
f 673/673/673 670/670/670 674/674/674
f 675/675/675 673/673/673 674/674/674
f 676/676/676 672/672/672 673/673/673
f 677/677/677 676/676/676 673/673/673
f 680/680/680 679/679/679 678/678/678
f 678/678/678 681/681/681 680/680/680
f 678/678/678 682/682/682 681/681/681
f 682/682/682 683/683/683 681/681/681
f 682/682/682 684/684/684 683/683/683
