g 0.6000
v -1.0251192 -0.025551211 5.1061487
v -1.1624424 -0.7934058 4.555356
v -1.3166794 -0.011001867 4.685165
v -0.94368136 -1.1913642 3.6006176
v -1.1582743 -0.42125124 3.085483
v -0.73854184 -0.7864937 2.5133562
v -0.8506321 0.07418931 1.7522256
v -1.3166794 -0.011001867 4.685165
v -0.9711988 0.8985139 4.871782
v -1.0251192 -0.025551211 5.1061487
v -0.9844873 1.1013145 4.3556566
v -1.1582743 -0.42125124 3.085483
v -0.8437934 0.7669493 2.969603
v -0.8506321 0.07418931 1.7522256
v -0.8506321 0.07418931 1.7522256
v -0.6563494 0.8285276 2.0514374
v -0.48920298 1.2573003 4.8744016
v 0.18803851 1.6007112 4.316596
v 0.9701332 0.74047744 4.4825716
v 0.3671888 -0.21096832 4.809601
v -0.48920298 1.2573003 4.8744016
v 0.9701332 0.74047744 4.4825716
v 0.8358162 -0.97684056 4.2273254
v -0.07757568 -1.2039378 4.732341
v 0.115980715 -1.55205 4.290562
v -1.0251192 -0.025551211 5.1061487
v -0.48920298 1.2573003 4.8744016
v -0.5230221 -1.509365 4.635822
v 0.115980715 -1.55205 4.290562
v -0.5230221 -1.509365 4.635822
v 0.18803851 1.6007112 4.316596
v 1.0213497 1.0147603 3.890577
v 0.9701332 0.74047744 4.4825716
v 0.4990405 1.5103095 3.6253793
v 0.18803851 1.6007112 4.316596
v 1.0213497 1.0147603 3.890577
v 1.1482679 -0.27527875 3.7409248
v 0.9701332 0.74047744 4.4825716
v 1.1620135 -0.18457225 2.7505612
v 0.72769606 -1.3203326 3.697023
v 1.0213497 1.0147603 3.890577
v 0.72769606 -1.3203326 3.697023
v 0.8358162 -0.97684056 4.2273254
v 0.9701332 0.74047744 4.4825716
v 1.1482679 -0.27527875 3.7409248
v 0.72769606 -1.3203326 3.697023
v 0.115980715 -1.55205 4.290562
v 1.0526932 0.48252988 2.8089652
v 1.1620135 -0.18457225 2.7505612
v 0.7362206 -0.7763046 2.120905
v 0.72769606 -1.3203326 3.697023
v 0.7608514 0.045459326 1.8971446
v 0.7372543 -0.52093995 1.7749774
v 0.38405806 -0.9574183 1.8663731
v 0.11150055 -1.180754 2.6380754
v 0.7608514 0.045459326 1.8971446
v 0.7362206 -0.7763046 2.120905
v 1.0526932 0.48252988 2.8089652
v 0.59673625 0.78670174 1.9785416
v 0.7372543 -0.52093995 1.7749774
v 0.38405806 -0.9574183 1.8663731
v -0.24340561 1.0952673 1.9372615
v -0.8506321 0.07418931 1.7522256
v 0.29602852 1.0484645 1.9039946
v 0.08512588 0.017726231 1.5628781
v 0.29602852 1.0484645 1.9039946
v -0.68405634 -0.6736087 1.8633876
v 0.08512588 0.017726231 1.5628781
v 0.38405806 -0.9574183 1.8663731
v -0.30832708 -0.9258222 1.9471172
v 0.7372543 -0.52093995 1.7749774
v 0.59673625 0.78670174 1.9785416
v 0.29602852 1.0484645 1.9039946
v 0.7608514 0.045459326 1.8971446
v 0.29602852 1.0484645 1.9039946
v 0.08512588 0.017726231 1.5628781
v 0.7372543 -0.52093995 1.7749774
v -0.30832708 -0.9258222 1.9471172
v -0.68405634 -0.6736087 1.8633876
v -0.73854184 -0.7864937 2.5133562
v 0.72769606 -1.3203326 3.697023
v 0.7362206 -0.7763046 2.120905
v 0.11150055 -1.180754 2.6380754
v 0.28598428 1.2712449 3.0097418
v 0.59673625 0.78670174 1.9785416
v 1.0213497 1.0147603 3.890577
v -0.24340561 1.0952673 1.9372615
v 0.29602852 1.0484645 1.9039946
v 0.28598428 1.2712449 3.0097418
v -0.8437934 0.7669493 2.969603
v -0.8437934 0.7669493 2.969603
v -0.3324742 1.5985582 3.977714
v 0.18803851 1.6007112 4.316596
v -0.48920298 1.2573003 4.8744016
v 1.0213497 1.0147603 3.890577
v 0.4990405 1.5103095 3.6253793
v 0.59673625 0.78670174 1.9785416
v 1.0526932 0.48252988 2.8089652
v 0.29602852 1.0484645 1.9039946
v 0.4990405 1.5103095 3.6253793
v -0.3324742 1.5985582 3.977714
v 0.18803851 1.6007112 4.316596
v 0.08543138 -0.62497586 0.06338069
v 0.017284125 -0.9448386 0.079665735
v 0.15114933 -1.1485912 0.17570294
v -0.1488229 -0.54942834 1.9720786
v 0.109731495 -0.5619705 1.8425997
v 0.09695315 -0.8602894 1.853517
v 0.68786407 -0.7606458 0.49891323
v 0.481532 -0.3960344 0.28934544
v 0.5394581 -1.1335399 0.41521516
v 0.481532 -0.3960344 0.28934544
v 0.15114933 -1.1485912 0.17570294
v 0.08543138 -0.62497586 0.06338069
v -0.27694502 -1.2408801 1.057407
v 0.07674746 -1.1616424 1.1010028
v 0.1967567 -1.0477555 0.89847773
v 0.069962636 -0.48629212 1.1074576
v 0.20979393 -0.6133198 0.900759
v 0.19594488 -0.8109085 1.1337496
v 0.07674746 -1.1616424 1.1010028
v 0.19594488 -0.8109085 1.1337496
v 0.1967567 -1.0477555 0.89847773
v -0.2684639 -1.0286282 0.7226708
v 0.1967567 -1.0477555 0.89847773
v 0.5394581 -1.1335399 0.41521516
v -0.2684639 -1.0286282 0.7226708
v -0.27694502 -1.2408801 1.057407
v -0.33165562 -1.0622873 1.3057548
v -0.01244992 -0.9351516 1.3117598
v 0.07674746 -1.1616424 1.1010028
v 0.5394581 -1.1335399 0.41521516
v 0.1967567 -1.0477555 0.89847773
v 0.68786407 -0.7606458 0.49891323
v 0.20979393 -0.6133198 0.900759
v 0.1967567 -1.0477555 0.89847773
v 0.20979393 -0.6133198 0.900759
v 0.481532 -0.3960344 0.28934544
v 0.68786407 -0.7606458 0.49891323
v 0.069962636 -0.48629212 1.1074576
v 0.19594488 -0.8109085 1.1337496
v -0.01244992 -0.9351516 1.3117598
v 0.069962636 -0.48629212 1.1074576
v -0.095287025 -0.5745508 1.2202485
v -0.01244992 -0.9351516 1.3117598
v 0.19594488 -0.8109085 1.1337496
v 0.07674746 -1.1616424 1.1010028
v -0.14202394 0.24021828 1.7533475
v -0.44159085 0.49985427 1.56696
v -0.28740436 0.8373979 2.0614696
v -0.28740436 0.8373979 2.0614696
v -0.27529693 1.0036758 1.8662496
v 0.02812028 1.033401 2.0901332
v -0.44159085 0.49985427 1.56696
v -0.28740436 0.8373979 2.0614696
v -0.44159085 0.49985427 1.56696
v -0.2623532 0.8338942 1.2939432
v -0.27529693 1.0036758 1.8662496
v 0.14593492 1.0275007 1.2711439
v 0.02812028 1.033401 2.0901332
v -0.2623532 0.8338942 1.2939432
v 0.14593492 1.0275007 1.2711439
v -0.34728116 1.0067238 0.992908
v 0.14593492 1.0275007 1.2711439
v 0.28438553 1.2232635 0.99853915
v 0.28438553 1.2232635 0.99853915
v -0.13388193 1.0531113 0.6606863
v -0.22477531 1.0979768 0.03291659
v 0.23764989 1.1176726 0.65541935
v 0.28438553 1.2232635 0.99853915
v -0.22477531 1.0979768 0.03291659
v 0.27334705 1.1375387 -0.0073406696
v 0.28438553 1.2232635 0.99853915
v 0.5597196 0.8110744 0.9682669
v 0.4487015 0.8008349 0.6378408
v 0.30401158 0.9970585 1.8575174
v 0.30057657 0.51460737 1.3339527
v 0.20218563 0.5461921 2.0221086
v -0.14202394 0.24021828 1.7533475
v 0.20218563 0.5461921 2.0221086
v 0.30401158 0.9970585 1.8575174
v 0.14593492 1.0275007 1.2711439
v 0.34500518 0.656948 1.2555704
v 0.34500518 0.656948 1.2555704
v 0.36549938 0.41029456 1.0101011
v 0.5597196 0.8110744 0.9682669
v 0.5597196 0.8110744 0.9682669
v 0.29489872 0.4352648 0.5743637
v 0.29489872 0.4352648 0.5743637
v 0.4487015 0.8008349 0.6378408
v 0.51929474 0.58148956 0.06974798
v 0.02812028 1.033401 2.0901332
v 0.20218563 0.5461921 2.0221086
v -0.28740436 0.8373979 2.0614696
v 0.51929474 0.58148956 0.06974798
v 0.27334705 1.1375387 -0.0073406696
v 0.17402661 0.27264476 -0.0028488636
v -0.3720025 0.74290925 -0.029488266
v -0.29780075 0.43093902 -0.046894997
v -0.3720025 0.74290925 -0.029488266
v 0.27334705 1.1375387 -0.0073406696
v -0.22477531 1.0979768 0.03291659
v 0.27334705 1.1375387 -0.0073406696
v -0.34728116 1.0067238 0.992908
v -0.35660416 0.43712804 1.024026
v -0.28239548 0.78578705 0.6769102
v -0.2623532 0.8338942 1.2939432
v -0.35660416 0.43712804 1.024026
v -0.44159085 0.49985427 1.56696
v -0.23112206 0.4219618 1.2784892
v -0.28239548 0.78578705 0.6769102
v -0.13388193 1.0531113 0.6606863
v -0.28239548 0.78578705 0.6769102
v -0.22477531 1.0979768 0.03291659
v 0.17402661 0.27264476 -0.0028488636
v 0.29489872 0.4352648 0.5743637
v 0.51929474 0.58148956 0.06974798
v -0.28239548 0.78578705 0.6769102
v -0.3720025 0.74290925 -0.029488266
v -0.22477531 1.0979768 0.03291659
v -0.053770974 0.4429347 0.707771
v -0.29780075 0.43093902 -0.046894997
v -0.3720025 0.74290925 -0.029488266
v -0.24051768 -1.652462 3.5058222
v -0.09045723 -1.7951908 2.411857
v -0.44561636 -1.310451 3.3442326
v 0.07588959 -0.9463376 3.5207803
v 0.4530226 -1.4838309 2.6844997
v 0.27123678 -1.3252077 3.566401
v 0.0063194633 -1.1591735 3.7809505
v 0.07154465 -1.5039802 3.6830902
v -0.32358122 -1.3107803 3.7148254
v 0.07588959 -0.9463376 3.5207803
v 0.27123678 -1.3252077 3.566401
v 0.0063194633 -1.1591735 3.7809505
v -0.32358122 -1.3107803 3.7148254
v 0.07154465 -1.5039802 3.6830902
v -0.24051768 -1.652462 3.5058222
v 0.6993453 -2.0140946 0.08641708
v 0.64882636 -1.6190362 0.18818605
v 0.45018333 -1.5262542 0.023542225
v 0.4430011 -2.3260539 0.2598781
v 0.6993453 -2.0140946 0.08641708
v -0.12654424 -1.5191419 0.16863751
v -0.369565 -1.8660228 0.16138625
v -0.44466716 -2.3123436 0.21704817
v -0.369565 -1.8660228 0.16138625
v 0.4430011 -2.3260539 0.2598781
v -0.06143734 -2.5280647 0.29430735
v 0.4530226 -1.4838309 2.6844997
v 0.97539294 -2.0064692 2.138366
v 0.4393744 -1.9402277 2.5462499
v 0.6810112 -2.323923 2.148404
v 0.066900074 -2.321175 2.0612118
v 0.4393744 -1.9402277 2.5462499
v 0.97539294 -2.0064692 2.138366
v -0.04743582 -1.8759686 1.5718818
v 0.13570586 -2.1858788 1.622586
v -0.44466716 -2.3123436 0.21704817
v 0.5395847 -1.6698565 1.1823137
v 0.64882636 -1.6190362 0.18818605
v 0.5763528 -2.208909 0.63617444
v 0.5763528 -2.208909 0.63617444
v 0.66347885 -1.9803069 1.745254
v 0.64882636 -1.6190362 0.18818605
v 0.6993453 -2.0140946 0.08641708
v 0.7859821 -1.4038498 1.8599739
v 0.66347885 -1.9803069 1.745254
v 0.97539294 -2.0064692 2.138366
v 0.4530226 -1.4838309 2.6844997
v 0.90877396 -1.5506449 2.161557
v 0.7859821 -1.4038498 1.8599739
v 0.90877396 -1.5506449 2.161557
v 0.25174138 -1.5498469 1.1260381
v -0.12654424 -1.5191419 0.16863751
v 0.45018333 -1.5262542 0.023542225
v 0.11440173 -1.2882192 1.8551924
v 0.29771492 -1.2219691 1.9295518
v 0.29771492 -1.2219691 1.9295518
v 0.7269219 -1.2782247 1.9163911
v 0.0020630658 -1.2618876 2.6167793
v -0.00076270103 -1.5360099 1.651566
v -0.19705546 -1.8127131 0.6921582
v 0.25174138 -1.5498469 1.1260381
v 0.6810112 -2.323923 2.148404
v 0.97539294 -2.0064692 2.138366
v 0.66347885 -1.9803069 1.745254
v 0.49020046 -2.1702137 1.6895478
v 0.5763528 -2.208909 0.63617444
v 0.6810112 -2.323923 2.148404
v 0.66347885 -1.9803069 1.745254
v 0.6993453 -2.0140946 0.08641708
v 0.4430011 -2.3260539 0.2598781
v -0.25742733 -1.9047956 1.9531317
v 0.066900074 -2.321175 2.0612118
v 0.13570586 -2.1858788 1.622586
v 0.13570586 -2.1858788 1.622586
v -0.04743582 -1.8759686 1.5718818
v 0.066900074 -2.321175 2.0612118
v 0.6810112 -2.323923 2.148404
v 0.49020046 -2.1702137 1.6895478
v 0.13570586 -2.1858788 1.622586
v -0.06143734 -2.5280647 0.29430735
v 0.066900074 -2.321175 2.0612118
v 0.4393744 -1.9402277 2.5462499
v 0.072783485 -1.9942151 2.3436763
v -0.09045723 -1.7951908 2.411857
v -0.25742733 -1.9047956 1.9531317
v 0.072783485 -1.9942151 2.3436763
v 0.066900074 -2.321175 2.0612118
v 0.4530226 -1.4838309 2.6844997
v 0.0020630658 -1.2618876 2.6167793
v 0.7269219 -1.2782247 1.9163911
v 0.25174138 -1.5498469 1.1260381
v 0.5395847 -1.6698565 1.1823137
v 0.64882636 -1.6190362 0.18818605
v 0.5395847 -1.6698565 1.1823137
v 0.45018333 -1.5262542 0.023542225
v 0.06929451 1.0740688 3.5689354
v -0.3104478 1.371155 3.160195
v -0.25720507 1.1930962 3.6667812
v -0.26523197 1.6893544 3.3539011
v 0.10255781 1.7173252 3.5179236
v -0.17635238 1.5148447 3.7868133
v 0.12694097 1.3014989 3.8037395
v -0.25720507 1.1930962 3.6667812
v -0.17635238 1.5148447 3.7868133
v -0.4540915 2.6942892 0.48094994
v -0.80919135 2.2972863 0.14146191
v -0.11744407 2.411939 -0.03931421
v -0.83643734 2.4234934 0.5027818
v -0.80919135 2.2972863 0.14146191
v -0.4540915 2.6942892 0.48094994
v -0.09871453 1.4417574 1.5154951
v 0.41659307 1.3347373 1.852091
v 0.195092 1.5249236 1.4524009
v -0.35349855 1.6539559 1.6836988
v -0.008169845 1.1754351 1.7928879
v 0.41659307 1.3347373 1.852091
v 0.45886308 1.9329166 1.4919381
v 0.22103322 2.3592503 0.5678265
v 0.28047055 2.090352 0.8384965
v 0.28047055 2.090352 0.8384965
v 0.14031881 1.9358332 -0.01561892
v 0.06344187 2.5554106 0.2313196
v 0.14031881 1.9358332 -0.01561892
v -0.20563084 2.1964464 2.0403538
v -0.35349855 1.6539559 1.6836988
v -0.25911462 2.1492288 1.3784746
v -0.68405104 1.8205047 0.88857186
v -0.83643734 2.4234934 0.5027818
v -0.83643734 2.4234934 0.5027818
v -0.9958469 1.9741454 0.32620496
v -0.81173736 1.607449 0.106377244
v -0.80919135 2.2972863 0.14146191
v 0.28047055 2.090352 0.8384965
v 0.14031881 1.9358332 -0.01561892
v -0.06801613 1.5990899 0.34484628
v 0.14031881 1.9358332 -0.01561892
v -0.44854668 1.4698148 0.0395298
v 0.45886308 1.9329166 1.4919381
v 0.28047055 2.090352 0.8384965
v 0.195092 1.5249236 1.4524009
v 0.45886308 1.9329166 1.4919381
v 0.41659307 1.3347373 1.852091
v 0.44593126 1.6096148 2.155205
v 0.7123232 1.7957903 1.9427273
v 0.7123232 1.7957903 1.9427273
v 0.45886308 1.9329166 1.4919381
v 0.14031881 1.9358332 -0.01561892
v 0.06344187 2.5554106 0.2313196
v -0.11744407 2.411939 -0.03931421
v -0.20563084 2.1964464 2.0403538
v -0.24386944 1.835537 2.3207414
v -0.46257228 1.6931319 1.9270688
v -0.35349855 1.6539559 1.6836988
v -0.20563084 2.1964464 2.0403538
v -0.045211583 1.2617671 2.1324115
v 0.41659307 1.3347373 1.852091
v -0.008169845 1.1754351 1.7928879
v 0.46280193 2.2530808 2.1023011
v -0.0069592446 1.9538078 2.4435828
v -0.20563084 2.1964464 2.0403538
v 0.29951942 1.9120967 2.4417038
v 0.46280193 2.2530808 2.1023011
v -0.24386944 1.835537 2.3207414
v -0.20563084 2.1964464 2.0403538
v -0.25911462 2.1492288 1.3784746
v -0.4540915 2.6942892 0.48094994
v 0.04128383 2.399806 1.0925257
v -0.25911462 2.1492288 1.3784746
v -0.83643734 2.4234934 0.5027818
v -0.4540915 2.6942892 0.48094994
v 0.46280193 2.2530808 2.1023011
v 0.45886308 1.9329166 1.4919381
v 0.7123232 1.7957903 1.9427273
v 0.46280193 2.2530808 2.1023011
v 0.030208245 2.1999993 1.7070072
v 0.45886308 1.9329166 1.4919381
v -0.26523197 1.6893544 3.3539011
v -0.0069592446 1.9538078 2.4435828
v 0.10255781 1.7173252 3.5179236
v -0.17533994 1.3745501 2.085717
v -0.24386944 1.835537 2.3207414
v -0.3104478 1.371155 3.160195
v -0.3104478 1.371155 3.160195
v -0.26523197 1.6893544 3.3539011
v -0.25720507 1.1930962 3.6667812
v -0.17635238 1.5148447 3.7868133
v -0.24386944 1.835537 2.3207414
v -0.0069592446 1.9538078 2.4435828
v 0.06929451 1.0740688 3.5689354
v -0.045211583 1.2617671 2.1324115
v -0.3104478 1.371155 3.160195
v -0.045211583 1.2617671 2.1324115
v -0.17533994 1.3745501 2.085717
v -0.008169845 1.1754351 1.7928879
v 0.06929451 1.0740688 3.5689354
v 0.26663032 1.3488007 2.3675454
v -0.045211583 1.2617671 2.1324115
v 0.12694097 1.3014989 3.8037395
v 0.30187082 1.2676888 3.6416593
v 0.09695315 -0.8602894 1.853517
v -0.01244992 -0.9351516 1.3117598
v -0.36210424 -0.9563667 1.7508515
v -0.5230221 -1.509365 4.635822
v -1.1624424 -0.7934058 4.555356
v -1.0251192 -0.025551211 5.1061487
v -0.9711988 0.8985139 4.871782
v -0.48920298 1.2573003 4.8744016
v -1.0251192 -0.025551211 5.1061487
v -0.5230221 -1.509365 4.635822
v -0.94368136 -1.1913642 3.6006176
v -1.1624424 -0.7934058 4.555356
v -0.5230221 -1.509365 4.635822
v -0.40754116 -1.3084906 3.1072435
v -0.40754116 -1.3084906 3.1072435
v -0.73854184 -0.7864937 2.5133562
v -0.30832708 -0.9258222 1.9471172
v -0.40754116 -1.3084906 3.1072435
v 0.115980715 -1.55205 4.290562
v 0.11150055 -1.180754 2.6380754
v -0.30832708 -0.9258222 1.9471172
v 0.11150055 -1.180754 2.6380754
v 0.38405806 -0.9574183 1.8663731
v -0.68405634 -0.6736087 1.8633876
v -0.8506321 0.07418931 1.7522256
v -0.73854184 -0.7864937 2.5133562
v 0.72769606 -1.3203326 3.697023
v 0.11150055 -1.180754 2.6380754
v 0.115980715 -1.55205 4.290562
v -0.36210424 -0.9563667 1.7508515
v -0.20159125 -0.80655533 1.9665962
v 0.09695315 -0.8602894 1.853517
v -0.1488229 -0.54942834 1.9720786
v 0.09695315 -0.8602894 1.853517
v -0.20159125 -0.80655533 1.9665962
v 0.20979393 -0.6133198 0.900759
v 0.1967567 -1.0477555 0.89847773
v 0.19594488 -0.8109085 1.1337496
v -0.2684639 -1.0286282 0.7226708
v -0.14806387 -0.5865344 0.6538693
v -0.68295705 -0.85066783 1.0316951
v -0.4234708 -0.37092477 1.0740967
v -0.14806387 -0.5865344 0.6538693
v -0.555174 -0.78789616 1.3989984
v -0.43291795 -0.56628287 1.3529332
v -0.1488229 -0.54942834 1.9720786
v 0.08543138 -0.62497586 0.06338069
v 0.481532 -0.3960344 0.28934544
v -0.14806387 -0.5865344 0.6538693
v -0.14806387 -0.5865344 0.6538693
v 0.20979393 -0.6133198 0.900759
v -0.4234708 -0.37092477 1.0740967
v -0.14806387 -0.5865344 0.6538693
v 0.069962636 -0.48629212 1.1074576
v -0.095287025 -0.5745508 1.2202485
v -0.2684639 -1.0286282 0.7226708
v 0.5394581 -1.1335399 0.41521516
v 0.15114933 -1.1485912 0.17570294
v 0.017284125 -0.9448386 0.079665735
v -0.2684639 -1.0286282 0.7226708
v -0.27694502 -1.2408801 1.057407
v -0.68295705 -0.85066783 1.0316951
v -0.68295705 -0.85066783 1.0316951
v -0.33165562 -1.0622873 1.3057548
v -0.43291795 -0.56628287 1.3529332
v -0.4234708 -0.37092477 1.0740967
v -0.095287025 -0.5745508 1.2202485
v -0.095287025 -0.5745508 1.2202485
v -0.1488229 -0.54942834 1.9720786
v 0.109731495 -0.5619705 1.8425997
v -0.68295705 -0.85066783 1.0316951
v -0.555174 -0.78789616 1.3989984
v -0.33165562 -1.0622873 1.3057548
v 0.14593492 1.0275007 1.2711439
v 0.30401158 0.9970585 1.8575174
v 0.02812028 1.033401 2.0901332
v 0.30401158 0.9970585 1.8575174
v 0.20218563 0.5461921 2.0221086
v 0.02812028 1.033401 2.0901332
v 0.20218563 0.5461921 2.0221086
v -0.14202394 0.24021828 1.7533475
v -0.28740436 0.8373979 2.0614696
v -0.35660416 0.43712804 1.024026
v -0.053770974 0.4429347 0.707771
v -0.28239548 0.78578705 0.6769102
v -0.053770974 0.4429347 0.707771
v 0.17402661 0.27264476 -0.0028488636
v -0.29780075 0.43093902 -0.046894997
v 0.29489872 0.4352648 0.5743637
v 0.17402661 0.27264476 -0.0028488636
v 0.36549938 0.41029456 1.0101011
v -0.35660416 0.43712804 1.024026
v -0.23112206 0.4219618 1.2784892
v -0.053770974 0.4429347 0.707771
v -0.3720025 0.74290925 -0.029488266
v -0.28239548 0.78578705 0.6769102
v 0.30057657 0.51460737 1.3339527
v 0.36549938 0.41029456 1.0101011
v -0.23112206 0.4219618 1.2784892
v -0.23112206 0.4219618 1.2784892
v -0.35660416 0.43712804 1.024026
v -0.2623532 0.8338942 1.2939432
v -0.24051768 -1.652462 3.5058222
v -0.44561636 -1.310451 3.3442326
v -0.32358122 -1.3107803 3.7148254
v -0.44561636 -1.310451 3.3442326
v -0.3441429 -0.9864228 3.445964
v -0.32358122 -1.3107803 3.7148254
v 0.0020630658 -1.2618876 2.6167793
v 0.4530226 -1.4838309 2.6844997
v 0.07588959 -0.9463376 3.5207803
v 0.07154465 -1.5039802 3.6830902
v 0.4393744 -1.9402277 2.5462499
v -0.24051768 -1.652462 3.5058222
v -0.3441429 -0.9864228 3.445964
v 0.0063194633 -1.1591735 3.7809505
v -0.32358122 -1.3107803 3.7148254
v 0.27123678 -1.3252077 3.566401
v 0.07154465 -1.5039802 3.6830902
v 0.0063194633 -1.1591735 3.7809505
v 0.7269219 -1.2782247 1.9163911
v 0.5395847 -1.6698565 1.1823137
v 0.7859821 -1.4038498 1.8599739
v 0.7269219 -1.2782247 1.9163911
v 0.7859821 -1.4038498 1.8599739
v 0.90877396 -1.5506449 2.161557
v 0.29771492 -1.2219691 1.9295518
v -0.14754176 -1.5170243 1.90994
v 0.11440173 -1.2882192 1.8551924
v 0.4393744 -1.9402277 2.5462499
v 0.066900074 -2.321175 2.0612118
v 0.072783485 -1.9942151 2.3436763
v -0.19705546 -1.8127131 0.6921582
v -0.44466716 -2.3123436 0.21704817
v -0.369565 -1.8660228 0.16138625
v -0.04743582 -1.8759686 1.5718818
v -0.44466716 -2.3123436 0.21704817
v -0.00076270103 -1.5360099 1.651566
v -0.25742733 -1.9047956 1.9531317
v -0.14754176 -1.5170243 1.90994
v -0.09045723 -1.7951908 2.411857
v -0.04743582 -1.8759686 1.5718818
v -0.19705546 -1.8127131 0.6921582
v -0.00076270103 -1.5360099 1.651566
v -0.19705546 -1.8127131 0.6921582
v -0.369565 -1.8660228 0.16138625
v -0.12654424 -1.5191419 0.16863751
v -0.12654424 -1.5191419 0.16863751
v 0.25174138 -1.5498469 1.1260381
v 0.13570586 -2.1858788 1.622586
v -0.06143734 -2.5280647 0.29430735
v -0.44466716 -2.3123436 0.21704817
v 0.4393744 -1.9402277 2.5462499
v -0.09045723 -1.7951908 2.411857
v -0.24051768 -1.652462 3.5058222
v 0.0020630658 -1.2618876 2.6167793
v -0.09045723 -1.7951908 2.411857
v -0.14754176 -1.5170243 1.90994
v 0.0020630658 -1.2618876 2.6167793
v -0.14754176 -1.5170243 1.90994
v 0.29771492 -1.2219691 1.9295518
v 0.4530226 -1.4838309 2.6844997
v 0.7269219 -1.2782247 1.9163911
v 0.90877396 -1.5506449 2.161557
v -0.25911462 2.1492288 1.3784746
v 0.04128383 2.399806 1.0925257
v 0.030208245 2.1999993 1.7070072
v -0.25720507 1.1930962 3.6667812
v 0.12694097 1.3014989 3.8037395
v 0.06929451 1.0740688 3.5689354
v 0.06344187 2.5554106 0.2313196
v -0.4540915 2.6942892 0.48094994
v -0.11744407 2.411939 -0.03931421
v -0.4540915 2.6942892 0.48094994
v 0.04128383 2.399806 1.0925257
v -0.35349855 1.6539559 1.6836988
v -0.09871453 1.4417574 1.5154951
v -0.53002036 1.5707924 0.9439608
v -0.35349855 1.6539559 1.6836988
v -0.68405104 1.8205047 0.88857186
v -0.25911462 2.1492288 1.3784746
v -0.9958469 1.9741454 0.32620496
v -0.80919135 2.2972863 0.14146191
v -0.83643734 2.4234934 0.5027818
v -0.68405104 1.8205047 0.88857186
v -0.81173736 1.607449 0.106377244
v -0.9958469 1.9741454 0.32620496
v -0.53002036 1.5707924 0.9439608
v -0.81173736 1.607449 0.106377244
v -0.35349855 1.6539559 1.6836988
v 0.44593126 1.6096148 2.155205
v -0.045211583 1.2617671 2.1324115
v 0.26663032 1.3488007 2.3675454
v -0.008169845 1.1754351 1.7928879
v -0.46257228 1.6931319 1.9270688
v -0.17533994 1.3745501 2.085717
v -0.46257228 1.6931319 1.9270688
v -0.24386944 1.835537 2.3207414
v -0.008169845 1.1754351 1.7928879
v -0.35349855 1.6539559 1.6836988
v 0.44593126 1.6096148 2.155205
v 0.41659307 1.3347373 1.852091
v -0.045211583 1.2617671 2.1324115
v -0.53002036 1.5707924 0.9439608
v -0.44854668 1.4698148 0.0395298
v -0.81173736 1.607449 0.106377244
v 0.10255781 1.7173252 3.5179236
v -0.0069592446 1.9538078 2.4435828
v 0.29951942 1.9120967 2.4417038
v 0.29951942 1.9120967 2.4417038
v 0.30187082 1.2676888 3.6416593
v 0.10255781 1.7173252 3.5179236
v 0.7123232 1.7957903 1.9427273
v 0.44593126 1.6096148 2.155205
v 0.46280193 2.2530808 2.1023011
v 0.44593126 1.6096148 2.155205
v 0.26663032 1.3488007 2.3675454
v 0.30187082 1.2676888 3.6416593
v 0.26663032 1.3488007 2.3675454
v 0.06929451 1.0740688 3.5689354
v 0.30057657 0.51460737 1.3339527
v -0.23112206 0.4219618 1.2784892
v -0.14202394 0.24021828 1.7533475
v -0.14202394 0.24021828 1.7533475
v -0.23112206 0.4219618 1.2784892
v -0.44159085 0.49985427 1.56696
v -0.01244992 -0.9351516 1.3117598
v -0.33165562 -1.0622873 1.3057548
v -0.36210424 -0.9563667 1.7508515
v -0.33165562 -1.0622873 1.3057548
v -0.555174 -0.78789616 1.3989984
v -0.36210424 -0.9563667 1.7508515
v -0.6563494 0.8285276 2.0514374
v -0.8506321 0.07418931 1.7522256
v -0.24340561 1.0952673 1.9372615
v -0.8437934 0.7669493 2.969603
v -0.9844873 1.1013145 4.3556566
v -0.3324742 1.5985582 3.977714
v -0.48920298 1.2573003 4.8744016
v -0.9711988 0.8985139 4.871782
v -0.36210424 -0.9563667 1.7508515
v -0.555174 -0.78789616 1.3989984
v -0.1488229 -0.54942834 1.9720786
v -0.20159125 -0.80655533 1.9665962
v -0.09045723 -1.7951908 2.411857
v 0.0020630658 -1.2618876 2.6167793
v -0.44561636 -1.310451 3.3442326
v -0.3441429 -0.9864228 3.445964
v -0.3441429 -0.9864228 3.445964
v 0.0020630658 -1.2618876 2.6167793
v 0.07588959 -0.9463376 3.5207803
v 0.0063194633 -1.1591735 3.7809505
v -0.06143734 -2.5280647 0.29430735
v 0.5763528 -2.208909 0.63617444
v 0.4430011 -2.3260539 0.2598781
v 0.49020046 -2.1702137 1.6895478
v 0.11440173 -1.2882192 1.8551924
v -0.00076270103 -1.5360099 1.651566
v 0.25174138 -1.5498469 1.1260381
v -0.14754176 -1.5170243 1.90994
v 0.12694097 1.3014989 3.8037395
v 0.10255781 1.7173252 3.5179236
v 0.30187082 1.2676888 3.6416593
v -0.17635238 1.5148447 3.7868133
v -0.20563084 2.1964464 2.0403538
v -0.25911462 2.1492288 1.3784746
v 0.030208245 2.1999993 1.7070072
v 0.46280193 2.2530808 2.1023011
v -0.09871453 1.4417574 1.5154951
v 0.195092 1.5249236 1.4524009
v -0.06801613 1.5990899 0.34484628
v -0.06801613 1.5990899 0.34484628
v -0.53002036 1.5707924 0.9439608
v -0.44854668 1.4698148 0.0395298
v 0.04128383 2.399806 1.0925257
v 0.06344187 2.5554106 0.2313196
v 0.22103322 2.3592503 0.5678265
v 0.030208245 2.1999993 1.7070072
v 0.45886308 1.9329166 1.4919381
v -0.01244992 -0.9351516 1.3117598
v 0.09695315 -0.8602894 1.853517
v 0.109731495 -0.5619705 1.8425997
v -0.095287025 -0.5745508 1.2202485
v 0.08543138 -0.62497586 0.06338069
v -0.14806387 -0.5865344 0.6538693
v -0.2684639 -1.0286282 0.7226708
v 0.017284125 -0.9448386 0.079665735
v 0.51929474 0.58148956 0.06974798
v 0.4487015 0.8008349 0.6378408
v 0.23764989 1.1176726 0.65541935
v 0.27334705 1.1375387 -0.0073406696
v 0.5597196 0.8110744 0.9682669
v 0.34500518 0.656948 1.2555704
v 0.14593492 1.0275007 1.2711439
v 0.28438553 1.2232635 0.99853915
v 0.4393744 -1.9402277 2.5462499
v 0.07154465 -1.5039802 3.6830902
v 0.27123678 -1.3252077 3.566401
v 0.4530226 -1.4838309 2.6844997
v 0.14031881 1.9358332 -0.01561892
v -0.11744407 2.411939 -0.03931421
v -0.44854668 1.4698148 0.0395298
v -0.81173736 1.607449 0.106377244
v -0.80919135 2.2972863 0.14146191
vt 0.19126904 0.32530618
vt 0.25623786 0.2596705
vt 0.1908831 0.28516483
vt 0.2710687 0.16203022
vt 0.19785804 0.12574315
vt 0.21056092 0.065312386
vt 0.122240245 0.0071686506
vt 0.1908831 0.28516483
vt 0.10132772 0.31861556
vt 0.19126904 0.32530618
vt 0.07462144 0.272797
vt 0.19785804 0.12574315
vt 0.078639746 0.13502443
vt 0.122240245 0.0071686506
vt 0.122240245 0.0071686506
vt 0.052831948 0.04861939
vt 0.4328403 0.30957174
vt 0.37280226 0.27555966
vt 0.2874825 0.34737778
vt 0.3340208 0.44129562
vt 0.4328403 0.30957174
vt 0.2874825 0.34737778
vt 0.28158343 0.5159066
vt 0.36577016 0.54197717
vt 0.34419996 0.5780866
vt 0.4694004 0.4355086
vt 0.4328403 0.30957174
vt 0.40538973 0.57714367
vt 0.34419996 0.5780866
vt 0.40538973 0.57714367
vt 0.12742001 0.57460916
vt 0.03216827 0.5391282
vt 0.038885534 0.5907053
vt 0.087815434 0.51269376
vt 0.12742001 0.57460916
vt 0.47436583 0.005257368
vt 0.46853757 0.1212312
vt 0.5336144 0.027517676
vt 0.3722031 0.11996937
vt 0.47284436 0.23010325
vt 0.47436583 0.005257368
vt 0.47284436 0.23010325
vt 0.52134717 0.19131231
vt 0.5336144 0.027517676
vt 0.46853757 0.1212312
vt 0.47284436 0.23010325
vt 0.5336144 0.2650448
vt 0.37351358 0.061435103
vt 0.3722031 0.11996937
vt 0.3167826 0.19174564
vt 0.47284436 0.23010325
vt 0.2893598 0.11715603
vt 0.28158343 0.17085183
vt 0.29451013 0.22075427
vt 0.3714205 0.24353015
vt 0.2893598 0.11715603
vt 0.3167826 0.19174564
vt 0.37351358 0.061435103
vt 0.29253685 0.05325508
vt 0.28158343 0.17085183
vt 0.29451013 0.22075427
vt 0.59893787 0.005257398
vt 0.54412913 0.090301335
vt 0.6514026 0.008322805
vt 0.6359575 0.08864024
vt 0.6514026 0.008322805
vt 0.5614027 0.16156365
vt 0.6359575 0.08864024
vt 0.6653168 0.18730442
vt 0.5977948 0.18730444
vt 0.69893336 0.14480169
vt 0.68063194 0.03458205
vt 0.6514026 0.008322805
vt 0.6989396 0.09829801
vt 0.6514026 0.008322805
vt 0.6359575 0.08864024
vt 0.69893336 0.14480169
vt 0.61779106 0.5365319
vt 0.6605799 0.537189
vt 0.65260506 0.47567797
vt 0.4856801 0.38638973
vt 0.5240371 0.5310998
vt 0.5618098 0.4784565
vt 0.09547451 0.44789088
vt 0.043863058 0.34844875
vt 0.03216827 0.5391282
vt 0.12846309 0.33582103
vt 0.076402724 0.34031188
vt 0.09547451 0.44789088
vt 0.19120425 0.41995025
vt 0.19120425 0.41995025
vt 0.17211637 0.5345017
vt 0.12742001 0.57460916
vt 0.19120425 0.6124128
vt 0.03216827 0.5391282
vt 0.087815434 0.51269376
vt 0.043863058 0.34844875
vt 0.005257368 0.4299822
vt 0.076402724 0.34031188
vt 0.087815434 0.51269376
vt 0.17211637 0.5345017
vt 0.12742001 0.57460916
vt 0.9439743 0.005257383
vt 0.92133963 0.026346996
vt 0.92230517 0.050897866
vt 0.2048216 0.54705447
vt 0.20171906 0.57485074
vt 0.23025267 0.5779813
vt 0.99181455 0.060679287
vt 0.99181455 0.015832514
vt 0.95795304 0.07707518
vt 0.99181455 0.015832514
vt 0.92230517 0.050897866
vt 0.9439743 0.005257383
vt 0.92994523 0.7403246
vt 0.9644186 0.7484749
vt 0.95345074 0.7089351
vt 0.9350405 0.94880307
vt 0.92896676 0.9069126
vt 0.9097414 0.9449656
vt 0.8754177 0.9312648
vt 0.9097414 0.9449656
vt 0.89029837 0.8970248
vt 0.90831196 0.7086367
vt 0.95345074 0.7089351
vt 0.96441853 0.65224516
vt 0.90831196 0.7086367
vt 0.92994523 0.7403246
vt 0.91096747 0.7618531
vt 0.9309 0.7803049
vt 0.9644186 0.7484749
vt 0.89642024 0.8394013
vt 0.89029837 0.8970248
vt 0.9350405 0.84752285
vt 0.92896676 0.9069126
vt 0.89029837 0.8970248
vt 0.45523474 0.7135161
vt 0.43778604 0.77304053
vt 0.47195613 0.77327275
vt 0.92519534 0.59578824
vt 0.9587667 0.6028302
vt 0.9587667 0.56811607
vt 0.92519534 0.59578824
vt 0.92519987 0.5716344
vt 0.8799019 0.97087526
vt 0.9097414 0.9449656
vt 0.8754177 0.9312648
vt 0.62512136 0.59730124
vt 0.65981793 0.61492896
vt 0.65718555 0.56357694
vt 0.23793419 0.34084487
vt 0.25434172 0.35940433
vt 0.26451445 0.3358209
vt 0.20393248 0.39009953
vt 0.23793419 0.34084487
vt 0.20393248 0.39009953
vt 0.24069135 0.41464305
vt 0.20464256 0.7973519
vt 0.15931058 0.7465168
vt 0.17856419 0.8228441
vt 0.19480526 0.74083877
vt 0.15931058 0.7465168
vt 0.20464256 0.7166979
vt 0.15931058 0.7465168
vt 0.14811948 0.7228434
vt 0.14811948 0.7228434
vt 0.1879003 0.68722296
vt 0.20417577 0.6291368
vt 0.15419352 0.6863534
vt 0.14811948 0.7228434
vt 0.20417577 0.6291368
vt 0.15803498 0.6229277
vt 0.14811948 0.7228434
vt 0.11444613 0.7139407
vt 0.12955523 0.67799944
vt 0.673504 0.66144526
vt 0.7197195 0.70913994
vt 0.71750665 0.64365554
vt 0.7569686 0.6702844
vt 0.71750665 0.64365554
vt 0.673504 0.66144526
vt 0.67739475 0.7194681
vt 0.7054869 0.7177156
vt 0.7054869 0.7177156
vt 0.72888196 0.74289584
vt 0.6865035 0.7499857
vt 0.6865035 0.7499857
vt 0.73314 0.7873541
vt 0.73314 0.7873541
vt 0.6945698 0.7852732
vt 0.71787226 0.8393445
vt 0.9457602 0.16873646
vt 0.97448796 0.12713253
vt 0.92133963 0.14228702
vt 0.7472973 0.9307449
vt 0.7472973 0.872887
vt 0.7063047 0.9399264
vt 0.6758912 0.87887037
vt 0.67109454 0.9067825
vt 0.6758912 0.87887037
vt 0.7472973 0.872887
vt 0.7012382 0.85770905
vt 0.7472973 0.872887
vt 0.25500393 0.44121242
vt 0.20171906 0.43906963
vt 0.23550297 0.4701408
vt 0.24069135 0.41464305
vt 0.20171906 0.43906963
vt 0.20393248 0.39009953
vt 0.20321362 0.41665316
vt 0.23550297 0.4701408
vt 0.26442564 0.4729787
vt 0.23550297 0.4701408
vt 0.26451445 0.53147054
vt 0.7569686 0.8405323
vt 0.73314 0.7873541
vt 0.71787226 0.8393445
vt 0.23550297 0.4701408
vt 0.22738786 0.5361283
vt 0.26451445 0.53147054
vt 0.9947426 0.45708233
vt 0.9947426 0.3873455
vt 0.96832395 0.39408684
vt 0.26581168 0.9600434
vt 0.21661913 0.8713036
vt 0.23013186 0.9606418
vt 0.27106857 0.8369423
vt 0.25585747 0.7475963
vt 0.2408557 0.8323798
vt 0.23687859 0.5886013
vt 0.23665145 0.6235741
vt 0.2710687 0.5982694
vt 0.7477224 0.60461164
vt 0.72289455 0.61210215
vt 0.7487867 0.6331406
vt 0.2710687 0.5982694
vt 0.23665145 0.6235741
vt 0.2710687 0.63755363
vt 0.47255656 0.84251046
vt 0.44990036 0.81218815
vt 0.42791948 0.81326413
vt 0.46683666 0.88177514
vt 0.47255656 0.84251046
vt 0.3798369 0.84102917
vt 0.37599066 0.8818276
vt 0.39134404 0.92316103
vt 0.37599066 0.8818276
vt 0.46683666 0.88177514
vt 0.4342868 0.92316103
vt 0.20415044 0.83335876
vt 0.1211288 0.83478457
vt 0.16734242 0.8605154
vt 0.11444616 0.8725538
vt 0.14675379 0.923219
vt 0.16734242 0.8605154
vt 0.1211288 0.83478457
vt 0.5464176 0.7013515
vt 0.571277 0.6997063
vt 0.5676676 0.56357694
vt 0.74836946 0.15128171
vt 0.73740196 0.24730337
vt 0.79581666 0.20594776
vt 0.79581666 0.20594776
vt 0.7759931 0.09773624
vt 0.73740196 0.24730337
vt 0.772573 0.25845027
vt 0.719434 0.084619164
vt 0.7759931 0.09773624
vt 0.7716224 0.05956459
vt 0.73838663 0.005257368
vt 0.7309389 0.055832744
vt 0.719434 0.084619164
vt 0.7309389 0.055832744
vt 0.7428274 0.3830764
vt 0.7877778 0.29566523
vt 0.73401105 0.27555954
vt 0.7534956 0.45036656
vt 0.7363951 0.45448858
vt 0.7363951 0.45448858
vt 0.69476247 0.4492696
vt 0.7578834 0.52376604
vt 0.9578093 0.47567853
vt 0.9578093 0.38734552
vt 0.92519534 0.42992425
vt 0.80894375 0.05984056
vt 0.7716224 0.05956459
vt 0.7759931 0.09773624
vt 0.79803586 0.10387504
vt 0.79581666 0.20594776
vt 0.80894375 0.05984056
vt 0.7759931 0.09773624
vt 0.772573 0.25845027
vt 0.80894375 0.24286008
vt 0.864903 0.67011786
vt 0.8246069 0.6502762
vt 0.8197155 0.69488764
vt 0.8197155 0.69488764
vt 0.844386 0.7070279
vt 0.8246069 0.6502762
vt 0.7674835 0.6436553
vt 0.7872431 0.6899502
vt 0.8197155 0.69488764
vt 0.8239937 0.8098154
vt 0.8246069 0.6502762
vt 0.16734242 0.8605154
vt 0.1783781 0.8982096
vt 0.20415044 0.8993424
vt 0.1928227 0.9322537
vt 0.1783781 0.8982096
vt 0.14675379 0.923219
vt 0.7109214 0.5283303
vt 0.7578834 0.52376604
vt 0.69476247 0.4492696
vt 0.7428274 0.3830764
vt 0.7130693 0.38692904
vt 0.7122122 0.29033825
vt 0.7130693 0.38692904
vt 0.73401105 0.27555954
vt 0.89521444 0.1637944
vt 0.84923756 0.13396466
vt 0.8620515 0.17446804
vt 0.9251953 0.3042364
vt 0.96219283 0.29172707
vt 0.9423704 0.2755599
vt 0.6485996 0.23563111
vt 0.6515205 0.19781919
vt 0.6240959 0.2093509
vt 0.013835907 0.77756715
vt 0.005257368 0.83238626
vt 0.066708684 0.8168068
vt 0.31741714 0.63606346
vt 0.3248155 0.599784
vt 0.28158355 0.6354295
vt 0.55605555 0.2377617
vt 0.59381485 0.19781917
vt 0.5522475 0.20802474
vt 0.54412913 0.26348114
vt 0.59381485 0.23783112
vt 0.59381485 0.19781917
vt 0.835969 0.48681784
vt 0.80950475 0.5761738
vt 0.83078027 0.5493734
vt 0.83078027 0.5493734
vt 0.85419273 0.6303477
vt 0.79829264 0.6084049
vt 0.85419273 0.6303477
vt 0.3357215 0.77865034
vt 0.3864591 0.7388352
vt 0.33516383 0.7147121
vt 0.37257838 0.66567427
vt 0.31741714 0.63606346
vt 0.31741714 0.63606346
vt 0.36161947 0.61466384
vt 0.38822794 0.58860135
vt 0.3248155 0.599784
vt 0.83078027 0.5493734
vt 0.85419273 0.6303477
vt 0.889385 0.5928514
vt 0.85419273 0.6303477
vt 0.9146805 0.6193383
vt 0.835969 0.48681784
vt 0.83078027 0.5493734
vt 0.88171077 0.48731494
vt 0.835969 0.48681784
vt 0.89004946 0.44942403
vt 0.8621838 0.42141032
vt 0.83816504 0.44440794
vt 0.83816504 0.44440794
vt 0.835969 0.48681784
vt 0.10393143 0.8205993
vt 0.07027805 0.7827587
vt 0.066708684 0.8168068
vt 0.3357215 0.77865034
vt 0.37281346 0.8016735
vt 0.38822794 0.7631328
vt 0.3864591 0.7388352
vt 0.3357215 0.77865034
vt 0.87211275 0.038712025
vt 0.9108248 0.018682003
vt 0.87660134 0.005257368
vt 0.9639058 0.48619324
vt 0.9329059 0.5342275
vt 0.9639058 0.5510242
vt 0.92695165 0.5048611
vt 0.9639058 0.48619324
vt 0.9251952 0.5576012
vt 0.9639058 0.5510242
vt 0.9242636 0.18566406
vt 0.964975 0.24158978
vt 0.964975 0.18074584
vt 0.9242636 0.18566406
vt 0.92133963 0.253976
vt 0.964975 0.24158978
vt 0.06295526 0.62292767
vt 0.08993268 0.6840017
vt 0.10393143 0.64154005
vt 0.06295526 0.62292767
vt 0.038015246 0.6740012
vt 0.08993268 0.6840017
vt 0.9251953 0.3042364
vt 0.93261665 0.37248325
vt 0.96219283 0.29172707
vt 0.76748335 0.9831836
vt 0.8141438 0.97392845
vt 0.798252 0.8829789
vt 0.798252 0.8829789
vt 0.83362854 0.8751576
vt 0.79988754 0.83248234
vt 0.83406484 0.8320372
vt 0.8141438 0.97392845
vt 0.83406484 0.96980596
vt 0.89521444 0.1637944
vt 0.87211275 0.038712025
vt 0.84923756 0.13396466
vt 0.87211275 0.038712025
vt 0.8564544 0.03733599
vt 0.87660134 0.005257368
vt 0.89521444 0.1637944
vt 0.8990729 0.064995766
vt 0.87211275 0.038712025
vt 0.89450717 0.19301128
vt 0.9108248 0.17831779
vt 0.9067179 0.8288865
vt 0.9309 0.7803049
vt 0.8812041 0.7945287
vt 0.40538973 0.57714367
vt 0.47516525 0.5165987
vt 0.4694004 0.4355086
vt 0.47516525 0.34918928
vt 0.4328403 0.30957174
vt 0.4694004 0.4355086
vt 0.58049226 0.2834792
vt 0.6435034 0.373734
vt 0.6605799 0.2755599
vt 0.58049226 0.2834792
vt 0.59855664 0.4286852
vt 0.59855664 0.4286852
vt 0.65260506 0.47567797
vt 0.61779106 0.5365319
vt 0.59855664 0.4286852
vt 0.52606 0.3247366
vt 0.5618098 0.4784565
vt 0.61779106 0.5365319
vt 0.5618098 0.4784565
vt 0.5548409 0.55306244
vt 0.18805724 0.005257368
vt 0.122240245 0.0071686506
vt 0.21056092 0.065312386
vt 0.4856801 0.38638973
vt 0.5618098 0.4784565
vt 0.52606 0.3247366
vt 0.8812041 0.7945287
vt 0.87679344 0.8206154
vt 0.9067179 0.8288865
vt 0.2048216 0.54705447
vt 0.23025267 0.5779813
vt 0.23025267 0.54664314
vt 0.92896676 0.9069126
vt 0.89029837 0.8970248
vt 0.9097414 0.9449656
vt 0.6430344 0.8427568
vt 0.6002036 0.8351369
vt 0.6344634 0.8735565
vt 0.5817919 0.87755203
vt 0.6002036 0.8351369
vt 0.62645787 0.89697915
vt 0.6022385 0.8976833
vt 0.60383487 0.9627361
vt 0.3987427 0.77327275
vt 0.43778604 0.77304053
vt 0.4144048 0.7148825
vt 0.4144048 0.7148825
vt 0.45523474 0.7135161
vt 0.41172683 0.6707088
vt 0.4144048 0.7148825
vt 0.46821415 0.6724001
vt 0.4456141 0.65104496
vt 0.90831196 0.7086367
vt 0.96441853 0.65224516
vt 0.92324495 0.64670277
vt 0.902167 0.6436555
vt 0.90831196 0.7086367
vt 0.92994523 0.7403246
vt 0.8754177 0.7323829
vt 0.8754177 0.7323829
vt 0.91096747 0.7618531
vt 0.41078126 0.6530678
vt 0.41172683 0.6707088
vt 0.4456141 0.65104496
vt 0.4456141 0.65104496
vt 0.41025606 0.58860135
vt 0.43799156 0.5887897
vt 0.8754177 0.7323829
vt 0.8801694 0.7578427
vt 0.91096747 0.7618531
vt 0.15931058 0.7465168
vt 0.14956316 0.8036892
vt 0.17856419 0.8228441
vt 0.97448796 0.17023104
vt 0.97448796 0.12713253
vt 0.9457602 0.16873646
vt 0.97448796 0.12713253
vt 0.9522252 0.08758995
vt 0.92133963 0.14228702
vt 0.8194586 0.23472863
vt 0.8496697 0.24262702
vt 0.8496697 0.20352614
vt 0.6257844 0.6951201
vt 0.6115116 0.7670691
vt 0.65981793 0.76396537
vt 0.5965323 0.71194136
vt 0.6115116 0.7670691
vt 0.5817919 0.6680901
vt 0.6492834 0.66417587
vt 0.63710463 0.6419661
vt 0.97198266 0.9201985
vt 0.97198266 0.83940136
vt 0.94555527 0.9025225
vt 0.5910364 0.6328182
vt 0.5817919 0.6680901
vt 0.63710463 0.6419661
vt 0.20321362 0.41665316
vt 0.20171906 0.43906963
vt 0.24069135 0.41464305
vt 0.571277 0.8886708
vt 0.54170287 0.88050175
vt 0.5464932 0.9156415
vt 0.54170287 0.88050175
vt 0.51174057 0.89715314
vt 0.5464932 0.9156415
vt 0.7578834 0.52376604
vt 0.7109214 0.5283303
vt 0.7477224 0.60461164
vt 0.23665145 0.6235741
vt 0.22718662 0.7118558
vt 0.2710687 0.63755363
vt 0.7877778 0.6027014
vt 0.7487867 0.6331406
vt 0.7784674 0.6326228
vt 0.21764246 0.616146
vt 0.23665145 0.6235741
vt 0.23687859 0.5886013
vt 0.69476247 0.4492696
vt 0.7130693 0.38692904
vt 0.6877053 0.44500357
vt 0.7094543 0.07877219
vt 0.719434 0.084619164
vt 0.7309389 0.055832744
vt 0.7363951 0.45448858
vt 0.7744515 0.46168834
vt 0.7534956 0.45036656
vt 0.16734242 0.8605154
vt 0.14675379 0.923219
vt 0.1783781 0.8982096
vt 0.52589166 0.6194202
vt 0.5676676 0.56357694
vt 0.52388704 0.56794417
vt 0.5464176 0.7013515
vt 0.5676676 0.56357694
vt 0.5158874 0.7162026
vt 0.5622083 0.7365384
vt 0.5231806 0.7408682
vt 0.5576979 0.782405
vt 0.5464176 0.7013515
vt 0.52589166 0.6194202
vt 0.5158874 0.7162026
vt 0.52589166 0.6194202
vt 0.52388704 0.56794417
vt 0.48637307 0.5763061
vt 0.48637307 0.5763061
vt 0.49992383 0.66651475
vt 0.8197155 0.69488764
vt 0.8239937 0.8098154
vt 0.864903 0.82152224
vt 0.26581168 0.8474571
vt 0.21661913 0.8713036
vt 0.26581168 0.9600434
vt 0.51100385 0.8132744
vt 0.5576979 0.782405
vt 0.5231806 0.7408682
vt 0.51100385 0.8132744
vt 0.5231806 0.7408682
vt 0.48567998 0.74950266
vt 0.7109214 0.5283303
vt 0.69476247 0.4492696
vt 0.67109454 0.47441986
vt 0.08215594 0.8674778
vt 0.1032424 0.9048857
vt 0.1032424 0.84290093
vt 0.8620515 0.17446804
vt 0.89450717 0.19301128
vt 0.89521444 0.1637944
vt 0.07027805 0.7827587
vt 0.013835907 0.77756715
vt 0.066708684 0.8168068
vt 0.013835907 0.77756715
vt 0.04952669 0.7176862
vt 0.3654759 0.8227259
vt 0.32979476 0.8242898
vt 0.34136522 0.8917706
vt 0.3864591 0.7388352
vt 0.37257838 0.66567427
vt 0.33516383 0.7147121
vt 0.36161947 0.61466384
vt 0.3248155 0.599784
vt 0.31741714 0.63606346
vt 0.36119175 0.9019078
vt 0.32584786 0.9730303
vt 0.3654759 0.9618157
vt 0.34136522 0.8917706
vt 0.32584786 0.9730303
vt 0.3654759 0.8227259
vt 0.86439323 0.88306224
vt 0.86439323 0.8320373
vt 0.8445797 0.8519409
vt 0.87660134 0.005257368
vt 0.8194585 0.031546474
vt 0.8564544 0.03733599
vt 0.8194585 0.031546474
vt 0.836905 0.073450565
vt 0.87660134 0.005257368
vt 0.82952774 0.008857369
vt 0.8621838 0.42141032
vt 0.89004946 0.44942403
vt 0.909286 0.4190309
vt 0.34136522 0.8917706
vt 0.29006368 0.95980847
vt 0.32584786 0.9730303
vt 0.96219283 0.29172707
vt 0.93261665 0.37248325
vt 0.96219283 0.37683082
vt 0.8372729 0.39395452
vt 0.8893666 0.27555943
vt 0.85495377 0.2879529
vt 0.83816504 0.44440794
vt 0.8621838 0.42141032
vt 0.80295134 0.42913723
vt 0.8621838 0.42141032
vt 0.890378 0.39870715
vt 0.8893666 0.27555943
vt 0.890378 0.39870715
vt 0.9146805 0.2803018
vt 0.5910364 0.6328182
vt 0.63710463 0.6419661
vt 0.62512136 0.59730124
vt 0.62512136 0.59730124
vt 0.63710463 0.6419661
vt 0.65981793 0.61492896
vt 0.9309 0.7803049
vt 0.91096747 0.7618531
vt 0.8812041 0.7945287
vt 0.91096747 0.7618531
vt 0.8801694 0.7578427
vt 0.8812041 0.7945287
vt 0.052831948 0.04861939
vt 0.122240245 0.0071686506
vt 0.015373647 0.042557955
vt 0.078639746 0.13502443
vt 0.07462144 0.272797
vt 0.005257368 0.24565578
vt 0.055496514 0.32530618
vt 0.10132772 0.31861556
vt 0.6430344 0.9326629
vt 0.62645787 0.89697915
vt 0.60383487 0.9627361
vt 0.62883687 0.95877916
vt 0.5576979 0.782405
vt 0.51100385 0.8132744
vt 0.54170287 0.88050175
vt 0.51174057 0.89715314
vt 0.7877778 0.6027014
vt 0.7578834 0.52376604
vt 0.7477224 0.60461164
vt 0.7487867 0.6331406
vt 0.8239937 0.8098154
vt 0.77378726 0.7876375
vt 0.78174007 0.81948066
vt 0.7872431 0.6899502
vt 0.49468625 0.7408657
vt 0.5158874 0.7162026
vt 0.49992383 0.66651475
vt 0.5231806 0.7408682
vt 0.6485996 0.23563111
vt 0.6043296 0.23963682
vt 0.6515205 0.25251865
vt 0.6240959 0.2093509
vt 0.008377194 0.65572095
vt 0.023609877 0.7139571
vt 0.038015246 0.6740012
vt 0.06295526 0.62292767
vt 0.32979476 0.8242898
vt 0.30901265 0.81218815
vt 0.2815835 0.9133351
vt 0.2815835 0.9133351
vt 0.34136522 0.8917706
vt 0.29006368 0.95980847
vt 0.04952669 0.7176862
vt 0.07027805 0.7827587
vt 0.08102441 0.7553761
vt 0.038015246 0.6740012
vt 0.08993268 0.6840017
vt 0.66203517 0.20862347
vt 0.66434765 0.26108485
vt 0.69233143 0.26108485
vt 0.69419575 0.19781917
vt 0.6056329 0.77758384
vt 0.6002036 0.8351369
vt 0.6430344 0.8427568
vt 0.6368431 0.7810291
vt 0.71787226 0.8393445
vt 0.6945698 0.7852732
vt 0.67109454 0.78274643
vt 0.6745682 0.84719443
vt 0.88407433 0.20352618
vt 0.86018443 0.20581944
vt 0.86370957 0.2463649
vt 0.8840744 0.25168657
vt 0.21860504 0.72237056
vt 0.21661901 0.83694243
vt 0.2408557 0.8323798
vt 0.25585747 0.7475963
vt 0.027588606 0.93856287
vt 0.07164121 0.92207545
vt 0.005257368 0.87622046
vt 0.021690369 0.84290093
vt 0.07164121 0.8519333
vn 0.10605977 0.107228875 0.9885612
vn -0.9640976 -0.25115442 0.08623914
vn -0.9633706 0.23775488 -0.124055326
vn -0.88819385 -0.44930664 -0.09609975
vn -0.95994204 0.2324475 -0.15645936
vn -0.8161245 -0.46442723 -0.34387222
vn -0.26019052 -0.21523896 -0.9412615
vn -0.9633746 0.2377268 -0.12407774
vn -0.8661492 0.3407281 0.36563647
vn 0.106050424 0.107318394 0.98855245
vn -0.94795656 0.29049018 -0.1303601
vn -0.95994705 0.23243286 -0.15644962
vn -0.9563937 0.24838388 -0.15367669
vn -0.2601564 -0.21523629 -0.94127154
vn -0.26018333 -0.21527123 -0.941256
vn -0.9062034 0.38467604 -0.17555489
vn -0.14770335 0.5471899 0.8238731
vn 0.34701684 0.5616447 0.751089
vn 0.3944025 0.14466055 0.9074801
vn 0.5897838 -0.11347742 0.7995486
vn -0.1477294 0.54712135 0.82391405
vn 0.3944084 0.14467624 0.9074749
vn 0.62876177 -0.31577083 0.71059656
vn 0.16905904 -0.18556707 0.9679794
vn -0.016338587 -0.98946697 -0.14383352
vn 0.10606243 0.10724675 0.988559
vn -0.14775126 0.5471466 0.8238933
vn -0.071352884 -0.99624056 -0.049129292
vn -0.016433574 -0.98947555 -0.143764
vn -0.07140592 -0.9962357 -0.049147494
vn 0.3470152 0.5616419 0.7510918
vn 0.9669697 0.19388892 0.16545913
vn 0.39439955 0.14467208 0.9074795
vn 0.1738966 0.93414176 -0.31167158
vn 0.34696752 0.5616649 0.75109655
vn 0.9669687 0.1938912 0.16546187
vn 0.9953281 0.040778123 0.087514676
vn 0.39441615 0.14464867 0.907476
vn 0.9044518 -0.40414828 -0.13649587
vn 0.24497762 -0.94546926 -0.21464819
vn 0.96695834 0.19393024 0.16547725
vn 0.2449886 -0.9454542 -0.21470201
vn 0.6287749 -0.31577677 0.7105822
vn 0.3944196 0.14470984 0.9074647
vn 0.9953261 0.040777385 0.08753766
vn 0.24496667 -0.94546586 -0.21467559
vn -0.016351836 -0.9894681 -0.1438245
vn 0.840949 0.4928365 -0.22342078
vn 0.90445656 -0.40413335 -0.13650826
vn 0.8373595 -0.5155324 -0.18181162
vn 0.24496357 -0.94545907 -0.214709
vn 0.5794123 0.1689686 -0.79732746
vn 0.2395478 -0.22996584 -0.9432564
vn -0.12536798 -0.33567116 -0.93359935
vn 0.26469582 -0.9190821 -0.2919319
vn 0.5793966 0.16896269 -0.7973401
vn 0.8373522 -0.515543 -0.18181467
vn 0.84096533 0.49282315 -0.22338943
vn 0.8564455 0.34948203 -0.37995163
vn 0.23955746 -0.22995797 -0.9432559
vn -0.12536313 -0.33565974 -0.9336042
vn -0.3885939 0.9121619 -0.1302131
vn -0.2601679 -0.21529242 -0.9412554
vn 0.06312259 0.9422786 -0.32882613
vn -0.13234241 -0.19915849 -0.97099
vn 0.06314759 0.94227445 -0.3288332
vn -0.18831101 -0.27802956 -0.9419334
vn -0.13232458 -0.19915491 -0.97099304
vn -0.12540448 -0.3356731 -0.93359375
vn -0.15864211 -0.9069174 -0.3902993
vn 0.23954418 -0.22994117 -0.94326335
vn 0.85643697 0.34948996 -0.3799637
vn 0.0630876 0.9422718 -0.32885244
vn 0.57941735 0.16894135 -0.7973294
vn 0.06312548 0.9422705 -0.32884854
vn -0.13233596 -0.1991401 -0.97099465
vn 0.23950943 -0.22995502 -0.9432688
vn -0.15864821 -0.90690786 -0.39031908
vn -0.18827352 -0.2780178 -0.94194436
vn -0.81614006 -0.46441004 -0.34385842
vn 0.24499285 -0.9454486 -0.21472166
vn 0.83736575 -0.5155119 -0.18184079
vn 0.26468745 -0.9190821 -0.29193947
vn 0.4324971 0.8628709 -0.26153404
vn 0.85645664 0.34949058 -0.3799189
vn 0.9669569 0.19392228 0.16549471
vn -0.38861096 0.91215235 -0.13022913
vn 0.06312433 0.9422717 -0.32884556
vn 0.4324753 0.8628924 -0.2614993
vn -0.9563833 0.24840538 -0.15370667
vn -0.9563965 0.24835412 -0.15370783
vn -0.6245253 0.7328299 -0.2700526
vn 0.34704128 0.56164336 0.75107867
vn -0.1476794 0.54715616 0.82389987
vn 0.96695757 0.19393425 0.16547683
vn 0.17392358 0.9341471 -0.31164014
vn 0.8564499 0.34946182 -0.3799605
vn 0.8409527 0.49283448 -0.22341152
vn 0.06310322 0.94227785 -0.32883203
vn 0.17391622 0.93414164 -0.31166103
vn -0.6245189 0.7328305 -0.27006558
vn 0.34706846 0.5616513 0.7510601
vn -0.86423117 0.1802446 -0.4696983
vn -0.92601883 0.12890743 -0.3547846
vn 0.0061204555 -0.999852 0.016076174
vn -0.07107434 0.99500877 0.07004118
vn 0.95260906 0.17695135 -0.2474352
vn 0.97160256 -0.026397534 -0.23514237
vn 0.7380723 0.5783681 0.3474762
vn 0.23092854 0.97181696 0.04736972
vn 0.6357519 -0.19961153 -0.74563724
vn 0.23091543 0.97181845 0.047402292
vn 0.0060558477 -0.9998534 0.016011374
vn -0.86426055 0.18021166 -0.4696569
vn 0.04971524 -0.85419244 0.4461892
vn 0.1779429 -0.8316036 0.44531032
vn 0.03352014 -0.97713846 0.20620286
vn 0.20696054 0.8922786 -0.33036909
vn 0.31361818 0.92909396 -0.19387549
vn 0.4997481 0.24835658 0.67007905
vn 0.1779332 -0.83161944 0.44529206
vn 0.49971706 0.24843194 0.6700813
vn 0.033529826 -0.9771474 0.20616034
vn -0.9076639 0.07644834 -0.28503174
vn 0.03350386 -0.977142 0.20618956
vn 0.6358149 -0.19959484 -0.74558794
vn -0.90765023 0.0765777 -0.28504333
vn 0.049683545 -0.85420823 0.4461702
vn 0.2686118 -0.8331993 0.47483045
vn 0.9751818 -0.06171326 -0.16301441
vn 0.17794025 -0.831595 0.44532317
vn 0.63573074 -0.19962315 -0.74565214
vn 0.033504143 -0.97714084 0.2061944
vn 0.73809624 0.578329 0.3474902
vn 0.3135549 0.9291119 -0.19389221
vn 0.033496924 -0.9771364 0.20621592
vn 0.31359074 0.92909503 -0.19391464
vn 0.23088144 0.971828 0.04737152
vn 0.73808324 0.5783432 0.34749442
vn 0.20694447 0.8923007 -0.3303345
vn 0.49972463 0.24843182 0.67007565
vn 0.97518927 -0.06170188 -0.16297491
vn 0.20692822 0.8923068 -0.33033264
vn 0.9449873 0.2764456 -0.1376342
vn 0.9751922 -0.061705478 -0.16295557
vn 0.49971965 0.2484135 0.67008454
vn 0.17798397 -0.8315894 0.44531372
vn 0.41361514 -0.8633093 0.28917018
vn -0.8155292 -0.3645441 0.44946593
vn -0.33874995 -0.3886143 0.85687053
vn -0.3387158 -0.38854676 0.8569148
vn -0.2613602 0.96503586 -0.019910958
vn -0.0628984 0.9791631 0.19308873
vn -0.81553555 -0.36453977 0.4494579
vn -0.33876202 -0.38857675 0.8568829
vn -0.8155334 -0.36448246 0.44950825
vn -0.5292044 0.81558657 -0.23276146
vn -0.2613815 0.96503025 -0.019901302
vn 0.76520795 0.3949804 0.5066457
vn -0.0628592 0.9791621 0.19310673
vn -0.5292219 0.8155775 -0.23275325
vn 0.7652103 0.39494422 0.5066705
vn -0.5475396 0.8350612 0.0004863795
vn 0.76521504 0.3949131 0.5066874
vn 0.69622165 0.43116167 0.5671624
vn 0.6962724 0.43112868 0.5671251
vn -0.29241472 0.95192266 0.08875846
vn -0.6529892 0.5106273 -0.55934256
vn 0.85103846 0.52173334 -0.03333091
vn 0.6962684 0.43113354 0.5671263
vn -0.6529632 0.51064456 -0.5593571
vn 0.83227736 0.5409869 -0.1210267
vn 0.69623053 0.43115124 0.5671595
vn 0.718591 0.33804208 0.60083175
vn 0.90764314 0.41936645 -0.017769039
vn 0.8120493 0.5740357 0.105160624
vn 0.9937851 0.103913896 -0.036908325
vn 0.56046903 -0.5122832 0.6507228
vn 0.41357738 -0.8633398 0.28913334
vn 0.56043327 -0.5123013 0.6507393
vn 0.8120287 0.574059 0.10519319
vn 0.76521975 0.39497614 0.5066314
vn 0.9545891 0.292218 0.025497172
vn 0.9545953 0.29219687 0.025506325
vn 0.8162547 -0.54093856 -0.18549871
vn 0.71855575 0.33810607 0.6008382
vn 0.7185651 0.33801404 0.6008783
vn 0.20398839 -0.94303375 0.26260847
vn 0.20397803 -0.9430366 0.26260602
vn 0.907652 0.4193478 -0.017753921
vn 0.8984471 0.41829422 -0.13350236
vn -0.06281189 0.97916067 0.19312944
vn 0.56042475 -0.5123304 0.65072393
vn -0.33878288 -0.38855502 0.8568845
vn 0.89842176 0.4183302 -0.13355973
vn 0.8322565 0.5410104 -0.1210661
vn -0.00988061 -0.22822884 -0.97355705
vn -0.092723206 0.026784588 -0.9953312
vn -0.45760453 -0.87779224 0.14169905
vn -0.09275906 0.026792977 -0.9953277
vn 0.8322819 0.54097855 -0.12103309
vn -0.6530118 0.5106341 -0.55930996
vn 0.8322406 0.5410375 -0.121053845
vn -0.54755706 0.8350497 0.00045101345
vn -0.122196496 -0.98814225 -0.091761015
vn -0.8658024 -0.47875193 0.13462213
vn -0.5292 0.81560546 -0.232705
vn -0.12224871 -0.988137 -0.091746785
vn -0.81552917 -0.3645477 0.44946313
vn 0.14230531 -0.9272051 -0.34625384
vn -0.8658061 -0.478757 0.13457972
vn -0.2924399 0.9519165 0.088741474
vn -0.86579007 -0.4787639 0.13465902
vn -0.65300953 0.51061064 -0.559334
vn -0.009885654 -0.2282447 -0.97355324
vn 0.20403865 -0.9430088 0.2626592
vn 0.8984549 0.41827652 -0.13350466
vn -0.86580545 -0.47875878 0.13457736
vn -0.09276513 0.02682278 -0.99532634
vn -0.6529862 0.51067984 -0.55929816
vn -0.15882193 -0.9870198 -0.021012263
vn -0.45767224 -0.8777478 0.14175573
vn -0.092737354 0.026763758 -0.9953304
vn 0.022604309 -0.9300908 0.36663362
vn -0.43940997 -0.8887234 0.13072658
vn -0.90270925 -0.41333708 -0.11945037
vn 0.116905406 0.9510528 -0.28606212
vn 0.91275746 -0.19759035 0.35753593
vn 0.91468126 -0.2419878 0.3237287
vn 0.2773869 0.20590171 0.9384353
vn 0.83479756 -0.4096544 0.3678264
vn -0.51719356 0.4444497 0.7314201
vn 0.11683598 0.95106477 -0.28605062
vn 0.914664 -0.24201632 0.32375562
vn 0.27739114 0.20590645 0.938433
vn -0.5171269 0.44450372 0.7314342
vn 0.83479816 -0.4096707 0.3678069
vn 0.022587202 -0.9301115 0.36658174
vn -0.094155 -0.29063582 -0.9521898
vn 0.4455157 0.89039135 0.093373135
vn 0.00068072975 -0.08095929 -0.9967171
vn 0.015563212 -0.28064498 -0.9596854
vn -0.09419619 -0.29060662 -0.9521946
vn -0.029240988 0.9967777 -0.074691355
vn -0.05355884 -0.21900737 -0.97425205
vn -0.07607843 -0.30549917 -0.94914806
vn -0.053601608 -0.21899965 -0.97425145
vn 0.015554853 -0.28067306 -0.9596773
vn -0.4370739 -0.8619917 0.256781
vn 0.912772 -0.19761169 0.35748667
vn 0.9389819 -0.12732828 -0.31953138
vn -0.07313007 -0.98103225 0.17952016
vn -0.001970403 -0.74163043 0.6708057
vn -0.6323344 -0.5944078 0.49682242
vn -0.07317523 -0.9810242 0.17954612
vn 0.93897355 -0.12733588 -0.31955278
vn -0.8677699 -0.35915792 0.34348363
vn -0.1409342 -0.9510704 0.27495822
vn -0.07611604 -0.30542654 -0.94916844
vn 0.93547857 0.34133658 -0.09148353
vn 0.4454791 0.89042056 0.093269646
vn 0.514101 -0.85447556 0.07464029
vn 0.5140964 -0.8544741 0.07468818
vn 0.9343027 -0.12548663 -0.3336641
vn 0.44550106 0.89040273 0.093334466
vn -0.094164014 -0.29061106 -0.9521965
vn 0.93464065 -0.11502008 -0.3364775
vn 0.9343148 -0.12548473 -0.33363068
vn 0.9389823 -0.1272685 -0.31955388
vn 0.9127618 -0.1976288 0.35750324
vn 0.7643748 0.187772 0.6168246
vn 0.93464404 -0.115041636 -0.3364604
vn 0.7643821 0.18778732 0.6168109
vn 0.26934928 0.9619224 0.04642862
vn -0.029220559 0.99677724 -0.07470554
vn 0.0006693527 -0.08091083 -0.996721
vn -0.24218202 0.90304816 -0.35475594
vn 0.0683997 0.987217 -0.14395878
vn 0.068380184 0.98721987 -0.14394808
vn 0.18035753 0.94407356 -0.27603656
vn -0.6991608 0.49409443 -0.5167638
vn -0.8525318 0.27055073 -0.44720465
vn -0.9157523 0.35164678 0.19427356
vn 0.26934338 0.9619249 0.046411693
vn -0.001968883 -0.7416302 0.670806
vn 0.9389805 -0.12726663 -0.31956002
vn 0.9343208 -0.1254828 -0.33361468
vn 0.39114338 -0.90579873 0.16289659
vn 0.5141121 -0.85446763 0.07465401
vn -0.0020496398 -0.7416668 0.67076534
vn 0.93431455 -0.12545148 -0.3336441
vn -0.09418062 -0.29056716 -0.9522083
vn 0.015619896 -0.28063253 -0.95968807
vn -0.813309 -0.44938546 0.36956885
vn -0.63235694 -0.5943981 0.49680534
vn -0.14091484 -0.9510489 0.27504286
vn -0.14094362 -0.9510503 0.2750236
vn -0.86776966 -0.3591476 0.34349528
vn -0.6323479 -0.59442425 0.4967856
vn -0.0019813254 -0.74162024 0.670817
vn 0.3911453 -0.90579087 0.16293527
vn -0.14091253 -0.9510602 0.2750051
vn -0.43702108 -0.86201197 0.25680307
vn -0.63228065 -0.59444183 0.49685028
vn -0.073167205 -0.9810346 0.1794919
vn -0.67392296 -0.5404178 0.50376225
vn -0.43945026 -0.8886985 0.13076076
vn -0.81332433 -0.44936818 0.36955604
vn -0.67390525 -0.54043365 0.5037688
vn -0.63231635 -0.594434 0.49681407
vn 0.9127778 -0.19761448 0.3574704
vn -0.69916636 0.49413925 -0.5167135
vn 0.1803261 0.9440802 -0.27603433
vn 0.2693263 0.96193105 0.046382725
vn 0.9354838 0.3413221 -0.09148294
vn 0.4455016 0.8904027 0.09333293
vn 0.93547326 0.34135634 -0.09146364
vn 0.00066649914 -0.08096698 -0.99671656
vn 0.51634586 -0.85318154 -0.07394838
vn -0.6566381 -0.75224954 -0.054288074
vn -0.98696584 -0.00062665716 0.1609288
vn -0.3761031 0.89383495 0.24414225
vn 0.8115001 0.5257905 0.2549743
vn -0.95151997 0.1539594 0.26628244
vn 0.46038088 0.3988564 0.7930719
vn -0.98697406 -0.0005865246 0.16087815
vn -0.9515125 0.15395248 0.2663129
vn -0.36137974 0.80085325 0.477534
vn -0.28015798 0.12726782 -0.95148015
vn -0.2365218 0.5855321 -0.77537704
vn -0.5304912 0.64840114 0.5460357
vn -0.28020036 0.12724529 -0.9514706
vn -0.36130756 0.8008783 0.47754648
vn 0.120855585 -0.9895795 -0.07827026
vn 0.5729814 -0.7078905 0.41301727
vn 0.7808794 -0.5798853 -0.23229343
vn -0.9374043 0.23433897 0.25760114
vn 0.32486373 -0.72938496 -0.6020473
vn 0.5729278 -0.70791715 0.4130458
vn 0.71286935 0.6800149 0.17145595
vn 0.7265446 0.66947436 0.15471514
vn 0.9030316 -0.29473728 -0.31251237
vn 0.9030208 -0.29477164 -0.3125106
vn 0.0870386 -0.15330145 -0.9843389
vn 0.43410364 0.89495015 0.10304439
vn 0.08700313 -0.15329094 -0.98434365
vn -0.29105633 0.81053734 0.50824755
vn -0.93741137 0.23434143 0.25757313
vn -0.8218684 0.39562005 0.40989876
vn -0.8203145 0.11728664 0.55975693
vn -0.5304846 0.64841086 0.5460307
vn -0.5304264 0.64841187 0.5460859
vn -0.8349444 -0.45899278 0.3036341
vn -0.38650143 -0.62913823 -0.6743898
vn -0.28016287 0.12728113 -0.9514768
vn 0.9030247 -0.29477376 -0.31249768
vn 0.08700353 -0.15335317 -0.98433393
vn 0.56323564 -0.82618946 0.013283983
vn 0.086987466 -0.15331335 -0.9843415
vn -0.22825965 -0.19374256 -0.95412856
vn 0.7128693 0.68002313 0.17142375
vn 0.90302587 -0.29476345 -0.31250387
vn 0.7808894 -0.57986057 -0.23232195
vn 0.7128999 0.679972 0.1714988
vn 0.5729712 -0.70788443 0.41304177
vn 0.7820823 -0.0235399 0.6227304
vn 0.88614744 0.04120087 0.4615682
vn 0.8861463 0.04115817 0.46157423
vn 0.71285003 0.6800507 0.17139427
vn 0.08696495 -0.15326828 -0.98435044
vn 0.43407318 0.89496833 0.10301563
vn -0.23649223 0.58555627 -0.7753678
vn -0.29106462 0.8105307 0.50825334
vn -0.99515563 0.009349914 -0.09786633
vn -0.8811043 0.38372055 -0.2764303
vn -0.9373971 0.23435766 0.2576102
vn -0.29105315 0.81053066 0.50825983
vn 0.22767533 -0.96293557 -0.14463411
vn 0.5729541 -0.7078891 0.41305783
vn 0.32484454 -0.72942334 -0.6020112
vn 0.8019287 0.15001674 0.57827777
vn 0.01873323 0.9785613 0.2051027
vn -0.29104137 0.81052047 0.50828284
vn 0.9974465 -0.01799101 0.06911376
vn 0.80196965 0.15008032 0.57820445
vn -0.99514836 0.009390647 -0.09793635
vn -0.29104644 0.81050014 0.50831246
vn -0.8218705 0.3955748 0.4099382
vn -0.36134332 0.80087376 0.47752726
vn 0.5851931 0.77420557 0.24115309
vn -0.82186383 0.39561683 0.40991104
vn -0.5304601 0.6484126 0.54605234
vn -0.36133534 0.80087465 0.47753158
vn 0.80192894 0.15010035 0.57825583
vn 0.7128732 0.68001753 0.1714291
vn 0.88613063 0.041213103 0.46159926
vn 0.8019479 0.1500508 0.5782423
vn 0.6076783 0.77874655 0.15582328
vn 0.7128901 0.6800056 0.17140663
vn -0.37611854 0.89383644 0.24411331
vn 0.018754333 0.9785655 0.20508032
vn 0.81148744 0.52580214 0.25499082
vn -0.9797277 -0.16909468 -0.10742756
vn -0.99515265 0.009366317 -0.09789554
vn -0.65664303 -0.7522514 -0.054202825
vn -0.6566481 -0.75223875 -0.054316238
vn -0.37609723 0.8938421 0.24412589
vn -0.9869712 -0.0006277226 0.16089578
vn -0.9515082 0.15396494 0.26632103
vn -0.995156 0.009372368 -0.09786146
vn 0.018743396 0.97855616 0.20512554
vn 0.51631546 -0.8532023 -0.07391997
vn 0.22765128 -0.9629505 -0.14457183
vn -0.6566489 -0.75224197 -0.054261312
vn 0.22766462 -0.9629456 -0.14458358
vn -0.97973 -0.16910511 -0.10738994
vn 0.3249091 -0.7294549 -0.6019382
vn 0.5163296 -0.85319376 -0.073920935
vn 0.9756677 -0.21163386 -0.057302117
vn 0.22764602 -0.96294373 -0.14462575
vn 0.46043372 0.39882988 0.7930546
vn 0.7874404 -0.61618334 -0.015995324
vn 0.97158194 -0.026446516 -0.23522171
vn 0.9751923 -0.061679658 -0.16296467
vn -0.82279605 -0.03384358 0.5673283
vn -0.071392536 -0.99623615 -0.049161416
vn -0.964094 -0.25117144 0.08623147
vn 0.106029734 0.1073015 0.98855656
vn -0.86613846 0.34076497 0.3656277
vn -0.1477107 0.5471655 0.823888
vn 0.106052995 0.10724459 0.9885602
vn -0.0713849 -0.99623847 -0.0491235
vn -0.8881829 -0.4493371 -0.09605891
vn -0.9641023 -0.25114226 0.0862228
vn -0.07137854 -0.99623877 -0.049126834
vn -0.07944975 -0.9785323 -0.19016378
vn -0.079458475 -0.9785306 -0.19016865
vn -0.8161249 -0.46442682 -0.3438719
vn -0.15864167 -0.90693134 -0.3902669
vn -0.07945875 -0.97852784 -0.190183
vn -0.016374066 -0.9894743 -0.14377944
vn 0.26470596 -0.91907626 -0.29194143
vn -0.15865494 -0.9069188 -0.3902908
vn 0.26472497 -0.9190681 -0.29194975
vn -0.12533937 -0.33568007 -0.9336
vn -0.18829483 -0.27802804 -0.941937
vn -0.26017082 -0.21522622 -0.9412698
vn -0.81611556 -0.4644402 -0.34387577
vn 0.24498256 -0.94545287 -0.21471478
vn 0.26468822 -0.91907996 -0.29194558
vn -0.016392356 -0.9894759 -0.14376587
vn -0.82277715 -0.033790838 0.56735885
vn -0.039173782 -0.7167491 0.6962299
vn 0.97159255 -0.02647408 -0.23517491
vn -0.07103923 0.99500835 0.07008373
vn 0.97160774 -0.02634354 -0.2351263
vn -0.039208382 -0.7167395 0.6962378
vn 0.31362817 0.9290799 -0.19392616
vn 0.033548735 -0.9771419 0.20618245
vn 0.4997409 0.24841468 0.6700684
vn -0.90766513 0.076497115 -0.28501567
vn -0.8499823 0.35599378 -0.34299105
vn -0.75088304 0.48075926 -0.09260685
vn 0.06290476 0.9172551 -0.33823347
vn -0.8499831 0.35598314 -0.34299958
vn -0.6696427 0.4749998 0.5324601
vn -0.5777457 0.62395245 0.50317603
vn -0.07110898 0.99500173 0.07010723
vn -0.86427206 0.18021387 -0.4696352
vn 0.23090741 0.97182286 0.047350615
vn -0.84996545 0.3559761 -0.3430504
vn -0.84995985 0.35597548 -0.34306514
vn 0.31361198 0.92908716 -0.19391844
vn 0.06294072 0.9172451 -0.3382473
vn -0.8499968 0.35598075 -0.342968
vn 0.20700563 0.8922864 -0.330325
vn 0.9449951 0.27642384 -0.13762367
vn -0.90763336 0.07652873 -0.28510907
vn 0.63580257 -0.19960923 -0.7455946
vn 0.0061023487 -0.9998533 0.016006544
vn -0.9260257 0.12896821 -0.3547447
vn -0.9076694 0.07648094 -0.28500587
vn 0.049680017 -0.85421276 0.44616416
vn -0.7508721 0.4807943 -0.09255945
vn -0.7508634 0.48080295 -0.09259731
vn 0.26862636 -0.8331972 0.47482592
vn -0.5777582 0.62394744 0.5031678
vn 0.06291566 0.9172401 -0.33826217
vn 0.9449715 0.27647448 -0.13768545
vn 0.9449829 0.27644798 -0.13765946
vn -0.07109241 0.99500614 0.070062086
vn 0.9526156 0.17693974 -0.24741833
vn -0.7508636 0.48078758 -0.09265503
vn -0.6696541 0.47501314 0.5324346
vn 0.26863772 -0.8331836 0.4748426
vn 0.76516634 0.39499432 0.506698
vn 0.8120358 0.5740469 0.10520441
vn -0.06286389 0.97915685 0.19313155
vn 0.8120171 0.57407403 0.10520014
vn 0.56048703 -0.51228577 0.6507054
vn -0.062867366 0.97915316 0.19314978
vn 0.5604553 -0.5122982 0.6507229
vn 0.41357055 -0.8633462 0.28912392
vn -0.3387526 -0.38858208 0.8568842
vn -0.1222361 -0.98814815 -0.091643825
vn -0.15881146 -0.9870211 -0.021032907
vn -0.8658101 -0.47874358 0.13460204
vn -0.15883034 -0.98701805 -0.0210297
vn -0.00982628 -0.22823878 -0.97355527
vn -0.45765743 -0.87775683 0.14174837
vn 0.2040303 -0.94301623 0.2626387
vn -0.009956852 -0.22820246 -0.9735625
vn 0.816269 -0.54093605 -0.18544336
vn -0.12220913 -0.9881468 -0.09169516
vn 0.14232968 -0.92719 -0.34628394
vn -0.15881619 -0.9870209 -0.021004397
vn -0.092730924 0.026783342 -0.9953305
vn -0.8658022 -0.47875807 0.13460127
vn 0.9937829 0.103951685 -0.0368626
vn 0.8162567 -0.540928 -0.1855197
vn 0.14234643 -0.92718947 -0.34627867
vn 0.14227793 -0.92720133 -0.34627485
vn -0.122202136 -0.98814625 -0.091711104
vn -0.5292015 0.815582 -0.23278388
vn 0.022614866 -0.93008643 0.36664373
vn -0.9027053 -0.41334108 -0.11946692
vn -0.51722294 0.4444798 0.73138094
vn -0.90271926 -0.41332525 -0.11941603
vn -0.14564218 0.926222 -0.3477084
vn -0.5171615 0.4444604 0.7314361
vn -0.6991346 0.4941119 -0.51678246
vn 0.91276634 -0.19759223 0.35751173
vn 0.11689094 0.95103884 -0.2861146
vn 0.8348178 -0.4096191 0.3678197
vn -0.07316455 -0.98103267 0.17950398
vn 0.022586972 -0.93010616 0.3665956
vn -0.14565271 0.92623985 -0.3476565
vn 0.27740365 0.20596722 0.938416
vn -0.5171806 0.44447124 0.731416
vn 0.9146608 -0.24203189 0.32375312
vn 0.83480173 -0.4096169 0.36785868
vn 0.27738875 0.20588699 0.93843806
vn 0.18036555 0.944081 -0.27600566
vn 0.9354791 0.3413453 -0.09144428
vn 0.93465096 -0.11501239 -0.33645162
vn 0.18032598 0.9440632 -0.27609244
vn 0.9346481 -0.115037106 -0.33645096
vn 0.76437104 0.18780778 0.6168183
vn 0.06837192 0.98721695 -0.1439715
vn -0.84401935 0.32487562 -0.42671677
vn -0.24218544 0.90303993 -0.3547743
vn -0.07318833 -0.9810346 0.17948428
vn -0.6323246 -0.59443116 0.49680692
vn -0.6739184 -0.54043096 0.50375414
vn -0.91574174 0.3516622 0.19429523
vn -0.07613008 -0.3054595 -0.94915676
vn -0.05352898 -0.21901953 -0.9742509
vn -0.86776286 -0.35914958 0.34351042
vn -0.07617377 -0.30556124 -0.9491204
vn -0.85255677 0.27054602 -0.4471598
vn -0.8133223 -0.4493811 0.36954486
vn -0.8440163 0.32488984 -0.42671183
vn -0.43946052 -0.8887041 0.13068748
vn -0.8677755 -0.35916746 0.34345973
vn -0.91574365 0.35164857 0.19431096
vn -0.8525719 0.27051947 -0.44714698
vn -0.9157513 0.35163504 0.19429947
vn -0.05357661 -0.21906427 -0.9742383
vn -0.029231656 0.9967746 -0.07473716
vn -0.029264081 0.99677324 -0.07474223
vn 0.26933268 0.96193093 0.046349406
vn -0.14091367 -0.9510568 0.27501643
vn -0.43701684 -0.8620247 0.25676763
vn -0.07616022 -0.3054822 -0.949147
vn -0.07314286 -0.98103315 0.17951065
vn -0.43941996 -0.8887122 0.13076904
vn 0.022583723 -0.93009657 0.36661994
vn -0.6991489 0.4940969 -0.5167775
vn -0.43941405 -0.8887091 0.1308096
vn -0.8440083 0.32489252 -0.42672592
vn -0.6991187 0.4940964 -0.5168189
vn -0.844037 0.32486045 -0.4266936
vn 0.0683778 0.9872242 -0.14391905
vn 0.9127508 -0.1976259 0.35753322
vn 0.18033645 0.94408095 -0.27602485
vn 0.7643764 0.18779878 0.61681455
vn -0.82187027 0.39560032 0.409914
vn 0.58518153 0.77420926 0.24116904
vn 0.60767055 0.77875495 0.15581118
vn -0.9869724 -0.0006523095 0.16088834
vn 0.4603345 0.39883667 0.7931089
vn 0.5163429 -0.8531876 -0.07389824
vn 0.4340892 0.8949579 0.10303898
vn -0.36128697 0.8008865 0.4775484
vn -0.23649289 0.585511 -0.7754018
vn -0.36135536 0.8008848 0.47749957
vn 0.58519596 0.77422094 0.24109638
vn -0.93741137 0.23434122 0.25757304
vn 0.12083768 -0.98958254 -0.07825959
vn -0.19211037 -0.97609276 -0.10166791
vn -0.9374055 0.23434246 0.2575936
vn -0.8203315 0.11727099 0.5597353
vn -0.8218524 0.39561963 0.4099315
vn -0.8349512 -0.45897484 0.30364203
vn -0.28020397 0.1272649 -0.951467
vn -0.5304712 0.64838797 0.5460708
vn -0.82033855 0.11730364 0.5597182
vn -0.38650805 -0.629152 -0.6743731
vn -0.834958 -0.458945 0.30366838
vn -0.19214542 -0.97608626 -0.10166466
vn -0.38651633 -0.62914884 -0.67437136
vn -0.9373933 0.23434722 0.25763342
vn 0.7820735 -0.023489147 0.6227434
vn 0.22763687 -0.96294373 -0.14464007
vn 0.97566324 -0.2116425 -0.05734711
vn 0.32485166 -0.7293978 -0.6020384
vn -0.881121 0.38366425 -0.27645534
vn -0.9797305 -0.16908783 -0.107412845
vn -0.8811114 0.38372853 -0.27639693
vn -0.9951544 0.009407025 -0.097874016
vn 0.32487187 -0.72946465 -0.6019464
vn -0.93741024 0.23435876 0.25756148
vn 0.7820485 -0.023529485 0.6227733
vn 0.57295865 -0.7079158 0.41300547
vn 0.227663 -0.9629428 -0.14460538
vn -0.19213358 -0.97608376 -0.10171142
vn -0.22826931 -0.19379777 -0.9541151
vn -0.3865155 -0.62914324 -0.67437714
vn 0.8115005 0.52580035 0.25495255
vn 0.018724687 0.97856224 0.20509909
vn 0.99744505 -0.018039418 0.06912178
vn 0.9974445 -0.018027943 0.069134146
vn 0.7874088 -0.6162231 -0.016008332
vn 0.81147814 0.5258029 0.25501874
vn 0.88613206 0.04119782 0.46159804
vn 0.7820621 -0.023519605 0.6227565
vn 0.80195034 0.15005809 0.5782371
vn 0.7820519 -0.02351731 0.62276936
vn 0.9756648 -0.21163401 -0.05735004
vn 0.78742844 -0.6161988 -0.015985921
vn 0.97566533 -0.21164973 -0.057282846
vn 0.51634413 -0.85318404 -0.07392962
vn 0.9937861 0.10391938 -0.03686617
vn 0.14231955 -0.9271971 -0.34626943
vn 0.41356805 -0.8633348 0.28916177
vn 0.41363248 -0.8633292 0.289086
vn 0.1423158 -0.9271805 -0.34631512
vn -0.8155167 -0.3645333 0.4494975
vn 0.9751999 -0.06168688 -0.16291651
vn 0.2686087 -0.8331942 0.47484094
vn -0.82276297 -0.03377013 0.56738067
vn 0.26859975 -0.83320177 0.47483304
vn -0.66966 0.47502956 0.53241324
vn -0.82279706 -0.03381634 0.5673284
vn -0.90620655 0.38465428 -0.17558731
vn -0.2601547 -0.21525604 -0.9412674
vn -0.3886543 0.9121378 -0.13020174
vn -0.95639914 0.24837072 -0.15366435
vn -0.94795513 0.2904838 -0.13038489
vn -0.62452465 0.73282385 -0.27007055
vn -0.14773263 0.54713374 0.82390517
vn -0.8661507 0.3407137 0.3656462
vn -0.8227916 -0.033821266 0.5673361
vn -0.66964716 0.47499144 0.5324614
vn -0.071081996 0.9950042 0.07010022
vn -0.039193407 -0.7167641 0.69621336
vn -0.4394455 -0.88869804 0.13077918
vn -0.69912535 0.49412823 -0.5167794
vn -0.90273076 -0.41330904 -0.119384676
vn -0.1456464 0.9262656 -0.3475904
vn -0.14564955 0.92624295 -0.34764946
vn -0.69912845 0.49408856 -0.5168131
vn 0.116890535 0.9510455 -0.28609264
vn 0.27740675 0.20592202 0.938425
vn -0.43705094 -0.86202097 0.25672197
vn 0.51409346 -0.8544796 0.07464813
vn 0.015590876 -0.2806573 -0.9596813
vn 0.3911622 -0.9057904 0.1628977
vn -0.24217081 0.9030398 -0.3547848
vn -0.85256773 0.27055314 -0.44713473
vn 0.2693378 0.9619226 0.046494365
vn -0.84402484 0.32485348 -0.42672285
vn 0.46039873 0.3988369 0.7930713
vn 0.8114774 0.52581793 0.25498998
vn 0.78742665 -0.6161996 -0.016041666
vn -0.9515122 0.15402034 0.266275
vn -0.2910645 0.81050086 0.5083009
vn -0.8218442 0.39561045 0.40995663
vn 0.60766286 0.77876115 0.15580972
vn 0.8019892 0.15004921 0.57818556
vn 0.120809965 -0.989583 -0.07829693
vn 0.7808722 -0.57986945 -0.23235723
vn 0.5632089 -0.8262079 0.013274401
vn 0.5632106 -0.8262069 0.013258979
vn -0.19213265 -0.9760887 -0.10166526
vn -0.22832438 -0.19378442 -0.9541046
vn 0.5851985 0.77421933 0.24109523
vn 0.4340767 0.89496666 0.10301535
vn 0.72653043 0.66948754 0.15472561
vn 0.6076627 0.7787575 0.15582892
vn 0.7128695 0.68001664 0.1714482
vn 0.97519046 -0.061671738 -0.16297863
vn 0.97160095 -0.026435034 -0.23514424
vn 0.9526055 0.1769561 -0.24744597
vn 0.944996 0.27641025 -0.1376442
vn -0.8642512 0.18023254 -0.46966606
vn -0.8499903 0.35595548 -0.34300947
vn -0.9076616 0.07646184 -0.28503537
vn -0.9260286 0.12897865 -0.3547334
vn 0.89844936 0.41827422 -0.13354956
vn 0.9076463 0.41935867 -0.017793827
vn 0.8510298 0.52174616 -0.03334911
vn 0.8322779 0.5409828 -0.12104118
vn 0.7185646 0.33806154 0.6008525
vn 0.9545834 0.29223347 0.025530629
vn 0.76522106 0.39496997 0.50663424
vn 0.6962225 0.4311349 0.5671815
vn -0.07313272 -0.98103404 0.17950937
vn 0.83481026 -0.40961093 0.36784583
vn 0.9146744 -0.2419835 0.32375056
vn 0.9127764 -0.19761112 0.35747576
vn 0.08702092 -0.1532985 -0.98434085
vn -0.23649243 0.5855075 -0.77540463
vn -0.22831163 -0.19377536 -0.9541095
vn -0.38646978 -0.62915367 -0.6743936
vn -0.28017756 0.12726635 -0.9514745
g 0.6000_0
f 3/3/3 2/2/2 1/1/1
f 2/2/2 5/5/5 4/4/4
f 5/5/5 6/6/6 4/4/4
f 5/5/5 7/7/7 6/6/6
f 8/8/8 5/5/5 2/2/2
f 8/8/8 10/10/10 9/9/9
f 11/11/11 8/8/8 9/9/9
f 12/12/12 8/8/8 11/11/11
f 13/13/13 12/12/12 11/11/11
f 13/13/13 14/14/14 12/12/12
f 13/13/13 16/16/16 15/15/15
f 19/19/19 18/18/18 17/17/17
f 21/21/21 20/20/20 19/19/19
f 23/23/23 22/22/22 20/20/20
f 24/24/24 23/23/23 20/20/20
f 24/24/24 25/25/25 23/23/23
f 26/26/26 24/24/24 20/20/20
f 26/26/26 20/20/20 27/27/27
f 26/26/26 28/28/28 24/24/24
f 30/30/30 29/29/29 24/24/24
f 33/33/33 32/32/32 31/31/31
f 35/35/35 32/32/32 34/34/34
f 38/38/38 37/37/37 36/36/36
f 40/40/40 39/39/39 37/37/37
f 37/37/37 39/39/39 41/41/41
f 43/43/43 42/42/42 37/37/37
f 43/43/43 45/45/45 44/44/44
f 47/47/47 46/46/46 43/43/43
f 41/41/41 49/49/49 48/48/48
f 51/51/51 50/50/50 49/49/49
f 50/50/50 53/53/53 52/52/52
f 55/55/55 54/54/54 50/50/50
f 57/57/57 56/56/56 49/49/49
f 49/49/49 56/56/56 58/58/58
f 56/56/56 59/59/59 58/58/58
f 61/61/61 60/60/60 57/57/57
f 64/64/64 63/63/63 62/62/62
f 66/66/66 65/65/65 63/63/63
f 63/63/63 68/68/68 67/67/67
f 68/68/68 69/69/69 67/67/67
f 70/70/70 67/67/67 69/69/69
f 71/71/71 69/69/69 68/68/68
f 74/74/74 73/73/73 72/72/72
f 76/76/76 75/75/75 74/74/74
f 74/74/74 77/77/77 76/76/76
f 80/80/80 79/79/79 78/78/78
f 83/83/83 82/82/82 81/81/81
f 86/86/86 85/85/85 84/84/84
f 84/84/84 88/88/88 87/87/87
f 90/90/90 89/89/89 87/87/87
f 92/92/92 89/89/89 91/91/91
f 94/94/94 93/93/93 92/92/92
f 96/96/96 95/95/95 84/84/84
f 95/95/95 98/98/98 97/97/97
f 84/84/84 97/97/97 99/99/99
f 101/101/101 100/100/100 84/84/84
f 102/102/102 100/100/100 101/101/101
f 105/105/105 104/104/104 103/103/103
f 108/108/108 107/107/107 106/106/106
f 111/111/111 110/110/110 109/109/109
f 111/111/111 113/113/113 112/112/112
f 112/112/112 113/113/113 114/114/114
f 117/117/117 116/116/116 115/115/115
f 120/120/120 119/119/119 118/118/118
f 123/123/123 122/122/122 121/121/121
f 126/126/126 125/125/125 124/124/124
f 125/125/125 128/128/128 127/127/127
f 130/130/130 129/129/129 128/128/128
f 131/131/131 130/130/130 128/128/128
f 134/134/134 133/133/133 132/132/132
f 136/136/136 134/134/134 135/135/135
f 139/139/139 138/138/138 137/137/137
f 142/142/142 141/141/141 140/140/140
f 144/144/144 142/142/142 143/143/143
f 147/147/147 146/146/146 145/145/145
f 150/150/150 149/149/149 148/148/148
f 153/153/153 152/152/152 151/151/151
f 155/155/155 152/152/152 154/154/154
f 152/152/152 157/157/157 156/156/156
f 160/160/160 159/159/159 158/158/158
f 158/158/158 162/162/162 161/161/161
f 164/164/164 163/163/163 161/161/161
f 162/162/162 165/165/165 163/163/163
f 167/167/167 163/163/163 166/166/166
f 169/169/169 168/168/168 167/167/167
f 169/169/169 167/167/167 170/170/170
f 169/169/169 172/172/172 171/171/171
f 174/174/174 169/169/169 173/173/173
f 174/174/174 175/175/175 169/169/169
f 178/178/178 177/177/177 176/176/176
f 180/180/180 179/179/179 177/177/177
f 182/182/182 181/181/181 177/177/177
f 183/183/183 182/182/182 177/177/177
f 177/177/177 185/185/185 184/184/184
f 185/185/185 186/186/186 184/184/184
f 188/188/188 187/187/187 185/185/185
f 190/190/190 186/186/186 189/189/189
f 191/191/191 190/190/190 189/189/189
f 194/194/194 193/193/193 192/192/192
f 197/197/197 196/196/196 195/195/195
f 197/197/197 199/199/199 198/198/198
f 201/201/201 197/197/197 200/200/200
f 203/203/203 200/200/200 202/202/202
f 206/206/206 205/205/205 204/204/204
f 204/204/204 208/208/208 207/207/207
f 207/207/207 210/210/210 209/209/209
f 212/212/212 211/211/211 204/204/204
f 212/212/212 214/214/214 213/213/213
f 217/217/217 216/216/216 215/215/215
f 220/220/220 219/219/219 218/218/218
f 223/223/223 222/222/222 221/221/221
f 226/226/226 225/225/225 224/224/224
f 229/229/229 228/228/228 227/227/227
f 232/232/232 231/231/231 230/230/230
f 235/235/235 234/234/234 233/233/233
f 238/238/238 237/237/237 236/236/236
f 241/241/241 240/240/240 239/239/239
f 243/243/243 242/242/242 241/241/241
f 241/241/241 245/245/245 244/244/244
f 247/247/247 241/241/241 246/246/246
f 241/241/241 248/248/248 246/246/246
f 249/249/249 246/246/246 248/248/248
f 252/252/252 251/251/251 250/250/250
f 254/254/254 253/253/253 252/252/252
f 253/253/253 256/256/256 255/255/255
f 259/259/259 258/258/258 257/257/257
f 262/262/262 261/261/261 260/260/260
f 264/264/264 263/263/263 260/260/260
f 263/263/263 266/266/266 265/265/265
f 268/268/268 260/260/260 267/267/267
f 268/268/268 267/267/267 269/269/269
f 269/269/269 271/271/271 270/270/270
f 273/273/273 269/269/269 272/272/272
f 276/276/276 275/275/275 274/274/274
f 278/278/278 274/274/274 277/277/277
f 280/280/280 274/274/274 279/279/279
f 280/280/280 279/279/279 281/281/281
f 284/284/284 283/283/283 282/282/282
f 287/287/287 286/286/286 285/285/285
f 289/289/289 287/287/287 288/288/288
f 288/288/288 291/291/291 290/290/290
f 293/293/293 292/292/292 289/289/289
f 296/296/296 295/295/295 294/294/294
f 298/298/298 297/297/297 294/294/294
f 301/301/301 300/300/300 299/299/299
f 303/303/303 301/301/301 302/302/302
f 302/302/302 301/301/301 304/304/304
f 307/307/307 306/306/306 305/305/305
f 309/309/309 307/307/307 308/308/308
f 310/310/310 309/309/309 308/308/308
f 313/313/313 312/312/312 311/311/311
f 313/313/313 315/315/315 314/314/314
f 314/314/314 317/317/317 316/316/316
f 318/318/318 314/314/314 316/316/316
f 321/321/321 320/320/320 319/319/319
f 324/324/324 323/323/323 322/322/322
f 327/327/327 326/326/326 325/325/325
f 330/330/330 329/329/329 328/328/328
f 333/333/333 332/332/332 331/331/331
f 336/336/336 335/335/335 334/334/334
f 334/334/334 338/338/338 337/337/337
f 334/334/334 339/339/339 338/338/338
f 342/342/342 341/341/341 340/340/340
f 344/344/344 341/341/341 343/343/343
f 346/346/346 345/345/345 341/341/341
f 349/349/349 348/348/348 347/347/347
f 351/351/351 350/350/350 349/349/349
f 353/353/353 350/350/350 352/352/352
f 355/355/355 354/354/354 353/353/353
f 358/358/358 357/357/357 356/356/356
f 360/360/360 359/359/359 358/358/358
f 358/358/358 362/362/362 361/361/361
f 358/358/358 364/364/364 363/363/363
f 364/364/364 365/365/365 363/363/363
f 365/365/365 367/367/367 366/366/366
f 365/365/365 369/369/369 368/368/368
f 372/372/372 371/371/371 370/370/370
f 375/375/375 374/374/374 373/373/373
f 377/377/377 376/376/376 375/375/375
f 380/380/380 379/379/379 378/378/378
f 383/383/383 382/382/382 381/381/381
f 385/385/385 382/382/382 384/384/384
f 387/387/387 386/386/386 382/382/382
f 390/390/390 389/389/389 388/388/388
f 393/393/393 392/392/392 391/391/391
f 396/396/396 395/395/395 394/394/394
f 399/399/399 398/398/398 397/397/397
f 402/402/402 401/401/401 400/400/400
f 405/405/405 404/404/404 403/403/403
f 407/407/407 404/404/404 406/406/406
f 406/406/406 408/408/408 407/407/407
f 408/408/408 409/409/409 407/407/407
f 411/411/411 410/410/410 407/407/407
f 414/414/414 413/413/413 412/412/412
f 416/416/416 415/415/415 414/414/414
f 416/416/416 417/417/417 415/415/415
f 420/420/420 419/419/419 418/418/418
f 418/418/418 422/422/422 421/421/421
f 425/425/425 424/424/424 423/423/423
f 428/428/428 427/427/427 426/426/426
f 431/431/431 430/430/430 429/429/429
f 434/434/434 433/433/433 432/432/432
f 433/433/433 436/436/436 435/435/435
f 433/433/433 438/438/438 437/437/437
f 437/437/437 438/438/438 439/439/439
f 441/441/441 435/435/435 440/440/440
f 442/442/442 441/441/441 440/440/440
f 444/444/444 440/440/440 443/443/443
f 443/443/443 445/445/445 444/444/444
f 448/448/448 447/447/447 446/446/446
f 451/451/451 450/450/450 449/449/449
f 454/454/454 453/453/453 452/452/452
f 457/457/457 456/456/456 455/455/455
f 460/460/460 459/459/459 458/458/458
f 463/463/463 462/462/462 461/461/461
f 465/465/465 463/463/463 464/464/464
f 463/463/463 466/466/466 464/464/464
f 466/466/466 467/467/467 464/464/464
f 468/468/468 467/467/467 466/466/466
f 471/471/471 470/470/470 469/469/469
f 473/473/473 470/470/470 472/472/472
f 475/475/475 474/474/474 473/473/473
f 474/474/474 476/476/476 473/473/473
f 477/477/477 476/476/476 474/474/474
f 480/480/480 479/479/479 478/478/478
f 480/480/480 482/482/482 481/481/481
f 484/484/484 482/482/482 483/483/483
f 486/486/486 485/485/485 483/483/483
f 489/489/489 488/488/488 487/487/487
f 491/491/491 490/490/490 487/487/487
f 491/491/491 492/492/492 490/490/490
f 495/495/495 494/494/494 493/493/493
f 498/498/498 497/497/497 496/496/496
f 501/501/501 500/500/500 499/499/499
f 504/504/504 503/503/503 502/502/502
f 507/507/507 506/506/506 505/505/505
f 510/510/510 509/509/509 508/508/508
f 512/512/512 511/511/511 508/508/508
f 511/511/511 513/513/513 508/508/508
f 508/508/508 513/513/513 514/514/514
f 514/514/514 513/513/513 515/515/515
f 518/518/518 517/517/517 516/516/516
f 521/521/521 520/520/520 519/519/519
f 524/524/524 523/523/523 522/522/522
f 527/527/527 526/526/526 525/525/525
f 530/530/530 529/529/529 528/528/528
f 533/533/533 532/532/532 531/531/531
f 536/536/536 535/535/535 534/534/534
f 539/539/539 538/538/538 537/537/537
f 542/542/542 541/541/541 540/540/540
f 545/545/545 544/544/544 543/543/543
f 548/548/548 547/547/547 546/546/546
f 551/551/551 550/550/550 549/549/549
f 554/554/554 553/553/553 552/552/552
f 557/557/557 556/556/556 555/555/555
f 555/555/555 559/559/559 558/558/558
f 558/558/558 561/561/561 560/560/560
f 561/561/561 562/562/562 560/560/560
f 562/562/562 561/561/561 563/563/563
f 566/566/566 565/565/565 564/564/564
f 569/569/569 568/568/568 567/567/567
f 571/571/571 570/570/570 567/567/567
f 574/574/574 573/573/573 572/572/572
f 577/577/577 576/576/576 575/575/575
f 580/580/580 579/579/579 578/578/578
f 583/583/583 582/582/582 581/581/581
f 586/586/586 585/585/585 584/584/584
f 589/589/589 588/588/588 587/587/587
f 592/592/592 591/591/591 590/590/590
f 595/595/595 594/594/594 593/593/593
f 597/597/597 593/593/593 596/596/596
f 600/600/600 599/599/599 598/598/598
f 603/603/603 602/602/602 601/601/601
f 606/606/606 605/605/605 604/604/604
f 609/609/609 608/608/608 607/607/607
f 611/611/611 610/610/610 607/607/607
f 607/607/607 610/610/610 612/612/612
f 615/615/615 614/614/614 613/613/613
f 618/618/618 617/617/617 616/616/616
f 620/620/620 619/619/619 618/618/618
f 622/622/622 621/621/621 619/619/619
f 625/625/625 624/624/624 623/623/623
f 628/628/628 627/627/627 626/626/626
f 631/631/631 630/630/630 629/629/629
f 634/634/634 633/633/633 632/632/632
f 632/632/632 636/636/636 635/635/635
f 637/637/637 632/632/632 635/635/635
f 639/639/639 638/638/638 632/632/632
f 640/640/640 639/639/639 632/632/632
f 642/642/642 641/641/641 640/640/640
f 645/645/645 644/644/644 643/643/643
f 648/648/648 647/647/647 646/646/646
f 651/651/651 650/650/650 649/649/649
f 654/654/654 653/653/653 652/652/652
f 657/657/657 656/656/656 655/655/655
f 658/658/658 657/657/657 655/655/655
f 660/660/660 658/658/658 659/659/659
f 660/660/660 659/659/659 661/661/661
f 659/659/659 662/662/662 661/661/661
f 665/665/665 664/664/664 663/663/663
f 666/666/666 665/665/665 663/663/663
f 669/669/669 668/668/668 667/667/667
f 669/669/669 670/670/670 668/668/668
f 673/673/673 672/672/672 671/671/671
f 671/671/671 674/674/674 673/673/673
f 677/677/677 676/676/676 675/675/675
f 675/675/675 676/676/676 678/678/678
f 681/681/681 680/680/680 679/679/679
f 679/679/679 680/680/680 682/682/682
f 685/685/685 684/684/684 683/683/683
f 686/686/686 683/683/683 684/684/684
f 689/689/689 688/688/688 687/687/687
f 690/690/690 689/689/689 687/687/687
f 693/693/693 692/692/692 691/691/691
f 695/695/695 694/694/694 691/691/691
f 696/696/696 693/693/693 695/695/695
f 699/699/699 698/698/698 697/697/697
f 697/697/697 700/700/700 699/699/699
f 700/700/700 701/701/701 699/699/699
f 704/704/704 703/703/703 702/702/702
f 705/705/705 704/704/704 702/702/702
f 708/708/708 707/707/707 706/706/706
f 709/709/709 708/708/708 706/706/706
f 712/712/712 711/711/711 710/710/710
f 713/713/713 712/712/712 710/710/710
f 716/716/716 715/715/715 714/714/714
f 717/717/717 716/716/716 714/714/714
f 720/720/720 719/719/719 718/718/718
f 721/721/721 720/720/720 718/718/718
f 724/724/724 723/723/723 722/722/722
f 723/723/723 724/724/724 725/725/725
f 725/725/725 726/726/726 723/723/723
