g 0.7000
v 0.92754364 -0.82865334 4.9045305
v 1.4325638 -0.85891294 4.708
v 1.0027915 -0.6372093 4.2993417
v 1.1528236 0.36883658 4.4277334
v 0.75162256 0.5995323 4.601542
v 1.117511 0.005697429 4.099074
v 0.7926237 -0.8508953 3.89803
v 0.38533586 -1.0991377 3.7942827
v 0.7284668 -1.0488832 4.059968
v -0.2453344 -1.3606937 5.7674737
v 0.18318385 -1.3275383 5.652244
v 0.028578445 -1.6630864 5.783514
v 0.033295855 -1.8699234 5.0195165
v -0.17775573 -1.9142807 4.8506503
v -0.18480171 -2.0498326 4.9535527
v 1.5108805 -1.1222181 3.9153876
v 1.3523663 -0.9684312 4.135533
v 1.7538879 -1.0335958 4.0871935
v 1.061177 1.8222555 -0.040402293
v 1.3491858 1.6720369 0.049194157
v 1.5603294 1.8460771 0.123505056
v 1.2713685 1.4897801 1.211115
v 1.0732114 1.2913562 0.9177815
v 1.4034503 0.2314229 1.5237498
v 1.2005008 -0.4837811 2.3382003
v 0.81951535 -0.64681137 2.3297322
v 1.2359262 -0.32912493 2.9391947
v 1.8490674 0.038727045 5.1095495
v 1.6386888 0.45080048 4.927704
v 1.706696 0.3375373 4.06711
v 1.9840109 -1.9562764 4.0764313
v 1.5108805 -1.1222181 3.9153876
v 2.1106665 -1.8617785 4.288906
v 0.7082559 0.14246505 5.470324
v -0.2366153 -0.78603244 5.888125
v -0.20819032 -0.0035156012 5.8869076
v 0.24098174 -0.33878914 1.9606773
v 0.0034310669 0.35087836 2.2388372
v 0.026458517 -0.42016438 1.917824
v -1.319923 -0.9901295 4.363608
v -1.2876875 -0.18958855 4.135217
v -1.8080971 -0.6184807 4.1691318
v -1.3289593 0.42228675 4.888158
v -1.279382 0.47470438 4.4480085
v -0.9836279 0.752149 4.752756
v -1.0301425 -0.3826995 3.71446
v -0.996808 -0.7277638 3.8036687
v -0.60636175 -0.8244679 3.7134147
v -0.2453344 -1.3606937 5.7674737
v -0.51707345 -1.6644979 5.7439656
v -0.65251005 -1.3829942 5.5672293
v -0.41089398 -1.8709962 4.987394
v -0.18480171 -2.0498326 4.9535527
v -0.17775573 -1.9142807 4.8506503
v -1.782468 0.1714015 3.6183832
v -2.05137 -0.054227352 3.786371
v -1.6629156 -0.18289661 3.8086762
v -0.7858198 -2.2012482 0.49211627
v -1.2888455 -2.0756443 0.40643358
v -1.0856122 -2.119033 0.6036842
v -1.088927 -1.0998534 0.72944283
v -1.3329993 -1.024428 2.067813
v -0.87847424 -1.4054813 0.8708423
v -1.2340605 -0.20461404 2.7228782
v -1.3125162 0.36167657 2.70897
v -0.85706615 -0.37672853 2.7903244
v -2.150127 -0.50102425 5.2004337
v -1.8127856 0.44169593 5.080702
v -1.8704729 -0.095558405 5.441794
v -2.2932403 0.64484096 2.9603457
v -2.4638515 0.44414496 2.9333272
v -1.782468 0.1714015 3.6183832
v -1.1084775 -0.16086936 5.533214
v -0.20819032 -0.0035156012 5.8869076
v -0.2366153 -0.78603244 5.888125
v -0.20861508 -0.48348236 2.1662147
v 0.026458517 -0.42016438 1.917824
v 0.0034310669 0.35087836 2.2388372
v 1.8215528 -2.4678605 4.281973
v 2.2286198 -2.5962448 4.2933936
v 1.8501351 -2.5779054 4.1230006
v 1.9817598 -2.8306315 4.024064
v 2.1277044 -2.9154959 3.724382
v 2.354841 -2.9734373 3.8822212
v 1.842458 -2.2830458 4.1371655
v 1.8501351 -2.5779054 4.1230006
v 1.9817598 -2.8306315 4.024064
v 1.8083105 -2.4924664 4.1757236
v 1.8215528 -2.4678605 4.281973
v 2.1106665 -1.8617785 4.288906
v 1.9840109 -1.9562764 4.0764313
v 2.147244 -1.9468012 3.6234093
v 0.92754364 -0.82865334 4.9045305
v 1.0027915 -0.6372093 4.2993417
v 0.7284668 -1.0488832 4.059968
v 0.7926237 -0.8508953 3.89803
v 1.0150458 -0.33119178 3.64438
v 0.69756234 -0.7360092 2.9196582
v 1.2359262 -0.32912493 2.9391947
v 0.81951535 -0.64681137 2.3297322
v 1.117511 0.005697429 4.099074
v 0.99490744 0.3833558 3.7094405
v 0.75162256 0.5995323 4.601542
v 1.0804096 0.8298048 3.0876281
v 1.3315681 0.22621012 2.330783
v 1.0323349 0.65076 2.332788
v 1.3546083 0.9712103 1.9311774
v 1.3380673 -0.051259995 2.165102
v 1.2734256 -0.24186313 2.0449169
v 1.2005008 -0.4837811 2.3382003
v 1.4034503 0.2314229 1.5237498
v 1.2713685 1.4897801 1.211115
v 1.0540339 1.5437376 1.6055927
v 1.1410922 2.146229 1.3589141
v 1.7321053 1.8670428 0.40029895
v 0.9096207 1.0731301 1.0212002
v 1.4034503 0.2314229 1.5237498
v 1.0732114 1.2913562 0.9177815
v 0.5844683 1.8095893 0.24453187
v 0.9718516 1.696053 0.0100854635
v 0.6516528 1.8268136 0.031181693
v 1.061177 1.8222555 -0.040402293
v 1.3491858 1.6720369 0.049194157
v 1.7321053 1.8670428 0.40029895
v 1.2713685 1.4897801 1.211115
v 1.5603294 1.8460771 0.123505056
v 0.7094536 1.9922618 0.7767577
v 0.80117255 2.197823 1.3572092
v 0.6509667 1.584216 1.3852085
v 0.5844683 1.8095893 0.24453187
v 0.9096207 1.0731301 1.0212002
v 0.32440567 0.9203994 1.4548068
v 0.69248575 1.055491 2.0949733
v 0.50635254 0.19009054 1.3803395
v 0.32266665 0.6317637 1.7932632
v 0.26500526 0.4634416 2.1047986
v 0.24098174 -0.33878914 1.9606773
v 0.0034310669 0.35087836 2.2388372
v -0.027942285 1.0155524 2.6816688
v 1.0323349 0.65076 2.332788
v 0.26500526 0.4634416 2.1047986
v 0.69248575 1.055491 2.0949733
v 1.3546083 0.9712103 1.9311774
v 1.0540339 1.5437376 1.6055927
v 0.6509667 1.584216 1.3852085
v 0.80117255 2.197823 1.3572092
v 1.1410922 2.146229 1.3589141
v 2.1637058 -0.026787162 4.1445885
v 1.8490674 0.038727045 5.1095495
v 1.706696 0.3375373 4.06711
v 2.5286503 -0.43706012 3.512071
v 2.1983125 -0.91139054 3.2000308
v 2.5549946 -1.8528624 3.6272345
v 1.7270374 -0.6212436 3.2563586
v 1.1528236 0.36883658 4.4277334
v 1.6386888 0.45080048 4.927704
v 0.7082559 0.14246505 5.470324
v 0.75162256 0.5995323 4.601542
v 1.3774132 0.2175987 5.3646245
v 1.8490674 0.038727045 5.1095495
v 0.8030189 -0.5668643 5.546005
v -0.2366153 -0.78603244 5.888125
v 0.27086216 -0.8414376 5.7736716
v 0.1938546 0.426073 5.3695364
v -0.16701463 0.36812103 5.5283275
v -0.20819032 -0.0035156012 5.8869076
v -0.11861557 0.6784209 5.0657153
v -0.093457356 0.79703903 4.3530507
v 0.6859958 0.7711271 3.7394664
v 0.99490744 0.3833558 3.7094405
v -0.08475859 0.6838199 3.8509889
v 1.0804096 0.8298048 3.0876281
v -0.064682096 1.0420241 3.4324074
v 0.42752436 1.1358302 3.1844738
v -0.027942285 1.0155524 2.6816688
v 1.5108805 -1.1222181 3.9153876
v 1.0027915 -0.6372093 4.2993417
v 1.3523663 -0.9684312 4.135533
v 1.7270374 -0.6212436 3.2563586
v 1.117511 0.005697429 4.099074
v 1.1528236 0.36883658 4.4277334
v 1.6074147 -1.4209673 3.5407963
v 1.9840109 -1.9562764 4.0764313
v 2.2286198 -2.5962448 4.2933936
v 2.4951465 -2.7195907 3.7198706
v 2.354841 -2.9734373 3.8822212
v 2.6023726 -1.8327696 4.274638
v 2.5549946 -1.8528624 3.6272345
v 2.4230359 -2.5948105 3.4578538
v 2.2703657 -2.7914977 3.4620442
v 2.6722767 -0.9488692 3.721503
v 2.3724046 -0.874542 4.1660357
v 2.5286503 -0.43706012 3.512071
v 2.487637 -0.5819628 3.741816
v 2.2588024 -0.7829907 4.226072
v 2.1637058 -0.026787162 4.1445885
v 1.9237242 -0.37195802 4.4578466
v 1.8490674 0.038727045 5.1095495
v 1.5261538 -0.63759565 5.194999
v 1.4325638 -0.85891294 4.708
v 1.7538879 -1.0335958 4.0871935
v 2.4230359 -2.5948105 3.4578538
v 2.5549946 -1.8528624 3.6272345
v 2.147244 -1.9468012 3.6234093
v 2.2703657 -2.7914977 3.4620442
v 1.899353 -2.4619226 3.4321468
v 1.8801081 -2.120989 3.5307984
v 2.1277044 -2.9154959 3.724382
v 1.663208 -2.6650577 3.865926
v 1.9817598 -2.8306315 4.024064
v 1.7842195 -2.735424 3.6174421
v 2.2703657 -2.7914977 3.4620442
v 1.899353 -2.4619226 3.4321468
v 2.4951465 -2.7195907 3.7198706
v 2.354841 -2.9734373 3.8822212
v 1.9817598 -2.8306315 4.024064
v 1.663208 -2.6650577 3.865926
v 1.5477049 -2.2110229 3.9597049
v 1.842458 -2.2830458 4.1371655
v 1.0027915 -0.6372093 4.2993417
v 1.4325638 -0.85891294 4.708
v 1.3523663 -0.9684312 4.135533
v 1.7538879 -1.0335958 4.0871935
v 1.061177 1.8222555 -0.040402293
v 0.5844683 1.8095893 0.24453187
v 0.6516528 1.8268136 0.031181693
v 1.3096159 1.9681779 0.62427646
v 1.5603294 1.8460771 0.123505056
v 0.7094536 1.9922618 0.7767577
v 1.7321053 1.8670428 0.40029895
v 0.80117255 2.197823 1.3572092
v 1.1410922 2.146229 1.3589141
v 0.7926237 -0.8508953 3.89803
v 0.69756234 -0.7360092 2.9196582
v 0.38533586 -1.0991377 3.7942827
v -0.098396 -1.243345 3.5123835
v -0.108097 -1.1747192 3.836926
v 0.45738313 -1.1329422 4.161093
v 0.7284668 -1.0488832 4.059968
v 0.92754364 -0.82865334 4.9045305
v 0.20193888 -1.0643023 4.4671946
v 0.11422836 -1.0993634 4.594742
v -0.15049271 -1.1829542 4.4088516
v 0.38262543 -1.0219464 4.775088
v 0.6666429 -0.82509625 5.340007
v 0.35793185 -1.001984 4.9914002
v 0.27086216 -0.8414376 5.7736716
v 0.8030189 -0.5668643 5.546005
v 1.5261538 -0.63759565 5.194999
v 1.4325638 -0.85891294 4.708
v 1.8490674 0.038727045 5.1095495
v 1.3774132 0.2175987 5.3646245
v 0.69756234 -0.7360092 2.9196582
v -0.028843671 -0.9863045 2.7060208
v -0.098396 -1.243345 3.5123835
v 0.28938192 -0.8026769 2.213546
v 0.011496067 -0.85238063 2.133122
v 0.026458517 -0.42016438 1.917824
v 0.81951535 -0.64681137 2.3297322
v 0.24098174 -0.33878914 1.9606773
v 0.857844 -0.3845693 1.9166417
v 1.0557212 -0.33260548 1.9599855
v 1.2005008 -0.4837811 2.3382003
v 1.2734256 -0.24186313 2.0449169
v 1.4034503 0.2314229 1.5237498
v 0.9156147 0.20892179 1.3169066
v 0.50635254 0.19009054 1.3803395
v 0.9096207 1.0731301 1.0212002
v 0.18318385 -1.3275383 5.652244
v 0.2596147 -1.5833728 5.6589494
v 0.028578445 -1.6630864 5.783514
v 0.3465454 -1.1562506 4.8862047
v 0.35793185 -1.001984 4.9914002
v 0.27086216 -0.8414376 5.7736716
v 0.38262543 -1.0219464 4.775088
v 0.34395644 -1.5480474 4.680161
v 0.28257278 -1.6301912 5.110437
v 0.22532722 -1.8145938 5.3158054
v 0.14688504 -1.8920789 5.5406747
v 0.32570225 -1.6136823 4.916509
v 0.33714283 -1.6030308 4.767123
v 0.16360642 -1.8699372 4.844596
v 0.21756606 -1.8927143 4.70019
v 0.22502363 -1.8668151 4.6108885
v -0.2453344 -1.3606937 5.7674737
v 0.028578445 -1.6630864 5.783514
v -0.24526268 -1.7919519 5.7817335
v -0.22861233 -2.011323 5.5607305
v 0.14688504 -1.8920789 5.5406747
v 0.2596147 -1.5833728 5.6589494
v 1.7270374 -0.6212436 3.2563586
v 2.5549946 -1.8528624 3.6272345
v 2.1983125 -0.91139054 3.2000308
v 2.147244 -1.9468012 3.6234093
v 1.6074147 -1.4209673 3.5407963
v 1.9840109 -1.9562764 4.0764313
v 1.8215528 -2.4678605 4.281973
v 2.1106665 -1.8617785 4.288906
v 2.2286198 -2.5962448 4.2933936
v 2.6023726 -1.8327696 4.274638
v 1.8988866 -1.0346253 4.1909676
v 1.5108805 -1.1222181 3.9153876
v 2.3724046 -0.874542 4.1660357
v 1.7538879 -1.0335958 4.0871935
v 2.2588024 -0.7829907 4.226072
v 1.9237242 -0.37195802 4.4578466
v 0.27086216 -0.8414376 5.7736716
v -0.2326571 -0.9734343 5.7149506
v -0.2366153 -0.78603244 5.888125
v 0.18318385 -1.3275383 5.652244
v -0.2453344 -1.3606937 5.7674737
v 0.21756606 -1.8927143 4.70019
v -0.16240126 -1.9696734 4.6377254
v -0.17775573 -1.9142807 4.8506503
v 0.16360642 -1.8699372 4.844596
v 0.033295855 -1.8699234 5.0195165
v 0.32570225 -1.6136823 4.916509
v 0.28257278 -1.6301912 5.110437
v 0.34395644 -1.5480474 4.680161
v -0.1403356 -1.6310534 4.3074574
v 0.22502363 -1.8668151 4.6108885
v -0.15512896 -1.9152042 4.533078
v -0.16240126 -1.9696734 4.6377254
v 0.21756606 -1.8927143 4.70019
v -0.18480171 -2.0498326 4.9535527
v 0.015567407 -1.8579237 5.314092
v 0.033295855 -1.8699234 5.0195165
v -0.22861233 -2.011323 5.5607305
v 0.14688504 -1.8920789 5.5406747
v 0.015567407 -1.8579237 5.314092
v -0.22861233 -2.011323 5.5607305
v 0.22532722 -1.8145938 5.3158054
v 0.033295855 -1.8699234 5.0195165
v 0.28257278 -1.6301912 5.110437
v 1.663208 -2.6650577 3.865926
v 1.7842195 -2.735424 3.6174421
v 1.5477049 -2.2110229 3.9597049
v 1.8801081 -2.120989 3.5307984
v 1.899353 -2.4619226 3.4321468
v 1.842458 -2.2830458 4.1371655
v 1.5477049 -2.2110229 3.9597049
v 1.8801081 -2.120989 3.5307984
v 2.147244 -1.9468012 3.6234093
v -2.1944544 0.761261 2.4062285
v -2.1875806 0.9564229 2.414208
v -2.5956755 0.89997065 2.3604226
v -2.2980123 1.2077903 2.2892947
v -2.3718684 1.5185075 2.4170103
v -2.6307662 1.4691607 2.3150382
v -2.176955 0.7678442 2.6412034
v -2.2980123 1.2077903 2.2892947
v -2.1875806 0.9564229 2.414208
v -2.157342 0.85682106 2.445734
v -2.1944544 0.761261 2.4062285
v -2.4638515 0.44414496 2.9333272
v -2.2932403 0.64484096 2.9603457
v -2.346075 1.0222404 3.2548654
v -1.319923 -0.9901295 4.363608
v -0.996808 -0.7277638 3.8036687
v -1.2876875 -0.18958855 4.135217
v -1.0301425 -0.3826995 3.71446
v -1.2013788 0.14690387 3.5480776
v -0.789514 -0.6003057 2.7890682
v -1.3125162 0.36167657 2.70897
v -0.85706615 -0.37672853 2.7903244
v -1.279382 0.47470438 4.4480085
v -1.1414626 0.7131102 4.0904984
v -0.9836279 0.752149 4.752756
v -1.1088045 0.96768737 2.1270545
v -1.3169734 -0.20325327 2.0426295
v -0.9907892 -0.16586185 1.6550772
v -1.2683749 -0.5741298 1.4005797
v -1.331295 -0.35046804 2.3219776
v -1.2705806 -0.4629575 2.5001519
v -1.2340605 -0.20461404 2.7228782
v -1.3329993 -1.024428 2.067813
v -1.088927 -1.0998534 0.72944283
v -0.9054184 -0.6933851 0.7976245
v -0.92509997 -0.80315 0.07547757
v -1.4726398 -1.8153753 0.33905262
v -0.73914754 -1.3715086 1.1272072
v -0.87847424 -1.4054813 0.8708423
v -1.3329993 -1.024428 2.067813
v -0.32610172 -1.8899946 0.49675572
v -0.70713234 -2.1323104 0.6166594
v -0.3810938 -2.1066382 0.5021589
v -0.7858198 -2.2012482 0.49211627
v -1.0856122 -2.119033 0.6036842
v -1.4726398 -1.8153753 0.33905262
v -1.088927 -1.0998534 0.72944283
v -1.2888455 -2.0756443 0.40643358
v -0.4666878 -1.3856372 0.24297255
v -0.48154882 -0.856066 0.72948873
v -0.583104 -0.77871007 0.044983476
v -0.32610172 -1.8899946 0.49675572
v -0.73914754 -1.3715086 1.1272072
v -0.20645292 -0.96734375 1.4394166
v -0.61487406 -0.40318906 1.363105
v -0.42382807 -1.0399096 2.0400963
v -0.2465335 -0.6258898 1.7074491
v -0.22104712 -0.17134678 1.850647
v -0.20861508 -0.48348236 2.1662147
v 0.0034310669 0.35087836 2.2388372
v -0.027942285 1.0155524 2.6816688
v -0.9907892 -0.16586185 1.6550772
v -0.61487406 -0.40318906 1.363105
v -0.22104712 -0.17134678 1.850647
v -1.2683749 -0.5741298 1.4005797
v -0.9054184 -0.6933851 0.7976245
v -0.48154882 -0.856066 0.72948873
v -0.583104 -0.77871007 0.044983476
v -0.92509997 -0.80315 0.07547757
v -2.3182406 0.21765995 4.870278
v -1.8127856 0.44169593 5.080702
v -2.150127 -0.50102425 5.2004337
v -2.6093893 0.7364359 4.5192146
v -2.2634525 0.98614204 4.1482763
v -2.7413142 1.0341959 3.3917708
v -1.7990472 0.8753431 4.1753683
v -1.3289593 0.42228675 4.888158
v -1.8704729 -0.095558405 5.441794
v -1.1084775 -0.16086936 5.533214
v -0.9836279 0.752149 4.752756
v -1.7118545 -0.45008636 5.520479
v -2.150127 -0.50102425 5.2004337
v -1.2368679 -0.83253455 5.3979287
v -0.2366153 -0.78603244 5.888125
v -0.74931705 -0.9992738 5.6891184
v -0.57985914 0.34214163 5.4334564
v -0.16701463 0.36812103 5.5283275
v -0.20819032 -0.0035156012 5.8869076
v -0.11861557 0.6784209 5.0657153
v -0.093457356 0.79703903 4.3530507
v -0.844745 0.9285541 4.037459
v -1.1414626 0.7131102 4.0904984
v -0.08475859 0.6838199 3.8509889
v -1.1088045 0.96768737 2.1270545
v -0.064682096 1.0420241 3.4324074
v -0.46067888 1.2044122 2.0994365
v -0.027942285 1.0155524 2.6816688
v -1.782468 0.1714015 3.6183832
v -1.6629156 -0.18289661 3.8086762
v -1.2876875 -0.18958855 4.135217
v -1.7990472 0.8753431 4.1753683
v -1.279382 0.47470438 4.4480085
v -1.3289593 0.42228675 4.888158
v -1.7968211 0.694489 3.553172
v -2.2932403 0.64484096 2.9603457
v -2.5956755 0.89997065 2.3604226
v -2.6307662 1.4691607 2.3150382
v -2.72374 1.4690467 2.6341577
v -2.9379144 0.5236864 3.0417597
v -2.7413142 1.0341959 3.3917708
v -2.5897942 1.5870298 2.8740768
v -2.446662 1.674643 2.690097
v -2.8528376 0.50160027 4.053321
v -2.6595845 -0.027301073 3.9542584
v -2.6093893 0.7364359 4.5192146
v -2.643671 0.397511 4.3794947
v -2.5388575 -0.06642437 4.1061
v -2.3182406 0.21765995 4.870278
v -2.181786 -0.17062783 4.5743647
v -2.150127 -0.50102425 5.2004337
v -1.9405999 -0.9703965 4.592437
v -1.8080971 -0.6184807 4.1691318
v -2.05137 -0.054227352 3.786371
v -2.5897942 1.5870298 2.8740768
v -2.346075 1.0222404 3.2548654
v -2.7413142 1.0341959 3.3917708
v -2.446662 1.674643 2.690097
v -2.0717716 1.436487 2.913487
v -2.068593 1.1522338 3.1268604
v -2.3718684 1.5185075 2.4170103
v -2.2980123 1.2077903 2.2892947
v -1.947813 1.1771363 2.4634159
v -2.0090513 1.4347701 2.569312
v -2.446662 1.674643 2.690097
v -2.0717716 1.436487 2.913487
v -2.72374 1.4690467 2.6341577
v -2.6307662 1.4691607 2.3150382
v -2.2980123 1.2077903 2.2892947
v -2.176955 0.7678442 2.6412034
v -1.8474369 0.8123517 2.7552032
v -1.947813 1.1771363 2.4634159
v -1.2876875 -0.18958855 4.135217
v -1.6629156 -0.18289661 3.8086762
v -1.8080971 -0.6184807 4.1691318
v -2.05137 -0.054227352 3.786371
v -0.7858198 -2.2012482 0.49211627
v -0.3810938 -2.1066382 0.5021589
v -0.32610172 -1.8899946 0.49675572
v -1.0584283 -1.57275 0.25084817
v -1.2888455 -2.0756443 0.40643358
v -0.4666878 -1.3856372 0.24297255
v -1.4726398 -1.8153753 0.33905262
v -0.583104 -0.77871007 0.044983476
v -0.92509997 -0.80315 0.07547757
v -1.0301425 -0.3826995 3.71446
v -0.60636175 -0.8244679 3.7134147
v -0.789514 -0.6003057 2.7890682
v -0.098396 -1.243345 3.5123835
v -0.108097 -1.1747192 3.836926
v -0.72590005 -1.1287581 3.978413
v -0.996808 -0.7277638 3.8036687
v -1.319923 -0.9901295 4.363608
v -0.5071664 -1.0999539 4.370119
v -0.43645215 -1.1402341 4.5205445
v -0.15049271 -1.1829542 4.4088516
v -0.72777784 -1.0921173 4.6472144
v -1.0811684 -1.05282 5.154463
v -0.7316567 -1.07688 4.881839
v -0.74931705 -0.9992738 5.6891184
v -1.2368679 -0.83253455 5.3979287
v -1.9405999 -0.9703965 4.592437
v -1.8080971 -0.6184807 4.1691318
v -2.150127 -0.50102425 5.2004337
v -1.7118545 -0.45008636 5.520479
v -0.789514 -0.6003057 2.7890682
v -0.098396 -1.243345 3.5123835
v -0.028843671 -0.9863045 2.7060208
v -0.30786318 -0.7016623 2.6393862
v 0.011496067 -0.85238063 2.133122
v 0.026458517 -0.42016438 1.917824
v -0.85706615 -0.37672853 2.7903244
v -0.20861508 -0.48348236 2.1662147
v -0.851071 -0.5909668 2.5746977
v -1.0519038 -0.5416 2.572556
v -1.2340605 -0.20461404 2.7228782
v -1.2705806 -0.4629575 2.5001519
v -1.3329993 -1.024428 2.067813
v -0.834707 -1.1912639 2.1278505
v -0.42382807 -1.0399096 2.0400963
v -0.73914754 -1.3715086 1.1272072
v -0.65251005 -1.3829942 5.5672293
v -0.51707345 -1.6644979 5.7439656
v -0.7282889 -1.5857894 5.587478
v -0.70648575 -1.2059939 4.7778673
v -0.7316567 -1.07688 4.881839
v -0.74931705 -0.9992738 5.6891184
v -0.72777784 -1.0921173 4.6472144
v -0.673104 -1.5605837 4.5900226
v -0.671996 -1.6323782 5.041517
v -0.6437067 -1.8167653 5.252891
v -0.5979037 -1.8940201 5.4866796
v -0.6872577 -1.6182407 4.840609
v -0.6773106 -1.6077018 4.6903324
v -0.51488554 -1.8715105 4.7955914
v -0.5476075 -1.8944283 4.6449814
v -0.54251957 -1.8684595 4.555579
v -0.2453344 -1.3606937 5.7674737
v -0.24526268 -1.7919519 5.7817335
v -0.51707345 -1.6644979 5.7439656
v -0.22861233 -2.011323 5.5607305
v -0.5979037 -1.8940201 5.4866796
v -0.7282889 -1.5857894 5.587478
v -1.7990472 0.8753431 4.1753683
v -2.2634525 0.98614204 4.1482763
v -2.7413142 1.0341959 3.3917708
v -2.346075 1.0222404 3.2548654
v -1.7968211 0.694489 3.553172
v -2.2932403 0.64484096 2.9603457
v -2.1944544 0.761261 2.4062285
v -2.5956755 0.89997065 2.3604226
v -2.4638515 0.44414496 2.9333272
v -2.9379144 0.5236864 3.0417597
v -2.2203562 -0.044318914 3.6269631
v -1.782468 0.1714015 3.6183832
v -2.6595845 -0.027301073 3.9542584
v -2.05137 -0.054227352 3.786371
v -2.5388575 -0.06642437 4.1061
v -2.181786 -0.17062783 4.5743647
v -0.74931705 -0.9992738 5.6891184
v -0.2366153 -0.78603244 5.888125
v -0.2326571 -0.9734343 5.7149506
v -0.65251005 -1.3829942 5.5672293
v -0.2453344 -1.3606937 5.7674737
v -0.5476075 -1.8944283 4.6449814
v -0.17775573 -1.9142807 4.8506503
v -0.16240126 -1.9696734 4.6377254
v -0.51488554 -1.8715105 4.7955914
v -0.41089398 -1.8709962 4.987394
v -0.6872577 -1.6182407 4.840609
v -0.671996 -1.6323782 5.041517
v -0.673104 -1.5605837 4.5900226
v -0.54251957 -1.8684595 4.555579
v -0.1403356 -1.6310534 4.3074574
v -0.15512896 -1.9152042 4.533078
v -0.16240126 -1.9696734 4.6377254
v -0.5476075 -1.8944283 4.6449814
v -0.18480171 -2.0498326 4.9535527
v -0.41089398 -1.8709962 4.987394
v -0.43551278 -1.8590872 5.2814016
v -0.22861233 -2.011323 5.5607305
v -0.5979037 -1.8940201 5.4866796
v -0.22861233 -2.011323 5.5607305
v -0.43551278 -1.8590872 5.2814016
v -0.6437067 -1.8167653 5.252891
v -0.41089398 -1.8709962 4.987394
v -0.671996 -1.6323782 5.041517
v -1.947813 1.1771363 2.4634159
v -1.8474369 0.8123517 2.7552032
v -2.0090513 1.4347701 2.569312
v -2.068593 1.1522338 3.1268604
v -2.0717716 1.436487 2.913487
v -2.176955 0.7678442 2.6412034
v -2.346075 1.0222404 3.2548654
v -2.068593 1.1522338 3.1268604
v -1.8474369 0.8123517 2.7552032
v 0.11422836 -1.0993634 4.594742
v 0.116223074 -1.3110794 4.5367694
v 0.38262543 -1.0219464 4.775088
v -0.15049271 -1.1829542 4.4088516
v 0.34395644 -1.5480474 4.680161
v -0.1403356 -1.6310534 4.3074574
v 1.0323349 0.65076 2.332788
v 1.0804096 0.8298048 3.0876281
v 0.52178717 0.9939537 2.5255547
v 0.26500526 0.4634416 2.1047986
v 0.42752436 1.1358302 3.1844738
v -0.027942285 1.0155524 2.6816688
v -0.9907892 -0.16586185 1.6550772
v -0.49764317 0.6373441 1.7001115
v -1.1088045 0.96768737 2.1270545
v -0.22104712 -0.17134678 1.850647
v -0.46067888 1.2044122 2.0994365
v -0.027942285 1.0155524 2.6816688
v -0.673104 -1.5605837 4.5900226
v -0.1403356 -1.6310534 4.3074574
v -0.43063718 -1.3430169 4.457305
v -0.72777784 -1.0921173 4.6472144
v -0.15049271 -1.1829542 4.4088516
v -0.43645215 -1.1402341 4.5205445
vt 0.49902603 0.918115
vt 0.56499124 0.9454073
vt 0.56499124 0.8711099
vt 0.14378172 0.8514687
vt 0.16439773 0.8882737
vt 0.16439773 0.8118623
vt 0.34434217 1
vt 0.34434217 0.93092227
vt 0.31757537 0.9767937
vt 0.98919135 0.052865658
vt 0.98919135 0
vt 0.968192 0.025574517
vt 0.5176891 0.9859883
vt 0.5176891 0.95471436
vt 0.49902603 0.95796406
vt 0.96851367 0.66580456
vt 0.96851367 0.6183773
vt 0.9283098 0.64640343
vt 0.16141832 0.8975809
vt 0.14378184 0.9333254
vt 0.16141832 0.96089536
vt 0.91912127 0.53584665
vt 0.8804234 0.55779886
vt 0.91912127 0.672676
vt 0.31757528 0.88430893
vt 0.3491709 0.9216153
vt 0.34917086 0.82019824
vt 0.9590038 0
vt 0.9210636 0.040668685
vt 0.9590038 0.11800762
vt 0.95839727 0.27790177
vt 0.9886577 0.35846353
vt 0.9886577 0.27093768
vt 0.95229155 0.79087466
vt 0.95229155 0.68280923
vt 0.9039406 0.75590014
vt 0.8569706 0.89982796
vt 0.8829183 0.9938489
vt 0.8829183 0.8892549
vt 0.49902603 0.918115
vt 0.56499124 0.8711099
vt 0.56499124 0.9454073
vt 0.14378172 0.8514687
vt 0.16439773 0.8118623
vt 0.16439773 0.8882737
vt 0.34434217 1
vt 0.31757537 0.9767937
vt 0.34434217 0.93092227
vt 0.98919135 0.052865658
vt 0.968192 0.025574517
vt 0.98919135 0
vt 0.5176891 0.9859883
vt 0.49902603 0.95796406
vt 0.5176891 0.95471436
vt 0.96851367 0.66580456
vt 0.9283098 0.64640343
vt 0.96851367 0.6183773
vt 0.16141832 0.8975809
vt 0.16141832 0.96089536
vt 0.14378184 0.9333254
vt 0.91912127 0.53584665
vt 0.91912127 0.672676
vt 0.8804234 0.55779886
vt 0.31757528 0.88430893
vt 0.34917086 0.82019824
vt 0.3491709 0.9216153
vt 0.9590038 0
vt 0.9590038 0.11800762
vt 0.9210636 0.040668685
vt 0.95839727 0.27790177
vt 0.9886577 0.27093768
vt 0.9886577 0.35846353
vt 0.95229155 0.79087466
vt 0.9039406 0.75590014
vt 0.95229155 0.68280923
vt 0.8569706 0.89982796
vt 0.8829183 0.8892549
vt 0.8829183 0.9938489
vt 0.36096442 0.9809408
vt 0.4075098 0.9607956
vt 0.3588947 0.9575265
vt 0.369392 0.92520255
vt 0.3771086 0.8883843
vt 0.4075098 0.8914479
vt 0.5270722 0.68813974
vt 0.54430145 0.71937054
vt 0.57231295 0.74010444
vt 0.5329712 0.7133354
vt 0.5213672 0.7160483
vt 0.4990259 0.64703196
vt 0.521059 0.6477355
vt 0.57231295 0.6210902
vt 0.39298362 0.61178297
vt 0.4363923 0.541216
vt 0.3588946 0.54126763
vt 0.38259628 0.51508933
vt 0.44708437 0.45777205
vt 0.35943297 0.38027877
vt 0.45028436 0.37733927
vt 0.38207754 0.33254984
vt 0.53066176 0.5399611
vt 0.54357386 0.47318318
vt 0.59004575 0.5701486
vt 0.59004575 0.3564206
vt 0.4765397 0.28180492
vt 0.527813 0.26165715
vt 0.5264617 0.17587008
vt 0.43756214 0.28139699
vt 0.41167656 0.2809121
vt 0.4031181 0.3257705
vt 0.42691 0.20106666
vt 0.48573887 0.07598537
vt 0.5317059 0.09830561
vt 0.54340035 0.012144742
vt 0.41421005 3.046471E-08
vt 0.8233897 0.81884515
vt 0.8947522 0.87994784
vt 0.8380794 0.79222435
vt 0.75919056 0.7267464
vt 0.79670596 0.70665777
vt 0.75950646 0.70673996
vt 0.803943 0.6889256
vt 0.841158 0.69899017
vt 0.89475226 0.69672364
vt 0.87079096 0.80151844
vt 0.8660454 0.6828093
vt 0.09310532 0.802555
vt 0.16801077 0.7953374
vt 0.12556495 0.72438186
vt 0.026040358 0.7997428
vt 0.052987453 0.71688
vt 0.086323686 0.64679164
vt 0.15040804 0.61200655
vt 0.019966839 0.6235478
vt 0.089004435 0.59260225
vt 0.08959459 0.5458116
vt 6.015232E-08 0.54828095
vt 0.08550134 0.5054018
vt 0.16801077 0.45642403
vt 0.82160306 0.23527387
vt 0.91187495 0.2616305
vt 0.8785964 0.17643519
vt 0.8049671 0.15148313
vt 0.85996854 0.08438009
vt 0.911246 0.08578497
vt 0.91187495 0.0028682526
vt 0.8709122 3.046471E-08
vt 0.09789549 0.25051716
vt 0.13116886 0.34432486
vt 0.16033816 0.22789456
vt 0.049894422 0.18504778
vt 0.07739943 0.13376983
vt 0 0.101133585
vt 0.13330956 0.13581291
vt 0.21659958 0.24239016
vt 0.16608825 0.3124507
vt 0.24976975 0.35344645
vt 0.25481075 0.22602086
vt 0.1860694 0.36288005
vt 0.13116886 0.34432486
vt 0.23294322 0.4035151
vt 0.34970608 0.4471169
vt 0.29160568 0.44181484
vt 0.30976734 0.30876765
vt 0.34858796 0.33234903
vt 0.34877276 0.39573345
vt 0.34870827 0.269106
vt 0.34905258 0.17866798
vt 0.2605541 0.14002824
vt 0.22303613 0.1529811
vt 0.3494948 0.14017203
vt 0.21396372 0.02751256
vt 0.34920633 0.07600799
vt 0.29144904 0.022317717
vt 0.34970608 0
vt 0.38429728 0.77760273
vt 0.36951953 0.6804159
vt 0.3588947 0.73239607
vt 0.48983765 0.7665424
vt 0.46186814 0.6618539
vt 0.48983765 0.6210902
vt 0.4339861 0.81697726
vt 0.39901102 0.8790773
vt 0.7500021 0.74025494
vt 0.6760147 0.75673467
vt 0.7008218 0.78769267
vt 0.73089904 0.64271283
vt 0.6582754 0.6532317
vt 0.64760154 0.7460554
vt 0.65432703 0.77218586
vt 0.6561025 0.55081415
vt 0.7122202 0.5215398
vt 0.59923416 0.53459376
vt 0.6407047 0.5178718
vt 0.7033843 0.50708
vt 0.6171612 0.46747392
vt 0.67556334 0.46324593
vt 0.6534468 0.37864077
vt 0.74511176 0.39836925
vt 0.7500021 0.46568456
vt 0.7316233 0.5429811
vt 0.56953835 0.83960843
vt 0.56953835 0.74941146
vt 0.52703404 0.76323533
vt 0.5583597 0.8618026
vt 0.50707406 0.83131546
vt 0.4990259 0.7894004
vt 0.843614 0.30382556
vt 0.87173325 0.3583391
vt 0.8776816 0.31122676
vt 0.8434859 0.3522023
vt 0.8049671 0.30388892
vt 0.80789423 0.3583391
vt 0.81610477 0.2726733
vt 0.8499164 0.27093756
vt 1 0.68280923
vt 0.96148014 0.6968634
vt 0.96148014 0.744935
vt 1 0.74078554
vt 0.953209 0.80018187
vt 0.9039406 0.83439285
vt 0.953209 0.868638
vt 0.9222943 0.90617955
vt 0.6674861 0.798815
vt 0.730205 0.82059234
vt 0.71701837 0.79699963
vt 0.6532963 0.8831631
vt 0.61280245 0.8302191
vt 0.72696996 0.88637024
vt 0.5992342 0.86706394
vt 0.730205 0.9619857
vt 0.6907086 0.969811
vt 0.6589565 0.23906025
vt 0.63166714 0.36933368
vt 0.708841 0.26865244
vt 0.75177425 0.3355242
vt 0.77262163 0.27562472
vt 0.7120425 0.22720534
vt 0.6700854 0.23198074
vt 0.6687798 0.14423798
vt 0.75500554 0.19355133
vt 0.7706367 0.17965601
vt 0.79577863 0.21007149
vt 0.74549466 0.14924052
vt 0.73454255 0.07315528
vt 0.75664675 0.12261973
vt 0.79577863 0.029209565
vt 0.72930306 0.034244284
vt 0.6210279 0.07891384
vt 0.59923416 0.13749626
vt 0.6227054 0.013777361
vt 0.68517876 0
vt 0.19030221 0.5926166
vt 0.27671725 0.5424171
vt 0.20954877 0.45642403
vt 0.27502987 0.60654753
vt 0.30718705 0.5912737
vt 0.3315822 0.6495408
vt 0.2125061 0.6379783
vt 0.30932727 0.66668975
vt 0.23977989 0.67791736
vt 0.21840945 0.6910608
vt 0.1771991 0.675653
vt 0.1952241 0.7099755
vt 0.22730719 0.7710672
vt 0.2850084 0.7441486
vt 0.32410717 0.72671473
vt 0.3315822 0.8108909
vt 0.12445033 0.88272744
vt 0.118833065 0.91520464
vt 0.13459346 0.92705274
vt 0.029831218 0.8662915
vt 0.04120145 0.84823847
vt 0.13459346 0.8118623
vt 0.014586215 0.85860515
vt 0.006344385 0.91023856
vt 0.055812206 0.9167029
vt 0.07597911 0.9405134
vt 0.10054917 0.9524297
vt 0.03373438 0.91510206
vt 0.016143437 0.91420496
vt 0.025230289 0.94425434
vt 0.008589751 0.9476432
vt 0 0.94567424
vt 0.4166982 0.8883844
vt 0.42541498 0.9261302
vt 0.44437116 0.8972779
vt 0.4784857 0.9142962
vt 0.45555466 0.9547197
vt 0.41865915 0.9547197
vt 0.923967 0.5265394
vt 0.8858247 0.38635334
vt 0.88042325 0.48831704
vt 0.9273596 0.40759468
vt 0.97330445 0.47121757
vt 0.97330445 0.37864053
vt 0.87123483 0.6485235
vt 0.8210195 0.5904178
vt 0.8273133 0.6735019
vt 0.7629219 0.5992589
vt 0.82242316 0.48842975
vt 0.87123483 0.47961864
vt 0.75919056 0.4700137
vt 0.8339568 0.46264127
vt 0.76616776 0.4473538
vt 0.78633755 0.37864053
vt 0.9958276 0.9154867
vt 0.97140336 0.970249
vt 0.9958276 0.97698194
vt 0.95606023 0.91680205
vt 0.9538918 0.9701389
vt 0.75919056 0.93168813
vt 0.77940774 0.97460806
vt 0.79962325 0.96114165
vt 0.7757094 0.92720497
vt 0.7992231 0.92929655
vt 0.7808211 0.8964899
vt 0.79962325 0.8892549
vt 0.9447032 0.98594135
vt 0.9447032 0.9154867
vt 0.92055905 0.96472645
vt 0.9137541 0.9182853
vt 0.9039406 0.92054886
vt 0.91369635 0.9668703
vt 0.9916219 0.86281574
vt 0.9623976 0.82055163
vt 0.9627488 0.8498158
vt 0.9916219 0.80018175
vt 0.80881166 0.9151965
vt 0.8349308 0.9297713
vt 0.8477822 0.8892547
vt 0.811724 0.9402521
vt 0.8477822 0.94809693
vt 0.8154087 0.97162884
vt 0.94920886 0.28810272
vt 0.9198775 0.27093756
vt 0.9492088 0.34555
vt 0.8876546 0.3388034
vt 0.8868701 0.2958499
vt 0.96805406 0.5391982
vt 0.92830974 0.5358466
vt 0.9459171 0.57954276
vt 0.96805406 0.60907036
vt 0.36096442 0.9809408
vt 0.3588947 0.9575265
vt 0.4075098 0.9607956
vt 0.369392 0.92520255
vt 0.3771086 0.8883843
vt 0.4075098 0.8914479
vt 0.5270722 0.68813974
vt 0.57231295 0.74010444
vt 0.54430145 0.71937054
vt 0.5329712 0.7133354
vt 0.5213672 0.7160483
vt 0.4990259 0.64703196
vt 0.521059 0.6477355
vt 0.57231295 0.6210902
vt 0.39298362 0.61178297
vt 0.3588946 0.54126763
vt 0.4363923 0.541216
vt 0.38259628 0.51508933
vt 0.44708437 0.45777205
vt 0.35943297 0.38027877
vt 0.45028436 0.37733927
vt 0.38207754 0.33254984
vt 0.53066176 0.5399611
vt 0.54357386 0.47318318
vt 0.59004575 0.5701486
vt 0.59004575 0.3564206
vt 0.4765397 0.28180492
vt 0.527813 0.26165715
vt 0.5264617 0.17587008
vt 0.43756214 0.28139699
vt 0.41167656 0.2809121
vt 0.4031181 0.3257705
vt 0.42691 0.20106666
vt 0.48573887 0.07598537
vt 0.5317059 0.09830561
vt 0.54340035 0.012144742
vt 0.41421005 3.046471E-08
vt 0.8233897 0.81884515
vt 0.8380794 0.79222435
vt 0.8947522 0.87994784
vt 0.75919056 0.7267464
vt 0.79670596 0.70665777
vt 0.75950646 0.70673996
vt 0.803943 0.6889256
vt 0.841158 0.69899017
vt 0.89475226 0.69672364
vt 0.87079096 0.80151844
vt 0.8660454 0.6828093
vt 0.09310532 0.802555
vt 0.12556495 0.72438186
vt 0.16801077 0.7953374
vt 0.026040358 0.7997428
vt 0.052987453 0.71688
vt 0.086323686 0.64679164
vt 0.15040804 0.61200655
vt 0.019966839 0.6235478
vt 0.089004435 0.59260225
vt 0.08959459 0.5458116
vt 6.015232E-08 0.54828095
vt 0.08550134 0.5054018
vt 0.16801077 0.45642403
vt 0.82160306 0.23527387
vt 0.8785964 0.17643519
vt 0.91187495 0.2616305
vt 0.8049671 0.15148313
vt 0.85996854 0.08438009
vt 0.911246 0.08578497
vt 0.91187495 0.0028682526
vt 0.8709122 3.046471E-08
vt 0.09789549 0.25051716
vt 0.16033816 0.22789456
vt 0.13116886 0.34432486
vt 0.049894422 0.18504778
vt 0.07739943 0.13376983
vt 0 0.101133585
vt 0.13330956 0.13581291
vt 0.21659958 0.24239016
vt 0.16608825 0.3124507
vt 0.24976975 0.35344645
vt 0.25481075 0.22602086
vt 0.1860694 0.36288005
vt 0.13116886 0.34432486
vt 0.23294322 0.4035151
vt 0.34970608 0.4471169
vt 0.29160568 0.44181484
vt 0.30976734 0.30876765
vt 0.34858796 0.33234903
vt 0.34877276 0.39573345
vt 0.34870827 0.269106
vt 0.34905258 0.17866798
vt 0.2605541 0.14002824
vt 0.22303613 0.1529811
vt 0.3494948 0.14017203
vt 0.21396372 0.02751256
vt 0.34920633 0.07600799
vt 0.29144904 0.022317717
vt 0.34970608 0
vt 0.38429728 0.77760273
vt 0.3588947 0.73239607
vt 0.36951953 0.6804159
vt 0.48983765 0.7665424
vt 0.46186814 0.6618539
vt 0.48983765 0.6210902
vt 0.4339861 0.81697726
vt 0.39901102 0.8790773
vt 0.7500021 0.74025494
vt 0.7008218 0.78769267
vt 0.6760147 0.75673467
vt 0.73089904 0.64271283
vt 0.6582754 0.6532317
vt 0.64760154 0.7460554
vt 0.65432703 0.77218586
vt 0.6561025 0.55081415
vt 0.7122202 0.5215398
vt 0.59923416 0.53459376
vt 0.6407047 0.5178718
vt 0.7033843 0.50708
vt 0.6171612 0.46747392
vt 0.67556334 0.46324593
vt 0.6534468 0.37864077
vt 0.74511176 0.39836925
vt 0.7500021 0.46568456
vt 0.7316233 0.5429811
vt 0.56953835 0.83960843
vt 0.52703404 0.76323533
vt 0.56953835 0.74941146
vt 0.5583597 0.8618026
vt 0.50707406 0.83131546
vt 0.4990259 0.7894004
vt 0.843614 0.30382556
vt 0.8776816 0.31122676
vt 0.87173325 0.3583391
vt 0.8434859 0.3522023
vt 0.8049671 0.30388892
vt 0.80789423 0.3583391
vt 0.81610477 0.2726733
vt 0.8499164 0.27093756
vt 1 0.68280923
vt 1 0.74078554
vt 0.96148014 0.744935
vt 0.96148014 0.6968634
vt 0.953209 0.80018187
vt 0.953209 0.868638
vt 0.9039406 0.83439285
vt 0.9222943 0.90617955
vt 0.6674861 0.798815
vt 0.71701837 0.79699963
vt 0.730205 0.82059234
vt 0.6532963 0.8831631
vt 0.61280245 0.8302191
vt 0.72696996 0.88637024
vt 0.5992342 0.86706394
vt 0.730205 0.9619857
vt 0.6907086 0.969811
vt 0.6589565 0.23906025
vt 0.708841 0.26865244
vt 0.63166714 0.36933368
vt 0.75177425 0.3355242
vt 0.77262163 0.27562472
vt 0.7120425 0.22720534
vt 0.6700854 0.23198074
vt 0.6687798 0.14423798
vt 0.75500554 0.19355133
vt 0.7706367 0.17965601
vt 0.79577863 0.21007149
vt 0.74549466 0.14924052
vt 0.73454255 0.07315528
vt 0.75664675 0.12261973
vt 0.79577863 0.029209565
vt 0.72930306 0.034244284
vt 0.6210279 0.07891384
vt 0.59923416 0.13749626
vt 0.6227054 0.013777361
vt 0.68517876 0
vt 0.19030221 0.5926166
vt 0.20954877 0.45642403
vt 0.27671725 0.5424171
vt 0.27502987 0.60654753
vt 0.30718705 0.5912737
vt 0.3315822 0.6495408
vt 0.2125061 0.6379783
vt 0.30932727 0.66668975
vt 0.23977989 0.67791736
vt 0.21840945 0.6910608
vt 0.1771991 0.675653
vt 0.1952241 0.7099755
vt 0.22730719 0.7710672
vt 0.2850084 0.7441486
vt 0.32410717 0.72671473
vt 0.3315822 0.8108909
vt 0.12445033 0.88272744
vt 0.13459346 0.92705274
vt 0.118833065 0.91520464
vt 0.029831218 0.8662915
vt 0.04120145 0.84823847
vt 0.13459346 0.8118623
vt 0.014586215 0.85860515
vt 0.006344385 0.91023856
vt 0.055812206 0.9167029
vt 0.07597911 0.9405134
vt 0.10054917 0.9524297
vt 0.03373438 0.91510206
vt 0.016143437 0.91420496
vt 0.025230289 0.94425434
vt 0.008589751 0.9476432
vt 0 0.94567424
vt 0.4166982 0.8883844
vt 0.44437116 0.8972779
vt 0.42541498 0.9261302
vt 0.4784857 0.9142962
vt 0.45555466 0.9547197
vt 0.41865915 0.9547197
vt 0.923967 0.5265394
vt 0.88042325 0.48831704
vt 0.8858247 0.38635334
vt 0.9273596 0.40759468
vt 0.97330445 0.47121757
vt 0.97330445 0.37864053
vt 0.87123483 0.6485235
vt 0.8273133 0.6735019
vt 0.8210195 0.5904178
vt 0.7629219 0.5992589
vt 0.82242316 0.48842975
vt 0.87123483 0.47961864
vt 0.75919056 0.4700137
vt 0.8339568 0.46264127
vt 0.76616776 0.4473538
vt 0.78633755 0.37864053
vt 0.9958276 0.9154867
vt 0.9958276 0.97698194
vt 0.97140336 0.970249
vt 0.95606023 0.91680205
vt 0.9538918 0.9701389
vt 0.75919056 0.93168813
vt 0.79962325 0.96114165
vt 0.77940774 0.97460806
vt 0.7757094 0.92720497
vt 0.7992231 0.92929655
vt 0.7808211 0.8964899
vt 0.79962325 0.8892549
vt 0.9447032 0.98594135
vt 0.92055905 0.96472645
vt 0.9447032 0.9154867
vt 0.9137541 0.9182853
vt 0.9039406 0.92054886
vt 0.91369635 0.9668703
vt 0.9916219 0.86281574
vt 0.9627488 0.8498158
vt 0.9623976 0.82055163
vt 0.9916219 0.80018175
vt 0.80881166 0.9151965
vt 0.8477822 0.8892547
vt 0.8349308 0.9297713
vt 0.811724 0.9402521
vt 0.8477822 0.94809693
vt 0.8154087 0.97162884
vt 0.94920886 0.28810272
vt 0.9492088 0.34555
vt 0.9198775 0.27093756
vt 0.8876546 0.3388034
vt 0.8868701 0.2958499
vt 0.96805406 0.5391982
vt 0.96805406 0.60907036
vt 0.9459171 0.57954276
vt 0.92830974 0.5358466
vt 0.96215004 0.18739347
vt 0.94284713 0.17622434
vt 0.96215004 0.22513403
vt 0.96215004 0.14965288
vt 0.9210635 0.19511597
vt 0.92354435 0.12731466
vt 0.27914968 0.96139646
vt 0.30838683 0.8762738
vt 0.23766533 0.87951136
vt 0.18261339 0.96139646
vt 0.24230355 0.8201981
vt 0.17719921 0.84876394
vt 0.27914968 0.96139646
vt 0.23766533 0.87951136
vt 0.30838683 0.8762738
vt 0.18261339 0.96139646
vt 0.24230355 0.8201981
vt 0.17719921 0.84876394
vt 0.9210635 0.19511597
vt 0.92354435 0.12731466
vt 0.94284713 0.17622434
vt 0.96215004 0.22513403
vt 0.96215004 0.14965288
vt 0.96215004 0.18739347
vn 0.13142742 -0.8675348 0.3370604
vn 0.18403159 -0.9351181 0.30279607
vn 0.228966 -0.843577 -0.30371594
vn 0.26028726 0.8209044 -0.30564898
vn 0.47981718 0.7659092 0.10437376
vn 0.30810747 0.36032972 -0.7292712
vn 0.78240514 -0.5064127 -0.24620259
vn 0.3252008 -0.8747148 -0.22083154
vn 0.578214 -0.68156457 -0.3006061
vn -0.070780516 -0.026766077 0.9797718
vn 0.6786783 -0.011217788 0.7206388
vn 0.31219137 -0.27302355 0.9089672
vn 0.5354259 -0.8364019 0.021857895
vn 0.013933953 -0.9730541 -0.16260946
vn 0.032382373 -0.89605075 -0.41856968
vn -0.81951004 -0.3984179 0.3192956
vn -0.48680803 -0.7669986 0.1993962
vn -0.12663114 -0.69234216 0.64138436
vn -0.016910747 0.4603464 -0.8875772
vn 0.31996307 -0.61044955 -0.7225037
vn 0.6597993 0.32305074 -0.67645156
vn 0.97820544 -0.030437779 0.20531625
vn 0.5009715 -0.7003846 -0.5026523
vn 0.83408386 -0.36385798 -0.4022608
vn 0.69291186 -0.70365155 -0.090329155
vn 0.48958692 -0.6967289 -0.46552873
vn 0.95554096 -0.2570745 0.11676531
vn 0.8226971 0.08631487 0.5532451
vn 0.5853771 0.7399313 0.14453524
vn 0.27987546 0.80845416 -0.33703077
vn -0.9882716 -0.036027476 0.14839455
vn -0.81951004 -0.3984179 0.3192956
vn -0.34984303 0.024106279 0.936498
vn 0.2921061 0.519311 0.7277889
vn -0.05739663 -0.26162082 0.9288178
vn -0.03903261 0.31728742 0.90046924
vn -0.18835938 -0.3450163 -0.8796097
vn 0.062124 0.3698524 -0.883597
vn 0.06708663 -0.1299398 -0.9504019
vn -0.27498794 -0.80117214 -0.49026883
vn -0.29832515 -0.15651643 -0.86072624
vn -0.36468485 -0.5666624 -0.7388491
vn -0.12073667 0.8212205 0.3468659
vn -0.15390696 0.8021592 -0.2206068
vn -0.43855253 0.731422 0.27025563
vn -0.77236116 -0.37515458 -0.38380492
vn -0.5698756 -0.53263146 -0.5082878
vn -0.31085226 -0.8116389 -0.25668222
vn -0.070780516 -0.026766077 0.9797718
vn -0.43861496 -0.27496573 0.85454935
vn -0.77482456 -0.028295241 0.611264
vn -0.5290719 -0.83897275 -0.05512368
vn 0.032382373 -0.89605075 -0.41856968
vn 0.013933953 -0.9730541 -0.16260946
vn 0.6975089 -0.26139385 -0.6665257
vn -0.08881011 -0.85689443 -0.5072606
vn 0.32697448 -0.46821183 -0.8202411
vn 0.09144719 -0.9294345 -0.35747293
vn -0.600991 -0.74222076 -0.2962577
vn -0.31765568 -0.68020225 0.6605024
vn -0.9927392 0.120280966 -7.247925E-05
vn -0.82673126 -0.44167566 0.30751485
vn -0.49804026 -0.6889436 0.5263121
vn -0.7296204 -0.1953446 0.6176319
vn -0.978512 -0.03060288 0.11758271
vn -0.4781365 -0.68894225 0.31336725
vn -0.8771922 -0.25693256 0.38831156
vn -0.105316155 0.7116885 0.687581
vn -0.5058436 0.4409137 0.7194438
vn 0.92538 -0.26688778 -0.26915216
vn 0.122237325 -0.8084345 -0.5757524
vn 0.6975089 -0.26139385 -0.6665257
vn -0.36724073 0.34976614 0.8175351
vn -0.03903261 0.31728742 0.90046924
vn -0.05739663 -0.26162082 0.9288178
vn 0.28612345 -0.67885745 -0.49952465
vn 0.06708663 -0.1299398 -0.9504019
vn 0.062124 0.3698524 -0.883597
vn -0.6819713 -0.2160125 0.6987513
vn 0.25851956 -0.465378 0.84651685
vn -0.8384454 -0.51092637 -0.18963893
vn -0.4161924 -0.771826 0.48069498
vn -0.11111714 -0.96615046 -0.23282006
vn 0.5064206 -0.84899783 0.15079904
vn -0.85724497 0.36438787 0.36380246
vn -0.8384454 -0.51092637 -0.18963893
vn -0.4161924 -0.771826 0.48069498
vn -0.9725825 -0.17512691 -0.1530148
vn -0.6819713 -0.2160125 0.6987513
vn -0.34984303 0.024106279 0.936498
vn -0.9882716 -0.036027476 0.14839455
vn -0.3384969 -0.12122047 -0.9331266
vn 0.13142742 -0.8675348 0.3370604
vn 0.228966 -0.843577 -0.30371594
vn 0.578214 -0.68156457 -0.3006061
vn 0.78240514 -0.5064127 -0.24620259
vn 0.9466092 -0.27270302 0.07408157
vn 0.60900563 -0.73504263 -0.17194533
vn 0.95554096 -0.2570745 0.11676531
vn 0.48958692 -0.6967289 -0.46552873
vn 0.30810747 0.36032972 -0.7292712
vn 0.9227002 0.2993899 0.061379854
vn 0.47981718 0.7659092 0.10437376
vn 0.7436884 0.6035889 0.16314217
vn 0.9716935 0.15843679 0.17477584
vn 0.50074583 0.7802319 0.34048823
vn 0.77281535 0.37886178 0.49778473
vn 0.9846751 -0.17135036 0.029893313
vn 0.7798874 -0.55359465 -0.28112903
vn 0.69291186 -0.70365155 -0.090329155
vn 0.83408386 -0.36385798 -0.4022608
vn 0.97820544 -0.030437779 0.20531625
vn 0.32898927 0.58009577 0.74515396
vn 0.4904091 0.70009077 0.50329256
vn 0.9573701 0.23326242 -0.16811219
vn -0.34738883 -0.3963274 -0.84332025
vn 0.83408386 -0.36385798 -0.4022608
vn 0.5009715 -0.7003846 -0.5026523
vn -0.8184074 0.1834369 -0.5443355
vn -0.19788444 -0.67286694 -0.712806
vn -0.77242017 0.2428151 -0.58686256
vn -0.016910747 0.4603464 -0.8875772
vn 0.31996307 -0.61044955 -0.7225037
vn 0.9573701 0.23326242 -0.16811219
vn 0.97820544 -0.030437779 0.20531625
vn 0.6597993 0.32305074 -0.67645156
vn -0.62368757 0.7678123 -0.12421477
vn -0.4455347 0.77599406 0.42369175
vn -0.9000437 0.30022287 0.3137731
vn -0.8184074 0.1834369 -0.5443355
vn -0.34738883 -0.3963274 -0.84332025
vn -0.94535536 0.22295524 -0.23132652
vn -0.30029732 0.627794 0.679549
vn -0.61451 -0.41036344 -0.64663845
vn -0.97872376 0.19775759 -0.013743442
vn -0.7510208 0.5175109 -0.37023488
vn -0.18835938 -0.3450163 -0.8796097
vn 0.062124 0.3698524 -0.883597
vn 0.0295723 0.86214757 -0.4162221
vn 0.50074583 0.7802319 0.34048823
vn -0.7510208 0.5175109 -0.37023488
vn -0.30029732 0.627794 0.679549
vn 0.77281535 0.37886178 0.49778473
vn 0.32898927 0.58009577 0.74515396
vn -0.9000437 0.30022287 0.3137731
vn -0.4455347 0.77599406 0.42369175
vn 0.4904091 0.70009077 0.50329256
vn 0.8016053 0.46238437 0.3020587
vn 0.8226971 0.08631487 0.5532451
vn 0.27987546 0.80845416 -0.33703077
vn 0.786929 0.40362117 -0.31292662
vn 0.23577967 -0.024395674 -0.8396171
vn 0.7681336 -0.20399821 -0.6069228
vn -0.4242109 0.09740448 -0.7930087
vn 0.26028726 0.8209044 -0.30564898
vn 0.5853771 0.7399313 0.14453524
vn 0.2921061 0.519311 0.7277889
vn 0.47981718 0.7659092 0.10437376
vn 0.4040726 0.36415666 0.7782932
vn 0.8226971 0.08631487 0.5532451
vn 0.36383748 -0.31915972 0.83270913
vn -0.05739663 -0.26162082 0.9288178
vn 0.4534039 -0.1844987 0.84292364
vn 0.2659632 0.7676425 0.4712085
vn -0.0049301013 0.7496367 0.5789411
vn -0.03903261 0.31728742 0.90046924
vn 0.028735433 0.9025003 0.24003428
vn 0.033059657 0.92922467 0.07396233
vn 0.44698387 0.8176269 0.13482162
vn 0.9227002 0.2993899 0.061379854
vn 0.017703965 0.8888784 0.2891945
vn 0.7436884 0.6035889 0.16314217
vn -0.0077167773 0.82086957 0.46599856
vn 0.079800345 0.9236203 0.19968835
vn 0.0295723 0.86214757 -0.4162221
vn -0.81951004 -0.3984179 0.3192956
vn 0.228966 -0.843577 -0.30371594
vn -0.48680803 -0.7669986 0.1993962
vn -0.4242109 0.09740448 -0.7930087
vn 0.30810747 0.36032972 -0.7292712
vn 0.26028726 0.8209044 -0.30564898
vn -0.8392678 -0.41590655 -0.29299697
vn -0.9882716 -0.036027476 0.14839455
vn 0.25851956 -0.465378 0.84651685
vn 0.88330907 -0.4599542 -0.09059324
vn 0.5064206 -0.84899783 0.15079904
vn 0.7378198 -0.030768603 0.67429614
vn 0.7681336 -0.20399821 -0.6069228
vn 0.49546516 -0.11357453 -0.86117065
vn 0.20269251 -0.57360005 -0.79366136
vn 0.96770114 0.17549464 0.14450043
vn 0.46771643 0.07136792 0.768393
vn 0.786929 0.40362117 -0.31292662
vn 0.81019574 0.38778165 0.32879817
vn 0.3364171 -0.010911614 0.8500251
vn 0.8016053 0.46238437 0.3020587
vn 0.73753947 -0.31128293 0.5805149
vn 0.8226971 0.08631487 0.5532451
vn 0.46611127 -0.60570365 0.6314383
vn 0.18403159 -0.9351181 0.30279607
vn -0.12663114 -0.69234216 0.64138436
vn 0.49546516 -0.11357453 -0.86117065
vn 0.7681336 -0.20399821 -0.6069228
vn -0.3384969 -0.12122047 -0.9331266
vn 0.20269251 -0.57360005 -0.79366136
vn -0.40665683 -0.01637876 -0.9134342
vn -0.37682924 0.63900656 -0.6705746
vn -0.11111714 -0.96615046 -0.23282006
vn -0.84195876 -0.50472206 0.19068326
vn -0.4161924 -0.771826 0.48069498
vn -0.659619 -0.5794866 -0.47864115
vn 0.20269251 -0.57360005 -0.79366136
vn -0.40665683 -0.01637876 -0.9134342
vn 0.88330907 -0.4599542 -0.09059324
vn 0.5064206 -0.84899783 0.15079904
vn -0.4161924 -0.771826 0.48069498
vn -0.84195876 -0.50472206 0.19068326
vn -0.8969519 0.38826698 0.21148443
vn -0.85724497 0.36438787 0.36380246
vn 0.228966 -0.843577 -0.30371594
vn 0.18403159 -0.9351181 0.30279607
vn -0.48680803 -0.7669986 0.1993962
vn -0.12663114 -0.69234216 0.64138436
vn -0.016910747 0.4603464 -0.8875772
vn -0.8184074 0.1834369 -0.5443355
vn -0.77242017 0.2428151 -0.58686256
vn 0.052370586 0.9762161 -0.1973037
vn 0.6597993 0.32305074 -0.67645156
vn -0.62368757 0.7678123 -0.12421477
vn 0.9573701 0.23326242 -0.16811219
vn -0.4455347 0.77599406 0.42369175
vn 0.4904091 0.70009077 0.50329256
vn 0.78240514 -0.5064127 -0.24620259
vn 0.60900563 -0.73504263 -0.17194533
vn 0.3252008 -0.8747148 -0.22083154
vn -0.0001505334 -0.9467481 -0.10916324
vn -0.0035690889 -0.9733809 0.059239417
vn 0.12578383 -0.939573 0.056208402
vn 0.578214 -0.68156457 -0.3006061
vn 0.13142742 -0.8675348 0.3370604
vn 0.022053398 -0.9383113 0.18514931
vn 0.5327397 -0.54833996 -0.5910549
vn 0.0422697 -0.66530293 -0.7017188
vn 0.550511 -0.7969883 0.07280591
vn 0.17089544 -0.8345205 0.40635693
vn 0.67680544 -0.6654427 0.25417975
vn 0.4534039 -0.1844987 0.84292364
vn 0.36383748 -0.31915972 0.83270913
vn 0.46611127 -0.60570365 0.6314383
vn 0.18403159 -0.9351181 0.30279607
vn 0.8226971 0.08631487 0.5532451
vn 0.4040726 0.36415666 0.7782932
vn 0.60900563 -0.73504263 -0.17194533
vn 0.022282982 -0.92444587 -0.30958638
vn -0.0001505334 -0.9467481 -0.10916324
vn 0.39954126 -0.58610916 -0.6519183
vn 0.05144731 -0.6256159 -0.72504324
vn 0.06708663 -0.1299398 -0.9504019
vn 0.48958692 -0.6967289 -0.46552873
vn -0.18835938 -0.3450163 -0.8796097
vn 0.06102567 -0.7567979 -0.6164954
vn 0.40552476 -0.72011626 -0.5424287
vn 0.69291186 -0.70365155 -0.090329155
vn 0.7798874 -0.55359465 -0.28112903
vn 0.83408386 -0.36385798 -0.4022608
vn 0.08660764 -0.60510767 -0.7736739
vn -0.61451 -0.41036344 -0.64663845
vn -0.34738883 -0.3963274 -0.84332025
vn 0.6786783 -0.011217788 0.7206388
vn 0.811031 -0.15229782 0.5608552
vn 0.31219137 -0.27302355 0.9089672
vn 0.978698 -0.094463944 0.1681695
vn 0.67680544 -0.6654427 0.25417975
vn 0.4534039 -0.1844987 0.84292364
vn 0.550511 -0.7969883 0.07280591
vn 0.89176834 -0.082724765 -0.425409
vn 0.91340035 -0.39104262 0.09030992
vn 0.75159144 -0.6491774 -0.09362441
vn 0.5579471 -0.7910072 0.25100192
vn 0.91296047 -0.33438313 0.22161153
vn 0.9503531 -0.28301528 0.11361043
vn 0.5070159 -0.80461866 0.27614543
vn 0.60925657 -0.77918625 0.03609371
vn 0.6327214 -0.5302519 -0.54175854
vn -0.070780516 -0.026766077 0.9797718
vn 0.31219137 -0.27302355 0.9089672
vn -0.06247664 -0.46585408 0.8782473
vn -0.022336723 -0.93947816 0.3418788
vn 0.5579471 -0.7910072 0.25100192
vn 0.811031 -0.15229782 0.5608552
vn -0.4242109 0.09740448 -0.7930087
vn 0.7681336 -0.20399821 -0.6069228
vn 0.23577967 -0.024395674 -0.8396171
vn -0.3384969 -0.12122047 -0.9331266
vn -0.8392678 -0.41590655 -0.29299697
vn -0.9882716 -0.036027476 0.14839455
vn -0.6819713 -0.2160125 0.6987513
vn -0.34984303 0.024106279 0.936498
vn 0.25851956 -0.465378 0.84651685
vn 0.7378198 -0.030768603 0.67429614
vn -0.25287998 0.1156272 0.89845794
vn -0.81951004 -0.3984179 0.3192956
vn 0.46771643 0.07136792 0.768393
vn -0.12663114 -0.69234216 0.64138436
vn 0.3364171 -0.010911614 0.8500251
vn 0.73753947 -0.31128293 0.5805149
vn 0.4534039 -0.1844987 0.84292364
vn -0.058669288 -0.3832318 0.8859459
vn -0.05739663 -0.26162082 0.9288178
vn 0.6786783 -0.011217788 0.7206388
vn -0.070780516 -0.026766077 0.9797718
vn 0.60925657 -0.77918625 0.03609371
vn 0.003637338 -0.9820374 -0.02216722
vn 0.013933953 -0.9730541 -0.16260946
vn 0.5070159 -0.80461866 0.27614543
vn 0.5354259 -0.8364019 0.021857895
vn 0.91296047 -0.33438313 0.22161153
vn 0.91340035 -0.39104262 0.09030992
vn 0.89176834 -0.082724765 -0.425409
vn 0.0691032 -0.05513984 -0.9670673
vn 0.6327214 -0.5302519 -0.54175854
vn 0.043631356 -0.7844909 -0.58340144
vn 0.003637338 -0.9820374 -0.02216722
vn 0.60925657 -0.77918625 0.03609371
vn 0.032382373 -0.89605075 -0.41856968
vn 0.4832813 -0.86402553 -0.13302514
vn 0.5354259 -0.8364019 0.021857895
vn -0.022336723 -0.93947816 0.3418788
vn 0.5579471 -0.7910072 0.25100192
vn 0.4832813 -0.86402553 -0.13302514
vn -0.022336723 -0.93947816 0.3418788
vn 0.75159144 -0.6491774 -0.09362441
vn 0.5354259 -0.8364019 0.021857895
vn 0.91340035 -0.39104262 0.09030992
vn -0.84195876 -0.50472206 0.19068326
vn -0.659619 -0.5794866 -0.47864115
vn -0.8969519 0.38826698 0.21148443
vn -0.37682924 0.63900656 -0.6705746
vn -0.40665683 -0.01637876 -0.9134342
vn -0.85724497 0.36438787 0.36380246
vn -0.8969519 0.38826698 0.21148443
vn -0.37682924 0.63900656 -0.6705746
vn -0.3384969 -0.12122047 -0.9331266
vn 0.49530706 -0.5367737 -0.6830404
vn 0.8481417 0.307535 -0.43136746
vn -0.45894864 -0.33954054 -0.8210224
vn 0.2755861 0.012286574 -0.9611976
vn 0.14113621 0.74006593 -0.6575578
vn -0.5461161 0.47743002 -0.68834394
vn 0.7565439 -0.65187633 -0.051944494
vn 0.2755861 0.012286574 -0.9611976
vn 0.8481417 0.307535 -0.43136746
vn 0.9773693 0.054879367 -0.20429793
vn 0.49530706 -0.5367737 -0.6830404
vn 0.122237325 -0.8084345 -0.5757524
vn 0.92538 -0.26688778 -0.26915216
vn 0.54403657 0.74383664 0.3882408
vn -0.27498794 -0.80117214 -0.49026883
vn -0.5698756 -0.53263146 -0.5082878
vn -0.29832515 -0.15651643 -0.86072624
vn -0.77236116 -0.37515458 -0.38380492
vn -0.96793735 -0.1372176 -0.13531615
vn -0.58880955 -0.69241464 -0.32465047
vn -0.978512 -0.03060288 0.11758271
vn -0.4781365 -0.68894225 0.31336725
vn -0.15390696 0.8021592 -0.2206068
vn -0.9055826 0.38885868 0.12087117
vn -0.43855253 0.731422 0.27025563
vn -0.7196976 0.41540465 -0.39736336
vn -0.9678814 0.09705399 -0.23091656
vn -0.47031063 0.31879932 -0.78495413
vn -0.7879215 0.49547407 -0.31970716
vn -0.99392086 -0.033109453 0.102766454
vn -0.7941318 -0.33347884 0.48987663
vn -0.7296204 -0.1953446 0.6176319
vn -0.82673126 -0.44167566 0.30751485
vn -0.9927392 0.120280966 -7.247925E-05
vn -0.3586644 0.8464882 -0.39346778
vn -0.4793111 0.5335194 -0.69626045
vn -0.9301369 -0.24281365 -0.27539077
vn 0.39595565 -0.8782545 0.20670328
vn -0.49804026 -0.6889436 0.5263121
vn -0.82673126 -0.44167566 0.30751485
vn 0.85566616 -0.51150846 -0.07862133
vn 0.19350278 -0.6233792 0.75759864
vn 0.8154787 -0.5631944 -0.13344067
vn 0.09144719 -0.9294345 -0.35747293
vn -0.31765568 -0.68020225 0.6605024
vn -0.9301369 -0.24281365 -0.27539077
vn -0.9927392 0.120280966 -7.247925E-05
vn -0.600991 -0.74222076 -0.2962577
vn 0.6764027 -0.136492 -0.7235603
vn 0.88576627 0.4414022 -0.14320819
vn 0.46320966 0.5196228 -0.7172095
vn 0.85566616 -0.51150846 -0.07862133
vn 0.39595565 -0.8782545 0.20670328
vn 0.9733273 -0.11005614 -0.17768243
vn 0.28541368 0.71941674 -0.5048172
vn 0.6353729 -0.6213849 0.36198822
vn 0.98755956 0.07065098 -0.116466954
vn 0.8119335 -0.12929523 -0.49878597
vn 0.28612345 -0.67885745 -0.49952465
vn 0.062124 0.3698524 -0.883597
vn 0.0295723 0.86214757 -0.4162221
vn -0.47031063 0.31879932 -0.78495413
vn 0.28541368 0.71941674 -0.5048172
vn 0.8119335 -0.12929523 -0.49878597
vn -0.7879215 0.49547407 -0.31970716
vn -0.3586644 0.8464882 -0.39346778
vn 0.88576627 0.4414022 -0.14320819
vn 0.46320966 0.5196228 -0.7172095
vn -0.4793111 0.5335194 -0.69626045
vn -0.7690561 -0.022726089 0.6377988
vn -0.105316155 0.7116885 0.687581
vn -0.8771922 -0.25693256 0.38831156
vn -0.6451042 0.505391 0.5717908
vn -0.02683299 0.96354115 0.26329547
vn -0.6096957 0.730832 0.3068474
vn 0.59578156 0.80160207 0.039399564
vn -0.12073667 0.8212205 0.3468659
vn -0.5058436 0.4409137 0.7194438
vn -0.36724073 0.34976614 0.8175351
vn -0.43855253 0.731422 0.27025563
vn -0.46488792 -0.17675728 0.82722294
vn -0.8771922 -0.25693256 0.38831156
vn -0.4784791 -0.4772579 0.68589205
vn -0.05739663 -0.26162082 0.9288178
vn -0.5660234 -0.24912587 0.7552227
vn -0.30530223 0.7104331 0.5378296
vn -0.0049301013 0.7496367 0.5789411
vn -0.03903261 0.31728742 0.90046924
vn 0.028735433 0.9025003 0.24003428
vn 0.033059657 0.92922467 0.07396233
vn -0.42893514 0.7776152 0.33456
vn -0.9055826 0.38885868 0.12087117
vn 0.017703965 0.8888784 0.2891945
vn -0.7196976 0.41540465 -0.39736336
vn -0.0077167773 0.82086957 0.46599856
vn -0.04974935 0.6489152 -0.47971717
vn 0.0295723 0.86214757 -0.4162221
vn 0.6975089 -0.26139385 -0.6665257
vn 0.32697448 -0.46821183 -0.8202411
vn -0.29832515 -0.15651643 -0.86072624
vn 0.59578156 0.80160207 0.039399564
vn -0.15390696 0.8021592 -0.2206068
vn -0.12073667 0.8212205 0.3468659
vn 0.8679286 0.33061975 -0.37009364
vn 0.92538 -0.26688778 -0.26915216
vn -0.45894864 -0.33954054 -0.8210224
vn -0.5461161 0.47743002 -0.68834394
vn -0.8476931 0.4996544 -0.17821835
vn -0.87522066 -0.38083243 -0.2982539
vn -0.6096957 0.730832 0.3068474
vn -0.2833372 0.82830185 0.4833582
vn -0.024541318 0.9992535 0.029820502
vn -0.96380484 -0.03570074 0.26337934
vn -0.625609 -0.7789986 0.028004706
vn -0.6451042 0.505391 0.5717908
vn -0.8259958 -0.28649628 0.4843596
vn -0.49763018 -0.85182416 0.16052708
vn -0.7690561 -0.022726089 0.6377988
vn -0.86256015 -0.50338364 -0.049923062
vn -0.8771922 -0.25693256 0.38831156
vn -0.6377991 -0.7237439 -0.25132495
vn -0.36468485 -0.5666624 -0.7388491
vn -0.08881011 -0.85689443 -0.5072606
vn -0.2833372 0.82830185 0.4833582
vn 0.54403657 0.74383664 0.3882408
vn -0.6096957 0.730832 0.3068474
vn -0.024541318 0.9992535 0.029820502
vn 0.60800683 0.65390813 0.4502573
vn 0.5367427 0.07747021 0.8401817
vn 0.14113621 0.74006593 -0.6575578
vn 0.2755861 0.012286574 -0.9611976
vn 0.76299834 0.0055164397 -0.6463768
vn 0.74018526 0.60588515 -0.29159686
vn -0.024541318 0.9992535 0.029820502
vn 0.60800683 0.65390813 0.4502573
vn -0.8476931 0.4996544 -0.17821835
vn -0.5461161 0.47743002 -0.68834394
vn 0.2755861 0.012286574 -0.9611976
vn 0.7565439 -0.65187633 -0.051944494
vn 0.83119166 -0.55383426 0.04886678
vn 0.76299834 0.0055164397 -0.6463768
vn -0.29832515 -0.15651643 -0.86072624
vn 0.32697448 -0.46821183 -0.8202411
vn -0.36468485 -0.5666624 -0.7388491
vn -0.08881011 -0.85689443 -0.5072606
vn 0.09144719 -0.9294345 -0.35747293
vn 0.8154787 -0.5631944 -0.13344067
vn 0.85566616 -0.51150846 -0.07862133
vn 0.018894833 -0.28294018 -0.95880556
vn -0.600991 -0.74222076 -0.2962577
vn 0.6764027 -0.136492 -0.7235603
vn -0.9301369 -0.24281365 -0.27539077
vn 0.46320966 0.5196228 -0.7172095
vn -0.4793111 0.5335194 -0.69626045
vn -0.77236116 -0.37515458 -0.38380492
vn -0.31085226 -0.8116389 -0.25668222
vn -0.58880955 -0.69241464 -0.32465047
vn -0.0001505334 -0.9467481 -0.10916324
vn -0.0035690889 -0.9733809 0.059239417
vn -0.14672498 -0.95997226 -0.10329184
vn -0.5698756 -0.53263146 -0.5082878
vn -0.27498794 -0.80117214 -0.49026883
vn -0.055325627 -0.96690327 0.09122223
vn -0.45173594 -0.49752957 -0.71027136
vn 0.0422697 -0.66530293 -0.7017188
vn -0.56632805 -0.791316 -0.107136935
vn -0.24453288 -0.9183216 0.17117083
vn -0.71231675 -0.67057633 0.09032482
vn -0.5660234 -0.24912587 0.7552227
vn -0.4784791 -0.4772579 0.68589205
vn -0.6377991 -0.7237439 -0.25132495
vn -0.36468485 -0.5666624 -0.7388491
vn -0.8771922 -0.25693256 0.38831156
vn -0.46488792 -0.17675728 0.82722294
vn -0.58880955 -0.69241464 -0.32465047
vn -0.0001505334 -0.9467481 -0.10916324
vn 0.022282982 -0.92444587 -0.30958638
vn -0.33801046 -0.7917064 -0.21077365
vn 0.05144731 -0.6256159 -0.72504324
vn 0.06708663 -0.1299398 -0.9504019
vn -0.4781365 -0.68894225 0.31336725
vn 0.28612345 -0.67885745 -0.49952465
vn -0.06010542 -0.70215535 0.6144432
vn -0.41157728 -0.5977907 0.6382646
vn -0.7296204 -0.1953446 0.6176319
vn -0.7941318 -0.33347884 0.48987663
vn -0.82673126 -0.44167566 0.30751485
vn -0.073378034 -0.7461656 0.60197365
vn 0.6353729 -0.6213849 0.36198822
vn 0.39595565 -0.8782545 0.20670328
vn -0.77482456 -0.028295241 0.611264
vn -0.43861496 -0.27496573 0.85454935
vn -0.88266134 -0.15644091 0.43832242
vn -0.99484617 -0.08052763 0.015795723
vn -0.71231675 -0.67057633 0.09032482
vn -0.5660234 -0.24912587 0.7552227
vn -0.56632805 -0.791316 -0.107136935
vn -0.82251805 -0.07005233 -0.55127
vn -0.9151915 -0.39523217 -0.04171501
vn -0.7270596 -0.65287226 -0.2006729
vn -0.5842071 -0.7939841 0.16819848
vn -0.93421453 -0.3377306 0.0870631
vn -0.9559954 -0.28573054 -0.025319077
vn -0.5379277 -0.80704165 0.20067284
vn -0.604821 -0.7819058 -0.05150456
vn -0.5461631 -0.5327776 -0.6267091
vn -0.070780516 -0.026766077 0.9797718
vn -0.06247664 -0.46585408 0.8782473
vn -0.43861496 -0.27496573 0.85454935
vn -0.022336723 -0.93947816 0.3418788
vn -0.5842071 -0.7939841 0.16819848
vn -0.88266134 -0.15644091 0.43832242
vn 0.59578156 0.80160207 0.039399564
vn -0.02683299 0.96354115 0.26329547
vn -0.6096957 0.730832 0.3068474
vn 0.54403657 0.74383664 0.3882408
vn 0.8679286 0.33061975 -0.37009364
vn 0.92538 -0.26688778 -0.26915216
vn 0.49530706 -0.5367737 -0.6830404
vn -0.45894864 -0.33954054 -0.8210224
vn 0.122237325 -0.8084345 -0.5757524
vn -0.87522066 -0.38083243 -0.2982539
vn 0.033433184 -0.917068 -0.39639524
vn 0.6975089 -0.26139385 -0.6665257
vn -0.625609 -0.7789986 0.028004706
vn -0.08881011 -0.85689443 -0.5072606
vn -0.49763018 -0.85182416 0.16052708
vn -0.86256015 -0.50338364 -0.049923062
vn -0.5660234 -0.24912587 0.7552227
vn -0.05739663 -0.26162082 0.9288178
vn -0.058669288 -0.3832318 0.8859459
vn -0.77482456 -0.028295241 0.611264
vn -0.070780516 -0.026766077 0.9797718
vn -0.604821 -0.7819058 -0.05150456
vn 0.013933953 -0.9730541 -0.16260946
vn 0.003637338 -0.9820374 -0.02216722
vn -0.5379277 -0.80704165 0.20067284
vn -0.5290719 -0.83897275 -0.05512368
vn -0.93421453 -0.3377306 0.0870631
vn -0.9151915 -0.39523217 -0.04171501
vn -0.82251805 -0.07005233 -0.55127
vn -0.5461631 -0.5327776 -0.6267091
vn 0.0691032 -0.05513984 -0.9670673
vn 0.043631356 -0.7844909 -0.58340144
vn 0.003637338 -0.9820374 -0.02216722
vn -0.604821 -0.7819058 -0.05150456
vn 0.032382373 -0.89605075 -0.41856968
vn -0.5290719 -0.83897275 -0.05512368
vn -0.45462 -0.8664449 -0.2009969
vn -0.022336723 -0.93947816 0.3418788
vn -0.5842071 -0.7939841 0.16819848
vn -0.022336723 -0.93947816 0.3418788
vn -0.45462 -0.8664449 -0.2009969
vn -0.7270596 -0.65287226 -0.2006729
vn -0.5290719 -0.83897275 -0.05512368
vn -0.9151915 -0.39523217 -0.04171501
vn 0.76299834 0.0055164397 -0.6463768
vn 0.83119166 -0.55383426 0.04886678
vn 0.74018526 0.60588515 -0.29159686
vn 0.5367427 0.07747021 0.8401817
vn 0.60800683 0.65390813 0.4502573
vn 0.7565439 -0.65187633 -0.051944494
vn 0.54403657 0.74383664 0.3882408
vn 0.5367427 0.07747021 0.8401817
vn 0.83119166 -0.55383426 0.04886678
vn 0.5327397 -0.54833996 -0.5910549
vn 0.46659544 0.25728548 -0.8035527
vn 0.550511 -0.7969883 0.07280591
vn 0.0422697 -0.66530293 -0.7017188
vn 0.89176834 -0.082724765 -0.425409
vn 0.0691032 -0.05513984 -0.9670673
vn 0.50074583 0.7802319 0.34048823
vn 0.7436884 0.6035889 0.16314217
vn 0.049808823 0.8326677 -0.4615047
vn -0.7510208 0.5175109 -0.37023488
vn 0.079800345 0.9236203 0.19968835
vn 0.0295723 0.86214757 -0.4162221
vn -0.47031063 0.31879932 -0.78495413
vn 0.042234994 0.16829035 -0.85212564
vn -0.7196976 0.41540465 -0.39736336
vn 0.8119335 -0.12929523 -0.49878597
vn -0.04974935 0.6489152 -0.47971717
vn 0.0295723 0.86214757 -0.4162221
vn -0.82251805 -0.07005233 -0.55127
vn 0.0691032 -0.05513984 -0.9670673
vn -0.35060775 0.31682184 -0.8512536
vn -0.56632805 -0.791316 -0.107136935
vn 0.0422697 -0.66530293 -0.7017188
vn -0.45173594 -0.49752957 -0.71027136
g 0.7000_0
f 3/3/3 2/2/2 1/1/1
f 6/6/6 5/5/5 4/4/4
f 9/9/9 8/8/8 7/7/7
f 12/12/12 11/11/11 10/10/10
f 15/15/15 14/14/14 13/13/13
f 18/18/18 17/17/17 16/16/16
f 21/21/21 20/20/20 19/19/19
f 24/24/24 23/23/23 22/22/22
f 27/27/27 26/26/26 25/25/25
f 30/30/30 29/29/29 28/28/28
f 33/33/33 32/32/32 31/31/31
f 36/36/36 35/35/35 34/34/34
f 39/39/39 38/38/38 37/37/37
f 42/42/42 41/41/41 40/40/40
f 45/45/45 44/44/44 43/43/43
f 48/48/48 47/47/47 46/46/46
f 51/51/51 50/50/50 49/49/49
f 54/54/54 53/53/53 52/52/52
f 57/57/57 56/56/56 55/55/55
f 60/60/60 59/59/59 58/58/58
f 63/63/63 62/62/62 61/61/61
f 66/66/66 65/65/65 64/64/64
f 69/69/69 68/68/68 67/67/67
f 72/72/72 71/71/71 70/70/70
f 75/75/75 74/74/74 73/73/73
f 78/78/78 77/77/77 76/76/76
f 81/81/81 80/80/80 79/79/79
f 81/81/81 82/82/82 80/80/80
f 82/82/82 83/83/83 80/80/80
f 83/83/83 84/84/84 80/80/80
f 87/87/87 86/86/86 85/85/85
f 86/86/86 88/88/88 85/85/85
f 86/86/86 89/89/89 88/88/88
f 85/85/85 88/88/88 89/89/89
f 89/89/89 90/90/90 85/85/85
f 90/90/90 91/91/91 85/85/85
f 85/85/85 91/91/91 92/92/92
f 95/95/95 94/94/94 93/93/93
f 94/94/94 95/95/95 96/96/96
f 94/94/94 96/96/96 97/97/97
f 96/96/96 98/98/98 97/97/97
f 97/97/97 98/98/98 99/99/99
f 100/100/100 99/99/99 98/98/98
f 97/97/97 101/101/101 94/94/94
f 97/97/97 102/102/102 101/101/101
f 102/102/102 97/97/97 99/99/99
f 102/102/102 103/103/103 101/101/101
f 99/99/99 104/104/104 102/102/102
f 104/104/104 99/99/99 105/105/105
f 105/105/105 106/106/106 104/104/104
f 105/105/105 107/107/107 106/106/106
f 105/105/105 99/99/99 108/108/108
f 109/109/109 108/108/108 99/99/99
f 110/110/110 109/109/109 99/99/99
f 109/109/109 111/111/111 108/108/108
f 105/105/105 108/108/108 111/111/111
f 111/111/111 107/107/107 105/105/105
f 112/112/112 107/107/107 111/111/111
f 107/107/107 112/112/112 113/113/113
f 112/112/112 114/114/114 113/113/113
f 112/112/112 115/115/115 114/114/114
f 118/118/118 117/117/117 116/116/116
f 119/119/119 118/118/118 116/116/116
f 118/118/118 119/119/119 120/120/120
f 120/120/120 119/119/119 121/121/121
f 122/122/122 120/120/120 121/121/121
f 120/120/120 122/122/122 123/123/123
f 123/123/123 118/118/118 120/120/120
f 123/123/123 124/124/124 118/118/118
f 118/118/118 124/124/124 125/125/125
f 124/124/124 123/123/123 126/126/126
f 129/129/129 128/128/128 127/127/127
f 129/129/129 127/127/127 130/130/130
f 131/131/131 129/129/129 130/130/130
f 129/129/129 131/131/131 132/132/132
f 129/129/129 132/132/132 133/133/133
f 131/131/131 134/134/134 132/132/132
f 133/133/133 132/132/132 135/135/135
f 135/135/135 132/132/132 134/134/134
f 133/133/133 135/135/135 136/136/136
f 135/135/135 134/134/134 136/136/136
f 136/136/136 134/134/134 137/137/137
f 136/136/136 137/137/137 138/138/138
f 136/136/136 138/138/138 139/139/139
f 142/142/142 141/141/141 140/140/140
f 142/142/142 140/140/140 143/143/143
f 143/143/143 144/144/144 142/142/142
f 145/145/145 142/142/142 144/144/144
f 146/146/146 145/145/145 144/144/144
f 147/147/147 146/146/146 144/144/144
f 150/150/150 149/149/149 148/148/148
f 148/148/148 151/151/151 150/150/150
f 152/152/152 150/150/150 151/151/151
f 152/152/152 151/151/151 153/153/153
f 150/150/150 152/152/152 154/154/154
f 154/154/154 155/155/155 150/150/150
f 156/156/156 150/150/150 155/155/155
f 155/155/155 157/157/157 156/156/156
f 157/157/157 155/155/155 158/158/158
f 156/156/156 157/157/157 159/159/159
f 160/160/160 156/156/156 159/159/159
f 159/159/159 157/157/157 161/161/161
f 162/162/162 161/161/161 157/157/157
f 162/162/162 163/163/163 161/161/161
f 164/164/164 157/157/157 158/158/158
f 164/164/164 165/165/165 157/157/157
f 165/165/165 166/166/166 157/157/157
f 167/167/167 165/165/165 164/164/164
f 168/168/168 167/167/167 164/164/164
f 164/164/164 158/158/158 168/168/168
f 169/169/169 168/168/168 158/158/158
f 169/169/169 158/158/158 170/170/170
f 169/169/169 171/171/171 168/168/168
f 170/170/170 172/172/172 169/169/169
f 173/173/173 171/171/171 169/169/169
f 172/172/172 174/174/174 169/169/169
f 169/169/169 174/174/174 173/173/173
f 175/175/175 173/173/173 174/174/174
f 178/178/178 177/177/177 176/176/176
f 176/176/176 177/177/177 179/179/179
f 180/180/180 179/179/179 177/177/177
f 181/181/181 179/179/179 180/180/180
f 179/179/179 182/182/182 176/176/176
f 176/176/176 182/182/182 183/183/183
f 186/186/186 185/185/185 184/184/184
f 187/187/187 184/184/184 185/185/185
f 188/188/188 187/187/187 185/185/185
f 188/188/188 185/185/185 189/189/189
f 189/189/189 185/185/185 190/190/190
f 187/187/187 188/188/188 191/191/191
f 192/192/192 187/187/187 191/191/191
f 188/188/188 193/193/193 191/191/191
f 192/192/192 191/191/191 194/194/194
f 193/193/193 194/194/194 191/191/191
f 195/195/195 192/192/192 194/194/194
f 193/193/193 196/196/196 194/194/194
f 195/195/195 194/194/194 196/196/196
f 197/197/197 195/195/195 196/196/196
f 196/196/196 198/198/198 197/197/197
f 197/197/197 198/198/198 199/199/199
f 197/197/197 199/199/199 200/200/200
f 197/197/197 200/200/200 201/201/201
f 204/204/204 203/203/203 202/202/202
f 202/202/202 205/205/205 204/204/204
f 205/205/205 206/206/206 204/204/204
f 206/206/206 207/207/207 204/204/204
f 210/210/210 209/209/209 208/208/208
f 209/209/209 211/211/211 208/208/208
f 208/208/208 211/211/211 212/212/212
f 211/211/211 213/213/213 212/212/212
f 214/214/214 208/208/208 212/212/212
f 214/214/214 215/215/215 208/208/208
f 218/218/218 217/217/217 216/216/216
f 219/219/219 218/218/218 216/216/216
f 222/222/222 221/221/221 220/220/220
f 222/222/222 223/223/223 221/221/221
f 226/226/226 225/225/225 224/224/224
f 225/225/225 227/227/227 224/224/224
f 224/224/224 227/227/227 228/228/228
f 229/229/229 227/227/227 225/225/225
f 228/228/228 227/227/227 230/230/230
f 227/227/227 229/229/229 231/231/231
f 232/232/232 230/230/230 227/227/227
f 227/227/227 231/231/231 232/232/232
f 235/235/235 234/234/234 233/233/233
f 236/236/236 234/234/234 235/235/235
f 235/235/235 237/237/237 236/236/236
f 238/238/238 237/237/237 235/235/235
f 235/235/235 239/239/239 238/238/238
f 238/238/238 239/239/239 240/240/240
f 241/241/241 237/237/237 238/238/238
f 237/237/237 241/241/241 242/242/242
f 243/243/243 237/237/237 242/242/242
f 242/242/242 241/241/241 244/244/244
f 238/238/238 244/244/244 241/241/241
f 238/238/238 240/240/240 244/244/244
f 244/244/244 240/240/240 245/245/245
f 245/245/245 246/246/246 244/244/244
f 247/247/247 246/246/246 245/245/245
f 247/247/247 245/245/245 248/248/248
f 245/245/245 240/240/240 249/249/249
f 249/249/249 248/248/248 245/245/245
f 249/249/249 240/240/240 250/250/250
f 249/249/249 251/251/251 248/248/248
f 248/248/248 251/251/251 252/252/252
f 255/255/255 254/254/254 253/253/253
f 254/254/254 256/256/256 253/253/253
f 257/257/257 256/256/256 254/254/254
f 257/257/257 258/258/258 256/256/256
f 256/256/256 259/259/259 253/253/253
f 258/258/258 260/260/260 256/256/256
f 259/259/259 256/256/256 260/260/260
f 259/259/259 260/260/260 261/261/261
f 261/261/261 262/262/262 259/259/259
f 259/259/259 262/262/262 263/263/263
f 262/262/262 264/264/264 263/263/263
f 262/262/262 265/265/265 264/264/264
f 266/266/266 261/261/261 260/260/260
f 261/261/261 266/266/266 262/262/262
f 266/266/266 265/265/265 262/262/262
f 267/267/267 266/266/266 260/260/260
f 266/266/266 268/268/268 265/265/265
f 267/267/267 268/268/268 266/266/266
f 271/271/271 270/270/270 269/269/269
f 269/269/269 270/270/270 272/272/272
f 273/273/273 269/269/269 272/272/272
f 274/274/274 269/269/269 273/273/273
f 273/273/273 272/272/272 275/275/275
f 275/275/275 272/272/272 276/276/276
f 277/277/277 272/272/272 270/270/270
f 270/270/270 278/278/278 277/277/277
f 279/279/279 278/278/278 270/270/270
f 280/280/280 272/272/272 277/277/277
f 281/281/281 272/272/272 280/280/280
f 272/272/272 281/281/281 276/276/276
f 280/280/280 282/282/282 281/281/281
f 282/282/282 283/283/283 281/281/281
f 276/276/276 281/281/281 283/283/283
f 284/284/284 276/276/276 283/283/283
f 287/287/287 286/286/286 285/285/285
f 287/287/287 288/288/288 286/286/286
f 288/288/288 289/289/289 286/286/286
f 289/289/289 290/290/290 286/286/286
f 293/293/293 292/292/292 291/291/291
f 292/292/292 294/294/294 291/291/291
f 291/291/291 294/294/294 295/295/295
f 296/296/296 295/295/295 294/294/294
f 299/299/299 298/298/298 297/297/297
f 299/299/299 300/300/300 298/298/298
f 298/298/298 300/300/300 301/301/301
f 301/301/301 302/302/302 298/298/298
f 300/300/300 303/303/303 301/301/301
f 301/301/301 304/304/304 302/302/302
f 301/301/301 303/303/303 304/304/304
f 305/305/305 304/304/304 303/303/303
f 305/305/305 306/306/306 304/304/304
f 309/309/309 308/308/308 307/307/307
f 310/310/310 307/307/307 308/308/308
f 311/311/311 310/310/310 308/308/308
f 314/314/314 313/313/313 312/312/312
f 315/315/315 314/314/314 312/312/312
f 316/316/316 314/314/314 315/315/315
f 316/316/316 315/315/315 317/317/317
f 318/318/318 316/316/316 317/317/317
f 321/321/321 320/320/320 319/319/319
f 321/321/321 322/322/322 320/320/320
f 323/323/323 322/322/322 321/321/321
f 324/324/324 323/323/323 321/321/321
f 327/327/327 326/326/326 325/325/325
f 325/325/325 326/326/326 328/328/328
f 331/331/331 330/330/330 329/329/329
f 330/330/330 332/332/332 329/329/329
f 332/332/332 330/330/330 333/333/333
f 334/334/334 332/332/332 333/333/333
f 337/337/337 336/336/336 335/335/335
f 337/337/337 338/338/338 336/336/336
f 339/339/339 336/336/336 338/338/338
f 342/342/342 341/341/341 340/340/340
f 343/343/343 342/342/342 340/340/340
f 346/346/346 345/345/345 344/344/344
f 347/347/347 345/345/345 346/346/346
f 348/348/348 347/347/347 346/346/346
f 349/349/349 348/348/348 346/346/346
f 352/352/352 351/351/351 350/350/350
f 353/353/353 352/352/352 350/350/350
f 354/354/354 352/352/352 353/353/353
f 353/353/353 350/350/350 354/354/354
f 355/355/355 354/354/354 350/350/350
f 356/356/356 355/355/355 350/350/350
f 356/356/356 350/350/350 357/357/357
f 360/360/360 359/359/359 358/358/358
f 359/359/359 360/360/360 361/361/361
f 361/361/361 360/360/360 362/362/362
f 363/363/363 361/361/361 362/362/362
f 363/363/363 362/362/362 364/364/364
f 364/364/364 365/365/365 363/363/363
f 366/366/366 362/362/362 360/360/360
f 367/367/367 362/362/362 366/366/366
f 362/362/362 367/367/367 364/364/364
f 368/368/368 367/367/367 366/366/366
f 369/369/369 364/364/364 367/367/367
f 364/364/364 369/369/369 370/370/370
f 371/371/371 370/370/370 369/369/369
f 372/372/372 370/370/370 371/371/371
f 364/364/364 370/370/370 373/373/373
f 373/373/373 374/374/374 364/364/364
f 374/374/374 375/375/375 364/364/364
f 376/376/376 374/374/374 373/373/373
f 373/373/373 370/370/370 376/376/376
f 372/372/372 376/376/376 370/370/370
f 372/372/372 377/377/377 376/376/376
f 377/377/377 372/372/372 378/378/378
f 379/379/379 377/377/377 378/378/378
f 380/380/380 377/377/377 379/379/379
f 383/383/383 382/382/382 381/381/381
f 382/382/382 384/384/384 381/381/381
f 384/384/384 382/382/382 385/385/385
f 384/384/384 385/385/385 386/386/386
f 385/385/385 387/387/387 386/386/386
f 387/387/387 385/385/385 388/388/388
f 382/382/382 388/388/388 385/385/385
f 389/389/389 388/388/388 382/382/382
f 389/389/389 382/382/382 390/390/390
f 388/388/388 389/389/389 391/391/391
f 394/394/394 393/393/393 392/392/392
f 392/392/392 393/393/393 395/395/395
f 393/393/393 396/396/396 395/395/395
f 396/396/396 393/393/393 397/397/397
f 397/397/397 393/393/393 398/398/398
f 399/399/399 396/396/396 397/397/397
f 397/397/397 398/398/398 400/400/400
f 397/397/397 400/400/400 399/399/399
f 400/400/400 398/398/398 401/401/401
f 399/399/399 400/400/400 401/401/401
f 399/399/399 401/401/401 402/402/402
f 402/402/402 401/401/401 403/403/403
f 403/403/403 401/401/401 404/404/404
f 407/407/407 406/406/406 405/405/405
f 405/405/405 406/406/406 408/408/408
f 409/409/409 408/408/408 406/406/406
f 406/406/406 410/410/410 409/409/409
f 410/410/410 411/411/411 409/409/409
f 411/411/411 412/412/412 409/409/409
f 415/415/415 414/414/414 413/413/413
f 416/416/416 413/413/413 414/414/414
f 414/414/414 417/417/417 416/416/416
f 416/416/416 417/417/417 418/418/418
f 417/417/417 414/414/414 419/419/419
f 420/420/420 419/419/419 414/414/414
f 414/414/414 421/421/421 420/420/420
f 422/422/422 420/420/420 421/421/421
f 420/420/420 422/422/422 423/423/423
f 422/422/422 421/421/421 424/424/424
f 421/421/421 425/425/425 424/424/424
f 422/422/422 424/424/424 426/426/426
f 426/426/426 427/427/427 422/422/422
f 428/428/428 427/427/427 426/426/426
f 422/422/422 429/429/429 423/423/423
f 430/430/430 429/429/429 422/422/422
f 431/431/431 430/430/430 422/422/422
f 430/430/430 432/432/432 429/429/429
f 432/432/432 433/433/433 429/429/429
f 423/423/423 429/429/429 433/433/433
f 433/433/433 434/434/434 423/423/423
f 423/423/423 434/434/434 435/435/435
f 436/436/436 434/434/434 433/433/433
f 437/437/437 435/435/435 434/434/434
f 436/436/436 438/438/438 434/434/434
f 439/439/439 437/437/437 434/434/434
f 439/439/439 434/434/434 438/438/438
f 438/438/438 440/440/440 439/439/439
f 443/443/443 442/442/442 441/441/441
f 443/443/443 441/441/441 444/444/444
f 444/444/444 445/445/445 443/443/443
f 444/444/444 446/446/446 445/445/445
f 447/447/447 444/444/444 441/441/441
f 447/447/447 441/441/441 448/448/448
f 451/451/451 450/450/450 449/449/449
f 449/449/449 452/452/452 451/451/451
f 452/452/452 453/453/453 451/451/451
f 451/451/451 453/453/453 454/454/454
f 451/451/451 454/454/454 455/455/455
f 453/453/453 452/452/452 456/456/456
f 452/452/452 457/457/457 456/456/456
f 458/458/458 453/453/453 456/456/456
f 456/456/456 457/457/457 459/459/459
f 459/459/459 458/458/458 456/456/456
f 457/457/457 460/460/460 459/459/459
f 461/461/461 458/458/458 459/459/459
f 459/459/459 460/460/460 461/461/461
f 460/460/460 462/462/462 461/461/461
f 463/463/463 461/461/461 462/462/462
f 463/463/463 462/462/462 464/464/464
f 464/464/464 462/462/462 465/465/465
f 465/465/465 462/462/462 466/466/466
f 469/469/469 468/468/468 467/467/467
f 470/470/470 467/467/467 468/468/468
f 471/471/471 470/470/470 468/468/468
f 472/472/472 471/471/471 468/468/468
f 475/475/475 474/474/474 473/473/473
f 476/476/476 475/475/475 473/473/473
f 476/476/476 473/473/473 477/477/477
f 478/478/478 476/476/476 477/477/477
f 473/473/473 479/479/479 477/477/477
f 480/480/480 479/479/479 473/473/473
f 483/483/483 482/482/482 481/481/481
f 484/484/484 483/483/483 481/481/481
f 487/487/487 486/486/486 485/485/485
f 488/488/488 486/486/486 487/487/487
f 491/491/491 490/490/490 489/489/489
f 492/492/492 491/491/491 489/489/489
f 492/492/492 489/489/489 493/493/493
f 492/492/492 494/494/494 491/491/491
f 492/492/492 493/493/493 495/495/495
f 494/494/494 492/492/492 496/496/496
f 495/495/495 497/497/497 492/492/492
f 496/496/496 492/492/492 497/497/497
f 500/500/500 499/499/499 498/498/498
f 500/500/500 501/501/501 499/499/499
f 502/502/502 499/499/499 501/501/501
f 502/502/502 503/503/503 499/499/499
f 504/504/504 499/499/499 503/503/503
f 504/504/504 503/503/503 505/505/505
f 502/502/502 506/506/506 503/503/503
f 506/506/506 502/502/502 507/507/507
f 502/502/502 508/508/508 507/507/507
f 506/506/506 507/507/507 509/509/509
f 509/509/509 503/503/503 506/506/506
f 505/505/505 503/503/503 509/509/509
f 505/505/505 509/509/509 510/510/510
f 511/511/511 510/510/510 509/509/509
f 511/511/511 512/512/512 510/510/510
f 510/510/510 512/512/512 513/513/513
f 505/505/505 510/510/510 514/514/514
f 513/513/513 514/514/514 510/510/510
f 505/505/505 514/514/514 515/515/515
f 516/516/516 514/514/514 513/513/513
f 516/516/516 513/513/513 517/517/517
f 520/520/520 519/519/519 518/518/518
f 521/521/521 520/520/520 518/518/518
f 521/521/521 522/522/522 520/520/520
f 523/523/523 522/522/522 521/521/521
f 524/524/524 521/521/521 518/518/518
f 525/525/525 523/523/523 521/521/521
f 521/521/521 524/524/524 525/525/525
f 525/525/525 524/524/524 526/526/526
f 527/527/527 526/526/526 524/524/524
f 527/527/527 524/524/524 528/528/528
f 529/529/529 527/527/527 528/528/528
f 530/530/530 527/527/527 529/529/529
f 526/526/526 531/531/531 525/525/525
f 531/531/531 526/526/526 527/527/527
f 530/530/530 531/531/531 527/527/527
f 531/531/531 532/532/532 525/525/525
f 533/533/533 531/531/531 530/530/530
f 533/533/533 532/532/532 531/531/531
f 536/536/536 535/535/535 534/534/534
f 536/536/536 534/534/534 537/537/537
f 534/534/534 538/538/538 537/537/537
f 534/534/534 539/539/539 538/538/538
f 537/537/537 538/538/538 540/540/540
f 537/537/537 540/540/540 541/541/541
f 537/537/537 542/542/542 536/536/536
f 543/543/543 536/536/536 542/542/542
f 543/543/543 544/544/544 536/536/536
f 537/537/537 545/545/545 542/542/542
f 537/537/537 546/546/546 545/545/545
f 546/546/546 537/537/537 541/541/541
f 547/547/547 545/545/545 546/546/546
f 548/548/548 547/547/547 546/546/546
f 546/546/546 541/541/541 548/548/548
f 541/541/541 549/549/549 548/548/548
f 552/552/552 551/551/551 550/550/550
f 553/553/553 551/551/551 552/552/552
f 554/554/554 553/553/553 552/552/552
f 555/555/555 554/554/554 552/552/552
f 558/558/558 557/557/557 556/556/556
f 559/559/559 558/558/558 556/556/556
f 559/559/559 556/556/556 560/560/560
f 560/560/560 561/561/561 559/559/559
f 564/564/564 563/563/563 562/562/562
f 565/565/565 563/563/563 564/564/564
f 565/565/565 564/564/564 566/566/566
f 567/567/567 566/566/566 564/564/564
f 568/568/568 565/565/565 566/566/566
f 569/569/569 566/566/566 567/567/567
f 568/568/568 566/566/566 569/569/569
f 569/569/569 570/570/570 568/568/568
f 571/571/571 570/570/570 569/569/569
f 574/574/574 573/573/573 572/572/572
f 572/572/572 575/575/575 574/574/574
f 575/575/575 576/576/576 574/574/574
f 579/579/579 578/578/578 577/577/577
f 578/578/578 580/580/580 577/577/577
f 578/578/578 581/581/581 580/580/580
f 580/580/580 581/581/581 582/582/582
f 581/581/581 583/583/583 582/582/582
f 586/586/586 585/585/585 584/584/584
f 587/587/587 585/585/585 586/586/586
f 587/587/587 588/588/588 585/585/585
f 588/588/588 589/589/589 585/585/585
f 592/592/592 591/591/591 590/590/590
f 592/592/592 590/590/590 593/593/593
f 596/596/596 595/595/595 594/594/594
f 597/597/597 596/596/596 594/594/594
f 596/596/596 597/597/597 598/598/598
f 597/597/597 599/599/599 598/598/598
f 602/602/602 601/601/601 600/600/600
f 603/603/603 601/601/601 602/602/602
f 602/602/602 604/604/604 603/603/603
f 607/607/607 606/606/606 605/605/605
f 608/608/608 607/607/607 605/605/605
f 611/611/611 610/610/610 609/609/609
f 609/609/609 610/610/610 612/612/612
f 613/613/613 610/610/610 611/611/611
f 610/610/610 614/614/614 612/612/612
f 614/614/614 610/610/610 613/613/613
f 617/617/617 616/616/616 615/615/615
f 618/618/618 617/617/617 615/615/615
f 616/616/616 617/617/617 619/619/619
f 617/617/617 618/618/618 620/620/620
f 620/620/620 619/619/619 617/617/617
f 623/623/623 622/622/622 621/621/621
f 622/622/622 624/624/624 621/621/621
f 622/622/622 623/623/623 625/625/625
f 624/624/624 622/622/622 626/626/626
f 625/625/625 626/626/626 622/622/622
f 629/629/629 628/628/628 627/627/627
f 629/629/629 627/627/627 630/630/630
f 628/628/628 629/629/629 631/631/631
f 629/629/629 630/630/630 632/632/632
f 629/629/629 632/632/632 631/631/631
