g 1.0000
v 0.42265764 -0.56284714 1.9926094
v -0.0074736755 -0.66487926 1.9464462
v 0.004116662 -0.19618732 2.2194893
v 0.11897677 -0.15818559 2.2166462
v 0.69046664 -0.22212908 2.0385692
v 0.006944716 3.5412348E-05 2.2534027
v 0.18954507 -0.059756078 2.2150843
v 0.70208514 0.23827924 2.0464098
v 0.18878803 0.061504122 2.2154896
v 0.43089598 0.61340314 2.0442252
v 0.11672823 0.15927641 2.2181613
v 0.00028982013 0.19621222 2.2230022
v -0.009674016 0.7578684 2.039147
v 1.1674876 1.3186975 0.16944374
v 1.6541165 0.40294945 -0.08154614
v 1.6321304 0.42051798 0.119133204
v 1.2220404 1.3415425 -0.008844273
v 0.23163989 1.7147908 0.15596384
v 0.26484057 1.7499212 -0.0271553
v 0.72504807 -0.4752009 0.9975563
v 0.5498651 -0.73851645 0.9635613
v 0.5509552 -0.7141366 1.3040761
v 0.9016718 -0.2728447 1.3706087
v 0.80979395 -0.3418754 0.95965827
v 0.9036646 -0.24876088 1.1083885
v 1.0297008 0.32975152 1.2553505
v 0.9960958 0.31768966 1.4052705
v 0.83931917 -0.266205 1.7004904
v 0.8769778 0.28884447 1.7159472
v 0.69046664 -0.22212908 2.0385692
v 0.70208514 0.23827924 2.0464098
v 0.83931917 -0.266205 1.7004904
v 0.42265764 -0.56284714 1.9926094
v 0.69046664 -0.22212908 2.0385692
v 0.5079344 -0.663483 1.6336335
v 0.9016718 -0.2728447 1.3706087
v -0.0074736755 -0.66487926 1.9464462
v -0.01651062 -0.760186 1.5880383
v 0.5509552 -0.7141366 1.3040761
v -0.019281585 -0.7973428 1.2644963
v 0.0014519838 -0.88965315 1.0102495
v 0.5498651 -0.73851645 0.9635613
v 0.014360299 0.9354464 1.7046989
v 0.43089598 0.61340314 2.0442252
v -0.009674016 0.7578684 2.039147
v 0.55106133 0.7516551 1.712026
v 0.70208514 0.23827924 2.0464098
v 0.03793911 1.0305926 1.3840868
v 0.8769778 0.28884447 1.7159472
v 0.63038826 0.8262663 1.3940405
v 0.06536548 1.0478494 1.0565284
v 0.9960958 0.31768966 1.4052705
v 0.66523904 0.84082997 1.0705739
v 0.1350739 1.3086842 0.49083444
v 1.0297008 0.32975152 1.2553505
v 0.85107344 1.0302211 0.49969995
v 1.2862235 0.3942989 0.50199974
v 1.1058593 -0.31142068 0.4669921
v 1.1850163 -0.21378249 0.6054295
v 1.3528825 0.17187041 0.6581209
v 1.2856666 0.2933154 0.54538625
v 1.0979826 -0.34820664 0.42045185
v 1.2862235 0.3942989 0.50199974
v 1.0616338 0.2398822 1.2099781
v 1.0297008 0.32975152 1.2553505
v 0.18004699 1.5117686 0.32292023
v 0.85107344 1.0302211 0.49969995
v 0.1350739 1.3086842 0.49083444
v 1.0022466 1.1759605 0.33267146
v 0.23163989 1.7147908 0.15596384
v 1.2862235 0.3942989 0.50199974
v 1.1674876 1.3186975 0.16944374
v 1.4533083 0.41513926 0.31551203
v 1.0979826 -0.34820664 0.42045185
v 1.6321304 0.42051798 0.119133204
v 1.2818248 -0.46621895 0.25074628
v 1.457937 -0.5673642 0.081220314
v 0.8455224 -1.3463966 0.01812417
v -0.07729004 -1.4390602 0.01117751
v -0.087365985 -1.6247513 0.18803732
v 0.7418796 -1.1954938 -0.10497338
v 1.4813823 -0.59176624 -0.099117175
v 1.1418846 1.2236137 -0.10977176
v 0.2790252 1.5771828 -0.13471292
v 0.26484057 1.7499212 -0.0271553
v 1.2220404 1.3415425 -0.008844273
v 1.3118975 -0.5230154 -0.20305882
v 1.6541165 0.40294945 -0.08154614
v 1.4620364 0.35840413 -0.19872007
v 0.84109294 -1.312643 0.19122878
v 0.8455224 -1.3463966 0.01812417
v -0.087365985 -1.6247513 0.18803732
v -0.07994306 -1.5898645 0.37653023
v -0.05650514 -1.4232956 0.51178885
v 0.7487808 -1.1512829 0.3395577
v 1.457937 -0.5673642 0.081220314
v -0.035497464 -1.2616544 0.63821024
v 1.2818248 -0.46621895 0.25074628
v 0.65346116 -0.9922145 0.4835015
v -0.018603446 -1.1248373 0.8000969
v 0.5843097 -0.8620006 0.68455565
v 1.0979826 -0.34820664 0.42045185
v 0.69946915 -0.65315676 0.6683173
v 0.88813967 -0.46421263 0.56547314
v 0.9036646 -0.24876088 1.1083885
v 1.1058593 -0.31142068 0.4669921
v 0.932939 -0.22080642 1.1036985
v 1.1850163 -0.21378249 0.6054295
v 1.0206571 -0.16646266 1.0984815
v 1.4783814 -0.5588716 0.9543953
v 1.3428826 -0.49399626 1.2204146
v 1.631196 -1.032856 1.2474395
v 1.4484749 -0.93512696 1.3363931
v 1.457937 -0.5673642 0.081220314
v 0.8455224 -1.3463966 0.01812417
v 0.84109294 -1.312643 0.19122878
v 1.4813823 -0.59176624 -0.099117175
v 1.6321304 0.42051798 0.119133204
v 1.6541165 0.40294945 -0.08154614
v 0.9036646 -0.24876088 1.1083885
v 0.86425817 -0.10101405 0.87732476
v 0.74237734 -0.19337647 0.9100765
v 0.80979395 -0.3418754 0.95965827
v 0.639218 -0.32555923 0.9404142
v 0.72504807 -0.4752009 0.9975563
v 0.5604157 -0.55753654 0.9112818
v 0.5498651 -0.73851645 0.9635613
v 0.0027243905 -0.7998483 0.8919803
v 0.0014519838 -0.88965315 1.0102495
v 0.88813967 -0.46421263 0.56547314
v 0.8287292 -0.34102082 0.51263994
v 0.86425817 -0.10101405 0.87732476
v 0.9036646 -0.24876088 1.1083885
v 0.6277983 -0.54345465 0.60639286
v 0.6037904 -0.68091327 0.6333394
v 0.5604157 -0.55753654 0.9112818
v 0.74237734 -0.19337647 0.9100765
v 0.639218 -0.32555923 0.9404142
v 0.8287292 -0.34102082 0.51263994
v 0.86425817 -0.10101405 0.87732476
v -0.018603446 -1.1248373 0.8000969
v -0.0061359387 -1.0990995 0.7029727
v 0.6037904 -0.68091327 0.6333394
v 0.5843097 -0.8620006 0.68455565
v 0.6277983 -0.54345465 0.60639286
v 0.69946915 -0.65315676 0.6683173
v 0.8287292 -0.34102082 0.51263994
v 0.88813967 -0.46421263 0.56547314
v 0.56312203 -0.7212137 0.67694616
v -0.0061359387 -1.0990995 0.7029727
v 0.0048904214 -1.0611795 0.75310004
v 0.6037904 -0.68091327 0.6333394
v 0.5488735 -0.6508936 0.80029565
v 0.5604157 -0.55753654 0.9112818
v 0.0024803006 -0.8451672 0.85076934
v 0.00021199416 -0.8108184 0.8597007
v 0.0027243905 -0.7998483 0.8919803
v 0.4496821 -1.7796097 1.804801
v 0.28987896 -1.7994822 2.0350497
v 0.2768546 -1.7556322 2.0379515
v 0.42193255 -1.7090693 1.8186557
v 0.5066767 -1.7082806 1.3661513
v 0.47596902 -1.6443994 1.3875394
v 0.52634317 -1.4495009 1.086278
v 0.49258012 -1.3716364 1.1422131
v 0.5349665 -1.1133611 0.8620674
v 0.504722 -1.0660424 0.92414
v 0.56312203 -0.7212137 0.67694616
v 0.5488735 -0.6508936 0.80029565
v 0.008413156 -1.8025671 1.8080535
v 0.008797825 -1.8701814 2.1186304
v 0.28987896 -1.7994822 2.0350497
v 0.4496821 -1.7796097 1.804801
v 0.008151533 -1.7625145 1.5029923
v 0.5066767 -1.7082806 1.3661513
v 0.0070383092 -1.5347273 1.0943552
v 0.52634317 -1.4495009 1.086278
v 0.5488735 -0.6508936 0.80029565
v 0.004666417 -1.0127156 1.0300622
v 0.0024803006 -0.8451672 0.85076934
v 0.504722 -1.0660424 0.92414
v 0.0061045606 -1.3212627 1.197123
v 0.49258012 -1.3716364 1.1422131
v 0.0048904214 -1.0611795 0.75310004
v 0.5349665 -1.1133611 0.8620674
v 0.56312203 -0.7212137 0.67694616
v 0.005644016 -1.2257724 0.8867081
v 0.52634317 -1.4495009 1.086278
v 0.0070383092 -1.5347273 1.0943552
v 0.008797825 -1.8701814 2.1186304
v 0.008127883 -1.7139084 2.1862998
v 0.2768546 -1.7556322 2.0379515
v 0.28987896 -1.7994822 2.0350497
v 0.42193255 -1.7090693 1.8186557
v 0.2768546 -1.7556322 2.0379515
v 0.008127883 -1.7139084 2.1862998
v 0.00760088 -1.6161801 1.841236
v 0.47596902 -1.6443994 1.3875394
v 0.007291934 -1.5697474 1.4635389
v 0.49258012 -1.3716364 1.1422131
v 0.0061045606 -1.3212627 1.197123
v 0.932939 -0.22080642 1.1036985
v 0.9036646 -0.24876088 1.1083885
v 1.0297008 0.32975152 1.2553505
v 1.0616338 0.2398822 1.2099781
v 1.0206571 -0.16646266 1.0984815
v 1.131643 0.14928955 1.1793252
v 1.3428826 -0.49399626 1.2204146
v 1.449034 -0.24227715 1.2919225
v 1.2856666 0.2933154 0.54538625
v 1.131643 0.14928955 1.1793252
v 1.0616338 0.2398822 1.2099781
v 1.3528825 0.17187041 0.6581209
v 1.449034 -0.24227715 1.2919225
v 1.6428306 -0.25442827 1.0064688
v 1.5152081 -0.841907 1.5005227
v 1.7277223 -0.96394134 1.3986217
v 1.4484749 -0.93512696 1.3363931
v 1.655103 -1.2188364 1.3035086
v 1.631196 -1.032856 1.2474395
v 1.3138914 -1.0779243 1.4194261
v 1.4558164 -1.4246194 1.3861091
v 1.5659926 -1.4701197 1.3486798
v 1.5055251 -2.0023699 1.507978
v 1.4925673 -1.9970183 1.5123804
v 1.3227663 -1.3696733 1.4313092
v 1.2378311 -1.8372107 1.5346761
v 1.2270634 -1.8327639 1.5383338
v 1.2247813 -1.3292079 1.464597
v 0.9792006 -1.7089117 1.532704
v 0.96200454 -1.7018101 1.5385461
v 1.1088793 -1.2756343 1.4438815
v 1.1312603 -1.1043727 1.4409161
v 0.8231642 -1.3852329 1.538723
v 0.8179983 -1.3411744 1.5413713
v 1.4783814 -0.5588716 0.9543953
v 1.7277223 -0.96394134 1.3986217
v 1.6428306 -0.25442827 1.0064688
v 1.631196 -1.032856 1.2474395
v 1.7394887 -1.1886456 1.5199932
v 1.655103 -1.2188364 1.3035086
v 1.7057939 -1.4761701 1.5566229
v 1.5659926 -1.4701197 1.3486798
v 1.5233272 -2.0026383 1.5422088
v 1.5055251 -2.0023699 1.507978
v 1.449034 -0.24227715 1.2919225
v 1.4484749 -0.93512696 1.3363931
v 1.3428826 -0.49399626 1.2204146
v 1.5152081 -0.841907 1.5005227
v 1.3138914 -1.0779243 1.4194261
v 1.3750938 -1.0639092 1.573633
v 1.1312603 -1.1043727 1.4409161
v 1.1233318 -1.1000345 1.5996311
v 0.8179983 -1.3411744 1.5413713
v 0.80297726 -1.3450675 1.57921
v 0.8231642 -1.3852329 1.538723
v 0.80814344 -1.3891265 1.5765618
v 1.1850163 -0.21378249 0.6054295
v 1.4783814 -0.5588716 0.9543953
v 1.6428306 -0.25442827 1.0064688
v 1.3528825 0.17187041 0.6581209
v 1.7277223 -0.96394134 1.3986217
v 1.3750938 -1.0639092 1.573633
v 1.5152081 -0.841907 1.5005227
v 1.7394887 -1.1886456 1.5199932
v 1.5383699 -1.4119711 1.5814211
v 1.7057939 -1.4761701 1.5566229
v 1.5036362 -1.9950881 1.5451252
v 1.5233272 -2.0026383 1.5422088
v 1.3827031 -1.3522797 1.6044781
v 1.2328498 -1.8310516 1.5590738
v 1.2454478 -1.8358822 1.5572078
v 1.2859836 -1.3151922 1.6188037
v 1.1233318 -1.1000345 1.5996311
v 0.97477466 -1.6986895 1.5801946
v 0.9917488 -1.7051985 1.5776805
v 1.1009504 -1.2712953 1.6025963
v 0.80297726 -1.3450675 1.57921
v 0.80814344 -1.3891265 1.5765618
v 1.5383699 -1.4119711 1.5814211
v 1.5036362 -1.9950881 1.5451252
v 1.4925673 -1.9970183 1.5123804
v 1.4558164 -1.4246194 1.3861091
v 1.2247813 -1.3292079 1.464597
v 1.1009504 -1.2712953 1.6025963
v 1.2859836 -1.3151922 1.6188037
v 1.1088793 -1.2756343 1.4438815
v 0.80814344 -1.3891265 1.5765618
v 0.8231642 -1.3852329 1.538723
v 1.5233272 -2.0026383 1.5422088
v 1.5055251 -2.0023699 1.507978
v 1.4925673 -1.9970183 1.5123804
v 1.5036362 -1.9950881 1.5451252
v 1.2378311 -1.8372107 1.5346761
v 1.2270634 -1.8327639 1.5383338
v 1.2328498 -1.8310516 1.5590738
v 1.2454478 -1.8358822 1.5572078
v 1.3827031 -1.3522797 1.6044781
v 1.2328498 -1.8310516 1.5590738
v 1.2270634 -1.8327639 1.5383338
v 1.3227663 -1.3696733 1.4313092
v 1.4558164 -1.4246194 1.3861091
v 1.2378311 -1.8372107 1.5346761
v 1.2454478 -1.8358822 1.5572078
v 1.5383699 -1.4119711 1.5814211
v 0.9792006 -1.7089117 1.532704
v 0.96200454 -1.7018101 1.5385461
v 0.97477466 -1.6986895 1.5801946
v 0.9917488 -1.7051985 1.5776805
v 1.3227663 -1.3696733 1.4313092
v 0.9792006 -1.7089117 1.532704
v 0.9917488 -1.7051985 1.5776805
v 1.3827031 -1.3522797 1.6044781
v 1.2859836 -1.3151922 1.6188037
v 0.97477466 -1.6986895 1.5801946
v 0.96200454 -1.7018101 1.5385461
v 1.2247813 -1.3292079 1.464597
v -0.4502367 -0.5674321 1.9882147
v 0.004116662 -0.19618732 2.2194893
v -0.0074736755 -0.66487926 1.9464462
v -0.11155812 -0.15924774 2.223149
v -0.7252534 -0.22904377 2.0270214
v 0.006944716 3.5412348E-05 2.2534027
v -0.18346888 -0.061474696 2.225474
v -0.7391247 0.23195925 2.0334558
v -0.18422659 0.059785504 2.2257602
v -0.46992943 0.6093309 2.0361633
v -0.11380815 0.15821426 2.2243717
v 0.00028982013 0.19621222 2.2230022
v -0.009674016 0.7578684 2.039147
v -1.1462767 1.3106332 0.15173823
v -1.6152151 0.41095108 0.103984326
v -1.6335732 0.39224952 -0.097450316
v -1.1927238 1.3325322 -0.029232703
v 0.23163989 1.7147908 0.15596384
v 0.26484057 1.7499212 -0.0271553
v -0.91741794 -0.2845189 1.3548951
v -0.5580566 -0.72340274 1.2909901
v -0.54567426 -0.7497599 0.95715314
v -0.7261663 -0.48989034 0.9905726
v -0.8118057 -0.3590265 0.95576143
v -0.9124094 -0.26501805 1.1069014
v -1.0311054 0.3217178 1.2414073
v -1.0071927 0.31037608 1.3850133
v -0.86635417 -0.27507892 1.680665
v -0.9043202 0.28173342 1.6939504
v -0.7252534 -0.22904377 2.0270214
v -0.7391247 0.23195925 2.0334558
v -0.86635417 -0.27507892 1.680665
v -0.7252534 -0.22904377 2.0270214
v -0.4502367 -0.5674321 1.9882147
v -0.53008515 -0.6704588 1.623722
v -0.91741794 -0.2845189 1.3548951
v -0.0074736755 -0.66487926 1.9464462
v -0.01651062 -0.760186 1.5880383
v -0.5580566 -0.72340274 1.2909901
v -0.019281585 -0.7973428 1.2644963
v 0.0014519838 -0.88965315 1.0102495
v -0.54567426 -0.7497599 0.95715314
v 0.014360299 0.9354464 1.7046989
v -0.009674016 0.7578684 2.039147
v -0.46992943 0.6093309 2.0361633
v -0.5807635 0.74675244 1.6975378
v -0.7391247 0.23195925 2.0334558
v 0.03793911 1.0305926 1.3840868
v -0.9043202 0.28173342 1.6939504
v -0.64542973 0.82067555 1.3789765
v 0.06536548 1.0478494 1.0565284
v -1.0071927 0.31037608 1.3850133
v -0.66527295 0.83408016 1.0604553
v 0.1350739 1.3086842 0.49083444
v -1.0311054 0.3217178 1.2414073
v -0.8407865 1.0216936 0.48948684
v -1.2697861 0.38312268 0.491004
v -1.0995446 -0.33188435 0.4726366
v -1.3381618 0.16179928 0.64906275
v -1.1806648 -0.23163414 0.609224
v -1.2691689 0.28143197 0.5354651
v -1.0911815 -0.3688091 0.42618194
v -1.2697861 0.38312268 0.491004
v -1.0619291 0.23099303 1.1992681
v -1.0311054 0.3217178 1.2414073
v 0.18004699 1.5117686 0.32292023
v 0.1350739 1.3086842 0.49083444
v -0.8407865 1.0216936 0.48948684
v -0.9875239 1.167467 0.31939366
v 0.23163989 1.7147908 0.15596384
v -1.2697861 0.38312268 0.491004
v -1.1462767 1.3106332 0.15173823
v -1.4375392 0.40500426 0.3027008
v -1.0911815 -0.3688091 0.42618194
v -1.6152151 0.41095108 0.103984326
v -1.2738183 -0.48423105 0.25254518
v -1.448612 -0.5848744 0.080934316
v -0.83260465 -1.3681995 0.026902206
v -0.087365985 -1.6247513 0.18803732
v -0.07729004 -1.4390602 0.01117751
v -0.7267702 -1.2181469 -0.09623469
v -1.4687876 -0.6102434 -0.10044007
v 0.2790252 1.5771828 -0.13471292
v -1.2956979 -0.54265034 -0.20420548
v -1.6335732 0.39224952 -0.097450316
v -1.1021882 1.2107854 -0.13008247
v 0.26484057 1.7499212 -0.0271553
v -1.1927238 1.3325322 -0.029232703
v -1.438082 0.34485674 -0.21216112
v -0.8302165 -1.332812 0.19957572
v -0.087365985 -1.6247513 0.18803732
v -0.83260465 -1.3681995 0.026902206
v -0.07994306 -1.5898645 0.37653023
v -0.05650514 -1.4232956 0.51178885
v -0.73906773 -1.1696515 0.3470836
v -1.448612 -0.5848744 0.080934316
v -0.035497464 -1.2616544 0.63821024
v -1.2738183 -0.48423105 0.25254518
v -0.6446852 -1.009064 0.49008712
v -0.018603446 -1.1248373 0.8000969
v -0.5775084 -0.87717515 0.69002384
v -1.0911815 -0.3688091 0.42618194
v -0.6945721 -0.6710334 0.6740624
v -0.88295096 -0.4852016 0.57115453
v -0.9124094 -0.26501805 1.1069014
v -1.0995446 -0.33188435 0.4726366
v -0.94176984 -0.23768085 1.1049399
v -1.1806648 -0.23163414 0.609224
v -1.029837 -0.18105179 1.1024697
v -1.4995089 -0.5577222 0.95488524
v -1.37045 -0.49284947 1.2240884
v -1.6814222 -1.0189316 1.2516742
v -1.4979211 -0.92683864 1.3449321
v -1.448612 -0.5848744 0.080934316
v -0.8302165 -1.332812 0.19957572
v -0.83260465 -1.3681995 0.026902206
v -1.4687876 -0.6102434 -0.10044007
v -1.6152151 0.41095108 0.103984326
v -1.6335732 0.39224952 -0.097450316
v -0.9124094 -0.26501805 1.1069014
v -0.7411438 -0.21133728 0.9093497
v -0.86165047 -0.119368404 0.8769289
v -0.8118057 -0.3590265 0.95576143
v -0.6387271 -0.34178287 0.93936104
v -0.7261663 -0.48989034 0.9905726
v -0.5570173 -0.5696348 0.9092072
v -0.54567426 -0.7497599 0.95715314
v 0.0027243905 -0.7998483 0.8919803
v 0.0014519838 -0.88965315 1.0102495
v -0.88295096 -0.4852016 0.57115453
v -0.9124094 -0.26501805 1.1069014
v -0.86165047 -0.119368404 0.8769289
v -0.8197628 -0.36103448 0.51562214
v -0.5570173 -0.5696348 0.9092072
v -0.5967153 -0.6961936 0.6373694
v -0.62043273 -0.5596931 0.6098087
v -0.7411438 -0.21133728 0.9093497
v -0.6387271 -0.34178287 0.93936104
v -0.8197628 -0.36103448 0.51562214
v -0.86165047 -0.119368404 0.8769289
v -0.018603446 -1.1248373 0.8000969
v -0.5967153 -0.6961936 0.6373694
v -0.0061359387 -1.0990995 0.7029727
v -0.5775084 -0.87717515 0.69002384
v -0.62043273 -0.5596931 0.6098087
v -0.6945721 -0.6710334 0.6740624
v -0.8197628 -0.36103448 0.51562214
v -0.88295096 -0.4852016 0.57115453
v -0.55611545 -0.7346112 0.6801581
v 0.0048904214 -1.0611795 0.75310004
v -0.0061359387 -1.0990995 0.7029727
v -0.5967153 -0.6961936 0.6373694
v -0.5431457 -0.6628374 0.8005759
v -0.5570173 -0.5696348 0.9092072
v 0.0024803006 -0.8451672 0.85076934
v 0.00021199416 -0.8108184 0.8597007
v 0.0027243905 -0.7998483 0.8919803
v -0.43304256 -1.7835004 1.8050472
v -0.26030323 -1.7579999 2.0381012
v -0.27294225 -1.801963 2.0352068
v -0.40590826 -1.7127182 1.8188865
v -0.49088693 -1.7127013 1.3663957
v -0.46073663 -1.6485521 1.3877664
v -0.512984 -1.4542043 1.0863967
v -0.47991508 -1.3760312 1.1423326
v -0.5254245 -1.1202906 0.8637918
v -0.49551424 -1.0721769 0.9254689
v -0.55611545 -0.7346112 0.6801581
v -0.5431457 -0.6628374 0.8005759
v 0.008413156 -1.8025671 1.8080535
v -0.27294225 -1.801963 2.0352068
v 0.008797825 -1.8701814 2.1186304
v -0.43304256 -1.7835004 1.8050472
v 0.008151533 -1.7625145 1.5029923
v -0.49088693 -1.7127013 1.3663957
v 0.0070383092 -1.5347273 1.0943552
v -0.512984 -1.4542043 1.0863967
v -0.5431457 -0.6628374 0.8005759
v 0.0024803006 -0.8451672 0.85076934
v 0.004666417 -1.0127156 1.0300622
v -0.49551424 -1.0721769 0.9254689
v 0.0061045606 -1.3212627 1.197123
v -0.47991508 -1.3760312 1.1423326
v 0.0048904214 -1.0611795 0.75310004
v -0.55611545 -0.7346112 0.6801581
v -0.5254245 -1.1202906 0.8637918
v 0.005644016 -1.2257724 0.8867081
v -0.512984 -1.4542043 1.0863967
v 0.0070383092 -1.5347273 1.0943552
v 0.008797825 -1.8701814 2.1186304
v -0.27294225 -1.801963 2.0352068
v -0.26030323 -1.7579999 2.0381012
v 0.008127883 -1.7139084 2.1862998
v -0.40590826 -1.7127182 1.8188865
v 0.008127883 -1.7139084 2.1862998
v -0.26030323 -1.7579999 2.0381012
v 0.00760088 -1.6161801 1.841236
v -0.46073663 -1.6485521 1.3877664
v 0.007291934 -1.5697474 1.4635389
v -0.47991508 -1.3760312 1.1423326
v 0.0061045606 -1.3212627 1.197123
v -0.94176984 -0.23768085 1.1049399
v -1.0311054 0.3217178 1.2414073
v -0.9124094 -0.26501805 1.1069014
v -1.0619291 0.23099303 1.1992681
v -1.029837 -0.18105179 1.1024697
v -1.1324129 0.14086503 1.1728237
v -1.37045 -0.49284947 1.2240884
v -1.4684972 -0.23559707 1.2869982
v -1.2691689 0.28143197 0.5354651
v -1.0619291 0.23099303 1.1992681
v -1.1324129 0.14086503 1.1728237
v -1.3381618 0.16179928 0.64906275
v -1.4684972 -0.23559707 1.2869982
v -1.6529523 -0.24584723 0.99534804
v -1.5662285 -0.82759637 1.5048286
v -1.780046 -0.94303447 1.3980832
v -1.4979211 -0.92683864 1.3449321
v -1.6814222 -1.0189316 1.2516742
v -1.7148247 -1.2025841 1.3104968
v -1.3721848 -1.0732 1.4353
v -1.2950476 -1.3268852 1.4883842
v -1.1764116 -1.2784857 1.470623
v -1.1916192 -1.1065583 1.4635595
v -0.89878464 -1.397548 1.5773343
v -0.891903 -1.3536887 1.5793009
v -1.393443 -1.36404 1.4525447
v -1.0677096 -1.7147074 1.5722585
v -1.0504416 -1.7081866 1.5785483
v -1.5270501 -1.4144914 1.4038796
v -1.6376876 -1.4562693 1.3635811
v -1.6045315 -1.9870939 1.5351862
v -1.5915194 -1.9821801 1.5399259
v -1.331318 -1.8323741 1.5678433
v -1.3205053 -1.8282909 1.5717814
v -1.4995089 -0.5577222 0.95488524
v -1.6529523 -0.24584723 0.99534804
v -1.780046 -0.94303447 1.3980832
v -1.6814222 -1.0189316 1.2516742
v -1.8051068 -1.1645008 1.5233274
v -1.7148247 -1.2025841 1.3104968
v -1.7845109 -1.4523268 1.566679
v -1.6376876 -1.4562693 1.3635811
v -1.623467 -1.985929 1.5687842
v -1.6045315 -1.9870939 1.5351862
v -1.4684972 -0.23559707 1.2869982
v -1.37045 -0.49284947 1.2240884
v -1.4979211 -0.92683864 1.3449321
v -1.5662285 -0.82759637 1.5048286
v -1.3721848 -1.0732 1.4353
v -1.4378936 -1.0535107 1.5870123
v -1.1916192 -1.1065583 1.4635595
v -1.1888434 -1.0992374 1.6223387
v -0.891903 -1.3536887 1.5793009
v -0.87833166 -1.3573968 1.6177018
v -0.89878464 -1.397548 1.5773343
v -0.8852134 -1.4012561 1.6157353
v -1.1806648 -0.23163414 0.609224
v -1.3381618 0.16179928 0.64906275
v -1.6529523 -0.24584723 0.99534804
v -1.4995089 -0.5577222 0.95488524
v -1.780046 -0.94303447 1.3980832
v -1.5662285 -0.82759637 1.5048286
v -1.4378936 -1.0535107 1.5870123
v -1.8051068 -1.1645008 1.5233274
v -1.3607563 -1.3071958 1.6400967
v -1.1888434 -1.0992374 1.6223387
v -1.1736351 -1.2711643 1.6294019
v -0.87833166 -1.3573968 1.6177018
v -0.8852134 -1.4012561 1.6157353
v -1.4583846 -1.3406324 1.6231819
v -1.0644615 -1.703685 1.6196653
v -1.0815951 -1.709553 1.6166967
v -1.615514 -1.3944476 1.5959585
v -1.3269081 -1.8259144 1.5922732
v -1.3396245 -1.8302693 1.59007
v -1.7845109 -1.4523268 1.566679
v -1.6035911 -1.9791217 1.5722277
v -1.623467 -1.985929 1.5687842
v -1.615514 -1.3944476 1.5959585
v -1.5270501 -1.4144914 1.4038796
v -1.5915194 -1.9821801 1.5399259
v -1.6035911 -1.9791217 1.5722277
v -1.2950476 -1.3268852 1.4883842
v -1.3607563 -1.3071958 1.6400967
v -1.1736351 -1.2711643 1.6294019
v -1.1764116 -1.2784857 1.470623
v -0.8852134 -1.4012561 1.6157353
v -0.89878464 -1.397548 1.5773343
v -1.623467 -1.985929 1.5687842
v -1.6035911 -1.9791217 1.5722277
v -1.5915194 -1.9821801 1.5399259
v -1.6045315 -1.9870939 1.5351862
v -1.331318 -1.8323741 1.5678433
v -1.3396245 -1.8302693 1.59007
v -1.3269081 -1.8259144 1.5922732
v -1.3205053 -1.8282909 1.5717814
v -1.4583846 -1.3406324 1.6231819
v -1.393443 -1.36404 1.4525447
v -1.3205053 -1.8282909 1.5717814
v -1.3269081 -1.8259144 1.5922732
v -1.5270501 -1.4144914 1.4038796
v -1.615514 -1.3944476 1.5959585
v -1.3396245 -1.8302693 1.59007
v -1.331318 -1.8323741 1.5678433
v -1.0677096 -1.7147074 1.5722585
v -1.0815951 -1.709553 1.6166967
v -1.0644615 -1.703685 1.6196653
v -1.0504416 -1.7081866 1.5785483
v -1.393443 -1.36404 1.4525447
v -1.4583846 -1.3406324 1.6231819
v -1.0815951 -1.709553 1.6166967
v -1.0677096 -1.7147074 1.5722585
v -1.3607563 -1.3071958 1.6400967
v -1.2950476 -1.3268852 1.4883842
v -1.0504416 -1.7081866 1.5785483
v -1.0644615 -1.703685 1.6196653
vt 0.74890864 0.33473623
vt 0.6717679 0.31027758
vt 0.66713095 0.40442336
vt 0.68728566 0.4108137
vt 0.7965842 0.40015852
vt 0.6663609 0.43831098
vt 0.6997419 0.4279067
vt 0.7965842 0.48155546
vt 0.6997419 0.4491734
vt 0.7489086 0.5478362
vt 0.6872856 0.46649063
vt 0.66713095 0.47324383
vt 0.67176783 0.5736836
vt 0.9637046 0.45414358
vt 0.93541497 0.5978774
vt 0.96895975 0.5964614
vt 0.93010426 0.45405513
vt 0.96895975 0.2798921
vt 0.93541497 0.2779616
vt 0.16803193 0.630366
vt 0.17640781 0.5801308
vt 0.115820885 0.5862611
vt 0.11693096 0.6796261
vt 0.17727995 0.65348226
vt 0.15565658 0.67443293
vt 0.15847087 0.7843158
vt 0.12917185 0.7872804
vt 0.06099415 0.68868005
vt 0.07220554 0.7872804
vt 0.004541397 0.70104825
vt 0.013733864 0.7818932
vt 0.41405088 0.48246205
vt 0.4735523 0.5689744
vt 0.48031563 0.50047475
vt 0.40580213 0.5660057
vt 0.35368103 0.47522599
vt 0.48031563 0.6502857
vt 0.41405088 0.6651749
vt 0.34467483 0.56644106
vt 0.35368103 0.67471635
vt 0.30095118 0.6785831
vt 0.28536028 0.57079065
vt 0.72617555 0.23695126
vt 0.6334386 0.2987338
vt 0.7150438 0.30119494
vt 0.62664795 0.23394963
vt 0.5667885 0.30119494
vt 0.73265326 0.17673379
vt 0.54536 0.23695126
vt 0.6239867 0.17345652
vt 0.73444176 0.11545947
vt 0.5352346 0.17673379
vt 0.6257751 0.11218226
vt 0.7502142 0.008557349
vt 0.53609943 0.14710242
vt 0.61705065 0.0045413673
vt 0.508291 0.008557409
vt 0.6136563 0.78230274
vt 0.59442616 0.80247563
vt 0.6041634 0.87777376
vt 0.6276983 0.8904389
vt 0.6210798 0.77578527
vt 0.6383977 0.9074241
vt 0.51326406 0.89050305
vt 0.508291 0.9074241
vt 0.63353 0.33707404
vt 0.5797186 0.47161484
vt 0.6572782 0.3638705
vt 0.5440047 0.4614408
vt 0.60978174 0.3102777
vt 0.5797185 0.60484517
vt 0.5082909 0.45126677
vt 0.5440047 0.6152253
vt 0.6572782 0.7126719
vt 0.5082909 0.6256056
vt 0.63353 0.73968726
vt 0.60978174 0.7667026
vt 0.10771382 0.06026554
vt 0.27627754 0.042261958
vt 0.27465045 0.004541397
vt 0.13032222 0.090982676
vt 0.004541397 0.20289826
vt 0.13032222 0.49169338
vt 0.27627754 0.53756785
vt 0.27465045 0.57104814
vt 0.10771382 0.51857924
vt 0.040116906 0.21568859
vt 0.004541397 0.37795854
vt 0.040116906 0.36874652
vt 0.46823847 0.17876983
vt 0.49920815 0.16713661
vt 0.4316672 0.0045413375
vt 0.40140402 0.017875373
vt 0.3697834 0.04301536
vt 0.4287382 0.18494064
vt 0.49920815 0.3224484
vt 0.33816284 0.06815541
vt 0.45605665 0.31167978
vt 0.38923794 0.19111145
vt 0.30002677 0.09147996
vt 0.34136087 0.2035042
vt 0.4129051 0.30091113
vt 0.3427356 0.23802859
vt 0.37234122 0.27309045
vt 0.28536028 0.32351992
vt 0.40577763 0.30731925
vt 0.29442835 0.32775104
vt 0.39255768 0.3331457
vt 0.30128193 0.34407
vt 0.3696847 0.4130204
vt 0.316028 0.41050625
vt 0.34918767 0.46614328
vt 0.3190418 0.44240487
vt 0.88015616 0.4308536
vt 0.92102146 0.2779616
vt 0.8883019 0.2813499
vt 0.9127896 0.42904556
vt 0.8883019 0.604403
vt 0.92102146 0.6044296
vt 0.92042327 0.8231498
vt 0.95599186 0.8245685
vt 0.9529158 0.7990128
vt 0.92184687 0.79769146
vt 0.944216 0.7720341
vt 0.9131471 0.77071285
vt 0.9262327 0.7379135
vt 0.8992187 0.71540093
vt 0.95599186 0.6287955
vt 0.9359044 0.61351234
vt 0.4951718 0.690281
vt 0.4716521 0.68766576
vt 0.46115664 0.7574903
vt 0.4951718 0.78983396
vt 0.8263372 0.22392666
vt 0.8312873 0.20070249
vt 0.7756655 0.19722342
vt 0.7595817 0.25615913
vt 0.7592969 0.23126322
vt 0.8312873 0.26076448
vt 0.76217866 0.27623308
vt 0.1528058 0.9954586
vt 0.17297757 0.9805787
vt 0.14940989 0.86111856
vt 0.120639086 0.8822142
vt 0.16705024 0.8451873
vt 0.13673139 0.8455496
vt 0.17297757 0.7963631
vt 0.14265871 0.79672545
vt 0.96449995 0.949986
vt 0.9768403 0.8341253
vt 0.9583186 0.8374158
vt 0.97394526 0.9589685
vt 0.9370234 0.9511169
vt 0.91514146 0.9589685
vt 0.91664225 0.8441341
vt 0.91131157 0.845767
vt 0.9047306 0.84629834
vt 0.24212086 0.62085164
vt 0.26272297 0.58408916
vt 0.25492644 0.58013093
vt 0.23041713 0.6148417
vt 0.21321535 0.68580496
vt 0.19992411 0.6859044
vt 0.20205033 0.74947226
vt 0.18636262 0.7531501
vt 0.21767807 0.81040287
vt 0.20473075 0.816103
vt 0.26272297 0.85745966
vt 0.24731362 0.8788526
vt 0.8921899 0.8861185
vt 0.8956479 0.8341253
vt 0.8443022 0.8430877
vt 0.8160554 0.8729528
vt 0.89046186 0.93449223
vt 0.80566704 0.93307245
vt 0.8956479 0.9850062
vt 0.80715513 0.98099226
vt 0.0045413673 0.7963631
vt 0.11155632 0.87074345
vt 0.109398395 0.8257038
vt 0.020405829 0.86897737
vt 0.11155632 0.9283557
vt 0.025079906 0.92566746
vt 0.6663609 0.9029835
vt 0.76336145 0.9226998
vt 0.7696104 0.8577449
vt 0.6672575 0.935741
vt 0.7592356 0.97535855
vt 0.6669169 0.97535855
vt 0.4611566 0.8497342
vt 0.49111164 0.8497342
vt 0.47845495 0.8009338
vt 0.47014856 0.7989167
vt 0.81213677 0.75574785
vt 0.8302027 0.7971086
vt 0.8746209 0.82504255
vt 0.88416404 0.76295877
vt 0.80867016 0.6788735
vt 0.8901358 0.683446
vt 0.8056669 0.61351246
vt 0.8901358 0.61675274
vt 0.37431955 0.9788019
vt 0.38170052 0.98294646
vt 0.3817004 0.8734242
vt 0.37556243 0.88998085
vt 0.3596846 0.9653265
vt 0.36173642 0.90428126
vt 0.28536034 0.99293786
vt 0.28748286 0.9440813
vt 0.77717674 0.84866214
vt 0.6815368 0.7817943
vt 0.66636086 0.7922282
vt 0.773233 0.8210635
vt 0.7190927 0.7010453
vt 0.77717674 0.71481943
vt 0.7315622 0.6027491
vt 0.77293515 0.5827663
vt 0.85305345 0.004541397
vt 0.8962079 0.04791403
vt 0.88581395 0.016323805
vt 0.835325 0.033143044
vt 0.8690835 0.089292884
vt 0.8887423 0.09406233
vt 0.8962079 0.18814075
vt 0.89389586 0.18757987
vt 0.8453431 0.08353317
vt 0.84576 0.16708875
vt 0.8438386 0.16662264
vt 0.8278594 0.07929158
vt 0.7974168 0.15218425
vt 0.7943485 0.1514399
vt 0.80595624 0.07329798
vt 0.8049116 0.04293132
vt 0.761392 0.100438714
vt 0.7592969 0.09293687
vt 0.8710735 0.55522037
vt 0.8115202 0.47985578
vt 0.8344184 0.6044297
vt 0.8448831 0.47617984
vt 0.8056669 0.43957376
vt 0.845904 0.44754577
vt 0.8194058 0.39450574
vt 0.85972285 0.40285373
vt 0.8647268 0.3102777
vt 0.8710735 0.31191897
vt 0.92572474 0.0045413673
vt 0.938638 0.10348278
vt 0.9503828 0.045675993
vt 0.9052907 0.093052626
vt 0.9359654 0.14035517
vt 0.90686154 0.14094281
vt 0.94255674 0.16220856
vt 0.91653895 0.1708278
vt 0.94892144 0.22975874
vt 0.943537 0.2337237
vt 0.9503828 0.23527282
vt 0.94499826 0.23923779
vt 0.46300977 0.95972764
vt 0.46300974 0.8734243
vt 0.4046383 0.891659
vt 0.3907832 0.9822959
vt 0.33973265 0.6891366
vt 0.38841653 0.7328403
vt 0.3845024 0.68766576
vt 0.3211038 0.72103876
vt 0.33401203 0.7718226
vt 0.30249643 0.7674545
vt 0.2890668 0.8643415
vt 0.28536034 0.86382776
vt 0.36331463 0.775884
vt 0.34466767 0.86251265
vt 0.34229612 0.862184
vt 0.381521 0.7784073
vt 0.4243176 0.7598102
vt 0.39576674 0.8643415
vt 0.3925717 0.8638987
vt 0.41323447 0.7878766
vt 0.45207405 0.8251667
vt 0.44748878 0.83148295
vt 0.26932418 0.97108996
vt 0.2466892 0.8879354
vt 0.24062872 0.888224
vt 0.23233974 0.97108996
vt 0.9928005 0.68157107
vt 0.96507454 0.66193813
vt 0.96694696 0.69532233
vt 0.9928005 0.65980536
vt 0.96688235 0.61351246
vt 0.9736223 0.6151574
vt 0.48939836 0.4925487
vt 0.49032724 0.49926412
vt 0.49286652 0.49926412
vt 0.49301994 0.49317682
vt 0.49172482 0.50834703
vt 0.48961535 0.50839996
vt 0.48939833 0.51219356
vt 0.49172482 0.512537
vt 0.9917692 0.17933309
vt 0.9656012 0.1000334
vt 0.9618075 0.10021782
vt 0.9594656 0.17933309
vt 0.22325695 0.9741243
vt 0.2186513 0.8881142
vt 0.21448505 0.8879354
vt 0.18636262 0.9741243
vt 0.49275675 0.47522604
vt 0.48939833 0.4755031
vt 0.48960087 0.48318326
vt 0.49275675 0.48346603
vt 0.991629 0.08838332
vt 0.991629 0.004541397
vt 0.9834006 0.0048244
vt 0.9594656 0.09095073
vt 0.8674491 0.28671396
vt 0.8674491 0.19961786
vt 0.86016077 0.19722354
vt 0.8403701 0.27603197
vt 0.74890864 0.33473623
vt 0.66713095 0.40442336
vt 0.6717679 0.31027758
vt 0.68728566 0.4108137
vt 0.7965842 0.40015852
vt 0.6663609 0.43831098
vt 0.6997419 0.4279067
vt 0.7965842 0.48155546
vt 0.6997419 0.4491734
vt 0.7489086 0.5478362
vt 0.6872856 0.46649063
vt 0.66713095 0.47324383
vt 0.67176783 0.5736836
vt 0.9637046 0.45414358
vt 0.96895975 0.5964614
vt 0.93541497 0.5978774
vt 0.93010426 0.45405513
vt 0.96895975 0.2798921
vt 0.93541497 0.2779616
vt 0.11693096 0.6796261
vt 0.115820885 0.5862611
vt 0.17640781 0.5801308
vt 0.16803193 0.630366
vt 0.17727995 0.65348226
vt 0.15565658 0.67443293
vt 0.15847087 0.7843158
vt 0.12917185 0.7872804
vt 0.06099415 0.68868005
vt 0.07220554 0.7872804
vt 0.004541397 0.70104825
vt 0.013733864 0.7818932
vt 0.41405088 0.48246205
vt 0.48031563 0.50047475
vt 0.4735523 0.5689744
vt 0.40580213 0.5660057
vt 0.35368103 0.47522599
vt 0.48031563 0.6502857
vt 0.41405088 0.6651749
vt 0.34467483 0.56644106
vt 0.35368103 0.67471635
vt 0.30095118 0.6785831
vt 0.28536028 0.57079065
vt 0.72617555 0.23695126
vt 0.7150438 0.30119494
vt 0.6334386 0.2987338
vt 0.62664795 0.23394963
vt 0.5667885 0.30119494
vt 0.73265326 0.17673379
vt 0.54536 0.23695126
vt 0.6239867 0.17345652
vt 0.73444176 0.11545947
vt 0.5352346 0.17673379
vt 0.6257751 0.11218226
vt 0.7502142 0.008557349
vt 0.53609943 0.14710242
vt 0.61705065 0.0045413673
vt 0.508291 0.008557409
vt 0.6136563 0.78230274
vt 0.6041634 0.87777376
vt 0.59442616 0.80247563
vt 0.6276983 0.8904389
vt 0.6210798 0.77578527
vt 0.6383977 0.9074241
vt 0.51326406 0.89050305
vt 0.508291 0.9074241
vt 0.63353 0.33707404
vt 0.6572782 0.3638705
vt 0.5797186 0.47161484
vt 0.5440047 0.4614408
vt 0.60978174 0.3102777
vt 0.5797185 0.60484517
vt 0.5082909 0.45126677
vt 0.5440047 0.6152253
vt 0.6572782 0.7126719
vt 0.5082909 0.6256056
vt 0.63353 0.73968726
vt 0.60978174 0.7667026
vt 0.10771382 0.06026554
vt 0.27465045 0.004541397
vt 0.27627754 0.042261958
vt 0.13032222 0.090982676
vt 0.004541397 0.20289826
vt 0.27627754 0.53756785
vt 0.040116906 0.21568859
vt 0.004541397 0.37795854
vt 0.13032222 0.49169338
vt 0.27465045 0.57104814
vt 0.10771382 0.51857924
vt 0.040116906 0.36874652
vt 0.46823847 0.17876983
vt 0.4316672 0.0045413375
vt 0.49920815 0.16713661
vt 0.40140402 0.017875373
vt 0.3697834 0.04301536
vt 0.4287382 0.18494064
vt 0.49920815 0.3224484
vt 0.33816284 0.06815541
vt 0.45605665 0.31167978
vt 0.38923794 0.19111145
vt 0.30002677 0.09147996
vt 0.34136087 0.2035042
vt 0.4129051 0.30091113
vt 0.3427356 0.23802859
vt 0.37234122 0.27309045
vt 0.28536028 0.32351992
vt 0.40577763 0.30731925
vt 0.29442835 0.32775104
vt 0.39255768 0.3331457
vt 0.30128193 0.34407
vt 0.3696847 0.4130204
vt 0.316028 0.41050625
vt 0.34918767 0.46614328
vt 0.3190418 0.44240487
vt 0.88015616 0.4308536
vt 0.8883019 0.2813499
vt 0.92102146 0.2779616
vt 0.9127896 0.42904556
vt 0.8883019 0.604403
vt 0.92102146 0.6044296
vt 0.92042327 0.8231498
vt 0.9529158 0.7990128
vt 0.95599186 0.8245685
vt 0.92184687 0.79769146
vt 0.944216 0.7720341
vt 0.9131471 0.77071285
vt 0.9262327 0.7379135
vt 0.8992187 0.71540093
vt 0.95599186 0.6287955
vt 0.9359044 0.61351234
vt 0.4951718 0.690281
vt 0.4951718 0.78983396
vt 0.46115664 0.7574903
vt 0.4716521 0.68766576
vt 0.7756655 0.19722342
vt 0.8312873 0.20070249
vt 0.8263372 0.22392666
vt 0.7595817 0.25615913
vt 0.7592969 0.23126322
vt 0.8312873 0.26076448
vt 0.76217866 0.27623308
vt 0.1528058 0.9954586
vt 0.14940989 0.86111856
vt 0.17297757 0.9805787
vt 0.120639086 0.8822142
vt 0.16705024 0.8451873
vt 0.13673139 0.8455496
vt 0.17297757 0.7963631
vt 0.14265871 0.79672545
vt 0.96449995 0.949986
vt 0.9583186 0.8374158
vt 0.9768403 0.8341253
vt 0.97394526 0.9589685
vt 0.9370234 0.9511169
vt 0.91514146 0.9589685
vt 0.91664225 0.8441341
vt 0.91131157 0.845767
vt 0.9047306 0.84629834
vt 0.24212086 0.62085164
vt 0.25492644 0.58013093
vt 0.26272297 0.58408916
vt 0.23041713 0.6148417
vt 0.21321535 0.68580496
vt 0.19992411 0.6859044
vt 0.20205033 0.74947226
vt 0.18636262 0.7531501
vt 0.21767807 0.81040287
vt 0.20473075 0.816103
vt 0.26272297 0.85745966
vt 0.24731362 0.8788526
vt 0.8921899 0.8861185
vt 0.8443022 0.8430877
vt 0.8956479 0.8341253
vt 0.8160554 0.8729528
vt 0.89046186 0.93449223
vt 0.80566704 0.93307245
vt 0.8956479 0.9850062
vt 0.80715513 0.98099226
vt 0.0045413673 0.7963631
vt 0.109398395 0.8257038
vt 0.11155632 0.87074345
vt 0.020405829 0.86897737
vt 0.11155632 0.9283557
vt 0.025079906 0.92566746
vt 0.6663609 0.9029835
vt 0.7696104 0.8577449
vt 0.76336145 0.9226998
vt 0.6672575 0.935741
vt 0.7592356 0.97535855
vt 0.6669169 0.97535855
vt 0.4611566 0.8497342
vt 0.47014856 0.7989167
vt 0.47845495 0.8009338
vt 0.49111164 0.8497342
vt 0.81213677 0.75574785
vt 0.8746209 0.82504255
vt 0.8302027 0.7971086
vt 0.88416404 0.76295877
vt 0.80867016 0.6788735
vt 0.8901358 0.683446
vt 0.8056669 0.61351246
vt 0.8901358 0.61675274
vt 0.37431955 0.9788019
vt 0.3817004 0.8734242
vt 0.38170052 0.98294646
vt 0.37556243 0.88998085
vt 0.3596846 0.9653265
vt 0.36173642 0.90428126
vt 0.28536034 0.99293786
vt 0.28748286 0.9440813
vt 0.77717674 0.84866214
vt 0.66636086 0.7922282
vt 0.6815368 0.7817943
vt 0.773233 0.8210635
vt 0.7190927 0.7010453
vt 0.77717674 0.71481943
vt 0.7315622 0.6027491
vt 0.77293515 0.5827663
vt 0.85305345 0.004541397
vt 0.88581395 0.016323805
vt 0.8962079 0.04791403
vt 0.835325 0.033143044
vt 0.8278594 0.07929158
vt 0.80595624 0.07329798
vt 0.8049116 0.04293132
vt 0.761392 0.100438714
vt 0.7592969 0.09293687
vt 0.8453431 0.08353317
vt 0.7974168 0.15218425
vt 0.7943485 0.1514399
vt 0.8690835 0.089292884
vt 0.8887423 0.09406233
vt 0.8962079 0.18814075
vt 0.89389586 0.18757987
vt 0.84576 0.16708875
vt 0.8438386 0.16662264
vt 0.8710735 0.55522037
vt 0.8344184 0.6044297
vt 0.8115202 0.47985578
vt 0.8448831 0.47617984
vt 0.8056669 0.43957376
vt 0.845904 0.44754577
vt 0.8194058 0.39450574
vt 0.85972285 0.40285373
vt 0.8647268 0.3102777
vt 0.8710735 0.31191897
vt 0.92572474 0.0045413673
vt 0.9503828 0.045675993
vt 0.938638 0.10348278
vt 0.9052907 0.093052626
vt 0.9359654 0.14035517
vt 0.90686154 0.14094281
vt 0.94255674 0.16220856
vt 0.91653895 0.1708278
vt 0.94892144 0.22975874
vt 0.943537 0.2337237
vt 0.9503828 0.23527282
vt 0.94499826 0.23923779
vt 0.46300977 0.95972764
vt 0.3907832 0.9822959
vt 0.4046383 0.891659
vt 0.46300974 0.8734243
vt 0.33973265 0.6891366
vt 0.3845024 0.68766576
vt 0.38841653 0.7328403
vt 0.3211038 0.72103876
vt 0.381521 0.7784073
vt 0.4243176 0.7598102
vt 0.41323447 0.7878766
vt 0.45207405 0.8251667
vt 0.44748878 0.83148295
vt 0.36331463 0.775884
vt 0.39576674 0.8643415
vt 0.3925717 0.8638987
vt 0.33401203 0.7718226
vt 0.34466767 0.86251265
vt 0.34229612 0.862184
vt 0.30249643 0.7674545
vt 0.2890668 0.8643415
vt 0.28536034 0.86382776
vt 0.26932418 0.97108996
vt 0.23233974 0.97108996
vt 0.24062872 0.888224
vt 0.2466892 0.8879354
vt 0.9928005 0.68157107
vt 0.96694696 0.69532233
vt 0.96507454 0.66193813
vt 0.9928005 0.65980536
vt 0.96688235 0.61351246
vt 0.9736223 0.6151574
vt 0.48939836 0.4925487
vt 0.49301994 0.49317682
vt 0.49286652 0.49926412
vt 0.49032724 0.49926412
vt 0.49172482 0.50834703
vt 0.49172482 0.512537
vt 0.48939833 0.51219356
vt 0.48961535 0.50839996
vt 0.9917692 0.17933309
vt 0.9594656 0.17933309
vt 0.9618075 0.10021782
vt 0.9656012 0.1000334
vt 0.22325695 0.9741243
vt 0.18636262 0.9741243
vt 0.21448505 0.8879354
vt 0.2186513 0.8881142
vt 0.49275675 0.47522604
vt 0.49275675 0.48346603
vt 0.48960087 0.48318326
vt 0.48939833 0.4755031
vt 0.991629 0.08838332
vt 0.9594656 0.09095073
vt 0.9834006 0.0048244
vt 0.991629 0.004541397
vt 0.8674491 0.28671396
vt 0.8403701 0.27603197
vt 0.86016077 0.19722354
vt 0.8674491 0.19961786
vn 0.41736212 -0.5524415 0.69589424
vn 0.007548044 -0.63938737 0.7150405
vn 0.0286057 -0.30693826 0.95120126
vn 0.20837085 -0.24746482 0.94611454
vn 0.67018837 -0.24496537 0.6916845
vn 0.032578994 0.00014999227 0.99946916
vn 0.31881782 -0.09342103 0.9430747
vn 0.68095124 0.20068528 0.69592327
vn 0.31763884 0.096353166 0.94316965
vn 0.4226958 0.5784122 0.6939105
vn 0.20487586 0.24936861 0.94634944
vn 0.022678312 0.30717424 0.9512165
vn -0.0017251484 0.7220386 0.6897102
vn 0.6116179 0.6142047 0.44427747
vn 0.87891215 0.11077608 -0.4169912
vn 0.86526155 0.09748697 0.41615975
vn 0.64097315 0.6235526 -0.3936878
vn 0.089452565 0.872422 0.43979102
vn 0.119402125 0.88322306 -0.40102485
vn 0.55011195 -0.56881285 -0.52903616
vn 0.4221918 -0.71073514 -0.4045919
vn 0.5295843 -0.74947834 0.21587169
vn 0.84857965 -0.45033333 0.13828234
vn 0.41247994 -0.61426747 -0.60206556
vn 0.6367352 -0.7110818 0.09112892
vn 0.93390715 0.12081187 0.21930437
vn 0.9448863 0.15346597 0.16492504
vn 0.85458994 -0.35313818 0.3337052
vn 0.8935516 0.22218192 0.34605044
vn 0.67018837 -0.24496537 0.6916845
vn 0.68095124 0.20068528 0.69592327
vn 0.85458994 -0.35313818 0.3337052
vn 0.41736212 -0.5524415 0.69589424
vn 0.67018837 -0.24496537 0.6916845
vn 0.52458596 -0.71865374 0.37125766
vn 0.84857965 -0.45033333 0.13828234
vn 0.007548044 -0.63938737 0.7150405
vn -0.010142813 -0.79732555 0.4546926
vn 0.5295843 -0.74947834 0.21587169
vn -0.01969878 -0.77047825 0.41370994
vn 0.0063003805 -0.8802367 0.004509568
vn 0.4221918 -0.71073514 -0.4045919
vn 0.015808525 0.9355427 0.3354778
vn 0.4226958 0.5784122 0.6939105
vn -0.0017251484 0.7220386 0.6897102
vn 0.56704533 0.73728526 0.34330374
vn 0.68095124 0.20068528 0.69592327
vn 0.03127736 0.98140395 0.13071868
vn 0.8935516 0.22218192 0.34605044
vn 0.61398125 0.7589462 0.14018063
vn 0.04495604 0.9653973 0.20343973
vn 0.9448863 0.15346597 0.16492504
vn 0.61389494 0.7349599 0.21330242
vn 0.05444169 0.7873299 0.59437877
vn 0.93390715 0.12081187 0.21930437
vn 0.5236036 0.58577037 0.58847475
vn 0.7979699 0.061344124 0.5478942
vn 0.73820496 -0.621235 -0.03827206
vn 0.50225663 -0.72320914 -0.4536655
vn 0.9473525 0.17119306 -0.19849995
vn 0.9652109 -0.10132667 -0.023728676
vn 0.62338215 -0.5274076 0.48198038
vn 0.7979699 0.061344124 0.5478942
vn 0.7818595 -0.101214506 0.56777483
vn 0.93390715 0.12081187 0.21930437
vn 0.05007424 0.6531305 0.7428431
vn 0.5236036 0.58577037 0.58847475
vn 0.05444169 0.7873299 0.59437877
vn 0.443864 0.46557927 0.7450925
vn 0.089452565 0.872422 0.43979102
vn 0.7979699 0.061344124 0.5478942
vn 0.6116179 0.6142047 0.44427747
vn 0.6405611 0.037729003 0.73357326
vn 0.62338215 -0.5274076 0.48198038
vn 0.86526155 0.09748697 0.41615975
vn 0.5557711 -0.31546816 0.6966051
vn 0.7685819 -0.39527574 0.39946637
vn 0.44532782 -0.7556004 -0.29478946
vn -0.009632755 -0.44656265 -0.7680548
vn -0.067502744 -0.85188097 -0.14853841
vn 0.15579042 -0.35261792 -0.83548707
vn 0.7858914 -0.41190118 -0.4023974
vn 0.2414438 0.23556133 -0.93777394
vn 0.06653214 0.3097095 -0.94282275
vn 0.119402125 0.88322306 -0.40102485
vn 0.64097315 0.6235526 -0.3936878
vn 0.27226767 -0.1728673 -0.89950305
vn 0.87891215 0.11077608 -0.4169912
vn 0.30374116 0.03328915 -0.92739075
vn 0.44210526 -0.64289117 0.47310326
vn 0.44532782 -0.7556004 -0.29478946
vn -0.067502744 -0.85188097 -0.14853841
vn -0.07410745 -0.6273618 0.592222
vn -0.052109547 -0.31116587 0.8080982
vn 0.33027935 -0.4126964 0.7347306
vn 0.7685819 -0.39527574 0.39946637
vn -0.044508323 -0.33554363 0.7940899
vn 0.5557711 -0.31546816 0.6966051
vn 0.37666088 -0.4903261 0.65126246
vn -0.02331066 0.11186695 0.87960535
vn 0.23211738 -0.21008459 0.8186645
vn 0.62338215 -0.5274076 0.48198038
vn 0.27733326 -0.052331045 0.8437817
vn -0.13514058 -0.2172094 0.8960324
vn 0.6367352 -0.7110818 0.09112892
vn 0.73820496 -0.621235 -0.03827206
vn 0.49243832 -0.7141147 0.44923133
vn 0.50225663 -0.72320914 -0.4536655
vn -0.16063249 -0.6816548 0.70482296
vn 0.056714874 -0.61872494 -0.783558
vn -0.89091235 -0.36506104 0.27019566
vn 0.23958537 -0.33035406 -0.9129432
vn -0.9431725 -0.031850047 -0.33077347
vn 0.7685819 -0.39527574 0.39946637
vn 0.44532782 -0.7556004 -0.29478946
vn 0.44210526 -0.64289117 0.47310326
vn 0.7858914 -0.41190118 -0.4023974
vn 0.86526155 0.09748697 0.41615975
vn 0.87891215 0.11077608 -0.4169912
vn 0.6367352 -0.7110818 0.09112892
vn -0.21469223 -0.89834225 -0.07897784
vn 0.5875613 -0.6684194 -0.34609184
vn 0.41247994 -0.61426747 -0.60206556
vn 0.6123915 -0.6165895 -0.38704813
vn 0.55011195 -0.56881285 -0.52903616
vn 0.62572306 -0.61208975 -0.3459115
vn 0.4221918 -0.71073514 -0.4045919
vn 0.0067267464 -0.8989471 -0.06965196
vn 0.0063003805 -0.8802367 0.004509568
vn -0.13514058 -0.2172094 0.8960324
vn -0.1172699 -0.3257764 0.8544564
vn -0.21469223 -0.89834225 -0.07897784
vn 0.6367352 -0.7110818 0.09112892
vn 0.5231789 -0.039239854 0.73427564
vn 0.1683501 -0.101022035 0.85851765
vn 0.62572306 -0.61208975 -0.3459115
vn 0.5875613 -0.6684194 -0.34609184
vn 0.6123915 -0.6165895 -0.38704813
vn -0.1172699 -0.3257764 0.8544564
vn -0.21469223 -0.89834225 -0.07897784
vn -0.02331066 0.11186695 0.87960535
vn -0.013118349 0.3222432 0.8574842
vn 0.1683501 -0.101022035 0.85851765
vn 0.23211738 -0.21008459 0.8186645
vn 0.5231789 -0.039239854 0.73427564
vn 0.27733326 -0.052331045 0.8437817
vn -0.1172699 -0.3257764 0.8544564
vn -0.13514058 -0.2172094 0.8960324
vn 0.6764579 -0.5878708 0.21519719
vn -0.013118349 0.3222432 0.8574842
vn 0.0044569094 -0.9671315 0.08085552
vn 0.1683501 -0.101022035 0.85851765
vn 0.60068995 -0.4050529 0.5501274
vn 0.62572306 -0.61208975 -0.3459115
vn -0.0060245227 0.2889508 0.88203704
vn -0.0062572635 -0.43228018 0.803499
vn 0.0067267464 -0.8989471 -0.06965196
vn 0.84778285 -0.47578642 0.17347074
vn 0.58058405 -0.6387769 0.48722324
vn 0.50167686 0.4111517 0.7447179
vn 0.61117244 0.6447564 0.39690813
vn 0.89177585 -0.35053158 -0.18794215
vn 0.6026815 0.48388445 0.5267806
vn 0.9038753 -0.2706625 -0.27283785
vn 0.5881668 0.43801302 0.6004019
vn 0.8802874 -0.35910705 -0.25644147
vn 0.60785353 0.41497898 0.5934315
vn 0.6764579 -0.5878708 0.21519719
vn 0.60068995 -0.4050529 0.5501274
vn 0.004341071 -0.99256176 -0.12166229
vn 0.0038597623 -0.8414731 0.54028475
vn 0.58058405 -0.6387769 0.48722324
vn 0.84778285 -0.47578642 0.17347074
vn 0.004374961 -0.9920962 0.0071490407
vn 0.89177585 -0.35053158 -0.18794215
vn 0.003502956 -0.82164407 -0.5104267
vn 0.9038753 -0.2706625 -0.27283785
vn 0.60068995 -0.4050529 0.5501274
vn -0.0029763975 0.6458739 0.76140827
vn -0.0060245227 0.2889508 0.88203704
vn 0.60785353 0.41497898 0.5934315
vn -0.0025286144 0.5824834 0.72904754
vn 0.5881668 0.43801302 0.6004019
vn 0.0044569094 -0.9671315 0.08085552
vn 0.8802874 -0.35910705 -0.25644147
vn 0.6764579 -0.5878708 0.21519719
vn 0.0030815 -0.67119664 -0.7228303
vn 0.9038753 -0.2706625 -0.27283785
vn 0.003502956 -0.82164407 -0.5104267
vn 0.0038597623 -0.8414731 0.54028475
vn -0.0015033573 0.39909774 0.9169071
vn 0.50167686 0.4111517 0.7447179
vn 0.58058405 -0.6387769 0.48722324
vn 0.61117244 0.6447564 0.39690813
vn 0.50167686 0.4111517 0.7447179
vn -0.0015033573 0.39909774 0.9169071
vn -0.0041609863 0.9590525 0.23781407
vn 0.6026815 0.48388445 0.5267806
vn -0.0026554847 0.65043503 0.75955725
vn 0.5881668 0.43801302 0.6004019
vn -0.0025286144 0.5824834 0.72904754
vn 0.49243832 -0.7141147 0.44923133
vn 0.6367352 -0.7110818 0.09112892
vn 0.93390715 0.12081187 0.21930437
vn 0.7818595 -0.101214506 0.56777483
vn -0.16063249 -0.6816548 0.70482296
vn 0.47382343 0.19893953 0.8451112
vn -0.89091235 -0.36506104 0.27019566
vn 0.21289054 0.37944466 0.9003885
vn 0.9652109 -0.10132667 -0.023728676
vn 0.47382343 0.19893953 0.8451112
vn 0.7818595 -0.101214506 0.56777483
vn 0.9473525 0.17119306 -0.19849995
vn 0.21289054 0.37944466 0.9003885
vn 0.9574182 0.2533549 -0.13842487
vn -0.08516237 0.46988037 0.8786125
vn 0.97355807 0.121358864 0.19353765
vn -0.9431725 -0.031850047 -0.33077347
vn 0.43115607 -0.21029603 -0.8774283
vn 0.23958537 -0.33035406 -0.9129432
vn -0.5254326 0.48910588 -0.6962013
vn -0.37013516 -0.23622425 -0.8984422
vn 0.2556259 -0.2567861 -0.93204963
vn 0.10368981 -0.772855 -0.6260543
vn -0.8200103 -0.526356 -0.2247957
vn -0.38815683 -0.19738244 -0.90020823
vn 0.054475754 -0.8108326 -0.5827377
vn -0.86604774 -0.42986995 -0.2552915
vn -0.5926196 -0.20875464 -0.7779614
vn -0.029532883 -0.78954387 -0.61298335
vn -0.92741716 -0.2564607 -0.2722605
vn -0.15340453 -0.5921 -0.791129
vn -0.3336688 0.640314 -0.6918549
vn -0.34837082 -0.7307361 -0.5870799
vn -0.73713344 0.3493903 -0.57841253
vn 0.056714874 -0.61872494 -0.783558
vn 0.97355807 0.121358864 0.19353765
vn 0.9574182 0.2533549 -0.13842487
vn 0.23958537 -0.33035406 -0.9129432
vn 0.8822139 0.009817921 0.470747
vn 0.43115607 -0.21029603 -0.8774283
vn 0.8634295 -0.21808384 0.45489517
vn 0.2556259 -0.2567861 -0.93204963
vn 0.5247773 -0.77146983 0.35978264
vn 0.10368981 -0.772855 -0.6260543
vn 0.21289054 0.37944466 0.9003885
vn -0.9431725 -0.031850047 -0.33077347
vn -0.89091235 -0.36506104 0.27019566
vn -0.08516237 0.46988037 0.8786125
vn -0.5254326 0.48910588 -0.6962013
vn -0.12539853 0.592461 0.79578
vn -0.3336688 0.640314 -0.6918549
vn -0.29727554 0.72039837 0.626621
vn -0.73713344 0.3493903 -0.57841253
vn -0.8189534 0.30201483 0.48795804
vn -0.34837082 -0.7307361 -0.5870799
vn -0.585155 -0.6992344 0.41068882
vn 0.50225663 -0.72320914 -0.4536655
vn 0.056714874 -0.61872494 -0.783558
vn 0.9574182 0.2533549 -0.13842487
vn 0.9473525 0.17119306 -0.19849995
vn 0.97355807 0.121358864 0.19353765
vn -0.12539853 0.592461 0.79578
vn -0.08516237 0.46988037 0.8786125
vn 0.8822139 0.009817921 0.470747
vn 0.090601794 -0.092509784 0.9915814
vn 0.8634295 -0.21808384 0.45489517
vn -0.5072059 -0.443907 0.73870766
vn 0.5247773 -0.77146983 0.35978264
vn 0.07317599 -0.09872435 0.9924208
vn -0.60080546 -0.3725116 0.7072965
vn 0.37346697 -0.80158067 0.46689546
vn -0.14507148 -0.06003037 0.98759854
vn -0.29727554 0.72039837 0.626621
vn -0.6730932 -0.23136164 0.702437
vn 0.24838665 -0.8171557 0.5201546
vn -0.014843494 -0.5649391 0.8249991
vn -0.8189534 0.30201483 0.48795804
vn -0.585155 -0.6992344 0.41068882
vn 0.090601794 -0.092509784 0.9915814
vn -0.5072059 -0.443907 0.73870766
vn -0.8200103 -0.526356 -0.2247957
vn -0.37013516 -0.23622425 -0.8984422
vn -0.5926196 -0.20875464 -0.7779614
vn -0.014843494 -0.5649391 0.8249991
vn -0.14507148 -0.06003037 0.98759854
vn -0.15340453 -0.5921 -0.791129
vn -0.585155 -0.6992344 0.41068882
vn -0.34837082 -0.7307361 -0.5870799
vn 0.5247773 -0.77146983 0.35978264
vn 0.10368981 -0.772855 -0.6260543
vn -0.8200103 -0.526356 -0.2247957
vn -0.5072059 -0.443907 0.73870766
vn 0.054475754 -0.8108326 -0.5827377
vn -0.86604774 -0.42986995 -0.2552915
vn -0.60080546 -0.3725116 0.7072965
vn 0.37346697 -0.80158067 0.46689546
vn 0.07317599 -0.09872435 0.9924208
vn -0.60080546 -0.3725116 0.7072965
vn -0.86604774 -0.42986995 -0.2552915
vn -0.38815683 -0.19738244 -0.90020823
vn -0.37013516 -0.23622425 -0.8984422
vn 0.054475754 -0.8108326 -0.5827377
vn 0.37346697 -0.80158067 0.46689546
vn 0.090601794 -0.092509784 0.9915814
vn -0.029532883 -0.78954387 -0.61298335
vn -0.92741716 -0.2564607 -0.2722605
vn -0.6730932 -0.23136164 0.702437
vn 0.24838665 -0.8171557 0.5201546
vn -0.38815683 -0.19738244 -0.90020823
vn -0.029532883 -0.78954387 -0.61298335
vn 0.24838665 -0.8171557 0.5201546
vn 0.07317599 -0.09872435 0.9924208
vn -0.14507148 -0.06003037 0.98759854
vn -0.6730932 -0.23136164 0.702437
vn -0.92741716 -0.2564607 -0.2722605
vn -0.5926196 -0.20875464 -0.7779614
vn -0.42155656 -0.5559861 0.691146
vn 0.0286057 -0.30693826 0.95120126
vn 0.007548044 -0.63938737 0.7150405
vn -0.15242004 -0.24912713 0.9562916
vn -0.6834825 -0.24894047 0.6789936
vn 0.032578994 0.00014999227 0.99946916
vn -0.2649547 -0.09611069 0.95933515
vn -0.6976549 0.197231 0.6819041
vn -0.26613408 0.093663506 0.959243
vn -0.44094723 0.5757789 0.68538225
vn -0.15591735 0.2477063 0.95606875
vn 0.022678312 0.30717424 0.9512165
vn -0.0017251484 0.7220386 0.6897102
vn -0.61887145 0.6241029 0.4311398
vn -0.8768732 0.109831855 0.4037798
vn -0.87526965 0.1171576 -0.43067974
vn -0.632301 0.63025653 -0.40962222
vn 0.089452565 0.872422 0.43979102
vn 0.119402125 0.88322306 -0.40102485
vn -0.8610474 -0.44566688 0.114193216
vn -0.5316825 -0.75356126 0.20035511
vn -0.40528363 -0.7154479 -0.4124644
vn -0.5356367 -0.5725525 -0.5402677
vn -0.40045813 -0.61871195 -0.60788655
vn -0.65931123 -0.69970495 0.081103005
vn -0.9439703 0.13711542 0.19395171
vn -0.9537184 0.1613737 0.13686429
vn -0.86661094 -0.3553028 0.3092262
vn -0.9070189 0.22158484 0.31947643
vn -0.6834825 -0.24894047 0.6789936
vn -0.6976549 0.197231 0.6819041
vn -0.86661094 -0.3553028 0.3092262
vn -0.6834825 -0.24894047 0.6789936
vn -0.42155656 -0.5559861 0.691146
vn -0.5293252 -0.72277725 0.3592632
vn -0.8610474 -0.44566688 0.114193216
vn 0.007548044 -0.63938737 0.7150405
vn -0.010142813 -0.79732555 0.4546926
vn -0.5316825 -0.75356126 0.20035511
vn -0.01969878 -0.77047825 0.41370994
vn 0.0063003805 -0.8802367 0.004509568
vn -0.40528363 -0.7154479 -0.4124644
vn 0.015808525 0.9355427 0.3354778
vn -0.0017251484 0.7220386 0.6897102
vn -0.44094723 0.5757789 0.68538225
vn -0.58192474 0.735611 0.32640916
vn -0.6976549 0.197231 0.6819041
vn 0.03127736 0.98140395 0.13071868
vn -0.9070189 0.22158484 0.31947643
vn -0.62205434 0.7589658 0.12224861
vn 0.04495604 0.9653973 0.20343973
vn -0.9537184 0.1613737 0.13686429
vn -0.62108797 0.73775876 0.19946718
vn 0.05444169 0.7873299 0.59437877
vn -0.9439703 0.13711542 0.19395171
vn -0.5337947 0.5919095 0.5788239
vn -0.81362313 0.08040924 0.53319955
vn -0.7552169 -0.608162 -0.04267698
vn -0.93919384 0.19830513 -0.22739318
vn -0.5144973 -0.715818 -0.4542566
vn -0.972084 -0.08188177 -0.042191394
vn -0.6487734 -0.5124271 0.4799976
vn -0.81362313 0.08040924 0.53319955
vn -0.8058203 -0.07787269 0.5475853
vn -0.9439703 0.13711542 0.19395171
vn 0.05007424 0.6531305 0.7428431
vn 0.05444169 0.7873299 0.59437877
vn -0.5337947 0.5919095 0.5788239
vn -0.45591733 0.473285 0.73671716
vn 0.089452565 0.872422 0.43979102
vn -0.81362313 0.08040924 0.53319955
vn -0.61887145 0.6241029 0.4311398
vn -0.6576508 0.051499896 0.7243282
vn -0.6487734 -0.5124271 0.4799976
vn -0.8768732 0.109831855 0.4037798
vn -0.5760011 -0.30507398 0.69441664
vn -0.7830898 -0.38803732 0.39566886
vn -0.44331053 -0.7602292 -0.29286706
vn -0.067502744 -0.85188097 -0.14853841
vn -0.009632755 -0.44656265 -0.7680548
vn -0.14495818 -0.35770294 -0.8357245
vn -0.78607994 -0.41072804 -0.40764204
vn 0.06653214 0.3097095 -0.94282275
vn -0.25908566 -0.17753409 -0.90241355
vn -0.87526965 0.1171576 -0.43067974
vn -0.21972962 0.23201773 -0.9454209
vn 0.119402125 0.88322306 -0.40102485
vn -0.632301 0.63025653 -0.40962222
vn -0.28746232 0.029740462 -0.9331471
vn -0.449233 -0.64432675 0.47573182
vn -0.067502744 -0.85188097 -0.14853841
vn -0.44331053 -0.7602292 -0.29286706
vn -0.07410745 -0.6273618 0.592222
vn -0.052109547 -0.31116587 0.8080982
vn -0.33996204 -0.41237426 0.7369196
vn -0.7830898 -0.38803732 0.39566886
vn -0.044508323 -0.33554363 0.7940899
vn -0.5760011 -0.30507398 0.69441664
vn -0.38567442 -0.49091363 0.6532951
vn -0.02331066 0.11186695 0.87960535
vn -0.2445405 -0.20923486 0.82024693
vn -0.6487734 -0.5124271 0.4799976
vn -0.29591683 -0.047285065 0.8434236
vn 0.110520154 -0.21286565 0.90337104
vn -0.65931123 -0.69970495 0.081103005
vn -0.7552169 -0.608162 -0.04267698
vn -0.53081137 -0.6959881 0.4438616
vn -0.5144973 -0.715818 -0.4542566
vn 0.11174957 -0.67527556 0.7219083
vn -0.05581379 -0.6321192 -0.77285856
vn 0.8655892 -0.39507824 0.30768162
vn -0.22223185 -0.33934894 -0.9140325
vn 0.9516214 -0.07684922 -0.2975074
vn -0.7830898 -0.38803732 0.39566886
vn -0.449233 -0.64432675 0.47573182
vn -0.44331053 -0.7602292 -0.29286706
vn -0.78607994 -0.41072804 -0.40764204
vn -0.8768732 0.109831855 0.4037798
vn -0.87526965 0.1171576 -0.43067974
vn -0.65931123 -0.69970495 0.081103005
vn -0.5878694 -0.6681639 -0.35389584
vn 0.20030332 -0.9104776 -0.060611997
vn -0.40045813 -0.61871195 -0.60788655
vn -0.60643107 -0.6186851 -0.39649796
vn -0.5356367 -0.5725525 -0.5402677
vn -0.61633253 -0.6164681 -0.3543796
vn -0.40528363 -0.7154479 -0.4124644
vn 0.0067267464 -0.8989471 -0.06965196
vn 0.0063003805 -0.8802367 0.004509568
vn 0.110520154 -0.21286565 0.90337104
vn -0.65931123 -0.69970495 0.081103005
vn 0.20030332 -0.9104776 -0.060611997
vn 0.0931548 -0.32304025 0.86247385
vn -0.61633253 -0.6164681 -0.3543796
vn -0.18364508 -0.098887295 0.859791
vn -0.5402988 -0.034792632 0.7301105
vn -0.5878694 -0.6681639 -0.35389584
vn -0.60643107 -0.6186851 -0.39649796
vn 0.0931548 -0.32304025 0.86247385
vn 0.20030332 -0.9104776 -0.060611997
vn -0.02331066 0.11186695 0.87960535
vn -0.18364508 -0.098887295 0.859791
vn -0.013118349 0.3222432 0.8574842
vn -0.2445405 -0.20923486 0.82024693
vn -0.5402988 -0.034792632 0.7301105
vn -0.29591683 -0.047285065 0.8434236
vn 0.0931548 -0.32304025 0.86247385
vn 0.110520154 -0.21286565 0.90337104
vn -0.67907834 -0.5911038 0.21280965
vn 0.0044569094 -0.9671315 0.08085552
vn -0.013118349 0.3222432 0.8574842
vn -0.18364508 -0.098887295 0.859791
vn -0.61005527 -0.4070154 0.54548967
vn -0.61633253 -0.6164681 -0.3543796
vn -0.0060245227 0.2889508 0.88203704
vn -0.0062572635 -0.43228018 0.803499
vn 0.0067267464 -0.8989471 -0.06965196
vn -0.84345895 -0.4832408 0.17394216
vn -0.50486636 0.4067152 0.7449986
vn -0.5746585 -0.6438688 0.48754537
vn -0.616611 0.6393447 0.39725038
vn -0.88872135 -0.35842186 -0.18750612
vn -0.60668445 0.47852296 0.5270736
vn -0.9014339 -0.2788322 -0.27263173
vn -0.5919616 0.43267992 0.6005469
vn -0.8769895 -0.36604592 -0.25714853
vn -0.61305773 0.41024977 0.59344876
vn -0.67907834 -0.5911038 0.21280965
vn -0.61005527 -0.4070154 0.54548967
vn 0.004341071 -0.99256176 -0.12166229
vn -0.5746585 -0.6438688 0.48754537
vn 0.0038597623 -0.8414731 0.54028475
vn -0.84345895 -0.4832408 0.17394216
vn 0.004374961 -0.9920962 0.0071490407
vn -0.88872135 -0.35842186 -0.18750612
vn 0.003502956 -0.82164407 -0.5104267
vn -0.9014339 -0.2788322 -0.27263173
vn -0.61005527 -0.4070154 0.54548967
vn -0.0060245227 0.2889508 0.88203704
vn -0.0029763975 0.6458739 0.76140827
vn -0.61305773 0.41024977 0.59344876
vn -0.0025286144 0.5824834 0.72904754
vn -0.5919616 0.43267992 0.6005469
vn 0.0044569094 -0.9671315 0.08085552
vn -0.67907834 -0.5911038 0.21280965
vn -0.8769895 -0.36604592 -0.25714853
vn 0.0030815 -0.67119664 -0.7228303
vn -0.9014339 -0.2788322 -0.27263173
vn 0.003502956 -0.82164407 -0.5104267
vn 0.0038597623 -0.8414731 0.54028475
vn -0.5746585 -0.6438688 0.48754537
vn -0.50486636 0.4067152 0.7449986
vn -0.0015033573 0.39909774 0.9169071
vn -0.616611 0.6393447 0.39725038
vn -0.0015033573 0.39909774 0.9169071
vn -0.50486636 0.4067152 0.7449986
vn -0.0041609863 0.9590525 0.23781407
vn -0.60668445 0.47852296 0.5270736
vn -0.0026554847 0.65043503 0.75955725
vn -0.5919616 0.43267992 0.6005469
vn -0.0025286144 0.5824834 0.72904754
vn -0.53081137 -0.6959881 0.4438616
vn -0.9439703 0.13711542 0.19395171
vn -0.65931123 -0.69970495 0.081103005
vn -0.8058203 -0.07787269 0.5475853
vn 0.11174957 -0.67527556 0.7219083
vn -0.49639094 0.22867577 0.8270508
vn 0.8655892 -0.39507824 0.30768162
vn -0.22716683 0.4064237 0.88499445
vn -0.972084 -0.08188177 -0.042191394
vn -0.8058203 -0.07787269 0.5475853
vn -0.49639094 0.22867577 0.8270508
vn -0.93919384 0.19830513 -0.22739318
vn -0.22716683 0.4064237 0.88499445
vn -0.9410118 0.28892356 -0.17612445
vn 0.074914515 0.48425958 0.87171125
vn -0.9736836 0.16463387 0.15759303
vn 0.9516214 -0.07684922 -0.2975074
vn -0.22223185 -0.33934894 -0.9140325
vn -0.4097862 -0.21092829 -0.8874595
vn 0.5681405 0.45284477 -0.6871302
vn 0.609277 -0.24871403 -0.7529429
vn 0.1553587 -0.6141766 -0.7737255
vn 0.38271928 0.6117408 -0.69231415
vn 0.33750993 -0.75630116 -0.5604424
vn 0.7698499 0.30716795 -0.5594452
vn 0.40966707 -0.2316331 -0.8823374
vn 0.01757142 -0.8026953 -0.5961305
vn 0.9246914 -0.29936907 -0.23521048
vn 0.39001444 -0.26966983 -0.8804357
vn -0.23458461 -0.26560643 -0.93510604
vn -0.114342496 -0.78090936 -0.6140901
vn 0.8047452 -0.56365544 -0.1862196
vn -0.06820725 -0.81993556 -0.568378
vn 0.85570955 -0.46976325 -0.21698765
vn -0.05581379 -0.6321192 -0.77285856
vn -0.9410118 0.28892356 -0.17612445
vn -0.9736836 0.16463387 0.15759303
vn -0.22223185 -0.33934894 -0.9140325
vn -0.8963462 0.055291962 0.4398933
vn -0.4097862 -0.21092829 -0.8874595
vn -0.8864289 -0.17346355 0.42913207
vn -0.23458461 -0.26560643 -0.93510604
vn -0.56782126 -0.74195296 0.35648936
vn -0.114342496 -0.78090936 -0.6140901
vn -0.22716683 0.4064237 0.88499445
vn 0.8655892 -0.39507824 0.30768162
vn 0.9516214 -0.07684922 -0.2975074
vn 0.074914515 0.48425958 0.87171125
vn 0.5681405 0.45284477 -0.6871302
vn 0.12291115 0.6033603 0.7879401
vn 0.38271928 0.6117408 -0.69231415
vn 0.30547678 0.7206896 0.6223268
vn 0.7698499 0.30716795 -0.5594452
vn 0.81386304 0.27875388 0.50982636
vn 0.33750993 -0.75630116 -0.5604424
vn 0.54181117 -0.7136139 0.44406715
vn -0.5144973 -0.715818 -0.4542566
vn -0.93919384 0.19830513 -0.22739318
vn -0.9410118 0.28892356 -0.17612445
vn -0.05581379 -0.6321192 -0.77285856
vn -0.9736836 0.16463387 0.15759303
vn 0.074914515 0.48425958 0.87171125
vn 0.12291115 0.6033603 0.7879401
vn -0.8963462 0.055291962 0.4398933
vn 0.109294534 -0.04525505 0.99297863
vn 0.30547678 0.7206896 0.6223268
vn -0.036060754 -0.5477625 0.8358562
vn 0.81386304 0.27875388 0.50982636
vn 0.54181117 -0.7136139 0.44406715
vn -0.11040428 -0.07497028 0.99105525
vn 0.6390855 -0.2437028 0.72950566
vn -0.29907563 -0.7954257 0.5271163
vn -0.12751997 -0.068075106 0.989497
vn 0.56093365 -0.3816769 0.73462653
vn -0.4215486 -0.7759204 0.46930182
vn -0.8864289 -0.17346355 0.42913207
vn 0.46347427 -0.44856247 0.76418793
vn -0.56782126 -0.74195296 0.35648936
vn -0.12751997 -0.068075106 0.989497
vn 0.39001444 -0.26966983 -0.8804357
vn 0.8047452 -0.56365544 -0.1862196
vn 0.46347427 -0.44856247 0.76418793
vn 0.609277 -0.24871403 -0.7529429
vn 0.109294534 -0.04525505 0.99297863
vn -0.036060754 -0.5477625 0.8358562
vn 0.1553587 -0.6141766 -0.7737255
vn 0.54181117 -0.7136139 0.44406715
vn 0.33750993 -0.75630116 -0.5604424
vn -0.56782126 -0.74195296 0.35648936
vn 0.46347427 -0.44856247 0.76418793
vn 0.8047452 -0.56365544 -0.1862196
vn -0.114342496 -0.78090936 -0.6140901
vn -0.06820725 -0.81993556 -0.568378
vn -0.4215486 -0.7759204 0.46930182
vn 0.56093365 -0.3816769 0.73462653
vn 0.85570955 -0.46976325 -0.21698765
vn -0.11040428 -0.07497028 0.99105525
vn 0.40966707 -0.2316331 -0.8823374
vn 0.85570955 -0.46976325 -0.21698765
vn 0.56093365 -0.3816769 0.73462653
vn 0.39001444 -0.26966983 -0.8804357
vn -0.12751997 -0.068075106 0.989497
vn -0.4215486 -0.7759204 0.46930182
vn -0.06820725 -0.81993556 -0.568378
vn 0.01757142 -0.8026953 -0.5961305
vn -0.29907563 -0.7954257 0.5271163
vn 0.6390855 -0.2437028 0.72950566
vn 0.9246914 -0.29936907 -0.23521048
vn 0.40966707 -0.2316331 -0.8823374
vn -0.11040428 -0.07497028 0.99105525
vn -0.29907563 -0.7954257 0.5271163
vn 0.01757142 -0.8026953 -0.5961305
vn 0.109294534 -0.04525505 0.99297863
vn 0.609277 -0.24871403 -0.7529429
vn 0.9246914 -0.29936907 -0.23521048
vn 0.6390855 -0.2437028 0.72950566
g 1.0000_0
f 3/3/3 2/2/2 1/1/1
f 4/4/4 3/3/3 1/1/1
f 4/4/4 1/1/1 5/5/5
f 4/4/4 6/6/6 3/3/3
f 7/7/7 4/4/4 5/5/5
f 7/7/7 6/6/6 4/4/4
f 7/7/7 5/5/5 8/8/8
f 9/9/9 7/7/7 8/8/8
f 9/9/9 6/6/6 7/7/7
f 9/9/9 8/8/8 10/10/10
f 11/11/11 6/6/6 9/9/9
f 11/11/11 9/9/9 10/10/10
f 12/12/12 6/6/6 11/11/11
f 11/11/11 10/10/10 13/13/13
f 12/12/12 11/11/11 13/13/13
f 16/16/16 15/15/15 14/14/14
f 15/15/15 17/17/17 14/14/14
f 14/14/14 17/17/17 18/18/18
f 17/17/17 19/19/19 18/18/18
f 22/22/22 21/21/21 20/20/20
f 20/20/20 23/23/23 22/22/22
f 20/20/20 24/24/24 23/23/23
f 24/24/24 25/25/25 23/23/23
f 23/23/23 25/25/25 26/26/26
f 27/27/27 23/23/23 26/26/26
f 28/28/28 23/23/23 27/27/27
f 29/29/29 28/28/28 27/27/27
f 30/30/30 28/28/28 29/29/29
f 31/31/31 30/30/30 29/29/29
f 34/34/34 33/33/33 32/32/32
f 33/33/33 35/35/35 32/32/32
f 32/32/32 35/35/35 36/36/36
f 33/33/33 37/37/37 35/35/35
f 37/37/37 38/38/38 35/35/35
f 35/35/35 39/39/39 36/36/36
f 35/35/35 38/38/38 39/39/39
f 38/38/38 40/40/40 39/39/39
f 39/39/39 40/40/40 41/41/41
f 42/42/42 39/39/39 41/41/41
f 45/45/45 44/44/44 43/43/43
f 44/44/44 46/46/46 43/43/43
f 44/44/44 47/47/47 46/46/46
f 43/43/43 46/46/46 48/48/48
f 47/47/47 49/49/49 46/46/46
f 46/46/46 50/50/50 48/48/48
f 46/46/46 49/49/49 50/50/50
f 48/48/48 50/50/50 51/51/51
f 49/49/49 52/52/52 50/50/50
f 50/50/50 53/53/53 51/51/51
f 50/50/50 52/52/52 53/53/53
f 51/51/51 53/53/53 54/54/54
f 52/52/52 55/55/55 53/53/53
f 53/53/53 56/56/56 54/54/54
f 53/53/53 55/55/55 56/56/56
f 55/55/55 57/57/57 56/56/56
f 60/60/60 59/59/59 58/58/58
f 61/61/61 60/60/60 58/58/58
f 58/58/58 62/62/62 61/61/61
f 62/62/62 63/63/63 61/61/61
f 61/61/61 63/63/63 64/64/64
f 63/63/63 65/65/65 64/64/64
f 68/68/68 67/67/67 66/66/66
f 67/67/67 69/69/69 66/66/66
f 66/66/66 69/69/69 70/70/70
f 67/67/67 71/71/71 69/69/69
f 69/69/69 72/72/72 70/70/70
f 71/71/71 73/73/73 69/69/69
f 69/69/69 73/73/73 72/72/72
f 71/71/71 74/74/74 73/73/73
f 73/73/73 75/75/75 72/72/72
f 74/74/74 76/76/76 73/73/73
f 73/73/73 76/76/76 75/75/75
f 76/76/76 77/77/77 75/75/75
f 80/80/80 79/79/79 78/78/78
f 79/79/79 81/81/81 78/78/78
f 78/78/78 81/81/81 82/82/82
f 81/81/81 79/79/79 83/83/83
f 79/79/79 84/84/84 83/83/83
f 83/83/83 84/84/84 85/85/85
f 86/86/86 83/83/83 85/85/85
f 81/81/81 87/87/87 82/82/82
f 87/87/87 81/81/81 83/83/83
f 82/82/82 87/87/87 88/88/88
f 89/89/89 83/83/83 86/86/86
f 88/88/88 89/89/89 86/86/86
f 87/87/87 89/89/89 88/88/88
f 83/83/83 89/89/89 87/87/87
f 92/92/92 91/91/91 90/90/90
f 93/93/93 92/92/92 90/90/90
f 94/94/94 93/93/93 90/90/90
f 95/95/95 94/94/94 90/90/90
f 95/95/95 90/90/90 96/96/96
f 97/97/97 94/94/94 95/95/95
f 98/98/98 95/95/95 96/96/96
f 99/99/99 97/97/97 95/95/95
f 99/99/99 95/95/95 98/98/98
f 100/100/100 97/97/97 99/99/99
f 101/101/101 100/100/100 99/99/99
f 102/102/102 99/99/99 98/98/98
f 101/101/101 99/99/99 102/102/102
f 102/102/102 103/103/103 101/101/101
f 102/102/102 104/104/104 103/103/103
f 102/102/102 105/105/105 104/104/104
f 105/105/105 102/102/102 106/106/106
f 107/107/107 105/105/105 106/106/106
f 106/106/106 108/108/108 107/107/107
f 108/108/108 109/109/109 107/107/107
f 108/108/108 110/110/110 109/109/109
f 110/110/110 111/111/111 109/109/109
f 110/110/110 112/112/112 111/111/111
f 112/112/112 113/113/113 111/111/111
f 116/116/116 115/115/115 114/114/114
f 115/115/115 117/117/117 114/114/114
f 114/114/114 117/117/117 118/118/118
f 117/117/117 119/119/119 118/118/118
f 122/122/122 121/121/121 120/120/120
f 123/123/123 122/122/122 120/120/120
f 124/124/124 122/122/122 123/123/123
f 125/125/125 124/124/124 123/123/123
f 126/126/126 124/124/124 125/125/125
f 127/127/127 126/126/126 125/125/125
f 128/128/128 126/126/126 127/127/127
f 129/129/129 128/128/128 127/127/127
f 132/132/132 131/131/131 130/130/130
f 133/133/133 132/132/132 130/130/130
f 136/136/136 135/135/135 134/134/134
f 134/134/134 137/137/137 136/136/136
f 138/138/138 136/136/136 137/137/137
f 134/134/134 139/139/139 137/137/137
f 139/139/139 140/140/140 137/137/137
f 143/143/143 142/142/142 141/141/141
f 144/144/144 143/143/143 141/141/141
f 145/145/145 143/143/143 144/144/144
f 146/146/146 145/145/145 144/144/144
f 147/147/147 145/145/145 146/146/146
f 148/148/148 147/147/147 146/146/146
f 151/151/151 150/150/150 149/149/149
f 150/150/150 152/152/152 149/149/149
f 149/149/149 152/152/152 153/153/153
f 152/152/152 154/154/154 153/153/153
f 153/153/153 154/154/154 155/155/155
f 154/154/154 156/156/156 155/155/155
f 157/157/157 156/156/156 154/154/154
f 160/160/160 159/159/159 158/158/158
f 161/161/161 160/160/160 158/158/158
f 161/161/161 158/158/158 162/162/162
f 163/163/163 161/161/161 162/162/162
f 163/163/163 162/162/162 164/164/164
f 165/165/165 163/163/163 164/164/164
f 165/165/165 164/164/164 166/166/166
f 167/167/167 165/165/165 166/166/166
f 167/167/167 166/166/166 168/168/168
f 169/169/169 167/167/167 168/168/168
f 172/172/172 171/171/171 170/170/170
f 173/173/173 172/172/172 170/170/170
f 173/173/173 170/170/170 174/174/174
f 175/175/175 173/173/173 174/174/174
f 175/175/175 174/174/174 176/176/176
f 177/177/177 175/175/175 176/176/176
f 180/180/180 179/179/179 178/178/178
f 179/179/179 181/181/181 178/178/178
f 179/179/179 182/182/182 181/181/181
f 182/182/182 183/183/183 181/181/181
f 186/186/186 185/185/185 184/184/184
f 185/185/185 187/187/187 184/184/184
f 185/185/185 188/188/188 187/187/187
f 188/188/188 189/189/189 187/187/187
f 192/192/192 191/191/191 190/190/190
f 193/193/193 192/192/192 190/190/190
f 196/196/196 195/195/195 194/194/194
f 197/197/197 196/196/196 194/194/194
f 197/197/197 194/194/194 198/198/198
f 199/199/199 197/197/197 198/198/198
f 199/199/199 198/198/198 200/200/200
f 201/201/201 199/199/199 200/200/200
f 204/204/204 203/203/203 202/202/202
f 205/205/205 204/204/204 202/202/202
f 202/202/202 206/206/206 205/205/205
f 206/206/206 207/207/207 205/205/205
f 206/206/206 208/208/208 207/207/207
f 208/208/208 209/209/209 207/207/207
f 212/212/212 211/211/211 210/210/210
f 211/211/211 213/213/213 210/210/210
f 211/211/211 214/214/214 213/213/213
f 214/214/214 215/215/215 213/213/213
f 214/214/214 216/216/216 215/215/215
f 216/216/216 217/217/217 215/215/215
f 220/220/220 219/219/219 218/218/218
f 219/219/219 221/221/221 218/218/218
f 222/222/222 221/221/221 219/219/219
f 219/219/219 223/223/223 222/222/222
f 223/223/223 224/224/224 222/222/222
f 224/224/224 225/225/225 222/222/222
f 222/222/222 226/226/226 221/221/221
f 222/222/222 227/227/227 226/226/226
f 227/227/227 228/228/228 226/226/226
f 226/226/226 229/229/229 221/221/221
f 226/226/226 230/230/230 229/229/229
f 230/230/230 231/231/231 229/229/229
f 229/229/229 232/232/232 221/221/221
f 232/232/232 233/233/233 221/221/221
f 232/232/232 234/234/234 233/233/233
f 234/234/234 235/235/235 233/233/233
f 238/238/238 237/237/237 236/236/236
f 237/237/237 239/239/239 236/236/236
f 237/237/237 240/240/240 239/239/239
f 240/240/240 241/241/241 239/239/239
f 240/240/240 242/242/242 241/241/241
f 242/242/242 243/243/243 241/241/241
f 242/242/242 244/244/244 243/243/243
f 244/244/244 245/245/245 243/243/243
f 248/248/248 247/247/247 246/246/246
f 247/247/247 249/249/249 246/246/246
f 247/247/247 250/250/250 249/249/249
f 250/250/250 251/251/251 249/249/249
f 250/250/250 252/252/252 251/251/251
f 252/252/252 253/253/253 251/251/251
f 252/252/252 254/254/254 253/253/253
f 254/254/254 255/255/255 253/253/253
f 254/254/254 256/256/256 255/255/255
f 256/256/256 257/257/257 255/255/255
f 260/260/260 259/259/259 258/258/258
f 261/261/261 260/260/260 258/258/258
f 264/264/264 263/263/263 262/262/262
f 263/263/263 265/265/265 262/262/262
f 265/265/265 263/263/263 266/266/266
f 266/266/266 267/267/267 265/265/265
f 266/266/266 268/268/268 267/267/267
f 268/268/268 269/269/269 267/267/267
f 263/263/263 270/270/270 266/266/266
f 270/270/270 271/271/271 266/266/266
f 271/271/271 272/272/272 266/266/266
f 263/263/263 273/273/273 270/270/270
f 263/263/263 274/274/274 273/273/273
f 273/273/273 275/275/275 270/270/270
f 275/275/275 276/276/276 270/270/270
f 274/274/274 277/277/277 273/273/273
f 274/274/274 278/278/278 277/277/277
f 278/278/278 279/279/279 277/277/277
f 282/282/282 281/281/281 280/280/280
f 283/283/283 282/282/282 280/280/280
f 286/286/286 285/285/285 284/284/284
f 285/285/285 287/287/287 284/284/284
f 285/285/285 288/288/288 287/287/287
f 288/288/288 289/289/289 287/287/287
f 292/292/292 291/291/291 290/290/290
f 293/293/293 292/292/292 290/290/290
f 296/296/296 295/295/295 294/294/294
f 297/297/297 296/296/296 294/294/294
f 300/300/300 299/299/299 298/298/298
f 301/301/301 300/300/300 298/298/298
f 304/304/304 303/303/303 302/302/302
f 305/305/305 304/304/304 302/302/302
f 308/308/308 307/307/307 306/306/306
f 309/309/309 308/308/308 306/306/306
f 312/312/312 311/311/311 310/310/310
f 313/313/313 312/312/312 310/310/310
f 316/316/316 315/315/315 314/314/314
f 317/317/317 316/316/316 314/314/314
f 320/320/320 319/319/319 318/318/318
f 319/319/319 321/321/321 318/318/318
f 318/318/318 321/321/321 322/322/322
f 323/323/323 321/321/321 319/319/319
f 321/321/321 324/324/324 322/322/322
f 323/323/323 324/324/324 321/321/321
f 322/322/322 324/324/324 325/325/325
f 324/324/324 326/326/326 325/325/325
f 323/323/323 326/326/326 324/324/324
f 325/325/325 326/326/326 327/327/327
f 323/323/323 328/328/328 326/326/326
f 326/326/326 328/328/328 327/327/327
f 323/323/323 329/329/329 328/328/328
f 327/327/327 328/328/328 330/330/330
f 328/328/328 329/329/329 330/330/330
f 333/333/333 332/332/332 331/331/331
f 334/334/334 333/333/333 331/331/331
f 334/334/334 331/331/331 335/335/335
f 336/336/336 334/334/334 335/335/335
f 339/339/339 338/338/338 337/337/337
f 337/337/337 340/340/340 339/339/339
f 337/337/337 341/341/341 340/340/340
f 337/337/337 342/342/342 341/341/341
f 342/342/342 337/337/337 343/343/343
f 337/337/337 344/344/344 343/343/343
f 337/337/337 345/345/345 344/344/344
f 345/345/345 346/346/346 344/344/344
f 345/345/345 347/347/347 346/346/346
f 347/347/347 348/348/348 346/346/346
f 351/351/351 350/350/350 349/349/349
f 352/352/352 351/351/351 349/349/349
f 352/352/352 349/349/349 353/353/353
f 354/354/354 351/351/351 352/352/352
f 355/355/355 354/354/354 352/352/352
f 356/356/356 352/352/352 353/353/353
f 355/355/355 352/352/352 356/356/356
f 357/357/357 355/355/355 356/356/356
f 357/357/357 356/356/356 358/358/358
f 356/356/356 359/359/359 358/358/358
f 362/362/362 361/361/361 360/360/360
f 363/363/363 362/362/362 360/360/360
f 364/364/364 362/362/362 363/363/363
f 363/363/363 360/360/360 365/365/365
f 366/366/366 364/364/364 363/363/363
f 367/367/367 363/363/363 365/365/365
f 366/366/366 363/363/363 367/367/367
f 367/367/367 365/365/365 368/368/368
f 369/369/369 366/366/366 367/367/367
f 370/370/370 367/367/367 368/368/368
f 369/369/369 367/367/367 370/370/370
f 370/370/370 368/368/368 371/371/371
f 372/372/372 369/369/369 370/370/370
f 373/373/373 370/370/370 371/371/371
f 372/372/372 370/370/370 373/373/373
f 374/374/374 372/372/372 373/373/373
f 377/377/377 376/376/376 375/375/375
f 376/376/376 378/378/378 375/375/375
f 379/379/379 375/375/375 378/378/378
f 380/380/380 379/379/379 378/378/378
f 380/380/380 378/378/378 381/381/381
f 382/382/382 380/380/380 381/381/381
f 385/385/385 384/384/384 383/383/383
f 386/386/386 385/385/385 383/383/383
f 386/386/386 383/383/383 387/387/387
f 388/388/388 385/385/385 386/386/386
f 389/389/389 386/386/386 387/387/387
f 390/390/390 388/388/388 386/386/386
f 390/390/390 386/386/386 389/389/389
f 391/391/391 388/388/388 390/390/390
f 392/392/392 390/390/390 389/389/389
f 393/393/393 391/391/391 390/390/390
f 393/393/393 390/390/390 392/392/392
f 394/394/394 393/393/393 392/392/392
f 397/397/397 396/396/396 395/395/395
f 398/398/398 397/397/397 395/395/395
f 398/398/398 395/395/395 399/399/399
f 400/400/400 397/397/397 398/398/398
f 401/401/401 398/398/398 399/399/399
f 401/401/401 399/399/399 402/402/402
f 398/398/398 403/403/403 400/400/400
f 398/398/398 401/401/401 403/403/403
f 400/400/400 403/403/403 404/404/404
f 403/403/403 405/405/405 404/404/404
f 406/406/406 402/402/402 405/405/405
f 406/406/406 401/401/401 402/402/402
f 403/403/403 406/406/406 405/405/405
f 401/401/401 406/406/406 403/403/403
f 409/409/409 408/408/408 407/407/407
f 408/408/408 410/410/410 407/407/407
f 410/410/410 411/411/411 407/407/407
f 411/411/411 412/412/412 407/407/407
f 407/407/407 412/412/412 413/413/413
f 411/411/411 414/414/414 412/412/412
f 412/412/412 415/415/415 413/413/413
f 414/414/414 416/416/416 412/412/412
f 412/412/412 416/416/416 415/415/415
f 414/414/414 417/417/417 416/416/416
f 417/417/417 418/418/418 416/416/416
f 416/416/416 419/419/419 415/415/415
f 419/419/419 416/416/416 418/418/418
f 418/418/418 420/420/420 419/419/419
f 420/420/420 421/421/421 419/419/419
f 421/421/421 422/422/422 419/419/419
f 419/419/419 422/422/422 423/423/423
f 422/422/422 424/424/424 423/423/423
f 425/425/425 423/423/423 424/424/424
f 426/426/426 425/425/425 424/424/424
f 427/427/427 425/425/425 426/426/426
f 428/428/428 427/427/427 426/426/426
f 429/429/429 427/427/427 428/428/428
f 430/430/430 429/429/429 428/428/428
f 433/433/433 432/432/432 431/431/431
f 434/434/434 433/433/433 431/431/431
f 434/434/434 431/431/431 435/435/435
f 436/436/436 434/434/434 435/435/435
f 439/439/439 438/438/438 437/437/437
f 438/438/438 440/440/440 437/437/437
f 438/438/438 441/441/441 440/440/440
f 441/441/441 442/442/442 440/440/440
f 441/441/441 443/443/443 442/442/442
f 443/443/443 444/444/444 442/442/442
f 443/443/443 445/445/445 444/444/444
f 445/445/445 446/446/446 444/444/444
f 449/449/449 448/448/448 447/447/447
f 450/450/450 449/449/449 447/447/447
f 453/453/453 452/452/452 451/451/451
f 451/451/451 454/454/454 453/453/453
f 451/451/451 455/455/455 454/454/454
f 454/454/454 456/456/456 453/453/453
f 454/454/454 457/457/457 456/456/456
f 460/460/460 459/459/459 458/458/458
f 459/459/459 461/461/461 458/458/458
f 459/459/459 462/462/462 461/461/461
f 462/462/462 463/463/463 461/461/461
f 462/462/462 464/464/464 463/463/463
f 464/464/464 465/465/465 463/463/463
f 468/468/468 467/467/467 466/466/466
f 469/469/469 468/468/468 466/466/466
f 469/469/469 466/466/466 470/470/470
f 471/471/471 469/469/469 470/470/470
f 471/471/471 470/470/470 472/472/472
f 473/473/473 471/471/471 472/472/472
f 473/473/473 474/474/474 471/471/471
f 477/477/477 476/476/476 475/475/475
f 476/476/476 478/478/478 475/475/475
f 475/475/475 478/478/478 479/479/479
f 478/478/478 480/480/480 479/479/479
f 479/479/479 480/480/480 481/481/481
f 480/480/480 482/482/482 481/481/481
f 481/481/481 482/482/482 483/483/483
f 482/482/482 484/484/484 483/483/483
f 483/483/483 484/484/484 485/485/485
f 484/484/484 486/486/486 485/485/485
f 489/489/489 488/488/488 487/487/487
f 488/488/488 490/490/490 487/487/487
f 487/487/487 490/490/490 491/491/491
f 490/490/490 492/492/492 491/491/491
f 491/491/491 492/492/492 493/493/493
f 492/492/492 494/494/494 493/493/493
f 497/497/497 496/496/496 495/495/495
f 498/498/498 497/497/497 495/495/495
f 499/499/499 497/497/497 498/498/498
f 500/500/500 499/499/499 498/498/498
f 503/503/503 502/502/502 501/501/501
f 504/504/504 503/503/503 501/501/501
f 505/505/505 503/503/503 504/504/504
f 506/506/506 505/505/505 504/504/504
f 509/509/509 508/508/508 507/507/507
f 510/510/510 509/509/509 507/507/507
f 513/513/513 512/512/512 511/511/511
f 512/512/512 514/514/514 511/511/511
f 511/511/511 514/514/514 515/515/515
f 514/514/514 516/516/516 515/515/515
f 515/515/515 516/516/516 517/517/517
f 516/516/516 518/518/518 517/517/517
f 521/521/521 520/520/520 519/519/519
f 520/520/520 522/522/522 519/519/519
f 523/523/523 519/519/519 522/522/522
f 524/524/524 523/523/523 522/522/522
f 525/525/525 523/523/523 524/524/524
f 526/526/526 525/525/525 524/524/524
f 529/529/529 528/528/528 527/527/527
f 530/530/530 529/529/529 527/527/527
f 531/531/531 529/529/529 530/530/530
f 532/532/532 531/531/531 530/530/530
f 533/533/533 531/531/531 532/532/532
f 534/534/534 533/533/533 532/532/532
f 537/537/537 536/536/536 535/535/535
f 538/538/538 537/537/537 535/535/535
f 537/537/537 538/538/538 539/539/539
f 540/540/540 539/539/539 538/538/538
f 541/541/541 540/540/540 538/538/538
f 542/542/542 540/540/540 541/541/541
f 543/543/543 542/542/542 541/541/541
f 539/539/539 544/544/544 537/537/537
f 545/545/545 544/544/544 539/539/539
f 546/546/546 545/545/545 539/539/539
f 544/544/544 547/547/547 537/537/537
f 547/547/547 548/548/548 537/537/537
f 549/549/549 548/548/548 547/547/547
f 550/550/550 549/549/549 547/547/547
f 551/551/551 547/547/547 544/544/544
f 552/552/552 551/551/551 544/544/544
f 555/555/555 554/554/554 553/553/553
f 556/556/556 555/555/555 553/553/553
f 557/557/557 555/555/555 556/556/556
f 558/558/558 557/557/557 556/556/556
f 559/559/559 557/557/557 558/558/558
f 560/560/560 559/559/559 558/558/558
f 561/561/561 559/559/559 560/560/560
f 562/562/562 561/561/561 560/560/560
f 565/565/565 564/564/564 563/563/563
f 566/566/566 565/565/565 563/563/563
f 567/567/567 565/565/565 566/566/566
f 568/568/568 567/567/567 566/566/566
f 569/569/569 567/567/567 568/568/568
f 570/570/570 569/569/569 568/568/568
f 571/571/571 569/569/569 570/570/570
f 572/572/572 571/571/571 570/570/570
f 573/573/573 571/571/571 572/572/572
f 574/574/574 573/573/573 572/572/572
f 577/577/577 576/576/576 575/575/575
f 578/578/578 577/577/577 575/575/575
f 581/581/581 580/580/580 579/579/579
f 582/582/582 581/581/581 579/579/579
f 583/583/583 581/581/581 582/582/582
f 584/584/584 581/581/581 583/583/583
f 585/585/585 584/584/584 583/583/583
f 586/586/586 584/584/584 585/585/585
f 587/587/587 586/586/586 585/585/585
f 582/582/582 588/588/588 583/583/583
f 589/589/589 583/583/583 588/588/588
f 590/590/590 589/589/589 588/588/588
f 582/582/582 591/591/591 588/588/588
f 592/592/592 588/588/588 591/591/591
f 593/593/593 592/592/592 591/591/591
f 582/582/582 594/594/594 591/591/591
f 595/595/595 591/591/591 594/594/594
f 596/596/596 595/595/595 594/594/594
f 599/599/599 598/598/598 597/597/597
f 600/600/600 599/599/599 597/597/597
f 603/603/603 602/602/602 601/601/601
f 604/604/604 603/603/603 601/601/601
f 605/605/605 603/603/603 604/604/604
f 606/606/606 605/605/605 604/604/604
f 609/609/609 608/608/608 607/607/607
f 610/610/610 609/609/609 607/607/607
f 613/613/613 612/612/612 611/611/611
f 614/614/614 613/613/613 611/611/611
f 617/617/617 616/616/616 615/615/615
f 618/618/618 617/617/617 615/615/615
f 621/621/621 620/620/620 619/619/619
f 622/622/622 621/621/621 619/619/619
f 625/625/625 624/624/624 623/623/623
f 626/626/626 625/625/625 623/623/623
f 629/629/629 628/628/628 627/627/627
f 630/630/630 629/629/629 627/627/627
f 633/633/633 632/632/632 631/631/631
f 634/634/634 633/633/633 631/631/631
