g 1.1000
v 1.210377 -0.8794911 4.816593
v 1.7044852 -0.5282881 4.6000257
v 1.2001383 -0.14653516 4.5952353
v 1.2522256 0.51637256 5.3513966
v 0.89934194 0.83272284 5.2036915
v 1.2131488 0.5207522 4.96095
v 0.96095604 -0.49054313 4.1820617
v 0.54087025 -0.92557716 4.1713314
v 0.92053485 -0.7845807 4.278892
v 0.09114352 -1.1358483 6.221974
v 0.50709075 -1.1691206 6.043177
v 0.3657731 -1.4461029 6.2256823
v 0.2980541 -1.7076612 5.4858303
v 0.072004855 -1.7648565 5.34416
v 0.07504966 -1.8916417 5.4555936
v 1.7067341 0.24090934 4.0204444
v 1.5730431 -0.09860611 4.2270646
v 1.9664102 0.014117479 4.1992702
v 0.8442868 -0.6827184 -0.17883036
v 1.1392748 -0.71379215 -0.029759362
v 1.3525265 -0.55764896 -0.13776277
v 1.1505703 -0.011899039 0.7820816
v 0.9286621 -0.33478135 0.70136213
v 1.3298367 -0.74287367 1.928689
v 1.2102469 -0.40776563 2.9514277
v 0.8304738 -0.58866847 2.9899392
v 1.294867 0.19204068 3.2098188
v 2.0459666 -0.3774395 5.6276507
v 1.7729169 0.050885677 5.8451557
v 1.7413433 0.5689323 5.4654117
v 2.2436037 0.6349745 3.3308482
v 1.7067341 0.24090934 4.0204444
v 2.4037163 0.42432237 3.320528
v 0.97312164 0.0486995 5.906442
v 0.105466105 -0.610173 6.297421
v 0.12027879 0.094288826 6.286398
v 0.21170098 -0.47902164 2.3696551
v -0.004822556 0.27407953 2.410121
v -0.005340308 -0.5623256 2.370754
v -1.1024649 -0.7407331 5.2889876
v -1.1005567 -0.6317674 4.6737022
v -1.6076844 -0.73345256 5.042738
v -1.0966163 0.40977192 4.608584
v -1.0811645 0.022013187 4.363022
v -0.7556825 0.6684469 4.7864356
v -0.8833002 -0.84945 4.293795
v -0.838794 -1.0449082 4.4859285
v -0.46302563 -1.112445 4.225902
v 0.09114352 -1.1358483 6.221974
v -0.18115845 -1.4476697 6.238543
v -0.3328949 -1.1175624 6.0861335
v -0.14717096 -1.7088518 5.4963593
v 0.07504966 -1.8916417 5.4555936
v 0.072004855 -1.7648565 5.34416
v -1.6346368 -1.0878806 4.3151636
v -1.8898315 -0.95967615 4.421007
v -1.4987941 -0.94998693 4.531869
v -0.9766064 0.39329892 -0.027703196
v -1.4828875 0.5126277 0.04641229
v -1.2641169 0.34856927 0.1304746
v -1.2378004 0.9563876 0.9863906
v -1.367498 0.012325048 1.7496669
v -1.0212646 0.65013254 0.85155
v -1.1987687 -0.5080272 2.6753123
v -1.2628286 -0.29087865 3.2428956
v -0.8176361 -0.6809616 2.6832283
v -1.8802527 0.27284098 5.2391906
v -1.5756187 0.37661672 4.2045226
v -1.5908135 0.60896575 5.029358
v -2.178505 -1.8750315 4.3443327
v -2.3501348 -1.7708292 4.516966
v -1.6346368 -1.0878806 4.3151636
v -0.8023518 0.33010545 5.7128935
v 0.12027879 0.094288826 6.286398
v 0.105466105 -0.610173 6.297421
v -0.22524208 -0.374917 2.264038
v -0.005340308 -0.5623256 2.370754
v -0.004822556 0.27407953 2.410121
v 2.1526518 0.7132373 2.7687442
v 2.5606322 0.82727957 2.7152367
v 2.1558304 0.9085288 2.7616577
v 2.2794638 1.1435347 2.6185808
v 2.3688588 1.4589828 2.7225628
v 2.6251774 1.3887323 2.6265047
v 2.1347957 0.7388017 3.0023901
v 2.1558304 0.9085288 2.7616577
v 2.2794638 1.1435347 2.6185808
v 2.1203976 0.8133328 2.8005295
v 2.1526518 0.7132373 2.7687442
v 2.4037163 0.42432237 3.320528
v 2.2436037 0.6349745 3.3308482
v 2.3149343 1.0307539 3.5958667
v 1.210377 -0.8794911 4.816593
v 1.2001383 -0.14653516 4.5952353
v 0.92053485 -0.7845807 4.278892
v 0.96095604 -0.49054313 4.1820617
v 1.1430361 0.11929619 3.9581447
v 0.76324487 -0.65114176 3.1406486
v 1.294867 0.19204068 3.2098188
v 0.8304738 -0.58866847 2.9899392
v 1.2131488 0.5207522 4.96095
v 1.077954 0.76985586 4.4408545
v 0.89934194 0.83272284 5.2036915
v 1.1259946 1.1469139 2.7921572
v 1.3256434 -0.04099667 2.3565655
v 1.0190005 0.20230389 2.0256503
v 1.3047038 -0.0015466213 1.6367582
v 1.3244641 -0.31780374 2.5132716
v 1.2538728 -0.5131135 2.6066766
v 1.2102469 -0.40776563 2.9514277
v 1.3298367 -0.74287367 1.928689
v 1.1505703 -0.011899039 0.7820816
v 0.9702958 0.28147894 1.0746458
v 1.0236379 0.6203433 0.4541586
v 1.5429693 -0.33130714 -0.0023308694
v 0.7774561 -0.45375475 0.93000746
v 1.3298367 -0.74287367 1.928689
v 0.9286621 -0.33478135 0.70136213
v 0.38924113 -0.43926653 0.02616115
v 0.7605312 -0.71410406 -0.04298091
v 0.44090664 -0.6029001 -0.117441624
v 0.8442868 -0.6827184 -0.17883036
v 1.1392748 -0.71379215 -0.029759362
v 1.5429693 -0.33130714 -0.0023308694
v 1.1505703 -0.011899039 0.7820816
v 1.3525265 -0.55764896 -0.13776277
v 0.5490915 0.09368475 0.19084513
v 0.6839547 0.6732665 0.43732086
v 0.54779583 0.20607944 0.90995
v 0.38924113 -0.43926653 0.02616115
v 0.7774561 -0.45375475 0.93000746
v 0.23637351 -0.29648617 1.4054389
v 0.65607214 0.17964584 1.6738164
v 0.42307168 -0.7614528 1.8686727
v 0.26729023 -0.20114219 1.7942059
v 0.23945951 0.08002746 2.1152818
v 0.21170098 -0.47902164 2.3696551
v -0.004822556 0.27407953 2.410121
v -0.0018145479 1.0620391 2.585433
v 1.0190005 0.20230389 2.0256503
v 0.23945951 0.08002746 2.1152818
v 0.65607214 0.17964584 1.6738164
v 1.3047038 -0.0015466213 1.6367582
v 0.9702958 0.28147894 1.0746458
v 0.54779583 0.20607944 0.90995
v 0.6839547 0.6732665 0.43732086
v 1.0236379 0.6203433 0.4541586
v 2.2425303 0.32025647 5.270937
v 2.0459666 -0.3774395 5.6276507
v 1.7413433 0.5689323 5.4654117
v 2.5551677 0.8176074 4.8937306
v 2.223074 1.0637846 4.5017276
v 2.7098424 1.0329769 3.734222
v 1.7509339 0.97094774 4.542511
v 1.2522256 0.51637256 5.3513966
v 1.7729169 0.050885677 5.8451557
v 0.97312164 0.0486995 5.906442
v 0.89934194 0.83272284 5.2036915
v 1.5935445 -0.27867222 5.9375873
v 2.0459666 -0.3774395 5.6276507
v 1.1004856 -0.628255 5.8410053
v 0.105466105 -0.610173 6.297421
v 0.5987544 -0.7558998 6.1320844
v 0.44958663 0.5242696 5.7931695
v 0.11714929 0.4396584 5.94804
v 0.12027879 0.094288826 6.286398
v 0.11000951 0.6760638 5.5644364
v 0.065096095 1.1205939 4.6720586
v 0.7798655 0.9698703 4.358414
v 1.077954 0.76985586 4.4408545
v 0.035590276 1.0764762 4.0797944
v 1.1259946 1.1469139 2.7921572
v 0.017702915 1.3726141 3.466423
v 0.4810879 1.4285853 2.7982252
v -0.0018145479 1.0620391 2.585433
v 1.7067341 0.24090934 4.0204444
v 1.2001383 -0.14653516 4.5952353
v 1.5730431 -0.09860611 4.2270646
v 1.7509339 0.97094774 4.542511
v 1.2131488 0.5207522 4.96095
v 1.2522256 0.51637256 5.3513966
v 1.7470267 0.7563617 3.9183078
v 2.2436037 0.6349745 3.3308482
v 2.5606322 0.82727957 2.7152367
v 2.717044 1.4084591 2.945335
v 2.6251774 1.3887323 2.6265047
v 2.880917 0.48761106 3.4258566
v 2.7098424 1.0329769 3.734222
v 2.5886288 1.5512881 3.1745338
v 2.4507704 1.6316707 2.9833658
v 2.7907367 0.5483813 4.437842
v 2.5737195 0.0247221 4.370775
v 2.5551677 0.8176074 4.8937306
v 2.5757895 0.47324467 4.770672
v 2.4524827 -0.0022614002 4.5212975
v 2.2425303 0.32025647 5.270937
v 2.0929265 -0.07772493 4.990693
v 2.0459666 -0.3774395 5.6276507
v 1.825273 -0.86756086 5.0380764
v 1.7044852 -0.5282881 4.6000257
v 1.9664102 0.014117479 4.1992702
v 2.5886288 1.5512881 3.1745338
v 2.7098424 1.0329769 3.734222
v 2.3149343 1.0307539 3.5958667
v 2.4507704 1.6316707 2.9833658
v 2.0634117 1.4309502 3.2217531
v 2.0449207 1.1645279 3.4563067
v 2.3688588 1.4589828 2.7225628
v 1.9276178 1.1443636 2.7920778
v 2.2794638 1.1435347 2.6185808
v 2.0017405 1.4059201 2.8782952
v 2.4507704 1.6316707 2.9833658
v 2.0634117 1.4309502 3.2217531
v 2.717044 1.4084591 2.945335
v 2.6251774 1.3887323 2.6265047
v 2.2794638 1.1435347 2.6185808
v 1.9276178 1.1443636 2.7920778
v 1.8076651 0.8087764 3.110316
v 2.1347957 0.7388017 3.0023901
v 1.2001383 -0.14653516 4.5952353
v 1.7044852 -0.5282881 4.6000257
v 1.5730431 -0.09860611 4.2270646
v 1.9664102 0.014117479 4.1992702
v 0.8442868 -0.6827184 -0.17883036
v 0.38924113 -0.43926653 0.02616115
v 0.44090664 -0.6029001 -0.117441624
v 1.1370734 -0.07373987 0.08461054
v 1.3525265 -0.55764896 -0.13776277
v 0.5490915 0.09368475 0.19084513
v 1.5429693 -0.33130714 -0.0023308694
v 0.6839547 0.6732665 0.43732086
v 1.0236379 0.6203433 0.4541586
v 0.96095604 -0.49054313 4.1820617
v 0.76324487 -0.65114176 3.1406486
v 0.54087025 -0.92557716 4.1713314
v 0.027976386 -1.0687718 4.0165772
v 0.04408662 -1.0808418 4.3101573
v 0.6479379 -1.090152 4.442592
v 0.92053485 -0.7845807 4.278892
v 1.210377 -0.8794911 4.816593
v 0.4151358 -1.0142075 4.819425
v 0.3386247 -1.0326946 4.9715786
v 0.05657105 -1.1108731 4.8374853
v 0.623093 -0.96433854 5.1051316
v 0.9538615 -0.8698554 5.6147466
v 0.617039 -0.9222729 5.3368707
v 0.5987544 -0.7558998 6.1320844
v 1.1004856 -0.628255 5.8410053
v 1.825273 -0.86756086 5.0380764
v 1.7044852 -0.5282881 4.6000257
v 2.0459666 -0.3774395 5.6276507
v 1.5935445 -0.27867222 5.9375873
v 0.76324487 -0.65114176 3.1406486
v 0.011020023 -1.0305831 3.0115597
v 0.027976386 -1.0687718 4.0165772
v 0.2889519 -0.83199304 2.8146744
v 0.004676368 -0.90464276 2.7611563
v -0.005340308 -0.5623256 2.370754
v 0.8304738 -0.58866847 2.9899392
v 0.21170098 -0.47902164 2.3696551
v 0.8304146 -0.67408353 2.615894
v 1.0312333 -0.6205888 2.6287417
v 1.2102469 -0.40776563 2.9514277
v 1.2538728 -0.5131135 2.6066766
v 1.3298367 -0.74287367 1.928689
v 0.8270807 -0.8953548 1.870872
v 0.42307168 -0.7614528 1.8686727
v 0.7774561 -0.45375475 0.93000746
v 0.50709075 -1.1691206 6.043177
v 0.5837883 -1.3744872 6.077962
v 0.3657731 -1.4461029 6.2256823
v 0.59728557 -1.0607579 5.2441616
v 0.617039 -0.9222729 5.3368707
v 0.5987544 -0.7558998 6.1320844
v 0.623093 -0.96433854 5.1051316
v 0.57582235 -1.4308524 5.084688
v 0.55444336 -1.4627098 5.537053
v 0.5173281 -1.6310692 5.7556467
v 0.46078455 -1.6923478 5.988673
v 0.57910043 -1.465371 5.338278
v 0.5762999 -1.4679471 5.1873326
v 0.41113234 -1.7228056 5.301975
v 0.45115927 -1.7585711 5.156988
v 0.45006472 -1.7417468 5.067814
v 0.09114352 -1.1358483 6.221974
v 0.3657731 -1.4461029 6.2256823
v 0.09330534 -1.5726004 6.261034
v 0.08914627 -1.8081138 6.0527263
v 0.46078455 -1.6923478 5.988673
v 0.5837883 -1.3744872 6.077962
v 1.7509339 0.97094774 4.542511
v 2.7098424 1.0329769 3.734222
v 2.223074 1.0637846 4.5017276
v 2.3149343 1.0307539 3.5958667
v 1.7470267 0.7563617 3.9183078
v 2.2436037 0.6349745 3.3308482
v 2.1526518 0.7132373 2.7687442
v 2.4037163 0.42432237 3.320528
v 2.5606322 0.82727957 2.7152367
v 2.880917 0.48761106 3.4258566
v 2.1335392 0.0050907135 4.0468216
v 1.7067341 0.24090934 4.0204444
v 2.5737195 0.0247221 4.370775
v 1.9664102 0.014117479 4.1992702
v 2.4524827 -0.0022614002 4.5212975
v 2.0929265 -0.07772493 4.990693
v 0.5987544 -0.7558998 6.1320844
v 0.09594487 -0.7893062 6.1360464
v 0.105466105 -0.610173 6.297421
v 0.50709075 -1.1691206 6.043177
v 0.09114352 -1.1358483 6.221974
v 0.45115927 -1.7585711 5.156988
v 0.06716632 -1.839316 5.138639
v 0.072004855 -1.7648565 5.34416
v 0.41113234 -1.7228056 5.301975
v 0.2980541 -1.7076612 5.4858303
v 0.57910043 -1.465371 5.338278
v 0.55444336 -1.4627098 5.537053
v 0.57582235 -1.4308524 5.084688
v 0.05729317 -1.5444798 4.7901106
v 0.45006472 -1.7417468 5.067814
v 0.06437996 -1.795892 5.0326557
v 0.06716632 -1.839316 5.138639
v 0.45115927 -1.7585711 5.156988
v 0.07504966 -1.8916417 5.4555936
v 0.30839112 -1.6734576 5.77464
v 0.2980541 -1.7076612 5.4858303
v 0.08914627 -1.8081138 6.0527263
v 0.46078455 -1.6923478 5.988673
v 0.30839112 -1.6734576 5.77464
v 0.08914627 -1.8081138 6.0527263
v 0.5173281 -1.6310692 5.7556467
v 0.2980541 -1.7076612 5.4858303
v 0.55444336 -1.4627098 5.537053
v 1.9276178 1.1443636 2.7920778
v 2.0017405 1.4059201 2.8782952
v 1.8076651 0.8087764 3.110316
v 2.0449207 1.1645279 3.4563067
v 2.0634117 1.4309502 3.2217531
v 2.1347957 0.7388017 3.0023901
v 1.8076651 0.8087764 3.110316
v 2.0449207 1.1645279 3.4563067
v 2.3149343 1.0307539 3.5958667
v -2.1088011 -2.3942518 4.580785
v -2.1016743 -2.5035596 4.41892
v -2.5119717 -2.4961493 4.4838967
v -2.2186577 -2.7481353 4.2867026
v -2.286006 -2.8259592 3.958497
v -2.5498242 -2.8678846 4.0507126
v -2.0790937 -2.2096922 4.4371953
v -2.2186577 -2.7481353 4.2867026
v -2.1016743 -2.5035596 4.41892
v -2.0697565 -2.4205434 4.4815173
v -2.1088011 -2.3942518 4.580785
v -2.3501348 -1.7708292 4.516966
v -2.178505 -1.8750315 4.3443327
v -2.2162256 -1.8588839 3.8644571
v -1.1024649 -0.7407331 5.2889876
v -0.838794 -1.0449082 4.4859285
v -1.1005567 -0.6317674 4.6737022
v -0.8833002 -0.84945 4.293795
v -1.0737355 -0.37897438 3.960581
v -0.73558354 -0.82128483 3.2259877
v -1.2628286 -0.29087865 3.2428956
v -0.8176361 -0.6809616 2.6832283
v -1.0811645 0.022013187 4.363022
v -0.9776002 0.29227746 3.9606738
v -0.7556825 0.6684469 4.7864356
v -1.1014432 0.8859229 3.2384102
v -1.333462 0.18875867 2.5262666
v -1.0371985 0.62863284 2.4568758
v -1.3467689 0.8598424 1.8843071
v -1.3306983 -0.11882001 2.4193485
v -1.2594974 -0.32787967 2.3409047
v -1.1987687 -0.5080272 2.6753123
v -1.367498 0.012325048 1.7496669
v -1.2378004 0.9563876 0.9863906
v -1.0417109 1.2051176 1.3081516
v -1.12697 1.6329563 0.734782
v -1.6672322 0.7261181 0.2091082
v -0.8594784 0.52823925 1.0359087
v -1.0212646 0.65013254 0.85155
v -1.367498 0.012325048 1.7496669
v -0.51282096 0.6217348 0.17472526
v -0.8862311 0.35101867 0.10074821
v -0.57093287 0.47038424 0.020689547
v -0.9766064 0.39329892 -0.027703196
v -1.2641169 0.34856927 0.1304746
v -1.6672322 0.7261181 0.2091082
v -1.2378004 0.9563876 0.9863906
v -1.4828875 0.5126277 0.04641229
v -0.66600513 1.1385071 0.39156747
v -0.62855387 1.1576347 1.1132549
v -0.7885694 1.6893557 0.7069385
v -0.51282096 0.6217348 0.17472526
v -0.8594784 0.52823925 1.0359087
v -0.29375005 0.6410735 1.516218
v -0.6924571 1.0175381 2.0777388
v -0.46481135 -0.026580095 1.6469972
v -0.3034923 0.50996596 1.9607286
v -0.2587398 0.42436284 2.318548
v -0.22524208 -0.374917 2.264038
v -0.004822556 0.27407953 2.410121
v -0.0018145479 1.0620391 2.585433
v -1.0371985 0.62863284 2.4568758
v -0.6924571 1.0175381 2.0777388
v -0.2587398 0.42436284 2.318548
v -1.3467689 0.8598424 1.8843071
v -1.0417109 1.2051176 1.3081516
v -0.62855387 1.1576347 1.1132549
v -0.7885694 1.6893557 0.7069385
v -1.12697 1.6329563 0.734782
v -2.0917377 0.1124835 4.2702456
v -1.5756187 0.37661672 4.2045226
v -1.8802527 0.27284098 5.2391906
v -2.4145112 -0.32195163 3.632841
v -2.092226 -0.858943 3.4246178
v -2.603808 -1.738944 3.762016
v -1.6294476 -0.6558833 3.5459907
v -1.0966163 0.40977192 4.608584
v -1.5908135 0.60896575 5.029358
v -0.8023518 0.33010545 5.7128935
v -0.7556825 0.6684469 4.7864356
v -1.4134357 0.41918027 5.528585
v -1.8802527 0.27284098 5.2391906
v -0.9349431 -0.36155456 5.869446
v 0.105466105 -0.610173 6.297421
v -0.41996062 -0.60258424 6.1568327
v -0.28414908 0.6119073 5.5990725
v 0.11714929 0.4396584 5.94804
v 0.12027879 0.094288826 6.286398
v 0.11000951 0.6760638 5.5644364
v 0.065096095 1.1205939 4.6720586
v -0.68544304 0.6983759 3.980874
v -0.9776002 0.29227746 3.9606738
v 0.035590276 1.0764762 4.0797944
v -1.1014432 0.8859229 3.2384102
v 0.017702915 1.3726141 3.466423
v -0.45449165 1.2112621 3.3365374
v -0.0018145479 1.0620391 2.585433
v -1.6346368 -1.0878806 4.3151636
v -1.4987941 -0.94998693 4.531869
v -1.1005567 -0.6317674 4.6737022
v -1.6294476 -0.6558833 3.5459907
v -1.0811645 0.022013187 4.363022
v -1.0966163 0.40977192 4.608584
v -1.6543626 -1.3902392 3.9248374
v -2.178505 -1.8750315 4.3443327
v -2.5119717 -2.4961493 4.4838967
v -2.5498242 -2.8678846 4.0507126
v -2.626053 -2.6069226 3.8594816
v -2.8179696 -1.7104464 4.374472
v -2.603808 -1.738944 3.762016
v -2.479887 -2.4892194 3.6266634
v -2.3465986 -2.6952567 3.669025
v -2.6810403 -0.81460834 3.840868
v -2.4887943 -0.72013354 4.367467
v -2.4145112 -0.32195163 3.632841
v -2.452787 -0.44745922 3.8912077
v -2.356436 -0.6132176 4.44366
v -2.0917377 0.1124835 4.2702456
v -1.9654548 -0.21793962 4.658249
v -1.8802527 0.27284098 5.2391906
v -1.7032708 -0.41693485 5.470567
v -1.6076844 -0.73345256 5.042738
v -1.8898315 -0.95967615 4.421007
v -2.479887 -2.4892194 3.6266634
v -2.2162256 -1.8588839 3.8644571
v -2.603808 -1.738944 3.762016
v -2.3465986 -2.6952567 3.669025
v -1.960397 -2.390431 3.7403953
v -1.9458883 -2.0506232 3.8436346
v -2.286006 -2.8259592 3.958497
v -2.2186577 -2.7481353 4.2867026
v -1.8598421 -2.6046715 4.219125
v -1.9156845 -2.6692 3.9469907
v -2.3465986 -2.6952567 3.669025
v -1.960397 -2.390431 3.7403953
v -2.626053 -2.6069226 3.8594816
v -2.5498242 -2.8678846 4.0507126
v -2.2186577 -2.7481353 4.2867026
v -2.0790937 -2.2096922 4.4371953
v -1.7441213 -2.1582174 4.343907
v -1.8598421 -2.6046715 4.219125
v -1.1005567 -0.6317674 4.6737022
v -1.4987941 -0.94998693 4.531869
v -1.6076844 -0.73345256 5.042738
v -1.8898315 -0.95967615 4.421007
v -0.9766064 0.39329892 -0.027703196
v -0.57093287 0.47038424 0.020689547
v -0.51282096 0.6217348 0.17472526
v -1.258021 0.9766987 0.2998605
v -1.4828875 0.5126277 0.04641229
v -0.66600513 1.1385071 0.39156747
v -1.6672322 0.7261181 0.2091082
v -0.7885694 1.6893557 0.7069385
v -1.12697 1.6329563 0.734782
v -0.8833002 -0.84945 4.293795
v -0.46302563 -1.112445 4.225902
v -0.73558354 -0.82128483 3.2259877
v 0.027976386 -1.0687718 4.0165772
v 0.04408662 -1.0808418 4.3101573
v -0.5547252 -1.1203513 4.58822
v -0.838794 -1.0449082 4.4859285
v -1.1024649 -0.7407331 5.2889876
v -0.3019073 -0.9974745 4.889649
v -0.21752182 -1.0067046 5.023459
v 0.05657105 -1.1108731 4.8374853
v -0.49538833 -0.9105165 5.1840177
v -0.8002171 -0.6473211 5.7064357
v -0.47760767 -0.85881877 5.3947573
v -0.41996062 -0.60258424 6.1568327
v -0.9349431 -0.36155456 5.869446
v -1.7032708 -0.41693485 5.470567
v -1.6076844 -0.73345256 5.042738
v -1.8802527 0.27284098 5.2391906
v -1.4134357 0.41918027 5.528585
v -0.73558354 -0.82128483 3.2259877
v 0.027976386 -1.0687718 4.0165772
v 0.011020023 -1.0305831 3.0115597
v -0.28341553 -0.84086114 2.5596168
v 0.004676368 -0.90464276 2.7611563
v -0.005340308 -0.5623256 2.370754
v -0.8176361 -0.6809616 2.6832283
v -0.22524208 -0.374917 2.264038
v -0.8379733 -0.48163897 2.2477283
v -1.0377026 -0.42880863 2.2805054
v -1.1987687 -0.5080272 2.6753123
v -1.2594974 -0.32787967 2.3409047
v -1.367498 0.012325048 1.7496669
v -0.8705166 -0.052263737 1.574125
v -0.46481135 -0.026580095 1.6469972
v -0.8594784 0.52823925 1.0359087
v -0.3328949 -1.1175624 6.0861335
v -0.18115845 -1.4476697 6.238543
v -0.40642032 -1.3771695 6.101355
v -0.46192673 -1.0214744 5.303717
v -0.47760767 -0.85881877 5.3947573
v -0.41996062 -0.60258424 6.1568327
v -0.49538833 -0.9105165 5.1840177
v -0.44609532 -1.4247832 5.127629
v -0.40233988 -1.4651371 5.559772
v -0.35373738 -1.6334796 5.776189
v -0.28575224 -1.6945026 6.0062156
v -0.43660966 -1.4656712 5.3655496
v -0.44103718 -1.4682184 5.2156115
v -0.26893526 -1.7245518 5.3181086
v -0.3157861 -1.7604733 5.17523
v -0.3192492 -1.7435716 5.0861707
v 0.09114352 -1.1358483 6.221974
v 0.09330534 -1.5726004 6.261034
v -0.18115845 -1.4476697 6.238543
v 0.08914627 -1.8081138 6.0527263
v -0.28575224 -1.6945026 6.0062156
v -0.40642032 -1.3771695 6.101355
v -1.6294476 -0.6558833 3.5459907
v -2.092226 -0.858943 3.4246178
v -2.603808 -1.738944 3.762016
v -2.2162256 -1.8588839 3.8644571
v -1.6543626 -1.3902392 3.9248374
v -2.178505 -1.8750315 4.3443327
v -2.1088011 -2.3942518 4.580785
v -2.5119717 -2.4961493 4.4838967
v -2.3501348 -1.7708292 4.516966
v -2.8179696 -1.7104464 4.374472
v -2.070309 -0.9568329 4.4909906
v -1.6346368 -1.0878806 4.3151636
v -2.4887943 -0.72013354 4.367467
v -1.8898315 -0.95967615 4.421007
v -2.356436 -0.6132176 4.44366
v -1.9654548 -0.21793962 4.658249
v -0.41996062 -0.60258424 6.1568327
v 0.105466105 -0.610173 6.297421
v 0.09594487 -0.7893062 6.1360464
v -0.3328949 -1.1175624 6.0861335
v 0.09114352 -1.1358483 6.221974
v -0.3157861 -1.7604733 5.17523
v 0.072004855 -1.7648565 5.34416
v 0.06716632 -1.839316 5.138639
v -0.26893526 -1.7245518 5.3181086
v -0.14717096 -1.7088518 5.4963593
v -0.43660966 -1.4656712 5.3655496
v -0.40233988 -1.4651371 5.559772
v -0.44609532 -1.4247832 5.127629
v -0.3192492 -1.7435716 5.0861707
v 0.05729317 -1.5444798 4.7901106
v 0.06437996 -1.795892 5.0326557
v 0.06716632 -1.839316 5.138639
v -0.3157861 -1.7604733 5.17523
v 0.07504966 -1.8916417 5.4555936
v -0.14717096 -1.7088518 5.4963593
v -0.14374673 -1.6747491 5.7852745
v 0.08914627 -1.8081138 6.0527263
v -0.28575224 -1.6945026 6.0062156
v 0.08914627 -1.8081138 6.0527263
v -0.14374673 -1.6747491 5.7852745
v -0.35373738 -1.6334796 5.776189
v -0.14717096 -1.7088518 5.4963593
v -0.40233988 -1.4651371 5.559772
v -1.8598421 -2.6046715 4.219125
v -1.7441213 -2.1582174 4.343907
v -1.9156845 -2.6692 3.9469907
v -1.9458883 -2.0506232 3.8436346
v -1.960397 -2.390431 3.7403953
v -2.0790937 -2.2096922 4.4371953
v -2.2162256 -1.8588839 3.8644571
v -1.9458883 -2.0506232 3.8436346
v -1.7441213 -2.1582174 4.343907
v 0.3386247 -1.0326946 4.9715786
v 0.33669868 -1.2373021 4.9292474
v 0.623093 -0.96433854 5.1051316
v 0.05657105 -1.1108731 4.8374853
v 0.57582235 -1.4308524 5.084688
v 0.05729317 -1.5444798 4.7901106
v 1.0190005 0.20230389 2.0256503
v 1.1259946 1.1469139 2.7921572
v 0.52776295 0.9018313 2.2183828
v 0.23945951 0.08002746 2.1152818
v 0.4810879 1.4285853 2.7982252
v -0.0018145479 1.0620391 2.585433
v -1.0371985 0.62863284 2.4568758
v -0.53576034 1.0312603 2.6966593
v -1.1014432 0.8859229 3.2384102
v -0.2587398 0.42436284 2.318548
v -0.45449165 1.2112621 3.3365374
v -0.0018145479 1.0620391 2.585433
v -0.44609532 -1.4247832 5.127629
v 0.05729317 -1.5444798 4.7901106
v -0.21699962 -1.2176776 4.9872265
v -0.49538833 -0.9105165 5.1840177
v 0.05657105 -1.1108731 4.8374853
v -0.21752182 -1.0067046 5.023459
vt 0.49902603 0.918115
vt 0.56499124 0.9454073
vt 0.56499124 0.8711099
vt 0.14378172 0.8514687
vt 0.16439773 0.8882737
vt 0.16439773 0.8118623
vt 0.34434217 1
vt 0.34434217 0.93092227
vt 0.31757537 0.9767937
vt 0.98919135 0.052865658
vt 0.98919135 0
vt 0.968192 0.025574517
vt 0.5176891 0.9859883
vt 0.5176891 0.95471436
vt 0.49902603 0.95796406
vt 0.96851367 0.66580456
vt 0.96851367 0.6183773
vt 0.9283098 0.64640343
vt 0.16141832 0.8975809
vt 0.14378184 0.9333254
vt 0.16141832 0.96089536
vt 0.91912127 0.53584665
vt 0.8804234 0.55779886
vt 0.91912127 0.672676
vt 0.31757528 0.88430893
vt 0.3491709 0.9216153
vt 0.34917086 0.82019824
vt 0.9590038 0
vt 0.9210636 0.040668685
vt 0.9590038 0.11800762
vt 0.95839727 0.27790177
vt 0.9886577 0.35846353
vt 0.9886577 0.27093768
vt 0.95229155 0.79087466
vt 0.95229155 0.68280923
vt 0.9039406 0.75590014
vt 0.8569706 0.89982796
vt 0.8829183 0.9938489
vt 0.8829183 0.8892549
vt 0.49902603 0.918115
vt 0.56499124 0.8711099
vt 0.56499124 0.9454073
vt 0.14378172 0.8514687
vt 0.16439773 0.8118623
vt 0.16439773 0.8882737
vt 0.34434217 1
vt 0.31757537 0.9767937
vt 0.34434217 0.93092227
vt 0.98919135 0.052865658
vt 0.968192 0.025574517
vt 0.98919135 0
vt 0.5176891 0.9859883
vt 0.49902603 0.95796406
vt 0.5176891 0.95471436
vt 0.96851367 0.66580456
vt 0.9283098 0.64640343
vt 0.96851367 0.6183773
vt 0.16141832 0.8975809
vt 0.16141832 0.96089536
vt 0.14378184 0.9333254
vt 0.91912127 0.53584665
vt 0.91912127 0.672676
vt 0.8804234 0.55779886
vt 0.31757528 0.88430893
vt 0.34917086 0.82019824
vt 0.3491709 0.9216153
vt 0.9590038 0
vt 0.9590038 0.11800762
vt 0.9210636 0.040668685
vt 0.95839727 0.27790177
vt 0.9886577 0.27093768
vt 0.9886577 0.35846353
vt 0.95229155 0.79087466
vt 0.9039406 0.75590014
vt 0.95229155 0.68280923
vt 0.8569706 0.89982796
vt 0.8829183 0.8892549
vt 0.8829183 0.9938489
vt 0.36096442 0.9809408
vt 0.4075098 0.9607956
vt 0.3588947 0.9575265
vt 0.369392 0.92520255
vt 0.3771086 0.8883843
vt 0.4075098 0.8914479
vt 0.5270722 0.68813974
vt 0.54430145 0.71937054
vt 0.57231295 0.74010444
vt 0.5329712 0.7133354
vt 0.5213672 0.7160483
vt 0.4990259 0.64703196
vt 0.521059 0.6477355
vt 0.57231295 0.6210902
vt 0.39298362 0.61178297
vt 0.4363923 0.541216
vt 0.3588946 0.54126763
vt 0.38259628 0.51508933
vt 0.44708437 0.45777205
vt 0.35943297 0.38027877
vt 0.45028436 0.37733927
vt 0.38207754 0.33254984
vt 0.53066176 0.5399611
vt 0.54357386 0.47318318
vt 0.59004575 0.5701486
vt 0.59004575 0.3564206
vt 0.4765397 0.28180492
vt 0.527813 0.26165715
vt 0.5264617 0.17587008
vt 0.43756214 0.28139699
vt 0.41167656 0.2809121
vt 0.4031181 0.3257705
vt 0.42691 0.20106666
vt 0.48573887 0.07598537
vt 0.5317059 0.09830561
vt 0.54340035 0.012144742
vt 0.41421005 3.046471E-08
vt 0.8233897 0.81884515
vt 0.8947522 0.87994784
vt 0.8380794 0.79222435
vt 0.75919056 0.7267464
vt 0.79670596 0.70665777
vt 0.75950646 0.70673996
vt 0.803943 0.6889256
vt 0.841158 0.69899017
vt 0.89475226 0.69672364
vt 0.87079096 0.80151844
vt 0.8660454 0.6828093
vt 0.09310532 0.802555
vt 0.16801077 0.7953374
vt 0.12556495 0.72438186
vt 0.026040358 0.7997428
vt 0.052987453 0.71688
vt 0.086323686 0.64679164
vt 0.15040804 0.61200655
vt 0.019966839 0.6235478
vt 0.089004435 0.59260225
vt 0.08959459 0.5458116
vt 6.015232E-08 0.54828095
vt 0.08550134 0.5054018
vt 0.16801077 0.45642403
vt 0.82160306 0.23527387
vt 0.91187495 0.2616305
vt 0.8785964 0.17643519
vt 0.8049671 0.15148313
vt 0.85996854 0.08438009
vt 0.911246 0.08578497
vt 0.91187495 0.0028682526
vt 0.8709122 3.046471E-08
vt 0.09789549 0.25051716
vt 0.13116886 0.34432486
vt 0.16033816 0.22789456
vt 0.049894422 0.18504778
vt 0.07739943 0.13376983
vt 0 0.101133585
vt 0.13330956 0.13581291
vt 0.21659958 0.24239016
vt 0.16608825 0.3124507
vt 0.24976975 0.35344645
vt 0.25481075 0.22602086
vt 0.1860694 0.36288005
vt 0.13116886 0.34432486
vt 0.23294322 0.4035151
vt 0.34970608 0.4471169
vt 0.29160568 0.44181484
vt 0.30976734 0.30876765
vt 0.34858796 0.33234903
vt 0.34877276 0.39573345
vt 0.34870827 0.269106
vt 0.34905258 0.17866798
vt 0.2605541 0.14002824
vt 0.22303613 0.1529811
vt 0.3494948 0.14017203
vt 0.21396372 0.02751256
vt 0.34920633 0.07600799
vt 0.29144904 0.022317717
vt 0.34970608 0
vt 0.38429728 0.77760273
vt 0.36951953 0.6804159
vt 0.3588947 0.73239607
vt 0.48983765 0.7665424
vt 0.46186814 0.6618539
vt 0.48983765 0.6210902
vt 0.4339861 0.81697726
vt 0.39901102 0.8790773
vt 0.7500021 0.74025494
vt 0.6760147 0.75673467
vt 0.7008218 0.78769267
vt 0.73089904 0.64271283
vt 0.6582754 0.6532317
vt 0.64760154 0.7460554
vt 0.65432703 0.77218586
vt 0.6561025 0.55081415
vt 0.7122202 0.5215398
vt 0.59923416 0.53459376
vt 0.6407047 0.5178718
vt 0.7033843 0.50708
vt 0.6171612 0.46747392
vt 0.67556334 0.46324593
vt 0.6534468 0.37864077
vt 0.74511176 0.39836925
vt 0.7500021 0.46568456
vt 0.7316233 0.5429811
vt 0.56953835 0.83960843
vt 0.56953835 0.74941146
vt 0.52703404 0.76323533
vt 0.5583597 0.8618026
vt 0.50707406 0.83131546
vt 0.4990259 0.7894004
vt 0.843614 0.30382556
vt 0.87173325 0.3583391
vt 0.8776816 0.31122676
vt 0.8434859 0.3522023
vt 0.8049671 0.30388892
vt 0.80789423 0.3583391
vt 0.81610477 0.2726733
vt 0.8499164 0.27093756
vt 1 0.68280923
vt 0.96148014 0.6968634
vt 0.96148014 0.744935
vt 1 0.74078554
vt 0.953209 0.80018187
vt 0.9039406 0.83439285
vt 0.953209 0.868638
vt 0.9222943 0.90617955
vt 0.6674861 0.798815
vt 0.730205 0.82059234
vt 0.71701837 0.79699963
vt 0.6532963 0.8831631
vt 0.61280245 0.8302191
vt 0.72696996 0.88637024
vt 0.5992342 0.86706394
vt 0.730205 0.9619857
vt 0.6907086 0.969811
vt 0.6589565 0.23906025
vt 0.63166714 0.36933368
vt 0.708841 0.26865244
vt 0.75177425 0.3355242
vt 0.77262163 0.27562472
vt 0.7120425 0.22720534
vt 0.6700854 0.23198074
vt 0.6687798 0.14423798
vt 0.75500554 0.19355133
vt 0.7706367 0.17965601
vt 0.79577863 0.21007149
vt 0.74549466 0.14924052
vt 0.73454255 0.07315528
vt 0.75664675 0.12261973
vt 0.79577863 0.029209565
vt 0.72930306 0.034244284
vt 0.6210279 0.07891384
vt 0.59923416 0.13749626
vt 0.6227054 0.013777361
vt 0.68517876 0
vt 0.19030221 0.5926166
vt 0.27671725 0.5424171
vt 0.20954877 0.45642403
vt 0.27502987 0.60654753
vt 0.30718705 0.5912737
vt 0.3315822 0.6495408
vt 0.2125061 0.6379783
vt 0.30932727 0.66668975
vt 0.23977989 0.67791736
vt 0.21840945 0.6910608
vt 0.1771991 0.675653
vt 0.1952241 0.7099755
vt 0.22730719 0.7710672
vt 0.2850084 0.7441486
vt 0.32410717 0.72671473
vt 0.3315822 0.8108909
vt 0.12445033 0.88272744
vt 0.118833065 0.91520464
vt 0.13459346 0.92705274
vt 0.029831218 0.8662915
vt 0.04120145 0.84823847
vt 0.13459346 0.8118623
vt 0.014586215 0.85860515
vt 0.006344385 0.91023856
vt 0.055812206 0.9167029
vt 0.07597911 0.9405134
vt 0.10054917 0.9524297
vt 0.03373438 0.91510206
vt 0.016143437 0.91420496
vt 0.025230289 0.94425434
vt 0.008589751 0.9476432
vt 0 0.94567424
vt 0.4166982 0.8883844
vt 0.42541498 0.9261302
vt 0.44437116 0.8972779
vt 0.4784857 0.9142962
vt 0.45555466 0.9547197
vt 0.41865915 0.9547197
vt 0.923967 0.5265394
vt 0.8858247 0.38635334
vt 0.88042325 0.48831704
vt 0.9273596 0.40759468
vt 0.97330445 0.47121757
vt 0.97330445 0.37864053
vt 0.87123483 0.6485235
vt 0.8210195 0.5904178
vt 0.8273133 0.6735019
vt 0.7629219 0.5992589
vt 0.82242316 0.48842975
vt 0.87123483 0.47961864
vt 0.75919056 0.4700137
vt 0.8339568 0.46264127
vt 0.76616776 0.4473538
vt 0.78633755 0.37864053
vt 0.9958276 0.9154867
vt 0.97140336 0.970249
vt 0.9958276 0.97698194
vt 0.95606023 0.91680205
vt 0.9538918 0.9701389
vt 0.75919056 0.93168813
vt 0.77940774 0.97460806
vt 0.79962325 0.96114165
vt 0.7757094 0.92720497
vt 0.7992231 0.92929655
vt 0.7808211 0.8964899
vt 0.79962325 0.8892549
vt 0.9447032 0.98594135
vt 0.9447032 0.9154867
vt 0.92055905 0.96472645
vt 0.9137541 0.9182853
vt 0.9039406 0.92054886
vt 0.91369635 0.9668703
vt 0.9916219 0.86281574
vt 0.9623976 0.82055163
vt 0.9627488 0.8498158
vt 0.9916219 0.80018175
vt 0.80881166 0.9151965
vt 0.8349308 0.9297713
vt 0.8477822 0.8892547
vt 0.811724 0.9402521
vt 0.8477822 0.94809693
vt 0.8154087 0.97162884
vt 0.94920886 0.28810272
vt 0.9198775 0.27093756
vt 0.9492088 0.34555
vt 0.8876546 0.3388034
vt 0.8868701 0.2958499
vt 0.96805406 0.5391982
vt 0.92830974 0.5358466
vt 0.9459171 0.57954276
vt 0.96805406 0.60907036
vt 0.36096442 0.9809408
vt 0.3588947 0.9575265
vt 0.4075098 0.9607956
vt 0.369392 0.92520255
vt 0.3771086 0.8883843
vt 0.4075098 0.8914479
vt 0.5270722 0.68813974
vt 0.57231295 0.74010444
vt 0.54430145 0.71937054
vt 0.5329712 0.7133354
vt 0.5213672 0.7160483
vt 0.4990259 0.64703196
vt 0.521059 0.6477355
vt 0.57231295 0.6210902
vt 0.39298362 0.61178297
vt 0.3588946 0.54126763
vt 0.4363923 0.541216
vt 0.38259628 0.51508933
vt 0.44708437 0.45777205
vt 0.35943297 0.38027877
vt 0.45028436 0.37733927
vt 0.38207754 0.33254984
vt 0.53066176 0.5399611
vt 0.54357386 0.47318318
vt 0.59004575 0.5701486
vt 0.59004575 0.3564206
vt 0.4765397 0.28180492
vt 0.527813 0.26165715
vt 0.5264617 0.17587008
vt 0.43756214 0.28139699
vt 0.41167656 0.2809121
vt 0.4031181 0.3257705
vt 0.42691 0.20106666
vt 0.48573887 0.07598537
vt 0.5317059 0.09830561
vt 0.54340035 0.012144742
vt 0.41421005 3.046471E-08
vt 0.8233897 0.81884515
vt 0.8380794 0.79222435
vt 0.8947522 0.87994784
vt 0.75919056 0.7267464
vt 0.79670596 0.70665777
vt 0.75950646 0.70673996
vt 0.803943 0.6889256
vt 0.841158 0.69899017
vt 0.89475226 0.69672364
vt 0.87079096 0.80151844
vt 0.8660454 0.6828093
vt 0.09310532 0.802555
vt 0.12556495 0.72438186
vt 0.16801077 0.7953374
vt 0.026040358 0.7997428
vt 0.052987453 0.71688
vt 0.086323686 0.64679164
vt 0.15040804 0.61200655
vt 0.019966839 0.6235478
vt 0.089004435 0.59260225
vt 0.08959459 0.5458116
vt 6.015232E-08 0.54828095
vt 0.08550134 0.5054018
vt 0.16801077 0.45642403
vt 0.82160306 0.23527387
vt 0.8785964 0.17643519
vt 0.91187495 0.2616305
vt 0.8049671 0.15148313
vt 0.85996854 0.08438009
vt 0.911246 0.08578497
vt 0.91187495 0.0028682526
vt 0.8709122 3.046471E-08
vt 0.09789549 0.25051716
vt 0.16033816 0.22789456
vt 0.13116886 0.34432486
vt 0.049894422 0.18504778
vt 0.07739943 0.13376983
vt 0 0.101133585
vt 0.13330956 0.13581291
vt 0.21659958 0.24239016
vt 0.16608825 0.3124507
vt 0.24976975 0.35344645
vt 0.25481075 0.22602086
vt 0.1860694 0.36288005
vt 0.13116886 0.34432486
vt 0.23294322 0.4035151
vt 0.34970608 0.4471169
vt 0.29160568 0.44181484
vt 0.30976734 0.30876765
vt 0.34858796 0.33234903
vt 0.34877276 0.39573345
vt 0.34870827 0.269106
vt 0.34905258 0.17866798
vt 0.2605541 0.14002824
vt 0.22303613 0.1529811
vt 0.3494948 0.14017203
vt 0.21396372 0.02751256
vt 0.34920633 0.07600799
vt 0.29144904 0.022317717
vt 0.34970608 0
vt 0.38429728 0.77760273
vt 0.3588947 0.73239607
vt 0.36951953 0.6804159
vt 0.48983765 0.7665424
vt 0.46186814 0.6618539
vt 0.48983765 0.6210902
vt 0.4339861 0.81697726
vt 0.39901102 0.8790773
vt 0.7500021 0.74025494
vt 0.7008218 0.78769267
vt 0.6760147 0.75673467
vt 0.73089904 0.64271283
vt 0.6582754 0.6532317
vt 0.64760154 0.7460554
vt 0.65432703 0.77218586
vt 0.6561025 0.55081415
vt 0.7122202 0.5215398
vt 0.59923416 0.53459376
vt 0.6407047 0.5178718
vt 0.7033843 0.50708
vt 0.6171612 0.46747392
vt 0.67556334 0.46324593
vt 0.6534468 0.37864077
vt 0.74511176 0.39836925
vt 0.7500021 0.46568456
vt 0.7316233 0.5429811
vt 0.56953835 0.83960843
vt 0.52703404 0.76323533
vt 0.56953835 0.74941146
vt 0.5583597 0.8618026
vt 0.50707406 0.83131546
vt 0.4990259 0.7894004
vt 0.843614 0.30382556
vt 0.8776816 0.31122676
vt 0.87173325 0.3583391
vt 0.8434859 0.3522023
vt 0.8049671 0.30388892
vt 0.80789423 0.3583391
vt 0.81610477 0.2726733
vt 0.8499164 0.27093756
vt 1 0.68280923
vt 1 0.74078554
vt 0.96148014 0.744935
vt 0.96148014 0.6968634
vt 0.953209 0.80018187
vt 0.953209 0.868638
vt 0.9039406 0.83439285
vt 0.9222943 0.90617955
vt 0.6674861 0.798815
vt 0.71701837 0.79699963
vt 0.730205 0.82059234
vt 0.6532963 0.8831631
vt 0.61280245 0.8302191
vt 0.72696996 0.88637024
vt 0.5992342 0.86706394
vt 0.730205 0.9619857
vt 0.6907086 0.969811
vt 0.6589565 0.23906025
vt 0.708841 0.26865244
vt 0.63166714 0.36933368
vt 0.75177425 0.3355242
vt 0.77262163 0.27562472
vt 0.7120425 0.22720534
vt 0.6700854 0.23198074
vt 0.6687798 0.14423798
vt 0.75500554 0.19355133
vt 0.7706367 0.17965601
vt 0.79577863 0.21007149
vt 0.74549466 0.14924052
vt 0.73454255 0.07315528
vt 0.75664675 0.12261973
vt 0.79577863 0.029209565
vt 0.72930306 0.034244284
vt 0.6210279 0.07891384
vt 0.59923416 0.13749626
vt 0.6227054 0.013777361
vt 0.68517876 0
vt 0.19030221 0.5926166
vt 0.20954877 0.45642403
vt 0.27671725 0.5424171
vt 0.27502987 0.60654753
vt 0.30718705 0.5912737
vt 0.3315822 0.6495408
vt 0.2125061 0.6379783
vt 0.30932727 0.66668975
vt 0.23977989 0.67791736
vt 0.21840945 0.6910608
vt 0.1771991 0.675653
vt 0.1952241 0.7099755
vt 0.22730719 0.7710672
vt 0.2850084 0.7441486
vt 0.32410717 0.72671473
vt 0.3315822 0.8108909
vt 0.12445033 0.88272744
vt 0.13459346 0.92705274
vt 0.118833065 0.91520464
vt 0.029831218 0.8662915
vt 0.04120145 0.84823847
vt 0.13459346 0.8118623
vt 0.014586215 0.85860515
vt 0.006344385 0.91023856
vt 0.055812206 0.9167029
vt 0.07597911 0.9405134
vt 0.10054917 0.9524297
vt 0.03373438 0.91510206
vt 0.016143437 0.91420496
vt 0.025230289 0.94425434
vt 0.008589751 0.9476432
vt 0 0.94567424
vt 0.4166982 0.8883844
vt 0.44437116 0.8972779
vt 0.42541498 0.9261302
vt 0.4784857 0.9142962
vt 0.45555466 0.9547197
vt 0.41865915 0.9547197
vt 0.923967 0.5265394
vt 0.88042325 0.48831704
vt 0.8858247 0.38635334
vt 0.9273596 0.40759468
vt 0.97330445 0.47121757
vt 0.97330445 0.37864053
vt 0.87123483 0.6485235
vt 0.8273133 0.6735019
vt 0.8210195 0.5904178
vt 0.7629219 0.5992589
vt 0.82242316 0.48842975
vt 0.87123483 0.47961864
vt 0.75919056 0.4700137
vt 0.8339568 0.46264127
vt 0.76616776 0.4473538
vt 0.78633755 0.37864053
vt 0.9958276 0.9154867
vt 0.9958276 0.97698194
vt 0.97140336 0.970249
vt 0.95606023 0.91680205
vt 0.9538918 0.9701389
vt 0.75919056 0.93168813
vt 0.79962325 0.96114165
vt 0.77940774 0.97460806
vt 0.7757094 0.92720497
vt 0.7992231 0.92929655
vt 0.7808211 0.8964899
vt 0.79962325 0.8892549
vt 0.9447032 0.98594135
vt 0.92055905 0.96472645
vt 0.9447032 0.9154867
vt 0.9137541 0.9182853
vt 0.9039406 0.92054886
vt 0.91369635 0.9668703
vt 0.9916219 0.86281574
vt 0.9627488 0.8498158
vt 0.9623976 0.82055163
vt 0.9916219 0.80018175
vt 0.80881166 0.9151965
vt 0.8477822 0.8892547
vt 0.8349308 0.9297713
vt 0.811724 0.9402521
vt 0.8477822 0.94809693
vt 0.8154087 0.97162884
vt 0.94920886 0.28810272
vt 0.9492088 0.34555
vt 0.9198775 0.27093756
vt 0.8876546 0.3388034
vt 0.8868701 0.2958499
vt 0.96805406 0.5391982
vt 0.96805406 0.60907036
vt 0.9459171 0.57954276
vt 0.92830974 0.5358466
vt 0.96215004 0.18739347
vt 0.94284713 0.17622434
vt 0.96215004 0.22513403
vt 0.96215004 0.14965288
vt 0.9210635 0.19511597
vt 0.92354435 0.12731466
vt 0.27914968 0.96139646
vt 0.30838683 0.8762738
vt 0.23766533 0.87951136
vt 0.18261339 0.96139646
vt 0.24230355 0.8201981
vt 0.17719921 0.84876394
vt 0.27914968 0.96139646
vt 0.23766533 0.87951136
vt 0.30838683 0.8762738
vt 0.18261339 0.96139646
vt 0.24230355 0.8201981
vt 0.17719921 0.84876394
vt 0.9210635 0.19511597
vt 0.92354435 0.12731466
vt 0.94284713 0.17622434
vt 0.96215004 0.22513403
vt 0.96215004 0.14965288
vt 0.96215004 0.18739347
vn 0.25928473 -0.8270982 -0.435996
vn 0.34485078 -0.6036248 -0.71882844
vn 0.2979519 -0.20928556 -0.880136
vn 0.14105782 0.87063307 0.32041466
vn 0.44303516 0.7950902 0.25842175
vn 0.18677844 0.86111414 -0.26717758
vn 0.7807545 -0.43669176 -0.35910836
vn 0.31933132 -0.8812871 -0.18430275
vn 0.58114254 -0.6023127 -0.46128526
vn 0.023179336 0.05428698 0.9855126
vn 0.7444741 0.030443624 0.64937943
vn 0.39806736 -0.20999922 0.8922641
vn 0.5367964 -0.83720434 0.03403452
vn 0.00042931305 -0.9864004 -0.08644457
vn -0.0058632805 -0.928132 -0.35097504
vn -0.7078981 -0.27275667 -0.6504738
vn -0.3442809 -0.48963827 -0.79973674
vn 0.05793095 -0.87801385 -0.47380635
vn -0.086623326 -0.42931098 -0.8989921
vn 0.27527168 -0.96093297 0.027888536
vn 0.60443217 -0.36905104 -0.7059758
vn 0.9932831 0.05439931 0.102121994
vn 0.46064007 -0.88738465 0.015975416
vn 0.8047944 -0.5650276 0.041697845
vn 0.6970469 -0.52394056 0.478203
vn 0.45721695 -0.8587797 0.05201572
vn 0.9705194 -0.13415962 0.14548436
vn 0.86496514 -0.2633341 0.4025101
vn 0.509655 0.46132827 0.6968045
vn 0.1262774 0.73707384 0.6527412
vn -0.93708694 -0.2391148 -0.25434664
vn -0.7078981 -0.27275667 -0.6504738
vn -0.16201484 -0.8430907 -0.51278514
vn 0.33659914 0.42400602 0.79098845
vn 0.031198824 -0.19913766 0.9560846
vn 0.038877204 0.33921462 0.9071498
vn -0.26722994 -0.6276082 -0.6981356
vn -0.024495356 0.025009617 -0.9731243
vn -0.021589605 -0.44294405 -0.86814505
vn -0.29402527 -0.7762626 0.4482999
vn -0.3562546 -0.8515878 -0.19155432
vn -0.39917433 -0.8163975 0.41731817
vn -0.11083415 0.78560233 -0.46047348
vn -0.1877795 0.2666396 -0.82184345
vn -0.42165172 0.8062147 -0.04761542
vn -0.8019436 -0.51778924 -0.22061437
vn -0.6086073 -0.70177424 -0.23665185
vn -0.33070827 -0.9012618 -0.12236963
vn 0.023179336 0.05428698 0.9855126
vn -0.35449988 -0.21215516 0.90996003
vn -0.71294874 0.049851608 0.6865723
vn -0.5301823 -0.84005797 0.059266746
vn -0.0058632805 -0.928132 -0.35097504
vn 0.00042931305 -0.9864004 -0.08644457
vn 0.6609436 -0.46633685 0.52090317
vn -0.10301361 -0.5895703 0.7574428
vn 0.2828506 -0.8085097 0.38669533
vn 0.043814953 -0.3504314 -0.9355626
vn -0.63736635 -0.30939567 -0.7057121
vn -0.2711265 -0.9615746 -0.04308036
vn -0.98654854 0.035478435 0.15957087
vn -0.81178826 -0.47437936 -0.33856964
vn -0.46194106 -0.8829434 -0.08369365
vn -0.6839751 -0.72488475 0.013373584
vn -0.9650927 -0.23479773 0.110815056
vn -0.46490157 -0.7776168 -0.3947386
vn -0.84092695 0.3083055 0.41793516
vn -0.07319945 0.7822447 -0.49747851
vn -0.4608285 0.82888275 -0.044971794
vn 0.9103162 -0.098132655 0.40211236
vn 0.09272079 0.009426206 0.9956474
vn 0.6609436 -0.46633685 0.52090317
vn -0.29498 0.6224579 0.6332879
vn 0.038877204 0.33921462 0.9071498
vn 0.031198824 -0.19913766 0.9560846
vn 0.228419 -0.40664464 -0.86843455
vn -0.021589605 -0.44294405 -0.86814505
vn -0.024495356 0.025009617 -0.9731243
vn -0.5202421 -0.5617671 -0.6432462
vn 0.44333398 -0.4248705 -0.7892653
vn -0.82982284 0.31638646 -0.4596667
vn -0.27164084 -0.047753155 -0.961213
vn -0.10075752 0.69342655 -0.7134473
vn 0.5721227 0.39435935 -0.71913576
vn -0.78900087 -0.6143517 -0.0070230365
vn -0.82982284 0.31638646 -0.4596667
vn -0.27164084 -0.047753155 -0.961213
vn -0.97260654 0.08893196 -0.21477346
vn -0.5202421 -0.5617671 -0.6432462
vn -0.16201484 -0.8430907 -0.51278514
vn -0.93708694 -0.2391148 -0.25434664
vn -0.50612706 0.7984262 0.32611433
vn 0.25928473 -0.8270982 -0.435996
vn 0.2979519 -0.20928556 -0.880136
vn 0.58114254 -0.6023127 -0.46128526
vn 0.7807545 -0.43669176 -0.35910836
vn 0.9675762 -0.15983334 -0.104801886
vn 0.6002821 -0.71476114 -0.2767698
vn 0.9705194 -0.13415962 0.14548436
vn 0.45721695 -0.8587797 0.05201572
vn 0.18677844 0.86111414 -0.26717758
vn 0.9079282 0.38458762 0.12820621
vn 0.44303516 0.7950902 0.25842175
vn 0.7418346 0.58466625 -0.24150111
vn 0.9791579 0.17073622 -0.10837445
vn 0.5117883 0.67612666 -0.4864075
vn 0.81026584 0.5510327 0.05853495
vn 0.9872462 -0.12033816 0.10372097
vn 0.76534283 -0.579364 0.27285898
vn 0.6970469 -0.52394056 0.478203
vn 0.8047944 -0.5650276 0.041697845
vn 0.9932831 0.05439931 0.102121994
vn 0.39091313 0.89793396 0.20223996
vn 0.52094513 0.8344988 -0.17847687
vn 0.939068 -0.03353119 -0.34204978
vn -0.41927603 -0.8088519 -0.36891827
vn 0.8047944 -0.5650276 0.041697845
vn 0.46064007 -0.88738465 0.015975416
vn -0.8577773 -0.2821811 -0.42963612
vn -0.23915437 -0.96350807 0.12024209
vn -0.81565356 -0.28369904 -0.50420624
vn -0.086623326 -0.42931098 -0.8989921
vn 0.27527168 -0.96093297 0.027888536
vn 0.939068 -0.03353119 -0.34204978
vn 0.9932831 0.05439931 0.102121994
vn 0.60443217 -0.36905104 -0.7059758
vn -0.6418062 0.41634646 -0.6439339
vn -0.4195061 0.87815976 -0.22914028
vn -0.87062216 0.47560447 0.12568
vn -0.8577773 -0.2821811 -0.42963612
vn -0.41927603 -0.8088519 -0.36891827
vn -0.9647954 0.054749966 -0.2359874
vn -0.24977852 0.87610364 -0.012363478
vn -0.65963423 -0.7136054 -0.029319257
vn -0.9797643 0.15873827 -0.0971712
vn -0.7895795 0.13842346 -0.5752684
vn -0.26722994 -0.6276082 -0.6981356
vn -0.024495356 0.025009617 -0.9731243
vn -0.018287506 0.6527371 -0.71296656
vn 0.5117883 0.67612666 -0.4864075
vn -0.7895795 0.13842346 -0.5752684
vn -0.24977852 0.87610364 -0.012363478
vn 0.81026584 0.5510327 0.05853495
vn 0.39091313 0.89793396 0.20223996
vn -0.87062216 0.47560447 0.12568
vn -0.4195061 0.87815976 -0.22914028
vn 0.52094513 0.8344988 -0.17847687
vn 0.76733667 -0.024053544 0.6391401
vn 0.86496514 -0.2633341 0.4025101
vn 0.1262774 0.73707384 0.6527412
vn 0.66513735 0.50676 0.546264
vn 0.07004316 0.97480935 0.20369625
vn 0.64564216 0.7201357 0.2540679
vn -0.5627601 0.8253629 -0.0023687482
vn 0.14105782 0.87063307 0.32041466
vn 0.509655 0.46132827 0.6968045
vn 0.33659914 0.42400602 0.79098845
vn 0.44303516 0.7950902 0.25842175
vn 0.44146132 -0.13149837 0.8371471
vn 0.86496514 -0.2633341 0.4025101
vn 0.44621208 -0.40699345 0.744939
vn 0.031198824 -0.19913766 0.9560846
vn 0.5315629 -0.16061221 0.8032437
vn 0.2863706 0.7780705 0.48780233
vn 0.033732172 0.7596041 0.5962616
vn 0.038877204 0.33921462 0.9071498
vn 0.027824186 0.9105389 0.32444897
vn 0.01401944 0.92020476 0.015035793
vn 0.42589796 0.79692686 0.31890687
vn 0.9079282 0.38458762 0.12820621
vn 0.02068389 0.9000294 0.1301345
vn 0.7418346 0.58466625 -0.24150111
vn 0.018559925 0.8999057 0.22286353
vn 0.07815189 0.88680005 -0.29193354
vn -0.018287506 0.6527371 -0.71296656
vn -0.7078981 -0.27275667 -0.6504738
vn 0.2979519 -0.20928556 -0.880136
vn -0.3442809 -0.48963827 -0.79973674
vn -0.5627601 0.8253629 -0.0023687482
vn 0.18677844 0.86111414 -0.26717758
vn 0.14105782 0.87063307 0.32041466
vn -0.8497702 0.34535885 -0.3975795
vn -0.93708694 -0.2391148 -0.25434664
vn 0.44333398 -0.4248705 -0.7892653
vn 0.8728812 0.44037282 -0.2101197
vn 0.5721227 0.39435935 -0.71913576
vn 0.85531896 -0.4469983 -0.26195794
vn 0.64564216 0.7201357 0.2540679
vn 0.3242072 0.8475028 0.42027152
vn 0.07596408 0.9960082 -0.046867102
vn 0.96053857 -0.06351699 0.2701621
vn 0.5914575 -0.80162513 0.07378885
vn 0.66513735 0.50676 0.546264
vn 0.81210136 -0.29354426 0.50290203
vn 0.4643264 -0.8616893 0.19961831
vn 0.76733667 -0.024053544 0.6391401
vn 0.8442608 -0.53488815 -0.03035584
vn 0.86496514 -0.2633341 0.4025101
vn 0.61414814 -0.75082606 -0.21981436
vn 0.34485078 -0.6036248 -0.71882844
vn 0.05793095 -0.87801385 -0.47380635
vn 0.3242072 0.8475028 0.42027152
vn 0.64564216 0.7201357 0.2540679
vn -0.50612706 0.7984262 0.32611433
vn 0.07596408 0.9960082 -0.046867102
vn -0.57484066 0.7169394 0.3944056
vn -0.5346017 0.16938463 0.8279552
vn -0.10075752 0.69342655 -0.7134473
vn -0.7597148 -0.0052724183 -0.6502347
vn -0.27164084 -0.047753155 -0.961213
vn -0.7070483 0.6187018 -0.3424769
vn 0.07596408 0.9960082 -0.046867102
vn -0.57484066 0.7169394 0.3944056
vn 0.8728812 0.44037282 -0.2101197
vn 0.5721227 0.39435935 -0.71913576
vn -0.27164084 -0.047753155 -0.961213
vn -0.7597148 -0.0052724183 -0.6502347
vn -0.8588004 -0.50513685 0.08543123
vn -0.78900087 -0.6143517 -0.0070230365
vn 0.2979519 -0.20928556 -0.880136
vn 0.34485078 -0.6036248 -0.71882844
vn -0.3442809 -0.48963827 -0.79973674
vn 0.05793095 -0.87801385 -0.47380635
vn -0.086623326 -0.42931098 -0.8989921
vn -0.8577773 -0.2821811 -0.42963612
vn -0.81565356 -0.28369904 -0.50420624
vn 0.024367664 0.44342867 -0.8959195
vn 0.60443217 -0.36905104 -0.7059758
vn -0.6418062 0.41634646 -0.6439339
vn 0.939068 -0.03353119 -0.34204978
vn -0.4195061 0.87815976 -0.22914028
vn 0.52094513 0.8344988 -0.17847687
vn 0.7807545 -0.43669176 -0.35910836
vn 0.6002821 -0.71476114 -0.2767698
vn 0.31933132 -0.8812871 -0.18430275
vn -0.0018397989 -0.9478676 0.038501635
vn 0.0059208293 -0.9481101 0.20902991
vn 0.14859185 -0.9659924 0.011675209
vn 0.58114254 -0.6023127 -0.46128526
vn 0.25928473 -0.8270982 -0.435996
vn 0.05131924 -0.9535086 0.20259985
vn 0.48346227 -0.57294375 -0.6308744
vn -0.019811751 -0.73226297 -0.6494415
vn 0.56932485 -0.7948873 0.007548243
vn 0.2313796 -0.893319 0.27338207
vn 0.7074233 -0.65218997 0.1959613
vn 0.5315629 -0.16061221 0.8032437
vn 0.44621208 -0.40699345 0.744939
vn 0.61414814 -0.75082606 -0.21981436
vn 0.34485078 -0.6036248 -0.71882844
vn 0.86496514 -0.2633341 0.4025101
vn 0.44146132 -0.13149837 0.8371471
vn 0.6002821 -0.71476114 -0.2767698
vn -0.0070587746 -0.9394992 -0.3009172
vn -0.0018397989 -0.9478676 0.038501635
vn 0.34276244 -0.8164824 -0.40572274
vn -0.010833591 -0.8602774 -0.4500053
vn -0.021589605 -0.44294405 -0.86814505
vn 0.45721695 -0.8587797 0.05201572
vn -0.26722994 -0.6276082 -0.6981356
vn 0.022972563 -0.9626074 0.21027105
vn 0.3732804 -0.88070744 0.26461458
vn 0.6970469 -0.52394056 0.478203
vn 0.76534283 -0.579364 0.27285898
vn 0.8047944 -0.5650276 0.041697845
vn 0.033985645 -0.94982904 0.09473613
vn -0.65963423 -0.7136054 -0.029319257
vn -0.41927603 -0.8088519 -0.36891827
vn 0.7444741 0.030443624 0.64937943
vn 0.86118996 -0.1144706 0.49187535
vn 0.39806736 -0.20999922 0.8922641
vn 0.99273765 -0.07029004 0.068098545
vn 0.7074233 -0.65218997 0.1959613
vn 0.5315629 -0.16061221 0.8032437
vn 0.56932485 -0.7948873 0.007548243
vn 0.84828097 -0.1107012 -0.506651
vn 0.91869783 -0.38913876 0.033901133
vn 0.74051845 -0.6589789 -0.11730147
vn 0.5808783 -0.7742277 0.25129968
vn 0.9309099 -0.32116327 0.16015464
vn 0.9577626 -0.27834216 0.044705164
vn 0.53279656 -0.7859958 0.29006347
vn 0.6116396 -0.780502 0.041236825
vn 0.57929814 -0.5806506 -0.5557518
vn 0.023179336 0.05428698 0.9855126
vn 0.39806736 -0.20999922 0.8922641
vn 0.022580259 -0.40153885 0.91243726
vn 0.012205941 -0.9132355 0.4072488
vn 0.5808783 -0.7742277 0.25129968
vn 0.86118996 -0.1144706 0.49187535
vn -0.5627601 0.8253629 -0.0023687482
vn 0.64564216 0.7201357 0.2540679
vn 0.07004316 0.97480935 0.20369625
vn -0.50612706 0.7984262 0.32611433
vn -0.8497702 0.34535885 -0.3975795
vn -0.93708694 -0.2391148 -0.25434664
vn -0.5202421 -0.5617671 -0.6432462
vn -0.16201484 -0.8430907 -0.51278514
vn 0.44333398 -0.4248705 -0.7892653
vn 0.85531896 -0.4469983 -0.26195794
vn -0.07768625 -0.93991244 -0.33000445
vn -0.7078981 -0.27275667 -0.6504738
vn 0.5914575 -0.80162513 0.07378885
vn 0.05793095 -0.87801385 -0.47380635
vn 0.4643264 -0.8616893 0.19961831
vn 0.8442608 -0.53488815 -0.03035584
vn 0.5315629 -0.16061221 0.8032437
vn 0.027220577 -0.31656015 0.92231786
vn 0.031198824 -0.19913766 0.9560846
vn 0.7444741 0.030443624 0.64937943
vn 0.023179336 0.05428698 0.9855126
vn 0.6116396 -0.780502 0.041236825
vn 0.003706141 -0.9852185 0.058974788
vn 0.00042931305 -0.9864004 -0.08644457
vn 0.53279656 -0.7859958 0.29006347
vn 0.5367964 -0.83720434 0.03403452
vn 0.9309099 -0.32116327 0.16015464
vn 0.91869783 -0.38913876 0.033901133
vn 0.84828097 -0.1107012 -0.506651
vn -0.023310358 -0.1539332 -0.9663791
vn 0.57929814 -0.5806506 -0.5557518
vn -0.010452512 -0.83699864 -0.51783836
vn 0.003706141 -0.9852185 0.058974788
vn 0.6116396 -0.780502 0.041236825
vn -0.0058632805 -0.928132 -0.35097504
vn 0.47005138 -0.87390125 -0.11715665
vn 0.5367964 -0.83720434 0.03403452
vn 0.012205941 -0.9132355 0.4072488
vn 0.5808783 -0.7742277 0.25129968
vn 0.47005138 -0.87390125 -0.11715665
vn 0.012205941 -0.9132355 0.4072488
vn 0.74051845 -0.6589789 -0.11730147
vn 0.5367964 -0.83720434 0.03403452
vn 0.91869783 -0.38913876 0.033901133
vn -0.7597148 -0.0052724183 -0.6502347
vn -0.7070483 0.6187018 -0.3424769
vn -0.8588004 -0.50513685 0.08543123
vn -0.5346017 0.16938463 0.8279552
vn -0.57484066 0.7169394 0.3944056
vn -0.78900087 -0.6143517 -0.0070230365
vn -0.8588004 -0.50513685 0.08543123
vn -0.5346017 0.16938463 0.8279552
vn -0.50612706 0.7984262 0.32611433
vn 0.4594841 -0.25348794 0.8512448
vn 0.82428515 -0.5652437 0.032454222
vn -0.50081664 -0.44074333 0.74493486
vn 0.22514564 -0.79290193 0.5662289
vn 0.1061211 -0.9732003 -0.20400667
vn -0.581596 -0.8134609 0.0052054524
vn 0.75332236 0.311651 0.57911915
vn 0.22514564 -0.79290193 0.5662289
vn 0.82428515 -0.5652437 0.032454222
vn 0.9653604 -0.23844954 0.10592921
vn 0.4594841 -0.25348794 0.8512448
vn 0.09272079 0.009426206 0.9956474
vn 0.9103162 -0.098132655 0.40211236
vn 0.5629342 -0.15048087 -0.81268746
vn -0.29402527 -0.7762626 0.4482999
vn -0.6086073 -0.70177424 -0.23665185
vn -0.3562546 -0.8515878 -0.19155432
vn -0.8019436 -0.51778924 -0.22061437
vn -0.97370046 -0.2169309 0.034852706
vn -0.6140552 -0.74635 -0.16886406
vn -0.9650927 -0.23479773 0.110815056
vn -0.46490157 -0.7776168 -0.3947386
vn -0.1877795 0.2666396 -0.82184345
vn -0.8971687 0.37655392 -0.044362262
vn -0.42165172 0.8062147 -0.04761542
vn -0.7453245 0.63674885 0.043356754
vn -0.97969437 0.17649364 0.09491288
vn -0.5213448 0.838506 0.13719253
vn -0.802447 0.54055583 0.2496326
vn -0.98392916 -0.17708927 0.021429643
vn -0.7628123 -0.6129987 -0.19968663
vn -0.6839751 -0.72488475 0.013373584
vn -0.81178826 -0.47437936 -0.33856964
vn -0.98654854 0.035478435 0.15957087
vn -0.37678248 0.8581439 0.34874487
vn -0.5288289 0.8469362 -0.054734588
vn -0.9546544 -0.008452937 -0.29759052
vn 0.39600447 -0.74224234 -0.5392672
vn -0.46194106 -0.8829434 -0.08369365
vn -0.81178826 -0.47437936 -0.33856964
vn 0.836525 -0.23830672 -0.4933908
vn 0.24740878 -0.96857154 0.025645137
vn 0.79084516 -0.23398107 -0.56552315
vn 0.043814953 -0.3504314 -0.9355626
vn -0.2711265 -0.9615746 -0.04308036
vn -0.9546544 -0.008452937 -0.29759052
vn -0.98654854 0.035478435 0.15957087
vn -0.63736635 -0.30939567 -0.7057121
vn 0.60853815 0.47805896 -0.6333441
vn 0.8774416 0.45678738 0.14641294
vn 0.4078622 0.9010265 -0.14746198
vn 0.836525 -0.23830672 -0.4933908
vn 0.39600447 -0.74224234 -0.5392672
vn 0.95171905 0.13671911 -0.27403307
vn 0.26013258 0.8580737 0.43449584
vn 0.64640343 -0.5504615 -0.51916075
vn 0.9766209 0.2124115 -0.02139461
vn 0.7639222 0.46768045 -0.43230093
vn 0.228419 -0.40664464 -0.86843455
vn -0.024495356 0.025009617 -0.9731243
vn -0.018287506 0.6527371 -0.71296656
vn -0.5213448 0.838506 0.13719253
vn 0.26013258 0.8580737 0.43449584
vn 0.7639222 0.46768045 -0.43230093
vn -0.802447 0.54055583 0.2496326
vn -0.37678248 0.8581439 0.34874487
vn 0.8774416 0.45678738 0.14641294
vn 0.4078622 0.9010265 -0.14746198
vn -0.5288289 0.8469362 -0.054734588
vn -0.725364 0.635839 0.103572845
vn -0.07319945 0.7822447 -0.49747851
vn -0.84092695 0.3083055 0.41793516
vn -0.61600727 0.47881898 -0.5125301
vn -0.020306252 -0.060201705 -0.9017729
vn -0.5934607 -0.15934601 -0.7889317
vn 0.5846463 -0.06261569 -0.73381054
vn -0.11083415 0.78560233 -0.46047348
vn -0.4608285 0.82888275 -0.044971794
vn -0.29498 0.6224579 0.6332879
vn -0.42165172 0.8062147 -0.04761542
vn -0.39374134 0.525488 0.66257024
vn -0.84092695 0.3083055 0.41793516
vn -0.40897244 -0.20009798 0.8382155
vn 0.031198824 -0.19913766 0.9560846
vn -0.49112496 -0.07649514 0.83528924
vn -0.2593314 0.83487344 0.34686416
vn 0.033732172 0.7596041 0.5962616
vn 0.038877204 0.33921462 0.9071498
vn 0.027824186 0.9105389 0.32444897
vn 0.01401944 0.92020476 0.015035793
vn -0.40507275 0.85045505 0.042548917
vn -0.8971687 0.37655392 -0.044362262
vn 0.02068389 0.9000294 0.1301345
vn -0.7453245 0.63674885 0.043356754
vn 0.018559925 0.8999057 0.22286353
vn -0.081884995 0.96411794 0.079033464
vn -0.018287506 0.6527371 -0.71296656
vn 0.6609436 -0.46633685 0.52090317
vn 0.2828506 -0.8085097 0.38669533
vn -0.3562546 -0.8515878 -0.19155432
vn 0.5846463 -0.06261569 -0.73381054
vn -0.1877795 0.2666396 -0.82184345
vn -0.11083415 0.78560233 -0.46047348
vn 0.8451194 -0.4986539 -0.07872487
vn 0.9103162 -0.098132655 0.40211236
vn -0.50081664 -0.44074333 0.74493486
vn -0.581596 -0.8134609 0.0052054524
vn -0.85621494 -0.40306243 -0.32316643
vn -0.88926685 0.022274613 0.45684642
vn -0.5934607 -0.15934601 -0.7889317
vn -0.25842923 -0.08873266 -0.9619463
vn -0.023737594 -0.56601757 -0.82405126
vn -0.9472281 0.27499068 -0.089560375
vn -0.61332655 0.20739686 0.6793827
vn -0.61600727 0.47881898 -0.5125301
vn -0.7926665 0.52374685 0.13619965
vn -0.47101337 0.16921908 0.7974477
vn -0.725364 0.635839 0.103572845
vn -0.85234165 -0.07628125 0.5062785
vn -0.84092695 0.3083055 0.41793516
vn -0.6361579 -0.39599296 0.6482436
vn -0.39917433 -0.8163975 0.41731817
vn -0.10301361 -0.5895703 0.7574428
vn -0.25842923 -0.08873266 -0.9619463
vn 0.5629342 -0.15048087 -0.81268746
vn -0.5934607 -0.15934601 -0.7889317
vn -0.023737594 -0.56601757 -0.82405126
vn 0.6301178 -0.050068468 -0.774884
vn 0.57970816 0.60788524 -0.5425993
vn 0.1061211 -0.9732003 -0.20400667
vn 0.22514564 -0.79290193 0.5662289
vn 0.72829676 -0.5561024 0.40041673
vn 0.7235205 -0.62459815 -0.29393032
vn -0.023737594 -0.56601757 -0.82405126
vn 0.6301178 -0.050068468 -0.774884
vn -0.85621494 -0.40306243 -0.32316643
vn -0.581596 -0.8134609 0.0052054524
vn 0.22514564 -0.79290193 0.5662289
vn 0.75332236 0.311651 0.57911915
vn 0.8330421 0.3316599 0.44276702
vn 0.72829676 -0.5561024 0.40041673
vn -0.3562546 -0.8515878 -0.19155432
vn 0.2828506 -0.8085097 0.38669533
vn -0.39917433 -0.8163975 0.41731817
vn -0.10301361 -0.5895703 0.7574428
vn 0.043814953 -0.3504314 -0.9355626
vn 0.79084516 -0.23398107 -0.56552315
vn 0.836525 -0.23830672 -0.4933908
vn -0.069288746 0.52118033 -0.85062027
vn -0.63736635 -0.30939567 -0.7057121
vn 0.60853815 0.47805896 -0.6333441
vn -0.9546544 -0.008452937 -0.29759052
vn 0.4078622 0.9010265 -0.14746198
vn -0.5288289 0.8469362 -0.054734588
vn -0.8019436 -0.51778924 -0.22061437
vn -0.33070827 -0.9012618 -0.12236963
vn -0.6140552 -0.74635 -0.16886406
vn -0.0018397989 -0.9478676 0.038501635
vn 0.0059208293 -0.9481101 0.20902991
vn -0.1489181 -0.9271919 0.16945805
vn -0.6086073 -0.70177424 -0.23665185
vn -0.29402527 -0.7762626 0.4482999
vn -0.041038226 -0.91331834 0.29827726
vn -0.5139089 -0.6203615 -0.54774964
vn -0.019811751 -0.73226297 -0.6494415
vn -0.5685747 -0.77991 0.14376105
vn -0.2191534 -0.7708212 0.4977399
vn -0.6966969 -0.62936443 0.29857326
vn -0.49112496 -0.07649514 0.83528924
vn -0.40897244 -0.20009798 0.8382155
vn -0.6361579 -0.39599296 0.6482436
vn -0.39917433 -0.8163975 0.41731817
vn -0.84092695 0.3083055 0.41793516
vn -0.39374134 0.525488 0.66257024
vn -0.6140552 -0.74635 -0.16886406
vn -0.0018397989 -0.9478676 0.038501635
vn -0.0070587746 -0.9394992 -0.3009172
vn -0.36823204 -0.6527649 -0.6399696
vn -0.010833591 -0.8602774 -0.4500053
vn -0.021589605 -0.44294405 -0.86814505
vn -0.46490157 -0.7776168 -0.3947386
vn 0.228419 -0.40664464 -0.86843455
vn -0.028705146 -0.86677337 -0.48036215
vn -0.376067 -0.8231392 -0.4147837
vn -0.6839751 -0.72488475 0.013373584
vn -0.7628123 -0.6129987 -0.19968663
vn -0.81178826 -0.47437936 -0.33856964
vn -0.04611943 -0.7897352 -0.60864174
vn 0.64640343 -0.5504615 -0.51916075
vn 0.39600447 -0.74224234 -0.5392672
vn -0.71294874 0.049851608 0.6865723
vn -0.35449988 -0.21215516 0.90996003
vn -0.83645403 -0.11906931 0.5319805
vn -0.9883017 -0.07616877 0.12746227
vn -0.6966969 -0.62936443 0.29857326
vn -0.49112496 -0.07649514 0.83528924
vn -0.5685747 -0.77991 0.14376105
vn -0.8710506 -0.12828848 -0.46146426
vn -0.91413605 -0.39378852 0.077422224
vn -0.7415892 -0.66308016 -0.08234894
vn -0.56395656 -0.7775323 0.2782019
vn -0.92082334 -0.32548755 0.20579939
vn -0.95333755 -0.28322256 0.092067435
vn -0.5145737 -0.788685 0.3149108
vn -0.6052493 -0.78352 0.07018078
vn -0.6023061 -0.5834535 -0.52755696
vn 0.023179336 0.05428698 0.9855126
vn 0.022580259 -0.40153885 0.91243726
vn -0.35449988 -0.21215516 0.90996003
vn 0.012205941 -0.9132355 0.4072488
vn -0.56395656 -0.7775323 0.2782019
vn -0.83645403 -0.11906931 0.5319805
vn 0.5846463 -0.06261569 -0.73381054
vn -0.020306252 -0.060201705 -0.9017729
vn -0.5934607 -0.15934601 -0.7889317
vn 0.5629342 -0.15048087 -0.81268746
vn 0.8451194 -0.4986539 -0.07872487
vn 0.9103162 -0.098132655 0.40211236
vn 0.4594841 -0.25348794 0.8512448
vn -0.50081664 -0.44074333 0.74493486
vn 0.09272079 0.009426206 0.9956474
vn -0.88926685 0.022274613 0.45684642
vn 0.0152898505 0.11999388 0.9468906
vn 0.6609436 -0.46633685 0.52090317
vn -0.61332655 0.20739686 0.6793827
vn -0.10301361 -0.5895703 0.7574428
vn -0.47101337 0.16921908 0.7974477
vn -0.85234165 -0.07628125 0.5062785
vn -0.49112496 -0.07649514 0.83528924
vn 0.031198824 -0.19913766 0.9560846
vn 0.027220577 -0.31656015 0.92231786
vn -0.71294874 0.049851608 0.6865723
vn 0.023179336 0.05428698 0.9855126
vn -0.6052493 -0.78352 0.07018078
vn 0.00042931305 -0.9864004 -0.08644457
vn 0.003706141 -0.9852185 0.058974788
vn -0.5145737 -0.788685 0.3149108
vn -0.5301823 -0.84005797 0.059266746
vn -0.92082334 -0.32548755 0.20579939
vn -0.91413605 -0.39378852 0.077422224
vn -0.8710506 -0.12828848 -0.46146426
vn -0.6023061 -0.5834535 -0.52755696
vn -0.023310358 -0.1539332 -0.9663791
vn -0.010452512 -0.83699864 -0.51783836
vn 0.003706141 -0.9852185 0.058974788
vn -0.6052493 -0.78352 0.07018078
vn -0.0058632805 -0.928132 -0.35097504
vn -0.5301823 -0.84005797 0.059266746
vn -0.47004905 -0.8765868 -0.095045626
vn 0.012205941 -0.9132355 0.4072488
vn -0.56395656 -0.7775323 0.2782019
vn 0.012205941 -0.9132355 0.4072488
vn -0.47004905 -0.8765868 -0.095045626
vn -0.7415892 -0.66308016 -0.08234894
vn -0.5301823 -0.84005797 0.059266746
vn -0.91413605 -0.39378852 0.077422224
vn 0.72829676 -0.5561024 0.40041673
vn 0.8330421 0.3316599 0.44276702
vn 0.7235205 -0.62459815 -0.29393032
vn 0.57970816 0.60788524 -0.5425993
vn 0.6301178 -0.050068468 -0.774884
vn 0.75332236 0.311651 0.57911915
vn 0.5629342 -0.15048087 -0.81268746
vn 0.57970816 0.60788524 -0.5425993
vn 0.8330421 0.3316599 0.44276702
vn 0.48346227 -0.57294375 -0.6308744
vn 0.38843414 0.22728805 -0.8683649
vn 0.56932485 -0.7948873 0.007548243
vn -0.019811751 -0.73226297 -0.6494415
vn 0.84828097 -0.1107012 -0.506651
vn -0.023310358 -0.1539332 -0.9663791
vn 0.5117883 0.67612666 -0.4864075
vn 0.7418346 0.58466625 -0.24150111
vn -0.0038280562 0.47288632 -0.8459137
vn -0.7895795 0.13842346 -0.5752684
vn 0.07815189 0.88680005 -0.29193354
vn -0.018287506 0.6527371 -0.71296656
vn -0.5213448 0.838506 0.13719253
vn -0.03244325 0.80034643 -0.5689636
vn -0.7453245 0.63674885 0.043356754
vn 0.7639222 0.46768045 -0.43230093
vn -0.081884995 0.96411794 0.079033464
vn -0.018287506 0.6527371 -0.71296656
vn -0.8710506 -0.12828848 -0.46146426
vn -0.023310358 -0.1539332 -0.9663791
vn -0.4308866 0.1624735 -0.85380435
vn -0.5685747 -0.77991 0.14376105
vn -0.019811751 -0.73226297 -0.6494415
vn -0.5139089 -0.6203615 -0.54774964
g 1.1000_0
f 3/3/3 2/2/2 1/1/1
f 6/6/6 5/5/5 4/4/4
f 9/9/9 8/8/8 7/7/7
f 12/12/12 11/11/11 10/10/10
f 15/15/15 14/14/14 13/13/13
f 18/18/18 17/17/17 16/16/16
f 21/21/21 20/20/20 19/19/19
f 24/24/24 23/23/23 22/22/22
f 27/27/27 26/26/26 25/25/25
f 30/30/30 29/29/29 28/28/28
f 33/33/33 32/32/32 31/31/31
f 36/36/36 35/35/35 34/34/34
f 39/39/39 38/38/38 37/37/37
f 42/42/42 41/41/41 40/40/40
f 45/45/45 44/44/44 43/43/43
f 48/48/48 47/47/47 46/46/46
f 51/51/51 50/50/50 49/49/49
f 54/54/54 53/53/53 52/52/52
f 57/57/57 56/56/56 55/55/55
f 60/60/60 59/59/59 58/58/58
f 63/63/63 62/62/62 61/61/61
f 66/66/66 65/65/65 64/64/64
f 69/69/69 68/68/68 67/67/67
f 72/72/72 71/71/71 70/70/70
f 75/75/75 74/74/74 73/73/73
f 78/78/78 77/77/77 76/76/76
f 81/81/81 80/80/80 79/79/79
f 81/81/81 82/82/82 80/80/80
f 82/82/82 83/83/83 80/80/80
f 83/83/83 84/84/84 80/80/80
f 87/87/87 86/86/86 85/85/85
f 86/86/86 88/88/88 85/85/85
f 86/86/86 89/89/89 88/88/88
f 85/85/85 88/88/88 89/89/89
f 89/89/89 90/90/90 85/85/85
f 90/90/90 91/91/91 85/85/85
f 85/85/85 91/91/91 92/92/92
f 95/95/95 94/94/94 93/93/93
f 94/94/94 95/95/95 96/96/96
f 94/94/94 96/96/96 97/97/97
f 96/96/96 98/98/98 97/97/97
f 97/97/97 98/98/98 99/99/99
f 100/100/100 99/99/99 98/98/98
f 97/97/97 101/101/101 94/94/94
f 97/97/97 102/102/102 101/101/101
f 102/102/102 97/97/97 99/99/99
f 102/102/102 103/103/103 101/101/101
f 99/99/99 104/104/104 102/102/102
f 104/104/104 99/99/99 105/105/105
f 105/105/105 106/106/106 104/104/104
f 105/105/105 107/107/107 106/106/106
f 105/105/105 99/99/99 108/108/108
f 109/109/109 108/108/108 99/99/99
f 110/110/110 109/109/109 99/99/99
f 109/109/109 111/111/111 108/108/108
f 105/105/105 108/108/108 111/111/111
f 111/111/111 107/107/107 105/105/105
f 112/112/112 107/107/107 111/111/111
f 107/107/107 112/112/112 113/113/113
f 112/112/112 114/114/114 113/113/113
f 112/112/112 115/115/115 114/114/114
f 118/118/118 117/117/117 116/116/116
f 119/119/119 118/118/118 116/116/116
f 118/118/118 119/119/119 120/120/120
f 120/120/120 119/119/119 121/121/121
f 122/122/122 120/120/120 121/121/121
f 120/120/120 122/122/122 123/123/123
f 123/123/123 118/118/118 120/120/120
f 123/123/123 124/124/124 118/118/118
f 118/118/118 124/124/124 125/125/125
f 124/124/124 123/123/123 126/126/126
f 129/129/129 128/128/128 127/127/127
f 129/129/129 127/127/127 130/130/130
f 131/131/131 129/129/129 130/130/130
f 129/129/129 131/131/131 132/132/132
f 129/129/129 132/132/132 133/133/133
f 131/131/131 134/134/134 132/132/132
f 133/133/133 132/132/132 135/135/135
f 135/135/135 132/132/132 134/134/134
f 133/133/133 135/135/135 136/136/136
f 135/135/135 134/134/134 136/136/136
f 136/136/136 134/134/134 137/137/137
f 136/136/136 137/137/137 138/138/138
f 136/136/136 138/138/138 139/139/139
f 142/142/142 141/141/141 140/140/140
f 142/142/142 140/140/140 143/143/143
f 143/143/143 144/144/144 142/142/142
f 145/145/145 142/142/142 144/144/144
f 146/146/146 145/145/145 144/144/144
f 147/147/147 146/146/146 144/144/144
f 150/150/150 149/149/149 148/148/148
f 148/148/148 151/151/151 150/150/150
f 152/152/152 150/150/150 151/151/151
f 152/152/152 151/151/151 153/153/153
f 150/150/150 152/152/152 154/154/154
f 154/154/154 155/155/155 150/150/150
f 156/156/156 150/150/150 155/155/155
f 155/155/155 157/157/157 156/156/156
f 157/157/157 155/155/155 158/158/158
f 156/156/156 157/157/157 159/159/159
f 160/160/160 156/156/156 159/159/159
f 159/159/159 157/157/157 161/161/161
f 162/162/162 161/161/161 157/157/157
f 162/162/162 163/163/163 161/161/161
f 164/164/164 157/157/157 158/158/158
f 164/164/164 165/165/165 157/157/157
f 165/165/165 166/166/166 157/157/157
f 167/167/167 165/165/165 164/164/164
f 168/168/168 167/167/167 164/164/164
f 164/164/164 158/158/158 168/168/168
f 169/169/169 168/168/168 158/158/158
f 169/169/169 158/158/158 170/170/170
f 169/169/169 171/171/171 168/168/168
f 170/170/170 172/172/172 169/169/169
f 173/173/173 171/171/171 169/169/169
f 172/172/172 174/174/174 169/169/169
f 169/169/169 174/174/174 173/173/173
f 175/175/175 173/173/173 174/174/174
f 178/178/178 177/177/177 176/176/176
f 176/176/176 177/177/177 179/179/179
f 180/180/180 179/179/179 177/177/177
f 181/181/181 179/179/179 180/180/180
f 179/179/179 182/182/182 176/176/176
f 176/176/176 182/182/182 183/183/183
f 186/186/186 185/185/185 184/184/184
f 187/187/187 184/184/184 185/185/185
f 188/188/188 187/187/187 185/185/185
f 188/188/188 185/185/185 189/189/189
f 189/189/189 185/185/185 190/190/190
f 187/187/187 188/188/188 191/191/191
f 192/192/192 187/187/187 191/191/191
f 188/188/188 193/193/193 191/191/191
f 192/192/192 191/191/191 194/194/194
f 193/193/193 194/194/194 191/191/191
f 195/195/195 192/192/192 194/194/194
f 193/193/193 196/196/196 194/194/194
f 195/195/195 194/194/194 196/196/196
f 197/197/197 195/195/195 196/196/196
f 196/196/196 198/198/198 197/197/197
f 197/197/197 198/198/198 199/199/199
f 197/197/197 199/199/199 200/200/200
f 197/197/197 200/200/200 201/201/201
f 204/204/204 203/203/203 202/202/202
f 202/202/202 205/205/205 204/204/204
f 205/205/205 206/206/206 204/204/204
f 206/206/206 207/207/207 204/204/204
f 210/210/210 209/209/209 208/208/208
f 209/209/209 211/211/211 208/208/208
f 208/208/208 211/211/211 212/212/212
f 211/211/211 213/213/213 212/212/212
f 214/214/214 208/208/208 212/212/212
f 214/214/214 215/215/215 208/208/208
f 218/218/218 217/217/217 216/216/216
f 219/219/219 218/218/218 216/216/216
f 222/222/222 221/221/221 220/220/220
f 222/222/222 223/223/223 221/221/221
f 226/226/226 225/225/225 224/224/224
f 225/225/225 227/227/227 224/224/224
f 224/224/224 227/227/227 228/228/228
f 229/229/229 227/227/227 225/225/225
f 228/228/228 227/227/227 230/230/230
f 227/227/227 229/229/229 231/231/231
f 232/232/232 230/230/230 227/227/227
f 227/227/227 231/231/231 232/232/232
f 235/235/235 234/234/234 233/233/233
f 236/236/236 234/234/234 235/235/235
f 235/235/235 237/237/237 236/236/236
f 238/238/238 237/237/237 235/235/235
f 235/235/235 239/239/239 238/238/238
f 238/238/238 239/239/239 240/240/240
f 241/241/241 237/237/237 238/238/238
f 237/237/237 241/241/241 242/242/242
f 243/243/243 237/237/237 242/242/242
f 242/242/242 241/241/241 244/244/244
f 238/238/238 244/244/244 241/241/241
f 238/238/238 240/240/240 244/244/244
f 244/244/244 240/240/240 245/245/245
f 245/245/245 246/246/246 244/244/244
f 247/247/247 246/246/246 245/245/245
f 247/247/247 245/245/245 248/248/248
f 245/245/245 240/240/240 249/249/249
f 249/249/249 248/248/248 245/245/245
f 249/249/249 240/240/240 250/250/250
f 249/249/249 251/251/251 248/248/248
f 248/248/248 251/251/251 252/252/252
f 255/255/255 254/254/254 253/253/253
f 254/254/254 256/256/256 253/253/253
f 257/257/257 256/256/256 254/254/254
f 257/257/257 258/258/258 256/256/256
f 256/256/256 259/259/259 253/253/253
f 258/258/258 260/260/260 256/256/256
f 259/259/259 256/256/256 260/260/260
f 259/259/259 260/260/260 261/261/261
f 261/261/261 262/262/262 259/259/259
f 259/259/259 262/262/262 263/263/263
f 262/262/262 264/264/264 263/263/263
f 262/262/262 265/265/265 264/264/264
f 266/266/266 261/261/261 260/260/260
f 261/261/261 266/266/266 262/262/262
f 266/266/266 265/265/265 262/262/262
f 267/267/267 266/266/266 260/260/260
f 266/266/266 268/268/268 265/265/265
f 267/267/267 268/268/268 266/266/266
f 271/271/271 270/270/270 269/269/269
f 269/269/269 270/270/270 272/272/272
f 273/273/273 269/269/269 272/272/272
f 274/274/274 269/269/269 273/273/273
f 273/273/273 272/272/272 275/275/275
f 275/275/275 272/272/272 276/276/276
f 277/277/277 272/272/272 270/270/270
f 270/270/270 278/278/278 277/277/277
f 279/279/279 278/278/278 270/270/270
f 280/280/280 272/272/272 277/277/277
f 281/281/281 272/272/272 280/280/280
f 272/272/272 281/281/281 276/276/276
f 280/280/280 282/282/282 281/281/281
f 282/282/282 283/283/283 281/281/281
f 276/276/276 281/281/281 283/283/283
f 284/284/284 276/276/276 283/283/283
f 287/287/287 286/286/286 285/285/285
f 287/287/287 288/288/288 286/286/286
f 288/288/288 289/289/289 286/286/286
f 289/289/289 290/290/290 286/286/286
f 293/293/293 292/292/292 291/291/291
f 292/292/292 294/294/294 291/291/291
f 291/291/291 294/294/294 295/295/295
f 296/296/296 295/295/295 294/294/294
f 299/299/299 298/298/298 297/297/297
f 299/299/299 300/300/300 298/298/298
f 298/298/298 300/300/300 301/301/301
f 301/301/301 302/302/302 298/298/298
f 300/300/300 303/303/303 301/301/301
f 301/301/301 304/304/304 302/302/302
f 301/301/301 303/303/303 304/304/304
f 305/305/305 304/304/304 303/303/303
f 305/305/305 306/306/306 304/304/304
f 309/309/309 308/308/308 307/307/307
f 310/310/310 307/307/307 308/308/308
f 311/311/311 310/310/310 308/308/308
f 314/314/314 313/313/313 312/312/312
f 315/315/315 314/314/314 312/312/312
f 316/316/316 314/314/314 315/315/315
f 316/316/316 315/315/315 317/317/317
f 318/318/318 316/316/316 317/317/317
f 321/321/321 320/320/320 319/319/319
f 321/321/321 322/322/322 320/320/320
f 323/323/323 322/322/322 321/321/321
f 324/324/324 323/323/323 321/321/321
f 327/327/327 326/326/326 325/325/325
f 325/325/325 326/326/326 328/328/328
f 331/331/331 330/330/330 329/329/329
f 330/330/330 332/332/332 329/329/329
f 332/332/332 330/330/330 333/333/333
f 334/334/334 332/332/332 333/333/333
f 337/337/337 336/336/336 335/335/335
f 337/337/337 338/338/338 336/336/336
f 339/339/339 336/336/336 338/338/338
f 342/342/342 341/341/341 340/340/340
f 343/343/343 342/342/342 340/340/340
f 346/346/346 345/345/345 344/344/344
f 347/347/347 345/345/345 346/346/346
f 348/348/348 347/347/347 346/346/346
f 349/349/349 348/348/348 346/346/346
f 352/352/352 351/351/351 350/350/350
f 353/353/353 352/352/352 350/350/350
f 354/354/354 352/352/352 353/353/353
f 353/353/353 350/350/350 354/354/354
f 355/355/355 354/354/354 350/350/350
f 356/356/356 355/355/355 350/350/350
f 356/356/356 350/350/350 357/357/357
f 360/360/360 359/359/359 358/358/358
f 359/359/359 360/360/360 361/361/361
f 361/361/361 360/360/360 362/362/362
f 363/363/363 361/361/361 362/362/362
f 363/363/363 362/362/362 364/364/364
f 364/364/364 365/365/365 363/363/363
f 366/366/366 362/362/362 360/360/360
f 367/367/367 362/362/362 366/366/366
f 362/362/362 367/367/367 364/364/364
f 368/368/368 367/367/367 366/366/366
f 369/369/369 364/364/364 367/367/367
f 364/364/364 369/369/369 370/370/370
f 371/371/371 370/370/370 369/369/369
f 372/372/372 370/370/370 371/371/371
f 364/364/364 370/370/370 373/373/373
f 373/373/373 374/374/374 364/364/364
f 374/374/374 375/375/375 364/364/364
f 376/376/376 374/374/374 373/373/373
f 373/373/373 370/370/370 376/376/376
f 372/372/372 376/376/376 370/370/370
f 372/372/372 377/377/377 376/376/376
f 377/377/377 372/372/372 378/378/378
f 379/379/379 377/377/377 378/378/378
f 380/380/380 377/377/377 379/379/379
f 383/383/383 382/382/382 381/381/381
f 382/382/382 384/384/384 381/381/381
f 384/384/384 382/382/382 385/385/385
f 384/384/384 385/385/385 386/386/386
f 385/385/385 387/387/387 386/386/386
f 387/387/387 385/385/385 388/388/388
f 382/382/382 388/388/388 385/385/385
f 389/389/389 388/388/388 382/382/382
f 389/389/389 382/382/382 390/390/390
f 388/388/388 389/389/389 391/391/391
f 394/394/394 393/393/393 392/392/392
f 392/392/392 393/393/393 395/395/395
f 393/393/393 396/396/396 395/395/395
f 396/396/396 393/393/393 397/397/397
f 397/397/397 393/393/393 398/398/398
f 399/399/399 396/396/396 397/397/397
f 397/397/397 398/398/398 400/400/400
f 397/397/397 400/400/400 399/399/399
f 400/400/400 398/398/398 401/401/401
f 399/399/399 400/400/400 401/401/401
f 399/399/399 401/401/401 402/402/402
f 402/402/402 401/401/401 403/403/403
f 403/403/403 401/401/401 404/404/404
f 407/407/407 406/406/406 405/405/405
f 405/405/405 406/406/406 408/408/408
f 409/409/409 408/408/408 406/406/406
f 406/406/406 410/410/410 409/409/409
f 410/410/410 411/411/411 409/409/409
f 411/411/411 412/412/412 409/409/409
f 415/415/415 414/414/414 413/413/413
f 416/416/416 413/413/413 414/414/414
f 414/414/414 417/417/417 416/416/416
f 416/416/416 417/417/417 418/418/418
f 417/417/417 414/414/414 419/419/419
f 420/420/420 419/419/419 414/414/414
f 414/414/414 421/421/421 420/420/420
f 422/422/422 420/420/420 421/421/421
f 420/420/420 422/422/422 423/423/423
f 422/422/422 421/421/421 424/424/424
f 421/421/421 425/425/425 424/424/424
f 422/422/422 424/424/424 426/426/426
f 426/426/426 427/427/427 422/422/422
f 428/428/428 427/427/427 426/426/426
f 422/422/422 429/429/429 423/423/423
f 430/430/430 429/429/429 422/422/422
f 431/431/431 430/430/430 422/422/422
f 430/430/430 432/432/432 429/429/429
f 432/432/432 433/433/433 429/429/429
f 423/423/423 429/429/429 433/433/433
f 433/433/433 434/434/434 423/423/423
f 423/423/423 434/434/434 435/435/435
f 436/436/436 434/434/434 433/433/433
f 437/437/437 435/435/435 434/434/434
f 436/436/436 438/438/438 434/434/434
f 439/439/439 437/437/437 434/434/434
f 439/439/439 434/434/434 438/438/438
f 438/438/438 440/440/440 439/439/439
f 443/443/443 442/442/442 441/441/441
f 443/443/443 441/441/441 444/444/444
f 444/444/444 445/445/445 443/443/443
f 444/444/444 446/446/446 445/445/445
f 447/447/447 444/444/444 441/441/441
f 447/447/447 441/441/441 448/448/448
f 451/451/451 450/450/450 449/449/449
f 449/449/449 452/452/452 451/451/451
f 452/452/452 453/453/453 451/451/451
f 451/451/451 453/453/453 454/454/454
f 451/451/451 454/454/454 455/455/455
f 453/453/453 452/452/452 456/456/456
f 452/452/452 457/457/457 456/456/456
f 458/458/458 453/453/453 456/456/456
f 456/456/456 457/457/457 459/459/459
f 459/459/459 458/458/458 456/456/456
f 457/457/457 460/460/460 459/459/459
f 461/461/461 458/458/458 459/459/459
f 459/459/459 460/460/460 461/461/461
f 460/460/460 462/462/462 461/461/461
f 463/463/463 461/461/461 462/462/462
f 463/463/463 462/462/462 464/464/464
f 464/464/464 462/462/462 465/465/465
f 465/465/465 462/462/462 466/466/466
f 469/469/469 468/468/468 467/467/467
f 470/470/470 467/467/467 468/468/468
f 471/471/471 470/470/470 468/468/468
f 472/472/472 471/471/471 468/468/468
f 475/475/475 474/474/474 473/473/473
f 476/476/476 475/475/475 473/473/473
f 476/476/476 473/473/473 477/477/477
f 478/478/478 476/476/476 477/477/477
f 473/473/473 479/479/479 477/477/477
f 480/480/480 479/479/479 473/473/473
f 483/483/483 482/482/482 481/481/481
f 484/484/484 483/483/483 481/481/481
f 487/487/487 486/486/486 485/485/485
f 488/488/488 486/486/486 487/487/487
f 491/491/491 490/490/490 489/489/489
f 492/492/492 491/491/491 489/489/489
f 492/492/492 489/489/489 493/493/493
f 492/492/492 494/494/494 491/491/491
f 492/492/492 493/493/493 495/495/495
f 494/494/494 492/492/492 496/496/496
f 495/495/495 497/497/497 492/492/492
f 496/496/496 492/492/492 497/497/497
f 500/500/500 499/499/499 498/498/498
f 500/500/500 501/501/501 499/499/499
f 502/502/502 499/499/499 501/501/501
f 502/502/502 503/503/503 499/499/499
f 504/504/504 499/499/499 503/503/503
f 504/504/504 503/503/503 505/505/505
f 502/502/502 506/506/506 503/503/503
f 506/506/506 502/502/502 507/507/507
f 502/502/502 508/508/508 507/507/507
f 506/506/506 507/507/507 509/509/509
f 509/509/509 503/503/503 506/506/506
f 505/505/505 503/503/503 509/509/509
f 505/505/505 509/509/509 510/510/510
f 511/511/511 510/510/510 509/509/509
f 511/511/511 512/512/512 510/510/510
f 510/510/510 512/512/512 513/513/513
f 505/505/505 510/510/510 514/514/514
f 513/513/513 514/514/514 510/510/510
f 505/505/505 514/514/514 515/515/515
f 516/516/516 514/514/514 513/513/513
f 516/516/516 513/513/513 517/517/517
f 520/520/520 519/519/519 518/518/518
f 521/521/521 520/520/520 518/518/518
f 521/521/521 522/522/522 520/520/520
f 523/523/523 522/522/522 521/521/521
f 524/524/524 521/521/521 518/518/518
f 525/525/525 523/523/523 521/521/521
f 521/521/521 524/524/524 525/525/525
f 525/525/525 524/524/524 526/526/526
f 527/527/527 526/526/526 524/524/524
f 527/527/527 524/524/524 528/528/528
f 529/529/529 527/527/527 528/528/528
f 530/530/530 527/527/527 529/529/529
f 526/526/526 531/531/531 525/525/525
f 531/531/531 526/526/526 527/527/527
f 530/530/530 531/531/531 527/527/527
f 531/531/531 532/532/532 525/525/525
f 533/533/533 531/531/531 530/530/530
f 533/533/533 532/532/532 531/531/531
f 536/536/536 535/535/535 534/534/534
f 536/536/536 534/534/534 537/537/537
f 534/534/534 538/538/538 537/537/537
f 534/534/534 539/539/539 538/538/538
f 537/537/537 538/538/538 540/540/540
f 537/537/537 540/540/540 541/541/541
f 537/537/537 542/542/542 536/536/536
f 543/543/543 536/536/536 542/542/542
f 543/543/543 544/544/544 536/536/536
f 537/537/537 545/545/545 542/542/542
f 537/537/537 546/546/546 545/545/545
f 546/546/546 537/537/537 541/541/541
f 547/547/547 545/545/545 546/546/546
f 548/548/548 547/547/547 546/546/546
f 546/546/546 541/541/541 548/548/548
f 541/541/541 549/549/549 548/548/548
f 552/552/552 551/551/551 550/550/550
f 553/553/553 551/551/551 552/552/552
f 554/554/554 553/553/553 552/552/552
f 555/555/555 554/554/554 552/552/552
f 558/558/558 557/557/557 556/556/556
f 559/559/559 558/558/558 556/556/556
f 559/559/559 556/556/556 560/560/560
f 560/560/560 561/561/561 559/559/559
f 564/564/564 563/563/563 562/562/562
f 565/565/565 563/563/563 564/564/564
f 565/565/565 564/564/564 566/566/566
f 567/567/567 566/566/566 564/564/564
f 568/568/568 565/565/565 566/566/566
f 569/569/569 566/566/566 567/567/567
f 568/568/568 566/566/566 569/569/569
f 569/569/569 570/570/570 568/568/568
f 571/571/571 570/570/570 569/569/569
f 574/574/574 573/573/573 572/572/572
f 572/572/572 575/575/575 574/574/574
f 575/575/575 576/576/576 574/574/574
f 579/579/579 578/578/578 577/577/577
f 578/578/578 580/580/580 577/577/577
f 578/578/578 581/581/581 580/580/580
f 580/580/580 581/581/581 582/582/582
f 581/581/581 583/583/583 582/582/582
f 586/586/586 585/585/585 584/584/584
f 587/587/587 585/585/585 586/586/586
f 587/587/587 588/588/588 585/585/585
f 588/588/588 589/589/589 585/585/585
f 592/592/592 591/591/591 590/590/590
f 592/592/592 590/590/590 593/593/593
f 596/596/596 595/595/595 594/594/594
f 597/597/597 596/596/596 594/594/594
f 596/596/596 597/597/597 598/598/598
f 597/597/597 599/599/599 598/598/598
f 602/602/602 601/601/601 600/600/600
f 603/603/603 601/601/601 602/602/602
f 602/602/602 604/604/604 603/603/603
f 607/607/607 606/606/606 605/605/605
f 608/608/608 607/607/607 605/605/605
f 611/611/611 610/610/610 609/609/609
f 609/609/609 610/610/610 612/612/612
f 613/613/613 610/610/610 611/611/611
f 610/610/610 614/614/614 612/612/612
f 614/614/614 610/610/610 613/613/613
f 617/617/617 616/616/616 615/615/615
f 618/618/618 617/617/617 615/615/615
f 616/616/616 617/617/617 619/619/619
f 617/617/617 618/618/618 620/620/620
f 620/620/620 619/619/619 617/617/617
f 623/623/623 622/622/622 621/621/621
f 622/622/622 624/624/624 621/621/621
f 622/622/622 623/623/623 625/625/625
f 624/624/624 622/622/622 626/626/626
f 625/625/625 626/626/626 622/622/622
f 629/629/629 628/628/628 627/627/627
f 629/629/629 627/627/627 630/630/630
f 628/628/628 629/629/629 631/631/631
f 629/629/629 630/630/630 632/632/632
f 629/629/629 632/632/632 631/631/631
