g Arrow
v 0.059493203 0 -2.7202175
v 0.05949319 -0.034348425 -2.7202175
v 0.05949319 -0.034348425 -0.053375907
v 0.059493203 0 -0.053375907
v 0.05949319 -0.034348425 -2.7202175
v -0 -0.068696834 -0.053375907
v 0.05949319 -0.034348425 -0.053375907
v -0 -0.068696834 -2.7202175
v 0.05949319 -0.034348425 -3.064464
v -0 -0.068696834 -3.064464
v 0.05949319 -0.034348425 -3.2204003
v -0 -0.068696834 -3.2204003
v -0 0 -3.2204003
v -0 -0.068696834 -3.2204003
v 0.05949319 -0.034348425 -3.2204003
v 0.059493203 0 -3.2204003
v 0.05949319 -0.034348425 -2.7202175
v 0.21715097 -0.00851378 -2.888455
v 0.21715097 -0.00851378 -3.2757385
v 0.05949319 -0.034348425 -3.064464
v 0.059493203 0 -3.2204003
v 0.05949319 -0.034348425 -3.2204003
v 0.05949319 -0.034348425 -3.064464
v 0.059493203 0 -3.064464
v 0.21715099 0 -3.2757385
v 0.21715097 -0.00851378 -3.2757385
v 0.21715097 -0.00851378 -2.888455
v 0.21715099 0 -2.888455
v 0.059493203 0 -2.7202175
v 0.21715099 0 -2.888455
v 0.21715097 -0.00851378 -2.888455
v 0.05949319 -0.034348425 -2.7202175
v 0.23359585 0 -0.13267496
v 0.23359585 -0.0028337908 -0.13267496
v -0 -0.0028337908 0.46631098
v -0 0 0.46631098
v 0.12727012 -0.079123385 -0.072024725
v -0 -0.079123385 -0.11106019
v -0 -0.079123385 -0.082488894
v -0 -0.079123385 0.18155861
v -0 0 -0.21218939
v -0 -0.0028337908 -0.21218939
v 0.23359585 -0.0028337908 -0.13267496
v 0.23359585 0 -0.13267496
v 0.12727012 -0.079123385 -0.072024725
v 0.23359585 -0.0028337908 -0.13267496
v -0 -0.0028337908 -0.21218939
v -0 -0.079123385 -0.11106019
v -0 -0.079123385 0.18155861
v -0 -0.0028337908 0.46631098
v 0.23359585 -0.0028337908 -0.13267496
v 0.12727012 -0.079123385 -0.072024725
v 0.05949319 -0.034348425 -3.064464
v 0.21715097 -0.00851378 -3.2757385
v 0.21715099 0 -3.2757385
v 0.059493203 0 -3.064464
v -0.059493203 0 -2.7202175
v -0.059493203 0 -0.053375907
v -0.05949319 -0.034348425 -0.053375907
v -0.05949319 -0.034348425 -2.7202175
v -0.05949319 -0.034348425 -2.7202175
v -0.05949319 -0.034348425 -0.053375907
v -0 -0.068696834 -0.053375907
v -0 -0.068696834 -2.7202175
v -0.05949319 -0.034348425 -3.064464
v -0 -0.068696834 -3.064464
v -0.05949319 -0.034348425 -3.2204003
v -0 -0.068696834 -3.2204003
v -0 0 -3.2204003
v -0.059493203 0 -3.2204003
v -0.05949319 -0.034348425 -3.2204003
v -0 -0.068696834 -3.2204003
v -0.05949319 -0.034348425 -2.7202175
v -0.05949319 -0.034348425 -3.064464
v -0.21715097 -0.00851378 -3.2757385
v -0.21715097 -0.00851378 -2.888455
v -0.059493203 0 -3.2204003
v -0.059493203 0 -3.064464
v -0.05949319 -0.034348425 -3.064464
v -0.05949319 -0.034348425 -3.2204003
v -0.21715099 0 -3.2757385
v -0.21715099 0 -2.888455
v -0.21715097 -0.00851378 -2.888455
v -0.21715097 -0.00851378 -3.2757385
v -0.059493203 0 -2.7202175
v -0.05949319 -0.034348425 -2.7202175
v -0.21715097 -0.00851378 -2.888455
v -0.21715099 0 -2.888455
v -0.23359585 0 -0.13267496
v -0 0 0.46631098
v -0 -0.0028337908 0.46631098
v -0.23359585 -0.0028337908 -0.13267496
v -0.12727012 -0.079123385 -0.072024725
v -0 -0.079123385 -0.082488894
v -0 -0.079123385 -0.11106019
v -0 -0.079123385 0.18155861
v -0 0 -0.21218939
v -0.23359585 0 -0.13267496
v -0.23359585 -0.0028337908 -0.13267496
v -0 -0.0028337908 -0.21218939
v -0.12727012 -0.079123385 -0.072024725
v -0 -0.079123385 -0.11106019
v -0 -0.0028337908 -0.21218939
v -0.23359585 -0.0028337908 -0.13267496
v -0 -0.079123385 0.18155861
v -0.12727012 -0.079123385 -0.072024725
v -0.23359585 -0.0028337908 -0.13267496
v -0 -0.0028337908 0.46631098
v -0.05949319 -0.034348425 -3.064464
v -0.059493203 0 -3.064464
v -0.21715099 0 -3.2757385
v -0.21715097 -0.00851378 -3.2757385
v 0.059493203 0 -2.7202175
v 0.059493203 0 -0.053375907
v 0.05949319 0.034348425 -0.053375907
v 0.05949319 0.034348425 -2.7202175
v 0.05949319 0.034348425 -2.7202175
v 0.05949319 0.034348425 -0.053375907
v -0 0.068696834 -0.053375907
v -0 0.068696834 -2.7202175
v 0.05949319 0.034348425 -3.064464
v -0 0.068696834 -3.064464
v 0.05949319 0.034348425 -3.2204003
v -0 0.068696834 -3.2204003
v -0 0 -3.2204003
v 0.059493203 0 -3.2204003
v 0.05949319 0.034348425 -3.2204003
v -0 0.068696834 -3.2204003
v 0.05949319 0.034348425 -2.7202175
v 0.05949319 0.034348425 -3.064464
v 0.21715097 0.00851378 -3.2757385
v 0.21715097 0.00851378 -2.888455
v 0.059493203 0 -3.2204003
v 0.059493203 0 -3.064464
v 0.05949319 0.034348425 -3.064464
v 0.05949319 0.034348425 -3.2204003
v 0.21715099 0 -3.2757385
v 0.21715099 0 -2.888455
v 0.21715097 0.00851378 -2.888455
v 0.21715097 0.00851378 -3.2757385
v 0.059493203 0 -2.7202175
v 0.05949319 0.034348425 -2.7202175
v 0.21715097 0.00851378 -2.888455
v 0.21715099 0 -2.888455
v 0.23359585 0 -0.13267496
v -0 0 0.46631098
v -0 0.0028337908 0.46631098
v 0.23359585 0.0028337908 -0.13267496
v 0.12727012 0.079123385 -0.072024725
v -0 0.079123385 -0.082488894
v -0 0.079123385 -0.11106019
v -0 0.079123385 0.18155861
v -0 0 -0.21218939
v 0.23359585 0 -0.13267496
v 0.23359585 0.0028337908 -0.13267496
v -0 0.0028337908 -0.21218939
v 0.12727012 0.079123385 -0.072024725
v -0 0.079123385 -0.11106019
v -0 0.0028337908 -0.21218939
v 0.23359585 0.0028337908 -0.13267496
v -0 0.079123385 0.18155861
v 0.12727012 0.079123385 -0.072024725
v 0.23359585 0.0028337908 -0.13267496
v -0 0.0028337908 0.46631098
v 0.05949319 0.034348425 -3.064464
v 0.059493203 0 -3.064464
v 0.21715099 0 -3.2757385
v 0.21715097 0.00851378 -3.2757385
v -0.059493203 0 -2.7202175
v -0.05949319 0.034348425 -2.7202175
v -0.05949319 0.034348425 -0.053375907
v -0.059493203 0 -0.053375907
v -0.05949319 0.034348425 -2.7202175
v -0 0.068696834 -0.053375907
v -0.05949319 0.034348425 -0.053375907
v -0 0.068696834 -2.7202175
v -0.05949319 0.034348425 -3.064464
v -0 0.068696834 -3.064464
v -0.05949319 0.034348425 -3.2204003
v -0 0.068696834 -3.2204003
v -0 0 -3.2204003
v -0 0.068696834 -3.2204003
v -0.05949319 0.034348425 -3.2204003
v -0.059493203 0 -3.2204003
v -0.05949319 0.034348425 -2.7202175
v -0.21715097 0.00851378 -2.888455
v -0.21715097 0.00851378 -3.2757385
v -0.05949319 0.034348425 -3.064464
v -0.059493203 0 -3.2204003
v -0.05949319 0.034348425 -3.2204003
v -0.05949319 0.034348425 -3.064464
v -0.059493203 0 -3.064464
v -0.21715099 0 -3.2757385
v -0.21715097 0.00851378 -3.2757385
v -0.21715097 0.00851378 -2.888455
v -0.21715099 0 -2.888455
v -0.059493203 0 -2.7202175
v -0.21715099 0 -2.888455
v -0.21715097 0.00851378 -2.888455
v -0.05949319 0.034348425 -2.7202175
v -0.23359585 0 -0.13267496
v -0.23359585 0.0028337908 -0.13267496
v -0 0.0028337908 0.46631098
v -0 0 0.46631098
v -0.12727012 0.079123385 -0.072024725
v -0 0.079123385 -0.11106019
v -0 0.079123385 -0.082488894
v -0 0.079123385 0.18155861
v -0 0 -0.21218939
v -0 0.0028337908 -0.21218939
v -0.23359585 0.0028337908 -0.13267496
v -0.23359585 0 -0.13267496
v -0.12727012 0.079123385 -0.072024725
v -0.23359585 0.0028337908 -0.13267496
v -0 0.0028337908 -0.21218939
v -0 0.079123385 -0.11106019
v -0 0.079123385 0.18155861
v -0 0.0028337908 0.46631098
v -0.23359585 0.0028337908 -0.13267496
v -0.12727012 0.079123385 -0.072024725
v -0.05949319 0.034348425 -3.064464
v -0.21715097 0.00851378 -3.2757385
v -0.21715099 0 -3.2757385
v -0.059493203 0 -3.064464
vt 0.11218262 0.17932129
vt 0.10180664 0.17932129
vt 0.10180664 0.8642578
vt 0.11218262 0.8642578
vt 0.058898926 0.8198242
vt 0.07940674 0.0113220215
vt 0.058898926 0.011184692
vt 0.07940674 0.8203125
vt 0.058898926 0.9243164
vt 0.07940674 0.9248047
vt 0.058898926 0.9716797
vt 0.07940674 0.9716797
vt 0.15234375 0.2487793
vt 0.15234375 0.22790527
vt 0.13452148 0.23828125
vt 0.13452148 0.2487793
vt 0.058898926 0.8198242
vt 0.011184692 0.87158203
vt 0.011184692 0.98876953
vt 0.058898926 0.9243164
vt 0.2614746 0.20983887
vt 0.25097656 0.20983887
vt 0.25097656 0.24987793
vt 0.2614746 0.24987793
vt 0.11218262 0.011184692
vt 0.10961914 0.011184692
vt 0.10961914 0.1105957
vt 0.11218262 0.1105957
vt 0.11218262 0.17932129
vt 0.11218262 0.1105957
vt 0.10961914 0.1105957
vt 0.10180664 0.17932129
vt 0.22851562 0.011184692
vt 0.22766113 0.011184692
vt 0.22766113 0.20275879
vt 0.22851562 0.20275879
vt 0.16467285 0.17602539
vt 0.20275879 0.17480469
vt 0.19995117 0.16662598
vt 0.17370605 0.09100342
vt 0.25170898 0.113586426
vt 0.25097656 0.113586426
vt 0.25097656 0.1875
vt 0.25170898 0.1875
vt 0.16467285 0.17602539
vt 0.13452148 0.2055664
vt 0.20532227 0.2055664
vt 0.20275879 0.17480469
vt 0.17370605 0.09100342
vt 0.13769531 0.011184692
vt 0.13452148 0.2055664
vt 0.16467285 0.17602539
vt 0.2614746 0.09118652
vt 0.25341797 0.011184692
vt 0.25097656 0.011184692
vt 0.25097656 0.09118652
vt 0.11218262 0.17932129
vt 0.11218262 0.8642578
vt 0.10180664 0.8642578
vt 0.10180664 0.17932129
vt 0.058898926 0.8198242
vt 0.058898926 0.011184692
vt 0.07940674 0.0113220215
vt 0.07940674 0.8203125
vt 0.058898926 0.9243164
vt 0.07940674 0.9248047
vt 0.058898926 0.9716797
vt 0.07940674 0.9716797
vt 0.15234375 0.2487793
vt 0.13452148 0.2487793
vt 0.13452148 0.23828125
vt 0.15234375 0.22790527
vt 0.058898926 0.8198242
vt 0.058898926 0.9243164
vt 0.011184692 0.98876953
vt 0.011184692 0.87158203
vt 0.2614746 0.20983887
vt 0.2614746 0.24987793
vt 0.25097656 0.24987793
vt 0.25097656 0.20983887
vt 0.11218262 0.011184692
vt 0.11218262 0.1105957
vt 0.10961914 0.1105957
vt 0.10961914 0.011184692
vt 0.11218262 0.17932129
vt 0.10180664 0.17932129
vt 0.10961914 0.1105957
vt 0.11218262 0.1105957
vt 0.22851562 0.011184692
vt 0.22851562 0.20275879
vt 0.22766113 0.20275879
vt 0.22766113 0.011184692
vt 0.16467285 0.17602539
vt 0.19995117 0.16662598
vt 0.20275879 0.17480469
vt 0.17370605 0.09100342
vt 0.25170898 0.113586426
vt 0.25170898 0.1875
vt 0.25097656 0.1875
vt 0.25097656 0.113586426
vt 0.16467285 0.17602539
vt 0.20275879 0.17480469
vt 0.20532227 0.2055664
vt 0.13452148 0.2055664
vt 0.17370605 0.09100342
vt 0.16467285 0.17602539
vt 0.13452148 0.2055664
vt 0.13769531 0.011184692
vt 0.2614746 0.09118652
vt 0.25097656 0.09118652
vt 0.25097656 0.011184692
vt 0.25341797 0.011184692
vt 0.11218262 0.17932129
vt 0.11218262 0.8642578
vt 0.10180664 0.8642578
vt 0.10180664 0.17932129
vt 0.058898926 0.8198242
vt 0.058898926 0.011184692
vt 0.07940674 0.0113220215
vt 0.07940674 0.8203125
vt 0.058898926 0.9243164
vt 0.07940674 0.9248047
vt 0.058898926 0.9716797
vt 0.07940674 0.9716797
vt 0.15234375 0.2487793
vt 0.13452148 0.2487793
vt 0.13452148 0.23828125
vt 0.15234375 0.22790527
vt 0.058898926 0.8198242
vt 0.058898926 0.9243164
vt 0.011184692 0.98876953
vt 0.011184692 0.87158203
vt 0.2614746 0.20983887
vt 0.2614746 0.24987793
vt 0.25097656 0.24987793
vt 0.25097656 0.20983887
vt 0.11218262 0.011184692
vt 0.11218262 0.1105957
vt 0.10961914 0.1105957
vt 0.10961914 0.011184692
vt 0.11218262 0.17932129
vt 0.10180664 0.17932129
vt 0.10961914 0.1105957
vt 0.11218262 0.1105957
vt 0.22851562 0.011184692
vt 0.22851562 0.20275879
vt 0.22766113 0.20275879
vt 0.22766113 0.011184692
vt 0.16467285 0.17602539
vt 0.19995117 0.16662598
vt 0.20275879 0.17480469
vt 0.17370605 0.09100342
vt 0.25170898 0.113586426
vt 0.25170898 0.1875
vt 0.25097656 0.1875
vt 0.25097656 0.113586426
vt 0.16467285 0.17602539
vt 0.20275879 0.17480469
vt 0.20532227 0.2055664
vt 0.13452148 0.2055664
vt 0.17370605 0.09100342
vt 0.16467285 0.17602539
vt 0.13452148 0.2055664
vt 0.13769531 0.011184692
vt 0.2614746 0.09118652
vt 0.25097656 0.09118652
vt 0.25097656 0.011184692
vt 0.25341797 0.011184692
vt 0.11218262 0.17932129
vt 0.10180664 0.17932129
vt 0.10180664 0.8642578
vt 0.11218262 0.8642578
vt 0.058898926 0.8198242
vt 0.07940674 0.0113220215
vt 0.058898926 0.011184692
vt 0.07940674 0.8203125
vt 0.058898926 0.9243164
vt 0.07940674 0.9248047
vt 0.058898926 0.9716797
vt 0.07940674 0.9716797
vt 0.15234375 0.2487793
vt 0.15234375 0.22790527
vt 0.13452148 0.23828125
vt 0.13452148 0.2487793
vt 0.058898926 0.8198242
vt 0.011184692 0.87158203
vt 0.011184692 0.98876953
vt 0.058898926 0.9243164
vt 0.2614746 0.20983887
vt 0.25097656 0.20983887
vt 0.25097656 0.24987793
vt 0.2614746 0.24987793
vt 0.11218262 0.011184692
vt 0.10961914 0.011184692
vt 0.10961914 0.1105957
vt 0.11218262 0.1105957
vt 0.11218262 0.17932129
vt 0.11218262 0.1105957
vt 0.10961914 0.1105957
vt 0.10180664 0.17932129
vt 0.22851562 0.011184692
vt 0.22766113 0.011184692
vt 0.22766113 0.20275879
vt 0.22851562 0.20275879
vt 0.16467285 0.17602539
vt 0.20275879 0.17480469
vt 0.19995117 0.16662598
vt 0.17370605 0.09100342
vt 0.25170898 0.113586426
vt 0.25097656 0.113586426
vt 0.25097656 0.1875
vt 0.25170898 0.1875
vt 0.16467285 0.17602539
vt 0.13452148 0.2055664
vt 0.20532227 0.2055664
vt 0.20275879 0.17480469
vt 0.17370605 0.09100342
vt 0.13769531 0.011184692
vt 0.13452148 0.2055664
vt 0.16467285 0.17602539
vt 0.2614746 0.09118652
vt 0.25341797 0.011184692
vt 0.25097656 0.011184692
vt 0.25097656 0.09118652
vn 1 0 0
vn 1 0 0
vn 1 0 0
vn 1 0 0
vn 0.5 -0.86621094 0
vn 0.5 -0.86621094 0
vn 0.5 -0.86621094 0
vn 0.5 -0.86621094 0
vn 0.5 -0.86621094 0
vn 0.5 -0.86621094 0
vn 0.5 -0.86621094 0
vn 0.5 -0.86621094 0
vn -0 0 -1
vn -0 0 -1
vn -0 0 -1
vn -0 0 -1
vn 0.16174316 -0.9868164 0
vn 0.16174316 -0.9868164 0
vn 0.16174316 -0.9868164 0
vn 0.16174316 -0.9868164 0
vn 1 0 0
vn 1 0 0
vn 1 0 0
vn 1 0 0
vn 1 0 0
vn 1 0 0
vn 1 0 0
vn 1 0 0
vn 0.7294922 0 0.68359375
vn 0.7294922 0 0.68359375
vn 0.7294922 0 0.68359375
vn 0.7294922 0 0.68359375
vn 0.9316406 0 0.36328125
vn 0.9316406 0 0.36328125
vn 0.9316406 0 0.36328125
vn 0.9316406 0 0.36328125
vn -0 -1 0
vn -0 -1 0
vn -0 -1 0
vn -0 -1 0
vn 0.32226562 0 -0.94677734
vn 0.32226562 0 -0.94677734
vn 0.32226562 0 -0.94677734
vn 0.32226562 0 -0.94677734
vn 0.1973877 -0.77441406 -0.6010742
vn 0.1973877 -0.77441406 -0.6010742
vn 0.1973877 -0.77441406 -0.6010742
vn 0.1973877 -0.77441406 -0.6010742
vn 0.5854492 -0.77197266 0.24780273
vn 0.5854492 -0.77197266 0.24780273
vn 0.5854492 -0.77197266 0.24780273
vn 0.5854492 -0.77197266 0.24780273
vn -0.80126953 0 -0.59814453
vn -0.80126953 0 -0.59814453
vn -0.80126953 0 -0.59814453
vn -0.80126953 0 -0.59814453
vn -1 0 0
vn -1 0 0
vn -1 0 0
vn -1 0 0
vn -0.5 -0.86621094 0
vn -0.5 -0.86621094 0
vn -0.5 -0.86621094 0
vn -0.5 -0.86621094 0
vn -0.5 -0.86621094 0
vn -0.5 -0.86621094 0
vn -0.5 -0.86621094 0
vn -0.5 -0.86621094 0
vn -0 0 -1
vn -0 0 -1
vn -0 0 -1
vn -0 0 -1
vn -0.16174316 -0.9868164 0
vn -0.16174316 -0.9868164 0
vn -0.16174316 -0.9868164 0
vn -0.16174316 -0.9868164 0
vn -1 0 0
vn -1 0 0
vn -1 0 0
vn -1 0 0
vn -1 0 0
vn -1 0 0
vn -1 0 0
vn -1 0 0
vn -0.7294922 0 0.68359375
vn -0.7294922 0 0.68359375
vn -0.7294922 0 0.68359375
vn -0.7294922 0 0.68359375
vn -0.9316406 0 0.36328125
vn -0.9316406 0 0.36328125
vn -0.9316406 0 0.36328125
vn -0.9316406 0 0.36328125
vn -0 -1 0
vn -0 -1 0
vn -0 -1 0
vn -0 -1 0
vn -0.32226562 0 -0.94677734
vn -0.32226562 0 -0.94677734
vn -0.32226562 0 -0.94677734
vn -0.32226562 0 -0.94677734
vn -0.1973877 -0.77441406 -0.6010742
vn -0.1973877 -0.77441406 -0.6010742
vn -0.1973877 -0.77441406 -0.6010742
vn -0.1973877 -0.77441406 -0.6010742
vn -0.5854492 -0.77197266 0.24780273
vn -0.5854492 -0.77197266 0.24780273
vn -0.5854492 -0.77197266 0.24780273
vn -0.5854492 -0.77197266 0.24780273
vn 0.80126953 0 -0.59814453
vn 0.80126953 0 -0.59814453
vn 0.80126953 0 -0.59814453
vn 0.80126953 0 -0.59814453
vn 1 0 0
vn 1 0 0
vn 1 0 0
vn 1 0 0
vn 0.5 0.86621094 0
vn 0.5 0.86621094 0
vn 0.5 0.86621094 0
vn 0.5 0.86621094 0
vn 0.5 0.86621094 0
vn 0.5 0.86621094 0
vn 0.5 0.86621094 0
vn 0.5 0.86621094 0
vn -0 0 -1
vn -0 0 -1
vn -0 0 -1
vn -0 0 -1
vn 0.16174316 0.9868164 0
vn 0.16174316 0.9868164 0
vn 0.16174316 0.9868164 0
vn 0.16174316 0.9868164 0
vn 1 0 0
vn 1 0 0
vn 1 0 0
vn 1 0 0
vn 1 0 0
vn 1 0 0
vn 1 0 0
vn 1 0 0
vn 0.7294922 0 0.68359375
vn 0.7294922 0 0.68359375
vn 0.7294922 0 0.68359375
vn 0.7294922 0 0.68359375
vn 0.9316406 0 0.36328125
vn 0.9316406 0 0.36328125
vn 0.9316406 0 0.36328125
vn 0.9316406 0 0.36328125
vn -0 1 0
vn -0 1 0
vn -0 1 0
vn -0 1 0
vn 0.32226562 0 -0.94677734
vn 0.32226562 0 -0.94677734
vn 0.32226562 0 -0.94677734
vn 0.32226562 0 -0.94677734
vn 0.1973877 0.77441406 -0.6010742
vn 0.1973877 0.77441406 -0.6010742
vn 0.1973877 0.77441406 -0.6010742
vn 0.1973877 0.77441406 -0.6010742
vn 0.5854492 0.77197266 0.24780273
vn 0.5854492 0.77197266 0.24780273
vn 0.5854492 0.77197266 0.24780273
vn 0.5854492 0.77197266 0.24780273
vn -0.80126953 0 -0.59814453
vn -0.80126953 0 -0.59814453
vn -0.80126953 0 -0.59814453
vn -0.80126953 0 -0.59814453
vn -1 0 0
vn -1 0 0
vn -1 0 0
vn -1 0 0
vn -0.5 0.86621094 0
vn -0.5 0.86621094 0
vn -0.5 0.86621094 0
vn -0.5 0.86621094 0
vn -0.5 0.86621094 0
vn -0.5 0.86621094 0
vn -0.5 0.86621094 0
vn -0.5 0.86621094 0
vn -0 0 -1
vn -0 0 -1
vn -0 0 -1
vn -0 0 -1
vn -0.16174316 0.9868164 0
vn -0.16174316 0.9868164 0
vn -0.16174316 0.9868164 0
vn -0.16174316 0.9868164 0
vn -1 0 0
vn -1 0 0
vn -1 0 0
vn -1 0 0
vn -1 0 0
vn -1 0 0
vn -1 0 0
vn -1 0 0
vn -0.7294922 0 0.68359375
vn -0.7294922 0 0.68359375
vn -0.7294922 0 0.68359375
vn -0.7294922 0 0.68359375
vn -0.9316406 0 0.36328125
vn -0.9316406 0 0.36328125
vn -0.9316406 0 0.36328125
vn -0.9316406 0 0.36328125
vn -0 1 0
vn -0 1 0
vn -0 1 0
vn -0 1 0
vn -0.32226562 0 -0.94677734
vn -0.32226562 0 -0.94677734
vn -0.32226562 0 -0.94677734
vn -0.32226562 0 -0.94677734
vn -0.1973877 0.77441406 -0.6010742
vn -0.1973877 0.77441406 -0.6010742
vn -0.1973877 0.77441406 -0.6010742
vn -0.1973877 0.77441406 -0.6010742
vn -0.5854492 0.77197266 0.24780273
vn -0.5854492 0.77197266 0.24780273
vn -0.5854492 0.77197266 0.24780273
vn -0.5854492 0.77197266 0.24780273
vn 0.80126953 0 -0.59814453
vn 0.80126953 0 -0.59814453
vn 0.80126953 0 -0.59814453
vn 0.80126953 0 -0.59814453
g Arrow_0
f 3/3/3 2/2/2 1/1/1
f 4/4/4 3/3/3 1/1/1
f 7/7/7 6/6/6 5/5/5
f 6/6/6 8/8/8 5/5/5
f 5/5/5 8/8/8 9/9/9
f 8/8/8 10/10/10 9/9/9
f 9/9/9 10/10/10 11/11/11
f 10/10/10 12/12/12 11/11/11
f 15/15/15 14/14/14 13/13/13
f 16/16/16 15/15/15 13/13/13
f 19/19/19 18/18/18 17/17/17
f 20/20/20 19/19/19 17/17/17
f 23/23/23 22/22/22 21/21/21
f 24/24/24 23/23/23 21/21/21
f 27/27/27 26/26/26 25/25/25
f 28/28/28 27/27/27 25/25/25
f 31/31/31 30/30/30 29/29/29
f 32/32/32 31/31/31 29/29/29
f 35/35/35 34/34/34 33/33/33
f 36/36/36 35/35/35 33/33/33
f 39/39/39 38/38/38 37/37/37
f 40/40/40 39/39/39 37/37/37
f 43/43/43 42/42/42 41/41/41
f 44/44/44 43/43/43 41/41/41
f 47/47/47 46/46/46 45/45/45
f 48/48/48 47/47/47 45/45/45
f 51/51/51 50/50/50 49/49/49
f 52/52/52 51/51/51 49/49/49
f 55/55/55 54/54/54 53/53/53
f 56/56/56 55/55/55 53/53/53
f 59/59/59 58/58/58 57/57/57
f 60/60/60 59/59/59 57/57/57
f 63/63/63 62/62/62 61/61/61
f 64/64/64 63/63/63 61/61/61
f 64/64/64 61/61/61 65/65/65
f 66/66/66 64/64/64 65/65/65
f 66/66/66 65/65/65 67/67/67
f 68/68/68 66/66/66 67/67/67
f 71/71/71 70/70/70 69/69/69
f 72/72/72 71/71/71 69/69/69
f 75/75/75 74/74/74 73/73/73
f 76/76/76 75/75/75 73/73/73
f 79/79/79 78/78/78 77/77/77
f 80/80/80 79/79/79 77/77/77
f 83/83/83 82/82/82 81/81/81
f 84/84/84 83/83/83 81/81/81
f 87/87/87 86/86/86 85/85/85
f 88/88/88 87/87/87 85/85/85
f 91/91/91 90/90/90 89/89/89
f 92/92/92 91/91/91 89/89/89
f 95/95/95 94/94/94 93/93/93
f 94/94/94 96/96/96 93/93/93
f 99/99/99 98/98/98 97/97/97
f 100/100/100 99/99/99 97/97/97
f 103/103/103 102/102/102 101/101/101
f 104/104/104 103/103/103 101/101/101
f 107/107/107 106/106/106 105/105/105
f 108/108/108 107/107/107 105/105/105
f 111/111/111 110/110/110 109/109/109
f 112/112/112 111/111/111 109/109/109
f 115/115/115 114/114/114 113/113/113
f 116/116/116 115/115/115 113/113/113
f 119/119/119 118/118/118 117/117/117
f 120/120/120 119/119/119 117/117/117
f 120/120/120 117/117/117 121/121/121
f 122/122/122 120/120/120 121/121/121
f 122/122/122 121/121/121 123/123/123
f 124/124/124 122/122/122 123/123/123
f 127/127/127 126/126/126 125/125/125
f 128/128/128 127/127/127 125/125/125
f 131/131/131 130/130/130 129/129/129
f 132/132/132 131/131/131 129/129/129
f 135/135/135 134/134/134 133/133/133
f 136/136/136 135/135/135 133/133/133
f 139/139/139 138/138/138 137/137/137
f 140/140/140 139/139/139 137/137/137
f 143/143/143 142/142/142 141/141/141
f 144/144/144 143/143/143 141/141/141
f 147/147/147 146/146/146 145/145/145
f 148/148/148 147/147/147 145/145/145
f 151/151/151 150/150/150 149/149/149
f 150/150/150 152/152/152 149/149/149
f 155/155/155 154/154/154 153/153/153
f 156/156/156 155/155/155 153/153/153
f 159/159/159 158/158/158 157/157/157
f 160/160/160 159/159/159 157/157/157
f 163/163/163 162/162/162 161/161/161
f 164/164/164 163/163/163 161/161/161
f 167/167/167 166/166/166 165/165/165
f 168/168/168 167/167/167 165/165/165
f 171/171/171 170/170/170 169/169/169
f 172/172/172 171/171/171 169/169/169
f 175/175/175 174/174/174 173/173/173
f 174/174/174 176/176/176 173/173/173
f 173/173/173 176/176/176 177/177/177
f 176/176/176 178/178/178 177/177/177
f 177/177/177 178/178/178 179/179/179
f 178/178/178 180/180/180 179/179/179
f 183/183/183 182/182/182 181/181/181
f 184/184/184 183/183/183 181/181/181
f 187/187/187 186/186/186 185/185/185
f 188/188/188 187/187/187 185/185/185
f 191/191/191 190/190/190 189/189/189
f 192/192/192 191/191/191 189/189/189
f 195/195/195 194/194/194 193/193/193
f 196/196/196 195/195/195 193/193/193
f 199/199/199 198/198/198 197/197/197
f 200/200/200 199/199/199 197/197/197
f 203/203/203 202/202/202 201/201/201
f 204/204/204 203/203/203 201/201/201
f 207/207/207 206/206/206 205/205/205
f 208/208/208 207/207/207 205/205/205
f 211/211/211 210/210/210 209/209/209
f 212/212/212 211/211/211 209/209/209
f 215/215/215 214/214/214 213/213/213
f 216/216/216 215/215/215 213/213/213
f 219/219/219 218/218/218 217/217/217
f 220/220/220 219/219/219 217/217/217
f 223/223/223 222/222/222 221/221/221
f 224/224/224 223/223/223 221/221/221
