g Axe
v -0 -0.779567 0.6087257
v -0 -0.8641487 0.3012067
v 0.02599048 -0.779567 0.6087257
v 0.02594341 -0.9607071 1.785655
v -0 -1.1339855 2.0577054
v -0 -0.9607071 1.785655
v -0 -0.8641487 0.3012067
v -0 -1.2953179 0.75743794
v -0 -1.2953179 0.7574378
v -0 -1.2953179 0.7574378
v -0 -1.2953179 0.75743794
v -0 -1.4083303 1.4930918
v 0.13637394 0.058648616 1.0510298
v 0.11686668 0.019541472 0.9765349
v 0.1798248 -0.043168515 0.97095084
v 0.1798248 -0.101032406 1.6207671
v 0.11686668 -0.03832242 1.6263512
v 0.13637394 0.013332069 1.5599384
v -0 -0.779567 0.6087257
v -0.02599048 -0.779567 0.6087257
v -0 -0.8641487 0.3012067
v -0.02594341 -0.9607071 1.785655
v -0 -0.9607071 1.785655
v -0 -1.1339855 2.0577054
v -0.13637394 0.058648616 1.0510298
v -0.1798248 -0.043168515 0.97095084
v -0.11686668 0.019541472 0.9765349
v -0.1798248 -0.101032406 1.6207671
v -0.13637394 0.013332069 1.5599384
v -0.11686668 -0.03832242 1.6263512
v -0 -0.021299215 0.94009787
v 0.10469379 -0.13223593 1.6946461
v -0 -0.08883317 1.6985109
v 0.10469379 -0.064701915 0.9362329
v -0 -0.003526926 0.8073946
v 0.10469379 -0.04710138 0.8073946
v -0 0.050217867 0.49315658
v 0.09789412 0.013666272 0.49315652
v 0.10469379 -0.064701915 0.9362329
v 0.14826825 -0.23701933 1.6853154
v 0.10469379 -0.13223593 1.6946461
v 0.14826825 -0.16948533 0.92690235
v 0.10469379 -0.04710138 0.8073946
v 0.14826825 -0.1522994 0.8073946
v 0.09789412 0.013666272 0.49315652
v 0.13444568 -0.07457702 0.49315652
v 0.09789412 0.045998722 0.12030405
v 0.13444568 -0.042244583 0.12030405
v 0.14826825 -0.16948533 0.92690235
v 0.10469379 -0.34180278 1.6759849
v 0.14826825 -0.23701933 1.6853154
v 0.10469379 -0.27426878 0.9175718
v 0.14826825 -0.1522994 0.8073946
v 0.10469379 -0.25749743 0.8073946
v 0.10469379 -0.27426878 0.9175718
v -0 -0.3176715 0.91370696
v -0 -0.38520548 1.6721201
v 0.10469379 -0.34180278 1.6759849
v 0.11686668 -0.03832242 1.6263512
v 0.1798248 -0.101032406 1.6207671
v 0.1798248 -0.42217132 1.5921708
v -0 -0.42217132 1.5921708
v -0 -0.03832242 1.6263512
v 0.026980765 -1.1408024 1.4264523
v -0 -1.4083303 1.4930918
v -0 -1.1339855 2.0577054
v 0.02594341 -0.9607071 1.785655
v 0.04096228 -0.88363737 1.3795232
v 0.049664617 -0.7633654 1.6093376
v 0.040278826 -0.8342666 1.0136558
v 0.026980765 -1.1408024 1.4264523
v 0.02530563 -1.0743359 0.8898063
v 0.04774039 -0.65500957 0.8140961
v 0.02599048 -0.779567 0.6087257
v -0 -1.2953179 0.7574378
v -0 -0.8641487 0.3012067
v 0.08727952 0.11627251 1.1272274
v 0.0131376125 0.26672012 1.318853
v -0 0.26672012 1.318853
v -0 0.11553228 1.1444602
v -0 -0.03832242 1.6263512
v -0 0.091205835 1.4785213
v 0.08727952 0.08944428 1.4956427
v 0.13637394 0.013332069 1.5599384
v 0.11686668 -0.03832242 1.6263512
v 0.10469379 -0.13223593 1.6946461
v 0.08963047 -0.18239248 1.7224275
v -0 -0.15858527 1.7245474
v -0 -0.08883317 1.6985109
v -0 0.26587462 1.3283466
v 0.0131376125 0.2654519 1.3330934
v -0 0.2654519 1.3330934
v 0.0131376125 0.26587462 1.3283466
v -0 0.26629728 1.3235998
v 0.0131376125 0.26629728 1.3235998
v -0 0.26672012 1.318853
v 0.0131376125 0.26672012 1.318853
v 0.08727952 0.107329816 1.2500324
v 0.0131376125 0.26672012 1.318853
v 0.08727952 0.11627251 1.1272274
v 0.0131376125 0.26629728 1.3235998
v 0.08727952 0.09838706 1.3728375
v 0.0131376125 0.26587462 1.3283466
v 0.08727952 0.08944428 1.4956427
v 0.0131376125 0.2654519 1.3330934
v -0 0.091205835 1.4785213
v -0 0.2654519 1.3330934
v 0.0131376125 0.2654519 1.3330934
v 0.08727952 0.08944428 1.4956427
v 0.13637394 0.013332069 1.5599384
v 0.08727952 0.08944428 1.4956427
v 0.08727952 0.09838706 1.3728375
v 0.13637394 0.028437614 1.3903022
v 0.08727952 0.107329816 1.2500324
v 0.13637397 0.0435431 1.2206659
v 0.08727952 0.11627251 1.1272274
v 0.13637394 0.058648616 1.0510298
v -0 -0.3643075 0.9423545
v 0.1798248 -0.3643075 0.9423545
v 0.1798248 -0.043168515 0.97095084
v 0.11686668 0.019541472 0.9765349
v -0 0.019541472 0.9765349
v 0.09277831 -0.43869352 1.5509939
v 0.07978725 -0.56523377 1.5482992
v -0 -0.56523377 1.5482992
v -0 -0.43869352 1.5509939
v 0.07978725 -0.56523377 1.5482992
v 0.049664617 -0.7633654 1.6093376
v -0 -0.7633654 1.6093376
v -0 -0.56523377 1.5482992
v 0.049664617 -0.7633654 1.6093376
v 0.02594341 -0.9607071 1.785655
v -0 -0.9607071 1.785655
v -0 -0.7633654 1.6093376
v -0 -0.38790748 0.9806615
v -0 -0.47264513 0.94559455
v 0.07978725 -0.47264513 0.94559455
v 0.09277831 -0.3879075 0.9806615
v -0 -0.47264513 0.94559455
v -0 -0.65500957 0.8140961
v 0.04774039 -0.65500957 0.8140961
v 0.07978725 -0.47264513 0.94559455
v -0 -0.65500957 0.8140961
v -0 -0.779567 0.6087257
v 0.02599048 -0.779567 0.6087257
v 0.04774039 -0.65500957 0.8140961
v 0.09277831 -0.42176485 1.3608831
v 0.07978725 -0.56523377 1.5482992
v 0.09277831 -0.43869352 1.5509939
v 0.074744 -0.57973963 1.3515706
v 0.049664617 -0.7633654 1.6093376
v 0.09277831 -0.40483618 1.1707726
v 0.04096228 -0.88363737 1.3795232
v 0.073090754 -0.55956995 1.1239802
v 0.09277831 -0.3879075 0.9806615
v 0.040278826 -0.8342666 1.0136558
v 0.07978725 -0.47264513 0.94559455
v 0.04774039 -0.65500957 0.8140961
v 0.1798248 -0.08174442 1.4041617
v 0.1798248 -0.42217132 1.5921708
v 0.1798248 -0.101032406 1.6207671
v 0.1798248 -0.40288338 1.3755655
v 0.1798248 -0.06245649 1.1875563
v 0.1798248 -0.3835954 1.1589599
v 0.1798248 -0.043168515 0.97095084
v 0.1798248 -0.3643075 0.9423545
v -0 0.11553228 1.1444602
v -0 0.019541472 0.9765349
v 0.11686668 0.019541472 0.9765349
v 0.13637394 0.058648616 1.0510298
v 0.08727952 0.11627251 1.1272274
v 0.02530563 -1.0743359 0.8898063
v -0 -1.2953179 0.7574378
v -0 -1.4083303 1.4930918
v 0.026980765 -1.1408024 1.4264523
v 0.09789412 -0.38873857 -0.98976845
v -0 -0.4251208 -0.9862539
v -0 -0.3179242 -0.62540096
v 0.09789412 -0.28137264 -0.62540096
v 0.09789412 -0.28137264 -0.62540096
v -0 -0.3179242 -0.62540096
v -0 -0.23170434 -0.2525484
v 0.09789412 -0.19515276 -0.2525484
v 0.09789412 -0.19515276 -0.2525484
v -0 -0.23170434 -0.2525484
v -0 -0.16703944 0.12030405
v 0.09789412 -0.13048787 0.12030405
v 0.09789412 -0.13048787 0.12030405
v -0 -0.16703944 0.12030405
v -0 -0.19937187 0.49315652
v 0.09789412 -0.16282031 0.49315652
v 0.09789412 -0.16282031 0.49315652
v -0 -0.19937187 0.49315652
v -0 -0.3010719 0.8073946
v 0.10469379 -0.25749743 0.8073946
v 0.10469379 -0.25749743 0.8073946
v -0 -0.3010719 0.8073946
v -0 -0.3176715 0.91370696
v 0.10469379 -0.27426878 0.9175718
v 0.13444568 -0.30090415 -0.9982535
v 0.09789412 -0.38873857 -0.98976845
v 0.09789412 -0.28137264 -0.62540096
v 0.13444568 -0.19312933 -0.62540096
v 0.09789412 -0.19515276 -0.2525484
v 0.13444568 -0.10690947 -0.2525484
v 0.09789412 -0.13048787 0.12030405
v 0.13444568 -0.042244583 0.12030405
v 0.13444568 -0.042244583 0.12030405
v 0.09789412 -0.13048787 0.12030405
v 0.09789412 -0.16282031 0.49315652
v 0.13444568 -0.07457702 0.49315652
v 0.13444568 -0.07457702 0.49315652
v 0.09789412 -0.16282031 0.49315652
v 0.10469379 -0.25749743 0.8073946
v 0.14826825 -0.1522994 0.8073946
v 0.09789412 -0.21306974 -1.0067384
v 0.13444568 -0.30090415 -0.9982535
v 0.13444568 -0.19312933 -0.62540096
v 0.09789412 -0.104886055 -0.62540096
v 0.13444568 -0.10690947 -0.2525484
v 0.09789412 -0.018666178 -0.2525484
v 0.13444568 -0.042244583 0.12030405
v 0.09789412 0.045998722 0.12030405
v -0 -0.17668757 -1.0102532
v 0.09789412 -0.21306974 -1.0067384
v 0.09789412 -0.104886055 -0.62540096
v -0 -0.068334475 -0.62540084
v 0.09789412 -0.018666178 -0.2525484
v -0 0.017885387 -0.2525484
v -0 0.017885387 -0.2525484
v 0.09789412 -0.018666178 -0.2525484
v 0.09789412 0.045998722 0.12030405
v -0 0.08255032 0.12030411
v -0 0.08255032 0.12030411
v 0.09789412 0.045998722 0.12030405
v 0.09789412 0.013666272 0.49315652
v -0 0.050217867 0.49315658
v 0.09789412 -0.38873857 -0.98976845
v 0.0900913 -0.37921897 -1.0400338
v -0 -0.40545776 -1.0374992
v -0 -0.4251208 -0.9862539
v 0.09789412 -0.21306974 -1.0067384
v 0.0900913 -0.25252682 -1.0522728
v 0.11645225 -0.31587288 -1.0461533
v 0.13444568 -0.30090415 -0.9982535
v -0 -0.17668757 -1.0102532
v -0 -0.22628802 -1.0548072
v 0.0900913 -0.25252682 -1.0522728
v 0.09789412 -0.21306974 -1.0067384
v 0.13444568 -0.30090415 -0.9982535
v 0.11645225 -0.31587288 -1.0461533
v 0.0900913 -0.37921897 -1.0400338
v 0.09789412 -0.38873857 -0.98976845
v 0.08963047 -0.18239248 1.7224275
v 0.11353192 -0.23986828 1.7173095
v 0.08963047 -0.29734406 1.7121915
v -0 -0.15858527 1.7245474
v -0 -0.3211513 1.7100713
v 0.10469379 -0.34180278 1.6759849
v 0.08963047 -0.29734406 1.7121915
v 0.11353192 -0.23986828 1.7173095
v 0.14826825 -0.23701933 1.6853154
v -0 -0.38520548 1.6721201
v -0 -0.3211513 1.7100713
v 0.08963047 -0.29734406 1.7121915
v 0.10469379 -0.34180278 1.6759849
v 0.14826825 -0.23701933 1.6853154
v 0.11353192 -0.23986828 1.7173095
v 0.08963047 -0.18239248 1.7224275
v 0.10469379 -0.13223593 1.6946461
v 0.1798248 -0.3643075 0.9423545
v 0.09277831 -0.3879075 0.9806615
v 0.09277831 -0.40483618 1.1707726
v 0.1798248 -0.3835954 1.1589599
v 0.09277831 -0.42176485 1.3608831
v 0.1798248 -0.40288338 1.3755655
v 0.09277831 -0.43869352 1.5509939
v 0.1798248 -0.42217132 1.5921708
v -0 -0.3643075 0.9423545
v -0 -0.38790748 0.9806615
v 0.09277831 -0.3879075 0.9806615
v 0.1798248 -0.3643075 0.9423545
v 0.1798248 -0.42217132 1.5921708
v 0.09277831 -0.43869352 1.5509939
v -0 -0.43869352 1.5509939
v -0 -0.42217132 1.5921708
v 0.1798248 -0.06245649 1.1875563
v 0.13637394 0.058648616 1.0510298
v 0.1798248 -0.043168515 0.97095084
v 0.13637397 0.0435431 1.2206659
v 0.1798248 -0.08174442 1.4041617
v 0.13637394 0.028437614 1.3903022
v 0.1798248 -0.101032406 1.6207671
v 0.13637394 0.013332069 1.5599384
v 0.0900913 -0.37921897 -1.0400338
v 0.11645225 -0.31587288 -1.0461533
v 0.0900913 -0.25252682 -1.0522728
v -0 -0.40545776 -1.0374992
v -0 -0.22628802 -1.0548072
v -0 -0.021299215 0.94009787
v -0 -0.08883317 1.6985109
v -0.10469379 -0.13223593 1.6946461
v -0.10469379 -0.064701915 0.9362329
v -0 -0.003526926 0.8073946
v -0.10469379 -0.04710138 0.8073946
v -0 0.050217867 0.49315658
v -0.09789412 0.013666272 0.49315652
v -0.10469379 -0.064701915 0.9362329
v -0.10469379 -0.13223593 1.6946461
v -0.14826825 -0.23701933 1.6853154
v -0.14826825 -0.16948533 0.92690235
v -0.10469379 -0.04710138 0.8073946
v -0.14826825 -0.1522994 0.8073946
v -0.09789412 0.013666272 0.49315652
v -0.13444568 -0.07457702 0.49315652
v -0.09789412 0.045998722 0.12030405
v -0.13444568 -0.042244583 0.12030405
v -0.14826825 -0.16948533 0.92690235
v -0.14826825 -0.23701933 1.6853154
v -0.10469379 -0.34180278 1.6759849
v -0.10469379 -0.27426878 0.9175718
v -0.14826825 -0.1522994 0.8073946
v -0.10469379 -0.25749743 0.8073946
v -0.10469379 -0.27426878 0.9175718
v -0.10469379 -0.34180278 1.6759849
v -0 -0.38520548 1.6721201
v -0 -0.3176715 0.91370696
v -0.11686668 -0.03832242 1.6263512
v -0 -0.03832242 1.6263512
v -0 -0.42217132 1.5921708
v -0.1798248 -0.42217132 1.5921708
v -0.1798248 -0.101032406 1.6207671
v -0.026980765 -1.1408024 1.4264523
v -0 -1.1339855 2.0577054
v -0 -1.4083303 1.4930918
v -0.02594341 -0.9607071 1.785655
v -0.04096228 -0.88363737 1.3795232
v -0.049664617 -0.7633654 1.6093376
v -0.040278826 -0.8342666 1.0136558
v -0.026980765 -1.1408024 1.4264523
v -0.02530563 -1.0743359 0.8898063
v -0.04774039 -0.65500957 0.8140961
v -0.02599048 -0.779567 0.6087257
v -0 -1.2953179 0.7574378
v -0 -0.8641487 0.3012067
v -0.08727952 0.11627251 1.1272274
v -0 0.11553228 1.1444602
v -0 0.26672012 1.318853
v -0.0131376125 0.26672012 1.318853
v -0.08727952 0.08944428 1.4956427
v -0 0.091205835 1.4785213
v -0 -0.03832242 1.6263512
v -0.13637394 0.013332069 1.5599384
v -0.11686668 -0.03832242 1.6263512
v -0.10469379 -0.13223593 1.6946461
v -0 -0.08883317 1.6985109
v -0 -0.15858527 1.7245474
v -0.08963047 -0.18239248 1.7224275
v -0 0.26587462 1.3283466
v -0 0.2654519 1.3330934
v -0.0131376125 0.2654519 1.3330934
v -0.0131376125 0.26587462 1.3283466
v -0 0.26629728 1.3235998
v -0.0131376125 0.26629728 1.3235998
v -0 0.26672012 1.318853
v -0.0131376125 0.26672012 1.318853
v -0.08727952 0.107329816 1.2500324
v -0.08727952 0.11627251 1.1272274
v -0.0131376125 0.26672012 1.318853
v -0.0131376125 0.26629728 1.3235998
v -0.08727952 0.09838706 1.3728375
v -0.0131376125 0.26587462 1.3283466
v -0.08727952 0.08944428 1.4956427
v -0.0131376125 0.2654519 1.3330934
v -0 0.091205835 1.4785213
v -0.08727952 0.08944428 1.4956427
v -0.0131376125 0.2654519 1.3330934
v -0 0.2654519 1.3330934
v -0.13637394 0.013332069 1.5599384
v -0.08727952 0.09838706 1.3728375
v -0.08727952 0.08944428 1.4956427
v -0.13637394 0.028437614 1.3903022
v -0.08727952 0.107329816 1.2500324
v -0.13637397 0.0435431 1.2206659
v -0.08727952 0.11627251 1.1272274
v -0.13637394 0.058648616 1.0510298
v -0.1798248 -0.3643075 0.9423545
v -0 -0.3643075 0.9423545
v -0 0.019541472 0.9765349
v -0.11686668 0.019541472 0.9765349
v -0.1798248 -0.043168515 0.97095084
v -0.09277831 -0.43869352 1.5509939
v -0 -0.43869352 1.5509939
v -0 -0.56523377 1.5482992
v -0.07978725 -0.56523377 1.5482992
v -0.07978725 -0.56523377 1.5482992
v -0 -0.56523377 1.5482992
v -0 -0.7633654 1.6093376
v -0.049664617 -0.7633654 1.6093376
v -0.049664617 -0.7633654 1.6093376
v -0 -0.7633654 1.6093376
v -0 -0.9607071 1.785655
v -0.02594341 -0.9607071 1.785655
v -0 -0.38790748 0.9806615
v -0.09277831 -0.3879075 0.9806615
v -0.07978725 -0.47264513 0.94559455
v -0 -0.47264513 0.94559455
v -0 -0.47264513 0.94559455
v -0.07978725 -0.47264513 0.94559455
v -0.04774039 -0.65500957 0.8140961
v -0 -0.65500957 0.8140961
v -0 -0.65500957 0.8140961
v -0.04774039 -0.65500957 0.8140961
v -0.02599048 -0.779567 0.6087257
v -0 -0.779567 0.6087257
v -0.09277831 -0.42176485 1.3608831
v -0.09277831 -0.43869352 1.5509939
v -0.07978725 -0.56523377 1.5482992
v -0.074744 -0.57973963 1.3515706
v -0.049664617 -0.7633654 1.6093376
v -0.09277831 -0.40483618 1.1707726
v -0.04096228 -0.88363737 1.3795232
v -0.073090754 -0.55956995 1.1239802
v -0.09277831 -0.3879075 0.9806615
v -0.040278826 -0.8342666 1.0136558
v -0.07978725 -0.47264513 0.94559455
v -0.04774039 -0.65500957 0.8140961
v -0.1798248 -0.08174442 1.4041617
v -0.1798248 -0.101032406 1.6207671
v -0.1798248 -0.42217132 1.5921708
v -0.1798248 -0.40288338 1.3755655
v -0.1798248 -0.06245649 1.1875563
v -0.1798248 -0.3835954 1.1589599
v -0.1798248 -0.043168515 0.97095084
v -0.1798248 -0.3643075 0.9423545
v -0.13637394 0.058648616 1.0510298
v -0.11686668 0.019541472 0.9765349
v -0 0.019541472 0.9765349
v -0 0.11553228 1.1444602
v -0.08727952 0.11627251 1.1272274
v -0.02530563 -1.0743359 0.8898063
v -0.026980765 -1.1408024 1.4264523
v -0 -1.4083303 1.4930918
v -0 -1.2953179 0.7574378
v -0.09789412 -0.38873857 -0.98976845
v -0.09789412 -0.28137264 -0.62540096
v -0 -0.3179242 -0.62540096
v -0 -0.4251208 -0.9862539
v -0.09789412 -0.28137264 -0.62540096
v -0.09789412 -0.19515276 -0.2525484
v -0 -0.23170434 -0.2525484
v -0 -0.3179242 -0.62540096
v -0.09789412 -0.19515276 -0.2525484
v -0.09789412 -0.13048787 0.12030405
v -0 -0.16703944 0.12030405
v -0 -0.23170434 -0.2525484
v -0.09789412 -0.13048787 0.12030405
v -0.09789412 -0.16282031 0.49315652
v -0 -0.19937187 0.49315652
v -0 -0.16703944 0.12030405
v -0.09789412 -0.16282031 0.49315652
v -0.10469379 -0.25749743 0.8073946
v -0 -0.3010719 0.8073946
v -0 -0.19937187 0.49315652
v -0.10469379 -0.25749743 0.8073946
v -0.10469379 -0.27426878 0.9175718
v -0 -0.3176715 0.91370696
v -0 -0.3010719 0.8073946
v -0.13444568 -0.30090415 -0.9982535
v -0.09789412 -0.28137264 -0.62540096
v -0.09789412 -0.38873857 -0.98976845
v -0.13444568 -0.19312933 -0.62540096
v -0.09789412 -0.19515276 -0.2525484
v -0.13444568 -0.10690947 -0.2525484
v -0.09789412 -0.13048787 0.12030405
v -0.13444568 -0.042244583 0.12030405
v -0.13444568 -0.042244583 0.12030405
v -0.13444568 -0.07457702 0.49315652
v -0.09789412 -0.16282031 0.49315652
v -0.09789412 -0.13048787 0.12030405
v -0.13444568 -0.07457702 0.49315652
v -0.14826825 -0.1522994 0.8073946
v -0.10469379 -0.25749743 0.8073946
v -0.09789412 -0.16282031 0.49315652
v -0.09789412 -0.21306974 -1.0067384
v -0.13444568 -0.19312933 -0.62540096
v -0.13444568 -0.30090415 -0.9982535
v -0.09789412 -0.104886055 -0.62540096
v -0.13444568 -0.10690947 -0.2525484
v -0.09789412 -0.018666178 -0.2525484
v -0.13444568 -0.042244583 0.12030405
v -0.09789412 0.045998722 0.12030405
v -0 -0.17668757 -1.0102532
v -0.09789412 -0.104886055 -0.62540096
v -0.09789412 -0.21306974 -1.0067384
v -0 -0.068334475 -0.62540084
v -0.09789412 -0.018666178 -0.2525484
v -0 0.017885387 -0.2525484
v -0 0.017885387 -0.2525484
v -0 0.08255032 0.12030411
v -0.09789412 0.045998722 0.12030405
v -0.09789412 -0.018666178 -0.2525484
v -0 0.08255032 0.12030411
v -0 0.050217867 0.49315658
v -0.09789412 0.013666272 0.49315652
v -0.09789412 0.045998722 0.12030405
v -0.09789412 -0.38873857 -0.98976845
v -0 -0.4251208 -0.9862539
v -0 -0.40545776 -1.0374992
v -0.0900913 -0.37921897 -1.0400338
v -0.09789412 -0.21306974 -1.0067384
v -0.13444568 -0.30090415 -0.9982535
v -0.11645225 -0.31587288 -1.0461533
v -0.0900913 -0.25252682 -1.0522728
v -0 -0.17668757 -1.0102532
v -0.09789412 -0.21306974 -1.0067384
v -0.0900913 -0.25252682 -1.0522728
v -0 -0.22628802 -1.0548072
v -0.13444568 -0.30090415 -0.9982535
v -0.09789412 -0.38873857 -0.98976845
v -0.0900913 -0.37921897 -1.0400338
v -0.11645225 -0.31587288 -1.0461533
v -0.08963047 -0.18239248 1.7224275
v -0 -0.15858527 1.7245474
v -0 -0.3211513 1.7100713
v -0.08963047 -0.29734406 1.7121915
v -0.11353192 -0.23986828 1.7173095
v -0.10469379 -0.34180278 1.6759849
v -0.14826825 -0.23701933 1.6853154
v -0.11353192 -0.23986828 1.7173095
v -0.08963047 -0.29734406 1.7121915
v -0 -0.38520548 1.6721201
v -0.10469379 -0.34180278 1.6759849
v -0.08963047 -0.29734406 1.7121915
v -0 -0.3211513 1.7100713
v -0.14826825 -0.23701933 1.6853154
v -0.10469379 -0.13223593 1.6946461
v -0.08963047 -0.18239248 1.7224275
v -0.11353192 -0.23986828 1.7173095
v -0.1798248 -0.3643075 0.9423545
v -0.09277831 -0.40483618 1.1707726
v -0.09277831 -0.3879075 0.9806615
v -0.1798248 -0.3835954 1.1589599
v -0.09277831 -0.42176485 1.3608831
v -0.1798248 -0.40288338 1.3755655
v -0.09277831 -0.43869352 1.5509939
v -0.1798248 -0.42217132 1.5921708
v -0 -0.3643075 0.9423545
v -0.1798248 -0.3643075 0.9423545
v -0.09277831 -0.3879075 0.9806615
v -0 -0.38790748 0.9806615
v -0.1798248 -0.42217132 1.5921708
v -0 -0.42217132 1.5921708
v -0 -0.43869352 1.5509939
v -0.09277831 -0.43869352 1.5509939
v -0.1798248 -0.06245649 1.1875563
v -0.1798248 -0.043168515 0.97095084
v -0.13637394 0.058648616 1.0510298
v -0.13637397 0.0435431 1.2206659
v -0.1798248 -0.08174442 1.4041617
v -0.13637394 0.028437614 1.3903022
v -0.1798248 -0.101032406 1.6207671
v -0.13637394 0.013332069 1.5599384
v -0.0900913 -0.37921897 -1.0400338
v -0 -0.40545776 -1.0374992
v -0 -0.22628802 -1.0548072
v -0.0900913 -0.25252682 -1.0522728
v -0.11645225 -0.31587288 -1.0461533
vt 0.80593276 0.7857145
vt 0.8034856 0.6736593
vt 0.7970264 0.7857145
vt 0.8201878 0.21279329
vt 0.82956576 0.3027591
vt 0.8293408 0.21280724
vt 0.4369154 0.7098495
vt 0.43691543 0.48837483
vt 0.4369154 0.48837483
vt 0.43691543 0.7327408
vt 0.43691543 0.7327408
vt 0.43691543 0.7327408
vt 0.84950435 0.4514904
vt 0.83217156 0.4743209
vt 0.85296535 0.49201727
vt 0.32796532 0.59161824
vt 0.30575314 0.6118323
vt 0.31277823 0.6368808
vt 0.80593276 0.7857145
vt 0.7970264 0.7857145
vt 0.8034856 0.6736593
vt 0.8201878 0.21279329
vt 0.8293408 0.21280724
vt 0.82956576 0.3027591
vt 0.84950435 0.4514904
vt 0.85296535 0.49201727
vt 0.83217156 0.4743209
vt 0.32796532 0.59161824
vt 0.31277823 0.6368808
vt 0.30575314 0.6118323
vt 0.7272417 0.27110112
vt 0.77394146 0.014019966
vt 0.73441267 0.0114456415
vt 0.7667705 0.27367544
vt 0.7254814 0.3161831
vt 0.7650321 0.31742406
vt 0.7203234 0.42224836
vt 0.7569494 0.4231615
vt 0.5108148 0.28589785
vt 0.57658035 0.022620082
vt 0.53932476 0.01879096
vt 0.5480703 0.28972685
vt 0.5038104 0.3312354
vt 0.5412699 0.33177567
vt 0.4803791 0.44172072
vt 0.5118013 0.44217396
vt 0.46666935 0.5730418
vt 0.49809152 0.5734949
vt 0.5480703 0.28972685
vt 0.61311585 0.026684165
vt 0.57658035 0.022620082
vt 0.5846058 0.29379094
vt 0.5412699 0.33177567
vt 0.57800937 0.332551
vt 0.6474282 0.28935003
vt 0.68701625 0.29146755
vt 0.6939804 0.028071046
vt 0.65439236 0.02595365
vt 0.30575314 0.6118323
vt 0.32796532 0.59161824
vt 0.32796532 0.48837483
vt 0.2645216 0.48852724
vt 0.2645216 0.6119314
vt 0.13655853 0.28131375
vt 0.045930624 0.24671121
vt 0.011445522 0.46548355
vt 0.11623669 0.42161864
vt 0.22032118 0.31956255
vt 0.2087022 0.4103244
vt 0.30840135 0.22361255
vt 0.13655853 0.28131375
vt 0.26403642 0.13937813
vt 0.40045714 0.20198129
vt 0.4060154 0.11746186
vt 0.22699928 0.05655174
vt 0.44377804 0.0114456415
vt 0.8455839 0.41535532
vt 0.85039735 0.33191514
vt 0.84642476 0.32979703
vt 0.8222647 0.3961916
vt 0.2645216 0.6119314
vt 0.264842 0.67255604
vt 0.29560024 0.6698576
vt 0.31277823 0.6368808
vt 0.30575314 0.6118323
vt 0.36623004 0.75420654
vt 0.37160933 0.7741598
vt 0.40323174 0.76643
vt 0.4031669 0.74016416
vt 0.8481367 0.3270327
vt 0.85296535 0.32776868
vt 0.8489927 0.32565045
vt 0.8521093 0.3291508
vt 0.84728074 0.3284148
vt 0.8512534 0.3305329
vt 0.84642476 0.32979703
vt 0.85039735 0.33191514
vt 0.14855993 0.6644381
vt 0.12961483 0.7231787
vt 0.19199443 0.6637376
vt 0.1279335 0.7231786
vt 0.10512555 0.6651386
vt 0.12625217 0.7231787
vt 0.061691046 0.6658391
vt 0.124570966 0.7231787
vt 0.264842 0.67255604
vt 0.2651656 0.7477453
vt 0.26980066 0.7477341
vt 0.29560024 0.6698576
vt 0.03654623 0.64072067
vt 0.061691046 0.6658391
vt 0.10512555 0.6651386
vt 0.09662998 0.64072007
vt 0.14855993 0.6644381
vt 0.15671384 0.64071953
vt 0.19199443 0.6637376
vt 0.21679771 0.64071894
vt 0.8602775 0.51490855
vt 0.79683274 0.51490855
vt 0.79683274 0.62857246
vt 0.81904525 0.65076804
vt 0.8602775 0.65076804
vt 0.79683274 0.0114456415
vt 0.80126965 0.053155184
vt 0.8294193 0.0531981
vt 0.82956576 0.011495531
vt 0.80126965 0.053155184
vt 0.81176853 0.12624103
vt 0.8292907 0.12626785
vt 0.8294193 0.0531981
vt 0.81176853 0.12624103
vt 0.8201878 0.21279329
vt 0.8293408 0.21280724
vt 0.8292907 0.12626785
vt 0.04417917 0.84703326
vt 0.04417917 0.81580275
vt 0.016029082 0.81580275
vt 0.011445649 0.84703326
vt 0.04417917 0.81580275
vt 0.044179156 0.7460699
vt 0.027335666 0.7460699
vt 0.016029082 0.81580275
vt 0.81319255 0.86477417
vt 0.80593276 0.7857145
vt 0.7970264 0.7857145
vt 0.7968328 0.8647741
vt 0.35729778 0.40719754
vt 0.2780931 0.43254462
vt 0.3140576 0.4588153
vt 0.313614 0.3726831
vt 0.2087022 0.4103244
vt 0.40053785 0.35557985
vt 0.22032118 0.31956255
vt 0.3653648 0.3108735
vt 0.44377804 0.3039619
vt 0.30840135 0.22361255
vt 0.4264388 0.27675125
vt 0.40045714 0.20198129
vt 0.08816564 0.6020984
vt 0.011470318 0.48837712
vt 0.0114456415 0.6020991
vt 0.08819032 0.4883764
vt 0.16488564 0.60209763
vt 0.16491032 0.48837566
vt 0.24160552 0.6020969
vt 0.24163032 0.4883749
vt 0.8222647 0.3961916
vt 0.79683274 0.45547915
vt 0.83217156 0.4743209
vt 0.84950435 0.4514904
vt 0.8455839 0.41535532
vt 0.26403642 0.13937813
vt 0.22699928 0.05655174
vt 0.045930624 0.24671121
vt 0.13655853 0.28131375
vt 0.65732485 0.9624824
vt 0.6939804 0.9618034
vt 0.68499935 0.8312007
vt 0.6483335 0.83064085
vt 0.6483335 0.83064085
vt 0.68499935 0.8312007
vt 0.6778852 0.6971849
vt 0.6412193 0.696625
vt 0.6412193 0.696625
vt 0.6778852 0.6971849
vt 0.67267305 0.5639857
vt 0.6360072 0.5634258
vt 0.6360072 0.5634258
vt 0.67267305 0.5639857
vt 0.6760201 0.43446136
vt 0.6393542 0.43390143
vt 0.6393542 0.43390143
vt 0.6760201 0.43446136
vt 0.6854106 0.3281194
vt 0.64580226 0.32735085
vt 0.64580226 0.32735085
vt 0.6854106 0.3281194
vt 0.68701625 0.29146755
vt 0.6474282 0.28935003
vt 0.58238935 0.96968204
vt 0.61311585 0.9673367
vt 0.5775066 0.8381352
vt 0.54668844 0.8374849
vt 0.5494073 0.7060728
vt 0.51858914 0.7054225
vt 0.5289097 0.5741453
vt 0.49809152 0.5734949
vt 0.49809152 0.5734949
vt 0.5289097 0.5741453
vt 0.54261947 0.44282436
vt 0.5118013 0.44217396
vt 0.5118013 0.44217396
vt 0.54261947 0.44282436
vt 0.57800937 0.332551
vt 0.5412699 0.33177567
vt 0.5510588 0.97222435
vt 0.58238935 0.96968204
vt 0.54668844 0.8374849
vt 0.51526624 0.83703166
vt 0.51858914 0.7054225
vt 0.48716697 0.7049694
vt 0.49809152 0.5734949
vt 0.46666935 0.5730418
vt 0.7367323 0.9582435
vt 0.7733506 0.9579247
vt 0.7648909 0.8189845
vt 0.72826487 0.8180714
vt 0.7582795 0.6842891
vt 0.72165346 0.6833761
vt 0.72165346 0.6833761
vt 0.7582795 0.6842891
vt 0.7534977 0.55086505
vt 0.7168717 0.5499519
vt 0.7168717 0.5499519
vt 0.7534977 0.55086505
vt 0.7569494 0.4231615
vt 0.7203234 0.42224836
vt 0.65732485 0.9624824
vt 0.65908366 0.9796826
vt 0.6921774 0.9790288
vt 0.6939804 0.9618034
vt 0.5510588 0.97222435
vt 0.56462765 0.98855436
vt 0.5872232 0.9867207
vt 0.58238935 0.96968204
vt 0.7367323 0.9582435
vt 0.740858 0.97665644
vt 0.77394146 0.9761794
vt 0.7733506 0.9579247
vt 0.58238935 0.96968204
vt 0.5872232 0.9867207
vt 0.6093831 0.9850292
vt 0.61311585 0.9673367
vt 0.37160933 0.7741598
vt 0.3631767 0.7926581
vt 0.37160933 0.81111574
vt 0.40323174 0.76643
vt 0.40323174 0.81869364
vt 0.61311585 0.026684165
vt 0.59753644 0.013674974
vt 0.57749605 0.0114456415
vt 0.57658035 0.022620082
vt 0.6939804 0.028071046
vt 0.68837845 0.0123358965
vt 0.65566283 0.0114456415
vt 0.65439236 0.02595365
vt 0.3508566 0.78793037
vt 0.3631767 0.7926581
vt 0.37160933 0.7741598
vt 0.36623004 0.75420654
vt 0.3508566 0.717273
vt 0.38236287 0.70316267
vt 0.38236287 0.63711417
vt 0.3508566 0.64201975
vt 0.38236287 0.5710658
vt 0.3508566 0.5667665
vt 0.38236287 0.5050174
vt 0.3508566 0.49151325
vt 0.41222298 0.7141347
vt 0.41402408 0.70154345
vt 0.38236287 0.70316267
vt 0.3508566 0.717273
vt 0.3508566 0.49151325
vt 0.38236287 0.5050174
vt 0.41402408 0.5033982
vt 0.41222298 0.48837495
vt 0.16488564 0.60209763
vt 0.21679771 0.64071894
vt 0.24160552 0.6020969
vt 0.15671384 0.64071953
vt 0.08816564 0.6020984
vt 0.09662998 0.64072007
vt 0.0114456415 0.6020991
vt 0.03654623 0.64072067
vt 0.076370984 0.7551377
vt 0.06707047 0.77702916
vt 0.076370984 0.79892063
vt 0.10815649 0.7460699
vt 0.10815648 0.8079884
vt 0.7272417 0.27110112
vt 0.73441267 0.0114456415
vt 0.77394146 0.014019966
vt 0.7667705 0.27367544
vt 0.7254814 0.3161831
vt 0.7650321 0.31742406
vt 0.7203234 0.42224836
vt 0.7569494 0.4231615
vt 0.5108148 0.28589785
vt 0.53932476 0.01879096
vt 0.57658035 0.022620082
vt 0.5480703 0.28972685
vt 0.5038104 0.3312354
vt 0.5412699 0.33177567
vt 0.4803791 0.44172072
vt 0.5118013 0.44217396
vt 0.46666935 0.5730418
vt 0.49809152 0.5734949
vt 0.5480703 0.28972685
vt 0.57658035 0.022620082
vt 0.61311585 0.026684165
vt 0.5846058 0.29379094
vt 0.5412699 0.33177567
vt 0.57800937 0.332551
vt 0.6474282 0.28935003
vt 0.65439236 0.02595365
vt 0.6939804 0.028071046
vt 0.68701625 0.29146755
vt 0.30575314 0.6118323
vt 0.2645216 0.6119314
vt 0.2645216 0.48852724
vt 0.32796532 0.48837483
vt 0.32796532 0.59161824
vt 0.13655853 0.28131375
vt 0.011445522 0.46548355
vt 0.045930624 0.24671121
vt 0.11623669 0.42161864
vt 0.22032118 0.31956255
vt 0.2087022 0.4103244
vt 0.30840135 0.22361255
vt 0.13655853 0.28131375
vt 0.26403642 0.13937813
vt 0.40045714 0.20198129
vt 0.4060154 0.11746186
vt 0.22699928 0.05655174
vt 0.44377804 0.0114456415
vt 0.8455839 0.41535532
vt 0.8222647 0.3961916
vt 0.84642476 0.32979703
vt 0.85039735 0.33191514
vt 0.29560024 0.6698576
vt 0.264842 0.67255604
vt 0.2645216 0.6119314
vt 0.31277823 0.6368808
vt 0.30575314 0.6118323
vt 0.36623004 0.75420654
vt 0.4031669 0.74016416
vt 0.40323174 0.76643
vt 0.37160933 0.7741598
vt 0.8481367 0.3270327
vt 0.8489927 0.32565045
vt 0.85296535 0.32776868
vt 0.8521093 0.3291508
vt 0.84728074 0.3284148
vt 0.8512534 0.3305329
vt 0.84642476 0.32979703
vt 0.85039735 0.33191514
vt 0.14855993 0.6644381
vt 0.19199443 0.6637376
vt 0.12961483 0.7231787
vt 0.1279335 0.7231786
vt 0.10512555 0.6651386
vt 0.12625217 0.7231787
vt 0.061691046 0.6658391
vt 0.124570966 0.7231787
vt 0.264842 0.67255604
vt 0.29560024 0.6698576
vt 0.26980066 0.7477341
vt 0.2651656 0.7477453
vt 0.03654623 0.64072067
vt 0.10512555 0.6651386
vt 0.061691046 0.6658391
vt 0.09662998 0.64072007
vt 0.14855993 0.6644381
vt 0.15671384 0.64071953
vt 0.19199443 0.6637376
vt 0.21679771 0.64071894
vt 0.79683274 0.51490855
vt 0.8602775 0.51490855
vt 0.8602775 0.65076804
vt 0.81904525 0.65076804
vt 0.79683274 0.62857246
vt 0.79683274 0.0114456415
vt 0.82956576 0.011495531
vt 0.8294193 0.0531981
vt 0.80126965 0.053155184
vt 0.80126965 0.053155184
vt 0.8294193 0.0531981
vt 0.8292907 0.12626785
vt 0.81176853 0.12624103
vt 0.81176853 0.12624103
vt 0.8292907 0.12626785
vt 0.8293408 0.21280724
vt 0.8201878 0.21279329
vt 0.04417917 0.84703326
vt 0.011445649 0.84703326
vt 0.016029082 0.81580275
vt 0.04417917 0.81580275
vt 0.04417917 0.81580275
vt 0.016029082 0.81580275
vt 0.027335666 0.7460699
vt 0.044179156 0.7460699
vt 0.81319255 0.86477417
vt 0.7968328 0.8647741
vt 0.7970264 0.7857145
vt 0.80593276 0.7857145
vt 0.35729778 0.40719754
vt 0.3140576 0.4588153
vt 0.2780931 0.43254462
vt 0.313614 0.3726831
vt 0.2087022 0.4103244
vt 0.40053785 0.35557985
vt 0.22032118 0.31956255
vt 0.3653648 0.3108735
vt 0.44377804 0.3039619
vt 0.30840135 0.22361255
vt 0.4264388 0.27675125
vt 0.40045714 0.20198129
vt 0.08816564 0.6020984
vt 0.0114456415 0.6020991
vt 0.011470318 0.48837712
vt 0.08819032 0.4883764
vt 0.16488564 0.60209763
vt 0.16491032 0.48837566
vt 0.24160552 0.6020969
vt 0.24163032 0.4883749
vt 0.84950435 0.4514904
vt 0.83217156 0.4743209
vt 0.79683274 0.45547915
vt 0.8222647 0.3961916
vt 0.8455839 0.41535532
vt 0.26403642 0.13937813
vt 0.13655853 0.28131375
vt 0.045930624 0.24671121
vt 0.22699928 0.05655174
vt 0.65732485 0.9624824
vt 0.6483335 0.83064085
vt 0.68499935 0.8312007
vt 0.6939804 0.9618034
vt 0.6483335 0.83064085
vt 0.6412193 0.696625
vt 0.6778852 0.6971849
vt 0.68499935 0.8312007
vt 0.6412193 0.696625
vt 0.6360072 0.5634258
vt 0.67267305 0.5639857
vt 0.6778852 0.6971849
vt 0.6360072 0.5634258
vt 0.6393542 0.43390143
vt 0.6760201 0.43446136
vt 0.67267305 0.5639857
vt 0.6393542 0.43390143
vt 0.64580226 0.32735085
vt 0.6854106 0.3281194
vt 0.6760201 0.43446136
vt 0.64580226 0.32735085
vt 0.6474282 0.28935003
vt 0.68701625 0.29146755
vt 0.6854106 0.3281194
vt 0.58238935 0.96968204
vt 0.5775066 0.8381352
vt 0.61311585 0.9673367
vt 0.54668844 0.8374849
vt 0.5494073 0.7060728
vt 0.51858914 0.7054225
vt 0.5289097 0.5741453
vt 0.49809152 0.5734949
vt 0.49809152 0.5734949
vt 0.5118013 0.44217396
vt 0.54261947 0.44282436
vt 0.5289097 0.5741453
vt 0.5118013 0.44217396
vt 0.5412699 0.33177567
vt 0.57800937 0.332551
vt 0.54261947 0.44282436
vt 0.5510588 0.97222435
vt 0.54668844 0.8374849
vt 0.58238935 0.96968204
vt 0.51526624 0.83703166
vt 0.51858914 0.7054225
vt 0.48716697 0.7049694
vt 0.49809152 0.5734949
vt 0.46666935 0.5730418
vt 0.7367323 0.9582435
vt 0.7648909 0.8189845
vt 0.7733506 0.9579247
vt 0.72826487 0.8180714
vt 0.7582795 0.6842891
vt 0.72165346 0.6833761
vt 0.72165346 0.6833761
vt 0.7168717 0.5499519
vt 0.7534977 0.55086505
vt 0.7582795 0.6842891
vt 0.7168717 0.5499519
vt 0.7203234 0.42224836
vt 0.7569494 0.4231615
vt 0.7534977 0.55086505
vt 0.65732485 0.9624824
vt 0.6939804 0.9618034
vt 0.6921774 0.9790288
vt 0.65908366 0.9796826
vt 0.5510588 0.97222435
vt 0.58238935 0.96968204
vt 0.5872232 0.9867207
vt 0.56462765 0.98855436
vt 0.7367323 0.9582435
vt 0.7733506 0.9579247
vt 0.77394146 0.9761794
vt 0.740858 0.97665644
vt 0.58238935 0.96968204
vt 0.61311585 0.9673367
vt 0.6093831 0.9850292
vt 0.5872232 0.9867207
vt 0.37160933 0.7741598
vt 0.40323174 0.76643
vt 0.40323174 0.81869364
vt 0.37160933 0.81111574
vt 0.3631767 0.7926581
vt 0.61311585 0.026684165
vt 0.57658035 0.022620082
vt 0.57749605 0.0114456415
vt 0.59753644 0.013674974
vt 0.6939804 0.028071046
vt 0.65439236 0.02595365
vt 0.65566283 0.0114456415
vt 0.68837845 0.0123358965
vt 0.3508566 0.78793037
vt 0.36623004 0.75420654
vt 0.37160933 0.7741598
vt 0.3631767 0.7926581
vt 0.3508566 0.717273
vt 0.38236287 0.63711417
vt 0.38236287 0.70316267
vt 0.3508566 0.64201975
vt 0.38236287 0.5710658
vt 0.3508566 0.5667665
vt 0.38236287 0.5050174
vt 0.3508566 0.49151325
vt 0.41222298 0.7141347
vt 0.3508566 0.717273
vt 0.38236287 0.70316267
vt 0.41402408 0.70154345
vt 0.3508566 0.49151325
vt 0.41222298 0.48837495
vt 0.41402408 0.5033982
vt 0.38236287 0.5050174
vt 0.16488564 0.60209763
vt 0.24160552 0.6020969
vt 0.21679771 0.64071894
vt 0.15671384 0.64071953
vt 0.08816564 0.6020984
vt 0.09662998 0.64072007
vt 0.0114456415 0.6020991
vt 0.03654623 0.64072067
vt 0.076370984 0.7551377
vt 0.10815649 0.7460699
vt 0.10815648 0.8079884
vt 0.076370984 0.79892063
vt 0.06707047 0.77702916
vn -0 0.9641943 -0.2651969
vn -0 0.9641943 -0.2651969
vn -0 0.9641943 -0.2651969
vn -0 0.8434432 0.5372183
vn -0 0.8434432 0.5372183
vn -0 0.8434432 0.5372183
vn -1 0 0
vn -1 0 0
vn -1 0 0
vn -0 0 1
vn -0 0 1
vn -0 0 1
vn 0.59274226 0.63876647 -0.4905447
vn 0.59274226 0.63876647 -0.4905447
vn 0.59274226 0.63876647 -0.4905447
vn 0.5927411 0.5420413 0.5956923
vn 0.5927411 0.5420413 0.5956923
vn 0.5927411 0.5420413 0.5956923
vn -0 0.9641943 -0.2651969
vn -0 0.9641943 -0.2651969
vn -0 0.9641943 -0.2651969
vn -0 0.8434432 0.5372183
vn -0 0.8434432 0.5372183
vn -0 0.8434432 0.5372183
vn -0.59274226 0.63876647 -0.4905447
vn -0.59274226 0.63876647 -0.4905447
vn -0.59274226 0.63876647 -0.4905447
vn -0.5927411 0.5420413 0.5956923
vn -0.5927411 0.5420413 0.5956923
vn -0.5927411 0.5420413 0.5956923
vn 0.3842551 0.9195883 0.08188606
vn 0.3842551 0.9195883 0.08188606
vn 0.3842551 0.9195883 0.08188606
vn 0.3842551 0.9195883 0.08188606
vn 0.3628573 0.9174357 0.16323692
vn 0.3628573 0.9174357 0.16323692
vn 0.3628573 0.9174357 0.16323692
vn 0.3628573 0.9174357 0.16323692
vn 0.92387944 0.38117534 0.033942305
vn 0.92387944 0.38117534 0.033942305
vn 0.92387944 0.38117534 0.033942305
vn 0.92387944 0.38117534 0.033942305
vn 0.9225348 0.38212654 0.053933572
vn 0.9225348 0.38212654 0.053933572
vn 0.92337126 0.38247284 0.033166688
vn 0.92337126 0.38247284 0.033166688
vn 0.92337126 0.38247284 0.033166688
vn 0.92337126 0.38247284 0.033166688
vn 0.9238795 -0.38117525 -0.03394232
vn 0.9238795 -0.38117525 -0.03394232
vn 0.9238795 -0.38117525 -0.03394232
vn 0.9238795 -0.38117525 -0.03394232
vn 0.9230317 -0.38058695 -0.05626703
vn 0.9230317 -0.38058695 -0.05626703
vn 0.38425487 -0.91958845 -0.08188604
vn 0.38425487 -0.91958845 -0.08188604
vn 0.38425487 -0.91958845 -0.08188604
vn 0.38425487 -0.91958845 -0.08188604
vn -0 -0.088695556 0.9960588
vn -0 -0.088695556 0.9960588
vn -0 -0.088695556 0.9960588
vn -0 -0.088695556 0.9960588
vn -0 -0.088695556 0.9960588
vn 0.9953375 -0.086100936 0.043472115
vn 0.9953375 -0.086100936 0.043472115
vn 0.9953375 -0.086100936 0.043472115
vn 0.9953375 -0.086100936 0.043472115
vn 0.9971852 -0.07124754 0.023355914
vn 0.9971852 -0.07124754 0.023355914
vn 0.9971795 -0.06119655 -0.043453142
vn 0.99834764 -0.056607716 -0.0098746205
vn 0.9971795 -0.06119655 -0.043453142
vn 0.9971795 -0.06119655 -0.043453142
vn 0.9971795 -0.06119655 -0.043453142
vn 0.9952727 -0.06966653 -0.06766742
vn 0.9952727 -0.06966653 -0.06766742
vn -0.116353326 0.7547771 -0.64558
vn -0.116353326 0.7547771 -0.64558
vn -0.116353326 0.7547771 -0.64558
vn -0.116353326 0.7547771 -0.64558
vn -0.005019565 0.7339028 0.679236
vn -0.005019565 0.7339028 0.679236
vn -0.005019565 0.7339028 0.679236
vn -0.005019565 0.7339028 0.679236
vn -0.005019565 0.7339028 0.679236
vn 0.16183351 0.38708177 0.9077322
vn 0.16183351 0.38708177 0.9077322
vn 0.16183351 0.38708177 0.9077322
vn 0.16183351 0.38708177 0.9077322
vn -0 0.9960582 0.08870187
vn -0 0.9960582 0.08870187
vn -0 0.9960582 0.08870187
vn -0 0.9960582 0.08870187
vn -0 0.99605596 0.0887277
vn -0 0.99605596 0.0887277
vn -0 0.99605596 0.0887277
vn -0 0.99605596 0.0887277
vn 0.91121125 0.41083336 0.030165602
vn 0.91121125 0.41083336 0.030165602
vn 0.91121125 0.41083336 0.030165602
vn 0.91121125 0.41083336 0.030165602
vn 0.910931 0.41145104 0.030210776
vn 0.910931 0.41145104 0.030210776
vn 0.910931 0.41145104 0.030210776
vn 0.910931 0.41145104 0.030210776
vn -0.1179827 0.6415167 0.7579818
vn -0.1179827 0.6415167 0.7579818
vn -0.1179827 0.6415167 0.7579818
vn -0.1179827 0.6415167 0.7579818
vn 0.8165152 0.5753818 0.04731536
vn 0.8165152 0.5753818 0.04731536
vn 0.8165152 0.5753818 0.04731536
vn 0.8165152 0.5753818 0.04731536
vn 0.7971918 0.6016952 0.049478933
vn 0.7971918 0.6016952 0.049478933
vn 0.7971918 0.6016952 0.049478933
vn 0.7971918 0.6016952 0.049478933
vn -0 0.08869556 -0.9960588
vn -0 0.08869556 -0.9960588
vn -0 0.08869556 -0.9960588
vn -0 0.08869556 -0.9960588
vn -0 0.08869556 -0.9960588
vn -0 -0.021290578 0.9997733
vn -0 -0.021290578 0.9997733
vn -0 -0.021290578 0.9997733
vn -0 -0.021290578 0.9997733
vn -0 0.2944154 0.95567757
vn -0 0.2944154 0.95567757
vn -0 0.2944154 0.95567757
vn -0 0.2944154 0.95567757
vn -0 0.666267 0.74571323
vn -0 0.666267 0.74571323
vn -0 0.666267 0.74571323
vn -0 0.666267 0.74571323
vn -0 0.38238087 -0.9240048
vn -0 0.38238087 -0.9240048
vn -0 0.38238087 -0.9240048
vn -0 0.38238087 -0.9240048
vn -0 0.584879 -0.81112057
vn -0 0.584879 -0.81112057
vn -0 0.584879 -0.81112057
vn -0 0.584879 -0.81112057
vn -0 0.8550307 -0.51857734
vn -0 0.8550307 -0.51857734
vn -0 0.8550307 -0.51857734
vn -0 0.8550307 -0.51857734
vn 0.9940764 -0.10782526 -0.013635154
vn 0.9940764 -0.10782526 -0.013635154
vn 0.9940764 -0.10782526 -0.013635154
vn 0.9940764 -0.10782526 -0.013635154
vn 0.9921334 -0.12495925 0.007512182
vn 0.99147147 -0.12902641 -0.018346036
vn 0.9921334 -0.12495925 0.007512182
vn 0.99211735 -0.11689197 -0.04516016
vn 0.99147147 -0.12902641 -0.018346036
vn 0.99211735 -0.11689197 -0.04516016
vn 0.99211735 -0.11689197 -0.04516016
vn 0.99211735 -0.11689197 -0.04516016
vn 1 0 0
vn 1 0 0
vn 1 0 0
vn 1 0 0
vn 1 0 0
vn 1 0 0
vn 1 0 0
vn 1 0 0
vn -0.010637571 0.85460913 -0.519163
vn -0.010637571 0.85460913 -0.519163
vn -0.010637571 0.85460913 -0.519163
vn -0.010637571 0.85460913 -0.519163
vn -0.010637571 0.85460913 -0.519163
vn 0.994419 -0.10427962 -0.016019644
vn 0.994419 -0.10427962 -0.016019644
vn 0.994419 -0.10427962 -0.016019644
vn 0.994419 -0.10427962 -0.016019644
vn 0.34063345 -0.9015658 0.2667357
vn 0.34063345 -0.9015658 0.2667357
vn 0.34063345 -0.9015658 0.2667357
vn 0.34063345 -0.9015658 0.2667357
vn 0.3418615 -0.9155892 0.21172434
vn 0.3418615 -0.9155892 0.21172434
vn 0.3418615 -0.9155892 0.21172434
vn 0.3418615 -0.9155892 0.21172434
vn 0.34526387 -0.9247017 0.16037376
vn 0.34526387 -0.9247017 0.16037376
vn 0.34526387 -0.9247017 0.16037376
vn 0.34526387 -0.9247017 0.16037376
vn 0.34864277 -0.9337514 -0.080971576
vn 0.34864277 -0.9337514 -0.080971576
vn 0.34864277 -0.9337514 -0.080971576
vn 0.34864277 -0.9337514 -0.080971576
vn 0.3528046 -0.89201945 -0.28254244
vn 0.3528046 -0.89201945 -0.28254244
vn 0.3528046 -0.89201945 -0.28254244
vn 0.3528046 -0.89201945 -0.28254244
vn 0.38200372 -0.9133731 -0.14079273
vn 0.38200372 -0.9133731 -0.14079273
vn 0.38200372 -0.9133731 -0.14079273
vn 0.38200372 -0.9133731 -0.14079273
vn 0.9198351 -0.37659672 0.10990113
vn 0.9198351 -0.37659672 0.10990113
vn 0.9198351 -0.37659672 0.10990113
vn 0.9198351 -0.37659672 0.10990113
vn 0.9202832 -0.38119367 0.0881487
vn 0.9202832 -0.38119367 0.0881487
vn 0.9218514 -0.38184336 0.066224195
vn 0.9218514 -0.38184336 0.066224195
vn 0.92337126 -0.38247287 -0.033166688
vn 0.92337126 -0.38247287 -0.033166688
vn 0.92337126 -0.38247287 -0.033166688
vn 0.92337126 -0.38247287 -0.033166688
vn 0.9155387 -0.37922868 -0.13406917
vn 0.9155387 -0.37922868 -0.13406917
vn 0.9155387 -0.37922868 -0.13406917
vn 0.9155387 -0.37922868 -0.13406917
vn 0.9200051 0.37676477 -0.107884675
vn 0.9200051 0.37676477 -0.107884675
vn 0.9200051 0.37676477 -0.107884675
vn 0.9200051 0.37676477 -0.107884675
vn 0.92028314 0.3811937 -0.088148706
vn 0.92028314 0.3811937 -0.088148706
vn 0.9218514 0.38184336 -0.06622421
vn 0.9218514 0.38184336 -0.06622421
vn 0.34150916 0.9044523 -0.25561184
vn 0.34150916 0.9044523 -0.25561184
vn 0.34150916 0.9044523 -0.25561184
vn 0.34150916 0.9044523 -0.25561184
vn 0.34186137 0.9155892 -0.21172442
vn 0.34186137 0.9155892 -0.21172442
vn 0.34526387 0.9247017 -0.16037376
vn 0.34526387 0.9247017 -0.16037376
vn 0.34526387 0.9247017 -0.16037376
vn 0.34526387 0.9247017 -0.16037376
vn 0.3486431 0.9337514 0.08097162
vn 0.3486431 0.9337514 0.08097162
vn 0.3486431 0.9337514 0.08097162
vn 0.3486431 0.9337514 0.08097162
vn 0.2946833 -0.912144 -0.2848771
vn 0.2946833 -0.912144 -0.2848771
vn 0.2946833 -0.912144 -0.2848771
vn 0.2946833 -0.912144 -0.2848771
vn 0.85221034 0.31422934 -0.418327
vn 0.85221034 0.31422934 -0.418327
vn 0.85221034 0.31422934 -0.418327
vn 0.85221034 0.31422934 -0.418327
vn 0.24814495 0.6780895 -0.69182277
vn 0.24814495 0.6780895 -0.69182277
vn 0.24814495 0.6780895 -0.69182277
vn 0.24814495 0.6780895 -0.69182277
vn 0.89453083 -0.39285362 -0.2132616
vn 0.89453083 -0.39285362 -0.2132616
vn 0.89453083 -0.39285362 -0.2132616
vn 0.89453083 -0.39285362 -0.2132616
vn -0 -0.0886959 0.9960588
vn -0 -0.0886959 0.9960588
vn -0 -0.0886959 0.9960588
vn -0 -0.0886959 0.9960588
vn -0 -0.0886959 0.9960588
vn 0.65357244 -0.33233976 0.6799951
vn 0.65357244 -0.33233976 0.6799951
vn 0.65357244 -0.33233976 0.6799951
vn 0.65357244 -0.33233976 0.6799951
vn 0.16183418 -0.5413796 0.8250562
vn 0.16183418 -0.5413796 0.8250562
vn 0.16183418 -0.5413796 0.8250562
vn 0.16183418 -0.5413796 0.8250562
vn 0.6535714 0.20696093 0.7280189
vn 0.6535714 0.20696093 0.7280189
vn 0.6535714 0.20696093 0.7280189
vn 0.6535714 0.20696093 0.7280189
vn 0.22508979 -0.97049797 -0.08641923
vn 0.22508979 -0.97049797 -0.08641923
vn 0.22508986 -0.97049785 -0.08641949
vn 0.22508986 -0.97049785 -0.08641949
vn 0.22508986 -0.97049785 -0.08641949
vn 0.22508986 -0.97049785 -0.08641949
vn 0.22508939 -0.97049797 -0.08641931
vn 0.22508939 -0.97049797 -0.08641931
vn -0 -0.8513957 -0.524524
vn -0 -0.8513957 -0.524524
vn -0 -0.8513957 -0.524524
vn -0 -0.8513957 -0.524524
vn -0 -0.9280762 0.37239036
vn -0 -0.9280762 0.37239036
vn -0 -0.9280762 0.37239036
vn -0 -0.9280762 0.37239036
vn 0.92834836 0.3702462 0.032969084
vn 0.92834836 0.3702462 0.032969084
vn 0.92834836 0.3702462 0.032969084
vn 0.92834836 0.3702462 0.032969084
vn 0.9283485 0.37024623 0.032969188
vn 0.9283485 0.37024623 0.032969188
vn 0.9283485 0.37024623 0.032969188
vn 0.9283485 0.37024623 0.032969188
vn -0 -0.096154906 -0.99536633
vn -0 -0.096154906 -0.99536633
vn -0 -0.096154906 -0.99536633
vn -0 -0.096154906 -0.99536633
vn -0 -0.096154906 -0.99536633
vn -0.38425514 0.9195883 0.08188607
vn -0.38425514 0.9195883 0.08188607
vn -0.38425514 0.9195883 0.08188607
vn -0.38425514 0.9195883 0.08188607
vn -0.3628573 0.9174357 0.1632369
vn -0.3628573 0.9174357 0.1632369
vn -0.3628573 0.9174357 0.1632369
vn -0.3628573 0.9174357 0.1632369
vn -0.92387944 0.38117534 0.033942305
vn -0.92387944 0.38117534 0.033942305
vn -0.92387944 0.38117534 0.033942305
vn -0.92387944 0.38117534 0.033942305
vn -0.9225348 0.38212654 0.053933576
vn -0.9225348 0.38212654 0.053933576
vn -0.92337126 0.38247284 0.033166688
vn -0.92337126 0.38247284 0.033166688
vn -0.92337126 0.38247284 0.033166688
vn -0.92337126 0.38247284 0.033166688
vn -0.9238795 -0.38117525 -0.03394232
vn -0.9238795 -0.38117525 -0.03394232
vn -0.9238795 -0.38117525 -0.03394232
vn -0.9238795 -0.38117525 -0.03394232
vn -0.9230317 -0.38058695 -0.05626703
vn -0.9230317 -0.38058695 -0.05626703
vn -0.3842549 -0.91958845 -0.081886046
vn -0.3842549 -0.91958845 -0.081886046
vn -0.3842549 -0.91958845 -0.081886046
vn -0.3842549 -0.91958845 -0.081886046
vn -0 -0.088695556 0.9960588
vn -0 -0.088695556 0.9960588
vn -0 -0.088695556 0.9960588
vn -0 -0.088695556 0.9960588
vn -0 -0.088695556 0.9960588
vn -0.9953375 -0.086100936 0.043472115
vn -0.9953375 -0.086100936 0.043472115
vn -0.9953375 -0.086100936 0.043472115
vn -0.9953375 -0.086100936 0.043472115
vn -0.9971852 -0.07124755 0.02335592
vn -0.9971852 -0.07124755 0.02335592
vn -0.9971795 -0.061196554 -0.04345313
vn -0.99834764 -0.056607727 -0.009874625
vn -0.9971795 -0.061196554 -0.04345313
vn -0.9971795 -0.061196554 -0.04345313
vn -0.9971795 -0.061196554 -0.04345313
vn -0.9952727 -0.06966654 -0.067667425
vn -0.9952727 -0.06966654 -0.067667425
vn 0.116353326 0.7547771 -0.64558
vn 0.116353326 0.7547771 -0.64558
vn 0.116353326 0.7547771 -0.64558
vn 0.116353326 0.7547771 -0.64558
vn 0.005019638 0.7339028 0.679236
vn 0.005019638 0.7339028 0.679236
vn 0.005019638 0.7339028 0.679236
vn 0.005019638 0.7339028 0.679236
vn 0.005019638 0.7339028 0.679236
vn -0.16183405 0.3870817 0.90773207
vn -0.16183405 0.3870817 0.90773207
vn -0.16183405 0.3870817 0.90773207
vn -0.16183405 0.3870817 0.90773207
vn -0 0.9960582 0.08870187
vn -0 0.9960582 0.08870187
vn -0 0.9960582 0.08870187
vn -0 0.9960582 0.08870187
vn -0 0.99605596 0.0887277
vn -0 0.99605596 0.0887277
vn -0 0.99605596 0.0887277
vn -0 0.99605596 0.0887277
vn -0.91121125 0.41083342 0.030165609
vn -0.91121125 0.41083342 0.030165609
vn -0.91121125 0.41083342 0.030165609
vn -0.91121125 0.41083342 0.030165609
vn -0.9109311 0.41145098 0.030210776
vn -0.9109311 0.41145098 0.030210776
vn -0.9109311 0.41145098 0.030210776
vn -0.9109311 0.41145098 0.030210776
vn 0.1179827 0.6415167 0.7579818
vn 0.1179827 0.6415167 0.7579818
vn 0.1179827 0.6415167 0.7579818
vn 0.1179827 0.6415167 0.7579818
vn -0.8165152 0.5753817 0.04731535
vn -0.8165152 0.5753817 0.04731535
vn -0.8165152 0.5753817 0.04731535
vn -0.8165152 0.5753817 0.04731535
vn -0.79719174 0.60169524 0.049478948
vn -0.79719174 0.60169524 0.049478948
vn -0.79719174 0.60169524 0.049478948
vn -0.79719174 0.60169524 0.049478948
vn -0 0.08869556 -0.9960588
vn -0 0.08869556 -0.9960588
vn -0 0.08869556 -0.9960588
vn -0 0.08869556 -0.9960588
vn -0 0.08869556 -0.9960588
vn -0 -0.021290578 0.9997733
vn -0 -0.021290578 0.9997733
vn -0 -0.021290578 0.9997733
vn -0 -0.021290578 0.9997733
vn -0 0.2944154 0.95567757
vn -0 0.2944154 0.95567757
vn -0 0.2944154 0.95567757
vn -0 0.2944154 0.95567757
vn -0 0.666267 0.74571323
vn -0 0.666267 0.74571323
vn -0 0.666267 0.74571323
vn -0 0.666267 0.74571323
vn -0 0.3823808 -0.9240049
vn -0 0.3823808 -0.9240049
vn -0 0.3823808 -0.9240049
vn -0 0.3823808 -0.9240049
vn -0 0.584879 -0.81112057
vn -0 0.584879 -0.81112057
vn -0 0.584879 -0.81112057
vn -0 0.584879 -0.81112057
vn -0 0.8550307 -0.51857734
vn -0 0.8550307 -0.51857734
vn -0 0.8550307 -0.51857734
vn -0 0.8550307 -0.51857734
vn -0.9940764 -0.107825264 -0.013635155
vn -0.9940764 -0.107825264 -0.013635155
vn -0.9940764 -0.107825264 -0.013635155
vn -0.9940764 -0.107825264 -0.013635155
vn -0.9921334 -0.12495928 0.0075121755
vn -0.99147147 -0.12902634 -0.018346041
vn -0.9921334 -0.12495928 0.0075121755
vn -0.99211735 -0.116891995 -0.045160152
vn -0.99147147 -0.12902634 -0.018346041
vn -0.99211735 -0.116891995 -0.045160152
vn -0.99211735 -0.116891995 -0.045160152
vn -0.99211735 -0.116891995 -0.045160152
vn -1 0 0
vn -1 0 0
vn -1 0 0
vn -1 0 0
vn -1 0 0
vn -1 0 0
vn -1 0 0
vn -1 0 0
vn 0.01063745 0.854609 -0.51916295
vn 0.01063745 0.854609 -0.51916295
vn 0.01063745 0.854609 -0.51916295
vn 0.01063745 0.854609 -0.51916295
vn 0.01063745 0.854609 -0.51916295
vn -0.994419 -0.10427962 -0.016019644
vn -0.994419 -0.10427962 -0.016019644
vn -0.994419 -0.10427962 -0.016019644
vn -0.994419 -0.10427962 -0.016019644
vn -0.34063354 -0.9015658 0.2667357
vn -0.34063354 -0.9015658 0.2667357
vn -0.34063354 -0.9015658 0.2667357
vn -0.34063354 -0.9015658 0.2667357
vn -0.34186146 -0.9155892 0.21172434
vn -0.34186146 -0.9155892 0.21172434
vn -0.34186146 -0.9155892 0.21172434
vn -0.34186146 -0.9155892 0.21172434
vn -0.34526387 -0.9247017 0.16037376
vn -0.34526387 -0.9247017 0.16037376
vn -0.34526387 -0.9247017 0.16037376
vn -0.34526387 -0.9247017 0.16037376
vn -0.34864277 -0.9337514 -0.080971576
vn -0.34864277 -0.9337514 -0.080971576
vn -0.34864277 -0.9337514 -0.080971576
vn -0.34864277 -0.9337514 -0.080971576
vn -0.3528047 -0.89201933 -0.2825424
vn -0.3528047 -0.89201933 -0.2825424
vn -0.3528047 -0.89201933 -0.2825424
vn -0.3528047 -0.89201933 -0.2825424
vn -0.3820038 -0.9133731 -0.14079273
vn -0.3820038 -0.9133731 -0.14079273
vn -0.3820038 -0.9133731 -0.14079273
vn -0.3820038 -0.9133731 -0.14079273
vn -0.9198351 -0.37659672 0.10990113
vn -0.9198351 -0.37659672 0.10990113
vn -0.9198351 -0.37659672 0.10990113
vn -0.9198351 -0.37659672 0.10990113
vn -0.92028314 -0.3811937 0.08814871
vn -0.92028314 -0.3811937 0.08814871
vn -0.9218514 -0.38184336 0.066224195
vn -0.9218514 -0.38184336 0.066224195
vn -0.92337126 -0.38247287 -0.033166688
vn -0.92337126 -0.38247287 -0.033166688
vn -0.92337126 -0.38247287 -0.033166688
vn -0.92337126 -0.38247287 -0.033166688
vn -0.9155387 -0.37922868 -0.13406917
vn -0.9155387 -0.37922868 -0.13406917
vn -0.9155387 -0.37922868 -0.13406917
vn -0.9155387 -0.37922868 -0.13406917
vn -0.9200051 0.3767647 -0.10788466
vn -0.9200051 0.3767647 -0.10788466
vn -0.9200051 0.3767647 -0.10788466
vn -0.9200051 0.3767647 -0.10788466
vn -0.92028314 0.38119376 -0.08814871
vn -0.92028314 0.38119376 -0.08814871
vn -0.9218514 0.3818433 -0.0662242
vn -0.9218514 0.3818433 -0.0662242
vn -0.34150925 0.9044523 -0.25561184
vn -0.34150925 0.9044523 -0.25561184
vn -0.34150925 0.9044523 -0.25561184
vn -0.34150925 0.9044523 -0.25561184
vn -0.34186134 0.9155892 -0.21172442
vn -0.34186134 0.9155892 -0.21172442
vn -0.34526387 0.9247017 -0.16037376
vn -0.34526387 0.9247017 -0.16037376
vn -0.34526387 0.9247017 -0.16037376
vn -0.34526387 0.9247017 -0.16037376
vn -0.3486431 0.9337514 0.08097162
vn -0.3486431 0.9337514 0.08097162
vn -0.3486431 0.9337514 0.08097162
vn -0.3486431 0.9337514 0.08097162
vn -0.2946833 -0.912144 -0.2848771
vn -0.2946833 -0.912144 -0.2848771
vn -0.2946833 -0.912144 -0.2848771
vn -0.2946833 -0.912144 -0.2848771
vn -0.8522102 0.3142294 -0.41832715
vn -0.8522102 0.3142294 -0.41832715
vn -0.8522102 0.3142294 -0.41832715
vn -0.8522102 0.3142294 -0.41832715
vn -0.24814494 0.67808944 -0.69182277
vn -0.24814494 0.67808944 -0.69182277
vn -0.24814494 0.67808944 -0.69182277
vn -0.24814494 0.67808944 -0.69182277
vn -0.8945311 -0.39285344 -0.21326156
vn -0.8945311 -0.39285344 -0.21326156
vn -0.8945311 -0.39285344 -0.21326156
vn -0.8945311 -0.39285344 -0.21326156
vn -0 -0.0886959 0.9960588
vn -0 -0.0886959 0.9960588
vn -0 -0.0886959 0.9960588
vn -0 -0.0886959 0.9960588
vn -0 -0.0886959 0.9960588
vn -0.6535723 -0.33233982 0.67999524
vn -0.6535723 -0.33233982 0.67999524
vn -0.6535723 -0.33233982 0.67999524
vn -0.6535723 -0.33233982 0.67999524
vn -0.16183417 -0.5413796 0.8250563
vn -0.16183417 -0.5413796 0.8250563
vn -0.16183417 -0.5413796 0.8250563
vn -0.16183417 -0.5413796 0.8250563
vn -0.6535714 0.20696093 0.7280189
vn -0.6535714 0.20696093 0.7280189
vn -0.6535714 0.20696093 0.7280189
vn -0.6535714 0.20696093 0.7280189
vn -0.2250898 -0.97049797 -0.08641923
vn -0.22508985 -0.97049785 -0.08641949
vn -0.2250898 -0.97049797 -0.08641923
vn -0.22508985 -0.97049785 -0.08641949
vn -0.22508985 -0.97049785 -0.08641949
vn -0.22508985 -0.97049785 -0.08641949
vn -0.22508939 -0.97049797 -0.08641931
vn -0.22508939 -0.97049797 -0.08641931
vn -0 -0.8513957 -0.524524
vn -0 -0.8513957 -0.524524
vn -0 -0.8513957 -0.524524
vn -0 -0.8513957 -0.524524
vn -0 -0.9280762 0.37239036
vn -0 -0.9280762 0.37239036
vn -0 -0.9280762 0.37239036
vn -0 -0.9280762 0.37239036
vn -0.9283485 0.37024623 0.032969084
vn -0.9283485 0.37024623 0.032969084
vn -0.9283485 0.37024623 0.032969084
vn -0.9283485 0.37024623 0.032969084
vn -0.9283485 0.37024623 0.032969188
vn -0.9283485 0.37024623 0.032969188
vn -0.9283485 0.37024623 0.032969188
vn -0.9283485 0.37024623 0.032969188
vn -0 -0.09615492 -0.99536633
vn -0 -0.09615492 -0.99536633
vn -0 -0.09615492 -0.99536633
vn -0 -0.09615492 -0.99536633
vn -0 -0.09615492 -0.99536633
g Axe_0
f 3/3/3 2/2/2 1/1/1
f 6/6/6 5/5/5 4/4/4
f 9/9/9 8/8/8 7/7/7
f 12/12/12 11/11/11 10/10/10
f 15/15/15 14/14/14 13/13/13
f 18/18/18 17/17/17 16/16/16
f 21/21/21 20/20/20 19/19/19
f 24/24/24 23/23/23 22/22/22
f 27/27/27 26/26/26 25/25/25
f 30/30/30 29/29/29 28/28/28
f 33/33/33 32/32/32 31/31/31
f 32/32/32 34/34/34 31/31/31
f 31/31/31 34/34/34 35/35/35
f 34/34/34 36/36/36 35/35/35
f 35/35/35 36/36/36 37/37/37
f 36/36/36 38/38/38 37/37/37
f 41/41/41 40/40/40 39/39/39
f 40/40/40 42/42/42 39/39/39
f 39/39/39 42/42/42 43/43/43
f 42/42/42 44/44/44 43/43/43
f 43/43/43 44/44/44 45/45/45
f 44/44/44 46/46/46 45/45/45
f 45/45/45 46/46/46 47/47/47
f 46/46/46 48/48/48 47/47/47
f 51/51/51 50/50/50 49/49/49
f 50/50/50 52/52/52 49/49/49
f 49/49/49 52/52/52 53/53/53
f 52/52/52 54/54/54 53/53/53
f 57/57/57 56/56/56 55/55/55
f 58/58/58 57/57/57 55/55/55
f 61/61/61 60/60/60 59/59/59
f 59/59/59 62/62/62 61/61/61
f 59/59/59 63/63/63 62/62/62
f 66/66/66 65/65/65 64/64/64
f 67/67/67 66/66/66 64/64/64
f 67/67/67 64/64/64 68/68/68
f 69/69/69 67/67/67 68/68/68
f 68/68/68 71/71/71 70/70/70
f 71/71/71 72/72/72 70/70/70
f 70/70/70 72/72/72 73/73/73
f 72/72/72 74/74/74 73/73/73
f 72/72/72 75/75/75 74/74/74
f 75/75/75 76/76/76 74/74/74
f 79/79/79 78/78/78 77/77/77
f 80/80/80 79/79/79 77/77/77
f 83/83/83 82/82/82 81/81/81
f 81/81/81 84/84/84 83/83/83
f 81/81/81 85/85/85 84/84/84
f 88/88/88 87/87/87 86/86/86
f 89/89/89 88/88/88 86/86/86
f 92/92/92 91/91/91 90/90/90
f 91/91/91 93/93/93 90/90/90
f 90/90/90 93/93/93 94/94/94
f 93/93/93 95/95/95 94/94/94
f 94/94/94 95/95/95 96/96/96
f 95/95/95 97/97/97 96/96/96
f 100/100/100 99/99/99 98/98/98
f 99/99/99 101/101/101 98/98/98
f 98/98/98 101/101/101 102/102/102
f 101/101/101 103/103/103 102/102/102
f 102/102/102 103/103/103 104/104/104
f 103/103/103 105/105/105 104/104/104
f 108/108/108 107/107/107 106/106/106
f 109/109/109 108/108/108 106/106/106
f 112/112/112 111/111/111 110/110/110
f 113/113/113 112/112/112 110/110/110
f 114/114/114 112/112/112 113/113/113
f 115/115/115 114/114/114 113/113/113
f 116/116/116 114/114/114 115/115/115
f 117/117/117 116/116/116 115/115/115
f 120/120/120 119/119/119 118/118/118
f 118/118/118 121/121/121 120/120/120
f 118/118/118 122/122/122 121/121/121
f 125/125/125 124/124/124 123/123/123
f 126/126/126 125/125/125 123/123/123
f 129/129/129 128/128/128 127/127/127
f 130/130/130 129/129/129 127/127/127
f 133/133/133 132/132/132 131/131/131
f 134/134/134 133/133/133 131/131/131
f 137/137/137 136/136/136 135/135/135
f 138/138/138 137/137/137 135/135/135
f 141/141/141 140/140/140 139/139/139
f 142/142/142 141/141/141 139/139/139
f 145/145/145 144/144/144 143/143/143
f 146/146/146 145/145/145 143/143/143
f 149/149/149 148/148/148 147/147/147
f 148/148/148 150/150/150 147/147/147
f 148/148/148 151/151/151 150/150/150
f 147/147/147 150/150/150 152/152/152
f 151/151/151 153/153/153 150/150/150
f 150/150/150 154/154/154 152/152/152
f 150/150/150 153/153/153 154/154/154
f 152/152/152 154/154/154 155/155/155
f 153/153/153 156/156/156 154/154/154
f 154/154/154 157/157/157 155/155/155
f 154/154/154 156/156/156 157/157/157
f 156/156/156 158/158/158 157/157/157
f 161/161/161 160/160/160 159/159/159
f 160/160/160 162/162/162 159/159/159
f 159/159/159 162/162/162 163/163/163
f 162/162/162 164/164/164 163/163/163
f 163/163/163 164/164/164 165/165/165
f 164/164/164 166/166/166 165/165/165
f 169/169/169 168/168/168 167/167/167
f 167/167/167 170/170/170 169/169/169
f 167/167/167 171/171/171 170/170/170
f 174/174/174 173/173/173 172/172/172
f 175/175/175 174/174/174 172/172/172
f 178/178/178 177/177/177 176/176/176
f 179/179/179 178/178/178 176/176/176
f 182/182/182 181/181/181 180/180/180
f 183/183/183 182/182/182 180/180/180
f 186/186/186 185/185/185 184/184/184
f 187/187/187 186/186/186 184/184/184
f 190/190/190 189/189/189 188/188/188
f 191/191/191 190/190/190 188/188/188
f 194/194/194 193/193/193 192/192/192
f 195/195/195 194/194/194 192/192/192
f 198/198/198 197/197/197 196/196/196
f 199/199/199 198/198/198 196/196/196
f 202/202/202 201/201/201 200/200/200
f 203/203/203 202/202/202 200/200/200
f 204/204/204 202/202/202 203/203/203
f 205/205/205 204/204/204 203/203/203
f 206/206/206 204/204/204 205/205/205
f 207/207/207 206/206/206 205/205/205
f 210/210/210 209/209/209 208/208/208
f 211/211/211 210/210/210 208/208/208
f 214/214/214 213/213/213 212/212/212
f 215/215/215 214/214/214 212/212/212
f 218/218/218 217/217/217 216/216/216
f 219/219/219 218/218/218 216/216/216
f 220/220/220 218/218/218 219/219/219
f 221/221/221 220/220/220 219/219/219
f 222/222/222 220/220/220 221/221/221
f 223/223/223 222/222/222 221/221/221
f 226/226/226 225/225/225 224/224/224
f 227/227/227 226/226/226 224/224/224
f 228/228/228 226/226/226 227/227/227
f 229/229/229 228/228/228 227/227/227
f 232/232/232 231/231/231 230/230/230
f 233/233/233 232/232/232 230/230/230
f 236/236/236 235/235/235 234/234/234
f 237/237/237 236/236/236 234/234/234
f 240/240/240 239/239/239 238/238/238
f 241/241/241 240/240/240 238/238/238
f 244/244/244 243/243/243 242/242/242
f 245/245/245 244/244/244 242/242/242
f 248/248/248 247/247/247 246/246/246
f 249/249/249 248/248/248 246/246/246
f 252/252/252 251/251/251 250/250/250
f 253/253/253 252/252/252 250/250/250
f 256/256/256 255/255/255 254/254/254
f 254/254/254 257/257/257 256/256/256
f 257/257/257 258/258/258 256/256/256
f 261/261/261 260/260/260 259/259/259
f 262/262/262 261/261/261 259/259/259
f 265/265/265 264/264/264 263/263/263
f 266/266/266 265/265/265 263/263/263
f 269/269/269 268/268/268 267/267/267
f 270/270/270 269/269/269 267/267/267
f 273/273/273 272/272/272 271/271/271
f 274/274/274 273/273/273 271/271/271
f 275/275/275 273/273/273 274/274/274
f 276/276/276 275/275/275 274/274/274
f 277/277/277 275/275/275 276/276/276
f 278/278/278 277/277/277 276/276/276
f 281/281/281 280/280/280 279/279/279
f 282/282/282 281/281/281 279/279/279
f 285/285/285 284/284/284 283/283/283
f 286/286/286 285/285/285 283/283/283
f 289/289/289 288/288/288 287/287/287
f 288/288/288 290/290/290 287/287/287
f 287/287/287 290/290/290 291/291/291
f 290/290/290 292/292/292 291/291/291
f 291/291/291 292/292/292 293/293/293
f 292/292/292 294/294/294 293/293/293
f 297/297/297 296/296/296 295/295/295
f 295/295/295 298/298/298 297/297/297
f 298/298/298 299/299/299 297/297/297
f 302/302/302 301/301/301 300/300/300
f 303/303/303 302/302/302 300/300/300
f 303/303/303 300/300/300 304/304/304
f 305/305/305 303/303/303 304/304/304
f 305/305/305 304/304/304 306/306/306
f 307/307/307 305/305/305 306/306/306
f 310/310/310 309/309/309 308/308/308
f 311/311/311 310/310/310 308/308/308
f 311/311/311 308/308/308 312/312/312
f 313/313/313 311/311/311 312/312/312
f 313/313/313 312/312/312 314/314/314
f 315/315/315 313/313/313 314/314/314
f 315/315/315 314/314/314 316/316/316
f 317/317/317 315/315/315 316/316/316
f 320/320/320 319/319/319 318/318/318
f 321/321/321 320/320/320 318/318/318
f 321/321/321 318/318/318 322/322/322
f 323/323/323 321/321/321 322/322/322
f 326/326/326 325/325/325 324/324/324
f 327/327/327 326/326/326 324/324/324
f 330/330/330 329/329/329 328/328/328
f 328/328/328 331/331/331 330/330/330
f 328/328/328 332/332/332 331/331/331
f 335/335/335 334/334/334 333/333/333
f 334/334/334 336/336/336 333/333/333
f 333/333/333 336/336/336 337/337/337
f 336/336/336 338/338/338 337/337/337
f 340/340/340 337/337/337 339/339/339
f 341/341/341 340/340/340 339/339/339
f 341/341/341 339/339/339 342/342/342
f 343/343/343 341/341/341 342/342/342
f 344/344/344 341/341/341 343/343/343
f 345/345/345 344/344/344 343/343/343
f 348/348/348 347/347/347 346/346/346
f 349/349/349 348/348/348 346/346/346
f 352/352/352 351/351/351 350/350/350
f 350/350/350 353/353/353 352/352/352
f 353/353/353 354/354/354 352/352/352
f 357/357/357 356/356/356 355/355/355
f 358/358/358 357/357/357 355/355/355
f 361/361/361 360/360/360 359/359/359
f 362/362/362 361/361/361 359/359/359
f 362/362/362 359/359/359 363/363/363
f 364/364/364 362/362/362 363/363/363
f 364/364/364 363/363/363 365/365/365
f 366/366/366 364/364/364 365/365/365
f 369/369/369 368/368/368 367/367/367
f 370/370/370 369/369/369 367/367/367
f 370/370/370 367/367/367 371/371/371
f 372/372/372 370/370/370 371/371/371
f 372/372/372 371/371/371 373/373/373
f 374/374/374 372/372/372 373/373/373
f 377/377/377 376/376/376 375/375/375
f 378/378/378 377/377/377 375/375/375
f 381/381/381 380/380/380 379/379/379
f 380/380/380 382/382/382 379/379/379
f 380/380/380 383/383/383 382/382/382
f 383/383/383 384/384/384 382/382/382
f 383/383/383 385/385/385 384/384/384
f 385/385/385 386/386/386 384/384/384
f 389/389/389 388/388/388 387/387/387
f 387/387/387 390/390/390 389/389/389
f 387/387/387 391/391/391 390/390/390
f 394/394/394 393/393/393 392/392/392
f 395/395/395 394/394/394 392/392/392
f 398/398/398 397/397/397 396/396/396
f 399/399/399 398/398/398 396/396/396
f 402/402/402 401/401/401 400/400/400
f 403/403/403 402/402/402 400/400/400
f 406/406/406 405/405/405 404/404/404
f 407/407/407 406/406/406 404/404/404
f 410/410/410 409/409/409 408/408/408
f 411/411/411 410/410/410 408/408/408
f 414/414/414 413/413/413 412/412/412
f 415/415/415 414/414/414 412/412/412
f 418/418/418 417/417/417 416/416/416
f 419/419/419 418/418/418 416/416/416
f 420/420/420 418/418/418 419/419/419
f 419/419/419 416/416/416 421/421/421
f 422/422/422 420/420/420 419/419/419
f 423/423/423 419/419/419 421/421/421
f 422/422/422 419/419/419 423/423/423
f 423/423/423 421/421/421 424/424/424
f 425/425/425 422/422/422 423/423/423
f 426/426/426 423/423/423 424/424/424
f 425/425/425 423/423/423 426/426/426
f 427/427/427 425/425/425 426/426/426
f 430/430/430 429/429/429 428/428/428
f 431/431/431 430/430/430 428/428/428
f 431/431/431 428/428/428 432/432/432
f 433/433/433 431/431/431 432/432/432
f 433/433/433 432/432/432 434/434/434
f 435/435/435 433/433/433 434/434/434
f 438/438/438 437/437/437 436/436/436
f 436/436/436 439/439/439 438/438/438
f 436/436/436 440/440/440 439/439/439
f 443/443/443 442/442/442 441/441/441
f 444/444/444 443/443/443 441/441/441
f 447/447/447 446/446/446 445/445/445
f 448/448/448 447/447/447 445/445/445
f 451/451/451 450/450/450 449/449/449
f 452/452/452 451/451/451 449/449/449
f 455/455/455 454/454/454 453/453/453
f 456/456/456 455/455/455 453/453/453
f 459/459/459 458/458/458 457/457/457
f 460/460/460 459/459/459 457/457/457
f 463/463/463 462/462/462 461/461/461
f 464/464/464 463/463/463 461/461/461
f 467/467/467 466/466/466 465/465/465
f 468/468/468 467/467/467 465/465/465
f 471/471/471 470/470/470 469/469/469
f 470/470/470 472/472/472 469/469/469
f 470/470/470 473/473/473 472/472/472
f 473/473/473 474/474/474 472/472/472
f 473/473/473 475/475/475 474/474/474
f 475/475/475 476/476/476 474/474/474
f 479/479/479 478/478/478 477/477/477
f 480/480/480 479/479/479 477/477/477
f 483/483/483 482/482/482 481/481/481
f 484/484/484 483/483/483 481/481/481
f 487/487/487 486/486/486 485/485/485
f 486/486/486 488/488/488 485/485/485
f 486/486/486 489/489/489 488/488/488
f 489/489/489 490/490/490 488/488/488
f 489/489/489 491/491/491 490/490/490
f 491/491/491 492/492/492 490/490/490
f 495/495/495 494/494/494 493/493/493
f 494/494/494 496/496/496 493/493/493
f 494/494/494 497/497/497 496/496/496
f 497/497/497 498/498/498 496/496/496
f 501/501/501 500/500/500 499/499/499
f 502/502/502 501/501/501 499/499/499
f 505/505/505 504/504/504 503/503/503
f 506/506/506 505/505/505 503/503/503
f 509/509/509 508/508/508 507/507/507
f 510/510/510 509/509/509 507/507/507
f 513/513/513 512/512/512 511/511/511
f 514/514/514 513/513/513 511/511/511
f 517/517/517 516/516/516 515/515/515
f 518/518/518 517/517/517 515/515/515
f 521/521/521 520/520/520 519/519/519
f 522/522/522 521/521/521 519/519/519
f 525/525/525 524/524/524 523/523/523
f 523/523/523 526/526/526 525/525/525
f 523/523/523 527/527/527 526/526/526
f 530/530/530 529/529/529 528/528/528
f 531/531/531 530/530/530 528/528/528
f 534/534/534 533/533/533 532/532/532
f 535/535/535 534/534/534 532/532/532
f 538/538/538 537/537/537 536/536/536
f 539/539/539 538/538/538 536/536/536
f 542/542/542 541/541/541 540/540/540
f 541/541/541 543/543/543 540/540/540
f 541/541/541 544/544/544 543/543/543
f 544/544/544 545/545/545 543/543/543
f 544/544/544 546/546/546 545/545/545
f 546/546/546 547/547/547 545/545/545
f 550/550/550 549/549/549 548/548/548
f 551/551/551 550/550/550 548/548/548
f 554/554/554 553/553/553 552/552/552
f 555/555/555 554/554/554 552/552/552
f 558/558/558 557/557/557 556/556/556
f 559/559/559 558/558/558 556/556/556
f 559/559/559 556/556/556 560/560/560
f 561/561/561 559/559/559 560/560/560
f 561/561/561 560/560/560 562/562/562
f 563/563/563 561/561/561 562/562/562
f 566/566/566 565/565/565 564/564/564
f 564/564/564 567/567/567 566/566/566
f 564/564/564 568/568/568 567/567/567
