g BluetoothDagger
v 0.07283601 0 -0.35712838
v 0.05707588 -0.031116538 -0.09630071
v 0.06496774 0 -0.09622463
v 0.06389568 -0.036963537 -0.35714006
v 0.057496686 -0.03322819 -0.619168
v 0.06680731 0 -0.6181629
v 0.06389568 -0.036963537 -0.35714006
v -4.6243303E-09 -0.06506011 -0.099726096
v 0.05707588 -0.031116538 -0.09630071
v -5.3896376E-09 -0.07381689 -0.35713232
v -0.057075877 -0.031116538 -0.0963007
v -0.06389569 -0.036963537 -0.35714006
v -0.057496678 -0.033228185 -0.619168
v -3.7496246E-09 -0.06640547 -0.6191709
v 0.057496686 -0.03322819 -0.619168
v 0.10931926 -0.06311551 -0.046943083
v -5.609334E-09 -0.05853875 0.05928273
v 0.07806573 -0.04507127 0.011989608
v -8.006115E-09 -0.09849873 -0.04694303
v 0.07806573 -0.04507127 -0.105875686
v -0.07806573 -0.045071255 0.011989608
v -6.0593477E-09 -0.06883391 -0.15124935
v -0.10931926 -0.0631155 -0.046943083
v -0.07806573 -0.045071255 -0.105875686
v 0.07806573 0 -0.1058757
v 0.07806573 -0.04507127 -0.105875686
v 0.10931926 -0.06311551 -0.046943083
v 0.10931926 0 -0.04694307
v 0.07806573 -0.04507127 0.011989608
v 0.07806573 0 0.011989608
v -5.609334E-09 -0.05853875 0.05928273
v -3.0505225E-09 0 0.05928273
v -3.050522E-09 0 -0.15124938
v 0.07806573 -0.04507127 -0.105875686
v 0.07806573 0 -0.1058757
v -6.0593477E-09 -0.06883391 -0.15124935
v -0.07806573 0 -0.1058757
v -0.07806573 -0.045071255 -0.105875686
v -0.10931926 0 -0.04694307
v -0.10931926 -0.0631155 -0.046943083
v -0.06389569 -0.036963537 -0.35714006
v -0.057496678 -0.033228185 -0.619168
v -0.06680729 0 -0.6181629
v -0.07283601 0 -0.35712838
v -0.06496772 0 -0.09622461
v -0.057075877 -0.031116538 -0.0963007
v 0.057496686 -0.03322819 -0.619168
v 0.06680731 0 -0.6181629
v -0.06680729 0 -0.6181629
v -3.7496246E-09 -0.06640547 -0.6191709
v -0.057496678 -0.033228185 -0.619168
v -0.07806573 -0.045071255 0.011989608
v -3.0505225E-09 0 0.05928273
v -5.609334E-09 -0.05853875 0.05928273
v -0.07806573 0 0.011989608
v -0.10931926 -0.0631155 -0.046943083
v -0.10931926 0 -0.04694307
v 0.07283601 0 -0.35712838
v 0.06496774 0 -0.09622463
v 0.05707588 0.031116538 -0.09630071
v 0.06389568 0.036963537 -0.35714006
v 0.057496686 0.03322819 -0.619168
v 0.06680731 0 -0.6181629
v 0.06389568 0.036963537 -0.35714006
v 0.05707588 0.031116538 -0.09630071
v -4.6243303E-09 0.06506011 -0.099726096
v -5.3896376E-09 0.07381689 -0.35713232
v -0.057075877 0.031116538 -0.0963007
v -0.06389569 0.036963537 -0.35714006
v -0.057496678 0.033228185 -0.619168
v -3.7496246E-09 0.06640547 -0.6191709
v 0.057496686 0.03322819 -0.619168
v 0.10931926 0.06311551 -0.046943083
v 0.07806573 0.04507127 0.011989608
v -5.609334E-09 0.05853875 0.05928273
v -8.006115E-09 0.09849873 -0.04694303
v 0.07806573 0.04507127 -0.105875686
v -0.07806573 0.045071255 0.011989608
v -6.0593477E-09 0.06883391 -0.15124935
v -0.10931926 0.0631155 -0.046943083
v -0.07806573 0.045071255 -0.105875686
v 0.07806573 0 -0.1058757
v 0.10931926 0.06311551 -0.046943083
v 0.07806573 0.04507127 -0.105875686
v 0.10931926 0 -0.04694307
v 0.07806573 0.04507127 0.011989608
v 0.07806573 0 0.011989608
v -5.609334E-09 0.05853875 0.05928273
v -3.0505225E-09 0 0.05928273
v -3.050522E-09 0 -0.15124938
v 0.07806573 0 -0.1058757
v 0.07806573 0.04507127 -0.105875686
v -6.0593477E-09 0.06883391 -0.15124935
v -0.07806573 0 -0.1058757
v -0.07806573 0.045071255 -0.105875686
v -0.10931926 0 -0.04694307
v -0.10931926 0.0631155 -0.046943083
v -0.06389569 0.036963537 -0.35714006
v -0.06680729 0 -0.6181629
v -0.057496678 0.033228185 -0.619168
v -0.07283601 0 -0.35712838
v -0.06496772 0 -0.09622461
v -0.057075877 0.031116538 -0.0963007
v -0.06680729 0 -0.6181629
v 0.06680731 0 -0.6181629
v 0.057496686 0.03322819 -0.619168
v -3.7496246E-09 0.06640547 -0.6191709
v -0.057496678 0.033228185 -0.619168
v -0.07806573 0.045071255 0.011989608
v -5.609334E-09 0.05853875 0.05928273
v -3.0505225E-09 0 0.05928273
v -0.07806573 0 0.011989608
v -0.10931926 0.0631155 -0.046943083
v -0.10931926 0 -0.04694307
v 1.056814E-09 0 0.8926718
v -0.09705863 0 0.6557447
v -0.048618995 0.02727391 0.63948715
v -0.11771094 0 0.34785435
v -0.05699585 0.033576574 0.3422297
v -0.13584006 0 0.13224399
v -0.0684356 0.03554763 0.13912556
v -0.21926449 0 0.005137589
v -0.07517957 0.036709603 0.01939177
v -0.20934889 0 -0.025359621
v -0.07288304 0.036709603 0.014024564
v 9.918638E-10 0.047897037 0.010951039
v -0.13830285 0 -0.046631657
v -0.066225655 0.036709603 0.009844346
v 9.918638E-10 0 -0.049611546
v 9.918638E-10 0.047897037 0.002464527
v 0.066225655 0.036709603 0.009844346
v 0.13830285 0 -0.046631657
v 0.07288304 0.036709603 0.014024564
v 0.20934889 0 -0.025359621
v 0.07517957 0.036709603 0.01939177
v 0.21926449 0 0.005137589
v 9.918638E-10 0.047897033 0.019437479
v 9.918638E-10 0.047364976 0.1374771
v 0.06843561 0.03554763 0.13912556
v 0.13584006 0 0.13224399
v 9.918638E-10 0.046462446 0.33770722
v 0.056995858 0.033576574 0.3422297
v 0.11771094 0 0.34785435
v 1.056814E-09 0.036405645 0.63804656
v 0.04861901 0.02727391 0.63948715
v 0.09705863 0 0.6557447
v 1.056814E-09 0.025946883 0.77108777
v 1.056814E-09 0 0.8926718
v -0.048618995 -0.02727391 0.63948715
v -0.09705863 0 0.6557447
v -0.11771094 0 0.34785435
v -0.05699585 -0.033576574 0.3422297
v -0.13584006 0 0.13224399
v -0.0684356 -0.03554763 0.13912556
v -0.21926449 0 0.005137589
v -0.07517957 -0.036709603 0.01939177
v -0.20934889 0 -0.025359621
v -0.07288304 -0.036709603 0.014024564
v 9.918638E-10 -0.047897037 0.010951039
v -0.13830285 0 -0.046631657
v -0.066225655 -0.036709603 0.009844346
v 9.918638E-10 0 -0.049611546
v 9.918638E-10 -0.047897037 0.002464527
v 0.066225655 -0.036709603 0.009844346
v 0.13830285 0 -0.046631657
v 0.07288304 -0.036709603 0.014024564
v 0.20934889 0 -0.025359621
v 0.07517957 -0.036709603 0.01939177
v 0.21926449 0 0.005137589
v 9.918638E-10 -0.047897033 0.019437479
v 9.918638E-10 -0.047364976 0.1374771
v 0.06843561 -0.03554763 0.13912556
v 0.13584006 0 0.13224399
v 9.918638E-10 -0.046462446 0.33770722
v 0.056995858 -0.033576574 0.3422297
v 0.11771094 0 0.34785435
v 1.056814E-09 -0.036405645 0.63804656
v 0.04861901 -0.02727391 0.63948715
v 0.09705863 0 0.6557447
v 1.056814E-09 -0.025946883 0.77108777
vt 0.67041016 0.26245117
vt 0.6357422 0.5131836
vt 0.66845703 0.51220703
vt 0.63183594 0.26367188
vt 0.6357422 0.018173218
vt 0.67041016 0.017623901
vt 0.4724121 0.28295898
vt 0.52734375 0.020599365
vt 0.4819336 0.017623901
vt 0.5234375 0.28222656
vt 0.59277344 0.017623901
vt 0.5966797 0.28295898
vt 0.59033203 0.5493164
vt 0.52441406 0.5488281
vt 0.47851562 0.5493164
vt 0.50878906 0.58496094
vt 0.65722656 0.62109375
vt 0.5786133 0.58447266
vt 0.55908203 0.6665039
vt 0.47583008 0.6464844
vt 0.65722656 0.71435547
vt 0.4724121 0.7290039
vt 0.6191406 0.76660156
vt 0.5546875 0.7763672
vt 0.78759766 0.20471191
vt 0.8330078 0.20349121
vt 0.84277344 0.15917969
vt 0.7792969 0.16101074
vt 0.82373047 0.092285156
vt 0.7783203 0.09350586
vt 0.84277344 0.017623901
vt 0.7841797 0.01928711
vt 0.7626953 0.6958008
vt 0.71728516 0.7753906
vt 0.7631836 0.7753906
vt 0.6928711 0.69628906
vt 0.7626953 0.6166992
vt 0.7167969 0.6166992
vt 0.7631836 0.58447266
vt 0.69921875 0.58496094
vt 0.7055664 0.21533203
vt 0.70947266 0.40454102
vt 0.74316406 0.4104004
vt 0.74316406 0.22155762
vt 0.74316406 0.023086548
vt 0.7114258 0.017623901
vt 0.83203125 0.7109375
vt 0.86621094 0.7207031
vt 0.86621094 0.58447266
vt 0.79833984 0.65283203
vt 0.83203125 0.5942383
vt 0.796875 0.32958984
vt 0.84277344 0.23999023
vt 0.7832031 0.23999023
vt 0.84277344 0.32958984
vt 0.7783203 0.3947754
vt 0.84277344 0.3947754
vt 0.67041016 0.26245117
vt 0.66845703 0.51220703
vt 0.6357422 0.5131836
vt 0.63183594 0.26367188
vt 0.6357422 0.018173218
vt 0.67041016 0.017623901
vt 0.4724121 0.28295898
vt 0.4819336 0.017623901
vt 0.52734375 0.020599365
vt 0.5234375 0.28222656
vt 0.59277344 0.017623901
vt 0.5966797 0.28295898
vt 0.59033203 0.5493164
vt 0.52441406 0.5488281
vt 0.47851562 0.5493164
vt 0.50878906 0.58496094
vt 0.5786133 0.58447266
vt 0.65722656 0.62109375
vt 0.55908203 0.6665039
vt 0.47583008 0.6464844
vt 0.65722656 0.71435547
vt 0.4724121 0.7290039
vt 0.6191406 0.76660156
vt 0.5546875 0.7763672
vt 0.78759766 0.20471191
vt 0.84277344 0.15917969
vt 0.8330078 0.20349121
vt 0.7792969 0.16101074
vt 0.82373047 0.092285156
vt 0.7783203 0.09350586
vt 0.84277344 0.017623901
vt 0.7841797 0.01928711
vt 0.7626953 0.6958008
vt 0.7631836 0.7753906
vt 0.71728516 0.7753906
vt 0.6928711 0.69628906
vt 0.7626953 0.6166992
vt 0.7167969 0.6166992
vt 0.7631836 0.58447266
vt 0.69921875 0.58496094
vt 0.7055664 0.21533203
vt 0.74316406 0.4104004
vt 0.70947266 0.40454102
vt 0.74316406 0.22155762
vt 0.74316406 0.023086548
vt 0.7114258 0.017623901
vt 0.86621094 0.58447266
vt 0.86621094 0.7207031
vt 0.83203125 0.7109375
vt 0.79833984 0.65283203
vt 0.83203125 0.5942383
vt 0.796875 0.32958984
vt 0.7832031 0.23999023
vt 0.84277344 0.23999023
vt 0.84277344 0.32958984
vt 0.7783203 0.3947754
vt 0.84277344 0.3947754
vt 0.38671875 0.9824219
vt 0.25146484 0.76220703
vt 0.30297852 0.7363281
vt 0.17626953 0.45751953
vt 0.24328613 0.4399414
vt 0.12023926 0.24487305
vt 0.1965332 0.23852539
vt 0.017623901 0.13232422
vt 0.16882324 0.11981201
vt 0.021636963 0.100097656
vt 0.17016602 0.11407471
vt 0.24255371 0.097717285
vt 0.085754395 0.06628418
vt 0.17578125 0.10870361
vt 0.2175293 0.038970947
vt 0.24108887 0.0892334
vt 0.30249023 0.08538818
vt 0.3503418 0.017623901
vt 0.3095703 0.08843994
vt 0.42211914 0.026428223
vt 0.31274414 0.09338379
vt 0.43701172 0.0552063
vt 0.24414062 0.10620117
vt 0.26513672 0.22436523
vt 0.32739258 0.21447754
vt 0.38012695 0.19714355
vt 0.30078125 0.4248047
vt 0.35229492 0.41992188
vt 0.40161133 0.41625977
vt 0.35180664 0.7260742
vt 0.3959961 0.7192383
vt 0.43701172 0.72802734
vt 0.3725586 0.8598633
vt 0.38671875 0.9824219
vt 0.30297852 0.7363281
vt 0.25146484 0.76220703
vt 0.17626953 0.45751953
vt 0.24328613 0.4399414
vt 0.12023926 0.24487305
vt 0.1965332 0.23852539
vt 0.017623901 0.13232422
vt 0.16882324 0.11981201
vt 0.021636963 0.100097656
vt 0.17016602 0.11407471
vt 0.24255371 0.097717285
vt 0.085754395 0.06628418
vt 0.17578125 0.10870361
vt 0.2175293 0.038970947
vt 0.24108887 0.0892334
vt 0.30249023 0.08538818
vt 0.3503418 0.017623901
vt 0.3095703 0.08843994
vt 0.42211914 0.026428223
vt 0.31274414 0.09338379
vt 0.43701172 0.0552063
vt 0.24414062 0.10620117
vt 0.26513672 0.22436523
vt 0.32739258 0.21447754
vt 0.38012695 0.19714355
vt 0.30078125 0.4248047
vt 0.35229492 0.41992188
vt 0.40161133 0.41625977
vt 0.35180664 0.7260742
vt 0.3959961 0.7192383
vt 0.43701172 0.72802734
vt 0.3725586 0.8598633
vn 1 0 0.0026855469
vn 0.8051758 -0.59228516 0.033081055
vn 0.9995117 0 0.030914307
vn 0.79833984 -0.60253906 0.0031356812
vn 0.6088867 -0.45532227 -0.64941406
vn 0.7578125 0 -0.65234375
vn 0.79833984 -0.60253906 0.0031356812
vn -0 -0.9995117 0.035858154
vn 0.8051758 -0.59228516 0.033081055
vn -0 -1 0.0036945343
vn -0.8051758 -0.59228516 0.033081055
vn -0.79833984 -0.60253906 0.0031356812
vn -0.6088867 -0.45532227 -0.64941406
vn -0 -0.7792969 -0.62646484
vn 0.6088867 -0.45532227 -0.64941406
vn 0.82714844 -0.56152344 0.013809204
vn -0 -0.51660156 0.8564453
vn 0.64746094 -0.42260742 0.63427734
vn -0 -1 0.021331787
vn 0.6621094 -0.40844727 -0.62841797
vn -0.64746094 -0.42260742 0.63427734
vn -0 -0.55859375 -0.82958984
vn -0.82714844 -0.56152344 0.013809204
vn -0.6621094 -0.40844727 -0.62841797
vn 0.7207031 0 -0.6933594
vn 0.6621094 -0.40844727 -0.62841797
vn 0.82714844 -0.56152344 0.013809204
vn 1 0 0
vn 0.64746094 -0.42260742 0.63427734
vn 0.7270508 0 0.68652344
vn -0 -0.51660156 0.8564453
vn -0 0 1
vn -0 0 -1
vn 0.6621094 -0.40844727 -0.62841797
vn 0.7207031 0 -0.6933594
vn -0 -0.55859375 -0.82958984
vn -0.7207031 0 -0.6933594
vn -0.6621094 -0.40844727 -0.62841797
vn -1 0 0
vn -0.82714844 -0.56152344 0.013809204
vn -0.79833984 -0.60253906 0.0031356812
vn -0.6088867 -0.45532227 -0.64941406
vn -0.7578125 0 -0.65234375
vn -1 0 0.0026855469
vn -0.9995117 0 0.030914307
vn -0.8051758 -0.59228516 0.033081055
vn 0.6088867 -0.45532227 -0.64941406
vn 0.7578125 0 -0.65234375
vn -0.7578125 0 -0.65234375
vn -0 -0.7792969 -0.62646484
vn -0.6088867 -0.45532227 -0.64941406
vn -0.64746094 -0.42260742 0.63427734
vn -0 0 1
vn -0 -0.51660156 0.8564453
vn -0.7270508 0 0.68652344
vn -0.82714844 -0.56152344 0.013809204
vn -1 0 0
vn 1 0 0.0026855469
vn 0.9995117 0 0.030914307
vn 0.8051758 0.59228516 0.033081055
vn 0.79833984 0.60253906 0.0031356812
vn 0.6088867 0.45532227 -0.64941406
vn 0.7578125 0 -0.65234375
vn 0.79833984 0.60253906 0.0031356812
vn 0.8051758 0.59228516 0.033081055
vn -0 0.9995117 0.035858154
vn -0 1 0.0036945343
vn -0.8051758 0.59228516 0.033081055
vn -0.79833984 0.60253906 0.0031356812
vn -0.6088867 0.45532227 -0.64941406
vn -0 0.7792969 -0.62646484
vn 0.6088867 0.45532227 -0.64941406
vn 0.82714844 0.56152344 0.013809204
vn 0.64746094 0.42260742 0.63427734
vn -0 0.51660156 0.8564453
vn -0 1 0.021331787
vn 0.6621094 0.40844727 -0.62841797
vn -0.64746094 0.42260742 0.63427734
vn -0 0.55859375 -0.82958984
vn -0.82714844 0.56152344 0.013809204
vn -0.6621094 0.40844727 -0.62841797
vn 0.7207031 0 -0.6933594
vn 0.82714844 0.56152344 0.013809204
vn 0.6621094 0.40844727 -0.62841797
vn 1 0 0
vn 0.64746094 0.42260742 0.63427734
vn 0.7270508 0 0.68652344
vn -0 0.51660156 0.8564453
vn -0 0 1
vn -0 0 -1
vn 0.7207031 0 -0.6933594
vn 0.6621094 0.40844727 -0.62841797
vn -0 0.55859375 -0.82958984
vn -0.7207031 0 -0.6933594
vn -0.6621094 0.40844727 -0.62841797
vn -1 0 0
vn -0.82714844 0.56152344 0.013809204
vn -0.79833984 0.60253906 0.0031356812
vn -0.7578125 0 -0.65234375
vn -0.6088867 0.45532227 -0.64941406
vn -1 0 0.0026855469
vn -0.9995117 0 0.030914307
vn -0.8051758 0.59228516 0.033081055
vn -0.7578125 0 -0.65234375
vn 0.7578125 0 -0.65234375
vn 0.6088867 0.45532227 -0.64941406
vn -0 0.7792969 -0.62646484
vn -0.6088867 0.45532227 -0.64941406
vn -0.64746094 0.42260742 0.63427734
vn -0 0.51660156 0.8564453
vn -0 0 1
vn -0.7270508 0 0.68652344
vn -0.82714844 0.56152344 0.013809204
vn -1 0 0
vn -0 0 1
vn -0.97265625 0 0.23205566
vn -0.34765625 0.93408203 0.0793457
vn -0.9975586 0 0.07281494
vn -0.34033203 0.9399414 0.028396606
vn -0.9736328 0 0.22814941
vn -0.29541016 0.95410156 0.04537964
vn -1 0 0.0076789856
vn -0.22998047 0.97314453 0.0019721985
vn -0.7729492 0 -0.6347656
vn -0.16821289 0.9628906 -0.21081543
vn -0 1 -0.006313324
vn -0.25073242 0 -0.9682617
vn -0.12298584 0.90478516 -0.40722656
vn -0 0 -1
vn -0 0.94873047 -0.31640625
vn 0.12298584 0.90478516 -0.40722656
vn 0.25073242 0 -0.9682617
vn 0.16821289 0.9628906 -0.21081543
vn 0.7729492 0 -0.6347656
vn 0.22998047 0.97314453 0.0019721985
vn 1 0 0.0076789856
vn -0 1 0.0058288574
vn -0 1 0.012168884
vn 0.29541016 0.95410156 0.04537964
vn 0.9736328 0 0.22814941
vn -0 1 0.021011353
vn 0.34033203 0.9399414 0.028396606
vn 0.9975586 0 0.07281494
vn -0 0.99853516 0.053771973
vn 0.34765625 0.93408203 0.0793457
vn 0.97265625 0 0.23205566
vn -0 0.9824219 0.18640137
vn -0 0 1
vn -0.34765625 -0.93408203 0.0793457
vn -0.97265625 0 0.23205566
vn -0.9975586 0 0.07281494
vn -0.34033203 -0.9399414 0.028396606
vn -0.9736328 0 0.22814941
vn -0.29541016 -0.95410156 0.04537964
vn -1 0 0.0076789856
vn -0.22998047 -0.97314453 0.0019721985
vn -0.7729492 0 -0.6347656
vn -0.16821289 -0.9628906 -0.21081543
vn -0 -1 -0.006313324
vn -0.25073242 0 -0.9682617
vn -0.12298584 -0.90478516 -0.40722656
vn -0 0 -1
vn -0 -0.94873047 -0.31640625
vn 0.12298584 -0.90478516 -0.40722656
vn 0.25073242 0 -0.9682617
vn 0.16821289 -0.9628906 -0.21081543
vn 0.7729492 0 -0.6347656
vn 0.22998047 -0.97314453 0.0019721985
vn 1 0 0.0076789856
vn -0 -1 0.0058288574
vn -0 -1 0.012168884
vn 0.29541016 -0.95410156 0.04537964
vn 0.9736328 0 0.22814941
vn -0 -1 0.021011353
vn 0.34033203 -0.9399414 0.028396606
vn 0.9975586 0 0.07281494
vn -0 -0.99853516 0.053771973
vn 0.34765625 -0.93408203 0.0793457
vn 0.97265625 0 0.23205566
vn -0 -0.9824219 0.18640137
g BluetoothDagger_0
f 3/3/3 2/2/2 1/1/1
f 2/2/2 4/4/4 1/1/1
f 4/4/4 5/5/5 1/1/1
f 5/5/5 6/6/6 1/1/1
f 9/9/9 8/8/8 7/7/7
f 8/8/8 10/10/10 7/7/7
f 8/8/8 11/11/11 10/10/10
f 11/11/11 12/12/12 10/10/10
f 12/12/12 13/13/13 10/10/10
f 13/13/13 14/14/14 10/10/10
f 10/10/10 14/14/14 7/7/7
f 14/14/14 15/15/15 7/7/7
f 18/18/18 17/17/17 16/16/16
f 17/17/17 19/19/19 16/16/16
f 16/16/16 19/19/19 20/20/20
f 17/17/17 21/21/21 19/19/19
f 19/19/19 22/22/22 20/20/20
f 21/21/21 23/23/23 19/19/19
f 19/19/19 23/23/23 22/22/22
f 23/23/23 24/24/24 22/22/22
f 27/27/27 26/26/26 25/25/25
f 28/28/28 27/27/27 25/25/25
f 29/29/29 27/27/27 28/28/28
f 30/30/30 29/29/29 28/28/28
f 29/29/29 30/30/30 31/31/31
f 30/30/30 32/32/32 31/31/31
f 35/35/35 34/34/34 33/33/33
f 34/34/34 36/36/36 33/33/33
f 33/33/33 36/36/36 37/37/37
f 36/36/36 38/38/38 37/37/37
f 39/39/39 37/37/37 38/38/38
f 40/40/40 39/39/39 38/38/38
f 43/43/43 42/42/42 41/41/41
f 44/44/44 43/43/43 41/41/41
f 45/45/45 44/44/44 41/41/41
f 46/46/46 45/45/45 41/41/41
f 49/49/49 48/48/48 47/47/47
f 47/47/47 50/50/50 49/49/49
f 50/50/50 51/51/51 49/49/49
f 54/54/54 53/53/53 52/52/52
f 53/53/53 55/55/55 52/52/52
f 52/52/52 55/55/55 56/56/56
f 55/55/55 57/57/57 56/56/56
f 60/60/60 59/59/59 58/58/58
f 61/61/61 60/60/60 58/58/58
f 62/62/62 61/61/61 58/58/58
f 63/63/63 62/62/62 58/58/58
f 66/66/66 65/65/65 64/64/64
f 67/67/67 66/66/66 64/64/64
f 68/68/68 66/66/66 67/67/67
f 69/69/69 68/68/68 67/67/67
f 70/70/70 69/69/69 67/67/67
f 71/71/71 70/70/70 67/67/67
f 71/71/71 67/67/67 64/64/64
f 72/72/72 71/71/71 64/64/64
f 75/75/75 74/74/74 73/73/73
f 76/76/76 75/75/75 73/73/73
f 76/76/76 73/73/73 77/77/77
f 78/78/78 75/75/75 76/76/76
f 79/79/79 76/76/76 77/77/77
f 80/80/80 78/78/78 76/76/76
f 80/80/80 76/76/76 79/79/79
f 81/81/81 80/80/80 79/79/79
f 84/84/84 83/83/83 82/82/82
f 83/83/83 85/85/85 82/82/82
f 83/83/83 86/86/86 85/85/85
f 86/86/86 87/87/87 85/85/85
f 87/87/87 86/86/86 88/88/88
f 89/89/89 87/87/87 88/88/88
f 92/92/92 91/91/91 90/90/90
f 93/93/93 92/92/92 90/90/90
f 93/93/93 90/90/90 94/94/94
f 95/95/95 93/93/93 94/94/94
f 94/94/94 96/96/96 95/95/95
f 96/96/96 97/97/97 95/95/95
f 100/100/100 99/99/99 98/98/98
f 99/99/99 101/101/101 98/98/98
f 101/101/101 102/102/102 98/98/98
f 102/102/102 103/103/103 98/98/98
f 106/106/106 105/105/105 104/104/104
f 104/104/104 107/107/107 106/106/106
f 104/104/104 108/108/108 107/107/107
f 111/111/111 110/110/110 109/109/109
f 112/112/112 111/111/111 109/109/109
f 112/112/112 109/109/109 113/113/113
f 114/114/114 112/112/112 113/113/113
f 117/117/117 116/116/116 115/115/115
f 116/116/116 117/117/117 118/118/118
f 117/117/117 119/119/119 118/118/118
f 118/118/118 119/119/119 120/120/120
f 119/119/119 121/121/121 120/120/120
f 120/120/120 121/121/121 122/122/122
f 121/121/121 123/123/123 122/122/122
f 122/122/122 123/123/123 124/124/124
f 123/123/123 125/125/125 124/124/124
f 123/123/123 126/126/126 125/125/125
f 124/124/124 125/125/125 127/127/127
f 125/125/125 128/128/128 127/127/127
f 128/128/128 125/125/125 126/126/126
f 127/127/127 128/128/128 129/129/129
f 128/128/128 130/130/130 129/129/129
f 128/128/128 126/126/126 130/130/130
f 130/130/130 131/131/131 129/129/129
f 126/126/126 131/131/131 130/130/130
f 131/131/131 132/132/132 129/129/129
f 131/131/131 133/133/133 132/132/132
f 133/133/133 131/131/131 126/126/126
f 133/133/133 134/134/134 132/132/132
f 133/133/133 135/135/135 134/134/134
f 126/126/126 135/135/135 133/133/133
f 135/135/135 136/136/136 134/134/134
f 123/123/123 137/137/137 126/126/126
f 137/137/137 135/135/135 126/126/126
f 137/137/137 123/123/123 138/138/138
f 135/135/135 137/137/137 138/138/138
f 123/123/123 121/121/121 138/138/138
f 135/135/135 139/139/139 136/136/136
f 139/139/139 135/135/135 138/138/138
f 139/139/139 140/140/140 136/136/136
f 138/138/138 121/121/121 141/141/141
f 139/139/139 138/138/138 141/141/141
f 121/121/121 119/119/119 141/141/141
f 139/139/139 142/142/142 140/140/140
f 142/142/142 139/139/139 141/141/141
f 142/142/142 143/143/143 140/140/140
f 144/144/144 141/141/141 119/119/119
f 141/141/141 144/144/144 142/142/142
f 117/117/117 144/144/144 119/119/119
f 142/142/142 145/145/145 143/143/143
f 144/144/144 145/145/145 142/142/142
f 145/145/145 146/146/146 143/143/143
f 146/146/146 145/145/145 115/115/115
f 147/147/147 117/117/117 115/115/115
f 144/144/144 117/117/117 147/147/147
f 145/145/145 147/147/147 115/115/115
f 145/145/145 144/144/144 147/147/147
f 150/150/150 149/149/149 148/148/148
f 149/149/149 150/150/150 151/151/151
f 152/152/152 149/149/149 151/151/151
f 152/152/152 151/151/151 153/153/153
f 154/154/154 152/152/152 153/153/153
f 154/154/154 153/153/153 155/155/155
f 156/156/156 154/154/154 155/155/155
f 156/156/156 155/155/155 157/157/157
f 158/158/158 156/156/156 157/157/157
f 159/159/159 156/156/156 158/158/158
f 158/158/158 157/157/157 160/160/160
f 161/161/161 158/158/158 160/160/160
f 158/158/158 161/161/161 159/159/159
f 161/161/161 160/160/160 162/162/162
f 163/163/163 161/161/161 162/162/162
f 159/159/159 161/161/161 163/163/163
f 164/164/164 163/163/163 162/162/162
f 164/164/164 159/159/159 163/163/163
f 165/165/165 164/164/164 162/162/162
f 166/166/166 164/164/164 165/165/165
f 164/164/164 166/166/166 159/159/159
f 167/167/167 166/166/166 165/165/165
f 168/168/168 166/166/166 167/167/167
f 168/168/168 159/159/159 166/166/166
f 169/169/169 168/168/168 167/167/167
f 170/170/170 156/156/156 159/159/159
f 168/168/168 170/170/170 159/159/159
f 156/156/156 170/170/170 171/171/171
f 170/170/170 168/168/168 171/171/171
f 154/154/154 156/156/156 171/171/171
f 172/172/172 168/168/168 169/169/169
f 168/168/168 172/172/172 171/171/171
f 173/173/173 172/172/172 169/169/169
f 154/154/154 171/171/171 174/174/174
f 171/171/171 172/172/172 174/174/174
f 152/152/152 154/154/154 174/174/174
f 175/175/175 172/172/172 173/173/173
f 172/172/172 175/175/175 174/174/174
f 176/176/176 175/175/175 173/173/173
f 174/174/174 177/177/177 152/152/152
f 177/177/177 174/174/174 175/175/175
f 177/177/177 149/149/149 152/152/152
f 178/178/178 175/175/175 176/176/176
f 178/178/178 177/177/177 175/175/175
f 179/179/179 178/178/178 176/176/176
f 178/178/178 179/179/179 148/148/148
f 149/149/149 180/180/180 148/148/148
f 149/149/149 177/177/177 180/180/180
f 180/180/180 178/178/178 148/148/148
f 177/177/177 178/178/178 180/180/180
