g BossPortalCollider
v -0 -0.013802703 -12.387482
v 6.193741 -0.013802629 -10.727873
v 4.683454 1.6679955 -8.11198
v -0 1.6679955 -9.366908
v 6.193741 -0.013802629 -10.727873
v 10.727874 -0.013802431 -6.1937404
v 8.111981 1.6679956 -4.683454
v 4.683454 1.6679955 -8.11198
v 10.727874 -0.013802431 -6.1937404
v 12.387482 -0.01380216 5.337944E-07
v 9.366908 1.6679958 3.589091E-07
v 8.111981 1.6679956 -4.683454
v 12.387482 -0.01380216 5.337944E-07
v 10.727873 -0.01380189 6.193741
v 8.11198 1.667996 4.683455
v 9.366908 1.6679958 3.589091E-07
v 10.727873 -0.01380189 6.193741
v 6.193741 -0.013801691 10.727873
v 4.683455 1.6679962 8.11198
v 8.11198 1.667996 4.683455
v -0 1.6679962 9.366908
v 4.683455 1.6679962 8.11198
v 6.193741 -0.013801691 10.727873
v -0 -0.0138016185 12.387482
v 2.2224839 1.6679959 -0.99976957
v 4.065119 5.812105 -0.9997698
v 4.0200214 5.812105 1.3028644
v 2.169598 1.6679959 1.3028647
v 6.657278 6.349635 1.1131002
v 5.248132 10.481731 1.1130999
v 5.2481337 10.48173 -0.8878759
v 6.657279 6.3496346 -0.8878757
v 5.668446 1.6679955 -0.88787544
v 4.065119 5.812105 -0.9997698
v 2.2224839 1.6679959 -0.99976957
v 6.657279 6.3496346 -0.8878757
v 3.6447222 8.808097 -0.99977005
v 5.2481337 10.48173 -0.8878759
v 1.7409295 10.257464 -0.99977064
v 1.8116395 13.048153 -0.88787663
v -0 10.16813 -0.9997709
v -0 13.021477 -0.887877
v -1.8116395 13.048153 -0.88787663
v -1.7409295 10.257464 -0.99977064
v -5.2481337 10.48173 -0.8878759
v -3.6447222 8.808097 -0.99977005
v -6.657279 6.3496346 -0.8878757
v -4.065119 5.812105 -0.9997698
v -5.668446 1.6679955 -0.88787544
v -2.2224839 1.6679959 -0.99976957
v 2.169598 1.6679959 1.3028647
v 6.657278 6.349635 1.1131002
v 5.668445 1.6679959 1.1131003
v 4.0200214 5.812105 1.3028644
v 5.248132 10.481731 1.1130999
v 3.6045213 8.787662 1.3028642
v 5.668445 1.6679959 1.1131003
v 6.657278 6.349635 1.1131002
v 6.657279 6.3496346 -0.8878757
v 5.668446 1.6679955 -0.88787544
v 4.065119 5.812105 -0.9997698
v 3.6447222 8.808097 -0.99977005
v 3.6045213 8.787662 1.3028642
v 4.0200214 5.812105 1.3028644
v 1.7409295 10.257464 -0.99977064
v -0 10.16813 -0.9997709
v -0 10.123042 1.3028632
v 1.7258769 10.214953 1.3028636
v 3.6045213 8.787662 1.3028642
v 1.7258769 10.214953 1.3028636
v 1.8116381 13.048152 1.113099
v 5.248132 10.481731 1.1130999
v 3.6447222 8.808097 -0.99977005
v 1.7409295 10.257464 -0.99977064
v 1.7258769 10.214953 1.3028636
v 3.6045213 8.787662 1.3028642
v 5.248132 10.481731 1.1130999
v 1.8116381 13.048152 1.113099
v 1.8116395 13.048153 -0.88787663
v 5.2481337 10.48173 -0.8878759
v 1.8116381 13.048152 1.113099
v -0 13.021477 -0.887877
v 1.8116395 13.048153 -0.88787663
v -0 13.021476 1.1130987
v -1.8116381 13.048152 1.113099
v -1.8116395 13.048153 -0.88787663
v 1.7258769 10.214953 1.3028636
v -0 13.021476 1.1130987
v 1.8116381 13.048152 1.113099
v -0 10.123042 1.3028632
v -1.7258769 10.214953 1.3028636
v -1.8116381 13.048152 1.113099
v 10.727873 -0.01380189 6.193741
v 10.727873 -30.024914 6.1937423
v 6.193741 -30.024914 10.727874
v 6.193741 -0.013801691 10.727873
v 10.727874 -0.013802431 -6.1937404
v 10.727874 -30.024914 -6.193739
v 12.387482 -30.024914 1.8456218E-06
v 12.387482 -0.01380216 5.337944E-07
v -0 -0.013802703 -12.387482
v -0 -30.024916 -12.387481
v 6.193741 -30.024916 -10.727872
v 6.193741 -0.013802629 -10.727873
v 6.193741 -0.013801691 10.727873
v 6.193741 -30.024914 10.727874
v -0 -30.024914 12.387483
v -0 -0.0138016185 12.387482
v 12.387482 -0.01380216 5.337944E-07
v 12.387482 -30.024914 1.8456218E-06
v 10.727873 -30.024914 6.1937423
v 10.727873 -0.01380189 6.193741
v 6.193741 -0.013802629 -10.727873
v 6.193741 -30.024916 -10.727872
v 10.727874 -30.024914 -6.193739
v 10.727874 -0.013802431 -6.1937404
v -0 -0.013802703 -12.387482
v -0 1.6679955 -9.366908
v -4.683454 1.6679955 -8.11198
v -6.193741 -0.013802629 -10.727873
v -6.193741 -0.013802629 -10.727873
v -4.683454 1.6679955 -8.11198
v -8.111981 1.6679956 -4.683454
v -10.727874 -0.013802431 -6.1937404
v -10.727874 -0.013802431 -6.1937404
v -8.111981 1.6679956 -4.683454
v -9.366908 1.6679958 3.589091E-07
v -12.387482 -0.01380216 5.337944E-07
v -12.387482 -0.01380216 5.337944E-07
v -9.366908 1.6679958 3.589091E-07
v -8.11198 1.667996 4.683455
v -10.727873 -0.01380189 6.193741
v -10.727873 -0.01380189 6.193741
v -8.11198 1.667996 4.683455
v -4.683455 1.6679962 8.11198
v -6.193741 -0.013801691 10.727873
v -0 1.6679962 9.366908
v -0 -0.0138016185 12.387482
v -6.193741 -0.013801691 10.727873
v -4.683455 1.6679962 8.11198
v -2.2224839 1.6679959 -0.99976957
v -2.169598 1.6679959 1.3028647
v -4.0200214 5.812105 1.3028644
v -4.065119 5.812105 -0.9997698
v -6.657278 6.349635 1.1131002
v -6.657279 6.3496346 -0.8878757
v -5.2481337 10.48173 -0.8878759
v -5.248132 10.481731 1.1130999
v -2.169598 1.6679959 1.3028647
v -5.668445 1.6679959 1.1131003
v -6.657278 6.349635 1.1131002
v -4.0200214 5.812105 1.3028644
v -5.248132 10.481731 1.1130999
v -3.6045213 8.787662 1.3028642
v -5.668445 1.6679959 1.1131003
v -5.668446 1.6679955 -0.88787544
v -6.657279 6.3496346 -0.8878757
v -6.657278 6.349635 1.1131002
v -4.065119 5.812105 -0.9997698
v -4.0200214 5.812105 1.3028644
v -3.6045213 8.787662 1.3028642
v -3.6447222 8.808097 -0.99977005
v -1.7409295 10.257464 -0.99977064
v -1.7258769 10.214953 1.3028636
v -0 10.123042 1.3028632
v -0 10.16813 -0.9997709
v -3.6045213 8.787662 1.3028642
v -5.248132 10.481731 1.1130999
v -1.8116381 13.048152 1.113099
v -1.7258769 10.214953 1.3028636
v -3.6447222 8.808097 -0.99977005
v -3.6045213 8.787662 1.3028642
v -1.7258769 10.214953 1.3028636
v -1.7409295 10.257464 -0.99977064
v -5.248132 10.481731 1.1130999
v -5.2481337 10.48173 -0.8878759
v -1.8116395 13.048153 -0.88787663
v -1.8116381 13.048152 1.113099
v -10.727873 -0.01380189 6.193741
v -6.193741 -0.013801691 10.727873
v -6.193741 -30.024914 10.727874
v -10.727873 -30.024914 6.1937423
v -10.727874 -0.013802431 -6.1937404
v -12.387482 -0.01380216 5.337944E-07
v -12.387482 -30.024914 1.8456218E-06
v -10.727874 -30.024914 -6.193739
v -0 -0.013802703 -12.387482
v -6.193741 -0.013802629 -10.727873
v -6.193741 -30.024916 -10.727872
v -0 -30.024916 -12.387481
v -6.193741 -0.013801691 10.727873
v -0 -0.0138016185 12.387482
v -0 -30.024914 12.387483
v -6.193741 -30.024914 10.727874
v -12.387482 -0.01380216 5.337944E-07
v -10.727873 -0.01380189 6.193741
v -10.727873 -30.024914 6.1937423
v -12.387482 -30.024914 1.8456218E-06
v -6.193741 -0.013802629 -10.727873
v -10.727874 -0.013802431 -6.1937404
v -10.727874 -30.024914 -6.193739
v -6.193741 -30.024916 -10.727872
v -5.668446 1.6679955 -0.88787544
v -9.366908 1.6679958 3.589091E-07
v -8.111981 1.6679956 -4.683454
v -8.11198 1.667996 4.683455
v -5.668445 1.6679959 1.1131003
v -4.683455 1.6679962 8.11198
v -2.2224839 1.6679959 -0.99976957
v -4.683454 1.6679955 -8.11198
v -2.169598 1.6679959 1.3028647
v -0 1.6679955 -9.366908
v -0 1.6679962 9.366908
v 2.169598 1.6679959 1.3028647
v 4.683455 1.6679962 8.11198
v 5.668445 1.6679959 1.1131003
v 8.11198 1.667996 4.683455
v 2.2224839 1.6679959 -0.99976957
v 4.683454 1.6679955 -8.11198
v 8.111981 1.6679956 -4.683454
v 5.668446 1.6679955 -0.88787544
v 9.366908 1.6679958 3.589091E-07
vt 0 0
vt 0 0
vt 0 0
vt 0 0
vt 0 0
vt 0 0
vt 0 0
vt 0 0
vt 0 0
vt 0 0
vt 0 0
vt 0 0
vt 0 0
vt 0 0
vt 0 0
vt 0 0
vt 0 0
vt 0 0
vt 0 0
vt 0 0
vt 0 0
vt 0 0
vt 0 0
vt 0 0
vt 0 0
vt 0 0
vt 0 0
vt 0 0
vt 0 0
vt 0 0
vt 0 0
vt 0 0
vt 0 0
vt 0 0
vt 0 0
vt 0 0
vt 0 0
vt 0 0
vt 0 0
vt 0 0
vt 0 0
vt 0 0
vt 0 0
vt 0 0
vt 0 0
vt 0 0
vt 0 0
vt 0 0
vt 0 0
vt 0 0
vt 0 0
vt 0 0
vt 0 0
vt 0 0
vt 0 0
vt 0 0
vt 0 0
vt 0 0
vt 0 0
vt 0 0
vt 0 0
vt 0 0
vt 0 0
vt 0 0
vt 0 0
vt 0 0
vt 0 0
vt 0 0
vt 0 0
vt 0 0
vt 0 0
vt 0 0
vt 0 0
vt 0 0
vt 0 0
vt 0 0
vt 0 0
vt 0 0
vt 0 0
vt 0 0
vt 0 0
vt 0 0
vt 0 0
vt 0 0
vt 0 0
vt 0 0
vt 0 0
vt 0 0
vt 0 0
vt 0 0
vt 0 0
vt 0 0
vt 0 0
vt 0 0
vt 0 0
vt 0 0
vt 0 0
vt 0 0
vt 0 0
vt 0 0
vt 0 0
vt 0 0
vt 0 0
vt 0 0
vt 0 0
vt 0 0
vt 0 0
vt 0 0
vt 0 0
vt 0 0
vt 0 0
vt 0 0
vt 0 0
vt 0 0
vt 0 0
vt 0 0
vt 0 0
vt 0 0
vt 0 0
vt 0 0
vt 0 0
vt 0 0
vt 0 0
vt 0 0
vt 0 0
vt 0 0
vt 0 0
vt 0 0
vt 0 0
vt 0 0
vt 0 0
vt 0 0
vt 0 0
vt 0 0
vt 0 0
vt 0 0
vt 0 0
vt 0 0
vt 0 0
vt 0 0
vt 0 0
vt 0 0
vt 0 0
vt 0 0
vt 0 0
vt 0 0
vt 0 0
vt 0 0
vt 0 0
vt 0 0
vt 0 0
vt 0 0
vt 0 0
vt 0 0
vt 0 0
vt 0 0
vt 0 0
vt 0 0
vt 0 0
vt 0 0
vt 0 0
vt 0 0
vt 0 0
vt 0 0
vt 0 0
vt 0 0
vt 0 0
vt 0 0
vt 0 0
vt 0 0
vt 0 0
vt 0 0
vt 0 0
vt 0 0
vt 0 0
vt 0 0
vt 0 0
vt 0 0
vt 0 0
vt 0 0
vt 0 0
vt 0 0
vt 0 0
vt 0 0
vt 0 0
vt 0 0
vt 0 0
vt 0 0
vt 0 0
vt 0 0
vt 0 0
vt 0 0
vt 0 0
vt 0 0
vt 0 0
vt 0 0
vt 0 0
vt 0 0
vt 0 0
vt 0 0
vt 0 0
vt 0 0
vt 0 0
vt 0 0
vt 0 0
vt 0 0
vt 0 0
vt 0 0
vt 0 0
vt 0 0
vt 0 0
vt 0 0
vt 0 0
vt 0 0
vt 0 0
vt 0 0
vt 0 0
vt 0 0
vt 0 0
vt 0 0
vt 0 0
vt 0 0
vn 0.1292535 0.86637336 -0.48238033
vn 0.1292535 0.86637336 -0.48238033
vn 0.1292535 0.86637336 -0.48238033
vn 0.1292535 0.86637336 -0.48238033
vn 0.3531269 0.86637336 -0.353127
vn 0.3531269 0.86637336 -0.353127
vn 0.3531269 0.86637336 -0.353127
vn 0.3531269 0.86637336 -0.353127
vn 0.48238027 0.86637336 -0.12925339
vn 0.48238027 0.86637336 -0.12925339
vn 0.48238027 0.86637336 -0.12925339
vn 0.48238027 0.86637336 -0.12925339
vn 0.48238045 0.86637324 0.12925346
vn 0.48238045 0.86637324 0.12925346
vn 0.48238045 0.86637324 0.12925346
vn 0.48238045 0.86637324 0.12925346
vn 0.35312694 0.86637324 0.3531269
vn 0.35312694 0.86637324 0.3531269
vn 0.35312694 0.86637324 0.3531269
vn 0.35312694 0.86637324 0.3531269
vn 0.12925343 0.86637336 0.48238033
vn 0.12925343 0.86637336 0.48238033
vn 0.12925343 0.86637336 0.48238033
vn 0.12925343 0.86637336 0.48238033
vn -0.913254 0.40692705 -0.019430654
vn -0.913254 0.40692705 -0.019430654
vn -0.913254 0.40692705 -0.019430654
vn -0.913254 0.40692705 -0.019430654
vn 0.9464768 0.32277176 0
vn 0.9464768 0.32277176 0
vn 0.9464768 0.32277176 0
vn 0.9464768 0.32277176 0
vn 0.038121596 -0.012230191 -0.99919826
vn 0.038121596 -0.012230191 -0.99919826
vn 0.038121596 -0.012230191 -0.99919826
vn 0.038121596 -0.012230191 -0.99919826
vn 0.029368827 0.039054945 -0.9988054
vn 0.029368827 0.039054945 -0.9988054
vn 0.029368827 0.039054945 -0.9988054
vn 0.029368827 0.039054945 -0.9988054
vn -0.0012941244 0.039635364 -0.99921334
vn -0.0012941244 0.039635364 -0.99921334
vn -0.029368827 0.039054945 -0.9988054
vn -0.029368827 0.039054945 -0.9988054
vn -0.029368827 0.039054945 -0.9988054
vn -0.029368827 0.039054945 -0.9988054
vn -0.038121596 -0.012230191 -0.99919826
vn -0.038121596 -0.012230191 -0.99919826
vn -0.038121596 -0.012230191 -0.99919826
vn -0.038121596 -0.012230191 -0.99919826
vn 0.06350353 -0.020429146 0.9977724
vn 0.06350353 -0.020429146 0.9977724
vn 0.06350353 -0.020429146 0.9977724
vn 0.06350353 -0.020429146 0.9977724
vn 0.077939145 0.020008272 0.9967573
vn 0.077939145 0.020008272 0.9967573
vn 0.9784137 -0.20665577 0
vn 0.9784137 -0.20665577 0
vn 0.9784137 -0.20665577 0
vn 0.9784137 -0.20665577 0
vn -0.99016654 -0.13860343 -0.018954799
vn -0.99016654 -0.13860343 -0.018954799
vn -0.99016654 -0.13860343 -0.018954799
vn -0.99016654 -0.13860343 -0.018954799
vn 0.052199785 -0.9984592 -0.018821787
vn 0.052199785 -0.9984592 -0.018821787
vn 0.052199785 -0.9984592 -0.018821787
vn 0.052199785 -0.9984592 -0.018821787
vn 0.048780523 0.06492123 0.9966974
vn 0.048780523 0.06492123 0.9966974
vn 0.048780523 0.06492123 0.9966974
vn 0.048780523 0.06492123 0.9966974
vn -0.6052514 -0.79582775 -0.018139577
vn -0.6052514 -0.79582775 -0.018139577
vn -0.6052514 -0.79582775 -0.018139577
vn -0.6052514 -0.79582775 -0.018139577
vn 0.598365 0.8012237 0
vn 0.598365 0.8012237 0
vn 0.598365 0.8012237 0
vn 0.598365 0.8012237 0
vn -0.0147232935 0.99989164 0
vn -0.0147232935 0.99989164 0
vn -0.0147232935 0.99989164 0
vn -0.0147232935 0.99989164 0
vn 0.014723293 0.99989164 0
vn 0.014723293 0.99989164 0
vn -0.0022162197 0.06610473 0.9978103
vn -0.0022162197 0.06610473 0.9978103
vn -0.0022162197 0.06610473 0.9978103
vn -0.0022162197 0.06610473 0.9978103
vn 0.0022162008 0.06610473 0.9978103
vn 0.0022162008 0.06610473 0.9978103
vn 0.7071067 0 0.7071068
vn 0.7071067 0 0.7071068
vn 0.7071067 0 0.7071068
vn 0.7071067 0 0.7071068
vn 0.9659258 0 -0.258819
vn 0.9659258 0 -0.258819
vn 0.9659258 0 -0.258819
vn 0.9659258 0 -0.258819
vn 0.2588193 0 -0.9659257
vn 0.2588193 0 -0.9659257
vn 0.2588193 0 -0.9659257
vn 0.2588193 0 -0.9659257
vn 0.2588193 0 0.9659257
vn 0.2588193 0 0.9659257
vn 0.2588193 0 0.9659257
vn 0.2588193 0 0.9659257
vn 0.9659257 0 0.25881916
vn 0.9659257 0 0.25881916
vn 0.9659257 0 0.25881916
vn 0.9659257 0 0.25881916
vn 0.70710665 0 -0.7071068
vn 0.70710665 0 -0.7071068
vn 0.70710665 0 -0.7071068
vn 0.70710665 0 -0.7071068
vn -0.1292535 0.86637336 -0.48238033
vn -0.1292535 0.86637336 -0.48238033
vn -0.1292535 0.86637336 -0.48238033
vn -0.1292535 0.86637336 -0.48238033
vn -0.3531269 0.86637336 -0.353127
vn -0.3531269 0.86637336 -0.353127
vn -0.3531269 0.86637336 -0.353127
vn -0.3531269 0.86637336 -0.353127
vn -0.48238024 0.8663734 -0.12925337
vn -0.48238024 0.8663734 -0.12925337
vn -0.48238024 0.8663734 -0.12925337
vn -0.48238024 0.8663734 -0.12925337
vn -0.48238045 0.86637324 0.12925346
vn -0.48238045 0.86637324 0.12925346
vn -0.48238045 0.86637324 0.12925346
vn -0.48238045 0.86637324 0.12925346
vn -0.353127 0.86637324 0.35312694
vn -0.353127 0.86637324 0.35312694
vn -0.353127 0.86637324 0.35312694
vn -0.353127 0.86637324 0.35312694
vn -0.12925349 0.86637336 0.48238033
vn -0.12925349 0.86637336 0.48238033
vn -0.12925349 0.86637336 0.48238033
vn -0.12925349 0.86637336 0.48238033
vn 0.913254 0.40692705 -0.019430669
vn 0.913254 0.40692705 -0.019430669
vn 0.913254 0.40692705 -0.019430669
vn 0.913254 0.40692705 -0.019430669
vn -0.9464768 0.3227718 0
vn -0.9464768 0.3227718 0
vn -0.9464768 0.3227718 0
vn -0.9464768 0.3227718 0
vn -0.06350355 -0.020429146 0.9977724
vn -0.06350355 -0.020429146 0.9977724
vn -0.06350355 -0.020429146 0.9977724
vn -0.06350355 -0.020429146 0.9977724
vn -0.07793917 0.02000827 0.9967573
vn -0.07793917 0.02000827 0.9967573
vn -0.9784137 -0.20665582 0
vn -0.9784137 -0.20665582 0
vn -0.9784137 -0.20665582 0
vn -0.9784137 -0.20665582 0
vn 0.99016654 -0.13860345 -0.018954786
vn 0.99016654 -0.13860345 -0.018954786
vn 0.99016654 -0.13860345 -0.018954786
vn 0.99016654 -0.13860345 -0.018954786
vn -0.05219978 -0.9984592 -0.018821787
vn -0.05219978 -0.9984592 -0.018821787
vn -0.05219978 -0.9984592 -0.018821787
vn -0.05219978 -0.9984592 -0.018821787
vn -0.048780523 0.06492123 0.9966974
vn -0.048780523 0.06492123 0.9966974
vn -0.048780523 0.06492123 0.9966974
vn -0.048780523 0.06492123 0.9966974
vn 0.6052513 -0.79582775 -0.018139616
vn 0.6052513 -0.79582775 -0.018139616
vn 0.6052513 -0.79582775 -0.018139616
vn 0.6052513 -0.79582775 -0.018139616
vn -0.598365 0.8012237 0
vn -0.598365 0.8012237 0
vn -0.598365 0.8012237 0
vn -0.598365 0.8012237 0
vn -0.7071067 0 0.7071068
vn -0.7071067 0 0.7071068
vn -0.7071067 0 0.7071068
vn -0.7071067 0 0.7071068
vn -0.9659258 0 -0.258819
vn -0.9659258 0 -0.258819
vn -0.9659258 0 -0.258819
vn -0.9659258 0 -0.258819
vn -0.2588193 0 -0.9659257
vn -0.2588193 0 -0.9659257
vn -0.2588193 0 -0.9659257
vn -0.2588193 0 -0.9659257
vn -0.2588193 0 0.9659257
vn -0.2588193 0 0.9659257
vn -0.2588193 0 0.9659257
vn -0.2588193 0 0.9659257
vn -0.9659257 0 0.25881916
vn -0.9659257 0 0.25881916
vn -0.9659257 0 0.25881916
vn -0.9659257 0 0.25881916
vn -0.70710665 0 -0.7071069
vn -0.70710665 0 -0.7071069
vn -0.70710665 0 -0.7071069
vn -0.70710665 0 -0.7071069
vn -0 1 0
vn -0 1 0
vn -0 1 0
vn -0 1 0
vn -0 1 0
vn -0 1 0
vn -0 1 0
vn -0 1 0
vn -0 1 0
vn -0 1 0
vn -0 1 0
vn -0 1 0
vn -0 1 0
vn -0 1 0
vn -0 1 0
vn -0 1 0
vn -0 1 0
vn -0 1 0
vn -0 1 0
vn -0 1 0
g BossPortalCollider_0
f 3/3/3 2/2/2 1/1/1
f 4/4/4 3/3/3 1/1/1
f 7/7/7 6/6/6 5/5/5
f 8/8/8 7/7/7 5/5/5
f 11/11/11 10/10/10 9/9/9
f 12/12/12 11/11/11 9/9/9
f 15/15/15 14/14/14 13/13/13
f 16/16/16 15/15/15 13/13/13
f 19/19/19 18/18/18 17/17/17
f 20/20/20 19/19/19 17/17/17
f 23/23/23 22/22/22 21/21/21
f 24/24/24 23/23/23 21/21/21
f 27/27/27 26/26/26 25/25/25
f 28/28/28 27/27/27 25/25/25
f 31/31/31 30/30/30 29/29/29
f 32/32/32 31/31/31 29/29/29
f 35/35/35 34/34/34 33/33/33
f 34/34/34 36/36/36 33/33/33
f 34/34/34 37/37/37 36/36/36
f 37/37/37 38/38/38 36/36/36
f 37/37/37 39/39/39 38/38/38
f 39/39/39 40/40/40 38/38/38
f 39/39/39 41/41/41 40/40/40
f 41/41/41 42/42/42 40/40/40
f 42/42/42 41/41/41 43/43/43
f 41/41/41 44/44/44 43/43/43
f 43/43/43 44/44/44 45/45/45
f 44/44/44 46/46/46 45/45/45
f 45/45/45 46/46/46 47/47/47
f 46/46/46 48/48/48 47/47/47
f 47/47/47 48/48/48 49/49/49
f 48/48/48 50/50/50 49/49/49
f 53/53/53 52/52/52 51/51/51
f 52/52/52 54/54/54 51/51/51
f 52/52/52 55/55/55 54/54/54
f 55/55/55 56/56/56 54/54/54
f 59/59/59 58/58/58 57/57/57
f 60/60/60 59/59/59 57/57/57
f 63/63/63 62/62/62 61/61/61
f 64/64/64 63/63/63 61/61/61
f 67/67/67 66/66/66 65/65/65
f 68/68/68 67/67/67 65/65/65
f 71/71/71 70/70/70 69/69/69
f 72/72/72 71/71/71 69/69/69
f 75/75/75 74/74/74 73/73/73
f 76/76/76 75/75/75 73/73/73
f 79/79/79 78/78/78 77/77/77
f 80/80/80 79/79/79 77/77/77
f 83/83/83 82/82/82 81/81/81
f 82/82/82 84/84/84 81/81/81
f 84/84/84 82/82/82 85/85/85
f 82/82/82 86/86/86 85/85/85
f 89/89/89 88/88/88 87/87/87
f 88/88/88 90/90/90 87/87/87
f 90/90/90 88/88/88 91/91/91
f 88/88/88 92/92/92 91/91/91
f 95/95/95 94/94/94 93/93/93
f 96/96/96 95/95/95 93/93/93
f 99/99/99 98/98/98 97/97/97
f 100/100/100 99/99/99 97/97/97
f 103/103/103 102/102/102 101/101/101
f 104/104/104 103/103/103 101/101/101
f 107/107/107 106/106/106 105/105/105
f 108/108/108 107/107/107 105/105/105
f 111/111/111 110/110/110 109/109/109
f 112/112/112 111/111/111 109/109/109
f 115/115/115 114/114/114 113/113/113
f 116/116/116 115/115/115 113/113/113
f 119/119/119 118/118/118 117/117/117
f 120/120/120 119/119/119 117/117/117
f 123/123/123 122/122/122 121/121/121
f 124/124/124 123/123/123 121/121/121
f 127/127/127 126/126/126 125/125/125
f 128/128/128 127/127/127 125/125/125
f 131/131/131 130/130/130 129/129/129
f 132/132/132 131/131/131 129/129/129
f 135/135/135 134/134/134 133/133/133
f 136/136/136 135/135/135 133/133/133
f 139/139/139 138/138/138 137/137/137
f 140/140/140 139/139/139 137/137/137
f 143/143/143 142/142/142 141/141/141
f 144/144/144 143/143/143 141/141/141
f 147/147/147 146/146/146 145/145/145
f 148/148/148 147/147/147 145/145/145
f 151/151/151 150/150/150 149/149/149
f 152/152/152 151/151/151 149/149/149
f 153/153/153 151/151/151 152/152/152
f 154/154/154 153/153/153 152/152/152
f 157/157/157 156/156/156 155/155/155
f 158/158/158 157/157/157 155/155/155
f 161/161/161 160/160/160 159/159/159
f 162/162/162 161/161/161 159/159/159
f 165/165/165 164/164/164 163/163/163
f 166/166/166 165/165/165 163/163/163
f 169/169/169 168/168/168 167/167/167
f 170/170/170 169/169/169 167/167/167
f 173/173/173 172/172/172 171/171/171
f 174/174/174 173/173/173 171/171/171
f 177/177/177 176/176/176 175/175/175
f 178/178/178 177/177/177 175/175/175
f 181/181/181 180/180/180 179/179/179
f 182/182/182 181/181/181 179/179/179
f 185/185/185 184/184/184 183/183/183
f 186/186/186 185/185/185 183/183/183
f 189/189/189 188/188/188 187/187/187
f 190/190/190 189/189/189 187/187/187
f 193/193/193 192/192/192 191/191/191
f 194/194/194 193/193/193 191/191/191
f 197/197/197 196/196/196 195/195/195
f 198/198/198 197/197/197 195/195/195
f 201/201/201 200/200/200 199/199/199
f 202/202/202 201/201/201 199/199/199
f 205/205/205 204/204/204 203/203/203
f 204/204/204 206/206/206 203/203/203
f 206/206/206 207/207/207 203/203/203
f 206/206/206 208/208/208 207/207/207
f 205/205/205 203/203/203 209/209/209
f 210/210/210 205/205/205 209/209/209
f 208/208/208 211/211/211 207/207/207
f 212/212/212 210/210/210 209/209/209
f 212/212/212 209/209/209 211/211/211
f 208/208/208 213/213/213 211/211/211
f 213/213/213 212/212/212 211/211/211
f 212/212/212 213/213/213 214/214/214
f 213/213/213 215/215/215 214/214/214
f 214/214/214 215/215/215 216/216/216
f 215/215/215 217/217/217 216/216/216
f 218/218/218 212/212/212 214/214/214
f 219/219/219 212/212/212 218/218/218
f 220/220/220 219/219/219 218/218/218
f 216/216/216 217/217/217 221/221/221
f 221/221/221 220/220/220 218/218/218
f 217/217/217 222/222/222 221/221/221
f 222/222/222 220/220/220 221/221/221
