g Cactus2
v -2.8688536E-09 0.5860923 -0.1729918
v 0.5075709 0.29304615 -0.1729918
v 0.48508126 0.37483776 2.9328318
v -0.16370735 0.7496756 2.9569879
v -0.50757086 0.29304612 -0.1729918
v -1.7018262E-08 0.22118719 -0.6143139
v -0.19155374 0.11059357 -0.6143139
v -0.8124959 0.3748377 2.981144
v -0.6635818 0.3741971 4.99375
v -0.0194863 0.74839437 4.9215584
v 0.62460923 0.37419716 4.849367
v -0.38052422 0.2556689 5.490891
v 0.062299162 0.5113379 5.48819
v 0.50757086 -0.2930462 -0.1729918
v -4.873892E-08 -0.5860923 -0.1729918
v -0.1637074 -0.7496756 2.9569879
v 0.4850812 -0.37483785 2.9328318
v 0.5075709 0.29304615 -0.1729918
v 0.19155371 -0.11059362 -0.6143139
v 0.19155371 0.11059357 -0.6143139
v 0.48508126 0.37483776 2.9328318
v 0.62460923 0.37419716 4.849367
v 0.6246092 -0.37419724 4.849367
v -0.019486383 -0.74839437 4.9215584
v 0.50512254 -0.255669 5.485488
v 0.062299117 -0.5113379 5.48819
v 0.50512254 0.25566894 5.485488
v 0.062299162 0.5113379 5.48819
v -0.0194863 0.74839437 4.9215584
v -4.873892E-08 -0.5860923 -0.1729918
v -0.19155374 -0.11059358 -0.6143139
v -0.50757086 -0.29304612 -0.17299178
v -3.0876386E-08 -0.22118719 -0.6143139
v 0.50757086 -0.2930462 -0.1729918
v -0.19155374 0.11059357 -0.6143139
v 0.19155371 -0.11059362 -0.6143139
v -1.7018262E-08 0.22118719 -0.6143139
v 0.19155371 0.11059357 -0.6143139
v -2.8688536E-09 0.5860923 -0.1729918
v 0.5075709 0.29304615 -0.1729918
v -0.50757086 -0.29304612 -0.17299178
v -0.19155374 -0.11059358 -0.6143139
v -0.19155374 0.11059357 -0.6143139
v -0.50757086 0.29304612 -0.1729918
v -0.8124959 0.3748377 2.981144
v -0.8124959 -0.3748377 2.981144
v -4.873892E-08 -0.5860923 -0.1729918
v -0.1637074 -0.7496756 2.9569879
v -0.019486383 -0.74839437 4.9215584
v -0.6635818 -0.3741971 4.99375
v -0.6635818 0.3741971 4.99375
v -0.38052422 -0.2556689 5.490891
v -0.38052422 0.2556689 5.490891
v -0.6635818 -0.3741971 4.99375
v 0.062299117 -0.5113379 5.48819
v -0.019486383 -0.74839437 4.9215584
v -0.38052422 -0.2556689 5.490891
v 0.06346623 -0.22892553 5.564627
v -0.13478535 -0.11446278 5.5658364
v -0.38052422 0.2556689 5.490891
v -0.13478535 0.11446273 5.5658364
v 0.062299162 0.5113379 5.48819
v 0.06346624 0.22892553 5.564627
v 0.50512254 0.25566894 5.485488
v 0.2617179 -0.11446279 5.5634174
v 0.50512254 -0.255669 5.485488
v 0.2617179 0.11446275 5.5634174
vt 0.7036133 0.9580078
vt 0.72753906 0.95166016
vt 0.72216797 0.70410156
vt 0.69140625 0.70947266
vt 0.65625 0.9589844
vt 0.6899414 0.9902344
vt 0.6723633 0.99072266
vt 0.6308594 0.70947266
vt 0.63671875 0.546875
vt 0.6972656 0.55126953
vt 0.72753906 0.5493164
vt 0.6508789 0.50439453
vt 0.69189453 0.50341797
vt 0.58740234 0.96191406
vt 0.61083984 0.9604492
vt 0.6245117 0.70703125
vt 0.5942383 0.7109375
vt 0.54003906 0.96191406
vt 0.5722656 0.99658203
vt 0.5546875 0.99658203
vt 0.5332031 0.7109375
vt 0.5336914 0.5566406
vt 0.5942383 0.5566406
vt 0.6245117 0.5488281
vt 0.58447266 0.5048828
vt 0.60498047 0.50341797
vt 0.54296875 0.5048828
vt 0.52246094 0.50341797
vt 0.50341797 0.5488281
vt 0.87890625 0.6855469
vt 0.8466797 0.66015625
vt 0.83154297 0.6855469
vt 0.8642578 0.66015625
vt 0.90283203 0.64453125
vt 0.83740234 0.64453125
vt 0.87353516 0.64453125
vt 0.8466797 0.62890625
vt 0.8642578 0.62890625
vt 0.83154297 0.6035156
vt 0.87890625 0.6035156
vt 0.78808594 0.54345703
vt 0.7734375 0.50341797
vt 0.7553711 0.50341797
vt 0.74072266 0.54345703
vt 0.734375 0.79785156
vt 0.7949219 0.79785156
vt 0.81152344 0.53515625
vt 0.8251953 0.78515625
vt 0.8251953 0.9379883
vt 0.7949219 0.95458984
vt 0.734375 0.95458984
vt 0.78515625 0.98876953
vt 0.7441406 0.98876953
vt 0.9082031 0.5966797
vt 0.8520508 0.57470703
vt 0.84814453 0.5966797
vt 0.8935547 0.5751953
vt 0.86376953 0.5546875
vt 0.8823242 0.5551758
vt 0.9145508 0.5395508
vt 0.89160156 0.5390625
vt 0.89404297 0.50341797
vt 0.8823242 0.5229492
vt 0.85253906 0.50341797
vt 0.8544922 0.5385742
vt 0.83154297 0.5390625
vt 0.86376953 0.5229492
vn 0.009353638 0.9428711 -0.33251953
vn 0.8251953 0.47094727 -0.31152344
vn 0.86035156 0.50878906 -0.03491211
vn -0.02017212 0.9995117 -0.025802612
vn -0.8076172 0.47143555 -0.35375977
vn -0 0.52734375 -0.8496094
vn -0.45654297 0.26367188 -0.8496094
vn -0.87060547 0.49145508 -0.015083313
vn -0.8276367 0.48413086 0.28344727
vn 0.0059318542 0.9824219 0.18615723
vn 0.86279297 0.4975586 0.087890625
vn -0.56640625 0.35766602 0.7421875
vn 0.048431396 0.7285156 0.68359375
vn 0.8251953 -0.47094727 -0.31152344
vn 0.009353638 -0.9428711 -0.33251953
vn -0.02017212 -0.9995117 -0.025802612
vn 0.86035156 -0.50878906 -0.03491211
vn 0.8251953 0.47094727 -0.31152344
vn 0.45654297 -0.26367188 -0.8496094
vn 0.45654297 0.26367188 -0.8496094
vn 0.86035156 0.50878906 -0.03491211
vn 0.86279297 0.4975586 0.087890625
vn 0.86279297 -0.4975586 0.087890625
vn 0.0059318542 -0.9824219 0.18615723
vn 0.68408203 -0.36938477 0.62890625
vn 0.048431396 -0.7285156 0.68359375
vn 0.68408203 0.36938477 0.62890625
vn 0.048431396 0.7285156 0.68359375
vn 0.0059318542 0.9824219 0.18615723
vn 0.009353638 -0.9428711 -0.33251953
vn -0.45654297 -0.26367188 -0.8496094
vn -0.8076172 -0.47143555 -0.35375977
vn -0 -0.52734375 -0.8496094
vn 0.8251953 -0.47094727 -0.31152344
vn -0.45654297 0.26367188 -0.8496094
vn 0.45654297 -0.26367188 -0.8496094
vn -0 0.52734375 -0.8496094
vn 0.45654297 0.26367188 -0.8496094
vn 0.009353638 0.9428711 -0.33251953
vn 0.8251953 0.47094727 -0.31152344
vn -0.8076172 -0.47143555 -0.35375977
vn -0.45654297 -0.26367188 -0.8496094
vn -0.45654297 0.26367188 -0.8496094
vn -0.8076172 0.47143555 -0.35375977
vn -0.87060547 0.49145508 -0.015083313
vn -0.87060547 -0.49145508 -0.015083313
vn 0.009353638 -0.9428711 -0.33251953
vn -0.02017212 -0.9995117 -0.025802612
vn 0.0059318542 -0.9824219 0.18615723
vn -0.8276367 -0.48413086 0.28344727
vn -0.8276367 0.48413086 0.28344727
vn -0.56640625 -0.35766602 0.7421875
vn -0.56640625 0.35766602 0.7421875
vn -0.8276367 -0.48413086 0.28344727
vn 0.048431396 -0.7285156 0.68359375
vn 0.0059318542 -0.9824219 0.18615723
vn -0.56640625 -0.35766602 0.7421875
vn 0.006252289 -0.1743164 0.9848633
vn -0.14465332 -0.08709717 0.98583984
vn -0.56640625 0.35766602 0.7421875
vn -0.14465332 0.08709717 0.98583984
vn 0.048431396 0.7285156 0.68359375
vn 0.006252289 0.1743164 0.9848633
vn 0.68408203 0.36938477 0.62890625
vn 0.15734863 -0.08721924 0.9838867
vn 0.68408203 -0.36938477 0.62890625
vn 0.15734863 0.08721924 0.9838867
g Cactus2_0
f 3/3/3 2/2/2 1/1/1
f 4/4/4 3/3/3 1/1/1
f 4/4/4 1/1/1 5/5/5
f 1/1/1 6/6/6 5/5/5
f 6/6/6 7/7/7 5/5/5
f 8/8/8 4/4/4 5/5/5
f 8/8/8 9/9/9 4/4/4
f 4/4/4 10/10/10 3/3/3
f 9/9/9 10/10/10 4/4/4
f 10/10/10 11/11/11 3/3/3
f 9/9/9 12/12/12 10/10/10
f 12/12/12 13/13/13 10/10/10
f 16/16/16 15/15/15 14/14/14
f 17/17/17 16/16/16 14/14/14
f 17/17/17 14/14/14 18/18/18
f 14/14/14 19/19/19 18/18/18
f 19/19/19 20/20/20 18/18/18
f 21/21/21 17/17/17 18/18/18
f 21/21/21 22/22/22 17/17/17
f 17/17/17 23/23/23 16/16/16
f 22/22/22 23/23/23 17/17/17
f 23/23/23 24/24/24 16/16/16
f 23/23/23 25/25/25 24/24/24
f 25/25/25 26/26/26 24/24/24
f 27/27/27 25/25/25 23/23/23
f 22/22/22 27/27/27 23/23/23
f 28/28/28 27/27/27 22/22/22
f 29/29/29 28/28/28 22/22/22
f 32/32/32 31/31/31 30/30/30
f 31/31/31 33/33/33 30/30/30
f 30/30/30 33/33/33 34/34/34
f 33/33/33 31/31/31 35/35/35
f 33/33/33 36/36/36 34/34/34
f 33/33/33 35/35/35 37/37/37
f 38/38/38 36/36/36 33/33/33
f 33/33/33 37/37/37 38/38/38
f 38/38/38 37/37/37 39/39/39
f 40/40/40 38/38/38 39/39/39
f 43/43/43 42/42/42 41/41/41
f 44/44/44 43/43/43 41/41/41
f 45/45/45 44/44/44 41/41/41
f 46/46/46 45/45/45 41/41/41
f 46/46/46 41/41/41 47/47/47
f 48/48/48 46/46/46 47/47/47
f 48/48/48 49/49/49 46/46/46
f 49/49/49 50/50/50 46/46/46
f 46/46/46 50/50/50 45/45/45
f 50/50/50 51/51/51 45/45/45
f 50/50/50 52/52/52 51/51/51
f 52/52/52 53/53/53 51/51/51
f 56/56/56 55/55/55 54/54/54
f 55/55/55 57/57/57 54/54/54
f 55/55/55 58/58/58 57/57/57
f 58/58/58 59/59/59 57/57/57
f 57/57/57 59/59/59 60/60/60
f 59/59/59 61/61/61 60/60/60
f 61/61/61 59/59/59 58/58/58
f 60/60/60 61/61/61 62/62/62
f 61/61/61 63/63/63 62/62/62
f 63/63/63 61/61/61 58/58/58
f 62/62/62 63/63/63 64/64/64
f 65/65/65 58/58/58 55/55/55
f 63/63/63 58/58/58 65/65/65
f 66/66/66 65/65/65 55/55/55
f 64/64/64 67/67/67 66/66/66
f 63/63/63 67/67/67 64/64/64
f 65/65/65 67/67/67 63/63/63
f 67/67/67 65/65/65 66/66/66
