g Campfire
v -0.36882466 -0.55437917 0.08757585
v -0.52551776 -0.717441 -0.021222055
v -0.28339663 -0.6927885 -0.0749864
v -0.1437675 -0.6267731 0.10192026
v -0.12695366 -0.8588676 0.01108712
v -0.36882466 -0.55437917 0.08757585
v -0.5132824 -0.67928255 0.23329723
v -0.52551776 -0.717441 -0.021222055
v -0.5082416 -0.91118085 0.14732614
v -0.12695366 -0.8588676 0.01108712
v -0.17361663 -0.8044998 0.23285621
v -0.1437675 -0.6267731 0.10192026
v -0.28214028 -0.9651353 0.1585289
v -0.37209427 -0.8560693 0.3617113
v -0.5082416 -0.91118085 0.14732614
v -0.37209427 -0.8560693 0.3617113
v -0.28214028 -0.9651353 0.1585289
v -0.5132824 -0.67928255 0.23329723
v 1.0138358 0.09558802 0.20956855
v 1.1074531 -0.05502265 0.08443922
v 1.0046198 -0.107242614 0.29743114
v 0.935312 -0.21906552 0.095121816
v 0.94303685 -0.068101116 -0.09374215
v 1.0046198 -0.107242614 0.29743114
v 0.84058696 0.0649575 0.33239493
v 1.0138358 0.09558802 0.20956855
v 0.8529316 0.18457359 0.14899337
v 0.84058696 0.0649575 0.33239493
v 0.652338 0.06045527 0.16822118
v 0.8529316 0.18457359 0.14899337
v 0.8172688 0.06897411 0.0130440295
v 0.7155142 -0.1358097 0.003295906
v 0.94303685 -0.068101116 -0.09374215
v 0.7155142 -0.1358097 0.003295906
v 0.935312 -0.21906552 0.095121816
v 0.8172688 0.06897411 0.0130440295
v 0.8381127 0.49822304 -0.04764071
v 0.92309403 0.33291346 0.05967985
v 0.9942721 0.55102974 0.081082106
v 0.9409039 0.4328779 0.26925328
v 0.75784427 0.31847012 0.21219084
v 0.8909552 0.6715159 0.2633992
v 0.8381127 0.49822304 -0.04764071
v 0.62122977 0.57529736 -0.03780338
v 0.6888134 0.32806614 -0.015154108
v 0.92309403 0.33291346 0.05967985
v 0.75784427 0.31847012 0.21219084
v 0.62122977 0.57529736 -0.03780338
v 0.61200476 0.45566356 0.16209191
v 0.6888134 0.32806614 -0.015154108
v 0.63832855 0.6907368 0.1981248
v 0.7267614 0.5025323 0.35089806
v 0.6888134 0.32806614 -0.015154108
v 0.61200476 0.45566356 0.16209191
v 0.75784427 0.31847012 0.21219084
v 0.7267614 0.5025323 0.35089806
v 0.9409039 0.4328779 0.26925328
v 0.8909552 0.6715159 0.2633992
v 0.7267614 0.5025323 0.35089806
v 0.63832855 0.6907368 0.1981248
v 0.9409039 0.4328779 0.26925328
v 0.2931535 0.60065967 0.01914464
v 0.49726665 0.68362546 0.04575771
v 0.3825809 0.79113656 -0.12622306
v 0.17818618 0.8167756 0.021358758
v 0.20349653 0.69248176 0.22659154
v 0.3825809 0.79113656 -0.12622306
v 0.3497504 0.9624286 0.037153393
v 0.17818618 0.8167756 0.021358758
v 0.5578644 0.8876976 0.024296641
v 0.45990187 0.9558277 0.21533054
v 0.24622044 0.9189661 0.21781531
v 0.3825809 0.79113656 -0.12622306
v 0.49726665 0.68362546 0.04575771
v 0.5578644 0.8876976 0.024296641
v 0.5403041 0.7713518 0.20384124
v 0.41894865 0.60138875 0.22096086
v 0.2931535 0.60065967 0.01914464
v 0.3825809 0.79113656 0.35095954
v 0.3497504 0.9624286 0.037153393
v 0.24622044 0.9189661 0.21781531
v 0.17818618 0.8167756 0.021358758
v 0.20349653 0.69248176 0.22659154
v 0.2931535 0.60065967 0.01914464
v 0.20349653 0.69248176 0.22659154
v 0.41894865 0.60138875 0.22096086
v 0.3825809 0.79113656 0.35095954
v 0.24622044 0.9189661 0.21781531
v 0.5578644 0.8876976 0.024296641
v 0.5403041 0.7713518 0.20384124
v 0.45990187 0.9558277 0.21533054
v 0.3825809 0.79113656 0.35095954
v 0.24622044 0.9189661 0.21781531
v -0.13172427 1.0590135 0.10582717
v 0.03812907 0.9475279 0.23610273
v -0.19243376 0.9523909 0.3060508
v -0.074897796 0.7536332 0.31490108
v -0.3105212 0.72448695 0.012394831
v -0.07372218 0.70769995 -0.076309785
v -0.19526902 0.9160641 -0.060319647
v -0.14022307 0.6184218 0.14245898
v -0.2942307 0.75135416 0.24959502
v -0.14022307 0.6184218 0.14245898
v -0.3105212 0.72448695 0.012394831
v -0.074897796 0.7536332 0.31490108
v -0.19243376 0.9523909 0.3060508
v -0.13172427 1.0590135 0.10582717
v 0.008353062 0.91347104 0.010071486
v 0.03812907 0.9475279 0.23610273
v -0.19526902 0.9160641 -0.060319647
v -0.07372218 0.70769995 -0.076309785
v -0.6303085 0.8192366 0.031812586
v -0.7892155 0.6739746 0.033778027
v -0.6122934 0.6350259 -0.06920505
v -0.469146 0.697522 0.046259254
v -0.48307648 0.4894092 0.027017105
v -0.50840867 0.8119862 0.22696143
v -0.6122934 0.6350259 -0.06920505
v -0.7892155 0.6739746 0.033778027
v -0.7090808 0.47015595 0.028766798
v -0.48307648 0.4894092 0.027017105
v -0.59343207 0.44216007 0.22125429
v -0.6303085 0.8192366 0.031812586
v -0.7229228 0.75969607 0.20769906
v -0.7892155 0.6739746 0.033778027
v -0.75291044 0.5736349 0.20107864
v -0.7090808 0.47015595 0.028766798
v -0.6122935 0.63502604 0.33395052
v -0.6303085 0.8192366 0.031812586
v -0.50840867 0.8119862 0.22696143
v -0.7229228 0.75969607 0.20769906
v -0.6122935 0.63502604 0.33395052
v -0.40037656 0.5883739 0.23285691
v -0.469146 0.697522 0.046259254
v -0.40037656 0.5883739 0.23285691
v -0.50840867 0.8119862 0.22696143
v -0.48307648 0.4894092 0.027017105
v -0.59343207 0.44216007 0.22125429
v -0.7090808 0.47015595 0.028766798
v -0.75291044 0.5736349 0.20107864
v -0.59343207 0.44216007 0.22125429
v -0.6122935 0.63502604 0.33395052
v -0.40037656 0.5883739 0.23285691
v -0.9429662 0.034477793 0.0818779
v -0.90134114 0.03013815 0.34946534
v -0.7529586 -0.09167293 0.1477451
v -0.63985926 0.06678907 0.28561506
v -0.7529586 -0.09167293 0.1477451
v -0.7655774 0.022424947 -0.06604868
v -0.9429662 0.034477793 0.0818779
v -0.9031643 0.22934374 -0.058875527
v -0.9429662 0.034477793 0.0818779
v -0.93603486 0.2311908 0.1772286
v -0.90134114 0.03013815 0.34946534
v -0.9031643 0.22934374 -0.058875527
v -0.7729633 0.3704429 0.10167056
v -0.7655774 0.022424947 -0.06604868
v -0.67580265 0.21409196 -0.017822947
v -0.9031643 0.22934374 -0.058875527
v -0.7729633 0.3704429 0.10167056
v -0.63876766 0.21782655 0.15372936
v -0.5806109 -0.27503514 0.18261558
v -0.58122593 -0.49842572 0.16544357
v -0.713921 -0.39811772 0.26893935
v -0.7908662 -0.21069561 0.24838328
v -0.91849387 -0.40298152 0.2732449
v -0.5806109 -0.27503514 0.18261558
v -0.57777 -0.37371653 -0.0373666
v -0.58122593 -0.49842572 0.16544357
v -0.7206739 -0.56126255 0.0044746995
v -0.7837034 -0.5923696 0.22648081
v -0.58122593 -0.49842572 0.16544357
v -0.7837034 -0.5923696 0.22648081
v -0.713921 -0.39811772 0.26893935
v -0.91849387 -0.40298152 0.2732449
v -0.90643936 -0.4876681 0.07387835
v -0.57777 -0.37371653 -0.0373666
v -0.81056947 -0.3766479 -0.06978361
v -0.7206739 -0.56126255 0.0044746995
v -0.90643936 -0.4876681 0.07387835
v -0.9699205 -0.25380588 0.073639095
v -0.7837034 -0.5923696 0.22648081
v -0.7908662 -0.21069561 0.24838328
v -0.91849387 -0.40298152 0.2732449
v -0.9699205 -0.25380588 0.073639095
v -0.90643936 -0.4876681 0.07387835
v 0.18040928 -0.9402907 0.09522888
v 0.088109985 -0.7873862 -0.029365912
v 0.056553446 -0.8069619 0.1981058
v 0.30811077 -0.88190347 -0.08469288
v 0.40227497 -0.9608599 0.1354647
v 0.27465358 -0.62668717 -0.07400194
v 0.18040928 -0.9402907 0.09522888
v 0.2315942 -0.92118037 0.31917503
v 0.40227497 -0.9608599 0.1354647
v 0.056553446 -0.8069619 0.1981058
v 0.20664863 -0.68581903 0.29969466
v 0.40227497 -0.9608599 0.1354647
v 0.48082015 -0.7384744 0.038778156
v 0.30811077 -0.88190347 -0.08469288
v 0.39665392 -0.76468843 0.2584089
v 0.2315942 -0.92118037 0.31917503
v 0.056553446 -0.8069619 0.1981058
v 0.1226567 -0.61336464 0.11467217
v 0.20664863 -0.68581903 0.29969466
v 0.088109985 -0.7873862 -0.029365912
v 0.27465358 -0.62668717 -0.07400194
v 0.30811077 -0.88190347 -0.08469288
v 0.48082015 -0.7384744 0.038778156
v 0.27465358 -0.62668717 -0.07400194
v 0.33708435 -0.5837579 0.15816283
v 0.1226567 -0.61336464 0.11467217
v 0.2315942 -0.92118037 0.31917503
v 0.20664863 -0.68581903 0.29969466
v 0.39665392 -0.76468843 0.2584089
v 0.33708435 -0.5837579 0.15816283
v 0.1226567 -0.61336464 0.11467217
v 0.48082015 -0.7384744 0.038778156
v 0.67035836 -0.51379585 -0.07052886
v 0.59583366 -0.35242182 0.062214594
v 0.5040504 -0.5714195 0.079106
v 0.58505 -0.45250088 0.26255283
v 0.67035836 -0.51379585 -0.07052886
v 0.85937625 -0.5755246 -0.0053566378
v 0.8242978 -0.34781742 -0.01271024
v 0.59583366 -0.35242182 0.062214594
v 0.7531532 -0.3690969 0.19522509
v 0.85937625 -0.5755246 -0.0053566378
v 0.8987828 -0.47303015 0.15938829
v 0.8242978 -0.34781742 -0.01271024
v 0.8648326 -0.68895346 0.19009756
v 0.7810184 -0.5180559 0.31324652
v 0.5040504 -0.5714195 0.079106
v 0.58505 -0.45250088 0.26255283
v 0.6354742 -0.6726359 0.25208262
v 0.7810184 -0.5180559 0.31324652
v 0.8648326 -0.68895346 0.19009756
v 0.59583366 -0.35242182 0.062214594
v 0.7531532 -0.3690969 0.19522509
v 0.58505 -0.45250088 0.26255283
v 0.7810184 -0.5180559 0.31324652
v 0.8987828 -0.47303015 0.15938829
v 0.8242978 -0.34781742 -0.01271024
v -0.4990988 -0.088324055 -0.0123781115
v -0.4990988 0.08391377 -0.0123781115
v -0.60022455 0.08391376 0.12704736
v -0.60022455 -0.08832409 0.12704735
v -0.4990988 0.08391377 -0.0123781115
v 0.093085304 0.08391371 0.4171348
v -0.008040421 0.0839137 0.5565603
v -0.60022455 0.08391376 0.12704736
v 0.093085304 0.08391371 0.4171348
v 0.09308531 -0.08832412 0.4171348
v -0.008040428 -0.08832412 0.5565603
v -0.008040421 0.0839137 0.5565603
v 0.09308531 -0.08832412 0.4171348
v -0.4990988 -0.088324055 -0.0123781115
v -0.60022455 -0.08832409 0.12704735
v -0.008040428 -0.08832412 0.5565603
v -0.4990988 0.08391377 -0.0123781115
v -0.4990988 -0.088324055 -0.0123781115
v 0.09308531 -0.08832412 0.4171348
v 0.093085304 0.08391371 0.4171348
v -0.008040421 0.0839137 0.5565603
v -0.008040428 -0.08832412 0.5565603
v -0.60022455 -0.08832409 0.12704735
v -0.60022455 0.08391376 0.12704736
v -0.34966508 0.49139363 -0.012378119
v -0.21270885 0.5958392 -0.012378156
v -0.27403197 0.67625016 0.12704736
v -0.41098806 0.5718045 0.12704733
v -0.21270885 0.5958392 -0.012378156
v 0.14639342 0.12495969 0.4171348
v 0.08507053 0.2053705 0.5565603
v -0.27403197 0.67625016 0.12704736
v 0.14639342 0.12495969 0.4171348
v 0.009437308 0.02051413 0.4171348
v -0.05188568 0.10092494 0.5565603
v 0.08507053 0.2053705 0.5565603
v 0.009437308 0.02051413 0.4171348
v -0.34966508 0.49139363 -0.012378119
v -0.41098806 0.5718045 0.12704733
v -0.05188568 0.10092494 0.5565603
v -0.21270885 0.5958392 -0.012378156
v -0.34966508 0.49139363 -0.012378119
v 0.009437308 0.02051413 0.4171348
v 0.14639342 0.12495969 0.4171348
v 0.08507053 0.2053705 0.5565603
v -0.05188568 0.10092494 0.5565603
v -0.41098806 0.5718045 0.12704733
v -0.27403197 0.67625016 0.12704736
v 0.4161078 0.5044698 -0.012378171
v 0.5438614 0.38894963 -0.012378141
v 0.6116866 0.4639574 0.12704735
v 0.48393294 0.5794774 0.12704736
v 0.5438614 0.38894963 -0.012378141
v 0.14668277 -0.050289564 0.4171348
v 0.21450788 0.02471809 0.55656016
v 0.6116866 0.4639574 0.12704735
v 0.14668277 -0.050289564 0.4171348
v 0.018929236 0.0652305 0.4171348
v 0.08675436 0.14023824 0.55656016
v 0.21450788 0.02471809 0.55656016
v 0.018929236 0.0652305 0.4171348
v 0.4161078 0.5044698 -0.012378171
v 0.48393294 0.5794774 0.12704736
v 0.08675436 0.14023824 0.55656016
v 0.5438614 0.38894963 -0.012378141
v 0.4161078 0.5044698 -0.012378171
v 0.018929236 0.0652305 0.4171348
v 0.14668277 -0.050289564 0.4171348
v 0.21450788 0.02471809 0.55656016
v 0.08675436 0.14023824 0.55656016
v 0.48393294 0.5794774 0.12704736
v 0.6116866 0.4639574 0.12704735
v 0.47939017 -0.42461675 -0.0123781115
v 0.34380135 -0.53083134 -0.0123781115
v 0.40616304 -0.6104395 0.12704737
v 0.54175174 -0.5042247 0.12704736
v 0.34380135 -0.53083134 -0.0123781115
v -0.02138355 -0.06465324 0.4171348
v 0.04097812 -0.14426126 0.55656016
v 0.40616304 -0.6104395 0.12704737
v -0.02138355 -0.06465324 0.4171348
v 0.11420512 0.04156141 0.41713476
v 0.17656684 -0.038046584 0.5565603
v 0.04097812 -0.14426126 0.55656016
v 0.11420512 0.04156141 0.41713476
v 0.47939017 -0.42461675 -0.0123781115
v 0.54175174 -0.5042247 0.12704736
v 0.17656684 -0.038046584 0.5565603
v 0.34380135 -0.53083134 -0.0123781115
v 0.47939017 -0.42461675 -0.0123781115
v 0.11420512 0.04156141 0.41713476
v -0.02138355 -0.06465324 0.4171348
v 0.04097812 -0.14426126 0.55656016
v 0.17656684 -0.038046584 0.5565603
v 0.54175174 -0.5042247 0.12704736
v 0.40616304 -0.6104395 0.12704737
v -0.12554017 -0.5818809 -0.0207351
v -0.2865926 -0.5208951 -0.017779037
v -0.3301251 -0.6414343 0.09729108
v -0.16907269 -0.7024199 0.09433511
v -0.2865926 -0.5208951 -0.017779037
v -0.1047537 -0.06706858 0.52640784
v -0.14828616 -0.1876076 0.64147806
v -0.3301251 -0.6414343 0.09729108
v -0.1047537 -0.06706858 0.52640784
v 0.05629859 -0.12805432 0.5234518
v 0.012766197 -0.24859332 0.638522
v -0.14828616 -0.1876076 0.64147806
v 0.05629859 -0.12805432 0.5234518
v -0.12554017 -0.5818809 -0.0207351
v -0.16907269 -0.7024199 0.09433511
v 0.012766197 -0.24859332 0.638522
v -0.2865926 -0.5208951 -0.017779037
v -0.12554017 -0.5818809 -0.0207351
v 0.05629859 -0.12805432 0.5234518
v -0.1047537 -0.06706858 0.52640784
v -0.14828616 -0.1876076 0.64147806
v 0.012766197 -0.24859332 0.638522
v -0.16907269 -0.7024199 0.09433511
v -0.3301251 -0.6414343 0.09729108
v 0.11895453 -0.49105328 0.086506695
v 0.045723505 -0.45600528 0.23841032
v 0.19218121 -0.49804288 0.31871504
v 0.26541233 -0.5330907 0.16681147
v 0.045723505 -0.45600528 0.23841032
v 0.2725955 0.23762675 0.1877448
v 0.41905314 0.19558924 0.2680495
v 0.19218121 -0.49804288 0.31871504
v 0.2725955 0.23762675 0.1877448
v 0.34582657 0.20257881 0.03584121
v 0.4922843 0.16054142 0.116145924
v 0.41905314 0.19558924 0.2680495
v 0.34582657 0.20257881 0.03584121
v 0.11895453 -0.49105328 0.086506695
v 0.26541233 -0.5330907 0.16681147
v 0.4922843 0.16054142 0.116145924
v 0.045723505 -0.45600528 0.23841032
v 0.11895453 -0.49105328 0.086506695
v 0.34582657 0.20257881 0.03584121
v 0.2725955 0.23762675 0.1877448
v 0.41905314 0.19558924 0.2680495
v 0.4922843 0.16054142 0.116145924
v 0.26541233 -0.5330907 0.16681147
v 0.19218121 -0.49804288 0.31871504
v 0.20762411 0.026474208 0.08650668
v 0.17307375 -0.046992928 0.23841034
v 0.2141168 0.09974669 0.3187151
v 0.248667 0.17321375 0.16681145
v 0.17307375 -0.046992928 0.23841034
v -0.5220815 0.17516823 0.18774481
v -0.48103854 0.32190773 0.26804954
v 0.2141168 0.09974669 0.3187151
v -0.5220815 0.17516823 0.18774481
v -0.48753116 0.2486353 0.035841208
v -0.4464883 0.39537486 0.116145924
v -0.48103854 0.32190773 0.26804954
v -0.48753116 0.2486353 0.035841208
v 0.20762411 0.026474208 0.08650668
v 0.248667 0.17321375 0.16681145
v -0.4464883 0.39537486 0.116145924
v 0.17307375 -0.046992928 0.23841034
v 0.20762411 0.026474208 0.08650668
v -0.48753116 0.2486353 0.035841208
v -0.5220815 0.17516823 0.18774481
v -0.48103854 0.32190773 0.26804954
v -0.4464883 0.39537486 0.116145924
v 0.248667 0.17321375 0.16681145
v 0.2141168 0.09974669 0.3187151
v -0.26561764 -0.2577608 -0.071599625
v -0.1420807 -0.26192272 0.048346892
v -0.1715433 -0.09610718 0.08444479
v -0.2950803 -0.09194539 -0.035501685
v -0.1420807 -0.26192272 0.048346892
v -0.6362398 -0.45903623 0.5504589
v -0.6657024 -0.2932209 0.5865567
v -0.1715433 -0.09610718 0.08444479
v -0.6362398 -0.45903623 0.5504589
v -0.7597768 -0.4548744 0.43051234
v -0.7892394 -0.28905892 0.46661016
v -0.6657024 -0.2932209 0.5865567
v -0.7597768 -0.4548744 0.43051234
v -0.26561764 -0.2577608 -0.071599625
v -0.2950803 -0.09194539 -0.035501685
v -0.7892394 -0.28905892 0.46661016
v -0.1420807 -0.26192272 0.048346892
v -0.26561764 -0.2577608 -0.071599625
v -0.7597768 -0.4548744 0.43051234
v -0.6362398 -0.45903623 0.5504589
v -0.6657024 -0.2932209 0.5865567
v -0.7892394 -0.28905892 0.46661016
v -0.2950803 -0.09194539 -0.035501685
v -0.1715433 -0.09610718 0.08444479
v -0.5806109 -0.27503514 0.18261558
v -0.7908662 -0.21069561 0.24838328
v -0.72967285 -0.20712563 0.03307551
v -0.57777 -0.37371653 -0.0373666
v -0.9699205 -0.25380588 0.073639095
v -0.81056947 -0.3766479 -0.06978361
v -0.7612367 0.23451191 0.26920268
v -0.63876766 0.21782655 0.15372936
v -0.63985926 0.06678907 0.28561506
v -0.90134114 0.03013815 0.34946534
v -0.7729633 0.3704429 0.10167056
v -0.93603486 0.2311908 0.1772286
v -0.7655774 0.022424947 -0.06604868
v -0.61247873 0.06595352 0.07830468
v -0.67580265 0.21409196 -0.017822947
v -0.7529586 -0.09167293 0.1477451
v -0.63876766 0.21782655 0.15372936
v -0.63985926 0.06678907 0.28561506
v -0.074897796 0.7536332 0.31490108
v 0.02606054 0.75118667 0.12858045
v -0.14022307 0.6184218 0.14245898
v 0.03812907 0.9475279 0.23610273
v -0.07372218 0.70769995 -0.076309785
v 0.008353062 0.91347104 0.010071486
v 0.84058696 0.0649575 0.33239493
v 0.7873273 -0.1252409 0.23235491
v 0.652338 0.06045527 0.16822118
v 1.0046198 -0.107242614 0.29743114
v 0.7155142 -0.1358097 0.003295906
v 0.935312 -0.21906552 0.095121816
v 1.0138358 0.09558802 0.20956855
v 0.9888656 0.119163446 0.021603718
v 1.1074531 -0.05502265 0.08443922
v 0.8529316 0.18457359 0.14899337
v 0.94303685 -0.068101116 -0.09374215
v 0.8172688 0.06897411 0.0130440295
v -0.1437675 -0.6267731 0.10192026
v -0.17361663 -0.8044998 0.23285621
v -0.28863773 -0.63823986 0.2792739
v -0.36882466 -0.55437917 0.08757585
v -0.37209427 -0.8560693 0.3617113
v -0.5132824 -0.67928255 0.23329723
v -0.28339663 -0.6927885 -0.0749864
v -0.52551776 -0.717441 -0.021222055
v -0.35390544 -0.8772609 -0.0075781047
v -0.12695366 -0.8588676 0.01108712
v -0.5082416 -0.91118085 0.14732614
v -0.28214028 -0.9651353 0.1585289
v 0.6986066 -0.67025954 0.04990448
v 0.8648326 -0.68895346 0.19009756
v 0.85937625 -0.5755246 -0.0053566378
v 0.67035836 -0.51379585 -0.07052886
v 0.6354742 -0.6726359 0.25208262
v 0.5040504 -0.5714195 0.079106
v -0.13172427 1.0590135 0.10582717
v -0.19243376 0.9523909 0.3060508
v -0.33055988 0.9380531 0.119293004
v -0.19526902 0.9160641 -0.060319647
v -0.2942307 0.75135416 0.24959502
v -0.3105212 0.72448695 0.012394831
v 0.81816465 0.6585617 0.047715545
v 0.63832855 0.6907368 0.1981248
v 0.62122977 0.57529736 -0.03780338
v 0.8381127 0.49822304 -0.04764071
v 0.8909552 0.6715159 0.2633992
v 0.9942721 0.55102974 0.081082106
vt 0.77734375 0.3996582
vt 0.828125 0.42578125
vt 0.8276367 0.3708496
vt 0.77734375 0.3400879
vt 0.828125 0.31860352
vt 0.33691406 0.85009766
vt 0.34057617 0.9057617
vt 0.3935547 0.86816406
vt 0.3935547 0.9296875
vt 0.34106445 0.7597656
vt 0.38891602 0.79052734
vt 0.3935547 0.73535156
vt 0.34326172 0.81396484
vt 0.3935547 0.83496094
vt 0.94628906 0.57958984
vt 0.9008789 0.5415039
vt 0.88916016 0.59375
vt 0.94628906 0.5185547
vt 0.8071289 0.09631348
vt 0.80029297 0.055023193
vt 0.75390625 0.09057617
vt 0.75146484 0.03012085
vt 0.8071289 0.0075302124
vt 0.31860352 0.9511719
vt 0.31860352 0.8935547
vt 0.27270508 0.9213867
vt 0.27075195 0.87402344
vt 0.25561523 0.85839844
vt 0.24609375 0.81347656
vt 0.20483398 0.83740234
vt 0.21008301 0.7915039
vt 0.25561523 0.75634766
vt 0.78564453 0.5
vt 0.83496094 0.4584961
vt 0.77734375 0.44067383
vt 0.82910156 0.5
vt 0.42114258 0.6303711
vt 0.3803711 0.6308594
vt 0.42114258 0.6723633
vt 0.36572266 0.6879883
vt 0.34106445 0.64941406
vt 0.40600586 0.72021484
vt 0.08886719 0.82714844
vt 0.13793945 0.85839844
vt 0.1303711 0.80029297
vt 0.08404541 0.7734375
vt 0.13793945 0.7631836
vt 0.27075195 0.7734375
vt 0.31884766 0.80615234
vt 0.3203125 0.75634766
vt 0.27075195 0.83935547
vt 0.3203125 0.8588867
vt 0.87109375 0.11517334
vt 0.8227539 0.13793945
vt 0.8666992 0.15637207
vt 0.8183594 0.18884277
vt 0.87109375 0.21057129
vt 0.82666016 0.038085938
vt 0.8779297 0.07165527
vt 0.8779297 0.0075302124
vt 0.8222656 0.09289551
vt 0.46044922 0.89453125
vt 0.46289062 0.8486328
vt 0.40966797 0.85546875
vt 0.4086914 0.9169922
vt 0.46289062 0.93408203
vt 0.57373047 0.71728516
vt 0.5292969 0.6772461
vt 0.5180664 0.71728516
vt 0.5805664 0.65527344
vt 0.53564453 0.6279297
vt 0.49975586 0.6621094
vt 0.10235596 0.32617188
vt 0.11767578 0.36865234
vt 0.15612793 0.3310547
vt 0.16186523 0.38452148
vt 0.124816895 0.41992188
vt 0.08404541 0.38793945
vt 0.17785645 0.41992188
vt 0.7714844 0.97802734
vt 0.7714844 0.92871094
vt 0.7236328 0.96191406
vt 0.71972656 0.9033203
vt 0.7270508 0.79296875
vt 0.71972656 0.8432617
vt 0.77197266 0.8154297
vt 0.77197266 0.87402344
vt 0.7290039 0.8886719
vt 0.05883789 0.8417969
vt 0.012786865 0.86328125
vt 0.05508423 0.88183594
vt 0.0075302124 0.9140625
vt 0.05883789 0.9326172
vt 0.20373535 0.95214844
vt 0.25561523 0.9301758
vt 0.20483398 0.89697266
vt 0.25561523 0.87353516
vt 0.96240234 0.44750977
vt 0.91015625 0.484375
vt 0.96240234 0.5019531
vt 0.9091797 0.42700195
vt 0.8105469 0.85546875
vt 0.86035156 0.828125
vt 0.8105469 0.81347656
vt 0.86035156 0.8847656
vt 0.8125 0.90966797
vt 0.8105469 0.71875
vt 0.85839844 0.74902344
vt 0.8598633 0.6958008
vt 0.81103516 0.7758789
vt 0.8598633 0.79833984
vt 0.69140625 0.038208008
vt 0.6586914 0.053741455
vt 0.6933594 0.087524414
vt 0.7348633 0.0619812
vt 0.7368164 0.098083496
vt 0.7368164 0.0075302124
vt 0.8901367 0.18457031
vt 0.9375 0.20410156
vt 0.93408203 0.15551758
vt 0.88623047 0.13012695
vt 0.9375 0.11517334
vt 0.28173828 0.65185547
vt 0.23742676 0.6743164
vt 0.28125 0.7006836
vt 0.23864746 0.7207031
vt 0.28173828 0.74121094
vt 0.20483398 0.6933594
vt 0.6660156 0.9121094
vt 0.6645508 0.8779297
vt 0.6201172 0.8984375
vt 0.6147461 0.8486328
vt 0.6660156 0.81884766
vt 0.8779297 0.7211914
vt 0.92529297 0.73828125
vt 0.9223633 0.6958008
vt 0.875 0.7714844
vt 0.92529297 0.79052734
vt 0.91748047 0.81347656
vt 0.8774414 0.8364258
vt 0.9238281 0.8574219
vt 0.8754883 0.88671875
vt 0.9238281 0.9111328
vt 0.88916016 0.6088867
vt 0.89208984 0.65234375
vt 0.9448242 0.6201172
vt 0.9448242 0.6801758
vt 0.5498047 0.9345703
vt 0.5498047 0.87841797
vt 0.49975586 0.90234375
vt 0.5048828 0.8413086
vt 0.009117126 0.640625
vt 0.055236816 0.6660156
vt 0.066589355 0.6044922
vt 0.0075302124 0.70166016
vt 0.066589355 0.7158203
vt 0.9404297 0.29833984
vt 0.9375 0.25805664
vt 0.88623047 0.28442383
vt 0.89453125 0.22351074
vt 0.9404297 0.21923828
vt 0.89404297 0.08734131
vt 0.9375 0.09954834
vt 0.93359375 0.056884766
vt 0.8925781 0.029785156
vt 0.9375 0.0075302124
vt 0.5576172 0.7324219
vt 0.49975586 0.74853516
vt 0.546875 0.7841797
vt 0.50341797 0.8066406
vt 0.5576172 0.8261719
vt 0.0947876 0.87353516
vt 0.08404541 0.9169922
vt 0.13061523 0.9038086
vt 0.13061523 0.9536133
vt 0.08483887 0.9580078
vt 0.17675781 0.21008301
vt 0.12841797 0.23596191
vt 0.17614746 0.26245117
vt 0.13061523 0.28759766
vt 0.08404541 0.2626953
vt 0.17675781 0.31103516
vt 0.99072266 0.88427734
vt 0.99072266 0.82714844
vt 0.9433594 0.86279297
vt 0.93896484 0.81347656
vt 0.47338867 0.26098633
vt 0.43041992 0.2944336
vt 0.47338867 0.3034668
vt 0.42578125 0.23327637
vt 0.4711914 0.20739746
vt 0.38305664 0.26391602
vt 0.82470703 0.5473633
vt 0.86279297 0.56591797
vt 0.87402344 0.5185547
vt 0.82128906 0.5991211
vt 0.87402344 0.61328125
vt 0.36669922 0.44482422
vt 0.3125 0.4794922
vt 0.36669922 0.50097656
vt 0.31640625 0.42211914
vt 0.36450195 0.39746094
vt 0.84765625 0.33520508
vt 0.8935547 0.36669922
vt 0.89453125 0.31860352
vt 0.84277344 0.39282227
vt 0.89453125 0.41479492
vt 0.064941406 0.73095703
vt 0.0075302124 0.74902344
vt 0.06262207 0.77734375
vt 0.014312744 0.8100586
vt 0.064941406 0.82714844
vt 0.17236328 0.53222656
vt 0.17211914 0.47802734
vt 0.12536621 0.5024414
vt 0.1262207 0.4482422
vt 0.17236328 0.4350586
vt 0.08404541 0.47607422
vt 0.86035156 0.9897461
vt 0.86035156 0.94433594
vt 0.81396484 0.9824219
vt 0.8076172 0.9248047
vt 0.81933594 0.28686523
vt 0.8691406 0.30297852
vt 0.86035156 0.26416016
vt 0.8183594 0.23132324
vt 0.8691406 0.22558594
vt 0.953125 0.3869629
vt 0.9091797 0.36328125
vt 0.90966797 0.41186523
vt 0.953125 0.33129883
vt 0.90966797 0.31860352
vt 0.46142578 0.73535156
vt 0.4086914 0.7553711
vt 0.4543457 0.7788086
vt 0.4104004 0.80859375
vt 0.46142578 0.8334961
vt 0.15991211 0.7285156
vt 0.13208008 0.7026367
vt 0.11352539 0.7480469
vt 0.08404541 0.7060547
vt 0.10784912 0.66503906
vt 0.15991211 0.66796875
vt 0.9555664 0.22851562
vt 0.9555664 0.26904297
vt 0.9902344 0.25976562
vt 0.9902344 0.21923828
vt 0.19384766 0.19152832
vt 0.19384766 0.0075302124
vt 0.16040039 0.0099105835
vt 0.16040039 0.19384766
vt 0.9526367 0.0075302124
vt 0.9526367 0.048034668
vt 0.98828125 0.05709839
vt 0.98828125 0.016586304
vt 0.7685547 0.11517334
vt 0.7685547 0.25341797
vt 0.80322266 0.2705078
vt 0.80322266 0.13244629
vt 0.19384766 0.19152832
vt 0.22167969 0.19433594
vt 0.22167969 0.010406494
vt 0.19384766 0.0075302124
vt 0.7055664 0.31860352
vt 0.6694336 0.32543945
vt 0.6694336 0.5029297
vt 0.7055664 0.4958496
vt 0.5991211 0.90722656
vt 0.5649414 0.92089844
vt 0.5649414 0.9580078
vt 0.5991211 0.94433594
vt 0.76220703 0.45458984
vt 0.76220703 0.31860352
vt 0.72021484 0.3269043
vt 0.72021484 0.46289062
vt 0.9404297 0.7338867
vt 0.97558594 0.74609375
vt 0.97558594 0.7080078
vt 0.9404297 0.6958008
vt 0.26245117 0.19543457
vt 0.26245117 0.014183044
vt 0.23669434 0.0075302124
vt 0.23669434 0.18884277
vt 0.29736328 0.009284973
vt 0.26245117 0.014183044
vt 0.26245117 0.19543457
vt 0.29736328 0.19055176
vt 0.71777344 0.29345703
vt 0.75341797 0.30004883
vt 0.75341797 0.1217041
vt 0.71777344 0.11517334
vt 0.14575195 0.97753906
vt 0.18725586 0.97753906
vt 0.18725586 0.93408203
vt 0.14575195 0.93408203
vt 0.049835205 0.58984375
vt 0.049835205 0.41235352
vt 0.0075302124 0.40966797
vt 0.0075302124 0.58691406
vt 0.18676758 0.9189453
vt 0.18676758 0.87597656
vt 0.14575195 0.87353516
vt 0.14575195 0.9160156
vt 0.5571289 0.32128906
vt 0.5571289 0.49731445
vt 0.5996094 0.4946289
vt 0.5996094 0.31860352
vt 0.54248047 0.31860352
vt 0.49975586 0.3190918
vt 0.49975586 0.50341797
vt 0.54248047 0.5029297
vt 0.48461914 0.31860352
vt 0.4416504 0.31860352
vt 0.4416504 0.50341797
vt 0.48461914 0.50341797
vt 0.5649414 0.8413086
vt 0.5649414 0.87890625
vt 0.5996094 0.89208984
vt 0.5996094 0.8544922
vt 0.80615234 0.6533203
vt 0.80615234 0.5185547
vt 0.7709961 0.5366211
vt 0.7709961 0.67089844
vt 0.1529541 0.80126953
vt 0.18811035 0.81396484
vt 0.18811035 0.7758789
vt 0.1529541 0.7631836
vt 0.34350586 0.19213867
vt 0.34350586 0.0075302124
vt 0.3125 0.0076942444
vt 0.3125 0.19238281
vt 0.37402344 0.007698059
vt 0.34350586 0.0075302124
vt 0.34350586 0.19213867
vt 0.37402344 0.19238281
vt 0.66796875 0.6977539
vt 0.70458984 0.7036133
vt 0.70458984 0.52441406
vt 0.66796875 0.5185547
vt 0.85009766 0.48413086
vt 0.8935547 0.48413086
vt 0.8935547 0.44067383
vt 0.85009766 0.44067383
vt 0.0075302124 0.20983887
vt 0.0075302124 0.39453125
vt 0.050994873 0.39453125
vt 0.050994873 0.20983887
vt 0.8647461 0.671875
vt 0.8647461 0.62841797
vt 0.82128906 0.62841797
vt 0.82128906 0.671875
vt 0.4326172 0.19213867
vt 0.4326172 0.007549286
vt 0.38916016 0.0075302124
vt 0.38916016 0.19213867
vt 0.42651367 0.31884766
vt 0.38305664 0.31860352
vt 0.38305664 0.50146484
vt 0.42651367 0.5019531
vt 0.5493164 0.0079193115
vt 0.5058594 0.0075302124
vt 0.5058594 0.18823242
vt 0.5493164 0.18859863
vt 0.32714844 0.20739746
vt 0.3125 0.23474121
vt 0.35327148 0.24169922
vt 0.36791992 0.21447754
vt 0.3125 0.23474121
vt 0.32714844 0.37524414
vt 0.36791992 0.38232422
vt 0.35327148 0.24169922
vt 0.95214844 0.16186523
vt 0.9902344 0.15783691
vt 0.9902344 0.11517334
vt 0.95214844 0.11920166
vt 0.71972656 0.5185547
vt 0.71972656 0.6665039
vt 0.75634766 0.68066406
vt 0.75634766 0.5332031
vt 0.6147461 0.70410156
vt 0.65283203 0.703125
vt 0.65283203 0.5185547
vt 0.6147461 0.52001953
vt 0.7026367 0.11633301
vt 0.6640625 0.11517334
vt 0.6640625 0.29956055
vt 0.7026367 0.30078125
vt 0.6147461 0.9272461
vt 0.6147461 0.9707031
vt 0.6582031 0.9707031
vt 0.6582031 0.9272461
vt 0.44750977 0.0075302124
vt 0.44750977 0.19213867
vt 0.49072266 0.19226074
vt 0.49072266 0.0075531006
vt 0.9189453 0.96972656
vt 0.9189453 0.92626953
vt 0.8754883 0.92626953
vt 0.8754883 0.96972656
vt 0.4802246 0.703125
vt 0.4802246 0.5185547
vt 0.4416504 0.5185547
vt 0.4416504 0.7036133
vt 0.6489258 0.117248535
vt 0.60839844 0.11517334
vt 0.60839844 0.29833984
vt 0.6489258 0.30029297
vt 0.6542969 0.31860352
vt 0.6147461 0.3215332
vt 0.6147461 0.50390625
vt 0.6542969 0.50097656
vt 0.33691406 0.9448242
vt 0.33691406 0.98779297
vt 0.3725586 0.9926758
vt 0.3725586 0.94970703
vt 0.14538574 0.18933105
vt 0.14538574 0.0085372925
vt 0.11224365 0.014297485
vt 0.11224365 0.19506836
vt 0.93359375 0.96728516
vt 0.97314453 0.97314453
vt 0.97314453 0.9321289
vt 0.93359375 0.92626953
vt 0.03866577 0.19482422
vt 0.03866577 0.012779236
vt 0.0075302124 0.007663727
vt 0.0075302124 0.18969727
vt 0.06903076 0.0075302124
vt 0.03866577 0.012779236
vt 0.03866577 0.19482422
vt 0.06903076 0.1895752
vt 0.11224365 0.014297485
vt 0.08404541 0.0075302124
vt 0.08404541 0.18823242
vt 0.11224365 0.19506836
vt 0.20483398 0.5859375
vt 0.22875977 0.63671875
vt 0.25341797 0.6010742
vt 0.24633789 0.54296875
vt 0.2927246 0.63671875
vt 0.29418945 0.5751953
vt 0.12231445 0.5986328
vt 0.08404541 0.58935547
vt 0.09075928 0.63916016
vt 0.15759277 0.64990234
vt 0.11578369 0.546875
vt 0.15759277 0.5830078
vt 0.79541016 0.7661133
vt 0.7583008 0.7441406
vt 0.7421875 0.77783203
vt 0.79541016 0.70654297
vt 0.71972656 0.74072266
vt 0.73779297 0.6958008
vt 0.5888672 0.5600586
vt 0.54248047 0.5732422
vt 0.56640625 0.61279297
vt 0.54589844 0.5185547
vt 0.5048828 0.61279297
vt 0.49975586 0.55322266
vt 0.23950195 0.32470703
vt 0.26220703 0.375
vt 0.29736328 0.33691406
vt 0.20483398 0.37426758
vt 0.29736328 0.40283203
vt 0.23852539 0.42016602
vt 0.6147461 0.7734375
vt 0.6489258 0.75634766
vt 0.6245117 0.71972656
vt 0.6508789 0.80371094
vt 0.6850586 0.7192383
vt 0.6850586 0.7734375
vt 0.5493164 0.20373535
vt 0.5058594 0.23937988
vt 0.5493164 0.2565918
vt 0.5932617 0.24304199
vt 0.50878906 0.30029297
vt 0.5732422 0.30029297
vt 0.20715332 0.24853516
vt 0.21728516 0.30981445
vt 0.25341797 0.26367188
vt 0.25561523 0.21057129
vt 0.28198242 0.30981445
vt 0.29736328 0.25390625
vt 0.6142578 0.048217773
vt 0.6435547 0.017654419
vt 0.5913086 0.0075302124
vt 0.56396484 0.049835205
vt 0.6435547 0.07775879
vt 0.59375 0.099365234
vt 0.20483398 0.4819336
vt 0.24182129 0.52783203
vt 0.25146484 0.47851562
vt 0.23852539 0.4350586
vt 0.29614258 0.50634766
vt 0.29614258 0.44604492
vt 0.38549805 0.56689453
vt 0.42651367 0.53466797
vt 0.36328125 0.51708984
vt 0.34106445 0.5703125
vt 0.42651367 0.60058594
vt 0.3684082 0.61572266
vn -0.15759277 0.97753906 -0.1394043
vn -0.7578125 0.15551758 -0.6333008
vn 0.17236328 0.2927246 -0.9404297
vn 0.7841797 0.6191406 -0.03881836
vn 0.77490234 -0.43432617 -0.45922852
vn -0.15759277 0.97753906 -0.1394043
vn -0.77001953 0.42456055 0.4765625
vn -0.7578125 0.15551758 -0.6333008
vn -0.7324219 -0.68066406 0.015731812
vn 0.77490234 -0.43432617 -0.45922852
vn 0.79248047 -0.18713379 0.5805664
vn 0.7841797 0.6191406 -0.03881836
vn 0.23095703 -0.96777344 0.09967041
vn -0.10406494 -0.34692383 0.9321289
vn -0.7324219 -0.68066406 0.015731812
vn -0.10406494 -0.34692383 0.9321289
vn 0.23095703 -0.96777344 0.09967041
vn -0.77001953 0.42456055 0.4765625
vn 0.67041016 0.6123047 0.4194336
vn 0.9770508 -0.14001465 -0.16052246
vn 0.48486328 -0.42114258 0.76660156
vn 0.18933105 -0.9785156 -0.08166504
vn 0.20336914 -0.15490723 -0.9667969
vn 0.48486328 -0.42114258 0.76660156
vn -0.16699219 0.3310547 0.92871094
vn 0.67041016 0.6123047 0.4194336
vn -0.117248535 0.99316406 0.011886597
vn -0.16699219 0.3310547 0.92871094
vn -0.94091797 0.31420898 0.12573242
vn -0.117248535 0.99316406 0.011886597
vn -0.40356445 0.5546875 -0.72753906
vn -0.7114258 -0.48535156 -0.5083008
vn 0.20336914 -0.15490723 -0.9667969
vn -0.7114258 -0.48535156 -0.5083008
vn 0.18933105 -0.9785156 -0.08166504
vn -0.40356445 0.5546875 -0.72753906
vn 0.32202148 0.07055664 -0.94433594
vn 0.61279297 -0.7236328 -0.3173828
vn 0.9160156 0.26464844 -0.30126953
vn 0.6875 -0.3491211 0.63671875
vn -0.19213867 -0.87646484 0.44140625
vn 0.46606445 0.7260742 0.5058594
vn 0.32202148 0.07055664 -0.94433594
vn -0.63671875 0.32202148 -0.7001953
vn -0.40966797 -0.71533203 -0.56640625
vn 0.61279297 -0.7236328 -0.3173828
vn -0.19213867 -0.87646484 0.44140625
vn -0.63671875 0.32202148 -0.7001953
vn -0.9272461 -0.29492188 0.23010254
vn -0.40966797 -0.71533203 -0.56640625
vn -0.61035156 0.75146484 0.25024414
vn -0.3046875 -0.082092285 0.94873047
vn -0.40966797 -0.71533203 -0.56640625
vn -0.9272461 -0.29492188 0.23010254
vn -0.19213867 -0.87646484 0.44140625
vn -0.3046875 -0.082092285 0.94873047
vn 0.6875 -0.3491211 0.63671875
vn 0.46606445 0.7260742 0.5058594
vn -0.3046875 -0.082092285 0.94873047
vn -0.61035156 0.75146484 0.25024414
vn 0.6875 -0.3491211 0.63671875
vn -0.30810547 -0.8491211 -0.42944336
vn 0.71435547 -0.6040039 -0.35351562
vn 0.0569458 0.006000519 -0.99853516
vn -0.8930664 0.17956543 -0.4128418
vn -0.7792969 -0.41479492 0.46923828
vn 0.0569458 0.006000519 -0.99853516
vn -0.16149902 0.9116211 -0.3779297
vn -0.8930664 0.17956543 -0.4128418
vn 0.8330078 0.40405273 -0.37817383
vn 0.4020996 0.80371094 0.43823242
vn -0.61621094 0.66259766 0.42578125
vn 0.0569458 0.006000519 -0.99853516
vn 0.71435547 -0.6040039 -0.35351562
vn 0.8330078 0.40405273 -0.37817383
vn 0.9057617 -0.13867188 0.4008789
vn 0.28515625 -0.8623047 0.41796875
vn -0.30810547 -0.8491211 -0.42944336
vn 0.06958008 0.02407837 0.9970703
vn -0.16149902 0.9116211 -0.3779297
vn -0.61621094 0.66259766 0.42578125
vn -0.8930664 0.17956543 -0.4128418
vn -0.7792969 -0.41479492 0.46923828
vn -0.30810547 -0.8491211 -0.42944336
vn -0.7792969 -0.41479492 0.46923828
vn 0.28515625 -0.8623047 0.41796875
vn 0.06958008 0.02407837 0.9970703
vn -0.61621094 0.66259766 0.42578125
vn 0.8330078 0.40405273 -0.37817383
vn 0.9057617 -0.13867188 0.4008789
vn 0.4020996 0.80371094 0.43823242
vn 0.06958008 0.02407837 0.9970703
vn -0.61621094 0.66259766 0.42578125
vn 0.021896362 0.9916992 -0.12768555
vn 0.7871094 0.43066406 0.44189453
vn -0.27172852 0.5073242 0.8178711
vn 0.31396484 -0.4177246 0.85253906
vn -0.76171875 -0.45483398 -0.46118164
vn 0.32666016 -0.50097656 -0.80126953
vn -0.25610352 0.42407227 -0.86865234
vn 0.041625977 -0.9902344 0.13122559
vn -0.70996094 -0.38623047 0.5888672
vn 0.041625977 -0.9902344 0.13122559
vn -0.76171875 -0.45483398 -0.46118164
vn 0.31396484 -0.4177246 0.85253906
vn -0.27172852 0.5073242 0.8178711
vn 0.021896362 0.9916992 -0.12768555
vn 0.7426758 0.36499023 -0.56103516
vn 0.7871094 0.43066406 0.44189453
vn -0.25610352 0.42407227 -0.86865234
vn 0.32666016 -0.50097656 -0.80126953
vn -0.080444336 0.87402344 -0.4790039
vn -0.8959961 0.1920166 -0.40063477
vn 0.03475952 0.04156494 -0.99853516
vn 0.7753906 0.36450195 -0.5151367
vn 0.59375 -0.6166992 -0.51708984
vn 0.4243164 0.81103516 0.40234375
vn 0.03475952 0.04156494 -0.99853516
vn -0.8959961 0.1920166 -0.40063477
vn -0.5078125 -0.7451172 -0.43286133
vn 0.59375 -0.6166992 -0.51708984
vn -0.012260437 -0.8876953 0.45996094
vn -0.080444336 0.87402344 -0.4790039
vn -0.65625 0.6098633 0.44384766
vn -0.8959961 0.1920166 -0.40063477
vn -0.8378906 -0.3088379 0.45043945
vn -0.5078125 -0.7451172 -0.43286133
vn -0.13220215 -0.0014238358 0.99121094
vn -0.080444336 0.87402344 -0.4790039
vn 0.4243164 0.81103516 0.40234375
vn -0.65625 0.6098633 0.44384766
vn -0.13220215 -0.0014238358 0.99121094
vn 0.8955078 -0.1763916 0.4091797
vn 0.7753906 0.36450195 -0.5151367
vn 0.8955078 -0.1763916 0.4091797
vn 0.4243164 0.81103516 0.40234375
vn 0.59375 -0.6166992 -0.51708984
vn -0.012260437 -0.8876953 0.45996094
vn -0.5078125 -0.7451172 -0.43286133
vn -0.8378906 -0.3088379 0.45043945
vn -0.012260437 -0.8876953 0.45996094
vn -0.13220215 -0.0014238358 0.99121094
vn 0.8955078 -0.1763916 0.4091797
vn -0.8496094 -0.47094727 -0.23803711
vn -0.48828125 -0.31396484 0.8144531
vn 0.1394043 -0.9902344 0.017089844
vn 0.7182617 -0.18762207 0.67041016
vn 0.1394043 -0.9902344 0.017089844
vn 0.091552734 -0.5151367 -0.8520508
vn -0.8496094 -0.47094727 -0.23803711
vn -0.55078125 0.36279297 -0.75146484
vn -0.8496094 -0.47094727 -0.23803711
vn -0.8173828 0.49243164 0.29858398
vn -0.48828125 -0.31396484 0.8144531
vn -0.55078125 0.36279297 -0.75146484
vn 0.08679199 0.99609375 -0.009529114
vn 0.091552734 -0.5151367 -0.8520508
vn 0.6352539 0.37060547 -0.6772461
vn -0.55078125 0.36279297 -0.75146484
vn 0.08679199 0.99609375 -0.009529114
vn 0.8569336 0.48046875 0.18615723
vn 0.78027344 0.49829102 0.37817383
vn 0.8071289 -0.5019531 0.31079102
vn 0.2932129 -0.054504395 0.95458984
vn -0.06518555 0.7597656 0.64697266
vn -0.66259766 -0.11694336 0.7397461
vn 0.78027344 0.49829102 0.37817383
vn 0.72509766 0.06842041 -0.6850586
vn 0.8071289 -0.5019531 0.31079102
vn 0.10211182 -0.81396484 -0.5722656
vn -0.10900879 -0.859375 0.49951172
vn 0.8071289 -0.5019531 0.31079102
vn -0.10900879 -0.859375 0.49951172
vn 0.2932129 -0.054504395 0.95458984
vn -0.66259766 -0.11694336 0.7397461
vn -0.77490234 -0.5551758 -0.30273438
vn 0.72509766 0.06842041 -0.6850586
vn -0.2890625 0.01612854 -0.95703125
vn 0.10211182 -0.81396484 -0.5722656
vn -0.77490234 -0.5551758 -0.30273438
vn -0.8359375 0.49560547 -0.2364502
vn -0.10900879 -0.859375 0.49951172
vn -0.06518555 0.7597656 0.64697266
vn -0.66259766 -0.11694336 0.7397461
vn -0.8359375 0.49560547 -0.2364502
vn -0.77490234 -0.5551758 -0.30273438
vn -0.43798828 -0.8847656 -0.15808105
vn -0.7783203 -0.105407715 -0.61865234
vn -0.9316406 -0.15344238 0.32910156
vn 0.16259766 -0.51171875 -0.84375
vn 0.5908203 -0.80322266 0.07598877
vn 0.04788208 0.6401367 -0.76660156
vn -0.43798828 -0.8847656 -0.15808105
vn -0.113586426 -0.58935547 0.7998047
vn 0.5908203 -0.80322266 0.07598877
vn -0.9316406 -0.15344238 0.32910156
vn -0.21154785 0.47973633 0.8515625
vn 0.5908203 -0.80322266 0.07598877
vn 0.94628906 0.1739502 -0.27246094
vn 0.16259766 -0.51171875 -0.84375
vn 0.6972656 0.114746094 0.70751953
vn -0.113586426 -0.58935547 0.7998047
vn -0.9316406 -0.15344238 0.32910156
vn -0.63378906 0.7729492 0.022750854
vn -0.21154785 0.47973633 0.8515625
vn -0.7783203 -0.105407715 -0.61865234
vn 0.04788208 0.6401367 -0.76660156
vn 0.16259766 -0.51171875 -0.84375
vn 0.94628906 0.1739502 -0.27246094
vn 0.04788208 0.6401367 -0.76660156
vn 0.36450195 0.8959961 0.25317383
vn -0.63378906 0.7729492 0.022750854
vn -0.113586426 -0.58935547 0.7998047
vn -0.21154785 0.47973633 0.8515625
vn 0.6972656 0.114746094 0.70751953
vn 0.36450195 0.8959961 0.25317383
vn -0.63378906 0.7729492 0.022750854
vn 0.94628906 0.1739502 -0.27246094
vn -0.24584961 -0.082214355 -0.9658203
vn -0.5683594 0.79003906 -0.22937012
vn -0.9321289 -0.28027344 -0.22875977
vn -0.5996094 0.37841797 0.7055664
vn -0.24584961 -0.082214355 -0.9658203
vn 0.6645508 -0.3486328 -0.6611328
vn 0.45922852 0.71875 -0.52197266
vn -0.5683594 0.79003906 -0.22937012
vn 0.20117188 0.8520508 0.4831543
vn 0.6645508 -0.3486328 -0.6611328
vn 0.9267578 0.28930664 0.23999023
vn 0.45922852 0.71875 -0.52197266
vn 0.62646484 -0.7402344 0.2446289
vn 0.3095703 0.10809326 0.9448242
vn -0.9321289 -0.28027344 -0.22875977
vn -0.5996094 0.37841797 0.7055664
vn -0.39794922 -0.72265625 0.5649414
vn 0.3095703 0.10809326 0.9448242
vn 0.62646484 -0.7402344 0.2446289
vn -0.5683594 0.79003906 -0.22937012
vn 0.20117188 0.8520508 0.4831543
vn -0.5996094 0.37841797 0.7055664
vn 0.3095703 0.10809326 0.9448242
vn 0.9267578 0.28930664 0.23999023
vn 0.45922852 0.71875 -0.52197266
vn -0.8095703 0 -0.58691406
vn -0.8095703 0 -0.58691406
vn -0.8095703 0 -0.58691406
vn -0.8095703 0 -0.58691406
vn -0 1 0
vn -0 1 0
vn -0 1 0
vn -0 1 0
vn 0.8095703 0 0.58691406
vn 0.8095703 0 0.58691406
vn 0.8095703 0 0.58691406
vn 0.8095703 0 0.58691406
vn -0 -1 0
vn -0 -1 0
vn -0 -1 0
vn -0 -1 0
vn 0.58691406 0 -0.8095703
vn 0.58691406 0 -0.8095703
vn 0.58691406 0 -0.8095703
vn 0.58691406 0 -0.8095703
vn -0.58691406 0 0.8095703
vn -0.58691406 0 0.8095703
vn -0.58691406 0 0.8095703
vn -0.58691406 0 0.8095703
vn -0.4909668 0.6435547 -0.58691406
vn -0.4909668 0.6435547 -0.58691406
vn -0.4909668 0.6435547 -0.58691406
vn -0.4909668 0.6435547 -0.58691406
vn 0.7949219 0.6064453 0
vn 0.7949219 0.6064453 0
vn 0.7949219 0.6064453 0
vn 0.7949219 0.6064453 0
vn 0.4909668 -0.6435547 0.58691406
vn 0.4909668 -0.6435547 0.58691406
vn 0.4909668 -0.6435547 0.58691406
vn 0.4909668 -0.6435547 0.58691406
vn -0.7949219 -0.6064453 0
vn -0.7949219 -0.6064453 0
vn -0.7949219 -0.6064453 0
vn -0.7949219 -0.6064453 0
vn 0.35595703 -0.46679688 -0.8095703
vn 0.35595703 -0.46679688 -0.8095703
vn 0.35595703 -0.46679688 -0.8095703
vn 0.35595703 -0.46679688 -0.8095703
vn -0.35595703 0.46679688 0.8095703
vn -0.35595703 0.46679688 0.8095703
vn -0.35595703 0.46679688 0.8095703
vn -0.35595703 0.46679688 0.8095703
vn 0.54296875 0.60058594 -0.58691406
vn 0.54296875 0.60058594 -0.58691406
vn 0.54296875 0.60058594 -0.58691406
vn 0.54296875 0.60058594 -0.58691406
vn 0.7416992 -0.67089844 0
vn 0.7416992 -0.67089844 0
vn 0.7416992 -0.67089844 0
vn 0.7416992 -0.67089844 0
vn -0.54296875 -0.60058594 0.58691406
vn -0.54296875 -0.60058594 0.58691406
vn -0.54296875 -0.60058594 0.58691406
vn -0.54296875 -0.60058594 0.58691406
vn -0.7416992 0.67089844 0
vn -0.7416992 0.67089844 0
vn -0.7416992 0.67089844 0
vn -0.7416992 0.67089844 0
vn -0.39379883 -0.43554688 -0.8095703
vn -0.39379883 -0.43554688 -0.8095703
vn -0.39379883 -0.43554688 -0.8095703
vn -0.39379883 -0.43554688 -0.8095703
vn 0.39379883 0.43554688 0.8095703
vn 0.39379883 0.43554688 0.8095703
vn 0.39379883 0.43554688 0.8095703
vn 0.39379883 0.43554688 0.8095703
vn 0.49926758 -0.63720703 -0.58691406
vn 0.49926758 -0.63720703 -0.58691406
vn 0.49926758 -0.63720703 -0.58691406
vn 0.49926758 -0.63720703 -0.58691406
vn -0.7871094 -0.6166992 0
vn -0.7871094 -0.6166992 0
vn -0.7871094 -0.6166992 0
vn -0.7871094 -0.6166992 0
vn -0.49926758 0.63720703 0.58691406
vn -0.49926758 0.63720703 0.58691406
vn -0.49926758 0.63720703 0.58691406
vn -0.49926758 0.63720703 0.58691406
vn 0.7871094 0.6166992 0
vn 0.7871094 0.6166992 0
vn 0.7871094 0.6166992 0
vn 0.7871094 0.6166992 0
vn -0.36206055 0.4621582 -0.8095703
vn -0.36206055 0.4621582 -0.8095703
vn -0.36206055 0.4621582 -0.8095703
vn -0.36206055 0.4621582 -0.8095703
vn 0.36206055 -0.4621582 0.8095703
vn 0.36206055 -0.4621582 0.8095703
vn 0.36206055 -0.4621582 0.8095703
vn 0.36206055 -0.4621582 0.8095703
vn -0.24853516 -0.62060547 -0.74365234
vn -0.24853516 -0.62060547 -0.74365234
vn -0.24853516 -0.62060547 -0.74365234
vn -0.24853516 -0.62060547 -0.74365234
vn -0.9350586 0.3540039 0.017166138
vn -0.9350586 0.3540039 0.017166138
vn -0.9350586 0.3540039 0.017166138
vn -0.9350586 0.3540039 0.017166138
vn 0.24853516 0.62060547 0.74365234
vn 0.24853516 0.62060547 0.74365234
vn 0.24853516 0.62060547 0.74365234
vn 0.24853516 0.62060547 0.74365234
vn 0.9350586 -0.3540039 -0.017166138
vn 0.9350586 -0.3540039 -0.017166138
vn 0.9350586 -0.3540039 -0.017166138
vn 0.9350586 -0.3540039 -0.017166138
vn 0.25268555 0.69970703 -0.66796875
vn 0.25268555 0.69970703 -0.66796875
vn 0.25268555 0.69970703 -0.66796875
vn 0.25268555 0.69970703 -0.66796875
vn -0.25268555 -0.69970703 0.66796875
vn -0.25268555 -0.69970703 0.66796875
vn -0.25268555 -0.69970703 0.66796875
vn -0.25268555 -0.69970703 0.66796875
vn -0.3100586 -0.9482422 0.0692749
vn -0.3100586 -0.9482422 0.0692749
vn -0.3100586 -0.9482422 0.0692749
vn -0.3100586 -0.9482422 0.0692749
vn -0.42529297 0.20349121 0.88183594
vn -0.42529297 0.20349121 0.88183594
vn -0.42529297 0.20349121 0.88183594
vn -0.42529297 0.20349121 0.88183594
vn 0.3100586 0.9482422 -0.0692749
vn 0.3100586 0.9482422 -0.0692749
vn 0.3100586 0.9482422 -0.0692749
vn 0.3100586 0.9482422 -0.0692749
vn 0.42529297 -0.20349121 -0.88183594
vn 0.42529297 -0.20349121 -0.88183594
vn 0.42529297 -0.20349121 -0.88183594
vn 0.42529297 -0.20349121 -0.88183594
vn -0.85009766 0.24401855 -0.4663086
vn -0.85009766 0.24401855 -0.4663086
vn -0.85009766 0.24401855 -0.4663086
vn -0.85009766 0.24401855 -0.4663086
vn 0.85009766 -0.24401855 0.4663086
vn 0.85009766 -0.24401855 0.4663086
vn 0.85009766 -0.24401855 0.4663086
vn 0.85009766 -0.24401855 0.4663086
vn 0.9501953 -0.30371094 0.0692749
vn 0.9501953 -0.30371094 0.0692749
vn 0.9501953 -0.30371094 0.0692749
vn 0.9501953 -0.30371094 0.0692749
vn -0.20056152 -0.42651367 0.88183594
vn -0.20056152 -0.42651367 0.88183594
vn -0.20056152 -0.42651367 0.88183594
vn -0.20056152 -0.42651367 0.88183594
vn -0.9501953 0.30371094 -0.0692749
vn -0.9501953 0.30371094 -0.0692749
vn -0.9501953 0.30371094 -0.0692749
vn -0.9501953 0.30371094 -0.0692749
vn 0.20056152 0.42651367 -0.88183594
vn 0.20056152 0.42651367 -0.88183594
vn 0.20056152 0.42651367 -0.88183594
vn 0.20056152 0.42651367 -0.88183594
vn -0.23828125 -0.8520508 -0.4663086
vn -0.23828125 -0.8520508 -0.4663086
vn -0.23828125 -0.8520508 -0.4663086
vn -0.23828125 -0.8520508 -0.4663086
vn 0.23828125 0.8520508 0.4663086
vn 0.23828125 0.8520508 0.4663086
vn 0.23828125 0.8520508 0.4663086
vn 0.23828125 0.8520508 0.4663086
vn 0.67529297 0.26953125 -0.68652344
vn 0.67529297 0.26953125 -0.68652344
vn 0.67529297 0.26953125 -0.68652344
vn 0.67529297 0.26953125 -0.68652344
vn 0.71728516 -0.024169922 0.69628906
vn 0.71728516 -0.024169922 0.69628906
vn 0.71728516 -0.024169922 0.69628906
vn 0.71728516 -0.024169922 0.69628906
vn -0.67529297 -0.26953125 0.68652344
vn -0.67529297 -0.26953125 0.68652344
vn -0.67529297 -0.26953125 0.68652344
vn -0.67529297 -0.26953125 0.68652344
vn -0.71728516 0.024169922 -0.69628906
vn -0.71728516 0.024169922 -0.69628906
vn -0.71728516 0.024169922 -0.69628906
vn -0.71728516 0.024169922 -0.69628906
vn 0.17102051 -0.9628906 -0.20959473
vn 0.17102051 -0.9628906 -0.20959473
vn 0.17102051 -0.9628906 -0.20959473
vn 0.17102051 -0.9628906 -0.20959473
vn -0.17102051 0.9628906 0.20959473
vn -0.17102051 0.9628906 0.20959473
vn -0.17102051 0.9628906 0.20959473
vn -0.17102051 0.9628906 0.20959473
vn 0.78027344 0.49829102 0.37817383
vn -0.06518555 0.7597656 0.64697266
vn 0.1463623 0.8803711 -0.45092773
vn 0.72509766 0.06842041 -0.6850586
vn -0.8359375 0.49560547 -0.2364502
vn -0.2890625 0.01612854 -0.95703125
vn 0.13696289 0.6118164 0.7792969
vn 0.8569336 0.48046875 0.18615723
vn 0.7182617 -0.18762207 0.67041016
vn -0.48828125 -0.31396484 0.8144531
vn 0.08679199 0.99609375 -0.009529114
vn -0.8173828 0.49243164 0.29858398
vn 0.091552734 -0.5151367 -0.8520508
vn 0.9243164 -0.2836914 -0.2553711
vn 0.6352539 0.37060547 -0.6772461
vn 0.1394043 -0.9902344 0.017089844
vn 0.8569336 0.48046875 0.18615723
vn 0.7182617 -0.18762207 0.67041016
vn 0.31396484 -0.4177246 0.85253906
vn 0.8925781 -0.4501953 0.029083252
vn 0.041625977 -0.9902344 0.13122559
vn 0.7871094 0.43066406 0.44189453
vn 0.32666016 -0.50097656 -0.80126953
vn 0.7426758 0.36499023 -0.56103516
vn -0.16699219 0.3310547 0.92871094
vn -0.4958496 -0.64697266 0.57958984
vn -0.94091797 0.31420898 0.12573242
vn 0.48486328 -0.42114258 0.76660156
vn -0.7114258 -0.48535156 -0.5083008
vn 0.18933105 -0.9785156 -0.08166504
vn 0.67041016 0.6123047 0.4194336
vn 0.4362793 0.72998047 -0.5263672
vn 0.9770508 -0.14001465 -0.16052246
vn -0.117248535 0.99316406 0.011886597
vn 0.20336914 -0.15490723 -0.9667969
vn -0.40356445 0.5546875 -0.72753906
vn 0.7841797 0.6191406 -0.03881836
vn 0.79248047 -0.18713379 0.5805664
vn 0.23327637 0.6308594 0.7402344
vn -0.15759277 0.97753906 -0.1394043
vn -0.10406494 -0.34692383 0.9321289
vn -0.77001953 0.42456055 0.4765625
vn 0.17236328 0.2927246 -0.9404297
vn -0.7578125 0.15551758 -0.6333008
vn -0.1459961 -0.65478516 -0.7416992
vn 0.77490234 -0.43432617 -0.45922852
vn -0.7324219 -0.68066406 0.015731812
vn 0.23095703 -0.96777344 0.09967041
vn -0.12841797 -0.8691406 -0.47729492
vn 0.62646484 -0.7402344 0.2446289
vn 0.6645508 -0.3486328 -0.6611328
vn -0.24584961 -0.082214355 -0.9658203
vn -0.39794922 -0.72265625 0.5649414
vn -0.9321289 -0.28027344 -0.22875977
vn 0.021896362 0.9916992 -0.12768555
vn -0.27172852 0.5073242 0.8178711
vn -0.87939453 0.4753418 -0.02859497
vn -0.25610352 0.42407227 -0.86865234
vn -0.70996094 -0.38623047 0.5888672
vn -0.76171875 -0.45483398 -0.46118164
vn 0.22509766 0.82958984 -0.51123047
vn -0.61035156 0.75146484 0.25024414
vn -0.63671875 0.32202148 -0.7001953
vn 0.32202148 0.07055664 -0.94433594
vn 0.46606445 0.7260742 0.5058594
vn 0.9160156 0.26464844 -0.30126953
g Campfire_0
f 3/3/3 2/2/2 1/1/1
f 1/1/1 4/4/4 3/3/3
f 4/4/4 5/5/5 3/3/3
f 8/8/8 7/7/7 6/6/6
f 9/9/9 7/7/7 8/8/8
f 12/12/12 11/11/11 10/10/10
f 11/11/11 13/13/13 10/10/10
f 11/11/11 14/14/14 13/13/13
f 17/17/17 16/16/16 15/15/15
f 15/15/15 16/16/16 18/18/18
f 21/21/21 20/20/20 19/19/19
f 21/21/21 22/22/22 20/20/20
f 22/22/22 23/23/23 20/20/20
f 26/26/26 25/25/25 24/24/24
f 27/27/27 25/25/25 26/26/26
f 30/30/30 29/29/29 28/28/28
f 31/31/31 29/29/29 30/30/30
f 31/31/31 32/32/32 29/29/29
f 35/35/35 34/34/34 33/33/33
f 33/33/33 34/34/34 36/36/36
f 39/39/39 38/38/38 37/37/37
f 39/39/39 40/40/40 38/38/38
f 40/40/40 41/41/41 38/38/38
f 42/42/42 40/40/40 39/39/39
f 45/45/45 44/44/44 43/43/43
f 46/46/46 45/45/45 43/43/43
f 46/46/46 47/47/47 45/45/45
f 50/50/50 49/49/49 48/48/48
f 49/49/49 51/51/51 48/48/48
f 49/49/49 52/52/52 51/51/51
f 55/55/55 54/54/54 53/53/53
f 55/55/55 56/56/56 54/54/54
f 57/57/57 56/56/56 55/55/55
f 60/60/60 59/59/59 58/58/58
f 58/58/58 59/59/59 61/61/61
f 64/64/64 63/63/63 62/62/62
f 62/62/62 65/65/65 64/64/64
f 62/62/62 66/66/66 65/65/65
f 69/69/69 68/68/68 67/67/67
f 68/68/68 70/70/70 67/67/67
f 68/68/68 71/71/71 70/70/70
f 72/72/72 71/71/71 68/68/68
f 75/75/75 74/74/74 73/73/73
f 75/75/75 76/76/76 74/74/74
f 76/76/76 77/77/77 74/74/74
f 74/74/74 77/77/77 78/78/78
f 76/76/76 79/79/79 77/77/77
f 82/82/82 81/81/81 80/80/80
f 83/83/83 81/81/81 82/82/82
f 86/86/86 85/85/85 84/84/84
f 86/86/86 87/87/87 85/85/85
f 85/85/85 87/87/87 88/88/88
f 91/91/91 90/90/90 89/89/89
f 91/91/91 92/92/92 90/90/90
f 93/93/93 92/92/92 91/91/91
f 96/96/96 95/95/95 94/94/94
f 97/97/97 95/95/95 96/96/96
f 100/100/100 99/99/99 98/98/98
f 99/99/99 101/101/101 98/98/98
f 104/104/104 103/103/103 102/102/102
f 103/103/103 105/105/105 102/102/102
f 102/102/102 105/105/105 106/106/106
f 109/109/109 108/108/108 107/107/107
f 107/107/107 108/108/108 110/110/110
f 108/108/108 111/111/111 110/110/110
f 114/114/114 113/113/113 112/112/112
f 112/112/112 115/115/115 114/114/114
f 115/115/115 116/116/116 114/114/114
f 112/112/112 117/117/117 115/115/115
f 120/120/120 119/119/119 118/118/118
f 121/121/121 120/120/120 118/118/118
f 121/121/121 122/122/122 120/120/120
f 125/125/125 124/124/124 123/123/123
f 126/126/126 124/124/124 125/125/125
f 127/127/127 126/126/126 125/125/125
f 126/126/126 128/128/128 124/124/124
f 131/131/131 130/130/130 129/129/129
f 131/131/131 132/132/132 130/130/130
f 130/130/130 132/132/132 133/133/133
f 136/136/136 135/135/135 134/134/134
f 134/134/134 135/135/135 137/137/137
f 135/135/135 138/138/138 137/137/137
f 141/141/141 140/140/140 139/139/139
f 141/141/141 142/142/142 140/140/140
f 143/143/143 142/142/142 141/141/141
f 146/146/146 145/145/145 144/144/144
f 146/146/146 147/147/147 145/145/145
f 150/150/150 149/149/149 148/148/148
f 151/151/151 149/149/149 150/150/150
f 154/154/154 153/153/153 152/152/152
f 153/153/153 155/155/155 152/152/152
f 153/153/153 156/156/156 155/155/155
f 159/159/159 158/158/158 157/157/157
f 160/160/160 158/158/158 159/159/159
f 160/160/160 161/161/161 158/158/158
f 164/164/164 163/163/163 162/162/162
f 162/162/162 165/165/165 164/164/164
f 165/165/165 166/166/166 164/164/164
f 169/169/169 168/168/168 167/167/167
f 169/169/169 170/170/170 168/168/168
f 171/171/171 170/170/170 169/169/169
f 174/174/174 173/173/173 172/172/172
f 175/175/175 173/173/173 174/174/174
f 175/175/175 176/176/176 173/173/173
f 179/179/179 178/178/178 177/177/177
f 179/179/179 180/180/180 178/178/178
f 178/178/178 180/180/180 181/181/181
f 182/182/182 180/180/180 179/179/179
f 185/185/185 184/184/184 183/183/183
f 185/185/185 186/186/186 184/184/184
f 189/189/189 188/188/188 187/187/187
f 188/188/188 190/190/190 187/187/187
f 190/190/190 191/191/191 187/187/187
f 188/188/188 192/192/192 190/190/190
f 195/195/195 194/194/194 193/193/193
f 193/193/193 194/194/194 196/196/196
f 194/194/194 197/197/197 196/196/196
f 200/200/200 199/199/199 198/198/198
f 199/199/199 201/201/201 198/198/198
f 198/198/198 201/201/201 202/202/202
f 205/205/205 204/204/204 203/203/203
f 203/203/203 204/204/204 206/206/206
f 204/204/204 207/207/207 206/206/206
f 210/210/210 209/209/209 208/208/208
f 210/210/210 211/211/211 209/209/209
f 212/212/212 211/211/211 210/210/210
f 215/215/215 214/214/214 213/213/213
f 215/215/215 216/216/216 214/214/214
f 214/214/214 216/216/216 217/217/217
f 218/218/218 216/216/216 215/215/215
f 221/221/221 220/220/220 219/219/219
f 221/221/221 222/222/222 220/220/220
f 225/225/225 224/224/224 223/223/223
f 226/226/226 225/225/225 223/223/223
f 226/226/226 227/227/227 225/225/225
f 230/230/230 229/229/229 228/228/228
f 229/229/229 231/231/231 228/228/228
f 229/229/229 232/232/232 231/231/231
f 235/235/235 234/234/234 233/233/233
f 235/235/235 236/236/236 234/234/234
f 237/237/237 236/236/236 235/235/235
f 240/240/240 239/239/239 238/238/238
f 240/240/240 241/241/241 239/239/239
f 239/239/239 241/241/241 242/242/242
f 239/239/239 242/242/242 243/243/243
f 246/246/246 245/245/245 244/244/244
f 247/247/247 246/246/246 244/244/244
f 250/250/250 249/249/249 248/248/248
f 251/251/251 250/250/250 248/248/248
f 254/254/254 253/253/253 252/252/252
f 255/255/255 254/254/254 252/252/252
f 258/258/258 257/257/257 256/256/256
f 259/259/259 258/258/258 256/256/256
f 262/262/262 261/261/261 260/260/260
f 263/263/263 262/262/262 260/260/260
f 266/266/266 265/265/265 264/264/264
f 267/267/267 266/266/266 264/264/264
f 270/270/270 269/269/269 268/268/268
f 271/271/271 270/270/270 268/268/268
f 274/274/274 273/273/273 272/272/272
f 275/275/275 274/274/274 272/272/272
f 278/278/278 277/277/277 276/276/276
f 279/279/279 278/278/278 276/276/276
f 282/282/282 281/281/281 280/280/280
f 283/283/283 282/282/282 280/280/280
f 286/286/286 285/285/285 284/284/284
f 287/287/287 286/286/286 284/284/284
f 290/290/290 289/289/289 288/288/288
f 291/291/291 290/290/290 288/288/288
f 294/294/294 293/293/293 292/292/292
f 295/295/295 294/294/294 292/292/292
f 298/298/298 297/297/297 296/296/296
f 299/299/299 298/298/298 296/296/296
f 302/302/302 301/301/301 300/300/300
f 303/303/303 302/302/302 300/300/300
f 306/306/306 305/305/305 304/304/304
f 307/307/307 306/306/306 304/304/304
f 310/310/310 309/309/309 308/308/308
f 311/311/311 310/310/310 308/308/308
f 314/314/314 313/313/313 312/312/312
f 315/315/315 314/314/314 312/312/312
f 318/318/318 317/317/317 316/316/316
f 319/319/319 318/318/318 316/316/316
f 322/322/322 321/321/321 320/320/320
f 323/323/323 322/322/322 320/320/320
f 326/326/326 325/325/325 324/324/324
f 327/327/327 326/326/326 324/324/324
f 330/330/330 329/329/329 328/328/328
f 331/331/331 330/330/330 328/328/328
f 334/334/334 333/333/333 332/332/332
f 335/335/335 334/334/334 332/332/332
f 338/338/338 337/337/337 336/336/336
f 339/339/339 338/338/338 336/336/336
f 342/342/342 341/341/341 340/340/340
f 343/343/343 342/342/342 340/340/340
f 346/346/346 345/345/345 344/344/344
f 347/347/347 346/346/346 344/344/344
f 350/350/350 349/349/349 348/348/348
f 351/351/351 350/350/350 348/348/348
f 354/354/354 353/353/353 352/352/352
f 355/355/355 354/354/354 352/352/352
f 358/358/358 357/357/357 356/356/356
f 359/359/359 358/358/358 356/356/356
f 362/362/362 361/361/361 360/360/360
f 363/363/363 362/362/362 360/360/360
f 366/366/366 365/365/365 364/364/364
f 367/367/367 366/366/366 364/364/364
f 370/370/370 369/369/369 368/368/368
f 371/371/371 370/370/370 368/368/368
f 374/374/374 373/373/373 372/372/372
f 375/375/375 374/374/374 372/372/372
f 378/378/378 377/377/377 376/376/376
f 379/379/379 378/378/378 376/376/376
f 382/382/382 381/381/381 380/380/380
f 383/383/383 382/382/382 380/380/380
f 386/386/386 385/385/385 384/384/384
f 387/387/387 386/386/386 384/384/384
f 390/390/390 389/389/389 388/388/388
f 391/391/391 390/390/390 388/388/388
f 394/394/394 393/393/393 392/392/392
f 395/395/395 394/394/394 392/392/392
f 398/398/398 397/397/397 396/396/396
f 399/399/399 398/398/398 396/396/396
f 402/402/402 401/401/401 400/400/400
f 403/403/403 402/402/402 400/400/400
f 406/406/406 405/405/405 404/404/404
f 407/407/407 406/406/406 404/404/404
f 410/410/410 409/409/409 408/408/408
f 411/411/411 410/410/410 408/408/408
f 414/414/414 413/413/413 412/412/412
f 415/415/415 414/414/414 412/412/412
f 418/418/418 417/417/417 416/416/416
f 419/419/419 418/418/418 416/416/416
f 422/422/422 421/421/421 420/420/420
f 423/423/423 422/422/422 420/420/420
f 426/426/426 425/425/425 424/424/424
f 427/427/427 426/426/426 424/424/424
f 430/430/430 429/429/429 428/428/428
f 431/431/431 430/430/430 428/428/428
f 434/434/434 433/433/433 432/432/432
f 435/435/435 434/434/434 432/432/432
f 438/438/438 437/437/437 436/436/436
f 439/439/439 438/438/438 436/436/436
f 438/438/438 440/440/440 437/437/437
f 439/439/439 441/441/441 438/438/438
f 441/441/441 440/440/440 438/438/438
f 444/444/444 443/443/443 442/442/442
f 444/444/444 442/442/442 445/445/445
f 442/442/442 443/443/443 446/446/446
f 445/445/445 442/442/442 447/447/447
f 442/442/442 446/446/446 447/447/447
f 450/450/450 449/449/449 448/448/448
f 448/448/448 449/449/449 451/451/451
f 450/450/450 452/452/452 449/449/449
f 449/449/449 453/453/453 451/451/451
f 449/449/449 452/452/452 453/453/453
f 456/456/456 455/455/455 454/454/454
f 454/454/454 455/455/455 457/457/457
f 458/458/458 455/455/455 456/456/456
f 457/457/457 455/455/455 459/459/459
f 459/459/459 455/455/455 458/458/458
f 462/462/462 461/461/461 460/460/460
f 460/460/460 461/461/461 463/463/463
f 462/462/462 464/464/464 461/461/461
f 461/461/461 465/465/465 463/463/463
f 461/461/461 464/464/464 465/465/465
f 468/468/468 467/467/467 466/466/466
f 467/467/467 469/469/469 466/466/466
f 468/468/468 470/470/470 467/467/467
f 467/467/467 471/471/471 469/469/469
f 470/470/470 471/471/471 467/467/467
f 474/474/474 473/473/473 472/472/472
f 475/475/475 474/474/474 472/472/472
f 474/474/474 476/476/476 473/473/473
f 477/477/477 474/474/474 475/475/475
f 477/477/477 476/476/476 474/474/474
f 480/480/480 479/479/479 478/478/478
f 481/481/481 480/480/480 478/478/478
f 480/480/480 482/482/482 479/479/479
f 481/481/481 483/483/483 480/480/480
f 483/483/483 482/482/482 480/480/480
f 486/486/486 485/485/485 484/484/484
f 487/487/487 486/486/486 484/484/484
f 485/485/485 488/488/488 484/484/484
f 484/484/484 489/489/489 487/487/487
f 484/484/484 488/488/488 489/489/489
f 492/492/492 491/491/491 490/490/490
f 490/490/490 493/493/493 492/492/492
f 494/494/494 491/491/491 492/492/492
f 493/493/493 495/495/495 492/492/492
f 495/495/495 494/494/494 492/492/492
f 498/498/498 497/497/497 496/496/496
f 499/499/499 498/498/498 496/496/496
f 497/497/497 500/500/500 496/496/496
f 496/496/496 501/501/501 499/499/499
f 496/496/496 500/500/500 501/501/501
