g Collider
v -0.6617762 -13.02889 -0.58506954
v -0.66177464 -12.864878 -0.86914784
v -0.6617716 -12.536852 -0.86914784
v -0.6617701 -12.372839 -0.58506954
v -0.6617747 -12.864878 -0.30099124
v -0.66177166 -12.536852 -0.3009912
v -0.6859595 12.36133 -0.86914897
v -0.6859595 12.689356 -0.8691491
v -0.6859595 12.853369 -0.5850707
v -0.6859595 12.197317 -0.5850707
v -0.6859595 12.36133 -0.30099243
v -0.6859595 12.689356 -0.30099243
v -0.6859595 12.36133 -0.30099243
v -0.6859595 12.689356 -0.30099243
v -0.056463543 12.689356 -0.30099243
v -0.05646354 12.36133 -0.30099243
v -0.6859595 12.197317 -0.5850707
v 0.42400795 12.689356 -0.3009924
v -0.05646354 12.197317 -0.5850707
v -0.6859595 12.36133 -0.86914897
v 0.42400795 12.36133 -0.3009924
v 0.8114245 12.689356 -0.30099243
v -0.056463543 12.36133 -0.86914897
v -0.6859595 12.689356 -0.8691491
v 0.42400795 12.197317 -0.5850707
v 0.8114245 12.36133 -0.30099243
v 1.1617557 12.689356 -0.30099243
v -0.05646354 12.689356 -0.8691491
v -0.6859595 12.853369 -0.5850707
v 0.42400795 12.36133 -0.869149
v 0.8114245 12.197317 -0.5850707
v 1.1617557 12.36133 -0.30099243
v 1.530971 12.689356 -0.30099243
v -0.05646354 12.853369 -0.5850707
v -0.6859595 12.689356 -0.30099243
v -0.056463543 12.689356 -0.30099243
v 0.42400795 12.689356 -0.8691491
v 0.42400795 12.853369 -0.5850707
v 0.42400795 12.689356 -0.3009924
v 0.8114245 12.36133 -0.86914897
v 1.1617557 12.197317 -0.5850707
v 1.530971 12.36133 -0.30099243
v 1.9750402 12.689356 -0.30099243
v 0.8114245 12.853369 -0.5850707
v 0.8114245 12.689356 -0.30099243
v 0.8114245 12.689356 -0.8691491
v 1.1617557 12.36133 -0.86914897
v 1.530971 12.197317 -0.5850707
v 1.9750402 12.36133 -0.30099243
v 2.5673752 12.688425 -0.3009924
v 1.1617557 12.853369 -0.5850707
v 1.1617557 12.689356 -0.30099243
v 1.1617557 12.689356 -0.8691491
v 1.530971 12.36133 -0.86914897
v 1.9750402 12.197317 -0.5850707
v 2.5324898 12.362261 -0.30099243
v 9.07965 11.275319 -0.30099237
v 1.530971 12.853369 -0.5850707
v 1.530971 12.689356 -0.30099243
v 1.530971 12.689356 -0.8691491
v 1.9750402 12.36133 -0.86914897
v 2.5150468 12.199178 -0.5850707
v 8.935582 10.980624 -0.30099237
v 13.44954 7.6227 -0.30099216
v 1.9750402 12.853369 -0.5850707
v 1.9750402 12.689356 -0.30099243
v 1.9750402 12.689356 -0.8691491
v 2.5324898 12.362261 -0.8691491
v 8.863549 10.833277 -0.58507067
v 13.187221 7.425752 -0.30099216
v 15.641212 2.630513 -0.30099195
v 2.5848181 12.851508 -0.5850707
v 2.5673752 12.688425 -0.3009924
v 2.5673752 12.688425 -0.8691491
v 8.935582 10.980624 -0.86914897
v 13.05606 7.3272777 -0.5850705
v 15.320251 2.5627997 -0.30099195
v 15.653803 -2.8053517 -0.3009917
v 9.151683 11.422667 -0.58507067
v 9.07965 11.275319 -0.30099237
v 9.07965 11.275319 -0.86914897
v 13.187221 7.425752 -0.8691488
v 15.159772 2.5289433 -0.58507025
v 15.332554 -2.7390237 -0.30099174
v 13.485688 -7.7978263 -0.30099145
v 13.580701 7.7211747 -0.5850705
v 13.44954 7.6227 -0.30099216
v 13.44954 7.6227 -0.86914885
v 15.320251 2.5627997 -0.86914855
v 15.171929 -2.7058597 -0.58507
v 13.222764 -7.601686 -0.30099148
v 9.134602 -11.450755 -0.30099127
v 15.801692 2.6643693 -0.58507025
v 15.641212 2.630513 -0.30099195
v 15.641212 2.630513 -0.86914855
v 15.332554 -2.7390237 -0.86914825
v 13.091301 -7.503616 -0.5850698
v 8.990162 -11.156243 -0.30099133
v 2.6336162 -12.863944 -0.30099118
v 15.814427 -2.8385158 -0.58507
v 15.653803 -2.8053517 -0.3009917
v 15.653803 -2.8053517 -0.86914825
v 13.222764 -7.601686 -0.869148
v 8.917942 -11.008986 -0.5850696
v 2.5986707 -12.537786 -0.3009912
v 2.0447636 -12.864879 -0.30099124
v 13.617151 -7.8958964 -0.5850698
v 13.485688 -7.7978263 -0.30099145
v 13.485688 -7.7978263 -0.8691481
v 8.990162 -11.156243 -0.8691479
v 2.581198 -12.374706 -0.58506954
v 2.0447626 -12.536853 -0.3009912
v 1.6382442 -12.864881 -0.3009912
v 9.206821 -11.598012 -0.5850696
v 9.134602 -11.450755 -0.30099127
v 9.134602 -11.450755 -0.8691479
v 2.5986707 -12.537786 -0.8691479
v 2.0447621 -12.372841 -0.58506954
v 1.6382419 -12.536855 -0.3009912
v 1.3182898 -12.864883 -0.3009912
v 2.651089 -13.027023 -0.58506954
v 2.6336162 -12.863944 -0.30099118
v 2.6336162 -12.863944 -0.8691479
v 2.0447626 -12.536853 -0.86914784
v 1.6382408 -12.372842 -0.58506954
v 1.3182873 -12.536858 -0.30099127
v 1.006605 -12.864885 -0.30099124
v 2.044764 -13.028891 -0.58506954
v 2.0447636 -12.864879 -0.30099124
v 2.0447636 -12.864879 -0.8691479
v 1.638242 -12.536855 -0.86914784
v 1.3182861 -12.372845 -0.58506954
v 1.0066041 -12.5368595 -0.30099127
v 0.6248959 -12.864885 -0.3009912
v 1.6382453 -13.0288925 -0.58506954
v 1.6382442 -12.864881 -0.3009912
v 1.6382443 -12.864881 -0.8691479
v 1.3182874 -12.536858 -0.8691478
v 1.0066035 -12.372847 -0.58506954
v 0.62489647 -12.5368595 -0.30099124
v 0.09486755 -12.864883 -0.30099127
v 1.3182911 -13.028896 -0.58506954
v 1.3182898 -12.864883 -0.3009912
v 1.3182899 -12.864883 -0.8691478
v 1.0066041 -12.5368595 -0.8691478
v 0.62489676 -12.372847 -0.58506954
v 0.09486939 -12.536858 -0.30099127
v -0.6617747 -12.864878 -0.30099124
v -0.66177166 -12.536852 -0.3009912
v 0.09487033 -12.372845 -0.58506954
v -0.6617701 -12.372839 -0.58506954
v 1.0066056 -13.028898 -0.58506954
v 1.006605 -12.864885 -0.30099124
v 1.006605 -12.864885 -0.8691478
v 0.62489647 -12.5368595 -0.86914784
v 0.09486942 -12.536858 -0.8691478
v -0.6617716 -12.536852 -0.86914784
v 0.6248959 -12.864885 -0.86914784
v 0.6248956 -13.028898 -0.58506954
v 0.6248959 -12.864885 -0.3009912
v 0.09486757 -12.864883 -0.8691478
v -0.66177464 -12.864878 -0.86914784
v 0.09486663 -13.028895 -0.58506954
v 0.09486755 -12.864883 -0.30099127
v -0.6617762 -13.02889 -0.58506954
v -0.6617747 -12.864878 -0.30099124
vt 1 0
vt 0.7998047 0
vt 0.60009766 0
vt 0.39990234 0
vt 0 0
vt 0.19995117 0
vt 0.60009766 0
vt 0.7998047 0
vt 1 0
vt 0.39990234 0
vt 0.19995117 0
vt 0 0
vt 0 0.16662598
vt 0 0
vt 0.047607422 0
vt 0.047607422 0.16662598
vt 0 0.33325195
vt 0.095214844 0
vt 0.047607422 0.33325195
vt 0 0.5
vt 0.095214844 0.16662598
vt 0.14282227 0
vt 0.047607422 0.5
vt 0 0.6665039
vt 0.095214844 0.33325195
vt 0.14282227 0.16662598
vt 0.19042969 0
vt 0.047607422 0.6665039
vt 0 0.8334961
vt 0.095214844 0.5
vt 0.14282227 0.33325195
vt 0.19042969 0.16662598
vt 0.23803711 0
vt 0.047607422 0.8334961
vt 0 1
vt 0.047607422 1
vt 0.095214844 0.6665039
vt 0.095214844 0.8334961
vt 0.095214844 1
vt 0.14282227 0.5
vt 0.19042969 0.33325195
vt 0.23803711 0.16662598
vt 0.28564453 0
vt 0.14282227 0.8334961
vt 0.14282227 1
vt 0.14282227 0.6665039
vt 0.19042969 0.5
vt 0.23803711 0.33325195
vt 0.28564453 0.16662598
vt 0.33325195 0
vt 0.19042969 0.8334961
vt 0.19042969 1
vt 0.19042969 0.6665039
vt 0.23803711 0.5
vt 0.28564453 0.33325195
vt 0.33325195 0.16662598
vt 0.38085938 0
vt 0.23803711 0.8334961
vt 0.23803711 1
vt 0.23803711 0.6665039
vt 0.28564453 0.5
vt 0.33325195 0.33325195
vt 0.38085938 0.16662598
vt 0.4284668 0
vt 0.28564453 0.8334961
vt 0.28564453 1
vt 0.28564453 0.6665039
vt 0.33325195 0.5
vt 0.38085938 0.33325195
vt 0.4284668 0.16662598
vt 0.47607422 0
vt 0.33325195 0.8334961
vt 0.33325195 1
vt 0.33325195 0.6665039
vt 0.38085938 0.5
vt 0.4284668 0.33325195
vt 0.47607422 0.16662598
vt 0.5239258 0
vt 0.38085938 0.8334961
vt 0.38085938 1
vt 0.38085938 0.6665039
vt 0.4284668 0.5
vt 0.47607422 0.33325195
vt 0.5239258 0.16662598
vt 0.57128906 0
vt 0.4284668 0.8334961
vt 0.4284668 1
vt 0.4284668 0.6665039
vt 0.47607422 0.5
vt 0.5239258 0.33325195
vt 0.57128906 0.16662598
vt 0.6191406 0
vt 0.47607422 0.8334961
vt 0.47607422 1
vt 0.47607422 0.6665039
vt 0.5239258 0.5
vt 0.57128906 0.33325195
vt 0.6191406 0.16662598
vt 0.6665039 0
vt 0.5239258 0.8334961
vt 0.5239258 1
vt 0.5239258 0.6665039
vt 0.57128906 0.5
vt 0.6191406 0.33325195
vt 0.6665039 0.16662598
vt 0.71435547 0
vt 0.57128906 0.8334961
vt 0.57128906 1
vt 0.57128906 0.6665039
vt 0.6191406 0.5
vt 0.6665039 0.33325195
vt 0.71435547 0.16662598
vt 0.76171875 0
vt 0.6191406 0.8334961
vt 0.6191406 1
vt 0.6191406 0.6665039
vt 0.6665039 0.5
vt 0.71435547 0.33325195
vt 0.76171875 0.16662598
vt 0.8095703 0
vt 0.6665039 0.8334961
vt 0.6665039 1
vt 0.6665039 0.6665039
vt 0.71435547 0.5
vt 0.76171875 0.33325195
vt 0.8095703 0.16662598
vt 0.8569336 0
vt 0.71435547 0.8334961
vt 0.71435547 1
vt 0.71435547 0.6665039
vt 0.76171875 0.5
vt 0.8095703 0.33325195
vt 0.8569336 0.16662598
vt 0.90478516 0
vt 0.76171875 0.8334961
vt 0.76171875 1
vt 0.76171875 0.6665039
vt 0.8095703 0.5
vt 0.8569336 0.33325195
vt 0.90478516 0.16662598
vt 0.95214844 0
vt 0.8095703 0.8334961
vt 0.8095703 1
vt 0.8095703 0.6665039
vt 0.8569336 0.5
vt 0.90478516 0.33325195
vt 0.95214844 0.16662598
vt 1 0
vt 1 0.16662598
vt 0.95214844 0.33325195
vt 1 0.33325195
vt 0.8569336 0.8334961
vt 0.8569336 1
vt 0.8569336 0.6665039
vt 0.90478516 0.5
vt 0.95214844 0.5
vt 1 0.5
vt 0.90478516 0.6665039
vt 0.90478516 0.8334961
vt 0.90478516 1
vt 0.95214844 0.6665039
vt 1 0.6665039
vt 0.95214844 0.8334961
vt 0.95214844 1
vt 1 0.8334961
vt 1 1
vn -1 0 0
vn -1 0 0
vn -1 0 0
vn -1 0 0
vn -1 0 0
vn -1 0 0
vn -1 0 0
vn -1 0 0
vn -1 0 0
vn -1 0 0
vn -1 0 0
vn -1 0 0
vn -0 -0.5 0.86621094
vn -0 0.5 0.86621094
vn -0 0.5 0.86621094
vn -0 -0.5 0.86621094
vn -0 -1 0
vn -0 0.5 0.86621094
vn -0 -1 0
vn -0 -0.5 -0.86621094
vn -0 -0.5 0.86621094
vn -0 0.5 0.86621094
vn -0 -0.5 -0.86621094
vn -0 0.5 -0.86621094
vn -0 -1 0
vn -0 -0.5 0.86621094
vn -0 0.5 0.86621094
vn -0 0.5 -0.86621094
vn -0 1 0
vn -0 -0.5 -0.86621094
vn -0 -1 0
vn -0 -0.5 0.86621094
vn -0 0.5 0.86621094
vn -0 1 0
vn -0 0.5 0.86621094
vn -0 0.5 0.86621094
vn -0 0.5 -0.86621094
vn -0 1 0
vn -0 0.5 0.86621094
vn -0 -0.5 -0.86621094
vn -0 -1 0
vn -0 -0.5 0.86621094
vn 0.0005812645 0.5004883 0.86572266
vn -0 1 0
vn -0 0.5 0.86621094
vn -0 0.5 -0.86621094
vn -0 -0.5 -0.86621094
vn -0 -1 0
vn 0.00063705444 -0.5004883 0.86572266
vn 0.05682373 0.52246094 0.8510742
vn -0 1 0
vn -0 0.5 0.86621094
vn -0 0.5 -0.86621094
vn -0 -0.5 -0.86621094
vn 0.0012712479 -1 0
vn -0.049743652 -0.4716797 0.8803711
vn 0.24267578 0.49560547 0.8339844
vn -0 1 0
vn -0 0.5 0.86621094
vn -0 0.5 -0.86621094
vn 0.00063705444 -0.5004883 -0.86572266
vn -0.10473633 -0.9946289 0
vn -0.19189453 -0.39257812 0.89941406
vn 0.4404297 0.33081055 0.83447266
vn 0.0011606216 1 0
vn 0.0005812645 0.5004883 0.86572266
vn 0.0005812645 0.5004883 -0.86572266
vn -0.049743652 -0.4716797 -0.8803711
vn -0.43920898 -0.8984375 0
vn -0.35253906 -0.26464844 0.89746094
vn 0.5341797 0.112854004 0.8378906
vn 0.10803223 0.9941406 0
vn 0.05682373 0.52246094 0.8510742
vn 0.05682373 0.52246094 -0.8510742
vn -0.19189453 -0.39257812 -0.89941406
vn -0.7998047 -0.60009766 0
vn -0.43847656 -0.09246826 0.89404297
vn 0.53515625 -0.11053467 0.83740234
vn 0.43969727 0.8979492 0
vn 0.24267578 0.49560547 0.8339844
vn 0.24267578 0.49560547 -0.8339844
vn -0.35253906 -0.26464844 -0.89746094
vn -0.9785156 -0.2064209 0
vn -0.4387207 0.09057617 0.89404297
vn 0.4416504 -0.32958984 0.83447266
vn 0.7993164 0.60058594 0
vn 0.4404297 0.33081055 0.83447266
vn 0.4404297 0.33081055 -0.83447266
vn -0.43847656 -0.09246826 -0.89404297
vn -0.9794922 0.20214844 0
vn -0.35327148 0.26342773 0.89746094
vn 0.2434082 -0.49536133 0.8339844
vn 0.9785156 0.20654297 0
vn 0.5341797 0.112854004 0.8378906
vn 0.5341797 0.112854004 -0.8378906
vn -0.4387207 0.09057617 -0.89404297
vn -0.8017578 0.59765625 0
vn -0.19226074 0.39208984 0.89941406
vn 0.0569458 -0.52246094 0.8510742
vn 0.9794922 -0.20239258 0
vn 0.53515625 -0.11053467 0.83740234
vn 0.53515625 -0.11053467 -0.83740234
vn -0.35327148 0.26342773 -0.89746094
vn -0.44018555 0.8979492 0
vn -0.049835205 0.4716797 0.8803711
vn 0.0005879402 -0.5004883 0.86572266
vn 0.80126953 -0.59814453 0
vn 0.4416504 -0.32958984 0.83447266
vn 0.4416504 -0.32958984 -0.83447266
vn -0.19226074 0.39208984 -0.89941406
vn -0.10491943 0.9946289 0
vn 0.0006418228 0.5004883 0.86572266
vn -0 -0.5 0.86621094
vn 0.44091797 -0.89746094 0
vn 0.2434082 -0.49536133 0.8339844
vn 0.2434082 -0.49536133 -0.8339844
vn -0.049835205 0.4716797 -0.8803711
vn 0.0012807846 1 0
vn -0 0.5 0.86621094
vn -0 -0.5 0.86621094
vn 0.10827637 -0.9941406 0
vn 0.0569458 -0.52246094 0.8510742
vn 0.0569458 -0.52246094 -0.8510742
vn 0.0006418228 0.5004883 -0.86572266
vn -0 1 0
vn -0 0.5 0.86621094
vn -0 -0.5 0.86621094
vn 0.0011739731 -1 0
vn 0.0005879402 -0.5004883 0.86572266
vn 0.0005879402 -0.5004883 -0.86572266
vn -0 0.5 -0.86621094
vn -0 1 0
vn -0 0.5 0.86621094
vn -0 -0.5 0.86621094
vn -0 -1 0
vn -0 -0.5 0.86621094
vn -0 -0.5 -0.86621094
vn -0 0.5 -0.86621094
vn -0 1 0
vn -0 0.5 0.86621094
vn -0 -0.5 0.86621094
vn -0 -1 0
vn -0 -0.5 0.86621094
vn -0 -0.5 -0.86621094
vn -0 0.5 -0.86621094
vn -0 1 0
vn -0 0.5 0.86621094
vn -0 -0.5 0.86621094
vn -0 0.5 0.86621094
vn -0 1 0
vn -0 1 0
vn -0 -1 0
vn -0 -0.5 0.86621094
vn -0 -0.5 -0.86621094
vn -0 0.5 -0.86621094
vn -0 0.5 -0.86621094
vn -0 0.5 -0.86621094
vn -0 -0.5 -0.86621094
vn -0 -1 0
vn -0 -0.5 0.86621094
vn -0 -0.5 -0.86621094
vn -0 -0.5 -0.86621094
vn -0 -1 0
vn -0 -0.5 0.86621094
vn -0 -1 0
vn -0 -0.5 0.86621094
g Collider_0
f 3/3/3 2/2/2 1/1/1
f 4/4/4 3/3/3 1/1/1
f 4/4/4 1/1/1 5/5/5
f 6/6/6 4/4/4 5/5/5
f 9/9/9 8/8/8 7/7/7
f 9/9/9 7/7/7 10/10/10
f 9/9/9 10/10/10 11/11/11
f 12/12/12 9/9/9 11/11/11
f 15/15/15 14/14/14 13/13/13
f 16/16/16 15/15/15 13/13/13
f 16/16/16 13/13/13 17/17/17
f 18/18/18 15/15/15 16/16/16
f 19/19/19 16/16/16 17/17/17
f 19/19/19 17/17/17 20/20/20
f 21/21/21 18/18/18 16/16/16
f 21/21/21 16/16/16 19/19/19
f 22/22/22 18/18/18 21/21/21
f 23/23/23 19/19/19 20/20/20
f 23/23/23 20/20/20 24/24/24
f 25/25/25 21/21/21 19/19/19
f 25/25/25 19/19/19 23/23/23
f 26/26/26 22/22/22 21/21/21
f 26/26/26 21/21/21 25/25/25
f 27/27/27 22/22/22 26/26/26
f 28/28/28 23/23/23 24/24/24
f 28/28/28 24/24/24 29/29/29
f 30/30/30 25/25/25 23/23/23
f 30/30/30 23/23/23 28/28/28
f 31/31/31 26/26/26 25/25/25
f 31/31/31 25/25/25 30/30/30
f 32/32/32 27/27/27 26/26/26
f 32/32/32 26/26/26 31/31/31
f 33/33/33 27/27/27 32/32/32
f 34/34/34 28/28/28 29/29/29
f 34/34/34 29/29/29 35/35/35
f 36/36/36 34/34/34 35/35/35
f 37/37/37 30/30/30 28/28/28
f 37/37/37 28/28/28 34/34/34
f 38/38/38 34/34/34 36/36/36
f 38/38/38 37/37/37 34/34/34
f 39/39/39 38/38/38 36/36/36
f 40/40/40 31/31/31 30/30/30
f 40/40/40 30/30/30 37/37/37
f 41/41/41 32/32/32 31/31/31
f 41/41/41 31/31/31 40/40/40
f 42/42/42 33/33/33 32/32/32
f 42/42/42 32/32/32 41/41/41
f 43/43/43 33/33/33 42/42/42
f 44/44/44 38/38/38 39/39/39
f 45/45/45 44/44/44 39/39/39
f 46/46/46 37/37/37 38/38/38
f 46/46/46 40/40/40 37/37/37
f 44/44/44 46/46/46 38/38/38
f 47/47/47 41/41/41 40/40/40
f 47/47/47 40/40/40 46/46/46
f 48/48/48 42/42/42 41/41/41
f 48/48/48 41/41/41 47/47/47
f 49/49/49 43/43/43 42/42/42
f 49/49/49 42/42/42 48/48/48
f 50/50/50 43/43/43 49/49/49
f 51/51/51 44/44/44 45/45/45
f 52/52/52 51/51/51 45/45/45
f 53/53/53 46/46/46 44/44/44
f 53/53/53 47/47/47 46/46/46
f 51/51/51 53/53/53 44/44/44
f 54/54/54 48/48/48 47/47/47
f 54/54/54 47/47/47 53/53/53
f 55/55/55 49/49/49 48/48/48
f 55/55/55 48/48/48 54/54/54
f 56/56/56 50/50/50 49/49/49
f 56/56/56 49/49/49 55/55/55
f 57/57/57 50/50/50 56/56/56
f 58/58/58 51/51/51 52/52/52
f 59/59/59 58/58/58 52/52/52
f 60/60/60 53/53/53 51/51/51
f 60/60/60 54/54/54 53/53/53
f 58/58/58 60/60/60 51/51/51
f 61/61/61 55/55/55 54/54/54
f 61/61/61 54/54/54 60/60/60
f 62/62/62 56/56/56 55/55/55
f 62/62/62 55/55/55 61/61/61
f 63/63/63 57/57/57 56/56/56
f 63/63/63 56/56/56 62/62/62
f 64/64/64 57/57/57 63/63/63
f 65/65/65 58/58/58 59/59/59
f 66/66/66 65/65/65 59/59/59
f 67/67/67 60/60/60 58/58/58
f 67/67/67 61/61/61 60/60/60
f 65/65/65 67/67/67 58/58/58
f 68/68/68 62/62/62 61/61/61
f 68/68/68 61/61/61 67/67/67
f 69/69/69 63/63/63 62/62/62
f 69/69/69 62/62/62 68/68/68
f 70/70/70 64/64/64 63/63/63
f 70/70/70 63/63/63 69/69/69
f 71/71/71 64/64/64 70/70/70
f 72/72/72 65/65/65 66/66/66
f 73/73/73 72/72/72 66/66/66
f 74/74/74 67/67/67 65/65/65
f 74/74/74 68/68/68 67/67/67
f 72/72/72 74/74/74 65/65/65
f 75/75/75 69/69/69 68/68/68
f 75/75/75 68/68/68 74/74/74
f 76/76/76 70/70/70 69/69/69
f 76/76/76 69/69/69 75/75/75
f 77/77/77 71/71/71 70/70/70
f 77/77/77 70/70/70 76/76/76
f 78/78/78 71/71/71 77/77/77
f 79/79/79 72/72/72 73/73/73
f 80/80/80 79/79/79 73/73/73
f 81/81/81 74/74/74 72/72/72
f 81/81/81 75/75/75 74/74/74
f 79/79/79 81/81/81 72/72/72
f 82/82/82 76/76/76 75/75/75
f 82/82/82 75/75/75 81/81/81
f 83/83/83 77/77/77 76/76/76
f 83/83/83 76/76/76 82/82/82
f 84/84/84 78/78/78 77/77/77
f 84/84/84 77/77/77 83/83/83
f 85/85/85 78/78/78 84/84/84
f 86/86/86 79/79/79 80/80/80
f 87/87/87 86/86/86 80/80/80
f 88/88/88 81/81/81 79/79/79
f 88/88/88 82/82/82 81/81/81
f 86/86/86 88/88/88 79/79/79
f 89/89/89 83/83/83 82/82/82
f 89/89/89 82/82/82 88/88/88
f 90/90/90 84/84/84 83/83/83
f 90/90/90 83/83/83 89/89/89
f 91/91/91 85/85/85 84/84/84
f 91/91/91 84/84/84 90/90/90
f 92/92/92 85/85/85 91/91/91
f 93/93/93 86/86/86 87/87/87
f 94/94/94 93/93/93 87/87/87
f 95/95/95 88/88/88 86/86/86
f 95/95/95 89/89/89 88/88/88
f 93/93/93 95/95/95 86/86/86
f 96/96/96 90/90/90 89/89/89
f 96/96/96 89/89/89 95/95/95
f 97/97/97 91/91/91 90/90/90
f 97/97/97 90/90/90 96/96/96
f 98/98/98 92/92/92 91/91/91
f 98/98/98 91/91/91 97/97/97
f 99/99/99 92/92/92 98/98/98
f 100/100/100 93/93/93 94/94/94
f 101/101/101 100/100/100 94/94/94
f 102/102/102 95/95/95 93/93/93
f 102/102/102 96/96/96 95/95/95
f 100/100/100 102/102/102 93/93/93
f 103/103/103 97/97/97 96/96/96
f 103/103/103 96/96/96 102/102/102
f 104/104/104 98/98/98 97/97/97
f 104/104/104 97/97/97 103/103/103
f 105/105/105 99/99/99 98/98/98
f 105/105/105 98/98/98 104/104/104
f 106/106/106 99/99/99 105/105/105
f 107/107/107 100/100/100 101/101/101
f 108/108/108 107/107/107 101/101/101
f 109/109/109 102/102/102 100/100/100
f 109/109/109 103/103/103 102/102/102
f 107/107/107 109/109/109 100/100/100
f 110/110/110 104/104/104 103/103/103
f 110/110/110 103/103/103 109/109/109
f 111/111/111 105/105/105 104/104/104
f 111/111/111 104/104/104 110/110/110
f 112/112/112 106/106/106 105/105/105
f 112/112/112 105/105/105 111/111/111
f 113/113/113 106/106/106 112/112/112
f 114/114/114 107/107/107 108/108/108
f 115/115/115 114/114/114 108/108/108
f 116/116/116 109/109/109 107/107/107
f 116/116/116 110/110/110 109/109/109
f 114/114/114 116/116/116 107/107/107
f 117/117/117 111/111/111 110/110/110
f 117/117/117 110/110/110 116/116/116
f 118/118/118 112/112/112 111/111/111
f 118/118/118 111/111/111 117/117/117
f 119/119/119 113/113/113 112/112/112
f 119/119/119 112/112/112 118/118/118
f 120/120/120 113/113/113 119/119/119
f 121/121/121 114/114/114 115/115/115
f 122/122/122 121/121/121 115/115/115
f 123/123/123 116/116/116 114/114/114
f 123/123/123 117/117/117 116/116/116
f 121/121/121 123/123/123 114/114/114
f 124/124/124 118/118/118 117/117/117
f 124/124/124 117/117/117 123/123/123
f 125/125/125 119/119/119 118/118/118
f 125/125/125 118/118/118 124/124/124
f 126/126/126 120/120/120 119/119/119
f 126/126/126 119/119/119 125/125/125
f 127/127/127 120/120/120 126/126/126
f 128/128/128 121/121/121 122/122/122
f 129/129/129 128/128/128 122/122/122
f 130/130/130 123/123/123 121/121/121
f 130/130/130 124/124/124 123/123/123
f 128/128/128 130/130/130 121/121/121
f 131/131/131 125/125/125 124/124/124
f 131/131/131 124/124/124 130/130/130
f 132/132/132 126/126/126 125/125/125
f 132/132/132 125/125/125 131/131/131
f 133/133/133 127/127/127 126/126/126
f 133/133/133 126/126/126 132/132/132
f 134/134/134 127/127/127 133/133/133
f 135/135/135 128/128/128 129/129/129
f 136/136/136 135/135/135 129/129/129
f 137/137/137 130/130/130 128/128/128
f 137/137/137 131/131/131 130/130/130
f 135/135/135 137/137/137 128/128/128
f 138/138/138 132/132/132 131/131/131
f 138/138/138 131/131/131 137/137/137
f 139/139/139 133/133/133 132/132/132
f 139/139/139 132/132/132 138/138/138
f 140/140/140 134/134/134 133/133/133
f 140/140/140 133/133/133 139/139/139
f 141/141/141 134/134/134 140/140/140
f 142/142/142 135/135/135 136/136/136
f 143/143/143 142/142/142 136/136/136
f 144/144/144 137/137/137 135/135/135
f 144/144/144 138/138/138 137/137/137
f 142/142/142 144/144/144 135/135/135
f 145/145/145 139/139/139 138/138/138
f 145/145/145 138/138/138 144/144/144
f 146/146/146 140/140/140 139/139/139
f 146/146/146 139/139/139 145/145/145
f 147/147/147 141/141/141 140/140/140
f 147/147/147 140/140/140 146/146/146
f 148/148/148 141/141/141 147/147/147
f 149/149/149 148/148/148 147/147/147
f 149/149/149 147/147/147 150/150/150
f 150/150/150 147/147/147 146/146/146
f 151/151/151 149/149/149 150/150/150
f 152/152/152 142/142/142 143/143/143
f 153/153/153 152/152/152 143/143/143
f 154/154/154 144/144/144 142/142/142
f 154/154/154 145/145/145 144/144/144
f 152/152/152 154/154/154 142/142/142
f 155/155/155 146/146/146 145/145/145
f 150/150/150 146/146/146 155/155/155
f 155/155/155 145/145/145 154/154/154
f 151/151/151 150/150/150 156/156/156
f 156/156/156 150/150/150 155/155/155
f 157/157/157 151/151/151 156/156/156
f 158/158/158 155/155/155 154/154/154
f 158/158/158 154/154/154 152/152/152
f 156/156/156 155/155/155 158/158/158
f 159/159/159 152/152/152 153/153/153
f 159/159/159 158/158/158 152/152/152
f 160/160/160 159/159/159 153/153/153
f 157/157/157 156/156/156 161/161/161
f 161/161/161 156/156/156 158/158/158
f 161/161/161 158/158/158 159/159/159
f 162/162/162 157/157/157 161/161/161
f 163/163/163 159/159/159 160/160/160
f 163/163/163 161/161/161 159/159/159
f 162/162/162 161/161/161 163/163/163
f 164/164/164 163/163/163 160/160/160
f 165/165/165 162/162/162 163/163/163
f 165/165/165 163/163/163 164/164/164
f 166/166/166 165/165/165 164/164/164
