g column_1
v -0.39886746 -0.16521704 4.2821183
v -0.43173122 -6.976456E-07 4.2821183
v -0.46022013 -7.750742E-07 4.757372
v -0.42518798 -0.17611945 4.757372
v -0.30528003 -0.30528072 4.2821183
v -0.5274734 -0.21848743 5.3801694
v -0.5709331 -8.7654087E-07 5.3801694
v -0.40371042 -0.4037114 5.3801694
v -0.32542488 -0.32542565 4.757372
v -0.16521646 -0.39886823 4.2821183
v -0.21848659 -0.5274741 5.3801694
v -0.17611867 -0.4251889 4.757372
v -0 -0.43173182 4.2821183
v -0 -0.5709338 5.3801694
v -0 -0.46022102 4.757372
v 0.17611867 -0.4251889 4.757372
v 0.16521646 -0.39886823 4.2821183
v 0.21848659 -0.5274741 5.3801694
v 0.32542488 -0.32542565 4.757372
v 0.30528003 -0.30528072 4.2821183
v 0.40371042 -0.4037114 5.3801694
v 0.42518812 -0.17611945 4.757372
v 0.5274732 -0.21848743 5.3801694
v 0.3988676 -0.16521704 4.2821183
v 0.5709329 -8.7654087E-07 5.3801694
v 0.46022028 -7.750742E-07 4.757372
v 0.43173122 -6.976456E-07 4.2821183
v 0.5274732 0.21848567 5.3801694
v 0.3988676 0.16521564 4.2821183
v 0.42518812 0.1761179 4.757372
v 0.40371042 0.40370968 5.3801694
v 0.30528003 0.30527934 4.2821183
v 0.32542488 0.3254241 4.757372
v 0.21848659 0.5274723 5.3801694
v 0.16521646 0.39886686 4.2821183
v 0.17611867 0.42518735 4.757372
v -0 0.57093203 5.3801694
v -0 0.43173045 4.2821183
v -0 0.46021947 4.757372
v -0.17611867 0.42518735 4.757372
v -0.21848659 0.5274723 5.3801694
v -0.16521646 0.39886686 4.2821183
v -0.32542488 0.3254241 4.757372
v -0.40371042 0.40370968 5.3801694
v -0.30528003 0.30527934 4.2821183
v -0.42518798 0.1761179 4.757372
v -0.5274734 0.21848567 5.3801694
v -0.5709331 -8.7654087E-07 5.3801694
v -0.39886746 0.16521564 4.2821183
v -0.46022013 -7.750742E-07 4.757372
v -0.43173122 -6.976456E-07 4.2821183
v 0.557574 0.70814854 5.708781
v 0.50323397 0.6337243 5.5409093
v 0.50323397 -0.63372606 5.5409093
v 0.557574 -0.70815045 5.708781
v -0.39538795 0.16377434 4.0649643
v -0.5058162 -6.72647E-07 4.128678
v -0.4279648 -6.6226676E-07 4.0649643
v -0.4673134 0.19356677 4.128678
v -0.30261683 0.30261612 4.0649643
v -0.50958264 -6.878507E-07 4.2219973
v -0.35766593 0.35766536 4.128678
v -0.1637752 0.39538726 4.0649643
v -0.47079292 0.1950081 4.2219973
v -0.43173122 -6.976456E-07 4.2821183
v -0.39886746 0.16521564 4.2821183
v -0.36032942 0.36032858 4.2219973
v -0.30528003 0.30527934 4.2821183
v -0.19356763 0.46731257 4.128678
v -0 0.42796412 4.0649643
v -0.19500889 0.47079223 4.2219973
v -0.16521646 0.39886686 4.2821183
v -0 0.50581557 4.128678
v -0 0.50958186 4.2219973
v -0 0.43173045 4.2821183
v 0.16521646 0.39886686 4.2821183
v 0.19500889 0.47079223 4.2219973
v 0.30528003 0.30527934 4.2821183
v 0.19356763 0.46731257 4.128678
v 0.1637752 0.39538726 4.0649643
v 0.36032927 0.36032858 4.2219973
v 0.3988676 0.16521564 4.2821183
v 0.35766608 0.35766536 4.128678
v 0.30261683 0.30261612 4.0649643
v 0.47079292 0.1950081 4.2219973
v 0.43173122 -6.976456E-07 4.2821183
v 0.46731326 0.19356677 4.128678
v 0.39538795 0.16377434 4.0649643
v 0.50958264 -6.878507E-07 4.2219973
v 0.5058162 -6.72647E-07 4.128678
v 0.4279648 -6.6226676E-07 4.0649643
v 0.39538795 -0.16377565 4.0649643
v 0.46731326 -0.19356811 4.128678
v 0.30261683 -0.30261743 4.0649643
v 0.47079292 -0.19500947 4.2219973
v 0.3988676 -0.16521704 4.2821183
v 0.35766608 -0.35766673 4.128678
v 0.1637752 -0.39538857 4.0649643
v 0.36032927 -0.36032996 4.2219973
v 0.30528003 -0.30528072 4.2821183
v 0.19356763 -0.46731395 4.128678
v -0 -0.42796543 4.0649643
v 0.19500889 -0.4707936 4.2219973
v 0.16521646 -0.39886823 4.2821183
v -0 -0.5058169 4.128678
v -0 -0.5095833 4.2219973
v -0 -0.43173182 4.2821183
v -0.16521646 -0.39886823 4.2821183
v -0.19500889 -0.4707936 4.2219973
v -0.30528003 -0.30528072 4.2821183
v -0.19356763 -0.46731395 4.128678
v -0.1637752 -0.39538857 4.0649643
v -0.36032942 -0.36032996 4.2219973
v -0.39886746 -0.16521704 4.2821183
v -0.35766593 -0.35766673 4.128678
v -0.30261683 -0.30261743 4.0649643
v -0.47079292 -0.19500947 4.2219973
v -0.43173122 -6.976456E-07 4.2821183
v -0.50958264 -6.878507E-07 4.2219973
v -0.4673134 -0.19356811 4.128678
v -0.39538795 -0.16377565 4.0649643
v -0.5058162 -6.72647E-07 4.128678
v -0.4279648 -6.6226676E-07 4.0649643
v -0.68645036 -1.21384E-07 0.7450497
v -0.60076773 -0.24884619 0.6517393
v -0.6502664 -1.06181815E-07 0.65173936
v -0.6341974 -0.26269323 0.74504966
v -0.6502664 -1.3658621E-07 0.8383602
v -0.45980754 -0.45980778 0.6517393
v -0.60076773 -0.24884622 0.83836013
v -0.45907027 -1.4602416E-07 0.8962899
v -0.4241257 -0.17567874 0.8962899
v -0.4853936 -0.4853937 0.74504966
v -0.24884619 -0.6007678 0.65173924
v -0.45980754 -0.4598078 0.83836013
v -0.32461172 -0.32461187 0.8962898
v -0.26269314 -0.6341974 0.7450496
v -0 -0.65026635 0.65173924
v -0.24884619 -0.6007678 0.8383601
v -0.17567876 -0.42412582 0.8962898
v -0 -0.6864503 0.7450496
v -0 -0.65026635 0.8383601
v -0 -0.4590705 0.8962898
v 0.17567876 -0.42412582 0.8962898
v 0.24884619 -0.6007678 0.8383601
v 0.32461172 -0.32461187 0.8962898
v 0.26269314 -0.6341974 0.7450496
v 0.24884619 -0.6007678 0.65173924
v 0.4598077 -0.4598078 0.83836013
v 0.4241257 -0.17567874 0.8962899
v 0.4853936 -0.4853937 0.74504966
v 0.4598077 -0.45980778 0.6517393
v 0.60076773 -0.24884622 0.83836013
v 0.45907027 -1.4602416E-07 0.8962899
v 0.6341973 -0.26269323 0.74504966
v 0.60076773 -0.24884619 0.6517393
v 0.65026623 -1.3658621E-07 0.8383602
v 0.6864502 -1.21384E-07 0.7450497
v 0.65026623 -1.06181815E-07 0.65173936
v 0.60076773 0.24884598 0.6517394
v 0.6341973 0.262693 0.7450498
v 0.4598077 0.45980754 0.6517394
v 0.60076773 0.24884595 0.83836025
v 0.4241257 0.17567845 0.8962899
v 0.4853936 0.48539346 0.7450498
v 0.24884619 0.60076755 0.6517395
v 0.4598077 0.45980752 0.83836025
v 0.32461172 0.32461157 0.89628994
v 0.26269314 0.6341972 0.74504983
v -0 0.6502661 0.6517395
v 0.24884619 0.60076755 0.8383603
v 0.17567876 0.42412552 0.89628994
v -0 0.68645006 0.74504983
v -0 0.6502661 0.8383603
v -0 0.4590702 0.89628994
v -0.17567876 0.42412552 0.89628994
v -0.24884619 0.60076755 0.8383603
v -0.32461172 0.32461157 0.89628994
v -0.26269314 0.6341972 0.74504983
v -0.24884619 0.60076755 0.6517395
v -0.45980754 0.45980752 0.83836025
v -0.4241257 0.17567845 0.8962899
v -0.4853936 0.48539346 0.7450498
v -0.45980754 0.45980754 0.6517394
v -0.60076773 0.24884595 0.83836025
v -0.45907027 -1.4602416E-07 0.8962899
v -0.6502664 -1.3658621E-07 0.8383602
v -0.6341974 0.262693 0.7450498
v -0.60076773 0.24884598 0.6517394
v -0.68645036 -1.21384E-07 0.7450497
v -0.6502664 -1.06181815E-07 0.65173936
v -0.746317 -6.795792E-08 0.41712272
v -0.62822837 -0.26022068 0.29422814
v -0.6799892 -4.7935853E-08 0.29422817
v -0.68950677 -0.28560314 0.41712266
v -0.746317 -8.7979956E-08 0.5400171
v -0.4808252 -0.48082513 0.29422808
v -0.68950677 -0.28560317 0.54001707
v -0.6502664 -1.06181815E-07 0.65173936
v -0.60076773 -0.24884619 0.6517393
v -0.52772564 -0.5277258 0.41712263
v -0.26022068 -0.6282283 0.29422808
v -0.52772564 -0.5277258 0.54001707
v -0.45980754 -0.45980778 0.6517393
v -0.28560302 -0.68950695 0.4171226
v -0 -0.6799893 0.29422805
v -0.28560302 -0.68950695 0.540017
v -0.24884619 -0.6007678 0.65173924
v -0 -0.746317 0.4171226
v -0 -0.746317 0.540017
v -0 -0.65026635 0.65173924
v 0.24884619 -0.6007678 0.65173924
v 0.2856032 -0.68950695 0.540017
v 0.4598077 -0.45980778 0.6517393
v 0.2856032 -0.68950695 0.4171226
v 0.26022068 -0.6282283 0.29422808
v 0.52772564 -0.5277258 0.54001707
v 0.60076773 -0.24884619 0.6517393
v 0.52772564 -0.5277258 0.41712263
v 0.48082504 -0.48082513 0.29422808
v 0.6895069 -0.28560317 0.54001707
v 0.65026623 -1.06181815E-07 0.65173936
v 0.6895069 -0.28560314 0.41712266
v 0.6282282 -0.26022068 0.29422814
v 0.746317 -8.7979956E-08 0.5400171
v 0.746317 -6.795792E-08 0.41712272
v 0.6799892 -4.7935853E-08 0.29422817
v 0.6282282 0.26022056 0.2942282
v 0.6895069 0.28560302 0.41712278
v 0.48082504 0.480825 0.29422826
v 0.6895069 0.285603 0.5400172
v 0.60076773 0.24884598 0.6517394
v 0.52772564 0.5277257 0.4171228
v 0.26022068 0.6282282 0.29422826
v 0.52772564 0.5277257 0.5400172
v 0.4598077 0.45980754 0.6517394
v 0.2856032 0.6895068 0.41712284
v -0 0.67998916 0.2942283
v 0.2856032 0.6895068 0.54001725
v 0.24884619 0.60076755 0.6517395
v -0 0.7463169 0.41712284
v -0 0.7463169 0.54001725
v -0 0.6502661 0.6517395
v -0.24884619 0.60076755 0.6517395
v -0.28560302 0.6895068 0.54001725
v -0.45980754 0.45980754 0.6517394
v -0.28560302 0.6895068 0.41712284
v -0.26022068 0.6282282 0.29422826
v -0.52772564 0.5277257 0.5400172
v -0.60076773 0.24884598 0.6517394
v -0.52772564 0.5277257 0.4171228
v -0.4808252 0.480825 0.29422826
v -0.68950677 0.285603 0.5400172
v -0.6502664 -1.06181815E-07 0.65173936
v -0.746317 -8.7979956E-08 0.5400171
v -0.68950677 0.28560302 0.41712278
v -0.62822837 0.26022056 0.2942282
v -0.746317 -6.795792E-08 0.41712272
v -0.6799892 -4.7935853E-08 0.29422817
v 0.86390865 -0.8639088 0.31628492
v 0.86390865 -0.86390877 -1.407486E-07
v -0.86390865 -0.86390877 -1.407486E-07
v -0.86390865 -0.8639088 0.31628492
v -0.45907027 -1.4602416E-07 0.8962899
v -0.4279648 -6.6226676E-07 4.0649643
v -0.39538795 -0.16377565 4.0649643
v -0.4241257 -0.17567874 0.8962899
v -0.30261683 -0.30261743 4.0649643
v -0.32461172 -0.32461187 0.8962898
v -0.1637752 -0.39538857 4.0649643
v -0.17567876 -0.42412582 0.8962898
v -0 -0.42796543 4.0649643
v -0 -0.4590705 0.8962898
v 0.17567876 -0.42412582 0.8962898
v 0.1637752 -0.39538857 4.0649643
v 0.32461172 -0.32461187 0.8962898
v 0.30261683 -0.30261743 4.0649643
v 0.4241257 -0.17567874 0.8962899
v 0.39538795 -0.16377565 4.0649643
v 0.45907027 -1.4602416E-07 0.8962899
v 0.4279648 -6.6226676E-07 4.0649643
v 0.39538795 0.16377434 4.0649643
v 0.4241257 0.17567845 0.8962899
v 0.30261683 0.30261612 4.0649643
v 0.32461172 0.32461157 0.89628994
v 0.1637752 0.39538726 4.0649643
v 0.17567876 0.42412552 0.89628994
v -0 0.42796412 4.0649643
v -0 0.4590702 0.89628994
v -0.17567876 0.42412552 0.89628994
v -0.1637752 0.39538726 4.0649643
v -0.32461172 0.32461157 0.89628994
v -0.30261683 0.30261612 4.0649643
v -0.4241257 0.17567845 0.8962899
v -0.39538795 0.16377434 4.0649643
v -0.45907027 -1.4602416E-07 0.8962899
v -0.4279648 -6.6226676E-07 4.0649643
v 0.86390865 0.8639087 0.31628522
v 0.86390865 0.86390877 1.407486E-07
v 0.86390865 -0.86390877 -1.407486E-07
v 0.86390865 -0.8639088 0.31628492
v 0.557574 -0.70815045 5.708781
v -0.557574 -0.70815045 5.708781
v -0.557574 0.70814854 5.708781
v 0.557574 0.70814854 5.708781
v -0.557574 -0.70815045 5.708781
v -0.50323397 -0.63372606 5.5409093
v -0.50323397 0.6337243 5.5409093
v -0.557574 0.70814854 5.708781
v 0.3657607 0.6337243 5.3587804
v 0.3657607 -0.63372606 5.3587804
v 0.2912176 -0.633726 5.178817
v 0.2912176 0.63372433 5.178817
v 0.3657607 -0.633726 4.998854
v 0.3657607 0.63372433 4.998854
v 0.54572374 -0.63372594 4.924311
v 0.54572374 0.6337244 4.924311
v 0.7256866 0.63372433 4.998854
v 0.7256866 -0.633726 4.998854
v 0.80022955 0.63372433 5.178817
v 0.80022955 -0.633726 5.178817
v 0.7256866 -0.63372606 5.3587804
v 0.7256866 0.6337243 5.3587804
v 0.62244 0.6337243 5.487565
v 0.62244 -0.63372606 5.487565
v 0.50323397 0.6337243 5.5409093
v 0.50323397 -0.63372606 5.5409093
v 0.86390865 0.8639087 0.31628522
v -0.86390865 0.8639087 0.31628522
v -0.86390865 0.86390877 1.407486E-07
v 0.86390865 0.86390877 1.407486E-07
v -0.86390865 0.8639087 0.31628522
v -0.86390865 -0.8639088 0.31628492
v -0.86390865 -0.86390877 -1.407486E-07
v -0.86390865 0.86390877 1.407486E-07
v 0.86390865 0.8639087 0.31628522
v 0.86390865 -0.8639088 0.31628492
v -0.86390865 -0.8639088 0.31628492
v -0.86390865 0.8639087 0.31628522
v -0.62244016 0.6337243 5.487565
v -0.50323397 0.6337243 5.5409093
v -0.50323397 -0.63372606 5.5409093
v -0.62244016 -0.63372606 5.487565
v -0.7256866 0.6337243 5.3587804
v -0.7256866 -0.63372606 5.3587804
v -0.80022955 -0.633726 5.178817
v -0.80022955 0.63372433 5.178817
v -0.7256866 -0.633726 4.998854
v -0.7256866 0.63372433 4.998854
v -0.54572374 0.6337244 4.924311
v -0.54572374 -0.63372594 4.924311
v -0.36576056 0.63372433 4.998854
v -0.36576056 -0.633726 4.998854
v -0.2912176 0.63372433 5.178817
v -0.2912176 -0.633726 5.178817
v -0.36576056 -0.63372606 5.3587804
v -0.36576056 0.6337243 5.3587804
v -0.557574 0.70814854 5.708781
v 0.50323397 0.6337243 5.5409093
v 0.557574 0.70814854 5.708781
v -0.50323397 0.6337243 5.5409093
v -0.36576056 0.6337243 5.3587804
v -0.54572374 0.70717657 5.179405
v -0.62244016 0.6337243 5.487565
v -0.7256866 0.6337243 5.3587804
v -0.80022955 0.63372433 5.178817
v -0.7256866 0.63372433 4.998854
v -0.54572374 0.6337244 4.924311
v -0.36576056 0.63372433 4.998854
v -0.2912176 0.63372433 5.178817
v 0.3657607 0.6337243 5.3587804
v 0.5457456 0.70717657 5.1794324
v 0.62244 0.6337243 5.487565
v 0.2912176 0.63372433 5.178817
v 0.7256866 0.6337243 5.3587804
v 0.3657607 0.63372433 4.998854
v 0.80022955 0.63372433 5.178817
v 0.54572374 0.6337244 4.924311
v 0.7256866 0.63372433 4.998854
v 0.50323397 -0.63372606 5.5409093
v -0.557574 -0.70815045 5.708781
v 0.557574 -0.70815045 5.708781
v -0.50323397 -0.63372606 5.5409093
v 0.3657607 -0.63372606 5.3587804
v 0.5457456 -0.70717824 5.1794324
v 0.62244 -0.63372606 5.487565
v 0.7256866 -0.63372606 5.3587804
v 0.80022955 -0.633726 5.178817
v 0.7256866 -0.633726 4.998854
v 0.54572374 -0.63372594 4.924311
v 0.3657607 -0.633726 4.998854
v 0.2912176 -0.633726 5.178817
v -0.36576056 -0.63372606 5.3587804
v -0.54572374 -0.70717824 5.179405
v -0.62244016 -0.63372606 5.487565
v -0.2912176 -0.633726 5.178817
v -0.7256866 -0.63372606 5.3587804
v -0.36576056 -0.633726 4.998854
v -0.80022955 -0.633726 5.178817
v -0.54572374 -0.63372594 4.924311
v -0.7256866 -0.633726 4.998854
v -0.36576056 -0.63372606 5.3587804
v 0.3657607 -0.63372606 5.3587804
v 0.3657607 0.6337243 5.3587804
v -0.36576056 0.6337243 5.3587804
v -0.86390865 -0.86390877 -1.407486E-07
v 0.86390865 -0.86390877 -1.407486E-07
v 0.86390865 0.86390877 1.407486E-07
v -0.86390865 0.86390877 1.407486E-07
vt 0.67529297 0.3178711
vt 0.67529297 0.33862305
vt 0.72753906 0.33862305
vt 0.72753906 0.3178711
vt 0.67529297 0.29711914
vt 0.79785156 0.3178711
vt 0.79785156 0.33862305
vt 0.79785156 0.29736328
vt 0.72802734 0.29736328
vt 0.67529297 0.27661133
vt 0.79785156 0.27661133
vt 0.72802734 0.27661133
vt 0.67529297 0.25585938
vt 0.79785156 0.25585938
vt 0.72802734 0.25585938
vt 0.72802734 0.23522949
vt 0.67529297 0.23522949
vt 0.79785156 0.23510742
vt 0.72753906 0.21447754
vt 0.67529297 0.21459961
vt 0.79785156 0.21447754
vt 0.72753906 0.19384766
vt 0.79785156 0.19384766
vt 0.67529297 0.19384766
vt 0.79785156 0.17321777
vt 0.72802734 0.1730957
vt 0.67529297 0.1730957
vt 0.79785156 0.15246582
vt 0.67529297 0.15246582
vt 0.72802734 0.15246582
vt 0.79785156 0.13171387
vt 0.67529297 0.13171387
vt 0.72802734 0.13183594
vt 0.79785156 0.111083984
vt 0.67529297 0.111083984
vt 0.72802734 0.111083984
vt 0.79785156 0.09039307
vt 0.67529297 0.09039307
vt 0.7285156 0.09039307
vt 0.72802734 0.06970215
vt 0.79785156 0.06964111
vt 0.67529297 0.06976318
vt 0.72802734 0.04901123
vt 0.79785156 0.048980713
vt 0.67529297 0.049102783
vt 0.72753906 0.028335571
vt 0.79785156 0.028320312
vt 0.79785156 0.007659912
vt 0.67529297 0.028381348
vt 0.72802734 0.007659912
vt 0.67529297 0.007659912
vt 0.97314453 0.9736328
vt 0.9921875 0.96533203
vt 0.9921875 0.8261719
vt 0.97314453 0.8178711
vt 0.84814453 0.3149414
vt 0.8383789 0.33691406
vt 0.8496094 0.33398438
vt 0.83691406 0.31567383
vt 0.84716797 0.29467773
vt 0.8276367 0.33740234
vt 0.8364258 0.29516602
vt 0.8466797 0.27441406
vt 0.82666016 0.3161621
vt 0.81640625 0.33544922
vt 0.81640625 0.3161621
vt 0.8261719 0.2956543
vt 0.8154297 0.29589844
vt 0.8354492 0.2746582
vt 0.8457031 0.2541504
vt 0.8251953 0.27490234
vt 0.8144531 0.27539062
vt 0.83496094 0.25439453
vt 0.82470703 0.25463867
vt 0.81347656 0.2548828
vt 0.81347656 0.23425293
vt 0.82421875 0.23413086
vt 0.8129883 0.21374512
vt 0.83447266 0.23388672
vt 0.8457031 0.23364258
vt 0.82373047 0.21362305
vt 0.8129883 0.1932373
vt 0.83447266 0.21350098
vt 0.84521484 0.21325684
vt 0.82373047 0.19311523
vt 0.81347656 0.17260742
vt 0.8339844 0.19299316
vt 0.84521484 0.19299316
vt 0.82373047 0.17260742
vt 0.8339844 0.17260742
vt 0.84521484 0.17260742
vt 0.84521484 0.15222168
vt 0.8339844 0.15222168
vt 0.84521484 0.13195801
vt 0.82373047 0.15209961
vt 0.8129883 0.15197754
vt 0.83447266 0.13171387
vt 0.8457031 0.111572266
vt 0.82373047 0.1315918
vt 0.8129883 0.13146973
vt 0.83447266 0.111328125
vt 0.8457031 0.09118652
vt 0.82421875 0.11114502
vt 0.81347656 0.11090088
vt 0.83496094 0.09088135
vt 0.82470703 0.09063721
vt 0.81347656 0.09039307
vt 0.8144531 0.069885254
vt 0.8251953 0.07019043
vt 0.8154297 0.049346924
vt 0.8354492 0.070495605
vt 0.8466797 0.070739746
vt 0.8261719 0.049682617
vt 0.81640625 0.029022217
vt 0.8364258 0.050048828
vt 0.84716797 0.050445557
vt 0.82666016 0.029006958
vt 0.81640625 0.00969696
vt 0.8276367 0.0076904297
vt 0.83691406 0.029464722
vt 0.84814453 0.030380249
vt 0.8383789 0.00818634
vt 0.8496094 0.011154175
vt 0.06304932 0.8305664
vt 0.05215454 0.8017578
vt 0.05215454 0.8305664
vt 0.06304932 0.8017578
vt 0.073913574 0.8305664
vt 0.05215454 0.7729492
vt 0.073913574 0.8017578
vt 0.095336914 0.8305664
vt 0.095336914 0.8017578
vt 0.06304932 0.7729492
vt 0.05215454 0.7441406
vt 0.073913574 0.7729492
vt 0.095336914 0.7729492
vt 0.06304932 0.7441406
vt 0.05215454 0.7158203
vt 0.073913574 0.7441406
vt 0.095336914 0.7441406
vt 0.06304932 0.7158203
vt 0.073913574 0.7158203
vt 0.095336914 0.7158203
vt 0.095336914 0.6870117
vt 0.073913574 0.6870117
vt 0.095336914 0.6582031
vt 0.06304932 0.6870117
vt 0.05215454 0.6870117
vt 0.073913574 0.6582031
vt 0.095336914 0.62939453
vt 0.06304932 0.6582031
vt 0.05215454 0.6582031
vt 0.073913574 0.62939453
vt 0.095336914 0.60058594
vt 0.06304932 0.62939453
vt 0.05215454 0.62939453
vt 0.073913574 0.60058594
vt 0.06304932 0.60058594
vt 0.05215454 0.60058594
vt 0.05215454 0.5722656
vt 0.06304932 0.5722656
vt 0.05215454 0.54345703
vt 0.073913574 0.5722656
vt 0.095336914 0.5722656
vt 0.06304932 0.54345703
vt 0.05215454 0.51464844
vt 0.073913574 0.54345703
vt 0.095336914 0.54345703
vt 0.06304932 0.51464844
vt 0.05215454 0.48583984
vt 0.073913574 0.51464844
vt 0.095336914 0.51464844
vt 0.06304932 0.48583984
vt 0.073913574 0.48583984
vt 0.095336914 0.48583984
vt 0.095336914 0.4572754
vt 0.073913574 0.4572754
vt 0.095336914 0.4284668
vt 0.06304932 0.4572754
vt 0.05215454 0.4572754
vt 0.073913574 0.4284668
vt 0.095336914 0.3996582
vt 0.06304932 0.4284668
vt 0.05215454 0.4284668
vt 0.073913574 0.3996582
vt 0.095336914 0.37109375
vt 0.073913574 0.37109375
vt 0.06304932 0.3996582
vt 0.05215454 0.3996582
vt 0.06304932 0.37109375
vt 0.05215454 0.37109375
vt 0.022827148 0.8305664
vt 0.0076560974 0.8017578
vt 0.0076560974 0.8305664
vt 0.022827148 0.8017578
vt 0.036224365 0.8305664
vt 0.0076560974 0.7729492
vt 0.036224365 0.8017578
vt 0.05215454 0.8305664
vt 0.05215454 0.8017578
vt 0.022827148 0.7729492
vt 0.0076560974 0.7441406
vt 0.036224365 0.7729492
vt 0.05215454 0.7729492
vt 0.022827148 0.7441406
vt 0.0076560974 0.7158203
vt 0.036224365 0.7441406
vt 0.05215454 0.7441406
vt 0.022827148 0.7158203
vt 0.036224365 0.7158203
vt 0.05215454 0.7158203
vt 0.05215454 0.6870117
vt 0.036224365 0.6870117
vt 0.05215454 0.6582031
vt 0.022827148 0.6870117
vt 0.0076560974 0.6870117
vt 0.036224365 0.6582031
vt 0.05215454 0.62939453
vt 0.022827148 0.6582031
vt 0.0076560974 0.6582031
vt 0.036224365 0.62939453
vt 0.05215454 0.60058594
vt 0.022827148 0.62939453
vt 0.0076560974 0.62939453
vt 0.036224365 0.60058594
vt 0.022827148 0.60058594
vt 0.0076560974 0.60058594
vt 0.0076560974 0.5722656
vt 0.022827148 0.5722656
vt 0.0076560974 0.54345703
vt 0.036224365 0.5722656
vt 0.05215454 0.5722656
vt 0.022827148 0.54345703
vt 0.0076560974 0.51464844
vt 0.036224365 0.54345703
vt 0.05215454 0.54345703
vt 0.022827148 0.51464844
vt 0.0076560974 0.48583984
vt 0.036224365 0.51464844
vt 0.05215454 0.51464844
vt 0.022827148 0.48583984
vt 0.036224365 0.48583984
vt 0.05215454 0.48583984
vt 0.05215454 0.4572754
vt 0.036224365 0.4572754
vt 0.05215454 0.4284668
vt 0.022827148 0.4572754
vt 0.0076560974 0.4572754
vt 0.036224365 0.4284668
vt 0.05215454 0.3996582
vt 0.022827148 0.4284668
vt 0.0076560974 0.4284668
vt 0.036224365 0.3996582
vt 0.05215454 0.37109375
vt 0.036224365 0.37109375
vt 0.022827148 0.3996582
vt 0.0076560974 0.3996582
vt 0.022827148 0.37109375
vt 0.0076560974 0.37109375
vt 0.30541992 0.9897461
vt 0.30541992 0.9550781
vt 0.115722656 0.9550781
vt 0.115722656 0.9897461
vt 0.0076560974 0.0076560974
vt 0.0076560974 0.3557129
vt 0.026657104 0.3557129
vt 0.026657104 0.0076560974
vt 0.045654297 0.3557129
vt 0.045654297 0.0076560974
vt 0.064697266 0.3557129
vt 0.064697266 0.0076560974
vt 0.0836792 0.3557129
vt 0.0836792 0.0076560974
vt 0.10266113 0.0076560974
vt 0.10266113 0.3557129
vt 0.1217041 0.0076560974
vt 0.1217041 0.3557129
vt 0.140625 0.0076560974
vt 0.140625 0.3557129
vt 0.15966797 0.0076560974
vt 0.15966797 0.3557129
vt 0.17871094 0.3557129
vt 0.17871094 0.0076560974
vt 0.1977539 0.3557129
vt 0.1977539 0.0076560974
vt 0.2166748 0.3557129
vt 0.2166748 0.0076560974
vt 0.23571777 0.3557129
vt 0.23571777 0.0076560974
vt 0.25463867 0.0076560974
vt 0.25463867 0.3557129
vt 0.27368164 0.0076560974
vt 0.27368164 0.3557129
vt 0.2927246 0.0076560974
vt 0.2927246 0.3557129
vt 0.31176758 0.0076560974
vt 0.31176758 0.3557129
vt 0.94921875 0.40356445
vt 0.9838867 0.40356445
vt 0.9838867 0.21386719
vt 0.94921875 0.21386719
vt 0.5761719 0.87109375
vt 0.5761719 0.74853516
vt 0.42089844 0.74853516
vt 0.42089844 0.87109375
vt 0.52001953 0.1340332
vt 0.50097656 0.14221191
vt 0.50097656 0.28149414
vt 0.52001953 0.28955078
vt 0.5996094 0.53222656
vt 0.5996094 0.6713867
vt 0.62109375 0.6713867
vt 0.62109375 0.53222656
vt 0.6425781 0.6713867
vt 0.6425781 0.53222656
vt 0.6640625 0.6713867
vt 0.6640625 0.53222656
vt 0.6850586 0.53222656
vt 0.6850586 0.6713867
vt 0.70654297 0.53222656
vt 0.70654297 0.6713867
vt 0.72802734 0.6713867
vt 0.72802734 0.53222656
vt 0.74609375 0.53222656
vt 0.74609375 0.6713867
vt 0.7607422 0.53222656
vt 0.7607422 0.6713867
vt 0.30810547 0.9038086
vt 0.11846924 0.9038086
vt 0.11846924 0.93847656
vt 0.30810547 0.93847656
vt 0.5131836 0.9038086
vt 0.32348633 0.9038086
vt 0.32348633 0.93847656
vt 0.5131836 0.93847656
vt 0.11065674 0.8881836
vt 0.25048828 0.8881836
vt 0.25048828 0.74853516
vt 0.11065674 0.74853516
vt 0.11065674 0.5175781
vt 0.11065674 0.5317383
vt 0.24987793 0.5317383
vt 0.24987793 0.5175781
vt 0.11065674 0.49926758
vt 0.24987793 0.49926758
vt 0.24987793 0.47802734
vt 0.11065674 0.47802734
vt 0.24987793 0.45654297
vt 0.11065674 0.45654297
vt 0.11065674 0.43530273
vt 0.24987793 0.43530273
vt 0.11065674 0.41381836
vt 0.24987793 0.41381836
vt 0.11065674 0.39233398
vt 0.24987793 0.39233398
vt 0.24987793 0.37109375
vt 0.11065674 0.37109375
vt 0.7426758 0.8378906
vt 0.62597656 0.8178711
vt 0.6201172 0.8378906
vt 0.7368164 0.8178711
vt 0.7216797 0.79785156
vt 0.7426758 0.77783203
vt 0.7504883 0.8125
vt 0.76220703 0.79833984
vt 0.7709961 0.7783203
vt 0.7631836 0.7583008
vt 0.74316406 0.7495117
vt 0.72265625 0.7573242
vt 0.7138672 0.77734375
vt 0.64160156 0.79785156
vt 0.62060547 0.77783203
vt 0.61279297 0.8125
vt 0.64941406 0.77734375
vt 0.60058594 0.79833984
vt 0.6401367 0.7573242
vt 0.5917969 0.7783203
vt 0.6201172 0.7495117
vt 0.60009766 0.7583008
vt 0.4104004 0.64404297
vt 0.29370117 0.6645508
vt 0.41625977 0.6645508
vt 0.2998047 0.64404297
vt 0.39526367 0.62402344
vt 0.41601562 0.6044922
vt 0.42382812 0.6386719
vt 0.43603516 0.625
vt 0.44458008 0.60498047
vt 0.43676758 0.58447266
vt 0.41674805 0.5756836
vt 0.39624023 0.5834961
vt 0.38745117 0.6035156
vt 0.3149414 0.62402344
vt 0.29418945 0.6044922
vt 0.28637695 0.6386719
vt 0.3227539 0.6035156
vt 0.27416992 0.625
vt 0.31396484 0.5834961
vt 0.26538086 0.60498047
vt 0.29345703 0.5756836
vt 0.2734375 0.58447266
vt 0.95751953 0.79785156
vt 0.8774414 0.79785156
vt 0.8774414 0.9370117
vt 0.95751953 0.9370117
vt 0.33129883 0.828125
vt 0.35473633 0.828125
vt 0.35473633 0.8046875
vt 0.33129883 0.8046875
vn -0.6767578 -0.28027344 0.68066406
vn -0.7216797 0.48364258 0.49536133
vn -0.9951172 -0.046966553 -0.08856201
vn -0.9003906 -0.4255371 -0.091430664
vn -0.85253906 -0.16821289 0.49536133
vn -0.91845703 -0.35595703 -0.17333984
vn -0.984375 0.022506714 -0.17333984
vn -0.71191406 -0.6801758 -0.17333984
vn -0.67041016 -0.7368164 -0.08856201
vn -0.28051758 -0.6767578 0.68066406
vn -0.39746094 -0.9008789 -0.17333984
vn -0.33569336 -0.9375 -0.091430664
vn -3.4928322E-05 -0.73291016 0.68066406
vn -0 -0.984375 -0.17504883
vn -0.006832123 -1 -0.0049476624
vn 0.33569336 -0.9375 -0.091430664
vn -0.17077637 -0.8515625 0.49536133
vn 0.39746094 -0.9008789 -0.17333984
vn 0.6689453 -0.73779297 -0.091430664
vn 0.16821289 -0.85253906 0.49536133
vn 0.71191406 -0.6801758 -0.17333984
vn 0.9194336 -0.37060547 -0.1328125
vn 0.90966797 -0.37670898 -0.17504883
vn 0.6767578 -0.28051758 0.68066406
vn 0.984375 -0.022506714 -0.17333984
vn 0.9951172 0.046966553 -0.08856201
vn 0.7216797 -0.48364258 0.49536133
vn 0.91845703 0.35595703 -0.17333984
vn 0.35986328 0.9316406 -0.049926758
vn 0.9003906 0.4255371 -0.091430664
vn 0.71191406 0.6801758 -0.17333984
vn 0.16821289 0.85253906 0.49536133
vn 0.671875 0.73583984 -0.08581543
vn 0.39746094 0.9008789 -0.17333984
vn -0.40454102 0.91308594 -0.049926758
vn 0.33740234 0.9370117 -0.08856201
vn -0 0.984375 -0.17504883
vn -0.48364258 0.7216797 0.49536133
vn -0 1 -0.0047454834
vn -0.36035156 0.9301758 -0.067993164
vn -0.39746094 0.9008789 -0.17333984
vn -0.9316406 0.35986328 -0.049926758
vn -0.6689453 0.73779297 -0.091430664
vn -0.71191406 0.6801758 -0.17333984
vn -0.85253906 0.16821289 0.49536133
vn -0.9121094 0.38793945 -0.1328125
vn -0.90966797 0.37670898 -0.17504883
vn -0.984375 0.022506714 -0.17333984
vn -0.4814453 0.72314453 0.49536133
vn -0.9951172 -0.046966553 -0.08856201
vn -0.7216797 0.48364258 0.49536133
vn 0.42285156 -0.47436523 -0.77197266
vn 0.19482422 -0.98046875 0.032043457
vn 0.5908203 0.7807617 0.20361328
vn 0.43237305 0.3474121 -0.83203125
vn -0.9711914 -0.2084961 -0.11657715
vn -0.578125 0.02229309 -0.81591797
vn -0.2915039 -0.78466797 -0.546875
vn -0.5336914 0.22106934 -0.81640625
vn -0.9770508 0.17895508 -0.11657715
vn -0.49438477 0.0004005432 0.8691406
vn -0.42456055 0.39282227 -0.81591797
vn 0.2084961 0.9711914 -0.11657715
vn -0.4506836 0.20373535 0.8691406
vn -0.8222656 -0.50634766 0.25952148
vn -0.9536133 -0.15319824 0.25952148
vn -0.34936523 0.34985352 0.8691406
vn -0.22338867 0.9394531 0.25952148
vn -0.2211914 0.5336914 -0.81640625
vn -0.0002925396 0.9995117 0.032440186
vn -0.17468262 0.46289062 0.8691406
vn 0.51220703 0.5864258 0.6274414
vn -0.02229309 0.578125 -0.81591797
vn 5.7160854E-05 0.49438477 0.8691406
vn 0.50634766 0.8222656 0.25952148
vn 0.77685547 0.052490234 0.6274414
vn 0.17468262 0.46289062 0.8691406
vn 0.9394531 0.22338867 0.25952148
vn 0.22106934 0.5336914 -0.81640625
vn 0.38256836 0.92333984 0.032440186
vn 0.34960938 0.34960938 0.8691406
vn 0.5864258 -0.51220703 0.6274414
vn 0.39282227 0.42456055 -0.81591797
vn 0.9770508 0.17895508 -0.11657715
vn 0.4506836 0.20373535 0.8691406
vn 0.8222656 0.50634766 0.25952148
vn 0.5336914 0.2211914 -0.81640625
vn 0.92333984 0.38232422 0.032440186
vn 0.49438477 0 0.8691406
vn 0.578125 -0.02229309 -0.81591797
vn 0.8173828 -0.56396484 -0.11657715
vn 0.92333984 -0.38256836 0.032440186
vn 0.5253906 -0.24182129 -0.81591797
vn 0.70654297 -0.70703125 0.032440186
vn 0.4567871 -0.18920898 0.8691406
vn 0.9165039 -0.37939453 0.12866211
vn 0.40844727 -0.40844727 -0.81640625
vn 0.38232422 -0.92333984 0.032440186
vn 0.36083984 -0.3383789 0.8691406
vn 0.9394531 -0.22338867 0.25952148
vn 0.24182129 -0.5253906 -0.81591797
vn 0.0002925396 -0.9995117 0.032440186
vn 0.18908691 -0.4567871 0.8691406
vn 0.78271484 -0.56591797 0.25952148
vn 0.02229309 -0.578125 -0.81591797
vn -5.7280064E-05 -0.49438477 0.8691406
vn 3.71933E-05 -0.9916992 0.12866211
vn -0.3791504 -0.9165039 0.12866211
vn -0.20373535 -0.4506836 0.8691406
vn -0.22338867 -0.9394531 0.25952148
vn -0.24182129 -0.5253906 -0.81591797
vn 0.61328125 -0.5698242 -0.546875
vn -0.34960938 -0.34960938 0.8691406
vn -0.9160156 -0.37963867 0.12866211
vn -0.40844727 -0.40844727 -0.81640625
vn -0.17895508 -0.9770508 -0.11657715
vn -0.46289062 -0.17468262 0.8691406
vn -0.8222656 -0.50634766 0.25952148
vn -0.49438477 0.0004005432 0.8691406
vn -0.5336914 -0.22106934 -0.81640625
vn -0.5390625 -0.8339844 -0.11657715
vn -0.578125 0.02229309 -0.81591797
vn -0.2915039 -0.78466797 -0.546875
vn -1 0 0
vn 0.35913086 -0.9291992 -0.085998535
vn -0.29101562 -0.7426758 0.6035156
vn -0.9238281 -0.38256836 0
vn -0.51123047 2.348423E-05 0.859375
vn 0.3190918 -0.73095703 0.6035156
vn -0.47216797 -0.19555664 0.859375
vn -0.056671143 0.73828125 0.671875
vn -0.33496094 0.66064453 0.671875
vn -0.70703125 -0.70703125 0
vn 0.9111328 -0.40307617 -0.085998535
vn -0.36938477 -0.35375977 0.859375
vn -0.87109375 -0.10992432 0.4790039
vn -0.38256836 -0.9238281 0
vn 0.7426758 -0.29101562 0.6035156
vn -0.19555664 -0.47216797 0.859375
vn -0.7626953 -0.43481445 0.4790039
vn -0 -1 0
vn -0.011009216 -0.51123047 0.859375
vn -0.73828125 -0.056671143 0.671875
vn -0.66064453 -0.33496094 0.671875
vn 0.20581055 -0.46801758 0.859375
vn -0.48217773 -0.5625 0.671875
vn 0.38256836 -0.9238281 0
vn 0.9291992 0.35913086 -0.085998535
vn 0.36938477 -0.35375977 0.859375
vn 0.43481445 -0.7626953 0.4790039
vn 0.70703125 -0.70703125 0
vn 0.73095703 0.3190918 0.6035156
vn 0.47216797 -0.19555664 0.859375
vn 0.6933594 -0.53808594 0.4790039
vn 0.9238281 -0.38256836 0
vn 0.40307617 0.9111328 -0.085998535
vn 0.51123047 0 0.859375
vn 1 0 0
vn 0.023712158 0.99609375 -0.085998535
vn -0.35913086 0.9291992 -0.085998535
vn 0.9238281 0.38256836 0
vn -0.6875 0.7211914 -0.085998535
vn 0.46801758 0.20581055 0.859375
vn 0.33496094 -0.66064453 0.671875
vn 0.70703125 0.70703125 0
vn -0.9111328 0.40307617 -0.085998535
vn 0.36132812 0.36132812 0.859375
vn 0.87109375 0.10992432 0.4790039
vn 0.38256836 0.9238281 0
vn -0.7426758 0.29101562 0.6035156
vn 0.20581055 0.46801758 0.859375
vn 0.7626953 0.43481445 0.4790039
vn -0 1 0
vn 0.000118136406 0.51123047 0.859375
vn 0.73828125 0.056671143 0.671875
vn 0.66064453 0.33496094 0.671875
vn -0.19555664 0.47216797 0.859375
vn -0.10992432 0.87109375 0.4790039
vn -0.38256836 0.9238281 0
vn -0.7973633 -0.015235901 0.6035156
vn -0.35375977 0.36938477 0.859375
vn -0.43481445 0.7626953 0.4790039
vn -0.70703125 0.70703125 0
vn -0.7211914 -0.6875 -0.085998535
vn -0.46801758 0.20581055 0.859375
vn -0.056671143 0.73828125 0.671875
vn -0.51123047 2.348423E-05 0.859375
vn -0.9238281 0.38256836 0
vn -0.55322266 -0.57470703 0.6035156
vn -1 0 0
vn -0.29101562 -0.7426758 0.6035156
vn -0.7910156 0 -0.6123047
vn -0.8129883 -0.33666992 -0.47485352
vn -0.8798828 0 -0.47485352
vn -0.7392578 -0.2824707 -0.6113281
vn -0.6479492 -0.02293396 0.76123047
vn -0.6220703 -0.6220703 -0.47485352
vn -0.59814453 -0.24780273 0.76171875
vn -0.47631836 0.7607422 -0.44091797
vn -0.3527832 0.9243164 0.14538574
vn -0.57470703 -0.5439453 -0.6113281
vn -0.33666992 -0.8129883 -0.47485352
vn -0.4580078 -0.4580078 0.76171875
vn -0.8745117 0.20092773 -0.44091797
vn -0.30273438 -0.73046875 -0.6123047
vn -0 -0.8798828 -0.47485352
vn -0.24780273 -0.59814453 0.76171875
vn -0.9033203 0.40405273 0.14538574
vn -0 -0.7910156 -0.6123047
vn 0.02293396 -0.6479492 0.76123047
vn -0.7607422 -0.47631836 -0.44091797
vn -0.9243164 -0.3527832 0.14538574
vn 0.26904297 -0.58984375 0.76123047
vn -0.20092773 -0.8745117 -0.44091797
vn 0.30273438 -0.73046875 -0.6123047
vn 0.33666992 -0.8129883 -0.47485352
vn 0.47436523 -0.44189453 0.76123047
vn -0.40405273 -0.9033203 0.14538574
vn 0.55908203 -0.55908203 -0.6123047
vn 0.6220703 -0.6220703 -0.47485352
vn 0.6074219 -0.22668457 0.76123047
vn -0.027679443 -0.98876953 0.14538574
vn 0.72216797 -0.3227539 -0.6113281
vn 0.8129883 -0.33666992 -0.47485352
vn 0.64746094 -4.8220158E-05 0.76171875
vn 0.7910156 -0.02180481 -0.6113281
vn 0.8798828 0 -0.47485352
vn 0.8129883 0.33666992 -0.47485352
vn 0.73046875 0.30273438 -0.6123047
vn 0.6220703 0.6220703 -0.47485352
vn 0.6074219 0.22668457 0.76123047
vn 0.3527832 -0.9243164 0.14538574
vn 0.5439453 0.57470703 -0.6113281
vn 0.33666992 0.8129883 -0.47485352
vn 0.4580078 0.4580078 0.76171875
vn 0.6796875 -0.71875 0.14538574
vn 0.2824707 0.7392578 -0.6113281
vn -0 0.8798828 -0.47485352
vn 0.24804688 0.59814453 0.76171875
vn 0.9033203 -0.40405273 0.14538574
vn -3.9041042E-05 0.7910156 -0.6123047
vn 0.02293396 0.6479492 0.76123047
vn 0.7607422 0.47631836 -0.44091797
vn 0.5205078 0.7314453 -0.44091797
vn -0.22668457 0.6074219 0.76123047
vn 0.71875 0.6796875 0.14538574
vn -0.30273438 0.73046875 -0.6123047
vn -0.33666992 0.8129883 -0.47485352
vn -0.45776367 0.45825195 0.76171875
vn -0.14904785 0.8852539 -0.44091797
vn -0.55908203 0.55908203 -0.6123047
vn -0.6220703 0.6220703 -0.47485352
vn -0.58984375 0.26904297 0.76123047
vn -0.47631836 0.7607422 -0.44091797
vn -0.6479492 -0.02293396 0.76123047
vn -0.72216797 0.3227539 -0.6113281
vn -0.8129883 0.33666992 -0.47485352
vn -0.7910156 0 -0.6123047
vn -0.8798828 0 -0.47485352
vn -0.16027832 -0.78515625 -0.59814453
vn -0 -1 0
vn -0 -1 0
vn 0.43774414 -0.78515625 -0.43774414
vn -0.62158203 -0.7832031 0.0076293945
vn -0.5864258 0.8100586 0.0073394775
vn -0.7519531 0.26733398 -0.60253906
vn -0.27441406 -0.9614258 0.0076293945
vn -0.796875 -0.04067993 -0.60253906
vn -0.07366943 -0.7973633 0.5991211
vn -0.97265625 -0.23168945 0.007335663
vn 0.23693848 -0.76464844 0.5991211
vn -0.00027155876 -0.5942383 -0.8041992
vn 0.7832031 -0.62158203 0.0076293945
vn 0.9614258 -0.27441406 0.0076293945
vn 0.22741699 -0.5488281 -0.8041992
vn 0.99316406 0.11437988 0.007633209
vn 0.42041016 -0.42016602 -0.8041992
vn 0.76464844 0.23693848 0.5991211
vn 0.5493164 -0.22741699 -0.8041992
vn 0.61572266 0.51171875 0.5991211
vn 0.59228516 0.53466797 -0.60253906
vn 0.5488281 0.22741699 -0.8041992
vn 0.27441406 0.9614258 0.007633209
vn 0.040649414 0.796875 -0.60253906
vn 0.07366943 0.7973633 0.5991211
vn 0.22741699 0.5493164 -0.8041992
vn -0.23693848 0.76464844 0.5991211
vn 0.00027155876 0.5942383 -0.8041992
vn -0.7832031 0.62158203 0.007633209
vn -0.9614258 0.27441406 0.007633209
vn -0.7207031 0.3425293 -0.60253906
vn -0.7973633 0.07366943 0.5991211
vn -0.04067993 0.796875 -0.60253906
vn -0.76464844 -0.23693848 0.5991211
vn -0.3425293 0.7207031 -0.60253906
vn -0.62158203 -0.7832031 0.0076293945
vn -0.5864258 0.8100586 0.0073394775
vn -0.031188965 0.92089844 -0.38842773
vn 0.70703125 0.70703125 0
vn 1 0 0
vn 0.78515625 0.59814453 -0.16027832
vn -0.086120605 0.7392578 0.66748047
vn 0.72314453 0.27026367 0.6357422
vn 0.70458984 -0.26953125 0.65625
vn -0.2685547 -0.71972656 0.6401367
vn -0.54248047 0.7446289 -0.3894043
vn -0.3947754 0.625 0.67333984
vn -0.21325684 -0.9746094 -0.06903076
vn -0.5620117 -0.7265625 -0.39526367
vn -0.9975586 -0.047210693 -0.05130005
vn -0.9897461 0.044525146 -0.13745117
vn -0.87158203 0.2121582 -0.44213867
vn -0.87158203 -0.203125 0.44628906
vn -0.94189453 0.06384277 -0.32910156
vn -0.9501953 -0.068481445 -0.30371094
vn -0.22070312 0.22875977 -0.9482422
vn -1.6450882E-05 -0.3305664 -0.94384766
vn 0.9453125 -0.10412598 -0.30859375
vn 0.3984375 0.28173828 -0.8730469
vn 0.93652344 0 0.35083008
vn 0.9448242 0.2956543 -0.1427002
vn 0.99316406 0.03479004 0.11260986
vn 0.6171875 -0.2854004 0.73339844
vn 0.8652344 -0.029449463 0.5004883
vn 0.4609375 0.36450195 0.80908203
vn 0.96777344 -0.07220459 -0.24084473
vn 0.9448242 0.30322266 0.12420654
vn -0.031188965 0.92089844 -0.38842773
vn 0.16027832 0.78515625 -0.59814453
vn -0 1 0
vn 0.70703125 0.70703125 0
vn -0.78515625 -0.59814453 -0.16027832
vn -0.78515625 0.43774414 -0.43774414
vn -1 0 0
vn -1 0 0
vn -0.16027832 -0.59814453 0.78515625
vn -0.59814453 0.16027832 0.78515625
vn 0.43774414 0.43774414 0.78515625
vn 0.59814453 -0.16027832 0.78515625
vn -0.3330078 -0.25463867 0.90771484
vn -0.98095703 0 -0.19335938
vn -0.75390625 0.6386719 -0.15307617
vn -0.4819336 0.36499023 0.796875
vn -0.9921875 -0.050720215 0.11401367
vn -0.9946289 0.037139893 0.0947876
vn -0.87158203 0.30566406 0.38354492
vn -0.87158203 -0.20300293 0.4465332
vn -0.7963867 0.3762207 -0.47314453
vn -0.7963867 -0.4025879 -0.45141602
vn -0.016647339 -0.3244629 -0.9458008
vn 0.32470703 0.007827759 -0.9458008
vn 0.9453125 -0.10412598 -0.30859375
vn 0.9404297 0.080200195 -0.3310547
vn 0.93652344 -0.007331848 0.35058594
vn 0.9448242 0 -0.328125
vn 0.9975586 0.046966553 -0.05126953
vn 0.9897461 -0.044525146 -0.13745117
vn 0.41723633 0.34545898 -0.84033203
vn 0.084472656 0.36499023 0.9272461
vn -0.73583984 0.49560547 -0.46142578
vn -0.27905273 0.42700195 0.8598633
vn 0.25878906 0.7626953 -0.59277344
vn 0.02998352 0.9951172 -0.09411621
vn -0.1586914 0.9711914 -0.17700195
vn 0.05831909 0.9042969 0.4230957
vn 0.03552246 0.9370117 -0.3474121
vn 0.20800781 0.97753906 -0.033447266
vn 0.011688232 0.9995117 0.024215698
vn -0.23364258 0.9301758 -0.2824707
vn 0.14001465 0.9423828 -0.30444336
vn -0.27319336 0.734375 -0.62109375
vn -0.061645508 0.99560547 -0.0690918
vn -0.2084961 0.9267578 0.31323242
vn 0.03552246 0.9370117 -0.3474121
vn 0.12194824 0.95996094 -0.2524414
vn 0.22766113 0.9243164 -0.30664062
vn 0.14465332 0.94091797 -0.30639648
vn -0 1 0.02154541
vn -0.23376465 0.9301758 -0.2824707
vn -0.5620117 -0.61621094 0.5517578
vn 0.4230957 -0.31958008 -0.84765625
vn -0.74121094 -0.58203125 -0.33496094
vn 0.94921875 -0.2434082 -0.20043945
vn -0.25878906 -0.76220703 -0.59277344
vn -0.031097412 -0.9951172 -0.093688965
vn 0.002286911 -0.98828125 -0.15197754
vn -0.048461914 -0.9003906 0.43286133
vn -0.0021858215 -0.9951172 0.09869385
vn 0.13769531 -0.9667969 0.21484375
vn 0.16430664 -0.9863281 -0.024368286
vn 0.20410156 -0.93115234 -0.30249023
vn 0.04083252 -0.93847656 0.3425293
vn 0.27319336 -0.734375 -0.62109375
vn -0.011489868 -0.9951172 -0.099487305
vn 0.011856079 -0.9902344 -0.13793945
vn 0.16015625 -0.9482422 0.27416992
vn 0.055877686 -0.89697266 0.43847656
vn -0.20703125 -0.93408203 -0.2915039
vn 0.09265137 -0.9536133 -0.2866211
vn -0.27685547 -0.94873047 -0.15246582
vn 0.19763184 -0.9794922 -0.03842163
vn 0.9975586 0.046966553 -0.05126953
vn -0.9897461 0.044525146 -0.13745117
vn -0.9975586 -0.047210693 -0.05130005
vn 0.9897461 -0.044525146 -0.13745117
vn -0 0 -1
vn -0 0 -1
vn -0 0 -1
vn -0 0 -1
g column_1_0
f 3/3/3 2/2/2 1/1/1
f 4/4/4 3/3/3 1/1/1
f 4/4/4 1/1/1 5/5/5
f 3/3/3 4/4/4 6/6/6
f 7/7/7 3/3/3 6/6/6
f 6/6/6 4/4/4 8/8/8
f 9/9/9 4/4/4 5/5/5
f 4/4/4 9/9/9 8/8/8
f 9/9/9 5/5/5 10/10/10
f 8/8/8 9/9/9 11/11/11
f 12/12/12 9/9/9 10/10/10
f 9/9/9 12/12/12 11/11/11
f 12/12/12 10/10/10 13/13/13
f 11/11/11 12/12/12 14/14/14
f 15/15/15 12/12/12 13/13/13
f 12/12/12 15/15/15 14/14/14
f 16/16/16 15/15/15 13/13/13
f 14/14/14 15/15/15 16/16/16
f 17/17/17 16/16/16 13/13/13
f 18/18/18 14/14/14 16/16/16
f 19/19/19 16/16/16 17/17/17
f 18/18/18 16/16/16 19/19/19
f 20/20/20 19/19/19 17/17/17
f 21/21/21 18/18/18 19/19/19
f 22/22/22 19/19/19 20/20/20
f 21/21/21 19/19/19 22/22/22
f 23/23/23 21/21/21 22/22/22
f 24/24/24 22/22/22 20/20/20
f 25/25/25 23/23/23 22/22/22
f 26/26/26 22/22/22 24/24/24
f 26/26/26 25/25/25 22/22/22
f 27/27/27 26/26/26 24/24/24
f 25/25/25 26/26/26 28/28/28
f 26/26/26 27/27/27 29/29/29
f 26/26/26 30/30/30 28/28/28
f 30/30/30 26/26/26 29/29/29
f 28/28/28 30/30/30 31/31/31
f 30/30/30 29/29/29 32/32/32
f 30/30/30 33/33/33 31/31/31
f 33/33/33 30/30/30 32/32/32
f 31/31/31 33/33/33 34/34/34
f 33/33/33 32/32/32 35/35/35
f 33/33/33 36/36/36 34/34/34
f 36/36/36 33/33/33 35/35/35
f 34/34/34 36/36/36 37/37/37
f 36/36/36 35/35/35 38/38/38
f 36/36/36 39/39/39 37/37/37
f 39/39/39 36/36/36 38/38/38
f 37/37/37 39/39/39 40/40/40
f 40/40/40 39/39/39 38/38/38
f 41/41/41 37/37/37 40/40/40
f 42/42/42 40/40/40 38/38/38
f 41/41/41 40/40/40 43/43/43
f 43/43/43 40/40/40 42/42/42
f 44/44/44 41/41/41 43/43/43
f 45/45/45 43/43/43 42/42/42
f 44/44/44 43/43/43 46/46/46
f 46/46/46 43/43/43 45/45/45
f 47/47/47 44/44/44 46/46/46
f 48/48/48 47/47/47 46/46/46
f 49/49/49 46/46/46 45/45/45
f 50/50/50 48/48/48 46/46/46
f 50/50/50 46/46/46 49/49/49
f 51/51/51 50/50/50 49/49/49
f 54/54/54 53/53/53 52/52/52
f 55/55/55 54/54/54 52/52/52
f 58/58/58 57/57/57 56/56/56
f 57/57/57 59/59/59 56/56/56
f 56/56/56 59/59/59 60/60/60
f 57/57/57 61/61/61 59/59/59
f 59/59/59 62/62/62 60/60/60
f 60/60/60 62/62/62 63/63/63
f 61/61/61 64/64/64 59/59/59
f 59/59/59 64/64/64 62/62/62
f 64/64/64 61/61/61 65/65/65
f 66/66/66 64/64/64 65/65/65
f 67/67/67 64/64/64 66/66/66
f 64/64/64 67/67/67 62/62/62
f 68/68/68 67/67/67 66/66/66
f 62/62/62 69/69/69 63/63/63
f 62/62/62 67/67/67 69/69/69
f 63/63/63 69/69/69 70/70/70
f 71/71/71 67/67/67 68/68/68
f 67/67/67 71/71/71 69/69/69
f 72/72/72 71/71/71 68/68/68
f 69/69/69 73/73/73 70/70/70
f 69/69/69 71/71/71 73/73/73
f 74/74/74 71/71/71 72/72/72
f 71/71/71 74/74/74 73/73/73
f 75/75/75 74/74/74 72/72/72
f 74/74/74 75/75/75 76/76/76
f 77/77/77 74/74/74 76/76/76
f 74/74/74 77/77/77 73/73/73
f 77/77/77 76/76/76 78/78/78
f 73/73/73 79/79/79 70/70/70
f 77/77/77 79/79/79 73/73/73
f 79/79/79 80/80/80 70/70/70
f 81/81/81 77/77/77 78/78/78
f 77/77/77 81/81/81 79/79/79
f 81/81/81 78/78/78 82/82/82
f 79/79/79 83/83/83 80/80/80
f 81/81/81 83/83/83 79/79/79
f 83/83/83 84/84/84 80/80/80
f 85/85/85 81/81/81 82/82/82
f 81/81/81 85/85/85 83/83/83
f 85/85/85 82/82/82 86/86/86
f 83/83/83 87/87/87 84/84/84
f 85/85/85 87/87/87 83/83/83
f 87/87/87 88/88/88 84/84/84
f 89/89/89 85/85/85 86/86/86
f 85/85/85 89/89/89 87/87/87
f 87/87/87 90/90/90 88/88/88
f 89/89/89 90/90/90 87/87/87
f 90/90/90 91/91/91 88/88/88
f 91/91/91 90/90/90 92/92/92
f 90/90/90 93/93/93 92/92/92
f 90/90/90 89/89/89 93/93/93
f 92/92/92 93/93/93 94/94/94
f 95/95/95 89/89/89 86/86/86
f 89/89/89 95/95/95 93/93/93
f 96/96/96 95/95/95 86/86/86
f 93/93/93 97/97/97 94/94/94
f 93/93/93 95/95/95 97/97/97
f 94/94/94 97/97/97 98/98/98
f 99/99/99 95/95/95 96/96/96
f 95/95/95 99/99/99 97/97/97
f 100/100/100 99/99/99 96/96/96
f 97/97/97 101/101/101 98/98/98
f 97/97/97 99/99/99 101/101/101
f 98/98/98 101/101/101 102/102/102
f 103/103/103 99/99/99 100/100/100
f 99/99/99 103/103/103 101/101/101
f 104/104/104 103/103/103 100/100/100
f 101/101/101 105/105/105 102/102/102
f 101/101/101 103/103/103 105/105/105
f 106/106/106 103/103/103 104/104/104
f 103/103/103 106/106/106 105/105/105
f 107/107/107 106/106/106 104/104/104
f 106/106/106 107/107/107 108/108/108
f 109/109/109 106/106/106 108/108/108
f 106/106/106 109/109/109 105/105/105
f 109/109/109 108/108/108 110/110/110
f 105/105/105 111/111/111 102/102/102
f 109/109/109 111/111/111 105/105/105
f 111/111/111 112/112/112 102/102/102
f 113/113/113 109/109/109 110/110/110
f 109/109/109 113/113/113 111/111/111
f 113/113/113 110/110/110 114/114/114
f 111/111/111 115/115/115 112/112/112
f 113/113/113 115/115/115 111/111/111
f 115/115/115 116/116/116 112/112/112
f 117/117/117 113/113/113 114/114/114
f 113/113/113 117/117/117 115/115/115
f 117/117/117 114/114/114 118/118/118
f 119/119/119 117/117/117 118/118/118
f 115/115/115 120/120/120 116/116/116
f 117/117/117 120/120/120 115/115/115
f 117/117/117 119/119/119 120/120/120
f 120/120/120 121/121/121 116/116/116
f 119/119/119 122/122/122 120/120/120
f 120/120/120 122/122/122 121/121/121
f 122/122/122 123/123/123 121/121/121
f 126/126/126 125/125/125 124/124/124
f 125/125/125 127/127/127 124/124/124
f 124/124/124 127/127/127 128/128/128
f 125/125/125 129/129/129 127/127/127
f 127/127/127 130/130/130 128/128/128
f 128/128/128 130/130/130 131/131/131
f 130/130/130 132/132/132 131/131/131
f 129/129/129 133/133/133 127/127/127
f 127/127/127 133/133/133 130/130/130
f 129/129/129 134/134/134 133/133/133
f 130/130/130 135/135/135 132/132/132
f 133/133/133 135/135/135 130/130/130
f 135/135/135 136/136/136 132/132/132
f 134/134/134 137/137/137 133/133/133
f 133/133/133 137/137/137 135/135/135
f 134/134/134 138/138/138 137/137/137
f 135/135/135 139/139/139 136/136/136
f 137/137/137 139/139/139 135/135/135
f 139/139/139 140/140/140 136/136/136
f 138/138/138 141/141/141 137/137/137
f 137/137/137 141/141/141 139/139/139
f 139/139/139 142/142/142 140/140/140
f 141/141/141 142/142/142 139/139/139
f 142/142/142 143/143/143 140/140/140
f 143/143/143 142/142/142 144/144/144
f 142/142/142 145/145/145 144/144/144
f 142/142/142 141/141/141 145/145/145
f 144/144/144 145/145/145 146/146/146
f 141/141/141 138/138/138 147/147/147
f 141/141/141 147/147/147 145/145/145
f 138/138/138 148/148/148 147/147/147
f 145/145/145 149/149/149 146/146/146
f 145/145/145 147/147/147 149/149/149
f 146/146/146 149/149/149 150/150/150
f 147/147/147 148/148/148 151/151/151
f 147/147/147 151/151/151 149/149/149
f 148/148/148 152/152/152 151/151/151
f 149/149/149 153/153/153 150/150/150
f 149/149/149 151/151/151 153/153/153
f 150/150/150 153/153/153 154/154/154
f 151/151/151 152/152/152 155/155/155
f 151/151/151 155/155/155 153/153/153
f 152/152/152 156/156/156 155/155/155
f 153/153/153 157/157/157 154/154/154
f 153/153/153 155/155/155 157/157/157
f 155/155/155 156/156/156 158/158/158
f 155/155/155 158/158/158 157/157/157
f 156/156/156 159/159/159 158/158/158
f 159/159/159 160/160/160 158/158/158
f 160/160/160 161/161/161 158/158/158
f 158/158/158 161/161/161 157/157/157
f 160/160/160 162/162/162 161/161/161
f 157/157/157 163/163/163 154/154/154
f 161/161/161 163/163/163 157/157/157
f 163/163/163 164/164/164 154/154/154
f 162/162/162 165/165/165 161/161/161
f 161/161/161 165/165/165 163/163/163
f 162/162/162 166/166/166 165/165/165
f 163/163/163 167/167/167 164/164/164
f 165/165/165 167/167/167 163/163/163
f 167/167/167 168/168/168 164/164/164
f 166/166/166 169/169/169 165/165/165
f 165/165/165 169/169/169 167/167/167
f 166/166/166 170/170/170 169/169/169
f 167/167/167 171/171/171 168/168/168
f 169/169/169 171/171/171 167/167/167
f 171/171/171 172/172/172 168/168/168
f 170/170/170 173/173/173 169/169/169
f 169/169/169 173/173/173 171/171/171
f 171/171/171 174/174/174 172/172/172
f 173/173/173 174/174/174 171/171/171
f 174/174/174 175/175/175 172/172/172
f 175/175/175 174/174/174 176/176/176
f 174/174/174 177/177/177 176/176/176
f 174/174/174 173/173/173 177/177/177
f 176/176/176 177/177/177 178/178/178
f 173/173/173 170/170/170 179/179/179
f 173/173/173 179/179/179 177/177/177
f 170/170/170 180/180/180 179/179/179
f 177/177/177 181/181/181 178/178/178
f 177/177/177 179/179/179 181/181/181
f 178/178/178 181/181/181 182/182/182
f 179/179/179 180/180/180 183/183/183
f 179/179/179 183/183/183 181/181/181
f 180/180/180 184/184/184 183/183/183
f 181/181/181 185/185/185 182/182/182
f 181/181/181 183/183/183 185/185/185
f 182/182/182 185/185/185 186/186/186
f 185/185/185 187/187/187 186/186/186
f 183/183/183 184/184/184 188/188/188
f 183/183/183 188/188/188 185/185/185
f 185/185/185 188/188/188 187/187/187
f 184/184/184 189/189/189 188/188/188
f 188/188/188 190/190/190 187/187/187
f 188/188/188 189/189/189 190/190/190
f 189/189/189 191/191/191 190/190/190
f 194/194/194 193/193/193 192/192/192
f 193/193/193 195/195/195 192/192/192
f 192/192/192 195/195/195 196/196/196
f 193/193/193 197/197/197 195/195/195
f 195/195/195 198/198/198 196/196/196
f 196/196/196 198/198/198 199/199/199
f 198/198/198 200/200/200 199/199/199
f 197/197/197 201/201/201 195/195/195
f 195/195/195 201/201/201 198/198/198
f 197/197/197 202/202/202 201/201/201
f 198/198/198 203/203/203 200/200/200
f 201/201/201 203/203/203 198/198/198
f 203/203/203 204/204/204 200/200/200
f 202/202/202 205/205/205 201/201/201
f 201/201/201 205/205/205 203/203/203
f 202/202/202 206/206/206 205/205/205
f 203/203/203 207/207/207 204/204/204
f 205/205/205 207/207/207 203/203/203
f 207/207/207 208/208/208 204/204/204
f 206/206/206 209/209/209 205/205/205
f 205/205/205 209/209/209 207/207/207
f 207/207/207 210/210/210 208/208/208
f 209/209/209 210/210/210 207/207/207
f 210/210/210 211/211/211 208/208/208
f 211/211/211 210/210/210 212/212/212
f 210/210/210 213/213/213 212/212/212
f 210/210/210 209/209/209 213/213/213
f 212/212/212 213/213/213 214/214/214
f 209/209/209 206/206/206 215/215/215
f 209/209/209 215/215/215 213/213/213
f 206/206/206 216/216/216 215/215/215
f 213/213/213 217/217/217 214/214/214
f 213/213/213 215/215/215 217/217/217
f 214/214/214 217/217/217 218/218/218
f 215/215/215 216/216/216 219/219/219
f 215/215/215 219/219/219 217/217/217
f 216/216/216 220/220/220 219/219/219
f 217/217/217 221/221/221 218/218/218
f 217/217/217 219/219/219 221/221/221
f 218/218/218 221/221/221 222/222/222
f 219/219/219 220/220/220 223/223/223
f 219/219/219 223/223/223 221/221/221
f 220/220/220 224/224/224 223/223/223
f 221/221/221 225/225/225 222/222/222
f 221/221/221 223/223/223 225/225/225
f 223/223/223 224/224/224 226/226/226
f 223/223/223 226/226/226 225/225/225
f 224/224/224 227/227/227 226/226/226
f 227/227/227 228/228/228 226/226/226
f 228/228/228 229/229/229 226/226/226
f 226/226/226 229/229/229 225/225/225
f 228/228/228 230/230/230 229/229/229
f 225/225/225 231/231/231 222/222/222
f 229/229/229 231/231/231 225/225/225
f 231/231/231 232/232/232 222/222/222
f 230/230/230 233/233/233 229/229/229
f 229/229/229 233/233/233 231/231/231
f 230/230/230 234/234/234 233/233/233
f 231/231/231 235/235/235 232/232/232
f 233/233/233 235/235/235 231/231/231
f 235/235/235 236/236/236 232/232/232
f 234/234/234 237/237/237 233/233/233
f 233/233/233 237/237/237 235/235/235
f 234/234/234 238/238/238 237/237/237
f 235/235/235 239/239/239 236/236/236
f 237/237/237 239/239/239 235/235/235
f 239/239/239 240/240/240 236/236/236
f 238/238/238 241/241/241 237/237/237
f 237/237/237 241/241/241 239/239/239
f 239/239/239 242/242/242 240/240/240
f 241/241/241 242/242/242 239/239/239
f 242/242/242 243/243/243 240/240/240
f 243/243/243 242/242/242 244/244/244
f 242/242/242 245/245/245 244/244/244
f 242/242/242 241/241/241 245/245/245
f 244/244/244 245/245/245 246/246/246
f 241/241/241 238/238/238 247/247/247
f 241/241/241 247/247/247 245/245/245
f 238/238/238 248/248/248 247/247/247
f 245/245/245 249/249/249 246/246/246
f 245/245/245 247/247/247 249/249/249
f 246/246/246 249/249/249 250/250/250
f 247/247/247 248/248/248 251/251/251
f 247/247/247 251/251/251 249/249/249
f 248/248/248 252/252/252 251/251/251
f 249/249/249 253/253/253 250/250/250
f 249/249/249 251/251/251 253/253/253
f 250/250/250 253/253/253 254/254/254
f 253/253/253 255/255/255 254/254/254
f 251/251/251 252/252/252 256/256/256
f 251/251/251 256/256/256 253/253/253
f 253/253/253 256/256/256 255/255/255
f 252/252/252 257/257/257 256/256/256
f 256/256/256 258/258/258 255/255/255
f 256/256/256 257/257/257 258/258/258
f 257/257/257 259/259/259 258/258/258
f 262/262/262 261/261/261 260/260/260
f 263/263/263 262/262/262 260/260/260
f 266/266/266 265/265/265 264/264/264
f 267/267/267 266/266/266 264/264/264
f 268/268/268 266/266/266 267/267/267
f 269/269/269 268/268/268 267/267/267
f 270/270/270 268/268/268 269/269/269
f 271/271/271 270/270/270 269/269/269
f 272/272/272 270/270/270 271/271/271
f 273/273/273 272/272/272 271/271/271
f 272/272/272 273/273/273 274/274/274
f 275/275/275 272/272/272 274/274/274
f 275/275/275 274/274/274 276/276/276
f 277/277/277 275/275/275 276/276/276
f 277/277/277 276/276/276 278/278/278
f 279/279/279 277/277/277 278/278/278
f 279/279/279 278/278/278 280/280/280
f 281/281/281 279/279/279 280/280/280
f 282/282/282 281/281/281 280/280/280
f 283/283/283 282/282/282 280/280/280
f 284/284/284 282/282/282 283/283/283
f 285/285/285 284/284/284 283/283/283
f 286/286/286 284/284/284 285/285/285
f 287/287/287 286/286/286 285/285/285
f 288/288/288 286/286/286 287/287/287
f 289/289/289 288/288/288 287/287/287
f 288/288/288 289/289/289 290/290/290
f 291/291/291 288/288/288 290/290/290
f 291/291/291 290/290/290 292/292/292
f 293/293/293 291/291/291 292/292/292
f 293/293/293 292/292/292 294/294/294
f 295/295/295 293/293/293 294/294/294
f 295/295/295 294/294/294 296/296/296
f 297/297/297 295/295/295 296/296/296
f 300/300/300 299/299/299 298/298/298
f 301/301/301 300/300/300 298/298/298
f 304/304/304 303/303/303 302/302/302
f 305/305/305 304/304/304 302/302/302
f 308/308/308 307/307/307 306/306/306
f 309/309/309 308/308/308 306/306/306
f 312/312/312 311/311/311 310/310/310
f 313/313/313 312/312/312 310/310/310
f 314/314/314 312/312/312 313/313/313
f 315/315/315 314/314/314 313/313/313
f 316/316/316 314/314/314 315/315/315
f 317/317/317 316/316/316 315/315/315
f 317/317/317 318/318/318 316/316/316
f 318/318/318 319/319/319 316/316/316
f 318/318/318 320/320/320 319/319/319
f 320/320/320 321/321/321 319/319/319
f 322/322/322 321/321/321 320/320/320
f 323/323/323 322/322/322 320/320/320
f 322/322/322 323/323/323 324/324/324
f 325/325/325 322/322/322 324/324/324
f 325/325/325 324/324/324 326/326/326
f 327/327/327 325/325/325 326/326/326
f 330/330/330 329/329/329 328/328/328
f 331/331/331 330/330/330 328/328/328
f 334/334/334 333/333/333 332/332/332
f 335/335/335 334/334/334 332/332/332
f 338/338/338 337/337/337 336/336/336
f 339/339/339 338/338/338 336/336/336
f 342/342/342 341/341/341 340/340/340
f 343/343/343 342/342/342 340/340/340
f 343/343/343 340/340/340 344/344/344
f 345/345/345 343/343/343 344/344/344
f 346/346/346 345/345/345 344/344/344
f 347/347/347 346/346/346 344/344/344
f 348/348/348 346/346/346 347/347/347
f 349/349/349 348/348/348 347/347/347
f 349/349/349 350/350/350 348/348/348
f 350/350/350 351/351/351 348/348/348
f 350/350/350 352/352/352 351/351/351
f 352/352/352 353/353/353 351/351/351
f 352/352/352 354/354/354 353/353/353
f 354/354/354 355/355/355 353/353/353
f 356/356/356 355/355/355 354/354/354
f 357/357/357 356/356/356 354/354/354
f 360/360/360 359/359/359 358/358/358
f 359/359/359 361/361/361 358/358/358
f 362/362/362 361/361/361 359/359/359
f 362/362/362 363/363/363 361/361/361
f 363/363/363 364/364/364 361/361/361
f 363/363/363 365/365/365 364/364/364
f 366/366/366 365/365/365 363/363/363
f 367/367/367 366/366/366 363/363/363
f 367/367/367 363/363/363 368/368/368
f 369/369/369 368/368/368 363/363/363
f 370/370/370 369/369/369 363/363/363
f 370/370/370 363/363/363 362/362/362
f 371/371/371 362/362/362 359/359/359
f 371/371/371 359/359/359 372/372/372
f 372/372/372 359/359/359 373/373/373
f 372/372/372 374/374/374 371/371/371
f 372/372/372 373/373/373 375/375/375
f 372/372/372 376/376/376 374/374/374
f 377/377/377 372/372/372 375/375/375
f 378/378/378 376/376/376 372/372/372
f 379/379/379 372/372/372 377/377/377
f 379/379/379 378/378/378 372/372/372
f 382/382/382 381/381/381 380/380/380
f 381/381/381 383/383/383 380/380/380
f 384/384/384 380/380/380 383/383/383
f 380/380/380 384/384/384 385/385/385
f 380/380/380 385/385/385 386/386/386
f 386/386/386 385/385/385 387/387/387
f 385/385/385 388/388/388 387/387/387
f 385/385/385 389/389/389 388/388/388
f 390/390/390 389/389/389 385/385/385
f 391/391/391 390/390/390 385/385/385
f 391/391/391 385/385/385 392/392/392
f 392/392/392 385/385/385 384/384/384
f 393/393/393 384/384/384 383/383/383
f 394/394/394 393/393/393 383/383/383
f 395/395/395 394/394/394 383/383/383
f 394/394/394 396/396/396 393/393/393
f 397/397/397 394/394/394 395/395/395
f 398/398/398 396/396/396 394/394/394
f 397/397/397 399/399/399 394/394/394
f 400/400/400 398/398/398 394/394/394
f 399/399/399 401/401/401 394/394/394
f 394/394/394 401/401/401 400/400/400
f 404/404/404 403/403/403 402/402/402
f 405/405/405 404/404/404 402/402/402
f 408/408/408 407/407/407 406/406/406
f 409/409/409 408/408/408 406/406/406
