g column_3
v 0.68645036 -2.5773937E-07 0.7450497
v 0.6007679 0.24884585 0.6517394
v 0.6502664 -2.3299482E-07 0.65173936
v 0.63419753 0.26269287 0.7450498
v 0.6502664 -2.7155667E-07 0.8383602
v 0.45980787 0.45980746 0.6517394
v 0.6007679 0.24884582 0.83836025
v 0.4590705 -2.5465704E-07 0.8962899
v 0.42412585 0.17567833 0.8962899
v 0.48539382 0.4853934 0.7450498
v 0.24884637 0.60076743 0.6517395
v 0.45980787 0.45980743 0.83836025
v 0.32461196 0.3246115 0.89628994
v 0.2626934 0.634197 0.74504983
v 2.568807E-07 0.6502661 0.6517395
v 0.24884637 0.60076743 0.8383603
v 0.17567886 0.42412543 0.89628994
v 2.6234432E-07 0.68645 0.74504983
v 2.568807E-07 0.65026605 0.8383603
v 2.2801092E-07 0.45907015 0.89628994
v -0.1756784 0.42412552 0.89628994
v -0.24884586 0.60076755 0.8383603
v -0.3246115 0.32461163 0.89628994
v -0.26269293 0.6341972 0.74504983
v -0.24884586 0.6007676 0.6517395
v -0.45980746 0.45980754 0.83836025
v -0.42412552 0.17567846 0.8962899
v -0.48539343 0.4853935 0.7450498
v -0.45980746 0.45980757 0.6517394
v -0.60076743 0.24884601 0.83836025
v -0.45907015 -1.1602164E-07 0.8962899
v -0.63419706 0.26269305 0.7450498
v -0.60076743 0.24884604 0.6517394
v -0.65026605 -7.518173E-08 0.8383602
v -0.68645 -5.0437166E-08 0.7450497
v -0.65026605 -3.661988E-08 0.65173936
v -0.60076755 -0.24884611 0.6517393
v -0.6341971 -0.26269317 0.74504966
v -0.45980757 -0.45980772 0.6517393
v -0.60076755 -0.24884614 0.83836013
v -0.42412558 -0.17567872 0.8962899
v -0.48539355 -0.4853937 0.74504966
v -0.24884602 -0.6007677 0.65173924
v -0.45980757 -0.45980775 0.83836013
v -0.3246116 -0.32461187 0.8962898
v -0.2626931 -0.6341974 0.7450496
v 6.050574E-08 -0.65026635 0.65173924
v -0.24884602 -0.6007678 0.8383601
v -0.17567852 -0.42412582 0.8962898
v 5.5042108E-08 -0.68645036 0.74504954
v 6.050574E-08 -0.65026635 0.8383601
v 8.9375504E-08 -0.45907053 0.8962898
v 0.17567874 -0.42412588 0.8962898
v 0.2488462 -0.6007679 0.8383601
v 0.32461184 -0.324612 0.8962898
v 0.26269323 -0.63419753 0.7450496
v 0.2488462 -0.60076785 0.65173924
v 0.45980772 -0.45980787 0.83836013
v 0.42412582 -0.17567883 0.8962899
v 0.4853937 -0.48539382 0.74504966
v 0.45980772 -0.45980784 0.6517393
v 0.6007678 -0.24884634 0.83836013
v 0.4590705 -2.5465704E-07 0.8962899
v 0.6502664 -2.7155667E-07 0.8383602
v 0.6341974 -0.26269335 0.74504966
v 0.6007678 -0.2488463 0.6517393
v 0.68645036 -2.5773937E-07 0.7450497
v 0.6502664 -2.3299482E-07 0.65173936
v 0.746317 -1.9901876E-07 0.41712272
v 0.6282284 0.26022047 0.2942282
v 0.67998946 -1.6360961E-07 0.29422817
v 0.6895071 0.2856029 0.41712278
v 0.746317 -2.2441267E-07 0.5400171
v 0.4808253 0.48082495 0.2942283
v 0.6895071 0.28560287 0.5400172
v 0.6502664 -2.3299482E-07 0.65173936
v 0.6007679 0.24884585 0.6517394
v 0.527726 0.5277256 0.41712284
v 0.26022094 0.6282281 0.2942283
v 0.527726 0.5277256 0.5400172
v 0.45980787 0.45980746 0.6517394
v 0.2856034 0.6895068 0.41712287
v 2.6136874E-07 0.67998916 0.29422832
v 0.2856034 0.6895068 0.5400173
v 0.24884637 0.60076743 0.6517395
v 2.7138395E-07 0.7463169 0.41712287
v 2.7138395E-07 0.7463169 0.5400173
v 2.568807E-07 0.6502661 0.6517395
v -0.24884586 0.6007676 0.6517395
v -0.28560293 0.6895069 0.5400173
v -0.45980746 0.45980757 0.6517394
v -0.28560293 0.6895069 0.41712287
v -0.26022044 0.62822825 0.2942283
v -0.5277256 0.52772576 0.5400172
v -0.60076743 0.24884604 0.6517394
v -0.5277256 0.52772576 0.41712284
v -0.4808248 0.48082504 0.2942283
v -0.68950665 0.28560305 0.5400172
v -0.65026605 -3.661988E-08 0.65173936
v -0.68950665 0.28560308 0.41712278
v -0.62822795 0.26022065 0.2942282
v -0.74631673 9.687682E-10 0.5400171
v -0.74631673 2.6362692E-08 0.41712272
v -0.67998916 4.1741448E-08 0.29422817
v -0.62822807 -0.2602206 0.29422814
v -0.6895068 -0.28560308 0.41712266
v -0.48082495 -0.48082507 0.29422805
v -0.6895068 -0.2856031 0.54001707
v -0.60076755 -0.24884611 0.6517393
v -0.52772564 -0.5277257 0.4171226
v -0.26022062 -0.62822825 0.29422805
v -0.52772564 -0.5277257 0.54001707
v -0.45980757 -0.45980772 0.6517393
v -0.2856031 -0.68950695 0.41712257
v 5.6017683E-08 -0.6799893 0.29422802
v -0.2856031 -0.68950695 0.54001695
v -0.24884602 -0.6007677 0.65173924
v 4.6002484E-08 -0.746317 0.41712257
v 4.6002484E-08 -0.746317 0.54001695
v 6.050574E-08 -0.65026635 0.65173924
v 0.2488462 -0.60076785 0.65173924
v 0.28560323 -0.689507 0.54001695
v 0.45980772 -0.45980784 0.6517393
v 0.28560323 -0.689507 0.41712257
v 0.26022074 -0.62822837 0.29422805
v 0.5277259 -0.5277259 0.54001707
v 0.6007678 -0.2488463 0.6517393
v 0.5277259 -0.5277259 0.4171226
v 0.4808252 -0.48082516 0.29422805
v 0.68950695 -0.28560328 0.54001707
v 0.6502664 -2.3299482E-07 0.65173936
v 0.746317 -2.2441267E-07 0.5400171
v 0.68950695 -0.28560326 0.41712266
v 0.6282283 -0.26022077 0.29422814
v 0.746317 -1.9901876E-07 0.41712272
v 0.67998946 -1.6360961E-07 0.29422817
v -0.8639085 0.8639088 0.31628528
v -0.8639085 0.8639089 1.7851127E-07
v 0.86390907 0.8639086 1.7851123E-07
v 0.86390907 0.8639085 0.31628528
v 0.4590705 -2.5465704E-07 0.8962899
v 0.44522956 -5.43909E-07 2.3062446
v 0.41088253 0.17019247 2.356522
v 0.42412585 0.17567833 0.8962899
v 0.3134863 0.31348553 2.499089
v 0.32461196 0.3246115 0.89628994
v 0.16886242 0.40766877 2.7107894
v 0.17567886 0.42412543 0.89628994
v 2.251714E-07 0.44026473 2.8119278
v 2.2801092E-07 0.45907015 0.89628994
v -0.1756784 0.42412552 0.89628994
v -0.16962123 0.4095019 2.826148
v -0.3246115 0.32461163 0.89628994
v -0.31043664 0.31043634 2.9383745
v -0.42412552 0.17567846 0.8962899
v -0.40491503 0.1677208 3.0144646
v -0.45907015 -1.1602164E-07 0.8962899
v -0.43816248 -5.592702E-07 3.0261219
v -0.40491512 -0.16772193 3.0144646
v -0.42412558 -0.17567872 0.8962899
v -0.3104368 -0.31043744 2.938373
v -0.3246116 -0.32461187 0.8962898
v -0.16962136 -0.40950295 2.826148
v -0.17567852 -0.42412582 0.8962898
v 9.221498E-08 -0.4402659 2.8119278
v 8.9375504E-08 -0.45907053 0.8962898
v 0.17567874 -0.42412588 0.8962898
v 0.1688623 -0.40766996 2.7107894
v 0.32461184 -0.324612 0.8962898
v 0.31348622 -0.31348673 2.499089
v 0.42412582 -0.17567883 0.8962899
v 0.41088247 -0.17019355 2.356522
v 0.4590705 -2.5465704E-07 0.8962899
v 0.44522956 -5.43909E-07 2.3062446
v -0.86390877 -0.86390865 0.31628492
v -0.86390877 -0.8639086 -1.7851123E-07
v -0.8639085 0.8639089 1.7851127E-07
v -0.8639085 0.8639088 0.31628528
v -0.86390877 -0.86390865 0.31628492
v 0.8639088 -0.86390895 0.31628492
v 0.8639088 -0.8639089 -1.7851127E-07
v -0.86390877 -0.8639086 -1.7851123E-07
v 0.8639088 -0.86390895 0.31628492
v 0.86390907 0.8639085 0.31628528
v 0.86390907 0.8639086 1.7851123E-07
v 0.8639088 -0.8639089 -1.7851127E-07
v -0.86390877 -0.86390865 0.31628492
v -0.8639085 0.8639088 0.31628528
v 0.86390907 0.8639085 0.31628528
v 0.8639088 -0.86390895 0.31628492
v 0.41088253 0.17019247 2.356522
v 0.44522956 -5.43909E-07 2.3062446
v 0.41088247 -0.17019355 2.356522
v 0.31348622 -0.31348673 2.499089
v 0.3134863 0.31348553 2.499089
v 0.1688623 -0.40766996 2.7107894
v 0.16886242 0.40766877 2.7107894
v 9.221498E-08 -0.4402659 2.8119278
v 2.251714E-07 0.44026473 2.8119278
v -0.16962136 -0.40950295 2.826148
v -0.16962123 0.4095019 2.826148
v -0.3104368 -0.31043744 2.938373
v -0.31043664 0.31043634 2.9383745
v -0.40491512 -0.16772193 3.0144646
v -0.40491503 0.1677208 3.0144646
v -0.43816248 -5.592702E-07 3.0261219
v 0.86390907 0.8639086 1.7851123E-07
v -0.8639085 0.8639089 1.7851127E-07
v -0.86390877 -0.8639086 -1.7851123E-07
v 0.8639088 -0.8639089 -1.7851127E-07
vt 0.92285156 0.0076522827
vt 0.93359375 0.03427124
vt 0.93359375 0.0076522827
vt 0.92285156 0.03427124
vt 0.9121094 0.0076522827
vt 0.93359375 0.06088257
vt 0.9121094 0.03427124
vt 0.890625 0.0076522827
vt 0.890625 0.03427124
vt 0.92285156 0.06088257
vt 0.93359375 0.08746338
vt 0.9121094 0.06088257
vt 0.890625 0.06088257
vt 0.92285156 0.08746338
vt 0.93359375 0.11407471
vt 0.9121094 0.08746338
vt 0.890625 0.08746338
vt 0.92285156 0.11407471
vt 0.9121094 0.11407471
vt 0.890625 0.11407471
vt 0.890625 0.14074707
vt 0.9121094 0.14074707
vt 0.890625 0.1673584
vt 0.92285156 0.14074707
vt 0.93359375 0.14074707
vt 0.9121094 0.1673584
vt 0.890625 0.19396973
vt 0.92285156 0.1673584
vt 0.93359375 0.1673584
vt 0.9121094 0.19396973
vt 0.890625 0.22045898
vt 0.92285156 0.19396973
vt 0.93359375 0.19396973
vt 0.9121094 0.22045898
vt 0.92285156 0.22045898
vt 0.93359375 0.22045898
vt 0.93359375 0.24707031
vt 0.92285156 0.24707031
vt 0.93359375 0.27368164
vt 0.9121094 0.24707031
vt 0.890625 0.24707031
vt 0.92285156 0.27368164
vt 0.93359375 0.30029297
vt 0.9121094 0.27368164
vt 0.890625 0.27368164
vt 0.92285156 0.30029297
vt 0.93359375 0.3269043
vt 0.9121094 0.30029297
vt 0.890625 0.30029297
vt 0.92285156 0.3269043
vt 0.9121094 0.3269043
vt 0.890625 0.3269043
vt 0.890625 0.35351562
vt 0.9121094 0.35351562
vt 0.890625 0.38012695
vt 0.92285156 0.35351562
vt 0.93359375 0.35351562
vt 0.9121094 0.38012695
vt 0.890625 0.40673828
vt 0.92285156 0.38012695
vt 0.93359375 0.38012695
vt 0.9121094 0.40673828
vt 0.890625 0.4333496
vt 0.9121094 0.4333496
vt 0.92285156 0.40673828
vt 0.93359375 0.40673828
vt 0.92285156 0.4333496
vt 0.93359375 0.4333496
vt 0.7578125 0.7167969
vt 0.7270508 0.7324219
vt 0.7578125 0.7324219
vt 0.7270508 0.7167969
vt 0.7578125 0.7036133
vt 0.69628906 0.7324219
vt 0.7270508 0.7036133
vt 0.7578125 0.6875
vt 0.7270508 0.6875
vt 0.69628906 0.7167969
vt 0.66552734 0.7324219
vt 0.69628906 0.7036133
vt 0.69628906 0.6875
vt 0.66552734 0.7167969
vt 0.6347656 0.7324219
vt 0.66552734 0.7036133
vt 0.66552734 0.6875
vt 0.6347656 0.7167969
vt 0.6347656 0.7036133
vt 0.6347656 0.6875
vt 0.6040039 0.6875
vt 0.6040039 0.7036133
vt 0.5732422 0.6875
vt 0.6040039 0.7167969
vt 0.6040039 0.7324219
vt 0.5732422 0.7036133
vt 0.54248047 0.6875
vt 0.5732422 0.7167969
vt 0.5732422 0.7324219
vt 0.54248047 0.7036133
vt 0.51123047 0.6875
vt 0.54248047 0.7167969
vt 0.54248047 0.7324219
vt 0.51123047 0.7036133
vt 0.51123047 0.7167969
vt 0.51123047 0.7324219
vt 0.4807129 0.7324219
vt 0.4807129 0.7167969
vt 0.44995117 0.7324219
vt 0.4807129 0.7036133
vt 0.4807129 0.6875
vt 0.44995117 0.7167969
vt 0.41918945 0.7324219
vt 0.44995117 0.7036133
vt 0.44995117 0.6875
vt 0.41918945 0.7167969
vt 0.38842773 0.7324219
vt 0.41918945 0.7036133
vt 0.41918945 0.6875
vt 0.38842773 0.7167969
vt 0.38842773 0.7036133
vt 0.38842773 0.6875
vt 0.35742188 0.6875
vt 0.35742188 0.7036133
vt 0.32666016 0.6875
vt 0.35742188 0.7167969
vt 0.35742188 0.7324219
vt 0.32666016 0.7036133
vt 0.29589844 0.6875
vt 0.32666016 0.7167969
vt 0.32666016 0.7324219
vt 0.29589844 0.7036133
vt 0.26513672 0.6875
vt 0.26513672 0.7036133
vt 0.29589844 0.7167969
vt 0.29589844 0.7324219
vt 0.26513672 0.7167969
vt 0.26513672 0.7324219
vt 0.5283203 0.9506836
vt 0.5283203 0.98535156
vt 0.7182617 0.98535156
vt 0.7182617 0.9506836
vt 0.5839844 0.55615234
vt 0.5800781 0.40112305
vt 0.5605469 0.39624023
vt 0.5644531 0.5566406
vt 0.5415039 0.38085938
vt 0.5449219 0.5571289
vt 0.52197266 0.3581543
vt 0.5253906 0.5571289
vt 0.5029297 0.34716797
vt 0.5053711 0.5576172
vt 0.48583984 0.5576172
vt 0.48388672 0.34594727
vt 0.46606445 0.55810547
vt 0.46484375 0.33374023
vt 0.4465332 0.55810547
vt 0.44604492 0.32543945
vt 0.4267578 0.55810547
vt 0.4272461 0.3239746
vt 0.40844727 0.3251953
vt 0.40722656 0.55810547
vt 0.38964844 0.3334961
vt 0.38745117 0.5576172
vt 0.37060547 0.34570312
vt 0.36791992 0.5576172
vt 0.35180664 0.34692383
vt 0.34814453 0.5571289
vt 0.32836914 0.5566406
vt 0.33251953 0.35766602
vt 0.3088379 0.5566406
vt 0.31323242 0.3803711
vt 0.2890625 0.55566406
vt 0.29370117 0.3955078
vt 0.26953125 0.5551758
vt 0.27441406 0.40063477
vt 0.97558594 0.4506836
vt 0.94091797 0.4506836
vt 0.94091797 0.6401367
vt 0.97558594 0.6401367
vt 0.92333984 0.9526367
vt 0.73339844 0.9526367
vt 0.73339844 0.9873047
vt 0.92333984 0.9873047
vt 0.94921875 0.0076522827
vt 0.94921875 0.1973877
vt 0.9838867 0.1973877
vt 0.9838867 0.0076522827
vt 0.265625 0.8881836
vt 0.40551758 0.8881836
vt 0.40551758 0.74853516
vt 0.265625 0.74853516
vt 0.45703125 0.6147461
vt 0.45385742 0.63427734
vt 0.4638672 0.6513672
vt 0.48535156 0.6635742
vt 0.4729004 0.5957031
vt 0.51464844 0.66845703
vt 0.4987793 0.5805664
vt 0.5366211 0.66845703
vt 0.51953125 0.5732422
vt 0.5546875 0.6616211
vt 0.5385742 0.5732422
vt 0.57177734 0.64746094
vt 0.5600586 0.5800781
vt 0.58251953 0.62939453
vt 0.5756836 0.5932617
vt 0.5830078 0.61083984
vt 0.17895508 0.82714844
vt 0.20239258 0.82714844
vt 0.20239258 0.80371094
vt 0.17895508 0.80371094
vn 1 0 0
vn -0.35913086 0.9291992 -0.085998535
vn 0.29101562 0.7426758 0.6035156
vn 0.9238281 0.38256836 0
vn 0.51123047 -2.3901463E-05 0.859375
vn -0.3190918 0.73095703 0.6035156
vn 0.47216797 0.19543457 0.859375
vn 0.056671143 -0.73828125 0.671875
vn 0.33496094 -0.66064453 0.671875
vn 0.70703125 0.70703125 0
vn -0.9111328 0.40307617 -0.085998535
vn 0.36938477 0.35375977 0.859375
vn 0.87109375 0.10992432 0.4790039
vn 0.38256836 0.9238281 0
vn -0.7426758 0.29101562 0.6035156
vn 0.19567871 0.47216797 0.859375
vn 0.7626953 0.43481445 0.4790039
vn -0 1 0
vn 0.011009216 0.51123047 0.859375
vn 0.73828125 0.056671143 0.671875
vn 0.66064453 0.33496094 0.671875
vn -0.20581055 0.46801758 0.859375
vn 0.48217773 0.5625 0.671875
vn -0.38256836 0.9238281 0
vn -0.9291992 -0.35913086 -0.085998535
vn -0.36938477 0.35375977 0.859375
vn -0.43481445 0.7626953 0.4790039
vn -0.70703125 0.70703125 0
vn -0.73095703 -0.3190918 0.6035156
vn -0.47216797 0.19555664 0.859375
vn -0.6933594 0.53808594 0.4790039
vn -0.9238281 0.38256836 0
vn -0.40307617 -0.9111328 -0.085998535
vn -0.51123047 0 0.859375
vn -1 0 0
vn -0.023712158 -0.99609375 -0.085998535
vn 0.35913086 -0.9291992 -0.085998535
vn -0.9238281 -0.38256836 0
vn 0.6875 -0.7211914 -0.085998535
vn -0.46801758 -0.20581055 0.859375
vn -0.33496094 0.66064453 0.671875
vn -0.70703125 -0.70703125 0
vn 0.9111328 -0.40307617 -0.085998535
vn -0.36132812 -0.36132812 0.859375
vn -0.87109375 -0.10992432 0.4790039
vn -0.38256836 -0.9238281 0
vn 0.7426758 -0.29101562 0.6035156
vn -0.20581055 -0.46801758 0.859375
vn -0.7626953 -0.43481445 0.4790039
vn -0 -1 0
vn -0.00011819601 -0.51123047 0.859375
vn -0.73828125 -0.056671143 0.671875
vn -0.66064453 -0.33496094 0.671875
vn 0.19555664 -0.47216797 0.859375
vn 0.10992432 -0.87109375 0.4790039
vn 0.38256836 -0.9238281 0
vn 0.7973633 0.015235901 0.6035156
vn 0.35375977 -0.36938477 0.859375
vn 0.43481445 -0.7626953 0.4790039
vn 0.70703125 -0.70703125 0
vn 0.7211914 0.6875 -0.085998535
vn 0.46801758 -0.20581055 0.859375
vn 0.056671143 -0.73828125 0.671875
vn 0.51123047 -2.3901463E-05 0.859375
vn 0.9238281 -0.38256836 0
vn 0.55322266 0.57470703 0.6035156
vn 1 0 0
vn 0.29101562 0.7426758 0.6035156
vn 0.7910156 0 -0.6123047
vn 0.8129883 0.33666992 -0.47485352
vn 0.8798828 0 -0.47485352
vn 0.7392578 0.2824707 -0.6113281
vn 0.6479492 0.02293396 0.76123047
vn 0.6220703 0.6220703 -0.47485352
vn 0.59814453 0.24780273 0.76171875
vn 0.47631836 -0.7607422 -0.44091797
vn 0.3527832 -0.9243164 0.14538574
vn 0.57470703 0.5439453 -0.6113281
vn 0.33666992 0.8129883 -0.47485352
vn 0.4580078 0.4580078 0.76171875
vn 0.8745117 -0.20092773 -0.44091797
vn 0.30273438 0.73046875 -0.6123047
vn -0 0.8798828 -0.47485352
vn 0.24780273 0.59814453 0.76171875
vn 0.9033203 -0.40405273 0.14538574
vn -0 0.7910156 -0.6123047
vn -0.02293396 0.6479492 0.76123047
vn 0.7607422 0.47631836 -0.44091797
vn 0.9243164 0.3527832 0.14538574
vn -0.26904297 0.58984375 0.76123047
vn 0.20092773 0.8745117 -0.44091797
vn -0.30273438 0.73046875 -0.6123047
vn -0.33666992 0.8129883 -0.47485352
vn -0.47436523 0.44189453 0.76123047
vn 0.40405273 0.9033203 0.14538574
vn -0.55908203 0.55908203 -0.6123047
vn -0.6220703 0.6220703 -0.47485352
vn -0.6074219 0.22668457 0.76123047
vn 0.027679443 0.98876953 0.14538574
vn -0.72216797 0.3227539 -0.6113281
vn -0.8129883 0.33666992 -0.47485352
vn -0.64746094 4.8160553E-05 0.76171875
vn -0.7910156 0.02180481 -0.6113281
vn -0.8798828 0 -0.47485352
vn -0.8129883 -0.33666992 -0.47485352
vn -0.73046875 -0.30273438 -0.6123047
vn -0.6220703 -0.6220703 -0.47485352
vn -0.6074219 -0.22668457 0.76123047
vn -0.3527832 0.9243164 0.14538574
vn -0.5439453 -0.57470703 -0.6113281
vn -0.33666992 -0.8129883 -0.47485352
vn -0.4580078 -0.4580078 0.76171875
vn -0.6796875 0.71875 0.14538574
vn -0.2824707 -0.7392578 -0.6113281
vn -0 -0.8798828 -0.47485352
vn -0.24804688 -0.59814453 0.76171875
vn -0.9033203 0.40405273 0.14538574
vn 0.0001167655 -0.7910156 -0.6123047
vn -0.02293396 -0.6479492 0.76123047
vn -0.7607422 -0.47631836 -0.44091797
vn -0.5205078 -0.7314453 -0.44091797
vn 0.22668457 -0.6074219 0.76123047
vn -0.71875 -0.6796875 0.14538574
vn 0.30273438 -0.73046875 -0.6123047
vn 0.33666992 -0.8129883 -0.47485352
vn 0.45776367 -0.4580078 0.76171875
vn 0.14904785 -0.8852539 -0.44091797
vn 0.55908203 -0.55908203 -0.6123047
vn 0.6220703 -0.6220703 -0.47485352
vn 0.58984375 -0.26904297 0.76123047
vn 0.47631836 -0.7607422 -0.44091797
vn 0.6479492 0.02293396 0.76123047
vn 0.72216797 -0.3227539 -0.6113281
vn 0.8129883 -0.33666992 -0.47485352
vn 0.7910156 0 -0.6123047
vn 0.8798828 0 -0.47485352
vn 0.16027832 0.78515625 -0.59814453
vn -0 1 0
vn -0 1 0
vn -0.43774414 0.78515625 -0.43774414
vn 0.62158203 0.7832031 0.0076293945
vn 0.81640625 -0.55126953 0.17199707
vn 0.9760742 0.04498291 -0.21362305
vn 0.27441406 0.9614258 0.007633209
vn 0.7109375 0.58447266 -0.39111328
vn 0.07366943 0.7973633 0.5991211
vn 0.4489746 0.68652344 -0.5722656
vn -0.23693848 0.76464844 0.5991211
vn 0.28588867 0.7919922 -0.5395508
vn -0.7807617 0.625 0.0073432922
vn -0.9614258 0.27441406 0.0070266724
vn -0.026992798 0.97509766 -0.22021484
vn -0.9926758 -0.118896484 0.007286072
vn -0.5151367 0.7817383 -0.3515625
vn -0.76464844 -0.23693848 0.5991211
vn -0.75439453 0.5517578 -0.35546875
vn -0.61572266 -0.51171875 0.5991211
vn -0.82177734 0.2758789 -0.49829102
vn -0.9902344 0.08459473 -0.1126709
vn -0.27441406 -0.9614258 0.0076293945
vn -0.95214844 -0.2763672 -0.1307373
vn -0.07733154 -0.796875 0.5991211
vn -0.7758789 -0.62939453 -0.04437256
vn 0.23669434 -0.7651367 0.5986328
vn -0.60839844 -0.75341797 -0.24987793
vn 0.7861328 -0.61816406 0.0072784424
vn 0.9614258 -0.27441406 0.0076293945
vn -0.35839844 -0.9243164 -0.13049316
vn 0.7973633 -0.07366943 0.5991211
vn 0.26879883 -0.9433594 0.19396973
vn 0.76464844 0.23693848 0.5991211
vn 0.62158203 -0.7763672 0.101867676
vn 0.62158203 0.7832031 0.0076293945
vn 0.81640625 -0.55126953 0.17199707
vn -0.78515625 0.16027832 -0.59814453
vn -1 0 0
vn -1 0 0
vn -0.78515625 -0.59814453 -0.16027832
vn 0.59814453 -0.78515625 -0.16027832
vn -0.16027832 -0.78515625 -0.59814453
vn -0 -1 0
vn -0 -1 0
vn 0.78515625 0.59814453 -0.16027832
vn 0.78515625 -0.43774414 -0.43774414
vn 1 0 0
vn 1 0 0
vn 0.16027832 0.59814453 0.78515625
vn 0.59814453 -0.16027832 0.78515625
vn -0.43774414 -0.43774414 0.78515625
vn -0.59814453 0.16027832 0.78515625
vn 0.5493164 0.20385742 0.8100586
vn 0.5942383 0.5058594 0.625
vn 0.7495117 0.4128418 0.5175781
vn 0.86328125 0.36279297 0.35107422
vn 0.51953125 -0.011871338 0.8544922
vn 0.69384766 0.5888672 0.41430664
vn 0.027267456 -0.08618164 0.99609375
vn 0.70751953 0.4104004 0.5756836
vn -0.23022461 -0.4177246 0.87890625
vn 0.60839844 0.12841797 0.7832031
vn 0.05593872 -0.2841797 0.95703125
vn 0.8847656 0.07922363 0.45898438
vn 0.4560547 -0.3864746 0.8017578
vn 0.83691406 -0.21459961 0.5029297
vn 0.65283203 -0.39916992 0.6435547
vn 0.73535156 -0.23486328 0.6357422
vn -0 0 -1
vn -0 0 -1
vn -0 0 -1
vn -0 0 -1
g column_3_0
f 3/3/3 2/2/2 1/1/1
f 2/2/2 4/4/4 1/1/1
f 1/1/1 4/4/4 5/5/5
f 2/2/2 6/6/6 4/4/4
f 4/4/4 7/7/7 5/5/5
f 5/5/5 7/7/7 8/8/8
f 7/7/7 9/9/9 8/8/8
f 6/6/6 10/10/10 4/4/4
f 4/4/4 10/10/10 7/7/7
f 6/6/6 11/11/11 10/10/10
f 7/7/7 12/12/12 9/9/9
f 10/10/10 12/12/12 7/7/7
f 12/12/12 13/13/13 9/9/9
f 11/11/11 14/14/14 10/10/10
f 10/10/10 14/14/14 12/12/12
f 11/11/11 15/15/15 14/14/14
f 12/12/12 16/16/16 13/13/13
f 14/14/14 16/16/16 12/12/12
f 16/16/16 17/17/17 13/13/13
f 15/15/15 18/18/18 14/14/14
f 14/14/14 18/18/18 16/16/16
f 16/16/16 19/19/19 17/17/17
f 18/18/18 19/19/19 16/16/16
f 19/19/19 20/20/20 17/17/17
f 20/20/20 19/19/19 21/21/21
f 19/19/19 22/22/22 21/21/21
f 19/19/19 18/18/18 22/22/22
f 21/21/21 22/22/22 23/23/23
f 18/18/18 15/15/15 24/24/24
f 18/18/18 24/24/24 22/22/22
f 15/15/15 25/25/25 24/24/24
f 22/22/22 26/26/26 23/23/23
f 22/22/22 24/24/24 26/26/26
f 23/23/23 26/26/26 27/27/27
f 24/24/24 25/25/25 28/28/28
f 24/24/24 28/28/28 26/26/26
f 25/25/25 29/29/29 28/28/28
f 26/26/26 30/30/30 27/27/27
f 26/26/26 28/28/28 30/30/30
f 27/27/27 30/30/30 31/31/31
f 28/28/28 29/29/29 32/32/32
f 28/28/28 32/32/32 30/30/30
f 29/29/29 33/33/33 32/32/32
f 30/30/30 34/34/34 31/31/31
f 30/30/30 32/32/32 34/34/34
f 32/32/32 33/33/33 35/35/35
f 32/32/32 35/35/35 34/34/34
f 33/33/33 36/36/36 35/35/35
f 36/36/36 37/37/37 35/35/35
f 37/37/37 38/38/38 35/35/35
f 35/35/35 38/38/38 34/34/34
f 37/37/37 39/39/39 38/38/38
f 34/34/34 40/40/40 31/31/31
f 38/38/38 40/40/40 34/34/34
f 40/40/40 41/41/41 31/31/31
f 39/39/39 42/42/42 38/38/38
f 38/38/38 42/42/42 40/40/40
f 39/39/39 43/43/43 42/42/42
f 40/40/40 44/44/44 41/41/41
f 42/42/42 44/44/44 40/40/40
f 44/44/44 45/45/45 41/41/41
f 43/43/43 46/46/46 42/42/42
f 42/42/42 46/46/46 44/44/44
f 43/43/43 47/47/47 46/46/46
f 44/44/44 48/48/48 45/45/45
f 46/46/46 48/48/48 44/44/44
f 48/48/48 49/49/49 45/45/45
f 47/47/47 50/50/50 46/46/46
f 46/46/46 50/50/50 48/48/48
f 48/48/48 51/51/51 49/49/49
f 50/50/50 51/51/51 48/48/48
f 51/51/51 52/52/52 49/49/49
f 52/52/52 51/51/51 53/53/53
f 51/51/51 54/54/54 53/53/53
f 51/51/51 50/50/50 54/54/54
f 53/53/53 54/54/54 55/55/55
f 50/50/50 47/47/47 56/56/56
f 50/50/50 56/56/56 54/54/54
f 47/47/47 57/57/57 56/56/56
f 54/54/54 58/58/58 55/55/55
f 54/54/54 56/56/56 58/58/58
f 55/55/55 58/58/58 59/59/59
f 56/56/56 57/57/57 60/60/60
f 56/56/56 60/60/60 58/58/58
f 57/57/57 61/61/61 60/60/60
f 58/58/58 62/62/62 59/59/59
f 58/58/58 60/60/60 62/62/62
f 59/59/59 62/62/62 63/63/63
f 62/62/62 64/64/64 63/63/63
f 60/60/60 61/61/61 65/65/65
f 60/60/60 65/65/65 62/62/62
f 62/62/62 65/65/65 64/64/64
f 61/61/61 66/66/66 65/65/65
f 65/65/65 67/67/67 64/64/64
f 65/65/65 66/66/66 67/67/67
f 66/66/66 68/68/68 67/67/67
f 71/71/71 70/70/70 69/69/69
f 70/70/70 72/72/72 69/69/69
f 69/69/69 72/72/72 73/73/73
f 70/70/70 74/74/74 72/72/72
f 72/72/72 75/75/75 73/73/73
f 73/73/73 75/75/75 76/76/76
f 75/75/75 77/77/77 76/76/76
f 74/74/74 78/78/78 72/72/72
f 72/72/72 78/78/78 75/75/75
f 74/74/74 79/79/79 78/78/78
f 75/75/75 80/80/80 77/77/77
f 78/78/78 80/80/80 75/75/75
f 80/80/80 81/81/81 77/77/77
f 79/79/79 82/82/82 78/78/78
f 78/78/78 82/82/82 80/80/80
f 79/79/79 83/83/83 82/82/82
f 80/80/80 84/84/84 81/81/81
f 82/82/82 84/84/84 80/80/80
f 84/84/84 85/85/85 81/81/81
f 83/83/83 86/86/86 82/82/82
f 82/82/82 86/86/86 84/84/84
f 84/84/84 87/87/87 85/85/85
f 86/86/86 87/87/87 84/84/84
f 87/87/87 88/88/88 85/85/85
f 88/88/88 87/87/87 89/89/89
f 87/87/87 90/90/90 89/89/89
f 87/87/87 86/86/86 90/90/90
f 89/89/89 90/90/90 91/91/91
f 86/86/86 83/83/83 92/92/92
f 86/86/86 92/92/92 90/90/90
f 83/83/83 93/93/93 92/92/92
f 90/90/90 94/94/94 91/91/91
f 90/90/90 92/92/92 94/94/94
f 91/91/91 94/94/94 95/95/95
f 92/92/92 93/93/93 96/96/96
f 92/92/92 96/96/96 94/94/94
f 93/93/93 97/97/97 96/96/96
f 94/94/94 98/98/98 95/95/95
f 94/94/94 96/96/96 98/98/98
f 95/95/95 98/98/98 99/99/99
f 96/96/96 97/97/97 100/100/100
f 96/96/96 100/100/100 98/98/98
f 97/97/97 101/101/101 100/100/100
f 98/98/98 102/102/102 99/99/99
f 98/98/98 100/100/100 102/102/102
f 100/100/100 101/101/101 103/103/103
f 100/100/100 103/103/103 102/102/102
f 101/101/101 104/104/104 103/103/103
f 104/104/104 105/105/105 103/103/103
f 105/105/105 106/106/106 103/103/103
f 103/103/103 106/106/106 102/102/102
f 105/105/105 107/107/107 106/106/106
f 102/102/102 108/108/108 99/99/99
f 106/106/106 108/108/108 102/102/102
f 108/108/108 109/109/109 99/99/99
f 107/107/107 110/110/110 106/106/106
f 106/106/106 110/110/110 108/108/108
f 107/107/107 111/111/111 110/110/110
f 108/108/108 112/112/112 109/109/109
f 110/110/110 112/112/112 108/108/108
f 112/112/112 113/113/113 109/109/109
f 111/111/111 114/114/114 110/110/110
f 110/110/110 114/114/114 112/112/112
f 111/111/111 115/115/115 114/114/114
f 112/112/112 116/116/116 113/113/113
f 114/114/114 116/116/116 112/112/112
f 116/116/116 117/117/117 113/113/113
f 115/115/115 118/118/118 114/114/114
f 114/114/114 118/118/118 116/116/116
f 116/116/116 119/119/119 117/117/117
f 118/118/118 119/119/119 116/116/116
f 119/119/119 120/120/120 117/117/117
f 120/120/120 119/119/119 121/121/121
f 119/119/119 122/122/122 121/121/121
f 119/119/119 118/118/118 122/122/122
f 121/121/121 122/122/122 123/123/123
f 118/118/118 115/115/115 124/124/124
f 118/118/118 124/124/124 122/122/122
f 115/115/115 125/125/125 124/124/124
f 122/122/122 126/126/126 123/123/123
f 122/122/122 124/124/124 126/126/126
f 123/123/123 126/126/126 127/127/127
f 124/124/124 125/125/125 128/128/128
f 124/124/124 128/128/128 126/126/126
f 125/125/125 129/129/129 128/128/128
f 126/126/126 130/130/130 127/127/127
f 126/126/126 128/128/128 130/130/130
f 127/127/127 130/130/130 131/131/131
f 130/130/130 132/132/132 131/131/131
f 128/128/128 129/129/129 133/133/133
f 128/128/128 133/133/133 130/130/130
f 130/130/130 133/133/133 132/132/132
f 129/129/129 134/134/134 133/133/133
f 133/133/133 135/135/135 132/132/132
f 133/133/133 134/134/134 135/135/135
f 134/134/134 136/136/136 135/135/135
f 139/139/139 138/138/138 137/137/137
f 140/140/140 139/139/139 137/137/137
f 143/143/143 142/142/142 141/141/141
f 144/144/144 143/143/143 141/141/141
f 145/145/145 143/143/143 144/144/144
f 146/146/146 145/145/145 144/144/144
f 147/147/147 145/145/145 146/146/146
f 148/148/148 147/147/147 146/146/146
f 149/149/149 147/147/147 148/148/148
f 150/150/150 149/149/149 148/148/148
f 149/149/149 150/150/150 151/151/151
f 152/152/152 149/149/149 151/151/151
f 152/152/152 151/151/151 153/153/153
f 154/154/154 152/152/152 153/153/153
f 154/154/154 153/153/153 155/155/155
f 156/156/156 154/154/154 155/155/155
f 156/156/156 155/155/155 157/157/157
f 158/158/158 156/156/156 157/157/157
f 159/159/159 158/158/158 157/157/157
f 160/160/160 159/159/159 157/157/157
f 161/161/161 159/159/159 160/160/160
f 162/162/162 161/161/161 160/160/160
f 163/163/163 161/161/161 162/162/162
f 164/164/164 163/163/163 162/162/162
f 165/165/165 163/163/163 164/164/164
f 166/166/166 165/165/165 164/164/164
f 165/165/165 166/166/166 167/167/167
f 168/168/168 165/165/165 167/167/167
f 168/168/168 167/167/167 169/169/169
f 170/170/170 168/168/168 169/169/169
f 170/170/170 169/169/169 171/171/171
f 172/172/172 170/170/170 171/171/171
f 172/172/172 171/171/171 173/173/173
f 174/174/174 172/172/172 173/173/173
f 177/177/177 176/176/176 175/175/175
f 178/178/178 177/177/177 175/175/175
f 181/181/181 180/180/180 179/179/179
f 182/182/182 181/181/181 179/179/179
f 185/185/185 184/184/184 183/183/183
f 186/186/186 185/185/185 183/183/183
f 189/189/189 188/188/188 187/187/187
f 190/190/190 189/189/189 187/187/187
f 193/193/193 192/192/192 191/191/191
f 194/194/194 193/193/193 191/191/191
f 195/195/195 194/194/194 191/191/191
f 196/196/196 194/194/194 195/195/195
f 197/197/197 196/196/196 195/195/195
f 196/196/196 197/197/197 198/198/198
f 197/197/197 199/199/199 198/198/198
f 198/198/198 199/199/199 200/200/200
f 199/199/199 201/201/201 200/200/200
f 200/200/200 201/201/201 202/202/202
f 201/201/201 203/203/203 202/202/202
f 202/202/202 203/203/203 204/204/204
f 203/203/203 205/205/205 204/204/204
f 205/205/205 206/206/206 204/204/204
f 209/209/209 208/208/208 207/207/207
f 210/210/210 209/209/209 207/207/207
