g Cube
v -3.3589118 0.70313287 3.5125473
v -1.2748321 0.73493904 2.3281937
v -1.2121577 -0.72497237 2.0285642
v -3.3414495 -0.6885859 3.2287965
v -5.048986 -0.32040715 4.8362994
v -5.041401 0.36399966 5.0283957
v -5.9190392 0.53816503 4.264403
v -5.9190392 -0.50112134 4.264403
v -4.3605075 -0.9507668 1.5689601
v -4.3605075 0.95581293 1.5689601
v -1.5678916 0.99999994 -0.0316
v -1.5678916 -0.9999999 -0.0316
v -1.5678916 -0.9999999 -0.0316
v 1.9781704 1.1839786 -0.15222359
v -1.5678916 0.99999994 -0.0316
v 1.9781704 -1.1839786 -0.15222359
v 5.109444 1.1543964 1.7661273
v 5.109444 -1.1494488 1.7661273
v -1.2748321 0.73493904 2.3281937
v 1.4720888 -0.90895104 2.1867254
v -1.2121577 -0.72497237 2.0285642
v 1.4083835 0.9189179 2.487803
v 3.4482408 -0.887017 3.35866
v 3.3783798 0.90147483 3.6461682
v 4.52431 -0.5248604 4.7172756
v 4.4699044 0.5600169 4.9411807
v 4.805514 -0.3775343 4.9037466
v 4.8000164 0.515449 5.005736
v 5.0720153 -0.3003026 5.150186
v 5.0720153 0.30030298 5.150186
v 5.109444 -1.1494488 1.7661273
v 5.8731875 0.75698686 4.1142373
v 5.109444 1.1543964 1.7661273
v 5.8731875 -0.7292365 4.1142373
v 5.7005877 0.5023405 4.5702515
v 5.7005877 -0.50234014 4.5702515
v 5.575417 0.30030298 4.9033704
v 5.575417 -0.30030265 4.9033704
v 6.08982 0.4644937 6.402654
v 5.284628 -0.2747639 6.632612
v 5.284628 0.27476427 6.632612
v 6.08982 -0.4644934 6.402654
v 6.683242 0.2154115 6.2518473
v 6.683242 -0.21541117 6.2518473
v 6.041899 -0.38635167 5.914324
v 6.683242 -0.21541117 6.2518473
v 6.683242 0.2154115 6.2518473
v 6.041899 0.3863519 5.914324
v 5.9437532 -0.4113933 5.69759
v 5.9437532 0.4113936 5.69759
v 5.575417 -0.30030265 4.9033704
v 5.575417 0.30030298 4.9033704
v 5.3562384 0.3863519 6.343293
v 5.284628 0.27476427 6.632612
v 5.284628 -0.2747639 6.632612
v 5.3562384 -0.38635164 6.343293
v 5.336476 0.4113936 6.0783234
v 5.336476 -0.41139328 6.0783234
v 5.0720153 0.30030298 5.150186
v 5.0720153 -0.3003026 5.150186
v -5.377092 -0.10842705 5.010322
v -5.4144626 -0.10842705 5.2929893
v -5.4144626 0.3408382 5.2929893
v -5.377092 0.3408382 5.010322
v -5.048986 -0.32040715 4.8362994
v -5.377092 -0.10842705 5.010322
v -5.377092 0.3408382 5.010322
v -5.041401 0.36399966 5.0283957
v -5.9190392 0.53816503 4.264403
v -5.7521205 0.3408382 4.76295
v -5.7521205 -0.10842699 4.76295
v -5.9190392 -0.50112134 4.264403
v -5.564605 -0.10842702 4.8866363
v -5.485262 -0.5011214 4.550526
v -5.601976 -0.10842702 5.169303
v -5.4144626 0.3408382 5.2929893
v -5.4144626 -0.10842705 5.2929893
v -5.601976 0.3408382 5.169303
v -5.789491 -0.10842699 5.045617
v -5.789491 0.3408382 5.045617
v -5.7521205 0.3408382 4.76295
v -5.789491 0.3408382 5.045617
v -5.789491 -0.10842699 5.045617
v -5.7521205 -0.10842699 4.76295
v -5.7521205 -0.10842699 4.76295
v -5.789491 -0.10842699 5.045617
v -5.601976 -0.10842702 5.169303
v -5.564605 -0.10842702 4.8866363
v -5.4144626 -0.10842705 5.2929893
v -5.377092 -0.10842705 5.010322
v -5.485262 -0.5011214 4.550526
v -5.048986 -0.32040715 4.8362994
v -3.86651 -0.9507668 2.4099026
v -3.3414495 -0.6885859 3.2287965
v -4.3605075 -0.9507668 1.5689601
v -5.9190392 -0.50112134 4.264403
v -1.5678916 -0.9999999 -0.0316
v -1.3833728 -0.9999999 0.97798634
v -1.2121577 -0.72497237 2.0285642
v 1.9781704 -1.1839786 -0.15222359
v 1.7077088 -1.1839786 1.0029721
v 1.4720888 -0.90895104 2.1867254
v 5.109444 -1.1494488 1.7661273
v 4.2770104 -1.1494488 2.5623572
v 3.4482408 -0.887017 3.35866
v 5.8731875 -0.7292365 4.1142373
v 5.2000327 -0.7292365 4.414797
v 4.52431 -0.5248604 4.7172756
v 5.7005877 -0.50234014 4.5702515
v 5.257637 -0.5023401 4.7692738
v 4.805514 -0.3775343 4.9037466
v 5.575417 -0.30030265 4.9033704
v 5.324055 -0.3003026 5.026662
v 5.0720153 -0.3003026 5.150186
v 5.9437532 -0.4113933 5.69759
v 5.6361527 -0.4113933 5.889317
v 5.336476 -0.41139328 6.0783234
v 6.041899 -0.38635167 5.914324
v 5.6946616 -0.38635167 6.0474014
v 6.683242 -0.21541117 6.2518473
v 5.3562384 -0.38635164 6.343293
v 6.08982 -0.4644934 6.402654
v 5.284628 -0.2747639 6.632612
v -5.377092 0.3408382 5.010322
v -5.4144626 0.3408382 5.2929893
v -5.601976 0.3408382 5.169303
v -5.564605 0.3408382 4.8866363
v -5.789491 0.3408382 5.045617
v -5.041401 0.36399966 5.0283957
v -5.7521205 0.3408382 4.76295
v -5.453321 0.7445523 4.5559134
v -3.3589118 0.70313287 3.5125473
v -5.9190392 0.53816503 4.264403
v -3.820707 1.2552404 2.421116
v -1.2748321 0.73493904 2.3281937
v -4.3605075 0.95581293 1.5689601
v -1.3302178 1.3140993 0.98378944
v 1.4083835 0.9189179 2.487803
v -1.5678916 0.99999994 -0.0316
v 1.7538476 1.498078 1.0170069
v 3.3783798 0.90147483 3.6461682
v 1.9781704 1.1839786 -0.15222359
v 4.3215723 1.4541105 2.5774248
v 4.4699044 0.5600169 4.9411807
v 5.109444 1.1543964 1.7661273
v 5.2349234 0.9903976 4.4264674
v 4.8000164 0.515449 5.005736
v 5.8731875 0.75698686 4.1142373
v 5.257637 0.5023405 4.7692738
v 5.0720153 0.30030298 5.150186
v 5.7005877 0.5023405 4.5702515
v 5.324055 0.30030298 5.026662
v 5.336476 0.4113936 6.0783234
v 5.575417 0.30030298 4.9033704
v 5.6361527 0.4113936 5.889317
v 5.3562384 0.3863519 6.343293
v 5.9437532 0.4113936 5.69759
v 5.6946616 0.3863519 6.0474014
v 5.284628 0.27476427 6.632612
v 6.041899 0.3863519 5.914324
v 6.08982 0.4644937 6.402654
v 6.683242 0.2154115 6.2518473
vt 0.4675789 0.8694794
vt 0.4675789 0.7596202
vt 0.3836307 0.7465613
vt 0.38751197 0.85810685
vt 0.41212368 0.9801607
vt 0.45169777 0.9881108
vt 0.90563583 0.7331624
vt 0.9648287 0.7331624
vt 0.99043846 0.55598515
vt 0.8818486 0.55598515
vt 0.87933195 0.40148115
vt 0.9932426 0.40148115
vt 0.77098906 0.0067573786
vt 0.89537823 0.17892706
vt 0.88489974 0.0067573786
vt 0.76051044 0.17892706
vt 0.8936933 0.3879664
vt 0.76247704 0.3879664
vt 0.86155975 0.79533577
vt 0.76051056 0.66314983
vt 0.7771076 0.8002019
vt 0.8658173 0.6584339
vt 0.762797 0.53231573
vt 0.8658173 0.52827406
vt 0.7876966 0.440732
vt 0.8504811 0.4374671
vt 0.7962953 0.42160892
vt 0.84743583 0.419322
vt 0.80127925 0.40148115
vt 0.8353026 0.40171003
vt 0.61219275 0.8992028
vt 0.49973977 0.7945249
vt 0.48109365 0.8992028
vt 0.58431256 0.7945249
vt 0.51416576 0.7667961
vt 0.5713366 0.7667961
vt 0.52561355 0.7465615
vt 0.55979073 0.7465613
vt 0.0067573786 0.77979183
vt 0.04509163 0.7466078
vt 0.013961077 0.7466078
vt 0.059384167 0.77979183
vt 0.02338469 0.8047795
vt 0.047790647 0.8047795
vt 0.6271337 0.79812
vt 0.6368697 0.8393755
vt 0.66140735 0.8393755
vt 0.67114335 0.79812
vt 0.6257075 0.7871585
vt 0.67256963 0.7871585
vt 0.6320347 0.7465615
vt 0.66624236 0.7465615
vt 0.6875106 0.79926944
vt 0.69386613 0.8157611
vt 0.7251647 0.8157611
vt 0.73152024 0.79926944
vt 0.6860844 0.78641915
vt 0.7329465 0.78641915
vt 0.6924116 0.7465613
vt 0.72661924 0.7465613
vt 0.20650291 0.74660796
vt 0.19091988 0.74680114
vt 0.19091988 0.7723663
vt 0.20650291 0.77217317
vt 0.13844037 0.74660796
vt 0.12530708 0.7586893
vt 0.121605635 0.78386945
vt 0.13844037 0.7867646
vt 0.108091116 0.7466079
vt 0.085669994 0.7557328
vt 0.085669994 0.7811835
vt 0.108091116 0.8054831
vt 0.072898865 0.7811041
vt 0.078547716 0.8052995
vt 0.17740536 0.75937915
vt 0.15195513 0.7723086
vt 0.17740536 0.7721505
vt 0.15195513 0.7595372
vt 0.17740536 0.7466078
vt 0.15195513 0.7467661
vt 0.23526955 0.7466079
vt 0.22001743 0.7466079
vt 0.22001743 0.77219594
vt 0.23526955 0.77219594
vt 0.34261346 0.7199936
vt 0.35879847 0.7201371
vt 0.36445722 0.70867634
vt 0.34827223 0.70853233
vt 0.37011597 0.6972151
vt 0.35393098 0.69707155
vt 0.32696164 0.70658064
vt 0.3408532 0.67984104
vt 0.1929819 0.63020897
vt 0.23666501 0.5946975
vt 0.14905614 0.66398954
vt 0.31387126 0.73309326
vt 0.03916323 0.5173063
vt 0.094750166 0.49984503
vt 0.15401521 0.48271513
vt 0.0067573786 0.3177929
vt 0.073723674 0.3250351
vt 0.14333153 0.32997417
vt 0.09312695 0.12741709
vt 0.14379436 0.16892576
vt 0.19565773 0.21009779
vt 0.22202545 0.06768608
vt 0.24365717 0.10364342
vt 0.2663631 0.13963223
vt 0.24997276 0.07415533
vt 0.2642772 0.09780693
vt 0.27558824 0.12236595
vt 0.27055025 0.078811646
vt 0.27925077 0.09216118
vt 0.28796914 0.10554743
vt 0.31220576 0.0525136
vt 0.32515427 0.068565845
vt 0.3378941 0.08418894
vt 0.32384643 0.04544449
vt 0.33376765 0.06414509
vt 0.33917636 0.0067572594
vt 0.35279945 0.08121395
vt 0.3506595 0.039372444
vt 0.37011594 0.08319235
vt 0.73085034 0.04296112
vt 0.7469958 0.04278469
vt 0.7413728 0.031345367
vt 0.7252274 0.031521797
vt 0.73574996 0.01990652
vt 0.7293501 0.061990738
vt 0.7196045 0.02008295
vt 0.70339257 0.03455448
vt 0.6302134 0.14582682
vt 0.6915693 0.0067572594
vt 0.56878585 0.11091614
vt 0.54873884 0.25537157
vt 0.52655613 0.07532549
vt 0.4700588 0.24162054
vt 0.53760535 0.40758562
vt 0.41661102 0.22201586
vt 0.44898927 0.41561365
vt 0.5888601 0.5268402
vt 0.38363075 0.4210539
vt 0.51876736 0.57145023
vt 0.65598476 0.5982008
vt 0.4694451 0.6111393
vt 0.6190263 0.6368375
vt 0.6575493 0.6173997
vt 0.59839636 0.67132854
vt 0.6411078 0.6416645
vt 0.6650559 0.63428116
vt 0.6267933 0.6653242
vt 0.6563334 0.6476736
vt 0.7146526 0.65530014
vt 0.6476287 0.66102886
vt 0.70191413 0.67093515
vt 0.7295526 0.65829134
vt 0.6889668 0.6869993
vt 0.71053505 0.67538357
vt 0.7469958 0.65650034
vt 0.70060253 0.694088
vt 0.72722214 0.69994545
vt 0.71607435 0.73304653
vn 0.48049313 0.49272868 0.7254963
vn 0.19105369 0.5219946 0.8312762
vn 0.124205664 -0.73396695 0.6677316
vn 0.37820122 -0.6960588 0.6102998
vn 0.26242718 -0.61619186 0.7425898
vn 0.32620198 0.3489283 0.8785449
vn -0.8732272 0.4870127 -0.017116752
vn -0.8036127 -0.5932307 0.04778896
vn -0.5547094 -0.6634338 -0.50214845
vn -0.6032447 0.56028074 -0.56761014
vn -0.24214374 0.55398554 -0.796534
vn -0.22670317 -0.64916307 -0.72608054
vn -0.22670317 -0.64916307 -0.72608054
vn 0.19810894 0.5687055 -0.79832757
vn -0.24214374 0.55398554 -0.796534
vn 0.18071844 -0.6572127 -0.73171866
vn 0.66717464 0.5650164 -0.4854221
vn 0.62018067 -0.65414053 -0.43298513
vn 0.19105369 0.5219946 0.8312762
vn -0.21407412 -0.7342257 0.6442707
vn 0.124205664 -0.73396695 0.6677316
vn -0.26275194 0.54367024 0.79710984
vn -0.39947474 -0.71930933 0.5683432
vn -0.50062746 0.54741025 0.6706074
vn -0.40106982 -0.6179886 0.67619014
vn -0.42974815 0.3712091 0.82311624
vn -0.2598458 -0.53439724 0.8043008
vn -0.072370395 0.41705543 0.90599525
vn -0.5297585 -0.68102896 0.505525
vn -0.46994427 0.62812984 0.6201655
vn 0.62018067 -0.65414053 -0.43298513
vn 0.8553277 0.49838367 0.14152087
vn 0.66717464 0.5650164 -0.4854221
vn 0.78512186 -0.60300577 0.14130679
vn 0.7431847 0.37633693 0.553215
vn 0.6910267 -0.49979496 0.52219445
vn 0.75234956 0.6238131 0.21172464
vn 0.7523495 -0.6238133 0.21172436
vn 0.25314805 0.77605116 0.5776336
vn -0.6614683 -0.44123727 0.60644
vn -0.6614683 0.4412373 0.60643995
vn 0.25314793 -0.77605116 0.5776336
vn 0.90004814 0.42191452 0.10909412
vn 0.90004814 -0.42191455 0.10909421
vn 0.535578 -0.7333245 -0.4187973
vn 0.90004814 -0.42191455 0.10909421
vn 0.90004814 0.42191452 0.10909412
vn 0.53557825 0.73332447 -0.41879737
vn 0.6167366 -0.731357 -0.2911237
vn 0.61673653 0.73135704 -0.2911237
vn 0.7523495 -0.6238133 0.21172436
vn 0.75234956 0.6238131 0.21172464
vn -0.6731099 0.73830307 0.042799175
vn -0.6614683 0.4412373 0.60643995
vn -0.6614683 -0.44123727 0.60644
vn -0.6731097 -0.7383032 0.042799197
vn -0.6375675 0.75863546 0.1340895
vn -0.6375676 -0.75863534 0.13408938
vn -0.46994427 0.62812984 0.6201655
vn -0.5297585 -0.68102896 0.505525
vn 0.27330196 -0.7017718 0.6578924
vn 0.34473124 -0.5572449 0.75540626
vn 0.34473127 0.55724484 0.75540626
vn 0.24881805 0.69152975 0.67814165
vn 0.26242718 -0.61619186 0.7425898
vn 0.27330196 -0.7017718 0.6578924
vn 0.24881805 0.69152975 0.67814165
vn 0.32620198 0.3489283 0.8785449
vn -0.8732272 0.4870127 -0.017116752
vn -0.82755065 0.47974092 0.29156223
vn -0.8206506 -0.45443934 0.34643537
vn -0.8036127 -0.5932307 0.04778896
vn -0.17057845 -0.9181412 0.3576588
vn -0.18588267 -0.878866 0.4393656
vn -0.38934252 -0.7071074 0.5902638
vn 0.34473127 0.55724484 0.75540626
vn 0.34473124 -0.5572449 0.75540626
vn -0.38934243 0.7071075 0.59026384
vn -0.7244363 -0.604892 0.33060184
vn -0.7244363 0.6048921 0.33060184
vn -0.82755065 0.47974092 0.29156223
vn -0.7244363 0.6048921 0.33060184
vn -0.7244363 -0.604892 0.33060184
vn -0.8206506 -0.45443934 0.34643537
vn -0.8206506 -0.45443934 0.34643537
vn -0.7244363 -0.604892 0.33060184
vn -0.38934252 -0.7071074 0.5902638
vn -0.17057845 -0.9181412 0.3576588
vn 0.34473124 -0.5572449 0.75540626
vn 0.27330196 -0.7017718 0.6578924
vn -0.18588267 -0.878866 0.4393656
vn 0.26242718 -0.61619186 0.7425898
vn 0.004454613 -0.9889181 0.14839473
vn 0.37820122 -0.6960588 0.6102998
vn -0.5547094 -0.6634338 -0.50214845
vn -0.8036127 -0.5932307 0.04778896
vn -0.22670317 -0.64916307 -0.72608054
vn -0.013516971 -0.99484766 0.100476086
vn 0.124205664 -0.73396695 0.6677316
vn 0.18071844 -0.6572127 -0.73171866
vn -0.050260082 -0.99436957 0.09328988
vn -0.21407412 -0.7342257 0.6442707
vn 0.62018067 -0.65414053 -0.43298513
vn -0.004894071 -0.98898137 0.14795955
vn -0.39947474 -0.71930933 0.5683432
vn 0.78512186 -0.60300577 0.14130679
vn 0.06983793 -0.9228643 0.37874016
vn -0.40106982 -0.6179886 0.67619014
vn 0.6910267 -0.49979496 0.52219445
vn 0.12013486 -0.8340184 0.5384987
vn -0.2598458 -0.53439724 0.8043008
vn 0.7523495 -0.6238133 0.21172436
vn 0.035847753 -0.97536194 0.2176788
vn -0.5297585 -0.68102896 0.505525
vn 0.6167366 -0.731357 -0.2911237
vn 0.002404273 -0.99999714 0.00031211172
vn -0.6375676 -0.75863534 0.13408938
vn 0.535578 -0.7333245 -0.4187973
vn 0.042997833 -0.99738187 0.058142677
vn 0.90004814 -0.42191455 0.10909421
vn -0.6731097 -0.7383032 0.042799197
vn 0.25314793 -0.77605116 0.5776336
vn -0.6614683 -0.44123727 0.60644
vn 0.24881805 0.69152975 0.67814165
vn 0.34473127 0.55724484 0.75540626
vn -0.38934243 0.7071075 0.59026384
vn -0.19583282 0.92396754 0.32853225
vn -0.7244363 0.6048921 0.33060184
vn 0.32620198 0.3489283 0.8785449
vn -0.82755065 0.47974092 0.29156223
vn -0.22834784 0.90297824 0.36398852
vn 0.48049313 0.49272868 0.7254963
vn -0.8732272 0.4870127 -0.017116752
vn -0.06994268 0.99341255 0.09077192
vn 0.19105369 0.5219946 0.8312762
vn -0.6032447 0.56028074 -0.56761014
vn -0.04827174 0.9988067 0.007412108
vn -0.26275194 0.54367024 0.79710984
vn -0.24214374 0.55398554 -0.796534
vn -0.02370063 0.99971765 0.0016544883
vn -0.50062746 0.54741025 0.6706074
vn 0.19810894 0.5687055 -0.79832757
vn 0.082925394 0.99232775 0.09170064
vn -0.42974815 0.3712091 0.82311624
vn 0.66717464 0.5650164 -0.4854221
vn 0.21067071 0.87472326 0.43643677
vn -0.072370395 0.41705543 0.90599525
vn 0.8553277 0.49838367 0.14152087
vn 0.29475608 0.7205894 0.6275905
vn -0.46994427 0.62812984 0.6201655
vn 0.7431847 0.37633693 0.553215
vn 0.11973229 0.9619097 0.24575132
vn -0.6375675 0.75863546 0.1340895
vn 0.75234956 0.6238131 0.21172464
vn 0.0024043305 0.99999714 0.00031216908
vn -0.6731099 0.73830307 0.042799175
vn 0.61673653 0.73135704 -0.2911237
vn 0.042997893 0.99738187 0.058142707
vn -0.6614683 0.4412373 0.60643995
vn 0.53557825 0.73332447 -0.41879737
vn 0.25314805 0.77605116 0.5776336
vn 0.90004814 0.42191452 0.10909412
g Cube_0
f 3/3/3 2/2/2 1/1/1
f 4/4/4 3/3/3 1/1/1
f 5/5/5 4/4/4 1/1/1
f 6/6/6 5/5/5 1/1/1
f 9/9/9 8/8/8 7/7/7
f 10/10/10 9/9/9 7/7/7
f 10/10/10 11/11/11 9/9/9
f 11/11/11 12/12/12 9/9/9
f 15/15/15 14/14/14 13/13/13
f 14/14/14 16/16/16 13/13/13
f 14/14/14 17/17/17 16/16/16
f 17/17/17 18/18/18 16/16/16
f 21/21/21 20/20/20 19/19/19
f 20/20/20 22/22/22 19/19/19
f 20/20/20 23/23/23 22/22/22
f 23/23/23 24/24/24 22/22/22
f 23/23/23 25/25/25 24/24/24
f 25/25/25 26/26/26 24/24/24
f 25/25/25 27/27/27 26/26/26
f 27/27/27 28/28/28 26/26/26
f 27/27/27 29/29/29 28/28/28
f 29/29/29 30/30/30 28/28/28
f 33/33/33 32/32/32 31/31/31
f 32/32/32 34/34/34 31/31/31
f 32/32/32 35/35/35 34/34/34
f 35/35/35 36/36/36 34/34/34
f 35/35/35 37/37/37 36/36/36
f 37/37/37 38/38/38 36/36/36
f 41/41/41 40/40/40 39/39/39
f 40/40/40 42/42/42 39/39/39
f 39/39/39 42/42/42 43/43/43
f 42/42/42 44/44/44 43/43/43
f 47/47/47 46/46/46 45/45/45
f 48/48/48 47/47/47 45/45/45
f 48/48/48 45/45/45 49/49/49
f 50/50/50 48/48/48 49/49/49
f 50/50/50 49/49/49 51/51/51
f 52/52/52 50/50/50 51/51/51
f 55/55/55 54/54/54 53/53/53
f 56/56/56 55/55/55 53/53/53
f 56/56/56 53/53/53 57/57/57
f 58/58/58 56/56/56 57/57/57
f 58/58/58 57/57/57 59/59/59
f 60/60/60 58/58/58 59/59/59
f 63/63/63 62/62/62 61/61/61
f 64/64/64 63/63/63 61/61/61
f 67/67/67 66/66/66 65/65/65
f 68/68/68 67/67/67 65/65/65
f 71/71/71 70/70/70 69/69/69
f 72/72/72 71/71/71 69/69/69
f 73/73/73 71/71/71 72/72/72
f 74/74/74 73/73/73 72/72/72
f 77/77/77 76/76/76 75/75/75
f 76/76/76 78/78/78 75/75/75
f 75/75/75 78/78/78 79/79/79
f 78/78/78 80/80/80 79/79/79
f 83/83/83 82/82/82 81/81/81
f 84/84/84 83/83/83 81/81/81
f 87/87/87 86/86/86 85/85/85
f 88/88/88 87/87/87 85/85/85
f 89/89/89 87/87/87 88/88/88
f 90/90/90 89/89/89 88/88/88
f 90/90/90 88/88/88 91/91/91
f 92/92/92 90/90/90 91/91/91
f 92/92/92 91/91/91 93/93/93
f 94/94/94 92/92/92 93/93/93
f 93/93/93 91/91/91 95/95/95
f 91/91/91 96/96/96 95/95/95
f 95/95/95 97/97/97 93/93/93
f 93/93/93 98/98/98 94/94/94
f 97/97/97 98/98/98 93/93/93
f 98/98/98 99/99/99 94/94/94
f 97/97/97 100/100/100 98/98/98
f 98/98/98 101/101/101 99/99/99
f 100/100/100 101/101/101 98/98/98
f 101/101/101 102/102/102 99/99/99
f 100/100/100 103/103/103 101/101/101
f 101/101/101 104/104/104 102/102/102
f 103/103/103 104/104/104 101/101/101
f 104/104/104 105/105/105 102/102/102
f 103/103/103 106/106/106 104/104/104
f 104/104/104 107/107/107 105/105/105
f 106/106/106 107/107/107 104/104/104
f 107/107/107 108/108/108 105/105/105
f 106/106/106 109/109/109 107/107/107
f 107/107/107 110/110/110 108/108/108
f 109/109/109 110/110/110 107/107/107
f 110/110/110 111/111/111 108/108/108
f 109/109/109 112/112/112 110/110/110
f 110/110/110 113/113/113 111/111/111
f 112/112/112 113/113/113 110/110/110
f 113/113/113 114/114/114 111/111/111
f 112/112/112 115/115/115 113/113/113
f 113/113/113 116/116/116 114/114/114
f 115/115/115 116/116/116 113/113/113
f 116/116/116 117/117/117 114/114/114
f 115/115/115 118/118/118 116/116/116
f 116/116/116 119/119/119 117/117/117
f 118/118/118 119/119/119 116/116/116
f 118/118/118 120/120/120 119/119/119
f 119/119/119 121/121/121 117/117/117
f 120/120/120 122/122/122 119/119/119
f 119/119/119 122/122/122 121/121/121
f 122/122/122 123/123/123 121/121/121
f 126/126/126 125/125/125 124/124/124
f 127/127/127 126/126/126 124/124/124
f 128/128/128 126/126/126 127/127/127
f 127/127/127 124/124/124 129/129/129
f 130/130/130 128/128/128 127/127/127
f 131/131/131 127/127/127 129/129/129
f 130/130/130 127/127/127 131/131/131
f 129/129/129 132/132/132 131/131/131
f 133/133/133 130/130/130 131/131/131
f 132/132/132 134/134/134 131/131/131
f 131/131/131 134/134/134 133/133/133
f 132/132/132 135/135/135 134/134/134
f 134/134/134 136/136/136 133/133/133
f 135/135/135 137/137/137 134/134/134
f 134/134/134 137/137/137 136/136/136
f 135/135/135 138/138/138 137/137/137
f 137/137/137 139/139/139 136/136/136
f 138/138/138 140/140/140 137/137/137
f 137/137/137 140/140/140 139/139/139
f 138/138/138 141/141/141 140/140/140
f 140/140/140 142/142/142 139/139/139
f 141/141/141 143/143/143 140/140/140
f 140/140/140 143/143/143 142/142/142
f 141/141/141 144/144/144 143/143/143
f 143/143/143 145/145/145 142/142/142
f 144/144/144 146/146/146 143/143/143
f 143/143/143 146/146/146 145/145/145
f 144/144/144 147/147/147 146/146/146
f 146/146/146 148/148/148 145/145/145
f 147/147/147 149/149/149 146/146/146
f 146/146/146 149/149/149 148/148/148
f 147/147/147 150/150/150 149/149/149
f 149/149/149 151/151/151 148/148/148
f 150/150/150 152/152/152 149/149/149
f 149/149/149 152/152/152 151/151/151
f 150/150/150 153/153/153 152/152/152
f 152/152/152 154/154/154 151/151/151
f 153/153/153 155/155/155 152/152/152
f 152/152/152 155/155/155 154/154/154
f 153/153/153 156/156/156 155/155/155
f 155/155/155 157/157/157 154/154/154
f 156/156/156 158/158/158 155/155/155
f 155/155/155 158/158/158 157/157/157
f 156/156/156 159/159/159 158/158/158
f 158/158/158 160/160/160 157/157/157
f 159/159/159 161/161/161 158/158/158
f 158/158/158 161/161/161 160/160/160
f 161/161/161 162/162/162 160/160/160
