g Cylinder
v -0 0.21592751 -0.040727746
v 0.15268381 0.15268381 -0.040727746
v 0.15268381 0.15268381 0.040727746
v -0 0.21592751 0.040727746
v 0.15268381 0.15268381 -0.040727746
v 0.21592751 -9.438491E-09 -0.040727746
v 0.21592751 -9.438491E-09 0.040727746
v 0.15268381 0.15268381 0.040727746
v 0.21592751 -9.438491E-09 -0.040727746
v 0.15268381 -0.15268381 -0.040727746
v 0.15268381 -0.15268381 0.040727746
v 0.21592751 -9.438491E-09 0.040727746
v 0.15268381 -0.15268381 -0.040727746
v -1.8876982E-08 -0.21592751 -0.040727746
v -1.8876982E-08 -0.21592751 0.040727746
v 0.15268381 -0.15268381 0.040727746
v -1.8876982E-08 -0.21592751 -0.040727746
v -0.1526838 -0.15268382 -0.040727746
v -0.1526838 -0.15268382 0.040727746
v -1.8876982E-08 -0.21592751 0.040727746
v -0.1526838 -0.15268382 -0.040727746
v -0.21592751 2.5749098E-09 -0.040727746
v -0.21592751 2.5749098E-09 0.040727746
v -0.1526838 -0.15268382 0.040727746
v 0.15268381 0.15268381 0.040727746
v 0.21592751 -9.438491E-09 0.040727746
v 0.15268381 -0.15268381 0.040727746
v -0 0.21592751 0.040727746
v -1.8876982E-08 -0.21592751 0.040727746
v -0.15268382 0.1526838 0.040727746
v -0.1526838 -0.15268382 0.040727746
v -0.21592751 2.5749098E-09 0.040727746
v -0.21592751 2.5749098E-09 -0.040727746
v -0.15268382 0.1526838 -0.040727746
v -0.15268382 0.1526838 0.040727746
v -0.21592751 2.5749098E-09 0.040727746
v -0.15268382 0.1526838 -0.040727746
v -0 0.21592751 -0.040727746
v -0 0.21592751 0.040727746
v -0.15268382 0.1526838 0.040727746
v 0.15268381 -0.15268381 -0.040727746
v 0.21592751 -9.438491E-09 -0.040727746
v 0.15268381 0.15268381 -0.040727746
v -1.8876982E-08 -0.21592751 -0.040727746
v -0 0.21592751 -0.040727746
v -0.15268382 0.1526838 -0.040727746
v -0.1526838 -0.15268382 -0.040727746
v -0.21592751 2.5749098E-09 -0.040727746
v -0.10129174 0.6044302 -0.040727746
v -0.06733701 0.44269222 -0.040727746
v -0.06733701 0.44269222 0.040727746
v -0.10129174 0.6044302 0.040727746
v -0.06733701 0.44269222 -0.040727746
v -0.15769345 0.30431655 -0.040727746
v -0.15769345 0.30431655 0.040727746
v -0.06733701 0.44269222 0.040727746
v -0.15769345 0.30431655 -0.040727746
v -0.31943148 0.2703618 -0.040727746
v -0.31943148 0.2703618 0.040727746
v -0.15769345 0.30431655 0.040727746
v -0.31943148 0.2703618 -0.040727746
v -0.45780718 0.36071828 -0.040727746
v -0.45780718 0.36071828 0.040727746
v -0.31943148 0.2703618 0.040727746
v -0.45780718 0.36071828 -0.040727746
v -0.49176186 0.5224562 -0.040727746
v -0.49176186 0.5224562 0.040727746
v -0.45780718 0.36071828 0.040727746
v -0.49176186 0.5224562 -0.040727746
v -0.40140542 0.6608319 -0.040727746
v -0.40140542 0.6608319 0.040727746
v -0.49176186 0.5224562 0.040727746
v -0.10129174 0.6044302 0.040727746
v -0.06733701 0.44269222 0.040727746
v -0.15769345 0.30431655 0.040727746
v -0.23966745 0.69478667 0.040727746
v -0.31943148 0.2703618 0.040727746
v -0.40140542 0.6608319 0.040727746
v -0.45780718 0.36071828 0.040727746
v -0.49176186 0.5224562 0.040727746
v -0.40140542 0.6608319 -0.040727746
v -0.23966745 0.69478667 -0.040727746
v -0.23966745 0.69478667 0.040727746
v -0.40140542 0.6608319 0.040727746
v -0.23966745 0.69478667 -0.040727746
v -0.10129174 0.6044302 -0.040727746
v -0.10129174 0.6044302 0.040727746
v -0.23966745 0.69478667 0.040727746
v -0.15769345 0.30431655 -0.040727746
v -0.06733701 0.44269222 -0.040727746
v -0.10129174 0.6044302 -0.040727746
v -0.23966745 0.69478667 -0.040727746
v -0.31943148 0.2703618 -0.040727746
v -0.40140542 0.6608319 -0.040727746
v -0.45780718 0.36071828 -0.040727746
v -0.49176186 0.5224562 -0.040727746
v -0.12506044 0.114456624 0.04110837
v -0.1807877 -0.03816705 0.010899212
v -0.19235736 -0.049736686 0.09069447
v -0.13663007 0.10288697 0.12090362
v -0.1807877 -0.03816705 0.010899212
v -0.32894847 -0.10445225 -0.02019368
v -0.34051812 -0.1160219 0.05960157
v -0.19235736 -0.049736686 0.09069447
v -0.32894847 -0.10445225 -0.02019368
v -0.48275214 -0.04557001 -0.033956505
v -0.49432182 -0.057139665 0.04583874
v -0.34051812 -0.1160219 0.05960157
v -0.48275214 -0.04557001 -0.033956505
v -0.55210257 0.10398726 -0.022327188
v -0.56367236 0.09241761 0.057468064
v -0.49432182 -0.057139665 0.04583874
v -0.55210257 0.10398726 -0.022327188
v -0.4963754 0.2566109 0.007881963
v -0.50794506 0.24504128 0.08767721
v -0.56367236 0.09241761 0.057468064
v -0.4963754 0.2566109 0.007881963
v -0.3482147 0.32289606 0.03897485
v -0.35978433 0.31132644 0.1187701
v -0.50794506 0.24504128 0.08767721
v -0.20598061 0.25244433 0.13253292
v -0.13663007 0.10288697 0.12090362
v -0.19235736 -0.049736686 0.09069447
v -0.34051812 -0.1160219 0.05960157
v -0.35978433 0.31132644 0.1187701
v -0.49432182 -0.057139665 0.04583874
v -0.50794506 0.24504128 0.08767721
v -0.56367236 0.09241761 0.057468064
v -0.3482147 0.32289606 0.03897485
v -0.194411 0.26401395 0.05273769
v -0.20598061 0.25244433 0.13253292
v -0.35978433 0.31132644 0.1187701
v -0.194411 0.26401395 0.05273769
v -0.12506044 0.114456624 0.04110837
v -0.13663007 0.10288697 0.12090362
v -0.20598061 0.25244433 0.13253292
v -0.1807877 -0.03816705 0.010899212
v -0.12506044 0.114456624 0.04110837
v -0.194411 0.26401395 0.05273769
v -0.32894847 -0.10445225 -0.02019368
v -0.3482147 0.32289606 0.03897485
v -0.48275214 -0.04557001 -0.033956505
v -0.4963754 0.2566109 0.007881963
v -0.55210257 0.10398726 -0.022327188
v 0.30136123 -1.1266261 -0.040727746
v 0.27899653 -1.2903696 -0.040727746
v 0.27899653 -1.2903696 0.040727746
v 0.30136123 -1.1266261 0.040727746
v 0.27899653 -1.2903696 -0.040727746
v 0.1473982 -1.3903396 -0.040727746
v 0.1473982 -1.3903396 0.040727746
v 0.27899653 -1.2903696 0.040727746
v 0.1473982 -1.3903396 -0.040727746
v -0.016345246 -1.3679749 -0.040727746
v -0.016345246 -1.3679749 0.040727746
v 0.1473982 -1.3903396 0.040727746
v -0.016345246 -1.3679749 -0.040727746
v -0.116315246 -1.2363765 -0.040727746
v -0.116315246 -1.2363765 0.040727746
v -0.016345246 -1.3679749 0.040727746
v -0.116315246 -1.2363765 -0.040727746
v -0.093950614 -1.072633 -0.040727746
v -0.093950614 -1.072633 0.040727746
v -0.116315246 -1.2363765 0.040727746
v -0.093950614 -1.072633 -0.040727746
v 0.037647802 -0.97266304 -0.040727746
v 0.037647802 -0.97266304 0.040727746
v -0.093950614 -1.072633 0.040727746
v 0.20139126 -0.9950277 0.040727746
v 0.30136123 -1.1266261 0.040727746
v 0.27899653 -1.2903696 0.040727746
v 0.1473982 -1.3903396 0.040727746
v 0.037647802 -0.97266304 0.040727746
v -0.016345246 -1.3679749 0.040727746
v -0.093950614 -1.072633 0.040727746
v -0.116315246 -1.2363765 0.040727746
v 0.037647802 -0.97266304 -0.040727746
v 0.20139126 -0.9950277 -0.040727746
v 0.20139126 -0.9950277 0.040727746
v 0.037647802 -0.97266304 0.040727746
v 0.20139126 -0.9950277 -0.040727746
v 0.30136123 -1.1266261 -0.040727746
v 0.30136123 -1.1266261 0.040727746
v 0.20139126 -0.9950277 0.040727746
v 0.27899653 -1.2903696 -0.040727746
v 0.30136123 -1.1266261 -0.040727746
v 0.20139126 -0.9950277 -0.040727746
v 0.1473982 -1.3903396 -0.040727746
v 0.037647802 -0.97266304 -0.040727746
v -0.016345246 -1.3679749 -0.040727746
v -0.093950614 -1.072633 -0.040727746
v -0.116315246 -1.2363765 -0.040727746
v 1.110862 1.2417103 -0.040727746
v 1.25976 1.1700063 -0.040727746
v 1.25976 1.1700063 0.040727746
v 1.110862 1.2417103 0.040727746
v 1.25976 1.1700063 -0.040727746
v 1.3143445 1.014017 -0.040727746
v 1.3143445 1.014017 0.040727746
v 1.25976 1.1700063 0.040727746
v 1.3143445 1.014017 -0.040727746
v 1.2426405 0.865119 -0.040727746
v 1.2426405 0.865119 0.040727746
v 1.3143445 1.014017 0.040727746
v 1.2426405 0.865119 -0.040727746
v 1.0866512 0.8105344 -0.040727746
v 1.0866512 0.8105344 0.040727746
v 1.2426405 0.865119 0.040727746
v 1.0866512 0.8105344 -0.040727746
v 0.9377531 0.8822384 -0.040727746
v 0.9377531 0.8822384 0.040727746
v 1.0866512 0.8105344 0.040727746
v 0.9377531 0.8822384 -0.040727746
v 0.8831687 1.0382276 -0.040727746
v 0.8831687 1.0382276 0.040727746
v 0.9377531 0.8822384 0.040727746
v 1.25976 1.1700063 0.040727746
v 1.3143445 1.014017 0.040727746
v 1.2426405 0.865119 0.040727746
v 1.110862 1.2417103 0.040727746
v 1.0866512 0.8105344 0.040727746
v 0.9548726 1.1871258 0.040727746
v 0.9377531 0.8822384 0.040727746
v 0.8831687 1.0382276 0.040727746
v 0.8831687 1.0382276 -0.040727746
v 0.9548726 1.1871258 -0.040727746
v 0.9548726 1.1871258 0.040727746
v 0.8831687 1.0382276 0.040727746
v 0.9548726 1.1871258 -0.040727746
v 1.110862 1.2417103 -0.040727746
v 1.110862 1.2417103 0.040727746
v 0.9548726 1.1871258 0.040727746
v 1.2426405 0.865119 -0.040727746
v 1.3143445 1.014017 -0.040727746
v 1.25976 1.1700063 -0.040727746
v 1.110862 1.2417103 -0.040727746
v 1.0866512 0.8105344 -0.040727746
v 0.9548726 1.1871258 -0.040727746
v 0.9377531 0.8822384 -0.040727746
v 0.8831687 1.0382276 -0.040727746
v -0.18200137 3.0090733 -0.040727746
v -0.03310332 2.937369 -0.040727746
v -0.03310332 2.937369 0.040727746
v -0.18200137 3.0090733 0.040727746
v -0.03310332 2.937369 -0.040727746
v 0.021481197 2.7813802 -0.040727746
v 0.021481197 2.7813802 0.040727746
v -0.03310332 2.937369 0.040727746
v 0.021481197 2.7813802 -0.040727746
v -0.050222855 2.6324818 -0.040727746
v -0.050222855 2.6324818 0.040727746
v 0.021481197 2.7813802 0.040727746
v -0.050222855 2.6324818 -0.040727746
v -0.20621212 2.5778973 -0.040727746
v -0.20621212 2.5778973 0.040727746
v -0.050222855 2.6324818 0.040727746
v -0.20621212 2.5778973 -0.040727746
v -0.35511023 2.6496017 -0.040727746
v -0.35511023 2.6496017 0.040727746
v -0.20621212 2.5778973 0.040727746
v -0.35511023 2.6496017 -0.040727746
v -0.40969464 2.8055906 -0.040727746
v -0.40969464 2.8055906 0.040727746
v -0.35511023 2.6496017 0.040727746
v -0.03310332 2.937369 0.040727746
v 0.021481197 2.7813802 0.040727746
v -0.050222855 2.6324818 0.040727746
v -0.18200137 3.0090733 0.040727746
v -0.20621212 2.5778973 0.040727746
v -0.3379907 2.954489 0.040727746
v -0.35511023 2.6496017 0.040727746
v -0.40969464 2.8055906 0.040727746
v -0.40969464 2.8055906 -0.040727746
v -0.3379907 2.954489 -0.040727746
v -0.3379907 2.954489 0.040727746
v -0.40969464 2.8055906 0.040727746
v -0.3379907 2.954489 -0.040727746
v -0.18200137 3.0090733 -0.040727746
v -0.18200137 3.0090733 0.040727746
v -0.3379907 2.954489 0.040727746
v -0.050222855 2.6324818 -0.040727746
v 0.021481197 2.7813802 -0.040727746
v -0.03310332 2.937369 -0.040727746
v -0.18200137 3.0090733 -0.040727746
v -0.20621212 2.5778973 -0.040727746
v -0.3379907 2.954489 -0.040727746
v -0.35511023 2.6496017 -0.040727746
v -0.40969464 2.8055906 -0.040727746
v -1.771903 1.1015869 -0.040727746
v -1.8989155 0.9958518 -0.040727746
v -1.8989155 0.9958518 0.040727746
v -1.771903 1.1015869 0.040727746
v -1.8989155 0.9958518 -0.040727746
v -2.063493 1.010897 -0.040727746
v -2.063493 1.010897 0.040727746
v -1.8989155 0.9958518 0.040727746
v -2.063493 1.010897 -0.040727746
v -2.169228 1.1379095 -0.040727746
v -2.169228 1.1379095 0.040727746
v -2.063493 1.010897 0.040727746
v -2.169228 1.1379095 -0.040727746
v -2.154183 1.3024871 -0.040727746
v -2.154183 1.3024871 0.040727746
v -2.169228 1.1379095 0.040727746
v -2.154183 1.3024871 -0.040727746
v -2.0271704 1.4082223 -0.040727746
v -2.0271704 1.4082223 0.040727746
v -2.154183 1.3024871 0.040727746
v -2.0271704 1.4082223 -0.040727746
v -1.8625928 1.393177 -0.040727746
v -1.8625928 1.393177 0.040727746
v -2.0271704 1.4082223 0.040727746
v -1.8625928 1.393177 0.040727746
v -1.7568576 1.2661645 0.040727746
v -1.771903 1.1015869 0.040727746
v -1.8989155 0.9958518 0.040727746
v -2.0271704 1.4082223 0.040727746
v -2.063493 1.010897 0.040727746
v -2.154183 1.3024871 0.040727746
v -2.169228 1.1379095 0.040727746
v -1.8625928 1.393177 -0.040727746
v -1.7568576 1.2661645 -0.040727746
v -1.7568576 1.2661645 0.040727746
v -1.8625928 1.393177 0.040727746
v -1.7568576 1.2661645 -0.040727746
v -1.771903 1.1015869 -0.040727746
v -1.771903 1.1015869 0.040727746
v -1.7568576 1.2661645 0.040727746
v -1.771903 1.1015869 -0.040727746
v -1.7568576 1.2661645 -0.040727746
v -1.8625928 1.393177 -0.040727746
v -1.8989155 0.9958518 -0.040727746
v -2.0271704 1.4082223 -0.040727746
v -2.063493 1.010897 -0.040727746
v -2.154183 1.3024871 -0.040727746
v -2.169228 1.1379095 -0.040727746
v -1.6496115 0.9947745 -0.040727746
v -1.4925995 0.9432062 -0.040727746
v -1.4925995 0.9432062 0.040727746
v -1.6496115 0.9947745 0.040727746
v -1.4925995 0.9432062 -0.040727746
v -1.4180394 0.79571736 -0.040727746
v -1.4180394 0.79571736 0.040727746
v -1.4925995 0.9432062 0.040727746
v -1.4180394 0.79571736 -0.040727746
v -1.469608 0.6387054 -0.040727746
v -1.469608 0.6387054 0.040727746
v -1.4180394 0.79571736 0.040727746
v -1.469608 0.6387054 -0.040727746
v -1.6170967 0.5641454 -0.040727746
v -1.6170967 0.5641454 0.040727746
v -1.469608 0.6387054 0.040727746
v -1.6170967 0.5641454 -0.040727746
v -1.7741088 0.6157136 -0.040727746
v -1.7741088 0.6157136 0.040727746
v -1.6170967 0.5641454 0.040727746
v -1.7741088 0.6157136 -0.040727746
v -1.8486688 0.7632024 -0.040727746
v -1.8486688 0.7632024 0.040727746
v -1.7741088 0.6157136 0.040727746
v -1.4925995 0.9432062 0.040727746
v -1.4180394 0.79571736 0.040727746
v -1.469608 0.6387054 0.040727746
v -1.6170967 0.5641454 0.040727746
v -1.6496115 0.9947745 0.040727746
v -1.7741088 0.6157136 0.040727746
v -1.7971004 0.9202146 0.040727746
v -1.8486688 0.7632024 0.040727746
v -1.8486688 0.7632024 -0.040727746
v -1.7971004 0.9202146 -0.040727746
v -1.7971004 0.9202146 0.040727746
v -1.8486688 0.7632024 0.040727746
v -1.7971004 0.9202146 -0.040727746
v -1.6496115 0.9947745 -0.040727746
v -1.6496115 0.9947745 0.040727746
v -1.7971004 0.9202146 0.040727746
v -1.469608 0.6387054 -0.040727746
v -1.4180394 0.79571736 -0.040727746
v -1.4925995 0.9432062 -0.040727746
v -1.6170967 0.5641454 -0.040727746
v -1.6496115 0.9947745 -0.040727746
v -1.7741088 0.6157136 -0.040727746
v -1.7971004 0.9202146 -0.040727746
v -1.8486688 0.7632024 -0.040727746
v -1.0589983 -0.71568274 0.09752556
v -0.90198636 -0.7672511 0.09752556
v -0.90198636 -0.7672511 0.17898107
v -1.0589983 -0.71568274 0.17898107
v -0.90198636 -0.7672511 0.09752556
v -0.8274263 -0.9147399 0.09752556
v -0.8274263 -0.9147399 0.17898107
v -0.90198636 -0.7672511 0.17898107
v -0.8274263 -0.9147399 0.09752556
v -0.8789948 -1.0717518 0.09752556
v -0.8789948 -1.0717518 0.17898107
v -0.8274263 -0.9147399 0.17898107
v -0.8789948 -1.0717518 0.09752556
v -1.0264835 -1.1463119 0.09752556
v -1.0264835 -1.1463119 0.17898107
v -0.8789948 -1.0717518 0.17898107
v -1.0264835 -1.1463119 0.09752556
v -1.1834956 -1.0947436 0.09752556
v -1.1834956 -1.0947436 0.17898107
v -1.0264835 -1.1463119 0.17898107
v -1.1834956 -1.0947436 0.09752556
v -1.2580556 -0.94725484 0.09752556
v -1.2580556 -0.94725484 0.17898107
v -1.1834956 -1.0947436 0.17898107
v -0.90198636 -0.7672511 0.17898107
v -0.8274263 -0.9147399 0.17898107
v -0.8789948 -1.0717518 0.17898107
v -1.0264835 -1.1463119 0.17898107
v -1.0589983 -0.71568274 0.17898107
v -1.1834956 -1.0947436 0.17898107
v -1.2064872 -0.7902427 0.17898107
v -1.2580556 -0.94725484 0.17898107
v -1.2580556 -0.94725484 0.09752556
v -1.2064872 -0.7902427 0.09752556
v -1.2064872 -0.7902427 0.17898107
v -1.2580556 -0.94725484 0.17898107
v -1.2064872 -0.7902427 0.09752556
v -1.0589983 -0.71568274 0.09752556
v -1.0589983 -0.71568274 0.17898107
v -1.2064872 -0.7902427 0.17898107
v -0.8789948 -1.0717518 0.09752556
v -0.8274263 -0.9147399 0.09752556
v -0.90198636 -0.7672511 0.09752556
v -1.0264835 -1.1463119 0.09752556
v -1.0589983 -0.71568274 0.09752556
v -1.1834956 -1.0947436 0.09752556
v -1.2064872 -0.7902427 0.09752556
v -1.2580556 -0.94725484 0.09752556
v 0.3690256 -0.96679205 0.0049908278
v 0.5196059 -1.0183604 -0.03948771
v 0.54268074 -1.0183604 0.038631137
v 0.39210036 -0.96679205 0.08310966
v 0.5196059 -1.0183604 -0.03948771
v 0.5911117 -1.1658492 -0.06060915
v 0.6141866 -1.1658492 0.017509686
v 0.54268074 -1.0183604 0.038631137
v 0.5911117 -1.1658492 -0.06060915
v 0.5416556 -1.3228612 -0.046000767
v 0.5647304 -1.3228612 0.032118056
v 0.6141866 -1.1658492 0.017509686
v 0.5416556 -1.3228612 -0.046000767
v 0.40020853 -1.3974212 -0.004220016
v 0.42328337 -1.3974212 0.07389882
v 0.5647304 -1.3228612 0.032118056
v 0.40020853 -1.3974212 -0.004220016
v 0.24962814 -1.3458529 0.040258538
v 0.2727029 -1.3458529 0.118377365
v 0.42328337 -1.3974212 0.07389882
v 0.24962814 -1.3458529 0.040258538
v 0.17812236 -1.1983641 0.06137997
v 0.20119715 -1.1983641 0.13949881
v 0.2727029 -1.3458529 0.118377365
v 0.54268074 -1.0183604 0.038631137
v 0.6141866 -1.1658492 0.017509686
v 0.5647304 -1.3228612 0.032118056
v 0.42328337 -1.3974212 0.07389882
v 0.39210036 -0.96679205 0.08310966
v 0.2727029 -1.3458529 0.118377365
v 0.25065318 -1.0413519 0.124890454
v 0.20119715 -1.1983641 0.13949881
v 0.17812236 -1.1983641 0.06137997
v 0.22757836 -1.0413519 0.046771616
v 0.25065318 -1.0413519 0.124890454
v 0.20119715 -1.1983641 0.13949881
v 0.22757836 -1.0413519 0.046771616
v 0.3690256 -0.96679205 0.0049908278
v 0.39210036 -0.96679205 0.08310966
v 0.25065318 -1.0413519 0.124890454
v 0.5416556 -1.3228612 -0.046000767
v 0.5911117 -1.1658492 -0.06060915
v 0.5196059 -1.0183604 -0.03948771
v 0.40020853 -1.3974212 -0.004220016
v 0.3690256 -0.96679205 0.0049908278
v 0.24962814 -1.3458529 0.040258538
v 0.22757836 -1.0413519 0.046771616
v 0.17812236 -1.1983641 0.06137997
v 1.9771163 -0.26919854 -0.040727746
v 2.1260147 -0.34090248 -0.040727746
v 2.1260147 -0.34090248 0.040727746
v 1.9771163 -0.26919854 0.040727746
v 2.1260147 -0.34090248 -0.040727746
v 2.180599 -0.4968917 -0.040727746
v 2.180599 -0.4968917 0.040727746
v 2.1260147 -0.34090248 0.040727746
v 2.180599 -0.4968917 -0.040727746
v 2.1088948 -0.6457898 -0.040727746
v 2.1088948 -0.6457898 0.040727746
v 2.180599 -0.4968917 0.040727746
v 2.1088948 -0.6457898 -0.040727746
v 1.9529058 -0.7003743 -0.040727746
v 1.9529058 -0.7003743 0.040727746
v 2.1088948 -0.6457898 0.040727746
v 1.9529058 -0.7003743 -0.040727746
v 1.8040075 -0.62867033 -0.040727746
v 1.8040075 -0.62867033 0.040727746
v 1.9529058 -0.7003743 0.040727746
v 1.8040075 -0.62867033 -0.040727746
v 1.7494231 -0.4726811 -0.040727746
v 1.7494231 -0.4726811 0.040727746
v 1.8040075 -0.62867033 0.040727746
v 2.1260147 -0.34090248 0.040727746
v 2.180599 -0.4968917 0.040727746
v 2.1088948 -0.6457898 0.040727746
v 1.9771163 -0.26919854 0.040727746
v 1.9529058 -0.7003743 0.040727746
v 1.821127 -0.32378295 0.040727746
v 1.8040075 -0.62867033 0.040727746
v 1.7494231 -0.4726811 0.040727746
v 1.7494231 -0.4726811 -0.040727746
v 1.821127 -0.32378295 -0.040727746
v 1.821127 -0.32378295 0.040727746
v 1.7494231 -0.4726811 0.040727746
v 1.821127 -0.32378295 -0.040727746
v 1.9771163 -0.26919854 -0.040727746
v 1.9771163 -0.26919854 0.040727746
v 1.821127 -0.32378295 0.040727746
v 2.1088948 -0.6457898 -0.040727746
v 2.180599 -0.4968917 -0.040727746
v 2.1260147 -0.34090248 -0.040727746
v 1.9771163 -0.26919854 -0.040727746
v 1.9529058 -0.7003743 -0.040727746
v 1.821127 -0.32378295 -0.040727746
v 1.8040075 -0.62867033 -0.040727746
v 1.7494231 -0.4726811 -0.040727746
v -0.8231014 1.9065102 -0.040727746
v -0.6742034 1.8348062 -0.040727746
v -0.6742034 1.8348062 0.040727746
v -0.8231014 1.9065102 0.040727746
v -0.6742034 1.8348062 -0.040727746
v -0.61961883 1.6788169 -0.040727746
v -0.61961883 1.6788169 0.040727746
v -0.6742034 1.8348062 0.040727746
v -0.61961883 1.6788169 -0.040727746
v -0.6913229 1.5299189 -0.040727746
v -0.6913229 1.5299189 0.040727746
v -0.61961883 1.6788169 0.040727746
v -0.6913229 1.5299189 -0.040727746
v -0.84731215 1.4753343 -0.040727746
v -0.84731215 1.4753343 0.040727746
v -0.6913229 1.5299189 0.040727746
v -0.84731215 1.4753343 -0.040727746
v -0.99621034 1.5470383 -0.040727746
v -0.99621034 1.5470383 0.040727746
v -0.84731215 1.4753343 0.040727746
v -0.99621034 1.5470383 -0.040727746
v -1.0507947 1.7030275 -0.040727746
v -1.0507947 1.7030275 0.040727746
v -0.99621034 1.5470383 0.040727746
v -0.6742034 1.8348062 0.040727746
v -0.61961883 1.6788169 0.040727746
v -0.6913229 1.5299189 0.040727746
v -0.8231014 1.9065102 0.040727746
v -0.84731215 1.4753343 0.040727746
v -0.9790908 1.8519257 0.040727746
v -0.99621034 1.5470383 0.040727746
v -1.0507947 1.7030275 0.040727746
v -1.0507947 1.7030275 -0.040727746
v -0.9790908 1.8519257 -0.040727746
v -0.9790908 1.8519257 0.040727746
v -1.0507947 1.7030275 0.040727746
v -0.9790908 1.8519257 -0.040727746
v -0.8231014 1.9065102 -0.040727746
v -0.8231014 1.9065102 0.040727746
v -0.9790908 1.8519257 0.040727746
v -0.6913229 1.5299189 -0.040727746
v -0.61961883 1.6788169 -0.040727746
v -0.6742034 1.8348062 -0.040727746
v -0.8231014 1.9065102 -0.040727746
v -0.84731215 1.4753343 -0.040727746
v -0.9790908 1.8519257 -0.040727746
v -0.99621034 1.5470383 -0.040727746
v -1.0507947 1.7030275 -0.040727746
vt 0.7866211 0.004055023
vt 0.74853516 0.004096985
vt 0.74853516 0.11102295
vt 0.7866211 0.110961914
vt 0.38867188 0.61816406
vt 0.3515625 0.61328125
vt 0.3515625 0.7158203
vt 0.38867188 0.7207031
vt 0.3515625 0.61328125
vt 0.31298828 0.6171875
vt 0.31298828 0.71972656
vt 0.3515625 0.7158203
vt 0.004055023 0.82421875
vt 0.04147339 0.82421875
vt 0.04147339 0.71728516
vt 0.004055023 0.71728516
vt 0.04147339 0.82421875
vt 0.07965088 0.82421875
vt 0.07965088 0.71728516
vt 0.04147339 0.71728516
vt 0.6958008 0.5517578
vt 0.73291016 0.55126953
vt 0.73291016 0.44433594
vt 0.6958008 0.44458008
vt 0.39868164 0.6201172
vt 0.42773438 0.64941406
vt 0.46875 0.64941406
vt 0.39868164 0.57958984
vt 0.4975586 0.6201172
vt 0.42773438 0.55029297
vt 0.4975586 0.57958984
vt 0.46875 0.55029297
vt 0.73291016 0.55126953
vt 0.7709961 0.55126953
vt 0.7709961 0.44458008
vt 0.73291016 0.44433594
vt 0.82421875 0.0041007996
vt 0.7866211 0.004055023
vt 0.7866211 0.110961914
vt 0.82421875 0.11102295
vt 0.5756836 0.55029297
vt 0.53466797 0.55029297
vt 0.5058594 0.57958984
vt 0.6044922 0.57958984
vt 0.5058594 0.6201172
vt 0.53466797 0.64941406
vt 0.6044922 0.6201172
vt 0.5756836 0.64941406
vt 0.23010254 0.71875
vt 0.2697754 0.7216797
vt 0.2697754 0.6191406
vt 0.23010254 0.61621094
vt 0.2697754 0.7216797
vt 0.30493164 0.7158203
vt 0.30493164 0.61328125
vt 0.2697754 0.6191406
vt 0.86328125 0.66748047
vt 0.90283203 0.66748047
vt 0.90283203 0.5605469
vt 0.86328125 0.5605469
vt 0.90283203 0.66748047
vt 0.9375 0.66748047
vt 0.9375 0.5605469
vt 0.90283203 0.5605469
vt 0.86279297 0.55126953
vt 0.90234375 0.55126953
vt 0.90234375 0.44433594
vt 0.86279297 0.44458008
vt 0.90234375 0.55126953
vt 0.9379883 0.5517578
vt 0.9379883 0.44482422
vt 0.90234375 0.44433594
vt 0.55810547 0.073913574
vt 0.58691406 0.10284424
vt 0.6279297 0.10284424
vt 0.55810547 0.032989502
vt 0.6567383 0.073913574
vt 0.58691406 0.004055023
vt 0.6567383 0.032989502
vt 0.6279297 0.004055023
vt 0.86328125 0.78271484
vt 0.90283203 0.78271484
vt 0.90283203 0.67578125
vt 0.86328125 0.67578125
vt 0.90283203 0.78271484
vt 0.9375 0.78271484
vt 0.9375 0.67578125
vt 0.90283203 0.67578125
vt 0.073913574 0.61035156
vt 0.032989502 0.61035156
vt 0.004055023 0.63916016
vt 0.004055023 0.6801758
vt 0.10284424 0.63916016
vt 0.032989502 0.7089844
vt 0.10284424 0.6801758
vt 0.073913574 0.7089844
vt 0.40625 0.037628174
vt 0.36669922 0.004055023
vt 0.36669922 0.105407715
vt 0.40625 0.13891602
vt 0.390625 0.2866211
vt 0.35327148 0.24694824
vt 0.35327148 0.35180664
vt 0.390625 0.39160156
vt 0.35327148 0.24694824
vt 0.31445312 0.2298584
vt 0.31445312 0.3347168
vt 0.35327148 0.35180664
vt 0.117004395 0.43359375
vt 0.15356445 0.41870117
vt 0.15356445 0.31396484
vt 0.117004395 0.32861328
vt 0.15356445 0.41870117
vt 0.19311523 0.38061523
vt 0.19311523 0.27563477
vt 0.15356445 0.31396484
vt 0.30639648 0.2298584
vt 0.26904297 0.26953125
vt 0.26904297 0.37451172
vt 0.30639648 0.3347168
vt 0.70947266 0.29907227
vt 0.70947266 0.25830078
vt 0.68115234 0.2298584
vt 0.6411133 0.23034668
vt 0.68115234 0.32836914
vt 0.61279297 0.25952148
vt 0.6411133 0.32885742
vt 0.61279297 0.3005371
vt 0.26904297 0.26953125
vt 0.23010254 0.2866211
vt 0.23010254 0.39160156
vt 0.26904297 0.37451172
vt 0.4428711 0.056518555
vt 0.40625 0.037628174
vt 0.40625 0.13891602
vt 0.4428711 0.15783691
vt 0.6411133 0.33691406
vt 0.61279297 0.36547852
vt 0.61279297 0.40625
vt 0.68115234 0.33764648
vt 0.6411133 0.43554688
vt 0.70947266 0.36669922
vt 0.68115234 0.43603516
vt 0.70947266 0.40771484
vt 0.044830322 0.83251953
vt 0.004055023 0.8334961
vt 0.004055023 0.93603516
vt 0.044830322 0.9350586
vt 0.8852539 0.33691406
vt 0.9169922 0.33666992
vt 0.9169922 0.2298584
vt 0.8852539 0.2298584
vt 0.9169922 0.33666992
vt 0.95751953 0.33666992
vt 0.95751953 0.2298584
vt 0.9169922 0.2298584
vt 0.91552734 0.1116333
vt 0.94677734 0.110961914
vt 0.94677734 0.004055023
vt 0.91552734 0.004749298
vt 0.94677734 0.110961914
vt 0.98779297 0.11102295
vt 0.98779297 0.0041503906
vt 0.94677734 0.004055023
vt 0.30200195 0.84521484
vt 0.27001953 0.84472656
vt 0.27001953 0.95166016
vt 0.30200195 0.95214844
vt 0.6044922 0.40649414
vt 0.6044922 0.36572266
vt 0.5756836 0.33666992
vt 0.53466797 0.33666992
vt 0.5756836 0.43554688
vt 0.5058594 0.36572266
vt 0.53466797 0.43554688
vt 0.5058594 0.40649414
vt 0.27001953 0.84472656
vt 0.22937012 0.84521484
vt 0.22937012 0.95166016
vt 0.27001953 0.95166016
vt 0.07611084 0.83984375
vt 0.044830322 0.83251953
vt 0.044830322 0.9350586
vt 0.07611084 0.9423828
vt 0.117004395 0.61816406
vt 0.14587402 0.64746094
vt 0.18676758 0.64746094
vt 0.117004395 0.5776367
vt 0.21569824 0.61816406
vt 0.14587402 0.54833984
vt 0.21569824 0.5776367
vt 0.18676758 0.54833984
vt 0.8178711 0.66748047
vt 0.85498047 0.66748047
vt 0.85498047 0.5605469
vt 0.8178711 0.5605469
vt 0.6958008 0.7788086
vt 0.73339844 0.78271484
vt 0.73339844 0.6801758
vt 0.6958008 0.67578125
vt 0.73339844 0.78271484
vt 0.7714844 0.7783203
vt 0.7714844 0.67578125
vt 0.73339844 0.6801758
vt 0.7792969 0.55126953
vt 0.8173828 0.55126953
vt 0.8173828 0.44433594
vt 0.7792969 0.44433594
vt 0.8173828 0.55126953
vt 0.85498047 0.55126953
vt 0.85498047 0.44433594
vt 0.8173828 0.44433594
vt 0.48242188 0.76464844
vt 0.5205078 0.76416016
vt 0.5205078 0.65722656
vt 0.48242188 0.65771484
vt 0.5756836 0.2298584
vt 0.53466797 0.2298584
vt 0.5058594 0.25878906
vt 0.6044922 0.25878906
vt 0.5058594 0.2998047
vt 0.6044922 0.2998047
vt 0.53466797 0.32861328
vt 0.5756836 0.32861328
vt 0.5205078 0.76416016
vt 0.55810547 0.76464844
vt 0.55810547 0.65771484
vt 0.5205078 0.65722656
vt 0.7792969 0.66748047
vt 0.8178711 0.66748047
vt 0.8178711 0.5605469
vt 0.7792969 0.5605469
vt 0.4975586 0.36572266
vt 0.46875 0.33666992
vt 0.42773438 0.33666992
vt 0.39868164 0.36572266
vt 0.4975586 0.40649414
vt 0.39868164 0.40649414
vt 0.46875 0.43554688
vt 0.42773438 0.43554688
vt 0.15527344 0.8779297
vt 0.19250488 0.8779297
vt 0.19250488 0.7709961
vt 0.15527344 0.7709961
vt 0.6958008 0.6635742
vt 0.73339844 0.66748047
vt 0.73339844 0.5649414
vt 0.6958008 0.5605469
vt 0.73339844 0.66748047
vt 0.7714844 0.66308594
vt 0.7714844 0.5605469
vt 0.73339844 0.5649414
vt 0.7792969 0.78271484
vt 0.8178711 0.78271484
vt 0.8178711 0.67578125
vt 0.7792969 0.67578125
vt 0.8178711 0.78271484
vt 0.85498047 0.78271484
vt 0.85498047 0.67578125
vt 0.8178711 0.67578125
vt 0.66503906 0.111328125
vt 0.7026367 0.110961914
vt 0.7026367 0.004055023
vt 0.66503906 0.004459381
vt 0.5756836 0.54248047
vt 0.6044922 0.5136719
vt 0.6044922 0.47265625
vt 0.53466797 0.54248047
vt 0.5756836 0.44360352
vt 0.5058594 0.5136719
vt 0.53466797 0.44360352
vt 0.5058594 0.47265625
vt 0.7026367 0.110961914
vt 0.7402344 0.111328125
vt 0.7402344 0.00447464
vt 0.7026367 0.004055023
vt 0.117004395 0.8779297
vt 0.15527344 0.8779297
vt 0.15527344 0.7709961
vt 0.117004395 0.7709961
vt 0.32885742 0.5761719
vt 0.32885742 0.53564453
vt 0.30004883 0.50634766
vt 0.2590332 0.50634766
vt 0.30004883 0.60546875
vt 0.23010254 0.53564453
vt 0.2590332 0.60546875
vt 0.23010254 0.5761719
vt 0.39868164 0.9951172
vt 0.4296875 0.9946289
vt 0.4296875 0.8876953
vt 0.39868164 0.8881836
vt 0.4296875 0.9946289
vt 0.47045898 0.9946289
vt 0.47045898 0.8876953
vt 0.4296875 0.8876953
vt 0.48242188 0.99609375
vt 0.5126953 0.9951172
vt 0.5126953 0.8881836
vt 0.48242188 0.88916016
vt 0.5126953 0.9951172
vt 0.55371094 0.9951172
vt 0.55371094 0.8881836
vt 0.5126953 0.8881836
vt 0.18859863 0.8857422
vt 0.15783691 0.8857422
vt 0.15783691 0.9926758
vt 0.18859863 0.9926758
vt 0.15783691 0.8857422
vt 0.117004395 0.8857422
vt 0.117004395 0.9926758
vt 0.15783691 0.9926758
vt 0.30004883 0.49829102
vt 0.32885742 0.46948242
vt 0.32885742 0.4284668
vt 0.30004883 0.3996582
vt 0.2590332 0.49829102
vt 0.2590332 0.3996582
vt 0.23010254 0.46948242
vt 0.23010254 0.4284668
vt 0.3840332 0.8520508
vt 0.3540039 0.8442383
vt 0.3540039 0.94677734
vt 0.3840332 0.95458984
vt 0.3540039 0.8442383
vt 0.31298828 0.84472656
vt 0.31298828 0.9472656
vt 0.3540039 0.94677734
vt 0.4975586 0.5136719
vt 0.4975586 0.47265625
vt 0.46875 0.44360352
vt 0.46875 0.54248047
vt 0.42773438 0.44360352
vt 0.42773438 0.54248047
vt 0.39868164 0.47265625
vt 0.39868164 0.5136719
vt 0.6513672 0.79248047
vt 0.6118164 0.79248047
vt 0.6118164 0.89941406
vt 0.6513672 0.8989258
vt 0.6875 0.56640625
vt 0.65185547 0.5605469
vt 0.65185547 0.66308594
vt 0.6875 0.6689453
vt 0.65185547 0.5605469
vt 0.61279297 0.56347656
vt 0.61279297 0.6665039
vt 0.65185547 0.66308594
vt 0.8623047 0.8979492
vt 0.8984375 0.8979492
vt 0.8984375 0.7910156
vt 0.8623047 0.7910156
vt 0.8984375 0.8979492
vt 0.9379883 0.8979492
vt 0.9379883 0.7910156
vt 0.8984375 0.7910156
vt 0.48242188 0.8803711
vt 0.5180664 0.8798828
vt 0.5180664 0.7729492
vt 0.48242188 0.7734375
vt 0.10284424 0.35961914
vt 0.10284424 0.31860352
vt 0.073913574 0.28979492
vt 0.032989502 0.28979492
vt 0.073913574 0.38842773
vt 0.004055023 0.31860352
vt 0.032989502 0.38842773
vt 0.004055023 0.35961914
vt 0.5180664 0.8798828
vt 0.5576172 0.8798828
vt 0.5576172 0.7729492
vt 0.5180664 0.7729492
vt 0.6870117 0.79248047
vt 0.6513672 0.79248047
vt 0.6513672 0.8989258
vt 0.6870117 0.89941406
vt 0.42773438 0.2298584
vt 0.39868164 0.25878906
vt 0.39868164 0.2998047
vt 0.46875 0.2298584
vt 0.42773438 0.32861328
vt 0.4975586 0.25878906
vt 0.46875 0.32861328
vt 0.4975586 0.2998047
vt 0.7348633 0.7910156
vt 0.6958008 0.7910156
vt 0.6958008 0.8979492
vt 0.7348633 0.8979492
vt 0.6875 0.44995117
vt 0.65185547 0.44433594
vt 0.65185547 0.546875
vt 0.6875 0.5527344
vt 0.65185547 0.44433594
vt 0.61279297 0.44726562
vt 0.61279297 0.5498047
vt 0.65185547 0.546875
vt 0.83203125 0.11102295
vt 0.86816406 0.110961914
vt 0.86816406 0.004055023
vt 0.83203125 0.004108429
vt 0.86816406 0.110961914
vt 0.90771484 0.11102295
vt 0.90771484 0.0040893555
vt 0.86816406 0.004055023
vt 0.7792969 0.8984375
vt 0.8149414 0.8979492
vt 0.8149414 0.7910156
vt 0.7792969 0.7915039
vt 0.5498047 0.13989258
vt 0.5209961 0.110961914
vt 0.47998047 0.110961914
vt 0.45117188 0.13989258
vt 0.5498047 0.18078613
vt 0.45117188 0.18078613
vt 0.5209961 0.2097168
vt 0.47998047 0.2097168
vt 0.8149414 0.8979492
vt 0.8544922 0.8979492
vt 0.8544922 0.7910156
vt 0.8149414 0.7910156
vt 0.7709961 0.7910156
vt 0.7348633 0.7910156
vt 0.7348633 0.8979492
vt 0.7709961 0.8979492
vt 0.47998047 0.10284424
vt 0.5209961 0.10284424
vt 0.5498047 0.073913574
vt 0.45117188 0.073913574
vt 0.5498047 0.032989502
vt 0.45117188 0.032989502
vt 0.5209961 0.004055023
vt 0.47998047 0.004055023
vt 0.23010254 0.15234375
vt 0.23046875 0.22167969
vt 0.2902832 0.13830566
vt 0.29003906 0.06890869
vt 0.10888672 0.038482666
vt 0.07556152 0.004055023
vt 0.06921387 0.10064697
vt 0.10253906 0.13513184
vt 0.07556152 0.004055023
vt 0.03475952 0.022613525
vt 0.028427124 0.11920166
vt 0.06921387 0.10064697
vt 0.35864258 0.22167969
vt 0.35839844 0.15686035
vt 0.29833984 0.07348633
vt 0.29882812 0.13830566
vt 0.35839844 0.15686035
vt 0.35864258 0.08746338
vt 0.29882812 0.004055023
vt 0.29833984 0.07348633
vt 0.21520996 0.1348877
vt 0.18151855 0.16552734
vt 0.18835449 0.26757812
vt 0.22192383 0.23706055
vt 0.10253906 0.13513184
vt 0.06921387 0.10064697
vt 0.028427124 0.11920166
vt 0.004055023 0.17993164
vt 0.10888672 0.20239258
vt 0.010383606 0.24719238
vt 0.084472656 0.26293945
vt 0.043701172 0.28149414
vt 0.18151855 0.16552734
vt 0.14086914 0.14880371
vt 0.14770508 0.25097656
vt 0.18835449 0.26757812
vt 0.23046875 0.08746338
vt 0.23010254 0.15234375
vt 0.29003906 0.06890869
vt 0.2902832 0.004055023
vt 0.19799805 0.020721436
vt 0.15734863 0.004055023
vt 0.1237793 0.034698486
vt 0.22192383 0.07489014
vt 0.117004395 0.09466553
vt 0.21520996 0.1348877
vt 0.14086914 0.14880371
vt 0.18151855 0.16552734
vt 0.26782227 0.83691406
vt 0.30493164 0.83691406
vt 0.30493164 0.72998047
vt 0.26782227 0.72998047
vt 0.6118164 0.77978516
vt 0.64990234 0.7841797
vt 0.64990234 0.6816406
vt 0.6118164 0.6772461
vt 0.64990234 0.7841797
vt 0.6875 0.77978516
vt 0.6875 0.6772461
vt 0.64990234 0.6816406
vt 0.39868164 0.8798828
vt 0.43701172 0.8798828
vt 0.43701172 0.7729492
vt 0.39868164 0.7729492
vt 0.43701172 0.8798828
vt 0.47436523 0.8798828
vt 0.47436523 0.7729492
vt 0.43701172 0.7729492
vt 0.39868164 0.76464844
vt 0.43676758 0.76416016
vt 0.43676758 0.65722656
vt 0.39868164 0.65771484
vt 0.21569824 0.47045898
vt 0.18676758 0.4416504
vt 0.14587402 0.4416504
vt 0.21569824 0.51123047
vt 0.117004395 0.47045898
vt 0.18676758 0.54052734
vt 0.117004395 0.51123047
vt 0.14587402 0.54052734
vt 0.43676758 0.76416016
vt 0.47436523 0.76464844
vt 0.47436523 0.65771484
vt 0.43676758 0.65722656
vt 0.22937012 0.83691406
vt 0.26782227 0.83691406
vt 0.26782227 0.72998047
vt 0.22937012 0.72998047
vt 0.6279297 0.110961914
vt 0.58691406 0.110961914
vt 0.55810547 0.13989258
vt 0.55810547 0.18078613
vt 0.6567383 0.13989258
vt 0.58691406 0.2097168
vt 0.6567383 0.18078613
vt 0.6279297 0.2097168
vt 0.35131836 0.8359375
vt 0.38867188 0.8359375
vt 0.38867188 0.7290039
vt 0.35131836 0.7290039
vt 0.71777344 0.33251953
vt 0.7553711 0.33691406
vt 0.7553711 0.23425293
vt 0.71777344 0.22998047
vt 0.7553711 0.33691406
vt 0.79345703 0.33251953
vt 0.79345703 0.2298584
vt 0.7553711 0.23425293
vt 0.80126953 0.33691406
vt 0.83984375 0.33666992
vt 0.83984375 0.2298584
vt 0.80126953 0.2298584
vt 0.83984375 0.33666992
vt 0.8769531 0.33691406
vt 0.8769531 0.2298584
vt 0.83984375 0.2298584
vt 0.117004395 0.7626953
vt 0.15490723 0.76220703
vt 0.15490723 0.65527344
vt 0.117004395 0.6557617
vt 0.073913574 0.49536133
vt 0.10284424 0.4663086
vt 0.10284424 0.4255371
vt 0.032989502 0.49536133
vt 0.073913574 0.39648438
vt 0.004055023 0.4663086
vt 0.032989502 0.39648438
vt 0.004055023 0.4255371
vt 0.15490723 0.76220703
vt 0.19262695 0.7626953
vt 0.19262695 0.6557617
vt 0.15490723 0.65527344
vt 0.31298828 0.8359375
vt 0.35131836 0.8359375
vt 0.35131836 0.7290039
vt 0.31298828 0.7290039
vt 0.10284424 0.5732422
vt 0.10284424 0.53222656
vt 0.073913574 0.50341797
vt 0.032989502 0.50341797
vt 0.073913574 0.6020508
vt 0.004055023 0.53222656
vt 0.032989502 0.6020508
vt 0.004055023 0.5732422
vn 0.38256836 0.9238281 0
vn 0.38256836 0.9238281 0
vn 0.38256836 0.9238281 0
vn 0.38256836 0.9238281 0
vn 0.9238281 0.38256836 0
vn 0.9238281 0.38256836 0
vn 0.9238281 0.38256836 0
vn 0.9238281 0.38256836 0
vn 0.9238281 -0.38256836 0
vn 0.9238281 -0.38256836 0
vn 0.9238281 -0.38256836 0
vn 0.9238281 -0.38256836 0
vn 0.38256836 -0.9238281 0
vn 0.38256836 -0.9238281 0
vn 0.38256836 -0.9238281 0
vn 0.38256836 -0.9238281 0
vn -0.38256836 -0.9238281 0
vn -0.38256836 -0.9238281 0
vn -0.38256836 -0.9238281 0
vn -0.38256836 -0.9238281 0
vn -0.9238281 -0.38256836 0
vn -0.9238281 -0.38256836 0
vn -0.9238281 -0.38256836 0
vn -0.9238281 -0.38256836 0
vn -0 0 1
vn -0 0 1
vn -0 0 1
vn -0 0 1
vn -0 0 1
vn -0 0 1
vn -0 0 1
vn -0 0 1
vn -0.9238281 0.38256836 0
vn -0.9238281 0.38256836 0
vn -0.9238281 0.38256836 0
vn -0.9238281 0.38256836 0
vn -0.38256836 0.9238281 0
vn -0.38256836 0.9238281 0
vn -0.38256836 0.9238281 0
vn -0.38256836 0.9238281 0
vn -0 0 -1
vn -0 0 -1
vn -0 0 -1
vn -0 0 -1
vn -0 0 -1
vn -0 0 -1
vn -0 0 -1
vn -0 0 -1
vn 0.9785156 0.20544434 0
vn 0.9785156 0.20544434 0
vn 0.9785156 0.20544434 0
vn 0.9785156 0.20544434 0
vn 0.83740234 -0.546875 0
vn 0.83740234 -0.546875 0
vn 0.83740234 -0.546875 0
vn 0.83740234 -0.546875 0
vn 0.20544434 -0.9785156 0
vn 0.20544434 -0.9785156 0
vn 0.20544434 -0.9785156 0
vn 0.20544434 -0.9785156 0
vn -0.546875 -0.83740234 0
vn -0.546875 -0.83740234 0
vn -0.546875 -0.83740234 0
vn -0.546875 -0.83740234 0
vn -0.9785156 -0.20544434 0
vn -0.9785156 -0.20544434 0
vn -0.9785156 -0.20544434 0
vn -0.9785156 -0.20544434 0
vn -0.83740234 0.546875 0
vn -0.83740234 0.546875 0
vn -0.83740234 0.546875 0
vn -0.83740234 0.546875 0
vn -0 0 1
vn -0 0 1
vn -0 0 1
vn -0 0 1
vn -0 0 1
vn -0 0 1
vn -0 0 1
vn -0 0 1
vn -0.20544434 0.9785156 0
vn -0.20544434 0.9785156 0
vn -0.20544434 0.9785156 0
vn -0.20544434 0.9785156 0
vn 0.546875 0.83740234 0
vn 0.546875 0.83740234 0
vn 0.546875 0.83740234 0
vn 0.546875 0.83740234 0
vn -0 0 -1
vn -0 0 -1
vn -0 0 -1
vn -0 0 -1
vn -0 0 -1
vn -0 0 -1
vn -0 0 -1
vn -0 0 -1
vn 0.93066406 -0.35620117 0.08325195
vn 0.93066406 -0.35620117 0.08325195
vn 0.93066406 -0.35620117 0.08325195
vn 0.93066406 -0.35620117 0.08325195
vn 0.41967773 -0.90478516 -0.070373535
vn 0.41967773 -0.90478516 -0.070373535
vn 0.41967773 -0.90478516 -0.070373535
vn 0.41967773 -0.90478516 -0.070373535
vn -0.3371582 -0.92333984 -0.18273926
vn -0.3371582 -0.92333984 -0.18273926
vn -0.3371582 -0.92333984 -0.18273926
vn -0.3371582 -0.92333984 -0.18273926
vn -0.8964844 -0.40112305 -0.18811035
vn -0.8964844 -0.40112305 -0.18811035
vn -0.8964844 -0.40112305 -0.18811035
vn -0.8964844 -0.40112305 -0.18811035
vn -0.93066406 0.35620117 -0.08325195
vn -0.93066406 0.35620117 -0.08325195
vn -0.93066406 0.35620117 -0.08325195
vn -0.93066406 0.35620117 -0.08325195
vn -0.41967773 0.90478516 0.070373535
vn -0.41967773 0.90478516 0.070373535
vn -0.41967773 0.90478516 0.070373535
vn -0.41967773 0.90478516 0.070373535
vn -0.14208984 -0.14208984 0.9794922
vn -0.14208984 -0.14208984 0.9794922
vn -0.14208984 -0.14208984 0.9794922
vn -0.14208984 -0.14208984 0.9794922
vn -0.14208984 -0.14208984 0.9794922
vn -0.14208984 -0.14208984 0.9794922
vn -0.14208984 -0.14208984 0.9794922
vn -0.14208984 -0.14208984 0.9794922
vn 0.3371582 0.92333984 0.18273926
vn 0.3371582 0.92333984 0.18273926
vn 0.3371582 0.92333984 0.18273926
vn 0.3371582 0.92333984 0.18273926
vn 0.8964844 0.40112305 0.18811035
vn 0.8964844 0.40112305 0.18811035
vn 0.8964844 0.40112305 0.18811035
vn 0.8964844 0.40112305 0.18811035
vn 0.14208984 0.14208984 -0.9794922
vn 0.14208984 0.14208984 -0.9794922
vn 0.14208984 0.14208984 -0.9794922
vn 0.14208984 0.14208984 -0.9794922
vn 0.14208984 0.14208984 -0.9794922
vn 0.14208984 0.14208984 -0.9794922
vn 0.14208984 0.14208984 -0.9794922
vn 0.14208984 0.14208984 -0.9794922
vn 0.99072266 -0.13537598 0
vn 0.99072266 -0.13537598 0
vn 0.99072266 -0.13537598 0
vn 0.99072266 -0.13537598 0
vn 0.60498047 -0.7963867 0
vn 0.60498047 -0.7963867 0
vn 0.60498047 -0.7963867 0
vn 0.60498047 -0.7963867 0
vn -0.13537598 -0.99072266 0
vn -0.13537598 -0.99072266 0
vn -0.13537598 -0.99072266 0
vn -0.13537598 -0.99072266 0
vn -0.7963867 -0.60498047 0
vn -0.7963867 -0.60498047 0
vn -0.7963867 -0.60498047 0
vn -0.7963867 -0.60498047 0
vn -0.99072266 0.13537598 0
vn -0.99072266 0.13537598 0
vn -0.99072266 0.13537598 0
vn -0.99072266 0.13537598 0
vn -0.60498047 0.7963867 0
vn -0.60498047 0.7963867 0
vn -0.60498047 0.7963867 0
vn -0.60498047 0.7963867 0
vn -0 0 1
vn -0 0 1
vn -0 0 1
vn -0 0 1
vn -0 0 1
vn -0 0 1
vn -0 0 1
vn -0 0 1
vn 0.13537598 0.99072266 0
vn 0.13537598 0.99072266 0
vn 0.13537598 0.99072266 0
vn 0.13537598 0.99072266 0
vn 0.7963867 0.60498047 0
vn 0.7963867 0.60498047 0
vn 0.7963867 0.60498047 0
vn 0.7963867 0.60498047 0
vn -0 0 -1
vn -0 0 -1
vn -0 0 -1
vn -0 0 -1
vn -0 0 -1
vn -0 0 -1
vn -0 0 -1
vn -0 0 -1
vn 0.4338379 0.9008789 0
vn 0.4338379 0.9008789 0
vn 0.4338379 0.9008789 0
vn 0.4338379 0.9008789 0
vn 0.94384766 0.33032227 0
vn 0.94384766 0.33032227 0
vn 0.94384766 0.33032227 0
vn 0.94384766 0.33032227 0
vn 0.9008789 -0.4338379 0
vn 0.9008789 -0.4338379 0
vn 0.9008789 -0.4338379 0
vn 0.9008789 -0.4338379 0
vn 0.33032227 -0.94384766 0
vn 0.33032227 -0.94384766 0
vn 0.33032227 -0.94384766 0
vn 0.33032227 -0.94384766 0
vn -0.4338379 -0.9008789 0
vn -0.4338379 -0.9008789 0
vn -0.4338379 -0.9008789 0
vn -0.4338379 -0.9008789 0
vn -0.94384766 -0.33032227 0
vn -0.94384766 -0.33032227 0
vn -0.94384766 -0.33032227 0
vn -0.94384766 -0.33032227 0
vn -0 0 1
vn -0 0 1
vn -0 0 1
vn -0 0 1
vn -0 0 1
vn -0 0 1
vn -0 0 1
vn -0 0 1
vn -0.9008789 0.4338379 0
vn -0.9008789 0.4338379 0
vn -0.9008789 0.4338379 0
vn -0.9008789 0.4338379 0
vn -0.33032227 0.94384766 0
vn -0.33032227 0.94384766 0
vn -0.33032227 0.94384766 0
vn -0.33032227 0.94384766 0
vn -0 0 -1
vn -0 0 -1
vn -0 0 -1
vn -0 0 -1
vn -0 0 -1
vn -0 0 -1
vn -0 0 -1
vn -0 0 -1
vn 0.4338379 0.9008789 0
vn 0.4338379 0.9008789 0
vn 0.4338379 0.9008789 0
vn 0.4338379 0.9008789 0
vn 0.94384766 0.33032227 0
vn 0.94384766 0.33032227 0
vn 0.94384766 0.33032227 0
vn 0.94384766 0.33032227 0
vn 0.9008789 -0.4338379 0
vn 0.9008789 -0.4338379 0
vn 0.9008789 -0.4338379 0
vn 0.9008789 -0.4338379 0
vn 0.33032227 -0.94384766 0
vn 0.33032227 -0.94384766 0
vn 0.33032227 -0.94384766 0
vn 0.33032227 -0.94384766 0
vn -0.4338379 -0.9008789 0
vn -0.4338379 -0.9008789 0
vn -0.4338379 -0.9008789 0
vn -0.4338379 -0.9008789 0
vn -0.94384766 -0.33032227 0
vn -0.94384766 -0.33032227 0
vn -0.94384766 -0.33032227 0
vn -0.94384766 -0.33032227 0
vn -0 0 1
vn -0 0 1
vn -0 0 1
vn -0 0 1
vn -0 0 1
vn -0 0 1
vn -0 0 1
vn -0 0 1
vn -0.9008789 0.4338379 0
vn -0.9008789 0.4338379 0
vn -0.9008789 0.4338379 0
vn -0.9008789 0.4338379 0
vn -0.33032227 0.94384766 0
vn -0.33032227 0.94384766 0
vn -0.33032227 0.94384766 0
vn -0.33032227 0.94384766 0
vn -0 0 -1
vn -0 0 -1
vn -0 0 -1
vn -0 0 -1
vn -0 0 -1
vn -0 0 -1
vn -0 0 -1
vn -0 0 -1
vn 0.63964844 -0.7685547 0
vn 0.63964844 -0.7685547 0
vn 0.63964844 -0.7685547 0
vn 0.63964844 -0.7685547 0
vn -0.09106445 -0.99560547 0
vn -0.09106445 -0.99560547 0
vn -0.09106445 -0.99560547 0
vn -0.09106445 -0.99560547 0
vn -0.7685547 -0.63964844 0
vn -0.7685547 -0.63964844 0
vn -0.7685547 -0.63964844 0
vn -0.7685547 -0.63964844 0
vn -0.99560547 0.09106445 0
vn -0.99560547 0.09106445 0
vn -0.99560547 0.09106445 0
vn -0.99560547 0.09106445 0
vn -0.63964844 0.7685547 0
vn -0.63964844 0.7685547 0
vn -0.63964844 0.7685547 0
vn -0.63964844 0.7685547 0
vn 0.09106445 0.99560547 0
vn 0.09106445 0.99560547 0
vn 0.09106445 0.99560547 0
vn 0.09106445 0.99560547 0
vn -0 0 1
vn -0 0 1
vn -0 0 1
vn -0 0 1
vn -0 0 1
vn -0 0 1
vn -0 0 1
vn -0 0 1
vn 0.7685547 0.63964844 0
vn 0.7685547 0.63964844 0
vn 0.7685547 0.63964844 0
vn 0.7685547 0.63964844 0
vn 0.99560547 -0.09106445 0
vn 0.99560547 -0.09106445 0
vn 0.99560547 -0.09106445 0
vn 0.99560547 -0.09106445 0
vn -0 0 -1
vn -0 0 -1
vn -0 0 -1
vn -0 0 -1
vn -0 0 -1
vn -0 0 -1
vn -0 0 -1
vn -0 0 -1
vn 0.31201172 0.9501953 0
vn 0.31201172 0.9501953 0
vn 0.31201172 0.9501953 0
vn 0.31201172 0.9501953 0
vn 0.8925781 0.45117188 0
vn 0.8925781 0.45117188 0
vn 0.8925781 0.45117188 0
vn 0.8925781 0.45117188 0
vn 0.9501953 -0.31201172 0
vn 0.9501953 -0.31201172 0
vn 0.9501953 -0.31201172 0
vn 0.9501953 -0.31201172 0
vn 0.45117188 -0.8925781 0
vn 0.45117188 -0.8925781 0
vn 0.45117188 -0.8925781 0
vn 0.45117188 -0.8925781 0
vn -0.31201172 -0.9501953 0
vn -0.31201172 -0.9501953 0
vn -0.31201172 -0.9501953 0
vn -0.31201172 -0.9501953 0
vn -0.8925781 -0.45117188 0
vn -0.8925781 -0.45117188 0
vn -0.8925781 -0.45117188 0
vn -0.8925781 -0.45117188 0
vn -0 0 1
vn -0 0 1
vn -0 0 1
vn -0 0 1
vn -0 0 1
vn -0 0 1
vn -0 0 1
vn -0 0 1
vn -0.9501953 0.31201172 0
vn -0.9501953 0.31201172 0
vn -0.9501953 0.31201172 0
vn -0.9501953 0.31201172 0
vn -0.45117188 0.8925781 0
vn -0.45117188 0.8925781 0
vn -0.45117188 0.8925781 0
vn -0.45117188 0.8925781 0
vn -0 0 -1
vn -0 0 -1
vn -0 0 -1
vn -0 0 -1
vn -0 0 -1
vn -0 0 -1
vn -0 0 -1
vn -0 0 -1
vn 0.31201172 0.9501953 0
vn 0.31201172 0.9501953 0
vn 0.31201172 0.9501953 0
vn 0.31201172 0.9501953 0
vn 0.8925781 0.45117188 0
vn 0.8925781 0.45117188 0
vn 0.8925781 0.45117188 0
vn 0.8925781 0.45117188 0
vn 0.9501953 -0.31201172 0
vn 0.9501953 -0.31201172 0
vn 0.9501953 -0.31201172 0
vn 0.9501953 -0.31201172 0
vn 0.45117188 -0.8925781 0
vn 0.45117188 -0.8925781 0
vn 0.45117188 -0.8925781 0
vn 0.45117188 -0.8925781 0
vn -0.31201172 -0.9501953 0
vn -0.31201172 -0.9501953 0
vn -0.31201172 -0.9501953 0
vn -0.31201172 -0.9501953 0
vn -0.8925781 -0.45117188 0
vn -0.8925781 -0.45117188 0
vn -0.8925781 -0.45117188 0
vn -0.8925781 -0.45117188 0
vn -0 0 1
vn -0 0 1
vn -0 0 1
vn -0 0 1
vn -0 0 1
vn -0 0 1
vn -0 0 1
vn -0 0 1
vn -0.9501953 0.31201172 0
vn -0.9501953 0.31201172 0
vn -0.9501953 0.31201172 0
vn -0.9501953 0.31201172 0
vn -0.45117188 0.8925781 0
vn -0.45117188 0.8925781 0
vn -0.45117188 0.8925781 0
vn -0.45117188 0.8925781 0
vn -0 0 -1
vn -0 0 -1
vn -0 0 -1
vn -0 0 -1
vn -0 0 -1
vn -0 0 -1
vn -0 0 -1
vn -0 0 -1
vn 0.2993164 0.9501953 -0.088378906
vn 0.2993164 0.9501953 -0.088378906
vn 0.2993164 0.9501953 -0.088378906
vn 0.2993164 0.9501953 -0.088378906
vn 0.85595703 0.45117188 -0.2529297
vn 0.85595703 0.45117188 -0.2529297
vn 0.85595703 0.45117188 -0.2529297
vn 0.85595703 0.45117188 -0.2529297
vn 0.9111328 -0.31201172 -0.26904297
vn 0.9111328 -0.31201172 -0.26904297
vn 0.9111328 -0.31201172 -0.26904297
vn 0.9111328 -0.31201172 -0.26904297
vn 0.4326172 -0.8925781 -0.12780762
vn 0.4326172 -0.8925781 -0.12780762
vn 0.4326172 -0.8925781 -0.12780762
vn 0.4326172 -0.8925781 -0.12780762
vn -0.2993164 -0.9501953 0.088378906
vn -0.2993164 -0.9501953 0.088378906
vn -0.2993164 -0.9501953 0.088378906
vn -0.2993164 -0.9501953 0.088378906
vn -0.85595703 -0.45117188 0.2529297
vn -0.85595703 -0.45117188 0.2529297
vn -0.85595703 -0.45117188 0.2529297
vn -0.85595703 -0.45117188 0.2529297
vn 0.28320312 0 0.9589844
vn 0.28320312 0 0.9589844
vn 0.28320312 0 0.9589844
vn 0.28320312 0 0.9589844
vn 0.28320312 0 0.9589844
vn 0.28320312 0 0.9589844
vn 0.28320312 0 0.9589844
vn 0.28320312 0 0.9589844
vn -0.9111328 0.31201172 0.26904297
vn -0.9111328 0.31201172 0.26904297
vn -0.9111328 0.31201172 0.26904297
vn -0.9111328 0.31201172 0.26904297
vn -0.4326172 0.8925781 0.12780762
vn -0.4326172 0.8925781 0.12780762
vn -0.4326172 0.8925781 0.12780762
vn -0.4326172 0.8925781 0.12780762
vn -0.28320312 0 -0.9589844
vn -0.28320312 0 -0.9589844
vn -0.28320312 0 -0.9589844
vn -0.28320312 0 -0.9589844
vn -0.28320312 0 -0.9589844
vn -0.28320312 0 -0.9589844
vn -0.28320312 0 -0.9589844
vn -0.28320312 0 -0.9589844
vn 0.4338379 0.9008789 0
vn 0.4338379 0.9008789 0
vn 0.4338379 0.9008789 0
vn 0.4338379 0.9008789 0
vn 0.94384766 0.33032227 0
vn 0.94384766 0.33032227 0
vn 0.94384766 0.33032227 0
vn 0.94384766 0.33032227 0
vn 0.9008789 -0.4338379 0
vn 0.9008789 -0.4338379 0
vn 0.9008789 -0.4338379 0
vn 0.9008789 -0.4338379 0
vn 0.33032227 -0.94384766 0
vn 0.33032227 -0.94384766 0
vn 0.33032227 -0.94384766 0
vn 0.33032227 -0.94384766 0
vn -0.4338379 -0.9008789 0
vn -0.4338379 -0.9008789 0
vn -0.4338379 -0.9008789 0
vn -0.4338379 -0.9008789 0
vn -0.94384766 -0.33032227 0
vn -0.94384766 -0.33032227 0
vn -0.94384766 -0.33032227 0
vn -0.94384766 -0.33032227 0
vn -0 0 1
vn -0 0 1
vn -0 0 1
vn -0 0 1
vn -0 0 1
vn -0 0 1
vn -0 0 1
vn -0 0 1
vn -0.9008789 0.4338379 0
vn -0.9008789 0.4338379 0
vn -0.9008789 0.4338379 0
vn -0.9008789 0.4338379 0
vn -0.33032227 0.94384766 0
vn -0.33032227 0.94384766 0
vn -0.33032227 0.94384766 0
vn -0.33032227 0.94384766 0
vn -0 0 -1
vn -0 0 -1
vn -0 0 -1
vn -0 0 -1
vn -0 0 -1
vn -0 0 -1
vn -0 0 -1
vn -0 0 -1
vn 0.4338379 0.9008789 0
vn 0.4338379 0.9008789 0
vn 0.4338379 0.9008789 0
vn 0.4338379 0.9008789 0
vn 0.94384766 0.33032227 0
vn 0.94384766 0.33032227 0
vn 0.94384766 0.33032227 0
vn 0.94384766 0.33032227 0
vn 0.9008789 -0.4338379 0
vn 0.9008789 -0.4338379 0
vn 0.9008789 -0.4338379 0
vn 0.9008789 -0.4338379 0
vn 0.33032227 -0.94384766 0
vn 0.33032227 -0.94384766 0
vn 0.33032227 -0.94384766 0
vn 0.33032227 -0.94384766 0
vn -0.4338379 -0.9008789 0
vn -0.4338379 -0.9008789 0
vn -0.4338379 -0.9008789 0
vn -0.4338379 -0.9008789 0
vn -0.94384766 -0.33032227 0
vn -0.94384766 -0.33032227 0
vn -0.94384766 -0.33032227 0
vn -0.94384766 -0.33032227 0
vn -0 0 1
vn -0 0 1
vn -0 0 1
vn -0 0 1
vn -0 0 1
vn -0 0 1
vn -0 0 1
vn -0 0 1
vn -0.9008789 0.4338379 0
vn -0.9008789 0.4338379 0
vn -0.9008789 0.4338379 0
vn -0.9008789 0.4338379 0
vn -0.33032227 0.94384766 0
vn -0.33032227 0.94384766 0
vn -0.33032227 0.94384766 0
vn -0.33032227 0.94384766 0
vn -0 0 -1
vn -0 0 -1
vn -0 0 -1
vn -0 0 -1
vn -0 0 -1
vn -0 0 -1
vn -0 0 -1
vn -0 0 -1
g Cylinder_0
f 3/3/3 2/2/2 1/1/1
f 4/4/4 3/3/3 1/1/1
f 7/7/7 6/6/6 5/5/5
f 8/8/8 7/7/7 5/5/5
f 11/11/11 10/10/10 9/9/9
f 12/12/12 11/11/11 9/9/9
f 15/15/15 14/14/14 13/13/13
f 16/16/16 15/15/15 13/13/13
f 19/19/19 18/18/18 17/17/17
f 20/20/20 19/19/19 17/17/17
f 23/23/23 22/22/22 21/21/21
f 24/24/24 23/23/23 21/21/21
f 27/27/27 26/26/26 25/25/25
f 25/25/25 28/28/28 27/27/27
f 28/28/28 29/29/29 27/27/27
f 28/28/28 30/30/30 29/29/29
f 30/30/30 31/31/31 29/29/29
f 30/30/30 32/32/32 31/31/31
f 35/35/35 34/34/34 33/33/33
f 36/36/36 35/35/35 33/33/33
f 39/39/39 38/38/38 37/37/37
f 40/40/40 39/39/39 37/37/37
f 43/43/43 42/42/42 41/41/41
f 41/41/41 44/44/44 43/43/43
f 44/44/44 45/45/45 43/43/43
f 44/44/44 46/46/46 45/45/45
f 44/44/44 47/47/47 46/46/46
f 47/47/47 48/48/48 46/46/46
f 51/51/51 50/50/50 49/49/49
f 52/52/52 51/51/51 49/49/49
f 55/55/55 54/54/54 53/53/53
f 56/56/56 55/55/55 53/53/53
f 59/59/59 58/58/58 57/57/57
f 60/60/60 59/59/59 57/57/57
f 63/63/63 62/62/62 61/61/61
f 64/64/64 63/63/63 61/61/61
f 67/67/67 66/66/66 65/65/65
f 68/68/68 67/67/67 65/65/65
f 71/71/71 70/70/70 69/69/69
f 72/72/72 71/71/71 69/69/69
f 75/75/75 74/74/74 73/73/73
f 73/73/73 76/76/76 75/75/75
f 76/76/76 77/77/77 75/75/75
f 76/76/76 78/78/78 77/77/77
f 78/78/78 79/79/79 77/77/77
f 78/78/78 80/80/80 79/79/79
f 83/83/83 82/82/82 81/81/81
f 84/84/84 83/83/83 81/81/81
f 87/87/87 86/86/86 85/85/85
f 88/88/88 87/87/87 85/85/85
f 91/91/91 90/90/90 89/89/89
f 89/89/89 92/92/92 91/91/91
f 89/89/89 93/93/93 92/92/92
f 93/93/93 94/94/94 92/92/92
f 93/93/93 95/95/95 94/94/94
f 95/95/95 96/96/96 94/94/94
f 99/99/99 98/98/98 97/97/97
f 100/100/100 99/99/99 97/97/97
f 103/103/103 102/102/102 101/101/101
f 104/104/104 103/103/103 101/101/101
f 107/107/107 106/106/106 105/105/105
f 108/108/108 107/107/107 105/105/105
f 111/111/111 110/110/110 109/109/109
f 112/112/112 111/111/111 109/109/109
f 115/115/115 114/114/114 113/113/113
f 116/116/116 115/115/115 113/113/113
f 119/119/119 118/118/118 117/117/117
f 120/120/120 119/119/119 117/117/117
f 123/123/123 122/122/122 121/121/121
f 121/121/121 124/124/124 123/123/123
f 121/121/121 125/125/125 124/124/124
f 125/125/125 126/126/126 124/124/124
f 125/125/125 127/127/127 126/126/126
f 127/127/127 128/128/128 126/126/126
f 131/131/131 130/130/130 129/129/129
f 132/132/132 131/131/131 129/129/129
f 135/135/135 134/134/134 133/133/133
f 136/136/136 135/135/135 133/133/133
f 139/139/139 138/138/138 137/137/137
f 137/137/137 140/140/140 139/139/139
f 140/140/140 141/141/141 139/139/139
f 140/140/140 142/142/142 141/141/141
f 142/142/142 143/143/143 141/141/141
f 142/142/142 144/144/144 143/143/143
f 147/147/147 146/146/146 145/145/145
f 148/148/148 147/147/147 145/145/145
f 151/151/151 150/150/150 149/149/149
f 152/152/152 151/151/151 149/149/149
f 155/155/155 154/154/154 153/153/153
f 156/156/156 155/155/155 153/153/153
f 159/159/159 158/158/158 157/157/157
f 160/160/160 159/159/159 157/157/157
f 163/163/163 162/162/162 161/161/161
f 164/164/164 163/163/163 161/161/161
f 167/167/167 166/166/166 165/165/165
f 168/168/168 167/167/167 165/165/165
f 171/171/171 170/170/170 169/169/169
f 169/169/169 172/172/172 171/171/171
f 169/169/169 173/173/173 172/172/172
f 173/173/173 174/174/174 172/172/172
f 173/173/173 175/175/175 174/174/174
f 175/175/175 176/176/176 174/174/174
f 179/179/179 178/178/178 177/177/177
f 180/180/180 179/179/179 177/177/177
f 183/183/183 182/182/182 181/181/181
f 184/184/184 183/183/183 181/181/181
f 187/187/187 186/186/186 185/185/185
f 185/185/185 188/188/188 187/187/187
f 188/188/188 189/189/189 187/187/187
f 188/188/188 190/190/190 189/189/189
f 190/190/190 191/191/191 189/189/189
f 190/190/190 192/192/192 191/191/191
f 195/195/195 194/194/194 193/193/193
f 196/196/196 195/195/195 193/193/193
f 199/199/199 198/198/198 197/197/197
f 200/200/200 199/199/199 197/197/197
f 203/203/203 202/202/202 201/201/201
f 204/204/204 203/203/203 201/201/201
f 207/207/207 206/206/206 205/205/205
f 208/208/208 207/207/207 205/205/205
f 211/211/211 210/210/210 209/209/209
f 212/212/212 211/211/211 209/209/209
f 215/215/215 214/214/214 213/213/213
f 216/216/216 215/215/215 213/213/213
f 219/219/219 218/218/218 217/217/217
f 217/217/217 220/220/220 219/219/219
f 220/220/220 221/221/221 219/219/219
f 220/220/220 222/222/222 221/221/221
f 222/222/222 223/223/223 221/221/221
f 222/222/222 224/224/224 223/223/223
f 227/227/227 226/226/226 225/225/225
f 228/228/228 227/227/227 225/225/225
f 231/231/231 230/230/230 229/229/229
f 232/232/232 231/231/231 229/229/229
f 235/235/235 234/234/234 233/233/233
f 233/233/233 236/236/236 235/235/235
f 233/233/233 237/237/237 236/236/236
f 237/237/237 238/238/238 236/236/236
f 237/237/237 239/239/239 238/238/238
f 239/239/239 240/240/240 238/238/238
f 243/243/243 242/242/242 241/241/241
f 244/244/244 243/243/243 241/241/241
f 247/247/247 246/246/246 245/245/245
f 248/248/248 247/247/247 245/245/245
f 251/251/251 250/250/250 249/249/249
f 252/252/252 251/251/251 249/249/249
f 255/255/255 254/254/254 253/253/253
f 256/256/256 255/255/255 253/253/253
f 259/259/259 258/258/258 257/257/257
f 260/260/260 259/259/259 257/257/257
f 263/263/263 262/262/262 261/261/261
f 264/264/264 263/263/263 261/261/261
f 267/267/267 266/266/266 265/265/265
f 265/265/265 268/268/268 267/267/267
f 268/268/268 269/269/269 267/267/267
f 268/268/268 270/270/270 269/269/269
f 270/270/270 271/271/271 269/269/269
f 270/270/270 272/272/272 271/271/271
f 275/275/275 274/274/274 273/273/273
f 276/276/276 275/275/275 273/273/273
f 279/279/279 278/278/278 277/277/277
f 280/280/280 279/279/279 277/277/277
f 283/283/283 282/282/282 281/281/281
f 281/281/281 284/284/284 283/283/283
f 281/281/281 285/285/285 284/284/284
f 285/285/285 286/286/286 284/284/284
f 285/285/285 287/287/287 286/286/286
f 287/287/287 288/288/288 286/286/286
f 291/291/291 290/290/290 289/289/289
f 292/292/292 291/291/291 289/289/289
f 295/295/295 294/294/294 293/293/293
f 296/296/296 295/295/295 293/293/293
f 299/299/299 298/298/298 297/297/297
f 300/300/300 299/299/299 297/297/297
f 303/303/303 302/302/302 301/301/301
f 304/304/304 303/303/303 301/301/301
f 307/307/307 306/306/306 305/305/305
f 308/308/308 307/307/307 305/305/305
f 311/311/311 310/310/310 309/309/309
f 312/312/312 311/311/311 309/309/309
f 315/315/315 314/314/314 313/313/313
f 313/313/313 316/316/316 315/315/315
f 313/313/313 317/317/317 316/316/316
f 317/317/317 318/318/318 316/316/316
f 317/317/317 319/319/319 318/318/318
f 319/319/319 320/320/320 318/318/318
f 323/323/323 322/322/322 321/321/321
f 324/324/324 323/323/323 321/321/321
f 327/327/327 326/326/326 325/325/325
f 328/328/328 327/327/327 325/325/325
f 331/331/331 330/330/330 329/329/329
f 329/329/329 332/332/332 331/331/331
f 332/332/332 333/333/333 331/331/331
f 332/332/332 334/334/334 333/333/333
f 334/334/334 335/335/335 333/333/333
f 334/334/334 336/336/336 335/335/335
f 339/339/339 338/338/338 337/337/337
f 340/340/340 339/339/339 337/337/337
f 343/343/343 342/342/342 341/341/341
f 344/344/344 343/343/343 341/341/341
f 347/347/347 346/346/346 345/345/345
f 348/348/348 347/347/347 345/345/345
f 351/351/351 350/350/350 349/349/349
f 352/352/352 351/351/351 349/349/349
f 355/355/355 354/354/354 353/353/353
f 356/356/356 355/355/355 353/353/353
f 359/359/359 358/358/358 357/357/357
f 360/360/360 359/359/359 357/357/357
f 363/363/363 362/362/362 361/361/361
f 361/361/361 364/364/364 363/363/363
f 361/361/361 365/365/365 364/364/364
f 365/365/365 366/366/366 364/364/364
f 365/365/365 367/367/367 366/366/366
f 367/367/367 368/368/368 366/366/366
f 371/371/371 370/370/370 369/369/369
f 372/372/372 371/371/371 369/369/369
f 375/375/375 374/374/374 373/373/373
f 376/376/376 375/375/375 373/373/373
f 379/379/379 378/378/378 377/377/377
f 377/377/377 380/380/380 379/379/379
f 380/380/380 381/381/381 379/379/379
f 380/380/380 382/382/382 381/381/381
f 382/382/382 383/383/383 381/381/381
f 382/382/382 384/384/384 383/383/383
f 387/387/387 386/386/386 385/385/385
f 388/388/388 387/387/387 385/385/385
f 391/391/391 390/390/390 389/389/389
f 392/392/392 391/391/391 389/389/389
f 395/395/395 394/394/394 393/393/393
f 396/396/396 395/395/395 393/393/393
f 399/399/399 398/398/398 397/397/397
f 400/400/400 399/399/399 397/397/397
f 403/403/403 402/402/402 401/401/401
f 404/404/404 403/403/403 401/401/401
f 407/407/407 406/406/406 405/405/405
f 408/408/408 407/407/407 405/405/405
f 411/411/411 410/410/410 409/409/409
f 409/409/409 412/412/412 411/411/411
f 409/409/409 413/413/413 412/412/412
f 413/413/413 414/414/414 412/412/412
f 413/413/413 415/415/415 414/414/414
f 415/415/415 416/416/416 414/414/414
f 419/419/419 418/418/418 417/417/417
f 420/420/420 419/419/419 417/417/417
f 423/423/423 422/422/422 421/421/421
f 424/424/424 423/423/423 421/421/421
f 427/427/427 426/426/426 425/425/425
f 425/425/425 428/428/428 427/427/427
f 428/428/428 429/429/429 427/427/427
f 428/428/428 430/430/430 429/429/429
f 430/430/430 431/431/431 429/429/429
f 430/430/430 432/432/432 431/431/431
f 435/435/435 434/434/434 433/433/433
f 436/436/436 435/435/435 433/433/433
f 439/439/439 438/438/438 437/437/437
f 440/440/440 439/439/439 437/437/437
f 443/443/443 442/442/442 441/441/441
f 444/444/444 443/443/443 441/441/441
f 447/447/447 446/446/446 445/445/445
f 448/448/448 447/447/447 445/445/445
f 451/451/451 450/450/450 449/449/449
f 452/452/452 451/451/451 449/449/449
f 455/455/455 454/454/454 453/453/453
f 456/456/456 455/455/455 453/453/453
f 459/459/459 458/458/458 457/457/457
f 457/457/457 460/460/460 459/459/459
f 457/457/457 461/461/461 460/460/460
f 461/461/461 462/462/462 460/460/460
f 461/461/461 463/463/463 462/462/462
f 463/463/463 464/464/464 462/462/462
f 467/467/467 466/466/466 465/465/465
f 468/468/468 467/467/467 465/465/465
f 471/471/471 470/470/470 469/469/469
f 472/472/472 471/471/471 469/469/469
f 475/475/475 474/474/474 473/473/473
f 473/473/473 476/476/476 475/475/475
f 476/476/476 477/477/477 475/475/475
f 476/476/476 478/478/478 477/477/477
f 478/478/478 479/479/479 477/477/477
f 478/478/478 480/480/480 479/479/479
f 483/483/483 482/482/482 481/481/481
f 484/484/484 483/483/483 481/481/481
f 487/487/487 486/486/486 485/485/485
f 488/488/488 487/487/487 485/485/485
f 491/491/491 490/490/490 489/489/489
f 492/492/492 491/491/491 489/489/489
f 495/495/495 494/494/494 493/493/493
f 496/496/496 495/495/495 493/493/493
f 499/499/499 498/498/498 497/497/497
f 500/500/500 499/499/499 497/497/497
f 503/503/503 502/502/502 501/501/501
f 504/504/504 503/503/503 501/501/501
f 507/507/507 506/506/506 505/505/505
f 505/505/505 508/508/508 507/507/507
f 508/508/508 509/509/509 507/507/507
f 508/508/508 510/510/510 509/509/509
f 510/510/510 511/511/511 509/509/509
f 510/510/510 512/512/512 511/511/511
f 515/515/515 514/514/514 513/513/513
f 516/516/516 515/515/515 513/513/513
f 519/519/519 518/518/518 517/517/517
f 520/520/520 519/519/519 517/517/517
f 523/523/523 522/522/522 521/521/521
f 521/521/521 524/524/524 523/523/523
f 521/521/521 525/525/525 524/524/524
f 525/525/525 526/526/526 524/524/524
f 525/525/525 527/527/527 526/526/526
f 527/527/527 528/528/528 526/526/526
f 531/531/531 530/530/530 529/529/529
f 532/532/532 531/531/531 529/529/529
f 535/535/535 534/534/534 533/533/533
f 536/536/536 535/535/535 533/533/533
f 539/539/539 538/538/538 537/537/537
f 540/540/540 539/539/539 537/537/537
f 543/543/543 542/542/542 541/541/541
f 544/544/544 543/543/543 541/541/541
f 547/547/547 546/546/546 545/545/545
f 548/548/548 547/547/547 545/545/545
f 551/551/551 550/550/550 549/549/549
f 552/552/552 551/551/551 549/549/549
f 555/555/555 554/554/554 553/553/553
f 553/553/553 556/556/556 555/555/555
f 556/556/556 557/557/557 555/555/555
f 556/556/556 558/558/558 557/557/557
f 558/558/558 559/559/559 557/557/557
f 558/558/558 560/560/560 559/559/559
f 563/563/563 562/562/562 561/561/561
f 564/564/564 563/563/563 561/561/561
f 567/567/567 566/566/566 565/565/565
f 568/568/568 567/567/567 565/565/565
f 571/571/571 570/570/570 569/569/569
f 569/569/569 572/572/572 571/571/571
f 569/569/569 573/573/573 572/572/572
f 573/573/573 574/574/574 572/572/572
f 573/573/573 575/575/575 574/574/574
f 575/575/575 576/576/576 574/574/574
