g Dice
v -0.86922824 0.86922824 1
v -1 0.86922824 0.86922824
v -0.86922824 1 0.86922824
v 0.86922824 -0.86922824 1
v 1 -0.86922824 0.86922824
v 0.86922824 -1 0.86922824
v 0.86922824 0.86922824 1
v 0.86922824 1 0.86922824
v 1 0.86922824 0.86922824
v 0.86922824 -1 -0.86922824
v -0.86922824 -1 -0.86922824
v -0.86922824 -1 0.86922824
v 0.86922824 -1 0.86922824
v 1 -0.86922824 -0.86922824
v 0.86922824 -0.86922824 1
v -0.86922824 -0.86922824 1
v -1 -0.86922824 0.86922824
v 1 -0.86922824 0.86922824
v 1 0.86922824 -0.86922824
v 0.86922824 -0.86922824 -1
v 1 0.86922824 0.86922824
v 0.86922824 1 -0.86922824
v 0.86922824 0.86922824 -1
v 0.86922824 0.86922824 1
v 0.86922824 -0.86922824 1
v -0.86922824 -0.86922824 1
v -0.86922824 0.86922824 1
v 0.86922824 1 0.86922824
v -0.86922824 1 -0.86922824
v -0.86922824 1 0.86922824
v -1 0.86922824 -0.86922824
v -0.86922824 0.86922824 1
v 0.86922824 0.86922824 1
v -1 0.86922824 0.86922824
v -1 -0.86922824 -0.86922824
v -1 -0.86922824 0.86922824
v -0.86922824 -1 -0.86922824
v -0.86922824 -1 0.86922824
v -0.86922824 -0.86922824 1
v -0.86922824 0.86922824 1
v 0.86922824 -1 -0.86922824
v 1 -0.86922824 -0.86922824
v -0.86922824 -0.86922824 -1
v -0.86922824 -1 -0.86922824
v -1 -0.86922824 -0.86922824
v -0.86922824 0.86922824 -1
v -1 0.86922824 -0.86922824
v -0.86922824 1 -0.86922824
v 0.86922824 1 -0.86922824
v 1 0.86922824 -0.86922824
vt 0.625 0.26634645
vt 0.6086535 0.25
vt 0.625 0.26634645
vt 0.625 0.76634645
vt 0.6086535 0.75
vt 0.625 0.76634645
vt 0.625 0.51634645
vt 0.6086535 0.5
vt 0.625 0.51634645
vt 0.3913465 0.7663465
vt 0.39134648 0.98365355
vt 0.60865355 0.98365355
vt 0.60865355 0.7663465
vt 0.39134648 0.73365355
vt 0.625 0.76634645
vt 0.625 0.98365355
vt 0.6086535 1
vt 0.60865355 0.7336536
vt 0.3913465 0.51634645
vt 0.35865355 0.7336536
vt 0.60865355 0.51634645
vt 0.39134648 0.48365355
vt 0.35865358 0.51634645
vt 0.64134645 0.51634645
vt 0.6413465 0.73365355
vt 0.85865355 0.7336536
vt 0.85865355 0.51634645
vt 0.60865355 0.48365355
vt 0.3913465 0.26634648
vt 0.60865355 0.26634648
vt 0.39134648 0.23365353
vt 0.625 0.26634645
vt 0.625 0.48365355
vt 0.60865355 0.23365353
vt 0.3913465 0.01634647
vt 0.60865355 0.01634647
vt 0.39134645 0
vt 0.6086535 0
vt 0.625 0.01634647
vt 0.625 0.23365353
vt 0.35865352 0.75
vt 0.375 0.73365355
vt 0.14134647 0.73365355
vt 0.14134647 0.75
vt 0.125 0.73365355
vt 0.14134647 0.51634645
vt 0.125 0.51634645
vt 0.14134647 0.5
vt 0.35865352 0.5
vt 0.375 0.51634645
vn -0.34158602 0.34158593 0.87557864
vn -0.87557864 0.34158602 0.34158593
vn -0.34158593 0.87557864 0.34158602
vn 0.34158602 -0.34158593 0.87557864
vn 0.87557864 -0.34158602 0.34158593
vn 0.34158593 -0.87557864 0.34158602
vn 0.34158602 0.34158593 0.87557864
vn 0.34158593 0.87557864 0.34158602
vn 0.87557864 0.34158602 0.34158593
vn 0.34158593 -0.87557864 -0.34158602
vn -0.34158593 -0.87557864 -0.34158602
vn -0.34158593 -0.87557864 0.34158602
vn 0.34158593 -0.87557864 0.34158602
vn 0.87557864 -0.34158602 -0.34158593
vn 0.34158602 -0.34158593 0.87557864
vn -0.34158602 -0.34158593 0.87557864
vn -0.87557864 -0.34158602 0.34158593
vn 0.87557864 -0.34158602 0.34158593
vn 0.87557864 0.34158602 -0.34158593
vn 0.34158602 -0.34158593 -0.87557864
vn 0.87557864 0.34158602 0.34158593
vn 0.34158593 0.87557864 -0.34158602
vn 0.34158602 0.34158593 -0.87557864
vn 0.34158602 0.34158593 0.87557864
vn 0.34158602 -0.34158593 0.87557864
vn -0.34158602 -0.34158593 0.87557864
vn -0.34158602 0.34158593 0.87557864
vn 0.34158593 0.87557864 0.34158602
vn -0.34158593 0.87557864 -0.34158602
vn -0.34158593 0.87557864 0.34158602
vn -0.87557864 0.34158602 -0.34158593
vn -0.34158602 0.34158593 0.87557864
vn 0.34158602 0.34158593 0.87557864
vn -0.87557864 0.34158602 0.34158593
vn -0.87557864 -0.34158602 -0.34158593
vn -0.87557864 -0.34158602 0.34158593
vn -0.34158593 -0.87557864 -0.34158602
vn -0.34158593 -0.87557864 0.34158602
vn -0.34158602 -0.34158593 0.87557864
vn -0.34158602 0.34158593 0.87557864
vn 0.34158593 -0.87557864 -0.34158602
vn 0.87557864 -0.34158602 -0.34158593
vn -0.34158602 -0.34158593 -0.87557864
vn -0.34158593 -0.87557864 -0.34158602
vn -0.87557864 -0.34158602 -0.34158593
vn -0.34158602 0.34158593 -0.87557864
vn -0.87557864 0.34158602 -0.34158593
vn -0.34158593 0.87557864 -0.34158602
vn 0.34158593 0.87557864 -0.34158602
vn 0.87557864 0.34158602 -0.34158593
g Dice_0
f 3/3/3 2/2/2 1/1/1
f 6/6/6 5/5/5 4/4/4
f 9/9/9 8/8/8 7/7/7
f 12/12/12 11/11/11 10/10/10
f 13/13/13 12/12/12 10/10/10
f 10/10/10 14/14/14 13/13/13
f 12/12/12 13/13/13 15/15/15
f 16/16/16 12/12/12 15/15/15
f 16/16/16 17/17/17 12/12/12
f 14/14/14 18/18/18 13/13/13
f 18/18/18 14/14/14 19/19/19
f 19/19/19 14/14/14 20/20/20
f 21/21/21 18/18/18 19/19/19
f 19/19/19 22/22/22 21/21/21
f 23/23/23 19/19/19 20/20/20
f 18/18/18 21/21/21 24/24/24
f 25/25/25 18/18/18 24/24/24
f 26/26/26 25/25/25 24/24/24
f 27/27/27 26/26/26 24/24/24
f 22/22/22 28/28/28 21/21/21
f 28/28/28 22/22/22 29/29/29
f 30/30/30 28/28/28 29/29/29
f 29/29/29 31/31/31 30/30/30
f 28/28/28 30/30/30 32/32/32
f 33/33/33 28/28/28 32/32/32
f 31/31/31 34/34/34 30/30/30
f 34/34/34 31/31/31 35/35/35
f 36/36/36 34/34/34 35/35/35
f 36/36/36 35/35/35 37/37/37
f 38/38/38 36/36/36 37/37/37
f 34/34/34 36/36/36 39/39/39
f 40/40/40 34/34/34 39/39/39
f 42/42/42 41/41/41 20/20/20
f 20/20/20 41/41/41 43/43/43
f 41/41/41 44/44/44 43/43/43
f 44/44/44 45/45/45 43/43/43
f 20/20/20 43/43/43 46/46/46
f 43/43/43 45/45/45 46/46/46
f 45/45/45 47/47/47 46/46/46
f 47/47/47 48/48/48 46/46/46
f 23/23/23 20/20/20 46/46/46
f 46/46/46 48/48/48 23/23/23
f 48/48/48 49/49/49 23/23/23
f 49/49/49 50/50/50 23/23/23
