g dungoen_pillar
v -0.21044342 1.1102232E-16 0.3914035
v -0.21274124 0.054344233 0.3914035
v 0.34398833 0.054344233 0.3914035
v 0.34398833 1.1102232E-16 0.3914035
v -0.34398827 1.1102232E-16 -0.38451597
v -0.23234367 1.1102232E-16 -0.3856952
v -0.23272698 0.065395944 -0.3856952
v -0.34398827 0.054344233 -0.38451597
v 0.3822049 0.06389001 -0.34398863
v 0.3822049 1.1102232E-16 -0.34398863
v 0.39539015 1.1102232E-16 -0.22888
v 0.39539015 0.054344233 -0.22896239
v -0.3964476 0.054344237 0.26439247
v -0.3964476 0.06857792 0.357119
v -0.3964476 1.1102232E-16 0.357119
v -0.3964476 1.1102232E-16 0.26637694
v -0.3964476 1.1102232E-16 0.357119
v -0.3964476 0.06857792 0.357119
v -0.3582309 0.06857792 0.40453428
v -0.3582309 1.1102232E-16 0.40453428
v 0.34398833 1.1102232E-16 0.3914035
v 0.34398833 0.054344233 0.3914035
v 0.39277175 0.054344233 0.34398827
v 0.39277175 1.1102232E-16 0.34398827
v 0.34398833 0.06389001 -0.39140335
v 0.34398833 1.1102232E-16 -0.39140335
v 0.3822049 1.1102232E-16 -0.34398863
v 0.3822049 0.06389001 -0.34398863
v 0.34398833 0.054344233 0.3914035
v 0.29455274 0.054344233 0.2580454
v 0.39277175 0.054344233 0.34398827
v 0.25803986 0.054344233 0.2945584
v -0.2580403 0.054344233 0.2945571
v -0.21274124 0.054344233 0.3914035
v -0.3582309 0.06857792 0.40453428
v -0.22432685 0.054344233 0.41003105
v 0.3822049 0.06389001 -0.34398863
v 0.25803986 0.054344233 -0.2945474
v 0.34398833 0.06389001 -0.39140335
v 0.29455274 0.054344233 -0.2580342
v 0.36794892 0.054344233 -0.21267241
v 0.39539015 0.054344233 -0.22896239
v 0.3822049 0.06860888 0.020814056
v 0.29455274 0.054344233 0.2580454
v 0.39277175 0.054344233 0.34398827
v 0.3822049 0.06860888 0.020814056
v 0.40995085 0.06860888 0.030602263
v -0.23272698 0.065395944 -0.3856952
v -0.2580403 0.054344233 -0.2945491
v -0.34398827 0.054344233 -0.38451597
v 0.192294 0.054344233 -0.41410828
v 0.25803986 0.054344233 -0.2945474
v 0.34398833 0.06389001 -0.39140335
v 0.1779982 0.054344233 -0.4434192
v -0.21402663 0.065395944 -0.42469177
v -0.29455328 0.054344233 -0.25803605
v -0.34398827 0.054344233 -0.38451597
v -0.2580403 0.054344233 -0.2945491
v -0.39847106 0.054344233 -0.26147354
v -0.29455328 0.054344233 0.2580435
v -0.38220504 0.054344237 0.25126174
v -0.3964476 0.06857792 0.357119
v -0.3964476 0.054344237 0.26439247
v -0.3582309 0.06857792 0.40453428
v -0.2580403 0.054344233 0.2945571
v -0.39847106 0.054344233 -0.26147354
v -0.38220504 0.054344237 0.25126174
v -0.38220504 1.1102232E-16 0.25324616
v -0.39847106 1.1102232E-16 -0.25771073
v -0.34398827 1.1102232E-16 -0.38451597
v -0.34398827 0.054344233 -0.38451597
v -0.3582309 0.06857792 0.40453428
v -0.22432685 0.054344233 0.41003105
v -0.22202903 1.1102232E-16 0.41003105
v -0.3582309 1.1102232E-16 0.40453428
v 0.3822049 0.06860888 0.020814056
v 0.36794892 0.054344233 -0.21267241
v 0.36794892 1.1102232E-16 -0.21258971
v 0.3822049 1.1102232E-16 0.017233886
v 0.19163086 1.1102232E-16 -0.41410828
v 0.34398833 1.1102232E-16 -0.39140335
v 0.34398833 0.06389001 -0.39140335
v 0.192294 0.054344233 -0.41410828
v -0.21364334 1.1102232E-16 -0.42469177
v 0.17733489 1.1102232E-16 -0.4434192
v 0.1779982 0.054344233 -0.4434192
v -0.21402663 0.065395944 -0.42469177
v 0.39277175 1.1102232E-16 0.34398827
v 0.39277175 0.054344233 0.34398827
v 0.40995085 0.06860888 0.030602263
v 0.40995085 1.1102232E-16 0.027022246
v 0.3822049 1.1102232E-16 0.017233886
v 0.40995085 1.1102232E-16 0.027022246
v 0.40995085 0.06860888 0.030602263
v 0.3822049 0.06860888 0.020814056
v 0.36794892 0.054344233 -0.21267241
v 0.39539015 0.054344233 -0.22896239
v 0.39539015 1.1102232E-16 -0.22888
v 0.36794892 1.1102232E-16 -0.21258971
v -0.23234367 1.1102232E-16 -0.3856952
v -0.21364334 1.1102232E-16 -0.42469177
v -0.21402663 0.065395944 -0.42469177
v -0.23272698 0.065395944 -0.3856952
v 0.192294 0.054344233 -0.41410828
v 0.1779982 0.054344233 -0.4434192
v 0.17733489 1.1102232E-16 -0.4434192
v 0.19163086 1.1102232E-16 -0.41410828
v -0.38220504 0.054344237 0.25126174
v -0.3964476 0.054344237 0.26439247
v -0.3964476 1.1102232E-16 0.26637694
v -0.38220504 1.1102232E-16 0.25324616
v -0.21044342 1.1102232E-16 0.3914035
v -0.22202903 1.1102232E-16 0.41003105
v -0.22432685 0.054344233 0.41003105
v -0.21274124 0.054344233 0.3914035
v 0.29279816 0.5056831 0.24191742
v 0.28157744 0.5056831 -0.2548787
v 0.24335815 0.48437846 -0.21552062
v 0.25284088 0.48437846 0.20432526
v 0.21662109 0.4840635 0.24222015
v 0.25580308 0.50536144 0.28062347
v -0.24097426 0.5011392 0.29184234
v -0.20320937 0.48049524 0.25170135
v -0.24110335 0.48018032 0.21547973
v -0.27967942 0.50081754 0.2548456
v -0.29089996 0.50081754 -0.24195053
v -0.25058594 0.48018032 -0.204366
v -0.21436599 0.48049524 -0.24226089
v -0.25390488 0.5011392 -0.28065658
v 0.24287246 0.50536144 -0.2918753
v 0.20546432 0.4840635 -0.2517421
v 0.24335815 0.48437846 -0.21552062
v 0.28157744 0.5056831 -0.2548787
v 0.25284088 0.48437846 0.20432526
v 0.24335815 0.48437846 -0.21552062
v 0.24704376 0.28219077 -0.20987426
v 0.24704376 0.28219077 0.20988616
v 0.20987976 0.28219077 0.24704985
v 0.21662109 0.4840635 0.24222015
v -0.20320937 0.48049524 0.25170135
v -0.2098799 0.28219077 0.24704833
v -0.24704406 0.28219077 0.20988433
v -0.24110335 0.48018032 0.21547973
v -0.25058594 0.48018032 -0.204366
v -0.24704406 0.28219077 -0.20987579
v -0.20988022 0.28219077 -0.24703963
v -0.21436599 0.48049524 -0.24226089
v 0.20546432 0.4840635 -0.2517421
v 0.20987976 0.28219077 -0.24703841
v 0.24704376 0.28219077 -0.20987426
v 0.24335815 0.48437846 -0.21552062
v 0.2945526 0.23634852 -0.25728148
v 0.24704376 0.28219077 0.20988616
v 0.24704376 0.28219077 -0.20987426
v 0.2945526 0.23634852 0.25729278
v 0.2945526 0.054344237 -0.2580342
v 0.2945526 0.054344237 0.25804535
v 0.25803968 0.054344237 0.2945584
v 0.25728667 0.23634852 0.2945584
v 0.20987976 0.28219077 0.24704985
v -0.2098799 0.28219077 0.24704833
v -0.2572873 0.23634852 0.2945569
v -0.25804046 0.054344237 0.2945569
v -0.29455352 0.054344237 0.2580432
v -0.29455352 0.23634852 0.25729063
v -0.24704406 0.28219077 0.20988433
v -0.24704406 0.28219077 -0.20987579
v -0.29455352 0.23634852 -0.25728333
v -0.29455352 0.054344237 -0.25803605
v -0.25804046 0.054344237 -0.29454926
v -0.2572873 0.23634852 -0.2945491
v -0.20988022 0.28219077 -0.24703963
v 0.20987976 0.28219077 -0.24703841
v 0.25728667 0.23634852 -0.29454756
v 0.25803968 0.054344237 -0.29454756
v 0.2945526 0.054344237 -0.2580342
v 0.2945526 0.23634852 -0.25728148
v 0.24704376 0.28219077 -0.20987426
v 0.24388245 1.887927 0.2058551
v 0.24388245 1.887927 -0.2058441
v 0.18467285 1.8557884 -0.14773712
v 0.18467285 1.8557884 0.14774749
v 0.14774185 1.8557884 0.18467835
v 0.20584914 1.887927 0.24388793
v -0.20584945 1.887927 0.24388671
v -0.14774215 1.8557884 0.18467712
v -0.18467346 1.8557884 0.14774628
v -0.2438829 1.887927 0.20585357
v -0.2438829 1.887927 -0.20584564
v -0.18467346 1.8557884 -0.14773834
v -0.14774215 1.8557884 -0.18466873
v -0.20584945 1.887927 -0.24387878
v 0.20584914 1.887927 -0.24387741
v 0.14774185 1.8557884 -0.18466796
v 0.18467285 1.8557884 -0.14773712
v 0.24388245 1.887927 -0.2058441
v 0.24388245 2.0500522 0.20737518
v 0.24388245 2.071296 -0.20736419
v 0.24388245 1.887927 -0.2058441
v 0.24388245 1.887927 0.2058551
v 0.20584914 1.887927 0.24388793
v 0.20736939 2.0294397 0.24388793
v -0.20736983 2.0294397 0.24388671
v -0.20584945 1.887927 0.24388671
v -0.2438829 1.887927 0.20585357
v -0.2438829 2.0500522 0.20737365
v -0.2438829 2.0500522 -0.20736557
v -0.2438829 1.887927 -0.20584564
v -0.20584945 1.887927 -0.24387878
v -0.20736983 2.0294397 -0.24387878
v 0.20736939 2.0506835 -0.24387741
v 0.20584914 1.887927 -0.24387741
v 0.24388245 1.887927 -0.2058441
v 0.24388245 2.071296 -0.20736419
v -0.2438829 2.0500522 -0.20736557
v 0.24388245 2.071296 -0.20736419
v -0.2438829 2.0500522 0.20737365
v 0.24388245 2.0500522 0.20737518
v 0.20736939 2.0294397 0.24388793
v -0.20736983 2.0294397 0.24388671
v 0.18467285 1.8557884 0.14774749
v 0.18467285 1.8557884 -0.14773712
v 0.17413636 1.502204 -0.13970153
v 0.17413636 1.502204 0.1397116
v 0.13970657 1.502204 0.17414184
v 0.14774185 1.8557884 0.18467835
v -0.14774215 1.8557884 0.18467712
v 0.18750808 1.467076 0.15076537
v 0.1530783 1.4687501 0.18519561
v -0.13970688 1.502204 0.17414062
v 0.18426391 1.1160657 0.15663025
v 0.17694046 1.054344 -0.13610962
v 0.14913283 1.114725 0.19034423
v 0.17118911 1.054344 0.14324433
v 0.18015304 0.74931943 -0.15195832
v 0.18683013 0.74931943 0.14368042
v 0.15085632 0.74900657 0.18131804
v 0.13605805 1.054344 0.17695831
v -0.14329635 1.054344 0.17120606
v -0.17701034 1.054344 0.13607453
v -0.14477187 0.746494 0.18799408
v -0.1824086 0.7461812 0.15201904
v -0.18908599 0.7461812 -0.14362
v -0.17413695 1.502204 0.1397107
v -0.18467346 1.8557884 0.14774628
v -0.18467346 1.8557884 -0.14773834
v -0.18215118 1.021189 -0.15980163
v -0.15311188 0.746494 -0.18125762
v -0.18527085 1.5386688 -0.15564331
v -0.17413695 1.502204 -0.13970275
v -0.17125915 1.054344 -0.14327942
v -0.14672409 1.022437 -0.19372436
v -0.1505989 1.5393783 -0.19035202
v -0.14774215 1.8557884 -0.18466873
v 0.14774185 1.8557884 -0.18466796
v -0.13612762 1.054344 -0.1769931
v 0.14322662 1.054344 -0.171241
v 0.14251633 0.74900657 -0.18793395
v 0.18015304 0.74931943 -0.15195832
v 0.17694046 1.054344 -0.13610962
v -0.13970688 1.502204 -0.17413223
v 0.13970657 1.502204 -0.17413147
v 0.17413636 1.502204 -0.13970153
v 0.18467285 1.8557884 -0.14773712
v 0.18683013 0.74931943 0.14368042
v 0.18015304 0.74931943 -0.15195832
v 0.21956024 0.7215024 -0.19127853
v 0.22617233 0.72148675 0.18306457
v 0.25928757 0.67389214 -0.23894958
v 0.19220932 0.72119147 0.21859893
v 0.15085632 0.74900657 0.18131804
v -0.14477187 0.746494 0.18799408
v 0.27108595 0.67390317 0.22567688
v 0.28055906 0.62245435 -0.25602463
v 0.2372023 0.67360854 0.26112792
v -0.18401183 0.71799386 0.22700591
v 0.29183272 0.62245435 0.2431076
v 0.28157744 0.5056831 -0.2548787
v 0.29279816 0.5056831 0.24191742
v 0.25580308 0.50536144 0.28062347
v 0.25597945 0.62214255 0.2806195
v -0.22623825 0.6696696 0.27149108
v -0.2431343 0.61790043 0.29189116
v -0.24097426 0.5011392 0.29184234
v -0.27967942 0.50081754 0.2548456
v -0.21936324 0.7177 0.19321564
v -0.1824086 0.7461812 0.15201904
v -0.18908599 0.7461812 -0.14362
v -0.28064483 0.6175887 0.25603607
v -0.26147765 0.66937673 0.237807
v -0.22809982 0.717698 -0.18285842
v -0.2919185 0.6175887 -0.24309646
v -0.29089996 0.50081754 -0.24195053
v -0.25390488 0.5011392 -0.28065658
v -0.27076355 0.66938704 -0.22698975
v -0.19383605 0.7179959 -0.21870635
v -0.15311188 0.746494 -0.18125762
v 0.14251633 0.74900657 -0.18793395
v -0.25606474 0.61790043 -0.28060776
v -0.23944885 0.66965944 -0.2597528
v 0.18026032 0.72117585 -0.22884399
v 0.24304885 0.62214255 -0.29187927
v 0.24287246 0.50536144 -0.2918753
v 0.28157744 0.5056831 -0.2548787
v 0.28055906 0.62245435 -0.25602463
v 0.2265042 0.6736197 -0.2702858
v 0.25928757 0.67389214 -0.23894958
v 0.21956024 0.7215024 -0.19127853
v 0.18015304 0.74931943 -0.15195832
v 0.19163086 1.1102232E-16 -0.41410828
v 0.17733489 1.1102232E-16 -0.4434192
v -0.21364334 1.1102232E-16 -0.42469177
v -0.23234367 1.1102232E-16 -0.3856952
v 0.34398833 1.1102232E-16 -0.39140335
v 0.3822049 1.1102232E-16 -0.34398863
v -0.34398827 1.1102232E-16 -0.38451597
v -0.39847106 1.1102232E-16 -0.25771073
v 0.39539015 1.1102232E-16 -0.22888
v 0.36794892 1.1102232E-16 -0.21258971
v -0.38220504 1.1102232E-16 0.25324616
v 0.3822049 1.1102232E-16 0.017233886
v 0.40995085 1.1102232E-16 0.027022246
v 0.39277175 1.1102232E-16 0.34398827
v -0.3964476 1.1102232E-16 0.26637694
v -0.3964476 1.1102232E-16 0.357119
v 0.34398833 1.1102232E-16 0.3914035
v -0.21044342 1.1102232E-16 0.3914035
v -0.3582309 1.1102232E-16 0.40453428
v -0.22202903 1.1102232E-16 0.41003105
vt 0.5463867 0.8876953
vt 0.54785156 0.8623047
vt 0.30737305 0.859375
vt 0.3076172 0.8828125
vt 0.29296875 0.97021484
vt 0.33618164 0.97265625
vt 0.3413086 0.9501953
vt 0.29296875 0.94677734
vt 0.63671875 0.9482422
vt 0.63427734 0.9716797
vt 0.68359375 0.97802734
vt 0.68652344 0.9550781
vt 0.7036133 0.87060547
vt 0.6621094 0.86865234
vt 0.66259766 0.890625
vt 0.7060547 0.89208984
vt 0.6479492 0.8876953
vt 0.6621094 0.86865234
vt 0.64404297 0.8574219
vt 0.63378906 0.87890625
vt 0.28881836 0.8745117
vt 0.30737305 0.859375
vt 0.28857422 0.8413086
vt 0.27392578 0.8598633
vt 0.61816406 0.93359375
vt 0.6044922 0.9526367
vt 0.62060547 0.96533203
vt 0.63671875 0.9482422
vt 0.30737305 0.859375
vt 0.32958984 0.80322266
vt 0.28857422 0.8413086
vt 0.34521484 0.81884766
vt 0.5673828 0.81884766
vt 0.54785156 0.8623047
vt 0.6113281 0.8652344
vt 0.55322266 0.8666992
vt 0.63671875 0.9482422
vt 0.6586914 0.8959961
vt 0.61816406 0.93359375
vt 0.6748047 0.9116211
vt 0.69433594 0.9433594
vt 0.68652344 0.9550781
vt 0.7939453 0.95166016
vt 0.89697266 0.9116211
vt 0.9350586 0.95214844
vt 0.7939453 0.95166016
vt 0.8022461 0.95947266
vt 0.3413086 0.9501953
vt 0.33081055 0.9082031
vt 0.29296875 0.94677734
vt 0.5253906 0.96191406
vt 0.55322266 0.9082031
vt 0.5908203 0.94873047
vt 0.5161133 0.97021484
vt 0.35302734 0.96191406
vt 0.92871094 0.82958984
vt 0.98291016 0.8515625
vt 0.94433594 0.81396484
vt 0.9301758 0.8745117
vt 0.7060547 0.82958984
vt 0.7089844 0.8671875
vt 0.6621094 0.86865234
vt 0.7036133 0.87060547
vt 0.64404297 0.8574219
vt 0.6904297 0.81396484
vt 0.9301758 0.8745117
vt 0.7089844 0.8671875
vt 0.71191406 0.890625
vt 0.9370117 0.89501953
vt 0.9916992 0.87353516
vt 0.98291016 0.8515625
vt 0.6113281 0.8652344
vt 0.55322266 0.8666992
vt 0.55126953 0.8876953
vt 0.61035156 0.88916016
vt 0.7939453 0.95166016
vt 0.69433594 0.9433594
vt 0.6928711 0.9663086
vt 0.7890625 0.9746094
vt 0.53027344 0.9848633
vt 0.5932617 0.97314453
vt 0.5908203 0.94873047
vt 0.5253906 0.96191406
vt 0.34765625 0.984375
vt 0.51904297 0.99316406
vt 0.5161133 0.97021484
vt 0.35302734 0.96191406
vt 0.93603516 0.97558594
vt 0.9350586 0.95214844
vt 0.8022461 0.95947266
vt 0.7988281 0.9819336
vt 0.7890625 0.9746094
vt 0.7988281 0.9819336
vt 0.8022461 0.95947266
vt 0.7939453 0.95166016
vt 0.69433594 0.9433594
vt 0.68652344 0.9550781
vt 0.68359375 0.97802734
vt 0.6928711 0.9663086
vt 0.33618164 0.97265625
vt 0.34765625 0.984375
vt 0.35302734 0.96191406
vt 0.3413086 0.9501953
vt 0.5253906 0.96191406
vt 0.5161133 0.97021484
vt 0.51904297 0.99316406
vt 0.53027344 0.9848633
vt 0.7089844 0.8671875
vt 0.7036133 0.87060547
vt 0.7060547 0.89208984
vt 0.71191406 0.890625
vt 0.5463867 0.8876953
vt 0.55126953 0.8876953
vt 0.55322266 0.8666992
vt 0.54785156 0.8623047
vt 0.7714844 0.18200684
vt 0.99560547 0.18200684
vt 0.99560547 0.15722656
vt 0.7714844 0.15722656
vt 0.75390625 0.15722656
vt 0.75390625 0.18200684
vt 0.51660156 0.18200684
vt 0.51660156 0.15722656
vt 0.50097656 0.15722656
vt 0.50097656 0.18200684
vt 0.26733398 0.18200684
vt 0.26733398 0.15722656
vt 0.2479248 0.15722656
vt 0.2479248 0.18200684
vt 0.021835327 0.18200684
vt 0.021835327 0.15722656
vt 0.0039749146 0.15722656
vt 0.0039749146 0.18200684
vt 0.7714844 0.15722656
vt 0.99560547 0.15722656
vt 0.99560547 0.08959961
vt 0.7714844 0.08959961
vt 0.75390625 0.08959961
vt 0.75390625 0.15722656
vt 0.51660156 0.15722656
vt 0.51660156 0.08959961
vt 0.50097656 0.08959961
vt 0.50097656 0.15722656
vt 0.26733398 0.15722656
vt 0.26733398 0.08959961
vt 0.2479248 0.08959961
vt 0.2479248 0.15722656
vt 0.021835327 0.15722656
vt 0.021835327 0.08959961
vt 0.0039749146 0.08959961
vt 0.0039749146 0.15722656
vt 0.99560547 0.06994629
vt 0.7714844 0.08959961
vt 0.99560547 0.08959961
vt 0.7714844 0.06994629
vt 0.99560547 0.0016012192
vt 0.7714844 0.0016012192
vt 0.75390625 0.0016012192
vt 0.75390625 0.06994629
vt 0.75390625 0.08959961
vt 0.51660156 0.08959961
vt 0.51660156 0.06994629
vt 0.51660156 0.0016012192
vt 0.50097656 0.0016012192
vt 0.50097656 0.06994629
vt 0.50097656 0.08959961
vt 0.26733398 0.08959961
vt 0.26733398 0.06994629
vt 0.26733398 0.0016012192
vt 0.2479248 0.0016012192
vt 0.2479248 0.06994629
vt 0.2479248 0.08959961
vt 0.021835327 0.08959961
vt 0.021835327 0.06994629
vt 0.021835327 0.0016012192
vt 0.0039749146 0.0016012192
vt 0.0039749146 0.06994629
vt 0.0039749146 0.08959961
vt 0.7714844 0.72802734
vt 0.99560547 0.72802734
vt 0.99560547 0.70458984
vt 0.7714844 0.70458984
vt 0.75390625 0.70458984
vt 0.75390625 0.72802734
vt 0.51660156 0.72802734
vt 0.51660156 0.70458984
vt 0.50097656 0.70458984
vt 0.50097656 0.72802734
vt 0.26733398 0.72802734
vt 0.26733398 0.70458984
vt 0.2479248 0.70458984
vt 0.2479248 0.72802734
vt 0.021835327 0.72802734
vt 0.021835327 0.70458984
vt 0.0039749146 0.70458984
vt 0.0039749146 0.72802734
vt 0.7714844 0.79003906
vt 0.99560547 0.79003906
vt 0.99560547 0.72802734
vt 0.7714844 0.72802734
vt 0.75390625 0.72802734
vt 0.75390625 0.79003906
vt 0.51660156 0.79003906
vt 0.51660156 0.72802734
vt 0.50097656 0.72802734
vt 0.50097656 0.79003906
vt 0.26733398 0.79003906
vt 0.26733398 0.72802734
vt 0.2479248 0.72802734
vt 0.2479248 0.79003906
vt 0.021835327 0.79003906
vt 0.021835327 0.72802734
vt 0.0039749146 0.72802734
vt 0.0039749146 0.79003906
vt 0.2626953 0.80566406
vt 0.0039749146 0.80566406
vt 0.2626953 0.9819336
vt 0.0039749146 0.9819336
vt 0.021835327 0.9970703
vt 0.24487305 0.9970703
vt 0.7714844 0.70458984
vt 0.99560547 0.70458984
vt 0.99560547 0.57470703
vt 0.7714844 0.57470703
vt 0.75390625 0.57470703
vt 0.75390625 0.70458984
vt 0.51660156 0.70458984
vt 0.7714844 0.5629883
vt 0.75390625 0.56347656
vt 0.51660156 0.57470703
vt 0.7714844 0.44555664
vt 0.99560547 0.4248047
vt 0.75390625 0.44506836
vt 0.7714844 0.4248047
vt 0.99560547 0.29003906
vt 0.7714844 0.29003906
vt 0.75390625 0.29003906
vt 0.75390625 0.4248047
vt 0.51660156 0.4248047
vt 0.50097656 0.4248047
vt 0.51660156 0.29003906
vt 0.50097656 0.29003906
vt 0.26733398 0.29003906
vt 0.50097656 0.57470703
vt 0.50097656 0.70458984
vt 0.26733398 0.70458984
vt 0.26733398 0.4104004
vt 0.2479248 0.29003906
vt 0.26733398 0.5878906
vt 0.26733398 0.57470703
vt 0.26733398 0.4248047
vt 0.2479248 0.41088867
vt 0.2479248 0.5883789
vt 0.2479248 0.70458984
vt 0.021835327 0.70458984
vt 0.2479248 0.4248047
vt 0.021835327 0.4248047
vt 0.021835327 0.29003906
vt 0.0039749146 0.29003906
vt 0.0039749146 0.4248047
vt 0.2479248 0.57470703
vt 0.021835327 0.57470703
vt 0.0039749146 0.57470703
vt 0.0039749146 0.70458984
vt 0.7714844 0.29003906
vt 0.99560547 0.29003906
vt 0.99560547 0.2709961
vt 0.7714844 0.2709961
vt 0.99560547 0.24841309
vt 0.75390625 0.2709961
vt 0.75390625 0.29003906
vt 0.51660156 0.29003906
vt 0.7714844 0.24841309
vt 0.99560547 0.22521973
vt 0.75390625 0.24841309
vt 0.51660156 0.2709961
vt 0.7714844 0.22521973
vt 0.99560547 0.18200684
vt 0.7714844 0.18200684
vt 0.75390625 0.18200684
vt 0.75390625 0.22521973
vt 0.51660156 0.24841309
vt 0.51660156 0.22521973
vt 0.51660156 0.18200684
vt 0.50097656 0.18200684
vt 0.50097656 0.2709961
vt 0.50097656 0.29003906
vt 0.26733398 0.29003906
vt 0.50097656 0.22521973
vt 0.50097656 0.24841309
vt 0.26733398 0.2709961
vt 0.26733398 0.22521973
vt 0.26733398 0.18200684
vt 0.2479248 0.18200684
vt 0.26733398 0.24841309
vt 0.2479248 0.2709961
vt 0.2479248 0.29003906
vt 0.021835327 0.29003906
vt 0.2479248 0.22521973
vt 0.2479248 0.24841309
vt 0.021835327 0.2709961
vt 0.021835327 0.22521973
vt 0.021835327 0.18200684
vt 0.0039749146 0.18200684
vt 0.0039749146 0.22521973
vt 0.021835327 0.24841309
vt 0.0039749146 0.24841309
vt 0.0039749146 0.2709961
vt 0.0039749146 0.29003906
vt 0.82177734 0.609375
vt 0.8173828 0.6113281
vt 0.8183594 0.6694336
vt 0.82373047 0.6723633
vt 0.8256836 0.58691406
vt 0.8330078 0.58154297
vt 0.82373047 0.68896484
vt 0.84228516 0.6977539
vt 0.85009766 0.5800781
vt 0.85253906 0.5839844
vt 0.91796875 0.6977539
vt 0.88671875 0.5830078
vt 0.8881836 0.57910156
vt 0.9355469 0.5830078
vt 0.9199219 0.7001953
vt 0.93359375 0.7006836
vt 0.9423828 0.5908203
vt 0.9394531 0.67285156
vt 0.94091797 0.6948242
vt 0.9423828 0.6748047
vn 0.38061523 -0.60009766 0.7036133
vn -0 0 1
vn 0.3762207 0 0.9267578
vn 0.29174805 -0.63134766 0.7182617
vn -0.43920898 -0.60595703 -0.66308594
vn -0.42797852 -0.6074219 -0.6694336
vn -0.010574341 -3.385544E-05 -1
vn -0.5522461 -0.008262634 -0.8334961
vn 0.9223633 -4.1544437E-05 -0.38598633
vn 0.70166016 -0.64941406 -0.29345703
vn 0.71484375 -0.60253906 0.35498047
vn 0.99365234 -7.981062E-05 -0.11383057
vn -1 0 0
vn -0.9428711 7.748604E-07 0.33276367
vn -0.72509766 -0.63916016 0.25585938
vn -0.71240234 -0.6323242 -0.30493164
vn -0.72509766 -0.63916016 0.25585938
vn -0.9428711 7.748604E-07 0.33276367
vn -0.44995117 -0.0004181862 0.8930664
vn -0.35107422 -0.625 0.6972656
vn 0.29174805 -0.63134766 0.7182617
vn 0.3762207 0 0.9267578
vn 0.91015625 -0.00086402893 0.4140625
vn 0.70410156 -0.63378906 0.3203125
vn 0.4970703 -0.00044488907 -0.8676758
vn 0.38452148 -0.63378906 -0.67089844
vn 0.70166016 -0.64941406 -0.29345703
vn 0.9223633 -4.1544437E-05 -0.38598633
vn -0 1 0
vn -0 1 0
vn -0 1 0
vn -0 1 0
vn 0.055999756 0.9980469 -0.030929565
vn 0.04748535 0.99853516 -0.01386261
vn 0.08392334 0.99560547 -0.046325684
vn 0.09484863 0.9951172 -0.027694702
vn -0.017547607 0.9975586 0.06530762
vn -0.037322998 0.9980469 0.04598999
vn -0.062438965 0.9970703 0.044036865
vn -0.06896973 0.9970703 0.033843994
vn -0.034851074 0.99853516 0.042907715
vn 0.045928955 0.99609375 0.07739258
vn -0.07128906 0.9975586 0.014198303
vn -0.07128906 0.9975586 0.014198303
vn -0.034332275 0.99853516 0.045196533
vn -0.0713501 0.9975586 0.014175415
vn -0.034332275 0.99853516 0.045196533
vn -0.01902771 0.99853516 0.04837036
vn -0.028121948 0.99853516 0.047729492
vn -0.048828125 0.9975586 0.046661377
vn -0.009346008 0.9995117 0.029754639
vn -0.037322998 0.9980469 0.04598999
vn -0.062438965 0.9970703 0.044036865
vn 0.027145386 0.9995117 0.0017499924
vn 0.027145386 0.9995117 0.0017499924
vn -0 1 0
vn -0.048828125 0.9975586 0.046661377
vn -0.028121948 0.99853516 0.047729492
vn -0 1 0
vn 0.021591187 0.9975586 -0.066589355
vn -0.004196167 0.9975586 -0.06738281
vn 0.032348633 0.9946289 -0.09979248
vn -0.008369446 0.99072266 -0.13439941
vn 0.08392334 0.99560547 -0.046325684
vn 0.055999756 0.9980469 -0.030929565
vn -0.9819336 -0.0062332153 -0.18859863
vn -0.9995117 0.0016794205 0.0317688
vn -0.7114258 -0.6323242 -0.3059082
vn -0.7368164 -0.6645508 -0.12365723
vn -0.43920898 -0.60595703 -0.66308594
vn -0.5522461 -0.008262634 -0.8334961
vn -0.44995117 -0.0004181862 0.8930664
vn -0.04071045 -0.0007610321 0.99902344
vn 0.38208008 -0.6015625 0.70166016
vn -0.35107422 -0.625 0.6972656
vn 0.9980469 0.0017490387 -0.061462402
vn 0.9980469 0.0017490387 -0.061462402
vn 0.7036133 -0.60546875 0.3720703
vn 0.65625 -0.58154297 -0.4802246
vn 0.4658203 -0.6196289 -0.63134766
vn 0.38452148 -0.63378906 -0.67089844
vn 0.4970703 -0.00044488907 -0.8676758
vn 0.14770508 -0.000828743 -0.9892578
vn -0.4375 -0.6088867 -0.6616211
vn 0.40356445 -0.6040039 -0.6870117
vn -0.047790527 0.000111699104 -0.99902344
vn -0.047790527 0.000111699104 -0.99902344
vn 0.70410156 -0.63378906 0.3203125
vn 0.91015625 -0.00086402893 0.4140625
vn 0.99853516 -0.001584053 0.054382324
vn 0.6689453 -0.58251953 -0.46240234
vn 0.65625 -0.58154297 -0.4802246
vn 0.6689453 -0.58251953 -0.46240234
vn 0.3322754 0.04916382 -0.94189453
vn 0.3322754 0.04916382 -0.94189453
vn 0.5102539 0.0013065338 0.8598633
vn 0.5102539 0.0013065338 0.8598633
vn 0.71484375 -0.60253906 0.35498047
vn 0.7036133 -0.60546875 0.3720703
vn -0.42797852 -0.6074219 -0.6694336
vn -0.4375 -0.6088867 -0.6616211
vn -0.90185547 -0.0052833557 -0.43237305
vn -0.90185547 -0.0052833557 -0.43237305
vn 0.8989258 -0.010971069 -0.43823242
vn 0.8989258 -0.010971069 -0.43823242
vn 0.40356445 -0.6040039 -0.6870117
vn 0.4658203 -0.6196289 -0.63134766
vn -0.6777344 -0.02684021 -0.7348633
vn -0.6777344 -0.02684021 -0.7348633
vn -0.71240234 -0.6323242 -0.30493164
vn -0.7114258 -0.6323242 -0.3059082
vn 0.38061523 -0.60009766 0.7036133
vn 0.38208008 -0.6015625 0.70166016
vn 0.8486328 0.035888672 0.52783203
vn 0.8486328 0.035888672 0.52783203
vn 0.3774414 -0.91845703 0.11932373
vn 0.37158203 -0.91845703 -0.13623047
vn 0.3713379 -0.91845703 -0.1361084
vn 0.3774414 -0.91845703 0.11932373
vn 0.14367676 -0.92041016 0.3635254
vn 0.1439209 -0.92041016 0.3635254
vn -0.111694336 -0.9223633 0.36938477
vn -0.111694336 -0.9223633 0.36938477
vn -0.3557129 -0.9248047 0.13574219
vn -0.35595703 -0.9248047 0.13586426
vn -0.3618164 -0.9248047 -0.11968994
vn -0.3618164 -0.9248047 -0.11968994
vn -0.12805176 -0.92285156 -0.36376953
vn -0.1282959 -0.9223633 -0.36401367
vn 0.12731934 -0.92041016 -0.3696289
vn 0.12731934 -0.92041016 -0.3696289
vn 0.3713379 -0.91845703 -0.1361084
vn 0.37158203 -0.91845703 -0.13623047
vn 0.92822266 -0.0053749084 0.37231445
vn 0.9194336 -0.0053253174 -0.3930664
vn 0.9194336 -0.0053520203 -0.3930664
vn 0.92822266 -0.005279541 0.37231445
vn 0.3930664 -0.002199173 0.9194336
vn 0.3930664 -0.0022449493 0.9194336
vn -0.37231445 0.0019454956 0.92822266
vn -0.37231445 0.002122879 0.92822266
vn -0.9194336 0.0051841736 0.3930664
vn -0.9194336 0.0051345825 0.3930664
vn -0.92822266 0.005168915 -0.37231445
vn -0.92822266 0.0050849915 -0.37231445
vn -0.3930664 0.0019187927 -0.9194336
vn -0.3930664 0.0019483566 -0.9194336
vn 0.37231445 -0.0023040771 -0.92822266
vn 0.37231445 -0.002407074 -0.92822266
vn 0.9194336 -0.0053520203 -0.3930664
vn 0.9194336 -0.0053253174 -0.3930664
vn 0.82714844 0.4572754 -0.32666016
vn 0.5649414 0.7988281 0.20617676
vn 0.5649414 0.7988281 -0.20617676
vn 0.82714844 0.4572754 0.32666016
vn 0.9238281 0.0015830994 -0.3828125
vn 0.9238281 0.0015869141 0.3828125
vn 0.3828125 0.0015830994 0.9238281
vn 0.32666016 0.4572754 0.82714844
vn 0.20617676 0.7988281 0.5649414
vn -0.20617676 0.7988281 0.5649414
vn -0.32666016 0.4572754 0.82714844
vn -0.3828125 0.0015869141 0.9238281
vn -0.9238281 0.0015830994 0.3828125
vn -0.82714844 0.4572754 0.32666016
vn -0.5649414 0.7988281 0.20617676
vn -0.5649414 0.7988281 -0.20617676
vn -0.82714844 0.4572754 -0.32666016
vn -0.9238281 0.0015869141 -0.3828125
vn -0.3828125 0.001584053 -0.9238281
vn -0.32666016 0.4572754 -0.82714844
vn -0.20617676 0.7988281 -0.5649414
vn 0.20617676 0.7988281 -0.5649414
vn 0.32666016 0.4572754 -0.82714844
vn 0.3828125 0.0015869141 -0.9238281
vn 0.9238281 0.0015830994 -0.3828125
vn 0.82714844 0.4572754 -0.32666016
vn 0.5649414 0.7988281 -0.20617676
vn 0.37182617 -0.9194336 0.12963867
vn 0.37182617 -0.9194336 -0.12963867
vn 0.37158203 -0.9194336 -0.1295166
vn 0.37182617 -0.9194336 0.12963867
vn 0.1295166 -0.9194336 0.37158203
vn 0.12963867 -0.9194336 0.37182617
vn -0.12963867 -0.9194336 0.37182617
vn -0.12963867 -0.9194336 0.37182617
vn -0.37158203 -0.9194336 0.1295166
vn -0.37182617 -0.9194336 0.12963867
vn -0.37182617 -0.9194336 -0.12963867
vn -0.37182617 -0.9194336 -0.12963867
vn -0.1295166 -0.9194336 -0.37158203
vn -0.12963867 -0.9194336 -0.37182617
vn 0.12963867 -0.9194336 -0.37182617
vn 0.12963867 -0.9194336 -0.37182617
vn 0.37158203 -0.9194336 -0.1295166
vn 0.37182617 -0.9194336 -0.12963867
vn 0.6035156 0.6665039 0.43774414
vn 0.5986328 0.67822266 -0.42651367
vn 0.9243164 -0.0033473969 -0.38208008
vn 0.9243164 -0.003829956 0.38208008
vn 0.38330078 -0.0038146973 0.9238281
vn 0.28710938 0.3503418 0.89160156
vn -0.28710938 0.3503418 0.89160156
vn -0.38330078 -0.0038337708 0.9238281
vn -0.9243164 -0.0038146973 0.38208008
vn -0.61328125 0.66015625 0.43359375
vn -0.6269531 0.6591797 -0.41479492
vn -0.9243164 -0.003829956 -0.38208008
vn -0.38330078 -0.0038146973 -0.9238281
vn -0.30249023 0.34838867 -0.88720703
vn 0.27172852 0.35205078 -0.8955078
vn 0.38330078 -0.0033626556 -0.9238281
vn 0.9243164 -0.0033473969 -0.38208008
vn 0.5986328 0.67822266 -0.42651367
vn -0.6269531 0.6591797 -0.41479492
vn 0.5986328 0.67822266 -0.42651367
vn -0.61328125 0.66015625 0.43359375
vn 0.6035156 0.6665039 0.43774414
vn 0.28710938 0.3503418 0.89160156
vn -0.28710938 0.3503418 0.89160156
vn 0.92333984 -0.036193848 0.38232422
vn 0.92333984 -0.036193848 -0.38232422
vn 0.9472656 0.062683105 -0.3137207
vn 0.9067383 0.20446777 0.36865234
vn 0.37182617 0.1928711 0.9082031
vn 0.38232422 -0.036193848 0.92333984
vn -0.38232422 -0.036193848 0.92333984
vn 0.90527344 0.22387695 0.36108398
vn 0.35546875 0.2133789 0.91015625
vn -0.31982422 0.05432129 0.9458008
vn 0.91503906 -0.1373291 0.37963867
vn 0.9506836 -0.030471802 -0.30810547
vn 0.35424805 -0.13647461 0.92529297
vn 0.91503906 -0.1182251 0.38549805
vn 0.9223633 0.038726807 -0.3840332
vn 0.9238281 0.038848877 0.38085938
vn 0.38378906 0.040771484 0.9223633
vn 0.37036133 -0.117614746 0.9213867
vn -0.32177734 -0.027877808 0.94628906
vn -0.94921875 0.084472656 0.3034668
vn -0.38085938 0.043273926 0.9238281
vn -0.9194336 0.036468506 0.39160156
vn -0.9277344 0.0013847351 -0.37353516
vn -0.94873047 -0.074645996 0.30664062
vn -0.9199219 -0.02822876 0.390625
vn -0.9272461 0.0020484924 -0.37426758
vn -0.9013672 0.23156738 -0.36645508
vn -0.37060547 -0.006904602 -0.92871094
vn -0.9082031 -0.20715332 -0.36401367
vn -0.9042969 -0.2076416 -0.37304688
vn -0.89746094 0.23046875 -0.37597656
vn -0.35253906 0.2680664 -0.8964844
vn -0.3618164 -0.23583984 -0.90185547
vn -0.3701172 0.0061683655 -0.92871094
vn 0.39501953 -0.024108887 -0.91845703
vn -0.35351562 0.2705078 -0.8955078
vn 0.3227539 0.110961914 -0.9399414
vn 0.39379883 0.025604248 -0.9189453
vn 0.9223633 0.038726807 -0.3840332
vn 0.9506836 -0.030471802 -0.30810547
vn -0.36328125 -0.23803711 -0.9008789
vn 0.31811523 -0.09698486 -0.9428711
vn 0.9472656 0.062683105 -0.3137207
vn 0.92333984 -0.036193848 -0.38232422
vn 0.45874023 0.875 0.15429688
vn 0.45141602 0.8754883 -0.1730957
vn 0.5307617 0.82177734 -0.20715332
vn 0.5395508 0.82177734 0.18395996
vn 0.72558594 0.61816406 -0.30200195
vn 0.20056152 0.8198242 0.5366211
vn 0.16687012 0.8696289 0.46411133
vn -0.16064453 0.8671875 0.4716797
vn 0.73828125 0.61865234 0.2685547
vn 0.890625 0.23486328 -0.38916016
vn 0.29711914 0.61621094 0.7294922
vn -0.19018555 0.81640625 0.54541016
vn 0.90771484 0.23486328 0.3479004
vn 0.91503906 0.0040359497 -0.4033203
vn 0.9321289 0.004020691 0.36157227
vn 0.40356445 -0.00056028366 0.91503906
vn 0.3869629 0.22766113 0.8935547
vn -0.27441406 0.6113281 0.7421875
vn -0.35009766 0.22143555 0.91015625
vn -0.36157227 -0.007080078 0.9321289
vn -0.91503906 -0.011657715 0.4033203
vn -0.5449219 0.8125 0.2076416
vn -0.47094727 0.8647461 0.17456055
vn -0.47827148 0.8647461 -0.1529541
vn -0.89453125 0.21984863 0.38867188
vn -0.734375 0.60839844 0.30151367
vn -0.55371094 0.8125 -0.18322754
vn -0.9111328 0.21984863 -0.34838867
vn -0.9321289 -0.011680603 -0.3618164
vn -0.4033203 -0.0070648193 -0.91503906
vn -0.7470703 0.60791016 -0.2692871
vn -0.21557617 0.8144531 -0.5390625
vn -0.18225098 0.8701172 -0.4580078
vn 0.14501953 0.8730469 -0.46557617
vn -0.39111328 0.22692871 -0.89208984
vn -0.30737305 0.6098633 -0.73046875
vn 0.17565918 0.8178711 -0.54785156
vn 0.34643555 0.23327637 -0.9086914
vn 0.3618164 -0.00057792664 -0.9321289
vn 0.91503906 0.0040359497 -0.4033203
vn 0.890625 0.23486328 -0.38916016
vn 0.26293945 0.6152344 -0.74365234
vn 0.72558594 0.61816406 -0.30200195
vn 0.5307617 0.82177734 -0.20715332
vn 0.45141602 0.8754883 -0.1730957
vn 0.4658203 -0.6196289 -0.63134766
vn 0.40356445 -0.6040039 -0.6870117
vn -0.4375 -0.6088867 -0.6616211
vn -0.42797852 -0.6074219 -0.6694336
vn 0.38452148 -0.63378906 -0.67089844
vn 0.70166016 -0.64941406 -0.29345703
vn -0.43920898 -0.60595703 -0.66308594
vn -0.7368164 -0.6645508 -0.12365723
vn 0.71484375 -0.60253906 0.35498047
vn 0.7036133 -0.60546875 0.3720703
vn -0.7114258 -0.6323242 -0.3059082
vn 0.65625 -0.58154297 -0.4802246
vn 0.6689453 -0.58251953 -0.46240234
vn 0.70410156 -0.63378906 0.3203125
vn -0.71240234 -0.6323242 -0.30493164
vn -0.72509766 -0.63916016 0.25585938
vn 0.29174805 -0.63134766 0.7182617
vn 0.38061523 -0.60009766 0.7036133
vn -0.35107422 -0.625 0.6972656
vn 0.38208008 -0.6015625 0.70166016
g dungoen_pillar_0
f 3/3/3 2/2/2 1/1/1
f 4/4/4 3/3/3 1/1/1
f 7/7/7 6/6/6 5/5/5
f 8/8/8 7/7/7 5/5/5
f 11/11/11 10/10/10 9/9/9
f 12/12/12 11/11/11 9/9/9
f 15/15/15 14/14/14 13/13/13
f 16/16/16 15/15/15 13/13/13
f 19/19/19 18/18/18 17/17/17
f 20/20/20 19/19/19 17/17/17
f 23/23/23 22/22/22 21/21/21
f 24/24/24 23/23/23 21/21/21
f 27/27/27 26/26/26 25/25/25
f 28/28/28 27/27/27 25/25/25
f 31/31/31 30/30/30 29/29/29
f 30/30/30 32/32/32 29/29/29
f 32/32/32 33/33/33 29/29/29
f 33/33/33 34/34/34 29/29/29
f 33/33/33 35/35/35 34/34/34
f 35/35/35 36/36/36 34/34/34
f 39/39/39 38/38/38 37/37/37
f 38/38/38 40/40/40 37/37/37
f 37/37/37 40/40/40 41/41/41
f 41/41/41 42/42/42 37/37/37
f 41/41/41 40/40/40 43/43/43
f 40/40/40 44/44/44 43/43/43
f 46/46/46 44/44/44 45/45/45
f 47/47/47 46/46/46 45/45/45
f 50/50/50 49/49/49 48/48/48
f 48/48/48 49/49/49 51/51/51
f 49/49/49 52/52/52 51/51/51
f 51/51/51 52/52/52 53/53/53
f 51/51/51 54/54/54 48/48/48
f 54/54/54 55/55/55 48/48/48
f 58/58/58 57/57/57 56/56/56
f 57/57/57 59/59/59 56/56/56
f 60/60/60 56/56/56 59/59/59
f 61/61/61 60/60/60 59/59/59
f 62/62/62 60/60/60 61/61/61
f 63/63/63 62/62/62 61/61/61
f 62/62/62 64/64/64 60/60/60
f 64/64/64 65/65/65 60/60/60
f 68/68/68 67/67/67 66/66/66
f 69/69/69 68/68/68 66/66/66
f 69/69/69 66/66/66 70/70/70
f 66/66/66 71/71/71 70/70/70
f 74/74/74 73/73/73 72/72/72
f 75/75/75 74/74/74 72/72/72
f 78/78/78 77/77/77 76/76/76
f 79/79/79 78/78/78 76/76/76
f 82/82/82 81/81/81 80/80/80
f 83/83/83 82/82/82 80/80/80
f 86/86/86 85/85/85 84/84/84
f 87/87/87 86/86/86 84/84/84
f 90/90/90 89/89/89 88/88/88
f 91/91/91 90/90/90 88/88/88
f 94/94/94 93/93/93 92/92/92
f 95/95/95 94/94/94 92/92/92
f 98/98/98 97/97/97 96/96/96
f 99/99/99 98/98/98 96/96/96
f 102/102/102 101/101/101 100/100/100
f 103/103/103 102/102/102 100/100/100
f 106/106/106 105/105/105 104/104/104
f 107/107/107 106/106/106 104/104/104
f 110/110/110 109/109/109 108/108/108
f 111/111/111 110/110/110 108/108/108
f 114/114/114 113/113/113 112/112/112
f 115/115/115 114/114/114 112/112/112
f 118/118/118 117/117/117 116/116/116
f 119/119/119 118/118/118 116/116/116
f 119/119/119 116/116/116 120/120/120
f 116/116/116 121/121/121 120/120/120
f 120/120/120 121/121/121 122/122/122
f 123/123/123 120/120/120 122/122/122
f 123/123/123 122/122/122 124/124/124
f 122/122/122 125/125/125 124/124/124
f 124/124/124 125/125/125 126/126/126
f 127/127/127 124/124/124 126/126/126
f 127/127/127 126/126/126 128/128/128
f 126/126/126 129/129/129 128/128/128
f 128/128/128 129/129/129 130/130/130
f 131/131/131 128/128/128 130/130/130
f 131/131/131 130/130/130 132/132/132
f 130/130/130 133/133/133 132/132/132
f 136/136/136 135/135/135 134/134/134
f 137/137/137 136/136/136 134/134/134
f 138/138/138 137/137/137 134/134/134
f 139/139/139 138/138/138 134/134/134
f 138/138/138 139/139/139 140/140/140
f 141/141/141 138/138/138 140/140/140
f 142/142/142 141/141/141 140/140/140
f 143/143/143 142/142/142 140/140/140
f 142/142/142 143/143/143 144/144/144
f 145/145/145 142/142/142 144/144/144
f 146/146/146 145/145/145 144/144/144
f 147/147/147 146/146/146 144/144/144
f 146/146/146 147/147/147 148/148/148
f 149/149/149 146/146/146 148/148/148
f 150/150/150 149/149/149 148/148/148
f 151/151/151 150/150/150 148/148/148
f 154/154/154 153/153/153 152/152/152
f 153/153/153 155/155/155 152/152/152
f 156/156/156 152/152/152 155/155/155
f 157/157/157 156/156/156 155/155/155
f 158/158/158 157/157/157 155/155/155
f 159/159/159 155/155/155 153/153/153
f 159/159/159 158/158/158 155/155/155
f 160/160/160 159/159/159 153/153/153
f 160/160/160 161/161/161 159/159/159
f 158/158/158 159/159/159 162/162/162
f 161/161/161 162/162/162 159/159/159
f 163/163/163 158/158/158 162/162/162
f 164/164/164 163/163/163 162/162/162
f 165/165/165 162/162/162 161/161/161
f 165/165/165 164/164/164 162/162/162
f 166/166/166 165/165/165 161/161/161
f 166/166/166 167/167/167 165/165/165
f 164/164/164 165/165/165 168/168/168
f 167/167/167 168/168/168 165/165/165
f 169/169/169 164/164/164 168/168/168
f 170/170/170 169/169/169 168/168/168
f 171/171/171 168/168/168 167/167/167
f 171/171/171 170/170/170 168/168/168
f 172/172/172 171/171/171 167/167/167
f 172/172/172 173/173/173 171/171/171
f 171/171/171 174/174/174 170/170/170
f 173/173/173 174/174/174 171/171/171
f 174/174/174 175/175/175 170/170/170
f 176/176/176 175/175/175 174/174/174
f 177/177/177 176/176/176 174/174/174
f 177/177/177 174/174/174 173/173/173
f 178/178/178 177/177/177 173/173/173
f 181/181/181 180/180/180 179/179/179
f 182/182/182 181/181/181 179/179/179
f 182/182/182 179/179/179 183/183/183
f 179/179/179 184/184/184 183/183/183
f 183/183/183 184/184/184 185/185/185
f 186/186/186 183/183/183 185/185/185
f 186/186/186 185/185/185 187/187/187
f 185/185/185 188/188/188 187/187/187
f 187/187/187 188/188/188 189/189/189
f 190/190/190 187/187/187 189/189/189
f 190/190/190 189/189/189 191/191/191
f 189/189/189 192/192/192 191/191/191
f 191/191/191 192/192/192 193/193/193
f 194/194/194 191/191/191 193/193/193
f 194/194/194 193/193/193 195/195/195
f 193/193/193 196/196/196 195/195/195
f 199/199/199 198/198/198 197/197/197
f 200/200/200 199/199/199 197/197/197
f 200/200/200 197/197/197 201/201/201
f 197/197/197 202/202/202 201/201/201
f 201/201/201 202/202/202 203/203/203
f 204/204/204 201/201/201 203/203/203
f 204/204/204 203/203/203 205/205/205
f 203/203/203 206/206/206 205/205/205
f 205/205/205 206/206/206 207/207/207
f 208/208/208 205/205/205 207/207/207
f 208/208/208 207/207/207 209/209/209
f 207/207/207 210/210/210 209/209/209
f 209/209/209 210/210/210 211/211/211
f 212/212/212 209/209/209 211/211/211
f 212/212/212 211/211/211 213/213/213
f 211/211/211 214/214/214 213/213/213
f 211/211/211 210/210/210 215/215/215
f 216/216/216 211/211/211 215/215/215
f 216/216/216 215/215/215 217/217/217
f 218/218/218 216/216/216 217/217/217
f 219/219/219 218/218/218 217/217/217
f 220/220/220 219/219/219 217/217/217
f 223/223/223 222/222/222 221/221/221
f 224/224/224 223/223/223 221/221/221
f 224/224/224 221/221/221 225/225/225
f 221/221/221 226/226/226 225/225/225
f 225/225/225 226/226/226 227/227/227
f 228/228/228 223/223/223 224/224/224
f 224/224/224 225/225/225 229/229/229
f 228/228/228 224/224/224 229/229/229
f 230/230/230 225/225/225 227/227/227
f 229/229/229 225/225/225 230/230/230
f 228/228/228 231/231/231 223/223/223
f 231/231/231 232/232/232 223/223/223
f 228/228/228 229/229/229 233/233/233
f 233/233/233 229/229/229 230/230/230
f 231/231/231 228/228/228 233/233/233
f 231/231/231 234/234/234 232/232/232
f 235/235/235 232/232/232 234/234/234
f 236/236/236 235/235/235 234/234/234
f 236/236/236 234/234/234 237/237/237
f 234/234/234 231/231/231 238/238/238
f 231/231/231 233/233/233 238/238/238
f 234/234/234 238/238/238 237/237/237
f 239/239/239 238/238/238 233/233/233
f 237/237/237 238/238/238 239/239/239
f 239/239/239 233/233/233 230/230/230
f 239/239/239 230/230/230 240/240/240
f 241/241/241 237/237/237 239/239/239
f 241/241/241 239/239/239 242/242/242
f 239/239/239 240/240/240 242/242/242
f 243/243/243 242/242/242 240/240/240
f 230/230/230 244/244/244 240/240/240
f 230/230/230 227/227/227 244/244/244
f 227/227/227 245/245/245 244/244/244
f 244/244/244 245/245/245 246/246/246
f 247/247/247 243/243/243 240/240/240
f 243/243/243 247/247/247 248/248/248
f 249/249/249 244/244/244 246/246/246
f 240/240/240 244/244/244 250/250/250
f 249/249/249 250/250/250 244/244/244
f 247/247/247 240/240/240 251/251/251
f 251/251/251 240/240/240 250/250/250
f 247/247/247 252/252/252 248/248/248
f 247/247/247 251/251/251 252/252/252
f 249/249/249 246/246/246 253/253/253
f 246/246/246 254/254/254 253/253/253
f 253/253/253 254/254/254 255/255/255
f 251/251/251 250/250/250 256/256/256
f 251/251/251 256/256/256 252/252/252
f 248/248/248 252/252/252 257/257/257
f 252/252/252 256/256/256 257/257/257
f 258/258/258 248/248/248 257/257/257
f 258/258/258 257/257/257 259/259/259
f 257/257/257 260/260/260 259/259/259
f 250/250/250 249/249/249 261/261/261
f 249/249/249 253/253/253 261/261/261
f 250/250/250 261/261/261 256/256/256
f 257/257/257 262/262/262 260/260/260
f 257/257/257 256/256/256 262/262/262
f 256/256/256 261/261/261 262/262/262
f 262/262/262 261/261/261 253/253/253
f 262/262/262 253/253/253 255/255/255
f 262/262/262 263/263/263 260/260/260
f 262/262/262 255/255/255 263/263/263
f 255/255/255 264/264/264 263/263/263
f 267/267/267 266/266/266 265/265/265
f 268/268/268 267/267/267 265/265/265
f 269/269/269 267/267/267 268/268/268
f 270/270/270 268/268/268 265/265/265
f 271/271/271 270/270/270 265/265/265
f 270/270/270 271/271/271 272/272/272
f 273/273/273 269/269/269 268/268/268
f 274/274/274 269/269/269 273/273/273
f 268/268/268 270/270/270 275/275/275
f 273/273/273 268/268/268 275/275/275
f 276/276/276 270/270/270 272/272/272
f 275/275/275 270/270/270 276/276/276
f 277/277/277 274/274/274 273/273/273
f 278/278/278 274/274/274 277/277/277
f 279/279/279 278/278/278 277/277/277
f 279/279/279 277/277/277 280/280/280
f 277/277/277 273/273/273 281/281/281
f 273/273/273 275/275/275 281/281/281
f 277/277/277 281/281/281 280/280/280
f 281/281/281 275/275/275 282/282/282
f 282/282/282 275/275/275 276/276/276
f 280/280/280 281/281/281 283/283/283
f 283/283/283 281/281/281 282/282/282
f 284/284/284 280/280/280 283/283/283
f 284/284/284 283/283/283 285/285/285
f 286/286/286 276/276/276 272/272/272
f 287/287/287 286/286/286 272/272/272
f 286/286/286 287/287/287 288/288/288
f 283/283/283 282/282/282 289/289/289
f 283/283/283 289/289/289 285/285/285
f 282/282/282 276/276/276 290/290/290
f 276/276/276 286/286/286 290/290/290
f 282/282/282 290/290/290 289/289/289
f 291/291/291 286/286/286 288/288/288
f 290/290/290 286/286/286 291/291/291
f 285/285/285 289/289/289 292/292/292
f 293/293/293 285/285/285 292/292/292
f 293/293/293 292/292/292 294/294/294
f 289/289/289 290/290/290 295/295/295
f 292/292/292 289/289/289 295/295/295
f 295/295/295 290/290/290 291/291/291
f 296/296/296 291/291/291 288/288/288
f 297/297/297 296/296/296 288/288/288
f 296/296/296 297/297/297 298/298/298
f 292/292/292 299/299/299 294/294/294
f 292/292/292 295/295/295 299/299/299
f 295/295/295 291/291/291 300/300/300
f 291/291/291 296/296/296 300/300/300
f 295/295/295 300/300/300 299/299/299
f 301/301/301 296/296/296 298/298/298
f 300/300/300 296/296/296 301/301/301
f 294/294/294 299/299/299 302/302/302
f 303/303/303 294/294/294 302/302/302
f 303/303/303 302/302/302 304/304/304
f 302/302/302 305/305/305 304/304/304
f 299/299/299 300/300/300 306/306/306
f 302/302/302 299/299/299 306/306/306
f 302/302/302 306/306/306 305/305/305
f 306/306/306 300/300/300 301/301/301
f 306/306/306 307/307/307 305/305/305
f 306/306/306 301/301/301 307/307/307
f 301/301/301 308/308/308 307/307/307
f 308/308/308 301/301/301 298/298/298
f 309/309/309 308/308/308 298/298/298
f 312/312/312 311/311/311 310/310/310
f 310/310/310 313/313/313 312/312/312
f 310/310/310 314/314/314 313/313/313
f 314/314/314 315/315/315 313/313/313
f 315/315/315 316/316/316 313/313/313
f 315/315/315 317/317/317 316/316/316
f 315/315/315 318/318/318 317/317/317
f 318/318/318 319/319/319 317/317/317
f 319/319/319 320/320/320 317/317/317
f 319/319/319 321/321/321 320/320/320
f 321/321/321 322/322/322 320/320/320
f 322/322/322 323/323/323 320/320/320
f 323/323/323 324/324/324 320/320/320
f 323/323/323 325/325/325 324/324/324
f 323/323/323 326/326/326 325/325/325
f 326/326/326 327/327/327 325/325/325
f 327/327/327 328/328/328 325/325/325
f 327/327/327 329/329/329 328/328/328
