g Ladnmark1
v 5.381634 0.36351293 -1.9799635
v 5.009906 0.3618904 -5.433378
v 5.1131306 -0.38739845 -5.444466
v 5.5947905 -0.41669023 -1.9782306
v 4.9592934 -1.2266003 -5.3814945
v 4.9126606 0.8099861 -1.9196781
v 4.6075196 0.8716331 -5.343749
v 4.914927 -0.8122121 -1.9195894
v 4.213921 -1.7692275 -5.3474436
v 4.3769436 0.93828416 -1.9435247
v 4.079308 1.2120184 -5.3329887
v 4.2905235 -0.6101613 -1.9555535
v 3.2824836 -1.6690724 -5.247782
v 3.8377602 0.8762319 -1.9150493
v 3.3426728 1.4220692 -5.2542686
v 3.9068737 -0.58685404 -1.9312937
v 2.6305144 -1.1157826 -5.131075
v 3.3827832 0.72069955 -1.8387531
v 2.78747 0.9585175 -5.1480026
v 3.5823925 -0.51667935 -1.8594247
v 2.534678 -0.34352037 -5.166817
v 3.0993867 0.29372615 -1.8668213
v 2.5531194 0.33902973 -5.168811
v 3.2135153 -0.26462296 -1.8763764
v 3.6941385 1.1342762 0.33762106
v 3.2777028 0.73865044 0.27647954
v 3.2340226 0.23072766 0.2838961
v 3.5230873 -0.15685625 0.232265
v 3.6317565 -0.38989633 0.19580819
v 3.7922497 -0.76738197 0.27420574
v 4.321456 1.0779579 0.3205065
v 4.3455367 -1.1750941 0.33689854
v 4.8040977 0.78859943 0.27088937
v 4.949723 -0.9352362 0.3046261
v 5.251205 0.34596315 0.33946797
v 5.3307996 -0.36626995 0.35323757
v 3.751352 -0.9568659 1.1241659
v 4.364693 -1.2270257 1.1933471
v 5.0087023 -0.98846114 1.2024809
v 5.2610044 -0.34694034 1.2375629
v 5.0710216 0.29953754 1.2197697
v 4.760314 0.73838043 1.1641885
v 3.4567485 -0.5809998 1.0282366
v 4.350738 1.1696835 1.1870602
v 3.312003 -0.21673715 1.0382594
v 3.6553295 1.3108861 1.1694071
v 3.1582625 0.25611854 1.0630815
v 3.2056785 0.8267523 1.0846485
v 4.5762906 0.5466202 1.9936513
v 4.266374 0.7968673 1.97176
v 3.7541387 1.0371989 1.8707852
v 3.2258627 0.83993715 1.7324452
v 3.0479753 0.2867294 1.7300925
v 2.9987767 -0.29930305 1.7210171
v 4.7904077 0.22778995 2.0712197
v 3.2782311 -0.7854366 1.7409358
v 4.925881 -0.2610408 2.100943
v 3.7929642 -0.8647636 1.8789289
v 4.739143 -0.7058034 2.025398
v 4.280656 -0.8513641 1.974989
v 2.816009 -0.2607508 2.5548246
v 2.7804623 -0.92510486 2.5259924
v 3.2454405 -1.3177414 2.8111732
v 3.8383274 -1.1238062 3.1240275
v 4.1817875 -0.70873314 3.280925
v 4.3061996 -0.25489646 3.3944578
v 3.2590837 0.14749734 2.7365189
v 4.2393265 0.2377841 3.3642488
v 3.5166314 0.18246832 2.8279583
v 3.878839 0.38573202 3.145356
v 3.5552523 0.14757812 2.9411843
v 3.6381052 0.21919364 3.0352678
v 3.5207627 -0.18963115 4.495474
v 3.528879 0.19262074 4.5048904
v 3.501003 0.5544534 4.426306
v 3.26732 0.80878675 4.2109914
v 2.9442883 0.8581411 3.844107
v 2.7098112 0.636775 3.5203693
v 3.5026414 -0.55670345 4.42807
v 2.4201484 0.29283157 3.235711
v 3.2908251 -0.93627906 4.239548
v 2.2797914 -0.34803942 3.0661411
v 2.8986506 -1.2189269 3.7882729
v 2.4901426 -0.97635424 3.2952733
v 1.6225742 0.6236655 3.8360746
v 1.52473 0.22604483 3.7405517
v 1.495296 -0.25141835 3.6288812
v 1.5851727 -0.7531242 3.699507
v 1.717806 -1.1078393 4.1163826
v 1.9534025 -1.1849904 4.693745
v 1.7227541 1.039446 4.134221
v 2.178825 -0.8623836 5.1623244
v 1.9571252 1.2379037 4.7061725
v 2.266569 -0.33360964 5.483022
v 2.21727 0.99257016 5.2897797
v 2.2977297 0.35976136 5.585719
v 0.57073104 -0.39507914 4.8919725
v 0.6465376 -0.49402073 5.2449694
v 0.6397156 -0.21800071 5.4884925
v 0.64570796 0.22986618 5.5371714
v 0.66263556 0.60486925 5.358397
v 0.5879012 0.9606184 5.038441
v 0.54349947 -0.14297873 4.6874475
v 0.5201312 1.1312191 4.4548483
v 0.5794549 -0.13255262 4.626266
v 0.50588244 0.7456688 4.0243797
v 0.51121753 -0.09837804 4.5279627
v 0.47666368 0.18875006 4.1626544
v -1.4628803 1.1756325 4.999539
v -1.304924 1.4214396 4.305245
v -1.1615798 0.9001243 3.8093033
v -1.2317694 0.21233532 3.9826856
v -1.320021 -0.10980014 4.388426
v -1.3005035 -0.16512361 4.5167994
v -1.4824046 0.6048111 5.2710876
v -1.3624291 -0.3322952 4.552333
v -1.5340238 0.20719421 5.34338
v -1.4351255 -0.73248136 4.8860106
v -1.592486 -0.26859528 5.58741
v -1.5173517 -0.76458955 5.431399
v -2.024391 -0.64856637 3.727538
v -2.2344003 -0.90618175 4.040708
v -2.4772232 -1.0039045 4.512779
v -2.640283 -0.72179097 4.906749
v -2.7390254 -0.25042027 5.0088124
v -2.7114232 0.23383881 4.9448104
v -1.9058317 -0.28767702 3.3812118
v -2.5817618 0.57499623 4.7698913
v -1.8510647 0.32291996 3.2451923
v -2.460426 0.8251797 4.4732013
v -1.9363465 0.87395024 3.5081654
v -2.2225208 1.0203961 4.0115366
v -4.047838 0.29984772 4.642315
v -3.758575 0.686013 4.3904476
v -3.4530756 0.69435763 4.0092273
v -3.1840534 0.5794093 3.7171361
v -2.9309883 0.49837092 3.5113525
v -2.6731288 0.26516563 3.175838
v -4.061827 -0.30476344 4.6570745
v -2.4562593 -0.34265473 2.9547508
v -3.8979197 -0.8844768 4.5472293
v -2.5893807 -1.0535004 3.1164186
v -3.6108477 -1.4937565 4.1699586
v -3.03353 -1.6011934 3.5648506
v -3.313579 0.18925582 2.5816483
v -3.312167 -0.1896101 2.5809772
v -3.429778 -0.43302777 2.7170694
v -3.6486197 -0.5344129 2.8424501
v -3.9159253 -0.5887038 3.049468
v -4.145292 -0.50081956 3.2591562
v -3.443018 0.41916525 2.7235007
v -4.3541884 -0.21745335 3.3544512
v -3.639466 0.57344776 2.837971
v -4.4518623 0.24473491 3.4050148
v -3.9453204 0.72356814 3.0645547
v -4.270091 0.64018655 3.3235435
v -4.73314 -0.5561984 2.2640564
v -4.8584766 -0.204008 2.2728405
v -4.8685417 0.20666514 2.276888
v -4.680496 0.5002898 2.2422116
v -4.4277506 0.70601636 2.103074
v -3.9892743 0.91762257 1.9286586
v -4.4507556 -0.802648 2.1121995
v -3.5684142 0.7028336 1.8020585
v -4.0254087 -0.7565788 1.9426899
v -3.3714948 0.26706088 1.6818825
v -3.7530587 -0.5036582 1.875498
v -3.4851437 -0.23734395 1.7251494
v -4.1977882 0.7926223 1.3393652
v -3.7198355 0.7207614 1.2452922
v -3.3399389 0.31636566 1.0932573
v -3.2301624 -0.3446089 1.0598152
v -3.5343869 -0.91266966 1.1883504
v -4.092634 -1.2234871 1.3070819
v -4.6212897 0.69836676 1.4545611
v -4.7345424 -1.1881291 1.4886429
v -4.9272847 0.5405436 1.575603
v -5.1598964 -0.78436303 1.6455154
v -5.172003 0.23105367 1.6049163
v -5.2798166 -0.25872397 1.6371065
v -4.293581 -1.2424016 0.7696894
v -4.9728003 -1.282729 0.8644141
v -5.6353407 -1.0192611 1.0027871
v -6.064276 -0.38834175 1.0378081
v -5.850636 0.33671147 0.970438
v -5.282868 0.6651717 0.86704487
v -3.5830922 -1.0514956 0.7296655
v -4.8325725 0.6865583 0.7338576
v -3.1228218 -0.39939532 0.6787596
v -4.433561 0.6458479 0.66942835
v -3.3971808 0.33491176 0.65537244
v -4.000936 0.62626636 0.6834824
v -5.277129 0.6518719 0.23753372
v -4.8667693 0.81354004 0.17698903
v -4.357716 0.9523023 0.19787939
v -3.7024117 0.92189306 0.31080332
v -3.0949955 0.4064141 0.34080476
v -3.0161738 -0.4246467 0.36197627
v -5.785892 0.32246524 0.26127622
v -3.5532475 -1.067447 0.3665406
v -6.199368 -0.4230224 0.34465528
v -4.2904387 -1.2219138 0.26269358
v -5.8132005 -1.195539 0.40377754
v -5.0035596 -1.4079138 0.3088886
v -3.1463497 -0.40806508 -1.5633762
v -3.5747383 -1.0336473 -1.5504286
v -4.1782317 -1.5360762 -1.6281834
v -4.964659 -1.2830997 -1.6937749
v -5.182929 -0.58626413 -1.6841398
v -5.498371 -0.2692175 -1.7411985
v -3.5525026 0.30564144 -1.6210628
v -6.2833123 0.46441916 -1.7643125
v -4.085499 0.5114987 -1.6352403
v -5.947708 1.3396976 -1.6815035
v -4.396104 0.6137444 -1.6974996
v -4.9676566 1.2945844 -1.6934108
v -5.691332 -0.4539525 -5.5990257
v -5.44455 -1.4009949 -5.525709
v -5.525562 0.41251433 -5.5749493
v -5.3102283 1.264117 -5.5062017
v -4.4657784 -1.5004264 -5.446827
v -4.4553537 1.4565506 -5.445311
v -3.786594 0.90611106 -5.3696995
v -3.785603 -0.9101369 -5.3695545
v -3.496495 0.56874645 -5.2984204
v -3.2855716 -0.779306 -5.267526
v -3.2046478 0.25890204 -5.311788
v -2.8301628 -0.34962517 -5.256812
vn 0.88720703 0.46118164 -0.017684937
vn 0.88720703 0.4506836 -0.09674072
vn 0.9794922 -0.18591309 -0.07733154
vn 0.96972656 -0.24316406 -0.010932922
vn 0.56640625 -0.8173828 0.107910156
vn 0.5698242 0.82177734 -0.0054092407
vn 0.5800781 0.81396484 -0.029022217
vn 0.47485352 -0.8798828 0.015579224
vn 0.08642578 -0.9580078 0.27368164
vn 0.2355957 0.9716797 0.0049209595
vn 0.2614746 0.9633789 0.05984497
vn -0.054779053 -0.99609375 0.06945801
vn -0.25708008 -0.9086914 0.32910156
vn -0.22558594 0.9736328 0.034362793
vn -0.1875 0.9707031 0.15026855
vn -0.40795898 -0.9038086 0.1307373
vn -0.69921875 -0.6459961 0.30664062
vn -0.7495117 0.6586914 0.06665039
vn -0.71728516 0.671875 0.18408203
vn -0.7001953 -0.6948242 0.16296387
vn -0.9458008 -0.23449707 0.2241211
vn -0.98876953 0.08294678 0.12597656
vn -0.9667969 0.1776123 0.18334961
vn -0.90234375 -0.39575195 0.17041016
vn -0.30029297 0.94433594 -0.13452148
vn -0.8491211 0.5205078 -0.087768555
vn -0.99121094 -0.123168945 -0.04748535
vn -0.87597656 -0.47851562 -0.064575195
vn -0.7871094 -0.6098633 -0.09088135
vn -0.6225586 -0.7685547 -0.14660645
vn 0.29833984 0.95214844 -0.06933594
vn -0.13146973 -0.9824219 -0.13293457
vn 0.61572266 0.7871094 0.036102295
vn 0.5209961 -0.8520508 -0.056365967
vn 0.88378906 0.4567871 0.10308838
vn 0.97216797 -0.22497559 0.066223145
vn -0.5131836 -0.8569336 -0.04864502
vn -0.013504028 -0.99121094 0.13342285
vn 0.65527344 -0.7319336 0.18676758
vn 0.9682617 -0.10760498 0.22509766
vn 0.8701172 0.43652344 0.22961426
vn 0.703125 0.68603516 0.18774414
vn -0.7895508 -0.55566406 -0.2614746
vn 0.43139648 0.8901367 0.1472168
vn -0.89941406 -0.33398438 -0.28222656
vn -0.25341797 0.96435547 0.07672119
vn -0.9838867 -0.05731201 -0.16955566
vn -0.87646484 0.47973633 -0.04373169
vn 0.54345703 0.7685547 0.33666992
vn 0.27685547 0.86035156 0.42749023
vn -0.15649414 0.8769531 0.45410156
vn -0.7504883 0.6074219 0.25976562
vn -0.9580078 0.28588867 0.016906738
vn -0.9580078 -0.068115234 -0.2783203
vn 0.80371094 0.4814453 0.34936523
vn -0.6381836 -0.67822266 -0.3647461
vn 0.91748047 -0.061065674 0.3930664
vn -0.15039062 -0.98291016 -0.10797119
vn 0.6801758 -0.63427734 0.36743164
vn 0.24633789 -0.9526367 0.17932129
vn -0.86376953 0.20495605 -0.45996094
vn -0.67529297 -0.5917969 -0.43945312
vn -0.072021484 -0.9863281 -0.14953613
vn 0.44213867 -0.8828125 0.15966797
vn 0.7368164 -0.5527344 0.38916016
vn 0.8671875 -0.09069824 0.4892578
vn -0.6533203 0.71777344 -0.23999023
vn 0.7832031 0.4658203 0.41210938
vn -0.3996582 0.9082031 0.123168945
vn 0.39086914 0.90185547 0.18469238
vn 0.121398926 0.9926758 -0.005252838
vn 0.2355957 0.9707031 0.04763794
vn 0.72265625 -0.16772461 0.67089844
vn 0.7416992 0.24157715 0.6254883
vn 0.58691406 0.73876953 0.33154297
vn 0.34472656 0.9355469 -0.0758667
vn 0.16296387 0.89160156 -0.42211914
vn -0.08325195 0.7705078 -0.63183594
vn 0.63623047 -0.4921875 0.59375
vn -0.37939453 0.55566406 -0.7397461
vn 0.40356445 -0.8256836 0.39379883
vn -0.6376953 0.04421997 -0.76904297
vn -0.022140503 -0.9995117 0.022659302
vn -0.54785156 -0.69433594 -0.46728516
vn -0.22192383 0.5253906 -0.82128906
vn -0.43676758 0.1361084 -0.88916016
vn -0.5986328 -0.17443848 -0.7817383
vn -0.56689453 -0.59033203 -0.57421875
vn -0.39086914 -0.89746094 -0.20483398
vn -0.105407715 -0.9614258 0.2548828
vn -0.040802002 0.8984375 -0.43676758
vn 0.17785645 -0.70996094 0.68115234
vn 0.10321045 0.9785156 0.1772461
vn 0.30029297 -0.31762695 0.89941406
vn 0.26098633 0.67871094 0.68652344
vn 0.32348633 0.15124512 0.93408203
vn -0.20251465 -0.95458984 -0.21801758
vn -0.0569458 -0.8198242 0.5698242
vn -0.0017662048 -0.24157715 0.97021484
vn -0.04095459 0.19958496 0.9790039
vn -0.060302734 0.5288086 0.8466797
vn -0.021514893 0.8647461 0.5019531
vn -0.203125 -0.71240234 -0.671875
vn 0.034729004 0.9628906 -0.2668457
vn -0.49365234 -0.66308594 -0.5629883
vn -0.02861023 0.3330078 -0.9423828
vn -0.28271484 -0.7207031 -0.6333008
vn -0.18554688 -0.37890625 -0.9067383
vn -0.20922852 0.796875 0.56689453
vn -0.055389404 0.98535156 -0.16052246
vn 0.24169922 0.42260742 -0.87353516
vn 0.453125 -0.41918945 -0.7866211
vn 0.48168945 -0.7319336 -0.48217773
vn 0.3322754 -0.7519531 -0.56933594
vn -0.20874023 0.45410156 0.86621094
vn 0.41625977 -0.7167969 -0.5595703
vn -0.20410156 0.3059082 0.9296875
vn 0.20727539 -0.9526367 -0.22338867
vn -0.203125 -0.0690918 0.9765625
vn -0.06878662 -0.7895508 0.6098633
vn 0.7192383 -0.6040039 -0.34399414
vn 0.5942383 -0.7963867 -0.11230469
vn 0.23583984 -0.92041016 0.31225586
vn -0.19836426 -0.6010742 0.7739258
vn -0.32373047 -0.038085938 0.9453125
vn -0.28125 0.3466797 0.89501953
vn 0.6801758 -0.33789062 -0.6503906
vn -0.29077148 0.64697266 0.7050781
vn 0.4411621 0.11553955 -0.8901367
vn -0.3347168 0.8930664 0.30078125
vn 0.09106445 0.6401367 -0.7631836
vn -0.27246094 0.93408203 -0.23168945
vn -0.6582031 0.3071289 0.6875
vn -0.36083984 0.8178711 0.44799805
vn -0.061157227 0.99658203 0.053833008
vn 0.03704834 0.9760742 -0.21472168
vn 0.050109863 0.8613281 -0.5053711
vn 0.2878418 0.51708984 -0.80615234
vn -0.7080078 -0.19970703 0.6772461
vn 0.4880371 -0.13195801 -0.86279297
vn -0.6064453 -0.5683594 0.55615234
vn 0.43237305 -0.63183594 -0.6435547
vn -0.34887695 -0.9189453 0.18395996
vn 0.11529541 -0.94873047 -0.29418945
vn 0.8364258 0.39941406 -0.37573242
vn 0.7602539 -0.26391602 -0.5932617
vn 0.38867188 -0.69384766 -0.60595703
vn 0.05682373 -0.92871094 -0.36645508
vn -0.43652344 -0.8979492 -0.056732178
vn -0.7817383 -0.5986328 0.17468262
vn 0.5678711 0.8095703 -0.15014648
vn -0.91015625 -0.28735352 0.29882812
vn 0.30297852 0.953125 -0.010986328
vn -0.921875 0.22558594 0.31567383
vn -0.050048828 0.9980469 0.03717041
vn -0.55371094 0.81152344 0.18566895
vn -0.6230469 -0.59765625 0.5048828
vn -0.859375 -0.17651367 0.47998047
vn -0.88134766 0.26953125 0.38745117
vn -0.6430664 0.72998047 0.23144531
vn -0.31176758 0.9428711 0.118652344
vn 0.11907959 0.9921875 0.03302002
vn -0.11303711 -0.89404297 0.4333496
vn 0.66308594 0.74853516 -0.022598267
vn 0.39453125 -0.86376953 0.31274414
vn 0.96972656 0.24316406 0.018051147
vn 0.7050781 -0.6899414 0.16540527
vn 0.93847656 -0.31835938 0.13305664
vn -0.027786255 0.9921875 -0.12097168
vn 0.46142578 0.8691406 -0.17773438
vn 0.88964844 0.45629883 -0.011238098
vn 0.9614258 -0.16540527 0.21948242
vn 0.68847656 -0.66064453 0.2998047
vn 0.2980957 -0.91015625 0.28833008
vn -0.2685547 0.9614258 0.06286621
vn -0.14929199 -0.8984375 0.4128418
vn -0.4970703 0.8144531 0.2998047
vn -0.5722656 -0.5463867 0.6118164
vn -0.7104492 0.4428711 0.546875
vn -0.74560547 -0.042633057 0.6645508
vn 0.1850586 -0.98095703 0.062805176
vn -0.13366699 -0.9604492 0.24511719
vn -0.5805664 -0.66845703 0.46484375
vn -0.87939453 -0.047973633 0.47338867
vn -0.74072266 0.57958984 0.33911133
vn -0.38012695 0.90527344 0.1899414
vn 0.5678711 -0.81640625 0.10583496
vn -0.1381836 0.98046875 0.1381836
vn 0.94091797 -0.1887207 0.28125
vn -0.040283203 0.98095703 0.19018555
vn 0.7480469 0.5732422 0.33496094
vn 0.22290039 0.94873047 0.22375488
vn -0.4050293 0.89501953 0.18725586
vn 0.036010742 0.9760742 0.2142334
vn 0.14221191 0.97216797 0.18688965
vn 0.34326172 0.9091797 0.23608398
vn 0.8105469 0.54345703 0.21850586
vn 0.96777344 -0.20043945 0.15368652
vn -0.89501953 0.43896484 0.07824707
vn 0.5883789 -0.80615234 0.061157227
vn -0.9707031 -0.23828125 -0.030700684
vn 0.2006836 -0.97802734 0.05657959
vn -0.6875 -0.7260742 0.013931274
vn -0.22680664 -0.97314453 0.040527344
vn 0.9902344 -0.13671875 -0.024795532
vn 0.6333008 -0.7739258 0.0046539307
vn 0.28076172 -0.95996094 0.009849548
vn -0.2980957 -0.95410156 -0.033081055
vn -0.76464844 -0.6352539 -0.107299805
vn -0.91259766 -0.39794922 -0.091430664
vn 0.74121094 0.66845703 -0.06124878
vn -0.99658203 0.08099365 0.009185791
vn 0.4440918 0.8935547 -0.06616211
vn -0.57910156 0.8051758 0.12890625
vn 0.49609375 0.8676758 0.031219482
vn 0.24536133 0.9609375 0.12902832
vn -0.9248047 -0.3791504 0.02508545
vn -0.7651367 -0.6352539 0.10424805
vn -0.9916992 -0.03024292 -0.123168945
vn -0.6035156 0.79052734 -0.10498047
vn -0.17468262 -0.9838867 0.036834717
vn 0.3461914 0.9345703 0.08270264
vn 0.63427734 0.7602539 0.14038086
vn 0.37158203 -0.9272461 -0.041625977
vn 0.54785156 0.8305664 0.09942627
vn 0.64453125 -0.76464844 -0.010482788
vn 0.7167969 0.6933594 0.07537842
vn 0.99609375 -0.056762695 0.070251465
g Ladnmark1_0
f 3/3/3 2/2/2 1/1/1
f 4/4/4 3/3/3 1/1/1
f 5/5/5 3/3/3 4/4/4
f 1/1/1 2/2/2 6/6/6
f 2/2/2 7/7/7 6/6/6
f 8/8/8 5/5/5 4/4/4
f 9/9/9 5/5/5 8/8/8
f 6/6/6 7/7/7 10/10/10
f 7/7/7 11/11/11 10/10/10
f 12/12/12 9/9/9 8/8/8
f 13/13/13 9/9/9 12/12/12
f 10/10/10 11/11/11 14/14/14
f 11/11/11 15/15/15 14/14/14
f 16/16/16 13/13/13 12/12/12
f 17/17/17 13/13/13 16/16/16
f 14/14/14 15/15/15 18/18/18
f 15/15/15 19/19/19 18/18/18
f 20/20/20 17/17/17 16/16/16
f 21/21/21 17/17/17 20/20/20
f 18/18/18 19/19/19 22/22/22
f 19/19/19 23/23/23 22/22/22
f 23/23/23 21/21/21 24/24/24
f 24/24/24 21/21/21 20/20/20
f 22/22/22 23/23/23 24/24/24
f 14/14/14 25/25/25 10/10/10
f 18/18/18 26/26/26 14/14/14
f 26/26/26 25/25/25 14/14/14
f 22/22/22 27/27/27 18/18/18
f 27/27/27 26/26/26 18/18/18
f 24/24/24 28/28/28 22/22/22
f 28/28/28 27/27/27 22/22/22
f 20/20/20 29/29/29 24/24/24
f 29/29/29 28/28/28 24/24/24
f 16/16/16 30/30/30 20/20/20
f 30/30/30 29/29/29 20/20/20
f 25/25/25 31/31/31 10/10/10
f 10/10/10 31/31/31 6/6/6
f 32/32/32 30/30/30 16/16/16
f 12/12/12 32/32/32 16/16/16
f 31/31/31 33/33/33 6/6/6
f 6/6/6 33/33/33 1/1/1
f 34/34/34 32/32/32 12/12/12
f 8/8/8 34/34/34 12/12/12
f 33/33/33 35/35/35 1/1/1
f 1/1/1 35/35/35 4/4/4
f 4/4/4 36/36/36 8/8/8
f 36/36/36 34/34/34 8/8/8
f 35/35/35 36/36/36 4/4/4
f 30/30/30 37/37/37 29/29/29
f 32/32/32 38/38/38 30/30/30
f 38/38/38 37/37/37 30/30/30
f 34/34/34 39/39/39 32/32/32
f 39/39/39 38/38/38 32/32/32
f 36/36/36 40/40/40 34/34/34
f 40/40/40 39/39/39 34/34/34
f 35/35/35 41/41/41 36/36/36
f 41/41/41 40/40/40 36/36/36
f 33/33/33 42/42/42 35/35/35
f 42/42/42 41/41/41 35/35/35
f 37/37/37 43/43/43 29/29/29
f 29/29/29 43/43/43 28/28/28
f 44/44/44 42/42/42 33/33/33
f 31/31/31 44/44/44 33/33/33
f 43/43/43 45/45/45 28/28/28
f 28/28/28 45/45/45 27/27/27
f 46/46/46 44/44/44 31/31/31
f 25/25/25 46/46/46 31/31/31
f 45/45/45 47/47/47 27/27/27
f 27/27/27 47/47/47 26/26/26
f 26/26/26 48/48/48 25/25/25
f 48/48/48 46/46/46 25/25/25
f 47/47/47 48/48/48 26/26/26
f 42/42/42 49/49/49 41/41/41
f 44/44/44 50/50/50 42/42/42
f 50/50/50 49/49/49 42/42/42
f 46/46/46 51/51/51 44/44/44
f 51/51/51 50/50/50 44/44/44
f 48/48/48 52/52/52 46/46/46
f 52/52/52 51/51/51 46/46/46
f 47/47/47 53/53/53 48/48/48
f 53/53/53 52/52/52 48/48/48
f 45/45/45 54/54/54 47/47/47
f 54/54/54 53/53/53 47/47/47
f 49/49/49 55/55/55 41/41/41
f 41/41/41 55/55/55 40/40/40
f 56/56/56 54/54/54 45/45/45
f 43/43/43 56/56/56 45/45/45
f 55/55/55 57/57/57 40/40/40
f 40/40/40 57/57/57 39/39/39
f 58/58/58 56/56/56 43/43/43
f 37/37/37 58/58/58 43/43/43
f 57/57/57 59/59/59 39/39/39
f 39/39/39 59/59/59 38/38/38
f 38/38/38 60/60/60 37/37/37
f 60/60/60 58/58/58 37/37/37
f 59/59/59 60/60/60 38/38/38
f 54/54/54 61/61/61 53/53/53
f 56/56/56 62/62/62 54/54/54
f 62/62/62 61/61/61 54/54/54
f 58/58/58 63/63/63 56/56/56
f 63/63/63 62/62/62 56/56/56
f 60/60/60 64/64/64 58/58/58
f 64/64/64 63/63/63 58/58/58
f 59/59/59 65/65/65 60/60/60
f 65/65/65 64/64/64 60/60/60
f 57/57/57 66/66/66 59/59/59
f 66/66/66 65/65/65 59/59/59
f 61/61/61 67/67/67 53/53/53
f 53/53/53 67/67/67 52/52/52
f 68/68/68 66/66/66 57/57/57
f 55/55/55 68/68/68 57/57/57
f 67/67/67 69/69/69 52/52/52
f 52/52/52 69/69/69 51/51/51
f 70/70/70 68/68/68 55/55/55
f 49/49/49 70/70/70 55/55/55
f 69/69/69 71/71/71 51/51/51
f 51/51/51 71/71/71 50/50/50
f 50/50/50 72/72/72 49/49/49
f 72/72/72 70/70/70 49/49/49
f 71/71/71 72/72/72 50/50/50
f 66/66/66 73/73/73 65/65/65
f 68/68/68 74/74/74 66/66/66
f 74/74/74 73/73/73 66/66/66
f 70/70/70 75/75/75 68/68/68
f 75/75/75 74/74/74 68/68/68
f 72/72/72 76/76/76 70/70/70
f 76/76/76 75/75/75 70/70/70
f 71/71/71 77/77/77 72/72/72
f 77/77/77 76/76/76 72/72/72
f 69/69/69 78/78/78 71/71/71
f 78/78/78 77/77/77 71/71/71
f 73/73/73 79/79/79 65/65/65
f 65/65/65 79/79/79 64/64/64
f 80/80/80 78/78/78 69/69/69
f 67/67/67 80/80/80 69/69/69
f 79/79/79 81/81/81 64/64/64
f 64/64/64 81/81/81 63/63/63
f 82/82/82 80/80/80 67/67/67
f 61/61/61 82/82/82 67/67/67
f 81/81/81 83/83/83 63/63/63
f 63/63/63 83/83/83 62/62/62
f 62/62/62 84/84/84 61/61/61
f 84/84/84 82/82/82 61/61/61
f 83/83/83 84/84/84 62/62/62
f 78/78/78 85/85/85 77/77/77
f 80/80/80 86/86/86 78/78/78
f 86/86/86 85/85/85 78/78/78
f 82/82/82 87/87/87 80/80/80
f 87/87/87 86/86/86 80/80/80
f 84/84/84 88/88/88 82/82/82
f 88/88/88 87/87/87 82/82/82
f 83/83/83 89/89/89 84/84/84
f 89/89/89 88/88/88 84/84/84
f 81/81/81 90/90/90 83/83/83
f 90/90/90 89/89/89 83/83/83
f 85/85/85 91/91/91 77/77/77
f 77/77/77 91/91/91 76/76/76
f 92/92/92 90/90/90 81/81/81
f 79/79/79 92/92/92 81/81/81
f 91/91/91 93/93/93 76/76/76
f 76/76/76 93/93/93 75/75/75
f 94/94/94 92/92/92 79/79/79
f 73/73/73 94/94/94 79/79/79
f 93/93/93 95/95/95 75/75/75
f 75/75/75 95/95/95 74/74/74
f 74/74/74 96/96/96 73/73/73
f 96/96/96 94/94/94 73/73/73
f 95/95/95 96/96/96 74/74/74
f 90/90/90 97/97/97 89/89/89
f 92/92/92 98/98/98 90/90/90
f 98/98/98 97/97/97 90/90/90
f 94/94/94 99/99/99 92/92/92
f 99/99/99 98/98/98 92/92/92
f 96/96/96 100/100/100 94/94/94
f 100/100/100 99/99/99 94/94/94
f 95/95/95 101/101/101 96/96/96
f 101/101/101 100/100/100 96/96/96
f 93/93/93 102/102/102 95/95/95
f 102/102/102 101/101/101 95/95/95
f 97/97/97 103/103/103 89/89/89
f 89/89/89 103/103/103 88/88/88
f 104/104/104 102/102/102 93/93/93
f 91/91/91 104/104/104 93/93/93
f 103/103/103 105/105/105 88/88/88
f 88/88/88 105/105/105 87/87/87
f 106/106/106 104/104/104 91/91/91
f 85/85/85 106/106/106 91/91/91
f 105/105/105 107/107/107 87/87/87
f 87/87/87 107/107/107 86/86/86
f 86/86/86 108/108/108 85/85/85
f 108/108/108 106/106/106 85/85/85
f 107/107/107 108/108/108 86/86/86
f 102/102/102 109/109/109 101/101/101
f 104/104/104 110/110/110 102/102/102
f 110/110/110 109/109/109 102/102/102
f 106/106/106 111/111/111 104/104/104
f 111/111/111 110/110/110 104/104/104
f 108/108/108 112/112/112 106/106/106
f 112/112/112 111/111/111 106/106/106
f 107/107/107 113/113/113 108/108/108
f 113/113/113 112/112/112 108/108/108
f 105/105/105 114/114/114 107/107/107
f 114/114/114 113/113/113 107/107/107
f 109/109/109 115/115/115 101/101/101
f 101/101/101 115/115/115 100/100/100
f 116/116/116 114/114/114 105/105/105
f 103/103/103 116/116/116 105/105/105
f 115/115/115 117/117/117 100/100/100
f 100/100/100 117/117/117 99/99/99
f 118/118/118 116/116/116 103/103/103
f 97/97/97 118/118/118 103/103/103
f 117/117/117 119/119/119 99/99/99
f 99/99/99 119/119/119 98/98/98
f 98/98/98 120/120/120 97/97/97
f 120/120/120 118/118/118 97/97/97
f 119/119/119 120/120/120 98/98/98
f 114/114/114 121/121/121 113/113/113
f 116/116/116 122/122/122 114/114/114
f 122/122/122 121/121/121 114/114/114
f 118/118/118 123/123/123 116/116/116
f 123/123/123 122/122/122 116/116/116
f 120/120/120 124/124/124 118/118/118
f 124/124/124 123/123/123 118/118/118
f 119/119/119 125/125/125 120/120/120
f 125/125/125 124/124/124 120/120/120
f 117/117/117 126/126/126 119/119/119
f 126/126/126 125/125/125 119/119/119
f 121/121/121 127/127/127 113/113/113
f 113/113/113 127/127/127 112/112/112
f 128/128/128 126/126/126 117/117/117
f 115/115/115 128/128/128 117/117/117
f 127/127/127 129/129/129 112/112/112
f 112/112/112 129/129/129 111/111/111
f 130/130/130 128/128/128 115/115/115
f 109/109/109 130/130/130 115/115/115
f 129/129/129 131/131/131 111/111/111
f 111/111/111 131/131/131 110/110/110
f 110/110/110 132/132/132 109/109/109
f 132/132/132 130/130/130 109/109/109
f 131/131/131 132/132/132 110/110/110
f 126/126/126 133/133/133 125/125/125
f 128/128/128 134/134/134 126/126/126
f 134/134/134 133/133/133 126/126/126
f 130/130/130 135/135/135 128/128/128
f 135/135/135 134/134/134 128/128/128
f 132/132/132 136/136/136 130/130/130
f 136/136/136 135/135/135 130/130/130
f 131/131/131 137/137/137 132/132/132
f 137/137/137 136/136/136 132/132/132
f 129/129/129 138/138/138 131/131/131
f 138/138/138 137/137/137 131/131/131
f 133/133/133 139/139/139 125/125/125
f 125/125/125 139/139/139 124/124/124
f 140/140/140 138/138/138 129/129/129
f 127/127/127 140/140/140 129/129/129
f 139/139/139 141/141/141 124/124/124
f 124/124/124 141/141/141 123/123/123
f 142/142/142 140/140/140 127/127/127
f 121/121/121 142/142/142 127/127/127
f 141/141/141 143/143/143 123/123/123
f 123/123/123 143/143/143 122/122/122
f 122/122/122 144/144/144 121/121/121
f 144/144/144 142/142/142 121/121/121
f 143/143/143 144/144/144 122/122/122
f 138/138/138 145/145/145 137/137/137
f 140/140/140 146/146/146 138/138/138
f 146/146/146 145/145/145 138/138/138
f 142/142/142 147/147/147 140/140/140
f 147/147/147 146/146/146 140/140/140
f 144/144/144 148/148/148 142/142/142
f 148/148/148 147/147/147 142/142/142
f 143/143/143 149/149/149 144/144/144
f 149/149/149 148/148/148 144/144/144
f 141/141/141 150/150/150 143/143/143
f 150/150/150 149/149/149 143/143/143
f 145/145/145 151/151/151 137/137/137
f 137/137/137 151/151/151 136/136/136
f 152/152/152 150/150/150 141/141/141
f 139/139/139 152/152/152 141/141/141
f 151/151/151 153/153/153 136/136/136
f 136/136/136 153/153/153 135/135/135
f 154/154/154 152/152/152 139/139/139
f 133/133/133 154/154/154 139/139/139
f 153/153/153 155/155/155 135/135/135
f 135/135/135 155/155/155 134/134/134
f 134/134/134 156/156/156 133/133/133
f 156/156/156 154/154/154 133/133/133
f 155/155/155 156/156/156 134/134/134
f 150/150/150 157/157/157 149/149/149
f 152/152/152 158/158/158 150/150/150
f 158/158/158 157/157/157 150/150/150
f 154/154/154 159/159/159 152/152/152
f 159/159/159 158/158/158 152/152/152
f 156/156/156 160/160/160 154/154/154
f 160/160/160 159/159/159 154/154/154
f 155/155/155 161/161/161 156/156/156
f 161/161/161 160/160/160 156/156/156
f 153/153/153 162/162/162 155/155/155
f 162/162/162 161/161/161 155/155/155
f 157/157/157 163/163/163 149/149/149
f 149/149/149 163/163/163 148/148/148
f 164/164/164 162/162/162 153/153/153
f 151/151/151 164/164/164 153/153/153
f 163/163/163 165/165/165 148/148/148
f 148/148/148 165/165/165 147/147/147
f 166/166/166 164/164/164 151/151/151
f 145/145/145 166/166/166 151/151/151
f 165/165/165 167/167/167 147/147/147
f 147/147/147 167/167/167 146/146/146
f 146/146/146 168/168/168 145/145/145
f 168/168/168 166/166/166 145/145/145
f 167/167/167 168/168/168 146/146/146
f 162/162/162 169/169/169 161/161/161
f 164/164/164 170/170/170 162/162/162
f 170/170/170 169/169/169 162/162/162
f 166/166/166 171/171/171 164/164/164
f 171/171/171 170/170/170 164/164/164
f 168/168/168 172/172/172 166/166/166
f 172/172/172 171/171/171 166/166/166
f 167/167/167 173/173/173 168/168/168
f 173/173/173 172/172/172 168/168/168
f 165/165/165 174/174/174 167/167/167
f 174/174/174 173/173/173 167/167/167
f 169/169/169 175/175/175 161/161/161
f 161/161/161 175/175/175 160/160/160
f 176/176/176 174/174/174 165/165/165
f 163/163/163 176/176/176 165/165/165
f 175/175/175 177/177/177 160/160/160
f 160/160/160 177/177/177 159/159/159
f 178/178/178 176/176/176 163/163/163
f 157/157/157 178/178/178 163/163/163
f 177/177/177 179/179/179 159/159/159
f 159/159/159 179/179/179 158/158/158
f 158/158/158 180/180/180 157/157/157
f 180/180/180 178/178/178 157/157/157
f 179/179/179 180/180/180 158/158/158
f 174/174/174 181/181/181 173/173/173
f 176/176/176 182/182/182 174/174/174
f 182/182/182 181/181/181 174/174/174
f 178/178/178 183/183/183 176/176/176
f 183/183/183 182/182/182 176/176/176
f 180/180/180 184/184/184 178/178/178
f 184/184/184 183/183/183 178/178/178
f 179/179/179 185/185/185 180/180/180
f 185/185/185 184/184/184 180/180/180
f 177/177/177 186/186/186 179/179/179
f 186/186/186 185/185/185 179/179/179
f 181/181/181 187/187/187 173/173/173
f 173/173/173 187/187/187 172/172/172
f 188/188/188 186/186/186 177/177/177
f 175/175/175 188/188/188 177/177/177
f 187/187/187 189/189/189 172/172/172
f 172/172/172 189/189/189 171/171/171
f 190/190/190 188/188/188 175/175/175
f 169/169/169 190/190/190 175/175/175
f 189/189/189 191/191/191 171/171/171
f 171/171/171 191/191/191 170/170/170
f 170/170/170 192/192/192 169/169/169
f 192/192/192 190/190/190 169/169/169
f 191/191/191 192/192/192 170/170/170
f 186/186/186 193/193/193 185/185/185
f 188/188/188 194/194/194 186/186/186
f 194/194/194 193/193/193 186/186/186
f 190/190/190 195/195/195 188/188/188
f 195/195/195 194/194/194 188/188/188
f 192/192/192 196/196/196 190/190/190
f 196/196/196 195/195/195 190/190/190
f 191/191/191 197/197/197 192/192/192
f 197/197/197 196/196/196 192/192/192
f 189/189/189 198/198/198 191/191/191
f 198/198/198 197/197/197 191/191/191
f 193/193/193 199/199/199 185/185/185
f 185/185/185 199/199/199 184/184/184
f 200/200/200 198/198/198 189/189/189
f 187/187/187 200/200/200 189/189/189
f 199/199/199 201/201/201 184/184/184
f 184/184/184 201/201/201 183/183/183
f 202/202/202 200/200/200 187/187/187
f 181/181/181 202/202/202 187/187/187
f 201/201/201 203/203/203 183/183/183
f 183/183/183 203/203/203 182/182/182
f 182/182/182 204/204/204 181/181/181
f 204/204/204 202/202/202 181/181/181
f 203/203/203 204/204/204 182/182/182
f 198/198/198 205/205/205 197/197/197
f 200/200/200 206/206/206 198/198/198
f 206/206/206 205/205/205 198/198/198
f 202/202/202 207/207/207 200/200/200
f 207/207/207 206/206/206 200/200/200
f 204/204/204 208/208/208 202/202/202
f 208/208/208 207/207/207 202/202/202
f 203/203/203 209/209/209 204/204/204
f 209/209/209 208/208/208 204/204/204
f 201/201/201 210/210/210 203/203/203
f 210/210/210 209/209/209 203/203/203
f 205/205/205 211/211/211 197/197/197
f 197/197/197 211/211/211 196/196/196
f 212/212/212 210/210/210 201/201/201
f 199/199/199 212/212/212 201/201/201
f 211/211/211 213/213/213 196/196/196
f 196/196/196 213/213/213 195/195/195
f 214/214/214 212/212/212 199/199/199
f 193/193/193 214/214/214 199/199/199
f 213/213/213 215/215/215 195/195/195
f 195/195/195 215/215/215 194/194/194
f 194/194/194 216/216/216 193/193/193
f 216/216/216 214/214/214 193/193/193
f 215/215/215 216/216/216 194/194/194
f 210/210/210 217/217/217 209/209/209
f 217/217/217 218/218/218 209/209/209
f 219/219/219 217/217/217 210/210/210
f 212/212/212 219/219/219 210/210/210
f 209/209/209 218/218/218 208/208/208
f 220/220/220 219/219/219 212/212/212
f 214/214/214 220/220/220 212/212/212
f 218/218/218 221/221/221 208/208/208
f 222/222/222 220/220/220 214/214/214
f 216/216/216 222/222/222 214/214/214
f 208/208/208 221/221/221 207/207/207
f 223/223/223 222/222/222 216/216/216
f 215/215/215 223/223/223 216/216/216
f 221/221/221 224/224/224 207/207/207
f 225/225/225 223/223/223 215/215/215
f 207/207/207 224/224/224 206/206/206
f 213/213/213 225/225/225 215/215/215
f 224/224/224 226/226/226 206/206/206
f 227/227/227 225/225/225 213/213/213
f 206/206/206 226/226/226 205/205/205
f 211/211/211 227/227/227 213/213/213
f 226/226/226 228/228/228 205/205/205
f 228/228/228 227/227/227 211/211/211
f 205/205/205 228/228/228 211/211/211
