g Log1
v 0.017822653 0.20707586 0.25354415
v -0.051445484 0.071754664 0.39053625
v 0.10764614 0.12264627 0.4168846
v 3.5295773 -0.9005309 1.1697192
v 3.4822235 -0.9059674 1.188107
v 3.5074382 -0.8620803 1.1950457
v -0.26405933 0.6978502 0.6727664
v -0.31212452 0.6824748 0.66480595
v -0.29318437 0.72184956 0.638331
v 3.0859277 0.045323238 0.3778165
v 3.0138674 -0.14607021 0.37056512
v 3.1706038 -0.12807584 0.30970335
v -2.7470796 0.082599126 0.50158936
v -2.8176277 -0.0952097 0.44378978
v -2.6604402 -0.09481658 0.50047106
v -2.916759 -0.08161417 0.9565888
v -3.002939 -0.08042261 0.92440313
v -2.9713907 -0.013326917 0.96759945
v -1.5501816 0.3138897 0.25612432
v -1.5414 0.16558674 0.5131845
v -4.223976 0.15381435 0.5132336
v -4.2876897 0.30212545 0.25664896
v -1.5414 0.16558674 0.5131845
v -1.5001525 -0.13101916 0.5133
v -4.184737 -0.14280781 0.5128244
v -4.223976 0.15381435 0.5132336
v -1.5001525 -0.13101916 0.5133
v -1.4676888 -0.27932212 0.25635517
v -4.2092094 -0.2911189 0.25583053
v -4.184737 -0.14280781 0.5128244
v -1.4676888 -0.27932212 0.25635517
v -1.4764694 -0.13101912 -0.00070494413
v -4.2729216 -0.14280777 -0.00075405836
v -4.2092094 -0.2911189 0.25583053
v -4.184737 -0.14280781 0.5128244
v -4.2092094 -0.2911189 0.25583053
v -4.2729216 -0.14280777 -0.00075405836
v -4.223976 0.15381435 0.5132336
v -4.3121605 0.15381429 -0.00034484267
v -4.2876897 0.30212545 0.25664896
v -1.4764694 -0.13101912 -0.00070494413
v -1.5177169 0.1655867 -0.00082039833
v -4.3121605 0.15381429 -0.00034484267
v -4.2729216 -0.14280777 -0.00075405836
v -1.5177169 0.1655867 -0.00082039833
v -1.5501816 0.3138897 0.25612432
v -4.2876897 0.30212545 0.25664896
v -4.3121605 0.15381429 -0.00034484267
v 4.3039927 -0.13097797 -0.0123717785
v 4.3069367 -0.27923977 0.24472022
v 4.259846 -0.13097802 0.5015512
v 4.2098107 0.16554561 0.50129014
v 4.253957 0.16554558 -0.012632847
v 4.206866 0.31380743 0.24419814
v 4.253957 0.16554558 -0.012632847
v 4.206866 0.31380743 0.24419814
v 1.5039799 0.2727109 0.23868114
v 1.5005869 0.12438135 -0.018371493
v 1.5005869 0.12438135 -0.018371493
v 1.5039799 0.2727109 0.23868114
v -1.5501816 0.3138897 0.25612432
v -1.5177169 0.1655867 -0.00082039833
v 4.3039927 -0.13097797 -0.0123717785
v 4.253957 0.16554558 -0.012632847
v 1.5005869 0.12438135 -0.018371493
v 1.4661934 -0.17227751 -0.018483698
v 1.4661934 -0.17227751 -0.018483698
v 1.5005869 0.12438135 -0.018371493
v -1.5177169 0.1655867 -0.00082039833
v -1.4764694 -0.13101912 -0.00070494413
v 4.3069367 -0.27923977 0.24472022
v 4.3039927 -0.13097797 -0.0123717785
v 1.4661934 -0.17227751 -0.018483698
v 1.4351914 -0.32060698 0.23845673
v 1.4351914 -0.32060698 0.23845673
v 1.4661934 -0.17227751 -0.018483698
v -1.4764694 -0.13101912 -0.00070494413
v -1.4676888 -0.27932212 0.25635517
v 4.259846 -0.13097802 0.5015512
v 4.3069367 -0.27923977 0.24472022
v 1.4351914 -0.32060698 0.23845673
v 1.438585 -0.17227755 0.49550933
v 1.438585 -0.17227755 0.49550933
v 1.4351914 -0.32060698 0.23845673
v -1.4676888 -0.27932212 0.25635517
v -1.5001525 -0.13101916 0.5133
v 4.2098107 0.16554561 0.50129014
v 4.259846 -0.13097802 0.5015512
v 1.438585 -0.17227755 0.49550933
v 1.4729785 0.12438138 0.49562162
v 1.4729785 0.12438138 0.49562162
v 1.438585 -0.17227755 0.49550933
v -1.5001525 -0.13101916 0.5133
v -1.5414 0.16558674 0.5131845
v 4.206866 0.31380743 0.24419814
v 4.2098107 0.16554561 0.50129014
v 1.4729785 0.12438138 0.49562162
v 1.5039799 0.2727109 0.23868114
v 1.5039799 0.2727109 0.23868114
v 1.4729785 0.12438138 0.49562162
v -1.5414 0.16558674 0.5131845
v -1.5501816 0.3138897 0.25612432
v -0.051445484 0.071754664 0.39053625
v 0.017822653 0.20707586 0.25354415
v -0.29318437 0.72184956 0.638331
v -0.31212452 0.6824748 0.66480595
v 0.10764614 0.12264627 0.4168846
v -0.051445484 0.071754664 0.39053625
v -0.31212452 0.6824748 0.66480595
v -0.26405933 0.6978502 0.6727664
v 3.0859277 0.045323238 0.3778165
v 3.1706038 -0.12807584 0.30970335
v 3.5295773 -0.9005309 1.1697192
v 3.5074382 -0.8620803 1.1950457
v 0.017822653 0.20707586 0.25354415
v 0.10764614 0.12264627 0.4168846
v -0.26405933 0.6978502 0.6727664
v -0.29318437 0.72184956 0.638331
v 3.1706038 -0.12807584 0.30970335
v 3.0138674 -0.14607021 0.37056512
v 3.4822235 -0.9059674 1.188107
v 3.5295773 -0.9005309 1.1697192
v 3.0138674 -0.14607021 0.37056512
v 3.0859277 0.045323238 0.3778165
v 3.5074382 -0.8620803 1.1950457
v 3.4822235 -0.9059674 1.188107
v -2.8176277 -0.0952097 0.44378978
v -2.7470796 0.082599126 0.50158936
v -2.9713907 -0.013326917 0.96759945
v -3.002939 -0.08042261 0.92440313
v -2.6604402 -0.09481658 0.50047106
v -2.8176277 -0.0952097 0.44378978
v -3.002939 -0.08042261 0.92440313
v -2.916759 -0.08161417 0.9565888
v -2.7470796 0.082599126 0.50158936
v -2.6604402 -0.09481658 0.50047106
v -2.916759 -0.08161417 0.9565888
v -2.9713907 -0.013326917 0.96759945
vt 0.08239746 0.8173828
vt 0.070495605 0.84814453
vt 0.09741211 0.84814453
vt 0.19726562 0.58154297
vt 0.19726562 0.57373047
vt 0.19006348 0.578125
vt 0.48657227 0.55859375
vt 0.48657227 0.55029297
vt 0.4794922 0.55371094
vt 0.44091797 0.7988281
vt 0.41552734 0.82177734
vt 0.44091797 0.83154297
vt 0.03878784 0.80126953
vt 0.015838623 0.82373047
vt 0.03878784 0.83447266
vt 0.20214844 0.5419922
vt 0.20214844 0.52783203
vt 0.19006348 0.5336914
vt 0.2919922 0.5097656
vt 0.24255371 0.5083008
vt 0.24267578 0.9555664
vt 0.2919922 0.9663086
vt 0.32421875 0.02796936
vt 0.27563477 0.021347046
vt 0.27563477 0.47021484
vt 0.32421875 0.4765625
vt 0.27563477 0.021347046
vt 0.24255371 0.015838623
vt 0.24255371 0.4741211
vt 0.27563477 0.47021484
vt 0.8432617 0.48461914
vt 0.8930664 0.4831543
vt 0.8930664 0.015838623
vt 0.8432617 0.026321411
vt 0.56152344 0.5390625
vt 0.5180664 0.56396484
vt 0.5180664 0.6147461
vt 0.6044922 0.5644531
vt 0.56152344 0.640625
vt 0.6044922 0.6152344
vt 0.76220703 0.4873047
vt 0.81152344 0.48095703
vt 0.81152344 0.015838623
vt 0.76220703 0.021942139
vt 0.7890625 0.51904297
vt 0.76220703 0.5283203
vt 0.76220703 0.9838867
vt 0.7890625 0.984375
vt 0.44213867 0.57958984
vt 0.39892578 0.55566406
vt 0.35595703 0.5805664
vt 0.35595703 0.62890625
vt 0.44213867 0.62841797
vt 0.39892578 0.65283203
vt 0.70751953 0.52001953
vt 0.68066406 0.53125
vt 0.68115234 0.98095703
vt 0.70751953 0.97802734
vt 0.9511719 0.015838623
vt 0.9248047 0.01965332
vt 0.9248047 0.5283203
vt 0.9511719 0.5185547
vt 0.73046875 0.015838623
vt 0.68066406 0.023208618
vt 0.68115234 0.4814453
vt 0.73046875 0.4880371
vt 0.43701172 0.5131836
vt 0.48657227 0.5185547
vt 0.48657227 0.015838623
vt 0.43725586 0.0231781
vt 0.6489258 0.015838623
vt 0.5996094 0.016036987
vt 0.5996094 0.49047852
vt 0.6489258 0.49609375
vt 0.5185547 0.5024414
vt 0.5678711 0.5073242
vt 0.5678711 0.015838623
vt 0.5180664 0.017303467
vt 0.17785645 0.4885254
vt 0.2109375 0.49609375
vt 0.2109375 0.015838623
vt 0.17797852 0.016662598
vt 0.048828125 0.020935059
vt 0.015838623 0.02079773
vt 0.01612854 0.50634766
vt 0.049041748 0.51220703
vt 0.12915039 0.48095703
vt 0.17785645 0.4885254
vt 0.17797852 0.016662598
vt 0.12939453 0.0231781
vt 0.097473145 0.015838623
vt 0.048828125 0.020935059
vt 0.049041748 0.51220703
vt 0.097473145 0.52001953
vt 0.8432617 0.97216797
vt 0.8930664 0.97265625
vt 0.8930664 0.5161133
vt 0.8432617 0.5214844
vt 0.40527344 0.015838623
vt 0.35595703 0.02053833
vt 0.35595703 0.52246094
vt 0.40527344 0.52441406
vt 0.09674072 0.5517578
vt 0.070495605 0.56396484
vt 0.09112549 0.67041016
vt 0.09674072 0.6660156
vt 0.35595703 0.80322266
vt 0.3840332 0.8022461
vt 0.3840332 0.6845703
vt 0.37548828 0.6850586
vt 0.1583252 0.52783203
vt 0.12915039 0.54541016
vt 0.15039062 0.74658203
vt 0.1583252 0.74316406
vt 0.61083984 0.6738281
vt 0.578125 0.6723633
vt 0.60302734 0.7915039
vt 0.61083984 0.79296875
vt 0.5463867 0.6723633
vt 0.5180664 0.6723633
vt 0.5229492 0.8676758
vt 0.5317383 0.8676758
vt 0.015838623 0.75
vt 0.038848877 0.76953125
vt 0.038848877 0.5551758
vt 0.03286743 0.5517578
vt 0.09729004 0.70214844
vt 0.070495605 0.7163086
vt 0.08758545 0.78564453
vt 0.09729004 0.7763672
vt 0.12915039 0.8569336
vt 0.15673828 0.8540039
vt 0.15673828 0.77783203
vt 0.14147949 0.7792969
vt 0.44873047 0.6850586
vt 0.41552734 0.6845703
vt 0.4345703 0.76464844
vt 0.44873047 0.76708984
vn 0.33447266 -0.7495117 -0.57128906
vn 0.33447266 -0.7495117 -0.57128906
vn 0.33447266 -0.7495117 -0.57128906
vn 0.3737793 -0.35058594 0.8588867
vn 0.3737793 -0.35058594 0.8588867
vn 0.3737793 -0.35058594 0.8588867
vn -0.31884766 0.6298828 0.7084961
vn -0.31884766 0.6298828 0.7084961
vn -0.31884766 0.6298828 0.7084961
vn -0.3737793 0.17529297 -0.91064453
vn -0.3737793 0.17529297 -0.91064453
vn -0.3737793 0.17529297 -0.91064453
vn 0.33398438 0.16894531 -0.9272461
vn 0.33398438 0.16894531 -0.9272461
vn 0.33398438 0.16894531 -0.9272461
vn -0.3256836 -0.39868164 0.8574219
vn -0.3256836 -0.39868164 0.8574219
vn -0.3256836 -0.39868164 0.8574219
vn -0.0037059784 0.86572266 0.5004883
vn -0.0037059784 0.86572266 0.5004883
vn -0.0037059784 0.86572266 0.5004883
vn -0.0037059784 0.86572266 0.5004883
vn -7.724762E-05 -0.0005054474 1
vn -7.724762E-05 -0.0005054474 1
vn -7.724762E-05 -0.0005054474 1
vn -7.724762E-05 -0.0005054474 1
vn 0.0036716461 -0.86621094 0.5
vn 0.0036716461 -0.86621094 0.5
vn 0.0036716461 -0.86621094 0.5
vn 0.0036716461 -0.86621094 0.5
vn 0.0037384033 -0.86572266 -0.5004883
vn 0.0037384033 -0.86572266 -0.5004883
vn 0.0037384033 -0.86572266 -0.5004883
vn 0.0037384033 -0.86572266 -0.5004883
vn -0.9770508 -0.1295166 0.16784668
vn -0.9770508 -0.1295166 0.16784668
vn -0.9770508 -0.1295166 0.16784668
vn -0.9770508 -0.1295166 0.16784668
vn -0.9770508 -0.1295166 0.16784668
vn -0.9770508 -0.1295166 0.16784668
vn -7.83205E-05 0.00048446655 -1
vn -7.83205E-05 0.00048446655 -1
vn -7.83205E-05 0.00048446655 -1
vn -7.83205E-05 0.00048446655 -1
vn -0.003774643 0.86621094 -0.5
vn -0.003774643 0.86621094 -0.5
vn -0.003774643 0.86621094 -0.5
vn -0.003774643 0.86621094 -0.5
vn 0.9824219 0.16589355 0.08441162
vn 0.9824219 0.16589355 0.08441162
vn 0.9824219 0.16589355 0.08441162
vn 0.9824219 0.16589355 0.08441162
vn 0.9824219 0.16589355 0.08441162
vn 0.9824219 0.16589355 0.08441162
vn -0.012016296 0.86572266 -0.5004883
vn -0.012016296 0.86572266 -0.5004883
vn -0.012016296 0.86572266 -0.5004883
vn -0.012016296 0.86572266 -0.5004883
vn 0.008872986 0.86621094 -0.49951172
vn 0.008872986 0.86621094 -0.49951172
vn 0.008872986 0.86621094 -0.49951172
vn 0.008872986 0.86621094 -0.49951172
vn 0.002122879 -0.0001950264 -1
vn 0.002122879 -0.0001950264 -1
vn 0.002122879 -0.0001950264 -1
vn 0.002122879 -0.0001950264 -1
vn -0.0059280396 -7.3969364E-05 -1
vn -0.0059280396 -7.3969364E-05 -1
vn -0.0059280396 -7.3969364E-05 -1
vn -0.0059280396 -7.3969364E-05 -1
vn 0.013626099 -0.86621094 -0.49926758
vn 0.013626099 -0.86621094 -0.49926758
vn 0.013626099 -0.86621094 -0.49926758
vn 0.013626099 -0.86621094 -0.49926758
vn -0.015281677 -0.86572266 -0.5004883
vn -0.015281677 -0.86572266 -0.5004883
vn -0.015281677 -0.86572266 -0.5004883
vn -0.015281677 -0.86572266 -0.5004883
vn 0.011489868 -0.86572266 0.5004883
vn 0.011489868 -0.86572266 0.5004883
vn 0.011489868 -0.86572266 0.5004883
vn 0.011489868 -0.86572266 0.5004883
vn -0.00919342 -0.86621094 0.49951172
vn -0.00919342 -0.86621094 0.49951172
vn -0.00919342 -0.86621094 0.49951172
vn -0.00919342 -0.86621094 0.49951172
vn -0.0021095276 0.0001951456 1
vn -0.0021095276 0.0001951456 1
vn -0.0021095276 0.0001951456 1
vn -0.0021095276 0.0001951456 1
vn 0.0059394836 7.402897E-05 1
vn 0.0059394836 7.402897E-05 1
vn 0.0059394836 7.402897E-05 1
vn 0.0059394836 7.402897E-05 1
vn -0.014129639 0.86621094 0.49902344
vn -0.014129639 0.86621094 0.49902344
vn -0.014129639 0.86621094 0.49902344
vn -0.014129639 0.86621094 0.49902344
vn 0.014640808 0.86572266 0.5004883
vn 0.014640808 0.86572266 0.5004883
vn 0.014640808 0.86572266 0.5004883
vn 0.014640808 0.86572266 0.5004883
vn -0.8286133 -0.097839355 -0.5517578
vn -0.8286133 -0.097839355 -0.5517578
vn -0.8286133 -0.097839355 -0.5517578
vn -0.8286133 -0.097839355 -0.5517578
vn -0.017562866 -0.41577148 0.9091797
vn -0.017562866 -0.41577148 0.9091797
vn -0.017562866 -0.41577148 0.9091797
vn -0.017562866 -0.41577148 0.9091797
vn 0.89697266 0.44140625 0.024673462
vn 0.89697266 0.44140625 0.024673462
vn 0.89697266 0.44140625 0.024673462
vn 0.89697266 0.44140625 0.024673462
vn 0.7939453 0.5883789 -0.15490723
vn 0.7939453 0.5883789 -0.15490723
vn 0.7939453 0.5883789 -0.15490723
vn 0.7939453 0.5883789 -0.15490723
vn -0.15429688 -0.7661133 -0.62402344
vn -0.15429688 -0.7661133 -0.62402344
vn -0.15429688 -0.7661133 -0.62402344
vn -0.15429688 -0.7661133 -0.62402344
vn -0.71484375 0.25634766 0.6503906
vn -0.71484375 0.25634766 0.6503906
vn -0.71484375 0.25634766 0.6503906
vn -0.71484375 0.25634766 0.6503906
vn -0.8227539 0.47314453 -0.3154297
vn -0.8227539 0.47314453 -0.3154297
vn -0.8227539 0.47314453 -0.3154297
vn -0.8227539 0.47314453 -0.3154297
vn -0.01210022 -0.9995117 0.024169922
vn -0.01210022 -0.9995117 0.024169922
vn -0.01210022 -0.9995117 0.024169922
vn -0.01210022 -0.9995117 0.024169922
vn 0.78466797 0.42895508 0.44750977
vn 0.78466797 0.42895508 0.44750977
vn 0.78466797 0.42895508 0.44750977
vn 0.78466797 0.42895508 0.44750977
g Log1_0
f 3/3/3 2/2/2 1/1/1
f 6/6/6 5/5/5 4/4/4
f 9/9/9 8/8/8 7/7/7
f 12/12/12 11/11/11 10/10/10
f 15/15/15 14/14/14 13/13/13
f 18/18/18 17/17/17 16/16/16
f 21/21/21 20/20/20 19/19/19
f 22/22/22 21/21/21 19/19/19
f 25/25/25 24/24/24 23/23/23
f 26/26/26 25/25/25 23/23/23
f 29/29/29 28/28/28 27/27/27
f 30/30/30 29/29/29 27/27/27
f 33/33/33 32/32/32 31/31/31
f 34/34/34 33/33/33 31/31/31
f 37/37/37 36/36/36 35/35/35
f 35/35/35 38/38/38 37/37/37
f 38/38/38 39/39/39 37/37/37
f 38/38/38 40/40/40 39/39/39
f 43/43/43 42/42/42 41/41/41
f 44/44/44 43/43/43 41/41/41
f 47/47/47 46/46/46 45/45/45
f 48/48/48 47/47/47 45/45/45
f 51/51/51 50/50/50 49/49/49
f 49/49/49 52/52/52 51/51/51
f 49/49/49 53/53/53 52/52/52
f 53/53/53 54/54/54 52/52/52
f 57/57/57 56/56/56 55/55/55
f 58/58/58 57/57/57 55/55/55
f 61/61/61 60/60/60 59/59/59
f 62/62/62 61/61/61 59/59/59
f 65/65/65 64/64/64 63/63/63
f 66/66/66 65/65/65 63/63/63
f 69/69/69 68/68/68 67/67/67
f 70/70/70 69/69/69 67/67/67
f 73/73/73 72/72/72 71/71/71
f 74/74/74 73/73/73 71/71/71
f 77/77/77 76/76/76 75/75/75
f 78/78/78 77/77/77 75/75/75
f 81/81/81 80/80/80 79/79/79
f 82/82/82 81/81/81 79/79/79
f 85/85/85 84/84/84 83/83/83
f 86/86/86 85/85/85 83/83/83
f 89/89/89 88/88/88 87/87/87
f 90/90/90 89/89/89 87/87/87
f 93/93/93 92/92/92 91/91/91
f 94/94/94 93/93/93 91/91/91
f 97/97/97 96/96/96 95/95/95
f 98/98/98 97/97/97 95/95/95
f 101/101/101 100/100/100 99/99/99
f 102/102/102 101/101/101 99/99/99
f 105/105/105 104/104/104 103/103/103
f 106/106/106 105/105/105 103/103/103
f 109/109/109 108/108/108 107/107/107
f 110/110/110 109/109/109 107/107/107
f 113/113/113 112/112/112 111/111/111
f 114/114/114 113/113/113 111/111/111
f 117/117/117 116/116/116 115/115/115
f 118/118/118 117/117/117 115/115/115
f 121/121/121 120/120/120 119/119/119
f 122/122/122 121/121/121 119/119/119
f 125/125/125 124/124/124 123/123/123
f 126/126/126 125/125/125 123/123/123
f 129/129/129 128/128/128 127/127/127
f 130/130/130 129/129/129 127/127/127
f 133/133/133 132/132/132 131/131/131
f 134/134/134 133/133/133 131/131/131
f 137/137/137 136/136/136 135/135/135
f 138/138/138 137/137/137 135/135/135
