g lp.obj
v -1.3591514 0.113417014 5.3232656
v -1.3607386 -0.063665606 4.403499
v -1.4103203 -0.0026175005 4.7654076
v -1.6480072 0.8000244 5.573266
v -1.5249854 0.43961367 6.055528
v -1.5832547 0.6880493 5.8514056
v 1.3410236 0.8848503 6.018045
v 1.2725854 0.7294003 6.226914
v 1.3652382 0.9470067 5.8190317
v 2.0286214 1.1395372 1.287842
v 0.52567923 1.343391 0.018711654
v 1.4802656 1.2043281 0.6762784
v -1.5006655 0.27580646 0.5736712
v -1.5597942 0.27291387 0.88563806
v -1.4163284 0.27325797 0.28002754
v 2.0460727 0.37745148 -0.020119963
v 1.2982115 0.2797311 -0.014182794
v 1.5022231 0.35947824 -0.009806848
v 0.21051405 -1.4743505 4.2626433
v 0.49514914 -1.5029529 4.307783
v 0.48298994 -1.2970544 4.1222825
v 0.06874136 -1.3045001 4.0599117
v -0.21740472 -1.4920776 4.2681513
v 0.4735327 -1.2428361 4.0123997
v 0.68815404 -1.0389878 4.267621
v 0.84731966 -1.0426896 3.9911597
v 0.5395548 -0.76344085 5.106398
v 1.1818728 -0.3123164 5.5151515
v -0.6328716 -1.5179446 4.3188157
v -0.45344928 -1.4655423 4.287557
v -0.2787859 -1.4222678 4.3861356
v -0.39535782 -1.2894529 4.0980344
v -0.4033513 -1.3096249 3.9526796
v -0.5824642 -1.183729 4.1334696
v -0.6804118 -1.0389335 4.2717395
v -0.82142526 -1.1260612 3.9173036
v -1.1451353 -0.92125356 3.7869234
v -0.8355421 -1.3841131 3.641176
v -0.11820385 -1.6185143 3.676825
v -0.4977896 -1.5604104 3.644054
v -0.8092083 -1.4133571 3.438344
v -0.90366125 -1.47546 3.2559345
v -1.117069 -0.9963057 3.3598385
v -1.2597104 -0.7836824 3.829955
v -1.3414942 -0.7083144 3.1904306
v 0.3085441 -1.5994773 3.6684864
v 0.03576019 -1.649923 3.4901102
v -1.3122518 -1.1467228 2.6644964
v 0.8124465 -1.4239925 3.6046703
v -0.33457044 -1.6688118 3.3137102
v 0.6358637 -1.5413033 3.4366624
v 0.200798 -1.6988934 3.3166673
v -1.436923 -0.9177263 2.2479002
v -1.4398419 0.45960844 3.0098853
v -1.4213278 -0.23102109 2.498221
v 0.74783105 -1.5705086 3.3007705
v 0.8390176 -1.5017047 3.1659534
v -0.0007229234 -1.5738379 3.142501
v -0.6525725 -1.524568 3.1584466
v -0.8024209 -1.6636508 2.0115545
v 0.016418844 -1.7907008 2.022575
v -1.0949007 -1.4641428 2.607289
v -1.3382176 -1.2245213 2.2079186
v 1.0221117 -1.1158051 3.4084837
v 0.9315256 -1.4458992 3.2469795
v 1.2668717 -0.77375215 3.8171763
v 1.3118738 -0.75075793 3.2033517
v 1.3675781 -0.17030868 3.6169813
v 1.2682865 -0.49790546 4.6068444
v 1.2294205 -0.667353 4.2542777
v 1.32792 0.23875016 5.984384
v 1.347646 -1.2040795 2.407075
v 1.2411393 -1.3841126 2.2436595
v 1.2273271 -1.0314413 1.928565
v 1.0701717 -1.5212619 2.0752232
v 0.6400862 -1.7226512 1.9661659
v 0.8142169 -1.4125019 1.7819798
v -0.6129487 -1.6673977 1.8812239
v 0.51403517 -1.4837322 1.7049341
v -0.2981448 -1.5269986 1.7016273
v -0.76571995 -1.3561406 1.749132
v -0.3541948 -1.0330467 1.7335567
v -1.164177 -1.0723299 1.8961871
v 0.5812394 -0.8836636 1.7611382
v -0.8154118 -0.8399109 1.8302598
v -1.3315016 -0.83891106 2.0869966
v -1.0409319 -0.6933822 1.945962
v -1.3860166 -0.6825848 2.2565246
v -1.275231 0.44260886 2.7737718
v -1.1942985 -0.3843751 2.3565814
v -1.0954514 -0.50224954 2.0656013
v -1.112702 0.11994383 2.3526094
v -1.167748 0.45509803 2.7520828
v -1.1997817 0.13159817 2.2940905
v -1.0196227 0.6028238 2.5523026
v -0.4798282 -0.86314315 1.7115896
v -0.86738616 -0.7451902 1.7765633
v -1.1307416 -0.7309046 1.5395461
v -1.0808727 -0.593398 1.9262488
v -0.09420484 -0.91377693 1.6849025
v -1.43992 -0.24016833 2.0306036
v -1.4497964 -0.4106364 1.831885
v -0.6668287 -0.8556209 1.4198947
v -1.2293296 0.61563003 2.2411432
v -1.5464678 0.50366795 2.0746744
v -1.5909933 -0.12206489 1.7595206
v -1.4558618 -0.43203193 1.301182
v -1.5660915 0.36383182 2.0315213
v -1.6509981 0.41846666 1.9083997
v -1.6080903 0.30330598 1.4076741
v -1.5126562 0.58228004 2.1397965
v -1.5205405 -0.06874726 0.93113816
v -2.13227 0.39306986 1.8667866
v -1.5597942 0.27291387 0.88563806
v -0.92511696 0.7498317 2.6014876
v -1.091767 0.8404543 2.3624005
v -0.52540594 0.9937511 2.8794699
v -0.67302984 0.95040876 2.943924
v -0.8280911 1.0031937 2.6268413
v -0.42787287 1.1252373 2.8639348
v -0.3357484 1.0709083 2.9499779
v -1.0879172 1.031344 2.507212
v -1.588489 0.8673976 2.370437
v -1.217735 1.2267792 2.323732
v -0.017300578 1.2913693 2.7862413
v -1.8687322 0.8573107 2.2238493
v -2.0675755 0.44839448 2.0018413
v -2.0762107 0.679101 2.104736
v -2.1985183 0.44662634 1.7947177
v 0.33702552 1.0912383 2.9093707
v -0.3357484 1.0709083 2.9499779
v -1.9180912 1.09383 2.053717
v -2.068422 1.1026695 1.7857853
v -2.1895337 0.8017962 1.748108
v -2.1623554 0.336247 1.0997454
v -2.1958997 0.36830875 0.07359309
v -2.1411724 1.1014397 1.42324
v -2.1277049 0.3108402 0.07804163
v -2.173755 1.0030856 0.066305876
v -1.6707817 0.30389664 0.034857415
v -1.5006655 0.27580646 0.5736712
v -1.4163284 0.27325797 0.28002754
v -2.081848 0.39360496 -0.022316806
v -2.1294243 0.93746114 -0.026613932
v -2.0999818 1.1101059 0.053045604
v -1.3374517 -0.073304884 0.055640798
v -1.364766 0.27878743 0.0643949
v -1.6563585 1.1713251 0.5530868
v -1.8541892 1.1282133 -0.032608993
v -1.340371 0.32859483 -0.003170643
v -1.4385338 0.9719939 -0.041845176
v -0.9119969 1.2179928 -0.053135984
v -1.2474725 0.040761523 -0.010878214
v 1.1964662 -0.28808644 0.0068123466
v 1.2982115 0.2797311 -0.014182794
v -1.4532918 1.0993712 0.049839236
v -1.20595 1.265137 0.5816282
v -1.1451585 1.2779199 0.02014674
v 0.52567923 1.343391 0.018711654
v -0.45131606 1.3275962 2.4894836
v 0.7762161 1.3178219 2.4511187
v 0.9991111 1.2275082 -0.05226689
v 0.2634561 1.2430488 2.83692
v 0.6368078 1.1306775 2.7727997
v 0.8071841 0.9913455 2.6448133
v 1.2532113 1.1176841 2.3732903
v 1.2590171 0.9514641 2.4088662
v 2.0286214 1.1395372 1.287842
v 1.5885898 1.1463408 2.1591034
v 2.004051 0.9014157 2.1621633
v 1.2590171 0.9514641 2.4088662
v 2.041224 1.0850285 1.8284404
v 2.1770267 0.86429673 1.9799701
v 2.1770267 0.86429673 1.9799701
v 2.0516138 1.0927286 0.04833525
v 1.4802656 1.2043281 0.6762784
v 1.2077687 1.248182 0.023239918
v 1.4462681 1.0950342 0.011004558
v 1.7474085 1.1359295 -0.01534082
v 1.4039739 0.9378556 -0.030389592
v 2.0630455 1.0007256 -0.04258173
v 2.1778033 0.86281073 0.07345503
v 2.183597 0.38588083 0.18570974
v 2.1736522 0.47484353 0.033279896
v 2.0460727 0.37745148 -0.020119963
v 1.9482423 0.2851613 0.058964476
v 1.5022231 0.35947824 -0.009806848
v 1.4465213 0.29550764 0.07748962
v 1.5727385 0.27877954 0.848903
v 2.0960016 0.33177936 1.0146044
v 1.3877752 0.22381581 0.07720054
v 1.3128157 -0.22348106 0.086068965
v 2.192556 0.64028424 1.8180642
v 2.1570346 0.40877134 1.516711
v 2.002752 0.5106461 2.0874517
v 2.004051 0.9014157 2.1621633
v 2.0693238 0.4287886 1.9017216
v 1.6791462 0.3557214 1.6809504
v 1.6628721 0.44684148 1.91689
v 1.4554878 0.59814775 2.1268058
v 1.8114285 0.6209039 2.2059703
v 1.2590171 0.9514641 2.4088662
v 1.6090746 0.27144337 1.3659344
v 1.5672331 0.2936286 1.970529
v 1.5651766 -0.17389551 1.899719
v 1.0959224 0.8093788 2.3472152
v 0.6368078 1.1306775 2.7727997
v 0.8071841 0.9913455 2.6448133
v 1.4606701 -0.19316787 2.050152
v 1.436265 -0.4418933 1.3128885
v 1.1388249 0.3967279 2.40507
v 0.9098665 0.7363455 2.6464365
v 1.3763613 -0.47411507 1.8664792
v 1.2078342 -0.36758462 0.084893554
v 1.1436384 -0.70736855 1.5617346
v 0.38827708 1.0683326 2.9489403
v 0.33702552 1.0912383 2.9093707
v -0.3357484 1.0709083 2.9499779
v 0.8322356 -0.49944872 0.09312019
v 1.2149705 -0.2549345 2.1579452
v 1.1996795 -0.5449899 1.9402198
v 1.0375603 -0.6763528 1.8092779
v 1.0978645 0.40850633 2.5026512
v 1.2197913 0.55655515 2.9213023
v 0.91710424 0.81780034 2.881127
v 0.6934978 -0.8451218 1.4815964
v -0.17182246 -0.6096947 0.086474255
v -0.054328553 -0.8134433 0.89413476
v -0.45531055 -0.49002713 0.013109354
v -1.1604631 -0.29962784 0.01688319
v -0.90448564 -0.4719821 0.09064229
v -1.2370683 -0.33030868 0.103269406
v 0.4653909 -0.8648635 1.6783557
v 1.0936003 -0.72008103 1.9442208
v 1.1513115 -0.7198095 2.0138648
v 1.3566397 -0.8120865 2.1415114
v 1.2392955 -0.42521125 2.3271894
v 1.4165429 -0.530595 2.3712673
v 1.2177135 0.34975407 2.7117426
v 1.3867973 0.30747756 2.7295902
v 1.4364377 0.4480043 2.9372177
v 1.2772982 0.6077502 3.4506583
v 1.4139805 0.47885174 3.6314452
v 1.1587465 0.6619047 3.0876844
v 1.3298446 0.49930343 3.99201
v 1.2101257 0.576099 3.855789
v 1.4068063 0.67924947 4.242916
v 1.2646195 0.7529376 3.5398698
v 1.4317821 0.86070526 3.1243258
v 1.1672004 0.7116685 3.9218652
v 1.0558637 0.7824848 2.9845796
v 1.3123642 -0.025673216 4.1436954
v 0.8641963 0.9334128 2.9720287
v -0.06514059 1.2310331 3.0192723
v 0.5729518 1.3457469 3.127973
v 1.2502393 1.1378411 3.0811572
v -0.67302984 0.95040876 2.943924
v -0.52540594 0.9937511 2.8794699
v 1.3970824 0.95058686 3.0625017
v 1.4567022 1.103172 3.1629694
v 1.0609752 1.2724664 3.1776164
v 1.4497606 1.1514513 3.5166814
v 1.365568 0.86071825 4.015593
v 1.2874893 1.193054 4.237396
v 1.3652382 0.9470067 5.8190317
v 1.3629727 0.7653544 4.26411
v 1.3871086 0.8121945 4.8713408
v 1.2610102 1.2131536 5.1890283
v 1.2601631 1.288219 6.263769
v 0.31979728 1.3149364 5.96383
v 1.6412148 0.8339983 5.133807
v 1.2725854 0.7294003 6.226914
v 1.366396 0.22920589 6.491593
v 1.1891578 1.4160991 7.516587
v 0.5191914 1.2730302 4.377889
v 1.6310148 0.8634333 5.9352603
v 1.3410236 0.8848503 6.018045
v 1.3701115 -0.19493629 6.732485
v 1.3787386 -0.18522112 6.6113677
v 1.6611856 0.6512283 4.1831923
v 1.7175977 0.68916136 4.718191
v 1.3981423 0.5614268 4.0891194
v 1.379182 0.072089955 4.1468325
v 1.6103413 0.11231148 4.237398
v 1.7211947 0.5930655 4.2287083
v 1.710133 0.55708736 4.3960447
v 1.5948635 0.7249813 5.762838
v 1.5453066 0.041534487 4.611711
v 1.5869881 0.13455588 4.507439
v 1.3718556 -0.058042992 4.577263
v 1.3561313 0.10971929 5.303104
v 1.5036196 0.2727928 5.6898103
v 1.4931426 0.49616307 6.1245503
v 1.2667074 0.43713725 6.1857595
v 1.2967676 0.68594706 6.158829
v 1.5343685 0.44119093 5.853128
v 1.5397613 0.29907835 4.54161
v 1.5887517 0.7917401 6.0662737
v 1.5879136 0.6544505 5.8837767
v 1.2725854 0.7294003 6.226914
v 1.5240456 0.7149904 5.7371626
v 1.4699479 0.5372273 5.8205934
v 1.5995467 0.51574695 4.5148845
v -1.1942985 -0.3843751 2.3565814
v -1.167748 0.45509803 2.7520828
v -1.275231 0.44260886 2.7737718
v -1.1466271 0.70808977 3.059194
v -1.1658655 0.6486823 3.1076546
v -1.4354045 0.38966268 2.8718677
v -1.4213278 -0.23102109 2.498221
v -1.4398419 0.45960844 3.0098853
v -1.4213278 -0.23102109 2.498221
v -0.98405486 0.74848443 2.9120293
v -1.0196227 0.6028238 2.5523026
v -1.112702 0.11994383 2.3526094
v -1.103386 0.87521666 3.0004659
v -1.413566 0.866748 3.08807
v -1.404002 0.9215219 3.8503582
v -0.6821125 1.3062322 3.1061602
v -1.4037601 1.0790857 3.0707848
v -0.5832037 1.3480055 3.2011237
v -1.4650862 1.1314816 3.2276847
v -1.2027383 1.2211549 3.1481452
v -1.439963 1.1616931 3.638003
v -1.3018396 1.1716881 4.5895023
v -0.8531247 1.247822 4.9365153
v -1.3446059 1.1479378 4.222332
v -1.137075 1.3521775 6.4775214
v -0.2670706 1.6143384 7.6339054
v -1.2547309 1.2269353 5.567896
v -1.3657218 0.79517275 4.1987033
v -1.3796794 0.7858097 4.7373843
v -1.3607943 0.9461364 5.8139997
v -1.2740518 1.2741538 6.28742
v -1.4050751 0.8930666 5.3572717
v 0.703307 1.5912683 7.6107755
v 1.0378996 1.3726602 6.5072026
v 1.1896687 1.3374226 6.8145304
v 1.0579916 1.5401845 7.5656114
v 1.0681372 1.1231974 7.84754
v 1.0687122 0.45433208 8.168219
v 0.03870279 0.031618588 8.386742
v 1.208765 0.44322032 7.9548264
v 1.1230698 0.39562258 8.105545
v 1.049234 -0.32039157 7.059051
v 0.43473643 0.054908343 8.303956
v 0.8408488 0.12135172 8.079036
v 0.468859 -0.61059874 7.056786
v -1.0639931 1.327071 7.750447
v -0.68707126 0.21509917 8.294097
v -0.42107156 0.044999663 8.297352
v -1.0679901 0.45679685 8.170814
v -1.2108264 0.5982291 7.945547
v -1.1468551 0.34334803 8.036524
v -1.3399078 -0.027156705 7.10598
v -1.2377305 1.3134861 6.958343
v -1.1819621 1.3959963 7.5687113
v -1.035292 1.5318438 7.613906
v -1.1363138 1.5129802 7.476579
v -1.2791713 0.4596136 6.2097335
v -1.3057579 0.901226 6.076047
v -1.5746542 0.8665033 5.927668
v -1.4686637 0.77985036 6.089094
v -1.512952 0.5586611 6.112082
v -1.5249854 0.43961367 6.055528
v -1.340947 0.23723303 5.9421716
v -1.6480072 0.8000244 5.573266
v -1.5736616 0.76262367 4.892902
v -1.3831333 0.67741936 4.20671
v -1.708233 0.68410516 4.5509233
v -1.6343628 0.7114935 5.4205713
v -1.5832547 0.6880493 5.8514056
v -1.530944 0.4657645 5.884796
v -1.5236491 0.2860559 5.641524
v -1.5174403 0.6965003 5.7540326
v -1.5927314 0.51051944 4.51888
v -1.7032646 0.6150455 4.6403227
v -1.7282116 0.57727355 4.3412185
v -1.4775385 0.5303287 5.794962
v -1.5419652 0.27225497 4.583453
v -1.5933503 0.065067045 4.3505273
v -1.6319861 0.6467366 4.183175
v -1.4103203 -0.0026175005 4.7654076
v -1.3591514 0.113417014 5.3232656
v -1.3607386 -0.063665606 4.403499
v -1.5778172 0.10528772 4.2124343
v -1.6459137 0.53232527 4.1560407
v -1.3675377 0.47857416 4.0751867
v -1.3481679 0.049032316 4.148718
v -1.2597104 -0.7836824 3.829955
v -1.1387135 0.5884417 3.9103794
v -1.3310653 0.44746032 3.9663153
v -1.1376468 0.6821491 3.7783904
v -1.2237107 0.62679654 3.4263804
v -1.2118711 0.7048275 3.4629433
v -1.3316813 -0.055975925 3.9680238
v -1.3414942 -0.7083144 3.1904306
v -1.2121631 -0.49221367 4.962938
v -1.1451353 -0.92125356 3.7869234
v -0.67002505 -0.69735426 5.052379
v -0.6804118 -1.0389335 4.2717395
v -1.1827675 -0.31303373 5.5122805
v -1.1456165 -0.14946926 5.985731
v -0.5279341 -0.4548478 5.646852
v -1.2519103 0.2543034 6.2382946
v -1.3840224 -0.14266697 6.619725
v -0.58472025 -0.99148107 4.620453
v -0.5079688 -0.62104815 5.4085093
v -0.4314763 -0.5471362 5.728239
v -0.5465206 -0.3098345 5.919112
v -1.1116918 -0.10064181 6.2987237
v -1.1696117 -0.119080134 6.47737
v -0.717081 -1.5476472 4.441433
v -0.5824642 -1.183729 4.1334696
v -0.47518954 -0.24722795 6.28556
v -1.3342987 -0.22673337 6.6408
v -0.47443882 -0.32126322 6.050449
v -0.50555205 -1.8103431 4.9492326
v -0.40041643 -0.69342613 5.9166994
v -0.53628784 -0.25382337 6.4806376
v -0.46495974 -0.3684639 6.589364
v -0.4237445 -1.1332475 5.528523
v -0.35008204 -0.6657101 6.013685
v -0.3583626 -1.3040304 5.435288
v 0.39747623 -0.94713837 5.711551
v -0.8436253 -0.48185685 6.8177342
v -0.3083059 -0.4372049 6.6723094
v 0.3230619 -0.62219715 6.13265
v 0.4276763 -0.41014996 6.6417336
v -0.03102337 -0.637502 6.9224596
v -1.090978 -0.39381856 6.8729906
v 0.39710373 -0.58711785 6.0811524
v -0.18378037 -0.67822045 7.0392337
v -1.0167543 -0.27647477 7.256736
v -0.53041065 -0.47503614 7.312596
v -0.42107156 0.044999663 8.297352
v -0.68707126 0.21509917 8.294097
v -1.0679901 0.45679685 8.170814
v 0.03870279 0.031618588 8.386742
v 0.468859 -0.61059874 7.056786
v 0.86713487 -0.49652535 6.854069
v 1.049234 -0.32039157 7.059051
v 1.3701115 -0.19493629 6.732485
v 1.3787386 -0.18522112 6.6113677
v 1.2028534 -0.103300735 6.4615197
v 1.2667074 0.43713725 6.1857595
v 1.366396 0.22920589 6.491593
v 1.2725854 0.7294003 6.226914
v 1.2967676 0.68594706 6.158829
v 1.1420252 -0.09229282 6.351981
v 1.32792 0.23875016 5.984384
v 0.54210657 -0.21838021 6.3956203
v 1.1432472 -0.15639666 5.944678
v 1.1818728 -0.3123164 5.5151515
v 0.46481273 -0.2838765 6.138202
v 0.7699413 -0.5690959 5.2478848
v 0.5395548 -0.76344085 5.106398
v 0.5096783 -0.41859737 5.7009816
v 0.43876046 -0.51651365 5.725783
v 0.5723324 -0.98553264 4.699685
v 0.68815404 -1.0389878 4.267621
v 0.6730465 -1.0813979 4.3295856
v 0.519276 -1.804442 4.9222665
v 0.7046994 -1.5409191 4.474196
v 0.68080074 -1.6474935 4.404348
v 0.68815404 -1.0389878 4.267621
v 0.48298994 -1.2970544 4.1222825
v 0.49514914 -1.5029529 4.307783
v 0.42345548 -1.7733551 5.0368447
v 0.6359885 -1.8361545 4.6137686
v -0.44914985 -1.8908285 4.9176564
v 0.4721489 -1.9483944 4.7936234
v 0.55706376 -1.9210194 4.5925183
v -0.56098735 -1.9420322 4.7284565
v 0.18763529 -1.8628442 4.5034614
v 0.47384948 -1.7643746 4.452303
v -0.61209834 -1.8613396 4.5278187
v 0.45019397 -1.4794934 4.4418936
v 0.21051405 -1.4743505 4.2626433
v -0.6328716 -1.5179446 4.3188157
v -0.39535782 -1.2894529 4.0980344
v -0.45344928 -1.4655423 4.287557
v -0.501774 -1.7609073 4.453446
v -0.4519972 -1.4763612 4.432259
v -0.2787859 -1.4222678 4.3861356
v -0.25094542 -1.6415476 4.5237737
v -0.21740472 -1.4920776 4.2681513
v -0.43184686 -1.6468017 4.5424576
v -0.23713113 -1.7489767 4.4527116
v 0.24276783 -1.7513303 4.4707384
v 0.3940739 -1.6646961 4.5540624
v 0.27322114 -1.6487803 4.534662
v 0.26784566 -1.4355654 4.3841243
vt 0.73143935 0.6527344
vt 0.74883 0.5840796
vt 0.7419113 0.61157405
vt 0.6723875 0.6548122
vt 0.6926116 0.6926283
vt 0.6792742 0.6741821
vt 0.40509433 0.68838656
vt 0.39278638 0.7118996
vt 0.41336298 0.66986656
vt 0.36776516 0.15563712
vt 0.26680332 0.16674015
vt 0.32243782 0.15544908
vt 0.14060892 0.24571128
vt 0.12225503 0.2454174
vt 0.16126391 0.24300358
vt 0.33872783 0.22599913
vt 0.30981997 0.24207912
vt 0.317429 0.23669092
vt 0.14019 0.54808
vt 0.16226834 0.5514706
vt 0.18883671 0.54840446
vt 0.1414302 0.5294878
vt 0.110299185 0.54183245
vt 0.19175345 0.5392763
vt 0.22516268 0.5571117
vt 0.23710631 0.53410894
vt 0.25122464 0.575333
vt 0.29713616 0.6352185
vt 0.1016809 0.52979845
vt 0.10426295 0.53574777
vt 0.09941551 0.5423875
vt 0.100665316 0.51976645
vt 0.102884375 0.5083044
vt 0.07762823 0.5124129
vt 0.060318008 0.50666267
vt 0.06627655 0.4855181
vt 0.042604335 0.457455
vt 0.07884155 0.46659333
vt 0.14026822 0.4948926
vt 0.10829558 0.47913852
vt 0.08548322 0.45404243
vt 0.0853477 0.44119623
vt 0.045672778 0.4231891
vt 0.0304 0.42958
vt 0.02855991 0.39034045
vt 0.1737206 0.504451
vt 0.15466724 0.48714843
vt 0.06703292 0.37893885
vt 0.22010334 0.50580394
vt 0.12847993 0.4664195
vt 0.20528674 0.49344265
vt 0.17007373 0.48008534
vt 0.069514185 0.34359622
vt 0.008695727 0.2952426
vt 0.027211722 0.29838416
vt 0.2130574 0.48555538
vt 0.22012998 0.4735952
vt 0.16051379 0.46229386
vt 0.11139044 0.4466859
vt 0.1311214 0.3822505
vt 0.1823227 0.40452743
vt 0.09447336 0.3933913
vt 0.087467 0.35906523
vt 0.25590587 0.49312606
vt 0.23310573 0.48075822
vt 0.2831791 0.5160886
vt 0.2948878 0.476336
vt 0.34372717 0.48491788
vt 0.30482084 0.5728971
vt 0.28633165 0.5466049
vt 0.34579998 0.6841164
vt 0.27958995 0.4277772
vt 0.26377115 0.42068017
vt 0.28337592 0.39586157
vt 0.25138444 0.41259778
vt 0.221097 0.40741858
vt 0.24442092 0.3950515
vt 0.1461482 0.3792301
vt 0.22279237 0.3868555
vt 0.16913651 0.37590927
vt 0.13989216 0.36093578
vt 0.168782 0.3504882
vt 0.10317029 0.343438
vt 0.25389582 0.3660854
vt 0.12241087 0.33072335
vt 0.080547035 0.3309309
vt 0.09538054 0.31735083
vt 0.061083406 0.32529047
vt 0.00816347 0.25864822
vt 0.04917338 0.2966642
vt 0.07288739 0.2994678
vt 0.03292638 0.23237804
vt 0.017528763 0.24138609
vt 0.040994607 0.22294563
vt 0.035413556 0.14865786
vt 0.15906109 0.34057832
vt 0.119381756 0.32435164
vt 0.11936974 0.30852705
vt 0.089081466 0.30797863
vt 0.19381362 0.3513719
vt 0.066264495 0.2654419
vt 0.08334646 0.28026277
vt 0.1588172 0.32559368
vt 0.046575863 0.17962277
vt 0.059255153 0.1971483
vt 0.07855937 0.25602394
vt 0.11202683 0.28069192
vt 0.061950494 0.21218613
vt 0.06711579 0.20920642
vt 0.09190565 0.23550326
vt 0.059116736 0.17948738
vt 0.123759195 0.26126188
vt 0.082732685 0.19608915
vt 0.12225503 0.2454174
vt 0.052158207 0.12195398
vt 0.058531824 0.13834636
vt 0.090611145 0.060047008
vt 0.0491 0.10378
vt 0.07873167 0.09518577
vt 0.116225734 0.04761694
vt 0.11084439 0.041777894
vt 0.077275276 0.11559287
vt 0.072406255 0.15275353
vt 0.09327345 0.11491711
vt 0.16716579 0.031197548
vt 0.080328405 0.16255328
vt 0.07719914 0.19056544
vt 0.08109243 0.17680302
vt 0.088396125 0.19216374
vt 0.20296325 0.004630049
vt 0.15326 0.01755
vt 0.09309536 0.15170223
vt 0.103661075 0.15779202
vt 0.0971015 0.17532867
vt 0.11139915 0.21200019
vt 0.15131977 0.21567291
vt 0.11527343 0.16703203
vt 0.15169808 0.22039503
vt 0.15854779 0.1942821
vt 0.16668168 0.23030111
vt 0.14060892 0.24571128
vt 0.16126391 0.24300358
vt 0.15803668 0.21802804
vt 0.16363333 0.19821197
vt 0.16282083 0.1890653
vt 0.17469099 0.25189826
vt 0.17522651 0.23732068
vt 0.16843018 0.16365004
vt 0.17356941 0.18944833
vt 0.18050335 0.23312487
vt 0.18847215 0.19300526
vt 0.20934099 0.18186946
vt 0.1820583 0.24682017
vt 0.29678988 0.2686569
vt 0.30981997 0.24207912
vt 0.18715 0.18479529
vt 0.18301593 0.15214014
vt 0.19879109 0.1783225
vt 0.26680332 0.16674015
vt 0.14010456 0.06709239
vt 0.2575905 0.03489212
vt 0.29057795 0.18107025
vt 0.19359031 0.014076952
vt 0.23823509 0.0074951565
vt 0.24637723 0.0035376432
vt 0.31920004 0.0437318
vt 0.31246 0.02655
vt 0.36776516 0.15563712
vt 0.35860533 0.084205225
vt 0.40030587 0.110309
vt 0.35020944 0.049597435
vt 0.39781177 0.14720093
vt 0.4214025 0.17215383
vt 0.42825428 0.19985786
vt 0.33560407 0.19067873
vt 0.32243782 0.15544908
vt 0.3004056 0.17676616
vt 0.3102379 0.18654692
vt 0.32301265 0.18906859
vt 0.30791545 0.19566545
vt 0.33349824 0.19797742
vt 0.3415394 0.20201908
vt 0.34940472 0.22462979
vt 0.34320498 0.2189037
vt 0.33872783 0.22599913
vt 0.33858275 0.23267873
vt 0.317429 0.23669092
vt 0.3181311 0.24397787
vt 0.35744917 0.26800978
vt 0.37668073 0.2394443
vt 0.31570542 0.24995852
vt 0.30429792 0.27073288
vt 0.41570473 0.21791409
vt 0.39994362 0.23307814
vt 0.4253819 0.2528382
vt 0.44649106 0.24070898
vt 0.41237676 0.24881163
vt 0.39712512 0.285796
vt 0.40931678 0.29896313
vt 0.42613754 0.32302982
vt 0.43584836 0.27506137
vt 0.4573357 0.34455904
vt 0.377507 0.2862829
vt 0.39677972 0.31711793
vt 0.36426345 0.33949396
vt 0.44552848 0.36204064
vt 0.4740735 0.3843685
vt 0.4696222 0.39456713
vt 0.36549678 0.3531234
vt 0.33043346 0.32913864
vt 0.41237557 0.37493277
vt 0.4481241 0.3984013
vt 0.3369551 0.35816678
vt 0.2983264 0.27681568
vt 0.3073681 0.35207182
vt 0.5097554 0.42630744
vt 0.5158911 0.42389232
vt 0.585058 0.43674222
vt 0.27739233 0.28553545
vt 0.35480762 0.3745221
vt 0.32489446 0.3703905
vt 0.30272746 0.36800182
vt 0.41405433 0.3899927
vt 0.41411638 0.4296863
vt 0.45267648 0.42492867
vt 0.26698503 0.35074717
vt 0.22510415 0.2840736
vt 0.21204224 0.32282072
vt 0.2139524 0.27451542
vt 0.18185717 0.26199225
vt 0.18974194 0.2734462
vt 0.17471786 0.26481885
vt 0.2466797 0.36108384
vt 0.3046943 0.3773862
vt 0.30875692 0.38341087
vt 0.3048709 0.40134633
vt 0.3379633 0.39283907
vt 0.3275265 0.4109759
vt 0.40298292 0.40966535
vt 0.39054826 0.42308682
vt 0.39585233 0.4382816
vt 0.40199414 0.47834474
vt 0.38605613 0.4951825
vt 0.42392594 0.4443318
vt 0.38523412 0.5221007
vt 0.39676076 0.5129369
vt 0.40230805 0.547148
vt 0.41172713 0.48798352
vt 0.43304557 0.4636432
vt 0.40487027 0.5171281
vt 0.44010395 0.4353546
vt 0.33889306 0.53726196
vt 0.462721 0.43184146
vt 0.5528864 0.44573796
vt 0.5042529 0.45868456
vt 0.45325124 0.4596874
vt 0.62352383 0.4436915
vt 0.61493665 0.43480122
vt 0.44010895 0.4607365
vt 0.44413722 0.47100627
vt 0.46847248 0.46863705
vt 0.43934977 0.4963841
vt 0.42073303 0.5263808
vt 0.44078904 0.54224217
vt 0.41336298 0.66986656
vt 0.4119044 0.5458137
vt 0.41490948 0.59448004
vt 0.44862378 0.6218182
vt 0.43392476 0.7059869
vt 0.52768916 0.6675627
vt 0.40007836 0.61769164
vt 0.39278638 0.7118996
vt 0.37027198 0.77006316
vt 0.46743205 0.77698547
vt 0.5078138 0.5557086
vt 0.39516747 0.67343414
vt 0.40509433 0.68838656
vt 0.37805912 0.8461643
vt 0.36476 0.81224
vt 0.38898647 0.55408055
vt 0.39061219 0.5889304
vt 0.3901045 0.53559905
vt 0.3497458 0.5389111
vt 0.35523796 0.55271137
vt 0.3831846 0.558689
vt 0.38041812 0.5690383
vt 0.3840865 0.6615308
vt 0.3447442 0.57761735
vt 0.35360616 0.5731833
vt 0.3312167 0.5726081
vt 0.33344513 0.62918687
vt 0.3494356 0.6587543
vt 0.37061256 0.68926656
vt 0.36164588 0.70123124
vt 0.38690418 0.70685565
vt 0.3644235 0.6698622
vt 0.36091235 0.5768674
vt 0.38782263 0.6834235
vt 0.37942362 0.67065084
vt 0.39278638 0.7118996
vt 0.37967652 0.6591783
vt 0.37073392 0.6647682
vt 0.37349483 0.5778021
vt 0.72025 0.43508
vt 0.69655925 0.44231358
vt 0.7035002 0.4503738
vt 0.67457867 0.46794242
vt 0.68521774 0.47327754
vt 0.714727 0.46179658
vt 0.73659 0.44284
vt 0.7188393 0.47634223
vt 0.74087 0.44892
vt 0.6627934 0.44919747
vt 0.69000095 0.4318382
vt 0.70959115 0.42953587
vt 0.6565228 0.46233928
vt 0.6634417 0.48268712
vt 0.6647759 0.5292934
vt 0.6051044 0.4643667
vt 0.65181077 0.4826109
vt 0.59227824 0.47405028
vt 0.6502687 0.49172354
vt 0.637272 0.48233917
vt 0.64903235 0.5159698
vt 0.6350915 0.5799149
vt 0.59516793 0.5984585
vt 0.64268124 0.55431336
vt 0.6115254 0.71232843
vt 0.5542923 0.78736776
vt 0.6279485 0.6501814
vt 0.67109835 0.5552585
vt 0.6629882 0.5942386
vt 0.64967203 0.6719326
vt 0.6271442 0.7017975
vt 0.6578042 0.6367848
vt 0.49910304 0.77610147
vt 0.45527118 0.7142587
vt 0.44907653 0.73686934
vt 0.47805876 0.77595174
vt 0.47257882 0.80142057
vt 0.46752232 0.84200984
vt 0.51818264 0.8912988
vt 0.44905305 0.8326405
vt 0.45965612 0.84554636
vt 0.39674488 0.8791637
vt 0.4946708 0.88281107
vt 0.46369225 0.86486065
vt 0.4374568 0.9138059
vt 0.5990762 0.7979145
vt 0.5825127 0.8916754
vt 0.55235475 0.9052109
vt 0.620142 0.86112905
vt 0.63230515 0.8356513
vt 0.6440326 0.8540741
vt 0.69538975 0.7888957
vt 0.61883867 0.74981844
vt 0.6066131 0.78461075
vt 0.59563625 0.78325045
vt 0.6021888 0.77536476
vt 0.6871946 0.70978475
vt 0.65661347 0.6907139
vt 0.664997 0.6764306
vt 0.6683947 0.6907967
vt 0.68286717 0.69472814
vt 0.6926116 0.6926283
vt 0.7119658 0.69642985
vt 0.6723875 0.6548122
vt 0.6735669 0.6091702
vt 0.6814325 0.55813617
vt 0.6881173 0.5905267
vt 0.67807645 0.645406
vt 0.6792742 0.6741821
vt 0.6941281 0.680542
vt 0.710932 0.6705853
vt 0.6825472 0.66828245
vt 0.70312303 0.5933689
vt 0.69173014 0.5969614
vt 0.69864905 0.5801597
vt 0.6925256 0.67472893
vt 0.71802473 0.5986978
vt 0.7307628 0.5810852
vt 0.6937412 0.5688225
vt 0.7419113 0.61157405
vt 0.73143935 0.6527344
vt 0.74883 0.5840796
vt 0.7288387 0.5720217
vt 0.70111597 0.567804
vt 0.7029009 0.549989
vt 0.7393813 0.5630257
vt 0.8030874 0.5444779
vt 0.6928637 0.5336278
vt 0.7068216 0.54086804
vt 0.6863901 0.525347
vt 0.69130766 0.4991043
vt 0.6848883 0.50215125
vt 0.7453735 0.54413116
vt 0.7842305 0.49084425
vt 0.77674055 0.6284183
vt 0.82221496 0.5443232
vt 0.8124589 0.65006614
vt 0.85162187 0.59284407
vt 0.760315 0.6726614
vt 0.74349403 0.7091347
vt 0.79681784 0.7068583
vt 0.7073822 0.72087014
vt 0.7112688 0.759768
vt 0.84401774 0.6247247
vt 0.81166077 0.687358
vt 0.8070514 0.71522117
vt 0.7867074 0.7248322
vt 0.7336774 0.7325134
vt 0.72767615 0.74584436
vt 0.88256145 0.6149778
vt 0.87089574 0.58660305
vt 0.78063625 0.7531333
vt 0.71935886 0.7627927
vt 0.7881633 0.73672307
vt 0.8874632 0.6524439
vt 0.8175107 0.73206735
vt 0.7728268 0.76565516
vt 0.77749485 0.7770841
vt 0.84661186 0.69765264
vt 0.81745195 0.7445207
vt 0.86118054 0.6913667
vt 0.8795289 0.75305843
vt 0.74578637 0.7896604
vt 0.7893655 0.7920964
vt 0.8508773 0.78338003
vt 0.8353901 0.82665795
vt 0.7909981 0.82505786
vt 0.7262631 0.7872457
vt 0.86042845 0.7885694
vt 0.77488935 0.8284834
vt 0.70867723 0.8109864
vt 0.7433369 0.8292979
vt 0.69567466 0.88098186
vt 0.66525 0.87432
vt 0.6316783 0.8666187
vt 0.75046754 0.88713956
vt 0.8104018 0.8570639
vt 0.84087455 0.8669754
vt 0.84136355 0.8890608
vt 0.8712451 0.8892056
vt 0.87945706 0.8840318
vt 0.8860056 0.87223697
vt 0.9311631 0.8823315
vt 0.90390503 0.8938166
vt 0.9292389 0.8937317
vt 0.94173455 0.89443535
vt 0.8936366 0.8617884
vt 0.9294333 0.8712529
vt 0.8591058 0.8290049
vt 0.91338456 0.84162575
vt 0.93479145 0.82364345
vt 0.86762786 0.81138253
vt 0.9306894 0.78691167
vt 0.93469584 0.76358575
vt 0.89610755 0.79282206
vt 0.8893155 0.7855073
vt 0.9625698 0.7367219
vt 0.98849213 0.7299783
vt 0.9897315 0.7201967
vt 0.9319782 0.69621265
vt 0.9674636 0.69796157
vt 0.9682405 0.6900354
vt 0.99354 0.71067
vt 0.99340403 0.6887949
vt 0.9790925 0.6743312
vt 0.9226657 0.6954863
vt 0.9508619 0.6880065
vt 0.89629424 0.652153
vt 0.9369774 0.6834521
vt 0.9499878 0.68048096
vt 0.8990518 0.6401011
vt 0.94275016 0.6565648
vt 0.959293 0.67472726
vt 0.89982533 0.6284935
vt 0.97337663 0.6682029
vt 0.9757371 0.65064484
vt 0.8908242 0.6023452
vt 0.88995254 0.5874408
vt 0.9068115 0.5991179
vt 0.9089425 0.6205137
vt 0.9144183 0.6059538
vt 0.9292494 0.60303617
vt 0.9272278 0.62056345
vt 0.94907314 0.6173012
vt 0.9168734 0.6171875
vt 0.92873126 0.6281436
vt 0.9542534 0.65838975
vt 0.9620191 0.6666201
vt 0.9603831 0.6590942
vt 0.9742776 0.65688443
vn -0.7649579 -0.62350464 0.16149704
vn -0.8448643 -0.53159094 -0.06012696
vn -0.25697976 -0.94975954 0.17865609
vn -0.90842915 0.41595173 0.041721318
vn -0.7876649 -0.4080145 0.46163642
vn 0.22858652 -0.62241626 -0.7485628
vn -0.41337055 0.78089863 0.46831858
vn 0.99898845 0.033092078 0.03044532
vn 0.7313854 0.67601925 0.08985187
vn 0.5698519 0.82160205 0.015459615
vn 0.03387796 0.8838476 -0.46654668
vn 0.17222682 0.9837128 -0.05145017
vn -0.15319449 -0.98719156 -0.044546343
vn -0.6736467 -0.7327564 -0.09627191
vn -0.70469403 -0.6929884 -0.15222849
vn 0.35094544 -0.47691455 -0.80584735
vn 0.22427754 -0.1726175 -0.95911556
vn 0.11652486 -0.9202427 0.37359762
vn 0.16376185 -0.78832346 -0.59306675
vn -0.1972035 -0.7371133 -0.64635503
vn 0.43902615 -0.6277938 -0.6427528
vn 0.0385745 -0.9985361 -0.037918247
vn -0.19761015 -0.79032916 -0.57993966
vn 0.41921112 -0.87759864 0.23255688
vn 0.80280674 -0.57753676 0.14816399
vn 0.52961344 -0.7357453 0.42212385
vn 0.638361 -0.66685396 0.38444903
vn 0.6712594 -0.67530245 0.3055773
vn -0.47996712 -0.46077138 -0.74653953
vn 0.53425735 -0.5587772 0.63430053
vn -0.3850355 -0.87220913 -0.3016601
vn -0.25668514 -0.8748922 -0.4107024
vn -0.27024627 -0.84784627 0.45620573
vn -0.6547235 -0.014355398 -0.7557322
vn -0.81837404 -0.5392978 0.19854899
vn -0.52015513 -0.6921313 0.50039285
vn -0.70510703 -0.6796286 0.2023095
vn -0.6113059 -0.73036987 0.30473778
vn -0.08689155 -0.91916484 0.38416898
vn -0.28933296 -0.85982764 0.4206933
vn -0.6976746 -0.6247041 0.35070643
vn -0.59715277 -0.7459576 0.2948827
vn -0.8226051 -0.5375351 0.18541023
vn -0.88787496 -0.445762 0.11390515
vn -0.9505417 -0.27195743 0.15003265
vn 0.19118972 -0.9087082 0.37107405
vn 0.025791349 -0.97648036 0.21405815
vn -0.8807623 -0.4298627 0.19868533
vn 0.58882505 -0.72826535 0.35059205
vn -0.13615654 -0.9742852 -0.17952636
vn 0.25566077 -0.9097706 0.32703963
vn 0.0953487 -0.9881876 -0.11997449
vn -0.9629551 -0.0871345 -0.2551963
vn -0.8504257 0.50191873 -0.15765011
vn -0.78475803 0.2716373 -0.5571068
vn 0.41541103 -0.9079202 0.055808015
vn 0.36736453 -0.93007547 -0.0017312899
vn -0.0111691225 -0.9797315 -0.20000394
vn -0.20409177 -0.97716755 -0.059077553
vn -0.4492374 -0.8481571 -0.28074056
vn 0.0055203247 -0.966085 -0.25816545
vn -0.63983804 -0.7612963 0.10504928
vn -0.8348692 -0.48751742 -0.25557813
vn 0.82347155 -0.5345511 0.19013111
vn 0.6613234 -0.64814055 0.37757793
vn 0.8756384 -0.45692107 0.15646261
vn 0.9293552 -0.33181715 0.16185302
vn 0.99304456 -0.0804745 0.08594385
vn 0.91078633 -0.3966293 0.11468803
vn 0.6743726 -0.70300496 0.22584423
vn 0.8062946 -0.48058265 0.3448613
vn 0.92892057 -0.3702791 -3.982999E-05
vn 0.7913357 -0.5976964 -0.12863469
vn 0.67526644 -0.063870974 -0.73480314
vn 0.6083534 -0.72607243 -0.32050738
vn 0.27039933 -0.9012961 -0.3384516
vn 0.38534072 -0.2756467 -0.8806427
vn -0.26259035 -0.78530633 -0.5606605
vn 0.14180434 -0.34415376 -0.92814314
vn -0.04576443 -0.40356565 -0.9138055
vn -0.35687912 -0.23723803 -0.9035239
vn -0.09191847 -0.061028518 -0.99389464
vn -0.5816463 -0.10120546 -0.80712146
vn 0.2591953 -0.35206416 -0.8993713
vn -0.34935033 -0.21398662 -0.9122303
vn -0.74451 0.1746856 -0.6443523
vn -0.66681564 -0.01732723 -0.7450213
vn -0.6997657 0.34837234 -0.6236703
vn -0.42264998 0.62154627 -0.65958107
vn -0.6425078 0.3803201 -0.66523707
vn -0.99148285 -0.12844391 -0.021541875
vn -0.9439591 -0.060335923 0.32450065
vn -0.60065526 0.5769911 -0.55343896
vn -0.59414595 -0.20297642 0.77832586
vn -0.9022331 0.39802116 0.16599543
vn -0.27001953 -0.8116204 -0.5180366
vn -0.46563435 -0.8780138 -0.11079951
vn -0.45666167 -0.8876585 0.059349928
vn -0.7072447 -0.6715866 0.22085388
vn 0.049343582 -0.85956407 -0.50864017
vn -0.67006457 -0.38936278 0.63198894
vn -0.7334382 -0.6024714 0.31479585
vn -0.19185364 -0.97842455 -0.07666472
vn -0.5484852 -0.096156865 0.8306129
vn -0.7004761 -0.13101073 0.70154786
vn -0.96564907 -0.21164037 0.15076572
vn -0.82117957 -0.56118715 -0.10360055
vn -0.819973 -0.1899255 0.5399747
vn -0.37350595 -0.8456645 0.3812413
vn -0.71239054 -0.7007344 0.038354598
vn -0.12826928 -0.61729884 0.77620167
vn -0.9595572 -0.22977449 -0.16264634
vn -0.50110596 -0.7825818 0.36940286
vn -0.6736467 -0.7327564 -0.09627191
vn -0.6629626 0.19214502 0.7235751
vn -0.47440228 -0.2568098 0.84201616
vn -0.5225057 0.7906733 0.31909806
vn -0.3045649 0.6813388 -0.6655957
vn -0.5792495 -0.06317395 0.81269866
vn -0.30585286 0.6420531 0.70300907
vn -0.25884667 0.9583584 -0.12061337
vn -0.43394268 -0.07046308 0.8981808
vn -0.27845225 -0.07093355 0.95782715
vn -0.30481794 0.847178 0.43517286
vn -0.06198365 0.84557533 0.53024554
vn -0.510264 0.25275344 0.82203794
vn -0.3348735 -0.7173485 0.61095905
vn -0.7201684 -0.0228287 0.6934236
vn -0.92611355 -0.3271354 0.18787232
vn 0.20107538 0.7009112 0.6843188
vn -0.25884667 0.9583584 -0.12061337
vn -0.52529263 0.68595755 0.50351745
vn -0.62761366 0.74446124 0.22776851
vn -0.9662778 0.1707519 0.19274579
vn -0.5741434 -0.8171269 0.051603384
vn -0.8523645 -0.3674551 -0.37209076
vn -0.6951888 0.7174224 0.044917427
vn -0.34782195 -0.8805006 -0.32208467
vn -0.90524054 0.31647965 -0.28351387
vn -0.04416369 -0.89084727 -0.45215124
vn -0.15319449 -0.98719156 -0.044546343
vn -0.70469403 -0.6929884 -0.15222849
vn -0.2822885 -0.3654801 -0.88698226
vn -0.5386836 0.13078363 -0.8322954
vn -0.49710172 0.77142394 -0.3972343
vn -0.7901185 -0.22726063 -0.5692673
vn -0.62362057 -0.6081746 -0.49114257
vn -0.12912929 0.9902311 -0.05261175
vn -0.05790318 0.6985237 -0.7132403
vn -0.17641255 -0.22059792 -0.95927846
vn -0.023910727 0.18319784 -0.9827853
vn -0.043467168 0.37719235 -0.9251143
vn -0.29267243 -0.050011534 -0.95490396
vn 0.33398154 -0.3473224 -0.87625545
vn 0.22427754 -0.1726175 -0.95911556
vn -0.15448025 0.8484631 -0.5062077
vn -0.16641821 0.98546773 -0.034032904
vn -0.26909715 0.83082503 -0.4871513
vn 0.03387796 0.8838476 -0.46654668
vn -0.11922612 0.97360104 0.1946435
vn 0.2317246 0.9242162 0.3035259
vn 0.08113647 0.44783136 -0.89042914
vn 0.0895711 0.7326719 0.67466193
vn 0.42230397 0.25597703 0.8695603
vn 0.73033357 0.38629803 0.5633708
vn 0.42402536 0.45874614 0.7808679
vn 0.31791788 -0.19399746 0.92805886
vn 0.5698519 0.82160205 0.015459615
vn 0.3553745 0.8413865 0.40715817
vn 0.57063806 0.3140303 0.75878656
vn 0.31791788 -0.19399746 0.92805886
vn 0.56594473 0.8008376 0.19587138
vn 0.8880895 0.22360973 0.40161636
vn 0.8880895 0.22360973 0.40161636
vn 0.55178225 0.78483605 -0.2820793
vn 0.17222682 0.9837128 -0.05145017
vn 0.31186333 0.82933885 -0.4636144
vn 0.13998741 0.69076705 -0.70939714
vn 0.017231718 0.7432616 -0.66877884
vn 0.026868314 0.07402927 -0.996894
vn 0.4768121 0.3457174 -0.80816436
vn 0.93031925 0.21142204 -0.2996778
vn 0.8248169 -0.55481154 -0.10890952
vn 0.8049744 -0.21912307 -0.5513631
vn 0.35094544 -0.47691455 -0.80584735
vn 0.16882415 -0.909952 -0.37879515
vn 0.11652486 -0.9202427 0.37359762
vn 0.3569993 -0.85667884 -0.37236112
vn 0.6330489 -0.7721085 -0.055657413
vn 0.4067637 -0.91264296 0.040324487
vn 0.78069824 -0.3459474 -0.520414
vn 0.81364566 -0.33001375 -0.4786143
vn 0.9628342 -0.1830413 0.19861074
vn 0.73805195 -0.66893554 0.08834301
vn 0.42988113 -0.6076621 0.66779417
vn 0.57063806 0.3140303 0.75878656
vn 0.5215901 -0.77193576 0.36339912
vn -0.11430103 -0.9574383 0.26504216
vn 0.35418364 -0.7909824 0.49889964
vn 0.3384184 -0.4314268 0.8362679
vn 0.16856994 -0.48518193 0.8580108
vn 0.31791788 -0.19399746 0.92805886
vn 0.93782204 -0.34387705 -0.047312487
vn 0.8755499 -0.15281606 0.4583225
vn 0.9207531 -0.29047498 0.2604573
vn 0.55567604 -0.22492415 0.8003957
vn 0.42230397 0.25597703 0.8695603
vn 0.73033357 0.38629803 0.5633708
vn 0.6642418 -0.34437832 0.6634655
vn 0.82186913 -0.5623806 -0.09087997
vn 0.803774 0.0680081 0.591035
vn 0.81237924 0.56010634 0.16223691
vn 0.6562769 -0.6752726 0.336612
vn 0.5171545 -0.7401899 -0.42973256
vn 0.45855266 -0.88745105 0.046476077
vn 0.31274575 0.94722044 -0.07045145
vn 0.20107538 0.7009112 0.6843188
vn -0.25884667 0.9583584 -0.12061337
vn 0.17306685 -0.79233927 -0.5850182
vn 0.87190235 -0.19737387 0.44814056
vn 0.76538324 -0.60935986 0.2070486
vn 0.49307075 -0.8665113 -0.077713974
vn 0.94940656 0.31234652 -0.032663424
vn 0.61458635 0.721977 -0.31785652
vn 0.5068262 0.7393781 -0.4432237
vn 0.21420465 -0.9762565 -0.032241575
vn -0.015932128 -0.79050523 -0.6122481
vn 0.0047448124 -0.9788578 -0.20448677
vn -0.076025404 -0.44475806 -0.8924183
vn -0.31416357 -0.4296085 -0.84660375
vn -0.25820798 -0.81281275 -0.5221724
vn -0.6560103 -0.63521475 -0.40761822
vn 0.12978855 -0.97932464 -0.155171
vn 0.64545095 -0.21090434 -0.73410654
vn 0.80434513 0.12771325 -0.5802742
vn 0.8657548 0.13840936 -0.48094863
vn 0.7677674 0.30362806 -0.564219
vn 0.8813393 0.19817194 -0.42891586
vn 0.61508816 0.4686004 -0.63409793
vn 0.6147558 0.43798733 -0.6559286
vn 0.81562376 0.52493936 -0.24330343
vn 0.85536635 0.5179361 -0.009518076
vn 0.914761 0.38331792 0.12759164
vn 0.8756486 0.19863565 -0.44020817
vn 0.9076784 0.25701758 -0.3317557
vn 0.8218191 0.56931007 -0.022346433
vn 0.49222997 0.76983464 -0.40628096
vn 0.90853715 -0.40494508 0.1028579
vn 0.80192953 -0.476598 -0.3602267
vn 0.97107285 -0.16721961 -0.1704556
vn 0.45073733 -0.04609542 -0.8914657
vn 0.9510141 -0.26639438 -0.15686376
vn 0.21721534 0.49509156 -0.8412502
vn -0.00893268 0.5554782 -0.8314831
vn 0.08089362 0.8598097 -0.5041661
vn 0.25353074 0.5535065 -0.79331756
vn -0.3045649 0.6813388 -0.6655957
vn -0.5225057 0.7906733 0.31909806
vn 0.5338693 -0.011099784 -0.84549415
vn 0.79677534 0.47031766 -0.37940773
vn 0.22086678 0.92061913 -0.32199112
vn 0.84872484 0.52722746 0.041197855
vn 0.9426848 -0.33326152 -0.016795881
vn 0.6978073 0.7156669 0.029761715
vn 0.7313854 0.67601925 0.08985187
vn 0.9688222 0.16382566 -0.18586203
vn 0.6452239 0.7522949 -0.13318615
vn 0.5928726 0.80528766 -0.0037339567
vn 0.7100449 0.7026824 -0.045537706
vn 0.023784567 0.9942578 -0.10433428
vn 0.5356422 0.8379145 -0.10481729
vn 0.99898845 0.033092078 0.03044532
vn 0.9931805 0.012639776 -0.11590005
vn 0.85379773 0.46443114 0.23522992
vn 0.01578117 0.99929595 0.034036636
vn 0.81522346 0.5117385 0.2711722
vn -0.41337055 0.78089863 0.46831858
vn 0.8566421 -0.5003479 0.1257629
vn 0.7892369 -0.50797004 -0.3450675
vn 0.44746748 0.591252 -0.6709649
vn 0.97945476 0.20077322 -0.01893133
vn 0.3572801 0.4779494 -0.8024433
vn 0.4228999 -0.22795145 -0.877037
vn 0.7484763 -0.505953 -0.42871287
vn 0.891657 0.15557675 -0.42513958
vn 0.9511741 -0.2558914 0.17258999
vn 0.7143439 -0.6907439 -0.112185955
vn 0.7344232 -0.67239994 0.09219935
vn 0.9750015 -0.16417708 0.14972606
vn 0.8115567 -0.5841861 -0.010115498
vn 0.7802918 -0.6039804 0.16233417
vn 0.7707147 -0.6186483 0.15255596
vn 0.6387418 -0.30534914 0.706237
vn 0.92036504 -0.19324961 0.3399747
vn 0.6817873 0.13605303 0.7187876
vn 0.98918825 -0.1462335 0.011070969
vn 0.93708766 0.026508525 0.34808642
vn 0.67690706 0.3244707 0.6606932
vn 0.92433923 -0.33649188 -0.17991702
vn 0.99898845 0.033092078 0.03044532
vn 0.6489913 -0.7548176 -0.095187664
vn 0.9141363 0.050262187 -0.4022793
vn 0.7818779 -0.51862967 0.34596306
vn -0.6425078 0.3803201 -0.66523707
vn -0.60065526 0.5769911 -0.55343896
vn -0.42264998 0.62154627 -0.65958107
vn -0.7022727 0.044092562 -0.7105413
vn -0.9548404 0.18530054 -0.23225746
vn -0.8324865 0.39644784 -0.38703385
vn -0.78475803 0.2716373 -0.5571068
vn -0.8504257 0.50191873 -0.15765011
vn -0.78475803 0.2716373 -0.5571068
vn -0.5606469 0.57653755 -0.59437317
vn -0.9022331 0.39802116 0.16599543
vn -0.9439591 -0.060335923 0.32450065
vn -0.29913172 0.100667745 -0.9488869
vn -0.73715985 -0.432202 -0.51941955
vn -0.9342659 -0.3535015 0.046732843
vn -0.12905437 0.76524895 -0.63066554
vn -0.5712386 0.34553823 -0.7445064
vn -0.07740366 0.98613524 -0.1467851
vn -0.85193366 0.4921845 -0.17878346
vn -0.25478032 0.8817134 -0.39707494
vn -0.8006545 0.59614384 0.059708364
vn -0.68899316 0.723971 0.033975627
vn -0.08406261 0.99620277 -0.022658601
vn -0.97734636 -0.18030854 0.11082793
vn -0.27081004 0.9573019 -0.10116846
vn -0.025075953 0.8910771 0.45315874
vn -0.645552 0.7612846 -0.060897004
vn -0.99074274 -0.031320818 -0.13209006
vn -0.7491164 0.6546006 -0.10159971
vn -0.74258244 0.66903055 0.031134915
vn -0.824996 0.5651381 0.0006806884
vn -0.6975819 0.7145035 -0.053518888
vn 0.084154435 0.89715946 0.43361604
vn 0.18743907 0.9711566 -0.14738181
vn 0.17943573 0.97631377 -0.12088967
vn 0.42082745 0.8347068 0.3552024
vn 0.46592587 0.41546693 0.7812173
vn 0.46062884 0.09350682 0.88265365
vn 0.021518093 -0.35085028 0.9361843
vn 0.92743266 -0.06686691 0.36796382
vn 0.74636966 -0.27798212 0.604697
vn 0.53317803 -0.7649484 0.36135185
vn 0.28968868 -0.5084935 0.810873
vn 0.49204287 -0.6852717 0.53693247
vn 0.21850477 -0.9666443 0.13362066
vn -0.40916294 0.45666605 0.7899632
vn -0.32654348 -0.19213793 0.9254471
vn -0.25481445 -0.6335066 0.7305744
vn -0.501705 0.06873468 0.86230373
vn -0.9070362 0.10739123 0.40712714
vn -0.7624759 -0.39485246 0.5125643
vn -0.919279 -0.32131204 0.22734286
vn -0.92789304 0.37263107 -0.012668164
vn -0.8728205 0.34971577 0.34041625
vn -0.30586794 0.8356534 0.45621073
vn -0.5986178 0.79968107 0.0465515
vn -0.93029934 -0.10738587 0.3507297
vn -0.85860914 0.27127016 0.4349745
vn -0.7741225 0.549039 0.3151041
vn -0.5031911 0.3451986 0.7922352
vn -0.6851594 -0.059982985 0.72591925
vn -0.7876649 -0.4080145 0.46163642
vn -0.77539545 -0.5540278 0.30301008
vn -0.90842915 0.41595173 0.041721318
vn -0.2874676 0.9505972 -0.11716288
vn -0.6406802 0.54792833 -0.53786933
vn -0.7715969 0.63399994 -0.051790923
vn -0.7878908 -0.6044079 0.11797924
vn 0.22858652 -0.62241626 -0.7485628
vn -0.995235 -0.055378426 -0.080252424
vn -0.83493906 -0.532323 0.13967468
vn -0.65002567 -0.7449174 -0.15021516
vn -0.8520218 -0.4171733 0.31626773
vn -0.8984468 -0.407604 0.16325524
vn -0.9917556 0.058299996 -0.11411362
vn -0.96000475 0.039157905 -0.27723166
vn -0.98508596 0.011701597 0.17166449
vn -0.7894083 -0.612917 -0.034164637
vn -0.47093546 0.66235584 -0.5826702
vn -0.25697976 -0.94975954 0.17865609
vn -0.7649579 -0.62350464 0.16149704
vn -0.8448643 -0.53159094 -0.06012696
vn -0.64335346 -0.49756894 -0.581826
vn -0.64977354 0.01576189 -0.75996435
vn -0.59936166 0.23146258 -0.7662837
vn -0.87439865 -0.28604358 -0.39192614
vn -0.88787496 -0.445762 0.11390515
vn -0.9234731 0.29641846 -0.24358463
vn -0.9104789 0.38523728 -0.15040095
vn -0.9541949 -0.29840887 0.02154782
vn -0.8771686 0.47818437 0.043760035
vn -0.93411577 -0.34015027 0.1082849
vn -0.9978003 -0.06431767 0.01605526
vn -0.9505417 -0.27195743 0.15003265
vn -0.73136204 -0.6416364 0.23111105
vn -0.70510703 -0.6796286 0.2023095
vn -0.4656919 -0.8008775 0.3764656
vn -0.81837404 -0.5392978 0.19854899
vn -0.65867996 -0.689916 0.30026096
vn -0.65094537 -0.71421766 0.25722215
vn -0.55968636 -0.73810583 0.37676376
vn -0.9534615 -0.2621426 -0.14897113
vn -0.9059282 -0.32242882 -0.2744699
vn -0.9109147 -0.28158972 0.30156517
vn -0.699592 -0.5933915 0.39806747
vn -0.93282586 -0.30711845 0.18845192
vn -0.44049162 -0.8232487 0.35809028
vn -0.64323 -0.76286346 -0.06553329
vn -0.40024355 -0.7246126 -0.56101847
vn -0.9791693 -0.1483695 -0.13861479
vn -0.6547235 -0.014355398 -0.7557322
vn -0.6966457 -0.71736205 0.008742779
vn -0.63813794 -0.7044118 -0.31077954
vn -0.7956634 -0.5655405 0.21698776
vn -0.7483489 -0.38289344 0.5416333
vn -0.9002033 -0.3440002 0.26701698
vn -0.3702755 -0.84900737 -0.37693843
vn -0.4342961 -0.84546995 -0.3107533
vn -0.810302 -0.3554619 0.46589425
vn -0.21248369 -0.8391849 0.50061905
vn -0.2307821 -0.6178672 0.7516514
vn 0.65870786 -0.5111841 0.55208206
vn -0.23199521 -0.924189 -0.30340257
vn -0.14891681 -0.9660438 -0.21114758
vn 0.28316078 -0.8559392 0.43265253
vn 0.2683289 -0.9085411 -0.3202384
vn 0.04079013 -0.89787275 -0.43836123
vn -0.50828886 -0.8569263 0.08555549
vn 0.8747747 -0.4193195 0.2427763
vn -0.08283284 -0.9954678 0.04671785
vn -0.52539086 -0.7552622 0.39184624
vn -0.27800217 -0.8736688 0.39927143
vn -0.25481445 -0.6335066 0.7305744
vn -0.32654348 -0.19213793 0.9254471
vn -0.501705 0.06873468 0.86230373
vn 0.021518093 -0.35085028 0.9361843
vn 0.21850477 -0.9666443 0.13362066
vn 0.34283188 -0.9267693 -0.15350865
vn 0.53317803 -0.7649484 0.36135185
vn 0.8566421 -0.5003479 0.1257629
vn 0.7892369 -0.50797004 -0.3450675
vn 0.39524356 -0.66962475 -0.6287967
vn 0.92036504 -0.19324961 0.3399747
vn 0.9931805 0.012639776 -0.11590005
vn 0.99898845 0.033092078 0.03044532
vn 0.6817873 0.13605303 0.7187876
vn 0.62040937 -0.7727475 -0.13399026
vn 0.8062946 -0.48058265 0.3448613
vn 0.4582086 -0.86694425 -0.19609308
vn 0.63176286 -0.72452515 0.27557045
vn 0.6712594 -0.67530245 0.3055773
vn 0.7095246 -0.68476695 0.1663404
vn -0.17448676 -0.50758713 0.84374744
vn 0.638361 -0.66685396 0.38444903
vn 0.55778104 -0.7350071 0.38554493
vn 0.9211711 -0.34154603 0.18652128
vn 0.9516466 -0.15684393 0.26413763
vn 0.80280674 -0.57753676 0.14816399
vn 0.9667544 0.089513905 0.23952694
vn 0.77336365 -0.4020941 0.49013168
vn 0.99904853 -0.011947936 0.041944362
vn 0.6930876 -0.4234389 -0.58337736
vn 0.80280674 -0.57753676 0.14816399
vn 0.43902615 -0.6277938 -0.6427528
vn -0.1972035 -0.7371133 -0.64635503
vn 0.29350302 -0.6620749 0.6895744
vn 0.90333724 -0.42150292 0.07948064
vn -0.22807115 -0.8053239 0.54720825
vn 0.32141203 -0.9083209 0.2676704
vn 0.40717974 -0.86207503 -0.30171403
vn -0.5684979 -0.8174045 0.09305992
vn 0.030842628 -0.709046 -0.7044874
vn -0.12300114 -0.39292204 -0.91130847
vn -0.5657701 -0.7160634 -0.40884897
vn -0.51335907 -0.7237283 -0.46117213
vn 0.16376185 -0.78832346 -0.59306675
vn -0.47996712 -0.46077138 -0.74653953
vn -0.25668514 -0.8748922 -0.4107024
vn 0.53425735 -0.5587772 0.63430053
vn 0.07708512 -0.34741443 -0.93453795
vn 0.5723381 -0.6562929 -0.49163893
vn -0.3850355 -0.87220913 -0.3016601
vn -0.58090067 -0.039527077 -0.8130142
vn -0.19761015 -0.79032916 -0.57993966
vn 0.31923586 -0.030126296 -0.9471963
vn -0.18138485 -0.23939608 -0.95382863
vn 0.39727962 -0.17456535 -0.9009416
vn -0.2786125 0.10554553 -0.9545863
vn 0.55153006 -0.09478251 -0.8287526
vn 0.34948355 -0.9144193 -0.20420237
g lp.obj_0
f 3/3/3 2/2/2 1/1/1
f 6/6/6 5/5/5 4/4/4
f 9/9/9 8/8/8 7/7/7
f 12/12/12 11/11/11 10/10/10
f 15/15/15 14/14/14 13/13/13
f 18/18/18 17/17/17 16/16/16
f 21/21/21 20/20/20 19/19/19
f 19/19/19 22/22/22 21/21/21
f 19/19/19 23/23/23 22/22/22
f 21/21/21 22/22/22 24/24/24
f 25/25/25 21/21/21 24/24/24
f 25/25/25 24/24/24 26/26/26
f 27/27/27 25/25/25 26/26/26
f 27/27/27 26/26/26 28/28/28
f 23/23/23 29/29/29 22/22/22
f 30/30/30 29/29/29 23/23/23
f 23/23/23 31/31/31 30/30/30
f 22/22/22 29/29/29 32/32/32
f 33/33/33 22/22/22 32/32/32
f 34/34/34 33/33/33 32/32/32
f 34/34/34 35/35/35 33/33/33
f 35/35/35 36/36/36 33/33/33
f 36/36/36 35/35/35 37/37/37
f 33/33/33 36/36/36 38/38/38
f 38/38/38 36/36/36 37/37/37
f 33/33/33 39/39/39 22/22/22
f 33/33/33 38/38/38 40/40/40
f 33/33/33 40/40/40 39/39/39
f 38/38/38 37/37/37 41/41/41
f 40/40/40 38/38/38 41/41/41
f 40/40/40 41/41/41 42/42/42
f 41/41/41 37/37/37 43/43/43
f 42/42/42 41/41/41 43/43/43
f 43/43/43 37/37/37 44/44/44
f 43/43/43 44/44/44 45/45/45
f 39/39/39 46/46/46 22/22/22
f 46/46/46 24/24/24 22/22/22
f 39/39/39 40/40/40 47/47/47
f 46/46/46 39/39/39 47/47/47
f 43/43/43 45/45/45 48/48/48
f 42/42/42 43/43/43 48/48/48
f 49/49/49 24/24/24 46/46/46
f 49/49/49 26/26/26 24/24/24
f 40/40/40 42/42/42 50/50/50
f 47/47/47 40/40/40 50/50/50
f 47/47/47 51/51/51 46/46/46
f 51/51/51 49/49/49 46/46/46
f 52/52/52 51/51/51 47/47/47
f 50/50/50 52/52/52 47/47/47
f 48/48/48 45/45/45 53/53/53
f 45/45/45 54/54/54 53/53/53
f 53/53/53 54/54/54 55/55/55
f 51/51/51 56/56/56 49/49/49
f 51/51/51 52/52/52 56/56/56
f 56/56/56 52/52/52 57/57/57
f 52/52/52 50/50/50 58/58/58
f 57/57/57 52/52/52 58/58/58
f 58/58/58 50/50/50 59/59/59
f 42/42/42 59/59/59 50/50/50
f 59/59/59 42/42/42 60/60/60
f 61/61/61 58/58/58 59/59/59
f 61/61/61 57/57/57 58/58/58
f 60/60/60 61/61/61 59/59/59
f 62/62/62 42/42/42 48/48/48
f 60/60/60 42/42/42 62/62/62
f 62/62/62 48/48/48 63/63/63
f 63/63/63 48/48/48 53/53/53
f 63/63/63 60/60/60 62/62/62
f 64/64/64 49/49/49 56/56/56
f 56/56/56 57/57/57 65/65/65
f 56/56/56 65/65/65 64/64/64
f 49/49/49 64/64/64 66/66/66
f 49/49/49 66/66/66 26/26/26
f 67/67/67 64/64/64 65/65/65
f 66/66/66 64/64/64 67/67/67
f 66/66/66 67/67/67 68/68/68
f 69/69/69 66/66/66 68/68/68
f 70/70/70 26/26/26 66/66/66
f 69/69/69 70/70/70 66/66/66
f 26/26/26 70/70/70 28/28/28
f 28/28/28 70/70/70 69/69/69
f 28/28/28 69/69/69 71/71/71
f 65/65/65 72/72/72 67/67/67
f 67/67/67 72/72/72 68/68/68
f 73/73/73 65/65/65 57/57/57
f 72/72/72 65/65/65 73/73/73
f 72/72/72 73/73/73 74/74/74
f 73/73/73 75/75/75 74/74/74
f 73/73/73 57/57/57 75/75/75
f 57/57/57 76/76/76 75/75/75
f 76/76/76 57/57/57 61/61/61
f 77/77/77 74/74/74 75/75/75
f 77/77/77 75/75/75 76/76/76
f 76/76/76 61/61/61 78/78/78
f 61/61/61 60/60/60 78/78/78
f 77/77/77 76/76/76 79/79/79
f 79/79/79 74/74/74 77/77/77
f 80/80/80 76/76/76 78/78/78
f 79/79/79 76/76/76 80/80/80
f 78/78/78 60/60/60 81/81/81
f 78/78/78 81/81/81 80/80/80
f 79/79/79 80/80/80 82/82/82
f 80/80/80 81/81/81 82/82/82
f 83/83/83 81/81/81 60/60/60
f 63/63/63 83/83/83 60/60/60
f 74/74/74 79/79/79 84/84/84
f 82/82/82 84/84/84 79/79/79
f 83/83/83 85/85/85 81/81/81
f 82/82/82 81/81/81 85/85/85
f 63/63/63 86/86/86 83/83/83
f 86/86/86 63/63/63 53/53/53
f 83/83/83 87/87/87 85/85/85
f 83/83/83 86/86/86 87/87/87
f 53/53/53 88/88/88 86/86/86
f 53/53/53 55/55/55 88/88/88
f 55/55/55 89/89/89 88/88/88
f 88/88/88 89/89/89 90/90/90
f 90/90/90 86/86/86 88/88/88
f 91/91/91 86/86/86 90/90/90
f 86/86/86 91/91/91 87/87/87
f 91/91/91 90/90/90 92/92/92
f 93/93/93 92/92/92 90/90/90
f 91/91/91 92/92/92 94/94/94
f 94/94/94 92/92/92 95/95/95
f 96/96/96 82/82/82 85/85/85
f 85/85/85 87/87/87 97/97/97
f 85/85/85 97/97/97 96/96/96
f 96/96/96 97/97/97 98/98/98
f 97/97/97 87/87/87 99/99/99
f 87/87/87 91/91/91 99/99/99
f 98/98/98 97/97/97 99/99/99
f 82/82/82 96/96/96 100/100/100
f 84/84/84 82/82/82 100/100/100
f 91/91/91 101/101/101 99/99/99
f 91/91/91 94/94/94 101/101/101
f 99/99/99 102/102/102 98/98/98
f 99/99/99 101/101/101 102/102/102
f 96/96/96 103/103/103 100/100/100
f 96/96/96 98/98/98 103/103/103
f 94/94/94 95/95/95 104/104/104
f 101/101/101 94/94/94 105/105/105
f 104/104/104 105/105/105 94/94/94
f 106/106/106 102/102/102 101/101/101
f 107/107/107 98/98/98 102/102/102
f 102/102/102 106/106/106 107/107/107
f 101/101/101 105/105/105 108/108/108
f 101/101/101 108/108/108 106/106/106
f 108/108/108 105/105/105 109/109/109
f 110/110/110 106/106/106 108/108/108
f 108/108/108 109/109/109 110/110/110
f 105/105/105 111/111/111 109/109/109
f 111/111/111 105/105/105 104/104/104
f 107/107/107 106/106/106 112/112/112
f 112/112/112 106/106/106 110/110/110
f 109/109/109 113/113/113 110/110/110
f 109/109/109 111/111/111 113/113/113
f 114/114/114 112/112/112 110/110/110
f 113/113/113 114/114/114 110/110/110
f 104/104/104 95/95/95 115/115/115
f 116/116/116 111/111/111 104/104/104
f 116/116/116 104/104/104 115/115/115
f 95/95/95 117/117/117 115/115/115
f 117/117/117 95/95/95 118/118/118
f 119/119/119 115/115/115 117/117/117
f 116/116/116 115/115/115 119/119/119
f 117/117/117 120/120/120 119/119/119
f 120/120/120 117/117/117 121/121/121
f 122/122/122 116/116/116 119/119/119
f 119/119/119 120/120/120 122/122/122
f 123/123/123 111/111/111 116/116/116
f 122/122/122 123/123/123 116/116/116
f 122/122/122 120/120/120 124/124/124
f 124/124/124 123/123/123 122/122/122
f 125/125/125 124/124/124 120/120/120
f 124/124/124 126/126/126 123/123/123
f 127/127/127 111/111/111 123/123/123
f 127/127/127 113/113/113 111/111/111
f 128/128/128 123/123/123 126/126/126
f 128/128/128 127/127/127 123/123/123
f 129/129/129 113/113/113 127/127/127
f 127/127/127 128/128/128 129/129/129
f 120/120/120 130/130/130 125/125/125
f 131/131/131 130/130/130 120/120/120
f 124/124/124 132/132/132 126/126/126
f 128/128/128 126/126/126 132/132/132
f 132/132/132 133/133/133 128/128/128
f 133/133/133 132/132/132 124/124/124
f 134/134/134 128/128/128 133/133/133
f 129/129/129 128/128/128 134/134/134
f 113/113/113 129/129/129 135/135/135
f 114/114/114 113/113/113 135/135/135
f 136/136/136 135/135/135 129/129/129
f 136/136/136 129/129/129 134/134/134
f 137/137/137 134/134/134 133/133/133
f 124/124/124 137/137/137 133/133/133
f 114/114/114 135/135/135 138/138/138
f 136/136/136 138/138/138 135/135/135
f 136/136/136 134/134/134 139/139/139
f 134/134/134 137/137/137 139/139/139
f 140/140/140 114/114/114 138/138/138
f 141/141/141 114/114/114 140/140/140
f 142/142/142 141/141/141 140/140/140
f 142/142/142 112/112/112 114/114/114
f 143/143/143 138/138/138 136/136/136
f 143/143/143 140/140/140 138/138/138
f 139/139/139 144/144/144 136/136/136
f 143/143/143 136/136/136 144/144/144
f 139/139/139 137/137/137 145/145/145
f 144/144/144 139/139/139 145/145/145
f 112/112/112 142/142/142 146/146/146
f 107/107/107 112/112/112 146/146/146
f 142/142/142 140/140/140 147/147/147
f 146/146/146 142/142/142 147/147/147
f 148/148/148 145/145/145 137/137/137
f 124/124/124 148/148/148 137/137/137
f 149/149/149 144/144/144 145/145/145
f 144/144/144 149/149/149 143/143/143
f 149/149/149 145/145/145 148/148/148
f 140/140/140 143/143/143 150/150/150
f 150/150/150 147/147/147 140/140/140
f 149/149/149 151/151/151 143/143/143
f 151/151/151 150/150/150 143/143/143
f 152/152/152 150/150/150 151/151/151
f 150/150/150 153/153/153 147/147/147
f 146/146/146 147/147/147 153/153/153
f 153/153/153 150/150/150 152/152/152
f 153/153/153 152/152/152 154/154/154
f 154/154/154 152/152/152 155/155/155
f 148/148/148 156/156/156 149/149/149
f 156/156/156 151/151/151 149/149/149
f 157/157/157 148/148/148 124/124/124
f 156/156/156 148/148/148 157/157/157
f 158/158/158 151/151/151 156/156/156
f 158/158/158 152/152/152 151/151/151
f 158/158/158 156/156/156 157/157/157
f 159/159/159 152/152/152 158/158/158
f 157/157/157 159/159/159 158/158/158
f 124/124/124 160/160/160 157/157/157
f 157/157/157 160/160/160 159/159/159
f 159/159/159 160/160/160 161/161/161
f 124/124/124 125/125/125 160/160/160
f 160/160/160 125/125/125 161/161/161
f 152/152/152 162/162/162 155/155/155
f 152/152/152 159/159/159 162/162/162
f 161/161/161 125/125/125 163/163/163
f 125/125/125 130/130/130 163/163/163
f 163/163/163 130/130/130 164/164/164
f 163/163/163 164/164/164 161/161/161
f 164/164/164 130/130/130 165/165/165
f 161/161/161 164/164/164 166/166/166
f 167/167/167 166/166/166 164/164/164
f 168/168/168 159/159/159 161/161/161
f 161/161/161 166/166/166 169/169/169
f 168/168/168 161/161/161 169/169/169
f 170/170/170 169/169/169 166/166/166
f 170/170/170 166/166/166 171/171/171
f 172/172/172 169/169/169 170/170/170
f 172/172/172 168/168/168 169/169/169
f 170/170/170 173/173/173 172/172/172
f 172/172/172 174/174/174 168/168/168
f 175/175/175 168/168/168 174/174/174
f 176/176/176 168/168/168 175/175/175
f 159/159/159 176/176/176 177/177/177
f 159/159/159 177/177/177 162/162/162
f 176/176/176 178/178/178 177/177/177
f 162/162/162 177/177/177 178/178/178
f 179/179/179 178/178/178 176/176/176
f 176/176/176 175/175/175 179/179/179
f 180/180/180 162/162/162 178/178/178
f 180/180/180 178/178/178 179/179/179
f 155/155/155 162/162/162 180/180/180
f 179/179/179 181/181/181 180/180/180
f 181/181/181 179/179/179 175/175/175
f 155/155/155 180/180/180 181/181/181
f 175/175/175 174/174/174 182/182/182
f 181/181/181 175/175/175 182/182/182
f 182/182/182 174/174/174 183/183/183
f 184/184/184 181/181/181 182/182/182
f 182/182/182 183/183/183 184/184/184
f 185/185/185 181/181/181 184/184/184
f 185/185/185 155/155/155 181/181/181
f 185/185/185 184/184/184 183/183/183
f 183/183/183 186/186/186 185/185/185
f 186/186/186 187/187/187 185/185/185
f 187/187/187 188/188/188 155/155/155
f 188/188/188 187/187/187 186/186/186
f 189/189/189 188/188/188 186/186/186
f 190/190/190 189/189/189 186/186/186
f 190/190/190 186/186/186 183/183/183
f 191/191/191 155/155/155 188/188/188
f 188/188/188 189/189/189 191/191/191
f 154/154/154 155/155/155 191/191/191
f 191/191/191 189/189/189 192/192/192
f 191/191/191 192/192/192 154/154/154
f 174/174/174 193/193/193 183/183/183
f 183/183/183 194/194/194 190/190/190
f 193/193/193 194/194/194 183/183/183
f 195/195/195 193/193/193 174/174/174
f 174/174/174 196/196/196 195/195/195
f 193/193/193 197/197/197 194/194/194
f 197/197/197 190/190/190 194/194/194
f 193/193/193 195/195/195 197/197/197
f 197/197/197 198/198/198 190/190/190
f 189/189/189 190/190/190 198/198/198
f 197/197/197 199/199/199 198/198/198
f 195/195/195 199/199/199 197/197/197
f 200/200/200 199/199/199 195/195/195
f 196/196/196 201/201/201 195/195/195
f 195/195/195 201/201/201 200/200/200
f 196/196/196 202/202/202 201/201/201
f 201/201/201 202/202/202 200/200/200
f 198/198/198 199/199/199 203/203/203
f 189/189/189 198/198/198 203/203/203
f 203/203/203 199/199/199 204/204/204
f 199/199/199 200/200/200 204/204/204
f 189/189/189 203/203/203 205/205/205
f 203/203/203 204/204/204 205/205/205
f 202/202/202 206/206/206 200/200/200
f 207/207/207 206/206/206 202/202/202
f 207/207/207 208/208/208 206/206/206
f 200/200/200 209/209/209 204/204/204
f 205/205/205 204/204/204 209/209/209
f 189/189/189 205/205/205 210/210/210
f 192/192/192 189/189/189 210/210/210
f 211/211/211 200/200/200 206/206/206
f 209/209/209 200/200/200 211/211/211
f 212/212/212 206/206/206 208/208/208
f 212/212/212 211/211/211 206/206/206
f 210/210/210 205/205/205 213/213/213
f 205/205/205 209/209/209 213/213/213
f 192/192/192 210/210/210 214/214/214
f 214/214/214 154/154/154 192/192/192
f 210/210/210 215/215/215 214/214/214
f 215/215/215 210/210/210 213/213/213
f 208/208/208 216/216/216 212/212/212
f 208/208/208 217/217/217 216/216/216
f 217/217/217 218/218/218 216/216/216
f 154/154/154 214/214/214 219/219/219
f 215/215/215 219/219/219 214/214/214
f 209/209/209 211/211/211 220/220/220
f 213/213/213 209/209/209 221/221/221
f 221/221/221 209/209/209 220/220/220
f 213/213/213 222/222/222 215/215/215
f 213/213/213 221/221/221 222/222/222
f 223/223/223 211/211/211 212/212/212
f 220/220/220 211/211/211 223/223/223
f 212/212/212 224/224/224 223/223/223
f 212/212/212 216/216/216 225/225/225
f 224/224/224 212/212/212 225/225/225
f 215/215/215 226/226/226 219/219/219
f 222/222/222 226/226/226 215/215/215
f 219/219/219 227/227/227 154/154/154
f 226/226/226 228/228/228 219/219/219
f 219/219/219 228/228/228 227/227/227
f 227/227/227 229/229/229 154/154/154
f 229/229/229 153/153/153 154/154/154
f 229/229/229 230/230/230 153/153/153
f 146/146/146 153/153/153 230/230/230
f 227/227/227 231/231/231 229/229/229
f 230/230/230 229/229/229 231/231/231
f 146/146/146 230/230/230 232/232/232
f 230/230/230 231/231/231 232/232/232
f 232/232/232 107/107/107 146/146/146
f 98/98/98 107/107/107 232/232/232
f 232/232/232 231/231/231 98/98/98
f 231/231/231 103/103/103 98/98/98
f 103/103/103 231/231/231 227/227/227
f 227/227/227 228/228/228 103/103/103
f 100/100/100 103/103/103 228/228/228
f 226/226/226 100/100/100 228/228/228
f 233/233/233 100/100/100 226/226/226
f 222/222/222 233/233/233 226/226/226
f 100/100/100 233/233/233 84/84/84
f 84/84/84 233/233/233 222/222/222
f 234/234/234 84/84/84 222/222/222
f 222/222/222 221/221/221 234/234/234
f 74/74/74 84/84/84 234/234/234
f 234/234/234 221/221/221 235/235/235
f 234/234/234 235/235/235 74/74/74
f 235/235/235 221/221/221 220/220/220
f 235/235/235 236/236/236 74/74/74
f 236/236/236 72/72/72 74/74/74
f 235/235/235 220/220/220 237/237/237
f 235/235/235 237/237/237 236/236/236
f 223/223/223 237/237/237 220/220/220
f 238/238/238 72/72/72 236/236/236
f 236/236/236 237/237/237 238/238/238
f 238/238/238 68/68/68 72/72/72
f 237/237/237 223/223/223 239/239/239
f 239/239/239 223/223/223 224/224/224
f 237/237/237 239/239/239 240/240/240
f 240/240/240 238/238/238 237/237/237
f 224/224/224 240/240/240 239/239/239
f 238/238/238 240/240/240 241/241/241
f 241/241/241 68/68/68 238/238/238
f 241/241/241 240/240/240 224/224/224
f 242/242/242 241/241/241 224/224/224
f 68/68/68 241/241/241 243/243/243
f 241/241/241 242/242/242 243/243/243
f 242/242/242 224/224/224 244/244/244
f 244/244/244 224/224/224 225/225/225
f 245/245/245 68/68/68 243/243/243
f 246/246/246 243/243/243 242/242/242
f 243/243/243 246/246/246 245/245/245
f 247/247/247 245/245/245 246/246/246
f 246/246/246 242/242/242 248/248/248
f 242/242/242 244/244/244 248/248/248
f 248/248/248 244/244/244 249/249/249
f 246/246/246 248/248/248 250/250/250
f 247/247/247 246/246/246 250/250/250
f 250/250/250 248/248/248 249/249/249
f 225/225/225 251/251/251 244/244/244
f 244/244/244 251/251/251 249/249/249
f 68/68/68 245/245/245 252/252/252
f 252/252/252 69/69/69 68/68/68
f 225/225/225 253/253/253 251/251/251
f 216/216/216 253/253/253 225/225/225
f 254/254/254 253/253/253 216/216/216
f 218/218/218 254/254/254 216/216/216
f 253/253/253 254/254/254 255/255/255
f 255/255/255 256/256/256 253/253/253
f 251/251/251 253/253/253 256/256/256
f 218/218/218 257/257/257 254/254/254
f 218/218/218 258/258/258 257/257/257
f 251/251/251 259/259/259 249/249/249
f 251/251/251 256/256/256 259/259/259
f 260/260/260 259/259/259 256/256/256
f 259/259/259 260/260/260 249/249/249
f 260/260/260 256/256/256 261/261/261
f 256/256/256 255/255/255 261/261/261
f 262/262/262 249/249/249 260/260/260
f 262/262/262 260/260/260 261/261/261
f 249/249/249 262/262/262 263/263/263
f 250/250/250 249/249/249 263/263/263
f 261/261/261 264/264/264 262/262/262
f 255/255/255 264/264/264 261/261/261
f 262/262/262 264/264/264 263/263/263
f 264/264/264 265/265/265 263/263/263
f 266/266/266 250/250/250 263/263/263
f 250/250/250 266/266/266 247/247/247
f 266/266/266 263/263/263 267/267/267
f 267/267/267 263/263/263 265/265/265
f 267/267/267 247/247/247 266/266/266
f 268/268/268 264/264/264 255/255/255
f 265/265/265 264/264/264 268/268/268
f 268/268/268 269/269/269 265/265/265
f 269/269/269 268/268/268 270/270/270
f 247/247/247 267/267/267 271/271/271
f 267/267/267 265/265/265 271/271/271
f 272/272/272 265/265/265 269/269/269
f 269/269/269 273/273/273 272/272/272
f 273/273/273 269/269/269 274/274/274
f 275/275/275 268/268/268 255/255/255
f 268/268/268 275/275/275 270/270/270
f 271/271/271 265/265/265 276/276/276
f 277/277/277 276/276/276 265/265/265
f 278/278/278 273/273/273 274/274/274
f 279/279/279 273/273/273 278/278/278
f 280/280/280 247/247/247 271/271/271
f 276/276/276 281/281/281 271/271/271
f 281/281/281 280/280/280 271/271/271
f 282/282/282 247/247/247 280/280/280
f 245/245/245 247/247/247 282/282/282
f 282/282/282 283/283/283 245/245/245
f 282/282/282 280/280/280 283/283/283
f 252/252/252 245/245/245 283/283/283
f 284/284/284 283/283/283 280/280/280
f 252/252/252 283/283/283 284/284/284
f 281/281/281 285/285/285 280/280/280
f 285/285/285 284/284/284 280/280/280
f 281/281/281 286/286/286 285/285/285
f 286/286/286 284/284/284 285/285/285
f 287/287/287 281/281/281 276/276/276
f 281/281/281 287/287/287 286/286/286
f 288/288/288 252/252/252 284/284/284
f 286/286/286 289/289/289 284/284/284
f 289/289/289 288/288/288 284/284/284
f 288/288/288 290/290/290 252/252/252
f 69/69/69 252/252/252 290/290/290
f 291/291/291 69/69/69 290/290/290
f 290/290/290 288/288/288 291/291/291
f 71/71/71 69/69/69 291/291/291
f 292/292/292 291/291/291 288/288/288
f 71/71/71 291/291/291 292/292/292
f 292/292/292 288/288/288 289/289/289
f 293/293/293 71/71/71 292/292/292
f 294/294/294 71/71/71 293/293/293
f 294/294/294 293/293/293 295/295/295
f 296/296/296 292/292/292 289/289/289
f 296/296/296 293/293/293 292/292/292
f 297/297/297 289/289/289 286/286/286
f 289/289/289 297/297/297 296/296/296
f 293/293/293 298/298/298 295/295/295
f 293/293/293 296/296/296 299/299/299
f 298/298/298 293/293/293 299/299/299
f 298/298/298 277/277/277 295/295/295
f 277/277/277 300/300/300 295/295/295
f 276/276/276 277/277/277 298/298/298
f 276/276/276 298/298/298 299/299/299
f 287/287/287 276/276/276 299/299/299
f 287/287/287 301/301/301 286/286/286
f 299/299/299 301/301/301 287/287/287
f 302/302/302 299/299/299 296/296/296
f 302/302/302 296/296/296 297/297/297
f 302/302/302 301/301/301 299/299/299
f 297/297/297 286/286/286 303/303/303
f 301/301/301 303/303/303 286/286/286
f 302/302/302 303/303/303 301/301/301
f 303/303/303 302/302/302 297/297/297
f 306/306/306 305/305/305 304/304/304
f 306/306/306 307/307/307 305/305/305
f 308/308/308 307/307/307 306/306/306
f 306/306/306 309/309/309 308/308/308
f 310/310/310 309/309/309 306/306/306
f 309/309/309 311/311/311 308/308/308
f 312/312/312 311/311/311 309/309/309
f 307/307/307 313/313/313 305/305/305
f 314/314/314 305/305/305 313/313/313
f 314/314/314 315/315/315 305/305/305
f 257/257/257 314/314/314 313/313/313
f 316/316/316 313/313/313 307/307/307
f 313/313/313 316/316/316 257/257/257
f 308/308/308 317/317/317 307/307/307
f 307/307/307 317/317/317 316/316/316
f 317/317/317 308/308/308 318/318/318
f 319/319/319 257/257/257 316/316/316
f 254/254/254 257/257/257 319/319/319
f 254/254/254 319/319/319 255/255/255
f 320/320/320 316/316/316 317/317/317
f 319/319/319 316/316/316 320/320/320
f 255/255/255 319/319/319 321/321/321
f 275/275/275 255/255/255 321/321/321
f 320/320/320 317/317/317 322/322/322
f 322/322/322 317/317/317 318/318/318
f 320/320/320 323/323/323 319/319/319
f 320/320/320 322/322/322 323/323/323
f 319/319/319 323/323/323 321/321/321
f 323/323/323 322/322/322 324/324/324
f 318/318/318 324/324/324 322/322/322
f 324/324/324 321/321/321 323/323/323
f 324/324/324 325/325/325 321/321/321
f 326/326/326 275/275/275 321/321/321
f 321/321/321 325/325/325 326/326/326
f 275/275/275 326/326/326 270/270/270
f 324/324/324 318/318/318 327/327/327
f 324/324/324 327/327/327 325/325/325
f 326/326/326 328/328/328 270/270/270
f 329/329/329 270/270/270 328/328/328
f 325/325/325 330/330/330 326/326/326
f 326/326/326 330/330/330 328/328/328
f 327/327/327 318/318/318 331/331/331
f 327/327/327 332/332/332 325/325/325
f 332/332/332 327/327/327 331/331/331
f 330/330/330 325/325/325 333/333/333
f 328/328/328 330/330/330 334/334/334
f 333/333/333 334/334/334 330/330/330
f 335/335/335 325/325/325 332/332/332
f 333/333/333 325/325/325 335/335/335
f 270/270/270 329/329/329 336/336/336
f 337/337/337 270/270/270 336/336/336
f 270/270/270 337/337/337 269/269/269
f 338/338/338 269/269/269 337/337/337
f 274/274/274 269/269/269 338/338/338
f 338/338/338 337/337/337 339/339/339
f 337/337/337 336/336/336 339/339/339
f 274/274/274 338/338/338 339/339/339
f 340/340/340 339/339/339 336/336/336
f 329/329/329 340/340/340 336/336/336
f 339/339/339 340/340/340 274/274/274
f 274/274/274 340/340/340 341/341/341
f 329/329/329 342/342/342 340/340/340
f 342/342/342 341/341/341 340/340/340
f 341/341/341 343/343/343 274/274/274
f 343/343/343 278/278/278 274/274/274
f 344/344/344 278/278/278 343/343/343
f 341/341/341 344/344/344 343/343/343
f 344/344/344 345/345/345 278/278/278
f 346/346/346 344/344/344 341/341/341
f 341/341/341 342/342/342 346/346/346
f 347/347/347 345/345/345 344/344/344
f 346/346/346 347/347/347 344/344/344
f 345/345/345 347/347/347 348/348/348
f 346/346/346 348/348/348 347/347/347
f 342/342/342 348/348/348 346/346/346
f 329/329/329 349/349/349 342/342/342
f 342/342/342 349/349/349 350/350/350
f 342/342/342 350/350/350 351/351/351
f 350/350/350 349/349/349 352/352/352
f 349/349/349 353/353/353 352/352/352
f 352/352/352 353/353/353 354/354/354
f 353/353/353 355/355/355 354/354/354
f 356/356/356 355/355/355 353/353/353
f 357/357/357 353/353/353 349/349/349
f 357/357/357 356/356/356 353/353/353
f 349/349/349 329/329/329 358/358/358
f 358/358/358 357/357/357 349/349/349
f 329/329/329 359/359/359 358/358/358
f 358/358/358 359/359/359 357/357/357
f 356/356/356 357/357/357 359/359/359
f 328/328/328 359/359/359 329/329/329
f 328/328/328 356/356/356 359/359/359
f 356/356/356 328/328/328 334/334/334
f 334/334/334 355/355/355 356/356/356
f 360/360/360 355/355/355 334/334/334
f 334/334/334 361/361/361 360/360/360
f 333/333/333 361/361/361 334/334/334
f 362/362/362 361/361/361 333/333/333
f 362/362/362 333/333/333 335/335/335
f 361/361/361 363/363/363 360/360/360
f 361/361/361 362/362/362 363/363/363
f 363/363/363 364/364/364 360/360/360
f 362/362/362 364/364/364 363/363/363
f 364/364/364 362/362/362 365/365/365
f 360/360/360 364/364/364 365/365/365
f 366/366/366 360/360/360 365/365/365
f 362/362/362 335/335/335 367/367/367
f 365/365/365 362/362/362 367/367/367
f 368/368/368 367/367/367 335/335/335
f 335/335/335 332/332/332 368/368/368
f 368/368/368 332/332/332 369/369/369
f 332/332/332 331/331/331 369/369/369
f 368/368/368 370/370/370 367/367/367
f 368/368/368 369/369/369 370/370/370
f 367/367/367 370/370/370 371/371/371
f 367/367/367 371/371/371 372/372/372
f 365/365/365 372/372/372 373/373/373
f 366/366/366 365/365/365 374/374/374
f 373/373/373 374/374/374 365/365/365
f 371/371/371 375/375/375 372/372/372
f 373/373/373 372/372/372 375/375/375
f 371/371/371 376/376/376 375/375/375
f 371/371/371 370/370/370 377/377/377
f 371/371/371 377/377/377 376/376/376
f 370/370/370 378/378/378 377/377/377
f 377/377/377 378/378/378 376/376/376
f 375/375/375 376/376/376 379/379/379
f 375/375/375 379/379/379 373/373/373
f 379/379/379 376/376/376 380/380/380
f 380/380/380 373/373/373 379/379/379
f 376/376/376 378/378/378 380/380/380
f 373/373/373 380/380/380 381/381/381
f 373/373/373 381/381/381 374/374/374
f 380/380/380 378/378/378 381/381/381
f 382/382/382 378/378/378 370/370/370
f 370/370/370 369/369/369 382/382/382
f 381/381/381 383/383/383 374/374/374
f 374/374/374 383/383/383 384/384/384
f 383/383/383 381/381/381 385/385/385
f 374/374/374 384/384/384 366/366/366
f 378/378/378 386/386/386 381/381/381
f 385/385/385 381/381/381 386/386/386
f 382/382/382 387/387/387 378/378/378
f 387/387/387 386/386/386 378/378/378
f 382/382/382 388/388/388 387/387/387
f 369/369/369 388/388/388 382/382/382
f 387/387/387 388/388/388 386/386/386
f 386/386/386 389/389/389 385/385/385
f 389/389/389 386/386/386 388/388/388
f 390/390/390 384/384/384 385/385/385
f 390/390/390 385/385/385 389/389/389
f 369/369/369 391/391/391 388/388/388
f 369/369/369 331/331/331 391/391/391
f 388/388/388 392/392/392 389/389/389
f 391/391/391 392/392/392 388/388/388
f 393/393/393 391/391/391 331/331/331
f 318/318/318 393/393/393 331/331/331
f 394/394/394 391/391/391 393/393/393
f 392/392/392 391/391/391 394/394/394
f 395/395/395 393/393/393 318/318/318
f 393/393/393 395/395/395 394/394/394
f 318/318/318 308/308/308 395/395/395
f 308/308/308 394/394/394 395/395/395
f 308/308/308 311/311/311 394/394/394
f 394/394/394 311/311/311 392/392/392
f 389/389/389 392/392/392 396/396/396
f 396/396/396 392/392/392 311/311/311
f 396/396/396 390/390/390 389/389/389
f 396/396/396 311/311/311 397/397/397
f 397/397/397 390/390/390 396/396/396
f 384/384/384 390/390/390 398/398/398
f 390/390/390 399/399/399 398/398/398
f 398/398/398 366/366/366 384/384/384
f 398/398/398 399/399/399 400/400/400
f 400/400/400 399/399/399 401/401/401
f 366/366/366 398/398/398 402/402/402
f 402/402/402 398/398/398 400/400/400
f 403/403/403 366/366/366 402/402/402
f 402/402/402 400/400/400 404/404/404
f 404/404/404 403/403/403 402/402/402
f 403/403/403 405/405/405 366/366/366
f 360/360/360 366/366/366 405/405/405
f 360/360/360 405/405/405 406/406/406
f 355/355/355 360/360/360 406/406/406
f 400/400/400 401/401/401 407/407/407
f 404/404/404 400/400/400 408/408/408
f 408/408/408 400/400/400 407/407/407
f 409/409/409 404/404/404 408/408/408
f 407/407/407 409/409/409 408/408/408
f 403/403/403 404/404/404 410/410/410
f 404/404/404 409/409/409 410/410/410
f 403/403/403 411/411/411 405/405/405
f 403/403/403 410/410/410 411/411/411
f 406/406/406 405/405/405 412/412/412
f 405/405/405 411/411/411 412/412/412
f 401/401/401 413/413/413 407/407/407
f 401/401/401 414/414/414 413/413/413
f 411/411/411 410/410/410 415/415/415
f 415/415/415 412/412/412 411/411/411
f 412/412/412 416/416/416 406/406/406
f 355/355/355 406/406/406 416/416/416
f 417/417/417 410/410/410 409/409/409
f 410/410/410 417/417/417 415/415/415
f 407/407/407 413/413/413 418/418/418
f 407/407/407 418/418/418 409/409/409
f 417/417/417 409/409/409 419/419/419
f 415/415/415 417/417/417 419/419/419
f 412/412/412 415/415/415 420/420/420
f 412/412/412 420/420/420 416/416/416
f 421/421/421 420/420/420 415/415/415
f 421/421/421 415/415/415 419/419/419
f 416/416/416 420/420/420 421/421/421
f 409/409/409 422/422/422 419/419/419
f 409/409/409 418/418/418 422/422/422
f 419/419/419 422/422/422 423/423/423
f 421/421/421 419/419/419 423/423/423
f 422/422/422 418/418/418 424/424/424
f 424/424/424 423/423/423 422/422/422
f 423/423/423 424/424/424 425/425/425
f 416/416/416 421/421/421 426/426/426
f 421/421/421 423/423/423 427/427/427
f 421/421/421 427/427/427 426/426/426
f 423/423/423 425/425/425 428/428/428
f 423/423/423 428/428/428 427/427/427
f 427/427/427 428/428/428 429/429/429
f 427/427/427 429/429/429 430/430/430
f 430/430/430 426/426/426 427/427/427
f 416/416/416 426/426/426 431/431/431
f 355/355/355 416/416/416 431/431/431
f 428/428/428 425/425/425 432/432/432
f 429/429/429 428/428/428 432/432/432
f 430/430/430 433/433/433 426/426/426
f 431/431/431 426/426/426 433/433/433
f 434/434/434 355/355/355 431/431/431
f 355/355/355 434/434/434 354/354/354
f 431/431/431 435/435/435 434/434/434
f 435/435/435 431/431/431 433/433/433
f 354/354/354 434/434/434 436/436/436
f 434/434/434 435/435/435 436/436/436
f 436/436/436 437/437/437 354/354/354
f 438/438/438 354/354/354 437/437/437
f 436/436/436 435/435/435 439/439/439
f 435/435/435 433/433/433 439/439/439
f 439/439/439 433/433/433 440/440/440
f 440/440/440 433/433/433 430/430/430
f 430/430/430 441/441/441 440/440/440
f 430/430/430 429/429/429 441/441/441
f 442/442/442 440/440/440 441/441/441
f 442/442/442 441/441/441 443/443/443
f 441/441/441 444/444/444 443/443/443
f 441/441/441 429/429/429 444/444/444
f 444/444/444 429/429/429 445/445/445
f 445/445/445 446/446/446 444/444/444
f 446/446/446 447/447/447 444/444/444
f 448/448/448 447/447/447 446/446/446
f 448/448/448 446/446/446 449/449/449
f 450/450/450 446/446/446 445/445/445
f 446/446/446 450/450/450 451/451/451
f 452/452/452 445/445/445 429/429/429
f 445/445/445 452/452/452 450/450/450
f 451/451/451 450/450/450 453/453/453
f 452/452/452 453/453/453 450/450/450
f 453/453/453 454/454/454 451/451/451
f 452/452/452 429/429/429 455/455/455
f 455/455/455 453/453/453 452/452/452
f 432/432/432 455/455/455 429/429/429
f 453/453/453 456/456/456 454/454/454
f 456/456/456 457/457/457 454/454/454
f 458/458/458 456/456/456 453/453/453
f 453/453/453 455/455/455 458/458/458
f 456/456/456 458/458/458 457/457/457
f 432/432/432 459/459/459 455/455/455
f 455/455/455 459/459/459 458/458/458
f 459/459/459 457/457/457 458/458/458
f 459/459/459 432/432/432 425/425/425
f 457/457/457 459/459/459 460/460/460
f 425/425/425 460/460/460 459/459/459
f 457/457/457 460/460/460 461/461/461
f 462/462/462 461/461/461 460/460/460
f 460/460/460 425/425/425 463/463/463
f 464/464/464 462/462/462 460/460/460
f 464/464/464 460/460/460 463/463/463
f 464/464/464 465/465/465 462/462/462
f 462/462/462 465/465/465 466/466/466
f 467/467/467 466/466/466 465/465/465
f 465/465/465 468/468/468 467/467/467
f 425/425/425 469/469/469 463/463/463
f 424/424/424 469/469/469 425/425/425
f 463/463/463 470/470/470 464/464/464
f 465/465/465 464/464/464 470/470/470
f 471/471/471 469/469/469 424/424/424
f 424/424/424 418/418/418 471/471/471
f 472/472/472 463/463/463 469/469/469
f 472/472/472 470/470/470 463/463/463
f 471/471/471 472/472/472 469/469/469
f 472/472/472 473/473/473 470/470/470
f 473/473/473 465/465/465 470/470/470
f 471/471/471 473/473/473 472/472/472
f 418/418/418 474/474/474 471/471/471
f 474/474/474 473/473/473 471/471/471
f 474/474/474 475/475/475 473/473/473
f 413/413/413 474/474/474 418/418/418
f 476/476/476 465/465/465 473/473/473
f 476/476/476 468/468/468 465/465/465
f 476/476/476 473/473/473 475/475/475
f 413/413/413 477/477/477 474/474/474
f 475/475/475 474/474/474 477/477/477
f 476/476/476 478/478/478 468/468/468
f 478/478/478 479/479/479 468/468/468
f 480/480/480 477/477/477 413/413/413
f 414/414/414 480/480/480 413/413/413
f 481/481/481 480/480/480 414/414/414
f 477/477/477 480/480/480 482/482/482
f 482/482/482 483/483/483 477/477/477
f 475/475/475 477/477/477 483/483/483
f 484/484/484 483/483/483 482/482/482
f 485/485/485 484/484/484 482/482/482
f 486/486/486 484/484/484 485/485/485
f 485/485/485 487/487/487 486/486/486
f 484/484/484 488/488/488 483/483/483
f 488/488/488 484/484/484 486/486/486
f 489/489/489 486/486/486 487/487/487
f 486/486/486 489/489/489 488/488/488
f 483/483/483 488/488/488 489/489/489
f 487/487/487 479/479/479 489/489/489
f 483/483/483 489/489/489 475/475/475
f 489/489/489 479/479/479 475/475/475
f 475/475/475 479/479/479 490/490/490
f 475/475/475 490/490/490 476/476/476
f 490/490/490 491/491/491 476/476/476
f 478/478/478 476/476/476 491/491/491
f 491/491/491 490/490/490 492/492/492
f 479/479/479 492/492/492 490/490/490
f 478/478/478 491/491/491 492/492/492
f 493/493/493 479/479/479 478/478/478
f 493/493/493 478/478/478 492/492/492
f 479/479/479 493/493/493 492/492/492
