g MagnetShrine
v -1.7848182 -1.7848182 0.74586785
v -1.7848182 -1.7848182 1.1500895
v -0 -1.7848182 1.1500895
v -0 -1.7848182 0.74586785
v -0 1.7848182 0.74586785
v -0 1.7848182 1.1500895
v -1.7848182 1.7848182 1.1500895
v -1.7848182 1.7848182 0.74586785
v -2.6343806 2.6343806 0.03696978
v -0 2.3476233 0.5737476
v -2.3476233 2.3476233 0.5737477
v -0 2.6343806 0.03696978
v -0 2.5784607 -0.05630325
v -2.5784607 2.5784607 -0.05630325
v -0 -0.5973337 1.2092489
v -0.46170452 -0.5973337 2.3729377
v -0 -0.5973337 2.3737655
v -0.7028122 -0.5973337 1.2336545
v -1.1486913 -0.5973337 2.6482174
v -1.9766117 -0.5973337 1.8292875
v -1.4642972 -0.5973336 3.165956
v -2.6048791 -0.5973336 2.9310713
v -1.4438343 -0.5973336 4.338508
v -2.604971 -0.59733355 4.427165
v -1.204926 -0.5973336 5.6799173
v -2.3599381 -0.5973335 5.821922
v -0 0.5973337 2.3737655
v -0 -0.5973337 2.3737655
v -0.46170452 -0.5973337 2.3729377
v -0.46170452 0.5973337 2.3729377
v -1.1486913 0.5973337 2.6482174
v -1.1486913 -0.5973337 2.6482174
v -1.7848182 -1.7848182 1.1500895
v -0 -1.585282 1.27533
v -0 -1.7848182 1.1500895
v -1.585282 -1.585282 1.27533
v -1.7848182 1.7848182 1.1500895
v -0 1.585282 1.27533
v -1.585282 1.585282 1.27533
v -0 1.7848182 1.1500895
v -0 -2.6343806 0.03696978
v -2.3476233 -2.3476233 0.5737477
v -0 -2.3476233 0.5737477
v -2.6343806 -2.6343806 0.03696978
v -2.5784607 -2.5784607 -0.05630325
v -0 -2.5784607 -0.05630325
v -0.7028122 0.5973337 1.2336545
v -0 -0.5973337 1.2092489
v -0 0.5973337 1.2092489
v -0.7028122 -0.5973337 1.2336545
v -1.9766117 -0.5973337 1.8292875
v -1.9766117 0.5973337 1.8292875
v -0.7028122 0.5973337 1.2336545
v -0 0.5973337 1.2092489
v -0 0.5973337 2.3737655
v -0.46170452 0.5973337 2.3729377
v -1.9766117 0.5973337 1.8292875
v -1.1486913 0.5973337 2.6482174
v -2.6048791 0.59733385 2.9310713
v -1.4642972 0.5973337 3.165956
v -2.604971 0.59733385 4.427165
v -1.4438343 0.59733385 4.338508
v -2.3599381 0.5973339 5.821922
v -1.204926 0.59733385 5.6799173
v -1.1486913 -0.5973337 2.6482174
v -1.4642972 0.5973337 3.165956
v -1.1486913 0.5973337 2.6482174
v -1.4642972 -0.5973336 3.165956
v -1.4438343 0.59733385 4.338508
v -1.4438343 -0.5973336 4.338508
v -1.204926 0.59733385 5.6799173
v -1.204926 -0.5973336 5.6799173
v -1.9766117 0.5973337 1.8292875
v -2.6048791 -0.5973336 2.9310713
v -1.9766117 -0.5973337 1.8292875
v -2.6048791 0.59733385 2.9310713
v -2.604971 -0.59733355 4.427165
v -2.604971 0.59733385 4.427165
v -2.3599381 -0.5973335 5.821922
v -2.3599381 0.5973339 5.821922
v -1.121169 0.68747145 5.6656404
v -0.9679258 0.6694518 6.6131825
v -2.258064 0.6697484 6.8128457
v -2.4463437 0.6845171 5.8377595
v -2.258064 -0.669748 6.8128457
v -2.258064 0.6697484 6.8128457
v -0.9679258 0.6694518 6.6131825
v -0.9679258 -0.6694514 6.6131825
v -2.4463437 -0.68451667 5.8377595
v -2.258064 -0.669748 6.8128457
v -0.9679258 -0.6694514 6.6131825
v -1.121169 -0.6874712 5.6656404
v -1.121169 -0.6874712 5.6656404
v -0.9679258 -0.6694514 6.6131825
v -0.9679258 0.6694518 6.6131825
v -1.121169 0.68747145 5.6656404
v -2.4463437 0.6845171 5.8377595
v -2.258064 0.6697484 6.8128457
v -2.258064 -0.669748 6.8128457
v -2.4463437 -0.68451667 5.8377595
v -0 -1.7848182 0.74586785
v -1.8929433 -1.8929433 0.6377427
v -1.7848182 -1.7848182 0.74586785
v -0 -1.8929433 0.6377427
v -2.240882 -2.240882 0.6377427
v -0 -2.240882 0.6377427
v -2.3476233 -2.3476233 0.5737477
v -0 -2.3476233 0.5737477
v -2.3476233 2.3476233 0.5737477
v -2.240882 2.240882 0.6377427
v -0 2.3476233 0.5737476
v -0 2.240882 0.6377427
v -1.8929433 1.8929433 0.6377427
v -0 1.8929433 0.6377427
v -1.7848182 1.7848182 0.74586785
v -0 1.7848182 0.74586785
v -1.7848182 -1.7848182 0.74586785
v -1.8929433 -1.8929433 0.6377427
v -1.8929433 1.8929433 0.6377427
v -1.7848182 1.7848182 0.74586785
v -1.7848182 -1.7848182 1.1500895
v -1.7848182 1.7848182 1.1500895
v -2.5784607 2.5784607 -0.05630325
v -2.6343806 -2.6343806 0.03696978
v -2.5784607 -2.5784607 -0.05630325
v -2.6343806 2.6343806 0.03696978
v -2.3476233 2.3476233 0.5737477
v -2.3476233 -2.3476233 0.5737477
v -2.5784607 2.5784607 -0.05630325
v -2.5784607 -2.5784607 -0.05630325
v -0 -2.5784607 -0.05630325
v -0 2.5784607 -0.05630325
v 1.7848182 -1.7848182 0.74586785
v -0 -1.7848182 0.74586785
v -0 -1.7848182 1.1500895
v 1.7848182 -1.7848182 1.1500895
v -0 1.7848182 0.74586785
v 1.7848182 1.7848182 0.74586785
v 1.7848182 1.7848182 1.1500895
v -0 1.7848182 1.1500895
v 2.6343806 2.6343806 0.03696978
v 2.3476233 2.3476233 0.5737477
v -0 2.3476233 0.5737476
v -0 2.6343806 0.03696978
v -0 2.5784607 -0.05630325
v 2.5784607 2.5784607 -0.05630325
v -0 -0.5973337 1.2092489
v -0 -0.5973337 2.3737655
v 0.46170452 -0.5973337 2.3729377
v 0.7028122 -0.5973337 1.2336545
v 1.1486913 -0.5973337 2.6482174
v 1.9766117 -0.5973337 1.8292875
v 1.4642972 -0.5973336 3.165956
v 2.6048791 -0.5973336 2.9310713
v 1.4438343 -0.5973336 4.338508
v 2.604971 -0.59733355 4.427165
v 1.204926 -0.5973336 5.6799173
v 2.3599381 -0.5973335 5.821922
v -0 0.5973337 2.3737655
v 0.46170452 -0.5973337 2.3729377
v -0 -0.5973337 2.3737655
v 0.46170452 0.5973337 2.3729377
v 1.1486913 0.5973337 2.6482174
v 1.1486913 -0.5973337 2.6482174
v 1.7848182 -1.7848182 1.1500895
v -0 -1.7848182 1.1500895
v -0 -1.585282 1.27533
v 1.585282 -1.585282 1.27533
v 1.7848182 1.7848182 1.1500895
v -0 1.585282 1.27533
v 1.585282 1.585282 1.27533
v -0 1.7848182 1.1500895
v -0 -2.6343806 0.03696978
v -0 -2.3476233 0.5737477
v 2.3476233 -2.3476233 0.5737477
v 2.6343806 -2.6343806 0.03696978
v 2.5784607 -2.5784607 -0.05630325
v -0 -2.5784607 -0.05630325
v 0.7028122 0.5973337 1.2336545
v -0 0.5973337 1.2092489
v -0 -0.5973337 1.2092489
v 0.7028122 -0.5973337 1.2336545
v 1.9766117 -0.5973337 1.8292875
v 1.9766117 0.5973337 1.8292875
v 0.7028122 0.5973337 1.2336545
v -0 0.5973337 2.3737655
v -0 0.5973337 1.2092489
v 0.46170452 0.5973337 2.3729377
v 1.9766117 0.5973337 1.8292875
v 1.1486913 0.5973337 2.6482174
v 2.6048791 0.59733385 2.9310713
v 1.4642972 0.5973337 3.165956
v 2.604971 0.59733385 4.427165
v 1.4438343 0.59733385 4.338508
v 2.3599381 0.5973339 5.821922
v 1.204926 0.59733385 5.6799173
v 1.1486913 -0.5973337 2.6482174
v 1.1486913 0.5973337 2.6482174
v 1.4642972 0.5973337 3.165956
v 1.4642972 -0.5973336 3.165956
v 1.4438343 0.59733385 4.338508
v 1.4438343 -0.5973336 4.338508
v 1.204926 0.59733385 5.6799173
v 1.204926 -0.5973336 5.6799173
v 1.9766117 0.5973337 1.8292875
v 1.9766117 -0.5973337 1.8292875
v 2.6048791 -0.5973336 2.9310713
v 2.6048791 0.59733385 2.9310713
v 2.604971 -0.59733355 4.427165
v 2.604971 0.59733385 4.427165
v 2.3599381 -0.5973335 5.821922
v 2.3599381 0.5973339 5.821922
v 1.121169 0.68747145 5.6656404
v 2.4463437 0.6845171 5.8377595
v 2.258064 0.6697484 6.8128457
v 0.9679258 0.6694518 6.6131825
v 2.258064 -0.669748 6.8128457
v 0.9679258 -0.6694514 6.6131825
v 0.9679258 0.6694518 6.6131825
v 2.258064 0.6697484 6.8128457
v 2.4463437 -0.68451667 5.8377595
v 1.121169 -0.6874712 5.6656404
v 0.9679258 -0.6694514 6.6131825
v 2.258064 -0.669748 6.8128457
v 1.121169 -0.6874712 5.6656404
v 1.121169 0.68747145 5.6656404
v 0.9679258 0.6694518 6.6131825
v 0.9679258 -0.6694514 6.6131825
v 2.4463437 0.6845171 5.8377595
v 2.4463437 -0.68451667 5.8377595
v 2.258064 -0.669748 6.8128457
v 2.258064 0.6697484 6.8128457
v -0 -1.7848182 0.74586785
v 1.7848182 -1.7848182 0.74586785
v 1.8929433 -1.8929433 0.6377427
v -0 -1.8929433 0.6377427
v 2.240882 -2.240882 0.6377427
v -0 -2.240882 0.6377427
v 2.3476233 -2.3476233 0.5737477
v -0 -2.3476233 0.5737477
v 2.3476233 2.3476233 0.5737477
v 2.240882 2.240882 0.6377427
v -0 2.3476233 0.5737476
v -0 2.240882 0.6377427
v 1.8929433 1.8929433 0.6377427
v -0 1.8929433 0.6377427
v 1.7848182 1.7848182 0.74586785
v -0 1.7848182 0.74586785
v 1.7848182 -1.7848182 0.74586785
v 1.8929433 1.8929433 0.6377427
v 1.8929433 -1.8929433 0.6377427
v 1.7848182 1.7848182 0.74586785
v 1.7848182 -1.7848182 1.1500895
v 1.7848182 1.7848182 1.1500895
v 2.5784607 2.5784607 -0.05630325
v 2.5784607 -2.5784607 -0.05630325
v 2.6343806 -2.6343806 0.03696978
v 2.6343806 2.6343806 0.03696978
v 2.3476233 2.3476233 0.5737477
v 2.3476233 -2.3476233 0.5737477
v 2.5784607 2.5784607 -0.05630325
v -0 2.5784607 -0.05630325
v -0 -2.5784607 -0.05630325
v 2.5784607 -2.5784607 -0.05630325
v 2.3599381 0.5973339 5.821922
v 2.3599381 -0.5973335 5.821922
v 2.4463437 -0.68451667 5.8377595
v 2.4463437 0.6845171 5.8377595
v 1.121169 -0.6874712 5.6656404
v 1.204926 0.59733385 5.6799173
v 1.204926 -0.5973336 5.6799173
v 1.121169 0.68747145 5.6656404
v -2.3599381 0.5973339 5.821922
v -2.4463437 0.6845171 5.8377595
v -2.4463437 -0.68451667 5.8377595
v -2.3599381 -0.5973335 5.821922
v -1.204926 0.59733385 5.6799173
v -1.121169 -0.6874712 5.6656404
v -1.121169 0.68747145 5.6656404
v -1.204926 -0.5973336 5.6799173
vt 0.016069822 0.92358035
vt 0.050340958 0.92358035
vt 0.050340958 0.77225745
vt 0.016069837 0.77225745
vt 0.89979434 0.93014765
vt 0.93406546 0.93014765
vt 0.93406546 0.77882475
vt 0.89979434 0.77882475
vt 0.8046055 0.22184849
vt 0.8500422 0.44520396
vt 0.8500422 0.24616444
vt 0.8046055 0.4452001
vt 0.7966833 0.44520086
vt 0.7966833 0.22659028
vt 0.64523757 0.01606983
vt 0.64224255 0.12217045
vt 0.679045 0.10883245
vt 0.58996147 0.038417548
vt 0.5955103 0.1640428
vt 0.50578517 0.12284449
vt 0.58540034 0.21444711
vt 0.4877249 0.2288495
vt 0.62107116 0.30725583
vt 0.5311512 0.34802744
vt 0.679045 0.40717337
vt 0.5911616 0.45201674
vt 0.8446123 0.01606983
vt 0.8446123 0.11735776
vt 0.88368124 0.11735776
vt 0.88368124 0.01606983
vt 0.94323146 0.01606983
vt 0.94323146 0.11735776
vt 0.6461256 0.7868023
vt 0.49572212 0.76988494
vt 0.49507982 0.7868023
vt 0.62988156 0.7698849
vt 0.6461256 0.48415643
vt 0.4957221 0.5010738
vt 0.6298815 0.5010738
vt 0.4950798 0.48415643
vt 0.7191069 0.22185221
vt 0.76454365 0.42088786
vt 0.76454365 0.22184837
vt 0.7191069 0.4452039
vt 0.71118474 0.44046208
vt 0.71118474 0.22185147
vt 0.7111847 0.07527563
vt 0.81247264 0.016069835
vt 0.7111847 0.016069826
vt 0.81247264 0.075275645
vt 0.8124726 0.18970868
vt 0.7111847 0.18970868
vt 0.3665017 0.42966914
vt 0.42177773 0.45201683
vt 0.45558524 0.35925412
vt 0.4187827 0.34591627
vt 0.2823254 0.34524202
vt 0.37205046 0.30404377
vt 0.26426512 0.23923707
vt 0.36194056 0.25363946
vt 0.3076914 0.12005925
vt 0.39761138 0.16083074
vt 0.3677019 0.016069889
vt 0.45558524 0.060913086
vt 0.01606983 0.4854307
vt 0.117357776 0.52586913
vt 0.11735776 0.4854307
vt 0.01606986 0.52586913
vt 0.11735776 0.6247945
vt 0.01606983 0.6247945
vt 0.11735776 0.7401178
vt 0.01606983 0.7401178
vt 0.6782652 0.48415646
vt 0.7795532 0.56719154
vt 0.7795532 0.48415643
vt 0.6782652 0.5671916
vt 0.7795532 0.69219947
vt 0.6782652 0.69219947
vt 0.7795532 0.8122618
vt 0.6782652 0.8122618
vt 0.90255713 0.59741914
vt 0.9839301 0.5979732
vt 0.9839301 0.4872887
vt 0.89979434 0.4841565
vt 0.08365524 0.8385507
vt 0.08365524 0.9521177
vt 0.19386113 0.9520925
vt 0.19386125 0.83857584
vt 0.882182 0.3356651
vt 0.9663178 0.33253282
vt 0.9663178 0.22184837
vt 0.8849448 0.22240245
vt 0.89979434 0.7466851
vt 0.9811013 0.7451573
vt 0.9811013 0.63164055
vt 0.89979434 0.63011277
vt 0.67826533 0.9604728
vt 0.7624459 0.9592207
vt 0.7624459 0.84565365
vt 0.67826533 0.8444015
vt 0.26514786 0.8345188
vt 0.42478955 0.84368604
vt 0.41619366 0.8345188
vt 0.26459333 0.843686
vt 0.45423496 0.87318546
vt 0.26459333 0.87318546
vt 0.46294013 0.88223535
vt 0.26426512 0.88223535
vt 0.46294013 0.4841565
vt 0.45423502 0.49320638
vt 0.26426515 0.4841565
vt 0.26459336 0.49320638
vt 0.4247896 0.5227058
vt 0.26459333 0.5227058
vt 0.4161937 0.531873
vt 0.26514786 0.531873
vt 0.16008559 0.49459785
vt 0.14949745 0.48543066
vt 0.14949743 0.8064109
vt 0.16008557 0.7972437
vt 0.19386117 0.49459785
vt 0.19386116 0.7972437
vt 0.81169283 0.92611873
vt 0.818683 0.4841565
vt 0.8116929 0.48889756
vt 0.818683 0.9308598
vt 0.8676547 0.90654755
vt 0.8676547 0.5084686
vt 0.016069889 0.016069889
vt 0.016069889 0.45329106
vt 0.23212546 0.45329106
vt 0.23212546 0.016069889
vt 0.016069822 0.92358035
vt 0.016069837 0.77225745
vt 0.050340958 0.77225745
vt 0.050340958 0.92358035
vt 0.89979434 0.93014765
vt 0.89979434 0.77882475
vt 0.93406546 0.77882475
vt 0.93406546 0.93014765
vt 0.8046055 0.22184849
vt 0.8500422 0.24616444
vt 0.8500422 0.44520396
vt 0.8046055 0.4452001
vt 0.7966833 0.44520086
vt 0.7966833 0.22659028
vt 0.64523757 0.01606983
vt 0.679045 0.10883245
vt 0.64224255 0.12217045
vt 0.58996147 0.038417548
vt 0.5955103 0.1640428
vt 0.50578517 0.12284449
vt 0.58540034 0.21444711
vt 0.4877249 0.2288495
vt 0.62107116 0.30725583
vt 0.5311512 0.34802744
vt 0.679045 0.40717337
vt 0.5911616 0.45201674
vt 0.8446123 0.01606983
vt 0.88368124 0.11735776
vt 0.8446123 0.11735776
vt 0.88368124 0.01606983
vt 0.94323146 0.01606983
vt 0.94323146 0.11735776
vt 0.6461256 0.7868023
vt 0.49507982 0.7868023
vt 0.49572212 0.76988494
vt 0.62988156 0.7698849
vt 0.6461256 0.48415643
vt 0.4957221 0.5010738
vt 0.6298815 0.5010738
vt 0.4950798 0.48415643
vt 0.7191069 0.22185221
vt 0.76454365 0.22184837
vt 0.76454365 0.42088786
vt 0.7191069 0.4452039
vt 0.71118474 0.44046208
vt 0.71118474 0.22185147
vt 0.7111847 0.07527563
vt 0.7111847 0.016069826
vt 0.81247264 0.016069835
vt 0.81247264 0.075275645
vt 0.8124726 0.18970868
vt 0.7111847 0.18970868
vt 0.3665017 0.42966914
vt 0.45558524 0.35925412
vt 0.42177773 0.45201683
vt 0.4187827 0.34591627
vt 0.2823254 0.34524202
vt 0.37205046 0.30404377
vt 0.26426512 0.23923707
vt 0.36194056 0.25363946
vt 0.3076914 0.12005925
vt 0.39761138 0.16083074
vt 0.3677019 0.016069889
vt 0.45558524 0.060913086
vt 0.01606983 0.4854307
vt 0.11735776 0.4854307
vt 0.117357776 0.52586913
vt 0.01606986 0.52586913
vt 0.11735776 0.6247945
vt 0.01606983 0.6247945
vt 0.11735776 0.7401178
vt 0.01606983 0.7401178
vt 0.6782652 0.48415646
vt 0.7795532 0.48415643
vt 0.7795532 0.56719154
vt 0.6782652 0.5671916
vt 0.7795532 0.69219947
vt 0.6782652 0.69219947
vt 0.7795532 0.8122618
vt 0.6782652 0.8122618
vt 0.90255713 0.59741914
vt 0.89979434 0.4841565
vt 0.9839301 0.4872887
vt 0.9839301 0.5979732
vt 0.08365524 0.8385507
vt 0.19386125 0.83857584
vt 0.19386113 0.9520925
vt 0.08365524 0.9521177
vt 0.882182 0.3356651
vt 0.8849448 0.22240245
vt 0.9663178 0.22184837
vt 0.9663178 0.33253282
vt 0.89979434 0.7466851
vt 0.89979434 0.63011277
vt 0.9811013 0.63164055
vt 0.9811013 0.7451573
vt 0.67826533 0.9604728
vt 0.67826533 0.8444015
vt 0.7624459 0.84565365
vt 0.7624459 0.9592207
vt 0.26514786 0.8345188
vt 0.41619366 0.8345188
vt 0.42478955 0.84368604
vt 0.26459333 0.843686
vt 0.45423496 0.87318546
vt 0.26459333 0.87318546
vt 0.46294013 0.88223535
vt 0.26426512 0.88223535
vt 0.46294013 0.4841565
vt 0.45423502 0.49320638
vt 0.26426515 0.4841565
vt 0.26459336 0.49320638
vt 0.4247896 0.5227058
vt 0.26459333 0.5227058
vt 0.4161937 0.531873
vt 0.26514786 0.531873
vt 0.16008559 0.49459785
vt 0.14949743 0.8064109
vt 0.14949745 0.48543066
vt 0.16008557 0.7972437
vt 0.19386117 0.49459785
vt 0.19386116 0.7972437
vt 0.81169283 0.92611873
vt 0.8116929 0.48889756
vt 0.818683 0.4841565
vt 0.818683 0.9308598
vt 0.8676547 0.90654755
vt 0.8676547 0.5084686
vt 0.016069889 0.016069889
vt 0.23212546 0.016069889
vt 0.23212546 0.45329106
vt 0.016069889 0.45329106
vt 0.6008991 0.927872
vt 0.6008991 0.8265841
vt 0.60834396 0.8191924
vt 0.60834396 0.9352637
vt 0.49507976 0.8189419
vt 0.5022825 0.927872
vt 0.5022825 0.82658404
vt 0.49507976 0.93551415
vt 0.6008991 0.927872
vt 0.60834396 0.9352637
vt 0.60834396 0.8191924
vt 0.6008991 0.8265841
vt 0.5022825 0.927872
vt 0.49507976 0.8189419
vt 0.49507976 0.93551415
vt 0.5022825 0.82658404
vn -0.5788857 -0.57888573 0.57426715
vn -0.6294997 -0.6294997 0.45547804
vn -0 -0.8751047 0.48393357
vn -0 -0.9238795 0.3826833
vn -0 0.9238795 0.3826833
vn -0 0.8751047 0.48393357
vn -0.6294997 0.6294997 0.45547804
vn -0.5788857 0.57888573 0.57426715
vn -0.7069279 0.7069278 -0.022496644
vn -0 0.7243649 0.68941677
vn -0.4813731 0.4813731 0.7325025
vn -0 0.9996947 -0.024710828
vn -0 0.49284923 -0.8701147
vn -0.39571252 0.39571235 -0.8287481
vn -0 -0.69937825 -0.7147517
vn 0.1241511 -0.7525498 0.64672655
vn -0 -0.7067034 0.7075099
vn -0.1747162 -0.6647424 -0.72635514
vn 0.3997292 -0.78551227 0.47242674
vn -0.5181449 -0.64488804 -0.5618232
vn 0.609262 -0.77554035 0.16533925
vn -0.73145854 -0.6537307 -0.19391873
vn 0.68509805 -0.7254035 -0.06656139
vn -0.72290844 -0.68806607 0.06299591
vn 0.16294836 -0.29269093 -0.9422207
vn -0.4361934 -0.3151931 -0.8428456
vn -0 0.7067034 0.7075099
vn -0 -0.7067034 0.7075099
vn 0.1241511 -0.7525498 0.64672655
vn 0.1241511 0.7525498 0.64672655
vn 0.39972925 0.78551227 0.47242674
vn 0.3997292 -0.78551227 0.47242674
vn -0.6294997 -0.6294997 0.45547804
vn -0 -0.2765998 0.9609852
vn -0 -0.8751047 0.48393357
vn -0.21259812 -0.21259803 0.95373166
vn -0.6294997 0.6294997 0.45547804
vn -0 0.27659985 0.9609852
vn -0.21259812 0.21259803 0.95373166
vn -0 0.8751047 0.48393357
vn -0 -0.9996947 -0.024711013
vn -0.4813731 -0.48137295 0.7325025
vn -0 -0.72436476 0.68941694
vn -0.7069279 -0.7069277 -0.022496644
vn -0.39571252 -0.39571235 -0.8287481
vn -0 -0.4928492 -0.8701148
vn -0.1747162 0.6647424 -0.72635514
vn -0 -0.69937825 -0.7147517
vn -0 0.69937825 -0.7147517
vn -0.1747162 -0.6647424 -0.72635514
vn -0.5181449 -0.64488804 -0.5618232
vn -0.51814485 0.64488804 -0.56182325
vn -0.1747162 0.6647424 -0.72635514
vn -0 0.69937825 -0.7147517
vn -0 0.7067034 0.7075099
vn 0.1241511 0.7525498 0.64672655
vn -0.51814485 0.64488804 -0.56182325
vn 0.39972925 0.78551227 0.47242674
vn -0.73145854 0.6537307 -0.19391878
vn 0.609262 0.77554035 0.16533917
vn -0.72290844 0.68806607 0.06299584
vn 0.6850981 0.7254035 -0.06656145
vn -0.43619353 0.31519303 -0.8428455
vn 0.16294819 0.29269093 -0.9422207
vn 0.3997292 -0.78551227 0.47242674
vn 0.609262 0.77554035 0.16533917
vn 0.39972925 0.78551227 0.47242674
vn 0.609262 -0.77554035 0.16533925
vn 0.6850981 0.7254035 -0.06656145
vn 0.68509805 -0.7254035 -0.06656139
vn 0.16294819 0.29269093 -0.9422207
vn 0.16294836 -0.29269093 -0.9422207
vn -0.51814485 0.64488804 -0.56182325
vn -0.73145854 -0.6537307 -0.19391873
vn -0.5181449 -0.64488804 -0.5618232
vn -0.73145854 0.6537307 -0.19391878
vn -0.72290844 -0.68806607 0.06299591
vn -0.72290844 0.68806607 0.06299584
vn -0.4361934 -0.3151931 -0.8428456
vn -0.43619353 0.31519303 -0.8428455
vn 0.47879076 0.58965045 -0.6504396
vn 0.66225153 0.5716568 0.48438776
vn -0.46927634 0.5739737 0.67106915
vn -0.67062813 0.57490265 -0.4687696
vn -0.46927637 -0.57397366 0.6710692
vn -0.46927634 0.5739737 0.67106915
vn 0.66225153 0.5716568 0.48438776
vn 0.6622515 -0.57165676 0.48438776
vn -0.6706281 -0.57490265 -0.46876967
vn -0.46927637 -0.57397366 0.6710692
vn 0.6622515 -0.57165676 0.48438776
vn 0.47879085 -0.5896504 -0.6504395
vn 0.47879085 -0.5896504 -0.6504395
vn 0.6622515 -0.57165676 0.48438776
vn 0.66225153 0.5716568 0.48438776
vn 0.47879076 0.58965045 -0.6504396
vn -0.67062813 0.57490265 -0.4687696
vn -0.46927634 0.5739737 0.67106915
vn -0.46927637 -0.57397366 0.6710692
vn -0.6706281 -0.57490265 -0.46876967
vn -0 -0.9238795 0.3826833
vn -0.110050224 -0.11005023 0.98781466
vn -0.5788857 -0.57888573 0.57426715
vn -0 -0.38268355 0.9238795
vn -0.20470376 -0.2047035 0.9571797
vn -0 -0.26676786 0.96376085
vn -0.4813731 -0.48137295 0.7325025
vn -0 -0.72436476 0.68941694
vn -0.4813731 0.4813731 0.7325025
vn -0.20470376 0.2047036 0.9571796
vn -0 0.7243649 0.68941677
vn -0 0.266768 0.96376073
vn -0.110050224 0.11005023 0.98781466
vn -0 0.38268355 0.9238795
vn -0.5788857 0.57888573 0.57426715
vn -0 0.9238795 0.3826833
vn -0.5788857 -0.57888573 0.57426715
vn -0.110050224 -0.11005023 0.98781466
vn -0.110050224 0.11005023 0.98781466
vn -0.5788857 0.57888573 0.57426715
vn -0.6294997 -0.6294997 0.45547804
vn -0.6294997 0.6294997 0.45547804
vn -0.39571252 0.39571235 -0.8287481
vn -0.7069279 -0.7069277 -0.022496644
vn -0.39571252 -0.39571235 -0.8287481
vn -0.7069279 0.7069278 -0.022496644
vn -0.4813731 0.4813731 0.7325025
vn -0.4813731 -0.48137295 0.7325025
vn -0.39571252 0.39571235 -0.8287481
vn -0.39571252 -0.39571235 -0.8287481
vn -0 -0.4928492 -0.8701148
vn -0 0.49284923 -0.8701147
vn 0.5788857 -0.5788857 0.57426715
vn -0 -0.9238795 0.3826833
vn -0 -0.8751047 0.48393357
vn 0.6294997 -0.6294997 0.45547804
vn -0 0.9238795 0.3826833
vn 0.5788857 0.57888573 0.57426715
vn 0.6294997 0.6294997 0.45547804
vn -0 0.8751047 0.48393357
vn 0.70692784 0.7069278 -0.022496406
vn 0.4813731 0.4813731 0.7325025
vn -0 0.7243649 0.68941677
vn -0 0.9996947 -0.024710828
vn -0 0.49284923 -0.8701147
vn 0.3957126 0.39571255 -0.8287479
vn -0 -0.69937825 -0.7147517
vn -0 -0.7067034 0.7075099
vn -0.1241511 -0.7525498 0.64672655
vn 0.1747162 -0.6647424 -0.72635514
vn -0.3997292 -0.78551227 0.47242674
vn 0.5181449 -0.64488804 -0.5618232
vn -0.609262 -0.77554035 0.16533926
vn 0.73145854 -0.6537307 -0.19391873
vn -0.68509805 -0.72540355 -0.066561386
vn 0.7229084 -0.68806607 0.062995896
vn -0.16294788 -0.29269096 -0.9422207
vn 0.43619353 -0.315193 -0.8428455
vn -0 0.7067034 0.7075099
vn -0.1241511 -0.7525498 0.64672655
vn -0 -0.7067034 0.7075099
vn -0.1241511 0.7525498 0.64672655
vn -0.39972925 0.78551227 0.47242674
vn -0.3997292 -0.78551227 0.47242674
vn 0.6294997 -0.6294997 0.45547804
vn -0 -0.8751047 0.48393357
vn -0 -0.2765998 0.9609852
vn 0.21259807 -0.21259801 0.95373166
vn 0.6294997 0.6294997 0.45547804
vn -0 0.27659985 0.9609852
vn 0.21259807 0.21259809 0.95373166
vn -0 0.8751047 0.48393357
vn -0 -0.9996947 -0.024711013
vn -0 -0.72436476 0.68941694
vn 0.4813731 -0.4813731 0.7325025
vn 0.7069279 -0.7069278 -0.022496669
vn 0.39571252 -0.39571235 -0.8287481
vn -0 -0.4928492 -0.8701148
vn 0.1747162 0.6647424 -0.72635514
vn -0 0.69937825 -0.7147517
vn -0 -0.69937825 -0.7147517
vn 0.1747162 -0.6647424 -0.72635514
vn 0.5181449 -0.64488804 -0.5618232
vn 0.51814485 0.64488804 -0.56182325
vn 0.1747162 0.6647424 -0.72635514
vn -0 0.7067034 0.7075099
vn -0 0.69937825 -0.7147517
vn -0.1241511 0.7525498 0.64672655
vn 0.51814485 0.64488804 -0.56182325
vn -0.39972925 0.78551227 0.47242674
vn 0.73145854 0.6537307 -0.19391878
vn -0.609262 0.77554035 0.16533916
vn 0.72290844 0.68806607 0.06299585
vn -0.6850981 0.7254035 -0.066561446
vn 0.43619376 0.31519297 -0.84284544
vn -0.16294767 0.292691 -0.9422207
vn -0.3997292 -0.78551227 0.47242674
vn -0.39972925 0.78551227 0.47242674
vn -0.609262 0.77554035 0.16533916
vn -0.609262 -0.77554035 0.16533926
vn -0.6850981 0.7254035 -0.066561446
vn -0.68509805 -0.72540355 -0.066561386
vn -0.16294767 0.292691 -0.9422207
vn -0.16294788 -0.29269096 -0.9422207
vn 0.51814485 0.64488804 -0.56182325
vn 0.5181449 -0.64488804 -0.5618232
vn 0.73145854 -0.6537307 -0.19391873
vn 0.73145854 0.6537307 -0.19391878
vn 0.7229084 -0.68806607 0.062995896
vn 0.72290844 0.68806607 0.06299585
vn 0.43619353 -0.315193 -0.8428455
vn 0.43619376 0.31519297 -0.84284544
vn -0.47879052 0.5896506 -0.65043974
vn 0.6706282 0.57490253 -0.46876955
vn 0.46927625 0.5739737 0.67106915
vn -0.66225153 0.5716568 0.48438776
vn 0.46927634 -0.5739738 0.67106926
vn -0.6622515 -0.57165676 0.48438776
vn -0.66225153 0.5716568 0.48438776
vn 0.46927625 0.5739737 0.67106915
vn 0.67062813 -0.57490265 -0.4687696
vn -0.4787906 -0.5896506 -0.6504397
vn -0.6622515 -0.57165676 0.48438776
vn 0.46927634 -0.5739738 0.67106926
vn -0.4787906 -0.5896506 -0.6504397
vn -0.47879052 0.5896506 -0.65043974
vn -0.66225153 0.5716568 0.48438776
vn -0.6622515 -0.57165676 0.48438776
vn 0.6706282 0.57490253 -0.46876955
vn 0.67062813 -0.57490265 -0.4687696
vn 0.46927634 -0.5739738 0.67106926
vn 0.46927625 0.5739737 0.67106915
vn -0 -0.9238795 0.3826833
vn 0.5788857 -0.5788857 0.57426715
vn 0.11005025 -0.110050224 0.98781466
vn -0 -0.38268355 0.9238795
vn 0.20470373 -0.20470357 0.9571796
vn -0 -0.26676786 0.96376085
vn 0.4813731 -0.4813731 0.7325025
vn -0 -0.72436476 0.68941694
vn 0.4813731 0.4813731 0.7325025
vn 0.20470373 0.2047036 0.9571796
vn -0 0.7243649 0.68941677
vn -0 0.266768 0.96376073
vn 0.11005025 0.11005023 0.98781466
vn -0 0.38268355 0.9238795
vn 0.5788857 0.57888573 0.57426715
vn -0 0.9238795 0.3826833
vn 0.5788857 -0.5788857 0.57426715
vn 0.11005025 0.11005023 0.98781466
vn 0.11005025 -0.110050224 0.98781466
vn 0.5788857 0.57888573 0.57426715
vn 0.6294997 -0.6294997 0.45547804
vn 0.6294997 0.6294997 0.45547804
vn 0.3957126 0.39571255 -0.8287479
vn 0.39571252 -0.39571235 -0.8287481
vn 0.7069279 -0.7069278 -0.022496669
vn 0.70692784 0.7069278 -0.022496406
vn 0.4813731 0.4813731 0.7325025
vn 0.4813731 -0.4813731 0.7325025
vn 0.3957126 0.39571255 -0.8287479
vn -0 0.49284923 -0.8701147
vn -0 -0.4928492 -0.8701148
vn 0.39571252 -0.39571235 -0.8287481
vn 0.43619376 0.31519297 -0.84284544
vn 0.43619353 -0.315193 -0.8428455
vn 0.67062813 -0.57490265 -0.4687696
vn 0.6706282 0.57490253 -0.46876955
vn -0.4787906 -0.5896506 -0.6504397
vn -0.16294767 0.292691 -0.9422207
vn -0.16294788 -0.29269096 -0.9422207
vn -0.47879052 0.5896506 -0.65043974
vn -0.43619353 0.31519303 -0.8428455
vn -0.67062813 0.57490265 -0.4687696
vn -0.6706281 -0.57490265 -0.46876967
vn -0.4361934 -0.3151931 -0.8428456
vn 0.16294819 0.29269093 -0.9422207
vn 0.47879085 -0.5896504 -0.6504395
vn 0.47879076 0.58965045 -0.6504396
vn 0.16294836 -0.29269093 -0.9422207
g MagnetShrine_0
f 3/3/3 2/2/2 1/1/1
f 4/4/4 3/3/3 1/1/1
f 7/7/7 6/6/6 5/5/5
f 8/8/8 7/7/7 5/5/5
f 11/11/11 10/10/10 9/9/9
f 10/10/10 12/12/12 9/9/9
f 9/9/9 12/12/12 13/13/13
f 14/14/14 9/9/9 13/13/13
f 17/17/17 16/16/16 15/15/15
f 16/16/16 18/18/18 15/15/15
f 16/16/16 19/19/19 18/18/18
f 19/19/19 20/20/20 18/18/18
f 19/19/19 21/21/21 20/20/20
f 21/21/21 22/22/22 20/20/20
f 21/21/21 23/23/23 22/22/22
f 23/23/23 24/24/24 22/22/22
f 23/23/23 25/25/25 24/24/24
f 25/25/25 26/26/26 24/24/24
f 29/29/29 28/28/28 27/27/27
f 30/30/30 29/29/29 27/27/27
f 30/30/30 31/31/31 29/29/29
f 31/31/31 32/32/32 29/29/29
f 35/35/35 34/34/34 33/33/33
f 34/34/34 36/36/36 33/33/33
f 33/33/33 36/36/36 37/37/37
f 36/36/36 34/34/34 38/38/38
f 36/36/36 39/39/39 37/37/37
f 39/39/39 36/36/36 38/38/38
f 37/37/37 39/39/39 40/40/40
f 39/39/39 38/38/38 40/40/40
f 43/43/43 42/42/42 41/41/41
f 42/42/42 44/44/44 41/41/41
f 41/41/41 44/44/44 45/45/45
f 46/46/46 41/41/41 45/45/45
f 49/49/49 48/48/48 47/47/47
f 48/48/48 50/50/50 47/47/47
f 50/50/50 51/51/51 47/47/47
f 51/51/51 52/52/52 47/47/47
f 55/55/55 54/54/54 53/53/53
f 56/56/56 55/55/55 53/53/53
f 53/53/53 57/57/57 56/56/56
f 57/57/57 58/58/58 56/56/56
f 57/57/57 59/59/59 58/58/58
f 59/59/59 60/60/60 58/58/58
f 59/59/59 61/61/61 60/60/60
f 61/61/61 62/62/62 60/60/60
f 61/61/61 63/63/63 62/62/62
f 63/63/63 64/64/64 62/62/62
f 67/67/67 66/66/66 65/65/65
f 66/66/66 68/68/68 65/65/65
f 66/66/66 69/69/69 68/68/68
f 69/69/69 70/70/70 68/68/68
f 69/69/69 71/71/71 70/70/70
f 71/71/71 72/72/72 70/70/70
f 75/75/75 74/74/74 73/73/73
f 74/74/74 76/76/76 73/73/73
f 74/74/74 77/77/77 76/76/76
f 77/77/77 78/78/78 76/76/76
f 77/77/77 79/79/79 78/78/78
f 79/79/79 80/80/80 78/78/78
f 83/83/83 82/82/82 81/81/81
f 84/84/84 83/83/83 81/81/81
f 87/87/87 86/86/86 85/85/85
f 88/88/88 87/87/87 85/85/85
f 91/91/91 90/90/90 89/89/89
f 92/92/92 91/91/91 89/89/89
f 95/95/95 94/94/94 93/93/93
f 96/96/96 95/95/95 93/93/93
f 99/99/99 98/98/98 97/97/97
f 100/100/100 99/99/99 97/97/97
f 103/103/103 102/102/102 101/101/101
f 102/102/102 104/104/104 101/101/101
f 104/104/104 102/102/102 105/105/105
f 106/106/106 104/104/104 105/105/105
f 105/105/105 107/107/107 106/106/106
f 107/107/107 108/108/108 106/106/106
f 109/109/109 107/107/107 105/105/105
f 105/105/105 102/102/102 110/110/110
f 110/110/110 109/109/109 105/105/105
f 111/111/111 109/109/109 110/110/110
f 112/112/112 111/111/111 110/110/110
f 102/102/102 113/113/113 110/110/110
f 110/110/110 113/113/113 112/112/112
f 113/113/113 114/114/114 112/112/112
f 114/114/114 113/113/113 115/115/115
f 116/116/116 114/114/114 115/115/115
f 119/119/119 118/118/118 117/117/117
f 120/120/120 119/119/119 117/117/117
f 117/117/117 121/121/121 120/120/120
f 121/121/121 122/122/122 120/120/120
f 125/125/125 124/124/124 123/123/123
f 124/124/124 126/126/126 123/123/123
f 127/127/127 126/126/126 124/124/124
f 128/128/128 127/127/127 124/124/124
f 131/131/131 130/130/130 129/129/129
f 132/132/132 131/131/131 129/129/129
f 135/135/135 134/134/134 133/133/133
f 136/136/136 135/135/135 133/133/133
f 139/139/139 138/138/138 137/137/137
f 140/140/140 139/139/139 137/137/137
f 143/143/143 142/142/142 141/141/141
f 144/144/144 143/143/143 141/141/141
f 144/144/144 141/141/141 145/145/145
f 141/141/141 146/146/146 145/145/145
f 149/149/149 148/148/148 147/147/147
f 150/150/150 149/149/149 147/147/147
f 151/151/151 149/149/149 150/150/150
f 152/152/152 151/151/151 150/150/150
f 153/153/153 151/151/151 152/152/152
f 154/154/154 153/153/153 152/152/152
f 155/155/155 153/153/153 154/154/154
f 156/156/156 155/155/155 154/154/154
f 157/157/157 155/155/155 156/156/156
f 158/158/158 157/157/157 156/156/156
f 161/161/161 160/160/160 159/159/159
f 160/160/160 162/162/162 159/159/159
f 163/163/163 162/162/162 160/160/160
f 164/164/164 163/163/163 160/160/160
f 167/167/167 166/166/166 165/165/165
f 168/168/168 167/167/167 165/165/165
f 168/168/168 165/165/165 169/169/169
f 167/167/167 168/168/168 170/170/170
f 171/171/171 168/168/168 169/169/169
f 168/168/168 171/171/171 170/170/170
f 171/171/171 169/169/169 172/172/172
f 170/170/170 171/171/171 172/172/172
f 175/175/175 174/174/174 173/173/173
f 176/176/176 175/175/175 173/173/173
f 176/176/176 173/173/173 177/177/177
f 173/173/173 178/178/178 177/177/177
f 181/181/181 180/180/180 179/179/179
f 182/182/182 181/181/181 179/179/179
f 183/183/183 182/182/182 179/179/179
f 184/184/184 183/183/183 179/179/179
f 187/187/187 186/186/186 185/185/185
f 186/186/186 188/188/188 185/185/185
f 189/189/189 185/185/185 188/188/188
f 190/190/190 189/189/189 188/188/188
f 191/191/191 189/189/189 190/190/190
f 192/192/192 191/191/191 190/190/190
f 193/193/193 191/191/191 192/192/192
f 194/194/194 193/193/193 192/192/192
f 195/195/195 193/193/193 194/194/194
f 196/196/196 195/195/195 194/194/194
f 199/199/199 198/198/198 197/197/197
f 200/200/200 199/199/199 197/197/197
f 201/201/201 199/199/199 200/200/200
f 202/202/202 201/201/201 200/200/200
f 203/203/203 201/201/201 202/202/202
f 204/204/204 203/203/203 202/202/202
f 207/207/207 206/206/206 205/205/205
f 208/208/208 207/207/207 205/205/205
f 209/209/209 207/207/207 208/208/208
f 210/210/210 209/209/209 208/208/208
f 211/211/211 209/209/209 210/210/210
f 212/212/212 211/211/211 210/210/210
f 215/215/215 214/214/214 213/213/213
f 216/216/216 215/215/215 213/213/213
f 219/219/219 218/218/218 217/217/217
f 220/220/220 219/219/219 217/217/217
f 223/223/223 222/222/222 221/221/221
f 224/224/224 223/223/223 221/221/221
f 227/227/227 226/226/226 225/225/225
f 228/228/228 227/227/227 225/225/225
f 231/231/231 230/230/230 229/229/229
f 232/232/232 231/231/231 229/229/229
f 235/235/235 234/234/234 233/233/233
f 236/236/236 235/235/235 233/233/233
f 235/235/235 236/236/236 237/237/237
f 236/236/236 238/238/238 237/237/237
f 239/239/239 237/237/237 238/238/238
f 240/240/240 239/239/239 238/238/238
f 239/239/239 241/241/241 237/237/237
f 235/235/235 237/237/237 242/242/242
f 241/241/241 242/242/242 237/237/237
f 241/241/241 243/243/243 242/242/242
f 243/243/243 244/244/244 242/242/242
f 245/245/245 235/235/235 242/242/242
f 245/245/245 242/242/242 244/244/244
f 246/246/246 245/245/245 244/244/244
f 245/245/245 246/246/246 247/247/247
f 246/246/246 248/248/248 247/247/247
f 251/251/251 250/250/250 249/249/249
f 250/250/250 252/252/252 249/249/249
f 253/253/253 249/249/249 252/252/252
f 254/254/254 253/253/253 252/252/252
f 257/257/257 256/256/256 255/255/255
f 258/258/258 257/257/257 255/255/255
f 258/258/258 259/259/259 257/257/257
f 259/259/259 260/260/260 257/257/257
f 263/263/263 262/262/262 261/261/261
f 264/264/264 263/263/263 261/261/261
f 267/267/267 266/266/266 265/265/265
f 268/268/268 267/267/267 265/265/265
f 267/267/267 269/269/269 266/266/266
f 268/268/268 265/265/265 270/270/270
f 269/269/269 271/271/271 266/266/266
f 272/272/272 268/268/268 270/270/270
f 272/272/272 270/270/270 271/271/271
f 269/269/269 272/272/272 271/271/271
f 275/275/275 274/274/274 273/273/273
f 276/276/276 275/275/275 273/273/273
f 273/273/273 274/274/274 277/277/277
f 278/278/278 275/275/275 276/276/276
f 274/274/274 279/279/279 277/277/277
f 280/280/280 278/278/278 276/276/276
f 277/277/277 279/279/279 280/280/280
f 279/279/279 278/278/278 280/280/280
