g pb_Mesh115176(Clone)
v -0 0 -0.25
v -0 2 -0.25
v 0.125 0 -0.033493638
v 0.125 2 -0.033493638
v 0.125 0 -0.033493638
v 0.125 2 -0.033493638
v 0.375 0 -0.033493653
v 0.375 2 -0.033493653
v 0.375 0 -0.033493653
v 0.375 2 -0.033493653
v 0.5 0 -0.25000003
v 0.5 2 -0.25000003
v 0.5 0 -0.25000003
v 0.5 2 -0.25000003
v 0.37499997 0 -0.46650636
v 0.37499997 2 -0.46650636
v 0.37499997 0 -0.46650636
v 0.37499997 2 -0.46650636
v 0.12500003 0 -0.46650636
v 0.12500003 2 -0.46650636
v 0.12500003 0 -0.46650636
v 0.12500003 2 -0.46650636
v -0 0 -0.25
v -0 2 -0.25
v 0.125 0 -0.033493638
v 0.25 0 -0.25
v -0 0 -0.25
v 0.375 0 -0.033493653
v 0.5 0 -0.25000003
v 0.37499997 0 -0.46650636
v 0.12500003 0 -0.46650636
v -0 2 -0.25
v 0.25 2 -0.25
v 0.125 2 -0.033493638
v 0.375 2 -0.033493653
v 0.5 2 -0.25000003
v 0.37499997 2 -0.46650636
v 0.12500003 2 -0.46650636
vt -0.21650636 0
vt -0.21650636 2
vt 0.033493657 0
vt 0.033493657 2
vt 0.125 0
vt 0.125 2
vt 0.375 0
vt 0.375 2
vt 0.21650635 0
vt 0.21650635 2
vt 0.46650636 0
vt 0.46650636 2
vt -0.0334937 0
vt -0.0334937 2
vt 0.2165063 0
vt 0.2165063 2
vt -0.37499997 0
vt -0.37499997 2
vt -0.12500003 0
vt -0.12500003 2
vt -0.4665064 0
vt -0.4665064 2
vt -0.21650635 0
vt -0.21650635 2
vt 0.125 -0.033493638
vt 0.25 -0.25
vt -0 -0.25
vt 0.375 -0.033493653
vt 0.5 -0.25000003
vt 0.37499997 -0.46650636
vt 0.12500003 -0.46650636
vt 0 -0.25
vt -0.25 -0.25
vt -0.125 -0.033493638
vt -0.375 -0.033493653
vt -0.5 -0.25000003
vt -0.37499997 -0.46650636
vt -0.12500003 -0.46650636
vn -1 0 -6.8825514E-08
vn -1 0 -6.8825514E-08
vn -0.5 0 0.86602545
vn -0.5 0 0.86602545
vn -0.5 0 0.86602545
vn -0.5 0 0.86602545
vn 0.50000006 0 0.8660254
vn 0.50000006 0 0.8660254
vn 0.50000006 0 0.8660254
vn 0.50000006 0 0.8660254
vn 1 0 -8.6031896E-08
vn 1 0 -8.6031896E-08
vn 1 0 -8.6031896E-08
vn 1 0 -8.6031896E-08
vn 0.49999994 0 -0.86602545
vn 0.49999994 0 -0.86602545
vn 0.49999994 0 -0.86602545
vn 0.49999994 0 -0.86602545
vn -0.49999997 0 -0.86602545
vn -0.49999997 0 -0.86602545
vn -0.49999997 0 -0.86602545
vn -0.49999997 0 -0.86602545
vn -1 0 -6.8825514E-08
vn -1 0 -6.8825514E-08
vn -0 -1 0
vn -0 -1 0
vn -0 -1 0
vn -0 -1 0
vn -0 -1 0
vn -0 -1 0
vn -0 -1 0
vn -0 1 0
vn -0 1 0
vn -0 1 0
vn -0 1 0
vn -0 1 0
vn -0 1 0
vn -0 1 0
g pb_Mesh115176(Clone)_0
f 3/3/3 2/2/2 1/1/1
f 3/3/3 4/4/4 2/2/2
f 7/7/7 6/6/6 5/5/5
f 7/7/7 8/8/8 6/6/6
f 11/11/11 10/10/10 9/9/9
f 11/11/11 12/12/12 10/10/10
f 15/15/15 14/14/14 13/13/13
f 15/15/15 16/16/16 14/14/14
f 19/19/19 18/18/18 17/17/17
f 19/19/19 20/20/20 18/18/18
f 23/23/23 22/22/22 21/21/21
f 23/23/23 24/24/24 22/22/22
f 27/27/27 26/26/26 25/25/25
f 25/25/25 26/26/26 28/28/28
f 28/28/28 26/26/26 29/29/29
f 29/29/29 26/26/26 30/30/30
f 30/30/30 26/26/26 31/31/31
f 31/31/31 26/26/26 27/27/27
f 34/34/34 33/33/33 32/32/32
f 35/35/35 33/33/33 34/34/34
f 36/36/36 33/33/33 35/35/35
f 37/37/37 33/33/33 36/36/36
f 38/38/38 33/33/33 37/37/37
f 32/32/32 33/33/33 38/38/38
