g PoisonSpike
v 0.0034114923 1.3901473 -0.38904455
v 1.0822887 1.076094 -0.20750007
v 0.5426634 0.53577125 0.9656778
v 0.01362147 0.64759195 0.97029
v -1.1758026 1.1765721 -0.3018321
v 0.29205787 0.26236033 2.170982
v -0.43228135 0.4524997 0.92791283
v 0.025116596 0.23700163 2.1490216
v 0.00034427084 0.008068588 3.4901083
v -0.21920137 0.23970088 2.1607053
v -0.011690715 0.013295282 3.4910972
v -0.029157262 0.013509626 3.4915724
v 1.2853826 -0.002695389 -0.28729144
v 1.1360619 -1.1353335 -0.258055
v 0.51339614 -0.49317616 0.9523835
v 0.6071683 0.006640598 0.9582839
v 1.0822887 1.076094 -0.20750007
v 0.26107508 -0.24064837 2.1569083
v 0.5426634 0.53577125 0.9656778
v 0.28634092 -0.004660107 2.1538332
v 0.0031277454 -0.01877435 3.4908586
v 0.29205787 0.26236033 2.170982
v 0.0098807365 -0.003958717 3.4921002
v 0.00034427084 0.008068588 3.4901083
v -1.4513516 -0.0026954096 -0.4431368
v -1.1758026 1.1765721 -0.3018321
v -0.43228135 0.4524997 0.92791283
v -0.5058773 0.0066405963 0.9397529
v -1.1040633 -1.1101224 -0.23438585
v -0.21920137 0.23970088 2.1607053
v -0.4879021 -0.49492782 0.953178
v -0.15832573 -0.0046600834 2.1343675
v -0.029157262 0.013509626 3.4915724
v -0.2001667 -0.22995614 2.152059
v -0.032435402 -0.003958717 3.4919071
v -0.026240736 -0.018505448 3.4907863
v 0.0034114923 -1.217624 -0.22838941
v -1.1040633 -1.1101224 -0.23438585
v -0.4879021 -0.49492782 0.953178
v 0.013621505 -0.53213763 0.9447568
v 1.1360619 -1.1353335 -0.258055
v -0.2001667 -0.22995614 2.152059
v 0.51339614 -0.49317616 0.9523835
v 0.025116596 -0.31702882 2.1666915
v -0.026240736 -0.018505448 3.4907863
v 0.26107508 -0.24064837 2.1569083
v -0.011690715 -0.022814393 3.4914715
v 0.0031277454 -0.01877435 3.4908586
v 0.0034114923 1.3901473 -0.38904455
v 1.2853826 -0.002695389 -0.28729144
v 1.0822887 1.076094 -0.20750007
v 0.0034114923 -0.002695389 -0.35077095
v -1.1758026 1.1765721 -0.3018321
v 1.1360619 -1.1353335 -0.258055
v -1.4513516 -0.0026954096 -0.4431368
v 0.0034114923 -1.217624 -0.22838941
v -1.1040633 -1.1101224 -0.23438585
v -0.011690715 0.013295282 3.4910972
v -0.032435402 -0.003958717 3.4919071
v -0.029157262 0.013509626 3.4915724
v -0.011690715 -0.003958717 3.4912863
v 0.00034427084 0.008068588 3.4901083
v -0.026240736 -0.018505448 3.4907863
v 0.0098807365 -0.003958717 3.4921002
v -0.011690715 -0.022814393 3.4914715
v 0.0031277454 -0.01877435 3.4908586
vt 0.4848971 0.48712516
vt 0.6243298 0.4900016
vt 0.6016038 0.32598948
vt 0.536658 0.3128958
vt 0.3454812 0.4320811
vt 0.6135956 0.17785625
vt 0.48205835 0.2958532
vt 0.5804847 0.17075887
vt 0.6243298 0.016885335
vt 0.55110544 0.1618247
vt 0.6228665 0.016594209
vt 0.62075377 0.015995154
vt 0.45337304 0.5263968
vt 0.31718218 0.5707562
vt 0.43983704 0.7043888
vt 0.50038534 0.68581843
vt 0.588882 0.50852513
vt 0.51241904 0.83599687
vt 0.5655678 0.6723248
vt 0.54093266 0.8272963
vt 0.58561593 0.9827745
vt 0.57402974 0.8205261
vt 0.587421 0.9821928
vt 0.588882 0.98195016
vt 0.15805161 0.03604226
vt 0.022147048 0.0970017
vt 0.15876372 0.2304143
vt 0.21261254 0.21543442
vt 0.30375236 0.03322057
vt 0.22703536 0.3660078
vt 0.27436212 0.20135427
vt 0.25666064 0.35693306
vt 0.29984358 0.51140666
vt 0.2841955 0.3505334
vt 0.30194452 0.5107947
vt 0.30375236 0.51037437
vt 0.79796934 0.4671151
vt 0.9341298 0.49914157
vt 0.90413094 0.32886565
vt 0.8422558 0.3151651
vt 0.65990674 0.4314412
vt 0.9102967 0.18019253
vt 0.7820262 0.2970814
vt 0.8822344 0.17452997
vt 0.9341298 0.021848023
vt 0.854076 0.16539244
vt 0.93232507 0.021463867
vt 0.9305476 0.020916719
vt 0.64022046 0.7564042
vt 0.8003175 0.589028
vt 0.66725564 0.6247773
vt 0.8157717 0.74046004
vt 0.68189055 0.892563
vt 0.94489413 0.5936737
vt 0.833231 0.9124033
vt 0.9692402 0.72611284
vt 0.9692402 0.85790735
vt 0.07874511 0.54791766
vt 0.08158679 0.5461417
vt 0.079348534 0.54592544
vt 0.08083914 0.5484993
vt 0.078944795 0.5494622
vt 0.08312753 0.54733694
vt 0.08006365 0.55094963
vt 0.08312753 0.5491349
vt 0.08210298 0.5506829
vn 0.031562716 0.8763695 -0.480604
vn 0.70903414 0.63487 -0.30693746
vn 0.64405787 0.6078777 0.4644076
vn -0.0479011 0.9139717 0.4029407
vn -0.6870625 0.66565657 -0.2912841
vn 0.67221105 0.6734137 0.30764642
vn -0.6636557 0.5587259 0.4973796
vn -0.06044116 0.97268987 0.22410075
vn 0.382401 0.47440284 0.7929132
vn -0.76133686 0.59222275 0.26389116
vn -0.006970448 0.70258373 0.7115669
vn -0.5311182 0.4328311 0.72840285
vn 0.8834543 -0.023077866 -0.46794853
vn 0.6386995 -0.6952617 -0.32965773
vn 0.6139703 -0.63801193 0.4647379
vn 0.92884773 -0.022441177 0.36978143
vn 0.70903414 0.63487 -0.30693746
vn 0.71318275 -0.6509976 0.25994727
vn 0.64405787 0.6078777 0.4644076
vn 0.9727797 -0.05330508 0.2255179
vn 0.52744526 -0.45692194 0.7162569
vn 0.67221105 0.6734137 0.30764642
vn 0.75282764 -0.037499182 0.65714866
vn 0.382401 0.47440284 0.7929132
vn -0.87656325 -0.0371012 -0.47985443
vn -0.6870625 0.66565657 -0.2912841
vn -0.6636557 0.5587259 0.4973796
vn -0.9135807 0.01835299 0.4062431
vn -0.6184358 -0.7290307 -0.29334518
vn -0.76133686 0.59222275 0.26389116
vn -0.6302321 -0.5951115 0.49864793
vn -0.9850878 -0.0018840925 0.17204192
vn -0.5311182 0.4328311 0.72840285
vn -0.79725283 -0.54979426 0.24922729
vn -0.72462 -0.03181719 0.68841386
vn -0.6053054 -0.35032818 0.7147557
vn 0.019336984 -0.90203655 -0.43122628
vn -0.6184358 -0.7290307 -0.29334518
vn -0.6302321 -0.5951115 0.49864793
vn -0.0053997575 -0.9317074 0.36316967
vn 0.6386995 -0.6952617 -0.32965773
vn -0.79725283 -0.54979426 0.24922729
vn 0.6139703 -0.63801193 0.4647379
vn -0.01443321 -0.9771155 0.212219
vn -0.6053054 -0.35032818 0.7147557
vn 0.71318275 -0.6509976 0.25994727
vn -0.02544407 -0.68039745 0.73240155
vn 0.52744526 -0.45692194 0.7162569
vn 0.031562716 0.8763695 -0.480604
vn 0.8834543 -0.023077866 -0.46794853
vn 0.70903414 0.63487 -0.30693746
vn 0.038603842 -0.03425412 -0.99866724
vn -0.6870625 0.66565657 -0.2912841
vn 0.6386995 -0.6952617 -0.32965773
vn -0.87656325 -0.0371012 -0.47985443
vn 0.019336984 -0.90203655 -0.43122628
vn -0.6184358 -0.7290307 -0.29334518
vn -0.006970448 0.70258373 0.7115669
vn -0.72462 -0.03181719 0.68841386
vn -0.5311182 0.4328311 0.72840285
vn 0.0097424835 0.008120456 0.99991953
vn 0.382401 0.47440284 0.7929132
vn -0.6053054 -0.35032818 0.7147557
vn 0.75282764 -0.037499182 0.65714866
vn -0.02544407 -0.68039745 0.73240155
vn 0.52744526 -0.45692194 0.7162569
g PoisonSpike_0
f 3/3/3 2/2/2 1/1/1
f 4/4/4 3/3/3 1/1/1
f 4/4/4 1/1/1 5/5/5
f 6/6/6 3/3/3 4/4/4
f 7/7/7 4/4/4 5/5/5
f 8/8/8 6/6/6 4/4/4
f 8/8/8 4/4/4 7/7/7
f 9/9/9 6/6/6 8/8/8
f 10/10/10 8/8/8 7/7/7
f 11/11/11 9/9/9 8/8/8
f 11/11/11 8/8/8 10/10/10
f 12/12/12 11/11/11 10/10/10
f 15/15/15 14/14/14 13/13/13
f 16/16/16 15/15/15 13/13/13
f 16/16/16 13/13/13 17/17/17
f 18/18/18 15/15/15 16/16/16
f 19/19/19 16/16/16 17/17/17
f 20/20/20 18/18/18 16/16/16
f 20/20/20 16/16/16 19/19/19
f 21/21/21 18/18/18 20/20/20
f 22/22/22 20/20/20 19/19/19
f 23/23/23 21/21/21 20/20/20
f 23/23/23 20/20/20 22/22/22
f 24/24/24 23/23/23 22/22/22
f 27/27/27 26/26/26 25/25/25
f 28/28/28 27/27/27 25/25/25
f 28/28/28 25/25/25 29/29/29
f 30/30/30 27/27/27 28/28/28
f 31/31/31 28/28/28 29/29/29
f 32/32/32 30/30/30 28/28/28
f 32/32/32 28/28/28 31/31/31
f 33/33/33 30/30/30 32/32/32
f 34/34/34 32/32/32 31/31/31
f 35/35/35 33/33/33 32/32/32
f 35/35/35 32/32/32 34/34/34
f 36/36/36 35/35/35 34/34/34
f 39/39/39 38/38/38 37/37/37
f 40/40/40 39/39/39 37/37/37
f 40/40/40 37/37/37 41/41/41
f 42/42/42 39/39/39 40/40/40
f 43/43/43 40/40/40 41/41/41
f 44/44/44 42/42/42 40/40/40
f 44/44/44 40/40/40 43/43/43
f 45/45/45 42/42/42 44/44/44
f 46/46/46 44/44/44 43/43/43
f 47/47/47 45/45/45 44/44/44
f 47/47/47 44/44/44 46/46/46
f 48/48/48 47/47/47 46/46/46
f 51/51/51 50/50/50 49/49/49
f 50/50/50 52/52/52 49/49/49
f 49/49/49 52/52/52 53/53/53
f 50/50/50 54/54/54 52/52/52
f 52/52/52 55/55/55 53/53/53
f 54/54/54 56/56/56 52/52/52
f 52/52/52 56/56/56 55/55/55
f 56/56/56 57/57/57 55/55/55
f 60/60/60 59/59/59 58/58/58
f 59/59/59 61/61/61 58/58/58
f 58/58/58 61/61/61 62/62/62
f 59/59/59 63/63/63 61/61/61
f 61/61/61 64/64/64 62/62/62
f 63/63/63 65/65/65 61/61/61
f 61/61/61 65/65/65 64/64/64
f 65/65/65 66/66/66 64/64/64
