g polySurface10
v -2.532351 0.5503653 -0.08195064
v -2.4028418 0.14638104 -0.05934889
v -1.994253 -0.7309582 0.078999065
v 1.2620453 0.51502335 -0.10808958
v -2.5406196 1.2317163 -0.11581947
v -1.9752628 -1.5889765 0.2175973
v -2.5874357 1.7905564 -0.1273505
v -1.7723444 -2.1672502 -0.08533455
v -2.6557388 2.2991164 -0.056440286
v 0.28558564 -2.208693 -0.12757555
v -2.3209841 2.4282217 -0.13730858
v -1.5090096 2.7501013 -0.10789491
v -3.3412892E-17 2.7456036 -0.12723681
v 2.4391837 -2.1381865 -0.1389678
v 1.5090096 2.7501013 -0.10789491
v 2.8036783 1.2284704 -0.092093
v 2.7772608 -1.876373 -0.13343056
v 2.7624443 2.147432 -0.15025692
v 1.5788308 2.7469225 1.1420475
v 0.06319697 2.7618802 1.191455
v -3.3412892E-17 2.7456036 -0.12723681
v 1.5090096 2.7501013 -0.10789491
v 1.7615868 2.1725621 2.617028
v 2.47384E-17 2.288944 2.6005094
v 2.7102911 2.4746614 0.6683908
v 2.7624443 2.147432 -0.15025692
v 1.6506474 1.1279653 3.6239405
v 1.113041E-17 1.9004399 3.501161
v -1.2697697E-19 1.8916088 4.484416
v 1.1619887 1.4443469 4.5320225
v -0 2.1799917 5.54406
v 2.5867684 1.9651693 2.1549654
v 2.8253539 1.2913996 1.5752897
v 2.8036783 1.2284704 -0.092093
v 2.5031006 0.6856385 2.9784982
v 2.7276728 0.49370167 2.435907
v 2.3369584 -0.9561793 3.0060298
v 2.788438 -1.599454 1.24251
v 2.7772608 -1.876373 -0.13343056
v 2.719674 -0.6974305 2.4395227
v 2.782062 -1.825213 0.72397375
v 2.4391837 -2.1381865 -0.1389678
v 2.4422333 -2.0595882 0.84945756
v 2.3041012 -1.9114935 1.7034858
v 1.953779 -2.1940434 0.93997204
v 0.28558564 -2.208693 -0.12757555
v 2.251512 -1.5098171 2.6213017
v 1.8358197 -2.008944 1.9021
v 2.1095307 -0.71478516 3.458227
v 0.34430748 -2.254138 0.8742395
v 1.7212034 -1.5886103 3.3027136
v 1.7075001 -1.2143872 4.326579
v 1.7731131 -0.29381573 4.172371
v 1.6389241 -0.061119456 4.823369
v 1.0082469 -1.994902 2.465461
v 1.5580525 0.6465655 4.703171
v 1.8636945 0.36812803 5.597049
v 1.762315 -0.14223208 5.3589115
v 2.1030848 -1.2506064 5.622516
v 1.7111107 -0.76488554 4.9434123
v 1.2550488 1.7864509 5.950348
v 0.08569337 -2.1164236 2.058883
v -1.335136 -2.3304949 1.0965235
v -2.0005562 -2.1944182 0.64491177
v -1.7723444 -2.1672502 -0.08533455
v -1.9752628 -1.5889765 0.2175973
v -2.102524 -2.1643908 0.93650246
v -2.3632727 -1.3789586 0.8794774
v -1.994253 -0.7309582 0.078999065
v -1.8301915 -2.13653 1.4941214
v -1.0590531 -2.067237 2.1818545
v -0.9312123 -1.8116511 3.4157293
v -3.4877978E-17 -1.893771 3.1722417
v 1.4517543E-17 -2.4251812 3.360225
v 0.9312123 -1.8116511 3.4157293
v -2.2834728 -1.9972337 1.2672216
v -2.47168 -1.6809068 1.9160578
v 1.5428054 -1.5960212 3.918095
v 1.4024115 -2.3267522 3.950464
v 0.6994656 -2.3446987 3.475658
v 1.8935502 -1.8057021 4.9659
v -2.139994 -1.9106767 1.9093089
v -1.849804 -1.9285908 2.1906362
v -1.7212034 -1.5886103 3.3027136
v -2.251512 -1.5098171 2.6213017
v 0.6659239 -2.8968337 3.6494908
v 1.2262888 -2.7283733 4.2223673
v 1.6994876 -2.3570397 4.758988
v 1.7065715 -2.1007268 5.465522
v 1.3440613 -2.6454768 4.501221
v 1.0896034 -2.6893737 5.1303816
v 1.3863531 -2.5329509 5.498085
v 1.7066569 -1.962774 5.7803993
v 0.99758875 -2.8873563 4.40605
v 0.7145404 -3.0406382 4.0832486
v 2.1556168 -1.0109774 6.243768
v 1.3267576 -2.297887 5.9090905
v 0.71068877 -2.5273728 5.990209
v 0.83961 -2.6755142 5.692768
v 1.7693439 -1.7465614 6.2088733
v 2.0888016 -0.576514 7.1156
v 2.042266 0.2490779 6.548308
v 1.9616544 1.1753212 6.9837623
v 0.47588098 -3.1003835 5.7387905
v 2.0463614 0.24218273 7.7238903
v 1.4432485 1.2789462 8.124673
v 1.5129491 0.73888314 8.422565
v 1.151652 1.9342753 7.295192
v 0.88203317 1.3772429 8.543908
v 0.699204 2.0861313 7.4529643
v 1.2341864E-17 2.1341736 7.553689
v -1.6932096E-17 1.3719777 8.848874
v 1.0964036 0.16526699 8.99193
v -2.208443E-17 0.2179363 9.259644
v 1.6422713 -0.42668116 8.464267
v -8.912521E-19 -1.2388129 8.964232
v -8.68542E-18 -2.1628482 8.308668
v 1.671562 -1.2029841 8.056175
v 1.3331596 -2.0013316 7.5017943
v 1.7811409 -1.5870028 7.0559874
v 1.6025299 -1.9809268 6.2357426
v 1.5602055 -2.0245578 6.829538
v 0.9957381 -2.2246118 6.3807325
v 1.2630303 -2.1259582 6.614419
v 0.92754227 -2.3997548 7.1623936
v 0.70350003 -2.392775 7.664037
v 0.98451364 -2.3060367 6.716251
v 0.6493261 -2.3889875 6.3613048
v 0.5255611 -2.4080591 6.5962224
v 2.819341E-18 -2.6429145 7.1406612
v -4.0800183E-18 -2.5136974 7.737649
v -0.70350003 -2.392775 7.664037
v 0.21384148 -2.7581868 6.295244
v 0.13567458 -2.640981 6.5501986
v 0.2469681 -3.3374884 5.792148
v -1.0221474E-16 -3.1493218 5.547255
v 8.082895E-18 -2.67736 6.557792
v 1.37687935E-17 -3.2476654 6.141065
v 2.2484102E-17 -3.4384108 5.8740025
v -0.2469681 -3.3374884 5.792148
v -0.21384148 -2.7581868 6.295244
v -0.71068877 -2.5273728 5.990209
v -0.13567458 -2.640981 6.5501986
v -0.5255611 -2.4080591 6.5962224
v 0.43618667 -2.9903343 5.415925
v -0.47588098 -3.1003835 5.7387905
v 0.45934492 -3.1193676 5.020163
v -0 -3.2415643 4.9873214
v 1.3001326E-16 -3.151622 4.834802
v 0.8527341 -2.9267974 4.667234
v 0.3896767 -3.0611963 4.824433
v 0.5553502 -3.0338442 4.4425206
v -0.43618667 -2.9903343 5.415925
v -1.0896034 -2.6893737 5.1303816
v -0.45934492 -3.1193676 5.020163
v -7.828302E-17 -3.1333432 4.493163
v -0.83961 -2.6755142 5.692768
v -1.3396936E-16 -3.184341 3.9613006
v -1.3863531 -2.5329509 5.498085
v -3.6804905E-17 -2.9144497 3.5254068
v -0.6659239 -2.8968337 3.6494908
v -0.7145404 -3.0406382 4.0832486
v -0.5553502 -3.0338442 4.4425206
v -0.6994656 -2.3446987 3.475658
v -1.4024115 -2.3267522 3.950464
v -1.2262888 -2.7283733 4.2223673
v -0.3896767 -3.0611963 4.824433
v -0.99758875 -2.8873563 4.40605
v -0.8527341 -2.9267974 4.667234
v -1.3440613 -2.6454768 4.501221
v -1.6994876 -2.3570397 4.758988
v -1.5428054 -1.5960212 3.918095
v -1.7075001 -1.2143872 4.326579
v -1.8935502 -1.8057021 4.9659
v -2.1030848 -1.2506064 5.622516
v -1.7065715 -2.1007268 5.465522
v -1.7066569 -1.962774 5.7803993
v -2.1095307 -0.71478516 3.458227
v -1.3267576 -2.297887 5.9090905
v -0.6493261 -2.3889875 6.3613048
v -0.9957381 -2.2246118 6.3807325
v -0.98451364 -2.3060367 6.716251
v -0.92754227 -2.3997548 7.1623936
v -1.2630303 -2.1259582 6.614419
v -1.6025299 -1.9809268 6.2357426
v -1.7693439 -1.7465614 6.2088733
v -1.3331596 -2.0013316 7.5017943
v -1.5602055 -2.0245578 6.829538
v -1.7811409 -1.5870028 7.0559874
v -2.0888016 -0.576514 7.1156
v -2.1556168 -1.0109774 6.243768
v -1.8558054 0.42360786 5.597415
v -1.671562 -1.2029841 8.056175
v -1.6422713 -0.42668116 8.464267
v -8.912521E-19 -1.2388129 8.964232
v -2.208443E-17 0.2179363 9.259644
v -2.0324147 0.34166276 6.5621867
v -1.9825476 0.40402287 7.648742
v -1.0964036 0.16526699 8.99193
v -1.6932096E-17 1.3719777 8.848874
v -1.8434471 1.2214003 6.3087687
v -0.88203317 1.3772429 8.543908
v -1.5129491 0.73888314 8.422565
v -1.9616544 1.1753212 6.9837623
v -1.3852731 1.4976264 5.507422
v -1.4432485 1.2789462 8.124673
v -0.699204 2.0861313 7.4529643
v 1.2341864E-17 2.1341736 7.553689
v -0 2.1799917 5.54406
v -1.151652 1.9342753 7.295192
v -1.2550488 1.7864509 5.950348
v -1.1619887 1.4443469 4.5320225
v -1.2697697E-19 1.8916088 4.484416
v -1.3281738 1.4390997 3.738413
v 1.113041E-17 1.9004399 3.501161
v -1.5580525 0.6465655 4.703171
v -1.6264684 1.5038987 3.2892334
v 2.47384E-17 2.288944 2.6005094
v -1.762315 -0.14223208 5.3589115
v -1.7363228 0.6223457 3.9779265
v -1.7111107 -0.76488554 4.9434123
v -1.6389241 -0.061119456 4.823369
v -1.7731131 -0.29381573 4.172371
v -1.9780798 0.6043121 3.4772253
v -1.7615868 2.1725621 2.617028
v 0.06319697 2.7618802 1.191455
v -2.3369584 -0.9561793 3.0060298
v -2.5302699 0.82724047 2.8950946
v -2.6321807 -0.7558993 2.5664601
v -2.7276728 0.49370167 2.435907
v -2.675733 -1.4336611 1.6228906
v -2.804142 -0.7569836 1.2134907
v -2.8253539 1.2913996 1.5752897
v -2.5803447 1.7113924 2.3766646
v -2.7516193 -0.40501907 0.8774939
v -2.7723675 0.61317784 0.34897703
v -2.8231683 1.417167 0.28776452
v -2.4028418 0.14638104 -0.05934889
v -2.532351 0.5503653 -0.08195064
v -2.5406196 1.2317163 -0.11581947
v -2.5874357 1.7905564 -0.1273505
v -2.6648023 2.29614 1.5546236
v -2.8108196 1.3402748 1.0741926
v -2.7188718 2.4412756 0.8200821
v -2.6557388 2.2991164 -0.056440286
v -2.3209841 2.4282217 -0.13730858
v -1.5090096 2.7501013 -0.10789491
v -1.3979852 2.7303681 1.2289804
v -3.3412892E-17 2.7456036 -0.12723681
vt 0.7234329 0.7491474
vt 0.7429241 0.75812626
vt 0.7899268 0.7732426
vt 0.8544991 0.6086953
vt 0.69773877 0.72618395
vt 0.82287556 0.8022617
vt 0.6753018 0.70887405
vt 0.85545003 0.8136791
vt 0.6535114 0.6943735
vt 0.9254849 0.73682743
vt 0.6606158 0.6771981
vt 0.67632985 0.6359222
vt 0.727962 0.5798103
vt 0.99461305 0.6529682
vt 0.7790407 0.5233843
vt 0.8797118 0.5264894
vt 0.99599975 0.631438
vt 0.8439501 0.49673036
vt 0.9003187 0.14248918
vt 0.9605221 0.18880214
vt 1 0.13115822
vt 0.9344524 0.08676657
vt 0.8421389 0.20031102
vt 0.9131939 0.25625148
vt 0.8613628 0.092808366
vt 0.8627852 0.049691185
vt 0.78452146 0.2491453
vt 0.87697446 0.29522443
vt 0.8562151 0.34218428
vt 0.79531217 0.31055328
vt 0.84361905 0.40270224
vt 0.821997 0.156853
vt 0.7951345 0.12036395
vt 0.8112388 0.0344294
vt 0.75552535 0.1894249
vt 0.74803644 0.15659823
vt 0.66638947 0.17559092
vt 0.6518692 0.0762451
vt 0.64501125 0.005044736
vt 0.687089 0.14513083
vt 0.64414704 0.04857783
vt 0.6204695 0.004161246
vt 0.6228808 0.05498603
vt 0.62265414 0.09965041
vt 0.59675163 0.061119273
vt 0.5017865 0.0125914365
vt 0.6371402 0.15014793
vt 0.59886104 0.11196509
vt 0.6757409 0.2047563
vt 0.5100343 0.064444974
vt 0.615637 0.18964276
vt 0.64318347 0.24655451
vt 0.6973514 0.25121462
vt 0.705924 0.28903246
vt 0.55878353 0.14502056
vt 0.7460194 0.2977793
vt 0.71545535 0.335019
vt 0.6948526 0.31430444
vt 0.63802385 0.31885558
vt 0.66788 0.2841387
vt 0.77834296 0.3885057
vt 0.50197154 0.12675631
vt 0.42032015 0.08217594
vt 0.38121915 0.06352912
vt 0.38702354 0.024926603
vt 0.3489192 0.040605724
vt 0.37864414 0.0785753
vt 0.33501083 0.07951343
vt 0.29829007 0.035792693
vt 0.3947531 0.10517055
vt 0.43608925 0.13840203
vt 0.43617707 0.20069695
vt 0.49993992 0.18143374
vt 0.5013582 0.20541367
vt 0.56590694 0.19278543
vt 0.36935017 0.096310705
vt 0.35644382 0.13051353
vt 0.6145779 0.22435847
vt 0.57879883 0.2329156
vt 0.5418635 0.20848791
vt 0.61662555 0.28310663
vt 0.37688276 0.1278224
vt 0.39151675 0.14197116
vt 0.386458 0.2035705
vt 0.36112675 0.1682271
vt 0.53295684 0.22974057
vt 0.5622941 0.2509081
vt 0.5908727 0.27291787
vt 0.5977324 0.30757862
vt 0.56994843 0.26261097
vt 0.56015325 0.29298273
vt 0.5744367 0.30857125
vt 0.6003091 0.32377863
vt 0.55088884 0.26077893
vt 0.53522205 0.2490135
vt 0.6423729 0.35035676
vt 0.57682806 0.33041134
vt 0.54765004 0.3379133
vt 0.55013824 0.32071638
vt 0.6058716 0.34560543
vt 0.64809895 0.3966593
vt 0.6919282 0.37978822
vt 0.7211722 0.41651145
vt 0.5277 0.32114044
vt 0.671801 0.43441445
vt 0.70756656 0.4775153
vt 0.6799038 0.48077697
vt 0.7541084 0.45744988
vt 0.70773107 0.51266843
vt 0.7674096 0.47932127
vt 0.78732365 0.5095661
vt 0.70732975 0.55758476
vt 0.6442828 0.5066799
vt 0.6319701 0.56022924
vt 0.63125587 0.46500176
vt 0.55145 0.5188797
vt 0.51330674 0.466865
vt 0.6051852 0.43848604
vt 0.5742585 0.4097386
vt 0.60417014 0.38749266
vt 0.592737 0.346754
vt 0.58546644 0.37586078
vt 0.562455 0.35600436
vt 0.57346797 0.36620408
vt 0.55193424 0.3940132
vt 0.5414972 0.4192946
vt 0.55832696 0.37233722
vt 0.54535544 0.35646394
vt 0.537925 0.36743057
vt 0.5102553 0.3949657
vt 0.51159436 0.42668596
vt 0.48115402 0.42240515
vt 0.5213741 0.35328093
vt 0.5165055 0.3659578
vt 0.5163766 0.3236718
vt 0.5065441 0.31017348
vt 0.50903285 0.3662453
vt 0.507778 0.33745414
vt 0.50725305 0.32582945
vt 0.4979851 0.3246367
vt 0.4956273 0.35464546
vt 0.4680814 0.34215155
vt 0.5015608 0.36675343
vt 0.48032373 0.37046385
vt 0.52871233 0.3066705
vt 0.48647785 0.3233341
vt 0.52664435 0.28914642
vt 0.50558 0.28903735
vt 0.50525767 0.28222653
vt 0.5449263 0.2729314
vt 0.5235739 0.28065503
vt 0.5300737 0.26465857
vt 0.48417166 0.30907783
vt 0.45161018 0.29893345
vt 0.48462293 0.29145578
vt 0.504607 0.2685084
vt 0.4640809 0.32534462
vt 0.50356525 0.24719991
vt 0.43876427 0.31590697
vt 0.502511 0.22686906
vt 0.4725925 0.2332498
vt 0.47225678 0.25260398
vt 0.4789054 0.26753926
vt 0.46155953 0.21327353
vt 0.42736354 0.24162936
vt 0.44551426 0.25753447
vt 0.48688546 0.28268963
vt 0.45782074 0.26602006
vt 0.46490058 0.27739412
vt 0.4390168 0.26994425
vt 0.41915196 0.28239378
vt 0.39094985 0.23715556
vt 0.36465505 0.26185977
vt 0.39438915 0.29515532
vt 0.37611338 0.3325854
vt 0.41541526 0.31738275
vt 0.41425872 0.33367318
vt 0.32811815 0.22432199
vt 0.43830252 0.33779657
vt 0.47197178 0.36034238
vt 0.45486405 0.36167827
vt 0.4603818 0.3774699
vt 0.46861747 0.3983486
vt 0.4447281 0.37293988
vt 0.4238044 0.3556362
vt 0.41056535 0.3558312
vt 0.44763833 0.4162443
vt 0.4335617 0.383751
vt 0.41583264 0.3971663
vt 0.3726073 0.41054344
vt 0.37440917 0.36410594
vt 0.29783702 0.3572428
vt 0.4191543 0.44791168
vt 0.39531735 0.47673297
vt 0.4795744 0.52295136
vt 0.40257847 0.57172966
vt 0.32375893 0.4002742
vt 0.34483656 0.45050913
vt 0.38588053 0.5194246
vt 0.32707983 0.5757871
vt 0.28255728 0.40998212
vt 0.3230832 0.53114367
vt 0.34825933 0.4967243
vt 0.30169487 0.43677083
vt 0.24338135 0.3842625
vt 0.32041728 0.4961101
vt 0.2606333 0.5035546
vt 0.24301969 0.53511465
vt 0.17795289 0.43341905
vt 0.27217585 0.48065123
vt 0.24230409 0.41504204
vt 0.21729079 0.33840814
vt 0.16016081 0.37514493
vt 0.20376775 0.2955232
vt 0.13385189 0.33148536
vt 0.26641387 0.320519
vt 0.19912218 0.26673114
vt 0.09631343 0.29446036
vt 0.31897727 0.33354977
vt 0.25776607 0.28170726
vt 0.3433266 0.30120373
vt 0.30555806 0.30906072
vt 0.31126887 0.27135184
vt 0.25452366 0.2526234
vt 0.16188833 0.23260838
vt 0.038933545 0.23367706
vt 0.33462954 0.1959078
vt 0.23984362 0.21381266
vt 0.31666428 0.17392007
vt 0.25262102 0.18406829
vt 0.33780798 0.1201272
vt 0.3007475 0.1070075
vt 0.20585532 0.15019982
vt 0.19410959 0.19688359
vt 0.28037223 0.09297973
vt 0.22242512 0.07983689
vt 0.18026716 0.09027445
vt 0.24352977 0.047441214
vt 0.22012118 0.05464007
vt 0.18173487 0.06345731
vt 0.15116347 0.07690135
vt 0.1591593 0.16449113
vt 0.19678652 0.1265838
vt 0.14133896 0.13373539
vt 0.12688619 0.09430805
vt 0.10661058 0.0996227
vt 0.06480247 0.12565076
vt 0.09606646 0.18837845
vt 0 0.17353083
vn -0.003319872 -0.09488317 -0.9954829
vn -0.0006324317 -0.12489411 -0.9921699
vn 0.001351312 -0.13888617 -0.99030745
vn -0.006128695 -0.002204064 -0.9999788
vn -0.004485289 -0.03457686 -0.99939203
vn -0.20128159 0.16011384 -0.9663588
vn -0.012650228 -0.012057317 -0.9998473
vn -0.15252069 0.16427915 -0.974551
vn -0.017047271 -0.008490352 -0.9998186
vn -0.014570761 0.012376536 -0.9998173
vn -0.007952276 -0.0027195027 -0.9999647
vn 0.0037001392 0.0046745436 -0.99998224
vn 0.0056801415 0.003371259 -0.9999782
vn -0.00026582487 0.011419155 -0.9999348
vn 0.0015561853 -0.009944805 -0.99994934
vn -0.002925488 -0.004087862 -0.99998736
vn 0.004483464 0.013436443 -0.99989974
vn -0.008725255 -0.017806623 -0.99980336
vn 0.12314746 0.9787967 0.16368169
vn 0.0013451083 0.9815005 0.19145516
vn -0.0030179785 0.9999943 -0.0015798464
vn 0.12566566 0.9900984 -0.06255592
vn 0.28047135 0.803152 0.525626
vn 0.014930126 0.8934791 0.44885668
vn 0.74047345 0.67207354 0.004021851
vn 0.86461633 0.4974741 -0.07041455
vn 0.5849476 0.62447333 0.5175609
vn 0.06054355 0.9202175 0.38669664
vn 0.038154382 0.9902236 -0.13416968
vn 0.5849206 0.80177355 -0.122584485
vn 0.023256658 0.98427963 -0.17507876
vn 0.727066 0.5195254 0.4488523
vn 0.997491 0.030104216 0.06407432
vn 0.9998343 0.011616516 0.014014595
vn 0.78186196 0.19094561 0.5934911
vn 0.98906964 0.009778529 0.14712463
vn 0.7921676 -0.17574438 0.58445233
vn 0.98715204 -0.13795173 0.08062233
vn 0.98956525 -0.14404301 0.0035044174
vn 0.9346777 -0.16834354 0.3131104
vn 0.9890766 -0.14596678 0.020521663
vn 0.19107951 -0.9815719 -0.0022410841
vn 0.2775855 -0.9580375 0.071486734
vn 0.65115464 -0.68691033 0.32272568
vn 0.09076584 -0.9933749 0.07048293
vn 0.023576953 -0.9978543 -0.06108076
vn 0.7238638 -0.57230186 0.38534647
vn 0.12669234 -0.97125465 0.20152761
vn 0.8367734 -0.08320356 0.5411907
vn 0.041984096 -0.9957889 0.08149759
vn 0.5995527 -0.7322725 0.3229758
vn 0.9935889 -0.097589284 -0.057073705
vn 0.9751477 0.045611788 0.21680944
vn 0.9950647 0.08961997 -0.042598106
vn 0.088311985 -0.9779269 0.18936732
vn 0.950194 0.30912948 -0.039626498
vn 0.9356356 0.2810026 -0.21359657
vn 0.94785416 0.108264 -0.2997523
vn 0.984098 -0.06146831 -0.1666513
vn 0.9759079 0.11301165 -0.18663368
vn 0.6316916 0.75944597 -0.15558791
vn 0.024596205 -0.9838177 0.17747606
vn -0.037934776 -0.9983462 0.043195017
vn -0.31595862 -0.92627096 -0.20540732
vn -0.12294115 -0.9822618 -0.14158812
vn -0.89430904 -0.18970606 -0.40524426
vn -0.677754 -0.7246184 -0.12481013
vn -0.8384932 -0.29601502 -0.4574978
vn -0.7973813 -0.30420974 -0.5211905
vn -0.2391431 -0.9404463 0.24160145
vn -0.04891512 -0.9783756 0.20096864
vn -0.2950474 -0.9526815 -0.073109776
vn 0.002183602 -0.9935818 -0.113096036
vn -0 -0.29461518 -0.95561594
vn 0.32556534 -0.9360565 -0.13343704
vn -0.79818773 -0.6020793 -0.019924372
vn -0.77981687 -0.5639734 0.27169767
vn 0.7520717 -0.6157845 -0.234942
vn 0.799331 -0.30050465 -0.5203528
vn 0.37018356 -0.33946294 -0.8647132
vn 0.9682832 -0.13836126 -0.20804778
vn -0.38621432 -0.8747305 0.29271978
vn -0.28252724 -0.9077628 0.31007245
vn -0.5880805 -0.74282694 0.3199523
vn -0.7275671 -0.55360085 0.40518185
vn 0.38526237 -0.614029 -0.68886954
vn 0.6655087 -0.64356285 -0.3780543
vn 0.88606083 -0.42973113 -0.17386001
vn 0.85449976 -0.4856634 0.18428552
vn 0.6397046 -0.7671578 -0.047401525
vn 0.5109612 -0.85092515 0.12184074
vn 0.61997783 -0.741468 0.2566177
vn 0.8427722 -0.5132975 0.16205162
vn 0.5097635 -0.8601683 -0.015867345
vn 0.32938766 -0.92513704 -0.18874645
vn 0.9937355 -0.107264 -0.03137425
vn 0.5176889 -0.77128464 0.37029484
vn 0.49968675 -0.71781844 0.4848194
vn 0.5045864 -0.80018365 0.32418928
vn 0.88275546 -0.45355374 0.12260398
vn 0.98023534 -0.13845623 0.14131021
vn 0.965988 0.21070634 -0.14990024
vn 0.87050307 0.49216288 -0.00036607403
vn 0.63706994 -0.71377695 0.2909714
vn 0.93053746 0.09328093 0.35411698
vn 0.706162 0.5777156 0.40936545
vn 0.75905704 0.28920025 0.5832629
vn 0.51940477 0.84907013 0.09642974
vn 0.32038328 0.622711 0.7138526
vn 0.26408914 0.9395315 0.21803099
vn -0 0.93520796 0.35409904
vn -0 0.59375566 0.8046454
vn 0.4341691 -0.012942692 0.90073836
vn -0 0.0052847345 0.99998605
vn 0.64959306 -0.25073338 0.7177477
vn -0 -0.43709087 0.8994174
vn -0 -0.59234643 0.8056833
vn 0.6688783 -0.4398639 0.59926736
vn 0.6414259 -0.5925896 0.48724762
vn 0.87786067 -0.4311841 0.20842494
vn 0.69605535 -0.7048991 0.13647018
vn 0.7106168 -0.6917961 0.12822561
vn 0.39124134 -0.89052564 0.2321514
vn 0.43596148 -0.89987695 0.012614009
vn 0.43915066 -0.89729065 0.044900656
vn 0.43667796 -0.6973559 0.5683372
vn 0.36938307 -0.9221215 -0.11509943
vn 0.4652601 -0.8465724 0.25855023
vn 0.36823067 -0.92937636 -0.025801457
vn -0 -0.9999788 -0.0065232543
vn -0 -0.9235727 0.38342324
vn -0.43667763 -0.697356 0.56833726
vn 0.5939308 -0.58820343 0.54887414
vn 0.3904252 -0.9164842 0.087321684
vn 0.61706513 -0.74120414 0.26428595
vn -0 -0.99197984 -0.12639631
vn -0 -0.80375147 0.5949651
vn -0 -0.6862363 0.72737867
vn -0 -0.86057967 0.50931585
vn -0.6170515 -0.7412129 0.26429328
vn -0.59393066 -0.58820313 0.54887474
vn -0.4996869 -0.7178181 0.48481983
vn -0.39042976 -0.91648227 0.08732017
vn -0.36823145 -0.92937607 -0.02580207
vn 0.4817328 -0.8732768 0.07294539
vn -0.6370756 -0.7137729 0.29096913
vn 0.42706165 -0.89292777 0.14247207
vn 1.1858063E-05 -0.99863774 0.052178934
vn -0 -0.9861698 -0.16573822
vn 0.4472581 -0.8828463 0.14332697
vn 0.22097287 -0.96583253 -0.13542017
vn 0.22591777 -0.97149086 0.07187902
vn -0.48172706 -0.8732799 0.072947316
vn -0.5109604 -0.850926 0.12183804
vn -0.42707264 -0.8929235 0.14246622
vn -0 -0.998632 0.052287914
vn -0.50458753 -0.80018336 0.3241883
vn -0 -0.9762599 -0.21660244
vn -0.6199787 -0.7414658 0.25662205
vn -0 -0.6201642 -0.7844721
vn -0.38525704 -0.6140302 -0.68887156
vn -0.32939228 -0.9251348 -0.18874924
vn -0.22591771 -0.97149086 0.07187967
vn -0.3701836 -0.33946243 -0.8647135
vn -0.79933053 -0.300504 -0.52035373
vn -0.6655126 -0.6435598 -0.37805244
vn -0.22096995 -0.9658332 -0.13542002
vn -0.5097663 -0.8601667 -0.01586501
vn -0.4472583 -0.88284624 0.14332688
vn -0.6397046 -0.7671578 -0.047402073
vn -0.88606083 -0.42973116 -0.17386007
vn -0.7328836 -0.6501371 -0.20050806
vn -0.9935889 -0.09758854 -0.057075806
vn -0.9682834 -0.13836062 -0.20804718
vn -0.983994 -0.059243575 -0.16806532
vn -0.8544995 -0.4856642 0.18428487
vn -0.8427722 -0.5132977 0.16205133
vn -0.8706775 -0.11802976 0.4774828
vn -0.5176885 -0.77128553 0.37029335
vn -0.46526194 -0.8465716 0.2585496
vn -0.39125216 -0.8905208 0.2321518
vn -0.3693846 -0.92212135 -0.115096636
vn -0.43915066 -0.89729065 0.044900607
vn -0.4359572 -0.899879 0.012614329
vn -0.69605637 -0.70489883 0.13646671
vn -0.88275516 -0.45355383 0.12260553
vn -0.64142376 -0.5925916 0.48724815
vn -0.71061414 -0.6917982 0.12822966
vn -0.8778597 -0.43118465 0.20842789
vn -0.9829895 -0.10892066 0.14787863
vn -0.9944084 -0.099467024 -0.035471234
vn -0.9525098 0.20763563 -0.2227389
vn -0.682689 -0.421319 0.59701425
vn -0.67341954 -0.23347177 0.7014251
vn -0 -0.43709087 0.8994174
vn -0 0.0052847345 0.99998605
vn -0.9859659 0.13591556 -0.09694458
vn -0.94004184 0.11396816 0.32145405
vn -0.44244927 -0.0123030245 0.89670914
vn -0 0.59375566 0.8046454
vn -0.9078612 0.37357315 -0.1903452
vn -0.32038197 0.62271404 0.7138505
vn -0.7662395 0.27165672 0.58230543
vn -0.8707022 0.48271498 0.0941484
vn -0.71305186 0.6582731 -0.2413164
vn -0.7021964 0.5819929 0.4101275
vn -0.26408696 0.93953204 0.21803102
vn -0 0.93520796 0.35409904
vn 0.023256658 0.98427963 -0.17507876
vn -0.51940554 0.8490696 0.09642966
vn -0.49713424 0.8628079 -0.09176033
vn -0.5902402 0.8038152 -0.074146464
vn 0.038154382 0.9902236 -0.13416968
vn -0.5729296 0.7920887 0.2105877
vn 0.06054355 0.9202175 0.38669664
vn -0.94792306 0.31571326 -0.04203631
vn -0.40823317 0.67961854 0.60947865
vn 0.014930126 0.8934791 0.44885668
vn -0.948213 0.109773405 -0.2980637
vn -0.90393275 0.28727138 0.31682926
vn -0.9759079 0.11301212 -0.18663336
vn -0.9956969 0.07226723 -0.058008954
vn -0.9630352 0.0017692733 0.26936948
vn -0.8209326 0.16712649 0.54602045
vn -0.22866091 0.84478384 0.48379183
vn 0.0013451083 0.9815005 0.19145516
vn -0.8103844 -0.20122282 0.55026037
vn -0.8146832 0.18561341 0.5493986
vn -0.936861 -0.127472 0.3256416
vn -0.97521234 0.006414356 0.22117814
vn -0.92024356 -0.38538563 0.06804295
vn -0.98144597 -0.13660659 -0.13454574
vn -0.99328095 0.06476228 0.09591103
vn -0.78605556 0.3795843 0.48788565
vn -0.9577741 -0.16396804 -0.23618472
vn -0.9515741 -0.15012266 -0.26827228
vn -0.9803068 0.06255528 -0.18731076
vn -0.79052246 -0.35338524 -0.50019306
vn -0.85871077 -0.12576877 -0.49678776
vn -0.888134 0.031959094 -0.45847186
vn -0.93641156 0.115414225 -0.33138046
vn -0.609154 0.7474359 0.26508662
vn -0.99754685 0.05223501 0.046600603
vn -0.6011286 0.7946812 0.08441637
vn -0.9217878 0.36669472 -0.12586622
vn -0.27698502 0.96005905 -0.039572332
vn -0.12058941 0.99262846 -0.01211953
vn -0.103400625 0.9775188 0.18375316
vn -0.0030179785 0.9999943 -0.0015798464
g polySurface10_0
f 3/3/3 2/2/2 1/1/1
f 4/4/4 3/3/3 1/1/1
f 4/4/4 1/1/1 5/5/5
f 6/6/6 3/3/3 4/4/4
f 4/4/4 5/5/5 7/7/7
f 6/6/6 4/4/4 8/8/8
f 4/4/4 7/7/7 9/9/9
f 4/4/4 10/10/10 8/8/8
f 11/11/11 4/4/4 9/9/9
f 4/4/4 11/11/11 12/12/12
f 13/13/13 4/4/4 12/12/12
f 10/10/10 4/4/4 14/14/14
f 15/15/15 4/4/4 13/13/13
f 14/14/14 4/4/4 16/16/16
f 16/16/16 4/4/4 15/15/15
f 17/17/17 14/14/14 16/16/16
f 18/18/18 16/16/16 15/15/15
f 21/21/21 20/20/20 19/19/19
f 22/22/22 21/21/21 19/19/19
f 19/19/19 20/20/20 23/23/23
f 20/20/20 24/24/24 23/23/23
f 19/19/19 25/25/25 22/22/22
f 25/25/25 26/26/26 22/22/22
f 23/23/23 24/24/24 27/27/27
f 24/24/24 28/28/28 27/27/27
f 28/28/28 29/29/29 27/27/27
f 29/29/29 30/30/30 27/27/27
f 30/30/30 29/29/29 31/31/31
f 25/25/25 19/19/19 32/32/32
f 19/19/19 23/23/23 32/32/32
f 26/26/26 25/25/25 33/33/33
f 25/25/25 32/32/32 33/33/33
f 34/34/34 26/26/26 33/33/33
f 32/32/32 23/23/23 35/35/35
f 23/23/23 27/27/27 35/35/35
f 33/33/33 32/32/32 36/36/36
f 34/34/34 33/33/33 36/36/36
f 32/32/32 35/35/35 36/36/36
f 35/35/35 27/27/27 37/37/37
f 35/35/35 37/37/37 36/36/36
f 38/38/38 34/34/34 36/36/36
f 39/39/39 34/34/34 38/38/38
f 37/37/37 40/40/40 36/36/36
f 40/40/40 38/38/38 36/36/36
f 41/41/41 39/39/39 38/38/38
f 42/42/42 39/39/39 41/41/41
f 41/41/41 38/38/38 43/43/43
f 43/43/43 42/42/42 41/41/41
f 38/38/38 40/40/40 44/44/44
f 38/38/38 44/44/44 43/43/43
f 42/42/42 43/43/43 45/45/45
f 43/43/43 44/44/44 45/45/45
f 46/46/46 42/42/42 45/45/45
f 37/37/37 47/47/47 40/40/40
f 40/40/40 47/47/47 44/44/44
f 44/44/44 48/48/48 45/45/45
f 44/44/44 47/47/47 48/48/48
f 47/47/47 37/37/37 49/49/49
f 27/27/27 49/49/49 37/37/37
f 45/45/45 50/50/50 46/46/46
f 45/45/45 48/48/48 50/50/50
f 47/47/47 51/51/51 48/48/48
f 51/51/51 47/47/47 49/49/49
f 51/51/51 49/49/49 52/52/52
f 49/49/49 53/53/53 52/52/52
f 27/27/27 53/53/53 49/49/49
f 54/54/54 53/53/53 27/27/27
f 52/52/52 53/53/53 54/54/54
f 48/48/48 55/55/55 50/50/50
f 48/48/48 51/51/51 55/55/55
f 56/56/56 54/54/54 27/27/27
f 27/27/27 30/30/30 56/56/56
f 56/56/56 30/30/30 57/57/57
f 58/58/58 54/54/54 56/56/56
f 57/57/57 58/58/58 56/56/56
f 58/58/58 57/57/57 59/59/59
f 60/60/60 54/54/54 58/58/58
f 60/60/60 52/52/52 54/54/54
f 59/59/59 60/60/60 58/58/58
f 60/60/60 59/59/59 52/52/52
f 30/30/30 61/61/61 57/57/57
f 61/61/61 30/30/30 31/31/31
f 50/50/50 55/55/55 62/62/62
f 63/63/63 50/50/50 62/62/62
f 63/63/63 46/46/46 50/50/50
f 63/63/63 64/64/64 46/46/46
f 64/64/64 65/65/65 46/46/46
f 64/64/64 66/66/66 65/65/65
f 66/66/66 64/64/64 67/67/67
f 67/67/67 64/64/64 63/63/63
f 68/68/68 66/66/66 67/67/67
f 68/68/68 69/69/69 66/66/66
f 70/70/70 67/67/67 63/63/63
f 71/71/71 63/63/63 62/62/62
f 71/71/71 70/70/70 63/63/63
f 72/72/72 71/71/71 62/62/62
f 62/62/62 55/55/55 73/73/73
f 73/73/73 72/72/72 62/62/62
f 73/73/73 74/74/74 72/72/72
f 55/55/55 75/75/75 73/73/73
f 74/74/74 73/73/73 75/75/75
f 55/55/55 51/51/51 75/75/75
f 68/68/68 67/67/67 76/76/76
f 70/70/70 76/76/76 67/67/67
f 76/76/76 77/77/77 68/68/68
f 77/77/77 76/76/76 70/70/70
f 51/51/51 78/78/78 75/75/75
f 75/75/75 78/78/78 79/79/79
f 52/52/52 78/78/78 51/51/51
f 78/78/78 52/52/52 79/79/79
f 80/80/80 74/74/74 75/75/75
f 79/79/79 80/80/80 75/75/75
f 52/52/52 81/81/81 79/79/79
f 59/59/59 81/81/81 52/52/52
f 82/82/82 77/77/77 70/70/70
f 83/83/83 82/82/82 70/70/70
f 77/77/77 82/82/82 83/83/83
f 71/71/71 83/83/83 70/70/70
f 84/84/84 83/83/83 71/71/71
f 84/84/84 71/71/71 72/72/72
f 85/85/85 77/77/77 83/83/83
f 84/84/84 85/85/85 83/83/83
f 74/74/74 80/80/80 86/86/86
f 80/80/80 79/79/79 87/87/87
f 86/86/86 80/80/80 87/87/87
f 81/81/81 88/88/88 79/79/79
f 81/81/81 59/59/59 89/89/89
f 81/81/81 89/89/89 88/88/88
f 90/90/90 87/87/87 79/79/79
f 88/88/88 90/90/90 79/79/79
f 90/90/90 88/88/88 91/91/91
f 88/88/88 92/92/92 91/91/91
f 89/89/89 92/92/92 88/88/88
f 59/59/59 93/93/93 89/89/89
f 89/89/89 93/93/93 92/92/92
f 94/94/94 87/87/87 90/90/90
f 91/91/91 94/94/94 90/90/90
f 86/86/86 87/87/87 95/95/95
f 87/87/87 94/94/94 95/95/95
f 59/59/59 96/96/96 93/93/93
f 57/57/57 96/96/96 59/59/59
f 93/93/93 97/97/97 92/92/92
f 92/92/92 97/97/97 98/98/98
f 92/92/92 99/99/99 91/91/91
f 99/99/99 92/92/92 98/98/98
f 96/96/96 100/100/100 93/93/93
f 93/93/93 100/100/100 97/97/97
f 100/100/100 96/96/96 101/101/101
f 57/57/57 102/102/102 96/96/96
f 102/102/102 101/101/101 96/96/96
f 103/103/103 102/102/102 57/57/57
f 61/61/61 103/103/103 57/57/57
f 99/99/99 104/104/104 91/91/91
f 98/98/98 104/104/104 99/99/99
f 101/101/101 102/102/102 105/105/105
f 103/103/103 105/105/105 102/102/102
f 106/106/106 103/103/103 61/61/61
f 107/107/107 105/105/105 103/103/103
f 106/106/106 107/107/107 103/103/103
f 108/108/108 106/106/106 61/61/61
f 108/108/108 61/61/61 31/31/31
f 107/107/107 106/106/106 109/109/109
f 109/109/109 106/106/106 108/108/108
f 110/110/110 108/108/108 31/31/31
f 110/110/110 109/109/109 108/108/108
f 111/111/111 110/110/110 31/31/31
f 111/111/111 112/112/112 110/110/110
f 112/112/112 109/109/109 110/110/110
f 113/113/113 107/107/107 109/109/109
f 113/113/113 109/109/109 112/112/112
f 107/107/107 113/113/113 105/105/105
f 114/114/114 113/113/113 112/112/112
f 113/113/113 115/115/115 105/105/105
f 113/113/113 114/114/114 115/115/115
f 101/101/101 105/105/105 115/115/115
f 114/114/114 116/116/116 115/115/115
f 115/115/115 116/116/116 117/117/117
f 118/118/118 115/115/115 117/117/117
f 118/118/118 101/101/101 115/115/115
f 119/119/119 118/118/118 117/117/117
f 101/101/101 118/118/118 119/119/119
f 120/120/120 101/101/101 119/119/119
f 120/120/120 100/100/100 101/101/101
f 100/100/100 120/120/120 121/121/121
f 100/100/100 121/121/121 97/97/97
f 120/120/120 119/119/119 122/122/122
f 120/120/120 122/122/122 121/121/121
f 123/123/123 97/97/97 121/121/121
f 124/124/124 121/121/121 122/122/122
f 124/124/124 123/123/123 121/121/121
f 119/119/119 125/125/125 122/122/122
f 124/124/124 122/122/122 125/125/125
f 126/126/126 119/119/119 117/117/117
f 119/119/119 126/126/126 125/125/125
f 127/127/127 124/124/124 125/125/125
f 127/127/127 123/123/123 124/124/124
f 123/123/123 128/128/128 97/97/97
f 128/128/128 98/98/98 97/97/97
f 129/129/129 128/128/128 123/123/123
f 127/127/127 129/129/129 123/123/123
f 128/128/128 129/129/129 98/98/98
f 127/127/127 125/125/125 130/130/130
f 126/126/126 130/130/130 125/125/125
f 129/129/129 127/127/127 130/130/130
f 126/126/126 131/131/131 130/130/130
f 131/131/131 126/126/126 117/117/117
f 131/131/131 132/132/132 130/130/130
f 132/132/132 131/131/131 117/117/117
f 129/129/129 133/133/133 98/98/98
f 130/130/130 134/134/134 129/129/129
f 129/129/129 134/134/134 133/133/133
f 98/98/98 133/133/133 135/135/135
f 104/104/104 98/98/98 135/135/135
f 104/104/104 135/135/135 136/136/136
f 133/133/133 134/134/134 137/137/137
f 130/130/130 137/137/137 134/134/134
f 135/135/135 133/133/133 138/138/138
f 138/138/138 133/133/133 137/137/137
f 136/136/136 135/135/135 139/139/139
f 139/139/139 135/135/135 138/138/138
f 140/140/140 139/139/139 138/138/138
f 140/140/140 136/136/136 139/139/139
f 141/141/141 138/138/138 137/137/137
f 141/141/141 140/140/140 138/138/138
f 141/141/141 142/142/142 140/140/140
f 143/143/143 141/141/141 137/137/137
f 137/137/137 130/130/130 143/143/143
f 143/143/143 144/144/144 141/141/141
f 141/141/141 144/144/144 142/142/142
f 144/144/144 143/143/143 130/130/130
f 145/145/145 104/104/104 136/136/136
f 104/104/104 145/145/145 91/91/91
f 140/140/140 146/146/146 136/136/136
f 142/142/142 146/146/146 140/140/140
f 145/145/145 147/147/147 91/91/91
f 145/145/145 136/136/136 148/148/148
f 147/147/147 145/145/145 148/148/148
f 147/147/147 148/148/148 149/149/149
f 147/147/147 150/150/150 91/91/91
f 91/91/91 150/150/150 94/94/94
f 150/150/150 147/147/147 151/151/151
f 94/94/94 150/150/150 151/151/151
f 151/151/151 147/147/147 149/149/149
f 152/152/152 94/94/94 151/151/151
f 151/151/151 149/149/149 152/152/152
f 95/95/95 94/94/94 152/152/152
f 136/136/136 153/153/153 148/148/148
f 146/146/146 153/153/153 136/136/136
f 153/153/153 146/146/146 154/154/154
f 155/155/155 153/153/153 154/154/154
f 153/153/153 155/155/155 148/148/148
f 148/148/148 155/155/155 149/149/149
f 152/152/152 156/156/156 95/95/95
f 149/149/149 156/156/156 152/152/152
f 146/146/146 157/157/157 154/154/154
f 146/146/146 142/142/142 157/157/157
f 156/156/156 158/158/158 95/95/95
f 95/95/95 158/158/158 86/86/86
f 157/157/157 159/159/159 154/154/154
f 159/159/159 157/157/157 142/142/142
f 158/158/158 160/160/160 86/86/86
f 160/160/160 74/74/74 86/86/86
f 160/160/160 158/158/158 161/161/161
f 74/74/74 160/160/160 161/161/161
f 158/158/158 156/156/156 162/162/162
f 158/158/158 162/162/162 161/161/161
f 156/156/156 149/149/149 163/163/163
f 156/156/156 163/163/163 162/162/162
f 164/164/164 74/74/74 161/161/161
f 74/74/74 164/164/164 72/72/72
f 164/164/164 165/165/165 72/72/72
f 164/164/164 161/161/161 166/166/166
f 166/166/166 161/161/161 162/162/162
f 165/165/165 164/164/164 166/166/166
f 149/149/149 167/167/167 163/163/163
f 155/155/155 167/167/167 149/149/149
f 168/168/168 162/162/162 163/163/163
f 168/168/168 166/166/166 162/162/162
f 168/168/168 163/163/163 167/167/167
f 155/155/155 169/169/169 167/167/167
f 169/169/169 168/168/168 167/167/167
f 169/169/169 155/155/155 154/154/154
f 169/169/169 154/154/154 168/168/168
f 166/166/166 168/168/168 170/170/170
f 168/168/168 154/154/154 170/170/170
f 166/166/166 170/170/170 165/165/165
f 171/171/171 170/170/170 154/154/154
f 170/170/170 171/171/171 165/165/165
f 159/159/159 171/171/171 154/154/154
f 172/172/172 72/72/72 165/165/165
f 173/173/173 172/172/172 165/165/165
f 174/174/174 173/173/173 165/165/165
f 171/171/171 174/174/174 165/165/165
f 174/174/174 175/175/175 173/173/173
f 172/172/172 84/84/84 72/72/72
f 172/172/172 173/173/173 84/84/84
f 176/176/176 174/174/174 171/171/171
f 159/159/159 176/176/176 171/171/171
f 175/175/175 174/174/174 176/176/176
f 177/177/177 176/176/176 159/159/159
f 177/177/177 175/175/175 176/176/176
f 178/178/178 84/84/84 173/173/173
f 85/85/85 84/84/84 178/178/178
f 179/179/179 177/177/177 159/159/159
f 179/179/179 159/159/159 142/142/142
f 142/142/142 180/180/180 179/179/179
f 144/144/144 180/180/180 142/142/142
f 180/180/180 144/144/144 181/181/181
f 180/180/180 181/181/181 179/179/179
f 144/144/144 182/182/182 181/181/181
f 130/130/130 182/182/182 144/144/144
f 130/130/130 183/183/183 182/182/182
f 130/130/130 132/132/132 183/183/183
f 181/181/181 182/182/182 184/184/184
f 184/184/184 182/182/182 183/183/183
f 179/179/179 181/181/181 185/185/185
f 181/181/181 184/184/184 185/185/185
f 186/186/186 177/177/177 179/179/179
f 185/185/185 186/186/186 179/179/179
f 132/132/132 187/187/187 183/183/183
f 187/187/187 132/132/132 117/117/117
f 188/188/188 184/184/184 183/183/183
f 185/185/185 184/184/184 188/188/188
f 183/183/183 187/187/187 188/188/188
f 188/188/188 189/189/189 185/185/185
f 189/189/189 186/186/186 185/185/185
f 187/187/187 189/189/189 188/188/188
f 186/186/186 189/189/189 190/190/190
f 190/190/190 189/189/189 187/187/187
f 186/186/186 191/191/191 177/177/177
f 191/191/191 186/186/186 190/190/190
f 191/191/191 175/175/175 177/177/177
f 191/191/191 192/192/192 175/175/175
f 193/193/193 187/187/187 117/117/117
f 193/193/193 190/190/190 187/187/187
f 194/194/194 193/193/193 117/117/117
f 190/190/190 193/193/193 194/194/194
f 195/195/195 194/194/194 117/117/117
f 195/195/195 196/196/196 194/194/194
f 190/190/190 197/197/197 191/191/191
f 197/197/197 192/192/192 191/191/191
f 198/198/198 190/190/190 194/194/194
f 197/197/197 190/190/190 198/198/198
f 196/196/196 199/199/199 194/194/194
f 194/194/194 199/199/199 198/198/198
f 199/199/199 196/196/196 200/200/200
f 197/197/197 201/201/201 192/192/192
f 197/197/197 198/198/198 201/201/201
f 202/202/202 199/199/199 200/200/200
f 199/199/199 203/203/203 198/198/198
f 203/203/203 199/199/199 202/202/202
f 198/198/198 204/204/204 201/201/201
f 198/198/198 203/203/203 204/204/204
f 201/201/201 205/205/205 192/192/192
f 201/201/201 204/204/204 205/205/205
f 203/203/203 206/206/206 204/204/204
f 206/206/206 203/203/203 202/202/202
f 202/202/202 200/200/200 207/207/207
f 200/200/200 208/208/208 207/207/207
f 207/207/207 208/208/208 209/209/209
f 202/202/202 207/207/207 210/210/210
f 206/206/206 202/202/202 210/210/210
f 210/210/210 207/207/207 209/209/209
f 204/204/204 206/206/206 211/211/211
f 206/206/206 210/210/210 211/211/211
f 204/204/204 211/211/211 205/205/205
f 211/211/211 210/210/210 209/209/209
f 211/211/211 209/209/209 205/205/205
f 212/212/212 205/205/205 209/209/209
f 205/205/205 212/212/212 192/192/192
f 213/213/213 212/212/212 209/209/209
f 212/212/212 213/213/213 214/214/214
f 213/213/213 215/215/215 214/214/214
f 212/212/212 216/216/216 192/192/192
f 212/212/212 214/214/214 216/216/216
f 214/214/214 215/215/215 217/217/217
f 215/215/215 218/218/218 217/217/217
f 219/219/219 192/192/192 216/216/216
f 192/192/192 219/219/219 175/175/175
f 214/214/214 220/220/220 216/216/216
f 214/214/214 217/217/217 220/220/220
f 221/221/221 175/175/175 219/219/219
f 175/175/175 221/221/221 173/173/173
f 222/222/222 219/219/219 216/216/216
f 222/222/222 221/221/221 219/219/219
f 173/173/173 221/221/221 222/222/222
f 222/222/222 216/216/216 220/220/220
f 223/223/223 173/173/173 222/222/222
f 223/223/223 222/222/222 220/220/220
f 223/223/223 178/178/178 173/173/173
f 223/223/223 220/220/220 178/178/178
f 220/220/220 224/224/224 178/178/178
f 217/217/217 224/224/224 220/220/220
f 218/218/218 225/225/225 217/217/217
f 218/218/218 226/226/226 225/225/225
f 178/178/178 224/224/224 227/227/227
f 227/227/227 85/85/85 178/178/178
f 217/217/217 228/228/228 224/224/224
f 217/217/217 225/225/225 228/228/228
f 224/224/224 228/228/228 227/227/227
f 85/85/85 227/227/227 229/229/229
f 85/85/85 229/229/229 77/77/77
f 227/227/227 228/228/228 230/230/230
f 229/229/229 227/227/227 230/230/230
f 229/229/229 231/231/231 77/77/77
f 68/68/68 77/77/77 231/231/231
f 229/229/229 232/232/232 231/231/231
f 68/68/68 231/231/231 232/232/232
f 229/229/229 230/230/230 232/232/232
f 232/232/232 230/230/230 233/233/233
f 230/230/230 228/228/228 234/234/234
f 225/225/225 234/234/234 228/228/228
f 233/233/233 230/230/230 234/234/234
f 68/68/68 232/232/232 235/235/235
f 235/235/235 232/232/232 233/233/233
f 69/69/69 68/68/68 235/235/235
f 69/69/69 235/235/235 236/236/236
f 236/236/236 235/235/235 233/233/233
f 237/237/237 236/236/236 233/233/233
f 238/238/238 69/69/69 236/236/236
f 239/239/239 238/238/238 236/236/236
f 239/239/239 236/236/236 237/237/237
f 240/240/240 239/239/239 237/237/237
f 241/241/241 240/240/240 237/237/237
f 225/225/225 242/242/242 234/234/234
f 233/233/233 234/234/234 242/242/242
f 243/243/243 237/237/237 233/233/233
f 243/243/243 233/233/233 242/242/242
f 243/243/243 242/242/242 237/237/237
f 244/244/244 241/241/241 237/237/237
f 242/242/242 244/244/244 237/237/237
f 244/244/244 245/245/245 241/241/241
f 246/246/246 245/245/245 244/244/244
f 246/246/246 244/244/244 247/247/247
f 225/225/225 248/248/248 242/242/242
f 248/248/248 244/244/244 242/242/242
f 244/244/244 248/248/248 247/247/247
f 226/226/226 248/248/248 225/225/225
f 249/249/249 247/247/247 248/248/248
f 226/226/226 249/249/249 248/248/248
