g PotSmall
v 0.2646058 0.2646058 0.7259302
v 0.3315259 -1.5159742E-08 0.9798559
v 0.2344242 0.2344242 0.9798559
v 0.37420908 -1.6389455E-08 0.7259302
v 0.23799634 0.23799634 0.48222977
v 0.2344242 -0.2344242 0.9798559
v 0.20000851 -1.13706955E-08 1.1365612
v 0.2646058 -0.2646058 0.7259302
v 0.14142737 -0.14142737 1.1365612
v 0.33657765 -1.5586147E-08 0.48222974
v 0.17106432 0.1710643 0.16628931
v 0.23799634 -0.23799634 0.48222977
v 0.24192145 -1.2281168E-08 0.16628931
v 0.17106432 -0.1710643 0.16628931
v 0.119776465 0.11977645 -0.005171062
v 0.1693895 -1.0488555E-08 -0.005171062
v 0.119776465 -0.11977647 -0.005171062
v 0.14082602 -0.14082602 -0.05851755
v 0.19915806 -1.0853384E-08 -0.05851755
v 0.14082602 -0.14082602 -0.13631453
v 0.14082602 0.140826 -0.05851755
v 0.19915806 -1.0853384E-08 -0.13631453
v 0.14082602 0.140826 -0.13631453
v 0.2646058 -0.2646058 0.7259302
v -2.8648772E-08 -0.3315259 0.9798559
v 0.2344242 -0.2344242 0.9798559
v -2.942766E-08 -0.37420908 0.7259302
v 0.23799634 -0.23799634 0.48222977
v -0.23442417 -0.23442423 0.9798559
v -1.6171276E-08 -0.20000851 1.1365612
v -2.6482265E-08 -0.33657765 0.48222974
v 0.17106432 -0.1710643 0.16628931
v -0.26460576 -0.2646058 0.7259302
v -0.14142735 -0.1414274 1.1365612
v -0.3315259 3.2851215E-09 0.9798559
v -1.3872311E-08 -0.16758351 1.3299422
v -0.37420908 4.430142E-09 0.7259302
v -0.11849941 -0.11849944 1.3299422
v -0.20000851 -2.4296884E-10 1.1365612
v -1.8220831E-08 -0.2233352 1.5233234
v -0.1675835 -1.5674156E-09 1.3299422
v -0.15792179 -0.15792185 1.5233234
v -0.2233352 7.098431E-10 1.5233234
v -0.23799632 -0.23799634 0.48222977
v -0.33657765 3.1397782E-09 0.48222974
v -1.8891367E-08 -0.24192145 0.16628931
v 0.119776465 -0.11977647 -0.005171062
v -0.1710643 -0.1710643 0.16628931
v -0.24192145 1.1784402E-09 0.16628931
v -1.3266347E-08 -0.1693895 -0.005171062
v -0.11977645 -0.11977647 -0.005171062
v -0.1693895 -1.0643558E-09 -0.005171062
v -0.19915806 2.2702902E-10 -0.05851755
v -0.140826 -0.14082602 -0.05851755
v -0.19915806 2.2702902E-10 -0.13631453
v -0.140826 -0.14082602 -0.13631453
v -1.6090592E-08 -0.19915806 -0.05851755
v 0.14082602 -0.14082602 -0.05851755
v -1.682249E-08 -0.19915806 -0.13631453
v 0.14082602 -0.14082602 -0.13631453
v -2.8648772E-08 -0.3315259 0.9798559
v -1.6171276E-08 -0.20000851 1.1365612
v 0.14142737 -0.14142737 1.1365612
v 0.2344242 -0.2344242 0.9798559
v -0.37420908 4.430142E-09 0.7259302
v -0.23442423 0.23442417 0.9798559
v -0.3315259 3.2851215E-09 0.9798559
v -0.2646058 0.26460576 0.7259302
v -0.33657765 3.1397782E-09 0.48222974
v 3.3414246E-10 0.3315259 0.9798559
v -0.1414274 0.14142734 1.1365612
v -0.23799634 0.23799632 0.48222977
v -0.24192145 1.1784402E-09 0.16628931
v 3.2867364E-09 0.37420908 0.7259302
v 0.2344242 0.2344242 0.9798559
v 0.2646058 0.2646058 0.7259302
v 1.3140232E-09 0.20000851 1.1365612
v 2.9422875E-09 0.33657765 0.48222983
v 0.23799634 0.23799634 0.48222977
v -0.17106432 0.1710643 0.16628931
v -0.1693895 -1.0643558E-09 -0.005171062
v 2.258082E-09 0.24192145 0.16628933
v 0.17106432 0.1710643 0.16628931
v -0.11977647 0.11977645 -0.005171062
v 1.5421526E-09 0.16938949 -0.005171062
v 0.119776465 0.11977645 -0.005171062
v 0.14082602 0.140826 -0.05851755
v 1.3203595E-09 0.19915806 -0.05851755
v 0.14082602 0.140826 -0.13631453
v 5.8846145E-10 0.19915806 -0.13631453
v -0.14082602 0.140826 -0.05851755
v -0.19915806 2.2702902E-10 -0.05851755
v -0.14082602 0.140826 -0.13631453
v -0.19915806 2.2702902E-10 -0.13631453
v 0.14082602 -0.14082602 -0.13631453
v 0.19915806 -1.0853384E-08 -0.13631453
v 0.14082602 0.140826 -0.13631453
v -1.682249E-08 -0.19915806 -0.13631453
v 5.8846145E-10 0.19915806 -0.13631453
v -0.14082602 0.140826 -0.13631453
v -0.140826 -0.14082602 -0.13631453
v -0.19915806 2.2702902E-10 -0.13631453
v -1.3872311E-08 -0.16758351 1.3299422
v -1.8220831E-08 -0.2233352 1.5233234
v 0.1579218 -0.1579218 1.5233234
v 0.11849941 -0.11849941 1.3299422
v -1.6171276E-08 -0.20000851 1.1365612
v 0.2233352 -1.1715693E-08 1.5233234
v 0.1675835 -1.0891136E-08 1.3299422
v 0.1579218 0.15792182 1.5233234
v 0.11849941 0.11849941 1.3299422
v 0.14142737 0.14142737 1.1365612
v -0.23442423 0.23442417 0.9798559
v -0.1414274 0.14142734 1.1365612
v -0.20000851 -2.4296884E-10 1.1365612
v -0.3315259 3.2851215E-09 0.9798559
v -0.14142735 -0.1414274 1.1365612
v -0.23442417 -0.23442423 0.9798559
v 0.3315259 -1.5159742E-08 0.9798559
v 0.20000851 -1.13706955E-08 1.1365612
v 0.14142737 0.14142737 1.1365612
v 0.2344242 0.2344242 0.9798559
v 1.3140232E-09 0.20000851 1.1365612
v 3.3414246E-10 0.3315259 0.9798559
v 0.11849941 0.11849941 1.3299422
v 0.1579218 0.15792182 1.5233234
v 1.303751E-09 0.2233352 1.5233234
v 7.783031E-10 0.16758348 1.3299422
v 0.14142737 0.14142737 1.1365612
v -0.15792185 0.15792179 1.5233234
v -0.11849944 0.1184994 1.3299422
v -0.2233352 7.098431E-10 1.5233234
v -0.1675835 -1.5674156E-09 1.3299422
v -0.20000851 -2.4296884E-10 1.1365612
v -0.18706115 -0.18706122 1.5233234
v -2.0282714E-08 -0.28585538 1.6566895
v -1.8561558E-08 -0.26454452 1.5233234
v -0.2021302 -0.20213026 1.6566895
v -0.26454452 3.0942597E-09 1.5233234
v -0.28585538 3.4564727E-09 1.6566895
v 0.18706119 0.18706122 1.5233234
v 0.20213024 0.20213026 1.6566895
v 4.7075517E-09 0.28585538 1.6566895
v 4.5656545E-09 0.26454452 1.5233234
v -0.20213026 0.2021302 1.6566895
v -0.18706122 0.18706115 1.5233234
v -0.28585538 3.4564727E-09 1.6566895
v -0.26454452 3.0942597E-09 1.5233234
v -1.8561558E-08 -0.26454452 1.5233234
v -2.0282714E-08 -0.28585538 1.6566895
v 0.20213024 -0.2021302 1.6566895
v 0.18706119 -0.18706115 1.5233234
v 0.28585538 -1.2447453E-08 1.6566895
v 0.26454452 -1.16240075E-08 1.5233234
v 0.20213024 0.20213026 1.6566895
v 0.18706119 0.18706122 1.5233234
v -0.20077187 2.4276696E-09 1.6566895
v -0.14196706 -0.14196712 1.6119136
v -0.14196707 -0.14196712 1.6566895
v -0.20077184 2.4276696E-09 1.6119136
v -0.14196712 0.14196709 1.6566895
v -0.1419671 0.14196709 1.6119136
v 4.975686E-09 0.20077187 1.6566895
v 1.8239687E-08 0.20077187 1.6119136
v 0.14196712 0.14196712 1.6119136
v 0.20077188 -8.742525E-09 1.6119136
v 0.14196712 -0.14196709 1.6119136
v 1.8239687E-08 0.20077187 1.6119136
v 6.876565E-10 -0.20077187 1.6119136
v -0.1419671 0.14196709 1.6119136
v -0.14196706 -0.14196712 1.6119136
v -0.20077184 2.4276696E-09 1.6119136
v 0.20077187 -8.742525E-09 1.6566895
v 0.20077188 -8.742525E-09 1.6119136
v 0.14196712 0.14196712 1.6119136
v 0.14196712 0.14196712 1.6566895
v 1.8239687E-08 0.20077187 1.6119136
v 4.975686E-09 0.20077187 1.6566895
v -0.14196707 -0.14196712 1.6566895
v -0.14196706 -0.14196712 1.6119136
v 6.876565E-10 -0.20077187 1.6119136
v -1.25763435E-08 -0.20077187 1.6566895
v 0.14196712 -0.14196709 1.6119136
v 0.14196712 -0.14196709 1.6566895
v 0.20077188 -8.742525E-09 1.6119136
v 0.20077187 -8.742525E-09 1.6566895
v 0.20213024 0.20213026 1.6566895
v 4.975686E-09 0.20077187 1.6566895
v 4.7075517E-09 0.28585538 1.6566895
v 0.14196712 0.14196712 1.6566895
v -0.14196712 0.14196709 1.6566895
v 0.28585538 -1.2447453E-08 1.6566895
v -0.20213026 0.2021302 1.6566895
v 0.20077187 -8.742525E-09 1.6566895
v -0.20077187 2.4276696E-09 1.6566895
v 0.20213024 -0.2021302 1.6566895
v -0.28585538 3.4564727E-09 1.6566895
v 0.14196712 -0.14196709 1.6566895
v -0.14196707 -0.14196712 1.6566895
v -2.0282714E-08 -0.28585538 1.6566895
v -0.2021302 -0.20213026 1.6566895
v -1.25763435E-08 -0.20077187 1.6566895
v 0.2233352 -1.1715693E-08 1.5233234
v 0.18706119 0.18706122 1.5233234
v 0.1579218 0.15792182 1.5233234
v 0.26454452 -1.16240075E-08 1.5233234
v 4.5656545E-09 0.26454452 1.5233234
v 0.1579218 -0.1579218 1.5233234
v 1.303751E-09 0.2233352 1.5233234
v 0.18706119 -0.18706115 1.5233234
v -0.18706122 0.18706115 1.5233234
v -1.8220831E-08 -0.2233352 1.5233234
v -0.15792185 0.15792179 1.5233234
v -1.8561558E-08 -0.26454452 1.5233234
v -0.26454452 3.0942597E-09 1.5233234
v -0.15792179 -0.15792185 1.5233234
v -0.2233352 7.098431E-10 1.5233234
v -0.18706115 -0.18706122 1.5233234
vt 0.63155746 0.3681866
vt 0.71584785 0.24837673
vt 0.6391735 0.25822282
vt 0.71810347 0.35707283
vt 0.6554384 0.47159922
vt 0.8246759 0.23905277
vt 0.7318696 0.18157995
vt 0.84094286 0.34654832
vt 0.79752517 0.1759547
vt 0.73328114 0.46160316
vt 0.7046016 0.60442746
vt 0.8437675 0.452137
vt 0.76055247 0.5972426
vt 0.8399666 0.5904386
vt 0.7396804 0.6759415
vt 0.77885634 0.6709108
vt 0.83446085 0.66614676
vt 0.84126264 0.6880892
vt 0.7758862 0.6936904
vt 0.84411883 0.7214263
vt 0.7298255 0.69960535
vt 0.77874243 0.7270276
vt 0.73268175 0.73294246
vt 0.3048997 0.37930956
vt 0.21068954 0.49148658
vt 0.2879245 0.48822173
vt 0.21772091 0.38299477
vt 0.28993362 0.27423576
vt 0.10146281 0.49148658
vt 0.18902424 0.556672
vt 0.21152174 0.27755037
vt 0.25228873 0.13769561
vt 0.09443149 0.38299477
vt 0.123128116 0.556672
vt 0.024227828 0.48822173
vt 0.18368275 0.639297
vt 0.0072526634 0.3793095
vt 0.12846957 0.639297
vt 0.07653248 0.5547023
vt 0.1928669 0.7234045
vt 0.08942795 0.6376467
vt 0.119285405 0.7234045
vt 0.06725541 0.7212051
vt 0.10063064 0.27755037
vt 0.022218764 0.27423573
vt 0.19592874 0.14007808
vt 0.22344266 0.063448116
vt 0.11622366 0.14007805
vt 0.059863687 0.1376956
vt 0.1839803 0.06511628
vt 0.12817211 0.06511627
vt 0.08870974 0.06344811
vt 0.07687074 0.040711924
vt 0.12326825 0.042673245
vt 0.07687077 0.0072526634
vt 0.12326825 0.009213999
vt 0.18888418 0.042673253
vt 0.23528168 0.040711932
vt 0.1888842 0.009213999
vt 0.23528168 0.0072526783
vt 0.9857565 0.39888775
vt 0.93345183 0.42055306
vt 0.93345183 0.4864492
vt 0.9857565 0.5081145
vt 0.6170521 0.37930956
vt 0.522842 0.4914866
vt 0.600077 0.48822176
vt 0.5298733 0.38299477
vt 0.60208607 0.27423576
vt 0.41361523 0.4914866
vt 0.5011767 0.556672
vt 0.5236742 0.2775504
vt 0.56444114 0.13769561
vt 0.4065839 0.38299477
vt 0.33638024 0.48822176
vt 0.31940508 0.37930948
vt 0.43528053 0.556672
vt 0.41278306 0.27755043
vt 0.33437118 0.27423573
vt 0.5080812 0.14007808
vt 0.5355951 0.063448116
vt 0.4283761 0.14007808
vt 0.3720161 0.13769561
vt 0.49613273 0.06511628
vt 0.44032454 0.06511628
vt 0.4008622 0.06344811
vt 0.38902318 0.040711924
vt 0.43542066 0.042673253
vt 0.38902318 0.0072526634
vt 0.43542066 0.009213999
vt 0.50103664 0.04267326
vt 0.5474341 0.04071194
vt 0.50103664 0.009213999
vt 0.5474341 0.0072526783
vt 0.9641682 0.7938453
vt 0.91777074 0.7474478
vt 0.85215473 0.7474478
vt 0.9641682 0.85946125
vt 0.8057573 0.7938453
vt 0.8057573 0.85946125
vt 0.91777074 0.9058587
vt 0.85215473 0.9058587
vt 0.82419 0.09239888
vt 0.8391487 0.007252693
vt 0.7871209 0.009502888
vt 0.78515 0.09408724
vt 0.84411883 0.17393959
vt 0.71380794 0.015784025
vt 0.73013836 0.09880054
vt 0.6621556 0.02241683
vt 0.69138014 0.10377753
vt 0.6856122 0.18751991
vt 0.9004234 0.20907737
vt 0.9404557 0.16904512
vt 0.91523826 0.108165026
vt 0.8586241 0.108165056
vt 0.9404557 0.04728493
vt 0.9004234 0.0072526634
vt 0.51585233 0.9397346
vt 0.5558846 0.89970237
vt 0.5306672 0.83882225
vt 0.47405306 0.83882225
vt 0.5558846 0.7779422
vt 0.51585233 0.7379099
vt 0.4015804 0.6376467
vt 0.37940785 0.7212051
vt 0.43143782 0.7234045
vt 0.440622 0.639297
vt 0.38868493 0.5547023
vt 0.50501937 0.7234045
vt 0.49583519 0.639297
vt 0.55704933 0.7212051
vt 0.5348768 0.6376467
vt 0.5477723 0.5547023
vt 0.9912213 0.29271665
vt 0.93510056 0.3843824
vt 0.9927472 0.3798619
vt 0.9334518 0.29021704
vt 0.9927472 0.23105
vt 0.93510056 0.22358271
vt 0.85862416 0.6843532
vt 0.9161312 0.69282854
vt 0.9189463 0.62623334
vt 0.86122936 0.62272274
vt 0.9189463 0.53205353
vt 0.86122936 0.5355641
vt 0.9161312 0.4654583
vt 0.85862416 0.47393367
vt 0.85862416 0.44247758
vt 0.9161312 0.45095295
vt 0.9189463 0.38435772
vt 0.86122936 0.38084713
vt 0.9189463 0.29017794
vt 0.86122936 0.29368854
vt 0.9161312 0.22358271
vt 0.85862416 0.23205808
vt 0.935429 0.5693932
vt 0.9527092 0.5226198
vt 0.9334518 0.5226198
vt 0.9546864 0.5693932
vt 0.935429 0.63554084
vt 0.9546864 0.63554084
vt 0.9334518 0.68231434
vt 0.9527092 0.68231434
vt 0.79125196 0.8603688
vt 0.79125196 0.79422116
vt 0.74447846 0.7474477
vt 0.7444786 0.9071423
vt 0.67833084 0.7474477
vt 0.6783309 0.9071423
vt 0.63155746 0.7942212
vt 0.63155746 0.86036885
vt 0.9753735 0.0072526634
vt 0.95611906 0.007589802
vt 0.95496106 0.054390714
vt 0.9742155 0.054053575
vt 0.95611906 0.120528206
vt 0.9753735 0.12019108
vt 0.5916245 0.73790985
vt 0.5723671 0.73790985
vt 0.57038987 0.7846833
vt 0.5896473 0.7846833
vt 0.57038987 0.8508309
vt 0.5896473 0.8508309
vt 0.5723671 0.8976044
vt 0.5916245 0.89760435
vt 0.0072526634 0.89868486
vt 0.04109052 0.81852114
vt 0.007252693 0.8045051
vt 0.04109052 0.8846688
vt 0.08786401 0.77174777
vt 0.073847845 0.9652801
vt 0.07384792 0.7379099
vt 0.08786395 0.93144226
vt 0.15401162 0.77174777
vt 0.16802764 0.9652801
vt 0.16802771 0.7379099
vt 0.15401156 0.93144226
vt 0.20078504 0.81852126
vt 0.23462288 0.898685
vt 0.23462288 0.80450517
vt 0.20078504 0.8846688
vt 0.39112872 0.7542989
vt 0.31075865 0.7379099
vt 0.3175472 0.7542989
vt 0.39791727 0.7379099
vt 0.2491282 0.7995403
vt 0.44315866 0.8063289
vt 0.26551718 0.8063289
vt 0.45954764 0.7995404
vt 0.2491282 0.88669896
vt 0.44315866 0.87991047
vt 0.26551718 0.87991035
vt 0.45954767 0.88669896
vt 0.3107586 0.9483294
vt 0.39112866 0.9319404
vt 0.31754714 0.9319404
vt 0.3979172 0.9483294
vn 0.70709217 0.70709217 0.0064202435
vn 0.9180804 0 0.3963941
vn 0.6491808 0.64918095 0.39639413
vn 0.9999794 0 0.006420214
vn 0.6902892 0.6902892 -0.21679856
vn 0.6491809 -0.6491809 0.39639413
vn 0.89531535 0 0.44543275
vn 0.70709217 -0.70709217 0.0064202356
vn 0.63308364 -0.63308364 0.44543278
vn 0.9762164 0 -0.21679856
vn 0.6663419 0.66634184 -0.33462963
vn 0.69028914 -0.69028926 -0.21679859
vn 0.94234973 0 -0.33462968
vn 0.66634184 -0.6663419 -0.33462963
vn 0.7057787 0.7057788 0.06125967
vn 0.9981218 0 0.061259657
vn 0.70577866 -0.7057788 0.061259653
vn 0.6867945 -0.6867947 0.2379625
vn 0.9712743 0 0.23796257
vn 0.5489851 -0.5489852 -0.63026243
vn 0.68679464 0.68679464 0.23796254
vn 0.77638215 0 -0.6302624
vn 0.5489851 0.5489851 -0.63026243
vn 0.70709217 -0.70709217 0.0064202356
vn -0 -0.9180804 0.39639416
vn 0.6491809 -0.6491809 0.39639413
vn -0 -0.9999794 0.0064202114
vn 0.69028914 -0.69028926 -0.21679859
vn -0.6491808 -0.649181 0.39639413
vn -0 -0.89531535 0.44543275
vn -0 -0.9762164 -0.21679859
vn 0.66634184 -0.6663419 -0.33462963
vn -0.70709217 -0.7070921 0.0064201835
vn -0.6330835 -0.63308364 0.44543278
vn -0.9180804 0 0.3963941
vn -0 -0.9981622 -0.060599014
vn -0.9999794 0 0.006420206
vn -0.7058073 -0.7058072 -0.060599007
vn -0.89531547 0 0.44543278
vn -0 -0.48771238 -0.8730044
vn -0.9981622 0 -0.06059902
vn -0.34486374 -0.34486496 -0.87300473
vn -0.48771235 0 -0.8730044
vn -0.6902892 -0.69028914 -0.21679854
vn -0.9762164 0 -0.21679854
vn -0 -0.94234973 -0.3346297
vn 0.70577866 -0.7057788 0.061259653
vn -0.6663419 -0.6663419 -0.33462968
vn -0.94234973 0 -0.33462968
vn -0 -0.9981218 0.06125959
vn -0.70577866 -0.7057788 0.061259612
vn -0.9981218 0 0.061259635
vn -0.9712743 0 0.23796257
vn -0.68679464 -0.6867947 0.23796256
vn -0.7763821 0 -0.6302625
vn -0.548985 -0.54898506 -0.63026243
vn -0 -0.9712743 0.2379625
vn 0.6867945 -0.6867947 0.2379625
vn -0 -0.77638215 -0.6302624
vn 0.5489851 -0.5489852 -0.63026243
vn -0 -0.9180804 0.39639416
vn -0 -0.89531535 0.44543275
vn 0.63308364 -0.63308364 0.44543278
vn 0.6491809 -0.6491809 0.39639413
vn -0.9999794 0 0.006420206
vn -0.64918095 0.6491809 0.39639407
vn -0.9180804 0 0.3963941
vn -0.70709217 0.70709217 0.006420243
vn -0.9762164 0 -0.21679854
vn -0 0.9180804 0.39639407
vn -0.63308364 0.6330836 0.44543266
vn -0.69028914 0.6902892 -0.21679853
vn -0.94234973 0 -0.33462968
vn -0 0.9999794 0.006420268
vn 0.6491808 0.64918095 0.39639413
vn 0.70709217 0.70709217 0.0064202435
vn -0 0.89531535 0.44543275
vn -0 0.9762164 -0.21679848
vn 0.6902892 0.6902892 -0.21679856
vn -0.6663419 0.66634184 -0.33462963
vn -0.9981218 0 0.061259635
vn -0 0.94234973 -0.3346296
vn 0.6663419 0.66634184 -0.33462963
vn -0.7057788 0.7057787 0.06125969
vn -0 0.9981218 0.061259717
vn 0.7057787 0.7057788 0.06125967
vn 0.68679464 0.68679464 0.23796254
vn -0 0.9712743 0.23796259
vn 0.5489851 0.5489851 -0.63026243
vn -0 0.7763822 -0.6302624
vn -0.68679464 0.68679464 0.23796254
vn -0.9712743 0 0.23796257
vn -0.548985 0.54898506 -0.63026243
vn -0.7763821 0 -0.6302625
vn 0.5489851 -0.5489852 -0.63026243
vn 0.77638215 0 -0.6302624
vn 0.5489851 0.5489851 -0.63026243
vn -0 -0.77638215 -0.6302624
vn -0 0.7763822 -0.6302624
vn -0.548985 0.54898506 -0.63026243
vn -0.548985 -0.54898506 -0.63026243
vn -0.7763821 0 -0.6302625
vn -0 -0.9981622 -0.060599014
vn -0 -0.48771238 -0.8730044
vn 0.34486482 -0.34486493 -0.8730044
vn 0.7058072 -0.7058074 -0.060599033
vn -0 -0.89531535 0.44543275
vn 0.48771232 0 -0.87300444
vn 0.9981622 0 -0.060598984
vn 0.3448651 0.34486473 -0.87300426
vn 0.7058073 0.7058073 -0.060598955
vn 0.6330835 0.63308364 0.44543278
vn -0.64918095 0.6491809 0.39639407
vn -0.63308364 0.6330836 0.44543266
vn -0.89531547 0 0.44543278
vn -0.9180804 0 0.3963941
vn -0.6330835 -0.63308364 0.44543278
vn -0.6491808 -0.649181 0.39639413
vn 0.9180804 0 0.3963941
vn 0.89531535 0 0.44543275
vn 0.6330835 0.63308364 0.44543278
vn 0.6491808 0.64918095 0.39639413
vn -0 0.89531535 0.44543275
vn -0 0.9180804 0.39639407
vn 0.7058073 0.7058073 -0.060598955
vn 0.3448651 0.34486473 -0.87300426
vn -0 0.48771232 -0.87300444
vn -0 0.9981622 -0.060599037
vn 0.6330835 0.63308364 0.44543278
vn -0.34486616 0.34486458 -0.8730039
vn -0.7058073 0.7058072 -0.06059906
vn -0.48771235 0 -0.8730044
vn -0.9981622 0 -0.06059902
vn -0.89531547 0 0.44543278
vn -0.51265395 -0.5126548 -0.688746
vn -0 -0.8216845 0.5699427
vn -0 -0.7250031 -0.68874556
vn -0.5810187 -0.58101845 0.5699427
vn -0.72500306 0 -0.6887457
vn -0.82168466 0 0.5699425
vn 0.51265496 0.5126545 -0.6887455
vn 0.5810185 0.5810186 0.56994283
vn -0 0.8216845 0.56994265
vn -0 0.7250031 -0.6887456
vn -0.58101875 0.5810187 0.56994253
vn -0.5126554 0.51265436 -0.6887452
vn -0.82168466 0 0.5699425
vn -0.72500306 0 -0.6887457
vn -0 -0.7250031 -0.68874556
vn -0 -0.8216845 0.5699427
vn 0.58101857 -0.5810187 0.56994283
vn 0.51265454 -0.5126546 -0.6887457
vn 0.8216844 0 0.5699428
vn 0.7250031 0 -0.68874556
vn 0.5810185 0.5810186 0.56994283
vn 0.51265496 0.5126545 -0.6887455
vn 0.5943765 0 0.80418694
vn 0.54898506 0.54898494 0.6302627
vn 0.42028832 0.4202881 0.8041864
vn 0.7763821 0 0.6302626
vn 0.420288 -0.4202881 0.8041865
vn 0.5489851 -0.5489849 0.6302627
vn -0 -0.59437686 0.8041867
vn -0 -0.776382 0.6302626
vn -0.5489852 -0.54898494 0.6302625
vn -0.7763822 0 0.6302624
vn -0.5489851 0.54898494 0.6302625
vn -0 -0.776382 0.6302626
vn -0 0.77638215 0.6302625
vn 0.5489851 -0.5489849 0.6302627
vn 0.54898506 0.54898494 0.6302627
vn 0.7763821 0 0.6302626
vn -0.59437734 0 0.8041862
vn -0.7763822 0 0.6302624
vn -0.5489852 -0.54898494 0.6302625
vn -0.42028856 -0.420288 0.8041862
vn -0 -0.776382 0.6302626
vn -0 -0.59437686 0.8041867
vn 0.42028832 0.4202881 0.8041864
vn 0.54898506 0.54898494 0.6302627
vn -0 0.77638215 0.6302625
vn -0 0.59437686 0.8041866
vn -0.5489851 0.54898494 0.6302625
vn -0.42028826 0.42028812 0.8041863
vn -0.7763822 0 0.6302624
vn -0.59437734 0 0.8041862
vn 0.5810185 0.5810186 0.56994283
vn -0 -0.59437686 0.8041867
vn -0 0.8216845 0.56994265
vn -0.42028856 -0.420288 0.8041862
vn 0.420288 -0.4202881 0.8041865
vn 0.8216844 0 0.5699428
vn -0.58101875 0.5810187 0.56994253
vn -0.59437734 0 0.8041862
vn 0.5943765 0 0.80418694
vn 0.58101857 -0.5810187 0.56994283
vn -0.82168466 0 0.5699425
vn -0.42028826 0.42028812 0.8041863
vn 0.42028832 0.4202881 0.8041864
vn -0 -0.8216845 0.5699427
vn -0.5810187 -0.58101845 0.5699427
vn -0 0.59437686 0.8041866
vn 0.48771232 0 -0.87300444
vn 0.51265496 0.5126545 -0.6887455
vn 0.3448651 0.34486473 -0.87300426
vn 0.7250031 0 -0.68874556
vn -0 0.7250031 -0.6887456
vn 0.34486482 -0.34486493 -0.8730044
vn -0 0.48771232 -0.87300444
vn 0.51265454 -0.5126546 -0.6887457
vn -0.5126554 0.51265436 -0.6887452
vn -0 -0.48771238 -0.8730044
vn -0.34486616 0.34486458 -0.8730039
vn -0 -0.7250031 -0.68874556
vn -0.72500306 0 -0.6887457
vn -0.34486374 -0.34486496 -0.87300473
vn -0.48771235 0 -0.8730044
vn -0.51265395 -0.5126548 -0.688746
g PotSmall_0
f 3/3/3 2/2/2 1/1/1
f 2/2/2 4/4/4 1/1/1
f 1/1/1 4/4/4 5/5/5
f 2/2/2 6/6/6 4/4/4
f 2/2/2 7/7/7 6/6/6
f 6/6/6 8/8/8 4/4/4
f 7/7/7 9/9/9 6/6/6
f 4/4/4 10/10/10 5/5/5
f 4/4/4 8/8/8 10/10/10
f 5/5/5 10/10/10 11/11/11
f 8/8/8 12/12/12 10/10/10
f 10/10/10 13/13/13 11/11/11
f 10/10/10 12/12/12 13/13/13
f 12/12/12 14/14/14 13/13/13
f 11/11/11 13/13/13 15/15/15
f 13/13/13 14/14/14 16/16/16
f 13/13/13 16/16/16 15/15/15
f 14/14/14 17/17/17 16/16/16
f 17/17/17 18/18/18 16/16/16
f 16/16/16 19/19/19 15/15/15
f 18/18/18 19/19/19 16/16/16
f 18/18/18 20/20/20 19/19/19
f 19/19/19 21/21/21 15/15/15
f 20/20/20 22/22/22 19/19/19
f 19/19/19 22/22/22 21/21/21
f 22/22/22 23/23/23 21/21/21
f 26/26/26 25/25/25 24/24/24
f 25/25/25 27/27/27 24/24/24
f 24/24/24 27/27/27 28/28/28
f 25/25/25 29/29/29 27/27/27
f 25/25/25 30/30/30 29/29/29
f 27/27/27 31/31/31 28/28/28
f 28/28/28 31/31/31 32/32/32
f 29/29/29 33/33/33 27/27/27
f 27/27/27 33/33/33 31/31/31
f 30/30/30 34/34/34 29/29/29
f 29/29/29 35/35/35 33/33/33
f 30/30/30 36/36/36 34/34/34
f 35/35/35 37/37/37 33/33/33
f 36/36/36 38/38/38 34/34/34
f 34/34/34 38/38/38 39/39/39
f 36/36/36 40/40/40 38/38/38
f 38/38/38 41/41/41 39/39/39
f 40/40/40 42/42/42 38/38/38
f 38/38/38 42/42/42 41/41/41
f 42/42/42 43/43/43 41/41/41
f 33/33/33 37/37/37 44/44/44
f 33/33/33 44/44/44 31/31/31
f 37/37/37 45/45/45 44/44/44
f 31/31/31 44/44/44 46/46/46
f 31/31/31 46/46/46 32/32/32
f 32/32/32 46/46/46 47/47/47
f 44/44/44 45/45/45 48/48/48
f 44/44/44 48/48/48 46/46/46
f 45/45/45 49/49/49 48/48/48
f 46/46/46 50/50/50 47/47/47
f 46/46/46 48/48/48 50/50/50
f 48/48/48 49/49/49 51/51/51
f 48/48/48 51/51/51 50/50/50
f 49/49/49 52/52/52 51/51/51
f 52/52/52 53/53/53 51/51/51
f 53/53/53 54/54/54 51/51/51
f 51/51/51 54/54/54 50/50/50
f 53/53/53 55/55/55 54/54/54
f 55/55/55 56/56/56 54/54/54
f 50/50/50 57/57/57 47/47/47
f 54/54/54 57/57/57 50/50/50
f 54/54/54 56/56/56 57/57/57
f 57/57/57 58/58/58 47/47/47
f 56/56/56 59/59/59 57/57/57
f 57/57/57 59/59/59 58/58/58
f 59/59/59 60/60/60 58/58/58
f 63/63/63 62/62/62 61/61/61
f 64/64/64 63/63/63 61/61/61
f 67/67/67 66/66/66 65/65/65
f 66/66/66 68/68/68 65/65/65
f 65/65/65 68/68/68 69/69/69
f 66/66/66 70/70/70 68/68/68
f 66/66/66 71/71/71 70/70/70
f 68/68/68 72/72/72 69/69/69
f 69/69/69 72/72/72 73/73/73
f 70/70/70 74/74/74 68/68/68
f 68/68/68 74/74/74 72/72/72
f 70/70/70 75/75/75 74/74/74
f 75/75/75 76/76/76 74/74/74
f 71/71/71 77/77/77 70/70/70
f 74/74/74 76/76/76 78/78/78
f 74/74/74 78/78/78 72/72/72
f 76/76/76 79/79/79 78/78/78
f 72/72/72 80/80/80 73/73/73
f 72/72/72 78/78/78 80/80/80
f 73/73/73 80/80/80 81/81/81
f 78/78/78 79/79/79 82/82/82
f 78/78/78 82/82/82 80/80/80
f 79/79/79 83/83/83 82/82/82
f 80/80/80 84/84/84 81/81/81
f 80/80/80 82/82/82 84/84/84
f 82/82/82 83/83/83 85/85/85
f 82/82/82 85/85/85 84/84/84
f 83/83/83 86/86/86 85/85/85
f 86/86/86 87/87/87 85/85/85
f 87/87/87 88/88/88 85/85/85
f 85/85/85 88/88/88 84/84/84
f 87/87/87 89/89/89 88/88/88
f 89/89/89 90/90/90 88/88/88
f 84/84/84 91/91/91 81/81/81
f 88/88/88 91/91/91 84/84/84
f 88/88/88 90/90/90 91/91/91
f 91/91/91 92/92/92 81/81/81
f 90/90/90 93/93/93 91/91/91
f 91/91/91 93/93/93 92/92/92
f 93/93/93 94/94/94 92/92/92
f 97/97/97 96/96/96 95/95/95
f 95/95/95 98/98/98 97/97/97
f 98/98/98 99/99/99 97/97/97
f 98/98/98 100/100/100 99/99/99
f 98/98/98 101/101/101 100/100/100
f 101/101/101 102/102/102 100/100/100
f 105/105/105 104/104/104 103/103/103
f 106/106/106 105/105/105 103/103/103
f 106/106/106 103/103/103 107/107/107
f 108/108/108 105/105/105 106/106/106
f 9/9/9 106/106/106 107/107/107
f 109/109/109 108/108/108 106/106/106
f 109/109/109 106/106/106 9/9/9
f 110/110/110 108/108/108 109/109/109
f 7/7/7 109/109/109 9/9/9
f 111/111/111 110/110/110 109/109/109
f 111/111/111 109/109/109 7/7/7
f 112/112/112 111/111/111 7/7/7
f 115/115/115 114/114/114 113/113/113
f 116/116/116 115/115/115 113/113/113
f 117/117/117 115/115/115 116/116/116
f 118/118/118 117/117/117 116/116/116
f 121/121/121 120/120/120 119/119/119
f 122/122/122 121/121/121 119/119/119
f 123/123/123 121/121/121 122/122/122
f 124/124/124 123/123/123 122/122/122
f 127/127/127 126/126/126 125/125/125
f 128/128/128 127/127/127 125/125/125
f 128/128/128 125/125/125 129/129/129
f 130/130/130 127/127/127 128/128/128
f 77/77/77 128/128/128 129/129/129
f 131/131/131 130/130/130 128/128/128
f 131/131/131 128/128/128 77/77/77
f 132/132/132 130/130/130 131/131/131
f 71/71/71 131/131/131 77/77/77
f 133/133/133 132/132/132 131/131/131
f 133/133/133 131/131/131 71/71/71
f 134/134/134 133/133/133 71/71/71
f 137/137/137 136/136/136 135/135/135
f 136/136/136 138/138/138 135/135/135
f 135/135/135 138/138/138 139/139/139
f 138/138/138 140/140/140 139/139/139
f 143/143/143 142/142/142 141/141/141
f 144/144/144 143/143/143 141/141/141
f 145/145/145 143/143/143 144/144/144
f 146/146/146 145/145/145 144/144/144
f 147/147/147 145/145/145 146/146/146
f 148/148/148 147/147/147 146/146/146
f 151/151/151 150/150/150 149/149/149
f 152/152/152 151/151/151 149/149/149
f 153/153/153 151/151/151 152/152/152
f 154/154/154 153/153/153 152/152/152
f 155/155/155 153/153/153 154/154/154
f 156/156/156 155/155/155 154/154/154
f 159/159/159 158/158/158 157/157/157
f 158/158/158 160/160/160 157/157/157
f 157/157/157 160/160/160 161/161/161
f 160/160/160 162/162/162 161/161/161
f 161/161/161 162/162/162 163/163/163
f 162/162/162 164/164/164 163/163/163
f 167/167/167 166/166/166 165/165/165
f 165/165/165 168/168/168 167/167/167
f 168/168/168 169/169/169 167/167/167
f 168/168/168 170/170/170 169/169/169
f 170/170/170 171/171/171 169/169/169
f 170/170/170 172/172/172 171/171/171
f 175/175/175 174/174/174 173/173/173
f 176/176/176 175/175/175 173/173/173
f 177/177/177 175/175/175 176/176/176
f 178/178/178 177/177/177 176/176/176
f 181/181/181 180/180/180 179/179/179
f 182/182/182 181/181/181 179/179/179
f 183/183/183 181/181/181 182/182/182
f 184/184/184 183/183/183 182/182/182
f 185/185/185 183/183/183 184/184/184
f 186/186/186 185/185/185 184/184/184
f 189/189/189 188/188/188 187/187/187
f 188/188/188 190/190/190 187/187/187
f 191/191/191 188/188/188 189/189/189
f 187/187/187 190/190/190 192/192/192
f 193/193/193 191/191/191 189/189/189
f 190/190/190 194/194/194 192/192/192
f 195/195/195 191/191/191 193/193/193
f 192/192/192 194/194/194 196/196/196
f 197/197/197 195/195/195 193/193/193
f 194/194/194 198/198/198 196/196/196
f 199/199/199 195/195/195 197/197/197
f 196/196/196 198/198/198 200/200/200
f 201/201/201 199/199/199 197/197/197
f 198/198/198 202/202/202 200/200/200
f 202/202/202 199/199/199 201/201/201
f 200/200/200 202/202/202 201/201/201
f 205/205/205 204/204/204 203/203/203
f 204/204/204 206/206/206 203/203/203
f 207/207/207 204/204/204 205/205/205
f 203/203/203 206/206/206 208/208/208
f 209/209/209 207/207/207 205/205/205
f 206/206/206 210/210/210 208/208/208
f 211/211/211 207/207/207 209/209/209
f 208/208/208 210/210/210 212/212/212
f 213/213/213 211/211/211 209/209/209
f 210/210/210 214/214/214 212/212/212
f 215/215/215 211/211/211 213/213/213
f 212/212/212 214/214/214 216/216/216
f 217/217/217 215/215/215 213/213/213
f 214/214/214 218/218/218 216/216/216
f 218/218/218 215/215/215 217/217/217
f 216/216/216 218/218/218 217/217/217
