g Render
v 13.012014 0.3280253 11.701406
v 13.012014 0.16401266 11.417327
v 13.012014 -0.16401269 11.417327
v 13.012014 -0.3280253 11.701406
v 13.012014 0.16401263 11.985484
v 13.012014 -0.16401263 11.985484
v -13.008488 -0.32802543 -0.5850704
v -13.008488 -0.16401273 -0.86914873
v -13.008488 0.16401269 -0.86914873
v -13.008488 0.3280254 -0.5850704
v -13.008488 -0.16401266 -0.30099204
v -13.008488 0.16401266 -0.30099204
v -13.008488 0.16401266 -0.30099204
v -13.008488 0.3280254 -0.5850704
v -4.6163244 0.3280253 1.3346915
v -4.724962 0.16401266 1.5971764
v -13.008488 -0.16401266 -0.30099204
v -4.724962 -0.16401266 1.5971764
v 2.1210613 0.32802534 5.558168
v 1.9607164 0.16401266 5.7926674
v 2.2814064 0.16401266 5.3236685
v -4.5076866 0.16401266 1.0722066
v 7.934044 0.16401266 9.531827
v 7.7987976 0.3280253 9.781645
v 7.6635513 0.16401266 10.031463
v 13.012014 0.3280253 11.701406
v 13.012014 0.16401263 11.985484
v 7.6635513 -0.16401266 10.031463
v 13.012014 -0.16401263 11.985484
v -13.008488 -0.32802543 -0.5850704
v -13.008488 -0.16401266 -0.30099204
v -4.724962 -0.16401266 1.5971764
v -4.6163244 -0.32802534 1.3346915
v -13.008488 -0.16401273 -0.86914873
v 1.9607162 -0.16401266 5.7926674
v -4.5076866 -0.1640127 1.0722066
v 2.1210613 -0.32802537 5.558168
v 7.6635513 -0.16401266 10.031463
v 2.2814064 -0.16401269 5.3236685
v 7.7987976 -0.32802534 9.781645
v 13.012014 -0.16401263 11.985484
v 7.934044 -0.16401272 9.531827
v 13.012014 -0.3280253 11.701406
v 13.012014 -0.16401269 11.417327
v -13.008488 0.16401269 -0.86914873
v -13.008488 -0.16401273 -0.86914873
v -4.5076866 -0.1640127 1.0722066
v -4.5076866 0.16401266 1.0722066
v -13.008488 0.3280254 -0.5850704
v -4.6163244 0.3280253 1.3346915
v 2.2814064 -0.16401269 5.3236685
v 2.2814064 0.16401266 5.3236685
v 7.934044 -0.16401272 9.531827
v 7.934044 0.16401266 9.531827
v 13.012014 -0.16401269 11.417327
v 13.012014 0.16401266 11.417327
v 7.7987976 0.3280253 9.781645
v 13.012014 0.3280253 11.701406
v -4.724962 -0.16401266 1.5971764
v -4.724962 0.16401266 1.5971764
v 1.9607164 0.16401266 5.7926674
v 1.9607162 -0.16401266 5.7926674
v 7.6635513 0.16401266 10.031463
v 7.6635513 -0.16401266 10.031463
v -2.2659872E-08 0.21181728 -2.5120277
v 0.20145011 0.06545514 -2.5120277
v 0.17360836 0.06545513 4.197073
v 8.311253E-09 0.2118173 4.0948853
v -0.20145017 0.06545518 -2.5120277
v -0.17360836 0.06545519 3.9926977
v 0.20145011 0.06545514 -2.5120277
v 0.12450296 -0.17136373 -2.5120277
v 0.10729585 -0.17136374 4.1580405
v 0.17360836 0.06545513 4.197073
v 0.12450296 -0.17136373 -2.5120277
v -0.12450303 -0.17136359 -2.5120277
v -0.107295856 -0.17136359 4.03173
v 0.10729585 -0.17136374 4.1580405
v 8.311253E-09 0.2118173 4.0948853
v 0.17360836 0.06545513 4.197073
v 0.10729585 -0.17136374 4.1580405
v -0.107295856 -0.17136359 4.03173
v -0.17360836 0.06545519 3.9926977
v -0.12450303 -0.17136359 -2.5120277
v -0.20145017 0.06545518 -2.5120277
v 0.12450296 -0.17136373 -2.5120277
v 0.20145011 0.06545514 -2.5120277
v -2.2659872E-08 0.21181728 -2.5120277
v -0.12450303 -0.17136359 -2.5120277
v -0.20145017 0.06545518 -2.5120277
v -9.913429 0.2118173 -2.5120277
v -9.711979 0.06545515 -2.5120277
v -9.719295 0.065455176 0.16288638
v -9.913429 0.2118173 0.109093904
v -10.11488 0.065455146 -2.512028
v -9.7934475 -0.17136383 0.14233947
v -10.107564 0.065455124 0.05530119
v -10.033413 -0.1713635 0.075847626
v -9.711979 0.06545515 -2.5120277
v -9.788927 -0.1713638 -2.5120277
v -9.7934475 -0.17136383 0.14233947
v -9.719295 0.065455176 0.16288638
v -9.788927 -0.1713638 -2.5120277
v -10.037933 -0.17136353 -2.5120277
v -10.033413 -0.1713635 0.075847626
v -9.7934475 -0.17136383 0.14233947
v -10.037933 -0.17136353 -2.5120277
v -10.11488 0.065455146 -2.512028
v -10.107564 0.065455124 0.05530119
v -10.033413 -0.1713635 0.075847626
v -9.788927 -0.1713638 -2.5120277
v -9.711979 0.06545515 -2.5120277
v -9.913429 0.2118173 -2.5120277
v -10.037933 -0.17136353 -2.5120277
v -10.11488 0.065455146 -2.512028
v 10.025356 0.2118173 -2.5120277
v 10.226807 0.065455094 -2.512028
v 10.223978 0.06545514 10.5643015
v 10.025356 0.2118173 10.530659
v 9.823907 0.06545529 -2.5120277
v 10.148111 -0.17136374 10.551451
v 9.8267355 0.06545527 10.497016
v 9.902602 -0.1713635 10.509867
v 10.226807 0.065455094 -2.512028
v 10.14986 -0.17136377 -2.5120277
v 10.148111 -0.17136374 10.551451
v 10.223978 0.06545514 10.5643015
v 10.14986 -0.17136377 -2.5120277
v 9.900854 -0.17136353 -2.5120277
v 9.902602 -0.1713635 10.509867
v 10.148111 -0.17136374 10.551451
v 9.900854 -0.17136353 -2.5120277
v 9.823907 0.06545529 -2.5120277
v 9.8267355 0.06545527 10.497016
v 9.902602 -0.1713635 10.509867
v 10.14986 -0.17136377 -2.5120277
v 10.226807 0.065455094 -2.512028
v 10.025356 0.2118173 -2.5120277
v 9.900854 -0.17136353 -2.5120277
v 9.823907 0.06545529 -2.5120277
vt 0.52978516 0.53564453
vt 0.52978516 0.52441406
vt 0.5205078 0.51904297
vt 0.51123047 0.52441406
vt 0.5205078 0.5410156
vt 0.51123047 0.53564453
vt 0.3762207 0.48535156
vt 0.36669922 0.47973633
vt 0.35717773 0.48510742
vt 0.35717773 0.49609375
vt 0.3762207 0.4963379
vt 0.36669922 0.50146484
vt 0.20251465 0.018173218
vt 0.19238281 0.013916016
vt 0.13342285 0.2944336
vt 0.14428711 0.29516602
vt 0.20800781 0.01828003
vt 0.14990234 0.29516602
vt 0.15551758 0.5595703
vt 0.1665039 0.55810547
vt 0.15014648 0.56103516
vt 0.12792969 0.2939453
vt 0.18603516 0.79296875
vt 0.19152832 0.79248047
vt 0.20251465 0.79248047
vt 0.17370605 0.97753906
vt 0.18383789 0.9819336
vt 0.20800781 0.79248047
vt 0.18933105 0.9819336
vt 0.091552734 0.9819336
vt 0.100097656 0.97753906
vt 0.03289795 0.7011719
vt 0.023406982 0.70166016
vt 0.08306885 0.98583984
vt 0.05847168 0.43774414
vt 0.013916016 0.70214844
vt 0.049041748 0.43652344
vt 0.100097656 0.20349121
vt 0.039642334 0.43530273
vt 0.09057617 0.203125
vt 0.078552246 0.013916016
vt 0.08105469 0.20275879
vt 0.070007324 0.018173218
vt 0.06149292 0.02243042
vt 0.24133301 0.94921875
vt 0.25219727 0.94921875
vt 0.25219727 0.65722656
vt 0.24133301 0.65722656
vt 0.23583984 0.9472656
vt 0.23583984 0.6591797
vt 0.25219727 0.40698242
vt 0.24133301 0.40698242
vt 0.25219727 0.19458008
vt 0.24133301 0.19458008
vt 0.25219727 0.015701294
vt 0.24133301 0.015701294
vt 0.23583984 0.19750977
vt 0.23583984 0.013916016
vt 0.43164062 0.30200195
vt 0.4423828 0.30395508
vt 0.4399414 0.16027832
vt 0.42944336 0.15820312
vt 0.4423828 0.015960693
vt 0.43164062 0.013916016
vt 0.4753418 0.26660156
vt 0.47021484 0.26953125
vt 0.47192383 0.46972656
vt 0.47631836 0.4638672
vt 0.4831543 0.26782227
vt 0.4831543 0.4621582
vt 0.51904297 0.26660156
vt 0.51123047 0.26660156
vt 0.51123047 0.48999023
vt 0.51904297 0.49121094
vt 0.51123047 0.23730469
vt 0.51953125 0.23730469
vt 0.51904297 0.0181427
vt 0.51171875 0.013916016
vt 0.47021484 0.23522949
vt 0.47558594 0.23864746
vt 0.48339844 0.23742676
vt 0.48242188 0.2331543
vt 0.4741211 0.23181152
vt 0.48339844 0.013954163
vt 0.47509766 0.013916016
vt 0.36206055 0.54296875
vt 0.3701172 0.54003906
vt 0.3701172 0.5317383
vt 0.35717773 0.5361328
vt 0.36206055 0.52978516
vt 0.2854004 0.43798828
vt 0.2800293 0.44091797
vt 0.28051758 0.5205078
vt 0.28564453 0.5161133
vt 0.2932129 0.43945312
vt 0.2849121 0.5234375
vt 0.2932129 0.5161133
vt 0.2927246 0.5205078
vt 0.4375 0.3317871
vt 0.42944336 0.3317871
vt 0.42944336 0.4206543
vt 0.4375 0.42138672
vt 0.42944336 0.53808594
vt 0.43774414 0.53808594
vt 0.4375 0.45141602
vt 0.42944336 0.44921875
vt 0.5551758 0.26660156
vt 0.546875 0.26660156
vt 0.546875 0.35253906
vt 0.5551758 0.35327148
vt 0.48266602 0.5083008
vt 0.48266602 0.5
vt 0.47485352 0.4975586
vt 0.47485352 0.5107422
vt 0.47021484 0.50439453
vt 0.2854004 0.013916016
vt 0.2800293 0.016815186
vt 0.28027344 0.40722656
vt 0.28564453 0.4033203
vt 0.2932129 0.015335083
vt 0.28466797 0.41015625
vt 0.2932129 0.4038086
vt 0.2927246 0.40795898
vt 0.36547852 0.013916016
vt 0.35717773 0.013916016
vt 0.35717773 0.45141602
vt 0.36547852 0.4519043
vt 0.3293457 0.013916016
vt 0.32104492 0.013916016
vt 0.32128906 0.4501953
vt 0.3293457 0.45141602
vt 0.4013672 0.013916016
vt 0.39331055 0.013916016
vt 0.39331055 0.44970703
vt 0.4013672 0.4501953
vt 0.48291016 0.5415039
vt 0.47509766 0.5385742
vt 0.47021484 0.54541016
vt 0.48291016 0.5493164
vt 0.47509766 0.5522461
vn 1 0 0
vn 1 0 0
vn 1 0 0
vn 1 0 0
vn 1 0 0
vn 1 0 0
vn -1 0 0
vn -1 0 0
vn -1 0 0
vn -1 0 0
vn -1 0 0
vn -1 0 0
vn -0.19006348 0.52490234 0.82958984
vn 0.016098022 0.9975586 -0.07086182
vn 0.02017212 0.99853516 -0.049194336
vn -0.3256836 0.52441406 0.7866211
vn -0.19006348 -0.52490234 0.82958984
vn -0.3256836 -0.52441406 0.7866211
vn 0.0071792603 1 -0.010520935
vn -0.4873047 0.50439453 0.7128906
vn 0.4909668 0.4934082 -0.71777344
vn 0.33544922 0.47851562 -0.81152344
vn 0.40771484 0.5185547 -0.75146484
vn -0.02142334 0.99902344 0.040649414
vn -0.4165039 0.47924805 0.77246094
vn -0.039031982 0.99316406 0.10821533
vn -0.30859375 0.4399414 0.8432617
vn -0.4165039 -0.47924805 0.77246094
vn -0.30859375 -0.4399414 0.8432617
vn 0.016098022 -0.9975586 -0.07086182
vn -0.19006348 -0.52490234 0.82958984
vn -0.3256836 -0.52441406 0.7866211
vn 0.02017212 -0.99853516 -0.049194336
vn 0.1973877 -0.4633789 -0.86376953
vn -0.4873047 -0.50439453 0.7128906
vn 0.33544922 -0.47851562 -0.81152344
vn 0.0071792603 -1 -0.010520935
vn -0.4165039 -0.47924805 0.77246094
vn 0.4909668 -0.4934082 -0.71777344
vn -0.02142334 -0.99902344 0.040649414
vn -0.30859375 -0.4399414 0.8432617
vn 0.40771484 -0.5185547 -0.75146484
vn -0.039031982 -0.99316406 0.10821533
vn 0.29345703 -0.5361328 -0.7915039
vn 0.1973877 0.4633789 -0.86376953
vn 0.1973877 -0.4633789 -0.86376953
vn 0.33544922 -0.47851562 -0.81152344
vn 0.33544922 0.47851562 -0.81152344
vn 0.016098022 0.9975586 -0.07086182
vn 0.02017212 0.99853516 -0.049194336
vn 0.4909668 -0.4934082 -0.71777344
vn 0.4909668 0.4934082 -0.71777344
vn 0.40771484 -0.5185547 -0.75146484
vn 0.40771484 0.5185547 -0.75146484
vn 0.29345703 -0.5361328 -0.7915039
vn 0.29345703 0.5361328 -0.7915039
vn -0.02142334 0.99902344 0.040649414
vn -0.039031982 0.99316406 0.10821533
vn -0.3256836 -0.52441406 0.7866211
vn -0.3256836 0.52441406 0.7866211
vn -0.4873047 0.50439453 0.7128906
vn -0.4873047 -0.50439453 0.7128906
vn -0.4165039 0.47924805 0.77246094
vn -0.4165039 -0.47924805 0.77246094
vn -0.00022137165 0.7963867 -0.60498047
vn 0.7714844 0.24438477 -0.58740234
vn 0.5439453 0.24499512 0.8022461
vn -0.14562988 0.82666016 0.54345703
vn -0.7714844 0.24438477 -0.58740234
vn -0.8911133 0.24914551 0.37890625
vn 0.7714844 0.24438477 -0.58740234
vn 0.47827148 -0.6435547 -0.59765625
vn 0.29663086 -0.65625 0.69384766
vn 0.5439453 0.24499512 0.8022461
vn 0.47827148 -0.6435547 -0.59765625
vn -0.47851562 -0.6430664 -0.59765625
vn -0.61035156 -0.6645508 0.43066406
vn 0.29663086 -0.65625 0.69384766
vn -0.14562988 0.82666016 0.54345703
vn 0.5439453 0.24499512 0.8022461
vn 0.29663086 -0.65625 0.69384766
vn -0.61035156 -0.6645508 0.43066406
vn -0.8911133 0.24914551 0.37890625
vn -0.47851562 -0.6430664 -0.59765625
vn -0.7714844 0.24438477 -0.58740234
vn 0.47827148 -0.6435547 -0.59765625
vn 0.7714844 0.24438477 -0.58740234
vn -0.00022137165 0.7963867 -0.60498047
vn -0.47851562 -0.6430664 -0.59765625
vn -0.7714844 0.24438477 -0.58740234
vn -7.265806E-05 0.8017578 -0.59765625
vn 0.7661133 0.24719238 -0.5932617
vn 0.6660156 0.24633789 0.70410156
vn -0.078308105 0.80908203 0.58251953
vn -0.7661133 0.24719238 -0.5932617
vn 0.3857422 -0.64941406 0.65527344
vn -0.8378906 0.24963379 0.48535156
vn -0.54833984 -0.65527344 0.51953125
vn 0.7661133 0.24719238 -0.5932617
vn 0.4741211 -0.6484375 -0.5957031
vn 0.3857422 -0.64941406 0.65527344
vn 0.6660156 0.24633789 0.70410156
vn 0.4741211 -0.6484375 -0.5957031
vn -0.4741211 -0.6479492 -0.5957031
vn -0.54833984 -0.65527344 0.51953125
vn 0.3857422 -0.64941406 0.65527344
vn -0.4741211 -0.6479492 -0.5957031
vn -0.7661133 0.24719238 -0.5932617
vn -0.8378906 0.24963379 0.48535156
vn -0.54833984 -0.65527344 0.51953125
vn 0.4741211 -0.6484375 -0.5957031
vn 0.7661133 0.24719238 -0.5932617
vn -7.265806E-05 0.8017578 -0.59765625
vn -0.4741211 -0.6479492 -0.5957031
vn -0.7661133 0.24719238 -0.5932617
vn -0 0.8027344 -0.5966797
vn 0.76464844 0.2479248 -0.59472656
vn 0.7060547 0.24694824 0.6635742
vn -0.04916382 0.80566406 0.59033203
vn -0.76464844 0.2479248 -0.59472656
vn 0.41967773 -0.6489258 0.6347656
vn -0.8125 0.24914551 0.52685547
vn -0.5209961 -0.65283203 0.55029297
vn 0.76464844 0.2479248 -0.59472656
vn 0.47265625 -0.6489258 -0.5957031
vn 0.41967773 -0.6489258 0.6347656
vn 0.7060547 0.24694824 0.6635742
vn 0.47265625 -0.6489258 -0.5957031
vn -0.47265625 -0.6489258 -0.5957031
vn -0.5209961 -0.65283203 0.55029297
vn 0.41967773 -0.6489258 0.6347656
vn -0.47265625 -0.6489258 -0.5957031
vn -0.76464844 0.2479248 -0.59472656
vn -0.8125 0.24914551 0.52685547
vn -0.5209961 -0.65283203 0.55029297
vn 0.47265625 -0.6489258 -0.5957031
vn 0.76464844 0.2479248 -0.59472656
vn -0 0.8027344 -0.5966797
vn -0.47265625 -0.6489258 -0.5957031
vn -0.76464844 0.2479248 -0.59472656
g Render_0
f 3/3/3 2/2/2 1/1/1
f 4/4/4 3/3/3 1/1/1
f 4/4/4 1/1/1 5/5/5
f 6/6/6 4/4/4 5/5/5
f 9/9/9 8/8/8 7/7/7
f 10/10/10 9/9/9 7/7/7
f 10/10/10 7/7/7 11/11/11
f 12/12/12 10/10/10 11/11/11
f 15/15/15 14/14/14 13/13/13
f 16/16/16 15/15/15 13/13/13
f 16/16/16 13/13/13 17/17/17
f 18/18/18 16/16/16 17/17/17
f 19/19/19 15/15/15 16/16/16
f 20/20/20 19/19/19 16/16/16
f 19/19/19 21/21/21 15/15/15
f 21/21/21 22/22/22 15/15/15
f 23/23/23 21/21/21 19/19/19
f 24/24/24 23/23/23 19/19/19
f 24/24/24 19/19/19 20/20/20
f 25/25/25 24/24/24 20/20/20
f 26/26/26 24/24/24 25/25/25
f 27/27/27 26/26/26 25/25/25
f 27/27/27 25/25/25 28/28/28
f 29/29/29 27/27/27 28/28/28
f 32/32/32 31/31/31 30/30/30
f 33/33/33 32/32/32 30/30/30
f 33/33/33 30/30/30 34/34/34
f 35/35/35 32/32/32 33/33/33
f 36/36/36 33/33/33 34/34/34
f 37/37/37 35/35/35 33/33/33
f 37/37/37 33/33/33 36/36/36
f 38/38/38 35/35/35 37/37/37
f 39/39/39 37/37/37 36/36/36
f 40/40/40 38/38/38 37/37/37
f 40/40/40 37/37/37 39/39/39
f 41/41/41 38/38/38 40/40/40
f 42/42/42 40/40/40 39/39/39
f 43/43/43 41/41/41 40/40/40
f 43/43/43 40/40/40 42/42/42
f 44/44/44 43/43/43 42/42/42
f 47/47/47 46/46/46 45/45/45
f 48/48/48 47/47/47 45/45/45
f 48/48/48 45/45/45 49/49/49
f 50/50/50 48/48/48 49/49/49
f 51/51/51 47/47/47 48/48/48
f 52/52/52 51/51/51 48/48/48
f 53/53/53 51/51/51 52/52/52
f 54/54/54 53/53/53 52/52/52
f 55/55/55 53/53/53 54/54/54
f 56/56/56 55/55/55 54/54/54
f 56/56/56 54/54/54 57/57/57
f 58/58/58 56/56/56 57/57/57
f 61/61/61 60/60/60 59/59/59
f 62/62/62 61/61/61 59/59/59
f 63/63/63 61/61/61 62/62/62
f 64/64/64 63/63/63 62/62/62
f 67/67/67 66/66/66 65/65/65
f 68/68/68 67/67/67 65/65/65
f 68/68/68 65/65/65 69/69/69
f 70/70/70 68/68/68 69/69/69
f 73/73/73 72/72/72 71/71/71
f 74/74/74 73/73/73 71/71/71
f 77/77/77 76/76/76 75/75/75
f 78/78/78 77/77/77 75/75/75
f 81/81/81 80/80/80 79/79/79
f 79/79/79 82/82/82 81/81/81
f 79/79/79 83/83/83 82/82/82
f 82/82/82 83/83/83 84/84/84
f 83/83/83 85/85/85 84/84/84
f 88/88/88 87/87/87 86/86/86
f 86/86/86 89/89/89 88/88/88
f 89/89/89 90/90/90 88/88/88
f 93/93/93 92/92/92 91/91/91
f 94/94/94 93/93/93 91/91/91
f 94/94/94 91/91/91 95/95/95
f 96/96/96 93/93/93 94/94/94
f 97/97/97 94/94/94 95/95/95
f 94/94/94 98/98/98 96/96/96
f 94/94/94 97/97/97 98/98/98
f 101/101/101 100/100/100 99/99/99
f 102/102/102 101/101/101 99/99/99
f 105/105/105 104/104/104 103/103/103
f 106/106/106 105/105/105 103/103/103
f 109/109/109 108/108/108 107/107/107
f 110/110/110 109/109/109 107/107/107
f 113/113/113 112/112/112 111/111/111
f 111/111/111 114/114/114 113/113/113
f 114/114/114 115/115/115 113/113/113
f 118/118/118 117/117/117 116/116/116
f 119/119/119 118/118/118 116/116/116
f 119/119/119 116/116/116 120/120/120
f 121/121/121 118/118/118 119/119/119
f 122/122/122 119/119/119 120/120/120
f 119/119/119 123/123/123 121/121/121
f 119/119/119 122/122/122 123/123/123
f 126/126/126 125/125/125 124/124/124
f 127/127/127 126/126/126 124/124/124
f 130/130/130 129/129/129 128/128/128
f 131/131/131 130/130/130 128/128/128
f 134/134/134 133/133/133 132/132/132
f 135/135/135 134/134/134 132/132/132
f 138/138/138 137/137/137 136/136/136
f 136/136/136 139/139/139 138/138/138
f 139/139/139 140/140/140 138/138/138
