g rock_medium_03
v -1.5635188 -0.8521283 0.7970184
v -1.4336793 -0.29243723 1.5032827
v -1.3003501 -0.8022689 1.2979165
v -1.4336793 -0.29243723 1.5032827
v -0.51843524 -0.7868886 1.5323414
v -1.3003501 -0.8022689 1.2979165
v -0.4707104 0.28131115 1.2401376
v -0.51843524 -0.7868886 1.5323414
v -1.4336793 -0.29243723 1.5032827
v -1.4286468 -0.5635553 0.2136453
v -1.696234 -0.08592797 1.103888
v -1.5635188 -0.8521283 0.7970184
v -1.696234 -0.08592797 1.103888
v -1.4845301 0.31989902 0.7527606
v -1.4336793 -0.29243723 1.5032827
v -1.4845301 0.31989902 0.7527606
v -1.4286468 -0.5635553 0.2136453
v -1.2614734 0.32203496 0.4717988
v -1.1428282 -0.86451733 0.28881517
v -1.4286468 -0.5635553 0.2136453
v -1.5635188 -0.8521283 0.7970184
v -1.1428282 -0.86451733 0.28881517
v -1.5635188 -0.8521283 0.7970184
v -0.51843524 -0.7868886 1.5323414
v 1.4101264 -0.77226585 -0.8018993
v -1.2192675 -0.76877224 -0.7374163
v -1.1428282 -0.86451733 0.28881517
v -1.2912836 0.66562647 0.28072217
v -0.79664534 0.80485964 0.105391115
v -0.09132468 0.7772234 0.65521073
v -0.67497975 0.97668993 -0.4627003
v -0.09132468 0.7772234 0.65521073
v -0.79664534 0.80485964 0.105391115
v 0.030719424 1.2213827 -0.80855274
v 0.42180657 1.1089162 -0.18807307
v -0.4707104 0.28131115 1.2401376
v -0.06781409 0.5376313 1.2706994
v 0.03975699 -0.5247818 1.3345952
v -1.1428282 -0.86451733 0.28881517
v -0.15106778 -0.74048376 1.2064286
v 1.3509151 -0.7753434 0.6254628
v 0.5718097 -0.4878409 1.1178875
v 0.40231535 -0.7098607 1.0094658
v -0.15106778 -0.74048376 1.2064286
v 0.5718097 -0.4878409 1.1178875
v 0.7800195 -0.65480137 1.2304888
v 0.40231535 -0.7098607 1.0094658
v -0.09132468 0.7772234 0.65521073
v 0.44368562 0.5924165 1.0069183
v -0.06781409 0.5376313 1.2706994
v 0.42180657 1.1089162 -0.18807307
v 0.7260733 1.1089597 0.49220783
v -0.09132468 0.7772234 0.65521073
v 0.7260733 1.1089597 0.49220783
v 1.0816319 0.72551537 0.4719117
v -0.09132468 0.7772234 0.65521073
v 0.5718097 -0.4878409 1.1178875
v 0.784556 0.55785745 1.1718991
v 0.7800195 -0.65480137 1.2304888
v 1.0816319 0.72551537 0.4719117
v 1.267961 0.6889231 0.7553144
v -0.09132468 0.7772234 0.65521073
v 1.3509151 -0.7753434 0.6254628
v 0.40231535 -0.7098607 1.0094658
v 0.7800195 -0.65480137 1.2304888
v 1.4101264 -0.77226585 -0.8018993
v 1.3509151 -0.7753434 0.6254628
v 1.267961 0.6889231 0.7553144
v 0.44368562 0.5924165 1.0069183
v 1.267961 0.6889231 0.7553144
v 0.784556 0.55785745 1.1718991
v 1.1140698 0.7315387 -0.60223144
v 1.0816319 0.72551537 0.4719117
v 1.1110814 1.2936933 -0.3864727
v 1.1110814 1.2936933 -0.3864727
v 1.0816319 0.72551537 0.4719117
v 1.0500083 1.1726454 0.38682657
v 1.0816319 0.72551537 0.4719117
v 1.3711138 0.6724873 0.10429927
v 1.267961 0.6889231 0.7553144
v 1.4101264 -0.77226585 -0.8018993
v 1.267961 0.6889231 0.7553144
v 1.3711138 0.6724873 0.10429927
v -0.44118732 -0.601706 -1.4420455
v -1.1093022 0.6998232 -0.80448586
v -1.2192675 -0.76877224 -0.7374163
v 1.4101264 -0.77226585 -0.8018993
v -0.44118732 -0.601706 -1.4420455
v -1.2192675 -0.76877224 -0.7374163
v -1.3435704 0.5265019 -0.461342
v -1.2912836 0.66562647 0.28072217
v -1.4286468 -0.5635553 0.2136453
v -1.3435704 0.5265019 -0.461342
v -1.4286468 -0.5635553 0.2136453
v -1.2192675 -0.76877224 -0.7374163
v -1.3435704 0.5265019 -0.461342
v -1.1093022 0.6998232 -0.80448586
v -1.2912836 0.66562647 0.28072217
v -1.1093022 0.6998232 -0.80448586
v -1.3435704 0.5265019 -0.461342
v -1.2192675 -0.76877224 -0.7374163
v -1.1093022 0.6998232 -0.80448586
v -0.6774757 0.71741027 -0.6710726
v -0.79664534 0.80485964 0.105391115
v 0.119169064 0.5912272 -1.2044773
v -1.1093022 0.6998232 -0.80448586
v -0.62189996 0.47332925 -1.295861
v -0.67497975 0.97668993 -0.4627003
v 0.19907148 0.97225004 -1.2376916
v 0.030719424 1.2213827 -0.80855274
v -0.6774757 0.71741027 -0.6710726
v 0.119169064 0.5912272 -1.2044773
v 0.19907148 0.97225004 -1.2376916
v 1.1110814 1.2936933 -0.3864727
v 0.030719424 1.2213827 -0.80855274
v 0.19907148 0.97225004 -1.2376916
v 1.0883104 0.1194195 -1.4042566
v 0.66148186 0.6221286 -1.0763673
v 0.119169064 0.5912272 -1.2044773
v 1.1110814 1.2936933 -0.3864727
v 0.19907148 0.97225004 -1.2376916
v 0.66148186 0.6221286 -1.0763673
v -0.44118732 -0.601706 -1.4420455
v 1.0825307 -0.5790634 -1.3708769
v 1.0883104 0.1194195 -1.4042566
v 1.389726 0.110843144 -0.97867364
v 1.0825307 -0.5790634 -1.3708769
v 1.4101264 -0.77226585 -0.8018993
v 0.42180657 1.1089162 -0.18807307
v 1.1110814 1.2936933 -0.3864727
v 0.7260733 1.1089597 0.49220783
v 0.66148186 0.6221286 -1.0763673
v 1.1140698 0.7315387 -0.60223144
v 1.1110814 1.2936933 -0.3864727
v 1.1140698 0.7315387 -0.60223144
v 1.0883104 0.1194195 -1.4042566
v 1.389726 0.110843144 -0.97867364
v 1.389726 0.110843144 -0.97867364
v 1.4101264 -0.77226585 -0.8018993
v 1.3711138 0.6724873 0.10429927
v -1.696234 -0.08592797 1.103888
v -1.4336793 -0.29243723 1.5032827
v -1.5635188 -0.8521283 0.7970184
v -1.696234 -0.08592797 1.103888
v -1.4286468 -0.5635553 0.2136453
v -1.4845301 0.31989902 0.7527606
v -1.2614734 0.32203496 0.4717988
v -1.4286468 -0.5635553 0.2136453
v -1.2912836 0.66562647 0.28072217
v -0.51843524 -0.7868886 1.5323414
v -1.5635188 -0.8521283 0.7970184
v -1.3003501 -0.8022689 1.2979165
v -0.4707104 0.28131115 1.2401376
v -1.2614734 0.32203496 0.4717988
v -1.2912836 0.66562647 0.28072217
v -1.4845301 0.31989902 0.7527606
v -0.4707104 0.28131115 1.2401376
v -1.4336793 -0.29243723 1.5032827
v -1.2614734 0.32203496 0.4717988
v -0.4707104 0.28131115 1.2401376
v -1.4845301 0.31989902 0.7527606
v -0.79664534 0.80485964 0.105391115
v -1.2912836 0.66562647 0.28072217
v -1.1093022 0.6998232 -0.80448586
v -0.15106778 -0.74048376 1.2064286
v -0.51843524 -0.7868886 1.5323414
v -0.4707104 0.28131115 1.2401376
v 0.03975699 -0.5247818 1.3345952
v -0.15106778 -0.74048376 1.2064286
v -0.4707104 0.28131115 1.2401376
v 0.5718097 -0.4878409 1.1178875
v 0.03975699 -0.5247818 1.3345952
v -0.06781409 0.5376313 1.2706994
v -1.1428282 -0.86451733 0.28881517
v -0.51843524 -0.7868886 1.5323414
v -0.15106778 -0.74048376 1.2064286
v 0.5718097 -0.4878409 1.1178875
v -0.15106778 -0.74048376 1.2064286
v 0.03975699 -0.5247818 1.3345952
v 1.3509151 -0.7753434 0.6254628
v -0.15106778 -0.74048376 1.2064286
v 0.40231535 -0.7098607 1.0094658
v 1.4101264 -0.77226585 -0.8018993
v -1.1428282 -0.86451733 0.28881517
v 1.3509151 -0.7753434 0.6254628
v -1.2912836 0.66562647 0.28072217
v -0.06781409 0.5376313 1.2706994
v -0.4707104 0.28131115 1.2401376
v -0.09132468 0.7772234 0.65521073
v -0.06781409 0.5376313 1.2706994
v -1.2912836 0.66562647 0.28072217
v 0.44368562 0.5924165 1.0069183
v 0.5718097 -0.4878409 1.1178875
v -0.06781409 0.5376313 1.2706994
v 0.44368562 0.5924165 1.0069183
v 0.784556 0.55785745 1.1718991
v 0.5718097 -0.4878409 1.1178875
v 1.267961 0.6889231 0.7553144
v 0.44368562 0.5924165 1.0069183
v -0.09132468 0.7772234 0.65521073
v 0.7260733 1.1089597 0.49220783
v 1.0500083 1.1726454 0.38682657
v 1.0816319 0.72551537 0.4719117
v 0.784556 0.55785745 1.1718991
v 1.3509151 -0.7753434 0.6254628
v 0.7800195 -0.65480137 1.2304888
v 1.3509151 -0.7753434 0.6254628
v 0.784556 0.55785745 1.1718991
v 1.267961 0.6889231 0.7553144
v 1.1110814 1.2936933 -0.3864727
v 1.0500083 1.1726454 0.38682657
v 0.7260733 1.1089597 0.49220783
v -1.2192675 -0.76877224 -0.7374163
v -1.4286468 -0.5635553 0.2136453
v -1.1428282 -0.86451733 0.28881517
v -0.62189996 0.47332925 -1.295861
v -1.1093022 0.6998232 -0.80448586
v -0.44118732 -0.601706 -1.4420455
v -0.6774757 0.71741027 -0.6710726
v -0.67497975 0.97668993 -0.4627003
v -0.79664534 0.80485964 0.105391115
v 0.119169064 0.5912272 -1.2044773
v -0.6774757 0.71741027 -0.6710726
v -1.1093022 0.6998232 -0.80448586
v 1.0825307 -0.5790634 -1.3708769
v -0.44118732 -0.601706 -1.4420455
v 1.4101264 -0.77226585 -0.8018993
v -0.67497975 0.97668993 -0.4627003
v -0.6774757 0.71741027 -0.6710726
v 0.19907148 0.97225004 -1.2376916
v -0.09132468 0.7772234 0.65521073
v -0.67497975 0.97668993 -0.4627003
v 0.42180657 1.1089162 -0.18807307
v 1.1110814 1.2936933 -0.3864727
v 0.030719424 1.2213827 -0.80855274
v 0.19907148 0.97225004 -1.2376916
v 0.119169064 0.5912272 -1.2044773
v 0.66148186 0.6221286 -1.0763673
v -0.62189996 0.47332925 -1.295861
v 1.0883104 0.1194195 -1.4042566
v 0.119169064 0.5912272 -1.2044773
v -0.62189996 0.47332925 -1.295861
v -0.44118732 -0.601706 -1.4420455
v 1.0883104 0.1194195 -1.4042566
v 1.389726 0.110843144 -0.97867364
v 1.0883104 0.1194195 -1.4042566
v 1.0825307 -0.5790634 -1.3708769
v 1.1140698 0.7315387 -0.60223144
v 0.66148186 0.6221286 -1.0763673
v 1.0883104 0.1194195 -1.4042566
v 1.3711138 0.6724873 0.10429927
v 1.0816319 0.72551537 0.4719117
v 1.1140698 0.7315387 -0.60223144
v 1.389726 0.110843144 -0.97867364
v 1.3711138 0.6724873 0.10429927
v 1.1140698 0.7315387 -0.60223144
vt 0.42871094 0.9013672
vt 0.4050293 0.9316406
vt 0.42700195 0.9291992
vt 0.4050293 0.9316406
vt 0.44018555 0.9609375
vt 0.42700195 0.9291992
vt 0.36523438 0.984375
vt 0.44018555 0.9609375
vt 0.4050293 0.9316406
vt 0.42700195 0.8540039
vt 0.39697266 0.91259766
vt 0.42871094 0.9013672
vt 0.39697266 0.91259766
vt 0.36889648 0.90478516
vt 0.4050293 0.9316406
vt 0.36889648 0.90478516
vt 0.42700195 0.8540039
vt 0.35083008 0.8911133
vt 0.46704102 0.86621094
vt 0.42700195 0.8540039
vt 0.42871094 0.9013672
vt 0.46704102 0.86621094
vt 0.42871094 0.9013672
vt 0.44018555 0.9609375
vt 0.34326172 0.8833008
vt 0.34423828 0.7348633
vt 0.27954102 0.72998047
vt 0.12805176 0.5942383
vt 0.09869385 0.5986328
vt 0.07104492 0.65722656
vt 0.34179688 0.70410156
vt 0.31713867 0.61816406
vt 0.3022461 0.6816406
vt 0.38720703 0.68847656
vt 0.37768555 0.6455078
vt 0.12902832 0.6748047
vt 0.10021973 0.6855469
vt 0.1270752 0.7446289
vt 0.27954102 0.72998047
vt 0.21240234 0.7988281
vt 0.24023438 0.8852539
vt 0.09588623 0.76123047
vt 0.10772705 0.77246094
vt 0.14428711 0.7519531
vt 0.09588623 0.76123047
vt 0.07659912 0.7792969
vt 0.10772705 0.77246094
vt 0.07104492 0.65722656
vt 0.062683105 0.6953125
vt 0.10021973 0.6855469
vt 0.37768555 0.6455078
vt 0.37304688 0.6064453
vt 0.31713867 0.61816406
vt 0.37304688 0.6064453
vt 0.39819336 0.5727539
vt 0.31713867 0.61816406
vt 0.09588623 0.76123047
vt 0.046417236 0.71533203
vt 0.07659912 0.7792969
vt 0.037078857 0.67822266
vt 0.007797241 0.7216797
vt 0.07104492 0.65722656
vt 0.24023438 0.8852539
vt 0.22106934 0.8256836
vt 0.21459961 0.8574219
vt 0.076293945 0.9003906
vt 0.17456055 0.9140625
vt 0.19689941 0.8208008
vt 0.062683105 0.6953125
vt 0.007797241 0.7216797
vt 0.046417236 0.71533203
vt 0.44848633 0.61865234
vt 0.39819336 0.5727539
vt 0.41674805 0.63183594
vt 0.41674805 0.63183594
vt 0.39819336 0.5727539
vt 0.39379883 0.6010742
vt 0.17700195 0.7998047
vt 0.15356445 0.8183594
vt 0.19689941 0.8208008
vt 0.076293945 0.9003906
vt 0.19689941 0.8208008
vt 0.15356445 0.8183594
vt 0.2475586 0.7026367
vt 0.15136719 0.7104492
vt 0.23376465 0.7734375
vt 0.34326172 0.8833008
vt 0.38378906 0.78759766
vt 0.34423828 0.7348633
vt 0.12512207 0.5522461
vt 0.12805176 0.5942383
vt 0.20788574 0.57421875
vt 0.12512207 0.5522461
vt 0.20788574 0.57421875
vt 0.19677734 0.5053711
vt 0.12512207 0.5522461
vt 0.10308838 0.5385742
vt 0.12805176 0.5942383
vt 0.10308838 0.5385742
vt 0.12512207 0.5522461
vt 0.19677734 0.5053711
vt 0.10308838 0.5385742
vt 0.078063965 0.55078125
vt 0.09869385 0.5986328
vt 0.18652344 0.64941406
vt 0.15136719 0.7104492
vt 0.18481445 0.69189453
vt 0.34179688 0.70410156
vt 0.4091797 0.7026367
vt 0.38720703 0.68847656
vt 0.34179688 0.7265625
vt 0.4177246 0.7294922
vt 0.4091797 0.7026367
vt 0.41674805 0.63183594
vt 0.38720703 0.68847656
vt 0.4091797 0.7026367
vt 0.23864746 0.59765625
vt 0.19348145 0.6113281
vt 0.18652344 0.64941406
vt 0.41674805 0.63183594
vt 0.4091797 0.7026367
vt 0.44995117 0.6953125
vt 0.2475586 0.7026367
vt 0.27612305 0.6166992
vt 0.23864746 0.59765625
vt 0.079956055 0.83935547
vt 0.043395996 0.8691406
vt 0.076293945 0.9003906
vt 0.37768555 0.6455078
vt 0.41674805 0.63183594
vt 0.37304688 0.6064453
vt 0.44995117 0.6953125
vt 0.44848633 0.61865234
vt 0.41674805 0.63183594
vt 0.109069824 0.80078125
vt 0.050964355 0.8339844
vt 0.079956055 0.83935547
vt 0.079956055 0.83935547
vt 0.076293945 0.9003906
vt 0.15356445 0.8183594
vt 0.39697266 0.91259766
vt 0.4050293 0.9316406
vt 0.42871094 0.9013672
vt 0.39697266 0.91259766
vt 0.42700195 0.8540039
vt 0.36889648 0.90478516
vt 0.1550293 0.60595703
vt 0.20788574 0.57421875
vt 0.12805176 0.5942383
vt 0.44018555 0.9609375
vt 0.42871094 0.9013672
vt 0.42700195 0.9291992
vt 0.12902832 0.6748047
vt 0.1550293 0.60595703
vt 0.12805176 0.5942383
vt 0.36889648 0.90478516
vt 0.36523438 0.984375
vt 0.4050293 0.9316406
vt 0.35083008 0.8911133
vt 0.36523438 0.984375
vt 0.36889648 0.90478516
vt 0.09869385 0.5986328
vt 0.12805176 0.5942383
vt 0.10308838 0.5385742
vt 0.47094727 0.98291016
vt 0.44018555 0.9609375
vt 0.36523438 0.984375
vt 0.1270752 0.7446289
vt 0.14428711 0.7519531
vt 0.12902832 0.6748047
vt 0.09588623 0.76123047
vt 0.1270752 0.7446289
vt 0.10021973 0.6855469
vt 0.46704102 0.86621094
vt 0.44018555 0.9609375
vt 0.47094727 0.98291016
vt 0.09588623 0.76123047
vt 0.14428711 0.7519531
vt 0.1270752 0.7446289
vt 0.24023438 0.8852539
vt 0.21240234 0.7988281
vt 0.22106934 0.8256836
vt 0.34326172 0.8833008
vt 0.27954102 0.72998047
vt 0.24023438 0.8852539
vt 0.12805176 0.5942383
vt 0.10021973 0.6855469
vt 0.12902832 0.6748047
vt 0.07104492 0.65722656
vt 0.10021973 0.6855469
vt 0.12805176 0.5942383
vt 0.062683105 0.6953125
vt 0.09588623 0.76123047
vt 0.10021973 0.6855469
vt 0.062683105 0.6953125
vt 0.046417236 0.71533203
vt 0.09588623 0.76123047
vt 0.007797241 0.7216797
vt 0.062683105 0.6953125
vt 0.07104492 0.65722656
vt 0.37304688 0.6064453
vt 0.39379883 0.6010742
vt 0.39819336 0.5727539
vt 0.046417236 0.71533203
vt 0.042297363 0.81591797
vt 0.07659912 0.7792969
vt 0.042297363 0.81591797
vt 0.046417236 0.71533203
vt 0.007797241 0.7216797
vt 0.41674805 0.63183594
vt 0.39379883 0.6010742
vt 0.37304688 0.6064453
vt 0.19677734 0.5053711
vt 0.20788574 0.57421875
vt 0.23010254 0.5698242
vt 0.18481445 0.69189453
vt 0.15136719 0.7104492
vt 0.2475586 0.7026367
vt 0.34179688 0.7265625
vt 0.34179688 0.70410156
vt 0.3022461 0.6816406
vt 0.18652344 0.64941406
vt 0.14208984 0.68652344
vt 0.15136719 0.7104492
vt 0.375 0.86279297
vt 0.38378906 0.78759766
vt 0.34326172 0.8833008
vt 0.34179688 0.70410156
vt 0.34179688 0.7265625
vt 0.4091797 0.7026367
vt 0.31713867 0.61816406
vt 0.34179688 0.70410156
vt 0.37768555 0.6455078
vt 0.41674805 0.63183594
vt 0.38720703 0.68847656
vt 0.4091797 0.7026367
vt 0.4177246 0.7294922
vt 0.44995117 0.6953125
vt 0.18481445 0.69189453
vt 0.23864746 0.59765625
vt 0.18652344 0.64941406
vt 0.18481445 0.69189453
vt 0.2475586 0.7026367
vt 0.23864746 0.59765625
vt 0.079956055 0.83935547
vt 0.050964355 0.8339844
vt 0.043395996 0.8691406
vt 0.18933105 0.58496094
vt 0.19348145 0.6113281
vt 0.23864746 0.59765625
vt 0.15356445 0.8183594
vt 0.17700195 0.7998047
vt 0.109069824 0.80078125
vt 0.079956055 0.83935547
vt 0.15356445 0.8183594
vt 0.109069824 0.80078125
vn -0.7973633 -0.3930664 0.4580078
vn -0.7973633 -0.3930664 0.4580078
vn -0.7973633 -0.3930664 0.4580078
vn -0.25341797 -0.4177246 0.8725586
vn -0.25341797 -0.4177246 0.8725586
vn -0.25341797 -0.4177246 0.8725586
vn 0.10876465 0.2578125 0.95996094
vn 0.10876465 0.2578125 0.95996094
vn 0.10876465 0.2578125 0.95996094
vn -0.96484375 -0.064941406 -0.25512695
vn -0.96484375 -0.064941406 -0.25512695
vn -0.96484375 -0.064941406 -0.25512695
vn -0.36010742 0.7109375 0.6044922
vn -0.36010742 0.7109375 0.6044922
vn -0.36010742 0.7109375 0.6044922
vn -0.7451172 0.3125 -0.58935547
vn -0.7451172 0.3125 -0.58935547
vn -0.7451172 0.3125 -0.58935547
vn -0.5810547 -0.66796875 -0.46484375
vn -0.5810547 -0.66796875 -0.46484375
vn -0.5810547 -0.66796875 -0.46484375
vn 0.028564453 -0.99853516 0.047973633
vn 0.028564453 -0.99853516 0.047973633
vn 0.028564453 -0.99853516 0.047973633
vn -0.0035953522 -0.99560547 -0.09265137
vn -0.0035953522 -0.99560547 -0.09265137
vn -0.0035953522 -0.99560547 -0.09265137
vn -0.171875 0.9477539 0.2680664
vn -0.171875 0.9477539 0.2680664
vn -0.171875 0.9477539 0.2680664
vn -0.16064453 0.9536133 0.2541504
vn -0.16064453 0.9536133 0.2541504
vn -0.16064453 0.9536133 0.2541504
vn -0.18518066 0.9399414 0.28710938
vn -0.18518066 0.9399414 0.28710938
vn -0.10644531 0.048950195 0.99316406
vn -0.10644531 0.048950195 0.99316406
vn -0.10644531 0.048950195 0.99316406
vn 0.020370483 -0.99365234 0.11224365
vn 0.020370483 -0.99365234 0.11224365
vn 0.020370483 -0.99365234 0.11224365
vn 0.29882812 -0.5932617 0.7475586
vn 0.29882812 -0.5932617 0.7475586
vn 0.29882812 -0.5932617 0.7475586
vn -0.5 -0.040496826 0.8647461
vn -0.5 -0.040496826 0.8647461
vn -0.5 -0.040496826 0.8647461
vn 0.08538818 0.9296875 0.35864258
vn 0.08538818 0.9296875 0.35864258
vn 0.08538818 0.9296875 0.35864258
vn -0.3449707 0.92578125 0.15429688
vn -0.3449707 0.92578125 0.15429688
vn -0.3449707 0.92578125 0.15429688
vn 0.15771484 0.09423828 0.98291016
vn 0.15771484 0.09423828 0.98291016
vn 0.15771484 0.09423828 0.98291016
vn -0.44726562 0.044830322 0.8935547
vn -0.44726562 0.044830322 0.8935547
vn -0.44726562 0.044830322 0.8935547
vn 0.057922363 0.9941406 0.090270996
vn 0.057922363 0.9941406 0.090270996
vn 0.057922363 0.9941406 0.090270996
vn 0.018371582 -0.9770508 0.21203613
vn 0.018371582 -0.9770508 0.21203613
vn 0.018371582 -0.9770508 0.21203613
vn 0.9975586 0.052856445 0.041503906
vn 0.9975586 0.052856445 0.041503906
vn 0.9975586 0.052856445 0.041503906
vn -0.031402588 0.9633789 0.26660156
vn -0.031402588 0.9633789 0.26660156
vn -0.031402588 0.9633789 0.26660156
vn 0.9995117 -0.006259918 0.030151367
vn 0.9995117 -0.006259918 0.030151367
vn 0.9995117 -0.006259918 0.030151367
vn 0.9916992 0.087646484 0.092041016
vn 0.9916992 0.087646484 0.092041016
vn 0.9916992 0.087646484 0.092041016
vn 0.18591309 0.9824219 0.0046463013
vn 0.18591309 0.9824219 0.0046463013
vn 0.18591309 0.9824219 0.0046463013
vn 0.9848633 -0.07244873 0.15783691
vn 0.9848633 -0.07244873 0.15783691
vn 0.9848633 -0.07244873 0.15783691
vn -0.67333984 0.01663208 -0.7392578
vn -0.67333984 0.01663208 -0.7392578
vn -0.67333984 0.01663208 -0.7392578
vn -0.007129669 -0.9711914 -0.23815918
vn -0.007129669 -0.9711914 -0.23815918
vn -0.007129669 -0.9711914 -0.23815918
vn -0.9926758 0.10827637 0.0496521
vn -0.9926758 0.10827637 0.0496521
vn -0.9926758 0.10827637 0.0496521
vn -0.97753906 -0.05026245 -0.2043457
vn -0.97753906 -0.05026245 -0.2043457
vn -0.97753906 -0.05026245 -0.2043457
vn -0.6743164 0.73291016 -0.08996582
vn -0.6743164 0.73291016 -0.08996582
vn -0.6743164 0.73291016 -0.08996582
vn -0.8339844 0.03729248 -0.55029297
vn -0.8339844 0.03729248 -0.55029297
vn -0.8339844 0.03729248 -0.55029297
vn -0.0056266785 0.99365234 -0.11279297
vn -0.0056266785 0.99365234 -0.11279297
vn -0.0056266785 0.99365234 -0.11279297
vn -0.07952881 0.8730469 -0.48120117
vn -0.07952881 0.8730469 -0.48120117
vn -0.07952881 0.8730469 -0.48120117
vn -0.5048828 0.6459961 -0.5727539
vn -0.5048828 0.6459961 -0.5727539
vn -0.5048828 0.6459961 -0.5727539
vn -0.55126953 0.042938232 -0.8334961
vn -0.55126953 0.042938232 -0.8334961
vn -0.55126953 0.042938232 -0.8334961
vn 0.12176514 0.87841797 -0.4621582
vn 0.12176514 0.87841797 -0.4621582
vn 0.12176514 0.87841797 -0.4621582
vn 0.14575195 0.6245117 -0.7675781
vn 0.14575195 0.6245117 -0.7675781
vn 0.14575195 0.6245117 -0.7675781
vn 0.5517578 0.38867188 -0.73779297
vn 0.5517578 0.38867188 -0.73779297
vn 0.5517578 0.38867188 -0.73779297
vn 0.047302246 -0.048065186 -0.9975586
vn 0.047302246 -0.048065186 -0.9975586
vn 0.047302246 -0.048065186 -0.9975586
vn 0.8510742 -0.084106445 -0.5185547
vn 0.8510742 -0.084106445 -0.5185547
vn 0.8510742 -0.084106445 -0.5185547
vn -0.2298584 0.96777344 0.10272217
vn -0.2298584 0.96777344 0.10272217
vn -0.2298584 0.96777344 0.10272217
vn 0.6645508 0.2709961 -0.69677734
vn 0.6645508 0.2709961 -0.69677734
vn 0.6645508 0.2709961 -0.69677734
vn 0.67089844 0.57910156 -0.4633789
vn 0.67089844 0.57910156 -0.4633789
vn 0.67089844 0.57910156 -0.4633789
vn 0.9995117 0.024032593 0.004714966
vn 0.9995117 0.024032593 0.004714966
vn 0.9995117 0.024032593 0.004714966
vn -0.8598633 -0.31103516 0.40454102
vn -0.8598633 -0.31103516 0.40454102
vn -0.8598633 -0.31103516 0.40454102
vn -0.9169922 0.16381836 -0.3635254
vn -0.9169922 0.16381836 -0.3635254
vn -0.9169922 0.16381836 -0.3635254
vn -0.9472656 0.08905029 0.30786133
vn -0.9472656 0.08905029 0.30786133
vn -0.9472656 0.08905029 0.30786133
vn -0.012008667 -0.9941406 0.105285645
vn -0.012008667 -0.9941406 0.105285645
vn -0.012008667 -0.9941406 0.105285645
vn -0.6503906 0.32543945 0.68652344
vn -0.6503906 0.32543945 0.68652344
vn -0.6503906 0.32543945 0.68652344
vn -0.2697754 0.7368164 0.6196289
vn -0.2697754 0.7368164 0.6196289
vn -0.2697754 0.7368164 0.6196289
vn 0.024887085 0.9995117 0.027359009
vn 0.024887085 0.9995117 0.027359009
vn 0.024887085 0.9995117 0.027359009
vn -0.27612305 0.9609375 -0.016036987
vn -0.27612305 0.9609375 -0.016036987
vn -0.27612305 0.9609375 -0.016036987
vn 0.640625 0.17578125 0.7475586
vn 0.640625 0.17578125 0.7475586
vn 0.640625 0.17578125 0.7475586
vn -0.4189453 -0.16052246 0.8935547
vn -0.4189453 -0.16052246 0.8935547
vn -0.4189453 -0.16052246 0.8935547
vn 0.3701172 0.09307861 0.9243164
vn 0.3701172 0.09307861 0.9243164
vn 0.3701172 0.09307861 0.9243164
vn 0.124694824 -0.9921875 -0.00068616867
vn 0.124694824 -0.9921875 -0.00068616867
vn 0.124694824 -0.9921875 -0.00068616867
vn 0.31762695 -0.67626953 0.66503906
vn 0.31762695 -0.67626953 0.66503906
vn 0.31762695 -0.67626953 0.66503906
vn 0.33154297 -0.34521484 0.8779297
vn 0.33154297 -0.34521484 0.8779297
vn 0.33154297 -0.34521484 0.8779297
vn 0.035827637 -0.9995117 -0.0006685257
vn 0.035827637 -0.9995117 -0.0006685257
vn 0.035827637 -0.9995117 -0.0006685257
vn -0.4482422 0.62890625 0.6352539
vn -0.4482422 0.62890625 0.6352539
vn -0.4482422 0.62890625 0.6352539
vn -0.1977539 0.9111328 0.36206055
vn -0.1977539 0.9111328 0.36206055
vn -0.1977539 0.9111328 0.36206055
vn 0.44140625 0.14331055 0.8857422
vn 0.44140625 0.14331055 0.8857422
vn 0.44140625 0.14331055 0.8857422
vn -0.43188477 0.0413208 0.9008789
vn -0.43188477 0.0413208 0.9008789
vn -0.43188477 0.0413208 0.9008789
vn 0.026657104 0.9008789 0.43286133
vn 0.026657104 0.9008789 0.43286133
vn 0.026657104 0.9008789 0.43286133
vn 0.26782227 0.19836426 0.9428711
vn 0.26782227 0.19836426 0.9428711
vn 0.26782227 0.19836426 0.9428711
vn 0.72998047 0.030258179 0.6826172
vn 0.72998047 0.030258179 0.6826172
vn 0.72998047 0.030258179 0.6826172
vn 0.65722656 -0.029571533 0.75341797
vn 0.65722656 -0.029571533 0.75341797
vn 0.65722656 -0.029571533 0.75341797
vn -0.1463623 0.9790039 0.14172363
vn -0.1463623 0.9790039 0.14172363
vn -0.1463623 0.9790039 0.14172363
vn -0.7236328 -0.6899414 -0.0104599
vn -0.7236328 -0.6899414 -0.0104599
vn -0.7236328 -0.6899414 -0.0104599
vn -0.71533203 -0.025360107 -0.6982422
vn -0.71533203 -0.025360107 -0.6982422
vn -0.71533203 -0.025360107 -0.6982422
vn -0.97558594 0.1427002 -0.16577148
vn -0.97558594 0.1427002 -0.16577148
vn -0.97558594 0.1427002 -0.16577148
vn 0.021697998 0.9794922 -0.19934082
vn 0.021697998 0.9794922 -0.19934082
vn 0.021697998 0.9794922 -0.19934082
vn 0.029708862 -0.94091797 -0.33666992
vn 0.029708862 -0.94091797 -0.33666992
vn 0.029708862 -0.94091797 -0.33666992
vn -0.5649414 0.52001953 -0.640625
vn -0.5649414 0.52001953 -0.640625
vn -0.5649414 0.52001953 -0.640625
vn -0.18017578 0.9477539 0.2631836
vn -0.18017578 0.9477539 0.2631836
vn -0.18017578 0.9477539 0.2631836
vn -0.17260742 0.94433594 0.2800293
vn -0.17260742 0.94433594 0.2800293
vn 0.23498535 -0.13317871 -0.9628906
vn 0.23498535 -0.13317871 -0.9628906
vn 0.23498535 -0.13317871 -0.9628906
vn 0.03753662 0.45410156 -0.8901367
vn 0.03753662 0.45410156 -0.8901367
vn 0.03753662 0.45410156 -0.8901367
vn -0.036193848 0.12866211 -0.99121094
vn -0.036193848 0.12866211 -0.99121094
vn -0.036193848 0.12866211 -0.99121094
vn 0.8154297 -0.034362793 -0.578125
vn 0.8154297 -0.034362793 -0.578125
vn 0.8154297 -0.034362793 -0.578125
vn 0.4140625 0.71728516 -0.5605469
vn 0.4140625 0.71728516 -0.5605469
vn 0.4140625 0.71728516 -0.5605469
vn 0.1940918 0.98095703 0.011360168
vn 0.1940918 0.98095703 0.011360168
vn 0.1940918 0.98095703 0.011360168
vn 0.8173828 0.51708984 -0.2541504
vn 0.8173828 0.51708984 -0.2541504
vn 0.8173828 0.51708984 -0.2541504
g rock_medium_03_0
f 3/3/3 2/2/2 1/1/1
f 6/6/6 5/5/5 4/4/4
f 9/9/9 8/8/8 7/7/7
f 12/12/12 11/11/11 10/10/10
f 15/15/15 14/14/14 13/13/13
f 18/18/18 17/17/17 16/16/16
f 21/21/21 20/20/20 19/19/19
f 24/24/24 23/23/23 22/22/22
f 27/27/27 26/26/26 25/25/25
f 30/30/30 29/29/29 28/28/28
f 33/33/33 32/32/32 31/31/31
f 31/31/31 35/35/35 34/34/34
f 38/38/38 37/37/37 36/36/36
f 41/41/41 40/40/40 39/39/39
f 44/44/44 43/43/43 42/42/42
f 47/47/47 46/46/46 45/45/45
f 50/50/50 49/49/49 48/48/48
f 53/53/53 52/52/52 51/51/51
f 56/56/56 55/55/55 54/54/54
f 59/59/59 58/58/58 57/57/57
f 62/62/62 61/61/61 60/60/60
f 65/65/65 64/64/64 63/63/63
f 68/68/68 67/67/67 66/66/66
f 71/71/71 70/70/70 69/69/69
f 74/74/74 73/73/73 72/72/72
f 77/77/77 76/76/76 75/75/75
f 80/80/80 79/79/79 78/78/78
f 83/83/83 82/82/82 81/81/81
f 86/86/86 85/85/85 84/84/84
f 89/89/89 88/88/88 87/87/87
f 92/92/92 91/91/91 90/90/90
f 95/95/95 94/94/94 93/93/93
f 98/98/98 97/97/97 96/96/96
f 101/101/101 100/100/100 99/99/99
f 104/104/104 103/103/103 102/102/102
f 107/107/107 106/106/106 105/105/105
f 110/110/110 109/109/109 108/108/108
f 113/113/113 112/112/112 111/111/111
f 116/116/116 115/115/115 114/114/114
f 119/119/119 118/118/118 117/117/117
f 122/122/122 121/121/121 120/120/120
f 125/125/125 124/124/124 123/123/123
f 128/128/128 127/127/127 126/126/126
f 131/131/131 130/130/130 129/129/129
f 134/134/134 133/133/133 132/132/132
f 137/137/137 136/136/136 135/135/135
f 140/140/140 139/139/139 138/138/138
f 143/143/143 142/142/142 141/141/141
f 146/146/146 145/145/145 144/144/144
f 149/149/149 148/148/148 147/147/147
f 152/152/152 151/151/151 150/150/150
f 155/155/155 154/154/154 153/153/153
f 158/158/158 157/157/157 156/156/156
f 161/161/161 160/160/160 159/159/159
f 164/164/164 163/163/163 162/162/162
f 167/167/167 166/166/166 165/165/165
f 170/170/170 169/169/169 168/168/168
f 173/173/173 172/172/172 171/171/171
f 176/176/176 175/175/175 174/174/174
f 179/179/179 178/178/178 177/177/177
f 182/182/182 181/181/181 180/180/180
f 185/185/185 184/184/184 183/183/183
f 188/188/188 187/187/187 186/186/186
f 191/191/191 190/190/190 189/189/189
f 194/194/194 193/193/193 192/192/192
f 197/197/197 196/196/196 195/195/195
f 200/200/200 199/199/199 198/198/198
f 203/203/203 202/202/202 201/201/201
f 206/206/206 205/205/205 204/204/204
f 209/209/209 208/208/208 207/207/207
f 212/212/212 211/211/211 210/210/210
f 215/215/215 214/214/214 213/213/213
f 218/218/218 217/217/217 216/216/216
f 221/221/221 220/220/220 219/219/219
f 224/224/224 223/223/223 222/222/222
f 227/227/227 226/226/226 225/225/225
f 230/230/230 229/229/229 228/228/228
f 233/233/233 232/232/232 231/231/231
f 235/235/235 233/233/233 234/234/234
f 238/238/238 237/237/237 236/236/236
f 241/241/241 240/240/240 239/239/239
f 244/244/244 243/243/243 242/242/242
f 247/247/247 246/246/246 245/245/245
f 250/250/250 249/249/249 248/248/248
f 253/253/253 252/252/252 251/251/251
f 256/256/256 255/255/255 254/254/254
