g rock_small_01
v -0.4877627 -0.26479235 0.13213824
v -0.63863826 -0.10274706 -0.36553797
v -0.39624992 -0.15645446 0.698159
v -0.52850723 0.23022044 -0.11610485
v -0.17988351 0.32710874 0.4155478
v -0.30693695 0.23346479 0.5834707
v -0.30693695 0.23346479 0.5834707
v -0.17988351 0.32710874 0.4155478
v -0.12861423 0.20438652 0.68921363
v 0.47744724 0.30384144 0.28650954
v -0.12861423 0.20438652 0.68921363
v -0.17988351 0.32710874 0.4155478
v -0.12861423 0.20438652 0.68921363
v 0.47744724 0.30384144 0.28650954
v 0.28074262 0.16619004 0.62377274
v -0.54012316 -0.013529023 -0.6490742
v -0.5366955 -0.12117512 -0.5652653
v -0.23393476 -0.1715661 -0.7271761
v -0.63863826 -0.10274706 -0.36553797
v -0.50833154 0.15761432 -0.5977716
v -0.52850723 0.23022044 -0.11610485
v -0.15975504 0.31704694 -0.25205687
v -0.52850723 0.23022044 -0.11610485
v -0.50833154 0.15761432 -0.5977716
v 0.0590926 0.17174904 -0.7731564
v -0.50833154 0.15761432 -0.5977716
v -0.54012316 -0.013529023 -0.6490742
v 0.58613104 -0.2924818 0.27300498
v 0.4401708 -0.30346277 0.55855656
v 0.69143057 0.05066379 0.11581834
v 0.63870966 -0.19047618 0.10130652
v 0.31297877 -0.35537508 -0.06884293
v 0.58613104 -0.2924818 0.27300498
v 0.63870966 -0.19047618 0.10130652
v 0.42245105 -0.09593444 -0.29770932
v 0.31297877 -0.35537508 -0.06884293
v 0.28074262 0.16619004 0.62377274
v -0.27697465 -0.22897166 0.7222771
v -0.12861423 0.20438652 0.68921363
v 0.28074262 0.16619004 0.62377274
v 0.4401708 -0.30346277 0.55855656
v -0.27697465 -0.22897166 0.7222771
v 0.47744724 0.30384144 0.28650954
v 0.69143057 0.05066379 0.11581834
v 0.52115947 0.024149615 0.5242806
v 0.58613104 -0.2924818 0.27300498
v 0.69143057 0.05066379 0.11581834
v 0.63870966 -0.19047618 0.10130652
v 0.0778256 -0.13474321 -0.7670929
v -0.23393476 -0.1715661 -0.7271761
v 0.21950097 -0.18321158 -0.60141224
v 0.21950097 -0.18321158 -0.60141224
v 0.31297877 -0.35537508 -0.06884293
v 0.42245105 -0.09593444 -0.29770932
v 0.32007518 0.3150292 -0.48889974
v 0.47744724 0.30384144 0.28650954
v -0.17988351 0.32710874 0.4155478
v 0.42245105 -0.09593444 -0.29770932
v 0.63870966 -0.19047618 0.10130652
v 0.69143057 0.05066379 0.11581834
v -0.63863826 -0.10274706 -0.36553797
v -0.30693695 0.23346479 0.5834707
v -0.39624992 -0.15645446 0.698159
v -0.4877627 -0.26479235 0.13213824
v -0.39624992 -0.15645446 0.698159
v -0.27697465 -0.22897166 0.7222771
v -0.12861423 0.20438652 0.68921363
v -0.39624992 -0.15645446 0.698159
v -0.30693695 0.23346479 0.5834707
v -0.27697465 -0.22897166 0.7222771
v -0.39624992 -0.15645446 0.698159
v -0.12861423 0.20438652 0.68921363
v -0.63863826 -0.10274706 -0.36553797
v -0.4877627 -0.26479235 0.13213824
v -0.5366955 -0.12117512 -0.5652653
v -0.54012316 -0.013529023 -0.6490742
v -0.63863826 -0.10274706 -0.36553797
v -0.5366955 -0.12117512 -0.5652653
v -0.50833154 0.15761432 -0.5977716
v -0.63863826 -0.10274706 -0.36553797
v -0.54012316 -0.013529023 -0.6490742
v -0.5366955 -0.12117512 -0.5652653
v -0.4877627 -0.26479235 0.13213824
v -0.23393476 -0.1715661 -0.7271761
v -0.52850723 0.23022044 -0.11610485
v -0.30693695 0.23346479 0.5834707
v -0.63863826 -0.10274706 -0.36553797
v -0.52850723 0.23022044 -0.11610485
v -0.15975504 0.31704694 -0.25205687
v -0.17988351 0.32710874 0.4155478
v 0.31297877 -0.35537508 -0.06884293
v 0.4401708 -0.30346277 0.55855656
v 0.58613104 -0.2924818 0.27300498
v 0.28074262 0.16619004 0.62377274
v 0.52115947 0.024149615 0.5242806
v 0.4401708 -0.30346277 0.55855656
v 0.47744724 0.30384144 0.28650954
v 0.52115947 0.024149615 0.5242806
v 0.28074262 0.16619004 0.62377274
v 0.69143057 0.05066379 0.11581834
v 0.4401708 -0.30346277 0.55855656
v 0.52115947 0.024149615 0.5242806
v -0.54012316 -0.013529023 -0.6490742
v -0.23393476 -0.1715661 -0.7271761
v 0.0778256 -0.13474321 -0.7670929
v 0.0590926 0.17174904 -0.7731564
v -0.54012316 -0.013529023 -0.6490742
v 0.0778256 -0.13474321 -0.7670929
v -0.23393476 -0.1715661 -0.7271761
v -0.4877627 -0.26479235 0.13213824
v 0.31297877 -0.35537508 -0.06884293
v 0.21950097 -0.18321158 -0.60141224
v -0.23393476 -0.1715661 -0.7271761
v 0.31297877 -0.35537508 -0.06884293
v 0.2592612 0.20073226 -0.68897706
v 0.21950097 -0.18321158 -0.60141224
v 0.42245105 -0.09593444 -0.29770932
v -0.50833154 0.15761432 -0.5977716
v 0.32007518 0.3150292 -0.48889974
v -0.15975504 0.31704694 -0.25205687
v -0.50833154 0.15761432 -0.5977716
v 0.0590926 0.17174904 -0.7731564
v 0.32007518 0.3150292 -0.48889974
v -0.17988351 0.32710874 0.4155478
v -0.15975504 0.31704694 -0.25205687
v 0.32007518 0.3150292 -0.48889974
v 0.0590926 0.17174904 -0.7731564
v 0.2592612 0.20073226 -0.68897706
v 0.32007518 0.3150292 -0.48889974
v 0.0590926 0.17174904 -0.7731564
v 0.0778256 -0.13474321 -0.7670929
v 0.2592612 0.20073226 -0.68897706
v 0.2592612 0.20073226 -0.68897706
v 0.0778256 -0.13474321 -0.7670929
v 0.21950097 -0.18321158 -0.60141224
v 0.69143057 0.05066379 0.11581834
v 0.47744724 0.30384144 0.28650954
v 0.32007518 0.3150292 -0.48889974
v 0.69143057 0.05066379 0.11581834
v 0.32007518 0.3150292 -0.48889974
v 0.2592612 0.20073226 -0.68897706
v 0.2592612 0.20073226 -0.68897706
v 0.42245105 -0.09593444 -0.29770932
v 0.69143057 0.05066379 0.11581834
v -0.4877627 -0.26479235 0.13213824
v -0.27697465 -0.22897166 0.7222771
v 0.4401708 -0.30346277 0.55855656
v 0.31297877 -0.35537508 -0.06884293
vt 0.6123047 0.18127441
vt 0.61035156 0.26000977
vt 0.67285156 0.070739746
vt 0.57421875 0.4230957
vt 0.5161133 0.48950195
vt 0.52978516 0.5136719
vt 0.52978516 0.5136719
vt 0.5161133 0.48950195
vt 0.50683594 0.5239258
vt 0.44580078 0.47338867
vt 0.50683594 0.5239258
vt 0.5161133 0.48950195
vt 0.50683594 0.5239258
vt 0.44580078 0.47338867
vt 0.45825195 0.5131836
vt 0.5761719 0.30664062
vt 0.57910156 0.2854004
vt 0.5292969 0.28222656
vt 0.6323242 0.39404297
vt 0.5683594 0.34277344
vt 0.57421875 0.4230957
vt 0.51660156 0.40356445
vt 0.57421875 0.4230957
vt 0.5683594 0.34277344
vt 0.48168945 0.3269043
vt 0.5683594 0.34277344
vt 0.5761719 0.30664062
vt 0.36376953 0.4970703
vt 0.40576172 0.5488281
vt 0.40576172 0.46020508
vt 0.37475586 0.46362305
vt 0.3305664 0.4008789
vt 0.36376953 0.4970703
vt 0.37475586 0.46362305
vt 0.38232422 0.3955078
vt 0.3305664 0.4008789
vt 0.45825195 0.5131836
vt 0.5253906 0.59033203
vt 0.50683594 0.5239258
vt 0.45825195 0.5131836
vt 0.40576172 0.5488281
vt 0.5253906 0.59033203
vt 0.44580078 0.47338867
vt 0.40576172 0.46020508
vt 0.42504883 0.5073242
vt 0.36376953 0.4970703
vt 0.40576172 0.46020508
vt 0.37475586 0.46362305
vt 0.47875977 0.28637695
vt 0.5292969 0.28222656
vt 0.46191406 0.23913574
vt 0.38183594 0.33154297
vt 0.3305664 0.4008789
vt 0.38232422 0.3955078
vt 0.453125 0.37939453
vt 0.44580078 0.47338867
vt 0.5161133 0.48950195
vt 0.38232422 0.3955078
vt 0.37475586 0.46362305
vt 0.40576172 0.46020508
vt 0.6323242 0.39404297
vt 0.52978516 0.5136719
vt 0.55371094 0.5708008
vt 0.6123047 0.18127441
vt 0.67285156 0.070739746
vt 0.6464844 0.05911255
vt 0.50683594 0.5239258
vt 0.55371094 0.5708008
vt 0.52978516 0.5136719
vt 0.5253906 0.59033203
vt 0.55371094 0.5708008
vt 0.50683594 0.5239258
vt 0.61035156 0.26000977
vt 0.6123047 0.18127441
vt 0.57910156 0.2854004
vt 0.5761719 0.30664062
vt 0.61035156 0.26000977
vt 0.57910156 0.2854004
vt 0.5683594 0.34277344
vt 0.6323242 0.39404297
vt 0.6040039 0.32617188
vt 0.57910156 0.2854004
vt 0.6123047 0.18127441
vt 0.5292969 0.28222656
vt 0.57421875 0.4230957
vt 0.52978516 0.5136719
vt 0.6323242 0.39404297
vt 0.57421875 0.4230957
vt 0.51660156 0.40356445
vt 0.5161133 0.48950195
vt 0.47851562 0.14013672
vt 0.5263672 0.016662598
vt 0.46069336 0.0473938
vt 0.45825195 0.5131836
vt 0.42504883 0.5073242
vt 0.40576172 0.5488281
vt 0.44580078 0.47338867
vt 0.42504883 0.5073242
vt 0.45825195 0.5131836
vt 0.40576172 0.46020508
vt 0.40576172 0.5488281
vt 0.42504883 0.5073242
vt 0.5761719 0.30664062
vt 0.5292969 0.28222656
vt 0.47875977 0.28637695
vt 0.48168945 0.3269043
vt 0.5761719 0.30664062
vt 0.47875977 0.28637695
vt 0.5292969 0.28222656
vt 0.6123047 0.18127441
vt 0.47851562 0.14013672
vt 0.46191406 0.23913574
vt 0.5292969 0.28222656
vt 0.47851562 0.14013672
vt 0.45239258 0.34692383
vt 0.38183594 0.33154297
vt 0.38232422 0.3955078
vt 0.5683594 0.34277344
vt 0.453125 0.37939453
vt 0.51660156 0.40356445
vt 0.5683594 0.34277344
vt 0.48168945 0.3269043
vt 0.453125 0.37939453
vt 0.5161133 0.48950195
vt 0.51660156 0.40356445
vt 0.453125 0.37939453
vt 0.48168945 0.3269043
vt 0.45239258 0.34692383
vt 0.453125 0.37939453
vt 0.48168945 0.3269043
vt 0.47875977 0.28637695
vt 0.45239258 0.34692383
vt 0.45239258 0.34692383
vt 0.41333008 0.29467773
vt 0.38183594 0.33154297
vt 0.40576172 0.46020508
vt 0.44580078 0.47338867
vt 0.453125 0.37939453
vt 0.40576172 0.46020508
vt 0.453125 0.37939453
vt 0.45239258 0.34692383
vt 0.45239258 0.34692383
vt 0.38232422 0.3955078
vt 0.40576172 0.46020508
vt 0.6123047 0.18127441
vt 0.6464844 0.05911255
vt 0.5263672 0.016662598
vt 0.47851562 0.14013672
vn -0.9448242 -0.25854492 0.20214844
vn -0.9448242 -0.25854492 0.20214844
vn -0.9448242 -0.25854492 0.20214844
vn -0.45947266 0.8769531 0.14147949
vn -0.45947266 0.8769531 0.14147949
vn -0.45947266 0.8769531 0.14147949
vn -0.10412598 0.89990234 0.4230957
vn -0.10412598 0.89990234 0.4230957
vn -0.10412598 0.89990234 0.4230957
vn 0.10888672 0.9145508 0.38964844
vn 0.10888672 0.9145508 0.38964844
vn 0.10888672 0.9145508 0.38964844
vn 0.15393066 0.8803711 0.4489746
vn 0.15393066 0.8803711 0.4489746
vn 0.15393066 0.8803711 0.4489746
vn -0.46240234 -0.55371094 -0.6923828
vn -0.46240234 -0.55371094 -0.6923828
vn -0.46240234 -0.55371094 -0.6923828
vn -0.9213867 0.3762207 -0.095336914
vn -0.9213867 0.3762207 -0.095336914
vn -0.9213867 0.3762207 -0.095336914
vn -0.2800293 0.9472656 -0.15454102
vn -0.2800293 0.9472656 -0.15454102
vn -0.2800293 0.9472656 -0.15454102
vn -0.28686523 0.32348633 -0.90185547
vn -0.28686523 0.32348633 -0.90185547
vn -0.28686523 0.32348633 -0.90185547
vn 0.88964844 -0.06585693 0.45214844
vn 0.88964844 -0.06585693 0.45214844
vn 0.88964844 -0.06585693 0.45214844
vn 0.5498047 -0.78125 -0.2956543
vn 0.5498047 -0.78125 -0.2956543
vn 0.5498047 -0.78125 -0.2956543
vn 0.58203125 -0.6621094 -0.47216797
vn 0.58203125 -0.6621094 -0.47216797
vn 0.58203125 -0.6621094 -0.47216797
vn 0.15966797 0.020629883 0.9868164
vn 0.15966797 0.020629883 0.9868164
vn 0.15966797 0.020629883 0.9868164
vn 0.21606445 -0.0619812 0.9746094
vn 0.21606445 -0.0619812 0.9746094
vn 0.21606445 -0.0619812 0.9746094
vn 0.8173828 0.44189453 0.36938477
vn 0.8173828 0.44189453 0.36938477
vn 0.8173828 0.44189453 0.36938477
vn 0.9614258 -0.22009277 0.16369629
vn 0.9614258 -0.22009277 0.16369629
vn 0.9614258 -0.22009277 0.16369629
vn 0.068359375 -0.9404297 -0.3334961
vn 0.068359375 -0.9404297 -0.3334961
vn 0.068359375 -0.9404297 -0.3334961
vn 0.7368164 -0.59472656 -0.3215332
vn 0.7368164 -0.59472656 -0.3215332
vn 0.7368164 -0.59472656 -0.3215332
vn 0.036743164 0.9995117 0.0069618225
vn 0.036743164 0.9995117 0.0069618225
vn 0.036743164 0.9995117 0.0069618225
vn 0.85253906 -0.15637207 -0.49902344
vn 0.85253906 -0.15637207 -0.49902344
vn 0.85253906 -0.15637207 -0.49902344
vn -0.9326172 0.28027344 0.22668457
vn -0.9326172 0.28027344 0.22668457
vn -0.9326172 0.28027344 0.22668457
vn -0.5395508 -0.8066406 0.24157715
vn -0.5395508 -0.8066406 0.24157715
vn -0.5395508 -0.8066406 0.24157715
vn -0.43676758 0.34448242 0.8310547
vn -0.43676758 0.34448242 0.8310547
vn -0.43676758 0.34448242 0.8310547
vn -0.12695312 0.11859131 0.9848633
vn -0.12695312 0.11859131 0.9848633
vn -0.12695312 0.11859131 0.9848633
vn -0.45166016 -0.87939453 -0.14941406
vn -0.45166016 -0.87939453 -0.14941406
vn -0.45166016 -0.87939453 -0.14941406
vn -0.85009766 -0.34033203 -0.40234375
vn -0.85009766 -0.34033203 -0.40234375
vn -0.85009766 -0.34033203 -0.40234375
vn -0.93652344 0.24816895 -0.24731445
vn -0.93652344 0.24816895 -0.24731445
vn -0.93652344 0.24816895 -0.24731445
vn -0.25341797 -0.9506836 -0.17797852
vn -0.25341797 -0.9506836 -0.17797852
vn -0.25341797 -0.9506836 -0.17797852
vn -0.94970703 0.08911133 0.30029297
vn -0.94970703 0.08911133 0.30029297
vn -0.94970703 0.08911133 0.30029297
vn -0.23669434 0.9711914 -0.021774292
vn -0.23669434 0.9711914 -0.021774292
vn -0.23669434 0.9711914 -0.021774292
vn 0.16723633 -0.9848633 0.047576904
vn 0.16723633 -0.9848633 0.047576904
vn 0.16723633 -0.9848633 0.047576904
vn 0.38330078 0.0018701553 0.9238281
vn 0.38330078 0.0018701553 0.9238281
vn 0.38330078 0.0018701553 0.9238281
vn 0.57958984 0.5786133 0.57421875
vn 0.57958984 0.5786133 0.57421875
vn 0.57958984 0.5786133 0.57421875
vn 0.9111328 -0.18676758 0.36767578
vn 0.9111328 -0.18676758 0.36767578
vn 0.9111328 -0.18676758 0.36767578
vn -0.14709473 0.19421387 -0.96972656
vn -0.14709473 0.19421387 -0.96972656
vn -0.14709473 0.19421387 -0.96972656
vn -0.19335938 -0.031219482 -0.98046875
vn -0.19335938 -0.031219482 -0.98046875
vn -0.19335938 -0.031219482 -0.98046875
vn -0.14819336 -0.97753906 -0.14978027
vn -0.14819336 -0.97753906 -0.14978027
vn -0.14819336 -0.97753906 -0.14978027
vn 0.06365967 -0.94628906 -0.31713867
vn 0.06365967 -0.94628906 -0.31713867
vn 0.06365967 -0.94628906 -0.31713867
vn 0.84033203 -0.20178223 -0.50341797
vn 0.84033203 -0.20178223 -0.50341797
vn 0.84033203 -0.20178223 -0.50341797
vn -0.14099121 0.9453125 -0.29370117
vn -0.14099121 0.9453125 -0.29370117
vn -0.14099121 0.9453125 -0.29370117
vn -0.1307373 0.92822266 -0.3479004
vn -0.1307373 0.92822266 -0.3479004
vn -0.1307373 0.92822266 -0.3479004
vn -0.003282547 1 -0.015167236
vn -0.003282547 1 -0.015167236
vn -0.003282547 1 -0.015167236
vn 0.09326172 0.8520508 -0.5151367
vn 0.09326172 0.8520508 -0.5151367
vn 0.09326172 0.8520508 -0.5151367
vn 0.3869629 0.0054092407 -0.921875
vn 0.3869629 0.0054092407 -0.921875
vn 0.3869629 0.0054092407 -0.921875
vn 0.70654297 -0.22607422 -0.67041016
vn 0.70654297 -0.22607422 -0.67041016
vn 0.70654297 -0.22607422 -0.67041016
vn 0.7104492 0.69091797 -0.13415527
vn 0.7104492 0.69091797 -0.13415527
vn 0.7104492 0.69091797 -0.13415527
vn 0.86865234 0.26733398 -0.41674805
vn 0.86865234 0.26733398 -0.41674805
vn 0.86865234 0.26733398 -0.41674805
vn 0.85253906 -0.17883301 -0.49121094
vn 0.85253906 -0.17883301 -0.49121094
vn 0.85253906 -0.17883301 -0.49121094
vn -0.08258057 -0.9926758 0.08972168
vn -0.08258057 -0.9926758 0.08972168
vn -0.08258057 -0.9926758 0.08972168
vn -0.08709717 -0.99121094 0.09967041
g rock_small_01_0
f 3/3/3 2/2/2 1/1/1
f 6/6/6 5/5/5 4/4/4
f 9/9/9 8/8/8 7/7/7
f 12/12/12 11/11/11 10/10/10
f 15/15/15 14/14/14 13/13/13
f 18/18/18 17/17/17 16/16/16
f 21/21/21 20/20/20 19/19/19
f 24/24/24 23/23/23 22/22/22
f 27/27/27 26/26/26 25/25/25
f 30/30/30 29/29/29 28/28/28
f 33/33/33 32/32/32 31/31/31
f 36/36/36 35/35/35 34/34/34
f 39/39/39 38/38/38 37/37/37
f 42/42/42 41/41/41 40/40/40
f 45/45/45 44/44/44 43/43/43
f 48/48/48 47/47/47 46/46/46
f 51/51/51 50/50/50 49/49/49
f 54/54/54 53/53/53 52/52/52
f 57/57/57 56/56/56 55/55/55
f 60/60/60 59/59/59 58/58/58
f 63/63/63 62/62/62 61/61/61
f 66/66/66 65/65/65 64/64/64
f 69/69/69 68/68/68 67/67/67
f 72/72/72 71/71/71 70/70/70
f 75/75/75 74/74/74 73/73/73
f 78/78/78 77/77/77 76/76/76
f 81/81/81 80/80/80 79/79/79
f 84/84/84 83/83/83 82/82/82
f 87/87/87 86/86/86 85/85/85
f 90/90/90 89/89/89 88/88/88
f 93/93/93 92/92/92 91/91/91
f 96/96/96 95/95/95 94/94/94
f 99/99/99 98/98/98 97/97/97
f 102/102/102 101/101/101 100/100/100
f 105/105/105 104/104/104 103/103/103
f 108/108/108 107/107/107 106/106/106
f 111/111/111 110/110/110 109/109/109
f 114/114/114 113/113/113 112/112/112
f 117/117/117 116/116/116 115/115/115
f 120/120/120 119/119/119 118/118/118
f 123/123/123 122/122/122 121/121/121
f 126/126/126 125/125/125 124/124/124
f 129/129/129 128/128/128 127/127/127
f 132/132/132 131/131/131 130/130/130
f 135/135/135 134/134/134 133/133/133
f 138/138/138 137/137/137 136/136/136
f 141/141/141 140/140/140 139/139/139
f 144/144/144 143/143/143 142/142/142
f 147/147/147 146/146/146 145/145/145
f 148/148/148 147/147/147 145/145/145
