g Rock_12
v 0.58085483 1.437929 -0.03452027
v 0.18267359 1.5691067 -0.096286714
v 0.3111427 1.2232114 -0.11282241
v 1.118819 0.93551296 -0.0032134056
v 1.2899787 0.09319486 0.17468259
v 0.48719856 1.0008014 0.23217547
v 0.5727296 -1.1849817 0.92410684
v 1.0445075 -1.1310564 -0.07791746
v -0.36737373 -1.6171249 -0.1270802
v -0.42035466 1.0210445 0.9217948
v -0.67780524 0.91653657 0.98468256
v -1.095526 1.2014464 0.8532666
v -0.9862051 0.20577411 0.9415859
v -0.7645815 0.089531526 1.5476694
v -0.9168845 -0.1385088 0.81248087
v 1.1331912 -1.1220964 0.39547023
v 1.0445075 -1.1310564 -0.07791746
v 0.5727296 -1.1849817 0.92410684
v 1.0445075 -1.1310564 -0.07791746
v 0.1878452 -1.2404901 -0.14178991
v -0.36737373 -1.6171249 -0.1270802
v -0.5097088 -0.43284938 0.99564594
v -1.0314797 -0.5846641 0.9211426
v -0.9168845 -0.1385088 0.81248087
v 1.118819 0.93551296 -0.0032134056
v 1.3426489 0.031253096 -0.08665526
v 1.2899787 0.09319486 0.17468259
v 0.94389856 0.41166535 0.2174958
v 1.2899787 0.09319486 0.17468259
v 1.4649367 -0.09984444 0.38377398
v 1.4649367 -0.09984444 0.38377398
v 1.2899787 0.09319486 0.17468259
v 1.3426489 0.031253096 -0.08665526
v 0.94389856 0.41166535 0.2174958
v 0.48719856 1.0008014 0.23217547
v 1.2899787 0.09319486 0.17468259
v 0.48719856 1.0008014 0.23217547
v 0.18267359 1.5691067 -0.096286714
v 0.58085483 1.437929 -0.03452027
v 1.118819 0.93551296 -0.0032134056
v 0.48719856 1.0008014 0.23217547
v 0.58085483 1.437929 -0.03452027
v -0.36737373 -1.6171249 -0.1270802
v -0.554617 -1.2526561 0.9265759
v 0.5727296 -1.1849817 0.92410684
v -1.2871104 0.5385449 0.95317554
v -1.095526 1.2014464 0.8532666
v -0.67780524 0.91653657 0.98468256
v -0.9168845 -0.1385088 0.81248087
v -1.1735191 -0.102523655 -0.08250791
v -0.9862051 0.20577411 0.9415859
v -1.1735191 -0.102523655 -0.08250791
v -1.0344433 0.28626105 -0.12546748
v -0.9862051 0.20577411 0.9415859
v -0.9862051 0.20577411 0.9415859
v -1.2871104 0.5385449 0.95317554
v -0.67780524 0.91653657 0.98468256
v 0.7275995 0.3138557 1.5063186
v 0.978922 0.007351842 1.5790365
v -0.7645815 0.089531526 1.5476694
v 0.36497942 0.78531575 1.3874245
v 0.14345105 1.2404364 1.2552769
v -0.5678135 0.76475954 1.398073
v 0.14345105 1.2404364 1.2552769
v 0.18267359 1.5691067 -0.096286714
v 0.48719856 1.0008014 0.23217547
v 0.36497942 0.78531575 1.3874245
v 0.94389856 0.41166535 0.2174958
v 0.7275995 0.3138557 1.5063186
v 0.36497942 0.78531575 1.3874245
v 0.48719856 1.0008014 0.23217547
v 0.787279 -0.6858895 1.5782771
v 0.978922 0.007351842 1.5790365
v 1.4649367 -0.09984444 0.38377398
v 1.1331912 -1.1220964 0.39547023
v 0.94389856 0.41166535 0.2174958
v 1.4649367 -0.09984444 0.38377398
v 0.978922 0.007351842 1.5790365
v 0.7275995 0.3138557 1.5063186
v 1.118819 0.93551296 -0.0032134056
v 0.58085483 1.437929 -0.03452027
v 0.3111427 1.2232114 -0.11282241
v 1.3426489 0.031253096 -0.08665526
v -1.0314797 -0.5846641 0.9211426
v -0.554617 -1.2526561 0.9265759
v -0.36737373 -1.6171249 -0.1270802
v -1.1853354 -0.58998376 -0.11210799
v -1.095526 1.2014464 0.8532666
v -1.2871104 0.5385449 0.95317554
v -1.414325 0.55298465 -0.109081864
v -1.175994 1.23481 -0.09023249
v -0.5097088 -0.43284938 0.99564594
v -0.3562951 -0.31164062 1.5633574
v 0.2154855 -0.86079663 1.5560944
v 0.5727296 -1.1849817 0.92410684
v 1.0445075 -1.1310564 -0.07791746
v 1.3426489 0.031253096 -0.08665526
v 0.3111427 1.2232114 -0.11282241
v 0.1878452 -1.2404901 -0.14178991
v 0.18267359 1.5691067 -0.096286714
v -1.1735191 -0.102523655 -0.08250791
v -0.4459821 1.2091001 -0.0876559
v -1.0344433 0.28626105 -0.12546748
v -1.0344433 0.28626105 -0.12546748
v -1.175994 1.23481 -0.09023249
v -1.414325 0.55298465 -0.109081864
v -1.1853354 -0.58998376 -0.11210799
v -0.36737373 -1.6171249 -0.1270802
v 0.1878452 -1.2404901 -0.14178991
v -0.7645815 0.089531526 1.5476694
v 0.978922 0.007351842 1.5790365
v 0.787279 -0.6858895 1.5782771
v 0.2154855 -0.86079663 1.5560944
v -0.3562951 -0.31164062 1.5633574
v -0.4459821 1.2091001 -0.0876559
v 0.18267359 1.5691067 -0.096286714
v 0.14345105 1.2404364 1.2552769
v -0.42035466 1.0210445 0.9217948
v -0.67780524 0.91653657 0.98468256
v -0.5678135 0.76475954 1.398073
v -0.67780524 0.91653657 0.98468256
v -0.5678135 0.76475954 1.398073
v -0.7645815 0.089531526 1.5476694
v -0.9862051 0.20577411 0.9415859
v -0.5097088 -0.43284938 0.99564594
v -0.9168845 -0.1385088 0.81248087
v -0.7645815 0.089531526 1.5476694
v -0.3562951 -0.31164062 1.5633574
v 1.1331912 -1.1220964 0.39547023
v 0.5727296 -1.1849817 0.92410684
v 0.2154855 -0.86079663 1.5560944
v 0.787279 -0.6858895 1.5782771
v 0.5727296 -1.1849817 0.92410684
v -0.554617 -1.2526561 0.9265759
v -1.0314797 -0.5846641 0.9211426
v -0.5097088 -0.43284938 0.99564594
v 1.3426489 0.031253096 -0.08665526
v 1.0445075 -1.1310564 -0.07791746
v 1.1331912 -1.1220964 0.39547023
v 1.4649367 -0.09984444 0.38377398
v -0.9168845 -0.1385088 0.81248087
v -1.0314797 -0.5846641 0.9211426
v -1.1853354 -0.58998376 -0.11210799
v -1.1735191 -0.102523655 -0.08250791
v -1.175994 1.23481 -0.09023249
v -0.4459821 1.2091001 -0.0876559
v -0.42035466 1.0210445 0.9217948
v -1.095526 1.2014464 0.8532666
v -1.414325 0.55298465 -0.109081864
v -1.2871104 0.5385449 0.95317554
v -0.9862051 0.20577411 0.9415859
v -1.0344433 0.28626105 -0.12546748
vt 0.3083496 0.4230957
vt 0.30126953 0.43676758
vt 0.31176758 0.43701172
vt 0.30273438 0.50439453
vt 0.31445312 0.5463867
vt 0.328125 0.4807129
vt 0.19665527 0.40551758
vt 0.14733887 0.38256836
vt 0.15075684 0.4572754
vt 0.028045654 0.5371094
vt 0.024246216 0.55810547
vt 0.03427124 0.5620117
vt 0.26611328 0.5073242
vt 0.2529297 0.47631836
vt 0.2475586 0.5151367
vt 0.17114258 0.3774414
vt 0.14733887 0.38256836
vt 0.19665527 0.40551758
vt 0.10467529 0.48339844
vt 0.059631348 0.4777832
vt 0.02772522 0.4868164
vt 0.13146973 0.57373047
vt 0.113342285 0.5878906
vt 0.13183594 0.59375
vt 0.31933594 0.36914062
vt 0.31567383 0.4050293
vt 0.3256836 0.4050293
vt 0.2709961 0.5859375
vt 0.24890137 0.5810547
vt 0.23413086 0.59375
vt 0.23413086 0.59375
vt 0.24890137 0.5810547
vt 0.24316406 0.5703125
vt 0.32202148 0.5234375
vt 0.328125 0.4807129
vt 0.31445312 0.5463867
vt 0.328125 0.4807129
vt 0.32836914 0.46875
vt 0.31445312 0.46948242
vt 0.30273438 0.50439453
vt 0.328125 0.4807129
vt 0.31445312 0.46948242
vt 0.15075684 0.4572754
vt 0.20263672 0.45825195
vt 0.19665527 0.40551758
vt 0.009460449 0.609375
vt 0.0032539368 0.63916016
vt 0.027801514 0.63671875
vt 0.2475586 0.5151367
vt 0.25512695 0.5600586
vt 0.26904297 0.5292969
vt 0.06774902 0.6381836
vt 0.08135986 0.6401367
vt 0.08117676 0.6069336
vt 0.031707764 0.5986328
vt 0.009460449 0.609375
vt 0.027801514 0.63671875
vt 0.2175293 0.51708984
vt 0.22058105 0.49731445
vt 0.15161133 0.54589844
vt 0.21105957 0.5463867
vt 0.21728516 0.5703125
vt 0.17541504 0.5732422
vt 0.25390625 0.3461914
vt 0.23999023 0.41552734
vt 0.26879883 0.39941406
vt 0.27539062 0.3408203
vt 0.30664062 0.40307617
vt 0.30908203 0.33398438
vt 0.2878418 0.33764648
vt 0.26879883 0.39941406
vt 0.23217773 0.37646484
vt 0.23388672 0.3540039
vt 0.17419434 0.33398438
vt 0.17114258 0.3774414
vt 0.2709961 0.5859375
vt 0.23413086 0.59375
vt 0.25146484 0.6557617
vt 0.2709961 0.65527344
vt 0.13549805 0.38232422
vt 0.11773682 0.3515625
vt 0.10443115 0.35498047
vt 0.13623047 0.42871094
vt 0.1541748 0.6333008
vt 0.19592285 0.6323242
vt 0.1977539 0.5839844
vt 0.1463623 0.5800781
vt 0.03427124 0.5620117
vt 0.027496338 0.5854492
vt 0.08178711 0.59277344
vt 0.08380127 0.56689453
vt 0.31079102 0.57177734
vt 0.2775879 0.57421875
vt 0.27905273 0.61279297
vt 0.31079102 0.6279297
vt 0.10467529 0.48339844
vt 0.13623047 0.42871094
vt 0.10443115 0.35498047
vt 0.059631348 0.4777832
vt 0.09844971 0.33764648
vt 0.009994507 0.40112305
vt 0.06323242 0.34594727
vt 0.021392822 0.38427734
vt 0.021392822 0.38427734
vt 0.027297974 0.33422852
vt 0.0072517395 0.3642578
vt 0 0.42456055
vt 0.02772522 0.4868164
vt 0.059631348 0.4777832
vt 0.15161133 0.54589844
vt 0.22058105 0.49731445
vt 0.19116211 0.47460938
vt 0.16345215 0.48242188
vt 0.15344238 0.5239258
vt 0.07879639 0.53466797
vt 0.080566406 0.49804688
vt 0.011009216 0.5073242
vt 0.028442383 0.5390625
vt 0.025894165 0.5522461
vt 0.002445221 0.5498047
vt 0.2692871 0.4230957
vt 0.24511719 0.42407227
vt 0.2401123 0.44262695
vt 0.2692871 0.45483398
vt 0.22802734 0.5024414
vt 0.2475586 0.5151367
vt 0.2529297 0.47631836
vt 0.2290039 0.47387695
vt 0.17114258 0.3774414
vt 0.19665527 0.40551758
vt 0.23388672 0.4025879
vt 0.23217773 0.38330078
vt 0.12451172 0.50390625
vt 0.09411621 0.5527344
vt 0.113342285 0.5878906
vt 0.13146973 0.57373047
vt 0.15136719 0.33398438
vt 0.14733887 0.38256836
vt 0.17114258 0.3774414
vt 0.17419434 0.33398438
vt 0.109680176 0.60839844
vt 0.09185791 0.6035156
vt 0.09094238 0.65722656
vt 0.10882568 0.65478516
vt 0.08380127 0.56689453
vt 0.07879639 0.53466797
vt 0.028045654 0.5371094
vt 0.03427124 0.5620117
vt 0.28979492 0.56396484
vt 0.2919922 0.5097656
vt 0.26611328 0.5073242
vt 0.26635742 0.5576172
vn 0.18981934 0.11706543 -0.9746094
vn 0.18981934 0.11706543 -0.9746094
vn 0.18981934 0.11706543 -0.9746094
vn 0.3605957 0.26220703 0.89501953
vn 0.3605957 0.26220703 0.89501953
vn 0.3605957 0.26220703 0.89501953
vn 0.32080078 -0.94189453 0.1003418
vn 0.32080078 -0.94189453 0.1003418
vn 0.32080078 -0.94189453 0.1003418
vn 0.031799316 0.4567871 0.88916016
vn 0.031799316 0.4567871 0.88916016
vn 0.031799316 0.4567871 0.88916016
vn -0.91552734 -0.2890625 0.27929688
vn -0.91552734 -0.2890625 0.27929688
vn -0.91552734 -0.2890625 0.27929688
vn 0.10986328 -0.9941406 -0.0017671585
vn 0.10986328 -0.9941406 -0.0017671585
vn 0.10986328 -0.9941406 -0.0017671585
vn 0.095947266 -0.1796875 -0.9790039
vn 0.095947266 -0.1796875 -0.9790039
vn 0.095947266 -0.1796875 -0.9790039
vn -0.21582031 0.28295898 0.9345703
vn -0.21582031 0.28295898 0.9345703
vn -0.21582031 0.28295898 0.9345703
vn 0.9638672 0.22558594 0.14074707
vn 0.9638672 0.22558594 0.14074707
vn 0.9638672 0.22558594 0.14074707
vn 0.6801758 0.7260742 0.10076904
vn 0.6801758 0.7260742 0.10076904
vn 0.6801758 0.7260742 0.10076904
vn 0.7451172 0.6669922 -0.007873535
vn 0.7451172 0.6669922 -0.007873535
vn 0.7451172 0.6669922 -0.007873535
vn 0.32299805 0.22753906 0.91845703
vn 0.32299805 0.22753906 0.91845703
vn 0.32299805 0.22753906 0.91845703
vn 0.036712646 0.51464844 0.8564453
vn 0.036712646 0.51464844 0.8564453
vn 0.036712646 0.51464844 0.8564453
vn 0.3540039 0.43066406 0.8300781
vn 0.3540039 0.43066406 0.8300781
vn 0.3540039 0.43066406 0.8300781
vn 0.05718994 -0.9404297 0.33544922
vn 0.05718994 -0.9404297 0.33544922
vn 0.05718994 -0.9404297 0.33544922
vn -0.17089844 0.19494629 0.9658203
vn -0.17089844 0.19494629 0.9658203
vn -0.17089844 0.19494629 0.9658203
vn -0.92529297 -0.28149414 0.25390625
vn -0.92529297 -0.28149414 0.25390625
vn -0.92529297 -0.28149414 0.25390625
vn -0.9370117 0.34277344 0.068237305
vn -0.9370117 0.34277344 0.068237305
vn -0.9370117 0.34277344 0.068237305
vn -0.019256592 -0.05218506 0.99853516
vn -0.019256592 -0.05218506 0.99853516
vn -0.019256592 -0.05218506 0.99853516
vn -0.0018863678 0.23706055 0.9716797
vn -0.0018863678 0.23706055 0.9716797
vn -0.0018863678 0.23706055 0.9716797
vn -0.0018863678 0.23706055 0.9716797
vn -0.0018863678 0.23706055 0.9716797
vn -0.0018863678 0.23706055 0.9716797
vn 0.84521484 0.50878906 0.16479492
vn 0.84521484 0.50878906 0.16479492
vn 0.84521484 0.50878906 0.16479492
vn 0.84521484 0.50878906 0.16479492
vn 0.76904297 0.6123047 0.18493652
vn 0.76904297 0.6123047 0.18493652
vn 0.76904297 0.6123047 0.18493652
vn 0.76904297 0.6123047 0.18493652
vn 0.8881836 -0.26879883 0.3720703
vn 0.8881836 -0.26879883 0.3720703
vn 0.8881836 -0.26879883 0.3720703
vn 0.8881836 -0.26879883 0.3720703
vn 0.6850586 0.7026367 0.19104004
vn 0.6850586 0.7026367 0.19104004
vn 0.6850586 0.7026367 0.19104004
vn 0.6850586 0.7026367 0.19104004
vn 0.17980957 0.13354492 -0.9746094
vn 0.17980957 0.13354492 -0.9746094
vn 0.17980957 0.13354492 -0.9746094
vn 0.17980957 0.13354492 -0.9746094
vn -0.7910156 -0.6044922 0.09448242
vn -0.7910156 -0.6044922 0.09448242
vn -0.7910156 -0.6044922 0.09448242
vn -0.7910156 -0.6044922 0.09448242
vn -0.9453125 0.30859375 0.10522461
vn -0.9453125 0.30859375 0.10522461
vn -0.9453125 0.30859375 0.10522461
vn -0.9453125 0.30859375 0.10522461
vn -0.6020508 -0.7763672 0.18603516
vn -0.6020508 -0.7763672 0.18603516
vn -0.6020508 -0.7763672 0.18603516
vn -0.6020508 -0.7763672 0.18603516
vn 0.008659363 0.004714966 -1
vn 0.008659363 0.004714966 -1
vn 0.008659363 0.004714966 -1
vn 0.008659363 0.004714966 -1
vn 0.008659363 0.004714966 -1
vn 0.008659363 0.004714966 -1
vn 0.008659363 0.004714966 -1
vn 0.008659363 0.004714966 -1
vn -0.0027618408 0.036712646 -0.9995117
vn -0.0027618408 0.036712646 -0.9995117
vn -0.0027618408 0.036712646 -0.9995117
vn -0.010261536 0.023956299 -0.9995117
vn -0.010261536 0.023956299 -0.9995117
vn -0.010261536 0.023956299 -0.9995117
vn -0.01687622 -0.00015449524 1
vn -0.01687622 -0.00015449524 1
vn -0.01687622 -0.00015449524 1
vn -0.01687622 -0.00015449524 1
vn -0.01687622 -0.00015449524 1
vn -0.46289062 0.859375 0.21789551
vn -0.46289062 0.859375 0.21789551
vn -0.46289062 0.859375 0.21789551
vn -0.46289062 0.859375 0.21789551
vn -0.46289062 0.859375 0.21789551
vn -0.46289062 0.859375 0.21789551
vn -0.86279297 0.34301758 0.3708496
vn -0.86279297 0.34301758 0.3708496
vn -0.86279297 0.34301758 0.3708496
vn -0.86279297 0.34301758 0.3708496
vn -0.65722656 -0.6748047 0.33520508
vn -0.65722656 -0.6748047 0.33520508
vn -0.65722656 -0.6748047 0.33520508
vn -0.65722656 -0.6748047 0.33520508
vn 0.3803711 -0.7910156 0.4790039
vn 0.3803711 -0.7910156 0.4790039
vn 0.3803711 -0.7910156 0.4790039
vn 0.3803711 -0.7910156 0.4790039
vn -0.032562256 -0.08215332 0.99609375
vn -0.032562256 -0.08215332 0.99609375
vn -0.032562256 -0.08215332 0.99609375
vn -0.032562256 -0.08215332 0.99609375
vn 0.93115234 -0.27075195 -0.24328613
vn 0.93115234 -0.27075195 -0.24328613
vn 0.93115234 -0.27075195 -0.24328613
vn 0.93115234 -0.27075195 -0.24328613
vn -0.9667969 0.14855957 0.20812988
vn -0.9667969 0.14855957 0.20812988
vn -0.9667969 0.14855957 0.20812988
vn -0.9667969 0.14855957 0.20812988
vn 0.13916016 0.9848633 0.10406494
vn 0.13916016 0.9848633 0.10406494
vn 0.13916016 0.9848633 0.10406494
vn 0.13916016 0.9848633 0.10406494
vn -0.66015625 -0.75097656 0.020935059
vn -0.66015625 -0.75097656 0.020935059
vn -0.66015625 -0.75097656 0.020935059
vn -0.66015625 -0.75097656 0.020935059
g Rock_12_0
f 3/3/3 2/2/2 1/1/1
f 6/6/6 5/5/5 4/4/4
f 9/9/9 8/8/8 7/7/7
f 12/12/12 11/11/11 10/10/10
f 15/15/15 14/14/14 13/13/13
f 18/18/18 17/17/17 16/16/16
f 21/21/21 20/20/20 19/19/19
f 24/24/24 23/23/23 22/22/22
f 27/27/27 26/26/26 25/25/25
f 30/30/30 29/29/29 28/28/28
f 33/33/33 32/32/32 31/31/31
f 36/36/36 35/35/35 34/34/34
f 39/39/39 38/38/38 37/37/37
f 42/42/42 41/41/41 40/40/40
f 45/45/45 44/44/44 43/43/43
f 48/48/48 47/47/47 46/46/46
f 51/51/51 50/50/50 49/49/49
f 54/54/54 53/53/53 52/52/52
f 57/57/57 56/56/56 55/55/55
f 60/60/60 59/59/59 58/58/58
f 58/58/58 61/61/61 60/60/60
f 61/61/61 62/62/62 60/60/60
f 62/62/62 63/63/63 60/60/60
f 66/66/66 65/65/65 64/64/64
f 67/67/67 66/66/66 64/64/64
f 70/70/70 69/69/69 68/68/68
f 71/71/71 70/70/70 68/68/68
f 74/74/74 73/73/73 72/72/72
f 75/75/75 74/74/74 72/72/72
f 78/78/78 77/77/77 76/76/76
f 79/79/79 78/78/78 76/76/76
f 82/82/82 81/81/81 80/80/80
f 83/83/83 82/82/82 80/80/80
f 86/86/86 85/85/85 84/84/84
f 87/87/87 86/86/86 84/84/84
f 90/90/90 89/89/89 88/88/88
f 91/91/91 90/90/90 88/88/88
f 94/94/94 93/93/93 92/92/92
f 95/95/95 94/94/94 92/92/92
f 98/98/98 97/97/97 96/96/96
f 96/96/96 99/99/99 98/98/98
f 99/99/99 100/100/100 98/98/98
f 99/99/99 101/101/101 100/100/100
f 101/101/101 102/102/102 100/100/100
f 101/101/101 103/103/103 102/102/102
f 105/105/105 102/102/102 104/104/104
f 106/106/106 105/105/105 104/104/104
f 108/108/108 107/107/107 101/101/101
f 109/109/109 108/108/108 101/101/101
f 112/112/112 111/111/111 110/110/110
f 110/110/110 113/113/113 112/112/112
f 110/110/110 114/114/114 113/113/113
f 117/117/117 116/116/116 115/115/115
f 115/115/115 118/118/118 117/117/117
f 118/118/118 119/119/119 117/117/117
f 119/119/119 120/120/120 117/117/117
f 123/123/123 122/122/122 121/121/121
f 124/124/124 123/123/123 121/121/121
f 127/127/127 126/126/126 125/125/125
f 128/128/128 127/127/127 125/125/125
f 131/131/131 130/130/130 129/129/129
f 132/132/132 131/131/131 129/129/129
f 135/135/135 134/134/134 133/133/133
f 136/136/136 135/135/135 133/133/133
f 139/139/139 138/138/138 137/137/137
f 140/140/140 139/139/139 137/137/137
f 143/143/143 142/142/142 141/141/141
f 144/144/144 143/143/143 141/141/141
f 147/147/147 146/146/146 145/145/145
f 148/148/148 147/147/147 145/145/145
f 151/151/151 150/150/150 149/149/149
f 152/152/152 151/151/151 149/149/149
