g rock_small_02
v -0.70435786 -0.16801333 0.18362051
v -0.7639422 0.09613845 0.51554126
v -0.675469 -0.15285294 0.6425694
v -0.7639422 0.09613845 0.51554126
v -0.71433455 0.14935331 0.62898743
v -0.675469 -0.15285294 0.6425694
v -0.34990197 0.1306141 1.1610786
v -0.675469 -0.15285294 0.6425694
v -0.71433455 0.14935331 0.62898743
v -0.13700233 0.26568043 0.1736817
v -0.34990197 0.1306141 1.1610786
v -0.71433455 0.14935331 0.62898743
v 0.76888067 -0.098441675 -0.17701583
v 0.49577498 -0.19041939 0.33190736
v 0.7449316 0.09496266 -0.070043564
v 0.49577498 -0.19041939 0.33190736
v 0.48587978 0.28200108 0.43236363
v 0.7449316 0.09496266 -0.070043564
v 0.68660676 0.15426141 -0.5618522
v 0.76888067 -0.098441675 -0.17701583
v 0.7449316 0.09496266 -0.070043564
v 0.5767868 -0.15299533 -0.7622949
v 0.76888067 -0.098441675 -0.17701583
v 0.68660676 0.15426141 -0.5618522
v 0.5767868 -0.15299533 -0.7622949
v 0.62221885 -0.20960842 -0.2244859
v 0.76888067 -0.098441675 -0.17701583
v 0.39411554 0.09925911 -1.0888249
v 0.5767868 -0.15299533 -0.7622949
v 0.68660676 0.15426141 -0.5618522
v 0.3314714 -0.12389827 -1.1068436
v 0.5767868 -0.15299533 -0.7622949
v 0.39411554 0.09925911 -1.0888249
v 0.39411554 0.09925911 -1.0888249
v 0.68660676 0.15426141 -0.5618522
v -0.05636571 0.19148597 -0.83984387
v 0.39411554 0.09925911 -1.0888249
v -0.05636571 0.19148597 -0.83984387
v -0.13365692 0.073973656 -1.1841964
v -0.13365692 0.073973656 -1.1841964
v -0.05636571 0.19148597 -0.83984387
v -0.13700233 0.26568043 0.1736817
v -0.13365692 0.073973656 -1.1841964
v -0.1254814 -0.15963882 -1.1317925
v 0.3314714 -0.12389827 -1.1068436
v 0.39411554 0.09925911 -1.0888249
v -0.13365692 0.073973656 -1.1841964
v 0.3314714 -0.12389827 -1.1068436
v 0.3314714 -0.12389827 -1.1068436
v -0.1254814 -0.15963882 -1.1317925
v 0.5767868 -0.15299533 -0.7622949
v -0.3828064 -0.23841375 -0.65436816
v 0.62221885 -0.20960842 -0.2244859
v -0.1254814 -0.15963882 -1.1317925
v -0.3828064 -0.23841375 -0.65436816
v 0.5767868 -0.15299533 -0.7622949
v -0.3828064 -0.23841375 -0.65436816
v -0.43922964 -0.2423997 0.709068
v 0.62221885 -0.20960842 -0.2244859
v -0.43922964 -0.2423997 0.709068
v -0.023197943 -0.18743803 0.7250724
v 0.62221885 -0.20960842 -0.2244859
v 0.62221885 -0.20960842 -0.2244859
v -0.023197943 -0.18743803 0.7250724
v 0.49577498 -0.19041939 0.33190736
v -0.023197943 -0.18743803 0.7250724
v 0.2554584 -0.017950337 0.99142396
v 0.49577498 -0.19041939 0.33190736
v 0.49577498 -0.19041939 0.33190736
v 0.2554584 -0.017950337 0.99142396
v 0.48587978 0.28200108 0.43236363
v -0.052524474 -0.14266302 1.1112268
v 0.2554584 -0.017950337 0.99142396
v -0.023197943 -0.18743803 0.7250724
v -0.052524474 -0.14266302 1.1112268
v -0.2962267 -0.092968516 1.1622083
v 0.012027974 0.1715948 1.0815247
v 0.2554584 -0.017950337 0.99142396
v -0.052524474 -0.14266302 1.1112268
v 0.012027974 0.1715948 1.0815247
v 0.48587978 0.28200108 0.43236363
v 0.2554584 -0.017950337 0.99142396
v 0.012027974 0.1715948 1.0815247
v -0.13700233 0.26568043 0.1736817
v 0.48587978 0.28200108 0.43236363
v 0.012027974 0.1715948 1.0815247
v -0.13700233 0.26568043 0.1736817
v 0.012027974 0.1715948 1.0815247
v -0.34990197 0.1306141 1.1610786
v -0.34990197 0.1306141 1.1610786
v 0.012027974 0.1715948 1.0815247
v -0.2962267 -0.092968516 1.1622083
v -0.052524474 -0.14266302 1.1112268
v -0.43922964 -0.2423997 0.709068
v -0.2962267 -0.092968516 1.1622083
v -0.2962267 -0.092968516 1.1622083
v -0.43922964 -0.2423997 0.709068
v -0.675469 -0.15285294 0.6425694
v -0.56288284 -0.26053274 0.08653107
v -0.675469 -0.15285294 0.6425694
v -0.43922964 -0.2423997 0.709068
v -0.43922964 -0.2423997 0.709068
v -0.052524474 -0.14266302 1.1112268
v -0.023197943 -0.18743803 0.7250724
v -0.70435786 -0.16801333 0.18362051
v -0.675469 -0.15285294 0.6425694
v -0.56288284 -0.26053274 0.08653107
v -0.3828064 -0.23841375 -0.65436816
v -0.70435786 -0.16801333 0.18362051
v -0.56288284 -0.26053274 0.08653107
v -0.3828064 -0.23841375 -0.65436816
v -0.56288284 -0.26053274 0.08653107
v -0.43922964 -0.2423997 0.709068
v -0.13365692 0.073973656 -1.1841964
v -0.5428416 0.15647696 -0.20883037
v -0.3828064 -0.23841375 -0.65436816
v -0.1254814 -0.15963882 -1.1317925
v -0.13365692 0.073973656 -1.1841964
v -0.3828064 -0.23841375 -0.65436816
v -0.5428416 0.15647696 -0.20883037
v -0.7639422 0.09613845 0.51554126
v -0.3828064 -0.23841375 -0.65436816
v -0.7639422 0.09613845 0.51554126
v -0.5428416 0.15647696 -0.20883037
v -0.71433455 0.14935331 0.62898743
v -0.3828064 -0.23841375 -0.65436816
v -0.7639422 0.09613845 0.51554126
v -0.70435786 -0.16801333 0.18362051
v -0.5428416 0.15647696 -0.20883037
v -0.13365692 0.073973656 -1.1841964
v -0.13700233 0.26568043 0.1736817
v -0.5428416 0.15647696 -0.20883037
v -0.13700233 0.26568043 0.1736817
v -0.71433455 0.14935331 0.62898743
v -0.34990197 0.1306141 1.1610786
v -0.2962267 -0.092968516 1.1622083
v -0.675469 -0.15285294 0.6425694
v 0.76888067 -0.098441675 -0.17701583
v 0.62221885 -0.20960842 -0.2244859
v 0.49577498 -0.19041939 0.33190736
v -0.05636571 0.19148597 -0.83984387
v 0.48587978 0.28200108 0.43236363
v -0.13700233 0.26568043 0.1736817
v 0.68660676 0.15426141 -0.5618522
v 0.48587978 0.28200108 0.43236363
v -0.05636571 0.19148597 -0.83984387
v 0.7449316 0.09496266 -0.070043564
v 0.48587978 0.28200108 0.43236363
v 0.68660676 0.15426141 -0.5618522
vt 0.99316406 0.87109375
vt 0.95458984 0.9003906
vt 0.98339844 0.9291992
vt 0.95458984 0.9003906
vt 0.93652344 0.90625
vt 0.98339844 0.9291992
vt 0.8984375 0.9472656
vt 0.98339844 0.9291992
vt 0.93652344 0.90625
vt 0.87402344 0.8574219
vt 0.8984375 0.9472656
vt 0.93652344 0.90625
vt 0.72265625 0.8222656
vt 0.7319336 0.8984375
vt 0.7548828 0.82910156
vt 0.7319336 0.8984375
vt 0.79833984 0.87597656
vt 0.7548828 0.82910156
vt 0.7758789 0.7739258
vt 0.72265625 0.8222656
vt 0.7548828 0.82910156
vt 0.78125 0.72265625
vt 0.73095703 0.73828125
vt 0.7758789 0.7739258
vt 0.78125 0.72265625
vt 0.7290039 0.7026367
vt 0.73095703 0.73828125
vt 0.82470703 0.7368164
vt 0.78125 0.72265625
vt 0.7758789 0.7739258
vt 0.8227539 0.71533203
vt 0.78125 0.72265625
vt 0.82470703 0.7368164
vt 0.82470703 0.7368164
vt 0.7758789 0.7739258
vt 0.87353516 0.7602539
vt 0.82470703 0.7368164
vt 0.87353516 0.7602539
vt 0.8901367 0.7260742
vt 0.8901367 0.7260742
vt 0.87353516 0.7602539
vt 0.87402344 0.8574219
vt 0.8901367 0.7260742
vt 0.87109375 0.68066406
vt 0.8227539 0.71533203
vt 0.82470703 0.7368164
vt 0.8901367 0.7260742
vt 0.8227539 0.71533203
vt 0.8227539 0.71533203
vt 0.87109375 0.68066406
vt 0.78125 0.72265625
vt 0.85546875 0.6088867
vt 0.7290039 0.7026367
vt 0.87109375 0.68066406
vt 0.85546875 0.6088867
vt 0.78125 0.72265625
vt 0.85546875 0.6088867
vt 0.74121094 0.49560547
vt 0.7290039 0.7026367
vt 0.74121094 0.49560547
vt 0.69189453 0.5541992
vt 0.7290039 0.7026367
vt 0.7290039 0.7026367
vt 0.69189453 0.5541992
vt 0.6738281 0.6411133
vt 0.69189453 0.5541992
vt 0.6459961 0.57470703
vt 0.6738281 0.6411133
vt 0.7319336 0.8984375
vt 0.8095703 0.9458008
vt 0.79833984 0.87597656
vt 0.6660156 0.51220703
vt 0.6459961 0.57470703
vt 0.69189453 0.5541992
vt 0.8378906 0.98046875
vt 0.89990234 0.9794922
vt 0.8535156 0.93896484
vt 0.8095703 0.9458008
vt 0.8378906 0.98046875
vt 0.8535156 0.93896484
vt 0.79833984 0.87597656
vt 0.8095703 0.9458008
vt 0.8535156 0.93896484
vt 0.87402344 0.8574219
vt 0.79833984 0.87597656
vt 0.8535156 0.93896484
vt 0.87402344 0.8574219
vt 0.8535156 0.93896484
vt 0.8984375 0.9472656
vt 0.8984375 0.9472656
vt 0.8535156 0.93896484
vt 0.89990234 0.9794922
vt 0.6660156 0.51220703
vt 0.74121094 0.49560547
vt 0.6821289 0.47045898
vt 0.6821289 0.47045898
vt 0.74121094 0.49560547
vt 0.7817383 0.4638672
vt 0.8129883 0.5317383
vt 0.7817383 0.4638672
vt 0.74121094 0.49560547
vt 0.74121094 0.49560547
vt 0.6660156 0.51220703
vt 0.69189453 0.5541992
vt 0.8276367 0.5019531
vt 0.7817383 0.4638672
vt 0.8129883 0.5317383
vt 0.85546875 0.6088867
vt 0.8276367 0.5019531
vt 0.8129883 0.5317383
vt 0.85546875 0.6088867
vt 0.8129883 0.5317383
vt 0.74121094 0.49560547
vt 0.8901367 0.7260742
vt 0.93603516 0.8305664
vt 0.96875 0.7675781
vt 0.9082031 0.70947266
vt 0.8901367 0.7260742
vt 0.96875 0.7675781
vt 0.93603516 0.8305664
vt 0.95458984 0.9003906
vt 0.96875 0.7675781
vt 0.95458984 0.9003906
vt 0.93603516 0.8305664
vt 0.93652344 0.90625
vt 0.96875 0.7675781
vt 0.95458984 0.9003906
vt 0.99316406 0.87109375
vt 0.93603516 0.8305664
vt 0.8901367 0.7260742
vt 0.87402344 0.8574219
vt 0.93603516 0.8305664
vt 0.87402344 0.8574219
vt 0.93652344 0.90625
vt 0.8984375 0.9472656
vt 0.89990234 0.9794922
vt 0.98339844 0.9291992
vt 0.72265625 0.8222656
vt 0.70214844 0.8491211
vt 0.7319336 0.8984375
vt 0.87353516 0.7602539
vt 0.79833984 0.87597656
vt 0.87402344 0.8574219
vt 0.7758789 0.7739258
vt 0.79833984 0.87597656
vt 0.87353516 0.7602539
vt 0.7548828 0.82910156
vt 0.79833984 0.87597656
vt 0.7758789 0.7739258
vn -0.9506836 -0.3022461 0.06982422
vn -0.9506836 -0.3022461 0.06982422
vn -0.9506836 -0.3022461 0.06982422
vn -0.89501953 -0.095458984 0.43603516
vn -0.89501953 -0.095458984 0.43603516
vn -0.89501953 -0.095458984 0.43603516
vn -0.82373047 -0.08068848 0.56152344
vn -0.82373047 -0.08068848 0.56152344
vn -0.82373047 -0.08068848 0.56152344
vn -0.11138916 0.98779297 0.111083984
vn -0.11138916 0.98779297 0.111083984
vn -0.11138916 0.98779297 0.111083984
vn 0.8828125 -0.13879395 0.44873047
vn 0.8828125 -0.13879395 0.44873047
vn 0.8828125 -0.13879395 0.44873047
vn 0.8725586 -0.08404541 0.48120117
vn 0.8725586 -0.08404541 0.48120117
vn 0.8725586 -0.08404541 0.48120117
vn 0.97998047 0.17407227 -0.09527588
vn 0.97998047 0.17407227 -0.09527588
vn 0.97998047 0.17407227 -0.09527588
vn 0.94433594 -0.14404297 -0.29638672
vn 0.94433594 -0.14404297 -0.29638672
vn 0.94433594 -0.14404297 -0.29638672
vn 0.62597656 -0.7685547 -0.13378906
vn 0.62597656 -0.7685547 -0.13378906
vn 0.62597656 -0.7685547 -0.13378906
vn 0.87402344 0.0043754578 -0.4855957
vn 0.87402344 0.0043754578 -0.4855957
vn 0.87402344 0.0043754578 -0.4855957
vn 0.7949219 -0.17626953 -0.5805664
vn 0.7949219 -0.17626953 -0.5805664
vn 0.7949219 -0.17626953 -0.5805664
vn 0.11029053 0.98046875 -0.16357422
vn 0.11029053 0.98046875 -0.16357422
vn 0.11029053 0.98046875 -0.16357422
vn 0.013557434 0.9453125 -0.3256836
vn 0.013557434 0.9453125 -0.3256836
vn 0.013557434 0.9453125 -0.3256836
vn -0.65771484 0.74560547 -0.106933594
vn -0.65771484 0.74560547 -0.106933594
vn -0.65771484 0.74560547 -0.106933594
vn 0.07006836 -0.21606445 -0.9736328
vn 0.07006836 -0.21606445 -0.9736328
vn 0.07006836 -0.21606445 -0.9736328
vn 0.1763916 0.029937744 -0.9838867
vn 0.1763916 0.029937744 -0.9838867
vn 0.1763916 0.029937744 -0.9838867
vn 0.08496094 -0.98583984 -0.14379883
vn 0.08496094 -0.98583984 -0.14379883
vn 0.08496094 -0.98583984 -0.14379883
vn 0.07574463 -0.99072266 -0.11071777
vn 0.07574463 -0.99072266 -0.11071777
vn 0.07421875 -0.9897461 -0.123291016
vn 0.07421875 -0.9897461 -0.123291016
vn 0.07421875 -0.9897461 -0.123291016
vn 0.029373169 -0.9995117 -0.0017061234
vn 0.029373169 -0.9995117 -0.0017061234
vn 0.029373169 -0.9995117 -0.0017061234
vn 0.12609863 -0.98583984 0.10870361
vn 0.12609863 -0.98583984 0.10870361
vn 0.12609863 -0.98583984 0.10870361
vn 0.024597168 -0.99902344 0.040039062
vn 0.024597168 -0.99902344 0.040039062
vn 0.024597168 -0.99902344 0.040039062
vn 0.24267578 -0.91308594 0.32714844
vn 0.24267578 -0.91308594 0.32714844
vn 0.24267578 -0.91308594 0.32714844
vn 0.93310547 -0.055877686 0.35473633
vn 0.93310547 -0.055877686 0.35473633
vn 0.93310547 -0.055877686 0.35473633
vn 0.41674805 -0.8989258 0.13586426
vn 0.41674805 -0.8989258 0.13586426
vn 0.41674805 -0.8989258 0.13586426
vn 0.21398926 0.04827881 0.97558594
vn 0.21398926 0.04827881 0.97558594
vn 0.21398926 0.04827881 0.97558594
vn 0.35717773 0.014884949 0.93408203
vn 0.35717773 0.014884949 0.93408203
vn 0.35717773 0.014884949 0.93408203
vn 0.6298828 0.54589844 0.5527344
vn 0.6298828 0.54589844 0.5527344
vn 0.6298828 0.54589844 0.5527344
vn -0.0736084 0.99072266 0.114746094
vn -0.0736084 0.99072266 0.114746094
vn -0.0736084 0.99072266 0.114746094
vn -0.086364746 0.9892578 0.11669922
vn -0.086364746 0.9892578 0.11669922
vn -0.086364746 0.9892578 0.11669922
vn 0.20837402 0.05496216 0.9765625
vn 0.20837402 0.05496216 0.9765625
vn 0.20837402 0.05496216 0.9765625
vn -0.11791992 -0.9316406 0.34423828
vn -0.11791992 -0.9316406 0.34423828
vn -0.11791992 -0.9316406 0.34423828
vn -0.42114258 -0.81347656 0.40112305
vn -0.42114258 -0.81347656 0.40112305
vn -0.42114258 -0.81347656 0.40112305
vn -0.3774414 -0.92041016 0.10180664
vn -0.3774414 -0.92041016 0.10180664
vn -0.3774414 -0.92041016 0.10180664
vn 0.12524414 -0.984375 0.12365723
vn 0.12524414 -0.984375 0.12365723
vn 0.12524414 -0.984375 0.12365723
vn -0.51660156 -0.8540039 0.06072998
vn -0.51660156 -0.8540039 0.06072998
vn -0.51660156 -0.8540039 0.06072998
vn -0.6196289 -0.765625 -0.17346191
vn -0.6196289 -0.765625 -0.17346191
vn -0.6196289 -0.765625 -0.17346191
vn 0.13232422 -0.99121094 0.0025806427
vn 0.13232422 -0.99121094 0.0025806427
vn 0.13232422 -0.99121094 0.0025806427
vn -0.91796875 0.06903076 -0.39086914
vn -0.91796875 0.06903076 -0.39086914
vn -0.91796875 0.06903076 -0.39086914
vn -0.8618164 -0.13952637 -0.48754883
vn -0.8618164 -0.13952637 -0.48754883
vn -0.8618164 -0.13952637 -0.48754883
vn -0.9536133 -0.053100586 -0.2956543
vn -0.9536133 -0.053100586 -0.2956543
vn -0.9536133 -0.053100586 -0.2956543
vn -0.59277344 0.796875 -0.11456299
vn -0.59277344 0.796875 -0.11456299
vn -0.59277344 0.796875 -0.11456299
vn -0.89501953 0.25683594 -0.36499023
vn -0.89501953 0.25683594 -0.36499023
vn -0.89501953 0.25683594 -0.36499023
vn -0.13317871 0.9814453 -0.13891602
vn -0.13317871 0.9814453 -0.13891602
vn -0.13317871 0.9814453 -0.13891602
vn -0.22607422 0.97314453 -0.037994385
vn -0.22607422 0.97314453 -0.037994385
vn -0.22607422 0.97314453 -0.037994385
vn -0.7836914 -0.1850586 0.5932617
vn -0.7836914 -0.1850586 0.5932617
vn -0.7836914 -0.1850586 0.5932617
vn 0.56396484 -0.81103516 0.15612793
vn 0.56396484 -0.81103516 0.15612793
vn 0.56396484 -0.81103516 0.15612793
vn 0.004055023 0.9975586 -0.07269287
vn 0.004055023 0.9975586 -0.07269287
vn 0.004055023 0.9975586 -0.07269287
vn 0.09033203 0.9897461 -0.108947754
vn 0.09033203 0.9897461 -0.108947754
vn 0.09033203 0.9897461 -0.108947754
vn 0.61328125 0.7895508 0.02243042
vn 0.61328125 0.7895508 0.02243042
vn 0.61328125 0.7895508 0.02243042
g rock_small_02_0
f 3/3/3 2/2/2 1/1/1
f 6/6/6 5/5/5 4/4/4
f 9/9/9 8/8/8 7/7/7
f 12/12/12 11/11/11 10/10/10
f 15/15/15 14/14/14 13/13/13
f 18/18/18 17/17/17 16/16/16
f 21/21/21 20/20/20 19/19/19
f 24/24/24 23/23/23 22/22/22
f 27/27/27 26/26/26 25/25/25
f 30/30/30 29/29/29 28/28/28
f 33/33/33 32/32/32 31/31/31
f 36/36/36 35/35/35 34/34/34
f 39/39/39 38/38/38 37/37/37
f 42/42/42 41/41/41 40/40/40
f 45/45/45 44/44/44 43/43/43
f 48/48/48 47/47/47 46/46/46
f 51/51/51 50/50/50 49/49/49
f 53/53/53 52/52/52 51/51/51
f 56/56/56 55/55/55 54/54/54
f 59/59/59 58/58/58 57/57/57
f 62/62/62 61/61/61 60/60/60
f 65/65/65 64/64/64 63/63/63
f 68/68/68 67/67/67 66/66/66
f 71/71/71 70/70/70 69/69/69
f 74/74/74 73/73/73 72/72/72
f 77/77/77 76/76/76 75/75/75
f 80/80/80 79/79/79 78/78/78
f 83/83/83 82/82/82 81/81/81
f 86/86/86 85/85/85 84/84/84
f 89/89/89 88/88/88 87/87/87
f 92/92/92 91/91/91 90/90/90
f 95/95/95 94/94/94 93/93/93
f 98/98/98 97/97/97 96/96/96
f 101/101/101 100/100/100 99/99/99
f 104/104/104 103/103/103 102/102/102
f 107/107/107 106/106/106 105/105/105
f 110/110/110 109/109/109 108/108/108
f 113/113/113 112/112/112 111/111/111
f 116/116/116 115/115/115 114/114/114
f 119/119/119 118/118/118 117/117/117
f 122/122/122 121/121/121 120/120/120
f 125/125/125 124/124/124 123/123/123
f 128/128/128 127/127/127 126/126/126
f 131/131/131 130/130/130 129/129/129
f 134/134/134 133/133/133 132/132/132
f 137/137/137 136/136/136 135/135/135
f 140/140/140 139/139/139 138/138/138
f 143/143/143 142/142/142 141/141/141
f 146/146/146 145/145/145 144/144/144
f 149/149/149 148/148/148 147/147/147
