g Rock_10
v 0.4072532 -1.1377907 0.65379703
v 0.65141034 -0.8426429 1.0203475
v 1.0012139 -0.39744717 0.86614424
v 0.7980486 0.36822563 0.5487543
v 0.33449483 1.0432413 0.2417161
v 0.79676795 0.3838653 0.2035439
v 0.4615329 1.4137441 -0.045397162
v 0.33449483 1.0432413 0.2417161
v 0.19235179 1.19862 -0.12308967
v 1.0002116 0.91097 -0.014020443
v 1.1713713 0.068651915 0.16387552
v 0.33449483 1.0432413 0.2417161
v 0.496803 0.16342698 1.0124519
v 0.544104 0.21273805 0.654086
v 1.0012139 -0.39744717 0.86614424
v -1.2374287 -0.031399373 0.5880626
v -0.68729883 -0.5307692 0.6058414
v -1.3194352 -0.085857 -0.08615267
v 1.0002116 0.91097 -0.014020443
v 1.2240217 0.006675731 -0.0974949
v 1.1713713 0.068651915 0.16387552
v 0.79676795 0.3838653 0.2035439
v 0.33449483 1.0432413 0.2417161
v 1.1713713 0.068651915 0.16387552
v 1.0002116 0.91097 -0.014020443
v 0.33449483 1.0432413 0.2417161
v 0.4615329 1.4137441 -0.045397162
v 1.0503505 -1.1011457 -0.09764725
v 1.2240217 0.006675731 -0.0974949
v 0.19235179 1.19862 -0.12308967
v 0.05581042 -1.3495151 -0.1190812
v 0.04540684 1.5185213 -0.15997213
v -1.3194352 -0.085857 -0.08615267
v -0.9094139 0.8883772 -0.12564749
v 0.7980486 0.36822563 0.5487543
v 1.2658101 -0.12199058 0.6073529
v -1.2374287 -0.031399373 0.5880626
v 0.33449483 1.0432413 0.2417161
v 0.052632164 1.529458 0.25776523
v -0.8940475 0.92106104 0.4025908
v -0.0029861107 0.07957186 0.6435069
v 0.544104 0.21273805 0.654086
v 0.496803 0.16342698 1.0124519
v 0.02401067 0.021699626 1.0142568
v -0.0029861107 0.07957186 0.6435069
v 0.02401067 0.021699626 1.0142568
v -0.38993788 -0.15295507 1.0213608
v -0.5047432 -0.1420332 0.65094805
v 0.4072532 -1.1377907 0.65379703
v 1.0012139 -0.39744717 0.86614424
v 0.544104 0.21273805 0.654086
v -0.0029861107 0.07957186 0.6435069
v -0.5047432 -0.1420332 0.65094805
v 0.496803 0.16342698 1.0124519
v 1.0012139 -0.39744717 0.86614424
v 0.65141034 -0.8426429 1.0203475
v -0.38993788 -0.15295507 1.0213608
v 0.02401067 0.021699626 1.0142568
v 1.2240217 0.006675731 -0.0974949
v 1.0503505 -1.1011457 -0.09764725
v 0.95133746 -1.108541 0.57491916
v 1.2658101 -0.12199058 0.6073529
v -0.9094139 0.8883772 -0.12564749
v -0.8940475 0.92106104 0.4025908
v -1.2374287 -0.031399373 0.5880626
v -1.3194352 -0.085857 -0.08615267
v 0.052632164 1.529458 0.25776523
v -0.8940475 0.92106104 0.4025908
v -0.9094139 0.8883772 -0.12564749
v 0.04540684 1.5185213 -0.15997213
v 0.075116396 -1.3183204 0.5772767
v 0.95133746 -1.108541 0.57491916
v 1.0503505 -1.1011457 -0.09764725
v 0.05581042 -1.3495151 -0.1190812
v 0.075116396 -1.3183204 0.5772767
v 0.05581042 -1.3495151 -0.1190812
v -1.3194352 -0.085857 -0.08615267
v -0.68729883 -0.5307692 0.6058414
v -1.2374287 -0.031399373 0.5880626
v 1.2658101 -0.12199058 0.6073529
v 0.95133746 -1.108541 0.57491916
v -0.68729883 -0.5307692 0.6058414
v 0.075116396 -1.3183204 0.5772767
v 0.33449483 1.0432413 0.2417161
v 0.052632164 1.529458 0.25776523
v 0.04540684 1.5185213 -0.15997213
v 0.19235179 1.19862 -0.12308967
v 1.1713713 0.068651915 0.16387552
v 1.2240217 0.006675731 -0.0974949
v 1.2658101 -0.12199058 0.6073529
v 0.7980486 0.36822563 0.5487543
v 0.79676795 0.3838653 0.2035439
v 1.0002116 0.91097 -0.014020443
v 0.4615329 1.4137441 -0.045397162
v 0.19235179 1.19862 -0.12308967
v 1.2240217 0.006675731 -0.0974949
v 0.24061948 -0.41136423 1.6698939
v -0.2440738 0.7450992 1.669161
v 0.12895286 0.84892845 0.33431023
v 0.3317476 -0.48223814 0.33363616
v -0.7443473 0.55278826 1.6674532
v -0.67718834 -0.18507689 1.6671555
v -0.74768037 -0.19989173 0.3346197
v -0.8903057 0.55681026 0.33077133
v 0.12895286 0.84892845 0.33431023
v -0.2440738 0.7450992 1.669161
v -0.7443473 0.55278826 1.6674532
v -0.8903057 0.55681026 0.33077133
v -0.38993788 -0.15295507 1.0213608
v 0.65141034 -0.8426429 1.0203475
v 0.4072532 -1.1377907 0.65379703
v -0.5047432 -0.1420332 0.65094805
v -0.21502976 -0.3926106 0.33127946
v -0.74768037 -0.19989173 0.3346197
v -0.67718834 -0.18507689 1.6671555
v -0.2053787 -0.32902065 1.6676695
v -0.21502976 -0.3926106 0.33127946
v -0.2053787 -0.32902065 1.6676695
v 0.24061948 -0.41136423 1.6698939
v 0.3317476 -0.48223814 0.33363616
v -0.21502976 -0.3926106 0.33127946
v 0.3317476 -0.48223814 0.33363616
v 0.12895286 0.84892845 0.33431023
v -0.8903057 0.55681026 0.33077133
v -0.74768037 -0.19989173 0.3346197
v -0.2440738 0.7450992 1.669161
v 0.24061948 -0.41136423 1.6698939
v -0.2053787 -0.32902065 1.6676695
v -0.67718834 -0.18507689 1.6671555
v -0.7443473 0.55278826 1.6674532
vt 0.54541016 0.9589844
vt 0.5258789 0.9736328
vt 0.5336914 0.99658203
vt 0.4013672 0.9248047
vt 0.4128418 0.9584961
vt 0.41796875 0.92529297
vt 0.42749023 0.95947266
vt 0.4128418 0.9584961
vt 0.42993164 0.96875
vt 0.6142578 0.7006836
vt 0.6254883 0.74121094
vt 0.63916016 0.6723633
vt 0.6645508 0.7578125
vt 0.64746094 0.7578125
vt 0.65771484 0.79003906
vt 0.6064453 0.77734375
vt 0.60302734 0.7578125
vt 0.57421875 0.7836914
vt 0.65771484 0.8100586
vt 0.6533203 0.84716797
vt 0.66308594 0.8491211
vt 0.6333008 0.7192383
vt 0.63916016 0.6723633
vt 0.6254883 0.74121094
vt 0.6142578 0.7006836
vt 0.63916016 0.6723633
vt 0.6254883 0.6669922
vt 0.40673828 0.66796875
vt 0.35913086 0.7001953
vt 0.34765625 0.77734375
vt 0.44970703 0.69677734
vt 0.34375 0.7944336
vt 0.44921875 0.7885742
vt 0.40014648 0.80810547
vt 0.5541992 0.7319336
vt 0.5541992 0.7011719
vt 0.4675293 0.7758789
vt 0.55615234 0.77197266
vt 0.55908203 0.7993164
vt 0.5004883 0.8041992
vt 0.6459961 0.734375
vt 0.64746094 0.7578125
vt 0.6645508 0.7548828
vt 0.66503906 0.7363281
vt 0.5703125 0.95996094
vt 0.55126953 0.9604492
vt 0.55126953 0.97558594
vt 0.5703125 0.9819336
vt 0.38720703 0.8222656
vt 0.33666992 0.82373047
vt 0.33325195 0.86328125
vt 0.3605957 0.8769531
vt 0.3857422 0.88623047
vt 0.3334961 0.91845703
vt 0.33666992 0.9555664
vt 0.36254883 0.95654297
vt 0.37426758 0.89990234
vt 0.3552246 0.90625
vt 0.6269531 0.88916016
vt 0.6269531 0.94189453
vt 0.65283203 0.9379883
vt 0.6533203 0.8881836
vt 0.43481445 0.8598633
vt 0.4111328 0.8574219
vt 0.40307617 0.9033203
vt 0.43115234 0.9140625
vt 0.41552734 0.81591797
vt 0.4111328 0.8574219
vt 0.43481445 0.8598633
vt 0.43432617 0.81640625
vt 0.59765625 0.7133789
vt 0.59814453 0.6713867
vt 0.57128906 0.6669922
vt 0.56640625 0.70703125
vt 0.59765625 0.7133789
vt 0.56640625 0.70703125
vt 0.57421875 0.7836914
vt 0.60302734 0.7578125
vt 0.4675293 0.7758789
vt 0.5541992 0.7011719
vt 0.51708984 0.67089844
vt 0.4711914 0.7397461
vt 0.4753418 0.6904297
vt 0.4128418 0.9584961
vt 0.4111328 0.9794922
vt 0.43188477 0.9819336
vt 0.42993164 0.96875
vt 0.63720703 0.97021484
vt 0.6269531 0.97558594
vt 0.65283203 0.9794922
vt 0.65722656 0.9506836
vt 0.6401367 0.94970703
vt 0.3359375 0.7392578
vt 0.33496094 0.7734375
vt 0.34765625 0.77734375
vt 0.35913086 0.7001953
vt 0.5361328 0.87890625
vt 0.58691406 0.87890625
vt 0.58691406 0.8105469
vt 0.53222656 0.8105469
vt 0.62109375 0.88720703
vt 0.5883789 0.88671875
vt 0.58447266 0.95410156
vt 0.62109375 0.9555664
vt 0.5366211 0.8847656
vt 0.5493164 0.9526367
vt 0.5727539 0.953125
vt 0.578125 0.8852539
vt 0.6665039 0.72558594
vt 0.6660156 0.67578125
vt 0.6464844 0.6748047
vt 0.64697266 0.7285156
vt 0.6220703 0.8105469
vt 0.59277344 0.8100586
vt 0.5996094 0.8774414
vt 0.6220703 0.87841797
vt 0.64697266 0.8774414
vt 0.64697266 0.8100586
vt 0.6298828 0.8100586
vt 0.6279297 0.8779297
vt 0.48461914 0.87109375
vt 0.5097656 0.8798828
vt 0.51171875 0.81689453
vt 0.46069336 0.8178711
vt 0.4572754 0.8569336
vt 0.48657227 0.9506836
vt 0.49829102 0.89404297
vt 0.47924805 0.9003906
vt 0.45751953 0.9121094
vt 0.46069336 0.94970703
vn 0.78271484 -0.6220703 -0.020462036
vn 0.78271484 -0.6220703 -0.020462036
vn 0.78271484 -0.6220703 -0.020462036
vn 0.81933594 0.5732422 0.022918701
vn 0.81933594 0.5732422 0.022918701
vn 0.81933594 0.5732422 0.022918701
vn -0.6245117 0.6010742 0.49926758
vn -0.6245117 0.6010742 0.49926758
vn -0.6245117 0.6010742 0.49926758
vn 0.39135742 0.265625 0.88134766
vn 0.39135742 0.265625 0.88134766
vn 0.39135742 0.265625 0.88134766
vn 0.75439453 0.6298828 0.18615723
vn 0.75439453 0.6298828 0.18615723
vn 0.75439453 0.6298828 0.18615723
vn -0.66796875 -0.73095703 0.14025879
vn -0.66796875 -0.73095703 0.14025879
vn -0.66796875 -0.73095703 0.14025879
vn 0.9638672 0.22558594 0.14074707
vn 0.9638672 0.22558594 0.14074707
vn 0.9638672 0.22558594 0.14074707
vn 0.13793945 0.03945923 0.9897461
vn 0.13793945 0.03945923 0.9897461
vn 0.13793945 0.03945923 0.9897461
vn 0.39624023 0.4736328 0.7866211
vn 0.39624023 0.4736328 0.7866211
vn 0.39624023 0.4736328 0.7866211
vn 0.002500534 -0.010940552 -1
vn 0.002500534 -0.010940552 -1
vn 0.002500534 -0.010940552 -1
vn 0.002500534 -0.010940552 -1
vn 0.002500534 -0.010940552 -1
vn 0.002500534 -0.010940552 -1
vn 0.002500534 -0.010940552 -1
vn 0.023956299 0.21240234 0.9770508
vn 0.023956299 0.21240234 0.9770508
vn 0.023956299 0.21240234 0.9770508
vn 0.023956299 0.21240234 0.9770508
vn 0.023956299 0.21240234 0.9770508
vn 0.023956299 0.21240234 0.9770508
vn -0.2590332 0.95654297 0.13342285
vn -0.2590332 0.95654297 0.13342285
vn -0.2590332 0.95654297 0.13342285
vn -0.2590332 0.95654297 0.13342285
vn -0.38989258 0.90722656 0.15881348
vn -0.38989258 0.90722656 0.15881348
vn -0.38989258 0.90722656 0.15881348
vn -0.38989258 0.90722656 0.15881348
vn 0.13720703 -0.017913818 -0.9902344
vn 0.13720703 -0.017913818 -0.9902344
vn 0.13720703 -0.017913818 -0.9902344
vn 0.13720703 -0.017913818 -0.9902344
vn 0.13720703 -0.017913818 -0.9902344
vn 0.11279297 0.026947021 0.99316406
vn 0.11279297 0.026947021 0.99316406
vn 0.11279297 0.026947021 0.99316406
vn 0.11279297 0.026947021 0.99316406
vn 0.11279297 0.026947021 0.99316406
vn 0.9736328 -0.22717285 0.018005371
vn 0.9736328 -0.22717285 0.018005371
vn 0.9736328 -0.22717285 0.018005371
vn 0.9736328 -0.22717285 0.018005371
vn -0.92822266 0.36865234 0.048461914
vn -0.92822266 0.36865234 0.048461914
vn -0.92822266 0.36865234 0.048461914
vn -0.92822266 0.36865234 0.048461914
vn -0.5473633 0.8364258 -0.025497437
vn -0.5473633 0.8364258 -0.025497437
vn -0.5473633 0.8364258 -0.025497437
vn -0.5473633 0.8364258 -0.025497437
vn 0.23742676 -0.9707031 0.030700684
vn 0.23742676 -0.9707031 0.030700684
vn 0.23742676 -0.9707031 0.030700684
vn 0.23742676 -0.9707031 0.030700684
vn -0.68652344 -0.71875 0.10797119
vn -0.68652344 -0.71875 0.10797119
vn -0.68652344 -0.71875 0.10797119
vn -0.68652344 -0.71875 0.10797119
vn 0.0030117035 -0.0135650635 1
vn 0.0030117035 -0.0135650635 1
vn 0.0030117035 -0.0135650635 1
vn 0.0030117035 -0.0135650635 1
vn 0.0030117035 -0.0135650635 1
vn 0.8808594 0.4663086 -0.08203125
vn 0.8808594 0.4663086 -0.08203125
vn 0.8808594 0.4663086 -0.08203125
vn 0.8808594 0.4663086 -0.08203125
vn 0.7163086 0.69140625 0.095703125
vn 0.7163086 0.69140625 0.095703125
vn 0.7163086 0.69140625 0.095703125
vn 0.7163086 0.69140625 0.095703125
vn 0.7163086 0.69140625 0.095703125
vn 0.17895508 0.13305664 -0.9746094
vn 0.17895508 0.13305664 -0.9746094
vn 0.17895508 0.13305664 -0.9746094
vn 0.17895508 0.13305664 -0.9746094
vn 0.9501953 0.2626953 0.16833496
vn 0.9501953 0.2626953 0.16833496
vn 0.9501953 0.2626953 0.16833496
vn 0.9501953 0.2626953 0.16833496
vn -0.9873047 -0.13830566 0.08062744
vn -0.9873047 -0.13830566 0.08062744
vn -0.9873047 -0.13830566 0.08062744
vn -0.9873047 -0.13830566 0.08062744
vn -0.30371094 0.9526367 0.012641907
vn -0.30371094 0.9526367 0.012641907
vn -0.30371094 0.9526367 0.012641907
vn -0.30371094 0.9526367 0.012641907
vn -0.55810547 -0.6459961 0.5209961
vn -0.55810547 -0.6459961 0.5209961
vn -0.55810547 -0.6459961 0.5209961
vn -0.55810547 -0.6459961 0.5209961
vn -0.3173828 -0.9477539 0.037353516
vn -0.3173828 -0.9477539 0.037353516
vn -0.3173828 -0.9477539 0.037353516
vn -0.3173828 -0.9477539 0.037353516
vn -0.1706543 -0.984375 0.044311523
vn -0.1706543 -0.984375 0.044311523
vn -0.1706543 -0.984375 0.044311523
vn -0.1706543 -0.984375 0.044311523
vn 0.0015268326 8.535385E-05 -1
vn 0.0015268326 8.535385E-05 -1
vn 0.0015268326 8.535385E-05 -1
vn 0.0015268326 8.535385E-05 -1
vn 0.0015268326 8.535385E-05 -1
vn -0.0032978058 -0.0012788773 1
vn -0.0032978058 -0.0012788773 1
vn -0.0032978058 -0.0012788773 1
vn -0.0032978058 -0.0012788773 1
vn -0.0032978058 -0.0012788773 1
g Rock_10_0
f 3/3/3 2/2/2 1/1/1
f 6/6/6 5/5/5 4/4/4
f 9/9/9 8/8/8 7/7/7
f 12/12/12 11/11/11 10/10/10
f 15/15/15 14/14/14 13/13/13
f 18/18/18 17/17/17 16/16/16
f 21/21/21 20/20/20 19/19/19
f 24/24/24 23/23/23 22/22/22
f 27/27/27 26/26/26 25/25/25
f 30/30/30 29/29/29 28/28/28
f 28/28/28 31/31/31 30/30/30
f 31/31/31 32/32/32 30/30/30
f 31/31/31 33/33/33 32/32/32
f 33/33/33 34/34/34 32/32/32
f 37/37/37 36/36/36 35/35/35
f 35/35/35 38/38/38 37/37/37
f 38/38/38 39/39/39 37/37/37
f 39/39/39 40/40/40 37/37/37
f 43/43/43 42/42/42 41/41/41
f 44/44/44 43/43/43 41/41/41
f 47/47/47 46/46/46 45/45/45
f 48/48/48 47/47/47 45/45/45
f 51/51/51 50/50/50 49/49/49
f 49/49/49 52/52/52 51/51/51
f 49/49/49 53/53/53 52/52/52
f 56/56/56 55/55/55 54/54/54
f 54/54/54 57/57/57 56/56/56
f 54/54/54 58/58/58 57/57/57
f 61/61/61 60/60/60 59/59/59
f 62/62/62 61/61/61 59/59/59
f 65/65/65 64/64/64 63/63/63
f 66/66/66 65/65/65 63/63/63
f 69/69/69 68/68/68 67/67/67
f 70/70/70 69/69/69 67/67/67
f 73/73/73 72/72/72 71/71/71
f 74/74/74 73/73/73 71/71/71
f 77/77/77 76/76/76 75/75/75
f 78/78/78 77/77/77 75/75/75
f 81/81/81 80/80/80 79/79/79
f 79/79/79 82/82/82 81/81/81
f 82/82/82 83/83/83 81/81/81
f 86/86/86 85/85/85 84/84/84
f 87/87/87 86/86/86 84/84/84
f 90/90/90 89/89/89 88/88/88
f 88/88/88 91/91/91 90/90/90
f 88/88/88 92/92/92 91/91/91
f 95/95/95 94/94/94 93/93/93
f 96/96/96 95/95/95 93/93/93
f 99/99/99 98/98/98 97/97/97
f 100/100/100 99/99/99 97/97/97
f 103/103/103 102/102/102 101/101/101
f 104/104/104 103/103/103 101/101/101
f 107/107/107 106/106/106 105/105/105
f 108/108/108 107/107/107 105/105/105
f 111/111/111 110/110/110 109/109/109
f 112/112/112 111/111/111 109/109/109
f 115/115/115 114/114/114 113/113/113
f 116/116/116 115/115/115 113/113/113
f 119/119/119 118/118/118 117/117/117
f 120/120/120 119/119/119 117/117/117
f 123/123/123 122/122/122 121/121/121
f 121/121/121 124/124/124 123/123/123
f 121/121/121 125/125/125 124/124/124
f 128/128/128 127/127/127 126/126/126
f 126/126/126 129/129/129 128/128/128
f 126/126/126 130/130/130 129/129/129
