g rock_medium_01
v -1.4003134 -0.72432154 0.07202335
v -1.1114254 -0.66600055 1.3012296
v -0.3335367 -0.8536355 -0.60570496
v 0.64320207 -0.55781627 1.3247262
v -1.1114254 -0.66600055 1.3012296
v -0.10693315 -0.19023922 1.5531155
v -1.4003134 -0.72432154 0.07202335
v -1.5724728 0.01903988 0.5303177
v -1.1114254 -0.66600055 1.3012296
v -1.1578188 -0.12398191 1.4367642
v -1.1114254 -0.66600055 1.3012296
v -1.5724728 0.01903988 0.5303177
v -1.5724728 0.01903988 0.5303177
v -0.9160208 0.19586727 0.5384605
v -1.1578188 -0.12398191 1.4367642
v -1.1578188 -0.12398191 1.4367642
v -0.10693315 -0.19023922 1.5531155
v -1.1114254 -0.66600055 1.3012296
v -0.9160208 0.19586727 0.5384605
v -0.1073191 0.44985598 0.69589096
v -1.1578188 -0.12398191 1.4367642
v -0.9160208 0.19586727 0.5384605
v -1.2872883 0.39370725 0.39296904
v -0.1073191 0.44985598 0.69589096
v 0.024404205 0.17302047 1.5473192
v -0.10693315 -0.19023922 1.5531155
v -1.1578188 -0.12398191 1.4367642
v -1.2804111 0.70241314 0.36239043
v -0.1073191 0.44985598 0.69589096
v -1.2872883 0.39370725 0.39296904
v -1.2804111 0.70241314 0.36239043
v -0.33213195 0.65900403 0.56385577
v -0.1073191 0.44985598 0.69589096
v -0.3335367 -0.8536355 -0.60570496
v -0.9344205 -0.5134362 -0.87672853
v -1.4003134 -0.72432154 0.07202335
v -1.4991738 -0.105599165 -0.41277093
v -1.5724728 0.01903988 0.5303177
v -1.4003134 -0.72432154 0.07202335
v -1.4991738 -0.105599165 -0.41277093
v -1.1160442 0.1418252 0.1841664
v -1.5724728 0.01903988 0.5303177
v -1.1160442 0.1418252 0.1841664
v -1.1801273 0.43244335 -0.26720884
v -1.2872883 0.39370725 0.39296904
v -1.4991738 -0.105599165 -0.41277093
v -1.1425875 0.014381602 -0.7692041
v -1.1160442 0.1418252 0.1841664
v -0.48928726 0.701581 -0.43379483
v -0.33213195 0.65900403 0.56385577
v -1.1727556 0.81516 -0.16537139
v -0.48928726 0.701581 -0.43379483
v -1.1727556 0.81516 -0.16537139
v -0.7583786 0.223212 -0.5482672
v -0.7583786 0.223212 -0.5482672
v -1.1425875 0.014381602 -0.7692041
v -0.42630598 0.122203276 -0.95492715
v -0.42630598 0.122203276 -0.95492715
v -1.1425875 0.014381602 -0.7692041
v -0.9344205 -0.5134362 -0.87672853
v -0.42630598 0.122203276 -0.95492715
v -0.48928726 0.701581 -0.43379483
v -0.7583786 0.223212 -0.5482672
v -0.17718929 -0.44866163 -1.0970222
v -0.42630598 0.122203276 -0.95492715
v -0.9344205 -0.5134362 -0.87672853
v -0.067484714 0.7652012 -1.2733773
v -0.48928726 0.701581 -0.43379483
v -0.42630598 0.122203276 -0.95492715
v -0.3335367 -0.8536355 -0.60570496
v -1.1114254 -0.66600055 1.3012296
v 0.64320207 -0.55781627 1.3247262
v 0.9058096 -0.55710644 0.42865124
v -0.3335367 -0.8536355 -0.60570496
v 0.64320207 -0.55781627 1.3247262
v -0.003996876 0.7525594 0.10821731
v -0.1073191 0.44985598 0.69589096
v -0.33213195 0.65900403 0.56385577
v -0.003996876 0.7525594 0.10821731
v 0.26394245 0.4039602 0.31842324
v -0.1073191 0.44985598 0.69589096
v 0.86869615 -0.1319793 1.3247437
v 0.64320207 -0.55781627 1.3247262
v -0.10693315 -0.19023922 1.5531155
v 0.024404205 0.17302047 1.5473192
v 0.7619578 0.27229127 0.90247715
v 0.86869615 -0.1319793 1.3247437
v 0.26394245 0.4039602 0.31842324
v 0.758258 0.9263463 0.1714593
v 0.6862864 0.29328394 0.39968288
v 0.8884636 -0.2628781 0.58273983
v 0.86869615 -0.1319793 1.3247437
v 0.7619578 0.27229127 0.90247715
v 0.6862864 0.29328394 0.39968288
v 1.2484438 0.394208 0.32523823
v 0.8884636 -0.2628781 0.58273983
v 0.07242676 -0.33978975 -1.365888
v -0.17718929 -0.44866163 -1.0970222
v -0.3335367 -0.8536355 -0.60570496
v 1.2579038 -0.58313984 -0.87773716
v 0.862409 -0.46973625 -1.3268315
v -0.3335367 -0.8536355 -0.60570496
v 1.2579038 -0.58313984 -0.87773716
v 0.9058096 -0.55710644 0.42865124
v 1.2702575 -0.49177757 0.18754274
v 0.07242676 -0.33978975 -1.365888
v -0.067484714 0.7652012 -1.2733773
v -0.17718929 -0.44866163 -1.0970222
v -0.067484714 0.7652012 -1.2733773
v 0.52549887 1.0546937 -1.158517
v -0.48928726 0.701581 -0.43379483
v 0.758258 0.9263463 0.1714593
v 0.26394245 0.4039602 0.31842324
v -0.003996876 0.7525594 0.10821731
v 0.52549887 1.0546937 -1.158517
v 0.88924855 1.1308551 -0.33339593
v -0.003996876 0.7525594 0.10821731
v 0.862409 -0.46973625 -1.3268315
v -0.067484714 0.7652012 -1.2733773
v 0.07242676 -0.33978975 -1.365888
v 0.88924855 1.1308551 -0.33339593
v 1.4327534 0.80459017 -0.3577871
v 0.758258 0.9263463 0.1714593
v 1.4327534 0.80459017 -0.3577871
v 1.2484438 0.394208 0.32523823
v 0.758258 0.9263463 0.1714593
v 1.2579038 -0.58313984 -0.87773716
v 1.2619722 0.6115678 -1.2173429
v 0.862409 -0.46973625 -1.3268315
v 1.4327534 0.80459017 -0.3577871
v 1.5427791 -0.10069054 -0.5387304
v 1.2484438 0.394208 0.32523823
v 1.2579038 -0.58313984 -0.87773716
v 1.2702575 -0.49177757 0.18754274
v 1.5427791 -0.10069054 -0.5387304
v 1.2579038 -0.58313984 -0.87773716
v 1.5427791 -0.10069054 -0.5387304
v 1.2619722 0.6115678 -1.2173429
v -1.1160442 0.1418252 0.1841664
v -0.9160208 0.19586727 0.5384605
v -1.5724728 0.01903988 0.5303177
v -1.2872883 0.39370725 0.39296904
v -0.9160208 0.19586727 0.5384605
v -1.1160442 0.1418252 0.1841664
v -0.33213195 0.65900403 0.56385577
v -1.2804111 0.70241314 0.36239043
v -1.1727556 0.81516 -0.16537139
v 0.024404205 0.17302047 1.5473192
v -1.1578188 -0.12398191 1.4367642
v -0.1073191 0.44985598 0.69589096
v -0.9344205 -0.5134362 -0.87672853
v -0.3335367 -0.8536355 -0.60570496
v -0.17718929 -0.44866163 -1.0970222
v -1.1425875 0.014381602 -0.7692041
v -1.4991738 -0.105599165 -0.41277093
v -0.9344205 -0.5134362 -0.87672853
v -1.1801273 0.43244335 -0.26720884
v -1.2804111 0.70241314 0.36239043
v -1.2872883 0.39370725 0.39296904
v -1.1801273 0.43244335 -0.26720884
v -1.1727556 0.81516 -0.16537139
v -1.2804111 0.70241314 0.36239043
v -0.9344205 -0.5134362 -0.87672853
v -1.4991738 -0.105599165 -0.41277093
v -1.4003134 -0.72432154 0.07202335
v -1.1801273 0.43244335 -0.26720884
v -1.1160442 0.1418252 0.1841664
v -0.7583786 0.223212 -0.5482672
v -0.7583786 0.223212 -0.5482672
v -1.1160442 0.1418252 0.1841664
v -1.1425875 0.014381602 -0.7692041
v -1.1801273 0.43244335 -0.26720884
v -0.7583786 0.223212 -0.5482672
v -1.1727556 0.81516 -0.16537139
v -0.003996876 0.7525594 0.10821731
v -0.33213195 0.65900403 0.56385577
v -0.48928726 0.701581 -0.43379483
v 0.26394245 0.4039602 0.31842324
v 0.7619578 0.27229127 0.90247715
v -0.1073191 0.44985598 0.69589096
v 0.024404205 0.17302047 1.5473192
v 0.86869615 -0.1319793 1.3247437
v -0.10693315 -0.19023922 1.5531155
v 0.7619578 0.27229127 0.90247715
v 0.024404205 0.17302047 1.5473192
v -0.1073191 0.44985598 0.69589096
v 0.6862864 0.29328394 0.39968288
v 0.7619578 0.27229127 0.90247715
v 0.26394245 0.4039602 0.31842324
v 0.8884636 -0.2628781 0.58273983
v 0.7619578 0.27229127 0.90247715
v 0.6862864 0.29328394 0.39968288
v 0.64320207 -0.55781627 1.3247262
v 0.86869615 -0.1319793 1.3247437
v 0.9058096 -0.55710644 0.42865124
v 0.86869615 -0.1319793 1.3247437
v 0.8884636 -0.2628781 0.58273983
v 0.9058096 -0.55710644 0.42865124
v 1.2702575 -0.49177757 0.18754274
v 0.9058096 -0.55710644 0.42865124
v 0.8884636 -0.2628781 0.58273983
v 0.758258 0.9263463 0.1714593
v 1.2484438 0.394208 0.32523823
v 0.6862864 0.29328394 0.39968288
v 1.2484438 0.394208 0.32523823
v 1.2702575 -0.49177757 0.18754274
v 0.8884636 -0.2628781 0.58273983
v 0.07242676 -0.33978975 -1.365888
v -0.3335367 -0.8536355 -0.60570496
v 0.862409 -0.46973625 -1.3268315
v 1.2579038 -0.58313984 -0.87773716
v -0.3335367 -0.8536355 -0.60570496
v 0.9058096 -0.55710644 0.42865124
v -0.067484714 0.7652012 -1.2733773
v -0.42630598 0.122203276 -0.95492715
v -0.17718929 -0.44866163 -1.0970222
v 0.52549887 1.0546937 -1.158517
v -0.003996876 0.7525594 0.10821731
v -0.48928726 0.701581 -0.43379483
v -0.067484714 0.7652012 -1.2733773
v 1.2619722 0.6115678 -1.2173429
v 0.52549887 1.0546937 -1.158517
v 0.88924855 1.1308551 -0.33339593
v 0.758258 0.9263463 0.1714593
v -0.003996876 0.7525594 0.10821731
v -0.067484714 0.7652012 -1.2733773
v 0.862409 -0.46973625 -1.3268315
v 1.2619722 0.6115678 -1.2173429
v 1.2702575 -0.49177757 0.18754274
v 1.2484438 0.394208 0.32523823
v 1.5427791 -0.10069054 -0.5387304
v 1.2619722 0.6115678 -1.2173429
v 1.5427791 -0.10069054 -0.5387304
v 1.4327534 0.80459017 -0.3577871
v 0.52549887 1.0546937 -1.158517
v 1.4327534 0.80459017 -0.3577871
v 0.88924855 1.1308551 -0.33339593
v 1.2619722 0.6115678 -1.2173429
vt 0.48754883 0.46069336
vt 0.48632812 0.37475586
vt 0.39160156 0.4819336
vt 0.38867188 0.26245117
vt 0.33203125 0.14221191
vt 0.34936523 0.22351074
vt 0.24829102 0.06591797
vt 0.2536621 0.13427734
vt 0.33203125 0.14221191
vt 0.3046875 0.16918945
vt 0.33203125 0.14221191
vt 0.2536621 0.13427734
vt 0.2536621 0.13427734
vt 0.24108887 0.18225098
vt 0.3046875 0.16918945
vt 0.3046875 0.16918945
vt 0.34936523 0.22351074
vt 0.33203125 0.14221191
vt 0.24108887 0.18225098
vt 0.25634766 0.25610352
vt 0.3046875 0.16918945
vt 0.48461914 0.09790039
vt 0.45117188 0.07165527
vt 0.4802246 0.19042969
vt 0.32177734 0.24291992
vt 0.34936523 0.22351074
vt 0.3046875 0.16918945
vt 0.43725586 0.081604004
vt 0.4802246 0.19042969
vt 0.45117188 0.07165527
vt 0.43725586 0.081604004
vt 0.4428711 0.1619873
vt 0.4802246 0.19042969
vt 0.1340332 0.0064048767
vt 0.15979004 0.061157227
vt 0.24829102 0.06591797
vt 0.20117188 0.10003662
vt 0.2536621 0.13427734
vt 0.24829102 0.06591797
vt 0.20117188 0.10003662
vt 0.21142578 0.15710449
vt 0.2536621 0.13427734
vt 0.45922852 0.039642334
vt 0.4074707 0.046691895
vt 0.45117188 0.07165527
vt 0.20117188 0.10003662
vt 0.16345215 0.10119629
vt 0.21142578 0.15710449
vt 0.34521484 0.11437988
vt 0.4428711 0.1619873
vt 0.40673828 0.07336426
vt 0.34521484 0.11437988
vt 0.40673828 0.07336426
vt 0.34350586 0.019744873
vt 0.14611816 0.13269043
vt 0.16345215 0.10119629
vt 0.117370605 0.10430908
vt 0.117370605 0.10430908
vt 0.16345215 0.10119629
vt 0.15979004 0.061157227
vt 0.12475586 0.45922852
vt 0.040222168 0.4111328
vt 0.07507324 0.4794922
vt 0.09857178 0.046905518
vt 0.117370605 0.10430908
vt 0.15979004 0.061157227
vt 0.11859131 0.3881836
vt 0.040222168 0.4111328
vt 0.12475586 0.45922852
vt 0.39160156 0.4819336
vt 0.48632812 0.37475586
vt 0.36889648 0.32714844
vt 0.32739258 0.38183594
vt 0.39160156 0.4819336
vt 0.36889648 0.32714844
vt 0.39208984 0.20690918
vt 0.4802246 0.19042969
vt 0.4428711 0.1619873
vt 0.39208984 0.20690918
vt 0.42529297 0.2565918
vt 0.4802246 0.19042969
vt 0.3388672 0.31176758
vt 0.38867188 0.26245117
vt 0.34936523 0.22351074
vt 0.32177734 0.24291992
vt 0.29907227 0.31103516
vt 0.3388672 0.31176758
vt 0.00073862076 0.26831055
vt 0.07330322 0.29370117
vt 0.052459717 0.23095703
vt 0.30737305 0.35668945
vt 0.3388672 0.31176758
vt 0.29907227 0.31103516
vt 0.052459717 0.23095703
vt 0.10620117 0.25927734
vt 0.12322998 0.19299316
vt 0.19702148 0.38330078
vt 0.2277832 0.42944336
vt 0.28833008 0.36547852
vt 0.18493652 0.29956055
vt 0.18945312 0.3347168
vt 0.28833008 0.36547852
vt 0.18493652 0.29956055
vt 0.17175293 0.18969727
vt 0.1665039 0.23425293
vt 0.19702148 0.38330078
vt 0.11859131 0.3881836
vt 0.2277832 0.42944336
vt 0.11859131 0.3881836
vt 0.11102295 0.35009766
vt 0.040222168 0.4111328
vt 0.07330322 0.29370117
vt 0.00073862076 0.26831055
vt 0.018615723 0.33032227
vt 0.11102295 0.35009766
vt 0.09515381 0.3166504
vt 0.018615723 0.33032227
vt 0.18945312 0.3347168
vt 0.11859131 0.3881836
vt 0.19702148 0.38330078
vt 0.09515381 0.3166504
vt 0.1159668 0.30029297
vt 0.07330322 0.29370117
vt 0.1159668 0.30029297
vt 0.10620117 0.25927734
vt 0.07330322 0.29370117
vt 0.18493652 0.29956055
vt 0.13647461 0.32763672
vt 0.18945312 0.3347168
vt 0.1159668 0.30029297
vt 0.1538086 0.28881836
vt 0.10620117 0.25927734
vt 0.18493652 0.29956055
vt 0.1665039 0.23425293
vt 0.1538086 0.28881836
vt 0.18493652 0.29956055
vt 0.1538086 0.28881836
vt 0.13647461 0.32763672
vt 0.21142578 0.15710449
vt 0.24108887 0.18225098
vt 0.2536621 0.13427734
vt 0.45117188 0.07165527
vt 0.48461914 0.09790039
vt 0.45922852 0.039642334
vt 0.4428711 0.1619873
vt 0.43725586 0.081604004
vt 0.40673828 0.07336426
vt 0.32177734 0.24291992
vt 0.3046875 0.16918945
vt 0.25634766 0.25610352
vt 0.15979004 0.061157227
vt 0.1340332 0.0064048767
vt 0.09857178 0.046905518
vt 0.16345215 0.10119629
vt 0.20117188 0.10003662
vt 0.15979004 0.061157227
vt 0.4074707 0.046691895
vt 0.43725586 0.081604004
vt 0.45117188 0.07165527
vt 0.4074707 0.046691895
vt 0.40673828 0.07336426
vt 0.43725586 0.081604004
vt 0.15979004 0.061157227
vt 0.20117188 0.10003662
vt 0.24829102 0.06591797
vt 0.4074707 0.046691895
vt 0.45922852 0.039642334
vt 0.34350586 0.019744873
vt 0.14611816 0.13269043
vt 0.21142578 0.15710449
vt 0.16345215 0.10119629
vt 0.4074707 0.046691895
vt 0.34350586 0.019744873
vt 0.40673828 0.07336426
vt 0.39208984 0.20690918
vt 0.4428711 0.1619873
vt 0.34521484 0.11437988
vt 0.23522949 0.3017578
vt 0.29907227 0.31103516
vt 0.25634766 0.25610352
vt 0.32177734 0.24291992
vt 0.3388672 0.31176758
vt 0.34936523 0.22351074
vt 0.29907227 0.31103516
vt 0.32177734 0.24291992
vt 0.25634766 0.25610352
vt 0.26464844 0.3293457
vt 0.29907227 0.31103516
vt 0.23522949 0.3017578
vt 0.30737305 0.35668945
vt 0.29907227 0.31103516
vt 0.26464844 0.3293457
vt 0.36889648 0.32714844
vt 0.3388672 0.31176758
vt 0.32739258 0.38183594
vt 0.3388672 0.31176758
vt 0.30737305 0.35668945
vt 0.32739258 0.38183594
vt 0.1665039 0.23425293
vt 0.17175293 0.18969727
vt 0.12322998 0.19299316
vt 0.07330322 0.29370117
vt 0.10620117 0.25927734
vt 0.052459717 0.23095703
vt 0.10620117 0.25927734
vt 0.1665039 0.23425293
vt 0.12322998 0.19299316
vt 0.19702148 0.38330078
vt 0.28833008 0.36547852
vt 0.18945312 0.3347168
vt 0.31152344 0.4741211
vt 0.39160156 0.4819336
vt 0.32739258 0.38183594
vt 0.11859131 0.3881836
vt 0.12475586 0.45922852
vt 0.2277832 0.42944336
vt 0.11102295 0.35009766
vt 0.018615723 0.33032227
vt 0.040222168 0.4111328
vt 0.11859131 0.3881836
vt 0.13647461 0.32763672
vt 0.11102295 0.35009766
vt 0.09515381 0.3166504
vt 0.07330322 0.29370117
vt 0.018615723 0.33032227
vt 0.11859131 0.3881836
vt 0.18945312 0.3347168
vt 0.13647461 0.32763672
vt 0.1665039 0.23425293
vt 0.10620117 0.25927734
vt 0.1538086 0.28881836
vt 0.13647461 0.32763672
vt 0.1538086 0.28881836
vt 0.1159668 0.30029297
vt 0.11102295 0.35009766
vt 0.1159668 0.30029297
vt 0.09515381 0.3166504
vt 0.13647461 0.32763672
vn -0.07879639 -0.9946289 0.06573486
vn -0.07879639 -0.9946289 0.06573486
vn -0.07879639 -0.9946289 0.06573486
vn 0.019180298 -0.49902344 0.86621094
vn 0.019180298 -0.49902344 0.86621094
vn 0.019180298 -0.49902344 0.86621094
vn -0.90722656 -0.35180664 0.22998047
vn -0.90722656 -0.35180664 0.22998047
vn -0.90722656 -0.35180664 0.22998047
vn -0.9057617 -0.17419434 0.38671875
vn -0.9057617 -0.17419434 0.38671875
vn -0.9057617 -0.17419434 0.38671875
vn -0.25390625 0.93066406 0.26293945
vn -0.25390625 0.93066406 0.26293945
vn -0.25390625 0.93066406 0.26293945
vn -0.12213135 -0.25048828 0.9604492
vn -0.12213135 -0.25048828 0.9604492
vn -0.12213135 -0.25048828 0.9604492
vn -0.33276367 0.91308594 0.2355957
vn -0.33276367 0.91308594 0.2355957
vn -0.33276367 0.91308594 0.2355957
vn -0.2524414 0.21948242 0.9423828
vn -0.2524414 0.21948242 0.9423828
vn -0.2524414 0.21948242 0.9423828
vn -0.10650635 0.054351807 0.9926758
vn -0.10650635 0.054351807 0.9926758
vn -0.10650635 0.054351807 0.9926758
vn -0.25195312 0.10095215 0.96240234
vn -0.25195312 0.10095215 0.96240234
vn -0.25195312 0.10095215 0.96240234
vn -0.17504883 0.38427734 0.9067383
vn -0.17504883 0.38427734 0.9067383
vn -0.17504883 0.38427734 0.9067383
vn -0.33276367 -0.8725586 -0.35742188
vn -0.33276367 -0.8725586 -0.35742188
vn -0.33276367 -0.8725586 -0.35742188
vn -0.9794922 -0.19580078 -0.050231934
vn -0.9794922 -0.19580078 -0.050231934
vn -0.9794922 -0.19580078 -0.050231934
vn -0.36108398 0.92041016 -0.1496582
vn -0.36108398 0.92041016 -0.1496582
vn -0.36108398 0.92041016 -0.1496582
vn -0.8745117 -0.45483398 -0.1685791
vn -0.8745117 -0.45483398 -0.1685791
vn -0.8745117 -0.45483398 -0.1685791
vn -0.41333008 0.9038086 -0.109313965
vn -0.41333008 0.9038086 -0.109313965
vn -0.41333008 0.9038086 -0.109313965
vn 0.1697998 0.98535156 0.015312195
vn 0.1697998 0.98535156 0.015312195
vn 0.1697998 0.98535156 0.015312195
vn -0.28515625 0.37182617 -0.8833008
vn -0.28515625 0.37182617 -0.8833008
vn -0.28515625 0.37182617 -0.8833008
vn -0.23950195 0.87841797 -0.41381836
vn -0.23950195 0.87841797 -0.41381836
vn -0.23950195 0.87841797 -0.41381836
vn -0.26293945 0.09197998 -0.9604492
vn -0.26293945 0.09197998 -0.9604492
vn -0.26293945 0.09197998 -0.9604492
vn -0.61035156 0.49194336 -0.62060547
vn -0.61035156 0.49194336 -0.62060547
vn -0.61035156 0.49194336 -0.62060547
vn -0.28637695 0.11187744 -0.95166016
vn -0.28637695 0.11187744 -0.95166016
vn -0.28637695 0.11187744 -0.95166016
vn -0.8666992 0.2783203 -0.41430664
vn -0.8666992 0.2783203 -0.41430664
vn -0.8666992 0.2783203 -0.41430664
vn 0.059448242 -0.99072266 0.12176514
vn 0.059448242 -0.99072266 0.12176514
vn 0.059448242 -0.99072266 0.12176514
vn 0.18896484 -0.98046875 0.054626465
vn 0.18896484 -0.98046875 0.054626465
vn 0.18896484 -0.98046875 0.054626465
vn 0.43603516 0.76660156 0.47143555
vn 0.43603516 0.76660156 0.47143555
vn 0.43603516 0.76660156 0.47143555
vn 0.55078125 0.69873047 0.4567871
vn 0.55078125 0.69873047 0.4567871
vn 0.55078125 0.69873047 0.4567871
vn 0.2331543 -0.12347412 0.96435547
vn 0.2331543 -0.12347412 0.96435547
vn 0.2331543 -0.12347412 0.96435547
vn 0.40771484 0.7089844 0.5756836
vn 0.40771484 0.7089844 0.5756836
vn 0.40771484 0.7089844 0.5756836
vn -0.08880615 0.3466797 0.93359375
vn -0.08880615 0.3466797 0.93359375
vn -0.08880615 0.3466797 0.93359375
vn 0.9707031 0.23925781 -0.016342163
vn 0.9707031 0.23925781 -0.016342163
vn 0.9707031 0.23925781 -0.016342163
vn 0.0647583 0.33325195 0.9404297
vn 0.0647583 0.33325195 0.9404297
vn 0.0647583 0.33325195 0.9404297
vn -0.42944336 -0.625 -0.65185547
vn -0.42944336 -0.625 -0.65185547
vn -0.42944336 -0.625 -0.65185547
vn 0.10345459 -0.93896484 -0.328125
vn 0.10345459 -0.93896484 -0.328125
vn 0.10345459 -0.93896484 -0.328125
vn 0.22729492 -0.9707031 0.080566406
vn 0.22729492 -0.9707031 0.080566406
vn 0.22729492 -0.9707031 0.080566406
vn -0.72558594 -0.034301758 -0.6875
vn -0.72558594 -0.034301758 -0.6875
vn -0.72558594 -0.034301758 -0.6875
vn -0.41259766 0.9003906 -0.13903809
vn -0.41259766 0.9003906 -0.13903809
vn -0.41259766 0.9003906 -0.13903809
vn -0.16809082 0.4111328 0.8959961
vn -0.16809082 0.4111328 0.8959961
vn -0.16809082 0.4111328 0.8959961
vn -0.35839844 0.93066406 0.072143555
vn -0.35839844 0.93066406 0.072143555
vn -0.35839844 0.93066406 0.072143555
vn 0.06414795 0.091308594 -0.99365234
vn 0.06414795 0.091308594 -0.99365234
vn 0.06414795 0.091308594 -0.99365234
vn 0.47802734 0.76416016 0.43359375
vn 0.47802734 0.76416016 0.43359375
vn 0.47802734 0.76416016 0.43359375
vn 0.53808594 0.6503906 0.5361328
vn 0.53808594 0.6503906 0.5361328
vn 0.53808594 0.6503906 0.5361328
vn 0.7114258 -0.19445801 -0.67529297
vn 0.7114258 -0.19445801 -0.67529297
vn 0.7114258 -0.19445801 -0.67529297
vn 0.95458984 0.057617188 0.29223633
vn 0.95458984 0.057617188 0.29223633
vn 0.95458984 0.057617188 0.29223633
vn 0.8496094 -0.5263672 0.035308838
vn 0.8496094 -0.5263672 0.035308838
vn 0.8496094 -0.5263672 0.035308838
vn 0.85009766 -0.14660645 -0.5058594
vn 0.85009766 -0.14660645 -0.5058594
vn 0.85009766 -0.14660645 -0.5058594
vn -0.26000977 0.9658203 -0.00044488907
vn -0.26000977 0.9658203 -0.00044488907
vn -0.26000977 0.9658203 -0.00044488907
vn -0.5493164 -0.72216797 0.42041016
vn -0.5493164 -0.72216797 0.42041016
vn -0.5493164 -0.72216797 0.42041016
vn 0.00036525726 0.97802734 0.20898438
vn 0.00036525726 0.97802734 0.20898438
vn 0.00036525726 0.97802734 0.20898438
vn -0.2590332 0.90625 0.3347168
vn -0.2590332 0.90625 0.3347168
vn -0.2590332 0.90625 0.3347168
vn -0.12670898 -0.7451172 -0.65478516
vn -0.12670898 -0.7451172 -0.65478516
vn -0.12670898 -0.7451172 -0.65478516
vn -0.68115234 -0.12145996 -0.72216797
vn -0.68115234 -0.12145996 -0.72216797
vn -0.68115234 -0.12145996 -0.72216797
vn -0.9873047 0.0061531067 -0.15991211
vn -0.9873047 0.0061531067 -0.15991211
vn -0.9873047 0.0061531067 -0.15991211
vn -0.98046875 0.068237305 -0.1854248
vn -0.98046875 0.068237305 -0.1854248
vn -0.98046875 0.068237305 -0.1854248
vn -0.7368164 -0.48583984 -0.4699707
vn -0.7368164 -0.48583984 -0.4699707
vn -0.7368164 -0.48583984 -0.4699707
vn -0.5991211 -0.7089844 -0.37158203
vn -0.5991211 -0.7089844 -0.37158203
vn -0.5991211 -0.7089844 -0.37158203
vn -0.4260254 0.8984375 -0.10821533
vn -0.4260254 0.8984375 -0.10821533
vn -0.4260254 0.8984375 -0.10821533
vn -0.45458984 0.23718262 -0.85839844
vn -0.45458984 0.23718262 -0.85839844
vn -0.45458984 0.23718262 -0.85839844
vn -0.1817627 0.98095703 0.070495605
vn -0.1817627 0.98095703 0.070495605
vn -0.1817627 0.98095703 0.070495605
vn 0.18530273 0.98046875 0.06304932
vn 0.18530273 0.98046875 0.06304932
vn 0.18530273 0.98046875 0.06304932
vn 0.23120117 -0.068115234 0.9707031
vn 0.23120117 -0.068115234 0.9707031
vn 0.23120117 -0.068115234 0.9707031
vn 0.12512207 0.94921875 0.28930664
vn 0.12512207 0.94921875 0.28930664
vn 0.12512207 0.94921875 0.28930664
vn 0.25317383 0.96728516 0.0023040771
vn 0.25317383 0.96728516 0.0023040771
vn 0.25317383 0.96728516 0.0023040771
vn 0.9448242 0.30078125 -0.12963867
vn 0.9448242 0.30078125 -0.12963867
vn 0.9448242 0.30078125 -0.12963867
vn 0.85546875 -0.453125 0.25048828
vn 0.85546875 -0.453125 0.25048828
vn 0.85546875 -0.453125 0.25048828
vn 0.99853516 0.04953003 0.017868042
vn 0.99853516 0.04953003 0.017868042
vn 0.99853516 0.04953003 0.017868042
vn 0.55908203 -0.35864258 0.7475586
vn 0.55908203 -0.35864258 0.7475586
vn 0.55908203 -0.35864258 0.7475586
vn 0.06506348 0.3317871 0.94091797
vn 0.06506348 0.3317871 0.94091797
vn 0.06506348 0.3317871 0.94091797
vn 0.6879883 -0.09490967 0.71972656
vn 0.6879883 -0.09490967 0.71972656
vn 0.6879883 -0.09490967 0.71972656
vn -0.10192871 -0.79785156 -0.59375
vn -0.10192871 -0.79785156 -0.59375
vn -0.10192871 -0.79785156 -0.59375
vn 0.1784668 -0.9814453 0.06762695
vn 0.1784668 -0.9814453 0.06762695
vn 0.1784668 -0.9814453 0.06762695
vn -0.59814453 -0.062042236 -0.7993164
vn -0.59814453 -0.062042236 -0.7993164
vn -0.59814453 -0.062042236 -0.7993164
vn -0.2434082 0.9614258 0.12756348
vn -0.2434082 0.9614258 0.12756348
vn -0.2434082 0.9614258 0.12756348
vn 0.068847656 0.24291992 -0.96777344
vn 0.068847656 0.24291992 -0.96777344
vn 0.068847656 0.24291992 -0.96777344
vn -0.23571777 0.92041016 0.31176758
vn -0.23571777 0.92041016 0.31176758
vn -0.23571777 0.92041016 0.31176758
vn 0.0513916 0.08178711 -0.9951172
vn 0.0513916 0.08178711 -0.9951172
vn 0.0513916 0.08178711 -0.9951172
vn 0.94091797 -0.029251099 0.33740234
vn 0.94091797 -0.029251099 0.33740234
vn 0.94091797 -0.029251099 0.33740234
vn 0.9604492 0.16210938 -0.22717285
vn 0.9604492 0.16210938 -0.22717285
vn 0.9604492 0.16210938 -0.22717285
vn 0.4831543 0.8261719 -0.28930664
vn 0.4831543 0.8261719 -0.28930664
vn 0.4831543 0.8261719 -0.28930664
vn 0.47802734 0.83203125 -0.28173828
g rock_medium_01_0
f 3/3/3 2/2/2 1/1/1
f 6/6/6 5/5/5 4/4/4
f 9/9/9 8/8/8 7/7/7
f 12/12/12 11/11/11 10/10/10
f 15/15/15 14/14/14 13/13/13
f 18/18/18 17/17/17 16/16/16
f 21/21/21 20/20/20 19/19/19
f 24/24/24 23/23/23 22/22/22
f 27/27/27 26/26/26 25/25/25
f 30/30/30 29/29/29 28/28/28
f 33/33/33 32/32/32 31/31/31
f 36/36/36 35/35/35 34/34/34
f 39/39/39 38/38/38 37/37/37
f 42/42/42 41/41/41 40/40/40
f 45/45/45 44/44/44 43/43/43
f 48/48/48 47/47/47 46/46/46
f 51/51/51 50/50/50 49/49/49
f 54/54/54 53/53/53 52/52/52
f 57/57/57 56/56/56 55/55/55
f 60/60/60 59/59/59 58/58/58
f 63/63/63 62/62/62 61/61/61
f 66/66/66 65/65/65 64/64/64
f 69/69/69 68/68/68 67/67/67
f 72/72/72 71/71/71 70/70/70
f 75/75/75 74/74/74 73/73/73
f 78/78/78 77/77/77 76/76/76
f 81/81/81 80/80/80 79/79/79
f 84/84/84 83/83/83 82/82/82
f 87/87/87 86/86/86 85/85/85
f 90/90/90 89/89/89 88/88/88
f 93/93/93 92/92/92 91/91/91
f 96/96/96 95/95/95 94/94/94
f 99/99/99 98/98/98 97/97/97
f 102/102/102 101/101/101 100/100/100
f 105/105/105 104/104/104 103/103/103
f 108/108/108 107/107/107 106/106/106
f 111/111/111 110/110/110 109/109/109
f 114/114/114 113/113/113 112/112/112
f 117/117/117 116/116/116 115/115/115
f 120/120/120 119/119/119 118/118/118
f 123/123/123 122/122/122 121/121/121
f 126/126/126 125/125/125 124/124/124
f 129/129/129 128/128/128 127/127/127
f 132/132/132 131/131/131 130/130/130
f 135/135/135 134/134/134 133/133/133
f 138/138/138 137/137/137 136/136/136
f 141/141/141 140/140/140 139/139/139
f 144/144/144 143/143/143 142/142/142
f 147/147/147 146/146/146 145/145/145
f 150/150/150 149/149/149 148/148/148
f 153/153/153 152/152/152 151/151/151
f 156/156/156 155/155/155 154/154/154
f 159/159/159 158/158/158 157/157/157
f 162/162/162 161/161/161 160/160/160
f 165/165/165 164/164/164 163/163/163
f 168/168/168 167/167/167 166/166/166
f 171/171/171 170/170/170 169/169/169
f 174/174/174 173/173/173 172/172/172
f 177/177/177 176/176/176 175/175/175
f 180/180/180 179/179/179 178/178/178
f 183/183/183 182/182/182 181/181/181
f 186/186/186 185/185/185 184/184/184
f 189/189/189 188/188/188 187/187/187
f 192/192/192 191/191/191 190/190/190
f 195/195/195 194/194/194 193/193/193
f 198/198/198 197/197/197 196/196/196
f 201/201/201 200/200/200 199/199/199
f 204/204/204 203/203/203 202/202/202
f 207/207/207 206/206/206 205/205/205
f 210/210/210 209/209/209 208/208/208
f 213/213/213 212/212/212 211/211/211
f 216/216/216 215/215/215 214/214/214
f 219/219/219 218/218/218 217/217/217
f 222/222/222 221/221/221 220/220/220
f 225/225/225 224/224/224 223/223/223
f 228/228/228 227/227/227 226/226/226
f 231/231/231 230/230/230 229/229/229
f 234/234/234 233/233/233 232/232/232
f 237/237/237 236/236/236 235/235/235
f 235/235/235 236/236/236 238/238/238
