g Rock_14
v 0.07990962 1.1258433 1.4854689
v 1.0879166 0.9598081 -0.14453626
v 0.76223874 0.67898566 1.708585
v -0.9131943 0.015285314 1.7555175
v -0.87305814 0.74156666 1.4539243
v -0.6354338 0.5919101 1.6964257
v -0.6583126 -0.41049728 2.8060277
v -0.50960016 -0.9007658 2.2685711
v -0.89306474 -0.1347258 2.2584112
v 0.6616399 0.52422726 2.7554035
v 0.8190697 -0.28583232 2.2622533
v 0.61611694 -0.2920104 2.809034
v -0.6583126 -0.41049728 2.8060277
v -0.89306474 -0.1347258 2.2584112
v -0.6198058 0.47438928 2.7437046
v 1.0879166 0.9598081 -0.14453626
v 0.97409546 0.35581592 -0.24902129
v 1.192653 0.5308797 -0.09671378
v 0.89178115 -0.028123047 1.705936
v 0.9656855 0.36193678 1.5373056
v 1.3306228 0.08805531 -0.0864768
v -0.6583126 -0.41049728 2.8060277
v -0.26893944 -0.6429694 2.81318
v -0.50960016 -0.9007658 2.2685711
v 1.0879166 0.9598081 -0.14453626
v 0.090826586 1.3340307 -0.112538576
v -0.28015092 1.1788945 -0.15033174
v 0.87356824 -0.9752312 -0.1929326
v 1.3306228 0.08805531 -0.0864768
v 0.97409546 0.35581592 -0.24902129
v 0.07990962 1.1258433 1.4854689
v 0.76223874 0.67898566 1.708585
v 0.047635876 0.8720381 1.6996049
v 0.090826586 1.3340307 -0.112538576
v 1.0879166 0.9598081 -0.14453626
v 0.07990962 1.1258433 1.4854689
v 0.61611694 -0.2920104 2.809034
v 0.07437991 0.7444917 2.7856376
v 0.6616399 0.52422726 2.7554035
v 0.9656855 0.36193678 1.5373056
v 1.192653 0.5308797 -0.09671378
v 0.97409546 0.35581592 -0.24902129
v 0.97409546 0.35581592 -0.24902129
v 1.3306228 0.08805531 -0.0864768
v 0.9656855 0.36193678 1.5373056
v 0.76223874 0.67898566 1.708585
v 0.9656855 0.36193678 1.5373056
v 0.89178115 -0.028123047 1.705936
v 0.07990962 1.1258433 1.4854689
v -0.28015092 1.1788945 -0.15033174
v 0.090826586 1.3340307 -0.112538576
v -0.725683 -0.8066863 1.7744901
v -0.50960016 -0.9007658 2.2685711
v -0.14563774 -1.0149256 1.7767569
v 0.61611694 -0.2920104 2.809034
v 0.8190697 -0.28583232 2.2622533
v 0.57985693 -0.76706386 2.2584462
v 0.07437991 0.7444917 2.7856376
v -0.6583126 -0.41049728 2.8060277
v -0.6198058 0.47438928 2.7437046
v -0.87305814 0.74156666 1.4539243
v -0.96509904 0.8738168 -0.1520989
v -0.28015092 1.1788945 -0.15033174
v 0.07990962 1.1258433 1.4854689
v -0.26340342 -1.330471 -0.1678176
v -0.14563774 -1.0149256 1.7767569
v 0.64114964 -0.67868954 1.7612932
v 0.87356824 -0.9752312 -0.1929326
v 0.64114964 -0.67868954 1.7612932
v 0.89178115 -0.028123047 1.705936
v 1.3306228 0.08805531 -0.0864768
v 0.87356824 -0.9752312 -0.1929326
v -1.2688156 -0.077634096 -0.18326497
v -0.96509904 0.8738168 -0.1520989
v -0.87305814 0.74156666 1.4539243
v -0.9131943 0.015285314 1.7555175
v -0.6354338 0.5919101 1.6964257
v -0.87305814 0.74156666 1.4539243
v 0.07990962 1.1258433 1.4854689
v 0.047635876 0.8720381 1.6996049
v -0.26893944 -0.6429694 2.81318
v 0.61611694 -0.2920104 2.809034
v 0.57985693 -0.76706386 2.2584462
v -0.50960016 -0.9007658 2.2685711
v 0.89178115 -0.028123047 1.705936
v 0.8190697 -0.28583232 2.2622533
v 0.6616399 0.52422726 2.7554035
v 0.76223874 0.67898566 1.708585
v 0.76223874 0.67898566 1.708585
v 0.6616399 0.52422726 2.7554035
v 0.07437991 0.7444917 2.7856376
v 0.047635876 0.8720381 1.6996049
v -0.6198058 0.47438928 2.7437046
v -0.89306474 -0.1347258 2.2584112
v -0.9131943 0.015285314 1.7555175
v -0.6354338 0.5919101 1.6964257
v -0.14563774 -1.0149256 1.7767569
v -0.50960016 -0.9007658 2.2685711
v 0.57985693 -0.76706386 2.2584462
v 0.64114964 -0.67868954 1.7612932
v -0.725683 -0.8066863 1.7744901
v -0.9131943 0.015285314 1.7555175
v -0.89306474 -0.1347258 2.2584112
v -0.50960016 -0.9007658 2.2685711
v 0.61611694 -0.2920104 2.809034
v -0.26893944 -0.6429694 2.81318
v -0.6583126 -0.41049728 2.8060277
v 0.07437991 0.7444917 2.7856376
v 0.97409546 0.35581592 -0.24902129
v 1.0879166 0.9598081 -0.14453626
v -0.28015092 1.1788945 -0.15033174
v 0.87356824 -0.9752312 -0.1929326
v -0.26340342 -1.330471 -0.1678176
v -0.9687312 -1.0678829 -0.14363217
v -0.96509904 0.8738168 -0.1520989
v -1.2688156 -0.077634096 -0.18326497
v 0.76223874 0.67898566 1.708585
v 1.0879166 0.9598081 -0.14453626
v 1.192653 0.5308797 -0.09671378
v 0.9656855 0.36193678 1.5373056
v -0.725683 -0.8066863 1.7744901
v -0.14563774 -1.0149256 1.7767569
v -0.26340342 -1.330471 -0.1678176
v -0.9687312 -1.0678829 -0.14363217
v 0.8190697 -0.28583232 2.2622533
v 0.89178115 -0.028123047 1.705936
v 0.64114964 -0.67868954 1.7612932
v 0.57985693 -0.76706386 2.2584462
v -1.2688156 -0.077634096 -0.18326497
v -0.9131943 0.015285314 1.7555175
v -0.725683 -0.8066863 1.7744901
v -0.9687312 -1.0678829 -0.14363217
v -0.6354338 0.5919101 1.6964257
v 0.047635876 0.8720381 1.6996049
v 0.07437991 0.7444917 2.7856376
v -0.6198058 0.47438928 2.7437046
vt 0.7548828 0.4020996
vt 0.7895508 0.47387695
vt 0.7788086 0.38964844
vt 0.9946289 0.50927734
vt 0.9711914 0.4921875
vt 0.9716797 0.5058594
vt 0.94140625 0.35961914
vt 0.9633789 0.3383789
vt 0.9296875 0.33325195
vt 0.7973633 0.35546875
vt 0.83496094 0.3774414
vt 0.83203125 0.34936523
vt 0.94140625 0.35961914
vt 0.9296875 0.33325195
vt 0.90185547 0.3623047
vt 0.66748047 0.56689453
vt 0.6821289 0.5410156
vt 0.66845703 0.54589844
vt 0.8300781 0.40478516
vt 0.81152344 0.41308594
vt 0.8364258 0.48706055
vt 0.8955078 0.43359375
vt 0.8955078 0.44091797
vt 0.921875 0.43920898
vt 0.66748047 0.56689453
vt 0.70410156 0.5996094
vt 0.7211914 0.59521484
vt 0.7036133 0.48486328
vt 0.67041016 0.5263672
vt 0.6821289 0.5410156
vt 0.7548828 0.4020996
vt 0.7788086 0.38964844
vt 0.7524414 0.39086914
vt 0.75146484 0.47827148
vt 0.7895508 0.47387695
vt 0.7548828 0.4020996
vt 0.94628906 0.4020996
vt 0.8984375 0.38842773
vt 0.9116211 0.40600586
vt 0.81152344 0.41308594
vt 0.81933594 0.48706055
vt 0.8305664 0.48779297
vt 0.9770508 0.33325195
vt 0.96728516 0.34277344
vt 0.9765625 0.41601562
vt 0.7988281 0.40527344
vt 0.81152344 0.41308594
vt 0.8300781 0.40478516
vt 0.7548828 0.4020996
vt 0.73583984 0.47558594
vt 0.75146484 0.47827148
vt 0.9433594 0.4296875
vt 0.921875 0.43920898
vt 0.9433594 0.45874023
vt 0.83203125 0.34936523
vt 0.83496094 0.3774414
vt 0.859375 0.37060547
vt 0.90234375 0.38232422
vt 0.94140625 0.35961914
vt 0.90185547 0.3623047
vt 0.70751953 0.39941406
vt 0.69628906 0.4729004
vt 0.7324219 0.47705078
vt 0.7548828 0.4020996
vt 0.8979492 0.49780273
vt 0.90234375 0.5839844
vt 0.9350586 0.58447266
vt 0.94384766 0.4951172
vt 0.8588867 0.39501953
vt 0.8300781 0.40478516
vt 0.8364258 0.48706055
vt 0.89160156 0.47583008
vt 0.6665039 0.46166992
vt 0.69628906 0.4729004
vt 0.70751953 0.39941406
vt 0.68603516 0.38183594
vt 0.7133789 0.3869629
vt 0.70751953 0.39941406
vt 0.7548828 0.4020996
vt 0.7524414 0.39086914
vt 0.86035156 0.33398438
vt 0.83203125 0.34936523
vt 0.859375 0.37060547
vt 0.8803711 0.3552246
vt 0.82910156 0.40063477
vt 0.83496094 0.3774414
vt 0.7973633 0.35546875
vt 0.7998047 0.3996582
vt 0.7763672 0.38452148
vt 0.7729492 0.33813477
vt 0.7524414 0.33813477
vt 0.75097656 0.38720703
vt 0.7216797 0.33789062
vt 0.69384766 0.35205078
vt 0.69628906 0.3774414
vt 0.7138672 0.38378906
vt 0.9433594 0.45874023
vt 0.921875 0.43920898
vt 0.9189453 0.4868164
vt 0.9428711 0.48535156
vt 0.9433594 0.4296875
vt 0.9428711 0.4111328
vt 0.9189453 0.4111328
vt 0.921875 0.43920898
vt 0.9399414 0.39868164
vt 0.94189453 0.37768555
vt 0.91552734 0.37573242
vt 0.9140625 0.3984375
vt 0.6821289 0.5410156
vt 0.66748047 0.56689453
vt 0.7211914 0.59521484
vt 0.7036133 0.48486328
vt 0.7548828 0.48828125
vt 0.7817383 0.5107422
vt 0.7558594 0.5957031
vt 0.7807617 0.5576172
vt 0.7988281 0.40527344
vt 0.80078125 0.4868164
vt 0.81933594 0.48706055
vt 0.81152344 0.41308594
vt 0.86865234 0.58447266
vt 0.90234375 0.5839844
vt 0.8979492 0.49780273
vt 0.8618164 0.4987793
vt 0.83496094 0.3774414
vt 0.82910156 0.40063477
vt 0.8588867 0.39501953
vt 0.859375 0.37060547
vt 0.85546875 0.61083984
vt 0.85595703 0.5415039
vt 0.8178711 0.5444336
vt 0.80615234 0.61083984
vt 0.7138672 0.38378906
vt 0.75097656 0.38720703
vt 0.7524414 0.33813477
vt 0.7216797 0.33789062
vn 0.48535156 0.84765625 0.21374512
vn 0.48535156 0.84765625 0.21374512
vn 0.48535156 0.84765625 0.21374512
vn -0.5551758 0.3449707 0.75683594
vn -0.5551758 0.3449707 0.75683594
vn -0.5551758 0.3449707 0.75683594
vn -0.88378906 -0.4404297 0.15710449
vn -0.88378906 -0.4404297 0.15710449
vn -0.88378906 -0.4404297 0.15710449
vn 0.9370117 -0.029434204 0.34765625
vn 0.9370117 -0.029434204 0.34765625
vn 0.9370117 -0.029434204 0.34765625
vn -0.9038086 0.0690918 0.42236328
vn -0.9038086 0.0690918 0.42236328
vn -0.9038086 0.0690918 0.42236328
vn 0.5488281 0.04095459 -0.83496094
vn 0.5488281 0.04095459 -0.83496094
vn 0.5488281 0.04095459 -0.83496094
vn 0.9692383 -0.08337402 0.2319336
vn 0.9692383 -0.08337402 0.2319336
vn 0.9692383 -0.08337402 0.2319336
vn -0.44018555 -0.7207031 0.53564453
vn -0.44018555 -0.7207031 0.53564453
vn -0.44018555 -0.7207031 0.53564453
vn 0.030822754 0.16638184 -0.98535156
vn 0.030822754 0.16638184 -0.98535156
vn 0.030822754 0.16638184 -0.98535156
vn 0.37182617 -0.06707764 -0.92578125
vn 0.37182617 -0.06707764 -0.92578125
vn 0.37182617 -0.06707764 -0.92578125
vn 0.15917969 0.6245117 0.76464844
vn 0.15917969 0.6245117 0.76464844
vn 0.15917969 0.6245117 0.76464844
vn 0.35205078 0.9277344 0.123291016
vn 0.35205078 0.9277344 0.123291016
vn 0.35205078 0.9277344 0.123291016
vn 0.07421875 0.06124878 0.9951172
vn 0.07421875 0.06124878 0.9951172
vn 0.07421875 0.06124878 0.9951172
vn 0.6225586 -0.78222656 0.0056114197
vn 0.6225586 -0.78222656 0.0056114197
vn 0.6225586 -0.78222656 0.0056114197
vn 0.60058594 0.7998047 8.7201595E-05
vn 0.60058594 0.7998047 8.7201595E-05
vn 0.60058594 0.7998047 8.7201595E-05
vn 0.75341797 0.13562012 0.6435547
vn 0.75341797 0.13562012 0.6435547
vn 0.75341797 0.13562012 0.6435547
vn -0.39331055 0.9121094 0.1161499
vn -0.39331055 0.9121094 0.1161499
vn -0.39331055 0.9121094 0.1161499
vn -0.33764648 -0.94091797 -0.03149414
vn -0.33764648 -0.94091797 -0.03149414
vn -0.33764648 -0.94091797 -0.03149414
vn 0.85009766 -0.42504883 0.31079102
vn 0.85009766 -0.42504883 0.31079102
vn 0.85009766 -0.42504883 0.31079102
vn -0.08874512 0.073791504 0.99316406
vn -0.08874512 0.073791504 0.99316406
vn -0.08874512 0.073791504 0.99316406
vn -0.4050293 0.9091797 0.098083496
vn -0.4050293 0.9091797 0.098083496
vn -0.4050293 0.9091797 0.098083496
vn -0.37475586 0.92041016 0.11236572
vn 0.33691406 -0.92871094 0.15563965
vn 0.33691406 -0.92871094 0.15563965
vn 0.33691406 -0.92871094 0.15563965
vn 0.33691406 -0.92871094 0.15563965
vn 0.90722656 -0.3798828 0.18078613
vn 0.90722656 -0.3798828 0.18078613
vn 0.90722656 -0.3798828 0.18078613
vn 0.90722656 -0.3798828 0.18078613
vn -0.96777344 0.21850586 0.12463379
vn -0.96777344 0.21850586 0.12463379
vn -0.96777344 0.21850586 0.12463379
vn -0.96777344 0.21850586 0.12463379
vn -0.28027344 0.6533203 0.703125
vn -0.28027344 0.6533203 0.703125
vn -0.28027344 0.6533203 0.703125
vn -0.28027344 0.6533203 0.703125
vn 0.20898438 -0.8364258 0.50683594
vn 0.20898438 -0.8364258 0.50683594
vn 0.20898438 -0.8364258 0.50683594
vn 0.20898438 -0.8364258 0.50683594
vn 0.97998047 0.13903809 0.14172363
vn 0.97998047 0.13903809 0.14172363
vn 0.97998047 0.13903809 0.14172363
vn 0.97998047 0.13903809 0.14172363
vn 0.3017578 0.94384766 0.13537598
vn 0.3017578 0.94384766 0.13537598
vn 0.3017578 0.94384766 0.13537598
vn 0.3017578 0.94384766 0.13537598
vn -0.91503906 0.39331055 0.08898926
vn -0.91503906 0.39331055 0.08898926
vn -0.91503906 0.39331055 0.08898926
vn -0.91503906 0.39331055 0.08898926
vn 0.24255371 -0.9614258 0.12939453
vn 0.24255371 -0.9614258 0.12939453
vn 0.24255371 -0.9614258 0.12939453
vn 0.24255371 -0.9614258 0.12939453
vn -0.9326172 -0.33276367 0.13952637
vn -0.9326172 -0.33276367 0.13952637
vn -0.9326172 -0.33276367 0.13952637
vn -0.9326172 -0.33276367 0.13952637
vn -0.0043029785 0.020904541 1
vn -0.0043029785 0.020904541 1
vn -0.0043029785 0.020904541 1
vn -0.0043029785 0.020904541 1
vn -0.022079468 0.011451721 -0.9995117
vn -0.022079468 0.011451721 -0.9995117
vn -0.022079468 0.011451721 -0.9995117
vn -0.022079468 0.011451721 -0.9995117
vn -0.022079468 0.011451721 -0.9995117
vn -0.022079468 0.011451721 -0.9995117
vn -0.022079468 0.011451721 -0.9995117
vn -0.022079468 0.011451721 -0.9995117
vn 0.91796875 0.34765625 0.19030762
vn 0.91796875 0.34765625 0.19030762
vn 0.91796875 0.34765625 0.19030762
vn 0.91796875 0.34765625 0.19030762
vn -0.33642578 -0.92626953 0.16967773
vn -0.33642578 -0.92626953 0.16967773
vn -0.33642578 -0.92626953 0.16967773
vn -0.33642578 -0.92626953 0.16967773
vn 0.91748047 -0.39770508 -0.013954163
vn 0.91748047 -0.39770508 -0.013954163
vn 0.91748047 -0.39770508 -0.013954163
vn 0.91748047 -0.39770508 -0.013954163
vn -0.9526367 -0.25073242 0.17089844
vn -0.9526367 -0.25073242 0.17089844
vn -0.9526367 -0.25073242 0.17089844
vn -0.9526367 -0.25073242 0.17089844
vn -0.37182617 0.9213867 0.113220215
vn -0.37182617 0.9213867 0.113220215
vn -0.37182617 0.9213867 0.113220215
vn -0.37182617 0.9213867 0.113220215
g Rock_14_0
f 3/3/3 2/2/2 1/1/1
f 6/6/6 5/5/5 4/4/4
f 9/9/9 8/8/8 7/7/7
f 12/12/12 11/11/11 10/10/10
f 15/15/15 14/14/14 13/13/13
f 18/18/18 17/17/17 16/16/16
f 21/21/21 20/20/20 19/19/19
f 24/24/24 23/23/23 22/22/22
f 27/27/27 26/26/26 25/25/25
f 30/30/30 29/29/29 28/28/28
f 33/33/33 32/32/32 31/31/31
f 36/36/36 35/35/35 34/34/34
f 39/39/39 38/38/38 37/37/37
f 42/42/42 41/41/41 40/40/40
f 45/45/45 44/44/44 43/43/43
f 48/48/48 47/47/47 46/46/46
f 51/51/51 50/50/50 49/49/49
f 54/54/54 53/53/53 52/52/52
f 57/57/57 56/56/56 55/55/55
f 60/60/60 59/59/59 58/58/58
f 63/63/63 62/62/62 61/61/61
f 64/64/64 63/63/63 61/61/61
f 67/67/67 66/66/66 65/65/65
f 68/68/68 67/67/67 65/65/65
f 71/71/71 70/70/70 69/69/69
f 72/72/72 71/71/71 69/69/69
f 75/75/75 74/74/74 73/73/73
f 76/76/76 75/75/75 73/73/73
f 79/79/79 78/78/78 77/77/77
f 80/80/80 79/79/79 77/77/77
f 83/83/83 82/82/82 81/81/81
f 84/84/84 83/83/83 81/81/81
f 87/87/87 86/86/86 85/85/85
f 88/88/88 87/87/87 85/85/85
f 91/91/91 90/90/90 89/89/89
f 92/92/92 91/91/91 89/89/89
f 95/95/95 94/94/94 93/93/93
f 96/96/96 95/95/95 93/93/93
f 99/99/99 98/98/98 97/97/97
f 100/100/100 99/99/99 97/97/97
f 103/103/103 102/102/102 101/101/101
f 104/104/104 103/103/103 101/101/101
f 107/107/107 106/106/106 105/105/105
f 108/108/108 107/107/107 105/105/105
f 111/111/111 110/110/110 109/109/109
f 109/109/109 112/112/112 111/111/111
f 112/112/112 113/113/113 111/111/111
f 113/113/113 114/114/114 111/111/111
f 114/114/114 115/115/115 111/111/111
f 114/114/114 116/116/116 115/115/115
f 119/119/119 118/118/118 117/117/117
f 120/120/120 119/119/119 117/117/117
f 123/123/123 122/122/122 121/121/121
f 124/124/124 123/123/123 121/121/121
f 127/127/127 126/126/126 125/125/125
f 128/128/128 127/127/127 125/125/125
f 131/131/131 130/130/130 129/129/129
f 132/132/132 131/131/131 129/129/129
f 135/135/135 134/134/134 133/133/133
f 136/136/136 135/135/135 133/133/133
