g SandPillar
v -0.90014094 0.890414 2.028396
v 0.82117236 0.82572263 2.7306178
v -0.8098385 0.8174082 2.7297227
v 0.8975816 0.9252268 2.111387
v -0.99653363 0.8027499 1.2881248
v 0.8003801 0.83756363 1.1844208
v -1.058278 0.9923738 0.3946514
v 0.8623394 0.95909184 0.41118097
v -1 1 -0.21814519
v 1 1 -0.21814519
v -0.8975816 -0.8056536 1.91415
v -0.8098385 0.8174082 2.7297227
v -0.80718017 -0.80243987 2.7295759
v -0.90014094 0.890414 2.028396
v -0.9963187 -0.9364953 1.2143457
v -0.99653363 0.8027499 1.2881248
v -1.058278 -0.8869823 0.49916553
v -1.058278 0.9923738 0.3946514
v -1 -1 -0.21814519
v -1 1 -0.21814519
v -1 1 -0.21814519
v -1 -1 -0.21814519
v 1 -1 -0.21814519
v 1 1 -0.21814519
v 1 1 -0.21814519
v 1 -1 -0.21814519
v 0.8623394 -1.0130491 0.49766183
v 0.8623394 0.95909184 0.41118097
v 0.8005949 -0.9364953 1.1909564
v 0.8003801 0.83756363 1.1844208
v 0.90014094 -0.8752794 2.0701528
v 0.8975816 0.9252268 2.111387
v 0.82073915 -0.81535757 2.7303588
v 0.82117236 0.82572263 2.7306178
v 1 -1 -0.21814519
v -1 -1 -0.21814519
v -1.058278 -0.8869823 0.49916553
v 0.8623394 -1.0130491 0.49766183
v -0.9963187 -0.9364953 1.2143457
v 0.8005949 -0.9364953 1.1909564
v -0.8975816 -0.8056536 1.91415
v 0.90014094 -0.8752794 2.0701528
v -0.80718017 -0.80243987 2.7295759
v 0.82073915 -0.81535757 2.7303588
v 0.6527661 -0.65177566 2.8791797
v -0.64051986 -0.65177566 2.8791797
v 0.6527661 0.65177566 2.8791797
v 0.82117236 0.82572263 2.7306178
v 0.82073915 -0.81535757 2.7303588
v 0.6527661 -0.65177566 2.8791797
v -0.64051986 -0.65177566 2.8791797
v -0.64051986 0.65177566 2.8791797
v 0.82117236 0.82572263 2.7306178
v -0.8098385 0.8174082 2.7297227
v -0.8098385 0.8174082 2.7297227
v -0.80718017 -0.80243987 2.7295759
vt 0.63406897 0.3464574
vt 0.38396072 0.44882387
vt 0.62094945 0.44882384
vt 0.3728279 0.35811335
vt 0.6482128 0.23991919
vt 0.38710535 0.22450261
vt 0.6571007 0.10861793
vt 0.37806678 0.1112576
vt 0.64867955 0.019684687
vt 0.3580848 0.019619212
vt 0.047873378 0.6302502
vt 0.2836808 0.5111904
vt 0.048317313 0.51118803
vt 0.29431534 0.61370397
vt 0.028894067 0.7326176
vt 0.2816069 0.72191954
vt 0.0360986 0.836889
vt 0.3091631 0.8520465
vt 0.019619226 0.940403
vt 0.31021678 0.940403
vt 0.68978095 0.48806238
vt 0.68978095 0.7786622
vt 0.9803808 0.7786622
vt 0.9803808 0.48806238
vt 0.6505426 0.4880623
vt 0.3599434 0.48810232
vt 0.3580848 0.593314
vt 0.64463615 0.580744
vt 0.36922467 0.6944369
vt 0.6269948 0.69345677
vt 0.37809145 0.8207432
vt 0.63970506 0.8267095
vt 0.38681948 0.917264
vt 0.62526774 0.917264
vt 0.019619226 0.47194958
vt 0.3100974 0.47194958
vt 0.31884634 0.36689878
vt 0.039369226 0.36826754
vt 0.30945098 0.2636404
vt 0.048475027 0.26703215
vt 0.29547453 0.16096544
vt 0.034041762 0.13897848
vt 0.28214294 0.042688847
vt 0.04565108 0.042693138
vt 0.07069409 0.019619226
vt 0.25852978 0.019619226
vt 0.9088617 0.23278707
vt 0.93332446 0.25806803
vt 0.93332446 0.019619226
vt 0.9089117 0.043381214
vt 0.7209974 0.043331623
vt 0.7209474 0.23273748
vt 0.93332446 0.25806803
vt 0.6963391 0.25679737
vt 0.6963391 0.25679737
vt 0.6967874 0.021433711
vn -0.018101754 0.9998357 0.00088393746
vn -0.011508042 0.92795956 0.37250313
vn -0.011544071 0.9287008 0.3706501
vn -0.01781573 0.99970144 0.01672055
vn -0.007746127 0.99896467 0.04482913
vn -0.0077347355 0.9989586 0.044966124
vn 0.00611607 0.9936464 0.112381
vn 0.006304942 0.99431956 0.10624858
vn 0.008311632 0.999151 0.040351585
vn 0.008311632 0.999151 0.040351585
vn -0.9917989 -0.0070500984 0.1276142
vn -0.93078804 -0.00408705 0.3655367
vn -0.9238419 -0.0039630546 0.38275367
vn -0.991964 -0.006860763 0.12633437
vn -0.99455476 -0.0035108335 0.1041565
vn -0.99434704 -0.0038038592 0.106110394
vn -0.99998903 -0.00086956174 -0.0046106256
vn -0.999895 -0.0010460726 -0.014452215
vn -0.99619603 -0.0023468337 -0.08710966
vn -0.99619603 -0.0023468337 -0.08710966
vn -0 0 -1
vn -0 0 -1
vn -0 0 -1
vn -0 0 -1
vn 0.9796453 0.0043693865 0.20068863
vn 0.9796453 0.0043693865 0.20068863
vn 0.98975384 0.00326504 0.14274688
vn 0.98890734 0.003374686 0.14849524
vn 0.9999734 0.0020028693 -0.007010603
vn 0.9999455 0.001997484 -0.010250114
vn 0.99999905 0.00058132294 -0.0013084784
vn 0.99998474 0.00050211506 0.0055000526
vn 0.92890245 -0.00063592434 0.37032393
vn 0.9333915 -0.00064692413 0.3588593
vn -0.032044884 -0.99735814 0.06519042
vn -0.032044884 -0.99735814 0.06519042
vn -0.032910176 -0.99856734 0.042192493
vn -0.032834273 -0.9984817 0.04422957
vn -0.029127464 -0.99724895 0.06816247
vn -0.028809609 -0.9970251 0.07149143
vn -0.024776548 -0.99575704 0.088623375
vn -0.024985705 -0.99638945 0.08114099
vn -0.019302703 -0.95291924 0.30260915
vn -0.019300355 -0.9528942 0.30268815
vn 0.27524868 -0.2902302 0.9165176
vn -0.27521893 -0.29348728 0.9154888
vn 0.276842 0.27346775 0.9211807
vn 0.9333915 -0.00064692413 0.3588593
vn 0.92890245 -0.00063592434 0.37032393
vn 0.27524868 -0.2902302 0.9165176
vn -0.27521893 -0.29348728 0.9154888
vn -0.27694666 0.27564728 0.9204993
vn -0.011508042 0.92795956 0.37250313
vn -0.011544071 0.9287008 0.3706501
vn -0.93078804 -0.00408705 0.3655367
vn -0.9238419 -0.0039630546 0.38275367
g SandPillar_0
f 3/3/3 2/2/2 1/1/1
f 2/2/2 4/4/4 1/1/1
f 1/1/1 4/4/4 5/5/5
f 4/4/4 6/6/6 5/5/5
f 5/5/5 6/6/6 7/7/7
f 6/6/6 8/8/8 7/7/7
f 7/7/7 8/8/8 9/9/9
f 8/8/8 10/10/10 9/9/9
f 13/13/13 12/12/12 11/11/11
f 12/12/12 14/14/14 11/11/11
f 11/11/11 14/14/14 15/15/15
f 14/14/14 16/16/16 15/15/15
f 15/15/15 16/16/16 17/17/17
f 16/16/16 18/18/18 17/17/17
f 17/17/17 18/18/18 19/19/19
f 18/18/18 20/20/20 19/19/19
f 23/23/23 22/22/22 21/21/21
f 24/24/24 23/23/23 21/21/21
f 27/27/27 26/26/26 25/25/25
f 28/28/28 27/27/27 25/25/25
f 29/29/29 27/27/27 28/28/28
f 30/30/30 29/29/29 28/28/28
f 31/31/31 29/29/29 30/30/30
f 32/32/32 31/31/31 30/30/30
f 33/33/33 31/31/31 32/32/32
f 34/34/34 33/33/33 32/32/32
f 37/37/37 36/36/36 35/35/35
f 38/38/38 37/37/37 35/35/35
f 39/39/39 37/37/37 38/38/38
f 40/40/40 39/39/39 38/38/38
f 41/41/41 39/39/39 40/40/40
f 42/42/42 41/41/41 40/40/40
f 43/43/43 41/41/41 42/42/42
f 44/44/44 43/43/43 42/42/42
f 43/43/43 44/44/44 45/45/45
f 46/46/46 43/43/43 45/45/45
f 49/49/49 48/48/48 47/47/47
f 50/50/50 49/49/49 47/47/47
f 51/51/51 50/50/50 47/47/47
f 52/52/52 51/51/51 47/47/47
f 47/47/47 53/53/53 52/52/52
f 53/53/53 54/54/54 52/52/52
f 52/52/52 55/55/55 51/51/51
f 55/55/55 56/56/56 51/51/51
