g Staff
v 0.061144248 -0.09747809 -0.0016007125
v -0.0008145422 -0.09516811 -0.008211035
v -0.022060752 -0.44499928 0.011387717
v 0.06987746 -0.48239762 0.022068884
v -0.0008145422 -0.09516811 -0.008211035
v -0.025981069 -0.088091314 0.0483971
v -0.06504123 -0.45552808 0.100261465
v -0.022060752 -0.44499928 0.011387717
v -0.025981069 -0.088091314 0.0483971
v 0.020423919 -0.08602768 0.08999328
v 0.0042802095 -0.47658545 0.16595183
v -0.06504123 -0.45552808 0.100261465
v 0.08766453 -0.49319178 0.11762616
v -0.113691136 -0.7890454 -0.027191836
v -0.21407023 -0.7813259 0.030794384
v 0.0042802095 -0.47658545 0.16595183
v 0.020423919 -0.08602768 0.08999328
v 0.07427035 -0.09182894 0.059092864
v 0.08766453 -0.49319178 0.11762616
v 0.0042802095 -0.47658545 0.16595183
v 0.07427035 -0.09182894 0.059092864
v 0.06987746 -0.48239762 0.022068884
v 0.08766453 -0.49319178 0.11762616
v 0.061144248 -0.09747809 -0.0016007125
v 0.02474545 0.693956 -0.101081535
v 0.012197241 0.6767805 -0.1591487
v -0.07180025 2.2664864 -0.34093183
v -0.04728499 2.2579682 -0.3959176
v 0.013200119 2.2599497 -0.3900343
v 0.026066706 2.269692 -0.3314124
v -0.0264664 2.2737317 -0.30106542
v -0.113691136 -0.7890454 -0.027191836
v 0.014170349 -1.1075234 0.14003468
v -0.049588114 -1.1280735 0.21748464
v -0.21407023 -0.7813259 0.030794384
v -0.06504123 -0.45552808 0.100261465
v -0.300693 -0.7951706 -0.04538137
v -0.26478505 -0.8111332 -0.1607039
v -0.022060752 -0.44499928 0.011387717
v 0.06987746 -0.48239762 0.022068884
v -0.13827632 -0.8076609 -0.13920511
v -0.113691136 -0.7890454 -0.027191836
v 0.08766453 -0.49319178 0.11762616
v -0.022060752 -0.44499928 0.011387717
v -0.26478505 -0.8111332 -0.1607039
v -0.13827632 -0.8076609 -0.13920511
v 0.06987746 -0.48239762 0.022068884
v 0.0042802095 -0.47658545 0.16595183
v -0.21407023 -0.7813259 0.030794384
v -0.300693 -0.7951706 -0.04538137
v -0.06504123 -0.45552808 0.100261465
v 0.043571994 -1.233638 0.10356477
v 0.27559394 -0.8668998 0.25619444
v 0.15524538 -0.85740143 0.22970971
v 0.014170349 -1.1075234 0.14003468
v -0.300693 -0.7951706 -0.04538137
v -0.059591264 -1.2668891 0.22888157
v 0.006651208 -1.3280497 0.16555981
v -0.26478505 -0.8111332 -0.1607039
v -0.13827632 -0.8076609 -0.13920511
v 0.043571994 -1.233638 0.10356477
v 0.014170349 -1.1075234 0.14003468
v -0.113691136 -0.7890454 -0.027191836
v -0.21407023 -0.7813259 0.030794384
v -0.059591264 -1.2668891 0.22888157
v -0.300693 -0.7951706 -0.04538137
v -0.049588114 -1.1280735 0.21748464
v 0.20648782 -0.8539553 0.41070214
v 0.11253525 -0.8494006 0.32520047
v 0.03677942 -0.62302357 0.22619855
v 0.038632438 -0.69508034 0.23847589
v -0.26478505 -0.8111332 -0.1607039
v 0.006651208 -1.3280497 0.16555981
v 0.043571994 -1.233638 0.10356477
v -0.13827632 -0.8076609 -0.13920511
v 0.15524538 -0.85740143 0.22970971
v 0.11252935 -0.73761064 0.17247489
v 0.038632438 -0.69508034 0.23847589
v 0.11253525 -0.8494006 0.32520047
v 0.006651208 -1.3280497 0.16555981
v 0.308205 -0.86953694 0.36942998
v 0.27559394 -0.8668998 0.25619444
v 0.043571994 -1.233638 0.10356477
v 0.014170349 -1.1075234 0.14003468
v 0.15524538 -0.85740143 0.22970971
v 0.11253525 -0.8494006 0.32520047
v -0.049588114 -1.1280735 0.21748464
v -0.059591264 -1.2668891 0.22888157
v 0.20648782 -0.8539553 0.41070214
v 0.308205 -0.86953694 0.36942998
v 0.006651208 -1.3280497 0.16555981
v 0.15634717 -0.69183975 0.11940682
v -0.008678496 -0.85996467 0.0973832
v -0.00482285 -0.8601609 0.116181895
v 0.11252935 -0.73761064 0.17247489
v 0.20648782 -0.8539553 0.41070214
v 0.03677942 -0.62302357 0.22619855
v 0.10171254 -0.5929933 0.1412083
v 0.308205 -0.86953694 0.36942998
v 0.27559394 -0.8668998 0.25619444
v 0.15634717 -0.69183975 0.11940682
v 0.11252935 -0.73761064 0.17247489
v 0.15524538 -0.85740143 0.22970971
v 0.308205 -0.86953694 0.36942998
v 0.10171254 -0.5929933 0.1412083
v 0.15634717 -0.69183975 0.11940682
v 0.27559394 -0.8668998 0.25619444
v -0.008678496 -0.85996467 0.0973832
v -0.028866231 -0.8591922 0.09500046
v -0.03538002 -0.8558796 0.11269833
v -0.00482285 -0.8601609 0.116181895
v -0.02132526 -0.8576365 0.12564717
v 0.038632438 -0.69508034 0.23847589
v -0.02132526 -0.8576365 0.12564717
v -0.03538002 -0.8558796 0.11269833
v 0.03677942 -0.62302357 0.22619855
v 0.10171254 -0.5929933 0.1412083
v -0.028866231 -0.8591922 0.09500046
v -0.008678496 -0.85996467 0.0973832
v 0.15634717 -0.69183975 0.11940682
v 0.11252935 -0.73761064 0.17247489
v -0.00482285 -0.8601609 0.116181895
v -0.02132526 -0.8576365 0.12564717
v 0.038632438 -0.69508034 0.23847589
v 0.03677942 -0.62302357 0.22619855
v -0.03538002 -0.8558796 0.11269833
v -0.028866231 -0.8591922 0.09500046
v 0.10171254 -0.5929933 0.1412083
v -0.028478742 0.6952893 -0.06962268
v 0.02474545 0.693956 -0.101081535
v 0.07427035 -0.09182894 0.059092864
v 0.020423919 -0.08602768 0.08999328
v -0.07392134 0.6789378 -0.108247176
v -0.028478742 0.6952893 -0.06962268
v 0.020423919 -0.08602768 0.08999328
v -0.025981069 -0.088091314 0.0483971
v -0.048782185 0.6674987 -0.1635773
v -0.07392134 0.6789378 -0.108247176
v -0.025981069 -0.088091314 0.0483971
v -0.0008145422 -0.09516811 -0.008211035
v 0.012197241 0.6767805 -0.1591487
v -0.048782185 0.6674987 -0.1635773
v -0.0008145422 -0.09516811 -0.008211035
v 0.061144248 -0.09747809 -0.0016007125
v 0.062309876 1.4762943 -0.23096356
v 0.0018390119 1.4838188 -0.23781958
v -0.048782185 0.6674987 -0.1635773
v 0.012197241 0.6767805 -0.1591487
v 0.0018390119 1.4838188 -0.23781958
v -0.023088023 1.4887722 -0.18201233
v -0.07392134 0.6789378 -0.108247176
v -0.048782185 0.6674987 -0.1635773
v -0.023088023 1.4887722 -0.18201233
v 0.021977082 1.4843091 -0.14066543
v -0.028478742 0.6952893 -0.06962268
v -0.07392134 0.6789378 -0.108247176
v 0.021977082 1.4843091 -0.14066543
v 0.07475592 1.4765974 -0.17091899
v 0.02474545 0.693956 -0.101081535
v -0.028478742 0.6952893 -0.06962268
v 0.07475592 1.4765974 -0.17091899
v 0.062309876 1.4762943 -0.23096356
v 0.012197241 0.6767805 -0.1591487
v 0.02474545 0.693956 -0.101081535
v 0.026066706 2.269692 -0.3314124
v 0.013200119 2.2599497 -0.3900343
v 0.062309876 1.4762943 -0.23096356
v 0.07475592 1.4765974 -0.17091899
v -0.0264664 2.2737317 -0.30106542
v 0.026066706 2.269692 -0.3314124
v 0.07475592 1.4765974 -0.17091899
v 0.021977082 1.4843091 -0.14066543
v -0.07180025 2.2664864 -0.34093183
v -0.0264664 2.2737317 -0.30106542
v 0.021977082 1.4843091 -0.14066543
v -0.023088023 1.4887722 -0.18201233
v -0.04728499 2.2579682 -0.3959176
v -0.07180025 2.2664864 -0.34093183
v -0.023088023 1.4887722 -0.18201233
v 0.0018390119 1.4838188 -0.23781958
v 0.013200119 2.2599497 -0.3900343
v -0.04728499 2.2579682 -0.3959176
v 0.0018390119 1.4838188 -0.23781958
v 0.062309876 1.4762943 -0.23096356
vt 0.8571749 0.53219354
vt 0.86926806 0.5331347
vt 0.87573254 0.4654606
vt 0.85803837 0.45746928
vt 0.8752933 0.13879114
vt 0.88740444 0.13813266
vt 0.88817775 0.07107133
vt 0.86954945 0.07582691
vt 0.8245254 0.22513497
vt 0.8124553 0.22628021
vt 0.8146148 0.303566
vt 0.83250266 0.29711074
vt 0.8663316 0.4346602
vt 0.85333455 0.39297128
vt 0.83076817 0.3917513
vt 0.8473307 0.4354936
vt 0.8481175 0.1491172
vt 0.86023295 0.14853373
vt 0.86046743 0.07107139
vt 0.8415847 0.073345244
vt 0.88481444 0.52333516
vt 0.9041722 0.4627502
vt 0.8859429 0.45746928
vt 0.8968843 0.5245202
vt 0.89225453 0.6525481
vt 0.9041722 0.65180796
vt 0.8917669 0.68076843
vt 0.90301615 0.67711335
vt 0.90301615 0.66528517
vt 0.8917669 0.6616301
vt 0.8848145 0.67119926
vt 0.85333455 0.39297128
vt 0.8663316 0.3221408
vt 0.8487193 0.31400776
vt 0.83076817 0.3917513
vt 0.89416397 0.8728924
vt 0.8907998 0.9334783
vt 0.9121936 0.94366926
vt 0.91219354 0.8780192
vt 0.7405534 0.0045410097
vt 0.7014452 0.07568145
vt 0.7237908 0.07251635
vt 0.7594302 0.006505549
vt 0.64818597 0.27789426
vt 0.59941053 0.351165
vt 0.6243004 0.34985432
vt 0.66635597 0.284735
vt 0.41720414 0.6258924
vt 0.34124255 0.6109677
vt 0.32222855 0.6231667
vt 0.40551847 0.6408955
vt 0.7219157 0.8645693
vt 0.7219157 0.777939
vt 0.70110947 0.7896776
vt 0.7040762 0.8466908
vt 0.21184361 0.80063516
vt 0.21509138 0.9132341
vt 0.2347945 0.92122316
vt 0.23479453 0.79551816
vt 0.7014452 0.07568145
vt 0.75315046 0.13102636
vt 0.7594302 0.11443356
vt 0.7237908 0.07251635
vt 0.34124255 0.6109677
vt 0.31788445 0.5072566
vt 0.32222855 0.6231667
vt 0.3351552 0.52822423
vt 0.41720414 0.52996016
vt 0.39873135 0.5463828
vt 0.4085586 0.5956773
vt 0.40101647 0.58361757
vt 0.59941053 0.351165
vt 0.6609074 0.44838724
vt 0.66635597 0.430311
vt 0.6243004 0.34985432
vt 0.5490998 0.94557047
vt 0.549482 0.9725205
vt 0.5691005 0.9779415
vt 0.5691005 0.94150984
vt 0.79801977 0.7720758
vt 0.79801977 0.65838337
vt 0.7778683 0.6690736
vt 0.7796134 0.7583122
vt 0.8028033 0.30492568
vt 0.8028033 0.26722756
vt 0.7833723 0.26112324
vt 0.78385746 0.3048356
vt 0.8216862 0.44085646
vt 0.80476606 0.38093567
vt 0.78337234 0.38205248
vt 0.802998 0.44838727
vt 0.9901026 0.81585056
vt 0.98944724 0.77048475
vt 0.98582137 0.77136695
vt 0.97864866 0.8051538
vt 0.80476606 0.38093567
vt 0.8216862 0.3245563
vt 0.8034934 0.31400776
vt 0.78337234 0.38205248
vt 0.7219157 0.777939
vt 0.6819477 0.7645948
vt 0.68052936 0.7757962
vt 0.70110947 0.7896776
vt 0.79801977 0.65838337
vt 0.7405088 0.65567446
vt 0.7426747 0.6655917
vt 0.7778683 0.6690736
vt 0.98944724 0.77048475
vt 0.9901026 0.7683153
vt 0.98690575 0.7685782
vt 0.98582137 0.77136695
vt 0.9842506 0.77018857
vt 0.40101647 0.58361757
vt 0.36327904 0.57516503
vt 0.3606338 0.5777972
vt 0.4085586 0.5956773
vt 0.7582794 0.98346716
vt 0.7582794 0.92527187
vt 0.75468194 0.9269198
vt 0.74050885 0.9707115
vt 0.8269767 0.9644413
vt 0.80785763 0.9720111
vt 0.80710185 0.97566694
vt 0.8269767 0.98460245
vt 0.4262861 0.94068944
vt 0.44255728 0.97528577
vt 0.44623995 0.9757259
vt 0.44623995 0.93643963
vt 0.8484426 0.30320466
vt 0.86046743 0.3034899
vt 0.86023295 0.14853373
vt 0.8481175 0.1491172
vt 0.8325026 0.07276642
vt 0.82059795 0.07107139
vt 0.8124553 0.22628021
vt 0.8245254 0.22513497
vt 0.8761541 0.2869569
vt 0.88817775 0.28715286
vt 0.88740444 0.13813266
vt 0.8752933 0.13879114
vt 0.8637823 0.6821705
vt 0.87573254 0.68086326
vt 0.86926806 0.5331347
vt 0.8571749 0.53219354
vt 0.13719264 0.6925488
vt 0.14909132 0.693389
vt 0.14909133 0.53495437
vt 0.13731384 0.53736436
vt 0.9577812 0.29628456
vt 0.94585687 0.29662025
vt 0.9457877 0.4441136
vt 0.95778114 0.44498694
vt 0.4172041 0.7624656
vt 0.40532607 0.76351094
vt 0.4055678 0.9179332
vt 0.4172041 0.92096496
vt 0.14441966 0.8099761
vt 0.1324947 0.8102852
vt 0.13242725 0.9569819
vt 0.14441967 0.95790887
vt 0.9550327 0.5936264
vt 0.9669317 0.5944282
vt 0.9669317 0.4574693
vt 0.955161 0.45947644
vt 0.95816576 0.20174694
vt 0.9699248 0.20285583
vt 0.96992487 0.073797345
vt 0.9583146 0.07107139
vt 0.92134404 0.8477829
vt 0.93316907 0.8475482
vt 0.933169 0.69125265
vt 0.9212756 0.6921727
vt 0.91325426 0.61515045
vt 0.9250569 0.6144589
vt 0.9250569 0.45746934
vt 0.9135097 0.46044302
vt 0.9423198 0.8426408
vt 0.9541425 0.84236103
vt 0.9541425 0.69125265
vt 0.9422511 0.6921988
vt 0.9459506 0.45808148
vt 0.93413883 0.45746922
vt 0.93427646 0.6075711
vt 0.9459506 0.6100204
vn 0.09611432 -0.060145587 -0.9935515
vn 0.09611432 -0.060145587 -0.9935515
vn 0.09611432 -0.060145587 -0.9935515
vn 0.09611432 -0.060145587 -0.9935515
vn -0.90536004 0.03394779 -0.42328557
vn -0.90536004 0.03394779 -0.42328557
vn -0.90536004 0.03394779 -0.42328557
vn -0.90536004 0.03394779 -0.42328557
vn -0.6544333 0.1718322 0.7363361
vn -0.6544333 0.1718322 0.7363361
vn -0.6544333 0.1718322 0.7363361
vn -0.6544333 0.1718322 0.7363361
vn 0.34699374 -0.5844241 0.7335147
vn 0.34699374 -0.5844241 0.7335147
vn 0.34699374 -0.5844241 0.7335147
vn 0.34699374 -0.5844241 0.7335147
vn 0.5122061 0.14207275 0.8470302
vn 0.5122061 0.14207275 0.8470302
vn 0.5122061 0.14207275 0.8470302
vn 0.5122061 0.14207275 0.8470302
vn 0.981005 0.0073416084 -0.19384347
vn 0.981005 0.0073416084 -0.19384347
vn 0.981005 0.0073416084 -0.19384347
vn 0.981005 0.0073416084 -0.19384347
vn 0.9765454 0.017942358 -0.21456301
vn 0.9765454 0.017942358 -0.21456301
vn -0.016730765 0.9869191 -0.1603461
vn -0.016730765 0.9869191 -0.1603461
vn -0.016730765 0.9869191 -0.1603461
vn -0.016730765 0.9869191 -0.1603461
vn -0.016730765 0.9869191 -0.1603461
vn 0.4971316 0.5676166 0.65625566
vn 0.4971316 0.5676166 0.65625566
vn 0.4971316 0.5676166 0.65625566
vn 0.4971316 0.5676166 0.65625566
vn -0.72345275 0.6236551 -0.29609197
vn -0.72345275 0.6236551 -0.29609197
vn -0.72345275 0.6236551 -0.29609197
vn -0.72345275 0.6236551 -0.29609197
vn 0.85829586 -0.48861352 -0.15679649
vn 0.85829586 -0.48861352 -0.15679649
vn 0.85829586 -0.48861352 -0.15679649
vn 0.85829586 -0.48861352 -0.15679649
vn 0.18703863 0.3250069 -0.9270313
vn 0.18703863 0.3250069 -0.9270313
vn 0.18703863 0.3250069 -0.9270313
vn 0.18703863 0.3250069 -0.9270313
vn -0.6620054 0.14607516 0.73512644
vn -0.6620054 0.14607516 0.73512644
vn -0.6620054 0.14607516 0.73512644
vn -0.6620054 0.14607516 0.73512644
vn 0.17700255 0.2652407 -0.9477961
vn 0.17700255 0.2652407 -0.9477961
vn 0.17700255 0.2652407 -0.9477961
vn 0.17700255 0.2652407 -0.9477961
vn -0.80413705 -0.5515554 -0.22169855
vn -0.80413705 -0.5515554 -0.22169855
vn -0.80413705 -0.5515554 -0.22169855
vn -0.80413705 -0.5515554 -0.22169855
vn 0.93714523 0.2645831 -0.22749652
vn 0.93714523 0.2645831 -0.22749652
vn 0.93714523 0.2645831 -0.22749652
vn 0.93714523 0.2645831 -0.22749652
vn -0.6554339 0.097032204 0.7489935
vn -0.6554339 0.097032204 0.7489935
vn -0.6554339 0.097032204 0.7489935
vn -0.6554339 0.097032204 0.7489935
vn -0.6686699 0.10588762 0.7359812
vn -0.6686699 0.10588762 0.7359812
vn -0.6637858 0.10190777 0.74094754
vn -0.6637858 0.10190777 0.74094754
vn 0.07674077 -0.48787025 -0.8695364
vn 0.07674077 -0.48787025 -0.8695364
vn 0.07674077 -0.48787025 -0.8695364
vn 0.07674077 -0.48787025 -0.8695364
vn -0.7595268 -0.5249033 -0.3841817
vn -0.7595268 -0.5249033 -0.3841817
vn -0.7595268 -0.5249033 -0.3841817
vn -0.7595268 -0.5249033 -0.3841817
vn 0.8595026 -0.45580235 -0.23129964
vn 0.8595026 -0.45580235 -0.23129964
vn 0.8595026 -0.45580235 -0.23129964
vn 0.8595026 -0.45580235 -0.23129964
vn -0.7209584 0.56379074 -0.40293795
vn -0.7209584 0.56379074 -0.40293795
vn -0.7209584 0.56379074 -0.40293795
vn -0.7209584 0.56379074 -0.40293795
vn 0.26179332 -0.5280651 0.80784374
vn 0.26179332 -0.5280651 0.80784374
vn 0.26179332 -0.5280651 0.80784374
vn 0.26179332 -0.5280651 0.80784374
vn 0.7220837 -0.69063556 -0.04021914
vn 0.7220837 -0.69063556 -0.04021914
vn 0.7220837 -0.69063556 -0.04021914
vn 0.7220837 -0.69063556 -0.04021914
vn 0.36753526 0.73543346 0.5692586
vn 0.36753526 0.73543346 0.5692586
vn 0.36753526 0.73543346 0.5692586
vn 0.36753526 0.73543346 0.5692586
vn -0.012272109 -0.55435294 -0.8321913
vn -0.012272109 -0.55435294 -0.8321913
vn -0.012272109 -0.55435294 -0.8321913
vn -0.012272109 -0.55435294 -0.8321913
vn 0.8630203 0.46721092 -0.19211985
vn 0.8630203 0.46721092 -0.19211985
vn 0.8630203 0.46721092 -0.19211985
vn 0.8630203 0.46721092 -0.19211985
vn -0.11664688 -0.9912964 0.061032847
vn -0.11664688 -0.9912964 0.061032847
vn -0.11664688 -0.9912964 0.061032847
vn -0.11664688 -0.9912964 0.061032847
vn -0.11664688 -0.9912964 0.061032847
vn -0.8569844 -0.008594622 0.51527065
vn -0.8569844 -0.008594622 0.51527065
vn -0.8569844 -0.008594622 0.51527065
vn -0.8569844 -0.008594622 0.51527065
vn -0.02601992 0.17240117 -0.9846831
vn -0.02601992 0.17240117 -0.9846831
vn -0.02601992 0.17240117 -0.9846831
vn -0.02601992 0.17240117 -0.9846831
vn 0.29935104 -0.6175946 0.7273004
vn 0.29935104 -0.6175946 0.7273004
vn 0.29935104 -0.6175946 0.7273004
vn 0.29935104 -0.6175946 0.7273004
vn -0.78235704 0.4542084 -0.42615998
vn -0.78235704 0.4542084 -0.42615998
vn -0.78235704 0.4542084 -0.42615998
vn -0.78235704 0.4542084 -0.42615998
vn 0.50286186 0.20303573 0.8401824
vn 0.50286186 0.20303573 0.8401824
vn 0.50286186 0.20303573 0.8401824
vn 0.50286186 0.20303573 0.8401824
vn -0.66621524 0.10902089 0.7377477
vn -0.66621524 0.10902089 0.7377477
vn -0.66621524 0.10902089 0.7377477
vn -0.66621524 0.10902089 0.7377477
vn -0.91185606 -0.13616215 -0.38727042
vn -0.91185606 -0.13616215 -0.38727042
vn -0.91185606 -0.13616215 -0.38727042
vn -0.91185606 -0.13616215 -0.38727042
vn 0.09858634 -0.1925598 -0.9763204
vn 0.09858634 -0.1925598 -0.9763204
vn 0.09858634 -0.1925598 -0.9763204
vn 0.09858634 -0.1925598 -0.9763204
vn 0.09346355 -0.09540804 -0.99104077
vn 0.09346355 -0.09540804 -0.99104077
vn 0.09346355 -0.09540804 -0.99104077
vn 0.09346355 -0.09540804 -0.99104077
vn -0.9105218 0.019215481 -0.41301456
vn -0.9105218 0.019215481 -0.41301456
vn -0.9105218 0.019215481 -0.41301456
vn -0.9105218 0.019215481 -0.41301456
vn -0.666198 0.109023415 0.7377629
vn -0.666198 0.109023415 0.7377629
vn -0.666198 0.109023415 0.7377629
vn -0.666198 0.109023415 0.7377629
vn 0.5054767 0.04492624 0.8616699
vn 0.5054767 0.04492624 0.8616699
vn 0.5054767 0.04492624 0.8616699
vn 0.5054767 0.04492624 0.8616699
vn 0.97756404 -0.07933295 -0.19512746
vn 0.97756404 -0.07933295 -0.19512746
vn 0.97756404 -0.07933295 -0.19512746
vn 0.97756404 -0.07933295 -0.19512746
vn 0.97752506 0.018061474 -0.21004403
vn 0.97752506 0.018061474 -0.21004403
vn 0.97752506 0.018061474 -0.21004403
vn 0.97752506 0.018061474 -0.21004403
vn 0.5053275 0.2011742 0.83915013
vn 0.5053275 0.2011742 0.83915013
vn 0.5053275 0.2011742 0.83915013
vn 0.5053275 0.2011742 0.83915013
vn -0.6661723 0.109031044 0.7377849
vn -0.6661723 0.109031044 0.7377849
vn -0.6661723 0.109031044 0.7377849
vn -0.6661723 0.109031044 0.7377849
vn -0.9106756 -0.1370286 -0.3897346
vn -0.9106756 -0.1370286 -0.3897346
vn -0.9106756 -0.1370286 -0.3897346
vn -0.9106756 -0.1370286 -0.3897346
vn 0.09402669 -0.19292627 -0.9766976
vn 0.09402669 -0.19292627 -0.9766976
vn 0.09402669 -0.19292627 -0.9766976
vn 0.09402669 -0.19292627 -0.9766976
g Staff_0
f 3/3/3 2/2/2 1/1/1
f 4/4/4 3/3/3 1/1/1
f 7/7/7 6/6/6 5/5/5
f 8/8/8 7/7/7 5/5/5
f 11/11/11 10/10/10 9/9/9
f 12/12/12 11/11/11 9/9/9
f 15/15/15 14/14/14 13/13/13
f 16/16/16 15/15/15 13/13/13
f 19/19/19 18/18/18 17/17/17
f 20/20/20 19/19/19 17/17/17
f 23/23/23 22/22/22 21/21/21
f 22/22/22 24/24/24 21/21/21
f 21/21/21 24/24/24 25/25/25
f 24/24/24 26/26/26 25/25/25
f 29/29/29 28/28/28 27/27/27
f 27/27/27 30/30/30 29/29/29
f 27/27/27 31/31/31 30/30/30
f 34/34/34 33/33/33 32/32/32
f 35/35/35 34/34/34 32/32/32
f 38/38/38 37/37/37 36/36/36
f 39/39/39 38/38/38 36/36/36
f 42/42/42 41/41/41 40/40/40
f 43/43/43 42/42/42 40/40/40
f 46/46/46 45/45/45 44/44/44
f 47/47/47 46/46/46 44/44/44
f 50/50/50 49/49/49 48/48/48
f 51/51/51 50/50/50 48/48/48
f 54/54/54 53/53/53 52/52/52
f 55/55/55 54/54/54 52/52/52
f 58/58/58 57/57/57 56/56/56
f 59/59/59 58/58/58 56/56/56
f 62/62/62 61/61/61 60/60/60
f 63/63/63 62/62/62 60/60/60
f 66/66/66 65/65/65 64/64/64
f 65/65/65 67/67/67 64/64/64
f 65/65/65 68/68/68 67/67/67
f 68/68/68 69/69/69 67/67/67
f 68/68/68 70/70/70 69/69/69
f 70/70/70 71/71/71 69/69/69
f 74/74/74 73/73/73 72/72/72
f 75/75/75 74/74/74 72/72/72
f 78/78/78 77/77/77 76/76/76
f 79/79/79 78/78/78 76/76/76
f 82/82/82 81/81/81 80/80/80
f 83/83/83 82/82/82 80/80/80
f 86/86/86 85/85/85 84/84/84
f 87/87/87 86/86/86 84/84/84
f 90/90/90 89/89/89 88/88/88
f 91/91/91 90/90/90 88/88/88
f 94/94/94 93/93/93 92/92/92
f 95/95/95 94/94/94 92/92/92
f 98/98/98 97/97/97 96/96/96
f 99/99/99 98/98/98 96/96/96
f 102/102/102 101/101/101 100/100/100
f 103/103/103 102/102/102 100/100/100
f 106/106/106 105/105/105 104/104/104
f 107/107/107 106/106/106 104/104/104
f 110/110/110 109/109/109 108/108/108
f 108/108/108 111/111/111 110/110/110
f 111/111/111 112/112/112 110/110/110
f 115/115/115 114/114/114 113/113/113
f 116/116/116 115/115/115 113/113/113
f 119/119/119 118/118/118 117/117/117
f 120/120/120 119/119/119 117/117/117
f 123/123/123 122/122/122 121/121/121
f 124/124/124 123/123/123 121/121/121
f 127/127/127 126/126/126 125/125/125
f 128/128/128 127/127/127 125/125/125
f 131/131/131 130/130/130 129/129/129
f 132/132/132 131/131/131 129/129/129
f 135/135/135 134/134/134 133/133/133
f 136/136/136 135/135/135 133/133/133
f 139/139/139 138/138/138 137/137/137
f 140/140/140 139/139/139 137/137/137
f 143/143/143 142/142/142 141/141/141
f 144/144/144 143/143/143 141/141/141
f 147/147/147 146/146/146 145/145/145
f 148/148/148 147/147/147 145/145/145
f 151/151/151 150/150/150 149/149/149
f 152/152/152 151/151/151 149/149/149
f 155/155/155 154/154/154 153/153/153
f 156/156/156 155/155/155 153/153/153
f 159/159/159 158/158/158 157/157/157
f 160/160/160 159/159/159 157/157/157
f 163/163/163 162/162/162 161/161/161
f 164/164/164 163/163/163 161/161/161
f 167/167/167 166/166/166 165/165/165
f 168/168/168 167/167/167 165/165/165
f 171/171/171 170/170/170 169/169/169
f 172/172/172 171/171/171 169/169/169
f 175/175/175 174/174/174 173/173/173
f 176/176/176 175/175/175 173/173/173
f 179/179/179 178/178/178 177/177/177
f 180/180/180 179/179/179 177/177/177
f 183/183/183 182/182/182 181/181/181
f 184/184/184 183/183/183 181/181/181
