g Tree0
v -0.011734635 0.20722732 3.4657197
v -0.011734664 0.20722732 3.4657195
v -0.36936948 0.41445473 3.4961636
v -0.011734664 -0.2072274 3.4657195
v -0.011734664 0.20722732 3.4657195
v -0.011734635 0.20722732 3.4657197
v -0.3257868 0.19896299 4.9401474
v -0.016666412 -0.24027303 4.6887493
v 0.17624563 0.008051332 5.1915455
v 3.2154274 0.0013225824 7.3085833
v 3.1818871 0.0013225824 7.3340282
v 3.1986575 0.037781604 7.321306
v -1.5495894 -1.9569917 5.683262
v -1.5651617 -1.9770362 5.642676
v -1.590114 -1.941581 5.662969
v 0.71979964 0.2674945 6.670491
v 0.79928005 -0.113533854 6.8756175
v 0.640319 -0.1135339 6.4653645
v -0.7640245 -0.58824563 5.2123575
v -0.6296115 -0.91773653 5.221757
v -0.41152963 -0.63701236 5.2029576
v -0.7812308 -0.95892346 7.0126185
v -0.79883444 -0.9815835 7.0141354
v -0.80968404 -0.95498693 7.0133767
v 0.082333356 3.445139 5.928082
v 0.07325969 3.322423 5.959491
v -0.02712994 3.389722 5.94895
v -0.55152774 0.23441583 4.1076612
v -0.016876891 0.23348008 4.4010873
v -0.029784068 0.16987403 3.791619
v -0.5149859 1.8152387 7.8676486
v 1.2049555 2.5670965 9.536161
v -2.0402043 1.0102273 9.536161
v 1.2049555 2.5670965 9.536161
v -0.5149869 1.8152386 11.204672
v -2.0402043 1.0102273 9.536161
v -2.1435313 -1.4663259 4.0297823
v -3.4573452 -1.1452453 5.2383337
v -2.0650144 -3.1716838 4.4019284
v -3.4573452 -1.1452453 5.2383337
v -3.3740048 -2.932766 5.534343
v -2.0650144 -3.1716838 4.4019284
v 5.2767606 0.82998025 6.9254913
v 3.6803389 1.9112798 7.861427
v 4.187234 0.517619 5.178725
v 3.6803389 1.9112798 7.861427
v 2.63303 1.6235574 6.013695
v 4.187234 0.517619 5.178725
v -0 1 -0.14957148
v 0.86602545 0.49999997 -0.14957148
v 0.39950398 0.28200492 0.93625695
v -0.11325077 0.57804406 0.93625695
v 0.86602545 0.49999997 -0.14957148
v 0.8660254 -0.50000006 -0.14957148
v 0.39950398 -0.31007323 0.93625695
v 0.39950398 0.28200492 0.93625695
v 0.8660254 -0.50000006 -0.14957148
v -8.742278E-08 -1 -0.14957148
v -0.11325082 -0.60611224 0.93625695
v 0.39950398 -0.31007323 0.93625695
v -8.742278E-08 -1 -0.14957148
v -0.86602545 -0.4999999 -0.14957148
v -0.6260055 -0.31007314 0.93625695
v -0.11325082 -0.60611224 0.93625695
v 0.62391937 -0.0038391203 7.8232493
v 0.03959279 0.040566728 8.88223
v 0.078108445 0.010962769 8.916079
v 0.7250005 -0.07784894 7.9020844
v -0.86602545 -0.4999999 -0.14957148
v -0.86602545 0.4999999 -0.14957148
v -0.6260055 0.2820049 0.93625695
v -0.6260055 -0.31007314 0.93625695
v -0.86602545 0.4999999 -0.14957148
v -0 1 -0.14957148
v -0.11325077 0.57804406 0.93625695
v -0.6260055 0.2820049 0.93625695
v 0.8660254 -0.50000006 -0.14957148
v 0.86602545 0.49999997 -0.14957148
v -0 1 -0.14957148
v -8.742278E-08 -1 -0.14957148
v -0.86602545 0.4999999 -0.14957148
v -0.86602545 -0.4999999 -0.14957148
v 0.078108445 0.12937842 8.916079
v 0.11662412 0.09977453 8.949927
v 0.11662412 0.040566705 8.949927
v 0.078108445 0.010962769 8.916079
v 0.03959279 0.099774525 8.88223
v 0.03959279 0.040566728 8.88223
v 0.8260822 -0.0038391575 7.9809184
v 0.11662412 0.040566705 8.949927
v 0.11662412 0.09977453 8.949927
v 0.8260819 0.14418039 7.980919
v 0.62391937 0.14418039 7.8232493
v 0.03959279 0.099774525 8.88223
v 0.03959279 0.040566728 8.88223
v 0.62391937 -0.0038391203 7.8232493
v 0.8260819 0.14418039 7.980919
v 0.11662412 0.09977453 8.949927
v 0.078108445 0.12937842 8.916079
v 0.7250005 0.21819013 7.9020844
v 0.7250005 -0.07784894 7.9020844
v 0.078108445 0.010962769 8.916079
v 0.11662412 0.040566705 8.949927
v 0.8260822 -0.0038391575 7.9809184
v 0.7250005 0.21819013 7.9020844
v 0.078108445 0.12937842 8.916079
v 0.03959279 0.099774525 8.88223
v 0.62391937 0.14418039 7.8232493
v -0.11325077 0.57804406 0.93625695
v -0.36936948 0.41445473 3.4961636
v -0.72700435 0.2072273 3.5266078
v -0.6260055 0.2820049 0.93625695
v -0.36936948 0.41445473 3.4961636
v 0.14302376 0.3958136 5.5546174
v -0.13021684 0.23299208 5.624418
v -0.72700435 0.2072273 3.5266078
v 0.14302376 0.3958136 5.5546174
v 0.8403752 0.3070019 6.930611
v 0.6358017 0.18858624 6.915899
v -0.13021684 0.23299208 5.624418
v 0.8403752 0.3070019 6.930611
v 0.7250005 0.21819013 7.9020844
v 0.62391937 0.14418039 7.8232493
v 0.6358017 0.18858624 6.915899
v -0.11325082 -0.60611224 0.93625695
v -0.3693695 -0.41445473 3.4961636
v -0.011734664 -0.2072274 3.4657195
v 0.39950398 -0.31007323 0.93625695
v -0.3693695 -0.41445473 3.4961636
v 0.1430237 -0.2554724 5.5546174
v 0.41626436 -0.09265089 5.484817
v -0.011734664 -0.2072274 3.4657195
v 0.1430237 -0.2554724 5.5546174
v 0.8403752 -0.16666065 6.930611
v 1.0449492 -0.048245028 6.9453225
v 0.41626436 -0.09265089 5.484817
v 0.8403752 -0.16666065 6.930611
v 0.7250005 -0.07784894 7.9020844
v 0.8260822 -0.0038391575 7.9809184
v 1.0449492 -0.048245028 6.9453225
v 0.39950398 0.28200492 0.93625695
v -0.011734635 0.20722732 3.4657197
v -0.36936948 0.41445473 3.4961636
v -0.11325077 0.57804406 0.93625695
v -0.011734664 0.20722732 3.4657195
v 0.4162644 0.2329921 5.484817
v 0.14302376 0.3958136 5.5546174
v -0.36936948 0.41445473 3.4961636
v 0.4162644 0.2329921 5.484817
v 1.0449489 0.18858624 6.945323
v 0.8403752 0.3070019 6.930611
v 0.14302376 0.3958136 5.5546174
v 1.0449489 0.18858624 6.945323
v 0.8260819 0.14418039 7.980919
v 0.7250005 0.21819013 7.9020844
v 0.8403752 0.3070019 6.930611
v -0.6260055 0.2820049 0.93625695
v -0.72700435 0.2072273 3.5266078
v -0.72700435 -0.20722733 3.5266078
v -0.6260055 -0.31007314 0.93625695
v -0.72700435 0.2072273 3.5266078
v -0.13021684 0.23299208 5.624418
v -0.13021684 -0.09265083 5.624418
v -0.72700435 -0.20722733 3.5266078
v -0.13021684 0.23299208 5.624418
v 0.6358017 0.18858624 6.915899
v 0.6358017 -0.048244983 6.915899
v -0.13021684 -0.09265083 5.624418
v 0.6358017 0.18858624 6.915899
v 0.62391937 0.14418039 7.8232493
v 0.62391937 -0.0038391203 7.8232493
v 0.6358017 -0.048244983 6.915899
v 0.39950398 -0.31007323 0.93625695
v -0.011734664 -0.2072274 3.4657195
v -0.011734635 0.20722732 3.4657197
v 0.39950398 0.28200492 0.93625695
v -0.011734664 -0.2072274 3.4657195
v 0.41626436 -0.09265089 5.484817
v 0.4162644 0.2329921 5.484817
v -0.011734664 0.20722732 3.4657195
v 0.41626436 -0.09265089 5.484817
v 1.0449492 -0.048245028 6.9453225
v 1.0449489 0.18858624 6.945323
v 0.4162644 0.2329921 5.484817
v 1.0449492 -0.048245028 6.9453225
v 0.8260822 -0.0038391575 7.9809184
v 0.8260819 0.14418039 7.980919
v 1.0449489 0.18858624 6.945323
v -0.6260055 -0.31007314 0.93625695
v -0.72700435 -0.20722733 3.5266078
v -0.3693695 -0.41445473 3.4961636
v -0.11325082 -0.60611224 0.93625695
v -0.72700435 -0.20722733 3.5266078
v -0.13021684 -0.09265083 5.624418
v 0.1430237 -0.2554724 5.5546174
v -0.3693695 -0.41445473 3.4961636
v -0.13021684 -0.09265083 5.624418
v 0.6358017 -0.048244983 6.915899
v 0.8403752 -0.16666065 6.930611
v 0.1430237 -0.2554724 5.5546174
v 0.6358017 -0.048244983 6.915899
v 0.62391937 -0.0038391203 7.8232493
v 0.7250005 -0.07784894 7.9020844
v 0.8403752 -0.16666065 6.930611
v -0.016666412 -0.24027303 4.6887493
v -0.3257868 0.19896299 4.9401474
v -1.590114 -1.941581 5.662969
v -1.5651617 -1.9770362 5.642676
v 0.17624563 0.008051332 5.1915455
v -0.016666412 -0.24027303 4.6887493
v -1.5651617 -1.9770362 5.642676
v -1.5495894 -1.9569917 5.683262
v 1.7926272 0.1507372 6.696596
v 1.7884115 -0.055155262 6.5777993
v 3.2154274 0.0013225824 7.3085833
v 3.1986575 0.037781604 7.321306
v -0.3257868 0.19896299 4.9401474
v 0.17624563 0.008051332 5.1915455
v -1.5495894 -1.9569917 5.683262
v -1.590114 -1.941581 5.662969
v 1.7884115 -0.055155262 6.5777993
v 3.1818871 0.0013225824 7.3340282
v 3.2154274 0.0013225824 7.3085833
v 1.7968427 -0.055155233 6.8153934
v 0.640319 -0.1135339 6.4653645
v 0.79928005 -0.113533854 6.8756175
v 1.7968427 -0.055155233 6.8153934
v 1.7926272 0.1507372 6.696596
v 3.1986575 0.037781604 7.321306
v 3.1818871 0.0013225824 7.3340282
v 0.79928005 -0.113533854 6.8756175
v 0.71979964 0.2674945 6.670491
v 1.7926272 0.1507372 6.696596
v 1.7968427 -0.055155233 6.8153934
v 0.71979964 0.2674945 6.670491
v 0.640319 -0.1135339 6.4653645
v 1.7884115 -0.055155262 6.5777993
v 1.7926272 0.1507372 6.696596
v -0.6296115 -0.91773653 5.221757
v -0.7640245 -0.58824563 5.2123575
v -0.80968404 -0.95498693 7.0133767
v -0.79883444 -0.9815835 7.0141354
v -0.41152963 -0.63701236 5.2029576
v -0.6296115 -0.91773653 5.221757
v -0.79883444 -0.9815835 7.0141354
v -0.7812308 -0.95892346 7.0126185
v -0.7640245 -0.58824563 5.2123575
v -0.41152963 -0.63701236 5.2029576
v -0.7812308 -0.95892346 7.0126185
v -0.80968404 -0.95498693 7.0133767
v -0.26951307 1.7282906 4.578972
v -0.0070409775 1.7439774 4.422224
v 0.082333356 3.445139 5.928082
v -0.02712994 3.389722 5.94895
v -0.0070409775 1.7439774 4.422224
v -0.009252787 1.6827732 4.721012
v 0.07325969 3.322423 5.959491
v 0.082333356 3.445139 5.928082
v -0.009252787 1.6827732 4.721012
v -0.26951307 1.7282906 4.578972
v -0.02712994 3.389722 5.94895
v 0.07325969 3.322423 5.959491
v -0.016876891 0.23348008 4.4010873
v -0.55152774 0.23441583 4.1076612
v -0.26951307 1.7282906 4.578972
v -0.009252787 1.6827732 4.721012
v -0.029784068 0.16987403 3.791619
v -0.016876891 0.23348008 4.4010873
v -0.009252787 1.6827732 4.721012
v -0.0070409775 1.7439774 4.422224
v -0.55152774 0.23441583 4.1076612
v -0.029784068 0.16987403 3.791619
v -0.0070409775 1.7439774 4.422224
v -0.26951307 1.7282906 4.578972
v 1.2157755 -1.4698892 7.848945
v 2.0012922 1.007894 7.829479
v 0.36081004 0.1660823 7.1206875
v -0.5149859 1.8152387 7.8676486
v 1.2049555 2.5670965 9.536161
v -1.2854642 -0.7217467 7.887204
v -2.0402043 1.0102273 9.536161
v -1.2854642 -0.7217467 7.887204
v 1.2157755 -1.4698892 7.848945
v 0.36081004 0.1660823 7.1206875
v -0.4833354 -2.2349322 9.536161
v 2.7618241 -0.67806315 9.536161
v 2.0012922 1.007894 7.829479
v 1.2157764 -1.4698888 11.223376
v 0.36081004 0.1660823 11.9516325
v 2.001292 1.0078949 11.242843
v 1.2157764 -1.4698888 11.223376
v -0.5149869 1.8152386 11.204672
v 1.2049555 2.5670965 9.536161
v -1.2854638 -0.7217479 11.185118
v -2.0402043 1.0102273 9.536161
v 0.36081004 0.1660823 11.9516325
v 1.2157764 -1.4698888 11.223376
v -1.2854638 -0.7217479 11.185118
v -0.4833354 -2.2349322 9.536161
v -1.2854642 -0.7217467 7.887204
v -2.0402043 1.0102273 9.536161
v -0.4833354 -2.2349322 9.536161
v -1.2854638 -0.7217479 11.185118
v 2.0012922 1.007894 7.829479
v 2.7618241 -0.67806315 9.536161
v 1.2049555 2.5670965 9.536161
v 2.001292 1.0078949 11.242843
v 1.2157764 -1.4698888 11.223376
v -1.1856579 2.283841 7.3148627
v 0.26530224 1.5360548 6.531675
v -1.2304133 1.7186992 5.4417477
v -0.26337692 3.8399541 7.7629075
v 1.2174526 3.0021765 7.002574
v -1.2304133 1.7186992 5.4417477
v 0.26530224 1.5360548 6.531675
v -0.36927482 2.6413524 4.1909447
v 1.1189502 2.4209695 5.1364427
v 1.2174526 3.0021765 7.002574
v -1.2304133 1.7186992 5.4417477
v -0.36927482 2.6413524 4.1909447
v -1.8196205 3.5239472 4.942992
v -2.0168912 2.732321 6.197918
v -1.1856579 2.283841 7.3148627
v -1.7640077 4.0470386 6.803467
v -0.897954 4.945253 5.4221773
v -1.8196205 3.5239472 4.942992
v -0.36927482 2.6413524 4.1909447
v -0.897954 4.945253 5.4221773
v 0.5022092 4.2179875 4.641267
v 1.1189502 2.4209695 5.1364427
v 0.61169267 4.7571816 6.494741
v -0.897954 4.945253 5.4221773
v 0.61169267 4.7571816 6.494741
v -0.26337692 3.8399541 7.7629075
v -1.7640077 4.0470386 6.803467
v -1.1856579 2.283841 7.3148627
v -0.26337692 3.8399541 7.7629075
v 0.61169267 4.7571816 6.494741
v 1.2174526 3.0021765 7.002574
v 1.3842381 3.7489843 5.7559347
v 0.5022092 4.2179875 4.641267
v 1.1189502 2.4209695 5.1364427
v -2.763983 -2.9893231 6.8284616
v -1.7684121 -3.7130358 6.1096735
v -3.3740048 -2.932766 5.534343
v -1.6108925 -2.3948855 7.478678
v -0.3090378 -2.7339995 6.2646112
v -2.763983 -2.9893231 6.8284616
v -3.3740048 -2.932766 5.534343
v -3.2503297 -1.6150764 6.8751183
v -3.4573452 -1.1452453 5.2383337
v -0.3090378 -2.7339995 6.2646112
v -1.6108925 -2.3948855 7.478678
v -1.7013681 -0.7075609 7.1010175
v -0.3940599 -0.944703 5.9907956
v -0.5237422 -2.2296772 4.587753
v -2.0477579 -0.18188879 5.404674
v -1.0023977 -0.8899212 4.6744833
v -2.0477579 -0.18188879 5.404674
v -1.7013681 -0.7075609 7.1010175
v -3.4573452 -1.1452453 5.2383337
v -3.2503297 -1.6150764 6.8751183
v -1.6108925 -2.3948855 7.478678
v -2.763983 -2.9893231 6.8284616
v -2.0477579 -0.18188879 5.404674
v -3.4573452 -1.1452453 5.2383337
v -2.1435313 -1.4663259 4.0297823
v -1.0023977 -0.8899212 4.6744833
v -0.5237422 -2.2296772 4.587753
v -2.0650144 -3.1716838 4.4019284
v -0.5237422 -2.2296772 4.587753
v -2.0650144 -3.1716838 4.4019284
v -0.3090378 -2.7339995 6.2646112
v -1.7684121 -3.7130358 6.1096735
v -3.3740048 -2.932766 5.534343
v -1.4685982 -0.19602987 5.9836845
v -1.9457585 -0.25879624 7.2757874
v -2.00647 -0.9471575 6.488114
v -1.8111641 -1.6541617 7.2627397
v -1.2668935 -0.87292933 8.194486
v -1.3260578 -1.5731214 5.9450865
v -0.70720875 -2.2003477 6.941567
v -1.3260578 -1.5731214 5.9450865
v -1.4685982 -0.19602987 5.9836845
v -2.00647 -0.9471575 6.488114
v -0.34485468 -0.83513904 5.657046
v -0.90453994 0.49227926 6.909964
v -1.9457585 -0.25879624 7.2757874
v 0.20864156 -0.0659354 6.595087
v -1.8111641 -1.6541617 7.2627397
v -1.2668935 -0.87292933 8.194486
v -0.70720875 -2.2003477 6.941567
v -0.15251777 -1.5255108 7.8673644
v -1.2668935 -0.87292933 8.194486
v -0.24916705 -0.12720242 7.8942447
v -0.15251777 -1.5255108 7.8673644
v -0.90453994 0.49227926 6.909964
v -1.9457585 -0.25879624 7.2757874
v -1.3260578 -1.5731214 5.9450865
v -0.70720875 -2.2003477 6.941567
v -0.34485468 -0.83513904 5.657046
v 0.31314984 -1.445977 6.5426254
v -0.15251777 -1.5255108 7.8673644
v -0.34485468 -0.83513904 5.657046
v 0.31314984 -1.445977 6.5426254
v 0.20864156 -0.0659354 6.595087
v 0.3947207 -0.76091146 7.363418
v -0.15251777 -1.5255108 7.8673644
v -0.24916705 -0.12720242 7.8942447
v -0.90453994 0.49227926 6.909964
v 4.0066886 -1.7830547 8.177056
v 4.416557 0.28276289 8.89051
v 5.2198815 -0.6465119 7.72985
v 2.510848 -0.68748856 8.99051
v 3.0177443 -2.081149 6.3078065
v 1.4523774 -1.0163167 7.296101
v 1.4782027 0.47664177 6.4393816
v 2.63303 1.6235574 6.013695
v 1.802982 1.0672908 7.989114
v 2.2947066 -0.47451738 5.272245
v 4.187234 0.517619 5.178725
v 5.2767606 0.82998025 6.9254913
v 4.187234 0.517619 5.178725
v 4.8793087 -1.2503461 6.1636477
v 5.2198815 -0.6465119 7.72985
v 4.416557 0.28276289 8.89051
v 3.6803389 1.9112798 7.861427
v 4.187234 0.517619 5.178725
v 2.2947066 -0.47451738 5.272245
v 3.0177443 -2.081149 6.3078065
v 4.8793087 -1.2503461 6.1636477
v 4.0066886 -1.7830547 8.177056
v 5.2198815 -0.6465119 7.72985
v 3.0177443 -2.081149 6.3078065
v 2.2947066 -0.47451738 5.272245
v 1.4523774 -1.0163167 7.296101
v 1.4782027 0.47664177 6.4393816
v 1.802982 1.0672908 7.989114
v 2.510848 -0.68748856 8.99051
v 4.416557 0.28276289 8.89051
v 2.510848 -0.68748856 8.99051
v 3.6803389 1.9112798 7.861427
v 1.802982 1.0672908 7.989114
v 2.63303 1.6235574 6.013695
vt 0.18811035 0.32373047
vt 0.18811035 0.32373047
vt 0.18811035 0.30249023
vt 0.18811035 0.35327148
vt 0.18811035 0.3322754
vt 0.18811035 0.3322754
vt 0.58496094 0.20361328
vt 0.57128906 0.1772461
vt 0.5644531 0.20361328
vt 0.18811035 0.40429688
vt 0.18969727 0.40454102
vt 0.18969727 0.40283203
vt 0.19030762 0.3918457
vt 0.18811035 0.39282227
vt 0.19030762 0.39404297
vt 0.61083984 0.20019531
vt 0.61083984 0.1772461
vt 0.59375 0.18896484
vt 0.6196289 0.18798828
vt 0.63427734 0.1953125
vt 0.63427734 0.1772461
vt 0.92285156 0.3605957
vt 0.9243164 0.36157227
vt 0.9243164 0.36010742
vt 0.19335938 0.3684082
vt 0.19335938 0.3618164
vt 0.18811035 0.3647461
vt 0.55615234 0.20874023
vt 0.55615234 0.1772461
vt 0.53271484 0.19470215
vt 0.14331055 0.59375
vt 0.18798828 0.69140625
vt 0.18798828 0.50439453
vt 0.18664551 0.7001953
vt 0.14331055 0.7988281
vt 0.18664551 0.88720703
vt 0.3310547 0.9111328
vt 0.38061523 0.9658203
vt 0.38061523 0.83740234
vt 0.9741211 0.56591797
vt 0.9272461 0.62841797
vt 0.9741211 0.69921875
vt 0.88378906 0.43798828
vt 0.93847656 0.53466797
vt 0.93847656 0.4020996
vt 0.95214844 0.13208008
vt 0.90771484 0.2133789
vt 0.95214844 0.2915039
vt 0.76904297 0.1550293
vt 0.80566406 0.1550293
vt 0.8071289 0.10736084
vt 0.78515625 0.10736084
vt 0.80566406 0.1550293
vt 0.85595703 0.15136719
vt 0.83691406 0.10522461
vt 0.8071289 0.10736084
vt 0.84716797 0.7290039
vt 0.80322266 0.72802734
vt 0.81884766 0.7739258
vt 0.84521484 0.77441406
vt 0.80322266 0.72802734
vt 0.7651367 0.76220703
vt 0.796875 0.7939453
vt 0.81884766 0.7739258
vt 0.35498047 0.64501953
vt 0.38745117 0.60058594
vt 0.3864746 0.59814453
vt 0.35180664 0.63916016
vt 0.91845703 0.56591797
vt 0.86816406 0.56591797
vt 0.8823242 0.6113281
vt 0.9121094 0.6113281
vt 0.90771484 0.8544922
vt 0.85595703 0.8510742
vt 0.8696289 0.8876953
vt 0.9003906 0.8901367
vt 0.047698975 0.78125
vt 0.004333496 0.80078125
vt 0.004333496 0.8486328
vt 0.09106445 0.8100586
vt 0.047698975 0.8769531
vt 0.09106445 0.85791016
vt 0.19250488 0.38183594
vt 0.19250488 0.37890625
vt 0.19030762 0.37695312
vt 0.18811035 0.37841797
vt 0.19030762 0.38305664
vt 0.18811035 0.38134766
vt 0.15783691 0.44458008
vt 0.17468262 0.49560547
vt 0.1776123 0.4951172
vt 0.1652832 0.44384766
vt 0.88916016 0.18823242
vt 0.8989258 0.13232422
vt 0.8959961 0.13208008
vt 0.88183594 0.18762207
vt 0.1652832 0.44384766
vt 0.1776123 0.4951172
vt 0.17944336 0.4934082
vt 0.17004395 0.43945312
vt 0.35180664 0.63916016
vt 0.3864746 0.59814453
vt 0.3840332 0.5966797
vt 0.34594727 0.6352539
vt 0.19482422 0.29370117
vt 0.19482422 0.24658203
vt 0.19213867 0.24584961
vt 0.18811035 0.2915039
vt 0.8696289 0.8876953
vt 0.88623047 0.93896484
vt 0.90771484 0.94091797
vt 0.9003906 0.8901367
vt 0.9638672 0.13916016
vt 0.9667969 0.1895752
vt 0.98291016 0.18530273
vt 0.9838867 0.13208008
vt 0.9667969 0.1895752
vt 0.9609375 0.24951172
vt 0.97216797 0.2446289
vt 0.98291016 0.18530273
vt 0.9609375 0.24951172
vt 0.9785156 0.26953125
vt 0.9838867 0.26586914
vt 0.97216797 0.2446289
vt 0.26831055 0.9550781
vt 0.26831055 0.86279297
vt 0.24768066 0.86816406
vt 0.23840332 0.9604492
vt 0.38745117 0.828125
vt 0.3713379 0.7573242
vt 0.35498047 0.7602539
vt 0.36621094 0.8286133
vt 0.3713379 0.7573242
vt 0.34301758 0.68408203
vt 0.3310547 0.6826172
vt 0.35498047 0.7602539
vt 0.34301758 0.68408203
vt 0.35180664 0.63916016
vt 0.34594727 0.6352539
vt 0.3310547 0.6826172
vt 0.8071289 0.10736084
vt 0.80029297 0.005908966
vt 0.78466797 0.004333496
vt 0.78515625 0.10736084
vt 0.1640625 0.24584961
vt 0.16333008 0.3149414
vt 0.17553711 0.31811523
vt 0.17944336 0.24682617
vt 0.16333008 0.3149414
vt 0.15942383 0.38964844
vt 0.16809082 0.38867188
vt 0.17553711 0.31811523
vt 0.15942383 0.38964844
vt 0.1652832 0.44384766
vt 0.17004395 0.43945312
vt 0.16809082 0.38867188
vt 0.8823242 0.6113281
vt 0.88671875 0.71533203
vt 0.90722656 0.71533203
vt 0.9121094 0.6113281
vt 0.8989258 0.37451172
vt 0.89501953 0.30151367
vt 0.87890625 0.30004883
vt 0.87841797 0.37280273
vt 0.89501953 0.30151367
vt 0.8876953 0.23535156
vt 0.87597656 0.234375
vt 0.87890625 0.30004883
vt 0.8876953 0.23535156
vt 0.88916016 0.18823242
vt 0.88183594 0.18762207
vt 0.87597656 0.234375
vt 0.83691406 0.10522461
vt 0.8208008 0.0044174194
vt 0.80029297 0.005908966
vt 0.8071289 0.10736084
vt 0.14331055 0.24804688
vt 0.14709473 0.3166504
vt 0.16333008 0.3149414
vt 0.1640625 0.24584961
vt 0.14709473 0.3166504
vt 0.14758301 0.39111328
vt 0.15942383 0.38964844
vt 0.16333008 0.3149414
vt 0.14758301 0.39111328
vt 0.15783691 0.44458008
vt 0.1652832 0.44384766
vt 0.15942383 0.38964844
vt 0.796875 0.7939453
vt 0.83251953 0.86621094
vt 0.84716797 0.8510742
vt 0.81884766 0.7739258
vt 0.97314453 0.72802734
vt 0.9716797 0.7949219
vt 0.98828125 0.79589844
vt 0.99365234 0.7319336
vt 0.9716797 0.7949219
vt 0.9824219 0.86376953
vt 0.99365234 0.8671875
vt 0.98828125 0.79589844
vt 0.87597656 0.234375
vt 0.88183594 0.18762207
vt 0.8769531 0.18334961
vt 0.8671875 0.23339844
vt 0.97216797 0.0046844482
vt 0.94140625 0.004333496
vt 0.96972656 0.118896484
vt 0.97216797 0.118896484
vt 0.20410156 0.98779297
vt 0.22973633 0.98779297
vt 0.22973633 0.86279297
vt 0.22766113 0.86279297
vt 0.28686523 0.92822266
vt 0.29907227 0.9296875
vt 0.28637695 0.86279297
vt 0.2841797 0.86328125
vt 0.35546875 0.5703125
vt 0.38549805 0.5776367
vt 0.38549805 0.43920898
vt 0.38305664 0.43847656
vt 0.9472656 0.48217773
vt 0.9707031 0.4033203
vt 0.9692383 0.4020996
vt 0.9584961 0.47851562
vt 0.9526367 0.54052734
vt 0.9707031 0.52685547
vt 0.63134766 0.9394531
vt 0.6435547 0.94091797
vt 0.6323242 0.8623047
vt 0.6303711 0.86328125
vt 0.62158203 0.98876953
vt 0.6435547 0.99560547
vt 0.6435547 0.94091797
vt 0.63134766 0.9394531
vt 0.2770996 0.9814453
vt 0.29907227 0.9873047
vt 0.29907227 0.9296875
vt 0.28686523 0.92822266
vt 0.65478516 0.9560547
vt 0.67285156 0.95947266
vt 0.67285156 0.8642578
vt 0.6713867 0.86376953
vt 0.3215332 0.86279297
vt 0.3076172 0.87060547
vt 0.32055664 0.9580078
vt 0.3215332 0.95751953
vt 0.9243164 0.30004883
vt 0.90771484 0.30615234
vt 0.92285156 0.3605957
vt 0.9243164 0.36010742
vt 0.9477539 0.8388672
vt 0.9628906 0.8413086
vt 0.95751953 0.72802734
vt 0.9511719 0.73046875
vt 0.49829102 0.83447266
vt 0.5136719 0.8300781
vt 0.53271484 0.7294922
vt 0.5283203 0.72509766
vt 0.11315918 0.88720703
vt 0.12731934 0.8925781
vt 0.12780762 0.78125
vt 0.12200928 0.78271484
vt 0.099731445 0.94921875
vt 0.12780762 0.9628906
vt 0.12731934 0.8925781
vt 0.11315918 0.88720703
vt 0.5058594 0.9189453
vt 0.53271484 0.90185547
vt 0.5136719 0.8300781
vt 0.49829102 0.83447266
vt 0.93310547 0.9199219
vt 0.9628906 0.9291992
vt 0.9628906 0.8413086
vt 0.9477539 0.8388672
vt 0.29736328 0.004333496
vt 0.20410156 0.09112549
vt 0.2993164 0.071777344
vt 0.30322266 0.17578125
vt 0.20703125 0.21289062
vt 0.3972168 0.08618164
vt 0.39404297 0.21289062
vt 0.19543457 0.20629883
vt 0.089538574 0.16833496
vt 0.09503174 0.23718262
vt 0.19543457 0.09503174
vt 0.009971619 0.07977295
vt 0.004333496 0.19580078
vt 0.10913086 0.004337311
vt 0.30126953 0.28759766
vt 0.3972168 0.30737305
vt 0.3046875 0.22155762
vt 0.29736328 0.39135742
vt 0.3947754 0.42993164
vt 0.20410156 0.30273438
vt 0.20776367 0.42993164
vt 0.32226562 0.5966797
vt 0.22387695 0.60595703
vt 0.32226562 0.69921875
vt 0.20410156 0.734375
vt 0.41333008 0.5864258
vt 0.40576172 0.7163086
vt 0.53466797 0.58496094
vt 0.53466797 0.70751953
vt 0.008300781 0.24658203
vt 0.004337311 0.37573242
vt 0.13464355 0.24584961
vt 0.13464355 0.3708496
vt 0.057495117 0.45385742
vt 0.66064453 0.3059082
vt 0.75341797 0.2956543
vt 0.69921875 0.22155762
vt 0.65771484 0.38720703
vt 0.75341797 0.3762207
vt 0.68847656 0.4038086
vt 0.68408203 0.49951172
vt 0.7807617 0.4020996
vt 0.7807617 0.49267578
vt 0.72753906 0.5571289
vt 0.3466797 0.51464844
vt 0.3466797 0.43847656
vt 0.2709961 0.4465332
vt 0.27368164 0.52246094
vt 0.2775879 0.5878906
vt 0.20410156 0.5205078
vt 0.20837402 0.4387207
vt 0.54589844 0.4819336
vt 0.6098633 0.5541992
vt 0.6088867 0.41577148
vt 0.67285156 0.48120117
vt 0.67578125 0.5571289
vt 0.67578125 0.41455078
vt 0.7602539 0.011146545
vt 0.66796875 0.004333496
vt 0.6699219 0.08502197
vt 0.7602539 0.09265137
vt 0.69628906 0.16638184
vt 0.7060547 0.7236328
vt 0.75634766 0.66552734
vt 0.6567383 0.6660156
vt 0.7080078 0.6113281
vt 0.75634766 0.56689453
vt 0.65478516 0.56591797
vt 0.4897461 0.8120117
vt 0.41625977 0.80371094
vt 0.47631836 0.8725586
vt 0.4897461 0.7373047
vt 0.40576172 0.72509766
vt 0.875 0.4020996
vt 0.80908203 0.41064453
vt 0.875 0.47753906
vt 0.7890625 0.50097656
vt 0.5371094 0.46679688
vt 0.48364258 0.41455078
vt 0.40820312 0.46069336
vt 0.4555664 0.5097656
vt 0.5371094 0.55810547
vt 0.40576172 0.55322266
vt 0.46557617 0.5761719
vt 0.7714844 0.22155762
vt 0.76220703 0.29174805
vt 0.85839844 0.23522949
vt 0.85498047 0.2993164
vt 0.79052734 0.37451172
vt 0.85839844 0.3647461
vt 0.02734375 0.7729492
vt 0.11645508 0.76953125
vt 0.072021484 0.69384766
vt 0.004333496 0.7006836
vt 0.022201538 0.6352539
vt 0.11645508 0.63623047
vt 0.7680664 0.5673828
vt 0.7651367 0.65966797
vt 0.859375 0.56591797
vt 0.859375 0.6542969
vt 0.80908203 0.71972656
vt 0.2590332 0.8540039
vt 0.3059082 0.8041992
vt 0.2541504 0.8129883
vt 0.2512207 0.7578125
vt 0.3059082 0.74316406
vt 0.20410156 0.80908203
vt 0.20703125 0.7446289
vt 0.75341797 0.8408203
vt 0.69433594 0.8120117
vt 0.69970703 0.85498047
vt 0.75341797 0.77783203
vt 0.65771484 0.7680664
vt 0.65478516 0.8339844
vt 0.7128906 0.7324219
vt 0.546875 0.8647461
vt 0.5439453 0.93359375
vt 0.61279297 0.8623047
vt 0.61279297 0.92871094
vt 0.9243164 0.79248047
vt 0.8574219 0.79345703
vt 0.89990234 0.84228516
vt 0.85595703 0.72802734
vt 0.9243164 0.7285156
vt 0.93115234 0.11785889
vt 0.9326172 0.05218506
vt 0.8666992 0.11785889
vt 0.8647461 0.056671143
vt 0.90771484 0.004337311
vt 0.6459961 0.8535156
vt 0.6459961 0.7939453
vt 0.5917969 0.83935547
vt 0.59375 0.78466797
vt 0.59765625 0.74316406
vt 0.5439453 0.79003906
vt 0.546875 0.8535156
vt 0.5107422 0.32958984
vt 0.44555664 0.40576172
vt 0.5292969 0.38232422
vt 0.40576172 0.31982422
vt 0.5292969 0.22912598
vt 0.4189453 0.22155762
vt 0.5678711 0.6035156
vt 0.6459961 0.62597656
vt 0.6166992 0.56591797
vt 0.54589844 0.68603516
vt 0.6459961 0.734375
vt 0.08929443 0.54248047
vt 0.1307373 0.46557617
vt 0.02041626 0.46264648
vt 0.004337311 0.5449219
vt 0.025024414 0.6269531
vt 0.1307373 0.625
vt 0.52441406 0.016479492
vt 0.41455078 0.004337311
vt 0.40576172 0.085754395
vt 0.51123047 0.0970459
vt 0.4399414 0.18688965
vt 0.52441406 0.16967773
vt 0.6591797 0.007293701
vt 0.5546875 0.004333496
vt 0.6201172 0.09075928
vt 0.53271484 0.08691406
vt 0.5488281 0.1685791
vt 0.6591797 0.16662598
vt 0.6489258 0.22851562
vt 0.53808594 0.22155762
vt 0.6489258 0.33569336
vt 0.5419922 0.33276367
vt 0.59228516 0.38964844
vn -0.8120117 -0.5834961 0
vn -0.8120117 -0.5834961 0
vn -0.8120117 -0.5834961 0
vn -0.99853516 0 0.051727295
vn -0.99853516 0 0.051727295
vn -0.99853516 0 0.051727295
vn 0.52001953 0.6694336 -0.53027344
vn 0.52001953 0.6694336 -0.53027344
vn 0.52001953 0.6694336 -0.53027344
vn 0.6044922 -1.4543533E-05 0.796875
vn 0.6044922 -1.4543533E-05 0.796875
vn 0.6044922 -1.4543533E-05 0.796875
vn -0.52001953 -0.6694336 0.53027344
vn -0.52001953 -0.6694336 0.53027344
vn -0.52001953 -0.6694336 0.53027344
vn -0.9326172 0 0.36132812
vn -0.9326172 0 0.36132812
vn -0.9326172 0 0.36132812
vn -0.032409668 -0.04171753 -0.99853516
vn -0.032409668 -0.04171753 -0.99853516
vn -0.032409668 -0.04171753 -0.99853516
vn 0.032287598 0.04168701 0.99853516
vn 0.032287598 0.04168701 0.99853516
vn 0.032287598 0.04168701 0.99853516
vn 0.061401367 0.24316406 0.9682617
vn 0.061401367 0.24316406 0.9682617
vn 0.061401367 0.24316406 0.9682617
vn -0.059295654 -0.9926758 0.1048584
vn -0.059295654 -0.9926758 0.1048584
vn -0.059295654 -0.9926758 0.1048584
vn -0.36791992 0.7006836 -0.6113281
vn 0.3305664 0.94384766 0
vn -0.9448242 0.32763672 0
vn 0.3305664 0.94384766 0
vn -0.36791992 0.7006836 0.6113281
vn -0.9448242 0.32763672 0
vn -0.21032715 0.22351074 -0.95166016
vn -0.85791016 0.42871094 -0.2836914
vn -0.09692383 -0.671875 -0.734375
vn -0.85791016 0.42871094 -0.2836914
vn -0.8334961 -0.51904297 -0.1899414
vn -0.09692383 -0.671875 -0.734375
vn 0.8671875 0.48583984 -0.11102295
vn 0.1538086 0.921875 0.35620117
vn 0.3864746 0.2770996 -0.8798828
vn 0.1538086 0.921875 0.35620117
vn -0.2626953 0.82470703 -0.5004883
vn 0.3864746 0.2770996 -0.8798828
vn 0.46606445 0.8071289 0.3623047
vn 0.46606445 0.8071289 0.3623047
vn 0.46606445 0.8071289 0.3623047
vn 0.46606445 0.8071289 0.3623047
vn 0.9189453 0 0.3947754
vn 0.9189453 0 0.3947754
vn 0.9189453 0 0.3947754
vn 0.9189453 0 0.3947754
vn 0.46948242 -0.8129883 0.34399414
vn 0.46948242 -0.8129883 0.34399414
vn 0.46948242 -0.8129883 0.34399414
vn 0.46948242 -0.8129883 0.34399414
vn -0.48364258 -0.8378906 0.25341797
vn -0.48364258 -0.8378906 0.25341797
vn -0.48364258 -0.8378906 0.25341797
vn -0.48364258 -0.8378906 0.25341797
vn -0.46142578 -0.8598633 -0.21887207
vn -0.46142578 -0.8598633 -0.21887207
vn -0.46142578 -0.8598633 -0.21887207
vn -0.46142578 -0.8598633 -0.21887207
vn -0.9765625 0 0.21582031
vn -0.9765625 0 0.21582031
vn -0.9765625 0 0.21582031
vn -0.9765625 0 0.21582031
vn -0.48095703 0.8330078 0.2734375
vn -0.48095703 0.8330078 0.2734375
vn -0.48095703 0.8330078 0.2734375
vn -0.48095703 0.8330078 0.2734375
vn -0 0 -1
vn -0 0 -1
vn -0 0 -1
vn -0 0 -1
vn -0 0 -1
vn -0 0 -1
vn -0.66015625 0 0.75097656
vn -0.66015625 0 0.75097656
vn -0.66015625 0 0.75097656
vn -0.66015625 0 0.75097656
vn -0.66015625 0 0.75097656
vn -0.66015625 0 0.75097656
vn 0.8066406 0 0.5908203
vn 0.8066406 0 0.5908203
vn 0.8066406 0 0.5908203
vn 0.8066406 0 0.5908203
vn -0.8754883 0 -0.4831543
vn -0.8754883 0 -0.4831543
vn -0.8754883 0 -0.4831543
vn -0.8754883 0 -0.4831543
vn 0.38378906 0.86572266 0.32080078
vn 0.38378906 0.86572266 0.32080078
vn 0.38378906 0.86572266 0.32080078
vn 0.38378906 0.86572266 0.32080078
vn 0.38378906 -0.86572266 0.32080078
vn 0.38378906 -0.86572266 0.32080078
vn 0.38378906 -0.86572266 0.32080078
vn 0.38378906 -0.86572266 0.32080078
vn -0.46142578 0.8598633 -0.21887207
vn -0.46142578 0.8598633 -0.21887207
vn -0.46142578 0.8598633 -0.21887207
vn -0.46142578 0.8598633 -0.21887207
vn -0.5004883 0.86572266 0.0053710938
vn -0.5004883 0.86572266 0.0053710938
vn -0.5004883 0.86572266 0.0053710938
vn -0.5004883 0.86572266 0.0053710938
vn -0.48657227 0.8642578 0.1282959
vn -0.48657227 0.8642578 0.1282959
vn -0.48657227 0.8642578 0.1282959
vn -0.48657227 0.8642578 0.1282959
vn -0.45947266 0.8383789 0.2939453
vn -0.45947266 0.8383789 0.2939453
vn -0.45947266 0.8383789 0.2939453
vn -0.45947266 0.8383789 0.2939453
vn -0.53759766 0.84277344 0.023330688
vn -0.53759766 0.84277344 0.023330688
vn -0.53759766 0.84277344 0.023330688
vn -0.53759766 0.84277344 0.023330688
vn 0.5 -0.85839844 0.115234375
vn 0.5 -0.85839844 0.115234375
vn 0.5 -0.85839844 0.115234375
vn 0.5 -0.85839844 0.115234375
vn 0.49829102 -0.8652344 -0.056915283
vn 0.49829102 -0.8652344 -0.056915283
vn 0.49829102 -0.8652344 -0.056915283
vn 0.49829102 -0.8652344 -0.056915283
vn 0.48242188 -0.85595703 -0.18530273
vn 0.48242188 -0.85595703 -0.18530273
vn 0.48242188 -0.85595703 -0.18530273
vn 0.48242188 -0.85595703 -0.18530273
vn 0.49658203 -0.8564453 0.13952637
vn 0.49658203 -0.8564453 0.13952637
vn 0.49658203 -0.8564453 0.13952637
vn 0.49658203 -0.8564453 0.13952637
vn 0.5004883 0.859375 0.105895996
vn 0.5004883 0.859375 0.105895996
vn 0.5004883 0.859375 0.105895996
vn 0.5004883 0.859375 0.105895996
vn 0.48901367 0.8647461 -0.11431885
vn 0.48901367 0.8647461 -0.11431885
vn 0.48901367 0.8647461 -0.11431885
vn 0.48901367 0.8647461 -0.11431885
vn 0.48242188 0.85595703 -0.18530273
vn 0.48242188 0.85595703 -0.18530273
vn 0.48242188 0.85595703 -0.18530273
vn 0.48242188 0.85595703 -0.18530273
vn 0.49658203 0.8564453 0.13952637
vn 0.49658203 0.8564453 0.13952637
vn 0.49658203 0.8564453 0.13952637
vn 0.49658203 0.8564453 0.13952637
vn -0.99902344 0 -0.038970947
vn -0.99902344 0 -0.038970947
vn -0.99902344 0 -0.038970947
vn -0.99902344 0 -0.038970947
vn -0.96191406 0 0.27368164
vn -0.96191406 0 0.27368164
vn -0.96191406 0 0.27368164
vn -0.96191406 0 0.27368164
vn -0.8598633 0 0.5102539
vn -0.8598633 0 0.5102539
vn -0.8598633 0 0.5102539
vn -0.8598633 0 0.5102539
vn -1 0 -0.013092041
vn -1 0 -0.013092041
vn -1 0 -0.013092041
vn -1 0 -0.013092041
vn 0.9868164 0 0.16052246
vn 0.9868164 0 0.16052246
vn 0.9868164 0 0.16052246
vn 0.9868164 0 0.16052246
vn 0.97802734 0 -0.20739746
vn 0.97802734 0 -0.20739746
vn 0.97802734 0 -0.20739746
vn 0.97802734 0 -0.20739746
vn 0.91845703 0 -0.39526367
vn 0.91845703 0 -0.39526367
vn 0.91845703 0 -0.39526367
vn 0.91845703 0 -0.39526367
vn 0.9785156 0 0.20678711
vn 0.9785156 0 0.20678711
vn 0.9785156 0 0.20678711
vn 0.9785156 0 0.20678711
vn -0.5 -0.86572266 0.014831543
vn -0.5 -0.86572266 0.014831543
vn -0.5 -0.86572266 0.014831543
vn -0.5 -0.86572266 0.014831543
vn -0.47558594 -0.86035156 0.18347168
vn -0.47558594 -0.86035156 0.18347168
vn -0.47558594 -0.86035156 0.18347168
vn -0.47558594 -0.86035156 0.18347168
vn -0.45947266 -0.8383789 0.2939453
vn -0.45947266 -0.8383789 0.2939453
vn -0.45947266 -0.8383789 0.2939453
vn -0.45947266 -0.8383789 0.2939453
vn -0.53759766 -0.84277344 0.023330688
vn -0.53759766 -0.84277344 0.023330688
vn -0.53759766 -0.84277344 0.023330688
vn -0.53759766 -0.84277344 0.023330688
vn -0.57421875 0.06335449 -0.81640625
vn -0.57421875 0.06335449 -0.81640625
vn -0.57421875 0.06335449 -0.81640625
vn -0.57421875 0.06335449 -0.81640625
vn 0.7548828 -0.65478516 0.03366089
vn 0.7548828 -0.65478516 0.03366089
vn 0.7548828 -0.65478516 0.03366089
vn 0.7548828 -0.65478516 0.03366089
vn 0.3918457 0.4543457 -0.7998047
vn 0.3918457 0.4543457 -0.7998047
vn 0.3918457 0.4543457 -0.7998047
vn 0.3918457 0.4543457 -0.7998047
vn -0.2607422 0.44360352 0.8574219
vn -0.2607422 0.44360352 0.8574219
vn -0.2607422 0.44360352 0.8574219
vn -0.2607422 0.44360352 0.8574219
vn 0.038513184 -0.99902344 0.0036754608
vn 0.038513184 -0.99902344 0.0036754608
vn 0.038513184 -0.99902344 0.0036754608
vn 0.038513184 -0.99902344 0.0036754608
vn 0.0546875 -0.99853516 -0.014129639
vn 0.0546875 -0.99853516 -0.014129639
vn -0.32788086 0.46362305 0.8232422
vn -0.32788086 0.46362305 0.8232422
vn -0.32788086 0.46362305 0.8232422
vn -0.32788086 0.46362305 0.8232422
vn 0.02810669 0.48608398 0.87353516
vn 0.02810669 0.48608398 0.87353516
vn 0.02810669 0.48608398 0.87353516
vn 0.02810669 0.48608398 0.87353516
vn 0.06719971 0.47485352 -0.8774414
vn 0.06719971 0.47485352 -0.8774414
vn 0.06719971 0.47485352 -0.8774414
vn 0.06719971 0.47485352 -0.8774414
vn -0.92041016 -0.37817383 -0.1003418
vn -0.92041016 -0.37817383 -0.1003418
vn -0.92041016 -0.37817383 -0.1003418
vn -0.92041016 -0.37817383 -0.1003418
vn 0.79052734 -0.61035156 0.052856445
vn 0.79052734 -0.61035156 0.052856445
vn 0.79052734 -0.61035156 0.052856445
vn 0.79052734 -0.61035156 0.052856445
vn 0.13952637 0.96972656 0.20092773
vn 0.13952637 0.96972656 0.20092773
vn 0.13952637 0.96972656 0.20092773
vn 0.13952637 0.96972656 0.20092773
vn -0.4333496 0.6098633 -0.66308594
vn -0.4333496 0.6098633 -0.66308594
vn -0.4333496 0.6098633 -0.66308594
vn -0.4333496 0.6098633 -0.66308594
vn 0.99853516 -0.054473877 0.0037822723
vn 0.99853516 -0.054473877 0.0037822723
vn 0.99853516 -0.054473877 0.0037822723
vn 0.99853516 -0.054473877 0.0037822723
vn -0.46557617 -0.52001953 0.7163086
vn -0.46557617 -0.52001953 0.7163086
vn -0.46557617 -0.52001953 0.7163086
vn -0.46557617 -0.52001953 0.7163086
vn -0.48046875 -0.18322754 0.8574219
vn -0.48046875 -0.18322754 0.8574219
vn -0.48046875 -0.18322754 0.8574219
vn -0.48046875 -0.18322754 0.8574219
vn 1 -0.0063476562 -0.011756897
vn 1 -0.0063476562 -0.011756897
vn 1 -0.0063476562 -0.011756897
vn 1 -0.0063476562 -0.011756897
vn -0.4699707 0.33935547 -0.8149414
vn -0.4699707 0.33935547 -0.8149414
vn -0.4699707 0.33935547 -0.8149414
vn -0.4699707 0.33935547 -0.8149414
vn 0.35791016 -0.7011719 -0.61621094
vn 0.6977539 0.35668945 -0.62109375
vn -0.01033783 -0.0007214546 -1
vn -0.36791992 0.7006836 -0.6113281
vn 0.3305664 0.94384766 0
vn -0.70458984 -0.36889648 -0.6064453
vn -0.9448242 0.32763672 0
vn -0.70458984 -0.36889648 -0.6064453
vn 0.35791016 -0.7011719 -0.61621094
vn -0.01033783 -0.0007214546 -1
vn -0.32617188 -0.9453125 0
vn 0.94433594 -0.3293457 0
vn 0.6977539 0.35668945 -0.62109375
vn 0.35791016 -0.7011719 0.61621094
vn -0.01033783 -0.0007214546 1
vn 0.6977539 0.35668945 0.62109375
vn 0.35791016 -0.7011719 0.61621094
vn -0.36791992 0.7006836 0.6113281
vn 0.3305664 0.94384766 0
vn -0.70458984 -0.36889648 0.6064453
vn -0.9448242 0.32763672 0
vn -0.01033783 -0.0007214546 1
vn 0.35791016 -0.7011719 0.61621094
vn -0.70458984 -0.36889648 0.6064453
vn -0.32617188 -0.9453125 0
vn -0.70458984 -0.36889648 -0.6064453
vn -0.9448242 0.32763672 0
vn -0.32617188 -0.9453125 0
vn -0.70458984 -0.36889648 0.6064453
vn 0.6977539 0.35668945 -0.62109375
vn 0.94433594 -0.3293457 0
vn 0.3305664 0.94384766 0
vn 0.6977539 0.35668945 0.62109375
vn 0.35791016 -0.7011719 0.61621094
vn -0.39990234 -0.5185547 0.7558594
vn 0.30859375 -0.90478516 0.2932129
vn -0.4309082 -0.8457031 -0.3149414
vn 0.02885437 0.31567383 0.9482422
vn 0.7807617 -0.16540527 0.60253906
vn -0.4309082 -0.8457031 -0.3149414
vn 0.30859375 -0.90478516 0.2932129
vn -0.029403687 -0.31420898 -0.94873047
vn 0.73095703 -0.49829102 -0.4658203
vn 0.7807617 -0.16540527 0.60253906
vn -0.4309082 -0.8457031 -0.3149414
vn -0.029403687 -0.31420898 -0.94873047
vn -0.7709961 0.18139648 -0.61035156
vn -0.95214844 -0.28344727 0.113342285
vn -0.39990234 -0.5185547 0.7558594
vn -0.73779297 0.49731445 0.4567871
vn -0.3083496 0.90625 -0.28881836
vn -0.7709961 0.18139648 -0.61035156
vn -0.029403687 -0.31420898 -0.94873047
vn -0.3083496 0.90625 -0.28881836
vn 0.3815918 0.5258789 -0.7602539
vn 0.73095703 -0.49829102 -0.4658203
vn 0.4345703 0.84765625 0.30444336
vn -0.3083496 0.90625 -0.28881836
vn 0.4345703 0.84765625 0.30444336
vn 0.02885437 0.31567383 0.9482422
vn -0.73779297 0.49731445 0.4567871
vn -0.39990234 -0.5185547 0.7558594
vn 0.02885437 0.31567383 0.9482422
vn 0.4345703 0.84765625 0.30444336
vn 0.7807617 -0.16540527 0.60253906
vn 0.94921875 0.2849121 -0.13378906
vn 0.3815918 0.5258789 -0.7602539
vn 0.73095703 -0.49829102 -0.4658203
vn -0.5078125 -0.5942383 0.62353516
vn 0.119506836 -0.9819336 0.14550781
vn -0.8334961 -0.51904297 -0.1899414
vn 0.21069336 -0.21252441 0.95410156
vn 0.8574219 -0.43188477 0.28027344
vn -0.5078125 -0.5942383 0.62353516
vn -0.8334961 -0.51904297 -0.1899414
vn -0.75146484 0.25024414 0.61083984
vn -0.85791016 0.42871094 -0.2836914
vn 0.8574219 -0.43188477 0.28027344
vn 0.21069336 -0.21252441 0.95410156
vn 0.095336914 0.67285156 0.7338867
vn 0.8286133 0.5234375 0.19885254
vn 0.7470703 -0.23400879 -0.6220703
vn -0.1385498 0.98046875 -0.13867188
vn 0.5029297 0.61035156 -0.6123047
vn -0.1385498 0.98046875 -0.13867188
vn 0.095336914 0.67285156 0.7338867
vn -0.85791016 0.42871094 -0.2836914
vn -0.75146484 0.25024414 0.61083984
vn 0.21069336 -0.21252441 0.95410156
vn -0.5078125 -0.5942383 0.62353516
vn -0.1385498 0.98046875 -0.13867188
vn -0.85791016 0.42871094 -0.2836914
vn -0.21032715 0.22351074 -0.95166016
vn 0.5029297 0.61035156 -0.6123047
vn 0.7470703 -0.23400879 -0.6220703
vn -0.09692383 -0.671875 -0.734375
vn 0.7470703 -0.23400879 -0.6220703
vn -0.09692383 -0.671875 -0.734375
vn 0.8574219 -0.43188477 0.28027344
vn 0.119506836 -0.9819336 0.14550781
vn -0.8334961 -0.51904297 -0.1899414
vn -0.4338379 0.5317383 -0.72753906
vn -0.8154297 0.4855957 0.31518555
vn -0.9350586 -0.082092285 -0.34521484
vn -0.71435547 -0.6298828 0.3046875
vn -0.3413086 -0.015083313 0.9399414
vn -0.32983398 -0.57666016 -0.7475586
vn 0.074523926 -0.9970703 0.007701874
vn -0.32983398 -0.57666016 -0.7475586
vn -0.4338379 0.5317383 -0.72753906
vn -0.9350586 -0.082092285 -0.34521484
vn 0.34106445 0.019866943 -0.9399414
vn -0.073913574 0.9970703 -0.009391785
vn -0.8154297 0.4855957 0.31518555
vn 0.7211914 0.62109375 -0.30639648
vn -0.71435547 -0.6298828 0.3046875
vn -0.3413086 -0.015083313 0.9399414
vn 0.074523926 -0.9970703 0.007701874
vn 0.4309082 -0.5410156 0.72216797
vn -0.3413086 -0.015083313 0.9399414
vn 0.3486328 0.5756836 0.7397461
vn 0.4309082 -0.5410156 0.72216797
vn -0.073913574 0.9970703 -0.009391785
vn -0.8154297 0.4855957 0.31518555
vn -0.32983398 -0.57666016 -0.7475586
vn 0.074523926 -0.9970703 0.007701874
vn 0.34106445 0.019866943 -0.9399414
vn 0.80615234 -0.4885254 -0.33325195
vn 0.4309082 -0.5410156 0.72216797
vn 0.34106445 0.019866943 -0.9399414
vn 0.80615234 -0.4885254 -0.33325195
vn 0.7211914 0.62109375 -0.30639648
vn 0.93896484 0.06323242 0.33789062
vn 0.4309082 -0.5410156 0.72216797
vn 0.3486328 0.5756836 0.7397461
vn -0.073913574 0.9970703 -0.009391785
vn 0.24353027 -0.82666016 0.5073242
vn 0.43774414 0.20593262 0.875
vn 0.90625 -0.28295898 0.31396484
vn -0.3857422 -0.27246094 0.88134766
vn -0.15454102 -0.9223633 -0.35473633
vn -0.859375 -0.49560547 0.12695312
vn -0.91259766 0.2631836 -0.31347656
vn -0.2626953 0.82470703 -0.5004883
vn -0.68359375 0.54248047 0.4885254
vn -0.43579102 -0.21691895 -0.87353516
vn 0.3864746 0.2770996 -0.8798828
vn 0.8671875 0.48583984 -0.11102295
vn 0.3864746 0.2770996 -0.8798828
vn 0.67578125 -0.55078125 -0.49023438
vn 0.90625 -0.28295898 0.31396484
vn 0.43774414 0.20593262 0.875
vn 0.1538086 0.921875 0.35620117
vn 0.3864746 0.2770996 -0.8798828
vn -0.43579102 -0.21691895 -0.87353516
vn -0.15454102 -0.9223633 -0.35473633
vn 0.67578125 -0.55078125 -0.49023438
vn 0.24353027 -0.82666016 0.5073242
vn 0.90625 -0.28295898 0.31396484
vn -0.15454102 -0.9223633 -0.35473633
vn -0.43579102 -0.21691895 -0.87353516
vn -0.859375 -0.49560547 0.12695312
vn -0.91259766 0.2631836 -0.31347656
vn -0.68359375 0.54248047 0.4885254
vn -0.3857422 -0.27246094 0.88134766
vn 0.43774414 0.20593262 0.875
vn -0.3857422 -0.27246094 0.88134766
vn 0.1538086 0.921875 0.35620117
vn -0.68359375 0.54248047 0.4885254
vn -0.2626953 0.82470703 -0.5004883
g Tree0_0
f 3/3/3 2/2/2 1/1/1
f 6/6/6 5/5/5 4/4/4
f 9/9/9 8/8/8 7/7/7
f 12/12/12 11/11/11 10/10/10
f 15/15/15 14/14/14 13/13/13
f 18/18/18 17/17/17 16/16/16
f 21/21/21 20/20/20 19/19/19
f 24/24/24 23/23/23 22/22/22
f 27/27/27 26/26/26 25/25/25
f 30/30/30 29/29/29 28/28/28
f 33/33/33 32/32/32 31/31/31
f 36/36/36 35/35/35 34/34/34
f 39/39/39 38/38/38 37/37/37
f 42/42/42 41/41/41 40/40/40
f 45/45/45 44/44/44 43/43/43
f 48/48/48 47/47/47 46/46/46
f 51/51/51 50/50/50 49/49/49
f 52/52/52 51/51/51 49/49/49
f 55/55/55 54/54/54 53/53/53
f 56/56/56 55/55/55 53/53/53
f 59/59/59 58/58/58 57/57/57
f 60/60/60 59/59/59 57/57/57
f 63/63/63 62/62/62 61/61/61
f 64/64/64 63/63/63 61/61/61
f 67/67/67 66/66/66 65/65/65
f 68/68/68 67/67/67 65/65/65
f 71/71/71 70/70/70 69/69/69
f 72/72/72 71/71/71 69/69/69
f 75/75/75 74/74/74 73/73/73
f 76/76/76 75/75/75 73/73/73
f 79/79/79 78/78/78 77/77/77
f 77/77/77 80/80/80 79/79/79
f 80/80/80 81/81/81 79/79/79
f 80/80/80 82/82/82 81/81/81
f 85/85/85 84/84/84 83/83/83
f 83/83/83 86/86/86 85/85/85
f 83/83/83 87/87/87 86/86/86
f 87/87/87 88/88/88 86/86/86
f 91/91/91 90/90/90 89/89/89
f 92/92/92 91/91/91 89/89/89
f 95/95/95 94/94/94 93/93/93
f 96/96/96 95/95/95 93/93/93
f 99/99/99 98/98/98 97/97/97
f 100/100/100 99/99/99 97/97/97
f 103/103/103 102/102/102 101/101/101
f 104/104/104 103/103/103 101/101/101
f 107/107/107 106/106/106 105/105/105
f 108/108/108 107/107/107 105/105/105
f 111/111/111 110/110/110 109/109/109
f 112/112/112 111/111/111 109/109/109
f 115/115/115 114/114/114 113/113/113
f 116/116/116 115/115/115 113/113/113
f 119/119/119 118/118/118 117/117/117
f 120/120/120 119/119/119 117/117/117
f 123/123/123 122/122/122 121/121/121
f 124/124/124 123/123/123 121/121/121
f 127/127/127 126/126/126 125/125/125
f 128/128/128 127/127/127 125/125/125
f 131/131/131 130/130/130 129/129/129
f 132/132/132 131/131/131 129/129/129
f 135/135/135 134/134/134 133/133/133
f 136/136/136 135/135/135 133/133/133
f 139/139/139 138/138/138 137/137/137
f 140/140/140 139/139/139 137/137/137
f 143/143/143 142/142/142 141/141/141
f 144/144/144 143/143/143 141/141/141
f 147/147/147 146/146/146 145/145/145
f 148/148/148 147/147/147 145/145/145
f 151/151/151 150/150/150 149/149/149
f 152/152/152 151/151/151 149/149/149
f 155/155/155 154/154/154 153/153/153
f 156/156/156 155/155/155 153/153/153
f 159/159/159 158/158/158 157/157/157
f 160/160/160 159/159/159 157/157/157
f 163/163/163 162/162/162 161/161/161
f 164/164/164 163/163/163 161/161/161
f 167/167/167 166/166/166 165/165/165
f 168/168/168 167/167/167 165/165/165
f 171/171/171 170/170/170 169/169/169
f 172/172/172 171/171/171 169/169/169
f 175/175/175 174/174/174 173/173/173
f 176/176/176 175/175/175 173/173/173
f 179/179/179 178/178/178 177/177/177
f 180/180/180 179/179/179 177/177/177
f 183/183/183 182/182/182 181/181/181
f 184/184/184 183/183/183 181/181/181
f 187/187/187 186/186/186 185/185/185
f 188/188/188 187/187/187 185/185/185
f 191/191/191 190/190/190 189/189/189
f 192/192/192 191/191/191 189/189/189
f 195/195/195 194/194/194 193/193/193
f 196/196/196 195/195/195 193/193/193
f 199/199/199 198/198/198 197/197/197
f 200/200/200 199/199/199 197/197/197
f 203/203/203 202/202/202 201/201/201
f 204/204/204 203/203/203 201/201/201
f 207/207/207 206/206/206 205/205/205
f 208/208/208 207/207/207 205/205/205
f 211/211/211 210/210/210 209/209/209
f 212/212/212 211/211/211 209/209/209
f 215/215/215 214/214/214 213/213/213
f 216/216/216 215/215/215 213/213/213
f 219/219/219 218/218/218 217/217/217
f 220/220/220 219/219/219 217/217/217
f 223/223/223 222/222/222 221/221/221
f 222/222/222 224/224/224 221/221/221
f 221/221/221 224/224/224 225/225/225
f 224/224/224 226/226/226 225/225/225
f 229/229/229 228/228/228 227/227/227
f 230/230/230 229/229/229 227/227/227
f 233/233/233 232/232/232 231/231/231
f 234/234/234 233/233/233 231/231/231
f 237/237/237 236/236/236 235/235/235
f 238/238/238 237/237/237 235/235/235
f 241/241/241 240/240/240 239/239/239
f 242/242/242 241/241/241 239/239/239
f 245/245/245 244/244/244 243/243/243
f 246/246/246 245/245/245 243/243/243
f 249/249/249 248/248/248 247/247/247
f 250/250/250 249/249/249 247/247/247
f 253/253/253 252/252/252 251/251/251
f 254/254/254 253/253/253 251/251/251
f 257/257/257 256/256/256 255/255/255
f 258/258/258 257/257/257 255/255/255
f 261/261/261 260/260/260 259/259/259
f 262/262/262 261/261/261 259/259/259
f 265/265/265 264/264/264 263/263/263
f 266/266/266 265/265/265 263/263/263
f 269/269/269 268/268/268 267/267/267
f 270/270/270 269/269/269 267/267/267
f 273/273/273 272/272/272 271/271/271
f 274/274/274 273/273/273 271/271/271
f 277/277/277 276/276/276 275/275/275
f 278/278/278 276/276/276 277/277/277
f 278/278/278 279/279/279 276/276/276
f 280/280/280 278/278/278 277/277/277
f 280/280/280 281/281/281 278/278/278
f 284/284/284 283/283/283 282/282/282
f 283/283/283 285/285/285 282/282/282
f 286/286/286 285/285/285 283/283/283
f 287/287/287 286/286/286 283/283/283
f 286/286/286 288/288/288 285/285/285
f 291/291/291 290/290/290 289/289/289
f 292/292/292 289/289/289 290/290/290
f 292/292/292 290/290/290 293/293/293
f 294/294/294 289/289/289 292/292/292
f 294/294/294 292/292/292 295/295/295
f 298/298/298 297/297/297 296/296/296
f 297/297/297 298/298/298 299/299/299
f 302/302/302 301/301/301 300/300/300
f 302/302/302 303/303/303 301/301/301
f 306/306/306 305/305/305 304/304/304
f 306/306/306 307/307/307 305/305/305
f 307/307/307 308/308/308 305/305/305
f 311/311/311 310/310/310 309/309/309
f 310/310/310 312/312/312 309/309/309
f 310/310/310 313/313/313 312/312/312
f 316/316/316 315/315/315 314/314/314
f 316/316/316 317/317/317 315/315/315
f 317/317/317 318/318/318 315/315/315
f 321/321/321 320/320/320 319/319/319
f 321/321/321 319/319/319 322/322/322
f 319/319/319 323/323/323 322/322/322
f 322/322/322 323/323/323 324/324/324
f 322/322/322 324/324/324 321/321/321
f 324/324/324 325/325/325 321/321/321
f 328/328/328 327/327/327 326/326/326
f 328/328/328 329/329/329 327/327/327
f 329/329/329 330/330/330 327/327/327
f 331/331/331 329/329/329 328/328/328
f 334/334/334 333/333/333 332/332/332
f 334/334/334 332/332/332 335/335/335
f 336/336/336 334/334/334 335/335/335
f 339/339/339 338/338/338 337/337/337
f 338/338/338 339/339/339 340/340/340
f 341/341/341 338/338/338 340/340/340
f 342/342/342 340/340/340 339/339/339
f 341/341/341 340/340/340 342/342/342
f 345/345/345 344/344/344 343/343/343
f 346/346/346 343/343/343 344/344/344
f 346/346/346 344/344/344 347/347/347
f 350/350/350 349/349/349 348/348/348
f 349/349/349 350/350/350 351/351/351
f 354/354/354 353/353/353 352/352/352
f 354/354/354 352/352/352 355/355/355
f 355/355/355 352/352/352 356/356/356
f 357/357/357 354/354/354 355/355/355
f 355/355/355 356/356/356 358/358/358
f 357/357/357 355/355/355 358/358/358
f 361/361/361 360/360/360 359/359/359
f 361/361/361 362/362/362 360/360/360
f 362/362/362 363/363/363 360/360/360
f 362/362/362 364/364/364 363/363/363
f 367/367/367 366/366/366 365/365/365
f 368/368/368 367/367/367 365/365/365
f 368/368/368 369/369/369 367/367/367
f 369/369/369 370/370/370 367/367/367
f 373/373/373 372/372/372 371/371/371
f 373/373/373 374/374/374 372/372/372
f 374/374/374 375/375/375 372/372/372
f 378/378/378 377/377/377 376/376/376
f 379/379/379 377/377/377 378/378/378
f 379/379/379 380/380/380 377/377/377
f 381/381/381 379/379/379 378/378/378
f 381/381/381 382/382/382 379/379/379
f 385/385/385 384/384/384 383/383/383
f 384/384/384 386/386/386 383/383/383
f 387/387/387 386/386/386 384/384/384
f 388/388/388 387/387/387 384/384/384
f 387/387/387 389/389/389 386/386/386
f 392/392/392 391/391/391 390/390/390
f 392/392/392 393/393/393 391/391/391
f 396/396/396 395/395/395 394/394/394
f 394/394/394 395/395/395 397/397/397
f 394/394/394 397/397/397 398/398/398
f 401/401/401 400/400/400 399/399/399
f 401/401/401 402/402/402 400/400/400
f 402/402/402 403/403/403 400/400/400
f 406/406/406 405/405/405 404/404/404
f 405/405/405 406/406/406 407/407/407
f 405/405/405 407/407/407 408/408/408
f 408/408/408 407/407/407 409/409/409
f 406/406/406 409/409/409 407/407/407
f 409/409/409 406/406/406 410/410/410
f 413/413/413 412/412/412 411/411/411
f 412/412/412 414/414/414 411/411/411
f 414/414/414 415/415/415 411/411/411
f 414/414/414 416/416/416 415/415/415
f 419/419/419 418/418/418 417/417/417
f 420/420/420 417/417/417 418/418/418
f 420/420/420 418/418/418 421/421/421
f 424/424/424 423/423/423 422/422/422
f 424/424/424 422/422/422 425/425/425
f 425/425/425 422/422/422 426/426/426
f 422/422/422 427/427/427 426/426/426
f 430/430/430 429/429/429 428/428/428
f 430/430/430 428/428/428 431/431/431
f 432/432/432 430/430/430 431/431/431
f 432/432/432 431/431/431 433/433/433
f 436/436/436 435/435/435 434/434/434
f 436/436/436 437/437/437 435/435/435
f 436/436/436 438/438/438 437/437/437
f 438/438/438 436/436/436 439/439/439
f 442/442/442 441/441/441 440/440/440
f 442/442/442 443/443/443 441/441/441
f 444/444/444 443/443/443 442/442/442
