g Tree1
v 0.2700722 0.13371018 3.5343919
v 0.2700722 0.13371018 3.5343916
v -0.08820018 0.34093758 3.512703
v 0.2700722 -0.28074455 3.5343916
v 0.2700722 0.13371018 3.5343916
v 0.2700722 0.13371018 3.5343919
v 1.160692 0.41188237 7.172041
v 1.348192 0.14269175 7.0156045
v 1.4702761 0.29488006 7.322242
v 3.7736804 0.33935377 8.172105
v 3.745301 0.33935377 8.194994
v 3.7594912 0.37092853 8.18355
v 0.40334487 -1.9241735 8.407724
v 0.38801944 -1.9432769 8.369233
v 0.3644836 -1.9094864 8.388871
v 1.5969111 0.5698677 7.683979
v 1.6709938 0.23988417 7.859501
v 1.5228285 0.23988411 7.5084567
v -1.3601305 -0.10914755 6.842141
v -1.2664462 -0.3988749 6.769608
v -1.1343826 -0.15202901 6.6295886
v -0.31736678 -0.43509132 8.033262
v -0.3280273 -0.45501667 8.044564
v -0.3355886 -0.43162987 8.05042
v 0.68842065 2.628783 6.789693
v 0.68147224 2.5348108 6.813745
v 0.60459673 2.5863461 6.805673
v 0.20302883 0.170109 5.3956704
v 0.6124485 0.16939232 5.620367
v 0.6025643 0.12068483 5.153655
v 0.5372947 0.30735183 5.69762
v 0.39654168 -0.15367621 5.471705
v 0.67804754 -0.15367627 5.923535
v -3.0381505 -1.4582455 10.079478
v -3.1440797 -1.4582455 10.085856
v -3.091115 -1.3663421 10.082667
v -0 1 -0.14957148
v 0.86602545 0.49999997 -0.14957148
v 0.5152796 0.28200492 0.9031782
v 0.002524823 0.57804406 0.9031782
v 0.86602545 0.49999997 -0.14957148
v 0.8660254 -0.50000006 -0.14957148
v 0.5152796 -0.31007323 0.9031782
v 0.5152796 0.28200492 0.9031782
v 0.8660254 -0.50000006 -0.14957148
v -8.742278E-08 -1 -0.14957148
v 0.0025247708 -0.60611224 0.9031782
v 0.5152796 -0.31007323 0.9031782
v -8.742278E-08 -1 -0.14957148
v -0.86602545 -0.4999999 -0.14957148
v -0.5102299 -0.31007314 0.9031782
v 0.0025247708 -0.60611224 0.9031782
v 1.8704717 0.378972 8.529565
v 2.4125547 0.53491795 9.755115
v 2.4630666 0.5046376 9.749013
v 1.9952431 0.3026051 8.50698
v -0.86602545 -0.4999999 -0.14957148
v -0.86602545 0.4999999 -0.14957148
v -0.5102299 0.2820049 0.9031782
v -0.5102299 -0.31007314 0.9031782
v -0.86602545 0.4999999 -0.14957148
v -0 1 -0.14957148
v 0.002524823 0.57804406 0.9031782
v -0.5102299 0.2820049 0.9031782
v 0.8660254 -0.50000006 -0.14957148
v 0.86602545 0.49999997 -0.14957148
v -0 1 -0.14957148
v -8.742278E-08 -1 -0.14957148
v -0.86602545 0.4999999 -0.14957148
v -0.86602545 -0.4999999 -0.14957148
v 2.4630666 0.6225675 9.738297
v 2.5135787 0.5922872 9.732196
v 2.5135787 0.5333223 9.737554
v 2.4630666 0.5046376 9.749013
v 2.4125547 0.59388286 9.749757
v 2.4125547 0.53491795 9.755115
v 2.1200135 0.37365052 8.471
v 2.5135787 0.5333223 9.737554
v 2.5135787 0.5922872 9.732196
v 2.120014 0.5210628 8.457605
v 1.8704717 0.5263842 8.5161705
v 2.4125547 0.59388286 9.749757
v 2.4125547 0.53491795 9.755115
v 1.8704717 0.378972 8.529565
v 2.120014 0.5210628 8.457605
v 2.5135787 0.5922872 9.732196
v 2.4630666 0.6225675 9.738297
v 1.9952431 0.5974297 8.480191
v 1.9952431 0.3026051 8.50698
v 2.4630666 0.5046376 9.749013
v 2.5135787 0.5333223 9.737554
v 2.1200135 0.37365052 8.471
v 1.9952431 0.5974297 8.480191
v 2.4630666 0.6225675 9.738297
v 2.4125547 0.59388286 9.749757
v 1.8704717 0.5263842 8.5161705
v 0.002524823 0.57804406 0.9031782
v -0.08820018 0.34093758 3.512703
v -0.44647262 0.13371016 3.4910142
v -0.5102299 0.2820049 0.9031782
v -0.08820018 0.34093758 3.512703
v 0.47381118 0.3958136 5.504999
v 0.20057058 0.23299208 5.5747995
v -0.44647262 0.13371016 3.4910142
v 0.47381118 0.3958136 5.504999
v 1.2703989 0.5590627 7.0463867
v 1.0658253 0.4406471 7.0316744
v 0.20057058 0.23299208 5.5747995
v 1.2703989 0.5590627 7.0463867
v 1.9952431 0.5974297 8.480191
v 1.8704717 0.5263842 8.5161705
v 1.0658253 0.4406471 7.0316744
v 0.0025247708 -0.60611224 0.9031782
v -0.08820021 -0.48797187 3.512703
v 0.2700722 -0.28074455 3.5343916
v 0.5152796 -0.31007323 0.9031782
v -0.08820021 -0.48797187 3.512703
v 0.7470518 -0.09265089 5.435199
v 0.2700722 -0.28074455 3.5343916
v 0.47381112 -0.2554724 5.504999
v 1.4749728 0.20381583 7.061098
v 1.2703989 0.08540021 7.0463867
v 1.2703989 0.08540021 7.0463867
v 1.9952431 0.3026051 8.50698
v 2.1200135 0.37365052 8.471
v 1.4749728 0.20381583 7.061098
v 0.5152796 0.28200492 0.9031782
v 0.2700722 0.13371018 3.5343919
v -0.08820018 0.34093758 3.512703
v 0.002524823 0.57804406 0.9031782
v 0.2700722 0.13371018 3.5343916
v 0.74705184 0.2329921 5.435199
v 0.47381118 0.3958136 5.504999
v -0.08820018 0.34093758 3.512703
v 0.74705184 0.2329921 5.435199
v 1.4749726 0.4406471 7.0610986
v 1.2703989 0.5590627 7.0463867
v 0.47381118 0.3958136 5.504999
v 1.4749726 0.4406471 7.0610986
v 2.120014 0.5210628 8.457605
v 1.9952431 0.5974297 8.480191
v 1.2703989 0.5590627 7.0463867
v -0.5102299 0.2820049 0.9031782
v -0.44647262 0.13371016 3.4910142
v -0.44647262 -0.2807445 3.4910142
v -0.5102299 -0.31007314 0.9031782
v -0.44647262 0.13371016 3.4910142
v 0.20057058 0.23299208 5.5747995
v 0.20057058 -0.09265083 5.5747995
v -0.44647262 -0.2807445 3.4910142
v 0.20057058 0.23299208 5.5747995
v 1.0658253 0.20381588 7.0316744
v 0.20057058 -0.09265083 5.5747995
v 1.0658253 0.4406471 7.0316744
v 1.8704717 0.378972 8.529565
v 1.8704717 0.5263842 8.5161705
v 0.5152796 -0.31007323 0.9031782
v 0.2700722 -0.28074455 3.5343916
v 0.2700722 0.13371018 3.5343919
v 0.5152796 0.28200492 0.9031782
v 0.2700722 -0.28074455 3.5343916
v 0.7470518 -0.09265089 5.435199
v 0.74705184 0.2329921 5.435199
v 0.2700722 0.13371018 3.5343916
v 0.7470518 -0.09265089 5.435199
v 1.4749726 0.4406471 7.0610986
v 0.74705184 0.2329921 5.435199
v 1.4749728 0.20381583 7.061098
v 2.120014 0.5210628 8.457605
v 2.1200135 0.37365052 8.471
v -0.5102299 -0.31007314 0.9031782
v -0.44647262 -0.2807445 3.4910142
v -0.08820021 -0.48797187 3.512703
v 0.0025247708 -0.60611224 0.9031782
v -0.44647262 -0.2807445 3.4910142
v 0.20057058 -0.09265083 5.5747995
v 0.47381112 -0.2554724 5.504999
v -0.08820021 -0.48797187 3.512703
v 0.20057058 -0.09265083 5.5747995
v 1.0658253 0.20381588 7.0316744
v 1.2703989 0.08540021 7.0463867
v 0.47381112 -0.2554724 5.504999
v 1.0658253 0.20381588 7.0316744
v 1.8704717 0.378972 8.529565
v 1.9952431 0.3026051 8.50698
v 1.2703989 0.08540021 7.0463867
v 1.348192 0.14269175 7.0156045
v 1.160692 0.41188237 7.172041
v 0.3644836 -1.9094864 8.388871
v 0.38801944 -1.9432769 8.369233
v 1.4702761 0.29488006 7.322242
v 1.348192 0.14269175 7.0156045
v 0.38801944 -1.9432769 8.369233
v 0.40334487 -1.9241735 8.407724
v 2.526278 0.46875194 7.6789613
v 2.5195704 0.290442 7.576233
v 3.7736804 0.33935377 8.172105
v 3.7594912 0.37092853 8.18355
v 1.160692 0.41188237 7.172041
v 1.4702761 0.29488006 7.322242
v 0.40334487 -1.9241735 8.407724
v 0.3644836 -1.9094864 8.388871
v 2.5195704 0.290442 7.576233
v 2.5329847 0.29044202 7.7816896
v 3.745301 0.33935377 8.194994
v 3.7736804 0.33935377 8.172105
v 2.5329847 0.29044202 7.7816896
v 2.526278 0.46875194 7.6789613
v 3.7594912 0.37092853 8.18355
v 3.745301 0.33935377 8.194994
v 1.6709938 0.23988417 7.859501
v 1.5969111 0.5698677 7.683979
v 2.526278 0.46875194 7.6789613
v 2.5329847 0.29044202 7.7816896
v 1.5228285 0.23988411 7.5084567
v 1.6709938 0.23988417 7.859501
v 2.5329847 0.29044202 7.7816896
v 2.5195704 0.290442 7.576233
v 1.5969111 0.5698677 7.683979
v 1.5228285 0.23988411 7.5084567
v 2.5195704 0.290442 7.576233
v 2.526278 0.46875194 7.6789613
v -1.2664462 -0.3988749 6.769608
v -1.3601305 -0.10914755 6.842141
v -0.3355886 -0.43162987 8.05042
v -0.3280273 -0.45501667 8.044564
v -1.1343826 -0.15202901 6.6295886
v -1.2664462 -0.3988749 6.769608
v -0.3280273 -0.45501667 8.044564
v -0.31736678 -0.43509132 8.033262
v -1.3601305 -0.10914755 6.842141
v -1.1343826 -0.15202901 6.6295886
v -0.31736678 -0.43509132 8.033262
v -0.3355886 -0.43162987 8.05042
v 0.41898724 1.3140727 5.7565856
v 0.6199803 1.3260852 5.636553
v 0.68842065 2.628783 6.789693
v 0.60459673 2.5863461 6.805673
v 0.6199803 1.3260852 5.636553
v 0.6182868 1.2792169 5.8653555
v 0.68147224 2.5348108 6.813745
v 0.68842065 2.628783 6.789693
v 0.6182868 1.2792169 5.8653555
v 0.41898724 1.3140727 5.7565856
v 0.60459673 2.5863461 6.805673
v 0.68147224 2.5348108 6.813745
v 0.6124485 0.16939232 5.620367
v 0.20302883 0.170109 5.3956704
v 0.41898724 1.3140727 5.7565856
v 0.6182868 1.2792169 5.8653555
v 0.6025643 0.12068483 5.153655
v 0.6124485 0.16939232 5.620367
v 0.6182868 1.2792169 5.8653555
v 0.6199803 1.3260852 5.636553
v 0.20302883 0.170109 5.3956704
v 0.6025643 0.12068483 5.153655
v 0.6199803 1.3260852 5.636553
v 0.41898724 1.3140727 5.7565856
v 3.5175264 -1.4698893 8.809023
v 4.3030434 1.0078939 8.7895565
v 2.662561 0.16608226 8.080765
v 1.7867649 1.8152386 8.827726
v 1.0162868 -0.72174674 8.8472805
v 3.5067065 2.5670965 10.496239
v 1.0162868 -0.72174674 8.8472805
v 3.5175264 -1.4698893 8.809023
v 2.662561 0.16608226 8.080765
v 1.8184154 -2.2349322 10.496239
v 2.662561 0.16608226 12.911709
v 4.303043 1.0078948 12.202919
v 3.5175273 -1.4698889 12.183453
v 1.7867639 1.8152385 12.164749
v 3.5067065 2.5670965 10.496239
v 1.0162871 -0.72174793 12.145195
v 2.662561 0.16608226 12.911709
v 3.5175273 -1.4698889 12.183453
v 1.0162871 -0.72174793 12.145195
v 1.8184154 -2.2349322 10.496239
v -0.7178476 -0.15367621 5.9070225
v -1.7894667 -0.5353933 7.052609
v -1.4657432 -0.53539336 7.1632037
v -0.43634164 -0.15367627 6.3588524
v 0.5372947 0.30735183 5.69762
v 0.67804754 -0.15367627 5.923535
v -0.43634164 -0.15367627 6.3588524
v -0.57709455 0.30735183 6.1329374
v -1.4657432 -0.53539336 7.1632037
v -3.0381505 -1.4582455 10.079478
v -3.091115 -1.3663421 10.082667
v -1.6276048 -0.23913147 7.1079063
v 0.67804754 -0.15367627 5.923535
v 0.39654168 -0.15367621 5.471705
v -0.7178476 -0.15367621 5.9070225
v -0.43634164 -0.15367627 6.3588524
v -0.57709455 0.30735183 6.1329374
v -1.6276048 -0.23913147 7.1079063
v -1.7894667 -0.5353933 7.052609
v -0.7178476 -0.15367621 5.9070225
v -0.43634164 -0.15367627 6.3588524
v -1.4657432 -0.53539336 7.1632037
v -1.6276048 -0.23913147 7.1079063
v -0.57709455 0.30735183 6.1329374
v 0.39654168 -0.15367621 5.471705
v 0.5372947 0.30735183 5.69762
v -0.57709455 0.30735183 6.1329374
v -0.7178476 -0.15367621 5.9070225
v -1.7894667 -0.5353933 7.052609
v -3.1440797 -1.4582455 10.085856
v -3.0381505 -1.4582455 10.079478
v -1.4657432 -0.53539336 7.1632037
v -1.6276048 -0.23913147 7.1079063
v -3.091115 -1.3663421 10.082667
v -3.1440797 -1.4582455 10.085856
v -1.7894667 -0.5353933 7.052609
v -4.561189 2.9802308 11.817112
v -4.0054555 2.9108615 8.829058
v -1.5022594 3.290077 10.657055
v -5.9038196 0.15376395 11.799427
v -5.391743 0.20774877 8.712887
v -1.5022594 3.290077 10.657055
v -4.0054555 2.9108615 8.829058
v -0.04847765 0.94108444 9.529615
v -2.3142369 0.57960105 7.6222568
v -5.391743 0.20774877 8.712887
v -1.3699995 -1.8821092 9.601492
v -1.5022594 3.290077 10.657055
v -0.04847765 0.94108444 9.529615
v -0.5675366 0.79660296 12.600725
v -1.946842 -1.8160138 12.499987
v -1.3699995 -1.8821092 9.601492
v -0.5675366 0.79660296 12.600725
v -1.946842 -1.8160138 12.499987
v -3.608108 0.539292 13.709097
v -2.388405 2.5093772 12.861233
v -1.5022594 3.290077 10.657055
v -4.561189 2.9802308 11.817112
v -5.9038196 0.15376395 11.799427
v -3.608108 0.539292 13.709097
v -1.946842 -1.8160138 12.499987
v -5.9038196 0.15376395 11.799427
v -4.4291897 -2.2015674 10.64028
v -1.3699995 -1.8821092 9.601492
v -5.9038196 0.15376395 11.799427
v -4.4291897 -2.2015674 10.64028
v -5.391743 0.20774877 8.712887
v -3.5638912 -1.4145265 8.4678135
v -1.3699995 -1.8821092 9.601492
v -2.3142369 0.57960105 7.6222568
v -0.26078913 -1.0225898 9.63727
v -0.7808141 -1.0164169 7.952211
v 0.40471146 -0.72555447 8.505345
v -1.513387 -1.9732629 9.16171
v -0.47759187 -2.3246393 6.9785314
v -1.2339852 -3.2824097 8.101911
v 1.398223 -1.412797 9.154385
v -0.26078913 -1.0225898 9.63727
v 0.40471146 -0.72555447 8.505345
v 0.64563936 -2.3335402 10.244032
v -1.513387 -1.9732629 9.16171
v -0.70879185 -3.262737 9.785262
v -0.47759187 -2.3246393 6.9785314
v -1.2339852 -3.2824097 8.101911
v 0.44517946 -3.6265206 7.575729
v -0.23666328 -3.9326224 8.7172165
v 0.960379 -3.6021504 9.299023
v -0.47759187 -2.3246393 6.9785314
v 0.44517946 -3.6265206 7.575729
v 1.6814345 -2.6849146 8.060852
v 0.8882148 -1.4112065 7.429376
v -0.7808141 -1.0164169 7.952211
v 0.40471146 -0.72555447 8.505345
v 1.398223 -1.412797 9.154385
v 0.8882148 -1.4112065 7.429376
v 1.6814345 -2.6849146 8.060852
v 1.398223 -1.412797 9.154385
v 0.64563936 -2.3335402 10.244032
v 0.960379 -3.6021504 9.299023
v 0.44517946 -3.6265206 7.575729
v 0.64563936 -2.3335402 10.244032
v 0.960379 -3.6021504 9.299023
v -0.70879185 -3.262737 9.785262
v -0.23666328 -3.9326224 8.7172165
v -1.2339852 -3.2824097 8.101911
v -1.513387 -1.9732629 9.16171
v -1.9866945 -1.5701813 9.6263685
v -2.0492122 0.7003355 8.849834
v -1.5637342 0.0036445856 10.464364
v -1.8147198 -1.1324413 7.4401526
v -0.17484085 1.689095 8.07067
v -0.21297966 1.273336 10.352031
v 0.0599574 -0.027991235 6.623435
v -0.17150758 -1.0494314 11.1256075
v -1.9866945 -1.5701813 9.6263685
v -1.5637342 0.0036445856 10.464364
v 0.032490626 -2.7126105 9.707026
v 1.4213823 -1.0271583 7.3133335
v 0.0599574 -0.027991235 6.623435
v 0.09841789 -2.2901998 7.425363
v 1.8490196 0.5612979 8.1754265
v -0.17484085 1.689095 8.07067
v 1.4213823 -1.0271583 7.3133335
v 0.09841789 -2.2901998 7.425363
v 1.8663269 -1.7531258 8.97451
v 1.8490196 0.5612979 8.1754265
v 1.6723682 0.108926356 10.3375435
v 0.032490626 -2.7126105 9.707026
v -0.17150758 -1.0494314 11.1256075
v -0.17484085 1.689095 8.07067
v 1.8490196 0.5612979 8.1754265
v 1.6723682 0.108926356 10.3375435
v -0.21297966 1.273336 10.352031
v -0.17150758 -1.0494314 11.1256075
v -1.5637342 0.0036445856 10.464364
v -2.0492122 0.7003355 8.849834
v -1.9866945 -1.5701813 9.6263685
v 0.032490626 -2.7126105 9.707026
v -1.8147198 -1.1324413 7.4401526
v 0.09841789 -2.2901998 7.425363
v 1.8663269 -1.7531258 8.97451
v 0.0599574 -0.027991235 6.623435
v 4.8494 -1.1603492 9.061846
v 4.432226 0.22731346 9.29133
v 5.210488 -0.19848043 8.616045
v 5.2301083 -0.84208477 7.6742706
v 4.3882527 -1.8585637 7.916127
v 4.8093085 0.5775119 7.891284
v 2.7058766 -0.8284722 7.741928
v 2.6625621 -0.21781507 8.673714
v 3.099921 -1.6004004 8.451274
v 3.0792243 0.14233828 7.2874784
v 3.5281093 0.83160985 8.441844
v 3.5202992 -1.2721589 7.0775423
v 2.7058766 -0.8284722 7.741928
v 3.099921 -1.6004004 8.451274
v 3.5202992 -1.2721589 7.0775423
v 4.3882527 -1.8585637 7.916127
v 4.8494 -1.1603492 9.061846
v 4.3882527 -1.8585637 7.916127
v 3.5876887 -0.8928175 9.513958
v 3.099921 -1.6004004 8.451274
v 2.6625621 -0.21781507 8.673714
v 4.8494 -1.1603492 9.061846
v 3.5876887 -0.8928175 9.513958
v 4.432226 0.22731346 9.29133
v 3.5281093 0.83160985 8.441844
v 2.6625621 -0.21781507 8.673714
v 4.8093085 0.5775119 7.891284
v 5.210488 -0.19848043 8.616045
v 2.214487 1.5357883 7.4839396
v 0.5432973 1.4324179 8.847967
v 1.904396 2.3487835 8.884309
v 0.41629007 0.91933376 6.824945
v -0.9742613 2.7759707 8.71223
v -1.1858902 2.2612042 6.758574
v 2.5465755 3.6184435 7.9920745
v 2.214487 1.5357883 7.4839396
v 1.904396 2.3487835 8.884309
v 2.3357277 3.0945847 6.099259
v -0.54292774 3.5217705 5.9271827
v -1.1858902 2.2612042 6.758574
v 0.5050235 2.3551207 5.4183774
v 0.41629007 0.91933376 6.824945
v 2.3357277 3.0945847 6.099259
v 2.214487 1.5357883 7.4839396
v -0.54292774 3.5217705 5.9271827
v 0.5050235 2.3551207 5.4183774
v 0.87587595 4.419199 5.973348
v 2.3357277 3.0945847 6.099259
v 0.94517756 4.95122 7.986544
v 2.5465755 3.6184435 7.9920745
v -0.9742613 2.7759707 8.71223
v -1.1858902 2.2612042 6.758574
v -0.84464216 4.3489113 7.34732
v -0.54292774 3.5217705 5.9271827
v 0.87587595 4.419199 5.973348
v 0.94517756 4.95122 7.986544
v -0.9742613 2.7759707 8.71223
v -0.84464216 4.3489113 7.34732
v 0.94517756 4.95122 7.986544
v 0.84586906 3.5386581 9.389984
v 0.5432973 1.4324179 8.847967
v 2.5465755 3.6184435 7.9920745
v 1.904396 2.3487835 8.884309
v 4.3286743 -0.13413581 6.8440146
v 3.0792243 0.14233828 7.2874784
v 3.5202992 -1.2721589 7.0775423
v 3.5281093 0.83160985 8.441844
v 4.3882527 -1.8585637 7.916127
v 4.8093085 0.5775119 7.891284
v 5.2301083 -0.84208477 7.6742706
v 5.0635753 -0.6780632 10.496239
v 3.5175273 -1.4698889 12.183453
v 4.303043 1.0078948 12.202919
v 1.8184154 -2.2349322 10.496239
v 3.5067065 2.5670965 10.496239
v 3.5175264 -1.4698893 8.809023
v 4.3030434 1.0078939 8.7895565
v 0.26154667 1.0102272 10.496239
v 1.7867639 1.8152385 12.164749
v 1.0162871 -0.72174793 12.145195
v 3.5067065 2.5670965 10.496239
v 1.8184154 -2.2349322 10.496239
v 1.7867649 1.8152386 8.827726
v 1.0162868 -0.72174674 8.8472805
vt 0.3540039 0.44384766
vt 0.3540039 0.44384766
vt 0.3540039 0.46166992
vt 0.3540039 0.47021484
vt 0.3540039 0.4873047
vt 0.3540039 0.4873047
vt 0.62158203 0.17236328
vt 0.61035156 0.18164062
vt 0.62158203 0.18762207
vt 0.90234375 0.11016846
vt 0.90185547 0.11138916
vt 0.9033203 0.11090088
vt 0.4440918 0.20117188
vt 0.44580078 0.20214844
vt 0.44580078 0.20031738
vt 0.6015625 0.18615723
vt 0.6015625 0.17236328
vt 0.5883789 0.17626953
vt 0.5883789 0.2010498
vt 0.59765625 0.20825195
vt 0.59765625 0.19482422
vt 0.87353516 0.40112305
vt 0.8725586 0.40161133
vt 0.87353516 0.40185547
vt 0.43188477 0.20227051
vt 0.43554688 0.20422363
vt 0.43554688 0.20031738
vt 0.9941406 0.111694336
vt 0.97558594 0.105041504
vt 0.98046875 0.1227417
vt 0.57373047 0.17236328
vt 0.5620117 0.19165039
vt 0.5800781 0.19165039
vt 0.20300293 0.23046875
vt 0.20019531 0.22680664
vt 0.19885254 0.23083496
vt 0.9248047 0.1015625
vt 0.9667969 0.095947266
vt 0.9609375 0.06311035
vt 0.93603516 0.06640625
vt 0.11785889 0.8046875
vt 0.16015625 0.8046875
vt 0.15405273 0.7578125
vt 0.12902832 0.7578125
vt 0.16015625 0.8046875
vt 0.18847656 0.80029297
vt 0.17077637 0.7553711
vt 0.15405273 0.7578125
vt 0.1583252 0.6035156
vt 0.20117188 0.6035156
vt 0.1928711 0.5571289
vt 0.16748047 0.5571289
vt 0.49975586 0.8588867
vt 0.50146484 0.91552734
vt 0.50439453 0.9160156
vt 0.5058594 0.8598633
vt 0.9375 0.21826172
vt 0.89746094 0.22497559
vt 0.90527344 0.26513672
vt 0.9291992 0.26123047
vt 0.8964844 0.07122803
vt 0.9248047 0.1015625
vt 0.93603516 0.06640625
vt 0.9194336 0.048461914
vt 0.8540039 0.3630371
vt 0.81689453 0.34472656
vt 0.77978516 0.36621094
vt 0.8540039 0.40283203
vt 0.77978516 0.40600586
vt 0.81689453 0.4243164
vt 0.42114258 0.20031738
vt 0.4189453 0.20129395
vt 0.4189453 0.20373535
vt 0.42114258 0.20495605
vt 0.42333984 0.20153809
vt 0.42333984 0.20397949
vt 0.88134766 0.6923828
vt 0.8808594 0.63916016
vt 0.87841797 0.6386719
vt 0.8754883 0.69189453
vt 0.3491211 0.72021484
vt 0.34960938 0.671875
vt 0.3474121 0.6723633
vt 0.34326172 0.7216797
vt 0.109191895 0.81884766
vt 0.10852051 0.78271484
vt 0.10626221 0.7836914
vt 0.103637695 0.82177734
vt 0.8857422 0.69140625
vt 0.8823242 0.6386719
vt 0.8808594 0.63916016
vt 0.88134766 0.6923828
vt 0.35424805 0.7216797
vt 0.3515625 0.6723633
vt 0.34960938 0.671875
vt 0.3491211 0.72021484
vt 0.88623047 0.26342773
vt 0.90771484 0.37182617
vt 0.92089844 0.3720703
vt 0.90527344 0.26513672
vt 0.35424805 0.91796875
vt 0.34814453 0.8383789
vt 0.3371582 0.8354492
vt 0.3408203 0.9189453
vt 0.34814453 0.8383789
vt 0.35375977 0.77734375
vt 0.3461914 0.7783203
vt 0.3371582 0.8354492
vt 0.35375977 0.77734375
vt 0.35424805 0.7216797
vt 0.3491211 0.72021484
vt 0.3461914 0.7783203
vt 0.17077637 0.7553711
vt 0.1640625 0.6430664
vt 0.15234375 0.64404297
vt 0.15405273 0.7578125
vt 0.9008789 0.90185547
vt 0.8911133 0.8203125
vt 0.88916016 0.9003906
vt 0.9008789 0.8178711
vt 0.88427734 0.75146484
vt 0.890625 0.7524414
vt 0.890625 0.7524414
vt 0.8857422 0.69140625
vt 0.88134766 0.6923828
vt 0.88427734 0.75146484
vt 0.9609375 0.06311035
vt 0.9667969 0.0043029785
vt 0.94921875 0.0070495605
vt 0.93603516 0.06640625
vt 0.109191895 0.97216797
vt 0.10614014 0.9223633
vt 0.09399414 0.92822266
vt 0.094055176 0.9819336
vt 0.10614014 0.9223633
vt 0.10559082 0.86621094
vt 0.09698486 0.87158203
vt 0.09399414 0.92822266
vt 0.10559082 0.86621094
vt 0.109191895 0.81884766
vt 0.103637695 0.82177734
vt 0.09698486 0.87158203
vt 0.90527344 0.26513672
vt 0.92089844 0.3720703
vt 0.9375 0.36938477
vt 0.9291992 0.26123047
vt 0.3408203 0.9189453
vt 0.3371582 0.8354492
vt 0.32421875 0.8388672
vt 0.3244629 0.92333984
vt 0.3371582 0.8354492
vt 0.33666992 0.7807617
vt 0.32421875 0.8388672
vt 0.3461914 0.7783203
vt 0.34326172 0.7216797
vt 0.3491211 0.72021484
vt 0.15405273 0.7578125
vt 0.15234375 0.64404297
vt 0.1348877 0.64404297
vt 0.12902832 0.7578125
vt 0.88916016 0.9003906
vt 0.8911133 0.8203125
vt 0.8774414 0.8173828
vt 0.87158203 0.89697266
vt 0.8911133 0.8203125
vt 0.87402344 0.7495117
vt 0.8774414 0.8173828
vt 0.88427734 0.75146484
vt 0.8754883 0.69189453
vt 0.88134766 0.6923828
vt 0.1928711 0.5571289
vt 0.19567871 0.45996094
vt 0.17797852 0.45898438
vt 0.16748047 0.5571289
vt 0.48901367 0.6245117
vt 0.48461914 0.7138672
vt 0.49853516 0.71484375
vt 0.5058594 0.62939453
vt 0.48461914 0.7138672
vt 0.4921875 0.7871094
vt 0.5019531 0.79003906
vt 0.49853516 0.71484375
vt 0.4921875 0.7871094
vt 0.49975586 0.8588867
vt 0.5058594 0.8598633
vt 0.5019531 0.79003906
vt 0.9819336 0.73828125
vt 0.99365234 0.7421875
vt 0.99365234 0.6245117
vt 0.9921875 0.62402344
vt 0.97998047 0.3317871
vt 0.9946289 0.3317871
vt 0.99121094 0.21826172
vt 0.9892578 0.21826172
vt 0.52246094 0.95214844
vt 0.53125 0.9536133
vt 0.5258789 0.89453125
vt 0.52441406 0.89501953
vt 0.99316406 0.86035156
vt 0.9785156 0.86376953
vt 0.99121094 0.9790039
vt 0.99316406 0.9785156
vt 0.65966797 0.77783203
vt 0.6538086 0.78271484
vt 0.6586914 0.8364258
vt 0.65966797 0.83691406
vt 0.9033203 0.16333008
vt 0.9121094 0.16442871
vt 0.9033203 0.11090088
vt 0.90185547 0.11138916
vt 0.8964844 0.20007324
vt 0.9121094 0.20471191
vt 0.9121094 0.16442871
vt 0.9033203 0.16333008
vt 0.8833008 0.5620117
vt 0.87060547 0.5654297
vt 0.8754883 0.60009766
vt 0.8833008 0.6010742
vt 0.515625 0.99072266
vt 0.53125 0.99560547
vt 0.53125 0.9536133
vt 0.52246094 0.95214844
vt 0.85058594 0.6279297
vt 0.8618164 0.6279297
vt 0.85839844 0.5620117
vt 0.8574219 0.5620117
vt 0.87353516 0.34472656
vt 0.86279297 0.35205078
vt 0.8725586 0.40161133
vt 0.87353516 0.40112305
vt 0.87402344 0.13500977
vt 0.86572266 0.14099121
vt 0.87353516 0.19140625
vt 0.87402344 0.19091797
vt 0.97558594 0.50146484
vt 0.9682617 0.50097656
vt 0.984375 0.57373047
vt 0.9868164 0.5722656
vt 0.45458984 0.8574219
vt 0.46411133 0.8544922
vt 0.47583008 0.78808594
vt 0.47314453 0.78466797
vt 0.9848633 0.06939697
vt 0.9941406 0.07183838
vt 0.9892578 0.0043029785
vt 0.98535156 0.005508423
vt 0.97558594 0.105041504
vt 0.9941406 0.111694336
vt 0.9941406 0.07183838
vt 0.9848633 0.06939697
vt 0.45898438 0.91259766
vt 0.47583008 0.9013672
vt 0.46411133 0.8544922
vt 0.45458984 0.8574219
vt 0.9868164 0.45043945
vt 0.9736328 0.44604492
vt 0.9682617 0.50097656
vt 0.97558594 0.50146484
vt 0.7807617 0.6298828
vt 0.7807617 0.5253906
vt 0.7192383 0.5839844
vt 0.6694336 0.5161133
vt 0.67089844 0.6230469
vt 0.74365234 0.44604492
vt 0.61376953 0.8076172
vt 0.5317383 0.88378906
vt 0.61376953 0.88623047
vt 0.515625 0.77783203
vt 0.7114258 0.36254883
vt 0.65771484 0.296875
vt 0.6591797 0.39672852
vt 0.7714844 0.30029297
vt 0.7182617 0.21826172
vt 0.7714844 0.4020996
vt 0.8876953 0.44604492
vt 0.80615234 0.44750977
vt 0.8876953 0.5239258
vt 0.7895508 0.55322266
vt 0.9555664 0.21826172
vt 0.94628906 0.28710938
vt 0.9584961 0.28320312
vt 0.9711914 0.22680664
vt 0.18188477 0.45043945
vt 0.20300293 0.44140625
vt 0.17932129 0.39819336
vt 0.1583252 0.40722656
vt 0.17492676 0.34375
vt 0.20300293 0.23046875
vt 0.19885254 0.23083496
vt 0.1607666 0.3461914
vt 0.8051758 0.18737793
vt 0.8256836 0.17907715
vt 0.8256836 0.13500977
vt 0.8051758 0.14331055
vt 0.64501953 0.9902344
vt 0.63671875 0.9296875
vt 0.62353516 0.9243164
vt 0.6220703 0.98828125
vt 0.17932129 0.39819336
vt 0.17492676 0.34375
vt 0.1607666 0.3461914
vt 0.1583252 0.40722656
vt 0.83447266 0.17626953
vt 0.8569336 0.18017578
vt 0.8569336 0.13891602
vt 0.83447266 0.13500977
vt 0.94628906 0.28710938
vt 0.96777344 0.43310547
vt 0.9711914 0.43041992
vt 0.9584961 0.28320312
vt 0.63671875 0.9296875
vt 0.64501953 0.78027344
vt 0.6411133 0.77783203
vt 0.62353516 0.9243164
vt 0.42236328 0.057922363
vt 0.55322266 0.05392456
vt 0.49682617 0.0043029785
vt 0.4189453 0.19165039
vt 0.55322266 0.18322754
vt 0.31420898 0.0043029785
vt 0.21435547 0.08654785
vt 0.40722656 0.086120605
vt 0.31567383 0.1652832
vt 0.21154785 0.20959473
vt 0.41015625 0.20959473
vt 0.5722656 0.21826172
vt 0.515625 0.30541992
vt 0.64941406 0.3154297
vt 0.64941406 0.4375
vt 0.52246094 0.43579102
vt 0.0043029785 0.10461426
vt 0.009727478 0.21826172
vt 0.10681152 0.19396973
vt 0.10321045 0.088012695
vt 0.101135254 0.0043029785
vt 0.20300293 0.09667969
vt 0.20239258 0.21826172
vt 0.21594238 0.4494629
vt 0.21154785 0.5810547
vt 0.34521484 0.44384766
vt 0.34521484 0.5698242
vt 0.27954102 0.66308594
vt 0.05569458 0.22680664
vt 0.0070381165 0.31420898
vt 0.14428711 0.30908203
vt 0.08239746 0.38867188
vt 0.0043029785 0.44995117
vt 0.14428711 0.44628906
vt 0.39160156 0.78466797
vt 0.43945312 0.83154297
vt 0.44580078 0.80078125
vt 0.36645508 0.8359375
vt 0.44580078 0.89941406
vt 0.37524414 0.9067383
vt 0.8310547 0.0043029785
vt 0.87841797 0.05935669
vt 0.8876953 0.015281677
vt 0.8051758 0.064697266
vt 0.8876953 0.11779785
vt 0.8173828 0.12634277
vt 0.95947266 0.44604492
vt 0.8959961 0.4736328
vt 0.95947266 0.5175781
vt 0.90234375 0.5307617
vt 0.9223633 0.56640625
vt 0.10925293 0.69384766
vt 0.06378174 0.6430664
vt 0.0066490173 0.68359375
vt 0.04724121 0.7319336
vt 0.10925293 0.7602539
vt 0.05340576 0.7739258
vt 0.0043029785 0.7495117
vt 0.77978516 0.33618164
vt 0.828125 0.31713867
vt 0.78027344 0.2644043
vt 0.8286133 0.21826172
vt 0.87646484 0.2644043
vt 0.8774414 0.33618164
vt 0.85791016 0.7939453
vt 0.7910156 0.7919922
vt 0.83496094 0.8491211
vt 0.77783203 0.84716797
vt 0.7866211 0.9003906
vt 0.85791016 0.8989258
vt 0.1463623 0.6142578
vt 0.0619812 0.56933594
vt 0.070129395 0.6347656
vt 0.1463623 0.52001953
vt 0.007572174 0.5102539
vt 0.0043029785 0.6074219
vt 0.08758545 0.4584961
vt 0.30078125 0.82714844
vt 0.23010254 0.90234375
vt 0.29736328 0.90234375
vt 0.21154785 0.8041992
vt 0.7285156 0.055603027
vt 0.7963867 0.08734131
vt 0.7763672 0.0043029785
vt 0.70703125 0.13220215
vt 0.7963867 0.17614746
vt 0.4272461 0.44604492
vt 0.36645508 0.46948242
vt 0.41577148 0.5185547
vt 0.50390625 0.4663086
vt 0.50390625 0.56152344
vt 0.36938477 0.56884766
vt 0.4501953 0.61572266
vt 0.5678711 0.12084961
vt 0.6567383 0.16381836
vt 0.69873047 0.119628906
vt 0.61376953 0.08081055
vt 0.69873047 0.020004272
vt 0.6201172 0.0043029785
vt 0.5620117 0.02407837
vt 0.5805664 0.60253906
vt 0.6611328 0.54296875
vt 0.5205078 0.5341797
vt 0.5961914 0.47583008
vt 0.6611328 0.45922852
vt 0.515625 0.44604492
vt 0.97314453 0.69873047
vt 0.97314453 0.64208984
vt 0.94384766 0.66064453
vt 0.91015625 0.69628906
vt 0.9345703 0.7421875
vt 0.9091797 0.6386719
vt 0.94140625 0.8339844
vt 0.9091797 0.79833984
vt 0.91015625 0.8515625
vt 0.9736328 0.7973633
vt 0.9394531 0.7504883
vt 0.9736328 0.8520508
vt 0.8417969 0.5620117
vt 0.7939453 0.5683594
vt 0.8417969 0.60791016
vt 0.7895508 0.62939453
vt 0.96972656 0.8666992
vt 0.9091797 0.86035156
vt 0.96972656 0.921875
vt 0.9116211 0.91748047
vt 0.9345703 0.96435547
vt 0.75927734 0.87939453
vt 0.75927734 0.82421875
vt 0.7109375 0.8588867
vt 0.671875 0.8198242
vt 0.71777344 0.7841797
vt 0.6694336 0.8754883
vt 0.7133789 0.8935547
vt 0.40673828 0.6245117
vt 0.4519043 0.6801758
vt 0.47607422 0.6376953
vt 0.36645508 0.6928711
vt 0.47607422 0.7607422
vt 0.39282227 0.7763672
vt 0.19799805 0.8388672
vt 0.12866211 0.9013672
vt 0.19799805 0.91015625
vt 0.11785889 0.81347656
vt 0.7788086 0.7753906
vt 0.8408203 0.7836914
vt 0.77978516 0.7133789
vt 0.86328125 0.6982422
vt 0.77783203 0.6542969
vt 0.86328125 0.6386719
vt 0.76904297 0.64941406
vt 0.70166016 0.6386719
vt 0.75439453 0.71533203
vt 0.6694336 0.72265625
vt 0.76904297 0.7661133
vt 0.6796875 0.7753906
vt 0.21154785 0.79589844
vt 0.296875 0.79589844
vt 0.24511719 0.71728516
vt 0.31567383 0.72753906
vt 0.30737305 0.671875
vt 0.21862793 0.6738281
vt 0.52001953 0.72265625
vt 0.5942383 0.76904297
vt 0.64746094 0.71435547
vt 0.5786133 0.6699219
vt 0.515625 0.6376953
vt 0.64746094 0.6274414
vt 0.5776367 0.61083984
vt 0.04598999 0.8442383
vt 0.08538818 0.8754883
vt 0.08538818 0.81103516
vt 0.0435791 0.90625
vt 0.044647217 0.78271484
vt 0.0043029785 0.875
vt 0.005252838 0.8105469
vt 0.29101562 0.31152344
vt 0.21325684 0.26342773
vt 0.21154785 0.37475586
vt 0.27929688 0.21826172
vt 0.2783203 0.43530273
vt 0.35766602 0.26635742
vt 0.35766602 0.37768555
vt 0.44799805 0.33032227
vt 0.50683594 0.38452148
vt 0.50683594 0.27026367
vt 0.42333984 0.4375
vt 0.42700195 0.21826172
vt 0.36645508 0.3828125
vt 0.36791992 0.2685547
vn -0.8120117 -0.5834961 0
vn -0.8120117 -0.5834961 0
vn -0.8120117 -0.5834961 0
vn -1 0 0
vn -1 0 0
vn -1 0 0
vn 0.5136719 0.6694336 -0.5366211
vn 0.5136719 0.6694336 -0.5366211
vn 0.5136719 0.6694336 -0.5366211
vn 0.6279297 -1.9431114E-05 0.7783203
vn 0.6279297 -1.9431114E-05 0.7783203
vn 0.6279297 -1.9431114E-05 0.7783203
vn -0.5136719 -0.6694336 0.5366211
vn -0.5136719 -0.6694336 0.5366211
vn -0.5136719 -0.6694336 0.5366211
vn -0.9213867 0 0.38891602
vn -0.9213867 0 0.38891602
vn -0.9213867 0 0.38891602
vn -0.68896484 -0.04171753 -0.7236328
vn -0.68896484 -0.04171753 -0.7236328
vn -0.68896484 -0.04171753 -0.7236328
vn 0.68896484 0.041656494 0.7236328
vn 0.68896484 0.041656494 0.7236328
vn 0.68896484 0.041656494 0.7236328
vn 0.061431885 0.24316406 0.9682617
vn 0.061431885 0.24316406 0.9682617
vn 0.061431885 0.24316406 0.9682617
vn -0.059295654 -0.9926758 0.1048584
vn -0.059295654 -0.9926758 0.1048584
vn -0.059295654 -0.9926758 0.1048584
vn 0.8486328 0 -0.5288086
vn 0.8486328 0 -0.5288086
vn 0.8486328 0 -0.5288086
vn 0.06008911 0 0.9980469
vn 0.06008911 0 0.9980469
vn 0.06008911 0 0.9980469
vn 0.4724121 0.8183594 0.3269043
vn 0.4724121 0.8183594 0.3269043
vn 0.4724121 0.8183594 0.3269043
vn 0.4724121 0.8183594 0.3269043
vn 0.94873047 0 0.3161621
vn 0.94873047 0 0.3161621
vn 0.94873047 0 0.3161621
vn 0.94873047 0 0.3161621
vn 0.47583008 -0.82421875 0.3071289
vn 0.47583008 -0.82421875 0.3071289
vn 0.47583008 -0.82421875 0.3071289
vn 0.47583008 -0.82421875 0.3071289
vn -0.47558594 -0.82373047 0.30932617
vn -0.47558594 -0.82373047 0.30932617
vn -0.47558594 -0.82373047 0.30932617
vn -0.47558594 -0.82373047 0.30932617
vn -0.4572754 -0.83447266 0.30810547
vn -0.4572754 -0.83447266 0.30810547
vn -0.4572754 -0.83447266 0.30810547
vn -0.4572754 -0.83447266 0.30810547
vn -0.9472656 0 0.32006836
vn -0.9472656 0 0.32006836
vn -0.9472656 0 0.32006836
vn -0.9472656 0 0.32006836
vn -0.47216797 0.8178711 0.32885742
vn -0.47216797 0.8178711 0.32885742
vn -0.47216797 0.8178711 0.32885742
vn -0.47216797 0.8178711 0.32885742
vn -0 0 -1
vn -0 0 -1
vn -0 0 -1
vn -0 0 -1
vn -0 0 -1
vn -0 0 -1
vn 0.17199707 0.08917236 0.98095703
vn 0.17199707 0.08917236 0.98095703
vn 0.17199707 0.08917236 0.98095703
vn 0.17199707 0.08917236 0.98095703
vn 0.17199707 0.08917236 0.98095703
vn 0.17199707 0.08917236 0.98095703
vn 0.9555664 -0.026672363 -0.29345703
vn 0.9555664 -0.026672363 -0.29345703
vn 0.9555664 -0.026672363 -0.29345703
vn 0.9555664 -0.026672363 -0.29345703
vn -0.91552734 0.036376953 0.40039062
vn -0.91552734 0.036376953 0.40039062
vn -0.91552734 0.036376953 0.40039062
vn -0.91552734 0.036376953 0.40039062
vn 0.48583984 0.8515625 -0.19763184
vn 0.48583984 0.8515625 -0.19763184
vn 0.48583984 0.8515625 -0.19763184
vn 0.48583984 0.8515625 -0.19763184
vn 0.48583984 -0.8730469 -0.040893555
vn 0.48583984 -0.8730469 -0.040893555
vn 0.48583984 -0.8730469 -0.040893555
vn 0.48583984 -0.8730469 -0.040893555
vn -0.4572754 0.87597656 0.15270996
vn -0.4572754 0.87597656 0.15270996
vn -0.4572754 0.87597656 0.15270996
vn -0.4572754 0.87597656 0.15270996
vn -0.5004883 0.86376953 0.061431885
vn -0.5004883 0.86376953 0.061431885
vn -0.5004883 0.86376953 0.061431885
vn -0.5004883 0.86376953 0.061431885
vn -0.4958496 0.86083984 0.11450195
vn -0.4958496 0.86083984 0.11450195
vn -0.4958496 0.86083984 0.11450195
vn -0.4958496 0.86083984 0.11450195
vn -0.48632812 0.85839844 0.16345215
vn -0.48632812 0.85839844 0.16345215
vn -0.48632812 0.85839844 0.16345215
vn -0.48632812 0.85839844 0.16345215
vn -0.47680664 0.85253906 0.21362305
vn -0.47680664 0.85253906 0.21362305
vn -0.47680664 0.85253906 0.21362305
vn -0.47680664 0.85253906 0.21362305
vn 0.49853516 -0.8652344 0.05630493
vn 0.49853516 -0.8652344 0.05630493
vn 0.49853516 -0.8652344 0.05630493
vn 0.49853516 -0.8652344 0.05630493
vn 0.5029297 -0.86328125 -0.040924072
vn 0.5029297 -0.86328125 -0.040924072
vn 0.5029297 -0.86328125 -0.040924072
vn 0.5029297 -0.86328125 -0.040924072
vn 0.5004883 -0.86328125 -0.06713867
vn 0.5004883 -0.86328125 -0.06713867
vn 0.48950195 -0.8642578 -0.117126465
vn 0.48950195 -0.8642578 -0.117126465
vn 0.48950195 -0.8642578 -0.117126465
vn 0.48950195 -0.8642578 -0.117126465
vn 0.4963379 0.86279297 0.09527588
vn 0.4963379 0.86279297 0.09527588
vn 0.4963379 0.86279297 0.09527588
vn 0.4963379 0.86279297 0.09527588
vn 0.4892578 0.8564453 -0.16455078
vn 0.4892578 0.8564453 -0.16455078
vn 0.4892578 0.8564453 -0.16455078
vn 0.4892578 0.8564453 -0.16455078
vn 0.45385742 0.8330078 -0.3161621
vn 0.45385742 0.8330078 -0.3161621
vn 0.45385742 0.8330078 -0.3161621
vn 0.45385742 0.8330078 -0.3161621
vn 0.48535156 0.83154297 -0.2697754
vn 0.48535156 0.83154297 -0.2697754
vn 0.48535156 0.83154297 -0.2697754
vn 0.48535156 0.83154297 -0.2697754
vn -0.9995117 0 0.024627686
vn -0.9995117 0 0.024627686
vn -0.9995117 0 0.024627686
vn -0.9995117 0 0.024627686
vn -0.9550781 0 0.29663086
vn -0.9550781 0 0.29663086
vn -0.9550781 0 0.29663086
vn -0.9550781 0 0.29663086
vn -0.8598633 0 0.5107422
vn -0.8598633 0 0.5107422
vn -0.8598633 0 0.5107422
vn -0.8598633 0 0.5107422
vn -0.8803711 0.01651001 0.4736328
vn -0.8803711 0.01651001 0.4736328
vn 0.99560547 0 0.09277344
vn 0.99560547 0 0.09277344
vn 0.99560547 0 0.09277344
vn 0.99560547 0 0.09277344
vn 0.96972656 0 -0.2434082
vn 0.96972656 0 -0.2434082
vn 0.96972656 0 -0.2434082
vn 0.96972656 0 -0.2434082
vn 0.91259766 0 -0.4086914
vn 0.91259766 0 -0.4086914
vn 0.91259766 0 -0.4086914
vn 0.91259766 0 -0.4086914
vn 0.9091797 -0.014518738 -0.4165039
vn 0.9091797 -0.014518738 -0.4165039
vn -0.5004883 -0.8652344 0.021957397
vn -0.5004883 -0.8652344 0.021957397
vn -0.5004883 -0.8652344 0.021957397
vn -0.5004883 -0.8652344 0.021957397
vn -0.4790039 -0.84716797 0.22949219
vn -0.4790039 -0.84716797 0.22949219
vn -0.4790039 -0.84716797 0.22949219
vn -0.4790039 -0.84716797 0.22949219
vn -0.42749023 -0.8066406 0.40844727
vn -0.42749023 -0.8066406 0.40844727
vn -0.42749023 -0.8066406 0.40844727
vn -0.42749023 -0.8066406 0.40844727
vn -0.47045898 -0.8095703 0.35058594
vn -0.47045898 -0.8095703 0.35058594
vn -0.47045898 -0.8095703 0.35058594
vn -0.47045898 -0.8095703 0.35058594
vn -0.7241211 -0.10864258 -0.68115234
vn -0.7241211 -0.10864258 -0.68115234
vn -0.7241211 -0.10864258 -0.68115234
vn -0.7241211 -0.10864258 -0.68115234
vn 0.8730469 -0.47460938 -0.11206055
vn 0.8730469 -0.47460938 -0.11206055
vn 0.8730469 -0.47460938 -0.11206055
vn 0.8730469 -0.47460938 -0.11206055
vn 0.36791992 0.4543457 -0.81103516
vn 0.36791992 0.4543457 -0.81103516
vn 0.36791992 0.4543457 -0.81103516
vn 0.36791992 0.4543457 -0.81103516
vn -0.21191406 0.5097656 0.8339844
vn -0.21191406 0.5097656 0.8339844
vn -0.21191406 0.5097656 0.8339844
vn -0.21191406 0.5097656 0.8339844
vn 0.038604736 -0.99902344 0.0025291443
vn 0.038604736 -0.99902344 0.0025291443
vn 0.038604736 -0.99902344 0.0025291443
vn 0.038604736 -0.99902344 0.0025291443
vn -0.30322266 0.46362305 0.83251953
vn -0.30322266 0.46362305 0.83251953
vn -0.30322266 0.46362305 0.83251953
vn -0.30322266 0.46362305 0.83251953
vn 0.05404663 0.48608398 0.8720703
vn 0.05404663 0.48608398 0.8720703
vn 0.05404663 0.48608398 0.8720703
vn 0.05404663 0.48608398 0.8720703
vn 0.054229736 -0.99853516 -0.01574707
vn 0.054229736 -0.99853516 -0.01574707
vn 0.054229736 -0.99853516 -0.01574707
vn 0.054229736 -0.99853516 -0.01574707
vn 0.041107178 0.47485352 -0.87939453
vn 0.041107178 0.47485352 -0.87939453
vn 0.041107178 0.47485352 -0.87939453
vn 0.041107178 0.47485352 -0.87939453
vn -0.75341797 -0.37817383 0.53808594
vn -0.75341797 -0.37817383 0.53808594
vn -0.75341797 -0.37817383 0.53808594
vn -0.75341797 -0.37817383 0.53808594
vn 0.625 -0.61035156 -0.4868164
vn 0.625 -0.61035156 -0.4868164
vn 0.625 -0.61035156 -0.4868164
vn 0.625 -0.61035156 -0.4868164
vn 0.23791504 0.96972656 0.05706787
vn 0.23791504 0.96972656 0.05706787
vn 0.23791504 0.96972656 0.05706787
vn 0.23791504 0.96972656 0.05706787
vn -0.4333496 0.6098633 -0.66308594
vn -0.4333496 0.6098633 -0.66308594
vn -0.4333496 0.6098633 -0.66308594
vn -0.4333496 0.6098633 -0.66308594
vn 0.99853516 -0.054473877 0.003780365
vn 0.99853516 -0.054473877 0.003780365
vn 0.99853516 -0.054473877 0.003780365
vn 0.99853516 -0.054473877 0.003780365
vn -0.46557617 -0.52001953 0.7163086
vn -0.46557617 -0.52001953 0.7163086
vn -0.46557617 -0.52001953 0.7163086
vn -0.46557617 -0.52001953 0.7163086
vn -0.48046875 -0.18322754 0.8574219
vn -0.48046875 -0.18322754 0.8574219
vn -0.48046875 -0.18322754 0.8574219
vn -0.48046875 -0.18322754 0.8574219
vn 1 -0.0063476562 -0.011756897
vn 1 -0.0063476562 -0.011756897
vn 1 -0.0063476562 -0.011756897
vn 1 -0.0063476562 -0.011756897
vn -0.4699707 0.33935547 -0.8149414
vn -0.4699707 0.33935547 -0.8149414
vn -0.4699707 0.33935547 -0.8149414
vn -0.4699707 0.33935547 -0.8149414
vn 0.35791016 -0.7011719 -0.61621094
vn 0.6977539 0.35668945 -0.62109375
vn -0.01033783 -0.0007214546 -1
vn -0.36791992 0.7006836 -0.6113281
vn -0.70458984 -0.36889648 -0.6064453
vn 0.3305664 0.94384766 0
vn -0.70458984 -0.36889648 -0.6064453
vn 0.35791016 -0.7011719 -0.61621094
vn -0.01033783 -0.0007214546 -1
vn -0.32617188 -0.9453125 0
vn -0.01033783 -0.0007214546 1
vn 0.6977539 0.35668945 0.62109375
vn 0.35791016 -0.7011719 0.61621094
vn -0.36791992 0.7006836 0.6113281
vn 0.3305664 0.94384766 0
vn -0.70458984 -0.36889648 0.6064453
vn -0.01033783 -0.0007214546 1
vn 0.35791016 -0.7011719 0.61621094
vn -0.70458984 -0.36889648 0.6064453
vn -0.32617188 -0.9453125 0
vn 0.17565918 -0.9663086 -0.18896484
vn 0.17565918 -0.9663086 -0.18896484
vn 0.17565918 -0.9663086 -0.18896484
vn 0.17565918 -0.9663086 -0.18896484
vn 0.31640625 0.49365234 0.8100586
vn 0.31640625 0.49365234 0.8100586
vn 0.31640625 0.49365234 0.8100586
vn 0.31640625 0.49365234 0.8100586
vn 0.7109375 0.46435547 0.52783203
vn 0.7109375 0.46435547 0.52783203
vn 0.7109375 0.46435547 0.52783203
vn 0.7109375 0.46435547 0.52783203
vn -0 -1 0
vn -0 -1 0
vn -0 -1 0
vn -0 -1 0
vn -0.71728516 0.47583008 -0.50927734
vn -0.71728516 0.47583008 -0.50927734
vn -0.71728516 0.47583008 -0.50927734
vn -0.71728516 0.47583008 -0.50927734
vn 0.4477539 0.46289062 0.7651367
vn 0.4477539 0.46289062 0.7651367
vn 0.4477539 0.46289062 0.7651367
vn 0.4477539 0.46289062 0.7651367
vn -0.31640625 0.49365234 -0.8100586
vn -0.31640625 0.49365234 -0.8100586
vn -0.31640625 0.49365234 -0.8100586
vn -0.31640625 0.49365234 -0.8100586
vn 0.06463623 -0.9614258 -0.26660156
vn 0.06463623 -0.9614258 -0.26660156
vn 0.06463623 -0.9614258 -0.26660156
vn 0.06463623 -0.9614258 -0.26660156
vn -0.83935547 0.49487305 -0.22497559
vn -0.83935547 0.49487305 -0.22497559
vn -0.83935547 0.49487305 -0.22497559
vn -0.83935547 0.49487305 -0.22497559
vn -0.5629883 0.7626953 0.31860352
vn -0.32421875 0.7470703 -0.5805664
vn 0.4802246 0.87402344 -0.0736084
vn -0.92578125 -0.122558594 0.35717773
vn -0.80615234 -0.048706055 -0.58984375
vn 0.4802246 0.87402344 -0.0736084
vn -0.32421875 0.7470703 -0.5805664
vn 0.9267578 0.12121582 -0.35620117
vn 0.24108887 0.07556152 -0.96777344
vn -0.80615234 -0.048706055 -0.58984375
vn 0.5722656 -0.7631836 -0.3005371
vn 0.4802246 0.87402344 -0.0736084
vn 0.9267578 0.12121582 -0.35620117
vn 0.8095703 0.029067993 0.5864258
vn 0.31982422 -0.7475586 0.58203125
vn 0.5722656 -0.7631836 -0.3005371
vn 0.8095703 0.029067993 0.5864258
vn 0.31982422 -0.7475586 0.58203125
vn -0.23034668 -0.073791504 0.97021484
vn 0.20581055 0.6513672 0.73046875
vn 0.4802246 0.87402344 -0.0736084
vn -0.5629883 0.7626953 0.31860352
vn -0.92578125 -0.122558594 0.35717773
vn -0.23034668 -0.073791504 0.97021484
vn 0.31982422 -0.7475586 0.58203125
vn -0.92578125 -0.122558594 0.35717773
vn -0.4716797 -0.87890625 0.068603516
vn 0.5722656 -0.7631836 -0.3005371
vn -0.92578125 -0.122558594 0.35717773
vn -0.4716797 -0.87890625 0.068603516
vn -0.80615234 -0.048706055 -0.58984375
vn -0.18554688 -0.65527344 -0.7324219
vn 0.5722656 -0.7631836 -0.3005371
vn 0.24108887 0.07556152 -0.96777344
vn -0.23034668 0.7192383 0.65527344
vn -0.5629883 0.7207031 -0.4050293
vn 0.20581055 0.9765625 -0.06378174
vn -0.92578125 0.20605469 0.31640625
vn -0.32421875 0.0023536682 -0.9458008
vn -0.80615234 -0.49487305 -0.32470703
vn 0.8095703 0.47998047 0.33813477
vn -0.23034668 0.7192383 0.65527344
vn 0.20581055 0.9765625 -0.06378174
vn 0.31982422 -0.0013656616 0.9472656
vn -0.92578125 0.20605469 0.31640625
vn -0.4716797 -0.48706055 0.7348633
vn -0.32421875 0.0023536682 -0.9458008
vn -0.80615234 -0.49487305 -0.32470703
vn 0.24108887 -0.7158203 -0.65527344
vn -0.18554688 -0.98046875 0.06549072
vn 0.5722656 -0.70654297 0.4165039
vn -0.32421875 0.0023536682 -0.9458008
vn 0.24108887 -0.7158203 -0.65527344
vn 0.9267578 -0.20605469 -0.31469727
vn 0.4802246 0.47998047 -0.7338867
vn -0.5629883 0.7207031 -0.4050293
vn 0.20581055 0.9765625 -0.06378174
vn 0.8095703 0.47998047 0.33813477
vn 0.4802246 0.47998047 -0.7338867
vn 0.9267578 -0.20605469 -0.31469727
vn 0.8095703 0.47998047 0.33813477
vn 0.31982422 -0.0013656616 0.9472656
vn 0.5722656 -0.70654297 0.4165039
vn 0.24108887 -0.7158203 -0.65527344
vn 0.31982422 -0.0013656616 0.9472656
vn 0.5722656 -0.70654297 0.4165039
vn -0.4716797 -0.48706055 0.7348633
vn -0.18554688 -0.98046875 0.06549072
vn -0.80615234 -0.49487305 -0.32470703
vn -0.92578125 0.20605469 0.31640625
vn -0.81152344 -0.51660156 0.27294922
vn -0.8413086 0.53271484 -0.09197998
vn -0.6616211 0.22973633 0.7133789
vn -0.7421875 -0.26171875 -0.6171875
vn -0.043304443 0.93652344 -0.3474121
vn -0.002822876 0.7993164 0.6010742
vn -0.0101623535 0.24572754 -0.9692383
vn 0.022232056 -0.2614746 0.96484375
vn -0.81152344 -0.51660156 0.27294922
vn -0.6616211 0.22973633 0.7133789
vn 0.039733887 -0.9379883 0.34448242
vn 0.67626953 -0.23242188 -0.69921875
vn -0.0101623535 0.24572754 -0.9692383
vn 0.01335907 -0.80126953 -0.59765625
vn 0.8149414 0.51660156 -0.26220703
vn -0.043304443 0.93652344 -0.3474121
vn 0.67626953 -0.23242188 -0.69921875
vn 0.01335907 -0.80126953 -0.59765625
vn 0.8334961 -0.5415039 0.10852051
vn 0.8149414 0.51660156 -0.26220703
vn 0.7421875 0.26000977 0.6176758
vn 0.039733887 -0.9379883 0.34448242
vn 0.022232056 -0.2614746 0.96484375
vn -0.043304443 0.93652344 -0.3474121
vn 0.8149414 0.51660156 -0.26220703
vn 0.7421875 0.26000977 0.6176758
vn -0.002822876 0.7993164 0.6010742
vn 0.022232056 -0.2614746 0.96484375
vn -0.6616211 0.22973633 0.7133789
vn -0.8413086 0.53271484 -0.09197998
vn -0.81152344 -0.51660156 0.27294922
vn 0.039733887 -0.9379883 0.34448242
vn -0.7421875 -0.26171875 -0.6171875
vn 0.01335907 -0.80126953 -0.59765625
vn 0.8334961 -0.5415039 0.10852051
vn -0.0101623535 0.24572754 -0.9692383
vn 0.58154297 -0.51660156 0.62841797
vn 0.26123047 0.53271484 0.8051758
vn 0.9223633 0.22973633 0.31103516
vn 0.87109375 -0.2614746 -0.41601562
vn 0.29785156 -0.9379883 -0.17749023
vn 0.5493164 0.7993164 -0.24389648
vn -0.91503906 -0.23242188 -0.33007812
vn -0.8798828 0.24572754 0.40673828
vn -0.55078125 -0.80126953 0.23303223
vn -0.5732422 0.51660156 -0.6357422
vn -0.29907227 0.93652344 0.18200684
vn -0.24291992 -0.5415039 -0.8046875
vn -0.91503906 -0.23242188 -0.33007812
vn -0.55078125 -0.80126953 0.23303223
vn -0.24291992 -0.5415039 -0.8046875
vn 0.29785156 -0.9379883 -0.17749023
vn 0.58154297 -0.51660156 0.62841797
vn 0.29785156 -0.9379883 -0.17749023
vn -0.25854492 -0.26171875 0.9296875
vn -0.55078125 -0.80126953 0.23303223
vn -0.8798828 0.24572754 0.40673828
vn 0.58154297 -0.51660156 0.62841797
vn -0.25854492 -0.26171875 0.9296875
vn 0.26123047 0.53271484 0.8051758
vn -0.29907227 0.93652344 0.18200684
vn -0.8798828 0.24572754 0.40673828
vn 0.5493164 0.7993164 -0.24389648
vn 0.9223633 0.22973633 0.31103516
vn 0.7294922 -0.68310547 -0.037963867
vn -0.13342285 -0.7392578 0.66015625
vn 0.6142578 -0.28295898 0.7368164
vn -0.12695312 -0.9536133 -0.27319336
vn -0.78271484 -0.074279785 0.61816406
vn -0.890625 -0.3762207 -0.2548828
vn 0.8925781 0.38354492 0.23620605
vn 0.7294922 -0.68310547 -0.037963867
vn 0.6142578 -0.28295898 0.7368164
vn 0.7817383 0.06970215 -0.6196289
vn -0.60546875 0.30151367 -0.7368164
vn -0.890625 -0.3762207 -0.2548828
vn -0.022201538 -0.3227539 -0.94628906
vn -0.12695312 -0.9536133 -0.27319336
vn 0.7817383 0.06970215 -0.6196289
vn 0.7294922 -0.68310547 -0.037963867
vn -0.60546875 0.30151367 -0.7368164
vn -0.022201538 -0.3227539 -0.94628906
vn 0.15344238 0.73779297 -0.65722656
vn 0.7817383 0.06970215 -0.6196289
vn 0.12841797 0.9536133 0.27197266
vn 0.8925781 0.38354492 0.23620605
vn -0.78271484 -0.074279785 0.61816406
vn -0.890625 -0.3762207 -0.2548828
vn -0.72216797 0.6904297 0.04208374
vn -0.60546875 0.30151367 -0.7368164
vn 0.15344238 0.73779297 -0.65722656
vn 0.12841797 0.9536133 0.27197266
vn -0.78271484 -0.074279785 0.61816406
vn -0.72216797 0.6904297 0.04208374
vn 0.12841797 0.9536133 0.27197266
vn 0.023071289 0.33325195 0.9423828
vn -0.13342285 -0.7392578 0.66015625
vn 0.8925781 0.38354492 0.23620605
vn 0.6142578 -0.28295898 0.7368164
vn 0.25927734 0.26000977 -0.9301758
vn -0.5732422 0.51660156 -0.6357422
vn -0.24291992 -0.5415039 -0.8046875
vn -0.29907227 0.93652344 0.18200684
vn 0.29785156 -0.9379883 -0.17749023
vn 0.5493164 0.7993164 -0.24389648
vn 0.87109375 -0.2614746 -0.41601562
vn 0.94433594 -0.3293457 0
vn 0.35791016 -0.7011719 0.61621094
vn 0.6977539 0.35668945 0.62109375
vn -0.32617188 -0.9453125 0
vn 0.3305664 0.94384766 0
vn 0.35791016 -0.7011719 -0.61621094
vn 0.6977539 0.35668945 -0.62109375
vn -0.9448242 0.32763672 0
vn -0.36791992 0.7006836 0.6113281
vn -0.70458984 -0.36889648 0.6064453
vn 0.3305664 0.94384766 0
vn -0.32617188 -0.9453125 0
vn -0.36791992 0.7006836 -0.6113281
vn -0.70458984 -0.36889648 -0.6064453
g Tree1_0
f 3/3/3 2/2/2 1/1/1
f 6/6/6 5/5/5 4/4/4
f 9/9/9 8/8/8 7/7/7
f 12/12/12 11/11/11 10/10/10
f 15/15/15 14/14/14 13/13/13
f 18/18/18 17/17/17 16/16/16
f 21/21/21 20/20/20 19/19/19
f 24/24/24 23/23/23 22/22/22
f 27/27/27 26/26/26 25/25/25
f 30/30/30 29/29/29 28/28/28
f 33/33/33 32/32/32 31/31/31
f 36/36/36 35/35/35 34/34/34
f 39/39/39 38/38/38 37/37/37
f 40/40/40 39/39/39 37/37/37
f 43/43/43 42/42/42 41/41/41
f 44/44/44 43/43/43 41/41/41
f 47/47/47 46/46/46 45/45/45
f 48/48/48 47/47/47 45/45/45
f 51/51/51 50/50/50 49/49/49
f 52/52/52 51/51/51 49/49/49
f 55/55/55 54/54/54 53/53/53
f 56/56/56 55/55/55 53/53/53
f 59/59/59 58/58/58 57/57/57
f 60/60/60 59/59/59 57/57/57
f 63/63/63 62/62/62 61/61/61
f 64/64/64 63/63/63 61/61/61
f 67/67/67 66/66/66 65/65/65
f 65/65/65 68/68/68 67/67/67
f 68/68/68 69/69/69 67/67/67
f 68/68/68 70/70/70 69/69/69
f 73/73/73 72/72/72 71/71/71
f 71/71/71 74/74/74 73/73/73
f 71/71/71 75/75/75 74/74/74
f 75/75/75 76/76/76 74/74/74
f 79/79/79 78/78/78 77/77/77
f 80/80/80 79/79/79 77/77/77
f 83/83/83 82/82/82 81/81/81
f 84/84/84 83/83/83 81/81/81
f 87/87/87 86/86/86 85/85/85
f 88/88/88 87/87/87 85/85/85
f 91/91/91 90/90/90 89/89/89
f 92/92/92 91/91/91 89/89/89
f 95/95/95 94/94/94 93/93/93
f 96/96/96 95/95/95 93/93/93
f 99/99/99 98/98/98 97/97/97
f 100/100/100 99/99/99 97/97/97
f 103/103/103 102/102/102 101/101/101
f 104/104/104 103/103/103 101/101/101
f 107/107/107 106/106/106 105/105/105
f 108/108/108 107/107/107 105/105/105
f 111/111/111 110/110/110 109/109/109
f 112/112/112 111/111/111 109/109/109
f 115/115/115 114/114/114 113/113/113
f 116/116/116 115/115/115 113/113/113
f 119/119/119 118/118/118 117/117/117
f 118/118/118 120/120/120 117/117/117
f 118/118/118 121/121/121 120/120/120
f 121/121/121 122/122/122 120/120/120
f 125/125/125 124/124/124 123/123/123
f 126/126/126 125/125/125 123/123/123
f 129/129/129 128/128/128 127/127/127
f 130/130/130 129/129/129 127/127/127
f 133/133/133 132/132/132 131/131/131
f 134/134/134 133/133/133 131/131/131
f 137/137/137 136/136/136 135/135/135
f 138/138/138 137/137/137 135/135/135
f 141/141/141 140/140/140 139/139/139
f 142/142/142 141/141/141 139/139/139
f 145/145/145 144/144/144 143/143/143
f 146/146/146 145/145/145 143/143/143
f 149/149/149 148/148/148 147/147/147
f 150/150/150 149/149/149 147/147/147
f 153/153/153 152/152/152 151/151/151
f 152/152/152 154/154/154 151/151/151
f 152/152/152 155/155/155 154/154/154
f 155/155/155 156/156/156 154/154/154
f 159/159/159 158/158/158 157/157/157
f 160/160/160 159/159/159 157/157/157
f 163/163/163 162/162/162 161/161/161
f 164/164/164 163/163/163 161/161/161
f 167/167/167 166/166/166 165/165/165
f 166/166/166 168/168/168 165/165/165
f 166/166/166 169/169/169 168/168/168
f 169/169/169 170/170/170 168/168/168
f 173/173/173 172/172/172 171/171/171
f 174/174/174 173/173/173 171/171/171
f 177/177/177 176/176/176 175/175/175
f 178/178/178 177/177/177 175/175/175
f 181/181/181 180/180/180 179/179/179
f 182/182/182 181/181/181 179/179/179
f 185/185/185 184/184/184 183/183/183
f 186/186/186 185/185/185 183/183/183
f 189/189/189 188/188/188 187/187/187
f 190/190/190 189/189/189 187/187/187
f 193/193/193 192/192/192 191/191/191
f 194/194/194 193/193/193 191/191/191
f 197/197/197 196/196/196 195/195/195
f 198/198/198 197/197/197 195/195/195
f 201/201/201 200/200/200 199/199/199
f 202/202/202 201/201/201 199/199/199
f 205/205/205 204/204/204 203/203/203
f 206/206/206 205/205/205 203/203/203
f 209/209/209 208/208/208 207/207/207
f 210/210/210 209/209/209 207/207/207
f 213/213/213 212/212/212 211/211/211
f 214/214/214 213/213/213 211/211/211
f 217/217/217 216/216/216 215/215/215
f 218/218/218 217/217/217 215/215/215
f 221/221/221 220/220/220 219/219/219
f 222/222/222 221/221/221 219/219/219
f 225/225/225 224/224/224 223/223/223
f 226/226/226 225/225/225 223/223/223
f 229/229/229 228/228/228 227/227/227
f 230/230/230 229/229/229 227/227/227
f 233/233/233 232/232/232 231/231/231
f 234/234/234 233/233/233 231/231/231
f 237/237/237 236/236/236 235/235/235
f 238/238/238 237/237/237 235/235/235
f 241/241/241 240/240/240 239/239/239
f 242/242/242 241/241/241 239/239/239
f 245/245/245 244/244/244 243/243/243
f 246/246/246 245/245/245 243/243/243
f 249/249/249 248/248/248 247/247/247
f 250/250/250 249/249/249 247/247/247
f 253/253/253 252/252/252 251/251/251
f 254/254/254 253/253/253 251/251/251
f 257/257/257 256/256/256 255/255/255
f 258/258/258 257/257/257 255/255/255
f 261/261/261 260/260/260 259/259/259
f 262/262/262 260/260/260 261/261/261
f 263/263/263 262/262/262 261/261/261
f 262/262/262 264/264/264 260/260/260
f 267/267/267 266/266/266 265/265/265
f 266/266/266 268/268/268 265/265/265
f 271/271/271 270/270/270 269/269/269
f 272/272/272 269/269/269 270/270/270
f 272/272/272 270/270/270 273/273/273
f 274/274/274 269/269/269 272/272/272
f 277/277/277 276/276/276 275/275/275
f 276/276/276 277/277/277 278/278/278
f 281/281/281 280/280/280 279/279/279
f 282/282/282 281/281/281 279/279/279
f 285/285/285 284/284/284 283/283/283
f 286/286/286 285/285/285 283/283/283
f 289/289/289 288/288/288 287/287/287
f 290/290/290 289/289/289 287/287/287
f 293/293/293 292/292/292 291/291/291
f 294/294/294 293/293/293 291/291/291
f 297/297/297 296/296/296 295/295/295
f 298/298/298 297/297/297 295/295/295
f 301/301/301 300/300/300 299/299/299
f 302/302/302 301/301/301 299/299/299
f 305/305/305 304/304/304 303/303/303
f 306/306/306 305/305/305 303/303/303
f 309/309/309 308/308/308 307/307/307
f 310/310/310 309/309/309 307/307/307
f 313/313/313 312/312/312 311/311/311
f 314/314/314 313/313/313 311/311/311
f 317/317/317 316/316/316 315/315/315
f 316/316/316 318/318/318 315/315/315
f 316/316/316 319/319/319 318/318/318
f 322/322/322 321/321/321 320/320/320
f 322/322/322 323/323/323 321/321/321
f 323/323/323 324/324/324 321/321/321
f 325/325/325 323/323/323 322/322/322
f 328/328/328 327/327/327 326/326/326
f 329/329/329 327/327/327 328/328/328
f 329/329/329 330/330/330 327/327/327
f 333/333/333 332/332/332 331/331/331
f 334/334/334 333/333/333 331/331/331
f 331/331/331 335/335/335 334/334/334
f 335/335/335 336/336/336 334/334/334
f 334/334/334 336/336/336 333/333/333
f 336/336/336 337/337/337 333/333/333
f 340/340/340 339/339/339 338/338/338
f 340/340/340 341/341/341 339/339/339
f 341/341/341 342/342/342 339/339/339
f 345/345/345 344/344/344 343/343/343
f 344/344/344 345/345/345 346/346/346
f 347/347/347 344/344/344 346/346/346
f 348/348/348 346/346/346 345/345/345
f 347/347/347 346/346/346 348/348/348
f 351/351/351 350/350/350 349/349/349
f 350/350/350 352/352/352 349/349/349
f 353/353/353 352/352/352 350/350/350
f 353/353/353 354/354/354 352/352/352
f 357/357/357 356/356/356 355/355/355
f 356/356/356 358/358/358 355/355/355
f 359/359/359 358/358/358 356/356/356
f 359/359/359 360/360/360 358/358/358
f 363/363/363 362/362/362 361/361/361
f 363/363/363 364/364/364 362/362/362
f 365/365/365 364/364/364 363/363/363
f 368/368/368 367/367/367 366/366/366
f 368/368/368 366/366/366 369/369/369
f 369/369/369 366/366/366 370/370/370
f 369/369/369 370/370/370 371/371/371
f 372/372/372 369/369/369 371/371/371
f 375/375/375 374/374/374 373/373/373
f 376/376/376 374/374/374 375/375/375
f 376/376/376 377/377/377 374/374/374
f 377/377/377 378/378/378 374/374/374
f 381/381/381 380/380/380 379/379/379
f 380/380/380 381/381/381 382/382/382
f 381/381/381 383/383/383 382/382/382
f 383/383/383 381/381/381 384/384/384
f 387/387/387 386/386/386 385/385/385
f 386/386/386 388/388/388 385/385/385
f 389/389/389 388/388/388 386/386/386
f 390/390/390 389/389/389 386/386/386
f 389/389/389 391/391/391 388/388/388
f 394/394/394 393/393/393 392/392/392
f 393/393/393 395/395/395 392/392/392
f 398/398/398 397/397/397 396/396/396
f 399/399/399 396/396/396 397/397/397
f 399/399/399 397/397/397 400/400/400
f 403/403/403 402/402/402 401/401/401
f 403/403/403 401/401/401 404/404/404
f 403/403/403 404/404/404 405/405/405
f 406/406/406 403/403/403 405/405/405
f 406/406/406 405/405/405 407/407/407
f 410/410/410 409/409/409 408/408/408
f 410/410/410 408/408/408 411/411/411
f 412/412/412 410/410/410 411/411/411
f 412/412/412 411/411/411 413/413/413
f 411/411/411 414/414/414 413/413/413
f 417/417/417 416/416/416 415/415/415
f 417/417/417 418/418/418 416/416/416
f 418/418/418 419/419/419 416/416/416
f 420/420/420 418/418/418 417/417/417
f 423/423/423 422/422/422 421/421/421
f 423/423/423 421/421/421 424/424/424
f 421/421/421 425/425/425 424/424/424
f 424/424/424 426/426/426 423/423/423
f 429/429/429 428/428/428 427/427/427
f 430/430/430 427/427/427 428/428/428
f 430/430/430 428/428/428 431/431/431
f 432/432/432 427/427/427 430/430/430
f 435/435/435 434/434/434 433/433/433
f 434/434/434 435/435/435 436/436/436
f 439/439/439 438/438/438 437/437/437
f 439/439/439 440/440/440 438/438/438
f 441/441/441 440/440/440 439/439/439
f 444/444/444 443/443/443 442/442/442
f 445/445/445 443/443/443 444/444/444
f 445/445/445 446/446/446 443/443/443
f 447/447/447 445/445/445 444/444/444
f 447/447/447 444/444/444 448/448/448
f 451/451/451 450/450/450 449/449/449
f 450/450/450 452/452/452 449/449/449
f 453/453/453 452/452/452 450/450/450
f 453/453/453 454/454/454 452/452/452
f 457/457/457 456/456/456 455/455/455
f 456/456/456 458/458/458 455/455/455
f 461/461/461 460/460/460 459/459/459
f 460/460/460 461/461/461 462/462/462
f 462/462/462 461/461/461 463/463/463
f 462/462/462 463/463/463 464/464/464
f 467/467/467 466/466/466 465/465/465
f 466/466/466 467/467/467 468/468/468
f 468/468/468 467/467/467 469/469/469
f 468/468/468 469/469/469 470/470/470
f 473/473/473 472/472/472 471/471/471
f 473/473/473 474/474/474 472/472/472
f 475/475/475 474/474/474 473/473/473
f 475/475/475 473/473/473 476/476/476
f 479/479/479 478/478/478 477/477/477
f 479/479/479 477/477/477 480/480/480
f 480/480/480 477/477/477 481/481/481
f 482/482/482 479/479/479 480/480/480
f 480/480/480 481/481/481 483/483/483
f 482/482/482 480/480/480 483/483/483
f 486/486/486 485/485/485 484/484/484
f 484/484/484 485/485/485 487/487/487
f 488/488/488 486/486/486 484/484/484
f 484/484/484 487/487/487 489/489/489
f 488/488/488 484/484/484 490/490/490
f 490/490/490 484/484/484 489/489/489
f 493/493/493 492/492/492 491/491/491
f 491/491/491 492/492/492 494/494/494
f 495/495/495 493/493/493 491/491/491
f 491/491/491 494/494/494 496/496/496
f 495/495/495 491/491/491 497/497/497
f 497/497/497 491/491/491 496/496/496
f 500/500/500 499/499/499 498/498/498
f 498/498/498 499/499/499 501/501/501
f 502/502/502 500/500/500 498/498/498
f 498/498/498 501/501/501 503/503/503
f 502/502/502 498/498/498 504/504/504
f 504/504/504 498/498/498 503/503/503
