g WorldEdgeBot
v -1 1.75 -0.99999994
v -1 2 -0.99999994
v -0.75 2 -1
v -0.75 1.75 -1
v -1 1.5 -0.99999994
v -0.5 2 -1
v -0.75 1.5 -1
v -1 1.25 -0.99999994
v -0.5 1.75 -1
v -0.25 2 -1
v -0.75 1.25 -1
v -1 1 -0.99999994
v -0.5 1.5 -1
v -0.25 1.75 -1
v -0 2 -1
v -0.75 1 -1
v -1 0.75 -0.99999994
v -0.5 1.25 -1
v -7.450581E-09 1.75 -1
v 0.24999999 2 -1
v -0.25 1.5 -1
v -0.75 0.75 -1
v -1 0.5 -0.99999994
v 0.24999997 1.75 -1
v 0.49999997 2 -1
v -0.5 1 -1
v -0.25 1.25 -1
v -1.4901161E-08 1.5 -1
v -0.75 0.5 -1
v -1 0.25 -0.99999994
v 0.49999994 1.75 -1
v 0.74999994 2 -1
v -0.5 0.75 -1
v -0.25 1 -1
v -2.2351742E-08 1.25 -1
v 0.24999997 1.5 -1
v -0.75 0.24999999 -1
v -1 -9.482836E-09 -0.99999994
v -0.75 -9.482838E-09 -1
v 0.74999994 1.75 -1
v 0.99999994 1.9999999 -1.0000001
v 0.99999994 1.7499999 -1
v 0.49999994 1.5 -1
v 0.74999994 1.5 -1
v 0.99999994 1.4999999 -1
v 0.24999997 1.25 -1
v -0.5 0.5 -1
v -0.5 0.24999999 -1
v -0.5 -9.4828385E-09 -1
v 0.74999994 1.25 -1
v 0.99999994 1.2499999 -1
v 0.49999994 1.25 -1
v -2.9802322E-08 1 -1
v -0.25 0.75 -1
v -0.25 0.5 -1
v -0.25 0.24999999 -1
v -0.25000003 -9.482839E-09 -1
v 0.24999996 1 -1
v -3.7252903E-08 0.75 -1
v 0.49999994 1 -1
v -4.4703484E-08 0.5 -1
v -5.2154064E-08 0.24999999 -1
v -5.9604645E-08 -9.482841E-09 -1
v 0.24999994 0.75 -1
v 0.74999994 1 -1
v 0.99999994 0.99999994 -1
v 0.24999994 0.5 -1
v 0.24999994 0.24999999 -1
v 0.24999994 -9.482843E-09 -1
v 0.49999994 0.75 -1
v 0.74999994 0.75 -1
v 0.99999994 0.74999994 -1
v 0.49999994 0.5 -1
v 0.49999994 0.24999999 -1
v 0.49999994 -9.482844E-09 -1
v 0.74999994 0.5 -1
v 0.99999994 0.49999997 -1
v 0.74999994 0.24999999 -1
v 0.74999994 -9.482845E-09 -1
v 0.99999994 0.24999999 -1
v 0.99999994 -9.4828465E-09 -1
v 0.99999994 1.7499999 -1
v 0.99999994 1.9999999 -1.0000001
v 1 1.9999999 -0.7500001
v 1 1.7499999 -0.75000006
v 0.99999994 1.4999999 -1
v 1 1.9999999 -0.5000001
v 1 1.4999999 -0.75
v 0.99999994 1.2499999 -1
v 1 1.7499999 -0.5000001
v 1 1.9999999 -0.25000012
v 1 1.2499999 -0.75
v 0.99999994 0.99999994 -1
v 1 1.4999999 -0.50000006
v 1 1.7499999 -0.2500001
v 1 1.9999999 -1.1920929E-07
v 1 0.99999994 -0.75
v 0.99999994 0.74999994 -1
v 1 1.2499999 -0.5
v 1 1.7499999 -1.1175871E-07
v 1 1.9999999 0.24999991
v 1 1.4999999 -0.25000006
v 1 0.74999994 -0.75
v 0.99999994 0.49999997 -1
v 1 1.7499999 0.24999991
v 1 1.9999999 0.49999994
v 1 0.99999994 -0.5
v 1 1.2499999 -0.25000006
v 1 1.4999999 -1.0430813E-07
v 1 0.49999997 -0.75
v 0.99999994 0.24999999 -1
v 1 1.7499999 0.49999994
v 1 1.9999999 0.75
v 1 0.74999994 -0.5
v 1 0.99999994 -0.25000006
v 1 1.2499999 -9.685755E-08
v 1 1.4999999 0.24999991
v 1 0.24999999 -0.75
v 0.99999994 -9.4828465E-09 -1
v 1 -7.112136E-09 -0.75
v 1 1.7499999 0.75
v 1 1.9999999 1
v 1 1.7499999 1
v 1 1.4999999 0.49999994
v 1 1.4999999 0.75
v 1 1.4999999 1
v 1 1.2499999 0.24999993
v 1 0.49999997 -0.5
v 1 0.24999999 -0.5
v 1 -4.741426E-09 -0.5
v 1 1.2499999 0.75
v 1 1.2499999 1
v 1 1.2499999 0.49999994
v 1 0.99999994 -8.940697E-08
v 1 0.74999994 -0.25000006
v 1 0.49999997 -0.25000006
v 1 0.24999999 -0.25000006
v 1 -2.3707156E-09 -0.25000003
v 1 0.99999994 0.24999994
v 1 0.74999994 -8.195639E-08
v 1 0.99999994 0.49999994
v 1 0.49999997 -7.4505806E-08
v 1 0.24999999 -6.7055225E-08
v 1 -5.3290705E-15 -5.9604645E-08
v 1 0.74999994 0.24999994
v 1 0.99999994 0.75
v 1 0.99999994 1
v 1 0.49999997 0.24999994
v 1 0.24999999 0.24999994
v 1 2.370705E-09 0.24999994
v 1 0.74999994 0.49999994
v 1 0.74999994 0.75
v 1 0.74999994 1
v 1 0.49999997 0.49999994
v 1 0.24999999 0.49999994
v 1 4.7414153E-09 0.49999994
v 1 0.49999997 0.75
v 1 0.49999997 1
v 1 0.24999999 0.75
v 1 7.1121256E-09 0.74999994
v 1 0.24999999 1
v 1 9.482836E-09 0.99999994
v -0.99999994 1.75 1
v -0.99999994 2 1
v -1 2 0.75
v -1 1.75 0.75
v -0.99999994 1.5 1
v -1 2 0.5
v -1 1.5 0.75
v -0.99999994 1.25 1
v -1 1.75 0.5
v -1 2 0.25
v -1 1.25 0.75
v -0.99999994 1 1
v -1 1.5 0.5
v -1 1.75 0.25
v -1 2 0
v -1 1 0.75
v -0.99999994 0.75 1
v -1 1.25 0.5
v -1 1.75 7.450581E-09
v -1 2 -0.24999999
v -1 1.5 0.25
v -1 0.75 0.75
v -0.99999994 0.5 1
v -1 1.75 -0.24999997
v -1 2 -0.49999997
v -1 1 0.5
v -1 1.25 0.25
v -1 1.5 1.4901161E-08
v -1 0.5 0.75
v -0.99999994 0.25 1
v -1 1.75 -0.49999994
v -1 2 -0.74999994
v -1 0.75 0.5
v -1 1 0.25
v -1 1.25 2.2351742E-08
v -1 1.5 -0.24999997
v -1 0.25 0.75
v -0.99999994 9.4828465E-09 1
v -1 7.112136E-09 0.75
v -1 1.75 -0.74999994
v -1 2 -0.99999994
v -1 1.75 -0.99999994
v -1 1.5 -0.49999994
v -1 1.5 -0.74999994
v -1 1.5 -0.99999994
v -1 1.25 -0.24999997
v -1 0.5 0.5
v -1 0.25 0.5
v -1 4.741426E-09 0.5
v -1 1.25 -0.74999994
v -1 1.25 -0.99999994
v -1 1.25 -0.49999994
v -1 1 2.9802322E-08
v -1 0.75 0.25
v -1 0.5 0.25
v -1 0.25 0.25
v -1 2.3707156E-09 0.25000003
v -1 1 -0.24999996
v -1 0.75 3.7252903E-08
v -1 1 -0.49999994
v -1 0.5 4.4703484E-08
v -1 0.25 5.2154064E-08
v -1 5.3290705E-15 5.9604645E-08
v -1 0.75 -0.24999994
v -1 1 -0.74999994
v -1 1 -0.99999994
v -1 0.5 -0.24999994
v -1 0.25 -0.24999994
v -1 -2.370705E-09 -0.24999994
v -1 0.75 -0.49999994
v -1 0.75 -0.74999994
v -1 0.75 -0.99999994
v -1 0.5 -0.49999994
v -1 0.25 -0.49999994
v -1 -4.7414153E-09 -0.49999994
v -1 0.5 -0.74999994
v -1 0.5 -0.99999994
v -1 0.25 -0.74999994
v -1 -7.1121256E-09 -0.74999994
v -1 0.25 -0.99999994
v -1 -9.482836E-09 -0.99999994
v 1 1.7499999 1
v 1 1.9999999 1
v 0.75 2 1
v 0.75 1.75 1
v 1 1.4999999 1
v 0.5 2 1
v 0.75 1.5 1
v 1 1.2499999 1
v 0.5 1.75 1
v 0.25 2 1
v 0.75 1.25 1
v 1 0.99999994 1
v 0.5 1.5 1
v 0.25 1.75 1
v -0 2 1
v 0.75 1 1
v 1 0.74999994 1
v 0.5 1.25 1
v 7.450581E-09 1.75 1
v -0.24999999 2 1
v 0.25 1.5 1
v 0.75 0.75 1
v 1 0.49999997 1
v -0.24999997 1.75 1
v -0.49999997 2 1
v 0.5 1 1
v 0.25 1.25 1
v 1.4901161E-08 1.5 1
v 0.75 0.5 1
v 1 0.24999999 1
v -0.49999994 1.75 1
v -0.74999994 2 1
v 0.5 0.75 1
v 0.25 1 1
v 2.2351742E-08 1.25 1
v -0.24999997 1.5 1
v 0.75 0.25 1
v 1 9.482836E-09 0.99999994
v 0.75 9.482838E-09 1
v -0.74999994 1.75 1
v -0.99999994 2 1
v -0.99999994 1.75 1
v -0.49999994 1.5 1
v -0.74999994 1.5 1
v -0.99999994 1.5 1
v -0.24999997 1.25 1
v 0.5 0.5 1
v 0.5 0.25 1
v 0.5 9.4828385E-09 1
v -0.74999994 1.25 1
v -0.99999994 1.25 1
v -0.49999994 1.25 1
v 2.9802322E-08 1 1
v 0.25 0.75 1
v 0.25 0.5 1
v 0.25 0.25 1
v 0.25000003 9.482839E-09 1
v -0.24999996 1 1
v 3.7252903E-08 0.75 1
v -0.49999994 1 1
v 4.4703484E-08 0.5 1
v 5.2154064E-08 0.25 1
v 5.9604645E-08 9.482841E-09 1
v -0.24999994 0.75 1
v -0.74999994 1 1
v -0.99999994 1 1
v -0.24999994 0.5 1
v -0.24999994 0.25 1
v -0.24999994 9.482843E-09 1
v -0.49999994 0.75 1
v -0.74999994 0.75 1
v -0.99999994 0.75 1
v -0.49999994 0.5 1
v -0.49999994 0.25 1
v -0.49999994 9.482844E-09 1
v -0.74999994 0.5 1
v -0.99999994 0.5 1
v -0.74999994 0.25 1
v -0.74999994 9.482845E-09 1
v -0.99999994 0.25 1
v -0.99999994 9.4828465E-09 1
vt 0.59375 0.25
vt 0.625 0.25
vt 0.625 0.28125
vt 0.59375 0.28125
vt 0.5625 0.25
vt 0.625 0.3125
vt 0.5625 0.28125
vt 0.53125 0.25
vt 0.59375 0.3125
vt 0.625 0.34375
vt 0.53125 0.28125
vt 0.5 0.25
vt 0.5625 0.3125
vt 0.59375 0.34375
vt 0.625 0.375
vt 0.5 0.28125
vt 0.46875 0.25
vt 0.53125 0.3125
vt 0.59375 0.375
vt 0.625 0.40625
vt 0.5625 0.34375
vt 0.46875 0.28125
vt 0.4375 0.25
vt 0.59375 0.40625
vt 0.625 0.4375
vt 0.5 0.3125
vt 0.53125 0.34375
vt 0.5625 0.375
vt 0.4375 0.28125
vt 0.40625 0.25
vt 0.59375 0.4375
vt 0.625 0.46875
vt 0.46875 0.3125
vt 0.5 0.34375
vt 0.53125 0.375
vt 0.5625 0.40625
vt 0.40625 0.28125
vt 0.375 0.25
vt 0.375 0.28125
vt 0.59375 0.46875
vt 0.625 0.5
vt 0.59375 0.5
vt 0.5625 0.4375
vt 0.5625 0.46875
vt 0.5625 0.5
vt 0.53125 0.40625
vt 0.4375 0.3125
vt 0.40625 0.3125
vt 0.375 0.3125
vt 0.53125 0.46875
vt 0.53125 0.5
vt 0.53125 0.4375
vt 0.5 0.375
vt 0.46875 0.34375
vt 0.4375 0.34375
vt 0.40625 0.34375
vt 0.375 0.34375
vt 0.5 0.40625
vt 0.46875 0.375
vt 0.5 0.4375
vt 0.4375 0.375
vt 0.40625 0.375
vt 0.375 0.375
vt 0.46875 0.40625
vt 0.5 0.46875
vt 0.5 0.5
vt 0.4375 0.40625
vt 0.40625 0.40625
vt 0.375 0.40625
vt 0.46875 0.4375
vt 0.46875 0.46875
vt 0.46875 0.5
vt 0.4375 0.4375
vt 0.40625 0.4375
vt 0.375 0.4375
vt 0.4375 0.46875
vt 0.4375 0.5
vt 0.40625 0.46875
vt 0.375 0.46875
vt 0.40625 0.5
vt 0.375 0.5
vt 0.59375 0.5
vt 0.625 0.5
vt 0.625 0.53125
vt 0.59375 0.53125
vt 0.5625 0.5
vt 0.625 0.5625
vt 0.5625 0.53125
vt 0.53125 0.5
vt 0.59375 0.5625
vt 0.625 0.59375
vt 0.53125 0.53125
vt 0.5 0.5
vt 0.5625 0.5625
vt 0.59375 0.59375
vt 0.625 0.625
vt 0.5 0.53125
vt 0.46875 0.5
vt 0.53125 0.5625
vt 0.59375 0.625
vt 0.625 0.65625
vt 0.5625 0.59375
vt 0.46875 0.53125
vt 0.4375 0.5
vt 0.59375 0.65625
vt 0.625 0.6875
vt 0.5 0.5625
vt 0.53125 0.59375
vt 0.5625 0.625
vt 0.4375 0.53125
vt 0.40625 0.5
vt 0.59375 0.6875
vt 0.625 0.71875
vt 0.46875 0.5625
vt 0.5 0.59375
vt 0.53125 0.625
vt 0.5625 0.65625
vt 0.40625 0.53125
vt 0.375 0.5
vt 0.375 0.53125
vt 0.59375 0.71875
vt 0.625 0.75
vt 0.59375 0.75
vt 0.5625 0.6875
vt 0.5625 0.71875
vt 0.5625 0.75
vt 0.53125 0.65625
vt 0.4375 0.5625
vt 0.40625 0.5625
vt 0.375 0.5625
vt 0.53125 0.71875
vt 0.53125 0.75
vt 0.53125 0.6875
vt 0.5 0.625
vt 0.46875 0.59375
vt 0.4375 0.59375
vt 0.40625 0.59375
vt 0.375 0.59375
vt 0.5 0.65625
vt 0.46875 0.625
vt 0.5 0.6875
vt 0.4375 0.625
vt 0.40625 0.625
vt 0.375 0.625
vt 0.46875 0.65625
vt 0.5 0.71875
vt 0.5 0.75
vt 0.4375 0.65625
vt 0.40625 0.65625
vt 0.375 0.65625
vt 0.46875 0.6875
vt 0.46875 0.71875
vt 0.46875 0.75
vt 0.4375 0.6875
vt 0.40625 0.6875
vt 0.375 0.6875
vt 0.4375 0.71875
vt 0.4375 0.75
vt 0.40625 0.71875
vt 0.375 0.71875
vt 0.40625 0.75
vt 0.375 0.75
vt 0.59375 0
vt 0.625 0
vt 0.625 0.03125
vt 0.59375 0.03125
vt 0.5625 0
vt 0.625 0.0625
vt 0.5625 0.03125
vt 0.53125 0
vt 0.59375 0.0625
vt 0.625 0.09375
vt 0.53125 0.03125
vt 0.5 0
vt 0.5625 0.0625
vt 0.59375 0.09375
vt 0.625 0.125
vt 0.5 0.03125
vt 0.46875 0
vt 0.53125 0.0625
vt 0.59375 0.125
vt 0.625 0.15625
vt 0.5625 0.09375
vt 0.46875 0.03125
vt 0.4375 0
vt 0.59375 0.15625
vt 0.625 0.1875
vt 0.5 0.0625
vt 0.53125 0.09375
vt 0.5625 0.125
vt 0.4375 0.03125
vt 0.40625 0
vt 0.59375 0.1875
vt 0.625 0.21875
vt 0.46875 0.0625
vt 0.5 0.09375
vt 0.53125 0.125
vt 0.5625 0.15625
vt 0.40625 0.03125
vt 0.375 0
vt 0.375 0.03125
vt 0.59375 0.21875
vt 0.625 0.25
vt 0.59375 0.25
vt 0.5625 0.1875
vt 0.5625 0.21875
vt 0.5625 0.25
vt 0.53125 0.15625
vt 0.4375 0.0625
vt 0.40625 0.0625
vt 0.375 0.0625
vt 0.53125 0.21875
vt 0.53125 0.25
vt 0.53125 0.1875
vt 0.5 0.125
vt 0.46875 0.09375
vt 0.4375 0.09375
vt 0.40625 0.09375
vt 0.375 0.09375
vt 0.5 0.15625
vt 0.46875 0.125
vt 0.5 0.1875
vt 0.4375 0.125
vt 0.40625 0.125
vt 0.375 0.125
vt 0.46875 0.15625
vt 0.5 0.21875
vt 0.5 0.25
vt 0.4375 0.15625
vt 0.40625 0.15625
vt 0.375 0.15625
vt 0.46875 0.1875
vt 0.46875 0.21875
vt 0.46875 0.25
vt 0.4375 0.1875
vt 0.40625 0.1875
vt 0.375 0.1875
vt 0.4375 0.21875
vt 0.4375 0.25
vt 0.40625 0.21875
vt 0.375 0.21875
vt 0.40625 0.25
vt 0.375 0.25
vt 0.59375 0.75
vt 0.625 0.75
vt 0.625 0.78125
vt 0.59375 0.78125
vt 0.5625 0.75
vt 0.625 0.8125
vt 0.5625 0.78125
vt 0.53125 0.75
vt 0.59375 0.8125
vt 0.625 0.84375
vt 0.53125 0.78125
vt 0.5 0.75
vt 0.5625 0.8125
vt 0.59375 0.84375
vt 0.625 0.875
vt 0.5 0.78125
vt 0.46875 0.75
vt 0.53125 0.8125
vt 0.59375 0.875
vt 0.625 0.90625
vt 0.5625 0.84375
vt 0.46875 0.78125
vt 0.4375 0.75
vt 0.59375 0.90625
vt 0.625 0.9375
vt 0.5 0.8125
vt 0.53125 0.84375
vt 0.5625 0.875
vt 0.4375 0.78125
vt 0.40625 0.75
vt 0.59375 0.9375
vt 0.625 0.96875
vt 0.46875 0.8125
vt 0.5 0.84375
vt 0.53125 0.875
vt 0.5625 0.90625
vt 0.40625 0.78125
vt 0.375 0.75
vt 0.375 0.78125
vt 0.59375 0.96875
vt 0.625 1
vt 0.59375 1
vt 0.5625 0.9375
vt 0.5625 0.96875
vt 0.5625 1
vt 0.53125 0.90625
vt 0.4375 0.8125
vt 0.40625 0.8125
vt 0.375 0.8125
vt 0.53125 0.96875
vt 0.53125 1
vt 0.53125 0.9375
vt 0.5 0.875
vt 0.46875 0.84375
vt 0.4375 0.84375
vt 0.40625 0.84375
vt 0.375 0.84375
vt 0.5 0.90625
vt 0.46875 0.875
vt 0.5 0.9375
vt 0.4375 0.875
vt 0.40625 0.875
vt 0.375 0.875
vt 0.46875 0.90625
vt 0.5 0.96875
vt 0.5 1
vt 0.4375 0.90625
vt 0.40625 0.90625
vt 0.375 0.90625
vt 0.46875 0.9375
vt 0.46875 0.96875
vt 0.46875 1
vt 0.4375 0.9375
vt 0.40625 0.9375
vt 0.375 0.9375
vt 0.4375 0.96875
vt 0.4375 1
vt 0.40625 0.96875
vt 0.375 0.96875
vt 0.40625 1
vt 0.375 1
vn -0 0 1
vn -0 0 1
vn -0 0 1
vn -0 0 1
vn -0 0 1
vn -0 0 1
vn -0 0 1
vn -0 0 1
vn -0 0 1
vn -0 0 1
vn -0 0 1
vn -0 0 1
vn -0 0 1
vn -0 0 1
vn -0 0 1
vn -0 0 1
vn -0 0 1
vn -0 0 1
vn -0 0 1
vn -0 0 1
vn -0 0 1
vn -0 0 1
vn -0 0 1
vn -0 0 1
vn -0 0 1
vn -0 0 1
vn -0 0 1
vn -0 0 1
vn -0 0 1
vn -0 0 1
vn -0 0 1
vn -0 0 1
vn -0 0 1
vn -0 0 1
vn -0 0 1
vn -0 0 1
vn -0 0 1
vn -0 0 1
vn -0 0 1
vn -0 0 1
vn -0 0 1
vn -0 0 1
vn -0 0 1
vn -0 0 1
vn -0 0 1
vn -0 0 1
vn -0 0 1
vn -0 0 1
vn -0 0 1
vn -0 0 1
vn -0 0 1
vn -0 0 1
vn -0 0 1
vn -0 0 1
vn -0 0 1
vn -0 0 1
vn -0 0 1
vn -0 0 1
vn -0 0 1
vn -0 0 1
vn -0 0 1
vn -0 0 1
vn -0 0 1
vn -0 0 1
vn -0 0 1
vn -0 0 1
vn -0 0 1
vn -0 0 1
vn -0 0 1
vn -0 0 1
vn -0 0 1
vn -0 0 1
vn -0 0 1
vn -0 0 1
vn -0 0 1
vn -0 0 1
vn -0 0 1
vn -0 0 1
vn -0 0 1
vn -0 0 1
vn -0 0 1
vn -1 0 0
vn -1 0 0
vn -1 0 0
vn -1 0 0
vn -1 0 0
vn -1 0 0
vn -1 0 0
vn -1 0 0
vn -1 0 0
vn -1 0 0
vn -1 0 0
vn -1 0 0
vn -1 0 0
vn -1 0 0
vn -1 0 0
vn -1 0 0
vn -1 0 0
vn -1 0 0
vn -1 0 0
vn -1 0 0
vn -1 0 0
vn -1 0 0
vn -1 0 0
vn -1 0 0
vn -1 0 0
vn -1 0 0
vn -1 0 0
vn -1 0 0
vn -1 0 0
vn -1 0 0
vn -1 0 0
vn -1 0 0
vn -1 0 0
vn -1 0 0
vn -1 0 0
vn -1 0 0
vn -1 0 0
vn -1 0 0
vn -1 0 0
vn -1 0 0
vn -1 0 0
vn -1 0 0
vn -1 0 0
vn -1 0 0
vn -1 0 0
vn -1 0 0
vn -1 0 0
vn -1 0 0
vn -1 0 0
vn -1 0 0
vn -1 0 0
vn -1 0 0
vn -1 0 0
vn -1 0 0
vn -1 0 0
vn -1 0 0
vn -1 0 0
vn -1 0 0
vn -1 0 0
vn -1 0 0
vn -1 0 0
vn -1 0 0
vn -1 0 0
vn -1 0 0
vn -1 0 0
vn -1 0 0
vn -1 0 0
vn -1 0 0
vn -1 0 0
vn -1 0 0
vn -1 0 0
vn -1 0 0
vn -1 0 0
vn -1 0 0
vn -1 0 0
vn -1 0 0
vn -1 0 0
vn -1 0 0
vn -1 0 0
vn -1 0 0
vn -1 0 0
vn 1 0 0
vn 1 0 0
vn 1 0 0
vn 1 0 0
vn 1 0 0
vn 1 0 0
vn 1 0 0
vn 1 0 0
vn 1 0 0
vn 1 0 0
vn 1 0 0
vn 1 0 0
vn 1 0 0
vn 1 0 0
vn 1 0 0
vn 1 0 0
vn 1 0 0
vn 1 0 0
vn 1 0 0
vn 1 0 0
vn 1 0 0
vn 1 0 0
vn 1 0 0
vn 1 0 0
vn 1 0 0
vn 1 0 0
vn 1 0 0
vn 1 0 0
vn 1 0 0
vn 1 0 0
vn 1 0 0
vn 1 0 0
vn 1 0 0
vn 1 0 0
vn 1 0 0
vn 1 0 0
vn 1 0 0
vn 1 0 0
vn 1 0 0
vn 1 0 0
vn 1 0 0
vn 1 0 0
vn 1 0 0
vn 1 0 0
vn 1 0 0
vn 1 0 0
vn 1 0 0
vn 1 0 0
vn 1 0 0
vn 1 0 0
vn 1 0 0
vn 1 0 0
vn 1 0 0
vn 1 0 0
vn 1 0 0
vn 1 0 0
vn 1 0 0
vn 1 0 0
vn 1 0 0
vn 1 0 0
vn 1 0 0
vn 1 0 0
vn 1 0 0
vn 1 0 0
vn 1 0 0
vn 1 0 0
vn 1 0 0
vn 1 0 0
vn 1 0 0
vn 1 0 0
vn 1 0 0
vn 1 0 0
vn 1 0 0
vn 1 0 0
vn 1 0 0
vn 1 0 0
vn 1 0 0
vn 1 0 0
vn 1 0 0
vn 1 0 0
vn 1 0 0
vn -0 0 -1
vn -0 0 -1
vn -0 0 -1
vn -0 0 -1
vn -0 0 -1
vn -0 0 -1
vn -0 0 -1
vn -0 0 -1
vn -0 0 -1
vn -0 0 -1
vn -0 0 -1
vn -0 0 -1
vn -0 0 -1
vn -0 0 -1
vn -0 0 -1
vn -0 0 -1
vn -0 0 -1
vn -0 0 -1
vn -0 0 -1
vn -0 0 -1
vn -0 0 -1
vn -0 0 -1
vn -0 0 -1
vn -0 0 -1
vn -0 0 -1
vn -0 0 -1
vn -0 0 -1
vn -0 0 -1
vn -0 0 -1
vn -0 0 -1
vn -0 0 -1
vn -0 0 -1
vn -0 0 -1
vn -0 0 -1
vn -0 0 -1
vn -0 0 -1
vn -0 0 -1
vn -0 0 -1
vn -0 0 -1
vn -0 0 -1
vn -0 0 -1
vn -0 0 -1
vn -0 0 -1
vn -0 0 -1
vn -0 0 -1
vn -0 0 -1
vn -0 0 -1
vn -0 0 -1
vn -0 0 -1
vn -0 0 -1
vn -0 0 -1
vn -0 0 -1
vn -0 0 -1
vn -0 0 -1
vn -0 0 -1
vn -0 0 -1
vn -0 0 -1
vn -0 0 -1
vn -0 0 -1
vn -0 0 -1
vn -0 0 -1
vn -0 0 -1
vn -0 0 -1
vn -0 0 -1
vn -0 0 -1
vn -0 0 -1
vn -0 0 -1
vn -0 0 -1
vn -0 0 -1
vn -0 0 -1
vn -0 0 -1
vn -0 0 -1
vn -0 0 -1
vn -0 0 -1
vn -0 0 -1
vn -0 0 -1
vn -0 0 -1
vn -0 0 -1
vn -0 0 -1
vn -0 0 -1
vn -0 0 -1
g WorldEdgeBot_0
f 3/3/3 2/2/2 1/1/1
f 4/4/4 3/3/3 1/1/1
f 4/4/4 1/1/1 5/5/5
f 6/6/6 3/3/3 4/4/4
f 7/7/7 4/4/4 5/5/5
f 7/7/7 5/5/5 8/8/8
f 9/9/9 6/6/6 4/4/4
f 9/9/9 4/4/4 7/7/7
f 10/10/10 6/6/6 9/9/9
f 11/11/11 7/7/7 8/8/8
f 11/11/11 8/8/8 12/12/12
f 13/13/13 9/9/9 7/7/7
f 13/13/13 7/7/7 11/11/11
f 14/14/14 10/10/10 9/9/9
f 14/14/14 9/9/9 13/13/13
f 15/15/15 10/10/10 14/14/14
f 16/16/16 11/11/11 12/12/12
f 16/16/16 12/12/12 17/17/17
f 18/18/18 13/13/13 11/11/11
f 18/18/18 11/11/11 16/16/16
f 19/19/19 15/15/15 14/14/14
f 20/20/20 15/15/15 19/19/19
f 21/21/21 14/14/14 13/13/13
f 21/21/21 13/13/13 18/18/18
f 19/19/19 14/14/14 21/21/21
f 22/22/22 16/16/16 17/17/17
f 22/22/22 17/17/17 23/23/23
f 24/24/24 20/20/20 19/19/19
f 25/25/25 20/20/20 24/24/24
f 26/26/26 18/18/18 16/16/16
f 26/26/26 16/16/16 22/22/22
f 27/27/27 21/21/21 18/18/18
f 27/27/27 18/18/18 26/26/26
f 28/28/28 19/19/19 21/21/21
f 24/24/24 19/19/19 28/28/28
f 28/28/28 21/21/21 27/27/27
f 29/29/29 22/22/22 23/23/23
f 29/29/29 23/23/23 30/30/30
f 31/31/31 25/25/25 24/24/24
f 32/32/32 25/25/25 31/31/31
f 33/33/33 26/26/26 22/22/22
f 33/33/33 22/22/22 29/29/29
f 34/34/34 27/27/27 26/26/26
f 34/34/34 26/26/26 33/33/33
f 35/35/35 28/28/28 27/27/27
f 35/35/35 27/27/27 34/34/34
f 36/36/36 24/24/24 28/28/28
f 31/31/31 24/24/24 36/36/36
f 36/36/36 28/28/28 35/35/35
f 37/37/37 29/29/29 30/30/30
f 37/37/37 30/30/30 38/38/38
f 39/39/39 37/37/37 38/38/38
f 40/40/40 32/32/32 31/31/31
f 41/41/41 32/32/32 40/40/40
f 42/42/42 41/41/41 40/40/40
f 43/43/43 31/31/31 36/36/36
f 40/40/40 31/31/31 43/43/43
f 42/42/42 40/40/40 44/44/44
f 44/44/44 40/40/40 43/43/43
f 45/45/45 42/42/42 44/44/44
f 46/46/46 36/36/36 35/35/35
f 43/43/43 36/36/36 46/46/46
f 47/47/47 29/29/29 37/37/37
f 47/47/47 33/33/33 29/29/29
f 48/48/48 37/37/37 39/39/39
f 48/48/48 47/47/47 37/37/37
f 49/49/49 48/48/48 39/39/39
f 45/45/45 44/44/44 50/50/50
f 51/51/51 45/45/45 50/50/50
f 44/44/44 43/43/43 52/52/52
f 52/52/52 43/43/43 46/46/46
f 50/50/50 44/44/44 52/52/52
f 46/46/46 35/35/35 53/53/53
f 53/53/53 35/35/35 34/34/34
f 54/54/54 34/34/34 33/33/33
f 54/54/54 33/33/33 47/47/47
f 53/53/53 34/34/34 54/54/54
f 55/55/55 47/47/47 48/48/48
f 55/55/55 54/54/54 47/47/47
f 56/56/56 48/48/48 49/49/49
f 56/56/56 55/55/55 48/48/48
f 57/57/57 56/56/56 49/49/49
f 52/52/52 46/46/46 58/58/58
f 58/58/58 46/46/46 53/53/53
f 59/59/59 53/53/53 54/54/54
f 59/59/59 54/54/54 55/55/55
f 58/58/58 53/53/53 59/59/59
f 50/50/50 52/52/52 60/60/60
f 60/60/60 52/52/52 58/58/58
f 61/61/61 55/55/55 56/56/56
f 61/61/61 59/59/59 55/55/55
f 62/62/62 56/56/56 57/57/57
f 62/62/62 61/61/61 56/56/56
f 63/63/63 62/62/62 57/57/57
f 64/64/64 58/58/58 59/59/59
f 64/64/64 59/59/59 61/61/61
f 60/60/60 58/58/58 64/64/64
f 65/65/65 50/50/50 60/60/60
f 51/51/51 50/50/50 65/65/65
f 66/66/66 51/51/51 65/65/65
f 67/67/67 61/61/61 62/62/62
f 67/67/67 64/64/64 61/61/61
f 68/68/68 62/62/62 63/63/63
f 68/68/68 67/67/67 62/62/62
f 69/69/69 68/68/68 63/63/63
f 70/70/70 60/60/60 64/64/64
f 65/65/65 60/60/60 70/70/70
f 70/70/70 64/64/64 67/67/67
f 66/66/66 65/65/65 71/71/71
f 71/71/71 65/65/65 70/70/70
f 72/72/72 66/66/66 71/71/71
f 73/73/73 70/70/70 67/67/67
f 73/73/73 67/67/67 68/68/68
f 71/71/71 70/70/70 73/73/73
f 74/74/74 68/68/68 69/69/69
f 74/74/74 73/73/73 68/68/68
f 75/75/75 74/74/74 69/69/69
f 72/72/72 71/71/71 76/76/76
f 76/76/76 71/71/71 73/73/73
f 76/76/76 73/73/73 74/74/74
f 77/77/77 72/72/72 76/76/76
f 78/78/78 74/74/74 75/75/75
f 78/78/78 76/76/76 74/74/74
f 77/77/77 76/76/76 78/78/78
f 79/79/79 78/78/78 75/75/75
f 80/80/80 77/77/77 78/78/78
f 80/80/80 78/78/78 79/79/79
f 81/81/81 80/80/80 79/79/79
f 84/84/84 83/83/83 82/82/82
f 85/85/85 84/84/84 82/82/82
f 85/85/85 82/82/82 86/86/86
f 87/87/87 84/84/84 85/85/85
f 88/88/88 85/85/85 86/86/86
f 88/88/88 86/86/86 89/89/89
f 90/90/90 87/87/87 85/85/85
f 90/90/90 85/85/85 88/88/88
f 91/91/91 87/87/87 90/90/90
f 92/92/92 88/88/88 89/89/89
f 92/92/92 89/89/89 93/93/93
f 94/94/94 90/90/90 88/88/88
f 94/94/94 88/88/88 92/92/92
f 95/95/95 91/91/91 90/90/90
f 95/95/95 90/90/90 94/94/94
f 96/96/96 91/91/91 95/95/95
f 97/97/97 92/92/92 93/93/93
f 97/97/97 93/93/93 98/98/98
f 99/99/99 94/94/94 92/92/92
f 99/99/99 92/92/92 97/97/97
f 100/100/100 96/96/96 95/95/95
f 101/101/101 96/96/96 100/100/100
f 102/102/102 95/95/95 94/94/94
f 102/102/102 94/94/94 99/99/99
f 100/100/100 95/95/95 102/102/102
f 103/103/103 97/97/97 98/98/98
f 103/103/103 98/98/98 104/104/104
f 105/105/105 101/101/101 100/100/100
f 106/106/106 101/101/101 105/105/105
f 107/107/107 99/99/99 97/97/97
f 107/107/107 97/97/97 103/103/103
f 108/108/108 102/102/102 99/99/99
f 108/108/108 99/99/99 107/107/107
f 109/109/109 100/100/100 102/102/102
f 105/105/105 100/100/100 109/109/109
f 109/109/109 102/102/102 108/108/108
f 110/110/110 103/103/103 104/104/104
f 110/110/110 104/104/104 111/111/111
f 112/112/112 106/106/106 105/105/105
f 113/113/113 106/106/106 112/112/112
f 114/114/114 107/107/107 103/103/103
f 114/114/114 103/103/103 110/110/110
f 115/115/115 108/108/108 107/107/107
f 115/115/115 107/107/107 114/114/114
f 116/116/116 109/109/109 108/108/108
f 116/116/116 108/108/108 115/115/115
f 117/117/117 105/105/105 109/109/109
f 112/112/112 105/105/105 117/117/117
f 117/117/117 109/109/109 116/116/116
f 118/118/118 110/110/110 111/111/111
f 118/118/118 111/111/111 119/119/119
f 120/120/120 118/118/118 119/119/119
f 121/121/121 113/113/113 112/112/112
f 122/122/122 113/113/113 121/121/121
f 123/123/123 122/122/122 121/121/121
f 124/124/124 112/112/112 117/117/117
f 121/121/121 112/112/112 124/124/124
f 123/123/123 121/121/121 125/125/125
f 125/125/125 121/121/121 124/124/124
f 126/126/126 123/123/123 125/125/125
f 127/127/127 117/117/117 116/116/116
f 124/124/124 117/117/117 127/127/127
f 128/128/128 110/110/110 118/118/118
f 128/128/128 114/114/114 110/110/110
f 129/129/129 118/118/118 120/120/120
f 129/129/129 128/128/128 118/118/118
f 130/130/130 129/129/129 120/120/120
f 126/126/126 125/125/125 131/131/131
f 132/132/132 126/126/126 131/131/131
f 125/125/125 124/124/124 133/133/133
f 133/133/133 124/124/124 127/127/127
f 131/131/131 125/125/125 133/133/133
f 127/127/127 116/116/116 134/134/134
f 134/134/134 116/116/116 115/115/115
f 135/135/135 115/115/115 114/114/114
f 135/135/135 114/114/114 128/128/128
f 134/134/134 115/115/115 135/135/135
f 136/136/136 128/128/128 129/129/129
f 136/136/136 135/135/135 128/128/128
f 137/137/137 129/129/129 130/130/130
f 137/137/137 136/136/136 129/129/129
f 138/138/138 137/137/137 130/130/130
f 133/133/133 127/127/127 139/139/139
f 139/139/139 127/127/127 134/134/134
f 140/140/140 134/134/134 135/135/135
f 140/140/140 135/135/135 136/136/136
f 139/139/139 134/134/134 140/140/140
f 131/131/131 133/133/133 141/141/141
f 141/141/141 133/133/133 139/139/139
f 142/142/142 136/136/136 137/137/137
f 142/142/142 140/140/140 136/136/136
f 143/143/143 137/137/137 138/138/138
f 143/143/143 142/142/142 137/137/137
f 144/144/144 143/143/143 138/138/138
f 145/145/145 139/139/139 140/140/140
f 145/145/145 140/140/140 142/142/142
f 141/141/141 139/139/139 145/145/145
f 146/146/146 131/131/131 141/141/141
f 132/132/132 131/131/131 146/146/146
f 147/147/147 132/132/132 146/146/146
f 148/148/148 142/142/142 143/143/143
f 148/148/148 145/145/145 142/142/142
f 149/149/149 143/143/143 144/144/144
f 149/149/149 148/148/148 143/143/143
f 150/150/150 149/149/149 144/144/144
f 151/151/151 141/141/141 145/145/145
f 146/146/146 141/141/141 151/151/151
f 151/151/151 145/145/145 148/148/148
f 147/147/147 146/146/146 152/152/152
f 152/152/152 146/146/146 151/151/151
f 153/153/153 147/147/147 152/152/152
f 154/154/154 151/151/151 148/148/148
f 154/154/154 148/148/148 149/149/149
f 152/152/152 151/151/151 154/154/154
f 155/155/155 149/149/149 150/150/150
f 155/155/155 154/154/154 149/149/149
f 156/156/156 155/155/155 150/150/150
f 153/153/153 152/152/152 157/157/157
f 157/157/157 152/152/152 154/154/154
f 157/157/157 154/154/154 155/155/155
f 158/158/158 153/153/153 157/157/157
f 159/159/159 155/155/155 156/156/156
f 159/159/159 157/157/157 155/155/155
f 158/158/158 157/157/157 159/159/159
f 160/160/160 159/159/159 156/156/156
f 161/161/161 158/158/158 159/159/159
f 161/161/161 159/159/159 160/160/160
f 162/162/162 161/161/161 160/160/160
f 165/165/165 164/164/164 163/163/163
f 166/166/166 165/165/165 163/163/163
f 166/166/166 163/163/163 167/167/167
f 168/168/168 165/165/165 166/166/166
f 169/169/169 166/166/166 167/167/167
f 169/169/169 167/167/167 170/170/170
f 171/171/171 168/168/168 166/166/166
f 171/171/171 166/166/166 169/169/169
f 172/172/172 168/168/168 171/171/171
f 173/173/173 169/169/169 170/170/170
f 173/173/173 170/170/170 174/174/174
f 175/175/175 171/171/171 169/169/169
f 175/175/175 169/169/169 173/173/173
f 176/176/176 172/172/172 171/171/171
f 176/176/176 171/171/171 175/175/175
f 177/177/177 172/172/172 176/176/176
f 178/178/178 173/173/173 174/174/174
f 178/178/178 174/174/174 179/179/179
f 180/180/180 175/175/175 173/173/173
f 180/180/180 173/173/173 178/178/178
f 181/181/181 177/177/177 176/176/176
f 182/182/182 177/177/177 181/181/181
f 183/183/183 176/176/176 175/175/175
f 183/183/183 175/175/175 180/180/180
f 181/181/181 176/176/176 183/183/183
f 184/184/184 178/178/178 179/179/179
f 184/184/184 179/179/179 185/185/185
f 186/186/186 182/182/182 181/181/181
f 187/187/187 182/182/182 186/186/186
f 188/188/188 180/180/180 178/178/178
f 188/188/188 178/178/178 184/184/184
f 189/189/189 183/183/183 180/180/180
f 189/189/189 180/180/180 188/188/188
f 190/190/190 181/181/181 183/183/183
f 186/186/186 181/181/181 190/190/190
f 190/190/190 183/183/183 189/189/189
f 191/191/191 184/184/184 185/185/185
f 191/191/191 185/185/185 192/192/192
f 193/193/193 187/187/187 186/186/186
f 194/194/194 187/187/187 193/193/193
f 195/195/195 188/188/188 184/184/184
f 195/195/195 184/184/184 191/191/191
f 196/196/196 189/189/189 188/188/188
f 196/196/196 188/188/188 195/195/195
f 197/197/197 190/190/190 189/189/189
f 197/197/197 189/189/189 196/196/196
f 198/198/198 186/186/186 190/190/190
f 193/193/193 186/186/186 198/198/198
f 198/198/198 190/190/190 197/197/197
f 199/199/199 191/191/191 192/192/192
f 199/199/199 192/192/192 200/200/200
f 201/201/201 199/199/199 200/200/200
f 202/202/202 194/194/194 193/193/193
f 203/203/203 194/194/194 202/202/202
f 204/204/204 203/203/203 202/202/202
f 205/205/205 193/193/193 198/198/198
f 202/202/202 193/193/193 205/205/205
f 204/204/204 202/202/202 206/206/206
f 206/206/206 202/202/202 205/205/205
f 207/207/207 204/204/204 206/206/206
f 208/208/208 198/198/198 197/197/197
f 205/205/205 198/198/198 208/208/208
f 209/209/209 191/191/191 199/199/199
f 209/209/209 195/195/195 191/191/191
f 210/210/210 199/199/199 201/201/201
f 210/210/210 209/209/209 199/199/199
f 211/211/211 210/210/210 201/201/201
f 207/207/207 206/206/206 212/212/212
f 213/213/213 207/207/207 212/212/212
f 206/206/206 205/205/205 214/214/214
f 214/214/214 205/205/205 208/208/208
f 212/212/212 206/206/206 214/214/214
f 208/208/208 197/197/197 215/215/215
f 215/215/215 197/197/197 196/196/196
f 216/216/216 196/196/196 195/195/195
f 216/216/216 195/195/195 209/209/209
f 215/215/215 196/196/196 216/216/216
f 217/217/217 209/209/209 210/210/210
f 217/217/217 216/216/216 209/209/209
f 218/218/218 210/210/210 211/211/211
f 218/218/218 217/217/217 210/210/210
f 219/219/219 218/218/218 211/211/211
f 214/214/214 208/208/208 220/220/220
f 220/220/220 208/208/208 215/215/215
f 221/221/221 215/215/215 216/216/216
f 221/221/221 216/216/216 217/217/217
f 220/220/220 215/215/215 221/221/221
f 212/212/212 214/214/214 222/222/222
f 222/222/222 214/214/214 220/220/220
f 223/223/223 217/217/217 218/218/218
f 223/223/223 221/221/221 217/217/217
f 224/224/224 218/218/218 219/219/219
f 224/224/224 223/223/223 218/218/218
f 225/225/225 224/224/224 219/219/219
f 226/226/226 220/220/220 221/221/221
f 226/226/226 221/221/221 223/223/223
f 222/222/222 220/220/220 226/226/226
f 227/227/227 212/212/212 222/222/222
f 213/213/213 212/212/212 227/227/227
f 228/228/228 213/213/213 227/227/227
f 229/229/229 223/223/223 224/224/224
f 229/229/229 226/226/226 223/223/223
f 230/230/230 224/224/224 225/225/225
f 230/230/230 229/229/229 224/224/224
f 231/231/231 230/230/230 225/225/225
f 232/232/232 222/222/222 226/226/226
f 227/227/227 222/222/222 232/232/232
f 232/232/232 226/226/226 229/229/229
f 228/228/228 227/227/227 233/233/233
f 233/233/233 227/227/227 232/232/232
f 234/234/234 228/228/228 233/233/233
f 235/235/235 232/232/232 229/229/229
f 235/235/235 229/229/229 230/230/230
f 233/233/233 232/232/232 235/235/235
f 236/236/236 230/230/230 231/231/231
f 236/236/236 235/235/235 230/230/230
f 237/237/237 236/236/236 231/231/231
f 234/234/234 233/233/233 238/238/238
f 238/238/238 233/233/233 235/235/235
f 238/238/238 235/235/235 236/236/236
f 239/239/239 234/234/234 238/238/238
f 240/240/240 236/236/236 237/237/237
f 240/240/240 238/238/238 236/236/236
f 239/239/239 238/238/238 240/240/240
f 241/241/241 240/240/240 237/237/237
f 242/242/242 239/239/239 240/240/240
f 242/242/242 240/240/240 241/241/241
f 243/243/243 242/242/242 241/241/241
f 246/246/246 245/245/245 244/244/244
f 247/247/247 246/246/246 244/244/244
f 247/247/247 244/244/244 248/248/248
f 249/249/249 246/246/246 247/247/247
f 250/250/250 247/247/247 248/248/248
f 250/250/250 248/248/248 251/251/251
f 252/252/252 249/249/249 247/247/247
f 252/252/252 247/247/247 250/250/250
f 253/253/253 249/249/249 252/252/252
f 254/254/254 250/250/250 251/251/251
f 254/254/254 251/251/251 255/255/255
f 256/256/256 252/252/252 250/250/250
f 256/256/256 250/250/250 254/254/254
f 257/257/257 253/253/253 252/252/252
f 257/257/257 252/252/252 256/256/256
f 258/258/258 253/253/253 257/257/257
f 259/259/259 254/254/254 255/255/255
f 259/259/259 255/255/255 260/260/260
f 261/261/261 256/256/256 254/254/254
f 261/261/261 254/254/254 259/259/259
f 262/262/262 258/258/258 257/257/257
f 263/263/263 258/258/258 262/262/262
f 264/264/264 257/257/257 256/256/256
f 264/264/264 256/256/256 261/261/261
f 262/262/262 257/257/257 264/264/264
f 265/265/265 259/259/259 260/260/260
f 265/265/265 260/260/260 266/266/266
f 267/267/267 263/263/263 262/262/262
f 268/268/268 263/263/263 267/267/267
f 269/269/269 261/261/261 259/259/259
f 269/269/269 259/259/259 265/265/265
f 270/270/270 264/264/264 261/261/261
f 270/270/270 261/261/261 269/269/269
f 271/271/271 262/262/262 264/264/264
f 267/267/267 262/262/262 271/271/271
f 271/271/271 264/264/264 270/270/270
f 272/272/272 265/265/265 266/266/266
f 272/272/272 266/266/266 273/273/273
f 274/274/274 268/268/268 267/267/267
f 275/275/275 268/268/268 274/274/274
f 276/276/276 269/269/269 265/265/265
f 276/276/276 265/265/265 272/272/272
f 277/277/277 270/270/270 269/269/269
f 277/277/277 269/269/269 276/276/276
f 278/278/278 271/271/271 270/270/270
f 278/278/278 270/270/270 277/277/277
f 279/279/279 267/267/267 271/271/271
f 274/274/274 267/267/267 279/279/279
f 279/279/279 271/271/271 278/278/278
f 280/280/280 272/272/272 273/273/273
f 280/280/280 273/273/273 281/281/281
f 282/282/282 280/280/280 281/281/281
f 283/283/283 275/275/275 274/274/274
f 284/284/284 275/275/275 283/283/283
f 285/285/285 284/284/284 283/283/283
f 286/286/286 274/274/274 279/279/279
f 283/283/283 274/274/274 286/286/286
f 285/285/285 283/283/283 287/287/287
f 287/287/287 283/283/283 286/286/286
f 288/288/288 285/285/285 287/287/287
f 289/289/289 279/279/279 278/278/278
f 286/286/286 279/279/279 289/289/289
f 290/290/290 272/272/272 280/280/280
f 290/290/290 276/276/276 272/272/272
f 291/291/291 280/280/280 282/282/282
f 291/291/291 290/290/290 280/280/280
f 292/292/292 291/291/291 282/282/282
f 288/288/288 287/287/287 293/293/293
f 294/294/294 288/288/288 293/293/293
f 287/287/287 286/286/286 295/295/295
f 295/295/295 286/286/286 289/289/289
f 293/293/293 287/287/287 295/295/295
f 289/289/289 278/278/278 296/296/296
f 296/296/296 278/278/278 277/277/277
f 297/297/297 277/277/277 276/276/276
f 297/297/297 276/276/276 290/290/290
f 296/296/296 277/277/277 297/297/297
f 298/298/298 290/290/290 291/291/291
f 298/298/298 297/297/297 290/290/290
f 299/299/299 291/291/291 292/292/292
f 299/299/299 298/298/298 291/291/291
f 300/300/300 299/299/299 292/292/292
f 295/295/295 289/289/289 301/301/301
f 301/301/301 289/289/289 296/296/296
f 302/302/302 296/296/296 297/297/297
f 302/302/302 297/297/297 298/298/298
f 301/301/301 296/296/296 302/302/302
f 293/293/293 295/295/295 303/303/303
f 303/303/303 295/295/295 301/301/301
f 304/304/304 298/298/298 299/299/299
f 304/304/304 302/302/302 298/298/298
f 305/305/305 299/299/299 300/300/300
f 305/305/305 304/304/304 299/299/299
f 306/306/306 305/305/305 300/300/300
f 307/307/307 301/301/301 302/302/302
f 307/307/307 302/302/302 304/304/304
f 303/303/303 301/301/301 307/307/307
f 308/308/308 293/293/293 303/303/303
f 294/294/294 293/293/293 308/308/308
f 309/309/309 294/294/294 308/308/308
f 310/310/310 304/304/304 305/305/305
f 310/310/310 307/307/307 304/304/304
f 311/311/311 305/305/305 306/306/306
f 311/311/311 310/310/310 305/305/305
f 312/312/312 311/311/311 306/306/306
f 313/313/313 303/303/303 307/307/307
f 308/308/308 303/303/303 313/313/313
f 313/313/313 307/307/307 310/310/310
f 309/309/309 308/308/308 314/314/314
f 314/314/314 308/308/308 313/313/313
f 315/315/315 309/309/309 314/314/314
f 316/316/316 313/313/313 310/310/310
f 316/316/316 310/310/310 311/311/311
f 314/314/314 313/313/313 316/316/316
f 317/317/317 311/311/311 312/312/312
f 317/317/317 316/316/316 311/311/311
f 318/318/318 317/317/317 312/312/312
f 315/315/315 314/314/314 319/319/319
f 319/319/319 314/314/314 316/316/316
f 319/319/319 316/316/316 317/317/317
f 320/320/320 315/315/315 319/319/319
f 321/321/321 317/317/317 318/318/318
f 321/321/321 319/319/319 317/317/317
f 320/320/320 319/319/319 321/321/321
f 322/322/322 321/321/321 318/318/318
f 323/323/323 320/320/320 321/321/321
f 323/323/323 321/321/321 322/322/322
f 324/324/324 323/323/323 322/322/322
